<?xml version="1.0" encoding="UTF-8" standalone="no"?>
<!DOCTYPE svg PUBLIC "-//W3C//DTD SVG 1.1//EN"
 "http://www.w3.org/Graphics/SVG/1.1/DTD/svg11.dtd">
<!-- Generated by graphviz version 2.38.0 (20140413.2041)
 -->
<!-- Title: AS42685 IPv6 Upstream Graph Pages: 1 -->
<svg width="691pt" height="670pt"
 viewBox="0.00 0.00 691.06 669.77" xmlns="http://www.w3.org/2000/svg" xmlns:xlink="http://www.w3.org/1999/xlink">
<g id="graph0" class="graph" transform="scale(1 1) rotate(0) translate(4 665.768)">
<title>AS42685 IPv6 Upstream Graph</title>
<polygon fill="white" stroke="none" points="-4,4 -4,-665.768 687.055,-665.768 687.055,4 -4,4"/>
<!-- AS42685 -->
<g id="node1" class="node"><title>AS42685</title>
<g id="a_node1"><a xlink:href="/asn/42685" xlink:title="AS42685 ~ Bundeskanzleramt [AT]">
<ellipse fill="#ffffff" stroke="black" cx="44.1961" cy="-177" rx="44.393" ry="18"/>
<text text-anchor="middle" x="44.1961" y="-173.3" font-family="Times,serif" font-size="14.00" fill="#880000">AS42685</text>
</a>
</g>
</g>
<!-- AS1853 -->
<g id="node2" class="node"><title>AS1853</title>
<g id="a_node2"><a xlink:href="/asn/1853" xlink:title="AS1853 ~ ACOnet Backbone [AT]">
<ellipse fill="#ffffff" stroke="black" cx="164.039" cy="-177" rx="39.7935" ry="18"/>
<text text-anchor="middle" x="164.039" y="-173.3" font-family="Times,serif" font-size="14.00" fill="#2c94b3">AS1853</text>
</a>
</g>
</g>
<!-- AS42685&#45;&gt;AS1853 -->
<g id="edge1" class="edge"><title>AS42685&#45;&gt;AS1853</title>
<path fill="none" stroke="black" stroke-width="4.5" d="M88.4072,-177C96.7198,-177 105.482,-177 113.965,-177"/>
<polygon fill="black" stroke="black" stroke-width="4.5" points="114.123,-180.938 124.123,-177 114.123,-173.063 114.123,-180.938"/>
</g>
<!-- AS3356 -->
<g id="node3" class="node"><title>AS3356</title>
<g id="a_node3"><a xlink:href="/asn/3356" xlink:title="AS3356 ~ Level 3 Parent, LLC [US]">
<ellipse fill="#ffffff" stroke="black" cx="403.724" cy="-483" rx="39.7935" ry="18"/>
<text text-anchor="middle" x="403.724" y="-479.3" font-family="Times,serif" font-size="14.00" fill="#2c94b3">AS3356</text>
</a>
</g>
</g>
<!-- AS1853&#45;&gt;AS3356 -->
<g id="edge2" class="edge"><title>AS1853&#45;&gt;AS3356</title>
<path fill="none" stroke="black" stroke-width="2.11765" d="M178.156,-193.888C217.764,-244.88 336.298,-397.482 383.256,-457.937"/>
<polygon fill="black" stroke="black" stroke-width="2.11765" points="380.748,-460.414 389.647,-466.164 386.276,-456.12 380.748,-460.414"/>
</g>
<!-- AS1764 -->
<g id="node4" class="node"><title>AS1764</title>
<g id="a_node4"><a xlink:href="/asn/1764" xlink:title="AS1764 ~ NEXTLAYER&#45;AS [AT]">
<ellipse fill="#ffffff" stroke="black" cx="283.881" cy="-177" rx="39.7935" ry="18"/>
<text text-anchor="middle" x="283.881" y="-173.3" font-family="Times,serif" font-size="14.00" fill="#2c94b3">AS1764</text>
</a>
</g>
</g>
<!-- AS1853&#45;&gt;AS1764 -->
<g id="edge3" class="edge"><title>AS1853&#45;&gt;AS1764</title>
<path fill="none" stroke="black" stroke-width="4.5" d="M203.951,-177C213.505,-177 223.854,-177 233.817,-177"/>
<polygon fill="black" stroke="black" stroke-width="4.5" points="234.009,-180.938 244.009,-177 234.009,-173.063 234.009,-180.938"/>
</g>
<!-- AS21320 -->
<g id="node5" class="node"><title>AS21320</title>
<g id="a_node5"><a xlink:href="/asn/21320" xlink:title="AS21320 ~ GEANT Vereniging [EU]">
<ellipse fill="#ffffff" stroke="black" cx="283.881" cy="-110" rx="44.393" ry="18"/>
<text text-anchor="middle" x="283.881" y="-106.3" font-family="Times,serif" font-size="14.00" fill="#2c94b3">AS21320</text>
</a>
</g>
</g>
<!-- AS1853&#45;&gt;AS21320 -->
<g id="edge4" class="edge"><title>AS1853&#45;&gt;AS21320</title>
<path fill="none" stroke="black" stroke-width="1.05882" d="M189.456,-163.118C206.489,-153.433 229.461,-140.372 248.364,-129.625"/>
<polygon fill="black" stroke="black" stroke-width="1.05882" points="250.309,-132.545 257.273,-124.56 246.849,-126.46 250.309,-132.545"/>
</g>
<!-- AS6762 -->
<g id="node6" class="node"><title>AS6762</title>
<g id="a_node6"><a xlink:href="/asn/6762" xlink:title="AS6762 ~ TELECOM ITALIA SPARKLE S.p.A. [IT]">
<ellipse fill="#ffffff" stroke="black" cx="643.409" cy="-410" rx="39.7935" ry="18"/>
<text text-anchor="middle" x="643.409" y="-406.3" font-family="Times,serif" font-size="14.00" fill="#2c94b3">AS6762</text>
</a>
</g>
</g>
<!-- AS3356&#45;&gt;AS6762 -->
<g id="edge5" class="edge"><title>AS3356&#45;&gt;AS6762</title>
<path fill="none" stroke="black" d="M406.835,-501.203C411.996,-536.276 428.776,-612.606 479.37,-645 512.455,-666.183 536.056,-668.196 567.762,-645 633.884,-596.626 642.861,-489.237 643.18,-438.109"/>
<polygon fill="black" stroke="black" points="646.68,-438.079 643.134,-428.095 639.68,-438.111 646.68,-438.079"/>
</g>
<!-- AS209 -->
<g id="node7" class="node"><title>AS209</title>
<g id="a_node7"><a xlink:href="/asn/209" xlink:title="AS209 ~ CenturyLink Communications, LLC [US]">
<ellipse fill="#ffffff" stroke="black" cx="523.566" cy="-180" rx="35.194" ry="18"/>
<text text-anchor="middle" x="523.566" y="-176.3" font-family="Times,serif" font-size="14.00" fill="#2c94b3">AS209</text>
</a>
</g>
</g>
<!-- AS3356&#45;&gt;AS209 -->
<g id="edge6" class="edge"><title>AS3356&#45;&gt;AS209</title>
<path fill="none" stroke="black" d="M411.079,-465.252C423.676,-430.235 452.891,-349.846 479.37,-283 489.619,-257.127 501.952,-227.892 510.812,-207.196"/>
<polygon fill="black" stroke="black" points="514.128,-208.344 514.858,-197.775 507.696,-205.582 514.128,-208.344"/>
</g>
<!-- AS6453 -->
<g id="node8" class="node"><title>AS6453</title>
<g id="a_node8"><a xlink:href="/asn/6453" xlink:title="AS6453 ~ TATA COMMUNICATIONS (AMERICA) INC [US]">
<ellipse fill="#ffffff" stroke="black" cx="523.566" cy="-364" rx="39.7935" ry="18"/>
<text text-anchor="middle" x="523.566" y="-360.3" font-family="Times,serif" font-size="14.00" fill="#2c94b3">AS6453</text>
</a>
</g>
</g>
<!-- AS3356&#45;&gt;AS6453 -->
<g id="edge7" class="edge"><title>AS3356&#45;&gt;AS6453</title>
<path fill="none" stroke="black" d="M421.109,-466.454C441.425,-445.939 476.186,-410.836 499.269,-387.526"/>
<polygon fill="black" stroke="black" points="501.77,-389.974 506.32,-380.406 496.797,-385.049 501.77,-389.974"/>
</g>
<!-- AS1273 -->
<g id="node9" class="node"><title>AS1273</title>
<g id="a_node9"><a xlink:href="/asn/1273" xlink:title="AS1273 ~ Vodafone Group PLC [EU]">
<ellipse fill="#ffffff" stroke="black" cx="523.566" cy="-564" rx="39.7935" ry="18"/>
<text text-anchor="middle" x="523.566" y="-560.3" font-family="Times,serif" font-size="14.00" fill="#2c94b3">AS1273</text>
</a>
</g>
</g>
<!-- AS3356&#45;&gt;AS1273 -->
<g id="edge8" class="edge"><title>AS3356&#45;&gt;AS1273</title>
<path fill="none" stroke="black" d="M425.054,-498.277C439.916,-509.304 460.661,-524.407 479.37,-537 482.919,-539.389 486.67,-541.839 490.418,-544.242"/>
<polygon fill="black" stroke="black" points="488.744,-547.325 499.067,-549.712 492.486,-541.409 488.744,-547.325"/>
</g>
<!-- AS3549 -->
<g id="node10" class="node"><title>AS3549</title>
<g id="a_node10"><a xlink:href="/asn/3549" xlink:title="AS3549 ~ Level 3 Parent, LLC [US]">
<ellipse fill="#ffffff" stroke="black" cx="523.566" cy="-618" rx="39.7935" ry="18"/>
<text text-anchor="middle" x="523.566" y="-614.3" font-family="Times,serif" font-size="14.00" fill="#2c94b3">AS3549</text>
</a>
</g>
</g>
<!-- AS3356&#45;&gt;AS3549 -->
<g id="edge9" class="edge"><title>AS3356&#45;&gt;AS3549</title>
<path fill="none" stroke="black" d="M413.965,-500.713C426.51,-523.561 450.687,-563.611 479.37,-591 482.238,-593.739 485.427,-596.347 488.736,-598.785"/>
<polygon fill="black" stroke="black" points="486.86,-601.742 497.096,-604.477 490.8,-595.956 486.86,-601.742"/>
</g>
<!-- AS2497 -->
<g id="node11" class="node"><title>AS2497</title>
<g id="a_node11"><a xlink:href="/asn/2497" xlink:title="AS2497 ~ Internet Initiative Japan Inc. [JP]">
<ellipse fill="#ffffff" stroke="black" cx="523.566" cy="-510" rx="39.7935" ry="18"/>
<text text-anchor="middle" x="523.566" y="-506.3" font-family="Times,serif" font-size="14.00" fill="#2c94b3">AS2497</text>
</a>
</g>
</g>
<!-- AS3356&#45;&gt;AS2497 -->
<g id="edge10" class="edge"><title>AS3356&#45;&gt;AS2497</title>
<path fill="none" stroke="black" d="M439.443,-490.955C451.443,-493.704 465.064,-496.825 477.756,-499.733"/>
<polygon fill="black" stroke="black" points="477.159,-503.187 487.688,-502.009 478.722,-496.364 477.159,-503.187"/>
</g>
<!-- AS701 -->
<g id="node12" class="node"><title>AS701</title>
<g id="a_node12"><a xlink:href="/asn/701" xlink:title="AS701 ~ UUNET [US]">
<ellipse fill="#ffffff" stroke="black" cx="523.566" cy="-456" rx="35.194" ry="18"/>
<text text-anchor="middle" x="523.566" y="-452.3" font-family="Times,serif" font-size="14.00" fill="#2c94b3">AS701</text>
</a>
</g>
</g>
<!-- AS3356&#45;&gt;AS701 -->
<g id="edge11" class="edge"><title>AS3356&#45;&gt;AS701</title>
<path fill="none" stroke="black" d="M439.443,-475.045C452.536,-472.045 467.558,-468.604 481.199,-465.478"/>
<polygon fill="black" stroke="black" points="482.34,-468.807 491.306,-463.162 480.777,-461.984 482.34,-468.807"/>
</g>
<!-- AS2914 -->
<g id="node13" class="node"><title>AS2914</title>
<g id="a_node13"><a xlink:href="/asn/2914" xlink:title="AS2914 ~ NTT America, Inc. [US]">
<ellipse fill="#ffffff" stroke="black" cx="403.724" cy="-310" rx="39.7935" ry="18"/>
<text text-anchor="middle" x="403.724" y="-306.3" font-family="Times,serif" font-size="14.00" fill="#2c94b3">AS2914</text>
</a>
</g>
</g>
<!-- AS1764&#45;&gt;AS2914 -->
<g id="edge12" class="edge"><title>AS1764&#45;&gt;AS2914</title>
<path fill="none" stroke="black" stroke-width="4.5" d="M299.568,-193.576C320.032,-216.673 357.275,-258.705 380.968,-285.445"/>
<polygon fill="black" stroke="black" stroke-width="4.5" points="378.273,-288.342 387.852,-293.215 384.167,-283.12 378.273,-288.342"/>
</g>
<!-- AS1299 -->
<g id="node14" class="node"><title>AS1299</title>
<g id="a_node14"><a xlink:href="/asn/1299" xlink:title="AS1299 ~ Telia Carrier [EU]">
<ellipse fill="#ffffff" stroke="black" cx="403.724" cy="-153" rx="39.7935" ry="18"/>
<text text-anchor="middle" x="403.724" y="-149.3" font-family="Times,serif" font-size="14.00" fill="#2c94b3">AS1299</text>
</a>
</g>
</g>
<!-- AS1764&#45;&gt;AS1299 -->
<g id="edge13" class="edge"><title>AS1764&#45;&gt;AS1299</title>
<path fill="none" stroke="black" stroke-width="2.45455" d="M320.238,-169.799C331.784,-167.448 344.776,-164.802 356.974,-162.317"/>
<polygon fill="black" stroke="black" stroke-width="2.45455" points="357.884,-165.704 366.985,-160.279 356.487,-158.845 357.884,-165.704"/>
</g>
<!-- AS174 -->
<g id="node17" class="node"><title>AS174</title>
<g id="a_node17"><a xlink:href="/asn/174" xlink:title="AS174 ~ Cogent Communications [US]">
<ellipse fill="#ffffff" stroke="black" cx="523.566" cy="-18" rx="35.194" ry="18"/>
<text text-anchor="middle" x="523.566" y="-14.3" font-family="Times,serif" font-size="14.00" fill="#2c94b3">AS174</text>
</a>
</g>
</g>
<!-- AS21320&#45;&gt;AS174 -->
<g id="edge29" class="edge"><title>AS21320&#45;&gt;AS174</title>
<path fill="none" stroke="black" stroke-width="4" d="M316.444,-97.7831C360.182,-80.8534 439.073,-50.3173 485.54,-32.3318"/>
<polygon fill="black" stroke="black" stroke-width="4" points="486.876,-35.5676 494.939,-28.6938 484.349,-29.0395 486.876,-35.5676"/>
</g>
<!-- AS2914&#45;&gt;AS6762 -->
<g id="edge20" class="edge"><title>AS2914&#45;&gt;AS6762</title>
<path fill="none" stroke="black" d="M415.199,-327.307C427.818,-346.452 450.913,-376.505 479.37,-391 514.809,-409.051 560.064,-413.067 593.899,-412.986"/>
<polygon fill="black" stroke="black" points="594.061,-416.485 604.01,-412.841 593.96,-409.485 594.061,-416.485"/>
</g>
<!-- AS2914&#45;&gt;AS6453 -->
<g id="edge28" class="edge"><title>AS2914&#45;&gt;AS6453</title>
<path fill="none" stroke="black" d="M432.353,-322.661C448.31,-329.973 468.58,-339.261 485.863,-347.181"/>
<polygon fill="black" stroke="black" points="484.562,-350.435 495.111,-351.419 487.478,-344.071 484.562,-350.435"/>
</g>
<!-- AS2914&#45;&gt;AS1273 -->
<g id="edge19" class="edge"><title>AS2914&#45;&gt;AS1273</title>
<path fill="none" stroke="black" d="M408.969,-328.052C420.423,-375.647 452.877,-503.21 479.37,-537 481.689,-539.958 484.429,-542.678 487.386,-545.157"/>
<polygon fill="black" stroke="black" points="485.443,-548.073 495.579,-551.157 489.579,-542.425 485.443,-548.073"/>
</g>
<!-- AS2914&#45;&gt;AS2497 -->
<g id="edge21" class="edge"><title>AS2914&#45;&gt;AS2497</title>
<path fill="none" stroke="black" d="M408.713,-328.099C416.918,-361.868 438.443,-435.36 479.37,-483 481.82,-485.851 484.646,-488.5 487.657,-490.934"/>
<polygon fill="black" stroke="black" points="485.762,-493.882 495.926,-496.872 489.845,-488.196 485.762,-493.882"/>
</g>
<!-- AS2914&#45;&gt;AS701 -->
<g id="edge24" class="edge"><title>AS2914&#45;&gt;AS701</title>
<path fill="none" stroke="black" d="M413.664,-327.569C426.227,-351.192 450.793,-393.719 479.37,-424 483.294,-428.157 487.813,-432.157 492.417,-435.837"/>
<polygon fill="black" stroke="black" points="490.598,-438.849 500.688,-442.079 494.815,-433.261 490.598,-438.849"/>
</g>
<!-- AS3257 -->
<g id="node15" class="node"><title>AS3257</title>
<g id="a_node15"><a xlink:href="/asn/3257" xlink:title="AS3257 ~ GTT [DE]">
<ellipse fill="#ffffff" stroke="black" cx="523.566" cy="-126" rx="39.7935" ry="18"/>
<text text-anchor="middle" x="523.566" y="-122.3" font-family="Times,serif" font-size="14.00" fill="#2c94b3">AS3257</text>
</a>
</g>
</g>
<!-- AS2914&#45;&gt;AS3257 -->
<g id="edge26" class="edge"><title>AS2914&#45;&gt;AS3257</title>
<path fill="none" stroke="black" d="M409.587,-292.117C418.817,-260.864 441.416,-195.583 479.37,-153 481.871,-150.194 484.732,-147.576 487.765,-145.16"/>
<polygon fill="black" stroke="black" points="489.949,-147.901 496.064,-139.249 485.888,-142.199 489.949,-147.901"/>
</g>
<!-- AS2914&#45;&gt;AS174 -->
<g id="edge27" class="edge"><title>AS2914&#45;&gt;AS174</title>
<path fill="none" stroke="black" d="M410.263,-291.961C417.916,-266.902 432.062,-220.112 443.37,-180 460.219,-120.233 442.467,-94.9414 479.37,-45 481.913,-41.5593 485.037,-38.4548 488.432,-35.6823"/>
<polygon fill="black" stroke="black" points="490.571,-38.4563 496.699,-29.8138 486.519,-32.7482 490.571,-38.4563"/>
</g>
<!-- AS3491 -->
<g id="node18" class="node"><title>AS3491</title>
<g id="a_node18"><a xlink:href="/asn/3491" xlink:title="AS3491 ~ PCCW Global, Inc. [US]">
<ellipse fill="#ffffff" stroke="black" cx="643.409" cy="-168" rx="39.7935" ry="18"/>
<text text-anchor="middle" x="643.409" y="-164.3" font-family="Times,serif" font-size="14.00" fill="#2c94b3">AS3491</text>
</a>
</g>
</g>
<!-- AS2914&#45;&gt;AS3491 -->
<g id="edge22" class="edge"><title>AS2914&#45;&gt;AS3491</title>
<path fill="none" stroke="black" d="M434.89,-298.558C475.417,-282.931 544.992,-255.129 567.762,-240 587.813,-226.678 607.28,-207.633 621.304,-192.477"/>
<polygon fill="black" stroke="black" points="623.997,-194.717 628.116,-184.956 618.809,-190.018 623.997,-194.717"/>
</g>
<!-- AS5511 -->
<g id="node19" class="node"><title>AS5511</title>
<g id="a_node19"><a xlink:href="/asn/5511" xlink:title="AS5511 ~ Orange S.A. [FR]">
<ellipse fill="#ffffff" stroke="black" cx="643.409" cy="-66" rx="39.7935" ry="18"/>
<text text-anchor="middle" x="643.409" y="-62.3" font-family="Times,serif" font-size="14.00" fill="#2c94b3">AS5511</text>
</a>
</g>
</g>
<!-- AS2914&#45;&gt;AS5511 -->
<g id="edge23" class="edge"><title>AS2914&#45;&gt;AS5511</title>
<path fill="none" stroke="black" d="M418.946,-293.289C432.963,-277.701 455.668,-254.705 479.37,-240 515.003,-217.893 536.253,-234.67 567.762,-207 570.159,-204.896 607.765,-132.797 628.663,-92.5362"/>
<polygon fill="black" stroke="black" points="631.842,-94.0081 633.34,-83.5197 625.628,-90.7849 631.842,-94.0081"/>
</g>
<!-- AS12956 -->
<g id="node20" class="node"><title>AS12956</title>
<g id="a_node20"><a xlink:href="/asn/12956" xlink:title="AS12956 ~ TELXIUS [ES]">
<ellipse fill="#ffffff" stroke="black" cx="523.566" cy="-310" rx="44.393" ry="18"/>
<text text-anchor="middle" x="523.566" y="-306.3" font-family="Times,serif" font-size="14.00" fill="#2c94b3">AS12956</text>
</a>
</g>
</g>
<!-- AS2914&#45;&gt;AS12956 -->
<g id="edge25" class="edge"><title>AS2914&#45;&gt;AS12956</title>
<path fill="none" stroke="black" d="M443.636,-310C451.739,-310 460.414,-310 468.941,-310"/>
<polygon fill="black" stroke="black" points="469.218,-313.5 479.218,-310 469.218,-306.5 469.218,-313.5"/>
</g>
<!-- AS1299&#45;&gt;AS209 -->
<g id="edge17" class="edge"><title>AS1299&#45;&gt;AS209</title>
<path fill="none" stroke="black" d="M439.443,-160.955C452.536,-163.955 467.558,-167.396 481.199,-170.522"/>
<polygon fill="black" stroke="black" points="480.777,-174.016 491.306,-172.838 482.34,-167.193 480.777,-174.016"/>
</g>
<!-- AS1299&#45;&gt;AS6453 -->
<g id="edge16" class="edge"><title>AS1299&#45;&gt;AS6453</title>
<path fill="none" stroke="black" d="M408.168,-171.14C415.664,-206.531 436.349,-285.796 479.37,-337 481.788,-339.878 484.594,-342.544 487.592,-344.99"/>
<polygon fill="black" stroke="black" points="485.685,-347.93 495.842,-350.943 489.781,-342.254 485.685,-347.93"/>
</g>
<!-- AS1299&#45;&gt;AS3257 -->
<g id="edge14" class="edge"><title>AS1299&#45;&gt;AS3257</title>
<path fill="none" stroke="black" d="M439.443,-145.045C451.443,-142.296 465.064,-139.175 477.756,-136.267"/>
<polygon fill="black" stroke="black" points="478.722,-139.636 487.688,-133.991 477.159,-132.813 478.722,-139.636"/>
</g>
<!-- AS7018 -->
<g id="node16" class="node"><title>AS7018</title>
<g id="a_node16"><a xlink:href="/asn/7018" xlink:title="AS7018 ~ AT&amp;T Services, Inc. [US]">
<ellipse fill="#ffffff" stroke="black" cx="523.566" cy="-72" rx="39.7935" ry="18"/>
<text text-anchor="middle" x="523.566" y="-68.3" font-family="Times,serif" font-size="14.00" fill="#2c94b3">AS7018</text>
</a>
</g>
</g>
<!-- AS1299&#45;&gt;AS7018 -->
<g id="edge15" class="edge"><title>AS1299&#45;&gt;AS7018</title>
<path fill="none" stroke="black" d="M425.054,-137.723C439.916,-126.696 460.661,-111.593 479.37,-99 482.919,-96.6111 486.67,-94.1609 490.418,-91.7579"/>
<polygon fill="black" stroke="black" points="492.486,-94.5912 499.067,-86.2876 488.744,-88.6753 492.486,-94.5912"/>
</g>
<!-- AS1299&#45;&gt;AS174 -->
<g id="edge18" class="edge"><title>AS1299&#45;&gt;AS174</title>
<path fill="none" stroke="black" d="M416.669,-135.693C437.693,-105.238 479.124,-45.2349 479.37,-45 482.624,-41.8928 486.291,-38.9542 490.078,-36.24"/>
<polygon fill="black" stroke="black" points="492.055,-39.1284 498.446,-30.6781 488.18,-33.2986 492.055,-39.1284"/>
</g>
<!-- AS174&#45;&gt;AS6762 -->
<g id="edge30" class="edge"><title>AS174&#45;&gt;AS6762</title>
<path fill="none" stroke="black" d="M550.674,-29.6414C557.126,-33.6558 563.424,-38.7528 567.762,-45 577.503,-59.0284 621.995,-298.429 637.254,-381.715"/>
<polygon fill="black" stroke="black" points="633.845,-382.528 639.087,-391.735 640.731,-381.268 633.845,-382.528"/>
</g>
<!-- AS174&#45;&gt;AS3491 -->
<g id="edge31" class="edge"><title>AS174&#45;&gt;AS3491</title>
<path fill="none" stroke="black" d="M548.896,-30.4655C555.483,-34.5394 562.296,-39.4608 567.762,-45 582.789,-60.2258 611.124,-110.139 628.232,-141.507"/>
<polygon fill="black" stroke="black" points="625.311,-143.463 633.153,-150.587 631.465,-140.128 625.311,-143.463"/>
</g>
<!-- AS174&#45;&gt;AS5511 -->
<g id="edge32" class="edge"><title>AS174&#45;&gt;AS5511</title>
<path fill="none" stroke="black" d="M551.602,-29.0122C567.052,-35.3055 586.689,-43.3038 603.746,-50.2517"/>
<polygon fill="black" stroke="black" points="602.858,-53.6693 613.44,-54.2002 605.499,-47.1865 602.858,-53.6693"/>
</g>
</g>
</svg>
