<?xml version="1.0" encoding="UTF-8" standalone="no"?>
<!DOCTYPE svg PUBLIC "-//W3C//DTD SVG 1.1//EN"
 "http://www.w3.org/Graphics/SVG/1.1/DTD/svg11.dtd">
<!-- Generated by graphviz version 2.38.0 (20140413.2041)
 -->
<!-- Title: AS42685 Combined Upstream Graph Pages: 1 -->
<svg width="682pt" height="693pt"
 viewBox="0.00 0.00 681.96 693.45" xmlns="http://www.w3.org/2000/svg" xmlns:xlink="http://www.w3.org/1999/xlink">
<g id="graph0" class="graph" transform="scale(1 1) rotate(0) translate(4 689.453)">
<title>AS42685 Combined Upstream Graph</title>
<polygon fill="white" stroke="none" points="-4,4 -4,-689.453 677.956,-689.453 677.956,4 -4,4"/>
<!-- AS42685 -->
<g id="node1" class="node"><title>AS42685</title>
<g id="a_node1"><a xlink:href="/asn/42685" xlink:title="AS42685 ~ Bundeskanzleramt [AT]">
<ellipse fill="#ffffff" stroke="black" cx="44.1961" cy="-223.453" rx="44.393" ry="18"/>
<text text-anchor="middle" x="44.1961" y="-219.753" font-family="Times,serif" font-size="14.00" fill="#880000">AS42685</text>
</a>
</g>
</g>
<!-- AS1853 -->
<g id="node2" class="node"><title>AS1853</title>
<g id="a_node2"><a xlink:href="/asn/1853" xlink:title="AS1853 ~ ACOnet Backbone [AT]">
<ellipse fill="#ffffff" stroke="black" cx="164.039" cy="-321.453" rx="39.7935" ry="18"/>
<text text-anchor="middle" x="164.039" y="-317.753" font-family="Times,serif" font-size="14.00" fill="#2c94b3">AS1853</text>
</a>
</g>
</g>
<!-- AS42685&#45;&gt;AS1853 -->
<g id="edge1" class="edge"><title>AS42685&#45;&gt;AS1853</title>
<path fill="none" stroke="black" stroke-width="4.5" d="M64.6554,-239.636C84.1322,-255.833 114.256,-280.884 136.04,-299.001"/>
<polygon fill="black" stroke="black" stroke-width="4.5" points="133.735,-302.205 143.941,-305.571 138.77,-296.15 133.735,-302.205"/>
</g>
<!-- AS8447 -->
<g id="node3" class="node"><title>AS8447</title>
<g id="a_node3"><a xlink:href="/asn/8447" xlink:title="AS8447 ~ A1 Telekom Austria AG [AT]">
<ellipse fill="#ffffff" stroke="black" cx="164.039" cy="-125.453" rx="39.7935" ry="18"/>
<text text-anchor="middle" x="164.039" y="-121.753" font-family="Times,serif" font-size="14.00" fill="#2c94b3">AS8447</text>
</a>
</g>
</g>
<!-- AS42685&#45;&gt;AS8447 -->
<g id="edge2" class="edge"><title>AS42685&#45;&gt;AS8447</title>
<path fill="none" stroke="black" stroke-width="0.121622" d="M64.6554,-207.27C84.1322,-191.073 114.256,-166.022 136.04,-147.905"/>
<polygon fill="black" stroke="black" stroke-width="0.121622" points="138.491,-150.42 143.941,-141.335 134.015,-145.038 138.491,-150.42"/>
</g>
<!-- AS1764 -->
<g id="node4" class="node"><title>AS1764</title>
<g id="a_node4"><a xlink:href="/asn/1764" xlink:title="AS1764 ~ NEXTLAYER&#45;AS [AT]">
<ellipse fill="#ffffff" stroke="black" cx="283.881" cy="-402.453" rx="39.7935" ry="18"/>
<text text-anchor="middle" x="283.881" y="-398.753" font-family="Times,serif" font-size="14.00" fill="#2c94b3">AS1764</text>
</a>
</g>
</g>
<!-- AS1853&#45;&gt;AS1764 -->
<g id="edge3" class="edge"><title>AS1853&#45;&gt;AS1764</title>
<path fill="none" stroke="black" stroke-width="4.5" d="M186.653,-336.31C205.141,-349.018 231.955,-367.449 252.585,-381.628"/>
<polygon fill="black" stroke="black" stroke-width="4.5" points="250.534,-384.997 261.005,-387.416 254.994,-378.507 250.534,-384.997"/>
</g>
<!-- AS3356 -->
<g id="node5" class="node"><title>AS3356</title>
<g id="a_node5"><a xlink:href="/asn/3356" xlink:title="AS3356 ~ Level 3 Parent, LLC [US]">
<ellipse fill="#ffffff" stroke="black" cx="403.724" cy="-559.453" rx="39.7935" ry="18"/>
<text text-anchor="middle" x="403.724" y="-555.753" font-family="Times,serif" font-size="14.00" fill="#2c94b3">AS3356</text>
</a>
</g>
</g>
<!-- AS1853&#45;&gt;AS3356 -->
<g id="edge4" class="edge"><title>AS1853&#45;&gt;AS3356</title>
<path fill="none" stroke="black" stroke-width="0.803571" d="M175.003,-339.062C188.144,-361.444 212.772,-400.634 239.685,-429.453 280.914,-473.601 337.662,-515.427 372.183,-539.202"/>
<polygon fill="black" stroke="black" stroke-width="0.803571" points="370.225,-542.103 380.458,-544.848 374.17,-536.321 370.225,-542.103"/>
</g>
<!-- AS21320 -->
<g id="node6" class="node"><title>AS21320</title>
<g id="a_node6"><a xlink:href="/asn/21320" xlink:title="AS21320 ~ GEANT Vereniging [EU]">
<ellipse fill="#ffffff" stroke="black" cx="283.881" cy="-321.453" rx="44.393" ry="18"/>
<text text-anchor="middle" x="283.881" y="-317.753" font-family="Times,serif" font-size="14.00" fill="#2c94b3">AS21320</text>
</a>
</g>
</g>
<!-- AS1853&#45;&gt;AS21320 -->
<g id="edge5" class="edge"><title>AS1853&#45;&gt;AS21320</title>
<path fill="none" stroke="black" stroke-width="0.482143" d="M203.951,-321.453C212.054,-321.453 220.729,-321.453 229.255,-321.453"/>
<polygon fill="black" stroke="black" stroke-width="0.482143" points="229.533,-324.953 239.533,-321.453 229.533,-317.953 229.533,-324.953"/>
</g>
<!-- AS6939 -->
<g id="node7" class="node"><title>AS6939</title>
<g id="a_node7"><a xlink:href="/asn/6939" xlink:title="AS6939 ~ Hurricane Electric LLC [US]">
<ellipse fill="#ffffff" stroke="black" cx="283.881" cy="-267.453" rx="39.7935" ry="18"/>
<text text-anchor="middle" x="283.881" y="-263.753" font-family="Times,serif" font-size="14.00" fill="#2c94b3">AS6939</text>
</a>
</g>
</g>
<!-- AS1853&#45;&gt;AS6939 -->
<g id="edge6" class="edge"><title>AS1853&#45;&gt;AS6939</title>
<path fill="none" stroke="black" stroke-width="0.160714" d="M192.667,-308.792C208.624,-301.48 228.895,-292.192 246.178,-284.272"/>
<polygon fill="black" stroke="black" stroke-width="0.160714" points="247.793,-287.382 255.425,-280.034 244.876,-281.018 247.793,-287.382"/>
</g>
<!-- AS6762 -->
<g id="node11" class="node"><title>AS6762</title>
<g id="a_node11"><a xlink:href="/asn/6762" xlink:title="AS6762 ~ TELECOM ITALIA SPARKLE S.p.A. [IT]">
<ellipse fill="#ffffff" stroke="black" cx="634.31" cy="-144.453" rx="39.7935" ry="18"/>
<text text-anchor="middle" x="634.31" y="-140.753" font-family="Times,serif" font-size="14.00" fill="#2c94b3">AS6762</text>
</a>
</g>
</g>
<!-- AS8447&#45;&gt;AS6762 -->
<g id="edge26" class="edge"><title>AS8447&#45;&gt;AS6762</title>
<path fill="none" stroke="black" d="M185.624,-110.069C246.399,-66.6756 428.9,48.9634 558.663,-23.4531 594.139,-43.251 614.854,-87.6097 625.124,-116.763"/>
<polygon fill="black" stroke="black" points="621.846,-117.995 628.328,-126.375 628.486,-115.781 621.846,-117.995"/>
</g>
<!-- AS1764&#45;&gt;AS3356 -->
<g id="edge8" class="edge"><title>AS1764&#45;&gt;AS3356</title>
<path fill="none" stroke="black" stroke-width="0.642857" d="M305.887,-417.695C313.371,-423.687 321.554,-430.93 328.077,-438.453 353.601,-467.886 376.027,-507.021 389.473,-532.706"/>
<polygon fill="black" stroke="black" stroke-width="0.642857" points="386.487,-534.553 394.174,-541.844 392.711,-531.35 386.487,-534.553"/>
</g>
<!-- AS2914 -->
<g id="node8" class="node"><title>AS2914</title>
<g id="a_node8"><a xlink:href="/asn/2914" xlink:title="AS2914 ~ NTT America, Inc. [US]">
<ellipse fill="#ffffff" stroke="black" cx="403.724" cy="-428.453" rx="39.7935" ry="18"/>
<text text-anchor="middle" x="403.724" y="-424.753" font-family="Times,serif" font-size="14.00" fill="#2c94b3">AS2914</text>
</a>
</g>
</g>
<!-- AS1764&#45;&gt;AS2914 -->
<g id="edge7" class="edge"><title>AS1764&#45;&gt;AS2914</title>
<path fill="none" stroke="black" stroke-width="4.5" d="M319.919,-410.184C331.803,-412.806 345.248,-415.772 357.795,-418.54"/>
<polygon fill="black" stroke="black" stroke-width="4.5" points="357.004,-422.398 367.618,-420.707 358.701,-414.708 357.004,-422.398"/>
</g>
<!-- AS1299 -->
<g id="node9" class="node"><title>AS1299</title>
<g id="a_node9"><a xlink:href="/asn/1299" xlink:title="AS1299 ~ Telia Carrier [EU]">
<ellipse fill="#ffffff" stroke="black" cx="403.724" cy="-198.453" rx="39.7935" ry="18"/>
<text text-anchor="middle" x="403.724" y="-194.753" font-family="Times,serif" font-size="14.00" fill="#2c94b3">AS1299</text>
</a>
</g>
</g>
<!-- AS1764&#45;&gt;AS1299 -->
<g id="edge9" class="edge"><title>AS1764&#45;&gt;AS1299</title>
<path fill="none" stroke="black" stroke-width="3.85714" d="M299.869,-385.646C308.671,-375.327 319.678,-361.608 328.077,-348.453 354.208,-307.526 378.001,-256.193 391.393,-225.427"/>
<polygon fill="black" stroke="black" stroke-width="3.85714" points="394.626,-226.769 395.366,-216.201 388.197,-224.001 394.626,-226.769"/>
</g>
<!-- AS2497 -->
<g id="node10" class="node"><title>AS2497</title>
<g id="a_node10"><a xlink:href="/asn/2497" xlink:title="AS2497 ~ Internet Initiative Japan Inc. [JP]">
<ellipse fill="#ffffff" stroke="black" cx="519.017" cy="-613.453" rx="39.7935" ry="18"/>
<text text-anchor="middle" x="519.017" y="-609.753" font-family="Times,serif" font-size="14.00" fill="#2c94b3">AS2497</text>
</a>
</g>
</g>
<!-- AS3356&#45;&gt;AS2497 -->
<g id="edge18" class="edge"><title>AS3356&#45;&gt;AS2497</title>
<path fill="none" stroke="black" stroke-width="2" d="M431.86,-572.387C446.854,-579.534 465.675,-588.505 481.898,-596.238"/>
<polygon fill="black" stroke="black" stroke-width="2" points="480.569,-599.481 491.102,-600.624 483.581,-593.162 480.569,-599.481"/>
</g>
<!-- AS3549 -->
<g id="node17" class="node"><title>AS3549</title>
<g id="a_node17"><a xlink:href="/asn/3549" xlink:title="AS3549 ~ Level 3 Parent, LLC [US]">
<ellipse fill="#ffffff" stroke="black" cx="519.017" cy="-667.453" rx="39.7935" ry="18"/>
<text text-anchor="middle" x="519.017" y="-663.753" font-family="Times,serif" font-size="14.00" fill="#2c94b3">AS3549</text>
</a>
</g>
</g>
<!-- AS3356&#45;&gt;AS3549 -->
<g id="edge17" class="edge"><title>AS3356&#45;&gt;AS3549</title>
<path fill="none" stroke="black" stroke-width="2" d="M418.354,-576.27C432.636,-593.382 456.183,-620.198 479.37,-640.453 481.836,-642.607 484.475,-644.747 487.172,-646.825"/>
<polygon fill="black" stroke="black" stroke-width="2" points="485.197,-649.717 495.326,-652.823 489.345,-644.078 485.197,-649.717"/>
</g>
<!-- AS174 -->
<g id="node12" class="node"><title>AS174</title>
<g id="a_node12"><a xlink:href="/asn/174" xlink:title="AS174 ~ Cogent Communications [US]">
<ellipse fill="#ffffff" stroke="black" cx="519.017" cy="-321.453" rx="35.194" ry="18"/>
<text text-anchor="middle" x="519.017" y="-317.753" font-family="Times,serif" font-size="14.00" fill="#2c94b3">AS174</text>
</a>
</g>
</g>
<!-- AS21320&#45;&gt;AS174 -->
<g id="edge27" class="edge"><title>AS21320&#45;&gt;AS174</title>
<path fill="none" stroke="black" stroke-width="3" d="M328.186,-321.453C369.581,-321.453 431.706,-321.453 473.5,-321.453"/>
<polygon fill="black" stroke="black" stroke-width="3" points="473.663,-324.953 483.663,-321.453 473.663,-317.953 473.663,-324.953"/>
</g>
<!-- AS209 -->
<g id="node20" class="node"><title>AS209</title>
<g id="a_node20"><a xlink:href="/asn/209" xlink:title="AS209 ~ CenturyLink Communications, LLC [US]">
<ellipse fill="#ffffff" stroke="black" cx="519.017" cy="-267.453" rx="35.194" ry="18"/>
<text text-anchor="middle" x="519.017" y="-263.753" font-family="Times,serif" font-size="14.00" fill="#2c94b3">AS209</text>
</a>
</g>
</g>
<!-- AS6939&#45;&gt;AS209 -->
<g id="edge30" class="edge"><title>AS6939&#45;&gt;AS209</title>
<path fill="none" stroke="black" d="M323.64,-267.453C364.908,-267.453 430.12,-267.453 473.473,-267.453"/>
<polygon fill="black" stroke="black" points="473.726,-270.953 483.726,-267.453 473.726,-263.953 473.726,-270.953"/>
</g>
<!-- AS2914&#45;&gt;AS2497 -->
<g id="edge10" class="edge"><title>AS2914&#45;&gt;AS2497</title>
<path fill="none" stroke="black" stroke-width="2" d="M409.785,-446.253C419.322,-477.401 442.38,-542.642 479.37,-586.453 481.251,-588.681 483.357,-590.812 485.589,-592.829"/>
<polygon fill="black" stroke="black" stroke-width="2" points="483.538,-595.671 493.518,-599.228 487.934,-590.224 483.538,-595.671"/>
</g>
<!-- AS2914&#45;&gt;AS6762 -->
<g id="edge11" class="edge"><title>AS2914&#45;&gt;AS6762</title>
<path fill="none" stroke="black" stroke-width="2" d="M426.363,-413.471C440.967,-403.702 460.879,-391.037 479.37,-381.453 513.261,-363.889 532.267,-376.026 558.663,-348.453 583.559,-322.448 612.839,-221.768 626.117,-172.26"/>
<polygon fill="black" stroke="black" stroke-width="2" points="629.52,-173.08 628.7,-162.517 622.754,-171.286 629.52,-173.08"/>
</g>
<!-- AS2914&#45;&gt;AS174 -->
<g id="edge12" class="edge"><title>AS2914&#45;&gt;AS174</title>
<path fill="none" stroke="black" stroke-width="2" d="M420.305,-411.904C435.112,-396.395 458.201,-372.77 479.37,-353.453 483.213,-349.947 487.366,-346.335 491.475,-342.857"/>
<polygon fill="black" stroke="black" stroke-width="2" points="493.786,-345.488 499.231,-336.399 489.306,-340.109 493.786,-345.488"/>
</g>
<!-- AS3257 -->
<g id="node13" class="node"><title>AS3257</title>
<g id="a_node13"><a xlink:href="/asn/3257" xlink:title="AS3257 ~ GTT [DE]">
<ellipse fill="#ffffff" stroke="black" cx="634.31" cy="-321.453" rx="39.7935" ry="18"/>
<text text-anchor="middle" x="634.31" y="-317.753" font-family="Times,serif" font-size="14.00" fill="#2c94b3">AS3257</text>
</a>
</g>
</g>
<!-- AS2914&#45;&gt;AS3257 -->
<g id="edge13" class="edge"><title>AS2914&#45;&gt;AS3257</title>
<path fill="none" stroke="black" stroke-width="2" d="M440.449,-421.6C472.646,-414.5 520.627,-401.58 558.663,-381.453 577.091,-371.702 595.375,-357.109 609.235,-344.756"/>
<polygon fill="black" stroke="black" stroke-width="2" points="611.832,-347.125 616.853,-337.795 607.109,-341.957 611.832,-347.125"/>
</g>
<!-- AS701 -->
<g id="node14" class="node"><title>AS701</title>
<g id="a_node14"><a xlink:href="/asn/701" xlink:title="AS701 ~ UUNET [US]">
<ellipse fill="#ffffff" stroke="black" cx="519.017" cy="-559.453" rx="35.194" ry="18"/>
<text text-anchor="middle" x="519.017" y="-555.753" font-family="Times,serif" font-size="14.00" fill="#2c94b3">AS701</text>
</a>
</g>
</g>
<!-- AS2914&#45;&gt;AS701 -->
<g id="edge14" class="edge"><title>AS2914&#45;&gt;AS701</title>
<path fill="none" stroke="black" stroke-width="2" d="M414.774,-446.022C427.822,-467.88 452.168,-505.595 479.37,-532.453 481.893,-534.944 484.668,-537.365 487.538,-539.668"/>
<polygon fill="black" stroke="black" stroke-width="2" points="485.644,-542.621 495.748,-545.808 489.836,-537.016 485.644,-542.621"/>
</g>
<!-- AS3491 -->
<g id="node15" class="node"><title>AS3491</title>
<g id="a_node15"><a xlink:href="/asn/3491" xlink:title="AS3491 ~ PCCW Global, Inc. [US]">
<ellipse fill="#ffffff" stroke="black" cx="519.017" cy="-505.453" rx="39.7935" ry="18"/>
<text text-anchor="middle" x="519.017" y="-501.753" font-family="Times,serif" font-size="14.00" fill="#2c94b3">AS3491</text>
</a>
</g>
</g>
<!-- AS2914&#45;&gt;AS3491 -->
<g id="edge15" class="edge"><title>AS2914&#45;&gt;AS3491</title>
<path fill="none" stroke="black" d="M426.568,-443.299C443.965,-455.123 468.513,-471.807 487.795,-484.913"/>
<polygon fill="black" stroke="black" points="486.002,-487.926 496.24,-490.652 489.937,-482.136 486.002,-487.926"/>
</g>
<!-- AS6461 -->
<g id="node16" class="node"><title>AS6461</title>
<g id="a_node16"><a xlink:href="/asn/6461" xlink:title="AS6461 ~ Zayo Bandwidth [US]">
<ellipse fill="#ffffff" stroke="black" cx="519.017" cy="-451.453" rx="39.7935" ry="18"/>
<text text-anchor="middle" x="519.017" y="-447.753" font-family="Times,serif" font-size="14.00" fill="#2c94b3">AS6461</text>
</a>
</g>
</g>
<!-- AS2914&#45;&gt;AS6461 -->
<g id="edge16" class="edge"><title>AS2914&#45;&gt;AS6461</title>
<path fill="none" stroke="black" d="M440.26,-435.667C450.488,-437.744 461.789,-440.038 472.531,-442.219"/>
<polygon fill="black" stroke="black" points="472.111,-445.705 482.607,-444.264 473.503,-438.845 472.111,-445.705"/>
</g>
<!-- AS1299&#45;&gt;AS6762 -->
<g id="edge23" class="edge"><title>AS1299&#45;&gt;AS6762</title>
<path fill="none" stroke="black" d="M407.032,-180.417C412.509,-146.062 429.781,-71.8699 479.37,-40.4531 509.14,-21.5927 527.309,-24.3632 558.663,-40.4531 589.735,-56.3983 610.787,-91.9541 622.413,-117.037"/>
<polygon fill="black" stroke="black" points="619.306,-118.667 626.546,-126.402 625.71,-115.841 619.306,-118.667"/>
</g>
<!-- AS1299&#45;&gt;AS174 -->
<g id="edge22" class="edge"><title>AS1299&#45;&gt;AS174</title>
<path fill="none" stroke="black" stroke-width="2" d="M415.766,-215.664C429.258,-235.911 453.505,-269.877 479.37,-294.453 481.94,-296.895 484.747,-299.283 487.636,-301.567"/>
<polygon fill="black" stroke="black" stroke-width="2" points="485.756,-304.53 495.872,-307.68 489.928,-298.909 485.756,-304.53"/>
</g>
<!-- AS1299&#45;&gt;AS3257 -->
<g id="edge21" class="edge"><title>AS1299&#45;&gt;AS3257</title>
<path fill="none" stroke="black" stroke-width="2" d="M442.485,-202.785C475.16,-207.873 522.684,-218.578 558.663,-240.453 581.833,-254.54 602.237,-277.872 615.831,-295.886"/>
<polygon fill="black" stroke="black" stroke-width="2" points="613.211,-298.233 621.939,-304.238 618.861,-294.101 613.211,-298.233"/>
</g>
<!-- AS7018 -->
<g id="node18" class="node"><title>AS7018</title>
<g id="a_node18"><a xlink:href="/asn/7018" xlink:title="AS7018 ~ AT&amp;T Services, Inc. [US]">
<ellipse fill="#ffffff" stroke="black" cx="519.017" cy="-67.4531" rx="39.7935" ry="18"/>
<text text-anchor="middle" x="519.017" y="-63.7531" font-family="Times,serif" font-size="14.00" fill="#2c94b3">AS7018</text>
</a>
</g>
</g>
<!-- AS1299&#45;&gt;AS7018 -->
<g id="edge19" class="edge"><title>AS1299&#45;&gt;AS7018</title>
<path fill="none" stroke="black" stroke-width="2" d="M414.774,-180.885C427.822,-159.026 452.168,-121.311 479.37,-94.4531 481.5,-92.3505 483.809,-90.2978 486.204,-88.3236"/>
<polygon fill="black" stroke="black" stroke-width="2" points="488.716,-90.8087 494.536,-81.9554 484.465,-85.2471 488.716,-90.8087"/>
</g>
<!-- AS1239 -->
<g id="node19" class="node"><title>AS1239</title>
<g id="a_node19"><a xlink:href="/asn/1239" xlink:title="AS1239 ~ Sprint [US]">
<ellipse fill="#ffffff" stroke="black" cx="519.017" cy="-175.453" rx="39.7935" ry="18"/>
<text text-anchor="middle" x="519.017" y="-171.753" font-family="Times,serif" font-size="14.00" fill="#2c94b3">AS1239</text>
</a>
</g>
</g>
<!-- AS1299&#45;&gt;AS1239 -->
<g id="edge20" class="edge"><title>AS1299&#45;&gt;AS1239</title>
<path fill="none" stroke="black" d="M440.26,-191.239C450.488,-189.162 461.789,-186.868 472.531,-184.687"/>
<polygon fill="black" stroke="black" points="473.503,-188.061 482.607,-182.642 472.111,-181.201 473.503,-188.061"/>
</g>
<!-- AS1299&#45;&gt;AS209 -->
<g id="edge24" class="edge"><title>AS1299&#45;&gt;AS209</title>
<path fill="none" stroke="black" d="M428.198,-212.75C445.242,-223.13 468.472,-237.278 487.037,-248.585"/>
<polygon fill="black" stroke="black" points="485.367,-251.666 495.729,-253.879 489.009,-245.688 485.367,-251.666"/>
</g>
<!-- AS6453 -->
<g id="node21" class="node"><title>AS6453</title>
<g id="a_node21"><a xlink:href="/asn/6453" xlink:title="AS6453 ~ TATA COMMUNICATIONS (AMERICA) INC [US]">
<ellipse fill="#ffffff" stroke="black" cx="519.017" cy="-121.453" rx="39.7935" ry="18"/>
<text text-anchor="middle" x="519.017" y="-117.753" font-family="Times,serif" font-size="14.00" fill="#2c94b3">AS6453</text>
</a>
</g>
</g>
<!-- AS1299&#45;&gt;AS6453 -->
<g id="edge25" class="edge"><title>AS1299&#45;&gt;AS6453</title>
<path fill="none" stroke="black" d="M426.568,-183.607C443.965,-171.783 468.513,-155.099 487.795,-141.993"/>
<polygon fill="black" stroke="black" points="489.937,-144.77 496.24,-136.254 486.002,-138.98 489.937,-144.77"/>
</g>
<!-- AS174&#45;&gt;AS6762 -->
<g id="edge29" class="edge"><title>AS174&#45;&gt;AS6762</title>
<path fill="none" stroke="black" d="M543.235,-308.035C548.742,-304.134 554.281,-299.537 558.663,-294.453 590.708,-257.275 612.94,-203.939 624.373,-171.898"/>
<polygon fill="black" stroke="black" points="627.735,-172.885 627.704,-162.29 621.121,-170.592 627.735,-172.885"/>
</g>
<!-- AS174&#45;&gt;AS3257 -->
<g id="edge28" class="edge"><title>AS174&#45;&gt;AS3257</title>
<path fill="none" stroke="black" d="M554.316,-321.453C563.693,-321.453 574.043,-321.453 584.078,-321.453"/>
<polygon fill="black" stroke="black" points="584.367,-324.953 594.367,-321.453 584.366,-317.953 584.367,-324.953"/>
</g>
</g>
</svg>
