<?xml version="1.0" encoding="UTF-8" standalone="no"?>
<!DOCTYPE svg PUBLIC "-//W3C//DTD SVG 1.1//EN"
 "http://www.w3.org/Graphics/SVG/1.1/DTD/svg11.dtd">
<!-- Generated by graphviz version 2.38.0 (20140413.2041)
 -->
<!-- Title: AS8559 IPv4 Upstream Graph Pages: 1 -->
<svg width="558pt" height="530pt"
 viewBox="0.00 0.00 557.56 530.00" xmlns="http://www.w3.org/2000/svg" xmlns:xlink="http://www.w3.org/1999/xlink">
<g id="graph0" class="graph" transform="scale(1 1) rotate(0) translate(4 526)">
<title>AS8559 IPv4 Upstream Graph</title>
<polygon fill="white" stroke="none" points="-4,4 -4,-526 553.564,-526 553.564,4 -4,4"/>
<!-- AS8559 -->
<g id="node1" class="node"><title>AS8559</title>
<g id="a_node1"><a xlink:href="/asn/8559" xlink:title="AS8559 ~ WELLCOM [AT]">
<ellipse fill="#ffffff" stroke="black" cx="39.6465" cy="-261" rx="39.7935" ry="18"/>
<text text-anchor="middle" x="39.6465" y="-257.3" font-family="Times,serif" font-size="14.00" fill="#880000">AS8559</text>
</a>
</g>
</g>
<!-- AS8339 -->
<g id="node2" class="node"><title>AS8339</title>
<g id="a_node2"><a xlink:href="/asn/8339" xlink:title="AS8339 ~ kabelplus GmbH [AT]">
<ellipse fill="#ffffff" stroke="black" cx="154.939" cy="-261" rx="39.7935" ry="18"/>
<text text-anchor="middle" x="154.939" y="-257.3" font-family="Times,serif" font-size="14.00" fill="#2c94b3">AS8339</text>
</a>
</g>
</g>
<!-- AS8559&#45;&gt;AS8339 -->
<g id="edge1" class="edge"><title>AS8559&#45;&gt;AS8339</title>
<path fill="none" stroke="black" stroke-width="4.5" d="M79.3186,-261C87.5216,-261 96.2857,-261 104.818,-261"/>
<polygon fill="black" stroke="black" stroke-width="4.5" points="105.057,-264.938 115.057,-261 105.057,-257.063 105.057,-264.938"/>
</g>
<!-- AS1764 -->
<g id="node3" class="node"><title>AS1764</title>
<g id="a_node3"><a xlink:href="/asn/1764" xlink:title="AS1764 ~ NEXTLAYER&#45;AS [AT]">
<ellipse fill="#ffffff" stroke="black" cx="274.782" cy="-342" rx="39.7935" ry="18"/>
<text text-anchor="middle" x="274.782" y="-338.3" font-family="Times,serif" font-size="14.00" fill="#2c94b3">AS1764</text>
</a>
</g>
</g>
<!-- AS8339&#45;&gt;AS1764 -->
<g id="edge2" class="edge"><title>AS8339&#45;&gt;AS1764</title>
<path fill="none" stroke="black" stroke-width="2.625" d="M177.554,-275.857C196.042,-288.565 222.856,-306.995 243.485,-321.175"/>
<polygon fill="black" stroke="black" stroke-width="2.625" points="241.682,-324.183 251.906,-326.963 245.647,-318.414 241.682,-324.183"/>
</g>
<!-- AS33891 -->
<g id="node4" class="node"><title>AS33891</title>
<g id="a_node4"><a xlink:href="/asn/33891" xlink:title="AS33891 ~ CORE&#45;BACKBONE GMBH GLOBAL NETWORK [DE]">
<ellipse fill="#ffffff" stroke="black" cx="274.782" cy="-180" rx="44.393" ry="18"/>
<text text-anchor="middle" x="274.782" y="-176.3" font-family="Times,serif" font-size="14.00" fill="#2c94b3">AS33891</text>
</a>
</g>
</g>
<!-- AS8339&#45;&gt;AS33891 -->
<g id="edge3" class="edge"><title>AS8339&#45;&gt;AS33891</title>
<path fill="none" stroke="black" stroke-width="4.5" d="M177.554,-246.143C195.926,-233.515 222.519,-215.236 243.095,-201.093"/>
<polygon fill="black" stroke="black" stroke-width="4.5" points="245.494,-204.222 251.504,-195.313 241.033,-197.732 245.494,-204.222"/>
</g>
<!-- AS8218 -->
<g id="node5" class="node"><title>AS8218</title>
<g id="a_node5"><a xlink:href="/asn/8218" xlink:title="AS8218 ~ legacy Neotelecoms [FR]">
<ellipse fill="#ffffff" stroke="black" cx="394.625" cy="-477" rx="39.7935" ry="18"/>
<text text-anchor="middle" x="394.625" y="-473.3" font-family="Times,serif" font-size="14.00" fill="#2c94b3">AS8218</text>
</a>
</g>
</g>
<!-- AS1764&#45;&gt;AS8218 -->
<g id="edge4" class="edge"><title>AS1764&#45;&gt;AS8218</title>
<path fill="none" stroke="black" d="M290.469,-358.825C311.045,-382.397 348.583,-425.4 372.256,-452.52"/>
<polygon fill="black" stroke="black" points="369.91,-455.155 379.123,-460.387 375.184,-450.552 369.91,-455.155"/>
</g>
<!-- AS174 -->
<g id="node6" class="node"><title>AS174</title>
<g id="a_node6"><a xlink:href="/asn/174" xlink:title="AS174 ~ Cogent Communications [US]">
<ellipse fill="#ffffff" stroke="black" cx="394.625" cy="-180" rx="35.194" ry="18"/>
<text text-anchor="middle" x="394.625" y="-176.3" font-family="Times,serif" font-size="14.00" fill="#2c94b3">AS174</text>
</a>
</g>
</g>
<!-- AS1764&#45;&gt;AS174 -->
<g id="edge5" class="edge"><title>AS1764&#45;&gt;AS174</title>
<path fill="none" stroke="black" stroke-width="4" d="M288.17,-324.969C309.001,-296.334 351.134,-238.412 375.363,-205.104"/>
<polygon fill="black" stroke="black" stroke-width="4" points="378.35,-206.948 381.402,-196.802 372.689,-202.83 378.35,-206.948"/>
</g>
<!-- AS2914 -->
<g id="node7" class="node"><title>AS2914</title>
<g id="a_node7"><a xlink:href="/asn/2914" xlink:title="AS2914 ~ NTT America, Inc. [US]">
<ellipse fill="#ffffff" stroke="black" cx="394.625" cy="-396" rx="39.7935" ry="18"/>
<text text-anchor="middle" x="394.625" y="-392.3" font-family="Times,serif" font-size="14.00" fill="#2c94b3">AS2914</text>
</a>
</g>
</g>
<!-- AS1764&#45;&gt;AS2914 -->
<g id="edge6" class="edge"><title>AS1764&#45;&gt;AS2914</title>
<path fill="none" stroke="black" stroke-width="2" d="M303.411,-354.661C319.368,-361.973 339.638,-371.261 356.921,-379.181"/>
<polygon fill="black" stroke="black" stroke-width="2" points="355.62,-382.435 366.169,-383.419 358.536,-376.071 355.62,-382.435"/>
</g>
<!-- AS3356 -->
<g id="node12" class="node"><title>AS3356</title>
<g id="a_node12"><a xlink:href="/asn/3356" xlink:title="AS3356 ~ Level 3 Parent, LLC [US]">
<ellipse fill="#ffffff" stroke="black" cx="394.625" cy="-288" rx="39.7935" ry="18"/>
<text text-anchor="middle" x="394.625" y="-284.3" font-family="Times,serif" font-size="14.00" fill="#2c94b3">AS3356</text>
</a>
</g>
</g>
<!-- AS33891&#45;&gt;AS3356 -->
<g id="edge11" class="edge"><title>AS33891&#45;&gt;AS3356</title>
<path fill="none" stroke="black" stroke-width="4.5" d="M293.68,-196.403C313.608,-214.667 345.965,-244.322 368.443,-264.921"/>
<polygon fill="black" stroke="black" stroke-width="4.5" points="365.912,-267.943 375.945,-271.797 371.233,-262.137 365.912,-267.943"/>
</g>
<!-- AS3257 -->
<g id="node13" class="node"><title>AS3257</title>
<g id="a_node13"><a xlink:href="/asn/3257" xlink:title="AS3257 ~ GTT [DE]">
<ellipse fill="#ffffff" stroke="black" cx="394.625" cy="-126" rx="39.7935" ry="18"/>
<text text-anchor="middle" x="394.625" y="-122.3" font-family="Times,serif" font-size="14.00" fill="#2c94b3">AS3257</text>
</a>
</g>
</g>
<!-- AS33891&#45;&gt;AS3257 -->
<g id="edge12" class="edge"><title>AS33891&#45;&gt;AS3257</title>
<path fill="none" stroke="black" stroke-width="0.642857" d="M304.912,-166.652C320.523,-159.498 339.92,-150.609 356.593,-142.97"/>
<polygon fill="black" stroke="black" stroke-width="0.642857" points="358.412,-145.986 366.045,-138.638 355.496,-139.622 358.412,-145.986"/>
</g>
<!-- AS1299 -->
<g id="node14" class="node"><title>AS1299</title>
<g id="a_node14"><a xlink:href="/asn/1299" xlink:title="AS1299 ~ Telia Carrier [EU]">
<ellipse fill="#ffffff" stroke="black" cx="394.625" cy="-72" rx="39.7935" ry="18"/>
<text text-anchor="middle" x="394.625" y="-68.3" font-family="Times,serif" font-size="14.00" fill="#2c94b3">AS1299</text>
</a>
</g>
</g>
<!-- AS33891&#45;&gt;AS1299 -->
<g id="edge13" class="edge"><title>AS33891&#45;&gt;AS1299</title>
<path fill="none" stroke="black" stroke-width="2.57143" d="M290.714,-162.956C306.041,-145.903 330.976,-119.35 354.978,-99 357.475,-96.8828 360.136,-94.7681 362.847,-92.7067"/>
<polygon fill="black" stroke="black" stroke-width="2.57143" points="365.013,-95.4588 371.023,-86.7336 360.884,-89.8064 365.013,-95.4588"/>
</g>
<!-- AS6461 -->
<g id="node8" class="node"><title>AS6461</title>
<g id="a_node8"><a xlink:href="/asn/6461" xlink:title="AS6461 ~ Zayo Bandwidth [US]">
<ellipse fill="#ffffff" stroke="black" cx="509.918" cy="-504" rx="39.7935" ry="18"/>
<text text-anchor="middle" x="509.918" y="-500.3" font-family="Times,serif" font-size="14.00" fill="#2c94b3">AS6461</text>
</a>
</g>
</g>
<!-- AS8218&#45;&gt;AS6461 -->
<g id="edge7" class="edge"><title>AS8218&#45;&gt;AS6461</title>
<path fill="none" stroke="black" d="M430.232,-485.248C441.103,-487.838 453.257,-490.735 464.7,-493.462"/>
<polygon fill="black" stroke="black" points="463.983,-496.889 474.522,-495.803 465.606,-490.08 463.983,-496.889"/>
</g>
<!-- AS3491 -->
<g id="node9" class="node"><title>AS3491</title>
<g id="a_node9"><a xlink:href="/asn/3491" xlink:title="AS3491 ~ PCCW Global, Inc. [US]">
<ellipse fill="#ffffff" stroke="black" cx="509.918" cy="-180" rx="39.7935" ry="18"/>
<text text-anchor="middle" x="509.918" y="-176.3" font-family="Times,serif" font-size="14.00" fill="#2c94b3">AS3491</text>
</a>
</g>
</g>
<!-- AS174&#45;&gt;AS3491 -->
<g id="edge8" class="edge"><title>AS174&#45;&gt;AS3491</title>
<path fill="none" stroke="black" d="M429.924,-180C439.301,-180 449.651,-180 459.686,-180"/>
<polygon fill="black" stroke="black" points="459.974,-183.5 469.974,-180 459.974,-176.5 459.974,-183.5"/>
</g>
<!-- AS6762 -->
<g id="node10" class="node"><title>AS6762</title>
<g id="a_node10"><a xlink:href="/asn/6762" xlink:title="AS6762 ~ TELECOM ITALIA SPARKLE S.p.A. [IT]">
<ellipse fill="#ffffff" stroke="black" cx="509.918" cy="-126" rx="39.7935" ry="18"/>
<text text-anchor="middle" x="509.918" y="-122.3" font-family="Times,serif" font-size="14.00" fill="#2c94b3">AS6762</text>
</a>
</g>
</g>
<!-- AS174&#45;&gt;AS6762 -->
<g id="edge9" class="edge"><title>AS174&#45;&gt;AS6762</title>
<path fill="none" stroke="black" d="M421.05,-167.881C436.352,-160.587 456.076,-151.186 472.958,-143.14"/>
<polygon fill="black" stroke="black" points="474.477,-146.293 481.998,-138.831 471.465,-139.974 474.477,-146.293"/>
</g>
<!-- AS1239 -->
<g id="node11" class="node"><title>AS1239</title>
<g id="a_node11"><a xlink:href="/asn/1239" xlink:title="AS1239 ~ Sprint [US]">
<ellipse fill="#ffffff" stroke="black" cx="509.918" cy="-72" rx="39.7935" ry="18"/>
<text text-anchor="middle" x="509.918" y="-68.3" font-family="Times,serif" font-size="14.00" fill="#2c94b3">AS1239</text>
</a>
</g>
</g>
<!-- AS174&#45;&gt;AS1239 -->
<g id="edge10" class="edge"><title>AS174&#45;&gt;AS1239</title>
<path fill="none" stroke="black" d="M418.007,-166.468C423.649,-162.51 429.463,-157.914 434.271,-153 454.443,-132.383 450.099,-119.617 470.271,-99 472.364,-96.861 474.647,-94.7823 477.024,-92.7902"/>
<polygon fill="black" stroke="black" points="479.542,-95.268 485.323,-86.3895 475.267,-89.725 479.542,-95.268"/>
</g>
<!-- AS2497 -->
<g id="node15" class="node"><title>AS2497</title>
<g id="a_node15"><a xlink:href="/asn/2497" xlink:title="AS2497 ~ Internet Initiative Japan Inc. [JP]">
<ellipse fill="#ffffff" stroke="black" cx="509.918" cy="-450" rx="39.7935" ry="18"/>
<text text-anchor="middle" x="509.918" y="-446.3" font-family="Times,serif" font-size="14.00" fill="#2c94b3">AS2497</text>
</a>
</g>
</g>
<!-- AS2914&#45;&gt;AS2497 -->
<g id="edge20" class="edge"><title>AS2914&#45;&gt;AS2497</title>
<path fill="none" stroke="black" d="M422.761,-408.934C437.755,-416.081 456.576,-425.052 472.799,-432.785"/>
<polygon fill="black" stroke="black" points="471.469,-436.028 482.002,-437.171 474.481,-429.709 471.469,-436.028"/>
</g>
<!-- AS3356&#45;&gt;AS6762 -->
<g id="edge15" class="edge"><title>AS3356&#45;&gt;AS6762</title>
<path fill="none" stroke="black" d="M404.062,-270.489C419.681,-238.491 453.067,-172.107 470.271,-153 472.273,-150.776 474.492,-148.637 476.825,-146.603"/>
<polygon fill="black" stroke="black" points="479.355,-149.065 485.044,-140.127 475.023,-143.567 479.355,-149.065"/>
</g>
<!-- AS3356&#45;&gt;AS2497 -->
<g id="edge14" class="edge"><title>AS3356&#45;&gt;AS2497</title>
<path fill="none" stroke="black" d="M404.062,-305.511C419.681,-337.509 453.067,-403.893 470.271,-423 472.273,-425.224 474.492,-427.363 476.825,-429.397"/>
<polygon fill="black" stroke="black" points="475.023,-432.433 485.044,-435.873 479.355,-426.935 475.023,-432.433"/>
</g>
<!-- AS6453 -->
<g id="node16" class="node"><title>AS6453</title>
<g id="a_node16"><a xlink:href="/asn/6453" xlink:title="AS6453 ~ TATA COMMUNICATIONS (AMERICA) INC [US]">
<ellipse fill="#ffffff" stroke="black" cx="509.918" cy="-342" rx="39.7935" ry="18"/>
<text text-anchor="middle" x="509.918" y="-338.3" font-family="Times,serif" font-size="14.00" fill="#2c94b3">AS6453</text>
</a>
</g>
</g>
<!-- AS3356&#45;&gt;AS6453 -->
<g id="edge16" class="edge"><title>AS3356&#45;&gt;AS6453</title>
<path fill="none" stroke="black" d="M422.761,-300.934C437.755,-308.081 456.576,-317.052 472.799,-324.785"/>
<polygon fill="black" stroke="black" points="471.469,-328.028 482.002,-329.171 474.481,-321.709 471.469,-328.028"/>
</g>
<!-- AS209 -->
<g id="node17" class="node"><title>AS209</title>
<g id="a_node17"><a xlink:href="/asn/209" xlink:title="AS209 ~ CenturyLink Communications, LLC [US]">
<ellipse fill="#ffffff" stroke="black" cx="509.918" cy="-288" rx="35.194" ry="18"/>
<text text-anchor="middle" x="509.918" y="-284.3" font-family="Times,serif" font-size="14.00" fill="#2c94b3">AS209</text>
</a>
</g>
</g>
<!-- AS3356&#45;&gt;AS209 -->
<g id="edge17" class="edge"><title>AS3356&#45;&gt;AS209</title>
<path fill="none" stroke="black" d="M434.297,-288C444.002,-288 454.493,-288 464.456,-288"/>
<polygon fill="black" stroke="black" points="464.592,-291.5 474.592,-288 464.592,-284.5 464.592,-291.5"/>
</g>
<!-- AS701 -->
<g id="node18" class="node"><title>AS701</title>
<g id="a_node18"><a xlink:href="/asn/701" xlink:title="AS701 ~ UUNET [US]">
<ellipse fill="#ffffff" stroke="black" cx="509.918" cy="-234" rx="35.194" ry="18"/>
<text text-anchor="middle" x="509.918" y="-230.3" font-family="Times,serif" font-size="14.00" fill="#2c94b3">AS701</text>
</a>
</g>
</g>
<!-- AS3356&#45;&gt;AS701 -->
<g id="edge18" class="edge"><title>AS3356&#45;&gt;AS701</title>
<path fill="none" stroke="black" d="M422.761,-275.066C438.193,-267.71 457.678,-258.423 474.213,-250.541"/>
<polygon fill="black" stroke="black" points="476.034,-253.551 483.555,-246.089 473.022,-247.232 476.034,-253.551"/>
</g>
<!-- AS3549 -->
<g id="node19" class="node"><title>AS3549</title>
<g id="a_node19"><a xlink:href="/asn/3549" xlink:title="AS3549 ~ Level 3 Parent, LLC [US]">
<ellipse fill="#ffffff" stroke="black" cx="509.918" cy="-396" rx="39.7935" ry="18"/>
<text text-anchor="middle" x="509.918" y="-392.3" font-family="Times,serif" font-size="14.00" fill="#2c94b3">AS3549</text>
</a>
</g>
</g>
<!-- AS3356&#45;&gt;AS3549 -->
<g id="edge19" class="edge"><title>AS3356&#45;&gt;AS3549</title>
<path fill="none" stroke="black" d="M409.255,-304.817C423.537,-321.929 447.084,-348.745 470.271,-369 472.737,-371.154 475.375,-373.294 478.073,-375.372"/>
<polygon fill="black" stroke="black" points="476.098,-378.264 486.227,-381.37 480.246,-372.625 476.098,-378.264"/>
</g>
<!-- AS1299&#45;&gt;AS6762 -->
<g id="edge21" class="edge"><title>AS1299&#45;&gt;AS6762</title>
<path fill="none" stroke="black" d="M422.761,-84.9343C437.755,-92.0811 456.576,-101.052 472.799,-108.785"/>
<polygon fill="black" stroke="black" points="471.469,-112.028 482.002,-113.171 474.481,-105.709 471.469,-112.028"/>
</g>
<!-- AS1299&#45;&gt;AS1239 -->
<g id="edge22" class="edge"><title>AS1299&#45;&gt;AS1239</title>
<path fill="none" stroke="black" d="M434.297,-72C442.5,-72 451.264,-72 459.796,-72"/>
<polygon fill="black" stroke="black" points="460.035,-75.5001 470.035,-72 460.035,-68.5001 460.035,-75.5001"/>
</g>
<!-- AS7018 -->
<g id="node20" class="node"><title>AS7018</title>
<g id="a_node20"><a xlink:href="/asn/7018" xlink:title="AS7018 ~ AT&amp;T Services, Inc. [US]">
<ellipse fill="#ffffff" stroke="black" cx="509.918" cy="-18" rx="39.7935" ry="18"/>
<text text-anchor="middle" x="509.918" y="-14.3" font-family="Times,serif" font-size="14.00" fill="#2c94b3">AS7018</text>
</a>
</g>
</g>
<!-- AS1299&#45;&gt;AS7018 -->
<g id="edge23" class="edge"><title>AS1299&#45;&gt;AS7018</title>
<path fill="none" stroke="black" d="M422.761,-59.0657C437.755,-51.9189 456.576,-42.9481 472.799,-35.2154"/>
<polygon fill="black" stroke="black" points="474.481,-38.291 482.002,-30.8288 471.469,-31.972 474.481,-38.291"/>
</g>
</g>
</svg>
