<?xml version="1.0" encoding="UTF-8" standalone="no"?>
<!DOCTYPE svg PUBLIC "-//W3C//DTD SVG 1.1//EN"
 "http://www.w3.org/Graphics/SVG/1.1/DTD/svg11.dtd">
<!-- Generated by graphviz version 2.38.0 (20140413.2041)
 -->
<!-- Title: AS44594 IPv4 Upstream Graph Pages: 1 -->
<svg width="576pt" height="530pt"
 viewBox="0.00 0.00 575.76 530.00" xmlns="http://www.w3.org/2000/svg" xmlns:xlink="http://www.w3.org/1999/xlink">
<g id="graph0" class="graph" transform="scale(1 1) rotate(0) translate(4 526)">
<title>AS44594 IPv4 Upstream Graph</title>
<polygon fill="white" stroke="none" points="-4,4 -4,-526 571.762,-526 571.762,4 -4,4"/>
<!-- AS44594 -->
<g id="node1" class="node"><title>AS44594</title>
<g id="a_node1"><a xlink:href="/asn/44594" xlink:title="AS44594 ~ Austrian Airlines AG [AT]">
<ellipse fill="#ffffff" stroke="black" cx="44.1961" cy="-234" rx="44.393" ry="18"/>
<text text-anchor="middle" x="44.1961" y="-230.3" font-family="Times,serif" font-size="14.00" fill="#880000">AS44594</text>
</a>
</g>
</g>
<!-- AS32787 -->
<g id="node2" class="node"><title>AS32787</title>
<g id="a_node2"><a xlink:href="/asn/32787" xlink:title="AS32787 ~ Akamai Technologies, Inc. [US]">
<ellipse fill="#ffffff" stroke="black" cx="168.588" cy="-234" rx="44.393" ry="18"/>
<text text-anchor="middle" x="168.588" y="-230.3" font-family="Times,serif" font-size="14.00" fill="#2c94b3">AS32787</text>
</a>
</g>
</g>
<!-- AS44594&#45;&gt;AS32787 -->
<g id="edge1" class="edge"><title>AS44594&#45;&gt;AS32787</title>
<path fill="none" stroke="black" stroke-width="4.5" d="M88.6916,-234C96.898,-234 105.569,-234 114.041,-234"/>
<polygon fill="black" stroke="black" stroke-width="4.5" points="114.233,-237.938 124.233,-234 114.233,-230.063 114.233,-237.938"/>
</g>
<!-- AS2914 -->
<g id="node3" class="node"><title>AS2914</title>
<g id="a_node3"><a xlink:href="/asn/2914" xlink:title="AS2914 ~ NTT America, Inc. [US]">
<ellipse fill="#ffffff" stroke="black" cx="288.431" cy="-342" rx="39.7935" ry="18"/>
<text text-anchor="middle" x="288.431" y="-338.3" font-family="Times,serif" font-size="14.00" fill="#2c94b3">AS2914</text>
</a>
</g>
</g>
<!-- AS32787&#45;&gt;AS2914 -->
<g id="edge2" class="edge"><title>AS32787&#45;&gt;AS2914</title>
<path fill="none" stroke="black" stroke-width="4.5" d="M184.521,-251.044C199.847,-268.097 224.782,-294.65 248.784,-315 251.281,-317.117 253.942,-319.232 256.653,-321.293"/>
<polygon fill="black" stroke="black" stroke-width="4.5" points="254.432,-324.547 264.83,-327.266 259.077,-318.188 254.432,-324.547"/>
</g>
<!-- AS6461 -->
<g id="node4" class="node"><title>AS6461</title>
<g id="a_node4"><a xlink:href="/asn/6461" xlink:title="AS6461 ~ Zayo Bandwidth [US]">
<ellipse fill="#ffffff" stroke="black" cx="288.431" cy="-234" rx="39.7935" ry="18"/>
<text text-anchor="middle" x="288.431" y="-230.3" font-family="Times,serif" font-size="14.00" fill="#2c94b3">AS6461</text>
</a>
</g>
</g>
<!-- AS32787&#45;&gt;AS6461 -->
<g id="edge3" class="edge"><title>AS32787&#45;&gt;AS6461</title>
<path fill="none" stroke="black" stroke-width="2.25" d="M212.799,-234C221.112,-234 229.875,-234 238.357,-234"/>
<polygon fill="black" stroke="black" stroke-width="2.25" points="238.516,-237.5 248.516,-234 238.516,-230.5 238.516,-237.5"/>
</g>
<!-- AS1299 -->
<g id="node5" class="node"><title>AS1299</title>
<g id="a_node5"><a xlink:href="/asn/1299" xlink:title="AS1299 ~ Telia Carrier [EU]">
<ellipse fill="#ffffff" stroke="black" cx="288.431" cy="-396" rx="39.7935" ry="18"/>
<text text-anchor="middle" x="288.431" y="-392.3" font-family="Times,serif" font-size="14.00" fill="#2c94b3">AS1299</text>
</a>
</g>
</g>
<!-- AS32787&#45;&gt;AS1299 -->
<g id="edge4" class="edge"><title>AS32787&#45;&gt;AS1299</title>
<path fill="none" stroke="black" stroke-width="3.15" d="M177.004,-251.761C189.072,-279.183 215.044,-332.473 248.784,-369 250.815,-371.198 253.054,-373.319 255.4,-375.34"/>
<polygon fill="black" stroke="black" stroke-width="3.15" points="253.612,-378.386 263.644,-381.794 257.927,-372.874 253.612,-378.386"/>
</g>
<!-- AS6453 -->
<g id="node6" class="node"><title>AS6453</title>
<g id="a_node6"><a xlink:href="/asn/6453" xlink:title="AS6453 ~ TATA COMMUNICATIONS (AMERICA) INC [US]">
<ellipse fill="#ffffff" stroke="black" cx="288.431" cy="-180" rx="39.7935" ry="18"/>
<text text-anchor="middle" x="288.431" y="-176.3" font-family="Times,serif" font-size="14.00" fill="#2c94b3">AS6453</text>
</a>
</g>
</g>
<!-- AS32787&#45;&gt;AS6453 -->
<g id="edge5" class="edge"><title>AS32787&#45;&gt;AS6453</title>
<path fill="none" stroke="black" stroke-width="3.15" d="M198.718,-220.652C214.329,-213.498 233.727,-204.609 250.399,-196.97"/>
<polygon fill="black" stroke="black" stroke-width="3.15" points="252.218,-199.986 259.851,-192.638 249.302,-193.622 252.218,-199.986"/>
</g>
<!-- AS2828 -->
<g id="node7" class="node"><title>AS2828</title>
<g id="a_node7"><a xlink:href="/asn/2828" xlink:title="AS2828 ~ XO&#45;AS15 [US]">
<ellipse fill="#ffffff" stroke="black" cx="288.431" cy="-288" rx="39.7935" ry="18"/>
<text text-anchor="middle" x="288.431" y="-284.3" font-family="Times,serif" font-size="14.00" fill="#2c94b3">AS2828</text>
</a>
</g>
</g>
<!-- AS32787&#45;&gt;AS2828 -->
<g id="edge6" class="edge"><title>AS32787&#45;&gt;AS2828</title>
<path fill="none" stroke="black" stroke-width="0.9" d="M198.718,-247.348C214.329,-254.502 233.727,-263.391 250.399,-271.03"/>
<polygon fill="black" stroke="black" stroke-width="0.9" points="249.302,-274.378 259.851,-275.362 252.218,-268.014 249.302,-274.378"/>
</g>
<!-- AS4637 -->
<g id="node8" class="node"><title>AS4637</title>
<g id="a_node8"><a xlink:href="/asn/4637" xlink:title="AS4637 ~ Telstra Global [HK]">
<ellipse fill="#ffffff" stroke="black" cx="288.431" cy="-113" rx="39.7935" ry="18"/>
<text text-anchor="middle" x="288.431" y="-109.3" font-family="Times,serif" font-size="14.00" fill="#2c94b3">AS4637</text>
</a>
</g>
</g>
<!-- AS32787&#45;&gt;AS4637 -->
<g id="edge7" class="edge"><title>AS32787&#45;&gt;AS4637</title>
<path fill="none" stroke="black" stroke-width="0.45" d="M185.974,-217.175C206.403,-196.198 241.441,-160.222 264.521,-136.523"/>
<polygon fill="black" stroke="black" stroke-width="0.45" points="267.091,-138.901 271.561,-129.295 262.077,-134.017 267.091,-138.901"/>
</g>
<!-- AS1273 -->
<g id="node9" class="node"><title>AS1273</title>
<g id="a_node9"><a xlink:href="/asn/1273" xlink:title="AS1273 ~ Vodafone Group PLC [EU]">
<ellipse fill="#ffffff" stroke="black" cx="288.431" cy="-32" rx="39.7935" ry="18"/>
<text text-anchor="middle" x="288.431" y="-28.3" font-family="Times,serif" font-size="14.00" fill="#2c94b3">AS1273</text>
</a>
</g>
</g>
<!-- AS32787&#45;&gt;AS1273 -->
<g id="edge8" class="edge"><title>AS32787&#45;&gt;AS1273</title>
<path fill="none" stroke="black" stroke-width="0.9" d="M178.139,-216.27C191.946,-188.072 220.472,-131.537 248.784,-86 254.781,-76.3548 261.886,-66.1362 268.357,-57.2137"/>
<polygon fill="black" stroke="black" stroke-width="0.9" points="271.206,-59.2472 274.311,-49.1175 265.567,-55.1 271.206,-59.2472"/>
</g>
<!-- AS6762 -->
<g id="node10" class="node"><title>AS6762</title>
<g id="a_node10"><a xlink:href="/asn/6762" xlink:title="AS6762 ~ TELECOM ITALIA SPARKLE S.p.A. [IT]">
<ellipse fill="#ffffff" stroke="black" cx="408.273" cy="-180" rx="39.7935" ry="18"/>
<text text-anchor="middle" x="408.273" y="-176.3" font-family="Times,serif" font-size="14.00" fill="#2c94b3">AS6762</text>
</a>
</g>
</g>
<!-- AS2914&#45;&gt;AS6762 -->
<g id="edge9" class="edge"><title>AS2914&#45;&gt;AS6762</title>
<path fill="none" stroke="black" d="M314.362,-328.118C319.438,-324.389 324.356,-319.984 328.077,-315 358.349,-274.458 332.779,-246.754 364.077,-207 366.402,-204.047 369.146,-201.33 372.105,-198.853"/>
<polygon fill="black" stroke="black" points="374.298,-201.585 380.302,-192.855 370.165,-195.936 374.298,-201.585"/>
</g>
<!-- AS174 -->
<g id="node11" class="node"><title>AS174</title>
<g id="a_node11"><a xlink:href="/asn/174" xlink:title="AS174 ~ Cogent Communications [US]">
<ellipse fill="#ffffff" stroke="black" cx="408.273" cy="-342" rx="35.194" ry="18"/>
<text text-anchor="middle" x="408.273" y="-338.3" font-family="Times,serif" font-size="14.00" fill="#2c94b3">AS174</text>
</a>
</g>
</g>
<!-- AS2914&#45;&gt;AS174 -->
<g id="edge10" class="edge"><title>AS2914&#45;&gt;AS174</title>
<path fill="none" stroke="black" d="M328.343,-342C339.43,-342 351.59,-342 362.972,-342"/>
<polygon fill="black" stroke="black" points="363.154,-345.5 373.154,-342 363.154,-338.5 363.154,-345.5"/>
</g>
<!-- AS7018 -->
<g id="node12" class="node"><title>AS7018</title>
<g id="a_node12"><a xlink:href="/asn/7018" xlink:title="AS7018 ~ AT&amp;T Services, Inc. [US]">
<ellipse fill="#ffffff" stroke="black" cx="408.273" cy="-504" rx="39.7935" ry="18"/>
<text text-anchor="middle" x="408.273" y="-500.3" font-family="Times,serif" font-size="14.00" fill="#2c94b3">AS7018</text>
</a>
</g>
</g>
<!-- AS2914&#45;&gt;AS7018 -->
<g id="edge11" class="edge"><title>AS2914&#45;&gt;AS7018</title>
<path fill="none" stroke="black" d="M314.362,-355.882C319.438,-359.611 324.356,-364.016 328.077,-369 358.349,-409.542 332.779,-437.246 364.077,-477 366.402,-479.953 369.146,-482.67 372.105,-485.147"/>
<polygon fill="black" stroke="black" points="370.165,-488.064 380.302,-491.145 374.298,-482.415 370.165,-488.064"/>
</g>
<!-- AS3356 -->
<g id="node13" class="node"><title>AS3356</title>
<g id="a_node13"><a xlink:href="/asn/3356" xlink:title="AS3356 ~ Level 3 Parent, LLC [US]">
<ellipse fill="#ffffff" stroke="black" cx="408.273" cy="-288" rx="39.7935" ry="18"/>
<text text-anchor="middle" x="408.273" y="-284.3" font-family="Times,serif" font-size="14.00" fill="#2c94b3">AS3356</text>
</a>
</g>
</g>
<!-- AS2914&#45;&gt;AS3356 -->
<g id="edge12" class="edge"><title>AS2914&#45;&gt;AS3356</title>
<path fill="none" stroke="black" stroke-width="2" d="M317.06,-329.339C333.017,-322.027 353.287,-312.739 370.57,-304.819"/>
<polygon fill="black" stroke="black" stroke-width="2" points="372.185,-307.929 379.818,-300.581 369.269,-301.565 372.185,-307.929"/>
</g>
<!-- AS1239 -->
<g id="node14" class="node"><title>AS1239</title>
<g id="a_node14"><a xlink:href="/asn/1239" xlink:title="AS1239 ~ Sprint [US]">
<ellipse fill="#ffffff" stroke="black" cx="408.273" cy="-450" rx="39.7935" ry="18"/>
<text text-anchor="middle" x="408.273" y="-446.3" font-family="Times,serif" font-size="14.00" fill="#2c94b3">AS1239</text>
</a>
</g>
</g>
<!-- AS2914&#45;&gt;AS1239 -->
<g id="edge13" class="edge"><title>AS2914&#45;&gt;AS1239</title>
<path fill="none" stroke="black" d="M313.025,-356.389C318.281,-360.148 323.613,-364.437 328.077,-369 348.25,-389.617 343.384,-402.906 364.077,-423 366.922,-425.763 370.096,-428.386 373.396,-430.834"/>
<polygon fill="black" stroke="black" points="371.513,-433.786 381.744,-436.538 375.462,-428.006 371.513,-433.786"/>
</g>
<!-- AS2497 -->
<g id="node15" class="node"><title>AS2497</title>
<g id="a_node15"><a xlink:href="/asn/2497" xlink:title="AS2497 ~ Internet Initiative Japan Inc. [JP]">
<ellipse fill="#ffffff" stroke="black" cx="408.273" cy="-234" rx="39.7935" ry="18"/>
<text text-anchor="middle" x="408.273" y="-230.3" font-family="Times,serif" font-size="14.00" fill="#2c94b3">AS2497</text>
</a>
</g>
</g>
<!-- AS2914&#45;&gt;AS2497 -->
<g id="edge14" class="edge"><title>AS2914&#45;&gt;AS2497</title>
<path fill="none" stroke="black" d="M313.025,-327.611C318.281,-323.852 323.613,-319.563 328.077,-315 348.25,-294.383 343.384,-281.094 364.077,-261 366.922,-258.237 370.096,-255.614 373.396,-253.166"/>
<polygon fill="black" stroke="black" points="375.462,-255.994 381.744,-247.462 371.513,-250.214 375.462,-255.994"/>
</g>
<!-- AS3257 -->
<g id="node16" class="node"><title>AS3257</title>
<g id="a_node16"><a xlink:href="/asn/3257" xlink:title="AS3257 ~ GTT [DE]">
<ellipse fill="#ffffff" stroke="black" cx="408.273" cy="-396" rx="39.7935" ry="18"/>
<text text-anchor="middle" x="408.273" y="-392.3" font-family="Times,serif" font-size="14.00" fill="#2c94b3">AS3257</text>
</a>
</g>
</g>
<!-- AS2914&#45;&gt;AS3257 -->
<g id="edge15" class="edge"><title>AS2914&#45;&gt;AS3257</title>
<path fill="none" stroke="black" d="M317.06,-354.661C333.017,-361.973 353.287,-371.261 370.57,-379.181"/>
<polygon fill="black" stroke="black" points="369.269,-382.435 379.818,-383.419 372.185,-376.071 369.269,-382.435"/>
</g>
<!-- AS12956 -->
<g id="node17" class="node"><title>AS12956</title>
<g id="a_node17"><a xlink:href="/asn/12956" xlink:title="AS12956 ~ TELXIUS [ES]">
<ellipse fill="#ffffff" stroke="black" cx="408.273" cy="-126" rx="44.393" ry="18"/>
<text text-anchor="middle" x="408.273" y="-122.3" font-family="Times,serif" font-size="14.00" fill="#2c94b3">AS12956</text>
</a>
</g>
</g>
<!-- AS2914&#45;&gt;AS12956 -->
<g id="edge16" class="edge"><title>AS2914&#45;&gt;AS12956</title>
<path fill="none" stroke="black" d="M314.75,-328.393C319.806,-324.649 324.617,-320.169 328.077,-315 369.102,-253.706 321.498,-213.225 364.077,-153 365.966,-150.328 368.212,-147.865 370.671,-145.605"/>
<polygon fill="black" stroke="black" points="372.834,-148.356 378.547,-139.433 368.517,-142.846 372.834,-148.356"/>
</g>
<!-- AS6461&#45;&gt;AS6762 -->
<g id="edge17" class="edge"><title>AS6461&#45;&gt;AS6762</title>
<path fill="none" stroke="black" d="M317.06,-221.339C333.017,-214.027 353.287,-204.739 370.57,-196.819"/>
<polygon fill="black" stroke="black" points="372.185,-199.929 379.818,-192.581 369.269,-193.565 372.185,-199.929"/>
</g>
<!-- AS6461&#45;&gt;AS3356 -->
<g id="edge18" class="edge"><title>AS6461&#45;&gt;AS3356</title>
<path fill="none" stroke="black" d="M317.06,-246.661C333.017,-253.973 353.287,-263.261 370.57,-271.181"/>
<polygon fill="black" stroke="black" points="369.269,-274.435 379.818,-275.419 372.185,-268.071 369.269,-274.435"/>
</g>
<!-- AS6461&#45;&gt;AS2497 -->
<g id="edge19" class="edge"><title>AS6461&#45;&gt;AS2497</title>
<path fill="none" stroke="black" d="M328.343,-234C337.897,-234 348.246,-234 358.209,-234"/>
<polygon fill="black" stroke="black" points="358.402,-237.5 368.402,-234 358.402,-230.5 358.402,-237.5"/>
</g>
<!-- AS6461&#45;&gt;AS3257 -->
<g id="edge20" class="edge"><title>AS6461&#45;&gt;AS3257</title>
<path fill="none" stroke="black" d="M314.362,-247.882C319.438,-251.611 324.356,-256.016 328.077,-261 358.349,-301.542 332.779,-329.246 364.077,-369 366.402,-371.953 369.146,-374.67 372.105,-377.147"/>
<polygon fill="black" stroke="black" points="370.165,-380.064 380.302,-383.145 374.298,-374.415 370.165,-380.064"/>
</g>
<!-- AS1299&#45;&gt;AS174 -->
<g id="edge25" class="edge"><title>AS1299&#45;&gt;AS174</title>
<path fill="none" stroke="black" d="M317.06,-383.339C333.476,-375.817 354.457,-366.202 372.054,-358.139"/>
<polygon fill="black" stroke="black" points="373.799,-361.189 381.432,-353.842 370.883,-354.826 373.799,-361.189"/>
</g>
<!-- AS1299&#45;&gt;AS7018 -->
<g id="edge24" class="edge"><title>AS1299&#45;&gt;AS7018</title>
<path fill="none" stroke="black" d="M302.85,-413.065C316.964,-430.375 340.379,-457.345 364.077,-477 367.294,-479.668 370.794,-482.27 374.365,-484.741"/>
<polygon fill="black" stroke="black" points="372.442,-487.666 382.721,-490.236 376.288,-481.817 372.442,-487.666"/>
</g>
<!-- AS1299&#45;&gt;AS3356 -->
<g id="edge21" class="edge"><title>AS1299&#45;&gt;AS3356</title>
<path fill="none" stroke="black" stroke-width="2" d="M313.025,-381.611C318.281,-377.852 323.613,-373.563 328.077,-369 348.25,-348.383 343.384,-335.094 364.077,-315 366.922,-312.237 370.096,-309.614 373.396,-307.166"/>
<polygon fill="black" stroke="black" stroke-width="2" points="375.462,-309.994 381.744,-301.462 371.513,-304.214 375.462,-309.994"/>
</g>
<!-- AS1299&#45;&gt;AS1239 -->
<g id="edge23" class="edge"><title>AS1299&#45;&gt;AS1239</title>
<path fill="none" stroke="black" d="M317.06,-408.661C333.017,-415.973 353.287,-425.261 370.57,-433.181"/>
<polygon fill="black" stroke="black" points="369.269,-436.435 379.818,-437.419 372.185,-430.071 369.269,-436.435"/>
</g>
<!-- AS1299&#45;&gt;AS3257 -->
<g id="edge22" class="edge"><title>AS1299&#45;&gt;AS3257</title>
<path fill="none" stroke="black" d="M328.343,-396C337.897,-396 348.246,-396 358.209,-396"/>
<polygon fill="black" stroke="black" points="358.402,-399.5 368.402,-396 358.402,-392.5 358.402,-399.5"/>
</g>
<!-- AS6453&#45;&gt;AS6762 -->
<g id="edge28" class="edge"><title>AS6453&#45;&gt;AS6762</title>
<path fill="none" stroke="black" d="M328.343,-180C337.897,-180 348.246,-180 358.209,-180"/>
<polygon fill="black" stroke="black" points="358.402,-183.5 368.402,-180 358.402,-176.5 358.402,-183.5"/>
</g>
<!-- AS6453&#45;&gt;AS174 -->
<g id="edge30" class="edge"><title>AS6453&#45;&gt;AS174</title>
<path fill="none" stroke="black" d="M314.362,-193.882C319.438,-197.611 324.356,-202.016 328.077,-207 358.349,-247.542 332.779,-275.246 364.077,-315 366.724,-318.361 369.912,-321.417 373.344,-324.161"/>
<polygon fill="black" stroke="black" points="371.457,-327.113 381.651,-330 375.482,-321.386 371.457,-327.113"/>
</g>
<!-- AS6453&#45;&gt;AS3356 -->
<g id="edge27" class="edge"><title>AS6453&#45;&gt;AS3356</title>
<path fill="none" stroke="black" d="M313.025,-194.389C318.281,-198.148 323.613,-202.437 328.077,-207 348.25,-227.617 343.384,-240.906 364.077,-261 366.922,-263.763 370.096,-266.386 373.396,-268.834"/>
<polygon fill="black" stroke="black" points="371.513,-271.786 381.744,-274.538 375.462,-266.006 371.513,-271.786"/>
</g>
<!-- AS6453&#45;&gt;AS2497 -->
<g id="edge29" class="edge"><title>AS6453&#45;&gt;AS2497</title>
<path fill="none" stroke="black" d="M317.06,-192.661C333.017,-199.973 353.287,-209.261 370.57,-217.181"/>
<polygon fill="black" stroke="black" points="369.269,-220.435 379.818,-221.419 372.185,-214.071 369.269,-220.435"/>
</g>
<!-- AS6453&#45;&gt;AS12956 -->
<g id="edge31" class="edge"><title>AS6453&#45;&gt;AS12956</title>
<path fill="none" stroke="black" d="M317.06,-167.339C332.557,-160.238 352.124,-151.272 369.071,-143.506"/>
<polygon fill="black" stroke="black" points="370.54,-146.683 378.173,-139.335 367.624,-140.319 370.54,-146.683"/>
</g>
<!-- AS3491 -->
<g id="node18" class="node"><title>AS3491</title>
<g id="a_node18"><a xlink:href="/asn/3491" xlink:title="AS3491 ~ PCCW Global, Inc. [US]">
<ellipse fill="#ffffff" stroke="black" cx="408.273" cy="-72" rx="39.7935" ry="18"/>
<text text-anchor="middle" x="408.273" y="-68.3" font-family="Times,serif" font-size="14.00" fill="#2c94b3">AS3491</text>
</a>
</g>
</g>
<!-- AS6453&#45;&gt;AS3491 -->
<g id="edge26" class="edge"><title>AS6453&#45;&gt;AS3491</title>
<path fill="none" stroke="black" d="M305.781,-163.432C312.734,-156.296 320.881,-147.812 328.077,-140 344.507,-122.164 345.6,-114.704 364.077,-99 367.099,-96.4317 370.388,-93.9346 373.757,-91.5627"/>
<polygon fill="black" stroke="black" points="375.802,-94.4061 382.192,-85.9552 371.927,-88.5767 375.802,-94.4061"/>
</g>
<!-- AS2828&#45;&gt;AS3356 -->
<g id="edge34" class="edge"><title>AS2828&#45;&gt;AS3356</title>
<path fill="none" stroke="black" d="M328.343,-288C337.897,-288 348.246,-288 358.209,-288"/>
<polygon fill="black" stroke="black" points="358.402,-291.5 368.402,-288 358.402,-284.5 358.402,-291.5"/>
</g>
<!-- AS4637&#45;&gt;AS3491 -->
<g id="edge35" class="edge"><title>AS4637&#45;&gt;AS3491</title>
<path fill="none" stroke="black" d="M320.393,-102.228C334.489,-97.3232 351.366,-91.4515 366.479,-86.1932"/>
<polygon fill="black" stroke="black" points="367.815,-89.4344 376.109,-82.8427 365.514,-82.8231 367.815,-89.4344"/>
</g>
<!-- AS701 -->
<g id="node21" class="node"><title>AS701</title>
<g id="a_node21"><a xlink:href="/asn/701" xlink:title="AS701 ~ UUNET [US]">
<ellipse fill="#ffffff" stroke="black" cx="408.273" cy="-18" rx="35.194" ry="18"/>
<text text-anchor="middle" x="408.273" y="-14.3" font-family="Times,serif" font-size="14.00" fill="#2c94b3">AS701</text>
</a>
</g>
</g>
<!-- AS1273&#45;&gt;AS701 -->
<g id="edge36" class="edge"><title>AS1273&#45;&gt;AS701</title>
<path fill="none" stroke="black" d="M327.041,-27.5318C338.711,-26.1454 351.67,-24.6059 363.709,-23.1756"/>
<polygon fill="black" stroke="black" points="364.479,-26.6087 373.997,-21.9534 363.653,-19.6576 364.479,-26.6087"/>
</g>
<!-- AS3549 -->
<g id="node19" class="node"><title>AS3549</title>
<g id="a_node19"><a xlink:href="/asn/3549" xlink:title="AS3549 ~ Level 3 Parent, LLC [US]">
<ellipse fill="#ffffff" stroke="black" cx="528.116" cy="-315" rx="39.7935" ry="18"/>
<text text-anchor="middle" x="528.116" y="-311.3" font-family="Times,serif" font-size="14.00" fill="#2c94b3">AS3549</text>
</a>
</g>
</g>
<!-- AS3356&#45;&gt;AS3549 -->
<g id="edge32" class="edge"><title>AS3356&#45;&gt;AS3549</title>
<path fill="none" stroke="black" stroke-width="3" d="M443.993,-295.955C455.993,-298.704 469.613,-301.825 482.306,-304.733"/>
<polygon fill="black" stroke="black" stroke-width="3" points="481.708,-308.187 492.238,-307.009 483.272,-301.364 481.708,-308.187"/>
</g>
<!-- AS209 -->
<g id="node20" class="node"><title>AS209</title>
<g id="a_node20"><a xlink:href="/asn/209" xlink:title="AS209 ~ CenturyLink Communications, LLC [US]">
<ellipse fill="#ffffff" stroke="black" cx="528.116" cy="-261" rx="35.194" ry="18"/>
<text text-anchor="middle" x="528.116" y="-257.3" font-family="Times,serif" font-size="14.00" fill="#2c94b3">AS209</text>
</a>
</g>
</g>
<!-- AS3356&#45;&gt;AS209 -->
<g id="edge33" class="edge"><title>AS3356&#45;&gt;AS209</title>
<path fill="none" stroke="black" d="M443.993,-280.045C457.085,-277.045 472.107,-273.604 485.748,-270.478"/>
<polygon fill="black" stroke="black" points="486.89,-273.807 495.855,-268.162 485.326,-266.984 486.89,-273.807"/>
</g>
</g>
</svg>
