<?xml version="1.0" encoding="UTF-8" standalone="no"?>
<!DOCTYPE svg PUBLIC "-//W3C//DTD SVG 1.1//EN"
 "http://www.w3.org/Graphics/SVG/1.1/DTD/svg11.dtd">
<!-- Generated by graphviz version 2.38.0 (20140413.2041)
 -->
<!-- Title: AS205728 IPv4 Upstream Graph Pages: 1 -->
<svg width="468pt" height="476pt"
 viewBox="0.00 0.00 468.27 476.00" xmlns="http://www.w3.org/2000/svg" xmlns:xlink="http://www.w3.org/1999/xlink">
<g id="graph0" class="graph" transform="scale(1 1) rotate(0) translate(4 472)">
<title>AS205728 IPv4 Upstream Graph</title>
<polygon fill="white" stroke="none" points="-4,4 -4,-472 464.269,-472 464.269,4 -4,4"/>
<!-- AS205728 -->
<g id="node1" class="node"><title>AS205728</title>
<g id="a_node1"><a xlink:href="/asn/205728" xlink:title="AS205728 ~ Cream Finance IT Austria GmbH [AT]">
<ellipse fill="#ffffff" stroke="black" cx="48.0957" cy="-367" rx="48.1917" ry="18"/>
<text text-anchor="middle" x="48.0957" y="-363.3" font-family="Times,serif" font-size="14.00" fill="#880000">AS205728</text>
</a>
</g>
</g>
<!-- AS174 -->
<g id="node2" class="node"><title>AS174</title>
<g id="a_node2"><a xlink:href="/asn/174" xlink:title="AS174 ~ Cogent Communications [US]">
<ellipse fill="#ffffff" stroke="black" cx="176.388" cy="-367" rx="35.194" ry="18"/>
<text text-anchor="middle" x="176.388" y="-363.3" font-family="Times,serif" font-size="14.00" fill="#2c94b3">AS174</text>
</a>
</g>
</g>
<!-- AS205728&#45;&gt;AS174 -->
<g id="edge1" class="edge"><title>AS205728&#45;&gt;AS174</title>
<path fill="none" stroke="black" stroke-width="1.03846" d="M96.4815,-367C107.842,-367 119.93,-367 131.142,-367"/>
<polygon fill="black" stroke="black" stroke-width="1.03846" points="131.146,-370.5 141.146,-367 131.146,-363.5 131.146,-370.5"/>
</g>
<!-- AS6830 -->
<g id="node3" class="node"><title>AS6830</title>
<g id="a_node3"><a xlink:href="/asn/6830" xlink:title="AS6830 ~ LibertyGlobal [AT]">
<ellipse fill="#ffffff" stroke="black" cx="176.388" cy="-440" rx="39.7935" ry="18"/>
<text text-anchor="middle" x="176.388" y="-436.3" font-family="Times,serif" font-size="14.00" fill="#2c94b3">AS6830</text>
</a>
</g>
</g>
<!-- AS205728&#45;&gt;AS6830 -->
<g id="edge2" class="edge"><title>AS205728&#45;&gt;AS6830</title>
<path fill="none" stroke="black" stroke-width="0.346154" d="M74.9575,-381.949C94.4448,-393.213 121.313,-408.743 142.355,-420.907"/>
<polygon fill="black" stroke="black" stroke-width="0.346154" points="140.862,-424.086 151.272,-426.06 144.366,-418.026 140.862,-424.086"/>
</g>
<!-- AS47692 -->
<g id="node4" class="node"><title>AS47692</title>
<g id="a_node4"><a xlink:href="/asn/47692" xlink:title="AS47692 ~ Nessus GmbH [AT]">
<ellipse fill="#ffffff" stroke="black" cx="176.388" cy="-240" rx="44.393" ry="18"/>
<text text-anchor="middle" x="176.388" y="-236.3" font-family="Times,serif" font-size="14.00" fill="#2c94b3">AS47692</text>
</a>
</g>
</g>
<!-- AS205728&#45;&gt;AS47692 -->
<g id="edge3" class="edge"><title>AS205728&#45;&gt;AS47692</title>
<path fill="none" stroke="black" stroke-width="4.5" d="M65.8663,-350.135C87.7568,-328.122 126.219,-289.444 151.245,-264.278"/>
<polygon fill="black" stroke="black" stroke-width="4.5" points="154.288,-266.802 158.548,-256.934 148.704,-261.249 154.288,-266.802"/>
</g>
<!-- AS2914 -->
<g id="node5" class="node"><title>AS2914</title>
<g id="a_node5"><a xlink:href="/asn/2914" xlink:title="AS2914 ~ NTT America, Inc. [US]">
<ellipse fill="#ffffff" stroke="black" cx="420.622" cy="-450" rx="39.7935" ry="18"/>
<text text-anchor="middle" x="420.622" y="-446.3" font-family="Times,serif" font-size="14.00" fill="#2c94b3">AS2914</text>
</a>
</g>
</g>
<!-- AS174&#45;&gt;AS2914 -->
<g id="edge4" class="edge"><title>AS174&#45;&gt;AS2914</title>
<path fill="none" stroke="black" d="M210.039,-361.382C245.427,-356.947 302.518,-354.724 344.976,-377 367.965,-389.061 362.128,-405.147 380.976,-423 383.353,-425.251 385.93,-427.458 388.588,-429.58"/>
<polygon fill="black" stroke="black" points="386.579,-432.448 396.68,-435.647 390.779,-426.848 386.579,-432.448"/>
</g>
<!-- AS1239 -->
<g id="node6" class="node"><title>AS1239</title>
<g id="a_node6"><a xlink:href="/asn/1239" xlink:title="AS1239 ~ Sprint [US]">
<ellipse fill="#ffffff" stroke="black" cx="300.78" cy="-404" rx="39.7935" ry="18"/>
<text text-anchor="middle" x="300.78" y="-400.3" font-family="Times,serif" font-size="14.00" fill="#2c94b3">AS1239</text>
</a>
</g>
</g>
<!-- AS174&#45;&gt;AS1239 -->
<g id="edge5" class="edge"><title>AS174&#45;&gt;AS1239</title>
<path fill="none" stroke="black" d="M207.015,-375.957C222.131,-380.526 240.785,-386.165 257.392,-391.186"/>
<polygon fill="black" stroke="black" points="256.832,-394.673 267.417,-394.217 258.858,-387.973 256.832,-394.673"/>
</g>
<!-- AS6830&#45;&gt;AS2914 -->
<g id="edge6" class="edge"><title>AS6830&#45;&gt;AS2914</title>
<path fill="none" stroke="black" d="M216.038,-441.596C258.047,-443.33 325.263,-446.105 370.868,-447.987"/>
<polygon fill="black" stroke="black" points="370.973,-451.495 381.109,-448.41 371.262,-444.501 370.973,-451.495"/>
</g>
<!-- AS6453 -->
<g id="node7" class="node"><title>AS6453</title>
<g id="a_node7"><a xlink:href="/asn/6453" xlink:title="AS6453 ~ TATA COMMUNICATIONS (AMERICA) INC [US]">
<ellipse fill="#ffffff" stroke="black" cx="300.78" cy="-240" rx="39.7935" ry="18"/>
<text text-anchor="middle" x="300.78" y="-236.3" font-family="Times,serif" font-size="14.00" fill="#2c94b3">AS6453</text>
</a>
</g>
</g>
<!-- AS47692&#45;&gt;AS6453 -->
<g id="edge7" class="edge"><title>AS47692&#45;&gt;AS6453</title>
<path fill="none" stroke="black" stroke-width="4.5" d="M220.883,-240C230.572,-240 240.909,-240 250.802,-240"/>
<polygon fill="black" stroke="black" stroke-width="4.5" points="250.904,-243.938 260.904,-240 250.904,-236.063 250.904,-243.938"/>
</g>
<!-- AS6939 -->
<g id="node8" class="node"><title>AS6939</title>
<g id="a_node8"><a xlink:href="/asn/6939" xlink:title="AS6939 ~ Hurricane Electric LLC [US]">
<ellipse fill="#ffffff" stroke="black" cx="300.78" cy="-306" rx="39.7935" ry="18"/>
<text text-anchor="middle" x="300.78" y="-302.3" font-family="Times,serif" font-size="14.00" fill="#2c94b3">AS6939</text>
</a>
</g>
</g>
<!-- AS47692&#45;&gt;AS6939 -->
<g id="edge8" class="edge"><title>AS47692&#45;&gt;AS6939</title>
<path fill="none" stroke="black" stroke-width="2.7" d="M203.945,-254.321C222.032,-264.074 246.137,-277.073 265.647,-287.594"/>
<polygon fill="black" stroke="black" stroke-width="2.7" points="264.066,-290.718 274.529,-292.384 267.388,-284.556 264.066,-290.718"/>
</g>
<!-- AS3356 -->
<g id="node9" class="node"><title>AS3356</title>
<g id="a_node9"><a xlink:href="/asn/3356" xlink:title="AS3356 ~ Level 3 Parent, LLC [US]">
<ellipse fill="#ffffff" stroke="black" cx="300.78" cy="-180" rx="39.7935" ry="18"/>
<text text-anchor="middle" x="300.78" y="-176.3" font-family="Times,serif" font-size="14.00" fill="#2c94b3">AS3356</text>
</a>
</g>
</g>
<!-- AS47692&#45;&gt;AS3356 -->
<g id="edge9" class="edge"><title>AS47692&#45;&gt;AS3356</title>
<path fill="none" stroke="black" stroke-width="2.7" d="M205.467,-226.235C222.855,-217.711 245.347,-206.684 264.005,-197.538"/>
<polygon fill="black" stroke="black" stroke-width="2.7" points="265.652,-200.628 273.09,-193.084 262.571,-194.343 265.652,-200.628"/>
</g>
<!-- AS33891 -->
<g id="node10" class="node"><title>AS33891</title>
<g id="a_node10"><a xlink:href="/asn/33891" xlink:title="AS33891 ~ CORE&#45;BACKBONE GMBH GLOBAL NETWORK [DE]">
<ellipse fill="#ffffff" stroke="black" cx="300.78" cy="-72" rx="44.393" ry="18"/>
<text text-anchor="middle" x="300.78" y="-68.3" font-family="Times,serif" font-size="14.00" fill="#2c94b3">AS33891</text>
</a>
</g>
</g>
<!-- AS47692&#45;&gt;AS33891 -->
<g id="edge10" class="edge"><title>AS47692&#45;&gt;AS33891</title>
<path fill="none" stroke="black" stroke-width="1.8" d="M190.025,-222.654C211.646,-192.976 255.836,-132.318 281.051,-97.707"/>
<polygon fill="black" stroke="black" stroke-width="1.8" points="283.968,-99.647 287.028,-89.5035 278.311,-95.5251 283.968,-99.647"/>
</g>
<!-- AS6453&#45;&gt;AS2914 -->
<g id="edge14" class="edge"><title>AS6453&#45;&gt;AS2914</title>
<path fill="none" stroke="black" d="M323.213,-255.021C331.11,-261.553 339.463,-269.818 344.976,-279 378.932,-335.559 343.564,-368.664 380.976,-423 382.629,-425.402 384.571,-427.658 386.689,-429.762"/>
<polygon fill="black" stroke="black" points="384.519,-432.511 394.404,-436.325 389.054,-427.179 384.519,-432.511"/>
</g>
<!-- AS7018 -->
<g id="node11" class="node"><title>AS7018</title>
<g id="a_node11"><a xlink:href="/asn/7018" xlink:title="AS7018 ~ AT&amp;T Services, Inc. [US]">
<ellipse fill="#ffffff" stroke="black" cx="420.622" cy="-234" rx="39.7935" ry="18"/>
<text text-anchor="middle" x="420.622" y="-230.3" font-family="Times,serif" font-size="14.00" fill="#2c94b3">AS7018</text>
</a>
</g>
</g>
<!-- AS6453&#45;&gt;AS7018 -->
<g id="edge11" class="edge"><title>AS6453&#45;&gt;AS7018</title>
<path fill="none" stroke="black" d="M340.366,-238.035C350.132,-237.538 360.749,-236.998 370.943,-236.479"/>
<polygon fill="black" stroke="black" points="371.14,-239.973 380.95,-235.969 370.784,-232.982 371.14,-239.973"/>
</g>
<!-- AS2497 -->
<g id="node12" class="node"><title>AS2497</title>
<g id="a_node12"><a xlink:href="/asn/2497" xlink:title="AS2497 ~ Internet Initiative Japan Inc. [JP]">
<ellipse fill="#ffffff" stroke="black" cx="420.622" cy="-288" rx="39.7935" ry="18"/>
<text text-anchor="middle" x="420.622" y="-284.3" font-family="Times,serif" font-size="14.00" fill="#2c94b3">AS2497</text>
</a>
</g>
</g>
<!-- AS6453&#45;&gt;AS2497 -->
<g id="edge12" class="edge"><title>AS6453&#45;&gt;AS2497</title>
<path fill="none" stroke="black" d="M330.909,-251.865C346.065,-258.038 364.789,-265.665 381.123,-272.318"/>
<polygon fill="black" stroke="black" points="379.838,-275.574 390.419,-276.105 382.478,-269.091 379.838,-275.574"/>
</g>
<!-- AS6762 -->
<g id="node13" class="node"><title>AS6762</title>
<g id="a_node13"><a xlink:href="/asn/6762" xlink:title="AS6762 ~ TELECOM ITALIA SPARKLE S.p.A. [IT]">
<ellipse fill="#ffffff" stroke="black" cx="420.622" cy="-180" rx="39.7935" ry="18"/>
<text text-anchor="middle" x="420.622" y="-176.3" font-family="Times,serif" font-size="14.00" fill="#2c94b3">AS6762</text>
</a>
</g>
</g>
<!-- AS6453&#45;&gt;AS6762 -->
<g id="edge13" class="edge"><title>AS6453&#45;&gt;AS6762</title>
<path fill="none" stroke="black" d="M327.933,-226.684C344.563,-218.217 366.299,-207.15 384.433,-197.917"/>
<polygon fill="black" stroke="black" points="386.219,-200.935 393.542,-193.279 383.043,-194.697 386.219,-200.935"/>
</g>
<!-- AS6939&#45;&gt;AS2497 -->
<g id="edge17" class="edge"><title>AS6939&#45;&gt;AS2497</title>
<path fill="none" stroke="black" d="M338.742,-300.354C349.492,-298.712 361.379,-296.896 372.656,-295.174"/>
<polygon fill="black" stroke="black" points="373.434,-298.596 382.791,-293.626 372.377,-291.676 373.434,-298.596"/>
</g>
<!-- AS701 -->
<g id="node14" class="node"><title>AS701</title>
<g id="a_node14"><a xlink:href="/asn/701" xlink:title="AS701 ~ UUNET [US]">
<ellipse fill="#ffffff" stroke="black" cx="420.622" cy="-342" rx="35.194" ry="18"/>
<text text-anchor="middle" x="420.622" y="-338.3" font-family="Times,serif" font-size="14.00" fill="#2c94b3">AS701</text>
</a>
</g>
</g>
<!-- AS6939&#45;&gt;AS701 -->
<g id="edge15" class="edge"><title>AS6939&#45;&gt;AS701</title>
<path fill="none" stroke="black" d="M334.293,-315.932C348.463,-320.261 365.203,-325.375 380.085,-329.922"/>
<polygon fill="black" stroke="black" points="379.451,-333.388 390.038,-332.962 381.497,-326.693 379.451,-333.388"/>
</g>
<!-- AS3491 -->
<g id="node15" class="node"><title>AS3491</title>
<g id="a_node15"><a xlink:href="/asn/3491" xlink:title="AS3491 ~ PCCW Global, Inc. [US]">
<ellipse fill="#ffffff" stroke="black" cx="420.622" cy="-396" rx="39.7935" ry="18"/>
<text text-anchor="middle" x="420.622" y="-392.3" font-family="Times,serif" font-size="14.00" fill="#2c94b3">AS3491</text>
</a>
</g>
</g>
<!-- AS6939&#45;&gt;AS3491 -->
<g id="edge16" class="edge"><title>AS6939&#45;&gt;AS3491</title>
<path fill="none" stroke="black" d="M320.723,-321.614C336.607,-334.574 359.993,-353.348 380.976,-369 383.75,-371.069 386.661,-373.191 389.59,-375.293"/>
<polygon fill="black" stroke="black" points="387.603,-378.174 397.787,-381.098 391.649,-372.462 387.603,-378.174"/>
</g>
<!-- AS3356&#45;&gt;AS6762 -->
<g id="edge18" class="edge"><title>AS3356&#45;&gt;AS6762</title>
<path fill="none" stroke="black" d="M340.692,-180C350.246,-180 360.595,-180 370.558,-180"/>
<polygon fill="black" stroke="black" points="370.751,-183.5 380.75,-180 370.75,-176.5 370.751,-183.5"/>
</g>
<!-- AS3549 -->
<g id="node16" class="node"><title>AS3549</title>
<g id="a_node16"><a xlink:href="/asn/3549" xlink:title="AS3549 ~ Level 3 Parent, LLC [US]">
<ellipse fill="#ffffff" stroke="black" cx="420.622" cy="-126" rx="39.7935" ry="18"/>
<text text-anchor="middle" x="420.622" y="-122.3" font-family="Times,serif" font-size="14.00" fill="#2c94b3">AS3549</text>
</a>
</g>
</g>
<!-- AS3356&#45;&gt;AS3549 -->
<g id="edge19" class="edge"><title>AS3356&#45;&gt;AS3549</title>
<path fill="none" stroke="black" d="M329.409,-167.339C345.366,-160.027 365.636,-150.739 382.919,-142.819"/>
<polygon fill="black" stroke="black" points="384.534,-145.929 392.167,-138.581 381.617,-139.565 384.534,-145.929"/>
</g>
<!-- AS1299 -->
<g id="node17" class="node"><title>AS1299</title>
<g id="a_node17"><a xlink:href="/asn/1299" xlink:title="AS1299 ~ Telia Carrier [EU]">
<ellipse fill="#ffffff" stroke="black" cx="420.622" cy="-18" rx="39.7935" ry="18"/>
<text text-anchor="middle" x="420.622" y="-14.3" font-family="Times,serif" font-size="14.00" fill="#2c94b3">AS1299</text>
</a>
</g>
</g>
<!-- AS33891&#45;&gt;AS1299 -->
<g id="edge20" class="edge"><title>AS33891&#45;&gt;AS1299</title>
<path fill="none" stroke="black" d="M330.909,-58.6517C346.521,-51.498 365.918,-42.6093 382.59,-34.9695"/>
<polygon fill="black" stroke="black" points="384.409,-37.986 392.042,-30.6382 381.493,-31.6223 384.409,-37.986"/>
</g>
<!-- AS3257 -->
<g id="node18" class="node"><title>AS3257</title>
<g id="a_node18"><a xlink:href="/asn/3257" xlink:title="AS3257 ~ GTT [DE]">
<ellipse fill="#ffffff" stroke="black" cx="420.622" cy="-72" rx="39.7935" ry="18"/>
<text text-anchor="middle" x="420.622" y="-68.3" font-family="Times,serif" font-size="14.00" fill="#2c94b3">AS3257</text>
</a>
</g>
</g>
<!-- AS33891&#45;&gt;AS3257 -->
<g id="edge21" class="edge"><title>AS33891&#45;&gt;AS3257</title>
<path fill="none" stroke="black" d="M344.991,-72C353.303,-72 362.066,-72 370.548,-72"/>
<polygon fill="black" stroke="black" points="370.707,-75.5001 380.707,-72 370.707,-68.5001 370.707,-75.5001"/>
</g>
</g>
</svg>
