<?xml version="1.0" encoding="UTF-8" standalone="no"?>
<!DOCTYPE svg PUBLIC "-//W3C//DTD SVG 1.1//EN"
 "http://www.w3.org/Graphics/SVG/1.1/DTD/svg11.dtd">
<!-- Generated by graphviz version 2.38.0 (20140413.2041)
 -->
<!-- Title: AS205728 Combined Upstream Graph Pages: 1 -->
<svg width="468pt" height="746pt"
 viewBox="0.00 0.00 468.27 746.00" xmlns="http://www.w3.org/2000/svg" xmlns:xlink="http://www.w3.org/1999/xlink">
<g id="graph0" class="graph" transform="scale(1 1) rotate(0) translate(4 742)">
<title>AS205728 Combined Upstream Graph</title>
<polygon fill="white" stroke="none" points="-4,4 -4,-742 464.269,-742 464.269,4 -4,4"/>
<!-- AS205728 -->
<g id="node1" class="node"><title>AS205728</title>
<g id="a_node1"><a xlink:href="/asn/205728" xlink:title="AS205728 ~ Cream Finance IT Austria GmbH [AT]">
<ellipse fill="#ffffff" stroke="black" cx="48.0957" cy="-463" rx="48.1917" ry="18"/>
<text text-anchor="middle" x="48.0957" y="-459.3" font-family="Times,serif" font-size="14.00" fill="#880000">AS205728</text>
</a>
</g>
</g>
<!-- AS174 -->
<g id="node2" class="node"><title>AS174</title>
<g id="a_node2"><a xlink:href="/asn/174" xlink:title="AS174 ~ Cogent Communications [US]">
<ellipse fill="#ffffff" stroke="black" cx="176.388" cy="-544" rx="35.194" ry="18"/>
<text text-anchor="middle" x="176.388" y="-540.3" font-family="Times,serif" font-size="14.00" fill="#2c94b3">AS174</text>
</a>
</g>
</g>
<!-- AS205728&#45;&gt;AS174 -->
<g id="edge1" class="edge"><title>AS205728&#45;&gt;AS174</title>
<path fill="none" stroke="black" stroke-width="4.5" d="M73.1475,-478.426C93.5274,-491.497 122.864,-510.313 144.89,-524.44"/>
<polygon fill="black" stroke="black" stroke-width="4.5" points="142.992,-527.9 153.536,-529.985 147.244,-521.272 142.992,-527.9"/>
</g>
<!-- AS6830 -->
<g id="node3" class="node"><title>AS6830</title>
<g id="a_node3"><a xlink:href="/asn/6830" xlink:title="AS6830 ~ LGI&#45;UPC [AT]">
<ellipse fill="#ffffff" stroke="black" cx="176.388" cy="-463" rx="39.7935" ry="18"/>
<text text-anchor="middle" x="176.388" y="-459.3" font-family="Times,serif" font-size="14.00" fill="#2c94b3">AS6830</text>
</a>
</g>
</g>
<!-- AS205728&#45;&gt;AS6830 -->
<g id="edge2" class="edge"><title>AS205728&#45;&gt;AS6830</title>
<path fill="none" stroke="black" stroke-width="4.17857" d="M96.4815,-463C106.248,-463 116.551,-463 126.373,-463"/>
<polygon fill="black" stroke="black" stroke-width="4.17857" points="126.393,-466.656 136.393,-463 126.393,-459.344 126.393,-466.656"/>
</g>
<!-- AS47692 -->
<g id="node4" class="node"><title>AS47692</title>
<g id="a_node4"><a xlink:href="/asn/47692" xlink:title="AS47692 ~ Nessus GmbH [AT]">
<ellipse fill="#ffffff" stroke="black" cx="176.388" cy="-153" rx="44.393" ry="18"/>
<text text-anchor="middle" x="176.388" y="-149.3" font-family="Times,serif" font-size="14.00" fill="#2c94b3">AS47692</text>
</a>
</g>
</g>
<!-- AS205728&#45;&gt;AS47692 -->
<g id="edge3" class="edge"><title>AS205728&#45;&gt;AS47692</title>
<path fill="none" stroke="black" stroke-width="2.57143" d="M56.4316,-444.993C77.5756,-393.092 138.748,-242.936 164.137,-180.616"/>
<polygon fill="black" stroke="black" stroke-width="2.57143" points="167.5,-181.638 168.031,-171.057 161.017,-178.997 167.5,-181.638"/>
</g>
<!-- AS3491 -->
<g id="node5" class="node"><title>AS3491</title>
<g id="a_node5"><a xlink:href="/asn/3491" xlink:title="AS3491 ~ PCCW Global, Inc. [US]">
<ellipse fill="#ffffff" stroke="black" cx="300.78" cy="-558" rx="39.7935" ry="18"/>
<text text-anchor="middle" x="300.78" y="-554.3" font-family="Times,serif" font-size="14.00" fill="#2c94b3">AS3491</text>
</a>
</g>
</g>
<!-- AS174&#45;&gt;AS3491 -->
<g id="edge4" class="edge"><title>AS174&#45;&gt;AS3491</title>
<path fill="none" stroke="black" stroke-width="2" d="M210.832,-547.826C223.466,-549.271 238.101,-550.945 251.808,-552.513"/>
<polygon fill="black" stroke="black" stroke-width="2" points="251.726,-556.026 262.059,-553.685 252.522,-549.071 251.726,-556.026"/>
</g>
<!-- AS701 -->
<g id="node6" class="node"><title>AS701</title>
<g id="a_node6"><a xlink:href="/asn/701" xlink:title="AS701 ~ UUNET [US]">
<ellipse fill="#ffffff" stroke="black" cx="300.78" cy="-504" rx="35.194" ry="18"/>
<text text-anchor="middle" x="300.78" y="-500.3" font-family="Times,serif" font-size="14.00" fill="#2c94b3">AS701</text>
</a>
</g>
</g>
<!-- AS174&#45;&gt;AS701 -->
<g id="edge5" class="edge"><title>AS174&#45;&gt;AS701</title>
<path fill="none" stroke="black" stroke-width="2" d="M206.393,-534.521C222.584,-529.229 242.978,-522.564 260.574,-516.813"/>
<polygon fill="black" stroke="black" stroke-width="2" points="262.141,-519.983 270.559,-513.55 259.966,-513.33 262.141,-519.983"/>
</g>
<!-- AS6762 -->
<g id="node7" class="node"><title>AS6762</title>
<g id="a_node7"><a xlink:href="/asn/6762" xlink:title="AS6762 ~ TELECOM ITALIA SPARKLE S.p.A. [IT]">
<ellipse fill="#ffffff" stroke="black" cx="300.78" cy="-450" rx="39.7935" ry="18"/>
<text text-anchor="middle" x="300.78" y="-446.3" font-family="Times,serif" font-size="14.00" fill="#2c94b3">AS6762</text>
</a>
</g>
</g>
<!-- AS174&#45;&gt;AS6762 -->
<g id="edge6" class="edge"><title>AS174&#45;&gt;AS6762</title>
<path fill="none" stroke="black" stroke-width="2" d="M194.416,-528.353C210.071,-514.274 234.18,-493.349 256.584,-477 259.959,-474.537 263.56,-472.063 267.188,-469.667"/>
<polygon fill="black" stroke="black" stroke-width="2" points="269.089,-472.606 275.611,-464.256 265.305,-466.716 269.089,-472.606"/>
</g>
<!-- AS1239 -->
<g id="node8" class="node"><title>AS1239</title>
<g id="a_node8"><a xlink:href="/asn/1239" xlink:title="AS1239 ~ Sprint [US]">
<ellipse fill="#ffffff" stroke="black" cx="300.78" cy="-396" rx="39.7935" ry="18"/>
<text text-anchor="middle" x="300.78" y="-392.3" font-family="Times,serif" font-size="14.00" fill="#2c94b3">AS1239</text>
</a>
</g>
</g>
<!-- AS174&#45;&gt;AS1239 -->
<g id="edge7" class="edge"><title>AS174&#45;&gt;AS1239</title>
<path fill="none" stroke="black" d="M191.825,-527.571C200.636,-517.166 211.848,-503.222 220.584,-490 239.218,-461.796 233.477,-447.674 256.584,-423 259.153,-420.257 262.059,-417.68 265.121,-415.29"/>
<polygon fill="black" stroke="black" points="267.301,-418.036 273.46,-409.415 263.269,-412.313 267.301,-418.036"/>
</g>
<!-- AS2914 -->
<g id="node9" class="node"><title>AS2914</title>
<g id="a_node9"><a xlink:href="/asn/2914" xlink:title="AS2914 ~ NTT America, Inc. [US]">
<ellipse fill="#ffffff" stroke="black" cx="300.78" cy="-720" rx="39.7935" ry="18"/>
<text text-anchor="middle" x="300.78" y="-716.3" font-family="Times,serif" font-size="14.00" fill="#2c94b3">AS2914</text>
</a>
</g>
</g>
<!-- AS174&#45;&gt;AS2914 -->
<g id="edge8" class="edge"><title>AS174&#45;&gt;AS2914</title>
<path fill="none" stroke="black" stroke-width="2" d="M183.405,-561.905C194.189,-591.896 219.228,-652.93 256.584,-693 259.147,-695.749 262.049,-698.33 265.108,-700.722"/>
<polygon fill="black" stroke="black" stroke-width="2" points="263.254,-703.697 273.443,-706.6 267.288,-697.977 263.254,-703.697"/>
</g>
<!-- AS7018 -->
<g id="node10" class="node"><title>AS7018</title>
<g id="a_node10"><a xlink:href="/asn/7018" xlink:title="AS7018 ~ AT&amp;T Services, Inc. [US]">
<ellipse fill="#ffffff" stroke="black" cx="300.78" cy="-666" rx="39.7935" ry="18"/>
<text text-anchor="middle" x="300.78" y="-662.3" font-family="Times,serif" font-size="14.00" fill="#2c94b3">AS7018</text>
</a>
</g>
</g>
<!-- AS174&#45;&gt;AS7018 -->
<g id="edge9" class="edge"><title>AS174&#45;&gt;AS7018</title>
<path fill="none" stroke="black" stroke-width="2" d="M188.882,-560.837C203.177,-580.986 229.074,-615.006 256.584,-639 259.572,-641.607 262.839,-644.129 266.196,-646.516"/>
<polygon fill="black" stroke="black" stroke-width="2" points="264.355,-649.496 274.614,-652.142 268.245,-643.676 264.355,-649.496"/>
</g>
<!-- AS12956 -->
<g id="node11" class="node"><title>AS12956</title>
<g id="a_node11"><a xlink:href="/asn/12956" xlink:title="AS12956 ~ TELXIUS [ES]">
<ellipse fill="#ffffff" stroke="black" cx="300.78" cy="-612" rx="44.393" ry="18"/>
<text text-anchor="middle" x="300.78" y="-608.3" font-family="Times,serif" font-size="14.00" fill="#2c94b3">AS12956</text>
</a>
</g>
</g>
<!-- AS174&#45;&gt;AS12956 -->
<g id="edge10" class="edge"><title>AS174&#45;&gt;AS12956</title>
<path fill="none" stroke="black" d="M200.986,-557.111C219.058,-567.151 244.271,-581.16 264.703,-592.512"/>
<polygon fill="black" stroke="black" points="263.27,-595.719 273.711,-597.517 266.67,-589.6 263.27,-595.719"/>
</g>
<!-- AS6830&#45;&gt;AS3491 -->
<g id="edge14" class="edge"><title>AS6830&#45;&gt;AS3491</title>
<path fill="none" stroke="black" d="M194.684,-479.189C210.321,-493.493 234.246,-514.574 256.584,-531 259.95,-533.476 263.545,-535.957 267.17,-538.358"/>
<polygon fill="black" stroke="black" points="265.285,-541.307 275.589,-543.773 269.072,-535.42 265.285,-541.307"/>
</g>
<!-- AS6830&#45;&gt;AS701 -->
<g id="edge17" class="edge"><title>AS6830&#45;&gt;AS701</title>
<path fill="none" stroke="black" d="M208.907,-473.559C224.893,-478.914 244.444,-485.463 261.31,-491.113"/>
<polygon fill="black" stroke="black" points="260.29,-494.462 270.883,-494.32 262.513,-487.825 260.29,-494.462"/>
</g>
<!-- AS6830&#45;&gt;AS6762 -->
<g id="edge11" class="edge"><title>AS6830&#45;&gt;AS6762</title>
<path fill="none" stroke="black" stroke-width="2" d="M215.108,-458.993C226.741,-457.758 239.708,-456.381 251.929,-455.083"/>
<polygon fill="black" stroke="black" stroke-width="2" points="252.399,-458.552 261.973,-454.016 251.659,-451.592 252.399,-458.552"/>
</g>
<!-- AS6830&#45;&gt;AS1239 -->
<g id="edge19" class="edge"><title>AS6830&#45;&gt;AS1239</title>
<path fill="none" stroke="black" d="M202.451,-449.28C220.766,-439.253 245.81,-425.544 265.906,-414.543"/>
<polygon fill="black" stroke="black" points="267.659,-417.574 274.75,-409.702 264.298,-411.434 267.659,-417.574"/>
</g>
<!-- AS6830&#45;&gt;AS2914 -->
<g id="edge16" class="edge"><title>AS6830&#45;&gt;AS2914</title>
<path fill="none" stroke="black" stroke-width="2" d="M194.095,-479.564C203.264,-489.585 214.063,-503.085 220.584,-517 254.463,-589.297 211.044,-627.419 256.584,-693 258.551,-695.833 260.921,-698.429 263.526,-700.796"/>
<polygon fill="black" stroke="black" stroke-width="2" points="261.814,-703.894 271.877,-707.21 266.078,-698.343 261.814,-703.894"/>
</g>
<!-- AS6830&#45;&gt;AS7018 -->
<g id="edge12" class="edge"><title>AS6830&#45;&gt;AS7018</title>
<path fill="none" stroke="black" d="M193.234,-479.311C202.339,-489.454 213.365,-503.163 220.584,-517 246.731,-567.124 222.391,-593.979 256.584,-639 258.857,-641.993 261.566,-644.737 264.503,-647.231"/>
<polygon fill="black" stroke="black" points="262.544,-650.135 272.67,-653.251 266.698,-644.5 262.544,-650.135"/>
</g>
<!-- AS6830&#45;&gt;AS12956 -->
<g id="edge15" class="edge"><title>AS6830&#45;&gt;AS12956</title>
<path fill="none" stroke="black" d="M192.256,-479.885C201.015,-490.231 212.02,-503.952 220.584,-517 239.347,-545.589 233.286,-559.968 256.584,-585 258.945,-587.537 261.595,-589.93 264.391,-592.163"/>
<polygon fill="black" stroke="black" points="262.374,-595.024 272.536,-598.023 266.463,-589.342 262.374,-595.024"/>
</g>
<!-- AS2497 -->
<g id="node12" class="node"><title>AS2497</title>
<g id="a_node12"><a xlink:href="/asn/2497" xlink:title="AS2497 ~ Internet Initiative Japan Inc. [JP]">
<ellipse fill="#ffffff" stroke="black" cx="300.78" cy="-342" rx="39.7935" ry="18"/>
<text text-anchor="middle" x="300.78" y="-338.3" font-family="Times,serif" font-size="14.00" fill="#2c94b3">AS2497</text>
</a>
</g>
</g>
<!-- AS6830&#45;&gt;AS2497 -->
<g id="edge13" class="edge"><title>AS6830&#45;&gt;AS2497</title>
<path fill="none" stroke="black" stroke-width="2" d="M189.429,-445.643C203.86,-425.635 229.505,-392.495 256.584,-369 259.579,-366.401 262.851,-363.884 266.21,-361.5"/>
<polygon fill="black" stroke="black" stroke-width="2" points="268.258,-364.341 274.632,-355.877 264.371,-358.519 268.258,-364.341"/>
</g>
<!-- AS2828 -->
<g id="node13" class="node"><title>AS2828</title>
<g id="a_node13"><a xlink:href="/asn/2828" xlink:title="AS2828 ~ XO&#45;AS15 [US]">
<ellipse fill="#ffffff" stroke="black" cx="300.78" cy="-288" rx="39.7935" ry="18"/>
<text text-anchor="middle" x="300.78" y="-284.3" font-family="Times,serif" font-size="14.00" fill="#2c94b3">AS2828</text>
</a>
</g>
</g>
<!-- AS6830&#45;&gt;AS2828 -->
<g id="edge18" class="edge"><title>AS6830&#45;&gt;AS2828</title>
<path fill="none" stroke="black" d="M183.435,-445.217C194.264,-415.43 219.368,-354.809 256.584,-315 259.15,-312.254 262.056,-309.676 265.116,-307.286"/>
<polygon fill="black" stroke="black" points="267.296,-310.031 273.453,-301.409 263.263,-304.309 267.296,-310.031"/>
</g>
<!-- AS1273 -->
<g id="node14" class="node"><title>AS1273</title>
<g id="a_node14"><a xlink:href="/asn/1273" xlink:title="AS1273 ~ Vodafone Group PLC [EU]">
<ellipse fill="#ffffff" stroke="black" cx="300.78" cy="-234" rx="39.7935" ry="18"/>
<text text-anchor="middle" x="300.78" y="-230.3" font-family="Times,serif" font-size="14.00" fill="#2c94b3">AS1273</text>
</a>
</g>
</g>
<!-- AS6830&#45;&gt;AS1273 -->
<g id="edge20" class="edge"><title>AS6830&#45;&gt;AS1273</title>
<path fill="none" stroke="black" d="M180.515,-444.855C187.836,-406.937 209.183,-318.094 256.584,-261 258.985,-258.108 261.779,-255.432 264.77,-252.98"/>
<polygon fill="black" stroke="black" points="266.96,-255.716 273.01,-247.019 262.857,-250.044 266.96,-255.716"/>
</g>
<!-- AS6453 -->
<g id="node15" class="node"><title>AS6453</title>
<g id="a_node15"><a xlink:href="/asn/6453" xlink:title="AS6453 ~ TATA COMMUNICATIONS (AMERICA) INC [US]">
<ellipse fill="#ffffff" stroke="black" cx="300.78" cy="-180" rx="39.7935" ry="18"/>
<text text-anchor="middle" x="300.78" y="-176.3" font-family="Times,serif" font-size="14.00" fill="#2c94b3">AS6453</text>
</a>
</g>
</g>
<!-- AS47692&#45;&gt;AS6453 -->
<g id="edge21" class="edge"><title>AS47692&#45;&gt;AS6453</title>
<path fill="none" stroke="black" stroke-width="3" d="M215.777,-161.469C228.168,-164.202 242.015,-167.257 254.836,-170.085"/>
<polygon fill="black" stroke="black" stroke-width="3" points="254.331,-173.558 264.85,-172.295 255.839,-166.722 254.331,-173.558"/>
</g>
<!-- AS33891 -->
<g id="node16" class="node"><title>AS33891</title>
<g id="a_node16"><a xlink:href="/asn/33891" xlink:title="AS33891 ~ CORE&#45;BACKBONE GMBH GLOBAL NETWORK [DE]">
<ellipse fill="#ffffff" stroke="black" cx="300.78" cy="-72" rx="44.393" ry="18"/>
<text text-anchor="middle" x="300.78" y="-68.3" font-family="Times,serif" font-size="14.00" fill="#2c94b3">AS33891</text>
</a>
</g>
</g>
<!-- AS47692&#45;&gt;AS33891 -->
<g id="edge22" class="edge"><title>AS47692&#45;&gt;AS33891</title>
<path fill="none" stroke="black" stroke-width="2" d="M199.418,-137.633C215.221,-126.695 237.077,-111.739 256.584,-99 259.904,-96.8314 263.387,-94.5941 266.873,-92.3787"/>
<polygon fill="black" stroke="black" stroke-width="2" points="268.862,-95.262 275.455,-86.9684 265.129,-89.3405 268.862,-95.262"/>
</g>
<!-- AS3356 -->
<g id="node17" class="node"><title>AS3356</title>
<g id="a_node17"><a xlink:href="/asn/3356" xlink:title="AS3356 ~ Level 3 Parent, LLC [US]">
<ellipse fill="#ffffff" stroke="black" cx="300.78" cy="-126" rx="39.7935" ry="18"/>
<text text-anchor="middle" x="300.78" y="-122.3" font-family="Times,serif" font-size="14.00" fill="#2c94b3">AS3356</text>
</a>
</g>
</g>
<!-- AS47692&#45;&gt;AS3356 -->
<g id="edge23" class="edge"><title>AS47692&#45;&gt;AS3356</title>
<path fill="none" stroke="black" stroke-width="3" d="M215.777,-144.531C228.168,-141.798 242.015,-138.743 254.836,-135.915"/>
<polygon fill="black" stroke="black" stroke-width="3" points="255.839,-139.278 264.85,-133.705 254.331,-132.442 255.839,-139.278"/>
</g>
<!-- AS209 -->
<g id="node21" class="node"><title>AS209</title>
<g id="a_node21"><a xlink:href="/asn/209" xlink:title="AS209 ~ CenturyLink Communications, LLC [US]">
<ellipse fill="#ffffff" stroke="black" cx="420.622" cy="-180" rx="35.194" ry="18"/>
<text text-anchor="middle" x="420.622" y="-176.3" font-family="Times,serif" font-size="14.00" fill="#2c94b3">AS209</text>
</a>
</g>
</g>
<!-- AS6453&#45;&gt;AS209 -->
<g id="edge28" class="edge"><title>AS6453&#45;&gt;AS209</title>
<path fill="none" stroke="black" d="M340.692,-180C351.779,-180 363.939,-180 375.321,-180"/>
<polygon fill="black" stroke="black" points="375.503,-183.5 385.503,-180 375.503,-176.5 375.503,-183.5"/>
</g>
<!-- AS1299 -->
<g id="node18" class="node"><title>AS1299</title>
<g id="a_node18"><a xlink:href="/asn/1299" xlink:title="AS1299 ~ Telia Carrier [EU]">
<ellipse fill="#ffffff" stroke="black" cx="420.622" cy="-72" rx="39.7935" ry="18"/>
<text text-anchor="middle" x="420.622" y="-68.3" font-family="Times,serif" font-size="14.00" fill="#2c94b3">AS1299</text>
</a>
</g>
</g>
<!-- AS33891&#45;&gt;AS1299 -->
<g id="edge24" class="edge"><title>AS33891&#45;&gt;AS1299</title>
<path fill="none" stroke="black" d="M344.991,-72C353.303,-72 362.066,-72 370.548,-72"/>
<polygon fill="black" stroke="black" points="370.707,-75.5001 380.707,-72 370.707,-68.5001 370.707,-75.5001"/>
</g>
<!-- AS3257 -->
<g id="node19" class="node"><title>AS3257</title>
<g id="a_node19"><a xlink:href="/asn/3257" xlink:title="AS3257 ~ GTT [DE]">
<ellipse fill="#ffffff" stroke="black" cx="420.622" cy="-18" rx="39.7935" ry="18"/>
<text text-anchor="middle" x="420.622" y="-14.3" font-family="Times,serif" font-size="14.00" fill="#2c94b3">AS3257</text>
</a>
</g>
</g>
<!-- AS33891&#45;&gt;AS3257 -->
<g id="edge25" class="edge"><title>AS33891&#45;&gt;AS3257</title>
<path fill="none" stroke="black" d="M330.909,-58.6517C346.521,-51.498 365.918,-42.6093 382.59,-34.9695"/>
<polygon fill="black" stroke="black" points="384.409,-37.986 392.042,-30.6382 381.493,-31.6223 384.409,-37.986"/>
</g>
<!-- AS3549 -->
<g id="node20" class="node"><title>AS3549</title>
<g id="a_node20"><a xlink:href="/asn/3549" xlink:title="AS3549 ~ Level 3 Parent, LLC [US]">
<ellipse fill="#ffffff" stroke="black" cx="420.622" cy="-126" rx="39.7935" ry="18"/>
<text text-anchor="middle" x="420.622" y="-122.3" font-family="Times,serif" font-size="14.00" fill="#2c94b3">AS3549</text>
</a>
</g>
</g>
<!-- AS3356&#45;&gt;AS3549 -->
<g id="edge26" class="edge"><title>AS3356&#45;&gt;AS3549</title>
<path fill="none" stroke="black" d="M340.692,-126C350.246,-126 360.595,-126 370.558,-126"/>
<polygon fill="black" stroke="black" points="370.751,-129.5 380.75,-126 370.75,-122.5 370.751,-129.5"/>
</g>
<!-- AS3356&#45;&gt;AS209 -->
<g id="edge27" class="edge"><title>AS3356&#45;&gt;AS209</title>
<path fill="none" stroke="black" d="M329.409,-138.661C345.825,-146.183 366.806,-155.798 384.403,-163.861"/>
<polygon fill="black" stroke="black" points="383.232,-167.174 393.781,-168.158 386.148,-160.811 383.232,-167.174"/>
</g>
</g>
</svg>
