<?xml version="1.0" encoding="UTF-8" standalone="no"?>
<!DOCTYPE svg PUBLIC "-//W3C//DTD SVG 1.1//EN"
 "http://www.w3.org/Graphics/SVG/1.1/DTD/svg11.dtd">
<!-- Generated by graphviz version 2.38.0 (20140413.2041)
 -->
<!-- Title: AS5404 IPv6 Upstream Graph Pages: 1 -->
<svg width="442pt" height="530pt"
 viewBox="0.00 0.00 442.27 530.00" xmlns="http://www.w3.org/2000/svg" xmlns:xlink="http://www.w3.org/1999/xlink">
<g id="graph0" class="graph" transform="scale(1 1) rotate(0) translate(4 526)">
<title>AS5404 IPv6 Upstream Graph</title>
<polygon fill="white" stroke="none" points="-4,4 -4,-526 438.271,-526 438.271,4 -4,4"/>
<!-- AS5404 -->
<g id="node1" class="node"><title>AS5404</title>
<g id="a_node1"><a xlink:href="/asn/5404" xlink:title="AS5404 ~ ASN conova communications GmbH [AT]">
<ellipse fill="#ffffff" stroke="black" cx="39.6465" cy="-234" rx="39.7935" ry="18"/>
<text text-anchor="middle" x="39.6465" y="-230.3" font-family="Times,serif" font-size="14.00" fill="#880000">AS5404</text>
</a>
</g>
</g>
<!-- AS1764 -->
<g id="node2" class="node"><title>AS1764</title>
<g id="a_node2"><a xlink:href="/asn/1764" xlink:title="AS1764 ~ NEXTLAYER&#45;AS [AT]">
<ellipse fill="#ffffff" stroke="black" cx="159.489" cy="-423" rx="39.7935" ry="18"/>
<text text-anchor="middle" x="159.489" y="-419.3" font-family="Times,serif" font-size="14.00" fill="#2c94b3">AS1764</text>
</a>
</g>
</g>
<!-- AS5404&#45;&gt;AS1764 -->
<g id="edge1" class="edge"><title>AS5404&#45;&gt;AS1764</title>
<path fill="none" stroke="black" stroke-width="2.7" d="M51.5216,-251.442C72.3049,-284.775 117.766,-357.686 142.194,-396.866"/>
<polygon fill="black" stroke="black" stroke-width="2.7" points="139.379,-398.966 147.64,-405.6 145.319,-395.263 139.379,-398.966"/>
</g>
<!-- AS6830 -->
<g id="node3" class="node"><title>AS6830</title>
<g id="a_node3"><a xlink:href="/asn/6830" xlink:title="AS6830 ~ LGI&#45;UPC [AT]">
<ellipse fill="#ffffff" stroke="black" cx="159.489" cy="-234" rx="39.7935" ry="18"/>
<text text-anchor="middle" x="159.489" y="-230.3" font-family="Times,serif" font-size="14.00" fill="#2c94b3">AS6830</text>
</a>
</g>
</g>
<!-- AS5404&#45;&gt;AS6830 -->
<g id="edge2" class="edge"><title>AS5404&#45;&gt;AS6830</title>
<path fill="none" stroke="black" stroke-width="4.5" d="M79.5591,-234C89.1125,-234 99.4621,-234 109.425,-234"/>
<polygon fill="black" stroke="black" stroke-width="4.5" points="109.617,-237.938 119.617,-234 109.617,-230.063 109.617,-237.938"/>
</g>
<!-- AS33891 -->
<g id="node4" class="node"><title>AS33891</title>
<g id="a_node4"><a xlink:href="/asn/33891" xlink:title="AS33891 ~ CORE&#45;BACKBONE GMBH GLOBAL NETWORK [DE]">
<ellipse fill="#ffffff" stroke="black" cx="159.489" cy="-72" rx="44.393" ry="18"/>
<text text-anchor="middle" x="159.489" y="-68.3" font-family="Times,serif" font-size="14.00" fill="#2c94b3">AS33891</text>
</a>
</g>
</g>
<!-- AS5404&#45;&gt;AS33891 -->
<g id="edge3" class="edge"><title>AS5404&#45;&gt;AS33891</title>
<path fill="none" stroke="black" stroke-width="2.7" d="M53.035,-216.969C73.7568,-188.483 115.56,-131.015 139.848,-97.6263"/>
<polygon fill="black" stroke="black" stroke-width="2.7" points="142.86,-99.4357 145.912,-89.29 137.199,-95.318 142.86,-99.4357"/>
</g>
<!-- AS2914 -->
<g id="node5" class="node"><title>AS2914</title>
<g id="a_node5"><a xlink:href="/asn/2914" xlink:title="AS2914 ~ NTT America, Inc. [US]">
<ellipse fill="#ffffff" stroke="black" cx="279.332" cy="-504" rx="39.7935" ry="18"/>
<text text-anchor="middle" x="279.332" y="-500.3" font-family="Times,serif" font-size="14.00" fill="#2c94b3">AS2914</text>
</a>
</g>
</g>
<!-- AS1764&#45;&gt;AS2914 -->
<g id="edge4" class="edge"><title>AS1764&#45;&gt;AS2914</title>
<path fill="none" stroke="black" d="M182.103,-437.857C200.592,-450.565 227.405,-468.995 248.035,-483.175"/>
<polygon fill="black" stroke="black" points="246.232,-486.183 256.455,-488.963 250.197,-480.414 246.232,-486.183"/>
</g>
<!-- AS8218 -->
<g id="node6" class="node"><title>AS8218</title>
<g id="a_node6"><a xlink:href="/asn/8218" xlink:title="AS8218 ~ legacy Neotelecoms [FR]">
<ellipse fill="#ffffff" stroke="black" cx="279.332" cy="-450" rx="39.7935" ry="18"/>
<text text-anchor="middle" x="279.332" y="-446.3" font-family="Times,serif" font-size="14.00" fill="#2c94b3">AS8218</text>
</a>
</g>
</g>
<!-- AS1764&#45;&gt;AS8218 -->
<g id="edge5" class="edge"><title>AS1764&#45;&gt;AS8218</title>
<path fill="none" stroke="black" d="M195.208,-430.955C207.208,-433.704 220.829,-436.825 233.522,-439.733"/>
<polygon fill="black" stroke="black" points="232.924,-443.187 243.453,-442.009 234.488,-436.364 232.924,-443.187"/>
</g>
<!-- AS174 -->
<g id="node7" class="node"><title>AS174</title>
<g id="a_node7"><a xlink:href="/asn/174" xlink:title="AS174 ~ Cogent Communications [US]">
<ellipse fill="#ffffff" stroke="black" cx="279.332" cy="-396" rx="35.194" ry="18"/>
<text text-anchor="middle" x="279.332" y="-392.3" font-family="Times,serif" font-size="14.00" fill="#2c94b3">AS174</text>
</a>
</g>
</g>
<!-- AS1764&#45;&gt;AS174 -->
<g id="edge6" class="edge"><title>AS1764&#45;&gt;AS174</title>
<path fill="none" stroke="black" d="M195.208,-415.045C208.301,-412.045 223.323,-408.604 236.964,-405.478"/>
<polygon fill="black" stroke="black" points="238.105,-408.807 247.071,-403.162 236.542,-401.984 238.105,-408.807"/>
</g>
<!-- AS6762 -->
<g id="node9" class="node"><title>AS6762</title>
<g id="a_node9"><a xlink:href="/asn/6762" xlink:title="AS6762 ~ TELECOM ITALIA SPARKLE S.p.A. [IT]">
<ellipse fill="#ffffff" stroke="black" cx="279.332" cy="-342" rx="39.7935" ry="18"/>
<text text-anchor="middle" x="279.332" y="-338.3" font-family="Times,serif" font-size="14.00" fill="#2c94b3">AS6762</text>
</a>
</g>
</g>
<!-- AS6830&#45;&gt;AS6762 -->
<g id="edge8" class="edge"><title>AS6830&#45;&gt;AS6762</title>
<path fill="none" stroke="black" d="M175.135,-250.725C190.436,-267.765 215.533,-294.523 239.685,-315 242.182,-317.117 244.843,-319.232 247.554,-321.293"/>
<polygon fill="black" stroke="black" points="245.591,-324.194 255.73,-327.266 249.72,-318.541 245.591,-324.194"/>
</g>
<!-- AS701 -->
<g id="node10" class="node"><title>AS701</title>
<g id="a_node10"><a xlink:href="/asn/701" xlink:title="AS701 ~ UUNET [US]">
<ellipse fill="#ffffff" stroke="black" cx="279.332" cy="-288" rx="35.194" ry="18"/>
<text text-anchor="middle" x="279.332" y="-284.3" font-family="Times,serif" font-size="14.00" fill="#2c94b3">AS701</text>
</a>
</g>
</g>
<!-- AS6830&#45;&gt;AS701 -->
<g id="edge9" class="edge"><title>AS6830&#45;&gt;AS701</title>
<path fill="none" stroke="black" d="M188.118,-246.661C204.534,-254.183 225.516,-263.798 243.113,-271.861"/>
<polygon fill="black" stroke="black" points="241.941,-275.174 252.49,-276.158 244.857,-268.811 241.941,-275.174"/>
</g>
<!-- AS7018 -->
<g id="node11" class="node"><title>AS7018</title>
<g id="a_node11"><a xlink:href="/asn/7018" xlink:title="AS7018 ~ AT&amp;T Services, Inc. [US]">
<ellipse fill="#ffffff" stroke="black" cx="279.332" cy="-234" rx="39.7935" ry="18"/>
<text text-anchor="middle" x="279.332" y="-230.3" font-family="Times,serif" font-size="14.00" fill="#2c94b3">AS7018</text>
</a>
</g>
</g>
<!-- AS6830&#45;&gt;AS7018 -->
<g id="edge10" class="edge"><title>AS6830&#45;&gt;AS7018</title>
<path fill="none" stroke="black" d="M199.402,-234C208.955,-234 219.305,-234 229.267,-234"/>
<polygon fill="black" stroke="black" points="229.46,-237.5 239.46,-234 229.46,-230.5 229.46,-237.5"/>
</g>
<!-- AS2497 -->
<g id="node12" class="node"><title>AS2497</title>
<g id="a_node12"><a xlink:href="/asn/2497" xlink:title="AS2497 ~ Internet Initiative Japan Inc. [JP]">
<ellipse fill="#ffffff" stroke="black" cx="279.332" cy="-180" rx="39.7935" ry="18"/>
<text text-anchor="middle" x="279.332" y="-176.3" font-family="Times,serif" font-size="14.00" fill="#2c94b3">AS2497</text>
</a>
</g>
</g>
<!-- AS6830&#45;&gt;AS2497 -->
<g id="edge11" class="edge"><title>AS6830&#45;&gt;AS2497</title>
<path fill="none" stroke="black" d="M188.118,-221.339C204.075,-214.027 224.345,-204.739 241.628,-196.819"/>
<polygon fill="black" stroke="black" points="243.243,-199.929 250.876,-192.581 240.327,-193.565 243.243,-199.929"/>
</g>
<!-- AS3491 -->
<g id="node13" class="node"><title>AS3491</title>
<g id="a_node13"><a xlink:href="/asn/3491" xlink:title="AS3491 ~ PCCW Global, Inc. [US]">
<ellipse fill="#ffffff" stroke="black" cx="279.332" cy="-126" rx="39.7935" ry="18"/>
<text text-anchor="middle" x="279.332" y="-122.3" font-family="Times,serif" font-size="14.00" fill="#2c94b3">AS3491</text>
</a>
</g>
</g>
<!-- AS6830&#45;&gt;AS3491 -->
<g id="edge12" class="edge"><title>AS6830&#45;&gt;AS3491</title>
<path fill="none" stroke="black" d="M175.135,-217.275C190.436,-200.235 215.533,-173.477 239.685,-153 242.182,-150.883 244.843,-148.768 247.554,-146.707"/>
<polygon fill="black" stroke="black" points="249.72,-149.459 255.73,-140.734 245.591,-143.806 249.72,-149.459"/>
</g>
<!-- AS3356 -->
<g id="node14" class="node"><title>AS3356</title>
<g id="a_node14"><a xlink:href="/asn/3356" xlink:title="AS3356 ~ Level 3 Parent, LLC [US]">
<ellipse fill="#ffffff" stroke="black" cx="279.332" cy="-72" rx="39.7935" ry="18"/>
<text text-anchor="middle" x="279.332" y="-68.3" font-family="Times,serif" font-size="14.00" fill="#2c94b3">AS3356</text>
</a>
</g>
</g>
<!-- AS33891&#45;&gt;AS3356 -->
<g id="edge13" class="edge"><title>AS33891&#45;&gt;AS3356</title>
<path fill="none" stroke="black" stroke-width="2" d="M203.7,-72C212.013,-72 220.775,-72 229.258,-72"/>
<polygon fill="black" stroke="black" stroke-width="2" points="229.416,-75.5001 239.416,-72 229.416,-68.5001 229.416,-75.5001"/>
</g>
<!-- AS1299 -->
<g id="node15" class="node"><title>AS1299</title>
<g id="a_node15"><a xlink:href="/asn/1299" xlink:title="AS1299 ~ Telia Carrier [EU]">
<ellipse fill="#ffffff" stroke="black" cx="279.332" cy="-18" rx="39.7935" ry="18"/>
<text text-anchor="middle" x="279.332" y="-14.3" font-family="Times,serif" font-size="14.00" fill="#2c94b3">AS1299</text>
</a>
</g>
</g>
<!-- AS33891&#45;&gt;AS1299 -->
<g id="edge14" class="edge"><title>AS33891&#45;&gt;AS1299</title>
<path fill="none" stroke="black" d="M189.619,-58.6517C205.23,-51.498 224.628,-42.6093 241.3,-34.9695"/>
<polygon fill="black" stroke="black" points="243.119,-37.986 250.752,-30.6382 240.203,-31.6223 243.119,-37.986"/>
</g>
<!-- AS6461 -->
<g id="node8" class="node"><title>AS6461</title>
<g id="a_node8"><a xlink:href="/asn/6461" xlink:title="AS6461 ~ Zayo Bandwidth [US]">
<ellipse fill="#ffffff" stroke="black" cx="394.625" cy="-450" rx="39.7935" ry="18"/>
<text text-anchor="middle" x="394.625" y="-446.3" font-family="Times,serif" font-size="14.00" fill="#2c94b3">AS6461</text>
</a>
</g>
</g>
<!-- AS8218&#45;&gt;AS6461 -->
<g id="edge7" class="edge"><title>AS8218&#45;&gt;AS6461</title>
<path fill="none" stroke="black" d="M319.004,-450C327.207,-450 335.971,-450 344.503,-450"/>
<polygon fill="black" stroke="black" points="344.742,-453.5 354.742,-450 344.742,-446.5 344.742,-453.5"/>
</g>
<!-- AS209 -->
<g id="node16" class="node"><title>AS209</title>
<g id="a_node16"><a xlink:href="/asn/209" xlink:title="AS209 ~ CenturyLink Communications, LLC [US]">
<ellipse fill="#ffffff" stroke="black" cx="394.625" cy="-72" rx="35.194" ry="18"/>
<text text-anchor="middle" x="394.625" y="-68.3" font-family="Times,serif" font-size="14.00" fill="#2c94b3">AS209</text>
</a>
</g>
</g>
<!-- AS3356&#45;&gt;AS209 -->
<g id="edge15" class="edge"><title>AS3356&#45;&gt;AS209</title>
<path fill="none" stroke="black" d="M319.004,-72C328.709,-72 339.2,-72 349.163,-72"/>
<polygon fill="black" stroke="black" points="349.299,-75.5001 359.299,-72 349.299,-68.5001 349.299,-75.5001"/>
</g>
</g>
</svg>
