<?xml version="1.0" encoding="UTF-8" standalone="no"?>
<!DOCTYPE svg PUBLIC "-//W3C//DTD SVG 1.1//EN"
 "http://www.w3.org/Graphics/SVG/1.1/DTD/svg11.dtd">
<!-- Generated by graphviz version 2.38.0 (20140413.2041)
 -->
<!-- Title: AS206298 Combined Upstream Graph Pages: 1 -->
<svg width="459pt" height="638pt"
 viewBox="0.00 0.00 459.17 638.00" xmlns="http://www.w3.org/2000/svg" xmlns:xlink="http://www.w3.org/1999/xlink">
<g id="graph0" class="graph" transform="scale(1 1) rotate(0) translate(4 634)">
<title>AS206298 Combined Upstream Graph</title>
<polygon fill="white" stroke="none" points="-4,4 -4,-634 455.17,-634 455.17,4 -4,4"/>
<!-- AS206298 -->
<g id="node1" class="node"><title>AS206298</title>
<g id="a_node1"><a xlink:href="/asn/206298" xlink:title="AS206298 ~ RKM&#45;AS [AT]">
<ellipse fill="#ffffff" stroke="black" cx="48.0957" cy="-301" rx="48.1917" ry="18"/>
<text text-anchor="middle" x="48.0957" y="-297.3" font-family="Times,serif" font-size="14.00" fill="#880000">AS206298</text>
</a>
</g>
</g>
<!-- AS3330 -->
<g id="node2" class="node"><title>AS3330</title>
<g id="a_node2"><a xlink:href="/asn/3330" xlink:title="AS3330 ~ Vienna, Austria [AT]">
<ellipse fill="#ffffff" stroke="black" cx="176.388" cy="-220" rx="39.7935" ry="18"/>
<text text-anchor="middle" x="176.388" y="-216.3" font-family="Times,serif" font-size="14.00" fill="#2c94b3">AS3330</text>
</a>
</g>
</g>
<!-- AS206298&#45;&gt;AS3330 -->
<g id="edge1" class="edge"><title>AS206298&#45;&gt;AS3330</title>
<path fill="none" stroke="black" stroke-width="3.64286" d="M73.1475,-285.574C93.2758,-272.664 122.141,-254.151 144.071,-240.085"/>
<polygon fill="black" stroke="black" stroke-width="3.64286" points="146.172,-242.896 152.7,-234.551 142.393,-237.004 146.172,-242.896"/>
</g>
<!-- AS21013 -->
<g id="node3" class="node"><title>AS21013</title>
<g id="a_node3"><a xlink:href="/asn/21013" xlink:title="AS21013 ~ Wels, AT [AT]">
<ellipse fill="#ffffff" stroke="black" cx="176.388" cy="-342" rx="44.393" ry="18"/>
<text text-anchor="middle" x="176.388" y="-338.3" font-family="Times,serif" font-size="14.00" fill="#2c94b3">AS21013</text>
</a>
</g>
</g>
<!-- AS206298&#45;&gt;AS21013 -->
<g id="edge2" class="edge"><title>AS206298&#45;&gt;AS21013</title>
<path fill="none" stroke="black" stroke-width="4.5" d="M84.9481,-312.639C99.4248,-317.339 116.271,-322.808 131.474,-327.744"/>
<polygon fill="black" stroke="black" stroke-width="4.5" points="130.458,-331.554 141.185,-330.896 132.89,-324.063 130.458,-331.554"/>
</g>
<!-- AS3257 -->
<g id="node4" class="node"><title>AS3257</title>
<g id="a_node4"><a xlink:href="/asn/3257" xlink:title="AS3257 ~ GTT [DE]">
<ellipse fill="#ffffff" stroke="black" cx="296.23" cy="-288" rx="39.7935" ry="18"/>
<text text-anchor="middle" x="296.23" y="-284.3" font-family="Times,serif" font-size="14.00" fill="#2c94b3">AS3257</text>
</a>
</g>
</g>
<!-- AS3330&#45;&gt;AS3257 -->
<g id="edge3" class="edge"><title>AS3330&#45;&gt;AS3257</title>
<path fill="none" stroke="black" stroke-width="4.5" d="M201.519,-233.925C218.958,-243.988 242.732,-257.707 261.97,-268.808"/>
<polygon fill="black" stroke="black" stroke-width="4.5" points="260.096,-272.272 270.726,-273.86 264.032,-265.452 260.096,-272.272"/>
</g>
<!-- AS3320 -->
<g id="node5" class="node"><title>AS3320</title>
<g id="a_node5"><a xlink:href="/asn/3320" xlink:title="AS3320 ~ DTAG [DE]">
<ellipse fill="#ffffff" stroke="black" cx="296.23" cy="-180" rx="39.7935" ry="18"/>
<text text-anchor="middle" x="296.23" y="-176.3" font-family="Times,serif" font-size="14.00" fill="#2c94b3">AS3320</text>
</a>
</g>
</g>
<!-- AS3330&#45;&gt;AS3320 -->
<g id="edge4" class="edge"><title>AS3330&#45;&gt;AS3320</title>
<path fill="none" stroke="black" stroke-width="1.22727" d="M208.658,-209.386C222.641,-204.639 239.312,-198.981 254.274,-193.902"/>
<polygon fill="black" stroke="black" stroke-width="1.22727" points="255.469,-197.192 263.814,-190.664 253.219,-190.564 255.469,-197.192"/>
</g>
<!-- AS8218 -->
<g id="node6" class="node"><title>AS8218</title>
<g id="a_node6"><a xlink:href="/asn/8218" xlink:title="AS8218 ~ legacy Neotelecoms [FR]">
<ellipse fill="#ffffff" stroke="black" cx="296.23" cy="-72" rx="39.7935" ry="18"/>
<text text-anchor="middle" x="296.23" y="-68.3" font-family="Times,serif" font-size="14.00" fill="#2c94b3">AS8218</text>
</a>
</g>
</g>
<!-- AS3330&#45;&gt;AS8218 -->
<g id="edge5" class="edge"><title>AS3330&#45;&gt;AS8218</title>
<path fill="none" stroke="black" stroke-width="1.22727" d="M186.079,-202.499C199.039,-177.561 225.29,-131.255 256.584,-99 258.667,-96.8522 260.944,-94.7671 263.317,-92.7707"/>
<polygon fill="black" stroke="black" stroke-width="1.22727" points="265.836,-95.2468 271.608,-86.3621 261.555,-89.7083 265.836,-95.2468"/>
</g>
<!-- AS2914 -->
<g id="node16" class="node"><title>AS2914</title>
<g id="a_node16"><a xlink:href="/asn/2914" xlink:title="AS2914 ~ NTT America, Inc. [US]">
<ellipse fill="#ffffff" stroke="black" cx="296.23" cy="-396" rx="39.7935" ry="18"/>
<text text-anchor="middle" x="296.23" y="-392.3" font-family="Times,serif" font-size="14.00" fill="#2c94b3">AS2914</text>
</a>
</g>
</g>
<!-- AS21013&#45;&gt;AS2914 -->
<g id="edge16" class="edge"><title>AS21013&#45;&gt;AS2914</title>
<path fill="none" stroke="black" stroke-width="2.25" d="M206.517,-355.348C222.128,-362.502 241.526,-371.391 258.198,-379.03"/>
<polygon fill="black" stroke="black" stroke-width="2.25" points="257.101,-382.378 267.65,-383.362 260.017,-376.014 257.101,-382.378"/>
</g>
<!-- AS1764 -->
<g id="node17" class="node"><title>AS1764</title>
<g id="a_node17"><a xlink:href="/asn/1764" xlink:title="AS1764 ~ NEXTLAYER&#45;AS [AT]">
<ellipse fill="#ffffff" stroke="black" cx="296.23" cy="-126" rx="39.7935" ry="18"/>
<text text-anchor="middle" x="296.23" y="-122.3" font-family="Times,serif" font-size="14.00" fill="#2c94b3">AS1764</text>
</a>
</g>
</g>
<!-- AS21013&#45;&gt;AS1764 -->
<g id="edge17" class="edge"><title>AS21013&#45;&gt;AS1764</title>
<path fill="none" stroke="black" stroke-width="0.9" d="M185.835,-324.283C194.79,-305.308 209.185,-274.244 220.584,-247 237.85,-205.73 229.036,-188.249 256.584,-153 258.379,-150.703 260.423,-148.522 262.612,-146.469"/>
<polygon fill="black" stroke="black" stroke-width="0.9" points="264.967,-149.064 270.461,-140.005 260.517,-143.661 264.967,-149.064"/>
</g>
<!-- AS174 -->
<g id="node18" class="node"><title>AS174</title>
<g id="a_node18"><a xlink:href="/asn/174" xlink:title="AS174 ~ Cogent Communications [US]">
<ellipse fill="#ffffff" stroke="black" cx="296.23" cy="-342" rx="35.194" ry="18"/>
<text text-anchor="middle" x="296.23" y="-338.3" font-family="Times,serif" font-size="14.00" fill="#2c94b3">AS174</text>
</a>
</g>
</g>
<!-- AS21013&#45;&gt;AS174 -->
<g id="edge18" class="edge"><title>AS21013&#45;&gt;AS174</title>
<path fill="none" stroke="black" stroke-width="1.8" d="M220.599,-342C230.447,-342 240.926,-342 250.823,-342"/>
<polygon fill="black" stroke="black" stroke-width="1.8" points="250.875,-345.5 260.875,-342 250.875,-338.5 250.875,-345.5"/>
</g>
<!-- AS3356 -->
<g id="node19" class="node"><title>AS3356</title>
<g id="a_node19"><a xlink:href="/asn/3356" xlink:title="AS3356 ~ Level 3 Parent, LLC [US]">
<ellipse fill="#ffffff" stroke="black" cx="296.23" cy="-477" rx="39.7935" ry="18"/>
<text text-anchor="middle" x="296.23" y="-473.3" font-family="Times,serif" font-size="14.00" fill="#2c94b3">AS3356</text>
</a>
</g>
</g>
<!-- AS21013&#45;&gt;AS3356 -->
<g id="edge19" class="edge"><title>AS21013&#45;&gt;AS3356</title>
<path fill="none" stroke="black" stroke-width="4.5" d="M192.312,-359.098C212.855,-382.631 249.974,-425.155 273.571,-452.187"/>
<polygon fill="black" stroke="black" stroke-width="4.5" points="270.884,-455.097 280.426,-460.041 276.817,-449.918 270.884,-455.097"/>
</g>
<!-- AS2497 -->
<g id="node7" class="node"><title>AS2497</title>
<g id="a_node7"><a xlink:href="/asn/2497" xlink:title="AS2497 ~ Internet Initiative Japan Inc. [JP]">
<ellipse fill="#ffffff" stroke="black" cx="411.523" cy="-396" rx="39.7935" ry="18"/>
<text text-anchor="middle" x="411.523" y="-392.3" font-family="Times,serif" font-size="14.00" fill="#2c94b3">AS2497</text>
</a>
</g>
</g>
<!-- AS3257&#45;&gt;AS2497 -->
<g id="edge6" class="edge"><title>AS3257&#45;&gt;AS2497</title>
<path fill="none" stroke="black" stroke-width="2" d="M320.824,-302.389C326.08,-306.148 331.412,-310.437 335.877,-315 356.049,-335.617 351.704,-348.383 371.877,-369 373.969,-371.139 376.253,-373.218 378.63,-375.21"/>
<polygon fill="black" stroke="black" stroke-width="2" points="376.873,-378.275 386.929,-381.611 381.148,-372.732 376.873,-378.275"/>
</g>
<!-- AS3491 -->
<g id="node8" class="node"><title>AS3491</title>
<g id="a_node8"><a xlink:href="/asn/3491" xlink:title="AS3491 ~ PCCW Global, Inc. [US]">
<ellipse fill="#ffffff" stroke="black" cx="411.523" cy="-342" rx="39.7935" ry="18"/>
<text text-anchor="middle" x="411.523" y="-338.3" font-family="Times,serif" font-size="14.00" fill="#2c94b3">AS3491</text>
</a>
</g>
</g>
<!-- AS3257&#45;&gt;AS3491 -->
<g id="edge7" class="edge"><title>AS3257&#45;&gt;AS3491</title>
<path fill="none" stroke="black" d="M324.367,-300.934C339.361,-308.081 358.182,-317.052 374.405,-324.785"/>
<polygon fill="black" stroke="black" points="373.075,-328.028 383.608,-329.171 376.087,-321.709 373.075,-328.028"/>
</g>
<!-- AS7018 -->
<g id="node9" class="node"><title>AS7018</title>
<g id="a_node9"><a xlink:href="/asn/7018" xlink:title="AS7018 ~ AT&amp;T Services, Inc. [US]">
<ellipse fill="#ffffff" stroke="black" cx="411.523" cy="-234" rx="39.7935" ry="18"/>
<text text-anchor="middle" x="411.523" y="-230.3" font-family="Times,serif" font-size="14.00" fill="#2c94b3">AS7018</text>
</a>
</g>
</g>
<!-- AS3257&#45;&gt;AS7018 -->
<g id="edge8" class="edge"><title>AS3257&#45;&gt;AS7018</title>
<path fill="none" stroke="black" stroke-width="2" d="M324.367,-275.066C339.361,-267.919 358.182,-258.948 374.405,-251.215"/>
<polygon fill="black" stroke="black" stroke-width="2" points="376.087,-254.291 383.608,-246.829 373.075,-247.972 376.087,-254.291"/>
</g>
<!-- AS6762 -->
<g id="node10" class="node"><title>AS6762</title>
<g id="a_node10"><a xlink:href="/asn/6762" xlink:title="AS6762 ~ TELECOM ITALIA SPARKLE S.p.A. [IT]">
<ellipse fill="#ffffff" stroke="black" cx="411.523" cy="-450" rx="39.7935" ry="18"/>
<text text-anchor="middle" x="411.523" y="-446.3" font-family="Times,serif" font-size="14.00" fill="#2c94b3">AS6762</text>
</a>
</g>
</g>
<!-- AS3257&#45;&gt;AS6762 -->
<g id="edge9" class="edge"><title>AS3257&#45;&gt;AS6762</title>
<path fill="none" stroke="black" stroke-width="2" d="M322.161,-301.882C327.237,-305.611 332.155,-310.016 335.877,-315 366.148,-355.542 341.605,-382.458 371.877,-423 373.621,-425.336 375.628,-427.545 377.792,-429.617"/>
<polygon fill="black" stroke="black" stroke-width="2" points="375.67,-432.405 385.592,-436.118 380.151,-427.027 375.67,-432.405"/>
</g>
<!-- AS209 -->
<g id="node11" class="node"><title>AS209</title>
<g id="a_node11"><a xlink:href="/asn/209" xlink:title="AS209 ~ CenturyLink Communications, LLC [US]">
<ellipse fill="#ffffff" stroke="black" cx="411.523" cy="-288" rx="35.194" ry="18"/>
<text text-anchor="middle" x="411.523" y="-284.3" font-family="Times,serif" font-size="14.00" fill="#2c94b3">AS209</text>
</a>
</g>
</g>
<!-- AS3257&#45;&gt;AS209 -->
<g id="edge10" class="edge"><title>AS3257&#45;&gt;AS209</title>
<path fill="none" stroke="black" d="M335.902,-288C345.608,-288 356.098,-288 366.061,-288"/>
<polygon fill="black" stroke="black" points="366.198,-291.5 376.198,-288 366.198,-284.5 366.198,-291.5"/>
</g>
<!-- AS701 -->
<g id="node12" class="node"><title>AS701</title>
<g id="a_node12"><a xlink:href="/asn/701" xlink:title="AS701 ~ UUNET [US]">
<ellipse fill="#ffffff" stroke="black" cx="411.523" cy="-180" rx="35.194" ry="18"/>
<text text-anchor="middle" x="411.523" y="-176.3" font-family="Times,serif" font-size="14.00" fill="#2c94b3">AS701</text>
</a>
</g>
</g>
<!-- AS3257&#45;&gt;AS701 -->
<g id="edge11" class="edge"><title>AS3257&#45;&gt;AS701</title>
<path fill="none" stroke="black" d="M310.86,-271.183C325.143,-254.071 348.689,-227.255 371.877,-207 374.546,-204.668 377.419,-202.352 380.35,-200.114"/>
<polygon fill="black" stroke="black" points="382.627,-202.784 388.641,-194.061 378.5,-197.13 382.627,-202.784"/>
</g>
<!-- AS3320&#45;&gt;AS701 -->
<g id="edge12" class="edge"><title>AS3320&#45;&gt;AS701</title>
<path fill="none" stroke="black" d="M335.902,-180C345.608,-180 356.098,-180 366.061,-180"/>
<polygon fill="black" stroke="black" points="366.198,-183.5 376.198,-180 366.198,-176.5 366.198,-183.5"/>
</g>
<!-- AS1239 -->
<g id="node13" class="node"><title>AS1239</title>
<g id="a_node13"><a xlink:href="/asn/1239" xlink:title="AS1239 ~ Sprint [US]">
<ellipse fill="#ffffff" stroke="black" cx="411.523" cy="-126" rx="39.7935" ry="18"/>
<text text-anchor="middle" x="411.523" y="-122.3" font-family="Times,serif" font-size="14.00" fill="#2c94b3">AS1239</text>
</a>
</g>
</g>
<!-- AS3320&#45;&gt;AS1239 -->
<g id="edge13" class="edge"><title>AS3320&#45;&gt;AS1239</title>
<path fill="none" stroke="black" d="M324.367,-167.066C339.361,-159.919 358.182,-150.948 374.405,-143.215"/>
<polygon fill="black" stroke="black" points="376.087,-146.291 383.608,-138.829 373.075,-139.972 376.087,-146.291"/>
</g>
<!-- AS6461 -->
<g id="node14" class="node"><title>AS6461</title>
<g id="a_node14"><a xlink:href="/asn/6461" xlink:title="AS6461 ~ Zayo Bandwidth [US]">
<ellipse fill="#ffffff" stroke="black" cx="411.523" cy="-18" rx="39.7935" ry="18"/>
<text text-anchor="middle" x="411.523" y="-14.3" font-family="Times,serif" font-size="14.00" fill="#2c94b3">AS6461</text>
</a>
</g>
</g>
<!-- AS8218&#45;&gt;AS6461 -->
<g id="edge14" class="edge"><title>AS8218&#45;&gt;AS6461</title>
<path fill="none" stroke="black" stroke-width="2" d="M324.367,-59.0657C339.361,-51.9189 358.182,-42.9481 374.405,-35.2154"/>
<polygon fill="black" stroke="black" stroke-width="2" points="376.087,-38.291 383.608,-30.8288 373.075,-31.972 376.087,-38.291"/>
</g>
<!-- AS1299 -->
<g id="node15" class="node"><title>AS1299</title>
<g id="a_node15"><a xlink:href="/asn/1299" xlink:title="AS1299 ~ Telia Carrier [EU]">
<ellipse fill="#ffffff" stroke="black" cx="411.523" cy="-72" rx="39.7935" ry="18"/>
<text text-anchor="middle" x="411.523" y="-68.3" font-family="Times,serif" font-size="14.00" fill="#2c94b3">AS1299</text>
</a>
</g>
</g>
<!-- AS8218&#45;&gt;AS1299 -->
<g id="edge15" class="edge"><title>AS8218&#45;&gt;AS1299</title>
<path fill="none" stroke="black" d="M335.902,-72C344.105,-72 352.869,-72 361.401,-72"/>
<polygon fill="black" stroke="black" points="361.641,-75.5001 371.641,-72 361.641,-68.5001 361.641,-75.5001"/>
</g>
<!-- AS2914&#45;&gt;AS2497 -->
<g id="edge21" class="edge"><title>AS2914&#45;&gt;AS2497</title>
<path fill="none" stroke="black" d="M335.902,-396C344.105,-396 352.869,-396 361.401,-396"/>
<polygon fill="black" stroke="black" points="361.641,-399.5 371.641,-396 361.641,-392.5 361.641,-399.5"/>
</g>
<!-- AS2914&#45;&gt;AS3491 -->
<g id="edge20" class="edge"><title>AS2914&#45;&gt;AS3491</title>
<path fill="none" stroke="black" d="M324.367,-383.066C339.361,-375.919 358.182,-366.948 374.405,-359.215"/>
<polygon fill="black" stroke="black" points="376.087,-362.291 383.608,-354.829 373.075,-355.972 376.087,-362.291"/>
</g>
<!-- AS2914&#45;&gt;AS6762 -->
<g id="edge22" class="edge"><title>AS2914&#45;&gt;AS6762</title>
<path fill="none" stroke="black" d="M324.367,-408.934C339.361,-416.081 358.182,-425.052 374.405,-432.785"/>
<polygon fill="black" stroke="black" points="373.075,-436.028 383.608,-437.171 376.087,-429.709 373.075,-436.028"/>
</g>
<!-- AS1764&#45;&gt;AS1299 -->
<g id="edge23" class="edge"><title>AS1764&#45;&gt;AS1299</title>
<path fill="none" stroke="black" stroke-width="2" d="M324.367,-113.066C339.361,-105.919 358.182,-96.9481 374.405,-89.2154"/>
<polygon fill="black" stroke="black" stroke-width="2" points="376.087,-92.291 383.608,-84.8288 373.075,-85.972 376.087,-92.291"/>
</g>
<!-- AS174&#45;&gt;AS3491 -->
<g id="edge24" class="edge"><title>AS174&#45;&gt;AS3491</title>
<path fill="none" stroke="black" stroke-width="2" d="M331.529,-342C340.906,-342 351.257,-342 361.291,-342"/>
<polygon fill="black" stroke="black" stroke-width="2" points="361.58,-345.5 371.58,-342 361.58,-338.5 361.58,-345.5"/>
</g>
<!-- AS3356&#45;&gt;AS2497 -->
<g id="edge27" class="edge"><title>AS3356&#45;&gt;AS2497</title>
<path fill="none" stroke="black" stroke-width="2" d="M318.078,-461.778C333.012,-450.909 353.626,-435.975 371.877,-423 374.697,-420.995 377.64,-418.915 380.588,-416.841"/>
<polygon fill="black" stroke="black" stroke-width="2" points="382.634,-419.681 388.813,-411.074 378.616,-413.95 382.634,-419.681"/>
</g>
<!-- AS3356&#45;&gt;AS6762 -->
<g id="edge28" class="edge"><title>AS3356&#45;&gt;AS6762</title>
<path fill="none" stroke="black" d="M331.837,-468.752C342.709,-466.162 354.863,-463.265 366.305,-460.538"/>
<polygon fill="black" stroke="black" points="367.212,-463.92 376.128,-458.197 365.589,-457.111 367.212,-463.92"/>
</g>
<!-- AS3549 -->
<g id="node20" class="node"><title>AS3549</title>
<g id="a_node20"><a xlink:href="/asn/3549" xlink:title="AS3549 ~ Level 3 Parent, LLC [US]">
<ellipse fill="#ffffff" stroke="black" cx="411.523" cy="-504" rx="39.7935" ry="18"/>
<text text-anchor="middle" x="411.523" y="-500.3" font-family="Times,serif" font-size="14.00" fill="#2c94b3">AS3549</text>
</a>
</g>
</g>
<!-- AS3356&#45;&gt;AS3549 -->
<g id="edge25" class="edge"><title>AS3356&#45;&gt;AS3549</title>
<path fill="none" stroke="black" stroke-width="2" d="M331.837,-485.248C342.709,-487.838 354.863,-490.735 366.305,-493.462"/>
<polygon fill="black" stroke="black" stroke-width="2" points="365.589,-496.889 376.128,-495.803 367.212,-490.08 365.589,-496.889"/>
</g>
<!-- AS6453 -->
<g id="node21" class="node"><title>AS6453</title>
<g id="a_node21"><a xlink:href="/asn/6453" xlink:title="AS6453 ~ TATA COMMUNICATIONS (AMERICA) INC [US]">
<ellipse fill="#ffffff" stroke="black" cx="411.523" cy="-612" rx="39.7935" ry="18"/>
<text text-anchor="middle" x="411.523" y="-608.3" font-family="Times,serif" font-size="14.00" fill="#2c94b3">AS6453</text>
</a>
</g>
</g>
<!-- AS3356&#45;&gt;AS6453 -->
<g id="edge26" class="edge"><title>AS3356&#45;&gt;AS6453</title>
<path fill="none" stroke="black" stroke-width="2" d="M306.69,-494.49C319.472,-517.096 343.904,-556.886 371.877,-585 373.987,-587.121 376.283,-589.188 378.669,-591.171"/>
<polygon fill="black" stroke="black" stroke-width="2" points="376.921,-594.242 386.984,-597.556 381.184,-588.69 376.921,-594.242"/>
</g>
<!-- AS1273 -->
<g id="node22" class="node"><title>AS1273</title>
<g id="a_node22"><a xlink:href="/asn/1273" xlink:title="AS1273 ~ Vodafone Group PLC [EU]">
<ellipse fill="#ffffff" stroke="black" cx="411.523" cy="-558" rx="39.7935" ry="18"/>
<text text-anchor="middle" x="411.523" y="-554.3" font-family="Times,serif" font-size="14.00" fill="#2c94b3">AS1273</text>
</a>
</g>
</g>
<!-- AS3356&#45;&gt;AS1273 -->
<g id="edge29" class="edge"><title>AS3356&#45;&gt;AS1273</title>
<path fill="none" stroke="black" d="M318.078,-492.222C333.012,-503.091 353.626,-518.025 371.877,-531 374.697,-533.005 377.64,-535.085 380.588,-537.159"/>
<polygon fill="black" stroke="black" points="378.616,-540.05 388.813,-542.926 382.634,-534.319 378.616,-540.05"/>
</g>
</g>
</svg>
