<?xml version="1.0" encoding="UTF-8" standalone="no"?>
<!DOCTYPE svg PUBLIC "-//W3C//DTD SVG 1.1//EN"
 "http://www.w3.org/Graphics/SVG/1.1/DTD/svg11.dtd">
<!-- Generated by graphviz version 2.38.0 (20140413.2041)
 -->
<!-- Title: AS25126 Combined Upstream Graph Pages: 1 -->
<svg width="682pt" height="665pt"
 viewBox="0.00 0.00 681.96 665.00" xmlns="http://www.w3.org/2000/svg" xmlns:xlink="http://www.w3.org/1999/xlink">
<g id="graph0" class="graph" transform="scale(1 1) rotate(0) translate(4 661)">
<title>AS25126 Combined Upstream Graph</title>
<polygon fill="white" stroke="none" points="-4,4 -4,-661 677.956,-661 677.956,4 -4,4"/>
<!-- AS25126 -->
<g id="node1" class="node"><title>AS25126</title>
<g id="a_node1"><a xlink:href="/asn/25126" xlink:title="AS25126 ~ TIWAG&#45;Tiroler Wasserkraft AG [AT]">
<ellipse fill="#ffffff" stroke="black" cx="44.1961" cy="-301" rx="44.393" ry="18"/>
<text text-anchor="middle" x="44.1961" y="-297.3" font-family="Times,serif" font-size="14.00" fill="#880000">AS25126</text>
</a>
</g>
</g>
<!-- AS6830 -->
<g id="node2" class="node"><title>AS6830</title>
<g id="a_node2"><a xlink:href="/asn/6830" xlink:title="AS6830 ~ LGI&#45;UPC [AT]">
<ellipse fill="#ffffff" stroke="black" cx="164.039" cy="-369" rx="39.7935" ry="18"/>
<text text-anchor="middle" x="164.039" y="-365.3" font-family="Times,serif" font-size="14.00" fill="#2c94b3">AS6830</text>
</a>
</g>
</g>
<!-- AS25126&#45;&gt;AS6830 -->
<g id="edge1" class="edge"><title>AS25126&#45;&gt;AS6830</title>
<path fill="none" stroke="black" stroke-width="4.5" d="M70.4763,-315.588C87.7956,-325.582 110.947,-338.941 129.763,-349.799"/>
<polygon fill="black" stroke="black" stroke-width="4.5" points="127.978,-353.314 138.607,-354.902 131.914,-346.493 127.978,-353.314"/>
</g>
<!-- AS8437 -->
<g id="node3" class="node"><title>AS8437</title>
<g id="a_node3"><a xlink:href="/asn/8437" xlink:title="AS8437 ~ Hutchison Drei Austria GmbH [AT]">
<ellipse fill="#ffffff" stroke="black" cx="164.039" cy="-166" rx="39.7935" ry="18"/>
<text text-anchor="middle" x="164.039" y="-162.3" font-family="Times,serif" font-size="14.00" fill="#2c94b3">AS8437</text>
</a>
</g>
</g>
<!-- AS25126&#45;&gt;AS8437 -->
<g id="edge2" class="edge"><title>AS25126&#45;&gt;AS8437</title>
<path fill="none" stroke="black" stroke-width="3.97059" d="M60.1209,-283.902C80.6634,-260.369 117.782,-217.845 141.379,-190.813"/>
<polygon fill="black" stroke="black" stroke-width="3.97059" points="144.296,-192.794 148.235,-182.959 139.022,-188.191 144.296,-192.794"/>
</g>
<!-- AS3491 -->
<g id="node4" class="node"><title>AS3491</title>
<g id="a_node4"><a xlink:href="/asn/3491" xlink:title="AS3491 ~ PCCW Global, Inc. [US]">
<ellipse fill="#ffffff" stroke="black" cx="283.881" cy="-639" rx="39.7935" ry="18"/>
<text text-anchor="middle" x="283.881" y="-635.3" font-family="Times,serif" font-size="14.00" fill="#2c94b3">AS3491</text>
</a>
</g>
</g>
<!-- AS6830&#45;&gt;AS3491 -->
<g id="edge3" class="edge"><title>AS6830&#45;&gt;AS3491</title>
<path fill="none" stroke="black" stroke-width="2" d="M166.323,-387.117C170.221,-430.332 185.238,-541.131 239.685,-612 241.975,-614.981 244.695,-617.716 247.639,-620.205"/>
<polygon fill="black" stroke="black" stroke-width="2" points="245.686,-623.113 255.816,-626.218 249.833,-617.473 245.686,-623.113"/>
</g>
<!-- AS2497 -->
<g id="node5" class="node"><title>AS2497</title>
<g id="a_node5"><a xlink:href="/asn/2497" xlink:title="AS2497 ~ Internet Initiative Japan Inc. [JP]">
<ellipse fill="#ffffff" stroke="black" cx="283.881" cy="-585" rx="39.7935" ry="18"/>
<text text-anchor="middle" x="283.881" y="-581.3" font-family="Times,serif" font-size="14.00" fill="#2c94b3">AS2497</text>
</a>
</g>
</g>
<!-- AS6830&#45;&gt;AS2497 -->
<g id="edge4" class="edge"><title>AS6830&#45;&gt;AS2497</title>
<path fill="none" stroke="black" stroke-width="2" d="M168.237,-387.073C175.401,-423.141 195.675,-505.125 239.685,-558 242.09,-560.889 244.886,-563.563 247.879,-566.013"/>
<polygon fill="black" stroke="black" stroke-width="2" points="245.967,-568.95 256.122,-571.973 250.069,-563.277 245.967,-568.95"/>
</g>
<!-- AS7018 -->
<g id="node6" class="node"><title>AS7018</title>
<g id="a_node6"><a xlink:href="/asn/7018" xlink:title="AS7018 ~ AT&amp;T Services, Inc. [US]">
<ellipse fill="#ffffff" stroke="black" cx="283.881" cy="-531" rx="39.7935" ry="18"/>
<text text-anchor="middle" x="283.881" y="-527.3" font-family="Times,serif" font-size="14.00" fill="#2c94b3">AS7018</text>
</a>
</g>
</g>
<!-- AS6830&#45;&gt;AS7018 -->
<g id="edge5" class="edge"><title>AS6830&#45;&gt;AS7018</title>
<path fill="none" stroke="black" stroke-width="2" d="M171.562,-386.994C182.312,-414.728 205.969,-468.429 239.685,-504 242.271,-506.728 245.188,-509.294 248.257,-511.677"/>
<polygon fill="black" stroke="black" stroke-width="2" points="246.411,-514.658 256.605,-517.543 250.435,-508.93 246.411,-514.658"/>
</g>
<!-- AS3320 -->
<g id="node7" class="node"><title>AS3320</title>
<g id="a_node7"><a xlink:href="/asn/3320" xlink:title="AS3320 ~ DTAG [DE]">
<ellipse fill="#ffffff" stroke="black" cx="283.881" cy="-477" rx="39.7935" ry="18"/>
<text text-anchor="middle" x="283.881" y="-473.3" font-family="Times,serif" font-size="14.00" fill="#2c94b3">AS3320</text>
</a>
</g>
</g>
<!-- AS6830&#45;&gt;AS3320 -->
<g id="edge6" class="edge"><title>AS6830&#45;&gt;AS3320</title>
<path fill="none" stroke="black" d="M178.458,-386.065C192.572,-403.375 215.987,-430.345 239.685,-450 242.901,-452.668 246.402,-455.27 249.972,-457.741"/>
<polygon fill="black" stroke="black" points="248.05,-460.666 258.329,-463.236 251.896,-454.817 248.05,-460.666"/>
</g>
<!-- AS1239 -->
<g id="node8" class="node"><title>AS1239</title>
<g id="a_node8"><a xlink:href="/asn/1239" xlink:title="AS1239 ~ Sprint [US]">
<ellipse fill="#ffffff" stroke="black" cx="283.881" cy="-423" rx="39.7935" ry="18"/>
<text text-anchor="middle" x="283.881" y="-419.3" font-family="Times,serif" font-size="14.00" fill="#2c94b3">AS1239</text>
</a>
</g>
</g>
<!-- AS6830&#45;&gt;AS1239 -->
<g id="edge7" class="edge"><title>AS6830&#45;&gt;AS1239</title>
<path fill="none" stroke="black" d="M192.667,-381.661C208.624,-388.973 228.895,-398.261 246.178,-406.181"/>
<polygon fill="black" stroke="black" points="244.876,-409.435 255.425,-410.419 247.793,-403.071 244.876,-409.435"/>
</g>
<!-- AS3257 -->
<g id="node9" class="node"><title>AS3257</title>
<g id="a_node9"><a xlink:href="/asn/3257" xlink:title="AS3257 ~ GTT [DE]">
<ellipse fill="#ffffff" stroke="black" cx="283.881" cy="-369" rx="39.7935" ry="18"/>
<text text-anchor="middle" x="283.881" y="-365.3" font-family="Times,serif" font-size="14.00" fill="#2c94b3">AS3257</text>
</a>
</g>
</g>
<!-- AS6830&#45;&gt;AS3257 -->
<g id="edge8" class="edge"><title>AS6830&#45;&gt;AS3257</title>
<path fill="none" stroke="black" stroke-width="2" d="M203.951,-369C213.505,-369 223.854,-369 233.817,-369"/>
<polygon fill="black" stroke="black" stroke-width="2" points="234.009,-372.5 244.009,-369 234.009,-365.5 234.009,-372.5"/>
</g>
<!-- AS12956 -->
<g id="node10" class="node"><title>AS12956</title>
<g id="a_node10"><a xlink:href="/asn/12956" xlink:title="AS12956 ~ TELXIUS [ES]">
<ellipse fill="#ffffff" stroke="black" cx="283.881" cy="-315" rx="44.393" ry="18"/>
<text text-anchor="middle" x="283.881" y="-311.3" font-family="Times,serif" font-size="14.00" fill="#2c94b3">AS12956</text>
</a>
</g>
</g>
<!-- AS6830&#45;&gt;AS12956 -->
<g id="edge9" class="edge"><title>AS6830&#45;&gt;AS12956</title>
<path fill="none" stroke="black" stroke-width="2" d="M192.667,-356.339C208.165,-349.238 227.732,-340.272 244.678,-332.506"/>
<polygon fill="black" stroke="black" stroke-width="2" points="246.148,-335.683 253.781,-328.335 243.232,-329.319 246.148,-335.683"/>
</g>
<!-- AS6453 -->
<g id="node11" class="node"><title>AS6453</title>
<g id="a_node11"><a xlink:href="/asn/6453" xlink:title="AS6453 ~ TATA COMMUNICATIONS (AMERICA) INC [US]">
<ellipse fill="#ffffff" stroke="black" cx="283.881" cy="-261" rx="39.7935" ry="18"/>
<text text-anchor="middle" x="283.881" y="-257.3" font-family="Times,serif" font-size="14.00" fill="#2c94b3">AS6453</text>
</a>
</g>
</g>
<!-- AS6830&#45;&gt;AS6453 -->
<g id="edge10" class="edge"><title>AS6830&#45;&gt;AS6453</title>
<path fill="none" stroke="black" stroke-width="2" d="M178.458,-351.935C192.572,-334.625 215.987,-307.655 239.685,-288 242.901,-285.332 246.402,-282.73 249.972,-280.259"/>
<polygon fill="black" stroke="black" stroke-width="2" points="251.896,-283.183 258.329,-274.764 248.05,-277.334 251.896,-283.183"/>
</g>
<!-- AS701 -->
<g id="node12" class="node"><title>AS701</title>
<g id="a_node12"><a xlink:href="/asn/701" xlink:title="AS701 ~ UUNET [US]">
<ellipse fill="#ffffff" stroke="black" cx="283.881" cy="-207" rx="35.194" ry="18"/>
<text text-anchor="middle" x="283.881" y="-203.3" font-family="Times,serif" font-size="14.00" fill="#2c94b3">AS701</text>
</a>
</g>
</g>
<!-- AS6830&#45;&gt;AS701 -->
<g id="edge11" class="edge"><title>AS6830&#45;&gt;AS701</title>
<path fill="none" stroke="black" stroke-width="2" d="M171.562,-351.006C182.312,-323.272 205.969,-269.571 239.685,-234 242.628,-230.895 246.001,-227.999 249.537,-225.345"/>
<polygon fill="black" stroke="black" stroke-width="2" points="251.666,-228.129 257.956,-219.603 247.722,-222.346 251.666,-228.129"/>
</g>
<!-- AS1273 -->
<g id="node13" class="node"><title>AS1273</title>
<g id="a_node13"><a xlink:href="/asn/1273" xlink:title="AS1273 ~ Vodafone Group PLC [EU]">
<ellipse fill="#ffffff" stroke="black" cx="283.881" cy="-153" rx="39.7935" ry="18"/>
<text text-anchor="middle" x="283.881" y="-149.3" font-family="Times,serif" font-size="14.00" fill="#2c94b3">AS1273</text>
</a>
</g>
</g>
<!-- AS6830&#45;&gt;AS1273 -->
<g id="edge12" class="edge"><title>AS6830&#45;&gt;AS1273</title>
<path fill="none" stroke="black" d="M168.237,-350.927C175.401,-314.859 195.675,-232.875 239.685,-180 242.09,-177.111 244.886,-174.437 247.879,-171.987"/>
<polygon fill="black" stroke="black" points="250.069,-174.723 256.122,-166.027 245.967,-169.05 250.069,-174.723"/>
</g>
<!-- AS25255 -->
<g id="node14" class="node"><title>AS25255</title>
<g id="a_node14"><a xlink:href="/asn/25255" xlink:title="AS25255 ~ ==&gt; TELE2 AUSTRIA &lt;== [AT]">
<ellipse fill="#ffffff" stroke="black" cx="283.881" cy="-99" rx="44.393" ry="18"/>
<text text-anchor="middle" x="283.881" y="-95.3" font-family="Times,serif" font-size="14.00" fill="#2c94b3">AS25255</text>
</a>
</g>
</g>
<!-- AS8437&#45;&gt;AS25255 -->
<g id="edge13" class="edge"><title>AS8437&#45;&gt;AS25255</title>
<path fill="none" stroke="black" stroke-width="4.5" d="M189.456,-152.118C206.489,-142.433 229.461,-129.372 248.364,-118.625"/>
<polygon fill="black" stroke="black" stroke-width="4.5" points="250.526,-121.925 257.273,-113.56 246.633,-115.08 250.526,-121.925"/>
</g>
<!-- AS1764 -->
<g id="node15" class="node"><title>AS1764</title>
<g id="a_node15"><a xlink:href="/asn/1764" xlink:title="AS1764 ~ NEXTLAYER&#45;AS [AT]">
<ellipse fill="#ffffff" stroke="black" cx="403.724" cy="-126" rx="39.7935" ry="18"/>
<text text-anchor="middle" x="403.724" y="-122.3" font-family="Times,serif" font-size="14.00" fill="#2c94b3">AS1764</text>
</a>
</g>
</g>
<!-- AS25255&#45;&gt;AS1764 -->
<g id="edge14" class="edge"><title>AS25255&#45;&gt;AS1764</title>
<path fill="none" stroke="black" stroke-width="4.5" d="M322.816,-107.692C334.057,-110.267 346.469,-113.111 358.092,-115.774"/>
<polygon fill="black" stroke="black" stroke-width="4.5" points="357.427,-119.661 368.054,-118.057 359.186,-111.985 357.427,-119.661"/>
</g>
<!-- AS6762 -->
<g id="node16" class="node"><title>AS6762</title>
<g id="a_node16"><a xlink:href="/asn/6762" xlink:title="AS6762 ~ TELECOM ITALIA SPARKLE S.p.A. [IT]">
<ellipse fill="#ffffff" stroke="black" cx="403.724" cy="-72" rx="39.7935" ry="18"/>
<text text-anchor="middle" x="403.724" y="-68.3" font-family="Times,serif" font-size="14.00" fill="#2c94b3">AS6762</text>
</a>
</g>
</g>
<!-- AS25255&#45;&gt;AS6762 -->
<g id="edge15" class="edge"><title>AS25255&#45;&gt;AS6762</title>
<path fill="none" stroke="black" stroke-width="0.692308" d="M322.816,-90.3084C334.057,-87.733 346.469,-84.889 358.092,-82.2259"/>
<polygon fill="black" stroke="black" stroke-width="0.692308" points="359.088,-85.5885 368.054,-79.9435 357.525,-78.7653 359.088,-85.5885"/>
</g>
<!-- AS8218 -->
<g id="node17" class="node"><title>AS8218</title>
<g id="a_node17"><a xlink:href="/asn/8218" xlink:title="AS8218 ~ legacy Neotelecoms [FR]">
<ellipse fill="#ffffff" stroke="black" cx="519.017" cy="-234" rx="39.7935" ry="18"/>
<text text-anchor="middle" x="519.017" y="-230.3" font-family="Times,serif" font-size="14.00" fill="#2c94b3">AS8218</text>
</a>
</g>
</g>
<!-- AS1764&#45;&gt;AS8218 -->
<g id="edge16" class="edge"><title>AS1764&#45;&gt;AS8218</title>
<path fill="none" stroke="black" stroke-width="2" d="M418.354,-142.817C432.636,-159.929 456.183,-186.745 479.37,-207 481.836,-209.154 484.475,-211.294 487.172,-213.372"/>
<polygon fill="black" stroke="black" stroke-width="2" points="485.197,-216.264 495.326,-219.37 489.345,-210.625 485.197,-216.264"/>
</g>
<!-- AS174 -->
<g id="node18" class="node"><title>AS174</title>
<g id="a_node18"><a xlink:href="/asn/174" xlink:title="AS174 ~ Cogent Communications [US]">
<ellipse fill="#ffffff" stroke="black" cx="519.017" cy="-180" rx="35.194" ry="18"/>
<text text-anchor="middle" x="519.017" y="-176.3" font-family="Times,serif" font-size="14.00" fill="#2c94b3">AS174</text>
</a>
</g>
</g>
<!-- AS1764&#45;&gt;AS174 -->
<g id="edge17" class="edge"><title>AS1764&#45;&gt;AS174</title>
<path fill="none" stroke="black" stroke-width="3" d="M431.86,-138.934C447.292,-146.29 466.778,-155.577 483.313,-163.459"/>
<polygon fill="black" stroke="black" stroke-width="3" points="482.121,-166.768 492.654,-167.911 485.133,-160.449 482.121,-166.768"/>
</g>
<!-- AS1299 -->
<g id="node19" class="node"><title>AS1299</title>
<g id="a_node19"><a xlink:href="/asn/1299" xlink:title="AS1299 ~ Telia Carrier [EU]">
<ellipse fill="#ffffff" stroke="black" cx="519.017" cy="-126" rx="39.7935" ry="18"/>
<text text-anchor="middle" x="519.017" y="-122.3" font-family="Times,serif" font-size="14.00" fill="#2c94b3">AS1299</text>
</a>
</g>
</g>
<!-- AS1764&#45;&gt;AS1299 -->
<g id="edge18" class="edge"><title>AS1764&#45;&gt;AS1299</title>
<path fill="none" stroke="black" stroke-width="3" d="M443.396,-126C451.599,-126 460.363,-126 468.895,-126"/>
<polygon fill="black" stroke="black" stroke-width="3" points="469.134,-129.5 479.134,-126 469.134,-122.5 469.134,-129.5"/>
</g>
<!-- AS3356 -->
<g id="node20" class="node"><title>AS3356</title>
<g id="a_node20"><a xlink:href="/asn/3356" xlink:title="AS3356 ~ Level 3 Parent, LLC [US]">
<ellipse fill="#ffffff" stroke="black" cx="519.017" cy="-72" rx="39.7935" ry="18"/>
<text text-anchor="middle" x="519.017" y="-68.3" font-family="Times,serif" font-size="14.00" fill="#2c94b3">AS3356</text>
</a>
</g>
</g>
<!-- AS1764&#45;&gt;AS3356 -->
<g id="edge19" class="edge"><title>AS1764&#45;&gt;AS3356</title>
<path fill="none" stroke="black" stroke-width="3" d="M431.86,-113.066C446.854,-105.919 465.675,-96.9481 481.898,-89.2154"/>
<polygon fill="black" stroke="black" stroke-width="3" points="483.581,-92.291 491.102,-84.8288 480.569,-85.972 483.581,-92.291"/>
</g>
<!-- AS2914 -->
<g id="node21" class="node"><title>AS2914</title>
<g id="a_node21"><a xlink:href="/asn/2914" xlink:title="AS2914 ~ NTT America, Inc. [US]">
<ellipse fill="#ffffff" stroke="black" cx="519.017" cy="-18" rx="39.7935" ry="18"/>
<text text-anchor="middle" x="519.017" y="-14.3" font-family="Times,serif" font-size="14.00" fill="#2c94b3">AS2914</text>
</a>
</g>
</g>
<!-- AS1764&#45;&gt;AS2914 -->
<g id="edge20" class="edge"><title>AS1764&#45;&gt;AS2914</title>
<path fill="none" stroke="black" stroke-width="2" d="M428.318,-111.611C433.574,-107.852 438.906,-103.563 443.37,-99 463.543,-78.3827 459.198,-65.6173 479.37,-45 481.463,-42.861 483.746,-40.7823 486.123,-38.7902"/>
<polygon fill="black" stroke="black" stroke-width="2" points="488.641,-41.268 494.423,-32.3895 484.367,-35.725 488.641,-41.268"/>
</g>
<!-- AS6461 -->
<g id="node22" class="node"><title>AS6461</title>
<g id="a_node22"><a xlink:href="/asn/6461" xlink:title="AS6461 ~ Zayo Bandwidth [US]">
<ellipse fill="#ffffff" stroke="black" cx="634.31" cy="-234" rx="39.7935" ry="18"/>
<text text-anchor="middle" x="634.31" y="-230.3" font-family="Times,serif" font-size="14.00" fill="#2c94b3">AS6461</text>
</a>
</g>
</g>
<!-- AS8218&#45;&gt;AS6461 -->
<g id="edge21" class="edge"><title>AS8218&#45;&gt;AS6461</title>
<path fill="none" stroke="black" stroke-width="2" d="M558.689,-234C566.892,-234 575.656,-234 584.188,-234"/>
<polygon fill="black" stroke="black" stroke-width="2" points="584.427,-237.5 594.427,-234 584.427,-230.5 584.427,-237.5"/>
</g>
<!-- AS209 -->
<g id="node24" class="node"><title>AS209</title>
<g id="a_node24"><a xlink:href="/asn/209" xlink:title="AS209 ~ CenturyLink Communications, LLC [US]">
<ellipse fill="#ffffff" stroke="black" cx="634.31" cy="-153" rx="35.194" ry="18"/>
<text text-anchor="middle" x="634.31" y="-149.3" font-family="Times,serif" font-size="14.00" fill="#2c94b3">AS209</text>
</a>
</g>
</g>
<!-- AS174&#45;&gt;AS209 -->
<g id="edge23" class="edge"><title>AS174&#45;&gt;AS209</title>
<path fill="none" stroke="black" d="M551.274,-172.551C563.905,-169.541 578.659,-166.024 592.145,-162.81"/>
<polygon fill="black" stroke="black" points="593.238,-166.148 602.154,-160.425 591.615,-159.339 593.238,-166.148"/>
</g>
<!-- AS1299&#45;&gt;AS209 -->
<g id="edge24" class="edge"><title>AS1299&#45;&gt;AS209</title>
<path fill="none" stroke="black" d="M554.624,-134.248C566.418,-137.058 579.723,-140.229 591.991,-143.153"/>
<polygon fill="black" stroke="black" points="591.457,-146.624 601.996,-145.537 593.08,-139.814 591.457,-146.624"/>
</g>
<!-- AS3549 -->
<g id="node23" class="node"><title>AS3549</title>
<g id="a_node23"><a xlink:href="/asn/3549" xlink:title="AS3549 ~ Level 3 Parent, LLC [US]">
<ellipse fill="#ffffff" stroke="black" cx="634.31" cy="-72" rx="39.7935" ry="18"/>
<text text-anchor="middle" x="634.31" y="-68.3" font-family="Times,serif" font-size="14.00" fill="#2c94b3">AS3549</text>
</a>
</g>
</g>
<!-- AS3356&#45;&gt;AS3549 -->
<g id="edge22" class="edge"><title>AS3356&#45;&gt;AS3549</title>
<path fill="none" stroke="black" d="M558.689,-72C566.892,-72 575.656,-72 584.188,-72"/>
<polygon fill="black" stroke="black" points="584.427,-75.5001 594.427,-72 584.427,-68.5001 584.427,-75.5001"/>
</g>
</g>
</svg>
