<?xml version="1.0" encoding="UTF-8" standalone="no"?>
<!DOCTYPE svg PUBLIC "-//W3C//DTD SVG 1.1//EN"
 "http://www.w3.org/Graphics/SVG/1.1/DTD/svg11.dtd">
<!-- Generated by graphviz version 2.38.0 (20140413.2041)
 -->
<!-- Title: AS201240 IPv6 Upstream Graph Pages: 1 -->
<svg width="593pt" height="584pt"
 viewBox="0.00 0.00 592.66 584.00" xmlns="http://www.w3.org/2000/svg" xmlns:xlink="http://www.w3.org/1999/xlink">
<g id="graph0" class="graph" transform="scale(1 1) rotate(0) translate(4 580)">
<title>AS201240 IPv6 Upstream Graph</title>
<polygon fill="white" stroke="none" points="-4,4 -4,-580 588.661,-580 588.661,4 -4,4"/>
<!-- AS201240 -->
<g id="node1" class="node"><title>AS201240</title>
<g id="a_node1"><a xlink:href="/asn/201240" xlink:title="AS201240 ~ OpenIoT [AT]">
<ellipse fill="#ffffff" stroke="black" cx="48.0957" cy="-288" rx="48.1917" ry="18"/>
<text text-anchor="middle" x="48.0957" y="-284.3" font-family="Times,serif" font-size="14.00" fill="#880000">AS201240</text>
</a>
</g>
</g>
<!-- AS47692 -->
<g id="node2" class="node"><title>AS47692</title>
<g id="a_node2"><a xlink:href="/asn/47692" xlink:title="AS47692 ~ Nessus GmbH [AT]">
<ellipse fill="#ffffff" stroke="black" cx="176.388" cy="-288" rx="44.393" ry="18"/>
<text text-anchor="middle" x="176.388" y="-284.3" font-family="Times,serif" font-size="14.00" fill="#2c94b3">AS47692</text>
</a>
</g>
</g>
<!-- AS201240&#45;&gt;AS47692 -->
<g id="edge1" class="edge"><title>AS201240&#45;&gt;AS47692</title>
<path fill="none" stroke="black" stroke-width="4.5" d="M96.4815,-288C104.742,-288 113.386,-288 121.799,-288"/>
<polygon fill="black" stroke="black" stroke-width="4.5" points="121.904,-291.938 131.904,-288 121.904,-284.063 121.904,-291.938"/>
</g>
<!-- AS33891 -->
<g id="node3" class="node"><title>AS33891</title>
<g id="a_node3"><a xlink:href="/asn/33891" xlink:title="AS33891 ~ CORE&#45;BACKBONE GMBH GLOBAL NETWORK [DE]">
<ellipse fill="#ffffff" stroke="black" cx="300.78" cy="-288" rx="44.393" ry="18"/>
<text text-anchor="middle" x="300.78" y="-284.3" font-family="Times,serif" font-size="14.00" fill="#2c94b3">AS33891</text>
</a>
</g>
</g>
<!-- AS47692&#45;&gt;AS33891 -->
<g id="edge2" class="edge"><title>AS47692&#45;&gt;AS33891</title>
<path fill="none" stroke="black" stroke-width="4.5" d="M220.883,-288C229.089,-288 237.761,-288 246.233,-288"/>
<polygon fill="black" stroke="black" stroke-width="4.5" points="246.424,-291.938 256.424,-288 246.424,-284.063 246.424,-291.938"/>
</g>
<!-- AS1299 -->
<g id="node4" class="node"><title>AS1299</title>
<g id="a_node4"><a xlink:href="/asn/1299" xlink:title="AS1299 ~ Telia Carrier [EU]">
<ellipse fill="#ffffff" stroke="black" cx="420.622" cy="-423" rx="39.7935" ry="18"/>
<text text-anchor="middle" x="420.622" y="-419.3" font-family="Times,serif" font-size="14.00" fill="#2c94b3">AS1299</text>
</a>
</g>
</g>
<!-- AS33891&#45;&gt;AS1299 -->
<g id="edge3" class="edge"><title>AS33891&#45;&gt;AS1299</title>
<path fill="none" stroke="black" stroke-width="2.45455" d="M316.705,-305.098C337.247,-328.631 374.366,-371.155 397.963,-398.187"/>
<polygon fill="black" stroke="black" stroke-width="2.45455" points="395.606,-400.809 404.819,-406.041 400.879,-396.206 395.606,-400.809"/>
</g>
<!-- AS3356 -->
<g id="node5" class="node"><title>AS3356</title>
<g id="a_node5"><a xlink:href="/asn/3356" xlink:title="AS3356 ~ Level 3 Parent, LLC [US]">
<ellipse fill="#ffffff" stroke="black" cx="420.622" cy="-288" rx="39.7935" ry="18"/>
<text text-anchor="middle" x="420.622" y="-284.3" font-family="Times,serif" font-size="14.00" fill="#2c94b3">AS3356</text>
</a>
</g>
</g>
<!-- AS33891&#45;&gt;AS3356 -->
<g id="edge4" class="edge"><title>AS33891&#45;&gt;AS3356</title>
<path fill="none" stroke="black" stroke-width="4.5" d="M344.991,-288C353.303,-288 362.066,-288 370.548,-288"/>
<polygon fill="black" stroke="black" stroke-width="4.5" points="370.707,-291.938 380.707,-288 370.707,-284.063 370.707,-291.938"/>
</g>
<!-- AS1273 -->
<g id="node6" class="node"><title>AS1273</title>
<g id="a_node6"><a xlink:href="/asn/1273" xlink:title="AS1273 ~ Vodafone Group PLC [EU]">
<ellipse fill="#ffffff" stroke="black" cx="420.622" cy="-234" rx="39.7935" ry="18"/>
<text text-anchor="middle" x="420.622" y="-230.3" font-family="Times,serif" font-size="14.00" fill="#2c94b3">AS1273</text>
</a>
</g>
</g>
<!-- AS33891&#45;&gt;AS1273 -->
<g id="edge5" class="edge"><title>AS33891&#45;&gt;AS1273</title>
<path fill="none" stroke="black" stroke-width="0.409091" d="M330.909,-274.652C346.521,-267.498 365.918,-258.609 382.59,-250.97"/>
<polygon fill="black" stroke="black" stroke-width="0.409091" points="384.409,-253.986 392.042,-246.638 381.493,-247.622 384.409,-253.986"/>
</g>
<!-- AS174 -->
<g id="node7" class="node"><title>AS174</title>
<g id="a_node7"><a xlink:href="/asn/174" xlink:title="AS174 ~ Cogent Communications [US]">
<ellipse fill="#ffffff" stroke="black" cx="540.465" cy="-342" rx="35.194" ry="18"/>
<text text-anchor="middle" x="540.465" y="-338.3" font-family="Times,serif" font-size="14.00" fill="#2c94b3">AS174</text>
</a>
</g>
</g>
<!-- AS1299&#45;&gt;AS174 -->
<g id="edge6" class="edge"><title>AS1299&#45;&gt;AS174</title>
<path fill="none" stroke="black" d="M441.953,-407.723C456.815,-396.696 477.559,-381.593 496.269,-369 500.086,-366.431 504.136,-363.79 508.166,-361.214"/>
<polygon fill="black" stroke="black" points="510.271,-364.025 516.86,-355.729 506.535,-358.105 510.271,-364.025"/>
</g>
<!-- AS3257 -->
<g id="node8" class="node"><title>AS3257</title>
<g id="a_node8"><a xlink:href="/asn/3257" xlink:title="AS3257 ~ GTT [DE]">
<ellipse fill="#ffffff" stroke="black" cx="540.465" cy="-504" rx="39.7935" ry="18"/>
<text text-anchor="middle" x="540.465" y="-500.3" font-family="Times,serif" font-size="14.00" fill="#2c94b3">AS3257</text>
</a>
</g>
</g>
<!-- AS1299&#45;&gt;AS3257 -->
<g id="edge7" class="edge"><title>AS1299&#45;&gt;AS3257</title>
<path fill="none" stroke="black" d="M441.953,-438.277C456.815,-449.304 477.559,-464.407 496.269,-477 499.818,-479.389 503.568,-481.839 507.317,-484.242"/>
<polygon fill="black" stroke="black" points="505.643,-487.325 515.965,-489.712 509.385,-481.409 505.643,-487.325"/>
</g>
<!-- AS2914 -->
<g id="node9" class="node"><title>AS2914</title>
<g id="a_node9"><a xlink:href="/asn/2914" xlink:title="AS2914 ~ NTT America, Inc. [US]">
<ellipse fill="#ffffff" stroke="black" cx="540.465" cy="-450" rx="39.7935" ry="18"/>
<text text-anchor="middle" x="540.465" y="-446.3" font-family="Times,serif" font-size="14.00" fill="#2c94b3">AS2914</text>
</a>
</g>
</g>
<!-- AS1299&#45;&gt;AS2914 -->
<g id="edge8" class="edge"><title>AS1299&#45;&gt;AS2914</title>
<path fill="none" stroke="black" d="M456.342,-430.955C468.341,-433.704 481.962,-436.825 494.655,-439.733"/>
<polygon fill="black" stroke="black" points="494.057,-443.187 504.586,-442.009 495.621,-436.364 494.057,-443.187"/>
</g>
<!-- AS7018 -->
<g id="node10" class="node"><title>AS7018</title>
<g id="a_node10"><a xlink:href="/asn/7018" xlink:title="AS7018 ~ AT&amp;T Services, Inc. [US]">
<ellipse fill="#ffffff" stroke="black" cx="540.465" cy="-558" rx="39.7935" ry="18"/>
<text text-anchor="middle" x="540.465" y="-554.3" font-family="Times,serif" font-size="14.00" fill="#2c94b3">AS7018</text>
</a>
</g>
</g>
<!-- AS1299&#45;&gt;AS7018 -->
<g id="edge9" class="edge"><title>AS1299&#45;&gt;AS7018</title>
<path fill="none" stroke="black" d="M430.864,-440.713C443.409,-463.561 467.586,-503.611 496.269,-531 499.137,-533.739 502.326,-536.347 505.635,-538.785"/>
<polygon fill="black" stroke="black" points="503.758,-541.742 513.994,-544.477 507.698,-535.956 503.758,-541.742"/>
</g>
<!-- AS2497 -->
<g id="node11" class="node"><title>AS2497</title>
<g id="a_node11"><a xlink:href="/asn/2497" xlink:title="AS2497 ~ Internet Initiative Japan Inc. [JP]">
<ellipse fill="#ffffff" stroke="black" cx="540.465" cy="-396" rx="39.7935" ry="18"/>
<text text-anchor="middle" x="540.465" y="-392.3" font-family="Times,serif" font-size="14.00" fill="#2c94b3">AS2497</text>
</a>
</g>
</g>
<!-- AS1299&#45;&gt;AS2497 -->
<g id="edge10" class="edge"><title>AS1299&#45;&gt;AS2497</title>
<path fill="none" stroke="black" d="M456.342,-415.045C468.341,-412.296 481.962,-409.175 494.655,-406.267"/>
<polygon fill="black" stroke="black" points="495.621,-409.636 504.586,-403.991 494.057,-402.813 495.621,-409.636"/>
</g>
<!-- AS3356&#45;&gt;AS174 -->
<g id="edge18" class="edge"><title>AS3356&#45;&gt;AS174</title>
<path fill="none" stroke="black" d="M449.251,-300.661C465.667,-308.183 486.649,-317.798 504.246,-325.861"/>
<polygon fill="black" stroke="black" points="503.074,-329.174 513.623,-330.158 505.99,-322.811 503.074,-329.174"/>
</g>
<!-- AS3356&#45;&gt;AS3257 -->
<g id="edge17" class="edge"><title>AS3356&#45;&gt;AS3257</title>
<path fill="none" stroke="black" d="M427.952,-305.86C443.793,-350.267 484.702,-463.103 496.269,-477 498.673,-479.889 501.47,-482.563 504.462,-485.013"/>
<polygon fill="black" stroke="black" points="502.551,-487.95 512.705,-490.973 506.652,-482.277 502.551,-487.95"/>
</g>
<!-- AS3356&#45;&gt;AS2914 -->
<g id="edge19" class="edge"><title>AS3356&#45;&gt;AS2914</title>
<path fill="none" stroke="black" d="M428.145,-305.994C438.896,-333.728 462.553,-387.429 496.269,-423 498.854,-425.728 501.772,-428.294 504.84,-430.677"/>
<polygon fill="black" stroke="black" points="502.994,-433.658 513.189,-436.543 507.019,-427.93 502.994,-433.658"/>
</g>
<!-- AS3356&#45;&gt;AS2497 -->
<g id="edge12" class="edge"><title>AS3356&#45;&gt;AS2497</title>
<path fill="none" stroke="black" d="M435.041,-305.065C449.156,-322.375 472.571,-349.345 496.269,-369 499.485,-371.668 502.986,-374.27 506.556,-376.741"/>
<polygon fill="black" stroke="black" points="504.634,-379.666 514.912,-382.236 508.48,-373.817 504.634,-379.666"/>
</g>
<!-- AS209 -->
<g id="node12" class="node"><title>AS209</title>
<g id="a_node12"><a xlink:href="/asn/209" xlink:title="AS209 ~ CenturyLink Communications, LLC [US]">
<ellipse fill="#ffffff" stroke="black" cx="540.465" cy="-126" rx="35.194" ry="18"/>
<text text-anchor="middle" x="540.465" y="-122.3" font-family="Times,serif" font-size="14.00" fill="#2c94b3">AS209</text>
</a>
</g>
</g>
<!-- AS3356&#45;&gt;AS209 -->
<g id="edge11" class="edge"><title>AS3356&#45;&gt;AS209</title>
<path fill="none" stroke="black" d="M446.553,-274.118C451.629,-270.389 456.547,-265.984 460.269,-261 490.54,-220.458 464.97,-192.754 496.269,-153 498.915,-149.639 502.104,-146.583 505.535,-143.839"/>
<polygon fill="black" stroke="black" points="507.673,-146.614 513.842,-138 503.648,-140.887 507.673,-146.614"/>
</g>
<!-- AS6453 -->
<g id="node13" class="node"><title>AS6453</title>
<g id="a_node13"><a xlink:href="/asn/6453" xlink:title="AS6453 ~ TATA COMMUNICATIONS (AMERICA) INC [US]">
<ellipse fill="#ffffff" stroke="black" cx="540.465" cy="-72" rx="39.7935" ry="18"/>
<text text-anchor="middle" x="540.465" y="-68.3" font-family="Times,serif" font-size="14.00" fill="#2c94b3">AS6453</text>
</a>
</g>
</g>
<!-- AS3356&#45;&gt;AS6453 -->
<g id="edge13" class="edge"><title>AS3356&#45;&gt;AS6453</title>
<path fill="none" stroke="black" d="M446.941,-274.393C451.997,-270.649 456.809,-266.169 460.269,-261 501.293,-199.706 453.69,-159.225 496.269,-99 498.26,-96.1837 500.647,-93.5989 503.263,-91.2403"/>
<polygon fill="black" stroke="black" points="505.815,-93.6944 511.631,-84.8384 501.562,-88.1347 505.815,-93.6944"/>
</g>
<!-- AS12956 -->
<g id="node14" class="node"><title>AS12956</title>
<g id="a_node14"><a xlink:href="/asn/12956" xlink:title="AS12956 ~ TELXIUS [ES]">
<ellipse fill="#ffffff" stroke="black" cx="540.465" cy="-18" rx="44.393" ry="18"/>
<text text-anchor="middle" x="540.465" y="-14.3" font-family="Times,serif" font-size="14.00" fill="#2c94b3">AS12956</text>
</a>
</g>
</g>
<!-- AS3356&#45;&gt;AS12956 -->
<g id="edge14" class="edge"><title>AS3356&#45;&gt;AS12956</title>
<path fill="none" stroke="black" d="M447.148,-274.528C452.193,-270.777 456.948,-266.26 460.269,-261 512.219,-178.7 442.23,-125.944 496.269,-45 497.972,-42.4486 500.007,-40.093 502.252,-37.9268"/>
<polygon fill="black" stroke="black" points="504.917,-40.2753 510.52,-31.2831 500.532,-34.8186 504.917,-40.2753"/>
</g>
<!-- AS3491 -->
<g id="node15" class="node"><title>AS3491</title>
<g id="a_node15"><a xlink:href="/asn/3491" xlink:title="AS3491 ~ PCCW Global, Inc. [US]">
<ellipse fill="#ffffff" stroke="black" cx="540.465" cy="-288" rx="39.7935" ry="18"/>
<text text-anchor="middle" x="540.465" y="-284.3" font-family="Times,serif" font-size="14.00" fill="#2c94b3">AS3491</text>
</a>
</g>
</g>
<!-- AS3356&#45;&gt;AS3491 -->
<g id="edge15" class="edge"><title>AS3356&#45;&gt;AS3491</title>
<path fill="none" stroke="black" d="M460.535,-288C470.088,-288 480.438,-288 490.401,-288"/>
<polygon fill="black" stroke="black" points="490.593,-291.5 500.593,-288 490.593,-284.5 490.593,-291.5"/>
</g>
<!-- AS6762 -->
<g id="node16" class="node"><title>AS6762</title>
<g id="a_node16"><a xlink:href="/asn/6762" xlink:title="AS6762 ~ TELECOM ITALIA SPARKLE S.p.A. [IT]">
<ellipse fill="#ffffff" stroke="black" cx="540.465" cy="-234" rx="39.7935" ry="18"/>
<text text-anchor="middle" x="540.465" y="-230.3" font-family="Times,serif" font-size="14.00" fill="#2c94b3">AS6762</text>
</a>
</g>
</g>
<!-- AS3356&#45;&gt;AS6762 -->
<g id="edge16" class="edge"><title>AS3356&#45;&gt;AS6762</title>
<path fill="none" stroke="black" d="M449.251,-275.339C465.208,-268.027 485.479,-258.739 502.761,-250.819"/>
<polygon fill="black" stroke="black" points="504.376,-253.929 512.009,-246.581 501.46,-247.565 504.376,-253.929"/>
</g>
<!-- AS701 -->
<g id="node17" class="node"><title>AS701</title>
<g id="a_node17"><a xlink:href="/asn/701" xlink:title="AS701 ~ UUNET [US]">
<ellipse fill="#ffffff" stroke="black" cx="540.465" cy="-180" rx="35.194" ry="18"/>
<text text-anchor="middle" x="540.465" y="-176.3" font-family="Times,serif" font-size="14.00" fill="#2c94b3">AS701</text>
</a>
</g>
</g>
<!-- AS3356&#45;&gt;AS701 -->
<g id="edge20" class="edge"><title>AS3356&#45;&gt;AS701</title>
<path fill="none" stroke="black" d="M445.216,-273.611C450.472,-269.852 455.804,-265.563 460.269,-261 480.441,-240.383 475.575,-227.094 496.269,-207 499.497,-203.866 503.147,-200.911 506.926,-198.188"/>
<polygon fill="black" stroke="black" points="508.905,-201.075 515.286,-192.617 505.023,-195.25 508.905,-201.075"/>
</g>
</g>
</svg>
