<?xml version="1.0" encoding="UTF-8" standalone="no"?>
<!DOCTYPE svg PUBLIC "-//W3C//DTD SVG 1.1//EN"
 "http://www.w3.org/Graphics/SVG/1.1/DTD/svg11.dtd">
<!-- Generated by graphviz version 2.38.0 (20140413.2041)
 -->
<!-- Title: AS50876 Combined Upstream Graph Pages: 1 -->
<svg width="700pt" height="584pt"
 viewBox="0.00 0.00 700.15 584.00" xmlns="http://www.w3.org/2000/svg" xmlns:xlink="http://www.w3.org/1999/xlink">
<g id="graph0" class="graph" transform="scale(1 1) rotate(0) translate(4 580)">
<title>AS50876 Combined Upstream Graph</title>
<polygon fill="white" stroke="none" points="-4,4 -4,-580 696.155,-580 696.155,4 -4,4"/>
<!-- AS50876 -->
<g id="node1" class="node"><title>AS50876</title>
<g id="a_node1"><a xlink:href="/asn/50876" xlink:title="AS50876 ~ Kopernikus IT Systems GmbH [AT]">
<ellipse fill="#ffffff" stroke="black" cx="44.1961" cy="-288" rx="44.393" ry="18"/>
<text text-anchor="middle" x="44.1961" y="-284.3" font-family="Times,serif" font-size="14.00" fill="#880000">AS50876</text>
</a>
</g>
</g>
<!-- AS15702 -->
<g id="node2" class="node"><title>AS15702</title>
<g id="a_node2"><a xlink:href="/asn/15702" xlink:title="AS15702 ~ Onstage Online GmbH [AT]">
<ellipse fill="#ffffff" stroke="black" cx="168.588" cy="-288" rx="44.393" ry="18"/>
<text text-anchor="middle" x="168.588" y="-284.3" font-family="Times,serif" font-size="14.00" fill="#2c94b3">AS15702</text>
</a>
</g>
</g>
<!-- AS50876&#45;&gt;AS15702 -->
<g id="edge1" class="edge"><title>AS50876&#45;&gt;AS15702</title>
<path fill="none" stroke="black" stroke-width="4.5" d="M88.6916,-288C96.898,-288 105.569,-288 114.041,-288"/>
<polygon fill="black" stroke="black" stroke-width="4.5" points="114.233,-291.938 124.233,-288 114.233,-284.063 114.233,-291.938"/>
</g>
<!-- AS8245 -->
<g id="node3" class="node"><title>AS8245</title>
<g id="a_node3"><a xlink:href="/asn/8245" xlink:title="AS8245 ~ Video&#45;Broadcast GmbH [AT]">
<ellipse fill="#ffffff" stroke="black" cx="292.98" cy="-369" rx="39.7935" ry="18"/>
<text text-anchor="middle" x="292.98" y="-365.3" font-family="Times,serif" font-size="14.00" fill="#2c94b3">AS8245</text>
</a>
</g>
</g>
<!-- AS15702&#45;&gt;AS8245 -->
<g id="edge2" class="edge"><title>AS15702&#45;&gt;AS8245</title>
<path fill="none" stroke="black" stroke-width="1.32353" d="M192.609,-303.235C211.963,-316.044 239.798,-334.466 261.088,-348.555"/>
<polygon fill="black" stroke="black" stroke-width="1.32353" points="259.205,-351.506 269.476,-354.107 263.069,-345.669 259.205,-351.506"/>
</g>
<!-- AS47147 -->
<g id="node4" class="node"><title>AS47147</title>
<g id="a_node4"><a xlink:href="/asn/47147" xlink:title="AS47147 ~ ANEXIA Internetdienstleistungs GmbH [AT]">
<ellipse fill="#ffffff" stroke="black" cx="292.98" cy="-288" rx="44.393" ry="18"/>
<text text-anchor="middle" x="292.98" y="-284.3" font-family="Times,serif" font-size="14.00" fill="#2c94b3">AS47147</text>
</a>
</g>
</g>
<!-- AS15702&#45;&gt;AS47147 -->
<g id="edge3" class="edge"><title>AS15702&#45;&gt;AS47147</title>
<path fill="none" stroke="black" stroke-width="4.5" d="M213.084,-288C221.29,-288 229.961,-288 238.434,-288"/>
<polygon fill="black" stroke="black" stroke-width="4.5" points="238.625,-291.938 248.625,-288 238.625,-284.063 238.625,-291.938"/>
</g>
<!-- AS8218 -->
<g id="node5" class="node"><title>AS8218</title>
<g id="a_node5"><a xlink:href="/asn/8218" xlink:title="AS8218 ~ legacy Neotelecoms [FR]">
<ellipse fill="#ffffff" stroke="black" cx="292.98" cy="-207" rx="39.7935" ry="18"/>
<text text-anchor="middle" x="292.98" y="-203.3" font-family="Times,serif" font-size="14.00" fill="#2c94b3">AS8218</text>
</a>
</g>
</g>
<!-- AS15702&#45;&gt;AS8218 -->
<g id="edge4" class="edge"><title>AS15702&#45;&gt;AS8218</title>
<path fill="none" stroke="black" stroke-width="1.05882" d="M192.609,-272.765C211.963,-259.956 239.798,-241.534 261.088,-227.445"/>
<polygon fill="black" stroke="black" stroke-width="1.05882" points="263.069,-230.331 269.476,-221.893 259.205,-224.494 263.069,-230.331"/>
</g>
<!-- AS6830 -->
<g id="node6" class="node"><title>AS6830</title>
<g id="a_node6"><a xlink:href="/asn/6830" xlink:title="AS6830 ~ LGI&#45;UPC [AT]">
<ellipse fill="#ffffff" stroke="black" cx="412.823" cy="-396" rx="39.7935" ry="18"/>
<text text-anchor="middle" x="412.823" y="-392.3" font-family="Times,serif" font-size="14.00" fill="#2c94b3">AS6830</text>
</a>
</g>
</g>
<!-- AS8245&#45;&gt;AS6830 -->
<g id="edge5" class="edge"><title>AS8245&#45;&gt;AS6830</title>
<path fill="none" stroke="black" stroke-width="4.5" d="M328.7,-376.955C340.7,-379.704 354.32,-382.825 367.013,-385.733"/>
<polygon fill="black" stroke="black" stroke-width="4.5" points="366.318,-389.613 376.945,-388.009 368.077,-381.937 366.318,-389.613"/>
</g>
<!-- AS3320 -->
<g id="node11" class="node"><title>AS3320</title>
<g id="a_node11"><a xlink:href="/asn/3320" xlink:title="AS3320 ~ DTAG [DE]">
<ellipse fill="#ffffff" stroke="black" cx="412.823" cy="-72" rx="39.7935" ry="18"/>
<text text-anchor="middle" x="412.823" y="-68.3" font-family="Times,serif" font-size="14.00" fill="#2c94b3">AS3320</text>
</a>
</g>
</g>
<!-- AS47147&#45;&gt;AS3320 -->
<g id="edge10" class="edge"><title>AS47147&#45;&gt;AS3320</title>
<path fill="none" stroke="black" stroke-width="1.5" d="M309.523,-270.806C318.303,-260.575 329.102,-247.075 337.176,-234 351.952,-210.075 383.331,-138.566 400.319,-99.0276"/>
<polygon fill="black" stroke="black" stroke-width="1.5" points="403.589,-100.283 404.31,-89.7126 397.155,-97.5265 403.589,-100.283"/>
</g>
<!-- AS2914 -->
<g id="node12" class="node"><title>AS2914</title>
<g id="a_node12"><a xlink:href="/asn/2914" xlink:title="AS2914 ~ NTT America, Inc. [US]">
<ellipse fill="#ffffff" stroke="black" cx="412.823" cy="-288" rx="39.7935" ry="18"/>
<text text-anchor="middle" x="412.823" y="-284.3" font-family="Times,serif" font-size="14.00" fill="#2c94b3">AS2914</text>
</a>
</g>
</g>
<!-- AS47147&#45;&gt;AS2914 -->
<g id="edge11" class="edge"><title>AS47147&#45;&gt;AS2914</title>
<path fill="none" stroke="black" stroke-width="4.5" d="M337.191,-288C345.504,-288 354.267,-288 362.749,-288"/>
<polygon fill="black" stroke="black" stroke-width="4.5" points="362.908,-291.938 372.908,-288 362.908,-284.063 362.908,-291.938"/>
</g>
<!-- AS1299 -->
<g id="node13" class="node"><title>AS1299</title>
<g id="a_node13"><a xlink:href="/asn/1299" xlink:title="AS1299 ~ Telia Carrier [EU]">
<ellipse fill="#ffffff" stroke="black" cx="412.823" cy="-342" rx="39.7935" ry="18"/>
<text text-anchor="middle" x="412.823" y="-338.3" font-family="Times,serif" font-size="14.00" fill="#2c94b3">AS1299</text>
</a>
</g>
</g>
<!-- AS47147&#45;&gt;AS1299 -->
<g id="edge12" class="edge"><title>AS47147&#45;&gt;AS1299</title>
<path fill="none" stroke="black" stroke-width="2.5" d="M323.11,-301.348C338.721,-308.502 358.119,-317.391 374.791,-325.03"/>
<polygon fill="black" stroke="black" stroke-width="2.5" points="373.694,-328.378 384.243,-329.362 376.61,-322.014 373.694,-328.378"/>
</g>
<!-- AS6461 -->
<g id="node16" class="node"><title>AS6461</title>
<g id="a_node16"><a xlink:href="/asn/6461" xlink:title="AS6461 ~ Zayo Bandwidth [US]">
<ellipse fill="#ffffff" stroke="black" cx="412.823" cy="-193" rx="39.7935" ry="18"/>
<text text-anchor="middle" x="412.823" y="-189.3" font-family="Times,serif" font-size="14.00" fill="#2c94b3">AS6461</text>
</a>
</g>
</g>
<!-- AS8218&#45;&gt;AS6461 -->
<g id="edge15" class="edge"><title>AS8218&#45;&gt;AS6461</title>
<path fill="none" stroke="black" stroke-width="4" d="M331.591,-202.532C341.902,-201.307 353.219,-199.962 364.019,-198.679"/>
<polygon fill="black" stroke="black" stroke-width="4" points="364.649,-202.129 374.166,-197.474 363.823,-195.178 364.649,-202.129"/>
</g>
<!-- AS6762 -->
<g id="node7" class="node"><title>AS6762</title>
<g id="a_node7"><a xlink:href="/asn/6762" xlink:title="AS6762 ~ TELECOM ITALIA SPARKLE S.p.A. [IT]">
<ellipse fill="#ffffff" stroke="black" cx="532.666" cy="-288" rx="39.7935" ry="18"/>
<text text-anchor="middle" x="532.666" y="-284.3" font-family="Times,serif" font-size="14.00" fill="#2c94b3">AS6762</text>
</a>
</g>
</g>
<!-- AS6830&#45;&gt;AS6762 -->
<g id="edge6" class="edge"><title>AS6830&#45;&gt;AS6762</title>
<path fill="none" stroke="black" d="M437.417,-381.611C442.673,-377.852 448.005,-373.563 452.469,-369 472.642,-348.383 467.776,-335.094 488.469,-315 491.315,-312.237 494.488,-309.614 497.789,-307.166"/>
<polygon fill="black" stroke="black" points="499.854,-309.994 506.136,-301.462 495.905,-304.214 499.854,-309.994"/>
</g>
<!-- AS3356 -->
<g id="node8" class="node"><title>AS3356</title>
<g id="a_node8"><a xlink:href="/asn/3356" xlink:title="AS3356 ~ Level 3 Parent, LLC [US]">
<ellipse fill="#ffffff" stroke="black" cx="532.666" cy="-396" rx="39.7935" ry="18"/>
<text text-anchor="middle" x="532.666" y="-392.3" font-family="Times,serif" font-size="14.00" fill="#2c94b3">AS3356</text>
</a>
</g>
</g>
<!-- AS6830&#45;&gt;AS3356 -->
<g id="edge7" class="edge"><title>AS6830&#45;&gt;AS3356</title>
<path fill="none" stroke="black" stroke-width="2" d="M452.736,-396C462.289,-396 472.639,-396 482.601,-396"/>
<polygon fill="black" stroke="black" stroke-width="2" points="482.794,-399.5 492.794,-396 482.794,-392.5 482.794,-399.5"/>
</g>
<!-- AS3491 -->
<g id="node9" class="node"><title>AS3491</title>
<g id="a_node9"><a xlink:href="/asn/3491" xlink:title="AS3491 ~ PCCW Global, Inc. [US]">
<ellipse fill="#ffffff" stroke="black" cx="532.666" cy="-450" rx="39.7935" ry="18"/>
<text text-anchor="middle" x="532.666" y="-446.3" font-family="Times,serif" font-size="14.00" fill="#2c94b3">AS3491</text>
</a>
</g>
</g>
<!-- AS6830&#45;&gt;AS3491 -->
<g id="edge8" class="edge"><title>AS6830&#45;&gt;AS3491</title>
<path fill="none" stroke="black" d="M441.452,-408.661C457.409,-415.973 477.679,-425.261 494.962,-433.181"/>
<polygon fill="black" stroke="black" points="493.661,-436.435 504.21,-437.419 496.577,-430.071 493.661,-436.435"/>
</g>
<!-- AS3257 -->
<g id="node10" class="node"><title>AS3257</title>
<g id="a_node10"><a xlink:href="/asn/3257" xlink:title="AS3257 ~ GTT [DE]">
<ellipse fill="#ffffff" stroke="black" cx="532.666" cy="-558" rx="39.7935" ry="18"/>
<text text-anchor="middle" x="532.666" y="-554.3" font-family="Times,serif" font-size="14.00" fill="#2c94b3">AS3257</text>
</a>
</g>
</g>
<!-- AS6830&#45;&gt;AS3257 -->
<g id="edge9" class="edge"><title>AS6830&#45;&gt;AS3257</title>
<path fill="none" stroke="black" d="M420.346,-413.994C431.097,-441.728 454.754,-495.429 488.469,-531 491.055,-533.728 493.973,-536.294 497.041,-538.677"/>
<polygon fill="black" stroke="black" points="495.195,-541.658 505.389,-544.543 499.219,-535.93 495.195,-541.658"/>
</g>
<!-- AS3549 -->
<g id="node21" class="node"><title>AS3549</title>
<g id="a_node21"><a xlink:href="/asn/3549" xlink:title="AS3549 ~ Level 3 Parent, LLC [US]">
<ellipse fill="#ffffff" stroke="black" cx="652.508" cy="-423" rx="39.7935" ry="18"/>
<text text-anchor="middle" x="652.508" y="-419.3" font-family="Times,serif" font-size="14.00" fill="#2c94b3">AS3549</text>
</a>
</g>
</g>
<!-- AS3356&#45;&gt;AS3549 -->
<g id="edge25" class="edge"><title>AS3356&#45;&gt;AS3549</title>
<path fill="none" stroke="black" stroke-width="2" d="M568.385,-403.955C580.385,-406.704 594.006,-409.825 606.698,-412.733"/>
<polygon fill="black" stroke="black" stroke-width="2" points="606.101,-416.187 616.63,-415.009 607.664,-409.364 606.101,-416.187"/>
</g>
<!-- AS209 -->
<g id="node22" class="node"><title>AS209</title>
<g id="a_node22"><a xlink:href="/asn/209" xlink:title="AS209 ~ CenturyLink Communications, LLC [US]">
<ellipse fill="#ffffff" stroke="black" cx="652.508" cy="-369" rx="35.194" ry="18"/>
<text text-anchor="middle" x="652.508" y="-365.3" font-family="Times,serif" font-size="14.00" fill="#2c94b3">AS209</text>
</a>
</g>
</g>
<!-- AS3356&#45;&gt;AS209 -->
<g id="edge26" class="edge"><title>AS3356&#45;&gt;AS209</title>
<path fill="none" stroke="black" d="M568.385,-388.045C581.477,-385.045 596.499,-381.604 610.14,-378.478"/>
<polygon fill="black" stroke="black" points="611.282,-381.807 620.247,-376.162 609.718,-374.984 611.282,-381.807"/>
</g>
<!-- AS1239 -->
<g id="node14" class="node"><title>AS1239</title>
<g id="a_node14"><a xlink:href="/asn/1239" xlink:title="AS1239 ~ Sprint [US]">
<ellipse fill="#ffffff" stroke="black" cx="532.666" cy="-72" rx="39.7935" ry="18"/>
<text text-anchor="middle" x="532.666" y="-68.3" font-family="Times,serif" font-size="14.00" fill="#2c94b3">AS1239</text>
</a>
</g>
</g>
<!-- AS3320&#45;&gt;AS1239 -->
<g id="edge13" class="edge"><title>AS3320&#45;&gt;AS1239</title>
<path fill="none" stroke="black" d="M452.736,-72C462.289,-72 472.639,-72 482.601,-72"/>
<polygon fill="black" stroke="black" points="482.794,-75.5001 492.794,-72 482.794,-68.5001 482.794,-75.5001"/>
</g>
<!-- AS701 -->
<g id="node15" class="node"><title>AS701</title>
<g id="a_node15"><a xlink:href="/asn/701" xlink:title="AS701 ~ UUNET [US]">
<ellipse fill="#ffffff" stroke="black" cx="532.666" cy="-18" rx="35.194" ry="18"/>
<text text-anchor="middle" x="532.666" y="-14.3" font-family="Times,serif" font-size="14.00" fill="#2c94b3">AS701</text>
</a>
</g>
</g>
<!-- AS3320&#45;&gt;AS701 -->
<g id="edge14" class="edge"><title>AS3320&#45;&gt;AS701</title>
<path fill="none" stroke="black" d="M441.452,-59.3394C457.868,-51.8169 478.85,-42.2023 496.446,-34.1387"/>
<polygon fill="black" stroke="black" points="498.191,-37.1894 505.824,-29.8417 495.275,-30.8257 498.191,-37.1894"/>
</g>
<!-- AS2914&#45;&gt;AS6762 -->
<g id="edge24" class="edge"><title>AS2914&#45;&gt;AS6762</title>
<path fill="none" stroke="black" d="M452.736,-288C462.289,-288 472.639,-288 482.601,-288"/>
<polygon fill="black" stroke="black" points="482.794,-291.5 492.794,-288 482.794,-284.5 482.794,-291.5"/>
</g>
<!-- AS2914&#45;&gt;AS3356 -->
<g id="edge21" class="edge"><title>AS2914&#45;&gt;AS3356</title>
<path fill="none" stroke="black" stroke-width="3" d="M437.417,-302.389C442.673,-306.148 448.005,-310.437 452.469,-315 472.642,-335.617 467.776,-348.906 488.469,-369 491.315,-371.763 494.488,-374.386 497.789,-376.834"/>
<polygon fill="black" stroke="black" stroke-width="3" points="495.905,-379.786 506.136,-382.538 499.854,-374.006 495.905,-379.786"/>
</g>
<!-- AS2914&#45;&gt;AS3491 -->
<g id="edge23" class="edge"><title>AS2914&#45;&gt;AS3491</title>
<path fill="none" stroke="black" d="M438.754,-301.882C443.83,-305.611 448.748,-310.016 452.469,-315 482.741,-355.542 457.171,-383.246 488.469,-423 490.794,-425.953 493.538,-428.67 496.497,-431.147"/>
<polygon fill="black" stroke="black" points="494.557,-434.064 504.694,-437.145 498.69,-428.415 494.557,-434.064"/>
</g>
<!-- AS2497 -->
<g id="node18" class="node"><title>AS2497</title>
<g id="a_node18"><a xlink:href="/asn/2497" xlink:title="AS2497 ~ Internet Initiative Japan Inc. [JP]">
<ellipse fill="#ffffff" stroke="black" cx="532.666" cy="-180" rx="39.7935" ry="18"/>
<text text-anchor="middle" x="532.666" y="-176.3" font-family="Times,serif" font-size="14.00" fill="#2c94b3">AS2497</text>
</a>
</g>
</g>
<!-- AS2914&#45;&gt;AS2497 -->
<g id="edge19" class="edge"><title>AS2914&#45;&gt;AS2497</title>
<path fill="none" stroke="black" d="M427.242,-270.935C441.357,-253.625 464.771,-226.655 488.469,-207 491.686,-204.332 495.186,-201.73 498.757,-199.259"/>
<polygon fill="black" stroke="black" points="500.68,-202.183 507.113,-193.764 496.835,-196.334 500.68,-202.183"/>
</g>
<!-- AS174 -->
<g id="node19" class="node"><title>AS174</title>
<g id="a_node19"><a xlink:href="/asn/174" xlink:title="AS174 ~ Cogent Communications [US]">
<ellipse fill="#ffffff" stroke="black" cx="532.666" cy="-342" rx="35.194" ry="18"/>
<text text-anchor="middle" x="532.666" y="-338.3" font-family="Times,serif" font-size="14.00" fill="#2c94b3">AS174</text>
</a>
</g>
</g>
<!-- AS2914&#45;&gt;AS174 -->
<g id="edge20" class="edge"><title>AS2914&#45;&gt;AS174</title>
<path fill="none" stroke="black" d="M441.452,-300.661C457.868,-308.183 478.85,-317.798 496.446,-325.861"/>
<polygon fill="black" stroke="black" points="495.275,-329.174 505.824,-330.158 498.191,-322.811 495.275,-329.174"/>
</g>
<!-- AS12956 -->
<g id="node20" class="node"><title>AS12956</title>
<g id="a_node20"><a xlink:href="/asn/12956" xlink:title="AS12956 ~ TELXIUS [ES]">
<ellipse fill="#ffffff" stroke="black" cx="532.666" cy="-234" rx="44.393" ry="18"/>
<text text-anchor="middle" x="532.666" y="-230.3" font-family="Times,serif" font-size="14.00" fill="#2c94b3">AS12956</text>
</a>
</g>
</g>
<!-- AS2914&#45;&gt;AS12956 -->
<g id="edge22" class="edge"><title>AS2914&#45;&gt;AS12956</title>
<path fill="none" stroke="black" d="M441.452,-275.339C456.95,-268.238 476.516,-259.272 493.463,-251.506"/>
<polygon fill="black" stroke="black" points="494.933,-254.683 502.565,-247.335 492.016,-248.319 494.933,-254.683"/>
</g>
<!-- AS1299&#45;&gt;AS6762 -->
<g id="edge30" class="edge"><title>AS1299&#45;&gt;AS6762</title>
<path fill="none" stroke="black" d="M441.452,-329.339C457.409,-322.027 477.679,-312.739 494.962,-304.819"/>
<polygon fill="black" stroke="black" points="496.577,-307.929 504.21,-300.581 493.661,-301.565 496.577,-307.929"/>
</g>
<!-- AS1299&#45;&gt;AS3257 -->
<g id="edge29" class="edge"><title>AS1299&#45;&gt;AS3257</title>
<path fill="none" stroke="black" d="M439.142,-355.607C444.198,-359.351 449.01,-363.831 452.469,-369 493.494,-430.294 445.89,-470.775 488.469,-531 490.461,-533.816 492.848,-536.401 495.464,-538.76"/>
<polygon fill="black" stroke="black" points="493.763,-541.865 503.832,-545.162 498.016,-536.306 493.763,-541.865"/>
</g>
<!-- AS1299&#45;&gt;AS174 -->
<g id="edge28" class="edge"><title>AS1299&#45;&gt;AS174</title>
<path fill="none" stroke="black" d="M452.736,-342C463.822,-342 475.982,-342 487.364,-342"/>
<polygon fill="black" stroke="black" points="487.546,-345.5 497.546,-342 487.546,-338.5 487.546,-345.5"/>
</g>
<!-- AS7018 -->
<g id="node23" class="node"><title>AS7018</title>
<g id="a_node23"><a xlink:href="/asn/7018" xlink:title="AS7018 ~ AT&amp;T Services, Inc. [US]">
<ellipse fill="#ffffff" stroke="black" cx="532.666" cy="-504" rx="39.7935" ry="18"/>
<text text-anchor="middle" x="532.666" y="-500.3" font-family="Times,serif" font-size="14.00" fill="#2c94b3">AS7018</text>
</a>
</g>
</g>
<!-- AS1299&#45;&gt;AS7018 -->
<g id="edge27" class="edge"><title>AS1299&#45;&gt;AS7018</title>
<path fill="none" stroke="black" d="M438.754,-355.882C443.83,-359.611 448.748,-364.016 452.469,-369 482.741,-409.542 457.171,-437.246 488.469,-477 490.794,-479.953 493.538,-482.67 496.497,-485.147"/>
<polygon fill="black" stroke="black" points="494.557,-488.064 504.694,-491.145 498.69,-482.415 494.557,-488.064"/>
</g>
<!-- AS6461&#45;&gt;AS6762 -->
<g id="edge17" class="edge"><title>AS6461&#45;&gt;AS6762</title>
<path fill="none" stroke="black" d="M429.971,-209.296C444.608,-223.671 467.097,-244.795 488.469,-261 491.799,-263.525 495.371,-266.037 498.983,-268.456"/>
<polygon fill="black" stroke="black" points="497.089,-271.399 507.386,-273.892 500.891,-265.522 497.089,-271.399"/>
</g>
<!-- AS6453 -->
<g id="node17" class="node"><title>AS6453</title>
<g id="a_node17"><a xlink:href="/asn/6453" xlink:title="AS6453 ~ TATA COMMUNICATIONS (AMERICA) INC [US]">
<ellipse fill="#ffffff" stroke="black" cx="532.666" cy="-126" rx="39.7935" ry="18"/>
<text text-anchor="middle" x="532.666" y="-122.3" font-family="Times,serif" font-size="14.00" fill="#2c94b3">AS6453</text>
</a>
</g>
</g>
<!-- AS6461&#45;&gt;AS6453 -->
<g id="edge16" class="edge"><title>AS6461&#45;&gt;AS6453</title>
<path fill="none" stroke="black" d="M438.24,-179.118C455.7,-169.191 479.4,-155.716 498.561,-144.822"/>
<polygon fill="black" stroke="black" points="500.316,-147.85 507.28,-139.865 496.857,-141.765 500.316,-147.85"/>
</g>
<!-- AS6461&#45;&gt;AS2497 -->
<g id="edge18" class="edge"><title>AS6461&#45;&gt;AS2497</title>
<path fill="none" stroke="black" d="M451.433,-188.851C461.744,-187.713 473.062,-186.465 483.862,-185.274"/>
<polygon fill="black" stroke="black" points="484.453,-188.73 494.009,-184.154 483.685,-181.772 484.453,-188.73"/>
</g>
</g>
</svg>
