<?xml version="1.0" encoding="UTF-8" standalone="no"?>
<!DOCTYPE svg PUBLIC "-//W3C//DTD SVG 1.1//EN"
 "http://www.w3.org/Graphics/SVG/1.1/DTD/svg11.dtd">
<!-- Generated by graphviz version 2.38.0 (20140413.2041)
 -->
<!-- Title: AS50876 Combined Upstream Graph Pages: 1 -->
<svg width="700pt" height="584pt"
 viewBox="0.00 0.00 700.15 584.00" xmlns="http://www.w3.org/2000/svg" xmlns:xlink="http://www.w3.org/1999/xlink">
<g id="graph0" class="graph" transform="scale(1 1) rotate(0) translate(4 580)">
<title>AS50876 Combined Upstream Graph</title>
<polygon fill="white" stroke="none" points="-4,4 -4,-580 696.155,-580 696.155,4 -4,4"/>
<!-- AS50876 -->
<g id="node1" class="node"><title>AS50876</title>
<g id="a_node1"><a xlink:href="/asn/50876" xlink:title="AS50876 ~ Kopernikus IT Systems GmbH [AT]">
<ellipse fill="#ffffff" stroke="black" cx="44.1961" cy="-99" rx="44.393" ry="18"/>
<text text-anchor="middle" x="44.1961" y="-95.3" font-family="Times,serif" font-size="14.00" fill="#880000">AS50876</text>
</a>
</g>
</g>
<!-- AS15702 -->
<g id="node2" class="node"><title>AS15702</title>
<g id="a_node2"><a xlink:href="/asn/15702" xlink:title="AS15702 ~ Onstage Online GmbH [AT]">
<ellipse fill="#ffffff" stroke="black" cx="168.588" cy="-99" rx="44.393" ry="18"/>
<text text-anchor="middle" x="168.588" y="-95.3" font-family="Times,serif" font-size="14.00" fill="#2c94b3">AS15702</text>
</a>
</g>
</g>
<!-- AS50876&#45;&gt;AS15702 -->
<g id="edge1" class="edge"><title>AS50876&#45;&gt;AS15702</title>
<path fill="none" stroke="black" stroke-width="4.5" d="M88.6916,-99C96.898,-99 105.569,-99 114.041,-99"/>
<polygon fill="black" stroke="black" stroke-width="4.5" points="114.233,-102.938 124.233,-99 114.233,-95.0626 114.233,-102.938"/>
</g>
<!-- AS13237 -->
<g id="node3" class="node"><title>AS13237</title>
<g id="a_node3"><a xlink:href="/asn/13237" xlink:title="AS13237 ~ European Backbone of AS13237 [DE]">
<ellipse fill="#ffffff" stroke="black" cx="292.98" cy="-207" rx="44.393" ry="18"/>
<text text-anchor="middle" x="292.98" y="-203.3" font-family="Times,serif" font-size="14.00" fill="#2c94b3">AS13237</text>
</a>
</g>
</g>
<!-- AS15702&#45;&gt;AS13237 -->
<g id="edge2" class="edge"><title>AS15702&#45;&gt;AS13237</title>
<path fill="none" stroke="black" stroke-width="4.5" d="M188.177,-115.403C208.875,-133.667 242.481,-163.322 265.826,-183.921"/>
<polygon fill="black" stroke="black" stroke-width="4.5" points="263.514,-187.133 273.618,-190.797 268.725,-181.228 263.514,-187.133"/>
</g>
<!-- AS8218 -->
<g id="node4" class="node"><title>AS8218</title>
<g id="a_node4"><a xlink:href="/asn/8218" xlink:title="AS8218 ~ legacy Neotelecoms [FR]">
<ellipse fill="#ffffff" stroke="black" cx="292.98" cy="-72" rx="39.7935" ry="18"/>
<text text-anchor="middle" x="292.98" y="-68.3" font-family="Times,serif" font-size="14.00" fill="#2c94b3">AS8218</text>
</a>
</g>
</g>
<!-- AS15702&#45;&gt;AS8218 -->
<g id="edge3" class="edge"><title>AS15702&#45;&gt;AS8218</title>
<path fill="none" stroke="black" stroke-width="0.264706" d="M207.978,-90.5311C220.369,-87.7976 234.216,-84.743 247.036,-81.9147"/>
<polygon fill="black" stroke="black" stroke-width="0.264706" points="248.04,-85.2776 257.051,-79.7055 246.532,-78.442 248.04,-85.2776"/>
</g>
<!-- AS47147 -->
<g id="node5" class="node"><title>AS47147</title>
<g id="a_node5"><a xlink:href="/asn/47147" xlink:title="AS47147 ~ ANEXIA Internetdienstleistungs GmbH [AT]">
<ellipse fill="#ffffff" stroke="black" cx="292.98" cy="-18" rx="44.393" ry="18"/>
<text text-anchor="middle" x="292.98" y="-14.3" font-family="Times,serif" font-size="14.00" fill="#2c94b3">AS47147</text>
</a>
</g>
</g>
<!-- AS15702&#45;&gt;AS47147 -->
<g id="edge4" class="edge"><title>AS15702&#45;&gt;AS47147</title>
<path fill="none" stroke="black" stroke-width="0.264706" d="M191.619,-83.6328C207.421,-72.6949 229.278,-57.7394 248.784,-45 252.105,-42.8314 255.587,-40.5941 259.074,-38.3787"/>
<polygon fill="black" stroke="black" stroke-width="0.264706" points="261.063,-41.262 267.656,-32.9684 257.33,-35.3405 261.063,-41.262"/>
</g>
<!-- AS8245 -->
<g id="node6" class="node"><title>AS8245</title>
<g id="a_node6"><a xlink:href="/asn/8245" xlink:title="AS8245 ~ Video&#45;Broadcast GmbH [AT]">
<ellipse fill="#ffffff" stroke="black" cx="292.98" cy="-126" rx="39.7935" ry="18"/>
<text text-anchor="middle" x="292.98" y="-122.3" font-family="Times,serif" font-size="14.00" fill="#2c94b3">AS8245</text>
</a>
</g>
</g>
<!-- AS15702&#45;&gt;AS8245 -->
<g id="edge5" class="edge"><title>AS15702&#45;&gt;AS8245</title>
<path fill="none" stroke="black" stroke-width="0.794118" d="M207.978,-107.469C220.369,-110.202 234.216,-113.257 247.036,-116.085"/>
<polygon fill="black" stroke="black" stroke-width="0.794118" points="246.532,-119.558 257.051,-118.295 248.04,-112.722 246.532,-119.558"/>
</g>
<!-- AS3257 -->
<g id="node7" class="node"><title>AS3257</title>
<g id="a_node7"><a xlink:href="/asn/3257" xlink:title="AS3257 ~ GTT [DE]">
<ellipse fill="#ffffff" stroke="black" cx="412.823" cy="-234" rx="39.7935" ry="18"/>
<text text-anchor="middle" x="412.823" y="-230.3" font-family="Times,serif" font-size="14.00" fill="#2c94b3">AS3257</text>
</a>
</g>
</g>
<!-- AS13237&#45;&gt;AS3257 -->
<g id="edge6" class="edge"><title>AS13237&#45;&gt;AS3257</title>
<path fill="none" stroke="black" stroke-width="2.7" d="M331.915,-215.692C343.156,-218.267 355.568,-221.111 367.192,-223.774"/>
<polygon fill="black" stroke="black" stroke-width="2.7" points="366.624,-227.235 377.153,-226.057 368.188,-220.412 366.624,-227.235"/>
</g>
<!-- AS2914 -->
<g id="node8" class="node"><title>AS2914</title>
<g id="a_node8"><a xlink:href="/asn/2914" xlink:title="AS2914 ~ NTT America, Inc. [US]">
<ellipse fill="#ffffff" stroke="black" cx="412.823" cy="-369" rx="39.7935" ry="18"/>
<text text-anchor="middle" x="412.823" y="-365.3" font-family="Times,serif" font-size="14.00" fill="#2c94b3">AS2914</text>
</a>
</g>
</g>
<!-- AS13237&#45;&gt;AS2914 -->
<g id="edge7" class="edge"><title>AS13237&#45;&gt;AS2914</title>
<path fill="none" stroke="black" stroke-width="4.5" d="M306.592,-224.337C327.412,-252.96 369.075,-310.233 393.264,-343.486"/>
<polygon fill="black" stroke="black" stroke-width="4.5" points="390.236,-346.017 399.302,-351.788 396.604,-341.385 390.236,-346.017"/>
</g>
<!-- AS3320 -->
<g id="node9" class="node"><title>AS3320</title>
<g id="a_node9"><a xlink:href="/asn/3320" xlink:title="AS3320 ~ DTAG [DE]">
<ellipse fill="#ffffff" stroke="black" cx="412.823" cy="-180" rx="39.7935" ry="18"/>
<text text-anchor="middle" x="412.823" y="-176.3" font-family="Times,serif" font-size="14.00" fill="#2c94b3">AS3320</text>
</a>
</g>
</g>
<!-- AS13237&#45;&gt;AS3320 -->
<g id="edge8" class="edge"><title>AS13237&#45;&gt;AS3320</title>
<path fill="none" stroke="black" stroke-width="0.45" d="M331.915,-198.308C343.156,-195.733 355.568,-192.889 367.192,-190.226"/>
<polygon fill="black" stroke="black" stroke-width="0.45" points="368.188,-193.588 377.153,-187.943 366.624,-186.765 368.188,-193.588"/>
</g>
<!-- AS6461 -->
<g id="node20" class="node"><title>AS6461</title>
<g id="a_node20"><a xlink:href="/asn/6461" xlink:title="AS6461 ~ Zayo Bandwidth [US]">
<ellipse fill="#ffffff" stroke="black" cx="412.823" cy="-72" rx="39.7935" ry="18"/>
<text text-anchor="middle" x="412.823" y="-68.3" font-family="Times,serif" font-size="14.00" fill="#2c94b3">AS6461</text>
</a>
</g>
</g>
<!-- AS8218&#45;&gt;AS6461 -->
<g id="edge21" class="edge"><title>AS8218&#45;&gt;AS6461</title>
<path fill="none" stroke="black" d="M332.893,-72C342.446,-72 352.796,-72 362.759,-72"/>
<polygon fill="black" stroke="black" points="362.951,-75.5001 372.951,-72 362.951,-68.5001 362.951,-75.5001"/>
</g>
<!-- AS1299 -->
<g id="node23" class="node"><title>AS1299</title>
<g id="a_node23"><a xlink:href="/asn/1299" xlink:title="AS1299 ~ Telia Carrier [EU]">
<ellipse fill="#ffffff" stroke="black" cx="412.823" cy="-18" rx="39.7935" ry="18"/>
<text text-anchor="middle" x="412.823" y="-14.3" font-family="Times,serif" font-size="14.00" fill="#2c94b3">AS1299</text>
</a>
</g>
</g>
<!-- AS47147&#45;&gt;AS1299 -->
<g id="edge24" class="edge"><title>AS47147&#45;&gt;AS1299</title>
<path fill="none" stroke="black" d="M337.191,-18C345.504,-18 354.267,-18 362.749,-18"/>
<polygon fill="black" stroke="black" points="362.908,-21.5001 372.908,-18 362.908,-14.5001 362.908,-21.5001"/>
</g>
<!-- AS6830 -->
<g id="node24" class="node"><title>AS6830</title>
<g id="a_node24"><a xlink:href="/asn/6830" xlink:title="AS6830 ~ LGI&#45;UPC [AT]">
<ellipse fill="#ffffff" stroke="black" cx="412.823" cy="-126" rx="39.7935" ry="18"/>
<text text-anchor="middle" x="412.823" y="-122.3" font-family="Times,serif" font-size="14.00" fill="#2c94b3">AS6830</text>
</a>
</g>
</g>
<!-- AS8245&#45;&gt;AS6830 -->
<g id="edge25" class="edge"><title>AS8245&#45;&gt;AS6830</title>
<path fill="none" stroke="black" stroke-width="3" d="M332.893,-126C342.446,-126 352.796,-126 362.759,-126"/>
<polygon fill="black" stroke="black" stroke-width="3" points="362.951,-129.5 372.951,-126 362.951,-122.5 362.951,-129.5"/>
</g>
<!-- AS6762 -->
<g id="node14" class="node"><title>AS6762</title>
<g id="a_node14"><a xlink:href="/asn/6762" xlink:title="AS6762 ~ TELECOM ITALIA SPARKLE S.p.A. [IT]">
<ellipse fill="#ffffff" stroke="black" cx="532.666" cy="-342" rx="39.7935" ry="18"/>
<text text-anchor="middle" x="532.666" y="-338.3" font-family="Times,serif" font-size="14.00" fill="#2c94b3">AS6762</text>
</a>
</g>
</g>
<!-- AS3257&#45;&gt;AS6762 -->
<g id="edge20" class="edge"><title>AS3257&#45;&gt;AS6762</title>
<path fill="none" stroke="black" d="M427.242,-251.065C441.357,-268.375 464.771,-295.345 488.469,-315 491.686,-317.668 495.186,-320.27 498.757,-322.741"/>
<polygon fill="black" stroke="black" points="496.835,-325.666 507.113,-328.236 500.68,-319.817 496.835,-325.666"/>
</g>
<!-- AS2497 -->
<g id="node16" class="node"><title>AS2497</title>
<g id="a_node16"><a xlink:href="/asn/2497" xlink:title="AS2497 ~ Internet Initiative Japan Inc. [JP]">
<ellipse fill="#ffffff" stroke="black" cx="532.666" cy="-288" rx="39.7935" ry="18"/>
<text text-anchor="middle" x="532.666" y="-284.3" font-family="Times,serif" font-size="14.00" fill="#2c94b3">AS2497</text>
</a>
</g>
</g>
<!-- AS3257&#45;&gt;AS2497 -->
<g id="edge16" class="edge"><title>AS3257&#45;&gt;AS2497</title>
<path fill="none" stroke="black" d="M441.452,-246.661C457.409,-253.973 477.679,-263.261 494.962,-271.181"/>
<polygon fill="black" stroke="black" points="493.661,-274.435 504.21,-275.419 496.577,-268.071 493.661,-274.435"/>
</g>
<!-- AS6453 -->
<g id="node17" class="node"><title>AS6453</title>
<g id="a_node17"><a xlink:href="/asn/6453" xlink:title="AS6453 ~ TATA COMMUNICATIONS (AMERICA) INC [US]">
<ellipse fill="#ffffff" stroke="black" cx="532.666" cy="-126" rx="39.7935" ry="18"/>
<text text-anchor="middle" x="532.666" y="-122.3" font-family="Times,serif" font-size="14.00" fill="#2c94b3">AS6453</text>
</a>
</g>
</g>
<!-- AS3257&#45;&gt;AS6453 -->
<g id="edge17" class="edge"><title>AS3257&#45;&gt;AS6453</title>
<path fill="none" stroke="black" d="M437.417,-219.611C442.673,-215.852 448.005,-211.563 452.469,-207 472.642,-186.383 467.776,-173.094 488.469,-153 491.315,-150.237 494.488,-147.614 497.789,-145.166"/>
<polygon fill="black" stroke="black" points="499.854,-147.994 506.136,-139.462 495.905,-142.214 499.854,-147.994"/>
</g>
<!-- AS3491 -->
<g id="node18" class="node"><title>AS3491</title>
<g id="a_node18"><a xlink:href="/asn/3491" xlink:title="AS3491 ~ PCCW Global, Inc. [US]">
<ellipse fill="#ffffff" stroke="black" cx="532.666" cy="-72" rx="39.7935" ry="18"/>
<text text-anchor="middle" x="532.666" y="-68.3" font-family="Times,serif" font-size="14.00" fill="#2c94b3">AS3491</text>
</a>
</g>
</g>
<!-- AS3257&#45;&gt;AS3491 -->
<g id="edge18" class="edge"><title>AS3257&#45;&gt;AS3491</title>
<path fill="none" stroke="black" d="M438.754,-220.118C443.83,-216.389 448.748,-211.984 452.469,-207 482.741,-166.458 457.171,-138.754 488.469,-99 490.794,-96.0468 493.538,-93.33 496.497,-90.8526"/>
<polygon fill="black" stroke="black" points="498.69,-93.585 504.694,-84.8554 494.557,-87.9356 498.69,-93.585"/>
</g>
<!-- AS7018 -->
<g id="node19" class="node"><title>AS7018</title>
<g id="a_node19"><a xlink:href="/asn/7018" xlink:title="AS7018 ~ AT&amp;T Services, Inc. [US]">
<ellipse fill="#ffffff" stroke="black" cx="532.666" cy="-234" rx="39.7935" ry="18"/>
<text text-anchor="middle" x="532.666" y="-230.3" font-family="Times,serif" font-size="14.00" fill="#2c94b3">AS7018</text>
</a>
</g>
</g>
<!-- AS3257&#45;&gt;AS7018 -->
<g id="edge19" class="edge"><title>AS3257&#45;&gt;AS7018</title>
<path fill="none" stroke="black" d="M452.736,-234C462.289,-234 472.639,-234 482.601,-234"/>
<polygon fill="black" stroke="black" points="482.794,-237.5 492.794,-234 482.794,-230.5 482.794,-237.5"/>
</g>
<!-- AS1239 -->
<g id="node10" class="node"><title>AS1239</title>
<g id="a_node10"><a xlink:href="/asn/1239" xlink:title="AS1239 ~ Sprint [US]">
<ellipse fill="#ffffff" stroke="black" cx="532.666" cy="-450" rx="39.7935" ry="18"/>
<text text-anchor="middle" x="532.666" y="-446.3" font-family="Times,serif" font-size="14.00" fill="#2c94b3">AS1239</text>
</a>
</g>
</g>
<!-- AS2914&#45;&gt;AS1239 -->
<g id="edge9" class="edge"><title>AS2914&#45;&gt;AS1239</title>
<path fill="none" stroke="black" d="M434.153,-384.277C449.016,-395.304 469.76,-410.407 488.469,-423 492.018,-425.389 495.769,-427.839 499.517,-430.242"/>
<polygon fill="black" stroke="black" points="497.843,-433.325 508.166,-435.712 501.585,-427.409 497.843,-433.325"/>
</g>
<!-- AS12956 -->
<g id="node11" class="node"><title>AS12956</title>
<g id="a_node11"><a xlink:href="/asn/12956" xlink:title="AS12956 ~ TELXIUS [ES]">
<ellipse fill="#ffffff" stroke="black" cx="532.666" cy="-396" rx="44.393" ry="18"/>
<text text-anchor="middle" x="532.666" y="-392.3" font-family="Times,serif" font-size="14.00" fill="#2c94b3">AS12956</text>
</a>
</g>
</g>
<!-- AS2914&#45;&gt;AS12956 -->
<g id="edge10" class="edge"><title>AS2914&#45;&gt;AS12956</title>
<path fill="none" stroke="black" d="M448.542,-376.955C459.681,-379.507 472.216,-382.379 484.109,-385.104"/>
<polygon fill="black" stroke="black" points="483.374,-388.526 493.903,-387.348 484.938,-381.703 483.374,-388.526"/>
</g>
<!-- AS3356 -->
<g id="node12" class="node"><title>AS3356</title>
<g id="a_node12"><a xlink:href="/asn/3356" xlink:title="AS3356 ~ Level 3 Parent, LLC [US]">
<ellipse fill="#ffffff" stroke="black" cx="532.666" cy="-180" rx="39.7935" ry="18"/>
<text text-anchor="middle" x="532.666" y="-176.3" font-family="Times,serif" font-size="14.00" fill="#2c94b3">AS3356</text>
</a>
</g>
</g>
<!-- AS2914&#45;&gt;AS3356 -->
<g id="edge11" class="edge"><title>AS2914&#45;&gt;AS3356</title>
<path fill="none" stroke="black" stroke-width="3" d="M418.396,-351.054C427.302,-319.005 449.586,-251.158 488.469,-207 490.953,-204.179 493.803,-201.551 496.829,-199.129"/>
<polygon fill="black" stroke="black" stroke-width="3" points="499.014,-201.869 505.118,-193.209 494.946,-196.172 499.014,-201.869"/>
</g>
<!-- AS174 -->
<g id="node13" class="node"><title>AS174</title>
<g id="a_node13"><a xlink:href="/asn/174" xlink:title="AS174 ~ Cogent Communications [US]">
<ellipse fill="#ffffff" stroke="black" cx="532.666" cy="-558" rx="35.194" ry="18"/>
<text text-anchor="middle" x="532.666" y="-554.3" font-family="Times,serif" font-size="14.00" fill="#2c94b3">AS174</text>
</a>
</g>
</g>
<!-- AS2914&#45;&gt;AS174 -->
<g id="edge12" class="edge"><title>AS2914&#45;&gt;AS174</title>
<path fill="none" stroke="black" d="M418.396,-386.946C427.302,-418.995 449.586,-486.842 488.469,-531 491.297,-534.211 494.598,-537.172 498.093,-539.864"/>
<polygon fill="black" stroke="black" points="496.25,-542.845 506.468,-545.645 500.227,-537.084 496.25,-542.845"/>
</g>
<!-- AS2914&#45;&gt;AS6762 -->
<g id="edge13" class="edge"><title>AS2914&#45;&gt;AS6762</title>
<path fill="none" stroke="black" d="M448.542,-361.045C460.542,-358.296 474.163,-355.175 486.856,-352.267"/>
<polygon fill="black" stroke="black" points="487.821,-355.636 496.787,-349.991 486.258,-348.813 487.821,-355.636"/>
</g>
<!-- AS701 -->
<g id="node15" class="node"><title>AS701</title>
<g id="a_node15"><a xlink:href="/asn/701" xlink:title="AS701 ~ UUNET [US]">
<ellipse fill="#ffffff" stroke="black" cx="532.666" cy="-504" rx="35.194" ry="18"/>
<text text-anchor="middle" x="532.666" y="-500.3" font-family="Times,serif" font-size="14.00" fill="#2c94b3">AS701</text>
</a>
</g>
</g>
<!-- AS2914&#45;&gt;AS701 -->
<g id="edge14" class="edge"><title>AS2914&#45;&gt;AS701</title>
<path fill="none" stroke="black" d="M423.064,-386.713C435.61,-409.561 459.787,-449.611 488.469,-477 491.723,-480.107 495.39,-483.046 499.177,-485.76"/>
<polygon fill="black" stroke="black" points="497.279,-488.701 507.545,-491.322 501.154,-482.872 497.279,-488.701"/>
</g>
<!-- AS2914&#45;&gt;AS2497 -->
<g id="edge15" class="edge"><title>AS2914&#45;&gt;AS2497</title>
<path fill="none" stroke="black" d="M434.153,-353.723C449.016,-342.696 469.76,-327.593 488.469,-315 492.018,-312.611 495.769,-310.161 499.517,-307.758"/>
<polygon fill="black" stroke="black" points="501.585,-310.591 508.166,-302.288 497.843,-304.675 501.585,-310.591"/>
</g>
<!-- AS209 -->
<g id="node21" class="node"><title>AS209</title>
<g id="a_node21"><a xlink:href="/asn/209" xlink:title="AS209 ~ CenturyLink Communications, LLC [US]">
<ellipse fill="#ffffff" stroke="black" cx="652.508" cy="-207" rx="35.194" ry="18"/>
<text text-anchor="middle" x="652.508" y="-203.3" font-family="Times,serif" font-size="14.00" fill="#2c94b3">AS209</text>
</a>
</g>
</g>
<!-- AS3356&#45;&gt;AS209 -->
<g id="edge22" class="edge"><title>AS3356&#45;&gt;AS209</title>
<path fill="none" stroke="black" d="M568.385,-187.955C581.477,-190.955 596.499,-194.396 610.14,-197.522"/>
<polygon fill="black" stroke="black" points="609.718,-201.016 620.247,-199.838 611.282,-194.193 609.718,-201.016"/>
</g>
<!-- AS3549 -->
<g id="node22" class="node"><title>AS3549</title>
<g id="a_node22"><a xlink:href="/asn/3549" xlink:title="AS3549 ~ Level 3 Parent, LLC [US]">
<ellipse fill="#ffffff" stroke="black" cx="652.508" cy="-153" rx="39.7935" ry="18"/>
<text text-anchor="middle" x="652.508" y="-149.3" font-family="Times,serif" font-size="14.00" fill="#2c94b3">AS3549</text>
</a>
</g>
</g>
<!-- AS3356&#45;&gt;AS3549 -->
<g id="edge23" class="edge"><title>AS3356&#45;&gt;AS3549</title>
<path fill="none" stroke="black" stroke-width="2" d="M568.385,-172.045C580.385,-169.296 594.006,-166.175 606.698,-163.267"/>
<polygon fill="black" stroke="black" stroke-width="2" points="607.664,-166.636 616.63,-160.991 606.101,-159.813 607.664,-166.636"/>
</g>
<!-- AS6830&#45;&gt;AS3356 -->
<g id="edge27" class="edge"><title>AS6830&#45;&gt;AS3356</title>
<path fill="none" stroke="black" d="M441.452,-138.661C457.409,-145.973 477.679,-155.261 494.962,-163.181"/>
<polygon fill="black" stroke="black" points="493.661,-166.435 504.21,-167.419 496.577,-160.071 493.661,-166.435"/>
</g>
<!-- AS6830&#45;&gt;AS6453 -->
<g id="edge26" class="edge"><title>AS6830&#45;&gt;AS6453</title>
<path fill="none" stroke="black" d="M452.736,-126C462.289,-126 472.639,-126 482.601,-126"/>
<polygon fill="black" stroke="black" points="482.794,-129.5 492.794,-126 482.794,-122.5 482.794,-129.5"/>
</g>
<!-- AS6830&#45;&gt;AS3491 -->
<g id="edge28" class="edge"><title>AS6830&#45;&gt;AS3491</title>
<path fill="none" stroke="black" d="M441.452,-113.339C457.409,-106.027 477.679,-96.7385 494.962,-88.8189"/>
<polygon fill="black" stroke="black" points="496.577,-91.929 504.21,-84.5813 493.661,-85.5653 496.577,-91.929"/>
</g>
</g>
</svg>
