<?xml version="1.0" encoding="UTF-8" standalone="no"?>
<!DOCTYPE svg PUBLIC "-//W3C//DTD SVG 1.1//EN"
 "http://www.w3.org/Graphics/SVG/1.1/DTD/svg11.dtd">
<!-- Generated by graphviz version 2.38.0 (20140413.2041)
 -->
<!-- Title: AS8562 Combined Upstream Graph Pages: 1 -->
<svg width="558pt" height="648pt"
 viewBox="0.00 0.00 557.56 648.00" xmlns="http://www.w3.org/2000/svg" xmlns:xlink="http://www.w3.org/1999/xlink">
<g id="graph0" class="graph" transform="scale(1 1) rotate(0) translate(4 644)">
<title>AS8562 Combined Upstream Graph</title>
<polygon fill="white" stroke="none" points="-4,4 -4,-644 553.564,-644 553.564,4 -4,4"/>
<!-- AS8562 -->
<g id="node1" class="node"><title>AS8562</title>
<g id="a_node1"><a xlink:href="/asn/8562" xlink:title="AS8562 ~ A1 Telekom Austria AG [AT]">
<ellipse fill="#ffffff" stroke="black" cx="39.6465" cy="-259" rx="39.7935" ry="18"/>
<text text-anchor="middle" x="39.6465" y="-255.3" font-family="Times,serif" font-size="14.00" fill="#880000">AS8562</text>
</a>
</g>
</g>
<!-- AS8447 -->
<g id="node2" class="node"><title>AS8447</title>
<g id="a_node2"><a xlink:href="/asn/8447" xlink:title="AS8447 ~ A1 Telekom Austria AG [AT]">
<ellipse fill="#ffffff" stroke="black" cx="154.939" cy="-259" rx="39.7935" ry="18"/>
<text text-anchor="middle" x="154.939" y="-255.3" font-family="Times,serif" font-size="14.00" fill="#2c94b3">AS8447</text>
</a>
</g>
</g>
<!-- AS8562&#45;&gt;AS8447 -->
<g id="edge1" class="edge"><title>AS8562&#45;&gt;AS8447</title>
<path fill="none" stroke="black" stroke-width="4.5" d="M79.3186,-259C87.5216,-259 96.2857,-259 104.818,-259"/>
<polygon fill="black" stroke="black" stroke-width="4.5" points="105.057,-262.938 115.057,-259 105.057,-255.063 105.057,-262.938"/>
</g>
<!-- AS3356 -->
<g id="node3" class="node"><title>AS3356</title>
<g id="a_node3"><a xlink:href="/asn/3356" xlink:title="AS3356 ~ Level 3 Parent, LLC [US]">
<ellipse fill="#ffffff" stroke="black" cx="385.525" cy="-278" rx="39.7935" ry="18"/>
<text text-anchor="middle" x="385.525" y="-274.3" font-family="Times,serif" font-size="14.00" fill="#2c94b3">AS3356</text>
</a>
</g>
</g>
<!-- AS8447&#45;&gt;AS3356 -->
<g id="edge2" class="edge"><title>AS8447&#45;&gt;AS3356</title>
<path fill="none" stroke="black" stroke-width="4" d="M194.2,-262.18C233.181,-265.42 293.759,-270.455 336.069,-273.972"/>
<polygon fill="black" stroke="black" stroke-width="4" points="335.885,-277.469 346.14,-274.809 336.465,-270.493 335.885,-277.469"/>
</g>
<!-- AS1299 -->
<g id="node4" class="node"><title>AS1299</title>
<g id="a_node4"><a xlink:href="/asn/1299" xlink:title="AS1299 ~ Telia Carrier [EU]">
<ellipse fill="#ffffff" stroke="black" cx="270.232" cy="-332" rx="39.7935" ry="18"/>
<text text-anchor="middle" x="270.232" y="-328.3" font-family="Times,serif" font-size="14.00" fill="#2c94b3">AS1299</text>
</a>
</g>
</g>
<!-- AS8447&#45;&gt;AS1299 -->
<g id="edge3" class="edge"><title>AS8447&#45;&gt;AS1299</title>
<path fill="none" stroke="black" stroke-width="4.5" d="M178.594,-273.597C195.652,-284.589 219.236,-299.785 238.071,-311.921"/>
<polygon fill="black" stroke="black" stroke-width="4.5" points="236.079,-315.322 246.617,-317.428 240.344,-308.702 236.079,-315.322"/>
</g>
<!-- AS3320 -->
<g id="node5" class="node"><title>AS3320</title>
<g id="a_node5"><a xlink:href="/asn/3320" xlink:title="AS3320 ~ DTAG [DE]">
<ellipse fill="#ffffff" stroke="black" cx="385.525" cy="-538" rx="39.7935" ry="18"/>
<text text-anchor="middle" x="385.525" y="-534.3" font-family="Times,serif" font-size="14.00" fill="#2c94b3">AS3320</text>
</a>
</g>
</g>
<!-- AS8447&#45;&gt;AS3320 -->
<g id="edge4" class="edge"><title>AS8447&#45;&gt;AS3320</title>
<path fill="none" stroke="black" stroke-width="2.25" d="M168.267,-276.259C182.787,-296.41 207.82,-330.602 230.586,-359 275.919,-415.549 332.071,-479.379 362.468,-513.452"/>
<polygon fill="black" stroke="black" stroke-width="2.25" points="359.989,-515.931 369.263,-521.054 365.208,-511.266 359.989,-515.931"/>
</g>
<!-- AS6762 -->
<g id="node6" class="node"><title>AS6762</title>
<g id="a_node6"><a xlink:href="/asn/6762" xlink:title="AS6762 ~ TELECOM ITALIA SPARKLE S.p.A. [IT]">
<ellipse fill="#ffffff" stroke="black" cx="385.525" cy="-18" rx="39.7935" ry="18"/>
<text text-anchor="middle" x="385.525" y="-14.3" font-family="Times,serif" font-size="14.00" fill="#2c94b3">AS6762</text>
</a>
</g>
</g>
<!-- AS8447&#45;&gt;AS6762 -->
<g id="edge5" class="edge"><title>AS8447&#45;&gt;AS6762</title>
<path fill="none" stroke="black" d="M179.053,-244.658C193.59,-235.897 212.883,-224.738 230.586,-216 264.815,-199.105 284.698,-211.688 309.879,-183 350.276,-136.976 312.741,-101.498 345.879,-50 348.331,-46.1885 351.384,-42.6044 354.69,-39.3128"/>
<polygon fill="black" stroke="black" points="357.078,-41.873 362.201,-32.5993 352.413,-36.6538 357.078,-41.873"/>
</g>
<!-- AS6461 -->
<g id="node7" class="node"><title>AS6461</title>
<g id="a_node7"><a xlink:href="/asn/6461" xlink:title="AS6461 ~ Zayo Bandwidth [US]">
<ellipse fill="#ffffff" stroke="black" cx="270.232" cy="-156" rx="39.7935" ry="18"/>
<text text-anchor="middle" x="270.232" y="-152.3" font-family="Times,serif" font-size="14.00" fill="#2c94b3">AS6461</text>
</a>
</g>
</g>
<!-- AS8447&#45;&gt;AS6461 -->
<g id="edge6" class="edge"><title>AS8447&#45;&gt;AS6461</title>
<path fill="none" stroke="black" stroke-width="0.25" d="M172.529,-242.591C187.455,-227.979 210.121,-206.167 230.586,-188 234.222,-184.772 238.109,-181.431 241.966,-178.179"/>
<polygon fill="black" stroke="black" stroke-width="0.25" points="244.306,-180.785 249.748,-171.695 239.825,-175.407 244.306,-180.785"/>
</g>
<!-- AS6939 -->
<g id="node8" class="node"><title>AS6939</title>
<g id="a_node8"><a xlink:href="/asn/6939" xlink:title="AS6939 ~ Hurricane Electric LLC [US]">
<ellipse fill="#ffffff" stroke="black" cx="385.525" cy="-148" rx="39.7935" ry="18"/>
<text text-anchor="middle" x="385.525" y="-144.3" font-family="Times,serif" font-size="14.00" fill="#2c94b3">AS6939</text>
</a>
</g>
</g>
<!-- AS8447&#45;&gt;AS6939 -->
<g id="edge7" class="edge"><title>AS8447&#45;&gt;AS6939</title>
<path fill="none" stroke="black" stroke-width="1.25" d="M193.165,-254.068C225.71,-248.524 273.344,-237.352 309.879,-216 329.415,-204.583 329.146,-195.232 345.879,-180 349.474,-176.727 353.339,-173.36 357.184,-170.096"/>
<polygon fill="black" stroke="black" stroke-width="1.25" points="359.527,-172.7 364.958,-163.603 355.04,-167.327 359.527,-172.7"/>
</g>
<!-- AS6453 -->
<g id="node9" class="node"><title>AS6453</title>
<g id="a_node9"><a xlink:href="/asn/6453" xlink:title="AS6453 ~ TATA COMMUNICATIONS (AMERICA) INC [US]">
<ellipse fill="#ffffff" stroke="black" cx="505.368" cy="-568" rx="39.7935" ry="18"/>
<text text-anchor="middle" x="505.368" y="-564.3" font-family="Times,serif" font-size="14.00" fill="#2c94b3">AS6453</text>
</a>
</g>
</g>
<!-- AS3356&#45;&gt;AS6453 -->
<g id="edge8" class="edge"><title>AS3356&#45;&gt;AS6453</title>
<path fill="none" stroke="black" d="M412.105,-291.439C417.148,-295.191 421.888,-299.717 425.172,-305 481.188,-395.11 402.869,-452.352 461.172,-541 463.067,-543.882 465.387,-546.512 467.959,-548.901"/>
<polygon fill="black" stroke="black" points="466.213,-551.976 476.256,-555.351 470.51,-546.45 466.213,-551.976"/>
</g>
<!-- AS12956 -->
<g id="node10" class="node"><title>AS12956</title>
<g id="a_node10"><a xlink:href="/asn/12956" xlink:title="AS12956 ~ TELXIUS [ES]">
<ellipse fill="#ffffff" stroke="black" cx="505.368" cy="-514" rx="44.393" ry="18"/>
<text text-anchor="middle" x="505.368" y="-510.3" font-family="Times,serif" font-size="14.00" fill="#2c94b3">AS12956</text>
</a>
</g>
</g>
<!-- AS3356&#45;&gt;AS12956 -->
<g id="edge9" class="edge"><title>AS3356&#45;&gt;AS12956</title>
<path fill="none" stroke="black" d="M411.934,-291.548C416.986,-295.295 421.773,-299.791 425.172,-305 470.231,-374.056 414.361,-419.12 461.172,-487 462.913,-489.525 464.976,-491.862 467.241,-494.015"/>
<polygon fill="black" stroke="black" points="465.545,-497.139 475.547,-500.633 469.907,-491.664 465.545,-497.139"/>
</g>
<!-- AS3549 -->
<g id="node11" class="node"><title>AS3549</title>
<g id="a_node11"><a xlink:href="/asn/3549" xlink:title="AS3549 ~ Level 3 Parent, LLC [US]">
<ellipse fill="#ffffff" stroke="black" cx="505.368" cy="-298" rx="39.7935" ry="18"/>
<text text-anchor="middle" x="505.368" y="-294.3" font-family="Times,serif" font-size="14.00" fill="#2c94b3">AS3549</text>
</a>
</g>
</g>
<!-- AS3356&#45;&gt;AS3549 -->
<g id="edge10" class="edge"><title>AS3356&#45;&gt;AS3549</title>
<path fill="none" stroke="black" stroke-width="2" d="M422.844,-284.164C433.932,-286.046 446.28,-288.141 457.943,-290.121"/>
<polygon fill="black" stroke="black" stroke-width="2" points="457.522,-293.599 467.967,-291.822 458.693,-286.698 457.522,-293.599"/>
</g>
<!-- AS3257 -->
<g id="node12" class="node"><title>AS3257</title>
<g id="a_node12"><a xlink:href="/asn/3257" xlink:title="AS3257 ~ GTT [DE]">
<ellipse fill="#ffffff" stroke="black" cx="505.368" cy="-406" rx="39.7935" ry="18"/>
<text text-anchor="middle" x="505.368" y="-402.3" font-family="Times,serif" font-size="14.00" fill="#2c94b3">AS3257</text>
</a>
</g>
</g>
<!-- AS3356&#45;&gt;AS3257 -->
<g id="edge11" class="edge"><title>AS3356&#45;&gt;AS3257</title>
<path fill="none" stroke="black" stroke-width="2" d="M410.581,-291.967C415.818,-295.743 421.026,-300.146 425.172,-305 448.926,-332.811 436.714,-351.806 461.172,-379 463.685,-381.795 466.555,-384.405 469.593,-386.817"/>
<polygon fill="black" stroke="black" stroke-width="2" points="467.721,-389.78 477.899,-392.721 471.776,-384.075 467.721,-389.78"/>
</g>
<!-- AS2497 -->
<g id="node13" class="node"><title>AS2497</title>
<g id="a_node13"><a xlink:href="/asn/2497" xlink:title="AS2497 ~ Internet Initiative Japan Inc. [JP]">
<ellipse fill="#ffffff" stroke="black" cx="505.368" cy="-352" rx="39.7935" ry="18"/>
<text text-anchor="middle" x="505.368" y="-348.3" font-family="Times,serif" font-size="14.00" fill="#2c94b3">AS2497</text>
</a>
</g>
</g>
<!-- AS3356&#45;&gt;AS2497 -->
<g id="edge12" class="edge"><title>AS3356&#45;&gt;AS2497</title>
<path fill="none" stroke="black" stroke-width="2" d="M409.382,-292.419C424.151,-301.728 443.788,-314.095 461.172,-325 464.796,-327.274 468.593,-329.652 472.368,-332.014"/>
<polygon fill="black" stroke="black" stroke-width="2" points="470.71,-335.106 481.045,-337.441 474.422,-329.171 470.71,-335.106"/>
</g>
<!-- AS2914 -->
<g id="node14" class="node"><title>AS2914</title>
<g id="a_node14"><a xlink:href="/asn/2914" xlink:title="AS2914 ~ NTT America, Inc. [US]">
<ellipse fill="#ffffff" stroke="black" cx="505.368" cy="-82" rx="39.7935" ry="18"/>
<text text-anchor="middle" x="505.368" y="-78.3" font-family="Times,serif" font-size="14.00" fill="#2c94b3">AS2914</text>
</a>
</g>
</g>
<!-- AS3356&#45;&gt;AS2914 -->
<g id="edge13" class="edge"><title>AS3356&#45;&gt;AS2914</title>
<path fill="none" stroke="black" stroke-width="2" d="M392.871,-260.183C406.758,-221.861 440.271,-133.118 461.172,-109 463.633,-106.16 466.468,-103.518 469.484,-101.088"/>
<polygon fill="black" stroke="black" stroke-width="2" points="471.671,-103.826 477.76,-95.1563 467.594,-98.1368 471.671,-103.826"/>
</g>
<!-- AS1239 -->
<g id="node15" class="node"><title>AS1239</title>
<g id="a_node15"><a xlink:href="/asn/1239" xlink:title="AS1239 ~ Sprint [US]">
<ellipse fill="#ffffff" stroke="black" cx="505.368" cy="-460" rx="39.7935" ry="18"/>
<text text-anchor="middle" x="505.368" y="-456.3" font-family="Times,serif" font-size="14.00" fill="#2c94b3">AS1239</text>
</a>
</g>
</g>
<!-- AS3356&#45;&gt;AS1239 -->
<g id="edge14" class="edge"><title>AS3356&#45;&gt;AS1239</title>
<path fill="none" stroke="black" d="M411.634,-291.752C416.7,-295.489 421.57,-299.929 425.172,-305 459.392,-353.18 425.73,-385.711 461.172,-433 463.426,-436.008 466.122,-438.761 469.052,-441.261"/>
<polygon fill="black" stroke="black" points="467.085,-444.16 477.207,-447.29 471.246,-438.531 467.085,-444.16"/>
</g>
<!-- AS3491 -->
<g id="node16" class="node"><title>AS3491</title>
<g id="a_node16"><a xlink:href="/asn/3491" xlink:title="AS3491 ~ PCCW Global, Inc. [US]">
<ellipse fill="#ffffff" stroke="black" cx="505.368" cy="-190" rx="39.7935" ry="18"/>
<text text-anchor="middle" x="505.368" y="-186.3" font-family="Times,serif" font-size="14.00" fill="#2c94b3">AS3491</text>
</a>
</g>
</g>
<!-- AS3356&#45;&gt;AS3491 -->
<g id="edge15" class="edge"><title>AS3356&#45;&gt;AS3491</title>
<path fill="none" stroke="black" d="M404.724,-262.036C419.531,-249.318 441.176,-231.333 461.172,-217 464.568,-214.566 468.182,-212.11 471.818,-209.724"/>
<polygon fill="black" stroke="black" points="473.715,-212.666 480.249,-204.326 469.94,-206.771 473.715,-212.666"/>
</g>
<!-- AS174 -->
<g id="node17" class="node"><title>AS174</title>
<g id="a_node17"><a xlink:href="/asn/174" xlink:title="AS174 ~ Cogent Communications [US]">
<ellipse fill="#ffffff" stroke="black" cx="505.368" cy="-28" rx="35.194" ry="18"/>
<text text-anchor="middle" x="505.368" y="-24.3" font-family="Times,serif" font-size="14.00" fill="#2c94b3">AS174</text>
</a>
</g>
</g>
<!-- AS3356&#45;&gt;AS174 -->
<g id="edge16" class="edge"><title>AS3356&#45;&gt;AS174</title>
<path fill="none" stroke="black" stroke-width="2" d="M393.595,-260.268C401.64,-239.847 414.981,-205.224 425.172,-175 442.962,-122.237 427.394,-99.2663 461.172,-55 463.767,-51.5989 466.924,-48.5191 470.338,-45.7605"/>
<polygon fill="black" stroke="black" stroke-width="2" points="472.476,-48.5351 478.625,-39.907 468.438,-42.8175 472.476,-48.5351"/>
</g>
<!-- AS209 -->
<g id="node18" class="node"><title>AS209</title>
<g id="a_node18"><a xlink:href="/asn/209" xlink:title="AS209 ~ CenturyLink Communications, LLC [US]">
<ellipse fill="#ffffff" stroke="black" cx="505.368" cy="-244" rx="35.194" ry="18"/>
<text text-anchor="middle" x="505.368" y="-240.3" font-family="Times,serif" font-size="14.00" fill="#2c94b3">AS209</text>
</a>
</g>
</g>
<!-- AS3356&#45;&gt;AS209 -->
<g id="edge17" class="edge"><title>AS3356&#45;&gt;AS209</title>
<path fill="none" stroke="black" d="M419.351,-268.529C433.406,-264.474 449.943,-259.703 464.678,-255.451"/>
<polygon fill="black" stroke="black" points="465.901,-258.741 474.538,-252.606 463.96,-252.016 465.901,-258.741"/>
</g>
<!-- AS1299&#45;&gt;AS3356 -->
<g id="edge26" class="edge"><title>AS1299&#45;&gt;AS3356</title>
<path fill="none" stroke="black" stroke-width="2" d="M298.369,-319.066C313.363,-311.919 332.184,-302.948 348.407,-295.215"/>
<polygon fill="black" stroke="black" stroke-width="2" points="350.089,-298.291 357.61,-290.829 347.077,-291.972 350.089,-298.291"/>
</g>
<!-- AS1299&#45;&gt;AS6453 -->
<g id="edge25" class="edge"><title>AS1299&#45;&gt;AS6453</title>
<path fill="none" stroke="black" d="M270.62,-350.198C270.209,-395.449 276.197,-513.136 345.879,-565 378.832,-589.527 427.238,-586.472 461.875,-579.661"/>
<polygon fill="black" stroke="black" points="462.655,-583.073 471.701,-577.557 461.19,-576.228 462.655,-583.073"/>
</g>
<!-- AS1299&#45;&gt;AS12956 -->
<g id="edge18" class="edge"><title>AS1299&#45;&gt;AS12956</title>
<path fill="none" stroke="black" d="M281.173,-349.619C293.934,-371.014 317.811,-407.186 345.879,-431 381.016,-460.811 428.655,-483.945 462.505,-498.129"/>
<polygon fill="black" stroke="black" points="461.521,-501.508 472.101,-502.065 464.177,-495.032 461.521,-501.508"/>
</g>
<!-- AS1299&#45;&gt;AS3257 -->
<g id="edge22" class="edge"><title>AS1299&#45;&gt;AS3257</title>
<path fill="none" stroke="black" d="M292.823,-346.998C307.243,-356.356 326.968,-367.927 345.879,-375 381.778,-388.426 424.532,-396.353 456.582,-400.825"/>
<polygon fill="black" stroke="black" points="456.215,-404.307 466.589,-402.159 457.139,-397.369 456.215,-404.307"/>
</g>
<!-- AS1299&#45;&gt;AS2497 -->
<g id="edge27" class="edge"><title>AS1299&#45;&gt;AS2497</title>
<path fill="none" stroke="black" d="M298.957,-344.631C312.75,-350.236 329.861,-356.192 345.879,-359 383.048,-365.516 425.829,-363.052 457.568,-359.354"/>
<polygon fill="black" stroke="black" points="458.396,-362.778 467.884,-358.064 457.527,-355.832 458.396,-362.778"/>
</g>
<!-- AS1299&#45;&gt;AS2914 -->
<g id="edge19" class="edge"><title>AS1299&#45;&gt;AS2914</title>
<path fill="none" stroke="black" stroke-width="2" d="M277.096,-313.964C293.363,-264.138 338.355,-127.815 345.879,-121 375.569,-94.1057 420.802,-85.0219 455.356,-82.2791"/>
<polygon fill="black" stroke="black" stroke-width="2" points="455.951,-85.7484 465.708,-81.6188 455.505,-78.7626 455.951,-85.7484"/>
</g>
<!-- AS1299&#45;&gt;AS1239 -->
<g id="edge29" class="edge"><title>AS1299&#45;&gt;AS1239</title>
<path fill="none" stroke="black" d="M286.448,-348.764C300.641,-363.594 323.008,-384.996 345.879,-399 382.223,-421.255 428.054,-437.826 461.07,-448.036"/>
<polygon fill="black" stroke="black" points="460.296,-451.458 470.881,-451 462.32,-444.757 460.296,-451.458"/>
</g>
<!-- AS1299&#45;&gt;AS3491 -->
<g id="edge24" class="edge"><title>AS1299&#45;&gt;AS3491</title>
<path fill="none" stroke="black" d="M279.424,-314.476C290.983,-291.706 314.252,-252.347 345.879,-231 378.649,-208.881 422.603,-198.694 455.911,-194.003"/>
<polygon fill="black" stroke="black" points="456.412,-197.468 465.881,-192.717 455.516,-190.525 456.412,-197.468"/>
</g>
<!-- AS1299&#45;&gt;AS174 -->
<g id="edge20" class="edge"><title>AS1299&#45;&gt;AS174</title>
<path fill="none" stroke="black" stroke-width="2" d="M277.384,-313.936C285.236,-290.687 299.093,-248.998 309.879,-213 327.209,-155.16 304.487,-125.961 345.879,-82 362.079,-64.7944 421.634,-47.6613 462.937,-37.4491"/>
<polygon fill="black" stroke="black" stroke-width="2" points="463.854,-40.8281 472.746,-35.0681 462.203,-34.0257 463.854,-40.8281"/>
</g>
<!-- AS1299&#45;&gt;AS209 -->
<g id="edge23" class="edge"><title>AS1299&#45;&gt;AS209</title>
<path fill="none" stroke="black" d="M281.302,-314.667C293.702,-295.195 316.746,-264.544 345.879,-251 382.162,-234.132 428.305,-234.155 461.433,-237.33"/>
<polygon fill="black" stroke="black" points="461.38,-240.845 471.702,-238.454 462.142,-233.886 461.38,-240.845"/>
</g>
<!-- AS7018 -->
<g id="node19" class="node"><title>AS7018</title>
<g id="a_node19"><a xlink:href="/asn/7018" xlink:title="AS7018 ~ AT&amp;T Services, Inc. [US]">
<ellipse fill="#ffffff" stroke="black" cx="385.525" cy="-332" rx="39.7935" ry="18"/>
<text text-anchor="middle" x="385.525" y="-328.3" font-family="Times,serif" font-size="14.00" fill="#2c94b3">AS7018</text>
</a>
</g>
</g>
<!-- AS1299&#45;&gt;AS7018 -->
<g id="edge21" class="edge"><title>AS1299&#45;&gt;AS7018</title>
<path fill="none" stroke="black" stroke-width="2" d="M309.905,-332C318.108,-332 326.872,-332 335.404,-332"/>
<polygon fill="black" stroke="black" stroke-width="2" points="335.643,-335.5 345.643,-332 335.643,-328.5 335.643,-335.5"/>
</g>
<!-- AS701 -->
<g id="node20" class="node"><title>AS701</title>
<g id="a_node20"><a xlink:href="/asn/701" xlink:title="AS701 ~ UUNET [US]">
<ellipse fill="#ffffff" stroke="black" cx="505.368" cy="-622" rx="35.194" ry="18"/>
<text text-anchor="middle" x="505.368" y="-618.3" font-family="Times,serif" font-size="14.00" fill="#2c94b3">AS701</text>
</a>
</g>
</g>
<!-- AS1299&#45;&gt;AS701 -->
<g id="edge28" class="edge"><title>AS1299&#45;&gt;AS701</title>
<path fill="none" stroke="black" d="M270.671,-350.049C270.266,-396.863 276.047,-523.049 345.879,-588 376.543,-616.521 425.111,-623.372 460.407,-624.11"/>
<polygon fill="black" stroke="black" points="460.422,-627.61 470.441,-624.164 460.46,-620.61 460.422,-627.61"/>
</g>
<!-- AS3320&#45;&gt;AS6453 -->
<g id="edge35" class="edge"><title>AS3320&#45;&gt;AS6453</title>
<path fill="none" stroke="black" d="M420.61,-546.677C433.069,-549.849 447.341,-553.482 460.531,-556.84"/>
<polygon fill="black" stroke="black" points="459.805,-560.267 470.36,-559.342 461.532,-553.483 459.805,-560.267"/>
</g>
<!-- AS3320&#45;&gt;AS12956 -->
<g id="edge30" class="edge"><title>AS3320&#45;&gt;AS12956</title>
<path fill="none" stroke="black" d="M421.882,-530.799C432.367,-528.664 444.044,-526.286 455.236,-524.006"/>
<polygon fill="black" stroke="black" points="456.23,-527.376 465.33,-521.951 454.833,-520.517 456.23,-527.376"/>
</g>
<!-- AS3320&#45;&gt;AS2497 -->
<g id="edge32" class="edge"><title>AS3320&#45;&gt;AS2497</title>
<path fill="none" stroke="black" d="M391.329,-519.888C400.467,-488.235 422.928,-422.119 461.172,-379 463.666,-376.188 466.522,-373.566 469.552,-371.147"/>
<polygon fill="black" stroke="black" points="471.737,-373.888 477.847,-365.232 467.673,-368.188 471.737,-373.888"/>
</g>
<!-- AS3320&#45;&gt;AS2914 -->
<g id="edge31" class="edge"><title>AS3320&#45;&gt;AS2914</title>
<path fill="none" stroke="black" stroke-width="2" d="M390.837,-520.043C398.459,-487.889 414.515,-418.297 425.172,-359 445.029,-248.513 399.879,-203.047 461.172,-109 463.055,-106.11 465.367,-103.475 467.933,-101.082"/>
<polygon fill="black" stroke="black" stroke-width="2" points="470.483,-103.533 476.221,-94.6259 466.181,-98.0104 470.483,-103.533"/>
</g>
<!-- AS3320&#45;&gt;AS1239 -->
<g id="edge33" class="edge"><title>AS3320&#45;&gt;AS1239</title>
<path fill="none" stroke="black" d="M407.928,-523.037C422.768,-512.746 443.043,-498.852 461.172,-487 464.753,-484.659 468.523,-482.239 472.282,-479.852"/>
<polygon fill="black" stroke="black" points="474.345,-482.69 480.943,-474.4 470.616,-476.766 474.345,-482.69"/>
</g>
<!-- AS3320&#45;&gt;AS701 -->
<g id="edge34" class="edge"><title>AS3320&#45;&gt;AS701</title>
<path fill="none" stroke="black" stroke-width="2" d="M405.8,-553.511C420.659,-565.273 441.865,-581.638 461.172,-595 464.956,-597.619 468.986,-600.288 473.006,-602.88"/>
<polygon fill="black" stroke="black" stroke-width="2" points="471.369,-605.986 481.69,-608.379 475.114,-600.072 471.369,-605.986"/>
</g>
<!-- AS6762&#45;&gt;AS2914 -->
<g id="edge42" class="edge"><title>AS6762&#45;&gt;AS2914</title>
<path fill="none" stroke="black" d="M411.806,-31.7296C428.892,-41.0094 451.656,-53.3721 470.332,-63.5153"/>
<polygon fill="black" stroke="black" points="468.671,-66.5962 479.13,-68.2931 472.012,-60.4448 468.671,-66.5962"/>
</g>
<!-- AS6762&#45;&gt;AS174 -->
<g id="edge41" class="edge"><title>AS6762&#45;&gt;AS174</title>
<path fill="none" stroke="black" d="M424.785,-21.2467C436.221,-22.2171 448.845,-23.2884 460.605,-24.2863"/>
<polygon fill="black" stroke="black" points="460.405,-27.7819 470.666,-25.14 460.997,-20.8069 460.405,-27.7819"/>
</g>
<!-- AS6939&#45;&gt;AS2497 -->
<g id="edge37" class="edge"><title>AS6939&#45;&gt;AS2497</title>
<path fill="none" stroke="black" d="M393.388,-165.962C409.689,-208.368 450.196,-312.116 461.172,-325 463.609,-327.861 466.428,-330.516 469.434,-332.955"/>
<polygon fill="black" stroke="black" points="467.535,-335.9 477.696,-338.899 471.622,-330.218 467.535,-335.9"/>
</g>
<!-- AS6939&#45;&gt;AS2914 -->
<g id="edge36" class="edge"><title>AS6939&#45;&gt;AS2914</title>
<path fill="none" stroke="black" d="M411.229,-134.164C428.513,-124.484 451.808,-111.437 470.778,-100.813"/>
<polygon fill="black" stroke="black" points="472.682,-103.758 479.697,-95.8175 469.262,-97.6504 472.682,-103.758"/>
</g>
<!-- AS6939&#45;&gt;AS3491 -->
<g id="edge40" class="edge"><title>AS6939&#45;&gt;AS3491</title>
<path fill="none" stroke="black" d="M417.179,-158.925C431.389,-163.99 448.472,-170.078 463.738,-175.519"/>
<polygon fill="black" stroke="black" points="462.863,-178.923 473.458,-178.983 465.213,-172.329 462.863,-178.923"/>
</g>
<!-- AS6939&#45;&gt;AS209 -->
<g id="edge39" class="edge"><title>AS6939&#45;&gt;AS209</title>
<path fill="none" stroke="black" d="M402.633,-164.561C417.243,-179.163 439.715,-200.608 461.172,-217 464.828,-219.793 468.783,-222.567 472.763,-225.213"/>
<polygon fill="black" stroke="black" points="471.106,-228.308 481.413,-230.76 474.885,-222.415 471.106,-228.308"/>
</g>
<!-- AS1273 -->
<g id="node21" class="node"><title>AS1273</title>
<g id="a_node21"><a xlink:href="/asn/1273" xlink:title="AS1273 ~ Vodafone Group PLC [EU]">
<ellipse fill="#ffffff" stroke="black" cx="505.368" cy="-136" rx="39.7935" ry="18"/>
<text text-anchor="middle" x="505.368" y="-132.3" font-family="Times,serif" font-size="14.00" fill="#2c94b3">AS1273</text>
</a>
</g>
</g>
<!-- AS6939&#45;&gt;AS1273 -->
<g id="edge38" class="edge"><title>AS6939&#45;&gt;AS1273</title>
<path fill="none" stroke="black" d="M424.46,-144.137C434.658,-143.099 445.82,-141.962 456.483,-140.876"/>
<polygon fill="black" stroke="black" points="456.91,-144.351 466.504,-139.856 456.201,-137.387 456.91,-144.351"/>
</g>
</g>
</svg>
