<?xml version="1.0" encoding="UTF-8" standalone="no"?>
<!DOCTYPE svg PUBLIC "-//W3C//DTD SVG 1.1//EN"
 "http://www.w3.org/Graphics/SVG/1.1/DTD/svg11.dtd">
<!-- Generated by graphviz version 2.38.0 (20140413.2041)
 -->
<!-- Title: AS1112 Combined Upstream Graph Pages: 1 -->
<svg width="567pt" height="584pt"
 viewBox="0.00 0.00 566.66 584.00" xmlns="http://www.w3.org/2000/svg" xmlns:xlink="http://www.w3.org/1999/xlink">
<g id="graph0" class="graph" transform="scale(1 1) rotate(0) translate(4 580)">
<title>AS1112 Combined Upstream Graph</title>
<polygon fill="white" stroke="none" points="-4,4 -4,-580 562.663,-580 562.663,4 -4,4"/>
<!-- AS1112 -->
<g id="node1" class="node"><title>AS1112</title>
<g id="a_node1"><a xlink:href="/asn/1112" xlink:title="AS1112 ~ Montanuniversitaet Leoben [AT]">
<ellipse fill="#ffffff" stroke="black" cx="39.6465" cy="-173" rx="39.7935" ry="18"/>
<text text-anchor="middle" x="39.6465" y="-169.3" font-family="Times,serif" font-size="14.00" fill="#880000">AS1112</text>
</a>
</g>
</g>
<!-- AS1853 -->
<g id="node2" class="node"><title>AS1853</title>
<g id="a_node2"><a xlink:href="/asn/1853" xlink:title="AS1853 ~ ACOnet Backbone [AT]">
<ellipse fill="#ffffff" stroke="black" cx="154.939" cy="-173" rx="39.7935" ry="18"/>
<text text-anchor="middle" x="154.939" y="-169.3" font-family="Times,serif" font-size="14.00" fill="#2c94b3">AS1853</text>
</a>
</g>
</g>
<!-- AS1112&#45;&gt;AS1853 -->
<g id="edge1" class="edge"><title>AS1112&#45;&gt;AS1853</title>
<path fill="none" stroke="black" stroke-width="4.5" d="M79.3186,-173C87.5216,-173 96.2857,-173 104.818,-173"/>
<polygon fill="black" stroke="black" stroke-width="4.5" points="105.057,-176.938 115.057,-173 105.057,-169.063 105.057,-176.938"/>
</g>
<!-- AS3356 -->
<g id="node3" class="node"><title>AS3356</title>
<g id="a_node3"><a xlink:href="/asn/3356" xlink:title="AS3356 ~ Level 3 Parent, LLC [US]">
<ellipse fill="#ffffff" stroke="black" cx="394.625" cy="-396" rx="39.7935" ry="18"/>
<text text-anchor="middle" x="394.625" y="-392.3" font-family="Times,serif" font-size="14.00" fill="#2c94b3">AS3356</text>
</a>
</g>
</g>
<!-- AS1853&#45;&gt;AS3356 -->
<g id="edge2" class="edge"><title>AS1853&#45;&gt;AS3356</title>
<path fill="none" stroke="black" stroke-width="3.15" d="M173.033,-189.038C214.474,-227.918 320.44,-327.337 368.839,-372.746"/>
<polygon fill="black" stroke="black" stroke-width="3.15" points="366.679,-375.518 376.366,-379.808 371.468,-370.413 366.679,-375.518"/>
</g>
<!-- AS1764 -->
<g id="node4" class="node"><title>AS1764</title>
<g id="a_node4"><a xlink:href="/asn/1764" xlink:title="AS1764 ~ NEXTLAYER&#45;AS [AT]">
<ellipse fill="#ffffff" stroke="black" cx="274.782" cy="-173" rx="39.7935" ry="18"/>
<text text-anchor="middle" x="274.782" y="-169.3" font-family="Times,serif" font-size="14.00" fill="#2c94b3">AS1764</text>
</a>
</g>
</g>
<!-- AS1853&#45;&gt;AS1764 -->
<g id="edge3" class="edge"><title>AS1853&#45;&gt;AS1764</title>
<path fill="none" stroke="black" stroke-width="4.5" d="M194.852,-173C204.405,-173 214.755,-173 224.718,-173"/>
<polygon fill="black" stroke="black" stroke-width="4.5" points="224.91,-176.938 234.91,-173 224.91,-169.063 224.91,-176.938"/>
</g>
<!-- AS21320 -->
<g id="node5" class="node"><title>AS21320</title>
<g id="a_node5"><a xlink:href="/asn/21320" xlink:title="AS21320 ~ GEANT Vereniging [EU]">
<ellipse fill="#ffffff" stroke="black" cx="274.782" cy="-112" rx="44.393" ry="18"/>
<text text-anchor="middle" x="274.782" y="-108.3" font-family="Times,serif" font-size="14.00" fill="#2c94b3">AS21320</text>
</a>
</g>
</g>
<!-- AS1853&#45;&gt;AS21320 -->
<g id="edge4" class="edge"><title>AS1853&#45;&gt;AS21320</title>
<path fill="none" stroke="black" stroke-width="0.9" d="M181.8,-159.613C198.186,-151.132 219.614,-140.039 237.666,-130.695"/>
<polygon fill="black" stroke="black" stroke-width="0.9" points="239.482,-133.696 246.753,-125.991 236.264,-127.48 239.482,-133.696"/>
</g>
<!-- AS12956 -->
<g id="node6" class="node"><title>AS12956</title>
<g id="a_node6"><a xlink:href="/asn/12956" xlink:title="AS12956 ~ TELXIUS [ES]">
<ellipse fill="#ffffff" stroke="black" cx="514.467" cy="-558" rx="44.393" ry="18"/>
<text text-anchor="middle" x="514.467" y="-554.3" font-family="Times,serif" font-size="14.00" fill="#2c94b3">AS12956</text>
</a>
</g>
</g>
<!-- AS3356&#45;&gt;AS12956 -->
<g id="edge5" class="edge"><title>AS3356&#45;&gt;AS12956</title>
<path fill="none" stroke="black" d="M402.148,-413.994C412.898,-441.728 436.555,-495.429 470.271,-531 472.655,-533.515 475.322,-535.893 478.128,-538.117"/>
<polygon fill="black" stroke="black" points="476.121,-540.985 486.29,-543.961 480.197,-535.293 476.121,-540.985"/>
</g>
<!-- AS3549 -->
<g id="node7" class="node"><title>AS3549</title>
<g id="a_node7"><a xlink:href="/asn/3549" xlink:title="AS3549 ~ Level 3 Parent, LLC [US]">
<ellipse fill="#ffffff" stroke="black" cx="514.467" cy="-504" rx="39.7935" ry="18"/>
<text text-anchor="middle" x="514.467" y="-500.3" font-family="Times,serif" font-size="14.00" fill="#2c94b3">AS3549</text>
</a>
</g>
</g>
<!-- AS3356&#45;&gt;AS3549 -->
<g id="edge6" class="edge"><title>AS3356&#45;&gt;AS3549</title>
<path fill="none" stroke="black" d="M409.044,-413.065C423.158,-430.375 446.573,-457.345 470.271,-477 473.487,-479.668 476.988,-482.27 480.558,-484.741"/>
<polygon fill="black" stroke="black" points="478.636,-487.666 488.915,-490.236 482.482,-481.817 478.636,-487.666"/>
</g>
<!-- AS6453 -->
<g id="node8" class="node"><title>AS6453</title>
<g id="a_node8"><a xlink:href="/asn/6453" xlink:title="AS6453 ~ TATA COMMUNICATIONS (AMERICA) INC [US]">
<ellipse fill="#ffffff" stroke="black" cx="514.467" cy="-450" rx="39.7935" ry="18"/>
<text text-anchor="middle" x="514.467" y="-446.3" font-family="Times,serif" font-size="14.00" fill="#2c94b3">AS6453</text>
</a>
</g>
</g>
<!-- AS3356&#45;&gt;AS6453 -->
<g id="edge7" class="edge"><title>AS3356&#45;&gt;AS6453</title>
<path fill="none" stroke="black" d="M423.253,-408.661C439.21,-415.973 459.481,-425.261 476.764,-433.181"/>
<polygon fill="black" stroke="black" points="475.462,-436.435 486.011,-437.419 478.378,-430.071 475.462,-436.435"/>
</g>
<!-- AS2497 -->
<g id="node9" class="node"><title>AS2497</title>
<g id="a_node9"><a xlink:href="/asn/2497" xlink:title="AS2497 ~ Internet Initiative Japan Inc. [JP]">
<ellipse fill="#ffffff" stroke="black" cx="514.467" cy="-180" rx="39.7935" ry="18"/>
<text text-anchor="middle" x="514.467" y="-176.3" font-family="Times,serif" font-size="14.00" fill="#2c94b3">AS2497</text>
</a>
</g>
</g>
<!-- AS3356&#45;&gt;AS2497 -->
<g id="edge8" class="edge"><title>AS3356&#45;&gt;AS2497</title>
<path fill="none" stroke="black" d="M410.225,-379.009C418.312,-368.845 427.974,-355.345 434.271,-342 460.77,-285.841 433.368,-256.941 470.271,-207 472.505,-203.977 475.187,-201.214 478.108,-198.707"/>
<polygon fill="black" stroke="black" points="480.303,-201.437 486.252,-192.669 476.134,-195.814 480.303,-201.437"/>
</g>
<!-- AS3257 -->
<g id="node10" class="node"><title>AS3257</title>
<g id="a_node10"><a xlink:href="/asn/3257" xlink:title="AS3257 ~ GTT [DE]">
<ellipse fill="#ffffff" stroke="black" cx="514.467" cy="-396" rx="39.7935" ry="18"/>
<text text-anchor="middle" x="514.467" y="-392.3" font-family="Times,serif" font-size="14.00" fill="#2c94b3">AS3257</text>
</a>
</g>
</g>
<!-- AS3356&#45;&gt;AS3257 -->
<g id="edge9" class="edge"><title>AS3356&#45;&gt;AS3257</title>
<path fill="none" stroke="black" d="M434.537,-396C444.091,-396 454.44,-396 464.403,-396"/>
<polygon fill="black" stroke="black" points="464.595,-399.5 474.595,-396 464.595,-392.5 464.595,-399.5"/>
</g>
<!-- AS6762 -->
<g id="node11" class="node"><title>AS6762</title>
<g id="a_node11"><a xlink:href="/asn/6762" xlink:title="AS6762 ~ TELECOM ITALIA SPARKLE S.p.A. [IT]">
<ellipse fill="#ffffff" stroke="black" cx="514.467" cy="-234" rx="39.7935" ry="18"/>
<text text-anchor="middle" x="514.467" y="-230.3" font-family="Times,serif" font-size="14.00" fill="#2c94b3">AS6762</text>
</a>
</g>
</g>
<!-- AS3356&#45;&gt;AS6762 -->
<g id="edge10" class="edge"><title>AS3356&#45;&gt;AS6762</title>
<path fill="none" stroke="black" d="M409.086,-379.087C416.979,-368.73 426.828,-355.008 434.271,-342 453.835,-307.806 444.437,-290.742 470.271,-261 472.736,-258.162 475.573,-255.523 478.59,-253.094"/>
<polygon fill="black" stroke="black" points="480.777,-255.833 486.868,-247.164 476.701,-250.142 480.777,-255.833"/>
</g>
<!-- AS1299 -->
<g id="node12" class="node"><title>AS1299</title>
<g id="a_node12"><a xlink:href="/asn/1299" xlink:title="AS1299 ~ Telia Carrier [EU]">
<ellipse fill="#ffffff" stroke="black" cx="394.625" cy="-315" rx="39.7935" ry="18"/>
<text text-anchor="middle" x="394.625" y="-311.3" font-family="Times,serif" font-size="14.00" fill="#2c94b3">AS1299</text>
</a>
</g>
</g>
<!-- AS1764&#45;&gt;AS1299 -->
<g id="edge11" class="edge"><title>AS1764&#45;&gt;AS1299</title>
<path fill="none" stroke="black" stroke-width="3" d="M289.763,-189.847C310.405,-214.721 349.165,-261.426 373.054,-290.212"/>
<polygon fill="black" stroke="black" stroke-width="3" points="370.582,-292.715 379.662,-298.175 375.969,-288.245 370.582,-292.715"/>
</g>
<!-- AS2914 -->
<g id="node13" class="node"><title>AS2914</title>
<g id="a_node13"><a xlink:href="/asn/2914" xlink:title="AS2914 ~ NTT America, Inc. [US]">
<ellipse fill="#ffffff" stroke="black" cx="394.625" cy="-170" rx="39.7935" ry="18"/>
<text text-anchor="middle" x="394.625" y="-166.3" font-family="Times,serif" font-size="14.00" fill="#2c94b3">AS2914</text>
</a>
</g>
</g>
<!-- AS1764&#45;&gt;AS2914 -->
<g id="edge12" class="edge"><title>AS1764&#45;&gt;AS2914</title>
<path fill="none" stroke="black" stroke-width="4.5" d="M314.695,-172.009C324.248,-171.766 334.598,-171.503 344.56,-171.249"/>
<polygon fill="black" stroke="black" stroke-width="4.5" points="344.856,-175.18 354.753,-170.99 344.656,-167.308 344.856,-175.18"/>
</g>
<!-- AS2603 -->
<g id="node19" class="node"><title>AS2603</title>
<g id="a_node19"><a xlink:href="/asn/2603" xlink:title="AS2603 ~ NORDUnet [NO]">
<ellipse fill="#ffffff" stroke="black" cx="394.625" cy="-45" rx="39.7935" ry="18"/>
<text text-anchor="middle" x="394.625" y="-41.3" font-family="Times,serif" font-size="14.00" fill="#2c94b3">AS2603</text>
</a>
</g>
</g>
<!-- AS21320&#45;&gt;AS2603 -->
<g id="edge21" class="edge"><title>AS21320&#45;&gt;AS2603</title>
<path fill="none" stroke="black" d="M301.352,-97.462C318.571,-87.6719 341.457,-74.6603 360.128,-64.0447"/>
<polygon fill="black" stroke="black" points="361.949,-67.0357 368.912,-59.0505 358.489,-60.9505 361.949,-67.0357"/>
</g>
<!-- AS6461 -->
<g id="node20" class="node"><title>AS6461</title>
<g id="a_node20"><a xlink:href="/asn/6461" xlink:title="AS6461 ~ Zayo Bandwidth [US]">
<ellipse fill="#ffffff" stroke="black" cx="394.625" cy="-112" rx="39.7935" ry="18"/>
<text text-anchor="middle" x="394.625" y="-108.3" font-family="Times,serif" font-size="14.00" fill="#2c94b3">AS6461</text>
</a>
</g>
</g>
<!-- AS21320&#45;&gt;AS6461 -->
<g id="edge22" class="edge"><title>AS21320&#45;&gt;AS6461</title>
<path fill="none" stroke="black" d="M318.993,-112C327.306,-112 336.068,-112 344.551,-112"/>
<polygon fill="black" stroke="black" points="344.709,-115.5 354.709,-112 344.709,-108.5 344.709,-115.5"/>
</g>
<!-- AS1299&#45;&gt;AS3257 -->
<g id="edge14" class="edge"><title>AS1299&#45;&gt;AS3257</title>
<path fill="none" stroke="black" d="M415.955,-330.277C430.817,-341.304 451.562,-356.407 470.271,-369 473.82,-371.389 477.57,-373.839 481.319,-376.242"/>
<polygon fill="black" stroke="black" points="479.645,-379.325 489.967,-381.712 483.387,-373.409 479.645,-379.325"/>
</g>
<!-- AS1239 -->
<g id="node14" class="node"><title>AS1239</title>
<g id="a_node14"><a xlink:href="/asn/1239" xlink:title="AS1239 ~ Sprint [US]">
<ellipse fill="#ffffff" stroke="black" cx="514.467" cy="-342" rx="39.7935" ry="18"/>
<text text-anchor="middle" x="514.467" y="-338.3" font-family="Times,serif" font-size="14.00" fill="#2c94b3">AS1239</text>
</a>
</g>
</g>
<!-- AS1299&#45;&gt;AS1239 -->
<g id="edge13" class="edge"><title>AS1299&#45;&gt;AS1239</title>
<path fill="none" stroke="black" d="M430.344,-322.955C442.344,-325.704 455.965,-328.825 468.657,-331.733"/>
<polygon fill="black" stroke="black" points="468.06,-335.187 478.589,-334.009 469.623,-328.364 468.06,-335.187"/>
</g>
<!-- AS7018 -->
<g id="node15" class="node"><title>AS7018</title>
<g id="a_node15"><a xlink:href="/asn/7018" xlink:title="AS7018 ~ AT&amp;T Services, Inc. [US]">
<ellipse fill="#ffffff" stroke="black" cx="514.467" cy="-288" rx="39.7935" ry="18"/>
<text text-anchor="middle" x="514.467" y="-284.3" font-family="Times,serif" font-size="14.00" fill="#2c94b3">AS7018</text>
</a>
</g>
</g>
<!-- AS1299&#45;&gt;AS7018 -->
<g id="edge15" class="edge"><title>AS1299&#45;&gt;AS7018</title>
<path fill="none" stroke="black" d="M430.344,-307.045C442.344,-304.296 455.965,-301.175 468.657,-298.267"/>
<polygon fill="black" stroke="black" points="469.623,-301.636 478.589,-295.991 468.06,-294.813 469.623,-301.636"/>
</g>
<!-- AS2914&#45;&gt;AS2497 -->
<g id="edge20" class="edge"><title>AS2914&#45;&gt;AS2497</title>
<path fill="none" stroke="black" d="M433.885,-173.247C443.865,-174.094 454.75,-175.017 465.176,-175.902"/>
<polygon fill="black" stroke="black" points="465.139,-179.411 475.399,-176.77 465.731,-172.436 465.139,-179.411"/>
</g>
<!-- AS2914&#45;&gt;AS6762 -->
<g id="edge16" class="edge"><title>AS2914&#45;&gt;AS6762</title>
<path fill="none" stroke="black" d="M420.905,-183.73C437.992,-193.009 460.755,-205.372 479.431,-215.515"/>
<polygon fill="black" stroke="black" points="477.771,-218.596 488.229,-220.293 481.112,-212.445 477.771,-218.596"/>
</g>
<!-- AS701 -->
<g id="node16" class="node"><title>AS701</title>
<g id="a_node16"><a xlink:href="/asn/701" xlink:title="AS701 ~ UUNET [US]">
<ellipse fill="#ffffff" stroke="black" cx="514.467" cy="-72" rx="35.194" ry="18"/>
<text text-anchor="middle" x="514.467" y="-68.3" font-family="Times,serif" font-size="14.00" fill="#2c94b3">AS701</text>
</a>
</g>
</g>
<!-- AS2914&#45;&gt;AS701 -->
<g id="edge17" class="edge"><title>AS2914&#45;&gt;AS701</title>
<path fill="none" stroke="black" d="M416.202,-154.506C422.197,-149.726 428.644,-144.316 434.271,-139 451.656,-122.575 451.952,-114.377 470.271,-99 473.717,-96.1073 477.5,-93.298 481.348,-90.6532"/>
<polygon fill="black" stroke="black" points="483.311,-93.5516 489.776,-85.1575 479.488,-87.6882 483.311,-93.5516"/>
</g>
<!-- AS174 -->
<g id="node17" class="node"><title>AS174</title>
<g id="a_node17"><a xlink:href="/asn/174" xlink:title="AS174 ~ Cogent Communications [US]">
<ellipse fill="#ffffff" stroke="black" cx="514.467" cy="-126" rx="35.194" ry="18"/>
<text text-anchor="middle" x="514.467" y="-122.3" font-family="Times,serif" font-size="14.00" fill="#2c94b3">AS174</text>
</a>
</g>
</g>
<!-- AS2914&#45;&gt;AS174 -->
<g id="edge18" class="edge"><title>AS2914&#45;&gt;AS174</title>
<path fill="none" stroke="black" d="M425.666,-158.783C440.913,-153.09 459.588,-146.117 475.789,-140.068"/>
<polygon fill="black" stroke="black" points="477.36,-143.218 485.504,-136.441 474.911,-136.66 477.36,-143.218"/>
</g>
<!-- AS3491 -->
<g id="node18" class="node"><title>AS3491</title>
<g id="a_node18"><a xlink:href="/asn/3491" xlink:title="AS3491 ~ PCCW Global, Inc. [US]">
<ellipse fill="#ffffff" stroke="black" cx="514.467" cy="-18" rx="39.7935" ry="18"/>
<text text-anchor="middle" x="514.467" y="-14.3" font-family="Times,serif" font-size="14.00" fill="#2c94b3">AS3491</text>
</a>
</g>
</g>
<!-- AS2914&#45;&gt;AS3491 -->
<g id="edge19" class="edge"><title>AS2914&#45;&gt;AS3491</title>
<path fill="none" stroke="black" d="M417.947,-155.371C423.85,-150.689 429.81,-145.115 434.271,-139 460.637,-102.858 441.831,-79.5329 470.271,-45 472.661,-42.0987 475.447,-39.4165 478.433,-36.9608"/>
<polygon fill="black" stroke="black" points="480.624,-39.6958 486.667,-30.9938 476.516,-34.0276 480.624,-39.6958"/>
</g>
<!-- AS2603&#45;&gt;AS3491 -->
<g id="edge23" class="edge"><title>AS2603&#45;&gt;AS3491</title>
<path fill="none" stroke="black" d="M430.344,-37.0451C442.344,-34.2957 455.965,-31.1749 468.657,-28.2668"/>
<polygon fill="black" stroke="black" points="469.623,-31.6363 478.589,-25.9913 468.06,-24.8131 469.623,-31.6363"/>
</g>
</g>
</svg>
