<?xml version="1.0" encoding="UTF-8" standalone="no"?>
<!DOCTYPE svg PUBLIC "-//W3C//DTD SVG 1.1//EN"
 "http://www.w3.org/Graphics/SVG/1.1/DTD/svg11.dtd">
<!-- Generated by graphviz version 2.38.0 (20140413.2041)
 -->
<!-- Title: AS20537 Combined Upstream Graph Pages: 1 -->
<svg width="576pt" height="611pt"
 viewBox="0.00 0.00 575.76 611.00" xmlns="http://www.w3.org/2000/svg" xmlns:xlink="http://www.w3.org/1999/xlink">
<g id="graph0" class="graph" transform="scale(1 1) rotate(0) translate(4 607)">
<title>AS20537 Combined Upstream Graph</title>
<polygon fill="white" stroke="none" points="-4,4 -4,-607 571.762,-607 571.762,4 -4,4"/>
<!-- AS20537 -->
<g id="node1" class="node"><title>AS20537</title>
<g id="a_node1"><a xlink:href="/asn/20537" xlink:title="AS20537 ~ Austria [AT]">
<ellipse fill="#ffffff" stroke="black" cx="44.1961" cy="-207" rx="44.393" ry="18"/>
<text text-anchor="middle" x="44.1961" y="-203.3" font-family="Times,serif" font-size="14.00" fill="#880000">AS20537</text>
</a>
</g>
</g>
<!-- AS1853 -->
<g id="node2" class="node"><title>AS1853</title>
<g id="a_node2"><a xlink:href="/asn/1853" xlink:title="AS1853 ~ ACOnet Backbone [AT]">
<ellipse fill="#ffffff" stroke="black" cx="164.039" cy="-207" rx="39.7935" ry="18"/>
<text text-anchor="middle" x="164.039" y="-203.3" font-family="Times,serif" font-size="14.00" fill="#2c94b3">AS1853</text>
</a>
</g>
</g>
<!-- AS20537&#45;&gt;AS1853 -->
<g id="edge1" class="edge"><title>AS20537&#45;&gt;AS1853</title>
<path fill="none" stroke="black" stroke-width="4.5" d="M88.4072,-207C96.7198,-207 105.482,-207 113.965,-207"/>
<polygon fill="black" stroke="black" stroke-width="4.5" points="114.123,-210.938 124.123,-207 114.123,-203.063 114.123,-210.938"/>
</g>
<!-- AS1764 -->
<g id="node3" class="node"><title>AS1764</title>
<g id="a_node3"><a xlink:href="/asn/1764" xlink:title="AS1764 ~ NEXTLAYER&#45;AS [AT]">
<ellipse fill="#ffffff" stroke="black" cx="283.881" cy="-207" rx="39.7935" ry="18"/>
<text text-anchor="middle" x="283.881" y="-203.3" font-family="Times,serif" font-size="14.00" fill="#2c94b3">AS1764</text>
</a>
</g>
</g>
<!-- AS1853&#45;&gt;AS1764 -->
<g id="edge2" class="edge"><title>AS1853&#45;&gt;AS1764</title>
<path fill="none" stroke="black" stroke-width="4.5" d="M203.951,-207C213.505,-207 223.854,-207 233.817,-207"/>
<polygon fill="black" stroke="black" stroke-width="4.5" points="234.009,-210.938 244.009,-207 234.009,-203.063 234.009,-210.938"/>
</g>
<!-- AS3356 -->
<g id="node4" class="node"><title>AS3356</title>
<g id="a_node4"><a xlink:href="/asn/3356" xlink:title="AS3356 ~ Level 3 Parent, LLC [US]">
<ellipse fill="#ffffff" stroke="black" cx="403.724" cy="-423" rx="39.7935" ry="18"/>
<text text-anchor="middle" x="403.724" y="-419.3" font-family="Times,serif" font-size="14.00" fill="#2c94b3">AS3356</text>
</a>
</g>
</g>
<!-- AS1853&#45;&gt;AS3356 -->
<g id="edge3" class="edge"><title>AS1853&#45;&gt;AS3356</title>
<path fill="none" stroke="black" stroke-width="2.86364" d="M182.904,-223.235C224.731,-261.247 329.126,-356.116 377.447,-400.03"/>
<polygon fill="black" stroke="black" stroke-width="2.86364" points="375.221,-402.736 384.976,-406.871 379.929,-397.555 375.221,-402.736"/>
</g>
<!-- AS21320 -->
<g id="node5" class="node"><title>AS21320</title>
<g id="a_node5"><a xlink:href="/asn/21320" xlink:title="AS21320 ~ GEANT Vereniging [EU]">
<ellipse fill="#ffffff" stroke="black" cx="283.881" cy="-72" rx="44.393" ry="18"/>
<text text-anchor="middle" x="283.881" y="-68.3" font-family="Times,serif" font-size="14.00" fill="#2c94b3">AS21320</text>
</a>
</g>
</g>
<!-- AS1853&#45;&gt;AS21320 -->
<g id="edge4" class="edge"><title>AS1853&#45;&gt;AS21320</title>
<path fill="none" stroke="black" stroke-width="0.818182" d="M179.725,-190.175C200.278,-166.63 237.753,-123.698 261.431,-96.5736"/>
<polygon fill="black" stroke="black" stroke-width="0.818182" points="264.07,-98.8722 268.01,-89.0369 258.797,-94.2689 264.07,-98.8722"/>
</g>
<!-- AS2914 -->
<g id="node6" class="node"><title>AS2914</title>
<g id="a_node6"><a xlink:href="/asn/2914" xlink:title="AS2914 ~ NTT America, Inc. [US]">
<ellipse fill="#ffffff" stroke="black" cx="403.724" cy="-153" rx="39.7935" ry="18"/>
<text text-anchor="middle" x="403.724" y="-149.3" font-family="Times,serif" font-size="14.00" fill="#2c94b3">AS2914</text>
</a>
</g>
</g>
<!-- AS1764&#45;&gt;AS2914 -->
<g id="edge5" class="edge"><title>AS1764&#45;&gt;AS2914</title>
<path fill="none" stroke="black" stroke-width="3.75" d="M312.51,-194.339C328.467,-187.027 348.738,-177.739 366.02,-169.819"/>
<polygon fill="black" stroke="black" stroke-width="3.75" points="367.635,-172.929 375.268,-165.581 364.719,-166.565 367.635,-172.929"/>
</g>
<!-- AS1299 -->
<g id="node7" class="node"><title>AS1299</title>
<g id="a_node7"><a xlink:href="/asn/1299" xlink:title="AS1299 ~ Telia Carrier [EU]">
<ellipse fill="#ffffff" stroke="black" cx="403.724" cy="-234" rx="39.7935" ry="18"/>
<text text-anchor="middle" x="403.724" y="-230.3" font-family="Times,serif" font-size="14.00" fill="#2c94b3">AS1299</text>
</a>
</g>
</g>
<!-- AS1764&#45;&gt;AS1299 -->
<g id="edge6" class="edge"><title>AS1764&#45;&gt;AS1299</title>
<path fill="none" stroke="black" stroke-width="4.5" d="M319.6,-214.955C331.6,-217.704 345.221,-220.825 357.914,-223.733"/>
<polygon fill="black" stroke="black" stroke-width="4.5" points="357.219,-227.613 367.845,-226.009 358.977,-219.937 357.219,-227.613"/>
</g>
<!-- AS6762 -->
<g id="node8" class="node"><title>AS6762</title>
<g id="a_node8"><a xlink:href="/asn/6762" xlink:title="AS6762 ~ TELECOM ITALIA SPARKLE S.p.A. [IT]">
<ellipse fill="#ffffff" stroke="black" cx="523.566" cy="-261" rx="39.7935" ry="18"/>
<text text-anchor="middle" x="523.566" y="-257.3" font-family="Times,serif" font-size="14.00" fill="#2c94b3">AS6762</text>
</a>
</g>
</g>
<!-- AS3356&#45;&gt;AS6762 -->
<g id="edge21" class="edge"><title>AS3356&#45;&gt;AS6762</title>
<path fill="none" stroke="black" d="M411.247,-405.006C421.997,-377.272 445.655,-323.571 479.37,-288 481.956,-285.272 484.874,-282.706 487.942,-280.323"/>
<polygon fill="black" stroke="black" points="490.12,-283.07 496.29,-274.457 486.096,-277.342 490.12,-283.07"/>
</g>
<!-- AS3257 -->
<g id="node13" class="node"><title>AS3257</title>
<g id="a_node13"><a xlink:href="/asn/3257" xlink:title="AS3257 ~ GTT [DE]">
<ellipse fill="#ffffff" stroke="black" cx="523.566" cy="-369" rx="39.7935" ry="18"/>
<text text-anchor="middle" x="523.566" y="-365.3" font-family="Times,serif" font-size="14.00" fill="#2c94b3">AS3257</text>
</a>
</g>
</g>
<!-- AS3356&#45;&gt;AS3257 -->
<g id="edge20" class="edge"><title>AS3356&#45;&gt;AS3257</title>
<path fill="none" stroke="black" d="M432.353,-410.339C448.31,-403.027 468.58,-393.739 485.863,-385.819"/>
<polygon fill="black" stroke="black" points="487.478,-388.929 495.111,-381.581 484.562,-382.565 487.478,-388.929"/>
</g>
<!-- AS701 -->
<g id="node15" class="node"><title>AS701</title>
<g id="a_node15"><a xlink:href="/asn/701" xlink:title="AS701 ~ UUNET [US]">
<ellipse fill="#ffffff" stroke="black" cx="523.566" cy="-477" rx="35.194" ry="18"/>
<text text-anchor="middle" x="523.566" y="-473.3" font-family="Times,serif" font-size="14.00" fill="#2c94b3">AS701</text>
</a>
</g>
</g>
<!-- AS3356&#45;&gt;AS701 -->
<g id="edge16" class="edge"><title>AS3356&#45;&gt;AS701</title>
<path fill="none" stroke="black" d="M432.353,-435.661C448.769,-443.183 469.75,-452.798 487.347,-460.861"/>
<polygon fill="black" stroke="black" points="486.176,-464.174 496.725,-465.158 489.092,-457.811 486.176,-464.174"/>
</g>
<!-- AS2497 -->
<g id="node16" class="node"><title>AS2497</title>
<g id="a_node16"><a xlink:href="/asn/2497" xlink:title="AS2497 ~ Internet Initiative Japan Inc. [JP]">
<ellipse fill="#ffffff" stroke="black" cx="523.566" cy="-423" rx="39.7935" ry="18"/>
<text text-anchor="middle" x="523.566" y="-419.3" font-family="Times,serif" font-size="14.00" fill="#2c94b3">AS2497</text>
</a>
</g>
</g>
<!-- AS3356&#45;&gt;AS2497 -->
<g id="edge17" class="edge"><title>AS3356&#45;&gt;AS2497</title>
<path fill="none" stroke="black" d="M443.636,-423C453.19,-423 463.539,-423 473.502,-423"/>
<polygon fill="black" stroke="black" points="473.695,-426.5 483.695,-423 473.694,-419.5 473.695,-426.5"/>
</g>
<!-- AS6453 -->
<g id="node17" class="node"><title>AS6453</title>
<g id="a_node17"><a xlink:href="/asn/6453" xlink:title="AS6453 ~ TATA COMMUNICATIONS (AMERICA) INC [US]">
<ellipse fill="#ffffff" stroke="black" cx="523.566" cy="-585" rx="39.7935" ry="18"/>
<text text-anchor="middle" x="523.566" y="-581.3" font-family="Times,serif" font-size="14.00" fill="#2c94b3">AS6453</text>
</a>
</g>
</g>
<!-- AS3356&#45;&gt;AS6453 -->
<g id="edge18" class="edge"><title>AS3356&#45;&gt;AS6453</title>
<path fill="none" stroke="black" d="M411.247,-440.994C421.997,-468.728 445.655,-522.429 479.37,-558 481.956,-560.728 484.874,-563.294 487.942,-565.677"/>
<polygon fill="black" stroke="black" points="486.096,-568.658 496.29,-571.543 490.12,-562.93 486.096,-568.658"/>
</g>
<!-- AS3549 -->
<g id="node18" class="node"><title>AS3549</title>
<g id="a_node18"><a xlink:href="/asn/3549" xlink:title="AS3549 ~ Level 3 Parent, LLC [US]">
<ellipse fill="#ffffff" stroke="black" cx="523.566" cy="-531" rx="39.7935" ry="18"/>
<text text-anchor="middle" x="523.566" y="-527.3" font-family="Times,serif" font-size="14.00" fill="#2c94b3">AS3549</text>
</a>
</g>
</g>
<!-- AS3356&#45;&gt;AS3549 -->
<g id="edge19" class="edge"><title>AS3356&#45;&gt;AS3549</title>
<path fill="none" stroke="black" d="M418.143,-440.065C432.257,-457.375 455.672,-484.345 479.37,-504 482.587,-506.668 486.087,-509.27 489.658,-511.741"/>
<polygon fill="black" stroke="black" points="487.735,-514.666 498.014,-517.236 491.581,-508.817 487.735,-514.666"/>
</g>
<!-- AS6461 -->
<g id="node19" class="node"><title>AS6461</title>
<g id="a_node19"><a xlink:href="/asn/6461" xlink:title="AS6461 ~ Zayo Bandwidth [US]">
<ellipse fill="#ffffff" stroke="black" cx="403.724" cy="-18" rx="39.7935" ry="18"/>
<text text-anchor="middle" x="403.724" y="-14.3" font-family="Times,serif" font-size="14.00" fill="#2c94b3">AS6461</text>
</a>
</g>
</g>
<!-- AS21320&#45;&gt;AS6461 -->
<g id="edge22" class="edge"><title>AS21320&#45;&gt;AS6461</title>
<path fill="none" stroke="black" d="M314.011,-58.6517C329.622,-51.498 349.02,-42.6093 365.692,-34.9695"/>
<polygon fill="black" stroke="black" points="367.511,-37.986 375.144,-30.6382 364.595,-31.6223 367.511,-37.986"/>
</g>
<!-- AS2603 -->
<g id="node20" class="node"><title>AS2603</title>
<g id="a_node20"><a xlink:href="/asn/2603" xlink:title="AS2603 ~ NORDUnet [NO]">
<ellipse fill="#ffffff" stroke="black" cx="403.724" cy="-72" rx="39.7935" ry="18"/>
<text text-anchor="middle" x="403.724" y="-68.3" font-family="Times,serif" font-size="14.00" fill="#2c94b3">AS2603</text>
</a>
</g>
</g>
<!-- AS21320&#45;&gt;AS2603 -->
<g id="edge23" class="edge"><title>AS21320&#45;&gt;AS2603</title>
<path fill="none" stroke="black" d="M328.092,-72C336.405,-72 345.168,-72 353.65,-72"/>
<polygon fill="black" stroke="black" points="353.809,-75.5001 363.809,-72 353.809,-68.5001 353.809,-75.5001"/>
</g>
<!-- AS2914&#45;&gt;AS6762 -->
<g id="edge7" class="edge"><title>AS2914&#45;&gt;AS6762</title>
<path fill="none" stroke="black" d="M418.143,-170.065C432.257,-187.375 455.672,-214.345 479.37,-234 482.587,-236.668 486.087,-239.27 489.658,-241.741"/>
<polygon fill="black" stroke="black" points="487.735,-244.666 498.014,-247.236 491.581,-238.817 487.735,-244.666"/>
</g>
<!-- AS3491 -->
<g id="node9" class="node"><title>AS3491</title>
<g id="a_node9"><a xlink:href="/asn/3491" xlink:title="AS3491 ~ PCCW Global, Inc. [US]">
<ellipse fill="#ffffff" stroke="black" cx="523.566" cy="-45" rx="39.7935" ry="18"/>
<text text-anchor="middle" x="523.566" y="-41.3" font-family="Times,serif" font-size="14.00" fill="#2c94b3">AS3491</text>
</a>
</g>
</g>
<!-- AS2914&#45;&gt;AS3491 -->
<g id="edge8" class="edge"><title>AS2914&#45;&gt;AS3491</title>
<path fill="none" stroke="black" d="M418.143,-135.935C432.257,-118.625 455.672,-91.6554 479.37,-72 482.587,-69.3323 486.087,-66.7296 489.658,-64.2588"/>
<polygon fill="black" stroke="black" points="491.581,-67.1827 498.014,-58.7642 487.735,-61.3338 491.581,-67.1827"/>
</g>
<!-- AS174 -->
<g id="node10" class="node"><title>AS174</title>
<g id="a_node10"><a xlink:href="/asn/174" xlink:title="AS174 ~ Cogent Communications [US]">
<ellipse fill="#ffffff" stroke="black" cx="523.566" cy="-153" rx="35.194" ry="18"/>
<text text-anchor="middle" x="523.566" y="-149.3" font-family="Times,serif" font-size="14.00" fill="#2c94b3">AS174</text>
</a>
</g>
</g>
<!-- AS2914&#45;&gt;AS174 -->
<g id="edge9" class="edge"><title>AS2914&#45;&gt;AS174</title>
<path fill="none" stroke="black" d="M443.636,-153C454.723,-153 466.883,-153 478.265,-153"/>
<polygon fill="black" stroke="black" points="478.447,-156.5 488.447,-153 478.447,-149.5 478.447,-156.5"/>
</g>
<!-- AS12956 -->
<g id="node11" class="node"><title>AS12956</title>
<g id="a_node11"><a xlink:href="/asn/12956" xlink:title="AS12956 ~ TELXIUS [ES]">
<ellipse fill="#ffffff" stroke="black" cx="523.566" cy="-99" rx="44.393" ry="18"/>
<text text-anchor="middle" x="523.566" y="-95.3" font-family="Times,serif" font-size="14.00" fill="#2c94b3">AS12956</text>
</a>
</g>
</g>
<!-- AS2914&#45;&gt;AS12956 -->
<g id="edge10" class="edge"><title>AS2914&#45;&gt;AS12956</title>
<path fill="none" stroke="black" d="M432.353,-140.339C447.85,-133.238 467.417,-124.272 484.364,-116.506"/>
<polygon fill="black" stroke="black" points="485.833,-119.683 493.466,-112.335 482.917,-113.319 485.833,-119.683"/>
</g>
<!-- AS1299&#45;&gt;AS6762 -->
<g id="edge13" class="edge"><title>AS1299&#45;&gt;AS6762</title>
<path fill="none" stroke="black" d="M439.443,-241.955C451.443,-244.704 465.064,-247.825 477.756,-250.733"/>
<polygon fill="black" stroke="black" points="477.159,-254.187 487.688,-253.009 478.722,-247.364 477.159,-254.187"/>
</g>
<!-- AS1299&#45;&gt;AS174 -->
<g id="edge11" class="edge"><title>AS1299&#45;&gt;AS174</title>
<path fill="none" stroke="black" d="M425.054,-218.723C439.916,-207.696 460.661,-192.593 479.37,-180 483.188,-177.431 487.238,-174.79 491.268,-172.214"/>
<polygon fill="black" stroke="black" points="493.372,-175.025 499.962,-166.729 489.637,-169.105 493.372,-175.025"/>
</g>
<!-- AS7018 -->
<g id="node12" class="node"><title>AS7018</title>
<g id="a_node12"><a xlink:href="/asn/7018" xlink:title="AS7018 ~ AT&amp;T Services, Inc. [US]">
<ellipse fill="#ffffff" stroke="black" cx="523.566" cy="-207" rx="39.7935" ry="18"/>
<text text-anchor="middle" x="523.566" y="-203.3" font-family="Times,serif" font-size="14.00" fill="#2c94b3">AS7018</text>
</a>
</g>
</g>
<!-- AS1299&#45;&gt;AS7018 -->
<g id="edge12" class="edge"><title>AS1299&#45;&gt;AS7018</title>
<path fill="none" stroke="black" d="M439.443,-226.045C451.443,-223.296 465.064,-220.175 477.756,-217.267"/>
<polygon fill="black" stroke="black" points="478.722,-220.636 487.688,-214.991 477.159,-213.813 478.722,-220.636"/>
</g>
<!-- AS1299&#45;&gt;AS3257 -->
<g id="edge14" class="edge"><title>AS1299&#45;&gt;AS3257</title>
<path fill="none" stroke="black" d="M413.965,-251.713C426.51,-274.561 450.687,-314.611 479.37,-342 482.238,-344.739 485.427,-347.347 488.736,-349.785"/>
<polygon fill="black" stroke="black" points="486.86,-352.742 497.096,-355.477 490.8,-346.956 486.86,-352.742"/>
</g>
<!-- AS1239 -->
<g id="node14" class="node"><title>AS1239</title>
<g id="a_node14"><a xlink:href="/asn/1239" xlink:title="AS1239 ~ Sprint [US]">
<ellipse fill="#ffffff" stroke="black" cx="523.566" cy="-315" rx="39.7935" ry="18"/>
<text text-anchor="middle" x="523.566" y="-311.3" font-family="Times,serif" font-size="14.00" fill="#2c94b3">AS1239</text>
</a>
</g>
</g>
<!-- AS1299&#45;&gt;AS1239 -->
<g id="edge15" class="edge"><title>AS1299&#45;&gt;AS1239</title>
<path fill="none" stroke="black" d="M425.054,-249.277C439.916,-260.304 460.661,-275.407 479.37,-288 482.919,-290.389 486.67,-292.839 490.418,-295.242"/>
<polygon fill="black" stroke="black" points="488.744,-298.325 499.067,-300.712 492.486,-292.409 488.744,-298.325"/>
</g>
<!-- AS2603&#45;&gt;AS3491 -->
<g id="edge24" class="edge"><title>AS2603&#45;&gt;AS3491</title>
<path fill="none" stroke="black" d="M439.443,-64.0451C451.443,-61.2957 465.064,-58.1749 477.756,-55.2668"/>
<polygon fill="black" stroke="black" points="478.722,-58.6363 487.688,-52.9913 477.159,-51.8131 478.722,-58.6363"/>
</g>
</g>
</svg>
