<?xml version="1.0" encoding="UTF-8" standalone="no"?>
<!DOCTYPE svg PUBLIC "-//W3C//DTD SVG 1.1//EN"
 "http://www.w3.org/Graphics/SVG/1.1/DTD/svg11.dtd">
<!-- Generated by graphviz version 2.38.0 (20140413.2041)
 -->
<!-- Title: AS200970 IPv4 Upstream Graph Pages: 1 -->
<svg width="459pt" height="530pt"
 viewBox="0.00 0.00 459.17 530.00" xmlns="http://www.w3.org/2000/svg" xmlns:xlink="http://www.w3.org/1999/xlink">
<g id="graph0" class="graph" transform="scale(1 1) rotate(0) translate(4 526)">
<title>AS200970 IPv4 Upstream Graph</title>
<polygon fill="white" stroke="none" points="-4,4 -4,-526 455.17,-526 455.17,4 -4,4"/>
<!-- AS200970 -->
<g id="node1" class="node"><title>AS200970</title>
<g id="a_node1"><a xlink:href="/asn/200970" xlink:title="AS200970 ~ Riepert Informationstechnologie OG [AT]">
<ellipse fill="#ffffff" stroke="black" cx="48.0957" cy="-287" rx="48.1917" ry="18"/>
<text text-anchor="middle" x="48.0957" y="-283.3" font-family="Times,serif" font-size="14.00" fill="#880000">AS200970</text>
</a>
</g>
</g>
<!-- AS8447 -->
<g id="node2" class="node"><title>AS8447</title>
<g id="a_node2"><a xlink:href="/asn/8447" xlink:title="AS8447 ~ A1 Telekom Austria AG [AT]">
<ellipse fill="#ffffff" stroke="black" cx="176.388" cy="-355" rx="39.7935" ry="18"/>
<text text-anchor="middle" x="176.388" y="-351.3" font-family="Times,serif" font-size="14.00" fill="#2c94b3">AS8447</text>
</a>
</g>
</g>
<!-- AS200970&#45;&gt;AS8447 -->
<g id="edge1" class="edge"><title>AS200970&#45;&gt;AS8447</title>
<path fill="none" stroke="black" stroke-width="4.5" d="M76.4992,-301.755C95.4982,-311.985 120.934,-325.68 141.251,-336.62"/>
<polygon fill="black" stroke="black" stroke-width="4.5" points="139.512,-340.155 150.184,-341.429 143.246,-333.222 139.512,-340.155"/>
</g>
<!-- AS35369 -->
<g id="node3" class="node"><title>AS35369</title>
<g id="a_node3"><a xlink:href="/asn/35369" xlink:title="AS35369 ~ LAGIS&#45;AS [AT]">
<ellipse fill="#ffffff" stroke="black" cx="176.388" cy="-173" rx="44.393" ry="18"/>
<text text-anchor="middle" x="176.388" y="-169.3" font-family="Times,serif" font-size="14.00" fill="#2c94b3">AS35369</text>
</a>
</g>
</g>
<!-- AS200970&#45;&gt;AS35369 -->
<g id="edge2" class="edge"><title>AS200970&#45;&gt;AS35369</title>
<path fill="none" stroke="black" stroke-width="2.86364" d="M67.4596,-270.423C89.0654,-250.921 125.082,-218.409 149.51,-196.359"/>
<polygon fill="black" stroke="black" stroke-width="2.86364" points="151.924,-198.895 157.001,-189.597 147.233,-193.699 151.924,-198.895"/>
</g>
<!-- AS6762 -->
<g id="node4" class="node"><title>AS6762</title>
<g id="a_node4"><a xlink:href="/asn/6762" xlink:title="AS6762 ~ TELECOM ITALIA SPARKLE S.p.A. [IT]">
<ellipse fill="#ffffff" stroke="black" cx="296.23" cy="-409" rx="39.7935" ry="18"/>
<text text-anchor="middle" x="296.23" y="-405.3" font-family="Times,serif" font-size="14.00" fill="#2c94b3">AS6762</text>
</a>
</g>
</g>
<!-- AS8447&#45;&gt;AS6762 -->
<g id="edge3" class="edge"><title>AS8447&#45;&gt;AS6762</title>
<path fill="none" stroke="black" d="M205.016,-367.661C220.973,-374.973 241.244,-384.261 258.527,-392.181"/>
<polygon fill="black" stroke="black" points="257.225,-395.435 267.774,-396.419 260.141,-389.071 257.225,-395.435"/>
</g>
<!-- AS1299 -->
<g id="node5" class="node"><title>AS1299</title>
<g id="a_node5"><a xlink:href="/asn/1299" xlink:title="AS1299 ~ Telia Carrier [EU]">
<ellipse fill="#ffffff" stroke="black" cx="296.23" cy="-463" rx="39.7935" ry="18"/>
<text text-anchor="middle" x="296.23" y="-459.3" font-family="Times,serif" font-size="14.00" fill="#2c94b3">AS1299</text>
</a>
</g>
</g>
<!-- AS8447&#45;&gt;AS1299 -->
<g id="edge4" class="edge"><title>AS8447&#45;&gt;AS1299</title>
<path fill="none" stroke="black" stroke-width="3" d="M192.034,-371.725C207.334,-388.765 232.432,-415.523 256.584,-436 259.081,-438.117 261.741,-440.232 264.453,-442.293"/>
<polygon fill="black" stroke="black" stroke-width="3" points="262.489,-445.194 272.629,-448.266 266.619,-439.541 262.489,-445.194"/>
</g>
<!-- AS3356 -->
<g id="node6" class="node"><title>AS3356</title>
<g id="a_node6"><a xlink:href="/asn/3356" xlink:title="AS3356 ~ Level 3 Parent, LLC [US]">
<ellipse fill="#ffffff" stroke="black" cx="296.23" cy="-301" rx="39.7935" ry="18"/>
<text text-anchor="middle" x="296.23" y="-297.3" font-family="Times,serif" font-size="14.00" fill="#2c94b3">AS3356</text>
</a>
</g>
</g>
<!-- AS8447&#45;&gt;AS3356 -->
<g id="edge5" class="edge"><title>AS8447&#45;&gt;AS3356</title>
<path fill="none" stroke="black" stroke-width="3" d="M205.016,-342.339C220.973,-335.027 241.244,-325.739 258.527,-317.819"/>
<polygon fill="black" stroke="black" stroke-width="3" points="260.141,-320.929 267.774,-313.581 257.225,-314.565 260.141,-320.929"/>
</g>
<!-- AS3320 -->
<g id="node7" class="node"><title>AS3320</title>
<g id="a_node7"><a xlink:href="/asn/3320" xlink:title="AS3320 ~ DTAG [DE]">
<ellipse fill="#ffffff" stroke="black" cx="296.23" cy="-355" rx="39.7935" ry="18"/>
<text text-anchor="middle" x="296.23" y="-351.3" font-family="Times,serif" font-size="14.00" fill="#2c94b3">AS3320</text>
</a>
</g>
</g>
<!-- AS8447&#45;&gt;AS3320 -->
<g id="edge6" class="edge"><title>AS8447&#45;&gt;AS3320</title>
<path fill="none" stroke="black" stroke-width="4" d="M216.3,-355C225.854,-355 236.203,-355 246.166,-355"/>
<polygon fill="black" stroke="black" stroke-width="4" points="246.358,-358.5 256.358,-355 246.358,-351.5 246.358,-358.5"/>
</g>
<!-- AS2914 -->
<g id="node14" class="node"><title>AS2914</title>
<g id="a_node14"><a xlink:href="/asn/2914" xlink:title="AS2914 ~ NTT America, Inc. [US]">
<ellipse fill="#ffffff" stroke="black" cx="296.23" cy="-220" rx="39.7935" ry="18"/>
<text text-anchor="middle" x="296.23" y="-216.3" font-family="Times,serif" font-size="14.00" fill="#2c94b3">AS2914</text>
</a>
</g>
</g>
<!-- AS35369&#45;&gt;AS2914 -->
<g id="edge14" class="edge"><title>AS35369&#45;&gt;AS2914</title>
<path fill="none" stroke="black" stroke-width="4" d="M208.658,-185.472C223.339,-191.327 240.983,-198.364 256.501,-204.553"/>
<polygon fill="black" stroke="black" stroke-width="4" points="255.257,-207.825 265.842,-208.279 257.851,-201.323 255.257,-207.825"/>
</g>
<!-- AS8218 -->
<g id="node15" class="node"><title>AS8218</title>
<g id="a_node15"><a xlink:href="/asn/8218" xlink:title="AS8218 ~ legacy Neotelecoms [FR]">
<ellipse fill="#ffffff" stroke="black" cx="296.23" cy="-45" rx="39.7935" ry="18"/>
<text text-anchor="middle" x="296.23" y="-41.3" font-family="Times,serif" font-size="14.00" fill="#2c94b3">AS8218</text>
</a>
</g>
</g>
<!-- AS35369&#45;&gt;AS8218 -->
<g id="edge15" class="edge"><title>AS35369&#45;&gt;AS8218</title>
<path fill="none" stroke="black" d="M192.793,-156.266C213.261,-134.035 249.555,-94.6118 272.992,-69.1553"/>
<polygon fill="black" stroke="black" points="275.622,-71.4655 279.82,-61.7379 270.472,-66.7242 275.622,-71.4655"/>
</g>
<!-- AS1764 -->
<g id="node16" class="node"><title>AS1764</title>
<g id="a_node16"><a xlink:href="/asn/1764" xlink:title="AS1764 ~ NEXTLAYER&#45;AS [AT]">
<ellipse fill="#ffffff" stroke="black" cx="296.23" cy="-126" rx="39.7935" ry="18"/>
<text text-anchor="middle" x="296.23" y="-122.3" font-family="Times,serif" font-size="14.00" fill="#2c94b3">AS1764</text>
</a>
</g>
</g>
<!-- AS35369&#45;&gt;AS1764 -->
<g id="edge16" class="edge"><title>AS35369&#45;&gt;AS1764</title>
<path fill="none" stroke="black" stroke-width="2" d="M208.658,-160.528C223.339,-154.673 240.983,-147.636 256.501,-141.447"/>
<polygon fill="black" stroke="black" stroke-width="2" points="257.851,-144.677 265.842,-137.721 255.257,-138.175 257.851,-144.677"/>
</g>
<!-- AS6453 -->
<g id="node10" class="node"><title>AS6453</title>
<g id="a_node10"><a xlink:href="/asn/6453" xlink:title="AS6453 ~ TATA COMMUNICATIONS (AMERICA) INC [US]">
<ellipse fill="#ffffff" stroke="black" cx="411.523" cy="-450" rx="39.7935" ry="18"/>
<text text-anchor="middle" x="411.523" y="-446.3" font-family="Times,serif" font-size="14.00" fill="#2c94b3">AS6453</text>
</a>
</g>
</g>
<!-- AS1299&#45;&gt;AS6453 -->
<g id="edge9" class="edge"><title>AS1299&#45;&gt;AS6453</title>
<path fill="none" stroke="black" d="M334.955,-458.671C343.937,-457.641 353.635,-456.528 362.993,-455.454"/>
<polygon fill="black" stroke="black" points="363.427,-458.927 372.963,-454.31 362.629,-451.973 363.427,-458.927"/>
</g>
<!-- AS7018 -->
<g id="node11" class="node"><title>AS7018</title>
<g id="a_node11"><a xlink:href="/asn/7018" xlink:title="AS7018 ~ AT&amp;T Services, Inc. [US]">
<ellipse fill="#ffffff" stroke="black" cx="411.523" cy="-504" rx="39.7935" ry="18"/>
<text text-anchor="middle" x="411.523" y="-500.3" font-family="Times,serif" font-size="14.00" fill="#2c94b3">AS7018</text>
</a>
</g>
</g>
<!-- AS1299&#45;&gt;AS7018 -->
<g id="edge10" class="edge"><title>AS1299&#45;&gt;AS7018</title>
<path fill="none" stroke="black" d="M327.889,-474.095C340.861,-478.79 356.155,-484.324 370.035,-489.348"/>
<polygon fill="black" stroke="black" points="369.246,-492.784 379.84,-492.896 371.628,-486.202 369.246,-492.784"/>
</g>
<!-- AS2497 -->
<g id="node8" class="node"><title>AS2497</title>
<g id="a_node8"><a xlink:href="/asn/2497" xlink:title="AS2497 ~ Internet Initiative Japan Inc. [JP]">
<ellipse fill="#ffffff" stroke="black" cx="411.523" cy="-234" rx="39.7935" ry="18"/>
<text text-anchor="middle" x="411.523" y="-230.3" font-family="Times,serif" font-size="14.00" fill="#2c94b3">AS2497</text>
</a>
</g>
</g>
<!-- AS3356&#45;&gt;AS2497 -->
<g id="edge7" class="edge"><title>AS3356&#45;&gt;AS2497</title>
<path fill="none" stroke="black" d="M321.257,-286.791C337.629,-277.109 359.516,-264.165 377.52,-253.518"/>
<polygon fill="black" stroke="black" points="379.705,-256.292 386.531,-248.188 376.142,-250.266 379.705,-256.292"/>
</g>
<!-- AS3549 -->
<g id="node9" class="node"><title>AS3549</title>
<g id="a_node9"><a xlink:href="/asn/3549" xlink:title="AS3549 ~ Level 3 Parent, LLC [US]">
<ellipse fill="#ffffff" stroke="black" cx="411.523" cy="-342" rx="39.7935" ry="18"/>
<text text-anchor="middle" x="411.523" y="-338.3" font-family="Times,serif" font-size="14.00" fill="#2c94b3">AS3549</text>
</a>
</g>
</g>
<!-- AS3356&#45;&gt;AS3549 -->
<g id="edge8" class="edge"><title>AS3356&#45;&gt;AS3549</title>
<path fill="none" stroke="black" d="M327.889,-312.095C340.861,-316.79 356.155,-322.324 370.035,-327.348"/>
<polygon fill="black" stroke="black" points="369.246,-330.784 379.84,-330.896 371.628,-324.202 369.246,-330.784"/>
</g>
<!-- AS3320&#45;&gt;AS6453 -->
<g id="edge13" class="edge"><title>AS3320&#45;&gt;AS6453</title>
<path fill="none" stroke="black" d="M319.995,-369.546C325.394,-373.359 330.997,-377.633 335.877,-382 353.946,-398.172 353.807,-406.828 371.877,-423 374.316,-425.183 376.937,-427.344 379.623,-429.435"/>
<polygon fill="black" stroke="black" points="377.638,-432.32 387.758,-435.454 381.801,-426.693 377.638,-432.32"/>
</g>
<!-- AS701 -->
<g id="node12" class="node"><title>AS701</title>
<g id="a_node12"><a xlink:href="/asn/701" xlink:title="AS701 ~ UUNET [US]">
<ellipse fill="#ffffff" stroke="black" cx="411.523" cy="-396" rx="35.194" ry="18"/>
<text text-anchor="middle" x="411.523" y="-392.3" font-family="Times,serif" font-size="14.00" fill="#2c94b3">AS701</text>
</a>
</g>
</g>
<!-- AS3320&#45;&gt;AS701 -->
<g id="edge11" class="edge"><title>AS3320&#45;&gt;AS701</title>
<path fill="none" stroke="black" d="M327.889,-366.095C341.626,-371.067 357.966,-376.98 372.475,-382.231"/>
<polygon fill="black" stroke="black" points="371.579,-385.628 382.173,-385.74 373.961,-379.046 371.579,-385.628"/>
</g>
<!-- AS1239 -->
<g id="node13" class="node"><title>AS1239</title>
<g id="a_node13"><a xlink:href="/asn/1239" xlink:title="AS1239 ~ Sprint [US]">
<ellipse fill="#ffffff" stroke="black" cx="411.523" cy="-288" rx="39.7935" ry="18"/>
<text text-anchor="middle" x="411.523" y="-284.3" font-family="Times,serif" font-size="14.00" fill="#2c94b3">AS1239</text>
</a>
</g>
</g>
<!-- AS3320&#45;&gt;AS1239 -->
<g id="edge12" class="edge"><title>AS3320&#45;&gt;AS1239</title>
<path fill="none" stroke="black" d="M321.257,-340.791C337.629,-331.109 359.516,-318.165 377.52,-307.518"/>
<polygon fill="black" stroke="black" points="379.705,-310.292 386.531,-302.188 376.142,-304.266 379.705,-310.292"/>
</g>
<!-- AS2914&#45;&gt;AS2497 -->
<g id="edge17" class="edge"><title>AS2914&#45;&gt;AS2497</title>
<path fill="none" stroke="black" d="M334.64,-224.623C343.728,-225.746 353.566,-226.962 363.05,-228.134"/>
<polygon fill="black" stroke="black" points="362.798,-231.629 373.152,-229.382 363.657,-224.682 362.798,-231.629"/>
</g>
<!-- AS2914&#45;&gt;AS1239 -->
<g id="edge19" class="edge"><title>AS2914&#45;&gt;AS1239</title>
<path fill="none" stroke="black" d="M320.98,-234.255C337.597,-244.229 359.993,-257.671 378.229,-268.617"/>
<polygon fill="black" stroke="black" points="376.429,-271.618 386.804,-273.764 380.032,-265.616 376.429,-271.618"/>
</g>
<!-- AS3491 -->
<g id="node17" class="node"><title>AS3491</title>
<g id="a_node17"><a xlink:href="/asn/3491" xlink:title="AS3491 ~ PCCW Global, Inc. [US]">
<ellipse fill="#ffffff" stroke="black" cx="411.523" cy="-180" rx="39.7935" ry="18"/>
<text text-anchor="middle" x="411.523" y="-176.3" font-family="Times,serif" font-size="14.00" fill="#2c94b3">AS3491</text>
</a>
</g>
</g>
<!-- AS2914&#45;&gt;AS3491 -->
<g id="edge18" class="edge"><title>AS2914&#45;&gt;AS3491</title>
<path fill="none" stroke="black" d="M328.188,-209.07C341.051,-204.528 356.157,-199.195 369.894,-194.345"/>
<polygon fill="black" stroke="black" points="371.338,-197.547 379.603,-190.917 369.008,-190.946 371.338,-197.547"/>
</g>
<!-- AS6461 -->
<g id="node18" class="node"><title>AS6461</title>
<g id="a_node18"><a xlink:href="/asn/6461" xlink:title="AS6461 ~ Zayo Bandwidth [US]">
<ellipse fill="#ffffff" stroke="black" cx="411.523" cy="-18" rx="39.7935" ry="18"/>
<text text-anchor="middle" x="411.523" y="-14.3" font-family="Times,serif" font-size="14.00" fill="#2c94b3">AS6461</text>
</a>
</g>
</g>
<!-- AS8218&#45;&gt;AS6461 -->
<g id="edge20" class="edge"><title>AS8218&#45;&gt;AS6461</title>
<path fill="none" stroke="black" d="M331.837,-36.7524C342.709,-34.1616 354.863,-31.2649 366.305,-28.5379"/>
<polygon fill="black" stroke="black" points="367.212,-31.9201 376.128,-26.1971 365.589,-25.1108 367.212,-31.9201"/>
</g>
<!-- AS3257 -->
<g id="node19" class="node"><title>AS3257</title>
<g id="a_node19"><a xlink:href="/asn/3257" xlink:title="AS3257 ~ GTT [DE]">
<ellipse fill="#ffffff" stroke="black" cx="411.523" cy="-72" rx="39.7935" ry="18"/>
<text text-anchor="middle" x="411.523" y="-68.3" font-family="Times,serif" font-size="14.00" fill="#2c94b3">AS3257</text>
</a>
</g>
</g>
<!-- AS1764&#45;&gt;AS3257 -->
<g id="edge21" class="edge"><title>AS1764&#45;&gt;AS3257</title>
<path fill="none" stroke="black" d="M324.367,-113.066C339.361,-105.919 358.182,-96.9481 374.405,-89.2154"/>
<polygon fill="black" stroke="black" points="376.087,-92.291 383.608,-84.8288 373.075,-85.972 376.087,-92.291"/>
</g>
<!-- AS174 -->
<g id="node20" class="node"><title>AS174</title>
<g id="a_node20"><a xlink:href="/asn/174" xlink:title="AS174 ~ Cogent Communications [US]">
<ellipse fill="#ffffff" stroke="black" cx="411.523" cy="-126" rx="35.194" ry="18"/>
<text text-anchor="middle" x="411.523" y="-122.3" font-family="Times,serif" font-size="14.00" fill="#2c94b3">AS174</text>
</a>
</g>
</g>
<!-- AS1764&#45;&gt;AS174 -->
<g id="edge22" class="edge"><title>AS1764&#45;&gt;AS174</title>
<path fill="none" stroke="black" d="M335.902,-126C345.608,-126 356.098,-126 366.061,-126"/>
<polygon fill="black" stroke="black" points="366.198,-129.5 376.198,-126 366.198,-122.5 366.198,-129.5"/>
</g>
</g>
</svg>
