<?xml version="1.0" encoding="UTF-8" standalone="no"?>
<!DOCTYPE svg PUBLIC "-//W3C//DTD SVG 1.1//EN"
 "http://www.w3.org/Graphics/SVG/1.1/DTD/svg11.dtd">
<!-- Generated by graphviz version 2.38.0 (20140413.2041)
 -->
<!-- Title: AS31095 IPv4 Upstream Graph Pages: 1 -->
<svg width="585pt" height="638pt"
 viewBox="0.00 0.00 584.86 638.00" xmlns="http://www.w3.org/2000/svg" xmlns:xlink="http://www.w3.org/1999/xlink">
<g id="graph0" class="graph" transform="scale(1 1) rotate(0) translate(4 634)">
<title>AS31095 IPv4 Upstream Graph</title>
<polygon fill="white" stroke="none" points="-4,4 -4,-634 580.862,-634 580.862,4 -4,4"/>
<!-- AS31095 -->
<g id="node1" class="node"><title>AS31095</title>
<g id="a_node1"><a xlink:href="/asn/31095" xlink:title="AS31095 ~ Letaliska 26 [AT]">
<ellipse fill="#ffffff" stroke="black" cx="44.1961" cy="-330" rx="44.393" ry="18"/>
<text text-anchor="middle" x="44.1961" y="-326.3" font-family="Times,serif" font-size="14.00" fill="#880000">AS31095</text>
</a>
</g>
</g>
<!-- AS5603 -->
<g id="node2" class="node"><title>AS5603</title>
<g id="a_node2"><a xlink:href="/asn/5603" xlink:title="AS5603 ~ Telekom Slovenije d.d. [SI]">
<ellipse fill="#ffffff" stroke="black" cx="292.98" cy="-353" rx="39.7935" ry="18"/>
<text text-anchor="middle" x="292.98" y="-349.3" font-family="Times,serif" font-size="14.00" fill="#2c94b3">AS5603</text>
</a>
</g>
</g>
<!-- AS31095&#45;&gt;AS5603 -->
<g id="edge1" class="edge"><title>AS31095&#45;&gt;AS5603</title>
<path fill="none" stroke="black" stroke-width="4.5" d="M87.3394,-333.928C130.763,-337.975 198.353,-344.274 243.852,-348.514"/>
<polygon fill="black" stroke="black" stroke-width="4.5" points="243.738,-352.458 254.06,-349.466 244.469,-344.617 243.738,-352.458"/>
</g>
<!-- AS9119 -->
<g id="node3" class="node"><title>AS9119</title>
<g id="a_node3"><a xlink:href="/asn/9119" xlink:title="AS9119 ~ SOFTNET&#45;AS [SI]">
<ellipse fill="#ffffff" stroke="black" cx="168.588" cy="-223" rx="39.7935" ry="18"/>
<text text-anchor="middle" x="168.588" y="-219.3" font-family="Times,serif" font-size="14.00" fill="#2c94b3">AS9119</text>
</a>
</g>
</g>
<!-- AS31095&#45;&gt;AS9119 -->
<g id="edge2" class="edge"><title>AS31095&#45;&gt;AS9119</title>
<path fill="none" stroke="black" stroke-width="0.529412" d="M63.7848,-313.749C84.4824,-295.654 118.089,-266.274 141.434,-245.865"/>
<polygon fill="black" stroke="black" stroke-width="0.529412" points="144.001,-248.27 149.226,-239.053 139.393,-243 144.001,-248.27"/>
</g>
<!-- AS15994 -->
<g id="node4" class="node"><title>AS15994</title>
<g id="a_node4"><a xlink:href="/asn/15994" xlink:title="AS15994 ~ A1 Hrvatska d.o.o. Zagreb, Croatia [HR]">
<ellipse fill="#ffffff" stroke="black" cx="292.98" cy="-480" rx="44.393" ry="18"/>
<text text-anchor="middle" x="292.98" y="-476.3" font-family="Times,serif" font-size="14.00" fill="#2c94b3">AS15994</text>
</a>
</g>
</g>
<!-- AS31095&#45;&gt;AS15994 -->
<g id="edge3" class="edge"><title>AS31095&#45;&gt;AS15994</title>
<path fill="none" stroke="black" stroke-width="0.794118" d="M69.7609,-344.931C114.293,-371.998 208.385,-429.189 258.659,-459.747"/>
<polygon fill="black" stroke="black" stroke-width="0.794118" points="257.152,-462.926 267.515,-465.129 260.787,-456.945 257.152,-462.926"/>
</g>
<!-- AS34594 -->
<g id="node5" class="node"><title>AS34594</title>
<g id="a_node5"><a xlink:href="/asn/34594" xlink:title="AS34594 ~ OT &#45; OPTIMA TELEKOM d.d. [HR]">
<ellipse fill="#ffffff" stroke="black" cx="168.588" cy="-307" rx="44.393" ry="18"/>
<text text-anchor="middle" x="168.588" y="-303.3" font-family="Times,serif" font-size="14.00" fill="#2c94b3">AS34594</text>
</a>
</g>
</g>
<!-- AS31095&#45;&gt;AS34594 -->
<g id="edge4" class="edge"><title>AS31095&#45;&gt;AS34594</title>
<path fill="none" stroke="black" stroke-width="3.44118" d="M84.5954,-322.596C95.296,-320.585 107.019,-318.382 118.196,-316.282"/>
<polygon fill="black" stroke="black" stroke-width="3.44118" points="119.081,-319.677 128.263,-314.39 117.788,-312.797 119.081,-319.677"/>
</g>
<!-- AS6762 -->
<g id="node6" class="node"><title>AS6762</title>
<g id="a_node6"><a xlink:href="/asn/6762" xlink:title="AS6762 ~ TELECOM ITALIA SPARKLE S.p.A. [IT]">
<ellipse fill="#ffffff" stroke="black" cx="412.823" cy="-445" rx="39.7935" ry="18"/>
<text text-anchor="middle" x="412.823" y="-441.3" font-family="Times,serif" font-size="14.00" fill="#2c94b3">AS6762</text>
</a>
</g>
</g>
<!-- AS5603&#45;&gt;AS6762 -->
<g id="edge5" class="edge"><title>AS5603&#45;&gt;AS6762</title>
<path fill="none" stroke="black" stroke-width="1.63636" d="M313.705,-368.399C332.908,-383.391 362.279,-406.321 383.883,-423.188"/>
<polygon fill="black" stroke="black" stroke-width="1.63636" points="381.998,-426.156 392.034,-429.551 386.306,-420.638 381.998,-426.156"/>
</g>
<!-- AS3356 -->
<g id="node7" class="node"><title>AS3356</title>
<g id="a_node7"><a xlink:href="/asn/3356" xlink:title="AS3356 ~ Level 3 Parent, LLC [US]">
<ellipse fill="#ffffff" stroke="black" cx="412.823" cy="-353" rx="39.7935" ry="18"/>
<text text-anchor="middle" x="412.823" y="-349.3" font-family="Times,serif" font-size="14.00" fill="#2c94b3">AS3356</text>
</a>
</g>
</g>
<!-- AS5603&#45;&gt;AS3356 -->
<g id="edge6" class="edge"><title>AS5603&#45;&gt;AS3356</title>
<path fill="none" stroke="black" stroke-width="4.5" d="M332.893,-353C342.446,-353 352.796,-353 362.759,-353"/>
<polygon fill="black" stroke="black" stroke-width="4.5" points="362.951,-356.938 372.951,-353 362.951,-349.063 362.951,-356.938"/>
</g>
<!-- AS3320 -->
<g id="node8" class="node"><title>AS3320</title>
<g id="a_node8"><a xlink:href="/asn/3320" xlink:title="AS3320 ~ DTAG [DE]">
<ellipse fill="#ffffff" stroke="black" cx="412.823" cy="-299" rx="39.7935" ry="18"/>
<text text-anchor="middle" x="412.823" y="-295.3" font-family="Times,serif" font-size="14.00" fill="#2c94b3">AS3320</text>
</a>
</g>
</g>
<!-- AS5603&#45;&gt;AS3320 -->
<g id="edge7" class="edge"><title>AS5603&#45;&gt;AS3320</title>
<path fill="none" stroke="black" stroke-width="0.818182" d="M321.609,-340.339C337.566,-333.027 357.837,-323.739 375.119,-315.819"/>
<polygon fill="black" stroke="black" stroke-width="0.818182" points="376.734,-318.929 384.367,-311.581 373.818,-312.565 376.734,-318.929"/>
</g>
<!-- AS1239 -->
<g id="node20" class="node"><title>AS1239</title>
<g id="a_node20"><a xlink:href="/asn/1239" xlink:title="AS1239 ~ Sprint [US]">
<ellipse fill="#ffffff" stroke="black" cx="532.666" cy="-18" rx="39.7935" ry="18"/>
<text text-anchor="middle" x="532.666" y="-14.3" font-family="Times,serif" font-size="14.00" fill="#2c94b3">AS1239</text>
</a>
</g>
</g>
<!-- AS9119&#45;&gt;AS1239 -->
<g id="edge25" class="edge"><title>AS9119&#45;&gt;AS1239</title>
<path fill="none" stroke="black" d="M194.191,-209.071C257.407,-173.279 425.619,-78.0411 497.893,-37.1213"/>
<polygon fill="black" stroke="black" points="500.052,-39.9211 507.029,-31.9485 496.603,-33.8297 500.052,-39.9211"/>
</g>
<!-- AS6939 -->
<g id="node21" class="node"><title>AS6939</title>
<g id="a_node21"><a xlink:href="/asn/6939" xlink:title="AS6939 ~ Hurricane Electric LLC [US]">
<ellipse fill="#ffffff" stroke="black" cx="292.98" cy="-223" rx="39.7935" ry="18"/>
<text text-anchor="middle" x="292.98" y="-219.3" font-family="Times,serif" font-size="14.00" fill="#2c94b3">AS6939</text>
</a>
</g>
</g>
<!-- AS9119&#45;&gt;AS6939 -->
<g id="edge26" class="edge"><title>AS9119&#45;&gt;AS6939</title>
<path fill="none" stroke="black" d="M208.314,-223C219.252,-223 231.303,-223 242.769,-223"/>
<polygon fill="black" stroke="black" points="243.087,-226.5 253.087,-223 243.087,-219.5 243.087,-226.5"/>
</g>
<!-- AS15994&#45;&gt;AS3356 -->
<g id="edge30" class="edge"><title>AS15994&#45;&gt;AS3356</title>
<path fill="none" stroke="black" stroke-width="2" d="M320.229,-465.769C326.109,-462.004 332.102,-457.672 337.176,-453 361.025,-431.045 382.495,-400.593 396.221,-379.077"/>
<polygon fill="black" stroke="black" stroke-width="2" points="399.279,-380.788 401.614,-370.454 393.344,-377.077 399.279,-380.788"/>
</g>
<!-- AS12956 -->
<g id="node14" class="node"><title>AS12956</title>
<g id="a_node14"><a xlink:href="/asn/12956" xlink:title="AS12956 ~ TELXIUS [ES]">
<ellipse fill="#ffffff" stroke="black" cx="532.666" cy="-612" rx="44.393" ry="18"/>
<text text-anchor="middle" x="532.666" y="-608.3" font-family="Times,serif" font-size="14.00" fill="#2c94b3">AS12956</text>
</a>
</g>
</g>
<!-- AS15994&#45;&gt;AS12956 -->
<g id="edge31" class="edge"><title>AS15994&#45;&gt;AS12956</title>
<path fill="none" stroke="black" d="M311.483,-496.513C326.87,-510.429 350.316,-530.219 373.176,-544 410.126,-566.273 455.692,-585.017 488.469,-597.147"/>
<polygon fill="black" stroke="black" points="487.613,-600.56 498.207,-600.696 490.01,-593.983 487.613,-600.56"/>
</g>
<!-- AS34594&#45;&gt;AS3320 -->
<g id="edge32" class="edge"><title>AS34594&#45;&gt;AS3320</title>
<path fill="none" stroke="black" stroke-width="4.5" d="M212.895,-305.57C254.974,-304.18 318.782,-302.073 362.727,-300.621"/>
<polygon fill="black" stroke="black" stroke-width="4.5" points="363.027,-304.551 372.891,-300.286 362.767,-296.681 363.027,-304.551"/>
</g>
<!-- AS34594&#45;&gt;AS6939 -->
<g id="edge33" class="edge"><title>AS34594&#45;&gt;AS6939</title>
<path fill="none" stroke="black" stroke-width="1.8" d="M192.037,-291.593C211.567,-278.189 240.043,-258.646 261.608,-243.845"/>
<polygon fill="black" stroke="black" stroke-width="1.8" points="263.821,-246.571 270.086,-238.027 259.86,-240.8 263.821,-246.571"/>
</g>
<!-- AS1299 -->
<g id="node22" class="node"><title>AS1299</title>
<g id="a_node22"><a xlink:href="/asn/1299" xlink:title="AS1299 ~ Telia Carrier [EU]">
<ellipse fill="#ffffff" stroke="black" cx="412.823" cy="-234" rx="39.7935" ry="18"/>
<text text-anchor="middle" x="412.823" y="-230.3" font-family="Times,serif" font-size="14.00" fill="#2c94b3">AS1299</text>
</a>
</g>
</g>
<!-- AS34594&#45;&gt;AS1299 -->
<g id="edge34" class="edge"><title>AS34594&#45;&gt;AS1299</title>
<path fill="none" stroke="black" stroke-width="3.6" d="M204.553,-296.463C248.129,-283.331 322.555,-260.902 369.363,-246.796"/>
<polygon fill="black" stroke="black" stroke-width="3.6" points="370.632,-250.069 379.197,-243.832 368.612,-243.367 370.632,-250.069"/>
</g>
<!-- AS5391 -->
<g id="node23" class="node"><title>AS5391</title>
<g id="a_node23"><a xlink:href="/asn/5391" xlink:title="AS5391 ~ Croatian Telecom Inc. [HR]">
<ellipse fill="#ffffff" stroke="black" cx="292.98" cy="-426" rx="39.7935" ry="18"/>
<text text-anchor="middle" x="292.98" y="-422.3" font-family="Times,serif" font-size="14.00" fill="#2c94b3">AS5391</text>
</a>
</g>
</g>
<!-- AS34594&#45;&gt;AS5391 -->
<g id="edge35" class="edge"><title>AS34594&#45;&gt;AS5391</title>
<path fill="none" stroke="black" stroke-width="1.8" d="M186.606,-323.546C207.706,-344.061 243.809,-379.164 267.784,-402.474"/>
<polygon fill="black" stroke="black" stroke-width="1.8" points="265.497,-405.132 275.107,-409.594 270.377,-400.114 265.497,-405.132"/>
</g>
<!-- AS2914 -->
<g id="node9" class="node"><title>AS2914</title>
<g id="a_node9"><a xlink:href="/asn/2914" xlink:title="AS2914 ~ NTT America, Inc. [US]">
<ellipse fill="#ffffff" stroke="black" cx="532.666" cy="-342" rx="39.7935" ry="18"/>
<text text-anchor="middle" x="532.666" y="-338.3" font-family="Times,serif" font-size="14.00" fill="#2c94b3">AS2914</text>
</a>
</g>
</g>
<!-- AS6762&#45;&gt;AS2914 -->
<g id="edge8" class="edge"><title>AS6762&#45;&gt;AS2914</title>
<path fill="none" stroke="black" d="M428.248,-428.158C442.59,-411.957 465.684,-387.295 488.469,-369 491.728,-366.384 495.255,-363.814 498.841,-361.361"/>
<polygon fill="black" stroke="black" points="500.759,-364.289 507.214,-355.888 496.929,-358.43 500.759,-364.289"/>
</g>
<!-- AS174 -->
<g id="node10" class="node"><title>AS174</title>
<g id="a_node10"><a xlink:href="/asn/174" xlink:title="AS174 ~ Cogent Communications [US]">
<ellipse fill="#ffffff" stroke="black" cx="532.666" cy="-558" rx="35.194" ry="18"/>
<text text-anchor="middle" x="532.666" y="-554.3" font-family="Times,serif" font-size="14.00" fill="#2c94b3">AS174</text>
</a>
</g>
</g>
<!-- AS6762&#45;&gt;AS174 -->
<g id="edge9" class="edge"><title>AS6762&#45;&gt;AS174</title>
<path fill="none" stroke="black" d="M426.267,-462.175C440.12,-480.563 463.824,-509.932 488.469,-531 491.889,-533.924 495.656,-536.751 499.497,-539.406"/>
<polygon fill="black" stroke="black" points="497.631,-542.368 507.916,-544.911 501.462,-536.509 497.631,-542.368"/>
</g>
<!-- AS3491 -->
<g id="node11" class="node"><title>AS3491</title>
<g id="a_node11"><a xlink:href="/asn/3491" xlink:title="AS3491 ~ PCCW Global, Inc. [US]">
<ellipse fill="#ffffff" stroke="black" cx="532.666" cy="-504" rx="39.7935" ry="18"/>
<text text-anchor="middle" x="532.666" y="-500.3" font-family="Times,serif" font-size="14.00" fill="#2c94b3">AS3491</text>
</a>
</g>
</g>
<!-- AS6762&#45;&gt;AS3491 -->
<g id="edge10" class="edge"><title>AS6762&#45;&gt;AS3491</title>
<path fill="none" stroke="black" d="M440.269,-458.241C456.796,-466.515 478.28,-477.272 496.266,-486.277"/>
<polygon fill="black" stroke="black" points="494.799,-489.456 505.308,-490.803 497.933,-483.197 494.799,-489.456"/>
</g>
<!-- AS3356&#45;&gt;AS2914 -->
<g id="edge14" class="edge"><title>AS3356&#45;&gt;AS2914</title>
<path fill="none" stroke="black" d="M451.758,-349.459C461.749,-348.526 472.667,-347.507 483.133,-346.53"/>
<polygon fill="black" stroke="black" points="483.766,-349.986 493.398,-345.572 483.116,-343.017 483.766,-349.986"/>
</g>
<!-- AS3356&#45;&gt;AS174 -->
<g id="edge20" class="edge"><title>AS3356&#45;&gt;AS174</title>
<path fill="none" stroke="black" d="M425.442,-370.073C433.772,-382.857 444.827,-400.996 452.469,-418 474.078,-466.076 456.141,-489.369 488.469,-531 491.093,-534.379 494.268,-537.445 497.692,-540.196"/>
<polygon fill="black" stroke="black" points="495.799,-543.144 505.99,-546.041 499.83,-537.421 495.799,-543.144"/>
</g>
<!-- AS3356&#45;&gt;AS3491 -->
<g id="edge15" class="edge"><title>AS3356&#45;&gt;AS3491</title>
<path fill="none" stroke="black" d="M435.703,-367.902C441.735,-372.806 447.875,-378.647 452.469,-385 478.199,-420.58 460.433,-443.208 488.469,-477 490.869,-479.893 493.663,-482.569 496.653,-485.021"/>
<polygon fill="black" stroke="black" points="494.74,-487.957 504.894,-490.983 498.843,-482.286 494.74,-487.957"/>
</g>
<!-- AS3549 -->
<g id="node12" class="node"><title>AS3549</title>
<g id="a_node12"><a xlink:href="/asn/3549" xlink:title="AS3549 ~ Level 3 Parent, LLC [US]">
<ellipse fill="#ffffff" stroke="black" cx="532.666" cy="-450" rx="39.7935" ry="18"/>
<text text-anchor="middle" x="532.666" y="-446.3" font-family="Times,serif" font-size="14.00" fill="#2c94b3">AS3549</text>
</a>
</g>
</g>
<!-- AS3356&#45;&gt;AS3549 -->
<g id="edge11" class="edge"><title>AS3356&#45;&gt;AS3549</title>
<path fill="none" stroke="black" stroke-width="2" d="M433.48,-368.505C439.69,-373.606 446.489,-379.407 452.469,-385 469.46,-400.892 470.461,-408.272 488.469,-423 491.704,-425.645 495.216,-428.234 498.793,-430.697"/>
<polygon fill="black" stroke="black" stroke-width="2" points="496.876,-433.625 507.157,-436.182 500.715,-427.771 496.876,-433.625"/>
</g>
<!-- AS2497 -->
<g id="node13" class="node"><title>AS2497</title>
<g id="a_node13"><a xlink:href="/asn/2497" xlink:title="AS2497 ~ Internet Initiative Japan Inc. [JP]">
<ellipse fill="#ffffff" stroke="black" cx="532.666" cy="-72" rx="39.7935" ry="18"/>
<text text-anchor="middle" x="532.666" y="-68.3" font-family="Times,serif" font-size="14.00" fill="#2c94b3">AS2497</text>
</a>
</g>
</g>
<!-- AS3356&#45;&gt;AS2497 -->
<g id="edge12" class="edge"><title>AS3356&#45;&gt;AS2497</title>
<path fill="none" stroke="black" d="M439.38,-339.547C444.423,-335.795 449.17,-331.273 452.469,-326 506.655,-239.406 432.086,-184.179 488.469,-99 490.373,-96.1239 492.699,-93.4975 495.275,-91.1115"/>
<polygon fill="black" stroke="black" points="497.826,-93.5622 503.578,-84.665 493.533,-88.033 497.826,-93.5622"/>
</g>
<!-- AS3356&#45;&gt;AS12956 -->
<g id="edge13" class="edge"><title>AS3356&#45;&gt;AS12956</title>
<path fill="none" stroke="black" d="M426.114,-370.135C434.664,-382.802 445.7,-400.771 452.469,-418 480.235,-488.668 444.834,-522.864 488.469,-585 490.35,-587.678 492.589,-590.146 495.044,-592.408"/>
<polygon fill="black" stroke="black" points="492.886,-595.164 502.914,-598.585 497.208,-589.657 492.886,-595.164"/>
</g>
<!-- AS3257 -->
<g id="node15" class="node"><title>AS3257</title>
<g id="a_node15"><a xlink:href="/asn/3257" xlink:title="AS3257 ~ GTT [DE]">
<ellipse fill="#ffffff" stroke="black" cx="532.666" cy="-234" rx="39.7935" ry="18"/>
<text text-anchor="middle" x="532.666" y="-230.3" font-family="Times,serif" font-size="14.00" fill="#2c94b3">AS3257</text>
</a>
</g>
</g>
<!-- AS3356&#45;&gt;AS3257 -->
<g id="edge16" class="edge"><title>AS3356&#45;&gt;AS3257</title>
<path fill="none" stroke="black" d="M437.694,-338.871C442.939,-335.102 448.196,-330.743 452.469,-326 474.575,-301.466 465.743,-284.96 488.469,-261 491.056,-258.273 493.974,-255.707 497.043,-253.324"/>
<polygon fill="black" stroke="black" points="499.221,-256.071 505.392,-247.459 495.197,-250.344 499.221,-256.071"/>
</g>
<!-- AS5511 -->
<g id="node16" class="node"><title>AS5511</title>
<g id="a_node16"><a xlink:href="/asn/5511" xlink:title="AS5511 ~ Orange S.A. [FR]">
<ellipse fill="#ffffff" stroke="black" cx="532.666" cy="-396" rx="39.7935" ry="18"/>
<text text-anchor="middle" x="532.666" y="-392.3" font-family="Times,serif" font-size="14.00" fill="#2c94b3">AS5511</text>
</a>
</g>
</g>
<!-- AS3356&#45;&gt;AS5511 -->
<g id="edge17" class="edge"><title>AS3356&#45;&gt;AS5511</title>
<path fill="none" stroke="black" d="M444.17,-364.074C458.491,-369.299 475.784,-375.609 491.201,-381.235"/>
<polygon fill="black" stroke="black" points="490.417,-384.675 501.011,-384.815 492.817,-378.099 490.417,-384.675"/>
</g>
<!-- AS6453 -->
<g id="node17" class="node"><title>AS6453</title>
<g id="a_node17"><a xlink:href="/asn/6453" xlink:title="AS6453 ~ TATA COMMUNICATIONS (AMERICA) INC [US]">
<ellipse fill="#ffffff" stroke="black" cx="532.666" cy="-288" rx="39.7935" ry="18"/>
<text text-anchor="middle" x="532.666" y="-284.3" font-family="Times,serif" font-size="14.00" fill="#2c94b3">AS6453</text>
</a>
</g>
</g>
<!-- AS3356&#45;&gt;AS6453 -->
<g id="edge18" class="edge"><title>AS3356&#45;&gt;AS6453</title>
<path fill="none" stroke="black" d="M438.814,-339.215C456,-329.736 479.028,-317.034 497.852,-306.651"/>
<polygon fill="black" stroke="black" points="499.644,-309.66 506.71,-301.765 496.263,-303.53 499.644,-309.66"/>
</g>
<!-- AS7018 -->
<g id="node18" class="node"><title>AS7018</title>
<g id="a_node18"><a xlink:href="/asn/7018" xlink:title="AS7018 ~ AT&amp;T Services, Inc. [US]">
<ellipse fill="#ffffff" stroke="black" cx="532.666" cy="-126" rx="39.7935" ry="18"/>
<text text-anchor="middle" x="532.666" y="-122.3" font-family="Times,serif" font-size="14.00" fill="#2c94b3">AS7018</text>
</a>
</g>
</g>
<!-- AS3356&#45;&gt;AS7018 -->
<g id="edge19" class="edge"><title>AS3356&#45;&gt;AS7018</title>
<path fill="none" stroke="black" d="M439.194,-339.427C444.247,-335.682 449.045,-331.193 452.469,-326 495.711,-260.44 443.565,-217.432 488.469,-153 490.442,-150.17 492.815,-147.576 495.422,-145.211"/>
<polygon fill="black" stroke="black" points="497.975,-147.665 503.777,-138.8 493.713,-142.112 497.975,-147.665"/>
</g>
<!-- AS3320&#45;&gt;AS2914 -->
<g id="edge22" class="edge"><title>AS3320&#45;&gt;AS2914</title>
<path fill="none" stroke="black" d="M444.17,-310.074C458.491,-315.299 475.784,-321.609 491.201,-327.235"/>
<polygon fill="black" stroke="black" points="490.417,-330.675 501.011,-330.815 492.817,-324.099 490.417,-330.675"/>
</g>
<!-- AS3320&#45;&gt;AS6453 -->
<g id="edge23" class="edge"><title>AS3320&#45;&gt;AS6453</title>
<path fill="none" stroke="black" d="M451.758,-295.459C461.749,-294.526 472.667,-293.507 483.133,-292.53"/>
<polygon fill="black" stroke="black" points="483.766,-295.986 493.398,-291.572 483.116,-289.017 483.766,-295.986"/>
</g>
<!-- AS701 -->
<g id="node19" class="node"><title>AS701</title>
<g id="a_node19"><a xlink:href="/asn/701" xlink:title="AS701 ~ UUNET [US]">
<ellipse fill="#ffffff" stroke="black" cx="532.666" cy="-180" rx="35.194" ry="18"/>
<text text-anchor="middle" x="532.666" y="-176.3" font-family="Times,serif" font-size="14.00" fill="#2c94b3">AS701</text>
</a>
</g>
</g>
<!-- AS3320&#45;&gt;AS701 -->
<g id="edge21" class="edge"><title>AS3320&#45;&gt;AS701</title>
<path fill="none" stroke="black" stroke-width="2" d="M431.532,-283.067C438.395,-276.523 446.113,-268.687 452.469,-261 470.85,-238.771 467.776,-227.094 488.469,-207 491.697,-203.866 495.348,-200.911 499.126,-198.188"/>
<polygon fill="black" stroke="black" stroke-width="2" points="501.105,-201.075 507.486,-192.617 497.224,-195.25 501.105,-201.075"/>
</g>
<!-- AS3320&#45;&gt;AS1239 -->
<g id="edge24" class="edge"><title>AS3320&#45;&gt;AS1239</title>
<path fill="none" stroke="black" d="M434.146,-283.535C441.007,-277.278 448.042,-269.515 452.469,-261 497.368,-174.651 434.431,-125.944 488.469,-45 490.385,-42.1314 492.719,-39.5103 495.3,-37.1277"/>
<polygon fill="black" stroke="black" points="497.851,-39.5788 503.611,-30.6868 493.563,-34.0456 497.851,-39.5788"/>
</g>
<!-- AS6939&#45;&gt;AS3491 -->
<g id="edge29" class="edge"><title>AS6939&#45;&gt;AS3491</title>
<path fill="none" stroke="black" d="M301.239,-240.82C316.378,-277.327 351.699,-358.954 373.176,-380 401.089,-407.351 423.477,-391.796 452.469,-418 475.259,-438.597 466.866,-455.162 488.469,-477 491.259,-479.819 494.396,-482.479 497.674,-484.95"/>
<polygon fill="black" stroke="black" points="495.774,-487.89 505.994,-490.681 499.745,-482.126 495.774,-487.89"/>
</g>
<!-- AS6939&#45;&gt;AS2497 -->
<g id="edge28" class="edge"><title>AS6939&#45;&gt;AS2497</title>
<path fill="none" stroke="black" d="M316.695,-208.425C352.95,-185.183 426.164,-138.333 488.469,-99 492.087,-96.7162 495.88,-94.3314 499.653,-91.9654"/>
<polygon fill="black" stroke="black" points="501.708,-94.8079 508.327,-86.5349 497.994,-88.8746 501.708,-94.8079"/>
</g>
<!-- AS6939&#45;&gt;AS1299 -->
<g id="edge27" class="edge"><title>AS6939&#45;&gt;AS1299</title>
<path fill="none" stroke="black" d="M331.915,-226.541C341.907,-227.474 352.825,-228.493 363.291,-229.47"/>
<polygon fill="black" stroke="black" points="363.273,-232.983 373.555,-230.428 363.924,-226.014 363.273,-232.983"/>
</g>
<!-- AS1299&#45;&gt;AS2914 -->
<g id="edge37" class="edge"><title>AS1299&#45;&gt;AS2914</title>
<path fill="none" stroke="black" d="M431.111,-250.302C437.915,-256.896 445.704,-264.671 452.469,-272 469.375,-290.315 469.669,-298.636 488.469,-315 491.461,-317.604 494.73,-320.124 498.087,-322.509"/>
<polygon fill="black" stroke="black" points="496.248,-325.49 506.507,-328.134 500.136,-319.669 496.248,-325.49"/>
</g>
<!-- AS1299&#45;&gt;AS3257 -->
<g id="edge36" class="edge"><title>AS1299&#45;&gt;AS3257</title>
<path fill="none" stroke="black" d="M452.736,-234C462.289,-234 472.639,-234 482.601,-234"/>
<polygon fill="black" stroke="black" points="482.794,-237.5 492.794,-234 482.794,-230.5 482.794,-237.5"/>
</g>
<!-- AS1299&#45;&gt;AS7018 -->
<g id="edge38" class="edge"><title>AS1299&#45;&gt;AS7018</title>
<path fill="none" stroke="black" d="M427.242,-216.935C441.357,-199.625 464.771,-172.655 488.469,-153 491.686,-150.332 495.186,-147.73 498.757,-145.259"/>
<polygon fill="black" stroke="black" points="500.68,-148.183 507.113,-139.764 496.835,-142.334 500.68,-148.183"/>
</g>
<!-- AS5391&#45;&gt;AS6762 -->
<g id="edge39" class="edge"><title>AS5391&#45;&gt;AS6762</title>
<path fill="none" stroke="black" d="M330.621,-431.908C341.594,-433.677 353.778,-435.641 365.299,-437.499"/>
<polygon fill="black" stroke="black" points="364.776,-440.96 375.205,-439.096 365.89,-434.049 364.776,-440.96"/>
</g>
<!-- AS5391&#45;&gt;AS174 -->
<g id="edge40" class="edge"><title>AS5391&#45;&gt;AS174</title>
<path fill="none" stroke="black" d="M317.79,-440.071C333.46,-449.272 354.46,-461.489 373.176,-472 416.28,-496.206 466.512,-523.272 498.677,-540.459"/>
<polygon fill="black" stroke="black" points="497.18,-543.628 507.65,-545.248 500.476,-537.452 497.18,-543.628"/>
</g>
</g>
</svg>
