<?xml version="1.0" encoding="UTF-8" standalone="no"?>
<!DOCTYPE svg PUBLIC "-//W3C//DTD SVG 1.1//EN"
 "http://www.w3.org/Graphics/SVG/1.1/DTD/svg11.dtd">
<!-- Generated by graphviz version 2.38.0 (20140413.2041)
 -->
<!-- Title: AS31095 IPv4 Upstream Graph Pages: 1 -->
<svg width="567pt" height="557pt"
 viewBox="0.00 0.00 566.66 557.00" xmlns="http://www.w3.org/2000/svg" xmlns:xlink="http://www.w3.org/1999/xlink">
<g id="graph0" class="graph" transform="scale(1 1) rotate(0) translate(4 553)">
<title>AS31095 IPv4 Upstream Graph</title>
<polygon fill="white" stroke="none" points="-4,4 -4,-553 562.663,-553 562.663,4 -4,4"/>
<!-- AS31095 -->
<g id="node1" class="node"><title>AS31095</title>
<g id="a_node1"><a xlink:href="/asn/31095" xlink:title="AS31095 ~ Letaliska 26 [AT]">
<ellipse fill="#ffffff" stroke="black" cx="44.1961" cy="-260" rx="44.393" ry="18"/>
<text text-anchor="middle" x="44.1961" y="-256.3" font-family="Times,serif" font-size="14.00" fill="#880000">AS31095</text>
</a>
</g>
</g>
<!-- AS5603 -->
<g id="node2" class="node"><title>AS5603</title>
<g id="a_node2"><a xlink:href="/asn/5603" xlink:title="AS5603 ~ Telekom Slovenije d.d. [SI]">
<ellipse fill="#ffffff" stroke="black" cx="164.039" cy="-301" rx="39.7935" ry="18"/>
<text text-anchor="middle" x="164.039" y="-297.3" font-family="Times,serif" font-size="14.00" fill="#2c94b3">AS5603</text>
</a>
</g>
</g>
<!-- AS31095&#45;&gt;AS5603 -->
<g id="edge1" class="edge"><title>AS31095&#45;&gt;AS5603</title>
<path fill="none" stroke="black" stroke-width="4.5" d="M78.3354,-271.53C92.0527,-276.302 108.092,-281.883 122.502,-286.896"/>
<polygon fill="black" stroke="black" stroke-width="4.5" points="121.43,-290.692 132.168,-290.26 124.018,-283.255 121.43,-290.692"/>
</g>
<!-- AS9119 -->
<g id="node3" class="node"><title>AS9119</title>
<g id="a_node3"><a xlink:href="/asn/9119" xlink:title="AS9119 ~ SOFTNET&#45;AS [SI]">
<ellipse fill="#ffffff" stroke="black" cx="164.039" cy="-220" rx="39.7935" ry="18"/>
<text text-anchor="middle" x="164.039" y="-216.3" font-family="Times,serif" font-size="14.00" fill="#2c94b3">AS9119</text>
</a>
</g>
</g>
<!-- AS31095&#45;&gt;AS9119 -->
<g id="edge2" class="edge"><title>AS31095&#45;&gt;AS9119</title>
<path fill="none" stroke="black" stroke-width="0.236842" d="M78.6498,-248.645C92.2505,-244.028 108.093,-238.651 122.354,-233.81"/>
<polygon fill="black" stroke="black" stroke-width="0.236842" points="123.583,-237.089 131.928,-230.56 121.333,-230.46 123.583,-237.089"/>
</g>
<!-- AS6762 -->
<g id="node4" class="node"><title>AS6762</title>
<g id="a_node4"><a xlink:href="/asn/6762" xlink:title="AS6762 ~ TELECOM ITALIA SPARKLE S.p.A. [IT]">
<ellipse fill="#ffffff" stroke="black" cx="279.332" cy="-220" rx="39.7935" ry="18"/>
<text text-anchor="middle" x="279.332" y="-216.3" font-family="Times,serif" font-size="14.00" fill="#2c94b3">AS6762</text>
</a>
</g>
</g>
<!-- AS5603&#45;&gt;AS6762 -->
<g id="edge3" class="edge"><title>AS5603&#45;&gt;AS6762</title>
<path fill="none" stroke="black" stroke-width="4.5" d="M186.083,-285.954C203.697,-273.361 229.036,-255.245 248.701,-241.184"/>
<polygon fill="black" stroke="black" stroke-width="4.5" points="251.171,-244.259 257.016,-235.24 246.591,-237.853 251.171,-244.259"/>
</g>
<!-- AS1299 -->
<g id="node5" class="node"><title>AS1299</title>
<g id="a_node5"><a xlink:href="/asn/1299" xlink:title="AS1299 ~ Telia Carrier [EU]">
<ellipse fill="#ffffff" stroke="black" cx="279.332" cy="-315" rx="39.7935" ry="18"/>
<text text-anchor="middle" x="279.332" y="-311.3" font-family="Times,serif" font-size="14.00" fill="#2c94b3">AS1299</text>
</a>
</g>
</g>
<!-- AS5603&#45;&gt;AS1299 -->
<g id="edge4" class="edge"><title>AS5603&#45;&gt;AS1299</title>
<path fill="none" stroke="black" stroke-width="3.9375" d="M202.449,-305.623C211.537,-306.746 221.374,-307.962 230.859,-309.134"/>
<polygon fill="black" stroke="black" stroke-width="3.9375" points="230.607,-312.629 240.961,-310.382 231.465,-305.682 230.607,-312.629"/>
</g>
<!-- AS3320 -->
<g id="node6" class="node"><title>AS3320</title>
<g id="a_node6"><a xlink:href="/asn/3320" xlink:title="AS3320 ~ DTAG [DE]">
<ellipse fill="#ffffff" stroke="black" cx="279.332" cy="-450" rx="39.7935" ry="18"/>
<text text-anchor="middle" x="279.332" y="-446.3" font-family="Times,serif" font-size="14.00" fill="#2c94b3">AS3320</text>
</a>
</g>
</g>
<!-- AS5603&#45;&gt;AS3320 -->
<g id="edge5" class="edge"><title>AS5603&#45;&gt;AS3320</title>
<path fill="none" stroke="black" stroke-width="2.25" d="M178.035,-318.092C198.011,-344.364 236.362,-394.802 259.418,-425.125"/>
<polygon fill="black" stroke="black" stroke-width="2.25" points="256.648,-427.265 265.487,-433.107 262.22,-423.028 256.648,-427.265"/>
</g>
<!-- AS1239 -->
<g id="node19" class="node"><title>AS1239</title>
<g id="a_node19"><a xlink:href="/asn/1239" xlink:title="AS1239 ~ Sprint [US]">
<ellipse fill="#ffffff" stroke="black" cx="279.332" cy="-166" rx="39.7935" ry="18"/>
<text text-anchor="middle" x="279.332" y="-162.3" font-family="Times,serif" font-size="14.00" fill="#2c94b3">AS1239</text>
</a>
</g>
</g>
<!-- AS9119&#45;&gt;AS1239 -->
<g id="edge23" class="edge"><title>AS9119&#45;&gt;AS1239</title>
<path fill="none" stroke="black" d="M192.175,-207.066C207.169,-199.919 225.99,-190.948 242.213,-183.215"/>
<polygon fill="black" stroke="black" points="243.895,-186.291 251.417,-178.829 240.884,-179.972 243.895,-186.291"/>
</g>
<!-- AS3491 -->
<g id="node7" class="node"><title>AS3491</title>
<g id="a_node7"><a xlink:href="/asn/3491" xlink:title="AS3491 ~ PCCW Global, Inc. [US]">
<ellipse fill="#ffffff" stroke="black" cx="399.174" cy="-261" rx="39.7935" ry="18"/>
<text text-anchor="middle" x="399.174" y="-257.3" font-family="Times,serif" font-size="14.00" fill="#2c94b3">AS3491</text>
</a>
</g>
</g>
<!-- AS6762&#45;&gt;AS3491 -->
<g id="edge6" class="edge"><title>AS6762&#45;&gt;AS3491</title>
<path fill="none" stroke="black" d="M311.293,-230.772C325.39,-235.677 342.266,-241.548 357.38,-246.807"/>
<polygon fill="black" stroke="black" points="356.415,-250.177 367.01,-250.157 358.715,-243.566 356.415,-250.177"/>
</g>
<!-- AS2914 -->
<g id="node8" class="node"><title>AS2914</title>
<g id="a_node8"><a xlink:href="/asn/2914" xlink:title="AS2914 ~ NTT America, Inc. [US]">
<ellipse fill="#ffffff" stroke="black" cx="399.174" cy="-423" rx="39.7935" ry="18"/>
<text text-anchor="middle" x="399.174" y="-419.3" font-family="Times,serif" font-size="14.00" fill="#2c94b3">AS2914</text>
</a>
</g>
</g>
<!-- AS6762&#45;&gt;AS2914 -->
<g id="edge7" class="edge"><title>AS6762&#45;&gt;AS2914</title>
<path fill="none" stroke="black" d="M291.48,-237.403C299.785,-250.857 311.018,-270.14 318.978,-288 339.576,-334.214 323.679,-356.246 354.978,-396 357.303,-398.953 360.047,-401.67 363.006,-404.147"/>
<polygon fill="black" stroke="black" points="361.065,-407.064 371.203,-410.145 365.199,-401.415 361.065,-407.064"/>
</g>
<!-- AS6453 -->
<g id="node9" class="node"><title>AS6453</title>
<g id="a_node9"><a xlink:href="/asn/6453" xlink:title="AS6453 ~ TATA COMMUNICATIONS (AMERICA) INC [US]">
<ellipse fill="#ffffff" stroke="black" cx="399.174" cy="-153" rx="39.7935" ry="18"/>
<text text-anchor="middle" x="399.174" y="-149.3" font-family="Times,serif" font-size="14.00" fill="#2c94b3">AS6453</text>
</a>
</g>
</g>
<!-- AS6762&#45;&gt;AS6453 -->
<g id="edge8" class="edge"><title>AS6762&#45;&gt;AS6453</title>
<path fill="none" stroke="black" d="M304.749,-206.118C322.208,-196.191 345.909,-182.716 365.069,-171.822"/>
<polygon fill="black" stroke="black" points="366.825,-174.85 373.788,-166.865 363.365,-168.765 366.825,-174.85"/>
</g>
<!-- AS174 -->
<g id="node10" class="node"><title>AS174</title>
<g id="a_node10"><a xlink:href="/asn/174" xlink:title="AS174 ~ Cogent Communications [US]">
<ellipse fill="#ffffff" stroke="black" cx="399.174" cy="-207" rx="35.194" ry="18"/>
<text text-anchor="middle" x="399.174" y="-203.3" font-family="Times,serif" font-size="14.00" fill="#2c94b3">AS174</text>
</a>
</g>
</g>
<!-- AS6762&#45;&gt;AS174 -->
<g id="edge9" class="edge"><title>AS6762&#45;&gt;AS174</title>
<path fill="none" stroke="black" d="M317.942,-215.851C329.507,-214.575 342.339,-213.16 354.287,-211.841"/>
<polygon fill="black" stroke="black" points="354.949,-215.29 364.505,-210.714 354.182,-208.332 354.949,-215.29"/>
</g>
<!-- AS12956 -->
<g id="node11" class="node"><title>AS12956</title>
<g id="a_node11"><a xlink:href="/asn/12956" xlink:title="AS12956 ~ TELXIUS [ES]">
<ellipse fill="#ffffff" stroke="black" cx="399.174" cy="-99" rx="44.393" ry="18"/>
<text text-anchor="middle" x="399.174" y="-95.3" font-family="Times,serif" font-size="14.00" fill="#2c94b3">AS12956</text>
</a>
</g>
</g>
<!-- AS6762&#45;&gt;AS12956 -->
<g id="edge10" class="edge"><title>AS6762&#45;&gt;AS12956</title>
<path fill="none" stroke="black" d="M304.247,-205.91C309.49,-202.14 314.735,-197.77 318.978,-193 341.446,-167.743 331.872,-150.674 354.978,-126 357.347,-123.47 360.003,-121.083 362.802,-118.852"/>
<polygon fill="black" stroke="black" points="364.873,-121.674 370.953,-112.998 360.789,-115.989 364.873,-121.674"/>
</g>
<!-- AS3356 -->
<g id="node12" class="node"><title>AS3356</title>
<g id="a_node12"><a xlink:href="/asn/3356" xlink:title="AS3356 ~ Level 3 Parent, LLC [US]">
<ellipse fill="#ffffff" stroke="black" cx="399.174" cy="-45" rx="39.7935" ry="18"/>
<text text-anchor="middle" x="399.174" y="-41.3" font-family="Times,serif" font-size="14.00" fill="#2c94b3">AS3356</text>
</a>
</g>
</g>
<!-- AS6762&#45;&gt;AS3356 -->
<g id="edge11" class="edge"><title>AS6762&#45;&gt;AS3356</title>
<path fill="none" stroke="black" stroke-width="2" d="M305.384,-206.207C310.453,-202.473 315.338,-198.044 318.978,-193 351.81,-147.502 320.993,-116.644 354.978,-72 357.255,-69.0094 359.966,-66.2675 362.905,-63.7744"/>
<polygon fill="black" stroke="black" stroke-width="2" points="365.099,-66.5052 371.073,-57.7554 360.947,-60.8698 365.099,-66.5052"/>
</g>
<!-- AS1299&#45;&gt;AS3491 -->
<g id="edge16" class="edge"><title>AS1299&#45;&gt;AS3491</title>
<path fill="none" stroke="black" d="M307.96,-302.339C323.917,-295.027 344.188,-285.739 361.471,-277.819"/>
<polygon fill="black" stroke="black" points="363.085,-280.929 370.718,-273.581 360.169,-274.565 363.085,-280.929"/>
</g>
<!-- AS1299&#45;&gt;AS2914 -->
<g id="edge15" class="edge"><title>AS1299&#45;&gt;AS2914</title>
<path fill="none" stroke="black" d="M293.751,-332.065C307.865,-349.375 331.28,-376.345 354.978,-396 358.194,-398.668 361.695,-401.27 365.265,-403.741"/>
<polygon fill="black" stroke="black" points="363.343,-406.666 373.622,-409.236 367.189,-400.817 363.343,-406.666"/>
</g>
<!-- AS1299&#45;&gt;AS174 -->
<g id="edge17" class="edge"><title>AS1299&#45;&gt;AS174</title>
<path fill="none" stroke="black" d="M293.751,-297.935C307.865,-280.625 331.28,-253.655 354.978,-234 358.441,-231.128 362.234,-228.331 366.088,-225.692"/>
<polygon fill="black" stroke="black" points="368.05,-228.592 374.521,-220.203 364.231,-222.725 368.05,-228.592"/>
</g>
<!-- AS2497 -->
<g id="node13" class="node"><title>AS2497</title>
<g id="a_node13"><a xlink:href="/asn/2497" xlink:title="AS2497 ~ Internet Initiative Japan Inc. [JP]">
<ellipse fill="#ffffff" stroke="black" cx="399.174" cy="-477" rx="39.7935" ry="18"/>
<text text-anchor="middle" x="399.174" y="-473.3" font-family="Times,serif" font-size="14.00" fill="#2c94b3">AS2497</text>
</a>
</g>
</g>
<!-- AS1299&#45;&gt;AS2497 -->
<g id="edge12" class="edge"><title>AS1299&#45;&gt;AS2497</title>
<path fill="none" stroke="black" d="M286.855,-332.994C297.605,-360.728 321.262,-414.429 354.978,-450 357.564,-452.728 360.481,-455.294 363.55,-457.677"/>
<polygon fill="black" stroke="black" points="361.704,-460.658 371.898,-463.543 365.728,-454.93 361.704,-460.658"/>
</g>
<!-- AS3257 -->
<g id="node14" class="node"><title>AS3257</title>
<g id="a_node14"><a xlink:href="/asn/3257" xlink:title="AS3257 ~ GTT [DE]">
<ellipse fill="#ffffff" stroke="black" cx="399.174" cy="-369" rx="39.7935" ry="18"/>
<text text-anchor="middle" x="399.174" y="-365.3" font-family="Times,serif" font-size="14.00" fill="#2c94b3">AS3257</text>
</a>
</g>
</g>
<!-- AS1299&#45;&gt;AS3257 -->
<g id="edge13" class="edge"><title>AS1299&#45;&gt;AS3257</title>
<path fill="none" stroke="black" d="M307.96,-327.661C323.917,-334.973 344.188,-344.261 361.471,-352.181"/>
<polygon fill="black" stroke="black" points="360.169,-355.435 370.718,-356.419 363.085,-349.071 360.169,-355.435"/>
</g>
<!-- AS7018 -->
<g id="node15" class="node"><title>AS7018</title>
<g id="a_node15"><a xlink:href="/asn/7018" xlink:title="AS7018 ~ AT&amp;T Services, Inc. [US]">
<ellipse fill="#ffffff" stroke="black" cx="399.174" cy="-315" rx="39.7935" ry="18"/>
<text text-anchor="middle" x="399.174" y="-311.3" font-family="Times,serif" font-size="14.00" fill="#2c94b3">AS7018</text>
</a>
</g>
</g>
<!-- AS1299&#45;&gt;AS7018 -->
<g id="edge14" class="edge"><title>AS1299&#45;&gt;AS7018</title>
<path fill="none" stroke="black" d="M319.244,-315C328.798,-315 339.147,-315 349.11,-315"/>
<polygon fill="black" stroke="black" points="349.302,-318.5 359.302,-315 349.302,-311.5 349.302,-318.5"/>
</g>
<!-- AS3320&#45;&gt;AS2914 -->
<g id="edge20" class="edge"><title>AS3320&#45;&gt;AS2914</title>
<path fill="none" stroke="black" d="M315.051,-442.045C327.051,-439.296 340.672,-436.175 353.364,-433.267"/>
<polygon fill="black" stroke="black" points="354.33,-436.636 363.296,-430.991 352.767,-429.813 354.33,-436.636"/>
</g>
<!-- AS3320&#45;&gt;AS2497 -->
<g id="edge19" class="edge"><title>AS3320&#45;&gt;AS2497</title>
<path fill="none" stroke="black" d="M315.051,-457.955C327.051,-460.704 340.672,-463.825 353.364,-466.733"/>
<polygon fill="black" stroke="black" points="352.767,-470.187 363.296,-469.009 354.33,-463.364 352.767,-470.187"/>
</g>
<!-- AS701 -->
<g id="node16" class="node"><title>AS701</title>
<g id="a_node16"><a xlink:href="/asn/701" xlink:title="AS701 ~ UUNET [US]">
<ellipse fill="#ffffff" stroke="black" cx="399.174" cy="-531" rx="35.194" ry="18"/>
<text text-anchor="middle" x="399.174" y="-527.3" font-family="Times,serif" font-size="14.00" fill="#2c94b3">AS701</text>
</a>
</g>
</g>
<!-- AS3320&#45;&gt;AS701 -->
<g id="edge18" class="edge"><title>AS3320&#45;&gt;AS701</title>
<path fill="none" stroke="black" d="M300.662,-465.277C315.524,-476.304 336.269,-491.407 354.978,-504 358.795,-506.569 362.845,-509.21 366.876,-511.786"/>
<polygon fill="black" stroke="black" points="365.245,-514.895 375.57,-517.271 368.98,-508.975 365.245,-514.895"/>
</g>
<!-- AS3549 -->
<g id="node17" class="node"><title>AS3549</title>
<g id="a_node17"><a xlink:href="/asn/3549" xlink:title="AS3549 ~ Level 3 Parent, LLC [US]">
<ellipse fill="#ffffff" stroke="black" cx="519.017" cy="-72" rx="39.7935" ry="18"/>
<text text-anchor="middle" x="519.017" y="-68.3" font-family="Times,serif" font-size="14.00" fill="#2c94b3">AS3549</text>
</a>
</g>
</g>
<!-- AS3356&#45;&gt;AS3549 -->
<g id="edge21" class="edge"><title>AS3356&#45;&gt;AS3549</title>
<path fill="none" stroke="black" d="M434.893,-52.9549C446.893,-55.7043 460.514,-58.8251 473.207,-61.7332"/>
<polygon fill="black" stroke="black" points="472.609,-65.1869 483.138,-64.0087 474.173,-58.3637 472.609,-65.1869"/>
</g>
<!-- AS209 -->
<g id="node18" class="node"><title>AS209</title>
<g id="a_node18"><a xlink:href="/asn/209" xlink:title="AS209 ~ CenturyLink Communications, LLC [US]">
<ellipse fill="#ffffff" stroke="black" cx="519.017" cy="-18" rx="35.194" ry="18"/>
<text text-anchor="middle" x="519.017" y="-14.3" font-family="Times,serif" font-size="14.00" fill="#2c94b3">AS209</text>
</a>
</g>
</g>
<!-- AS3356&#45;&gt;AS209 -->
<g id="edge22" class="edge"><title>AS3356&#45;&gt;AS209</title>
<path fill="none" stroke="black" d="M434.893,-37.0451C447.986,-34.0454 463.008,-30.6035 476.649,-27.4781"/>
<polygon fill="black" stroke="black" points="477.79,-30.8074 486.756,-25.1624 476.227,-23.9842 477.79,-30.8074"/>
</g>
</g>
</svg>
