<?xml version="1.0" encoding="UTF-8" standalone="no"?>
<!DOCTYPE svg PUBLIC "-//W3C//DTD SVG 1.1//EN"
 "http://www.w3.org/Graphics/SVG/1.1/DTD/svg11.dtd">
<!-- Generated by graphviz version 2.38.0 (20140413.2041)
 -->
<!-- Title: AS8787 IPv4 Upstream Graph Pages: 1 -->
<svg width="558pt" height="736pt"
 viewBox="0.00 0.00 557.56 736.00" xmlns="http://www.w3.org/2000/svg" xmlns:xlink="http://www.w3.org/1999/xlink">
<g id="graph0" class="graph" transform="scale(1 1) rotate(0) translate(4 732)">
<title>AS8787 IPv4 Upstream Graph</title>
<polygon fill="white" stroke="none" points="-4,4 -4,-732 553.564,-732 553.564,4 -4,4"/>
<!-- AS8787 -->
<g id="node1" class="node"><title>AS8787</title>
<g id="a_node1"><a xlink:href="/asn/8787" xlink:title="AS8787 ~ Amaris Technologies GmbH [AT]">
<ellipse fill="#ffffff" stroke="black" cx="39.6465" cy="-428" rx="39.7935" ry="18"/>
<text text-anchor="middle" x="39.6465" y="-424.3" font-family="Times,serif" font-size="14.00" fill="#880000">AS8787</text>
</a>
</g>
</g>
<!-- AS1764 -->
<g id="node2" class="node"><title>AS1764</title>
<g id="a_node2"><a xlink:href="/asn/1764" xlink:title="AS1764 ~ NEXTLAYER&#45;AS [AT]">
<ellipse fill="#ffffff" stroke="black" cx="154.939" cy="-461" rx="39.7935" ry="18"/>
<text text-anchor="middle" x="154.939" y="-457.3" font-family="Times,serif" font-size="14.00" fill="#2c94b3">AS1764</text>
</a>
</g>
</g>
<!-- AS8787&#45;&gt;AS1764 -->
<g id="edge1" class="edge"><title>AS8787&#45;&gt;AS1764</title>
<path fill="none" stroke="black" stroke-width="3.85714" d="M73.4155,-437.545C85.2757,-441 98.8452,-444.952 111.422,-448.616"/>
<polygon fill="black" stroke="black" stroke-width="3.85714" points="110.664,-452.04 121.244,-451.476 112.622,-445.319 110.664,-452.04"/>
</g>
<!-- AS8220 -->
<g id="node3" class="node"><title>AS8220</title>
<g id="a_node3"><a xlink:href="/asn/8220" xlink:title="AS8220 ~ COLT [GB]">
<ellipse fill="#ffffff" stroke="black" cx="154.939" cy="-396" rx="39.7935" ry="18"/>
<text text-anchor="middle" x="154.939" y="-392.3" font-family="Times,serif" font-size="14.00" fill="#2c94b3">AS8220</text>
</a>
</g>
</g>
<!-- AS8787&#45;&gt;AS8220 -->
<g id="edge2" class="edge"><title>AS8787&#45;&gt;AS8220</title>
<path fill="none" stroke="black" stroke-width="4.5" d="M73.7201,-418.658C85.3671,-415.369 98.6324,-411.622 110.976,-408.135"/>
<polygon fill="black" stroke="black" stroke-width="4.5" points="112.075,-411.916 120.629,-405.409 109.935,-404.338 112.075,-411.916"/>
</g>
<!-- AS2914 -->
<g id="node4" class="node"><title>AS2914</title>
<g id="a_node4"><a xlink:href="/asn/2914" xlink:title="AS2914 ~ NTT America, Inc. [US]">
<ellipse fill="#ffffff" stroke="black" cx="390.075" cy="-418" rx="39.7935" ry="18"/>
<text text-anchor="middle" x="390.075" y="-414.3" font-family="Times,serif" font-size="14.00" fill="#2c94b3">AS2914</text>
</a>
</g>
</g>
<!-- AS1764&#45;&gt;AS2914 -->
<g id="edge3" class="edge"><title>AS1764&#45;&gt;AS2914</title>
<path fill="none" stroke="black" stroke-width="1.8" d="M191.856,-454.375C232.5,-446.879 298.804,-434.65 343.171,-426.467"/>
<polygon fill="black" stroke="black" stroke-width="1.8" points="343.918,-429.888 353.118,-424.632 342.649,-423.004 343.918,-429.888"/>
</g>
<!-- AS3356 -->
<g id="node5" class="node"><title>AS3356</title>
<g id="a_node5"><a xlink:href="/asn/3356" xlink:title="AS3356 ~ Level 3 Parent, LLC [US]">
<ellipse fill="#ffffff" stroke="black" cx="270.232" cy="-280" rx="39.7935" ry="18"/>
<text text-anchor="middle" x="270.232" y="-276.3" font-family="Times,serif" font-size="14.00" fill="#2c94b3">AS3356</text>
</a>
</g>
</g>
<!-- AS1764&#45;&gt;AS3356 -->
<g id="edge4" class="edge"><title>AS1764&#45;&gt;AS3356</title>
<path fill="none" stroke="black" stroke-width="4.5" d="M175.051,-445.434C181.94,-439.057 189.308,-431.24 194.586,-423 220.064,-383.224 206.347,-363.543 230.586,-323 234.552,-316.366 239.628,-309.833 244.789,-303.94"/>
<polygon fill="black" stroke="black" stroke-width="4.5" points="247.9,-306.374 251.781,-296.351 242.109,-301.038 247.9,-306.374"/>
</g>
<!-- AS174 -->
<g id="node6" class="node"><title>AS174</title>
<g id="a_node6"><a xlink:href="/asn/174" xlink:title="AS174 ~ Cogent Communications [US]">
<ellipse fill="#ffffff" stroke="black" cx="390.075" cy="-618" rx="35.194" ry="18"/>
<text text-anchor="middle" x="390.075" y="-614.3" font-family="Times,serif" font-size="14.00" fill="#2c94b3">AS174</text>
</a>
</g>
</g>
<!-- AS1764&#45;&gt;AS174 -->
<g id="edge5" class="edge"><title>AS1764&#45;&gt;AS174</title>
<path fill="none" stroke="black" stroke-width="2.7" d="M167.974,-478.365C181.477,-496.83 204.883,-525.945 230.586,-545 267.686,-572.505 316.804,-593.139 350.47,-605.332"/>
<polygon fill="black" stroke="black" stroke-width="2.7" points="349.367,-608.654 359.962,-608.694 351.705,-602.056 349.367,-608.654"/>
</g>
<!-- AS3320 -->
<g id="node7" class="node"><title>AS3320</title>
<g id="a_node7"><a xlink:href="/asn/3320" xlink:title="AS3320 ~ DTAG [DE]">
<ellipse fill="#ffffff" stroke="black" cx="270.232" cy="-350" rx="39.7935" ry="18"/>
<text text-anchor="middle" x="270.232" y="-346.3" font-family="Times,serif" font-size="14.00" fill="#2c94b3">AS3320</text>
</a>
</g>
</g>
<!-- AS1764&#45;&gt;AS3320 -->
<g id="edge6" class="edge"><title>AS1764&#45;&gt;AS3320</title>
<path fill="none" stroke="black" stroke-width="2.7" d="M172.656,-444.622C191.817,-425.849 223.379,-394.925 245.179,-373.566"/>
<polygon fill="black" stroke="black" stroke-width="2.7" points="247.754,-375.944 252.447,-366.446 242.855,-370.944 247.754,-375.944"/>
</g>
<!-- AS3257 -->
<g id="node8" class="node"><title>AS3257</title>
<g id="a_node8"><a xlink:href="/asn/3257" xlink:title="AS3257 ~ GTT [DE]">
<ellipse fill="#ffffff" stroke="black" cx="390.075" cy="-472" rx="39.7935" ry="18"/>
<text text-anchor="middle" x="390.075" y="-468.3" font-family="Times,serif" font-size="14.00" fill="#2c94b3">AS3257</text>
</a>
</g>
</g>
<!-- AS1764&#45;&gt;AS3257 -->
<g id="edge7" class="edge"><title>AS1764&#45;&gt;AS3257</title>
<path fill="none" stroke="black" stroke-width="1.8" d="M194.437,-462.816C234.427,-464.703 297.105,-467.661 340.482,-469.707"/>
<polygon fill="black" stroke="black" stroke-width="1.8" points="340.366,-473.206 350.52,-470.181 340.696,-466.213 340.366,-473.206"/>
</g>
<!-- AS1299 -->
<g id="node9" class="node"><title>AS1299</title>
<g id="a_node9"><a xlink:href="/asn/1299" xlink:title="AS1299 ~ Telia Carrier [EU]">
<ellipse fill="#ffffff" stroke="black" cx="270.232" cy="-518" rx="39.7935" ry="18"/>
<text text-anchor="middle" x="270.232" y="-514.3" font-family="Times,serif" font-size="14.00" fill="#2c94b3">AS1299</text>
</a>
</g>
</g>
<!-- AS1764&#45;&gt;AS1299 -->
<g id="edge8" class="edge"><title>AS1764&#45;&gt;AS1299</title>
<path fill="none" stroke="black" stroke-width="1.8" d="M182.216,-474.22C197.659,-481.99 217.377,-491.911 234.137,-500.343"/>
<polygon fill="black" stroke="black" stroke-width="1.8" points="232.592,-503.484 243.098,-504.851 235.738,-497.23 232.592,-503.484"/>
</g>
<!-- AS8218 -->
<g id="node10" class="node"><title>AS8218</title>
<g id="a_node10"><a xlink:href="/asn/8218" xlink:title="AS8218 ~ legacy Neotelecoms [FR]">
<ellipse fill="#ffffff" stroke="black" cx="270.232" cy="-691" rx="39.7935" ry="18"/>
<text text-anchor="middle" x="270.232" y="-687.3" font-family="Times,serif" font-size="14.00" fill="#2c94b3">AS8218</text>
</a>
</g>
</g>
<!-- AS1764&#45;&gt;AS8218 -->
<g id="edge9" class="edge"><title>AS1764&#45;&gt;AS8218</title>
<path fill="none" stroke="black" stroke-width="0.9" d="M163.047,-478.911C175.533,-509.88 202.736,-575.189 230.586,-628 237.198,-640.538 245.3,-653.986 252.375,-665.225"/>
<polygon fill="black" stroke="black" stroke-width="0.9" points="249.453,-667.153 257.78,-673.704 255.356,-663.391 249.453,-667.153"/>
</g>
<!-- AS8220&#45;&gt;AS2914 -->
<g id="edge38" class="edge"><title>AS8220&#45;&gt;AS2914</title>
<path fill="none" stroke="black" stroke-width="0.5" d="M193.916,-399.584C234.051,-403.371 297.454,-409.354 341.037,-413.467"/>
<polygon fill="black" stroke="black" stroke-width="0.5" points="340.83,-416.963 351.115,-414.418 341.488,-409.994 340.83,-416.963"/>
</g>
<!-- AS8220&#45;&gt;AS3356 -->
<g id="edge36" class="edge"><title>AS8220&#45;&gt;AS3356</title>
<path fill="none" stroke="black" stroke-width="4.5" d="M172.172,-379.38C191.521,-359.568 223.998,-326.315 246.003,-303.784"/>
<polygon fill="black" stroke="black" stroke-width="4.5" points="248.86,-306.494 253.03,-296.589 243.226,-300.992 248.86,-306.494"/>
</g>
<!-- AS8220&#45;&gt;AS3320 -->
<g id="edge37" class="edge"><title>AS8220&#45;&gt;AS3320</title>
<path fill="none" stroke="black" stroke-width="0.5" d="M185.115,-384.154C198.991,-378.52 215.768,-371.708 230.677,-365.654"/>
<polygon fill="black" stroke="black" stroke-width="0.5" points="232.207,-368.811 240.156,-361.806 229.573,-362.325 232.207,-368.811"/>
</g>
<!-- AS8220&#45;&gt;AS1299 -->
<g id="edge34" class="edge"><title>AS8220&#45;&gt;AS1299</title>
<path fill="none" stroke="black" stroke-width="4" d="M173.117,-412.405C179.906,-419.014 187.713,-426.772 194.586,-434 213.185,-453.563 233.485,-476.516 248.213,-493.481"/>
<polygon fill="black" stroke="black" stroke-width="4" points="245.776,-496.013 254.964,-501.287 251.07,-491.434 245.776,-496.013"/>
</g>
<!-- AS6453 -->
<g id="node12" class="node"><title>AS6453</title>
<g id="a_node12"><a xlink:href="/asn/6453" xlink:title="AS6453 ~ TATA COMMUNICATIONS (AMERICA) INC [US]">
<ellipse fill="#ffffff" stroke="black" cx="390.075" cy="-18" rx="39.7935" ry="18"/>
<text text-anchor="middle" x="390.075" y="-14.3" font-family="Times,serif" font-size="14.00" fill="#2c94b3">AS6453</text>
</a>
</g>
</g>
<!-- AS8220&#45;&gt;AS6453 -->
<g id="edge39" class="edge"><title>AS8220&#45;&gt;AS6453</title>
<path fill="none" stroke="black" stroke-width="0.5" d="M161.884,-377.901C180.866,-322.342 244.775,-151.557 345.879,-45 348.466,-42.2734 351.385,-39.708 354.453,-37.3254"/>
<polygon fill="black" stroke="black" stroke-width="0.5" points="356.632,-40.0724 362.803,-31.4602 352.608,-34.3444 356.632,-40.0724"/>
</g>
<!-- AS6461 -->
<g id="node21" class="node"><title>AS6461</title>
<g id="a_node21"><a xlink:href="/asn/6461" xlink:title="AS6461 ~ Zayo Bandwidth [US]">
<ellipse fill="#ffffff" stroke="black" cx="390.075" cy="-710" rx="39.7935" ry="18"/>
<text text-anchor="middle" x="390.075" y="-706.3" font-family="Times,serif" font-size="14.00" fill="#2c94b3">AS6461</text>
</a>
</g>
</g>
<!-- AS8220&#45;&gt;AS6461 -->
<g id="edge35" class="edge"><title>AS8220&#45;&gt;AS6461</title>
<path fill="none" stroke="black" stroke-width="0.5" d="M175.191,-411.478C182.097,-417.844 189.44,-425.676 194.586,-434 221.859,-478.113 204.127,-500.394 230.586,-545 268.646,-609.165 293.816,-613.566 345.879,-667 352.142,-673.428 358.996,-680.316 365.363,-686.655"/>
<polygon fill="black" stroke="black" stroke-width="0.5" points="362.983,-689.224 372.547,-693.782 367.913,-684.254 362.983,-689.224"/>
</g>
<!-- AS2497 -->
<g id="node13" class="node"><title>AS2497</title>
<g id="a_node13"><a xlink:href="/asn/2497" xlink:title="AS2497 ~ Internet Initiative Japan Inc. [JP]">
<ellipse fill="#ffffff" stroke="black" cx="509.918" cy="-445" rx="39.7935" ry="18"/>
<text text-anchor="middle" x="509.918" y="-441.3" font-family="Times,serif" font-size="14.00" fill="#2c94b3">AS2497</text>
</a>
</g>
</g>
<!-- AS2914&#45;&gt;AS2497 -->
<g id="edge33" class="edge"><title>AS2914&#45;&gt;AS2497</title>
<path fill="none" stroke="black" d="M425.794,-425.955C437.794,-428.704 451.415,-431.825 464.108,-434.733"/>
<polygon fill="black" stroke="black" points="463.51,-438.187 474.039,-437.009 465.073,-431.364 463.51,-438.187"/>
</g>
<!-- AS3356&#45;&gt;AS2914 -->
<g id="edge15" class="edge"><title>AS3356&#45;&gt;AS2914</title>
<path fill="none" stroke="black" d="M287.667,-296.353C294.948,-304.065 303.328,-313.618 309.879,-323 329.455,-351.038 322.581,-365.968 345.879,-391 348.44,-393.751 351.341,-396.333 354.398,-398.726"/>
<polygon fill="black" stroke="black" points="352.543,-401.701 362.732,-404.606 356.579,-395.981 352.543,-401.701"/>
</g>
<!-- AS3356&#45;&gt;AS3257 -->
<g id="edge17" class="edge"><title>AS3356&#45;&gt;AS3257</title>
<path fill="none" stroke="black" d="M288.955,-296.195C296.313,-303.729 304.396,-313.186 309.879,-323 337.454,-372.352 311.686,-399.979 345.879,-445 348.152,-447.993 350.861,-450.737 353.799,-453.231"/>
<polygon fill="black" stroke="black" points="351.839,-456.135 361.965,-459.251 355.993,-450.5 351.839,-456.135"/>
</g>
<!-- AS6762 -->
<g id="node11" class="node"><title>AS6762</title>
<g id="a_node11"><a xlink:href="/asn/6762" xlink:title="AS6762 ~ TELECOM ITALIA SPARKLE S.p.A. [IT]">
<ellipse fill="#ffffff" stroke="black" cx="509.918" cy="-556" rx="39.7935" ry="18"/>
<text text-anchor="middle" x="509.918" y="-552.3" font-family="Times,serif" font-size="14.00" fill="#2c94b3">AS6762</text>
</a>
</g>
</g>
<!-- AS3356&#45;&gt;AS6762 -->
<g id="edge10" class="edge"><title>AS3356&#45;&gt;AS6762</title>
<path fill="none" stroke="black" stroke-width="2" d="M303.217,-269.869C339.408,-260.582 398.018,-252.434 434.271,-283 499.646,-338.119 444.209,-390.558 470.271,-472 476.651,-491.938 486.56,-513.36 494.746,-529.581"/>
<polygon fill="black" stroke="black" stroke-width="2" points="491.638,-531.191 499.327,-538.479 497.862,-527.986 491.638,-531.191"/>
</g>
<!-- AS3356&#45;&gt;AS6453 -->
<g id="edge11" class="edge"><title>AS3356&#45;&gt;AS6453</title>
<path fill="none" stroke="black" d="M276.586,-261.977C292.516,-208.51 338.941,-53.9415 345.879,-45 348.183,-42.0304 350.913,-39.3027 353.863,-36.8183"/>
<polygon fill="black" stroke="black" points="356.056,-39.55 362.047,-30.8116 351.915,-33.9067 356.056,-39.55"/>
</g>
<!-- AS3356&#45;&gt;AS2497 -->
<g id="edge12" class="edge"><title>AS3356&#45;&gt;AS2497</title>
<path fill="none" stroke="black" d="M294.806,-265.72C328.677,-247.249 391.709,-220.719 434.271,-250 489.451,-287.962 503.864,-372.704 507.612,-416.925"/>
<polygon fill="black" stroke="black" points="504.128,-417.266 508.339,-426.988 511.11,-416.762 504.128,-417.266"/>
</g>
<!-- AS3549 -->
<g id="node14" class="node"><title>AS3549</title>
<g id="a_node14"><a xlink:href="/asn/3549" xlink:title="AS3549 ~ Level 3 Parent, LLC [US]">
<ellipse fill="#ffffff" stroke="black" cx="390.075" cy="-180" rx="39.7935" ry="18"/>
<text text-anchor="middle" x="390.075" y="-176.3" font-family="Times,serif" font-size="14.00" fill="#2c94b3">AS3549</text>
</a>
</g>
</g>
<!-- AS3356&#45;&gt;AS3549 -->
<g id="edge13" class="edge"><title>AS3356&#45;&gt;AS3549</title>
<path fill="none" stroke="black" stroke-width="2" d="M287.991,-263.83C302.841,-249.724 325.298,-228.925 345.879,-212 350.204,-208.443 354.875,-204.796 359.491,-201.296"/>
<polygon fill="black" stroke="black" stroke-width="2" points="361.733,-203.99 367.656,-195.206 357.548,-198.379 361.733,-203.99"/>
</g>
<!-- AS701 -->
<g id="node15" class="node"><title>AS701</title>
<g id="a_node15"><a xlink:href="/asn/701" xlink:title="AS701 ~ UUNET [US]">
<ellipse fill="#ffffff" stroke="black" cx="390.075" cy="-310" rx="35.194" ry="18"/>
<text text-anchor="middle" x="390.075" y="-306.3" font-family="Times,serif" font-size="14.00" fill="#2c94b3">AS701</text>
</a>
</g>
</g>
<!-- AS3356&#45;&gt;AS701 -->
<g id="edge14" class="edge"><title>AS3356&#45;&gt;AS701</title>
<path fill="none" stroke="black" d="M305.317,-288.677C318.773,-292.103 334.345,-296.067 348.384,-299.641"/>
<polygon fill="black" stroke="black" points="347.73,-303.086 358.284,-302.161 349.457,-296.302 347.73,-303.086"/>
</g>
<!-- AS209 -->
<g id="node16" class="node"><title>AS209</title>
<g id="a_node16"><a xlink:href="/asn/209" xlink:title="AS209 ~ CenturyLink Communications, LLC [US]">
<ellipse fill="#ffffff" stroke="black" cx="390.075" cy="-126" rx="35.194" ry="18"/>
<text text-anchor="middle" x="390.075" y="-122.3" font-family="Times,serif" font-size="14.00" fill="#2c94b3">AS209</text>
</a>
</g>
</g>
<!-- AS3356&#45;&gt;AS209 -->
<g id="edge16" class="edge"><title>AS3356&#45;&gt;AS209</title>
<path fill="none" stroke="black" d="M278.386,-262.228C289.648,-235.925 313.595,-186.176 345.879,-153 348.863,-149.934 352.261,-147.062 355.811,-144.422"/>
<polygon fill="black" stroke="black" points="357.938,-147.208 364.245,-138.695 354.006,-141.417 357.938,-147.208"/>
</g>
<!-- AS1239 -->
<g id="node17" class="node"><title>AS1239</title>
<g id="a_node17"><a xlink:href="/asn/1239" xlink:title="AS1239 ~ Sprint [US]">
<ellipse fill="#ffffff" stroke="black" cx="390.075" cy="-364" rx="39.7935" ry="18"/>
<text text-anchor="middle" x="390.075" y="-360.3" font-family="Times,serif" font-size="14.00" fill="#2c94b3">AS1239</text>
</a>
</g>
</g>
<!-- AS3356&#45;&gt;AS1239 -->
<g id="edge18" class="edge"><title>AS3356&#45;&gt;AS1239</title>
<path fill="none" stroke="black" d="M290.507,-295.511C305.366,-307.273 326.572,-323.638 345.879,-337 349.397,-339.435 353.128,-341.913 356.865,-344.332"/>
<polygon fill="black" stroke="black" points="355.184,-347.411 365.502,-349.82 358.938,-341.503 355.184,-347.411"/>
</g>
<!-- AS12956 -->
<g id="node18" class="node"><title>AS12956</title>
<g id="a_node18"><a xlink:href="/asn/12956" xlink:title="AS12956 ~ TELXIUS [ES]">
<ellipse fill="#ffffff" stroke="black" cx="390.075" cy="-72" rx="44.393" ry="18"/>
<text text-anchor="middle" x="390.075" y="-68.3" font-family="Times,serif" font-size="14.00" fill="#2c94b3">AS12956</text>
</a>
</g>
</g>
<!-- AS3356&#45;&gt;AS12956 -->
<g id="edge19" class="edge"><title>AS3356&#45;&gt;AS12956</title>
<path fill="none" stroke="black" d="M274.816,-261.885C282.502,-226.939 303.424,-149.235 345.879,-99 347.991,-96.5008 350.395,-94.16 352.962,-91.984"/>
<polygon fill="black" stroke="black" points="355.111,-94.7475 361.026,-85.957 350.92,-89.1406 355.111,-94.7475"/>
</g>
<!-- AS174&#45;&gt;AS6762 -->
<g id="edge20" class="edge"><title>AS174&#45;&gt;AS6762</title>
<path fill="none" stroke="black" d="M415.207,-605.304C432.22,-596.353 455.262,-584.23 474.239,-574.245"/>
<polygon fill="black" stroke="black" points="475.965,-577.292 483.185,-569.539 472.705,-571.097 475.965,-577.292"/>
</g>
<!-- AS3491 -->
<g id="node19" class="node"><title>AS3491</title>
<g id="a_node19"><a xlink:href="/asn/3491" xlink:title="AS3491 ~ PCCW Global, Inc. [US]">
<ellipse fill="#ffffff" stroke="black" cx="509.918" cy="-641" rx="39.7935" ry="18"/>
<text text-anchor="middle" x="509.918" y="-637.3" font-family="Times,serif" font-size="14.00" fill="#2c94b3">AS3491</text>
</a>
</g>
</g>
<!-- AS174&#45;&gt;AS3491 -->
<g id="edge21" class="edge"><title>AS174&#45;&gt;AS3491</title>
<path fill="none" stroke="black" d="M423.276,-624.285C435.549,-626.68 449.784,-629.459 463.082,-632.054"/>
<polygon fill="black" stroke="black" points="462.535,-635.513 473.021,-633.994 463.876,-628.643 462.535,-635.513"/>
</g>
<!-- AS3320&#45;&gt;AS701 -->
<g id="edge22" class="edge"><title>AS3320&#45;&gt;AS701</title>
<path fill="none" stroke="black" d="M302.503,-339.386C317.269,-334.373 335.032,-328.344 350.615,-323.055"/>
<polygon fill="black" stroke="black" points="352.143,-326.232 360.487,-319.704 349.893,-319.604 352.143,-326.232"/>
</g>
<!-- AS3320&#45;&gt;AS1239 -->
<g id="edge23" class="edge"><title>AS3320&#45;&gt;AS1239</title>
<path fill="none" stroke="black" d="M308.843,-354.468C319.154,-355.693 330.471,-357.038 341.271,-358.321"/>
<polygon fill="black" stroke="black" points="341.075,-361.822 351.418,-359.526 341.901,-354.871 341.075,-361.822"/>
</g>
<!-- AS3257&#45;&gt;AS2497 -->
<g id="edge24" class="edge"><title>AS3257&#45;&gt;AS2497</title>
<path fill="none" stroke="black" d="M425.794,-464.045C437.794,-461.296 451.415,-458.175 464.108,-455.267"/>
<polygon fill="black" stroke="black" points="465.073,-458.636 474.039,-452.991 463.51,-451.813 465.073,-458.636"/>
</g>
<!-- AS1299&#45;&gt;AS2914 -->
<g id="edge27" class="edge"><title>AS1299&#45;&gt;AS2914</title>
<path fill="none" stroke="black" d="M286.33,-501.288C300.795,-485.765 323.652,-462.481 345.879,-445 349.163,-442.417 352.707,-439.867 356.302,-437.427"/>
<polygon fill="black" stroke="black" points="358.217,-440.357 364.687,-431.967 354.397,-434.491 358.217,-440.357"/>
</g>
<!-- AS1299&#45;&gt;AS174 -->
<g id="edge30" class="edge"><title>AS1299&#45;&gt;AS174</title>
<path fill="none" stroke="black" d="M288.718,-533.949C295.407,-540.139 303.063,-547.331 309.879,-554 326.278,-570.046 328.022,-576.593 345.879,-591 349.381,-593.825 353.197,-596.594 357.063,-599.217"/>
<polygon fill="black" stroke="black" points="355.213,-602.188 365.508,-604.692 359.021,-596.315 355.213,-602.188"/>
</g>
<!-- AS1299&#45;&gt;AS3257 -->
<g id="edge31" class="edge"><title>AS1299&#45;&gt;AS3257</title>
<path fill="none" stroke="black" d="M300.969,-506.392C315.763,-500.618 333.84,-493.561 349.762,-487.346"/>
<polygon fill="black" stroke="black" points="351.305,-490.501 359.348,-483.604 348.76,-483.98 351.305,-490.501"/>
</g>
<!-- AS1299&#45;&gt;AS2497 -->
<g id="edge28" class="edge"><title>AS1299&#45;&gt;AS2497</title>
<path fill="none" stroke="black" d="M310.107,-518.919C343.996,-518.462 393.905,-514.709 434.271,-499 452.54,-491.89 470.426,-479.211 484.108,-467.924"/>
<polygon fill="black" stroke="black" points="486.72,-470.296 492.05,-461.139 482.173,-464.974 486.72,-470.296"/>
</g>
<!-- AS1299&#45;&gt;AS1239 -->
<g id="edge29" class="edge"><title>AS1299&#45;&gt;AS1239</title>
<path fill="none" stroke="black" d="M278.386,-500.228C289.648,-473.925 313.595,-424.176 345.879,-391 348.5,-388.306 351.442,-385.763 354.525,-383.394"/>
<polygon fill="black" stroke="black" points="356.7,-386.144 362.894,-377.548 352.692,-380.405 356.7,-386.144"/>
</g>
<!-- AS1299&#45;&gt;AS3491 -->
<g id="edge26" class="edge"><title>AS1299&#45;&gt;AS3491</title>
<path fill="none" stroke="black" d="M291.038,-533.374C297.683,-539.276 304.711,-546.426 309.879,-554 334.394,-589.927 309.909,-620.548 345.879,-645 381.47,-669.195 432.272,-663.249 467.676,-654.424"/>
<polygon fill="black" stroke="black" points="468.922,-657.714 477.681,-651.753 467.117,-650.951 468.922,-657.714"/>
</g>
<!-- AS7018 -->
<g id="node20" class="node"><title>AS7018</title>
<g id="a_node20"><a xlink:href="/asn/7018" xlink:title="AS7018 ~ AT&amp;T Services, Inc. [US]">
<ellipse fill="#ffffff" stroke="black" cx="390.075" cy="-564" rx="39.7935" ry="18"/>
<text text-anchor="middle" x="390.075" y="-560.3" font-family="Times,serif" font-size="14.00" fill="#2c94b3">AS7018</text>
</a>
</g>
</g>
<!-- AS1299&#45;&gt;AS7018 -->
<g id="edge25" class="edge"><title>AS1299&#45;&gt;AS7018</title>
<path fill="none" stroke="black" stroke-width="2" d="M300.969,-529.608C315.763,-535.382 333.84,-542.439 349.762,-548.654"/>
<polygon fill="black" stroke="black" stroke-width="2" points="348.76,-552.02 359.348,-552.396 351.305,-545.499 348.76,-552.02"/>
</g>
<!-- AS8218&#45;&gt;AS6461 -->
<g id="edge32" class="edge"><title>AS8218&#45;&gt;AS6461</title>
<path fill="none" stroke="black" d="M307.873,-696.908C318.846,-698.677 331.03,-700.641 342.551,-702.499"/>
<polygon fill="black" stroke="black" points="342.028,-705.96 352.457,-704.096 343.142,-699.049 342.028,-705.96"/>
</g>
</g>
</svg>
