<?xml version="1.0" encoding="UTF-8" standalone="no"?>
<!DOCTYPE svg PUBLIC "-//W3C//DTD SVG 1.1//EN"
 "http://www.w3.org/Graphics/SVG/1.1/DTD/svg11.dtd">
<!-- Generated by graphviz version 2.38.0 (20140413.2041)
 -->
<!-- Title: AS35052 IPv6 Upstream Graph Pages: 1 -->
<svg width="700pt" height="563pt"
 viewBox="0.00 0.00 700.15 563.14" xmlns="http://www.w3.org/2000/svg" xmlns:xlink="http://www.w3.org/1999/xlink">
<g id="graph0" class="graph" transform="scale(1 1) rotate(0) translate(4 559.138)">
<title>AS35052 IPv6 Upstream Graph</title>
<polygon fill="white" stroke="none" points="-4,4 -4,-559.138 696.155,-559.138 696.155,4 -4,4"/>
<!-- AS35052 -->
<g id="node1" class="node"><title>AS35052</title>
<g id="a_node1"><a xlink:href="/asn/35052" xlink:title="AS35052 ~ Vienna University [AT]">
<ellipse fill="#ffffff" stroke="black" cx="44.1961" cy="-339.067" rx="44.393" ry="18"/>
<text text-anchor="middle" x="44.1961" y="-335.367" font-family="Times,serif" font-size="14.00" fill="#880000">AS35052</text>
</a>
</g>
</g>
<!-- AS1299 -->
<g id="node2" class="node"><title>AS1299</title>
<g id="a_node2"><a xlink:href="/asn/1299" xlink:title="AS1299 ~ Telia Carrier [EU]">
<ellipse fill="#ffffff" stroke="black" cx="417.373" cy="-505.067" rx="39.7935" ry="18"/>
<text text-anchor="middle" x="417.373" y="-501.367" font-family="Times,serif" font-size="14.00" fill="#2c94b3">AS1299</text>
</a>
</g>
</g>
<!-- AS35052&#45;&gt;AS1299 -->
<g id="edge1" class="edge"><title>AS35052&#45;&gt;AS1299</title>
<path fill="none" stroke="black" stroke-width="0.409091" d="M46.4593,-357.172C50.2872,-396.399 65.4455,-488.855 124.392,-528.067 202.595,-580.088 319.958,-545.063 379.255,-521.524"/>
<polygon fill="black" stroke="black" stroke-width="0.409091" points="380.66,-524.731 388.601,-517.717 378.019,-518.248 380.66,-524.731"/>
</g>
<!-- AS1853 -->
<g id="node3" class="node"><title>AS1853</title>
<g id="a_node3"><a xlink:href="/asn/1853" xlink:title="AS1853 ~ ACOnet Backbone [AT]">
<ellipse fill="#ffffff" stroke="black" cx="168.588" cy="-132.067" rx="39.7935" ry="18"/>
<text text-anchor="middle" x="168.588" y="-128.367" font-family="Times,serif" font-size="14.00" fill="#2c94b3">AS1853</text>
</a>
</g>
</g>
<!-- AS35052&#45;&gt;AS1853 -->
<g id="edge2" class="edge"><title>AS35052&#45;&gt;AS1853</title>
<path fill="none" stroke="black" stroke-width="0.818182" d="M55.34,-321.398C70.3021,-295.395 99.2355,-245.327 124.392,-203.067 133.267,-188.158 143.335,-171.59 151.518,-158.211"/>
<polygon fill="black" stroke="black" stroke-width="0.818182" points="154.604,-159.873 156.843,-149.517 148.635,-156.216 154.604,-159.873"/>
</g>
<!-- AS1921 -->
<g id="node4" class="node"><title>AS1921</title>
<g id="a_node4"><a xlink:href="/asn/1921" xlink:title="AS1921 ~ NIC.at head office Salzburg [AT]">
<ellipse fill="#ffffff" stroke="black" cx="168.588" cy="-432.067" rx="39.7935" ry="18"/>
<text text-anchor="middle" x="168.588" y="-428.367" font-family="Times,serif" font-size="14.00" fill="#2c94b3">AS1921</text>
</a>
</g>
</g>
<!-- AS35052&#45;&gt;AS1921 -->
<g id="edge3" class="edge"><title>AS35052&#45;&gt;AS1921</title>
<path fill="none" stroke="black" stroke-width="0.818182" d="M65.9582,-354.843C86.036,-370.099 116.624,-393.342 138.999,-410.343"/>
<polygon fill="black" stroke="black" stroke-width="0.818182" points="137.053,-413.26 147.133,-416.524 141.288,-407.687 137.053,-413.26"/>
</g>
<!-- AS8674 -->
<g id="node5" class="node"><title>AS8674</title>
<g id="a_node5"><a xlink:href="/asn/8674" xlink:title="AS8674 ~ Netnod Internet Exchange Sverige AB [SE]">
<ellipse fill="#ffffff" stroke="black" cx="168.588" cy="-305.067" rx="39.7935" ry="18"/>
<text text-anchor="middle" x="168.588" y="-301.367" font-family="Times,serif" font-size="14.00" fill="#2c94b3">AS8674</text>
</a>
</g>
</g>
<!-- AS35052&#45;&gt;AS8674 -->
<g id="edge4" class="edge"><title>AS35052&#45;&gt;AS8674</title>
<path fill="none" stroke="black" stroke-width="4.5" d="M81.2558,-329.05C94.7601,-325.298 110.241,-320.998 124.33,-317.084"/>
<polygon fill="black" stroke="black" stroke-width="4.5" points="125.714,-320.786 134.296,-314.315 123.607,-313.198 125.714,-320.786"/>
</g>
<!-- AS22548 -->
<g id="node6" class="node"><title>AS22548</title>
<g id="a_node6"><a xlink:href="/asn/22548" xlink:title="AS22548 ~ Nucleo de Inf. e Coord. do Ponto BR &#45; NIC.BR [BR]">
<ellipse fill="#ffffff" stroke="black" cx="292.98" cy="-186.067" rx="44.393" ry="18"/>
<text text-anchor="middle" x="292.98" y="-182.367" font-family="Times,serif" font-size="14.00" fill="#2c94b3">AS22548</text>
</a>
</g>
</g>
<!-- AS35052&#45;&gt;AS22548 -->
<g id="edge5" class="edge"><title>AS35052&#45;&gt;AS22548</title>
<path fill="none" stroke="black" stroke-width="1.63636" d="M64.4299,-322.902C80.0973,-310.071 103.041,-292.031 124.392,-278.067 167.556,-249.837 220.066,-221.981 254.673,-204.446"/>
<polygon fill="black" stroke="black" stroke-width="1.63636" points="256.578,-207.406 263.936,-199.783 253.43,-201.153 256.578,-207.406"/>
</g>
<!-- AS31529 -->
<g id="node7" class="node"><title>AS31529</title>
<g id="a_node7"><a xlink:href="/asn/31529" xlink:title="AS31529 ~ DENIC&#45;ANYCAST&#45;AS [DE]">
<ellipse fill="#ffffff" stroke="black" cx="292.98" cy="-386.067" rx="44.393" ry="18"/>
<text text-anchor="middle" x="292.98" y="-382.367" font-family="Times,serif" font-size="14.00" fill="#2c94b3">AS31529</text>
</a>
</g>
</g>
<!-- AS35052&#45;&gt;AS31529 -->
<g id="edge6" class="edge"><title>AS35052&#45;&gt;AS31529</title>
<path fill="none" stroke="black" stroke-width="2.04545" d="M84.5727,-346.566C127.551,-354.751 196.426,-367.869 242.896,-376.719"/>
<polygon fill="black" stroke="black" stroke-width="2.04545" points="242.266,-380.162 252.744,-378.594 243.575,-373.285 242.266,-380.162"/>
</g>
<!-- AS42473 -->
<g id="node8" class="node"><title>AS42473</title>
<g id="a_node8"><a xlink:href="/asn/42473" xlink:title="AS42473 ~ ANEXIA Internetdienstleistungs GmbH [AT]">
<ellipse fill="#ffffff" stroke="black" cx="168.588" cy="-501.067" rx="44.393" ry="18"/>
<text text-anchor="middle" x="168.588" y="-497.367" font-family="Times,serif" font-size="14.00" fill="#2c94b3">AS42473</text>
</a>
</g>
</g>
<!-- AS35052&#45;&gt;AS42473 -->
<g id="edge7" class="edge"><title>AS35052&#45;&gt;AS42473</title>
<path fill="none" stroke="black" stroke-width="0.818182" d="M55.1188,-356.573C69.1464,-380.695 96.2214,-425.031 124.392,-459.067 129.644,-465.412 135.753,-471.828 141.694,-477.671"/>
<polygon fill="black" stroke="black" stroke-width="0.818182" points="139.408,-480.329 149.052,-484.716 144.249,-475.272 139.408,-480.329"/>
</g>
<!-- AS49488 -->
<g id="node9" class="node"><title>AS49488</title>
<g id="a_node9"><a xlink:href="/asn/49488" xlink:title="AS49488 ~ nic.at GmbH [AT]">
<ellipse fill="#ffffff" stroke="black" cx="168.588" cy="-78.0668" rx="44.393" ry="18"/>
<text text-anchor="middle" x="168.588" y="-74.3668" font-family="Times,serif" font-size="14.00" fill="#2c94b3">AS49488</text>
</a>
</g>
</g>
<!-- AS35052&#45;&gt;AS49488 -->
<g id="edge8" class="edge"><title>AS35052&#45;&gt;AS49488</title>
<path fill="none" stroke="black" stroke-width="0.818182" d="M47.146,-320.982C52.4986,-278.898 70.777,-172.845 124.392,-105.067 126.422,-102.5 128.768,-100.112 131.295,-97.9035"/>
<polygon fill="black" stroke="black" stroke-width="0.818182" points="133.451,-100.661 139.29,-91.8203 129.212,-95.0904 133.451,-100.661"/>
</g>
<!-- AS7018 -->
<g id="node24" class="node"><title>AS7018</title>
<g id="a_node24"><a xlink:href="/asn/7018" xlink:title="AS7018 ~ AT&amp;T Services, Inc. [US]">
<ellipse fill="#ffffff" stroke="black" cx="541.765" cy="-464.067" rx="39.7935" ry="18"/>
<text text-anchor="middle" x="541.765" y="-460.367" font-family="Times,serif" font-size="14.00" fill="#2c94b3">AS7018</text>
</a>
</g>
</g>
<!-- AS1299&#45;&gt;AS7018 -->
<g id="edge41" class="edge"><title>AS1299&#45;&gt;AS7018</title>
<path fill="none" stroke="black" d="M449.892,-494.508C465.024,-489.439 483.352,-483.299 499.572,-477.866"/>
<polygon fill="black" stroke="black" points="500.982,-481.085 509.352,-474.59 498.759,-474.447 500.982,-481.085"/>
</g>
<!-- AS21320 -->
<g id="node10" class="node"><title>AS21320</title>
<g id="a_node10"><a xlink:href="/asn/21320" xlink:title="AS21320 ~ GEANT Vereniging [EU]">
<ellipse fill="#ffffff" stroke="black" cx="292.98" cy="-132.067" rx="44.393" ry="18"/>
<text text-anchor="middle" x="292.98" y="-128.367" font-family="Times,serif" font-size="14.00" fill="#2c94b3">AS21320</text>
</a>
</g>
</g>
<!-- AS1853&#45;&gt;AS21320 -->
<g id="edge9" class="edge"><title>AS1853&#45;&gt;AS21320</title>
<path fill="none" stroke="black" d="M208.314,-132.067C217.774,-132.067 228.066,-132.067 238.092,-132.067"/>
<polygon fill="black" stroke="black" points="238.399,-135.567 248.399,-132.067 238.399,-128.567 238.399,-135.567"/>
</g>
<!-- AS3356 -->
<g id="node11" class="node"><title>AS3356</title>
<g id="a_node11"><a xlink:href="/asn/3356" xlink:title="AS3356 ~ Level 3 Parent, LLC [US]">
<ellipse fill="#ffffff" stroke="black" cx="541.765" cy="-32.0668" rx="39.7935" ry="18"/>
<text text-anchor="middle" x="541.765" y="-28.3668" font-family="Times,serif" font-size="14.00" fill="#2c94b3">AS3356</text>
</a>
</g>
</g>
<!-- AS1853&#45;&gt;AS3356 -->
<g id="edge10" class="edge"><title>AS1853&#45;&gt;AS3356</title>
<path fill="none" stroke="black" d="M195.117,-118.605C201.28,-114.705 207.582,-110.119 212.784,-105.067 233.478,-84.9724 226.149,-68.9448 248.784,-51.0668 295.041,-14.5326 315.154,-15.4515 373.176,-5.06683 411.847,1.85435 422.812,1.35814 461.569,-5.06683 475.387,-7.35756 490.031,-11.753 502.918,-16.3427"/>
<polygon fill="black" stroke="black" points="501.795,-19.6592 512.388,-19.8588 504.232,-13.0969 501.795,-19.6592"/>
</g>
<!-- AS6939 -->
<g id="node13" class="node"><title>AS6939</title>
<g id="a_node13"><a xlink:href="/asn/6939" xlink:title="AS6939 ~ Hurricane Electric LLC [US]">
<ellipse fill="#ffffff" stroke="black" cx="417.373" cy="-432.067" rx="39.7935" ry="18"/>
<text text-anchor="middle" x="417.373" y="-428.367" font-family="Times,serif" font-size="14.00" fill="#2c94b3">AS6939</text>
</a>
</g>
</g>
<!-- AS1921&#45;&gt;AS6939 -->
<g id="edge12" class="edge"><title>AS1921&#45;&gt;AS6939</title>
<path fill="none" stroke="black" d="M208.42,-432.067C251.326,-432.067 320.514,-432.067 367.18,-432.067"/>
<polygon fill="black" stroke="black" points="367.36,-435.567 377.36,-432.067 367.36,-428.567 367.36,-435.567"/>
</g>
<!-- AS29838 -->
<g id="node14" class="node"><title>AS29838</title>
<g id="a_node14"><a xlink:href="/asn/29838" xlink:title="AS29838 ~ AMC [US]">
<ellipse fill="#ffffff" stroke="black" cx="292.98" cy="-478.067" rx="44.393" ry="18"/>
<text text-anchor="middle" x="292.98" y="-474.367" font-family="Times,serif" font-size="14.00" fill="#2c94b3">AS29838</text>
</a>
</g>
</g>
<!-- AS1921&#45;&gt;AS29838 -->
<g id="edge13" class="edge"><title>AS1921&#45;&gt;AS29838</title>
<path fill="none" stroke="black" d="M199.842,-443.438C215.11,-449.176 233.863,-456.224 250.458,-462.461"/>
<polygon fill="black" stroke="black" points="249.344,-465.781 259.936,-466.023 251.806,-459.229 249.344,-465.781"/>
</g>
<!-- AS2914 -->
<g id="node17" class="node"><title>AS2914</title>
<g id="a_node17"><a xlink:href="/asn/2914" xlink:title="AS2914 ~ NTT America, Inc. [US]">
<ellipse fill="#ffffff" stroke="black" cx="417.373" cy="-340.067" rx="39.7935" ry="18"/>
<text text-anchor="middle" x="417.373" y="-336.367" font-family="Times,serif" font-size="14.00" fill="#2c94b3">AS2914</text>
</a>
</g>
</g>
<!-- AS8674&#45;&gt;AS2914 -->
<g id="edge17" class="edge"><title>AS8674&#45;&gt;AS2914</title>
<path fill="none" stroke="black" stroke-width="4.5" d="M204.558,-312.81C218.298,-315.674 234.235,-318.777 248.784,-321.067 288.891,-327.38 334.716,-332.428 368.299,-335.73"/>
<polygon fill="black" stroke="black" stroke-width="4.5" points="367.975,-339.654 378.308,-336.698 368.733,-331.816 367.975,-339.654"/>
</g>
<!-- AS2603 -->
<g id="node18" class="node"><title>AS2603</title>
<g id="a_node18"><a xlink:href="/asn/2603" xlink:title="AS2603 ~ NORDUnet [NO]">
<ellipse fill="#ffffff" stroke="black" cx="292.98" cy="-294.067" rx="39.7935" ry="18"/>
<text text-anchor="middle" x="292.98" y="-290.367" font-family="Times,serif" font-size="14.00" fill="#2c94b3">AS2603</text>
</a>
</g>
</g>
<!-- AS8674&#45;&gt;AS2603 -->
<g id="edge18" class="edge"><title>AS8674&#45;&gt;AS2603</title>
<path fill="none" stroke="black" stroke-width="1.125" d="M207.643,-301.647C219.041,-300.622 231.694,-299.485 243.66,-298.41"/>
<polygon fill="black" stroke="black" stroke-width="1.125" points="244.303,-301.866 253.949,-297.485 243.676,-294.894 244.303,-301.866"/>
</g>
<!-- AS1257 -->
<g id="node19" class="node"><title>AS1257</title>
<g id="a_node19"><a xlink:href="/asn/1257" xlink:title="AS1257 ~ TELE2 [EU]">
<ellipse fill="#ffffff" stroke="black" cx="292.98" cy="-240.067" rx="39.7935" ry="18"/>
<text text-anchor="middle" x="292.98" y="-236.367" font-family="Times,serif" font-size="14.00" fill="#2c94b3">AS1257</text>
</a>
</g>
</g>
<!-- AS8674&#45;&gt;AS1257 -->
<g id="edge19" class="edge"><title>AS8674&#45;&gt;AS1257</title>
<path fill="none" stroke="black" stroke-width="0.5625" d="M194.948,-291.599C212.961,-282.033 237.369,-269.07 257.199,-258.539"/>
<polygon fill="black" stroke="black" stroke-width="0.5625" points="259.042,-261.523 266.232,-253.741 255.759,-255.341 259.042,-261.523"/>
</g>
<!-- AS3491 -->
<g id="node26" class="node"><title>AS3491</title>
<g id="a_node26"><a xlink:href="/asn/3491" xlink:title="AS3491 ~ PCCW Global, Inc. [US]">
<ellipse fill="#ffffff" stroke="black" cx="417.373" cy="-248.067" rx="39.7935" ry="18"/>
<text text-anchor="middle" x="417.373" y="-244.367" font-family="Times,serif" font-size="14.00" fill="#2c94b3">AS3491</text>
</a>
</g>
</g>
<!-- AS22548&#45;&gt;AS3491 -->
<g id="edge30" class="edge"><title>AS22548&#45;&gt;AS3491</title>
<path fill="none" stroke="black" d="M321.448,-199.981C339.133,-208.94 362.285,-220.668 381.297,-230.298"/>
<polygon fill="black" stroke="black" points="379.752,-233.44 390.255,-234.836 382.916,-227.195 379.752,-233.44"/>
</g>
<!-- AS16735 -->
<g id="node27" class="node"><title>AS16735</title>
<g id="a_node27"><a xlink:href="/asn/16735" xlink:title="AS16735 ~ ALGAR TELECOM S/A [BR]">
<ellipse fill="#ffffff" stroke="black" cx="417.373" cy="-86.0668" rx="44.393" ry="18"/>
<text text-anchor="middle" x="417.373" y="-82.3668" font-family="Times,serif" font-size="14.00" fill="#2c94b3">AS16735</text>
</a>
</g>
</g>
<!-- AS22548&#45;&gt;AS16735 -->
<g id="edge31" class="edge"><title>AS22548&#45;&gt;AS16735</title>
<path fill="none" stroke="black" stroke-width="3" d="M320.152,-171.751C326.035,-167.99 332.049,-163.681 337.176,-159.067 356.475,-141.702 353.878,-130.432 373.176,-113.067 375.821,-110.688 378.7,-108.39 381.676,-106.206"/>
<polygon fill="black" stroke="black" stroke-width="3" points="383.917,-108.913 390.2,-100.383 379.969,-103.133 383.917,-108.913"/>
</g>
<!-- AS31529&#45;&gt;AS6939 -->
<g id="edge37" class="edge"><title>AS31529&#45;&gt;AS6939</title>
<path fill="none" stroke="black" d="M326.137,-398.153C341.504,-403.928 360.052,-410.899 376.324,-417.015"/>
<polygon fill="black" stroke="black" points="375.521,-420.452 386.113,-420.694 377.984,-413.9 375.521,-420.452"/>
</g>
<!-- AS31529&#45;&gt;AS2914 -->
<g id="edge38" class="edge"><title>AS31529&#45;&gt;AS2914</title>
<path fill="none" stroke="black" stroke-width="3" d="M326.137,-373.981C341.504,-368.205 360.052,-361.235 376.324,-355.119"/>
<polygon fill="black" stroke="black" stroke-width="3" points="377.984,-358.234 386.113,-351.439 375.521,-351.681 377.984,-358.234"/>
</g>
<!-- AS1273 -->
<g id="node23" class="node"><title>AS1273</title>
<g id="a_node23"><a xlink:href="/asn/1273" xlink:title="AS1273 ~ Vodafone Group PLC [EU]">
<ellipse fill="#ffffff" stroke="black" cx="541.765" cy="-410.067" rx="39.7935" ry="18"/>
<text text-anchor="middle" x="541.765" y="-406.367" font-family="Times,serif" font-size="14.00" fill="#2c94b3">AS1273</text>
</a>
</g>
</g>
<!-- AS31529&#45;&gt;AS1273 -->
<g id="edge39" class="edge"><title>AS31529&#45;&gt;AS1273</title>
<path fill="none" stroke="black" d="M336.124,-390.165C379.547,-394.388 447.138,-400.962 492.636,-405.386"/>
<polygon fill="black" stroke="black" points="492.553,-408.895 502.844,-406.379 493.23,-401.927 492.553,-408.895"/>
</g>
<!-- AS42473&#45;&gt;AS1299 -->
<g id="edge40" class="edge"><title>AS42473&#45;&gt;AS1299</title>
<path fill="none" stroke="black" stroke-width="2" d="M212.731,-503.642C224.425,-504.231 237.086,-504.772 248.784,-505.067 288.546,-506.07 333.632,-506.002 367.016,-505.721"/>
<polygon fill="black" stroke="black" stroke-width="2" points="367.456,-509.217 377.423,-505.623 367.39,-502.217 367.456,-509.217"/>
</g>
<!-- AS47777 -->
<g id="node29" class="node"><title>AS47777</title>
<g id="a_node29"><a xlink:href="/asn/47777" xlink:title="AS47777 ~ wusys GmbH [DE]">
<ellipse fill="#ffffff" stroke="black" cx="292.98" cy="-78.0668" rx="44.393" ry="18"/>
<text text-anchor="middle" x="292.98" y="-74.3668" font-family="Times,serif" font-size="14.00" fill="#2c94b3">AS47777</text>
</a>
</g>
</g>
<!-- AS49488&#45;&gt;AS47777 -->
<g id="edge42" class="edge"><title>AS49488&#45;&gt;AS47777</title>
<path fill="none" stroke="black" stroke-width="2" d="M213.084,-78.0668C221.29,-78.0668 229.961,-78.0668 238.434,-78.0668"/>
<polygon fill="black" stroke="black" stroke-width="2" points="238.625,-81.5669 248.625,-78.0668 238.625,-74.5669 238.625,-81.5669"/>
</g>
<!-- AS174 -->
<g id="node12" class="node"><title>AS174</title>
<g id="a_node12"><a xlink:href="/asn/174" xlink:title="AS174 ~ Cogent Communications [US]">
<ellipse fill="#ffffff" stroke="black" cx="417.373" cy="-194.067" rx="35.194" ry="18"/>
<text text-anchor="middle" x="417.373" y="-190.367" font-family="Times,serif" font-size="14.00" fill="#2c94b3">AS174</text>
</a>
</g>
</g>
<!-- AS21320&#45;&gt;AS174 -->
<g id="edge11" class="edge"><title>AS21320&#45;&gt;AS174</title>
<path fill="none" stroke="black" d="M321.448,-145.981C339.618,-155.185 363.558,-167.313 382.85,-177.085"/>
<polygon fill="black" stroke="black" points="381.399,-180.274 391.901,-181.67 384.562,-174.029 381.399,-180.274"/>
</g>
<!-- AS209 -->
<g id="node15" class="node"><title>AS209</title>
<g id="a_node15"><a xlink:href="/asn/209" xlink:title="AS209 ~ CenturyLink Communications, LLC [US]">
<ellipse fill="#ffffff" stroke="black" cx="657.058" cy="-271.067" rx="35.194" ry="18"/>
<text text-anchor="middle" x="657.058" y="-267.367" font-family="Times,serif" font-size="14.00" fill="#2c94b3">AS209</text>
</a>
</g>
</g>
<!-- AS3356&#45;&gt;AS209 -->
<g id="edge36" class="edge"><title>AS3356&#45;&gt;AS209</title>
<path fill="none" stroke="black" d="M569.746,-44.9148C575.734,-48.7793 581.591,-53.5026 585.961,-59.0668 629.775,-114.856 646.768,-199.211 652.897,-242.787"/>
<polygon fill="black" stroke="black" points="649.458,-243.486 654.23,-252.945 656.399,-242.574 649.458,-243.486"/>
</g>
<!-- AS6939&#45;&gt;AS209 -->
<g id="edge14" class="edge"><title>AS6939&#45;&gt;AS209</title>
<path fill="none" stroke="black" d="M433.848,-448.466C448.632,-462.839 472.344,-482.704 497.569,-491.067 534.858,-503.43 554.244,-514.249 585.961,-491.067 647.039,-446.424 656.158,-348.038 656.733,-299.411"/>
<polygon fill="black" stroke="black" points="660.233,-299.278 656.736,-289.277 653.233,-299.276 660.233,-299.278"/>
</g>
<!-- AS2497 -->
<g id="node16" class="node"><title>AS2497</title>
<g id="a_node16"><a xlink:href="/asn/2497" xlink:title="AS2497 ~ Internet Initiative Japan Inc. [JP]">
<ellipse fill="#ffffff" stroke="black" cx="541.765" cy="-248.067" rx="39.7935" ry="18"/>
<text text-anchor="middle" x="541.765" y="-244.367" font-family="Times,serif" font-size="14.00" fill="#2c94b3">AS2497</text>
</a>
</g>
</g>
<!-- AS6939&#45;&gt;AS2497 -->
<g id="edge15" class="edge"><title>AS6939&#45;&gt;AS2497</title>
<path fill="none" stroke="black" d="M431.158,-415.031C440.369,-402.267 452.688,-384.135 461.569,-367.067 481.835,-328.116 469.533,-308.859 497.569,-275.067 499.969,-272.174 502.762,-269.498 505.753,-267.046"/>
<polygon fill="black" stroke="black" points="507.943,-269.781 513.993,-261.084 503.839,-264.11 507.943,-269.781"/>
</g>
<!-- AS29838&#45;&gt;AS1299 -->
<g id="edge16" class="edge"><title>AS29838&#45;&gt;AS1299</title>
<path fill="none" stroke="black" d="M332.37,-486.536C344.761,-489.269 358.608,-492.324 371.429,-495.152"/>
<polygon fill="black" stroke="black" points="370.924,-498.625 381.443,-497.361 372.432,-491.789 370.924,-498.625"/>
</g>
<!-- AS2914&#45;&gt;AS2497 -->
<g id="edge20" class="edge"><title>AS2914&#45;&gt;AS2497</title>
<path fill="none" stroke="black" stroke-width="2" d="M439.802,-324.873C446.855,-319.694 454.657,-313.768 461.569,-308.067 478.312,-294.255 480.293,-288.208 497.569,-275.067 500.894,-272.537 504.464,-270.021 508.074,-267.6"/>
<polygon fill="black" stroke="black" stroke-width="2" points="509.983,-270.535 516.476,-262.163 506.179,-264.658 509.983,-270.535"/>
</g>
<!-- AS6453 -->
<g id="node20" class="node"><title>AS6453</title>
<g id="a_node20"><a xlink:href="/asn/6453" xlink:title="AS6453 ~ TATA COMMUNICATIONS (AMERICA) INC [US]">
<ellipse fill="#ffffff" stroke="black" cx="541.765" cy="-194.067" rx="39.7935" ry="18"/>
<text text-anchor="middle" x="541.765" y="-190.367" font-family="Times,serif" font-size="14.00" fill="#2c94b3">AS6453</text>
</a>
</g>
</g>
<!-- AS2914&#45;&gt;AS6453 -->
<g id="edge21" class="edge"><title>AS2914&#45;&gt;AS6453</title>
<path fill="none" stroke="black" d="M429.842,-322.809C451.723,-289.885 497.298,-221.33 497.569,-221.067 500.413,-218.303 503.586,-215.679 506.885,-213.23"/>
<polygon fill="black" stroke="black" points="508.951,-216.058 515.233,-207.526 505.002,-210.278 508.951,-216.058"/>
</g>
<!-- AS701 -->
<g id="node21" class="node"><title>AS701</title>
<g id="a_node21"><a xlink:href="/asn/701" xlink:title="AS701 ~ UUNET [US]">
<ellipse fill="#ffffff" stroke="black" cx="541.765" cy="-302.067" rx="35.194" ry="18"/>
<text text-anchor="middle" x="541.765" y="-298.367" font-family="Times,serif" font-size="14.00" fill="#2c94b3">AS701</text>
</a>
</g>
</g>
<!-- AS2914&#45;&gt;AS701 -->
<g id="edge22" class="edge"><title>AS2914&#45;&gt;AS701</title>
<path fill="none" stroke="black" stroke-width="2" d="M450.53,-330.083C466.131,-325.239 485.011,-319.377 501.46,-314.27"/>
<polygon fill="black" stroke="black" stroke-width="2" points="502.824,-317.511 511.337,-311.204 500.749,-310.826 502.824,-317.511"/>
</g>
<!-- AS6762 -->
<g id="node22" class="node"><title>AS6762</title>
<g id="a_node22"><a xlink:href="/asn/6762" xlink:title="AS6762 ~ TELECOM ITALIA SPARKLE S.p.A. [IT]">
<ellipse fill="#ffffff" stroke="black" cx="541.765" cy="-140.067" rx="39.7935" ry="18"/>
<text text-anchor="middle" x="541.765" y="-136.367" font-family="Times,serif" font-size="14.00" fill="#2c94b3">AS6762</text>
</a>
</g>
</g>
<!-- AS2914&#45;&gt;AS6762 -->
<g id="edge23" class="edge"><title>AS2914&#45;&gt;AS6762</title>
<path fill="none" stroke="black" d="M431.42,-323.163C440.761,-310.465 453.128,-292.357 461.569,-275.067 483.765,-229.599 466.27,-206.821 497.569,-167.067 499.894,-164.114 502.637,-161.397 505.596,-158.919"/>
<polygon fill="black" stroke="black" points="507.789,-161.652 513.793,-152.922 503.656,-156.002 507.789,-161.652"/>
</g>
<!-- AS2914&#45;&gt;AS1273 -->
<g id="edge24" class="edge"><title>AS2914&#45;&gt;AS1273</title>
<path fill="none" stroke="black" d="M442.846,-354.064C461.441,-364.699 487.214,-379.44 507.651,-391.128"/>
<polygon fill="black" stroke="black" points="505.915,-394.167 516.333,-396.094 509.39,-388.091 505.915,-394.167"/>
</g>
<!-- AS2914&#45;&gt;AS7018 -->
<g id="edge25" class="edge"><title>AS2914&#45;&gt;AS7018</title>
<path fill="none" stroke="black" d="M429.793,-357.279C444.015,-377.874 469.841,-412.631 497.569,-437.067 500.544,-439.689 503.802,-442.221 507.153,-444.614"/>
<polygon fill="black" stroke="black" points="505.309,-447.591 515.566,-450.248 509.205,-441.775 505.309,-447.591"/>
</g>
<!-- AS12956 -->
<g id="node25" class="node"><title>AS12956</title>
<g id="a_node25"><a xlink:href="/asn/12956" xlink:title="AS12956 ~ TELXIUS [ES]">
<ellipse fill="#ffffff" stroke="black" cx="541.765" cy="-356.067" rx="44.393" ry="18"/>
<text text-anchor="middle" x="541.765" y="-352.367" font-family="Times,serif" font-size="14.00" fill="#2c94b3">AS12956</text>
</a>
</g>
</g>
<!-- AS2914&#45;&gt;AS12956 -->
<g id="edge26" class="edge"><title>AS2914&#45;&gt;AS12956</title>
<path fill="none" stroke="black" d="M455.759,-344.954C466.309,-346.333 477.976,-347.859 489.2,-349.326"/>
<polygon fill="black" stroke="black" points="488.97,-352.826 499.339,-350.651 489.877,-345.885 488.97,-352.826"/>
</g>
<!-- AS2603&#45;&gt;AS2497 -->
<g id="edge28" class="edge"><title>AS2603&#45;&gt;AS2497</title>
<path fill="none" stroke="black" d="M332.644,-292.055C366.867,-289.715 417.998,-284.844 461.569,-275.067 474.878,-272.08 489.078,-267.652 501.726,-263.242"/>
<polygon fill="black" stroke="black" points="503.26,-266.41 511.489,-259.737 500.894,-259.822 503.26,-266.41"/>
</g>
<!-- AS2603&#45;&gt;AS3491 -->
<g id="edge27" class="edge"><title>AS2603&#45;&gt;AS3491</title>
<path fill="none" stroke="black" d="M324.235,-282.696C339.975,-276.78 359.422,-269.471 376.387,-263.095"/>
<polygon fill="black" stroke="black" points="377.913,-266.261 386.042,-259.466 375.45,-259.708 377.913,-266.261"/>
</g>
<!-- AS1257&#45;&gt;AS174 -->
<g id="edge29" class="edge"><title>AS1257&#45;&gt;AS174</title>
<path fill="none" stroke="black" d="M324.235,-228.696C340.839,-222.455 361.568,-214.665 379.157,-208.054"/>
<polygon fill="black" stroke="black" points="380.43,-211.315 388.559,-204.52 377.967,-204.762 380.43,-211.315"/>
</g>
<!-- AS3491&#45;&gt;AS2497 -->
<g id="edge32" class="edge"><title>AS3491&#45;&gt;AS2497</title>
<path fill="none" stroke="black" d="M457.098,-248.067C468.037,-248.067 480.087,-248.067 491.553,-248.067"/>
<polygon fill="black" stroke="black" points="491.871,-251.567 501.871,-248.067 491.871,-244.567 491.871,-251.567"/>
</g>
<!-- AS16735&#45;&gt;AS3356 -->
<g id="edge34" class="edge"><title>AS16735&#45;&gt;AS3356</title>
<path fill="none" stroke="black" d="M448,-72.9949C464.595,-65.6734 485.454,-56.4701 503.188,-48.646"/>
<polygon fill="black" stroke="black" points="504.935,-51.7007 512.671,-44.4619 502.109,-45.2964 504.935,-51.7007"/>
</g>
<!-- AS16735&#45;&gt;AS6762 -->
<g id="edge33" class="edge"><title>AS16735&#45;&gt;AS6762</title>
<path fill="none" stroke="black" d="M448,-99.1387C464.595,-106.46 485.454,-115.664 503.188,-123.488"/>
<polygon fill="black" stroke="black" points="502.109,-126.837 512.671,-127.672 504.935,-120.433 502.109,-126.837"/>
</g>
<!-- AS3257 -->
<g id="node28" class="node"><title>AS3257</title>
<g id="a_node28"><a xlink:href="/asn/3257" xlink:title="AS3257 ~ GTT [DE]">
<ellipse fill="#ffffff" stroke="black" cx="541.765" cy="-86.0668" rx="39.7935" ry="18"/>
<text text-anchor="middle" x="541.765" y="-82.3668" font-family="Times,serif" font-size="14.00" fill="#2c94b3">AS3257</text>
</a>
</g>
</g>
<!-- AS16735&#45;&gt;AS3257 -->
<g id="edge35" class="edge"><title>AS16735&#45;&gt;AS3257</title>
<path fill="none" stroke="black" d="M461.868,-86.0668C471.557,-86.0668 481.894,-86.0668 491.787,-86.0668"/>
<polygon fill="black" stroke="black" points="491.889,-89.5669 501.889,-86.0668 491.889,-82.5669 491.889,-89.5669"/>
</g>
<!-- AS3320 -->
<g id="node30" class="node"><title>AS3320</title>
<g id="a_node30"><a xlink:href="/asn/3320" xlink:title="AS3320 ~ DTAG [DE]">
<ellipse fill="#ffffff" stroke="black" cx="417.373" cy="-140.067" rx="39.7935" ry="18"/>
<text text-anchor="middle" x="417.373" y="-136.367" font-family="Times,serif" font-size="14.00" fill="#2c94b3">AS3320</text>
</a>
</g>
</g>
<!-- AS47777&#45;&gt;AS3320 -->
<g id="edge43" class="edge"><title>AS47777&#45;&gt;AS3320</title>
<path fill="none" stroke="black" d="M321.448,-91.9808C339.133,-100.94 362.285,-112.668 381.297,-122.298"/>
<polygon fill="black" stroke="black" points="379.752,-125.44 390.255,-126.836 382.916,-119.195 379.752,-125.44"/>
</g>
<!-- AS13237 -->
<g id="node31" class="node"><title>AS13237</title>
<g id="a_node31"><a xlink:href="/asn/13237" xlink:title="AS13237 ~ European Backbone of AS13237 [DE]">
<ellipse fill="#ffffff" stroke="black" cx="417.373" cy="-32.0668" rx="44.393" ry="18"/>
<text text-anchor="middle" x="417.373" y="-28.3668" font-family="Times,serif" font-size="14.00" fill="#2c94b3">AS13237</text>
</a>
</g>
</g>
<!-- AS47777&#45;&gt;AS13237 -->
<g id="edge44" class="edge"><title>AS47777&#45;&gt;AS13237</title>
<path fill="none" stroke="black" d="M326.137,-65.9809C341.035,-60.3817 358.922,-53.6591 374.827,-47.6812"/>
<polygon fill="black" stroke="black" points="376.301,-50.8665 384.43,-44.0721 373.838,-44.314 376.301,-50.8665"/>
</g>
<!-- AS3320&#45;&gt;AS6453 -->
<g id="edge45" class="edge"><title>AS3320&#45;&gt;AS6453</title>
<path fill="none" stroke="black" d="M446.452,-152.456C463.4,-159.933 485.197,-169.55 503.566,-177.655"/>
<polygon fill="black" stroke="black" points="502.254,-180.901 512.816,-181.736 505.08,-174.497 502.254,-180.901"/>
</g>
<!-- AS13237&#45;&gt;AS3257 -->
<g id="edge46" class="edge"><title>AS13237&#45;&gt;AS3257</title>
<path fill="none" stroke="black" d="M448,-45.1387C464.595,-52.4603 485.454,-61.6635 503.188,-69.4877"/>
<polygon fill="black" stroke="black" points="502.109,-72.8373 512.671,-73.6718 504.935,-66.4329 502.109,-72.8373"/>
</g>
</g>
</svg>
