<?xml version="1.0" encoding="UTF-8" standalone="no"?>
<!DOCTYPE svg PUBLIC "-//W3C//DTD SVG 1.1//EN"
 "http://www.w3.org/Graphics/SVG/1.1/DTD/svg11.dtd">
<!-- Generated by graphviz version 2.38.0 (20140413.2041)
 -->
<!-- Title: AS35052 IPv4 Upstream Graph Pages: 1 -->
<svg width="700pt" height="579pt"
 viewBox="0.00 0.00 700.15 579.00" xmlns="http://www.w3.org/2000/svg" xmlns:xlink="http://www.w3.org/1999/xlink">
<g id="graph0" class="graph" transform="scale(1 1) rotate(0) translate(4 575)">
<title>AS35052 IPv4 Upstream Graph</title>
<polygon fill="white" stroke="none" points="-4,4 -4,-575 696.155,-575 696.155,4 -4,4"/>
<!-- AS35052 -->
<g id="node1" class="node"><title>AS35052</title>
<g id="a_node1"><a xlink:href="/asn/35052" xlink:title="AS35052 ~ Vienna University [AT]">
<ellipse fill="#ffffff" stroke="black" cx="44.1961" cy="-376" rx="44.393" ry="18"/>
<text text-anchor="middle" x="44.1961" y="-372.3" font-family="Times,serif" font-size="14.00" fill="#880000">AS35052</text>
</a>
</g>
</g>
<!-- AS1853 -->
<g id="node2" class="node"><title>AS1853</title>
<g id="a_node2"><a xlink:href="/asn/1853" xlink:title="AS1853 ~ ACOnet Backbone [AT]">
<ellipse fill="#ffffff" stroke="black" cx="168.588" cy="-553" rx="39.7935" ry="18"/>
<text text-anchor="middle" x="168.588" y="-549.3" font-family="Times,serif" font-size="14.00" fill="#2c94b3">AS1853</text>
</a>
</g>
</g>
<!-- AS35052&#45;&gt;AS1853 -->
<g id="edge1" class="edge"><title>AS35052&#45;&gt;AS1853</title>
<path fill="none" stroke="black" stroke-width="0.375" d="M51.183,-394.027C61.9221,-424.221 86.8969,-485.668 124.392,-526 126.951,-528.753 129.851,-531.336 132.908,-533.729"/>
<polygon fill="black" stroke="black" stroke-width="0.375" points="131.053,-536.704 141.241,-539.61 135.089,-530.984 131.053,-536.704"/>
</g>
<!-- AS1921 -->
<g id="node3" class="node"><title>AS1921</title>
<g id="a_node3"><a xlink:href="/asn/1921" xlink:title="AS1921 ~ NIC.at head office Salzburg [AT]">
<ellipse fill="#ffffff" stroke="black" cx="168.588" cy="-499" rx="39.7935" ry="18"/>
<text text-anchor="middle" x="168.588" y="-495.3" font-family="Times,serif" font-size="14.00" fill="#2c94b3">AS1921</text>
</a>
</g>
</g>
<!-- AS35052&#45;&gt;AS1921 -->
<g id="edge2" class="edge"><title>AS35052&#45;&gt;AS1921</title>
<path fill="none" stroke="black" stroke-width="0.375" d="M56.9063,-393.386C71.2167,-413.801 96.9365,-447.928 124.392,-472 127.374,-474.615 130.637,-477.142 133.991,-479.532"/>
<polygon fill="black" stroke="black" stroke-width="0.375" points="132.148,-482.51 142.406,-485.162 136.041,-476.692 132.148,-482.51"/>
</g>
<!-- AS8674 -->
<g id="node4" class="node"><title>AS8674</title>
<g id="a_node4"><a xlink:href="/asn/8674" xlink:title="AS8674 ~ Netnod Internet Exchange Sverige AB [SE]">
<ellipse fill="#ffffff" stroke="black" cx="292.98" cy="-403" rx="39.7935" ry="18"/>
<text text-anchor="middle" x="292.98" y="-399.3" font-family="Times,serif" font-size="14.00" fill="#2c94b3">AS8674</text>
</a>
</g>
</g>
<!-- AS35052&#45;&gt;AS8674 -->
<g id="edge3" class="edge"><title>AS35052&#45;&gt;AS8674</title>
<path fill="none" stroke="black" stroke-width="4.5" d="M87.0597,-380.58C130.564,-385.34 198.542,-392.777 244.141,-397.766"/>
<polygon fill="black" stroke="black" stroke-width="4.5" points="243.998,-401.711 254.367,-398.885 244.855,-393.883 243.998,-401.711"/>
</g>
<!-- AS8763 -->
<g id="node5" class="node"><title>AS8763</title>
<g id="a_node5"><a xlink:href="/asn/8763" xlink:title="AS8763 ~ Kaiserstr. 75&#45;77 [DE]">
<ellipse fill="#ffffff" stroke="black" cx="168.588" cy="-299" rx="39.7935" ry="18"/>
<text text-anchor="middle" x="168.588" y="-295.3" font-family="Times,serif" font-size="14.00" fill="#2c94b3">AS8763</text>
</a>
</g>
</g>
<!-- AS35052&#45;&gt;AS8763 -->
<g id="edge4" class="edge"><title>AS35052&#45;&gt;AS8763</title>
<path fill="none" stroke="black" stroke-width="0.75" d="M69.0912,-360.875C84.797,-350.943 105.804,-337.677 124.392,-326 128.015,-323.724 131.811,-321.344 135.585,-318.981"/>
<polygon fill="black" stroke="black" stroke-width="0.75" points="137.64,-321.824 144.262,-313.554 133.927,-315.89 137.64,-321.824"/>
</g>
<!-- AS22548 -->
<g id="node6" class="node"><title>AS22548</title>
<g id="a_node6"><a xlink:href="/asn/22548" xlink:title="AS22548 ~ Nucleo de Inf. e Coord. do Ponto BR &#45; NIC.BR [BR]">
<ellipse fill="#ffffff" stroke="black" cx="292.98" cy="-191" rx="44.393" ry="18"/>
<text text-anchor="middle" x="292.98" y="-187.3" font-family="Times,serif" font-size="14.00" fill="#2c94b3">AS22548</text>
</a>
</g>
</g>
<!-- AS35052&#45;&gt;AS22548 -->
<g id="edge5" class="edge"><title>AS35052&#45;&gt;AS22548</title>
<path fill="none" stroke="black" stroke-width="2.25" d="M54.9552,-358.515C68.2163,-336.052 93.8138,-296.986 124.392,-272 161.675,-241.535 212.327,-219.094 248.158,-205.657"/>
<polygon fill="black" stroke="black" stroke-width="2.25" points="249.662,-208.834 257.847,-202.107 247.254,-202.261 249.662,-208.834"/>
</g>
<!-- AS31529 -->
<g id="node7" class="node"><title>AS31529</title>
<g id="a_node7"><a xlink:href="/asn/31529" xlink:title="AS31529 ~ DENIC&#45;ANYCAST&#45;AS [DE]">
<ellipse fill="#ffffff" stroke="black" cx="168.588" cy="-353" rx="44.393" ry="18"/>
<text text-anchor="middle" x="168.588" y="-349.3" font-family="Times,serif" font-size="14.00" fill="#2c94b3">AS31529</text>
</a>
</g>
</g>
<!-- AS35052&#45;&gt;AS31529 -->
<g id="edge6" class="edge"><title>AS35052&#45;&gt;AS31529</title>
<path fill="none" stroke="black" stroke-width="0.75" d="M84.5954,-368.596C95.296,-366.585 107.019,-364.382 118.196,-362.282"/>
<polygon fill="black" stroke="black" stroke-width="0.75" points="119.081,-365.677 128.263,-360.39 117.788,-358.797 119.081,-365.677"/>
</g>
<!-- AS42473 -->
<g id="node8" class="node"><title>AS42473</title>
<g id="a_node8"><a xlink:href="/asn/42473" xlink:title="AS42473 ~ ANEXIA Internetdienstleistungs GmbH [AT]">
<ellipse fill="#ffffff" stroke="black" cx="168.588" cy="-445" rx="44.393" ry="18"/>
<text text-anchor="middle" x="168.588" y="-441.3" font-family="Times,serif" font-size="14.00" fill="#2c94b3">AS42473</text>
</a>
</g>
</g>
<!-- AS35052&#45;&gt;AS42473 -->
<g id="edge7" class="edge"><title>AS35052&#45;&gt;AS42473</title>
<path fill="none" stroke="black" stroke-width="1.125" d="M70.8535,-390.465C88.9679,-400.677 113.44,-414.473 133.237,-425.634"/>
<polygon fill="black" stroke="black" stroke-width="1.125" points="131.535,-428.692 141.965,-430.554 134.972,-422.594 131.535,-428.692"/>
</g>
<!-- AS49488 -->
<g id="node9" class="node"><title>AS49488</title>
<g id="a_node9"><a xlink:href="/asn/49488" xlink:title="AS49488 ~ nic.at GmbH [AT]">
<ellipse fill="#ffffff" stroke="black" cx="168.588" cy="-106" rx="44.393" ry="18"/>
<text text-anchor="middle" x="168.588" y="-102.3" font-family="Times,serif" font-size="14.00" fill="#2c94b3">AS49488</text>
</a>
</g>
</g>
<!-- AS35052&#45;&gt;AS49488 -->
<g id="edge8" class="edge"><title>AS35052&#45;&gt;AS49488</title>
<path fill="none" stroke="black" stroke-width="1.125" d="M53.2266,-358.285C74.1472,-312.133 130.43,-187.972 155.386,-132.918"/>
<polygon fill="black" stroke="black" stroke-width="1.125" points="158.587,-134.334 159.528,-123.781 152.212,-131.444 158.587,-134.334"/>
</g>
<!-- AS1764 -->
<g id="node10" class="node"><title>AS1764</title>
<g id="a_node10"><a xlink:href="/asn/1764" xlink:title="AS1764 ~ NEXTLAYER&#45;AS [AT]">
<ellipse fill="#ffffff" stroke="black" cx="292.98" cy="-553" rx="39.7935" ry="18"/>
<text text-anchor="middle" x="292.98" y="-549.3" font-family="Times,serif" font-size="14.00" fill="#2c94b3">AS1764</text>
</a>
</g>
</g>
<!-- AS1853&#45;&gt;AS1764 -->
<g id="edge9" class="edge"><title>AS1853&#45;&gt;AS1764</title>
<path fill="none" stroke="black" d="M208.314,-553C219.252,-553 231.303,-553 242.769,-553"/>
<polygon fill="black" stroke="black" points="243.087,-556.5 253.087,-553 243.087,-549.5 243.087,-556.5"/>
</g>
<!-- AS29838 -->
<g id="node12" class="node"><title>AS29838</title>
<g id="a_node12"><a xlink:href="/asn/29838" xlink:title="AS29838 ~ AMC [US]">
<ellipse fill="#ffffff" stroke="black" cx="292.98" cy="-499" rx="44.393" ry="18"/>
<text text-anchor="middle" x="292.98" y="-495.3" font-family="Times,serif" font-size="14.00" fill="#2c94b3">AS29838</text>
</a>
</g>
</g>
<!-- AS1921&#45;&gt;AS29838 -->
<g id="edge11" class="edge"><title>AS1921&#45;&gt;AS29838</title>
<path fill="none" stroke="black" d="M208.314,-499C217.774,-499 228.066,-499 238.092,-499"/>
<polygon fill="black" stroke="black" points="238.399,-502.5 248.399,-499 238.399,-495.5 238.399,-502.5"/>
</g>
<!-- AS2914 -->
<g id="node13" class="node"><title>AS2914</title>
<g id="a_node13"><a xlink:href="/asn/2914" xlink:title="AS2914 ~ NTT America, Inc. [US]">
<ellipse fill="#ffffff" stroke="black" cx="417.373" cy="-353" rx="39.7935" ry="18"/>
<text text-anchor="middle" x="417.373" y="-349.3" font-family="Times,serif" font-size="14.00" fill="#2c94b3">AS2914</text>
</a>
</g>
</g>
<!-- AS8674&#45;&gt;AS2914 -->
<g id="edge13" class="edge"><title>AS8674&#45;&gt;AS2914</title>
<path fill="none" stroke="black" stroke-width="4.5" d="M322.986,-391.151C339.328,-384.474 359.952,-376.049 377.66,-368.815"/>
<polygon fill="black" stroke="black" stroke-width="4.5" points="379.383,-372.364 387.151,-364.938 376.405,-365.074 379.383,-372.364"/>
</g>
<!-- AS2603 -->
<g id="node14" class="node"><title>AS2603</title>
<g id="a_node14"><a xlink:href="/asn/2603" xlink:title="AS2603 ~ NORDUnet [NO]">
<ellipse fill="#ffffff" stroke="black" cx="417.373" cy="-461" rx="39.7935" ry="18"/>
<text text-anchor="middle" x="417.373" y="-457.3" font-family="Times,serif" font-size="14.00" fill="#2c94b3">AS2603</text>
</a>
</g>
</g>
<!-- AS8674&#45;&gt;AS2603 -->
<g id="edge14" class="edge"><title>AS8674&#45;&gt;AS2603</title>
<path fill="none" stroke="black" stroke-width="1.125" d="M321.143,-415.872C338.494,-424.094 361.197,-434.853 380.084,-443.803"/>
<polygon fill="black" stroke="black" stroke-width="1.125" points="378.75,-447.044 389.286,-448.164 381.748,-440.719 378.75,-447.044"/>
</g>
<!-- AS1257 -->
<g id="node15" class="node"><title>AS1257</title>
<g id="a_node15"><a xlink:href="/asn/1257" xlink:title="AS1257 ~ TELE2 [EU]">
<ellipse fill="#ffffff" stroke="black" cx="417.373" cy="-407" rx="39.7935" ry="18"/>
<text text-anchor="middle" x="417.373" y="-403.3" font-family="Times,serif" font-size="14.00" fill="#2c94b3">AS1257</text>
</a>
</g>
</g>
<!-- AS8674&#45;&gt;AS1257 -->
<g id="edge15" class="edge"><title>AS8674&#45;&gt;AS1257</title>
<path fill="none" stroke="black" stroke-width="1.125" d="M332.706,-404.266C343.644,-404.623 355.695,-405.017 367.161,-405.392"/>
<polygon fill="black" stroke="black" stroke-width="1.125" points="367.37,-408.9 377.479,-405.729 367.598,-401.904 367.37,-408.9"/>
</g>
<!-- AS24785 -->
<g id="node24" class="node"><title>AS24785</title>
<g id="a_node24"><a xlink:href="/asn/24785" xlink:title="AS24785 ~ Open Peering [NL]">
<ellipse fill="#ffffff" stroke="black" cx="292.98" cy="-299" rx="44.393" ry="18"/>
<text text-anchor="middle" x="292.98" y="-295.3" font-family="Times,serif" font-size="14.00" fill="#2c94b3">AS24785</text>
</a>
</g>
</g>
<!-- AS8763&#45;&gt;AS24785 -->
<g id="edge27" class="edge"><title>AS8763&#45;&gt;AS24785</title>
<path fill="none" stroke="black" stroke-width="2" d="M208.314,-299C217.774,-299 228.066,-299 238.092,-299"/>
<polygon fill="black" stroke="black" stroke-width="2" points="238.399,-302.5 248.399,-299 238.399,-295.5 238.399,-302.5"/>
</g>
<!-- AS3491 -->
<g id="node23" class="node"><title>AS3491</title>
<g id="a_node23"><a xlink:href="/asn/3491" xlink:title="AS3491 ~ PCCW Global, Inc. [US]">
<ellipse fill="#ffffff" stroke="black" cx="537.215" cy="-272" rx="39.7935" ry="18"/>
<text text-anchor="middle" x="537.215" y="-268.3" font-family="Times,serif" font-size="14.00" fill="#2c94b3">AS3491</text>
</a>
</g>
</g>
<!-- AS22548&#45;&gt;AS3491 -->
<g id="edge32" class="edge"><title>AS22548&#45;&gt;AS3491</title>
<path fill="none" stroke="black" d="M327.662,-202.263C371.475,-216.913 447.974,-242.493 495.143,-258.266"/>
<polygon fill="black" stroke="black" points="494.147,-261.624 504.741,-261.476 496.367,-254.985 494.147,-261.624"/>
</g>
<!-- AS16735 -->
<g id="node26" class="node"><title>AS16735</title>
<g id="a_node26"><a xlink:href="/asn/16735" xlink:title="AS16735 ~ ALGAR TELECOM S/A [BR]">
<ellipse fill="#ffffff" stroke="black" cx="417.373" cy="-164" rx="44.393" ry="18"/>
<text text-anchor="middle" x="417.373" y="-160.3" font-family="Times,serif" font-size="14.00" fill="#2c94b3">AS16735</text>
</a>
</g>
</g>
<!-- AS22548&#45;&gt;AS16735 -->
<g id="edge30" class="edge"><title>AS22548&#45;&gt;AS16735</title>
<path fill="none" stroke="black" stroke-width="4" d="M332.37,-182.531C343.762,-180.018 356.385,-177.233 368.309,-174.603"/>
<polygon fill="black" stroke="black" stroke-width="4" points="369.108,-178.011 378.119,-172.439 367.6,-171.175 369.108,-178.011"/>
</g>
<!-- AS3549 -->
<g id="node27" class="node"><title>AS3549</title>
<g id="a_node27"><a xlink:href="/asn/3549" xlink:title="AS3549 ~ Level 3 Parent, LLC [US]">
<ellipse fill="#ffffff" stroke="black" cx="652.508" cy="-95" rx="39.7935" ry="18"/>
<text text-anchor="middle" x="652.508" y="-91.3" font-family="Times,serif" font-size="14.00" fill="#2c94b3">AS3549</text>
</a>
</g>
</g>
<!-- AS22548&#45;&gt;AS3549 -->
<g id="edge31" class="edge"><title>AS22548&#45;&gt;AS3549</title>
<path fill="none" stroke="black" d="M312.442,-174.83C327.673,-162.418 350.406,-145.94 373.176,-137 414.172,-120.905 535.42,-106.654 603.586,-99.6285"/>
<polygon fill="black" stroke="black" points="604.052,-103.099 613.647,-98.6045 603.344,-96.1352 604.052,-103.099"/>
</g>
<!-- AS31529&#45;&gt;AS2914 -->
<g id="edge39" class="edge"><title>AS31529&#45;&gt;AS2914</title>
<path fill="none" stroke="black" stroke-width="2" d="M212.857,-353C256.076,-353 322.399,-353 367.495,-353"/>
<polygon fill="black" stroke="black" stroke-width="2" points="367.625,-356.5 377.625,-353 367.625,-349.5 367.625,-356.5"/>
</g>
<!-- AS1299 -->
<g id="node11" class="node"><title>AS1299</title>
<g id="a_node11"><a xlink:href="/asn/1299" xlink:title="AS1299 ~ Telia Carrier [EU]">
<ellipse fill="#ffffff" stroke="black" cx="417.373" cy="-515" rx="39.7935" ry="18"/>
<text text-anchor="middle" x="417.373" y="-511.3" font-family="Times,serif" font-size="14.00" fill="#2c94b3">AS1299</text>
</a>
</g>
</g>
<!-- AS42473&#45;&gt;AS1299 -->
<g id="edge40" class="edge"><title>AS42473&#45;&gt;AS1299</title>
<path fill="none" stroke="black" stroke-width="3" d="M212.561,-447.913C247.001,-451.193 296.173,-458.02 337.176,-472 353.818,-477.674 371.111,-486.653 385.276,-494.942"/>
<polygon fill="black" stroke="black" stroke-width="3" points="383.722,-498.091 394.095,-500.248 387.331,-492.093 383.722,-498.091"/>
</g>
<!-- AS47777 -->
<g id="node31" class="node"><title>AS47777</title>
<g id="a_node31"><a xlink:href="/asn/47777" xlink:title="AS47777 ~ wusys GmbH [DE]">
<ellipse fill="#ffffff" stroke="black" cx="292.98" cy="-72" rx="44.393" ry="18"/>
<text text-anchor="middle" x="292.98" y="-68.3" font-family="Times,serif" font-size="14.00" fill="#2c94b3">AS47777</text>
</a>
</g>
</g>
<!-- AS49488&#45;&gt;AS47777 -->
<g id="edge43" class="edge"><title>AS49488&#45;&gt;AS47777</title>
<path fill="none" stroke="black" stroke-width="3" d="M205.648,-95.9828C218.235,-92.4863 232.538,-88.5128 245.832,-84.8199"/>
<polygon fill="black" stroke="black" stroke-width="3" points="247.057,-88.1121 255.755,-82.0631 245.184,-81.3675 247.057,-88.1121"/>
</g>
<!-- AS1764&#45;&gt;AS1299 -->
<g id="edge10" class="edge"><title>AS1764&#45;&gt;AS1299</title>
<path fill="none" stroke="black" d="M326.137,-543.016C340.918,-538.427 358.64,-532.925 374.451,-528.016"/>
<polygon fill="black" stroke="black" points="375.493,-531.357 384.005,-525.049 373.417,-524.672 375.493,-531.357"/>
</g>
<!-- AS2497 -->
<g id="node17" class="node"><title>AS2497</title>
<g id="a_node17"><a xlink:href="/asn/2497" xlink:title="AS2497 ~ Internet Initiative Japan Inc. [JP]">
<ellipse fill="#ffffff" stroke="black" cx="537.215" cy="-542" rx="39.7935" ry="18"/>
<text text-anchor="middle" x="537.215" y="-538.3" font-family="Times,serif" font-size="14.00" fill="#2c94b3">AS2497</text>
</a>
</g>
</g>
<!-- AS1299&#45;&gt;AS2497 -->
<g id="edge42" class="edge"><title>AS1299&#45;&gt;AS2497</title>
<path fill="none" stroke="black" d="M453.092,-522.955C465.092,-525.704 478.713,-528.825 491.405,-531.733"/>
<polygon fill="black" stroke="black" points="490.808,-535.187 501.337,-534.009 492.371,-528.364 490.808,-535.187"/>
</g>
<!-- AS7018 -->
<g id="node18" class="node"><title>AS7018</title>
<g id="a_node18"><a xlink:href="/asn/7018" xlink:title="AS7018 ~ AT&amp;T Services, Inc. [US]">
<ellipse fill="#ffffff" stroke="black" cx="537.215" cy="-488" rx="39.7935" ry="18"/>
<text text-anchor="middle" x="537.215" y="-484.3" font-family="Times,serif" font-size="14.00" fill="#2c94b3">AS7018</text>
</a>
</g>
</g>
<!-- AS1299&#45;&gt;AS7018 -->
<g id="edge41" class="edge"><title>AS1299&#45;&gt;AS7018</title>
<path fill="none" stroke="black" d="M453.092,-507.045C465.092,-504.296 478.713,-501.175 491.405,-498.267"/>
<polygon fill="black" stroke="black" points="492.371,-501.636 501.337,-495.991 490.808,-494.813 492.371,-501.636"/>
</g>
<!-- AS29838&#45;&gt;AS1299 -->
<g id="edge12" class="edge"><title>AS29838&#45;&gt;AS1299</title>
<path fill="none" stroke="black" d="M335.417,-504.417C346.248,-505.833 358.005,-507.37 369.114,-508.822"/>
<polygon fill="black" stroke="black" points="368.721,-512.3 379.09,-510.126 369.628,-505.359 368.721,-512.3"/>
</g>
<!-- AS6762 -->
<g id="node16" class="node"><title>AS6762</title>
<g id="a_node16"><a xlink:href="/asn/6762" xlink:title="AS6762 ~ TELECOM ITALIA SPARKLE S.p.A. [IT]">
<ellipse fill="#ffffff" stroke="black" cx="537.215" cy="-218" rx="39.7935" ry="18"/>
<text text-anchor="middle" x="537.215" y="-214.3" font-family="Times,serif" font-size="14.00" fill="#2c94b3">AS6762</text>
</a>
</g>
</g>
<!-- AS2914&#45;&gt;AS6762 -->
<g id="edge16" class="edge"><title>AS2914&#45;&gt;AS6762</title>
<path fill="none" stroke="black" d="M444.971,-339.836C450.971,-335.981 456.929,-331.341 461.569,-326 487.403,-296.258 472.504,-275.394 497.569,-245 499.424,-242.75 501.511,-240.604 503.73,-238.576"/>
<polygon fill="black" stroke="black" points="506.078,-241.177 511.634,-232.156 501.665,-235.744 506.078,-241.177"/>
</g>
<!-- AS2914&#45;&gt;AS2497 -->
<g id="edge17" class="edge"><title>AS2914&#45;&gt;AS2497</title>
<path fill="none" stroke="black" stroke-width="2" d="M445.588,-365.669C451.569,-369.539 457.364,-374.31 461.569,-380 498.472,-429.941 461.955,-464.131 497.569,-515 499.241,-517.389 501.196,-519.635 503.323,-521.733"/>
<polygon fill="black" stroke="black" stroke-width="2" points="501.163,-524.49 511.056,-528.284 505.688,-519.149 501.163,-524.49"/>
</g>
<!-- AS2914&#45;&gt;AS7018 -->
<g id="edge18" class="edge"><title>AS2914&#45;&gt;AS7018</title>
<path fill="none" stroke="black" d="M444.971,-366.164C450.971,-370.019 456.929,-374.659 461.569,-380 487.403,-409.742 472.504,-430.606 497.569,-461 499.424,-463.25 501.511,-465.396 503.73,-467.424"/>
<polygon fill="black" stroke="black" points="501.665,-470.256 511.634,-473.844 506.078,-464.823 501.665,-470.256"/>
</g>
<!-- AS174 -->
<g id="node19" class="node"><title>AS174</title>
<g id="a_node19"><a xlink:href="/asn/174" xlink:title="AS174 ~ Cogent Communications [US]">
<ellipse fill="#ffffff" stroke="black" cx="537.215" cy="-164" rx="35.194" ry="18"/>
<text text-anchor="middle" x="537.215" y="-160.3" font-family="Times,serif" font-size="14.00" fill="#2c94b3">AS174</text>
</a>
</g>
</g>
<!-- AS2914&#45;&gt;AS174 -->
<g id="edge19" class="edge"><title>AS2914&#45;&gt;AS174</title>
<path fill="none" stroke="black" d="M445.588,-340.331C451.569,-336.461 457.364,-331.69 461.569,-326 498.472,-276.059 461.955,-241.869 497.569,-191 499.493,-188.251 501.793,-185.69 504.297,-183.327"/>
<polygon fill="black" stroke="black" points="506.714,-185.873 512.258,-176.844 502.294,-180.445 506.714,-185.873"/>
</g>
<!-- AS701 -->
<g id="node20" class="node"><title>AS701</title>
<g id="a_node20"><a xlink:href="/asn/701" xlink:title="AS701 ~ UUNET [US]">
<ellipse fill="#ffffff" stroke="black" cx="537.215" cy="-326" rx="35.194" ry="18"/>
<text text-anchor="middle" x="537.215" y="-322.3" font-family="Times,serif" font-size="14.00" fill="#2c94b3">AS701</text>
</a>
</g>
</g>
<!-- AS2914&#45;&gt;AS701 -->
<g id="edge20" class="edge"><title>AS2914&#45;&gt;AS701</title>
<path fill="none" stroke="black" d="M453.092,-345.045C466.184,-342.045 481.207,-338.604 494.847,-335.478"/>
<polygon fill="black" stroke="black" points="495.989,-338.807 504.955,-333.162 494.425,-331.984 495.989,-338.807"/>
</g>
<!-- AS6453 -->
<g id="node21" class="node"><title>AS6453</title>
<g id="a_node21"><a xlink:href="/asn/6453" xlink:title="AS6453 ~ TATA COMMUNICATIONS (AMERICA) INC [US]">
<ellipse fill="#ffffff" stroke="black" cx="537.215" cy="-380" rx="39.7935" ry="18"/>
<text text-anchor="middle" x="537.215" y="-376.3" font-family="Times,serif" font-size="14.00" fill="#2c94b3">AS6453</text>
</a>
</g>
</g>
<!-- AS2914&#45;&gt;AS6453 -->
<g id="edge21" class="edge"><title>AS2914&#45;&gt;AS6453</title>
<path fill="none" stroke="black" d="M453.092,-360.955C465.092,-363.704 478.713,-366.825 491.405,-369.733"/>
<polygon fill="black" stroke="black" points="490.808,-373.187 501.337,-372.009 492.371,-366.364 490.808,-373.187"/>
</g>
<!-- AS1239 -->
<g id="node22" class="node"><title>AS1239</title>
<g id="a_node22"><a xlink:href="/asn/1239" xlink:title="AS1239 ~ Sprint [US]">
<ellipse fill="#ffffff" stroke="black" cx="537.215" cy="-434" rx="39.7935" ry="18"/>
<text text-anchor="middle" x="537.215" y="-430.3" font-family="Times,serif" font-size="14.00" fill="#2c94b3">AS1239</text>
</a>
</g>
</g>
<!-- AS2914&#45;&gt;AS1239 -->
<g id="edge22" class="edge"><title>AS2914&#45;&gt;AS1239</title>
<path fill="none" stroke="black" d="M441.921,-367.216C448.363,-371.24 455.296,-375.699 461.569,-380 478.063,-391.311 481.369,-395.271 497.569,-407 500.372,-409.029 503.303,-411.125 506.244,-413.21"/>
<polygon fill="black" stroke="black" points="504.266,-416.097 514.458,-418.991 508.295,-410.373 504.266,-416.097"/>
</g>
<!-- AS2603&#45;&gt;AS2497 -->
<g id="edge23" class="edge"><title>AS2603&#45;&gt;AS2497</title>
<path fill="none" stroke="black" d="M441.921,-475.216C448.363,-479.24 455.296,-483.699 461.569,-488 478.063,-499.311 481.369,-503.271 497.569,-515 500.372,-517.029 503.303,-519.125 506.244,-521.21"/>
<polygon fill="black" stroke="black" points="504.266,-524.097 514.458,-526.991 508.295,-518.373 504.266,-524.097"/>
</g>
<!-- AS2603&#45;&gt;AS3491 -->
<g id="edge24" class="edge"><title>AS2603&#45;&gt;AS3491</title>
<path fill="none" stroke="black" d="M445.588,-448.331C451.569,-444.461 457.364,-439.69 461.569,-434 498.472,-384.059 461.955,-349.869 497.569,-299 499.241,-296.611 501.196,-294.365 503.323,-292.267"/>
<polygon fill="black" stroke="black" points="505.688,-294.851 511.056,-285.716 501.163,-289.51 505.688,-294.851"/>
</g>
<!-- AS1257&#45;&gt;AS6453 -->
<g id="edge25" class="edge"><title>AS1257&#45;&gt;AS6453</title>
<path fill="none" stroke="black" d="M453.092,-399.045C465.092,-396.296 478.713,-393.175 491.405,-390.267"/>
<polygon fill="black" stroke="black" points="492.371,-393.636 501.337,-387.991 490.808,-386.813 492.371,-393.636"/>
</g>
<!-- AS1257&#45;&gt;AS1239 -->
<g id="edge26" class="edge"><title>AS1257&#45;&gt;AS1239</title>
<path fill="none" stroke="black" d="M453.092,-414.955C465.092,-417.704 478.713,-420.825 491.405,-423.733"/>
<polygon fill="black" stroke="black" points="490.808,-427.187 501.337,-426.009 492.371,-420.364 490.808,-427.187"/>
</g>
<!-- AS1273 -->
<g id="node25" class="node"><title>AS1273</title>
<g id="a_node25"><a xlink:href="/asn/1273" xlink:title="AS1273 ~ Vodafone Group PLC [EU]">
<ellipse fill="#ffffff" stroke="black" cx="417.373" cy="-299" rx="39.7935" ry="18"/>
<text text-anchor="middle" x="417.373" y="-295.3" font-family="Times,serif" font-size="14.00" fill="#2c94b3">AS1273</text>
</a>
</g>
</g>
<!-- AS24785&#45;&gt;AS1273 -->
<g id="edge28" class="edge"><title>AS24785&#45;&gt;AS1273</title>
<path fill="none" stroke="black" stroke-width="2" d="M337.476,-299C347.165,-299 357.502,-299 367.394,-299"/>
<polygon fill="black" stroke="black" stroke-width="2" points="367.497,-302.5 377.497,-299 367.497,-295.5 367.497,-302.5"/>
</g>
<!-- AS1273&#45;&gt;AS701 -->
<g id="edge29" class="edge"><title>AS1273&#45;&gt;AS701</title>
<path fill="none" stroke="black" d="M453.092,-306.955C466.184,-309.955 481.207,-313.396 494.847,-316.522"/>
<polygon fill="black" stroke="black" points="494.425,-320.016 504.955,-318.838 495.989,-313.193 494.425,-320.016"/>
</g>
<!-- AS16735&#45;&gt;AS6762 -->
<g id="edge34" class="edge"><title>AS16735&#45;&gt;AS6762</title>
<path fill="none" stroke="black" d="M447.502,-177.348C463.113,-184.502 482.511,-193.391 499.183,-201.03"/>
<polygon fill="black" stroke="black" points="498.086,-204.378 508.635,-205.362 501.002,-198.014 498.086,-204.378"/>
</g>
<!-- AS16735&#45;&gt;AS174 -->
<g id="edge33" class="edge"><title>AS16735&#45;&gt;AS174</title>
<path fill="none" stroke="black" d="M461.584,-164C471.432,-164 481.911,-164 491.808,-164"/>
<polygon fill="black" stroke="black" points="491.86,-167.5 501.86,-164 491.86,-160.5 491.86,-167.5"/>
</g>
<!-- AS3257 -->
<g id="node28" class="node"><title>AS3257</title>
<g id="a_node28"><a xlink:href="/asn/3257" xlink:title="AS3257 ~ GTT [DE]">
<ellipse fill="#ffffff" stroke="black" cx="537.215" cy="-72" rx="39.7935" ry="18"/>
<text text-anchor="middle" x="537.215" y="-68.3" font-family="Times,serif" font-size="14.00" fill="#2c94b3">AS3257</text>
</a>
</g>
</g>
<!-- AS16735&#45;&gt;AS3257 -->
<g id="edge35" class="edge"><title>AS16735&#45;&gt;AS3257</title>
<path fill="none" stroke="black" d="M438.63,-148.185C457.802,-133.218 486.75,-110.617 508.143,-93.9163"/>
<polygon fill="black" stroke="black" points="510.493,-96.5216 516.222,-87.609 506.185,-91.004 510.493,-96.5216"/>
</g>
<!-- AS3356 -->
<g id="node29" class="node"><title>AS3356</title>
<g id="a_node29"><a xlink:href="/asn/3356" xlink:title="AS3356 ~ Level 3 Parent, LLC [US]">
<ellipse fill="#ffffff" stroke="black" cx="537.215" cy="-18" rx="39.7935" ry="18"/>
<text text-anchor="middle" x="537.215" y="-14.3" font-family="Times,serif" font-size="14.00" fill="#2c94b3">AS3356</text>
</a>
</g>
</g>
<!-- AS16735&#45;&gt;AS3356 -->
<g id="edge36" class="edge"><title>AS16735&#45;&gt;AS3356</title>
<path fill="none" stroke="black" d="M430.012,-146.488C451.961,-113.47 497.306,-45.269 497.569,-45 499.661,-42.8602 501.943,-40.7808 504.32,-38.7883"/>
<polygon fill="black" stroke="black" points="506.838,-41.266 512.618,-32.3869 502.563,-35.7234 506.838,-41.266"/>
</g>
<!-- AS3356&#45;&gt;AS3549 -->
<g id="edge38" class="edge"><title>AS3356&#45;&gt;AS3549</title>
<path fill="none" stroke="black" d="M560.059,-32.8464C577.456,-44.6704 602.004,-61.3543 621.287,-74.4599"/>
<polygon fill="black" stroke="black" points="619.493,-77.4727 629.731,-80.1992 623.428,-71.6833 619.493,-77.4727"/>
</g>
<!-- AS209 -->
<g id="node30" class="node"><title>AS209</title>
<g id="a_node30"><a xlink:href="/asn/209" xlink:title="AS209 ~ CenturyLink Communications, LLC [US]">
<ellipse fill="#ffffff" stroke="black" cx="652.508" cy="-18" rx="35.194" ry="18"/>
<text text-anchor="middle" x="652.508" y="-14.3" font-family="Times,serif" font-size="14.00" fill="#2c94b3">AS209</text>
</a>
</g>
</g>
<!-- AS3356&#45;&gt;AS209 -->
<g id="edge37" class="edge"><title>AS3356&#45;&gt;AS209</title>
<path fill="none" stroke="black" d="M576.887,-18C586.593,-18 597.083,-18 607.046,-18"/>
<polygon fill="black" stroke="black" points="607.183,-21.5001 617.183,-18 607.183,-14.5001 607.183,-21.5001"/>
</g>
<!-- AS47777&#45;&gt;AS3356 -->
<g id="edge44" class="edge"><title>AS47777&#45;&gt;AS3356</title>
<path fill="none" stroke="black" stroke-width="2" d="M325.987,-59.7479C340.267,-54.6314 357.398,-48.9675 373.176,-45 411.465,-35.3723 455.699,-28.2936 488.424,-23.8054"/>
<polygon fill="black" stroke="black" stroke-width="2" points="489.176,-27.2361 498.623,-22.4393 488.246,-20.2981 489.176,-27.2361"/>
</g>
<!-- AS13237 -->
<g id="node32" class="node"><title>AS13237</title>
<g id="a_node32"><a xlink:href="/asn/13237" xlink:title="AS13237 ~ European Backbone of AS13237 [DE]">
<ellipse fill="#ffffff" stroke="black" cx="417.373" cy="-72" rx="44.393" ry="18"/>
<text text-anchor="middle" x="417.373" y="-68.3" font-family="Times,serif" font-size="14.00" fill="#2c94b3">AS13237</text>
</a>
</g>
</g>
<!-- AS47777&#45;&gt;AS13237 -->
<g id="edge45" class="edge"><title>AS47777&#45;&gt;AS13237</title>
<path fill="none" stroke="black" d="M337.476,-72C345.682,-72 354.353,-72 362.826,-72"/>
<polygon fill="black" stroke="black" points="363.017,-75.5001 373.017,-72 363.017,-68.5001 363.017,-75.5001"/>
</g>
<!-- AS13237&#45;&gt;AS3257 -->
<g id="edge46" class="edge"><title>AS13237&#45;&gt;AS3257</title>
<path fill="none" stroke="black" d="M461.584,-72C469.896,-72 478.659,-72 487.141,-72"/>
<polygon fill="black" stroke="black" points="487.3,-75.5001 497.3,-72 487.3,-68.5001 487.3,-75.5001"/>
</g>
</g>
</svg>
