<?xml version="1.0" encoding="UTF-8" standalone="no"?>
<!DOCTYPE svg PUBLIC "-//W3C//DTD SVG 1.1//EN"
 "http://www.w3.org/Graphics/SVG/1.1/DTD/svg11.dtd">
<!-- Generated by graphviz version 2.38.0 (20140413.2041)
 -->
<!-- Title: AS8445 Combined Upstream Graph Pages: 1 -->
<svg width="567pt" height="927pt"
 viewBox="0.00 0.00 566.66 927.00" xmlns="http://www.w3.org/2000/svg" xmlns:xlink="http://www.w3.org/1999/xlink">
<g id="graph0" class="graph" transform="scale(1 1) rotate(0) translate(4 923)">
<title>AS8445 Combined Upstream Graph</title>
<polygon fill="white" stroke="none" points="-4,4 -4,-923 562.663,-923 562.663,4 -4,4"/>
<!-- AS8445 -->
<g id="node1" class="node"><title>AS8445</title>
<g id="a_node1"><a xlink:href="/asn/8445" xlink:title="AS8445 ~ SALZBURG&#45;AG&#45;AS [AT]">
<ellipse fill="#ffffff" stroke="black" cx="39.6465" cy="-587" rx="39.7935" ry="18"/>
<text text-anchor="middle" x="39.6465" y="-583.3" font-family="Times,serif" font-size="14.00" fill="#880000">AS8445</text>
</a>
</g>
</g>
<!-- AS1299 -->
<g id="node2" class="node"><title>AS1299</title>
<g id="a_node2"><a xlink:href="/asn/1299" xlink:title="AS1299 ~ Telia Carrier [EU]">
<ellipse fill="#ffffff" stroke="black" cx="274.782" cy="-587" rx="39.7935" ry="18"/>
<text text-anchor="middle" x="274.782" y="-583.3" font-family="Times,serif" font-size="14.00" fill="#2c94b3">AS1299</text>
</a>
</g>
</g>
<!-- AS8445&#45;&gt;AS1299 -->
<g id="edge1" class="edge"><title>AS8445&#45;&gt;AS1299</title>
<path fill="none" stroke="black" stroke-width="2.4375" d="M78.989,-584.551C90.6424,-583.913 103.487,-583.316 115.293,-583 150.522,-582.057 159.356,-582.111 194.586,-583 204.392,-583.247 214.874,-583.667 224.896,-584.144"/>
<polygon fill="black" stroke="black" stroke-width="2.4375" points="224.964,-587.651 235.127,-584.656 225.315,-580.66 224.964,-587.651"/>
</g>
<!-- AS1764 -->
<g id="node3" class="node"><title>AS1764</title>
<g id="a_node3"><a xlink:href="/asn/1764" xlink:title="AS1764 ~ NEXTLAYER&#45;AS [AT]">
<ellipse fill="#ffffff" stroke="black" cx="154.939" cy="-610" rx="39.7935" ry="18"/>
<text text-anchor="middle" x="154.939" y="-606.3" font-family="Times,serif" font-size="14.00" fill="#2c94b3">AS1764</text>
</a>
</g>
</g>
<!-- AS8445&#45;&gt;AS1764 -->
<g id="edge2" class="edge"><title>AS8445&#45;&gt;AS1764</title>
<path fill="none" stroke="black" stroke-width="4.5" d="M76.1822,-594.214C86.411,-596.291 97.7114,-598.585 108.454,-600.766"/>
<polygon fill="black" stroke="black" stroke-width="4.5" points="107.946,-604.681 118.53,-602.811 109.513,-596.963 107.946,-604.681"/>
</g>
<!-- AS3320 -->
<g id="node4" class="node"><title>AS3320</title>
<g id="a_node4"><a xlink:href="/asn/3320" xlink:title="AS3320 ~ DTAG [DE]">
<ellipse fill="#ffffff" stroke="black" cx="394.625" cy="-855" rx="39.7935" ry="18"/>
<text text-anchor="middle" x="394.625" y="-851.3" font-family="Times,serif" font-size="14.00" fill="#2c94b3">AS3320</text>
</a>
</g>
</g>
<!-- AS8445&#45;&gt;AS3320 -->
<g id="edge3" class="edge"><title>AS8445&#45;&gt;AS3320</title>
<path fill="none" stroke="black" stroke-width="1.3125" d="M48.6599,-604.809C70.4141,-650.879 135.4,-774.261 230.586,-830 265.185,-850.261 310.709,-855.837 344.856,-856.732"/>
<polygon fill="black" stroke="black" stroke-width="1.3125" points="345.018,-860.234 355.064,-856.87 345.112,-853.235 345.018,-860.234"/>
</g>
<!-- AS3356 -->
<g id="node5" class="node"><title>AS3356</title>
<g id="a_node5"><a xlink:href="/asn/3356" xlink:title="AS3356 ~ Level 3 Parent, LLC [US]">
<ellipse fill="#ffffff" stroke="black" cx="274.782" cy="-296" rx="39.7935" ry="18"/>
<text text-anchor="middle" x="274.782" y="-292.3" font-family="Times,serif" font-size="14.00" fill="#2c94b3">AS3356</text>
</a>
</g>
</g>
<!-- AS8445&#45;&gt;AS3356 -->
<g id="edge4" class="edge"><title>AS8445&#45;&gt;AS3356</title>
<path fill="none" stroke="black" stroke-width="2.4375" d="M54.1885,-570.097C93.4619,-521.076 207.546,-378.676 253.876,-320.847"/>
<polygon fill="black" stroke="black" stroke-width="2.4375" points="256.682,-322.943 260.203,-312.95 251.219,-318.566 256.682,-322.943"/>
</g>
<!-- AS6453 -->
<g id="node6" class="node"><title>AS6453</title>
<g id="a_node6"><a xlink:href="/asn/6453" xlink:title="AS6453 ~ TATA COMMUNICATIONS (AMERICA) INC [US]">
<ellipse fill="#ffffff" stroke="black" cx="394.625" cy="-221" rx="39.7935" ry="18"/>
<text text-anchor="middle" x="394.625" y="-217.3" font-family="Times,serif" font-size="14.00" fill="#2c94b3">AS6453</text>
</a>
</g>
</g>
<!-- AS8445&#45;&gt;AS6453 -->
<g id="edge5" class="edge"><title>AS8445&#45;&gt;AS6453</title>
<path fill="none" stroke="black" stroke-width="2.4375" d="M45.2179,-569.04C54.6896,-533.808 78.6779,-453.934 115.293,-395 155.351,-330.525 166.195,-309.193 230.586,-269 265.973,-246.911 311.998,-234.581 346.119,-227.967"/>
<polygon fill="black" stroke="black" stroke-width="2.4375" points="347.1,-231.345 356.302,-226.093 345.833,-224.461 347.1,-231.345"/>
</g>
<!-- AS8437 -->
<g id="node7" class="node"><title>AS8437</title>
<g id="a_node7"><a xlink:href="/asn/8437" xlink:title="AS8437 ~ Hutchison Drei Austria GmbH [AT]">
<ellipse fill="#ffffff" stroke="black" cx="154.939" cy="-901" rx="39.7935" ry="18"/>
<text text-anchor="middle" x="154.939" y="-897.3" font-family="Times,serif" font-size="14.00" fill="#2c94b3">AS8437</text>
</a>
</g>
</g>
<!-- AS8445&#45;&gt;AS8437 -->
<g id="edge6" class="edge"><title>AS8445&#45;&gt;AS8437</title>
<path fill="none" stroke="black" stroke-width="0.375" d="M41.6441,-605.012C45.0009,-652.067 59.0835,-781.109 115.293,-869 117.735,-872.818 120.781,-876.406 124.084,-879.7"/>
<polygon fill="black" stroke="black" stroke-width="0.375" points="121.805,-882.358 131.592,-886.416 126.472,-877.14 121.805,-882.358"/>
</g>
<!-- AS2914 -->
<g id="node8" class="node"><title>AS2914</title>
<g id="a_node8"><a xlink:href="/asn/2914" xlink:title="AS2914 ~ NTT America, Inc. [US]">
<ellipse fill="#ffffff" stroke="black" cx="514.467" cy="-671" rx="39.7935" ry="18"/>
<text text-anchor="middle" x="514.467" y="-667.3" font-family="Times,serif" font-size="14.00" fill="#2c94b3">AS2914</text>
</a>
</g>
</g>
<!-- AS1299&#45;&gt;AS2914 -->
<g id="edge7" class="edge"><title>AS1299&#45;&gt;AS2914</title>
<path fill="none" stroke="black" d="M288.462,-604.125C302.535,-621.639 326.988,-647.934 354.978,-660 389.832,-675.025 433.009,-677.075 465.491,-675.758"/>
<polygon fill="black" stroke="black" points="465.835,-679.245 475.638,-675.225 465.468,-672.255 465.835,-679.245"/>
</g>
<!-- AS6762 -->
<g id="node9" class="node"><title>AS6762</title>
<g id="a_node9"><a xlink:href="/asn/6762" xlink:title="AS6762 ~ TELECOM ITALIA SPARKLE S.p.A. [IT]">
<ellipse fill="#ffffff" stroke="black" cx="514.467" cy="-725" rx="39.7935" ry="18"/>
<text text-anchor="middle" x="514.467" y="-721.3" font-family="Times,serif" font-size="14.00" fill="#2c94b3">AS6762</text>
</a>
</g>
</g>
<!-- AS1299&#45;&gt;AS6762 -->
<g id="edge8" class="edge"><title>AS1299&#45;&gt;AS6762</title>
<path fill="none" stroke="black" stroke-width="2" d="M285.79,-604.315C298.959,-625.554 324.092,-661.171 354.978,-681 388.515,-702.531 432.59,-713.663 465.745,-719.335"/>
<polygon fill="black" stroke="black" stroke-width="2" points="465.232,-722.798 475.66,-720.926 466.341,-715.886 465.232,-722.798"/>
</g>
<!-- AS12956 -->
<g id="node10" class="node"><title>AS12956</title>
<g id="a_node10"><a xlink:href="/asn/12956" xlink:title="AS12956 ~ TELXIUS [ES]">
<ellipse fill="#ffffff" stroke="black" cx="514.467" cy="-171" rx="44.393" ry="18"/>
<text text-anchor="middle" x="514.467" y="-167.3" font-family="Times,serif" font-size="14.00" fill="#2c94b3">AS12956</text>
</a>
</g>
</g>
<!-- AS1299&#45;&gt;AS12956 -->
<g id="edge9" class="edge"><title>AS1299&#45;&gt;AS12956</title>
<path fill="none" stroke="black" stroke-width="2" d="M278.816,-569.002C291.585,-493.713 340.936,-207.293 354.978,-194 383.065,-167.41 427.426,-162.926 462.081,-164.375"/>
<polygon fill="black" stroke="black" stroke-width="2" points="462.304,-167.895 472.495,-164.998 462.722,-160.907 462.304,-167.895"/>
</g>
<!-- AS7018 -->
<g id="node11" class="node"><title>AS7018</title>
<g id="a_node11"><a xlink:href="/asn/7018" xlink:title="AS7018 ~ AT&amp;T Services, Inc. [US]">
<ellipse fill="#ffffff" stroke="black" cx="394.625" cy="-633" rx="39.7935" ry="18"/>
<text text-anchor="middle" x="394.625" y="-629.3" font-family="Times,serif" font-size="14.00" fill="#2c94b3">AS7018</text>
</a>
</g>
</g>
<!-- AS1299&#45;&gt;AS7018 -->
<g id="edge10" class="edge"><title>AS1299&#45;&gt;AS7018</title>
<path fill="none" stroke="black" stroke-width="3" d="M305.519,-598.608C320.312,-604.382 338.39,-611.439 354.311,-617.654"/>
<polygon fill="black" stroke="black" stroke-width="3" points="353.309,-621.02 363.897,-621.396 355.855,-614.499 353.309,-621.02"/>
</g>
<!-- AS3257 -->
<g id="node12" class="node"><title>AS3257</title>
<g id="a_node12"><a xlink:href="/asn/3257" xlink:title="AS3257 ~ GTT [DE]">
<ellipse fill="#ffffff" stroke="black" cx="514.467" cy="-401" rx="39.7935" ry="18"/>
<text text-anchor="middle" x="514.467" y="-397.3" font-family="Times,serif" font-size="14.00" fill="#2c94b3">AS3257</text>
</a>
</g>
</g>
<!-- AS1299&#45;&gt;AS3257 -->
<g id="edge11" class="edge"><title>AS1299&#45;&gt;AS3257</title>
<path fill="none" stroke="black" d="M301.606,-573.491C334.184,-555.842 391.156,-522.928 434.271,-487 456.447,-468.521 478.426,-444.032 493.582,-425.913"/>
<polygon fill="black" stroke="black" points="496.379,-428.023 500.042,-418.081 490.979,-423.569 496.379,-428.023"/>
</g>
<!-- AS174 -->
<g id="node13" class="node"><title>AS174</title>
<g id="a_node13"><a xlink:href="/asn/174" xlink:title="AS174 ~ Cogent Communications [US]">
<ellipse fill="#ffffff" stroke="black" cx="394.625" cy="-427" rx="35.194" ry="18"/>
<text text-anchor="middle" x="394.625" y="-423.3" font-family="Times,serif" font-size="14.00" fill="#2c94b3">AS174</text>
</a>
</g>
</g>
<!-- AS1299&#45;&gt;AS174 -->
<g id="edge12" class="edge"><title>AS1299&#45;&gt;AS174</title>
<path fill="none" stroke="black" d="M288.393,-569.877C309.214,-541.608 350.876,-485.041 375.065,-452.199"/>
<polygon fill="black" stroke="black" points="377.992,-454.127 381.104,-444 372.356,-449.976 377.992,-454.127"/>
</g>
<!-- AS209 -->
<g id="node14" class="node"><title>AS209</title>
<g id="a_node14"><a xlink:href="/asn/209" xlink:title="AS209 ~ CenturyLink Communications, LLC [US]">
<ellipse fill="#ffffff" stroke="black" cx="514.467" cy="-117" rx="35.194" ry="18"/>
<text text-anchor="middle" x="514.467" y="-113.3" font-family="Times,serif" font-size="14.00" fill="#2c94b3">AS209</text>
</a>
</g>
</g>
<!-- AS1299&#45;&gt;AS209 -->
<g id="edge13" class="edge"><title>AS1299&#45;&gt;AS209</title>
<path fill="none" stroke="black" stroke-width="2" d="M278.601,-568.895C291.008,-489.636 340.778,-176.493 354.978,-161 383.867,-129.482 433.175,-119.78 469.137,-117.157"/>
<polygon fill="black" stroke="black" stroke-width="2" points="469.58,-120.638 479.364,-116.573 469.181,-113.649 469.58,-120.638"/>
</g>
<!-- AS6461 -->
<g id="node15" class="node"><title>AS6461</title>
<g id="a_node15"><a xlink:href="/asn/6461" xlink:title="AS6461 ~ Zayo Bandwidth [US]">
<ellipse fill="#ffffff" stroke="black" cx="394.625" cy="-763" rx="39.7935" ry="18"/>
<text text-anchor="middle" x="394.625" y="-759.3" font-family="Times,serif" font-size="14.00" fill="#2c94b3">AS6461</text>
</a>
</g>
</g>
<!-- AS1299&#45;&gt;AS6461 -->
<g id="edge14" class="edge"><title>AS1299&#45;&gt;AS6461</title>
<path fill="none" stroke="black" d="M286.402,-604.222C295.349,-618.9 308.353,-640.634 318.978,-660 335.996,-691.019 332.89,-703.362 354.978,-731 357.808,-734.541 361.084,-737.964 364.507,-741.171"/>
<polygon fill="black" stroke="black" points="362.285,-743.877 372.123,-747.81 366.885,-738.601 362.285,-743.877"/>
</g>
<!-- AS1239 -->
<g id="node16" class="node"><title>AS1239</title>
<g id="a_node16"><a xlink:href="/asn/1239" xlink:title="AS1239 ~ Sprint [US]">
<ellipse fill="#ffffff" stroke="black" cx="514.467" cy="-557" rx="39.7935" ry="18"/>
<text text-anchor="middle" x="514.467" y="-553.3" font-family="Times,serif" font-size="14.00" fill="#2c94b3">AS1239</text>
</a>
</g>
</g>
<!-- AS1299&#45;&gt;AS1239 -->
<g id="edge15" class="edge"><title>AS1299&#45;&gt;AS1239</title>
<path fill="none" stroke="black" d="M313.182,-582.279C354.419,-577.075 420.863,-568.688 465.805,-563.016"/>
<polygon fill="black" stroke="black" points="466.41,-566.467 475.893,-561.742 465.534,-559.522 466.41,-566.467"/>
</g>
<!-- AS1764&#45;&gt;AS1299 -->
<g id="edge18" class="edge"><title>AS1764&#45;&gt;AS1299</title>
<path fill="none" stroke="black" stroke-width="2.57143" d="M191.616,-603.037C203.047,-600.806 215.869,-598.303 227.923,-595.951"/>
<polygon fill="black" stroke="black" stroke-width="2.57143" points="228.676,-599.37 237.82,-594.019 227.335,-592.499 228.676,-599.37"/>
</g>
<!-- AS1764&#45;&gt;AS3320 -->
<g id="edge22" class="edge"><title>AS1764&#45;&gt;AS3320</title>
<path fill="none" stroke="black" stroke-width="2.57143" d="M158.434,-627.979C164.367,-664.125 182.589,-746.137 230.586,-793 262.14,-823.808 310.552,-839.628 346.433,-847.543"/>
<polygon fill="black" stroke="black" stroke-width="2.57143" points="346.162,-851.061 356.664,-849.663 347.582,-844.207 346.162,-851.061"/>
</g>
<!-- AS1764&#45;&gt;AS3356 -->
<g id="edge17" class="edge"><title>AS1764&#45;&gt;AS3356</title>
<path fill="none" stroke="black" stroke-width="4.5" d="M162.613,-592.218C182.214,-539.988 239.723,-386.751 263.407,-323.644"/>
<polygon fill="black" stroke="black" stroke-width="4.5" points="267.208,-324.722 267.036,-313.976 259.836,-321.955 267.208,-324.722"/>
</g>
<!-- AS1764&#45;&gt;AS2914 -->
<g id="edge20" class="edge"><title>AS1764&#45;&gt;AS2914</title>
<path fill="none" stroke="black" stroke-width="1.28571" d="M165.506,-627.458C178.226,-649.541 202.41,-687.838 230.586,-714 278.063,-758.083 292.611,-772.456 354.978,-790 388.903,-799.543 405.163,-809.867 434.271,-790 470.537,-765.247 442.235,-731.792 470.271,-698 472.671,-695.107 475.465,-692.431 478.455,-689.979"/>
<polygon fill="black" stroke="black" stroke-width="1.28571" points="480.645,-692.714 486.695,-684.017 476.542,-687.043 480.645,-692.714"/>
</g>
<!-- AS1764&#45;&gt;AS3257 -->
<g id="edge21" class="edge"><title>AS1764&#45;&gt;AS3257</title>
<path fill="none" stroke="black" stroke-width="1.28571" d="M177.599,-594.996C192.38,-584.88 212.486,-571.359 230.586,-560 284.882,-525.926 297.611,-515.604 354.978,-487 389.139,-469.967 400.628,-472.034 434.271,-454 451.701,-444.656 470.122,-432.483 484.807,-422.159"/>
<polygon fill="black" stroke="black" stroke-width="1.28571" points="486.874,-424.984 492.986,-416.33 482.811,-419.283 486.874,-424.984"/>
</g>
<!-- AS1764&#45;&gt;AS174 -->
<g id="edge19" class="edge"><title>AS1764&#45;&gt;AS174</title>
<path fill="none" stroke="black" stroke-width="1.92857" d="M159.407,-592.048C166.604,-559.93 186.33,-492.836 230.586,-459 264.582,-433.008 313.93,-426.395 349.419,-425.429"/>
<polygon fill="black" stroke="black" stroke-width="1.92857" points="349.544,-428.928 359.496,-425.295 349.45,-421.928 349.544,-428.928"/>
</g>
<!-- AS8218 -->
<g id="node17" class="node"><title>AS8218</title>
<g id="a_node17"><a xlink:href="/asn/8218" xlink:title="AS8218 ~ legacy Neotelecoms [FR]">
<ellipse fill="#ffffff" stroke="black" cx="274.782" cy="-687" rx="39.7935" ry="18"/>
<text text-anchor="middle" x="274.782" y="-683.3" font-family="Times,serif" font-size="14.00" fill="#2c94b3">AS8218</text>
</a>
</g>
</g>
<!-- AS1764&#45;&gt;AS8218 -->
<g id="edge16" class="edge"><title>AS1764&#45;&gt;AS8218</title>
<path fill="none" stroke="black" stroke-width="1.28571" d="M178.382,-624.664C196.648,-636.599 222.624,-653.573 242.86,-666.795"/>
<polygon fill="black" stroke="black" stroke-width="1.28571" points="241.137,-669.85 251.423,-672.39 244.966,-663.99 241.137,-669.85"/>
</g>
<!-- AS3320&#45;&gt;AS2914 -->
<g id="edge37" class="edge"><title>AS3320&#45;&gt;AS2914</title>
<path fill="none" stroke="black" d="M417.882,-840.357C423.924,-835.461 429.976,-829.559 434.271,-823 465.945,-774.635 435.454,-744.154 470.271,-698 472.535,-694.999 475.237,-692.251 478.17,-689.754"/>
<polygon fill="black" stroke="black" points="480.365,-692.484 486.331,-683.729 476.207,-686.852 480.365,-692.484"/>
</g>
<!-- AS3320&#45;&gt;AS6762 -->
<g id="edge36" class="edge"><title>AS3320&#45;&gt;AS6762</title>
<path fill="none" stroke="black" stroke-width="2" d="M415.95,-839.446C422.063,-834.437 428.638,-828.7 434.271,-823 457.008,-799.991 479.902,-770.864 495.186,-750.365"/>
<polygon fill="black" stroke="black" stroke-width="2" points="498.126,-752.276 501.247,-742.151 492.493,-748.119 498.126,-752.276"/>
</g>
<!-- AS3320&#45;&gt;AS1239 -->
<g id="edge34" class="edge"><title>AS3320&#45;&gt;AS1239</title>
<path fill="none" stroke="black" stroke-width="2" d="M407.763,-837.803C416.238,-825.107 427.249,-807.128 434.271,-790 459.623,-728.163 447.273,-706.751 470.271,-644 477.936,-623.087 489.19,-600.596 498.289,-583.721"/>
<polygon fill="black" stroke="black" stroke-width="2" points="501.612,-584.939 503.354,-574.489 495.475,-581.572 501.612,-584.939"/>
</g>
<!-- AS701 -->
<g id="node21" class="node"><title>AS701</title>
<g id="a_node21"><a xlink:href="/asn/701" xlink:title="AS701 ~ UUNET [US]">
<ellipse fill="#ffffff" stroke="black" cx="514.467" cy="-855" rx="35.194" ry="18"/>
<text text-anchor="middle" x="514.467" y="-851.3" font-family="Times,serif" font-size="14.00" fill="#2c94b3">AS701</text>
</a>
</g>
</g>
<!-- AS3320&#45;&gt;AS701 -->
<g id="edge35" class="edge"><title>AS3320&#45;&gt;AS701</title>
<path fill="none" stroke="black" stroke-width="3" d="M434.537,-855C445.624,-855 457.783,-855 469.166,-855"/>
<polygon fill="black" stroke="black" stroke-width="3" points="469.348,-858.5 479.348,-855 469.348,-851.5 469.348,-858.5"/>
</g>
<!-- AS3356&#45;&gt;AS6453 -->
<g id="edge29" class="edge"><title>AS3356&#45;&gt;AS6453</title>
<path fill="none" stroke="black" d="M298.503,-281.539C316.564,-270.045 342.034,-253.835 362.073,-241.081"/>
<polygon fill="black" stroke="black" points="364.014,-243.994 370.571,-235.672 360.255,-238.089 364.014,-243.994"/>
</g>
<!-- AS3356&#45;&gt;AS2914 -->
<g id="edge32" class="edge"><title>AS3356&#45;&gt;AS2914</title>
<path fill="none" stroke="black" d="M292.356,-312.312C307.704,-326.839 331.619,-348.048 354.978,-363 387.732,-383.966 410.314,-369.366 434.271,-400 485.605,-465.639 443.503,-505.088 470.271,-584 477.493,-605.29 488.907,-627.999 498.189,-644.876"/>
<polygon fill="black" stroke="black" points="495.141,-646.597 503.086,-653.606 501.246,-643.172 495.141,-646.597"/>
</g>
<!-- AS3356&#45;&gt;AS6762 -->
<g id="edge26" class="edge"><title>AS3356&#45;&gt;AS6762</title>
<path fill="none" stroke="black" stroke-width="2" d="M284.479,-313.582C298.96,-342.805 328.992,-403.188 354.978,-454 389.671,-521.839 402.722,-536.643 434.271,-606 452.451,-645.967 442.235,-664.208 470.271,-698 472.671,-700.893 475.465,-703.569 478.455,-706.021"/>
<polygon fill="black" stroke="black" stroke-width="2" points="476.542,-708.957 486.695,-711.983 480.645,-703.286 476.542,-708.957"/>
</g>
<!-- AS3356&#45;&gt;AS12956 -->
<g id="edge27" class="edge"><title>AS3356&#45;&gt;AS12956</title>
<path fill="none" stroke="black" stroke-width="2" d="M275.513,-277.758C275.959,-232.418 284.189,-114.635 354.978,-64 383.641,-43.4972 404.677,-44.865 434.271,-64 467.013,-85.1703 444.635,-114.623 470.271,-144 472.423,-146.465 474.854,-148.782 477.441,-150.942"/>
<polygon fill="black" stroke="black" stroke-width="2" points="475.418,-153.799 485.537,-156.941 479.586,-148.175 475.418,-153.799"/>
</g>
<!-- AS3356&#45;&gt;AS3257 -->
<g id="edge31" class="edge"><title>AS3356&#45;&gt;AS3257</title>
<path fill="none" stroke="black" d="M314.157,-298.305C347.475,-301.598 396.213,-309.593 434.271,-329 457.175,-340.68 478.455,-360.766 493.176,-376.76"/>
<polygon fill="black" stroke="black" points="490.579,-379.107 499.854,-384.228 495.797,-374.441 490.579,-379.107"/>
</g>
<!-- AS3356&#45;&gt;AS209 -->
<g id="edge33" class="edge"><title>AS3356&#45;&gt;AS209</title>
<path fill="none" stroke="black" d="M275.012,-277.803C274.113,-230.146 279.122,-101.542 354.978,-46 383.412,-25.1807 401.357,-33.4061 434.271,-46 458.578,-55.3004 480.125,-75.8798 494.583,-92.5004"/>
<polygon fill="black" stroke="black" points="491.989,-94.8545 501.093,-100.275 497.356,-90.3606 491.989,-94.8545"/>
</g>
<!-- AS3356&#45;&gt;AS1239 -->
<g id="edge30" class="edge"><title>AS3356&#45;&gt;AS1239</title>
<path fill="none" stroke="black" d="M304.47,-308.202C348.804,-327.151 429.406,-362.006 434.271,-367 457.744,-391.097 489.523,-482.506 504.697,-529.193"/>
<polygon fill="black" stroke="black" points="501.448,-530.523 507.844,-538.97 508.112,-528.378 501.448,-530.523"/>
</g>
<!-- AS3549 -->
<g id="node18" class="node"><title>AS3549</title>
<g id="a_node18"><a xlink:href="/asn/3549" xlink:title="AS3549 ~ Level 3 Parent, LLC [US]">
<ellipse fill="#ffffff" stroke="black" cx="394.625" cy="-91" rx="39.7935" ry="18"/>
<text text-anchor="middle" x="394.625" y="-87.3" font-family="Times,serif" font-size="14.00" fill="#2c94b3">AS3549</text>
</a>
</g>
</g>
<!-- AS3356&#45;&gt;AS3549 -->
<g id="edge24" class="edge"><title>AS3356&#45;&gt;AS3549</title>
<path fill="none" stroke="black" stroke-width="3" d="M281,-278.147C291.264,-245.1 316.482,-173.194 354.978,-123 357.736,-119.404 360.97,-115.947 364.372,-112.722"/>
<polygon fill="black" stroke="black" stroke-width="3" points="366.752,-115.29 371.968,-106.068 362.139,-110.025 366.752,-115.29"/>
</g>
<!-- AS3491 -->
<g id="node19" class="node"><title>AS3491</title>
<g id="a_node19"><a xlink:href="/asn/3491" xlink:title="AS3491 ~ PCCW Global, Inc. [US]">
<ellipse fill="#ffffff" stroke="black" cx="514.467" cy="-279" rx="39.7935" ry="18"/>
<text text-anchor="middle" x="514.467" y="-275.3" font-family="Times,serif" font-size="14.00" fill="#2c94b3">AS3491</text>
</a>
</g>
</g>
<!-- AS3356&#45;&gt;AS3491 -->
<g id="edge25" class="edge"><title>AS3356&#45;&gt;AS3491</title>
<path fill="none" stroke="black" stroke-width="2" d="M313.97,-293.269C354.998,-290.334 420.307,-285.663 464.946,-282.47"/>
<polygon fill="black" stroke="black" stroke-width="2" points="465.255,-285.957 474.98,-281.753 464.755,-278.975 465.255,-285.957"/>
</g>
<!-- AS2497 -->
<g id="node20" class="node"><title>AS2497</title>
<g id="a_node20"><a xlink:href="/asn/2497" xlink:title="AS2497 ~ Internet Initiative Japan Inc. [JP]">
<ellipse fill="#ffffff" stroke="black" cx="514.467" cy="-18" rx="39.7935" ry="18"/>
<text text-anchor="middle" x="514.467" y="-14.3" font-family="Times,serif" font-size="14.00" fill="#2c94b3">AS2497</text>
</a>
</g>
</g>
<!-- AS3356&#45;&gt;AS2497 -->
<g id="edge28" class="edge"><title>AS3356&#45;&gt;AS2497</title>
<path fill="none" stroke="black" stroke-width="3" d="M278.473,-277.968C286.998,-223.44 315.215,-62.0558 354.978,-30 386.322,-4.73081 433.421,-4.36771 468.134,-8.72886"/>
<polygon fill="black" stroke="black" stroke-width="3" points="468.082,-12.2572 478.478,-10.2116 469.076,-5.32802 468.082,-12.2572"/>
</g>
<!-- AS6453&#45;&gt;AS2914 -->
<g id="edge45" class="edge"><title>AS6453&#45;&gt;AS2914</title>
<path fill="none" stroke="black" d="M400.933,-238.85C408.944,-266.234 424.249,-320.343 434.271,-367 454.802,-462.582 440.203,-490.976 470.271,-584 477.185,-605.391 488.612,-628.096 497.977,-644.946"/>
<polygon fill="black" stroke="black" points="494.944,-646.692 502.926,-653.659 501.03,-643.235 494.944,-646.692"/>
</g>
<!-- AS6453&#45;&gt;AS6762 -->
<g id="edge46" class="edge"><title>AS6453&#45;&gt;AS6762</title>
<path fill="none" stroke="black" d="M400.073,-238.933C407.91,-271.05 424.29,-340.586 434.271,-400 445.321,-465.782 434.49,-641.705 470.271,-698 472.121,-700.911 474.41,-703.561 476.961,-705.963"/>
<polygon fill="black" stroke="black" points="475.194,-709.025 485.225,-712.436 479.51,-703.514 475.194,-709.025"/>
</g>
<!-- AS6453&#45;&gt;AS12956 -->
<g id="edge41" class="edge"><title>AS6453&#45;&gt;AS12956</title>
<path fill="none" stroke="black" d="M424.151,-208.896C439.07,-202.566 457.568,-194.718 473.854,-187.808"/>
<polygon fill="black" stroke="black" points="475.305,-190.994 483.144,-183.866 472.571,-184.55 475.305,-190.994"/>
</g>
<!-- AS6453&#45;&gt;AS3257 -->
<g id="edge43" class="edge"><title>AS6453&#45;&gt;AS3257</title>
<path fill="none" stroke="black" d="M406.924,-238.259C427.689,-269.977 472.022,-337.695 496.448,-375.003"/>
<polygon fill="black" stroke="black" points="493.796,-377.344 502.202,-383.793 499.653,-373.509 493.796,-377.344"/>
</g>
<!-- AS6453&#45;&gt;AS209 -->
<g id="edge40" class="edge"><title>AS6453&#45;&gt;AS209</title>
<path fill="none" stroke="black" stroke-width="2" d="M409.738,-204.228C424.028,-187.806 447.248,-162.609 470.271,-144 473.77,-141.172 477.585,-138.401 481.451,-135.777"/>
<polygon fill="black" stroke="black" stroke-width="2" points="483.409,-138.679 489.894,-130.301 479.6,-132.806 483.409,-138.679"/>
</g>
<!-- AS6453&#45;&gt;AS1239 -->
<g id="edge44" class="edge"><title>AS6453&#45;&gt;AS1239</title>
<path fill="none" stroke="black" d="M402.104,-238.945C409.822,-260.36 423.08,-297.26 434.271,-329 459.758,-401.287 489.256,-486.676 504.021,-529.539"/>
<polygon fill="black" stroke="black" points="500.797,-530.927 507.362,-539.242 507.416,-528.648 500.797,-530.927"/>
</g>
<!-- AS6453&#45;&gt;AS3491 -->
<g id="edge42" class="edge"><title>AS6453&#45;&gt;AS3491</title>
<path fill="none" stroke="black" d="M422.071,-234.016C438.482,-242.094 459.782,-252.577 477.69,-261.391"/>
<polygon fill="black" stroke="black" points="476.184,-264.551 486.702,-265.826 479.275,-258.27 476.184,-264.551"/>
</g>
<!-- AS6453&#45;&gt;AS2497 -->
<g id="edge39" class="edge"><title>AS6453&#45;&gt;AS2497</title>
<path fill="none" stroke="black" stroke-width="2" d="M405.402,-203.553C419.547,-178.378 446.618,-130.447 470.271,-90 479.18,-74.7662 489.322,-57.8389 497.54,-44.2265"/>
<polygon fill="black" stroke="black" stroke-width="2" points="500.702,-45.7617 502.883,-35.3938 494.712,-42.1388 500.702,-45.7617"/>
</g>
<!-- AS1273 -->
<g id="node22" class="node"><title>AS1273</title>
<g id="a_node22"><a xlink:href="/asn/1273" xlink:title="AS1273 ~ Vodafone Group PLC [EU]">
<ellipse fill="#ffffff" stroke="black" cx="514.467" cy="-225" rx="39.7935" ry="18"/>
<text text-anchor="middle" x="514.467" y="-221.3" font-family="Times,serif" font-size="14.00" fill="#2c94b3">AS1273</text>
</a>
</g>
</g>
<!-- AS6453&#45;&gt;AS1273 -->
<g id="edge47" class="edge"><title>AS6453&#45;&gt;AS1273</title>
<path fill="none" stroke="black" d="M434.211,-222.31C443.977,-222.641 454.594,-223.002 464.788,-223.348"/>
<polygon fill="black" stroke="black" points="464.681,-226.846 474.794,-223.687 464.919,-219.85 464.681,-226.846"/>
</g>
<!-- AS25255 -->
<g id="node23" class="node"><title>AS25255</title>
<g id="a_node23"><a xlink:href="/asn/25255" xlink:title="AS25255 ~ ==&gt; TELE2 AUSTRIA &lt;== [AT]">
<ellipse fill="#ffffff" stroke="black" cx="274.782" cy="-901" rx="44.393" ry="18"/>
<text text-anchor="middle" x="274.782" y="-897.3" font-family="Times,serif" font-size="14.00" fill="#2c94b3">AS25255</text>
</a>
</g>
</g>
<!-- AS8437&#45;&gt;AS25255 -->
<g id="edge48" class="edge"><title>AS8437&#45;&gt;AS25255</title>
<path fill="none" stroke="black" stroke-width="2" d="M194.852,-901C202.955,-901 211.63,-901 220.156,-901"/>
<polygon fill="black" stroke="black" stroke-width="2" points="220.434,-904.5 230.434,-901 220.434,-897.5 220.434,-904.5"/>
</g>
<!-- AS174&#45;&gt;AS3491 -->
<g id="edge38" class="edge"><title>AS174&#45;&gt;AS3491</title>
<path fill="none" stroke="black" d="M408.914,-410.31C429.601,-384.328 469.626,-334.06 493.706,-303.818"/>
<polygon fill="black" stroke="black" points="496.555,-305.859 500.046,-295.856 491.079,-301.499 496.555,-305.859"/>
</g>
<!-- AS8218&#45;&gt;AS6461 -->
<g id="edge23" class="edge"><title>AS8218&#45;&gt;AS6461</title>
<path fill="none" stroke="black" stroke-width="2" d="M298.503,-701.654C316.681,-713.377 342.363,-729.94 362.46,-742.901"/>
<polygon fill="black" stroke="black" stroke-width="2" points="360.672,-745.913 370.973,-748.391 364.466,-740.03 360.672,-745.913"/>
</g>
<!-- AS25255&#45;&gt;AS6762 -->
<g id="edge49" class="edge"><title>AS25255&#45;&gt;AS6762</title>
<path fill="none" stroke="black" stroke-width="2" d="M317.291,-906.199C351.671,-908.285 400.234,-905.863 434.271,-882 445.895,-873.85 482.439,-794.655 501.552,-751.961"/>
<polygon fill="black" stroke="black" stroke-width="2" points="504.806,-753.258 505.681,-742.699 498.412,-750.407 504.806,-753.258"/>
</g>
</g>
</svg>
