<?xml version="1.0" encoding="UTF-8" standalone="no"?>
<!DOCTYPE svg PUBLIC "-//W3C//DTD SVG 1.1//EN"
 "http://www.w3.org/Graphics/SVG/1.1/DTD/svg11.dtd">
<!-- Generated by graphviz version 2.38.0 (20140413.2041)
 -->
<!-- Title: AS8445 IPv4 Upstream Graph Pages: 1 -->
<svg width="673pt" height="739pt"
 viewBox="0.00 0.00 672.86 738.52" xmlns="http://www.w3.org/2000/svg" xmlns:xlink="http://www.w3.org/1999/xlink">
<g id="graph0" class="graph" transform="scale(1 1) rotate(0) translate(4 734.522)">
<title>AS8445 IPv4 Upstream Graph</title>
<polygon fill="white" stroke="none" points="-4,4 -4,-734.522 668.857,-734.522 668.857,4 -4,4"/>
<!-- AS8445 -->
<g id="node1" class="node"><title>AS8445</title>
<g id="a_node1"><a xlink:href="/asn/8445" xlink:title="AS8445 ~ SALZBURG&#45;AG&#45;AS [AT]">
<ellipse fill="#ffffff" stroke="black" cx="39.6465" cy="-401" rx="39.7935" ry="18"/>
<text text-anchor="middle" x="39.6465" y="-397.3" font-family="Times,serif" font-size="14.00" fill="#880000">AS8445</text>
</a>
</g>
</g>
<!-- AS1299 -->
<g id="node2" class="node"><title>AS1299</title>
<g id="a_node2"><a xlink:href="/asn/1299" xlink:title="AS1299 ~ Telia Carrier [EU]">
<ellipse fill="#ffffff" stroke="black" cx="270.232" cy="-513" rx="39.7935" ry="18"/>
<text text-anchor="middle" x="270.232" y="-509.3" font-family="Times,serif" font-size="14.00" fill="#2c94b3">AS1299</text>
</a>
</g>
</g>
<!-- AS8445&#45;&gt;AS1299 -->
<g id="edge1" class="edge"><title>AS8445&#45;&gt;AS1299</title>
<path fill="none" stroke="black" stroke-width="2.38235" d="M59.3591,-416.701C73.9235,-428.371 95.0063,-444.093 115.293,-455 151.156,-474.281 194.819,-490.075 226.471,-500.286"/>
<polygon fill="black" stroke="black" stroke-width="2.38235" points="225.71,-503.717 236.3,-503.403 227.825,-497.044 225.71,-503.717"/>
</g>
<!-- AS1764 -->
<g id="node3" class="node"><title>AS1764</title>
<g id="a_node3"><a xlink:href="/asn/1764" xlink:title="AS1764 ~ NEXTLAYER&#45;AS [AT]">
<ellipse fill="#ffffff" stroke="black" cx="154.939" cy="-428" rx="39.7935" ry="18"/>
<text text-anchor="middle" x="154.939" y="-424.3" font-family="Times,serif" font-size="14.00" fill="#2c94b3">AS1764</text>
</a>
</g>
</g>
<!-- AS8445&#45;&gt;AS1764 -->
<g id="edge2" class="edge"><title>AS8445&#45;&gt;AS1764</title>
<path fill="none" stroke="black" stroke-width="4.5" d="M75.2537,-409.248C86.125,-411.838 98.2793,-414.735 109.722,-417.462"/>
<polygon fill="black" stroke="black" stroke-width="4.5" points="108.904,-421.315 119.544,-419.803 110.729,-413.654 108.904,-421.315"/>
</g>
<!-- AS3356 -->
<g id="node4" class="node"><title>AS3356</title>
<g id="a_node4"><a xlink:href="/asn/3356" xlink:title="AS3356 ~ Level 3 Parent, LLC [US]">
<ellipse fill="#ffffff" stroke="black" cx="270.232" cy="-360" rx="39.7935" ry="18"/>
<text text-anchor="middle" x="270.232" y="-356.3" font-family="Times,serif" font-size="14.00" fill="#2c94b3">AS3356</text>
</a>
</g>
</g>
<!-- AS8445&#45;&gt;AS3356 -->
<g id="edge3" class="edge"><title>AS8445&#45;&gt;AS3356</title>
<path fill="none" stroke="black" stroke-width="2.91176" d="M76.8666,-394.503C116.492,-387.396 180.101,-375.987 223.227,-368.252"/>
<polygon fill="black" stroke="black" stroke-width="2.91176" points="223.957,-371.677 233.182,-366.466 222.721,-364.787 223.957,-371.677"/>
</g>
<!-- AS6453 -->
<g id="node5" class="node"><title>AS6453</title>
<g id="a_node5"><a xlink:href="/asn/6453" xlink:title="AS6453 ~ TATA COMMUNICATIONS (AMERICA) INC [US]">
<ellipse fill="#ffffff" stroke="black" cx="390.075" cy="-64" rx="39.7935" ry="18"/>
<text text-anchor="middle" x="390.075" y="-60.3" font-family="Times,serif" font-size="14.00" fill="#2c94b3">AS6453</text>
</a>
</g>
</g>
<!-- AS8445&#45;&gt;AS6453 -->
<g id="edge4" class="edge"><title>AS8445&#45;&gt;AS6453</title>
<path fill="none" stroke="black" stroke-width="1.85294" d="M50.3646,-383.556C75.414,-339.819 146.164,-223.791 230.586,-151 266.827,-119.752 316.11,-94.868 350.049,-79.8498"/>
<polygon fill="black" stroke="black" stroke-width="1.85294" points="351.844,-82.8862 359.624,-75.6942 349.057,-76.4649 351.844,-82.8862"/>
</g>
<!-- AS2914 -->
<g id="node6" class="node"><title>AS2914</title>
<g id="a_node6"><a xlink:href="/asn/2914" xlink:title="AS2914 ~ NTT America, Inc. [US]">
<ellipse fill="#ffffff" stroke="black" cx="509.918" cy="-637" rx="39.7935" ry="18"/>
<text text-anchor="middle" x="509.918" y="-633.3" font-family="Times,serif" font-size="14.00" fill="#2c94b3">AS2914</text>
</a>
</g>
</g>
<!-- AS1299&#45;&gt;AS2914 -->
<g id="edge5" class="edge"><title>AS1299&#45;&gt;AS2914</title>
<path fill="none" stroke="black" d="M272.273,-531.183C275.571,-569.653 289.264,-658.872 345.879,-697 378.464,-718.945 397.215,-710.046 434.271,-697 454.782,-689.779 473.818,-674.277 487.532,-660.839"/>
<polygon fill="black" stroke="black" points="490.078,-663.243 494.58,-653.652 485.079,-658.342 490.078,-663.243"/>
</g>
<!-- AS174 -->
<g id="node7" class="node"><title>AS174</title>
<g id="a_node7"><a xlink:href="/asn/174" xlink:title="AS174 ~ Cogent Communications [US]">
<ellipse fill="#ffffff" stroke="black" cx="509.918" cy="-164" rx="35.194" ry="18"/>
<text text-anchor="middle" x="509.918" y="-160.3" font-family="Times,serif" font-size="14.00" fill="#2c94b3">AS174</text>
</a>
</g>
</g>
<!-- AS1299&#45;&gt;AS174 -->
<g id="edge6" class="edge"><title>AS1299&#45;&gt;AS174</title>
<path fill="none" stroke="black" d="M287.288,-529.306C301.348,-542.34 323.053,-559.609 345.879,-567 383.254,-579.101 404.068,-592.122 434.271,-567 441.598,-560.906 488.962,-282.64 504.202,-192.124"/>
<polygon fill="black" stroke="black" points="507.689,-192.489 505.896,-182.047 500.786,-191.328 507.689,-192.489"/>
</g>
<!-- AS7018 -->
<g id="node8" class="node"><title>AS7018</title>
<g id="a_node8"><a xlink:href="/asn/7018" xlink:title="AS7018 ~ AT&amp;T Services, Inc. [US]">
<ellipse fill="#ffffff" stroke="black" cx="390.075" cy="-670" rx="39.7935" ry="18"/>
<text text-anchor="middle" x="390.075" y="-666.3" font-family="Times,serif" font-size="14.00" fill="#2c94b3">AS7018</text>
</a>
</g>
</g>
<!-- AS1299&#45;&gt;AS7018 -->
<g id="edge7" class="edge"><title>AS1299&#45;&gt;AS7018</title>
<path fill="none" stroke="black" stroke-width="2" d="M278.989,-530.591C290.844,-556.176 315.343,-604.272 345.879,-638 349.467,-641.963 353.612,-645.755 357.885,-649.253"/>
<polygon fill="black" stroke="black" stroke-width="2" points="356.082,-652.281 366.148,-655.588 360.341,-646.726 356.082,-652.281"/>
</g>
<!-- AS1239 -->
<g id="node9" class="node"><title>AS1239</title>
<g id="a_node9"><a xlink:href="/asn/1239" xlink:title="AS1239 ~ Sprint [US]">
<ellipse fill="#ffffff" stroke="black" cx="390.075" cy="-302" rx="39.7935" ry="18"/>
<text text-anchor="middle" x="390.075" y="-298.3" font-family="Times,serif" font-size="14.00" fill="#2c94b3">AS1239</text>
</a>
</g>
</g>
<!-- AS1299&#45;&gt;AS1239 -->
<g id="edge8" class="edge"><title>AS1299&#45;&gt;AS1239</title>
<path fill="none" stroke="black" d="M294.613,-498.5C300.117,-494.312 305.614,-489.397 309.879,-484 315.013,-477.503 357.102,-378.117 377.744,-329.025"/>
<polygon fill="black" stroke="black" points="381.04,-330.217 381.686,-319.642 374.586,-327.506 381.04,-330.217"/>
</g>
<!-- AS6762 -->
<g id="node10" class="node"><title>AS6762</title>
<g id="a_node10"><a xlink:href="/asn/6762" xlink:title="AS6762 ~ TELECOM ITALIA SPARKLE S.p.A. [IT]">
<ellipse fill="#ffffff" stroke="black" cx="390.075" cy="-432" rx="39.7935" ry="18"/>
<text text-anchor="middle" x="390.075" y="-428.3" font-family="Times,serif" font-size="14.00" fill="#2c94b3">AS6762</text>
</a>
</g>
</g>
<!-- AS1299&#45;&gt;AS6762 -->
<g id="edge9" class="edge"><title>AS1299&#45;&gt;AS6762</title>
<path fill="none" stroke="black" d="M291.563,-497.723C306.425,-486.696 327.17,-471.593 345.879,-459 349.428,-456.611 353.178,-454.161 356.927,-451.758"/>
<polygon fill="black" stroke="black" points="358.995,-454.591 365.575,-446.288 355.253,-448.675 358.995,-454.591"/>
</g>
<!-- AS6461 -->
<g id="node11" class="node"><title>AS6461</title>
<g id="a_node11"><a xlink:href="/asn/6461" xlink:title="AS6461 ~ Zayo Bandwidth [US]">
<ellipse fill="#ffffff" stroke="black" cx="390.075" cy="-540" rx="39.7935" ry="18"/>
<text text-anchor="middle" x="390.075" y="-536.3" font-family="Times,serif" font-size="14.00" fill="#2c94b3">AS6461</text>
</a>
</g>
</g>
<!-- AS1299&#45;&gt;AS6461 -->
<g id="edge10" class="edge"><title>AS1299&#45;&gt;AS6461</title>
<path fill="none" stroke="black" d="M305.952,-520.955C317.952,-523.704 331.572,-526.825 344.265,-529.733"/>
<polygon fill="black" stroke="black" points="343.668,-533.187 354.197,-532.009 345.231,-526.364 343.668,-533.187"/>
</g>
<!-- AS3257 -->
<g id="node12" class="node"><title>AS3257</title>
<g id="a_node12"><a xlink:href="/asn/3257" xlink:title="AS3257 ~ GTT [DE]">
<ellipse fill="#ffffff" stroke="black" cx="509.918" cy="-426" rx="39.7935" ry="18"/>
<text text-anchor="middle" x="509.918" y="-422.3" font-family="Times,serif" font-size="14.00" fill="#2c94b3">AS3257</text>
</a>
</g>
</g>
<!-- AS1299&#45;&gt;AS3257 -->
<g id="edge11" class="edge"><title>AS1299&#45;&gt;AS3257</title>
<path fill="none" stroke="black" d="M280.229,-530.704C292.039,-551.744 314.957,-585.787 345.879,-600 381.574,-616.407 401.47,-621.62 434.271,-600 483.777,-567.369 500.578,-494.335 506.185,-454.036"/>
<polygon fill="black" stroke="black" points="509.663,-454.426 507.435,-444.068 502.717,-453.555 509.663,-454.426"/>
</g>
<!-- AS12956 -->
<g id="node13" class="node"><title>AS12956</title>
<g id="a_node13"><a xlink:href="/asn/12956" xlink:title="AS12956 ~ TELXIUS [ES]">
<ellipse fill="#ffffff" stroke="black" cx="390.075" cy="-486" rx="44.393" ry="18"/>
<text text-anchor="middle" x="390.075" y="-482.3" font-family="Times,serif" font-size="14.00" fill="#2c94b3">AS12956</text>
</a>
</g>
</g>
<!-- AS1299&#45;&gt;AS12956 -->
<g id="edge12" class="edge"><title>AS1299&#45;&gt;AS12956</title>
<path fill="none" stroke="black" d="M305.952,-505.045C317.09,-502.493 329.625,-499.621 341.518,-496.896"/>
<polygon fill="black" stroke="black" points="342.347,-500.297 351.313,-494.652 340.784,-493.474 342.347,-500.297"/>
</g>
<!-- AS1764&#45;&gt;AS1299 -->
<g id="edge19" class="edge"><title>AS1764&#45;&gt;AS1299</title>
<path fill="none" stroke="black" stroke-width="1.8" d="M176.194,-443.196C194.126,-456.65 220.497,-476.435 240.588,-491.509"/>
<polygon fill="black" stroke="black" stroke-width="1.8" points="238.672,-494.447 248.771,-497.649 242.873,-488.848 238.672,-494.447"/>
</g>
<!-- AS1764&#45;&gt;AS3356 -->
<g id="edge16" class="edge"><title>AS1764&#45;&gt;AS3356</title>
<path fill="none" stroke="black" stroke-width="4.5" d="M179.689,-413.745C196.306,-403.771 218.702,-390.329 236.939,-379.383"/>
<polygon fill="black" stroke="black" stroke-width="4.5" points="238.966,-382.759 245.514,-374.236 234.913,-376.007 238.966,-382.759"/>
</g>
<!-- AS1764&#45;&gt;AS2914 -->
<g id="edge15" class="edge"><title>AS1764&#45;&gt;AS2914</title>
<path fill="none" stroke="black" stroke-width="0.9" d="M158.19,-446.082C163.913,-485.711 182.154,-581.643 230.586,-644 268.232,-692.47 287.094,-702.368 345.879,-720 383.508,-731.287 398.387,-735.989 434.271,-720 460.215,-708.44 480.918,-682.914 493.878,-663.201"/>
<polygon fill="black" stroke="black" stroke-width="0.9" points="496.913,-664.951 499.279,-654.624 490.989,-661.221 496.913,-664.951"/>
</g>
<!-- AS1764&#45;&gt;AS174 -->
<g id="edge13" class="edge"><title>AS1764&#45;&gt;AS174</title>
<path fill="none" stroke="black" stroke-width="1.8" d="M160.341,-409.97C175.037,-354.385 228.273,-185.983 345.879,-129 388.625,-108.288 443.55,-128.503 477.483,-145.69"/>
<polygon fill="black" stroke="black" stroke-width="1.8" points="475.991,-148.86 486.47,-150.421 479.252,-142.666 475.991,-148.86"/>
</g>
<!-- AS1764&#45;&gt;AS3257 -->
<g id="edge18" class="edge"><title>AS1764&#45;&gt;AS3257</title>
<path fill="none" stroke="black" stroke-width="0.9" d="M163.084,-445.758C193.439,-518.722 315.597,-787.405 434.271,-697 453.944,-682.013 489.267,-520.835 503.119,-454.387"/>
<polygon fill="black" stroke="black" stroke-width="0.9" points="506.625,-454.714 505.226,-444.212 499.771,-453.294 506.625,-454.714"/>
</g>
<!-- AS8218 -->
<g id="node14" class="node"><title>AS8218</title>
<g id="a_node14"><a xlink:href="/asn/8218" xlink:title="AS8218 ~ legacy Neotelecoms [FR]">
<ellipse fill="#ffffff" stroke="black" cx="270.232" cy="-457" rx="39.7935" ry="18"/>
<text text-anchor="middle" x="270.232" y="-453.3" font-family="Times,serif" font-size="14.00" fill="#2c94b3">AS8218</text>
</a>
</g>
</g>
<!-- AS1764&#45;&gt;AS8218 -->
<g id="edge14" class="edge"><title>AS1764&#45;&gt;AS8218</title>
<path fill="none" stroke="black" stroke-width="0.9" d="M189.931,-436.701C201.134,-439.568 213.751,-442.798 225.572,-445.824"/>
<polygon fill="black" stroke="black" stroke-width="0.9" points="224.709,-449.216 235.265,-448.305 226.445,-442.435 224.709,-449.216"/>
</g>
<!-- AS3320 -->
<g id="node15" class="node"><title>AS3320</title>
<g id="a_node15"><a xlink:href="/asn/3320" xlink:title="AS3320 ~ DTAG [DE]">
<ellipse fill="#ffffff" stroke="black" cx="270.232" cy="-302" rx="39.7935" ry="18"/>
<text text-anchor="middle" x="270.232" y="-298.3" font-family="Times,serif" font-size="14.00" fill="#2c94b3">AS3320</text>
</a>
</g>
</g>
<!-- AS1764&#45;&gt;AS3320 -->
<g id="edge17" class="edge"><title>AS1764&#45;&gt;AS3320</title>
<path fill="none" stroke="black" stroke-width="4.5" d="M167.548,-410.918C181.394,-391.13 205.794,-358.042 230.586,-333 233.649,-329.906 237.013,-326.823 240.437,-323.868"/>
<polygon fill="black" stroke="black" stroke-width="4.5" points="243.23,-326.668 248.427,-317.26 238.211,-320.599 243.23,-326.668"/>
</g>
<!-- AS3356&#45;&gt;AS2914 -->
<g id="edge28" class="edge"><title>AS3356&#45;&gt;AS2914</title>
<path fill="none" stroke="black" d="M307.97,-365.975C350.27,-373.55 416.256,-387.726 434.271,-405 491.908,-460.267 505.133,-560.135 508.103,-608.806"/>
<polygon fill="black" stroke="black" points="504.614,-609.119 508.616,-618.929 511.605,-608.765 504.614,-609.119"/>
</g>
<!-- AS3356&#45;&gt;AS174 -->
<g id="edge27" class="edge"><title>AS3356&#45;&gt;AS174</title>
<path fill="none" stroke="black" d="M292.314,-345.002C298.323,-340.236 304.651,-334.709 309.879,-329 329.358,-307.726 323.714,-293.458 345.879,-275 378.739,-247.635 398.742,-260.796 434.271,-237 454.663,-223.343 474.366,-203.711 488.404,-188.246"/>
<polygon fill="black" stroke="black" points="491.178,-190.393 495.202,-180.592 485.944,-185.744 491.178,-190.393"/>
</g>
<!-- AS3356&#45;&gt;AS1239 -->
<g id="edge25" class="edge"><title>AS3356&#45;&gt;AS1239</title>
<path fill="none" stroke="black" d="M297.679,-346.984C314.09,-338.906 335.389,-328.423 353.298,-319.609"/>
<polygon fill="black" stroke="black" points="354.883,-322.73 362.309,-315.174 351.792,-316.449 354.883,-322.73"/>
</g>
<!-- AS3356&#45;&gt;AS6762 -->
<g id="edge24" class="edge"><title>AS3356&#45;&gt;AS6762</title>
<path fill="none" stroke="black" stroke-width="2" d="M294.796,-374.397C312.62,-385.287 337.293,-400.362 356.928,-412.358"/>
<polygon fill="black" stroke="black" stroke-width="2" points="355.194,-415.401 365.552,-417.628 358.843,-409.427 355.194,-415.401"/>
</g>
<!-- AS3356&#45;&gt;AS6461 -->
<g id="edge29" class="edge"><title>AS3356&#45;&gt;AS6461</title>
<path fill="none" stroke="black" d="M281.389,-377.304C289.471,-391.324 300.877,-411.686 309.879,-430 327.616,-466.086 319.648,-482.525 345.879,-513 348.331,-515.849 351.159,-518.496 354.171,-520.929"/>
<polygon fill="black" stroke="black" points="352.277,-523.878 362.442,-526.866 356.359,-518.191 352.277,-523.878"/>
</g>
<!-- AS3356&#45;&gt;AS3257 -->
<g id="edge30" class="edge"><title>AS3356&#45;&gt;AS3257</title>
<path fill="none" stroke="black" d="M309.362,-357.036C343.209,-355.736 393.477,-357.115 434.271,-372 452.687,-378.72 470.579,-391.383 484.228,-402.758"/>
<polygon fill="black" stroke="black" points="482.293,-405.711 492.145,-409.609 486.874,-400.419 482.293,-405.711"/>
</g>
<!-- AS3356&#45;&gt;AS12956 -->
<g id="edge23" class="edge"><title>AS3356&#45;&gt;AS12956</title>
<path fill="none" stroke="black" stroke-width="2" d="M281.479,-377.271C294.55,-398.316 318.739,-434.134 345.879,-459 348.501,-461.403 351.366,-463.717 354.332,-465.911"/>
<polygon fill="black" stroke="black" stroke-width="2" points="352.617,-468.979 362.842,-471.751 356.577,-463.207 352.617,-468.979"/>
</g>
<!-- AS2497 -->
<g id="node16" class="node"><title>AS2497</title>
<g id="a_node16"><a xlink:href="/asn/2497" xlink:title="AS2497 ~ Internet Initiative Japan Inc. [JP]">
<ellipse fill="#ffffff" stroke="black" cx="509.918" cy="-18" rx="39.7935" ry="18"/>
<text text-anchor="middle" x="509.918" y="-14.3" font-family="Times,serif" font-size="14.00" fill="#2c94b3">AS2497</text>
</a>
</g>
</g>
<!-- AS3356&#45;&gt;AS2497 -->
<g id="edge21" class="edge"><title>AS3356&#45;&gt;AS2497</title>
<path fill="none" stroke="black" stroke-width="2" d="M294.959,-345.692C300.733,-341.079 306.276,-335.46 309.879,-329 341.722,-271.899 299.495,-83.0767 345.879,-37 376.093,-6.98586 426.595,-5.54007 463.4,-9.53603"/>
<polygon fill="black" stroke="black" stroke-width="2" points="463.031,-13.0172 473.389,-10.7882 463.902,-6.07152 463.031,-13.0172"/>
</g>
<!-- AS3549 -->
<g id="node17" class="node"><title>AS3549</title>
<g id="a_node17"><a xlink:href="/asn/3549" xlink:title="AS3549 ~ Level 3 Parent, LLC [US]">
<ellipse fill="#ffffff" stroke="black" cx="390.075" cy="-210" rx="39.7935" ry="18"/>
<text text-anchor="middle" x="390.075" y="-206.3" font-family="Times,serif" font-size="14.00" fill="#2c94b3">AS3549</text>
</a>
</g>
</g>
<!-- AS3356&#45;&gt;AS3549 -->
<g id="edge22" class="edge"><title>AS3356&#45;&gt;AS3549</title>
<path fill="none" stroke="black" stroke-width="2" d="M293.451,-345.294C299.351,-340.61 305.337,-335.055 309.879,-329 334.988,-295.524 320.131,-274.987 345.879,-242 349.098,-237.875 352.979,-234.023 357.078,-230.521"/>
<polygon fill="black" stroke="black" stroke-width="2" points="359.389,-233.156 365.11,-224.239 355.077,-227.642 359.389,-233.156"/>
</g>
<!-- AS701 -->
<g id="node18" class="node"><title>AS701</title>
<g id="a_node18"><a xlink:href="/asn/701" xlink:title="AS701 ~ UUNET [US]">
<ellipse fill="#ffffff" stroke="black" cx="390.075" cy="-156" rx="35.194" ry="18"/>
<text text-anchor="middle" x="390.075" y="-152.3" font-family="Times,serif" font-size="14.00" fill="#2c94b3">AS701</text>
</a>
</g>
</g>
<!-- AS3356&#45;&gt;AS701 -->
<g id="edge26" class="edge"><title>AS3356&#45;&gt;AS701</title>
<path fill="none" stroke="black" d="M294.459,-345.393C300.23,-340.779 305.898,-335.235 309.879,-329 345.845,-272.671 306.67,-237.122 345.879,-183 348.389,-179.535 351.493,-176.416 354.876,-173.635"/>
<polygon fill="black" stroke="black" points="357.015,-176.409 363.131,-167.758 352.955,-170.707 357.015,-176.409"/>
</g>
<!-- AS6453&#45;&gt;AS2914 -->
<g id="edge37" class="edge"><title>AS6453&#45;&gt;AS2914</title>
<path fill="none" stroke="black" d="M405.443,-80.6957C415.304,-93.1497 427.745,-111.045 434.271,-129 483.761,-265.172 447.354,-309.938 470.271,-453 479.223,-508.883 493.777,-573.472 502.238,-609.34"/>
<polygon fill="black" stroke="black" points="498.837,-610.166 504.554,-619.086 505.647,-608.548 498.837,-610.166"/>
</g>
<!-- AS6453&#45;&gt;AS174 -->
<g id="edge41" class="edge"><title>AS6453&#45;&gt;AS174</title>
<path fill="none" stroke="black" d="M412.878,-78.7649C419.956,-83.9159 427.678,-89.9328 434.271,-96 452.115,-112.421 452.201,-120.828 470.271,-137 472.913,-139.364 475.767,-141.701 478.686,-143.953"/>
<polygon fill="black" stroke="black" points="476.827,-146.93 486.961,-150.022 480.968,-141.286 476.827,-146.93"/>
</g>
<!-- AS6453&#45;&gt;AS3257 -->
<g id="edge40" class="edge"><title>AS6453&#45;&gt;AS3257</title>
<path fill="none" stroke="black" d="M404.716,-80.9883C414.225,-93.5839 426.544,-111.528 434.271,-129 475.713,-222.708 497.063,-343.648 505.086,-397.709"/>
<polygon fill="black" stroke="black" points="501.664,-398.502 506.557,-407.9 508.592,-397.502 501.664,-398.502"/>
</g>
<!-- AS6453&#45;&gt;AS2497 -->
<g id="edge36" class="edge"><title>AS6453&#45;&gt;AS2497</title>
<path fill="none" stroke="black" d="M420.812,-52.3923C435.605,-46.6175 453.683,-39.561 469.604,-33.346"/>
<polygon fill="black" stroke="black" points="471.148,-36.5008 479.19,-29.604 468.602,-29.98 471.148,-36.5008"/>
</g>
<!-- AS3491 -->
<g id="node19" class="node"><title>AS3491</title>
<g id="a_node19"><a xlink:href="/asn/3491" xlink:title="AS3491 ~ PCCW Global, Inc. [US]">
<ellipse fill="#ffffff" stroke="black" cx="625.21" cy="-114" rx="39.7935" ry="18"/>
<text text-anchor="middle" x="625.21" y="-110.3" font-family="Times,serif" font-size="14.00" fill="#2c94b3">AS3491</text>
</a>
</g>
</g>
<!-- AS6453&#45;&gt;AS3491 -->
<g id="edge38" class="edge"><title>AS6453&#45;&gt;AS3491</title>
<path fill="none" stroke="black" d="M429.734,-65.6725C462.17,-67.7762 509.489,-72.4907 549.564,-83 562.524,-86.3985 576.2,-91.574 588.255,-96.7283"/>
<polygon fill="black" stroke="black" points="586.969,-99.9865 597.531,-100.823 589.796,-93.5827 586.969,-99.9865"/>
</g>
<!-- AS5511 -->
<g id="node20" class="node"><title>AS5511</title>
<g id="a_node20"><a xlink:href="/asn/5511" xlink:title="AS5511 ~ Orange S.A. [FR]">
<ellipse fill="#ffffff" stroke="black" cx="509.918" cy="-110" rx="39.7935" ry="18"/>
<text text-anchor="middle" x="509.918" y="-106.3" font-family="Times,serif" font-size="14.00" fill="#2c94b3">AS5511</text>
</a>
</g>
</g>
<!-- AS6453&#45;&gt;AS5511 -->
<g id="edge39" class="edge"><title>AS6453&#45;&gt;AS5511</title>
<path fill="none" stroke="black" d="M420.812,-75.6077C435.605,-81.3825 453.683,-88.439 469.604,-94.654"/>
<polygon fill="black" stroke="black" points="468.602,-98.02 479.19,-98.396 471.148,-91.4992 468.602,-98.02"/>
</g>
<!-- AS174&#45;&gt;AS3491 -->
<g id="edge35" class="edge"><title>AS174&#45;&gt;AS3491</title>
<path fill="none" stroke="black" d="M537.194,-152.403C551.948,-145.892 570.603,-137.659 586.854,-130.487"/>
<polygon fill="black" stroke="black" points="588.361,-133.647 596.096,-126.408 585.535,-127.243 588.361,-133.647"/>
</g>
<!-- AS8218&#45;&gt;AS6461 -->
<g id="edge20" class="edge"><title>AS8218&#45;&gt;AS6461</title>
<path fill="none" stroke="black" d="M291.773,-472.426C313.628,-488.837 345.182,-512.522 345.879,-513 349.407,-515.42 353.144,-517.889 356.886,-520.303"/>
<polygon fill="black" stroke="black" points="355.207,-523.383 365.526,-525.785 358.957,-517.472 355.207,-523.383"/>
</g>
<!-- AS3320&#45;&gt;AS6453 -->
<g id="edge31" class="edge"><title>AS3320&#45;&gt;AS6453</title>
<path fill="none" stroke="black" d="M277.744,-284.074C289.623,-252.104 316.327,-183.49 345.879,-129 353.188,-115.523 362.475,-101.26 370.564,-89.5396"/>
<polygon fill="black" stroke="black" points="373.587,-91.3246 376.463,-81.1276 367.856,-87.3055 373.587,-91.3246"/>
</g>
<!-- AS3320&#45;&gt;AS1239 -->
<g id="edge32" class="edge"><title>AS3320&#45;&gt;AS1239</title>
<path fill="none" stroke="black" d="M310.145,-302C319.698,-302 330.048,-302 340.011,-302"/>
<polygon fill="black" stroke="black" points="340.203,-305.5 350.203,-302 340.203,-298.5 340.203,-305.5"/>
</g>
<!-- AS3320&#45;&gt;AS6762 -->
<g id="edge33" class="edge"><title>AS3320&#45;&gt;AS6762</title>
<path fill="none" stroke="black" d="M292.008,-317.29C298.008,-322.065 304.409,-327.523 309.879,-333 333.014,-356.166 356.002,-385.836 371.203,-406.629"/>
<polygon fill="black" stroke="black" points="368.525,-408.898 377.219,-414.953 374.198,-404.798 368.525,-408.898"/>
</g>
<!-- AS3320&#45;&gt;AS701 -->
<g id="edge34" class="edge"><title>AS3320&#45;&gt;AS701</title>
<path fill="none" stroke="black" d="M279.243,-284.132C291.07,-259.222 315.158,-213.671 345.879,-183 349.063,-179.821 352.687,-176.839 356.451,-174.102"/>
<polygon fill="black" stroke="black" points="358.433,-176.987 364.798,-168.518 354.54,-171.169 358.433,-176.987"/>
</g>
</g>
</svg>
