<?xml version="1.0" encoding="UTF-8" standalone="no"?>
<!DOCTYPE svg PUBLIC "-//W3C//DTD SVG 1.1//EN"
 "http://www.w3.org/Graphics/SVG/1.1/DTD/svg11.dtd">
<!-- Generated by graphviz version 2.38.0 (20140413.2041)
 -->
<!-- Title: AS42857 Combined Upstream Graph Pages: 1 -->
<svg width="567pt" height="584pt"
 viewBox="0.00 0.00 566.66 584.00" xmlns="http://www.w3.org/2000/svg" xmlns:xlink="http://www.w3.org/1999/xlink">
<g id="graph0" class="graph" transform="scale(1 1) rotate(0) translate(4 580)">
<title>AS42857 Combined Upstream Graph</title>
<polygon fill="white" stroke="none" points="-4,4 -4,-580 562.663,-580 562.663,4 -4,4"/>
<!-- AS42857 -->
<g id="node1" class="node"><title>AS42857</title>
<g id="a_node1"><a xlink:href="/asn/42857" xlink:title="AS42857 ~ Theo Voss [AT]">
<ellipse fill="#ffffff" stroke="black" cx="44.1961" cy="-369" rx="44.393" ry="18"/>
<text text-anchor="middle" x="44.1961" y="-365.3" font-family="Times,serif" font-size="14.00" fill="#880000">AS42857</text>
</a>
</g>
</g>
<!-- AS47147 -->
<g id="node2" class="node"><title>AS47147</title>
<g id="a_node2"><a xlink:href="/asn/47147" xlink:title="AS47147 ~ ANEXIA Internetdienstleistungs GmbH [AT]">
<ellipse fill="#ffffff" stroke="black" cx="168.588" cy="-369" rx="44.393" ry="18"/>
<text text-anchor="middle" x="168.588" y="-365.3" font-family="Times,serif" font-size="14.00" fill="#2c94b3">AS47147</text>
</a>
</g>
</g>
<!-- AS42857&#45;&gt;AS47147 -->
<g id="edge1" class="edge"><title>AS42857&#45;&gt;AS47147</title>
<path fill="none" stroke="black" stroke-width="4.5" d="M88.6916,-369C96.898,-369 105.569,-369 114.041,-369"/>
<polygon fill="black" stroke="black" stroke-width="4.5" points="114.233,-372.938 124.233,-369 114.233,-365.063 114.233,-372.938"/>
</g>
<!-- AS6461 -->
<g id="node3" class="node"><title>AS6461</title>
<g id="a_node3"><a xlink:href="/asn/6461" xlink:title="AS6461 ~ Zayo Bandwidth [US]">
<ellipse fill="#ffffff" stroke="black" cx="288.431" cy="-450" rx="39.7935" ry="18"/>
<text text-anchor="middle" x="288.431" y="-446.3" font-family="Times,serif" font-size="14.00" fill="#2c94b3">AS6461</text>
</a>
</g>
</g>
<!-- AS47147&#45;&gt;AS6461 -->
<g id="edge2" class="edge"><title>AS47147&#45;&gt;AS6461</title>
<path fill="none" stroke="black" stroke-width="0.3" d="M192.031,-384.426C210.612,-397.198 237.173,-415.455 257.553,-429.463"/>
<polygon fill="black" stroke="black" stroke-width="0.3" points="255.643,-432.398 265.867,-435.178 259.609,-426.629 255.643,-432.398"/>
</g>
<!-- AS1299 -->
<g id="node4" class="node"><title>AS1299</title>
<g id="a_node4"><a xlink:href="/asn/1299" xlink:title="AS1299 ~ Telia Carrier [EU]">
<ellipse fill="#ffffff" stroke="black" cx="288.431" cy="-396" rx="39.7935" ry="18"/>
<text text-anchor="middle" x="288.431" y="-392.3" font-family="Times,serif" font-size="14.00" fill="#2c94b3">AS1299</text>
</a>
</g>
</g>
<!-- AS47147&#45;&gt;AS1299 -->
<g id="edge3" class="edge"><title>AS47147&#45;&gt;AS1299</title>
<path fill="none" stroke="black" stroke-width="3.6" d="M207.523,-377.692C218.764,-380.267 231.176,-383.111 242.799,-385.774"/>
<polygon fill="black" stroke="black" stroke-width="3.6" points="242.232,-389.235 252.761,-388.057 243.795,-382.412 242.232,-389.235"/>
</g>
<!-- AS3320 -->
<g id="node5" class="node"><title>AS3320</title>
<g id="a_node5"><a xlink:href="/asn/3320" xlink:title="AS3320 ~ DTAG [DE]">
<ellipse fill="#ffffff" stroke="black" cx="288.431" cy="-153" rx="39.7935" ry="18"/>
<text text-anchor="middle" x="288.431" y="-149.3" font-family="Times,serif" font-size="14.00" fill="#2c94b3">AS3320</text>
</a>
</g>
</g>
<!-- AS47147&#45;&gt;AS3320 -->
<g id="edge4" class="edge"><title>AS47147&#45;&gt;AS3320</title>
<path fill="none" stroke="black" stroke-width="3" d="M179.232,-351.324C199.913,-313.416 248.626,-224.127 273.005,-179.441"/>
<polygon fill="black" stroke="black" stroke-width="3" points="276.102,-181.072 277.819,-170.617 269.957,-177.72 276.102,-181.072"/>
</g>
<!-- AS2914 -->
<g id="node6" class="node"><title>AS2914</title>
<g id="a_node6"><a xlink:href="/asn/2914" xlink:title="AS2914 ~ NTT America, Inc. [US]">
<ellipse fill="#ffffff" stroke="black" cx="288.431" cy="-342" rx="39.7935" ry="18"/>
<text text-anchor="middle" x="288.431" y="-338.3" font-family="Times,serif" font-size="14.00" fill="#2c94b3">AS2914</text>
</a>
</g>
</g>
<!-- AS47147&#45;&gt;AS2914 -->
<g id="edge5" class="edge"><title>AS47147&#45;&gt;AS2914</title>
<path fill="none" stroke="black" stroke-width="4.5" d="M207.523,-360.308C218.764,-357.733 231.176,-354.889 242.799,-352.226"/>
<polygon fill="black" stroke="black" stroke-width="4.5" points="243.893,-356.015 252.761,-349.943 242.134,-348.339 243.893,-356.015"/>
</g>
<!-- AS3257 -->
<g id="node7" class="node"><title>AS3257</title>
<g id="a_node7"><a xlink:href="/asn/3257" xlink:title="AS3257 ~ GTT [DE]">
<ellipse fill="#ffffff" stroke="black" cx="403.724" cy="-504" rx="39.7935" ry="18"/>
<text text-anchor="middle" x="403.724" y="-500.3" font-family="Times,serif" font-size="14.00" fill="#2c94b3">AS3257</text>
</a>
</g>
</g>
<!-- AS1299&#45;&gt;AS3257 -->
<g id="edge6" class="edge"><title>AS1299&#45;&gt;AS3257</title>
<path fill="none" stroke="black" stroke-width="2" d="M313.025,-410.389C318.281,-414.148 323.613,-418.437 328.077,-423 348.25,-443.617 343.905,-456.383 364.077,-477 366.17,-479.139 368.453,-481.218 370.83,-483.21"/>
<polygon fill="black" stroke="black" stroke-width="2" points="369.074,-486.275 379.13,-489.611 373.349,-480.732 369.074,-486.275"/>
</g>
<!-- AS2497 -->
<g id="node8" class="node"><title>AS2497</title>
<g id="a_node8"><a xlink:href="/asn/2497" xlink:title="AS2497 ~ Internet Initiative Japan Inc. [JP]">
<ellipse fill="#ffffff" stroke="black" cx="403.724" cy="-396" rx="39.7935" ry="18"/>
<text text-anchor="middle" x="403.724" y="-392.3" font-family="Times,serif" font-size="14.00" fill="#2c94b3">AS2497</text>
</a>
</g>
</g>
<!-- AS1299&#45;&gt;AS2497 -->
<g id="edge7" class="edge"><title>AS1299&#45;&gt;AS2497</title>
<path fill="none" stroke="black" d="M328.103,-396C336.306,-396 345.07,-396 353.602,-396"/>
<polygon fill="black" stroke="black" points="353.841,-399.5 363.841,-396 353.841,-392.5 353.841,-399.5"/>
</g>
<!-- AS7018 -->
<g id="node9" class="node"><title>AS7018</title>
<g id="a_node9"><a xlink:href="/asn/7018" xlink:title="AS7018 ~ AT&amp;T Services, Inc. [US]">
<ellipse fill="#ffffff" stroke="black" cx="403.724" cy="-558" rx="39.7935" ry="18"/>
<text text-anchor="middle" x="403.724" y="-554.3" font-family="Times,serif" font-size="14.00" fill="#2c94b3">AS7018</text>
</a>
</g>
</g>
<!-- AS1299&#45;&gt;AS7018 -->
<g id="edge8" class="edge"><title>AS1299&#45;&gt;AS7018</title>
<path fill="none" stroke="black" stroke-width="2" d="M314.362,-409.882C319.438,-413.611 324.356,-418.016 328.077,-423 358.349,-463.542 333.806,-490.458 364.077,-531 365.822,-533.336 367.829,-535.545 369.992,-537.617"/>
<polygon fill="black" stroke="black" stroke-width="2" points="367.87,-540.405 377.793,-544.118 372.352,-535.027 367.87,-540.405"/>
</g>
<!-- AS3356 -->
<g id="node10" class="node"><title>AS3356</title>
<g id="a_node10"><a xlink:href="/asn/3356" xlink:title="AS3356 ~ Level 3 Parent, LLC [US]">
<ellipse fill="#ffffff" stroke="black" cx="403.724" cy="-342" rx="39.7935" ry="18"/>
<text text-anchor="middle" x="403.724" y="-338.3" font-family="Times,serif" font-size="14.00" fill="#2c94b3">AS3356</text>
</a>
</g>
</g>
<!-- AS1299&#45;&gt;AS3356 -->
<g id="edge9" class="edge"><title>AS1299&#45;&gt;AS3356</title>
<path fill="none" stroke="black" stroke-width="3" d="M316.567,-383.066C331.561,-375.919 350.382,-366.948 366.605,-359.215"/>
<polygon fill="black" stroke="black" stroke-width="3" points="368.288,-362.291 375.809,-354.829 365.276,-355.972 368.288,-362.291"/>
</g>
<!-- AS174 -->
<g id="node11" class="node"><title>AS174</title>
<g id="a_node11"><a xlink:href="/asn/174" xlink:title="AS174 ~ Cogent Communications [US]">
<ellipse fill="#ffffff" stroke="black" cx="403.724" cy="-450" rx="35.194" ry="18"/>
<text text-anchor="middle" x="403.724" y="-446.3" font-family="Times,serif" font-size="14.00" fill="#2c94b3">AS174</text>
</a>
</g>
</g>
<!-- AS1299&#45;&gt;AS174 -->
<g id="edge10" class="edge"><title>AS1299&#45;&gt;AS174</title>
<path fill="none" stroke="black" stroke-width="2" d="M316.567,-408.934C331.999,-416.29 351.485,-425.577 368.02,-433.459"/>
<polygon fill="black" stroke="black" stroke-width="2" points="366.828,-436.768 377.361,-437.911 369.84,-430.449 366.828,-436.768"/>
</g>
<!-- AS3320&#45;&gt;AS3356 -->
<g id="edge15" class="edge"><title>AS3320&#45;&gt;AS3356</title>
<path fill="none" stroke="black" d="M294.305,-171.002C303.619,-202.844 326.435,-269.981 364.077,-315 365.948,-317.237 368.046,-319.374 370.272,-321.396"/>
<polygon fill="black" stroke="black" points="368.216,-324.234 378.191,-327.804 372.619,-318.793 368.216,-324.234"/>
</g>
<!-- AS6762 -->
<g id="node12" class="node"><title>AS6762</title>
<g id="a_node12"><a xlink:href="/asn/6762" xlink:title="AS6762 ~ TELECOM ITALIA SPARKLE S.p.A. [IT]">
<ellipse fill="#ffffff" stroke="black" cx="403.724" cy="-180" rx="39.7935" ry="18"/>
<text text-anchor="middle" x="403.724" y="-176.3" font-family="Times,serif" font-size="14.00" fill="#2c94b3">AS6762</text>
</a>
</g>
</g>
<!-- AS3320&#45;&gt;AS6762 -->
<g id="edge11" class="edge"><title>AS3320&#45;&gt;AS6762</title>
<path fill="none" stroke="black" stroke-width="2" d="M324.038,-161.248C334.909,-163.838 347.064,-166.735 358.506,-169.462"/>
<polygon fill="black" stroke="black" stroke-width="2" points="357.789,-172.889 368.328,-171.803 359.412,-166.08 357.789,-172.889"/>
</g>
<!-- AS6453 -->
<g id="node13" class="node"><title>AS6453</title>
<g id="a_node13"><a xlink:href="/asn/6453" xlink:title="AS6453 ~ TATA COMMUNICATIONS (AMERICA) INC [US]">
<ellipse fill="#ffffff" stroke="black" cx="403.724" cy="-126" rx="39.7935" ry="18"/>
<text text-anchor="middle" x="403.724" y="-122.3" font-family="Times,serif" font-size="14.00" fill="#2c94b3">AS6453</text>
</a>
</g>
</g>
<!-- AS3320&#45;&gt;AS6453 -->
<g id="edge12" class="edge"><title>AS3320&#45;&gt;AS6453</title>
<path fill="none" stroke="black" stroke-width="2" d="M324.038,-144.752C334.909,-142.162 347.064,-139.265 358.506,-136.538"/>
<polygon fill="black" stroke="black" stroke-width="2" points="359.412,-139.92 368.328,-134.197 357.789,-133.111 359.412,-139.92"/>
</g>
<!-- AS1239 -->
<g id="node14" class="node"><title>AS1239</title>
<g id="a_node14"><a xlink:href="/asn/1239" xlink:title="AS1239 ~ Sprint [US]">
<ellipse fill="#ffffff" stroke="black" cx="403.724" cy="-72" rx="39.7935" ry="18"/>
<text text-anchor="middle" x="403.724" y="-68.3" font-family="Times,serif" font-size="14.00" fill="#2c94b3">AS1239</text>
</a>
</g>
</g>
<!-- AS3320&#45;&gt;AS1239 -->
<g id="edge13" class="edge"><title>AS3320&#45;&gt;AS1239</title>
<path fill="none" stroke="black" d="M310.279,-137.778C325.213,-126.909 345.827,-111.975 364.077,-99 366.898,-96.9948 369.841,-94.9154 372.789,-92.8411"/>
<polygon fill="black" stroke="black" points="374.835,-95.6812 381.013,-87.0744 370.816,-89.9497 374.835,-95.6812"/>
</g>
<!-- AS701 -->
<g id="node15" class="node"><title>AS701</title>
<g id="a_node15"><a xlink:href="/asn/701" xlink:title="AS701 ~ UUNET [US]">
<ellipse fill="#ffffff" stroke="black" cx="403.724" cy="-18" rx="35.194" ry="18"/>
<text text-anchor="middle" x="403.724" y="-14.3" font-family="Times,serif" font-size="14.00" fill="#2c94b3">AS701</text>
</a>
</g>
</g>
<!-- AS3320&#45;&gt;AS701 -->
<g id="edge14" class="edge"><title>AS3320&#45;&gt;AS701</title>
<path fill="none" stroke="black" stroke-width="2" d="M298.891,-135.51C311.672,-112.904 336.105,-73.114 364.077,-45 366.578,-42.487 369.338,-40.0515 372.199,-37.7391"/>
<polygon fill="black" stroke="black" stroke-width="2" points="374.5,-40.3888 380.396,-31.5866 370.298,-34.7903 374.5,-40.3888"/>
</g>
<!-- AS2914&#45;&gt;AS2497 -->
<g id="edge20" class="edge"><title>AS2914&#45;&gt;AS2497</title>
<path fill="none" stroke="black" stroke-width="2" d="M316.567,-354.934C331.561,-362.081 350.382,-371.052 366.605,-378.785"/>
<polygon fill="black" stroke="black" stroke-width="2" points="365.276,-382.028 375.809,-383.171 368.288,-375.709 365.276,-382.028"/>
</g>
<!-- AS2914&#45;&gt;AS3356 -->
<g id="edge17" class="edge"><title>AS2914&#45;&gt;AS3356</title>
<path fill="none" stroke="black" stroke-width="4" d="M328.103,-342C336.306,-342 345.07,-342 353.602,-342"/>
<polygon fill="black" stroke="black" stroke-width="4" points="353.841,-345.5 363.841,-342 353.841,-338.5 353.841,-345.5"/>
</g>
<!-- AS2914&#45;&gt;AS174 -->
<g id="edge18" class="edge"><title>AS2914&#45;&gt;AS174</title>
<path fill="none" stroke="black" stroke-width="2" d="M313.025,-356.389C318.281,-360.148 323.613,-364.437 328.077,-369 348.25,-389.617 343.905,-402.383 364.077,-423 366.556,-425.534 369.303,-427.983 372.156,-430.304"/>
<polygon fill="black" stroke="black" stroke-width="2" points="370.247,-433.248 380.341,-436.468 374.458,-427.657 370.247,-433.248"/>
</g>
<!-- AS2914&#45;&gt;AS6762 -->
<g id="edge19" class="edge"><title>AS2914&#45;&gt;AS6762</title>
<path fill="none" stroke="black" stroke-width="2" d="M296.179,-324.213C307.23,-296.757 331.283,-243.422 364.077,-207 366.08,-204.776 368.298,-202.637 370.631,-200.603"/>
<polygon fill="black" stroke="black" stroke-width="2" points="373.161,-203.065 378.85,-194.127 368.829,-197.567 373.161,-203.065"/>
</g>
<!-- AS3491 -->
<g id="node16" class="node"><title>AS3491</title>
<g id="a_node16"><a xlink:href="/asn/3491" xlink:title="AS3491 ~ PCCW Global, Inc. [US]">
<ellipse fill="#ffffff" stroke="black" cx="403.724" cy="-288" rx="39.7935" ry="18"/>
<text text-anchor="middle" x="403.724" y="-284.3" font-family="Times,serif" font-size="14.00" fill="#2c94b3">AS3491</text>
</a>
</g>
</g>
<!-- AS2914&#45;&gt;AS3491 -->
<g id="edge16" class="edge"><title>AS2914&#45;&gt;AS3491</title>
<path fill="none" stroke="black" stroke-width="2" d="M316.567,-329.066C331.561,-321.919 350.382,-312.948 366.605,-305.215"/>
<polygon fill="black" stroke="black" stroke-width="2" points="368.288,-308.291 375.809,-300.829 365.276,-301.972 368.288,-308.291"/>
</g>
<!-- AS1273 -->
<g id="node17" class="node"><title>AS1273</title>
<g id="a_node17"><a xlink:href="/asn/1273" xlink:title="AS1273 ~ Vodafone Group PLC [EU]">
<ellipse fill="#ffffff" stroke="black" cx="403.724" cy="-234" rx="39.7935" ry="18"/>
<text text-anchor="middle" x="403.724" y="-230.3" font-family="Times,serif" font-size="14.00" fill="#2c94b3">AS1273</text>
</a>
</g>
</g>
<!-- AS2914&#45;&gt;AS1273 -->
<g id="edge21" class="edge"><title>AS2914&#45;&gt;AS1273</title>
<path fill="none" stroke="black" d="M303.061,-325.183C317.343,-308.071 340.89,-281.255 364.077,-261 366.543,-258.846 369.182,-256.706 371.879,-254.628"/>
<polygon fill="black" stroke="black" points="374.052,-257.375 380.033,-248.63 369.904,-251.736 374.052,-257.375"/>
</g>
<!-- AS209 -->
<g id="node18" class="node"><title>AS209</title>
<g id="a_node18"><a xlink:href="/asn/209" xlink:title="AS209 ~ CenturyLink Communications, LLC [US]">
<ellipse fill="#ffffff" stroke="black" cx="519.017" cy="-369" rx="35.194" ry="18"/>
<text text-anchor="middle" x="519.017" y="-365.3" font-family="Times,serif" font-size="14.00" fill="#2c94b3">AS209</text>
</a>
</g>
</g>
<!-- AS3356&#45;&gt;AS209 -->
<g id="edge22" class="edge"><title>AS3356&#45;&gt;AS209</title>
<path fill="none" stroke="black" stroke-width="2" d="M439.331,-350.248C451.125,-353.058 464.43,-356.229 476.698,-359.153"/>
<polygon fill="black" stroke="black" stroke-width="2" points="476.164,-362.624 486.703,-361.537 477.787,-355.814 476.164,-362.624"/>
</g>
<!-- AS3549 -->
<g id="node19" class="node"><title>AS3549</title>
<g id="a_node19"><a xlink:href="/asn/3549" xlink:title="AS3549 ~ Level 3 Parent, LLC [US]">
<ellipse fill="#ffffff" stroke="black" cx="519.017" cy="-315" rx="39.7935" ry="18"/>
<text text-anchor="middle" x="519.017" y="-311.3" font-family="Times,serif" font-size="14.00" fill="#2c94b3">AS3549</text>
</a>
</g>
</g>
<!-- AS3356&#45;&gt;AS3549 -->
<g id="edge23" class="edge"><title>AS3356&#45;&gt;AS3549</title>
<path fill="none" stroke="black" stroke-width="3" d="M439.331,-333.752C450.202,-331.162 462.357,-328.265 473.799,-325.538"/>
<polygon fill="black" stroke="black" stroke-width="3" points="474.705,-328.92 483.621,-323.197 473.082,-322.111 474.705,-328.92"/>
</g>
</g>
</svg>
