<?xml version="1.0" encoding="UTF-8" standalone="no"?>
<!DOCTYPE svg PUBLIC "-//W3C//DTD SVG 1.1//EN"
 "http://www.w3.org/Graphics/SVG/1.1/DTD/svg11.dtd">
<!-- Generated by graphviz version 2.38.0 (20140413.2041)
 -->
<!-- Title: AS1111 Combined Upstream Graph Pages: 1 -->
<svg width="691pt" height="660pt"
 viewBox="0.00 0.00 691.06 659.71" xmlns="http://www.w3.org/2000/svg" xmlns:xlink="http://www.w3.org/1999/xlink">
<g id="graph0" class="graph" transform="scale(1 1) rotate(0) translate(4 655.712)">
<title>AS1111 Combined Upstream Graph</title>
<polygon fill="white" stroke="none" points="-4,4 -4,-655.712 687.055,-655.712 687.055,4 -4,4"/>
<!-- AS1111 -->
<g id="node1" class="node"><title>AS1111</title>
<g id="a_node1"><a xlink:href="/asn/1111" xlink:title="AS1111 ~ University of Klagenfurt [AT]">
<ellipse fill="#ffffff" stroke="black" cx="39.6465" cy="-313" rx="39.7935" ry="18"/>
<text text-anchor="middle" x="39.6465" y="-309.3" font-family="Times,serif" font-size="14.00" fill="#880000">AS1111</text>
</a>
</g>
</g>
<!-- AS1853 -->
<g id="node2" class="node"><title>AS1853</title>
<g id="a_node2"><a xlink:href="/asn/1853" xlink:title="AS1853 ~ ACOnet Backbone [AT]">
<ellipse fill="#ffffff" stroke="black" cx="159.489" cy="-340" rx="39.7935" ry="18"/>
<text text-anchor="middle" x="159.489" y="-336.3" font-family="Times,serif" font-size="14.00" fill="#2c94b3">AS1853</text>
</a>
</g>
</g>
<!-- AS1111&#45;&gt;AS1853 -->
<g id="edge1" class="edge"><title>AS1111&#45;&gt;AS1853</title>
<path fill="none" stroke="black" stroke-width="4.5" d="M75.3658,-320.955C87.3657,-323.704 100.987,-326.825 113.679,-329.733"/>
<polygon fill="black" stroke="black" stroke-width="4.5" points="112.984,-333.613 123.611,-332.009 114.743,-325.937 112.984,-333.613"/>
</g>
<!-- AS39912 -->
<g id="node3" class="node"><title>AS39912</title>
<g id="a_node3"><a xlink:href="/asn/39912" xlink:title="AS39912 ~ oja.at GmbH [AT]">
<ellipse fill="#ffffff" stroke="black" cx="159.489" cy="-286" rx="44.393" ry="18"/>
<text text-anchor="middle" x="159.489" y="-282.3" font-family="Times,serif" font-size="14.00" fill="#2c94b3">AS39912</text>
</a>
</g>
</g>
<!-- AS1111&#45;&gt;AS39912 -->
<g id="edge2" class="edge"><title>AS1111&#45;&gt;AS39912</title>
<path fill="none" stroke="black" stroke-width="1.95652" d="M75.3658,-305.045C86.5043,-302.493 99.0394,-299.621 110.932,-296.896"/>
<polygon fill="black" stroke="black" stroke-width="1.95652" points="111.761,-300.297 120.727,-294.652 110.198,-293.474 111.761,-300.297"/>
</g>
<!-- AS3356 -->
<g id="node4" class="node"><title>AS3356</title>
<g id="a_node4"><a xlink:href="/asn/3356" xlink:title="AS3356 ~ Level 3 Parent, LLC [US]">
<ellipse fill="#ffffff" stroke="black" cx="403.724" cy="-180" rx="39.7935" ry="18"/>
<text text-anchor="middle" x="403.724" y="-176.3" font-family="Times,serif" font-size="14.00" fill="#2c94b3">AS3356</text>
</a>
</g>
</g>
<!-- AS1853&#45;&gt;AS3356 -->
<g id="edge3" class="edge"><title>AS1853&#45;&gt;AS3356</title>
<path fill="none" stroke="black" stroke-width="1.60714" d="M186.018,-326.538C192.181,-322.638 198.483,-318.052 203.685,-313 224.378,-292.906 217.943,-277.954 239.685,-259 275.443,-227.827 325.656,-205.965 360.882,-193.262"/>
<polygon fill="black" stroke="black" stroke-width="1.60714" points="362.119,-196.537 370.395,-189.922 359.801,-189.933 362.119,-196.537"/>
</g>
<!-- AS1764 -->
<g id="node5" class="node"><title>AS1764</title>
<g id="a_node5"><a xlink:href="/asn/1764" xlink:title="AS1764 ~ NEXTLAYER&#45;AS [AT]">
<ellipse fill="#ffffff" stroke="black" cx="283.881" cy="-396" rx="39.7935" ry="18"/>
<text text-anchor="middle" x="283.881" y="-392.3" font-family="Times,serif" font-size="14.00" fill="#2c94b3">AS1764</text>
</a>
</g>
</g>
<!-- AS1853&#45;&gt;AS1764 -->
<g id="edge4" class="edge"><title>AS1853&#45;&gt;AS1764</title>
<path fill="none" stroke="black" stroke-width="4.5" d="M187.956,-352.567C205.079,-360.402 227.326,-370.581 245.978,-379.115"/>
<polygon fill="black" stroke="black" stroke-width="4.5" points="244.351,-382.701 255.082,-383.281 247.627,-375.539 244.351,-382.701"/>
</g>
<!-- AS21320 -->
<g id="node6" class="node"><title>AS21320</title>
<g id="a_node6"><a xlink:href="/asn/21320" xlink:title="AS21320 ~ GEANT Vereniging [EU]">
<ellipse fill="#ffffff" stroke="black" cx="283.881" cy="-341" rx="44.393" ry="18"/>
<text text-anchor="middle" x="283.881" y="-337.3" font-family="Times,serif" font-size="14.00" fill="#2c94b3">AS21320</text>
</a>
</g>
</g>
<!-- AS1853&#45;&gt;AS21320 -->
<g id="edge5" class="edge"><title>AS1853&#45;&gt;AS21320</title>
<path fill="none" stroke="black" stroke-width="1.28571" d="M199.215,-340.316C208.675,-340.394 218.967,-340.478 228.993,-340.56"/>
<polygon fill="black" stroke="black" stroke-width="1.28571" points="229.271,-344.062 239.299,-340.644 229.328,-337.062 229.271,-344.062"/>
</g>
<!-- AS6939 -->
<g id="node23" class="node"><title>AS6939</title>
<g id="a_node23"><a xlink:href="/asn/6939" xlink:title="AS6939 ~ Hurricane Electric LLC [US]">
<ellipse fill="#ffffff" stroke="black" cx="403.724" cy="-234" rx="39.7935" ry="18"/>
<text text-anchor="middle" x="403.724" y="-230.3" font-family="Times,serif" font-size="14.00" fill="#2c94b3">AS6939</text>
</a>
</g>
</g>
<!-- AS39912&#45;&gt;AS6939 -->
<g id="edge29" class="edge"><title>AS39912&#45;&gt;AS6939</title>
<path fill="none" stroke="black" stroke-width="4.5" d="M192.092,-273.796C206.443,-268.626 223.742,-262.908 239.685,-259 277.832,-249.65 321.903,-243.143 354.6,-239.116"/>
<polygon fill="black" stroke="black" stroke-width="4.5" points="355.334,-242.994 364.794,-237.895 354.397,-235.175 355.334,-242.994"/>
</g>
<!-- AS33891 -->
<g id="node24" class="node"><title>AS33891</title>
<g id="a_node24"><a xlink:href="/asn/33891" xlink:title="AS33891 ~ CORE&#45;BACKBONE GMBH GLOBAL NETWORK [DE]">
<ellipse fill="#ffffff" stroke="black" cx="283.881" cy="-286" rx="44.393" ry="18"/>
<text text-anchor="middle" x="283.881" y="-282.3" font-family="Times,serif" font-size="14.00" fill="#2c94b3">AS33891</text>
</a>
</g>
</g>
<!-- AS39912&#45;&gt;AS33891 -->
<g id="edge30" class="edge"><title>AS39912&#45;&gt;AS33891</title>
<path fill="none" stroke="black" stroke-width="3" d="M203.985,-286C212.191,-286 220.862,-286 229.334,-286"/>
<polygon fill="black" stroke="black" stroke-width="3" points="229.526,-289.5 239.526,-286 229.526,-282.5 229.526,-289.5"/>
</g>
<!-- AS6762 -->
<g id="node7" class="node"><title>AS6762</title>
<g id="a_node7"><a xlink:href="/asn/6762" xlink:title="AS6762 ~ TELECOM ITALIA SPARKLE S.p.A. [IT]">
<ellipse fill="#ffffff" stroke="black" cx="523.566" cy="-288" rx="39.7935" ry="18"/>
<text text-anchor="middle" x="523.566" y="-284.3" font-family="Times,serif" font-size="14.00" fill="#2c94b3">AS6762</text>
</a>
</g>
</g>
<!-- AS3356&#45;&gt;AS6762 -->
<g id="edge6" class="edge"><title>AS3356&#45;&gt;AS6762</title>
<path fill="none" stroke="black" d="M428.318,-194.389C433.574,-198.148 438.906,-202.437 443.37,-207 463.543,-227.617 458.677,-240.906 479.37,-261 482.215,-263.763 485.389,-266.386 488.689,-268.834"/>
<polygon fill="black" stroke="black" points="486.806,-271.786 497.037,-274.538 490.755,-266.006 486.806,-271.786"/>
</g>
<!-- AS2497 -->
<g id="node8" class="node"><title>AS2497</title>
<g id="a_node8"><a xlink:href="/asn/2497" xlink:title="AS2497 ~ Internet Initiative Japan Inc. [JP]">
<ellipse fill="#ffffff" stroke="black" cx="523.566" cy="-234" rx="39.7935" ry="18"/>
<text text-anchor="middle" x="523.566" y="-230.3" font-family="Times,serif" font-size="14.00" fill="#2c94b3">AS2497</text>
</a>
</g>
</g>
<!-- AS3356&#45;&gt;AS2497 -->
<g id="edge7" class="edge"><title>AS3356&#45;&gt;AS2497</title>
<path fill="none" stroke="black" d="M432.353,-192.661C448.31,-199.973 468.58,-209.261 485.863,-217.181"/>
<polygon fill="black" stroke="black" points="484.562,-220.435 495.111,-221.419 487.478,-214.071 484.562,-220.435"/>
</g>
<!-- AS3549 -->
<g id="node9" class="node"><title>AS3549</title>
<g id="a_node9"><a xlink:href="/asn/3549" xlink:title="AS3549 ~ Level 3 Parent, LLC [US]">
<ellipse fill="#ffffff" stroke="black" cx="523.566" cy="-18" rx="39.7935" ry="18"/>
<text text-anchor="middle" x="523.566" y="-14.3" font-family="Times,serif" font-size="14.00" fill="#2c94b3">AS3549</text>
</a>
</g>
</g>
<!-- AS3356&#45;&gt;AS3549 -->
<g id="edge8" class="edge"><title>AS3356&#45;&gt;AS3549</title>
<path fill="none" stroke="black" d="M411.247,-162.006C421.997,-134.272 445.655,-80.5711 479.37,-45 481.956,-42.2721 484.874,-39.7057 487.942,-37.3226"/>
<polygon fill="black" stroke="black" points="490.12,-40.0695 496.29,-31.4566 486.096,-34.342 490.12,-40.0695"/>
</g>
<!-- AS6453 -->
<g id="node10" class="node"><title>AS6453</title>
<g id="a_node10"><a xlink:href="/asn/6453" xlink:title="AS6453 ~ TATA COMMUNICATIONS (AMERICA) INC [US]">
<ellipse fill="#ffffff" stroke="black" cx="523.566" cy="-126" rx="39.7935" ry="18"/>
<text text-anchor="middle" x="523.566" y="-122.3" font-family="Times,serif" font-size="14.00" fill="#2c94b3">AS6453</text>
</a>
</g>
</g>
<!-- AS3356&#45;&gt;AS6453 -->
<g id="edge9" class="edge"><title>AS3356&#45;&gt;AS6453</title>
<path fill="none" stroke="black" d="M432.353,-167.339C448.31,-160.027 468.58,-150.739 485.863,-142.819"/>
<polygon fill="black" stroke="black" points="487.478,-145.929 495.111,-138.581 484.562,-139.565 487.478,-145.929"/>
</g>
<!-- AS209 -->
<g id="node11" class="node"><title>AS209</title>
<g id="a_node11"><a xlink:href="/asn/209" xlink:title="AS209 ~ CenturyLink Communications, LLC [US]">
<ellipse fill="#ffffff" stroke="black" cx="523.566" cy="-72" rx="35.194" ry="18"/>
<text text-anchor="middle" x="523.566" y="-68.3" font-family="Times,serif" font-size="14.00" fill="#2c94b3">AS209</text>
</a>
</g>
</g>
<!-- AS3356&#45;&gt;AS209 -->
<g id="edge10" class="edge"><title>AS3356&#45;&gt;AS209</title>
<path fill="none" stroke="black" d="M418.143,-162.935C432.257,-145.625 455.672,-118.655 479.37,-99 482.833,-96.1277 486.626,-93.3306 490.48,-90.6924"/>
<polygon fill="black" stroke="black" points="492.442,-93.5919 498.913,-85.203 488.623,-87.7254 492.442,-93.5919"/>
</g>
<!-- AS1299 -->
<g id="node12" class="node"><title>AS1299</title>
<g id="a_node12"><a xlink:href="/asn/1299" xlink:title="AS1299 ~ Telia Carrier [EU]">
<ellipse fill="#ffffff" stroke="black" cx="403.724" cy="-504" rx="39.7935" ry="18"/>
<text text-anchor="middle" x="403.724" y="-500.3" font-family="Times,serif" font-size="14.00" fill="#2c94b3">AS1299</text>
</a>
</g>
</g>
<!-- AS1764&#45;&gt;AS1299 -->
<g id="edge11" class="edge"><title>AS1764&#45;&gt;AS1299</title>
<path fill="none" stroke="black" stroke-width="3.375" d="M302.523,-412.169C322.396,-430.382 354.859,-460.133 377.427,-480.817"/>
<polygon fill="black" stroke="black" stroke-width="3.375" points="375.224,-483.545 384.961,-487.721 379.953,-478.384 375.224,-483.545"/>
</g>
<!-- AS2914 -->
<g id="node13" class="node"><title>AS2914</title>
<g id="a_node13"><a xlink:href="/asn/2914" xlink:title="AS2914 ~ NTT America, Inc. [US]">
<ellipse fill="#ffffff" stroke="black" cx="403.724" cy="-396" rx="39.7935" ry="18"/>
<text text-anchor="middle" x="403.724" y="-392.3" font-family="Times,serif" font-size="14.00" fill="#2c94b3">AS2914</text>
</a>
</g>
</g>
<!-- AS1764&#45;&gt;AS2914 -->
<g id="edge12" class="edge"><title>AS1764&#45;&gt;AS2914</title>
<path fill="none" stroke="black" stroke-width="4.5" d="M323.794,-396C333.347,-396 343.697,-396 353.659,-396"/>
<polygon fill="black" stroke="black" stroke-width="4.5" points="353.852,-399.938 363.852,-396 353.852,-392.063 353.852,-399.938"/>
</g>
<!-- AS174 -->
<g id="node17" class="node"><title>AS174</title>
<g id="a_node17"><a xlink:href="/asn/174" xlink:title="AS174 ~ Cogent Communications [US]">
<ellipse fill="#ffffff" stroke="black" cx="523.566" cy="-504" rx="35.194" ry="18"/>
<text text-anchor="middle" x="523.566" y="-500.3" font-family="Times,serif" font-size="14.00" fill="#2c94b3">AS174</text>
</a>
</g>
</g>
<!-- AS21320&#45;&gt;AS174 -->
<g id="edge26" class="edge"><title>AS21320&#45;&gt;AS174</title>
<path fill="none" stroke="black" stroke-width="2" d="M310.844,-355.384C316.863,-359.359 322.989,-363.977 328.077,-369 348.604,-389.264 342.538,-403.816 364.077,-423 399.571,-454.613 449.629,-477.479 483.936,-490.697"/>
<polygon fill="black" stroke="black" stroke-width="2" points="483.014,-494.089 493.606,-494.328 485.475,-487.536 483.014,-494.089"/>
</g>
<!-- AS6461 -->
<g id="node21" class="node"><title>AS6461</title>
<g id="a_node21"><a xlink:href="/asn/6461" xlink:title="AS6461 ~ Zayo Bandwidth [US]">
<ellipse fill="#ffffff" stroke="black" cx="403.724" cy="-288" rx="39.7935" ry="18"/>
<text text-anchor="middle" x="403.724" y="-284.3" font-family="Times,serif" font-size="14.00" fill="#2c94b3">AS6461</text>
</a>
</g>
</g>
<!-- AS21320&#45;&gt;AS6461 -->
<g id="edge24" class="edge"><title>AS21320&#45;&gt;AS6461</title>
<path fill="none" stroke="black" d="M314.314,-327.763C329.815,-320.791 348.984,-312.17 365.506,-304.739"/>
<polygon fill="black" stroke="black" points="367.196,-307.816 374.881,-300.522 364.325,-301.432 367.196,-307.816"/>
</g>
<!-- AS2603 -->
<g id="node22" class="node"><title>AS2603</title>
<g id="a_node22"><a xlink:href="/asn/2603" xlink:title="AS2603 ~ NORDUnet [NO]">
<ellipse fill="#ffffff" stroke="black" cx="403.724" cy="-342" rx="39.7935" ry="18"/>
<text text-anchor="middle" x="403.724" y="-338.3" font-family="Times,serif" font-size="14.00" fill="#2c94b3">AS2603</text>
</a>
</g>
</g>
<!-- AS21320&#45;&gt;AS2603 -->
<g id="edge25" class="edge"><title>AS21320&#45;&gt;AS2603</title>
<path fill="none" stroke="black" d="M328.092,-341.367C336.405,-341.437 345.168,-341.512 353.65,-341.584"/>
<polygon fill="black" stroke="black" points="353.779,-345.085 363.809,-341.67 353.839,-338.085 353.779,-345.085"/>
</g>
<!-- AS1299&#45;&gt;AS6762 -->
<g id="edge14" class="edge"><title>AS1299&#45;&gt;AS6762</title>
<path fill="none" stroke="black" d="M413.804,-486.583C422.073,-470.366 434.335,-445.397 443.37,-423 462.3,-376.078 448.072,-354.754 479.37,-315 481.695,-312.047 484.439,-309.33 487.398,-306.853"/>
<polygon fill="black" stroke="black" points="489.591,-309.585 495.595,-300.855 485.457,-303.936 489.591,-309.585"/>
</g>
<!-- AS7018 -->
<g id="node14" class="node"><title>AS7018</title>
<g id="a_node14"><a xlink:href="/asn/7018" xlink:title="AS7018 ~ AT&amp;T Services, Inc. [US]">
<ellipse fill="#ffffff" stroke="black" cx="523.566" cy="-558" rx="39.7935" ry="18"/>
<text text-anchor="middle" x="523.566" y="-554.3" font-family="Times,serif" font-size="14.00" fill="#2c94b3">AS7018</text>
</a>
</g>
</g>
<!-- AS1299&#45;&gt;AS7018 -->
<g id="edge13" class="edge"><title>AS1299&#45;&gt;AS7018</title>
<path fill="none" stroke="black" stroke-width="2" d="M432.353,-516.661C448.31,-523.973 468.58,-533.261 485.863,-541.181"/>
<polygon fill="black" stroke="black" stroke-width="2" points="484.562,-544.435 495.111,-545.419 487.478,-538.071 484.562,-544.435"/>
</g>
<!-- AS3257 -->
<g id="node15" class="node"><title>AS3257</title>
<g id="a_node15"><a xlink:href="/asn/3257" xlink:title="AS3257 ~ GTT [DE]">
<ellipse fill="#ffffff" stroke="black" cx="643.409" cy="-581" rx="39.7935" ry="18"/>
<text text-anchor="middle" x="643.409" y="-577.3" font-family="Times,serif" font-size="14.00" fill="#2c94b3">AS3257</text>
</a>
</g>
</g>
<!-- AS1299&#45;&gt;AS3257 -->
<g id="edge15" class="edge"><title>AS1299&#45;&gt;AS3257</title>
<path fill="none" stroke="black" d="M408.546,-522.101C416.073,-552.606 436.001,-613.423 479.37,-639 513.209,-658.957 530.6,-651.74 567.762,-639 587.618,-632.193 606.266,-617.71 619.957,-604.921"/>
<polygon fill="black" stroke="black" points="622.694,-607.141 627.416,-597.657 617.81,-602.126 622.694,-607.141"/>
</g>
<!-- AS1239 -->
<g id="node16" class="node"><title>AS1239</title>
<g id="a_node16"><a xlink:href="/asn/1239" xlink:title="AS1239 ~ Sprint [US]">
<ellipse fill="#ffffff" stroke="black" cx="523.566" cy="-612" rx="39.7935" ry="18"/>
<text text-anchor="middle" x="523.566" y="-608.3" font-family="Times,serif" font-size="14.00" fill="#2c94b3">AS1239</text>
</a>
</g>
</g>
<!-- AS1299&#45;&gt;AS1239 -->
<g id="edge16" class="edge"><title>AS1299&#45;&gt;AS1239</title>
<path fill="none" stroke="black" d="M418.143,-521.065C432.257,-538.375 455.672,-565.345 479.37,-585 482.587,-587.668 486.087,-590.27 489.658,-592.741"/>
<polygon fill="black" stroke="black" points="487.735,-595.666 498.014,-598.236 491.581,-589.817 487.735,-595.666"/>
</g>
<!-- AS1299&#45;&gt;AS174 -->
<g id="edge17" class="edge"><title>AS1299&#45;&gt;AS174</title>
<path fill="none" stroke="black" d="M443.636,-504C454.723,-504 466.883,-504 478.265,-504"/>
<polygon fill="black" stroke="black" points="478.447,-507.5 488.447,-504 478.447,-500.5 478.447,-507.5"/>
</g>
<!-- AS2914&#45;&gt;AS6762 -->
<g id="edge20" class="edge"><title>AS2914&#45;&gt;AS6762</title>
<path fill="none" stroke="black" d="M428.318,-381.611C433.574,-377.852 438.906,-373.563 443.37,-369 463.543,-348.383 458.677,-335.094 479.37,-315 482.215,-312.237 485.389,-309.614 488.689,-307.166"/>
<polygon fill="black" stroke="black" points="490.755,-309.994 497.037,-301.462 486.806,-304.214 490.755,-309.994"/>
</g>
<!-- AS2914&#45;&gt;AS2497 -->
<g id="edge19" class="edge"><title>AS2914&#45;&gt;AS2497</title>
<path fill="none" stroke="black" d="M429.655,-382.118C434.731,-378.389 439.649,-373.984 443.37,-369 473.642,-328.458 448.072,-300.754 479.37,-261 481.695,-258.047 484.439,-255.33 487.398,-252.853"/>
<polygon fill="black" stroke="black" points="489.591,-255.585 495.595,-246.855 485.457,-249.936 489.591,-255.585"/>
</g>
<!-- AS2914&#45;&gt;AS174 -->
<g id="edge22" class="edge"><title>AS2914&#45;&gt;AS174</title>
<path fill="none" stroke="black" d="M421.074,-412.568C428.027,-419.704 436.174,-428.188 443.37,-436 459.8,-453.836 460.893,-461.296 479.37,-477 482.799,-479.914 486.57,-482.736 490.413,-485.387"/>
<polygon fill="black" stroke="black" points="488.549,-488.35 498.835,-490.89 492.378,-482.49 488.549,-488.35"/>
</g>
<!-- AS3491 -->
<g id="node18" class="node"><title>AS3491</title>
<g id="a_node18"><a xlink:href="/asn/3491" xlink:title="AS3491 ~ PCCW Global, Inc. [US]">
<ellipse fill="#ffffff" stroke="black" cx="523.566" cy="-342" rx="39.7935" ry="18"/>
<text text-anchor="middle" x="523.566" y="-338.3" font-family="Times,serif" font-size="14.00" fill="#2c94b3">AS3491</text>
</a>
</g>
</g>
<!-- AS2914&#45;&gt;AS3491 -->
<g id="edge18" class="edge"><title>AS2914&#45;&gt;AS3491</title>
<path fill="none" stroke="black" d="M432.353,-383.339C448.31,-376.027 468.58,-366.739 485.863,-358.819"/>
<polygon fill="black" stroke="black" points="487.478,-361.929 495.111,-354.581 484.562,-355.565 487.478,-361.929"/>
</g>
<!-- AS12956 -->
<g id="node19" class="node"><title>AS12956</title>
<g id="a_node19"><a xlink:href="/asn/12956" xlink:title="AS12956 ~ TELXIUS [ES]">
<ellipse fill="#ffffff" stroke="black" cx="523.566" cy="-450" rx="44.393" ry="18"/>
<text text-anchor="middle" x="523.566" y="-446.3" font-family="Times,serif" font-size="14.00" fill="#2c94b3">AS12956</text>
</a>
</g>
</g>
<!-- AS2914&#45;&gt;AS12956 -->
<g id="edge21" class="edge"><title>AS2914&#45;&gt;AS12956</title>
<path fill="none" stroke="black" d="M432.353,-408.661C447.85,-415.762 467.417,-424.728 484.364,-432.494"/>
<polygon fill="black" stroke="black" points="482.917,-435.681 493.466,-436.665 485.833,-429.317 482.917,-435.681"/>
</g>
<!-- AS701 -->
<g id="node20" class="node"><title>AS701</title>
<g id="a_node20"><a xlink:href="/asn/701" xlink:title="AS701 ~ UUNET [US]">
<ellipse fill="#ffffff" stroke="black" cx="523.566" cy="-396" rx="35.194" ry="18"/>
<text text-anchor="middle" x="523.566" y="-392.3" font-family="Times,serif" font-size="14.00" fill="#2c94b3">AS701</text>
</a>
</g>
</g>
<!-- AS2914&#45;&gt;AS701 -->
<g id="edge23" class="edge"><title>AS2914&#45;&gt;AS701</title>
<path fill="none" stroke="black" d="M443.636,-396C454.723,-396 466.883,-396 478.265,-396"/>
<polygon fill="black" stroke="black" points="478.447,-399.5 488.447,-396 478.447,-392.5 478.447,-399.5"/>
</g>
<!-- AS174&#45;&gt;AS3257 -->
<g id="edge28" class="edge"><title>AS174&#45;&gt;AS3257</title>
<path fill="none" stroke="black" d="M546.626,-517.602C553.432,-521.849 560.932,-526.579 567.762,-531 582.479,-540.525 598.66,-551.322 612.184,-560.44"/>
<polygon fill="black" stroke="black" points="610.4,-563.459 620.645,-566.159 614.32,-557.659 610.4,-563.459"/>
</g>
<!-- AS2603&#45;&gt;AS3491 -->
<g id="edge27" class="edge"><title>AS2603&#45;&gt;AS3491</title>
<path fill="none" stroke="black" d="M443.636,-342C453.19,-342 463.539,-342 473.502,-342"/>
<polygon fill="black" stroke="black" points="473.695,-345.5 483.695,-342 473.694,-338.5 473.695,-345.5"/>
</g>
<!-- AS6939&#45;&gt;AS6762 -->
<g id="edge36" class="edge"><title>AS6939&#45;&gt;AS6762</title>
<path fill="none" stroke="black" d="M432.353,-246.661C448.31,-253.973 468.58,-263.261 485.863,-271.181"/>
<polygon fill="black" stroke="black" points="484.562,-274.435 495.111,-275.419 487.478,-268.071 484.562,-274.435"/>
</g>
<!-- AS6939&#45;&gt;AS2497 -->
<g id="edge31" class="edge"><title>AS6939&#45;&gt;AS2497</title>
<path fill="none" stroke="black" d="M443.636,-234C453.19,-234 463.539,-234 473.502,-234"/>
<polygon fill="black" stroke="black" points="473.695,-237.5 483.695,-234 473.694,-230.5 473.695,-237.5"/>
</g>
<!-- AS6939&#45;&gt;AS6453 -->
<g id="edge34" class="edge"><title>AS6939&#45;&gt;AS6453</title>
<path fill="none" stroke="black" d="M428.318,-219.611C433.574,-215.852 438.906,-211.563 443.37,-207 463.543,-186.383 458.677,-173.094 479.37,-153 482.215,-150.237 485.389,-147.614 488.689,-145.166"/>
<polygon fill="black" stroke="black" points="490.755,-147.994 497.037,-139.462 486.806,-142.214 490.755,-147.994"/>
</g>
<!-- AS6939&#45;&gt;AS3491 -->
<g id="edge32" class="edge"><title>AS6939&#45;&gt;AS3491</title>
<path fill="none" stroke="black" d="M428.318,-248.389C433.574,-252.148 438.906,-256.437 443.37,-261 463.543,-281.617 458.677,-294.906 479.37,-315 482.215,-317.763 485.389,-320.386 488.689,-322.834"/>
<polygon fill="black" stroke="black" points="486.806,-325.786 497.037,-328.538 490.755,-320.006 486.806,-325.786"/>
</g>
<!-- AS6939&#45;&gt;AS701 -->
<g id="edge33" class="edge"><title>AS6939&#45;&gt;AS701</title>
<path fill="none" stroke="black" d="M429.655,-247.882C434.731,-251.611 439.649,-256.016 443.37,-261 473.642,-301.542 448.072,-329.246 479.37,-369 482.017,-372.361 485.205,-375.417 488.637,-378.161"/>
<polygon fill="black" stroke="black" points="486.75,-381.113 496.944,-384 490.775,-375.386 486.75,-381.113"/>
</g>
<!-- AS1273 -->
<g id="node25" class="node"><title>AS1273</title>
<g id="a_node25"><a xlink:href="/asn/1273" xlink:title="AS1273 ~ Vodafone Group PLC [EU]">
<ellipse fill="#ffffff" stroke="black" cx="523.566" cy="-180" rx="39.7935" ry="18"/>
<text text-anchor="middle" x="523.566" y="-176.3" font-family="Times,serif" font-size="14.00" fill="#2c94b3">AS1273</text>
</a>
</g>
</g>
<!-- AS6939&#45;&gt;AS1273 -->
<g id="edge35" class="edge"><title>AS6939&#45;&gt;AS1273</title>
<path fill="none" stroke="black" d="M432.353,-221.339C448.31,-214.027 468.58,-204.739 485.863,-196.819"/>
<polygon fill="black" stroke="black" points="487.478,-199.929 495.111,-192.581 484.562,-193.565 487.478,-199.929"/>
</g>
<!-- AS33891&#45;&gt;AS3356 -->
<g id="edge38" class="edge"><title>AS33891&#45;&gt;AS3356</title>
<path fill="none" stroke="black" stroke-width="2" d="M300.177,-269.106C315.584,-252.496 340.4,-226.821 364.077,-207 366.588,-204.898 369.257,-202.794 371.974,-200.74"/>
<polygon fill="black" stroke="black" stroke-width="2" points="374.137,-203.495 380.16,-194.778 370.016,-197.837 374.137,-203.495"/>
</g>
<!-- AS33891&#45;&gt;AS1299 -->
<g id="edge37" class="edge"><title>AS33891&#45;&gt;AS1299</title>
<path fill="none" stroke="black" stroke-width="2" d="M312.313,-299.782C318.144,-303.727 323.818,-308.482 328.077,-314 359.25,-354.387 345.055,-375.661 364.077,-423 371.534,-441.558 381.229,-461.869 389.043,-477.511"/>
<polygon fill="black" stroke="black" stroke-width="2" points="385.996,-479.241 393.629,-486.589 392.244,-476.085 385.996,-479.241"/>
</g>
</g>
</svg>
