<?xml version="1.0" encoding="UTF-8" standalone="no"?>
<!DOCTYPE svg PUBLIC "-//W3C//DTD SVG 1.1//EN"
 "http://www.w3.org/Graphics/SVG/1.1/DTD/svg11.dtd">
<!-- Generated by graphviz version 2.38.0 (20140413.2041)
 -->
<!-- Title: AS48055 IPv4 Upstream Graph Pages: 1 -->
<svg width="460pt" height="530pt"
 viewBox="0.00 0.00 460.47 530.00" xmlns="http://www.w3.org/2000/svg" xmlns:xlink="http://www.w3.org/1999/xlink">
<g id="graph0" class="graph" transform="scale(1 1) rotate(0) translate(4 526)">
<title>AS48055 IPv4 Upstream Graph</title>
<polygon fill="white" stroke="none" points="-4,4 -4,-526 456.469,-526 456.469,4 -4,4"/>
<!-- AS48055 -->
<g id="node1" class="node"><title>AS48055</title>
<g id="a_node1"><a xlink:href="/asn/48055" xlink:title="AS48055 ~ BDS&#45;DC1 [AT]">
<ellipse fill="#ffffff" stroke="black" cx="44.1961" cy="-382" rx="44.393" ry="18"/>
<text text-anchor="middle" x="44.1961" y="-378.3" font-family="Times,serif" font-size="14.00" fill="#880000">AS48055</text>
</a>
</g>
</g>
<!-- AS3330 -->
<g id="node2" class="node"><title>AS3330</title>
<g id="a_node2"><a xlink:href="/asn/3330" xlink:title="AS3330 ~ Vienna, Austria [AT]">
<ellipse fill="#ffffff" stroke="black" cx="168.588" cy="-423" rx="39.7935" ry="18"/>
<text text-anchor="middle" x="168.588" y="-419.3" font-family="Times,serif" font-size="14.00" fill="#2c94b3">AS3330</text>
</a>
</g>
</g>
<!-- AS48055&#45;&gt;AS3330 -->
<g id="edge1" class="edge"><title>AS48055&#45;&gt;AS3330</title>
<path fill="none" stroke="black" stroke-width="3.6" d="M78.9643,-393.312C93.591,-398.212 110.853,-403.994 126.239,-409.148"/>
<polygon fill="black" stroke="black" stroke-width="3.6" points="125.438,-412.571 136.032,-412.429 127.662,-405.934 125.438,-412.571"/>
</g>
<!-- AS21013 -->
<g id="node3" class="node"><title>AS21013</title>
<g id="a_node3"><a xlink:href="/asn/21013" xlink:title="AS21013 ~ Wels, AT [AT]">
<ellipse fill="#ffffff" stroke="black" cx="168.588" cy="-342" rx="44.393" ry="18"/>
<text text-anchor="middle" x="168.588" y="-338.3" font-family="Times,serif" font-size="14.00" fill="#2c94b3">AS21013</text>
</a>
</g>
</g>
<!-- AS48055&#45;&gt;AS21013 -->
<g id="edge2" class="edge"><title>AS48055&#45;&gt;AS21013</title>
<path fill="none" stroke="black" stroke-width="4.5" d="M79.2891,-370.858C93.0819,-366.35 109.177,-361.09 123.819,-356.305"/>
<polygon fill="black" stroke="black" stroke-width="4.5" points="125.396,-359.932 133.678,-353.082 122.95,-352.446 125.396,-359.932"/>
</g>
<!-- AS8218 -->
<g id="node4" class="node"><title>AS8218</title>
<g id="a_node4"><a xlink:href="/asn/8218" xlink:title="AS8218 ~ legacy Neotelecoms [FR]">
<ellipse fill="#ffffff" stroke="black" cx="288.431" cy="-504" rx="39.7935" ry="18"/>
<text text-anchor="middle" x="288.431" y="-500.3" font-family="Times,serif" font-size="14.00" fill="#2c94b3">AS8218</text>
</a>
</g>
</g>
<!-- AS3330&#45;&gt;AS8218 -->
<g id="edge3" class="edge"><title>AS3330&#45;&gt;AS8218</title>
<path fill="none" stroke="black" d="M191.202,-437.857C209.691,-450.565 236.505,-468.995 257.134,-483.175"/>
<polygon fill="black" stroke="black" points="255.331,-486.183 265.555,-488.963 259.296,-480.414 255.331,-486.183"/>
</g>
<!-- AS3320 -->
<g id="node5" class="node"><title>AS3320</title>
<g id="a_node5"><a xlink:href="/asn/3320" xlink:title="AS3320 ~ DTAG [DE]">
<ellipse fill="#ffffff" stroke="black" cx="288.431" cy="-450" rx="39.7935" ry="18"/>
<text text-anchor="middle" x="288.431" y="-446.3" font-family="Times,serif" font-size="14.00" fill="#2c94b3">AS3320</text>
</a>
</g>
</g>
<!-- AS3330&#45;&gt;AS3320 -->
<g id="edge4" class="edge"><title>AS3330&#45;&gt;AS3320</title>
<path fill="none" stroke="black" stroke-width="3" d="M204.308,-430.955C216.307,-433.704 229.928,-436.825 242.621,-439.733"/>
<polygon fill="black" stroke="black" stroke-width="3" points="242.023,-443.187 252.552,-442.009 243.587,-436.364 242.023,-443.187"/>
</g>
<!-- AS3257 -->
<g id="node6" class="node"><title>AS3257</title>
<g id="a_node6"><a xlink:href="/asn/3257" xlink:title="AS3257 ~ GTT [DE]">
<ellipse fill="#ffffff" stroke="black" cx="288.431" cy="-288" rx="39.7935" ry="18"/>
<text text-anchor="middle" x="288.431" y="-284.3" font-family="Times,serif" font-size="14.00" fill="#2c94b3">AS3257</text>
</a>
</g>
</g>
<!-- AS3330&#45;&gt;AS3257 -->
<g id="edge5" class="edge"><title>AS3330&#45;&gt;AS3257</title>
<path fill="none" stroke="black" stroke-width="4" d="M183.591,-406.269C192.239,-395.75 203.431,-381.792 212.784,-369 229.809,-345.716 228.612,-335.617 248.784,-315 250.877,-312.861 253.161,-310.782 255.537,-308.79"/>
<polygon fill="black" stroke="black" stroke-width="4" points="258.056,-311.268 263.837,-302.389 253.781,-305.725 258.056,-311.268"/>
</g>
<!-- AS1764 -->
<g id="node13" class="node"><title>AS1764</title>
<g id="a_node13"><a xlink:href="/asn/1764" xlink:title="AS1764 ~ NEXTLAYER&#45;AS [AT]">
<ellipse fill="#ffffff" stroke="black" cx="288.431" cy="-342" rx="39.7935" ry="18"/>
<text text-anchor="middle" x="288.431" y="-338.3" font-family="Times,serif" font-size="14.00" fill="#2c94b3">AS1764</text>
</a>
</g>
</g>
<!-- AS21013&#45;&gt;AS1764 -->
<g id="edge12" class="edge"><title>AS21013&#45;&gt;AS1764</title>
<path fill="none" stroke="black" d="M212.799,-342C221.112,-342 229.875,-342 238.357,-342"/>
<polygon fill="black" stroke="black" points="238.516,-345.5 248.516,-342 238.516,-338.5 238.516,-345.5"/>
</g>
<!-- AS3356 -->
<g id="node14" class="node"><title>AS3356</title>
<g id="a_node14"><a xlink:href="/asn/3356" xlink:title="AS3356 ~ Level 3 Parent, LLC [US]">
<ellipse fill="#ffffff" stroke="black" cx="288.431" cy="-126" rx="39.7935" ry="18"/>
<text text-anchor="middle" x="288.431" y="-122.3" font-family="Times,serif" font-size="14.00" fill="#2c94b3">AS3356</text>
</a>
</g>
</g>
<!-- AS21013&#45;&gt;AS3356 -->
<g id="edge13" class="edge"><title>AS21013&#45;&gt;AS3356</title>
<path fill="none" stroke="black" stroke-width="4" d="M179.232,-324.324C199.913,-286.416 248.626,-197.127 273.005,-152.441"/>
<polygon fill="black" stroke="black" stroke-width="4" points="276.102,-154.072 277.819,-143.617 269.957,-150.72 276.102,-154.072"/>
</g>
<!-- AS174 -->
<g id="node15" class="node"><title>AS174</title>
<g id="a_node15"><a xlink:href="/asn/174" xlink:title="AS174 ~ Cogent Communications [US]">
<ellipse fill="#ffffff" stroke="black" cx="288.431" cy="-234" rx="35.194" ry="18"/>
<text text-anchor="middle" x="288.431" y="-230.3" font-family="Times,serif" font-size="14.00" fill="#2c94b3">AS174</text>
</a>
</g>
</g>
<!-- AS21013&#45;&gt;AS174 -->
<g id="edge14" class="edge"><title>AS21013&#45;&gt;AS174</title>
<path fill="none" stroke="black" stroke-width="3" d="M184.521,-324.956C199.847,-307.903 224.782,-281.35 248.784,-261 251.637,-258.582 254.702,-256.167 257.813,-253.831"/>
<polygon fill="black" stroke="black" stroke-width="3" points="259.986,-256.578 266.041,-247.884 255.886,-250.905 259.986,-256.578"/>
</g>
<!-- AS2914 -->
<g id="node16" class="node"><title>AS2914</title>
<g id="a_node16"><a xlink:href="/asn/2914" xlink:title="AS2914 ~ NTT America, Inc. [US]">
<ellipse fill="#ffffff" stroke="black" cx="288.431" cy="-396" rx="39.7935" ry="18"/>
<text text-anchor="middle" x="288.431" y="-392.3" font-family="Times,serif" font-size="14.00" fill="#2c94b3">AS2914</text>
</a>
</g>
</g>
<!-- AS21013&#45;&gt;AS2914 -->
<g id="edge15" class="edge"><title>AS21013&#45;&gt;AS2914</title>
<path fill="none" stroke="black" stroke-width="2" d="M198.718,-355.348C214.329,-362.502 233.727,-371.391 250.399,-379.03"/>
<polygon fill="black" stroke="black" stroke-width="2" points="249.302,-382.378 259.851,-383.362 252.218,-376.014 249.302,-382.378"/>
</g>
<!-- AS6461 -->
<g id="node7" class="node"><title>AS6461</title>
<g id="a_node7"><a xlink:href="/asn/6461" xlink:title="AS6461 ~ Zayo Bandwidth [US]">
<ellipse fill="#ffffff" stroke="black" cx="408.273" cy="-504" rx="39.7935" ry="18"/>
<text text-anchor="middle" x="408.273" y="-500.3" font-family="Times,serif" font-size="14.00" fill="#2c94b3">AS6461</text>
</a>
</g>
</g>
<!-- AS8218&#45;&gt;AS6461 -->
<g id="edge6" class="edge"><title>AS8218&#45;&gt;AS6461</title>
<path fill="none" stroke="black" d="M328.343,-504C337.897,-504 348.246,-504 358.209,-504"/>
<polygon fill="black" stroke="black" points="358.402,-507.5 368.402,-504 358.402,-500.5 358.402,-507.5"/>
</g>
<!-- AS1239 -->
<g id="node8" class="node"><title>AS1239</title>
<g id="a_node8"><a xlink:href="/asn/1239" xlink:title="AS1239 ~ Sprint [US]">
<ellipse fill="#ffffff" stroke="black" cx="408.273" cy="-396" rx="39.7935" ry="18"/>
<text text-anchor="middle" x="408.273" y="-392.3" font-family="Times,serif" font-size="14.00" fill="#2c94b3">AS1239</text>
</a>
</g>
</g>
<!-- AS3320&#45;&gt;AS1239 -->
<g id="edge7" class="edge"><title>AS3320&#45;&gt;AS1239</title>
<path fill="none" stroke="black" d="M317.06,-437.339C333.017,-430.027 353.287,-420.739 370.57,-412.819"/>
<polygon fill="black" stroke="black" points="372.185,-415.929 379.818,-408.581 369.269,-409.565 372.185,-415.929"/>
</g>
<!-- AS701 -->
<g id="node9" class="node"><title>AS701</title>
<g id="a_node9"><a xlink:href="/asn/701" xlink:title="AS701 ~ UUNET [US]">
<ellipse fill="#ffffff" stroke="black" cx="408.273" cy="-450" rx="35.194" ry="18"/>
<text text-anchor="middle" x="408.273" y="-446.3" font-family="Times,serif" font-size="14.00" fill="#2c94b3">AS701</text>
</a>
</g>
</g>
<!-- AS3320&#45;&gt;AS701 -->
<g id="edge8" class="edge"><title>AS3320&#45;&gt;AS701</title>
<path fill="none" stroke="black" d="M328.343,-450C339.43,-450 351.59,-450 362.972,-450"/>
<polygon fill="black" stroke="black" points="363.154,-453.5 373.154,-450 363.154,-446.5 363.154,-453.5"/>
</g>
<!-- AS7018 -->
<g id="node10" class="node"><title>AS7018</title>
<g id="a_node10"><a xlink:href="/asn/7018" xlink:title="AS7018 ~ AT&amp;T Services, Inc. [US]">
<ellipse fill="#ffffff" stroke="black" cx="408.273" cy="-288" rx="39.7935" ry="18"/>
<text text-anchor="middle" x="408.273" y="-284.3" font-family="Times,serif" font-size="14.00" fill="#2c94b3">AS7018</text>
</a>
</g>
</g>
<!-- AS3257&#45;&gt;AS7018 -->
<g id="edge9" class="edge"><title>AS3257&#45;&gt;AS7018</title>
<path fill="none" stroke="black" d="M328.343,-288C337.897,-288 348.246,-288 358.209,-288"/>
<polygon fill="black" stroke="black" points="358.402,-291.5 368.402,-288 358.402,-284.5 358.402,-291.5"/>
</g>
<!-- AS2497 -->
<g id="node11" class="node"><title>AS2497</title>
<g id="a_node11"><a xlink:href="/asn/2497" xlink:title="AS2497 ~ Internet Initiative Japan Inc. [JP]">
<ellipse fill="#ffffff" stroke="black" cx="408.273" cy="-180" rx="39.7935" ry="18"/>
<text text-anchor="middle" x="408.273" y="-176.3" font-family="Times,serif" font-size="14.00" fill="#2c94b3">AS2497</text>
</a>
</g>
</g>
<!-- AS3257&#45;&gt;AS2497 -->
<g id="edge10" class="edge"><title>AS3257&#45;&gt;AS2497</title>
<path fill="none" stroke="black" d="M313.025,-273.611C318.281,-269.852 323.613,-265.563 328.077,-261 348.25,-240.383 343.384,-227.094 364.077,-207 366.922,-204.237 370.096,-201.614 373.396,-199.166"/>
<polygon fill="black" stroke="black" points="375.462,-201.994 381.744,-193.462 371.513,-196.214 375.462,-201.994"/>
</g>
<!-- AS3491 -->
<g id="node12" class="node"><title>AS3491</title>
<g id="a_node12"><a xlink:href="/asn/3491" xlink:title="AS3491 ~ PCCW Global, Inc. [US]">
<ellipse fill="#ffffff" stroke="black" cx="408.273" cy="-234" rx="39.7935" ry="18"/>
<text text-anchor="middle" x="408.273" y="-230.3" font-family="Times,serif" font-size="14.00" fill="#2c94b3">AS3491</text>
</a>
</g>
</g>
<!-- AS3257&#45;&gt;AS3491 -->
<g id="edge11" class="edge"><title>AS3257&#45;&gt;AS3491</title>
<path fill="none" stroke="black" d="M317.06,-275.339C333.017,-268.027 353.287,-258.739 370.57,-250.819"/>
<polygon fill="black" stroke="black" points="372.185,-253.929 379.818,-246.581 369.269,-247.565 372.185,-253.929"/>
</g>
<!-- AS1299 -->
<g id="node17" class="node"><title>AS1299</title>
<g id="a_node17"><a xlink:href="/asn/1299" xlink:title="AS1299 ~ Telia Carrier [EU]">
<ellipse fill="#ffffff" stroke="black" cx="408.273" cy="-342" rx="39.7935" ry="18"/>
<text text-anchor="middle" x="408.273" y="-338.3" font-family="Times,serif" font-size="14.00" fill="#2c94b3">AS1299</text>
</a>
</g>
</g>
<!-- AS1764&#45;&gt;AS1299 -->
<g id="edge16" class="edge"><title>AS1764&#45;&gt;AS1299</title>
<path fill="none" stroke="black" d="M328.343,-342C337.897,-342 348.246,-342 358.209,-342"/>
<polygon fill="black" stroke="black" points="358.402,-345.5 368.402,-342 358.402,-338.5 358.402,-345.5"/>
</g>
<!-- AS3356&#45;&gt;AS2497 -->
<g id="edge17" class="edge"><title>AS3356&#45;&gt;AS2497</title>
<path fill="none" stroke="black" d="M317.06,-138.661C333.017,-145.973 353.287,-155.261 370.57,-163.181"/>
<polygon fill="black" stroke="black" points="369.269,-166.435 379.818,-167.419 372.185,-160.071 369.269,-166.435"/>
</g>
<!-- AS12956 -->
<g id="node18" class="node"><title>AS12956</title>
<g id="a_node18"><a xlink:href="/asn/12956" xlink:title="AS12956 ~ TELXIUS [ES]">
<ellipse fill="#ffffff" stroke="black" cx="408.273" cy="-72" rx="44.393" ry="18"/>
<text text-anchor="middle" x="408.273" y="-68.3" font-family="Times,serif" font-size="14.00" fill="#2c94b3">AS12956</text>
</a>
</g>
</g>
<!-- AS3356&#45;&gt;AS12956 -->
<g id="edge18" class="edge"><title>AS3356&#45;&gt;AS12956</title>
<path fill="none" stroke="black" d="M317.06,-113.339C332.557,-106.238 352.124,-97.2715 369.071,-89.506"/>
<polygon fill="black" stroke="black" points="370.54,-92.6825 378.173,-85.3348 367.624,-86.3188 370.54,-92.6825"/>
</g>
<!-- AS3549 -->
<g id="node19" class="node"><title>AS3549</title>
<g id="a_node19"><a xlink:href="/asn/3549" xlink:title="AS3549 ~ Level 3 Parent, LLC [US]">
<ellipse fill="#ffffff" stroke="black" cx="408.273" cy="-18" rx="39.7935" ry="18"/>
<text text-anchor="middle" x="408.273" y="-14.3" font-family="Times,serif" font-size="14.00" fill="#2c94b3">AS3549</text>
</a>
</g>
</g>
<!-- AS3356&#45;&gt;AS3549 -->
<g id="edge19" class="edge"><title>AS3356&#45;&gt;AS3549</title>
<path fill="none" stroke="black" d="M302.85,-108.935C316.964,-91.6254 340.379,-64.6554 364.077,-45 367.294,-42.3323 370.794,-39.7296 374.365,-37.2588"/>
<polygon fill="black" stroke="black" points="376.288,-40.1827 382.721,-31.7642 372.442,-34.3338 376.288,-40.1827"/>
</g>
<!-- AS174&#45;&gt;AS3491 -->
<g id="edge21" class="edge"><title>AS174&#45;&gt;AS3491</title>
<path fill="none" stroke="black" d="M323.833,-234C334.657,-234 346.824,-234 358.451,-234"/>
<polygon fill="black" stroke="black" points="358.482,-237.5 368.482,-234 358.482,-230.5 358.482,-237.5"/>
</g>
<!-- AS6762 -->
<g id="node20" class="node"><title>AS6762</title>
<g id="a_node20"><a xlink:href="/asn/6762" xlink:title="AS6762 ~ TELECOM ITALIA SPARKLE S.p.A. [IT]">
<ellipse fill="#ffffff" stroke="black" cx="408.273" cy="-126" rx="39.7935" ry="18"/>
<text text-anchor="middle" x="408.273" y="-122.3" font-family="Times,serif" font-size="14.00" fill="#2c94b3">AS6762</text>
</a>
</g>
</g>
<!-- AS174&#45;&gt;AS6762 -->
<g id="edge20" class="edge"><title>AS174&#45;&gt;AS6762</title>
<path fill="none" stroke="black" d="M302.588,-217.257C316.674,-199.961 340.232,-172.777 364.077,-153 367.294,-150.332 370.794,-147.73 374.365,-145.259"/>
<polygon fill="black" stroke="black" points="376.288,-148.183 382.721,-139.764 372.442,-142.334 376.288,-148.183"/>
</g>
<!-- AS2914&#45;&gt;AS1239 -->
<g id="edge22" class="edge"><title>AS2914&#45;&gt;AS1239</title>
<path fill="none" stroke="black" d="M328.343,-396C337.897,-396 348.246,-396 358.209,-396"/>
<polygon fill="black" stroke="black" points="358.402,-399.5 368.402,-396 358.402,-392.5 358.402,-399.5"/>
</g>
</g>
</svg>
