<?xml version="1.0" encoding="UTF-8" standalone="no"?>
<!DOCTYPE svg PUBLIC "-//W3C//DTD SVG 1.1//EN"
 "http://www.w3.org/Graphics/SVG/1.1/DTD/svg11.dtd">
<!-- Generated by graphviz version 2.38.0 (20140413.2041)
 -->
<!-- Title: AS205989 IPv4 Upstream Graph Pages: 1 -->
<svg width="823pt" height="551pt"
 viewBox="0.00 0.00 823.25 550.97" xmlns="http://www.w3.org/2000/svg" xmlns:xlink="http://www.w3.org/1999/xlink">
<g id="graph0" class="graph" transform="scale(1 1) rotate(0) translate(4 546.972)">
<title>AS205989 IPv4 Upstream Graph</title>
<polygon fill="white" stroke="none" points="-4,4 -4,-546.972 819.247,-546.972 819.247,4 -4,4"/>
<!-- AS205989 -->
<g id="node1" class="node"><title>AS205989</title>
<g id="a_node1"><a xlink:href="/asn/205989" xlink:title="AS205989 ~ RELAXT [AT]">
<ellipse fill="#ffffff" stroke="black" cx="48.0957" cy="-324.842" rx="48.1917" ry="18"/>
<text text-anchor="middle" x="48.0957" y="-321.142" font-family="Times,serif" font-size="14.00" fill="#880000">AS205989</text>
</a>
</g>
</g>
<!-- AS20473 -->
<g id="node2" class="node"><title>AS20473</title>
<g id="a_node2"><a xlink:href="/asn/20473" xlink:title="AS20473 ~ Choopa, LLC [US]">
<ellipse fill="#ffffff" stroke="black" cx="300.78" cy="-353.842" rx="44.393" ry="18"/>
<text text-anchor="middle" x="300.78" y="-350.142" font-family="Times,serif" font-size="14.00" fill="#2c94b3">AS20473</text>
</a>
</g>
</g>
<!-- AS205989&#45;&gt;AS20473 -->
<g id="edge1" class="edge"><title>AS205989&#45;&gt;AS20473</title>
<path fill="none" stroke="black" stroke-width="4.5" d="M94.2025,-330.06C137.359,-335.052 202.408,-342.577 247.738,-347.821"/>
<polygon fill="black" stroke="black" stroke-width="4.5" points="247.566,-351.765 257.952,-349.003 248.471,-343.942 247.566,-351.765"/>
</g>
<!-- AS30823 -->
<g id="node3" class="node"><title>AS30823</title>
<g id="a_node3"><a xlink:href="/asn/30823" xlink:title="AS30823 ~ combahton GmbH [DE]">
<ellipse fill="#ffffff" stroke="black" cx="176.388" cy="-299.842" rx="44.393" ry="18"/>
<text text-anchor="middle" x="176.388" y="-296.142" font-family="Times,serif" font-size="14.00" fill="#2c94b3">AS30823</text>
</a>
</g>
</g>
<!-- AS205989&#45;&gt;AS30823 -->
<g id="edge2" class="edge"><title>AS205989&#45;&gt;AS30823</title>
<path fill="none" stroke="black" stroke-width="4.07143" d="M91.1491,-316.517C102.36,-314.298 114.572,-311.88 126.131,-309.592"/>
<polygon fill="black" stroke="black" stroke-width="4.07143" points="126.962,-313.059 136.08,-307.623 125.578,-306.07 126.962,-313.059"/>
</g>
<!-- AS3257 -->
<g id="node4" class="node"><title>AS3257</title>
<g id="a_node4"><a xlink:href="/asn/3257" xlink:title="AS3257 ~ GTT [DE]">
<ellipse fill="#ffffff" stroke="black" cx="420.622" cy="-215.842" rx="39.7935" ry="18"/>
<text text-anchor="middle" x="420.622" y="-212.142" font-family="Times,serif" font-size="14.00" fill="#2c94b3">AS3257</text>
</a>
</g>
</g>
<!-- AS20473&#45;&gt;AS3257 -->
<g id="edge3" class="edge"><title>AS20473&#45;&gt;AS3257</title>
<path fill="none" stroke="black" stroke-width="3.9375" d="M328.649,-339.498C334.375,-335.792 340.144,-331.514 344.976,-326.842 358.909,-313.366 386.412,-270.266 403.862,-241.907"/>
<polygon fill="black" stroke="black" stroke-width="3.9375" points="406.911,-243.63 409.145,-233.274 400.94,-239.977 406.911,-243.63"/>
</g>
<!-- AS1299 -->
<g id="node5" class="node"><title>AS1299</title>
<g id="a_node5"><a xlink:href="/asn/1299" xlink:title="AS1299 ~ Telia Carrier [EU]">
<ellipse fill="#ffffff" stroke="black" cx="420.622" cy="-418.842" rx="39.7935" ry="18"/>
<text text-anchor="middle" x="420.622" y="-415.142" font-family="Times,serif" font-size="14.00" fill="#2c94b3">AS1299</text>
</a>
</g>
</g>
<!-- AS20473&#45;&gt;AS1299 -->
<g id="edge4" class="edge"><title>AS20473&#45;&gt;AS1299</title>
<path fill="none" stroke="black" stroke-width="3.375" d="M327.933,-368.267C344.987,-377.674 367.411,-390.043 385.814,-400.194"/>
<polygon fill="black" stroke="black" stroke-width="3.375" points="384.306,-403.359 394.752,-405.124 387.687,-397.229 384.306,-403.359"/>
</g>
<!-- AS2914 -->
<g id="node6" class="node"><title>AS2914</title>
<g id="a_node6"><a xlink:href="/asn/2914" xlink:title="AS2914 ~ NTT America, Inc. [US]">
<ellipse fill="#ffffff" stroke="black" cx="651.208" cy="-339.842" rx="39.7935" ry="18"/>
<text text-anchor="middle" x="651.208" y="-336.142" font-family="Times,serif" font-size="14.00" fill="#2c94b3">AS2914</text>
</a>
</g>
</g>
<!-- AS20473&#45;&gt;AS2914 -->
<g id="edge5" class="edge"><title>AS20473&#45;&gt;AS2914</title>
<path fill="none" stroke="black" stroke-width="4.5" d="M344.853,-352.111C409.971,-349.494 533.107,-344.547 601.436,-341.801"/>
<polygon fill="black" stroke="black" stroke-width="4.5" points="601.677,-345.732 611.51,-341.396 601.36,-337.864 601.677,-345.732"/>
</g>
<!-- AS33891 -->
<g id="node19" class="node"><title>AS33891</title>
<g id="a_node19"><a xlink:href="/asn/33891" xlink:title="AS33891 ~ CORE&#45;BACKBONE GMBH GLOBAL NETWORK [DE]">
<ellipse fill="#ffffff" stroke="black" cx="300.78" cy="-299.842" rx="44.393" ry="18"/>
<text text-anchor="middle" x="300.78" y="-296.142" font-family="Times,serif" font-size="14.00" fill="#2c94b3">AS33891</text>
</a>
</g>
</g>
<!-- AS30823&#45;&gt;AS33891 -->
<g id="edge34" class="edge"><title>AS30823&#45;&gt;AS33891</title>
<path fill="none" stroke="black" stroke-width="4.5" d="M220.883,-299.842C229.089,-299.842 237.761,-299.842 246.233,-299.842"/>
<polygon fill="black" stroke="black" stroke-width="4.5" points="246.424,-303.779 256.424,-299.842 246.424,-295.904 246.424,-303.779"/>
</g>
<!-- AS12586 -->
<g id="node20" class="node"><title>AS12586</title>
<g id="a_node20"><a xlink:href="/asn/12586" xlink:title="AS12586 ~ GHOSTnet GmbH [DE]">
<ellipse fill="#ffffff" stroke="black" cx="300.78" cy="-230.842" rx="44.393" ry="18"/>
<text text-anchor="middle" x="300.78" y="-227.142" font-family="Times,serif" font-size="14.00" fill="#2c94b3">AS12586</text>
</a>
</g>
</g>
<!-- AS30823&#45;&gt;AS12586 -->
<g id="edge35" class="edge"><title>AS30823&#45;&gt;AS12586</title>
<path fill="none" stroke="black" stroke-width="0.25" d="M203.045,-285.377C221.159,-275.165 245.631,-261.368 265.429,-250.207"/>
<polygon fill="black" stroke="black" stroke-width="0.25" points="267.164,-253.247 274.156,-245.287 263.726,-247.149 267.164,-253.247"/>
</g>
<!-- AS174 -->
<g id="node7" class="node"><title>AS174</title>
<g id="a_node7"><a xlink:href="/asn/174" xlink:title="AS174 ~ Cogent Communications [US]">
<ellipse fill="#ffffff" stroke="black" cx="651.208" cy="-507.842" rx="35.194" ry="18"/>
<text text-anchor="middle" x="651.208" y="-504.142" font-family="Times,serif" font-size="14.00" fill="#2c94b3">AS174</text>
</a>
</g>
</g>
<!-- AS3257&#45;&gt;AS174 -->
<g id="edge6" class="edge"><title>AS3257&#45;&gt;AS174</title>
<path fill="none" stroke="black" d="M436.402,-232.61C465.04,-265.504 529.334,-341.353 575.562,-410.842 593.853,-438.337 590.477,-450.425 611.562,-475.842 614.666,-479.584 618.253,-483.215 621.966,-486.606"/>
<polygon fill="black" stroke="black" points="619.776,-489.339 629.648,-493.188 624.331,-484.023 619.776,-489.339"/>
</g>
<!-- AS3356 -->
<g id="node8" class="node"><title>AS3356</title>
<g id="a_node8"><a xlink:href="/asn/3356" xlink:title="AS3356 ~ Level 3 Parent, LLC [US]">
<ellipse fill="#ffffff" stroke="black" cx="535.915" cy="-231.842" rx="39.7935" ry="18"/>
<text text-anchor="middle" x="535.915" y="-228.142" font-family="Times,serif" font-size="14.00" fill="#2c94b3">AS3356</text>
</a>
</g>
</g>
<!-- AS3257&#45;&gt;AS3356 -->
<g id="edge7" class="edge"><title>AS3257&#45;&gt;AS3356</title>
<path fill="none" stroke="black" d="M458.719,-221.081C468.01,-222.393 478.102,-223.818 487.809,-225.189"/>
<polygon fill="black" stroke="black" points="487.344,-228.658 497.736,-226.591 488.323,-221.727 487.344,-228.658"/>
</g>
<!-- AS6453 -->
<g id="node9" class="node"><title>AS6453</title>
<g id="a_node9"><a xlink:href="/asn/6453" xlink:title="AS6453 ~ TATA COMMUNICATIONS (AMERICA) INC [US]">
<ellipse fill="#ffffff" stroke="black" cx="651.208" cy="-63.8416" rx="39.7935" ry="18"/>
<text text-anchor="middle" x="651.208" y="-60.1416" font-family="Times,serif" font-size="14.00" fill="#2c94b3">AS6453</text>
</a>
</g>
</g>
<!-- AS3257&#45;&gt;AS6453 -->
<g id="edge8" class="edge"><title>AS3257&#45;&gt;AS6453</title>
<path fill="none" stroke="black" d="M443.956,-200.99C485.116,-173.621 572.986,-115.191 619.637,-84.1699"/>
<polygon fill="black" stroke="black" points="621.731,-86.9809 628.12,-78.5292 617.855,-81.152 621.731,-86.9809"/>
</g>
<!-- AS6762 -->
<g id="node10" class="node"><title>AS6762</title>
<g id="a_node10"><a xlink:href="/asn/6762" xlink:title="AS6762 ~ TELECOM ITALIA SPARKLE S.p.A. [IT]">
<ellipse fill="#ffffff" stroke="black" cx="771.051" cy="-155.842" rx="39.7935" ry="18"/>
<text text-anchor="middle" x="771.051" y="-152.142" font-family="Times,serif" font-size="14.00" fill="#2c94b3">AS6762</text>
</a>
</g>
</g>
<!-- AS3257&#45;&gt;AS6762 -->
<g id="edge9" class="edge"><title>AS3257&#45;&gt;AS6762</title>
<path fill="none" stroke="black" d="M431.655,-198.536C444.686,-177.02 469.013,-139.951 496.269,-113.842 540.765,-71.2162 552.595,-54.7221 611.562,-36.8416 645.287,-26.6152 661.747,-16.9747 690.855,-36.8416 727.121,-61.5941 698.819,-95.0498 726.855,-128.842 729.255,-131.734 732.048,-134.411 735.039,-136.863"/>
<polygon fill="black" stroke="black" points="733.126,-139.799 743.279,-142.825 737.229,-134.127 733.126,-139.799"/>
</g>
<!-- AS3491 -->
<g id="node11" class="node"><title>AS3491</title>
<g id="a_node11"><a xlink:href="/asn/3491" xlink:title="AS3491 ~ PCCW Global, Inc. [US]">
<ellipse fill="#ffffff" stroke="black" cx="771.051" cy="-101.842" rx="39.7935" ry="18"/>
<text text-anchor="middle" x="771.051" y="-98.1416" font-family="Times,serif" font-size="14.00" fill="#2c94b3">AS3491</text>
</a>
</g>
</g>
<!-- AS3257&#45;&gt;AS3491 -->
<g id="edge10" class="edge"><title>AS3257&#45;&gt;AS3491</title>
<path fill="none" stroke="black" d="M424.152,-197.826C430.044,-162.945 448.049,-86.1714 496.269,-46.8416 563.837,8.26944 610.383,11.7292 690.855,-21.8416 717.132,-32.8039 739.15,-57.1983 753.246,-76.1863"/>
<polygon fill="black" stroke="black" points="750.494,-78.3556 759.152,-84.4624 756.192,-74.2894 750.494,-78.3556"/>
</g>
<!-- AS2497 -->
<g id="node12" class="node"><title>AS2497</title>
<g id="a_node12"><a xlink:href="/asn/2497" xlink:title="AS2497 ~ Internet Initiative Japan Inc. [JP]">
<ellipse fill="#ffffff" stroke="black" cx="771.051" cy="-442.842" rx="39.7935" ry="18"/>
<text text-anchor="middle" x="771.051" y="-439.142" font-family="Times,serif" font-size="14.00" fill="#2c94b3">AS2497</text>
</a>
</g>
</g>
<!-- AS3257&#45;&gt;AS2497 -->
<g id="edge11" class="edge"><title>AS3257&#45;&gt;AS2497</title>
<path fill="none" stroke="black" d="M445.771,-229.883C460.359,-238.333 479.344,-249.272 496.269,-258.842 531.352,-278.679 550.323,-271.419 575.562,-302.842 610.697,-346.586 568.665,-387.676 611.562,-423.842 642.091,-449.581 688.465,-452.364 723.174,-449.879"/>
<polygon fill="black" stroke="black" points="723.89,-453.329 733.541,-448.958 723.271,-446.357 723.89,-453.329"/>
</g>
<!-- AS1299&#45;&gt;AS2914 -->
<g id="edge22" class="edge"><title>AS1299&#45;&gt;AS2914</title>
<path fill="none" stroke="black" d="M453.587,-408.653C484.808,-398.607 533.616,-382.651 575.562,-367.842 587.07,-363.779 599.505,-359.193 610.865,-354.927"/>
<polygon fill="black" stroke="black" points="612.401,-358.088 620.52,-351.281 609.928,-351.539 612.401,-358.088"/>
</g>
<!-- AS1299&#45;&gt;AS174 -->
<g id="edge18" class="edge"><title>AS1299&#45;&gt;AS174</title>
<path fill="none" stroke="black" stroke-width="2" d="M428.768,-436.623C439.428,-460.429 461.99,-501.654 496.269,-518.842 532.47,-536.993 579.584,-529.877 612.106,-521.002"/>
<polygon fill="black" stroke="black" stroke-width="2" points="613.496,-524.243 622.12,-518.089 611.54,-517.522 613.496,-524.243"/>
</g>
<!-- AS1299&#45;&gt;AS3356 -->
<g id="edge20" class="edge"><title>AS1299&#45;&gt;AS3356</title>
<path fill="none" stroke="black" stroke-width="2" d="M432.078,-401.584C452.008,-368.688 495.542,-296.83 519.07,-257.995"/>
<polygon fill="black" stroke="black" stroke-width="2" points="522.132,-259.695 524.321,-249.329 516.145,-256.068 522.132,-259.695"/>
</g>
<!-- AS1299&#45;&gt;AS2497 -->
<g id="edge23" class="edge"><title>AS1299&#45;&gt;AS2497</title>
<path fill="none" stroke="black" d="M426.697,-436.631C435.619,-464.148 457.002,-516.12 496.269,-537.842 512.058,-546.576 674.442,-542.629 690.855,-534.842 719.844,-521.087 742.363,-491.152 755.855,-469.148"/>
<polygon fill="black" stroke="black" points="759.022,-470.667 761.077,-460.274 752.989,-467.117 759.022,-470.667"/>
</g>
<!-- AS7018 -->
<g id="node15" class="node"><title>AS7018</title>
<g id="a_node15"><a xlink:href="/asn/7018" xlink:title="AS7018 ~ AT&amp;T Services, Inc. [US]">
<ellipse fill="#ffffff" stroke="black" cx="535.915" cy="-491.842" rx="39.7935" ry="18"/>
<text text-anchor="middle" x="535.915" y="-488.142" font-family="Times,serif" font-size="14.00" fill="#2c94b3">AS7018</text>
</a>
</g>
</g>
<!-- AS1299&#45;&gt;AS7018 -->
<g id="edge19" class="edge"><title>AS1299&#45;&gt;AS7018</title>
<path fill="none" stroke="black" stroke-width="2" d="M444.276,-433.439C461.335,-444.43 484.919,-459.626 503.754,-471.763"/>
<polygon fill="black" stroke="black" stroke-width="2" points="501.998,-474.795 512.3,-477.27 505.79,-468.911 501.998,-474.795"/>
</g>
<!-- AS1239 -->
<g id="node16" class="node"><title>AS1239</title>
<g id="a_node16"><a xlink:href="/asn/1239" xlink:title="AS1239 ~ Sprint [US]">
<ellipse fill="#ffffff" stroke="black" cx="535.915" cy="-437.842" rx="39.7935" ry="18"/>
<text text-anchor="middle" x="535.915" y="-434.142" font-family="Times,serif" font-size="14.00" fill="#2c94b3">AS1239</text>
</a>
</g>
</g>
<!-- AS1299&#45;&gt;AS1239 -->
<g id="edge21" class="edge"><title>AS1299&#45;&gt;AS1239</title>
<path fill="none" stroke="black" stroke-width="2" d="M458.092,-424.958C467.795,-426.585 478.407,-428.365 488.561,-430.068"/>
<polygon fill="black" stroke="black" stroke-width="2" points="488.072,-433.534 498.513,-431.737 489.23,-426.631 488.072,-433.534"/>
</g>
<!-- AS2914&#45;&gt;AS3356 -->
<g id="edge14" class="edge"><title>AS2914&#45;&gt;AS3356</title>
<path fill="none" stroke="black" stroke-width="2" d="M619.497,-328.778C616.714,-326.584 614.021,-324.243 611.562,-321.842 592.227,-302.962 594.109,-292.496 575.562,-272.842 570.013,-266.961 563.408,-261.139 557.242,-255.676"/>
<polygon fill="black" stroke="black" stroke-width="2" points="559.557,-253.051 549.778,-248.972 554.879,-258.258 559.557,-253.051"/>
</g>
<!-- AS2914&#45;&gt;AS6762 -->
<g id="edge15" class="edge"><title>AS2914&#45;&gt;AS6762</title>
<path fill="none" stroke="black" d="M676.245,-325.858C681.483,-322.083 686.695,-317.685 690.855,-312.842 714.423,-285.398 710.582,-272.15 726.855,-239.842 736.536,-220.62 747.643,-199.03 756.171,-182.551"/>
<polygon fill="black" stroke="black" points="759.37,-183.985 760.863,-173.496 753.154,-180.764 759.37,-183.985"/>
</g>
<!-- AS2914&#45;&gt;AS3491 -->
<g id="edge12" class="edge"><title>AS2914&#45;&gt;AS3491</title>
<path fill="none" stroke="black" d="M677.625,-326.299C682.676,-322.552 687.461,-318.055 690.855,-312.842 736.318,-243.008 679.62,-197.489 726.855,-128.842 728.81,-126 731.172,-123.398 733.771,-121.028"/>
<polygon fill="black" stroke="black" points="736.323,-123.48 742.113,-114.607 732.053,-117.933 736.323,-123.48"/>
</g>
<!-- AS2914&#45;&gt;AS2497 -->
<g id="edge13" class="edge"><title>AS2914&#45;&gt;AS2497</title>
<path fill="none" stroke="black" d="M670.363,-355.71C690.028,-372.898 721.577,-400.473 743.909,-419.993"/>
<polygon fill="black" stroke="black" points="741.849,-422.84 751.681,-426.786 746.455,-417.57 741.849,-422.84"/>
</g>
<!-- AS12956 -->
<g id="node13" class="node"><title>AS12956</title>
<g id="a_node13"><a xlink:href="/asn/12956" xlink:title="AS12956 ~ TELXIUS [ES]">
<ellipse fill="#ffffff" stroke="black" cx="771.051" cy="-362.842" rx="44.393" ry="18"/>
<text text-anchor="middle" x="771.051" y="-359.142" font-family="Times,serif" font-size="14.00" fill="#2c94b3">AS12956</text>
</a>
</g>
</g>
<!-- AS2914&#45;&gt;AS12956 -->
<g id="edge16" class="edge"><title>AS2914&#45;&gt;AS12956</title>
<path fill="none" stroke="black" d="M687.885,-346.805C698.258,-348.829 709.775,-351.077 720.825,-353.234"/>
<polygon fill="black" stroke="black" points="720.31,-356.699 730.796,-355.18 721.651,-349.829 720.31,-356.699"/>
</g>
<!-- AS701 -->
<g id="node14" class="node"><title>AS701</title>
<g id="a_node14"><a xlink:href="/asn/701" xlink:title="AS701 ~ UUNET [US]">
<ellipse fill="#ffffff" stroke="black" cx="771.051" cy="-266.842" rx="35.194" ry="18"/>
<text text-anchor="middle" x="771.051" y="-263.142" font-family="Times,serif" font-size="14.00" fill="#2c94b3">AS701</text>
</a>
</g>
</g>
<!-- AS2914&#45;&gt;AS701 -->
<g id="edge17" class="edge"><title>AS2914&#45;&gt;AS701</title>
<path fill="none" stroke="black" d="M675.49,-325.419C693.755,-314.105 719.338,-298.257 739.289,-285.898"/>
<polygon fill="black" stroke="black" points="741.355,-288.735 748.013,-280.493 737.669,-282.784 741.355,-288.735"/>
</g>
<!-- AS3356&#45;&gt;AS2914 -->
<g id="edge26" class="edge"><title>AS3356&#45;&gt;AS2914</title>
<path fill="none" stroke="black" d="M564.693,-244.516C568.481,-247.767 572.214,-251.294 575.562,-254.842 594.109,-274.496 592.227,-284.962 611.562,-303.842 616.25,-308.42 621.786,-312.775 627.181,-316.875"/>
<polygon fill="black" stroke="black" points="625.315,-319.852 635.4,-323.101 629.542,-314.273 625.315,-319.852"/>
</g>
<!-- AS3356&#45;&gt;AS174 -->
<g id="edge32" class="edge"><title>AS3356&#45;&gt;AS174</title>
<path fill="none" stroke="black" d="M548.009,-249.089C556.505,-262.909 568.014,-283.032 575.562,-301.842 598.847,-359.87 588.276,-379.813 611.562,-437.842 617.677,-453.081 626.392,-469.183 633.999,-482.096"/>
<polygon fill="black" stroke="black" points="631.131,-484.118 639.289,-490.877 637.127,-480.505 631.131,-484.118"/>
</g>
<!-- AS3356&#45;&gt;AS6453 -->
<g id="edge28" class="edge"><title>AS3356&#45;&gt;AS6453</title>
<path fill="none" stroke="black" d="M544.194,-213.792C555.781,-186.426 580.337,-133.629 611.562,-95.8416 614.449,-92.3477 617.759,-88.9521 621.201,-85.7593"/>
<polygon fill="black" stroke="black" points="623.575,-88.3325 628.832,-79.1339 618.986,-83.0465 623.575,-88.3325"/>
</g>
<!-- AS3356&#45;&gt;AS6762 -->
<g id="edge33" class="edge"><title>AS3356&#45;&gt;AS6762</title>
<path fill="none" stroke="black" d="M561.931,-218.206C576.172,-210.846 594.522,-202.029 611.562,-195.842 648.629,-182.383 692.153,-171.749 724.203,-164.84"/>
<polygon fill="black" stroke="black" points="725.124,-168.222 734.183,-162.728 723.675,-161.374 725.124,-168.222"/>
</g>
<!-- AS3356&#45;&gt;AS3491 -->
<g id="edge30" class="edge"><title>AS3356&#45;&gt;AS3491</title>
<path fill="none" stroke="black" d="M553.625,-215.54C568.085,-202.052 590.008,-183.033 611.562,-169.842 649.17,-146.825 695.957,-127.786 728.917,-115.766"/>
<polygon fill="black" stroke="black" points="730.446,-118.936 738.676,-112.264 728.082,-112.347 730.446,-118.936"/>
</g>
<!-- AS3356&#45;&gt;AS2497 -->
<g id="edge27" class="edge"><title>AS3356&#45;&gt;AS2497</title>
<path fill="none" stroke="black" d="M559.173,-246.484C565.215,-251.381 571.267,-257.283 575.562,-263.842 607.236,-312.207 571.673,-346.992 611.562,-388.842 640.312,-419.005 686.559,-432.32 721.693,-438.197"/>
<polygon fill="black" stroke="black" points="721.332,-441.682 731.746,-439.729 722.387,-434.762 721.332,-441.682"/>
</g>
<!-- AS3356&#45;&gt;AS12956 -->
<g id="edge29" class="edge"><title>AS3356&#45;&gt;AS12956</title>
<path fill="none" stroke="black" d="M558.944,-246.639C564.98,-251.54 571.085,-257.405 575.562,-263.842 603.251,-303.652 572.017,-338.773 611.562,-366.842 644.86,-390.477 692.791,-385.375 727.212,-376.905"/>
<polygon fill="black" stroke="black" points="728.21,-380.262 736.984,-374.323 726.421,-373.494 728.21,-380.262"/>
</g>
<!-- AS3356&#45;&gt;AS701 -->
<g id="edge31" class="edge"><title>AS3356&#45;&gt;AS701</title>
<path fill="none" stroke="black" d="M563.983,-219.08C595.246,-206.155 647.889,-190.024 690.855,-204.842 713.065,-212.501 733.805,-229.236 748.485,-243.39"/>
<polygon fill="black" stroke="black" points="746.041,-245.896 755.585,-250.495 750.992,-240.947 746.041,-245.896"/>
</g>
<!-- AS3549 -->
<g id="node17" class="node"><title>AS3549</title>
<g id="a_node17"><a xlink:href="/asn/3549" xlink:title="AS3549 ~ Level 3 Parent, LLC [US]">
<ellipse fill="#ffffff" stroke="black" cx="651.208" cy="-285.842" rx="39.7935" ry="18"/>
<text text-anchor="middle" x="651.208" y="-282.142" font-family="Times,serif" font-size="14.00" fill="#2c94b3">AS3549</text>
</a>
</g>
</g>
<!-- AS3356&#45;&gt;AS3549 -->
<g id="edge24" class="edge"><title>AS3356&#45;&gt;AS3549</title>
<path fill="none" stroke="black" stroke-width="3" d="M564.052,-244.776C579.046,-251.923 597.867,-260.894 614.09,-268.626"/>
<polygon fill="black" stroke="black" stroke-width="3" points="612.76,-271.87 623.293,-273.013 615.772,-265.551 612.76,-271.87"/>
</g>
<!-- AS209 -->
<g id="node18" class="node"><title>AS209</title>
<g id="a_node18"><a xlink:href="/asn/209" xlink:title="AS209 ~ CenturyLink Communications, LLC [US]">
<ellipse fill="#ffffff" stroke="black" cx="651.208" cy="-231.842" rx="35.194" ry="18"/>
<text text-anchor="middle" x="651.208" y="-228.142" font-family="Times,serif" font-size="14.00" fill="#2c94b3">AS209</text>
</a>
</g>
</g>
<!-- AS3356&#45;&gt;AS209 -->
<g id="edge25" class="edge"><title>AS3356&#45;&gt;AS209</title>
<path fill="none" stroke="black" stroke-width="2" d="M575.587,-231.842C585.293,-231.842 595.784,-231.842 605.746,-231.842"/>
<polygon fill="black" stroke="black" stroke-width="2" points="605.883,-235.342 615.883,-231.842 605.883,-228.342 605.883,-235.342"/>
</g>
<!-- AS33891&#45;&gt;AS1299 -->
<g id="edge37" class="edge"><title>AS33891&#45;&gt;AS1299</title>
<path fill="none" stroke="black" stroke-width="2.45455" d="M327.893,-314.223C333.779,-317.982 339.807,-322.273 344.976,-326.842 367.293,-346.57 388.249,-373.419 402.242,-393.02"/>
<polygon fill="black" stroke="black" stroke-width="2.45455" points="399.555,-395.284 408.161,-401.463 405.287,-391.266 399.555,-395.284"/>
</g>
<!-- AS33891&#45;&gt;AS3356 -->
<g id="edge36" class="edge"><title>AS33891&#45;&gt;AS3356</title>
<path fill="none" stroke="black" stroke-width="4.5" d="M337.188,-289.514C378.873,-277.355 448.048,-257.179 492.542,-244.201"/>
<polygon fill="black" stroke="black" stroke-width="4.5" points="493.694,-247.966 502.192,-241.386 491.489,-240.406 493.694,-247.966"/>
</g>
<!-- AS6461 -->
<g id="node21" class="node"><title>AS6461</title>
<g id="a_node21"><a xlink:href="/asn/6461" xlink:title="AS6461 ~ Zayo Bandwidth [US]">
<ellipse fill="#ffffff" stroke="black" cx="420.622" cy="-307.842" rx="39.7935" ry="18"/>
<text text-anchor="middle" x="420.622" y="-304.142" font-family="Times,serif" font-size="14.00" fill="#2c94b3">AS6461</text>
</a>
</g>
</g>
<!-- AS33891&#45;&gt;AS6461 -->
<g id="edge38" class="edge"><title>AS33891&#45;&gt;AS6461</title>
<path fill="none" stroke="black" stroke-width="0.409091" d="M344.657,-302.752C353.266,-303.337 362.369,-303.955 371.152,-304.551"/>
<polygon fill="black" stroke="black" stroke-width="0.409091" points="371.053,-308.052 381.267,-305.238 371.527,-301.068 371.053,-308.052"/>
</g>
<!-- AS12586&#45;&gt;AS3257 -->
<g id="edge39" class="edge"><title>AS12586&#45;&gt;AS3257</title>
<path fill="none" stroke="black" d="M343.327,-225.553C352.573,-224.376 362.445,-223.12 371.917,-221.914"/>
<polygon fill="black" stroke="black" points="372.51,-225.367 381.988,-220.632 371.626,-218.423 372.51,-225.367"/>
</g>
</g>
</svg>
