<?xml version="1.0" encoding="UTF-8" standalone="no"?>
<!DOCTYPE svg PUBLIC "-//W3C//DTD SVG 1.1//EN"
 "http://www.w3.org/Graphics/SVG/1.1/DTD/svg11.dtd">
<!-- Generated by graphviz version 2.38.0 (20140413.2041)
 -->
<!-- Title: AS205989 Combined Upstream Graph Pages: 1 -->
<svg width="948pt" height="588pt"
 viewBox="0.00 0.00 947.64 587.58" xmlns="http://www.w3.org/2000/svg" xmlns:xlink="http://www.w3.org/1999/xlink">
<g id="graph0" class="graph" transform="scale(1 1) rotate(0) translate(4 583.578)">
<title>AS205989 Combined Upstream Graph</title>
<polygon fill="white" stroke="none" points="-4,4 -4,-583.578 943.639,-583.578 943.639,4 -4,4"/>
<!-- AS205989 -->
<g id="node1" class="node"><title>AS205989</title>
<g id="a_node1"><a xlink:href="/asn/205989" xlink:title="AS205989 ~ RELAXT [AT]">
<ellipse fill="#ffffff" stroke="black" cx="48.0957" cy="-421.578" rx="48.1917" ry="18"/>
<text text-anchor="middle" x="48.0957" y="-417.878" font-family="Times,serif" font-size="14.00" fill="#880000">AS205989</text>
</a>
</g>
</g>
<!-- AS20473 -->
<g id="node2" class="node"><title>AS20473</title>
<g id="a_node2"><a xlink:href="/asn/20473" xlink:title="AS20473 ~ Choopa, LLC [US]">
<ellipse fill="#ffffff" stroke="black" cx="300.78" cy="-444.578" rx="44.393" ry="18"/>
<text text-anchor="middle" x="300.78" y="-440.878" font-family="Times,serif" font-size="14.00" fill="#2c94b3">AS20473</text>
</a>
</g>
</g>
<!-- AS205989&#45;&gt;AS20473 -->
<g id="edge1" class="edge"><title>AS205989&#45;&gt;AS20473</title>
<path fill="none" stroke="black" stroke-width="4.5" d="M95.075,-425.796C138.087,-429.743 202.28,-435.632 247.284,-439.761"/>
<polygon fill="black" stroke="black" stroke-width="4.5" points="247.114,-443.7 257.432,-440.693 247.833,-435.858 247.114,-443.7"/>
</g>
<!-- AS30823 -->
<g id="node3" class="node"><title>AS30823</title>
<g id="a_node3"><a xlink:href="/asn/30823" xlink:title="AS30823 ~ combahton GmbH [DE]">
<ellipse fill="#ffffff" stroke="black" cx="176.388" cy="-398.578" rx="44.393" ry="18"/>
<text text-anchor="middle" x="176.388" y="-394.878" font-family="Times,serif" font-size="14.00" fill="#2c94b3">AS30823</text>
</a>
</g>
</g>
<!-- AS205989&#45;&gt;AS30823 -->
<g id="edge2" class="edge"><title>AS205989&#45;&gt;AS30823</title>
<path fill="none" stroke="black" stroke-width="3.375" d="M91.8524,-413.791C102.7,-411.816 114.448,-409.676 125.611,-407.643"/>
<polygon fill="black" stroke="black" stroke-width="3.375" points="126.444,-411.049 135.656,-405.814 125.19,-404.162 126.444,-411.049"/>
</g>
<!-- AS2914 -->
<g id="node4" class="node"><title>AS2914</title>
<g id="a_node4"><a xlink:href="/asn/2914" xlink:title="AS2914 ~ NTT America, Inc. [US]">
<ellipse fill="#ffffff" stroke="black" cx="545.014" cy="-469.578" rx="39.7935" ry="18"/>
<text text-anchor="middle" x="545.014" y="-465.878" font-family="Times,serif" font-size="14.00" fill="#2c94b3">AS2914</text>
</a>
</g>
</g>
<!-- AS20473&#45;&gt;AS2914 -->
<g id="edge3" class="edge"><title>AS20473&#45;&gt;AS2914</title>
<path fill="none" stroke="black" stroke-width="4.5" d="M343.697,-448.904C386.159,-453.286 451.747,-460.055 496.207,-464.644"/>
<polygon fill="black" stroke="black" stroke-width="4.5" points="495.84,-468.564 506.191,-465.674 496.648,-460.731 495.84,-468.564"/>
</g>
<!-- AS1299 -->
<g id="node5" class="node"><title>AS1299</title>
<g id="a_node5"><a xlink:href="/asn/1299" xlink:title="AS1299 ~ Telia Carrier [EU]">
<ellipse fill="#ffffff" stroke="black" cx="425.172" cy="-262.578" rx="39.7935" ry="18"/>
<text text-anchor="middle" x="425.172" y="-258.878" font-family="Times,serif" font-size="14.00" fill="#2c94b3">AS1299</text>
</a>
</g>
</g>
<!-- AS20473&#45;&gt;AS1299 -->
<g id="edge4" class="edge"><title>AS20473&#45;&gt;AS1299</title>
<path fill="none" stroke="black" stroke-width="2.75" d="M313.515,-427.127C335.228,-394.839 381.755,-325.653 407.01,-288.097"/>
<polygon fill="black" stroke="black" stroke-width="2.75" points="409.975,-289.962 412.651,-279.71 404.166,-286.055 409.975,-289.962"/>
</g>
<!-- AS3257 -->
<g id="node6" class="node"><title>AS3257</title>
<g id="a_node6"><a xlink:href="/asn/3257" xlink:title="AS3257 ~ GTT [DE]">
<ellipse fill="#ffffff" stroke="black" cx="784.7" cy="-431.578" rx="39.7935" ry="18"/>
<text text-anchor="middle" x="784.7" y="-427.878" font-family="Times,serif" font-size="14.00" fill="#2c94b3">AS3257</text>
</a>
</g>
</g>
<!-- AS20473&#45;&gt;AS3257 -->
<g id="edge5" class="edge"><title>AS20473&#45;&gt;AS3257</title>
<path fill="none" stroke="black" stroke-width="2.5" d="M333.06,-457.192C385.095,-476.629 492.802,-510.296 584.661,-496.578 642.828,-487.891 706.971,-464.223 746.304,-447.979"/>
<polygon fill="black" stroke="black" stroke-width="2.5" points="747.879,-451.114 755.751,-444.022 745.175,-444.657 747.879,-451.114"/>
</g>
<!-- AS3356 -->
<g id="node7" class="node"><title>AS3356</title>
<g id="a_node7"><a xlink:href="/asn/3356" xlink:title="AS3356 ~ Level 3 Parent, LLC [US]">
<ellipse fill="#ffffff" stroke="black" cx="664.857" cy="-247.578" rx="39.7935" ry="18"/>
<text text-anchor="middle" x="664.857" y="-243.878" font-family="Times,serif" font-size="14.00" fill="#2c94b3">AS3356</text>
</a>
</g>
</g>
<!-- AS20473&#45;&gt;AS3356 -->
<g id="edge6" class="edge"><title>AS20473&#45;&gt;AS3356</title>
<path fill="none" stroke="black" stroke-width="1.25" d="M345.04,-444.089C415.295,-442.397 549.859,-435.136 584.661,-404.578 629.711,-365.021 584.802,-322.624 620.661,-274.578 622.909,-271.566 625.601,-268.81 628.528,-266.307"/>
<polygon fill="black" stroke="black" stroke-width="1.25" points="630.723,-269.037 636.68,-260.276 626.559,-263.41 630.723,-269.037"/>
</g>
<!-- AS33891 -->
<g id="node21" class="node"><title>AS33891</title>
<g id="a_node21"><a xlink:href="/asn/33891" xlink:title="AS33891 ~ CORE&#45;BACKBONE GMBH GLOBAL NETWORK [DE]">
<ellipse fill="#ffffff" stroke="black" cx="300.78" cy="-201.578" rx="44.393" ry="18"/>
<text text-anchor="middle" x="300.78" y="-197.878" font-family="Times,serif" font-size="14.00" fill="#2c94b3">AS33891</text>
</a>
</g>
</g>
<!-- AS30823&#45;&gt;AS33891 -->
<g id="edge39" class="edge"><title>AS30823&#45;&gt;AS33891</title>
<path fill="none" stroke="black" stroke-width="4.5" d="M188.249,-381.095C209.842,-346.34 258.261,-268.406 283.609,-227.606"/>
<polygon fill="black" stroke="black" stroke-width="4.5" points="287.01,-229.593 288.943,-219.021 280.321,-225.437 287.01,-229.593"/>
</g>
<!-- AS12586 -->
<g id="node22" class="node"><title>AS12586</title>
<g id="a_node22"><a xlink:href="/asn/12586" xlink:title="AS12586 ~ GHOSTnet GmbH [DE]">
<ellipse fill="#ffffff" stroke="black" cx="425.172" cy="-561.578" rx="44.393" ry="18"/>
<text text-anchor="middle" x="425.172" y="-557.878" font-family="Times,serif" font-size="14.00" fill="#2c94b3">AS12586</text>
</a>
</g>
</g>
<!-- AS30823&#45;&gt;AS12586 -->
<g id="edge40" class="edge"><title>AS30823&#45;&gt;AS12586</title>
<path fill="none" stroke="black" stroke-width="0.140625" d="M193.322,-415.547C208.611,-431.251 232.821,-454.658 256.584,-471.578 298.018,-501.082 350.257,-527.661 385.302,-544.156"/>
<polygon fill="black" stroke="black" stroke-width="0.140625" points="384.164,-547.487 394.707,-548.535 387.119,-541.141 384.164,-547.487"/>
</g>
<!-- AS2914&#45;&gt;AS3356 -->
<g id="edge10" class="edge"><title>AS2914&#45;&gt;AS3356</title>
<path fill="none" stroke="black" stroke-width="3" d="M560.979,-452.84C569.188,-446.094 578.849,-438.094 584.661,-428.578 623.331,-365.263 577.871,-326.185 620.661,-265.578 621.196,-264.819 621.761,-264.078 622.351,-263.353"/>
<polygon fill="black" stroke="black" stroke-width="3" points="624.853,-265.801 629.496,-256.278 619.928,-260.827 624.853,-265.801"/>
</g>
<!-- AS3491 -->
<g id="node8" class="node"><title>AS3491</title>
<g id="a_node8"><a xlink:href="/asn/3491" xlink:title="AS3491 ~ PCCW Global, Inc. [US]">
<ellipse fill="#ffffff" stroke="black" cx="664.857" cy="-301.578" rx="39.7935" ry="18"/>
<text text-anchor="middle" x="664.857" y="-297.878" font-family="Times,serif" font-size="14.00" fill="#2c94b3">AS3491</text>
</a>
</g>
</g>
<!-- AS2914&#45;&gt;AS3491 -->
<g id="edge7" class="edge"><title>AS2914&#45;&gt;AS3491</title>
<path fill="none" stroke="black" stroke-width="2" d="M568.055,-454.789C574.091,-449.889 580.194,-444.021 584.661,-437.578 612.53,-397.381 591.717,-373.008 620.661,-333.578 623.757,-329.36 627.569,-325.455 631.634,-321.928"/>
<polygon fill="black" stroke="black" stroke-width="2" points="633.947,-324.561 639.643,-315.628 629.619,-319.06 633.947,-324.561"/>
</g>
<!-- AS12956 -->
<g id="node9" class="node"><title>AS12956</title>
<g id="a_node9"><a xlink:href="/asn/12956" xlink:title="AS12956 ~ TELXIUS [ES]">
<ellipse fill="#ffffff" stroke="black" cx="664.857" cy="-431.578" rx="44.393" ry="18"/>
<text text-anchor="middle" x="664.857" y="-427.878" font-family="Times,serif" font-size="14.00" fill="#2c94b3">AS12956</text>
</a>
</g>
</g>
<!-- AS2914&#45;&gt;AS12956 -->
<g id="edge8" class="edge"><title>AS2914&#45;&gt;AS12956</title>
<path fill="none" stroke="black" stroke-width="2" d="M577.904,-459.295C590.739,-455.156 605.759,-450.312 619.621,-445.843"/>
<polygon fill="black" stroke="black" stroke-width="2" points="621.018,-449.069 629.461,-442.669 618.87,-442.407 621.018,-449.069"/>
</g>
<!-- AS6762 -->
<g id="node10" class="node"><title>AS6762</title>
<g id="a_node10"><a xlink:href="/asn/6762" xlink:title="AS6762 ~ TELECOM ITALIA SPARKLE S.p.A. [IT]">
<ellipse fill="#ffffff" stroke="black" cx="899.993" cy="-385.578" rx="39.7935" ry="18"/>
<text text-anchor="middle" x="899.993" y="-381.878" font-family="Times,serif" font-size="14.00" fill="#2c94b3">AS6762</text>
</a>
</g>
</g>
<!-- AS2914&#45;&gt;AS6762 -->
<g id="edge9" class="edge"><title>AS2914&#45;&gt;AS6762</title>
<path fill="none" stroke="black" stroke-width="2" d="M565.439,-453.815C571.637,-448.701 578.487,-442.957 584.661,-437.578 601.025,-423.319 600.712,-413.131 620.661,-404.578 696.302,-372.146 794.156,-374.397 851.408,-379.578"/>
<polygon fill="black" stroke="black" stroke-width="2" points="851.319,-383.086 861.611,-380.571 851.997,-376.119 851.319,-383.086"/>
</g>
<!-- AS6461 -->
<g id="node11" class="node"><title>AS6461</title>
<g id="a_node11"><a xlink:href="/asn/6461" xlink:title="AS6461 ~ Zayo Bandwidth [US]">
<ellipse fill="#ffffff" stroke="black" cx="664.857" cy="-41.5779" rx="39.7935" ry="18"/>
<text text-anchor="middle" x="664.857" y="-37.8779" font-family="Times,serif" font-size="14.00" fill="#2c94b3">AS6461</text>
</a>
</g>
</g>
<!-- AS2914&#45;&gt;AS6461 -->
<g id="edge11" class="edge"><title>AS2914&#45;&gt;AS6461</title>
<path fill="none" stroke="black" stroke-width="2" d="M558.79,-452.62C567.574,-440.039 578.692,-422.101 584.661,-404.578 627.678,-278.296 574.492,-231.742 620.661,-106.578 625.929,-92.2947 634.894,-78.028 643.296,-66.5148"/>
<polygon fill="black" stroke="black" stroke-width="2" points="646.28,-68.3732 649.541,-58.2927 640.705,-64.1395 646.28,-68.3732"/>
</g>
<!-- AS2497 -->
<g id="node12" class="node"><title>AS2497</title>
<g id="a_node12"><a xlink:href="/asn/2497" xlink:title="AS2497 ~ Internet Initiative Japan Inc. [JP]">
<ellipse fill="#ffffff" stroke="black" cx="899.993" cy="-523.578" rx="39.7935" ry="18"/>
<text text-anchor="middle" x="899.993" y="-519.878" font-family="Times,serif" font-size="14.00" fill="#2c94b3">AS2497</text>
</a>
</g>
</g>
<!-- AS2914&#45;&gt;AS2497 -->
<g id="edge12" class="edge"><title>AS2914&#45;&gt;AS2497</title>
<path fill="none" stroke="black" stroke-width="2" d="M574.981,-481.449C588.623,-486.576 605.252,-492.169 620.661,-495.578 699.898,-513.107 794.28,-519.682 850.276,-522.135"/>
<polygon fill="black" stroke="black" stroke-width="2" points="850.137,-525.632 860.272,-522.547 850.425,-518.638 850.137,-525.632"/>
</g>
<!-- AS701 -->
<g id="node13" class="node"><title>AS701</title>
<g id="a_node13"><a xlink:href="/asn/701" xlink:title="AS701 ~ UUNET [US]">
<ellipse fill="#ffffff" stroke="black" cx="899.993" cy="-469.578" rx="35.194" ry="18"/>
<text text-anchor="middle" x="899.993" y="-465.878" font-family="Times,serif" font-size="14.00" fill="#2c94b3">AS701</text>
</a>
</g>
</g>
<!-- AS2914&#45;&gt;AS701 -->
<g id="edge13" class="edge"><title>AS2914&#45;&gt;AS701</title>
<path fill="none" stroke="black" d="M583.004,-474.791C636.393,-481.556 738.113,-491.595 824.346,-483.578 835.191,-482.57 846.808,-480.755 857.571,-478.758"/>
<polygon fill="black" stroke="black" points="858.43,-482.157 867.576,-476.809 857.091,-475.286 858.43,-482.157"/>
</g>
<!-- AS6453 -->
<g id="node14" class="node"><title>AS6453</title>
<g id="a_node14"><a xlink:href="/asn/6453" xlink:title="AS6453 ~ TATA COMMUNICATIONS (AMERICA) INC [US]">
<ellipse fill="#ffffff" stroke="black" cx="899.993" cy="-282.578" rx="39.7935" ry="18"/>
<text text-anchor="middle" x="899.993" y="-278.878" font-family="Times,serif" font-size="14.00" fill="#2c94b3">AS6453</text>
</a>
</g>
</g>
<!-- AS2914&#45;&gt;AS6453 -->
<g id="edge14" class="edge"><title>AS2914&#45;&gt;AS6453</title>
<path fill="none" stroke="black" d="M566.872,-454.513C573.006,-449.523 579.46,-443.675 584.661,-437.578 605.089,-413.626 596.216,-396.413 620.661,-376.578 657.277,-346.867 786.204,-311.036 854.99,-293.426"/>
<polygon fill="black" stroke="black" points="855.854,-296.818 864.684,-290.963 854.13,-290.033 855.854,-296.818"/>
</g>
<!-- AS1273 -->
<g id="node15" class="node"><title>AS1273</title>
<g id="a_node15"><a xlink:href="/asn/1273" xlink:title="AS1273 ~ Vodafone Group PLC [EU]">
<ellipse fill="#ffffff" stroke="black" cx="664.857" cy="-133.578" rx="39.7935" ry="18"/>
<text text-anchor="middle" x="664.857" y="-129.878" font-family="Times,serif" font-size="14.00" fill="#2c94b3">AS1273</text>
</a>
</g>
</g>
<!-- AS2914&#45;&gt;AS1273 -->
<g id="edge15" class="edge"><title>AS2914&#45;&gt;AS1273</title>
<path fill="none" stroke="black" d="M558.406,-452.481C567.003,-439.833 578.057,-421.871 584.661,-404.578 614.39,-326.733 593.893,-299.49 620.661,-220.578 627.883,-199.288 639.297,-176.579 648.579,-159.702"/>
<polygon fill="black" stroke="black" points="651.636,-161.406 653.476,-150.972 645.531,-157.981 651.636,-161.406"/>
</g>
<!-- AS1299&#45;&gt;AS2914 -->
<g id="edge36" class="edge"><title>AS1299&#45;&gt;AS2914</title>
<path fill="none" stroke="black" stroke-width="2" d="M435.771,-280.154C450.515,-307.07 479.726,-360.06 505.368,-404.578 512.762,-417.415 521.146,-431.563 528.211,-443.373"/>
<polygon fill="black" stroke="black" stroke-width="2" points="525.404,-445.499 533.549,-452.274 531.407,-441.898 525.404,-445.499"/>
</g>
<!-- AS1299&#45;&gt;AS3356 -->
<g id="edge32" class="edge"><title>AS1299&#45;&gt;AS3356</title>
<path fill="none" stroke="black" d="M464.624,-260.151C505.702,-257.559 570.902,-253.444 615.447,-250.633"/>
<polygon fill="black" stroke="black" points="615.7,-254.124 625.46,-250.001 615.259,-247.138 615.7,-254.124"/>
</g>
<!-- AS1299&#45;&gt;AS3491 -->
<g id="edge37" class="edge"><title>AS1299&#45;&gt;AS3491</title>
<path fill="none" stroke="black" stroke-width="2" d="M462.789,-268.586C504.227,-275.385 571.824,-286.477 617.058,-293.899"/>
<polygon fill="black" stroke="black" stroke-width="2" points="616.763,-297.397 627.198,-295.563 617.897,-290.49 616.763,-297.397"/>
</g>
<!-- AS1299&#45;&gt;AS6453 -->
<g id="edge35" class="edge"><title>AS1299&#45;&gt;AS6453</title>
<path fill="none" stroke="black" stroke-width="2" d="M439.803,-245.785C468.772,-211.6 540.418,-134.783 620.661,-106.578 706.065,-76.5583 750.282,-54.5238 824.346,-106.578 862.992,-133.74 841.604,-163.218 860.346,-206.578 867.621,-223.408 876.904,-241.745 884.548,-256.189"/>
<polygon fill="black" stroke="black" stroke-width="2" points="881.493,-257.899 889.297,-265.064 887.665,-254.596 881.493,-257.899"/>
</g>
<!-- AS174 -->
<g id="node16" class="node"><title>AS174</title>
<g id="a_node16"><a xlink:href="/asn/174" xlink:title="AS174 ~ Cogent Communications [US]">
<ellipse fill="#ffffff" stroke="black" cx="899.993" cy="-179.578" rx="35.194" ry="18"/>
<text text-anchor="middle" x="899.993" y="-175.878" font-family="Times,serif" font-size="14.00" fill="#2c94b3">AS174</text>
</a>
</g>
</g>
<!-- AS1299&#45;&gt;AS174 -->
<g id="edge31" class="edge"><title>AS1299&#45;&gt;AS174</title>
<path fill="none" stroke="black" stroke-width="4" d="M432.648,-244.744C451.871,-195.034 514.016,-55.8624 620.661,-14.5779 708.326,19.359 753.215,-10.1184 824.346,-71.5779 851.143,-94.7315 872.909,-129.563 885.881,-153.369"/>
<polygon fill="black" stroke="black" stroke-width="4" points="882.794,-155.019 890.572,-162.213 888.978,-151.739 882.794,-155.019"/>
</g>
<!-- AS209 -->
<g id="node18" class="node"><title>AS209</title>
<g id="a_node18"><a xlink:href="/asn/209" xlink:title="AS209 ~ CenturyLink Communications, LLC [US]">
<ellipse fill="#ffffff" stroke="black" cx="784.7" cy="-133.578" rx="35.194" ry="18"/>
<text text-anchor="middle" x="784.7" y="-129.878" font-family="Times,serif" font-size="14.00" fill="#2c94b3">AS209</text>
</a>
</g>
</g>
<!-- AS1299&#45;&gt;AS209 -->
<g id="edge38" class="edge"><title>AS1299&#45;&gt;AS209</title>
<path fill="none" stroke="black" d="M456.734,-251.569C508.614,-232.879 617.231,-193.738 709.053,-160.578 721.002,-156.263 734.025,-151.554 745.799,-147.295"/>
<polygon fill="black" stroke="black" points="747.132,-150.535 755.345,-143.841 744.751,-143.952 747.132,-150.535"/>
</g>
<!-- AS7018 -->
<g id="node19" class="node"><title>AS7018</title>
<g id="a_node19"><a xlink:href="/asn/7018" xlink:title="AS7018 ~ AT&amp;T Services, Inc. [US]">
<ellipse fill="#ffffff" stroke="black" cx="545.014" cy="-377.578" rx="39.7935" ry="18"/>
<text text-anchor="middle" x="545.014" y="-373.878" font-family="Times,serif" font-size="14.00" fill="#2c94b3">AS7018</text>
</a>
</g>
</g>
<!-- AS1299&#45;&gt;AS7018 -->
<g id="edge33" class="edge"><title>AS1299&#45;&gt;AS7018</title>
<path fill="none" stroke="black" stroke-width="4" d="M439.447,-279.517C454.404,-298.052 479.959,-328.116 505.368,-350.578 507.821,-352.746 510.451,-354.896 513.142,-356.981"/>
<polygon fill="black" stroke="black" stroke-width="4" points="511.163,-359.869 521.288,-362.989 515.318,-354.236 511.163,-359.869"/>
</g>
<!-- AS1239 -->
<g id="node20" class="node"><title>AS1239</title>
<g id="a_node20"><a xlink:href="/asn/1239" xlink:title="AS1239 ~ Sprint [US]">
<ellipse fill="#ffffff" stroke="black" cx="545.014" cy="-323.578" rx="39.7935" ry="18"/>
<text text-anchor="middle" x="545.014" y="-319.878" font-family="Times,serif" font-size="14.00" fill="#2c94b3">AS1239</text>
</a>
</g>
</g>
<!-- AS1299&#45;&gt;AS1239 -->
<g id="edge34" class="edge"><title>AS1299&#45;&gt;AS1239</title>
<path fill="none" stroke="black" stroke-width="3" d="M452.033,-275.965C468.841,-284.665 490.956,-296.113 509.289,-305.603"/>
<polygon fill="black" stroke="black" stroke-width="3" points="507.724,-308.734 518.214,-310.222 510.942,-302.517 507.724,-308.734"/>
</g>
<!-- AS3257&#45;&gt;AS3356 -->
<g id="edge18" class="edge"><title>AS3257&#45;&gt;AS3356</title>
<path fill="none" stroke="black" d="M777.088,-413.878C766.924,-383.92 744.798,-323.682 709.053,-283.578 704.309,-278.255 698.268,-273.607 692.219,-269.455"/>
<polygon fill="black" stroke="black" points="693.774,-266.289 683.499,-263.707 689.922,-272.133 693.774,-266.289"/>
</g>
<!-- AS3257&#45;&gt;AS6762 -->
<g id="edge19" class="edge"><title>AS3257&#45;&gt;AS6762</title>
<path fill="none" stroke="black" stroke-width="2" d="M814.875,-419.732C828.751,-414.098 845.528,-407.286 860.437,-401.232"/>
<polygon fill="black" stroke="black" stroke-width="2" points="861.967,-404.389 869.916,-397.384 859.334,-397.903 861.967,-404.389"/>
</g>
<!-- AS3257&#45;&gt;AS2497 -->
<g id="edge16" class="edge"><title>AS3257&#45;&gt;AS2497</title>
<path fill="none" stroke="black" stroke-width="2" d="M803.047,-447.62C817.896,-461.122 840.033,-480.711 860.346,-496.578 863.073,-498.708 865.954,-500.871 868.863,-502.998"/>
<polygon fill="black" stroke="black" stroke-width="2" points="866.861,-505.87 877.032,-508.84 870.933,-500.176 866.861,-505.87"/>
</g>
<!-- AS3257&#45;&gt;AS701 -->
<g id="edge17" class="edge"><title>AS3257&#45;&gt;AS701</title>
<path fill="none" stroke="black" d="M816.957,-442.062C830.474,-446.596 846.423,-451.945 860.646,-456.716"/>
<polygon fill="black" stroke="black" points="859.573,-460.048 870.167,-459.909 861.799,-453.411 859.573,-460.048"/>
</g>
<!-- AS3257&#45;&gt;AS6453 -->
<g id="edge21" class="edge"><title>AS3257&#45;&gt;AS6453</title>
<path fill="none" stroke="black" d="M798.696,-414.486C818.671,-388.214 857.023,-337.776 880.079,-307.453"/>
<polygon fill="black" stroke="black" points="882.881,-309.549 886.148,-299.471 877.309,-305.313 882.881,-309.549"/>
</g>
<!-- AS3257&#45;&gt;AS174 -->
<g id="edge20" class="edge"><title>AS3257&#45;&gt;AS174</title>
<path fill="none" stroke="black" d="M792.718,-413.914C805.502,-382.003 833.727,-312.746 860.346,-255.578 868.137,-238.846 877.507,-220.384 885.069,-205.846"/>
<polygon fill="black" stroke="black" points="888.206,-207.4 889.743,-196.917 882.004,-204.153 888.206,-207.4"/>
</g>
<!-- AS3356&#45;&gt;AS2914 -->
<g id="edge24" class="edge"><title>AS3356&#45;&gt;AS2914</title>
<path fill="none" stroke="black" stroke-width="2" d="M644.98,-263.344C636.328,-268.65 626.68,-275.053 620.661,-283.578 577.871,-344.185 623.331,-383.263 584.661,-446.578 583.971,-447.707 583.228,-448.815 582.438,-449.898"/>
<polygon fill="black" stroke="black" stroke-width="2" points="579.596,-447.831 575.648,-457.663 584.866,-452.439 579.596,-447.831"/>
</g>
<!-- AS3356&#45;&gt;AS3257 -->
<g id="edge30" class="edge"><title>AS3356&#45;&gt;AS3257</title>
<path fill="none" stroke="black" d="M699.473,-256.869C702.945,-259.479 706.229,-262.409 709.053,-265.578 745.425,-306.385 767.695,-368.038 777.612,-403.801"/>
<polygon fill="black" stroke="black" points="774.258,-404.81 780.189,-413.59 781.028,-403.028 774.258,-404.81"/>
</g>
<!-- AS3356&#45;&gt;AS6762 -->
<g id="edge25" class="edge"><title>AS3356&#45;&gt;AS6762</title>
<path fill="none" stroke="black" stroke-width="2" d="M689.928,-261.827C732.007,-286.734 818.965,-338.207 866.396,-366.283"/>
<polygon fill="black" stroke="black" stroke-width="2" points="864.664,-369.325 875.052,-371.407 868.229,-363.301 864.664,-369.325"/>
</g>
<!-- AS3356&#45;&gt;AS2497 -->
<g id="edge26" class="edge"><title>AS3356&#45;&gt;AS2497</title>
<path fill="none" stroke="black" stroke-width="3" d="M693.889,-260.28C699.695,-264.108 705.207,-268.851 709.053,-274.578 761.601,-352.828 681.248,-414.2 745.053,-483.578 771.479,-512.312 815.665,-521.508 849.937,-523.983"/>
<polygon fill="black" stroke="black" stroke-width="3" points="850.046,-527.495 860.224,-524.55 850.431,-520.505 850.046,-527.495"/>
</g>
<!-- AS3356&#45;&gt;AS701 -->
<g id="edge28" class="edge"><title>AS3356&#45;&gt;AS701</title>
<path fill="none" stroke="black" stroke-width="2" d="M693.795,-260.344C699.605,-264.169 705.143,-268.895 709.053,-274.578 756.288,-343.225 682.652,-403.354 745.053,-458.578 775.329,-485.372 823.395,-484.402 857.761,-479.088"/>
<polygon fill="black" stroke="black" stroke-width="2" points="858.695,-482.479 867.952,-477.326 857.502,-475.581 858.695,-482.479"/>
</g>
<!-- AS3356&#45;&gt;AS6453 -->
<g id="edge27" class="edge"><title>AS3356&#45;&gt;AS6453</title>
<path fill="none" stroke="black" stroke-width="3" d="M699.629,-238.685C732.193,-231.627 782.551,-224.734 824.346,-236.578 841.406,-241.412 858.396,-251.371 871.847,-260.79"/>
<polygon fill="black" stroke="black" stroke-width="3" points="870,-263.775 880.141,-266.842 874.126,-258.12 870,-263.775"/>
</g>
<!-- AS3356&#45;&gt;AS174 -->
<g id="edge29" class="edge"><title>AS3356&#45;&gt;AS174</title>
<path fill="none" stroke="black" stroke-width="2" d="M698.765,-237.979C741.007,-225.658 814.228,-204.302 859.45,-191.111"/>
<polygon fill="black" stroke="black" stroke-width="2" points="860.585,-194.426 869.205,-188.266 858.625,-187.706 860.585,-194.426"/>
</g>
<!-- AS3549 -->
<g id="node17" class="node"><title>AS3549</title>
<g id="a_node17"><a xlink:href="/asn/3549" xlink:title="AS3549 ~ Level 3 Parent, LLC [US]">
<ellipse fill="#ffffff" stroke="black" cx="784.7" cy="-263.578" rx="39.7935" ry="18"/>
<text text-anchor="middle" x="784.7" y="-259.878" font-family="Times,serif" font-size="14.00" fill="#2c94b3">AS3549</text>
</a>
</g>
</g>
<!-- AS3356&#45;&gt;AS3549 -->
<g id="edge22" class="edge"><title>AS3356&#45;&gt;AS3549</title>
<path fill="none" stroke="black" stroke-width="4" d="M703.143,-252.64C713.675,-254.07 725.277,-255.646 736.318,-257.145"/>
<polygon fill="black" stroke="black" stroke-width="4" points="735.871,-260.616 746.252,-258.493 736.813,-253.68 735.871,-260.616"/>
</g>
<!-- AS3356&#45;&gt;AS209 -->
<g id="edge23" class="edge"><title>AS3356&#45;&gt;AS209</title>
<path fill="none" stroke="black" stroke-width="3" d="M680.824,-231.028C696.38,-214.083 721.677,-187.233 745.053,-165.578 748.869,-162.043 753.008,-158.415 757.111,-154.932"/>
<polygon fill="black" stroke="black" stroke-width="3" points="759.423,-157.561 764.864,-148.47 754.941,-152.184 759.423,-157.561"/>
</g>
<!-- AS33891&#45;&gt;AS1299 -->
<g id="edge41" class="edge"><title>AS33891&#45;&gt;AS1299</title>
<path fill="none" stroke="black" stroke-width="3" d="M329.552,-215.42C347.05,-224.14 369.805,-235.482 388.616,-244.857"/>
<polygon fill="black" stroke="black" stroke-width="3" points="387.256,-248.09 397.768,-249.418 390.379,-241.825 387.256,-248.09"/>
</g>
<!-- AS33891&#45;&gt;AS3356 -->
<g id="edge42" class="edge"><title>AS33891&#45;&gt;AS3356</title>
<path fill="none" stroke="black" stroke-width="4.5" d="M343.315,-206.855C411.035,-215.458 544.835,-232.457 616.275,-241.533"/>
<polygon fill="black" stroke="black" stroke-width="4.5" points="615.931,-245.458 626.348,-242.813 616.924,-237.646 615.931,-245.458"/>
</g>
<!-- AS33891&#45;&gt;AS6461 -->
<g id="edge43" class="edge"><title>AS33891&#45;&gt;AS6461</title>
<path fill="none" stroke="black" stroke-width="0.25" d="M321.536,-185.666C356.449,-158.38 432.289,-102.787 505.368,-73.5779 541.001,-59.3353 583.773,-51.1788 615.897,-46.6698"/>
<polygon fill="black" stroke="black" stroke-width="0.25" points="616.482,-50.1229 625.931,-45.3309 615.556,-43.1844 616.482,-50.1229"/>
</g>
<!-- AS33891&#45;&gt;AS1273 -->
<g id="edge44" class="edge"><title>AS33891&#45;&gt;AS1273</title>
<path fill="none" stroke="black" stroke-width="0.25" d="M336.739,-190.946C377.021,-179.096 445.381,-160.205 505.368,-149.578 541.822,-143.12 583.489,-139.041 614.949,-136.618"/>
<polygon fill="black" stroke="black" stroke-width="0.25" points="615.49,-140.088 625.204,-135.86 614.973,-133.107 615.49,-140.088"/>
</g>
<!-- AS12586&#45;&gt;AS3257 -->
<g id="edge45" class="edge"><title>AS12586&#45;&gt;AS3257</title>
<path fill="none" stroke="black" d="M467.644,-566.57C525.668,-571.512 632.543,-573.004 709.053,-529.578 737.662,-513.34 758.839,-481.238 771.188,-458.196"/>
<polygon fill="black" stroke="black" points="774.326,-459.748 775.785,-449.254 768.1,-456.547 774.326,-459.748"/>
</g>
</g>
</svg>
