<?xml version="1.0" encoding="UTF-8" standalone="no"?>
<!DOCTYPE svg PUBLIC "-//W3C//DTD SVG 1.1//EN"
 "http://www.w3.org/Graphics/SVG/1.1/DTD/svg11.dtd">
<!-- Generated by graphviz version 2.38.0 (20140413.2041)
 -->
<!-- Title: AS202453 Combined Upstream Graph Pages: 1 -->
<svg width="468pt" height="584pt"
 viewBox="0.00 0.00 468.27 584.00" xmlns="http://www.w3.org/2000/svg" xmlns:xlink="http://www.w3.org/1999/xlink">
<g id="graph0" class="graph" transform="scale(1 1) rotate(0) translate(4 580)">
<title>AS202453 Combined Upstream Graph</title>
<polygon fill="white" stroke="none" points="-4,4 -4,-580 464.269,-580 464.269,4 -4,4"/>
<!-- AS202453 -->
<g id="node1" class="node"><title>AS202453</title>
<g id="a_node1"><a xlink:href="/asn/202453" xlink:title="AS202453 ~ EREMA Group GmbH [AT]">
<ellipse fill="#ffffff" stroke="black" cx="48.0957" cy="-261" rx="48.1917" ry="18"/>
<text text-anchor="middle" x="48.0957" y="-257.3" font-family="Times,serif" font-size="14.00" fill="#880000">AS202453</text>
</a>
</g>
</g>
<!-- AS8447 -->
<g id="node2" class="node"><title>AS8447</title>
<g id="a_node2"><a xlink:href="/asn/8447" xlink:title="AS8447 ~ A1 Telekom Austria AG [AT]">
<ellipse fill="#ffffff" stroke="black" cx="176.388" cy="-369" rx="39.7935" ry="18"/>
<text text-anchor="middle" x="176.388" y="-365.3" font-family="Times,serif" font-size="14.00" fill="#2c94b3">AS8447</text>
</a>
</g>
</g>
<!-- AS202453&#45;&gt;AS8447 -->
<g id="edge1" class="edge"><title>AS202453&#45;&gt;AS8447</title>
<path fill="none" stroke="black" stroke-width="4.5" d="M68.2767,-277.403C89.8511,-295.852 125.018,-325.926 149.132,-346.547"/>
<polygon fill="black" stroke="black" stroke-width="4.5" points="146.691,-349.641 156.85,-353.148 151.809,-343.656 146.691,-349.641"/>
</g>
<!-- AS35369 -->
<g id="node3" class="node"><title>AS35369</title>
<g id="a_node3"><a xlink:href="/asn/35369" xlink:title="AS35369 ~ LINZAG&#45;TELEKOM&#45;AS [AT]">
<ellipse fill="#ffffff" stroke="black" cx="176.388" cy="-153" rx="44.393" ry="18"/>
<text text-anchor="middle" x="176.388" y="-149.3" font-family="Times,serif" font-size="14.00" fill="#2c94b3">AS35369</text>
</a>
</g>
</g>
<!-- AS202453&#45;&gt;AS35369 -->
<g id="edge2" class="edge"><title>AS202453&#45;&gt;AS35369</title>
<path fill="none" stroke="black" stroke-width="2.25" d="M68.2767,-244.597C89.7271,-226.254 124.614,-196.419 148.715,-175.809"/>
<polygon fill="black" stroke="black" stroke-width="2.25" points="151.115,-178.363 156.44,-169.203 146.565,-173.043 151.115,-178.363"/>
</g>
<!-- AS1299 -->
<g id="node4" class="node"><title>AS1299</title>
<g id="a_node4"><a xlink:href="/asn/1299" xlink:title="AS1299 ~ Telia Carrier [EU]">
<ellipse fill="#ffffff" stroke="black" cx="296.23" cy="-369" rx="39.7935" ry="18"/>
<text text-anchor="middle" x="296.23" y="-365.3" font-family="Times,serif" font-size="14.00" fill="#2c94b3">AS1299</text>
</a>
</g>
</g>
<!-- AS8447&#45;&gt;AS1299 -->
<g id="edge3" class="edge"><title>AS8447&#45;&gt;AS1299</title>
<path fill="none" stroke="black" stroke-width="2.7" d="M216.3,-369C225.854,-369 236.203,-369 246.166,-369"/>
<polygon fill="black" stroke="black" stroke-width="2.7" points="246.358,-372.5 256.358,-369 246.358,-365.5 246.358,-372.5"/>
</g>
<!-- AS3356 -->
<g id="node5" class="node"><title>AS3356</title>
<g id="a_node5"><a xlink:href="/asn/3356" xlink:title="AS3356 ~ Level 3 Parent, LLC [US]">
<ellipse fill="#ffffff" stroke="black" cx="296.23" cy="-315" rx="39.7935" ry="18"/>
<text text-anchor="middle" x="296.23" y="-311.3" font-family="Times,serif" font-size="14.00" fill="#2c94b3">AS3356</text>
</a>
</g>
</g>
<!-- AS8447&#45;&gt;AS3356 -->
<g id="edge4" class="edge"><title>AS8447&#45;&gt;AS3356</title>
<path fill="none" stroke="black" stroke-width="4.5" d="M205.016,-356.339C220.973,-349.027 241.244,-339.739 258.527,-331.819"/>
<polygon fill="black" stroke="black" stroke-width="4.5" points="260.324,-335.327 267.774,-327.581 257.043,-328.168 260.324,-335.327"/>
</g>
<!-- AS6762 -->
<g id="node6" class="node"><title>AS6762</title>
<g id="a_node6"><a xlink:href="/asn/6762" xlink:title="AS6762 ~ TELECOM ITALIA SPARKLE S.p.A. [IT]">
<ellipse fill="#ffffff" stroke="black" cx="296.23" cy="-423" rx="39.7935" ry="18"/>
<text text-anchor="middle" x="296.23" y="-419.3" font-family="Times,serif" font-size="14.00" fill="#2c94b3">AS6762</text>
</a>
</g>
</g>
<!-- AS8447&#45;&gt;AS6762 -->
<g id="edge5" class="edge"><title>AS8447&#45;&gt;AS6762</title>
<path fill="none" stroke="black" stroke-width="0.9" d="M205.016,-381.661C220.973,-388.973 241.244,-398.261 258.527,-406.181"/>
<polygon fill="black" stroke="black" stroke-width="0.9" points="257.225,-409.435 267.774,-410.419 260.141,-403.071 257.225,-409.435"/>
</g>
<!-- AS3320 -->
<g id="node7" class="node"><title>AS3320</title>
<g id="a_node7"><a xlink:href="/asn/3320" xlink:title="AS3320 ~ DTAG [DE]">
<ellipse fill="#ffffff" stroke="black" cx="296.23" cy="-504" rx="39.7935" ry="18"/>
<text text-anchor="middle" x="296.23" y="-500.3" font-family="Times,serif" font-size="14.00" fill="#2c94b3">AS3320</text>
</a>
</g>
</g>
<!-- AS8447&#45;&gt;AS3320 -->
<g id="edge6" class="edge"><title>AS8447&#45;&gt;AS3320</title>
<path fill="none" stroke="black" stroke-width="2.7" d="M192.074,-385.825C212.651,-409.397 250.188,-452.4 273.861,-479.52"/>
<polygon fill="black" stroke="black" stroke-width="2.7" points="271.516,-482.155 280.729,-487.387 276.789,-477.552 271.516,-482.155"/>
</g>
<!-- AS2914 -->
<g id="node15" class="node"><title>AS2914</title>
<g id="a_node15"><a xlink:href="/asn/2914" xlink:title="AS2914 ~ NTT America, Inc. [US]">
<ellipse fill="#ffffff" stroke="black" cx="296.23" cy="-180" rx="39.7935" ry="18"/>
<text text-anchor="middle" x="296.23" y="-176.3" font-family="Times,serif" font-size="14.00" fill="#2c94b3">AS2914</text>
</a>
</g>
</g>
<!-- AS35369&#45;&gt;AS2914 -->
<g id="edge15" class="edge"><title>AS35369&#45;&gt;AS2914</title>
<path fill="none" stroke="black" stroke-width="3" d="M215.322,-161.692C226.563,-164.267 238.976,-167.111 250.599,-169.774"/>
<polygon fill="black" stroke="black" stroke-width="3" points="250.031,-173.235 260.56,-172.057 251.595,-166.412 250.031,-173.235"/>
</g>
<!-- AS1764 -->
<g id="node16" class="node"><title>AS1764</title>
<g id="a_node16"><a xlink:href="/asn/1764" xlink:title="AS1764 ~ NEXTLAYER&#45;AS [AT]">
<ellipse fill="#ffffff" stroke="black" cx="296.23" cy="-126" rx="39.7935" ry="18"/>
<text text-anchor="middle" x="296.23" y="-122.3" font-family="Times,serif" font-size="14.00" fill="#2c94b3">AS1764</text>
</a>
</g>
</g>
<!-- AS35369&#45;&gt;AS1764 -->
<g id="edge16" class="edge"><title>AS35369&#45;&gt;AS1764</title>
<path fill="none" stroke="black" stroke-width="2" d="M215.322,-144.308C226.563,-141.733 238.976,-138.889 250.599,-136.226"/>
<polygon fill="black" stroke="black" stroke-width="2" points="251.595,-139.588 260.56,-133.943 250.031,-132.765 251.595,-139.588"/>
</g>
<!-- AS8218 -->
<g id="node17" class="node"><title>AS8218</title>
<g id="a_node17"><a xlink:href="/asn/8218" xlink:title="AS8218 ~ legacy Neotelecoms [FR]">
<ellipse fill="#ffffff" stroke="black" cx="296.23" cy="-45" rx="39.7935" ry="18"/>
<text text-anchor="middle" x="296.23" y="-41.3" font-family="Times,serif" font-size="14.00" fill="#2c94b3">AS8218</text>
</a>
</g>
</g>
<!-- AS35369&#45;&gt;AS8218 -->
<g id="edge17" class="edge"><title>AS35369&#45;&gt;AS8218</title>
<path fill="none" stroke="black" d="M195.285,-136.597C215.214,-118.333 247.571,-88.6785 270.048,-68.0786"/>
<polygon fill="black" stroke="black" points="272.543,-70.5402 277.55,-61.2034 267.813,-65.3796 272.543,-70.5402"/>
</g>
<!-- AS2497 -->
<g id="node8" class="node"><title>AS2497</title>
<g id="a_node8"><a xlink:href="/asn/2497" xlink:title="AS2497 ~ Internet Initiative Japan Inc. [JP]">
<ellipse fill="#ffffff" stroke="black" cx="416.073" cy="-342" rx="39.7935" ry="18"/>
<text text-anchor="middle" x="416.073" y="-338.3" font-family="Times,serif" font-size="14.00" fill="#2c94b3">AS2497</text>
</a>
</g>
</g>
<!-- AS1299&#45;&gt;AS2497 -->
<g id="edge13" class="edge"><title>AS1299&#45;&gt;AS2497</title>
<path fill="none" stroke="black" d="M331.949,-361.045C343.949,-358.296 357.57,-355.175 370.263,-352.267"/>
<polygon fill="black" stroke="black" points="371.229,-355.636 380.194,-349.991 369.665,-348.813 371.229,-355.636"/>
</g>
<!-- AS7018 -->
<g id="node14" class="node"><title>AS7018</title>
<g id="a_node14"><a xlink:href="/asn/7018" xlink:title="AS7018 ~ AT&amp;T Services, Inc. [US]">
<ellipse fill="#ffffff" stroke="black" cx="416.073" cy="-450" rx="39.7935" ry="18"/>
<text text-anchor="middle" x="416.073" y="-446.3" font-family="Times,serif" font-size="14.00" fill="#2c94b3">AS7018</text>
</a>
</g>
</g>
<!-- AS1299&#45;&gt;AS7018 -->
<g id="edge14" class="edge"><title>AS1299&#45;&gt;AS7018</title>
<path fill="none" stroke="black" d="M318.987,-384.009C324.522,-387.879 330.44,-392.064 335.877,-396 352.076,-407.729 355.382,-411.689 371.877,-423 375.405,-425.419 379.142,-427.889 382.884,-430.302"/>
<polygon fill="black" stroke="black" points="381.205,-433.382 391.524,-435.784 384.955,-427.472 381.205,-433.382"/>
</g>
<!-- AS3356&#45;&gt;AS2497 -->
<g id="edge7" class="edge"><title>AS3356&#45;&gt;AS2497</title>
<path fill="none" stroke="black" d="M331.949,-322.955C343.949,-325.704 357.57,-328.825 370.263,-331.733"/>
<polygon fill="black" stroke="black" points="369.665,-335.187 380.194,-334.009 371.229,-328.364 369.665,-335.187"/>
</g>
<!-- AS3549 -->
<g id="node9" class="node"><title>AS3549</title>
<g id="a_node9"><a xlink:href="/asn/3549" xlink:title="AS3549 ~ Level 3 Parent, LLC [US]">
<ellipse fill="#ffffff" stroke="black" cx="416.073" cy="-396" rx="39.7935" ry="18"/>
<text text-anchor="middle" x="416.073" y="-392.3" font-family="Times,serif" font-size="14.00" fill="#2c94b3">AS3549</text>
</a>
</g>
</g>
<!-- AS3356&#45;&gt;AS3549 -->
<g id="edge8" class="edge"><title>AS3356&#45;&gt;AS3549</title>
<path fill="none" stroke="black" d="M318.987,-330.009C324.522,-333.879 330.44,-338.064 335.877,-342 352.076,-353.729 355.382,-357.689 371.877,-369 375.405,-371.419 379.142,-373.889 382.884,-376.302"/>
<polygon fill="black" stroke="black" points="381.205,-379.382 391.524,-381.784 384.955,-373.472 381.205,-379.382"/>
</g>
<!-- AS6453 -->
<g id="node10" class="node"><title>AS6453</title>
<g id="a_node10"><a xlink:href="/asn/6453" xlink:title="AS6453 ~ TATA COMMUNICATIONS (AMERICA) INC [US]">
<ellipse fill="#ffffff" stroke="black" cx="416.073" cy="-288" rx="39.7935" ry="18"/>
<text text-anchor="middle" x="416.073" y="-284.3" font-family="Times,serif" font-size="14.00" fill="#2c94b3">AS6453</text>
</a>
</g>
</g>
<!-- AS3356&#45;&gt;AS6453 -->
<g id="edge9" class="edge"><title>AS3356&#45;&gt;AS6453</title>
<path fill="none" stroke="black" d="M331.949,-307.045C343.949,-304.296 357.57,-301.175 370.263,-298.267"/>
<polygon fill="black" stroke="black" points="371.229,-301.636 380.194,-295.991 369.665,-294.813 371.229,-301.636"/>
</g>
<!-- AS12956 -->
<g id="node11" class="node"><title>AS12956</title>
<g id="a_node11"><a xlink:href="/asn/12956" xlink:title="AS12956 ~ TELXIUS [ES]">
<ellipse fill="#ffffff" stroke="black" cx="416.073" cy="-234" rx="44.393" ry="18"/>
<text text-anchor="middle" x="416.073" y="-230.3" font-family="Times,serif" font-size="14.00" fill="#2c94b3">AS12956</text>
</a>
</g>
</g>
<!-- AS3356&#45;&gt;AS12956 -->
<g id="edge10" class="edge"><title>AS3356&#45;&gt;AS12956</title>
<path fill="none" stroke="black" d="M317.56,-299.723C332.423,-288.696 353.167,-273.593 371.877,-261 375.167,-258.785 378.629,-256.518 382.104,-254.285"/>
<polygon fill="black" stroke="black" points="384.1,-257.163 390.671,-248.852 380.351,-251.252 384.1,-257.163"/>
</g>
<!-- AS701 -->
<g id="node12" class="node"><title>AS701</title>
<g id="a_node12"><a xlink:href="/asn/701" xlink:title="AS701 ~ UUNET [US]">
<ellipse fill="#ffffff" stroke="black" cx="416.073" cy="-504" rx="35.194" ry="18"/>
<text text-anchor="middle" x="416.073" y="-500.3" font-family="Times,serif" font-size="14.00" fill="#2c94b3">AS701</text>
</a>
</g>
</g>
<!-- AS3320&#45;&gt;AS701 -->
<g id="edge11" class="edge"><title>AS3320&#45;&gt;AS701</title>
<path fill="none" stroke="black" d="M336.143,-504C347.23,-504 359.389,-504 370.771,-504"/>
<polygon fill="black" stroke="black" points="370.953,-507.5 380.953,-504 370.953,-500.5 370.953,-507.5"/>
</g>
<!-- AS1239 -->
<g id="node13" class="node"><title>AS1239</title>
<g id="a_node13"><a xlink:href="/asn/1239" xlink:title="AS1239 ~ Sprint [US]">
<ellipse fill="#ffffff" stroke="black" cx="416.073" cy="-558" rx="39.7935" ry="18"/>
<text text-anchor="middle" x="416.073" y="-554.3" font-family="Times,serif" font-size="14.00" fill="#2c94b3">AS1239</text>
</a>
</g>
</g>
<!-- AS3320&#45;&gt;AS1239 -->
<g id="edge12" class="edge"><title>AS3320&#45;&gt;AS1239</title>
<path fill="none" stroke="black" d="M324.859,-516.661C340.816,-523.973 361.087,-533.261 378.369,-541.181"/>
<polygon fill="black" stroke="black" points="377.068,-544.435 387.617,-545.419 379.984,-538.071 377.068,-544.435"/>
</g>
<!-- AS2914&#45;&gt;AS2497 -->
<g id="edge21" class="edge"><title>AS2914&#45;&gt;AS2497</title>
<path fill="none" stroke="black" d="M303.753,-197.994C314.504,-225.728 338.161,-279.429 371.877,-315 374.462,-317.728 377.38,-320.294 380.448,-322.677"/>
<polygon fill="black" stroke="black" points="378.602,-325.658 388.797,-328.543 382.627,-319.93 378.602,-325.658"/>
</g>
<!-- AS3491 -->
<g id="node20" class="node"><title>AS3491</title>
<g id="a_node20"><a xlink:href="/asn/3491" xlink:title="AS3491 ~ PCCW Global, Inc. [US]">
<ellipse fill="#ffffff" stroke="black" cx="416.073" cy="-180" rx="39.7935" ry="18"/>
<text text-anchor="middle" x="416.073" y="-176.3" font-family="Times,serif" font-size="14.00" fill="#2c94b3">AS3491</text>
</a>
</g>
</g>
<!-- AS2914&#45;&gt;AS3491 -->
<g id="edge20" class="edge"><title>AS2914&#45;&gt;AS3491</title>
<path fill="none" stroke="black" d="M336.143,-180C345.696,-180 356.046,-180 366.008,-180"/>
<polygon fill="black" stroke="black" points="366.201,-183.5 376.201,-180 366.201,-176.5 366.201,-183.5"/>
</g>
<!-- AS3257 -->
<g id="node18" class="node"><title>AS3257</title>
<g id="a_node18"><a xlink:href="/asn/3257" xlink:title="AS3257 ~ GTT [DE]">
<ellipse fill="#ffffff" stroke="black" cx="416.073" cy="-72" rx="39.7935" ry="18"/>
<text text-anchor="middle" x="416.073" y="-68.3" font-family="Times,serif" font-size="14.00" fill="#2c94b3">AS3257</text>
</a>
</g>
</g>
<!-- AS1764&#45;&gt;AS3257 -->
<g id="edge18" class="edge"><title>AS1764&#45;&gt;AS3257</title>
<path fill="none" stroke="black" d="M324.859,-113.339C340.816,-106.027 361.087,-96.7385 378.369,-88.8189"/>
<polygon fill="black" stroke="black" points="379.984,-91.929 387.617,-84.5813 377.068,-85.5653 379.984,-91.929"/>
</g>
<!-- AS174 -->
<g id="node19" class="node"><title>AS174</title>
<g id="a_node19"><a xlink:href="/asn/174" xlink:title="AS174 ~ Cogent Communications [US]">
<ellipse fill="#ffffff" stroke="black" cx="416.073" cy="-126" rx="35.194" ry="18"/>
<text text-anchor="middle" x="416.073" y="-122.3" font-family="Times,serif" font-size="14.00" fill="#2c94b3">AS174</text>
</a>
</g>
</g>
<!-- AS1764&#45;&gt;AS174 -->
<g id="edge19" class="edge"><title>AS1764&#45;&gt;AS174</title>
<path fill="none" stroke="black" d="M336.143,-126C347.23,-126 359.389,-126 370.771,-126"/>
<polygon fill="black" stroke="black" points="370.953,-129.5 380.953,-126 370.953,-122.5 370.953,-129.5"/>
</g>
<!-- AS6461 -->
<g id="node21" class="node"><title>AS6461</title>
<g id="a_node21"><a xlink:href="/asn/6461" xlink:title="AS6461 ~ Zayo Bandwidth [US]">
<ellipse fill="#ffffff" stroke="black" cx="416.073" cy="-18" rx="39.7935" ry="18"/>
<text text-anchor="middle" x="416.073" y="-14.3" font-family="Times,serif" font-size="14.00" fill="#2c94b3">AS6461</text>
</a>
</g>
</g>
<!-- AS8218&#45;&gt;AS6461 -->
<g id="edge22" class="edge"><title>AS8218&#45;&gt;AS6461</title>
<path fill="none" stroke="black" d="M331.949,-37.0451C343.949,-34.2957 357.57,-31.1749 370.263,-28.2668"/>
<polygon fill="black" stroke="black" points="371.229,-31.6363 380.194,-25.9913 369.665,-24.8131 371.229,-31.6363"/>
</g>
</g>
</svg>
