<?xml version="1.0" encoding="UTF-8" standalone="no"?>
<!DOCTYPE svg PUBLIC "-//W3C//DTD SVG 1.1//EN"
 "http://www.w3.org/Graphics/SVG/1.1/DTD/svg11.dtd">
<!-- Generated by graphviz version 2.38.0 (20140413.2041)
 -->
<!-- Title: AS207203 IPv4 Upstream Graph Pages: 1 -->
<svg width="708pt" height="622pt"
 viewBox="0.00 0.00 707.95 622.00" xmlns="http://www.w3.org/2000/svg" xmlns:xlink="http://www.w3.org/1999/xlink">
<g id="graph0" class="graph" transform="scale(1 1) rotate(0) translate(4 618)">
<title>AS207203 IPv4 Upstream Graph</title>
<polygon fill="white" stroke="none" points="-4,4 -4,-618 703.954,-618 703.954,4 -4,4"/>
<!-- AS207203 -->
<g id="node1" class="node"><title>AS207203</title>
<g id="a_node1"><a xlink:href="/asn/207203" xlink:title="AS207203 ~ TIMEWARP IT Consulting GmbH [AT]">
<ellipse fill="#ffffff" stroke="black" cx="48.0957" cy="-261" rx="48.1917" ry="18"/>
<text text-anchor="middle" x="48.0957" y="-257.3" font-family="Times,serif" font-size="14.00" fill="#880000">AS207203</text>
</a>
</g>
</g>
<!-- AS174 -->
<g id="node2" class="node"><title>AS174</title>
<g id="a_node2"><a xlink:href="/asn/174" xlink:title="AS174 ~ Cogent Communications [US]">
<ellipse fill="#ffffff" stroke="black" cx="176.388" cy="-396" rx="35.194" ry="18"/>
<text text-anchor="middle" x="176.388" y="-392.3" font-family="Times,serif" font-size="14.00" fill="#2c94b3">AS174</text>
</a>
</g>
</g>
<!-- AS207203&#45;&gt;AS174 -->
<g id="edge1" class="edge"><title>AS207203&#45;&gt;AS174</title>
<path fill="none" stroke="black" stroke-width="4.5" d="M65.0907,-278.098C87.4426,-301.991 128.107,-345.459 153.325,-372.416"/>
<polygon fill="black" stroke="black" stroke-width="4.5" points="150.602,-375.269 160.309,-379.881 156.352,-369.889 150.602,-375.269"/>
</g>
<!-- AS47147 -->
<g id="node3" class="node"><title>AS47147</title>
<g id="a_node3"><a xlink:href="/asn/47147" xlink:title="AS47147 ~ ANEXIA Internetdienstleistungs GmbH [AT]">
<ellipse fill="#ffffff" stroke="black" cx="176.388" cy="-126" rx="44.393" ry="18"/>
<text text-anchor="middle" x="176.388" y="-122.3" font-family="Times,serif" font-size="14.00" fill="#2c94b3">AS47147</text>
</a>
</g>
</g>
<!-- AS207203&#45;&gt;AS47147 -->
<g id="edge2" class="edge"><title>AS207203&#45;&gt;AS47147</title>
<path fill="none" stroke="black" stroke-width="3.6" d="M65.0907,-243.902C87.2009,-220.267 127.23,-177.478 152.501,-150.464"/>
<polygon fill="black" stroke="black" stroke-width="3.6" points="155.247,-152.653 159.522,-142.959 150.135,-147.871 155.247,-152.653"/>
</g>
<!-- AS6453 -->
<g id="node4" class="node"><title>AS6453</title>
<g id="a_node4"><a xlink:href="/asn/6453" xlink:title="AS6453 ~ TATA COMMUNICATIONS (AMERICA) INC [US]">
<ellipse fill="#ffffff" stroke="black" cx="300.78" cy="-596" rx="39.7935" ry="18"/>
<text text-anchor="middle" x="300.78" y="-592.3" font-family="Times,serif" font-size="14.00" fill="#2c94b3">AS6453</text>
</a>
</g>
</g>
<!-- AS174&#45;&gt;AS6453 -->
<g id="edge3" class="edge"><title>AS174&#45;&gt;AS6453</title>
<path fill="none" stroke="black" d="M182.559,-413.782C192.667,-446.299 217.53,-516.378 256.584,-564 259.901,-568.046 263.838,-571.854 267.962,-575.335"/>
<polygon fill="black" stroke="black" points="265.973,-578.222 276.014,-581.602 270.272,-572.698 265.973,-578.222"/>
</g>
<!-- AS6461 -->
<g id="node5" class="node"><title>AS6461</title>
<g id="a_node5"><a xlink:href="/asn/6461" xlink:title="AS6461 ~ Zayo Bandwidth [US]">
<ellipse fill="#ffffff" stroke="black" cx="660.307" cy="-361" rx="39.7935" ry="18"/>
<text text-anchor="middle" x="660.307" y="-357.3" font-family="Times,serif" font-size="14.00" fill="#2c94b3">AS6461</text>
</a>
</g>
</g>
<!-- AS174&#45;&gt;AS6461 -->
<g id="edge4" class="edge"><title>AS174&#45;&gt;AS6461</title>
<path fill="none" stroke="black" d="M181.799,-414.141C190.323,-444.706 212.255,-505.611 256.584,-531 290.674,-550.525 306.511,-538.989 344.976,-531 461.785,-506.74 580.466,-423.007 632.3,-382.836"/>
<polygon fill="black" stroke="black" points="634.61,-385.472 640.324,-376.549 630.293,-379.962 634.61,-385.472"/>
</g>
<!-- AS3491 -->
<g id="node6" class="node"><title>AS3491</title>
<g id="a_node6"><a xlink:href="/asn/3491" xlink:title="AS3491 ~ PCCW Global, Inc. [US]">
<ellipse fill="#ffffff" stroke="black" cx="300.78" cy="-504" rx="39.7935" ry="18"/>
<text text-anchor="middle" x="300.78" y="-500.3" font-family="Times,serif" font-size="14.00" fill="#2c94b3">AS3491</text>
</a>
</g>
</g>
<!-- AS174&#45;&gt;AS3491 -->
<g id="edge5" class="edge"><title>AS174&#45;&gt;AS3491</title>
<path fill="none" stroke="black" d="M191.261,-412.345C206.331,-429.559 231.609,-456.901 256.584,-477 259.839,-479.62 263.364,-482.192 266.949,-484.646"/>
<polygon fill="black" stroke="black" points="265.036,-487.577 275.321,-490.121 268.867,-481.719 265.036,-487.577"/>
</g>
<!-- AS3356 -->
<g id="node7" class="node"><title>AS3356</title>
<g id="a_node7"><a xlink:href="/asn/3356" xlink:title="AS3356 ~ Level 3 Parent, LLC [US]">
<ellipse fill="#ffffff" stroke="black" cx="300.78" cy="-450" rx="39.7935" ry="18"/>
<text text-anchor="middle" x="300.78" y="-446.3" font-family="Times,serif" font-size="14.00" fill="#2c94b3">AS3356</text>
</a>
</g>
</g>
<!-- AS174&#45;&gt;AS3356 -->
<g id="edge6" class="edge"><title>AS174&#45;&gt;AS3356</title>
<path fill="none" stroke="black" stroke-width="2" d="M203.644,-407.584C220.829,-415.167 243.543,-425.188 262.577,-433.586"/>
<polygon fill="black" stroke="black" stroke-width="2" points="261.303,-436.849 271.865,-437.684 264.128,-430.445 261.303,-436.849"/>
</g>
<!-- AS7018 -->
<g id="node8" class="node"><title>AS7018</title>
<g id="a_node8"><a xlink:href="/asn/7018" xlink:title="AS7018 ~ AT&amp;T Services, Inc. [US]">
<ellipse fill="#ffffff" stroke="black" cx="300.78" cy="-396" rx="39.7935" ry="18"/>
<text text-anchor="middle" x="300.78" y="-392.3" font-family="Times,serif" font-size="14.00" fill="#2c94b3">AS7018</text>
</a>
</g>
</g>
<!-- AS174&#45;&gt;AS7018 -->
<g id="edge7" class="edge"><title>AS174&#45;&gt;AS7018</title>
<path fill="none" stroke="black" d="M211.806,-396C223.857,-396 237.633,-396 250.651,-396"/>
<polygon fill="black" stroke="black" points="250.881,-399.5 260.881,-396 250.881,-392.5 250.881,-399.5"/>
</g>
<!-- AS1239 -->
<g id="node9" class="node"><title>AS1239</title>
<g id="a_node9"><a xlink:href="/asn/1239" xlink:title="AS1239 ~ Sprint [US]">
<ellipse fill="#ffffff" stroke="black" cx="300.78" cy="-342" rx="39.7935" ry="18"/>
<text text-anchor="middle" x="300.78" y="-338.3" font-family="Times,serif" font-size="14.00" fill="#2c94b3">AS1239</text>
</a>
</g>
</g>
<!-- AS174&#45;&gt;AS1239 -->
<g id="edge8" class="edge"><title>AS174&#45;&gt;AS1239</title>
<path fill="none" stroke="black" d="M203.644,-384.416C220.829,-376.833 243.543,-366.812 262.577,-358.414"/>
<polygon fill="black" stroke="black" points="264.128,-361.555 271.865,-354.316 261.303,-355.151 264.128,-361.555"/>
</g>
<!-- AS209 -->
<g id="node10" class="node"><title>AS209</title>
<g id="a_node10"><a xlink:href="/asn/209" xlink:title="AS209 ~ CenturyLink Communications, LLC [US]">
<ellipse fill="#ffffff" stroke="black" cx="300.78" cy="-288" rx="35.194" ry="18"/>
<text text-anchor="middle" x="300.78" y="-284.3" font-family="Times,serif" font-size="14.00" fill="#2c94b3">AS209</text>
</a>
</g>
</g>
<!-- AS174&#45;&gt;AS209 -->
<g id="edge9" class="edge"><title>AS174&#45;&gt;AS209</title>
<path fill="none" stroke="black" d="M191.261,-379.655C206.331,-362.441 231.609,-335.099 256.584,-315 260.089,-312.179 263.907,-309.413 267.775,-306.792"/>
<polygon fill="black" stroke="black" points="269.732,-309.694 276.22,-301.318 265.925,-303.82 269.732,-309.694"/>
</g>
<!-- AS6762 -->
<g id="node11" class="node"><title>AS6762</title>
<g id="a_node11"><a xlink:href="/asn/6762" xlink:title="AS6762 ~ TELECOM ITALIA SPARKLE S.p.A. [IT]">
<ellipse fill="#ffffff" stroke="black" cx="300.78" cy="-234" rx="39.7935" ry="18"/>
<text text-anchor="middle" x="300.78" y="-230.3" font-family="Times,serif" font-size="14.00" fill="#2c94b3">AS6762</text>
</a>
</g>
</g>
<!-- AS174&#45;&gt;AS6762 -->
<g id="edge10" class="edge"><title>AS174&#45;&gt;AS6762</title>
<path fill="none" stroke="black" d="M184.578,-378.025C196.345,-350.318 221.919,-296.652 256.584,-261 259.204,-258.305 262.144,-255.761 265.227,-253.392"/>
<polygon fill="black" stroke="black" points="267.403,-256.141 273.596,-247.545 263.394,-250.403 267.403,-256.141"/>
</g>
<!-- AS2914 -->
<g id="node13" class="node"><title>AS2914</title>
<g id="a_node13"><a xlink:href="/asn/2914" xlink:title="AS2914 ~ NTT America, Inc. [US]">
<ellipse fill="#ffffff" stroke="black" cx="300.78" cy="-180" rx="39.7935" ry="18"/>
<text text-anchor="middle" x="300.78" y="-176.3" font-family="Times,serif" font-size="14.00" fill="#2c94b3">AS2914</text>
</a>
</g>
</g>
<!-- AS47147&#45;&gt;AS2914 -->
<g id="edge12" class="edge"><title>AS47147&#45;&gt;AS2914</title>
<path fill="none" stroke="black" stroke-width="2" d="M207.015,-139.072C223.61,-146.393 244.469,-155.597 262.203,-163.421"/>
<polygon fill="black" stroke="black" stroke-width="2" points="261.124,-166.77 271.686,-167.605 263.95,-160.366 261.124,-166.77"/>
</g>
<!-- AS15702 -->
<g id="node14" class="node"><title>AS15702</title>
<g id="a_node14"><a xlink:href="/asn/15702" xlink:title="AS15702 ~ Onstage Online GmbH [AT]">
<ellipse fill="#ffffff" stroke="black" cx="300.78" cy="-126" rx="44.393" ry="18"/>
<text text-anchor="middle" x="300.78" y="-122.3" font-family="Times,serif" font-size="14.00" fill="#2c94b3">AS15702</text>
</a>
</g>
</g>
<!-- AS47147&#45;&gt;AS15702 -->
<g id="edge13" class="edge"><title>AS47147&#45;&gt;AS15702</title>
<path fill="none" stroke="black" stroke-width="3" d="M220.883,-126C229.089,-126 237.761,-126 246.233,-126"/>
<polygon fill="black" stroke="black" stroke-width="3" points="246.424,-129.5 256.424,-126 246.424,-122.5 246.424,-129.5"/>
</g>
<!-- AS1299 -->
<g id="node15" class="node"><title>AS1299</title>
<g id="a_node15"><a xlink:href="/asn/1299" xlink:title="AS1299 ~ Telia Carrier [EU]">
<ellipse fill="#ffffff" stroke="black" cx="300.78" cy="-72" rx="39.7935" ry="18"/>
<text text-anchor="middle" x="300.78" y="-68.3" font-family="Times,serif" font-size="14.00" fill="#2c94b3">AS1299</text>
</a>
</g>
</g>
<!-- AS47147&#45;&gt;AS1299 -->
<g id="edge14" class="edge"><title>AS47147&#45;&gt;AS1299</title>
<path fill="none" stroke="black" d="M207.015,-112.928C223.61,-105.607 244.469,-96.4033 262.203,-88.5792"/>
<polygon fill="black" stroke="black" points="263.95,-91.6339 271.686,-84.395 261.124,-85.2295 263.95,-91.6339"/>
</g>
<!-- AS3320 -->
<g id="node16" class="node"><title>AS3320</title>
<g id="a_node16"><a xlink:href="/asn/3320" xlink:title="AS3320 ~ DTAG [DE]">
<ellipse fill="#ffffff" stroke="black" cx="300.78" cy="-18" rx="39.7935" ry="18"/>
<text text-anchor="middle" x="300.78" y="-14.3" font-family="Times,serif" font-size="14.00" fill="#2c94b3">AS3320</text>
</a>
</g>
</g>
<!-- AS47147&#45;&gt;AS3320 -->
<g id="edge15" class="edge"><title>AS47147&#45;&gt;AS3320</title>
<path fill="none" stroke="black" stroke-width="2" d="M191.82,-109.017C206.952,-91.7715 231.916,-64.8523 256.584,-45 259.839,-42.3801 263.364,-39.8076 266.949,-37.3541"/>
<polygon fill="black" stroke="black" stroke-width="2" points="268.867,-40.2814 275.321,-31.8793 265.036,-34.4228 268.867,-40.2814"/>
</g>
<!-- AS3549 -->
<g id="node12" class="node"><title>AS3549</title>
<g id="a_node12"><a xlink:href="/asn/3549" xlink:title="AS3549 ~ Level 3 Parent, LLC [US]">
<ellipse fill="#ffffff" stroke="black" cx="425.172" cy="-450" rx="39.7935" ry="18"/>
<text text-anchor="middle" x="425.172" y="-446.3" font-family="Times,serif" font-size="14.00" fill="#2c94b3">AS3549</text>
</a>
</g>
</g>
<!-- AS3356&#45;&gt;AS3549 -->
<g id="edge11" class="edge"><title>AS3356&#45;&gt;AS3549</title>
<path fill="none" stroke="black" d="M340.505,-450C351.444,-450 363.494,-450 374.961,-450"/>
<polygon fill="black" stroke="black" points="375.278,-453.5 385.278,-450 375.278,-446.5 375.278,-453.5"/>
</g>
<!-- AS2497 -->
<g id="node21" class="node"><title>AS2497</title>
<g id="a_node21"><a xlink:href="/asn/2497" xlink:title="AS2497 ~ Internet Initiative Japan Inc. [JP]">
<ellipse fill="#ffffff" stroke="black" cx="425.172" cy="-218" rx="39.7935" ry="18"/>
<text text-anchor="middle" x="425.172" y="-214.3" font-family="Times,serif" font-size="14.00" fill="#2c94b3">AS2497</text>
</a>
</g>
</g>
<!-- AS2914&#45;&gt;AS2497 -->
<g id="edge21" class="edge"><title>AS2914&#45;&gt;AS2497</title>
<path fill="none" stroke="black" d="M333.937,-189.984C348.717,-194.573 366.44,-200.075 382.251,-204.984"/>
<polygon fill="black" stroke="black" points="381.216,-208.328 391.805,-207.951 383.292,-201.643 381.216,-208.328"/>
</g>
<!-- AS8218 -->
<g id="node17" class="node"><title>AS8218</title>
<g id="a_node17"><a xlink:href="/asn/8218" xlink:title="AS8218 ~ legacy Neotelecoms [FR]">
<ellipse fill="#ffffff" stroke="black" cx="545.014" cy="-172" rx="39.7935" ry="18"/>
<text text-anchor="middle" x="545.014" y="-168.3" font-family="Times,serif" font-size="14.00" fill="#2c94b3">AS8218</text>
</a>
</g>
</g>
<!-- AS15702&#45;&gt;AS8218 -->
<g id="edge16" class="edge"><title>AS15702&#45;&gt;AS8218</title>
<path fill="none" stroke="black" d="M333.319,-138.475C347.658,-143.696 364.965,-149.381 380.976,-153 418.849,-161.56 462.592,-166.391 495.229,-169.036"/>
<polygon fill="black" stroke="black" points="495.174,-172.543 505.413,-169.821 495.711,-165.563 495.174,-172.543"/>
</g>
<!-- AS13237 -->
<g id="node18" class="node"><title>AS13237</title>
<g id="a_node18"><a xlink:href="/asn/13237" xlink:title="AS13237 ~ European Backbone of AS13237 [DE]">
<ellipse fill="#ffffff" stroke="black" cx="425.172" cy="-72" rx="44.393" ry="18"/>
<text text-anchor="middle" x="425.172" y="-68.3" font-family="Times,serif" font-size="14.00" fill="#2c94b3">AS13237</text>
</a>
</g>
</g>
<!-- AS15702&#45;&gt;AS13237 -->
<g id="edge17" class="edge"><title>AS15702&#45;&gt;AS13237</title>
<path fill="none" stroke="black" d="M331.407,-112.928C347.524,-105.817 367.664,-96.9314 385.056,-89.258"/>
<polygon fill="black" stroke="black" points="386.657,-92.3775 394.393,-85.1387 383.831,-85.9732 386.657,-92.3775"/>
</g>
<!-- AS8245 -->
<g id="node19" class="node"><title>AS8245</title>
<g id="a_node19"><a xlink:href="/asn/8245" xlink:title="AS8245 ~ Video&#45;Broadcast GmbH [AT]">
<ellipse fill="#ffffff" stroke="black" cx="425.172" cy="-126" rx="39.7935" ry="18"/>
<text text-anchor="middle" x="425.172" y="-122.3" font-family="Times,serif" font-size="14.00" fill="#2c94b3">AS8245</text>
</a>
</g>
</g>
<!-- AS15702&#45;&gt;AS8245 -->
<g id="edge18" class="edge"><title>AS15702&#45;&gt;AS8245</title>
<path fill="none" stroke="black" d="M345.275,-126C354.964,-126 365.301,-126 375.194,-126"/>
<polygon fill="black" stroke="black" points="375.296,-129.5 385.296,-126 375.296,-122.5 375.296,-129.5"/>
</g>
<!-- AS701 -->
<g id="node20" class="node"><title>AS701</title>
<g id="a_node20"><a xlink:href="/asn/701" xlink:title="AS701 ~ UUNET [US]">
<ellipse fill="#ffffff" stroke="black" cx="425.172" cy="-18" rx="35.194" ry="18"/>
<text text-anchor="middle" x="425.172" y="-14.3" font-family="Times,serif" font-size="14.00" fill="#2c94b3">AS701</text>
</a>
</g>
</g>
<!-- AS3320&#45;&gt;AS701 -->
<g id="edge20" class="edge"><title>AS3320&#45;&gt;AS701</title>
<path fill="none" stroke="black" d="M340.505,-18C352.994,-18 366.933,-18 379.797,-18"/>
<polygon fill="black" stroke="black" points="379.835,-21.5001 389.835,-18 379.835,-14.5001 379.835,-21.5001"/>
</g>
<!-- AS8218&#45;&gt;AS6461 -->
<g id="edge19" class="edge"><title>AS8218&#45;&gt;AS6461</title>
<path fill="none" stroke="black" stroke-width="2" d="M556.47,-189.442C576.451,-222.775 620.156,-295.686 643.642,-334.866"/>
<polygon fill="black" stroke="black" stroke-width="2" points="640.734,-336.823 648.877,-343.6 646.738,-333.224 640.734,-336.823"/>
</g>
<!-- AS3257 -->
<g id="node22" class="node"><title>AS3257</title>
<g id="a_node22"><a xlink:href="/asn/3257" xlink:title="AS3257 ~ GTT [DE]">
<ellipse fill="#ffffff" stroke="black" cx="545.014" cy="-72" rx="39.7935" ry="18"/>
<text text-anchor="middle" x="545.014" y="-68.3" font-family="Times,serif" font-size="14.00" fill="#2c94b3">AS3257</text>
</a>
</g>
</g>
<!-- AS13237&#45;&gt;AS3257 -->
<g id="edge22" class="edge"><title>AS13237&#45;&gt;AS3257</title>
<path fill="none" stroke="black" d="M469.383,-72C477.696,-72 486.458,-72 494.941,-72"/>
<polygon fill="black" stroke="black" points="495.099,-75.5001 505.099,-72 495.099,-68.5001 495.099,-75.5001"/>
</g>
<!-- AS8245&#45;&gt;AS8218 -->
<g id="edge23" class="edge"><title>AS8245&#45;&gt;AS8218</title>
<path fill="none" stroke="black" d="M455.909,-137.608C470.702,-143.382 488.78,-150.439 504.701,-156.654"/>
<polygon fill="black" stroke="black" points="503.699,-160.02 514.287,-160.396 506.245,-153.499 503.699,-160.02"/>
</g>
</g>
</svg>
