<?xml version="1.0" encoding="UTF-8" standalone="no"?>
<!DOCTYPE svg PUBLIC "-//W3C//DTD SVG 1.1//EN"
 "http://www.w3.org/Graphics/SVG/1.1/DTD/svg11.dtd">
<!-- Generated by graphviz version 2.38.0 (20140413.2041)
 -->
<!-- Title: AS44753 Combined Upstream Graph Pages: 1 -->
<svg width="442pt" height="584pt"
 viewBox="0.00 0.00 442.27 584.00" xmlns="http://www.w3.org/2000/svg" xmlns:xlink="http://www.w3.org/1999/xlink">
<g id="graph0" class="graph" transform="scale(1 1) rotate(0) translate(4 580)">
<title>AS44753 Combined Upstream Graph</title>
<polygon fill="white" stroke="none" points="-4,4 -4,-580 438.271,-580 438.271,4 -4,4"/>
<!-- AS44753 -->
<g id="node1" class="node"><title>AS44753</title>
<g id="a_node1"><a xlink:href="/asn/44753" xlink:title="AS44753 ~ Bacher Systems EDV GmbH [AT]">
<ellipse fill="#ffffff" stroke="black" cx="44.1961" cy="-369" rx="44.393" ry="18"/>
<text text-anchor="middle" x="44.1961" y="-365.3" font-family="Times,serif" font-size="14.00" fill="#880000">AS44753</text>
</a>
</g>
</g>
<!-- AS1764 -->
<g id="node2" class="node"><title>AS1764</title>
<g id="a_node2"><a xlink:href="/asn/1764" xlink:title="AS1764 ~ NEXTLAYER&#45;AS [AT]">
<ellipse fill="#ffffff" stroke="black" cx="164.039" cy="-369" rx="39.7935" ry="18"/>
<text text-anchor="middle" x="164.039" y="-365.3" font-family="Times,serif" font-size="14.00" fill="#2c94b3">AS1764</text>
</a>
</g>
</g>
<!-- AS44753&#45;&gt;AS1764 -->
<g id="edge1" class="edge"><title>AS44753&#45;&gt;AS1764</title>
<path fill="none" stroke="black" stroke-width="4.5" d="M88.4072,-369C96.7198,-369 105.482,-369 113.965,-369"/>
<polygon fill="black" stroke="black" stroke-width="4.5" points="114.123,-372.938 124.123,-369 114.123,-365.063 114.123,-372.938"/>
</g>
<!-- AS8218 -->
<g id="node3" class="node"><title>AS8218</title>
<g id="a_node3"><a xlink:href="/asn/8218" xlink:title="AS8218 ~ legacy Neotelecoms [FR]">
<ellipse fill="#ffffff" stroke="black" cx="279.332" cy="-558" rx="39.7935" ry="18"/>
<text text-anchor="middle" x="279.332" y="-554.3" font-family="Times,serif" font-size="14.00" fill="#2c94b3">AS8218</text>
</a>
</g>
</g>
<!-- AS1764&#45;&gt;AS8218 -->
<g id="edge2" class="edge"><title>AS1764&#45;&gt;AS8218</title>
<path fill="none" stroke="black" stroke-width="1.125" d="M169.913,-387.002C179.227,-418.844 202.043,-485.981 239.685,-531 241.555,-533.237 243.654,-535.374 245.88,-537.396"/>
<polygon fill="black" stroke="black" stroke-width="1.125" points="243.823,-540.234 253.799,-543.804 248.227,-534.793 243.823,-540.234"/>
</g>
<!-- AS174 -->
<g id="node4" class="node"><title>AS174</title>
<g id="a_node4"><a xlink:href="/asn/174" xlink:title="AS174 ~ Cogent Communications [US]">
<ellipse fill="#ffffff" stroke="black" cx="279.332" cy="-450" rx="35.194" ry="18"/>
<text text-anchor="middle" x="279.332" y="-446.3" font-family="Times,serif" font-size="14.00" fill="#2c94b3">AS174</text>
</a>
</g>
</g>
<!-- AS1764&#45;&gt;AS174 -->
<g id="edge3" class="edge"><title>AS1764&#45;&gt;AS174</title>
<path fill="none" stroke="black" stroke-width="2.25" d="M185.887,-384.222C200.821,-395.091 221.435,-410.025 239.685,-423 242.895,-425.282 246.264,-427.661 249.619,-430.018"/>
<polygon fill="black" stroke="black" stroke-width="2.25" points="247.631,-432.899 257.83,-435.77 251.647,-427.166 247.631,-432.899"/>
</g>
<!-- AS3257 -->
<g id="node5" class="node"><title>AS3257</title>
<g id="a_node5"><a xlink:href="/asn/3257" xlink:title="AS3257 ~ GTT [DE]">
<ellipse fill="#ffffff" stroke="black" cx="279.332" cy="-396" rx="39.7935" ry="18"/>
<text text-anchor="middle" x="279.332" y="-392.3" font-family="Times,serif" font-size="14.00" fill="#2c94b3">AS3257</text>
</a>
</g>
</g>
<!-- AS1764&#45;&gt;AS3257 -->
<g id="edge4" class="edge"><title>AS1764&#45;&gt;AS3257</title>
<path fill="none" stroke="black" stroke-width="3.375" d="M199.646,-377.248C210.517,-379.838 222.671,-382.735 234.114,-385.462"/>
<polygon fill="black" stroke="black" stroke-width="3.375" points="233.397,-388.889 243.936,-387.803 235.02,-382.08 233.397,-388.889"/>
</g>
<!-- AS1299 -->
<g id="node6" class="node"><title>AS1299</title>
<g id="a_node6"><a xlink:href="/asn/1299" xlink:title="AS1299 ~ Telia Carrier [EU]">
<ellipse fill="#ffffff" stroke="black" cx="279.332" cy="-45" rx="39.7935" ry="18"/>
<text text-anchor="middle" x="279.332" y="-41.3" font-family="Times,serif" font-size="14.00" fill="#2c94b3">AS1299</text>
</a>
</g>
</g>
<!-- AS1764&#45;&gt;AS1299 -->
<g id="edge5" class="edge"><title>AS1764&#45;&gt;AS1299</title>
<path fill="none" stroke="black" stroke-width="2.25" d="M169.591,-351.01C180.102,-310.296 207.635,-208.242 239.685,-126 246.9,-107.485 256.518,-87.3157 264.353,-71.7347"/>
<polygon fill="black" stroke="black" stroke-width="2.25" points="267.544,-73.1814 268.964,-62.6821 261.307,-70.0042 267.544,-73.1814"/>
</g>
<!-- AS3356 -->
<g id="node7" class="node"><title>AS3356</title>
<g id="a_node7"><a xlink:href="/asn/3356" xlink:title="AS3356 ~ Level 3 Parent, LLC [US]">
<ellipse fill="#ffffff" stroke="black" cx="279.332" cy="-288" rx="39.7935" ry="18"/>
<text text-anchor="middle" x="279.332" y="-284.3" font-family="Times,serif" font-size="14.00" fill="#2c94b3">AS3356</text>
</a>
</g>
</g>
<!-- AS1764&#45;&gt;AS3356 -->
<g id="edge6" class="edge"><title>AS1764&#45;&gt;AS3356</title>
<path fill="none" stroke="black" stroke-width="4.5" d="M185.887,-353.778C200.821,-342.909 221.435,-327.975 239.685,-315 242.506,-312.995 245.449,-310.915 248.397,-308.841"/>
<polygon fill="black" stroke="black" stroke-width="4.5" points="250.694,-312.039 256.621,-303.074 246.173,-305.591 250.694,-312.039"/>
</g>
<!-- AS2914 -->
<g id="node8" class="node"><title>AS2914</title>
<g id="a_node8"><a xlink:href="/asn/2914" xlink:title="AS2914 ~ NTT America, Inc. [US]">
<ellipse fill="#ffffff" stroke="black" cx="279.332" cy="-342" rx="39.7935" ry="18"/>
<text text-anchor="middle" x="279.332" y="-338.3" font-family="Times,serif" font-size="14.00" fill="#2c94b3">AS2914</text>
</a>
</g>
</g>
<!-- AS1764&#45;&gt;AS2914 -->
<g id="edge7" class="edge"><title>AS1764&#45;&gt;AS2914</title>
<path fill="none" stroke="black" stroke-width="2.8125" d="M199.646,-360.752C210.517,-358.162 222.671,-355.265 234.114,-352.538"/>
<polygon fill="black" stroke="black" stroke-width="2.8125" points="235.02,-355.92 243.936,-350.197 233.397,-349.111 235.02,-355.92"/>
</g>
<!-- AS3320 -->
<g id="node9" class="node"><title>AS3320</title>
<g id="a_node9"><a xlink:href="/asn/3320" xlink:title="AS3320 ~ DTAG [DE]">
<ellipse fill="#ffffff" stroke="black" cx="279.332" cy="-153" rx="39.7935" ry="18"/>
<text text-anchor="middle" x="279.332" y="-149.3" font-family="Times,serif" font-size="14.00" fill="#2c94b3">AS3320</text>
</a>
</g>
</g>
<!-- AS1764&#45;&gt;AS3320 -->
<g id="edge8" class="edge"><title>AS1764&#45;&gt;AS3320</title>
<path fill="none" stroke="black" stroke-width="2.8125" d="M174.31,-351.324C194.151,-313.495 240.829,-224.501 264.316,-179.722"/>
<polygon fill="black" stroke="black" stroke-width="2.8125" points="267.546,-181.099 269.091,-170.617 261.347,-177.848 267.546,-181.099"/>
</g>
<!-- AS6939 -->
<g id="node10" class="node"><title>AS6939</title>
<g id="a_node10"><a xlink:href="/asn/6939" xlink:title="AS6939 ~ Hurricane Electric LLC [US]">
<ellipse fill="#ffffff" stroke="black" cx="279.332" cy="-504" rx="39.7935" ry="18"/>
<text text-anchor="middle" x="279.332" y="-500.3" font-family="Times,serif" font-size="14.00" fill="#2c94b3">AS6939</text>
</a>
</g>
</g>
<!-- AS1764&#45;&gt;AS6939 -->
<g id="edge9" class="edge"><title>AS1764&#45;&gt;AS6939</title>
<path fill="none" stroke="black" stroke-width="2.25" d="M174.498,-386.49C187.28,-409.096 211.712,-448.886 239.685,-477 241.796,-479.121 244.092,-481.188 246.477,-483.171"/>
<polygon fill="black" stroke="black" stroke-width="2.25" points="244.73,-486.242 254.793,-489.556 248.993,-480.69 244.73,-486.242"/>
</g>
<!-- AS6461 -->
<g id="node11" class="node"><title>AS6461</title>
<g id="a_node11"><a xlink:href="/asn/6461" xlink:title="AS6461 ~ Zayo Bandwidth [US]">
<ellipse fill="#ffffff" stroke="black" cx="394.625" cy="-558" rx="39.7935" ry="18"/>
<text text-anchor="middle" x="394.625" y="-554.3" font-family="Times,serif" font-size="14.00" fill="#2c94b3">AS6461</text>
</a>
</g>
</g>
<!-- AS8218&#45;&gt;AS6461 -->
<g id="edge10" class="edge"><title>AS8218&#45;&gt;AS6461</title>
<path fill="none" stroke="black" stroke-width="2" d="M319.004,-558C327.207,-558 335.971,-558 344.503,-558"/>
<polygon fill="black" stroke="black" stroke-width="2" points="344.742,-561.5 354.742,-558 344.742,-554.5 344.742,-561.5"/>
</g>
<!-- AS3491 -->
<g id="node12" class="node"><title>AS3491</title>
<g id="a_node12"><a xlink:href="/asn/3491" xlink:title="AS3491 ~ PCCW Global, Inc. [US]">
<ellipse fill="#ffffff" stroke="black" cx="394.625" cy="-450" rx="39.7935" ry="18"/>
<text text-anchor="middle" x="394.625" y="-446.3" font-family="Times,serif" font-size="14.00" fill="#2c94b3">AS3491</text>
</a>
</g>
</g>
<!-- AS174&#45;&gt;AS3491 -->
<g id="edge11" class="edge"><title>AS174&#45;&gt;AS3491</title>
<path fill="none" stroke="black" d="M314.631,-450C324.008,-450 334.358,-450 344.393,-450"/>
<polygon fill="black" stroke="black" points="344.681,-453.5 354.681,-450 344.681,-446.5 344.681,-453.5"/>
</g>
<!-- AS6762 -->
<g id="node13" class="node"><title>AS6762</title>
<g id="a_node13"><a xlink:href="/asn/6762" xlink:title="AS6762 ~ TELECOM ITALIA SPARKLE S.p.A. [IT]">
<ellipse fill="#ffffff" stroke="black" cx="394.625" cy="-396" rx="39.7935" ry="18"/>
<text text-anchor="middle" x="394.625" y="-392.3" font-family="Times,serif" font-size="14.00" fill="#2c94b3">AS6762</text>
</a>
</g>
</g>
<!-- AS174&#45;&gt;AS6762 -->
<g id="edge12" class="edge"><title>AS174&#45;&gt;AS6762</title>
<path fill="none" stroke="black" d="M305.757,-437.881C321.059,-430.587 340.783,-421.186 357.665,-413.14"/>
<polygon fill="black" stroke="black" points="359.184,-416.293 366.705,-408.831 356.172,-409.974 359.184,-416.293"/>
</g>
<!-- AS3257&#45;&gt;AS3491 -->
<g id="edge13" class="edge"><title>AS3257&#45;&gt;AS3491</title>
<path fill="none" stroke="black" d="M307.468,-408.934C322.462,-416.081 341.283,-425.052 357.506,-432.785"/>
<polygon fill="black" stroke="black" points="356.177,-436.028 366.71,-437.171 359.188,-429.709 356.177,-436.028"/>
</g>
<!-- AS3257&#45;&gt;AS6762 -->
<g id="edge15" class="edge"><title>AS3257&#45;&gt;AS6762</title>
<path fill="none" stroke="black" d="M319.004,-396C327.207,-396 335.971,-396 344.503,-396"/>
<polygon fill="black" stroke="black" points="344.742,-399.5 354.742,-396 344.742,-392.5 344.742,-399.5"/>
</g>
<!-- AS2497 -->
<g id="node14" class="node"><title>AS2497</title>
<g id="a_node14"><a xlink:href="/asn/2497" xlink:title="AS2497 ~ Internet Initiative Japan Inc. [JP]">
<ellipse fill="#ffffff" stroke="black" cx="394.625" cy="-342" rx="39.7935" ry="18"/>
<text text-anchor="middle" x="394.625" y="-338.3" font-family="Times,serif" font-size="14.00" fill="#2c94b3">AS2497</text>
</a>
</g>
</g>
<!-- AS3257&#45;&gt;AS2497 -->
<g id="edge14" class="edge"><title>AS3257&#45;&gt;AS2497</title>
<path fill="none" stroke="black" stroke-width="2" d="M307.468,-383.066C322.462,-375.919 341.283,-366.948 357.506,-359.215"/>
<polygon fill="black" stroke="black" stroke-width="2" points="359.188,-362.291 366.71,-354.829 356.177,-355.972 359.188,-362.291"/>
</g>
<!-- AS7018 -->
<g id="node18" class="node"><title>AS7018</title>
<g id="a_node18"><a xlink:href="/asn/7018" xlink:title="AS7018 ~ AT&amp;T Services, Inc. [US]">
<ellipse fill="#ffffff" stroke="black" cx="394.625" cy="-18" rx="39.7935" ry="18"/>
<text text-anchor="middle" x="394.625" y="-14.3" font-family="Times,serif" font-size="14.00" fill="#2c94b3">AS7018</text>
</a>
</g>
</g>
<!-- AS1299&#45;&gt;AS7018 -->
<g id="edge23" class="edge"><title>AS1299&#45;&gt;AS7018</title>
<path fill="none" stroke="black" stroke-width="2" d="M314.939,-36.7524C325.81,-34.1616 337.964,-31.2649 349.407,-28.5379"/>
<polygon fill="black" stroke="black" stroke-width="2" points="350.313,-31.9201 359.229,-26.1971 348.69,-25.1108 350.313,-31.9201"/>
</g>
<!-- AS3356&#45;&gt;AS6762 -->
<g id="edge19" class="edge"><title>AS3356&#45;&gt;AS6762</title>
<path fill="none" stroke="black" d="M303.926,-302.389C309.182,-306.148 314.513,-310.437 318.978,-315 339.151,-335.617 334.806,-348.383 354.978,-369 357.071,-371.139 359.354,-373.218 361.731,-375.21"/>
<polygon fill="black" stroke="black" points="359.974,-378.275 370.031,-381.611 364.249,-372.732 359.974,-378.275"/>
</g>
<!-- AS3356&#45;&gt;AS2497 -->
<g id="edge18" class="edge"><title>AS3356&#45;&gt;AS2497</title>
<path fill="none" stroke="black" stroke-width="2" d="M307.468,-300.934C322.462,-308.081 341.283,-317.052 357.506,-324.785"/>
<polygon fill="black" stroke="black" stroke-width="2" points="356.177,-328.028 366.71,-329.171 359.188,-321.709 356.177,-328.028"/>
</g>
<!-- AS6453 -->
<g id="node15" class="node"><title>AS6453</title>
<g id="a_node15"><a xlink:href="/asn/6453" xlink:title="AS6453 ~ TATA COMMUNICATIONS (AMERICA) INC [US]">
<ellipse fill="#ffffff" stroke="black" cx="394.625" cy="-180" rx="39.7935" ry="18"/>
<text text-anchor="middle" x="394.625" y="-176.3" font-family="Times,serif" font-size="14.00" fill="#2c94b3">AS6453</text>
</a>
</g>
</g>
<!-- AS3356&#45;&gt;AS6453 -->
<g id="edge16" class="edge"><title>AS3356&#45;&gt;AS6453</title>
<path fill="none" stroke="black" d="M293.962,-271.183C308.244,-254.071 331.791,-227.255 354.978,-207 357.444,-204.846 360.082,-202.706 362.78,-200.628"/>
<polygon fill="black" stroke="black" points="364.953,-203.375 370.934,-194.63 360.805,-197.736 364.953,-203.375"/>
</g>
<!-- AS3549 -->
<g id="node16" class="node"><title>AS3549</title>
<g id="a_node16"><a xlink:href="/asn/3549" xlink:title="AS3549 ~ Level 3 Parent, LLC [US]">
<ellipse fill="#ffffff" stroke="black" cx="394.625" cy="-234" rx="39.7935" ry="18"/>
<text text-anchor="middle" x="394.625" y="-230.3" font-family="Times,serif" font-size="14.00" fill="#2c94b3">AS3549</text>
</a>
</g>
</g>
<!-- AS3356&#45;&gt;AS3549 -->
<g id="edge17" class="edge"><title>AS3356&#45;&gt;AS3549</title>
<path fill="none" stroke="black" d="M307.468,-275.066C322.462,-267.919 341.283,-258.948 357.506,-251.215"/>
<polygon fill="black" stroke="black" points="359.188,-254.291 366.71,-246.829 356.177,-247.972 359.188,-254.291"/>
</g>
<!-- AS209 -->
<g id="node17" class="node"><title>AS209</title>
<g id="a_node17"><a xlink:href="/asn/209" xlink:title="AS209 ~ CenturyLink Communications, LLC [US]">
<ellipse fill="#ffffff" stroke="black" cx="394.625" cy="-288" rx="35.194" ry="18"/>
<text text-anchor="middle" x="394.625" y="-284.3" font-family="Times,serif" font-size="14.00" fill="#2c94b3">AS209</text>
</a>
</g>
</g>
<!-- AS3356&#45;&gt;AS209 -->
<g id="edge20" class="edge"><title>AS3356&#45;&gt;AS209</title>
<path fill="none" stroke="black" d="M319.004,-288C328.709,-288 339.2,-288 349.163,-288"/>
<polygon fill="black" stroke="black" points="349.299,-291.5 359.299,-288 349.299,-284.5 349.299,-291.5"/>
</g>
<!-- AS2914&#45;&gt;AS6762 -->
<g id="edge22" class="edge"><title>AS2914&#45;&gt;AS6762</title>
<path fill="none" stroke="black" d="M307.468,-354.934C322.462,-362.081 341.283,-371.052 357.506,-378.785"/>
<polygon fill="black" stroke="black" points="356.177,-382.028 366.71,-383.171 359.188,-375.709 356.177,-382.028"/>
</g>
<!-- AS2914&#45;&gt;AS2497 -->
<g id="edge21" class="edge"><title>AS2914&#45;&gt;AS2497</title>
<path fill="none" stroke="black" stroke-width="2" d="M319.004,-342C327.207,-342 335.971,-342 344.503,-342"/>
<polygon fill="black" stroke="black" stroke-width="2" points="344.742,-345.5 354.742,-342 344.742,-338.5 344.742,-345.5"/>
</g>
<!-- AS3320&#45;&gt;AS6453 -->
<g id="edge26" class="edge"><title>AS3320&#45;&gt;AS6453</title>
<path fill="none" stroke="black" d="M314.939,-161.248C325.81,-163.838 337.964,-166.735 349.407,-169.462"/>
<polygon fill="black" stroke="black" points="348.69,-172.889 359.229,-171.803 350.313,-166.08 348.69,-172.889"/>
</g>
<!-- AS701 -->
<g id="node19" class="node"><title>AS701</title>
<g id="a_node19"><a xlink:href="/asn/701" xlink:title="AS701 ~ UUNET [US]">
<ellipse fill="#ffffff" stroke="black" cx="394.625" cy="-72" rx="35.194" ry="18"/>
<text text-anchor="middle" x="394.625" y="-68.3" font-family="Times,serif" font-size="14.00" fill="#2c94b3">AS701</text>
</a>
</g>
</g>
<!-- AS3320&#45;&gt;AS701 -->
<g id="edge24" class="edge"><title>AS3320&#45;&gt;AS701</title>
<path fill="none" stroke="black" stroke-width="2" d="M301.18,-137.778C316.114,-126.909 336.727,-111.975 354.978,-99 358.188,-96.7177 361.557,-94.3393 364.912,-91.9816"/>
<polygon fill="black" stroke="black" stroke-width="2" points="366.94,-94.8341 373.123,-86.2301 362.924,-89.1008 366.94,-94.8341"/>
</g>
<!-- AS1239 -->
<g id="node20" class="node"><title>AS1239</title>
<g id="a_node20"><a xlink:href="/asn/1239" xlink:title="AS1239 ~ Sprint [US]">
<ellipse fill="#ffffff" stroke="black" cx="394.625" cy="-126" rx="39.7935" ry="18"/>
<text text-anchor="middle" x="394.625" y="-122.3" font-family="Times,serif" font-size="14.00" fill="#2c94b3">AS1239</text>
</a>
</g>
</g>
<!-- AS3320&#45;&gt;AS1239 -->
<g id="edge25" class="edge"><title>AS3320&#45;&gt;AS1239</title>
<path fill="none" stroke="black" d="M314.939,-144.752C325.81,-142.162 337.964,-139.265 349.407,-136.538"/>
<polygon fill="black" stroke="black" points="350.313,-139.92 359.229,-134.197 348.69,-133.111 350.313,-139.92"/>
</g>
<!-- AS6939&#45;&gt;AS3491 -->
<g id="edge30" class="edge"><title>AS6939&#45;&gt;AS3491</title>
<path fill="none" stroke="black" d="M307.468,-491.066C322.462,-483.919 341.283,-474.948 357.506,-467.215"/>
<polygon fill="black" stroke="black" points="359.188,-470.291 366.71,-462.829 356.177,-463.972 359.188,-470.291"/>
</g>
<!-- AS6939&#45;&gt;AS6762 -->
<g id="edge29" class="edge"><title>AS6939&#45;&gt;AS6762</title>
<path fill="none" stroke="black" d="M303.926,-489.611C309.182,-485.852 314.513,-481.563 318.978,-477 339.151,-456.383 334.806,-443.617 354.978,-423 357.071,-420.861 359.354,-418.782 361.731,-416.79"/>
<polygon fill="black" stroke="black" points="364.249,-419.268 370.031,-410.389 359.974,-413.725 364.249,-419.268"/>
</g>
<!-- AS6939&#45;&gt;AS2497 -->
<g id="edge28" class="edge"><title>AS6939&#45;&gt;AS2497</title>
<path fill="none" stroke="black" d="M305.262,-490.118C310.338,-486.389 315.256,-481.984 318.978,-477 349.249,-436.458 324.707,-409.542 354.978,-369 356.723,-366.664 358.73,-364.455 360.893,-362.383"/>
<polygon fill="black" stroke="black" points="363.253,-364.973 368.694,-355.882 358.771,-359.595 363.253,-364.973"/>
</g>
<!-- AS1273 -->
<g id="node21" class="node"><title>AS1273</title>
<g id="a_node21"><a xlink:href="/asn/1273" xlink:title="AS1273 ~ Vodafone Group PLC [EU]">
<ellipse fill="#ffffff" stroke="black" cx="394.625" cy="-504" rx="39.7935" ry="18"/>
<text text-anchor="middle" x="394.625" y="-500.3" font-family="Times,serif" font-size="14.00" fill="#2c94b3">AS1273</text>
</a>
</g>
</g>
<!-- AS6939&#45;&gt;AS1273 -->
<g id="edge27" class="edge"><title>AS6939&#45;&gt;AS1273</title>
<path fill="none" stroke="black" d="M319.004,-504C327.207,-504 335.971,-504 344.503,-504"/>
<polygon fill="black" stroke="black" points="344.742,-507.5 354.742,-504 344.742,-500.5 344.742,-507.5"/>
</g>
</g>
</svg>
