<?xml version="1.0" encoding="UTF-8" standalone="no"?>
<!DOCTYPE svg PUBLIC "-//W3C//DTD SVG 1.1//EN"
 "http://www.w3.org/Graphics/SVG/1.1/DTD/svg11.dtd">
<!-- Generated by graphviz version 2.38.0 (20140413.2041)
 -->
<!-- Title: AS47477 IPv6 Upstream Graph Pages: 1 -->
<svg width="682pt" height="368pt"
 viewBox="0.00 0.00 681.96 368.00" xmlns="http://www.w3.org/2000/svg" xmlns:xlink="http://www.w3.org/1999/xlink">
<g id="graph0" class="graph" transform="scale(1 1) rotate(0) translate(4 364)">
<title>AS47477 IPv6 Upstream Graph</title>
<polygon fill="white" stroke="none" points="-4,4 -4,-364 677.956,-364 677.956,4 -4,4"/>
<!-- AS47477 -->
<g id="node1" class="node"><title>AS47477</title>
<g id="a_node1"><a xlink:href="/asn/47477" xlink:title="AS47477 ~ REWEA&#45;AS [AT]">
<ellipse fill="#ffffff" stroke="black" cx="44.1961" cy="-120" rx="44.393" ry="18"/>
<text text-anchor="middle" x="44.1961" y="-116.3" font-family="Times,serif" font-size="14.00" fill="#880000">AS47477</text>
</a>
</g>
</g>
<!-- AS8437 -->
<g id="node2" class="node"><title>AS8437</title>
<g id="a_node2"><a xlink:href="/asn/8437" xlink:title="AS8437 ~ Hutchison Drei Austria GmbH [AT]">
<ellipse fill="#ffffff" stroke="black" cx="164.039" cy="-97" rx="39.7935" ry="18"/>
<text text-anchor="middle" x="164.039" y="-93.3" font-family="Times,serif" font-size="14.00" fill="#2c94b3">AS8437</text>
</a>
</g>
</g>
<!-- AS47477&#45;&gt;AS8437 -->
<g id="edge1" class="edge"><title>AS47477&#45;&gt;AS8437</title>
<path fill="none" stroke="black" stroke-width="3.11538" d="M84.4359,-112.341C94.8881,-110.301 106.274,-108.079 117.052,-105.975"/>
<polygon fill="black" stroke="black" stroke-width="3.11538" points="118.005,-109.356 127.149,-104.005 116.664,-102.485 118.005,-109.356"/>
</g>
<!-- AS8447 -->
<g id="node3" class="node"><title>AS8447</title>
<g id="a_node3"><a xlink:href="/asn/8447" xlink:title="AS8447 ~ A1 Telekom Austria AG [AT]">
<ellipse fill="#ffffff" stroke="black" cx="403.724" cy="-153" rx="39.7935" ry="18"/>
<text text-anchor="middle" x="403.724" y="-149.3" font-family="Times,serif" font-size="14.00" fill="#2c94b3">AS8447</text>
</a>
</g>
</g>
<!-- AS47477&#45;&gt;AS8447 -->
<g id="edge2" class="edge"><title>AS47477&#45;&gt;AS8447</title>
<path fill="none" stroke="black" stroke-width="4.5" d="M87.6132,-123.915C154.47,-130.086 283.971,-142.039 354.351,-148.535"/>
<polygon fill="black" stroke="black" stroke-width="4.5" points="354.386,-152.493 364.705,-149.491 355.11,-144.651 354.386,-152.493"/>
</g>
<!-- AS25255 -->
<g id="node4" class="node"><title>AS25255</title>
<g id="a_node4"><a xlink:href="/asn/25255" xlink:title="AS25255 ~ ==&gt; TELE2 AUSTRIA &lt;== [AT]">
<ellipse fill="#ffffff" stroke="black" cx="283.881" cy="-97" rx="44.393" ry="18"/>
<text text-anchor="middle" x="283.881" y="-93.3" font-family="Times,serif" font-size="14.00" fill="#2c94b3">AS25255</text>
</a>
</g>
</g>
<!-- AS8437&#45;&gt;AS25255 -->
<g id="edge3" class="edge"><title>AS8437&#45;&gt;AS25255</title>
<path fill="none" stroke="black" stroke-width="4.5" d="M203.951,-97C212.054,-97 220.729,-97 229.255,-97"/>
<polygon fill="black" stroke="black" stroke-width="4.5" points="229.533,-100.938 239.533,-97 229.533,-93.0626 229.533,-100.938"/>
</g>
<!-- AS3356 -->
<g id="node10" class="node"><title>AS3356</title>
<g id="a_node10"><a xlink:href="/asn/3356" xlink:title="AS3356 ~ Level 3 Parent, LLC [US]">
<ellipse fill="#ffffff" stroke="black" cx="519.017" cy="-177" rx="39.7935" ry="18"/>
<text text-anchor="middle" x="519.017" y="-173.3" font-family="Times,serif" font-size="14.00" fill="#2c94b3">AS3356</text>
</a>
</g>
</g>
<!-- AS8447&#45;&gt;AS3356 -->
<g id="edge24" class="edge"><title>AS8447&#45;&gt;AS3356</title>
<path fill="none" stroke="black" stroke-width="4.5" d="M439.949,-160.462C450.393,-162.675 461.976,-165.128 472.953,-167.454"/>
<polygon fill="black" stroke="black" stroke-width="4.5" points="472.214,-171.322 482.813,-169.542 473.846,-163.618 472.214,-171.322"/>
</g>
<!-- AS1299 -->
<g id="node11" class="node"><title>AS1299</title>
<g id="a_node11"><a xlink:href="/asn/1299" xlink:title="AS1299 ~ Telia Carrier [EU]">
<ellipse fill="#ffffff" stroke="black" cx="519.017" cy="-231" rx="39.7935" ry="18"/>
<text text-anchor="middle" x="519.017" y="-227.3" font-family="Times,serif" font-size="14.00" fill="#2c94b3">AS1299</text>
</a>
</g>
</g>
<!-- AS8447&#45;&gt;AS1299 -->
<g id="edge25" class="edge"><title>AS8447&#45;&gt;AS1299</title>
<path fill="none" stroke="black" stroke-width="3.6" d="M426.3,-167.855C443.67,-179.814 468.294,-196.767 487.655,-210.096"/>
<polygon fill="black" stroke="black" stroke-width="3.6" points="485.914,-213.147 496.135,-215.935 489.883,-207.381 485.914,-213.147"/>
</g>
<!-- AS6939 -->
<g id="node12" class="node"><title>AS6939</title>
<g id="a_node12"><a xlink:href="/asn/6939" xlink:title="AS6939 ~ Hurricane Electric LLC [US]">
<ellipse fill="#ffffff" stroke="black" cx="519.017" cy="-123" rx="39.7935" ry="18"/>
<text text-anchor="middle" x="519.017" y="-119.3" font-family="Times,serif" font-size="14.00" fill="#2c94b3">AS6939</text>
</a>
</g>
</g>
<!-- AS8447&#45;&gt;AS6939 -->
<g id="edge23" class="edge"><title>AS8447&#45;&gt;AS6939</title>
<path fill="none" stroke="black" stroke-width="3.6" d="M438.409,-144.08C449.721,-141.085 462.505,-137.7 474.464,-134.533"/>
<polygon fill="black" stroke="black" stroke-width="3.6" points="475.495,-137.88 484.266,-131.937 473.703,-131.114 475.495,-137.88"/>
</g>
<!-- AS1764 -->
<g id="node5" class="node"><title>AS1764</title>
<g id="a_node5"><a xlink:href="/asn/1764" xlink:title="AS1764 ~ NEXTLAYER&#45;AS [AT]">
<ellipse fill="#ffffff" stroke="black" cx="403.724" cy="-211" rx="39.7935" ry="18"/>
<text text-anchor="middle" x="403.724" y="-207.3" font-family="Times,serif" font-size="14.00" fill="#2c94b3">AS1764</text>
</a>
</g>
</g>
<!-- AS25255&#45;&gt;AS1764 -->
<g id="edge4" class="edge"><title>AS25255&#45;&gt;AS1764</title>
<path fill="none" stroke="black" stroke-width="4.5" d="M299.744,-113.85C315.218,-131.081 340.45,-158.32 364.077,-180 367.448,-183.093 371.086,-186.239 374.736,-189.282"/>
<polygon fill="black" stroke="black" stroke-width="4.5" points="372.401,-192.459 382.642,-195.72 377.374,-186.353 372.401,-192.459"/>
</g>
<!-- AS3320 -->
<g id="node6" class="node"><title>AS3320</title>
<g id="a_node6"><a xlink:href="/asn/3320" xlink:title="AS3320 ~ DTAG [DE]">
<ellipse fill="#ffffff" stroke="black" cx="403.724" cy="-23" rx="39.7935" ry="18"/>
<text text-anchor="middle" x="403.724" y="-19.3" font-family="Times,serif" font-size="14.00" fill="#2c94b3">AS3320</text>
</a>
</g>
</g>
<!-- AS25255&#45;&gt;AS3320 -->
<g id="edge5" class="edge"><title>AS25255&#45;&gt;AS3320</title>
<path fill="none" stroke="black" stroke-width="0.75" d="M308.728,-82.025C326.691,-70.745 351.493,-55.1709 371.109,-42.8526"/>
<polygon fill="black" stroke="black" stroke-width="0.75" points="373.107,-45.7312 379.714,-37.4491 369.384,-39.8031 373.107,-45.7312"/>
</g>
<!-- AS6762 -->
<g id="node7" class="node"><title>AS6762</title>
<g id="a_node7"><a xlink:href="/asn/6762" xlink:title="AS6762 ~ TELECOM ITALIA SPARKLE S.p.A. [IT]">
<ellipse fill="#ffffff" stroke="black" cx="403.724" cy="-92" rx="39.7935" ry="18"/>
<text text-anchor="middle" x="403.724" y="-88.3" font-family="Times,serif" font-size="14.00" fill="#2c94b3">AS6762</text>
</a>
</g>
</g>
<!-- AS25255&#45;&gt;AS6762 -->
<g id="edge6" class="edge"><title>AS25255&#45;&gt;AS6762</title>
<path fill="none" stroke="black" stroke-width="1.5" d="M328.092,-95.1666C336.498,-94.8099 345.364,-94.4337 353.936,-94.0701"/>
<polygon fill="black" stroke="black" stroke-width="1.5" points="354.351,-97.5557 364.194,-93.6348 354.054,-90.562 354.351,-97.5557"/>
</g>
<!-- AS8218 -->
<g id="node8" class="node"><title>AS8218</title>
<g id="a_node8"><a xlink:href="/asn/8218" xlink:title="AS8218 ~ legacy Neotelecoms [FR]">
<ellipse fill="#ffffff" stroke="black" cx="519.017" cy="-337" rx="39.7935" ry="18"/>
<text text-anchor="middle" x="519.017" y="-333.3" font-family="Times,serif" font-size="14.00" fill="#2c94b3">AS8218</text>
</a>
</g>
</g>
<!-- AS1764&#45;&gt;AS8218 -->
<g id="edge7" class="edge"><title>AS1764&#45;&gt;AS8218</title>
<path fill="none" stroke="black" d="M418.685,-227.989C433.426,-245.756 457.512,-274.3 479.37,-298 484.06,-303.084 489.195,-308.42 494.148,-313.456"/>
<polygon fill="black" stroke="black" points="491.669,-315.927 501.2,-320.555 496.636,-310.993 491.669,-315.927"/>
</g>
<!-- AS174 -->
<g id="node9" class="node"><title>AS174</title>
<g id="a_node9"><a xlink:href="/asn/174" xlink:title="AS174 ~ Cogent Communications [US]">
<ellipse fill="#ffffff" stroke="black" cx="634.31" cy="-288" rx="35.194" ry="18"/>
<text text-anchor="middle" x="634.31" y="-284.3" font-family="Times,serif" font-size="14.00" fill="#2c94b3">AS174</text>
</a>
</g>
</g>
<!-- AS1764&#45;&gt;AS174 -->
<g id="edge8" class="edge"><title>AS1764&#45;&gt;AS174</title>
<path fill="none" stroke="black" d="M424.536,-226.341C438.981,-236.787 459.437,-250.103 479.37,-258 514.963,-272.101 557.896,-279.762 589.369,-283.804"/>
<polygon fill="black" stroke="black" points="589.228,-287.312 599.576,-285.04 590.069,-280.363 589.228,-287.312"/>
</g>
<!-- AS1764&#45;&gt;AS3356 -->
<g id="edge9" class="edge"><title>AS1764&#45;&gt;AS3356</title>
<path fill="none" stroke="black" d="M437.189,-201.257C449.159,-197.665 462.902,-193.54 475.62,-189.723"/>
<polygon fill="black" stroke="black" points="476.975,-192.971 485.547,-186.744 474.963,-186.267 476.975,-192.971"/>
</g>
<!-- AS1764&#45;&gt;AS1299 -->
<g id="edge10" class="edge"><title>AS1764&#45;&gt;AS1299</title>
<path fill="none" stroke="black" stroke-width="2" d="M440.882,-217.383C450.693,-219.115 461.451,-221.014 471.737,-222.83"/>
<polygon fill="black" stroke="black" stroke-width="2" points="471.357,-226.317 481.814,-224.609 472.574,-219.424 471.357,-226.317"/>
</g>
<!-- AS1764&#45;&gt;AS6939 -->
<g id="edge11" class="edge"><title>AS1764&#45;&gt;AS6939</title>
<path fill="none" stroke="black" d="M424.442,-195.3C430.53,-190.421 437.244,-185.009 443.37,-180 459.494,-166.817 462.819,-162.642 479.37,-150 482.12,-147.899 485.016,-145.756 487.935,-143.642"/>
<polygon fill="black" stroke="black" points="490,-146.468 496.117,-137.818 485.941,-140.765 490,-146.468"/>
</g>
<!-- AS3491 -->
<g id="node14" class="node"><title>AS3491</title>
<g id="a_node14"><a xlink:href="/asn/3491" xlink:title="AS3491 ~ PCCW Global, Inc. [US]">
<ellipse fill="#ffffff" stroke="black" cx="634.31" cy="-18" rx="39.7935" ry="18"/>
<text text-anchor="middle" x="634.31" y="-14.3" font-family="Times,serif" font-size="14.00" fill="#2c94b3">AS3491</text>
</a>
</g>
</g>
<!-- AS3320&#45;&gt;AS3491 -->
<g id="edge13" class="edge"><title>AS3320&#45;&gt;AS3491</title>
<path fill="none" stroke="black" d="M443.5,-22.1518C482.333,-21.3024 542.216,-19.9925 584.314,-19.0717"/>
<polygon fill="black" stroke="black" points="584.422,-22.5703 594.343,-18.8523 584.269,-15.572 584.422,-22.5703"/>
</g>
<!-- AS6762&#45;&gt;AS3491 -->
<g id="edge22" class="edge"><title>AS6762&#45;&gt;AS3491</title>
<path fill="none" stroke="black" d="M436.508,-81.7106C476.995,-68.6037 547.06,-45.9215 591.748,-31.4547"/>
<polygon fill="black" stroke="black" points="592.992,-34.7309 601.428,-28.321 590.836,-28.0711 592.992,-34.7309"/>
</g>
<!-- AS6461 -->
<g id="node13" class="node"><title>AS6461</title>
<g id="a_node13"><a xlink:href="/asn/6461" xlink:title="AS6461 ~ Zayo Bandwidth [US]">
<ellipse fill="#ffffff" stroke="black" cx="634.31" cy="-342" rx="39.7935" ry="18"/>
<text text-anchor="middle" x="634.31" y="-338.3" font-family="Times,serif" font-size="14.00" fill="#2c94b3">AS6461</text>
</a>
</g>
</g>
<!-- AS8218&#45;&gt;AS6461 -->
<g id="edge12" class="edge"><title>AS8218&#45;&gt;AS6461</title>
<path fill="none" stroke="black" d="M558.689,-338.707C567.074,-339.077 576.046,-339.473 584.757,-339.857"/>
<polygon fill="black" stroke="black" points="584.667,-343.357 594.812,-340.301 584.976,-336.363 584.667,-343.357"/>
</g>
<!-- AS3356&#45;&gt;AS174 -->
<g id="edge28" class="edge"><title>AS3356&#45;&gt;AS174</title>
<path fill="none" stroke="black" d="M543.693,-191.31C548.946,-195.072 554.255,-199.382 558.663,-204 579.352,-225.674 573.974,-239.326 594.663,-261 597.111,-263.564 599.837,-266.034 602.676,-268.367"/>
<polygon fill="black" stroke="black" points="600.758,-271.305 610.844,-274.548 604.982,-265.723 600.758,-271.305"/>
</g>
<!-- AS209 -->
<g id="node15" class="node"><title>AS209</title>
<g id="a_node15"><a xlink:href="/asn/209" xlink:title="AS209 ~ CenturyLink Communications, LLC [US]">
<ellipse fill="#ffffff" stroke="black" cx="634.31" cy="-180" rx="35.194" ry="18"/>
<text text-anchor="middle" x="634.31" y="-176.3" font-family="Times,serif" font-size="14.00" fill="#2c94b3">AS209</text>
</a>
</g>
</g>
<!-- AS3356&#45;&gt;AS209 -->
<g id="edge29" class="edge"><title>AS3356&#45;&gt;AS209</title>
<path fill="none" stroke="black" d="M558.689,-178.024C568.394,-178.281 578.885,-178.559 588.848,-178.823"/>
<polygon fill="black" stroke="black" points="588.895,-182.325 598.984,-179.091 589.08,-175.327 588.895,-182.325"/>
</g>
<!-- AS2914 -->
<g id="node17" class="node"><title>AS2914</title>
<g id="a_node17"><a xlink:href="/asn/2914" xlink:title="AS2914 ~ NTT America, Inc. [US]">
<ellipse fill="#ffffff" stroke="black" cx="634.31" cy="-126" rx="39.7935" ry="18"/>
<text text-anchor="middle" x="634.31" y="-122.3" font-family="Times,serif" font-size="14.00" fill="#2c94b3">AS2914</text>
</a>
</g>
</g>
<!-- AS3356&#45;&gt;AS2914 -->
<g id="edge26" class="edge"><title>AS3356&#45;&gt;AS2914</title>
<path fill="none" stroke="black" d="M547.731,-164.524C562.27,-157.979 580.284,-149.87 596.03,-142.782"/>
<polygon fill="black" stroke="black" points="597.807,-145.82 605.489,-138.524 594.933,-139.437 597.807,-145.82"/>
</g>
<!-- AS2497 -->
<g id="node18" class="node"><title>AS2497</title>
<g id="a_node18"><a xlink:href="/asn/2497" xlink:title="AS2497 ~ Internet Initiative Japan Inc. [JP]">
<ellipse fill="#ffffff" stroke="black" cx="634.31" cy="-72" rx="39.7935" ry="18"/>
<text text-anchor="middle" x="634.31" y="-68.3" font-family="Times,serif" font-size="14.00" fill="#2c94b3">AS2497</text>
</a>
</g>
</g>
<!-- AS3356&#45;&gt;AS2497 -->
<g id="edge27" class="edge"><title>AS3356&#45;&gt;AS2497</title>
<path fill="none" stroke="black" d="M543.523,-162.524C548.783,-158.769 554.138,-154.503 558.663,-150 578.329,-130.429 574.997,-118.571 594.663,-99 596.784,-96.8891 599.088,-94.8304 601.479,-92.8521"/>
<polygon fill="black" stroke="black" points="603.992,-95.3355 609.803,-86.4764 599.736,-89.7781 603.992,-95.3355"/>
</g>
<!-- AS1299&#45;&gt;AS174 -->
<g id="edge17" class="edge"><title>AS1299&#45;&gt;AS174</title>
<path fill="none" stroke="black" d="M546.293,-244.22C562.177,-252.212 582.585,-262.479 599.644,-271.062"/>
<polygon fill="black" stroke="black" points="598.221,-274.264 608.727,-275.632 601.367,-268.011 598.221,-274.264"/>
</g>
<!-- AS1299&#45;&gt;AS209 -->
<g id="edge14" class="edge"><title>AS1299&#45;&gt;AS209</title>
<path fill="none" stroke="black" d="M547.731,-218.524C562.955,-211.671 581.989,-203.102 598.239,-195.788"/>
<polygon fill="black" stroke="black" points="599.753,-198.944 607.435,-191.648 596.879,-192.561 599.753,-198.944"/>
</g>
<!-- AS7018 -->
<g id="node16" class="node"><title>AS7018</title>
<g id="a_node16"><a xlink:href="/asn/7018" xlink:title="AS7018 ~ AT&amp;T Services, Inc. [US]">
<ellipse fill="#ffffff" stroke="black" cx="634.31" cy="-234" rx="39.7935" ry="18"/>
<text text-anchor="middle" x="634.31" y="-230.3" font-family="Times,serif" font-size="14.00" fill="#2c94b3">AS7018</text>
</a>
</g>
</g>
<!-- AS1299&#45;&gt;AS7018 -->
<g id="edge15" class="edge"><title>AS1299&#45;&gt;AS7018</title>
<path fill="none" stroke="black" d="M558.689,-232.024C566.892,-232.241 575.656,-232.473 584.188,-232.699"/>
<polygon fill="black" stroke="black" points="584.338,-236.204 594.427,-232.97 584.523,-229.207 584.338,-236.204"/>
</g>
<!-- AS1299&#45;&gt;AS2914 -->
<g id="edge16" class="edge"><title>AS1299&#45;&gt;AS2914</title>
<path fill="none" stroke="black" d="M543.523,-216.524C548.783,-212.769 554.138,-208.503 558.663,-204 578.329,-184.429 574.997,-172.571 594.663,-153 596.784,-150.889 599.088,-148.83 601.479,-146.852"/>
<polygon fill="black" stroke="black" points="603.992,-149.335 609.803,-140.476 599.736,-143.778 603.992,-149.335"/>
</g>
<!-- AS6939&#45;&gt;AS3491 -->
<g id="edge20" class="edge"><title>AS6939&#45;&gt;AS3491</title>
<path fill="none" stroke="black" d="M537.171,-106.573C543.957,-99.9604 551.768,-92.2067 558.663,-85 575.198,-67.7186 576.743,-60.8408 594.663,-45 597.116,-42.8317 599.746,-40.6818 602.438,-38.5975"/>
<polygon fill="black" stroke="black" points="604.614,-41.3417 610.583,-32.5886 600.458,-35.7087 604.614,-41.3417"/>
</g>
<!-- AS6939&#45;&gt;AS209 -->
<g id="edge18" class="edge"><title>AS6939&#45;&gt;AS209</title>
<path fill="none" stroke="black" stroke-width="2" d="M546.293,-136.22C562.177,-144.212 582.585,-154.479 599.644,-163.062"/>
<polygon fill="black" stroke="black" stroke-width="2" points="598.221,-166.264 608.727,-167.632 601.367,-160.011 598.221,-166.264"/>
</g>
<!-- AS6939&#45;&gt;AS2914 -->
<g id="edge19" class="edge"><title>AS6939&#45;&gt;AS2914</title>
<path fill="none" stroke="black" d="M558.689,-124.024C566.892,-124.241 575.656,-124.473 584.188,-124.699"/>
<polygon fill="black" stroke="black" points="584.338,-128.204 594.427,-124.97 584.523,-121.207 584.338,-128.204"/>
</g>
<!-- AS6939&#45;&gt;AS2497 -->
<g id="edge21" class="edge"><title>AS6939&#45;&gt;AS2497</title>
<path fill="none" stroke="black" d="M547.731,-110.524C562.27,-103.979 580.284,-95.8698 596.03,-88.782"/>
<polygon fill="black" stroke="black" points="597.807,-91.8204 605.489,-84.524 594.933,-85.4373 597.807,-91.8204"/>
</g>
</g>
</svg>
