<?xml version="1.0" encoding="UTF-8" standalone="no"?>
<!DOCTYPE svg PUBLIC "-//W3C//DTD SVG 1.1//EN"
 "http://www.w3.org/Graphics/SVG/1.1/DTD/svg11.dtd">
<!-- Generated by graphviz version 2.38.0 (20140413.2041)
 -->
<!-- Title: AS47477 IPv4 Upstream Graph Pages: 1 -->
<svg width="913pt" height="688pt"
 viewBox="0.00 0.00 912.54 688.00" xmlns="http://www.w3.org/2000/svg" xmlns:xlink="http://www.w3.org/1999/xlink">
<g id="graph0" class="graph" transform="scale(1 1) rotate(0) translate(4 684)">
<title>AS47477 IPv4 Upstream Graph</title>
<polygon fill="white" stroke="none" points="-4,4 -4,-684 908.542,-684 908.542,4 -4,4"/>
<!-- AS47477 -->
<g id="node1" class="node"><title>AS47477</title>
<g id="a_node1"><a xlink:href="/asn/47477" xlink:title="AS47477 ~ REWEA&#45;AS [AT]">
<ellipse fill="#ffffff" stroke="black" cx="44.1961" cy="-324" rx="44.393" ry="18"/>
<text text-anchor="middle" x="44.1961" y="-320.3" font-family="Times,serif" font-size="14.00" fill="#880000">AS47477</text>
</a>
</g>
</g>
<!-- AS1764 -->
<g id="node2" class="node"><title>AS1764</title>
<g id="a_node2"><a xlink:href="/asn/1764" xlink:title="AS1764 ~ NEXTLAYER&#45;AS [AT]">
<ellipse fill="#ffffff" stroke="black" cx="403.724" cy="-370" rx="39.7935" ry="18"/>
<text text-anchor="middle" x="403.724" y="-366.3" font-family="Times,serif" font-size="14.00" fill="#2c94b3">AS1764</text>
</a>
</g>
</g>
<!-- AS47477&#45;&gt;AS1764 -->
<g id="edge1" class="edge"><title>AS47477&#45;&gt;AS1764</title>
<path fill="none" stroke="black" stroke-width="4.5" d="M75.9008,-336.554C90.3694,-341.925 108.014,-347.708 124.392,-351 203.573,-366.916 297.695,-370.159 353.697,-370.486"/>
<polygon fill="black" stroke="black" stroke-width="4.5" points="354.025,-374.424 364.036,-370.515 354.047,-366.549 354.025,-374.424"/>
</g>
<!-- AS8437 -->
<g id="node3" class="node"><title>AS8437</title>
<g id="a_node3"><a xlink:href="/asn/8437" xlink:title="AS8437 ~ Hutchison Drei Austria GmbH [AT]">
<ellipse fill="#ffffff" stroke="black" cx="164.039" cy="-324" rx="39.7935" ry="18"/>
<text text-anchor="middle" x="164.039" y="-320.3" font-family="Times,serif" font-size="14.00" fill="#2c94b3">AS8437</text>
</a>
</g>
</g>
<!-- AS47477&#45;&gt;AS8437 -->
<g id="edge2" class="edge"><title>AS47477&#45;&gt;AS8437</title>
<path fill="none" stroke="black" stroke-width="4.25" d="M88.4072,-324C96.7198,-324 105.482,-324 113.965,-324"/>
<polygon fill="black" stroke="black" stroke-width="4.25" points="114.123,-327.719 124.123,-324 114.123,-320.281 114.123,-327.719"/>
</g>
<!-- AS8447 -->
<g id="node4" class="node"><title>AS8447</title>
<g id="a_node4"><a xlink:href="/asn/8447" xlink:title="AS8447 ~ A1 Telekom Austria AG [AT]">
<ellipse fill="#ffffff" stroke="black" cx="403.724" cy="-278" rx="39.7935" ry="18"/>
<text text-anchor="middle" x="403.724" y="-274.3" font-family="Times,serif" font-size="14.00" fill="#2c94b3">AS8447</text>
</a>
</g>
</g>
<!-- AS47477&#45;&gt;AS8447 -->
<g id="edge3" class="edge"><title>AS47477&#45;&gt;AS8447</title>
<path fill="none" stroke="black" stroke-width="2.75" d="M75.9008,-311.446C90.3694,-306.075 108.014,-300.292 124.392,-297 203.573,-281.084 297.695,-277.841 353.697,-277.514"/>
<polygon fill="black" stroke="black" stroke-width="2.75" points="354.046,-281.014 364.036,-277.485 354.026,-274.014 354.046,-281.014"/>
</g>
<!-- AS174 -->
<g id="node5" class="node"><title>AS174</title>
<g id="a_node5"><a xlink:href="/asn/174" xlink:title="AS174 ~ Cogent Communications [US]">
<ellipse fill="#ffffff" stroke="black" cx="634.31" cy="-18" rx="35.194" ry="18"/>
<text text-anchor="middle" x="634.31" y="-14.3" font-family="Times,serif" font-size="14.00" fill="#2c94b3">AS174</text>
</a>
</g>
</g>
<!-- AS1764&#45;&gt;AS174 -->
<g id="edge4" class="edge"><title>AS1764&#45;&gt;AS174</title>
<path fill="none" stroke="black" stroke-width="3" d="M416.275,-352.896C424.572,-340.098 435.614,-321.953 443.37,-305 464.42,-258.99 455.406,-241.561 479.37,-197 518.697,-123.873 536.734,-109.484 594.663,-50 598.127,-46.4428 601.965,-42.8833 605.838,-39.4988"/>
<polygon fill="black" stroke="black" stroke-width="3" points="608.333,-41.9727 613.728,-32.8543 603.825,-36.6182 608.333,-41.9727"/>
</g>
<!-- AS3356 -->
<g id="node6" class="node"><title>AS3356</title>
<g id="a_node6"><a xlink:href="/asn/3356" xlink:title="AS3356 ~ Level 3 Parent, LLC [US]">
<ellipse fill="#ffffff" stroke="black" cx="519.017" cy="-278" rx="39.7935" ry="18"/>
<text text-anchor="middle" x="519.017" y="-274.3" font-family="Times,serif" font-size="14.00" fill="#2c94b3">AS3356</text>
</a>
</g>
</g>
<!-- AS1764&#45;&gt;AS3356 -->
<g id="edge5" class="edge"><title>AS1764&#45;&gt;AS3356</title>
<path fill="none" stroke="black" stroke-width="4.5" d="M423.942,-354.393C442.334,-339.458 470.254,-316.786 490.904,-300.017"/>
<polygon fill="black" stroke="black" stroke-width="4.5" points="493.423,-303.044 498.704,-293.683 488.459,-296.93 493.423,-303.044"/>
</g>
<!-- AS2914 -->
<g id="node7" class="node"><title>AS2914</title>
<g id="a_node7"><a xlink:href="/asn/2914" xlink:title="AS2914 ~ NTT America, Inc. [US]">
<ellipse fill="#ffffff" stroke="black" cx="634.31" cy="-424" rx="39.7935" ry="18"/>
<text text-anchor="middle" x="634.31" y="-420.3" font-family="Times,serif" font-size="14.00" fill="#2c94b3">AS2914</text>
</a>
</g>
</g>
<!-- AS1764&#45;&gt;AS2914 -->
<g id="edge6" class="edge"><title>AS1764&#45;&gt;AS2914</title>
<path fill="none" stroke="black" stroke-width="2.25" d="M439.441,-378.201C479.416,-387.645 545.174,-403.179 588.857,-413.499"/>
<polygon fill="black" stroke="black" stroke-width="2.25" points="588.104,-416.917 598.641,-415.81 589.713,-410.105 588.104,-416.917"/>
</g>
<!-- AS8218 -->
<g id="node8" class="node"><title>AS8218</title>
<g id="a_node8"><a xlink:href="/asn/8218" xlink:title="AS8218 ~ legacy Neotelecoms [FR]">
<ellipse fill="#ffffff" stroke="black" cx="519.017" cy="-597" rx="39.7935" ry="18"/>
<text text-anchor="middle" x="519.017" y="-593.3" font-family="Times,serif" font-size="14.00" fill="#2c94b3">AS8218</text>
</a>
</g>
</g>
<!-- AS1764&#45;&gt;AS8218 -->
<g id="edge7" class="edge"><title>AS1764&#45;&gt;AS8218</title>
<path fill="none" stroke="black" stroke-width="1.5" d="M413.614,-387.812C433.427,-427.512 481.302,-523.436 504.698,-570.314"/>
<polygon fill="black" stroke="black" stroke-width="1.5" points="501.571,-571.886 509.168,-579.27 507.834,-568.76 501.571,-571.886"/>
</g>
<!-- AS3320 -->
<g id="node9" class="node"><title>AS3320</title>
<g id="a_node9"><a xlink:href="/asn/3320" xlink:title="AS3320 ~ DTAG [DE]">
<ellipse fill="#ffffff" stroke="black" cx="519.017" cy="-478" rx="39.7935" ry="18"/>
<text text-anchor="middle" x="519.017" y="-474.3" font-family="Times,serif" font-size="14.00" fill="#2c94b3">AS3320</text>
</a>
</g>
</g>
<!-- AS1764&#45;&gt;AS3320 -->
<g id="edge8" class="edge"><title>AS1764&#45;&gt;AS3320</title>
<path fill="none" stroke="black" stroke-width="2.25" d="M421.931,-386.403C441.006,-404.587 471.926,-434.063 493.523,-454.651"/>
<polygon fill="black" stroke="black" stroke-width="2.25" points="491.366,-457.43 501.019,-461.797 496.196,-452.363 491.366,-457.43"/>
</g>
<!-- AS3257 -->
<g id="node10" class="node"><title>AS3257</title>
<g id="a_node10"><a xlink:href="/asn/3257" xlink:title="AS3257 ~ GTT [DE]">
<ellipse fill="#ffffff" stroke="black" cx="634.31" cy="-370" rx="39.7935" ry="18"/>
<text text-anchor="middle" x="634.31" y="-366.3" font-family="Times,serif" font-size="14.00" fill="#2c94b3">AS3257</text>
</a>
</g>
</g>
<!-- AS1764&#45;&gt;AS3257 -->
<g id="edge9" class="edge"><title>AS1764&#45;&gt;AS3257</title>
<path fill="none" stroke="black" stroke-width="2.25" d="M443.5,-370C482.333,-370 542.216,-370 584.314,-370"/>
<polygon fill="black" stroke="black" stroke-width="2.25" points="584.343,-373.5 594.343,-370 584.343,-366.5 584.343,-373.5"/>
</g>
<!-- AS1299 -->
<g id="node11" class="node"><title>AS1299</title>
<g id="a_node11"><a xlink:href="/asn/1299" xlink:title="AS1299 ~ Telia Carrier [EU]">
<ellipse fill="#ffffff" stroke="black" cx="519.017" cy="-224" rx="39.7935" ry="18"/>
<text text-anchor="middle" x="519.017" y="-220.3" font-family="Times,serif" font-size="14.00" fill="#2c94b3">AS1299</text>
</a>
</g>
</g>
<!-- AS1764&#45;&gt;AS1299 -->
<g id="edge10" class="edge"><title>AS1764&#45;&gt;AS1299</title>
<path fill="none" stroke="black" stroke-width="2.25" d="M415.164,-352.512C433.741,-321.526 471.342,-259.436 479.37,-251 481.433,-248.832 483.695,-246.733 486.057,-244.727"/>
<polygon fill="black" stroke="black" stroke-width="2.25" points="488.58,-247.199 494.33,-238.3 484.286,-241.671 488.58,-247.199"/>
</g>
<!-- AS25255 -->
<g id="node21" class="node"><title>AS25255</title>
<g id="a_node21"><a xlink:href="/asn/25255" xlink:title="AS25255 ~ ==&gt; TELE2 AUSTRIA &lt;== [AT]">
<ellipse fill="#ffffff" stroke="black" cx="283.881" cy="-324" rx="44.393" ry="18"/>
<text text-anchor="middle" x="283.881" y="-320.3" font-family="Times,serif" font-size="14.00" fill="#2c94b3">AS25255</text>
</a>
</g>
</g>
<!-- AS8437&#45;&gt;AS25255 -->
<g id="edge32" class="edge"><title>AS8437&#45;&gt;AS25255</title>
<path fill="none" stroke="black" stroke-width="4.5" d="M203.951,-324C212.054,-324 220.729,-324 229.255,-324"/>
<polygon fill="black" stroke="black" stroke-width="4.5" points="229.533,-327.938 239.533,-324 229.533,-320.063 229.533,-327.938"/>
</g>
<!-- AS8447&#45;&gt;AS3356 -->
<g id="edge39" class="edge"><title>AS8447&#45;&gt;AS3356</title>
<path fill="none" stroke="black" stroke-width="4.5" d="M443.396,-278C451.599,-278 460.363,-278 468.895,-278"/>
<polygon fill="black" stroke="black" stroke-width="4.5" points="469.134,-281.938 479.134,-278 469.134,-274.063 469.134,-281.938"/>
</g>
<!-- AS8447&#45;&gt;AS1299 -->
<g id="edge40" class="edge"><title>AS8447&#45;&gt;AS1299</title>
<path fill="none" stroke="black" stroke-width="0.375" d="M431.86,-265.066C446.854,-257.919 465.675,-248.948 481.898,-241.215"/>
<polygon fill="black" stroke="black" stroke-width="0.375" points="483.581,-244.291 491.102,-236.829 480.569,-237.972 483.581,-244.291"/>
</g>
<!-- AS6762 -->
<g id="node13" class="node"><title>AS6762</title>
<g id="a_node13"><a xlink:href="/asn/6762" xlink:title="AS6762 ~ TELECOM ITALIA SPARKLE S.p.A. [IT]">
<ellipse fill="#ffffff" stroke="black" cx="749.603" cy="-110" rx="39.7935" ry="18"/>
<text text-anchor="middle" x="749.603" y="-106.3" font-family="Times,serif" font-size="14.00" fill="#2c94b3">AS6762</text>
</a>
</g>
</g>
<!-- AS174&#45;&gt;AS6762 -->
<g id="edge31" class="edge"><title>AS174&#45;&gt;AS6762</title>
<path fill="none" stroke="black" d="M653.764,-32.9861C672.142,-47.9095 700.557,-70.9844 721.496,-87.9878"/>
<polygon fill="black" stroke="black" points="719.429,-90.818 729.398,-94.4048 723.842,-85.384 719.429,-90.818"/>
</g>
<!-- AS3491 -->
<g id="node16" class="node"><title>AS3491</title>
<g id="a_node16"><a xlink:href="/asn/3491" xlink:title="AS3491 ~ PCCW Global, Inc. [US]">
<ellipse fill="#ffffff" stroke="black" cx="864.896" cy="-64" rx="39.7935" ry="18"/>
<text text-anchor="middle" x="864.896" y="-60.3" font-family="Times,serif" font-size="14.00" fill="#2c94b3">AS3491</text>
</a>
</g>
</g>
<!-- AS174&#45;&gt;AS3491 -->
<g id="edge30" class="edge"><title>AS174&#45;&gt;AS3491</title>
<path fill="none" stroke="black" d="M667.576,-24.4931C706.965,-32.4198 773.828,-45.875 818.421,-54.8489"/>
<polygon fill="black" stroke="black" points="817.919,-58.3179 828.413,-56.8596 819.3,-51.4555 817.919,-58.3179"/>
</g>
<!-- AS3356&#45;&gt;AS174 -->
<g id="edge19" class="edge"><title>AS3356&#45;&gt;AS174</title>
<path fill="none" stroke="black" d="M545.496,-264.498C550.543,-260.748 555.311,-256.24 558.663,-251 607.569,-174.55 548.924,-128.386 594.663,-50 597.114,-45.8008 600.332,-41.9116 603.868,-38.3968"/>
<polygon fill="black" stroke="black" points="606.243,-40.9691 611.426,-31.7287 601.612,-35.7199 606.243,-40.9691"/>
</g>
<!-- AS3356&#45;&gt;AS2914 -->
<g id="edge16" class="edge"><title>AS3356&#45;&gt;AS2914</title>
<path fill="none" stroke="black" d="M528.249,-295.652C540.339,-320.305 564.738,-365.553 594.663,-397 596.726,-399.168 598.988,-401.267 601.35,-403.273"/>
<polygon fill="black" stroke="black" points="599.579,-406.329 609.623,-409.7 603.873,-400.801 599.579,-406.329"/>
</g>
<!-- AS3356&#45;&gt;AS3257 -->
<g id="edge15" class="edge"><title>AS3356&#45;&gt;AS3257</title>
<path fill="none" stroke="black" d="M539.235,-293.607C557.627,-308.542 585.547,-331.214 606.197,-347.983"/>
<polygon fill="black" stroke="black" points="604.028,-350.73 613.997,-354.317 608.44,-345.296 604.028,-350.73"/>
</g>
<!-- AS6453 -->
<g id="node12" class="node"><title>AS6453</title>
<g id="a_node12"><a xlink:href="/asn/6453" xlink:title="AS6453 ~ TATA COMMUNICATIONS (AMERICA) INC [US]">
<ellipse fill="#ffffff" stroke="black" cx="864.896" cy="-232" rx="39.7935" ry="18"/>
<text text-anchor="middle" x="864.896" y="-228.3" font-family="Times,serif" font-size="14.00" fill="#2c94b3">AS6453</text>
</a>
</g>
</g>
<!-- AS3356&#45;&gt;AS6453 -->
<g id="edge11" class="edge"><title>AS3356&#45;&gt;AS6453</title>
<path fill="none" stroke="black" stroke-width="2" d="M548.188,-265.72C561.942,-260.268 578.889,-254.342 594.663,-251 670.458,-234.943 760.656,-231.702 815.034,-231.42"/>
<polygon fill="black" stroke="black" stroke-width="2" points="815.095,-234.92 825.088,-231.399 815.081,-227.92 815.095,-234.92"/>
</g>
<!-- AS3356&#45;&gt;AS6762 -->
<g id="edge12" class="edge"><title>AS3356&#45;&gt;AS6762</title>
<path fill="none" stroke="black" d="M544.76,-263.975C549.846,-260.252 554.815,-255.887 558.663,-251 585.826,-216.502 562.626,-189.025 594.663,-159 623.409,-132.059 666.957,-119.931 700.408,-114.471"/>
<polygon fill="black" stroke="black" points="701.06,-117.912 710.437,-112.981 700.032,-110.988 701.06,-117.912"/>
</g>
<!-- AS3549 -->
<g id="node14" class="node"><title>AS3549</title>
<g id="a_node14"><a xlink:href="/asn/3549" xlink:title="AS3549 ~ Level 3 Parent, LLC [US]">
<ellipse fill="#ffffff" stroke="black" cx="634.31" cy="-278" rx="39.7935" ry="18"/>
<text text-anchor="middle" x="634.31" y="-274.3" font-family="Times,serif" font-size="14.00" fill="#2c94b3">AS3549</text>
</a>
</g>
</g>
<!-- AS3356&#45;&gt;AS3549 -->
<g id="edge13" class="edge"><title>AS3356&#45;&gt;AS3549</title>
<path fill="none" stroke="black" stroke-width="3" d="M558.689,-278C566.892,-278 575.656,-278 584.188,-278"/>
<polygon fill="black" stroke="black" stroke-width="3" points="584.427,-281.5 594.427,-278 584.427,-274.5 584.427,-281.5"/>
</g>
<!-- AS2497 -->
<g id="node15" class="node"><title>AS2497</title>
<g id="a_node15"><a xlink:href="/asn/2497" xlink:title="AS2497 ~ Internet Initiative Japan Inc. [JP]">
<ellipse fill="#ffffff" stroke="black" cx="749.603" cy="-397" rx="39.7935" ry="18"/>
<text text-anchor="middle" x="749.603" y="-393.3" font-family="Times,serif" font-size="14.00" fill="#2c94b3">AS2497</text>
</a>
</g>
</g>
<!-- AS3356&#45;&gt;AS2497 -->
<g id="edge14" class="edge"><title>AS3356&#45;&gt;AS2497</title>
<path fill="none" stroke="black" stroke-width="2" d="M551.067,-288.741C582.865,-300.281 633.259,-320.081 673.956,-343 690.46,-352.295 707.669,-364.545 721.398,-375.028"/>
<polygon fill="black" stroke="black" stroke-width="2" points="719.413,-377.919 729.459,-381.285 723.705,-372.389 719.413,-377.919"/>
</g>
<!-- AS3356&#45;&gt;AS3491 -->
<g id="edge17" class="edge"><title>AS3356&#45;&gt;AS3491</title>
<path fill="none" stroke="black" d="M545.169,-264.279C550.234,-260.541 555.091,-256.092 558.663,-251 594.077,-200.515 551.591,-161.132 594.663,-117 652.539,-57.7 756.057,-54.5149 816.477,-58.5663"/>
<polygon fill="black" stroke="black" points="816.276,-62.0611 826.514,-59.3327 816.809,-55.0814 816.276,-62.0611"/>
</g>
<!-- AS7018 -->
<g id="node17" class="node"><title>AS7018</title>
<g id="a_node17"><a xlink:href="/asn/7018" xlink:title="AS7018 ~ AT&amp;T Services, Inc. [US]">
<ellipse fill="#ffffff" stroke="black" cx="634.31" cy="-186" rx="39.7935" ry="18"/>
<text text-anchor="middle" x="634.31" y="-182.3" font-family="Times,serif" font-size="14.00" fill="#2c94b3">AS7018</text>
</a>
</g>
</g>
<!-- AS3356&#45;&gt;AS7018 -->
<g id="edge18" class="edge"><title>AS3356&#45;&gt;AS7018</title>
<path fill="none" stroke="black" d="M542.456,-263.07C547.865,-259.269 553.555,-255.096 558.663,-251 575.597,-237.422 578.299,-232.259 594.663,-218 598.329,-214.806 602.233,-211.484 606.097,-208.241"/>
<polygon fill="black" stroke="black" points="608.435,-210.849 613.885,-201.763 603.959,-205.467 608.435,-210.849"/>
</g>
<!-- AS1239 -->
<g id="node18" class="node"><title>AS1239</title>
<g id="a_node18"><a xlink:href="/asn/1239" xlink:title="AS1239 ~ Sprint [US]">
<ellipse fill="#ffffff" stroke="black" cx="634.31" cy="-478" rx="39.7935" ry="18"/>
<text text-anchor="middle" x="634.31" y="-474.3" font-family="Times,serif" font-size="14.00" fill="#2c94b3">AS1239</text>
</a>
</g>
</g>
<!-- AS3356&#45;&gt;AS1239 -->
<g id="edge20" class="edge"><title>AS3356&#45;&gt;AS1239</title>
<path fill="none" stroke="black" d="M524.237,-295.905C532.827,-329.352 554.968,-402.329 594.663,-451 596.506,-453.26 598.584,-455.413 600.797,-457.446"/>
<polygon fill="black" stroke="black" points="598.726,-460.274 608.69,-463.875 603.147,-454.846 598.726,-460.274"/>
</g>
<!-- AS2914&#45;&gt;AS2497 -->
<g id="edge21" class="edge"><title>AS2914&#45;&gt;AS2497</title>
<path fill="none" stroke="black" d="M669.917,-415.752C680.788,-413.162 692.942,-410.265 704.385,-407.538"/>
<polygon fill="black" stroke="black" points="705.291,-410.92 714.207,-405.197 703.668,-404.111 705.291,-410.92"/>
</g>
<!-- AS6461 -->
<g id="node19" class="node"><title>AS6461</title>
<g id="a_node19"><a xlink:href="/asn/6461" xlink:title="AS6461 ~ Zayo Bandwidth [US]">
<ellipse fill="#ffffff" stroke="black" cx="634.31" cy="-662" rx="39.7935" ry="18"/>
<text text-anchor="middle" x="634.31" y="-658.3" font-family="Times,serif" font-size="14.00" fill="#2c94b3">AS6461</text>
</a>
</g>
</g>
<!-- AS8218&#45;&gt;AS6461 -->
<g id="edge22" class="edge"><title>AS8218&#45;&gt;AS6461</title>
<path fill="none" stroke="black" stroke-width="2" d="M544.321,-610.944C560.599,-620.283 582.235,-632.697 600.097,-642.945"/>
<polygon fill="black" stroke="black" stroke-width="2" points="598.63,-646.138 609.046,-648.079 602.114,-640.067 598.63,-646.138"/>
</g>
<!-- AS3320&#45;&gt;AS6453 -->
<g id="edge26" class="edge"><title>AS3320&#45;&gt;AS6453</title>
<path fill="none" stroke="black" d="M527.111,-495.953C537.712,-519.991 560.205,-561.619 594.663,-579 626.128,-594.871 642.467,-594.823 673.956,-579 799.743,-515.795 845.869,-331.34 859.258,-260.325"/>
<polygon fill="black" stroke="black" points="862.733,-260.78 861.068,-250.317 855.844,-259.535 862.733,-260.78"/>
</g>
<!-- AS3320&#45;&gt;AS2497 -->
<g id="edge27" class="edge"><title>AS3320&#45;&gt;AS2497</title>
<path fill="none" stroke="black" d="M529.983,-495.562C542.286,-515.249 565.239,-546.103 594.663,-559 626.94,-573.148 644.277,-578.003 673.956,-559 720.202,-529.39 738.197,-463.071 744.889,-425.106"/>
<polygon fill="black" stroke="black" points="748.349,-425.634 746.491,-415.203 741.439,-424.516 748.349,-425.634"/>
</g>
<!-- AS3320&#45;&gt;AS7018 -->
<g id="edge25" class="edge"><title>AS3320&#45;&gt;AS7018</title>
<path fill="none" stroke="black" d="M524.46,-460.133C534.461,-421.15 560.555,-325.954 594.663,-251 600.756,-237.611 608.919,-223.49 616.172,-211.844"/>
<polygon fill="black" stroke="black" points="619.324,-213.411 621.738,-203.095 613.417,-209.654 619.324,-213.411"/>
</g>
<!-- AS3320&#45;&gt;AS1239 -->
<g id="edge24" class="edge"><title>AS3320&#45;&gt;AS1239</title>
<path fill="none" stroke="black" stroke-width="2" d="M558.689,-478C566.892,-478 575.656,-478 584.188,-478"/>
<polygon fill="black" stroke="black" stroke-width="2" points="584.427,-481.5 594.427,-478 584.427,-474.5 584.427,-481.5"/>
</g>
<!-- AS701 -->
<g id="node20" class="node"><title>AS701</title>
<g id="a_node20"><a xlink:href="/asn/701" xlink:title="AS701 ~ UUNET [US]">
<ellipse fill="#ffffff" stroke="black" cx="634.31" cy="-532" rx="35.194" ry="18"/>
<text text-anchor="middle" x="634.31" y="-528.3" font-family="Times,serif" font-size="14.00" fill="#2c94b3">AS701</text>
</a>
</g>
</g>
<!-- AS3320&#45;&gt;AS701 -->
<g id="edge23" class="edge"><title>AS3320&#45;&gt;AS701</title>
<path fill="none" stroke="black" stroke-width="2" d="M547.153,-490.934C562.585,-498.29 582.07,-507.577 598.606,-515.459"/>
<polygon fill="black" stroke="black" stroke-width="2" points="597.414,-518.768 607.947,-519.911 600.426,-512.449 597.414,-518.768"/>
</g>
<!-- AS3257&#45;&gt;AS2497 -->
<g id="edge28" class="edge"><title>AS3257&#45;&gt;AS2497</title>
<path fill="none" stroke="black" d="M669.917,-378.248C680.788,-380.838 692.942,-383.735 704.385,-386.462"/>
<polygon fill="black" stroke="black" points="703.668,-389.889 714.207,-388.803 705.291,-383.08 703.668,-389.889"/>
</g>
<!-- AS1299&#45;&gt;AS7018 -->
<g id="edge29" class="edge"><title>AS1299&#45;&gt;AS7018</title>
<path fill="none" stroke="black" d="M551.274,-213.516C563.923,-209.273 578.702,-204.316 592.204,-199.788"/>
<polygon fill="black" stroke="black" points="593.393,-203.08 601.761,-196.582 591.167,-196.444 593.393,-203.08"/>
</g>
<!-- AS6762&#45;&gt;AS6453 -->
<g id="edge37" class="edge"><title>AS6762&#45;&gt;AS6453</title>
<path fill="none" stroke="black" d="M765.882,-126.453C785.393,-147.464 819.301,-183.978 841.672,-208.068"/>
<polygon fill="black" stroke="black" points="839.127,-210.472 848.497,-215.418 844.257,-205.708 839.127,-210.472"/>
</g>
<!-- AS6762&#45;&gt;AS3491 -->
<g id="edge38" class="edge"><title>AS6762&#45;&gt;AS3491</title>
<path fill="none" stroke="black" d="M779.778,-98.1539C793.654,-92.52 810.431,-85.708 825.34,-79.6545"/>
<polygon fill="black" stroke="black" points="826.87,-82.8109 834.819,-75.806 824.237,-76.3252 826.87,-82.8109"/>
</g>
<!-- AS25255&#45;&gt;AS1764 -->
<g id="edge36" class="edge"><title>AS25255&#45;&gt;AS1764</title>
<path fill="none" stroke="black" stroke-width="4.5" d="M316.461,-336.327C330.89,-341.96 348.129,-348.689 363.391,-354.646"/>
<polygon fill="black" stroke="black" stroke-width="4.5" points="362.337,-358.462 373.085,-358.43 365.201,-351.126 362.337,-358.462"/>
</g>
<!-- AS25255&#45;&gt;AS8447 -->
<g id="edge35" class="edge"><title>AS25255&#45;&gt;AS8447</title>
<path fill="none" stroke="black" stroke-width="1.5" d="M316.461,-311.673C330.89,-306.04 348.129,-299.311 363.391,-293.354"/>
<polygon fill="black" stroke="black" stroke-width="1.5" points="365.042,-296.466 373.085,-289.57 362.496,-289.946 365.042,-296.466"/>
</g>
<!-- AS25255&#45;&gt;AS3320 -->
<g id="edge34" class="edge"><title>AS25255&#45;&gt;AS3320</title>
<path fill="none" stroke="black" stroke-width="4.5" d="M300.491,-340.713C315.738,-356.451 340.091,-380.073 364.077,-397 401.196,-423.195 447.849,-446.575 480.013,-461.402"/>
<polygon fill="black" stroke="black" stroke-width="4.5" points="478.77,-465.163 489.503,-465.723 482.033,-457.996 478.77,-465.163"/>
</g>
<!-- AS25255&#45;&gt;AS6762 -->
<g id="edge33" class="edge"><title>AS25255&#45;&gt;AS6762</title>
<path fill="none" stroke="black" stroke-width="2.25" d="M300.947,-307.213C316.329,-291.636 340.602,-268.317 364.077,-251 459.463,-180.636 480.945,-150.432 594.663,-117 629.023,-106.899 669.542,-105.447 700.383,-106.362"/>
<polygon fill="black" stroke="black" stroke-width="2.25" points="700.319,-109.862 710.448,-106.754 700.592,-102.867 700.319,-109.862"/>
</g>
</g>
</svg>
