<?xml version="1.0" encoding="UTF-8" standalone="no"?>
<!DOCTYPE svg PUBLIC "-//W3C//DTD SVG 1.1//EN"
 "http://www.w3.org/Graphics/SVG/1.1/DTD/svg11.dtd">
<!-- Generated by graphviz version 2.38.0 (20140413.2041)
 -->
<!-- Title: AS47477 IPv4 Upstream Graph Pages: 1 -->
<svg width="922pt" height="703pt"
 viewBox="0.00 0.00 921.64 702.94" xmlns="http://www.w3.org/2000/svg" xmlns:xlink="http://www.w3.org/1999/xlink">
<g id="graph0" class="graph" transform="scale(1 1) rotate(0) translate(4 698.943)">
<title>AS47477 IPv4 Upstream Graph</title>
<polygon fill="white" stroke="none" points="-4,4 -4,-698.943 917.641,-698.943 917.641,4 -4,4"/>
<!-- AS47477 -->
<g id="node1" class="node"><title>AS47477</title>
<g id="a_node1"><a xlink:href="/asn/47477" xlink:title="AS47477 ~ REWEA&#45;AS [AT]">
<ellipse fill="#ffffff" stroke="black" cx="44.1961" cy="-340.943" rx="44.393" ry="18"/>
<text text-anchor="middle" x="44.1961" y="-337.243" font-family="Times,serif" font-size="14.00" fill="#880000">AS47477</text>
</a>
</g>
</g>
<!-- AS1764 -->
<g id="node2" class="node"><title>AS1764</title>
<g id="a_node2"><a xlink:href="/asn/1764" xlink:title="AS1764 ~ NEXTLAYER&#45;AS [AT]">
<ellipse fill="#ffffff" stroke="black" cx="403.724" cy="-392.943" rx="39.7935" ry="18"/>
<text text-anchor="middle" x="403.724" y="-389.243" font-family="Times,serif" font-size="14.00" fill="#2c94b3">AS1764</text>
</a>
</g>
</g>
<!-- AS47477&#45;&gt;AS1764 -->
<g id="edge1" class="edge"><title>AS47477&#45;&gt;AS1764</title>
<path fill="none" stroke="black" stroke-width="4.5" d="M76.3121,-353.476C90.716,-358.776 108.193,-364.506 124.392,-367.943 203.532,-384.735 297.666,-390.258 353.682,-392.069"/>
<polygon fill="black" stroke="black" stroke-width="4.5" points="353.912,-396.015 364.024,-392.374 354.145,-388.143 353.912,-396.015"/>
</g>
<!-- AS8437 -->
<g id="node3" class="node"><title>AS8437</title>
<g id="a_node3"><a xlink:href="/asn/8437" xlink:title="AS8437 ~ Hutchison Drei Austria GmbH [AT]">
<ellipse fill="#ffffff" stroke="black" cx="164.039" cy="-340.943" rx="39.7935" ry="18"/>
<text text-anchor="middle" x="164.039" y="-337.243" font-family="Times,serif" font-size="14.00" fill="#2c94b3">AS8437</text>
</a>
</g>
</g>
<!-- AS47477&#45;&gt;AS8437 -->
<g id="edge2" class="edge"><title>AS47477&#45;&gt;AS8437</title>
<path fill="none" stroke="black" stroke-width="4.25" d="M88.4072,-340.943C96.7198,-340.943 105.482,-340.943 113.965,-340.943"/>
<polygon fill="black" stroke="black" stroke-width="4.25" points="114.123,-344.662 124.123,-340.943 114.123,-337.224 114.123,-344.662"/>
</g>
<!-- AS8447 -->
<g id="node4" class="node"><title>AS8447</title>
<g id="a_node4"><a xlink:href="/asn/8447" xlink:title="AS8447 ~ A1 Telekom Austria AG [AT]">
<ellipse fill="#ffffff" stroke="black" cx="403.724" cy="-338.943" rx="39.7935" ry="18"/>
<text text-anchor="middle" x="403.724" y="-335.243" font-family="Times,serif" font-size="14.00" fill="#2c94b3">AS8447</text>
</a>
</g>
</g>
<!-- AS47477&#45;&gt;AS8447 -->
<g id="edge3" class="edge"><title>AS47477&#45;&gt;AS8447</title>
<path fill="none" stroke="black" stroke-width="3" d="M75.4312,-328.023C89.9492,-322.501 107.768,-316.699 124.392,-313.943 213.7,-299.138 238.73,-299.379 328.077,-313.943 340.075,-315.899 352.747,-319.513 364.176,-323.398"/>
<polygon fill="black" stroke="black" stroke-width="3" points="363.257,-326.786 373.852,-326.847 365.607,-320.192 363.257,-326.786"/>
</g>
<!-- AS3257 -->
<g id="node5" class="node"><title>AS3257</title>
<g id="a_node5"><a xlink:href="/asn/3257" xlink:title="AS3257 ~ GTT [DE]">
<ellipse fill="#ffffff" stroke="black" cx="634.31" cy="-676.943" rx="39.7935" ry="18"/>
<text text-anchor="middle" x="634.31" y="-673.243" font-family="Times,serif" font-size="14.00" fill="#2c94b3">AS3257</text>
</a>
</g>
</g>
<!-- AS1764&#45;&gt;AS3257 -->
<g id="edge4" class="edge"><title>AS1764&#45;&gt;AS3257</title>
<path fill="none" stroke="black" stroke-width="3" d="M408.294,-410.902C416.01,-445.956 437.064,-524.55 479.37,-575.943 511.031,-614.404 561.195,-643.468 595.599,-660.323"/>
<polygon fill="black" stroke="black" stroke-width="3" points="594.325,-663.593 604.857,-664.751 597.346,-657.278 594.325,-663.593"/>
</g>
<!-- AS174 -->
<g id="node6" class="node"><title>AS174</title>
<g id="a_node6"><a xlink:href="/asn/174" xlink:title="AS174 ~ Cogent Communications [US]">
<ellipse fill="#ffffff" stroke="black" cx="634.31" cy="-622.943" rx="35.194" ry="18"/>
<text text-anchor="middle" x="634.31" y="-619.243" font-family="Times,serif" font-size="14.00" fill="#2c94b3">AS174</text>
</a>
</g>
</g>
<!-- AS1764&#45;&gt;AS174 -->
<g id="edge5" class="edge"><title>AS1764&#45;&gt;AS174</title>
<path fill="none" stroke="black" stroke-width="2.25" d="M410.507,-411.097C420.538,-440.223 443.586,-497.871 479.37,-534.943 512.548,-569.314 562.068,-594.351 595.926,-608.74"/>
<polygon fill="black" stroke="black" stroke-width="2.25" points="594.886,-612.098 605.464,-612.689 597.563,-605.63 594.886,-612.098"/>
</g>
<!-- AS8218 -->
<g id="node7" class="node"><title>AS8218</title>
<g id="a_node7"><a xlink:href="/asn/8218" xlink:title="AS8218 ~ legacy Neotelecoms [FR]">
<ellipse fill="#ffffff" stroke="black" cx="519.017" cy="-507.943" rx="39.7935" ry="18"/>
<text text-anchor="middle" x="519.017" y="-504.243" font-family="Times,serif" font-size="14.00" fill="#2c94b3">AS8218</text>
</a>
</g>
</g>
<!-- AS1764&#45;&gt;AS8218 -->
<g id="edge6" class="edge"><title>AS1764&#45;&gt;AS8218</title>
<path fill="none" stroke="black" stroke-width="1.5" d="M420.956,-409.42C440.306,-429.061 472.783,-462.027 494.788,-484.364"/>
<polygon fill="black" stroke="black" stroke-width="1.5" points="492.303,-486.829 501.815,-491.497 497.29,-481.917 492.303,-486.829"/>
</g>
<!-- AS3356 -->
<g id="node8" class="node"><title>AS3356</title>
<g id="a_node8"><a xlink:href="/asn/3356" xlink:title="AS3356 ~ Level 3 Parent, LLC [US]">
<ellipse fill="#ffffff" stroke="black" cx="519.017" cy="-392.943" rx="39.7935" ry="18"/>
<text text-anchor="middle" x="519.017" y="-389.243" font-family="Times,serif" font-size="14.00" fill="#2c94b3">AS3356</text>
</a>
</g>
</g>
<!-- AS1764&#45;&gt;AS3356 -->
<g id="edge7" class="edge"><title>AS1764&#45;&gt;AS3356</title>
<path fill="none" stroke="black" stroke-width="4.5" d="M443.396,-392.943C451.599,-392.943 460.363,-392.943 468.895,-392.943"/>
<polygon fill="black" stroke="black" stroke-width="4.5" points="469.134,-396.881 479.134,-392.943 469.134,-389.006 469.134,-396.881"/>
</g>
<!-- AS2914 -->
<g id="node9" class="node"><title>AS2914</title>
<g id="a_node9"><a xlink:href="/asn/2914" xlink:title="AS2914 ~ NTT America, Inc. [US]">
<ellipse fill="#ffffff" stroke="black" cx="634.31" cy="-514.943" rx="39.7935" ry="18"/>
<text text-anchor="middle" x="634.31" y="-511.243" font-family="Times,serif" font-size="14.00" fill="#2c94b3">AS2914</text>
</a>
</g>
</g>
<!-- AS1764&#45;&gt;AS2914 -->
<g id="edge8" class="edge"><title>AS1764&#45;&gt;AS2914</title>
<path fill="none" stroke="black" stroke-width="2.25" d="M430.06,-406.465C471.167,-428.405 552.452,-471.788 598.802,-496.526"/>
<polygon fill="black" stroke="black" stroke-width="2.25" points="597.39,-499.739 607.86,-501.36 600.686,-493.564 597.39,-499.739"/>
</g>
<!-- AS3320 -->
<g id="node10" class="node"><title>AS3320</title>
<g id="a_node10"><a xlink:href="/asn/3320" xlink:title="AS3320 ~ DTAG [DE]">
<ellipse fill="#ffffff" stroke="black" cx="519.017" cy="-200.943" rx="39.7935" ry="18"/>
<text text-anchor="middle" x="519.017" y="-197.243" font-family="Times,serif" font-size="14.00" fill="#2c94b3">AS3320</text>
</a>
</g>
</g>
<!-- AS1764&#45;&gt;AS3320 -->
<g id="edge9" class="edge"><title>AS1764&#45;&gt;AS3320</title>
<path fill="none" stroke="black" stroke-width="2.25" d="M429.281,-378.767C434.376,-375.053 439.397,-370.729 443.37,-365.943 478.043,-324.181 499.899,-263.706 510.456,-228.75"/>
<polygon fill="black" stroke="black" stroke-width="2.25" points="513.927,-229.35 513.371,-218.77 507.208,-227.388 513.927,-229.35"/>
</g>
<!-- AS1299 -->
<g id="node11" class="node"><title>AS1299</title>
<g id="a_node11"><a xlink:href="/asn/1299" xlink:title="AS1299 ~ Telia Carrier [EU]">
<ellipse fill="#ffffff" stroke="black" cx="519.017" cy="-338.943" rx="39.7935" ry="18"/>
<text text-anchor="middle" x="519.017" y="-335.243" font-family="Times,serif" font-size="14.00" fill="#2c94b3">AS1299</text>
</a>
</g>
</g>
<!-- AS1764&#45;&gt;AS1299 -->
<g id="edge10" class="edge"><title>AS1764&#45;&gt;AS1299</title>
<path fill="none" stroke="black" stroke-width="2.25" d="M431.86,-380.009C446.854,-372.862 465.675,-363.891 481.898,-356.158"/>
<polygon fill="black" stroke="black" stroke-width="2.25" points="483.581,-359.234 491.102,-351.772 480.569,-352.915 483.581,-359.234"/>
</g>
<!-- AS25255 -->
<g id="node22" class="node"><title>AS25255</title>
<g id="a_node22"><a xlink:href="/asn/25255" xlink:title="AS25255 ~ ==&gt; TELE2 AUSTRIA &lt;== [AT]">
<ellipse fill="#ffffff" stroke="black" cx="283.881" cy="-340.943" rx="44.393" ry="18"/>
<text text-anchor="middle" x="283.881" y="-337.243" font-family="Times,serif" font-size="14.00" fill="#2c94b3">AS25255</text>
</a>
</g>
</g>
<!-- AS8437&#45;&gt;AS25255 -->
<g id="edge33" class="edge"><title>AS8437&#45;&gt;AS25255</title>
<path fill="none" stroke="black" stroke-width="4.5" d="M203.951,-340.943C212.054,-340.943 220.729,-340.943 229.255,-340.943"/>
<polygon fill="black" stroke="black" stroke-width="4.5" points="229.533,-344.881 239.533,-340.943 229.533,-337.006 229.533,-344.881"/>
</g>
<!-- AS8447&#45;&gt;AS3356 -->
<g id="edge38" class="edge"><title>AS8447&#45;&gt;AS3356</title>
<path fill="none" stroke="black" stroke-width="4.5" d="M431.86,-351.877C446.854,-359.024 465.675,-367.995 481.898,-375.728"/>
<polygon fill="black" stroke="black" stroke-width="4.5" points="480.38,-379.366 491.102,-380.114 483.769,-372.257 480.38,-379.366"/>
</g>
<!-- AS8447&#45;&gt;AS1299 -->
<g id="edge39" class="edge"><title>AS8447&#45;&gt;AS1299</title>
<path fill="none" stroke="black" stroke-width="0.346154" d="M443.396,-338.943C451.599,-338.943 460.363,-338.943 468.895,-338.943"/>
<polygon fill="black" stroke="black" stroke-width="0.346154" points="469.134,-342.443 479.134,-338.943 469.134,-335.443 469.134,-342.443"/>
</g>
<!-- AS2497 -->
<g id="node12" class="node"><title>AS2497</title>
<g id="a_node12"><a xlink:href="/asn/2497" xlink:title="AS2497 ~ Internet Initiative Japan Inc. [JP]">
<ellipse fill="#ffffff" stroke="black" cx="749.603" cy="-492.943" rx="39.7935" ry="18"/>
<text text-anchor="middle" x="749.603" y="-489.243" font-family="Times,serif" font-size="14.00" fill="#2c94b3">AS2497</text>
</a>
</g>
</g>
<!-- AS3257&#45;&gt;AS2497 -->
<g id="edge11" class="edge"><title>AS3257&#45;&gt;AS2497</title>
<path fill="none" stroke="black" d="M659.397,-663.003C664.633,-659.226 669.832,-654.816 673.956,-649.943 707.177,-610.694 729.242,-554.148 740.286,-520.713"/>
<polygon fill="black" stroke="black" points="743.64,-521.714 743.359,-511.123 736.974,-519.578 743.64,-521.714"/>
</g>
<!-- AS3491 -->
<g id="node13" class="node"><title>AS3491</title>
<g id="a_node13"><a xlink:href="/asn/3491" xlink:title="AS3491 ~ PCCW Global, Inc. [US]">
<ellipse fill="#ffffff" stroke="black" cx="869.445" cy="-486.943" rx="39.7935" ry="18"/>
<text text-anchor="middle" x="869.445" y="-483.243" font-family="Times,serif" font-size="14.00" fill="#2c94b3">AS3491</text>
</a>
</g>
</g>
<!-- AS3257&#45;&gt;AS3491 -->
<g id="edge12" class="edge"><title>AS3257&#45;&gt;AS3491</title>
<path fill="none" stroke="black" d="M658.797,-662.712C689.935,-643.388 745.985,-606.989 789.249,-569.943 810.311,-551.908 831.887,-528.942 847.188,-511.742"/>
<polygon fill="black" stroke="black" points="850.19,-513.629 854.167,-503.808 844.934,-509.006 850.19,-513.629"/>
</g>
<!-- AS174&#45;&gt;AS3491 -->
<g id="edge13" class="edge"><title>AS174&#45;&gt;AS3491</title>
<path fill="none" stroke="black" d="M658.088,-609.655C699.529,-585.481 787.396,-534.223 835.415,-506.211"/>
<polygon fill="black" stroke="black" points="837.306,-509.16 844.18,-501.098 833.779,-503.114 837.306,-509.16"/>
</g>
<!-- AS6461 -->
<g id="node14" class="node"><title>AS6461</title>
<g id="a_node14"><a xlink:href="/asn/6461" xlink:title="AS6461 ~ Zayo Bandwidth [US]">
<ellipse fill="#ffffff" stroke="black" cx="634.31" cy="-568.943" rx="39.7935" ry="18"/>
<text text-anchor="middle" x="634.31" y="-565.243" font-family="Times,serif" font-size="14.00" fill="#2c94b3">AS6461</text>
</a>
</g>
</g>
<!-- AS8218&#45;&gt;AS6461 -->
<g id="edge14" class="edge"><title>AS8218&#45;&gt;AS6461</title>
<path fill="none" stroke="black" stroke-width="2" d="M545.16,-521.481C560.891,-529.951 581.375,-540.98 598.637,-550.274"/>
<polygon fill="black" stroke="black" stroke-width="2" points="597.381,-553.573 607.845,-555.232 600.699,-547.41 597.381,-553.573"/>
</g>
<!-- AS3356&#45;&gt;AS3257 -->
<g id="edge20" class="edge"><title>AS3356&#45;&gt;AS3257</title>
<path fill="none" stroke="black" d="M528.951,-410.395C537.586,-427.861 550.523,-455.692 558.663,-480.943 582.225,-554.035 552.229,-585.935 594.663,-649.943 596.274,-652.373 598.186,-654.65 600.282,-656.769"/>
<polygon fill="black" stroke="black" points="598.09,-659.5 607.957,-663.358 602.65,-654.189 598.09,-659.5"/>
</g>
<!-- AS3356&#45;&gt;AS174 -->
<g id="edge24" class="edge"><title>AS3356&#45;&gt;AS174</title>
<path fill="none" stroke="black" d="M528.447,-410.571C536.699,-428.17 549.352,-456.1 558.663,-480.943 577.459,-531.093 563.016,-552.736 594.663,-595.943 596.646,-598.65 598.985,-601.183 601.515,-603.527"/>
<polygon fill="black" stroke="black" points="599.535,-606.426 609.515,-609.983 603.931,-600.979 599.535,-606.426"/>
</g>
<!-- AS3356&#45;&gt;AS2914 -->
<g id="edge21" class="edge"><title>AS3356&#45;&gt;AS2914</title>
<path fill="none" stroke="black" d="M536.743,-409.181C543.759,-416.261 551.852,-424.792 558.663,-432.943 576.222,-453.955 575.966,-462.937 594.663,-482.943 597.827,-486.328 601.344,-489.688 604.931,-492.886"/>
<polygon fill="black" stroke="black" points="602.905,-495.758 612.787,-499.58 607.445,-490.43 602.905,-495.758"/>
</g>
<!-- AS3356&#45;&gt;AS2497 -->
<g id="edge17" class="edge"><title>AS3356&#45;&gt;AS2497</title>
<path fill="none" stroke="black" stroke-width="2" d="M546.052,-406.42C560.294,-413.647 578.318,-422.559 594.663,-429.943 633.132,-447.322 677.862,-465.395 709.159,-477.703"/>
<polygon fill="black" stroke="black" stroke-width="2" points="708.235,-481.101 718.823,-481.489 710.788,-474.583 708.235,-481.101"/>
</g>
<!-- AS3356&#45;&gt;AS3491 -->
<g id="edge19" class="edge"><title>AS3356&#45;&gt;AS3491</title>
<path fill="none" stroke="black" d="M557.148,-387.948C610.868,-382.365 712.256,-378.083 789.249,-411.943 813.679,-422.687 835.214,-444.333 849.636,-461.62"/>
<polygon fill="black" stroke="black" points="847.132,-464.091 856.127,-469.69 852.587,-459.704 847.132,-464.091"/>
</g>
<!-- AS6453 -->
<g id="node15" class="node"><title>AS6453</title>
<g id="a_node15"><a xlink:href="/asn/6453" xlink:title="AS6453 ~ TATA COMMUNICATIONS (AMERICA) INC [US]">
<ellipse fill="#ffffff" stroke="black" cx="634.31" cy="-254.943" rx="39.7935" ry="18"/>
<text text-anchor="middle" x="634.31" y="-251.243" font-family="Times,serif" font-size="14.00" fill="#2c94b3">AS6453</text>
</a>
</g>
</g>
<!-- AS3356&#45;&gt;AS6453 -->
<g id="edge15" class="edge"><title>AS3356&#45;&gt;AS6453</title>
<path fill="none" stroke="black" stroke-width="2" d="M544.564,-378.759C549.66,-375.045 554.683,-370.723 558.663,-365.943 583.351,-336.29 571.208,-317.58 594.663,-286.943 597.418,-283.344 600.65,-279.886 604.051,-276.661"/>
<polygon fill="black" stroke="black" stroke-width="2" points="606.431,-279.229 611.646,-270.006 601.818,-273.964 606.431,-279.229"/>
</g>
<!-- AS6762 -->
<g id="node16" class="node"><title>AS6762</title>
<g id="a_node16"><a xlink:href="/asn/6762" xlink:title="AS6762 ~ TELECOM ITALIA SPARKLE S.p.A. [IT]">
<ellipse fill="#ffffff" stroke="black" cx="749.603" cy="-438.943" rx="39.7935" ry="18"/>
<text text-anchor="middle" x="749.603" y="-435.243" font-family="Times,serif" font-size="14.00" fill="#2c94b3">AS6762</text>
</a>
</g>
</g>
<!-- AS3356&#45;&gt;AS6762 -->
<g id="edge16" class="edge"><title>AS3356&#45;&gt;AS6762</title>
<path fill="none" stroke="black" d="M555.733,-400.131C595.49,-408.131 659.831,-421.079 703.148,-429.796"/>
<polygon fill="black" stroke="black" points="702.643,-433.264 713.137,-431.806 704.024,-426.402 702.643,-433.264"/>
</g>
<!-- AS3549 -->
<g id="node17" class="node"><title>AS3549</title>
<g id="a_node17"><a xlink:href="/asn/3549" xlink:title="AS3549 ~ Level 3 Parent, LLC [US]">
<ellipse fill="#ffffff" stroke="black" cx="634.31" cy="-346.943" rx="39.7935" ry="18"/>
<text text-anchor="middle" x="634.31" y="-343.243" font-family="Times,serif" font-size="14.00" fill="#2c94b3">AS3549</text>
</a>
</g>
</g>
<!-- AS3356&#45;&gt;AS3549 -->
<g id="edge18" class="edge"><title>AS3356&#45;&gt;AS3549</title>
<path fill="none" stroke="black" stroke-width="3" d="M549.192,-381.097C563.068,-375.463 579.845,-368.651 594.754,-362.597"/>
<polygon fill="black" stroke="black" stroke-width="3" points="596.284,-365.754 604.233,-358.749 593.651,-359.268 596.284,-365.754"/>
</g>
<!-- AS7018 -->
<g id="node18" class="node"><title>AS7018</title>
<g id="a_node18"><a xlink:href="/asn/7018" xlink:title="AS7018 ~ AT&amp;T Services, Inc. [US]">
<ellipse fill="#ffffff" stroke="black" cx="634.31" cy="-200.943" rx="39.7935" ry="18"/>
<text text-anchor="middle" x="634.31" y="-197.243" font-family="Times,serif" font-size="14.00" fill="#2c94b3">AS7018</text>
</a>
</g>
</g>
<!-- AS3356&#45;&gt;AS7018 -->
<g id="edge22" class="edge"><title>AS3356&#45;&gt;AS7018</title>
<path fill="none" stroke="black" d="M545.197,-379.241C550.26,-375.502 555.11,-371.048 558.663,-365.943 594.875,-313.919 558.451,-279.967 594.663,-227.943 596.329,-225.55 598.28,-223.3 600.403,-221.2"/>
<polygon fill="black" stroke="black" points="602.768,-223.783 608.13,-214.645 598.24,-218.445 602.768,-223.783"/>
</g>
<!-- AS12956 -->
<g id="node19" class="node"><title>AS12956</title>
<g id="a_node19"><a xlink:href="/asn/12956" xlink:title="AS12956 ~ TELXIUS [ES]">
<ellipse fill="#ffffff" stroke="black" cx="869.445" cy="-390.943" rx="44.393" ry="18"/>
<text text-anchor="middle" x="869.445" y="-387.243" font-family="Times,serif" font-size="14.00" fill="#2c94b3">AS12956</text>
</a>
</g>
</g>
<!-- AS3356&#45;&gt;AS12956 -->
<g id="edge23" class="edge"><title>AS3356&#45;&gt;AS12956</title>
<path fill="none" stroke="black" d="M542.959,-378.59C548.353,-374.771 553.909,-370.446 558.663,-365.943 577.511,-348.09 571.325,-331.314 594.663,-319.943 677.495,-279.585 785.992,-336.537 838.027,-369.828"/>
<polygon fill="black" stroke="black" points="836.189,-372.808 846.475,-375.345 840.016,-366.947 836.189,-372.808"/>
</g>
<!-- AS1239 -->
<g id="node20" class="node"><title>AS1239</title>
<g id="a_node20"><a xlink:href="/asn/1239" xlink:title="AS1239 ~ Sprint [US]">
<ellipse fill="#ffffff" stroke="black" cx="634.31" cy="-146.943" rx="39.7935" ry="18"/>
<text text-anchor="middle" x="634.31" y="-143.243" font-family="Times,serif" font-size="14.00" fill="#2c94b3">AS1239</text>
</a>
</g>
</g>
<!-- AS3356&#45;&gt;AS1239 -->
<g id="edge25" class="edge"><title>AS3356&#45;&gt;AS1239</title>
<path fill="none" stroke="black" d="M545.464,-379.42C550.513,-375.672 555.29,-371.169 558.663,-365.943 605.745,-292.998 547.581,-246.889 594.663,-173.943 596.244,-171.493 598.134,-169.202 600.215,-167.074"/>
<polygon fill="black" stroke="black" points="602.584,-169.652 607.862,-160.466 598.007,-164.356 602.584,-169.652"/>
</g>
<!-- AS2914&#45;&gt;AS6762 -->
<g id="edge26" class="edge"><title>AS2914&#45;&gt;AS6762</title>
<path fill="none" stroke="black" d="M657.423,-500.109C674.734,-488.496 699.003,-472.216 718.151,-459.371"/>
<polygon fill="black" stroke="black" points="720.191,-462.217 726.545,-453.74 716.291,-456.404 720.191,-462.217"/>
</g>
<!-- AS3320&#45;&gt;AS2497 -->
<g id="edge31" class="edge"><title>AS3320&#45;&gt;AS2497</title>
<path fill="none" stroke="black" d="M529.983,-183.381C542.286,-163.694 565.239,-132.84 594.663,-119.943 626.94,-105.795 647.779,-96.3483 673.956,-119.943 731.377,-171.7 670.721,-399.336 709.956,-465.943 711.436,-468.455 713.252,-470.791 715.283,-472.951"/>
<polygon fill="black" stroke="black" points="713.022,-475.624 722.835,-479.618 717.654,-470.376 713.022,-475.624"/>
</g>
<!-- AS3320&#45;&gt;AS6453 -->
<g id="edge30" class="edge"><title>AS3320&#45;&gt;AS6453</title>
<path fill="none" stroke="black" d="M547.153,-213.877C562.147,-221.024 580.968,-229.995 597.191,-237.728"/>
<polygon fill="black" stroke="black" points="595.862,-240.971 606.395,-242.114 598.874,-234.652 595.862,-240.971"/>
</g>
<!-- AS3320&#45;&gt;AS7018 -->
<g id="edge29" class="edge"><title>AS3320&#45;&gt;AS7018</title>
<path fill="none" stroke="black" d="M558.689,-200.943C566.892,-200.943 575.656,-200.943 584.188,-200.943"/>
<polygon fill="black" stroke="black" points="584.427,-204.443 594.427,-200.943 584.427,-197.443 584.427,-204.443"/>
</g>
<!-- AS3320&#45;&gt;AS1239 -->
<g id="edge28" class="edge"><title>AS3320&#45;&gt;AS1239</title>
<path fill="none" stroke="black" stroke-width="2" d="M547.153,-188.009C562.147,-180.862 580.968,-171.891 597.191,-164.158"/>
<polygon fill="black" stroke="black" stroke-width="2" points="598.874,-167.234 606.395,-159.772 595.862,-160.915 598.874,-167.234"/>
</g>
<!-- AS701 -->
<g id="node21" class="node"><title>AS701</title>
<g id="a_node21"><a xlink:href="/asn/701" xlink:title="AS701 ~ UUNET [US]">
<ellipse fill="#ffffff" stroke="black" cx="634.31" cy="-54.943" rx="35.194" ry="18"/>
<text text-anchor="middle" x="634.31" y="-51.243" font-family="Times,serif" font-size="14.00" fill="#2c94b3">AS701</text>
</a>
</g>
</g>
<!-- AS3320&#45;&gt;AS701 -->
<g id="edge27" class="edge"><title>AS3320&#45;&gt;AS701</title>
<path fill="none" stroke="black" stroke-width="2" d="M529.42,-183.197C542.32,-159.747 567.071,-117.808 594.663,-86.943 597.972,-83.2413 601.724,-79.6016 605.557,-76.1797"/>
<polygon fill="black" stroke="black" stroke-width="2" points="608.058,-78.6481 613.423,-69.512 603.531,-73.3084 608.058,-78.6481"/>
</g>
<!-- AS1299&#45;&gt;AS7018 -->
<g id="edge32" class="edge"><title>AS1299&#45;&gt;AS7018</title>
<path fill="none" stroke="black" d="M529.153,-321.345C541.758,-298.16 566.183,-256.935 594.663,-227.943 596.76,-225.808 599.047,-223.733 601.426,-221.742"/>
<polygon fill="black" stroke="black" points="603.943,-224.221 609.729,-215.346 599.671,-218.676 603.943,-224.221"/>
</g>
<!-- AS6762&#45;&gt;AS3491 -->
<g id="edge41" class="edge"><title>AS6762&#45;&gt;AS3491</title>
<path fill="none" stroke="black" d="M779.732,-450.808C794.888,-456.981 813.612,-464.608 829.946,-471.261"/>
<polygon fill="black" stroke="black" points="828.661,-474.517 839.242,-475.048 831.301,-468.034 828.661,-474.517"/>
</g>
<!-- AS6762&#45;&gt;AS12956 -->
<g id="edge40" class="edge"><title>AS6762&#45;&gt;AS12956</title>
<path fill="none" stroke="black" d="M779.732,-427.078C794.295,-421.146 812.151,-413.873 828.017,-407.41"/>
<polygon fill="black" stroke="black" points="829.651,-410.524 837.592,-403.51 827.01,-404.041 829.651,-410.524"/>
</g>
<!-- AS25255&#45;&gt;AS1764 -->
<g id="edge36" class="edge"><title>AS25255&#45;&gt;AS1764</title>
<path fill="none" stroke="black" stroke-width="4.5" d="M314.618,-354.065C330.007,-360.856 348.95,-369.214 365.322,-376.439"/>
<polygon fill="black" stroke="black" stroke-width="4.5" points="363.881,-380.107 374.619,-380.541 367.06,-372.902 363.881,-380.107"/>
</g>
<!-- AS25255&#45;&gt;AS8447 -->
<g id="edge37" class="edge"><title>AS25255&#45;&gt;AS8447</title>
<path fill="none" stroke="black" stroke-width="1.5" d="M328.092,-340.21C336.405,-340.069 345.168,-339.92 353.65,-339.776"/>
<polygon fill="black" stroke="black" stroke-width="1.5" points="353.869,-343.273 363.809,-339.603 353.751,-336.274 353.869,-343.273"/>
</g>
<!-- AS25255&#45;&gt;AS3320 -->
<g id="edge35" class="edge"><title>AS25255&#45;&gt;AS3320</title>
<path fill="none" stroke="black" stroke-width="4.5" d="M309.39,-326.225C351.674,-300.833 438.329,-248.796 485.565,-220.431"/>
<polygon fill="black" stroke="black" stroke-width="4.5" points="487.638,-223.779 494.184,-215.255 483.584,-217.027 487.638,-223.779"/>
</g>
<!-- AS25255&#45;&gt;AS6762 -->
<g id="edge34" class="edge"><title>AS25255&#45;&gt;AS6762</title>
<path fill="none" stroke="black" stroke-width="2.25" d="M293.743,-323.338C336.307,-240.953 523.879,97.3318 673.956,-27.943 732.893,-77.1395 745.401,-326.077 747.965,-410.723"/>
<polygon fill="black" stroke="black" stroke-width="2.25" points="744.471,-410.977 748.248,-420.876 751.468,-410.782 744.471,-410.977"/>
</g>
</g>
</svg>
