<?xml version="1.0" encoding="UTF-8" standalone="no"?>
<!DOCTYPE svg PUBLIC "-//W3C//DTD SVG 1.1//EN"
 "http://www.w3.org/Graphics/SVG/1.1/DTD/svg11.dtd">
<!-- Generated by graphviz version 2.38.0 (20140413.2041)
 -->
<!-- Title: AS47477 IPv4 Upstream Graph Pages: 1 -->
<svg width="913pt" height="821pt"
 viewBox="0.00 0.00 912.54 821.18" xmlns="http://www.w3.org/2000/svg" xmlns:xlink="http://www.w3.org/1999/xlink">
<g id="graph0" class="graph" transform="scale(1 1) rotate(0) translate(4 817.175)">
<title>AS47477 IPv4 Upstream Graph</title>
<polygon fill="white" stroke="none" points="-4,4 -4,-817.175 908.542,-817.175 908.542,4 -4,4"/>
<!-- AS47477 -->
<g id="node1" class="node"><title>AS47477</title>
<g id="a_node1"><a xlink:href="/asn/47477" xlink:title="AS47477 ~ REWEA&#45;AS [AT]">
<ellipse fill="#ffffff" stroke="black" cx="44.1961" cy="-435" rx="44.393" ry="18"/>
<text text-anchor="middle" x="44.1961" y="-431.3" font-family="Times,serif" font-size="14.00" fill="#880000">AS47477</text>
</a>
</g>
</g>
<!-- AS1764 -->
<g id="node2" class="node"><title>AS1764</title>
<g id="a_node2"><a xlink:href="/asn/1764" xlink:title="AS1764 ~ NEXTLAYER&#45;AS [AT]">
<ellipse fill="#ffffff" stroke="black" cx="403.724" cy="-481" rx="39.7935" ry="18"/>
<text text-anchor="middle" x="403.724" y="-477.3" font-family="Times,serif" font-size="14.00" fill="#2c94b3">AS1764</text>
</a>
</g>
</g>
<!-- AS47477&#45;&gt;AS1764 -->
<g id="edge1" class="edge"><title>AS47477&#45;&gt;AS1764</title>
<path fill="none" stroke="black" stroke-width="4.5" d="M75.9008,-447.554C90.3694,-452.925 108.014,-458.708 124.392,-462 203.573,-477.916 297.695,-481.159 353.697,-481.486"/>
<polygon fill="black" stroke="black" stroke-width="4.5" points="354.025,-485.424 364.036,-481.515 354.047,-477.549 354.025,-485.424"/>
</g>
<!-- AS8437 -->
<g id="node3" class="node"><title>AS8437</title>
<g id="a_node3"><a xlink:href="/asn/8437" xlink:title="AS8437 ~ Hutchison Drei Austria GmbH [AT]">
<ellipse fill="#ffffff" stroke="black" cx="164.039" cy="-435" rx="39.7935" ry="18"/>
<text text-anchor="middle" x="164.039" y="-431.3" font-family="Times,serif" font-size="14.00" fill="#2c94b3">AS8437</text>
</a>
</g>
</g>
<!-- AS47477&#45;&gt;AS8437 -->
<g id="edge2" class="edge"><title>AS47477&#45;&gt;AS8437</title>
<path fill="none" stroke="black" stroke-width="4" d="M88.4072,-435C96.7198,-435 105.482,-435 113.965,-435"/>
<polygon fill="black" stroke="black" stroke-width="4" points="114.123,-438.5 124.123,-435 114.123,-431.5 114.123,-438.5"/>
</g>
<!-- AS8447 -->
<g id="node4" class="node"><title>AS8447</title>
<g id="a_node4"><a xlink:href="/asn/8447" xlink:title="AS8447 ~ A1 Telekom Austria AG [AT]">
<ellipse fill="#ffffff" stroke="black" cx="403.724" cy="-389" rx="39.7935" ry="18"/>
<text text-anchor="middle" x="403.724" y="-385.3" font-family="Times,serif" font-size="14.00" fill="#2c94b3">AS8447</text>
</a>
</g>
</g>
<!-- AS47477&#45;&gt;AS8447 -->
<g id="edge3" class="edge"><title>AS47477&#45;&gt;AS8447</title>
<path fill="none" stroke="black" stroke-width="3.75" d="M75.9008,-422.446C90.3694,-417.075 108.014,-411.292 124.392,-408 203.573,-392.084 297.695,-388.841 353.697,-388.514"/>
<polygon fill="black" stroke="black" stroke-width="3.75" points="354.046,-392.014 364.036,-388.485 354.026,-385.014 354.046,-392.014"/>
</g>
<!-- AS3356 -->
<g id="node5" class="node"><title>AS3356</title>
<g id="a_node5"><a xlink:href="/asn/3356" xlink:title="AS3356 ~ Level 3 Parent, LLC [US]">
<ellipse fill="#ffffff" stroke="black" cx="519.017" cy="-454" rx="39.7935" ry="18"/>
<text text-anchor="middle" x="519.017" y="-450.3" font-family="Times,serif" font-size="14.00" fill="#2c94b3">AS3356</text>
</a>
</g>
</g>
<!-- AS1764&#45;&gt;AS3356 -->
<g id="edge4" class="edge"><title>AS1764&#45;&gt;AS3356</title>
<path fill="none" stroke="black" stroke-width="4" d="M439.331,-472.752C450.202,-470.162 462.357,-467.265 473.799,-464.538"/>
<polygon fill="black" stroke="black" stroke-width="4" points="474.705,-467.92 483.621,-462.197 473.082,-461.111 474.705,-467.92"/>
</g>
<!-- AS3257 -->
<g id="node6" class="node"><title>AS3257</title>
<g id="a_node6"><a xlink:href="/asn/3257" xlink:title="AS3257 ~ GTT [DE]">
<ellipse fill="#ffffff" stroke="black" cx="634.31" cy="-646" rx="39.7935" ry="18"/>
<text text-anchor="middle" x="634.31" y="-642.3" font-family="Times,serif" font-size="14.00" fill="#2c94b3">AS3257</text>
</a>
</g>
</g>
<!-- AS1764&#45;&gt;AS3257 -->
<g id="edge5" class="edge"><title>AS1764&#45;&gt;AS3257</title>
<path fill="none" stroke="black" stroke-width="4" d="M422.704,-496.828C437.565,-509.691 459.392,-528.082 479.37,-543 520.292,-573.557 569.688,-605.843 601.294,-625.952"/>
<polygon fill="black" stroke="black" stroke-width="4" points="599.788,-629.141 610.108,-631.537 603.535,-623.228 599.788,-629.141"/>
</g>
<!-- AS1299 -->
<g id="node7" class="node"><title>AS1299</title>
<g id="a_node7"><a xlink:href="/asn/1299" xlink:title="AS1299 ~ Telia Carrier [EU]">
<ellipse fill="#ffffff" stroke="black" cx="519.017" cy="-286" rx="39.7935" ry="18"/>
<text text-anchor="middle" x="519.017" y="-282.3" font-family="Times,serif" font-size="14.00" fill="#2c94b3">AS1299</text>
</a>
</g>
</g>
<!-- AS1764&#45;&gt;AS1299 -->
<g id="edge6" class="edge"><title>AS1764&#45;&gt;AS1299</title>
<path fill="none" stroke="black" stroke-width="3" d="M415.129,-463.661C422.95,-450.592 433.898,-432.209 443.37,-416 464.186,-380.377 487.847,-339.021 502.846,-312.693"/>
<polygon fill="black" stroke="black" stroke-width="3" points="506.054,-314.134 507.959,-303.712 499.97,-310.671 506.054,-314.134"/>
</g>
<!-- AS2914 -->
<g id="node8" class="node"><title>AS2914</title>
<g id="a_node8"><a xlink:href="/asn/2914" xlink:title="AS2914 ~ NTT America, Inc. [US]">
<ellipse fill="#ffffff" stroke="black" cx="634.31" cy="-700" rx="39.7935" ry="18"/>
<text text-anchor="middle" x="634.31" y="-696.3" font-family="Times,serif" font-size="14.00" fill="#2c94b3">AS2914</text>
</a>
</g>
</g>
<!-- AS1764&#45;&gt;AS2914 -->
<g id="edge7" class="edge"><title>AS1764&#45;&gt;AS2914</title>
<path fill="none" stroke="black" stroke-width="3" d="M415.25,-498.561C428.602,-520.044 453.074,-556.896 479.37,-584 524.445,-630.46 542.495,-634.675 594.663,-673 597.452,-675.049 600.374,-677.157 603.309,-679.25"/>
<polygon fill="black" stroke="black" stroke-width="3" points="601.327,-682.135 611.515,-685.043 605.364,-676.416 601.327,-682.135"/>
</g>
<!-- AS174 -->
<g id="node9" class="node"><title>AS174</title>
<g id="a_node9"><a xlink:href="/asn/174" xlink:title="AS174 ~ Cogent Communications [US]">
<ellipse fill="#ffffff" stroke="black" cx="634.31" cy="-592" rx="35.194" ry="18"/>
<text text-anchor="middle" x="634.31" y="-588.3" font-family="Times,serif" font-size="14.00" fill="#2c94b3">AS174</text>
</a>
</g>
</g>
<!-- AS1764&#45;&gt;AS174 -->
<g id="edge8" class="edge"><title>AS1764&#45;&gt;AS174</title>
<path fill="none" stroke="black" stroke-width="3" d="M434.154,-492.557C465.503,-505.156 516.339,-526.417 558.663,-548 573.472,-555.551 589.404,-564.782 602.731,-572.834"/>
<polygon fill="black" stroke="black" stroke-width="3" points="601.136,-575.962 611.495,-578.186 604.785,-569.988 601.136,-575.962"/>
</g>
<!-- AS8218 -->
<g id="node10" class="node"><title>AS8218</title>
<g id="a_node10"><a xlink:href="/asn/8218" xlink:title="AS8218 ~ legacy Neotelecoms [FR]">
<ellipse fill="#ffffff" stroke="black" cx="519.017" cy="-745" rx="39.7935" ry="18"/>
<text text-anchor="middle" x="519.017" y="-741.3" font-family="Times,serif" font-size="14.00" fill="#2c94b3">AS8218</text>
</a>
</g>
</g>
<!-- AS1764&#45;&gt;AS8218 -->
<g id="edge9" class="edge"><title>AS1764&#45;&gt;AS8218</title>
<path fill="none" stroke="black" stroke-width="2" d="M412.333,-498.732C431.763,-544.007 483.301,-664.103 506.46,-718.071"/>
<polygon fill="black" stroke="black" stroke-width="2" points="503.28,-719.536 510.44,-727.345 509.713,-716.776 503.28,-719.536"/>
</g>
<!-- AS3320 -->
<g id="node11" class="node"><title>AS3320</title>
<g id="a_node11"><a xlink:href="/asn/3320" xlink:title="AS3320 ~ DTAG [DE]">
<ellipse fill="#ffffff" stroke="black" cx="519.017" cy="-209" rx="39.7935" ry="18"/>
<text text-anchor="middle" x="519.017" y="-205.3" font-family="Times,serif" font-size="14.00" fill="#2c94b3">AS3320</text>
</a>
</g>
</g>
<!-- AS1764&#45;&gt;AS3320 -->
<g id="edge10" class="edge"><title>AS1764&#45;&gt;AS3320</title>
<path fill="none" stroke="black" stroke-width="4" d="M416.947,-463.838C425.464,-451.158 436.488,-433.185 443.37,-416 469.984,-349.542 448.767,-323.718 479.37,-259 483.641,-249.968 489.764,-241.035 495.88,-233.274"/>
<polygon fill="black" stroke="black" stroke-width="4" points="498.748,-235.298 502.427,-225.362 493.355,-230.835 498.748,-235.298"/>
</g>
<!-- AS25255 -->
<g id="node22" class="node"><title>AS25255</title>
<g id="a_node22"><a xlink:href="/asn/25255" xlink:title="AS25255 ~ ==&gt; TELE2 AUSTRIA &lt;== [AT]">
<ellipse fill="#ffffff" stroke="black" cx="283.881" cy="-435" rx="44.393" ry="18"/>
<text text-anchor="middle" x="283.881" y="-431.3" font-family="Times,serif" font-size="14.00" fill="#2c94b3">AS25255</text>
</a>
</g>
</g>
<!-- AS8437&#45;&gt;AS25255 -->
<g id="edge35" class="edge"><title>AS8437&#45;&gt;AS25255</title>
<path fill="none" stroke="black" stroke-width="4.5" d="M203.951,-435C212.054,-435 220.729,-435 229.255,-435"/>
<polygon fill="black" stroke="black" stroke-width="4.5" points="229.533,-438.938 239.533,-435 229.533,-431.063 229.533,-438.938"/>
</g>
<!-- AS8447&#45;&gt;AS3356 -->
<g id="edge42" class="edge"><title>AS8447&#45;&gt;AS3356</title>
<path fill="none" stroke="black" stroke-width="4.5" d="M429.028,-402.944C445.306,-412.283 466.942,-424.697 484.804,-434.945"/>
<polygon fill="black" stroke="black" stroke-width="4.5" points="483.119,-438.518 493.753,-440.079 487.038,-431.687 483.119,-438.518"/>
</g>
<!-- AS8447&#45;&gt;AS1299 -->
<g id="edge43" class="edge"><title>AS8447&#45;&gt;AS1299</title>
<path fill="none" stroke="black" stroke-width="1.03846" d="M422.426,-372.906C441.382,-355.672 471.615,-328.186 492.998,-308.745"/>
<polygon fill="black" stroke="black" stroke-width="1.03846" points="495.394,-311.297 500.439,-301.981 490.685,-306.118 495.394,-311.297"/>
</g>
<!-- AS8447&#45;&gt;AS3320 -->
<g id="edge44" class="edge"><title>AS8447&#45;&gt;AS3320</title>
<path fill="none" stroke="black" stroke-width="0.346154" d="M413.89,-371.301C427.292,-345.85 453.466,-297.72 479.37,-259 485.075,-250.473 491.769,-241.503 497.968,-233.553"/>
<polygon fill="black" stroke="black" stroke-width="0.346154" points="500.724,-235.71 504.187,-225.697 495.236,-231.365 500.724,-235.71"/>
</g>
<!-- AS3356&#45;&gt;AS3257 -->
<g id="edge14" class="edge"><title>AS3356&#45;&gt;AS3257</title>
<path fill="none" stroke="black" d="M527.475,-471.892C544.309,-512.059 584.571,-606.844 594.663,-619 596.526,-621.243 598.618,-623.385 600.841,-625.41"/>
<polygon fill="black" stroke="black" points="598.78,-628.246 608.752,-631.824 603.188,-622.808 598.78,-628.246"/>
</g>
<!-- AS3356&#45;&gt;AS2914 -->
<g id="edge19" class="edge"><title>AS3356&#45;&gt;AS2914</title>
<path fill="none" stroke="black" d="M522.326,-472.234C528.164,-512.216 546.622,-609.111 594.663,-673 596.416,-675.33 598.429,-677.535 600.596,-679.604"/>
<polygon fill="black" stroke="black" points="598.478,-682.395 608.404,-686.1 602.955,-677.014 598.478,-682.395"/>
</g>
<!-- AS3356&#45;&gt;AS174 -->
<g id="edge18" class="edge"><title>AS3356&#45;&gt;AS174</title>
<path fill="none" stroke="black" d="M537.767,-470.131C544.791,-477.058 552.615,-485.505 558.663,-494 579.184,-522.821 571.464,-538.288 594.663,-565 596.864,-567.534 599.35,-569.948 601.976,-572.217"/>
<polygon fill="black" stroke="black" points="600.078,-575.175 610.118,-578.559 604.379,-569.653 600.078,-575.175"/>
</g>
<!-- AS2497 -->
<g id="node12" class="node"><title>AS2497</title>
<g id="a_node12"><a xlink:href="/asn/2497" xlink:title="AS2497 ~ Internet Initiative Japan Inc. [JP]">
<ellipse fill="#ffffff" stroke="black" cx="749.603" cy="-500" rx="39.7935" ry="18"/>
<text text-anchor="middle" x="749.603" y="-496.3" font-family="Times,serif" font-size="14.00" fill="#2c94b3">AS2497</text>
</a>
</g>
</g>
<!-- AS3356&#45;&gt;AS2497 -->
<g id="edge11" class="edge"><title>AS3356&#45;&gt;AS2497</title>
<path fill="none" stroke="black" stroke-width="2" d="M555.733,-461.188C595.49,-469.188 659.831,-482.136 703.148,-490.853"/>
<polygon fill="black" stroke="black" stroke-width="2" points="702.643,-494.321 713.137,-492.863 704.024,-487.459 702.643,-494.321"/>
</g>
<!-- AS3549 -->
<g id="node13" class="node"><title>AS3549</title>
<g id="a_node13"><a xlink:href="/asn/3549" xlink:title="AS3549 ~ Level 3 Parent, LLC [US]">
<ellipse fill="#ffffff" stroke="black" cx="634.31" cy="-408" rx="39.7935" ry="18"/>
<text text-anchor="middle" x="634.31" y="-404.3" font-family="Times,serif" font-size="14.00" fill="#2c94b3">AS3549</text>
</a>
</g>
</g>
<!-- AS3356&#45;&gt;AS3549 -->
<g id="edge12" class="edge"><title>AS3356&#45;&gt;AS3549</title>
<path fill="none" stroke="black" stroke-width="3" d="M549.192,-442.154C563.068,-436.52 579.845,-429.708 594.754,-423.654"/>
<polygon fill="black" stroke="black" stroke-width="3" points="596.284,-426.811 604.233,-419.806 593.651,-420.325 596.284,-426.811"/>
</g>
<!-- AS6762 -->
<g id="node14" class="node"><title>AS6762</title>
<g id="a_node14"><a xlink:href="/asn/6762" xlink:title="AS6762 ~ TELECOM ITALIA SPARKLE S.p.A. [IT]">
<ellipse fill="#ffffff" stroke="black" cx="749.603" cy="-573" rx="39.7935" ry="18"/>
<text text-anchor="middle" x="749.603" y="-569.3" font-family="Times,serif" font-size="14.00" fill="#2c94b3">AS6762</text>
</a>
</g>
</g>
<!-- AS3356&#45;&gt;AS6762 -->
<g id="edge13" class="edge"><title>AS3356&#45;&gt;AS6762</title>
<path fill="none" stroke="black" d="M531.344,-436.841C544.243,-419.026 567.136,-392.223 594.663,-381 627.297,-367.695 646.214,-359.267 673.956,-381 726.567,-422.214 679.674,-467.422 709.956,-527 713.965,-534.886 719.559,-542.596 725.248,-549.38"/>
<polygon fill="black" stroke="black" points="722.633,-551.706 731.881,-556.875 727.875,-547.067 722.633,-551.706"/>
</g>
<!-- AS1239 -->
<g id="node15" class="node"><title>AS1239</title>
<g id="a_node15"><a xlink:href="/asn/1239" xlink:title="AS1239 ~ Sprint [US]">
<ellipse fill="#ffffff" stroke="black" cx="634.31" cy="-186" rx="39.7935" ry="18"/>
<text text-anchor="middle" x="634.31" y="-182.3" font-family="Times,serif" font-size="14.00" fill="#2c94b3">AS1239</text>
</a>
</g>
</g>
<!-- AS3356&#45;&gt;AS1239 -->
<g id="edge15" class="edge"><title>AS3356&#45;&gt;AS1239</title>
<path fill="none" stroke="black" d="M524.862,-436.008C539.163,-383.28 581.038,-231.66 594.663,-213 596.383,-210.645 598.372,-208.423 600.523,-206.342"/>
<polygon fill="black" stroke="black" points="602.884,-208.929 608.299,-199.823 598.387,-203.565 602.884,-208.929"/>
</g>
<!-- AS6453 -->
<g id="node16" class="node"><title>AS6453</title>
<g id="a_node16"><a xlink:href="/asn/6453" xlink:title="AS6453 ~ TATA COMMUNICATIONS (AMERICA) INC [US]">
<ellipse fill="#ffffff" stroke="black" cx="864.896" cy="-232" rx="39.7935" ry="18"/>
<text text-anchor="middle" x="864.896" y="-228.3" font-family="Times,serif" font-size="14.00" fill="#2c94b3">AS6453</text>
</a>
</g>
</g>
<!-- AS3356&#45;&gt;AS6453 -->
<g id="edge16" class="edge"><title>AS3356&#45;&gt;AS6453</title>
<path fill="none" stroke="black" d="M531.153,-436.535C544.379,-416.884 568.03,-384.975 594.663,-364 666.809,-307.181 767.369,-265.989 822.925,-245.868"/>
<polygon fill="black" stroke="black" points="824.19,-249.132 832.43,-242.472 821.835,-242.54 824.19,-249.132"/>
</g>
<!-- AS209 -->
<g id="node17" class="node"><title>AS209</title>
<g id="a_node17"><a xlink:href="/asn/209" xlink:title="AS209 ~ CenturyLink Communications, LLC [US]">
<ellipse fill="#ffffff" stroke="black" cx="634.31" cy="-538" rx="35.194" ry="18"/>
<text text-anchor="middle" x="634.31" y="-534.3" font-family="Times,serif" font-size="14.00" fill="#2c94b3">AS209</text>
</a>
</g>
</g>
<!-- AS3356&#45;&gt;AS209 -->
<g id="edge17" class="edge"><title>AS3356&#45;&gt;AS209</title>
<path fill="none" stroke="black" d="M540.533,-469.212C558.611,-482.615 585.114,-502.266 605.169,-517.135"/>
<polygon fill="black" stroke="black" points="603.209,-520.039 613.326,-523.183 607.378,-514.416 603.209,-520.039"/>
</g>
<!-- AS7018 -->
<g id="node18" class="node"><title>AS7018</title>
<g id="a_node18"><a xlink:href="/asn/7018" xlink:title="AS7018 ~ AT&amp;T Services, Inc. [US]">
<ellipse fill="#ffffff" stroke="black" cx="634.31" cy="-240" rx="39.7935" ry="18"/>
<text text-anchor="middle" x="634.31" y="-236.3" font-family="Times,serif" font-size="14.00" fill="#2c94b3">AS7018</text>
</a>
</g>
</g>
<!-- AS3356&#45;&gt;AS7018 -->
<g id="edge20" class="edge"><title>AS3356&#45;&gt;AS7018</title>
<path fill="none" stroke="black" d="M529.061,-436.187C542.955,-408.906 570.483,-355.187 594.663,-310 602.411,-295.522 611.25,-279.478 618.517,-266.407"/>
<polygon fill="black" stroke="black" points="621.682,-267.918 623.494,-257.479 615.568,-264.51 621.682,-267.918"/>
</g>
<!-- AS3491 -->
<g id="node19" class="node"><title>AS3491</title>
<g id="a_node19"><a xlink:href="/asn/3491" xlink:title="AS3491 ~ PCCW Global, Inc. [US]">
<ellipse fill="#ffffff" stroke="black" cx="864.896" cy="-573" rx="39.7935" ry="18"/>
<text text-anchor="middle" x="864.896" y="-569.3" font-family="Times,serif" font-size="14.00" fill="#2c94b3">AS3491</text>
</a>
</g>
</g>
<!-- AS3356&#45;&gt;AS3491 -->
<g id="edge21" class="edge"><title>AS3356&#45;&gt;AS3491</title>
<path fill="none" stroke="black" d="M556.187,-447.531C610.477,-439.718 714.613,-432.226 789.249,-473 818.659,-489.067 839.782,-522.229 851.894,-545.96"/>
<polygon fill="black" stroke="black" points="848.854,-547.711 856.386,-555.162 855.145,-544.64 848.854,-547.711"/>
</g>
<!-- AS3257&#45;&gt;AS2497 -->
<g id="edge23" class="edge"><title>AS3257&#45;&gt;AS2497</title>
<path fill="none" stroke="black" d="M659.347,-632.017C664.584,-628.242 669.797,-623.843 673.956,-619 697.525,-591.556 690.178,-576.29 709.956,-546 714.688,-538.754 720.411,-531.373 725.988,-524.706"/>
<polygon fill="black" stroke="black" points="729.006,-526.565 732.886,-516.706 723.705,-521.993 729.006,-526.565"/>
</g>
<!-- AS3257&#45;&gt;AS3491 -->
<g id="edge22" class="edge"><title>AS3257&#45;&gt;AS3491</title>
<path fill="none" stroke="black" d="M668.511,-636.668C699.803,-627.734 747.927,-613.635 789.249,-600 800.687,-596.226 813.016,-591.882 824.293,-587.797"/>
<polygon fill="black" stroke="black" points="825.692,-591.012 833.885,-584.294 823.291,-584.437 825.692,-591.012"/>
</g>
<!-- AS1299&#45;&gt;AS6453 -->
<g id="edge26" class="edge"><title>AS1299&#45;&gt;AS6453</title>
<path fill="none" stroke="black" d="M534.595,-269.092C542.291,-259.708 551.579,-247.615 558.663,-236 578.334,-203.748 562.792,-179.282 594.663,-159 672.683,-109.351 784.107,-174.385 835.694,-210.64"/>
<polygon fill="black" stroke="black" points="833.862,-213.633 844.028,-216.615 837.94,-207.944 833.862,-213.633"/>
</g>
<!-- AS1299&#45;&gt;AS7018 -->
<g id="edge25" class="edge"><title>AS1299&#45;&gt;AS7018</title>
<path fill="none" stroke="black" d="M549.192,-274.154C563.068,-268.52 579.845,-261.708 594.754,-255.654"/>
<polygon fill="black" stroke="black" points="596.284,-258.811 604.233,-251.806 593.651,-252.325 596.284,-258.811"/>
</g>
<!-- AS1299&#45;&gt;AS3491 -->
<g id="edge27" class="edge"><title>AS1299&#45;&gt;AS3491</title>
<path fill="none" stroke="black" d="M550.564,-296.988C604.972,-317.915 719.483,-368.263 789.249,-444 817.509,-474.679 839.778,-517.872 852.394,-545.654"/>
<polygon fill="black" stroke="black" points="849.347,-547.417 856.599,-555.141 855.747,-544.58 849.347,-547.417"/>
</g>
<!-- AS2914&#45;&gt;AS3491 -->
<g id="edge24" class="edge"><title>AS2914&#45;&gt;AS3491</title>
<path fill="none" stroke="black" d="M663.8,-687.722C695.227,-673.813 746.949,-649.836 789.249,-625 804.891,-615.816 821.521,-604.407 835.105,-594.618"/>
<polygon fill="black" stroke="black" points="837.534,-597.179 843.551,-588.458 833.409,-591.523 837.534,-597.179"/>
</g>
<!-- AS174&#45;&gt;AS6762 -->
<g id="edge28" class="edge"><title>AS174&#45;&gt;AS6762</title>
<path fill="none" stroke="black" d="M667.775,-586.555C678.496,-584.757 690.64,-582.721 702.196,-580.783"/>
<polygon fill="black" stroke="black" points="702.866,-584.219 712.15,-579.113 701.708,-577.316 702.866,-584.219"/>
</g>
<!-- AS6461 -->
<g id="node20" class="node"><title>AS6461</title>
<g id="a_node20"><a xlink:href="/asn/6461" xlink:title="AS6461 ~ Zayo Bandwidth [US]">
<ellipse fill="#ffffff" stroke="black" cx="634.31" cy="-754" rx="39.7935" ry="18"/>
<text text-anchor="middle" x="634.31" y="-750.3" font-family="Times,serif" font-size="14.00" fill="#2c94b3">AS6461</text>
</a>
</g>
</g>
<!-- AS8218&#45;&gt;AS6461 -->
<g id="edge29" class="edge"><title>AS8218&#45;&gt;AS6461</title>
<path fill="none" stroke="black" stroke-width="2" d="M558.373,-748.047C566.862,-748.721 575.966,-749.445 584.8,-750.146"/>
<polygon fill="black" stroke="black" stroke-width="2" points="584.748,-753.653 594.993,-750.956 585.302,-746.675 584.748,-753.653"/>
</g>
<!-- AS3320&#45;&gt;AS2497 -->
<g id="edge33" class="edge"><title>AS3320&#45;&gt;AS2497</title>
<path fill="none" stroke="black" d="M538.367,-193.081C569.41,-168.144 632.91,-125.967 673.956,-159 722.894,-198.384 741.523,-397.594 746.84,-471.954"/>
<polygon fill="black" stroke="black" points="743.351,-472.25 747.529,-481.986 750.335,-471.769 743.351,-472.25"/>
</g>
<!-- AS3320&#45;&gt;AS1239 -->
<g id="edge32" class="edge"><title>AS3320&#45;&gt;AS1239</title>
<path fill="none" stroke="black" stroke-width="2" d="M555.552,-201.786C565.781,-199.709 577.082,-197.415 587.824,-195.234"/>
<polygon fill="black" stroke="black" stroke-width="2" points="588.796,-198.608 597.9,-193.189 587.404,-191.748 588.796,-198.608"/>
</g>
<!-- AS3320&#45;&gt;AS6453 -->
<g id="edge31" class="edge"><title>AS3320&#45;&gt;AS6453</title>
<path fill="none" stroke="black" stroke-width="3" d="M533.824,-192.16C547.54,-176.679 570.036,-154.45 594.663,-143 673.383,-106.401 712.192,-86.018 789.249,-126 820.82,-142.381 841.858,-178.928 853.336,-204.504"/>
<polygon fill="black" stroke="black" stroke-width="3" points="850.26,-206.212 857.405,-214.036 856.698,-203.464 850.26,-206.212"/>
</g>
<!-- AS3320&#45;&gt;AS7018 -->
<g id="edge34" class="edge"><title>AS3320&#45;&gt;AS7018</title>
<path fill="none" stroke="black" d="M553.396,-218.133C564.818,-221.259 577.768,-224.802 589.867,-228.113"/>
<polygon fill="black" stroke="black" points="589.209,-231.561 599.778,-230.825 591.056,-224.81 589.209,-231.561"/>
</g>
<!-- AS701 -->
<g id="node21" class="node"><title>AS701</title>
<g id="a_node21"><a xlink:href="/asn/701" xlink:title="AS701 ~ UUNET [US]">
<ellipse fill="#ffffff" stroke="black" cx="634.31" cy="-18" rx="35.194" ry="18"/>
<text text-anchor="middle" x="634.31" y="-14.3" font-family="Times,serif" font-size="14.00" fill="#2c94b3">AS701</text>
</a>
</g>
</g>
<!-- AS3320&#45;&gt;AS701 -->
<g id="edge30" class="edge"><title>AS3320&#45;&gt;AS701</title>
<path fill="none" stroke="black" stroke-width="2" d="M525.588,-190.898C535.755,-159.828 559.555,-95.3233 594.663,-50 597.64,-46.1564 601.156,-42.4678 604.835,-39.0492"/>
<polygon fill="black" stroke="black" stroke-width="2" points="607.203,-41.6284 612.492,-32.4482 602.633,-36.3264 607.203,-41.6284"/>
</g>
<!-- AS6762&#45;&gt;AS6453 -->
<g id="edge41" class="edge"><title>AS6762&#45;&gt;AS6453</title>
<path fill="none" stroke="black" d="M767.295,-556.86C774.99,-548.584 783.639,-537.955 789.249,-527 835.658,-436.378 854.497,-315.012 860.974,-260.55"/>
<polygon fill="black" stroke="black" points="864.49,-260.61 862.142,-250.279 857.535,-259.819 864.49,-260.61"/>
</g>
<!-- AS6762&#45;&gt;AS3491 -->
<g id="edge40" class="edge"><title>AS6762&#45;&gt;AS3491</title>
<path fill="none" stroke="black" d="M789.275,-573C797.478,-573 806.242,-573 814.774,-573"/>
<polygon fill="black" stroke="black" points="815.013,-576.5 825.013,-573 815.013,-569.5 815.013,-576.5"/>
</g>
<!-- AS25255&#45;&gt;AS1764 -->
<g id="edge37" class="edge"><title>AS25255&#45;&gt;AS1764</title>
<path fill="none" stroke="black" stroke-width="3.75" d="M316.461,-447.327C330.89,-452.96 348.129,-459.689 363.391,-465.646"/>
<polygon fill="black" stroke="black" stroke-width="3.75" points="362.496,-469.054 373.085,-469.43 365.042,-462.534 362.496,-469.054"/>
</g>
<!-- AS25255&#45;&gt;AS8447 -->
<g id="edge38" class="edge"><title>AS25255&#45;&gt;AS8447</title>
<path fill="none" stroke="black" stroke-width="1.5" d="M316.461,-422.673C330.89,-417.04 348.129,-410.311 363.391,-404.354"/>
<polygon fill="black" stroke="black" stroke-width="1.5" points="365.042,-407.466 373.085,-400.57 362.496,-400.946 365.042,-407.466"/>
</g>
<!-- AS25255&#45;&gt;AS3320 -->
<g id="edge39" class="edge"><title>AS25255&#45;&gt;AS3320</title>
<path fill="none" stroke="black" stroke-width="4.5" d="M302.024,-418.382C342.964,-378.695 446.532,-278.297 493.811,-232.465"/>
<polygon fill="black" stroke="black" stroke-width="4.5" points="496.724,-235.125 501.163,-225.338 491.242,-229.471 496.724,-235.125"/>
</g>
<!-- AS25255&#45;&gt;AS6762 -->
<g id="edge36" class="edge"><title>AS25255&#45;&gt;AS6762</title>
<path fill="none" stroke="black" stroke-width="2.25" d="M288.995,-453.01C303.341,-511.205 357.094,-694.889 479.37,-772 552.6,-818.181 603.15,-830.817 673.956,-781 732.614,-739.73 745.409,-647.821 748.043,-601.235"/>
<polygon fill="black" stroke="black" stroke-width="2.25" points="751.54,-601.365 748.49,-591.219 744.547,-601.053 751.54,-601.365"/>
</g>
</g>
</svg>
