<?xml version="1.0" encoding="UTF-8" standalone="no"?>
<!DOCTYPE svg PUBLIC "-//W3C//DTD SVG 1.1//EN"
 "http://www.w3.org/Graphics/SVG/1.1/DTD/svg11.dtd">
<!-- Generated by graphviz version 2.38.0 (20140413.2041)
 -->
<!-- Title: AS47477 IPv4 Upstream Graph Pages: 1 -->
<svg width="806pt" height="797pt"
 viewBox="0.00 0.00 806.35 797.31" xmlns="http://www.w3.org/2000/svg" xmlns:xlink="http://www.w3.org/1999/xlink">
<g id="graph0" class="graph" transform="scale(1 1) rotate(0) translate(4 793.31)">
<title>AS47477 IPv4 Upstream Graph</title>
<polygon fill="white" stroke="none" points="-4,4 -4,-793.31 802.348,-793.31 802.348,4 -4,4"/>
<!-- AS47477 -->
<g id="node1" class="node"><title>AS47477</title>
<g id="a_node1"><a xlink:href="/asn/47477" xlink:title="AS47477 ~ REWEA&#45;AS [AT]">
<ellipse fill="#ffffff" stroke="black" cx="44.1961" cy="-279.31" rx="44.393" ry="18"/>
<text text-anchor="middle" x="44.1961" y="-275.61" font-family="Times,serif" font-size="14.00" fill="#880000">AS47477</text>
</a>
</g>
</g>
<!-- AS1764 -->
<g id="node2" class="node"><title>AS1764</title>
<g id="a_node2"><a xlink:href="/asn/1764" xlink:title="AS1764 ~ NEXTLAYER&#45;AS [AT]">
<ellipse fill="#ffffff" stroke="black" cx="403.724" cy="-409.31" rx="39.7935" ry="18"/>
<text text-anchor="middle" x="403.724" y="-405.61" font-family="Times,serif" font-size="14.00" fill="#2c94b3">AS1764</text>
</a>
</g>
</g>
<!-- AS47477&#45;&gt;AS1764 -->
<g id="edge1" class="edge"><title>AS47477&#45;&gt;AS1764</title>
<path fill="none" stroke="black" stroke-width="4.5" d="M77.8721,-291.191C143.563,-315.077 291.425,-368.841 362.749,-394.775"/>
<polygon fill="black" stroke="black" stroke-width="4.5" points="361.545,-398.527 372.289,-398.244 364.236,-391.126 361.545,-398.527"/>
</g>
<!-- AS8437 -->
<g id="node3" class="node"><title>AS8437</title>
<g id="a_node3"><a xlink:href="/asn/8437" xlink:title="AS8437 ~ Hutchison Drei Austria GmbH [AT]">
<ellipse fill="#ffffff" stroke="black" cx="164.039" cy="-233.31" rx="39.7935" ry="18"/>
<text text-anchor="middle" x="164.039" y="-229.61" font-family="Times,serif" font-size="14.00" fill="#2c94b3">AS8437</text>
</a>
</g>
</g>
<!-- AS47477&#45;&gt;AS8437 -->
<g id="edge2" class="edge"><title>AS47477&#45;&gt;AS8437</title>
<path fill="none" stroke="black" stroke-width="4" d="M76.7757,-266.983C91.2046,-261.351 108.444,-254.621 123.706,-248.664"/>
<polygon fill="black" stroke="black" stroke-width="4" points="125.357,-251.777 133.399,-244.88 122.811,-245.256 125.357,-251.777"/>
</g>
<!-- AS8447 -->
<g id="node4" class="node"><title>AS8447</title>
<g id="a_node4"><a xlink:href="/asn/8447" xlink:title="AS8447 ~ A1 Telekom Austria AG [AT]">
<ellipse fill="#ffffff" stroke="black" cx="403.724" cy="-279.31" rx="39.7935" ry="18"/>
<text text-anchor="middle" x="403.724" y="-275.61" font-family="Times,serif" font-size="14.00" fill="#2c94b3">AS8447</text>
</a>
</g>
</g>
<!-- AS47477&#45;&gt;AS8447 -->
<g id="edge3" class="edge"><title>AS47477&#45;&gt;AS8447</title>
<path fill="none" stroke="black" stroke-width="3.5" d="M88.6786,-279.31C155.588,-279.31 283.391,-279.31 353.569,-279.31"/>
<polygon fill="black" stroke="black" stroke-width="3.5" points="353.905,-282.81 363.905,-279.31 353.905,-275.81 353.905,-282.81"/>
</g>
<!-- AS3257 -->
<g id="node5" class="node"><title>AS3257</title>
<g id="a_node5"><a xlink:href="/asn/3257" xlink:title="AS3257 ~ GTT [DE]">
<ellipse fill="#ffffff" stroke="black" cx="638.859" cy="-663.31" rx="39.7935" ry="18"/>
<text text-anchor="middle" x="638.859" y="-659.61" font-family="Times,serif" font-size="14.00" fill="#2c94b3">AS3257</text>
</a>
</g>
</g>
<!-- AS1764&#45;&gt;AS3257 -->
<g id="edge4" class="edge"><title>AS1764&#45;&gt;AS3257</title>
<path fill="none" stroke="black" stroke-width="3.6" d="M417.374,-426.521C446.308,-465.286 520.548,-561.427 594.663,-630.31 599.003,-634.344 603.812,-638.384 608.6,-642.184"/>
<polygon fill="black" stroke="black" stroke-width="3.6" points="606.492,-644.978 616.549,-648.311 610.765,-639.434 606.492,-644.978"/>
</g>
<!-- AS3320 -->
<g id="node6" class="node"><title>AS3320</title>
<g id="a_node6"><a xlink:href="/asn/3320" xlink:title="AS3320 ~ DTAG [DE]">
<ellipse fill="#ffffff" stroke="black" cx="519.017" cy="-225.31" rx="39.7935" ry="18"/>
<text text-anchor="middle" x="519.017" y="-221.61" font-family="Times,serif" font-size="14.00" fill="#2c94b3">AS3320</text>
</a>
</g>
</g>
<!-- AS1764&#45;&gt;AS3320 -->
<g id="edge5" class="edge"><title>AS1764&#45;&gt;AS3320</title>
<path fill="none" stroke="black" stroke-width="2.7" d="M409.967,-391.13C419.639,-359.989 442.713,-295.62 479.37,-252.31 481.304,-250.026 483.473,-247.844 485.772,-245.78"/>
<polygon fill="black" stroke="black" stroke-width="2.7" points="488.309,-248.232 493.929,-239.25 483.935,-242.767 488.309,-248.232"/>
</g>
<!-- AS3356 -->
<g id="node7" class="node"><title>AS3356</title>
<g id="a_node7"><a xlink:href="/asn/3356" xlink:title="AS3356 ~ Level 3 Parent, LLC [US]">
<ellipse fill="#ffffff" stroke="black" cx="519.017" cy="-409.31" rx="39.7935" ry="18"/>
<text text-anchor="middle" x="519.017" y="-405.61" font-family="Times,serif" font-size="14.00" fill="#2c94b3">AS3356</text>
</a>
</g>
</g>
<!-- AS1764&#45;&gt;AS3356 -->
<g id="edge6" class="edge"><title>AS1764&#45;&gt;AS3356</title>
<path fill="none" stroke="black" stroke-width="4.5" d="M443.396,-409.31C451.599,-409.31 460.363,-409.31 468.895,-409.31"/>
<polygon fill="black" stroke="black" stroke-width="4.5" points="469.134,-413.248 479.134,-409.31 469.134,-405.373 469.134,-413.248"/>
</g>
<!-- AS2914 -->
<g id="node8" class="node"><title>AS2914</title>
<g id="a_node8"><a xlink:href="/asn/2914" xlink:title="AS2914 ~ NTT America, Inc. [US]">
<ellipse fill="#ffffff" stroke="black" cx="638.859" cy="-717.31" rx="39.7935" ry="18"/>
<text text-anchor="middle" x="638.859" y="-713.61" font-family="Times,serif" font-size="14.00" fill="#2c94b3">AS2914</text>
</a>
</g>
</g>
<!-- AS1764&#45;&gt;AS2914 -->
<g id="edge7" class="edge"><title>AS1764&#45;&gt;AS2914</title>
<path fill="none" stroke="black" stroke-width="2.7" d="M411.475,-427.285C423.044,-456.973 448.43,-517.52 479.37,-563.31 522.052,-626.476 536.168,-641.423 594.663,-690.31 597.706,-692.853 601.009,-695.334 604.386,-697.696"/>
<polygon fill="black" stroke="black" stroke-width="2.7" points="602.562,-700.686 612.832,-703.291 606.428,-694.851 602.562,-700.686"/>
</g>
<!-- AS174 -->
<g id="node9" class="node"><title>AS174</title>
<g id="a_node9"><a xlink:href="/asn/174" xlink:title="AS174 ~ Cogent Communications [US]">
<ellipse fill="#ffffff" stroke="black" cx="638.859" cy="-571.31" rx="35.194" ry="18"/>
<text text-anchor="middle" x="638.859" y="-567.61" font-family="Times,serif" font-size="14.00" fill="#2c94b3">AS174</text>
</a>
</g>
</g>
<!-- AS1764&#45;&gt;AS174 -->
<g id="edge8" class="edge"><title>AS1764&#45;&gt;AS174</title>
<path fill="none" stroke="black" stroke-width="2.7" d="M427.013,-423.896C457.285,-443.876 512.875,-481.178 558.663,-515.31 575.136,-527.589 577.922,-532.4 594.663,-544.31 598.413,-546.978 602.422,-549.676 606.432,-552.283"/>
<polygon fill="black" stroke="black" stroke-width="2.7" points="604.789,-555.386 615.107,-557.795 608.544,-549.478 604.789,-555.386"/>
</g>
<!-- AS1299 -->
<g id="node10" class="node"><title>AS1299</title>
<g id="a_node10"><a xlink:href="/asn/1299" xlink:title="AS1299 ~ Telia Carrier [EU]">
<ellipse fill="#ffffff" stroke="black" cx="519.017" cy="-279.31" rx="39.7935" ry="18"/>
<text text-anchor="middle" x="519.017" y="-275.61" font-family="Times,serif" font-size="14.00" fill="#2c94b3">AS1299</text>
</a>
</g>
</g>
<!-- AS1764&#45;&gt;AS1299 -->
<g id="edge9" class="edge"><title>AS1764&#45;&gt;AS1299</title>
<path fill="none" stroke="black" stroke-width="2.7" d="M419.303,-392.581C439.017,-369.96 474.305,-329.468 496.915,-303.524"/>
<polygon fill="black" stroke="black" stroke-width="2.7" points="499.562,-305.813 503.494,-295.975 494.285,-301.214 499.562,-305.813"/>
</g>
<!-- AS8218 -->
<g id="node11" class="node"><title>AS8218</title>
<g id="a_node11"><a xlink:href="/asn/8218" xlink:title="AS8218 ~ legacy Neotelecoms [FR]">
<ellipse fill="#ffffff" stroke="black" cx="519.017" cy="-758.31" rx="39.7935" ry="18"/>
<text text-anchor="middle" x="519.017" y="-754.61" font-family="Times,serif" font-size="14.00" fill="#2c94b3">AS8218</text>
</a>
</g>
</g>
<!-- AS1764&#45;&gt;AS8218 -->
<g id="edge10" class="edge"><title>AS1764&#45;&gt;AS8218</title>
<path fill="none" stroke="black" stroke-width="1.8" d="M410.498,-427.097C428.983,-484.042 486.798,-662.14 509.109,-730.87"/>
<polygon fill="black" stroke="black" stroke-width="1.8" points="505.838,-732.128 512.254,-740.559 512.496,-729.967 505.838,-732.128"/>
</g>
<!-- AS25255 -->
<g id="node23" class="node"><title>AS25255</title>
<g id="a_node23"><a xlink:href="/asn/25255" xlink:title="AS25255 ~ ==&gt; TELE2 AUSTRIA &lt;== [AT]">
<ellipse fill="#ffffff" stroke="black" cx="283.881" cy="-233.31" rx="44.393" ry="18"/>
<text text-anchor="middle" x="283.881" y="-229.61" font-family="Times,serif" font-size="14.00" fill="#2c94b3">AS25255</text>
</a>
</g>
</g>
<!-- AS8437&#45;&gt;AS25255 -->
<g id="edge35" class="edge"><title>AS8437&#45;&gt;AS25255</title>
<path fill="none" stroke="black" stroke-width="4.5" d="M203.951,-233.31C212.054,-233.31 220.729,-233.31 229.255,-233.31"/>
<polygon fill="black" stroke="black" stroke-width="4.5" points="229.533,-237.248 239.533,-233.31 229.533,-229.373 229.533,-237.248"/>
</g>
<!-- AS8447&#45;&gt;AS3320 -->
<g id="edge44" class="edge"><title>AS8447&#45;&gt;AS3320</title>
<path fill="none" stroke="black" stroke-width="0.346154" d="M431.86,-266.376C446.854,-259.229 465.675,-250.258 481.898,-242.526"/>
<polygon fill="black" stroke="black" stroke-width="0.346154" points="483.581,-245.601 491.102,-238.139 480.569,-239.282 483.581,-245.601"/>
</g>
<!-- AS8447&#45;&gt;AS3356 -->
<g id="edge42" class="edge"><title>AS8447&#45;&gt;AS3356</title>
<path fill="none" stroke="black" stroke-width="4.5" d="M419.303,-296.039C439.017,-318.661 474.305,-359.152 496.915,-385.097"/>
<polygon fill="black" stroke="black" stroke-width="4.5" points="493.955,-387.693 503.494,-392.645 499.892,-382.519 493.955,-387.693"/>
</g>
<!-- AS8447&#45;&gt;AS1299 -->
<g id="edge43" class="edge"><title>AS8447&#45;&gt;AS1299</title>
<path fill="none" stroke="black" stroke-width="0.692308" d="M443.396,-279.31C451.599,-279.31 460.363,-279.31 468.895,-279.31"/>
<polygon fill="black" stroke="black" stroke-width="0.692308" points="469.134,-282.81 479.134,-279.31 469.134,-275.81 469.134,-282.81"/>
</g>
<!-- AS2497 -->
<g id="node12" class="node"><title>AS2497</title>
<g id="a_node12"><a xlink:href="/asn/2497" xlink:title="AS2497 ~ Internet Initiative Japan Inc. [JP]">
<ellipse fill="#ffffff" stroke="black" cx="758.702" cy="-640.31" rx="39.7935" ry="18"/>
<text text-anchor="middle" x="758.702" y="-636.61" font-family="Times,serif" font-size="14.00" fill="#2c94b3">AS2497</text>
</a>
</g>
</g>
<!-- AS3257&#45;&gt;AS2497 -->
<g id="edge33" class="edge"><title>AS3257&#45;&gt;AS2497</title>
<path fill="none" stroke="black" d="M675.536,-656.347C686.967,-654.116 699.789,-651.613 711.843,-649.261"/>
<polygon fill="black" stroke="black" points="712.596,-652.68 721.74,-647.329 711.255,-645.81 712.596,-652.68"/>
</g>
<!-- AS3491 -->
<g id="node16" class="node"><title>AS3491</title>
<g id="a_node16"><a xlink:href="/asn/3491" xlink:title="AS3491 ~ PCCW Global, Inc. [US]">
<ellipse fill="#ffffff" stroke="black" cx="758.702" cy="-363.31" rx="39.7935" ry="18"/>
<text text-anchor="middle" x="758.702" y="-359.61" font-family="Times,serif" font-size="14.00" fill="#2c94b3">AS3491</text>
</a>
</g>
</g>
<!-- AS3257&#45;&gt;AS3491 -->
<g id="edge34" class="edge"><title>AS3257&#45;&gt;AS3491</title>
<path fill="none" stroke="black" d="M652.98,-646.442C662.357,-633.761 674.738,-615.659 683.055,-598.31 717.235,-527.018 740.95,-436.276 751.509,-391.257"/>
<polygon fill="black" stroke="black" points="754.958,-391.875 753.794,-381.345 748.137,-390.303 754.958,-391.875"/>
</g>
<!-- AS3320&#45;&gt;AS2497 -->
<g id="edge29" class="edge"><title>AS3320&#45;&gt;AS2497</title>
<path fill="none" stroke="black" d="M543.586,-211.084C578.315,-192.164 643.395,-164.786 683.055,-198.31 691.085,-205.098 738.779,-515.581 753.426,-612.033"/>
<polygon fill="black" stroke="black" points="750.008,-612.839 754.968,-622.201 756.929,-611.789 750.008,-612.839"/>
</g>
<!-- AS6453 -->
<g id="node13" class="node"><title>AS6453</title>
<g id="a_node13"><a xlink:href="/asn/6453" xlink:title="AS6453 ~ TATA COMMUNICATIONS (AMERICA) INC [US]">
<ellipse fill="#ffffff" stroke="black" cx="758.702" cy="-41.3102" rx="39.7935" ry="18"/>
<text text-anchor="middle" x="758.702" y="-37.6102" font-family="Times,serif" font-size="14.00" fill="#2c94b3">AS6453</text>
</a>
</g>
</g>
<!-- AS3320&#45;&gt;AS6453 -->
<g id="edge30" class="edge"><title>AS3320&#45;&gt;AS6453</title>
<path fill="none" stroke="black" stroke-width="2" d="M520.024,-207.154C521.148,-164.798 530.571,-59.6204 594.663,-14.3102 633.051,12.8285 689.092,-5.83557 724.461,-22.787"/>
<polygon fill="black" stroke="black" stroke-width="2" points="722.909,-25.9243 733.42,-27.2565 726.034,-19.6605 722.909,-25.9243"/>
</g>
<!-- AS1239 -->
<g id="node18" class="node"><title>AS1239</title>
<g id="a_node18"><a xlink:href="/asn/1239" xlink:title="AS1239 ~ Sprint [US]">
<ellipse fill="#ffffff" stroke="black" cx="638.859" cy="-225.31" rx="39.7935" ry="18"/>
<text text-anchor="middle" x="638.859" y="-221.61" font-family="Times,serif" font-size="14.00" fill="#2c94b3">AS1239</text>
</a>
</g>
</g>
<!-- AS3320&#45;&gt;AS1239 -->
<g id="edge26" class="edge"><title>AS3320&#45;&gt;AS1239</title>
<path fill="none" stroke="black" stroke-width="2" d="M558.929,-225.31C568.483,-225.31 578.832,-225.31 588.795,-225.31"/>
<polygon fill="black" stroke="black" stroke-width="2" points="588.988,-228.81 598.987,-225.31 588.987,-221.81 588.988,-228.81"/>
</g>
<!-- AS7018 -->
<g id="node19" class="node"><title>AS7018</title>
<g id="a_node19"><a xlink:href="/asn/7018" xlink:title="AS7018 ~ AT&amp;T Services, Inc. [US]">
<ellipse fill="#ffffff" stroke="black" cx="638.859" cy="-279.31" rx="39.7935" ry="18"/>
<text text-anchor="middle" x="638.859" y="-275.61" font-family="Times,serif" font-size="14.00" fill="#2c94b3">AS7018</text>
</a>
</g>
</g>
<!-- AS3320&#45;&gt;AS7018 -->
<g id="edge28" class="edge"><title>AS3320&#45;&gt;AS7018</title>
<path fill="none" stroke="black" d="M547.646,-237.971C563.603,-245.283 583.873,-254.572 601.156,-262.491"/>
<polygon fill="black" stroke="black" points="599.854,-265.745 610.404,-266.729 602.771,-259.381 599.854,-265.745"/>
</g>
<!-- AS701 -->
<g id="node21" class="node"><title>AS701</title>
<g id="a_node21"><a xlink:href="/asn/701" xlink:title="AS701 ~ UUNET [US]">
<ellipse fill="#ffffff" stroke="black" cx="638.859" cy="-95.3102" rx="35.194" ry="18"/>
<text text-anchor="middle" x="638.859" y="-91.6102" font-family="Times,serif" font-size="14.00" fill="#2c94b3">AS701</text>
</a>
</g>
</g>
<!-- AS3320&#45;&gt;AS701 -->
<g id="edge27" class="edge"><title>AS3320&#45;&gt;AS701</title>
<path fill="none" stroke="black" stroke-width="2" d="M531.106,-207.844C544.645,-187.274 568.935,-152.697 594.663,-127.31 598.732,-123.295 603.327,-119.37 607.963,-115.72"/>
<polygon fill="black" stroke="black" stroke-width="2" points="610.358,-118.298 616.247,-109.491 606.151,-112.704 610.358,-118.298"/>
</g>
<!-- AS3356&#45;&gt;AS3257 -->
<g id="edge18" class="edge"><title>AS3356&#45;&gt;AS3257</title>
<path fill="none" stroke="black" d="M526.849,-427.221C534.79,-448.222 548.147,-484.128 558.663,-515.31 575.914,-566.461 563.427,-587.284 594.663,-631.31 597.691,-635.578 601.464,-639.51 605.511,-643.051"/>
<polygon fill="black" stroke="black" points="603.488,-645.913 613.507,-649.36 607.824,-640.418 603.488,-645.913"/>
</g>
<!-- AS3356&#45;&gt;AS2914 -->
<g id="edge16" class="edge"><title>AS3356&#45;&gt;AS2914</title>
<path fill="none" stroke="black" d="M523.058,-427.545C532.548,-482.805 562.886,-647.263 594.663,-690.31 596.895,-693.334 599.577,-696.098 602.497,-698.605"/>
<polygon fill="black" stroke="black" points="600.523,-701.498 610.64,-704.644 604.692,-695.876 600.523,-701.498"/>
</g>
<!-- AS3356&#45;&gt;AS174 -->
<g id="edge21" class="edge"><title>AS3356&#45;&gt;AS174</title>
<path fill="none" stroke="black" d="M536.917,-425.777C544.293,-433.614 552.618,-443.421 558.663,-453.31 581.349,-490.419 566.829,-510.888 594.663,-544.31 597.401,-547.598 600.647,-550.607 604.11,-553.325"/>
<polygon fill="black" stroke="black" points="602.245,-556.292 612.452,-559.136 606.247,-550.548 602.245,-556.292"/>
</g>
<!-- AS3356&#45;&gt;AS2497 -->
<g id="edge11" class="edge"><title>AS3356&#45;&gt;AS2497</title>
<path fill="none" stroke="black" stroke-width="2" d="M526.544,-427.1C543.453,-473.003 587.837,-592.282 594.663,-598.31 625.971,-625.957 673.125,-635.826 708.681,-639.149"/>
<polygon fill="black" stroke="black" stroke-width="2" points="708.6,-642.654 718.845,-639.953 709.152,-635.676 708.6,-642.654"/>
</g>
<!-- AS3356&#45;&gt;AS6453 -->
<g id="edge12" class="edge"><title>AS3356&#45;&gt;AS6453</title>
<path fill="none" stroke="black" d="M543.559,-395.051C587.543,-368.326 678.213,-312.801 683.055,-306.31 737.756,-232.989 752.389,-121.186 756.29,-69.4204"/>
<polygon fill="black" stroke="black" points="759.791,-69.5334 756.971,-59.3208 752.806,-69.0629 759.791,-69.5334"/>
</g>
<!-- AS6762 -->
<g id="node14" class="node"><title>AS6762</title>
<g id="a_node14"><a xlink:href="/asn/6762" xlink:title="AS6762 ~ TELECOM ITALIA SPARKLE S.p.A. [IT]">
<ellipse fill="#ffffff" stroke="black" cx="638.859" cy="-41.3102" rx="39.7935" ry="18"/>
<text text-anchor="middle" x="638.859" y="-37.6102" font-family="Times,serif" font-size="14.00" fill="#2c94b3">AS6762</text>
</a>
</g>
</g>
<!-- AS3356&#45;&gt;AS6762 -->
<g id="edge13" class="edge"><title>AS3356&#45;&gt;AS6762</title>
<path fill="none" stroke="black" d="M528.028,-391.447C536.8,-371.193 550.68,-336.993 558.663,-306.31 585.601,-202.776 535.933,-157.729 594.663,-68.3102 596.557,-65.4273 598.876,-62.7962 601.447,-60.407"/>
<polygon fill="black" stroke="black" points="603.997,-62.8574 609.742,-53.9555 599.7,-57.3318 603.997,-62.8574"/>
</g>
<!-- AS3549 -->
<g id="node15" class="node"><title>AS3549</title>
<g id="a_node15"><a xlink:href="/asn/3549" xlink:title="AS3549 ~ Level 3 Parent, LLC [US]">
<ellipse fill="#ffffff" stroke="black" cx="638.859" cy="-409.31" rx="39.7935" ry="18"/>
<text text-anchor="middle" x="638.859" y="-405.61" font-family="Times,serif" font-size="14.00" fill="#2c94b3">AS3549</text>
</a>
</g>
</g>
<!-- AS3356&#45;&gt;AS3549 -->
<g id="edge14" class="edge"><title>AS3356&#45;&gt;AS3549</title>
<path fill="none" stroke="black" stroke-width="3" d="M558.929,-409.31C568.483,-409.31 578.832,-409.31 588.795,-409.31"/>
<polygon fill="black" stroke="black" stroke-width="3" points="588.988,-412.81 598.987,-409.31 588.987,-405.81 588.988,-412.81"/>
</g>
<!-- AS3356&#45;&gt;AS3491 -->
<g id="edge15" class="edge"><title>AS3356&#45;&gt;AS3491</title>
<path fill="none" stroke="black" d="M548.613,-397.209C562.318,-391.866 579.104,-385.979 594.663,-382.31 632.455,-373.4 676.204,-368.592 708.863,-366.044"/>
<polygon fill="black" stroke="black" points="709.339,-369.519 719.055,-365.294 708.825,-362.537 709.339,-369.519"/>
</g>
<!-- AS209 -->
<g id="node17" class="node"><title>AS209</title>
<g id="a_node17"><a xlink:href="/asn/209" xlink:title="AS209 ~ CenturyLink Communications, LLC [US]">
<ellipse fill="#ffffff" stroke="black" cx="638.859" cy="-463.31" rx="35.194" ry="18"/>
<text text-anchor="middle" x="638.859" y="-459.61" font-family="Times,serif" font-size="14.00" fill="#2c94b3">AS209</text>
</a>
</g>
</g>
<!-- AS3356&#45;&gt;AS209 -->
<g id="edge17" class="edge"><title>AS3356&#45;&gt;AS209</title>
<path fill="none" stroke="black" d="M547.646,-421.971C564.062,-429.493 585.043,-439.108 602.64,-447.171"/>
<polygon fill="black" stroke="black" points="601.469,-450.484 612.018,-451.468 604.385,-444.121 601.469,-450.484"/>
</g>
<!-- AS3356&#45;&gt;AS1239 -->
<g id="edge19" class="edge"><title>AS3356&#45;&gt;AS1239</title>
<path fill="none" stroke="black" d="M527.042,-391.397C541.512,-355.101 574.933,-274.446 594.663,-252.31 597.164,-249.504 600.025,-246.886 603.058,-244.47"/>
<polygon fill="black" stroke="black" points="605.242,-247.211 611.357,-238.559 601.181,-241.51 605.242,-247.211"/>
</g>
<!-- AS3356&#45;&gt;AS7018 -->
<g id="edge20" class="edge"><title>AS3356&#45;&gt;AS7018</title>
<path fill="none" stroke="black" d="M531.106,-391.844C544.645,-371.274 568.935,-336.697 594.663,-311.31 598.469,-307.555 602.734,-303.879 607.062,-300.433"/>
<polygon fill="black" stroke="black" points="609.512,-302.967 615.36,-294.133 605.279,-297.392 609.512,-302.967"/>
</g>
<!-- AS12956 -->
<g id="node20" class="node"><title>AS12956</title>
<g id="a_node20"><a xlink:href="/asn/12956" xlink:title="AS12956 ~ TELXIUS [ES]">
<ellipse fill="#ffffff" stroke="black" cx="638.859" cy="-517.31" rx="44.393" ry="18"/>
<text text-anchor="middle" x="638.859" y="-513.61" font-family="Times,serif" font-size="14.00" fill="#2c94b3">AS12956</text>
</a>
</g>
</g>
<!-- AS3356&#45;&gt;AS12956 -->
<g id="edge22" class="edge"><title>AS3356&#45;&gt;AS12956</title>
<path fill="none" stroke="black" d="M534.454,-426.002C552.318,-446.471 581.931,-479.75 594.663,-490.31 597.401,-492.581 600.345,-494.804 603.362,-496.94"/>
<polygon fill="black" stroke="black" points="601.694,-500.035 611.951,-502.689 605.588,-494.218 601.694,-500.035"/>
</g>
<!-- AS2914&#45;&gt;AS2497 -->
<g id="edge23" class="edge"><title>AS2914&#45;&gt;AS2497</title>
<path fill="none" stroke="black" d="M663.259,-702.871C669.7,-698.846 676.67,-694.443 683.055,-690.31 697.772,-680.786 713.953,-669.988 727.477,-660.87"/>
<polygon fill="black" stroke="black" points="729.613,-663.651 735.938,-655.151 725.693,-657.851 729.613,-663.651"/>
</g>
<!-- AS174&#45;&gt;AS3491 -->
<g id="edge31" class="edge"><title>AS174&#45;&gt;AS3491</title>
<path fill="none" stroke="black" d="M665.211,-559.089C671.66,-555.072 678.146,-550.119 683.055,-544.31 721.862,-498.392 742.678,-429.524 751.838,-391.337"/>
<polygon fill="black" stroke="black" points="755.287,-391.955 754.118,-381.425 748.466,-390.386 755.287,-391.955"/>
</g>
<!-- AS1299&#45;&gt;AS3491 -->
<g id="edge25" class="edge"><title>AS1299&#45;&gt;AS3491</title>
<path fill="none" stroke="black" d="M543.611,-264.921C548.867,-261.162 554.198,-256.873 558.663,-252.31 578.836,-231.693 569.232,-211.921 594.663,-198.31 629.3,-179.773 650.044,-177.012 683.055,-198.31 730.146,-228.692 747.849,-296.755 754.259,-335.298"/>
<polygon fill="black" stroke="black" points="750.82,-335.97 755.782,-345.331 757.741,-334.919 750.82,-335.97"/>
</g>
<!-- AS1299&#45;&gt;AS7018 -->
<g id="edge24" class="edge"><title>AS1299&#45;&gt;AS7018</title>
<path fill="none" stroke="black" d="M558.929,-279.31C568.483,-279.31 578.832,-279.31 588.795,-279.31"/>
<polygon fill="black" stroke="black" points="588.988,-282.81 598.987,-279.31 588.987,-275.81 588.988,-282.81"/>
</g>
<!-- AS6461 -->
<g id="node22" class="node"><title>AS6461</title>
<g id="a_node22"><a xlink:href="/asn/6461" xlink:title="AS6461 ~ Zayo Bandwidth [US]">
<ellipse fill="#ffffff" stroke="black" cx="638.859" cy="-771.31" rx="39.7935" ry="18"/>
<text text-anchor="middle" x="638.859" y="-767.61" font-family="Times,serif" font-size="14.00" fill="#2c94b3">AS6461</text>
</a>
</g>
</g>
<!-- AS8218&#45;&gt;AS6461 -->
<g id="edge32" class="edge"><title>AS8218&#45;&gt;AS6461</title>
<path fill="none" stroke="black" stroke-width="2" d="M557.627,-762.459C567.938,-763.597 579.255,-764.845 590.056,-766.037"/>
<polygon fill="black" stroke="black" stroke-width="2" points="589.879,-769.538 600.202,-767.156 590.646,-762.58 589.879,-769.538"/>
</g>
<!-- AS6762&#45;&gt;AS6453 -->
<g id="edge41" class="edge"><title>AS6762&#45;&gt;AS6453</title>
<path fill="none" stroke="black" d="M678.772,-41.3102C688.325,-41.3102 698.675,-41.3102 708.638,-41.3102"/>
<polygon fill="black" stroke="black" points="708.83,-44.8103 718.83,-41.3102 708.83,-37.8103 708.83,-44.8103"/>
</g>
<!-- AS6762&#45;&gt;AS3491 -->
<g id="edge40" class="edge"><title>AS6762&#45;&gt;AS3491</title>
<path fill="none" stroke="black" d="M667.126,-53.9417C673.106,-57.8128 678.887,-62.5933 683.055,-68.3102 743.601,-151.351 755.234,-278.53 757.33,-334.817"/>
<polygon fill="black" stroke="black" points="753.84,-335.203 757.633,-345.095 760.836,-334.996 753.84,-335.203"/>
</g>
<!-- AS25255&#45;&gt;AS1764 -->
<g id="edge37" class="edge"><title>AS25255&#45;&gt;AS1764</title>
<path fill="none" stroke="black" stroke-width="3.75" d="M296.611,-250.829C317.488,-282.009 361.176,-347.258 385.48,-383.556"/>
<polygon fill="black" stroke="black" stroke-width="3.75" points="382.743,-385.759 391.215,-392.122 388.56,-381.865 382.743,-385.759"/>
</g>
<!-- AS25255&#45;&gt;AS8447 -->
<g id="edge39" class="edge"><title>AS25255&#45;&gt;AS8447</title>
<path fill="none" stroke="black" stroke-width="1.5" d="M316.461,-245.637C330.89,-251.27 348.129,-257.999 363.391,-263.956"/>
<polygon fill="black" stroke="black" stroke-width="1.5" points="362.496,-267.365 373.085,-267.74 365.042,-260.844 362.496,-267.365"/>
</g>
<!-- AS25255&#45;&gt;AS3320 -->
<g id="edge38" class="edge"><title>AS25255&#45;&gt;AS3320</title>
<path fill="none" stroke="black" stroke-width="4.5" d="M328.186,-231.824C368.124,-230.454 427.359,-228.421 469.014,-226.992"/>
<polygon fill="black" stroke="black" stroke-width="4.5" points="469.344,-230.92 479.203,-226.642 469.074,-223.05 469.344,-230.92"/>
</g>
<!-- AS25255&#45;&gt;AS6762 -->
<g id="edge36" class="edge"><title>AS25255&#45;&gt;AS6762</title>
<path fill="none" stroke="black" stroke-width="2.25" d="M311.124,-219.036C374.121,-184.769 533.866,-97.8766 603.984,-59.7365"/>
<polygon fill="black" stroke="black" stroke-width="2.25" points="605.757,-62.7562 612.869,-54.9033 602.412,-56.607 605.757,-62.7562"/>
</g>
</g>
</svg>
