<?xml version="1.0" encoding="UTF-8" standalone="no"?>
<!DOCTYPE svg PUBLIC "-//W3C//DTD SVG 1.1//EN"
 "http://www.w3.org/Graphics/SVG/1.1/DTD/svg11.dtd">
<!-- Generated by graphviz version 2.38.0 (20140413.2041)
 -->
<!-- Title: AS47477 Combined Upstream Graph Pages: 1 -->
<svg width="797pt" height="812pt"
 viewBox="0.00 0.00 797.25 811.63" xmlns="http://www.w3.org/2000/svg" xmlns:xlink="http://www.w3.org/1999/xlink">
<g id="graph0" class="graph" transform="scale(1 1) rotate(0) translate(4 807.629)">
<title>AS47477 Combined Upstream Graph</title>
<polygon fill="white" stroke="none" points="-4,4 -4,-807.629 793.249,-807.629 793.249,4 -4,4"/>
<!-- AS47477 -->
<g id="node1" class="node"><title>AS47477</title>
<g id="a_node1"><a xlink:href="/asn/47477" xlink:title="AS47477 ~ REWEA&#45;AS [AT]">
<ellipse fill="#ffffff" stroke="black" cx="44.1961" cy="-479" rx="44.393" ry="18"/>
<text text-anchor="middle" x="44.1961" y="-475.3" font-family="Times,serif" font-size="14.00" fill="#880000">AS47477</text>
</a>
</g>
</g>
<!-- AS1764 -->
<g id="node2" class="node"><title>AS1764</title>
<g id="a_node2"><a xlink:href="/asn/1764" xlink:title="AS1764 ~ NEXTLAYER&#45;AS [AT]">
<ellipse fill="#ffffff" stroke="black" cx="403.724" cy="-433" rx="39.7935" ry="18"/>
<text text-anchor="middle" x="403.724" y="-429.3" font-family="Times,serif" font-size="14.00" fill="#2c94b3">AS1764</text>
</a>
</g>
</g>
<!-- AS47477&#45;&gt;AS1764 -->
<g id="edge1" class="edge"><title>AS47477&#45;&gt;AS1764</title>
<path fill="none" stroke="black" stroke-width="3.375" d="M75.9008,-466.446C90.3694,-461.075 108.014,-455.292 124.392,-452 203.573,-436.084 297.695,-432.841 353.697,-432.514"/>
<polygon fill="black" stroke="black" stroke-width="3.375" points="354.046,-436.014 364.036,-432.485 354.026,-429.014 354.046,-436.014"/>
</g>
<!-- AS8437 -->
<g id="node3" class="node"><title>AS8437</title>
<g id="a_node3"><a xlink:href="/asn/8437" xlink:title="AS8437 ~ Hutchison Drei Austria GmbH [AT]">
<ellipse fill="#ffffff" stroke="black" cx="164.039" cy="-479" rx="39.7935" ry="18"/>
<text text-anchor="middle" x="164.039" y="-475.3" font-family="Times,serif" font-size="14.00" fill="#2c94b3">AS8437</text>
</a>
</g>
</g>
<!-- AS47477&#45;&gt;AS8437 -->
<g id="edge2" class="edge"><title>AS47477&#45;&gt;AS8437</title>
<path fill="none" stroke="black" stroke-width="3.9375" d="M88.4072,-479C96.7198,-479 105.482,-479 113.965,-479"/>
<polygon fill="black" stroke="black" stroke-width="3.9375" points="114.123,-482.5 124.123,-479 114.123,-475.5 114.123,-482.5"/>
</g>
<!-- AS8447 -->
<g id="node4" class="node"><title>AS8447</title>
<g id="a_node4"><a xlink:href="/asn/8447" xlink:title="AS8447 ~ A1 Telekom Austria AG [AT]">
<ellipse fill="#ffffff" stroke="black" cx="403.724" cy="-525" rx="39.7935" ry="18"/>
<text text-anchor="middle" x="403.724" y="-521.3" font-family="Times,serif" font-size="14.00" fill="#2c94b3">AS8447</text>
</a>
</g>
</g>
<!-- AS47477&#45;&gt;AS8447 -->
<g id="edge3" class="edge"><title>AS47477&#45;&gt;AS8447</title>
<path fill="none" stroke="black" stroke-width="4.5" d="M75.9008,-491.554C90.3694,-496.925 108.014,-502.708 124.392,-506 203.573,-521.916 297.695,-525.159 353.697,-525.486"/>
<polygon fill="black" stroke="black" stroke-width="4.5" points="354.025,-529.424 364.036,-525.515 354.047,-521.549 354.025,-529.424"/>
</g>
<!-- AS2914 -->
<g id="node5" class="node"><title>AS2914</title>
<g id="a_node5"><a xlink:href="/asn/2914" xlink:title="AS2914 ~ NTT America, Inc. [US]">
<ellipse fill="#ffffff" stroke="black" cx="634.31" cy="-618" rx="39.7935" ry="18"/>
<text text-anchor="middle" x="634.31" y="-614.3" font-family="Times,serif" font-size="14.00" fill="#2c94b3">AS2914</text>
</a>
</g>
</g>
<!-- AS1764&#45;&gt;AS2914 -->
<g id="edge4" class="edge"><title>AS1764&#45;&gt;AS2914</title>
<path fill="none" stroke="black" stroke-width="2.57143" d="M415.249,-450.379C434.743,-482.481 474.9,-548.175 479.37,-552 511.206,-579.242 555.974,-596.727 589.03,-606.808"/>
<polygon fill="black" stroke="black" stroke-width="2.57143" points="588.304,-610.242 598.885,-609.701 590.276,-603.526 588.304,-610.242"/>
</g>
<!-- AS3356 -->
<g id="node6" class="node"><title>AS3356</title>
<g id="a_node6"><a xlink:href="/asn/3356" xlink:title="AS3356 ~ Level 3 Parent, LLC [US]">
<ellipse fill="#ffffff" stroke="black" cx="519.017" cy="-433" rx="39.7935" ry="18"/>
<text text-anchor="middle" x="519.017" y="-429.3" font-family="Times,serif" font-size="14.00" fill="#2c94b3">AS3356</text>
</a>
</g>
</g>
<!-- AS1764&#45;&gt;AS3356 -->
<g id="edge5" class="edge"><title>AS1764&#45;&gt;AS3356</title>
<path fill="none" stroke="black" stroke-width="4.5" d="M443.396,-433C451.599,-433 460.363,-433 468.895,-433"/>
<polygon fill="black" stroke="black" stroke-width="4.5" points="469.134,-436.938 479.134,-433 469.134,-429.063 469.134,-436.938"/>
</g>
<!-- AS3257 -->
<g id="node7" class="node"><title>AS3257</title>
<g id="a_node7"><a xlink:href="/asn/3257" xlink:title="AS3257 ~ GTT [DE]">
<ellipse fill="#ffffff" stroke="black" cx="634.31" cy="-310" rx="39.7935" ry="18"/>
<text text-anchor="middle" x="634.31" y="-306.3" font-family="Times,serif" font-size="14.00" fill="#2c94b3">AS3257</text>
</a>
</g>
</g>
<!-- AS1764&#45;&gt;AS3257 -->
<g id="edge6" class="edge"><title>AS1764&#45;&gt;AS3257</title>
<path fill="none" stroke="black" stroke-width="2.57143" d="M430.06,-419.367C471.167,-397.248 552.452,-353.509 598.802,-328.568"/>
<polygon fill="black" stroke="black" stroke-width="2.57143" points="600.713,-331.515 607.86,-323.694 597.396,-325.351 600.713,-331.515"/>
</g>
<!-- AS3320 -->
<g id="node8" class="node"><title>AS3320</title>
<g id="a_node8"><a xlink:href="/asn/3320" xlink:title="AS3320 ~ DTAG [DE]">
<ellipse fill="#ffffff" stroke="black" cx="519.017" cy="-218" rx="39.7935" ry="18"/>
<text text-anchor="middle" x="519.017" y="-214.3" font-family="Times,serif" font-size="14.00" fill="#2c94b3">AS3320</text>
</a>
</g>
</g>
<!-- AS1764&#45;&gt;AS3320 -->
<g id="edge7" class="edge"><title>AS1764&#45;&gt;AS3320</title>
<path fill="none" stroke="black" stroke-width="1.92857" d="M413.995,-415.406C433.836,-377.752 480.514,-289.17 504.001,-244.599"/>
<polygon fill="black" stroke="black" stroke-width="1.92857" points="507.211,-246.014 508.776,-235.536 501.018,-242.751 507.211,-246.014"/>
</g>
<!-- AS1299 -->
<g id="node9" class="node"><title>AS1299</title>
<g id="a_node9"><a xlink:href="/asn/1299" xlink:title="AS1299 ~ Telia Carrier [EU]">
<ellipse fill="#ffffff" stroke="black" cx="519.017" cy="-525" rx="39.7935" ry="18"/>
<text text-anchor="middle" x="519.017" y="-521.3" font-family="Times,serif" font-size="14.00" fill="#2c94b3">AS1299</text>
</a>
</g>
</g>
<!-- AS1764&#45;&gt;AS1299 -->
<g id="edge8" class="edge"><title>AS1764&#45;&gt;AS1299</title>
<path fill="none" stroke="black" stroke-width="2.57143" d="M423.942,-448.607C442.334,-463.542 470.254,-486.214 490.904,-502.983"/>
<polygon fill="black" stroke="black" stroke-width="2.57143" points="488.735,-505.73 498.704,-509.317 493.147,-500.296 488.735,-505.73"/>
</g>
<!-- AS174 -->
<g id="node10" class="node"><title>AS174</title>
<g id="a_node10"><a xlink:href="/asn/174" xlink:title="AS174 ~ Cogent Communications [US]">
<ellipse fill="#ffffff" stroke="black" cx="634.31" cy="-564" rx="35.194" ry="18"/>
<text text-anchor="middle" x="634.31" y="-560.3" font-family="Times,serif" font-size="14.00" fill="#2c94b3">AS174</text>
</a>
</g>
</g>
<!-- AS1764&#45;&gt;AS174 -->
<g id="edge9" class="edge"><title>AS1764&#45;&gt;AS174</title>
<path fill="none" stroke="black" stroke-width="1.28571" d="M434.821,-444.238C473.275,-458.847 537.405,-484.127 558.663,-498 577.094,-510.027 578.179,-517.419 594.663,-532 598.56,-535.447 602.741,-539.027 606.863,-542.49"/>
<polygon fill="black" stroke="black" stroke-width="1.28571" points="604.697,-545.241 614.625,-548.941 609.171,-539.858 604.697,-545.241"/>
</g>
<!-- AS8218 -->
<g id="node11" class="node"><title>AS8218</title>
<g id="a_node11"><a xlink:href="/asn/8218" xlink:title="AS8218 ~ legacy Neotelecoms [FR]">
<ellipse fill="#ffffff" stroke="black" cx="519.017" cy="-91" rx="39.7935" ry="18"/>
<text text-anchor="middle" x="519.017" y="-87.3" font-family="Times,serif" font-size="14.00" fill="#2c94b3">AS8218</text>
</a>
</g>
</g>
<!-- AS1764&#45;&gt;AS8218 -->
<g id="edge10" class="edge"><title>AS1764&#45;&gt;AS8218</title>
<path fill="none" stroke="black" stroke-width="1.92857" d="M409.825,-414.949C421.345,-374.546 450.616,-273.868 479.37,-191 487.983,-166.18 498.847,-138.329 506.861,-118.334"/>
<polygon fill="black" stroke="black" stroke-width="1.92857" points="510.161,-119.509 510.655,-108.926 503.669,-116.892 510.161,-119.509"/>
</g>
<!-- AS25255 -->
<g id="node22" class="node"><title>AS25255</title>
<g id="a_node22"><a xlink:href="/asn/25255" xlink:title="AS25255 ~ ==&gt; TELE2 AUSTRIA &lt;== [AT]">
<ellipse fill="#ffffff" stroke="black" cx="283.881" cy="-479" rx="44.393" ry="18"/>
<text text-anchor="middle" x="283.881" y="-475.3" font-family="Times,serif" font-size="14.00" fill="#2c94b3">AS25255</text>
</a>
</g>
</g>
<!-- AS8437&#45;&gt;AS25255 -->
<g id="edge35" class="edge"><title>AS8437&#45;&gt;AS25255</title>
<path fill="none" stroke="black" stroke-width="4.5" d="M203.951,-479C212.054,-479 220.729,-479 229.255,-479"/>
<polygon fill="black" stroke="black" stroke-width="4.5" points="229.533,-482.938 239.533,-479 229.533,-475.063 229.533,-482.938"/>
</g>
<!-- AS8447&#45;&gt;AS3356 -->
<g id="edge40" class="edge"><title>AS8447&#45;&gt;AS3356</title>
<path fill="none" stroke="black" stroke-width="4.5" d="M423.942,-509.393C442.334,-494.458 470.254,-471.786 490.904,-455.017"/>
<polygon fill="black" stroke="black" stroke-width="4.5" points="493.423,-458.044 498.704,-448.683 488.459,-451.93 493.423,-458.044"/>
</g>
<!-- AS8447&#45;&gt;AS1299 -->
<g id="edge41" class="edge"><title>AS8447&#45;&gt;AS1299</title>
<path fill="none" stroke="black" stroke-width="1.32353" d="M443.396,-525C451.599,-525 460.363,-525 468.895,-525"/>
<polygon fill="black" stroke="black" stroke-width="1.32353" points="469.134,-528.5 479.134,-525 469.134,-521.5 469.134,-528.5"/>
</g>
<!-- AS6939 -->
<g id="node23" class="node"><title>AS6939</title>
<g id="a_node23"><a xlink:href="/asn/6939" xlink:title="AS6939 ~ Hurricane Electric LLC [US]">
<ellipse fill="#ffffff" stroke="black" cx="519.017" cy="-718" rx="39.7935" ry="18"/>
<text text-anchor="middle" x="519.017" y="-714.3" font-family="Times,serif" font-size="14.00" fill="#2c94b3">AS6939</text>
</a>
</g>
</g>
<!-- AS8447&#45;&gt;AS6939 -->
<g id="edge42" class="edge"><title>AS8447&#45;&gt;AS6939</title>
<path fill="none" stroke="black" stroke-width="1.05882" d="M414.978,-542.468C434.989,-576.557 479.334,-652.102 502.788,-692.058"/>
<polygon fill="black" stroke="black" stroke-width="1.05882" points="499.787,-693.859 507.868,-700.711 505.824,-690.315 499.787,-693.859"/>
</g>
<!-- AS2497 -->
<g id="node12" class="node"><title>AS2497</title>
<g id="a_node12"><a xlink:href="/asn/2497" xlink:title="AS2497 ~ Internet Initiative Japan Inc. [JP]">
<ellipse fill="#ffffff" stroke="black" cx="749.603" cy="-310" rx="39.7935" ry="18"/>
<text text-anchor="middle" x="749.603" y="-306.3" font-family="Times,serif" font-size="14.00" fill="#2c94b3">AS2497</text>
</a>
</g>
</g>
<!-- AS2914&#45;&gt;AS2497 -->
<g id="edge11" class="edge"><title>AS2914&#45;&gt;AS2497</title>
<path fill="none" stroke="black" d="M660.473,-604.286C665.537,-600.548 670.391,-596.097 673.956,-591 729.71,-511.282 743.824,-392.337 747.394,-338.406"/>
<polygon fill="black" stroke="black" points="750.9,-338.407 747.992,-328.219 743.912,-337.997 750.9,-338.407"/>
</g>
<!-- AS3491 -->
<g id="node13" class="node"><title>AS3491</title>
<g id="a_node13"><a xlink:href="/asn/3491" xlink:title="AS3491 ~ PCCW Global, Inc. [US]">
<ellipse fill="#ffffff" stroke="black" cx="749.603" cy="-618" rx="39.7935" ry="18"/>
<text text-anchor="middle" x="749.603" y="-614.3" font-family="Times,serif" font-size="14.00" fill="#2c94b3">AS3491</text>
</a>
</g>
</g>
<!-- AS2914&#45;&gt;AS3491 -->
<g id="edge12" class="edge"><title>AS2914&#45;&gt;AS3491</title>
<path fill="none" stroke="black" d="M673.982,-618C682.185,-618 690.949,-618 699.481,-618"/>
<polygon fill="black" stroke="black" points="699.72,-621.5 709.72,-618 699.72,-614.5 699.72,-621.5"/>
</g>
<!-- AS3356&#45;&gt;AS2914 -->
<g id="edge21" class="edge"><title>AS3356&#45;&gt;AS2914</title>
<path fill="none" stroke="black" d="M531.33,-450.217C539.508,-463.071 550.506,-481.237 558.663,-498 578.056,-537.854 567.308,-556.127 594.663,-591 596.463,-593.294 598.51,-595.473 600.701,-597.523"/>
<polygon fill="black" stroke="black" points="598.607,-600.333 608.553,-603.985 603.055,-594.928 598.607,-600.333"/>
</g>
<!-- AS3356&#45;&gt;AS3257 -->
<g id="edge17" class="edge"><title>AS3356&#45;&gt;AS3257</title>
<path fill="none" stroke="black" d="M531.059,-415.789C544.551,-395.542 568.798,-361.577 594.663,-337 596.833,-334.939 599.171,-332.915 601.585,-330.961"/>
<polygon fill="black" stroke="black" points="604.09,-333.455 609.953,-324.63 599.866,-327.873 604.09,-333.455"/>
</g>
<!-- AS3356&#45;&gt;AS174 -->
<g id="edge18" class="edge"><title>AS3356&#45;&gt;AS174</title>
<path fill="none" stroke="black" stroke-width="2" d="M541.427,-448.264C547.445,-453.178 553.696,-458.934 558.663,-465 580.08,-491.154 573.247,-505.846 594.663,-532 597.743,-535.762 601.317,-539.404 605.024,-542.8"/>
<polygon fill="black" stroke="black" stroke-width="2" points="602.832,-545.532 612.701,-549.386 607.389,-540.219 602.832,-545.532"/>
</g>
<!-- AS3356&#45;&gt;AS2497 -->
<g id="edge16" class="edge"><title>AS3356&#45;&gt;AS2497</title>
<path fill="none" stroke="black" stroke-width="3" d="M522.778,-415.076C528.934,-382.078 547.183,-312.406 594.663,-283 631.405,-260.244 682.018,-276.257 715.018,-291.605"/>
<polygon fill="black" stroke="black" stroke-width="3" points="713.722,-294.866 724.245,-296.092 716.783,-288.571 713.722,-294.866"/>
</g>
<!-- AS3356&#45;&gt;AS3491 -->
<g id="edge19" class="edge"><title>AS3356&#45;&gt;AS3491</title>
<path fill="none" stroke="black" d="M544.056,-447.081C549.07,-450.416 554.187,-454.136 558.663,-458 577.018,-473.847 575.337,-484.352 594.663,-499 625.807,-522.606 642.531,-513.77 673.956,-537 695.497,-552.923 715.814,-575.673 729.797,-593.01"/>
<polygon fill="black" stroke="black" points="727.187,-595.353 736.13,-601.033 732.682,-591.015 727.187,-595.353"/>
</g>
<!-- AS3549 -->
<g id="node14" class="node"><title>AS3549</title>
<g id="a_node14"><a xlink:href="/asn/3549" xlink:title="AS3549 ~ Level 3 Parent, LLC [US]">
<ellipse fill="#ffffff" stroke="black" cx="634.31" cy="-472" rx="39.7935" ry="18"/>
<text text-anchor="middle" x="634.31" y="-468.3" font-family="Times,serif" font-size="14.00" fill="#2c94b3">AS3549</text>
</a>
</g>
</g>
<!-- AS3356&#45;&gt;AS3549 -->
<g id="edge13" class="edge"><title>AS3356&#45;&gt;AS3549</title>
<path fill="none" stroke="black" stroke-width="3" d="M550.975,-443.657C563.733,-448.049 578.696,-453.2 592.342,-457.897"/>
<polygon fill="black" stroke="black" stroke-width="3" points="591.401,-461.275 601.996,-461.22 593.679,-454.656 591.401,-461.275"/>
</g>
<!-- AS6762 -->
<g id="node15" class="node"><title>AS6762</title>
<g id="a_node15"><a xlink:href="/asn/6762" xlink:title="AS6762 ~ TELECOM ITALIA SPARKLE S.p.A. [IT]">
<ellipse fill="#ffffff" stroke="black" cx="634.31" cy="-672" rx="39.7935" ry="18"/>
<text text-anchor="middle" x="634.31" y="-668.3" font-family="Times,serif" font-size="14.00" fill="#2c94b3">AS6762</text>
</a>
</g>
</g>
<!-- AS3356&#45;&gt;AS6762 -->
<g id="edge14" class="edge"><title>AS3356&#45;&gt;AS6762</title>
<path fill="none" stroke="black" d="M532.163,-450.193C540.643,-462.888 551.655,-480.867 558.663,-498 584.13,-560.257 556.651,-589.507 594.663,-645 596.311,-647.406 598.249,-649.664 600.363,-651.771"/>
<polygon fill="black" stroke="black" points="598.19,-654.518 608.073,-658.337 602.729,-649.189 598.19,-654.518"/>
</g>
<!-- AS6453 -->
<g id="node16" class="node"><title>AS6453</title>
<g id="a_node16"><a xlink:href="/asn/6453" xlink:title="AS6453 ~ TATA COMMUNICATIONS (AMERICA) INC [US]">
<ellipse fill="#ffffff" stroke="black" cx="634.31" cy="-218" rx="39.7935" ry="18"/>
<text text-anchor="middle" x="634.31" y="-214.3" font-family="Times,serif" font-size="14.00" fill="#2c94b3">AS6453</text>
</a>
</g>
</g>
<!-- AS3356&#45;&gt;AS6453 -->
<g id="edge15" class="edge"><title>AS3356&#45;&gt;AS6453</title>
<path fill="none" stroke="black" stroke-width="2" d="M524.234,-414.905C532.948,-380.287 555.475,-303.383 594.663,-250 597.345,-246.346 600.534,-242.856 603.912,-239.614"/>
<polygon fill="black" stroke="black" stroke-width="2" points="606.294,-242.179 611.487,-232.944 601.668,-236.925 606.294,-242.179"/>
</g>
<!-- AS7018 -->
<g id="node17" class="node"><title>AS7018</title>
<g id="a_node17"><a xlink:href="/asn/7018" xlink:title="AS7018 ~ AT&amp;T Services, Inc. [US]">
<ellipse fill="#ffffff" stroke="black" cx="634.31" cy="-418" rx="39.7935" ry="18"/>
<text text-anchor="middle" x="634.31" y="-414.3" font-family="Times,serif" font-size="14.00" fill="#2c94b3">AS7018</text>
</a>
</g>
</g>
<!-- AS3356&#45;&gt;AS7018 -->
<g id="edge20" class="edge"><title>AS3356&#45;&gt;AS7018</title>
<path fill="none" stroke="black" d="M557.427,-428.047C566.515,-426.844 576.352,-425.541 585.837,-424.285"/>
<polygon fill="black" stroke="black" points="586.485,-427.73 595.939,-422.948 585.566,-420.791 586.485,-427.73"/>
</g>
<!-- AS209 -->
<g id="node18" class="node"><title>AS209</title>
<g id="a_node18"><a xlink:href="/asn/209" xlink:title="AS209 ~ CenturyLink Communications, LLC [US]">
<ellipse fill="#ffffff" stroke="black" cx="634.31" cy="-364" rx="35.194" ry="18"/>
<text text-anchor="middle" x="634.31" y="-360.3" font-family="Times,serif" font-size="14.00" fill="#2c94b3">AS209</text>
</a>
</g>
</g>
<!-- AS3356&#45;&gt;AS209 -->
<g id="edge22" class="edge"><title>AS3356&#45;&gt;AS209</title>
<path fill="none" stroke="black" stroke-width="3" d="M543.491,-418.703C560.535,-408.323 583.765,-394.175 602.33,-382.868"/>
<polygon fill="black" stroke="black" stroke-width="3" points="604.302,-385.765 611.022,-377.574 600.66,-379.787 604.302,-385.765"/>
</g>
<!-- AS1239 -->
<g id="node19" class="node"><title>AS1239</title>
<g id="a_node19"><a xlink:href="/asn/1239" xlink:title="AS1239 ~ Sprint [US]">
<ellipse fill="#ffffff" stroke="black" cx="634.31" cy="-164" rx="39.7935" ry="18"/>
<text text-anchor="middle" x="634.31" y="-160.3" font-family="Times,serif" font-size="14.00" fill="#2c94b3">AS1239</text>
</a>
</g>
</g>
<!-- AS3356&#45;&gt;AS1239 -->
<g id="edge23" class="edge"><title>AS3356&#45;&gt;AS1239</title>
<path fill="none" stroke="black" d="M521.594,-414.818C526.11,-371.947 542.333,-262.759 594.663,-191 596.381,-188.644 598.37,-186.421 600.52,-184.339"/>
<polygon fill="black" stroke="black" points="602.881,-186.927 608.295,-177.82 598.384,-181.563 602.881,-186.927"/>
</g>
<!-- AS3257&#45;&gt;AS2497 -->
<g id="edge24" class="edge"><title>AS3257&#45;&gt;AS2497</title>
<path fill="none" stroke="black" d="M673.982,-310C682.185,-310 690.949,-310 699.481,-310"/>
<polygon fill="black" stroke="black" points="699.72,-313.5 709.72,-310 699.72,-306.5 699.72,-313.5"/>
</g>
<!-- AS3257&#45;&gt;AS3491 -->
<g id="edge25" class="edge"><title>AS3257&#45;&gt;AS3491</title>
<path fill="none" stroke="black" d="M660.473,-323.714C665.537,-327.452 670.391,-331.903 673.956,-337 729.71,-416.718 743.824,-535.663 747.394,-589.594"/>
<polygon fill="black" stroke="black" points="743.912,-590.003 747.992,-599.781 750.9,-589.593 743.912,-590.003"/>
</g>
<!-- AS3320&#45;&gt;AS2497 -->
<g id="edge30" class="edge"><title>AS3320&#45;&gt;AS2497</title>
<path fill="none" stroke="black" d="M529.983,-200.438C542.286,-180.751 565.239,-149.897 594.663,-137 626.94,-122.852 644.511,-117.636 673.956,-137 723.151,-169.352 740.07,-241.736 745.779,-281.863"/>
<polygon fill="black" stroke="black" points="742.34,-282.558 747.083,-292.032 749.283,-281.668 742.34,-282.558"/>
</g>
<!-- AS3320&#45;&gt;AS6453 -->
<g id="edge28" class="edge"><title>AS3320&#45;&gt;AS6453</title>
<path fill="none" stroke="black" d="M558.689,-218C566.892,-218 575.656,-218 584.188,-218"/>
<polygon fill="black" stroke="black" points="584.427,-221.5 594.427,-218 584.427,-214.5 584.427,-221.5"/>
</g>
<!-- AS3320&#45;&gt;AS7018 -->
<g id="edge29" class="edge"><title>AS3320&#45;&gt;AS7018</title>
<path fill="none" stroke="black" d="M524.237,-235.905C532.827,-269.352 554.968,-342.329 594.663,-391 596.506,-393.26 598.584,-395.413 600.797,-397.446"/>
<polygon fill="black" stroke="black" points="598.726,-400.274 608.69,-403.875 603.147,-394.846 598.726,-400.274"/>
</g>
<!-- AS3320&#45;&gt;AS1239 -->
<g id="edge27" class="edge"><title>AS3320&#45;&gt;AS1239</title>
<path fill="none" stroke="black" stroke-width="2" d="M547.153,-205.066C562.147,-197.919 580.968,-188.948 597.191,-181.215"/>
<polygon fill="black" stroke="black" stroke-width="2" points="598.874,-184.291 606.395,-176.829 595.862,-177.972 598.874,-184.291"/>
</g>
<!-- AS701 -->
<g id="node20" class="node"><title>AS701</title>
<g id="a_node20"><a xlink:href="/asn/701" xlink:title="AS701 ~ UUNET [US]">
<ellipse fill="#ffffff" stroke="black" cx="634.31" cy="-72" rx="35.194" ry="18"/>
<text text-anchor="middle" x="634.31" y="-68.3" font-family="Times,serif" font-size="14.00" fill="#2c94b3">AS701</text>
</a>
</g>
</g>
<!-- AS3320&#45;&gt;AS701 -->
<g id="edge26" class="edge"><title>AS3320&#45;&gt;AS701</title>
<path fill="none" stroke="black" stroke-width="2" d="M529.42,-200.253C542.32,-176.804 567.071,-134.865 594.663,-104 597.972,-100.298 601.724,-96.6585 605.557,-93.2367"/>
<polygon fill="black" stroke="black" stroke-width="2" points="608.058,-95.7051 613.423,-86.5689 603.531,-90.3654 608.058,-95.7051"/>
</g>
<!-- AS1299&#45;&gt;AS2914 -->
<g id="edge32" class="edge"><title>AS1299&#45;&gt;AS2914</title>
<path fill="none" stroke="black" d="M537.03,-541.047C551.856,-554.784 574.139,-574.843 594.663,-591 597.382,-593.141 600.257,-595.311 603.163,-597.442"/>
<polygon fill="black" stroke="black" points="601.159,-600.312 611.327,-603.29 605.235,-594.621 601.159,-600.312"/>
</g>
<!-- AS1299&#45;&gt;AS174 -->
<g id="edge33" class="edge"><title>AS1299&#45;&gt;AS174</title>
<path fill="none" stroke="black" d="M550.975,-535.657C564.602,-540.348 580.745,-545.905 595.112,-550.851"/>
<polygon fill="black" stroke="black" points="594.126,-554.213 604.721,-554.159 596.405,-547.594 594.126,-554.213"/>
</g>
<!-- AS1299&#45;&gt;AS7018 -->
<g id="edge31" class="edge"><title>AS1299&#45;&gt;AS7018</title>
<path fill="none" stroke="black" stroke-width="2" d="M533.953,-508.093C548.291,-491.193 571.711,-464.924 594.663,-445 597.135,-442.854 599.779,-440.719 602.479,-438.645"/>
<polygon fill="black" stroke="black" stroke-width="2" points="604.651,-441.392 610.638,-432.651 600.507,-435.751 604.651,-441.392"/>
</g>
<!-- AS6461 -->
<g id="node21" class="node"><title>AS6461</title>
<g id="a_node21"><a xlink:href="/asn/6461" xlink:title="AS6461 ~ Zayo Bandwidth [US]">
<ellipse fill="#ffffff" stroke="black" cx="634.31" cy="-18" rx="39.7935" ry="18"/>
<text text-anchor="middle" x="634.31" y="-14.3" font-family="Times,serif" font-size="14.00" fill="#2c94b3">AS6461</text>
</a>
</g>
</g>
<!-- AS8218&#45;&gt;AS6461 -->
<g id="edge34" class="edge"><title>AS8218&#45;&gt;AS6461</title>
<path fill="none" stroke="black" stroke-width="3" d="M542.671,-76.4028C559.729,-65.4115 583.313,-50.2152 602.148,-38.0789"/>
<polygon fill="black" stroke="black" stroke-width="3" points="604.184,-40.9305 610.695,-32.5719 600.393,-35.0462 604.184,-40.9305"/>
</g>
<!-- AS6762&#45;&gt;AS3491 -->
<g id="edge43" class="edge"><title>AS6762&#45;&gt;AS3491</title>
<path fill="none" stroke="black" stroke-width="2" d="M662.446,-659.066C677.44,-651.919 696.261,-642.948 712.484,-635.215"/>
<polygon fill="black" stroke="black" stroke-width="2" points="714.167,-638.291 721.688,-630.829 711.155,-631.972 714.167,-638.291"/>
</g>
<!-- AS25255&#45;&gt;AS1764 -->
<g id="edge36" class="edge"><title>AS25255&#45;&gt;AS1764</title>
<path fill="none" stroke="black" stroke-width="4.5" d="M316.461,-466.673C330.89,-461.04 348.129,-454.311 363.391,-448.354"/>
<polygon fill="black" stroke="black" stroke-width="4.5" points="365.201,-451.874 373.085,-444.57 362.337,-444.538 365.201,-451.874"/>
</g>
<!-- AS25255&#45;&gt;AS8447 -->
<g id="edge37" class="edge"><title>AS25255&#45;&gt;AS8447</title>
<path fill="none" stroke="black" d="M316.461,-491.327C330.89,-496.96 348.129,-503.689 363.391,-509.646"/>
<polygon fill="black" stroke="black" points="362.496,-513.054 373.085,-513.43 365.042,-506.534 362.496,-513.054"/>
</g>
<!-- AS25255&#45;&gt;AS3320 -->
<g id="edge39" class="edge"><title>AS25255&#45;&gt;AS3320</title>
<path fill="none" stroke="black" stroke-width="3" d="M300.178,-461.875C340.454,-416.785 449.539,-294.662 496.279,-242.336"/>
<polygon fill="black" stroke="black" stroke-width="3" points="498.915,-244.638 502.967,-234.849 493.695,-239.975 498.915,-244.638"/>
</g>
<!-- AS25255&#45;&gt;AS6762 -->
<g id="edge38" class="edge"><title>AS25255&#45;&gt;AS6762</title>
<path fill="none" stroke="black" stroke-width="2" d="M300.249,-496.068C315.322,-512.062 339.553,-535.862 364.077,-552 438.731,-601.124 536.817,-639.068 591.627,-658.225"/>
<polygon fill="black" stroke="black" stroke-width="2" points="590.748,-661.625 601.342,-661.582 593.034,-655.008 590.748,-661.625"/>
</g>
<!-- AS6939&#45;&gt;AS2914 -->
<g id="edge44" class="edge"><title>AS6939&#45;&gt;AS2914</title>
<path fill="none" stroke="black" d="M535.322,-701.545C549.935,-686.204 572.891,-663.044 594.663,-645 597.184,-642.911 599.86,-640.816 602.583,-638.767"/>
<polygon fill="black" stroke="black" points="604.743,-641.523 610.775,-632.813 600.628,-635.861 604.743,-641.523"/>
</g>
<!-- AS6939&#45;&gt;AS2497 -->
<g id="edge46" class="edge"><title>AS6939&#45;&gt;AS2497</title>
<path fill="none" stroke="black" d="M556.103,-724.481C590.876,-728.494 642.687,-728.248 673.956,-699 700.566,-674.111 734.277,-423.821 745.094,-338.396"/>
<polygon fill="black" stroke="black" points="748.58,-338.728 746.354,-328.37 741.635,-337.855 748.58,-338.728"/>
</g>
<!-- AS6939&#45;&gt;AS3491 -->
<g id="edge45" class="edge"><title>AS6939&#45;&gt;AS3491</title>
<path fill="none" stroke="black" d="M531.344,-735.159C544.243,-752.974 567.136,-779.777 594.663,-791 627.297,-804.305 644.511,-810.364 673.956,-791 723.151,-758.648 740.07,-686.264 745.779,-646.137"/>
<polygon fill="black" stroke="black" points="749.283,-646.332 747.083,-635.968 742.34,-645.442 749.283,-646.332"/>
</g>
<!-- AS1273 -->
<g id="node24" class="node"><title>AS1273</title>
<g id="a_node24"><a xlink:href="/asn/1273" xlink:title="AS1273 ~ Vodafone Group PLC [EU]">
<ellipse fill="#ffffff" stroke="black" cx="634.31" cy="-764" rx="39.7935" ry="18"/>
<text text-anchor="middle" x="634.31" y="-760.3" font-family="Times,serif" font-size="14.00" fill="#2c94b3">AS1273</text>
</a>
</g>
</g>
<!-- AS6939&#45;&gt;AS1273 -->
<g id="edge47" class="edge"><title>AS6939&#45;&gt;AS1273</title>
<path fill="none" stroke="black" d="M549.192,-729.846C563.068,-735.48 579.845,-742.292 594.754,-748.346"/>
<polygon fill="black" stroke="black" points="593.651,-751.675 604.233,-752.194 596.284,-745.189 593.651,-751.675"/>
</g>
</g>
</svg>
