<?xml version="1.0" encoding="UTF-8" standalone="no"?>
<!DOCTYPE svg PUBLIC "-//W3C//DTD SVG 1.1//EN"
 "http://www.w3.org/Graphics/SVG/1.1/DTD/svg11.dtd">
<!-- Generated by graphviz version 2.38.0 (20140413.2041)
 -->
<!-- Title: AS44462 Combined Upstream Graph Pages: 1 -->
<svg width="700pt" height="800pt"
 viewBox="0.00 0.00 700.15 800.00" xmlns="http://www.w3.org/2000/svg" xmlns:xlink="http://www.w3.org/1999/xlink">
<g id="graph0" class="graph" transform="scale(1 1) rotate(0) translate(4 796)">
<title>AS44462 Combined Upstream Graph</title>
<polygon fill="white" stroke="none" points="-4,4 -4,-796 696.155,-796 696.155,4 -4,4"/>
<!-- AS44462 -->
<g id="node1" class="node"><title>AS44462</title>
<g id="a_node1"><a xlink:href="/asn/44462" xlink:title="AS44462 ~ Stadtwerke Muerzzuschlag GmbH [AT]">
<ellipse fill="#ffffff" stroke="black" cx="44.1961" cy="-463" rx="44.393" ry="18"/>
<text text-anchor="middle" x="44.1961" y="-459.3" font-family="Times,serif" font-size="14.00" fill="#880000">AS44462</text>
</a>
</g>
</g>
<!-- AS35370 -->
<g id="node2" class="node"><title>AS35370</title>
<g id="a_node2"><a xlink:href="/asn/35370" xlink:title="AS35370 ~ AINET&#45;AS [AT]">
<ellipse fill="#ffffff" stroke="black" cx="168.588" cy="-463" rx="44.393" ry="18"/>
<text text-anchor="middle" x="168.588" y="-459.3" font-family="Times,serif" font-size="14.00" fill="#2c94b3">AS35370</text>
</a>
</g>
</g>
<!-- AS44462&#45;&gt;AS35370 -->
<g id="edge1" class="edge"><title>AS44462&#45;&gt;AS35370</title>
<path fill="none" stroke="black" stroke-width="4.5" d="M88.6916,-463C96.898,-463 105.569,-463 114.041,-463"/>
<polygon fill="black" stroke="black" stroke-width="4.5" points="114.233,-466.938 124.233,-463 114.233,-459.063 114.233,-466.938"/>
</g>
<!-- AS25447 -->
<g id="node3" class="node"><title>AS25447</title>
<g id="a_node3"><a xlink:href="/asn/25447" xlink:title="AS25447 ~ Hackl&#45;Str. 1, Object 2 [AT]">
<ellipse fill="#ffffff" stroke="black" cx="292.98" cy="-463" rx="44.393" ry="18"/>
<text text-anchor="middle" x="292.98" y="-459.3" font-family="Times,serif" font-size="14.00" fill="#2c94b3">AS25447</text>
</a>
</g>
</g>
<!-- AS35370&#45;&gt;AS25447 -->
<g id="edge2" class="edge"><title>AS35370&#45;&gt;AS25447</title>
<path fill="none" stroke="black" stroke-width="4.5" d="M213.084,-463C221.29,-463 229.961,-463 238.434,-463"/>
<polygon fill="black" stroke="black" stroke-width="4.5" points="238.625,-466.938 248.625,-463 238.625,-459.063 238.625,-466.938"/>
</g>
<!-- AS1764 -->
<g id="node4" class="node"><title>AS1764</title>
<g id="a_node4"><a xlink:href="/asn/1764" xlink:title="AS1764 ~ NEXTLAYER&#45;AS [AT]">
<ellipse fill="#ffffff" stroke="black" cx="412.823" cy="-639" rx="39.7935" ry="18"/>
<text text-anchor="middle" x="412.823" y="-635.3" font-family="Times,serif" font-size="14.00" fill="#2c94b3">AS1764</text>
</a>
</g>
</g>
<!-- AS25447&#45;&gt;AS1764 -->
<g id="edge3" class="edge"><title>AS25447&#45;&gt;AS1764</title>
<path fill="none" stroke="black" stroke-width="2.04545" d="M305.71,-480.519C326.587,-511.699 370.275,-576.948 394.579,-613.245"/>
<polygon fill="black" stroke="black" stroke-width="2.04545" points="391.842,-615.449 400.314,-621.811 397.659,-611.555 391.842,-615.449"/>
</g>
<!-- AS3356 -->
<g id="node5" class="node"><title>AS3356</title>
<g id="a_node5"><a xlink:href="/asn/3356" xlink:title="AS3356 ~ Level 3 Parent, LLC [US]">
<ellipse fill="#ffffff" stroke="black" cx="412.823" cy="-288" rx="39.7935" ry="18"/>
<text text-anchor="middle" x="412.823" y="-284.3" font-family="Times,serif" font-size="14.00" fill="#2c94b3">AS3356</text>
</a>
</g>
</g>
<!-- AS25447&#45;&gt;AS3356 -->
<g id="edge4" class="edge"><title>AS25447&#45;&gt;AS3356</title>
<path fill="none" stroke="black" stroke-width="4.5" d="M305.71,-445.581C326.587,-414.578 370.275,-349.699 394.579,-313.608"/>
<polygon fill="black" stroke="black" stroke-width="4.5" points="397.995,-315.585 400.314,-305.091 391.463,-311.186 397.995,-315.585"/>
</g>
<!-- AS3257 -->
<g id="node6" class="node"><title>AS3257</title>
<g id="a_node6"><a xlink:href="/asn/3257" xlink:title="AS3257 ~ GTT [DE]">
<ellipse fill="#ffffff" stroke="black" cx="532.666" cy="-774" rx="39.7935" ry="18"/>
<text text-anchor="middle" x="532.666" y="-770.3" font-family="Times,serif" font-size="14.00" fill="#2c94b3">AS3257</text>
</a>
</g>
</g>
<!-- AS1764&#45;&gt;AS3257 -->
<g id="edge5" class="edge"><title>AS1764&#45;&gt;AS3257</title>
<path fill="none" stroke="black" d="M423.064,-656.713C435.61,-679.561 459.787,-719.611 488.469,-747 491.338,-749.739 494.527,-752.347 497.836,-754.785"/>
<polygon fill="black" stroke="black" points="495.959,-757.742 506.195,-760.477 499.899,-751.956 495.959,-757.742"/>
</g>
<!-- AS8218 -->
<g id="node7" class="node"><title>AS8218</title>
<g id="a_node7"><a xlink:href="/asn/8218" xlink:title="AS8218 ~ legacy Neotelecoms [FR]">
<ellipse fill="#ffffff" stroke="black" cx="532.666" cy="-720" rx="39.7935" ry="18"/>
<text text-anchor="middle" x="532.666" y="-716.3" font-family="Times,serif" font-size="14.00" fill="#2c94b3">AS8218</text>
</a>
</g>
</g>
<!-- AS1764&#45;&gt;AS8218 -->
<g id="edge6" class="edge"><title>AS1764&#45;&gt;AS8218</title>
<path fill="none" stroke="black" d="M434.153,-654.277C449.016,-665.304 469.76,-680.407 488.469,-693 492.018,-695.389 495.769,-697.839 499.517,-700.242"/>
<polygon fill="black" stroke="black" points="497.843,-703.325 508.166,-705.712 501.585,-697.409 497.843,-703.325"/>
</g>
<!-- AS1299 -->
<g id="node8" class="node"><title>AS1299</title>
<g id="a_node8"><a xlink:href="/asn/1299" xlink:title="AS1299 ~ Telia Carrier [EU]">
<ellipse fill="#ffffff" stroke="black" cx="532.666" cy="-666" rx="39.7935" ry="18"/>
<text text-anchor="middle" x="532.666" y="-662.3" font-family="Times,serif" font-size="14.00" fill="#2c94b3">AS1299</text>
</a>
</g>
</g>
<!-- AS1764&#45;&gt;AS1299 -->
<g id="edge7" class="edge"><title>AS1764&#45;&gt;AS1299</title>
<path fill="none" stroke="black" d="M448.542,-646.955C460.542,-649.704 474.163,-652.825 486.856,-655.733"/>
<polygon fill="black" stroke="black" points="486.258,-659.187 496.787,-658.009 487.821,-652.364 486.258,-659.187"/>
</g>
<!-- AS174 -->
<g id="node9" class="node"><title>AS174</title>
<g id="a_node9"><a xlink:href="/asn/174" xlink:title="AS174 ~ Cogent Communications [US]">
<ellipse fill="#ffffff" stroke="black" cx="532.666" cy="-612" rx="35.194" ry="18"/>
<text text-anchor="middle" x="532.666" y="-608.3" font-family="Times,serif" font-size="14.00" fill="#2c94b3">AS174</text>
</a>
</g>
</g>
<!-- AS1764&#45;&gt;AS174 -->
<g id="edge8" class="edge"><title>AS1764&#45;&gt;AS174</title>
<path fill="none" stroke="black" d="M448.542,-631.045C461.635,-628.045 476.657,-624.604 490.298,-621.478"/>
<polygon fill="black" stroke="black" points="491.439,-624.807 500.405,-619.162 489.876,-617.984 491.439,-624.807"/>
</g>
<!-- AS2914 -->
<g id="node10" class="node"><title>AS2914</title>
<g id="a_node10"><a xlink:href="/asn/2914" xlink:title="AS2914 ~ NTT America, Inc. [US]">
<ellipse fill="#ffffff" stroke="black" cx="532.666" cy="-558" rx="39.7935" ry="18"/>
<text text-anchor="middle" x="532.666" y="-554.3" font-family="Times,serif" font-size="14.00" fill="#2c94b3">AS2914</text>
</a>
</g>
</g>
<!-- AS1764&#45;&gt;AS2914 -->
<g id="edge9" class="edge"><title>AS1764&#45;&gt;AS2914</title>
<path fill="none" stroke="black" d="M434.153,-623.723C449.016,-612.696 469.76,-597.593 488.469,-585 492.018,-582.611 495.769,-580.161 499.517,-577.758"/>
<polygon fill="black" stroke="black" points="501.585,-580.591 508.166,-572.288 497.843,-574.675 501.585,-580.591"/>
</g>
<!-- AS6453 -->
<g id="node11" class="node"><title>AS6453</title>
<g id="a_node11"><a xlink:href="/asn/6453" xlink:title="AS6453 ~ TATA COMMUNICATIONS (AMERICA) INC [US]">
<ellipse fill="#ffffff" stroke="black" cx="532.666" cy="-504" rx="39.7935" ry="18"/>
<text text-anchor="middle" x="532.666" y="-500.3" font-family="Times,serif" font-size="14.00" fill="#2c94b3">AS6453</text>
</a>
</g>
</g>
<!-- AS3356&#45;&gt;AS6453 -->
<g id="edge10" class="edge"><title>AS3356&#45;&gt;AS6453</title>
<path fill="none" stroke="black" d="M417.022,-306.073C424.185,-342.141 444.46,-424.125 488.469,-477 490.874,-479.889 493.671,-482.563 496.663,-485.013"/>
<polygon fill="black" stroke="black" points="494.751,-487.95 504.906,-490.973 498.853,-482.277 494.751,-487.95"/>
</g>
<!-- AS12956 -->
<g id="node12" class="node"><title>AS12956</title>
<g id="a_node12"><a xlink:href="/asn/12956" xlink:title="AS12956 ~ TELXIUS [ES]">
<ellipse fill="#ffffff" stroke="black" cx="532.666" cy="-450" rx="44.393" ry="18"/>
<text text-anchor="middle" x="532.666" y="-446.3" font-family="Times,serif" font-size="14.00" fill="#2c94b3">AS12956</text>
</a>
</g>
</g>
<!-- AS3356&#45;&gt;AS12956 -->
<g id="edge11" class="edge"><title>AS3356&#45;&gt;AS12956</title>
<path fill="none" stroke="black" d="M420.346,-305.994C431.097,-333.728 454.754,-387.429 488.469,-423 490.854,-425.515 493.52,-427.893 496.326,-430.117"/>
<polygon fill="black" stroke="black" points="494.32,-432.985 504.488,-435.961 498.395,-427.293 494.32,-432.985"/>
</g>
<!-- AS701 -->
<g id="node13" class="node"><title>AS701</title>
<g id="a_node13"><a xlink:href="/asn/701" xlink:title="AS701 ~ UUNET [US]">
<ellipse fill="#ffffff" stroke="black" cx="532.666" cy="-396" rx="35.194" ry="18"/>
<text text-anchor="middle" x="532.666" y="-392.3" font-family="Times,serif" font-size="14.00" fill="#2c94b3">AS701</text>
</a>
</g>
</g>
<!-- AS3356&#45;&gt;AS701 -->
<g id="edge12" class="edge"><title>AS3356&#45;&gt;AS701</title>
<path fill="none" stroke="black" d="M427.242,-305.065C441.357,-322.375 464.771,-349.345 488.469,-369 491.933,-371.872 495.725,-374.669 499.58,-377.308"/>
<polygon fill="black" stroke="black" points="497.722,-380.275 508.012,-382.797 501.541,-374.408 497.722,-380.275"/>
</g>
<!-- AS6762 -->
<g id="node14" class="node"><title>AS6762</title>
<g id="a_node14"><a xlink:href="/asn/6762" xlink:title="AS6762 ~ TELECOM ITALIA SPARKLE S.p.A. [IT]">
<ellipse fill="#ffffff" stroke="black" cx="532.666" cy="-342" rx="39.7935" ry="18"/>
<text text-anchor="middle" x="532.666" y="-338.3" font-family="Times,serif" font-size="14.00" fill="#2c94b3">AS6762</text>
</a>
</g>
</g>
<!-- AS3356&#45;&gt;AS6762 -->
<g id="edge13" class="edge"><title>AS3356&#45;&gt;AS6762</title>
<path fill="none" stroke="black" d="M441.452,-300.661C457.409,-307.973 477.679,-317.261 494.962,-325.181"/>
<polygon fill="black" stroke="black" points="493.661,-328.435 504.21,-329.419 496.577,-322.071 493.661,-328.435"/>
</g>
<!-- AS3320 -->
<g id="node15" class="node"><title>AS3320</title>
<g id="a_node15"><a xlink:href="/asn/3320" xlink:title="AS3320 ~ DTAG [DE]">
<ellipse fill="#ffffff" stroke="black" cx="532.666" cy="-288" rx="39.7935" ry="18"/>
<text text-anchor="middle" x="532.666" y="-284.3" font-family="Times,serif" font-size="14.00" fill="#2c94b3">AS3320</text>
</a>
</g>
</g>
<!-- AS3356&#45;&gt;AS3320 -->
<g id="edge14" class="edge"><title>AS3356&#45;&gt;AS3320</title>
<path fill="none" stroke="black" d="M452.736,-288C462.289,-288 472.639,-288 482.601,-288"/>
<polygon fill="black" stroke="black" points="482.794,-291.5 492.794,-288 482.794,-284.5 482.794,-291.5"/>
</g>
<!-- AS3549 -->
<g id="node16" class="node"><title>AS3549</title>
<g id="a_node16"><a xlink:href="/asn/3549" xlink:title="AS3549 ~ Level 3 Parent, LLC [US]">
<ellipse fill="#ffffff" stroke="black" cx="532.666" cy="-234" rx="39.7935" ry="18"/>
<text text-anchor="middle" x="532.666" y="-230.3" font-family="Times,serif" font-size="14.00" fill="#2c94b3">AS3549</text>
</a>
</g>
</g>
<!-- AS3356&#45;&gt;AS3549 -->
<g id="edge15" class="edge"><title>AS3356&#45;&gt;AS3549</title>
<path fill="none" stroke="black" d="M441.452,-275.339C457.409,-268.027 477.679,-258.739 494.962,-250.819"/>
<polygon fill="black" stroke="black" points="496.577,-253.929 504.21,-246.581 493.661,-247.565 496.577,-253.929"/>
</g>
<!-- AS7018 -->
<g id="node17" class="node"><title>AS7018</title>
<g id="a_node17"><a xlink:href="/asn/7018" xlink:title="AS7018 ~ AT&amp;T Services, Inc. [US]">
<ellipse fill="#ffffff" stroke="black" cx="532.666" cy="-180" rx="39.7935" ry="18"/>
<text text-anchor="middle" x="532.666" y="-176.3" font-family="Times,serif" font-size="14.00" fill="#2c94b3">AS7018</text>
</a>
</g>
</g>
<!-- AS3356&#45;&gt;AS7018 -->
<g id="edge16" class="edge"><title>AS3356&#45;&gt;AS7018</title>
<path fill="none" stroke="black" d="M427.242,-270.935C441.357,-253.625 464.771,-226.655 488.469,-207 491.686,-204.332 495.186,-201.73 498.757,-199.259"/>
<polygon fill="black" stroke="black" points="500.68,-202.183 507.113,-193.764 496.835,-196.334 500.68,-202.183"/>
</g>
<!-- AS3491 -->
<g id="node18" class="node"><title>AS3491</title>
<g id="a_node18"><a xlink:href="/asn/3491" xlink:title="AS3491 ~ PCCW Global, Inc. [US]">
<ellipse fill="#ffffff" stroke="black" cx="532.666" cy="-126" rx="39.7935" ry="18"/>
<text text-anchor="middle" x="532.666" y="-122.3" font-family="Times,serif" font-size="14.00" fill="#2c94b3">AS3491</text>
</a>
</g>
</g>
<!-- AS3356&#45;&gt;AS3491 -->
<g id="edge17" class="edge"><title>AS3356&#45;&gt;AS3491</title>
<path fill="none" stroke="black" d="M420.346,-270.006C431.097,-242.272 454.754,-188.571 488.469,-153 491.055,-150.272 493.973,-147.706 497.041,-145.323"/>
<polygon fill="black" stroke="black" points="499.219,-148.07 505.389,-139.457 495.195,-142.342 499.219,-148.07"/>
</g>
<!-- AS2497 -->
<g id="node19" class="node"><title>AS2497</title>
<g id="a_node19"><a xlink:href="/asn/2497" xlink:title="AS2497 ~ Internet Initiative Japan Inc. [JP]">
<ellipse fill="#ffffff" stroke="black" cx="532.666" cy="-72" rx="39.7935" ry="18"/>
<text text-anchor="middle" x="532.666" y="-68.3" font-family="Times,serif" font-size="14.00" fill="#2c94b3">AS2497</text>
</a>
</g>
</g>
<!-- AS3356&#45;&gt;AS2497 -->
<g id="edge18" class="edge"><title>AS3356&#45;&gt;AS2497</title>
<path fill="none" stroke="black" d="M417.022,-269.927C424.185,-233.859 444.46,-151.875 488.469,-99 490.874,-96.1112 493.671,-93.4373 496.663,-90.9868"/>
<polygon fill="black" stroke="black" points="498.853,-93.7225 504.906,-85.0271 494.751,-88.0498 498.853,-93.7225"/>
</g>
<!-- AS1239 -->
<g id="node20" class="node"><title>AS1239</title>
<g id="a_node20"><a xlink:href="/asn/1239" xlink:title="AS1239 ~ Sprint [US]">
<ellipse fill="#ffffff" stroke="black" cx="532.666" cy="-18" rx="39.7935" ry="18"/>
<text text-anchor="middle" x="532.666" y="-14.3" font-family="Times,serif" font-size="14.00" fill="#2c94b3">AS1239</text>
</a>
</g>
</g>
<!-- AS3356&#45;&gt;AS1239 -->
<g id="edge19" class="edge"><title>AS3356&#45;&gt;AS1239</title>
<path fill="none" stroke="black" d="M415.107,-269.883C419.005,-226.668 434.022,-115.869 488.469,-45 490.759,-42.0195 493.479,-39.2844 496.424,-36.7955"/>
<polygon fill="black" stroke="black" points="498.618,-39.5267 504.6,-30.7824 494.47,-33.8875 498.618,-39.5267"/>
</g>
<!-- AS6461 -->
<g id="node21" class="node"><title>AS6461</title>
<g id="a_node21"><a xlink:href="/asn/6461" xlink:title="AS6461 ~ Zayo Bandwidth [US]">
<ellipse fill="#ffffff" stroke="black" cx="652.508" cy="-720" rx="39.7935" ry="18"/>
<text text-anchor="middle" x="652.508" y="-716.3" font-family="Times,serif" font-size="14.00" fill="#2c94b3">AS6461</text>
</a>
</g>
</g>
<!-- AS8218&#45;&gt;AS6461 -->
<g id="edge20" class="edge"><title>AS8218&#45;&gt;AS6461</title>
<path fill="none" stroke="black" d="M572.578,-720C582.131,-720 592.481,-720 602.444,-720"/>
<polygon fill="black" stroke="black" points="602.636,-723.5 612.636,-720 602.636,-716.5 602.636,-723.5"/>
</g>
</g>
</svg>
