<?xml version="1.0" encoding="UTF-8" standalone="no"?>
<!DOCTYPE svg PUBLIC "-//W3C//DTD SVG 1.1//EN"
 "http://www.w3.org/Graphics/SVG/1.1/DTD/svg11.dtd">
<!-- Generated by graphviz version 2.38.0 (20140413.2041)
 -->
<!-- Title: AS208658 IPv6 Upstream Graph Pages: 1 -->
<svg width="690pt" height="476pt"
 viewBox="0.00 0.00 689.76 476.00" xmlns="http://www.w3.org/2000/svg" xmlns:xlink="http://www.w3.org/1999/xlink">
<g id="graph0" class="graph" transform="scale(1 1) rotate(0) translate(4 472)">
<title>AS208658 IPv6 Upstream Graph</title>
<polygon fill="white" stroke="none" points="-4,4 -4,-472 685.755,-472 685.755,4 -4,4"/>
<!-- AS208658 -->
<g id="node1" class="node"><title>AS208658</title>
<g id="a_node1"><a xlink:href="/asn/208658" xlink:title="AS208658 ~ Johannes Mueller [AT]">
<ellipse fill="#ffffff" stroke="black" cx="48.0957" cy="-234" rx="48.1917" ry="18"/>
<text text-anchor="middle" x="48.0957" y="-230.3" font-family="Times,serif" font-size="14.00" fill="#880000">AS208658</text>
</a>
</g>
</g>
<!-- AS8437 -->
<g id="node2" class="node"><title>AS8437</title>
<g id="a_node2"><a xlink:href="/asn/8437" xlink:title="AS8437 ~ Hutchison Drei Austria GmbH [AT]">
<ellipse fill="#ffffff" stroke="black" cx="171.838" cy="-234" rx="39.7935" ry="18"/>
<text text-anchor="middle" x="171.838" y="-230.3" font-family="Times,serif" font-size="14.00" fill="#2c94b3">AS8437</text>
</a>
</g>
</g>
<!-- AS208658&#45;&gt;AS8437 -->
<g id="edge1" class="edge"><title>AS208658&#45;&gt;AS8437</title>
<path fill="none" stroke="black" stroke-width="4.5" d="M96.5131,-234C104.867,-234 113.577,-234 121.969,-234"/>
<polygon fill="black" stroke="black" stroke-width="4.5" points="122.004,-237.938 132.004,-234 122.004,-230.063 122.004,-237.938"/>
</g>
<!-- AS25255 -->
<g id="node3" class="node"><title>AS25255</title>
<g id="a_node3"><a xlink:href="/asn/25255" xlink:title="AS25255 ~ ==&gt; TELE2 AUSTRIA &lt;== [AT]">
<ellipse fill="#ffffff" stroke="black" cx="291.681" cy="-234" rx="44.393" ry="18"/>
<text text-anchor="middle" x="291.681" y="-230.3" font-family="Times,serif" font-size="14.00" fill="#2c94b3">AS25255</text>
</a>
</g>
</g>
<!-- AS8437&#45;&gt;AS25255 -->
<g id="edge2" class="edge"><title>AS8437&#45;&gt;AS25255</title>
<path fill="none" stroke="black" stroke-width="4.5" d="M211.751,-234C219.853,-234 228.528,-234 237.055,-234"/>
<polygon fill="black" stroke="black" stroke-width="4.5" points="237.332,-237.938 247.332,-234 237.332,-230.063 237.332,-237.938"/>
</g>
<!-- AS3320 -->
<g id="node4" class="node"><title>AS3320</title>
<g id="a_node4"><a xlink:href="/asn/3320" xlink:title="AS3320 ~ DTAG [DE]">
<ellipse fill="#ffffff" stroke="black" cx="411.523" cy="-288" rx="39.7935" ry="18"/>
<text text-anchor="middle" x="411.523" y="-284.3" font-family="Times,serif" font-size="14.00" fill="#2c94b3">AS3320</text>
</a>
</g>
</g>
<!-- AS25255&#45;&gt;AS3320 -->
<g id="edge3" class="edge"><title>AS25255&#45;&gt;AS3320</title>
<path fill="none" stroke="black" stroke-width="4.5" d="M321.81,-247.348C337.421,-254.502 356.819,-263.391 373.491,-271.03"/>
<polygon fill="black" stroke="black" stroke-width="4.5" points="372.212,-274.775 382.943,-275.362 375.492,-267.616 372.212,-274.775"/>
</g>
<!-- AS6762 -->
<g id="node5" class="node"><title>AS6762</title>
<g id="a_node5"><a xlink:href="/asn/6762" xlink:title="AS6762 ~ TELECOM ITALIA SPARKLE S.p.A. [IT]">
<ellipse fill="#ffffff" stroke="black" cx="411.523" cy="-153" rx="39.7935" ry="18"/>
<text text-anchor="middle" x="411.523" y="-149.3" font-family="Times,serif" font-size="14.00" fill="#2c94b3">AS6762</text>
</a>
</g>
</g>
<!-- AS25255&#45;&gt;AS6762 -->
<g id="edge4" class="edge"><title>AS25255&#45;&gt;AS6762</title>
<path fill="none" stroke="black" stroke-width="4.5" d="M315.123,-218.574C333.704,-205.802 360.265,-187.545 380.645,-173.537"/>
<polygon fill="black" stroke="black" stroke-width="4.5" points="382.949,-176.731 388.959,-167.822 378.488,-170.242 382.949,-176.731"/>
</g>
<!-- AS7018 -->
<g id="node6" class="node"><title>AS7018</title>
<g id="a_node6"><a xlink:href="/asn/7018" xlink:title="AS7018 ~ AT&amp;T Services, Inc. [US]">
<ellipse fill="#ffffff" stroke="black" cx="531.366" cy="-288" rx="39.7935" ry="18"/>
<text text-anchor="middle" x="531.366" y="-284.3" font-family="Times,serif" font-size="14.00" fill="#2c94b3">AS7018</text>
</a>
</g>
</g>
<!-- AS3320&#45;&gt;AS7018 -->
<g id="edge5" class="edge"><title>AS3320&#45;&gt;AS7018</title>
<path fill="none" stroke="black" d="M451.436,-288C460.989,-288 471.339,-288 481.301,-288"/>
<polygon fill="black" stroke="black" points="481.494,-291.5 491.494,-288 481.494,-284.5 481.494,-291.5"/>
</g>
<!-- AS2497 -->
<g id="node7" class="node"><title>AS2497</title>
<g id="a_node7"><a xlink:href="/asn/2497" xlink:title="AS2497 ~ Internet Initiative Japan Inc. [JP]">
<ellipse fill="#ffffff" stroke="black" cx="531.366" cy="-450" rx="39.7935" ry="18"/>
<text text-anchor="middle" x="531.366" y="-446.3" font-family="Times,serif" font-size="14.00" fill="#2c94b3">AS2497</text>
</a>
</g>
</g>
<!-- AS3320&#45;&gt;AS2497 -->
<g id="edge6" class="edge"><title>AS3320&#45;&gt;AS2497</title>
<path fill="none" stroke="black" d="M419.046,-305.994C429.797,-333.728 453.454,-387.429 487.17,-423 489.755,-425.728 492.673,-428.294 495.741,-430.677"/>
<polygon fill="black" stroke="black" points="493.895,-433.658 504.09,-436.543 497.92,-427.93 493.895,-433.658"/>
</g>
<!-- AS701 -->
<g id="node8" class="node"><title>AS701</title>
<g id="a_node8"><a xlink:href="/asn/701" xlink:title="AS701 ~ UUNET [US]">
<ellipse fill="#ffffff" stroke="black" cx="531.366" cy="-396" rx="35.194" ry="18"/>
<text text-anchor="middle" x="531.366" y="-392.3" font-family="Times,serif" font-size="14.00" fill="#2c94b3">AS701</text>
</a>
</g>
</g>
<!-- AS3320&#45;&gt;AS701 -->
<g id="edge7" class="edge"><title>AS3320&#45;&gt;AS701</title>
<path fill="none" stroke="black" d="M425.942,-305.065C440.057,-322.375 463.471,-349.345 487.17,-369 490.633,-371.872 494.425,-374.669 498.28,-377.308"/>
<polygon fill="black" stroke="black" points="496.422,-380.275 506.712,-382.797 500.241,-374.408 496.422,-380.275"/>
</g>
<!-- AS2914 -->
<g id="node9" class="node"><title>AS2914</title>
<g id="a_node9"><a xlink:href="/asn/2914" xlink:title="AS2914 ~ NTT America, Inc. [US]">
<ellipse fill="#ffffff" stroke="black" cx="531.366" cy="-180" rx="39.7935" ry="18"/>
<text text-anchor="middle" x="531.366" y="-176.3" font-family="Times,serif" font-size="14.00" fill="#2c94b3">AS2914</text>
</a>
</g>
</g>
<!-- AS3320&#45;&gt;AS2914 -->
<g id="edge8" class="edge"><title>AS3320&#45;&gt;AS2914</title>
<path fill="none" stroke="black" d="M425.942,-270.935C440.057,-253.625 463.471,-226.655 487.17,-207 490.386,-204.332 493.886,-201.73 497.457,-199.259"/>
<polygon fill="black" stroke="black" points="499.381,-202.183 505.813,-193.764 495.535,-196.334 499.381,-202.183"/>
</g>
<!-- AS3491 -->
<g id="node10" class="node"><title>AS3491</title>
<g id="a_node10"><a xlink:href="/asn/3491" xlink:title="AS3491 ~ PCCW Global, Inc. [US]">
<ellipse fill="#ffffff" stroke="black" cx="531.366" cy="-342" rx="39.7935" ry="18"/>
<text text-anchor="middle" x="531.366" y="-338.3" font-family="Times,serif" font-size="14.00" fill="#2c94b3">AS3491</text>
</a>
</g>
</g>
<!-- AS3320&#45;&gt;AS3491 -->
<g id="edge9" class="edge"><title>AS3320&#45;&gt;AS3491</title>
<path fill="none" stroke="black" d="M440.152,-300.661C456.109,-307.973 476.379,-317.261 493.662,-325.181"/>
<polygon fill="black" stroke="black" points="492.361,-328.435 502.91,-329.419 495.277,-322.071 492.361,-328.435"/>
</g>
<!-- AS174 -->
<g id="node11" class="node"><title>AS174</title>
<g id="a_node11"><a xlink:href="/asn/174" xlink:title="AS174 ~ Cogent Communications [US]">
<ellipse fill="#ffffff" stroke="black" cx="531.366" cy="-234" rx="35.194" ry="18"/>
<text text-anchor="middle" x="531.366" y="-230.3" font-family="Times,serif" font-size="14.00" fill="#2c94b3">AS174</text>
</a>
</g>
</g>
<!-- AS3320&#45;&gt;AS174 -->
<g id="edge10" class="edge"><title>AS3320&#45;&gt;AS174</title>
<path fill="none" stroke="black" d="M440.152,-275.339C456.568,-267.817 477.55,-258.202 495.147,-250.139"/>
<polygon fill="black" stroke="black" points="496.891,-253.189 504.524,-245.842 493.975,-246.826 496.891,-253.189"/>
</g>
<!-- AS6762&#45;&gt;AS2914 -->
<g id="edge11" class="edge"><title>AS6762&#45;&gt;AS2914</title>
<path fill="none" stroke="black" d="M447.242,-160.955C459.242,-163.704 472.863,-166.825 485.556,-169.733"/>
<polygon fill="black" stroke="black" points="484.958,-173.187 495.487,-172.009 486.522,-166.364 484.958,-173.187"/>
</g>
<!-- AS6762&#45;&gt;AS174 -->
<g id="edge14" class="edge"><title>AS6762&#45;&gt;AS174</title>
<path fill="none" stroke="black" d="M432.853,-168.277C447.716,-179.304 468.46,-194.407 487.17,-207 490.987,-209.569 495.037,-212.21 499.067,-214.786"/>
<polygon fill="black" stroke="black" points="497.436,-217.895 507.761,-220.271 501.171,-211.975 497.436,-217.895"/>
</g>
<!-- AS3257 -->
<g id="node12" class="node"><title>AS3257</title>
<g id="a_node12"><a xlink:href="/asn/3257" xlink:title="AS3257 ~ GTT [DE]">
<ellipse fill="#ffffff" stroke="black" cx="531.366" cy="-126" rx="39.7935" ry="18"/>
<text text-anchor="middle" x="531.366" y="-122.3" font-family="Times,serif" font-size="14.00" fill="#2c94b3">AS3257</text>
</a>
</g>
</g>
<!-- AS6762&#45;&gt;AS3257 -->
<g id="edge12" class="edge"><title>AS6762&#45;&gt;AS3257</title>
<path fill="none" stroke="black" d="M447.242,-145.045C459.242,-142.296 472.863,-139.175 485.556,-136.267"/>
<polygon fill="black" stroke="black" points="486.522,-139.636 495.487,-133.991 484.958,-132.813 486.522,-139.636"/>
</g>
<!-- AS12956 -->
<g id="node13" class="node"><title>AS12956</title>
<g id="a_node13"><a xlink:href="/asn/12956" xlink:title="AS12956 ~ TELXIUS [ES]">
<ellipse fill="#ffffff" stroke="black" cx="531.366" cy="-72" rx="44.393" ry="18"/>
<text text-anchor="middle" x="531.366" y="-68.3" font-family="Times,serif" font-size="14.00" fill="#2c94b3">AS12956</text>
</a>
</g>
</g>
<!-- AS6762&#45;&gt;AS12956 -->
<g id="edge13" class="edge"><title>AS6762&#45;&gt;AS12956</title>
<path fill="none" stroke="black" d="M432.853,-137.723C447.716,-126.696 468.46,-111.593 487.17,-99 490.46,-96.7855 493.922,-94.5183 497.397,-92.2848"/>
<polygon fill="black" stroke="black" points="499.393,-95.1631 505.964,-86.8518 495.644,-89.2516 499.393,-95.1631"/>
</g>
<!-- AS3356 -->
<g id="node14" class="node"><title>AS3356</title>
<g id="a_node14"><a xlink:href="/asn/3356" xlink:title="AS3356 ~ Level 3 Parent, LLC [US]">
<ellipse fill="#ffffff" stroke="black" cx="531.366" cy="-18" rx="39.7935" ry="18"/>
<text text-anchor="middle" x="531.366" y="-14.3" font-family="Times,serif" font-size="14.00" fill="#2c94b3">AS3356</text>
</a>
</g>
</g>
<!-- AS6762&#45;&gt;AS3356 -->
<g id="edge15" class="edge"><title>AS6762&#45;&gt;AS3356</title>
<path fill="none" stroke="black" stroke-width="2" d="M421.764,-135.287C434.31,-112.439 458.487,-72.3891 487.17,-45 490.038,-42.2611 493.227,-39.6533 496.536,-37.2147"/>
<polygon fill="black" stroke="black" stroke-width="2" points="498.599,-40.0442 504.895,-31.523 494.659,-34.2581 498.599,-40.0442"/>
</g>
<!-- AS209 -->
<g id="node15" class="node"><title>AS209</title>
<g id="a_node15"><a xlink:href="/asn/209" xlink:title="AS209 ~ CenturyLink Communications, LLC [US]">
<ellipse fill="#ffffff" stroke="black" cx="646.659" cy="-18" rx="35.194" ry="18"/>
<text text-anchor="middle" x="646.659" y="-14.3" font-family="Times,serif" font-size="14.00" fill="#2c94b3">AS209</text>
</a>
</g>
</g>
<!-- AS3356&#45;&gt;AS209 -->
<g id="edge16" class="edge"><title>AS3356&#45;&gt;AS209</title>
<path fill="none" stroke="black" d="M571.038,-18C580.743,-18 591.234,-18 601.197,-18"/>
<polygon fill="black" stroke="black" points="601.333,-21.5001 611.333,-18 601.333,-14.5001 601.333,-21.5001"/>
</g>
</g>
</svg>
