<?xml version="1.0" encoding="UTF-8" standalone="no"?>
<!DOCTYPE svg PUBLIC "-//W3C//DTD SVG 1.1//EN"
 "http://www.w3.org/Graphics/SVG/1.1/DTD/svg11.dtd">
<!-- Generated by graphviz version 2.38.0 (20140413.2041)
 -->
<!-- Title: AS29429 Combined Upstream Graph Pages: 1 -->
<svg width="442pt" height="422pt"
 viewBox="0.00 0.00 442.27 422.00" xmlns="http://www.w3.org/2000/svg" xmlns:xlink="http://www.w3.org/1999/xlink">
<g id="graph0" class="graph" transform="scale(1 1) rotate(0) translate(4 418)">
<title>AS29429 Combined Upstream Graph</title>
<polygon fill="white" stroke="none" points="-4,4 -4,-418 438.271,-418 438.271,4 -4,4"/>
<!-- AS29429 -->
<g id="node1" class="node"><title>AS29429</title>
<g id="a_node1"><a xlink:href="/asn/29429" xlink:title="AS29429 ~ Allianz Elementar Versicherungs AG [AT]">
<ellipse fill="#ffffff" stroke="black" cx="44.1961" cy="-166" rx="44.393" ry="18"/>
<text text-anchor="middle" x="44.1961" y="-162.3" font-family="Times,serif" font-size="14.00" fill="#880000">AS29429</text>
</a>
</g>
</g>
<!-- AS1764 -->
<g id="node2" class="node"><title>AS1764</title>
<g id="a_node2"><a xlink:href="/asn/1764" xlink:title="AS1764 ~ NEXTLAYER&#45;AS [AT]">
<ellipse fill="#ffffff" stroke="black" cx="164.039" cy="-207" rx="39.7935" ry="18"/>
<text text-anchor="middle" x="164.039" y="-203.3" font-family="Times,serif" font-size="14.00" fill="#2c94b3">AS1764</text>
</a>
</g>
</g>
<!-- AS29429&#45;&gt;AS1764 -->
<g id="edge1" class="edge"><title>AS29429&#45;&gt;AS1764</title>
<path fill="none" stroke="black" stroke-width="4.5" d="M78.3354,-177.53C92.0527,-182.302 108.092,-187.883 122.502,-192.896"/>
<polygon fill="black" stroke="black" stroke-width="4.5" points="121.43,-196.692 132.168,-196.26 124.018,-189.255 121.43,-196.692"/>
</g>
<!-- AS8447 -->
<g id="node3" class="node"><title>AS8447</title>
<g id="a_node3"><a xlink:href="/asn/8447" xlink:title="AS8447 ~ A1 Telekom Austria AG [AT]">
<ellipse fill="#ffffff" stroke="black" cx="164.039" cy="-99" rx="39.7935" ry="18"/>
<text text-anchor="middle" x="164.039" y="-95.3" font-family="Times,serif" font-size="14.00" fill="#2c94b3">AS8447</text>
</a>
</g>
</g>
<!-- AS29429&#45;&gt;AS8447 -->
<g id="edge2" class="edge"><title>AS29429&#45;&gt;AS8447</title>
<path fill="none" stroke="black" stroke-width="1.32353" d="M70.7662,-151.462C87.9854,-141.672 110.871,-128.66 129.542,-118.045"/>
<polygon fill="black" stroke="black" stroke-width="1.32353" points="131.363,-121.036 138.326,-113.05 127.903,-114.95 131.363,-121.036"/>
</g>
<!-- AS3257 -->
<g id="node4" class="node"><title>AS3257</title>
<g id="a_node4"><a xlink:href="/asn/3257" xlink:title="AS3257 ~ GTT [DE]">
<ellipse fill="#ffffff" stroke="black" cx="279.332" cy="-180" rx="39.7935" ry="18"/>
<text text-anchor="middle" x="279.332" y="-176.3" font-family="Times,serif" font-size="14.00" fill="#2c94b3">AS3257</text>
</a>
</g>
</g>
<!-- AS1764&#45;&gt;AS3257 -->
<g id="edge3" class="edge"><title>AS1764&#45;&gt;AS3257</title>
<path fill="none" stroke="black" stroke-width="2.7" d="M199.646,-198.752C210.517,-196.162 222.671,-193.265 234.114,-190.538"/>
<polygon fill="black" stroke="black" stroke-width="2.7" points="235.02,-193.92 243.936,-188.197 233.397,-187.111 235.02,-193.92"/>
</g>
<!-- AS3356 -->
<g id="node5" class="node"><title>AS3356</title>
<g id="a_node5"><a xlink:href="/asn/3356" xlink:title="AS3356 ~ Level 3 Parent, LLC [US]">
<ellipse fill="#ffffff" stroke="black" cx="279.332" cy="-126" rx="39.7935" ry="18"/>
<text text-anchor="middle" x="279.332" y="-122.3" font-family="Times,serif" font-size="14.00" fill="#2c94b3">AS3356</text>
</a>
</g>
</g>
<!-- AS1764&#45;&gt;AS3356 -->
<g id="edge4" class="edge"><title>AS1764&#45;&gt;AS3356</title>
<path fill="none" stroke="black" stroke-width="4.5" d="M185.887,-191.778C200.821,-180.909 221.435,-165.975 239.685,-153 242.506,-150.995 245.449,-148.915 248.397,-146.841"/>
<polygon fill="black" stroke="black" stroke-width="4.5" points="250.694,-150.039 256.621,-141.074 246.173,-143.591 250.694,-150.039"/>
</g>
<!-- AS3320 -->
<g id="node6" class="node"><title>AS3320</title>
<g id="a_node6"><a xlink:href="/asn/3320" xlink:title="AS3320 ~ DTAG [DE]">
<ellipse fill="#ffffff" stroke="black" cx="279.332" cy="-288" rx="39.7935" ry="18"/>
<text text-anchor="middle" x="279.332" y="-284.3" font-family="Times,serif" font-size="14.00" fill="#2c94b3">AS3320</text>
</a>
</g>
</g>
<!-- AS1764&#45;&gt;AS3320 -->
<g id="edge5" class="edge"><title>AS1764&#45;&gt;AS3320</title>
<path fill="none" stroke="black" stroke-width="2.7" d="M185.887,-222.222C200.821,-233.091 221.435,-248.025 239.685,-261 242.506,-263.005 245.449,-265.085 248.397,-267.159"/>
<polygon fill="black" stroke="black" stroke-width="2.7" points="246.424,-270.05 256.621,-272.926 250.443,-264.319 246.424,-270.05"/>
</g>
<!-- AS174 -->
<g id="node7" class="node"><title>AS174</title>
<g id="a_node7"><a xlink:href="/asn/174" xlink:title="AS174 ~ Cogent Communications [US]">
<ellipse fill="#ffffff" stroke="black" cx="279.332" cy="-342" rx="35.194" ry="18"/>
<text text-anchor="middle" x="279.332" y="-338.3" font-family="Times,serif" font-size="14.00" fill="#2c94b3">AS174</text>
</a>
</g>
</g>
<!-- AS1764&#45;&gt;AS174 -->
<g id="edge6" class="edge"><title>AS1764&#45;&gt;AS174</title>
<path fill="none" stroke="black" stroke-width="2.7" d="M174.498,-224.49C187.28,-247.096 211.712,-286.886 239.685,-315 242.185,-317.513 244.946,-319.949 247.807,-322.261"/>
<polygon fill="black" stroke="black" stroke-width="2.7" points="245.905,-325.21 256.004,-328.413 250.108,-319.611 245.905,-325.21"/>
</g>
<!-- AS1299 -->
<g id="node8" class="node"><title>AS1299</title>
<g id="a_node8"><a xlink:href="/asn/1299" xlink:title="AS1299 ~ Telia Carrier [EU]">
<ellipse fill="#ffffff" stroke="black" cx="279.332" cy="-72" rx="39.7935" ry="18"/>
<text text-anchor="middle" x="279.332" y="-68.3" font-family="Times,serif" font-size="14.00" fill="#2c94b3">AS1299</text>
</a>
</g>
</g>
<!-- AS1764&#45;&gt;AS1299 -->
<g id="edge7" class="edge"><title>AS1764&#45;&gt;AS1299</title>
<path fill="none" stroke="black" stroke-width="0.9" d="M174.498,-189.51C187.28,-166.904 211.712,-127.114 239.685,-99 241.796,-96.8786 244.092,-94.8125 246.477,-92.829"/>
<polygon fill="black" stroke="black" stroke-width="0.9" points="248.993,-95.3103 254.793,-86.444 244.73,-89.7583 248.993,-95.3103"/>
</g>
<!-- AS8218 -->
<g id="node9" class="node"><title>AS8218</title>
<g id="a_node9"><a xlink:href="/asn/8218" xlink:title="AS8218 ~ legacy Neotelecoms [FR]">
<ellipse fill="#ffffff" stroke="black" cx="279.332" cy="-396" rx="39.7935" ry="18"/>
<text text-anchor="middle" x="279.332" y="-392.3" font-family="Times,serif" font-size="14.00" fill="#2c94b3">AS8218</text>
</a>
</g>
</g>
<!-- AS1764&#45;&gt;AS8218 -->
<g id="edge8" class="edge"><title>AS1764&#45;&gt;AS8218</title>
<path fill="none" stroke="black" stroke-width="0.9" d="M169.913,-225.002C179.227,-256.844 202.043,-323.981 239.685,-369 241.555,-371.237 243.654,-373.374 245.88,-375.396"/>
<polygon fill="black" stroke="black" stroke-width="0.9" points="243.823,-378.234 253.799,-381.804 248.227,-372.793 243.823,-378.234"/>
</g>
<!-- AS2914 -->
<g id="node10" class="node"><title>AS2914</title>
<g id="a_node10"><a xlink:href="/asn/2914" xlink:title="AS2914 ~ NTT America, Inc. [US]">
<ellipse fill="#ffffff" stroke="black" cx="279.332" cy="-234" rx="39.7935" ry="18"/>
<text text-anchor="middle" x="279.332" y="-230.3" font-family="Times,serif" font-size="14.00" fill="#2c94b3">AS2914</text>
</a>
</g>
</g>
<!-- AS1764&#45;&gt;AS2914 -->
<g id="edge9" class="edge"><title>AS1764&#45;&gt;AS2914</title>
<path fill="none" stroke="black" stroke-width="0.9" d="M199.646,-215.248C210.517,-217.838 222.671,-220.735 234.114,-223.462"/>
<polygon fill="black" stroke="black" stroke-width="0.9" points="233.397,-226.889 243.936,-225.803 235.02,-220.08 233.397,-226.889"/>
</g>
<!-- AS8447&#45;&gt;AS3356 -->
<g id="edge23" class="edge"><title>AS8447&#45;&gt;AS3356</title>
<path fill="none" stroke="black" stroke-width="2" d="M199.646,-107.248C210.517,-109.838 222.671,-112.735 234.114,-115.462"/>
<polygon fill="black" stroke="black" stroke-width="2" points="233.397,-118.889 243.936,-117.803 235.02,-112.08 233.397,-118.889"/>
</g>
<!-- AS8447&#45;&gt;AS1299 -->
<g id="edge22" class="edge"><title>AS8447&#45;&gt;AS1299</title>
<path fill="none" stroke="black" stroke-width="2" d="M199.646,-90.7524C210.517,-88.1616 222.671,-85.2649 234.114,-82.5379"/>
<polygon fill="black" stroke="black" stroke-width="2" points="235.02,-85.9201 243.936,-80.1971 233.397,-79.1108 235.02,-85.9201"/>
</g>
<!-- AS6762 -->
<g id="node18" class="node"><title>AS6762</title>
<g id="a_node18"><a xlink:href="/asn/6762" xlink:title="AS6762 ~ TELECOM ITALIA SPARKLE S.p.A. [IT]">
<ellipse fill="#ffffff" stroke="black" cx="279.332" cy="-18" rx="39.7935" ry="18"/>
<text text-anchor="middle" x="279.332" y="-14.3" font-family="Times,serif" font-size="14.00" fill="#2c94b3">AS6762</text>
</a>
</g>
</g>
<!-- AS8447&#45;&gt;AS6762 -->
<g id="edge24" class="edge"><title>AS8447&#45;&gt;AS6762</title>
<path fill="none" stroke="black" d="M185.887,-83.7781C200.821,-72.9088 221.435,-57.9753 239.685,-45 242.506,-42.9948 245.449,-40.9154 248.397,-38.8411"/>
<polygon fill="black" stroke="black" points="250.443,-41.6812 256.621,-33.0744 246.424,-35.9497 250.443,-41.6812"/>
</g>
<!-- AS3491 -->
<g id="node11" class="node"><title>AS3491</title>
<g id="a_node11"><a xlink:href="/asn/3491" xlink:title="AS3491 ~ PCCW Global, Inc. [US]">
<ellipse fill="#ffffff" stroke="black" cx="394.625" cy="-342" rx="39.7935" ry="18"/>
<text text-anchor="middle" x="394.625" y="-338.3" font-family="Times,serif" font-size="14.00" fill="#2c94b3">AS3491</text>
</a>
</g>
</g>
<!-- AS3257&#45;&gt;AS3491 -->
<g id="edge10" class="edge"><title>AS3257&#45;&gt;AS3491</title>
<path fill="none" stroke="black" d="M305.262,-193.882C310.338,-197.611 315.256,-202.016 318.978,-207 349.249,-247.542 324.707,-274.458 354.978,-315 356.723,-317.336 358.73,-319.545 360.893,-321.617"/>
<polygon fill="black" stroke="black" points="358.771,-324.405 368.694,-328.118 363.253,-319.027 358.771,-324.405"/>
</g>
<!-- AS2497 -->
<g id="node12" class="node"><title>AS2497</title>
<g id="a_node12"><a xlink:href="/asn/2497" xlink:title="AS2497 ~ Internet Initiative Japan Inc. [JP]">
<ellipse fill="#ffffff" stroke="black" cx="394.625" cy="-180" rx="39.7935" ry="18"/>
<text text-anchor="middle" x="394.625" y="-176.3" font-family="Times,serif" font-size="14.00" fill="#2c94b3">AS2497</text>
</a>
</g>
</g>
<!-- AS3257&#45;&gt;AS2497 -->
<g id="edge11" class="edge"><title>AS3257&#45;&gt;AS2497</title>
<path fill="none" stroke="black" d="M319.004,-180C327.207,-180 335.971,-180 344.503,-180"/>
<polygon fill="black" stroke="black" points="344.742,-183.5 354.742,-180 344.742,-176.5 344.742,-183.5"/>
</g>
<!-- AS3356&#45;&gt;AS2497 -->
<g id="edge19" class="edge"><title>AS3356&#45;&gt;AS2497</title>
<path fill="none" stroke="black" d="M307.468,-138.934C322.462,-146.081 341.283,-155.052 357.506,-162.785"/>
<polygon fill="black" stroke="black" points="356.177,-166.028 366.71,-167.171 359.188,-159.709 356.177,-166.028"/>
</g>
<!-- AS701 -->
<g id="node13" class="node"><title>AS701</title>
<g id="a_node13"><a xlink:href="/asn/701" xlink:title="AS701 ~ UUNET [US]">
<ellipse fill="#ffffff" stroke="black" cx="394.625" cy="-234" rx="35.194" ry="18"/>
<text text-anchor="middle" x="394.625" y="-230.3" font-family="Times,serif" font-size="14.00" fill="#2c94b3">AS701</text>
</a>
</g>
</g>
<!-- AS3356&#45;&gt;AS701 -->
<g id="edge17" class="edge"><title>AS3356&#45;&gt;AS701</title>
<path fill="none" stroke="black" d="M303.926,-140.389C309.182,-144.148 314.513,-148.437 318.978,-153 339.151,-173.617 334.806,-186.383 354.978,-207 357.457,-209.534 360.204,-211.983 363.056,-214.304"/>
<polygon fill="black" stroke="black" points="361.148,-217.248 371.242,-220.468 365.359,-211.657 361.148,-217.248"/>
</g>
<!-- AS1239 -->
<g id="node14" class="node"><title>AS1239</title>
<g id="a_node14"><a xlink:href="/asn/1239" xlink:title="AS1239 ~ Sprint [US]">
<ellipse fill="#ffffff" stroke="black" cx="394.625" cy="-288" rx="39.7935" ry="18"/>
<text text-anchor="middle" x="394.625" y="-284.3" font-family="Times,serif" font-size="14.00" fill="#2c94b3">AS1239</text>
</a>
</g>
</g>
<!-- AS3356&#45;&gt;AS1239 -->
<g id="edge20" class="edge"><title>AS3356&#45;&gt;AS1239</title>
<path fill="none" stroke="black" d="M305.262,-139.882C310.338,-143.611 315.256,-148.016 318.978,-153 349.249,-193.542 324.707,-220.458 354.978,-261 356.723,-263.336 358.73,-265.545 360.893,-267.617"/>
<polygon fill="black" stroke="black" points="358.771,-270.405 368.694,-274.118 363.253,-265.027 358.771,-270.405"/>
</g>
<!-- AS3549 -->
<g id="node16" class="node"><title>AS3549</title>
<g id="a_node16"><a xlink:href="/asn/3549" xlink:title="AS3549 ~ Level 3 Parent, LLC [US]">
<ellipse fill="#ffffff" stroke="black" cx="394.625" cy="-72" rx="39.7935" ry="18"/>
<text text-anchor="middle" x="394.625" y="-68.3" font-family="Times,serif" font-size="14.00" fill="#2c94b3">AS3549</text>
</a>
</g>
</g>
<!-- AS3356&#45;&gt;AS3549 -->
<g id="edge18" class="edge"><title>AS3356&#45;&gt;AS3549</title>
<path fill="none" stroke="black" d="M307.468,-113.066C322.462,-105.919 341.283,-96.9481 357.506,-89.2154"/>
<polygon fill="black" stroke="black" points="359.188,-92.291 366.71,-84.8288 356.177,-85.972 359.188,-92.291"/>
</g>
<!-- AS6453 -->
<g id="node17" class="node"><title>AS6453</title>
<g id="a_node17"><a xlink:href="/asn/6453" xlink:title="AS6453 ~ TATA COMMUNICATIONS (AMERICA) INC [US]">
<ellipse fill="#ffffff" stroke="black" cx="394.625" cy="-126" rx="39.7935" ry="18"/>
<text text-anchor="middle" x="394.625" y="-122.3" font-family="Times,serif" font-size="14.00" fill="#2c94b3">AS6453</text>
</a>
</g>
</g>
<!-- AS3356&#45;&gt;AS6453 -->
<g id="edge21" class="edge"><title>AS3356&#45;&gt;AS6453</title>
<path fill="none" stroke="black" d="M319.004,-126C327.207,-126 335.971,-126 344.503,-126"/>
<polygon fill="black" stroke="black" points="344.742,-129.5 354.742,-126 344.742,-122.5 344.742,-129.5"/>
</g>
<!-- AS3320&#45;&gt;AS701 -->
<g id="edge12" class="edge"><title>AS3320&#45;&gt;AS701</title>
<path fill="none" stroke="black" d="M307.468,-275.066C322.9,-267.71 342.385,-258.423 358.92,-250.541"/>
<polygon fill="black" stroke="black" points="360.741,-253.551 368.262,-246.089 357.729,-247.232 360.741,-253.551"/>
</g>
<!-- AS3320&#45;&gt;AS1239 -->
<g id="edge13" class="edge"><title>AS3320&#45;&gt;AS1239</title>
<path fill="none" stroke="black" d="M319.004,-288C327.207,-288 335.971,-288 344.503,-288"/>
<polygon fill="black" stroke="black" points="344.742,-291.5 354.742,-288 344.742,-284.5 344.742,-291.5"/>
</g>
<!-- AS174&#45;&gt;AS3491 -->
<g id="edge14" class="edge"><title>AS174&#45;&gt;AS3491</title>
<path fill="none" stroke="black" d="M314.631,-342C324.008,-342 334.358,-342 344.393,-342"/>
<polygon fill="black" stroke="black" points="344.681,-345.5 354.681,-342 344.681,-338.5 344.681,-345.5"/>
</g>
<!-- AS174&#45;&gt;AS1239 -->
<g id="edge15" class="edge"><title>AS174&#45;&gt;AS1239</title>
<path fill="none" stroke="black" d="M305.757,-329.881C321.059,-322.587 340.783,-313.186 357.665,-305.14"/>
<polygon fill="black" stroke="black" points="359.184,-308.293 366.705,-300.831 356.172,-301.974 359.184,-308.293"/>
</g>
<!-- AS7018 -->
<g id="node19" class="node"><title>AS7018</title>
<g id="a_node19"><a xlink:href="/asn/7018" xlink:title="AS7018 ~ AT&amp;T Services, Inc. [US]">
<ellipse fill="#ffffff" stroke="black" cx="394.625" cy="-18" rx="39.7935" ry="18"/>
<text text-anchor="middle" x="394.625" y="-14.3" font-family="Times,serif" font-size="14.00" fill="#2c94b3">AS7018</text>
</a>
</g>
</g>
<!-- AS1299&#45;&gt;AS7018 -->
<g id="edge25" class="edge"><title>AS1299&#45;&gt;AS7018</title>
<path fill="none" stroke="black" d="M307.468,-59.0657C322.462,-51.9189 341.283,-42.9481 357.506,-35.2154"/>
<polygon fill="black" stroke="black" points="359.188,-38.291 366.71,-30.8288 356.177,-31.972 359.188,-38.291"/>
</g>
<!-- AS6461 -->
<g id="node15" class="node"><title>AS6461</title>
<g id="a_node15"><a xlink:href="/asn/6461" xlink:title="AS6461 ~ Zayo Bandwidth [US]">
<ellipse fill="#ffffff" stroke="black" cx="394.625" cy="-396" rx="39.7935" ry="18"/>
<text text-anchor="middle" x="394.625" y="-392.3" font-family="Times,serif" font-size="14.00" fill="#2c94b3">AS6461</text>
</a>
</g>
</g>
<!-- AS8218&#45;&gt;AS6461 -->
<g id="edge16" class="edge"><title>AS8218&#45;&gt;AS6461</title>
<path fill="none" stroke="black" d="M319.004,-396C327.207,-396 335.971,-396 344.503,-396"/>
<polygon fill="black" stroke="black" points="344.742,-399.5 354.742,-396 344.742,-392.5 344.742,-399.5"/>
</g>
</g>
</svg>
