<?xml version="1.0" encoding="UTF-8" standalone="no"?>
<!DOCTYPE svg PUBLIC "-//W3C//DTD SVG 1.1//EN"
 "http://www.w3.org/Graphics/SVG/1.1/DTD/svg11.dtd">
<!-- Generated by graphviz version 2.38.0 (20140413.2041)
 -->
<!-- Title: AS204136 Combined Upstream Graph Pages: 1 -->
<svg width="831pt" height="906pt"
 viewBox="0.00 0.00 831.05 906.44" xmlns="http://www.w3.org/2000/svg" xmlns:xlink="http://www.w3.org/1999/xlink">
<g id="graph0" class="graph" transform="scale(1 1) rotate(0) translate(4 902.442)">
<title>AS204136 Combined Upstream Graph</title>
<polygon fill="white" stroke="none" points="-4,4 -4,-902.442 827.046,-902.442 827.046,4 -4,4"/>
<!-- AS204136 -->
<g id="node1" class="node"><title>AS204136</title>
<g id="a_node1"><a xlink:href="/asn/204136" xlink:title="AS204136 ~ SILENT&#45;GHOST&#45;AS [AT]">
<ellipse fill="#ffffff" stroke="black" cx="48.0957" cy="-174" rx="48.1917" ry="18"/>
<text text-anchor="middle" x="48.0957" y="-170.3" font-family="Times,serif" font-size="14.00" fill="#880000">AS204136</text>
</a>
</g>
</g>
<!-- AS20473 -->
<g id="node2" class="node"><title>AS20473</title>
<g id="a_node2"><a xlink:href="/asn/20473" xlink:title="AS20473 ~ Choopa, LLC [US]">
<ellipse fill="#ffffff" stroke="black" cx="308.579" cy="-328" rx="44.393" ry="18"/>
<text text-anchor="middle" x="308.579" y="-324.3" font-family="Times,serif" font-size="14.00" fill="#2c94b3">AS20473</text>
</a>
</g>
</g>
<!-- AS204136&#45;&gt;AS20473 -->
<g id="edge1" class="edge"><title>AS204136&#45;&gt;AS20473</title>
<path fill="none" stroke="black" stroke-width="4.10294" d="M74.8251,-189.329C121.806,-217.319 221.451,-276.686 273.815,-307.884"/>
<polygon fill="black" stroke="black" stroke-width="4.10294" points="272.286,-311.152 282.714,-313.186 275.961,-304.983 272.286,-311.152"/>
</g>
<!-- AS43350 -->
<g id="node3" class="node"><title>AS43350</title>
<g id="a_node3"><a xlink:href="/asn/43350" xlink:title="AS43350 ~ NForce Entertainment B.V. [NL]">
<ellipse fill="#ffffff" stroke="black" cx="180.287" cy="-576" rx="44.393" ry="18"/>
<text text-anchor="middle" x="180.287" y="-572.3" font-family="Times,serif" font-size="14.00" fill="#2c94b3">AS43350</text>
</a>
</g>
</g>
<!-- AS204136&#45;&gt;AS43350 -->
<g id="edge2" class="edge"><title>AS204136&#45;&gt;AS43350</title>
<path fill="none" stroke="black" stroke-width="4.5" d="M54.9427,-192.054C75.5935,-255.819 145.204,-470.76 170.231,-548.036"/>
<polygon fill="black" stroke="black" stroke-width="4.5" points="166.629,-549.695 173.456,-557.996 174.121,-547.269 166.629,-549.695"/>
</g>
<!-- AS61138 -->
<g id="node4" class="node"><title>AS61138</title>
<g id="a_node4"><a xlink:href="/asn/61138" xlink:title="AS61138 ~ Zappie Host [GB]">
<ellipse fill="#ffffff" stroke="black" cx="180.287" cy="-140" rx="44.393" ry="18"/>
<text text-anchor="middle" x="180.287" y="-136.3" font-family="Times,serif" font-size="14.00" fill="#2c94b3">AS61138</text>
</a>
</g>
</g>
<!-- AS204136&#45;&gt;AS61138 -->
<g id="edge3" class="edge"><title>AS204136&#45;&gt;AS61138</title>
<path fill="none" stroke="black" stroke-width="0.132353" d="M88.1575,-163.799C102.154,-160.144 118.074,-155.986 132.648,-152.18"/>
<polygon fill="black" stroke="black" stroke-width="0.132353" points="133.691,-155.525 142.483,-149.612 131.923,-148.752 133.691,-155.525"/>
</g>
<!-- AS203629 -->
<g id="node5" class="node"><title>AS203629</title>
<g id="a_node5"><a xlink:href="/asn/203629" xlink:title="AS203629 ~ TerraHost AS [NO]">
<ellipse fill="#ffffff" stroke="black" cx="180.287" cy="-41" rx="48.1917" ry="18"/>
<text text-anchor="middle" x="180.287" y="-37.3" font-family="Times,serif" font-size="14.00" fill="#2c94b3">AS203629</text>
</a>
</g>
</g>
<!-- AS204136&#45;&gt;AS203629 -->
<g id="edge4" class="edge"><title>AS204136&#45;&gt;AS203629</title>
<path fill="none" stroke="black" stroke-width="0.132353" d="M65.5846,-157.155C88.253,-133.998 129.192,-92.1759 155.266,-65.5395"/>
<polygon fill="black" stroke="black" stroke-width="0.132353" points="158.027,-67.7224 162.521,-58.1279 153.025,-62.8257 158.027,-67.7224"/>
</g>
<!-- AS1299 -->
<g id="node6" class="node"><title>AS1299</title>
<g id="a_node6"><a xlink:href="/asn/1299" xlink:title="AS1299 ~ Telia Carrier [EU]">
<ellipse fill="#ffffff" stroke="black" cx="428.422" cy="-578" rx="39.7935" ry="18"/>
<text text-anchor="middle" x="428.422" y="-574.3" font-family="Times,serif" font-size="14.00" fill="#2c94b3">AS1299</text>
</a>
</g>
</g>
<!-- AS20473&#45;&gt;AS1299 -->
<g id="edge5" class="edge"><title>AS20473&#45;&gt;AS1299</title>
<path fill="none" stroke="black" stroke-width="3" d="M312.141,-345.962C318.65,-386.298 338.975,-485.642 388.775,-551 390.542,-553.319 392.566,-555.516 394.741,-557.579"/>
<polygon fill="black" stroke="black" stroke-width="3" points="392.63,-560.376 402.563,-564.064 397.098,-554.987 392.63,-560.376"/>
</g>
<!-- AS3356 -->
<g id="node7" class="node"><title>AS3356</title>
<g id="a_node7"><a xlink:href="/asn/3356" xlink:title="AS3356 ~ Level 3 Parent, LLC [US]">
<ellipse fill="#ffffff" stroke="black" cx="428.422" cy="-387" rx="39.7935" ry="18"/>
<text text-anchor="middle" x="428.422" y="-383.3" font-family="Times,serif" font-size="14.00" fill="#2c94b3">AS3356</text>
</a>
</g>
</g>
<!-- AS20473&#45;&gt;AS3356 -->
<g id="edge6" class="edge"><title>AS20473&#45;&gt;AS3356</title>
<path fill="none" stroke="black" stroke-width="4.5" d="M337.208,-341.833C353.509,-349.994 374.312,-360.41 391.833,-369.182"/>
<polygon fill="black" stroke="black" stroke-width="4.5" points="390.475,-372.905 401.179,-373.861 394,-365.863 390.475,-372.905"/>
</g>
<!-- AS3257 -->
<g id="node8" class="node"><title>AS3257</title>
<g id="a_node8"><a xlink:href="/asn/3257" xlink:title="AS3257 ~ GTT [DE]">
<ellipse fill="#ffffff" stroke="black" cx="428.422" cy="-751" rx="39.7935" ry="18"/>
<text text-anchor="middle" x="428.422" y="-747.3" font-family="Times,serif" font-size="14.00" fill="#2c94b3">AS3257</text>
</a>
</g>
</g>
<!-- AS20473&#45;&gt;AS3257 -->
<g id="edge7" class="edge"><title>AS20473&#45;&gt;AS3257</title>
<path fill="none" stroke="black" stroke-width="1.5" d="M314.567,-345.906C332.973,-411.972 397.162,-642.384 419.604,-722.938"/>
<polygon fill="black" stroke="black" stroke-width="1.5" points="416.311,-724.159 422.366,-732.853 423.054,-722.281 416.311,-724.159"/>
</g>
<!-- AS3491 -->
<g id="node9" class="node"><title>AS3491</title>
<g id="a_node9"><a xlink:href="/asn/3491" xlink:title="AS3491 ~ PCCW Global, Inc. [US]">
<ellipse fill="#ffffff" stroke="black" cx="778.85" cy="-210" rx="39.7935" ry="18"/>
<text text-anchor="middle" x="778.85" y="-206.3" font-family="Times,serif" font-size="14.00" fill="#2c94b3">AS3491</text>
</a>
</g>
</g>
<!-- AS20473&#45;&gt;AS3491 -->
<g id="edge8" class="edge"><title>AS20473&#45;&gt;AS3491</title>
<path fill="none" stroke="black" stroke-width="0.5" d="M315.228,-309.948C325.776,-278.341 350.886,-212.061 388.775,-167 429.577,-118.475 443.785,-102.632 504.068,-83 588.194,-55.6039 624.894,-76.1417 698.654,-125 722.86,-141.034 744.885,-165.913 759.528,-184.619"/>
<polygon fill="black" stroke="black" stroke-width="0.5" points="756.867,-186.901 765.717,-192.725 762.431,-182.653 756.867,-186.901"/>
</g>
<!-- AS2914 -->
<g id="node10" class="node"><title>AS2914</title>
<g id="a_node10"><a xlink:href="/asn/2914" xlink:title="AS2914 ~ NTT America, Inc. [US]">
<ellipse fill="#ffffff" stroke="black" cx="659.007" cy="-624" rx="39.7935" ry="18"/>
<text text-anchor="middle" x="659.007" y="-620.3" font-family="Times,serif" font-size="14.00" fill="#2c94b3">AS2914</text>
</a>
</g>
</g>
<!-- AS20473&#45;&gt;AS2914 -->
<g id="edge9" class="edge"><title>AS20473&#45;&gt;AS2914</title>
<path fill="none" stroke="black" stroke-width="3" d="M333.537,-313.136C385.293,-283.126 508.871,-223.052 583.361,-283 632.298,-322.384 650.928,-521.594 656.244,-595.954"/>
<polygon fill="black" stroke="black" stroke-width="3" points="652.756,-596.25 656.934,-605.986 659.74,-595.769 652.756,-596.25"/>
</g>
<!-- AS174 -->
<g id="node11" class="node"><title>AS174</title>
<g id="a_node11"><a xlink:href="/asn/174" xlink:title="AS174 ~ Cogent Communications [US]">
<ellipse fill="#ffffff" stroke="black" cx="428.422" cy="-524" rx="35.194" ry="18"/>
<text text-anchor="middle" x="428.422" y="-520.3" font-family="Times,serif" font-size="14.00" fill="#2c94b3">AS174</text>
</a>
</g>
</g>
<!-- AS20473&#45;&gt;AS174 -->
<g id="edge10" class="edge"><title>AS20473&#45;&gt;AS174</title>
<path fill="none" stroke="black" stroke-width="2" d="M320.037,-345.394C340.836,-379.987 387.485,-457.575 411.882,-498.154"/>
<polygon fill="black" stroke="black" stroke-width="2" points="409.003,-500.158 417.156,-506.925 415.002,-496.551 409.003,-500.158"/>
</g>
<!-- AS2516 -->
<g id="node12" class="node"><title>AS2516</title>
<g id="a_node12"><a xlink:href="/asn/2516" xlink:title="AS2516 ~ APNIC&#45;AS&#45;X&#45;BLOCK [AU]">
<ellipse fill="#ffffff" stroke="black" cx="543.715" cy="-110" rx="39.7935" ry="18"/>
<text text-anchor="middle" x="543.715" y="-106.3" font-family="Times,serif" font-size="14.00" fill="#2c94b3">AS2516</text>
</a>
</g>
</g>
<!-- AS20473&#45;&gt;AS2516 -->
<g id="edge11" class="edge"><title>AS20473&#45;&gt;AS2516</title>
<path fill="none" stroke="black" d="M324.858,-311.203C356.6,-276.724 432.682,-196.228 504.068,-137 506.588,-134.91 509.263,-132.813 511.985,-130.764"/>
<polygon fill="black" stroke="black" points="514.146,-133.52 520.177,-124.809 510.03,-127.858 514.146,-133.52"/>
</g>
<!-- AS43350&#45;&gt;AS3257 -->
<g id="edge37" class="edge"><title>AS43350&#45;&gt;AS3257</title>
<path fill="none" stroke="black" stroke-width="4" d="M201.97,-591.746C218.692,-604.4 242.903,-622.55 264.383,-638 310.323,-671.043 364.458,-708.223 397.342,-730.615"/>
<polygon fill="black" stroke="black" stroke-width="4" points="395.39,-733.52 405.627,-736.25 399.327,-727.732 395.39,-733.52"/>
</g>
<!-- AS43350&#45;&gt;AS2914 -->
<g id="edge38" class="edge"><title>AS43350&#45;&gt;AS2914</title>
<path fill="none" stroke="black" stroke-width="1.5" d="M191.484,-593.499C217.608,-636.209 291.765,-744.723 388.775,-778 470.58,-806.061 510.133,-825.012 583.361,-779 627.785,-751.087 646.39,-688.501 653.692,-651.968"/>
<polygon fill="black" stroke="black" stroke-width="1.5" points="657.165,-652.438 655.538,-641.969 650.281,-651.167 657.165,-652.438"/>
</g>
<!-- AS43350&#45;&gt;AS174 -->
<g id="edge34" class="edge"><title>AS43350&#45;&gt;AS174</title>
<path fill="none" stroke="black" stroke-width="4.5" d="M213.697,-564.119C228.919,-558.888 247.411,-553.03 264.383,-549 304.231,-539.537 350.442,-532.845 383.469,-528.781"/>
<polygon fill="black" stroke="black" stroke-width="4.5" points="384.244,-532.653 393.704,-527.553 383.307,-524.834 384.244,-532.653"/>
</g>
<!-- AS6762 -->
<g id="node13" class="node"><title>AS6762</title>
<g id="a_node13"><a xlink:href="/asn/6762" xlink:title="AS6762 ~ TELECOM ITALIA SPARKLE S.p.A. [IT]">
<ellipse fill="#ffffff" stroke="black" cx="543.715" cy="-624" rx="39.7935" ry="18"/>
<text text-anchor="middle" x="543.715" y="-620.3" font-family="Times,serif" font-size="14.00" fill="#2c94b3">AS6762</text>
</a>
</g>
</g>
<!-- AS43350&#45;&gt;AS6762 -->
<g id="edge35" class="edge"><title>AS43350&#45;&gt;AS6762</title>
<path fill="none" stroke="black" stroke-width="1.5" d="M213.172,-588.338C228.44,-593.732 247.12,-599.595 264.383,-603 343.662,-618.637 437.754,-622.813 493.724,-623.824"/>
<polygon fill="black" stroke="black" stroke-width="1.5" points="494.004,-627.329 504.056,-623.982 494.111,-620.329 494.004,-627.329"/>
</g>
<!-- AS6461 -->
<g id="node22" class="node"><title>AS6461</title>
<g id="a_node22"><a xlink:href="/asn/6461" xlink:title="AS6461 ~ Zayo Bandwidth [US]">
<ellipse fill="#ffffff" stroke="black" cx="543.715" cy="-218" rx="39.7935" ry="18"/>
<text text-anchor="middle" x="543.715" y="-214.3" font-family="Times,serif" font-size="14.00" fill="#2c94b3">AS6461</text>
</a>
</g>
</g>
<!-- AS43350&#45;&gt;AS6461 -->
<g id="edge33" class="edge"><title>AS43350&#45;&gt;AS6461</title>
<path fill="none" stroke="black" stroke-width="1.5" d="M181.449,-557.868C182.867,-509.488 193.365,-375.935 264.383,-301 324.551,-237.513 430.972,-221.955 493.339,-218.522"/>
<polygon fill="black" stroke="black" stroke-width="1.5" points="493.876,-222.001 503.703,-218.041 493.552,-215.008 493.876,-222.001"/>
</g>
<!-- AS33891 -->
<g id="node23" class="node"><title>AS33891</title>
<g id="a_node23"><a xlink:href="/asn/33891" xlink:title="AS33891 ~ CORE&#45;BACKBONE GMBH GLOBAL NETWORK [DE]">
<ellipse fill="#ffffff" stroke="black" cx="308.579" cy="-576" rx="44.393" ry="18"/>
<text text-anchor="middle" x="308.579" y="-572.3" font-family="Times,serif" font-size="14.00" fill="#2c94b3">AS33891</text>
</a>
</g>
</g>
<!-- AS43350&#45;&gt;AS33891 -->
<g id="edge36" class="edge"><title>AS43350&#45;&gt;AS33891</title>
<path fill="none" stroke="black" stroke-width="4" d="M224.75,-576C234.176,-576 244.252,-576 254.016,-576"/>
<polygon fill="black" stroke="black" stroke-width="4" points="254.036,-579.5 264.036,-576 254.036,-572.5 254.036,-579.5"/>
</g>
<!-- AS45177 -->
<g id="node24" class="node"><title>AS45177</title>
<g id="a_node24"><a xlink:href="/asn/45177" xlink:title="AS45177 ~ Devoli [NZ]">
<ellipse fill="#ffffff" stroke="black" cx="308.579" cy="-103" rx="44.393" ry="18"/>
<text text-anchor="middle" x="308.579" y="-99.3" font-family="Times,serif" font-size="14.00" fill="#2c94b3">AS45177</text>
</a>
</g>
</g>
<!-- AS61138&#45;&gt;AS45177 -->
<g id="edge43" class="edge"><title>AS61138&#45;&gt;AS45177</title>
<path fill="none" stroke="black" d="M216.803,-129.595C231.046,-125.422 247.626,-120.564 262.69,-116.151"/>
<polygon fill="black" stroke="black" points="263.718,-119.497 272.33,-113.327 261.749,-112.78 263.718,-119.497"/>
</g>
<!-- AS6939 -->
<g id="node27" class="node"><title>AS6939</title>
<g id="a_node27"><a xlink:href="/asn/6939" xlink:title="AS6939 ~ Hurricane Electric LLC [US]">
<ellipse fill="#ffffff" stroke="black" cx="659.007" cy="-18" rx="39.7935" ry="18"/>
<text text-anchor="middle" x="659.007" y="-14.3" font-family="Times,serif" font-size="14.00" fill="#2c94b3">AS6939</text>
</a>
</g>
</g>
<!-- AS203629&#45;&gt;AS6939 -->
<g id="edge50" class="edge"><title>AS203629&#45;&gt;AS6939</title>
<path fill="none" stroke="black" d="M228.302,-38.7317C319.001,-34.3558 517.285,-24.7893 609.303,-20.3498"/>
<polygon fill="black" stroke="black" points="609.637,-23.8379 619.457,-19.8599 609.3,-16.846 609.637,-23.8379"/>
</g>
<!-- AS1299&#45;&gt;AS6762 -->
<g id="edge20" class="edge"><title>AS1299&#45;&gt;AS6762</title>
<path fill="none" stroke="black" d="M458.597,-589.846C472.473,-595.48 489.25,-602.292 504.159,-608.346"/>
<polygon fill="black" stroke="black" points="503.056,-611.675 513.638,-612.194 505.689,-605.189 503.056,-611.675"/>
</g>
<!-- AS1239 -->
<g id="node18" class="node"><title>AS1239</title>
<g id="a_node18"><a xlink:href="/asn/1239" xlink:title="AS1239 ~ Sprint [US]">
<ellipse fill="#ffffff" stroke="black" cx="543.715" cy="-678" rx="39.7935" ry="18"/>
<text text-anchor="middle" x="543.715" y="-674.3" font-family="Times,serif" font-size="14.00" fill="#2c94b3">AS1239</text>
</a>
</g>
</g>
<!-- AS1299&#45;&gt;AS1239 -->
<g id="edge21" class="edge"><title>AS1299&#45;&gt;AS1239</title>
<path fill="none" stroke="black" d="M444.727,-594.455C459.34,-609.796 482.296,-632.956 504.068,-651 506.589,-653.089 509.265,-655.184 511.987,-657.233"/>
<polygon fill="black" stroke="black" points="510.033,-660.139 520.18,-663.187 514.148,-654.477 510.033,-660.139"/>
</g>
<!-- AS7018 -->
<g id="node19" class="node"><title>AS7018</title>
<g id="a_node19"><a xlink:href="/asn/7018" xlink:title="AS7018 ~ AT&amp;T Services, Inc. [US]">
<ellipse fill="#ffffff" stroke="black" cx="543.715" cy="-732" rx="39.7935" ry="18"/>
<text text-anchor="middle" x="543.715" y="-728.3" font-family="Times,serif" font-size="14.00" fill="#2c94b3">AS7018</text>
</a>
</g>
</g>
<!-- AS1299&#45;&gt;AS7018 -->
<g id="edge22" class="edge"><title>AS1299&#45;&gt;AS7018</title>
<path fill="none" stroke="black" stroke-width="2" d="M436.989,-595.996C448.609,-622.143 472.818,-671.197 504.068,-705 506.099,-707.197 508.339,-709.318 510.686,-711.339"/>
<polygon fill="black" stroke="black" stroke-width="2" points="508.898,-714.384 518.931,-717.791 513.213,-708.872 508.898,-714.384"/>
</g>
<!-- AS3356&#45;&gt;AS6762 -->
<g id="edge12" class="edge"><title>AS3356&#45;&gt;AS6762</title>
<path fill="none" stroke="black" stroke-width="2" d="M435.637,-404.709C453.284,-454.963 502.529,-594.98 504.068,-597 505.836,-599.319 507.86,-601.515 510.034,-603.579"/>
<polygon fill="black" stroke="black" stroke-width="2" points="507.924,-606.376 517.857,-610.063 512.392,-600.987 507.924,-606.376"/>
</g>
<!-- AS209 -->
<g id="node14" class="node"><title>AS209</title>
<g id="a_node14"><a xlink:href="/asn/209" xlink:title="AS209 ~ CenturyLink Communications, LLC [US]">
<ellipse fill="#ffffff" stroke="black" cx="543.715" cy="-310" rx="35.194" ry="18"/>
<text text-anchor="middle" x="543.715" y="-306.3" font-family="Times,serif" font-size="14.00" fill="#2c94b3">AS209</text>
</a>
</g>
</g>
<!-- AS3356&#45;&gt;AS209 -->
<g id="edge13" class="edge"><title>AS3356&#45;&gt;AS209</title>
<path fill="none" stroke="black" stroke-width="4" d="M451.266,-372.154C468.886,-360.178 493.841,-343.217 513.232,-330.038"/>
<polygon fill="black" stroke="black" stroke-width="4" points="515.4,-332.796 521.704,-324.28 511.466,-327.007 515.4,-332.796"/>
</g>
<!-- AS2497 -->
<g id="node15" class="node"><title>AS2497</title>
<g id="a_node15"><a xlink:href="/asn/2497" xlink:title="AS2497 ~ Internet Initiative Japan Inc. [JP]">
<ellipse fill="#ffffff" stroke="black" cx="778.85" cy="-410" rx="39.7935" ry="18"/>
<text text-anchor="middle" x="778.85" y="-406.3" font-family="Times,serif" font-size="14.00" fill="#2c94b3">AS2497</text>
</a>
</g>
</g>
<!-- AS3356&#45;&gt;AS2497 -->
<g id="edge14" class="edge"><title>AS3356&#45;&gt;AS2497</title>
<path fill="none" stroke="black" stroke-width="2" d="M467.706,-389.527C531.435,-393.734 659.174,-402.166 729.192,-406.788"/>
<polygon fill="black" stroke="black" stroke-width="2" points="729.293,-410.302 739.502,-407.469 729.754,-403.317 729.293,-410.302"/>
</g>
<!-- AS3549 -->
<g id="node16" class="node"><title>AS3549</title>
<g id="a_node16"><a xlink:href="/asn/3549" xlink:title="AS3549 ~ Level 3 Parent, LLC [US]">
<ellipse fill="#ffffff" stroke="black" cx="543.715" cy="-364" rx="39.7935" ry="18"/>
<text text-anchor="middle" x="543.715" y="-360.3" font-family="Times,serif" font-size="14.00" fill="#2c94b3">AS3549</text>
</a>
</g>
</g>
<!-- AS3356&#45;&gt;AS3549 -->
<g id="edge15" class="edge"><title>AS3356&#45;&gt;AS3549</title>
<path fill="none" stroke="black" stroke-width="3" d="M464.957,-379.786C475.186,-377.709 486.486,-375.415 497.229,-373.234"/>
<polygon fill="black" stroke="black" stroke-width="3" points="498.201,-376.608 507.305,-371.189 496.808,-369.748 498.201,-376.608"/>
</g>
<!-- AS3257&#45;&gt;AS2914 -->
<g id="edge25" class="edge"><title>AS3257&#45;&gt;AS2914</title>
<path fill="none" stroke="black" d="M460.128,-761.995C493.012,-771.742 545.557,-781.295 583.361,-759 622.495,-735.921 642.543,-684.148 651.615,-651.844"/>
<polygon fill="black" stroke="black" points="655.019,-652.663 654.185,-642.101 648.25,-650.878 655.019,-652.663"/>
</g>
<!-- AS3257&#45;&gt;AS2497 -->
<g id="edge23" class="edge"><title>AS3257&#45;&gt;AS2497</title>
<path fill="none" stroke="black" stroke-width="3" d="M455.03,-764.458C486.496,-779.051 540.925,-797.889 583.361,-779 720.51,-717.952 763.073,-513.804 774.303,-438.348"/>
<polygon fill="black" stroke="black" stroke-width="3" points="777.806,-438.573 775.74,-428.181 770.875,-437.593 777.806,-438.573"/>
</g>
<!-- AS12956 -->
<g id="node17" class="node"><title>AS12956</title>
<g id="a_node17"><a xlink:href="/asn/12956" xlink:title="AS12956 ~ TELXIUS [ES]">
<ellipse fill="#ffffff" stroke="black" cx="778.85" cy="-758" rx="44.393" ry="18"/>
<text text-anchor="middle" x="778.85" y="-754.3" font-family="Times,serif" font-size="14.00" fill="#2c94b3">AS12956</text>
</a>
</g>
</g>
<!-- AS3257&#45;&gt;AS12956 -->
<g id="edge26" class="edge"><title>AS3257&#45;&gt;AS12956</title>
<path fill="none" stroke="black" d="M434.737,-768.945C443.873,-796.125 465.404,-846.805 504.068,-868 579.903,-909.572 621.682,-907.429 698.654,-868 732.416,-850.705 755.061,-811.574 767.203,-784.965"/>
<polygon fill="black" stroke="black" points="770.414,-786.357 771.202,-775.792 763.997,-783.56 770.414,-786.357"/>
</g>
<!-- AS3257&#45;&gt;AS7018 -->
<g id="edge24" class="edge"><title>AS3257&#45;&gt;AS7018</title>
<path fill="none" stroke="black" stroke-width="2" d="M465.892,-744.884C475.595,-743.256 486.206,-741.477 496.361,-739.774"/>
<polygon fill="black" stroke="black" stroke-width="2" points="497.029,-743.211 506.313,-738.105 495.871,-736.307 497.029,-743.211"/>
</g>
<!-- AS2914&#45;&gt;AS3491 -->
<g id="edge19" class="edge"><title>AS2914&#45;&gt;AS3491</title>
<path fill="none" stroke="black" d="M665.841,-605.989C673.589,-581.914 687.584,-537.876 698.654,-500 726.666,-404.159 757.042,-289.599 770.603,-237.828"/>
<polygon fill="black" stroke="black" points="774.016,-238.609 773.16,-228.049 767.244,-236.838 774.016,-238.609"/>
</g>
<!-- AS2914&#45;&gt;AS6762 -->
<g id="edge18" class="edge"><title>AS2914&#45;&gt;AS6762</title>
<path fill="none" stroke="black" d="M621.804,-630.343C611.991,-630.75 601.231,-630.852 590.947,-630.648"/>
<polygon fill="black" stroke="black" points="590.974,-627.147 580.873,-630.341 590.762,-634.144 590.974,-627.147"/>
</g>
<!-- AS2914&#45;&gt;AS2497 -->
<g id="edge17" class="edge"><title>AS2914&#45;&gt;AS2497</title>
<path fill="none" stroke="black" stroke-width="2" d="M669.651,-606.487C690.289,-569.009 738.842,-480.839 763.271,-436.475"/>
<polygon fill="black" stroke="black" stroke-width="2" points="766.481,-437.902 768.239,-427.454 760.349,-434.526 766.481,-437.902"/>
</g>
<!-- AS2914&#45;&gt;AS12956 -->
<g id="edge16" class="edge"><title>AS2914&#45;&gt;AS12956</title>
<path fill="none" stroke="black" stroke-width="2" d="M674.694,-640.7C695.159,-663.971 732.401,-706.319 756.094,-733.261"/>
<polygon fill="black" stroke="black" stroke-width="2" points="753.746,-735.891 762.978,-741.089 759.003,-731.269 753.746,-735.891"/>
</g>
<!-- AS174&#45;&gt;AS3491 -->
<g id="edge27" class="edge"><title>AS174&#45;&gt;AS3491</title>
<path fill="none" stroke="black" stroke-width="3" d="M457.23,-513.512C489.657,-500.427 543.845,-475.845 583.361,-444 661.639,-380.918 731.018,-282.306 761.468,-235.853"/>
<polygon fill="black" stroke="black" stroke-width="3" points="764.521,-237.577 767.03,-227.284 758.649,-233.766 764.521,-237.577"/>
</g>
<!-- AS174&#45;&gt;AS2914 -->
<g id="edge32" class="edge"><title>AS174&#45;&gt;AS2914</title>
<path fill="none" stroke="black" d="M463.498,-521.668C496.061,-520.896 545.634,-523.622 583.361,-543 607.885,-555.596 628.461,-579.694 641.758,-598.344"/>
<polygon fill="black" stroke="black" points="638.969,-600.465 647.515,-606.728 644.739,-596.503 638.969,-600.465"/>
</g>
<!-- AS174&#45;&gt;AS6762 -->
<g id="edge30" class="edge"><title>AS174&#45;&gt;AS6762</title>
<path fill="none" stroke="black" d="M451.556,-537.784C457.2,-541.74 463.077,-546.272 468.068,-551 486.916,-568.853 485.22,-579.147 504.068,-597 506.445,-599.251 509.023,-601.458 511.68,-603.58"/>
<polygon fill="black" stroke="black" points="509.672,-606.448 519.772,-609.647 513.871,-600.848 509.672,-606.448"/>
</g>
<!-- AS174&#45;&gt;AS1239 -->
<g id="edge28" class="edge"><title>AS174&#45;&gt;AS1239</title>
<path fill="none" stroke="black" d="M453.059,-537.078C458.558,-540.985 463.989,-545.67 468.068,-551 496.778,-588.511 475.358,-613.489 504.068,-651 505.84,-653.315 507.868,-655.509 510.045,-657.571"/>
<polygon fill="black" stroke="black" points="507.937,-660.37 517.871,-664.052 512.402,-654.978 507.937,-660.37"/>
</g>
<!-- AS701 -->
<g id="node20" class="node"><title>AS701</title>
<g id="a_node20"><a xlink:href="/asn/701" xlink:title="AS701 ~ UUNET [US]">
<ellipse fill="#ffffff" stroke="black" cx="659.007" cy="-203" rx="35.194" ry="18"/>
<text text-anchor="middle" x="659.007" y="-199.3" font-family="Times,serif" font-size="14.00" fill="#2c94b3">AS701</text>
</a>
</g>
</g>
<!-- AS174&#45;&gt;AS701 -->
<g id="edge29" class="edge"><title>AS174&#45;&gt;AS701</title>
<path fill="none" stroke="black" stroke-width="2" d="M451.236,-510.217C484.02,-488.509 546.111,-443.387 583.361,-391 619.448,-340.249 641.358,-269.601 651.416,-230.973"/>
<polygon fill="black" stroke="black" stroke-width="2" points="654.887,-231.522 653.94,-220.97 648.099,-229.809 654.887,-231.522"/>
</g>
<!-- AS6453 -->
<g id="node21" class="node"><title>AS6453</title>
<g id="a_node21"><a xlink:href="/asn/6453" xlink:title="AS6453 ~ TATA COMMUNICATIONS (AMERICA) INC [US]">
<ellipse fill="#ffffff" stroke="black" cx="543.715" cy="-570" rx="39.7935" ry="18"/>
<text text-anchor="middle" x="543.715" y="-566.3" font-family="Times,serif" font-size="14.00" fill="#2c94b3">AS6453</text>
</a>
</g>
</g>
<!-- AS174&#45;&gt;AS6453 -->
<g id="edge31" class="edge"><title>AS174&#45;&gt;AS6453</title>
<path fill="none" stroke="black" d="M456.558,-535.018C470.761,-540.785 488.399,-547.946 504.009,-554.285"/>
<polygon fill="black" stroke="black" points="502.836,-557.586 513.418,-558.105 505.469,-551.1 502.836,-557.586"/>
</g>
<!-- AS2516&#45;&gt;AS2497 -->
<g id="edge47" class="edge"><title>AS2516&#45;&gt;AS2497</title>
<path fill="none" stroke="black" d="M580.753,-116.622C615.489,-124.81 667.272,-142.047 698.654,-176 727.096,-206.773 758.26,-326.904 771.42,-382.049"/>
<polygon fill="black" stroke="black" points="768.032,-382.931 773.734,-391.86 774.845,-381.324 768.032,-382.931"/>
</g>
<!-- AS2516&#45;&gt;AS701 -->
<g id="edge48" class="edge"><title>AS2516&#45;&gt;AS701</title>
<path fill="none" stroke="black" d="M566.697,-124.71C572.227,-128.586 578.088,-132.849 583.361,-137 600.793,-150.723 619.494,-167.261 633.817,-180.349"/>
<polygon fill="black" stroke="black" points="631.559,-183.028 641.288,-187.225 636.3,-177.878 631.559,-183.028"/>
</g>
<!-- AS6762&#45;&gt;AS2914 -->
<g id="edge49" class="edge"><title>AS6762&#45;&gt;AS2914</title>
<path fill="none" stroke="black" d="M580.873,-617.659C590.683,-617.25 601.442,-617.148 611.728,-617.351"/>
<polygon fill="black" stroke="black" points="611.703,-620.852 621.804,-617.657 611.915,-613.855 611.703,-620.852"/>
</g>
<!-- AS6461&#45;&gt;AS2497 -->
<g id="edge41" class="edge"><title>AS6461&#45;&gt;AS2497</title>
<path fill="none" stroke="black" d="M563.793,-233.712C605.222,-267.831 703.508,-348.775 751.104,-387.973"/>
<polygon fill="black" stroke="black" points="748.891,-390.685 758.835,-394.34 753.341,-385.281 748.891,-390.685"/>
</g>
<!-- AS6461&#45;&gt;AS701 -->
<g id="edge42" class="edge"><title>AS6461&#45;&gt;AS701</title>
<path fill="none" stroke="black" d="M582.125,-213.047C592.577,-211.663 604.021,-210.148 614.78,-208.723"/>
<polygon fill="black" stroke="black" points="615.376,-212.175 624.83,-207.393 614.457,-205.236 615.376,-212.175"/>
</g>
<!-- AS33891&#45;&gt;AS1299 -->
<g id="edge40" class="edge"><title>AS33891&#45;&gt;AS1299</title>
<path fill="none" stroke="black" stroke-width="1.5" d="M352.79,-576.733C361.103,-576.874 369.865,-577.023 378.348,-577.167"/>
<polygon fill="black" stroke="black" stroke-width="1.5" points="378.448,-580.669 388.506,-577.34 378.567,-573.67 378.448,-580.669"/>
</g>
<!-- AS33891&#45;&gt;AS3356 -->
<g id="edge39" class="edge"><title>AS33891&#45;&gt;AS3356</title>
<path fill="none" stroke="black" stroke-width="4.5" d="M320.454,-558.558C341.237,-525.225 386.698,-452.314 411.127,-413.134"/>
<polygon fill="black" stroke="black" stroke-width="4.5" points="414.623,-414.969 416.573,-404.4 407.941,-410.802 414.623,-414.969"/>
</g>
<!-- AS1221 -->
<g id="node25" class="node"><title>AS1221</title>
<g id="a_node25"><a xlink:href="/asn/1221" xlink:title="AS1221 ~ Telstra Corporation Ltd [AU]">
<ellipse fill="#ffffff" stroke="black" cx="428.422" cy="-64" rx="39.7935" ry="18"/>
<text text-anchor="middle" x="428.422" y="-60.3" font-family="Times,serif" font-size="14.00" fill="#2c94b3">AS1221</text>
</a>
</g>
</g>
<!-- AS45177&#45;&gt;AS1221 -->
<g id="edge44" class="edge"><title>AS45177&#45;&gt;AS1221</title>
<path fill="none" stroke="black" d="M343.348,-91.8242C356.592,-87.441 371.924,-82.367 385.839,-77.7617"/>
<polygon fill="black" stroke="black" points="387.277,-80.9725 395.671,-74.5078 385.078,-74.327 387.277,-80.9725"/>
</g>
<!-- AS4637 -->
<g id="node26" class="node"><title>AS4637</title>
<g id="a_node26"><a xlink:href="/asn/4637" xlink:title="AS4637 ~ Telstra Global [HK]">
<ellipse fill="#ffffff" stroke="black" cx="543.715" cy="-164" rx="39.7935" ry="18"/>
<text text-anchor="middle" x="543.715" y="-160.3" font-family="Times,serif" font-size="14.00" fill="#2c94b3">AS4637</text>
</a>
</g>
</g>
<!-- AS1221&#45;&gt;AS4637 -->
<g id="edge45" class="edge"><title>AS1221&#45;&gt;AS4637</title>
<path fill="none" stroke="black" d="M444.727,-80.4547C459.34,-95.7956 482.296,-118.956 504.068,-137 506.589,-139.089 509.265,-141.184 511.987,-143.233"/>
<polygon fill="black" stroke="black" points="510.033,-146.139 520.18,-149.187 514.148,-140.477 510.033,-146.139"/>
</g>
<!-- AS4637&#45;&gt;AS701 -->
<g id="edge46" class="edge"><title>AS4637&#45;&gt;AS701</title>
<path fill="none" stroke="black" d="M575.672,-174.657C589.3,-179.348 605.443,-184.905 619.81,-189.851"/>
<polygon fill="black" stroke="black" points="618.824,-193.213 629.419,-193.159 621.103,-186.594 618.824,-193.213"/>
</g>
<!-- AS6939&#45;&gt;AS3491 -->
<g id="edge51" class="edge"><title>AS6939&#45;&gt;AS3491</title>
<path fill="none" stroke="black" d="M681.546,-33.1606C687.568,-38.0718 693.789,-43.8521 698.654,-50 731.422,-91.4102 755.652,-148.569 768.195,-182.173"/>
<polygon fill="black" stroke="black" points="764.992,-183.608 771.709,-191.802 771.568,-181.208 764.992,-183.608"/>
</g>
</g>
</svg>
