<?xml version="1.0" encoding="UTF-8" standalone="no"?>
<!DOCTYPE svg PUBLIC "-//W3C//DTD SVG 1.1//EN"
 "http://www.w3.org/Graphics/SVG/1.1/DTD/svg11.dtd">
<!-- Generated by graphviz version 2.38.0 (20140413.2041)
 -->
<!-- Title: AS60587 IPv6 Upstream Graph Pages: 1 -->
<svg width="442pt" height="476pt"
 viewBox="0.00 0.00 442.27 476.00" xmlns="http://www.w3.org/2000/svg" xmlns:xlink="http://www.w3.org/1999/xlink">
<g id="graph0" class="graph" transform="scale(1 1) rotate(0) translate(4 472)">
<title>AS60587 IPv6 Upstream Graph</title>
<polygon fill="white" stroke="none" points="-4,4 -4,-472 438.271,-472 438.271,4 -4,4"/>
<!-- AS60587 -->
<g id="node1" class="node"><title>AS60587</title>
<g id="a_node1"><a xlink:href="/asn/60587" xlink:title="AS60587 ~ XINON GmbH [AT]">
<ellipse fill="#ffffff" stroke="black" cx="44.1961" cy="-207" rx="44.393" ry="18"/>
<text text-anchor="middle" x="44.1961" y="-203.3" font-family="Times,serif" font-size="14.00" fill="#880000">AS60587</text>
</a>
</g>
</g>
<!-- AS1764 -->
<g id="node2" class="node"><title>AS1764</title>
<g id="a_node2"><a xlink:href="/asn/1764" xlink:title="AS1764 ~ NEXTLAYER&#45;AS [AT]">
<ellipse fill="#ffffff" stroke="black" cx="164.039" cy="-207" rx="39.7935" ry="18"/>
<text text-anchor="middle" x="164.039" y="-203.3" font-family="Times,serif" font-size="14.00" fill="#2c94b3">AS1764</text>
</a>
</g>
</g>
<!-- AS60587&#45;&gt;AS1764 -->
<g id="edge1" class="edge"><title>AS60587&#45;&gt;AS1764</title>
<path fill="none" stroke="black" stroke-width="4.5" d="M88.4072,-207C96.7198,-207 105.482,-207 113.965,-207"/>
<polygon fill="black" stroke="black" stroke-width="4.5" points="114.123,-210.938 124.123,-207 114.123,-203.063 114.123,-210.938"/>
</g>
<!-- AS6939 -->
<g id="node3" class="node"><title>AS6939</title>
<g id="a_node3"><a xlink:href="/asn/6939" xlink:title="AS6939 ~ Hurricane Electric LLC [US]">
<ellipse fill="#ffffff" stroke="black" cx="279.332" cy="-295" rx="39.7935" ry="18"/>
<text text-anchor="middle" x="279.332" y="-291.3" font-family="Times,serif" font-size="14.00" fill="#2c94b3">AS6939</text>
</a>
</g>
</g>
<!-- AS1764&#45;&gt;AS6939 -->
<g id="edge2" class="edge"><title>AS1764&#45;&gt;AS6939</title>
<path fill="none" stroke="black" stroke-width="4.5" d="M185.032,-222.53C203.233,-236.668 230.282,-257.677 250.575,-273.44"/>
<polygon fill="black" stroke="black" stroke-width="4.5" points="248.225,-276.6 258.538,-279.625 253.056,-270.381 248.225,-276.6"/>
</g>
<!-- AS3257 -->
<g id="node4" class="node"><title>AS3257</title>
<g id="a_node4"><a xlink:href="/asn/3257" xlink:title="AS3257 ~ GTT [DE]">
<ellipse fill="#ffffff" stroke="black" cx="279.332" cy="-362" rx="39.7935" ry="18"/>
<text text-anchor="middle" x="279.332" y="-358.3" font-family="Times,serif" font-size="14.00" fill="#2c94b3">AS3257</text>
</a>
</g>
</g>
<!-- AS1764&#45;&gt;AS3257 -->
<g id="edge3" class="edge"><title>AS1764&#45;&gt;AS3257</title>
<path fill="none" stroke="black" stroke-width="3.6" d="M174.941,-224.463C188.393,-247.632 213.754,-289.401 239.685,-322 244.128,-327.585 249.226,-333.279 254.232,-338.554"/>
<polygon fill="black" stroke="black" stroke-width="3.6" points="251.925,-341.202 261.411,-345.92 256.938,-336.316 251.925,-341.202"/>
</g>
<!-- AS3356 -->
<g id="node5" class="node"><title>AS3356</title>
<g id="a_node5"><a xlink:href="/asn/3356" xlink:title="AS3356 ~ Level 3 Parent, LLC [US]">
<ellipse fill="#ffffff" stroke="black" cx="279.332" cy="-234" rx="39.7935" ry="18"/>
<text text-anchor="middle" x="279.332" y="-230.3" font-family="Times,serif" font-size="14.00" fill="#2c94b3">AS3356</text>
</a>
</g>
</g>
<!-- AS1764&#45;&gt;AS3356 -->
<g id="edge4" class="edge"><title>AS1764&#45;&gt;AS3356</title>
<path fill="none" stroke="black" stroke-width="0.9" d="M199.646,-215.248C210.517,-217.838 222.671,-220.735 234.114,-223.462"/>
<polygon fill="black" stroke="black" stroke-width="0.9" points="233.397,-226.889 243.936,-225.803 235.02,-220.08 233.397,-226.889"/>
</g>
<!-- AS1299 -->
<g id="node6" class="node"><title>AS1299</title>
<g id="a_node6"><a xlink:href="/asn/1299" xlink:title="AS1299 ~ Telia Carrier [EU]">
<ellipse fill="#ffffff" stroke="black" cx="279.332" cy="-180" rx="39.7935" ry="18"/>
<text text-anchor="middle" x="279.332" y="-176.3" font-family="Times,serif" font-size="14.00" fill="#2c94b3">AS1299</text>
</a>
</g>
</g>
<!-- AS1764&#45;&gt;AS1299 -->
<g id="edge5" class="edge"><title>AS1764&#45;&gt;AS1299</title>
<path fill="none" stroke="black" stroke-width="1.8" d="M199.646,-198.752C210.517,-196.162 222.671,-193.265 234.114,-190.538"/>
<polygon fill="black" stroke="black" stroke-width="1.8" points="235.02,-193.92 243.936,-188.197 233.397,-187.111 235.02,-193.92"/>
</g>
<!-- AS174 -->
<g id="node7" class="node"><title>AS174</title>
<g id="a_node7"><a xlink:href="/asn/174" xlink:title="AS174 ~ Cogent Communications [US]">
<ellipse fill="#ffffff" stroke="black" cx="279.332" cy="-443" rx="35.194" ry="18"/>
<text text-anchor="middle" x="279.332" y="-439.3" font-family="Times,serif" font-size="14.00" fill="#2c94b3">AS174</text>
</a>
</g>
</g>
<!-- AS1764&#45;&gt;AS174 -->
<g id="edge6" class="edge"><title>AS1764&#45;&gt;AS174</title>
<path fill="none" stroke="black" stroke-width="1.8" d="M170.839,-224.939C181.965,-258.319 208.033,-331.769 239.685,-389 245.182,-398.939 252.171,-409.225 258.69,-418.119"/>
<polygon fill="black" stroke="black" stroke-width="1.8" points="255.928,-420.27 264.733,-426.164 261.526,-416.066 255.928,-420.27"/>
</g>
<!-- AS3320 -->
<g id="node8" class="node"><title>AS3320</title>
<g id="a_node8"><a xlink:href="/asn/3320" xlink:title="AS3320 ~ DTAG [DE]">
<ellipse fill="#ffffff" stroke="black" cx="279.332" cy="-126" rx="39.7935" ry="18"/>
<text text-anchor="middle" x="279.332" y="-122.3" font-family="Times,serif" font-size="14.00" fill="#2c94b3">AS3320</text>
</a>
</g>
</g>
<!-- AS1764&#45;&gt;AS3320 -->
<g id="edge7" class="edge"><title>AS1764&#45;&gt;AS3320</title>
<path fill="none" stroke="black" stroke-width="1.8" d="M185.887,-191.778C200.821,-180.909 221.435,-165.975 239.685,-153 242.506,-150.995 245.449,-148.915 248.397,-146.841"/>
<polygon fill="black" stroke="black" stroke-width="1.8" points="250.443,-149.681 256.621,-141.074 246.424,-143.95 250.443,-149.681"/>
</g>
<!-- AS8218 -->
<g id="node9" class="node"><title>AS8218</title>
<g id="a_node9"><a xlink:href="/asn/8218" xlink:title="AS8218 ~ legacy Neotelecoms [FR]">
<ellipse fill="#ffffff" stroke="black" cx="279.332" cy="-72" rx="39.7935" ry="18"/>
<text text-anchor="middle" x="279.332" y="-68.3" font-family="Times,serif" font-size="14.00" fill="#2c94b3">AS8218</text>
</a>
</g>
</g>
<!-- AS1764&#45;&gt;AS8218 -->
<g id="edge8" class="edge"><title>AS1764&#45;&gt;AS8218</title>
<path fill="none" stroke="black" stroke-width="0.9" d="M174.498,-189.51C187.28,-166.904 211.712,-127.114 239.685,-99 241.796,-96.8786 244.092,-94.8125 246.477,-92.829"/>
<polygon fill="black" stroke="black" stroke-width="0.9" points="248.993,-95.3103 254.793,-86.444 244.73,-89.7583 248.993,-95.3103"/>
</g>
<!-- AS2914 -->
<g id="node10" class="node"><title>AS2914</title>
<g id="a_node10"><a xlink:href="/asn/2914" xlink:title="AS2914 ~ NTT America, Inc. [US]">
<ellipse fill="#ffffff" stroke="black" cx="279.332" cy="-18" rx="39.7935" ry="18"/>
<text text-anchor="middle" x="279.332" y="-14.3" font-family="Times,serif" font-size="14.00" fill="#2c94b3">AS2914</text>
</a>
</g>
</g>
<!-- AS1764&#45;&gt;AS2914 -->
<g id="edge9" class="edge"><title>AS1764&#45;&gt;AS2914</title>
<path fill="none" stroke="black" stroke-width="0.9" d="M169.913,-188.998C179.227,-157.156 202.043,-90.0195 239.685,-45 241.555,-42.7631 243.654,-40.6259 245.88,-38.604"/>
<polygon fill="black" stroke="black" stroke-width="0.9" points="248.227,-41.2075 253.799,-32.1963 243.823,-35.7658 248.227,-41.2075"/>
</g>
<!-- AS6762 -->
<g id="node11" class="node"><title>AS6762</title>
<g id="a_node11"><a xlink:href="/asn/6762" xlink:title="AS6762 ~ TELECOM ITALIA SPARKLE S.p.A. [IT]">
<ellipse fill="#ffffff" stroke="black" cx="394.625" cy="-396" rx="39.7935" ry="18"/>
<text text-anchor="middle" x="394.625" y="-392.3" font-family="Times,serif" font-size="14.00" fill="#2c94b3">AS6762</text>
</a>
</g>
</g>
<!-- AS6939&#45;&gt;AS6762 -->
<g id="edge10" class="edge"><title>AS6939&#45;&gt;AS6762</title>
<path fill="none" stroke="black" d="M296.234,-311.408C314.4,-330.035 343.139,-359.12 354.978,-369 357.492,-371.098 360.163,-373.199 362.882,-375.252"/>
<polygon fill="black" stroke="black" points="360.925,-378.156 371.07,-381.211 365.044,-372.496 360.925,-378.156"/>
</g>
<!-- AS209 -->
<g id="node12" class="node"><title>AS209</title>
<g id="a_node12"><a xlink:href="/asn/209" xlink:title="AS209 ~ CenturyLink Communications, LLC [US]">
<ellipse fill="#ffffff" stroke="black" cx="394.625" cy="-450" rx="35.194" ry="18"/>
<text text-anchor="middle" x="394.625" y="-446.3" font-family="Times,serif" font-size="14.00" fill="#2c94b3">AS209</text>
</a>
</g>
</g>
<!-- AS6939&#45;&gt;AS209 -->
<g id="edge11" class="edge"><title>AS6939&#45;&gt;AS209</title>
<path fill="none" stroke="black" d="M298.432,-310.893C305.509,-317.783 313.278,-326.267 318.978,-335 342.074,-370.387 328.583,-390 354.978,-423 357.074,-425.621 359.49,-428.094 362.07,-430.401"/>
<polygon fill="black" stroke="black" points="360.132,-433.331 370.143,-436.8 364.48,-427.845 360.132,-433.331"/>
</g>
<!-- AS3491 -->
<g id="node13" class="node"><title>AS3491</title>
<g id="a_node13"><a xlink:href="/asn/3491" xlink:title="AS3491 ~ PCCW Global, Inc. [US]">
<ellipse fill="#ffffff" stroke="black" cx="394.625" cy="-288" rx="39.7935" ry="18"/>
<text text-anchor="middle" x="394.625" y="-284.3" font-family="Times,serif" font-size="14.00" fill="#2c94b3">AS3491</text>
</a>
</g>
</g>
<!-- AS6939&#45;&gt;AS3491 -->
<g id="edge12" class="edge"><title>AS6939&#45;&gt;AS3491</title>
<path fill="none" stroke="black" d="M318.687,-292.63C327.177,-292.106 336.281,-291.543 345.115,-290.997"/>
<polygon fill="black" stroke="black" points="345.543,-294.478 355.308,-290.367 345.111,-287.491 345.543,-294.478"/>
</g>
<!-- AS1273 -->
<g id="node14" class="node"><title>AS1273</title>
<g id="a_node14"><a xlink:href="/asn/1273" xlink:title="AS1273 ~ Vodafone Group PLC [EU]">
<ellipse fill="#ffffff" stroke="black" cx="394.625" cy="-234" rx="39.7935" ry="18"/>
<text text-anchor="middle" x="394.625" y="-230.3" font-family="Times,serif" font-size="14.00" fill="#2c94b3">AS1273</text>
</a>
</g>
</g>
<!-- AS6939&#45;&gt;AS1273 -->
<g id="edge13" class="edge"><title>AS6939&#45;&gt;AS1273</title>
<path fill="none" stroke="black" d="M305.475,-281.462C321.206,-272.992 341.69,-261.963 358.952,-252.669"/>
<polygon fill="black" stroke="black" points="361.014,-255.533 368.16,-247.711 357.696,-249.37 361.014,-255.533"/>
</g>
<!-- AS2497 -->
<g id="node15" class="node"><title>AS2497</title>
<g id="a_node15"><a xlink:href="/asn/2497" xlink:title="AS2497 ~ Internet Initiative Japan Inc. [JP]">
<ellipse fill="#ffffff" stroke="black" cx="394.625" cy="-342" rx="39.7935" ry="18"/>
<text text-anchor="middle" x="394.625" y="-338.3" font-family="Times,serif" font-size="14.00" fill="#2c94b3">AS2497</text>
</a>
</g>
</g>
<!-- AS6939&#45;&gt;AS2497 -->
<g id="edge14" class="edge"><title>AS6939&#45;&gt;AS2497</title>
<path fill="none" stroke="black" d="M309.213,-306.982C323.196,-312.782 340.177,-319.827 355.231,-326.072"/>
<polygon fill="black" stroke="black" points="354.218,-329.441 364.796,-330.04 356.9,-322.975 354.218,-329.441"/>
</g>
<!-- AS3257&#45;&gt;AS6762 -->
<g id="edge17" class="edge"><title>AS3257&#45;&gt;AS6762</title>
<path fill="none" stroke="black" d="M312.797,-371.743C324.767,-375.335 338.51,-379.46 351.228,-383.277"/>
<polygon fill="black" stroke="black" points="350.571,-386.733 361.155,-386.256 352.583,-380.029 350.571,-386.733"/>
</g>
<!-- AS3257&#45;&gt;AS209 -->
<g id="edge16" class="edge"><title>AS3257&#45;&gt;AS209</title>
<path fill="none" stroke="black" d="M299.039,-377.945C313.95,-390.493 335.489,-408.262 354.978,-423 357.961,-425.255 361.11,-427.566 364.27,-429.84"/>
<polygon fill="black" stroke="black" points="362.376,-432.787 372.559,-435.711 366.422,-427.075 362.376,-432.787"/>
</g>
<!-- AS3257&#45;&gt;AS2497 -->
<g id="edge15" class="edge"><title>AS3257&#45;&gt;AS2497</title>
<path fill="none" stroke="black" d="M316.49,-355.617C326.3,-353.885 337.059,-351.986 347.345,-350.17"/>
<polygon fill="black" stroke="black" points="348.182,-353.576 357.421,-348.391 346.965,-346.683 348.182,-353.576"/>
</g>
<!-- AS7018 -->
<g id="node16" class="node"><title>AS7018</title>
<g id="a_node16"><a xlink:href="/asn/7018" xlink:title="AS7018 ~ AT&amp;T Services, Inc. [US]">
<ellipse fill="#ffffff" stroke="black" cx="394.625" cy="-180" rx="39.7935" ry="18"/>
<text text-anchor="middle" x="394.625" y="-176.3" font-family="Times,serif" font-size="14.00" fill="#2c94b3">AS7018</text>
</a>
</g>
</g>
<!-- AS1299&#45;&gt;AS7018 -->
<g id="edge18" class="edge"><title>AS1299&#45;&gt;AS7018</title>
<path fill="none" stroke="black" d="M319.004,-180C327.207,-180 335.971,-180 344.503,-180"/>
<polygon fill="black" stroke="black" points="344.742,-183.5 354.742,-180 344.742,-176.5 344.742,-183.5"/>
</g>
<!-- AS174&#45;&gt;AS209 -->
<g id="edge19" class="edge"><title>AS174&#45;&gt;AS209</title>
<path fill="none" stroke="black" d="M314.323,-445.1C325.414,-445.785 337.891,-446.556 349.609,-447.28"/>
<polygon fill="black" stroke="black" points="349.46,-450.778 359.657,-447.901 349.892,-443.791 349.46,-450.778"/>
</g>
<!-- AS6453 -->
<g id="node17" class="node"><title>AS6453</title>
<g id="a_node17"><a xlink:href="/asn/6453" xlink:title="AS6453 ~ TATA COMMUNICATIONS (AMERICA) INC [US]">
<ellipse fill="#ffffff" stroke="black" cx="394.625" cy="-72" rx="39.7935" ry="18"/>
<text text-anchor="middle" x="394.625" y="-68.3" font-family="Times,serif" font-size="14.00" fill="#2c94b3">AS6453</text>
</a>
</g>
</g>
<!-- AS3320&#45;&gt;AS6453 -->
<g id="edge20" class="edge"><title>AS3320&#45;&gt;AS6453</title>
<path fill="none" stroke="black" d="M307.468,-113.066C322.462,-105.919 341.283,-96.9481 357.506,-89.2154"/>
<polygon fill="black" stroke="black" points="359.188,-92.291 366.71,-84.8288 356.177,-85.972 359.188,-92.291"/>
</g>
<!-- AS701 -->
<g id="node18" class="node"><title>AS701</title>
<g id="a_node18"><a xlink:href="/asn/701" xlink:title="AS701 ~ UUNET [US]">
<ellipse fill="#ffffff" stroke="black" cx="394.625" cy="-126" rx="35.194" ry="18"/>
<text text-anchor="middle" x="394.625" y="-122.3" font-family="Times,serif" font-size="14.00" fill="#2c94b3">AS701</text>
</a>
</g>
</g>
<!-- AS3320&#45;&gt;AS701 -->
<g id="edge21" class="edge"><title>AS3320&#45;&gt;AS701</title>
<path fill="none" stroke="black" d="M319.004,-126C328.709,-126 339.2,-126 349.163,-126"/>
<polygon fill="black" stroke="black" points="349.299,-129.5 359.299,-126 349.299,-122.5 349.299,-129.5"/>
</g>
<!-- AS6461 -->
<g id="node19" class="node"><title>AS6461</title>
<g id="a_node19"><a xlink:href="/asn/6461" xlink:title="AS6461 ~ Zayo Bandwidth [US]">
<ellipse fill="#ffffff" stroke="black" cx="394.625" cy="-18" rx="39.7935" ry="18"/>
<text text-anchor="middle" x="394.625" y="-14.3" font-family="Times,serif" font-size="14.00" fill="#2c94b3">AS6461</text>
</a>
</g>
</g>
<!-- AS8218&#45;&gt;AS6461 -->
<g id="edge22" class="edge"><title>AS8218&#45;&gt;AS6461</title>
<path fill="none" stroke="black" d="M307.468,-59.0657C322.462,-51.9189 341.283,-42.9481 357.506,-35.2154"/>
<polygon fill="black" stroke="black" points="359.188,-38.291 366.71,-30.8288 356.177,-31.972 359.188,-38.291"/>
</g>
</g>
</svg>
