<?xml version="1.0" encoding="UTF-8" standalone="no"?>
<!DOCTYPE svg PUBLIC "-//W3C//DTD SVG 1.1//EN"
 "http://www.w3.org/Graphics/SVG/1.1/DTD/svg11.dtd">
<!-- Generated by graphviz version 2.38.0 (20140413.2041)
 -->
<!-- Title: AS39394 Combined Upstream Graph Pages: 1 -->
<svg width="691pt" height="476pt"
 viewBox="0.00 0.00 691.06 476.00" xmlns="http://www.w3.org/2000/svg" xmlns:xlink="http://www.w3.org/1999/xlink">
<g id="graph0" class="graph" transform="scale(1 1) rotate(0) translate(4 472)">
<title>AS39394 Combined Upstream Graph</title>
<polygon fill="white" stroke="none" points="-4,4 -4,-472 687.055,-472 687.055,4 -4,4"/>
<!-- AS39394 -->
<g id="node1" class="node"><title>AS39394</title>
<g id="a_node1"><a xlink:href="/asn/39394" xlink:title="AS39394 ~ NeoTel Telefonservice GmbH &amp; Co KG [AT]">
<ellipse fill="#ffffff" stroke="black" cx="44.1961" cy="-207" rx="44.393" ry="18"/>
<text text-anchor="middle" x="44.1961" y="-203.3" font-family="Times,serif" font-size="14.00" fill="#880000">AS39394</text>
</a>
</g>
</g>
<!-- AS1764 -->
<g id="node2" class="node"><title>AS1764</title>
<g id="a_node2"><a xlink:href="/asn/1764" xlink:title="AS1764 ~ NEXTLAYER&#45;AS [AT]">
<ellipse fill="#ffffff" stroke="black" cx="403.724" cy="-234" rx="39.7935" ry="18"/>
<text text-anchor="middle" x="403.724" y="-230.3" font-family="Times,serif" font-size="14.00" fill="#2c94b3">AS1764</text>
</a>
</g>
</g>
<!-- AS39394&#45;&gt;AS1764 -->
<g id="edge1" class="edge"><title>AS39394&#45;&gt;AS1764</title>
<path fill="none" stroke="black" stroke-width="3.6" d="M87.9671,-210.23C154.873,-215.283 283.889,-225.026 354.182,-230.334"/>
<polygon fill="black" stroke="black" stroke-width="3.6" points="354.292,-233.852 364.527,-231.115 354.819,-226.872 354.292,-233.852"/>
</g>
<!-- AS8437 -->
<g id="node3" class="node"><title>AS8437</title>
<g id="a_node3"><a xlink:href="/asn/8437" xlink:title="AS8437 ~ Hutchison Drei Austria GmbH [AT]">
<ellipse fill="#ffffff" stroke="black" cx="164.039" cy="-182" rx="39.7935" ry="18"/>
<text text-anchor="middle" x="164.039" y="-178.3" font-family="Times,serif" font-size="14.00" fill="#2c94b3">AS8437</text>
</a>
</g>
</g>
<!-- AS39394&#45;&gt;AS8437 -->
<g id="edge2" class="edge"><title>AS39394&#45;&gt;AS8437</title>
<path fill="none" stroke="black" stroke-width="4.5" d="M83.7821,-198.814C94.5745,-196.524 106.404,-194.015 117.556,-191.649"/>
<polygon fill="black" stroke="black" stroke-width="4.5" points="118.592,-195.454 127.557,-189.527 116.958,-187.751 118.592,-195.454"/>
</g>
<!-- AS1299 -->
<g id="node4" class="node"><title>AS1299</title>
<g id="a_node4"><a xlink:href="/asn/1299" xlink:title="AS1299 ~ Telia Carrier [EU]">
<ellipse fill="#ffffff" stroke="black" cx="519.017" cy="-126" rx="39.7935" ry="18"/>
<text text-anchor="middle" x="519.017" y="-122.3" font-family="Times,serif" font-size="14.00" fill="#2c94b3">AS1299</text>
</a>
</g>
</g>
<!-- AS1764&#45;&gt;AS1299 -->
<g id="edge3" class="edge"><title>AS1764&#45;&gt;AS1299</title>
<path fill="none" stroke="black" stroke-width="3.75" d="M418.354,-217.183C432.636,-200.071 456.183,-173.255 479.37,-153 481.836,-150.846 484.475,-148.706 487.172,-146.628"/>
<polygon fill="black" stroke="black" stroke-width="3.75" points="489.345,-149.375 495.326,-140.63 485.197,-143.736 489.345,-149.375"/>
</g>
<!-- AS3257 -->
<g id="node5" class="node"><title>AS3257</title>
<g id="a_node5"><a xlink:href="/asn/3257" xlink:title="AS3257 ~ GTT [DE]">
<ellipse fill="#ffffff" stroke="black" cx="519.017" cy="-234" rx="39.7935" ry="18"/>
<text text-anchor="middle" x="519.017" y="-230.3" font-family="Times,serif" font-size="14.00" fill="#2c94b3">AS3257</text>
</a>
</g>
</g>
<!-- AS1764&#45;&gt;AS3257 -->
<g id="edge4" class="edge"><title>AS1764&#45;&gt;AS3257</title>
<path fill="none" stroke="black" stroke-width="1.5" d="M443.396,-234C451.599,-234 460.363,-234 468.895,-234"/>
<polygon fill="black" stroke="black" stroke-width="1.5" points="469.134,-237.5 479.134,-234 469.134,-230.5 469.134,-237.5"/>
</g>
<!-- AS2914 -->
<g id="node6" class="node"><title>AS2914</title>
<g id="a_node6"><a xlink:href="/asn/2914" xlink:title="AS2914 ~ NTT America, Inc. [US]">
<ellipse fill="#ffffff" stroke="black" cx="519.017" cy="-342" rx="39.7935" ry="18"/>
<text text-anchor="middle" x="519.017" y="-338.3" font-family="Times,serif" font-size="14.00" fill="#2c94b3">AS2914</text>
</a>
</g>
</g>
<!-- AS1764&#45;&gt;AS2914 -->
<g id="edge5" class="edge"><title>AS1764&#45;&gt;AS2914</title>
<path fill="none" stroke="black" stroke-width="4.5" d="M418.354,-250.817C432.636,-267.929 456.183,-294.745 479.37,-315 481.836,-317.154 484.475,-319.294 487.172,-321.372"/>
<polygon fill="black" stroke="black" stroke-width="4.5" points="484.938,-324.616 495.326,-327.37 489.604,-318.273 484.938,-324.616"/>
</g>
<!-- AS8218 -->
<g id="node7" class="node"><title>AS8218</title>
<g id="a_node7"><a xlink:href="/asn/8218" xlink:title="AS8218 ~ legacy Neotelecoms [FR]">
<ellipse fill="#ffffff" stroke="black" cx="519.017" cy="-423" rx="39.7935" ry="18"/>
<text text-anchor="middle" x="519.017" y="-419.3" font-family="Times,serif" font-size="14.00" fill="#2c94b3">AS8218</text>
</a>
</g>
</g>
<!-- AS1764&#45;&gt;AS8218 -->
<g id="edge6" class="edge"><title>AS1764&#45;&gt;AS8218</title>
<path fill="none" stroke="black" stroke-width="1.5" d="M413.75,-251.852C427.186,-278.055 453.635,-328.237 479.37,-369 485.433,-378.604 492.553,-388.813 499.018,-397.739"/>
<polygon fill="black" stroke="black" stroke-width="1.5" points="496.225,-399.848 504.961,-405.843 501.87,-395.709 496.225,-399.848"/>
</g>
<!-- AS174 -->
<g id="node8" class="node"><title>AS174</title>
<g id="a_node8"><a xlink:href="/asn/174" xlink:title="AS174 ~ Cogent Communications [US]">
<ellipse fill="#ffffff" stroke="black" cx="519.017" cy="-288" rx="35.194" ry="18"/>
<text text-anchor="middle" x="519.017" y="-284.3" font-family="Times,serif" font-size="14.00" fill="#2c94b3">AS174</text>
</a>
</g>
</g>
<!-- AS1764&#45;&gt;AS174 -->
<g id="edge7" class="edge"><title>AS1764&#45;&gt;AS174</title>
<path fill="none" stroke="black" stroke-width="1.5" d="M431.86,-246.934C447.292,-254.29 466.778,-263.577 483.313,-271.459"/>
<polygon fill="black" stroke="black" stroke-width="1.5" points="482.121,-274.768 492.654,-275.911 485.133,-268.449 482.121,-274.768"/>
</g>
<!-- AS25255 -->
<g id="node17" class="node"><title>AS25255</title>
<g id="a_node17"><a xlink:href="/asn/25255" xlink:title="AS25255 ~ ==&gt; TELE2 AUSTRIA &lt;== [AT]">
<ellipse fill="#ffffff" stroke="black" cx="283.881" cy="-180" rx="44.393" ry="18"/>
<text text-anchor="middle" x="283.881" y="-176.3" font-family="Times,serif" font-size="14.00" fill="#2c94b3">AS25255</text>
</a>
</g>
</g>
<!-- AS8437&#45;&gt;AS25255 -->
<g id="edge16" class="edge"><title>AS8437&#45;&gt;AS25255</title>
<path fill="none" stroke="black" stroke-width="4.5" d="M203.951,-181.34C212.054,-181.202 220.729,-181.055 229.255,-180.91"/>
<polygon fill="black" stroke="black" stroke-width="4.5" points="229.601,-184.842 239.533,-180.736 229.468,-176.969 229.601,-184.842"/>
</g>
<!-- AS7018 -->
<g id="node9" class="node"><title>AS7018</title>
<g id="a_node9"><a xlink:href="/asn/7018" xlink:title="AS7018 ~ AT&amp;T Services, Inc. [US]">
<ellipse fill="#ffffff" stroke="black" cx="638.859" cy="-180" rx="39.7935" ry="18"/>
<text text-anchor="middle" x="638.859" y="-176.3" font-family="Times,serif" font-size="14.00" fill="#2c94b3">AS7018</text>
</a>
</g>
</g>
<!-- AS1299&#45;&gt;AS7018 -->
<g id="edge8" class="edge"><title>AS1299&#45;&gt;AS7018</title>
<path fill="none" stroke="black" d="M547.646,-138.661C563.603,-145.973 583.873,-155.261 601.156,-163.181"/>
<polygon fill="black" stroke="black" points="599.854,-166.435 610.404,-167.419 602.771,-160.071 599.854,-166.435"/>
</g>
<!-- AS6453 -->
<g id="node10" class="node"><title>AS6453</title>
<g id="a_node10"><a xlink:href="/asn/6453" xlink:title="AS6453 ~ TATA COMMUNICATIONS (AMERICA) INC [US]">
<ellipse fill="#ffffff" stroke="black" cx="638.859" cy="-72" rx="39.7935" ry="18"/>
<text text-anchor="middle" x="638.859" y="-68.3" font-family="Times,serif" font-size="14.00" fill="#2c94b3">AS6453</text>
</a>
</g>
</g>
<!-- AS1299&#45;&gt;AS6453 -->
<g id="edge9" class="edge"><title>AS1299&#45;&gt;AS6453</title>
<path fill="none" stroke="black" d="M547.646,-113.339C563.603,-106.027 583.873,-96.7385 601.156,-88.8189"/>
<polygon fill="black" stroke="black" points="602.771,-91.929 610.404,-84.5813 599.854,-85.5653 602.771,-91.929"/>
</g>
<!-- AS1239 -->
<g id="node11" class="node"><title>AS1239</title>
<g id="a_node11"><a xlink:href="/asn/1239" xlink:title="AS1239 ~ Sprint [US]">
<ellipse fill="#ffffff" stroke="black" cx="638.859" cy="-126" rx="39.7935" ry="18"/>
<text text-anchor="middle" x="638.859" y="-122.3" font-family="Times,serif" font-size="14.00" fill="#2c94b3">AS1239</text>
</a>
</g>
</g>
<!-- AS1299&#45;&gt;AS1239 -->
<g id="edge10" class="edge"><title>AS1299&#45;&gt;AS1239</title>
<path fill="none" stroke="black" d="M558.929,-126C568.483,-126 578.832,-126 588.795,-126"/>
<polygon fill="black" stroke="black" points="588.988,-129.5 598.987,-126 588.987,-122.5 588.988,-129.5"/>
</g>
<!-- AS12956 -->
<g id="node12" class="node"><title>AS12956</title>
<g id="a_node12"><a xlink:href="/asn/12956" xlink:title="AS12956 ~ TELXIUS [ES]">
<ellipse fill="#ffffff" stroke="black" cx="638.859" cy="-396" rx="44.393" ry="18"/>
<text text-anchor="middle" x="638.859" y="-392.3" font-family="Times,serif" font-size="14.00" fill="#2c94b3">AS12956</text>
</a>
</g>
</g>
<!-- AS2914&#45;&gt;AS12956 -->
<g id="edge11" class="edge"><title>AS2914&#45;&gt;AS12956</title>
<path fill="none" stroke="black" d="M547.646,-354.661C563.143,-361.762 582.71,-370.728 599.657,-378.494"/>
<polygon fill="black" stroke="black" points="598.21,-381.681 608.759,-382.665 601.126,-375.317 598.21,-381.681"/>
</g>
<!-- AS2497 -->
<g id="node13" class="node"><title>AS2497</title>
<g id="a_node13"><a xlink:href="/asn/2497" xlink:title="AS2497 ~ Internet Initiative Japan Inc. [JP]">
<ellipse fill="#ffffff" stroke="black" cx="638.859" cy="-288" rx="39.7935" ry="18"/>
<text text-anchor="middle" x="638.859" y="-284.3" font-family="Times,serif" font-size="14.00" fill="#2c94b3">AS2497</text>
</a>
</g>
</g>
<!-- AS2914&#45;&gt;AS2497 -->
<g id="edge12" class="edge"><title>AS2914&#45;&gt;AS2497</title>
<path fill="none" stroke="black" d="M547.646,-329.339C563.603,-322.027 583.873,-312.739 601.156,-304.819"/>
<polygon fill="black" stroke="black" points="602.771,-307.929 610.404,-300.581 599.854,-301.565 602.771,-307.929"/>
</g>
<!-- AS701 -->
<g id="node14" class="node"><title>AS701</title>
<g id="a_node14"><a xlink:href="/asn/701" xlink:title="AS701 ~ UUNET [US]">
<ellipse fill="#ffffff" stroke="black" cx="638.859" cy="-342" rx="35.194" ry="18"/>
<text text-anchor="middle" x="638.859" y="-338.3" font-family="Times,serif" font-size="14.00" fill="#2c94b3">AS701</text>
</a>
</g>
</g>
<!-- AS2914&#45;&gt;AS701 -->
<g id="edge13" class="edge"><title>AS2914&#45;&gt;AS701</title>
<path fill="none" stroke="black" d="M558.929,-342C570.016,-342 582.176,-342 593.558,-342"/>
<polygon fill="black" stroke="black" points="593.74,-345.5 603.74,-342 593.74,-338.5 593.74,-345.5"/>
</g>
<!-- AS3491 -->
<g id="node15" class="node"><title>AS3491</title>
<g id="a_node15"><a xlink:href="/asn/3491" xlink:title="AS3491 ~ PCCW Global, Inc. [US]">
<ellipse fill="#ffffff" stroke="black" cx="638.859" cy="-234" rx="39.7935" ry="18"/>
<text text-anchor="middle" x="638.859" y="-230.3" font-family="Times,serif" font-size="14.00" fill="#2c94b3">AS3491</text>
</a>
</g>
</g>
<!-- AS2914&#45;&gt;AS3491 -->
<g id="edge14" class="edge"><title>AS2914&#45;&gt;AS3491</title>
<path fill="none" stroke="black" d="M543.611,-327.611C548.867,-323.852 554.198,-319.563 558.663,-315 578.836,-294.383 573.97,-281.094 594.663,-261 597.508,-258.237 600.682,-255.614 603.982,-253.166"/>
<polygon fill="black" stroke="black" points="606.048,-255.994 612.33,-247.462 602.099,-250.214 606.048,-255.994"/>
</g>
<!-- AS6461 -->
<g id="node16" class="node"><title>AS6461</title>
<g id="a_node16"><a xlink:href="/asn/6461" xlink:title="AS6461 ~ Zayo Bandwidth [US]">
<ellipse fill="#ffffff" stroke="black" cx="638.859" cy="-450" rx="39.7935" ry="18"/>
<text text-anchor="middle" x="638.859" y="-446.3" font-family="Times,serif" font-size="14.00" fill="#2c94b3">AS6461</text>
</a>
</g>
</g>
<!-- AS8218&#45;&gt;AS6461 -->
<g id="edge15" class="edge"><title>AS8218&#45;&gt;AS6461</title>
<path fill="none" stroke="black" stroke-width="2" d="M554.736,-430.955C566.736,-433.704 580.357,-436.825 593.049,-439.733"/>
<polygon fill="black" stroke="black" stroke-width="2" points="592.452,-443.187 602.981,-442.009 594.015,-436.364 592.452,-443.187"/>
</g>
<!-- AS25255&#45;&gt;AS1764 -->
<g id="edge18" class="edge"><title>AS25255&#45;&gt;AS1764</title>
<path fill="none" stroke="black" stroke-width="4.5" d="M314.011,-193.348C329.622,-200.502 349.02,-209.391 365.692,-217.03"/>
<polygon fill="black" stroke="black" stroke-width="4.5" points="364.412,-220.775 375.144,-221.362 367.693,-213.616 364.412,-220.775"/>
</g>
<!-- AS8447 -->
<g id="node18" class="node"><title>AS8447</title>
<g id="a_node18"><a xlink:href="/asn/8447" xlink:title="AS8447 ~ A1 Telekom Austria AG [AT]">
<ellipse fill="#ffffff" stroke="black" cx="403.724" cy="-38" rx="39.7935" ry="18"/>
<text text-anchor="middle" x="403.724" y="-34.3" font-family="Times,serif" font-size="14.00" fill="#2c94b3">AS8447</text>
</a>
</g>
</g>
<!-- AS25255&#45;&gt;AS8447 -->
<g id="edge17" class="edge"><title>AS25255&#45;&gt;AS8447</title>
<path fill="none" stroke="black" stroke-width="1.8" d="M299.096,-162.871C319.822,-137.896 358.453,-91.3464 382.244,-62.6776"/>
<polygon fill="black" stroke="black" stroke-width="1.8" points="385.132,-64.6788 388.825,-54.7483 379.745,-60.2085 385.132,-64.6788"/>
</g>
<!-- AS6762 -->
<g id="node19" class="node"><title>AS6762</title>
<g id="a_node19"><a xlink:href="/asn/6762" xlink:title="AS6762 ~ TELECOM ITALIA SPARKLE S.p.A. [IT]">
<ellipse fill="#ffffff" stroke="black" cx="519.017" cy="-72" rx="39.7935" ry="18"/>
<text text-anchor="middle" x="519.017" y="-68.3" font-family="Times,serif" font-size="14.00" fill="#2c94b3">AS6762</text>
</a>
</g>
</g>
<!-- AS25255&#45;&gt;AS6762 -->
<g id="edge19" class="edge"><title>AS25255&#45;&gt;AS6762</title>
<path fill="none" stroke="black" stroke-width="2.7" d="M313.937,-166.54C356.303,-146.914 435.015,-110.451 481.325,-88.9975"/>
<polygon fill="black" stroke="black" stroke-width="2.7" points="482.81,-92.1669 490.412,-84.7877 479.868,-85.8153 482.81,-92.1669"/>
</g>
<!-- AS3320 -->
<g id="node20" class="node"><title>AS3320</title>
<g id="a_node20"><a xlink:href="/asn/3320" xlink:title="AS3320 ~ DTAG [DE]">
<ellipse fill="#ffffff" stroke="black" cx="519.017" cy="-180" rx="39.7935" ry="18"/>
<text text-anchor="middle" x="519.017" y="-176.3" font-family="Times,serif" font-size="14.00" fill="#2c94b3">AS3320</text>
</a>
</g>
</g>
<!-- AS25255&#45;&gt;AS3320 -->
<g id="edge20" class="edge"><title>AS25255&#45;&gt;AS3320</title>
<path fill="none" stroke="black" stroke-width="4.5" d="M328.186,-180C368.124,-180 427.359,-180 469.014,-180"/>
<polygon fill="black" stroke="black" stroke-width="4.5" points="469.203,-183.938 479.203,-180 469.203,-176.063 469.203,-183.938"/>
</g>
<!-- AS3356 -->
<g id="node21" class="node"><title>AS3356</title>
<g id="a_node21"><a xlink:href="/asn/3356" xlink:title="AS3356 ~ Level 3 Parent, LLC [US]">
<ellipse fill="#ffffff" stroke="black" cx="519.017" cy="-18" rx="39.7935" ry="18"/>
<text text-anchor="middle" x="519.017" y="-14.3" font-family="Times,serif" font-size="14.00" fill="#2c94b3">AS3356</text>
</a>
</g>
</g>
<!-- AS8447&#45;&gt;AS3356 -->
<g id="edge21" class="edge"><title>AS8447&#45;&gt;AS3356</title>
<path fill="none" stroke="black" stroke-width="2" d="M440.882,-31.6169C450.693,-29.885 461.451,-27.9857 471.737,-26.1699"/>
<polygon fill="black" stroke="black" stroke-width="2" points="472.574,-29.5763 481.814,-24.3911 471.357,-22.6829 472.574,-29.5763"/>
</g>
<!-- AS6762&#45;&gt;AS6453 -->
<g id="edge27" class="edge"><title>AS6762&#45;&gt;AS6453</title>
<path fill="none" stroke="black" d="M558.929,-72C568.483,-72 578.832,-72 588.795,-72"/>
<polygon fill="black" stroke="black" points="588.988,-75.5001 598.987,-72 588.987,-68.5001 588.988,-75.5001"/>
</g>
<!-- AS6762&#45;&gt;AS3491 -->
<g id="edge26" class="edge"><title>AS6762&#45;&gt;AS3491</title>
<path fill="none" stroke="black" d="M544.948,-85.8816C550.024,-89.6112 554.942,-94.0157 558.663,-99 588.935,-139.542 563.364,-167.246 594.663,-207 596.988,-209.953 599.732,-212.67 602.691,-215.147"/>
<polygon fill="black" stroke="black" points="600.75,-218.064 610.888,-221.145 604.884,-212.415 600.75,-218.064"/>
</g>
<!-- AS3320&#45;&gt;AS7018 -->
<g id="edge23" class="edge"><title>AS3320&#45;&gt;AS7018</title>
<path fill="none" stroke="black" d="M558.929,-180C568.483,-180 578.832,-180 588.795,-180"/>
<polygon fill="black" stroke="black" points="588.988,-183.5 598.987,-180 588.987,-176.5 588.988,-183.5"/>
</g>
<!-- AS3320&#45;&gt;AS1239 -->
<g id="edge25" class="edge"><title>AS3320&#45;&gt;AS1239</title>
<path fill="none" stroke="black" d="M547.646,-167.339C563.603,-160.027 583.873,-150.739 601.156,-142.819"/>
<polygon fill="black" stroke="black" points="602.771,-145.929 610.404,-138.581 599.854,-139.565 602.771,-145.929"/>
</g>
<!-- AS3320&#45;&gt;AS2497 -->
<g id="edge22" class="edge"><title>AS3320&#45;&gt;AS2497</title>
<path fill="none" stroke="black" d="M543.611,-194.389C548.867,-198.148 554.198,-202.437 558.663,-207 578.836,-227.617 573.97,-240.906 594.663,-261 597.508,-263.763 600.682,-266.386 603.982,-268.834"/>
<polygon fill="black" stroke="black" points="602.099,-271.786 612.33,-274.538 606.048,-266.006 602.099,-271.786"/>
</g>
<!-- AS3320&#45;&gt;AS701 -->
<g id="edge24" class="edge"><title>AS3320&#45;&gt;AS701</title>
<path fill="none" stroke="black" d="M544.948,-193.882C550.024,-197.611 554.942,-202.016 558.663,-207 588.935,-247.542 563.364,-275.246 594.663,-315 597.31,-318.361 600.498,-321.417 603.93,-324.161"/>
<polygon fill="black" stroke="black" points="602.043,-327.113 612.237,-330 606.068,-321.386 602.043,-327.113"/>
</g>
<!-- AS3549 -->
<g id="node22" class="node"><title>AS3549</title>
<g id="a_node22"><a xlink:href="/asn/3549" xlink:title="AS3549 ~ Level 3 Parent, LLC [US]">
<ellipse fill="#ffffff" stroke="black" cx="638.859" cy="-18" rx="39.7935" ry="18"/>
<text text-anchor="middle" x="638.859" y="-14.3" font-family="Times,serif" font-size="14.00" fill="#2c94b3">AS3549</text>
</a>
</g>
</g>
<!-- AS3356&#45;&gt;AS3549 -->
<g id="edge28" class="edge"><title>AS3356&#45;&gt;AS3549</title>
<path fill="none" stroke="black" d="M558.929,-18C568.483,-18 578.832,-18 588.795,-18"/>
<polygon fill="black" stroke="black" points="588.988,-21.5001 598.987,-18 588.987,-14.5001 588.988,-21.5001"/>
</g>
</g>
</svg>
