<?xml version="1.0" encoding="UTF-8" standalone="no"?>
<!DOCTYPE svg PUBLIC "-//W3C//DTD SVG 1.1//EN"
 "http://www.w3.org/Graphics/SVG/1.1/DTD/svg11.dtd">
<!-- Generated by graphviz version 2.38.0 (20140413.2041)
 -->
<!-- Title: AS200501 IPv4 Upstream Graph Pages: 1 -->
<svg width="459pt" height="530pt"
 viewBox="0.00 0.00 459.17 530.00" xmlns="http://www.w3.org/2000/svg" xmlns:xlink="http://www.w3.org/1999/xlink">
<g id="graph0" class="graph" transform="scale(1 1) rotate(0) translate(4 526)">
<title>AS200501 IPv4 Upstream Graph</title>
<polygon fill="white" stroke="none" points="-4,4 -4,-526 455.17,-526 455.17,4 -4,4"/>
<!-- AS200501 -->
<g id="node1" class="node"><title>AS200501</title>
<g id="a_node1"><a xlink:href="/asn/200501" xlink:title="AS200501 ~ Four Telecom Services GmbH &amp; Co KG [AT]">
<ellipse fill="#ffffff" stroke="black" cx="48.0957" cy="-261" rx="48.1917" ry="18"/>
<text text-anchor="middle" x="48.0957" y="-257.3" font-family="Times,serif" font-size="14.00" fill="#880000">AS200501</text>
</a>
</g>
</g>
<!-- AS1764 -->
<g id="node2" class="node"><title>AS1764</title>
<g id="a_node2"><a xlink:href="/asn/1764" xlink:title="AS1764 ~ NEXTLAYER&#45;AS [AT]">
<ellipse fill="#ffffff" stroke="black" cx="171.838" cy="-261" rx="39.7935" ry="18"/>
<text text-anchor="middle" x="171.838" y="-257.3" font-family="Times,serif" font-size="14.00" fill="#2c94b3">AS1764</text>
</a>
</g>
</g>
<!-- AS200501&#45;&gt;AS1764 -->
<g id="edge1" class="edge"><title>AS200501&#45;&gt;AS1764</title>
<path fill="none" stroke="black" stroke-width="4.5" d="M96.5131,-261C104.867,-261 113.577,-261 121.969,-261"/>
<polygon fill="black" stroke="black" stroke-width="4.5" points="122.004,-264.938 132.004,-261 122.004,-257.063 122.004,-264.938"/>
</g>
<!-- AS3320 -->
<g id="node3" class="node"><title>AS3320</title>
<g id="a_node3"><a xlink:href="/asn/3320" xlink:title="AS3320 ~ DTAG [DE]">
<ellipse fill="#ffffff" stroke="black" cx="287.131" cy="-450" rx="39.7935" ry="18"/>
<text text-anchor="middle" x="287.131" y="-446.3" font-family="Times,serif" font-size="14.00" fill="#2c94b3">AS3320</text>
</a>
</g>
</g>
<!-- AS1764&#45;&gt;AS3320 -->
<g id="edge2" class="edge"><title>AS1764&#45;&gt;AS3320</title>
<path fill="none" stroke="black" stroke-width="2.7" d="M181.864,-278.852C195.3,-305.055 221.75,-355.237 247.484,-396 253.547,-405.604 260.667,-415.813 267.133,-424.739"/>
<polygon fill="black" stroke="black" stroke-width="2.7" points="264.339,-426.848 273.075,-432.843 269.984,-422.709 264.339,-426.848"/>
</g>
<!-- AS3356 -->
<g id="node4" class="node"><title>AS3356</title>
<g id="a_node4"><a xlink:href="/asn/3356" xlink:title="AS3356 ~ Level 3 Parent, LLC [US]">
<ellipse fill="#ffffff" stroke="black" cx="287.131" cy="-207" rx="39.7935" ry="18"/>
<text text-anchor="middle" x="287.131" y="-203.3" font-family="Times,serif" font-size="14.00" fill="#2c94b3">AS3356</text>
</a>
</g>
</g>
<!-- AS1764&#45;&gt;AS3356 -->
<g id="edge3" class="edge"><title>AS1764&#45;&gt;AS3356</title>
<path fill="none" stroke="black" stroke-width="4.5" d="M199.974,-248.066C214.968,-240.919 233.789,-231.948 250.013,-224.215"/>
<polygon fill="black" stroke="black" stroke-width="4.5" points="251.883,-227.686 259.216,-219.829 248.495,-220.577 251.883,-227.686"/>
</g>
<!-- AS2914 -->
<g id="node5" class="node"><title>AS2914</title>
<g id="a_node5"><a xlink:href="/asn/2914" xlink:title="AS2914 ~ NTT America, Inc. [US]">
<ellipse fill="#ffffff" stroke="black" cx="287.131" cy="-369" rx="39.7935" ry="18"/>
<text text-anchor="middle" x="287.131" y="-365.3" font-family="Times,serif" font-size="14.00" fill="#2c94b3">AS2914</text>
</a>
</g>
</g>
<!-- AS1764&#45;&gt;AS2914 -->
<g id="edge4" class="edge"><title>AS1764&#45;&gt;AS2914</title>
<path fill="none" stroke="black" stroke-width="2.7" d="M186.468,-277.817C200.751,-294.929 224.297,-321.745 247.484,-342 249.95,-344.154 252.589,-346.294 255.286,-348.372"/>
<polygon fill="black" stroke="black" stroke-width="2.7" points="253.311,-351.264 263.44,-354.37 257.459,-345.625 253.311,-351.264"/>
</g>
<!-- AS1299 -->
<g id="node6" class="node"><title>AS1299</title>
<g id="a_node6"><a xlink:href="/asn/1299" xlink:title="AS1299 ~ Telia Carrier [EU]">
<ellipse fill="#ffffff" stroke="black" cx="287.131" cy="-126" rx="39.7935" ry="18"/>
<text text-anchor="middle" x="287.131" y="-122.3" font-family="Times,serif" font-size="14.00" fill="#2c94b3">AS1299</text>
</a>
</g>
</g>
<!-- AS1764&#45;&gt;AS1299 -->
<g id="edge5" class="edge"><title>AS1764&#45;&gt;AS1299</title>
<path fill="none" stroke="black" stroke-width="2.7" d="M186.958,-244.175C206.632,-220.731 242.436,-178.066 265.215,-150.924"/>
<polygon fill="black" stroke="black" stroke-width="2.7" points="268.086,-152.947 271.833,-143.037 262.724,-148.447 268.086,-152.947"/>
</g>
<!-- AS3257 -->
<g id="node7" class="node"><title>AS3257</title>
<g id="a_node7"><a xlink:href="/asn/3257" xlink:title="AS3257 ~ GTT [DE]">
<ellipse fill="#ffffff" stroke="black" cx="287.131" cy="-315" rx="39.7935" ry="18"/>
<text text-anchor="middle" x="287.131" y="-311.3" font-family="Times,serif" font-size="14.00" fill="#2c94b3">AS3257</text>
</a>
</g>
</g>
<!-- AS1764&#45;&gt;AS3257 -->
<g id="edge6" class="edge"><title>AS1764&#45;&gt;AS3257</title>
<path fill="none" stroke="black" stroke-width="2.7" d="M199.974,-273.934C214.968,-281.081 233.789,-290.052 250.013,-297.785"/>
<polygon fill="black" stroke="black" stroke-width="2.7" points="248.683,-301.028 259.216,-302.171 251.695,-294.709 248.683,-301.028"/>
</g>
<!-- AS174 -->
<g id="node8" class="node"><title>AS174</title>
<g id="a_node8"><a xlink:href="/asn/174" xlink:title="AS174 ~ Cogent Communications [US]">
<ellipse fill="#ffffff" stroke="black" cx="287.131" cy="-261" rx="35.194" ry="18"/>
<text text-anchor="middle" x="287.131" y="-257.3" font-family="Times,serif" font-size="14.00" fill="#2c94b3">AS174</text>
</a>
</g>
</g>
<!-- AS1764&#45;&gt;AS174 -->
<g id="edge7" class="edge"><title>AS1764&#45;&gt;AS174</title>
<path fill="none" stroke="black" stroke-width="1.8" d="M211.51,-261C221.215,-261 231.706,-261 241.669,-261"/>
<polygon fill="black" stroke="black" stroke-width="1.8" points="241.805,-264.5 251.805,-261 241.805,-257.5 241.805,-264.5"/>
</g>
<!-- AS8218 -->
<g id="node9" class="node"><title>AS8218</title>
<g id="a_node9"><a xlink:href="/asn/8218" xlink:title="AS8218 ~ legacy Neotelecoms [FR]">
<ellipse fill="#ffffff" stroke="black" cx="287.131" cy="-45" rx="39.7935" ry="18"/>
<text text-anchor="middle" x="287.131" y="-41.3" font-family="Times,serif" font-size="14.00" fill="#2c94b3">AS8218</text>
</a>
</g>
</g>
<!-- AS1764&#45;&gt;AS8218 -->
<g id="edge8" class="edge"><title>AS1764&#45;&gt;AS8218</title>
<path fill="none" stroke="black" stroke-width="0.9" d="M179.841,-242.949C191.968,-212.43 218.386,-149.067 247.484,-99 253.191,-89.1806 260.229,-78.9217 266.728,-70.0159"/>
<polygon fill="black" stroke="black" stroke-width="0.9" points="269.569,-72.0615 272.734,-61.9504 263.954,-67.8811 269.569,-72.0615"/>
</g>
<!-- AS701 -->
<g id="node16" class="node"><title>AS701</title>
<g id="a_node16"><a xlink:href="/asn/701" xlink:title="AS701 ~ UUNET [US]">
<ellipse fill="#ffffff" stroke="black" cx="406.973" cy="-504" rx="35.194" ry="18"/>
<text text-anchor="middle" x="406.973" y="-500.3" font-family="Times,serif" font-size="14.00" fill="#2c94b3">AS701</text>
</a>
</g>
</g>
<!-- AS3320&#45;&gt;AS701 -->
<g id="edge17" class="edge"><title>AS3320&#45;&gt;AS701</title>
<path fill="none" stroke="black" d="M315.76,-462.661C332.176,-470.183 353.158,-479.798 370.754,-487.861"/>
<polygon fill="black" stroke="black" points="369.583,-491.174 380.132,-492.158 372.499,-484.811 369.583,-491.174"/>
</g>
<!-- AS1239 -->
<g id="node17" class="node"><title>AS1239</title>
<g id="a_node17"><a xlink:href="/asn/1239" xlink:title="AS1239 ~ Sprint [US]">
<ellipse fill="#ffffff" stroke="black" cx="406.973" cy="-450" rx="39.7935" ry="18"/>
<text text-anchor="middle" x="406.973" y="-446.3" font-family="Times,serif" font-size="14.00" fill="#2c94b3">AS1239</text>
</a>
</g>
</g>
<!-- AS3320&#45;&gt;AS1239 -->
<g id="edge18" class="edge"><title>AS3320&#45;&gt;AS1239</title>
<path fill="none" stroke="black" d="M327.044,-450C336.597,-450 346.947,-450 356.909,-450"/>
<polygon fill="black" stroke="black" points="357.102,-453.5 367.102,-450 357.102,-446.5 357.102,-453.5"/>
</g>
<!-- AS2497 -->
<g id="node10" class="node"><title>AS2497</title>
<g id="a_node10"><a xlink:href="/asn/2497" xlink:title="AS2497 ~ Internet Initiative Japan Inc. [JP]">
<ellipse fill="#ffffff" stroke="black" cx="406.973" cy="-342" rx="39.7935" ry="18"/>
<text text-anchor="middle" x="406.973" y="-338.3" font-family="Times,serif" font-size="14.00" fill="#2c94b3">AS2497</text>
</a>
</g>
</g>
<!-- AS3356&#45;&gt;AS2497 -->
<g id="edge9" class="edge"><title>AS3356&#45;&gt;AS2497</title>
<path fill="none" stroke="black" d="M312.712,-221.156C317.806,-224.872 322.82,-229.201 326.777,-234 351.842,-264.394 336.943,-285.258 362.777,-315 365.242,-317.838 368.079,-320.477 371.097,-322.906"/>
<polygon fill="black" stroke="black" points="369.207,-325.858 379.375,-328.836 373.283,-320.167 369.207,-325.858"/>
</g>
<!-- AS6762 -->
<g id="node11" class="node"><title>AS6762</title>
<g id="a_node11"><a xlink:href="/asn/6762" xlink:title="AS6762 ~ TELECOM ITALIA SPARKLE S.p.A. [IT]">
<ellipse fill="#ffffff" stroke="black" cx="406.973" cy="-126" rx="39.7935" ry="18"/>
<text text-anchor="middle" x="406.973" y="-122.3" font-family="Times,serif" font-size="14.00" fill="#2c94b3">AS6762</text>
</a>
</g>
</g>
<!-- AS3356&#45;&gt;AS6762 -->
<g id="edge10" class="edge"><title>AS3356&#45;&gt;AS6762</title>
<path fill="none" stroke="black" d="M308.461,-191.723C323.324,-180.696 344.068,-165.593 362.777,-153 366.326,-150.611 370.077,-148.161 373.825,-145.758"/>
<polygon fill="black" stroke="black" points="375.893,-148.591 382.474,-140.288 372.151,-142.675 375.893,-148.591"/>
</g>
<!-- AS3549 -->
<g id="node12" class="node"><title>AS3549</title>
<g id="a_node12"><a xlink:href="/asn/3549" xlink:title="AS3549 ~ Level 3 Parent, LLC [US]">
<ellipse fill="#ffffff" stroke="black" cx="406.973" cy="-180" rx="39.7935" ry="18"/>
<text text-anchor="middle" x="406.973" y="-176.3" font-family="Times,serif" font-size="14.00" fill="#2c94b3">AS3549</text>
</a>
</g>
</g>
<!-- AS3356&#45;&gt;AS3549 -->
<g id="edge11" class="edge"><title>AS3356&#45;&gt;AS3549</title>
<path fill="none" stroke="black" d="M322.85,-199.045C334.85,-196.296 348.471,-193.175 361.164,-190.267"/>
<polygon fill="black" stroke="black" points="362.129,-193.636 371.095,-187.991 360.566,-186.813 362.129,-193.636"/>
</g>
<!-- AS6453 -->
<g id="node13" class="node"><title>AS6453</title>
<g id="a_node13"><a xlink:href="/asn/6453" xlink:title="AS6453 ~ TATA COMMUNICATIONS (AMERICA) INC [US]">
<ellipse fill="#ffffff" stroke="black" cx="406.973" cy="-234" rx="39.7935" ry="18"/>
<text text-anchor="middle" x="406.973" y="-230.3" font-family="Times,serif" font-size="14.00" fill="#2c94b3">AS6453</text>
</a>
</g>
</g>
<!-- AS3356&#45;&gt;AS6453 -->
<g id="edge12" class="edge"><title>AS3356&#45;&gt;AS6453</title>
<path fill="none" stroke="black" d="M322.85,-214.955C334.85,-217.704 348.471,-220.825 361.164,-223.733"/>
<polygon fill="black" stroke="black" points="360.566,-227.187 371.095,-226.009 362.129,-220.364 360.566,-227.187"/>
</g>
<!-- AS2914&#45;&gt;AS2497 -->
<g id="edge13" class="edge"><title>AS2914&#45;&gt;AS2497</title>
<path fill="none" stroke="black" d="M322.85,-361.045C334.85,-358.296 348.471,-355.175 361.164,-352.267"/>
<polygon fill="black" stroke="black" points="362.129,-355.636 371.095,-349.991 360.566,-348.813 362.129,-355.636"/>
</g>
<!-- AS12956 -->
<g id="node14" class="node"><title>AS12956</title>
<g id="a_node14"><a xlink:href="/asn/12956" xlink:title="AS12956 ~ TELXIUS [ES]">
<ellipse fill="#ffffff" stroke="black" cx="406.973" cy="-396" rx="44.393" ry="18"/>
<text text-anchor="middle" x="406.973" y="-392.3" font-family="Times,serif" font-size="14.00" fill="#2c94b3">AS12956</text>
</a>
</g>
</g>
<!-- AS2914&#45;&gt;AS12956 -->
<g id="edge14" class="edge"><title>AS2914&#45;&gt;AS12956</title>
<path fill="none" stroke="black" d="M322.85,-376.955C333.989,-379.507 346.524,-382.379 358.417,-385.104"/>
<polygon fill="black" stroke="black" points="357.682,-388.526 368.211,-387.348 359.246,-381.703 357.682,-388.526"/>
</g>
<!-- AS1299&#45;&gt;AS6762 -->
<g id="edge16" class="edge"><title>AS1299&#45;&gt;AS6762</title>
<path fill="none" stroke="black" d="M327.044,-126C336.597,-126 346.947,-126 356.909,-126"/>
<polygon fill="black" stroke="black" points="357.102,-129.5 367.102,-126 357.102,-122.5 357.102,-129.5"/>
</g>
<!-- AS7018 -->
<g id="node15" class="node"><title>AS7018</title>
<g id="a_node15"><a xlink:href="/asn/7018" xlink:title="AS7018 ~ AT&amp;T Services, Inc. [US]">
<ellipse fill="#ffffff" stroke="black" cx="406.973" cy="-72" rx="39.7935" ry="18"/>
<text text-anchor="middle" x="406.973" y="-68.3" font-family="Times,serif" font-size="14.00" fill="#2c94b3">AS7018</text>
</a>
</g>
</g>
<!-- AS1299&#45;&gt;AS7018 -->
<g id="edge15" class="edge"><title>AS1299&#45;&gt;AS7018</title>
<path fill="none" stroke="black" d="M315.76,-113.339C331.717,-106.027 351.987,-96.7385 369.27,-88.8189"/>
<polygon fill="black" stroke="black" points="370.885,-91.929 378.518,-84.5813 367.969,-85.5653 370.885,-91.929"/>
</g>
<!-- AS3257&#45;&gt;AS2497 -->
<g id="edge19" class="edge"><title>AS3257&#45;&gt;AS2497</title>
<path fill="none" stroke="black" d="M322.85,-322.955C334.85,-325.704 348.471,-328.825 361.164,-331.733"/>
<polygon fill="black" stroke="black" points="360.566,-335.187 371.095,-334.009 362.129,-328.364 360.566,-335.187"/>
</g>
<!-- AS3491 -->
<g id="node18" class="node"><title>AS3491</title>
<g id="a_node18"><a xlink:href="/asn/3491" xlink:title="AS3491 ~ PCCW Global, Inc. [US]">
<ellipse fill="#ffffff" stroke="black" cx="406.973" cy="-288" rx="39.7935" ry="18"/>
<text text-anchor="middle" x="406.973" y="-284.3" font-family="Times,serif" font-size="14.00" fill="#2c94b3">AS3491</text>
</a>
</g>
</g>
<!-- AS3257&#45;&gt;AS3491 -->
<g id="edge20" class="edge"><title>AS3257&#45;&gt;AS3491</title>
<path fill="none" stroke="black" d="M322.85,-307.045C334.85,-304.296 348.471,-301.175 361.164,-298.267"/>
<polygon fill="black" stroke="black" points="362.129,-301.636 371.095,-295.991 360.566,-294.813 362.129,-301.636"/>
</g>
<!-- AS174&#45;&gt;AS3491 -->
<g id="edge21" class="edge"><title>AS174&#45;&gt;AS3491</title>
<path fill="none" stroke="black" d="M319.401,-268.165C332.24,-271.106 347.345,-274.567 361.312,-277.767"/>
<polygon fill="black" stroke="black" points="360.704,-281.219 371.233,-280.04 362.267,-274.395 360.704,-281.219"/>
</g>
<!-- AS6461 -->
<g id="node19" class="node"><title>AS6461</title>
<g id="a_node19"><a xlink:href="/asn/6461" xlink:title="AS6461 ~ Zayo Bandwidth [US]">
<ellipse fill="#ffffff" stroke="black" cx="406.973" cy="-18" rx="39.7935" ry="18"/>
<text text-anchor="middle" x="406.973" y="-14.3" font-family="Times,serif" font-size="14.00" fill="#2c94b3">AS6461</text>
</a>
</g>
</g>
<!-- AS8218&#45;&gt;AS6461 -->
<g id="edge22" class="edge"><title>AS8218&#45;&gt;AS6461</title>
<path fill="none" stroke="black" d="M322.85,-37.0451C334.85,-34.2957 348.471,-31.1749 361.164,-28.2668"/>
<polygon fill="black" stroke="black" points="362.129,-31.6363 371.095,-25.9913 360.566,-24.8131 362.129,-31.6363"/>
</g>
</g>
</svg>
