<?xml version="1.0" encoding="UTF-8" standalone="no"?>
<!DOCTYPE svg PUBLIC "-//W3C//DTD SVG 1.1//EN"
 "http://www.w3.org/Graphics/SVG/1.1/DTD/svg11.dtd">
<!-- Generated by graphviz version 2.38.0 (20140413.2041)
 -->
<!-- Title: AS207791 Combined Upstream Graph Pages: 1 -->
<svg width="450pt" height="584pt"
 viewBox="0.00 0.00 450.07 584.00" xmlns="http://www.w3.org/2000/svg" xmlns:xlink="http://www.w3.org/1999/xlink">
<g id="graph0" class="graph" transform="scale(1 1) rotate(0) translate(4 580)">
<title>AS207791 Combined Upstream Graph</title>
<polygon fill="white" stroke="none" points="-4,4 -4,-580 446.07,-580 446.07,4 -4,4"/>
<!-- AS207791 -->
<g id="node1" class="node"><title>AS207791</title>
<g id="a_node1"><a xlink:href="/asn/207791" xlink:title="AS207791 ~ NTB SOLUTIONS GmbH [AT]">
<ellipse fill="#ffffff" stroke="black" cx="48.0957" cy="-369" rx="48.1917" ry="18"/>
<text text-anchor="middle" x="48.0957" y="-365.3" font-family="Times,serif" font-size="14.00" fill="#880000">AS207791</text>
</a>
</g>
</g>
<!-- AS1764 -->
<g id="node2" class="node"><title>AS1764</title>
<g id="a_node2"><a xlink:href="/asn/1764" xlink:title="AS1764 ~ NEXTLAYER&#45;AS [AT]">
<ellipse fill="#ffffff" stroke="black" cx="171.838" cy="-369" rx="39.7935" ry="18"/>
<text text-anchor="middle" x="171.838" y="-365.3" font-family="Times,serif" font-size="14.00" fill="#2c94b3">AS1764</text>
</a>
</g>
</g>
<!-- AS207791&#45;&gt;AS1764 -->
<g id="edge1" class="edge"><title>AS207791&#45;&gt;AS1764</title>
<path fill="none" stroke="black" stroke-width="4.5" d="M96.5131,-369C104.867,-369 113.577,-369 121.969,-369"/>
<polygon fill="black" stroke="black" stroke-width="4.5" points="122.004,-372.938 132.004,-369 122.004,-365.063 122.004,-372.938"/>
</g>
<!-- AS3356 -->
<g id="node3" class="node"><title>AS3356</title>
<g id="a_node3"><a xlink:href="/asn/3356" xlink:title="AS3356 ~ Level 3 Parent, LLC [US]">
<ellipse fill="#ffffff" stroke="black" cx="287.131" cy="-369" rx="39.7935" ry="18"/>
<text text-anchor="middle" x="287.131" y="-365.3" font-family="Times,serif" font-size="14.00" fill="#2c94b3">AS3356</text>
</a>
</g>
</g>
<!-- AS1764&#45;&gt;AS3356 -->
<g id="edge2" class="edge"><title>AS1764&#45;&gt;AS3356</title>
<path fill="none" stroke="black" stroke-width="4.5" d="M211.51,-369C219.713,-369 228.477,-369 237.009,-369"/>
<polygon fill="black" stroke="black" stroke-width="4.5" points="237.248,-372.938 247.248,-369 237.248,-365.063 237.248,-372.938"/>
</g>
<!-- AS174 -->
<g id="node4" class="node"><title>AS174</title>
<g id="a_node4"><a xlink:href="/asn/174" xlink:title="AS174 ~ Cogent Communications [US]">
<ellipse fill="#ffffff" stroke="black" cx="287.131" cy="-450" rx="35.194" ry="18"/>
<text text-anchor="middle" x="287.131" y="-446.3" font-family="Times,serif" font-size="14.00" fill="#2c94b3">AS174</text>
</a>
</g>
</g>
<!-- AS1764&#45;&gt;AS174 -->
<g id="edge3" class="edge"><title>AS1764&#45;&gt;AS174</title>
<path fill="none" stroke="black" stroke-width="2.04545" d="M193.882,-384.046C211.831,-396.878 237.8,-415.445 257.615,-429.612"/>
<polygon fill="black" stroke="black" stroke-width="2.04545" points="255.791,-432.61 265.961,-435.579 259.862,-426.916 255.791,-432.61"/>
</g>
<!-- AS3257 -->
<g id="node5" class="node"><title>AS3257</title>
<g id="a_node5"><a xlink:href="/asn/3257" xlink:title="AS3257 ~ GTT [DE]">
<ellipse fill="#ffffff" stroke="black" cx="287.131" cy="-558" rx="39.7935" ry="18"/>
<text text-anchor="middle" x="287.131" y="-554.3" font-family="Times,serif" font-size="14.00" fill="#2c94b3">AS3257</text>
</a>
</g>
</g>
<!-- AS1764&#45;&gt;AS3257 -->
<g id="edge4" class="edge"><title>AS1764&#45;&gt;AS3257</title>
<path fill="none" stroke="black" stroke-width="1.63636" d="M177.712,-387.002C187.026,-418.844 209.843,-485.981 247.484,-531 249.355,-533.237 251.453,-535.374 253.679,-537.396"/>
<polygon fill="black" stroke="black" stroke-width="1.63636" points="251.623,-540.234 261.598,-543.804 256.026,-534.793 251.623,-540.234"/>
</g>
<!-- AS2914 -->
<g id="node6" class="node"><title>AS2914</title>
<g id="a_node6"><a xlink:href="/asn/2914" xlink:title="AS2914 ~ NTT America, Inc. [US]">
<ellipse fill="#ffffff" stroke="black" cx="287.131" cy="-504" rx="39.7935" ry="18"/>
<text text-anchor="middle" x="287.131" y="-500.3" font-family="Times,serif" font-size="14.00" fill="#2c94b3">AS2914</text>
</a>
</g>
</g>
<!-- AS1764&#45;&gt;AS2914 -->
<g id="edge5" class="edge"><title>AS1764&#45;&gt;AS2914</title>
<path fill="none" stroke="black" stroke-width="2.04545" d="M182.298,-386.49C195.08,-409.096 219.512,-448.886 247.484,-477 249.595,-479.121 251.891,-481.188 254.277,-483.171"/>
<polygon fill="black" stroke="black" stroke-width="2.04545" points="252.529,-486.242 262.592,-489.556 256.792,-480.69 252.529,-486.242"/>
</g>
<!-- AS1299 -->
<g id="node7" class="node"><title>AS1299</title>
<g id="a_node7"><a xlink:href="/asn/1299" xlink:title="AS1299 ~ Telia Carrier [EU]">
<ellipse fill="#ffffff" stroke="black" cx="287.131" cy="-288" rx="39.7935" ry="18"/>
<text text-anchor="middle" x="287.131" y="-284.3" font-family="Times,serif" font-size="14.00" fill="#2c94b3">AS1299</text>
</a>
</g>
</g>
<!-- AS1764&#45;&gt;AS1299 -->
<g id="edge6" class="edge"><title>AS1764&#45;&gt;AS1299</title>
<path fill="none" stroke="black" stroke-width="2.04545" d="M193.882,-353.954C211.497,-341.361 236.835,-323.245 256.501,-309.184"/>
<polygon fill="black" stroke="black" stroke-width="2.04545" points="258.716,-311.903 264.815,-303.24 254.645,-306.209 258.716,-311.903"/>
</g>
<!-- AS8218 -->
<g id="node8" class="node"><title>AS8218</title>
<g id="a_node8"><a xlink:href="/asn/8218" xlink:title="AS8218 ~ legacy Neotelecoms [FR]">
<ellipse fill="#ffffff" stroke="black" cx="287.131" cy="-180" rx="39.7935" ry="18"/>
<text text-anchor="middle" x="287.131" y="-176.3" font-family="Times,serif" font-size="14.00" fill="#2c94b3">AS8218</text>
</a>
</g>
</g>
<!-- AS1764&#45;&gt;AS8218 -->
<g id="edge7" class="edge"><title>AS1764&#45;&gt;AS8218</title>
<path fill="none" stroke="black" stroke-width="0.818182" d="M183.293,-351.558C203.274,-318.225 246.98,-245.314 270.465,-206.134"/>
<polygon fill="black" stroke="black" stroke-width="0.818182" points="273.561,-207.776 275.701,-197.4 267.558,-204.177 273.561,-207.776"/>
</g>
<!-- AS3320 -->
<g id="node9" class="node"><title>AS3320</title>
<g id="a_node9"><a xlink:href="/asn/3320" xlink:title="AS3320 ~ DTAG [DE]">
<ellipse fill="#ffffff" stroke="black" cx="287.131" cy="-99" rx="39.7935" ry="18"/>
<text text-anchor="middle" x="287.131" y="-95.3" font-family="Times,serif" font-size="14.00" fill="#2c94b3">AS3320</text>
</a>
</g>
</g>
<!-- AS1764&#45;&gt;AS3320 -->
<g id="edge8" class="edge"><title>AS1764&#45;&gt;AS3320</title>
<path fill="none" stroke="black" stroke-width="2.04545" d="M177.187,-350.934C186.741,-312.918 211.602,-222.439 247.484,-153 252.698,-142.91 259.623,-132.589 266.169,-123.709"/>
<polygon fill="black" stroke="black" stroke-width="2.04545" points="268.998,-125.771 272.261,-115.691 263.424,-121.536 268.998,-125.771"/>
</g>
<!-- AS2497 -->
<g id="node10" class="node"><title>AS2497</title>
<g id="a_node10"><a xlink:href="/asn/2497" xlink:title="AS2497 ~ Internet Initiative Japan Inc. [JP]">
<ellipse fill="#ffffff" stroke="black" cx="402.424" cy="-558" rx="39.7935" ry="18"/>
<text text-anchor="middle" x="402.424" y="-554.3" font-family="Times,serif" font-size="14.00" fill="#2c94b3">AS2497</text>
</a>
</g>
</g>
<!-- AS3356&#45;&gt;AS2497 -->
<g id="edge23" class="edge"><title>AS3356&#45;&gt;AS2497</title>
<path fill="none" stroke="black" stroke-width="2" d="M302.427,-386.14C310.414,-396.353 320.075,-409.853 326.777,-423 349.758,-468.077 332.506,-490.458 362.777,-531 364.522,-533.336 366.529,-535.545 368.693,-537.617"/>
<polygon fill="black" stroke="black" stroke-width="2" points="366.57,-540.405 376.493,-544.118 371.052,-535.027 366.57,-540.405"/>
</g>
<!-- AS209 -->
<g id="node12" class="node"><title>AS209</title>
<g id="a_node12"><a xlink:href="/asn/209" xlink:title="AS209 ~ CenturyLink Communications, LLC [US]">
<ellipse fill="#ffffff" stroke="black" cx="402.424" cy="-288" rx="35.194" ry="18"/>
<text text-anchor="middle" x="402.424" y="-284.3" font-family="Times,serif" font-size="14.00" fill="#2c94b3">AS209</text>
</a>
</g>
</g>
<!-- AS3356&#45;&gt;AS209 -->
<g id="edge24" class="edge"><title>AS3356&#45;&gt;AS209</title>
<path fill="none" stroke="black" d="M308.979,-353.778C323.913,-342.909 344.527,-327.975 362.777,-315 365.988,-312.718 369.357,-310.339 372.711,-307.982"/>
<polygon fill="black" stroke="black" points="374.74,-310.834 380.922,-302.23 370.723,-305.101 374.74,-310.834"/>
</g>
<!-- AS6762 -->
<g id="node13" class="node"><title>AS6762</title>
<g id="a_node13"><a xlink:href="/asn/6762" xlink:title="AS6762 ~ TELECOM ITALIA SPARKLE S.p.A. [IT]">
<ellipse fill="#ffffff" stroke="black" cx="402.424" cy="-504" rx="39.7935" ry="18"/>
<text text-anchor="middle" x="402.424" y="-500.3" font-family="Times,serif" font-size="14.00" fill="#2c94b3">AS6762</text>
</a>
</g>
</g>
<!-- AS3356&#45;&gt;AS6762 -->
<g id="edge21" class="edge"><title>AS3356&#45;&gt;AS6762</title>
<path fill="none" stroke="black" stroke-width="2" d="M300.81,-386.406C308.426,-396.937 318.258,-410.67 326.777,-423 343.173,-446.731 342.605,-456.383 362.777,-477 364.87,-479.139 367.154,-481.218 369.53,-483.21"/>
<polygon fill="black" stroke="black" stroke-width="2" points="367.774,-486.275 377.83,-489.611 372.049,-480.732 367.774,-486.275"/>
</g>
<!-- AS6453 -->
<g id="node17" class="node"><title>AS6453</title>
<g id="a_node17"><a xlink:href="/asn/6453" xlink:title="AS6453 ~ TATA COMMUNICATIONS (AMERICA) INC [US]">
<ellipse fill="#ffffff" stroke="black" cx="402.424" cy="-234" rx="39.7935" ry="18"/>
<text text-anchor="middle" x="402.424" y="-230.3" font-family="Times,serif" font-size="14.00" fill="#2c94b3">AS6453</text>
</a>
</g>
</g>
<!-- AS3356&#45;&gt;AS6453 -->
<g id="edge20" class="edge"><title>AS3356&#45;&gt;AS6453</title>
<path fill="none" stroke="black" d="M300.81,-351.594C308.426,-341.063 318.258,-327.33 326.777,-315 343.173,-291.269 342.605,-281.617 362.777,-261 364.87,-258.861 367.154,-256.782 369.53,-254.79"/>
<polygon fill="black" stroke="black" points="372.049,-257.268 377.83,-248.389 367.774,-251.725 372.049,-257.268"/>
</g>
<!-- AS3549 -->
<g id="node19" class="node"><title>AS3549</title>
<g id="a_node19"><a xlink:href="/asn/3549" xlink:title="AS3549 ~ Level 3 Parent, LLC [US]">
<ellipse fill="#ffffff" stroke="black" cx="402.424" cy="-342" rx="39.7935" ry="18"/>
<text text-anchor="middle" x="402.424" y="-338.3" font-family="Times,serif" font-size="14.00" fill="#2c94b3">AS3549</text>
</a>
</g>
</g>
<!-- AS3356&#45;&gt;AS3549 -->
<g id="edge22" class="edge"><title>AS3356&#45;&gt;AS3549</title>
<path fill="none" stroke="black" stroke-width="2" d="M322.738,-360.752C333.609,-358.162 345.764,-355.265 357.206,-352.538"/>
<polygon fill="black" stroke="black" stroke-width="2" points="358.112,-355.92 367.029,-350.197 356.49,-349.111 358.112,-355.92"/>
</g>
<!-- AS1273 -->
<g id="node20" class="node"><title>AS1273</title>
<g id="a_node20"><a xlink:href="/asn/1273" xlink:title="AS1273 ~ Vodafone Group PLC [EU]">
<ellipse fill="#ffffff" stroke="black" cx="402.424" cy="-396" rx="39.7935" ry="18"/>
<text text-anchor="middle" x="402.424" y="-392.3" font-family="Times,serif" font-size="14.00" fill="#2c94b3">AS1273</text>
</a>
</g>
</g>
<!-- AS3356&#45;&gt;AS1273 -->
<g id="edge25" class="edge"><title>AS3356&#45;&gt;AS1273</title>
<path fill="none" stroke="black" d="M322.738,-377.248C333.609,-379.838 345.764,-382.735 357.206,-385.462"/>
<polygon fill="black" stroke="black" points="356.49,-388.889 367.029,-387.803 358.112,-382.08 356.49,-388.889"/>
</g>
<!-- AS174&#45;&gt;AS6762 -->
<g id="edge19" class="edge"><title>AS174&#45;&gt;AS6762</title>
<path fill="none" stroke="black" d="M313.556,-462.119C328.859,-469.413 348.582,-478.814 365.464,-486.86"/>
<polygon fill="black" stroke="black" points="363.971,-490.026 374.504,-491.169 366.983,-483.707 363.971,-490.026"/>
</g>
<!-- AS3491 -->
<g id="node18" class="node"><title>AS3491</title>
<g id="a_node18"><a xlink:href="/asn/3491" xlink:title="AS3491 ~ PCCW Global, Inc. [US]">
<ellipse fill="#ffffff" stroke="black" cx="402.424" cy="-450" rx="39.7935" ry="18"/>
<text text-anchor="middle" x="402.424" y="-446.3" font-family="Times,serif" font-size="14.00" fill="#2c94b3">AS3491</text>
</a>
</g>
</g>
<!-- AS174&#45;&gt;AS3491 -->
<g id="edge18" class="edge"><title>AS174&#45;&gt;AS3491</title>
<path fill="none" stroke="black" stroke-width="2" d="M322.43,-450C331.807,-450 342.158,-450 352.192,-450"/>
<polygon fill="black" stroke="black" stroke-width="2" points="352.481,-453.5 362.481,-450 352.481,-446.5 352.481,-453.5"/>
</g>
<!-- AS3257&#45;&gt;AS2497 -->
<g id="edge9" class="edge"><title>AS3257&#45;&gt;AS2497</title>
<path fill="none" stroke="black" stroke-width="2" d="M326.803,-558C335.006,-558 343.77,-558 352.302,-558"/>
<polygon fill="black" stroke="black" stroke-width="2" points="352.541,-561.5 362.541,-558 352.541,-554.5 352.541,-561.5"/>
</g>
<!-- AS2914&#45;&gt;AS2497 -->
<g id="edge12" class="edge"><title>AS2914&#45;&gt;AS2497</title>
<path fill="none" stroke="black" stroke-width="2" d="M315.267,-516.934C330.261,-524.081 349.082,-533.052 365.306,-540.785"/>
<polygon fill="black" stroke="black" stroke-width="2" points="363.976,-544.028 374.509,-545.171 366.988,-537.709 363.976,-544.028"/>
</g>
<!-- AS2914&#45;&gt;AS6762 -->
<g id="edge13" class="edge"><title>AS2914&#45;&gt;AS6762</title>
<path fill="none" stroke="black" d="M326.803,-504C335.006,-504 343.77,-504 352.302,-504"/>
<polygon fill="black" stroke="black" points="352.541,-507.5 362.541,-504 352.541,-500.5 352.541,-507.5"/>
</g>
<!-- AS7018 -->
<g id="node11" class="node"><title>AS7018</title>
<g id="a_node11"><a xlink:href="/asn/7018" xlink:title="AS7018 ~ AT&amp;T Services, Inc. [US]">
<ellipse fill="#ffffff" stroke="black" cx="402.424" cy="-180" rx="39.7935" ry="18"/>
<text text-anchor="middle" x="402.424" y="-176.3" font-family="Times,serif" font-size="14.00" fill="#2c94b3">AS7018</text>
</a>
</g>
</g>
<!-- AS1299&#45;&gt;AS7018 -->
<g id="edge10" class="edge"><title>AS1299&#45;&gt;AS7018</title>
<path fill="none" stroke="black" stroke-width="2" d="M301.761,-271.183C316.044,-254.071 339.59,-227.255 362.777,-207 365.243,-204.846 367.882,-202.706 370.579,-200.628"/>
<polygon fill="black" stroke="black" stroke-width="2" points="372.752,-203.375 378.733,-194.63 368.604,-197.736 372.752,-203.375"/>
</g>
<!-- AS1299&#45;&gt;AS209 -->
<g id="edge11" class="edge"><title>AS1299&#45;&gt;AS209</title>
<path fill="none" stroke="black" d="M326.803,-288C336.508,-288 346.999,-288 356.962,-288"/>
<polygon fill="black" stroke="black" points="357.098,-291.5 367.098,-288 357.098,-284.5 357.098,-291.5"/>
</g>
<!-- AS6461 -->
<g id="node14" class="node"><title>AS6461</title>
<g id="a_node14"><a xlink:href="/asn/6461" xlink:title="AS6461 ~ Zayo Bandwidth [US]">
<ellipse fill="#ffffff" stroke="black" cx="402.424" cy="-126" rx="39.7935" ry="18"/>
<text text-anchor="middle" x="402.424" y="-122.3" font-family="Times,serif" font-size="14.00" fill="#2c94b3">AS6461</text>
</a>
</g>
</g>
<!-- AS8218&#45;&gt;AS6461 -->
<g id="edge14" class="edge"><title>AS8218&#45;&gt;AS6461</title>
<path fill="none" stroke="black" stroke-width="2" d="M315.267,-167.066C330.261,-159.919 349.082,-150.948 365.306,-143.215"/>
<polygon fill="black" stroke="black" stroke-width="2" points="366.988,-146.291 374.509,-138.829 363.976,-139.972 366.988,-146.291"/>
</g>
<!-- AS1239 -->
<g id="node15" class="node"><title>AS1239</title>
<g id="a_node15"><a xlink:href="/asn/1239" xlink:title="AS1239 ~ Sprint [US]">
<ellipse fill="#ffffff" stroke="black" cx="402.424" cy="-18" rx="39.7935" ry="18"/>
<text text-anchor="middle" x="402.424" y="-14.3" font-family="Times,serif" font-size="14.00" fill="#2c94b3">AS1239</text>
</a>
</g>
</g>
<!-- AS3320&#45;&gt;AS1239 -->
<g id="edge15" class="edge"><title>AS3320&#45;&gt;AS1239</title>
<path fill="none" stroke="black" d="M308.979,-83.7781C323.913,-72.9088 344.527,-57.9753 362.777,-45 365.598,-42.9948 368.541,-40.9154 371.489,-38.8411"/>
<polygon fill="black" stroke="black" points="373.535,-41.6812 379.714,-33.0744 369.516,-35.9497 373.535,-41.6812"/>
</g>
<!-- AS701 -->
<g id="node16" class="node"><title>AS701</title>
<g id="a_node16"><a xlink:href="/asn/701" xlink:title="AS701 ~ UUNET [US]">
<ellipse fill="#ffffff" stroke="black" cx="402.424" cy="-72" rx="35.194" ry="18"/>
<text text-anchor="middle" x="402.424" y="-68.3" font-family="Times,serif" font-size="14.00" fill="#2c94b3">AS701</text>
</a>
</g>
</g>
<!-- AS3320&#45;&gt;AS701 -->
<g id="edge16" class="edge"><title>AS3320&#45;&gt;AS701</title>
<path fill="none" stroke="black" stroke-width="2" d="M322.738,-90.7524C334.533,-87.9415 347.837,-84.7708 360.105,-81.8471"/>
<polygon fill="black" stroke="black" stroke-width="2" points="361.194,-85.1858 370.11,-79.4628 359.571,-78.3765 361.194,-85.1858"/>
</g>
<!-- AS3320&#45;&gt;AS6453 -->
<g id="edge17" class="edge"><title>AS3320&#45;&gt;AS6453</title>
<path fill="none" stroke="black" d="M300.81,-116.406C308.426,-126.937 318.258,-140.67 326.777,-153 343.173,-176.731 342.605,-186.383 362.777,-207 364.87,-209.139 367.154,-211.218 369.53,-213.21"/>
<polygon fill="black" stroke="black" points="367.774,-216.275 377.83,-219.611 372.049,-210.732 367.774,-216.275"/>
</g>
</g>
</svg>
