<?xml version="1.0" encoding="UTF-8" standalone="no"?>
<!DOCTYPE svg PUBLIC "-//W3C//DTD SVG 1.1//EN"
 "http://www.w3.org/Graphics/SVG/1.1/DTD/svg11.dtd">
<!-- Generated by graphviz version 2.38.0 (20140413.2041)
 -->
<!-- Title: AS28839 IPv4 Upstream Graph Pages: 1 -->
<svg width="451pt" height="530pt"
 viewBox="0.00 0.00 451.37 530.00" xmlns="http://www.w3.org/2000/svg" xmlns:xlink="http://www.w3.org/1999/xlink">
<g id="graph0" class="graph" transform="scale(1 1) rotate(0) translate(4 526)">
<title>AS28839 IPv4 Upstream Graph</title>
<polygon fill="white" stroke="none" points="-4,4 -4,-526 447.37,-526 447.37,4 -4,4"/>
<!-- AS28839 -->
<g id="node1" class="node"><title>AS28839</title>
<g id="a_node1"><a xlink:href="/asn/28839" xlink:title="AS28839 ~ ASN&#45;UNOV [AT]">
<ellipse fill="#ffffff" stroke="black" cx="44.1961" cy="-300" rx="44.393" ry="18"/>
<text text-anchor="middle" x="44.1961" y="-296.3" font-family="Times,serif" font-size="14.00" fill="#880000">AS28839</text>
</a>
</g>
</g>
<!-- AS1764 -->
<g id="node2" class="node"><title>AS1764</title>
<g id="a_node2"><a xlink:href="/asn/1764" xlink:title="AS1764 ~ NEXTLAYER&#45;AS [AT]">
<ellipse fill="#ffffff" stroke="black" cx="164.039" cy="-248" rx="39.7935" ry="18"/>
<text text-anchor="middle" x="164.039" y="-244.3" font-family="Times,serif" font-size="14.00" fill="#2c94b3">AS1764</text>
</a>
</g>
</g>
<!-- AS28839&#45;&gt;AS1764 -->
<g id="edge1" class="edge"><title>AS28839&#45;&gt;AS1764</title>
<path fill="none" stroke="black" stroke-width="4.5" d="M74.9327,-286.878C90.3219,-280.087 109.265,-271.729 125.637,-264.504"/>
<polygon fill="black" stroke="black" stroke-width="4.5" points="127.375,-268.041 134.934,-260.402 124.196,-260.836 127.375,-268.041"/>
</g>
<!-- AS6830 -->
<g id="node3" class="node"><title>AS6830</title>
<g id="a_node3"><a xlink:href="/asn/6830" xlink:title="AS6830 ~ LGI&#45;UPC [AT]">
<ellipse fill="#ffffff" stroke="black" cx="279.332" cy="-383" rx="39.7935" ry="18"/>
<text text-anchor="middle" x="279.332" y="-379.3" font-family="Times,serif" font-size="14.00" fill="#2c94b3">AS6830</text>
</a>
</g>
</g>
<!-- AS28839&#45;&gt;AS6830 -->
<g id="edge2" class="edge"><title>AS28839&#45;&gt;AS6830</title>
<path fill="none" stroke="black" stroke-width="1.71429" d="M78.1042,-311.716C120.084,-326.661 192.66,-352.499 237.944,-368.622"/>
<polygon fill="black" stroke="black" stroke-width="1.71429" points="236.854,-371.949 247.449,-372.005 239.202,-365.354 236.854,-371.949"/>
</g>
<!-- AS1299 -->
<g id="node4" class="node"><title>AS1299</title>
<g id="a_node4"><a xlink:href="/asn/1299" xlink:title="AS1299 ~ Telia Carrier [EU]">
<ellipse fill="#ffffff" stroke="black" cx="279.332" cy="-329" rx="39.7935" ry="18"/>
<text text-anchor="middle" x="279.332" y="-325.3" font-family="Times,serif" font-size="14.00" fill="#2c94b3">AS1299</text>
</a>
</g>
</g>
<!-- AS1764&#45;&gt;AS1299 -->
<g id="edge3" class="edge"><title>AS1764&#45;&gt;AS1299</title>
<path fill="none" stroke="black" stroke-width="2.7" d="M185.887,-263.222C200.821,-274.091 221.435,-289.025 239.685,-302 242.506,-304.005 245.449,-306.085 248.397,-308.159"/>
<polygon fill="black" stroke="black" stroke-width="2.7" points="246.424,-311.05 256.621,-313.926 250.443,-305.319 246.424,-311.05"/>
</g>
<!-- AS174 -->
<g id="node5" class="node"><title>AS174</title>
<g id="a_node5"><a xlink:href="/asn/174" xlink:title="AS174 ~ Cogent Communications [US]">
<ellipse fill="#ffffff" stroke="black" cx="279.332" cy="-275" rx="35.194" ry="18"/>
<text text-anchor="middle" x="279.332" y="-271.3" font-family="Times,serif" font-size="14.00" fill="#2c94b3">AS174</text>
</a>
</g>
</g>
<!-- AS1764&#45;&gt;AS174 -->
<g id="edge4" class="edge"><title>AS1764&#45;&gt;AS174</title>
<path fill="none" stroke="black" stroke-width="2.7" d="M199.646,-256.248C211.44,-259.058 224.745,-262.229 237.013,-265.153"/>
<polygon fill="black" stroke="black" stroke-width="2.7" points="236.479,-268.624 247.018,-267.537 238.101,-261.814 236.479,-268.624"/>
</g>
<!-- AS3257 -->
<g id="node6" class="node"><title>AS3257</title>
<g id="a_node6"><a xlink:href="/asn/3257" xlink:title="AS3257 ~ GTT [DE]">
<ellipse fill="#ffffff" stroke="black" cx="279.332" cy="-221" rx="39.7935" ry="18"/>
<text text-anchor="middle" x="279.332" y="-217.3" font-family="Times,serif" font-size="14.00" fill="#2c94b3">AS3257</text>
</a>
</g>
</g>
<!-- AS1764&#45;&gt;AS3257 -->
<g id="edge5" class="edge"><title>AS1764&#45;&gt;AS3257</title>
<path fill="none" stroke="black" stroke-width="2.7" d="M199.646,-239.752C210.517,-237.162 222.671,-234.265 234.114,-231.538"/>
<polygon fill="black" stroke="black" stroke-width="2.7" points="235.02,-234.92 243.936,-229.197 233.397,-228.111 235.02,-234.92"/>
</g>
<!-- AS8218 -->
<g id="node7" class="node"><title>AS8218</title>
<g id="a_node7"><a xlink:href="/asn/8218" xlink:title="AS8218 ~ legacy Neotelecoms [FR]">
<ellipse fill="#ffffff" stroke="black" cx="279.332" cy="-32" rx="39.7935" ry="18"/>
<text text-anchor="middle" x="279.332" y="-28.3" font-family="Times,serif" font-size="14.00" fill="#2c94b3">AS8218</text>
</a>
</g>
</g>
<!-- AS1764&#45;&gt;AS8218 -->
<g id="edge6" class="edge"><title>AS1764&#45;&gt;AS8218</title>
<path fill="none" stroke="black" stroke-width="0.9" d="M172.042,-229.949C184.169,-199.43 210.587,-136.067 239.685,-86 245.392,-76.1806 252.43,-65.9217 258.929,-57.0159"/>
<polygon fill="black" stroke="black" stroke-width="0.9" points="261.77,-59.0615 264.934,-48.9504 256.155,-54.8811 261.77,-59.0615"/>
</g>
<!-- AS2914 -->
<g id="node8" class="node"><title>AS2914</title>
<g id="a_node8"><a xlink:href="/asn/2914" xlink:title="AS2914 ~ NTT America, Inc. [US]">
<ellipse fill="#ffffff" stroke="black" cx="279.332" cy="-167" rx="39.7935" ry="18"/>
<text text-anchor="middle" x="279.332" y="-163.3" font-family="Times,serif" font-size="14.00" fill="#2c94b3">AS2914</text>
</a>
</g>
</g>
<!-- AS1764&#45;&gt;AS2914 -->
<g id="edge7" class="edge"><title>AS1764&#45;&gt;AS2914</title>
<path fill="none" stroke="black" stroke-width="2.7" d="M185.887,-232.778C200.821,-221.909 221.435,-206.975 239.685,-194 242.506,-191.995 245.449,-189.915 248.397,-187.841"/>
<polygon fill="black" stroke="black" stroke-width="2.7" points="250.443,-190.681 256.621,-182.074 246.424,-184.95 250.443,-190.681"/>
</g>
<!-- AS3356 -->
<g id="node9" class="node"><title>AS3356</title>
<g id="a_node9"><a xlink:href="/asn/3356" xlink:title="AS3356 ~ Level 3 Parent, LLC [US]">
<ellipse fill="#ffffff" stroke="black" cx="279.332" cy="-113" rx="39.7935" ry="18"/>
<text text-anchor="middle" x="279.332" y="-109.3" font-family="Times,serif" font-size="14.00" fill="#2c94b3">AS3356</text>
</a>
</g>
</g>
<!-- AS1764&#45;&gt;AS3356 -->
<g id="edge8" class="edge"><title>AS1764&#45;&gt;AS3356</title>
<path fill="none" stroke="black" stroke-width="4.5" d="M174.498,-230.51C187.28,-207.904 211.712,-168.114 239.685,-140 241.796,-137.879 244.092,-135.812 246.477,-133.829"/>
<polygon fill="black" stroke="black" stroke-width="4.5" points="249.259,-136.657 254.793,-127.444 244.463,-130.411 249.259,-136.657"/>
</g>
<!-- AS3320 -->
<g id="node10" class="node"><title>AS3320</title>
<g id="a_node10"><a xlink:href="/asn/3320" xlink:title="AS3320 ~ DTAG [DE]">
<ellipse fill="#ffffff" stroke="black" cx="279.332" cy="-450" rx="39.7935" ry="18"/>
<text text-anchor="middle" x="279.332" y="-446.3" font-family="Times,serif" font-size="14.00" fill="#2c94b3">AS3320</text>
</a>
</g>
</g>
<!-- AS1764&#45;&gt;AS3320 -->
<g id="edge9" class="edge"><title>AS1764&#45;&gt;AS3320</title>
<path fill="none" stroke="black" stroke-width="2.7" d="M171.083,-266.048C181.965,-297.106 206.813,-361.95 239.685,-410 243.641,-415.783 248.46,-421.501 253.334,-426.727"/>
<polygon fill="black" stroke="black" stroke-width="2.7" points="250.929,-429.274 260.421,-433.981 255.936,-424.382 250.929,-429.274"/>
</g>
<!-- AS7018 -->
<g id="node11" class="node"><title>AS7018</title>
<g id="a_node11"><a xlink:href="/asn/7018" xlink:title="AS7018 ~ AT&amp;T Services, Inc. [US]">
<ellipse fill="#ffffff" stroke="black" cx="399.174" cy="-342" rx="39.7935" ry="18"/>
<text text-anchor="middle" x="399.174" y="-338.3" font-family="Times,serif" font-size="14.00" fill="#2c94b3">AS7018</text>
</a>
</g>
</g>
<!-- AS6830&#45;&gt;AS7018 -->
<g id="edge25" class="edge"><title>AS6830&#45;&gt;AS7018</title>
<path fill="none" stroke="black" d="M311.293,-372.228C325.39,-367.323 342.266,-361.452 357.38,-356.193"/>
<polygon fill="black" stroke="black" points="358.715,-359.434 367.01,-352.843 356.415,-352.823 358.715,-359.434"/>
</g>
<!-- AS6762 -->
<g id="node12" class="node"><title>AS6762</title>
<g id="a_node12"><a xlink:href="/asn/6762" xlink:title="AS6762 ~ TELECOM ITALIA SPARKLE S.p.A. [IT]">
<ellipse fill="#ffffff" stroke="black" cx="399.174" cy="-234" rx="39.7935" ry="18"/>
<text text-anchor="middle" x="399.174" y="-230.3" font-family="Times,serif" font-size="14.00" fill="#2c94b3">AS6762</text>
</a>
</g>
</g>
<!-- AS6830&#45;&gt;AS6762 -->
<g id="edge31" class="edge"><title>AS6830&#45;&gt;AS6762</title>
<path fill="none" stroke="black" d="M305.114,-369.005C310.198,-365.281 315.156,-360.908 318.978,-356 346.719,-320.375 326.335,-295.904 354.978,-261 357.362,-258.094 360.146,-255.41 363.13,-252.952"/>
<polygon fill="black" stroke="black" points="365.32,-255.687 371.361,-246.983 361.211,-250.02 365.32,-255.687"/>
</g>
<!-- AS6453 -->
<g id="node15" class="node"><title>AS6453</title>
<g id="a_node15"><a xlink:href="/asn/6453" xlink:title="AS6453 ~ TATA COMMUNICATIONS (AMERICA) INC [US]">
<ellipse fill="#ffffff" stroke="black" cx="399.174" cy="-180" rx="39.7935" ry="18"/>
<text text-anchor="middle" x="399.174" y="-176.3" font-family="Times,serif" font-size="14.00" fill="#2c94b3">AS6453</text>
</a>
</g>
</g>
<!-- AS6830&#45;&gt;AS6453 -->
<g id="edge26" class="edge"><title>AS6830&#45;&gt;AS6453</title>
<path fill="none" stroke="black" d="M305.58,-369.345C310.64,-365.604 315.471,-361.137 318.978,-356 357.391,-299.734 315.138,-262.265 354.978,-207 357.058,-204.115 359.551,-201.47 362.275,-199.06"/>
<polygon fill="black" stroke="black" points="364.559,-201.721 370.415,-192.892 360.331,-196.142 364.559,-201.721"/>
</g>
<!-- AS2497 -->
<g id="node16" class="node"><title>AS2497</title>
<g id="a_node16"><a xlink:href="/asn/2497" xlink:title="AS2497 ~ Internet Initiative Japan Inc. [JP]">
<ellipse fill="#ffffff" stroke="black" cx="399.174" cy="-126" rx="39.7935" ry="18"/>
<text text-anchor="middle" x="399.174" y="-122.3" font-family="Times,serif" font-size="14.00" fill="#2c94b3">AS2497</text>
</a>
</g>
</g>
<!-- AS6830&#45;&gt;AS2497 -->
<g id="edge27" class="edge"><title>AS6830&#45;&gt;AS2497</title>
<path fill="none" stroke="black" d="M305.817,-369.502C310.865,-365.752 315.631,-361.243 318.978,-356 368.289,-278.77 303.707,-228.943 354.978,-153 356.908,-150.141 359.252,-147.527 361.84,-145.149"/>
<polygon fill="black" stroke="black" points="364.392,-147.601 370.163,-138.716 360.111,-142.062 364.392,-147.601"/>
</g>
<!-- AS701 -->
<g id="node17" class="node"><title>AS701</title>
<g id="a_node17"><a xlink:href="/asn/701" xlink:title="AS701 ~ UUNET [US]">
<ellipse fill="#ffffff" stroke="black" cx="399.174" cy="-504" rx="35.194" ry="18"/>
<text text-anchor="middle" x="399.174" y="-500.3" font-family="Times,serif" font-size="14.00" fill="#2c94b3">AS701</text>
</a>
</g>
</g>
<!-- AS6830&#45;&gt;AS701 -->
<g id="edge28" class="edge"><title>AS6830&#45;&gt;AS701</title>
<path fill="none" stroke="black" d="M297.202,-399.119C304.243,-406.18 312.315,-414.728 318.978,-423 337.073,-445.463 334.285,-456.906 354.978,-477 358.206,-480.134 361.857,-483.089 365.635,-485.812"/>
<polygon fill="black" stroke="black" points="363.732,-488.75 373.995,-491.383 367.614,-482.925 363.732,-488.75"/>
</g>
<!-- AS1239 -->
<g id="node18" class="node"><title>AS1239</title>
<g id="a_node18"><a xlink:href="/asn/1239" xlink:title="AS1239 ~ Sprint [US]">
<ellipse fill="#ffffff" stroke="black" cx="399.174" cy="-450" rx="39.7935" ry="18"/>
<text text-anchor="middle" x="399.174" y="-446.3" font-family="Times,serif" font-size="14.00" fill="#2c94b3">AS1239</text>
</a>
</g>
</g>
<!-- AS6830&#45;&gt;AS1239 -->
<g id="edge30" class="edge"><title>AS6830&#45;&gt;AS1239</title>
<path fill="none" stroke="black" d="M304.749,-396.882C322.208,-406.809 345.909,-420.284 365.069,-431.178"/>
<polygon fill="black" stroke="black" points="363.365,-434.235 373.788,-436.135 366.825,-428.15 363.365,-434.235"/>
</g>
<!-- AS3491 -->
<g id="node19" class="node"><title>AS3491</title>
<g id="a_node19"><a xlink:href="/asn/3491" xlink:title="AS3491 ~ PCCW Global, Inc. [US]">
<ellipse fill="#ffffff" stroke="black" cx="399.174" cy="-288" rx="39.7935" ry="18"/>
<text text-anchor="middle" x="399.174" y="-284.3" font-family="Times,serif" font-size="14.00" fill="#2c94b3">AS3491</text>
</a>
</g>
</g>
<!-- AS6830&#45;&gt;AS3491 -->
<g id="edge29" class="edge"><title>AS6830&#45;&gt;AS3491</title>
<path fill="none" stroke="black" d="M303.096,-368.454C308.495,-364.641 314.099,-360.367 318.978,-356 337.048,-339.828 336.5,-330.704 354.978,-315 358,-312.432 361.289,-309.935 364.658,-307.563"/>
<polygon fill="black" stroke="black" points="366.703,-310.406 373.093,-301.955 362.828,-304.577 366.703,-310.406"/>
</g>
<!-- AS12956 -->
<g id="node20" class="node"><title>AS12956</title>
<g id="a_node20"><a xlink:href="/asn/12956" xlink:title="AS12956 ~ TELXIUS [ES]">
<ellipse fill="#ffffff" stroke="black" cx="399.174" cy="-396" rx="44.393" ry="18"/>
<text text-anchor="middle" x="399.174" y="-392.3" font-family="Times,serif" font-size="14.00" fill="#2c94b3">AS12956</text>
</a>
</g>
</g>
<!-- AS6830&#45;&gt;AS12956 -->
<g id="edge32" class="edge"><title>AS6830&#45;&gt;AS12956</title>
<path fill="none" stroke="black" d="M317.942,-387.149C326.945,-388.142 336.715,-389.22 346.238,-390.271"/>
<polygon fill="black" stroke="black" points="346.103,-393.777 356.426,-391.395 346.871,-386.819 346.103,-393.777"/>
</g>
<!-- AS1299&#45;&gt;AS7018 -->
<g id="edge10" class="edge"><title>AS1299&#45;&gt;AS7018</title>
<path fill="none" stroke="black" d="M317.942,-333.149C328.253,-334.287 339.57,-335.535 350.37,-336.726"/>
<polygon fill="black" stroke="black" points="350.194,-340.228 360.517,-337.846 350.961,-333.27 350.194,-340.228"/>
</g>
<!-- AS1299&#45;&gt;AS6762 -->
<g id="edge11" class="edge"><title>AS1299&#45;&gt;AS6762</title>
<path fill="none" stroke="black" d="M303.096,-314.454C308.495,-310.641 314.099,-306.367 318.978,-302 337.048,-285.828 336.5,-276.704 354.978,-261 358,-258.432 361.289,-255.935 364.658,-253.563"/>
<polygon fill="black" stroke="black" points="366.703,-256.406 373.093,-247.955 362.828,-250.577 366.703,-256.406"/>
</g>
<!-- AS174&#45;&gt;AS6762 -->
<g id="edge22" class="edge"><title>AS174&#45;&gt;AS6762</title>
<path fill="none" stroke="black" d="M308.858,-265.075C323.412,-260.012 341.372,-253.763 357.362,-248.2"/>
<polygon fill="black" stroke="black" points="358.72,-251.433 367.015,-244.841 356.42,-244.821 358.72,-251.433"/>
</g>
<!-- AS174&#45;&gt;AS3491 -->
<g id="edge21" class="edge"><title>AS174&#45;&gt;AS3491</title>
<path fill="none" stroke="black" d="M313.785,-278.691C325.162,-279.946 338.107,-281.374 350.383,-282.728"/>
<polygon fill="black" stroke="black" points="350.164,-286.225 360.488,-283.843 350.932,-279.267 350.164,-286.225"/>
</g>
<!-- AS3257&#45;&gt;AS2497 -->
<g id="edge24" class="edge"><title>AS3257&#45;&gt;AS2497</title>
<path fill="none" stroke="black" d="M303.096,-206.454C308.495,-202.641 314.099,-198.367 318.978,-194 337.048,-177.828 336.5,-168.704 354.978,-153 358,-150.432 361.289,-147.935 364.658,-145.563"/>
<polygon fill="black" stroke="black" points="366.703,-148.406 373.093,-139.955 362.828,-142.577 366.703,-148.406"/>
</g>
<!-- AS3257&#45;&gt;AS3491 -->
<g id="edge23" class="edge"><title>AS3257&#45;&gt;AS3491</title>
<path fill="none" stroke="black" d="M304.749,-234.882C322.208,-244.809 345.909,-258.284 365.069,-269.178"/>
<polygon fill="black" stroke="black" points="363.365,-272.235 373.788,-274.135 366.825,-266.15 363.365,-272.235"/>
</g>
<!-- AS6461 -->
<g id="node13" class="node"><title>AS6461</title>
<g id="a_node13"><a xlink:href="/asn/6461" xlink:title="AS6461 ~ Zayo Bandwidth [US]">
<ellipse fill="#ffffff" stroke="black" cx="399.174" cy="-18" rx="39.7935" ry="18"/>
<text text-anchor="middle" x="399.174" y="-14.3" font-family="Times,serif" font-size="14.00" fill="#2c94b3">AS6461</text>
</a>
</g>
</g>
<!-- AS8218&#45;&gt;AS6461 -->
<g id="edge12" class="edge"><title>AS8218&#45;&gt;AS6461</title>
<path fill="none" stroke="black" d="M317.942,-27.5318C328.253,-26.3068 339.57,-24.9623 350.37,-23.6792"/>
<polygon fill="black" stroke="black" points="351,-27.1291 360.517,-22.4737 350.174,-20.178 351,-27.1291"/>
</g>
<!-- AS2914&#45;&gt;AS6762 -->
<g id="edge18" class="edge"><title>AS2914&#45;&gt;AS6762</title>
<path fill="none" stroke="black" d="M304.749,-180.882C322.208,-190.809 345.909,-204.284 365.069,-215.178"/>
<polygon fill="black" stroke="black" points="363.365,-218.235 373.788,-220.135 366.825,-212.15 363.365,-218.235"/>
</g>
<!-- AS2914&#45;&gt;AS2497 -->
<g id="edge17" class="edge"><title>AS2914&#45;&gt;AS2497</title>
<path fill="none" stroke="black" d="M311.293,-156.228C325.39,-151.323 342.266,-145.452 357.38,-140.193"/>
<polygon fill="black" stroke="black" points="358.715,-143.434 367.01,-136.843 356.415,-136.823 358.715,-143.434"/>
</g>
<!-- AS3356&#45;&gt;AS6762 -->
<g id="edge14" class="edge"><title>AS3356&#45;&gt;AS6762</title>
<path fill="none" stroke="black" d="M304.247,-127.09C309.49,-130.86 314.735,-135.23 318.978,-140 341.446,-165.257 331.872,-182.326 354.978,-207 357.547,-209.743 360.454,-212.32 363.515,-214.71"/>
<polygon fill="black" stroke="black" points="361.663,-217.687 371.854,-220.585 365.695,-211.964 361.663,-217.687"/>
</g>
<!-- AS3549 -->
<g id="node14" class="node"><title>AS3549</title>
<g id="a_node14"><a xlink:href="/asn/3549" xlink:title="AS3549 ~ Level 3 Parent, LLC [US]">
<ellipse fill="#ffffff" stroke="black" cx="399.174" cy="-72" rx="39.7935" ry="18"/>
<text text-anchor="middle" x="399.174" y="-68.3" font-family="Times,serif" font-size="14.00" fill="#2c94b3">AS3549</text>
</a>
</g>
</g>
<!-- AS3356&#45;&gt;AS3549 -->
<g id="edge13" class="edge"><title>AS3356&#45;&gt;AS3549</title>
<path fill="none" stroke="black" d="M311.293,-102.228C325.39,-97.3232 342.266,-91.4515 357.38,-86.1932"/>
<polygon fill="black" stroke="black" points="358.715,-89.4344 367.01,-82.8427 356.415,-82.8231 358.715,-89.4344"/>
</g>
<!-- AS3356&#45;&gt;AS6453 -->
<g id="edge15" class="edge"><title>AS3356&#45;&gt;AS6453</title>
<path fill="none" stroke="black" d="M304.749,-126.882C322.208,-136.809 345.909,-150.284 365.069,-161.178"/>
<polygon fill="black" stroke="black" points="363.365,-164.235 373.788,-166.135 366.825,-158.15 363.365,-164.235"/>
</g>
<!-- AS3356&#45;&gt;AS2497 -->
<g id="edge16" class="edge"><title>AS3356&#45;&gt;AS2497</title>
<path fill="none" stroke="black" d="M317.942,-117.149C328.253,-118.287 339.57,-119.535 350.37,-120.726"/>
<polygon fill="black" stroke="black" points="350.194,-124.228 360.517,-121.846 350.961,-117.27 350.194,-124.228"/>
</g>
<!-- AS3320&#45;&gt;AS701 -->
<g id="edge19" class="edge"><title>AS3320&#45;&gt;AS701</title>
<path fill="none" stroke="black" d="M307.96,-462.661C324.377,-470.183 345.358,-479.798 362.955,-487.861"/>
<polygon fill="black" stroke="black" points="361.783,-491.174 372.332,-492.158 364.7,-484.811 361.783,-491.174"/>
</g>
<!-- AS3320&#45;&gt;AS1239 -->
<g id="edge20" class="edge"><title>AS3320&#45;&gt;AS1239</title>
<path fill="none" stroke="black" d="M319.244,-450C328.798,-450 339.147,-450 349.11,-450"/>
<polygon fill="black" stroke="black" points="349.302,-453.5 359.302,-450 349.302,-446.5 349.302,-453.5"/>
</g>
</g>
</svg>
