<?xml version="1.0" encoding="UTF-8" standalone="no"?>
<!DOCTYPE svg PUBLIC "-//W3C//DTD SVG 1.1//EN"
 "http://www.w3.org/Graphics/SVG/1.1/DTD/svg11.dtd">
<!-- Generated by graphviz version 2.38.0 (20140413.2041)
 -->
<!-- Title: AS43848 IPv4 Upstream Graph Pages: 1 -->
<svg width="815pt" height="768pt"
 viewBox="0.00 0.00 815.45 768.00" xmlns="http://www.w3.org/2000/svg" xmlns:xlink="http://www.w3.org/1999/xlink">
<g id="graph0" class="graph" transform="scale(1 1) rotate(0) translate(4 764)">
<title>AS43848 IPv4 Upstream Graph</title>
<polygon fill="white" stroke="none" points="-4,4 -4,-764 811.448,-764 811.448,4 -4,4"/>
<!-- AS43848 -->
<g id="node1" class="node"><title>AS43848</title>
<g id="a_node1"><a xlink:href="/asn/43848" xlink:title="AS43848 ~ Unterauerstrasse 7 [AT]">
<ellipse fill="#ffffff" stroke="black" cx="44.1961" cy="-392" rx="44.393" ry="18"/>
<text text-anchor="middle" x="44.1961" y="-388.3" font-family="Times,serif" font-size="14.00" fill="#880000">AS43848</text>
</a>
</g>
</g>
<!-- AS28889 -->
<g id="node2" class="node"><title>AS28889</title>
<g id="a_node2"><a xlink:href="/asn/28889" xlink:title="AS28889 ~ LINZNET&#45;AS [AT]">
<ellipse fill="#ffffff" stroke="black" cx="168.588" cy="-392" rx="44.393" ry="18"/>
<text text-anchor="middle" x="168.588" y="-388.3" font-family="Times,serif" font-size="14.00" fill="#2c94b3">AS28889</text>
</a>
</g>
</g>
<!-- AS43848&#45;&gt;AS28889 -->
<g id="edge1" class="edge"><title>AS43848&#45;&gt;AS28889</title>
<path fill="none" stroke="black" stroke-width="4.5" d="M88.6916,-392C96.898,-392 105.569,-392 114.041,-392"/>
<polygon fill="black" stroke="black" stroke-width="4.5" points="114.233,-395.938 124.233,-392 114.233,-388.063 114.233,-395.938"/>
</g>
<!-- AS174 -->
<g id="node3" class="node"><title>AS174</title>
<g id="a_node3"><a xlink:href="/asn/174" xlink:title="AS174 ~ Cogent Communications [US]">
<ellipse fill="#ffffff" stroke="black" cx="408.273" cy="-361" rx="35.194" ry="18"/>
<text text-anchor="middle" x="408.273" y="-357.3" font-family="Times,serif" font-size="14.00" fill="#2c94b3">AS174</text>
</a>
</g>
</g>
<!-- AS28889&#45;&gt;AS174 -->
<g id="edge2" class="edge"><title>AS28889&#45;&gt;AS174</title>
<path fill="none" stroke="black" stroke-width="4.5" d="M211.345,-387.353C243.33,-383.706 288.534,-378.365 328.077,-373 339.908,-371.395 352.71,-369.517 364.502,-367.729"/>
<polygon fill="black" stroke="black" stroke-width="4.5" points="365.265,-371.596 374.554,-366.191 364.074,-363.812 365.265,-371.596"/>
</g>
<!-- AS8245 -->
<g id="node4" class="node"><title>AS8245</title>
<g id="a_node4"><a xlink:href="/asn/8245" xlink:title="AS8245 ~ Video&#45;Broadcast GmbH [AT]">
<ellipse fill="#ffffff" stroke="black" cx="288.431" cy="-346" rx="39.7935" ry="18"/>
<text text-anchor="middle" x="288.431" y="-342.3" font-family="Times,serif" font-size="14.00" fill="#2c94b3">AS8245</text>
</a>
</g>
</g>
<!-- AS28889&#45;&gt;AS8245 -->
<g id="edge3" class="edge"><title>AS28889&#45;&gt;AS8245</title>
<path fill="none" stroke="black" stroke-width="1.38462" d="M201.168,-379.673C215.597,-374.04 232.837,-367.311 248.098,-361.354"/>
<polygon fill="black" stroke="black" stroke-width="1.38462" points="249.749,-364.466 257.792,-357.57 247.203,-357.946 249.749,-364.466"/>
</g>
<!-- AS1299 -->
<g id="node5" class="node"><title>AS1299</title>
<g id="a_node5"><a xlink:href="/asn/1299" xlink:title="AS1299 ~ Telia Carrier [EU]">
<ellipse fill="#ffffff" stroke="black" cx="408.273" cy="-515" rx="39.7935" ry="18"/>
<text text-anchor="middle" x="408.273" y="-511.3" font-family="Times,serif" font-size="14.00" fill="#2c94b3">AS1299</text>
</a>
</g>
</g>
<!-- AS28889&#45;&gt;AS1299 -->
<g id="edge4" class="edge"><title>AS28889&#45;&gt;AS1299</title>
<path fill="none" stroke="black" stroke-width="3.80769" d="M196.854,-406.11C240.18,-428.531 324.709,-472.274 372.388,-496.947"/>
<polygon fill="black" stroke="black" stroke-width="3.80769" points="370.919,-500.128 381.409,-501.616 374.137,-493.911 370.919,-500.128"/>
</g>
<!-- AS2914 -->
<g id="node6" class="node"><title>AS2914</title>
<g id="a_node6"><a xlink:href="/asn/2914" xlink:title="AS2914 ~ NTT America, Inc. [US]">
<ellipse fill="#ffffff" stroke="black" cx="532.666" cy="-542" rx="39.7935" ry="18"/>
<text text-anchor="middle" x="532.666" y="-538.3" font-family="Times,serif" font-size="14.00" fill="#2c94b3">AS2914</text>
</a>
</g>
</g>
<!-- AS174&#45;&gt;AS2914 -->
<g id="edge5" class="edge"><title>AS174&#45;&gt;AS2914</title>
<path fill="none" stroke="black" d="M414.97,-379.019C425.433,-409.845 450.209,-473.398 488.469,-515 491.014,-517.767 493.904,-520.359 496.955,-522.758"/>
<polygon fill="black" stroke="black" points="495.094,-525.729 505.279,-528.646 499.136,-520.014 495.094,-525.729"/>
</g>
<!-- AS3491 -->
<g id="node7" class="node"><title>AS3491</title>
<g id="a_node7"><a xlink:href="/asn/3491" xlink:title="AS3491 ~ PCCW Global, Inc. [US]">
<ellipse fill="#ffffff" stroke="black" cx="532.666" cy="-234" rx="39.7935" ry="18"/>
<text text-anchor="middle" x="532.666" y="-230.3" font-family="Times,serif" font-size="14.00" fill="#2c94b3">AS3491</text>
</a>
</g>
</g>
<!-- AS174&#45;&gt;AS3491 -->
<g id="edge6" class="edge"><title>AS174&#45;&gt;AS3491</title>
<path fill="none" stroke="black" d="M425.558,-344.988C433.959,-336.406 444.159,-325.468 452.469,-315 470.404,-292.409 467.776,-281.094 488.469,-261 491.315,-258.237 494.488,-255.614 497.789,-253.166"/>
<polygon fill="black" stroke="black" points="499.854,-255.994 506.136,-247.462 495.905,-250.214 499.854,-255.994"/>
</g>
<!-- AS6762 -->
<g id="node8" class="node"><title>AS6762</title>
<g id="a_node8"><a xlink:href="/asn/6762" xlink:title="AS6762 ~ TELECOM ITALIA SPARKLE S.p.A. [IT]">
<ellipse fill="#ffffff" stroke="black" cx="532.666" cy="-488" rx="39.7935" ry="18"/>
<text text-anchor="middle" x="532.666" y="-484.3" font-family="Times,serif" font-size="14.00" fill="#2c94b3">AS6762</text>
</a>
</g>
</g>
<!-- AS174&#45;&gt;AS6762 -->
<g id="edge7" class="edge"><title>AS174&#45;&gt;AS6762</title>
<path fill="none" stroke="black" d="M420.088,-378.031C434.088,-399.192 460.08,-435.603 488.469,-461 491.425,-463.644 494.671,-466.19 498.014,-468.592"/>
<polygon fill="black" stroke="black" points="496.164,-471.566 506.417,-474.237 500.068,-465.755 496.164,-471.566"/>
</g>
<!-- AS6461 -->
<g id="node9" class="node"><title>AS6461</title>
<g id="a_node9"><a xlink:href="/asn/6461" xlink:title="AS6461 ~ ZAYO&#45;6461 [US]">
<ellipse fill="#ffffff" stroke="black" cx="532.666" cy="-742" rx="39.7935" ry="18"/>
<text text-anchor="middle" x="532.666" y="-738.3" font-family="Times,serif" font-size="14.00" fill="#2c94b3">AS6461</text>
</a>
</g>
</g>
<!-- AS174&#45;&gt;AS6461 -->
<g id="edge8" class="edge"><title>AS174&#45;&gt;AS6461</title>
<path fill="none" stroke="black" d="M416.228,-378.845C425.515,-403.203 442.01,-448.368 452.469,-488 474.29,-570.679 456.167,-597.826 488.469,-677 494.221,-691.096 503.244,-705.34 511.56,-716.886"/>
<polygon fill="black" stroke="black" points="508.933,-719.217 517.716,-725.143 514.545,-715.034 508.933,-719.217"/>
</g>
<!-- AS3257 -->
<g id="node10" class="node"><title>AS3257</title>
<g id="a_node10"><a xlink:href="/asn/3257" xlink:title="AS3257 ~ GTT [DE]">
<ellipse fill="#ffffff" stroke="black" cx="532.666" cy="-288" rx="39.7935" ry="18"/>
<text text-anchor="middle" x="532.666" y="-284.3" font-family="Times,serif" font-size="14.00" fill="#2c94b3">AS3257</text>
</a>
</g>
</g>
<!-- AS174&#45;&gt;AS3257 -->
<g id="edge9" class="edge"><title>AS174&#45;&gt;AS3257</title>
<path fill="none" stroke="black" d="M432.008,-347.44C450.88,-336.184 477.96,-320.032 499.13,-307.406"/>
<polygon fill="black" stroke="black" points="501.004,-310.363 507.799,-302.235 497.418,-304.351 501.004,-310.363"/>
</g>
<!-- AS12956 -->
<g id="node11" class="node"><title>AS12956</title>
<g id="a_node11"><a xlink:href="/asn/12956" xlink:title="AS12956 ~ TELXIUS [ES]">
<ellipse fill="#ffffff" stroke="black" cx="532.666" cy="-180" rx="44.393" ry="18"/>
<text text-anchor="middle" x="532.666" y="-176.3" font-family="Times,serif" font-size="14.00" fill="#2c94b3">AS12956</text>
</a>
</g>
</g>
<!-- AS174&#45;&gt;AS12956 -->
<g id="edge10" class="edge"><title>AS174&#45;&gt;AS12956</title>
<path fill="none" stroke="black" d="M427.191,-345.406C435.822,-337.103 445.735,-326.29 452.469,-315 478.39,-271.547 457.171,-246.754 488.469,-207 490.494,-204.429 492.835,-202.037 495.36,-199.826"/>
<polygon fill="black" stroke="black" points="497.516,-202.584 503.349,-193.739 493.274,-197.016 497.516,-202.584"/>
</g>
<!-- AS6453 -->
<g id="node12" class="node"><title>AS6453</title>
<g id="a_node12"><a xlink:href="/asn/6453" xlink:title="AS6453 ~ TATA COMMUNICATIONS (AMERICA) INC [US]">
<ellipse fill="#ffffff" stroke="black" cx="532.666" cy="-434" rx="39.7935" ry="18"/>
<text text-anchor="middle" x="532.666" y="-430.3" font-family="Times,serif" font-size="14.00" fill="#2c94b3">AS6453</text>
</a>
</g>
</g>
<!-- AS174&#45;&gt;AS6453 -->
<g id="edge11" class="edge"><title>AS174&#45;&gt;AS6453</title>
<path fill="none" stroke="black" d="M432.008,-374.56C450.88,-385.816 477.96,-401.968 499.13,-414.594"/>
<polygon fill="black" stroke="black" points="497.418,-417.649 507.799,-419.765 501.004,-411.637 497.418,-417.649"/>
</g>
<!-- AS3356 -->
<g id="node13" class="node"><title>AS3356</title>
<g id="a_node13"><a xlink:href="/asn/3356" xlink:title="AS3356 ~ Level 3 Parent, LLC [US]">
<ellipse fill="#ffffff" stroke="black" cx="652.508" cy="-334" rx="39.7935" ry="18"/>
<text text-anchor="middle" x="652.508" y="-330.3" font-family="Times,serif" font-size="14.00" fill="#2c94b3">AS3356</text>
</a>
</g>
</g>
<!-- AS174&#45;&gt;AS3356 -->
<g id="edge12" class="edge"><title>AS174&#45;&gt;AS3356</title>
<path fill="none" stroke="black" stroke-width="2" d="M442.701,-357.274C484.417,-352.624 556.046,-344.64 603.591,-339.341"/>
<polygon fill="black" stroke="black" stroke-width="2" points="604.096,-342.806 613.647,-338.22 603.321,-335.849 604.096,-342.806"/>
</g>
<!-- AS1239 -->
<g id="node14" class="node"><title>AS1239</title>
<g id="a_node14"><a xlink:href="/asn/1239" xlink:title="AS1239 ~ Sprint [US]">
<ellipse fill="#ffffff" stroke="black" cx="532.666" cy="-380" rx="39.7935" ry="18"/>
<text text-anchor="middle" x="532.666" y="-376.3" font-family="Times,serif" font-size="14.00" fill="#2c94b3">AS1239</text>
</a>
</g>
</g>
<!-- AS174&#45;&gt;AS1239 -->
<g id="edge13" class="edge"><title>AS174&#45;&gt;AS1239</title>
<path fill="none" stroke="black" d="M442.072,-366.092C455.177,-368.126 470.515,-370.507 484.759,-372.718"/>
<polygon fill="black" stroke="black" points="484.471,-376.215 494.889,-374.291 485.545,-369.298 484.471,-376.215"/>
</g>
<!-- AS209 -->
<g id="node15" class="node"><title>AS209</title>
<g id="a_node15"><a xlink:href="/asn/209" xlink:title="AS209 ~ CenturyLink Communications, LLC [US]">
<ellipse fill="#ffffff" stroke="black" cx="532.666" cy="-126" rx="35.194" ry="18"/>
<text text-anchor="middle" x="532.666" y="-122.3" font-family="Times,serif" font-size="14.00" fill="#2c94b3">AS209</text>
</a>
</g>
</g>
<!-- AS174&#45;&gt;AS209 -->
<g id="edge14" class="edge"><title>AS174&#45;&gt;AS209</title>
<path fill="none" stroke="black" d="M427.691,-345.687C436.45,-337.456 446.325,-326.622 452.469,-315 486.941,-249.795 445.89,-213.225 488.469,-153 490.939,-149.507 494.018,-146.37 497.387,-143.579"/>
<polygon fill="black" stroke="black" points="499.526,-146.352 505.627,-137.69 495.456,-140.657 499.526,-146.352"/>
</g>
<!-- AS701 -->
<g id="node16" class="node"><title>AS701</title>
<g id="a_node16"><a xlink:href="/asn/701" xlink:title="AS701 ~ UUNET [US]">
<ellipse fill="#ffffff" stroke="black" cx="532.666" cy="-72" rx="35.194" ry="18"/>
<text text-anchor="middle" x="532.666" y="-68.3" font-family="Times,serif" font-size="14.00" fill="#2c94b3">AS701</text>
</a>
</g>
</g>
<!-- AS174&#45;&gt;AS701 -->
<g id="edge15" class="edge"><title>AS174&#45;&gt;AS701</title>
<path fill="none" stroke="black" d="M427.956,-345.822C436.783,-337.626 446.638,-326.782 452.469,-315 495.638,-227.773 434.431,-179.944 488.469,-99 490.845,-95.4419 493.865,-92.2644 497.201,-89.4507"/>
<polygon fill="black" stroke="black" points="499.339,-92.2241 505.405,-83.5378 495.246,-86.5453 499.339,-92.2241"/>
</g>
<!-- AS24953 -->
<g id="node17" class="node"><title>AS24953</title>
<g id="a_node17"><a xlink:href="/asn/24953" xlink:title="AS24953 ~ AS MACRO: AS&#45;24953 (customers) [AT]">
<ellipse fill="#ffffff" stroke="black" cx="408.273" cy="-288" rx="44.393" ry="18"/>
<text text-anchor="middle" x="408.273" y="-284.3" font-family="Times,serif" font-size="14.00" fill="#2c94b3">AS24953</text>
</a>
</g>
</g>
<!-- AS8245&#45;&gt;AS24953 -->
<g id="edge16" class="edge"><title>AS8245&#45;&gt;AS24953</title>
<path fill="none" stroke="black" stroke-width="3" d="M315.877,-332.984C331.794,-325.149 352.31,-315.052 369.869,-306.41"/>
<polygon fill="black" stroke="black" stroke-width="3" points="371.846,-309.338 379.273,-301.781 368.755,-303.057 371.846,-309.338"/>
</g>
<!-- AS8218 -->
<g id="node18" class="node"><title>AS8218</title>
<g id="a_node18"><a xlink:href="/asn/8218" xlink:title="AS8218 ~ legacy Neotelecoms [FR]">
<ellipse fill="#ffffff" stroke="black" cx="408.273" cy="-669" rx="39.7935" ry="18"/>
<text text-anchor="middle" x="408.273" y="-665.3" font-family="Times,serif" font-size="14.00" fill="#2c94b3">AS8218</text>
</a>
</g>
</g>
<!-- AS8245&#45;&gt;AS8218 -->
<g id="edge17" class="edge"><title>AS8245&#45;&gt;AS8218</title>
<path fill="none" stroke="black" d="M295.934,-363.826C315.491,-417.43 373.859,-577.412 397.333,-641.755"/>
<polygon fill="black" stroke="black" points="394.074,-643.034 400.79,-651.229 400.65,-640.635 394.074,-643.034"/>
</g>
<!-- AS1299&#45;&gt;AS2914 -->
<g id="edge20" class="edge"><title>AS1299&#45;&gt;AS2914</title>
<path fill="none" stroke="black" d="M444.346,-522.737C457.533,-525.646 472.713,-528.995 486.679,-532.076"/>
<polygon fill="black" stroke="black" points="486.068,-535.525 496.588,-534.262 487.577,-528.69 486.068,-535.525"/>
</g>
<!-- AS1299&#45;&gt;AS6762 -->
<g id="edge25" class="edge"><title>AS1299&#45;&gt;AS6762</title>
<path fill="none" stroke="black" d="M444.346,-507.263C457.533,-504.354 472.713,-501.005 486.679,-497.924"/>
<polygon fill="black" stroke="black" points="487.577,-501.31 496.588,-495.738 486.068,-494.475 487.577,-501.31"/>
</g>
<!-- AS1299&#45;&gt;AS6461 -->
<g id="edge26" class="edge"><title>AS1299&#45;&gt;AS6461</title>
<path fill="none" stroke="black" d="M415.129,-532.845C429.262,-575.248 465.745,-680.689 488.469,-710 491.675,-714.135 495.549,-717.994 499.643,-721.499"/>
<polygon fill="black" stroke="black" points="497.641,-724.376 507.673,-727.783 501.955,-718.863 497.641,-724.376"/>
</g>
<!-- AS1299&#45;&gt;AS3257 -->
<g id="edge24" class="edge"><title>AS1299&#45;&gt;AS3257</title>
<path fill="none" stroke="black" d="M417.086,-497.106C430.514,-466.817 459.35,-403.786 488.469,-353 496.15,-339.606 505.551,-325.257 513.62,-313.457"/>
<polygon fill="black" stroke="black" points="516.668,-315.203 519.48,-304.988 510.912,-311.22 516.668,-315.203"/>
</g>
<!-- AS1299&#45;&gt;AS6453 -->
<g id="edge27" class="edge"><title>AS1299&#45;&gt;AS6453</title>
<path fill="none" stroke="black" d="M430.63,-500.099C446.481,-489.123 468.684,-473.921 488.469,-461 492.051,-458.661 495.822,-456.241 499.582,-453.856"/>
<polygon fill="black" stroke="black" points="501.644,-456.693 508.243,-448.404 497.916,-450.769 501.644,-456.693"/>
</g>
<!-- AS1299&#45;&gt;AS3356 -->
<g id="edge22" class="edge"><title>AS1299&#45;&gt;AS3356</title>
<path fill="none" stroke="black" stroke-width="2" d="M411.846,-532.974C417.937,-567.995 436.817,-644.757 488.469,-677 521.795,-697.803 546.271,-701.649 576.862,-677 626.049,-637.366 644.523,-437 649.772,-362.208"/>
<polygon fill="black" stroke="black" stroke-width="2" points="653.272,-362.331 650.453,-352.118 646.287,-361.86 653.272,-362.331"/>
</g>
<!-- AS1299&#45;&gt;AS1239 -->
<g id="edge28" class="edge"><title>AS1299&#45;&gt;AS1239</title>
<path fill="none" stroke="black" d="M419.319,-497.329C432.89,-474.528 458.822,-434.528 488.469,-407 491.376,-404.301 494.589,-401.72 497.913,-399.297"/>
<polygon fill="black" stroke="black" points="499.972,-402.13 506.291,-393.625 496.048,-396.333 499.972,-402.13"/>
</g>
<!-- AS2497 -->
<g id="node20" class="node"><title>AS2497</title>
<g id="a_node20"><a xlink:href="/asn/2497" xlink:title="AS2497 ~ Internet Initiative Japan Inc. [JP]">
<ellipse fill="#ffffff" stroke="black" cx="532.666" cy="-650" rx="39.7935" ry="18"/>
<text text-anchor="middle" x="532.666" y="-646.3" font-family="Times,serif" font-size="14.00" fill="#2c94b3">AS2497</text>
</a>
</g>
</g>
<!-- AS1299&#45;&gt;AS2497 -->
<g id="edge21" class="edge"><title>AS1299&#45;&gt;AS2497</title>
<path fill="none" stroke="black" d="M419.319,-532.671C432.89,-555.472 458.822,-595.472 488.469,-623 491.376,-625.699 494.589,-628.28 497.913,-630.703"/>
<polygon fill="black" stroke="black" points="496.048,-633.667 506.291,-636.375 499.972,-627.87 496.048,-633.667"/>
</g>
<!-- AS7018 -->
<g id="node21" class="node"><title>AS7018</title>
<g id="a_node21"><a xlink:href="/asn/7018" xlink:title="AS7018 ~ AT&amp;T Services, Inc. [US]">
<ellipse fill="#ffffff" stroke="black" cx="532.666" cy="-596" rx="39.7935" ry="18"/>
<text text-anchor="middle" x="532.666" y="-592.3" font-family="Times,serif" font-size="14.00" fill="#2c94b3">AS7018</text>
</a>
</g>
</g>
<!-- AS1299&#45;&gt;AS7018 -->
<g id="edge23" class="edge"><title>AS1299&#45;&gt;AS7018</title>
<path fill="none" stroke="black" d="M430.63,-529.901C446.481,-540.877 468.684,-556.079 488.469,-569 492.051,-571.339 495.822,-573.759 499.582,-576.144"/>
<polygon fill="black" stroke="black" points="497.916,-579.231 508.243,-581.596 501.644,-573.307 497.916,-579.231"/>
</g>
<!-- AS3549 -->
<g id="node22" class="node"><title>AS3549</title>
<g id="a_node22"><a xlink:href="/asn/3549" xlink:title="AS3549 ~ Level 3 Parent, LLC [US]">
<ellipse fill="#ffffff" stroke="black" cx="767.801" cy="-334" rx="39.7935" ry="18"/>
<text text-anchor="middle" x="767.801" y="-330.3" font-family="Times,serif" font-size="14.00" fill="#2c94b3">AS3549</text>
</a>
</g>
</g>
<!-- AS3356&#45;&gt;AS3549 -->
<g id="edge30" class="edge"><title>AS3356&#45;&gt;AS3549</title>
<path fill="none" stroke="black" stroke-width="3" d="M692.18,-334C700.383,-334 709.147,-334 717.679,-334"/>
<polygon fill="black" stroke="black" stroke-width="3" points="717.919,-337.5 727.919,-334 717.919,-330.5 717.919,-337.5"/>
</g>
<!-- AS24953&#45;&gt;AS3257 -->
<g id="edge18" class="edge"><title>AS24953&#45;&gt;AS3257</title>
<path fill="none" stroke="black" d="M452.769,-288C462.458,-288 472.795,-288 482.687,-288"/>
<polygon fill="black" stroke="black" points="482.79,-291.5 492.79,-288 482.79,-284.5 482.79,-291.5"/>
</g>
<!-- AS21385 -->
<g id="node19" class="node"><title>AS21385</title>
<g id="a_node19"><a xlink:href="/asn/21385" xlink:title="AS21385 ~ Trusted Network GmbH [DE]">
<ellipse fill="#ffffff" stroke="black" cx="532.666" cy="-18" rx="44.393" ry="18"/>
<text text-anchor="middle" x="532.666" y="-14.3" font-family="Times,serif" font-size="14.00" fill="#2c94b3">AS21385</text>
</a>
</g>
</g>
<!-- AS24953&#45;&gt;AS21385 -->
<g id="edge19" class="edge"><title>AS24953&#45;&gt;AS21385</title>
<path fill="none" stroke="black" stroke-width="2" d="M410.953,-269.871C415.783,-226.632 433.124,-115.784 488.469,-45 490.485,-42.4222 492.82,-40.0256 495.341,-37.8116"/>
<polygon fill="black" stroke="black" stroke-width="2" points="497.498,-40.5684 503.323,-31.7188 493.25,-35.004 497.498,-40.5684"/>
</g>
<!-- AS8218&#45;&gt;AS6461 -->
<g id="edge31" class="edge"><title>AS8218&#45;&gt;AS6461</title>
<path fill="none" stroke="black" d="M433.162,-683.248C451.948,-694.453 478.319,-710.182 499.048,-722.545"/>
<polygon fill="black" stroke="black" points="497.456,-725.671 507.837,-727.788 501.041,-719.659 497.456,-725.671"/>
</g>
<!-- AS21385&#45;&gt;AS3356 -->
<g id="edge29" class="edge"><title>AS21385&#45;&gt;AS3356</title>
<path fill="none" stroke="black" stroke-width="2" d="M562.254,-31.5323C567.752,-35.2385 572.993,-39.7215 576.862,-45 636.308,-126.112 648.523,-250.323 650.953,-305.679"/>
<polygon fill="black" stroke="black" stroke-width="2" points="647.46,-305.932 651.32,-315.799 654.455,-305.679 647.46,-305.932"/>
</g>
</g>
</svg>
