<?xml version="1.0" encoding="UTF-8" standalone="no"?>
<!DOCTYPE svg PUBLIC "-//W3C//DTD SVG 1.1//EN"
 "http://www.w3.org/Graphics/SVG/1.1/DTD/svg11.dtd">
<!-- Generated by graphviz version 2.38.0 (20140413.2041)
 -->
<!-- Title: AS59789 IPv6 Upstream Graph Pages: 1 -->
<svg width="682pt" height="692pt"
 viewBox="0.00 0.00 681.96 692.00" xmlns="http://www.w3.org/2000/svg" xmlns:xlink="http://www.w3.org/1999/xlink">
<g id="graph0" class="graph" transform="scale(1 1) rotate(0) translate(4 688)">
<title>AS59789 IPv6 Upstream Graph</title>
<polygon fill="white" stroke="none" points="-4,4 -4,-688 677.956,-688 677.956,4 -4,4"/>
<!-- AS59789 -->
<g id="node1" class="node"><title>AS59789</title>
<g id="a_node1"><a xlink:href="/asn/59789" xlink:title="AS59789 ~ atcismogmbh [AT]">
<ellipse fill="#ffffff" stroke="black" cx="44.1961" cy="-180" rx="44.393" ry="18"/>
<text text-anchor="middle" x="44.1961" y="-176.3" font-family="Times,serif" font-size="14.00" fill="#880000">AS59789</text>
</a>
</g>
</g>
<!-- AS8437 -->
<g id="node2" class="node"><title>AS8437</title>
<g id="a_node2"><a xlink:href="/asn/8437" xlink:title="AS8437 ~ Hutchison Drei Austria GmbH [AT]">
<ellipse fill="#ffffff" stroke="black" cx="164.039" cy="-180" rx="39.7935" ry="18"/>
<text text-anchor="middle" x="164.039" y="-176.3" font-family="Times,serif" font-size="14.00" fill="#2c94b3">AS8437</text>
</a>
</g>
</g>
<!-- AS59789&#45;&gt;AS8437 -->
<g id="edge1" class="edge"><title>AS59789&#45;&gt;AS8437</title>
<path fill="none" stroke="black" stroke-width="4.5" d="M88.4072,-180C96.7198,-180 105.482,-180 113.965,-180"/>
<polygon fill="black" stroke="black" stroke-width="4.5" points="114.123,-183.938 124.123,-180 114.123,-176.063 114.123,-183.938"/>
</g>
<!-- AS25255 -->
<g id="node3" class="node"><title>AS25255</title>
<g id="a_node3"><a xlink:href="/asn/25255" xlink:title="AS25255 ~ ==&gt; TELE2 AUSTRIA &lt;== [AT]">
<ellipse fill="#ffffff" stroke="black" cx="283.881" cy="-180" rx="44.393" ry="18"/>
<text text-anchor="middle" x="283.881" y="-176.3" font-family="Times,serif" font-size="14.00" fill="#2c94b3">AS25255</text>
</a>
</g>
</g>
<!-- AS8437&#45;&gt;AS25255 -->
<g id="edge2" class="edge"><title>AS8437&#45;&gt;AS25255</title>
<path fill="none" stroke="black" stroke-width="4.5" d="M203.951,-180C212.054,-180 220.729,-180 229.255,-180"/>
<polygon fill="black" stroke="black" stroke-width="4.5" points="229.533,-183.938 239.533,-180 229.533,-176.063 229.533,-183.938"/>
</g>
<!-- AS3320 -->
<g id="node4" class="node"><title>AS3320</title>
<g id="a_node4"><a xlink:href="/asn/3320" xlink:title="AS3320 ~ DTAG [DE]">
<ellipse fill="#ffffff" stroke="black" cx="403.724" cy="-504" rx="39.7935" ry="18"/>
<text text-anchor="middle" x="403.724" y="-500.3" font-family="Times,serif" font-size="14.00" fill="#2c94b3">AS3320</text>
</a>
</g>
</g>
<!-- AS25255&#45;&gt;AS3320 -->
<g id="edge3" class="edge"><title>AS25255&#45;&gt;AS3320</title>
<path fill="none" stroke="black" stroke-width="4.5" d="M291.385,-197.881C310.942,-251.651 369.309,-412.129 392.784,-476.67"/>
<polygon fill="black" stroke="black" stroke-width="4.5" points="389.122,-478.122 396.24,-486.174 396.523,-475.431 389.122,-478.122"/>
</g>
<!-- AS1764 -->
<g id="node5" class="node"><title>AS1764</title>
<g id="a_node5"><a xlink:href="/asn/1764" xlink:title="AS1764 ~ NEXTLAYER&#45;AS [AT]">
<ellipse fill="#ffffff" stroke="black" cx="403.724" cy="-207" rx="39.7935" ry="18"/>
<text text-anchor="middle" x="403.724" y="-203.3" font-family="Times,serif" font-size="14.00" fill="#2c94b3">AS1764</text>
</a>
</g>
</g>
<!-- AS25255&#45;&gt;AS1764 -->
<g id="edge4" class="edge"><title>AS25255&#45;&gt;AS1764</title>
<path fill="none" stroke="black" stroke-width="4.5" d="M322.816,-188.692C334.057,-191.267 346.469,-194.111 358.092,-196.774"/>
<polygon fill="black" stroke="black" stroke-width="4.5" points="357.427,-200.661 368.054,-199.057 359.186,-192.985 357.427,-200.661"/>
</g>
<!-- AS8447 -->
<g id="node6" class="node"><title>AS8447</title>
<g id="a_node6"><a xlink:href="/asn/8447" xlink:title="AS8447 ~ A1 Telekom Austria AG [AT]">
<ellipse fill="#ffffff" stroke="black" cx="403.724" cy="-153" rx="39.7935" ry="18"/>
<text text-anchor="middle" x="403.724" y="-149.3" font-family="Times,serif" font-size="14.00" fill="#2c94b3">AS8447</text>
</a>
</g>
</g>
<!-- AS25255&#45;&gt;AS8447 -->
<g id="edge5" class="edge"><title>AS25255&#45;&gt;AS8447</title>
<path fill="none" stroke="black" stroke-width="0.642857" d="M322.816,-171.308C334.057,-168.733 346.469,-165.889 358.092,-163.226"/>
<polygon fill="black" stroke="black" stroke-width="0.642857" points="359.088,-166.588 368.054,-160.943 357.525,-159.765 359.088,-166.588"/>
</g>
<!-- AS6762 -->
<g id="node7" class="node"><title>AS6762</title>
<g id="a_node7"><a xlink:href="/asn/6762" xlink:title="AS6762 ~ TELECOM ITALIA SPARKLE S.p.A. [IT]">
<ellipse fill="#ffffff" stroke="black" cx="403.724" cy="-99" rx="39.7935" ry="18"/>
<text text-anchor="middle" x="403.724" y="-95.3" font-family="Times,serif" font-size="14.00" fill="#2c94b3">AS6762</text>
</a>
</g>
</g>
<!-- AS25255&#45;&gt;AS6762 -->
<g id="edge6" class="edge"><title>AS25255&#45;&gt;AS6762</title>
<path fill="none" stroke="black" stroke-width="0.642857" d="M307.324,-164.574C325.905,-151.802 352.466,-133.545 372.846,-119.537"/>
<polygon fill="black" stroke="black" stroke-width="0.642857" points="374.902,-122.371 381.16,-113.822 370.936,-116.602 374.902,-122.371"/>
</g>
<!-- AS701 -->
<g id="node8" class="node"><title>AS701</title>
<g id="a_node8"><a xlink:href="/asn/701" xlink:title="AS701 ~ UUNET [US]">
<ellipse fill="#ffffff" stroke="black" cx="519.017" cy="-666" rx="35.194" ry="18"/>
<text text-anchor="middle" x="519.017" y="-662.3" font-family="Times,serif" font-size="14.00" fill="#2c94b3">AS701</text>
</a>
</g>
</g>
<!-- AS3320&#45;&gt;AS701 -->
<g id="edge7" class="edge"><title>AS3320&#45;&gt;AS701</title>
<path fill="none" stroke="black" d="M411.472,-521.787C422.523,-549.243 446.576,-602.578 479.37,-639 481.686,-641.572 484.291,-644.03 487.026,-646.343"/>
<polygon fill="black" stroke="black" points="484.892,-649.117 494.949,-652.448 489.164,-643.572 484.892,-649.117"/>
</g>
<!-- AS6453 -->
<g id="node9" class="node"><title>AS6453</title>
<g id="a_node9"><a xlink:href="/asn/6453" xlink:title="AS6453 ~ TATA COMMUNICATIONS (AMERICA) INC [US]">
<ellipse fill="#ffffff" stroke="black" cx="519.017" cy="-612" rx="39.7935" ry="18"/>
<text text-anchor="middle" x="519.017" y="-608.3" font-family="Times,serif" font-size="14.00" fill="#2c94b3">AS6453</text>
</a>
</g>
</g>
<!-- AS3320&#45;&gt;AS6453 -->
<g id="edge8" class="edge"><title>AS3320&#45;&gt;AS6453</title>
<path fill="none" stroke="black" d="M418.354,-520.817C432.636,-537.929 456.183,-564.745 479.37,-585 481.836,-587.154 484.475,-589.294 487.172,-591.372"/>
<polygon fill="black" stroke="black" points="485.197,-594.264 495.326,-597.37 489.345,-588.625 485.197,-594.264"/>
</g>
<!-- AS7018 -->
<g id="node10" class="node"><title>AS7018</title>
<g id="a_node10"><a xlink:href="/asn/7018" xlink:title="AS7018 ~ AT&amp;T Services, Inc. [US]">
<ellipse fill="#ffffff" stroke="black" cx="519.017" cy="-558" rx="39.7935" ry="18"/>
<text text-anchor="middle" x="519.017" y="-554.3" font-family="Times,serif" font-size="14.00" fill="#2c94b3">AS7018</text>
</a>
</g>
</g>
<!-- AS3320&#45;&gt;AS7018 -->
<g id="edge9" class="edge"><title>AS3320&#45;&gt;AS7018</title>
<path fill="none" stroke="black" d="M431.86,-516.934C446.854,-524.081 465.675,-533.052 481.898,-540.785"/>
<polygon fill="black" stroke="black" points="480.569,-544.028 491.102,-545.171 483.581,-537.709 480.569,-544.028"/>
</g>
<!-- AS2497 -->
<g id="node11" class="node"><title>AS2497</title>
<g id="a_node11"><a xlink:href="/asn/2497" xlink:title="AS2497 ~ Internet Initiative Japan Inc. [JP]">
<ellipse fill="#ffffff" stroke="black" cx="519.017" cy="-504" rx="39.7935" ry="18"/>
<text text-anchor="middle" x="519.017" y="-500.3" font-family="Times,serif" font-size="14.00" fill="#2c94b3">AS2497</text>
</a>
</g>
</g>
<!-- AS3320&#45;&gt;AS2497 -->
<g id="edge10" class="edge"><title>AS3320&#45;&gt;AS2497</title>
<path fill="none" stroke="black" d="M443.396,-504C451.599,-504 460.363,-504 468.895,-504"/>
<polygon fill="black" stroke="black" points="469.134,-507.5 479.134,-504 469.134,-500.5 469.134,-507.5"/>
</g>
<!-- AS3491 -->
<g id="node12" class="node"><title>AS3491</title>
<g id="a_node12"><a xlink:href="/asn/3491" xlink:title="AS3491 ~ PCCW Global, Inc. [US]">
<ellipse fill="#ffffff" stroke="black" cx="519.017" cy="-450" rx="39.7935" ry="18"/>
<text text-anchor="middle" x="519.017" y="-446.3" font-family="Times,serif" font-size="14.00" fill="#2c94b3">AS3491</text>
</a>
</g>
</g>
<!-- AS3320&#45;&gt;AS3491 -->
<g id="edge11" class="edge"><title>AS3320&#45;&gt;AS3491</title>
<path fill="none" stroke="black" d="M431.86,-491.066C446.854,-483.919 465.675,-474.948 481.898,-467.215"/>
<polygon fill="black" stroke="black" points="483.581,-470.291 491.102,-462.829 480.569,-463.972 483.581,-470.291"/>
</g>
<!-- AS1273 -->
<g id="node13" class="node"><title>AS1273</title>
<g id="a_node13"><a xlink:href="/asn/1273" xlink:title="AS1273 ~ Vodafone Group PLC [EU]">
<ellipse fill="#ffffff" stroke="black" cx="519.017" cy="-396" rx="39.7935" ry="18"/>
<text text-anchor="middle" x="519.017" y="-392.3" font-family="Times,serif" font-size="14.00" fill="#2c94b3">AS1273</text>
</a>
</g>
</g>
<!-- AS3320&#45;&gt;AS1273 -->
<g id="edge12" class="edge"><title>AS3320&#45;&gt;AS1273</title>
<path fill="none" stroke="black" d="M418.354,-487.183C432.636,-470.071 456.183,-443.255 479.37,-423 481.836,-420.846 484.475,-418.706 487.172,-416.628"/>
<polygon fill="black" stroke="black" points="489.345,-419.375 495.326,-410.63 485.197,-413.736 489.345,-419.375"/>
</g>
<!-- AS1299 -->
<g id="node14" class="node"><title>AS1299</title>
<g id="a_node14"><a xlink:href="/asn/1299" xlink:title="AS1299 ~ Telia Carrier [EU]">
<ellipse fill="#ffffff" stroke="black" cx="519.017" cy="-342" rx="39.7935" ry="18"/>
<text text-anchor="middle" x="519.017" y="-338.3" font-family="Times,serif" font-size="14.00" fill="#2c94b3">AS1299</text>
</a>
</g>
</g>
<!-- AS1764&#45;&gt;AS1299 -->
<g id="edge13" class="edge"><title>AS1764&#45;&gt;AS1299</title>
<path fill="none" stroke="black" stroke-width="2" d="M414.184,-224.49C426.965,-247.096 451.398,-286.886 479.37,-315 481.481,-317.121 483.777,-319.188 486.163,-321.171"/>
<polygon fill="black" stroke="black" stroke-width="2" points="484.415,-324.242 494.478,-327.556 488.678,-318.69 484.415,-324.242"/>
</g>
<!-- AS6939 -->
<g id="node15" class="node"><title>AS6939</title>
<g id="a_node15"><a xlink:href="/asn/6939" xlink:title="AS6939 ~ Hurricane Electric LLC [US]">
<ellipse fill="#ffffff" stroke="black" cx="519.017" cy="-288" rx="39.7935" ry="18"/>
<text text-anchor="middle" x="519.017" y="-284.3" font-family="Times,serif" font-size="14.00" fill="#2c94b3">AS6939</text>
</a>
</g>
</g>
<!-- AS1764&#45;&gt;AS6939 -->
<g id="edge14" class="edge"><title>AS1764&#45;&gt;AS6939</title>
<path fill="none" stroke="black" d="M425.572,-222.222C440.506,-233.091 461.12,-248.025 479.37,-261 482.191,-263.005 485.134,-265.085 488.082,-267.159"/>
<polygon fill="black" stroke="black" points="486.109,-270.05 496.306,-272.926 490.128,-264.319 486.109,-270.05"/>
</g>
<!-- AS8218 -->
<g id="node16" class="node"><title>AS8218</title>
<g id="a_node16"><a xlink:href="/asn/8218" xlink:title="AS8218 ~ legacy Neotelecoms [FR]">
<ellipse fill="#ffffff" stroke="black" cx="519.017" cy="-234" rx="39.7935" ry="18"/>
<text text-anchor="middle" x="519.017" y="-230.3" font-family="Times,serif" font-size="14.00" fill="#2c94b3">AS8218</text>
</a>
</g>
</g>
<!-- AS1764&#45;&gt;AS8218 -->
<g id="edge15" class="edge"><title>AS1764&#45;&gt;AS8218</title>
<path fill="none" stroke="black" d="M439.331,-215.248C450.202,-217.838 462.357,-220.735 473.799,-223.462"/>
<polygon fill="black" stroke="black" points="473.082,-226.889 483.621,-225.803 474.705,-220.08 473.082,-226.889"/>
</g>
<!-- AS2914 -->
<g id="node17" class="node"><title>AS2914</title>
<g id="a_node17"><a xlink:href="/asn/2914" xlink:title="AS2914 ~ NTT America, Inc. [US]">
<ellipse fill="#ffffff" stroke="black" cx="519.017" cy="-180" rx="39.7935" ry="18"/>
<text text-anchor="middle" x="519.017" y="-176.3" font-family="Times,serif" font-size="14.00" fill="#2c94b3">AS2914</text>
</a>
</g>
</g>
<!-- AS1764&#45;&gt;AS2914 -->
<g id="edge16" class="edge"><title>AS1764&#45;&gt;AS2914</title>
<path fill="none" stroke="black" d="M439.331,-198.752C450.202,-196.162 462.357,-193.265 473.799,-190.538"/>
<polygon fill="black" stroke="black" points="474.705,-193.92 483.621,-188.197 473.082,-187.111 474.705,-193.92"/>
</g>
<!-- AS174 -->
<g id="node18" class="node"><title>AS174</title>
<g id="a_node18"><a xlink:href="/asn/174" xlink:title="AS174 ~ Cogent Communications [US]">
<ellipse fill="#ffffff" stroke="black" cx="519.017" cy="-126" rx="35.194" ry="18"/>
<text text-anchor="middle" x="519.017" y="-122.3" font-family="Times,serif" font-size="14.00" fill="#2c94b3">AS174</text>
</a>
</g>
</g>
<!-- AS1764&#45;&gt;AS174 -->
<g id="edge17" class="edge"><title>AS1764&#45;&gt;AS174</title>
<path fill="none" stroke="black" d="M426.481,-191.991C432.015,-188.121 437.934,-183.936 443.37,-180 459.57,-168.271 463.17,-164.729 479.37,-153 482.399,-150.807 485.578,-148.537 488.756,-146.287"/>
<polygon fill="black" stroke="black" points="490.899,-149.059 497.067,-140.445 486.873,-143.333 490.899,-149.059"/>
</g>
<!-- AS3257 -->
<g id="node19" class="node"><title>AS3257</title>
<g id="a_node19"><a xlink:href="/asn/3257" xlink:title="AS3257 ~ GTT [DE]">
<ellipse fill="#ffffff" stroke="black" cx="519.017" cy="-72" rx="39.7935" ry="18"/>
<text text-anchor="middle" x="519.017" y="-68.3" font-family="Times,serif" font-size="14.00" fill="#2c94b3">AS3257</text>
</a>
</g>
</g>
<!-- AS1764&#45;&gt;AS3257 -->
<g id="edge18" class="edge"><title>AS1764&#45;&gt;AS3257</title>
<path fill="none" stroke="black" d="M429.305,-192.844C434.399,-189.128 439.413,-184.799 443.37,-180 468.435,-149.606 454.306,-129.394 479.37,-99 481.225,-96.7505 483.313,-94.6041 485.531,-92.5759"/>
<polygon fill="black" stroke="black" points="487.88,-95.1775 493.436,-86.1563 483.467,-89.7437 487.88,-95.1775"/>
</g>
<!-- AS3356 -->
<g id="node20" class="node"><title>AS3356</title>
<g id="a_node20"><a xlink:href="/asn/3356" xlink:title="AS3356 ~ Level 3 Parent, LLC [US]">
<ellipse fill="#ffffff" stroke="black" cx="519.017" cy="-18" rx="39.7935" ry="18"/>
<text text-anchor="middle" x="519.017" y="-14.3" font-family="Times,serif" font-size="14.00" fill="#2c94b3">AS3356</text>
</a>
</g>
</g>
<!-- AS8447&#45;&gt;AS3356 -->
<g id="edge19" class="edge"><title>AS8447&#45;&gt;AS3356</title>
<path fill="none" stroke="black" d="M429.305,-138.844C434.399,-135.128 439.413,-130.799 443.37,-126 468.435,-95.6065 454.306,-75.3935 479.37,-45 481.225,-42.7505 483.313,-40.6041 485.531,-38.5759"/>
<polygon fill="black" stroke="black" points="487.88,-41.1775 493.436,-32.1563 483.467,-35.7437 487.88,-41.1775"/>
</g>
<!-- AS209 -->
<g id="node21" class="node"><title>AS209</title>
<g id="a_node21"><a xlink:href="/asn/209" xlink:title="AS209 ~ CenturyLink Communications, LLC [US]">
<ellipse fill="#ffffff" stroke="black" cx="634.31" cy="-315" rx="35.194" ry="18"/>
<text text-anchor="middle" x="634.31" y="-311.3" font-family="Times,serif" font-size="14.00" fill="#2c94b3">AS209</text>
</a>
</g>
</g>
<!-- AS1299&#45;&gt;AS209 -->
<g id="edge22" class="edge"><title>AS1299&#45;&gt;AS209</title>
<path fill="none" stroke="black" d="M554.624,-333.752C566.418,-330.942 579.723,-327.771 591.991,-324.847"/>
<polygon fill="black" stroke="black" points="593.08,-328.186 601.996,-322.463 591.457,-321.376 593.08,-328.186"/>
</g>
<!-- AS6939&#45;&gt;AS209 -->
<g id="edge20" class="edge"><title>AS6939&#45;&gt;AS209</title>
<path fill="none" stroke="black" d="M554.624,-296.248C566.418,-299.058 579.723,-302.229 591.991,-305.153"/>
<polygon fill="black" stroke="black" points="591.457,-308.624 601.996,-307.537 593.08,-301.814 591.457,-308.624"/>
</g>
<!-- AS6461 -->
<g id="node22" class="node"><title>AS6461</title>
<g id="a_node22"><a xlink:href="/asn/6461" xlink:title="AS6461 ~ Zayo Bandwidth [US]">
<ellipse fill="#ffffff" stroke="black" cx="634.31" cy="-234" rx="39.7935" ry="18"/>
<text text-anchor="middle" x="634.31" y="-230.3" font-family="Times,serif" font-size="14.00" fill="#2c94b3">AS6461</text>
</a>
</g>
</g>
<!-- AS8218&#45;&gt;AS6461 -->
<g id="edge21" class="edge"><title>AS8218&#45;&gt;AS6461</title>
<path fill="none" stroke="black" d="M558.689,-234C566.892,-234 575.656,-234 584.188,-234"/>
<polygon fill="black" stroke="black" points="584.427,-237.5 594.427,-234 584.427,-230.5 584.427,-237.5"/>
</g>
</g>
</svg>
