<?xml version="1.0" encoding="UTF-8" standalone="no"?>
<!DOCTYPE svg PUBLIC "-//W3C//DTD SVG 1.1//EN"
 "http://www.w3.org/Graphics/SVG/1.1/DTD/svg11.dtd">
<!-- Generated by graphviz version 2.38.0 (20140413.2041)
 -->
<!-- Title: AS1921 Combined Upstream Graph Pages: 1 -->
<svg width="1659pt" height="2610pt"
 viewBox="0.00 0.00 1658.90 2610.30" xmlns="http://www.w3.org/2000/svg" xmlns:xlink="http://www.w3.org/1999/xlink">
<g id="graph0" class="graph" transform="scale(1 1) rotate(0) translate(4 2606.3)">
<title>AS1921 Combined Upstream Graph</title>
<polygon fill="white" stroke="none" points="-4,4 -4,-2606.3 1654.9,-2606.3 1654.9,4 -4,4"/>
<!-- AS1921 -->
<g id="node1" class="node"><title>AS1921</title>
<g id="a_node1"><a xlink:href="/asn/1921" xlink:title="AS1921 ~ NIC.at head office Salzburg [AT]">
<ellipse fill="#ffffff" stroke="black" cx="39.6465" cy="-756" rx="39.7935" ry="18"/>
<text text-anchor="middle" x="39.6465" y="-752.3" font-family="Times,serif" font-size="14.00" fill="#880000">AS1921</text>
</a>
</g>
</g>
<!-- AS5459 -->
<g id="node2" class="node"><title>AS5459</title>
<g id="a_node2"><a xlink:href="/asn/5459" xlink:title="AS5459 ~ London interconnection point [GB]">
<ellipse fill="#ffffff" stroke="black" cx="283.881" cy="-1666" rx="39.7935" ry="18"/>
<text text-anchor="middle" x="283.881" y="-1662.3" font-family="Times,serif" font-size="14.00" fill="#2c94b3">AS5459</text>
</a>
</g>
</g>
<!-- AS1921&#45;&gt;AS5459 -->
<g id="edge1" class="edge"><title>AS1921&#45;&gt;AS5459</title>
<path fill="none" stroke="black" stroke-width="3.52703" d="M42.6414,-774.005C49.5043,-833.848 74.0175,-1031.29 115.293,-1190 160.783,-1364.92 241.787,-1567.03 271.527,-1638.92"/>
<polygon fill="black" stroke="black" stroke-width="3.52703" points="268.306,-1640.29 275.374,-1648.18 274.77,-1637.6 268.306,-1640.29"/>
</g>
<!-- AS13030 -->
<g id="node3" class="node"><title>AS13030</title>
<g id="a_node3"><a xlink:href="/asn/13030" xlink:title="AS13030 ~ Init7 (Switzerland) Ltd. [CH]">
<ellipse fill="#ffffff" stroke="black" cx="647.958" cy="-372" rx="44.393" ry="18"/>
<text text-anchor="middle" x="647.958" y="-368.3" font-family="Times,serif" font-size="14.00" fill="#2c94b3">AS13030</text>
</a>
</g>
</g>
<!-- AS1921&#45;&gt;AS13030 -->
<g id="edge2" class="edge"><title>AS1921&#45;&gt;AS13030</title>
<path fill="none" stroke="black" stroke-width="2.06757" d="M41.8741,-737.699C46.6512,-672.218 66.2233,-450.984 115.293,-404 169.838,-351.774 207.365,-376 282.881,-376 282.881,-376 282.881,-376 409.273,-376 472.523,-376 545.226,-374.566 593.396,-373.416"/>
<polygon fill="black" stroke="black" stroke-width="2.06757" points="593.678,-376.91 603.59,-373.168 593.508,-369.912 593.678,-376.91"/>
</g>
<!-- AS17439 -->
<g id="node4" class="node"><title>AS17439</title>
<g id="a_node4"><a xlink:href="/asn/17439" xlink:title="AS17439 ~ Netmagic Datacenter Mumbai [IN]">
<ellipse fill="#ffffff" stroke="black" cx="283.881" cy="-974" rx="44.393" ry="18"/>
<text text-anchor="middle" x="283.881" y="-970.3" font-family="Times,serif" font-size="14.00" fill="#2c94b3">AS17439</text>
</a>
</g>
</g>
<!-- AS1921&#45;&gt;AS17439 -->
<g id="edge3" class="edge"><title>AS1921&#45;&gt;AS17439</title>
<path fill="none" stroke="black" stroke-width="0.243243" d="M42.282,-774.141C46.6991,-811.77 62.3794,-898.425 115.293,-942 147.03,-968.136 193.617,-975.337 229.622,-976.454"/>
<polygon fill="black" stroke="black" stroke-width="0.243243" points="229.896,-979.959 239.95,-976.619 230.008,-972.959 229.896,-979.959"/>
</g>
<!-- AS20473 -->
<g id="node5" class="node"><title>AS20473</title>
<g id="a_node5"><a xlink:href="/asn/20473" xlink:title="AS20473 ~ Choopa, LLC [US]">
<ellipse fill="#ffffff" stroke="black" cx="772.351" cy="-822" rx="44.393" ry="18"/>
<text text-anchor="middle" x="772.351" y="-818.3" font-family="Times,serif" font-size="14.00" fill="#2c94b3">AS20473</text>
</a>
</g>
</g>
<!-- AS1921&#45;&gt;AS20473 -->
<g id="edge4" class="edge"><title>AS1921&#45;&gt;AS20473</title>
<path fill="none" stroke="black" stroke-width="1.33784" d="M77.9154,-760.995C125.411,-766.919 210.09,-776 282.881,-776 282.881,-776 282.881,-776 529.116,-776 599.252,-776 678.837,-794.843 727.046,-808.409"/>
<polygon fill="black" stroke="black" stroke-width="1.33784" points="726.265,-811.826 736.843,-811.215 728.193,-805.097 726.265,-811.826"/>
</g>
<!-- AS22548 -->
<g id="node6" class="node"><title>AS22548</title>
<g id="a_node6"><a xlink:href="/asn/22548" xlink:title="AS22548 ~ Nucleo de Inf. e Coord. do Ponto BR &#45; NIC.BR [BR]">
<ellipse fill="#ffffff" stroke="black" cx="283.881" cy="-87" rx="44.393" ry="18"/>
<text text-anchor="middle" x="283.881" y="-83.3" font-family="Times,serif" font-size="14.00" fill="#2c94b3">AS22548</text>
</a>
</g>
</g>
<!-- AS1921&#45;&gt;AS22548 -->
<g id="edge5" class="edge"><title>AS1921&#45;&gt;AS22548</title>
<path fill="none" stroke="black" stroke-width="3.40541" d="M40.2741,-737.928C38.7496,-646.12 36.3928,-232.094 115.293,-138 142.979,-104.983 191.351,-92.8907 229.032,-88.675"/>
<polygon fill="black" stroke="black" stroke-width="3.40541" points="229.731,-92.1241 239.351,-87.684 229.062,-85.1561 229.731,-92.1241"/>
</g>
<!-- AS25795 -->
<g id="node7" class="node"><title>AS25795</title>
<g id="a_node7"><a xlink:href="/asn/25795" xlink:title="AS25795 ~ ARP NETWORKS, INC. [US]">
<ellipse fill="#ffffff" stroke="black" cx="159.489" cy="-674" rx="44.393" ry="18"/>
<text text-anchor="middle" x="159.489" y="-670.3" font-family="Times,serif" font-size="14.00" fill="#2c94b3">AS25795</text>
</a>
</g>
</g>
<!-- AS1921&#45;&gt;AS25795 -->
<g id="edge6" class="edge"><title>AS1921&#45;&gt;AS25795</title>
<path fill="none" stroke="black" stroke-width="1.45946" d="M62.2606,-740.96C80.6328,-728.176 107.226,-709.671 127.803,-695.353"/>
<polygon fill="black" stroke="black" stroke-width="1.45946" points="130.002,-698.087 136.211,-689.502 126.004,-692.341 130.002,-698.087"/>
</g>
<!-- AS29222 -->
<g id="node8" class="node"><title>AS29222</title>
<g id="a_node8"><a xlink:href="/asn/29222" xlink:title="AS29222 ~ abuse@infomaniak.ch [CH]">
<ellipse fill="#ffffff" stroke="black" cx="408.273" cy="-1158" rx="44.393" ry="18"/>
<text text-anchor="middle" x="408.273" y="-1154.3" font-family="Times,serif" font-size="14.00" fill="#2c94b3">AS29222</text>
</a>
</g>
</g>
<!-- AS1921&#45;&gt;AS29222 -->
<g id="edge7" class="edge"><title>AS1921&#45;&gt;AS29222</title>
<path fill="none" stroke="black" stroke-width="0.486486" d="M42.4226,-773.974C48.8321,-835.332 72.6722,-1035.25 115.293,-1081 176.945,-1147.17 288.105,-1159.13 354.046,-1159.89"/>
<polygon fill="black" stroke="black" stroke-width="0.486486" points="354.215,-1163.39 364.226,-1159.92 354.237,-1156.39 354.215,-1163.39"/>
</g>
<!-- AS29838 -->
<g id="node9" class="node"><title>AS29838</title>
<g id="a_node9"><a xlink:href="/asn/29838" xlink:title="AS29838 ~ AMC [US]">
<ellipse fill="#ffffff" stroke="black" cx="772.351" cy="-616" rx="44.393" ry="18"/>
<text text-anchor="middle" x="772.351" y="-612.3" font-family="Times,serif" font-size="14.00" fill="#2c94b3">AS29838</text>
</a>
</g>
</g>
<!-- AS1921&#45;&gt;AS29838 -->
<g id="edge8" class="edge"><title>AS1921&#45;&gt;AS29838</title>
<path fill="none" stroke="black" stroke-width="2.67568" d="M47.0474,-737.992C69.362,-678.798 149.693,-494 282.881,-494 282.881,-494 282.881,-494 529.116,-494 616.08,-494 703.642,-557.497 745.677,-592.873"/>
<polygon fill="black" stroke="black" stroke-width="2.67568" points="743.593,-595.697 753.463,-599.547 748.148,-590.382 743.593,-595.697"/>
</g>
<!-- AS30971 -->
<g id="node10" class="node"><title>AS30971</title>
<g id="a_node10"><a xlink:href="/asn/30971" xlink:title="AS30971 ~ Jakob&#45;Haringer&#45;Strasse 8 [AT]">
<ellipse fill="#ffffff" stroke="black" cx="283.881" cy="-1196" rx="44.393" ry="18"/>
<text text-anchor="middle" x="283.881" y="-1192.3" font-family="Times,serif" font-size="14.00" fill="#2c94b3">AS30971</text>
</a>
</g>
</g>
<!-- AS1921&#45;&gt;AS30971 -->
<g id="edge9" class="edge"><title>AS1921&#45;&gt;AS30971</title>
<path fill="none" stroke="black" stroke-width="0.243243" d="M41.4493,-774.274C44.9447,-845.281 61.1776,-1101.71 115.293,-1158 144.492,-1188.37 192.476,-1196.8 229.634,-1198.25"/>
<polygon fill="black" stroke="black" stroke-width="0.243243" points="229.724,-1201.75 239.802,-1198.49 229.887,-1194.75 229.724,-1201.75"/>
</g>
<!-- AS38001 -->
<g id="node11" class="node"><title>AS38001</title>
<g id="a_node11"><a xlink:href="/asn/38001" xlink:title="AS38001 ~ NewMedia Express Pte Ltd [SG]">
<ellipse fill="#ffffff" stroke="black" cx="896.743" cy="-621" rx="44.393" ry="18"/>
<text text-anchor="middle" x="896.743" y="-617.3" font-family="Times,serif" font-size="14.00" fill="#2c94b3">AS38001</text>
</a>
</g>
</g>
<!-- AS1921&#45;&gt;AS38001 -->
<g id="edge10" class="edge"><title>AS1921&#45;&gt;AS38001</title>
<path fill="none" stroke="black" stroke-width="0.121622" d="M41.9735,-737.862C45.9475,-695.146 61.0848,-586.653 115.293,-518 169.044,-449.927 196.145,-418 282.881,-418 282.881,-418 282.881,-418 648.958,-418 758.827,-418 846.398,-539.488 880.417,-594.497"/>
<polygon fill="black" stroke="black" stroke-width="0.121622" points="877.601,-596.603 885.778,-603.34 883.587,-592.974 877.601,-596.603"/>
</g>
<!-- AS42473 -->
<g id="node12" class="node"><title>AS42473</title>
<g id="a_node12"><a xlink:href="/asn/42473" xlink:title="AS42473 ~ ANEXIA Internetdienstleistungs GmbH [AT]">
<ellipse fill="#ffffff" stroke="black" cx="159.489" cy="-1016" rx="44.393" ry="18"/>
<text text-anchor="middle" x="159.489" y="-1012.3" font-family="Times,serif" font-size="14.00" fill="#2c94b3">AS42473</text>
</a>
</g>
</g>
<!-- AS1921&#45;&gt;AS42473 -->
<g id="edge11" class="edge"><title>AS1921&#45;&gt;AS42473</title>
<path fill="none" stroke="black" stroke-width="4.5" d="M42.9888,-773.998C48.9758,-814.456 67.8493,-914.333 115.293,-982 118.365,-986.381 122.162,-990.474 126.221,-994.194"/>
<polygon fill="black" stroke="black" stroke-width="4.5" points="124.024,-997.489 134.226,-1000.87 129.067,-991.44 124.024,-997.489"/>
</g>
<!-- AS42708 -->
<g id="node13" class="node"><title>AS42708</title>
<g id="a_node13"><a xlink:href="/asn/42708" xlink:title="AS42708 ~ www.portlane.com [SE]">
<ellipse fill="#ffffff" stroke="black" cx="647.958" cy="-942" rx="44.393" ry="18"/>
<text text-anchor="middle" x="647.958" y="-938.3" font-family="Times,serif" font-size="14.00" fill="#2c94b3">AS42708</text>
</a>
</g>
</g>
<!-- AS1921&#45;&gt;AS42708 -->
<g id="edge12" class="edge"><title>AS1921&#45;&gt;AS42708</title>
<path fill="none" stroke="black" stroke-width="0.121622" d="M52.5991,-773.121C84.5248,-816.626 176.631,-928 282.881,-928 282.881,-928 282.881,-928 409.273,-928 473.008,-928 546.191,-933.079 594.32,-937.118"/>
<polygon fill="black" stroke="black" stroke-width="0.121622" points="594.234,-940.624 604.496,-937.988 594.831,-933.649 594.234,-940.624"/>
</g>
<!-- AS47777 -->
<g id="node14" class="node"><title>AS47777</title>
<g id="a_node14"><a xlink:href="/asn/47777" xlink:title="AS47777 ~ wusys GmbH [DE]">
<ellipse fill="#ffffff" stroke="black" cx="896.743" cy="-274" rx="44.393" ry="18"/>
<text text-anchor="middle" x="896.743" y="-270.3" font-family="Times,serif" font-size="14.00" fill="#2c94b3">AS47777</text>
</a>
</g>
</g>
<!-- AS1921&#45;&gt;AS47777 -->
<g id="edge13" class="edge"><title>AS1921&#45;&gt;AS47777</title>
<path fill="none" stroke="black" stroke-width="0.72973" d="M41.281,-737.935C44.3992,-657.733 60.2427,-334.233 115.293,-252 163.544,-179.924 196.145,-152 282.881,-152 282.881,-152 282.881,-152 648.958,-152 737.412,-152 826.952,-215.762 869.778,-251.094"/>
<polygon fill="black" stroke="black" stroke-width="0.72973" points="867.554,-253.797 877.464,-257.547 872.055,-248.436 867.554,-253.797"/>
</g>
<!-- AS50520 -->
<g id="node15" class="node"><title>AS50520</title>
<g id="a_node15"><a xlink:href="/asn/50520" xlink:title="AS50520 ~ HOSTMEIN IKE [GR]">
<ellipse fill="#ffffff" stroke="black" cx="408.273" cy="-1104" rx="44.393" ry="18"/>
<text text-anchor="middle" x="408.273" y="-1100.3" font-family="Times,serif" font-size="14.00" fill="#2c94b3">AS50520</text>
</a>
</g>
</g>
<!-- AS1921&#45;&gt;AS50520 -->
<g id="edge14" class="edge"><title>AS1921&#45;&gt;AS50520</title>
<path fill="none" stroke="black" stroke-width="3.28378" d="M42.9341,-774.332C50.4279,-831.459 76.0324,-1004.72 115.293,-1043 179.352,-1105.45 289.921,-1111.39 355.054,-1108.65"/>
<polygon fill="black" stroke="black" stroke-width="3.28378" points="355.293,-1112.15 365.104,-1108.15 354.94,-1105.16 355.293,-1112.15"/>
</g>
<!-- AS55803 -->
<g id="node16" class="node"><title>AS55803</title>
<g id="a_node16"><a xlink:href="/asn/55803" xlink:title="AS55803 ~ Digital Pacific Pty Ltd Australia [AU]">
<ellipse fill="#ffffff" stroke="black" cx="1021.13" cy="-704" rx="44.393" ry="18"/>
<text text-anchor="middle" x="1021.13" y="-700.3" font-family="Times,serif" font-size="14.00" fill="#2c94b3">AS55803</text>
</a>
</g>
</g>
<!-- AS1921&#45;&gt;AS55803 -->
<g id="edge15" class="edge"><title>AS1921&#45;&gt;AS55803</title>
<path fill="none" stroke="black" stroke-width="0.121622" d="M42.1742,-737.842C48.2132,-669.534 72.2177,-428.762 115.293,-367 165.041,-295.67 195.917,-266 282.881,-266 282.881,-266 282.881,-266 648.958,-266 844.128,-266 840.914,-426.41 940.939,-594 961.546,-628.527 950.708,-646.525 976.939,-677 979.074,-679.48 981.493,-681.807 984.072,-683.974"/>
<polygon fill="black" stroke="black" stroke-width="0.121622" points="982.041,-686.825 992.154,-689.985 986.218,-681.209 982.041,-686.825"/>
</g>
<!-- AS6939 -->
<g id="node17" class="node"><title>AS6939</title>
<g id="a_node17"><a xlink:href="/asn/6939" xlink:title="AS6939 ~ Hurricane Electric LLC [US]">
<ellipse fill="#ffffff" stroke="black" cx="528.116" cy="-654" rx="39.7935" ry="18"/>
<text text-anchor="middle" x="528.116" y="-650.3" font-family="Times,serif" font-size="14.00" fill="#2c94b3">AS6939</text>
</a>
</g>
</g>
<!-- AS1921&#45;&gt;AS6939 -->
<g id="edge16" class="edge"><title>AS1921&#45;&gt;AS6939</title>
<path fill="none" stroke="black" stroke-width="0.972973" d="M78.0239,-751.324C150.894,-741.74 316.705,-717.641 452.469,-681 464.304,-677.806 476.926,-673.572 488.359,-669.407"/>
<polygon fill="black" stroke="black" stroke-width="0.972973" points="489.905,-672.566 498.051,-665.791 487.459,-666.007 489.905,-672.566"/>
</g>
<!-- AS8468 -->
<g id="node18" class="node"><title>AS8468</title>
<g id="a_node18"><a xlink:href="/asn/8468" xlink:title="AS8468 ~ ENTANET International Limited [GB]">
<ellipse fill="#ffffff" stroke="black" cx="408.273" cy="-1732" rx="39.7935" ry="18"/>
<text text-anchor="middle" x="408.273" y="-1728.3" font-family="Times,serif" font-size="14.00" fill="#2c94b3">AS8468</text>
</a>
</g>
</g>
<!-- AS5459&#45;&gt;AS8468 -->
<g id="edge17" class="edge"><title>AS5459&#45;&gt;AS8468</title>
<path fill="none" stroke="black" stroke-width="4.125" d="M310.241,-1679.68C328.375,-1689.45 352.99,-1702.73 372.89,-1713.46"/>
<polygon fill="black" stroke="black" stroke-width="4.125" points="371.431,-1716.77 381.946,-1718.34 374.857,-1710.42 371.431,-1716.77"/>
</g>
<!-- AS702 -->
<g id="node19" class="node"><title>AS702</title>
<g id="a_node19"><a xlink:href="/asn/702" xlink:title="AS702 ~ UUNET [US]">
<ellipse fill="#ffffff" stroke="black" cx="528.116" cy="-1580" rx="35.194" ry="18"/>
<text text-anchor="middle" x="528.116" y="-1576.3" font-family="Times,serif" font-size="14.00" fill="#2c94b3">AS702</text>
</a>
</g>
</g>
<!-- AS5459&#45;&gt;AS702 -->
<g id="edge18" class="edge"><title>AS5459&#45;&gt;AS702</title>
<path fill="none" stroke="black" stroke-width="2.25" d="M315.56,-1655.11C359.774,-1639.41 441.345,-1610.45 489.25,-1593.44"/>
<polygon fill="black" stroke="black" stroke-width="2.25" points="490.683,-1596.65 498.936,-1590 488.341,-1590.05 490.683,-1596.65"/>
</g>
<!-- AS3257 -->
<g id="node20" class="node"><title>AS3257</title>
<g id="a_node20"><a xlink:href="/asn/3257" xlink:title="AS3257 ~ GTT [DE]">
<ellipse fill="#ffffff" stroke="black" cx="528.116" cy="-1971" rx="39.7935" ry="18"/>
<text text-anchor="middle" x="528.116" y="-1967.3" font-family="Times,serif" font-size="14.00" fill="#2c94b3">AS3257</text>
</a>
</g>
</g>
<!-- AS5459&#45;&gt;AS3257 -->
<g id="edge19" class="edge"><title>AS5459&#45;&gt;AS3257</title>
<path fill="none" stroke="black" stroke-width="4.5" d="M298.25,-1682.83C338.604,-1733.64 459.346,-1885.67 507.233,-1945.96"/>
<polygon fill="black" stroke="black" stroke-width="4.5" points="504.187,-1948.46 513.49,-1953.84 510.354,-1943.56 504.187,-1948.46"/>
</g>
<!-- AS1273 -->
<g id="node22" class="node"><title>AS1273</title>
<g id="a_node22"><a xlink:href="/asn/1273" xlink:title="AS1273 ~ Vodafone Group PLC [EU]">
<ellipse fill="#ffffff" stroke="black" cx="772.351" cy="-1292" rx="39.7935" ry="18"/>
<text text-anchor="middle" x="772.351" y="-1288.3" font-family="Times,serif" font-size="14.00" fill="#2c94b3">AS1273</text>
</a>
</g>
</g>
<!-- AS13030&#45;&gt;AS1273 -->
<g id="edge49" class="edge"><title>AS13030&#45;&gt;AS1273</title>
<path fill="none" stroke="black" stroke-width="0.346154" d="M651.348,-389.965C666.488,-503.766 749.019,-1124.14 767.624,-1263.99"/>
<polygon fill="black" stroke="black" stroke-width="0.346154" points="764.157,-1264.47 768.945,-1273.92 771.096,-1263.55 764.157,-1264.47"/>
</g>
<!-- AS3491 -->
<g id="node27" class="node"><title>AS3491</title>
<g id="a_node27"><a xlink:href="/asn/3491" xlink:title="AS3491 ~ PCCW Global, Inc. [US]">
<ellipse fill="#ffffff" stroke="black" cx="1260.82" cy="-1366" rx="39.7935" ry="18"/>
<text text-anchor="middle" x="1260.82" y="-1362.3" font-family="Times,serif" font-size="14.00" fill="#2c94b3">AS3491</text>
</a>
</g>
</g>
<!-- AS13030&#45;&gt;AS3491 -->
<g id="edge48" class="edge"><title>AS13030&#45;&gt;AS3491</title>
<path fill="none" stroke="black" stroke-width="0.346154" d="M691.856,-374.836C726.69,-378.38 776.435,-386.311 816.547,-404 942.866,-459.705 984.032,-478.42 1065.33,-590 1158.3,-717.601 1147.13,-771.714 1180.62,-926 1215.67,-1087.46 1163.88,-1139.43 1216.62,-1296 1222,-1311.94 1231.57,-1328.04 1240.34,-1340.77"/>
<polygon fill="black" stroke="black" stroke-width="0.346154" points="1237.57,-1342.9 1246.23,-1349 1243.26,-1338.83 1237.57,-1342.9"/>
</g>
<!-- AS1299 -->
<g id="node29" class="node"><title>AS1299</title>
<g id="a_node29"><a xlink:href="/asn/1299" xlink:title="AS1299 ~ Telia Carrier [EU]">
<ellipse fill="#ffffff" stroke="black" cx="896.743" cy="-1060" rx="39.7935" ry="18"/>
<text text-anchor="middle" x="896.743" y="-1056.3" font-family="Times,serif" font-size="14.00" fill="#2c94b3">AS1299</text>
</a>
</g>
</g>
<!-- AS13030&#45;&gt;AS1299 -->
<g id="edge46" class="edge"><title>AS13030&#45;&gt;AS1299</title>
<path fill="none" stroke="black" stroke-width="4.5" d="M652.62,-389.953C661.971,-434.161 688.804,-551.341 728.155,-643 758.984,-714.81 785.499,-723.284 816.547,-795 852.626,-878.338 878.62,-983.171 889.739,-1032.26"/>
<polygon fill="black" stroke="black" stroke-width="4.5" points="885.922,-1033.23 891.944,-1042.13 893.607,-1031.51 885.922,-1033.23"/>
</g>
<!-- AS2497 -->
<g id="node32" class="node"><title>AS2497</title>
<g id="a_node32"><a xlink:href="/asn/2497" xlink:title="AS2497 ~ Internet Initiative Japan Inc. [JP]">
<ellipse fill="#ffffff" stroke="black" cx="1380.66" cy="-528" rx="39.7935" ry="18"/>
<text text-anchor="middle" x="1380.66" y="-524.3" font-family="Times,serif" font-size="14.00" fill="#2c94b3">AS2497</text>
</a>
</g>
</g>
<!-- AS13030&#45;&gt;AS2497 -->
<g id="edge47" class="edge"><title>AS13030&#45;&gt;AS2497</title>
<path fill="none" stroke="black" stroke-width="0.692308" d="M667.455,-355.631C701.299,-326.902 776.711,-268.423 852.547,-247 890.353,-236.32 901.946,-242.214 940.939,-247 1050.73,-260.474 1087.25,-254.704 1180.62,-314 1269.69,-370.559 1268.23,-412.626 1341.02,-489 1345.79,-494.007 1350.96,-499.309 1355.92,-504.336"/>
<polygon fill="black" stroke="black" stroke-width="0.692308" points="1353.44,-506.806 1362.97,-511.439 1358.41,-501.875 1353.44,-506.806"/>
</g>
<!-- AS4755 -->
<g id="node37" class="node"><title>AS4755</title>
<g id="a_node37"><a xlink:href="/asn/4755" xlink:title="AS4755 ~ TATACOMM&#45;AS [IN]">
<ellipse fill="#ffffff" stroke="black" cx="528.116" cy="-1123" rx="39.7935" ry="18"/>
<text text-anchor="middle" x="528.116" y="-1119.3" font-family="Times,serif" font-size="14.00" fill="#2c94b3">AS4755</text>
</a>
</g>
</g>
<!-- AS17439&#45;&gt;AS4755 -->
<g id="edge60" class="edge"><title>AS17439&#45;&gt;AS4755</title>
<path fill="none" stroke="black" stroke-width="4.5" d="M320.731,-984.153C356.221,-995.271 411.095,-1015.41 452.469,-1044 474.081,-1058.93 494.263,-1080.99 508.179,-1098"/>
<polygon fill="black" stroke="black" stroke-width="4.5" points="505.168,-1100.54 514.486,-1105.9 511.32,-1095.63 505.168,-1100.54"/>
</g>
<!-- AS9498 -->
<g id="node38" class="node"><title>AS9498</title>
<g id="a_node38"><a xlink:href="/asn/9498" xlink:title="AS9498 ~ BHARTI Airtel Ltd. [IN]">
<ellipse fill="#ffffff" stroke="black" cx="408.273" cy="-882" rx="39.7935" ry="18"/>
<text text-anchor="middle" x="408.273" y="-878.3" font-family="Times,serif" font-size="14.00" fill="#2c94b3">AS9498</text>
</a>
</g>
</g>
<!-- AS17439&#45;&gt;AS9498 -->
<g id="edge61" class="edge"><title>AS17439&#45;&gt;AS9498</title>
<path fill="none" stroke="black" stroke-width="3.15" d="M305.921,-958.185C326.042,-943.06 356.532,-920.141 378.815,-903.392"/>
<polygon fill="black" stroke="black" stroke-width="3.15" points="381.024,-906.11 386.915,-897.303 376.818,-900.514 381.024,-906.11"/>
</g>
<!-- AS2914 -->
<g id="node26" class="node"><title>AS2914</title>
<g id="a_node26"><a xlink:href="/asn/2914" xlink:title="AS2914 ~ NTT America, Inc. [US]">
<ellipse fill="#ffffff" stroke="black" cx="1140.98" cy="-1046" rx="39.7935" ry="18"/>
<text text-anchor="middle" x="1140.98" y="-1042.3" font-family="Times,serif" font-size="14.00" fill="#2c94b3">AS2914</text>
</a>
</g>
</g>
<!-- AS20473&#45;&gt;AS2914 -->
<g id="edge80" class="edge"><title>AS20473&#45;&gt;AS2914</title>
<path fill="none" stroke="black" stroke-width="2.57143" d="M798.106,-836.976C804.7,-841.808 811.41,-847.592 816.547,-854 841.187,-884.739 823.159,-908.763 852.547,-935 926.508,-1001.03 974.753,-961.677 1065.33,-1002 1080.29,-1008.66 1096.03,-1017.61 1109.18,-1025.71"/>
<polygon fill="black" stroke="black" stroke-width="2.57143" points="1107.49,-1028.78 1117.82,-1031.13 1111.21,-1022.85 1107.49,-1028.78"/>
</g>
<!-- AS20473&#45;&gt;AS1299 -->
<g id="edge79" class="edge"><title>AS20473&#45;&gt;AS1299</title>
<path fill="none" stroke="black" stroke-width="4.5" d="M785.374,-839.28C794.664,-853.118 807.432,-873.249 816.547,-892 836.833,-933.732 832.261,-948.268 852.547,-990 859.953,-1005.24 869.77,-1021.38 878.174,-1034.32"/>
<polygon fill="black" stroke="black" stroke-width="4.5" points="874.923,-1036.55 883.719,-1042.72 881.494,-1032.21 874.923,-1036.55"/>
</g>
<!-- AS3549 -->
<g id="node23" class="node"><title>AS3549</title>
<g id="a_node23"><a xlink:href="/asn/3549" xlink:title="AS3549 ~ Level 3 Parent, LLC [US]">
<ellipse fill="#ffffff" stroke="black" cx="1611.25" cy="-559" rx="39.7935" ry="18"/>
<text text-anchor="middle" x="1611.25" y="-555.3" font-family="Times,serif" font-size="14.00" fill="#2c94b3">AS3549</text>
</a>
</g>
</g>
<!-- AS22548&#45;&gt;AS3549 -->
<g id="edge95" class="edge"><title>AS22548&#45;&gt;AS3549</title>
<path fill="none" stroke="black" stroke-width="0.28125" d="M307.568,-71.5238C322.947,-61.6203 344.046,-49.1471 364.077,-41 433.289,-12.8499 452.398,-0 527.116,-0 527.116,-0 527.116,-0 1381.66,-0 1497.71,-0 1583.98,-417.953 1605.2,-531.064"/>
<polygon fill="black" stroke="black" stroke-width="0.28125" points="1601.78,-531.84 1607.05,-541.034 1608.67,-530.564 1601.78,-531.84"/>
</g>
<!-- AS22548&#45;&gt;AS3491 -->
<g id="edge93" class="edge"><title>AS22548&#45;&gt;AS3491</title>
<path fill="none" stroke="black" stroke-width="4.5" d="M324.593,-94.1646C372.453,-102.164 455.392,-114 527.116,-114 527.116,-114 527.116,-114 773.351,-114 978.23,-114 1163.52,-590.673 1180.62,-641 1225.77,-773.828 1252.1,-1219.95 1258.36,-1337.44"/>
<polygon fill="black" stroke="black" stroke-width="4.5" points="1254.45,-1337.99 1258.9,-1347.77 1262.31,-1337.57 1254.45,-1337.99"/>
</g>
<!-- AS16735 -->
<g id="node40" class="node"><title>AS16735</title>
<g id="a_node40"><a xlink:href="/asn/16735" xlink:title="AS16735 ~ ALGAR TELECOM S/A [BR]">
<ellipse fill="#ffffff" stroke="black" cx="408.273" cy="-68" rx="44.393" ry="18"/>
<text text-anchor="middle" x="408.273" y="-64.3" font-family="Times,serif" font-size="14.00" fill="#2c94b3">AS16735</text>
</a>
</g>
</g>
<!-- AS22548&#45;&gt;AS16735 -->
<g id="edge94" class="edge"><title>AS22548&#45;&gt;AS16735</title>
<path fill="none" stroke="black" stroke-width="3.09375" d="M325.636,-80.6733C335.545,-79.135 346.263,-77.4712 356.57,-75.8711"/>
<polygon fill="black" stroke="black" stroke-width="3.09375" points="357.352,-79.2918 366.697,-74.2991 356.278,-72.3746 357.352,-79.2918"/>
</g>
<!-- AS33597 -->
<g id="node41" class="node"><title>AS33597</title>
<g id="a_node41"><a xlink:href="/asn/33597" xlink:title="AS33597 ~ ATLANTIC&#45;METRO&#45;COMMUNICATIONS&#45;II&#45;INC [US]">
<ellipse fill="#ffffff" stroke="black" cx="408.273" cy="-654" rx="44.393" ry="18"/>
<text text-anchor="middle" x="408.273" y="-650.3" font-family="Times,serif" font-size="14.00" fill="#2c94b3">AS33597</text>
</a>
</g>
</g>
<!-- AS25795&#45;&gt;AS33597 -->
<g id="edge109" class="edge"><title>AS25795&#45;&gt;AS33597</title>
<path fill="none" stroke="black" stroke-width="4.5" d="M202.913,-670.562C244.848,-667.163 309.123,-661.954 354.37,-658.287"/>
<polygon fill="black" stroke="black" stroke-width="4.5" points="354.928,-662.193 364.577,-657.46 354.292,-654.343 354.928,-662.193"/>
</g>
<!-- AS29222&#45;&gt;AS6939 -->
<g id="edge114" class="edge"><title>AS29222&#45;&gt;AS6939</title>
<path fill="none" stroke="black" d="M438.259,-1144.74C443.732,-1141.02 448.863,-1136.46 452.469,-1131 501.909,-1056.14 520.859,-772.991 525.742,-682.199"/>
<polygon fill="black" stroke="black" points="529.243,-682.277 526.269,-672.108 522.252,-681.912 529.243,-682.277"/>
</g>
<!-- AS174 -->
<g id="node31" class="node"><title>AS174</title>
<g id="a_node31"><a xlink:href="/asn/174" xlink:title="AS174 ~ Cogent Communications [US]">
<ellipse fill="#ffffff" stroke="black" cx="1021.13" cy="-1782" rx="35.194" ry="18"/>
<text text-anchor="middle" x="1021.13" y="-1778.3" font-family="Times,serif" font-size="14.00" fill="#2c94b3">AS174</text>
</a>
</g>
</g>
<!-- AS29222&#45;&gt;AS174 -->
<g id="edge113" class="edge"><title>AS29222&#45;&gt;AS174</title>
<path fill="none" stroke="black" stroke-width="3" d="M409.398,-1176.2C410.346,-1266.85 418.493,-1669.19 488.469,-1768 534.073,-1832.39 568.054,-1848 646.958,-1848 646.958,-1848 646.958,-1848 773.351,-1848 848.594,-1848 869.396,-1847.31 940.939,-1824 957.812,-1818.5 975.365,-1809.57 989.646,-1801.35"/>
<polygon fill="black" stroke="black" stroke-width="3" points="991.696,-1804.21 998.518,-1796.1 988.13,-1798.18 991.696,-1804.21"/>
</g>
<!-- AS29838&#45;&gt;AS2914 -->
<g id="edge127" class="edge"><title>AS29838&#45;&gt;AS2914</title>
<path fill="none" stroke="black" stroke-width="4.5" d="M796.913,-631.304C803.63,-636.22 810.703,-641.966 816.547,-648 836.102,-668.192 832.755,-680.04 852.547,-700 862.73,-710.27 1056.64,-838.442 1065.33,-850 1094.74,-889.086 1083.85,-908.317 1101.33,-954 1109.74,-975.98 1120.11,-1000.54 1127.99,-1018.75"/>
<polygon fill="black" stroke="black" stroke-width="4.5" points="1124.48,-1020.56 1132.08,-1028.16 1131.7,-1017.42 1124.48,-1020.56"/>
</g>
<!-- AS29838&#45;&gt;AS1299 -->
<g id="edge128" class="edge"><title>AS29838&#45;&gt;AS1299</title>
<path fill="none" stroke="black" stroke-width="2.57143" d="M786.331,-633.226C796.015,-646.873 808.851,-666.777 816.547,-686 829.53,-718.433 874.727,-950.499 890.367,-1031.88"/>
<polygon fill="black" stroke="black" stroke-width="2.57143" points="886.968,-1032.74 892.29,-1041.9 893.843,-1031.42 886.968,-1032.74"/>
</g>
<!-- AS1764 -->
<g id="node42" class="node"><title>AS1764</title>
<g id="a_node42"><a xlink:href="/asn/1764" xlink:title="AS1764 ~ NEXTLAYER&#45;AS [AT]">
<ellipse fill="#ffffff" stroke="black" cx="647.958" cy="-1126" rx="39.7935" ry="18"/>
<text text-anchor="middle" x="647.958" y="-1122.3" font-family="Times,serif" font-size="14.00" fill="#2c94b3">AS1764</text>
</a>
</g>
</g>
<!-- AS30971&#45;&gt;AS1764 -->
<g id="edge129" class="edge"><title>AS30971&#45;&gt;AS1764</title>
<path fill="none" stroke="black" stroke-width="2" d="M328.268,-1195.87C362.301,-1195.11 410.731,-1192.6 452.469,-1185 507.281,-1175.02 568.463,-1154.91 607.308,-1140.96"/>
<polygon fill="black" stroke="black" stroke-width="2" points="608.962,-1144.08 617.167,-1137.38 606.573,-1137.5 608.962,-1144.08"/>
</g>
<!-- AS38001&#45;&gt;AS2914 -->
<g id="edge131" class="edge"><title>AS38001&#45;&gt;AS2914</title>
<path fill="none" stroke="black" d="M908.792,-638.595C923.236,-661.033 949.897,-700.569 976.939,-731 1012.33,-770.831 1038,-766.26 1065.33,-812 1098.73,-867.889 1080.67,-892.259 1101.33,-954 1108.8,-976.317 1119.23,-1000.85 1127.36,-1018.97"/>
<polygon fill="black" stroke="black" points="1124.29,-1020.67 1131.62,-1028.32 1130.66,-1017.77 1124.29,-1020.67"/>
</g>
<!-- AS42473&#45;&gt;AS17439 -->
<g id="edge132" class="edge"><title>AS42473&#45;&gt;AS17439</title>
<path fill="none" stroke="black" stroke-width="4.5" d="M193.933,-1004.52C208.1,-999.662 224.784,-993.937 239.852,-988.766"/>
<polygon fill="black" stroke="black" stroke-width="4.5" points="241.297,-992.433 249.477,-985.463 238.741,-984.984 241.297,-992.433"/>
</g>
<!-- AS42473&#45;&gt;AS1299 -->
<g id="edge133" class="edge"><title>AS42473&#45;&gt;AS1299</title>
<path fill="none" stroke="black" stroke-width="0.140625" d="M203.467,-1018.57C331.742,-1026.25 711.335,-1048.96 846.921,-1057.08"/>
<polygon fill="black" stroke="black" stroke-width="0.140625" points="846.822,-1060.58 857.013,-1057.68 847.24,-1053.59 846.822,-1060.58"/>
</g>
<!-- AS42473&#45;&gt;AS16735 -->
<g id="edge136" class="edge"><title>AS42473&#45;&gt;AS16735</title>
<path fill="none" stroke="black" stroke-width="0.28125" d="M165.199,-997.909C195.526,-881.41 363.207,-237.278 400.095,-95.5754"/>
<polygon fill="black" stroke="black" stroke-width="0.28125" points="403.482,-96.4563 402.614,-85.8971 396.708,-94.6928 403.482,-96.4563"/>
</g>
<!-- AS4826 -->
<g id="node43" class="node"><title>AS4826</title>
<g id="a_node43"><a xlink:href="/asn/4826" xlink:title="AS4826 ~ VOCUS&#45;BACKBONE&#45;AS [AU]">
<ellipse fill="#ffffff" stroke="black" cx="528.116" cy="-1434" rx="39.7935" ry="18"/>
<text text-anchor="middle" x="528.116" y="-1430.3" font-family="Times,serif" font-size="14.00" fill="#2c94b3">AS4826</text>
</a>
</g>
</g>
<!-- AS42473&#45;&gt;AS4826 -->
<g id="edge134" class="edge"><title>AS42473&#45;&gt;AS4826</title>
<path fill="none" stroke="black" stroke-width="0.140625" d="M198.314,-1024.79C211.403,-1027.78 226.175,-1031.1 239.685,-1034 334.019,-1054.25 384.017,-1009.01 452.469,-1077 499.141,-1123.36 519.226,-1329.64 525.136,-1405.71"/>
<polygon fill="black" stroke="black" stroke-width="0.140625" points="521.666,-1406.24 525.907,-1415.95 528.647,-1405.72 521.666,-1406.24"/>
</g>
<!-- AS17819 -->
<g id="node44" class="node"><title>AS17819</title>
<g id="a_node44"><a xlink:href="/asn/17819" xlink:title="AS17819 ~ Equinix Asia Pacific [SG]">
<ellipse fill="#ffffff" stroke="black" cx="283.881" cy="-2111" rx="44.393" ry="18"/>
<text text-anchor="middle" x="283.881" y="-2107.3" font-family="Times,serif" font-size="14.00" fill="#2c94b3">AS17819</text>
</a>
</g>
</g>
<!-- AS42473&#45;&gt;AS17819 -->
<g id="edge135" class="edge"><title>AS42473&#45;&gt;AS17819</title>
<path fill="none" stroke="black" stroke-width="0.140625" d="M162.511,-1034.09C176.762,-1161.59 262.017,-1924.33 279.679,-2082.35"/>
<polygon fill="black" stroke="black" stroke-width="0.140625" points="276.243,-2083.12 280.832,-2092.67 283.2,-2082.34 276.243,-2083.12"/>
</g>
<!-- AS42708&#45;&gt;AS1299 -->
<g id="edge137" class="edge"><title>AS42708&#45;&gt;AS1299</title>
<path fill="none" stroke="black" d="M683.678,-952.617C718.3,-963.808 772.522,-982.99 816.547,-1006 826.496,-1011.2 847.956,-1025.92 866.03,-1038.68"/>
<polygon fill="black" stroke="black" points="864.385,-1041.8 874.566,-1044.73 868.435,-1036.09 864.385,-1041.8"/>
</g>
<!-- AS3320 -->
<g id="node39" class="node"><title>AS3320</title>
<g id="a_node39"><a xlink:href="/asn/3320" xlink:title="AS3320 ~ DTAG [DE]">
<ellipse fill="#ffffff" stroke="black" cx="1380.66" cy="-898" rx="39.7935" ry="18"/>
<text text-anchor="middle" x="1380.66" y="-894.3" font-family="Times,serif" font-size="14.00" fill="#2c94b3">AS3320</text>
</a>
</g>
</g>
<!-- AS47777&#45;&gt;AS3320 -->
<g id="edge139" class="edge"><title>AS47777&#45;&gt;AS3320</title>
<path fill="none" stroke="black" stroke-width="0.9" d="M940.55,-276.691C1000.9,-282.616 1111.35,-301.553 1180.62,-362 1340.01,-501.088 1371.96,-780.052 1378.2,-869.62"/>
<polygon fill="black" stroke="black" stroke-width="0.9" points="1374.72,-870.059 1378.85,-879.815 1381.7,-869.611 1374.72,-870.059"/>
</g>
<!-- AS13237 -->
<g id="node45" class="node"><title>AS13237</title>
<g id="a_node45"><a xlink:href="/asn/13237" xlink:title="AS13237 ~ European Backbone of AS13237 [DE]">
<ellipse fill="#ffffff" stroke="black" cx="1021.13" cy="-650" rx="44.393" ry="18"/>
<text text-anchor="middle" x="1021.13" y="-646.3" font-family="Times,serif" font-size="14.00" fill="#2c94b3">AS13237</text>
</a>
</g>
</g>
<!-- AS47777&#45;&gt;AS13237 -->
<g id="edge138" class="edge"><title>AS47777&#45;&gt;AS13237</title>
<path fill="none" stroke="black" stroke-width="4.5" d="M910.482,-291.326C920.038,-305.025 932.817,-324.953 940.939,-344 982.609,-441.722 1006.55,-566.639 1015.74,-621.734"/>
<polygon fill="black" stroke="black" stroke-width="4.5" points="1011.88,-622.559 1017.38,-631.794 1019.66,-621.29 1011.88,-622.559"/>
</g>
<!-- AS50520&#45;&gt;AS6939 -->
<g id="edge142" class="edge"><title>AS50520&#45;&gt;AS6939</title>
<path fill="none" stroke="black" stroke-width="3.09375" d="M413.966,-1086.08C432.11,-1016.79 497.762,-766.091 519.826,-681.839"/>
<polygon fill="black" stroke="black" stroke-width="3.09375" points="523.263,-682.53 522.41,-671.969 516.491,-680.757 523.263,-682.53"/>
</g>
<!-- AS50520&#45;&gt;AS174 -->
<g id="edge141" class="edge"><title>AS50520&#45;&gt;AS174</title>
<path fill="none" stroke="black" stroke-width="4.5" d="M439.035,-1117.35C444.317,-1121.03 449.175,-1125.55 452.469,-1131 507.356,-1221.78 445.769,-1509.89 488.469,-1607 541.988,-1728.71 598.162,-1758.09 728.155,-1786 814.946,-1804.64 919.609,-1795.91 977.091,-1788.53"/>
<polygon fill="black" stroke="black" stroke-width="4.5" points="977.868,-1792.4 987.261,-1787.17 976.828,-1784.59 977.868,-1792.4"/>
</g>
<!-- AS55803&#45;&gt;AS2914 -->
<g id="edge143" class="edge"><title>AS55803&#45;&gt;AS2914</title>
<path fill="none" stroke="black" d="M1035.18,-721.202C1044.89,-734.835 1057.74,-754.733 1065.33,-774 1095.22,-849.911 1077.41,-876 1101.33,-954 1108.23,-976.5 1118.69,-1001.03 1126.99,-1019.09"/>
<polygon fill="black" stroke="black" points="1123.94,-1020.83 1131.34,-1028.41 1130.28,-1017.87 1123.94,-1020.83"/>
</g>
<!-- AS3356 -->
<g id="node21" class="node"><title>AS3356</title>
<g id="a_node21"><a xlink:href="/asn/3356" xlink:title="AS3356 ~ Level 3 Parent, LLC [US]">
<ellipse fill="#ffffff" stroke="black" cx="1495.96" cy="-1118" rx="39.7935" ry="18"/>
<text text-anchor="middle" x="1495.96" y="-1114.3" font-family="Times,serif" font-size="14.00" fill="#2c94b3">AS3356</text>
</a>
</g>
</g>
<!-- AS6939&#45;&gt;AS3356 -->
<g id="edge147" class="edge"><title>AS6939&#45;&gt;AS3356</title>
<path fill="none" stroke="black" stroke-width="4.5" d="M529.809,-635.565C532.928,-562.703 548.037,-295.903 603.762,-237 772.075,-59.0895 895.067,-110 1139.98,-110 1139.98,-110 1139.98,-110 1261.82,-110 1468.57,-110 1492.01,-925.137 1494.63,-1089.37"/>
<polygon fill="black" stroke="black" stroke-width="4.5" points="1490.7,-1089.7 1494.78,-1099.64 1498.57,-1089.59 1490.7,-1089.7"/>
</g>
<!-- AS6939&#45;&gt;AS1273 -->
<g id="edge153" class="edge"><title>AS6939&#45;&gt;AS1273</title>
<path fill="none" stroke="black" stroke-width="1.28571" d="M531.077,-672.143C536.908,-721.611 556.752,-862.276 603.762,-969 631.927,-1032.94 659.072,-1037.46 692.155,-1099 722.487,-1155.42 748.71,-1226.01 762.023,-1264.25"/>
<polygon fill="black" stroke="black" stroke-width="1.28571" points="758.863,-1265.83 765.428,-1274.14 765.482,-1263.55 758.863,-1265.83"/>
</g>
<!-- AS6453 -->
<g id="node25" class="node"><title>AS6453</title>
<g id="a_node25"><a xlink:href="/asn/6453" xlink:title="AS6453 ~ TATA COMMUNICATIONS (AMERICA) INC [US]">
<ellipse fill="#ffffff" stroke="black" cx="647.958" cy="-1537" rx="39.7935" ry="18"/>
<text text-anchor="middle" x="647.958" y="-1533.3" font-family="Times,serif" font-size="14.00" fill="#2c94b3">AS6453</text>
</a>
</g>
</g>
<!-- AS6939&#45;&gt;AS6453 -->
<g id="edge150" class="edge"><title>AS6939&#45;&gt;AS6453</title>
<path fill="none" stroke="black" stroke-width="1.92857" d="M531.523,-672.038C546.333,-783.007 625.046,-1372.81 643.215,-1508.95"/>
<polygon fill="black" stroke="black" stroke-width="1.92857" points="639.763,-1509.54 644.555,-1518.99 646.701,-1508.62 639.763,-1509.54"/>
</g>
<!-- AS6939&#45;&gt;AS2914 -->
<g id="edge148" class="edge"><title>AS6939&#45;&gt;AS2914</title>
<path fill="none" stroke="black" stroke-width="1.92857" d="M561.876,-663.661C595.454,-674.11 648.749,-692.229 692.155,-714 751.126,-743.579 773.974,-744.601 816.547,-795 842.494,-825.717 824.49,-849.197 852.547,-878 925.328,-952.716 978.705,-918.9 1065.33,-977 1084.5,-989.856 1103.56,-1007.58 1117.63,-1021.85"/>
<polygon fill="black" stroke="black" stroke-width="1.92857" points="1115.43,-1024.61 1124.9,-1029.37 1120.46,-1019.75 1115.43,-1024.61"/>
</g>
<!-- AS6939&#45;&gt;AS3491 -->
<g id="edge151" class="edge"><title>AS6939&#45;&gt;AS3491</title>
<path fill="none" stroke="black" stroke-width="3.21429" d="M550.825,-639.108C586.11,-615.904 658.942,-572.115 728.155,-556 802.557,-538.676 1013.02,-567.323 1065.33,-623 1120.3,-681.508 1079.61,-722.718 1101.33,-800 1129.34,-899.655 1156.19,-918.409 1180.62,-1019 1209.93,-1139.64 1175.1,-1179 1216.62,-1296 1222.25,-1311.86 1231.85,-1327.94 1240.57,-1340.69"/>
<polygon fill="black" stroke="black" stroke-width="3.21429" points="1237.77,-1342.8 1246.41,-1348.94 1243.49,-1338.75 1237.77,-1342.8"/>
</g>
<!-- AS701 -->
<g id="node28" class="node"><title>AS701</title>
<g id="a_node28"><a xlink:href="/asn/701" xlink:title="AS701 ~ UUNET [US]">
<ellipse fill="#ffffff" stroke="black" cx="1380.66" cy="-1263" rx="35.194" ry="18"/>
<text text-anchor="middle" x="1380.66" y="-1259.3" font-family="Times,serif" font-size="14.00" fill="#2c94b3">AS701</text>
</a>
</g>
</g>
<!-- AS6939&#45;&gt;AS701 -->
<g id="edge152" class="edge"><title>AS6939&#45;&gt;AS701</title>
<path fill="none" stroke="black" stroke-width="2.57143" d="M534.088,-636.144C543.1,-607.077 564.892,-549.604 603.762,-518 648.615,-481.532 671.052,-488.997 728.155,-480 929.301,-448.307 1061.31,-386.993 1180.62,-552 1190.62,-565.828 1336.13,-1128.65 1341.02,-1145 1350.32,-1176.13 1362.06,-1211.5 1370.15,-1235.33"/>
<polygon fill="black" stroke="black" stroke-width="2.57143" points="1366.94,-1236.76 1373.48,-1245.1 1373.56,-1234.51 1366.94,-1236.76"/>
</g>
<!-- AS6939&#45;&gt;AS1299 -->
<g id="edge149" class="edge"><title>AS6939&#45;&gt;AS1299</title>
<path fill="none" stroke="black" stroke-width="1.92857" d="M548.88,-669.451C580.805,-694.884 644.911,-747.952 692.155,-800 710.317,-820.01 710.107,-828.887 728.155,-849 763.741,-888.66 782.707,-888.839 816.547,-930 843.57,-962.87 867.93,-1005.82 882.286,-1033.17"/>
<polygon fill="black" stroke="black" stroke-width="1.92857" points="879.229,-1034.87 886.935,-1042.15 885.446,-1031.66 879.229,-1034.87"/>
</g>
<!-- AS6939&#45;&gt;AS2497 -->
<g id="edge146" class="edge"><title>AS6939&#45;&gt;AS2497</title>
<path fill="none" stroke="black" stroke-width="1.28571" d="M530.281,-635.613C534.899,-568.746 554.136,-339.814 603.762,-290 683.486,-209.974 740.185,-249.617 852.547,-238 1057.31,-216.829 1168.56,-182.87 1305.02,-337 1347.48,-384.961 1367.13,-459.852 1375.05,-500.128"/>
<polygon fill="black" stroke="black" stroke-width="1.28571" points="1371.63,-500.864 1376.91,-510.052 1378.51,-499.58 1371.63,-500.864"/>
</g>
<!-- AS7018 -->
<g id="node33" class="node"><title>AS7018</title>
<g id="a_node33"><a xlink:href="/asn/7018" xlink:title="AS7018 ~ AT&amp;T Services, Inc. [US]">
<ellipse fill="#ffffff" stroke="black" cx="1380.66" cy="-1450" rx="39.7935" ry="18"/>
<text text-anchor="middle" x="1380.66" y="-1446.3" font-family="Times,serif" font-size="14.00" fill="#2c94b3">AS7018</text>
</a>
</g>
</g>
<!-- AS6939&#45;&gt;AS7018 -->
<g id="edge144" class="edge"><title>AS6939&#45;&gt;AS7018</title>
<path fill="none" stroke="black" stroke-width="1.92857" d="M538.022,-636.538C549.89,-615.255 573.018,-580.031 603.762,-563 783.272,-463.562 900.766,-452.404 1065.33,-575 1154.17,-641.184 1138.7,-693.456 1180.62,-796 1276.76,-1031.12 1351.27,-1330.22 1373.12,-1421.98"/>
<polygon fill="black" stroke="black" stroke-width="1.92857" points="1369.75,-1422.97 1375.46,-1431.89 1376.57,-1421.35 1369.75,-1422.97"/>
</g>
<!-- AS6762 -->
<g id="node34" class="node"><title>AS6762</title>
<g id="a_node34"><a xlink:href="/asn/6762" xlink:title="AS6762 ~ TELECOM ITALIA SPARKLE S.p.A. [IT]">
<ellipse fill="#ffffff" stroke="black" cx="1380.66" cy="-1118" rx="39.7935" ry="18"/>
<text text-anchor="middle" x="1380.66" y="-1114.3" font-family="Times,serif" font-size="14.00" fill="#2c94b3">AS6762</text>
</a>
</g>
</g>
<!-- AS6939&#45;&gt;AS6762 -->
<g id="edge145" class="edge"><title>AS6939&#45;&gt;AS6762</title>
<path fill="none" stroke="black" stroke-width="1.92857" d="M530.621,-636.008C536.082,-575.602 557.037,-381.782 603.762,-345 633.481,-321.606 1050.89,-289.335 1180.62,-400 1208.29,-423.603 1340.99,-960.007 1372.8,-1089.88"/>
<polygon fill="black" stroke="black" stroke-width="1.92857" points="1369.46,-1090.96 1375.24,-1099.84 1376.26,-1089.3 1369.46,-1090.96"/>
</g>
<!-- AS8468&#45;&gt;AS3257 -->
<g id="edge22" class="edge"><title>AS8468&#45;&gt;AS3257</title>
<path fill="none" stroke="black" stroke-width="2.25" d="M417.939,-1749.57C438.369,-1791.01 489.656,-1895.03 513.955,-1944.31"/>
<polygon fill="black" stroke="black" stroke-width="2.25" points="510.876,-1945.98 518.438,-1953.4 517.155,-1942.88 510.876,-1945.98"/>
</g>
<!-- AS8468&#45;&gt;AS3356 -->
<g id="edge20" class="edge"><title>AS8468&#45;&gt;AS3356</title>
<path fill="none" stroke="black" stroke-width="1.5" d="M410.625,-1750.08C419.942,-1868.26 479.325,-2526 646.958,-2526 646.958,-2526 646.958,-2526 1022.13,-2526 1252.83,-2526 1354.16,-2414.01 1420.31,-2193 1481.47,-1988.64 1492.9,-1295.34 1494.67,-1146.35"/>
<polygon fill="black" stroke="black" stroke-width="1.5" points="1498.17,-1146.24 1494.78,-1136.2 1491.17,-1146.16 1498.17,-1146.24"/>
</g>
<!-- AS8468&#45;&gt;AS1273 -->
<g id="edge21" class="edge"><title>AS8468&#45;&gt;AS1273</title>
<path fill="none" stroke="black" stroke-width="4.5" d="M409.434,-1713.71C410.733,-1661.31 420.483,-1507.9 488.469,-1407 541.124,-1328.86 657.026,-1303.79 722.968,-1295.76"/>
<polygon fill="black" stroke="black" stroke-width="4.5" points="723.611,-1299.65 733.105,-1294.61 722.726,-1291.83 723.611,-1299.65"/>
</g>
<!-- AS702&#45;&gt;AS6453 -->
<g id="edge25" class="edge"><title>AS702&#45;&gt;AS6453</title>
<path fill="none" stroke="black" d="M557.342,-1569.7C572.116,-1564.31 590.461,-1557.62 606.699,-1551.69"/>
<polygon fill="black" stroke="black" points="608.291,-1554.84 616.485,-1548.12 605.891,-1548.26 608.291,-1554.84"/>
</g>
<!-- AS702&#45;&gt;AS2914 -->
<g id="edge26" class="edge"><title>AS702&#45;&gt;AS2914</title>
<path fill="none" stroke="black" d="M539.701,-1562.84C566.315,-1521.03 640.219,-1412.84 728.155,-1352 762.64,-1328.14 785.037,-1346.67 816.547,-1319 842.242,-1296.44 831.213,-1277.73 852.547,-1251 898.041,-1194.01 917.834,-1186.72 976.939,-1144 1019.39,-1113.32 1071.81,-1083.04 1105.56,-1064.44"/>
<polygon fill="black" stroke="black" points="1107.47,-1067.39 1114.56,-1059.52 1104.11,-1061.25 1107.47,-1067.39"/>
</g>
<!-- AS702&#45;&gt;AS3491 -->
<g id="edge27" class="edge"><title>AS702&#45;&gt;AS3491</title>
<path fill="none" stroke="black" d="M560.477,-1586.98C613.645,-1597.71 724.659,-1615.28 816.547,-1598 988.209,-1565.72 1038.02,-1550.87 1180.62,-1450 1204.04,-1433.44 1226.02,-1409.15 1240.85,-1390.94"/>
<polygon fill="black" stroke="black" points="1243.65,-1393.06 1247.15,-1383.06 1238.17,-1388.69 1243.65,-1393.06"/>
</g>
<!-- AS702&#45;&gt;AS701 -->
<g id="edge28" class="edge"><title>AS702&#45;&gt;AS701</title>
<path fill="none" stroke="black" d="M536.959,-1597.65C572.988,-1676.11 731.451,-1993.46 976.939,-2088 1068.55,-2123.28 1287.7,-2056.23 1305.02,-2036 1349.38,-1984.17 1330.97,-1490.48 1341.02,-1423 1348.01,-1376.02 1362.21,-1322.6 1371.32,-1290.9"/>
<polygon fill="black" stroke="black" points="1374.76,-1291.61 1374.19,-1281.03 1368.04,-1289.65 1374.76,-1291.61"/>
</g>
<!-- AS702&#45;&gt;AS1299 -->
<g id="edge29" class="edge"><title>AS702&#45;&gt;AS1299</title>
<path fill="none" stroke="black" d="M536.031,-1562.14C544.688,-1539.1 559.396,-1497.64 567.762,-1461 580.994,-1403.06 567.568,-1243.14 603.762,-1196 619.37,-1175.67 793.725,-1118.66 816.547,-1107 833.245,-1098.47 836.431,-1094.59 852.547,-1085 855.791,-1083.07 859.182,-1081.07 862.575,-1079.09"/>
<polygon fill="black" stroke="black" points="864.584,-1081.97 871.466,-1073.91 861.063,-1075.92 864.584,-1081.97"/>
</g>
<!-- AS209 -->
<g id="node24" class="node"><title>AS209</title>
<g id="a_node24"><a xlink:href="/asn/209" xlink:title="AS209 ~ CenturyLink Communications, LLC [US]">
<ellipse fill="#ffffff" stroke="black" cx="1611.25" cy="-2137" rx="35.194" ry="18"/>
<text text-anchor="middle" x="1611.25" y="-2133.3" font-family="Times,serif" font-size="14.00" fill="#2c94b3">AS209</text>
</a>
</g>
</g>
<!-- AS3257&#45;&gt;AS209 -->
<g id="edge41" class="edge"><title>AS3257&#45;&gt;AS209</title>
<path fill="none" stroke="black" d="M529.6,-1989.13C532.009,-2066.02 545.054,-2364.27 603.762,-2433 654.679,-2492.61 692.958,-2488 771.351,-2488 771.351,-2488 771.351,-2488 1022.13,-2488 1253.75,-2488 1392.23,-2580.9 1535.6,-2399 1591.64,-2327.91 1605.61,-2216.68 1609.09,-2165.06"/>
<polygon fill="black" stroke="black" points="1612.59,-2165.17 1609.69,-2154.99 1605.6,-2164.76 1612.59,-2165.17"/>
</g>
<!-- AS3257&#45;&gt;AS6453 -->
<g id="edge31" class="edge"><title>AS3257&#45;&gt;AS6453</title>
<path fill="none" stroke="black" d="M533.241,-1953.12C550.235,-1885.48 615.027,-1646.52 638.447,-1564.64"/>
<polygon fill="black" stroke="black" points="641.813,-1565.59 641.218,-1555.02 635.087,-1563.66 641.813,-1565.59"/>
</g>
<!-- AS3257&#45;&gt;AS2914 -->
<g id="edge34" class="edge"><title>AS3257&#45;&gt;AS2914</title>
<path fill="none" stroke="black" d="M540.359,-1953.86C599.215,-1871.39 876.318,-1508.76 1065.33,-1188 1088.41,-1148.84 1110.98,-1101.57 1125.15,-1072.49"/>
<polygon fill="black" stroke="black" points="1128.37,-1073.88 1129.63,-1063.36 1122.08,-1070.8 1128.37,-1073.88"/>
</g>
<!-- AS3257&#45;&gt;AS3491 -->
<g id="edge39" class="edge"><title>AS3257&#45;&gt;AS3491</title>
<path fill="none" stroke="black" d="M567.765,-1969.19C600.868,-1971.12 649.765,-1974.71 692.155,-1970 873.294,-1949.87 946.128,-1937.87 1065.33,-1800 1176.86,-1671.01 1233.81,-1468 1252.61,-1393.99"/>
<polygon fill="black" stroke="black" points="1256.07,-1394.58 1255.11,-1384.03 1249.28,-1392.87 1256.07,-1394.58"/>
</g>
<!-- AS3257&#45;&gt;AS1299 -->
<g id="edge35" class="edge"><title>AS3257&#45;&gt;AS1299</title>
<path fill="none" stroke="black" d="M530.306,-1952.68C535.186,-1888.78 555.725,-1672.36 603.762,-1501 643.39,-1359.64 638.824,-1311.5 728.155,-1195 758.15,-1155.88 782.448,-1163.6 816.547,-1128 835.99,-1107.7 831.883,-1095.06 852.547,-1076 852.897,-1075.68 853.252,-1075.36 853.612,-1075.04"/>
<polygon fill="black" stroke="black" points="855.943,-1077.66 861.702,-1068.77 851.655,-1072.13 855.943,-1077.66"/>
</g>
<!-- AS12956 -->
<g id="node30" class="node"><title>AS12956</title>
<g id="a_node30"><a xlink:href="/asn/12956" xlink:title="AS12956 ~ TELXIUS [ES]">
<ellipse fill="#ffffff" stroke="black" cx="1260.82" cy="-2009" rx="44.393" ry="18"/>
<text text-anchor="middle" x="1260.82" y="-2005.3" font-family="Times,serif" font-size="14.00" fill="#2c94b3">AS12956</text>
</a>
</g>
</g>
<!-- AS3257&#45;&gt;AS12956 -->
<g id="edge30" class="edge"><title>AS3257&#45;&gt;AS12956</title>
<path fill="none" stroke="black" d="M539.416,-1988.48C551.874,-2007.71 574.823,-2037.53 603.762,-2050 818.715,-2142.62 1110.34,-2060.52 1217.82,-2024.2"/>
<polygon fill="black" stroke="black" points="1219.01,-2027.5 1227.33,-2020.94 1216.74,-2020.87 1219.01,-2027.5"/>
</g>
<!-- AS3257&#45;&gt;AS174 -->
<g id="edge32" class="edge"><title>AS3257&#45;&gt;AS174</title>
<path fill="none" stroke="black" stroke-width="3" d="M563.997,-1963.12C638.046,-1951.31 814.512,-1926.16 940.939,-1853 962.257,-1840.66 981.78,-1821.08 996.108,-1805.46"/>
<polygon fill="black" stroke="black" stroke-width="3" points="999.004,-1807.47 1003.11,-1797.71 993.809,-1802.78 999.004,-1807.47"/>
</g>
<!-- AS3257&#45;&gt;AS2497 -->
<g id="edge33" class="edge"><title>AS3257&#45;&gt;AS2497</title>
<path fill="none" stroke="black" d="M536.059,-1988.88C546.618,-2013.4 569.209,-2056.72 603.762,-2077 780.739,-2180.86 862.98,-2122.07 1065.33,-2088 1119.08,-2078.95 1270.15,-2077.89 1305.02,-2036 1346.43,-1986.23 1336.39,-935.587 1341.02,-871 1349.42,-753.677 1367.66,-614.623 1375.71,-556.133"/>
<polygon fill="black" stroke="black" points="1379.18,-556.558 1377.09,-546.172 1372.25,-555.597 1379.18,-556.558"/>
</g>
<!-- AS3257&#45;&gt;AS7018 -->
<g id="edge36" class="edge"><title>AS3257&#45;&gt;AS7018</title>
<path fill="none" stroke="black" d="M530.154,-1989.22C534.279,-2054.38 551.894,-2274.15 603.762,-2316 679.473,-2377.08 1121.21,-2312.37 1180.62,-2274 1271.11,-2215.57 1270.13,-2167.91 1305.02,-2066 1324.3,-2009.66 1365.96,-1591.08 1376.96,-1478.06"/>
<polygon fill="black" stroke="black" points="1380.44,-1478.39 1377.92,-1468.1 1373.47,-1477.71 1380.44,-1478.39"/>
</g>
<!-- AS3257&#45;&gt;AS6762 -->
<g id="edge37" class="edge"><title>AS3257&#45;&gt;AS6762</title>
<path fill="none" stroke="black" d="M530.679,-1989.3C536.262,-2049.79 557.403,-2241.56 603.762,-2278 678.115,-2336.44 722.306,-2285.9 816.547,-2278 928.29,-2268.63 962.333,-2280.34 1065.33,-2236 1142.66,-2202.71 1143.81,-2164.26 1216.62,-2122 1253.61,-2100.53 1280.74,-2119.21 1305.02,-2084 1358.55,-2006.36 1324.18,-1328.79 1341.02,-1236 1346.84,-1203.89 1359.29,-1168.5 1368.49,-1144.93"/>
<polygon fill="black" stroke="black" points="1371.76,-1146.18 1372.21,-1135.6 1365.26,-1143.59 1371.76,-1146.18"/>
</g>
<!-- AS6461 -->
<g id="node35" class="node"><title>AS6461</title>
<g id="a_node35"><a xlink:href="/asn/6461" xlink:title="AS6461 ~ ZAYO&#45;6461 [US]">
<ellipse fill="#ffffff" stroke="black" cx="1380.66" cy="-1946" rx="39.7935" ry="18"/>
<text text-anchor="middle" x="1380.66" y="-1942.3" font-family="Times,serif" font-size="14.00" fill="#2c94b3">AS6461</text>
</a>
</g>
</g>
<!-- AS3257&#45;&gt;AS6461 -->
<g id="edge38" class="edge"><title>AS3257&#45;&gt;AS6461</title>
<path fill="none" stroke="black" d="M529.959,-1989.45C533.648,-2062.4 550.632,-2329.75 603.762,-2392 654.932,-2451.95 692.532,-2450 771.351,-2450 771.351,-2450 771.351,-2450 897.743,-2450 1084.13,-2450 1177.1,-2485.57 1305.02,-2350 1356.55,-2295.39 1373.81,-2057.33 1378.31,-1974.52"/>
<polygon fill="black" stroke="black" points="1381.82,-1974.5 1378.84,-1964.34 1374.83,-1974.14 1381.82,-1974.5"/>
</g>
<!-- AS1239 -->
<g id="node36" class="node"><title>AS1239</title>
<g id="a_node36"><a xlink:href="/asn/1239" xlink:title="AS1239 ~ Sprint [US]">
<ellipse fill="#ffffff" stroke="black" cx="1380.66" cy="-1892" rx="39.7935" ry="18"/>
<text text-anchor="middle" x="1380.66" y="-1888.3" font-family="Times,serif" font-size="14.00" fill="#2c94b3">AS1239</text>
</a>
</g>
</g>
<!-- AS3257&#45;&gt;AS1239 -->
<g id="edge40" class="edge"><title>AS3257&#45;&gt;AS1239</title>
<path fill="none" stroke="black" d="M529.736,-1989.25C532.522,-2058.95 546.381,-2306.72 603.762,-2354 660.099,-2400.42 1229.7,-2386.9 1305.02,-2312 1367.2,-2250.16 1296.97,-1994.84 1341.02,-1919 1342.48,-1916.48 1344.29,-1914.14 1346.31,-1911.97"/>
<polygon fill="black" stroke="black" points="1348.68,-1914.55 1353.85,-1905.3 1344.04,-1909.31 1348.68,-1914.55"/>
</g>
<!-- AS3356&#45;&gt;AS3549 -->
<g id="edge23" class="edge"><title>AS3356&#45;&gt;AS3549</title>
<path fill="none" stroke="black" stroke-width="3.5" d="M1500.6,-1100.03C1517.06,-1018.81 1584.6,-685.563 1604.63,-586.744"/>
<polygon fill="black" stroke="black" stroke-width="3.5" points="1608.06,-587.395 1606.62,-576.899 1601.2,-586.005 1608.06,-587.395"/>
</g>
<!-- AS3356&#45;&gt;AS209 -->
<g id="edge24" class="edge"><title>AS3356&#45;&gt;AS209</title>
<path fill="none" stroke="black" stroke-width="4.5" d="M1498.97,-1136.12C1512.52,-1258.03 1590.39,-1958.43 1607.1,-2108.64"/>
<polygon fill="black" stroke="black" stroke-width="4.5" points="1603.21,-2109.36 1608.23,-2118.86 1611.04,-2108.49 1603.21,-2109.36"/>
</g>
<!-- AS1273&#45;&gt;AS209 -->
<g id="edge44" class="edge"><title>AS1273&#45;&gt;AS209</title>
<path fill="none" stroke="black" d="M791.915,-1307.69C823.602,-1334.76 889.673,-1392.51 940.939,-1446 1093.03,-1604.68 1040.02,-1824 1259.82,-1824 1259.82,-1824 1259.82,-1824 1381.66,-1824 1522.08,-1824 1585.47,-2031.99 1604.1,-2108.88"/>
<polygon fill="black" stroke="black" points="1600.74,-2109.88 1606.44,-2118.82 1607.56,-2108.28 1600.74,-2109.88"/>
</g>
<!-- AS1273&#45;&gt;AS701 -->
<g id="edge45" class="edge"><title>AS1273&#45;&gt;AS701</title>
<path fill="none" stroke="black" d="M812.201,-1290.14C919.918,-1284.99 1221.9,-1270.55 1335.61,-1265.11"/>
<polygon fill="black" stroke="black" points="1335.88,-1268.6 1345.7,-1264.62 1335.54,-1261.61 1335.88,-1268.6"/>
</g>
<!-- AS1273&#45;&gt;AS1299 -->
<g id="edge42" class="edge"><title>AS1273&#45;&gt;AS1299</title>
<path fill="none" stroke="black" d="M798.547,-1277.99C805.31,-1273.11 811.999,-1267.06 816.547,-1260 857.892,-1195.8 811.201,-1156.2 852.547,-1092 855.247,-1087.81 858.702,-1083.97 862.479,-1080.52"/>
<polygon fill="black" stroke="black" points="864.966,-1083.01 870.546,-1074.01 860.568,-1077.57 864.966,-1083.01"/>
</g>
<!-- AS1273&#45;&gt;AS174 -->
<g id="edge43" class="edge"><title>AS1273&#45;&gt;AS174</title>
<path fill="none" stroke="black" d="M782.28,-1309.73C819.469,-1383.57 962.193,-1666.95 1006.76,-1755.44"/>
<polygon fill="black" stroke="black" points="1003.72,-1757.19 1011.35,-1764.55 1009.97,-1754.05 1003.72,-1757.19"/>
</g>
<!-- AS6453&#45;&gt;AS3257 -->
<g id="edge69" class="edge"><title>AS6453&#45;&gt;AS3257</title>
<path fill="none" stroke="black" d="M642.75,-1555.21C625.63,-1623.29 561.015,-1861.59 537.63,-1943.36"/>
<polygon fill="black" stroke="black" points="534.205,-1942.6 534.8,-1953.18 540.932,-1944.54 534.205,-1942.6"/>
</g>
<!-- AS6453&#45;&gt;AS3356 -->
<g id="edge70" class="edge"><title>AS6453&#45;&gt;AS3356</title>
<path fill="none" stroke="black" stroke-width="2" d="M653.106,-1555.02C668.399,-1621.33 721.116,-1848.73 728.155,-1863 857.21,-2124.58 848.292,-2374 1139.98,-2374 1139.98,-2374 1139.98,-2374 1261.82,-2374 1423.31,-2374 1318.35,-2490.39 1420.31,-1973 1483.4,-1652.87 1493.17,-1254.82 1494.68,-1146.39"/>
<polygon fill="black" stroke="black" stroke-width="2" points="1498.18,-1146.3 1494.81,-1136.25 1491.18,-1146.21 1498.18,-1146.3"/>
</g>
<!-- AS6453&#45;&gt;AS1273 -->
<g id="edge77" class="edge"><title>AS6453&#45;&gt;AS1273</title>
<path fill="none" stroke="black" stroke-width="2" d="M656.102,-1519.26C669.185,-1487.24 698.395,-1417.94 728.155,-1362 736.166,-1346.94 746.104,-1330.7 754.428,-1317.65"/>
<polygon fill="black" stroke="black" stroke-width="2" points="757.41,-1319.49 759.889,-1309.18 751.527,-1315.69 757.41,-1319.49"/>
</g>
<!-- AS6453&#45;&gt;AS209 -->
<g id="edge68" class="edge"><title>AS6453&#45;&gt;AS209</title>
<path fill="none" stroke="black" d="M649.492,-1555.2C652.906,-1642.24 677.652,-2021.48 852.547,-2256 972.409,-2416.72 1059.32,-2450 1259.82,-2450 1259.82,-2450 1259.82,-2450 1381.66,-2450 1522.08,-2450 1585.47,-2242.01 1604.1,-2165.12"/>
<polygon fill="black" stroke="black" points="1607.56,-2165.72 1606.44,-2155.18 1600.74,-2164.12 1607.56,-2165.72"/>
</g>
<!-- AS6453&#45;&gt;AS2914 -->
<g id="edge76" class="edge"><title>AS6453&#45;&gt;AS2914</title>
<path fill="none" stroke="black" d="M655.634,-1518.95C666.869,-1490.61 691.937,-1435.26 728.155,-1400 760.184,-1368.81 779.573,-1377.13 816.547,-1352 876.148,-1311.49 1015.55,-1196.1 1065.33,-1144 1087.08,-1121.24 1108.5,-1092.25 1122.78,-1071.72"/>
<polygon fill="black" stroke="black" points="1125.85,-1073.43 1128.63,-1063.21 1120.08,-1069.47 1125.85,-1073.43"/>
</g>
<!-- AS6453&#45;&gt;AS3491 -->
<g id="edge64" class="edge"><title>AS6453&#45;&gt;AS3491</title>
<path fill="none" stroke="black" d="M684.384,-1529.66C757.349,-1519.93 928.986,-1502.47 1065.33,-1457 1081.22,-1451.7 1167.66,-1406.17 1219.81,-1381.35"/>
<polygon fill="black" stroke="black" points="1221.56,-1384.4 1229.12,-1376.97 1218.58,-1378.06 1221.56,-1384.4"/>
</g>
<!-- AS6453&#45;&gt;AS701 -->
<g id="edge75" class="edge"><title>AS6453&#45;&gt;AS701</title>
<path fill="none" stroke="black" d="M685.517,-1543.15C698.89,-1545.12 714.168,-1547.03 728.155,-1548 767.346,-1550.71 777.374,-1550.97 816.547,-1548 928.75,-1539.48 958.352,-1535.89 1065.33,-1501 1118.43,-1483.68 1129.69,-1473.91 1180.62,-1451 1236.25,-1425.97 1260.09,-1434.26 1305.02,-1393 1336.39,-1364.18 1358.16,-1319.06 1369.79,-1290.27"/>
<polygon fill="black" stroke="black" points="1373.1,-1291.41 1373.47,-1280.82 1366.58,-1288.87 1373.1,-1291.41"/>
</g>
<!-- AS6453&#45;&gt;AS1299 -->
<g id="edge63" class="edge"><title>AS6453&#45;&gt;AS1299</title>
<path fill="none" stroke="black" stroke-width="2" d="M649.788,-1518.92C652.938,-1470.98 667.288,-1340.36 728.155,-1256 756.084,-1217.29 788.085,-1233.32 816.547,-1195 847.724,-1153.03 822.077,-1125.49 852.547,-1083 853.872,-1081.15 855.337,-1079.36 856.903,-1077.65"/>
<polygon fill="black" stroke="black" stroke-width="2" points="859.431,-1080.08 864.291,-1070.66 854.621,-1074.99 859.431,-1080.08"/>
</g>
<!-- AS6453&#45;&gt;AS12956 -->
<g id="edge67" class="edge"><title>AS6453&#45;&gt;AS12956</title>
<path fill="none" stroke="black" d="M654.566,-1554.91C665.051,-1586.24 690.065,-1651.88 728.155,-1696 860.254,-1849.01 920.708,-1865.24 1101.33,-1956 1137.28,-1974.06 1180.78,-1988.11 1213.11,-1997.19"/>
<polygon fill="black" stroke="black" points="1212.19,-2000.56 1222.76,-1999.84 1214.05,-1993.82 1212.19,-2000.56"/>
</g>
<!-- AS6453&#45;&gt;AS174 -->
<g id="edge73" class="edge"><title>AS6453&#45;&gt;AS174</title>
<path fill="none" stroke="black" d="M665.086,-1553.33C680.134,-1572.34 703.858,-1603.36 728.155,-1627 777.825,-1675.32 790.891,-1689.37 852.547,-1721 895.349,-1742.96 949.113,-1757.61 984.03,-1767.73"/>
<polygon fill="black" stroke="black" points="983.209,-1771.14 993.79,-1770.6 985.182,-1764.42 983.209,-1771.14"/>
</g>
<!-- AS6453&#45;&gt;AS2497 -->
<g id="edge78" class="edge"><title>AS6453&#45;&gt;AS2497</title>
<path fill="none" stroke="black" d="M659.807,-1519.49C673.651,-1498.21 699.29,-1462.15 728.155,-1438 762.439,-1409.31 778.527,-1413.51 816.547,-1390 873.925,-1354.51 891.469,-1348.87 940.939,-1303 959.466,-1285.82 958.423,-1276.19 976.939,-1259 1012.1,-1226.35 1031.66,-1231.19 1065.33,-1197 1085.31,-1176.71 1082.58,-1165.43 1101.33,-1144 1132.47,-1108.39 1154.1,-1112.17 1180.62,-1073 1196.19,-1050.02 1332.47,-662.681 1370.08,-555.368"/>
<polygon fill="black" stroke="black" points="1373.41,-556.473 1373.41,-545.878 1366.8,-554.159 1373.41,-556.473"/>
</g>
<!-- AS6453&#45;&gt;AS7018 -->
<g id="edge72" class="edge"><title>AS6453&#45;&gt;AS7018</title>
<path fill="none" stroke="black" d="M666.245,-1553.3C681.498,-1566.92 704.867,-1585.98 728.155,-1598 796.41,-1633.22 992.174,-1697.4 1065.33,-1674 1191.04,-1633.79 1309.38,-1522.86 1357.28,-1473.83"/>
<polygon fill="black" stroke="black" points="1359.92,-1476.13 1364.35,-1466.51 1354.88,-1471.27 1359.92,-1476.13"/>
</g>
<!-- AS6453&#45;&gt;AS6762 -->
<g id="edge65" class="edge"><title>AS6453&#45;&gt;AS6762</title>
<path fill="none" stroke="black" d="M682.107,-1527.69C737.533,-1511.45 851.722,-1475.15 940.939,-1428 1108.97,-1339.19 1287.49,-1195.33 1353.32,-1140.35"/>
<polygon fill="black" stroke="black" points="1355.73,-1142.9 1361.14,-1133.79 1351.23,-1137.53 1355.73,-1142.9"/>
</g>
<!-- AS6453&#45;&gt;AS6461 -->
<g id="edge71" class="edge"><title>AS6453&#45;&gt;AS6461</title>
<path fill="none" stroke="black" d="M650.055,-1554.98C653.707,-1601.91 668.848,-1730.32 728.155,-1815 767.302,-1870.89 795.357,-1867.77 852.547,-1905 959.806,-1974.82 980.196,-2008.71 1101.33,-2050 1150.24,-2066.67 1165.06,-2061.66 1216.62,-2065 1255.83,-2067.54 1270.64,-2084.02 1305.02,-2065 1339.99,-2045.65 1360.77,-2002.31 1371.21,-1973.62"/>
<polygon fill="black" stroke="black" points="1374.65,-1974.38 1374.59,-1963.79 1368.03,-1972.11 1374.65,-1974.38"/>
</g>
<!-- AS6453&#45;&gt;AS1239 -->
<g id="edge74" class="edge"><title>AS6453&#45;&gt;AS1239</title>
<path fill="none" stroke="black" d="M652.229,-1555.13C659.996,-1594.48 682.424,-1689.44 728.155,-1755 805.498,-1865.87 856.075,-1869.44 976.939,-1930 1113.94,-1998.64 1181.76,-2127.04 1305.02,-2036 1348.78,-2003.68 1308.97,-1962.97 1341.02,-1919 1342.73,-1916.64 1344.72,-1914.42 1346.87,-1912.34"/>
<polygon fill="black" stroke="black" points="1349.23,-1914.93 1354.65,-1905.82 1344.73,-1909.56 1349.23,-1914.93"/>
</g>
<!-- AS6453&#45;&gt;AS3320 -->
<g id="edge66" class="edge"><title>AS6453&#45;&gt;AS3320</title>
<path fill="none" stroke="black" d="M667.625,-1521.36C683.155,-1508.85 706.193,-1491.4 728.155,-1479 739.312,-1472.7 930.394,-1397.28 940.939,-1390 960.083,-1376.78 960.8,-1368.76 976.939,-1352 1066.7,-1258.81 1094.57,-1240.62 1180.62,-1144 1249.96,-1066.15 1325.87,-968.537 1360.51,-923.244"/>
<polygon fill="black" stroke="black" points="1363.4,-925.23 1366.68,-915.157 1357.83,-920.984 1363.4,-925.23"/>
</g>
<!-- AS2914&#45;&gt;AS3257 -->
<g id="edge91" class="edge"><title>AS2914&#45;&gt;AS3257</title>
<path fill="none" stroke="black" stroke-width="0.9" d="M1134.39,-1063.82C1122.73,-1094.34 1094.43,-1156.62 1065.33,-1206 885.682,-1510.87 626.455,-1853.57 550.676,-1946.7"/>
<polygon fill="black" stroke="black" stroke-width="0.9" points="547.961,-1944.49 544.323,-1954.44 553.372,-1948.93 547.961,-1944.49"/>
</g>
<!-- AS2914&#45;&gt;AS3356 -->
<g id="edge81" class="edge"><title>AS2914&#45;&gt;AS3356</title>
<path fill="none" stroke="black" stroke-width="4.5" d="M1146.25,-1028.02C1154.46,-997.506 1175.38,-935.726 1216.62,-903 1288.41,-846.041 1346.73,-816.374 1420.31,-871 1455.95,-897.46 1481.14,-1030.96 1490.7,-1089.93"/>
<polygon fill="black" stroke="black" stroke-width="4.5" points="1486.85,-1090.77 1492.31,-1100.03 1494.63,-1089.54 1486.85,-1090.77"/>
</g>
<!-- AS2914&#45;&gt;AS1273 -->
<g id="edge88" class="edge"><title>AS2914&#45;&gt;AS1273</title>
<path fill="none" stroke="black" stroke-width="0.9" d="M1103.55,-1052.14C1034.44,-1064.5 888.015,-1094.24 852.547,-1130 811.23,-1171.65 848.847,-1208.02 816.547,-1257 813.211,-1262.06 808.913,-1266.74 804.326,-1270.93"/>
<polygon fill="black" stroke="black" stroke-width="0.9" points="801.897,-1268.4 796.452,-1277.48 806.376,-1273.77 801.897,-1268.4"/>
</g>
<!-- AS2914&#45;&gt;AS3491 -->
<g id="edge86" class="edge"><title>AS2914&#45;&gt;AS3491</title>
<path fill="none" stroke="black" stroke-width="1.8" d="M1142.84,-1064.31C1145.79,-1111.75 1158.86,-1239.36 1216.62,-1325 1221.32,-1331.96 1228.05,-1337.99 1234.81,-1343.26"/>
<polygon fill="black" stroke="black" stroke-width="1.8" points="1233.13,-1346.37 1243.23,-1349.55 1237.32,-1340.76 1233.13,-1346.37"/>
</g>
<!-- AS2914&#45;&gt;AS701 -->
<g id="edge84" class="edge"><title>AS2914&#45;&gt;AS701</title>
<path fill="none" stroke="black" stroke-width="1.8" d="M1178.06,-1052.69C1220.07,-1061.11 1286.12,-1076.46 1305.02,-1093 1327.47,-1112.65 1356.49,-1192.81 1370.84,-1235.66"/>
<polygon fill="black" stroke="black" stroke-width="1.8" points="1367.53,-1236.81 1373.99,-1245.2 1374.17,-1234.61 1367.53,-1236.81"/>
</g>
<!-- AS2914&#45;&gt;AS12956 -->
<g id="edge92" class="edge"><title>AS2914&#45;&gt;AS12956</title>
<path fill="none" stroke="black" stroke-width="0.9" d="M1143.7,-1064.1C1151.22,-1142.74 1182.42,-1462.45 1216.62,-1724 1228.98,-1818.51 1246.86,-1930.13 1255.21,-1981.1"/>
<polygon fill="black" stroke="black" stroke-width="0.9" points="1251.76,-1981.73 1256.84,-1991.03 1258.67,-1980.59 1251.76,-1981.73"/>
</g>
<!-- AS2914&#45;&gt;AS174 -->
<g id="edge85" class="edge"><title>AS2914&#45;&gt;AS174</title>
<path fill="none" stroke="black" stroke-width="1.8" d="M1137.4,-1064.24C1122.5,-1163.19 1047.18,-1633.82 1027.08,-1754.06"/>
<polygon fill="black" stroke="black" stroke-width="1.8" points="1023.62,-1753.53 1025.41,-1763.97 1030.52,-1754.69 1023.62,-1753.53"/>
</g>
<!-- AS2914&#45;&gt;AS2497 -->
<g id="edge87" class="edge"><title>AS2914&#45;&gt;AS2497</title>
<path fill="none" stroke="black" stroke-width="1.8" d="M1144.11,-1027.91C1150.2,-980.489 1170.31,-849.483 1216.62,-751 1254.16,-671.18 1321.91,-590.951 1357.09,-552.099"/>
<polygon fill="black" stroke="black" stroke-width="1.8" points="1359.92,-554.194 1364.08,-544.451 1354.75,-549.471 1359.92,-554.194"/>
</g>
<!-- AS2914&#45;&gt;AS7018 -->
<g id="edge82" class="edge"><title>AS2914&#45;&gt;AS7018</title>
<path fill="none" stroke="black" stroke-width="0.9" d="M1142.56,-1064.04C1144.92,-1108.64 1156.81,-1225.57 1216.62,-1296 1244.9,-1329.3 1272.05,-1310.33 1305.02,-1339 1332.24,-1362.68 1353.92,-1398.5 1366.75,-1423.01"/>
<polygon fill="black" stroke="black" stroke-width="0.9" points="1363.73,-1424.79 1371.39,-1432.11 1369.97,-1421.61 1363.73,-1424.79"/>
</g>
<!-- AS2914&#45;&gt;AS6762 -->
<g id="edge83" class="edge"><title>AS2914&#45;&gt;AS6762</title>
<path fill="none" stroke="black" stroke-width="2.7" d="M1179.68,-1041.47C1213.68,-1038.9 1264.44,-1038.89 1305.02,-1055 1325.76,-1063.24 1344.91,-1079.66 1358.61,-1093.67"/>
<polygon fill="black" stroke="black" stroke-width="2.7" points="1356.24,-1096.26 1365.65,-1101.14 1361.34,-1091.46 1356.24,-1096.26"/>
</g>
<!-- AS2914&#45;&gt;AS6461 -->
<g id="edge90" class="edge"><title>AS2914&#45;&gt;AS6461</title>
<path fill="none" stroke="black" stroke-width="0.9" d="M1145.73,-1064.09C1156.46,-1115.59 1188.26,-1267.37 1216.62,-1393 1269.53,-1627.33 1206.05,-1720.27 1341.02,-1919 1342.65,-1921.41 1344.59,-1923.68 1346.7,-1925.79"/>
<polygon fill="black" stroke="black" stroke-width="0.9" points="1344.52,-1928.53 1354.4,-1932.36 1349.06,-1923.2 1344.52,-1928.53"/>
</g>
<!-- AS2914&#45;&gt;AS3320 -->
<g id="edge89" class="edge"><title>AS2914&#45;&gt;AS3320</title>
<path fill="none" stroke="black" stroke-width="0.9" d="M1149.81,-1028.21C1161.11,-1004.63 1184.25,-963.4 1216.62,-941 1250.55,-917.526 1296.53,-906.866 1331.01,-902.025"/>
<polygon fill="black" stroke="black" stroke-width="0.9" points="1331.84,-905.447 1341.32,-900.702 1330.95,-898.504 1331.84,-905.447"/>
</g>
<!-- AS3491&#45;&gt;AS3257 -->
<g id="edge102" class="edge"><title>AS3491&#45;&gt;AS3257</title>
<path fill="none" stroke="black" d="M1256.72,-1383.91C1243.47,-1449.46 1186.74,-1677.58 1065.33,-1818 946.128,-1955.87 873.294,-1967.87 692.155,-1988 650.6,-1992.62 602.793,-1989.26 569.741,-1983.86"/>
<polygon fill="black" stroke="black" points="570.014,-1980.35 559.554,-1982.04 568.784,-1987.24 570.014,-1980.35"/>
</g>
<!-- AS3491&#45;&gt;AS3356 -->
<g id="edge97" class="edge"><title>AS3491&#45;&gt;AS3356</title>
<path fill="none" stroke="black" stroke-width="3" d="M1295.71,-1357.38C1330.99,-1346.84 1385.81,-1325.83 1420.31,-1290 1459.97,-1248.81 1480.35,-1183.17 1489.23,-1146.02"/>
<polygon fill="black" stroke="black" stroke-width="3" points="1492.73,-1146.43 1491.54,-1135.9 1485.9,-1144.88 1492.73,-1146.43"/>
</g>
<!-- AS3491&#45;&gt;AS6453 -->
<g id="edge101" class="edge"><title>AS3491&#45;&gt;AS6453</title>
<path fill="none" stroke="black" d="M1239.6,-1381.46C1193.55,-1410.47 1083.47,-1468.95 1065.33,-1475 936.509,-1517.96 776.182,-1535.92 697.341,-1539.16"/>
<polygon fill="black" stroke="black" points="697.098,-1535.67 687.224,-1539.51 697.339,-1542.66 697.098,-1535.67"/>
</g>
<!-- AS3491&#45;&gt;AS2914 -->
<g id="edge107" class="edge"><title>AS3491&#45;&gt;AS2914</title>
<path fill="none" stroke="black" d="M1228.14,-1355.5C1223.79,-1351.87 1219.76,-1347.64 1216.62,-1343 1159.08,-1257.69 1145.89,-1130.75 1142.87,-1074.39"/>
<polygon fill="black" stroke="black" points="1146.36,-1073.92 1142.39,-1064.09 1139.36,-1074.24 1146.36,-1073.92"/>
</g>
<!-- AS3491&#45;&gt;AS701 -->
<g id="edge105" class="edge"><title>AS3491&#45;&gt;AS701</title>
<path fill="none" stroke="black" d="M1279.97,-1350.13C1299.87,-1332.74 1331.93,-1304.72 1354.3,-1285.17"/>
<polygon fill="black" stroke="black" points="1356.84,-1287.6 1362.07,-1278.38 1352.23,-1282.33 1356.84,-1287.6"/>
</g>
<!-- AS3491&#45;&gt;AS1299 -->
<g id="edge108" class="edge"><title>AS3491&#45;&gt;AS1299</title>
<path fill="none" stroke="black" d="M1240.39,-1350.42C1232.93,-1344.39 1224.35,-1337.41 1216.62,-1331 1107.08,-1240.09 978.412,-1129.58 924.072,-1082.74"/>
<polygon fill="black" stroke="black" points="926.162,-1079.92 916.304,-1076.04 921.59,-1085.22 926.162,-1079.92"/>
</g>
<!-- AS3491&#45;&gt;AS174 -->
<g id="edge106" class="edge"><title>AS3491&#45;&gt;AS174</title>
<path fill="none" stroke="black" d="M1252.24,-1383.63C1226.6,-1436.07 1140.55,-1593.36 1065.33,-1721 1058.18,-1733.14 1050.13,-1746.31 1042.93,-1757.41"/>
<polygon fill="black" stroke="black" points="1039.97,-1755.53 1037.37,-1765.8 1045.81,-1759.4 1039.97,-1755.53"/>
</g>
<!-- AS3491&#45;&gt;AS2497 -->
<g id="edge99" class="edge"><title>AS3491&#45;&gt;AS2497</title>
<path fill="none" stroke="black" d="M1264.39,-1347.72C1279.55,-1239.93 1357.22,-687.586 1375.71,-556.113"/>
<polygon fill="black" stroke="black" points="1379.2,-556.431 1377.13,-546.041 1372.27,-555.457 1379.2,-556.431"/>
</g>
<!-- AS3491&#45;&gt;AS7018 -->
<g id="edge96" class="edge"><title>AS3491&#45;&gt;AS7018</title>
<path fill="none" stroke="black" d="M1282.89,-1381.02C1301.62,-1394.37 1329.21,-1414.04 1350.15,-1428.96"/>
<polygon fill="black" stroke="black" points="1348.21,-1431.87 1358.38,-1434.83 1352.27,-1426.17 1348.21,-1431.87"/>
</g>
<!-- AS3491&#45;&gt;AS6762 -->
<g id="edge104" class="edge"><title>AS3491&#45;&gt;AS6762</title>
<path fill="none" stroke="black" d="M1270.3,-1348.16C1290.72,-1305.18 1342.77,-1195.65 1366.95,-1144.75"/>
<polygon fill="black" stroke="black" points="1370.13,-1146.21 1371.26,-1135.67 1363.81,-1143.2 1370.13,-1146.21"/>
</g>
<!-- AS3491&#45;&gt;AS6461 -->
<g id="edge98" class="edge"><title>AS3491&#45;&gt;AS6461</title>
<path fill="none" stroke="black" d="M1264.2,-1383.98C1276.61,-1477.78 1333.77,-1907.23 1341.02,-1919 1342.54,-1921.48 1344.4,-1923.8 1346.45,-1925.94"/>
<polygon fill="black" stroke="black" points="1344.21,-1928.64 1354.05,-1932.58 1348.82,-1923.37 1344.21,-1928.64"/>
</g>
<!-- AS3491&#45;&gt;AS1239 -->
<g id="edge103" class="edge"><title>AS3491&#45;&gt;AS1239</title>
<path fill="none" stroke="black" d="M1265.88,-1384.11C1283.33,-1462.03 1352.15,-1769.18 1373.39,-1863.98"/>
<polygon fill="black" stroke="black" points="1370.02,-1864.98 1375.62,-1873.97 1376.85,-1863.45 1370.02,-1864.98"/>
</g>
<!-- AS3491&#45;&gt;AS3320 -->
<g id="edge100" class="edge"><title>AS3491&#45;&gt;AS3320</title>
<path fill="none" stroke="black" d="M1266.37,-1347.94C1284.38,-1276.42 1350.77,-1012.74 1372.63,-925.919"/>
<polygon fill="black" stroke="black" points="1376.08,-926.558 1375.13,-916.006 1369.29,-924.848 1376.08,-926.558"/>
</g>
<!-- AS1299&#45;&gt;AS3257 -->
<g id="edge52" class="edge"><title>AS1299&#45;&gt;AS3257</title>
<path fill="none" stroke="black" stroke-width="3.75" d="M878.171,-1076.04C869.828,-1081.22 860.063,-1087.07 852.547,-1094 831.883,-1113.06 835.99,-1125.7 816.547,-1146 782.448,-1181.6 758.15,-1173.88 728.155,-1213 638.824,-1329.5 643.39,-1377.64 603.762,-1519 559.736,-1676.05 538.808,-1870.95 531.863,-1942.87"/>
<polygon fill="black" stroke="black" stroke-width="3.75" points="528.367,-1942.66 530.903,-1952.95 535.335,-1943.32 528.367,-1942.66"/>
</g>
<!-- AS1299&#45;&gt;AS3356 -->
<g id="edge50" class="edge"><title>AS1299&#45;&gt;AS3356</title>
<path fill="none" stroke="black" stroke-width="3" d="M899.316,-1042.01C907.057,-955.329 942.124,-583.286 976.939,-546 1112.11,-401.231 1272.08,-369.626 1420.31,-501 1465.04,-540.649 1488.26,-973.984 1493.7,-1089.72"/>
<polygon fill="black" stroke="black" stroke-width="3" points="1490.21,-1090.08 1494.17,-1099.91 1497.2,-1089.76 1490.21,-1090.08"/>
</g>
<!-- AS1299&#45;&gt;AS209 -->
<g id="edge57" class="edge"><title>AS1299&#45;&gt;AS209</title>
<path fill="none" stroke="black" stroke-width="0.75" d="M903.119,-1077.79C913.817,-1111.52 939.966,-1186.3 976.939,-1241 1175.39,-1534.63 1365.59,-1499.04 1535.6,-1810 1590.56,-1910.53 1605.14,-2049.69 1608.94,-2108.72"/>
<polygon fill="black" stroke="black" stroke-width="0.75" points="1605.45,-2109 1609.53,-2118.78 1612.43,-2108.59 1605.45,-2109"/>
</g>
<!-- AS1299&#45;&gt;AS6453 -->
<g id="edge53" class="edge"><title>AS1299&#45;&gt;AS6453</title>
<path fill="none" stroke="black" stroke-width="3" d="M879.789,-1076.28C870.646,-1083.04 859.617,-1091.14 852.547,-1101 822.077,-1143.49 847.724,-1171.03 816.547,-1213 788.085,-1251.32 756.084,-1235.29 728.155,-1274 674.823,-1347.91 657.204,-1457.35 651.54,-1508.73"/>
<polygon fill="black" stroke="black" stroke-width="3" points="648.048,-1508.48 650.504,-1518.78 655.011,-1509.2 648.048,-1508.48"/>
</g>
<!-- AS1299&#45;&gt;AS701 -->
<g id="edge58" class="edge"><title>AS1299&#45;&gt;AS701</title>
<path fill="none" stroke="black" stroke-width="0.75" d="M926.968,-1071.95C993.993,-1099.42 1163.87,-1169.35 1305.02,-1230 1317.75,-1235.47 1331.66,-1241.58 1343.98,-1247.04"/>
<polygon fill="black" stroke="black" stroke-width="0.75" points="1342.91,-1250.4 1353.47,-1251.26 1345.75,-1244 1342.91,-1250.4"/>
</g>
<!-- AS1299&#45;&gt;AS174 -->
<g id="edge51" class="edge"><title>AS1299&#45;&gt;AS174</title>
<path fill="none" stroke="black" stroke-width="4.5" d="M900.261,-1077.97C908.904,-1145.66 938.929,-1389.61 976.939,-1589 988.172,-1647.92 1005.39,-1716.52 1014.32,-1754.21"/>
<polygon fill="black" stroke="black" stroke-width="4.5" points="1010.49,-1755.14 1016.6,-1763.98 1018.16,-1753.35 1010.49,-1755.14"/>
</g>
<!-- AS1299&#45;&gt;AS2497 -->
<g id="edge59" class="edge"><title>AS1299&#45;&gt;AS2497</title>
<path fill="none" stroke="black" stroke-width="0.75" d="M898.812,-1042C903.509,-968.311 924.473,-690.374 976.939,-623 1048.84,-530.669 1102.25,-538.784 1216.62,-514 1256.51,-505.357 1302.96,-510.821 1336.06,-517.282"/>
<polygon fill="black" stroke="black" stroke-width="0.75" points="1335.38,-520.715 1345.88,-519.305 1336.79,-513.859 1335.38,-520.715"/>
</g>
<!-- AS1299&#45;&gt;AS7018 -->
<g id="edge56" class="edge"><title>AS1299&#45;&gt;AS7018</title>
<path fill="none" stroke="black" stroke-width="3" d="M907.531,-1077.36C921.402,-1101.25 948.296,-1145.04 976.939,-1178 1070.8,-1286.02 1093.42,-1320.19 1216.62,-1393 1253.82,-1414.98 1300.8,-1430.28 1334.76,-1439.45"/>
<polygon fill="black" stroke="black" stroke-width="3" points="1334.3,-1442.94 1344.86,-1442.1 1336.07,-1436.17 1334.3,-1442.94"/>
</g>
<!-- AS1299&#45;&gt;AS6762 -->
<g id="edge55" class="edge"><title>AS1299&#45;&gt;AS6762</title>
<path fill="none" stroke="black" stroke-width="2.25" d="M927.568,-1048.46C998.047,-1023.19 1178.45,-970.312 1305.02,-1037 1329.26,-1049.78 1349.75,-1073.63 1363.1,-1092.16"/>
<polygon fill="black" stroke="black" stroke-width="2.25" points="1360.31,-1094.27 1368.89,-1100.49 1366.06,-1090.28 1360.31,-1094.27"/>
</g>
<!-- AS1299&#45;&gt;AS1239 -->
<g id="edge54" class="edge"><title>AS1299&#45;&gt;AS1239</title>
<path fill="none" stroke="black" stroke-width="0.75" d="M900.743,-1077.92C907.865,-1120.54 926.291,-1231.34 940.939,-1324 957.506,-1428.8 924.554,-1467.73 976.939,-1560 1066.57,-1717.88 1262.58,-1831.99 1343.56,-1874.14"/>
<polygon fill="black" stroke="black" stroke-width="0.75" points="1342.35,-1877.46 1352.85,-1878.92 1345.56,-1871.23 1342.35,-1877.46"/>
</g>
<!-- AS174&#45;&gt;AS3257 -->
<g id="edge115" class="edge"><title>AS174&#45;&gt;AS3257</title>
<path fill="none" stroke="black" stroke-width="2" d="M1011.83,-1799.49C998.765,-1820.27 971.725,-1853.18 940.939,-1871 821.936,-1939.86 658.597,-1966.19 578.069,-1972"/>
<polygon fill="black" stroke="black" stroke-width="2" points="577.492,-1968.53 567.735,-1972.66 577.938,-1975.52 577.492,-1968.53"/>
</g>
<!-- AS174&#45;&gt;AS3356 -->
<g id="edge122" class="edge"><title>AS174&#45;&gt;AS3356</title>
<path fill="none" stroke="black" stroke-width="3" d="M1056.15,-1784.81C1114.71,-1787.68 1234.97,-1784.73 1305.02,-1721 1480.12,-1561.68 1494.99,-1242.78 1495.34,-1146.3"/>
<polygon fill="black" stroke="black" stroke-width="3" points="1498.83,-1146.15 1495.32,-1136.15 1491.83,-1146.16 1498.83,-1146.15"/>
</g>
<!-- AS174&#45;&gt;AS6453 -->
<g id="edge117" class="edge"><title>AS174&#45;&gt;AS6453</title>
<path fill="none" stroke="black" d="M985.731,-1781.79C950.878,-1776.09 896.05,-1761.32 852.547,-1739 790.891,-1707.37 777.825,-1693.32 728.155,-1645 702.388,-1619.93 677.265,-1586.56 662.451,-1563.34"/>
<polygon fill="black" stroke="black" points="665.34,-1561.36 657.119,-1554.67 659.378,-1565.02 665.34,-1561.36"/>
</g>
<!-- AS174&#45;&gt;AS2914 -->
<g id="edge123" class="edge"><title>AS174&#45;&gt;AS2914</title>
<path fill="none" stroke="black" stroke-width="2" d="M1024.71,-1763.78C1039.6,-1664.88 1114.9,-1194.37 1135.02,-1074.01"/>
<polygon fill="black" stroke="black" stroke-width="2" points="1138.49,-1074.53 1136.69,-1064.09 1131.58,-1073.37 1138.49,-1074.53"/>
</g>
<!-- AS174&#45;&gt;AS3491 -->
<g id="edge116" class="edge"><title>AS174&#45;&gt;AS3491</title>
<path fill="none" stroke="black" d="M1029.31,-1764.33C1038,-1747.92 1053.01,-1723.92 1065.33,-1703 1133.1,-1587.99 1209.67,-1448.92 1242.92,-1391.95"/>
<polygon fill="black" stroke="black" points="1246,-1393.61 1248.06,-1383.22 1239.97,-1390.06 1246,-1393.61"/>
</g>
<!-- AS174&#45;&gt;AS701 -->
<g id="edge121" class="edge"><title>AS174&#45;&gt;AS701</title>
<path fill="none" stroke="black" d="M1045.42,-1768.54C1111.57,-1730.2 1296.42,-1622.4 1305.02,-1610 1353.24,-1540.45 1323.08,-1505.71 1341.02,-1423 1351.08,-1376.58 1364.37,-1322.99 1372.45,-1291.11"/>
<polygon fill="black" stroke="black" points="1375.91,-1291.73 1374.98,-1281.17 1369.12,-1290 1375.91,-1291.73"/>
</g>
<!-- AS174&#45;&gt;AS1299 -->
<g id="edge126" class="edge"><title>AS174&#45;&gt;AS1299</title>
<path fill="none" stroke="black" d="M1013.9,-1764.19C1004.86,-1732.42 987.999,-1665.02 976.939,-1607 939.378,-1409.97 909.614,-1169.42 900.577,-1088.15"/>
<polygon fill="black" stroke="black" points="904.053,-1087.74 899.486,-1078.18 897.095,-1088.51 904.053,-1087.74"/>
</g>
<!-- AS174&#45;&gt;AS12956 -->
<g id="edge125" class="edge"><title>AS174&#45;&gt;AS12956</title>
<path fill="none" stroke="black" d="M1029.34,-1799.64C1041.14,-1826.83 1066.74,-1879.43 1101.33,-1914 1135.96,-1948.62 1185.65,-1975.73 1220.12,-1991.98"/>
<polygon fill="black" stroke="black" points="1218.86,-1995.26 1229.41,-1996.27 1221.8,-1988.9 1218.86,-1995.26"/>
</g>
<!-- AS174&#45;&gt;AS7018 -->
<g id="edge124" class="edge"><title>AS174&#45;&gt;AS7018</title>
<path fill="none" stroke="black" d="M1053.58,-1775.1C1119.52,-1760.05 1269.09,-1722.68 1305.02,-1686 1361.76,-1628.06 1375.41,-1527.29 1378.66,-1478.32"/>
<polygon fill="black" stroke="black" points="1382.17,-1478.33 1379.24,-1468.14 1375.18,-1477.93 1382.17,-1478.33"/>
</g>
<!-- AS174&#45;&gt;AS6762 -->
<g id="edge119" class="edge"><title>AS174&#45;&gt;AS6762</title>
<path fill="none" stroke="black" d="M1044.25,-1768.29C1051.5,-1763.13 1059.26,-1756.84 1065.33,-1750 1086.74,-1725.89 1082.05,-1712.85 1101.33,-1687 1131.83,-1646.11 1149.85,-1644.69 1180.62,-1604 1246.3,-1517.18 1264.73,-1494.13 1305.02,-1393 1331.51,-1326.49 1321.86,-1304.98 1341.02,-1236 1349.71,-1204.7 1361.56,-1169.36 1369.84,-1145.58"/>
<polygon fill="black" stroke="black" points="1373.25,-1146.43 1373.26,-1135.84 1366.64,-1144.11 1373.25,-1146.43"/>
</g>
<!-- AS174&#45;&gt;AS6461 -->
<g id="edge118" class="edge"><title>AS174&#45;&gt;AS6461</title>
<path fill="none" stroke="black" d="M1033.53,-1798.96C1047.35,-1818.24 1072.42,-1849.33 1101.33,-1867 1174.51,-1911.73 1273.89,-1931.94 1331.97,-1940.43"/>
<polygon fill="black" stroke="black" points="1331.58,-1943.91 1341.97,-1941.84 1332.55,-1936.98 1331.58,-1943.91"/>
</g>
<!-- AS174&#45;&gt;AS1239 -->
<g id="edge120" class="edge"><title>AS174&#45;&gt;AS1239</title>
<path fill="none" stroke="black" d="M1040.33,-1797.25C1055.77,-1809.59 1078.93,-1826.71 1101.33,-1838 1149.51,-1862.29 1163.84,-1864.85 1216.62,-1876 1254.54,-1884.01 1298.28,-1888.02 1330.91,-1890.03"/>
<polygon fill="black" stroke="black" points="1330.9,-1893.53 1341.09,-1890.61 1331.3,-1886.54 1330.9,-1893.53"/>
</g>
<!-- AS6762&#45;&gt;AS3356 -->
<g id="edge164" class="edge"><title>AS6762&#45;&gt;AS3356</title>
<path fill="none" stroke="black" d="M1420.33,-1118C1428.54,-1118 1437.3,-1118 1445.83,-1118"/>
<polygon fill="black" stroke="black" points="1446.07,-1121.5 1456.07,-1118 1446.07,-1114.5 1446.07,-1121.5"/>
</g>
<!-- AS4755&#45;&gt;AS6453 -->
<g id="edge62" class="edge"><title>AS4755&#45;&gt;AS6453</title>
<path fill="none" stroke="black" stroke-width="4.5" d="M534.179,-1140.79C552.646,-1205.67 616.469,-1429.89 639.003,-1509.05"/>
<polygon fill="black" stroke="black" stroke-width="4.5" points="635.256,-1510.27 641.781,-1518.81 642.83,-1508.12 635.256,-1510.27"/>
</g>
<!-- AS9498&#45;&gt;AS6939 -->
<g id="edge157" class="edge"><title>AS9498&#45;&gt;AS6939</title>
<path fill="none" stroke="black" stroke-width="3" d="M415.223,-864.142C429.564,-821.693 466.475,-716.065 488.469,-686 491.146,-682.342 494.33,-678.849 497.706,-675.605"/>
<polygon fill="black" stroke="black" stroke-width="3" points="500.089,-678.171 505.28,-668.934 495.462,-672.918 500.089,-678.171"/>
</g>
<!-- AS9498&#45;&gt;AS3257 -->
<g id="edge163" class="edge"><title>AS9498&#45;&gt;AS3257</title>
<path fill="none" stroke="black" stroke-width="2" d="M414.173,-899.846C423.329,-933.964 442.963,-1010.93 452.469,-1077 486.095,-1310.69 468.002,-1371.79 488.469,-1607 499.383,-1732.42 516.549,-1881.71 523.755,-1942.81"/>
<polygon fill="black" stroke="black" stroke-width="2" points="520.291,-1943.32 524.942,-1952.84 527.242,-1942.5 520.291,-1943.32"/>
</g>
<!-- AS9498&#45;&gt;AS6453 -->
<g id="edge158" class="edge"><title>AS9498&#45;&gt;AS6453</title>
<path fill="none" stroke="black" stroke-width="2" d="M422.631,-899.083C459.086,-945.836 558.21,-1073.88 567.762,-1096 630.964,-1242.39 643.729,-1437.08 646.306,-1508.87"/>
<polygon fill="black" stroke="black" stroke-width="2" points="642.81,-1509.05 646.628,-1518.94 649.807,-1508.83 642.81,-1509.05"/>
</g>
<!-- AS9498&#45;&gt;AS2914 -->
<g id="edge160" class="edge"><title>AS9498&#45;&gt;AS2914</title>
<path fill="none" stroke="black" d="M448.151,-883.897C503.092,-887.172 606.328,-895.515 692.155,-915 765.645,-931.684 780.429,-948.132 852.547,-970 937.876,-995.875 1038.93,-1021.44 1095.63,-1035.32"/>
<polygon fill="black" stroke="black" points="1095.14,-1038.81 1105.68,-1037.78 1096.8,-1032.01 1095.14,-1038.81"/>
</g>
<!-- AS9498&#45;&gt;AS1299 -->
<g id="edge161" class="edge"><title>AS9498&#45;&gt;AS1299</title>
<path fill="none" stroke="black" stroke-width="3" d="M435.909,-895.128C472.99,-913.123 542.519,-945.852 603.762,-969 690.441,-1001.76 794.635,-1032.15 852.18,-1048.17"/>
<polygon fill="black" stroke="black" stroke-width="3" points="851.455,-1051.6 862.026,-1050.9 853.324,-1044.85 851.455,-1051.6"/>
</g>
<!-- AS9498&#45;&gt;AS2497 -->
<g id="edge162" class="edge"><title>AS9498&#45;&gt;AS2497</title>
<path fill="none" stroke="black" d="M439.935,-870.891C523.042,-840.28 758.611,-750.178 940.939,-648 957.932,-638.477 959.147,-630.931 976.939,-623 1098.29,-568.908 1254.49,-543.39 1331.86,-533.392"/>
<polygon fill="black" stroke="black" points="1332.31,-536.863 1341.79,-532.138 1331.43,-529.918 1332.31,-536.863"/>
</g>
<!-- AS9498&#45;&gt;AS6762 -->
<g id="edge159" class="edge"><title>AS9498&#45;&gt;AS6762</title>
<path fill="none" stroke="black" stroke-width="2" d="M420.872,-864.52C457.846,-810.599 579.293,-647.006 728.155,-589 764.759,-574.737 782.289,-569.772 816.547,-589 843.334,-604.035 830.652,-626.455 852.547,-648 885.035,-679.969 903.878,-673.467 940.939,-700 958.107,-712.291 959.925,-718.496 976.939,-731 1014.22,-758.4 1028.49,-758.013 1065.33,-786 1180.48,-873.463 1210.98,-896.158 1305.02,-1006 1328.36,-1033.27 1350.57,-1068.14 1364.59,-1091.67"/>
<polygon fill="black" stroke="black" stroke-width="2" points="1361.64,-1093.55 1369.73,-1100.39 1367.67,-1090 1361.64,-1093.55"/>
</g>
<!-- AS16735&#45;&gt;AS6939 -->
<g id="edge154" class="edge"><title>AS16735&#45;&gt;AS6939</title>
<path fill="none" stroke="black" stroke-width="4.5" d="M412.929,-86.1804C429.889,-170.515 500.94,-523.836 521.513,-626.137"/>
<polygon fill="black" stroke="black" stroke-width="4.5" points="517.671,-627.004 523.503,-636.032 525.391,-625.452 517.671,-627.004"/>
</g>
<!-- AS16735&#45;&gt;AS3356 -->
<g id="edge156" class="edge"><title>AS16735&#45;&gt;AS3356</title>
<path fill="none" stroke="black" stroke-width="0.45" d="M448.198,-60.0393C495.118,-51.1517 576.46,-38 646.958,-38 646.958,-38 646.958,-38 1261.82,-38 1350.71,-38 1377.98,-81.8312 1420.31,-160 1465.64,-243.724 1489.48,-939.94 1494.11,-1089.69"/>
<polygon fill="black" stroke="black" stroke-width="0.45" points="1490.62,-1090 1494.43,-1099.89 1497.62,-1089.79 1490.62,-1090"/>
</g>
<!-- AS16735&#45;&gt;AS2497 -->
<g id="edge155" class="edge"><title>AS16735&#45;&gt;AS2497</title>
<path fill="none" stroke="black" stroke-width="0.9" d="M452.197,-70.3139C499.786,-72.6766 578.833,-76 646.958,-76 646.958,-76 646.958,-76 773.351,-76 1022.96,-76 1141.13,-68.7187 1305.02,-257 1366.76,-327.941 1377.85,-445.657 1379.55,-499.516"/>
<polygon fill="black" stroke="black" stroke-width="0.9" points="1376.06,-499.785 1379.79,-509.703 1383.06,-499.625 1376.06,-499.785"/>
</g>
<!-- AS33597&#45;&gt;AS6939 -->
<g id="edge112" class="edge"><title>AS33597&#45;&gt;AS6939</title>
<path fill="none" stroke="black" stroke-width="1.8" d="M452.484,-654C460.797,-654 469.56,-654 478.042,-654"/>
<polygon fill="black" stroke="black" stroke-width="1.8" points="478.201,-657.5 488.201,-654 478.201,-650.5 478.201,-657.5"/>
</g>
<!-- AS33597&#45;&gt;AS2914 -->
<g id="edge110" class="edge"><title>AS33597&#45;&gt;AS2914</title>
<path fill="none" stroke="black" stroke-width="4.5" d="M439.508,-641.08C454.026,-635.558 471.846,-629.756 488.469,-627 523.236,-621.236 533.094,-620.669 567.762,-627 685.156,-648.438 714.995,-665.325 816.547,-728 939.193,-803.695 968.647,-829.116 1065.33,-936 1089.11,-962.291 1111.23,-996.636 1125.12,-1019.9"/>
<polygon fill="black" stroke="black" stroke-width="4.5" points="1121.74,-1021.92 1130.2,-1028.54 1128.52,-1017.92 1121.74,-1021.92"/>
</g>
<!-- AS33597&#45;&gt;AS1299 -->
<g id="edge111" class="edge"><title>AS33597&#45;&gt;AS1299</title>
<path fill="none" stroke="black" stroke-width="4.5" d="M429.133,-670.171C478.84,-710.511 612.901,-818.495 728.155,-904 766.693,-932.591 781.149,-933.602 816.547,-966 839.584,-987.084 862.163,-1014.78 877.279,-1034.64"/>
<polygon fill="black" stroke="black" stroke-width="4.5" points="874.324,-1037.26 883.477,-1042.89 880.621,-1032.53 874.324,-1037.26"/>
</g>
<!-- AS1764&#45;&gt;AS1299 -->
<g id="edge130" class="edge"><title>AS1764&#45;&gt;AS1299</title>
<path fill="none" stroke="black" stroke-width="2" d="M682.498,-1117.03C726.545,-1105.25 803.955,-1084.55 852.401,-1071.59"/>
<polygon fill="black" stroke="black" stroke-width="2" points="853.521,-1074.91 862.277,-1068.95 851.712,-1068.15 853.521,-1074.91"/>
</g>
<!-- AS4826&#45;&gt;AS6453 -->
<g id="edge165" class="edge"><title>AS4826&#45;&gt;AS6453</title>
<path fill="none" stroke="black" d="M547.271,-1449.87C566.936,-1467.06 598.484,-1494.63 620.817,-1514.15"/>
<polygon fill="black" stroke="black" points="618.756,-1517 628.589,-1520.94 623.363,-1511.73 618.756,-1517"/>
</g>
<!-- AS1221 -->
<g id="node46" class="node"><title>AS1221</title>
<g id="a_node46"><a xlink:href="/asn/1221" xlink:title="AS1221 ~ Telstra Corporation Ltd [AU]">
<ellipse fill="#ffffff" stroke="black" cx="408.273" cy="-2437" rx="39.7935" ry="18"/>
<text text-anchor="middle" x="408.273" y="-2433.3" font-family="Times,serif" font-size="14.00" fill="#2c94b3">AS1221</text>
</a>
</g>
</g>
<!-- AS17819&#45;&gt;AS1221 -->
<g id="edge166" class="edge"><title>AS17819&#45;&gt;AS1221</title>
<path fill="none" stroke="black" d="M291.636,-2128.99C311.948,-2183.09 372.569,-2344.56 396.949,-2409.5"/>
<polygon fill="black" stroke="black" points="393.748,-2410.93 400.54,-2419.06 400.301,-2408.47 393.748,-2410.93"/>
</g>
<!-- AS13237&#45;&gt;AS2914 -->
<g id="edge140" class="edge"><title>AS13237&#45;&gt;AS2914</title>
<path fill="none" stroke="black" stroke-width="4.5" d="M1051.23,-663.185C1056.69,-666.913 1061.8,-671.493 1065.33,-677 1132.4,-781.472 1069,-834.137 1101.33,-954 1107.46,-976.722 1117.97,-1001.23 1126.48,-1019.24"/>
<polygon fill="black" stroke="black" stroke-width="4.5" points="1123.07,-1021.23 1130.96,-1028.52 1130.16,-1017.8 1123.07,-1021.23"/>
</g>
<!-- AS4637 -->
<g id="node47" class="node"><title>AS4637</title>
<g id="a_node47"><a xlink:href="/asn/4637" xlink:title="AS4637 ~ Telstra Global [HK]">
<ellipse fill="#ffffff" stroke="black" cx="1140.98" cy="-2572" rx="39.7935" ry="18"/>
<text text-anchor="middle" x="1140.98" y="-2568.3" font-family="Times,serif" font-size="14.00" fill="#2c94b3">AS4637</text>
</a>
</g>
</g>
<!-- AS1221&#45;&gt;AS4637 -->
<g id="edge167" class="edge"><title>AS1221&#45;&gt;AS4637</title>
<path fill="none" stroke="black" d="M417.696,-2454.86C429.82,-2478.45 454.523,-2519.42 488.469,-2540 549.634,-2577.09 575.428,-2568 646.958,-2568 646.958,-2568 646.958,-2568 897.743,-2568 964.749,-2568 1042.17,-2569.55 1091.09,-2570.72"/>
<polygon fill="black" stroke="black" points="1091.3,-2574.23 1101.38,-2570.97 1091.47,-2567.23 1091.3,-2574.23"/>
</g>
<!-- AS4637&#45;&gt;AS209 -->
<g id="edge168" class="edge"><title>AS4637&#45;&gt;AS209</title>
<path fill="none" stroke="black" d="M1175.35,-2581.2C1250.37,-2599.65 1433.69,-2632.01 1535.6,-2540 1591.33,-2489.69 1605.9,-2248.48 1609.31,-2165.29"/>
<polygon fill="black" stroke="black" points="1612.81,-2165.19 1609.7,-2155.07 1605.82,-2164.92 1612.81,-2165.19"/>
</g>
</g>
</svg>
