<?xml version="1.0" encoding="UTF-8" standalone="no"?>
<!DOCTYPE svg PUBLIC "-//W3C//DTD SVG 1.1//EN"
 "http://www.w3.org/Graphics/SVG/1.1/DTD/svg11.dtd">
<!-- Generated by graphviz version 2.38.0 (20140413.2041)
 -->
<!-- Title: AS197999 IPv4 Upstream Graph Pages: 1 -->
<svg width="831pt" height="584pt"
 viewBox="0.00 0.00 831.05 584.00" xmlns="http://www.w3.org/2000/svg" xmlns:xlink="http://www.w3.org/1999/xlink">
<g id="graph0" class="graph" transform="scale(1 1) rotate(0) translate(4 580)">
<title>AS197999 IPv4 Upstream Graph</title>
<polygon fill="white" stroke="none" points="-4,4 -4,-580 827.046,-580 827.046,4 -4,4"/>
<!-- AS197999 -->
<g id="node1" class="node"><title>AS197999</title>
<g id="a_node1"><a xlink:href="/asn/197999" xlink:title="AS197999 ~ Michael Gamsjaeger PE [AT]">
<ellipse fill="#ffffff" stroke="black" cx="48.0957" cy="-288" rx="48.1917" ry="18"/>
<text text-anchor="middle" x="48.0957" y="-284.3" font-family="Times,serif" font-size="14.00" fill="#880000">AS197999</text>
</a>
</g>
</g>
<!-- AS42871 -->
<g id="node2" class="node"><title>AS42871</title>
<g id="a_node2"><a xlink:href="/asn/42871" xlink:title="AS42871 ~ Michael Gamsjaeger AS [AT]">
<ellipse fill="#ffffff" stroke="black" cx="176.388" cy="-288" rx="44.393" ry="18"/>
<text text-anchor="middle" x="176.388" y="-284.3" font-family="Times,serif" font-size="14.00" fill="#2c94b3">AS42871</text>
</a>
</g>
</g>
<!-- AS197999&#45;&gt;AS42871 -->
<g id="edge1" class="edge"><title>AS197999&#45;&gt;AS42871</title>
<path fill="none" stroke="black" stroke-width="4.5" d="M96.4815,-288C104.742,-288 113.386,-288 121.799,-288"/>
<polygon fill="black" stroke="black" stroke-width="4.5" points="121.904,-291.938 131.904,-288 121.904,-284.063 121.904,-291.938"/>
</g>
<!-- AS204560 -->
<g id="node3" class="node"><title>AS204560</title>
<g id="a_node3"><a xlink:href="/asn/204560" xlink:title="AS204560 ~ Lenzeder Gesellschaft m.b.H &amp; Co KG [AU]">
<ellipse fill="#ffffff" stroke="black" cx="304.679" cy="-369" rx="48.1917" ry="18"/>
<text text-anchor="middle" x="304.679" y="-365.3" font-family="Times,serif" font-size="14.00" fill="#2c94b3">AS204560</text>
</a>
</g>
</g>
<!-- AS42871&#45;&gt;AS204560 -->
<g id="edge2" class="edge"><title>AS42871&#45;&gt;AS204560</title>
<path fill="none" stroke="black" stroke-width="1.125" d="M200.846,-303.046C220.532,-315.672 248.873,-333.849 270.819,-347.924"/>
<polygon fill="black" stroke="black" stroke-width="1.125" points="269.18,-351.031 279.487,-353.483 272.959,-345.139 269.18,-351.031"/>
</g>
<!-- AS33891 -->
<g id="node4" class="node"><title>AS33891</title>
<g id="a_node4"><a xlink:href="/asn/33891" xlink:title="AS33891 ~ CORE&#45;BACKBONE GMBH GLOBAL NETWORK [DE]">
<ellipse fill="#ffffff" stroke="black" cx="304.679" cy="-207" rx="44.393" ry="18"/>
<text text-anchor="middle" x="304.679" y="-203.3" font-family="Times,serif" font-size="14.00" fill="#2c94b3">AS33891</text>
</a>
</g>
</g>
<!-- AS42871&#45;&gt;AS33891 -->
<g id="edge3" class="edge"><title>AS42871&#45;&gt;AS33891</title>
<path fill="none" stroke="black" stroke-width="4.5" d="M200.846,-272.954C220.658,-260.248 249.235,-241.919 271.238,-227.807"/>
<polygon fill="black" stroke="black" stroke-width="4.5" points="273.626,-230.953 279.918,-222.24 269.375,-224.324 273.626,-230.953"/>
</g>
<!-- AS21013 -->
<g id="node5" class="node"><title>AS21013</title>
<g id="a_node5"><a xlink:href="/asn/21013" xlink:title="AS21013 ~ Wels, AT [AT]">
<ellipse fill="#ffffff" stroke="black" cx="432.971" cy="-477" rx="44.393" ry="18"/>
<text text-anchor="middle" x="432.971" y="-473.3" font-family="Times,serif" font-size="14.00" fill="#2c94b3">AS21013</text>
</a>
</g>
</g>
<!-- AS204560&#45;&gt;AS21013 -->
<g id="edge4" class="edge"><title>AS204560&#45;&gt;AS21013</title>
<path fill="none" stroke="black" stroke-width="3" d="M324.86,-385.403C346.311,-403.746 381.198,-433.581 405.299,-454.191"/>
<polygon fill="black" stroke="black" stroke-width="3" points="403.149,-456.957 413.023,-460.797 407.698,-451.637 403.149,-456.957"/>
</g>
<!-- AS1299 -->
<g id="node11" class="node"><title>AS1299</title>
<g id="a_node11"><a xlink:href="/asn/1299" xlink:title="AS1299 ~ Telia Carrier [EU]">
<ellipse fill="#ffffff" stroke="black" cx="432.971" cy="-342" rx="39.7935" ry="18"/>
<text text-anchor="middle" x="432.971" y="-338.3" font-family="Times,serif" font-size="14.00" fill="#2c94b3">AS1299</text>
</a>
</g>
</g>
<!-- AS33891&#45;&gt;AS1299 -->
<g id="edge10" class="edge"><title>AS33891&#45;&gt;AS1299</title>
<path fill="none" stroke="black" stroke-width="2.25" d="M321.419,-223.825C343.566,-247.499 384.047,-290.771 409.397,-317.87"/>
<polygon fill="black" stroke="black" stroke-width="2.25" points="407.042,-320.476 416.43,-325.387 412.154,-315.693 407.042,-320.476"/>
</g>
<!-- AS3356 -->
<g id="node12" class="node"><title>AS3356</title>
<g id="a_node12"><a xlink:href="/asn/3356" xlink:title="AS3356 ~ Level 3 Parent, LLC [US]">
<ellipse fill="#ffffff" stroke="black" cx="432.971" cy="-207" rx="39.7935" ry="18"/>
<text text-anchor="middle" x="432.971" y="-203.3" font-family="Times,serif" font-size="14.00" fill="#2c94b3">AS3356</text>
</a>
</g>
</g>
<!-- AS33891&#45;&gt;AS3356 -->
<g id="edge11" class="edge"><title>AS33891&#45;&gt;AS3356</title>
<path fill="none" stroke="black" stroke-width="4.5" d="M349.142,-207C360.067,-207 371.867,-207 383.039,-207"/>
<polygon fill="black" stroke="black" stroke-width="4.5" points="383.081,-210.938 393.081,-207 383.081,-203.063 383.081,-210.938"/>
</g>
<!-- AS3257 -->
<g id="node13" class="node"><title>AS3257</title>
<g id="a_node13"><a xlink:href="/asn/3257" xlink:title="AS3257 ~ GTT [DE]">
<ellipse fill="#ffffff" stroke="black" cx="432.971" cy="-153" rx="39.7935" ry="18"/>
<text text-anchor="middle" x="432.971" y="-149.3" font-family="Times,serif" font-size="14.00" fill="#2c94b3">AS3257</text>
</a>
</g>
</g>
<!-- AS33891&#45;&gt;AS3257 -->
<g id="edge12" class="edge"><title>AS33891&#45;&gt;AS3257</title>
<path fill="none" stroke="black" stroke-width="0.75" d="M335.929,-194.066C353.329,-186.626 375.352,-177.209 393.918,-169.271"/>
<polygon fill="black" stroke="black" stroke-width="0.75" points="395.45,-172.422 403.269,-165.272 392.698,-165.986 395.45,-172.422"/>
</g>
<!-- AS6762 -->
<g id="node14" class="node"><title>AS6762</title>
<g id="a_node14"><a xlink:href="/asn/6762" xlink:title="AS6762 ~ TELECOM ITALIA SPARKLE S.p.A. [IT]">
<ellipse fill="#ffffff" stroke="black" cx="432.971" cy="-72" rx="39.7935" ry="18"/>
<text text-anchor="middle" x="432.971" y="-68.3" font-family="Times,serif" font-size="14.00" fill="#2c94b3">AS6762</text>
</a>
</g>
</g>
<!-- AS33891&#45;&gt;AS6762 -->
<g id="edge13" class="edge"><title>AS33891&#45;&gt;AS6762</title>
<path fill="none" stroke="black" stroke-width="1.5" d="M321.419,-190.175C343.566,-166.501 384.047,-123.229 409.397,-96.1304"/>
<polygon fill="black" stroke="black" stroke-width="1.5" points="412.154,-98.3066 416.43,-88.6128 407.042,-93.5245 412.154,-98.3066"/>
</g>
<!-- AS1764 -->
<g id="node6" class="node"><title>AS1764</title>
<g id="a_node6"><a xlink:href="/asn/1764" xlink:title="AS1764 ~ NEXTLAYER&#45;AS [AT]">
<ellipse fill="#ffffff" stroke="black" cx="552.814" cy="-558" rx="39.7935" ry="18"/>
<text text-anchor="middle" x="552.814" y="-554.3" font-family="Times,serif" font-size="14.00" fill="#2c94b3">AS1764</text>
</a>
</g>
</g>
<!-- AS21013&#45;&gt;AS1764 -->
<g id="edge5" class="edge"><title>AS21013&#45;&gt;AS1764</title>
<path fill="none" stroke="black" d="M456.414,-492.426C474.995,-505.198 501.556,-523.455 521.936,-537.463"/>
<polygon fill="black" stroke="black" points="520.026,-540.398 530.25,-543.178 523.992,-534.629 520.026,-540.398"/>
</g>
<!-- AS2914 -->
<g id="node7" class="node"><title>AS2914</title>
<g id="a_node7"><a xlink:href="/asn/2914" xlink:title="AS2914 ~ NTT America, Inc. [US]">
<ellipse fill="#ffffff" stroke="black" cx="552.814" cy="-504" rx="39.7935" ry="18"/>
<text text-anchor="middle" x="552.814" y="-500.3" font-family="Times,serif" font-size="14.00" fill="#2c94b3">AS2914</text>
</a>
</g>
</g>
<!-- AS21013&#45;&gt;AS2914 -->
<g id="edge6" class="edge"><title>AS21013&#45;&gt;AS2914</title>
<path fill="none" stroke="black" d="M471.906,-485.692C483.146,-488.267 495.559,-491.111 507.182,-493.774"/>
<polygon fill="black" stroke="black" points="506.615,-497.235 517.144,-496.057 508.178,-490.412 506.615,-497.235"/>
</g>
<!-- AS174 -->
<g id="node8" class="node"><title>AS174</title>
<g id="a_node8"><a xlink:href="/asn/174" xlink:title="AS174 ~ Cogent Communications [US]">
<ellipse fill="#ffffff" stroke="black" cx="552.814" cy="-450" rx="35.194" ry="18"/>
<text text-anchor="middle" x="552.814" y="-446.3" font-family="Times,serif" font-size="14.00" fill="#2c94b3">AS174</text>
</a>
</g>
</g>
<!-- AS21013&#45;&gt;AS174 -->
<g id="edge7" class="edge"><title>AS21013&#45;&gt;AS174</title>
<path fill="none" stroke="black" d="M471.906,-468.308C484.223,-465.486 497.948,-462.342 510.498,-459.466"/>
<polygon fill="black" stroke="black" points="511.297,-462.874 520.263,-457.229 509.734,-456.051 511.297,-462.874"/>
</g>
<!-- AS8218 -->
<g id="node9" class="node"><title>AS8218</title>
<g id="a_node9"><a xlink:href="/asn/8218" xlink:title="AS8218 ~ legacy Neotelecoms [FR]">
<ellipse fill="#ffffff" stroke="black" cx="668.107" cy="-558" rx="39.7935" ry="18"/>
<text text-anchor="middle" x="668.107" y="-554.3" font-family="Times,serif" font-size="14.00" fill="#2c94b3">AS8218</text>
</a>
</g>
</g>
<!-- AS1764&#45;&gt;AS8218 -->
<g id="edge8" class="edge"><title>AS1764&#45;&gt;AS8218</title>
<path fill="none" stroke="black" d="M592.486,-558C600.689,-558 609.453,-558 617.985,-558"/>
<polygon fill="black" stroke="black" points="618.224,-561.5 628.224,-558 618.224,-554.5 618.224,-561.5"/>
</g>
<!-- AS6461 -->
<g id="node10" class="node"><title>AS6461</title>
<g id="a_node10"><a xlink:href="/asn/6461" xlink:title="AS6461 ~ Zayo Bandwidth [US]">
<ellipse fill="#ffffff" stroke="black" cx="783.4" cy="-558" rx="39.7935" ry="18"/>
<text text-anchor="middle" x="783.4" y="-554.3" font-family="Times,serif" font-size="14.00" fill="#2c94b3">AS6461</text>
</a>
</g>
</g>
<!-- AS8218&#45;&gt;AS6461 -->
<g id="edge9" class="edge"><title>AS8218&#45;&gt;AS6461</title>
<path fill="none" stroke="black" d="M707.779,-558C715.982,-558 724.746,-558 733.278,-558"/>
<polygon fill="black" stroke="black" points="733.517,-561.5 743.517,-558 733.517,-554.5 733.517,-561.5"/>
</g>
<!-- AS1239 -->
<g id="node15" class="node"><title>AS1239</title>
<g id="a_node15"><a xlink:href="/asn/1239" xlink:title="AS1239 ~ Sprint [US]">
<ellipse fill="#ffffff" stroke="black" cx="552.814" cy="-396" rx="39.7935" ry="18"/>
<text text-anchor="middle" x="552.814" y="-392.3" font-family="Times,serif" font-size="14.00" fill="#2c94b3">AS1239</text>
</a>
</g>
</g>
<!-- AS1299&#45;&gt;AS1239 -->
<g id="edge14" class="edge"><title>AS1299&#45;&gt;AS1239</title>
<path fill="none" stroke="black" d="M461.6,-354.661C477.557,-361.973 497.828,-371.261 515.11,-379.181"/>
<polygon fill="black" stroke="black" points="513.809,-382.435 524.358,-383.419 516.725,-376.071 513.809,-382.435"/>
</g>
<!-- AS7018 -->
<g id="node16" class="node"><title>AS7018</title>
<g id="a_node16"><a xlink:href="/asn/7018" xlink:title="AS7018 ~ AT&amp;T Services, Inc. [US]">
<ellipse fill="#ffffff" stroke="black" cx="552.814" cy="-342" rx="39.7935" ry="18"/>
<text text-anchor="middle" x="552.814" y="-338.3" font-family="Times,serif" font-size="14.00" fill="#2c94b3">AS7018</text>
</a>
</g>
</g>
<!-- AS1299&#45;&gt;AS7018 -->
<g id="edge15" class="edge"><title>AS1299&#45;&gt;AS7018</title>
<path fill="none" stroke="black" d="M472.884,-342C482.437,-342 492.787,-342 502.749,-342"/>
<polygon fill="black" stroke="black" points="502.942,-345.5 512.942,-342 502.942,-338.5 502.942,-345.5"/>
</g>
<!-- AS2497 -->
<g id="node17" class="node"><title>AS2497</title>
<g id="a_node17"><a xlink:href="/asn/2497" xlink:title="AS2497 ~ Internet Initiative Japan Inc. [JP]">
<ellipse fill="#ffffff" stroke="black" cx="552.814" cy="-288" rx="39.7935" ry="18"/>
<text text-anchor="middle" x="552.814" y="-284.3" font-family="Times,serif" font-size="14.00" fill="#2c94b3">AS2497</text>
</a>
</g>
</g>
<!-- AS3356&#45;&gt;AS2497 -->
<g id="edge16" class="edge"><title>AS3356&#45;&gt;AS2497</title>
<path fill="none" stroke="black" d="M455.585,-221.857C474.074,-234.565 500.888,-252.995 521.517,-267.175"/>
<polygon fill="black" stroke="black" points="519.714,-270.183 529.938,-272.963 523.679,-264.414 519.714,-270.183"/>
</g>
<!-- AS701 -->
<g id="node18" class="node"><title>AS701</title>
<g id="a_node18"><a xlink:href="/asn/701" xlink:title="AS701 ~ UUNET [US]">
<ellipse fill="#ffffff" stroke="black" cx="552.814" cy="-234" rx="35.194" ry="18"/>
<text text-anchor="middle" x="552.814" y="-230.3" font-family="Times,serif" font-size="14.00" fill="#2c94b3">AS701</text>
</a>
</g>
</g>
<!-- AS3356&#45;&gt;AS701 -->
<g id="edge17" class="edge"><title>AS3356&#45;&gt;AS701</title>
<path fill="none" stroke="black" d="M468.69,-214.955C481.783,-217.955 496.805,-221.396 510.446,-224.522"/>
<polygon fill="black" stroke="black" points="510.024,-228.016 520.553,-226.838 511.587,-221.193 510.024,-228.016"/>
</g>
<!-- AS6453 -->
<g id="node19" class="node"><title>AS6453</title>
<g id="a_node19"><a xlink:href="/asn/6453" xlink:title="AS6453 ~ TATA COMMUNICATIONS (AMERICA) INC [US]">
<ellipse fill="#ffffff" stroke="black" cx="552.814" cy="-180" rx="39.7935" ry="18"/>
<text text-anchor="middle" x="552.814" y="-176.3" font-family="Times,serif" font-size="14.00" fill="#2c94b3">AS6453</text>
</a>
</g>
</g>
<!-- AS3356&#45;&gt;AS6453 -->
<g id="edge18" class="edge"><title>AS3356&#45;&gt;AS6453</title>
<path fill="none" stroke="black" d="M468.69,-199.045C480.69,-196.296 494.311,-193.175 507.004,-190.267"/>
<polygon fill="black" stroke="black" points="507.97,-193.636 516.935,-187.991 506.406,-186.813 507.97,-193.636"/>
</g>
<!-- AS3549 -->
<g id="node20" class="node"><title>AS3549</title>
<g id="a_node20"><a xlink:href="/asn/3549" xlink:title="AS3549 ~ Level 3 Parent, LLC [US]">
<ellipse fill="#ffffff" stroke="black" cx="552.814" cy="-126" rx="39.7935" ry="18"/>
<text text-anchor="middle" x="552.814" y="-122.3" font-family="Times,serif" font-size="14.00" fill="#2c94b3">AS3549</text>
</a>
</g>
</g>
<!-- AS3356&#45;&gt;AS3549 -->
<g id="edge19" class="edge"><title>AS3356&#45;&gt;AS3549</title>
<path fill="none" stroke="black" d="M457.52,-192.784C463.962,-188.76 470.895,-184.301 477.167,-180 493.662,-168.689 496.967,-164.729 513.167,-153 515.97,-150.971 518.902,-148.875 521.842,-146.79"/>
<polygon fill="black" stroke="black" points="523.893,-149.627 530.057,-141.009 519.865,-143.903 523.893,-149.627"/>
</g>
<!-- AS209 -->
<g id="node21" class="node"><title>AS209</title>
<g id="a_node21"><a xlink:href="/asn/209" xlink:title="AS209 ~ CenturyLink Communications, LLC [US]">
<ellipse fill="#ffffff" stroke="black" cx="552.814" cy="-72" rx="35.194" ry="18"/>
<text text-anchor="middle" x="552.814" y="-68.3" font-family="Times,serif" font-size="14.00" fill="#2c94b3">AS209</text>
</a>
</g>
</g>
<!-- AS3356&#45;&gt;AS209 -->
<g id="edge20" class="edge"><title>AS3356&#45;&gt;AS209</title>
<path fill="none" stroke="black" d="M460.57,-193.836C466.57,-189.981 472.528,-185.341 477.167,-180 503.001,-150.258 488.103,-129.394 513.167,-99 515.302,-96.4111 517.745,-93.9588 520.341,-91.6659"/>
<polygon fill="black" stroke="black" points="522.749,-94.2245 528.44,-85.2879 518.419,-88.7251 522.749,-94.2245"/>
</g>
<!-- AS3491 -->
<g id="node22" class="node"><title>AS3491</title>
<g id="a_node22"><a xlink:href="/asn/3491" xlink:title="AS3491 ~ PCCW Global, Inc. [US]">
<ellipse fill="#ffffff" stroke="black" cx="552.814" cy="-18" rx="39.7935" ry="18"/>
<text text-anchor="middle" x="552.814" y="-14.3" font-family="Times,serif" font-size="14.00" fill="#2c94b3">AS3491</text>
</a>
</g>
</g>
<!-- AS6762&#45;&gt;AS3491 -->
<g id="edge21" class="edge"><title>AS6762&#45;&gt;AS3491</title>
<path fill="none" stroke="black" d="M461.6,-59.3394C477.557,-52.0273 497.828,-42.7385 515.11,-34.8189"/>
<polygon fill="black" stroke="black" points="516.725,-37.929 524.358,-30.5813 513.809,-31.5653 516.725,-37.929"/>
</g>
</g>
</svg>
