<?xml version="1.0" encoding="UTF-8" standalone="no"?>
<!DOCTYPE svg PUBLIC "-//W3C//DTD SVG 1.1//EN"
 "http://www.w3.org/Graphics/SVG/1.1/DTD/svg11.dtd">
<!-- Generated by graphviz version 2.38.0 (20140413.2041)
 -->
<!-- Title: AS1764 Combined Upstream Graph Pages: 1 -->
<svg width="442pt" height="751pt"
 viewBox="0.00 0.00 442.27 750.71" xmlns="http://www.w3.org/2000/svg" xmlns:xlink="http://www.w3.org/1999/xlink">
<g id="graph0" class="graph" transform="scale(1 1) rotate(0) translate(4 746.711)">
<title>AS1764 Combined Upstream Graph</title>
<polygon fill="white" stroke="none" points="-4,4 -4,-746.711 438.271,-746.711 438.271,4 -4,4"/>
<!-- AS1764 -->
<g id="node1" class="node"><title>AS1764</title>
<g id="a_node1"><a xlink:href="/asn/1764" xlink:title="AS1764 ~ NEXTLAYER&#45;AS [AT]">
<ellipse fill="#ffffff" stroke="black" cx="39.6465" cy="-381" rx="39.7935" ry="18"/>
<text text-anchor="middle" x="39.6465" y="-377.3" font-family="Times,serif" font-size="14.00" fill="#880000">AS1764</text>
</a>
</g>
</g>
<!-- AS174 -->
<g id="node2" class="node"><title>AS174</title>
<g id="a_node2"><a xlink:href="/asn/174" xlink:title="AS174 ~ Cogent Communications [US]">
<ellipse fill="#ffffff" stroke="black" cx="154.939" cy="-441" rx="35.194" ry="18"/>
<text text-anchor="middle" x="154.939" y="-437.3" font-family="Times,serif" font-size="14.00" fill="#2c94b3">AS174</text>
</a>
</g>
</g>
<!-- AS1764&#45;&gt;AS174 -->
<g id="edge1" class="edge"><title>AS1764&#45;&gt;AS174</title>
<path fill="none" stroke="black" stroke-width="4.5" d="M66.0716,-394.465C82.145,-402.978 103.095,-414.073 120.508,-423.294"/>
<polygon fill="black" stroke="black" stroke-width="4.5" points="119.083,-426.996 129.763,-428.196 122.769,-420.036 119.083,-426.996"/>
</g>
<!-- AS1299 -->
<g id="node3" class="node"><title>AS1299</title>
<g id="a_node3"><a xlink:href="/asn/1299" xlink:title="AS1299 ~ Telia Carrier [EU]">
<ellipse fill="#ffffff" stroke="black" cx="274.782" cy="-570" rx="39.7935" ry="18"/>
<text text-anchor="middle" x="274.782" y="-566.3" font-family="Times,serif" font-size="14.00" fill="#2c94b3">AS1299</text>
</a>
</g>
</g>
<!-- AS1764&#45;&gt;AS1299 -->
<g id="edge2" class="edge"><title>AS1764&#45;&gt;AS1299</title>
<path fill="none" stroke="black" stroke-width="1.35" d="M48.0022,-398.716C59.2012,-423.795 82.7168,-469.735 115.293,-498 148.95,-527.203 196.412,-546.651 230.612,-557.894"/>
<polygon fill="black" stroke="black" stroke-width="1.35" points="229.736,-561.288 240.326,-560.984 231.858,-554.617 229.736,-561.288"/>
</g>
<!-- AS2914 -->
<g id="node4" class="node"><title>AS2914</title>
<g id="a_node4"><a xlink:href="/asn/2914" xlink:title="AS2914 ~ NTT America, Inc. [US]">
<ellipse fill="#ffffff" stroke="black" cx="274.782" cy="-256" rx="39.7935" ry="18"/>
<text text-anchor="middle" x="274.782" y="-252.3" font-family="Times,serif" font-size="14.00" fill="#2c94b3">AS2914</text>
</a>
</g>
</g>
<!-- AS1764&#45;&gt;AS2914 -->
<g id="edge3" class="edge"><title>AS1764&#45;&gt;AS2914</title>
<path fill="none" stroke="black" stroke-width="1.125" d="M50.9301,-363.407C63.5307,-343.453 86.7625,-311.433 115.293,-294 148.627,-273.632 192.101,-264.181 225.085,-259.795"/>
<polygon fill="black" stroke="black" stroke-width="1.125" points="225.894,-263.223 235.399,-258.542 225.049,-256.274 225.894,-263.223"/>
</g>
<!-- AS3257 -->
<g id="node5" class="node"><title>AS3257</title>
<g id="a_node5"><a xlink:href="/asn/3257" xlink:title="AS3257 ~ GTT [DE]">
<ellipse fill="#ffffff" stroke="black" cx="154.939" cy="-321" rx="39.7935" ry="18"/>
<text text-anchor="middle" x="154.939" y="-317.3" font-family="Times,serif" font-size="14.00" fill="#2c94b3">AS3257</text>
</a>
</g>
</g>
<!-- AS1764&#45;&gt;AS3257 -->
<g id="edge4" class="edge"><title>AS1764&#45;&gt;AS3257</title>
<path fill="none" stroke="black" stroke-width="3.375" d="M66.0716,-367.535C81.7046,-359.256 101.951,-348.533 119.069,-339.468"/>
<polygon fill="black" stroke="black" stroke-width="3.375" points="121.008,-342.401 128.207,-334.628 117.732,-336.215 121.008,-342.401"/>
</g>
<!-- AS3320 -->
<g id="node6" class="node"><title>AS3320</title>
<g id="a_node6"><a xlink:href="/asn/3320" xlink:title="AS3320 ~ DTAG [DE]">
<ellipse fill="#ffffff" stroke="black" cx="274.782" cy="-700" rx="39.7935" ry="18"/>
<text text-anchor="middle" x="274.782" y="-696.3" font-family="Times,serif" font-size="14.00" fill="#2c94b3">AS3320</text>
</a>
</g>
</g>
<!-- AS1764&#45;&gt;AS3320 -->
<g id="edge5" class="edge"><title>AS1764&#45;&gt;AS3320</title>
<path fill="none" stroke="black" stroke-width="1.125" d="M47.2934,-398.942C58.7126,-428.558 83.8873,-488.881 115.293,-534 154.912,-590.918 213.917,-647.172 247.635,-677.355"/>
<polygon fill="black" stroke="black" stroke-width="1.125" points="245.431,-680.079 255.234,-684.099 250.078,-674.843 245.431,-680.079"/>
</g>
<!-- AS3356 -->
<g id="node7" class="node"><title>AS3356</title>
<g id="a_node7"><a xlink:href="/asn/3356" xlink:title="AS3356 ~ Level 3 Parent, LLC [US]">
<ellipse fill="#ffffff" stroke="black" cx="274.782" cy="-516" rx="39.7935" ry="18"/>
<text text-anchor="middle" x="274.782" y="-512.3" font-family="Times,serif" font-size="14.00" fill="#2c94b3">AS3356</text>
</a>
</g>
</g>
<!-- AS1764&#45;&gt;AS3356 -->
<g id="edge6" class="edge"><title>AS1764&#45;&gt;AS3356</title>
<path fill="none" stroke="black" stroke-width="2.25" d="M51.116,-398.299C63.8912,-417.976 87.2869,-449.736 115.293,-468 149.12,-490.06 193.542,-502.363 226.748,-508.974"/>
<polygon fill="black" stroke="black" stroke-width="2.25" points="226.193,-512.431 236.669,-510.848 227.492,-505.553 226.193,-512.431"/>
</g>
<!-- AS8218 -->
<g id="node8" class="node"><title>AS8218</title>
<g id="a_node8"><a xlink:href="/asn/8218" xlink:title="AS8218 ~ legacy Neotelecoms [FR]">
<ellipse fill="#ffffff" stroke="black" cx="154.939" cy="-41" rx="39.7935" ry="18"/>
<text text-anchor="middle" x="154.939" y="-37.3" font-family="Times,serif" font-size="14.00" fill="#2c94b3">AS8218</text>
</a>
</g>
</g>
<!-- AS1764&#45;&gt;AS8218 -->
<g id="edge7" class="edge"><title>AS1764&#45;&gt;AS8218</title>
<path fill="none" stroke="black" stroke-width="0.45" d="M44.2629,-363.075C53.3583,-319.464 79.0737,-204.746 115.293,-114 121.685,-97.9846 130.599,-80.908 138.256,-67.3008"/>
<polygon fill="black" stroke="black" stroke-width="0.45" points="141.37,-68.9063 143.309,-58.4904 135.297,-65.4235 141.37,-68.9063"/>
</g>
<!-- AS6939 -->
<g id="node9" class="node"><title>AS6939</title>
<g id="a_node9"><a xlink:href="/asn/6939" xlink:title="AS6939 ~ Hurricane Electric LLC [US]">
<ellipse fill="#ffffff" stroke="black" cx="154.939" cy="-141" rx="39.7935" ry="18"/>
<text text-anchor="middle" x="154.939" y="-137.3" font-family="Times,serif" font-size="14.00" fill="#2c94b3">AS6939</text>
</a>
</g>
</g>
<!-- AS1764&#45;&gt;AS6939 -->
<g id="edge8" class="edge"><title>AS1764&#45;&gt;AS6939</title>
<path fill="none" stroke="black" stroke-width="0.675" d="M48.9772,-363.352C68.6191,-321.743 117.926,-217.291 141.287,-167.803"/>
<polygon fill="black" stroke="black" stroke-width="0.675" points="144.493,-169.211 145.597,-158.674 138.163,-166.223 144.493,-169.211"/>
</g>
<!-- AS174&#45;&gt;AS1299 -->
<g id="edge15" class="edge"><title>AS174&#45;&gt;AS1299</title>
<path fill="none" stroke="black" stroke-width="2" d="M165.846,-458.439C178.746,-480.093 202.939,-517.305 230.586,-543 233.491,-545.7 236.704,-548.282 240.027,-550.706"/>
<polygon fill="black" stroke="black" stroke-width="2" points="238.162,-553.67 248.404,-556.378 242.086,-547.873 238.162,-553.67"/>
</g>
<!-- AS174&#45;&gt;AS2914 -->
<g id="edge14" class="edge"><title>AS174&#45;&gt;AS2914</title>
<path fill="none" stroke="black" stroke-width="2" d="M166.815,-423.927C187.545,-391.383 232.828,-320.293 257.301,-281.874"/>
<polygon fill="black" stroke="black" stroke-width="2" points="260.341,-283.615 262.762,-273.3 254.437,-279.854 260.341,-283.615"/>
</g>
<!-- AS174&#45;&gt;AS3356 -->
<g id="edge13" class="edge"><title>AS174&#45;&gt;AS3356</title>
<path fill="none" stroke="black" stroke-width="4" d="M177.829,-454.931C195.919,-466.444 221.84,-482.942 242.182,-495.889"/>
<polygon fill="black" stroke="black" stroke-width="4" points="240.487,-498.959 250.803,-501.375 244.246,-493.053 240.487,-498.959"/>
</g>
<!-- AS3491 -->
<g id="node10" class="node"><title>AS3491</title>
<g id="a_node10"><a xlink:href="/asn/3491" xlink:title="AS3491 ~ PCCW Global, Inc. [US]">
<ellipse fill="#ffffff" stroke="black" cx="274.782" cy="-110" rx="39.7935" ry="18"/>
<text text-anchor="middle" x="274.782" y="-106.3" font-family="Times,serif" font-size="14.00" fill="#2c94b3">AS3491</text>
</a>
</g>
</g>
<!-- AS174&#45;&gt;AS3491 -->
<g id="edge9" class="edge"><title>AS174&#45;&gt;AS3491</title>
<path fill="none" stroke="black" stroke-width="2" d="M164.563,-423.598C173.333,-405.225 186.72,-375.211 194.586,-348 221.006,-256.609 177.612,-216.019 230.586,-137 232.506,-134.135 234.844,-131.517 237.428,-129.136"/>
<polygon fill="black" stroke="black" stroke-width="2" points="239.979,-131.587 245.744,-122.698 235.694,-126.052 239.979,-131.587"/>
</g>
<!-- AS6762 -->
<g id="node11" class="node"><title>AS6762</title>
<g id="a_node11"><a xlink:href="/asn/6762" xlink:title="AS6762 ~ TELECOM ITALIA SPARKLE S.p.A. [IT]">
<ellipse fill="#ffffff" stroke="black" cx="394.625" cy="-334" rx="39.7935" ry="18"/>
<text text-anchor="middle" x="394.625" y="-330.3" font-family="Times,serif" font-size="14.00" fill="#2c94b3">AS6762</text>
</a>
</g>
</g>
<!-- AS174&#45;&gt;AS6762 -->
<g id="edge10" class="edge"><title>AS174&#45;&gt;AS6762</title>
<path fill="none" stroke="black" stroke-width="2" d="M190.116,-441.307C224.579,-440.249 278.348,-434.771 318.978,-413 342.562,-400.363 362.921,-377.488 376.393,-359.594"/>
<polygon fill="black" stroke="black" stroke-width="2" points="379.39,-361.423 382.437,-351.276 373.727,-357.308 379.39,-361.423"/>
</g>
<!-- AS701 -->
<g id="node12" class="node"><title>AS701</title>
<g id="a_node12"><a xlink:href="/asn/701" xlink:title="AS701 ~ UUNET [US]">
<ellipse fill="#ffffff" stroke="black" cx="394.625" cy="-650" rx="35.194" ry="18"/>
<text text-anchor="middle" x="394.625" y="-646.3" font-family="Times,serif" font-size="14.00" fill="#2c94b3">AS701</text>
</a>
</g>
</g>
<!-- AS174&#45;&gt;AS701 -->
<g id="edge11" class="edge"><title>AS174&#45;&gt;AS701</title>
<path fill="none" stroke="black" stroke-width="2" d="M158.001,-459.092C163.144,-495.331 180.002,-576.864 230.586,-618 263.889,-645.083 313.565,-651.492 349.326,-652.112"/>
<polygon fill="black" stroke="black" stroke-width="2" points="349.471,-655.612 359.48,-652.14 349.49,-648.612 349.471,-655.612"/>
</g>
<!-- AS1239 -->
<g id="node13" class="node"><title>AS1239</title>
<g id="a_node13"><a xlink:href="/asn/1239" xlink:title="AS1239 ~ Sprint [US]">
<ellipse fill="#ffffff" stroke="black" cx="394.625" cy="-583" rx="39.7935" ry="18"/>
<text text-anchor="middle" x="394.625" y="-579.3" font-family="Times,serif" font-size="14.00" fill="#2c94b3">AS1239</text>
</a>
</g>
</g>
<!-- AS174&#45;&gt;AS1239 -->
<g id="edge12" class="edge"><title>AS174&#45;&gt;AS1239</title>
<path fill="none" stroke="black" d="M158.369,-459.081C164.029,-493.13 181.56,-566.109 230.586,-597 268.155,-620.672 320.627,-610.218 355.797,-598.486"/>
<polygon fill="black" stroke="black" points="356.958,-601.788 365.232,-595.171 354.637,-595.184 356.958,-601.788"/>
</g>
<!-- AS6453 -->
<g id="node14" class="node"><title>AS6453</title>
<g id="a_node14"><a xlink:href="/asn/6453" xlink:title="AS6453 ~ TATA COMMUNICATIONS (AMERICA) INC [US]">
<ellipse fill="#ffffff" stroke="black" cx="394.625" cy="-704" rx="39.7935" ry="18"/>
<text text-anchor="middle" x="394.625" y="-700.3" font-family="Times,serif" font-size="14.00" fill="#2c94b3">AS6453</text>
</a>
</g>
</g>
<!-- AS174&#45;&gt;AS6453 -->
<g id="edge16" class="edge"><title>AS174&#45;&gt;AS6453</title>
<path fill="none" stroke="black" stroke-width="2" d="M157.844,-459.261C164.273,-516.959 187.235,-693.511 230.586,-727 267.55,-755.554 323.748,-738.288 359.569,-722.06"/>
<polygon fill="black" stroke="black" stroke-width="2" points="361.108,-725.203 368.655,-717.768 358.119,-718.874 361.108,-725.203"/>
</g>
<!-- AS1273 -->
<g id="node15" class="node"><title>AS1273</title>
<g id="a_node15"><a xlink:href="/asn/1273" xlink:title="AS1273 ~ RIPE Network Coordination Centre [NL]">
<ellipse fill="#ffffff" stroke="black" cx="274.782" cy="-164" rx="39.7935" ry="18"/>
<text text-anchor="middle" x="274.782" y="-160.3" font-family="Times,serif" font-size="14.00" fill="#2c94b3">AS1273</text>
</a>
</g>
</g>
<!-- AS174&#45;&gt;AS1273 -->
<g id="edge17" class="edge"><title>AS174&#45;&gt;AS1273</title>
<path fill="none" stroke="black" d="M163.883,-423.378C172.098,-404.826 185.038,-374.667 194.586,-348 213.211,-295.978 207.043,-278.989 230.586,-229 237.119,-215.129 246.316,-200.821 254.546,-189.172"/>
<polygon fill="black" stroke="black" points="257.555,-190.985 260.59,-180.834 251.887,-186.876 257.555,-190.985"/>
</g>
<!-- AS1299&#45;&gt;AS1239 -->
<g id="edge26" class="edge"><title>AS1299&#45;&gt;AS1239</title>
<path fill="none" stroke="black" d="M313.392,-574.149C323.703,-575.287 335.021,-576.535 345.821,-577.726"/>
<polygon fill="black" stroke="black" points="345.644,-581.228 355.968,-578.846 346.412,-574.27 345.644,-581.228"/>
</g>
<!-- AS209 -->
<g id="node17" class="node"><title>AS209</title>
<g id="a_node17"><a xlink:href="/asn/209" xlink:title="AS209 ~ CenturyLink Communications, LLC [US]">
<ellipse fill="#ffffff" stroke="black" cx="394.625" cy="-529" rx="35.194" ry="18"/>
<text text-anchor="middle" x="394.625" y="-525.3" font-family="Times,serif" font-size="14.00" fill="#2c94b3">AS209</text>
</a>
</g>
</g>
<!-- AS1299&#45;&gt;AS209 -->
<g id="edge27" class="edge"><title>AS1299&#45;&gt;AS209</title>
<path fill="none" stroke="black" d="M306.744,-559.228C321.652,-554.041 339.67,-547.772 355.423,-542.291"/>
<polygon fill="black" stroke="black" points="356.597,-545.589 364.891,-538.997 354.296,-538.977 356.597,-545.589"/>
</g>
<!-- AS7018 -->
<g id="node19" class="node"><title>AS7018</title>
<g id="a_node19"><a xlink:href="/asn/7018" xlink:title="AS7018 ~ AT&amp;T Services, Inc. [US]">
<ellipse fill="#ffffff" stroke="black" cx="394.625" cy="-475" rx="39.7935" ry="18"/>
<text text-anchor="middle" x="394.625" y="-471.3" font-family="Times,serif" font-size="14.00" fill="#2c94b3">AS7018</text>
</a>
</g>
</g>
<!-- AS1299&#45;&gt;AS7018 -->
<g id="edge25" class="edge"><title>AS1299&#45;&gt;AS7018</title>
<path fill="none" stroke="black" stroke-width="2" d="M300.863,-556.045C307.035,-552.154 313.452,-547.696 318.978,-543 337.456,-527.296 336.908,-518.172 354.978,-502 357.418,-499.817 360.038,-497.656 362.724,-495.565"/>
<polygon fill="black" stroke="black" stroke-width="2" points="364.903,-498.307 370.86,-489.546 360.739,-492.68 364.903,-498.307"/>
</g>
<!-- AS2914&#45;&gt;AS6762 -->
<g id="edge29" class="edge"><title>AS2914&#45;&gt;AS6762</title>
<path fill="none" stroke="black" d="M297.947,-270.671C316.184,-282.742 342.241,-299.989 362.559,-313.438"/>
<polygon fill="black" stroke="black" points="360.887,-316.528 371.158,-319.129 364.751,-310.691 360.887,-316.528"/>
</g>
<!-- AS2497 -->
<g id="node18" class="node"><title>AS2497</title>
<g id="a_node18"><a xlink:href="/asn/2497" xlink:title="AS2497 ~ Internet Initiative Japan Inc. [JP]">
<ellipse fill="#ffffff" stroke="black" cx="394.625" cy="-233" rx="39.7935" ry="18"/>
<text text-anchor="middle" x="394.625" y="-229.3" font-family="Times,serif" font-size="14.00" fill="#2c94b3">AS2497</text>
</a>
</g>
</g>
<!-- AS2914&#45;&gt;AS2497 -->
<g id="edge28" class="edge"><title>AS2914&#45;&gt;AS2497</title>
<path fill="none" stroke="black" stroke-width="2" d="M311.458,-249.037C322.89,-246.806 335.712,-244.303 347.766,-241.951"/>
<polygon fill="black" stroke="black" stroke-width="2" points="348.518,-245.37 357.663,-240.019 347.177,-238.499 348.518,-245.37"/>
</g>
<!-- AS3257&#45;&gt;AS2914 -->
<g id="edge32" class="edge"><title>AS3257&#45;&gt;AS2914</title>
<path fill="none" stroke="black" stroke-width="2" d="M180.931,-307.215C198.117,-297.736 221.145,-285.034 239.968,-274.651"/>
<polygon fill="black" stroke="black" stroke-width="2" points="241.761,-277.66 248.827,-269.765 238.38,-271.53 241.761,-277.66"/>
</g>
<!-- AS3257&#45;&gt;AS3356 -->
<g id="edge33" class="edge"><title>AS3257&#45;&gt;AS3356</title>
<path fill="none" stroke="black" d="M163.431,-338.656C180.336,-378.295 220.735,-471.852 230.586,-484 233.881,-488.064 237.805,-491.883 241.924,-495.369"/>
<polygon fill="black" stroke="black" points="239.931,-498.253 249.971,-501.639 244.234,-492.732 239.931,-498.253"/>
</g>
<!-- AS3257&#45;&gt;AS3491 -->
<g id="edge31" class="edge"><title>AS3257&#45;&gt;AS3491</title>
<path fill="none" stroke="black" d="M159.384,-302.86C166.88,-267.469 187.565,-188.204 230.586,-137 233.004,-134.122 235.809,-131.456 238.807,-129.01"/>
<polygon fill="black" stroke="black" points="240.997,-131.746 247.058,-123.057 236.901,-126.07 240.997,-131.746"/>
</g>
<!-- AS3257&#45;&gt;AS6762 -->
<g id="edge35" class="edge"><title>AS3257&#45;&gt;AS6762</title>
<path fill="none" stroke="black" stroke-width="2" d="M194.852,-321.362C227.909,-321.868 276.6,-323.084 318.978,-326 327.764,-326.605 337.113,-327.447 346.114,-328.361"/>
<polygon fill="black" stroke="black" stroke-width="2" points="345.77,-331.844 356.082,-329.412 346.505,-324.882 345.77,-331.844"/>
</g>
<!-- AS3257&#45;&gt;AS1239 -->
<g id="edge34" class="edge"><title>AS3257&#45;&gt;AS1239</title>
<path fill="none" stroke="black" d="M168.307,-338.039C182.467,-357.101 206.79,-388.515 230.586,-413 266.695,-450.154 286.528,-448.611 318.978,-489 340.151,-515.352 332.51,-530.743 354.978,-556 356.967,-558.236 359.176,-560.384 361.502,-562.423"/>
<polygon fill="black" stroke="black" points="359.694,-565.455 369.709,-568.91 364.034,-559.964 359.694,-565.455"/>
</g>
<!-- AS3257&#45;&gt;AS1273 -->
<g id="edge37" class="edge"><title>AS3257&#45;&gt;AS1273</title>
<path fill="none" stroke="black" d="M163.696,-303.409C175.551,-277.824 200.05,-229.728 230.586,-196 234.174,-192.037 238.319,-188.245 242.592,-184.747"/>
<polygon fill="black" stroke="black" points="245.048,-187.274 250.855,-178.412 240.789,-181.719 245.048,-187.274"/>
</g>
<!-- AS3257&#45;&gt;AS2497 -->
<g id="edge30" class="edge"><title>AS3257&#45;&gt;AS2497</title>
<path fill="none" stroke="black" stroke-width="2" d="M164.064,-303.467C175.402,-281.362 198.276,-244.392 230.586,-229 267.998,-211.178 315.922,-215.041 350.111,-221.62"/>
<polygon fill="black" stroke="black" stroke-width="2" points="349.75,-225.12 360.253,-223.728 351.174,-218.266 349.75,-225.12"/>
</g>
<!-- AS3257&#45;&gt;AS7018 -->
<g id="edge36" class="edge"><title>AS3257&#45;&gt;AS7018</title>
<path fill="none" stroke="black" stroke-width="2" d="M193.539,-325.704C235.626,-331.656 300.372,-343.082 318.978,-359 351.4,-386.739 328.392,-414.626 354.978,-448 356.795,-450.281 358.854,-452.449 361.054,-454.493"/>
<polygon fill="black" stroke="black" stroke-width="2" points="358.97,-457.31 368.922,-460.942 363.407,-451.896 358.97,-457.31"/>
</g>
<!-- AS12956 -->
<g id="node20" class="node"><title>AS12956</title>
<g id="a_node20"><a xlink:href="/asn/12956" xlink:title="AS12956 ~ TELXIUS [ES]">
<ellipse fill="#ffffff" stroke="black" cx="274.782" cy="-386" rx="44.393" ry="18"/>
<text text-anchor="middle" x="274.782" y="-382.3" font-family="Times,serif" font-size="14.00" fill="#2c94b3">AS12956</text>
</a>
</g>
</g>
<!-- AS3257&#45;&gt;AS12956 -->
<g id="edge38" class="edge"><title>AS3257&#45;&gt;AS12956</title>
<path fill="none" stroke="black" d="M180.931,-334.785C197.768,-344.072 220.214,-356.453 238.818,-366.715"/>
<polygon fill="black" stroke="black" points="237.155,-369.794 247.601,-371.559 240.536,-363.665 237.155,-369.794"/>
</g>
<!-- AS3320&#45;&gt;AS701 -->
<g id="edge39" class="edge"><title>AS3320&#45;&gt;AS701</title>
<path fill="none" stroke="black" stroke-width="2" d="M304.308,-687.896C320.252,-681.132 340.284,-672.632 357.335,-665.397"/>
<polygon fill="black" stroke="black" stroke-width="2" points="359.138,-668.435 366.976,-661.307 356.404,-661.991 359.138,-668.435"/>
</g>
<!-- AS3320&#45;&gt;AS1239 -->
<g id="edge40" class="edge"><title>AS3320&#45;&gt;AS1239</title>
<path fill="none" stroke="black" d="M292.168,-683.732C312.281,-663.762 346.556,-629.732 369.637,-606.816"/>
<polygon fill="black" stroke="black" points="372.368,-609.037 376.998,-599.507 367.436,-604.069 372.368,-609.037"/>
</g>
<!-- AS3320&#45;&gt;AS6453 -->
<g id="edge41" class="edge"><title>AS3320&#45;&gt;AS6453</title>
<path fill="none" stroke="black" d="M314.368,-701.31C324.135,-701.641 334.751,-702.002 344.945,-702.348"/>
<polygon fill="black" stroke="black" points="344.839,-705.846 354.952,-702.687 345.076,-698.85 344.839,-705.846"/>
</g>
<!-- AS3356&#45;&gt;AS6762 -->
<g id="edge20" class="edge"><title>AS3356&#45;&gt;AS6762</title>
<path fill="none" stroke="black" stroke-width="2" d="M287.081,-498.549C307.934,-466.343 352.556,-397.428 376.914,-359.808"/>
<polygon fill="black" stroke="black" stroke-width="2" points="379.862,-361.694 382.36,-351.398 373.987,-357.89 379.862,-361.694"/>
</g>
<!-- AS3356&#45;&gt;AS701 -->
<g id="edge24" class="edge"><title>AS3356&#45;&gt;AS701</title>
<path fill="none" stroke="black" d="M302.102,-529.415C308.11,-533.263 314.142,-537.836 318.978,-543 342.085,-567.674 335.046,-582.698 354.978,-610 359.186,-615.764 364.185,-621.534 369.169,-626.825"/>
<polygon fill="black" stroke="black" points="366.869,-629.479 376.364,-634.18 371.872,-624.584 366.869,-629.479"/>
</g>
<!-- AS3356&#45;&gt;AS1239 -->
<g id="edge23" class="edge"><title>AS3356&#45;&gt;AS1239</title>
<path fill="none" stroke="black" d="M300.199,-529.882C317.659,-539.809 341.359,-553.284 360.52,-564.178"/>
<polygon fill="black" stroke="black" points="358.816,-567.235 369.239,-569.135 362.276,-561.15 358.816,-567.235"/>
</g>
<!-- AS3356&#45;&gt;AS6453 -->
<g id="edge21" class="edge"><title>AS3356&#45;&gt;AS6453</title>
<path fill="none" stroke="black" d="M302.99,-528.675C308.971,-532.545 314.768,-537.314 318.978,-543 355.672,-592.562 319.564,-626.515 354.978,-677 356.653,-679.387 358.609,-681.633 360.738,-683.73"/>
<polygon fill="black" stroke="black" points="358.579,-686.488 368.472,-690.279 363.102,-681.146 358.579,-686.488"/>
</g>
<!-- AS3549 -->
<g id="node16" class="node"><title>AS3549</title>
<g id="a_node16"><a xlink:href="/asn/3549" xlink:title="AS3549 ~ Level 3 Parent, LLC [US]">
<ellipse fill="#ffffff" stroke="black" cx="394.625" cy="-421" rx="39.7935" ry="18"/>
<text text-anchor="middle" x="394.625" y="-417.3" font-family="Times,serif" font-size="14.00" fill="#2c94b3">AS3549</text>
</a>
</g>
</g>
<!-- AS3356&#45;&gt;AS3549 -->
<g id="edge18" class="edge"><title>AS3356&#45;&gt;AS3549</title>
<path fill="none" stroke="black" stroke-width="2" d="M293.596,-499.809C309.373,-485.689 333.211,-464.881 354.978,-448 357.713,-445.879 360.598,-443.722 363.51,-441.599"/>
<polygon fill="black" stroke="black" stroke-width="2" points="365.579,-444.423 371.684,-435.764 361.511,-438.726 365.579,-444.423"/>
</g>
<!-- AS3356&#45;&gt;AS209 -->
<g id="edge19" class="edge"><title>AS3356&#45;&gt;AS209</title>
<path fill="none" stroke="black" stroke-width="2" d="M313.392,-520.149C324.958,-521.425 337.789,-522.84 349.737,-524.159"/>
<polygon fill="black" stroke="black" stroke-width="2" points="349.632,-527.668 359.955,-525.286 350.4,-520.71 349.632,-527.668"/>
</g>
<!-- AS3356&#45;&gt;AS2497 -->
<g id="edge22" class="edge"><title>AS3356&#45;&gt;AS2497</title>
<path fill="none" stroke="black" stroke-width="2" d="M283.653,-498.289C292.617,-477.887 307.502,-443.281 318.978,-413 336.61,-366.475 335.404,-352.742 354.978,-307 361.881,-290.868 370.898,-273.445 378.486,-259.559"/>
<polygon fill="black" stroke="black" stroke-width="2" points="381.681,-261.014 383.467,-250.571 375.558,-257.621 381.681,-261.014"/>
</g>
<!-- AS6461 -->
<g id="node21" class="node"><title>AS6461</title>
<g id="a_node21"><a xlink:href="/asn/6461" xlink:title="AS6461 ~ Zayo Bandwidth [US]">
<ellipse fill="#ffffff" stroke="black" cx="274.782" cy="-18" rx="39.7935" ry="18"/>
<text text-anchor="middle" x="274.782" y="-14.3" font-family="Times,serif" font-size="14.00" fill="#2c94b3">AS6461</text>
</a>
</g>
</g>
<!-- AS8218&#45;&gt;AS6461 -->
<g id="edge42" class="edge"><title>AS8218&#45;&gt;AS6461</title>
<path fill="none" stroke="black" stroke-width="2" d="M191.616,-34.0368C203.047,-31.8057 215.869,-29.3032 227.923,-26.9506"/>
<polygon fill="black" stroke="black" stroke-width="2" points="228.676,-30.3698 237.82,-25.0189 227.335,-23.4994 228.676,-30.3698"/>
</g>
<!-- AS6939&#45;&gt;AS3491 -->
<g id="edge43" class="edge"><title>AS6939&#45;&gt;AS3491</title>
<path fill="none" stroke="black" d="M189.708,-132.117C202.282,-128.809 216.737,-125.006 230.076,-121.498"/>
<polygon fill="black" stroke="black" points="231.228,-124.814 240.008,-118.885 229.447,-118.044 231.228,-124.814"/>
</g>
<!-- AS6939&#45;&gt;AS1273 -->
<g id="edge44" class="edge"><title>AS6939&#45;&gt;AS1273</title>
<path fill="none" stroke="black" d="M191.616,-147.963C203.047,-150.194 215.869,-152.697 227.923,-155.049"/>
<polygon fill="black" stroke="black" points="227.335,-158.501 237.82,-156.981 228.676,-151.63 227.335,-158.501"/>
</g>
<!-- AS6939&#45;&gt;AS2497 -->
<g id="edge45" class="edge"><title>AS6939&#45;&gt;AS2497</title>
<path fill="none" stroke="black" d="M170.932,-124.343C184.809,-110.27 206.833,-91.1432 230.586,-83 267.748,-70.2595 285.579,-62.3149 318.978,-83 362.007,-109.65 381.028,-169.369 388.799,-204.892"/>
<polygon fill="black" stroke="black" points="385.447,-205.971 390.864,-215.076 392.307,-204.58 385.447,-205.971"/>
</g>
</g>
</svg>
