<?xml version="1.0" encoding="UTF-8" standalone="no"?>
<!DOCTYPE svg PUBLIC "-//W3C//DTD SVG 1.1//EN"
 "http://www.w3.org/Graphics/SVG/1.1/DTD/svg11.dtd">
<!-- Generated by graphviz version 2.38.0 (20140413.2041)
 -->
<!-- Title: AS1764 Combined Upstream Graph Pages: 1 -->
<svg width="318pt" height="584pt"
 viewBox="0.00 0.00 317.88 584.00" xmlns="http://www.w3.org/2000/svg" xmlns:xlink="http://www.w3.org/1999/xlink">
<g id="graph0" class="graph" transform="scale(1 1) rotate(0) translate(4 580)">
<title>AS1764 Combined Upstream Graph</title>
<polygon fill="white" stroke="none" points="-4,4 -4,-580 313.879,-580 313.879,4 -4,4"/>
<!-- AS1764 -->
<g id="node1" class="node"><title>AS1764</title>
<g id="a_node1"><a xlink:href="/asn/1764" xlink:title="AS1764 ~ NEXTLAYER&#45;AS [AT]">
<ellipse fill="#ffffff" stroke="black" cx="39.6465" cy="-369" rx="39.7935" ry="18"/>
<text text-anchor="middle" x="39.6465" y="-365.3" font-family="Times,serif" font-size="14.00" fill="#880000">AS1764</text>
</a>
</g>
</g>
<!-- AS174 -->
<g id="node2" class="node"><title>AS174</title>
<g id="a_node2"><a xlink:href="/asn/174" xlink:title="AS174 ~ Cogent Communications [US]">
<ellipse fill="#ffffff" stroke="black" cx="154.939" cy="-558" rx="35.194" ry="18"/>
<text text-anchor="middle" x="154.939" y="-554.3" font-family="Times,serif" font-size="14.00" fill="#2c94b3">AS174</text>
</a>
</g>
</g>
<!-- AS1764&#45;&gt;AS174 -->
<g id="edge1" class="edge"><title>AS1764&#45;&gt;AS174</title>
<path fill="none" stroke="black" stroke-width="2" d="M45.5206,-387.002C54.8345,-418.844 77.6511,-485.981 115.293,-531 117.445,-533.574 119.9,-536.017 122.504,-538.303"/>
<polygon fill="black" stroke="black" stroke-width="2" points="120.588,-541.249 130.615,-544.672 124.911,-535.743 120.588,-541.249"/>
</g>
<!-- AS1299 -->
<g id="node3" class="node"><title>AS1299</title>
<g id="a_node3"><a xlink:href="/asn/1299" xlink:title="AS1299 ~ Telia Carrier [EU]">
<ellipse fill="#ffffff" stroke="black" cx="154.939" cy="-194" rx="39.7935" ry="18"/>
<text text-anchor="middle" x="154.939" y="-190.3" font-family="Times,serif" font-size="14.00" fill="#2c94b3">AS1299</text>
</a>
</g>
</g>
<!-- AS1764&#45;&gt;AS1299 -->
<g id="edge2" class="edge"><title>AS1764&#45;&gt;AS1299</title>
<path fill="none" stroke="black" stroke-width="3" d="M51.9236,-351.581C71.943,-320.657 113.78,-256.033 137.18,-219.887"/>
<polygon fill="black" stroke="black" stroke-width="3" points="140.211,-221.646 142.708,-211.349 134.335,-217.841 140.211,-221.646"/>
</g>
<!-- AS2914 -->
<g id="node4" class="node"><title>AS2914</title>
<g id="a_node4"><a xlink:href="/asn/2914" xlink:title="AS2914 ~ NTT America, Inc. [US]">
<ellipse fill="#ffffff" stroke="black" cx="154.939" cy="-504" rx="39.7935" ry="18"/>
<text text-anchor="middle" x="154.939" y="-500.3" font-family="Times,serif" font-size="14.00" fill="#2c94b3">AS2914</text>
</a>
</g>
</g>
<!-- AS1764&#45;&gt;AS2914 -->
<g id="edge3" class="edge"><title>AS1764&#45;&gt;AS2914</title>
<path fill="none" stroke="black" stroke-width="2.5" d="M50.1063,-386.49C62.8881,-409.096 87.3202,-448.886 115.293,-477 117.404,-479.121 119.7,-481.188 122.085,-483.171"/>
<polygon fill="black" stroke="black" stroke-width="2.5" points="120.338,-486.242 130.401,-489.556 124.601,-480.69 120.338,-486.242"/>
</g>
<!-- AS3257 -->
<g id="node5" class="node"><title>AS3257</title>
<g id="a_node5"><a xlink:href="/asn/3257" xlink:title="AS3257 ~ GTT [DE]">
<ellipse fill="#ffffff" stroke="black" cx="154.939" cy="-450" rx="39.7935" ry="18"/>
<text text-anchor="middle" x="154.939" y="-446.3" font-family="Times,serif" font-size="14.00" fill="#2c94b3">AS3257</text>
</a>
</g>
</g>
<!-- AS1764&#45;&gt;AS3257 -->
<g id="edge4" class="edge"><title>AS1764&#45;&gt;AS3257</title>
<path fill="none" stroke="black" stroke-width="4" d="M61.4948,-384.222C76.4287,-395.091 97.0424,-410.025 115.293,-423 118.113,-425.005 121.056,-427.085 124.005,-429.159"/>
<polygon fill="black" stroke="black" stroke-width="4" points="122.032,-432.05 132.229,-434.926 126.051,-426.319 122.032,-432.05"/>
</g>
<!-- AS3320 -->
<g id="node6" class="node"><title>AS3320</title>
<g id="a_node6"><a xlink:href="/asn/3320" xlink:title="AS3320 ~ DTAG [DE]">
<ellipse fill="#ffffff" stroke="black" cx="154.939" cy="-288" rx="39.7935" ry="18"/>
<text text-anchor="middle" x="154.939" y="-284.3" font-family="Times,serif" font-size="14.00" fill="#2c94b3">AS3320</text>
</a>
</g>
</g>
<!-- AS1764&#45;&gt;AS3320 -->
<g id="edge5" class="edge"><title>AS1764&#45;&gt;AS3320</title>
<path fill="none" stroke="black" stroke-width="3" d="M61.4948,-353.778C76.4287,-342.909 97.0424,-327.975 115.293,-315 118.113,-312.995 121.056,-310.915 124.005,-308.841"/>
<polygon fill="black" stroke="black" stroke-width="3" points="126.051,-311.681 132.229,-303.074 122.032,-305.95 126.051,-311.681"/>
</g>
<!-- AS3356 -->
<g id="node7" class="node"><title>AS3356</title>
<g id="a_node7"><a xlink:href="/asn/3356" xlink:title="AS3356 ~ Level 3 Parent, LLC [US]">
<ellipse fill="#ffffff" stroke="black" cx="154.939" cy="-342" rx="39.7935" ry="18"/>
<text text-anchor="middle" x="154.939" y="-338.3" font-family="Times,serif" font-size="14.00" fill="#2c94b3">AS3356</text>
</a>
</g>
</g>
<!-- AS1764&#45;&gt;AS3356 -->
<g id="edge6" class="edge"><title>AS1764&#45;&gt;AS3356</title>
<path fill="none" stroke="black" stroke-width="4.5" d="M75.2537,-360.752C86.125,-358.162 98.2793,-355.265 109.722,-352.538"/>
<polygon fill="black" stroke="black" stroke-width="4.5" points="110.729,-356.346 119.544,-350.197 108.904,-348.685 110.729,-356.346"/>
</g>
<!-- AS8218 -->
<g id="node8" class="node"><title>AS8218</title>
<g id="a_node8"><a xlink:href="/asn/8218" xlink:title="AS8218 ~ legacy Neotelecoms [FR]">
<ellipse fill="#ffffff" stroke="black" cx="154.939" cy="-59" rx="39.7935" ry="18"/>
<text text-anchor="middle" x="154.939" y="-55.3" font-family="Times,serif" font-size="14.00" fill="#2c94b3">AS8218</text>
</a>
</g>
</g>
<!-- AS1764&#45;&gt;AS8218 -->
<g id="edge7" class="edge"><title>AS1764&#45;&gt;AS8218</title>
<path fill="none" stroke="black" d="M47.2273,-350.993C66.195,-299.092 121.071,-148.936 143.847,-86.6159"/>
<polygon fill="black" stroke="black" points="147.195,-87.6504 147.34,-77.0566 140.621,-85.2476 147.195,-87.6504"/>
</g>
<!-- AS6939 -->
<g id="node9" class="node"><title>AS6939</title>
<g id="a_node9"><a xlink:href="/asn/6939" xlink:title="AS6939 ~ Hurricane Electric LLC [US]">
<ellipse fill="#ffffff" stroke="black" cx="154.939" cy="-396" rx="39.7935" ry="18"/>
<text text-anchor="middle" x="154.939" y="-392.3" font-family="Times,serif" font-size="14.00" fill="#2c94b3">AS6939</text>
</a>
</g>
</g>
<!-- AS1764&#45;&gt;AS6939 -->
<g id="edge8" class="edge"><title>AS1764&#45;&gt;AS6939</title>
<path fill="none" stroke="black" stroke-width="1.5" d="M75.2537,-377.248C86.125,-379.838 98.2793,-382.735 109.722,-385.462"/>
<polygon fill="black" stroke="black" stroke-width="1.5" points="109.005,-388.889 119.544,-387.803 110.628,-382.08 109.005,-388.889"/>
</g>
<!-- AS6762 -->
<g id="node10" class="node"><title>AS6762</title>
<g id="a_node10"><a xlink:href="/asn/6762" xlink:title="AS6762 ~ TELECOM ITALIA SPARKLE S.p.A. [IT]">
<ellipse fill="#ffffff" stroke="black" cx="270.232" cy="-558" rx="39.7935" ry="18"/>
<text text-anchor="middle" x="270.232" y="-554.3" font-family="Times,serif" font-size="14.00" fill="#2c94b3">AS6762</text>
</a>
</g>
</g>
<!-- AS174&#45;&gt;AS6762 -->
<g id="edge9" class="edge"><title>AS174&#45;&gt;AS6762</title>
<path fill="none" stroke="black" d="M190.239,-558C199.616,-558 209.966,-558 220.001,-558"/>
<polygon fill="black" stroke="black" points="220.289,-561.5 230.289,-558 220.289,-554.5 220.289,-561.5"/>
</g>
<!-- AS3491 -->
<g id="node11" class="node"><title>AS3491</title>
<g id="a_node11"><a xlink:href="/asn/3491" xlink:title="AS3491 ~ PCCW Global, Inc. [US]">
<ellipse fill="#ffffff" stroke="black" cx="270.232" cy="-504" rx="39.7935" ry="18"/>
<text text-anchor="middle" x="270.232" y="-500.3" font-family="Times,serif" font-size="14.00" fill="#2c94b3">AS3491</text>
</a>
</g>
</g>
<!-- AS174&#45;&gt;AS3491 -->
<g id="edge10" class="edge"><title>AS174&#45;&gt;AS3491</title>
<path fill="none" stroke="black" d="M181.365,-545.881C196.667,-538.587 216.391,-529.186 233.273,-521.14"/>
<polygon fill="black" stroke="black" points="234.792,-524.293 242.313,-516.831 231.78,-517.974 234.792,-524.293"/>
</g>
<!-- AS7018 -->
<g id="node12" class="node"><title>AS7018</title>
<g id="a_node12"><a xlink:href="/asn/7018" xlink:title="AS7018 ~ AT&amp;T Services, Inc. [US]">
<ellipse fill="#ffffff" stroke="black" cx="270.232" cy="-72" rx="39.7935" ry="18"/>
<text text-anchor="middle" x="270.232" y="-68.3" font-family="Times,serif" font-size="14.00" fill="#2c94b3">AS7018</text>
</a>
</g>
</g>
<!-- AS1299&#45;&gt;AS7018 -->
<g id="edge11" class="edge"><title>AS1299&#45;&gt;AS7018</title>
<path fill="none" stroke="black" stroke-width="2" d="M167.259,-176.622C180.833,-156.556 204.978,-123.208 230.586,-99 232.965,-96.7509 235.544,-94.5455 238.203,-92.4251"/>
<polygon fill="black" stroke="black" stroke-width="2" points="240.393,-95.1575 246.296,-86.3596 236.195,-89.5559 240.393,-95.1575"/>
</g>
<!-- AS1239 -->
<g id="node13" class="node"><title>AS1239</title>
<g id="a_node13"><a xlink:href="/asn/1239" xlink:title="AS1239 ~ Sprint [US]">
<ellipse fill="#ffffff" stroke="black" cx="270.232" cy="-126" rx="39.7935" ry="18"/>
<text text-anchor="middle" x="270.232" y="-122.3" font-family="Times,serif" font-size="14.00" fill="#2c94b3">AS1239</text>
</a>
</g>
</g>
<!-- AS1299&#45;&gt;AS1239 -->
<g id="edge12" class="edge"><title>AS1299&#45;&gt;AS1239</title>
<path fill="none" stroke="black" d="M179.689,-179.745C196.306,-169.771 218.702,-156.329 236.939,-145.383"/>
<polygon fill="black" stroke="black" points="238.741,-148.384 245.514,-140.236 235.138,-142.382 238.741,-148.384"/>
</g>
<!-- AS209 -->
<g id="node14" class="node"><title>AS209</title>
<g id="a_node14"><a xlink:href="/asn/209" xlink:title="AS209 ~ CenturyLink Communications, LLC [US]">
<ellipse fill="#ffffff" stroke="black" cx="270.232" cy="-234" rx="35.194" ry="18"/>
<text text-anchor="middle" x="270.232" y="-230.3" font-family="Times,serif" font-size="14.00" fill="#2c94b3">AS209</text>
</a>
</g>
</g>
<!-- AS1299&#45;&gt;AS209 -->
<g id="edge13" class="edge"><title>AS1299&#45;&gt;AS209</title>
<path fill="none" stroke="black" d="M186.897,-204.93C200.524,-209.742 216.668,-215.441 231.035,-220.514"/>
<polygon fill="black" stroke="black" points="230.049,-223.877 240.644,-223.906 232.38,-217.277 230.049,-223.877"/>
</g>
<!-- AS2914&#45;&gt;AS6762 -->
<g id="edge15" class="edge"><title>AS2914&#45;&gt;AS6762</title>
<path fill="none" stroke="black" d="M183.076,-516.934C198.07,-524.081 216.891,-533.052 233.114,-540.785"/>
<polygon fill="black" stroke="black" points="231.784,-544.028 242.317,-545.171 234.796,-537.709 231.784,-544.028"/>
</g>
<!-- AS2497 -->
<g id="node15" class="node"><title>AS2497</title>
<g id="a_node15"><a xlink:href="/asn/2497" xlink:title="AS2497 ~ Internet Initiative Japan Inc. [JP]">
<ellipse fill="#ffffff" stroke="black" cx="270.232" cy="-450" rx="39.7935" ry="18"/>
<text text-anchor="middle" x="270.232" y="-446.3" font-family="Times,serif" font-size="14.00" fill="#2c94b3">AS2497</text>
</a>
</g>
</g>
<!-- AS2914&#45;&gt;AS2497 -->
<g id="edge14" class="edge"><title>AS2914&#45;&gt;AS2497</title>
<path fill="none" stroke="black" stroke-width="2" d="M183.076,-491.066C198.07,-483.919 216.891,-474.948 233.114,-467.215"/>
<polygon fill="black" stroke="black" stroke-width="2" points="234.796,-470.291 242.317,-462.829 231.784,-463.972 234.796,-470.291"/>
</g>
<!-- AS3257&#45;&gt;AS6762 -->
<g id="edge18" class="edge"><title>AS3257&#45;&gt;AS6762</title>
<path fill="none" stroke="black" stroke-width="2" d="M179.533,-464.389C184.789,-468.148 190.121,-472.437 194.586,-477 214.758,-497.617 210.413,-510.383 230.586,-531 232.679,-533.139 234.962,-535.218 237.339,-537.21"/>
<polygon fill="black" stroke="black" stroke-width="2" points="235.582,-540.275 245.638,-543.611 239.857,-534.732 235.582,-540.275"/>
</g>
<!-- AS3257&#45;&gt;AS3491 -->
<g id="edge17" class="edge"><title>AS3257&#45;&gt;AS3491</title>
<path fill="none" stroke="black" d="M183.076,-462.934C198.07,-470.081 216.891,-479.052 233.114,-486.785"/>
<polygon fill="black" stroke="black" points="231.784,-490.028 242.317,-491.171 234.796,-483.709 231.784,-490.028"/>
</g>
<!-- AS3257&#45;&gt;AS209 -->
<g id="edge19" class="edge"><title>AS3257&#45;&gt;AS209</title>
<path fill="none" stroke="black" d="M181.258,-436.393C186.314,-432.649 191.126,-428.169 194.586,-423 235.61,-361.706 189.561,-322.294 230.586,-261 232.452,-258.211 234.712,-255.623 237.192,-253.243"/>
<polygon fill="black" stroke="black" points="239.61,-255.786 245.115,-246.734 235.166,-250.378 239.61,-255.786"/>
</g>
<!-- AS3257&#45;&gt;AS2497 -->
<g id="edge16" class="edge"><title>AS3257&#45;&gt;AS2497</title>
<path fill="none" stroke="black" stroke-width="2" d="M194.612,-450C202.815,-450 211.579,-450 220.111,-450"/>
<polygon fill="black" stroke="black" stroke-width="2" points="220.35,-453.5 230.35,-450 220.35,-446.5 220.35,-453.5"/>
</g>
<!-- AS3320&#45;&gt;AS1239 -->
<g id="edge21" class="edge"><title>AS3320&#45;&gt;AS1239</title>
<path fill="none" stroke="black" d="M166.286,-270.466C174.171,-257.006 185.23,-237.923 194.586,-221 211.132,-191.073 207.936,-178.62 230.586,-153 232.568,-150.758 234.772,-148.606 237.095,-146.563"/>
<polygon fill="black" stroke="black" points="239.628,-149.022 245.296,-140.071 235.283,-143.534 239.628,-149.022"/>
</g>
<!-- AS6453 -->
<g id="node16" class="node"><title>AS6453</title>
<g id="a_node16"><a xlink:href="/asn/6453" xlink:title="AS6453 ~ TATA COMMUNICATIONS (AMERICA) INC [US]">
<ellipse fill="#ffffff" stroke="black" cx="270.232" cy="-288" rx="39.7935" ry="18"/>
<text text-anchor="middle" x="270.232" y="-284.3" font-family="Times,serif" font-size="14.00" fill="#2c94b3">AS6453</text>
</a>
</g>
</g>
<!-- AS3320&#45;&gt;AS6453 -->
<g id="edge20" class="edge"><title>AS3320&#45;&gt;AS6453</title>
<path fill="none" stroke="black" stroke-width="2" d="M194.612,-288C202.815,-288 211.579,-288 220.111,-288"/>
<polygon fill="black" stroke="black" stroke-width="2" points="220.35,-291.5 230.35,-288 220.35,-284.5 220.35,-291.5"/>
</g>
<!-- AS701 -->
<g id="node17" class="node"><title>AS701</title>
<g id="a_node17"><a xlink:href="/asn/701" xlink:title="AS701 ~ UUNET [US]">
<ellipse fill="#ffffff" stroke="black" cx="270.232" cy="-180" rx="35.194" ry="18"/>
<text text-anchor="middle" x="270.232" y="-176.3" font-family="Times,serif" font-size="14.00" fill="#2c94b3">AS701</text>
</a>
</g>
</g>
<!-- AS3320&#45;&gt;AS701 -->
<g id="edge22" class="edge"><title>AS3320&#45;&gt;AS701</title>
<path fill="none" stroke="black" stroke-width="2" d="M169.569,-271.183C183.852,-254.071 207.398,-227.255 230.586,-207 233.256,-204.668 236.128,-202.352 239.059,-200.114"/>
<polygon fill="black" stroke="black" stroke-width="2" points="241.337,-202.784 247.35,-194.061 237.209,-197.13 241.337,-202.784"/>
</g>
<!-- AS3356&#45;&gt;AS6762 -->
<g id="edge24" class="edge"><title>AS3356&#45;&gt;AS6762</title>
<path fill="none" stroke="black" stroke-width="2" d="M181.258,-355.607C186.314,-359.351 191.126,-363.831 194.586,-369 235.61,-430.294 189.561,-469.706 230.586,-531 232.208,-533.423 234.127,-535.695 236.228,-537.81"/>
<polygon fill="black" stroke="black" stroke-width="2" points="234.042,-540.546 243.913,-544.393 238.596,-535.229 234.042,-540.546"/>
</g>
<!-- AS3356&#45;&gt;AS2497 -->
<g id="edge26" class="edge"><title>AS3356&#45;&gt;AS2497</title>
<path fill="none" stroke="black" stroke-width="2" d="M179.533,-356.389C184.789,-360.148 190.121,-364.437 194.586,-369 214.758,-389.617 210.413,-402.383 230.586,-423 232.679,-425.139 234.962,-427.218 237.339,-429.21"/>
<polygon fill="black" stroke="black" stroke-width="2" points="235.582,-432.275 245.638,-435.611 239.857,-426.732 235.582,-432.275"/>
</g>
<!-- AS3356&#45;&gt;AS6453 -->
<g id="edge25" class="edge"><title>AS3356&#45;&gt;AS6453</title>
<path fill="none" stroke="black" d="M183.076,-329.066C198.07,-321.919 216.891,-312.948 233.114,-305.215"/>
<polygon fill="black" stroke="black" points="234.796,-308.291 242.317,-300.829 231.784,-301.972 234.796,-308.291"/>
</g>
<!-- AS3356&#45;&gt;AS701 -->
<g id="edge27" class="edge"><title>AS3356&#45;&gt;AS701</title>
<path fill="none" stroke="black" d="M180.87,-328.118C185.946,-324.389 190.864,-319.984 194.586,-315 224.857,-274.458 200.315,-247.542 230.586,-207 232.594,-204.311 234.95,-201.791 237.491,-199.454"/>
<polygon fill="black" stroke="black" points="239.905,-202.004 245.506,-193.011 235.519,-196.548 239.905,-202.004"/>
</g>
<!-- AS3549 -->
<g id="node18" class="node"><title>AS3549</title>
<g id="a_node18"><a xlink:href="/asn/3549" xlink:title="AS3549 ~ Level 3 Parent, LLC [US]">
<ellipse fill="#ffffff" stroke="black" cx="270.232" cy="-342" rx="39.7935" ry="18"/>
<text text-anchor="middle" x="270.232" y="-338.3" font-family="Times,serif" font-size="14.00" fill="#2c94b3">AS3549</text>
</a>
</g>
</g>
<!-- AS3356&#45;&gt;AS3549 -->
<g id="edge23" class="edge"><title>AS3356&#45;&gt;AS3549</title>
<path fill="none" stroke="black" d="M194.612,-342C202.815,-342 211.579,-342 220.111,-342"/>
<polygon fill="black" stroke="black" points="220.35,-345.5 230.35,-342 220.35,-338.5 220.35,-345.5"/>
</g>
<!-- AS6461 -->
<g id="node19" class="node"><title>AS6461</title>
<g id="a_node19"><a xlink:href="/asn/6461" xlink:title="AS6461 ~ Zayo Bandwidth [US]">
<ellipse fill="#ffffff" stroke="black" cx="270.232" cy="-18" rx="39.7935" ry="18"/>
<text text-anchor="middle" x="270.232" y="-14.3" font-family="Times,serif" font-size="14.00" fill="#2c94b3">AS6461</text>
</a>
</g>
</g>
<!-- AS8218&#45;&gt;AS6461 -->
<g id="edge28" class="edge"><title>AS8218&#45;&gt;AS6461</title>
<path fill="none" stroke="black" stroke-width="2" d="M186.598,-47.9048C199.57,-43.2103 214.864,-37.6756 228.745,-32.6522"/>
<polygon fill="black" stroke="black" stroke-width="2" points="230.337,-35.7982 238.549,-29.1041 227.955,-29.216 230.337,-35.7982"/>
</g>
<!-- AS6939&#45;&gt;AS3491 -->
<g id="edge31" class="edge"><title>AS6939&#45;&gt;AS3491</title>
<path fill="none" stroke="black" d="M179.533,-410.389C184.789,-414.148 190.121,-418.437 194.586,-423 214.758,-443.617 210.413,-456.383 230.586,-477 232.679,-479.139 234.962,-481.218 237.339,-483.21"/>
<polygon fill="black" stroke="black" points="235.582,-486.275 245.638,-489.611 239.857,-480.732 235.582,-486.275"/>
</g>
<!-- AS6939&#45;&gt;AS2497 -->
<g id="edge29" class="edge"><title>AS6939&#45;&gt;AS2497</title>
<path fill="none" stroke="black" d="M183.076,-408.934C198.07,-416.081 216.891,-425.052 233.114,-432.785"/>
<polygon fill="black" stroke="black" points="231.784,-436.028 242.317,-437.171 234.796,-429.709 231.784,-436.028"/>
</g>
<!-- AS1273 -->
<g id="node20" class="node"><title>AS1273</title>
<g id="a_node20"><a xlink:href="/asn/1273" xlink:title="AS1273 ~ Vodafone Group PLC [EU]">
<ellipse fill="#ffffff" stroke="black" cx="270.232" cy="-396" rx="39.7935" ry="18"/>
<text text-anchor="middle" x="270.232" y="-392.3" font-family="Times,serif" font-size="14.00" fill="#2c94b3">AS1273</text>
</a>
</g>
</g>
<!-- AS6939&#45;&gt;AS1273 -->
<g id="edge30" class="edge"><title>AS6939&#45;&gt;AS1273</title>
<path fill="none" stroke="black" d="M194.612,-396C202.815,-396 211.579,-396 220.111,-396"/>
<polygon fill="black" stroke="black" points="220.35,-399.5 230.35,-396 220.35,-392.5 220.35,-399.5"/>
</g>
</g>
</svg>
