<?xml version="1.0" encoding="UTF-8" standalone="no"?>
<!DOCTYPE svg PUBLIC "-//W3C//DTD SVG 1.1//EN"
 "http://www.w3.org/Graphics/SVG/1.1/DTD/svg11.dtd">
<!-- Generated by graphviz version 2.38.0 (20140413.2041)
 -->
<!-- Title: AS202718 Combined Upstream Graph Pages: 1 -->
<svg width="468pt" height="692pt"
 viewBox="0.00 0.00 468.27 692.00" xmlns="http://www.w3.org/2000/svg" xmlns:xlink="http://www.w3.org/1999/xlink">
<g id="graph0" class="graph" transform="scale(1 1) rotate(0) translate(4 688)">
<title>AS202718 Combined Upstream Graph</title>
<polygon fill="white" stroke="none" points="-4,4 -4,-688 464.269,-688 464.269,4 -4,4"/>
<!-- AS202718 -->
<g id="node1" class="node"><title>AS202718</title>
<g id="a_node1"><a xlink:href="/asn/202718" xlink:title="AS202718 ~ sigmavista it consulting gmbh [AT]">
<ellipse fill="#ffffff" stroke="black" cx="48.0957" cy="-328" rx="48.1917" ry="18"/>
<text text-anchor="middle" x="48.0957" y="-324.3" font-family="Times,serif" font-size="14.00" fill="#880000">AS202718</text>
</a>
</g>
</g>
<!-- AS49808 -->
<g id="node2" class="node"><title>AS49808</title>
<g id="a_node2"><a xlink:href="/asn/49808" xlink:title="AS49808 ~ POWERSPEED&#45;AS [AT]">
<ellipse fill="#ffffff" stroke="black" cx="176.388" cy="-328" rx="44.393" ry="18"/>
<text text-anchor="middle" x="176.388" y="-324.3" font-family="Times,serif" font-size="14.00" fill="#2c94b3">AS49808</text>
</a>
</g>
</g>
<!-- AS202718&#45;&gt;AS49808 -->
<g id="edge1" class="edge"><title>AS202718&#45;&gt;AS49808</title>
<path fill="none" stroke="black" stroke-width="4.5" d="M96.4815,-328C104.742,-328 113.386,-328 121.799,-328"/>
<polygon fill="black" stroke="black" stroke-width="4.5" points="121.904,-331.938 131.904,-328 121.904,-324.063 121.904,-331.938"/>
</g>
<!-- AS3356 -->
<g id="node3" class="node"><title>AS3356</title>
<g id="a_node3"><a xlink:href="/asn/3356" xlink:title="AS3356 ~ Level 3 Parent, LLC [US]">
<ellipse fill="#ffffff" stroke="black" cx="296.23" cy="-369" rx="39.7935" ry="18"/>
<text text-anchor="middle" x="296.23" y="-365.3" font-family="Times,serif" font-size="14.00" fill="#2c94b3">AS3356</text>
</a>
</g>
</g>
<!-- AS49808&#45;&gt;AS3356 -->
<g id="edge2" class="edge"><title>AS49808&#45;&gt;AS3356</title>
<path fill="none" stroke="black" stroke-width="4.5" d="M210.527,-339.53C224.244,-344.302 240.284,-349.883 254.693,-354.896"/>
<polygon fill="black" stroke="black" stroke-width="4.5" points="253.621,-358.692 264.36,-358.26 256.209,-351.255 253.621,-358.692"/>
</g>
<!-- AS1299 -->
<g id="node4" class="node"><title>AS1299</title>
<g id="a_node4"><a xlink:href="/asn/1299" xlink:title="AS1299 ~ Telia Carrier [EU]">
<ellipse fill="#ffffff" stroke="black" cx="296.23" cy="-261" rx="39.7935" ry="18"/>
<text text-anchor="middle" x="296.23" y="-257.3" font-family="Times,serif" font-size="14.00" fill="#2c94b3">AS1299</text>
</a>
</g>
</g>
<!-- AS49808&#45;&gt;AS1299 -->
<g id="edge3" class="edge"><title>AS49808&#45;&gt;AS1299</title>
<path fill="none" stroke="black" stroke-width="3.75" d="M202.958,-313.462C220.177,-303.672 243.062,-290.66 261.733,-280.045"/>
<polygon fill="black" stroke="black" stroke-width="3.75" points="263.554,-283.036 270.517,-275.05 260.094,-276.95 263.554,-283.036"/>
</g>
<!-- AS2497 -->
<g id="node5" class="node"><title>AS2497</title>
<g id="a_node5"><a xlink:href="/asn/2497" xlink:title="AS2497 ~ Internet Initiative Japan Inc. [JP]">
<ellipse fill="#ffffff" stroke="black" cx="416.073" cy="-504" rx="39.7935" ry="18"/>
<text text-anchor="middle" x="416.073" y="-500.3" font-family="Times,serif" font-size="14.00" fill="#2c94b3">AS2497</text>
</a>
</g>
</g>
<!-- AS3356&#45;&gt;AS2497 -->
<g id="edge4" class="edge"><title>AS3356&#45;&gt;AS2497</title>
<path fill="none" stroke="black" d="M306.471,-386.713C319.017,-409.561 343.194,-449.611 371.877,-477 374.745,-479.739 377.934,-482.347 381.243,-484.785"/>
<polygon fill="black" stroke="black" points="379.366,-487.742 389.602,-490.477 383.306,-481.956 379.366,-487.742"/>
</g>
<!-- AS3549 -->
<g id="node6" class="node"><title>AS3549</title>
<g id="a_node6"><a xlink:href="/asn/3549" xlink:title="AS3549 ~ Level 3 Parent, LLC [US]">
<ellipse fill="#ffffff" stroke="black" cx="416.073" cy="-666" rx="39.7935" ry="18"/>
<text text-anchor="middle" x="416.073" y="-662.3" font-family="Times,serif" font-size="14.00" fill="#2c94b3">AS3549</text>
</a>
</g>
</g>
<!-- AS3356&#45;&gt;AS3549 -->
<g id="edge5" class="edge"><title>AS3356&#45;&gt;AS3549</title>
<path fill="none" stroke="black" d="M297.822,-387.023C300.198,-433.412 312.116,-558.893 371.877,-639 374.124,-642.013 376.816,-644.769 379.742,-647.272"/>
<polygon fill="black" stroke="black" points="377.773,-650.169 387.894,-653.303 381.937,-644.542 377.773,-650.169"/>
</g>
<!-- AS701 -->
<g id="node7" class="node"><title>AS701</title>
<g id="a_node7"><a xlink:href="/asn/701" xlink:title="AS701 ~ UUNET [US]">
<ellipse fill="#ffffff" stroke="black" cx="416.073" cy="-612" rx="35.194" ry="18"/>
<text text-anchor="middle" x="416.073" y="-608.3" font-family="Times,serif" font-size="14.00" fill="#2c94b3">AS701</text>
</a>
</g>
</g>
<!-- AS3356&#45;&gt;AS701 -->
<g id="edge6" class="edge"><title>AS3356&#45;&gt;AS701</title>
<path fill="none" stroke="black" d="M299.369,-387.17C304.869,-426.974 322.695,-523.233 371.877,-585 374.541,-588.347 377.742,-591.393 381.18,-594.132"/>
<polygon fill="black" stroke="black" points="379.297,-597.087 389.493,-599.965 383.317,-591.357 379.297,-597.087"/>
</g>
<!-- AS6762 -->
<g id="node8" class="node"><title>AS6762</title>
<g id="a_node8"><a xlink:href="/asn/6762" xlink:title="AS6762 ~ TELECOM ITALIA SPARKLE S.p.A. [IT]">
<ellipse fill="#ffffff" stroke="black" cx="416.073" cy="-288" rx="39.7935" ry="18"/>
<text text-anchor="middle" x="416.073" y="-284.3" font-family="Times,serif" font-size="14.00" fill="#2c94b3">AS6762</text>
</a>
</g>
</g>
<!-- AS3356&#45;&gt;AS6762 -->
<g id="edge7" class="edge"><title>AS3356&#45;&gt;AS6762</title>
<path fill="none" stroke="black" d="M317.56,-353.723C332.423,-342.696 353.167,-327.593 371.877,-315 375.426,-312.611 379.176,-310.161 382.924,-307.758"/>
<polygon fill="black" stroke="black" points="384.993,-310.591 391.573,-302.288 381.251,-304.675 384.993,-310.591"/>
</g>
<!-- AS12956 -->
<g id="node9" class="node"><title>AS12956</title>
<g id="a_node9"><a xlink:href="/asn/12956" xlink:title="AS12956 ~ TELXIUS [ES]">
<ellipse fill="#ffffff" stroke="black" cx="416.073" cy="-558" rx="44.393" ry="18"/>
<text text-anchor="middle" x="416.073" y="-554.3" font-family="Times,serif" font-size="14.00" fill="#2c94b3">AS12956</text>
</a>
</g>
</g>
<!-- AS3356&#45;&gt;AS12956 -->
<g id="edge8" class="edge"><title>AS3356&#45;&gt;AS12956</title>
<path fill="none" stroke="black" d="M301.803,-386.946C310.709,-418.995 332.993,-486.842 371.877,-531 374.167,-533.601 376.768,-536.038 379.532,-538.301"/>
<polygon fill="black" stroke="black" points="377.484,-541.14 387.625,-544.208 381.611,-535.485 377.484,-541.14"/>
</g>
<!-- AS6453 -->
<g id="node10" class="node"><title>AS6453</title>
<g id="a_node10"><a xlink:href="/asn/6453" xlink:title="AS6453 ~ TATA COMMUNICATIONS (AMERICA) INC [US]">
<ellipse fill="#ffffff" stroke="black" cx="416.073" cy="-234" rx="39.7935" ry="18"/>
<text text-anchor="middle" x="416.073" y="-230.3" font-family="Times,serif" font-size="14.00" fill="#2c94b3">AS6453</text>
</a>
</g>
</g>
<!-- AS3356&#45;&gt;AS6453 -->
<g id="edge9" class="edge"><title>AS3356&#45;&gt;AS6453</title>
<path fill="none" stroke="black" d="M306.471,-351.287C319.017,-328.439 343.194,-288.389 371.877,-261 374.745,-258.261 377.934,-255.653 381.243,-253.215"/>
<polygon fill="black" stroke="black" points="383.306,-256.044 389.602,-247.523 379.366,-250.258 383.306,-256.044"/>
</g>
<!-- AS1239 -->
<g id="node11" class="node"><title>AS1239</title>
<g id="a_node11"><a xlink:href="/asn/1239" xlink:title="AS1239 ~ Sprint [US]">
<ellipse fill="#ffffff" stroke="black" cx="416.073" cy="-180" rx="39.7935" ry="18"/>
<text text-anchor="middle" x="416.073" y="-176.3" font-family="Times,serif" font-size="14.00" fill="#2c94b3">AS1239</text>
</a>
</g>
</g>
<!-- AS3356&#45;&gt;AS1239 -->
<g id="edge10" class="edge"><title>AS3356&#45;&gt;AS1239</title>
<path fill="none" stroke="black" d="M305.811,-351.367C313.736,-335.002 325.772,-309.935 335.877,-288 352.36,-252.219 346.043,-236.742 371.877,-207 374.341,-204.162 377.178,-201.523 380.196,-199.094"/>
<polygon fill="black" stroke="black" points="382.383,-201.833 388.474,-193.164 378.306,-196.142 382.383,-201.833"/>
</g>
<!-- AS3257 -->
<g id="node12" class="node"><title>AS3257</title>
<g id="a_node12"><a xlink:href="/asn/3257" xlink:title="AS3257 ~ GTT [DE]">
<ellipse fill="#ffffff" stroke="black" cx="416.073" cy="-126" rx="39.7935" ry="18"/>
<text text-anchor="middle" x="416.073" y="-122.3" font-family="Times,serif" font-size="14.00" fill="#2c94b3">AS3257</text>
</a>
</g>
</g>
<!-- AS3356&#45;&gt;AS3257 -->
<g id="edge11" class="edge"><title>AS3356&#45;&gt;AS3257</title>
<path fill="none" stroke="black" d="M306.797,-351.394C315.283,-335.255 327.584,-310.516 335.877,-288 357.338,-229.73 334.973,-202.941 371.877,-153 374.11,-149.977 376.793,-147.214 379.714,-144.707"/>
<polygon fill="black" stroke="black" points="381.909,-147.437 387.857,-138.669 377.74,-141.814 381.909,-147.437"/>
</g>
<!-- AS2914 -->
<g id="node13" class="node"><title>AS2914</title>
<g id="a_node13"><a xlink:href="/asn/2914" xlink:title="AS2914 ~ NTT America, Inc. [US]">
<ellipse fill="#ffffff" stroke="black" cx="416.073" cy="-450" rx="39.7935" ry="18"/>
<text text-anchor="middle" x="416.073" y="-446.3" font-family="Times,serif" font-size="14.00" fill="#2c94b3">AS2914</text>
</a>
</g>
</g>
<!-- AS3356&#45;&gt;AS2914 -->
<g id="edge12" class="edge"><title>AS3356&#45;&gt;AS2914</title>
<path fill="none" stroke="black" d="M317.56,-384.277C332.423,-395.304 353.167,-410.407 371.877,-423 375.426,-425.389 379.176,-427.839 382.924,-430.242"/>
<polygon fill="black" stroke="black" points="381.251,-433.325 391.573,-435.712 384.993,-427.409 381.251,-433.325"/>
</g>
<!-- AS174 -->
<g id="node14" class="node"><title>AS174</title>
<g id="a_node14"><a xlink:href="/asn/174" xlink:title="AS174 ~ Cogent Communications [US]">
<ellipse fill="#ffffff" stroke="black" cx="416.073" cy="-396" rx="35.194" ry="18"/>
<text text-anchor="middle" x="416.073" y="-392.3" font-family="Times,serif" font-size="14.00" fill="#2c94b3">AS174</text>
</a>
</g>
</g>
<!-- AS3356&#45;&gt;AS174 -->
<g id="edge13" class="edge"><title>AS3356&#45;&gt;AS174</title>
<path fill="none" stroke="black" d="M331.949,-376.955C345.042,-379.955 360.064,-383.396 373.705,-386.522"/>
<polygon fill="black" stroke="black" points="373.283,-390.016 383.812,-388.838 374.846,-383.193 373.283,-390.016"/>
</g>
<!-- AS3491 -->
<g id="node15" class="node"><title>AS3491</title>
<g id="a_node15"><a xlink:href="/asn/3491" xlink:title="AS3491 ~ PCCW Global, Inc. [US]">
<ellipse fill="#ffffff" stroke="black" cx="416.073" cy="-342" rx="39.7935" ry="18"/>
<text text-anchor="middle" x="416.073" y="-338.3" font-family="Times,serif" font-size="14.00" fill="#2c94b3">AS3491</text>
</a>
</g>
</g>
<!-- AS3356&#45;&gt;AS3491 -->
<g id="edge14" class="edge"><title>AS3356&#45;&gt;AS3491</title>
<path fill="none" stroke="black" d="M331.949,-361.045C343.949,-358.296 357.57,-355.175 370.263,-352.267"/>
<polygon fill="black" stroke="black" points="371.229,-355.636 380.194,-349.991 369.665,-348.813 371.229,-355.636"/>
</g>
<!-- AS1299&#45;&gt;AS6762 -->
<g id="edge23" class="edge"><title>AS1299&#45;&gt;AS6762</title>
<path fill="none" stroke="black" d="M331.949,-268.955C343.949,-271.704 357.57,-274.825 370.263,-277.733"/>
<polygon fill="black" stroke="black" points="369.665,-281.187 380.194,-280.009 371.229,-274.364 369.665,-281.187"/>
</g>
<!-- AS1299&#45;&gt;AS6453 -->
<g id="edge22" class="edge"><title>AS1299&#45;&gt;AS6453</title>
<path fill="none" stroke="black" d="M331.949,-253.045C343.949,-250.296 357.57,-247.175 370.263,-244.267"/>
<polygon fill="black" stroke="black" points="371.229,-247.636 380.194,-241.991 369.665,-240.813 371.229,-247.636"/>
</g>
<!-- AS1299&#45;&gt;AS1239 -->
<g id="edge20" class="edge"><title>AS1299&#45;&gt;AS1239</title>
<path fill="none" stroke="black" d="M317.56,-245.723C332.423,-234.696 353.167,-219.593 371.877,-207 375.426,-204.611 379.176,-202.161 382.924,-199.758"/>
<polygon fill="black" stroke="black" points="384.993,-202.591 391.573,-194.288 381.251,-196.675 384.993,-202.591"/>
</g>
<!-- AS1299&#45;&gt;AS3257 -->
<g id="edge18" class="edge"><title>AS1299&#45;&gt;AS3257</title>
<path fill="none" stroke="black" d="M306.471,-243.287C319.017,-220.439 343.194,-180.389 371.877,-153 374.745,-150.261 377.934,-147.653 381.243,-145.215"/>
<polygon fill="black" stroke="black" points="383.306,-148.044 389.602,-139.523 379.366,-142.258 383.306,-148.044"/>
</g>
<!-- AS1299&#45;&gt;AS2914 -->
<g id="edge19" class="edge"><title>AS1299&#45;&gt;AS2914</title>
<path fill="none" stroke="black" d="M305.811,-278.633C313.736,-294.998 325.772,-320.065 335.877,-342 352.36,-377.781 346.043,-393.258 371.877,-423 374.341,-425.838 377.178,-428.477 380.196,-430.906"/>
<polygon fill="black" stroke="black" points="378.306,-433.858 388.474,-436.836 382.383,-428.167 378.306,-433.858"/>
</g>
<!-- AS1299&#45;&gt;AS174 -->
<g id="edge21" class="edge"><title>AS1299&#45;&gt;AS174</title>
<path fill="none" stroke="black" d="M306.471,-278.713C319.017,-301.561 343.194,-341.611 371.877,-369 375.131,-372.107 378.797,-375.046 382.584,-377.76"/>
<polygon fill="black" stroke="black" points="380.686,-380.701 390.952,-383.322 384.561,-374.872 380.686,-380.701"/>
</g>
<!-- AS1299&#45;&gt;AS3491 -->
<g id="edge16" class="edge"><title>AS1299&#45;&gt;AS3491</title>
<path fill="none" stroke="black" d="M317.56,-276.277C332.423,-287.304 353.167,-302.407 371.877,-315 375.426,-317.389 379.176,-319.839 382.924,-322.242"/>
<polygon fill="black" stroke="black" points="381.251,-325.325 391.573,-327.712 384.993,-319.409 381.251,-325.325"/>
</g>
<!-- AS7018 -->
<g id="node16" class="node"><title>AS7018</title>
<g id="a_node16"><a xlink:href="/asn/7018" xlink:title="AS7018 ~ AT&amp;T Services, Inc. [US]">
<ellipse fill="#ffffff" stroke="black" cx="416.073" cy="-18" rx="39.7935" ry="18"/>
<text text-anchor="middle" x="416.073" y="-14.3" font-family="Times,serif" font-size="14.00" fill="#2c94b3">AS7018</text>
</a>
</g>
</g>
<!-- AS1299&#45;&gt;AS7018 -->
<g id="edge15" class="edge"><title>AS1299&#45;&gt;AS7018</title>
<path fill="none" stroke="black" d="M299.369,-242.83C304.869,-203.026 322.695,-106.767 371.877,-45 374.218,-42.0596 376.972,-39.3514 379.938,-36.8793"/>
<polygon fill="black" stroke="black" points="382.13,-39.6123 388.144,-30.8896 378.004,-33.9582 382.13,-39.6123"/>
</g>
<!-- AS6461 -->
<g id="node17" class="node"><title>AS6461</title>
<g id="a_node17"><a xlink:href="/asn/6461" xlink:title="AS6461 ~ Zayo Bandwidth [US]">
<ellipse fill="#ffffff" stroke="black" cx="416.073" cy="-72" rx="39.7935" ry="18"/>
<text text-anchor="middle" x="416.073" y="-68.3" font-family="Times,serif" font-size="14.00" fill="#2c94b3">AS6461</text>
</a>
</g>
</g>
<!-- AS1299&#45;&gt;AS6461 -->
<g id="edge17" class="edge"><title>AS1299&#45;&gt;AS6461</title>
<path fill="none" stroke="black" d="M301.803,-243.054C310.709,-211.005 332.993,-143.158 371.877,-99 374.361,-96.1791 377.21,-93.5507 380.236,-91.1287"/>
<polygon fill="black" stroke="black" points="382.422,-93.8687 388.525,-85.2086 378.353,-88.1723 382.422,-93.8687"/>
</g>
</g>
</svg>
