<?xml version="1.0" encoding="UTF-8" standalone="no"?>
<!DOCTYPE svg PUBLIC "-//W3C//DTD SVG 1.1//EN"
 "http://www.w3.org/Graphics/SVG/1.1/DTD/svg11.dtd">
<!-- Generated by graphviz version 2.38.0 (20140413.2041)
 -->
<!-- Title: AS202718 IPv4 Upstream Graph Pages: 1 -->
<svg width="468pt" height="800pt"
 viewBox="0.00 0.00 468.27 800.00" xmlns="http://www.w3.org/2000/svg" xmlns:xlink="http://www.w3.org/1999/xlink">
<g id="graph0" class="graph" transform="scale(1 1) rotate(0) translate(4 796)">
<title>AS202718 IPv4 Upstream Graph</title>
<polygon fill="white" stroke="none" points="-4,4 -4,-796 464.269,-796 464.269,4 -4,4"/>
<!-- AS202718 -->
<g id="node1" class="node"><title>AS202718</title>
<g id="a_node1"><a xlink:href="/asn/202718" xlink:title="AS202718 ~ sigmavista it consulting gmbh [AT]">
<ellipse fill="#ffffff" stroke="black" cx="48.0957" cy="-450" rx="48.1917" ry="18"/>
<text text-anchor="middle" x="48.0957" y="-446.3" font-family="Times,serif" font-size="14.00" fill="#880000">AS202718</text>
</a>
</g>
</g>
<!-- AS49808 -->
<g id="node2" class="node"><title>AS49808</title>
<g id="a_node2"><a xlink:href="/asn/49808" xlink:title="AS49808 ~ POWERSPEED&#45;AS [AT]">
<ellipse fill="#ffffff" stroke="black" cx="176.388" cy="-450" rx="44.393" ry="18"/>
<text text-anchor="middle" x="176.388" y="-446.3" font-family="Times,serif" font-size="14.00" fill="#2c94b3">AS49808</text>
</a>
</g>
</g>
<!-- AS202718&#45;&gt;AS49808 -->
<g id="edge1" class="edge"><title>AS202718&#45;&gt;AS49808</title>
<path fill="none" stroke="black" stroke-width="4.5" d="M96.4815,-450C104.742,-450 113.386,-450 121.799,-450"/>
<polygon fill="black" stroke="black" stroke-width="4.5" points="121.904,-453.938 131.904,-450 121.904,-446.063 121.904,-453.938"/>
</g>
<!-- AS3356 -->
<g id="node3" class="node"><title>AS3356</title>
<g id="a_node3"><a xlink:href="/asn/3356" xlink:title="AS3356 ~ Level 3 Parent, LLC [US]">
<ellipse fill="#ffffff" stroke="black" cx="296.23" cy="-342" rx="39.7935" ry="18"/>
<text text-anchor="middle" x="296.23" y="-338.3" font-family="Times,serif" font-size="14.00" fill="#2c94b3">AS3356</text>
</a>
</g>
</g>
<!-- AS49808&#45;&gt;AS3356 -->
<g id="edge2" class="edge"><title>AS49808&#45;&gt;AS3356</title>
<path fill="none" stroke="black" stroke-width="4.5" d="M195.285,-433.597C215.214,-415.333 247.571,-385.678 270.048,-365.079"/>
<polygon fill="black" stroke="black" stroke-width="4.5" points="272.838,-367.863 277.55,-358.203 267.517,-362.057 272.838,-367.863"/>
</g>
<!-- AS1299 -->
<g id="node4" class="node"><title>AS1299</title>
<g id="a_node4"><a xlink:href="/asn/1299" xlink:title="AS1299 ~ Telia Carrier [EU]">
<ellipse fill="#ffffff" stroke="black" cx="296.23" cy="-558" rx="39.7935" ry="18"/>
<text text-anchor="middle" x="296.23" y="-554.3" font-family="Times,serif" font-size="14.00" fill="#2c94b3">AS1299</text>
</a>
</g>
</g>
<!-- AS49808&#45;&gt;AS1299 -->
<g id="edge3" class="edge"><title>AS49808&#45;&gt;AS1299</title>
<path fill="none" stroke="black" stroke-width="3.11538" d="M195.285,-466.403C215.214,-484.667 247.571,-514.322 270.048,-534.921"/>
<polygon fill="black" stroke="black" stroke-width="3.11538" points="267.813,-537.62 277.55,-541.797 272.543,-532.46 267.813,-537.62"/>
</g>
<!-- AS6453 -->
<g id="node5" class="node"><title>AS6453</title>
<g id="a_node5"><a xlink:href="/asn/6453" xlink:title="AS6453 ~ TATA COMMUNICATIONS (AMERICA) INC [US]">
<ellipse fill="#ffffff" stroke="black" cx="416.073" cy="-180" rx="39.7935" ry="18"/>
<text text-anchor="middle" x="416.073" y="-176.3" font-family="Times,serif" font-size="14.00" fill="#2c94b3">AS6453</text>
</a>
</g>
</g>
<!-- AS3356&#45;&gt;AS6453 -->
<g id="edge4" class="edge"><title>AS3356&#45;&gt;AS6453</title>
<path fill="none" stroke="black" d="M303.753,-324.006C314.504,-296.272 338.161,-242.571 371.877,-207 374.462,-204.272 377.38,-201.706 380.448,-199.323"/>
<polygon fill="black" stroke="black" points="382.627,-202.07 388.797,-193.457 378.602,-196.342 382.627,-202.07"/>
</g>
<!-- AS174 -->
<g id="node6" class="node"><title>AS174</title>
<g id="a_node6"><a xlink:href="/asn/174" xlink:title="AS174 ~ Cogent Communications [US]">
<ellipse fill="#ffffff" stroke="black" cx="416.073" cy="-558" rx="35.194" ry="18"/>
<text text-anchor="middle" x="416.073" y="-554.3" font-family="Times,serif" font-size="14.00" fill="#2c94b3">AS174</text>
</a>
</g>
</g>
<!-- AS3356&#45;&gt;AS174 -->
<g id="edge5" class="edge"><title>AS3356&#45;&gt;AS174</title>
<path fill="none" stroke="black" d="M300.429,-360.073C307.592,-396.141 327.867,-478.125 371.877,-531 374.613,-534.288 377.858,-537.298 381.322,-540.017"/>
<polygon fill="black" stroke="black" points="379.457,-542.983 389.663,-545.827 383.458,-537.239 379.457,-542.983"/>
</g>
<!-- AS209 -->
<g id="node7" class="node"><title>AS209</title>
<g id="a_node7"><a xlink:href="/asn/209" xlink:title="AS209 ~ CenturyLink Communications, LLC [US]">
<ellipse fill="#ffffff" stroke="black" cx="416.073" cy="-126" rx="35.194" ry="18"/>
<text text-anchor="middle" x="416.073" y="-122.3" font-family="Times,serif" font-size="14.00" fill="#2c94b3">AS209</text>
</a>
</g>
</g>
<!-- AS3356&#45;&gt;AS209 -->
<g id="edge6" class="edge"><title>AS3356&#45;&gt;AS209</title>
<path fill="none" stroke="black" d="M300.429,-323.927C307.592,-287.859 327.867,-205.875 371.877,-153 374.613,-149.712 377.858,-146.702 381.322,-143.983"/>
<polygon fill="black" stroke="black" points="383.458,-146.761 389.663,-138.173 379.457,-141.017 383.458,-146.761"/>
</g>
<!-- AS3320 -->
<g id="node8" class="node"><title>AS3320</title>
<g id="a_node8"><a xlink:href="/asn/3320" xlink:title="AS3320 ~ DTAG [DE]">
<ellipse fill="#ffffff" stroke="black" cx="416.073" cy="-72" rx="39.7935" ry="18"/>
<text text-anchor="middle" x="416.073" y="-68.3" font-family="Times,serif" font-size="14.00" fill="#2c94b3">AS3320</text>
</a>
</g>
</g>
<!-- AS3356&#45;&gt;AS3320 -->
<g id="edge7" class="edge"><title>AS3356&#45;&gt;AS3320</title>
<path fill="none" stroke="black" d="M298.514,-323.883C302.413,-280.668 317.429,-169.869 371.877,-99 374.166,-96.0195 376.887,-93.2844 379.831,-90.7955"/>
<polygon fill="black" stroke="black" points="382.025,-93.5267 388.007,-84.7824 377.878,-87.8875 382.025,-93.5267"/>
</g>
<!-- AS701 -->
<g id="node9" class="node"><title>AS701</title>
<g id="a_node9"><a xlink:href="/asn/701" xlink:title="AS701 ~ UUNET [US]">
<ellipse fill="#ffffff" stroke="black" cx="416.073" cy="-18" rx="35.194" ry="18"/>
<text text-anchor="middle" x="416.073" y="-14.3" font-family="Times,serif" font-size="14.00" fill="#2c94b3">AS701</text>
</a>
</g>
</g>
<!-- AS3356&#45;&gt;AS701 -->
<g id="edge8" class="edge"><title>AS3356&#45;&gt;AS701</title>
<path fill="none" stroke="black" d="M297.262,-323.663C298.235,-273.921 306.954,-134.194 371.877,-45 374.394,-41.5411 377.503,-38.4253 380.889,-35.6465"/>
<polygon fill="black" stroke="black" points="383.028,-38.4202 389.147,-29.7711 378.97,-32.7165 383.028,-38.4202"/>
</g>
<!-- AS12956 -->
<g id="node10" class="node"><title>AS12956</title>
<g id="a_node10"><a xlink:href="/asn/12956" xlink:title="AS12956 ~ TELXIUS [ES]">
<ellipse fill="#ffffff" stroke="black" cx="416.073" cy="-342" rx="44.393" ry="18"/>
<text text-anchor="middle" x="416.073" y="-338.3" font-family="Times,serif" font-size="14.00" fill="#2c94b3">AS12956</text>
</a>
</g>
</g>
<!-- AS3356&#45;&gt;AS12956 -->
<g id="edge9" class="edge"><title>AS3356&#45;&gt;AS12956</title>
<path fill="none" stroke="black" d="M336.143,-342C344.245,-342 352.921,-342 361.447,-342"/>
<polygon fill="black" stroke="black" points="361.725,-345.5 371.725,-342 361.724,-338.5 361.725,-345.5"/>
</g>
<!-- AS3257 -->
<g id="node11" class="node"><title>AS3257</title>
<g id="a_node11"><a xlink:href="/asn/3257" xlink:title="AS3257 ~ GTT [DE]">
<ellipse fill="#ffffff" stroke="black" cx="416.073" cy="-504" rx="39.7935" ry="18"/>
<text text-anchor="middle" x="416.073" y="-500.3" font-family="Times,serif" font-size="14.00" fill="#2c94b3">AS3257</text>
</a>
</g>
</g>
<!-- AS3356&#45;&gt;AS3257 -->
<g id="edge10" class="edge"><title>AS3356&#45;&gt;AS3257</title>
<path fill="none" stroke="black" d="M303.753,-359.994C314.504,-387.728 338.161,-441.429 371.877,-477 374.462,-479.728 377.38,-482.294 380.448,-484.677"/>
<polygon fill="black" stroke="black" points="378.602,-487.658 388.797,-490.543 382.627,-481.93 378.602,-487.658"/>
</g>
<!-- AS6762 -->
<g id="node12" class="node"><title>AS6762</title>
<g id="a_node12"><a xlink:href="/asn/6762" xlink:title="AS6762 ~ TELECOM ITALIA SPARKLE S.p.A. [IT]">
<ellipse fill="#ffffff" stroke="black" cx="416.073" cy="-450" rx="39.7935" ry="18"/>
<text text-anchor="middle" x="416.073" y="-446.3" font-family="Times,serif" font-size="14.00" fill="#2c94b3">AS6762</text>
</a>
</g>
</g>
<!-- AS3356&#45;&gt;AS6762 -->
<g id="edge11" class="edge"><title>AS3356&#45;&gt;AS6762</title>
<path fill="none" stroke="black" d="M310.649,-359.065C324.764,-376.375 348.178,-403.345 371.877,-423 375.093,-425.668 378.594,-428.27 382.164,-430.741"/>
<polygon fill="black" stroke="black" points="380.242,-433.666 390.52,-436.236 384.088,-427.817 380.242,-433.666"/>
</g>
<!-- AS2497 -->
<g id="node13" class="node"><title>AS2497</title>
<g id="a_node13"><a xlink:href="/asn/2497" xlink:title="AS2497 ~ Internet Initiative Japan Inc. [JP]">
<ellipse fill="#ffffff" stroke="black" cx="416.073" cy="-288" rx="39.7935" ry="18"/>
<text text-anchor="middle" x="416.073" y="-284.3" font-family="Times,serif" font-size="14.00" fill="#2c94b3">AS2497</text>
</a>
</g>
</g>
<!-- AS3356&#45;&gt;AS2497 -->
<g id="edge12" class="edge"><title>AS3356&#45;&gt;AS2497</title>
<path fill="none" stroke="black" d="M324.859,-329.339C340.816,-322.027 361.087,-312.739 378.369,-304.819"/>
<polygon fill="black" stroke="black" points="379.984,-307.929 387.617,-300.581 377.068,-301.565 379.984,-307.929"/>
</g>
<!-- AS3491 -->
<g id="node14" class="node"><title>AS3491</title>
<g id="a_node14"><a xlink:href="/asn/3491" xlink:title="AS3491 ~ PCCW Global, Inc. [US]">
<ellipse fill="#ffffff" stroke="black" cx="416.073" cy="-396" rx="39.7935" ry="18"/>
<text text-anchor="middle" x="416.073" y="-392.3" font-family="Times,serif" font-size="14.00" fill="#2c94b3">AS3491</text>
</a>
</g>
</g>
<!-- AS3356&#45;&gt;AS3491 -->
<g id="edge13" class="edge"><title>AS3356&#45;&gt;AS3491</title>
<path fill="none" stroke="black" d="M324.859,-354.661C340.816,-361.973 361.087,-371.261 378.369,-379.181"/>
<polygon fill="black" stroke="black" points="377.068,-382.435 387.617,-383.419 379.984,-376.071 377.068,-382.435"/>
</g>
<!-- AS2914 -->
<g id="node15" class="node"><title>AS2914</title>
<g id="a_node15"><a xlink:href="/asn/2914" xlink:title="AS2914 ~ NTT America, Inc. [US]">
<ellipse fill="#ffffff" stroke="black" cx="416.073" cy="-612" rx="39.7935" ry="18"/>
<text text-anchor="middle" x="416.073" y="-608.3" font-family="Times,serif" font-size="14.00" fill="#2c94b3">AS2914</text>
</a>
</g>
</g>
<!-- AS3356&#45;&gt;AS2914 -->
<g id="edge14" class="edge"><title>AS3356&#45;&gt;AS2914</title>
<path fill="none" stroke="black" d="M298.514,-360.117C302.413,-403.332 317.429,-514.131 371.877,-585 374.166,-587.981 376.887,-590.716 379.831,-593.205"/>
<polygon fill="black" stroke="black" points="377.878,-596.113 388.007,-599.218 382.025,-590.473 377.878,-596.113"/>
</g>
<!-- AS3549 -->
<g id="node16" class="node"><title>AS3549</title>
<g id="a_node16"><a xlink:href="/asn/3549" xlink:title="AS3549 ~ Level 3 Parent, LLC [US]">
<ellipse fill="#ffffff" stroke="black" cx="416.073" cy="-234" rx="39.7935" ry="18"/>
<text text-anchor="middle" x="416.073" y="-230.3" font-family="Times,serif" font-size="14.00" fill="#2c94b3">AS3549</text>
</a>
</g>
</g>
<!-- AS3356&#45;&gt;AS3549 -->
<g id="edge15" class="edge"><title>AS3356&#45;&gt;AS3549</title>
<path fill="none" stroke="black" d="M310.649,-324.935C324.764,-307.625 348.178,-280.655 371.877,-261 375.093,-258.332 378.594,-255.73 382.164,-253.259"/>
<polygon fill="black" stroke="black" points="384.088,-256.183 390.52,-247.764 380.242,-250.334 384.088,-256.183"/>
</g>
<!-- AS1299&#45;&gt;AS174 -->
<g id="edge23" class="edge"><title>AS1299&#45;&gt;AS174</title>
<path fill="none" stroke="black" d="M336.143,-558C347.23,-558 359.389,-558 370.771,-558"/>
<polygon fill="black" stroke="black" points="370.953,-561.5 380.953,-558 370.953,-554.5 370.953,-561.5"/>
</g>
<!-- AS1299&#45;&gt;AS3257 -->
<g id="edge18" class="edge"><title>AS1299&#45;&gt;AS3257</title>
<path fill="none" stroke="black" d="M324.859,-545.339C340.816,-538.027 361.087,-528.739 378.369,-520.819"/>
<polygon fill="black" stroke="black" points="379.984,-523.929 387.617,-516.581 377.068,-517.565 379.984,-523.929"/>
</g>
<!-- AS1299&#45;&gt;AS6762 -->
<g id="edge21" class="edge"><title>AS1299&#45;&gt;AS6762</title>
<path fill="none" stroke="black" d="M310.649,-540.935C324.764,-523.625 348.178,-496.655 371.877,-477 375.093,-474.332 378.594,-471.73 382.164,-469.259"/>
<polygon fill="black" stroke="black" points="384.088,-472.183 390.52,-463.764 380.242,-466.334 384.088,-472.183"/>
</g>
<!-- AS1299&#45;&gt;AS3491 -->
<g id="edge16" class="edge"><title>AS1299&#45;&gt;AS3491</title>
<path fill="none" stroke="black" d="M303.753,-540.006C314.504,-512.272 338.161,-458.571 371.877,-423 374.462,-420.272 377.38,-417.706 380.448,-415.323"/>
<polygon fill="black" stroke="black" points="382.627,-418.07 388.797,-409.457 378.602,-412.342 382.627,-418.07"/>
</g>
<!-- AS1299&#45;&gt;AS2914 -->
<g id="edge17" class="edge"><title>AS1299&#45;&gt;AS2914</title>
<path fill="none" stroke="black" d="M324.859,-570.661C340.816,-577.973 361.087,-587.261 378.369,-595.181"/>
<polygon fill="black" stroke="black" points="377.068,-598.435 387.617,-599.419 379.984,-592.071 377.068,-598.435"/>
</g>
<!-- AS1239 -->
<g id="node17" class="node"><title>AS1239</title>
<g id="a_node17"><a xlink:href="/asn/1239" xlink:title="AS1239 ~ Sprint [US]">
<ellipse fill="#ffffff" stroke="black" cx="416.073" cy="-774" rx="39.7935" ry="18"/>
<text text-anchor="middle" x="416.073" y="-770.3" font-family="Times,serif" font-size="14.00" fill="#2c94b3">AS1239</text>
</a>
</g>
</g>
<!-- AS1299&#45;&gt;AS1239 -->
<g id="edge19" class="edge"><title>AS1299&#45;&gt;AS1239</title>
<path fill="none" stroke="black" d="M300.429,-576.073C307.592,-612.141 327.867,-694.125 371.877,-747 374.281,-749.889 377.078,-752.563 380.07,-755.013"/>
<polygon fill="black" stroke="black" points="378.159,-757.95 388.313,-760.973 382.26,-752.277 378.159,-757.95"/>
</g>
<!-- AS6461 -->
<g id="node18" class="node"><title>AS6461</title>
<g id="a_node18"><a xlink:href="/asn/6461" xlink:title="AS6461 ~ Zayo Bandwidth [US]">
<ellipse fill="#ffffff" stroke="black" cx="416.073" cy="-720" rx="39.7935" ry="18"/>
<text text-anchor="middle" x="416.073" y="-716.3" font-family="Times,serif" font-size="14.00" fill="#2c94b3">AS6461</text>
</a>
</g>
</g>
<!-- AS1299&#45;&gt;AS6461 -->
<g id="edge20" class="edge"><title>AS1299&#45;&gt;AS6461</title>
<path fill="none" stroke="black" d="M303.753,-575.994C314.504,-603.728 338.161,-657.429 371.877,-693 374.462,-695.728 377.38,-698.294 380.448,-700.677"/>
<polygon fill="black" stroke="black" points="378.602,-703.658 388.797,-706.543 382.627,-697.93 378.602,-703.658"/>
</g>
<!-- AS7018 -->
<g id="node19" class="node"><title>AS7018</title>
<g id="a_node19"><a xlink:href="/asn/7018" xlink:title="AS7018 ~ AT&amp;T Services, Inc. [US]">
<ellipse fill="#ffffff" stroke="black" cx="416.073" cy="-666" rx="39.7935" ry="18"/>
<text text-anchor="middle" x="416.073" y="-662.3" font-family="Times,serif" font-size="14.00" fill="#2c94b3">AS7018</text>
</a>
</g>
</g>
<!-- AS1299&#45;&gt;AS7018 -->
<g id="edge22" class="edge"><title>AS1299&#45;&gt;AS7018</title>
<path fill="none" stroke="black" d="M310.649,-575.065C324.764,-592.375 348.178,-619.345 371.877,-639 375.093,-641.668 378.594,-644.27 382.164,-646.741"/>
<polygon fill="black" stroke="black" points="380.242,-649.666 390.52,-652.236 384.088,-643.817 380.242,-649.666"/>
</g>
</g>
</svg>
