<?xml version="1.0" encoding="UTF-8" standalone="no"?>
<!DOCTYPE svg PUBLIC "-//W3C//DTD SVG 1.1//EN"
 "http://www.w3.org/Graphics/SVG/1.1/DTD/svg11.dtd">
<!-- Generated by graphviz version 2.38.0 (20140413.2041)
 -->
<!-- Title: AS34502 Combined Upstream Graph Pages: 1 -->
<svg width="460pt" height="692pt"
 viewBox="0.00 0.00 460.47 692.00" xmlns="http://www.w3.org/2000/svg" xmlns:xlink="http://www.w3.org/1999/xlink">
<g id="graph0" class="graph" transform="scale(1 1) rotate(0) translate(4 688)">
<title>AS34502 Combined Upstream Graph</title>
<polygon fill="white" stroke="none" points="-4,4 -4,-688 456.469,-688 456.469,4 -4,4"/>
<!-- AS34502 -->
<g id="node1" class="node"><title>AS34502</title>
<g id="a_node1"><a xlink:href="/asn/34502" xlink:title="AS34502 ~ Xklink [AT]">
<ellipse fill="#ffffff" stroke="black" cx="44.1961" cy="-180" rx="44.393" ry="18"/>
<text text-anchor="middle" x="44.1961" y="-176.3" font-family="Times,serif" font-size="14.00" fill="#880000">AS34502</text>
</a>
</g>
</g>
<!-- AS33891 -->
<g id="node2" class="node"><title>AS33891</title>
<g id="a_node2"><a xlink:href="/asn/33891" xlink:title="AS33891 ~ CORE&#45;BACKBONE GMBH GLOBAL NETWORK [DE]">
<ellipse fill="#ffffff" stroke="black" cx="168.588" cy="-180" rx="44.393" ry="18"/>
<text text-anchor="middle" x="168.588" y="-176.3" font-family="Times,serif" font-size="14.00" fill="#2c94b3">AS33891</text>
</a>
</g>
</g>
<!-- AS34502&#45;&gt;AS33891 -->
<g id="edge1" class="edge"><title>AS34502&#45;&gt;AS33891</title>
<path fill="none" stroke="black" stroke-width="4.5" d="M88.6916,-180C96.898,-180 105.569,-180 114.041,-180"/>
<polygon fill="black" stroke="black" stroke-width="4.5" points="114.233,-183.938 124.233,-180 114.233,-176.063 114.233,-183.938"/>
</g>
<!-- AS3356 -->
<g id="node3" class="node"><title>AS3356</title>
<g id="a_node3"><a xlink:href="/asn/3356" xlink:title="AS3356 ~ Level 3 Parent, LLC [US]">
<ellipse fill="#ffffff" stroke="black" cx="288.431" cy="-369" rx="39.7935" ry="18"/>
<text text-anchor="middle" x="288.431" y="-365.3" font-family="Times,serif" font-size="14.00" fill="#2c94b3">AS3356</text>
</a>
</g>
</g>
<!-- AS33891&#45;&gt;AS3356 -->
<g id="edge2" class="edge"><title>AS33891&#45;&gt;AS3356</title>
<path fill="none" stroke="black" stroke-width="4.5" d="M180.463,-197.442C201.247,-230.775 246.707,-303.686 271.136,-342.866"/>
<polygon fill="black" stroke="black" stroke-width="4.5" points="267.95,-345.198 276.582,-351.6 274.632,-341.031 267.95,-345.198"/>
</g>
<!-- AS1299 -->
<g id="node4" class="node"><title>AS1299</title>
<g id="a_node4"><a xlink:href="/asn/1299" xlink:title="AS1299 ~ Telia Carrier [EU]">
<ellipse fill="#ffffff" stroke="black" cx="288.431" cy="-180" rx="39.7935" ry="18"/>
<text text-anchor="middle" x="288.431" y="-176.3" font-family="Times,serif" font-size="14.00" fill="#2c94b3">AS1299</text>
</a>
</g>
</g>
<!-- AS33891&#45;&gt;AS1299 -->
<g id="edge3" class="edge"><title>AS33891&#45;&gt;AS1299</title>
<path fill="none" stroke="black" stroke-width="2.625" d="M212.799,-180C221.112,-180 229.875,-180 238.357,-180"/>
<polygon fill="black" stroke="black" stroke-width="2.625" points="238.516,-183.5 248.516,-180 238.516,-176.5 238.516,-183.5"/>
</g>
<!-- AS6461 -->
<g id="node5" class="node"><title>AS6461</title>
<g id="a_node5"><a xlink:href="/asn/6461" xlink:title="AS6461 ~ ZAYO&#45;6461 [US]">
<ellipse fill="#ffffff" stroke="black" cx="288.431" cy="-126" rx="39.7935" ry="18"/>
<text text-anchor="middle" x="288.431" y="-122.3" font-family="Times,serif" font-size="14.00" fill="#2c94b3">AS6461</text>
</a>
</g>
</g>
<!-- AS33891&#45;&gt;AS6461 -->
<g id="edge4" class="edge"><title>AS33891&#45;&gt;AS6461</title>
<path fill="none" stroke="black" stroke-width="0.375" d="M198.718,-166.652C214.329,-159.498 233.727,-150.609 250.399,-142.97"/>
<polygon fill="black" stroke="black" stroke-width="0.375" points="252.218,-145.986 259.851,-138.638 249.302,-139.622 252.218,-145.986"/>
</g>
<!-- AS6762 -->
<g id="node6" class="node"><title>AS6762</title>
<g id="a_node6"><a xlink:href="/asn/6762" xlink:title="AS6762 ~ TELECOM ITALIA SPARKLE S.p.A. [IT]">
<ellipse fill="#ffffff" stroke="black" cx="408.273" cy="-450" rx="39.7935" ry="18"/>
<text text-anchor="middle" x="408.273" y="-446.3" font-family="Times,serif" font-size="14.00" fill="#2c94b3">AS6762</text>
</a>
</g>
</g>
<!-- AS3356&#45;&gt;AS6762 -->
<g id="edge5" class="edge"><title>AS3356&#45;&gt;AS6762</title>
<path fill="none" stroke="black" d="M309.761,-384.277C324.623,-395.304 345.368,-410.407 364.077,-423 367.626,-425.389 371.377,-427.839 375.125,-430.242"/>
<polygon fill="black" stroke="black" points="373.451,-433.325 383.774,-435.712 377.193,-427.409 373.451,-433.325"/>
</g>
<!-- AS3549 -->
<g id="node7" class="node"><title>AS3549</title>
<g id="a_node7"><a xlink:href="/asn/3549" xlink:title="AS3549 ~ Level 3 Parent, LLC [US]">
<ellipse fill="#ffffff" stroke="black" cx="408.273" cy="-396" rx="39.7935" ry="18"/>
<text text-anchor="middle" x="408.273" y="-392.3" font-family="Times,serif" font-size="14.00" fill="#2c94b3">AS3549</text>
</a>
</g>
</g>
<!-- AS3356&#45;&gt;AS3549 -->
<g id="edge6" class="edge"><title>AS3356&#45;&gt;AS3549</title>
<path fill="none" stroke="black" d="M324.15,-376.955C336.15,-379.704 349.771,-382.825 362.463,-385.733"/>
<polygon fill="black" stroke="black" points="361.866,-389.187 372.395,-388.009 363.429,-382.364 361.866,-389.187"/>
</g>
<!-- AS209 -->
<g id="node8" class="node"><title>AS209</title>
<g id="a_node8"><a xlink:href="/asn/209" xlink:title="AS209 ~ CenturyLink Communications, LLC [US]">
<ellipse fill="#ffffff" stroke="black" cx="408.273" cy="-342" rx="35.194" ry="18"/>
<text text-anchor="middle" x="408.273" y="-338.3" font-family="Times,serif" font-size="14.00" fill="#2c94b3">AS209</text>
</a>
</g>
</g>
<!-- AS3356&#45;&gt;AS209 -->
<g id="edge7" class="edge"><title>AS3356&#45;&gt;AS209</title>
<path fill="none" stroke="black" d="M324.15,-361.045C337.243,-358.045 352.265,-354.604 365.906,-351.478"/>
<polygon fill="black" stroke="black" points="367.047,-354.807 376.013,-349.162 365.484,-347.984 367.047,-354.807"/>
</g>
<!-- AS12956 -->
<g id="node9" class="node"><title>AS12956</title>
<g id="a_node9"><a xlink:href="/asn/12956" xlink:title="AS12956 ~ TELXIUS [ES]">
<ellipse fill="#ffffff" stroke="black" cx="408.273" cy="-666" rx="44.393" ry="18"/>
<text text-anchor="middle" x="408.273" y="-662.3" font-family="Times,serif" font-size="14.00" fill="#2c94b3">AS12956</text>
</a>
</g>
</g>
<!-- AS3356&#45;&gt;AS12956 -->
<g id="edge8" class="edge"><title>AS3356&#45;&gt;AS12956</title>
<path fill="none" stroke="black" d="M290.023,-387.023C292.399,-433.412 304.317,-558.893 364.077,-639 366.034,-641.623 368.327,-644.051 370.819,-646.287"/>
<polygon fill="black" stroke="black" points="368.699,-649.072 378.752,-652.418 372.98,-643.534 368.699,-649.072"/>
</g>
<!-- AS701 -->
<g id="node10" class="node"><title>AS701</title>
<g id="a_node10"><a xlink:href="/asn/701" xlink:title="AS701 ~ UUNET [US]">
<ellipse fill="#ffffff" stroke="black" cx="408.273" cy="-612" rx="35.194" ry="18"/>
<text text-anchor="middle" x="408.273" y="-608.3" font-family="Times,serif" font-size="14.00" fill="#2c94b3">AS701</text>
</a>
</g>
</g>
<!-- AS3356&#45;&gt;AS701 -->
<g id="edge9" class="edge"><title>AS3356&#45;&gt;AS701</title>
<path fill="none" stroke="black" d="M291.57,-387.17C297.07,-426.974 314.896,-523.233 364.077,-585 366.742,-588.347 369.942,-591.393 373.38,-594.132"/>
<polygon fill="black" stroke="black" points="371.498,-597.087 381.694,-599.965 375.518,-591.357 371.498,-597.087"/>
</g>
<!-- AS1239 -->
<g id="node11" class="node"><title>AS1239</title>
<g id="a_node11"><a xlink:href="/asn/1239" xlink:title="AS1239 ~ Sprint [US]">
<ellipse fill="#ffffff" stroke="black" cx="408.273" cy="-234" rx="39.7935" ry="18"/>
<text text-anchor="middle" x="408.273" y="-230.3" font-family="Times,serif" font-size="14.00" fill="#2c94b3">AS1239</text>
</a>
</g>
</g>
<!-- AS3356&#45;&gt;AS1239 -->
<g id="edge10" class="edge"><title>AS3356&#45;&gt;AS1239</title>
<path fill="none" stroke="black" d="M298.672,-351.287C311.218,-328.439 335.394,-288.389 364.077,-261 366.946,-258.261 370.134,-255.653 373.443,-253.215"/>
<polygon fill="black" stroke="black" points="375.507,-256.044 381.803,-247.523 371.567,-250.258 375.507,-256.044"/>
</g>
<!-- AS2914 -->
<g id="node12" class="node"><title>AS2914</title>
<g id="a_node12"><a xlink:href="/asn/2914" xlink:title="AS2914 ~ NTT America, Inc. [US]">
<ellipse fill="#ffffff" stroke="black" cx="408.273" cy="-180" rx="39.7935" ry="18"/>
<text text-anchor="middle" x="408.273" y="-176.3" font-family="Times,serif" font-size="14.00" fill="#2c94b3">AS2914</text>
</a>
</g>
</g>
<!-- AS3356&#45;&gt;AS2914 -->
<g id="edge11" class="edge"><title>AS3356&#45;&gt;AS2914</title>
<path fill="none" stroke="black" d="M294.004,-351.054C302.909,-319.005 325.194,-251.158 364.077,-207 366.561,-204.179 369.411,-201.551 372.437,-199.129"/>
<polygon fill="black" stroke="black" points="374.622,-201.869 380.726,-193.209 370.554,-196.172 374.622,-201.869"/>
</g>
<!-- AS3491 -->
<g id="node13" class="node"><title>AS3491</title>
<g id="a_node13"><a xlink:href="/asn/3491" xlink:title="AS3491 ~ PCCW Global, Inc. [US]">
<ellipse fill="#ffffff" stroke="black" cx="408.273" cy="-558" rx="39.7935" ry="18"/>
<text text-anchor="middle" x="408.273" y="-554.3" font-family="Times,serif" font-size="14.00" fill="#2c94b3">AS3491</text>
</a>
</g>
</g>
<!-- AS3356&#45;&gt;AS3491 -->
<g id="edge12" class="edge"><title>AS3356&#45;&gt;AS3491</title>
<path fill="none" stroke="black" d="M294.004,-386.946C302.909,-418.995 325.194,-486.842 364.077,-531 366.561,-533.821 369.411,-536.449 372.437,-538.871"/>
<polygon fill="black" stroke="black" points="370.554,-541.828 380.726,-544.791 374.622,-536.131 370.554,-541.828"/>
</g>
<!-- AS3257 -->
<g id="node14" class="node"><title>AS3257</title>
<g id="a_node14"><a xlink:href="/asn/3257" xlink:title="AS3257 ~ GTT [DE]">
<ellipse fill="#ffffff" stroke="black" cx="408.273" cy="-126" rx="39.7935" ry="18"/>
<text text-anchor="middle" x="408.273" y="-122.3" font-family="Times,serif" font-size="14.00" fill="#2c94b3">AS3257</text>
</a>
</g>
</g>
<!-- AS3356&#45;&gt;AS3257 -->
<g id="edge13" class="edge"><title>AS3356&#45;&gt;AS3257</title>
<path fill="none" stroke="black" d="M291.57,-350.83C297.07,-311.026 314.896,-214.767 364.077,-153 366.419,-150.06 369.173,-147.351 372.139,-144.879"/>
<polygon fill="black" stroke="black" points="374.331,-147.612 380.345,-138.89 370.204,-141.958 374.331,-147.612"/>
</g>
<!-- AS2497 -->
<g id="node15" class="node"><title>AS2497</title>
<g id="a_node15"><a xlink:href="/asn/2497" xlink:title="AS2497 ~ Internet Initiative Japan Inc. [JP]">
<ellipse fill="#ffffff" stroke="black" cx="408.273" cy="-288" rx="39.7935" ry="18"/>
<text text-anchor="middle" x="408.273" y="-284.3" font-family="Times,serif" font-size="14.00" fill="#2c94b3">AS2497</text>
</a>
</g>
</g>
<!-- AS3356&#45;&gt;AS2497 -->
<g id="edge14" class="edge"><title>AS3356&#45;&gt;AS2497</title>
<path fill="none" stroke="black" d="M309.761,-353.723C324.623,-342.696 345.368,-327.593 364.077,-315 367.626,-312.611 371.377,-310.161 375.125,-307.758"/>
<polygon fill="black" stroke="black" points="377.193,-310.591 383.774,-302.288 373.451,-304.675 377.193,-310.591"/>
</g>
<!-- AS6453 -->
<g id="node16" class="node"><title>AS6453</title>
<g id="a_node16"><a xlink:href="/asn/6453" xlink:title="AS6453 ~ TATA COMMUNICATIONS (AMERICA) INC [US]">
<ellipse fill="#ffffff" stroke="black" cx="408.273" cy="-504" rx="39.7935" ry="18"/>
<text text-anchor="middle" x="408.273" y="-500.3" font-family="Times,serif" font-size="14.00" fill="#2c94b3">AS6453</text>
</a>
</g>
</g>
<!-- AS3356&#45;&gt;AS6453 -->
<g id="edge15" class="edge"><title>AS3356&#45;&gt;AS6453</title>
<path fill="none" stroke="black" d="M298.672,-386.713C311.218,-409.561 335.394,-449.611 364.077,-477 366.946,-479.739 370.134,-482.347 373.443,-484.785"/>
<polygon fill="black" stroke="black" points="371.567,-487.742 381.803,-490.477 375.507,-481.956 371.567,-487.742"/>
</g>
<!-- AS1299&#45;&gt;AS1239 -->
<g id="edge18" class="edge"><title>AS1299&#45;&gt;AS1239</title>
<path fill="none" stroke="black" d="M317.06,-192.661C333.017,-199.973 353.287,-209.261 370.57,-217.181"/>
<polygon fill="black" stroke="black" points="369.269,-220.435 379.818,-221.419 372.185,-214.071 369.269,-220.435"/>
</g>
<!-- AS1299&#45;&gt;AS2914 -->
<g id="edge20" class="edge"><title>AS1299&#45;&gt;AS2914</title>
<path fill="none" stroke="black" d="M328.343,-180C337.897,-180 348.246,-180 358.209,-180"/>
<polygon fill="black" stroke="black" points="358.402,-183.5 368.402,-180 358.402,-176.5 358.402,-183.5"/>
</g>
<!-- AS1299&#45;&gt;AS3257 -->
<g id="edge21" class="edge"><title>AS1299&#45;&gt;AS3257</title>
<path fill="none" stroke="black" d="M317.06,-167.339C333.017,-160.027 353.287,-150.739 370.57,-142.819"/>
<polygon fill="black" stroke="black" points="372.185,-145.929 379.818,-138.581 369.269,-139.565 372.185,-145.929"/>
</g>
<!-- AS1299&#45;&gt;AS2497 -->
<g id="edge19" class="edge"><title>AS1299&#45;&gt;AS2497</title>
<path fill="none" stroke="black" d="M302.85,-197.065C316.964,-214.375 340.379,-241.345 364.077,-261 367.294,-263.668 370.794,-266.27 374.365,-268.741"/>
<polygon fill="black" stroke="black" points="372.442,-271.666 382.721,-274.236 376.288,-265.817 372.442,-271.666"/>
</g>
<!-- AS174 -->
<g id="node17" class="node"><title>AS174</title>
<g id="a_node17"><a xlink:href="/asn/174" xlink:title="AS174 ~ Cogent Communications [US]">
<ellipse fill="#ffffff" stroke="black" cx="408.273" cy="-18" rx="35.194" ry="18"/>
<text text-anchor="middle" x="408.273" y="-14.3" font-family="Times,serif" font-size="14.00" fill="#2c94b3">AS174</text>
</a>
</g>
</g>
<!-- AS1299&#45;&gt;AS174 -->
<g id="edge16" class="edge"><title>AS1299&#45;&gt;AS174</title>
<path fill="none" stroke="black" d="M314.362,-166.118C319.438,-162.389 324.356,-157.984 328.077,-153 358.349,-112.458 332.779,-84.7541 364.077,-45 366.724,-41.6386 369.912,-38.5835 373.344,-35.8389"/>
<polygon fill="black" stroke="black" points="375.482,-38.6142 381.651,-30.0004 371.457,-32.8873 375.482,-38.6142"/>
</g>
<!-- AS7018 -->
<g id="node18" class="node"><title>AS7018</title>
<g id="a_node18"><a xlink:href="/asn/7018" xlink:title="AS7018 ~ AT&amp;T Services, Inc. [US]">
<ellipse fill="#ffffff" stroke="black" cx="408.273" cy="-72" rx="39.7935" ry="18"/>
<text text-anchor="middle" x="408.273" y="-68.3" font-family="Times,serif" font-size="14.00" fill="#2c94b3">AS7018</text>
</a>
</g>
</g>
<!-- AS1299&#45;&gt;AS7018 -->
<g id="edge17" class="edge"><title>AS1299&#45;&gt;AS7018</title>
<path fill="none" stroke="black" d="M313.025,-165.611C318.281,-161.852 323.613,-157.563 328.077,-153 348.25,-132.383 343.384,-119.094 364.077,-99 366.922,-96.2372 370.096,-93.6138 373.396,-91.1658"/>
<polygon fill="black" stroke="black" points="375.462,-93.9935 381.744,-85.4623 371.513,-88.2137 375.462,-93.9935"/>
</g>
</g>
</svg>
