<?xml version="1.0" encoding="UTF-8" standalone="no"?>
<!DOCTYPE svg PUBLIC "-//W3C//DTD SVG 1.1//EN"
 "http://www.w3.org/Graphics/SVG/1.1/DTD/svg11.dtd">
<!-- Generated by graphviz version 2.38.0 (20140413.2041)
 -->
<!-- Title: AS2036 Combined Upstream Graph Pages: 1 -->
<svg width="567pt" height="530pt"
 viewBox="0.00 0.00 566.66 530.00" xmlns="http://www.w3.org/2000/svg" xmlns:xlink="http://www.w3.org/1999/xlink">
<g id="graph0" class="graph" transform="scale(1 1) rotate(0) translate(4 526)">
<title>AS2036 Combined Upstream Graph</title>
<polygon fill="white" stroke="none" points="-4,4 -4,-526 562.663,-526 562.663,4 -4,4"/>
<!-- AS2036 -->
<g id="node1" class="node"><title>AS2036</title>
<g id="a_node1"><a xlink:href="/asn/2036" xlink:title="AS2036 ~ JOANNEUM RESEARCH [AT]">
<ellipse fill="#ffffff" stroke="black" cx="39.6465" cy="-213" rx="39.7935" ry="18"/>
<text text-anchor="middle" x="39.6465" y="-209.3" font-family="Times,serif" font-size="14.00" fill="#880000">AS2036</text>
</a>
</g>
</g>
<!-- AS1853 -->
<g id="node2" class="node"><title>AS1853</title>
<g id="a_node2"><a xlink:href="/asn/1853" xlink:title="AS1853 ~ ACOnet Backbone [AT]">
<ellipse fill="#ffffff" stroke="black" cx="154.939" cy="-213" rx="39.7935" ry="18"/>
<text text-anchor="middle" x="154.939" y="-209.3" font-family="Times,serif" font-size="14.00" fill="#2c94b3">AS1853</text>
</a>
</g>
</g>
<!-- AS2036&#45;&gt;AS1853 -->
<g id="edge1" class="edge"><title>AS2036&#45;&gt;AS1853</title>
<path fill="none" stroke="black" stroke-width="4.5" d="M79.3186,-213C87.5216,-213 96.2857,-213 104.818,-213"/>
<polygon fill="black" stroke="black" stroke-width="4.5" points="105.057,-216.938 115.057,-213 105.057,-209.063 105.057,-216.938"/>
</g>
<!-- AS3356 -->
<g id="node3" class="node"><title>AS3356</title>
<g id="a_node3"><a xlink:href="/asn/3356" xlink:title="AS3356 ~ Level 3 Parent, LLC [US]">
<ellipse fill="#ffffff" stroke="black" cx="394.625" cy="-396" rx="39.7935" ry="18"/>
<text text-anchor="middle" x="394.625" y="-392.3" font-family="Times,serif" font-size="14.00" fill="#2c94b3">AS3356</text>
</a>
</g>
</g>
<!-- AS1853&#45;&gt;AS3356 -->
<g id="edge2" class="edge"><title>AS1853&#45;&gt;AS3356</title>
<path fill="none" stroke="black" stroke-width="1.28571" d="M176.204,-228.602C218.672,-261.3 317.073,-337.061 365.573,-374.402"/>
<polygon fill="black" stroke="black" stroke-width="1.28571" points="363.687,-377.368 373.746,-380.695 367.958,-371.821 363.687,-377.368"/>
</g>
<!-- AS1764 -->
<g id="node4" class="node"><title>AS1764</title>
<g id="a_node4"><a xlink:href="/asn/1764" xlink:title="AS1764 ~ NEXTLAYER&#45;AS [AT]">
<ellipse fill="#ffffff" stroke="black" cx="274.782" cy="-213" rx="39.7935" ry="18"/>
<text text-anchor="middle" x="274.782" y="-209.3" font-family="Times,serif" font-size="14.00" fill="#2c94b3">AS1764</text>
</a>
</g>
</g>
<!-- AS1853&#45;&gt;AS1764 -->
<g id="edge3" class="edge"><title>AS1853&#45;&gt;AS1764</title>
<path fill="none" stroke="black" stroke-width="4.5" d="M194.852,-213C204.405,-213 214.755,-213 224.718,-213"/>
<polygon fill="black" stroke="black" stroke-width="4.5" points="224.91,-216.938 234.91,-213 224.91,-209.063 224.91,-216.938"/>
</g>
<!-- AS21320 -->
<g id="node5" class="node"><title>AS21320</title>
<g id="a_node5"><a xlink:href="/asn/21320" xlink:title="AS21320 ~ GEANT Vereniging [EU]">
<ellipse fill="#ffffff" stroke="black" cx="274.782" cy="-132" rx="44.393" ry="18"/>
<text text-anchor="middle" x="274.782" y="-128.3" font-family="Times,serif" font-size="14.00" fill="#2c94b3">AS21320</text>
</a>
</g>
</g>
<!-- AS1853&#45;&gt;AS21320 -->
<g id="edge4" class="edge"><title>AS1853&#45;&gt;AS21320</title>
<path fill="none" stroke="black" stroke-width="0.321429" d="M177.554,-198.143C195.926,-185.515 222.519,-167.236 243.095,-153.093"/>
<polygon fill="black" stroke="black" stroke-width="0.321429" points="245.246,-155.862 251.504,-147.313 241.281,-150.093 245.246,-155.862"/>
</g>
<!-- AS6762 -->
<g id="node6" class="node"><title>AS6762</title>
<g id="a_node6"><a xlink:href="/asn/6762" xlink:title="AS6762 ~ TELECOM ITALIA SPARKLE S.p.A. [IT]">
<ellipse fill="#ffffff" stroke="black" cx="514.467" cy="-342" rx="39.7935" ry="18"/>
<text text-anchor="middle" x="514.467" y="-338.3" font-family="Times,serif" font-size="14.00" fill="#2c94b3">AS6762</text>
</a>
</g>
</g>
<!-- AS3356&#45;&gt;AS6762 -->
<g id="edge5" class="edge"><title>AS3356&#45;&gt;AS6762</title>
<path fill="none" stroke="black" d="M423.253,-383.339C439.21,-376.027 459.481,-366.739 476.764,-358.819"/>
<polygon fill="black" stroke="black" points="478.378,-361.929 486.011,-354.581 475.462,-355.565 478.378,-361.929"/>
</g>
<!-- AS2497 -->
<g id="node7" class="node"><title>AS2497</title>
<g id="a_node7"><a xlink:href="/asn/2497" xlink:title="AS2497 ~ Internet Initiative Japan Inc. [JP]">
<ellipse fill="#ffffff" stroke="black" cx="514.467" cy="-450" rx="39.7935" ry="18"/>
<text text-anchor="middle" x="514.467" y="-446.3" font-family="Times,serif" font-size="14.00" fill="#2c94b3">AS2497</text>
</a>
</g>
</g>
<!-- AS3356&#45;&gt;AS2497 -->
<g id="edge6" class="edge"><title>AS3356&#45;&gt;AS2497</title>
<path fill="none" stroke="black" d="M423.253,-408.661C439.21,-415.973 459.481,-425.261 476.764,-433.181"/>
<polygon fill="black" stroke="black" points="475.462,-436.435 486.011,-437.419 478.378,-430.071 475.462,-436.435"/>
</g>
<!-- AS3549 -->
<g id="node8" class="node"><title>AS3549</title>
<g id="a_node8"><a xlink:href="/asn/3549" xlink:title="AS3549 ~ Level 3 Parent, LLC [US]">
<ellipse fill="#ffffff" stroke="black" cx="514.467" cy="-504" rx="39.7935" ry="18"/>
<text text-anchor="middle" x="514.467" y="-500.3" font-family="Times,serif" font-size="14.00" fill="#2c94b3">AS3549</text>
</a>
</g>
</g>
<!-- AS3356&#45;&gt;AS3549 -->
<g id="edge7" class="edge"><title>AS3356&#45;&gt;AS3549</title>
<path fill="none" stroke="black" d="M409.044,-413.065C423.158,-430.375 446.573,-457.345 470.271,-477 473.487,-479.668 476.988,-482.27 480.558,-484.741"/>
<polygon fill="black" stroke="black" points="478.636,-487.666 488.915,-490.236 482.482,-481.817 478.636,-487.666"/>
</g>
<!-- AS1299 -->
<g id="node9" class="node"><title>AS1299</title>
<g id="a_node9"><a xlink:href="/asn/1299" xlink:title="AS1299 ~ Telia Carrier [EU]">
<ellipse fill="#ffffff" stroke="black" cx="394.625" cy="-193" rx="39.7935" ry="18"/>
<text text-anchor="middle" x="394.625" y="-189.3" font-family="Times,serif" font-size="14.00" fill="#2c94b3">AS1299</text>
</a>
</g>
</g>
<!-- AS1764&#45;&gt;AS1299 -->
<g id="edge8" class="edge"><title>AS1764&#45;&gt;AS1299</title>
<path fill="none" stroke="black" stroke-width="3.375" d="M312.1,-206.836C323.189,-204.954 335.536,-202.859 347.199,-200.879"/>
<polygon fill="black" stroke="black" stroke-width="3.375" points="347.95,-204.302 357.223,-199.178 346.779,-197.401 347.95,-204.302"/>
</g>
<!-- AS2914 -->
<g id="node10" class="node"><title>AS2914</title>
<g id="a_node10"><a xlink:href="/asn/2914" xlink:title="AS2914 ~ NTT America, Inc. [US]">
<ellipse fill="#ffffff" stroke="black" cx="394.625" cy="-261" rx="39.7935" ry="18"/>
<text text-anchor="middle" x="394.625" y="-257.3" font-family="Times,serif" font-size="14.00" fill="#2c94b3">AS2914</text>
</a>
</g>
</g>
<!-- AS1764&#45;&gt;AS2914 -->
<g id="edge9" class="edge"><title>AS1764&#45;&gt;AS2914</title>
<path fill="none" stroke="black" stroke-width="4.5" d="M304.912,-224.865C320.067,-231.038 338.791,-238.665 355.125,-245.318"/>
<polygon fill="black" stroke="black" stroke-width="4.5" points="353.675,-248.979 364.422,-249.105 356.646,-241.686 353.675,-248.979"/>
</g>
<!-- AS2603 -->
<g id="node18" class="node"><title>AS2603</title>
<g id="a_node18"><a xlink:href="/asn/2603" xlink:title="AS2603 ~ NORDUnet [NO]">
<ellipse fill="#ffffff" stroke="black" cx="394.625" cy="-119" rx="39.7935" ry="18"/>
<text text-anchor="middle" x="394.625" y="-115.3" font-family="Times,serif" font-size="14.00" fill="#2c94b3">AS2603</text>
</a>
</g>
</g>
<!-- AS21320&#45;&gt;AS2603 -->
<g id="edge22" class="edge"><title>AS21320&#45;&gt;AS2603</title>
<path fill="none" stroke="black" d="M317.661,-127.38C326.697,-126.383 336.319,-125.322 345.57,-124.301"/>
<polygon fill="black" stroke="black" points="346.251,-127.747 355.807,-123.172 345.483,-120.79 346.251,-127.747"/>
</g>
<!-- AS1299&#45;&gt;AS6762 -->
<g id="edge12" class="edge"><title>AS1299&#45;&gt;AS6762</title>
<path fill="none" stroke="black" d="M413.181,-209.054C420.338,-216.212 428.311,-225.041 434.271,-234 456.092,-266.8 444.437,-285.258 470.271,-315 472.736,-317.838 475.573,-320.477 478.59,-322.906"/>
<polygon fill="black" stroke="black" points="476.701,-325.858 486.868,-328.836 480.777,-320.167 476.701,-325.858"/>
</g>
<!-- AS1239 -->
<g id="node11" class="node"><title>AS1239</title>
<g id="a_node11"><a xlink:href="/asn/1239" xlink:title="AS1239 ~ Sprint [US]">
<ellipse fill="#ffffff" stroke="black" cx="514.467" cy="-126" rx="39.7935" ry="18"/>
<text text-anchor="middle" x="514.467" y="-122.3" font-family="Times,serif" font-size="14.00" fill="#2c94b3">AS1239</text>
</a>
</g>
</g>
<!-- AS1299&#45;&gt;AS1239 -->
<g id="edge10" class="edge"><title>AS1299&#45;&gt;AS1239</title>
<path fill="none" stroke="black" d="M420.042,-179.118C437.501,-169.191 461.202,-155.716 480.362,-144.822"/>
<polygon fill="black" stroke="black" points="482.118,-147.85 489.081,-139.865 478.658,-141.765 482.118,-147.85"/>
</g>
<!-- AS3257 -->
<g id="node12" class="node"><title>AS3257</title>
<g id="a_node12"><a xlink:href="/asn/3257" xlink:title="AS3257 ~ GTT [DE]">
<ellipse fill="#ffffff" stroke="black" cx="514.467" cy="-234" rx="39.7935" ry="18"/>
<text text-anchor="middle" x="514.467" y="-230.3" font-family="Times,serif" font-size="14.00" fill="#2c94b3">AS3257</text>
</a>
</g>
</g>
<!-- AS1299&#45;&gt;AS3257 -->
<g id="edge11" class="edge"><title>AS1299&#45;&gt;AS3257</title>
<path fill="none" stroke="black" d="M426.586,-203.772C440.683,-208.677 457.559,-214.548 472.673,-219.807"/>
<polygon fill="black" stroke="black" points="471.708,-223.177 482.303,-223.157 474.008,-216.566 471.708,-223.177"/>
</g>
<!-- AS7018 -->
<g id="node13" class="node"><title>AS7018</title>
<g id="a_node13"><a xlink:href="/asn/7018" xlink:title="AS7018 ~ AT&amp;T Services, Inc. [US]">
<ellipse fill="#ffffff" stroke="black" cx="514.467" cy="-18" rx="39.7935" ry="18"/>
<text text-anchor="middle" x="514.467" y="-14.3" font-family="Times,serif" font-size="14.00" fill="#2c94b3">AS7018</text>
</a>
</g>
</g>
<!-- AS1299&#45;&gt;AS7018 -->
<g id="edge13" class="edge"><title>AS1299&#45;&gt;AS7018</title>
<path fill="none" stroke="black" d="M411.468,-176.639C419.142,-168.047 428.024,-157.031 434.271,-146 457.755,-104.533 440.407,-82.1368 470.271,-45 472.626,-42.071 475.39,-39.3703 478.362,-36.903"/>
<polygon fill="black" stroke="black" points="480.554,-39.6365 486.577,-30.9199 476.433,-33.9783 480.554,-39.6365"/>
</g>
<!-- AS174 -->
<g id="node14" class="node"><title>AS174</title>
<g id="a_node14"><a xlink:href="/asn/174" xlink:title="AS174 ~ Cogent Communications [US]">
<ellipse fill="#ffffff" stroke="black" cx="514.467" cy="-180" rx="35.194" ry="18"/>
<text text-anchor="middle" x="514.467" y="-176.3" font-family="Times,serif" font-size="14.00" fill="#2c94b3">AS174</text>
</a>
</g>
</g>
<!-- AS1299&#45;&gt;AS174 -->
<g id="edge14" class="edge"><title>AS1299&#45;&gt;AS174</title>
<path fill="none" stroke="black" d="M433.235,-188.851C444.8,-187.575 457.632,-186.16 469.58,-184.841"/>
<polygon fill="black" stroke="black" points="470.242,-188.29 479.798,-183.714 469.474,-181.332 470.242,-188.29"/>
</g>
<!-- AS2914&#45;&gt;AS6762 -->
<g id="edge17" class="edge"><title>AS2914&#45;&gt;AS6762</title>
<path fill="none" stroke="black" d="M415.955,-276.277C430.817,-287.304 451.562,-302.407 470.271,-315 473.82,-317.389 477.57,-319.839 481.319,-322.242"/>
<polygon fill="black" stroke="black" points="479.645,-325.325 489.967,-327.712 483.387,-319.409 479.645,-325.325"/>
</g>
<!-- AS2914&#45;&gt;AS2497 -->
<g id="edge21" class="edge"><title>AS2914&#45;&gt;AS2497</title>
<path fill="none" stroke="black" d="M400.197,-278.946C409.103,-310.995 431.387,-378.842 470.271,-423 472.755,-425.821 475.605,-428.449 478.63,-430.871"/>
<polygon fill="black" stroke="black" points="476.748,-433.828 486.92,-436.791 480.816,-428.131 476.748,-433.828"/>
</g>
<!-- AS2914&#45;&gt;AS3257 -->
<g id="edge19" class="edge"><title>AS2914&#45;&gt;AS3257</title>
<path fill="none" stroke="black" d="M430.344,-253.045C442.344,-250.296 455.965,-247.175 468.657,-244.267"/>
<polygon fill="black" stroke="black" points="469.623,-247.636 478.589,-241.991 468.06,-240.813 469.623,-247.636"/>
</g>
<!-- AS2914&#45;&gt;AS174 -->
<g id="edge16" class="edge"><title>AS2914&#45;&gt;AS174</title>
<path fill="none" stroke="black" d="M415.955,-245.723C430.817,-234.696 451.562,-219.593 470.271,-207 474.088,-204.431 478.138,-201.79 482.169,-199.214"/>
<polygon fill="black" stroke="black" points="484.273,-202.025 490.863,-193.729 480.538,-196.105 484.273,-202.025"/>
</g>
<!-- AS701 -->
<g id="node15" class="node"><title>AS701</title>
<g id="a_node15"><a xlink:href="/asn/701" xlink:title="AS701 ~ UUNET [US]">
<ellipse fill="#ffffff" stroke="black" cx="514.467" cy="-396" rx="35.194" ry="18"/>
<text text-anchor="middle" x="514.467" y="-392.3" font-family="Times,serif" font-size="14.00" fill="#2c94b3">AS701</text>
</a>
</g>
</g>
<!-- AS2914&#45;&gt;AS701 -->
<g id="edge15" class="edge"><title>AS2914&#45;&gt;AS701</title>
<path fill="none" stroke="black" d="M404.866,-278.713C417.411,-301.561 441.588,-341.611 470.271,-369 473.525,-372.107 477.192,-375.046 480.978,-377.76"/>
<polygon fill="black" stroke="black" points="479.081,-380.701 489.347,-383.322 482.956,-374.872 479.081,-380.701"/>
</g>
<!-- AS3491 -->
<g id="node16" class="node"><title>AS3491</title>
<g id="a_node16"><a xlink:href="/asn/3491" xlink:title="AS3491 ~ PCCW Global, Inc. [US]">
<ellipse fill="#ffffff" stroke="black" cx="514.467" cy="-72" rx="39.7935" ry="18"/>
<text text-anchor="middle" x="514.467" y="-68.3" font-family="Times,serif" font-size="14.00" fill="#2c94b3">AS3491</text>
</a>
</g>
</g>
<!-- AS2914&#45;&gt;AS3491 -->
<g id="edge18" class="edge"><title>AS2914&#45;&gt;AS3491</title>
<path fill="none" stroke="black" d="M414.153,-244.914C421.297,-237.882 428.999,-229.155 434.271,-220 462.272,-171.379 436.286,-143.644 470.271,-99 472.548,-96.0094 475.259,-93.2675 478.198,-90.7744"/>
<polygon fill="black" stroke="black" points="480.392,-93.5052 486.366,-84.7554 476.24,-87.8698 480.392,-93.5052"/>
</g>
<!-- AS12956 -->
<g id="node17" class="node"><title>AS12956</title>
<g id="a_node17"><a xlink:href="/asn/12956" xlink:title="AS12956 ~ TELXIUS [ES]">
<ellipse fill="#ffffff" stroke="black" cx="514.467" cy="-288" rx="44.393" ry="18"/>
<text text-anchor="middle" x="514.467" y="-284.3" font-family="Times,serif" font-size="14.00" fill="#2c94b3">AS12956</text>
</a>
</g>
</g>
<!-- AS2914&#45;&gt;AS12956 -->
<g id="edge20" class="edge"><title>AS2914&#45;&gt;AS12956</title>
<path fill="none" stroke="black" d="M430.344,-268.955C441.482,-271.507 454.018,-274.379 465.911,-277.104"/>
<polygon fill="black" stroke="black" points="465.176,-280.526 475.705,-279.348 466.739,-273.703 465.176,-280.526"/>
</g>
<!-- AS2603&#45;&gt;AS3491 -->
<g id="edge23" class="edge"><title>AS2603&#45;&gt;AS3491</title>
<path fill="none" stroke="black" d="M425.057,-107.261C439.961,-101.317 458.257,-94.0198 474.331,-87.6091"/>
<polygon fill="black" stroke="black" points="476.009,-90.7077 484.001,-83.7521 473.416,-84.2058 476.009,-90.7077"/>
</g>
</g>
</svg>
