<?xml version="1.0" encoding="UTF-8" standalone="no"?>
<!DOCTYPE svg PUBLIC "-//W3C//DTD SVG 1.1//EN"
 "http://www.w3.org/Graphics/SVG/1.1/DTD/svg11.dtd">
<!-- Generated by graphviz version 2.38.0 (20140413.2041)
 -->
<!-- Title: AS206571 Combined Upstream Graph Pages: 1 -->
<svg width="459pt" height="530pt"
 viewBox="0.00 0.00 459.17 530.00" xmlns="http://www.w3.org/2000/svg" xmlns:xlink="http://www.w3.org/1999/xlink">
<g id="graph0" class="graph" transform="scale(1 1) rotate(0) translate(4 526)">
<title>AS206571 Combined Upstream Graph</title>
<polygon fill="white" stroke="none" points="-4,4 -4,-526 455.17,-526 455.17,4 -4,4"/>
<!-- AS206571 -->
<g id="node1" class="node"><title>AS206571</title>
<g id="a_node1"><a xlink:href="/asn/206571" xlink:title="AS206571 ~ lszb [AT]">
<ellipse fill="#ffffff" stroke="black" cx="48.0957" cy="-207" rx="48.1917" ry="18"/>
<text text-anchor="middle" x="48.0957" y="-203.3" font-family="Times,serif" font-size="14.00" fill="#880000">AS206571</text>
</a>
</g>
</g>
<!-- AS8447 -->
<g id="node2" class="node"><title>AS8447</title>
<g id="a_node2"><a xlink:href="/asn/8447" xlink:title="AS8447 ~ A1 Telekom Austria AG [AT]">
<ellipse fill="#ffffff" stroke="black" cx="171.838" cy="-207" rx="39.7935" ry="18"/>
<text text-anchor="middle" x="171.838" y="-203.3" font-family="Times,serif" font-size="14.00" fill="#2c94b3">AS8447</text>
</a>
</g>
</g>
<!-- AS206571&#45;&gt;AS8447 -->
<g id="edge1" class="edge"><title>AS206571&#45;&gt;AS8447</title>
<path fill="none" stroke="black" stroke-width="4.5" d="M96.5131,-207C104.867,-207 113.577,-207 121.969,-207"/>
<polygon fill="black" stroke="black" stroke-width="4.5" points="122.004,-210.938 132.004,-207 122.004,-203.063 122.004,-210.938"/>
</g>
<!-- AS3356 -->
<g id="node3" class="node"><title>AS3356</title>
<g id="a_node3"><a xlink:href="/asn/3356" xlink:title="AS3356 ~ Level 3 Parent, LLC [US]">
<ellipse fill="#ffffff" stroke="black" cx="287.131" cy="-261" rx="39.7935" ry="18"/>
<text text-anchor="middle" x="287.131" y="-257.3" font-family="Times,serif" font-size="14.00" fill="#2c94b3">AS3356</text>
</a>
</g>
</g>
<!-- AS8447&#45;&gt;AS3356 -->
<g id="edge2" class="edge"><title>AS8447&#45;&gt;AS3356</title>
<path fill="none" stroke="black" stroke-width="4.5" d="M199.974,-219.934C214.968,-227.081 233.789,-236.052 250.013,-243.785"/>
<polygon fill="black" stroke="black" stroke-width="4.5" points="248.495,-247.423 259.216,-248.171 251.883,-240.314 248.495,-247.423"/>
</g>
<!-- AS1299 -->
<g id="node4" class="node"><title>AS1299</title>
<g id="a_node4"><a xlink:href="/asn/1299" xlink:title="AS1299 ~ Telia Carrier [EU]">
<ellipse fill="#ffffff" stroke="black" cx="287.131" cy="-369" rx="39.7935" ry="18"/>
<text text-anchor="middle" x="287.131" y="-365.3" font-family="Times,serif" font-size="14.00" fill="#2c94b3">AS1299</text>
</a>
</g>
</g>
<!-- AS8447&#45;&gt;AS1299 -->
<g id="edge3" class="edge"><title>AS8447&#45;&gt;AS1299</title>
<path fill="none" stroke="black" stroke-width="3" d="M184.748,-224.031C204.67,-252.517 244.859,-309.985 268.209,-343.374"/>
<polygon fill="black" stroke="black" stroke-width="3" points="265.44,-345.521 274.039,-351.71 271.176,-341.509 265.44,-345.521"/>
</g>
<!-- AS6762 -->
<g id="node5" class="node"><title>AS6762</title>
<g id="a_node5"><a xlink:href="/asn/6762" xlink:title="AS6762 ~ TELECOM ITALIA SPARKLE S.p.A. [IT]">
<ellipse fill="#ffffff" stroke="black" cx="287.131" cy="-153" rx="39.7935" ry="18"/>
<text text-anchor="middle" x="287.131" y="-149.3" font-family="Times,serif" font-size="14.00" fill="#2c94b3">AS6762</text>
</a>
</g>
</g>
<!-- AS8447&#45;&gt;AS6762 -->
<g id="edge4" class="edge"><title>AS8447&#45;&gt;AS6762</title>
<path fill="none" stroke="black" stroke-width="0.5" d="M199.974,-194.066C214.968,-186.919 233.789,-177.948 250.013,-170.215"/>
<polygon fill="black" stroke="black" stroke-width="0.5" points="251.695,-173.291 259.216,-165.829 248.683,-166.972 251.695,-173.291"/>
</g>
<!-- AS3320 -->
<g id="node6" class="node"><title>AS3320</title>
<g id="a_node6"><a xlink:href="/asn/3320" xlink:title="AS3320 ~ DTAG [DE]">
<ellipse fill="#ffffff" stroke="black" cx="287.131" cy="-207" rx="39.7935" ry="18"/>
<text text-anchor="middle" x="287.131" y="-203.3" font-family="Times,serif" font-size="14.00" fill="#2c94b3">AS3320</text>
</a>
</g>
</g>
<!-- AS8447&#45;&gt;AS3320 -->
<g id="edge5" class="edge"><title>AS8447&#45;&gt;AS3320</title>
<path fill="none" stroke="black" stroke-width="2" d="M211.51,-207C219.713,-207 228.477,-207 237.009,-207"/>
<polygon fill="black" stroke="black" stroke-width="2" points="237.248,-210.5 247.248,-207 237.248,-203.5 237.248,-210.5"/>
</g>
<!-- AS6461 -->
<g id="node7" class="node"><title>AS6461</title>
<g id="a_node7"><a xlink:href="/asn/6461" xlink:title="AS6461 ~ Zayo Bandwidth [US]">
<ellipse fill="#ffffff" stroke="black" cx="287.131" cy="-99" rx="39.7935" ry="18"/>
<text text-anchor="middle" x="287.131" y="-95.3" font-family="Times,serif" font-size="14.00" fill="#2c94b3">AS6461</text>
</a>
</g>
</g>
<!-- AS8447&#45;&gt;AS6461 -->
<g id="edge6" class="edge"><title>AS8447&#45;&gt;AS6461</title>
<path fill="none" stroke="black" stroke-width="0.5" d="M186.468,-190.183C200.751,-173.071 224.297,-146.255 247.484,-126 249.95,-123.846 252.589,-121.706 255.286,-119.628"/>
<polygon fill="black" stroke="black" stroke-width="0.5" points="257.459,-122.375 263.44,-113.63 253.311,-116.736 257.459,-122.375"/>
</g>
<!-- AS2914 -->
<g id="node9" class="node"><title>AS2914</title>
<g id="a_node9"><a xlink:href="/asn/2914" xlink:title="AS2914 ~ NTT America, Inc. [US]">
<ellipse fill="#ffffff" stroke="black" cx="406.973" cy="-288" rx="39.7935" ry="18"/>
<text text-anchor="middle" x="406.973" y="-284.3" font-family="Times,serif" font-size="14.00" fill="#2c94b3">AS2914</text>
</a>
</g>
</g>
<!-- AS3356&#45;&gt;AS2914 -->
<g id="edge17" class="edge"><title>AS3356&#45;&gt;AS2914</title>
<path fill="none" stroke="black" d="M322.85,-268.955C334.85,-271.704 348.471,-274.825 361.164,-277.733"/>
<polygon fill="black" stroke="black" points="360.566,-281.187 371.095,-280.009 362.129,-274.364 360.566,-281.187"/>
</g>
<!-- AS2497 -->
<g id="node10" class="node"><title>AS2497</title>
<g id="a_node10"><a xlink:href="/asn/2497" xlink:title="AS2497 ~ Internet Initiative Japan Inc. [JP]">
<ellipse fill="#ffffff" stroke="black" cx="406.973" cy="-450" rx="39.7935" ry="18"/>
<text text-anchor="middle" x="406.973" y="-446.3" font-family="Times,serif" font-size="14.00" fill="#2c94b3">AS2497</text>
</a>
</g>
</g>
<!-- AS3356&#45;&gt;AS2497 -->
<g id="edge19" class="edge"><title>AS3356&#45;&gt;AS2497</title>
<path fill="none" stroke="black" d="M296.712,-278.633C304.636,-294.998 316.672,-320.065 326.777,-342 343.261,-377.781 336.943,-393.258 362.777,-423 365.242,-425.838 368.079,-428.477 371.097,-430.906"/>
<polygon fill="black" stroke="black" points="369.207,-433.858 379.375,-436.836 373.283,-428.167 369.207,-433.858"/>
</g>
<!-- AS174 -->
<g id="node11" class="node"><title>AS174</title>
<g id="a_node11"><a xlink:href="/asn/174" xlink:title="AS174 ~ Cogent Communications [US]">
<ellipse fill="#ffffff" stroke="black" cx="406.973" cy="-396" rx="35.194" ry="18"/>
<text text-anchor="middle" x="406.973" y="-392.3" font-family="Times,serif" font-size="14.00" fill="#2c94b3">AS174</text>
</a>
</g>
</g>
<!-- AS3356&#45;&gt;AS174 -->
<g id="edge18" class="edge"><title>AS3356&#45;&gt;AS174</title>
<path fill="none" stroke="black" d="M297.372,-278.713C309.918,-301.561 334.095,-341.611 362.777,-369 366.031,-372.107 369.698,-375.046 373.485,-377.76"/>
<polygon fill="black" stroke="black" points="371.587,-380.701 381.853,-383.322 375.462,-374.872 371.587,-380.701"/>
</g>
<!-- AS3257 -->
<g id="node12" class="node"><title>AS3257</title>
<g id="a_node12"><a xlink:href="/asn/3257" xlink:title="AS3257 ~ GTT [DE]">
<ellipse fill="#ffffff" stroke="black" cx="406.973" cy="-342" rx="39.7935" ry="18"/>
<text text-anchor="middle" x="406.973" y="-338.3" font-family="Times,serif" font-size="14.00" fill="#2c94b3">AS3257</text>
</a>
</g>
</g>
<!-- AS3356&#45;&gt;AS3257 -->
<g id="edge13" class="edge"><title>AS3356&#45;&gt;AS3257</title>
<path fill="none" stroke="black" d="M308.461,-276.277C323.324,-287.304 344.068,-302.407 362.777,-315 366.326,-317.389 370.077,-319.839 373.825,-322.242"/>
<polygon fill="black" stroke="black" points="372.151,-325.325 382.474,-327.712 375.893,-319.409 372.151,-325.325"/>
</g>
<!-- AS12956 -->
<g id="node13" class="node"><title>AS12956</title>
<g id="a_node13"><a xlink:href="/asn/12956" xlink:title="AS12956 ~ TELXIUS [ES]">
<ellipse fill="#ffffff" stroke="black" cx="406.973" cy="-234" rx="44.393" ry="18"/>
<text text-anchor="middle" x="406.973" y="-230.3" font-family="Times,serif" font-size="14.00" fill="#2c94b3">AS12956</text>
</a>
</g>
</g>
<!-- AS3356&#45;&gt;AS12956 -->
<g id="edge12" class="edge"><title>AS3356&#45;&gt;AS12956</title>
<path fill="none" stroke="black" d="M322.85,-253.045C333.989,-250.493 346.524,-247.621 358.417,-244.896"/>
<polygon fill="black" stroke="black" points="359.246,-248.297 368.211,-242.652 357.682,-241.474 359.246,-248.297"/>
</g>
<!-- AS1239 -->
<g id="node14" class="node"><title>AS1239</title>
<g id="a_node14"><a xlink:href="/asn/1239" xlink:title="AS1239 ~ Sprint [US]">
<ellipse fill="#ffffff" stroke="black" cx="406.973" cy="-72" rx="39.7935" ry="18"/>
<text text-anchor="middle" x="406.973" y="-68.3" font-family="Times,serif" font-size="14.00" fill="#2c94b3">AS1239</text>
</a>
</g>
</g>
<!-- AS3356&#45;&gt;AS1239 -->
<g id="edge14" class="edge"><title>AS3356&#45;&gt;AS1239</title>
<path fill="none" stroke="black" d="M313.29,-247.284C318.355,-243.545 323.21,-239.096 326.777,-234 362.391,-183.131 325.874,-148.941 362.777,-99 365.011,-95.9771 367.694,-93.2138 370.615,-90.7071"/>
<polygon fill="black" stroke="black" points="372.81,-93.4368 378.758,-84.6694 368.64,-87.8137 372.81,-93.4368"/>
</g>
<!-- AS3549 -->
<g id="node15" class="node"><title>AS3549</title>
<g id="a_node15"><a xlink:href="/asn/3549" xlink:title="AS3549 ~ Level 3 Parent, LLC [US]">
<ellipse fill="#ffffff" stroke="black" cx="406.973" cy="-180" rx="39.7935" ry="18"/>
<text text-anchor="middle" x="406.973" y="-176.3" font-family="Times,serif" font-size="14.00" fill="#2c94b3">AS3549</text>
</a>
</g>
</g>
<!-- AS3356&#45;&gt;AS3549 -->
<g id="edge15" class="edge"><title>AS3356&#45;&gt;AS3549</title>
<path fill="none" stroke="black" d="M309.888,-245.991C315.422,-242.121 321.341,-237.936 326.777,-234 342.977,-222.271 346.283,-218.311 362.777,-207 366.306,-204.581 370.043,-202.111 373.784,-199.698"/>
<polygon fill="black" stroke="black" points="375.856,-202.528 382.425,-194.216 372.106,-196.618 375.856,-202.528"/>
</g>
<!-- AS3491 -->
<g id="node16" class="node"><title>AS3491</title>
<g id="a_node16"><a xlink:href="/asn/3491" xlink:title="AS3491 ~ PCCW Global, Inc. [US]">
<ellipse fill="#ffffff" stroke="black" cx="406.973" cy="-126" rx="39.7935" ry="18"/>
<text text-anchor="middle" x="406.973" y="-122.3" font-family="Times,serif" font-size="14.00" fill="#2c94b3">AS3491</text>
</a>
</g>
</g>
<!-- AS3356&#45;&gt;AS3491 -->
<g id="edge16" class="edge"><title>AS3356&#45;&gt;AS3491</title>
<path fill="none" stroke="black" d="M312.712,-246.844C317.806,-243.128 322.82,-238.799 326.777,-234 351.842,-203.606 336.943,-182.742 362.777,-153 365.242,-150.162 368.079,-147.523 371.097,-145.094"/>
<polygon fill="black" stroke="black" points="373.283,-147.833 379.375,-139.164 369.207,-142.142 373.283,-147.833"/>
</g>
<!-- AS7018 -->
<g id="node8" class="node"><title>AS7018</title>
<g id="a_node8"><a xlink:href="/asn/7018" xlink:title="AS7018 ~ AT&amp;T Services, Inc. [US]">
<ellipse fill="#ffffff" stroke="black" cx="406.973" cy="-504" rx="39.7935" ry="18"/>
<text text-anchor="middle" x="406.973" y="-500.3" font-family="Times,serif" font-size="14.00" fill="#2c94b3">AS7018</text>
</a>
</g>
</g>
<!-- AS1299&#45;&gt;AS7018 -->
<g id="edge7" class="edge"><title>AS1299&#45;&gt;AS7018</title>
<path fill="none" stroke="black" d="M297.372,-386.713C309.918,-409.561 334.095,-449.611 362.777,-477 365.646,-479.739 368.834,-482.347 372.144,-484.785"/>
<polygon fill="black" stroke="black" points="370.267,-487.742 380.503,-490.477 374.207,-481.956 370.267,-487.742"/>
</g>
<!-- AS1299&#45;&gt;AS2914 -->
<g id="edge8" class="edge"><title>AS1299&#45;&gt;AS2914</title>
<path fill="none" stroke="black" d="M308.461,-353.723C323.324,-342.696 344.068,-327.593 362.777,-315 366.326,-312.611 370.077,-310.161 373.825,-307.758"/>
<polygon fill="black" stroke="black" points="375.893,-310.591 382.474,-302.288 372.151,-304.675 375.893,-310.591"/>
</g>
<!-- AS1299&#45;&gt;AS2497 -->
<g id="edge9" class="edge"><title>AS1299&#45;&gt;AS2497</title>
<path fill="none" stroke="black" d="M308.461,-384.277C323.324,-395.304 344.068,-410.407 362.777,-423 366.326,-425.389 370.077,-427.839 373.825,-430.242"/>
<polygon fill="black" stroke="black" points="372.151,-433.325 382.474,-435.712 375.893,-427.409 372.151,-433.325"/>
</g>
<!-- AS1299&#45;&gt;AS174 -->
<g id="edge10" class="edge"><title>AS1299&#45;&gt;AS174</title>
<path fill="none" stroke="black" d="M322.85,-376.955C335.943,-379.955 350.965,-383.396 364.606,-386.522"/>
<polygon fill="black" stroke="black" points="364.184,-390.016 374.713,-388.838 365.747,-383.193 364.184,-390.016"/>
</g>
<!-- AS1299&#45;&gt;AS3257 -->
<g id="edge11" class="edge"><title>AS1299&#45;&gt;AS3257</title>
<path fill="none" stroke="black" d="M322.85,-361.045C334.85,-358.296 348.471,-355.175 361.164,-352.267"/>
<polygon fill="black" stroke="black" points="362.129,-355.636 371.095,-349.991 360.566,-348.813 362.129,-355.636"/>
</g>
<!-- AS3320&#45;&gt;AS2914 -->
<g id="edge21" class="edge"><title>AS3320&#45;&gt;AS2914</title>
<path fill="none" stroke="black" d="M309.888,-222.009C315.422,-225.879 321.341,-230.064 326.777,-234 342.977,-245.729 346.283,-249.689 362.777,-261 366.306,-263.419 370.043,-265.889 373.784,-268.302"/>
<polygon fill="black" stroke="black" points="372.106,-271.382 382.425,-273.784 375.856,-265.472 372.106,-271.382"/>
</g>
<!-- AS3320&#45;&gt;AS1239 -->
<g id="edge20" class="edge"><title>AS3320&#45;&gt;AS1239</title>
<path fill="none" stroke="black" d="M312.712,-192.844C317.806,-189.128 322.82,-184.799 326.777,-180 351.842,-149.606 336.943,-128.742 362.777,-99 365.242,-96.1624 368.079,-93.5228 371.097,-91.0937"/>
<polygon fill="black" stroke="black" points="373.283,-93.8326 379.375,-85.1638 369.207,-88.1419 373.283,-93.8326"/>
</g>
<!-- AS701 -->
<g id="node17" class="node"><title>AS701</title>
<g id="a_node17"><a xlink:href="/asn/701" xlink:title="AS701 ~ UUNET [US]">
<ellipse fill="#ffffff" stroke="black" cx="406.973" cy="-18" rx="35.194" ry="18"/>
<text text-anchor="middle" x="406.973" y="-14.3" font-family="Times,serif" font-size="14.00" fill="#2c94b3">AS701</text>
</a>
</g>
</g>
<!-- AS3320&#45;&gt;AS701 -->
<g id="edge22" class="edge"><title>AS3320&#45;&gt;AS701</title>
<path fill="none" stroke="black" d="M313.29,-193.284C318.355,-189.545 323.21,-185.096 326.777,-180 362.391,-129.131 325.874,-94.9414 362.777,-45 365.32,-41.5593 368.444,-38.4548 371.839,-35.6823"/>
<polygon fill="black" stroke="black" points="373.978,-38.4563 380.106,-29.8138 369.926,-32.7482 373.978,-38.4563"/>
</g>
</g>
</svg>
