<?xml version="1.0" encoding="UTF-8" standalone="no"?>
<!DOCTYPE svg PUBLIC "-//W3C//DTD SVG 1.1//EN"
 "http://www.w3.org/Graphics/SVG/1.1/DTD/svg11.dtd">
<!-- Generated by graphviz version 2.38.0 (20140413.2041)
 -->
<!-- Title: AS57763 IPv4 Upstream Graph Pages: 1 -->
<svg width="700pt" height="631pt"
 viewBox="0.00 0.00 700.15 630.92" xmlns="http://www.w3.org/2000/svg" xmlns:xlink="http://www.w3.org/1999/xlink">
<g id="graph0" class="graph" transform="scale(1 1) rotate(0) translate(4 626.917)">
<title>AS57763 IPv4 Upstream Graph</title>
<polygon fill="white" stroke="none" points="-4,4 -4,-626.917 696.155,-626.917 696.155,4 -4,4"/>
<!-- AS57763 -->
<g id="node1" class="node"><title>AS57763</title>
<g id="a_node1"><a xlink:href="/asn/57763" xlink:title="AS57763 ~ SelfNet Internet Ges.m.b.H. [AT]">
<ellipse fill="#ffffff" stroke="black" cx="44.1961" cy="-306" rx="44.393" ry="18"/>
<text text-anchor="middle" x="44.1961" y="-302.3" font-family="Times,serif" font-size="14.00" fill="#880000">AS57763</text>
</a>
</g>
</g>
<!-- AS1764 -->
<g id="node2" class="node"><title>AS1764</title>
<g id="a_node2"><a xlink:href="/asn/1764" xlink:title="AS1764 ~ NEXTLAYER&#45;AS [AT]">
<ellipse fill="#ffffff" stroke="black" cx="292.98" cy="-333" rx="39.7935" ry="18"/>
<text text-anchor="middle" x="292.98" y="-329.3" font-family="Times,serif" font-size="14.00" fill="#2c94b3">AS1764</text>
</a>
</g>
</g>
<!-- AS57763&#45;&gt;AS1764 -->
<g id="edge1" class="edge"><title>AS57763&#45;&gt;AS1764</title>
<path fill="none" stroke="black" stroke-width="3.32609" d="M62.7189,-322.584C77.7571,-335.597 100.698,-352.691 124.392,-360 167.708,-373.362 219.474,-360.92 253.897,-348.858"/>
<polygon fill="black" stroke="black" stroke-width="3.32609" points="255.371,-352.046 263.56,-345.322 252.966,-345.472 255.371,-352.046"/>
</g>
<!-- AS12301 -->
<g id="node3" class="node"><title>AS12301</title>
<g id="a_node3"><a xlink:href="/asn/12301" xlink:title="AS12301 ~ Invitech ICT Services Kft. [HU]">
<ellipse fill="#ffffff" stroke="black" cx="292.98" cy="-233" rx="44.393" ry="18"/>
<text text-anchor="middle" x="292.98" y="-229.3" font-family="Times,serif" font-size="14.00" fill="#2c94b3">AS12301</text>
</a>
</g>
</g>
<!-- AS57763&#45;&gt;AS12301 -->
<g id="edge2" class="edge"><title>AS57763&#45;&gt;AS12301</title>
<path fill="none" stroke="black" stroke-width="4.5" d="M63.5702,-289.6C78.7512,-277.059 101.46,-260.518 124.392,-252 160.959,-238.417 204.852,-233.825 238.543,-232.546"/>
<polygon fill="black" stroke="black" stroke-width="4.5" points="238.772,-236.478 248.652,-232.248 238.54,-228.607 238.772,-236.478"/>
</g>
<!-- AS39912 -->
<g id="node4" class="node"><title>AS39912</title>
<g id="a_node4"><a xlink:href="/asn/39912" xlink:title="AS39912 ~ oja.at GmbH [AT]">
<ellipse fill="#ffffff" stroke="black" cx="168.588" cy="-279" rx="44.393" ry="18"/>
<text text-anchor="middle" x="168.588" y="-275.3" font-family="Times,serif" font-size="14.00" fill="#2c94b3">AS39912</text>
</a>
</g>
</g>
<!-- AS57763&#45;&gt;AS39912 -->
<g id="edge3" class="edge"><title>AS57763&#45;&gt;AS39912</title>
<path fill="none" stroke="black" stroke-width="0.586957" d="M83.5859,-297.531C94.9779,-295.018 107.6,-292.233 119.525,-289.603"/>
<polygon fill="black" stroke="black" stroke-width="0.586957" points="120.323,-293.011 129.335,-287.439 118.815,-286.175 120.323,-293.011"/>
</g>
<!-- AS57057 -->
<g id="node5" class="node"><title>AS57057</title>
<g id="a_node5"><a xlink:href="/asn/57057" xlink:title="AS57057 ~ AVALON Computersystem Ges.m.b.H. [AT]">
<ellipse fill="#ffffff" stroke="black" cx="168.588" cy="-333" rx="44.393" ry="18"/>
<text text-anchor="middle" x="168.588" y="-329.3" font-family="Times,serif" font-size="14.00" fill="#2c94b3">AS57057</text>
</a>
</g>
</g>
<!-- AS57763&#45;&gt;AS57057 -->
<g id="edge4" class="edge"><title>AS57763&#45;&gt;AS57057</title>
<path fill="none" stroke="black" stroke-width="3.91304" d="M83.5859,-314.469C94.9779,-316.982 107.6,-319.767 119.525,-322.397"/>
<polygon fill="black" stroke="black" stroke-width="3.91304" points="118.815,-325.825 129.335,-324.561 120.323,-318.989 118.815,-325.825"/>
</g>
<!-- AS3356 -->
<g id="node6" class="node"><title>AS3356</title>
<g id="a_node6"><a xlink:href="/asn/3356" xlink:title="AS3356 ~ Level 3 Parent, LLC [US]">
<ellipse fill="#ffffff" stroke="black" cx="412.823" cy="-206" rx="39.7935" ry="18"/>
<text text-anchor="middle" x="412.823" y="-202.3" font-family="Times,serif" font-size="14.00" fill="#2c94b3">AS3356</text>
</a>
</g>
</g>
<!-- AS1764&#45;&gt;AS3356 -->
<g id="edge5" class="edge"><title>AS1764&#45;&gt;AS3356</title>
<path fill="none" stroke="black" stroke-width="4" d="M309.017,-316.187C324.84,-298.564 350.542,-270.135 373.176,-246 378.058,-240.795 383.343,-235.261 388.39,-230.022"/>
<polygon fill="black" stroke="black" stroke-width="4" points="391.103,-232.252 395.541,-222.631 386.072,-227.384 391.103,-232.252"/>
</g>
<!-- AS3257 -->
<g id="node7" class="node"><title>AS3257</title>
<g id="a_node7"><a xlink:href="/asn/3257" xlink:title="AS3257 ~ GTT [DE]">
<ellipse fill="#ffffff" stroke="black" cx="412.823" cy="-456" rx="39.7935" ry="18"/>
<text text-anchor="middle" x="412.823" y="-452.3" font-family="Times,serif" font-size="14.00" fill="#2c94b3">AS3257</text>
</a>
</g>
</g>
<!-- AS1764&#45;&gt;AS3257 -->
<g id="edge6" class="edge"><title>AS1764&#45;&gt;AS3257</title>
<path fill="none" stroke="black" stroke-width="3" d="M305.907,-350.145C320.426,-370.329 346.346,-404.233 373.176,-429 375.582,-431.221 378.18,-433.406 380.85,-435.514"/>
<polygon fill="black" stroke="black" stroke-width="3" points="378.852,-438.391 388.962,-441.56 383.035,-432.778 378.852,-438.391"/>
</g>
<!-- AS8218 -->
<g id="node8" class="node"><title>AS8218</title>
<g id="a_node8"><a xlink:href="/asn/8218" xlink:title="AS8218 ~ legacy Neotelecoms [FR]">
<ellipse fill="#ffffff" stroke="black" cx="412.823" cy="-131" rx="39.7935" ry="18"/>
<text text-anchor="middle" x="412.823" y="-127.3" font-family="Times,serif" font-size="14.00" fill="#2c94b3">AS8218</text>
</a>
</g>
</g>
<!-- AS1764&#45;&gt;AS8218 -->
<g id="edge7" class="edge"><title>AS1764&#45;&gt;AS8218</title>
<path fill="none" stroke="black" d="M305.039,-315.622C314.134,-301.03 327.117,-279.5 337.176,-260 355.238,-224.989 352.651,-212.626 373.176,-179 378.064,-170.993 384.138,-162.839 390.012,-155.579"/>
<polygon fill="black" stroke="black" points="393.01,-157.449 396.732,-147.529 387.636,-152.963 393.01,-157.449"/>
</g>
<!-- AS2914 -->
<g id="node9" class="node"><title>AS2914</title>
<g id="a_node9"><a xlink:href="/asn/2914" xlink:title="AS2914 ~ NTT America, Inc. [US]">
<ellipse fill="#ffffff" stroke="black" cx="528.116" cy="-256" rx="39.7935" ry="18"/>
<text text-anchor="middle" x="528.116" y="-252.3" font-family="Times,serif" font-size="14.00" fill="#2c94b3">AS2914</text>
</a>
</g>
</g>
<!-- AS1764&#45;&gt;AS2914 -->
<g id="edge8" class="edge"><title>AS1764&#45;&gt;AS2914</title>
<path fill="none" stroke="black" stroke-width="4.5" d="M313.649,-317.505C329.005,-306.198 351.333,-291.432 373.176,-283 407.062,-269.92 447.603,-263.136 478.573,-259.641"/>
<polygon fill="black" stroke="black" stroke-width="4.5" points="479.152,-263.539 488.685,-258.577 478.328,-255.708 479.152,-263.539"/>
</g>
<!-- AS174 -->
<g id="node10" class="node"><title>AS174</title>
<g id="a_node10"><a xlink:href="/asn/174" xlink:title="AS174 ~ Cogent Communications [US]">
<ellipse fill="#ffffff" stroke="black" cx="528.116" cy="-402" rx="35.194" ry="18"/>
<text text-anchor="middle" x="528.116" y="-398.3" font-family="Times,serif" font-size="14.00" fill="#2c94b3">AS174</text>
</a>
</g>
</g>
<!-- AS1764&#45;&gt;AS174 -->
<g id="edge9" class="edge"><title>AS1764&#45;&gt;AS174</title>
<path fill="none" stroke="black" d="M328.547,-341.229C360.823,-349.132 410.223,-361.79 452.469,-375 464.8,-378.856 478.111,-383.508 490.03,-387.857"/>
<polygon fill="black" stroke="black" points="489.069,-391.233 499.662,-391.415 491.494,-384.667 489.069,-391.233"/>
</g>
<!-- AS3320 -->
<g id="node11" class="node"><title>AS3320</title>
<g id="a_node11"><a xlink:href="/asn/3320" xlink:title="AS3320 ~ DTAG [DE]">
<ellipse fill="#ffffff" stroke="black" cx="412.823" cy="-402" rx="39.7935" ry="18"/>
<text text-anchor="middle" x="412.823" y="-398.3" font-family="Times,serif" font-size="14.00" fill="#2c94b3">AS3320</text>
</a>
</g>
</g>
<!-- AS1764&#45;&gt;AS3320 -->
<g id="edge10" class="edge"><title>AS1764&#45;&gt;AS3320</title>
<path fill="none" stroke="black" stroke-width="4" d="M318.112,-347.13C335.667,-357.409 359.642,-371.447 378.947,-382.75"/>
<polygon fill="black" stroke="black" stroke-width="4" points="377.326,-385.857 387.724,-387.889 380.863,-379.816 377.326,-385.857"/>
</g>
<!-- AS1299 -->
<g id="node12" class="node"><title>AS1299</title>
<g id="a_node12"><a xlink:href="/asn/1299" xlink:title="AS1299 ~ Telia Carrier [EU]">
<ellipse fill="#ffffff" stroke="black" cx="412.823" cy="-310" rx="39.7935" ry="18"/>
<text text-anchor="middle" x="412.823" y="-306.3" font-family="Times,serif" font-size="14.00" fill="#2c94b3">AS1299</text>
</a>
</g>
</g>
<!-- AS1764&#45;&gt;AS1299 -->
<g id="edge11" class="edge"><title>AS1764&#45;&gt;AS1299</title>
<path fill="none" stroke="black" d="M329.657,-326.037C341.088,-323.806 353.91,-321.303 365.964,-318.951"/>
<polygon fill="black" stroke="black" points="366.717,-322.37 375.861,-317.019 365.376,-315.499 366.717,-322.37"/>
</g>
<!-- AS12301&#45;&gt;AS3356 -->
<g id="edge34" class="edge"><title>AS12301&#45;&gt;AS3356</title>
<path fill="none" stroke="black" stroke-width="3.9375" d="M331.915,-224.308C343.156,-221.733 355.568,-218.889 367.192,-216.226"/>
<polygon fill="black" stroke="black" stroke-width="3.9375" points="368.188,-219.588 377.153,-213.943 366.624,-212.765 368.188,-219.588"/>
</g>
<!-- AS12301&#45;&gt;AS3257 -->
<g id="edge33" class="edge"><title>AS12301&#45;&gt;AS3257</title>
<path fill="none" stroke="black" stroke-width="4.5" d="M305.924,-250.34C315.417,-264.733 328.498,-286.007 337.176,-306 359.856,-358.25 339.948,-382.736 373.176,-429 374.877,-431.368 376.853,-433.6 378.995,-435.688"/>
<polygon fill="black" stroke="black" stroke-width="4.5" points="376.568,-438.792 386.754,-442.219 381.639,-432.767 376.568,-438.792"/>
</g>
<!-- AS12301&#45;&gt;AS1299 -->
<g id="edge36" class="edge"><title>AS12301&#45;&gt;AS1299</title>
<path fill="none" stroke="black" stroke-width="3.9375" d="M317.262,-248.213C335.492,-260.124 361.013,-276.8 380.948,-289.826"/>
<polygon fill="black" stroke="black" stroke-width="3.9375" points="379.103,-292.801 389.389,-295.341 382.932,-286.941 379.103,-292.801"/>
</g>
<!-- AS6461 -->
<g id="node20" class="node"><title>AS6461</title>
<g id="a_node20"><a xlink:href="/asn/6461" xlink:title="AS6461 ~ Zayo Bandwidth [US]">
<ellipse fill="#ffffff" stroke="black" cx="528.116" cy="-18" rx="39.7935" ry="18"/>
<text text-anchor="middle" x="528.116" y="-14.3" font-family="Times,serif" font-size="14.00" fill="#2c94b3">AS6461</text>
</a>
</g>
</g>
<!-- AS12301&#45;&gt;AS6461 -->
<g id="edge35" class="edge"><title>AS12301&#45;&gt;AS6461</title>
<path fill="none" stroke="black" stroke-width="0.5625" d="M301.357,-215.197C313.198,-188.347 338.668,-137.118 373.176,-104 406.547,-71.9739 454.148,-47.7953 487.558,-33.3564"/>
<polygon fill="black" stroke="black" stroke-width="0.5625" points="489.158,-36.4802 497.01,-29.367 486.436,-30.031 489.158,-36.4802"/>
</g>
<!-- AS39912&#45;&gt;AS1299 -->
<g id="edge43" class="edge"><title>AS39912&#45;&gt;AS1299</title>
<path fill="none" stroke="black" stroke-width="3" d="M210.955,-284.294C253.452,-289.733 319.532,-298.189 364.187,-303.904"/>
<polygon fill="black" stroke="black" stroke-width="3" points="363.848,-307.389 374.211,-305.187 364.736,-300.445 363.848,-307.389"/>
</g>
<!-- AS57057&#45;&gt;AS1764 -->
<g id="edge44" class="edge"><title>AS57057&#45;&gt;AS1764</title>
<path fill="none" stroke="black" stroke-width="4.5" d="M213.084,-333C222.773,-333 233.11,-333 243.002,-333"/>
<polygon fill="black" stroke="black" stroke-width="4.5" points="243.105,-336.938 253.105,-333 243.105,-329.063 243.105,-336.938"/>
</g>
<!-- AS3356&#45;&gt;AS2914 -->
<g id="edge16" class="edge"><title>AS3356&#45;&gt;AS2914</title>
<path fill="none" stroke="black" d="M441.828,-218.36C456.262,-224.73 474.063,-232.586 489.662,-239.47"/>
<polygon fill="black" stroke="black" points="488.479,-242.774 499.04,-243.609 491.305,-236.37 488.479,-242.774"/>
</g>
<!-- AS3356&#45;&gt;AS174 -->
<g id="edge17" class="edge"><title>AS3356&#45;&gt;AS174</title>
<path fill="none" stroke="black" d="M423.622,-223.435C437.794,-248.594 464.897,-296.506 488.469,-337 495.974,-349.892 504.43,-364.145 511.515,-376.011"/>
<polygon fill="black" stroke="black" points="508.721,-378.159 516.858,-384.944 514.729,-374.565 508.721,-378.159"/>
</g>
<!-- AS3549 -->
<g id="node13" class="node"><title>AS3549</title>
<g id="a_node13"><a xlink:href="/asn/3549" xlink:title="AS3549 ~ Level 3 Parent, LLC [US]">
<ellipse fill="#ffffff" stroke="black" cx="528.116" cy="-72" rx="39.7935" ry="18"/>
<text text-anchor="middle" x="528.116" y="-68.3" font-family="Times,serif" font-size="14.00" fill="#2c94b3">AS3549</text>
</a>
</g>
</g>
<!-- AS3356&#45;&gt;AS3549 -->
<g id="edge12" class="edge"><title>AS3356&#45;&gt;AS3549</title>
<path fill="none" stroke="black" stroke-width="3" d="M428.158,-188.964C435.61,-179.919 444.749,-168.524 452.469,-158 469.531,-134.743 469.157,-125.425 488.469,-104 491.572,-100.559 495.053,-97.166 498.622,-93.9503"/>
<polygon fill="black" stroke="black" stroke-width="3" points="501.138,-96.4034 506.462,-87.2432 496.588,-91.0843 501.138,-96.4034"/>
</g>
<!-- AS6762 -->
<g id="node14" class="node"><title>AS6762</title>
<g id="a_node14"><a xlink:href="/asn/6762" xlink:title="AS6762 ~ TELECOM ITALIA SPARKLE S.p.A. [IT]">
<ellipse fill="#ffffff" stroke="black" cx="647.958" cy="-306" rx="39.7935" ry="18"/>
<text text-anchor="middle" x="647.958" y="-302.3" font-family="Times,serif" font-size="14.00" fill="#2c94b3">AS6762</text>
</a>
</g>
</g>
<!-- AS3356&#45;&gt;AS6762 -->
<g id="edge13" class="edge"><title>AS3356&#45;&gt;AS6762</title>
<path fill="none" stroke="black" stroke-width="3" d="M436.707,-191.436C468.919,-172.981 528.122,-146.774 567.762,-175 607.606,-203.371 573.285,-240.743 603.762,-279 606.104,-281.94 608.859,-284.648 611.825,-287.119"/>
<polygon fill="black" stroke="black" stroke-width="3" points="609.891,-290.041 620.032,-293.109 614.018,-284.386 609.891,-290.041"/>
</g>
<!-- AS2497 -->
<g id="node15" class="node"><title>AS2497</title>
<g id="a_node15"><a xlink:href="/asn/2497" xlink:title="AS2497 ~ Internet Initiative Japan Inc. [JP]">
<ellipse fill="#ffffff" stroke="black" cx="647.958" cy="-252" rx="39.7935" ry="18"/>
<text text-anchor="middle" x="647.958" y="-248.3" font-family="Times,serif" font-size="14.00" fill="#2c94b3">AS2497</text>
</a>
</g>
</g>
<!-- AS3356&#45;&gt;AS2497 -->
<g id="edge14" class="edge"><title>AS3356&#45;&gt;AS2497</title>
<path fill="none" stroke="black" stroke-width="3" d="M427.144,-189.159C440.668,-173.545 463.174,-151.359 488.469,-142 521.521,-129.771 538.299,-122.664 567.762,-142 601.379,-164.062 577.531,-194.525 603.762,-225 606.214,-227.849 609.043,-230.496 612.055,-232.929"/>
<polygon fill="black" stroke="black" stroke-width="3" points="610.161,-235.878 620.326,-238.866 614.242,-230.191 610.161,-235.878"/>
</g>
<!-- AS6453 -->
<g id="node16" class="node"><title>AS6453</title>
<g id="a_node16"><a xlink:href="/asn/6453" xlink:title="AS6453 ~ TATA COMMUNICATIONS (AMERICA) INC [US]">
<ellipse fill="#ffffff" stroke="black" cx="528.116" cy="-202" rx="39.7935" ry="18"/>
<text text-anchor="middle" x="528.116" y="-198.3" font-family="Times,serif" font-size="14.00" fill="#2c94b3">AS6453</text>
</a>
</g>
</g>
<!-- AS3356&#45;&gt;AS6453 -->
<g id="edge15" class="edge"><title>AS3356&#45;&gt;AS6453</title>
<path fill="none" stroke="black" d="M452.495,-204.635C460.698,-204.345 469.462,-204.036 477.994,-203.734"/>
<polygon fill="black" stroke="black" points="478.363,-207.224 488.233,-203.373 478.116,-200.228 478.363,-207.224"/>
</g>
<!-- AS3257&#45;&gt;AS2914 -->
<g id="edge20" class="edge"><title>AS3257&#45;&gt;AS2914</title>
<path fill="none" stroke="black" d="M439.054,-442.333C444.114,-438.592 448.95,-434.129 452.469,-429 490.281,-373.893 450.658,-338.107 488.469,-283 490.119,-280.596 492.058,-278.338 494.174,-276.232"/>
<polygon fill="black" stroke="black" points="496.54,-278.814 501.885,-269.667 492.002,-273.484 496.54,-278.814"/>
</g>
<!-- AS3257&#45;&gt;AS174 -->
<g id="edge21" class="edge"><title>AS3257&#45;&gt;AS174</title>
<path fill="none" stroke="black" d="M440.959,-443.066C456.391,-435.71 475.877,-426.423 492.412,-418.541"/>
<polygon fill="black" stroke="black" points="494.232,-421.551 501.754,-414.089 491.221,-415.232 494.232,-421.551"/>
</g>
<!-- AS3257&#45;&gt;AS6762 -->
<g id="edge22" class="edge"><title>AS3257&#45;&gt;AS6762</title>
<path fill="none" stroke="black" d="M419.434,-473.938C428.843,-500.545 450.592,-549.527 488.469,-570 519.472,-586.757 541.037,-592.972 567.762,-570 648.558,-500.551 545.246,-422.033 603.762,-333 605.657,-330.118 607.976,-327.487 610.548,-325.098"/>
<polygon fill="black" stroke="black" points="613.098,-327.549 618.844,-318.647 608.801,-322.023 613.098,-327.549"/>
</g>
<!-- AS3257&#45;&gt;AS2497 -->
<g id="edge19" class="edge"><title>AS3257&#45;&gt;AS2497</title>
<path fill="none" stroke="black" stroke-width="3" d="M423.79,-473.562C436.092,-493.249 459.045,-524.103 488.469,-537 520.746,-551.148 541.177,-560.134 567.762,-537 655.103,-461 540.76,-376.135 603.762,-279 605.639,-276.106 607.947,-273.468 610.51,-271.073"/>
<polygon fill="black" stroke="black" stroke-width="3" points="613.06,-273.524 618.793,-264.614 608.755,-268.004 613.06,-273.524"/>
</g>
<!-- AS3491 -->
<g id="node17" class="node"><title>AS3491</title>
<g id="a_node17"><a xlink:href="/asn/3491" xlink:title="AS3491 ~ PCCW Global, Inc. [US]">
<ellipse fill="#ffffff" stroke="black" cx="647.958" cy="-360" rx="39.7935" ry="18"/>
<text text-anchor="middle" x="647.958" y="-356.3" font-family="Times,serif" font-size="14.00" fill="#2c94b3">AS3491</text>
</a>
</g>
</g>
<!-- AS3257&#45;&gt;AS3491 -->
<g id="edge18" class="edge"><title>AS3257&#45;&gt;AS3491</title>
<path fill="none" stroke="black" stroke-width="3" d="M416.503,-474.154C422.526,-507.576 440.559,-578.153 488.469,-608 518.381,-626.634 539.304,-628.786 567.762,-608 638.274,-556.498 647.464,-441.493 647.729,-388.16"/>
<polygon fill="black" stroke="black" stroke-width="3" points="651.229,-388.037 647.674,-378.056 644.229,-388.075 651.229,-388.037"/>
</g>
<!-- AS701 -->
<g id="node18" class="node"><title>AS701</title>
<g id="a_node18"><a xlink:href="/asn/701" xlink:title="AS701 ~ UUNET [US]">
<ellipse fill="#ffffff" stroke="black" cx="528.116" cy="-510" rx="35.194" ry="18"/>
<text text-anchor="middle" x="528.116" y="-506.3" font-family="Times,serif" font-size="14.00" fill="#2c94b3">AS701</text>
</a>
</g>
</g>
<!-- AS3257&#45;&gt;AS701 -->
<g id="edge23" class="edge"><title>AS3257&#45;&gt;AS701</title>
<path fill="none" stroke="black" d="M440.959,-468.934C456.391,-476.29 475.877,-485.577 492.412,-493.459"/>
<polygon fill="black" stroke="black" points="491.221,-496.768 501.754,-497.911 494.232,-490.449 491.221,-496.768"/>
</g>
<!-- AS1239 -->
<g id="node19" class="node"><title>AS1239</title>
<g id="a_node19"><a xlink:href="/asn/1239" xlink:title="AS1239 ~ Sprint [US]">
<ellipse fill="#ffffff" stroke="black" cx="528.116" cy="-456" rx="39.7935" ry="18"/>
<text text-anchor="middle" x="528.116" y="-452.3" font-family="Times,serif" font-size="14.00" fill="#2c94b3">AS1239</text>
</a>
</g>
</g>
<!-- AS3257&#45;&gt;AS1239 -->
<g id="edge24" class="edge"><title>AS3257&#45;&gt;AS1239</title>
<path fill="none" stroke="black" d="M452.495,-456C460.698,-456 469.462,-456 477.994,-456"/>
<polygon fill="black" stroke="black" points="478.233,-459.5 488.233,-456 478.233,-452.5 478.233,-459.5"/>
</g>
<!-- AS8218&#45;&gt;AS6461 -->
<g id="edge25" class="edge"><title>AS8218&#45;&gt;AS6461</title>
<path fill="none" stroke="black" stroke-width="2" d="M426.479,-114.067C440.514,-95.8854 464.371,-66.6918 488.469,-45 490.903,-42.8097 493.519,-40.6447 496.202,-38.5506"/>
<polygon fill="black" stroke="black" stroke-width="2" points="498.382,-41.2915 504.334,-32.5263 494.215,-35.6669 498.382,-41.2915"/>
</g>
<!-- AS2914&#45;&gt;AS6762 -->
<g id="edge28" class="edge"><title>AS2914&#45;&gt;AS6762</title>
<path fill="none" stroke="black" stroke-width="2" d="M557.642,-268.104C573.017,-274.627 592.193,-282.763 608.831,-289.823"/>
<polygon fill="black" stroke="black" stroke-width="2" points="607.714,-293.151 618.286,-293.835 610.448,-286.707 607.714,-293.151"/>
</g>
<!-- AS2914&#45;&gt;AS2497 -->
<g id="edge26" class="edge"><title>AS2914&#45;&gt;AS2497</title>
<path fill="none" stroke="black" stroke-width="2" d="M567.702,-254.69C577.469,-254.359 588.085,-253.998 598.279,-253.652"/>
<polygon fill="black" stroke="black" stroke-width="2" points="598.41,-257.15 608.286,-253.313 598.173,-250.154 598.41,-257.15"/>
</g>
<!-- AS2914&#45;&gt;AS3491 -->
<g id="edge27" class="edge"><title>AS2914&#45;&gt;AS3491</title>
<path fill="none" stroke="black" stroke-width="2" d="M552.592,-270.507C557.853,-274.261 563.216,-278.518 567.762,-283 587.262,-302.225 583.777,-314.281 603.762,-333 606.657,-335.711 609.863,-338.301 613.182,-340.729"/>
<polygon fill="black" stroke="black" stroke-width="2" points="611.314,-343.69 621.554,-346.407 615.243,-337.897 611.314,-343.69"/>
</g>
<!-- AS12956 -->
<g id="node21" class="node"><title>AS12956</title>
<g id="a_node21"><a xlink:href="/asn/12956" xlink:title="AS12956 ~ TELXIUS [ES]">
<ellipse fill="#ffffff" stroke="black" cx="647.958" cy="-198" rx="44.393" ry="18"/>
<text text-anchor="middle" x="647.958" y="-194.3" font-family="Times,serif" font-size="14.00" fill="#2c94b3">AS12956</text>
</a>
</g>
</g>
<!-- AS2914&#45;&gt;AS12956 -->
<g id="edge29" class="edge"><title>AS2914&#45;&gt;AS12956</title>
<path fill="none" stroke="black" d="M555.562,-242.984C571.479,-235.149 591.995,-225.052 609.555,-216.41"/>
<polygon fill="black" stroke="black" points="611.531,-219.338 618.958,-211.781 608.44,-213.057 611.531,-219.338"/>
</g>
<!-- AS3320&#45;&gt;AS6453 -->
<g id="edge31" class="edge"><title>AS3320&#45;&gt;AS6453</title>
<path fill="none" stroke="black" stroke-width="2" d="M425.374,-384.896C433.671,-372.098 444.713,-353.953 452.469,-337 473.519,-290.99 458.198,-269.542 488.469,-229 490.214,-226.664 492.221,-224.455 494.385,-222.383"/>
<polygon fill="black" stroke="black" stroke-width="2" points="496.744,-224.973 502.185,-215.882 492.262,-219.595 496.744,-224.973"/>
</g>
<!-- AS3320&#45;&gt;AS701 -->
<g id="edge30" class="edge"><title>AS3320&#45;&gt;AS701</title>
<path fill="none" stroke="black" stroke-width="2" d="M437.417,-416.389C442.673,-420.148 448.005,-424.437 452.469,-429 472.642,-449.617 468.297,-462.383 488.469,-483 490.949,-485.534 493.695,-487.983 496.548,-490.304"/>
<polygon fill="black" stroke="black" stroke-width="2" points="494.639,-493.248 504.733,-496.468 498.85,-487.657 494.639,-493.248"/>
</g>
<!-- AS3320&#45;&gt;AS1239 -->
<g id="edge32" class="edge"><title>AS3320&#45;&gt;AS1239</title>
<path fill="none" stroke="black" stroke-width="2" d="M440.959,-414.934C455.953,-422.081 474.774,-431.052 490.998,-438.785"/>
<polygon fill="black" stroke="black" stroke-width="2" points="489.668,-442.028 500.201,-443.171 492.68,-435.709 489.668,-442.028"/>
</g>
<!-- AS1299&#45;&gt;AS2914 -->
<g id="edge37" class="edge"><title>AS1299&#45;&gt;AS2914</title>
<path fill="none" stroke="black" d="M440.959,-297.066C455.953,-289.919 474.774,-280.948 490.998,-273.215"/>
<polygon fill="black" stroke="black" points="492.68,-276.291 500.201,-268.829 489.668,-269.972 492.68,-276.291"/>
</g>
<!-- AS1299&#45;&gt;AS174 -->
<g id="edge42" class="edge"><title>AS1299&#45;&gt;AS174</title>
<path fill="none" stroke="black" d="M433.042,-325.607C451.656,-340.723 480.031,-363.765 500.751,-380.59"/>
<polygon fill="black" stroke="black" points="498.587,-383.342 508.557,-386.929 503,-377.908 498.587,-383.342"/>
</g>
<!-- AS1299&#45;&gt;AS6453 -->
<g id="edge41" class="edge"><title>AS1299&#45;&gt;AS6453</title>
<path fill="none" stroke="black" d="M427.453,-293.183C441.736,-276.071 465.282,-249.255 488.469,-229 490.935,-226.846 493.574,-224.706 496.271,-222.628"/>
<polygon fill="black" stroke="black" points="498.444,-225.375 504.425,-216.63 494.296,-219.736 498.444,-225.375"/>
</g>
<!-- AS1299&#45;&gt;AS3491 -->
<g id="edge40" class="edge"><title>AS1299&#45;&gt;AS3491</title>
<path fill="none" stroke="black" d="M442.822,-322.043C456.472,-327.307 473.097,-333.147 488.469,-337 524.815,-346.11 566.815,-352.002 598.445,-355.54"/>
<polygon fill="black" stroke="black" points="598.433,-359.059 608.75,-356.651 599.183,-352.099 598.433,-359.059"/>
</g>
<!-- AS1299&#45;&gt;AS1239 -->
<g id="edge38" class="edge"><title>AS1299&#45;&gt;AS1239</title>
<path fill="none" stroke="black" stroke-width="2" d="M424.264,-327.488C442.84,-358.474 480.442,-420.564 488.469,-429 490.532,-431.168 492.794,-433.267 495.156,-435.273"/>
<polygon fill="black" stroke="black" stroke-width="2" points="493.385,-438.329 503.429,-441.7 497.679,-432.801 493.385,-438.329"/>
</g>
<!-- AS7018 -->
<g id="node22" class="node"><title>AS7018</title>
<g id="a_node22"><a xlink:href="/asn/7018" xlink:title="AS7018 ~ AT&amp;T Services, Inc. [US]">
<ellipse fill="#ffffff" stroke="black" cx="528.116" cy="-310" rx="39.7935" ry="18"/>
<text text-anchor="middle" x="528.116" y="-306.3" font-family="Times,serif" font-size="14.00" fill="#2c94b3">AS7018</text>
</a>
</g>
</g>
<!-- AS1299&#45;&gt;AS7018 -->
<g id="edge39" class="edge"><title>AS1299&#45;&gt;AS7018</title>
<path fill="none" stroke="black" stroke-width="3" d="M452.495,-310C460.698,-310 469.462,-310 477.994,-310"/>
<polygon fill="black" stroke="black" stroke-width="3" points="478.233,-313.5 488.233,-310 478.233,-306.5 478.233,-313.5"/>
</g>
</g>
</svg>
