<?xml version="1.0" encoding="UTF-8" standalone="no"?>
<!DOCTYPE svg PUBLIC "-//W3C//DTD SVG 1.1//EN"
 "http://www.w3.org/Graphics/SVG/1.1/DTD/svg11.dtd">
<!-- Generated by graphviz version 2.38.0 (20140413.2041)
 -->
<!-- Title: AS57763 IPv4 Upstream Graph Pages: 1 -->
<svg width="567pt" height="633pt"
 viewBox="0.00 0.00 566.66 633.15" xmlns="http://www.w3.org/2000/svg" xmlns:xlink="http://www.w3.org/1999/xlink">
<g id="graph0" class="graph" transform="scale(1 1) rotate(0) translate(4 629.149)">
<title>AS57763 IPv4 Upstream Graph</title>
<polygon fill="white" stroke="none" points="-4,4 -4,-629.149 562.663,-629.149 562.663,4 -4,4"/>
<!-- AS57763 -->
<g id="node1" class="node"><title>AS57763</title>
<g id="a_node1"><a xlink:href="/asn/57763" xlink:title="AS57763 ~ SelfNet Internet Ges.m.b.H. [AT]">
<ellipse fill="#ffffff" stroke="black" cx="44.1961" cy="-288.149" rx="44.393" ry="18"/>
<text text-anchor="middle" x="44.1961" y="-284.449" font-family="Times,serif" font-size="14.00" fill="#880000">AS57763</text>
</a>
</g>
</g>
<!-- AS1764 -->
<g id="node2" class="node"><title>AS1764</title>
<g id="a_node2"><a xlink:href="/asn/1764" xlink:title="AS1764 ~ NEXTLAYER&#45;AS [AT]">
<ellipse fill="#ffffff" stroke="black" cx="168.588" cy="-288.149" rx="39.7935" ry="18"/>
<text text-anchor="middle" x="168.588" y="-284.449" font-family="Times,serif" font-size="14.00" fill="#2c94b3">AS1764</text>
</a>
</g>
</g>
<!-- AS57763&#45;&gt;AS1764 -->
<g id="edge1" class="edge"><title>AS57763&#45;&gt;AS1764</title>
<path fill="none" stroke="black" stroke-width="4.25" d="M88.6916,-288.149C98.3806,-288.149 108.717,-288.149 118.61,-288.149"/>
<polygon fill="black" stroke="black" stroke-width="4.25" points="118.713,-291.868 128.713,-288.149 118.713,-284.43 118.713,-291.868"/>
</g>
<!-- AS12301 -->
<g id="node3" class="node"><title>AS12301</title>
<g id="a_node3"><a xlink:href="/asn/12301" xlink:title="AS12301 ~ Invitech ICT Services Kft. [HU]">
<ellipse fill="#ffffff" stroke="black" cx="168.588" cy="-365.149" rx="44.393" ry="18"/>
<text text-anchor="middle" x="168.588" y="-361.449" font-family="Times,serif" font-size="14.00" fill="#2c94b3">AS12301</text>
</a>
</g>
</g>
<!-- AS57763&#45;&gt;AS12301 -->
<g id="edge2" class="edge"><title>AS57763&#45;&gt;AS12301</title>
<path fill="none" stroke="black" stroke-width="4.5" d="M69.0851,-303.178C87.9551,-315.05 114.478,-331.736 135.249,-344.803"/>
<polygon fill="black" stroke="black" stroke-width="4.5" points="133.198,-348.165 143.76,-350.157 137.392,-341.5 133.198,-348.165"/>
</g>
<!-- AS39912 -->
<g id="node4" class="node"><title>AS39912</title>
<g id="a_node4"><a xlink:href="/asn/39912" xlink:title="AS39912 ~ oja.at GmbH [AT]">
<ellipse fill="#ffffff" stroke="black" cx="168.588" cy="-200.149" rx="44.393" ry="18"/>
<text text-anchor="middle" x="168.588" y="-196.449" font-family="Times,serif" font-size="14.00" fill="#2c94b3">AS39912</text>
</a>
</g>
</g>
<!-- AS57763&#45;&gt;AS39912 -->
<g id="edge3" class="edge"><title>AS57763&#45;&gt;AS39912</title>
<path fill="none" stroke="black" stroke-width="0.75" d="M66.7956,-272.619C86.4247,-258.505 115.579,-237.543 137.49,-221.79"/>
<polygon fill="black" stroke="black" stroke-width="0.75" points="139.717,-224.499 145.793,-215.82 135.631,-218.816 139.717,-224.499"/>
</g>
<!-- AS3320 -->
<g id="node5" class="node"><title>AS3320</title>
<g id="a_node5"><a xlink:href="/asn/3320" xlink:title="AS3320 ~ DTAG [DE]">
<ellipse fill="#ffffff" stroke="black" cx="288.431" cy="-323.149" rx="39.7935" ry="18"/>
<text text-anchor="middle" x="288.431" y="-319.449" font-family="Times,serif" font-size="14.00" fill="#2c94b3">AS3320</text>
</a>
</g>
</g>
<!-- AS1764&#45;&gt;AS3320 -->
<g id="edge4" class="edge"><title>AS1764&#45;&gt;AS3320</title>
<path fill="none" stroke="black" stroke-width="3" d="M202.101,-297.805C215.258,-301.713 230.63,-306.279 244.674,-310.45"/>
<polygon fill="black" stroke="black" stroke-width="3" points="244.032,-313.91 254.615,-313.402 246.025,-307.2 244.032,-313.91"/>
</g>
<!-- AS3356 -->
<g id="node6" class="node"><title>AS3356</title>
<g id="a_node6"><a xlink:href="/asn/3356" xlink:title="AS3356 ~ Level 3 Parent, LLC [US]">
<ellipse fill="#ffffff" stroke="black" cx="288.431" cy="-377.149" rx="39.7935" ry="18"/>
<text text-anchor="middle" x="288.431" y="-373.449" font-family="Times,serif" font-size="14.00" fill="#2c94b3">AS3356</text>
</a>
</g>
</g>
<!-- AS1764&#45;&gt;AS3356 -->
<g id="edge5" class="edge"><title>AS1764&#45;&gt;AS3356</title>
<path fill="none" stroke="black" stroke-width="4" d="M188.889,-303.735C204.786,-316.457 228.01,-334.777 248.784,-350.149 251.566,-352.207 254.483,-354.322 257.415,-356.419"/>
<polygon fill="black" stroke="black" stroke-width="4" points="255.431,-359.302 265.617,-362.217 259.472,-353.586 255.431,-359.302"/>
</g>
<!-- AS8218 -->
<g id="node7" class="node"><title>AS8218</title>
<g id="a_node7"><a xlink:href="/asn/8218" xlink:title="AS8218 ~ legacy Neotelecoms [FR]">
<ellipse fill="#ffffff" stroke="black" cx="288.431" cy="-496.149" rx="39.7935" ry="18"/>
<text text-anchor="middle" x="288.431" y="-492.449" font-family="Times,serif" font-size="14.00" fill="#2c94b3">AS8218</text>
</a>
</g>
</g>
<!-- AS1764&#45;&gt;AS8218 -->
<g id="edge6" class="edge"><title>AS1764&#45;&gt;AS8218</title>
<path fill="none" stroke="black" d="M186.01,-304.811C194.648,-314.123 205.025,-326.227 212.784,-338.149 227.709,-361.082 258.662,-430.141 275.646,-468.938"/>
<polygon fill="black" stroke="black" points="272.636,-470.793 279.843,-478.559 279.053,-467.994 272.636,-470.793"/>
</g>
<!-- AS174 -->
<g id="node8" class="node"><title>AS174</title>
<g id="a_node8"><a xlink:href="/asn/174" xlink:title="AS174 ~ Cogent Communications [US]">
<ellipse fill="#ffffff" stroke="black" cx="403.724" cy="-277.149" rx="35.194" ry="18"/>
<text text-anchor="middle" x="403.724" y="-273.449" font-family="Times,serif" font-size="14.00" fill="#2c94b3">AS174</text>
</a>
</g>
</g>
<!-- AS1764&#45;&gt;AS174 -->
<g id="edge7" class="edge"><title>AS1764&#45;&gt;AS174</title>
<path fill="none" stroke="black" stroke-width="2" d="M208.086,-286.332C249.513,-284.378 315.287,-281.274 358.729,-279.225"/>
<polygon fill="black" stroke="black" stroke-width="2" points="358.899,-282.72 368.723,-278.753 358.569,-275.728 358.899,-282.72"/>
</g>
<!-- AS2914 -->
<g id="node9" class="node"><title>AS2914</title>
<g id="a_node9"><a xlink:href="/asn/2914" xlink:title="AS2914 ~ NTT America, Inc. [US]">
<ellipse fill="#ffffff" stroke="black" cx="403.724" cy="-169.149" rx="39.7935" ry="18"/>
<text text-anchor="middle" x="403.724" y="-165.449" font-family="Times,serif" font-size="14.00" fill="#2c94b3">AS2914</text>
</a>
</g>
</g>
<!-- AS1764&#45;&gt;AS2914 -->
<g id="edge8" class="edge"><title>AS1764&#45;&gt;AS2914</title>
<path fill="none" stroke="black" stroke-width="4" d="M192.068,-273.592C207.71,-263.696 229.192,-250.561 248.784,-240.149 287.528,-219.557 333.351,-198.871 364.87,-185.183"/>
<polygon fill="black" stroke="black" stroke-width="4" points="366.376,-188.345 374.169,-181.168 363.601,-181.919 366.376,-188.345"/>
</g>
<!-- AS3257 -->
<g id="node10" class="node"><title>AS3257</title>
<g id="a_node10"><a xlink:href="/asn/3257" xlink:title="AS3257 ~ GTT [DE]">
<ellipse fill="#ffffff" stroke="black" cx="403.724" cy="-223.149" rx="39.7935" ry="18"/>
<text text-anchor="middle" x="403.724" y="-219.449" font-family="Times,serif" font-size="14.00" fill="#2c94b3">AS3257</text>
</a>
</g>
</g>
<!-- AS1764&#45;&gt;AS3257 -->
<g id="edge9" class="edge"><title>AS1764&#45;&gt;AS3257</title>
<path fill="none" stroke="black" stroke-width="3" d="M202.991,-278.836C244.194,-267.348 314.322,-247.796 359.568,-235.181"/>
<polygon fill="black" stroke="black" stroke-width="3" points="360.69,-238.501 369.383,-232.444 358.81,-231.759 360.69,-238.501"/>
</g>
<!-- AS12301&#45;&gt;AS3356 -->
<g id="edge28" class="edge"><title>AS12301&#45;&gt;AS3356</title>
<path fill="none" stroke="black" stroke-width="4.5" d="M211.799,-369.447C220.724,-370.356 230.207,-371.322 239.331,-372.251"/>
<polygon fill="black" stroke="black" stroke-width="4.5" points="239.084,-376.183 249.431,-373.279 239.882,-368.349 239.084,-376.183"/>
</g>
<!-- AS6461 -->
<g id="node13" class="node"><title>AS6461</title>
<g id="a_node13"><a xlink:href="/asn/6461" xlink:title="AS6461 ~ Zayo Bandwidth [US]">
<ellipse fill="#ffffff" stroke="black" cx="403.724" cy="-607.149" rx="39.7935" ry="18"/>
<text text-anchor="middle" x="403.724" y="-603.449" font-family="Times,serif" font-size="14.00" fill="#2c94b3">AS6461</text>
</a>
</g>
</g>
<!-- AS12301&#45;&gt;AS6461 -->
<g id="edge29" class="edge"><title>AS12301&#45;&gt;AS6461</title>
<path fill="none" stroke="black" stroke-width="0.45" d="M174.667,-383.127C184.404,-414.843 208.392,-481.323 248.784,-523.149 280.546,-556.038 328.018,-579.246 361.838,-592.814"/>
<polygon fill="black" stroke="black" stroke-width="0.45" points="360.838,-596.181 371.427,-596.55 363.38,-589.659 360.838,-596.181"/>
</g>
<!-- AS1299 -->
<g id="node19" class="node"><title>AS1299</title>
<g id="a_node19"><a xlink:href="/asn/1299" xlink:title="AS1299 ~ Telia Carrier [EU]">
<ellipse fill="#ffffff" stroke="black" cx="288.431" cy="-155.149" rx="39.7935" ry="18"/>
<text text-anchor="middle" x="288.431" y="-151.449" font-family="Times,serif" font-size="14.00" fill="#2c94b3">AS1299</text>
</a>
</g>
</g>
<!-- AS12301&#45;&gt;AS1299 -->
<g id="edge30" class="edge"><title>AS12301&#45;&gt;AS1299</title>
<path fill="none" stroke="black" stroke-width="3.15" d="M186.033,-348.501C194.678,-339.194 205.054,-327.089 212.784,-315.149 241.013,-271.543 264.58,-215.554 277.286,-182.686"/>
<polygon fill="black" stroke="black" stroke-width="3.15" points="280.585,-183.858 280.874,-173.267 274.044,-181.366 280.585,-183.858"/>
</g>
<!-- AS39912&#45;&gt;AS1299 -->
<g id="edge37" class="edge"><title>AS39912&#45;&gt;AS1299</title>
<path fill="none" stroke="black" stroke-width="3" d="M201.478,-187.971C215.792,-182.505 232.824,-176.001 247.936,-170.23"/>
<polygon fill="black" stroke="black" stroke-width="3" points="249.448,-173.399 257.542,-166.562 246.951,-166.86 249.448,-173.399"/>
</g>
<!-- AS701 -->
<g id="node11" class="node"><title>AS701</title>
<g id="a_node11"><a xlink:href="/asn/701" xlink:title="AS701 ~ UUNET [US]">
<ellipse fill="#ffffff" stroke="black" cx="403.724" cy="-331.149" rx="35.194" ry="18"/>
<text text-anchor="middle" x="403.724" y="-327.449" font-family="Times,serif" font-size="14.00" fill="#2c94b3">AS701</text>
</a>
</g>
</g>
<!-- AS3320&#45;&gt;AS701 -->
<g id="edge10" class="edge"><title>AS3320&#45;&gt;AS701</title>
<path fill="none" stroke="black" d="M327.787,-325.857C337.601,-326.55 348.236,-327.301 358.327,-328.014"/>
<polygon fill="black" stroke="black" points="358.366,-331.525 368.588,-328.738 358.86,-324.542 358.366,-331.525"/>
</g>
<!-- AS1239 -->
<g id="node12" class="node"><title>AS1239</title>
<g id="a_node12"><a xlink:href="/asn/1239" xlink:title="AS1239 ~ Sprint [US]">
<ellipse fill="#ffffff" stroke="black" cx="519.017" cy="-85.1487" rx="39.7935" ry="18"/>
<text text-anchor="middle" x="519.017" y="-81.4487" font-family="Times,serif" font-size="14.00" fill="#2c94b3">AS1239</text>
</a>
</g>
</g>
<!-- AS3320&#45;&gt;AS1239 -->
<g id="edge11" class="edge"><title>AS3320&#45;&gt;AS1239</title>
<path fill="none" stroke="black" d="M291.998,-305.052C298.026,-269.092 316.36,-188.154 364.077,-142.149 393.175,-114.095 437.281,-99.6303 470.834,-92.3084"/>
<polygon fill="black" stroke="black" points="471.782,-95.6872 480.88,-90.2582 470.382,-88.8285 471.782,-95.6872"/>
</g>
<!-- AS3356&#45;&gt;AS174 -->
<g id="edge21" class="edge"><title>AS3356&#45;&gt;AS174</title>
<path fill="none" stroke="black" d="M312.373,-362.796C317.767,-358.977 323.323,-354.651 328.077,-350.149 346.925,-332.296 345.229,-322.001 364.077,-304.149 366.651,-301.711 369.46,-299.325 372.351,-297.044"/>
<polygon fill="black" stroke="black" points="374.643,-299.702 380.589,-290.933 370.472,-294.079 374.643,-299.702"/>
</g>
<!-- AS3356&#45;&gt;AS2914 -->
<g id="edge18" class="edge"><title>AS3356&#45;&gt;AS2914</title>
<path fill="none" stroke="black" d="M314.708,-363.513C319.766,-359.771 324.589,-355.299 328.077,-350.149 367.493,-291.951 324.661,-254.347 364.077,-196.149 365.712,-193.734 367.641,-191.469 369.749,-189.359"/>
<polygon fill="black" stroke="black" points="372.116,-191.94 377.447,-182.784 367.57,-186.617 372.116,-191.94"/>
</g>
<!-- AS3356&#45;&gt;AS3257 -->
<g id="edge17" class="edge"><title>AS3356&#45;&gt;AS3257</title>
<path fill="none" stroke="black" d="M314.274,-363.201C319.355,-359.475 324.297,-355.088 328.077,-350.149 356.787,-312.638 335.367,-287.659 364.077,-250.149 365.849,-247.833 367.877,-245.639 370.054,-243.578"/>
<polygon fill="black" stroke="black" points="372.411,-246.17 377.881,-237.096 367.946,-240.779 372.411,-246.17"/>
</g>
<!-- AS3356&#45;&gt;AS701 -->
<g id="edge16" class="edge"><title>AS3356&#45;&gt;AS701</title>
<path fill="none" stroke="black" d="M318.607,-365.303C333.02,-359.45 350.564,-352.327 365.893,-346.103"/>
<polygon fill="black" stroke="black" points="367.643,-349.17 375.592,-342.165 365.01,-342.684 367.643,-349.17"/>
</g>
<!-- AS3549 -->
<g id="node14" class="node"><title>AS3549</title>
<g id="a_node14"><a xlink:href="/asn/3549" xlink:title="AS3549 ~ Level 3 Parent, LLC [US]">
<ellipse fill="#ffffff" stroke="black" cx="403.724" cy="-477.149" rx="39.7935" ry="18"/>
<text text-anchor="middle" x="403.724" y="-473.449" font-family="Times,serif" font-size="14.00" fill="#2c94b3">AS3549</text>
</a>
</g>
</g>
<!-- AS3356&#45;&gt;AS3549 -->
<g id="edge13" class="edge"><title>AS3356&#45;&gt;AS3549</title>
<path fill="none" stroke="black" stroke-width="2" d="M304.736,-393.603C319.349,-408.944 342.305,-432.105 364.077,-450.149 366.598,-452.238 369.275,-454.333 371.997,-456.382"/>
<polygon fill="black" stroke="black" stroke-width="2" points="370.042,-459.288 380.189,-462.335 374.157,-453.625 370.042,-459.288"/>
</g>
<!-- AS6453 -->
<g id="node15" class="node"><title>AS6453</title>
<g id="a_node15"><a xlink:href="/asn/6453" xlink:title="AS6453 ~ TATA COMMUNICATIONS (AMERICA) INC [US]">
<ellipse fill="#ffffff" stroke="black" cx="403.724" cy="-423.149" rx="39.7935" ry="18"/>
<text text-anchor="middle" x="403.724" y="-419.449" font-family="Times,serif" font-size="14.00" fill="#2c94b3">AS6453</text>
</a>
</g>
</g>
<!-- AS3356&#45;&gt;AS6453 -->
<g id="edge14" class="edge"><title>AS3356&#45;&gt;AS6453</title>
<path fill="none" stroke="black" stroke-width="2" d="M318.607,-388.995C332.482,-394.629 349.259,-401.441 364.169,-407.494"/>
<polygon fill="black" stroke="black" stroke-width="2" points="363.065,-410.824 373.647,-411.343 365.698,-404.338 363.065,-410.824"/>
</g>
<!-- AS2497 -->
<g id="node16" class="node"><title>AS2497</title>
<g id="a_node16"><a xlink:href="/asn/2497" xlink:title="AS2497 ~ Internet Initiative Japan Inc. [JP]">
<ellipse fill="#ffffff" stroke="black" cx="519.017" cy="-223.149" rx="39.7935" ry="18"/>
<text text-anchor="middle" x="519.017" y="-219.449" font-family="Times,serif" font-size="14.00" fill="#2c94b3">AS2497</text>
</a>
</g>
</g>
<!-- AS3356&#45;&gt;AS2497 -->
<g id="edge15" class="edge"><title>AS3356&#45;&gt;AS2497</title>
<path fill="none" stroke="black" stroke-width="2" d="M297.211,-394.956C311.597,-426.955 342.822,-491.987 364.077,-504.149 394.665,-521.651 415.435,-525.632 443.37,-504.149 453.622,-496.264 495.313,-320.854 511.525,-251.246"/>
<polygon fill="black" stroke="black" stroke-width="2" points="514.959,-251.933 513.812,-241.4 508.14,-250.348 514.959,-251.933"/>
</g>
<!-- AS6762 -->
<g id="node17" class="node"><title>AS6762</title>
<g id="a_node17"><a xlink:href="/asn/6762" xlink:title="AS6762 ~ TELECOM ITALIA SPARKLE S.p.A. [IT]">
<ellipse fill="#ffffff" stroke="black" cx="519.017" cy="-169.149" rx="39.7935" ry="18"/>
<text text-anchor="middle" x="519.017" y="-165.449" font-family="Times,serif" font-size="14.00" fill="#2c94b3">AS6762</text>
</a>
</g>
</g>
<!-- AS3356&#45;&gt;AS6762 -->
<g id="edge19" class="edge"><title>AS3356&#45;&gt;AS6762</title>
<path fill="none" stroke="black" d="M325.663,-383.469C360.296,-387.293 411.778,-386.848 443.37,-358.149 497.963,-308.554 438.346,-257.443 479.37,-196.149 480.992,-193.726 482.911,-191.454 485.013,-189.339"/>
<polygon fill="black" stroke="black" points="487.38,-191.919 492.698,-182.756 482.826,-186.603 487.38,-191.919"/>
</g>
<!-- AS3491 -->
<g id="node18" class="node"><title>AS3491</title>
<g id="a_node18"><a xlink:href="/asn/3491" xlink:title="AS3491 ~ PCCW Global, Inc. [US]">
<ellipse fill="#ffffff" stroke="black" cx="519.017" cy="-419.149" rx="39.7935" ry="18"/>
<text text-anchor="middle" x="519.017" y="-415.449" font-family="Times,serif" font-size="14.00" fill="#2c94b3">AS3491</text>
</a>
</g>
</g>
<!-- AS3356&#45;&gt;AS3491 -->
<g id="edge20" class="edge"><title>AS3356&#45;&gt;AS3491</title>
<path fill="none" stroke="black" d="M297.122,-394.948C314.847,-435.775 357.549,-532.991 364.077,-537.149 393.801,-556.081 412.5,-554.149 443.37,-537.149 477.979,-518.09 498.776,-475.47 509.321,-447.014"/>
<polygon fill="black" stroke="black" points="512.741,-447.836 512.748,-437.242 506.136,-445.52 512.741,-447.836"/>
</g>
<!-- AS8218&#45;&gt;AS6461 -->
<g id="edge12" class="edge"><title>AS8218&#45;&gt;AS6461</title>
<path fill="none" stroke="black" d="M304.029,-512.746C318.687,-529.132 342.179,-554.64 364.077,-575.149 367.626,-578.472 371.464,-581.867 375.297,-585.145"/>
<polygon fill="black" stroke="black" points="373.148,-587.911 383.062,-591.648 377.642,-582.544 373.148,-587.911"/>
</g>
<!-- AS174&#45;&gt;AS3491 -->
<g id="edge27" class="edge"><title>AS174&#45;&gt;AS3491</title>
<path fill="none" stroke="black" d="M427.148,-290.641C432.789,-294.599 438.592,-299.205 443.37,-304.149 469.072,-330.741 491.073,-367.416 504.397,-392.139"/>
<polygon fill="black" stroke="black" points="501.47,-394.091 509.233,-401.301 507.66,-390.824 501.47,-394.091"/>
</g>
<!-- AS2914&#45;&gt;AS1239 -->
<g id="edge24" class="edge"><title>AS2914&#45;&gt;AS1239</title>
<path fill="none" stroke="black" d="M425.24,-153.937C443.095,-140.699 469.168,-121.367 489.13,-106.566"/>
<polygon fill="black" stroke="black" points="491.322,-109.299 497.27,-100.531 487.153,-103.676 491.322,-109.299"/>
</g>
<!-- AS2914&#45;&gt;AS2497 -->
<g id="edge23" class="edge"><title>AS2914&#45;&gt;AS2497</title>
<path fill="none" stroke="black" d="M431.86,-182.083C446.854,-189.23 465.675,-198.201 481.898,-205.933"/>
<polygon fill="black" stroke="black" points="480.569,-209.177 491.102,-210.32 483.581,-202.858 480.569,-209.177"/>
</g>
<!-- AS2914&#45;&gt;AS6762 -->
<g id="edge22" class="edge"><title>AS2914&#45;&gt;AS6762</title>
<path fill="none" stroke="black" d="M443.396,-169.149C451.599,-169.149 460.363,-169.149 468.895,-169.149"/>
<polygon fill="black" stroke="black" points="469.134,-172.649 479.134,-169.149 469.134,-165.649 469.134,-172.649"/>
</g>
<!-- AS3257&#45;&gt;AS2497 -->
<g id="edge26" class="edge"><title>AS3257&#45;&gt;AS2497</title>
<path fill="none" stroke="black" d="M443.396,-223.149C451.599,-223.149 460.363,-223.149 468.895,-223.149"/>
<polygon fill="black" stroke="black" points="469.134,-226.649 479.134,-223.149 469.134,-219.649 469.134,-226.649"/>
</g>
<!-- AS3257&#45;&gt;AS6762 -->
<g id="edge25" class="edge"><title>AS3257&#45;&gt;AS6762</title>
<path fill="none" stroke="black" d="M431.86,-210.214C446.854,-203.068 465.675,-194.097 481.898,-186.364"/>
<polygon fill="black" stroke="black" points="483.581,-189.44 491.102,-181.978 480.569,-183.121 483.581,-189.44"/>
</g>
<!-- AS1299&#45;&gt;AS174 -->
<g id="edge32" class="edge"><title>AS1299&#45;&gt;AS174</title>
<path fill="none" stroke="black" d="M300.751,-172.526C314.325,-192.593 338.47,-225.941 364.077,-250.149 366.653,-252.584 369.464,-254.968 372.356,-257.249"/>
<polygon fill="black" stroke="black" points="370.478,-260.213 380.595,-263.358 374.647,-254.59 370.478,-260.213"/>
</g>
<!-- AS1299&#45;&gt;AS2914 -->
<g id="edge36" class="edge"><title>AS1299&#45;&gt;AS2914</title>
<path fill="none" stroke="black" d="M326.841,-159.772C335.929,-160.895 345.766,-162.11 355.251,-163.282"/>
<polygon fill="black" stroke="black" points="354.999,-166.778 365.353,-164.531 355.857,-159.831 354.999,-166.778"/>
</g>
<!-- AS1299&#45;&gt;AS3257 -->
<g id="edge31" class="edge"><title>AS1299&#45;&gt;AS3257</title>
<path fill="none" stroke="black" d="M313.181,-169.404C329.797,-179.377 352.193,-192.82 370.43,-203.766"/>
<polygon fill="black" stroke="black" points="368.63,-206.767 379.005,-208.912 372.232,-200.765 368.63,-206.767"/>
</g>
<!-- AS1299&#45;&gt;AS1239 -->
<g id="edge35" class="edge"><title>AS1299&#45;&gt;AS1239</title>
<path fill="none" stroke="black" d="M292.683,-137.034C299.495,-105.139 318.572,-39.727 364.077,-12.1487 394.216,6.11653 410.737,1.15582 443.37,-12.1487 466.812,-21.7057 486.892,-42.5606 500.302,-59.5424"/>
<polygon fill="black" stroke="black" points="497.867,-62.124 506.69,-67.9894 503.45,-57.902 497.867,-62.124"/>
</g>
<!-- AS1299&#45;&gt;AS6762 -->
<g id="edge34" class="edge"><title>AS1299&#45;&gt;AS6762</title>
<path fill="none" stroke="black" stroke-width="2" d="M324.201,-147.147C355.551,-141.13 402.819,-135.04 443.37,-142.149 455.884,-144.342 469.065,-148.457 480.81,-152.825"/>
<polygon fill="black" stroke="black" stroke-width="2" points="479.704,-156.151 490.292,-156.518 482.244,-149.628 479.704,-156.151"/>
</g>
<!-- AS7018 -->
<g id="node20" class="node"><title>AS7018</title>
<g id="a_node20"><a xlink:href="/asn/7018" xlink:title="AS7018 ~ AT&amp;T Services, Inc. [US]">
<ellipse fill="#ffffff" stroke="black" cx="403.724" cy="-39.1487" rx="39.7935" ry="18"/>
<text text-anchor="middle" x="403.724" y="-35.4487" font-family="Times,serif" font-size="14.00" fill="#2c94b3">AS7018</text>
</a>
</g>
</g>
<!-- AS1299&#45;&gt;AS7018 -->
<g id="edge33" class="edge"><title>AS1299&#45;&gt;AS7018</title>
<path fill="none" stroke="black" stroke-width="2" d="M303.037,-138.37C317.489,-120.91 341.342,-93.1036 364.077,-71.1487 367.575,-67.7714 371.384,-64.3457 375.203,-61.0533"/>
<polygon fill="black" stroke="black" stroke-width="2" points="377.551,-63.6515 382.959,-54.5404 373.05,-58.2909 377.551,-63.6515"/>
</g>
</g>
</svg>
