<?xml version="1.0" encoding="UTF-8" standalone="no"?>
<!DOCTYPE svg PUBLIC "-//W3C//DTD SVG 1.1//EN"
 "http://www.w3.org/Graphics/SVG/1.1/DTD/svg11.dtd">
<!-- Generated by graphviz version 2.38.0 (20140413.2041)
 -->
<!-- Title: AS35370 IPv4 Upstream Graph Pages: 1 -->
<svg width="585pt" height="584pt"
 viewBox="0.00 0.00 584.86 584.00" xmlns="http://www.w3.org/2000/svg" xmlns:xlink="http://www.w3.org/1999/xlink">
<g id="graph0" class="graph" transform="scale(1 1) rotate(0) translate(4 580)">
<title>AS35370 IPv4 Upstream Graph</title>
<polygon fill="white" stroke="none" points="-4,4 -4,-580 580.862,-580 580.862,4 -4,4"/>
<!-- AS35370 -->
<g id="node1" class="node"><title>AS35370</title>
<g id="a_node1"><a xlink:href="/asn/35370" xlink:title="AS35370 ~ AINET&#45;AS [AT]">
<ellipse fill="#ffffff" stroke="black" cx="44.1961" cy="-195" rx="44.393" ry="18"/>
<text text-anchor="middle" x="44.1961" y="-191.3" font-family="Times,serif" font-size="14.00" fill="#880000">AS35370</text>
</a>
</g>
</g>
<!-- AS25447 -->
<g id="node2" class="node"><title>AS25447</title>
<g id="a_node2"><a xlink:href="/asn/25447" xlink:title="AS25447 ~ Hackl&#45;Str. 1, Object 2, OG2 [AT]">
<ellipse fill="#ffffff" stroke="black" cx="168.588" cy="-168" rx="44.393" ry="18"/>
<text text-anchor="middle" x="168.588" y="-164.3" font-family="Times,serif" font-size="14.00" fill="#2c94b3">AS25447</text>
</a>
</g>
</g>
<!-- AS35370&#45;&gt;AS25447 -->
<g id="edge1" class="edge"><title>AS35370&#45;&gt;AS25447</title>
<path fill="none" stroke="black" stroke-width="4.5" d="M83.5859,-186.531C94.9779,-184.018 107.6,-181.233 119.525,-178.603"/>
<polygon fill="black" stroke="black" stroke-width="4.5" points="120.418,-182.438 129.335,-176.439 118.721,-174.748 120.418,-182.438"/>
</g>
<!-- AS29056 -->
<g id="node3" class="node"><title>AS29056</title>
<g id="a_node3"><a xlink:href="/asn/29056" xlink:title="AS29056 ~ Citycom Telekommunikation GmbH [AT]">
<ellipse fill="#ffffff" stroke="black" cx="168.588" cy="-222" rx="44.393" ry="18"/>
<text text-anchor="middle" x="168.588" y="-218.3" font-family="Times,serif" font-size="14.00" fill="#2c94b3">AS29056</text>
</a>
</g>
</g>
<!-- AS35370&#45;&gt;AS29056 -->
<g id="edge2" class="edge"><title>AS35370&#45;&gt;AS29056</title>
<path fill="none" stroke="black" stroke-width="3.42" d="M83.5859,-203.469C94.9779,-205.982 107.6,-208.767 119.525,-211.397"/>
<polygon fill="black" stroke="black" stroke-width="3.42" points="118.815,-214.825 129.335,-213.561 120.323,-207.989 118.815,-214.825"/>
</g>
<!-- AS33891 -->
<g id="node4" class="node"><title>AS33891</title>
<g id="a_node4"><a xlink:href="/asn/33891" xlink:title="AS33891 ~ CORE&#45;BACKBONE GMBH GLOBAL NETWORK [DE]">
<ellipse fill="#ffffff" stroke="black" cx="292.98" cy="-260" rx="44.393" ry="18"/>
<text text-anchor="middle" x="292.98" y="-256.3" font-family="Times,serif" font-size="14.00" fill="#2c94b3">AS33891</text>
</a>
</g>
</g>
<!-- AS25447&#45;&gt;AS33891 -->
<g id="edge3" class="edge"><title>AS25447&#45;&gt;AS33891</title>
<path fill="none" stroke="black" stroke-width="4.5" d="M194.618,-182.885C200.665,-186.688 207.038,-190.872 212.784,-195 231.068,-208.134 250.63,-224.169 265.738,-237.026"/>
<polygon fill="black" stroke="black" stroke-width="4.5" points="263.483,-240.279 273.636,-243.803 268.611,-234.303 263.483,-240.279"/>
</g>
<!-- AS1764 -->
<g id="node5" class="node"><title>AS1764</title>
<g id="a_node5"><a xlink:href="/asn/1764" xlink:title="AS1764 ~ NEXTLAYER&#45;AS [AT]">
<ellipse fill="#ffffff" stroke="black" cx="292.98" cy="-130" rx="39.7935" ry="18"/>
<text text-anchor="middle" x="292.98" y="-126.3" font-family="Times,serif" font-size="14.00" fill="#2c94b3">AS1764</text>
</a>
</g>
</g>
<!-- AS25447&#45;&gt;AS1764 -->
<g id="edge4" class="edge"><title>AS25447&#45;&gt;AS1764</title>
<path fill="none" stroke="black" stroke-width="0.964286" d="M204.334,-157.212C218.459,-152.827 234.913,-147.718 249.725,-143.119"/>
<polygon fill="black" stroke="black" stroke-width="0.964286" points="251.156,-146.34 259.668,-140.032 249.08,-139.655 251.156,-146.34"/>
</g>
<!-- AS174 -->
<g id="node6" class="node"><title>AS174</title>
<g id="a_node6"><a xlink:href="/asn/174" xlink:title="AS174 ~ Cogent Communications [US]">
<ellipse fill="#ffffff" stroke="black" cx="412.823" cy="-180" rx="35.194" ry="18"/>
<text text-anchor="middle" x="412.823" y="-176.3" font-family="Times,serif" font-size="14.00" fill="#2c94b3">AS174</text>
</a>
</g>
</g>
<!-- AS25447&#45;&gt;AS174 -->
<g id="edge5" class="edge"><title>AS25447&#45;&gt;AS174</title>
<path fill="none" stroke="black" stroke-width="2.57143" d="M212.616,-170.132C256.291,-172.295 323.582,-175.629 367.66,-177.812"/>
<polygon fill="black" stroke="black" stroke-width="2.57143" points="367.629,-181.315 377.79,-178.314 367.975,-174.323 367.629,-181.315"/>
</g>
<!-- AS29056&#45;&gt;AS1764 -->
<g id="edge33" class="edge"><title>AS29056&#45;&gt;AS1764</title>
<path fill="none" stroke="black" stroke-width="3.85714" d="M194.618,-207.115C200.665,-203.312 207.038,-199.128 212.784,-195 231.19,-181.778 250.891,-165.617 266.039,-152.717"/>
<polygon fill="black" stroke="black" stroke-width="3.85714" points="268.642,-155.096 273.949,-145.926 264.082,-149.785 268.642,-155.096"/>
</g>
<!-- AS3257 -->
<g id="node8" class="node"><title>AS3257</title>
<g id="a_node8"><a xlink:href="/asn/3257" xlink:title="AS3257 ~ GTT [DE]">
<ellipse fill="#ffffff" stroke="black" cx="412.823" cy="-234" rx="39.7935" ry="18"/>
<text text-anchor="middle" x="412.823" y="-230.3" font-family="Times,serif" font-size="14.00" fill="#2c94b3">AS3257</text>
</a>
</g>
</g>
<!-- AS29056&#45;&gt;AS3257 -->
<g id="edge34" class="edge"><title>AS29056&#45;&gt;AS3257</title>
<path fill="none" stroke="black" stroke-width="4.5" d="M212.616,-224.132C254.78,-226.22 318.956,-229.399 363.006,-231.582"/>
<polygon fill="black" stroke="black" stroke-width="4.5" points="363.008,-235.524 373.191,-232.086 363.398,-227.659 363.008,-235.524"/>
</g>
<!-- AS6830 -->
<g id="node24" class="node"><title>AS6830</title>
<g id="a_node24"><a xlink:href="/asn/6830" xlink:title="AS6830 ~ LGI&#45;UPC [AT]">
<ellipse fill="#ffffff" stroke="black" cx="412.823" cy="-288" rx="39.7935" ry="18"/>
<text text-anchor="middle" x="412.823" y="-284.3" font-family="Times,serif" font-size="14.00" fill="#2c94b3">AS6830</text>
</a>
</g>
</g>
<!-- AS29056&#45;&gt;AS6830 -->
<g id="edge35" class="edge"><title>AS29056&#45;&gt;AS6830</title>
<path fill="none" stroke="black" stroke-width="3.85714" d="M183.9,-239.085C198.38,-254.929 222.353,-277.45 248.784,-287 286.421,-300.598 332.211,-299.482 365.671,-295.756"/>
<polygon fill="black" stroke="black" stroke-width="3.85714" points="366.139,-299.225 375.636,-294.53 365.284,-292.278 366.139,-299.225"/>
</g>
<!-- AS3356 -->
<g id="node7" class="node"><title>AS3356</title>
<g id="a_node7"><a xlink:href="/asn/3356" xlink:title="AS3356 ~ Level 3 Parent, LLC [US]">
<ellipse fill="#ffffff" stroke="black" cx="412.823" cy="-342" rx="39.7935" ry="18"/>
<text text-anchor="middle" x="412.823" y="-338.3" font-family="Times,serif" font-size="14.00" fill="#2c94b3">AS3356</text>
</a>
</g>
</g>
<!-- AS33891&#45;&gt;AS3356 -->
<g id="edge6" class="edge"><title>AS33891&#45;&gt;AS3356</title>
<path fill="none" stroke="black" stroke-width="4.5" d="M316.146,-275.424C334.697,-288.333 361.343,-306.874 381.806,-321.113"/>
<polygon fill="black" stroke="black" stroke-width="4.5" points="379.698,-324.443 390.155,-326.923 384.196,-317.979 379.698,-324.443"/>
</g>
<!-- AS33891&#45;&gt;AS3257 -->
<g id="edge7" class="edge"><title>AS33891&#45;&gt;AS3257</title>
<path fill="none" stroke="black" stroke-width="0.5" d="M332.24,-251.559C343.364,-249.104 355.613,-246.402 367.096,-243.868"/>
<polygon fill="black" stroke="black" stroke-width="0.5" points="367.932,-247.268 376.943,-241.696 366.424,-240.432 367.932,-247.268"/>
</g>
<!-- AS1299 -->
<g id="node9" class="node"><title>AS1299</title>
<g id="a_node9"><a xlink:href="/asn/1299" xlink:title="AS1299 ~ Telia Carrier [EU]">
<ellipse fill="#ffffff" stroke="black" cx="412.823" cy="-126" rx="39.7935" ry="18"/>
<text text-anchor="middle" x="412.823" y="-122.3" font-family="Times,serif" font-size="14.00" fill="#2c94b3">AS1299</text>
</a>
</g>
</g>
<!-- AS33891&#45;&gt;AS1299 -->
<g id="edge8" class="edge"><title>AS33891&#45;&gt;AS1299</title>
<path fill="none" stroke="black" stroke-width="1.5" d="M304.52,-242.343C318.428,-219.945 344.521,-180.882 373.176,-153 375.321,-150.913 377.642,-148.872 380.044,-146.905"/>
<polygon fill="black" stroke="black" stroke-width="1.5" points="382.554,-149.393 388.39,-140.551 378.313,-143.824 382.554,-149.393"/>
</g>
<!-- AS1273 -->
<g id="node10" class="node"><title>AS1273</title>
<g id="a_node10"><a xlink:href="/asn/1273" xlink:title="AS1273 ~ Vodafone Group PLC [EU]">
<ellipse fill="#ffffff" stroke="black" cx="412.823" cy="-396" rx="39.7935" ry="18"/>
<text text-anchor="middle" x="412.823" y="-392.3" font-family="Times,serif" font-size="14.00" fill="#2c94b3">AS1273</text>
</a>
</g>
</g>
<!-- AS33891&#45;&gt;AS1273 -->
<g id="edge9" class="edge"><title>AS33891&#45;&gt;AS1273</title>
<path fill="none" stroke="black" stroke-width="0.5" d="M304.211,-277.61C317.983,-300.379 344.131,-340.488 373.176,-369 375.312,-371.096 377.626,-373.145 380.024,-375.116"/>
<polygon fill="black" stroke="black" stroke-width="0.5" points="378.288,-378.194 388.361,-381.479 382.535,-372.63 378.288,-378.194"/>
</g>
<!-- AS1764&#45;&gt;AS174 -->
<g id="edge20" class="edge"><title>AS1764&#45;&gt;AS174</title>
<path fill="none" stroke="black" stroke-width="2" d="M322.507,-142.104C338.45,-148.868 358.483,-157.368 375.533,-164.603"/>
<polygon fill="black" stroke="black" stroke-width="2" points="374.602,-168.009 385.175,-168.693 377.336,-161.565 374.602,-168.009"/>
</g>
<!-- AS1764&#45;&gt;AS3356 -->
<g id="edge21" class="edge"><title>AS1764&#45;&gt;AS3356</title>
<path fill="none" stroke="black" stroke-width="2" d="M301.399,-147.683C320.546,-193.273 370.332,-311.502 373.176,-315 375.016,-317.262 377.092,-319.418 379.303,-321.452"/>
<polygon fill="black" stroke="black" stroke-width="2" points="377.231,-324.278 387.193,-327.884 381.653,-318.853 377.231,-324.278"/>
</g>
<!-- AS1764&#45;&gt;AS1299 -->
<g id="edge22" class="edge"><title>AS1764&#45;&gt;AS1299</title>
<path fill="none" stroke="black" d="M332.566,-128.69C342.333,-128.359 352.949,-127.998 363.144,-127.652"/>
<polygon fill="black" stroke="black" points="363.275,-131.15 373.15,-127.313 363.037,-124.154 363.275,-131.15"/>
</g>
<!-- AS2914 -->
<g id="node19" class="node"><title>AS2914</title>
<g id="a_node19"><a xlink:href="/asn/2914" xlink:title="AS2914 ~ NTT America, Inc. [US]">
<ellipse fill="#ffffff" stroke="black" cx="412.823" cy="-72" rx="39.7935" ry="18"/>
<text text-anchor="middle" x="412.823" y="-68.3" font-family="Times,serif" font-size="14.00" fill="#2c94b3">AS2914</text>
</a>
</g>
</g>
<!-- AS1764&#45;&gt;AS2914 -->
<g id="edge18" class="edge"><title>AS1764&#45;&gt;AS2914</title>
<path fill="none" stroke="black" stroke-width="2" d="M320.427,-116.984C336.838,-108.906 358.137,-98.4231 376.045,-89.609"/>
<polygon fill="black" stroke="black" stroke-width="2" points="377.631,-92.7298 385.057,-85.1736 374.54,-86.4493 377.631,-92.7298"/>
</g>
<!-- AS8218 -->
<g id="node20" class="node"><title>AS8218</title>
<g id="a_node20"><a xlink:href="/asn/8218" xlink:title="AS8218 ~ legacy Neotelecoms [FR]">
<ellipse fill="#ffffff" stroke="black" cx="412.823" cy="-18" rx="39.7935" ry="18"/>
<text text-anchor="middle" x="412.823" y="-14.3" font-family="Times,serif" font-size="14.00" fill="#2c94b3">AS8218</text>
</a>
</g>
</g>
<!-- AS1764&#45;&gt;AS8218 -->
<g id="edge19" class="edge"><title>AS1764&#45;&gt;AS8218</title>
<path fill="none" stroke="black" stroke-width="2" d="M307.916,-113.034C323.037,-95.1254 348.358,-66.5611 373.176,-45 375.648,-42.8529 378.291,-40.7176 380.991,-38.6428"/>
<polygon fill="black" stroke="black" stroke-width="2" points="383.163,-41.3903 389.149,-32.6488 379.018,-35.7492 383.163,-41.3903"/>
</g>
<!-- AS6762 -->
<g id="node12" class="node"><title>AS6762</title>
<g id="a_node12"><a xlink:href="/asn/6762" xlink:title="AS6762 ~ TELECOM ITALIA SPARKLE S.p.A. [IT]">
<ellipse fill="#ffffff" stroke="black" cx="532.666" cy="-288" rx="39.7935" ry="18"/>
<text text-anchor="middle" x="532.666" y="-284.3" font-family="Times,serif" font-size="14.00" fill="#2c94b3">AS6762</text>
</a>
</g>
</g>
<!-- AS174&#45;&gt;AS6762 -->
<g id="edge24" class="edge"><title>AS174&#45;&gt;AS6762</title>
<path fill="none" stroke="black" d="M436.206,-193.532C441.848,-197.49 447.661,-202.086 452.469,-207 472.642,-227.617 467.776,-240.906 488.469,-261 491.315,-263.763 494.488,-266.386 497.789,-268.834"/>
<polygon fill="black" stroke="black" points="495.905,-271.786 506.136,-274.538 499.854,-266.006 495.905,-271.786"/>
</g>
<!-- AS701 -->
<g id="node14" class="node"><title>AS701</title>
<g id="a_node14"><a xlink:href="/asn/701" xlink:title="AS701 ~ UUNET [US]">
<ellipse fill="#ffffff" stroke="black" cx="532.666" cy="-396" rx="35.194" ry="18"/>
<text text-anchor="middle" x="532.666" y="-392.3" font-family="Times,serif" font-size="14.00" fill="#2c94b3">AS701</text>
</a>
</g>
</g>
<!-- AS174&#45;&gt;AS701 -->
<g id="edge28" class="edge"><title>AS174&#45;&gt;AS701</title>
<path fill="none" stroke="black" d="M437.941,-192.734C443.43,-196.648 448.736,-201.423 452.469,-207 493.494,-268.294 445.89,-308.775 488.469,-369 490.939,-372.493 494.018,-375.63 497.387,-378.421"/>
<polygon fill="black" stroke="black" points="495.456,-381.343 505.627,-384.31 499.526,-375.648 495.456,-381.343"/>
</g>
<!-- AS12956 -->
<g id="node16" class="node"><title>AS12956</title>
<g id="a_node16"><a xlink:href="/asn/12956" xlink:title="AS12956 ~ TELXIUS [ES]">
<ellipse fill="#ffffff" stroke="black" cx="532.666" cy="-342" rx="44.393" ry="18"/>
<text text-anchor="middle" x="532.666" y="-338.3" font-family="Times,serif" font-size="14.00" fill="#2c94b3">AS12956</text>
</a>
</g>
</g>
<!-- AS174&#45;&gt;AS12956 -->
<g id="edge25" class="edge"><title>AS174&#45;&gt;AS12956</title>
<path fill="none" stroke="black" d="M437.549,-193.011C443.046,-196.919 448.454,-201.622 452.469,-207 482.741,-247.542 457.171,-275.246 488.469,-315 490.494,-317.571 492.835,-319.963 495.36,-322.174"/>
<polygon fill="black" stroke="black" points="493.274,-324.984 503.349,-328.261 497.516,-319.416 493.274,-324.984"/>
</g>
<!-- AS3491 -->
<g id="node17" class="node"><title>AS3491</title>
<g id="a_node17"><a xlink:href="/asn/3491" xlink:title="AS3491 ~ PCCW Global, Inc. [US]">
<ellipse fill="#ffffff" stroke="black" cx="532.666" cy="-234" rx="39.7935" ry="18"/>
<text text-anchor="middle" x="532.666" y="-230.3" font-family="Times,serif" font-size="14.00" fill="#2c94b3">AS3491</text>
</a>
</g>
</g>
<!-- AS174&#45;&gt;AS3491 -->
<g id="edge30" class="edge"><title>AS174&#45;&gt;AS3491</title>
<path fill="none" stroke="black" d="M439.684,-191.851C455.805,-199.238 476.807,-208.862 494.672,-217.048"/>
<polygon fill="black" stroke="black" points="493.675,-220.441 504.224,-221.425 496.591,-214.077 493.675,-220.441"/>
</g>
<!-- AS6453 -->
<g id="node18" class="node"><title>AS6453</title>
<g id="a_node18"><a xlink:href="/asn/6453" xlink:title="AS6453 ~ TATA COMMUNICATIONS (AMERICA) INC [US]">
<ellipse fill="#ffffff" stroke="black" cx="532.666" cy="-180" rx="39.7935" ry="18"/>
<text text-anchor="middle" x="532.666" y="-176.3" font-family="Times,serif" font-size="14.00" fill="#2c94b3">AS6453</text>
</a>
</g>
</g>
<!-- AS174&#45;&gt;AS6453 -->
<g id="edge26" class="edge"><title>AS174&#45;&gt;AS6453</title>
<path fill="none" stroke="black" d="M448.225,-180C459.049,-180 471.216,-180 482.843,-180"/>
<polygon fill="black" stroke="black" points="482.874,-183.5 492.874,-180 482.874,-176.5 482.874,-183.5"/>
</g>
<!-- AS7018 -->
<g id="node22" class="node"><title>AS7018</title>
<g id="a_node22"><a xlink:href="/asn/7018" xlink:title="AS7018 ~ AT&amp;T Services, Inc. [US]">
<ellipse fill="#ffffff" stroke="black" cx="532.666" cy="-126" rx="39.7935" ry="18"/>
<text text-anchor="middle" x="532.666" y="-122.3" font-family="Times,serif" font-size="14.00" fill="#2c94b3">AS7018</text>
</a>
</g>
</g>
<!-- AS174&#45;&gt;AS7018 -->
<g id="edge27" class="edge"><title>AS174&#45;&gt;AS7018</title>
<path fill="none" stroke="black" d="M439.684,-168.149C455.805,-160.762 476.807,-151.138 494.672,-142.952"/>
<polygon fill="black" stroke="black" points="496.591,-145.923 504.224,-138.575 493.675,-139.559 496.591,-145.923"/>
</g>
<!-- AS1239 -->
<g id="node23" class="node"><title>AS1239</title>
<g id="a_node23"><a xlink:href="/asn/1239" xlink:title="AS1239 ~ Sprint [US]">
<ellipse fill="#ffffff" stroke="black" cx="532.666" cy="-72" rx="39.7935" ry="18"/>
<text text-anchor="middle" x="532.666" y="-68.3" font-family="Times,serif" font-size="14.00" fill="#2c94b3">AS1239</text>
</a>
</g>
</g>
<!-- AS174&#45;&gt;AS1239 -->
<g id="edge29" class="edge"><title>AS174&#45;&gt;AS1239</title>
<path fill="none" stroke="black" d="M436.206,-166.468C441.848,-162.51 447.661,-157.914 452.469,-153 472.642,-132.383 467.776,-119.094 488.469,-99 491.315,-96.2372 494.488,-93.6138 497.789,-91.1658"/>
<polygon fill="black" stroke="black" points="499.854,-93.9935 506.136,-85.4623 495.905,-88.2137 499.854,-93.9935"/>
</g>
<!-- AS2497 -->
<g id="node11" class="node"><title>AS2497</title>
<g id="a_node11"><a xlink:href="/asn/2497" xlink:title="AS2497 ~ Internet Initiative Japan Inc. [JP]">
<ellipse fill="#ffffff" stroke="black" cx="532.666" cy="-450" rx="39.7935" ry="18"/>
<text text-anchor="middle" x="532.666" y="-446.3" font-family="Times,serif" font-size="14.00" fill="#2c94b3">AS2497</text>
</a>
</g>
</g>
<!-- AS3356&#45;&gt;AS2497 -->
<g id="edge10" class="edge"><title>AS3356&#45;&gt;AS2497</title>
<path fill="none" stroke="black" d="M437.417,-356.389C442.673,-360.148 448.005,-364.437 452.469,-369 472.642,-389.617 467.776,-402.906 488.469,-423 491.315,-425.763 494.488,-428.386 497.789,-430.834"/>
<polygon fill="black" stroke="black" points="495.905,-433.786 506.136,-436.538 499.854,-428.006 495.905,-433.786"/>
</g>
<!-- AS3356&#45;&gt;AS6762 -->
<g id="edge11" class="edge"><title>AS3356&#45;&gt;AS6762</title>
<path fill="none" stroke="black" d="M441.452,-329.339C457.409,-322.027 477.679,-312.739 494.962,-304.819"/>
<polygon fill="black" stroke="black" points="496.577,-307.929 504.21,-300.581 493.661,-301.565 496.577,-307.929"/>
</g>
<!-- AS3549 -->
<g id="node13" class="node"><title>AS3549</title>
<g id="a_node13"><a xlink:href="/asn/3549" xlink:title="AS3549 ~ Level 3 Parent, LLC [US]">
<ellipse fill="#ffffff" stroke="black" cx="532.666" cy="-558" rx="39.7935" ry="18"/>
<text text-anchor="middle" x="532.666" y="-554.3" font-family="Times,serif" font-size="14.00" fill="#2c94b3">AS3549</text>
</a>
</g>
</g>
<!-- AS3356&#45;&gt;AS3549 -->
<g id="edge12" class="edge"><title>AS3356&#45;&gt;AS3549</title>
<path fill="none" stroke="black" stroke-width="2" d="M439.142,-355.607C444.198,-359.351 449.01,-363.831 452.469,-369 493.494,-430.294 445.89,-470.775 488.469,-531 490.461,-533.816 492.848,-536.401 495.464,-538.76"/>
<polygon fill="black" stroke="black" stroke-width="2" points="493.763,-541.865 503.832,-545.162 498.016,-536.306 493.763,-541.865"/>
</g>
<!-- AS3356&#45;&gt;AS701 -->
<g id="edge13" class="edge"><title>AS3356&#45;&gt;AS701</title>
<path fill="none" stroke="black" d="M441.452,-354.661C457.868,-362.183 478.85,-371.798 496.446,-379.861"/>
<polygon fill="black" stroke="black" points="495.275,-383.174 505.824,-384.158 498.191,-376.811 495.275,-383.174"/>
</g>
<!-- AS209 -->
<g id="node15" class="node"><title>AS209</title>
<g id="a_node15"><a xlink:href="/asn/209" xlink:title="AS209 ~ CenturyLink Communications, LLC [US]">
<ellipse fill="#ffffff" stroke="black" cx="532.666" cy="-504" rx="35.194" ry="18"/>
<text text-anchor="middle" x="532.666" y="-500.3" font-family="Times,serif" font-size="14.00" fill="#2c94b3">AS209</text>
</a>
</g>
</g>
<!-- AS3356&#45;&gt;AS209 -->
<g id="edge14" class="edge"><title>AS3356&#45;&gt;AS209</title>
<path fill="none" stroke="black" d="M438.754,-355.882C443.83,-359.611 448.748,-364.016 452.469,-369 482.741,-409.542 457.171,-437.246 488.469,-477 491.116,-480.361 494.305,-483.417 497.736,-486.161"/>
<polygon fill="black" stroke="black" points="495.849,-489.113 506.043,-492 499.874,-483.386 495.849,-489.113"/>
</g>
<!-- AS3356&#45;&gt;AS12956 -->
<g id="edge15" class="edge"><title>AS3356&#45;&gt;AS12956</title>
<path fill="none" stroke="black" d="M452.736,-342C460.838,-342 469.513,-342 478.04,-342"/>
<polygon fill="black" stroke="black" points="478.317,-345.5 488.317,-342 478.317,-338.5 478.317,-345.5"/>
</g>
<!-- AS3356&#45;&gt;AS3491 -->
<g id="edge16" class="edge"><title>AS3356&#45;&gt;AS3491</title>
<path fill="none" stroke="black" d="M437.417,-327.611C442.673,-323.852 448.005,-319.563 452.469,-315 472.642,-294.383 467.776,-281.094 488.469,-261 491.315,-258.237 494.488,-255.614 497.789,-253.166"/>
<polygon fill="black" stroke="black" points="499.854,-255.994 506.136,-247.462 495.905,-250.214 499.854,-255.994"/>
</g>
<!-- AS3356&#45;&gt;AS6453 -->
<g id="edge17" class="edge"><title>AS3356&#45;&gt;AS6453</title>
<path fill="none" stroke="black" d="M438.754,-328.118C443.83,-324.389 448.748,-319.984 452.469,-315 482.741,-274.458 457.171,-246.754 488.469,-207 490.794,-204.047 493.538,-201.33 496.497,-198.853"/>
<polygon fill="black" stroke="black" points="498.69,-201.585 504.694,-192.855 494.557,-195.936 498.69,-201.585"/>
</g>
<!-- AS3257&#45;&gt;AS2497 -->
<g id="edge36" class="edge"><title>AS3257&#45;&gt;AS2497</title>
<path fill="none" stroke="black" d="M439.142,-247.607C444.198,-251.351 449.01,-255.831 452.469,-261 493.494,-322.294 445.89,-362.775 488.469,-423 490.461,-425.816 492.848,-428.401 495.464,-430.76"/>
<polygon fill="black" stroke="black" points="493.763,-433.865 503.832,-437.162 498.016,-428.306 493.763,-433.865"/>
</g>
<!-- AS3257&#45;&gt;AS6762 -->
<g id="edge37" class="edge"><title>AS3257&#45;&gt;AS6762</title>
<path fill="none" stroke="black" d="M441.452,-246.661C457.409,-253.973 477.679,-263.261 494.962,-271.181"/>
<polygon fill="black" stroke="black" points="493.661,-274.435 504.21,-275.419 496.577,-268.071 493.661,-274.435"/>
</g>
<!-- AS3257&#45;&gt;AS3491 -->
<g id="edge38" class="edge"><title>AS3257&#45;&gt;AS3491</title>
<path fill="none" stroke="black" d="M452.736,-234C462.289,-234 472.639,-234 482.601,-234"/>
<polygon fill="black" stroke="black" points="482.794,-237.5 492.794,-234 482.794,-230.5 482.794,-237.5"/>
</g>
<!-- AS3257&#45;&gt;AS6453 -->
<g id="edge40" class="edge"><title>AS3257&#45;&gt;AS6453</title>
<path fill="none" stroke="black" d="M441.452,-221.339C457.409,-214.027 477.679,-204.739 494.962,-196.819"/>
<polygon fill="black" stroke="black" points="496.577,-199.929 504.21,-192.581 493.661,-193.565 496.577,-199.929"/>
</g>
<!-- AS3257&#45;&gt;AS7018 -->
<g id="edge39" class="edge"><title>AS3257&#45;&gt;AS7018</title>
<path fill="none" stroke="black" d="M437.417,-219.611C442.673,-215.852 448.005,-211.563 452.469,-207 472.642,-186.383 467.776,-173.094 488.469,-153 491.315,-150.237 494.488,-147.614 497.789,-145.166"/>
<polygon fill="black" stroke="black" points="499.854,-147.994 506.136,-139.462 495.905,-142.214 499.854,-147.994"/>
</g>
<!-- AS3257&#45;&gt;AS1239 -->
<g id="edge41" class="edge"><title>AS3257&#45;&gt;AS1239</title>
<path fill="none" stroke="black" d="M438.754,-220.118C443.83,-216.389 448.748,-211.984 452.469,-207 482.741,-166.458 457.171,-138.754 488.469,-99 490.794,-96.0468 493.538,-93.33 496.497,-90.8526"/>
<polygon fill="black" stroke="black" points="498.69,-93.585 504.694,-84.8554 494.557,-87.9356 498.69,-93.585"/>
</g>
<!-- AS1299&#45;&gt;AS7018 -->
<g id="edge31" class="edge"><title>AS1299&#45;&gt;AS7018</title>
<path fill="none" stroke="black" d="M452.736,-126C462.289,-126 472.639,-126 482.601,-126"/>
<polygon fill="black" stroke="black" points="482.794,-129.5 492.794,-126 482.794,-122.5 482.794,-129.5"/>
</g>
<!-- AS1299&#45;&gt;AS1239 -->
<g id="edge32" class="edge"><title>AS1299&#45;&gt;AS1239</title>
<path fill="none" stroke="black" d="M441.452,-113.339C457.409,-106.027 477.679,-96.7385 494.962,-88.8189"/>
<polygon fill="black" stroke="black" points="496.577,-91.929 504.21,-84.5813 493.661,-85.5653 496.577,-91.929"/>
</g>
<!-- AS6461 -->
<g id="node21" class="node"><title>AS6461</title>
<g id="a_node21"><a xlink:href="/asn/6461" xlink:title="AS6461 ~ Zayo Bandwidth [US]">
<ellipse fill="#ffffff" stroke="black" cx="532.666" cy="-18" rx="39.7935" ry="18"/>
<text text-anchor="middle" x="532.666" y="-14.3" font-family="Times,serif" font-size="14.00" fill="#2c94b3">AS6461</text>
</a>
</g>
</g>
<!-- AS8218&#45;&gt;AS6461 -->
<g id="edge23" class="edge"><title>AS8218&#45;&gt;AS6461</title>
<path fill="none" stroke="black" stroke-width="2" d="M452.736,-18C462.289,-18 472.639,-18 482.601,-18"/>
<polygon fill="black" stroke="black" stroke-width="2" points="482.794,-21.5001 492.794,-18 482.794,-14.5001 482.794,-21.5001"/>
</g>
<!-- AS6830&#45;&gt;AS2497 -->
<g id="edge46" class="edge"><title>AS6830&#45;&gt;AS2497</title>
<path fill="none" stroke="black" d="M438.754,-301.882C443.83,-305.611 448.748,-310.016 452.469,-315 482.741,-355.542 457.171,-383.246 488.469,-423 490.794,-425.953 493.538,-428.67 496.497,-431.147"/>
<polygon fill="black" stroke="black" points="494.557,-434.064 504.694,-437.145 498.69,-428.415 494.557,-434.064"/>
</g>
<!-- AS6830&#45;&gt;AS6762 -->
<g id="edge42" class="edge"><title>AS6830&#45;&gt;AS6762</title>
<path fill="none" stroke="black" d="M452.736,-288C462.289,-288 472.639,-288 482.601,-288"/>
<polygon fill="black" stroke="black" points="482.794,-291.5 492.794,-288 482.794,-284.5 482.794,-291.5"/>
</g>
<!-- AS6830&#45;&gt;AS701 -->
<g id="edge43" class="edge"><title>AS6830&#45;&gt;AS701</title>
<path fill="none" stroke="black" d="M437.417,-302.389C442.673,-306.148 448.005,-310.437 452.469,-315 472.642,-335.617 467.776,-348.906 488.469,-369 491.697,-372.134 495.348,-375.089 499.126,-377.812"/>
<polygon fill="black" stroke="black" points="497.224,-380.75 507.486,-383.383 501.105,-374.925 497.224,-380.75"/>
</g>
<!-- AS6830&#45;&gt;AS12956 -->
<g id="edge44" class="edge"><title>AS6830&#45;&gt;AS12956</title>
<path fill="none" stroke="black" d="M441.452,-300.661C456.95,-307.762 476.516,-316.728 493.463,-324.494"/>
<polygon fill="black" stroke="black" points="492.016,-327.681 502.565,-328.665 494.933,-321.317 492.016,-327.681"/>
</g>
<!-- AS6830&#45;&gt;AS3491 -->
<g id="edge45" class="edge"><title>AS6830&#45;&gt;AS3491</title>
<path fill="none" stroke="black" d="M441.452,-275.339C457.409,-268.027 477.679,-258.739 494.962,-250.819"/>
<polygon fill="black" stroke="black" points="496.577,-253.929 504.21,-246.581 493.661,-247.565 496.577,-253.929"/>
</g>
<!-- AS6830&#45;&gt;AS6453 -->
<g id="edge47" class="edge"><title>AS6830&#45;&gt;AS6453</title>
<path fill="none" stroke="black" d="M437.417,-273.611C442.673,-269.852 448.005,-265.563 452.469,-261 472.642,-240.383 467.776,-227.094 488.469,-207 491.315,-204.237 494.488,-201.614 497.789,-199.166"/>
<polygon fill="black" stroke="black" points="499.854,-201.994 506.136,-193.462 495.905,-196.214 499.854,-201.994"/>
</g>
</g>
</svg>
