<?xml version="1.0" encoding="UTF-8" standalone="no"?>
<!DOCTYPE svg PUBLIC "-//W3C//DTD SVG 1.1//EN"
 "http://www.w3.org/Graphics/SVG/1.1/DTD/svg11.dtd">
<!-- Generated by graphviz version 2.38.0 (20140413.2041)
 -->
<!-- Title: AS207426 IPv6 Upstream Graph Pages: 1 -->
<svg width="584pt" height="206pt"
 viewBox="0.00 0.00 583.56 206.00" xmlns="http://www.w3.org/2000/svg" xmlns:xlink="http://www.w3.org/1999/xlink">
<g id="graph0" class="graph" transform="scale(1 1) rotate(0) translate(4 202)">
<title>AS207426 IPv6 Upstream Graph</title>
<polygon fill="white" stroke="none" points="-4,4 -4,-202 579.562,-202 579.562,4 -4,4"/>
<!-- AS207426 -->
<g id="node1" class="node"><title>AS207426</title>
<g id="a_node1"><a xlink:href="/asn/207426" xlink:title="AS207426 ~ GSS&#45;Media KG [AT]">
<ellipse fill="#ffffff" stroke="black" cx="48.0957" cy="-99" rx="48.1917" ry="18"/>
<text text-anchor="middle" x="48.0957" y="-95.3" font-family="Times,serif" font-size="14.00" fill="#880000">AS207426</text>
</a>
</g>
</g>
<!-- AS47147 -->
<g id="node2" class="node"><title>AS47147</title>
<g id="a_node2"><a xlink:href="/asn/47147" xlink:title="AS47147 ~ ANEXIA Internetdienstleistungs GmbH [AT]">
<ellipse fill="#ffffff" stroke="black" cx="176.388" cy="-99" rx="44.393" ry="18"/>
<text text-anchor="middle" x="176.388" y="-95.3" font-family="Times,serif" font-size="14.00" fill="#2c94b3">AS47147</text>
</a>
</g>
</g>
<!-- AS207426&#45;&gt;AS47147 -->
<g id="edge1" class="edge"><title>AS207426&#45;&gt;AS47147</title>
<path fill="none" stroke="black" stroke-width="4.5" d="M96.4815,-99C104.742,-99 113.386,-99 121.799,-99"/>
<polygon fill="black" stroke="black" stroke-width="4.5" points="121.904,-102.938 131.904,-99 121.904,-95.0626 121.904,-102.938"/>
</g>
<!-- AS2914 -->
<g id="node3" class="node"><title>AS2914</title>
<g id="a_node3"><a xlink:href="/asn/2914" xlink:title="AS2914 ~ NTT America, Inc. [US]">
<ellipse fill="#ffffff" stroke="black" cx="300.78" cy="-180" rx="39.7935" ry="18"/>
<text text-anchor="middle" x="300.78" y="-176.3" font-family="Times,serif" font-size="14.00" fill="#2c94b3">AS2914</text>
</a>
</g>
</g>
<!-- AS47147&#45;&gt;AS2914 -->
<g id="edge2" class="edge"><title>AS47147&#45;&gt;AS2914</title>
<path fill="none" stroke="black" d="M199.418,-114.367C215.221,-125.305 237.077,-140.261 256.584,-153 260.166,-155.339 263.936,-157.759 267.696,-160.144"/>
<polygon fill="black" stroke="black" points="266.03,-163.231 276.357,-165.596 269.759,-157.307 266.03,-163.231"/>
</g>
<!-- AS3320 -->
<g id="node4" class="node"><title>AS3320</title>
<g id="a_node4"><a xlink:href="/asn/3320" xlink:title="AS3320 ~ DTAG [DE]">
<ellipse fill="#ffffff" stroke="black" cx="300.78" cy="-126" rx="39.7935" ry="18"/>
<text text-anchor="middle" x="300.78" y="-122.3" font-family="Times,serif" font-size="14.00" fill="#2c94b3">AS3320</text>
</a>
</g>
</g>
<!-- AS47147&#45;&gt;AS3320 -->
<g id="edge3" class="edge"><title>AS47147&#45;&gt;AS3320</title>
<path fill="none" stroke="black" stroke-width="2" d="M215.777,-107.469C228.168,-110.202 242.015,-113.257 254.836,-116.085"/>
<polygon fill="black" stroke="black" stroke-width="2" points="254.331,-119.558 264.85,-118.295 255.839,-112.722 254.331,-119.558"/>
</g>
<!-- AS1299 -->
<g id="node5" class="node"><title>AS1299</title>
<g id="a_node5"><a xlink:href="/asn/1299" xlink:title="AS1299 ~ Telia Carrier [EU]">
<ellipse fill="#ffffff" stroke="black" cx="300.78" cy="-72" rx="39.7935" ry="18"/>
<text text-anchor="middle" x="300.78" y="-68.3" font-family="Times,serif" font-size="14.00" fill="#2c94b3">AS1299</text>
</a>
</g>
</g>
<!-- AS47147&#45;&gt;AS1299 -->
<g id="edge4" class="edge"><title>AS47147&#45;&gt;AS1299</title>
<path fill="none" stroke="black" stroke-width="2" d="M215.777,-90.5311C228.168,-87.7976 242.015,-84.743 254.836,-81.9147"/>
<polygon fill="black" stroke="black" stroke-width="2" points="255.839,-85.2776 264.85,-79.7055 254.331,-78.442 255.839,-85.2776"/>
</g>
<!-- AS15702 -->
<g id="node6" class="node"><title>AS15702</title>
<g id="a_node6"><a xlink:href="/asn/15702" xlink:title="AS15702 ~ Onstage Online GmbH [AT]">
<ellipse fill="#ffffff" stroke="black" cx="300.78" cy="-18" rx="44.393" ry="18"/>
<text text-anchor="middle" x="300.78" y="-14.3" font-family="Times,serif" font-size="14.00" fill="#2c94b3">AS15702</text>
</a>
</g>
</g>
<!-- AS47147&#45;&gt;AS15702 -->
<g id="edge5" class="edge"><title>AS47147&#45;&gt;AS15702</title>
<path fill="none" stroke="black" d="M199.418,-83.6328C215.221,-72.6949 237.077,-57.7394 256.584,-45 259.904,-42.8314 263.387,-40.5941 266.873,-38.3787"/>
<polygon fill="black" stroke="black" points="268.862,-41.262 275.455,-32.9684 265.129,-35.3405 268.862,-41.262"/>
</g>
<!-- AS6453 -->
<g id="node7" class="node"><title>AS6453</title>
<g id="a_node7"><a xlink:href="/asn/6453" xlink:title="AS6453 ~ TATA COMMUNICATIONS (AMERICA) INC [US]">
<ellipse fill="#ffffff" stroke="black" cx="420.622" cy="-180" rx="39.7935" ry="18"/>
<text text-anchor="middle" x="420.622" y="-176.3" font-family="Times,serif" font-size="14.00" fill="#2c94b3">AS6453</text>
</a>
</g>
</g>
<!-- AS3320&#45;&gt;AS6453 -->
<g id="edge6" class="edge"><title>AS3320&#45;&gt;AS6453</title>
<path fill="none" stroke="black" d="M329.409,-138.661C345.366,-145.973 365.636,-155.261 382.919,-163.181"/>
<polygon fill="black" stroke="black" points="381.617,-166.435 392.167,-167.419 384.534,-160.071 381.617,-166.435"/>
</g>
<!-- AS701 -->
<g id="node8" class="node"><title>AS701</title>
<g id="a_node8"><a xlink:href="/asn/701" xlink:title="AS701 ~ UUNET [US]">
<ellipse fill="#ffffff" stroke="black" cx="420.622" cy="-126" rx="35.194" ry="18"/>
<text text-anchor="middle" x="420.622" y="-122.3" font-family="Times,serif" font-size="14.00" fill="#2c94b3">AS701</text>
</a>
</g>
</g>
<!-- AS3320&#45;&gt;AS701 -->
<g id="edge7" class="edge"><title>AS3320&#45;&gt;AS701</title>
<path fill="none" stroke="black" d="M340.692,-126C351.779,-126 363.939,-126 375.321,-126"/>
<polygon fill="black" stroke="black" points="375.503,-129.5 385.503,-126 375.503,-122.5 375.503,-129.5"/>
</g>
<!-- AS209 -->
<g id="node9" class="node"><title>AS209</title>
<g id="a_node9"><a xlink:href="/asn/209" xlink:title="AS209 ~ CenturyLink Communications, LLC [US]">
<ellipse fill="#ffffff" stroke="black" cx="420.622" cy="-72" rx="35.194" ry="18"/>
<text text-anchor="middle" x="420.622" y="-68.3" font-family="Times,serif" font-size="14.00" fill="#2c94b3">AS209</text>
</a>
</g>
</g>
<!-- AS1299&#45;&gt;AS209 -->
<g id="edge8" class="edge"><title>AS1299&#45;&gt;AS209</title>
<path fill="none" stroke="black" d="M340.692,-72C351.779,-72 363.939,-72 375.321,-72"/>
<polygon fill="black" stroke="black" points="375.503,-75.5001 385.503,-72 375.503,-68.5001 375.503,-75.5001"/>
</g>
<!-- AS8218 -->
<g id="node10" class="node"><title>AS8218</title>
<g id="a_node10"><a xlink:href="/asn/8218" xlink:title="AS8218 ~ legacy Neotelecoms [FR]">
<ellipse fill="#ffffff" stroke="black" cx="420.622" cy="-18" rx="39.7935" ry="18"/>
<text text-anchor="middle" x="420.622" y="-14.3" font-family="Times,serif" font-size="14.00" fill="#2c94b3">AS8218</text>
</a>
</g>
</g>
<!-- AS15702&#45;&gt;AS8218 -->
<g id="edge9" class="edge"><title>AS15702&#45;&gt;AS8218</title>
<path fill="none" stroke="black" d="M344.991,-18C353.303,-18 362.066,-18 370.548,-18"/>
<polygon fill="black" stroke="black" points="370.707,-21.5001 380.707,-18 370.707,-14.5001 370.707,-21.5001"/>
</g>
<!-- AS6461 -->
<g id="node11" class="node"><title>AS6461</title>
<g id="a_node11"><a xlink:href="/asn/6461" xlink:title="AS6461 ~ Zayo Bandwidth [US]">
<ellipse fill="#ffffff" stroke="black" cx="535.915" cy="-18" rx="39.7935" ry="18"/>
<text text-anchor="middle" x="535.915" y="-14.3" font-family="Times,serif" font-size="14.00" fill="#2c94b3">AS6461</text>
</a>
</g>
</g>
<!-- AS8218&#45;&gt;AS6461 -->
<g id="edge10" class="edge"><title>AS8218&#45;&gt;AS6461</title>
<path fill="none" stroke="black" d="M460.294,-18C468.497,-18 477.261,-18 485.794,-18"/>
<polygon fill="black" stroke="black" points="486.033,-21.5001 496.033,-18 486.033,-14.5001 486.033,-21.5001"/>
</g>
</g>
</svg>
