<?xml version="1.0" encoding="UTF-8" standalone="no"?>
<!DOCTYPE svg PUBLIC "-//W3C//DTD SVG 1.1//EN"
 "http://www.w3.org/Graphics/SVG/1.1/DTD/svg11.dtd">
<!-- Generated by graphviz version 2.38.0 (20140413.2041)
 -->
<!-- Title: AS31394 Combined Upstream Graph Pages: 1 -->
<svg width="460pt" height="476pt"
 viewBox="0.00 0.00 460.47 476.00" xmlns="http://www.w3.org/2000/svg" xmlns:xlink="http://www.w3.org/1999/xlink">
<g id="graph0" class="graph" transform="scale(1 1) rotate(0) translate(4 472)">
<title>AS31394 Combined Upstream Graph</title>
<polygon fill="white" stroke="none" points="-4,4 -4,-472 456.469,-472 456.469,4 -4,4"/>
<!-- AS31394 -->
<g id="node1" class="node"><title>AS31394</title>
<g id="a_node1"><a xlink:href="/asn/31394" xlink:title="AS31394 ~ NEMOX&#45;NET&#45;AS [AT]">
<ellipse fill="#ffffff" stroke="black" cx="44.1961" cy="-288" rx="44.393" ry="18"/>
<text text-anchor="middle" x="44.1961" y="-284.3" font-family="Times,serif" font-size="14.00" fill="#880000">AS31394</text>
</a>
</g>
</g>
<!-- AS1764 -->
<g id="node2" class="node"><title>AS1764</title>
<g id="a_node2"><a xlink:href="/asn/1764" xlink:title="AS1764 ~ NEXTLAYER&#45;AS [AT]">
<ellipse fill="#ffffff" stroke="black" cx="168.588" cy="-288" rx="39.7935" ry="18"/>
<text text-anchor="middle" x="168.588" y="-284.3" font-family="Times,serif" font-size="14.00" fill="#2c94b3">AS1764</text>
</a>
</g>
</g>
<!-- AS31394&#45;&gt;AS1764 -->
<g id="edge1" class="edge"><title>AS31394&#45;&gt;AS1764</title>
<path fill="none" stroke="black" stroke-width="4.5" d="M88.6916,-288C98.3806,-288 108.717,-288 118.61,-288"/>
<polygon fill="black" stroke="black" stroke-width="4.5" points="118.713,-291.938 128.713,-288 118.713,-284.063 118.713,-291.938"/>
</g>
<!-- AS8596 -->
<g id="node3" class="node"><title>AS8596</title>
<g id="a_node3"><a xlink:href="/asn/8596" xlink:title="AS8596 ~ hotze.com GmbH [AT]">
<ellipse fill="#ffffff" stroke="black" cx="168.588" cy="-396" rx="39.7935" ry="18"/>
<text text-anchor="middle" x="168.588" y="-392.3" font-family="Times,serif" font-size="14.00" fill="#2c94b3">AS8596</text>
</a>
</g>
</g>
<!-- AS31394&#45;&gt;AS8596 -->
<g id="edge2" class="edge"><title>AS31394&#45;&gt;AS8596</title>
<path fill="none" stroke="black" stroke-width="0.5625" d="M63.7848,-304.403C84.6021,-322.772 118.478,-352.665 141.838,-373.278"/>
<polygon fill="black" stroke="black" stroke-width="0.5625" points="139.809,-376.156 149.623,-380.148 144.441,-370.907 139.809,-376.156"/>
</g>
<!-- AS31543 -->
<g id="node4" class="node"><title>AS31543</title>
<g id="a_node4"><a xlink:href="/asn/31543" xlink:title="AS31543 ~ myNET gmbh [AT]">
<ellipse fill="#ffffff" stroke="black" cx="168.588" cy="-133" rx="44.393" ry="18"/>
<text text-anchor="middle" x="168.588" y="-129.3" font-family="Times,serif" font-size="14.00" fill="#2c94b3">AS31543</text>
</a>
</g>
</g>
<!-- AS31394&#45;&gt;AS31543 -->
<g id="edge3" class="edge"><title>AS31394&#45;&gt;AS31543</title>
<path fill="none" stroke="black" stroke-width="0.28125" d="M58.7618,-270.82C80.3582,-243.47 122.666,-189.89 147.693,-158.195"/>
<polygon fill="black" stroke="black" stroke-width="0.28125" points="150.511,-160.274 153.962,-150.257 145.018,-155.936 150.511,-160.274"/>
</g>
<!-- AS1299 -->
<g id="node5" class="node"><title>AS1299</title>
<g id="a_node5"><a xlink:href="/asn/1299" xlink:title="AS1299 ~ Telia Carrier [EU]">
<ellipse fill="#ffffff" stroke="black" cx="292.98" cy="-450" rx="39.7935" ry="18"/>
<text text-anchor="middle" x="292.98" y="-446.3" font-family="Times,serif" font-size="14.00" fill="#2c94b3">AS1299</text>
</a>
</g>
</g>
<!-- AS1764&#45;&gt;AS1299 -->
<g id="edge4" class="edge"><title>AS1764&#45;&gt;AS1299</title>
<path fill="none" stroke="black" d="M178.553,-305.587C195.144,-337.711 230.6,-404.297 248.784,-423 251.404,-425.695 254.345,-428.239 257.428,-430.608"/>
<polygon fill="black" stroke="black" points="255.594,-433.597 265.796,-436.455 259.603,-427.859 255.594,-433.597"/>
</g>
<!-- AS174 -->
<g id="node6" class="node"><title>AS174</title>
<g id="a_node6"><a xlink:href="/asn/174" xlink:title="AS174 ~ Cogent Communications [US]">
<ellipse fill="#ffffff" stroke="black" cx="292.98" cy="-396" rx="35.194" ry="18"/>
<text text-anchor="middle" x="292.98" y="-392.3" font-family="Times,serif" font-size="14.00" fill="#2c94b3">AS174</text>
</a>
</g>
</g>
<!-- AS1764&#45;&gt;AS174 -->
<g id="edge5" class="edge"><title>AS1764&#45;&gt;AS174</title>
<path fill="none" stroke="black" stroke-width="2" d="M183.74,-304.663C198.842,-321.894 223.963,-349.024 248.784,-369 252.289,-371.821 256.107,-374.587 259.975,-377.208"/>
<polygon fill="black" stroke="black" stroke-width="2" points="258.126,-380.18 268.421,-382.682 261.933,-374.306 258.126,-380.18"/>
</g>
<!-- AS2914 -->
<g id="node7" class="node"><title>AS2914</title>
<g id="a_node7"><a xlink:href="/asn/2914" xlink:title="AS2914 ~ NTT America, Inc. [US]">
<ellipse fill="#ffffff" stroke="black" cx="292.98" cy="-288" rx="39.7935" ry="18"/>
<text text-anchor="middle" x="292.98" y="-284.3" font-family="Times,serif" font-size="14.00" fill="#2c94b3">AS2914</text>
</a>
</g>
</g>
<!-- AS1764&#45;&gt;AS2914 -->
<g id="edge6" class="edge"><title>AS1764&#45;&gt;AS2914</title>
<path fill="none" stroke="black" stroke-width="2" d="M208.314,-288C219.252,-288 231.303,-288 242.769,-288"/>
<polygon fill="black" stroke="black" stroke-width="2" points="243.087,-291.5 253.087,-288 243.087,-284.5 243.087,-291.5"/>
</g>
<!-- AS3356 -->
<g id="node8" class="node"><title>AS3356</title>
<g id="a_node8"><a xlink:href="/asn/3356" xlink:title="AS3356 ~ Level 3 Parent, LLC [US]">
<ellipse fill="#ffffff" stroke="black" cx="292.98" cy="-234" rx="39.7935" ry="18"/>
<text text-anchor="middle" x="292.98" y="-230.3" font-family="Times,serif" font-size="14.00" fill="#2c94b3">AS3356</text>
</a>
</g>
</g>
<!-- AS1764&#45;&gt;AS3356 -->
<g id="edge7" class="edge"><title>AS1764&#45;&gt;AS3356</title>
<path fill="none" stroke="black" stroke-width="4" d="M197.667,-275.611C214.615,-268.134 236.413,-258.517 254.782,-250.412"/>
<polygon fill="black" stroke="black" stroke-width="4" points="256.296,-253.57 264.032,-246.331 253.47,-247.166 256.296,-253.57"/>
</g>
<!-- AS3320 -->
<g id="node9" class="node"><title>AS3320</title>
<g id="a_node9"><a xlink:href="/asn/3320" xlink:title="AS3320 ~ DTAG [DE]">
<ellipse fill="#ffffff" stroke="black" cx="292.98" cy="-180" rx="39.7935" ry="18"/>
<text text-anchor="middle" x="292.98" y="-176.3" font-family="Times,serif" font-size="14.00" fill="#2c94b3">AS3320</text>
</a>
</g>
</g>
<!-- AS1764&#45;&gt;AS3320 -->
<g id="edge8" class="edge"><title>AS1764&#45;&gt;AS3320</title>
<path fill="none" stroke="black" stroke-width="3" d="M183.74,-271.337C198.842,-254.106 223.963,-226.976 248.784,-207 252.04,-204.38 255.565,-201.808 259.149,-199.354"/>
<polygon fill="black" stroke="black" stroke-width="3" points="261.068,-202.281 267.522,-193.879 257.237,-196.423 261.068,-202.281"/>
</g>
<!-- AS3257 -->
<g id="node10" class="node"><title>AS3257</title>
<g id="a_node10"><a xlink:href="/asn/3257" xlink:title="AS3257 ~ GTT [DE]">
<ellipse fill="#ffffff" stroke="black" cx="292.98" cy="-342" rx="39.7935" ry="18"/>
<text text-anchor="middle" x="292.98" y="-338.3" font-family="Times,serif" font-size="14.00" fill="#2c94b3">AS3257</text>
</a>
</g>
</g>
<!-- AS1764&#45;&gt;AS3257 -->
<g id="edge9" class="edge"><title>AS1764&#45;&gt;AS3257</title>
<path fill="none" stroke="black" stroke-width="3" d="M197.667,-300.389C214.615,-307.866 236.413,-317.483 254.782,-325.588"/>
<polygon fill="black" stroke="black" stroke-width="3" points="253.47,-328.834 264.032,-329.669 256.296,-322.43 253.47,-328.834"/>
</g>
<!-- AS8218 -->
<g id="node11" class="node"><title>AS8218</title>
<g id="a_node11"><a xlink:href="/asn/8218" xlink:title="AS8218 ~ legacy Neotelecoms [FR]">
<ellipse fill="#ffffff" stroke="black" cx="292.98" cy="-99" rx="39.7935" ry="18"/>
<text text-anchor="middle" x="292.98" y="-95.3" font-family="Times,serif" font-size="14.00" fill="#2c94b3">AS8218</text>
</a>
</g>
</g>
<!-- AS1764&#45;&gt;AS8218 -->
<g id="edge10" class="edge"><title>AS1764&#45;&gt;AS8218</title>
<path fill="none" stroke="black" d="M178.82,-270.461C192.861,-244.227 220.908,-193.519 248.784,-153 255.557,-143.156 263.593,-132.803 270.886,-123.826"/>
<polygon fill="black" stroke="black" points="273.658,-125.966 277.317,-116.023 268.256,-121.514 273.658,-125.966"/>
</g>
<!-- AS8596&#45;&gt;AS1299 -->
<g id="edge21" class="edge"><title>AS8596&#45;&gt;AS1299</title>
<path fill="none" stroke="black" stroke-width="2" d="M197.667,-408.389C214.615,-415.866 236.413,-425.483 254.782,-433.588"/>
<polygon fill="black" stroke="black" stroke-width="2" points="253.47,-436.834 264.032,-437.669 256.296,-430.43 253.47,-436.834"/>
</g>
<!-- AS25255 -->
<g id="node20" class="node"><title>AS25255</title>
<g id="a_node20"><a xlink:href="/asn/25255" xlink:title="AS25255 ~ ==&gt; TELE2 AUSTRIA &lt;== [AT]">
<ellipse fill="#ffffff" stroke="black" cx="292.98" cy="-32" rx="44.393" ry="18"/>
<text text-anchor="middle" x="292.98" y="-28.3" font-family="Times,serif" font-size="14.00" fill="#2c94b3">AS25255</text>
</a>
</g>
</g>
<!-- AS31543&#45;&gt;AS25255 -->
<g id="edge23" class="edge"><title>AS31543&#45;&gt;AS25255</title>
<path fill="none" stroke="black" d="M188.982,-116.996C209.273,-100.252 241.309,-73.8151 264.264,-54.8716"/>
<polygon fill="black" stroke="black" points="266.787,-57.3277 272.272,-48.2633 262.332,-51.9287 266.787,-57.3277"/>
</g>
<!-- AS7018 -->
<g id="node19" class="node"><title>AS7018</title>
<g id="a_node19"><a xlink:href="/asn/7018" xlink:title="AS7018 ~ AT&amp;T Services, Inc. [US]">
<ellipse fill="#ffffff" stroke="black" cx="412.823" cy="-450" rx="39.7935" ry="18"/>
<text text-anchor="middle" x="412.823" y="-446.3" font-family="Times,serif" font-size="14.00" fill="#2c94b3">AS7018</text>
</a>
</g>
</g>
<!-- AS1299&#45;&gt;AS7018 -->
<g id="edge22" class="edge"><title>AS1299&#45;&gt;AS7018</title>
<path fill="none" stroke="black" d="M332.893,-450C342.446,-450 352.796,-450 362.759,-450"/>
<polygon fill="black" stroke="black" points="362.951,-453.5 372.951,-450 362.951,-446.5 362.951,-453.5"/>
</g>
<!-- AS3491 -->
<g id="node13" class="node"><title>AS3491</title>
<g id="a_node13"><a xlink:href="/asn/3491" xlink:title="AS3491 ~ PCCW Global, Inc. [US]">
<ellipse fill="#ffffff" stroke="black" cx="412.823" cy="-396" rx="39.7935" ry="18"/>
<text text-anchor="middle" x="412.823" y="-392.3" font-family="Times,serif" font-size="14.00" fill="#2c94b3">AS3491</text>
</a>
</g>
</g>
<!-- AS174&#45;&gt;AS3491 -->
<g id="edge12" class="edge"><title>AS174&#45;&gt;AS3491</title>
<path fill="none" stroke="black" d="M328.382,-396C339.206,-396 351.374,-396 363.001,-396"/>
<polygon fill="black" stroke="black" points="363.032,-399.5 373.032,-396 363.032,-392.5 363.032,-399.5"/>
</g>
<!-- AS2497 -->
<g id="node12" class="node"><title>AS2497</title>
<g id="a_node12"><a xlink:href="/asn/2497" xlink:title="AS2497 ~ Internet Initiative Japan Inc. [JP]">
<ellipse fill="#ffffff" stroke="black" cx="412.823" cy="-342" rx="39.7935" ry="18"/>
<text text-anchor="middle" x="412.823" y="-338.3" font-family="Times,serif" font-size="14.00" fill="#2c94b3">AS2497</text>
</a>
</g>
</g>
<!-- AS2914&#45;&gt;AS2497 -->
<g id="edge11" class="edge"><title>AS2914&#45;&gt;AS2497</title>
<path fill="none" stroke="black" d="M321.609,-300.661C337.566,-307.973 357.837,-317.261 375.119,-325.181"/>
<polygon fill="black" stroke="black" points="373.818,-328.435 384.367,-329.419 376.734,-322.071 373.818,-328.435"/>
</g>
<!-- AS3356&#45;&gt;AS2497 -->
<g id="edge15" class="edge"><title>AS3356&#45;&gt;AS2497</title>
<path fill="none" stroke="black" d="M319.509,-247.462C325.672,-251.362 331.974,-255.948 337.176,-261 357.87,-281.094 353.004,-294.383 373.176,-315 375.269,-317.139 377.553,-319.218 379.929,-321.21"/>
<polygon fill="black" stroke="black" points="378.173,-324.275 388.229,-327.611 382.448,-318.732 378.173,-324.275"/>
</g>
<!-- AS6453 -->
<g id="node14" class="node"><title>AS6453</title>
<g id="a_node14"><a xlink:href="/asn/6453" xlink:title="AS6453 ~ TATA COMMUNICATIONS (AMERICA) INC [US]">
<ellipse fill="#ffffff" stroke="black" cx="412.823" cy="-288" rx="39.7935" ry="18"/>
<text text-anchor="middle" x="412.823" y="-284.3" font-family="Times,serif" font-size="14.00" fill="#2c94b3">AS6453</text>
</a>
</g>
</g>
<!-- AS3356&#45;&gt;AS6453 -->
<g id="edge13" class="edge"><title>AS3356&#45;&gt;AS6453</title>
<path fill="none" stroke="black" d="M321.609,-246.661C337.566,-253.973 357.837,-263.261 375.119,-271.181"/>
<polygon fill="black" stroke="black" points="373.818,-274.435 384.367,-275.419 376.734,-268.071 373.818,-274.435"/>
</g>
<!-- AS3549 -->
<g id="node15" class="node"><title>AS3549</title>
<g id="a_node15"><a xlink:href="/asn/3549" xlink:title="AS3549 ~ Level 3 Parent, LLC [US]">
<ellipse fill="#ffffff" stroke="black" cx="412.823" cy="-234" rx="39.7935" ry="18"/>
<text text-anchor="middle" x="412.823" y="-230.3" font-family="Times,serif" font-size="14.00" fill="#2c94b3">AS3549</text>
</a>
</g>
</g>
<!-- AS3356&#45;&gt;AS3549 -->
<g id="edge14" class="edge"><title>AS3356&#45;&gt;AS3549</title>
<path fill="none" stroke="black" d="M332.893,-234C342.446,-234 352.796,-234 362.759,-234"/>
<polygon fill="black" stroke="black" points="362.951,-237.5 372.951,-234 362.951,-230.5 362.951,-237.5"/>
</g>
<!-- AS1239 -->
<g id="node16" class="node"><title>AS1239</title>
<g id="a_node16"><a xlink:href="/asn/1239" xlink:title="AS1239 ~ Sprint [US]">
<ellipse fill="#ffffff" stroke="black" cx="412.823" cy="-180" rx="39.7935" ry="18"/>
<text text-anchor="middle" x="412.823" y="-176.3" font-family="Times,serif" font-size="14.00" fill="#2c94b3">AS1239</text>
</a>
</g>
</g>
<!-- AS3320&#45;&gt;AS1239 -->
<g id="edge16" class="edge"><title>AS3320&#45;&gt;AS1239</title>
<path fill="none" stroke="black" d="M332.893,-180C342.446,-180 352.796,-180 362.759,-180"/>
<polygon fill="black" stroke="black" points="362.951,-183.5 372.951,-180 362.951,-176.5 362.951,-183.5"/>
</g>
<!-- AS701 -->
<g id="node17" class="node"><title>AS701</title>
<g id="a_node17"><a xlink:href="/asn/701" xlink:title="AS701 ~ UUNET [US]">
<ellipse fill="#ffffff" stroke="black" cx="412.823" cy="-126" rx="35.194" ry="18"/>
<text text-anchor="middle" x="412.823" y="-122.3" font-family="Times,serif" font-size="14.00" fill="#2c94b3">AS701</text>
</a>
</g>
</g>
<!-- AS3320&#45;&gt;AS701 -->
<g id="edge17" class="edge"><title>AS3320&#45;&gt;AS701</title>
<path fill="none" stroke="black" d="M321.609,-167.339C338.025,-159.817 359.007,-150.202 376.604,-142.139"/>
<polygon fill="black" stroke="black" points="378.348,-145.189 385.981,-137.842 375.432,-138.826 378.348,-145.189"/>
</g>
<!-- AS3257&#45;&gt;AS2497 -->
<g id="edge19" class="edge"><title>AS3257&#45;&gt;AS2497</title>
<path fill="none" stroke="black" d="M332.893,-342C342.446,-342 352.796,-342 362.759,-342"/>
<polygon fill="black" stroke="black" points="362.951,-345.5 372.951,-342 362.951,-338.5 362.951,-345.5"/>
</g>
<!-- AS3257&#45;&gt;AS3491 -->
<g id="edge18" class="edge"><title>AS3257&#45;&gt;AS3491</title>
<path fill="none" stroke="black" d="M321.609,-354.661C337.566,-361.973 357.837,-371.261 375.119,-379.181"/>
<polygon fill="black" stroke="black" points="373.818,-382.435 384.367,-383.419 376.734,-376.071 373.818,-382.435"/>
</g>
<!-- AS6461 -->
<g id="node18" class="node"><title>AS6461</title>
<g id="a_node18"><a xlink:href="/asn/6461" xlink:title="AS6461 ~ Zayo Bandwidth [US]">
<ellipse fill="#ffffff" stroke="black" cx="412.823" cy="-72" rx="39.7935" ry="18"/>
<text text-anchor="middle" x="412.823" y="-68.3" font-family="Times,serif" font-size="14.00" fill="#2c94b3">AS6461</text>
</a>
</g>
</g>
<!-- AS8218&#45;&gt;AS6461 -->
<g id="edge20" class="edge"><title>AS8218&#45;&gt;AS6461</title>
<path fill="none" stroke="black" d="M328.7,-91.0451C340.7,-88.2957 354.32,-85.1749 367.013,-82.2668"/>
<polygon fill="black" stroke="black" points="367.979,-85.6363 376.945,-79.9913 366.415,-78.8131 367.979,-85.6363"/>
</g>
<!-- AS6762 -->
<g id="node21" class="node"><title>AS6762</title>
<g id="a_node21"><a xlink:href="/asn/6762" xlink:title="AS6762 ~ TELECOM ITALIA SPARKLE S.p.A. [IT]">
<ellipse fill="#ffffff" stroke="black" cx="412.823" cy="-18" rx="39.7935" ry="18"/>
<text text-anchor="middle" x="412.823" y="-14.3" font-family="Times,serif" font-size="14.00" fill="#2c94b3">AS6762</text>
</a>
</g>
</g>
<!-- AS25255&#45;&gt;AS6762 -->
<g id="edge24" class="edge"><title>AS25255&#45;&gt;AS6762</title>
<path fill="none" stroke="black" d="M335.527,-27.0641C344.773,-25.9657 354.646,-24.7928 364.118,-23.6675"/>
<polygon fill="black" stroke="black" points="364.672,-27.1264 374.189,-22.471 363.846,-20.1753 364.672,-27.1264"/>
</g>
</g>
</svg>
