<?xml version="1.0" encoding="UTF-8" standalone="no"?>
<!DOCTYPE svg PUBLIC "-//W3C//DTD SVG 1.1//EN"
 "http://www.w3.org/Graphics/SVG/1.1/DTD/svg11.dtd">
<!-- Generated by graphviz version 2.38.0 (20140413.2041)
 -->
<!-- Title: AS199733 Combined Upstream Graph Pages: 1 -->
<svg width="468pt" height="838pt"
 viewBox="0.00 0.00 468.27 838.00" xmlns="http://www.w3.org/2000/svg" xmlns:xlink="http://www.w3.org/1999/xlink">
<g id="graph0" class="graph" transform="scale(1 1) rotate(0) translate(4 834)">
<title>AS199733 Combined Upstream Graph</title>
<polygon fill="white" stroke="none" points="-4,4 -4,-834 464.269,-834 464.269,4 -4,4"/>
<!-- AS199733 -->
<g id="node1" class="node"><title>AS199733</title>
<g id="a_node1"><a xlink:href="/asn/199733" xlink:title="AS199733 ~ Extrahost GmbH [AT]">
<ellipse fill="#ffffff" stroke="black" cx="48.0957" cy="-99" rx="48.1917" ry="18"/>
<text text-anchor="middle" x="48.0957" y="-95.3" font-family="Times,serif" font-size="14.00" fill="#880000">AS199733</text>
</a>
</g>
</g>
<!-- AS1299 -->
<g id="node2" class="node"><title>AS1299</title>
<g id="a_node2"><a xlink:href="/asn/1299" xlink:title="AS1299 ~ Telia Carrier [EU]">
<ellipse fill="#ffffff" stroke="black" cx="176.388" cy="-473" rx="39.7935" ry="18"/>
<text text-anchor="middle" x="176.388" y="-469.3" font-family="Times,serif" font-size="14.00" fill="#2c94b3">AS1299</text>
</a>
</g>
</g>
<!-- AS199733&#45;&gt;AS1299 -->
<g id="edge1" class="edge"><title>AS199733&#45;&gt;AS1299</title>
<path fill="none" stroke="black" stroke-width="4.5" d="M55.187,-117.039C75.5687,-177.397 141.476,-372.575 166.043,-445.327"/>
<polygon fill="black" stroke="black" stroke-width="4.5" points="162.427,-446.928 169.357,-455.142 169.889,-444.408 162.427,-446.928"/>
</g>
<!-- AS35320 -->
<g id="node3" class="node"><title>AS35320</title>
<g id="a_node3"><a xlink:href="/asn/35320" xlink:title="AS35320 ~ Eurotranstelecom Ltd [UA]">
<ellipse fill="#ffffff" stroke="black" cx="176.388" cy="-99" rx="44.393" ry="18"/>
<text text-anchor="middle" x="176.388" y="-95.3" font-family="Times,serif" font-size="14.00" fill="#2c94b3">AS35320</text>
</a>
</g>
</g>
<!-- AS199733&#45;&gt;AS35320 -->
<g id="edge2" class="edge"><title>AS199733&#45;&gt;AS35320</title>
<path fill="none" stroke="black" stroke-width="0.75" d="M96.4815,-99C104.742,-99 113.386,-99 121.799,-99"/>
<polygon fill="black" stroke="black" stroke-width="0.75" points="121.904,-102.5 131.904,-99 121.904,-95.5001 121.904,-102.5"/>
</g>
<!-- AS49025 -->
<g id="node4" class="node"><title>AS49025</title>
<g id="a_node4"><a xlink:href="/asn/49025" xlink:title="AS49025 ~ PRO&#45;ZETA a.s. [CZ]">
<ellipse fill="#ffffff" stroke="black" cx="176.388" cy="-32" rx="44.393" ry="18"/>
<text text-anchor="middle" x="176.388" y="-28.3" font-family="Times,serif" font-size="14.00" fill="#2c94b3">AS49025</text>
</a>
</g>
</g>
<!-- AS199733&#45;&gt;AS49025 -->
<g id="edge3" class="edge"><title>AS199733&#45;&gt;AS49025</title>
<path fill="none" stroke="black" stroke-width="0.5625" d="M76.4992,-84.462C94.9949,-74.6497 119.591,-61.6011 139.626,-50.9723"/>
<polygon fill="black" stroke="black" stroke-width="0.5625" points="141.278,-54.0579 148.471,-46.2795 137.997,-47.8742 141.278,-54.0579"/>
</g>
<!-- AS3320 -->
<g id="node5" class="node"><title>AS3320</title>
<g id="a_node5"><a xlink:href="/asn/3320" xlink:title="AS3320 ~ DTAG [DE]">
<ellipse fill="#ffffff" stroke="black" cx="300.78" cy="-650" rx="39.7935" ry="18"/>
<text text-anchor="middle" x="300.78" y="-646.3" font-family="Times,serif" font-size="14.00" fill="#2c94b3">AS3320</text>
</a>
</g>
</g>
<!-- AS1299&#45;&gt;AS3320 -->
<g id="edge4" class="edge"><title>AS1299&#45;&gt;AS3320</title>
<path fill="none" stroke="black" d="M183.374,-491.027C194.114,-521.221 219.088,-582.668 256.584,-623 259.143,-625.753 262.043,-628.336 265.1,-630.729"/>
<polygon fill="black" stroke="black" points="263.244,-633.704 273.433,-636.61 267.28,-627.984 263.244,-633.704"/>
</g>
<!-- AS6461 -->
<g id="node6" class="node"><title>AS6461</title>
<g id="a_node6"><a xlink:href="/asn/6461" xlink:title="AS6461 ~ Zayo Bandwidth [US]">
<ellipse fill="#ffffff" stroke="black" cx="300.78" cy="-596" rx="39.7935" ry="18"/>
<text text-anchor="middle" x="300.78" y="-592.3" font-family="Times,serif" font-size="14.00" fill="#2c94b3">AS6461</text>
</a>
</g>
</g>
<!-- AS1299&#45;&gt;AS6461 -->
<g id="edge5" class="edge"><title>AS1299&#45;&gt;AS6461</title>
<path fill="none" stroke="black" d="M189.098,-490.386C203.408,-510.801 229.128,-544.928 256.584,-569 259.566,-571.615 262.828,-574.142 266.182,-576.532"/>
<polygon fill="black" stroke="black" points="264.34,-579.51 274.597,-582.162 268.232,-573.692 264.34,-579.51"/>
</g>
<!-- AS2914 -->
<g id="node7" class="node"><title>AS2914</title>
<g id="a_node7"><a xlink:href="/asn/2914" xlink:title="AS2914 ~ NTT America, Inc. [US]">
<ellipse fill="#ffffff" stroke="black" cx="420.622" cy="-253" rx="39.7935" ry="18"/>
<text text-anchor="middle" x="420.622" y="-249.3" font-family="Times,serif" font-size="14.00" fill="#2c94b3">AS2914</text>
</a>
</g>
</g>
<!-- AS1299&#45;&gt;AS2914 -->
<g id="edge6" class="edge"><title>AS1299&#45;&gt;AS2914</title>
<path fill="none" stroke="black" stroke-width="2" d="M208.152,-483.941C244.464,-494.74 304.958,-505.846 344.976,-477 407.888,-431.652 418.581,-330.99 419.878,-281.539"/>
<polygon fill="black" stroke="black" stroke-width="2" points="423.382,-281.294 420.03,-271.244 416.383,-281.191 423.382,-281.294"/>
</g>
<!-- AS3356 -->
<g id="node8" class="node"><title>AS3356</title>
<g id="a_node8"><a xlink:href="/asn/3356" xlink:title="AS3356 ~ Level 3 Parent, LLC [US]">
<ellipse fill="#ffffff" stroke="black" cx="300.78" cy="-542" rx="39.7935" ry="18"/>
<text text-anchor="middle" x="300.78" y="-538.3" font-family="Times,serif" font-size="14.00" fill="#2c94b3">AS3356</text>
</a>
</g>
</g>
<!-- AS1299&#45;&gt;AS3356 -->
<g id="edge7" class="edge"><title>AS1299&#45;&gt;AS3356</title>
<path fill="none" stroke="black" stroke-width="4" d="M201.861,-486.797C220.252,-497.165 245.664,-511.491 265.991,-522.951"/>
<polygon fill="black" stroke="black" stroke-width="4" points="264.499,-526.128 274.929,-527.99 267.937,-520.03 264.499,-526.128"/>
</g>
<!-- AS3491 -->
<g id="node9" class="node"><title>AS3491</title>
<g id="a_node9"><a xlink:href="/asn/3491" xlink:title="AS3491 ~ PCCW Global, Inc. [US]">
<ellipse fill="#ffffff" stroke="black" cx="300.78" cy="-450" rx="39.7935" ry="18"/>
<text text-anchor="middle" x="300.78" y="-446.3" font-family="Times,serif" font-size="14.00" fill="#2c94b3">AS3491</text>
</a>
</g>
</g>
<!-- AS1299&#45;&gt;AS3491 -->
<g id="edge8" class="edge"><title>AS1299&#45;&gt;AS3491</title>
<path fill="none" stroke="black" stroke-width="2" d="M213.447,-466.224C226.146,-463.837 240.593,-461.122 253.987,-458.605"/>
<polygon fill="black" stroke="black" stroke-width="2" points="254.796,-462.015 263.978,-456.728 253.503,-455.135 254.796,-462.015"/>
</g>
<!-- AS1239 -->
<g id="node10" class="node"><title>AS1239</title>
<g id="a_node10"><a xlink:href="/asn/1239" xlink:title="AS1239 ~ Sprint [US]">
<ellipse fill="#ffffff" stroke="black" cx="300.78" cy="-396" rx="39.7935" ry="18"/>
<text text-anchor="middle" x="300.78" y="-392.3" font-family="Times,serif" font-size="14.00" fill="#2c94b3">AS1239</text>
</a>
</g>
</g>
<!-- AS1299&#45;&gt;AS1239 -->
<g id="edge9" class="edge"><title>AS1299&#45;&gt;AS1239</title>
<path fill="none" stroke="black" d="M200.244,-458.532C216.054,-448.533 237.583,-434.936 256.584,-423 260.206,-420.724 264.002,-418.344 267.777,-415.981"/>
<polygon fill="black" stroke="black" points="269.831,-418.824 276.453,-410.554 266.119,-412.89 269.831,-418.824"/>
</g>
<!-- AS12956 -->
<g id="node11" class="node"><title>AS12956</title>
<g id="a_node11"><a xlink:href="/asn/12956" xlink:title="AS12956 ~ TELXIUS [ES]">
<ellipse fill="#ffffff" stroke="black" cx="300.78" cy="-342" rx="44.393" ry="18"/>
<text text-anchor="middle" x="300.78" y="-338.3" font-family="Times,serif" font-size="14.00" fill="#2c94b3">AS12956</text>
</a>
</g>
</g>
<!-- AS1299&#45;&gt;AS12956 -->
<g id="edge10" class="edge"><title>AS1299&#45;&gt;AS12956</title>
<path fill="none" stroke="black" d="M187.815,-455.634C201.604,-433.648 227.572,-395.454 256.584,-369 259.212,-366.603 262.081,-364.294 265.049,-362.102"/>
<polygon fill="black" stroke="black" points="267.293,-364.807 273.563,-356.267 263.336,-359.033 267.293,-364.807"/>
</g>
<!-- AS3257 -->
<g id="node12" class="node"><title>AS3257</title>
<g id="a_node12"><a xlink:href="/asn/3257" xlink:title="AS3257 ~ GTT [DE]">
<ellipse fill="#ffffff" stroke="black" cx="300.78" cy="-288" rx="39.7935" ry="18"/>
<text text-anchor="middle" x="300.78" y="-284.3" font-family="Times,serif" font-size="14.00" fill="#2c94b3">AS3257</text>
</a>
</g>
</g>
<!-- AS1299&#45;&gt;AS3257 -->
<g id="edge11" class="edge"><title>AS1299&#45;&gt;AS3257</title>
<path fill="none" stroke="black" d="M182.801,-455.01C192.985,-423.568 217.549,-357.888 256.584,-315 259.114,-312.22 261.994,-309.619 265.039,-307.215"/>
<polygon fill="black" stroke="black" points="267.222,-309.958 273.355,-301.319 263.173,-304.247 267.222,-309.958"/>
</g>
<!-- AS2497 -->
<g id="node13" class="node"><title>AS2497</title>
<g id="a_node13"><a xlink:href="/asn/2497" xlink:title="AS2497 ~ Internet Initiative Japan Inc. [JP]">
<ellipse fill="#ffffff" stroke="black" cx="300.78" cy="-234" rx="39.7935" ry="18"/>
<text text-anchor="middle" x="300.78" y="-230.3" font-family="Times,serif" font-size="14.00" fill="#2c94b3">AS2497</text>
</a>
</g>
</g>
<!-- AS1299&#45;&gt;AS2497 -->
<g id="edge12" class="edge"><title>AS1299&#45;&gt;AS2497</title>
<path fill="none" stroke="black" stroke-width="2" d="M180.113,-454.861C186.807,-415.596 207.251,-321.405 256.584,-261 258.961,-258.089 261.74,-255.4 264.721,-252.94"/>
<polygon fill="black" stroke="black" stroke-width="2" points="266.912,-255.675 272.948,-246.968 262.799,-250.01 266.912,-255.675"/>
</g>
<!-- AS7018 -->
<g id="node14" class="node"><title>AS7018</title>
<g id="a_node14"><a xlink:href="/asn/7018" xlink:title="AS7018 ~ AT&amp;T Services, Inc. [US]">
<ellipse fill="#ffffff" stroke="black" cx="300.78" cy="-180" rx="39.7935" ry="18"/>
<text text-anchor="middle" x="300.78" y="-176.3" font-family="Times,serif" font-size="14.00" fill="#2c94b3">AS7018</text>
</a>
</g>
</g>
<!-- AS1299&#45;&gt;AS7018 -->
<g id="edge13" class="edge"><title>AS1299&#45;&gt;AS7018</title>
<path fill="none" stroke="black" stroke-width="2" d="M178.44,-454.892C181.957,-408.885 196.745,-285.589 256.584,-207 258.861,-204.01 261.572,-201.268 264.511,-198.775"/>
<polygon fill="black" stroke="black" stroke-width="2" points="266.705,-201.506 272.68,-192.756 262.553,-195.87 266.705,-201.506"/>
</g>
<!-- AS209 -->
<g id="node15" class="node"><title>AS209</title>
<g id="a_node15"><a xlink:href="/asn/209" xlink:title="AS209 ~ CenturyLink Communications, LLC [US]">
<ellipse fill="#ffffff" stroke="black" cx="300.78" cy="-812" rx="35.194" ry="18"/>
<text text-anchor="middle" x="300.78" y="-808.3" font-family="Times,serif" font-size="14.00" fill="#2c94b3">AS209</text>
</a>
</g>
</g>
<!-- AS1299&#45;&gt;AS209 -->
<g id="edge14" class="edge"><title>AS1299&#45;&gt;AS209</title>
<path fill="none" stroke="black" stroke-width="2" d="M177.454,-491.147C178.518,-542.402 187.737,-690.649 256.584,-785 259.105,-788.456 262.217,-791.57 265.604,-794.348"/>
<polygon fill="black" stroke="black" stroke-width="2" points="263.686,-797.278 273.864,-800.222 267.743,-791.574 263.686,-797.278"/>
</g>
<!-- AS701 -->
<g id="node16" class="node"><title>AS701</title>
<g id="a_node16"><a xlink:href="/asn/701" xlink:title="AS701 ~ UUNET [US]">
<ellipse fill="#ffffff" stroke="black" cx="300.78" cy="-758" rx="35.194" ry="18"/>
<text text-anchor="middle" x="300.78" y="-754.3" font-family="Times,serif" font-size="14.00" fill="#2c94b3">AS701</text>
</a>
</g>
</g>
<!-- AS1299&#45;&gt;AS701 -->
<g id="edge15" class="edge"><title>AS1299&#45;&gt;AS701</title>
<path fill="none" stroke="black" stroke-width="2" d="M178.656,-491.228C182.64,-536.373 198.359,-655.198 256.584,-731 259.19,-734.393 262.353,-737.467 265.771,-740.223"/>
<polygon fill="black" stroke="black" stroke-width="2" points="263.873,-743.168 274.062,-746.073 267.909,-737.448 263.873,-743.168"/>
</g>
<!-- AS1273 -->
<g id="node17" class="node"><title>AS1273</title>
<g id="a_node17"><a xlink:href="/asn/1273" xlink:title="AS1273 ~ Vodafone Group PLC [EU]">
<ellipse fill="#ffffff" stroke="black" cx="300.78" cy="-704" rx="39.7935" ry="18"/>
<text text-anchor="middle" x="300.78" y="-700.3" font-family="Times,serif" font-size="14.00" fill="#2c94b3">AS1273</text>
</a>
</g>
</g>
<!-- AS1299&#45;&gt;AS1273 -->
<g id="edge16" class="edge"><title>AS1299&#45;&gt;AS1273</title>
<path fill="none" stroke="black" d="M180.411,-491.033C187.586,-529.16 208.75,-619.189 256.584,-677 258.98,-679.896 261.771,-682.574 264.76,-685.028"/>
<polygon fill="black" stroke="black" points="262.845,-687.963 272.998,-690.992 266.95,-682.293 262.845,-687.963"/>
</g>
<!-- AS6453 -->
<g id="node19" class="node"><title>AS6453</title>
<g id="a_node19"><a xlink:href="/asn/6453" xlink:title="AS6453 ~ TATA COMMUNICATIONS (AMERICA) INC [US]">
<ellipse fill="#ffffff" stroke="black" cx="300.78" cy="-126" rx="39.7935" ry="18"/>
<text text-anchor="middle" x="300.78" y="-122.3" font-family="Times,serif" font-size="14.00" fill="#2c94b3">AS6453</text>
</a>
</g>
</g>
<!-- AS35320&#45;&gt;AS6453 -->
<g id="edge18" class="edge"><title>AS35320&#45;&gt;AS6453</title>
<path fill="none" stroke="black" stroke-width="2" d="M215.777,-107.469C228.168,-110.202 242.015,-113.257 254.836,-116.085"/>
<polygon fill="black" stroke="black" stroke-width="2" points="254.331,-119.558 264.85,-118.295 255.839,-112.722 254.331,-119.558"/>
</g>
<!-- AS174 -->
<g id="node20" class="node"><title>AS174</title>
<g id="a_node20"><a xlink:href="/asn/174" xlink:title="AS174 ~ Cogent Communications [US]">
<ellipse fill="#ffffff" stroke="black" cx="300.78" cy="-72" rx="35.194" ry="18"/>
<text text-anchor="middle" x="300.78" y="-68.3" font-family="Times,serif" font-size="14.00" fill="#2c94b3">AS174</text>
</a>
</g>
</g>
<!-- AS35320&#45;&gt;AS174 -->
<g id="edge19" class="edge"><title>AS35320&#45;&gt;AS174</title>
<path fill="none" stroke="black" stroke-width="2" d="M215.777,-90.5311C229.185,-87.5734 244.297,-84.2397 257.969,-81.2235"/>
<polygon fill="black" stroke="black" stroke-width="2" points="259.08,-84.5626 268.092,-78.9905 257.572,-77.727 259.08,-84.5626"/>
</g>
<!-- AS6762 -->
<g id="node21" class="node"><title>AS6762</title>
<g id="a_node21"><a xlink:href="/asn/6762" xlink:title="AS6762 ~ TELECOM ITALIA SPARKLE S.p.A. [IT]">
<ellipse fill="#ffffff" stroke="black" cx="300.78" cy="-18" rx="39.7935" ry="18"/>
<text text-anchor="middle" x="300.78" y="-14.3" font-family="Times,serif" font-size="14.00" fill="#2c94b3">AS6762</text>
</a>
</g>
</g>
<!-- AS49025&#45;&gt;AS6762 -->
<g id="edge20" class="edge"><title>AS49025&#45;&gt;AS6762</title>
<path fill="none" stroke="black" stroke-width="3" d="M219.166,-27.2212C229.661,-26.0206 241.007,-24.7228 251.78,-23.4905"/>
<polygon fill="black" stroke="black" stroke-width="3" points="252.35,-26.9483 261.887,-22.3344 251.554,-19.9936 252.35,-26.9483"/>
</g>
<!-- AS3549 -->
<g id="node18" class="node"><title>AS3549</title>
<g id="a_node18"><a xlink:href="/asn/3549" xlink:title="AS3549 ~ Level 3 Parent, LLC [US]">
<ellipse fill="#ffffff" stroke="black" cx="420.622" cy="-542" rx="39.7935" ry="18"/>
<text text-anchor="middle" x="420.622" y="-538.3" font-family="Times,serif" font-size="14.00" fill="#2c94b3">AS3549</text>
</a>
</g>
</g>
<!-- AS3356&#45;&gt;AS3549 -->
<g id="edge17" class="edge"><title>AS3356&#45;&gt;AS3549</title>
<path fill="none" stroke="black" stroke-width="2" d="M340.692,-542C350.246,-542 360.595,-542 370.558,-542"/>
<polygon fill="black" stroke="black" stroke-width="2" points="370.751,-545.5 380.75,-542 370.75,-538.5 370.751,-545.5"/>
</g>
<!-- AS6762&#45;&gt;AS2914 -->
<g id="edge21" class="edge"><title>AS6762&#45;&gt;AS2914</title>
<path fill="none" stroke="black" d="M328.662,-30.9267C334.653,-34.7889 340.536,-39.4914 344.976,-45 388.921,-99.5258 408.148,-182.041 415.565,-224.912"/>
<polygon fill="black" stroke="black" points="412.133,-225.613 417.204,-234.916 419.041,-224.481 412.133,-225.613"/>
</g>
</g>
</svg>
