<?xml version="1.0" encoding="UTF-8" standalone="no"?>
<!DOCTYPE svg PUBLIC "-//W3C//DTD SVG 1.1//EN"
 "http://www.w3.org/Graphics/SVG/1.1/DTD/svg11.dtd">
<!-- Generated by graphviz version 2.38.0 (20140413.2041)
 -->
<!-- Title: AS199733 Combined Upstream Graph Pages: 1 -->
<svg width="468pt" height="784pt"
 viewBox="0.00 0.00 468.27 784.00" xmlns="http://www.w3.org/2000/svg" xmlns:xlink="http://www.w3.org/1999/xlink">
<g id="graph0" class="graph" transform="scale(1 1) rotate(0) translate(4 780)">
<title>AS199733 Combined Upstream Graph</title>
<polygon fill="white" stroke="none" points="-4,4 -4,-780 464.269,-780 464.269,4 -4,4"/>
<!-- AS199733 -->
<g id="node1" class="node"><title>AS199733</title>
<g id="a_node1"><a xlink:href="/asn/199733" xlink:title="AS199733 ~ Extrahost GmbH [AT]">
<ellipse fill="#ffffff" stroke="black" cx="48.0957" cy="-112" rx="48.1917" ry="18"/>
<text text-anchor="middle" x="48.0957" y="-108.3" font-family="Times,serif" font-size="14.00" fill="#880000">AS199733</text>
</a>
</g>
</g>
<!-- AS1299 -->
<g id="node2" class="node"><title>AS1299</title>
<g id="a_node2"><a xlink:href="/asn/1299" xlink:title="AS1299 ~ Telia Carrier [EU]">
<ellipse fill="#ffffff" stroke="black" cx="176.388" cy="-450" rx="39.7935" ry="18"/>
<text text-anchor="middle" x="176.388" y="-446.3" font-family="Times,serif" font-size="14.00" fill="#2c94b3">AS1299</text>
</a>
</g>
</g>
<!-- AS199733&#45;&gt;AS1299 -->
<g id="edge1" class="edge"><title>AS199733&#45;&gt;AS1299</title>
<path fill="none" stroke="black" stroke-width="4.5" d="M55.8857,-130.172C76.7921,-186.125 140.279,-356.038 165.196,-422.724"/>
<polygon fill="black" stroke="black" stroke-width="4.5" points="161.529,-424.159 168.717,-432.148 168.906,-421.402 161.529,-424.159"/>
</g>
<!-- AS35320 -->
<g id="node3" class="node"><title>AS35320</title>
<g id="a_node3"><a xlink:href="/asn/35320" xlink:title="AS35320 ~ Eurotranstelecom Ltd [UA]">
<ellipse fill="#ffffff" stroke="black" cx="176.388" cy="-112" rx="44.393" ry="18"/>
<text text-anchor="middle" x="176.388" y="-108.3" font-family="Times,serif" font-size="14.00" fill="#2c94b3">AS35320</text>
</a>
</g>
</g>
<!-- AS199733&#45;&gt;AS35320 -->
<g id="edge2" class="edge"><title>AS199733&#45;&gt;AS35320</title>
<path fill="none" stroke="black" stroke-width="0.782609" d="M96.4815,-112C104.742,-112 113.386,-112 121.799,-112"/>
<polygon fill="black" stroke="black" stroke-width="0.782609" points="121.904,-115.5 131.904,-112 121.904,-108.5 121.904,-115.5"/>
</g>
<!-- AS49025 -->
<g id="node4" class="node"><title>AS49025</title>
<g id="a_node4"><a xlink:href="/asn/49025" xlink:title="AS49025 ~ PRO&#45;ZETA a.s. [CZ]">
<ellipse fill="#ffffff" stroke="black" cx="176.388" cy="-31" rx="44.393" ry="18"/>
<text text-anchor="middle" x="176.388" y="-27.3" font-family="Times,serif" font-size="14.00" fill="#2c94b3">AS49025</text>
</a>
</g>
</g>
<!-- AS199733&#45;&gt;AS49025 -->
<g id="edge3" class="edge"><title>AS199733&#45;&gt;AS49025</title>
<path fill="none" stroke="black" stroke-width="0.586957" d="M73.1475,-96.5739C93.0242,-83.8255 121.421,-65.6126 143.246,-51.6149"/>
<polygon fill="black" stroke="black" stroke-width="0.586957" points="145.325,-54.4394 151.853,-46.0945 141.546,-48.5472 145.325,-54.4394"/>
</g>
<!-- AS2914 -->
<g id="node5" class="node"><title>AS2914</title>
<g id="a_node5"><a xlink:href="/asn/2914" xlink:title="AS2914 ~ NTT America, Inc. [US]">
<ellipse fill="#ffffff" stroke="black" cx="420.622" cy="-257" rx="39.7935" ry="18"/>
<text text-anchor="middle" x="420.622" y="-253.3" font-family="Times,serif" font-size="14.00" fill="#2c94b3">AS2914</text>
</a>
</g>
</g>
<!-- AS1299&#45;&gt;AS2914 -->
<g id="edge4" class="edge"><title>AS1299&#45;&gt;AS2914</title>
<path fill="none" stroke="black" stroke-width="2" d="M201.821,-464.048C236.885,-482.143 301.979,-507.816 344.976,-477 406.846,-432.658 418.062,-334.129 419.685,-285.406"/>
<polygon fill="black" stroke="black" stroke-width="2" points="423.187,-285.325 419.906,-275.251 416.189,-285.173 423.187,-285.325"/>
</g>
<!-- AS6461 -->
<g id="node6" class="node"><title>AS6461</title>
<g id="a_node6"><a xlink:href="/asn/6461" xlink:title="AS6461 ~ Zayo Bandwidth [US]">
<ellipse fill="#ffffff" stroke="black" cx="300.78" cy="-542" rx="39.7935" ry="18"/>
<text text-anchor="middle" x="300.78" y="-538.3" font-family="Times,serif" font-size="14.00" fill="#2c94b3">AS6461</text>
</a>
</g>
</g>
<!-- AS1299&#45;&gt;AS6461 -->
<g id="edge5" class="edge"><title>AS1299&#45;&gt;AS6461</title>
<path fill="none" stroke="black" d="M197.524,-465.35C213.503,-477.508 236.428,-494.9 256.584,-510 261.159,-513.427 266.017,-517.047 270.762,-520.57"/>
<polygon fill="black" stroke="black" points="268.975,-523.602 279.093,-526.745 273.143,-517.978 268.975,-523.602"/>
</g>
<!-- AS3356 -->
<g id="node7" class="node"><title>AS3356</title>
<g id="a_node7"><a xlink:href="/asn/3356" xlink:title="AS3356 ~ Level 3 Parent, LLC [US]">
<ellipse fill="#ffffff" stroke="black" cx="300.78" cy="-596" rx="39.7935" ry="18"/>
<text text-anchor="middle" x="300.78" y="-592.3" font-family="Times,serif" font-size="14.00" fill="#2c94b3">AS3356</text>
</a>
</g>
</g>
<!-- AS1299&#45;&gt;AS3356 -->
<g id="edge6" class="edge"><title>AS1299&#45;&gt;AS3356</title>
<path fill="none" stroke="black" stroke-width="4" d="M186.141,-467.836C198.991,-492.708 224.905,-538.214 256.584,-569 259.428,-571.764 262.601,-574.388 265.9,-576.837"/>
<polygon fill="black" stroke="black" stroke-width="4" points="264.017,-579.788 274.248,-582.541 267.966,-574.009 264.017,-579.788"/>
</g>
<!-- AS209 -->
<g id="node8" class="node"><title>AS209</title>
<g id="a_node8"><a xlink:href="/asn/209" xlink:title="AS209 ~ CenturyLink Communications, LLC [US]">
<ellipse fill="#ffffff" stroke="black" cx="300.78" cy="-450" rx="35.194" ry="18"/>
<text text-anchor="middle" x="300.78" y="-446.3" font-family="Times,serif" font-size="14.00" fill="#2c94b3">AS209</text>
</a>
</g>
</g>
<!-- AS1299&#45;&gt;AS209 -->
<g id="edge7" class="edge"><title>AS1299&#45;&gt;AS209</title>
<path fill="none" stroke="black" stroke-width="2" d="M216.113,-450C228.602,-450 242.541,-450 255.405,-450"/>
<polygon fill="black" stroke="black" stroke-width="2" points="255.442,-453.5 265.442,-450 255.442,-446.5 255.442,-453.5"/>
</g>
<!-- AS1239 -->
<g id="node9" class="node"><title>AS1239</title>
<g id="a_node9"><a xlink:href="/asn/1239" xlink:title="AS1239 ~ Sprint [US]">
<ellipse fill="#ffffff" stroke="black" cx="300.78" cy="-396" rx="39.7935" ry="18"/>
<text text-anchor="middle" x="300.78" y="-392.3" font-family="Times,serif" font-size="14.00" fill="#2c94b3">AS1239</text>
</a>
</g>
</g>
<!-- AS1299&#45;&gt;AS1239 -->
<g id="edge8" class="edge"><title>AS1299&#45;&gt;AS1239</title>
<path fill="none" stroke="black" d="M205.467,-437.611C222.415,-430.134 244.212,-420.517 262.581,-412.412"/>
<polygon fill="black" stroke="black" points="264.095,-415.57 271.831,-408.331 261.269,-409.166 264.095,-415.57"/>
</g>
<!-- AS701 -->
<g id="node10" class="node"><title>AS701</title>
<g id="a_node10"><a xlink:href="/asn/701" xlink:title="AS701 ~ UUNET [US]">
<ellipse fill="#ffffff" stroke="black" cx="300.78" cy="-342" rx="35.194" ry="18"/>
<text text-anchor="middle" x="300.78" y="-338.3" font-family="Times,serif" font-size="14.00" fill="#2c94b3">AS701</text>
</a>
</g>
</g>
<!-- AS1299&#45;&gt;AS701 -->
<g id="edge9" class="edge"><title>AS1299&#45;&gt;AS701</title>
<path fill="none" stroke="black" stroke-width="2" d="M191.54,-433.337C206.641,-416.106 231.762,-388.976 256.584,-369 260.089,-366.179 263.907,-363.413 267.775,-360.792"/>
<polygon fill="black" stroke="black" stroke-width="2" points="269.732,-363.694 276.22,-355.318 265.925,-357.82 269.732,-363.694"/>
</g>
<!-- AS3257 -->
<g id="node11" class="node"><title>AS3257</title>
<g id="a_node11"><a xlink:href="/asn/3257" xlink:title="AS3257 ~ GTT [DE]">
<ellipse fill="#ffffff" stroke="black" cx="300.78" cy="-288" rx="39.7935" ry="18"/>
<text text-anchor="middle" x="300.78" y="-284.3" font-family="Times,serif" font-size="14.00" fill="#2c94b3">AS3257</text>
</a>
</g>
</g>
<!-- AS1299&#45;&gt;AS3257 -->
<g id="edge10" class="edge"><title>AS1299&#45;&gt;AS3257</title>
<path fill="none" stroke="black" stroke-width="2" d="M184.578,-432.025C196.345,-404.318 221.919,-350.652 256.584,-315 259.204,-312.305 262.144,-309.761 265.227,-307.392"/>
<polygon fill="black" stroke="black" stroke-width="2" points="267.403,-310.141 273.596,-301.545 263.394,-304.403 267.403,-310.141"/>
</g>
<!-- AS3491 -->
<g id="node12" class="node"><title>AS3491</title>
<g id="a_node12"><a xlink:href="/asn/3491" xlink:title="AS3491 ~ PCCW Global, Inc. [US]">
<ellipse fill="#ffffff" stroke="black" cx="300.78" cy="-234" rx="39.7935" ry="18"/>
<text text-anchor="middle" x="300.78" y="-230.3" font-family="Times,serif" font-size="14.00" fill="#2c94b3">AS3491</text>
</a>
</g>
</g>
<!-- AS1299&#45;&gt;AS3491 -->
<g id="edge11" class="edge"><title>AS1299&#45;&gt;AS3491</title>
<path fill="none" stroke="black" d="M181.081,-431.925C189.221,-395.852 211.654,-313.86 256.584,-261 259.018,-258.136 261.834,-255.479 264.839,-253.039"/>
<polygon fill="black" stroke="black" points="267.028,-255.776 273.099,-247.094 262.938,-250.095 267.028,-255.776"/>
</g>
<!-- AS7018 -->
<g id="node13" class="node"><title>AS7018</title>
<g id="a_node13"><a xlink:href="/asn/7018" xlink:title="AS7018 ~ AT&amp;T Services, Inc. [US]">
<ellipse fill="#ffffff" stroke="black" cx="300.78" cy="-180" rx="39.7935" ry="18"/>
<text text-anchor="middle" x="300.78" y="-176.3" font-family="Times,serif" font-size="14.00" fill="#2c94b3">AS7018</text>
</a>
</g>
</g>
<!-- AS1299&#45;&gt;AS7018 -->
<g id="edge12" class="edge"><title>AS1299&#45;&gt;AS7018</title>
<path fill="none" stroke="black" stroke-width="2" d="M179.067,-431.871C183.897,-388.632 201.238,-277.784 256.584,-207 258.899,-204.039 261.636,-201.317 264.591,-198.836"/>
<polygon fill="black" stroke="black" stroke-width="2" points="266.784,-201.568 272.782,-192.835 262.647,-195.922 266.784,-201.568"/>
</g>
<!-- AS12956 -->
<g id="node14" class="node"><title>AS12956</title>
<g id="a_node14"><a xlink:href="/asn/12956" xlink:title="AS12956 ~ TELXIUS [ES]">
<ellipse fill="#ffffff" stroke="black" cx="300.78" cy="-758" rx="44.393" ry="18"/>
<text text-anchor="middle" x="300.78" y="-754.3" font-family="Times,serif" font-size="14.00" fill="#2c94b3">AS12956</text>
</a>
</g>
</g>
<!-- AS1299&#45;&gt;AS12956 -->
<g id="edge13" class="edge"><title>AS1299&#45;&gt;AS12956</title>
<path fill="none" stroke="black" d="M178.082,-468.063C180.77,-515.78 193.79,-647.264 256.584,-731 258.547,-733.618 260.845,-736.043 263.34,-738.277"/>
<polygon fill="black" stroke="black" points="261.223,-741.064 271.278,-744.403 265.5,-735.522 261.223,-741.064"/>
</g>
<!-- AS2497 -->
<g id="node15" class="node"><title>AS2497</title>
<g id="a_node15"><a xlink:href="/asn/2497" xlink:title="AS2497 ~ Internet Initiative Japan Inc. [JP]">
<ellipse fill="#ffffff" stroke="black" cx="300.78" cy="-704" rx="39.7935" ry="18"/>
<text text-anchor="middle" x="300.78" y="-700.3" font-family="Times,serif" font-size="14.00" fill="#2c94b3">AS2497</text>
</a>
</g>
</g>
<!-- AS1299&#45;&gt;AS2497 -->
<g id="edge14" class="edge"><title>AS1299&#45;&gt;AS2497</title>
<path fill="none" stroke="black" stroke-width="2" d="M179.577,-468.161C185.36,-509.403 204.358,-611.608 256.584,-677 258.929,-679.937 261.686,-682.643 264.654,-685.114"/>
<polygon fill="black" stroke="black" stroke-width="2" points="262.721,-688.036 272.863,-691.101 266.846,-682.38 262.721,-688.036"/>
</g>
<!-- AS1273 -->
<g id="node16" class="node"><title>AS1273</title>
<g id="a_node16"><a xlink:href="/asn/1273" xlink:title="AS1273 ~ Vodafone Group PLC [EU]">
<ellipse fill="#ffffff" stroke="black" cx="300.78" cy="-650" rx="39.7935" ry="18"/>
<text text-anchor="middle" x="300.78" y="-646.3" font-family="Times,serif" font-size="14.00" fill="#2c94b3">AS1273</text>
</a>
</g>
</g>
<!-- AS1299&#45;&gt;AS1273 -->
<g id="edge15" class="edge"><title>AS1299&#45;&gt;AS1273</title>
<path fill="none" stroke="black" d="M181.843,-467.834C190.986,-501.479 214.62,-575.226 256.584,-623 259.064,-625.824 261.911,-628.454 264.936,-630.878"/>
<polygon fill="black" stroke="black" points="263.052,-633.833 273.223,-636.8 267.121,-628.138 263.052,-633.833"/>
</g>
<!-- AS174 -->
<g id="node18" class="node"><title>AS174</title>
<g id="a_node18"><a xlink:href="/asn/174" xlink:title="AS174 ~ Cogent Communications [US]">
<ellipse fill="#ffffff" stroke="black" cx="300.78" cy="-72" rx="35.194" ry="18"/>
<text text-anchor="middle" x="300.78" y="-68.3" font-family="Times,serif" font-size="14.00" fill="#2c94b3">AS174</text>
</a>
</g>
</g>
<!-- AS35320&#45;&gt;AS174 -->
<g id="edge17" class="edge"><title>AS35320&#45;&gt;AS174</title>
<path fill="none" stroke="black" stroke-width="2" d="M211.481,-100.858C226.944,-95.8039 245.302,-89.8044 261.262,-84.5883"/>
<polygon fill="black" stroke="black" stroke-width="2" points="262.424,-87.8907 270.842,-81.4573 260.25,-81.237 262.424,-87.8907"/>
</g>
<!-- AS6453 -->
<g id="node19" class="node"><title>AS6453</title>
<g id="a_node19"><a xlink:href="/asn/6453" xlink:title="AS6453 ~ TATA COMMUNICATIONS (AMERICA) INC [US]">
<ellipse fill="#ffffff" stroke="black" cx="300.78" cy="-126" rx="39.7935" ry="18"/>
<text text-anchor="middle" x="300.78" y="-122.3" font-family="Times,serif" font-size="14.00" fill="#2c94b3">AS6453</text>
</a>
</g>
</g>
<!-- AS35320&#45;&gt;AS6453 -->
<g id="edge18" class="edge"><title>AS35320&#45;&gt;AS6453</title>
<path fill="none" stroke="black" stroke-width="2" d="M219.166,-116.779C229.661,-117.979 241.007,-119.277 251.78,-120.51"/>
<polygon fill="black" stroke="black" stroke-width="2" points="251.554,-124.006 261.887,-121.666 252.35,-117.052 251.554,-124.006"/>
</g>
<!-- AS6762 -->
<g id="node20" class="node"><title>AS6762</title>
<g id="a_node20"><a xlink:href="/asn/6762" xlink:title="AS6762 ~ TELECOM ITALIA SPARKLE S.p.A. [IT]">
<ellipse fill="#ffffff" stroke="black" cx="300.78" cy="-18" rx="39.7935" ry="18"/>
<text text-anchor="middle" x="300.78" y="-14.3" font-family="Times,serif" font-size="14.00" fill="#2c94b3">AS6762</text>
</a>
</g>
</g>
<!-- AS49025&#45;&gt;AS6762 -->
<g id="edge19" class="edge"><title>AS49025&#45;&gt;AS6762</title>
<path fill="none" stroke="black" stroke-width="3" d="M219.508,-26.5261C229.988,-25.413 241.298,-24.2117 252.027,-23.0721"/>
<polygon fill="black" stroke="black" stroke-width="3" points="252.516,-26.5399 262.091,-22.0032 251.777,-19.5791 252.516,-26.5399"/>
</g>
<!-- AS3549 -->
<g id="node17" class="node"><title>AS3549</title>
<g id="a_node17"><a xlink:href="/asn/3549" xlink:title="AS3549 ~ Level 3 Parent, LLC [US]">
<ellipse fill="#ffffff" stroke="black" cx="420.622" cy="-596" rx="39.7935" ry="18"/>
<text text-anchor="middle" x="420.622" y="-592.3" font-family="Times,serif" font-size="14.00" fill="#2c94b3">AS3549</text>
</a>
</g>
</g>
<!-- AS3356&#45;&gt;AS3549 -->
<g id="edge16" class="edge"><title>AS3356&#45;&gt;AS3549</title>
<path fill="none" stroke="black" stroke-width="2" d="M340.692,-596C350.246,-596 360.595,-596 370.558,-596"/>
<polygon fill="black" stroke="black" stroke-width="2" points="370.751,-599.5 380.75,-596 370.75,-592.5 370.751,-599.5"/>
</g>
<!-- AS6762&#45;&gt;AS2914 -->
<g id="edge20" class="edge"><title>AS6762&#45;&gt;AS2914</title>
<path fill="none" stroke="black" d="M328.685,-30.9078C334.676,-34.7706 340.553,-39.478 344.976,-45 389.71,-100.848 408.659,-185.468 415.809,-228.982"/>
<polygon fill="black" stroke="black" points="412.351,-229.524 417.345,-238.868 419.268,-228.449 412.351,-229.524"/>
</g>
</g>
</svg>
