<?xml version="1.0" encoding="UTF-8" standalone="no"?>
<!DOCTYPE svg PUBLIC "-//W3C//DTD SVG 1.1//EN"
 "http://www.w3.org/Graphics/SVG/1.1/DTD/svg11.dtd">
<!-- Generated by graphviz version 2.38.0 (20140413.2041)
 -->
<!-- Title: AS198650 Combined Upstream Graph Pages: 1 -->
<svg width="468pt" height="638pt"
 viewBox="0.00 0.00 468.27 638.00" xmlns="http://www.w3.org/2000/svg" xmlns:xlink="http://www.w3.org/1999/xlink">
<g id="graph0" class="graph" transform="scale(1 1) rotate(0) translate(4 634)">
<title>AS198650 Combined Upstream Graph</title>
<polygon fill="white" stroke="none" points="-4,4 -4,-634 464.269,-634 464.269,4 -4,4"/>
<!-- AS198650 -->
<g id="node1" class="node"><title>AS198650</title>
<g id="a_node1"><a xlink:href="/asn/198650" xlink:title="AS198650 ~ APPLIED CHEMICALS Handels&#45;GmbH [AT]">
<ellipse fill="#ffffff" stroke="black" cx="48.0957" cy="-311" rx="48.1917" ry="18"/>
<text text-anchor="middle" x="48.0957" y="-307.3" font-family="Times,serif" font-size="14.00" fill="#880000">AS198650</text>
</a>
</g>
</g>
<!-- AS1764 -->
<g id="node2" class="node"><title>AS1764</title>
<g id="a_node2"><a xlink:href="/asn/1764" xlink:title="AS1764 ~ NEXTLAYER&#45;AS [AT]">
<ellipse fill="#ffffff" stroke="black" cx="171.838" cy="-396" rx="39.7935" ry="18"/>
<text text-anchor="middle" x="171.838" y="-392.3" font-family="Times,serif" font-size="14.00" fill="#2c94b3">AS1764</text>
</a>
</g>
</g>
<!-- AS198650&#45;&gt;AS1764 -->
<g id="edge1" class="edge"><title>AS198650&#45;&gt;AS1764</title>
<path fill="none" stroke="black" stroke-width="4.5" d="M71.7092,-326.789C91.1698,-340.376 119.404,-360.089 140.766,-375.004"/>
<polygon fill="black" stroke="black" stroke-width="4.5" points="138.71,-378.371 149.164,-380.867 143.219,-371.914 138.71,-378.371"/>
</g>
<!-- AS8437 -->
<g id="node3" class="node"><title>AS8437</title>
<g id="a_node3"><a xlink:href="/asn/8437" xlink:title="AS8437 ~ Hutchison Drei Austria GmbH [AT]">
<ellipse fill="#ffffff" stroke="black" cx="171.838" cy="-143" rx="39.7935" ry="18"/>
<text text-anchor="middle" x="171.838" y="-139.3" font-family="Times,serif" font-size="14.00" fill="#2c94b3">AS8437</text>
</a>
</g>
</g>
<!-- AS198650&#45;&gt;AS8437 -->
<g id="edge2" class="edge"><title>AS198650&#45;&gt;AS8437</title>
<path fill="none" stroke="black" stroke-width="0.132353" d="M61.6657,-293.654C83.2839,-263.822 127.587,-202.685 152.6,-168.168"/>
<polygon fill="black" stroke="black" stroke-width="0.132353" points="155.484,-170.153 158.518,-160.002 149.816,-166.045 155.484,-170.153"/>
</g>
<!-- AS174 -->
<g id="node4" class="node"><title>AS174</title>
<g id="a_node4"><a xlink:href="/asn/174" xlink:title="AS174 ~ Cogent Communications [US]">
<ellipse fill="#ffffff" stroke="black" cx="291.681" cy="-450" rx="35.194" ry="18"/>
<text text-anchor="middle" x="291.681" y="-446.3" font-family="Times,serif" font-size="14.00" fill="#2c94b3">AS174</text>
</a>
</g>
</g>
<!-- AS1764&#45;&gt;AS174 -->
<g id="edge3" class="edge"><title>AS1764&#45;&gt;AS174</title>
<path fill="none" stroke="black" stroke-width="2.57143" d="M200.467,-408.661C216.883,-416.183 237.865,-425.798 255.461,-433.861"/>
<polygon fill="black" stroke="black" stroke-width="2.57143" points="254.29,-437.174 264.839,-438.158 257.206,-430.811 254.29,-437.174"/>
</g>
<!-- AS3257 -->
<g id="node5" class="node"><title>AS3257</title>
<g id="a_node5"><a xlink:href="/asn/3257" xlink:title="AS3257 ~ GTT [DE]">
<ellipse fill="#ffffff" stroke="black" cx="291.681" cy="-558" rx="39.7935" ry="18"/>
<text text-anchor="middle" x="291.681" y="-554.3" font-family="Times,serif" font-size="14.00" fill="#2c94b3">AS3257</text>
</a>
</g>
</g>
<!-- AS1764&#45;&gt;AS3257 -->
<g id="edge4" class="edge"><title>AS1764&#45;&gt;AS3257</title>
<path fill="none" stroke="black" stroke-width="3.21429" d="M179.361,-413.994C190.112,-441.728 213.769,-495.429 247.484,-531 250.07,-533.728 252.988,-536.294 256.056,-538.677"/>
<polygon fill="black" stroke="black" stroke-width="3.21429" points="254.21,-541.658 264.404,-544.543 258.234,-535.93 254.21,-541.658"/>
</g>
<!-- AS2914 -->
<g id="node6" class="node"><title>AS2914</title>
<g id="a_node6"><a xlink:href="/asn/2914" xlink:title="AS2914 ~ NTT America, Inc. [US]">
<ellipse fill="#ffffff" stroke="black" cx="291.681" cy="-504" rx="39.7935" ry="18"/>
<text text-anchor="middle" x="291.681" y="-500.3" font-family="Times,serif" font-size="14.00" fill="#2c94b3">AS2914</text>
</a>
</g>
</g>
<!-- AS1764&#45;&gt;AS2914 -->
<g id="edge5" class="edge"><title>AS1764&#45;&gt;AS2914</title>
<path fill="none" stroke="black" stroke-width="1.92857" d="M186.257,-413.065C200.372,-430.375 223.786,-457.345 247.484,-477 250.701,-479.668 254.201,-482.27 257.772,-484.741"/>
<polygon fill="black" stroke="black" stroke-width="1.92857" points="255.85,-487.666 266.128,-490.236 259.695,-481.817 255.85,-487.666"/>
</g>
<!-- AS3356 -->
<g id="node7" class="node"><title>AS3356</title>
<g id="a_node7"><a xlink:href="/asn/3356" xlink:title="AS3356 ~ Level 3 Parent, LLC [US]">
<ellipse fill="#ffffff" stroke="black" cx="291.681" cy="-342" rx="39.7935" ry="18"/>
<text text-anchor="middle" x="291.681" y="-338.3" font-family="Times,serif" font-size="14.00" fill="#2c94b3">AS3356</text>
</a>
</g>
</g>
<!-- AS1764&#45;&gt;AS3356 -->
<g id="edge6" class="edge"><title>AS1764&#45;&gt;AS3356</title>
<path fill="none" stroke="black" stroke-width="4.5" d="M200.467,-383.339C216.424,-376.027 236.694,-366.739 253.977,-358.819"/>
<polygon fill="black" stroke="black" stroke-width="4.5" points="255.774,-362.327 263.225,-354.581 252.493,-355.168 255.774,-362.327"/>
</g>
<!-- AS8218 -->
<g id="node8" class="node"><title>AS8218</title>
<g id="a_node8"><a xlink:href="/asn/8218" xlink:title="AS8218 ~ legacy Neotelecoms [FR]">
<ellipse fill="#ffffff" stroke="black" cx="291.681" cy="-261" rx="39.7935" ry="18"/>
<text text-anchor="middle" x="291.681" y="-257.3" font-family="Times,serif" font-size="14.00" fill="#2c94b3">AS8218</text>
</a>
</g>
</g>
<!-- AS1764&#45;&gt;AS8218 -->
<g id="edge7" class="edge"><title>AS1764&#45;&gt;AS8218</title>
<path fill="none" stroke="black" stroke-width="1.28571" d="M187.525,-379.175C208.101,-355.603 245.639,-312.6 269.312,-285.48"/>
<polygon fill="black" stroke="black" stroke-width="1.28571" points="272.24,-287.448 276.179,-277.613 266.966,-282.845 272.24,-287.448"/>
</g>
<!-- AS3320 -->
<g id="node9" class="node"><title>AS3320</title>
<g id="a_node9"><a xlink:href="/asn/3320" xlink:title="AS3320 ~ DTAG [DE]">
<ellipse fill="#ffffff" stroke="black" cx="291.681" cy="-153" rx="39.7935" ry="18"/>
<text text-anchor="middle" x="291.681" y="-149.3" font-family="Times,serif" font-size="14.00" fill="#2c94b3">AS3320</text>
</a>
</g>
</g>
<!-- AS1764&#45;&gt;AS3320 -->
<g id="edge8" class="edge"><title>AS1764&#45;&gt;AS3320</title>
<path fill="none" stroke="black" stroke-width="3.21429" d="M180.571,-378.342C193.772,-348.4 221.732,-285.867 247.484,-234 256.582,-215.677 267.416,-195.365 275.958,-179.664"/>
<polygon fill="black" stroke="black" stroke-width="3.21429" points="279.219,-180.997 280.945,-170.544 273.077,-177.639 279.219,-180.997"/>
</g>
<!-- AS1299 -->
<g id="node10" class="node"><title>AS1299</title>
<g id="a_node10"><a xlink:href="/asn/1299" xlink:title="AS1299 ~ Telia Carrier [EU]">
<ellipse fill="#ffffff" stroke="black" cx="291.681" cy="-396" rx="39.7935" ry="18"/>
<text text-anchor="middle" x="291.681" y="-392.3" font-family="Times,serif" font-size="14.00" fill="#2c94b3">AS1299</text>
</a>
</g>
</g>
<!-- AS1764&#45;&gt;AS1299 -->
<g id="edge9" class="edge"><title>AS1764&#45;&gt;AS1299</title>
<path fill="none" stroke="black" stroke-width="3.21429" d="M211.751,-396C221.304,-396 231.654,-396 241.616,-396"/>
<polygon fill="black" stroke="black" stroke-width="3.21429" points="241.809,-399.5 251.809,-396 241.809,-392.5 241.809,-399.5"/>
</g>
<!-- AS6939 -->
<g id="node11" class="node"><title>AS6939</title>
<g id="a_node11"><a xlink:href="/asn/6939" xlink:title="AS6939 ~ Hurricane Electric LLC [US]">
<ellipse fill="#ffffff" stroke="black" cx="291.681" cy="-612" rx="39.7935" ry="18"/>
<text text-anchor="middle" x="291.681" y="-608.3" font-family="Times,serif" font-size="14.00" fill="#2c94b3">AS6939</text>
</a>
</g>
</g>
<!-- AS1764&#45;&gt;AS6939 -->
<g id="edge10" class="edge"><title>AS1764&#45;&gt;AS6939</title>
<path fill="none" stroke="black" stroke-width="1.92857" d="M176.037,-414.073C183.2,-450.141 203.474,-532.125 247.484,-585 249.889,-587.889 252.686,-590.563 255.678,-593.013"/>
<polygon fill="black" stroke="black" stroke-width="1.92857" points="253.766,-595.95 263.921,-598.973 257.868,-590.277 253.766,-595.95"/>
</g>
<!-- AS25255 -->
<g id="node22" class="node"><title>AS25255</title>
<g id="a_node22"><a xlink:href="/asn/25255" xlink:title="AS25255 ~ ==&gt; TELE2 AUSTRIA &lt;== [AT]">
<ellipse fill="#ffffff" stroke="black" cx="291.681" cy="-59" rx="44.393" ry="18"/>
<text text-anchor="middle" x="291.681" y="-55.3" font-family="Times,serif" font-size="14.00" fill="#2c94b3">AS25255</text>
</a>
</g>
</g>
<!-- AS8437&#45;&gt;AS25255 -->
<g id="edge26" class="edge"><title>AS8437&#45;&gt;AS25255</title>
<path fill="none" stroke="black" d="M193.906,-127.982C212.525,-114.71 239.89,-95.204 260.775,-80.3174"/>
<polygon fill="black" stroke="black" points="262.886,-83.1104 268.998,-74.4558 258.823,-77.4103 262.886,-83.1104"/>
</g>
<!-- AS3491 -->
<g id="node12" class="node"><title>AS3491</title>
<g id="a_node12"><a xlink:href="/asn/3491" xlink:title="AS3491 ~ PCCW Global, Inc. [US]">
<ellipse fill="#ffffff" stroke="black" cx="416.073" cy="-558" rx="39.7935" ry="18"/>
<text text-anchor="middle" x="416.073" y="-554.3" font-family="Times,serif" font-size="14.00" fill="#2c94b3">AS3491</text>
</a>
</g>
</g>
<!-- AS174&#45;&gt;AS3491 -->
<g id="edge24" class="edge"><title>AS174&#45;&gt;AS3491</title>
<path fill="none" stroke="black" d="M316.86,-462.617C323.444,-466.694 330.293,-471.578 335.877,-477 356.57,-497.094 351.183,-510.906 371.877,-531 374.722,-533.763 377.896,-536.386 381.196,-538.834"/>
<polygon fill="black" stroke="black" points="379.312,-541.786 389.544,-544.538 383.261,-536.006 379.312,-541.786"/>
</g>
<!-- AS209 -->
<g id="node21" class="node"><title>AS209</title>
<g id="a_node21"><a xlink:href="/asn/209" xlink:title="AS209 ~ CenturyLink Communications, LLC [US]">
<ellipse fill="#ffffff" stroke="black" cx="416.073" cy="-450" rx="35.194" ry="18"/>
<text text-anchor="middle" x="416.073" y="-446.3" font-family="Times,serif" font-size="14.00" fill="#2c94b3">AS209</text>
</a>
</g>
</g>
<!-- AS174&#45;&gt;AS209 -->
<g id="edge25" class="edge"><title>AS174&#45;&gt;AS209</title>
<path fill="none" stroke="black" d="M327.099,-450C340.64,-450 356.36,-450 370.734,-450"/>
<polygon fill="black" stroke="black" points="370.912,-453.5 380.912,-450 370.912,-446.5 370.912,-453.5"/>
</g>
<!-- AS3257&#45;&gt;AS3491 -->
<g id="edge11" class="edge"><title>AS3257&#45;&gt;AS3491</title>
<path fill="none" stroke="black" d="M331.406,-558C342.344,-558 354.395,-558 365.861,-558"/>
<polygon fill="black" stroke="black" points="366.179,-561.5 376.179,-558 366.179,-554.5 366.179,-561.5"/>
</g>
<!-- AS2497 -->
<g id="node13" class="node"><title>AS2497</title>
<g id="a_node13"><a xlink:href="/asn/2497" xlink:title="AS2497 ~ Internet Initiative Japan Inc. [JP]">
<ellipse fill="#ffffff" stroke="black" cx="416.073" cy="-504" rx="39.7935" ry="18"/>
<text text-anchor="middle" x="416.073" y="-500.3" font-family="Times,serif" font-size="14.00" fill="#2c94b3">AS2497</text>
</a>
</g>
</g>
<!-- AS3257&#45;&gt;AS2497 -->
<g id="edge12" class="edge"><title>AS3257&#45;&gt;AS2497</title>
<path fill="none" stroke="black" stroke-width="2" d="M320.76,-545.611C337.708,-538.134 359.505,-528.517 377.874,-520.412"/>
<polygon fill="black" stroke="black" stroke-width="2" points="379.388,-523.57 387.124,-516.331 376.562,-517.166 379.388,-523.57"/>
</g>
<!-- AS2914&#45;&gt;AS2497 -->
<g id="edge18" class="edge"><title>AS2914&#45;&gt;AS2497</title>
<path fill="none" stroke="black" d="M331.406,-504C342.344,-504 354.395,-504 365.861,-504"/>
<polygon fill="black" stroke="black" points="366.179,-507.5 376.179,-504 366.179,-500.5 366.179,-507.5"/>
</g>
<!-- AS3356&#45;&gt;AS2497 -->
<g id="edge15" class="edge"><title>AS3356&#45;&gt;AS2497</title>
<path fill="none" stroke="black" stroke-width="2" d="M319.652,-354.855C325.64,-358.72 331.5,-363.441 335.877,-369 367.175,-408.754 340.578,-437.246 371.877,-477 374.202,-479.953 376.945,-482.67 379.904,-485.147"/>
<polygon fill="black" stroke="black" stroke-width="2" points="377.964,-488.064 388.101,-491.145 382.097,-482.415 377.964,-488.064"/>
</g>
<!-- AS6453 -->
<g id="node14" class="node"><title>AS6453</title>
<g id="a_node14"><a xlink:href="/asn/6453" xlink:title="AS6453 ~ TATA COMMUNICATIONS (AMERICA) INC [US]">
<ellipse fill="#ffffff" stroke="black" cx="416.073" cy="-234" rx="39.7935" ry="18"/>
<text text-anchor="middle" x="416.073" y="-230.3" font-family="Times,serif" font-size="14.00" fill="#2c94b3">AS6453</text>
</a>
</g>
</g>
<!-- AS3356&#45;&gt;AS6453 -->
<g id="edge13" class="edge"><title>AS3356&#45;&gt;AS6453</title>
<path fill="none" stroke="black" d="M306.833,-325.337C321.934,-308.106 347.055,-280.976 371.877,-261 375.132,-258.38 378.657,-255.808 382.242,-253.354"/>
<polygon fill="black" stroke="black" points="384.16,-256.281 390.614,-247.879 380.329,-250.423 384.16,-256.281"/>
</g>
<!-- AS12956 -->
<g id="node15" class="node"><title>AS12956</title>
<g id="a_node15"><a xlink:href="/asn/12956" xlink:title="AS12956 ~ TELXIUS [ES]">
<ellipse fill="#ffffff" stroke="black" cx="416.073" cy="-342" rx="44.393" ry="18"/>
<text text-anchor="middle" x="416.073" y="-338.3" font-family="Times,serif" font-size="14.00" fill="#2c94b3">AS12956</text>
</a>
</g>
</g>
<!-- AS3356&#45;&gt;AS12956 -->
<g id="edge14" class="edge"><title>AS3356&#45;&gt;AS12956</title>
<path fill="none" stroke="black" d="M331.406,-342C340.866,-342 351.158,-342 361.184,-342"/>
<polygon fill="black" stroke="black" points="361.491,-345.5 371.491,-342 361.491,-338.5 361.491,-345.5"/>
</g>
<!-- AS3549 -->
<g id="node16" class="node"><title>AS3549</title>
<g id="a_node16"><a xlink:href="/asn/3549" xlink:title="AS3549 ~ Level 3 Parent, LLC [US]">
<ellipse fill="#ffffff" stroke="black" cx="416.073" cy="-288" rx="39.7935" ry="18"/>
<text text-anchor="middle" x="416.073" y="-284.3" font-family="Times,serif" font-size="14.00" fill="#2c94b3">AS3549</text>
</a>
</g>
</g>
<!-- AS3356&#45;&gt;AS3549 -->
<g id="edge16" class="edge"><title>AS3356&#45;&gt;AS3549</title>
<path fill="none" stroke="black" d="M320.76,-329.611C337.708,-322.134 359.505,-312.517 377.874,-304.412"/>
<polygon fill="black" stroke="black" points="379.388,-307.57 387.124,-300.331 376.562,-301.166 379.388,-307.57"/>
</g>
<!-- AS6461 -->
<g id="node17" class="node"><title>AS6461</title>
<g id="a_node17"><a xlink:href="/asn/6461" xlink:title="AS6461 ~ Zayo Bandwidth [US]">
<ellipse fill="#ffffff" stroke="black" cx="416.073" cy="-180" rx="39.7935" ry="18"/>
<text text-anchor="middle" x="416.073" y="-176.3" font-family="Times,serif" font-size="14.00" fill="#2c94b3">AS6461</text>
</a>
</g>
</g>
<!-- AS8218&#45;&gt;AS6461 -->
<g id="edge17" class="edge"><title>AS8218&#45;&gt;AS6461</title>
<path fill="none" stroke="black" stroke-width="2" d="M314.038,-246.099C329.889,-235.123 352.092,-219.921 371.877,-207 375.459,-204.661 379.229,-202.241 382.989,-199.856"/>
<polygon fill="black" stroke="black" stroke-width="2" points="385.052,-202.693 391.65,-194.404 381.323,-196.769 385.052,-202.693"/>
</g>
<!-- AS3320&#45;&gt;AS6453 -->
<g id="edge21" class="edge"><title>AS3320&#45;&gt;AS6453</title>
<path fill="none" stroke="black" d="M314.038,-167.901C329.889,-178.877 352.092,-194.079 371.877,-207 375.459,-209.339 379.229,-211.759 382.989,-214.144"/>
<polygon fill="black" stroke="black" points="381.323,-217.231 391.65,-219.596 385.052,-211.307 381.323,-217.231"/>
</g>
<!-- AS1239 -->
<g id="node18" class="node"><title>AS1239</title>
<g id="a_node18"><a xlink:href="/asn/1239" xlink:title="AS1239 ~ Sprint [US]">
<ellipse fill="#ffffff" stroke="black" cx="416.073" cy="-72" rx="39.7935" ry="18"/>
<text text-anchor="middle" x="416.073" y="-68.3" font-family="Times,serif" font-size="14.00" fill="#2c94b3">AS1239</text>
</a>
</g>
</g>
<!-- AS3320&#45;&gt;AS1239 -->
<g id="edge19" class="edge"><title>AS3320&#45;&gt;AS1239</title>
<path fill="none" stroke="black" d="M314.038,-138.099C329.889,-127.123 352.092,-111.921 371.877,-99 375.459,-96.6607 379.229,-94.2413 382.989,-91.8558"/>
<polygon fill="black" stroke="black" points="385.052,-94.6934 391.65,-86.4042 381.323,-88.7692 385.052,-94.6934"/>
</g>
<!-- AS701 -->
<g id="node19" class="node"><title>AS701</title>
<g id="a_node19"><a xlink:href="/asn/701" xlink:title="AS701 ~ UUNET [US]">
<ellipse fill="#ffffff" stroke="black" cx="416.073" cy="-126" rx="35.194" ry="18"/>
<text text-anchor="middle" x="416.073" y="-122.3" font-family="Times,serif" font-size="14.00" fill="#2c94b3">AS701</text>
</a>
</g>
</g>
<!-- AS3320&#45;&gt;AS701 -->
<g id="edge20" class="edge"><title>AS3320&#45;&gt;AS701</title>
<path fill="none" stroke="black" stroke-width="2" d="M327.753,-145.263C341.987,-142.123 358.541,-138.471 373.386,-135.196"/>
<polygon fill="black" stroke="black" stroke-width="2" points="374.329,-138.572 383.34,-133 372.82,-131.737 374.329,-138.572"/>
</g>
<!-- AS7018 -->
<g id="node20" class="node"><title>AS7018</title>
<g id="a_node20"><a xlink:href="/asn/7018" xlink:title="AS7018 ~ AT&amp;T Services, Inc. [US]">
<ellipse fill="#ffffff" stroke="black" cx="416.073" cy="-396" rx="39.7935" ry="18"/>
<text text-anchor="middle" x="416.073" y="-392.3" font-family="Times,serif" font-size="14.00" fill="#2c94b3">AS7018</text>
</a>
</g>
</g>
<!-- AS1299&#45;&gt;AS7018 -->
<g id="edge22" class="edge"><title>AS1299&#45;&gt;AS7018</title>
<path fill="none" stroke="black" stroke-width="2" d="M331.406,-396C342.344,-396 354.395,-396 365.861,-396"/>
<polygon fill="black" stroke="black" stroke-width="2" points="366.179,-399.5 376.179,-396 366.179,-392.5 366.179,-399.5"/>
</g>
<!-- AS1299&#45;&gt;AS209 -->
<g id="edge23" class="edge"><title>AS1299&#45;&gt;AS209</title>
<path fill="none" stroke="black" d="M320.76,-408.389C338.188,-416.078 360.746,-426.031 379.429,-434.274"/>
<polygon fill="black" stroke="black" points="378.237,-437.573 388.799,-438.408 381.063,-431.169 378.237,-437.573"/>
</g>
<!-- AS6939&#45;&gt;AS3491 -->
<g id="edge30" class="edge"><title>AS6939&#45;&gt;AS3491</title>
<path fill="none" stroke="black" d="M320.76,-599.611C337.708,-592.134 359.505,-582.517 377.874,-574.412"/>
<polygon fill="black" stroke="black" points="379.388,-577.57 387.124,-570.331 376.562,-571.166 379.388,-577.57"/>
</g>
<!-- AS6939&#45;&gt;AS2497 -->
<g id="edge28" class="edge"><title>AS6939&#45;&gt;AS2497</title>
<path fill="none" stroke="black" d="M318.21,-598.538C324.372,-594.638 330.674,-590.052 335.877,-585 356.57,-564.906 351.183,-551.094 371.877,-531 374.722,-528.237 377.896,-525.614 381.196,-523.166"/>
<polygon fill="black" stroke="black" points="383.261,-525.994 389.544,-517.462 379.312,-520.214 383.261,-525.994"/>
</g>
<!-- AS1273 -->
<g id="node24" class="node"><title>AS1273</title>
<g id="a_node24"><a xlink:href="/asn/1273" xlink:title="AS1273 ~ Vodafone Group PLC [EU]">
<ellipse fill="#ffffff" stroke="black" cx="416.073" cy="-612" rx="39.7935" ry="18"/>
<text text-anchor="middle" x="416.073" y="-608.3" font-family="Times,serif" font-size="14.00" fill="#2c94b3">AS1273</text>
</a>
</g>
</g>
<!-- AS6939&#45;&gt;AS1273 -->
<g id="edge29" class="edge"><title>AS6939&#45;&gt;AS1273</title>
<path fill="none" stroke="black" d="M331.406,-612C342.344,-612 354.395,-612 365.861,-612"/>
<polygon fill="black" stroke="black" points="366.179,-615.5 376.179,-612 366.179,-608.5 366.179,-615.5"/>
</g>
<!-- AS6762 -->
<g id="node23" class="node"><title>AS6762</title>
<g id="a_node23"><a xlink:href="/asn/6762" xlink:title="AS6762 ~ TELECOM ITALIA SPARKLE S.p.A. [IT]">
<ellipse fill="#ffffff" stroke="black" cx="416.073" cy="-18" rx="39.7935" ry="18"/>
<text text-anchor="middle" x="416.073" y="-14.3" font-family="Times,serif" font-size="14.00" fill="#2c94b3">AS6762</text>
</a>
</g>
</g>
<!-- AS25255&#45;&gt;AS6762 -->
<g id="edge27" class="edge"><title>AS25255&#45;&gt;AS6762</title>
<path fill="none" stroke="black" d="M326.449,-47.688C341.075,-42.7883 358.338,-37.0055 373.723,-31.8515"/>
<polygon fill="black" stroke="black" points="375.146,-35.0662 383.516,-28.571 372.922,-28.4287 375.146,-35.0662"/>
</g>
</g>
</svg>
