<?xml version="1.0" encoding="UTF-8" standalone="no"?>
<!DOCTYPE svg PUBLIC "-//W3C//DTD SVG 1.1//EN"
 "http://www.w3.org/Graphics/SVG/1.1/DTD/svg11.dtd">
<!-- Generated by graphviz version 2.38.0 (20140413.2041)
 -->
<!-- Title: AS208794 Combined Upstream Graph Pages: 1 -->
<svg width="584pt" height="476pt"
 viewBox="0.00 0.00 583.56 476.00" xmlns="http://www.w3.org/2000/svg" xmlns:xlink="http://www.w3.org/1999/xlink">
<g id="graph0" class="graph" transform="scale(1 1) rotate(0) translate(4 472)">
<title>AS208794 Combined Upstream Graph</title>
<polygon fill="white" stroke="none" points="-4,4 -4,-472 579.562,-472 579.562,4 -4,4"/>
<!-- AS208794 -->
<g id="node1" class="node"><title>AS208794</title>
<g id="a_node1"><a xlink:href="/asn/208794" xlink:title="AS208794 ~ Wolfgang Michael Brandstaetter [AT]">
<ellipse fill="#ffffff" stroke="black" cx="48.0957" cy="-259" rx="48.1917" ry="18"/>
<text text-anchor="middle" x="48.0957" y="-255.3" font-family="Times,serif" font-size="14.00" fill="#880000">AS208794</text>
</a>
</g>
</g>
<!-- AS61438 -->
<g id="node2" class="node"><title>AS61438</title>
<g id="a_node2"><a xlink:href="/asn/61438" xlink:title="AS61438 ~ ip&#45;it consult GmbH [AT]">
<ellipse fill="#ffffff" stroke="black" cx="176.388" cy="-259" rx="44.393" ry="18"/>
<text text-anchor="middle" x="176.388" y="-255.3" font-family="Times,serif" font-size="14.00" fill="#2c94b3">AS61438</text>
</a>
</g>
</g>
<!-- AS208794&#45;&gt;AS61438 -->
<g id="edge1" class="edge"><title>AS208794&#45;&gt;AS61438</title>
<path fill="none" stroke="black" stroke-width="4.5" d="M96.4815,-259C104.742,-259 113.386,-259 121.799,-259"/>
<polygon fill="black" stroke="black" stroke-width="4.5" points="121.904,-262.938 131.904,-259 121.904,-255.063 121.904,-262.938"/>
</g>
<!-- AS33891 -->
<g id="node3" class="node"><title>AS33891</title>
<g id="a_node3"><a xlink:href="/asn/33891" xlink:title="AS33891 ~ CORE&#45;BACKBONE GMBH GLOBAL NETWORK [DE]">
<ellipse fill="#ffffff" stroke="black" cx="300.78" cy="-234" rx="44.393" ry="18"/>
<text text-anchor="middle" x="300.78" y="-230.3" font-family="Times,serif" font-size="14.00" fill="#2c94b3">AS33891</text>
</a>
</g>
</g>
<!-- AS61438&#45;&gt;AS33891 -->
<g id="edge2" class="edge"><title>AS61438&#45;&gt;AS33891</title>
<path fill="none" stroke="black" stroke-width="4.5" d="M216.113,-251.09C227.163,-248.833 239.348,-246.344 250.919,-243.98"/>
<polygon fill="black" stroke="black" stroke-width="4.5" points="251.876,-247.804 260.886,-241.945 250.3,-240.088 251.876,-247.804"/>
</g>
<!-- AS6939 -->
<g id="node4" class="node"><title>AS6939</title>
<g id="a_node4"><a xlink:href="/asn/6939" xlink:title="AS6939 ~ Hurricane Electric LLC [US]">
<ellipse fill="#ffffff" stroke="black" cx="420.622" cy="-288" rx="39.7935" ry="18"/>
<text text-anchor="middle" x="420.622" y="-284.3" font-family="Times,serif" font-size="14.00" fill="#2c94b3">AS6939</text>
</a>
</g>
</g>
<!-- AS61438&#45;&gt;AS6939 -->
<g id="edge3" class="edge"><title>AS61438&#45;&gt;AS6939</title>
<path fill="none" stroke="black" stroke-width="0.857143" d="M219.029,-263.985C261.572,-269.078 327.537,-276.976 372.098,-282.31"/>
<polygon fill="black" stroke="black" stroke-width="0.857143" points="371.755,-285.794 382.1,-283.508 372.587,-278.844 371.755,-285.794"/>
</g>
<!-- AS3356 -->
<g id="node5" class="node"><title>AS3356</title>
<g id="a_node5"><a xlink:href="/asn/3356" xlink:title="AS3356 ~ Level 3 Parent, LLC [US]">
<ellipse fill="#ffffff" stroke="black" cx="420.622" cy="-126" rx="39.7935" ry="18"/>
<text text-anchor="middle" x="420.622" y="-122.3" font-family="Times,serif" font-size="14.00" fill="#2c94b3">AS3356</text>
</a>
</g>
</g>
<!-- AS33891&#45;&gt;AS3356 -->
<g id="edge4" class="edge"><title>AS33891&#45;&gt;AS3356</title>
<path fill="none" stroke="black" stroke-width="4.5" d="M316.712,-216.956C332.038,-199.903 356.974,-173.35 380.976,-153 383.473,-150.883 386.133,-148.768 388.845,-146.707"/>
<polygon fill="black" stroke="black" stroke-width="4.5" points="391.269,-149.812 397.021,-140.734 386.623,-143.453 391.269,-149.812"/>
</g>
<!-- AS1299 -->
<g id="node6" class="node"><title>AS1299</title>
<g id="a_node6"><a xlink:href="/asn/1299" xlink:title="AS1299 ~ Telia Carrier [EU]">
<ellipse fill="#ffffff" stroke="black" cx="420.622" cy="-342" rx="39.7935" ry="18"/>
<text text-anchor="middle" x="420.622" y="-338.3" font-family="Times,serif" font-size="14.00" fill="#2c94b3">AS1299</text>
</a>
</g>
</g>
<!-- AS33891&#45;&gt;AS1299 -->
<g id="edge5" class="edge"><title>AS33891&#45;&gt;AS1299</title>
<path fill="none" stroke="black" stroke-width="4.05" d="M316.712,-251.044C332.038,-268.097 356.974,-294.65 380.976,-315 383.473,-317.117 386.133,-319.232 388.845,-321.293"/>
<polygon fill="black" stroke="black" stroke-width="4.05" points="386.856,-324.229 397.021,-327.266 391.037,-318.506 386.856,-324.229"/>
</g>
<!-- AS6461 -->
<g id="node7" class="node"><title>AS6461</title>
<g id="a_node7"><a xlink:href="/asn/6461" xlink:title="AS6461 ~ Zayo Bandwidth [US]">
<ellipse fill="#ffffff" stroke="black" cx="420.622" cy="-234" rx="39.7935" ry="18"/>
<text text-anchor="middle" x="420.622" y="-230.3" font-family="Times,serif" font-size="14.00" fill="#2c94b3">AS6461</text>
</a>
</g>
</g>
<!-- AS33891&#45;&gt;AS6461 -->
<g id="edge6" class="edge"><title>AS33891&#45;&gt;AS6461</title>
<path fill="none" stroke="black" stroke-width="0.45" d="M344.991,-234C353.303,-234 362.066,-234 370.548,-234"/>
<polygon fill="black" stroke="black" stroke-width="0.45" points="370.707,-237.5 380.707,-234 370.707,-230.5 370.707,-237.5"/>
</g>
<!-- AS3257 -->
<g id="node8" class="node"><title>AS3257</title>
<g id="a_node8"><a xlink:href="/asn/3257" xlink:title="AS3257 ~ GTT [DE]">
<ellipse fill="#ffffff" stroke="black" cx="420.622" cy="-180" rx="39.7935" ry="18"/>
<text text-anchor="middle" x="420.622" y="-176.3" font-family="Times,serif" font-size="14.00" fill="#2c94b3">AS3257</text>
</a>
</g>
</g>
<!-- AS33891&#45;&gt;AS3257 -->
<g id="edge7" class="edge"><title>AS33891&#45;&gt;AS3257</title>
<path fill="none" stroke="black" stroke-width="0.45" d="M330.909,-220.652C346.521,-213.498 365.918,-204.609 382.59,-196.97"/>
<polygon fill="black" stroke="black" stroke-width="0.45" points="384.409,-199.986 392.042,-192.638 381.493,-193.622 384.409,-199.986"/>
</g>
<!-- AS6762 -->
<g id="node9" class="node"><title>AS6762</title>
<g id="a_node9"><a xlink:href="/asn/6762" xlink:title="AS6762 ~ TELECOM ITALIA SPARKLE S.p.A. [IT]">
<ellipse fill="#ffffff" stroke="black" cx="535.915" cy="-342" rx="39.7935" ry="18"/>
<text text-anchor="middle" x="535.915" y="-338.3" font-family="Times,serif" font-size="14.00" fill="#2c94b3">AS6762</text>
</a>
</g>
</g>
<!-- AS6939&#45;&gt;AS6762 -->
<g id="edge23" class="edge"><title>AS6939&#45;&gt;AS6762</title>
<path fill="none" stroke="black" d="M448.759,-300.934C463.753,-308.081 482.574,-317.052 498.797,-324.785"/>
<polygon fill="black" stroke="black" points="497.467,-328.028 508,-329.171 500.479,-321.709 497.467,-328.028"/>
</g>
<!-- AS2914 -->
<g id="node11" class="node"><title>AS2914</title>
<g id="a_node11"><a xlink:href="/asn/2914" xlink:title="AS2914 ~ NTT America, Inc. [US]">
<ellipse fill="#ffffff" stroke="black" cx="535.915" cy="-288" rx="39.7935" ry="18"/>
<text text-anchor="middle" x="535.915" y="-284.3" font-family="Times,serif" font-size="14.00" fill="#2c94b3">AS2914</text>
</a>
</g>
</g>
<!-- AS6939&#45;&gt;AS2914 -->
<g id="edge21" class="edge"><title>AS6939&#45;&gt;AS2914</title>
<path fill="none" stroke="black" d="M460.294,-288C468.497,-288 477.261,-288 485.794,-288"/>
<polygon fill="black" stroke="black" points="486.033,-291.5 496.033,-288 486.033,-284.5 486.033,-291.5"/>
</g>
<!-- AS701 -->
<g id="node12" class="node"><title>AS701</title>
<g id="a_node12"><a xlink:href="/asn/701" xlink:title="AS701 ~ UUNET [US]">
<ellipse fill="#ffffff" stroke="black" cx="535.915" cy="-180" rx="35.194" ry="18"/>
<text text-anchor="middle" x="535.915" y="-176.3" font-family="Times,serif" font-size="14.00" fill="#2c94b3">AS701</text>
</a>
</g>
</g>
<!-- AS6939&#45;&gt;AS701 -->
<g id="edge20" class="edge"><title>AS6939&#45;&gt;AS701</title>
<path fill="none" stroke="black" d="M445.216,-273.611C450.472,-269.852 455.804,-265.563 460.269,-261 480.441,-240.383 476.096,-227.617 496.269,-207 498.748,-204.466 501.495,-202.017 504.347,-199.696"/>
<polygon fill="black" stroke="black" points="506.65,-202.343 512.532,-193.532 502.439,-196.752 506.65,-202.343"/>
</g>
<!-- AS2497 -->
<g id="node14" class="node"><title>AS2497</title>
<g id="a_node14"><a xlink:href="/asn/2497" xlink:title="AS2497 ~ Internet Initiative Japan Inc. [JP]">
<ellipse fill="#ffffff" stroke="black" cx="535.915" cy="-126" rx="39.7935" ry="18"/>
<text text-anchor="middle" x="535.915" y="-122.3" font-family="Times,serif" font-size="14.00" fill="#2c94b3">AS2497</text>
</a>
</g>
</g>
<!-- AS6939&#45;&gt;AS2497 -->
<g id="edge22" class="edge"><title>AS6939&#45;&gt;AS2497</title>
<path fill="none" stroke="black" d="M446.553,-274.118C451.629,-270.389 456.547,-265.984 460.269,-261 490.54,-220.458 465.997,-193.542 496.269,-153 498.013,-150.664 500.021,-148.455 502.184,-146.383"/>
<polygon fill="black" stroke="black" points="504.543,-148.973 509.984,-139.882 500.062,-143.595 504.543,-148.973"/>
</g>
<!-- AS3356&#45;&gt;AS6762 -->
<g id="edge8" class="edge"><title>AS3356&#45;&gt;AS6762</title>
<path fill="none" stroke="black" d="M446.941,-139.607C451.997,-143.351 456.809,-147.831 460.269,-153 501.293,-214.294 455.244,-253.706 496.269,-315 497.891,-317.423 499.809,-319.695 501.911,-321.81"/>
<polygon fill="black" stroke="black" points="499.725,-324.546 509.596,-328.393 504.278,-319.229 499.725,-324.546"/>
</g>
<!-- AS209 -->
<g id="node10" class="node"><title>AS209</title>
<g id="a_node10"><a xlink:href="/asn/209" xlink:title="AS209 ~ CenturyLink Communications, LLC [US]">
<ellipse fill="#ffffff" stroke="black" cx="535.915" cy="-72" rx="35.194" ry="18"/>
<text text-anchor="middle" x="535.915" y="-68.3" font-family="Times,serif" font-size="14.00" fill="#2c94b3">AS209</text>
</a>
</g>
</g>
<!-- AS3356&#45;&gt;AS209 -->
<g id="edge9" class="edge"><title>AS3356&#45;&gt;AS209</title>
<path fill="none" stroke="black" stroke-width="2" d="M448.759,-113.066C464.19,-105.71 483.676,-96.4227 500.211,-88.5414"/>
<polygon fill="black" stroke="black" stroke-width="2" points="502.032,-91.5509 509.553,-84.0887 499.02,-85.2319 502.032,-91.5509"/>
</g>
<!-- AS3356&#45;&gt;AS2914 -->
<g id="edge10" class="edge"><title>AS3356&#45;&gt;AS2914</title>
<path fill="none" stroke="black" d="M446.553,-139.882C451.629,-143.611 456.547,-148.016 460.269,-153 490.54,-193.542 465.997,-220.458 496.269,-261 498.013,-263.336 500.021,-265.545 502.184,-267.617"/>
<polygon fill="black" stroke="black" points="500.062,-270.405 509.984,-274.118 504.543,-265.027 500.062,-270.405"/>
</g>
<!-- AS3356&#45;&gt;AS701 -->
<g id="edge11" class="edge"><title>AS3356&#45;&gt;AS701</title>
<path fill="none" stroke="black" d="M448.759,-138.934C464.19,-146.29 483.676,-155.577 500.211,-163.459"/>
<polygon fill="black" stroke="black" points="499.02,-166.768 509.553,-167.911 502.032,-160.449 499.02,-166.768"/>
</g>
<!-- AS174 -->
<g id="node13" class="node"><title>AS174</title>
<g id="a_node13"><a xlink:href="/asn/174" xlink:title="AS174 ~ Cogent Communications [US]">
<ellipse fill="#ffffff" stroke="black" cx="535.915" cy="-234" rx="35.194" ry="18"/>
<text text-anchor="middle" x="535.915" y="-230.3" font-family="Times,serif" font-size="14.00" fill="#2c94b3">AS174</text>
</a>
</g>
</g>
<!-- AS3356&#45;&gt;AS174 -->
<g id="edge12" class="edge"><title>AS3356&#45;&gt;AS174</title>
<path fill="none" stroke="black" stroke-width="2" d="M445.216,-140.389C450.472,-144.148 455.804,-148.437 460.269,-153 480.441,-173.617 476.096,-186.383 496.269,-207 498.748,-209.534 501.495,-211.983 504.347,-214.304"/>
<polygon fill="black" stroke="black" stroke-width="2" points="502.439,-217.248 512.532,-220.468 506.65,-211.657 502.439,-217.248"/>
</g>
<!-- AS3356&#45;&gt;AS2497 -->
<g id="edge13" class="edge"><title>AS3356&#45;&gt;AS2497</title>
<path fill="none" stroke="black" d="M460.294,-126C468.497,-126 477.261,-126 485.794,-126"/>
<polygon fill="black" stroke="black" points="486.033,-129.5 496.033,-126 486.033,-122.5 486.033,-129.5"/>
</g>
<!-- AS3549 -->
<g id="node15" class="node"><title>AS3549</title>
<g id="a_node15"><a xlink:href="/asn/3549" xlink:title="AS3549 ~ Level 3 Parent, LLC [US]">
<ellipse fill="#ffffff" stroke="black" cx="535.915" cy="-18" rx="39.7935" ry="18"/>
<text text-anchor="middle" x="535.915" y="-14.3" font-family="Times,serif" font-size="14.00" fill="#2c94b3">AS3549</text>
</a>
</g>
</g>
<!-- AS3356&#45;&gt;AS3549 -->
<g id="edge14" class="edge"><title>AS3356&#45;&gt;AS3549</title>
<path fill="none" stroke="black" d="M435.252,-109.183C449.535,-92.0706 473.081,-65.2553 496.269,-45 498.734,-42.8462 501.373,-40.7062 504.07,-38.6284"/>
<polygon fill="black" stroke="black" points="506.244,-41.3749 512.225,-32.6297 502.095,-35.7363 506.244,-41.3749"/>
</g>
<!-- AS1299&#45;&gt;AS6762 -->
<g id="edge19" class="edge"><title>AS1299&#45;&gt;AS6762</title>
<path fill="none" stroke="black" d="M460.294,-342C468.497,-342 477.261,-342 485.794,-342"/>
<polygon fill="black" stroke="black" points="486.033,-345.5 496.033,-342 486.033,-338.5 486.033,-345.5"/>
</g>
<!-- AS1299&#45;&gt;AS2914 -->
<g id="edge18" class="edge"><title>AS1299&#45;&gt;AS2914</title>
<path fill="none" stroke="black" d="M448.759,-329.066C463.753,-321.919 482.574,-312.948 498.797,-305.215"/>
<polygon fill="black" stroke="black" points="500.479,-308.291 508,-300.829 497.467,-301.972 500.479,-308.291"/>
</g>
<!-- AS1299&#45;&gt;AS174 -->
<g id="edge17" class="edge"><title>AS1299&#45;&gt;AS174</title>
<path fill="none" stroke="black" stroke-width="2" d="M445.216,-327.611C450.472,-323.852 455.804,-319.563 460.269,-315 480.441,-294.383 476.096,-281.617 496.269,-261 498.748,-258.466 501.495,-256.017 504.347,-253.696"/>
<polygon fill="black" stroke="black" stroke-width="2" points="506.65,-256.343 512.532,-247.532 502.439,-250.752 506.65,-256.343"/>
</g>
<!-- AS1239 -->
<g id="node16" class="node"><title>AS1239</title>
<g id="a_node16"><a xlink:href="/asn/1239" xlink:title="AS1239 ~ Sprint [US]">
<ellipse fill="#ffffff" stroke="black" cx="535.915" cy="-450" rx="39.7935" ry="18"/>
<text text-anchor="middle" x="535.915" y="-446.3" font-family="Times,serif" font-size="14.00" fill="#2c94b3">AS1239</text>
</a>
</g>
</g>
<!-- AS1299&#45;&gt;AS1239 -->
<g id="edge15" class="edge"><title>AS1299&#45;&gt;AS1239</title>
<path fill="none" stroke="black" d="M435.252,-358.817C449.535,-375.929 473.081,-402.745 496.269,-423 498.734,-425.154 501.373,-427.294 504.07,-429.372"/>
<polygon fill="black" stroke="black" points="502.095,-432.264 512.225,-435.37 506.244,-426.625 502.095,-432.264"/>
</g>
<!-- AS7018 -->
<g id="node17" class="node"><title>AS7018</title>
<g id="a_node17"><a xlink:href="/asn/7018" xlink:title="AS7018 ~ AT&amp;T Services, Inc. [US]">
<ellipse fill="#ffffff" stroke="black" cx="535.915" cy="-396" rx="39.7935" ry="18"/>
<text text-anchor="middle" x="535.915" y="-392.3" font-family="Times,serif" font-size="14.00" fill="#2c94b3">AS7018</text>
</a>
</g>
</g>
<!-- AS1299&#45;&gt;AS7018 -->
<g id="edge16" class="edge"><title>AS1299&#45;&gt;AS7018</title>
<path fill="none" stroke="black" stroke-width="2" d="M448.759,-354.934C463.753,-362.081 482.574,-371.052 498.797,-378.785"/>
<polygon fill="black" stroke="black" stroke-width="2" points="497.467,-382.028 508,-383.171 500.479,-375.709 497.467,-382.028"/>
</g>
</g>
</svg>
