<?xml version="1.0" encoding="UTF-8" standalone="no"?>
<!DOCTYPE svg PUBLIC "-//W3C//DTD SVG 1.1//EN"
 "http://www.w3.org/Graphics/SVG/1.1/DTD/svg11.dtd">
<!-- Generated by graphviz version 2.38.0 (20140413.2041)
 -->
<!-- Title: AS47364 IPv4 Upstream Graph Pages: 1 -->
<svg width="451pt" height="503pt"
 viewBox="0.00 0.00 451.37 503.00" xmlns="http://www.w3.org/2000/svg" xmlns:xlink="http://www.w3.org/1999/xlink">
<g id="graph0" class="graph" transform="scale(1 1) rotate(0) translate(4 499)">
<title>AS47364 IPv4 Upstream Graph</title>
<polygon fill="white" stroke="none" points="-4,4 -4,-499 447.37,-499 447.37,4 -4,4"/>
<!-- AS47364 -->
<g id="node1" class="node"><title>AS47364</title>
<g id="a_node1"><a xlink:href="/asn/47364" xlink:title="AS47364 ~ Plansee Group Service Gmbh [AT]">
<ellipse fill="#ffffff" stroke="black" cx="44.1961" cy="-126" rx="44.393" ry="18"/>
<text text-anchor="middle" x="44.1961" y="-122.3" font-family="Times,serif" font-size="14.00" fill="#880000">AS47364</text>
</a>
</g>
</g>
<!-- AS8447 -->
<g id="node2" class="node"><title>AS8447</title>
<g id="a_node2"><a xlink:href="/asn/8447" xlink:title="AS8447 ~ A1 Telekom Austria AG [AT]">
<ellipse fill="#ffffff" stroke="black" cx="164.039" cy="-180" rx="39.7935" ry="18"/>
<text text-anchor="middle" x="164.039" y="-176.3" font-family="Times,serif" font-size="14.00" fill="#2c94b3">AS8447</text>
</a>
</g>
</g>
<!-- AS47364&#45;&gt;AS8447 -->
<g id="edge1" class="edge"><title>AS47364&#45;&gt;AS8447</title>
<path fill="none" stroke="black" stroke-width="4.5" d="M74.3257,-139.348C89.9369,-146.502 109.335,-155.391 126.007,-163.03"/>
<polygon fill="black" stroke="black" stroke-width="4.5" points="124.727,-166.775 135.459,-167.362 128.008,-159.616 124.727,-166.775"/>
</g>
<!-- AS8767 -->
<g id="node3" class="node"><title>AS8767</title>
<g id="a_node3"><a xlink:href="/asn/8767" xlink:title="AS8767 ~ Germany [DE]">
<ellipse fill="#ffffff" stroke="black" cx="164.039" cy="-72" rx="39.7935" ry="18"/>
<text text-anchor="middle" x="164.039" y="-68.3" font-family="Times,serif" font-size="14.00" fill="#2c94b3">AS8767</text>
</a>
</g>
</g>
<!-- AS47364&#45;&gt;AS8767 -->
<g id="edge2" class="edge"><title>AS47364&#45;&gt;AS8767</title>
<path fill="none" stroke="black" stroke-width="1.03846" d="M74.3257,-112.652C89.9369,-105.498 109.335,-96.6093 126.007,-88.9695"/>
<polygon fill="black" stroke="black" stroke-width="1.03846" points="127.826,-91.986 135.459,-84.6382 124.91,-85.6223 127.826,-91.986"/>
</g>
<!-- AS1299 -->
<g id="node4" class="node"><title>AS1299</title>
<g id="a_node4"><a xlink:href="/asn/1299" xlink:title="AS1299 ~ Telia Carrier [EU]">
<ellipse fill="#ffffff" stroke="black" cx="279.332" cy="-234" rx="39.7935" ry="18"/>
<text text-anchor="middle" x="279.332" y="-230.3" font-family="Times,serif" font-size="14.00" fill="#2c94b3">AS1299</text>
</a>
</g>
</g>
<!-- AS8447&#45;&gt;AS1299 -->
<g id="edge3" class="edge"><title>AS8447&#45;&gt;AS1299</title>
<path fill="none" stroke="black" stroke-width="3.75" d="M192.175,-192.934C207.169,-200.081 225.99,-209.052 242.213,-216.785"/>
<polygon fill="black" stroke="black" stroke-width="3.75" points="240.884,-220.028 251.417,-221.171 243.895,-213.709 240.884,-220.028"/>
</g>
<!-- AS3356 -->
<g id="node5" class="node"><title>AS3356</title>
<g id="a_node5"><a xlink:href="/asn/3356" xlink:title="AS3356 ~ Level 3 Parent, LLC [US]">
<ellipse fill="#ffffff" stroke="black" cx="279.332" cy="-342" rx="39.7935" ry="18"/>
<text text-anchor="middle" x="279.332" y="-338.3" font-family="Times,serif" font-size="14.00" fill="#2c94b3">AS3356</text>
</a>
</g>
</g>
<!-- AS8447&#45;&gt;AS3356 -->
<g id="edge4" class="edge"><title>AS8447&#45;&gt;AS3356</title>
<path fill="none" stroke="black" stroke-width="4.5" d="M176.949,-197.031C196.871,-225.517 237.06,-282.985 260.41,-316.374"/>
<polygon fill="black" stroke="black" stroke-width="4.5" points="257.282,-318.772 266.24,-324.71 263.736,-314.258 257.282,-318.772"/>
</g>
<!-- AS6461 -->
<g id="node6" class="node"><title>AS6461</title>
<g id="a_node6"><a xlink:href="/asn/6461" xlink:title="AS6461 ~ Zayo Bandwidth [US]">
<ellipse fill="#ffffff" stroke="black" cx="279.332" cy="-180" rx="39.7935" ry="18"/>
<text text-anchor="middle" x="279.332" y="-176.3" font-family="Times,serif" font-size="14.00" fill="#2c94b3">AS6461</text>
</a>
</g>
</g>
<!-- AS8447&#45;&gt;AS6461 -->
<g id="edge5" class="edge"><title>AS8447&#45;&gt;AS6461</title>
<path fill="none" stroke="black" stroke-width="0.75" d="M203.711,-180C211.914,-180 220.678,-180 229.21,-180"/>
<polygon fill="black" stroke="black" stroke-width="0.75" points="229.449,-183.5 239.449,-180 229.449,-176.5 229.449,-183.5"/>
</g>
<!-- AS6762 -->
<g id="node7" class="node"><title>AS6762</title>
<g id="a_node7"><a xlink:href="/asn/6762" xlink:title="AS6762 ~ TELECOM ITALIA SPARKLE S.p.A. [IT]">
<ellipse fill="#ffffff" stroke="black" cx="279.332" cy="-126" rx="39.7935" ry="18"/>
<text text-anchor="middle" x="279.332" y="-122.3" font-family="Times,serif" font-size="14.00" fill="#2c94b3">AS6762</text>
</a>
</g>
</g>
<!-- AS8447&#45;&gt;AS6762 -->
<g id="edge6" class="edge"><title>AS8447&#45;&gt;AS6762</title>
<path fill="none" stroke="black" stroke-width="0.75" d="M192.175,-167.066C207.169,-159.919 225.99,-150.948 242.213,-143.215"/>
<polygon fill="black" stroke="black" stroke-width="0.75" points="243.895,-146.291 251.417,-138.829 240.884,-139.972 243.895,-146.291"/>
</g>
<!-- AS174 -->
<g id="node16" class="node"><title>AS174</title>
<g id="a_node16"><a xlink:href="/asn/174" xlink:title="AS174 ~ Cogent Communications [US]">
<ellipse fill="#ffffff" stroke="black" cx="279.332" cy="-72" rx="35.194" ry="18"/>
<text text-anchor="middle" x="279.332" y="-68.3" font-family="Times,serif" font-size="14.00" fill="#2c94b3">AS174</text>
</a>
</g>
</g>
<!-- AS8767&#45;&gt;AS174 -->
<g id="edge16" class="edge"><title>AS8767&#45;&gt;AS174</title>
<path fill="none" stroke="black" stroke-width="2" d="M203.711,-72C213.416,-72 223.907,-72 233.87,-72"/>
<polygon fill="black" stroke="black" stroke-width="2" points="234.006,-75.5001 244.006,-72 234.006,-68.5001 234.006,-75.5001"/>
</g>
<!-- AS2914 -->
<g id="node17" class="node"><title>AS2914</title>
<g id="a_node17"><a xlink:href="/asn/2914" xlink:title="AS2914 ~ NTT America, Inc. [US]">
<ellipse fill="#ffffff" stroke="black" cx="279.332" cy="-18" rx="39.7935" ry="18"/>
<text text-anchor="middle" x="279.332" y="-14.3" font-family="Times,serif" font-size="14.00" fill="#2c94b3">AS2914</text>
</a>
</g>
</g>
<!-- AS8767&#45;&gt;AS2914 -->
<g id="edge17" class="edge"><title>AS8767&#45;&gt;AS2914</title>
<path fill="none" stroke="black" d="M192.175,-59.0657C207.169,-51.9189 225.99,-42.9481 242.213,-35.2154"/>
<polygon fill="black" stroke="black" points="243.895,-38.291 251.417,-30.8288 240.884,-31.972 243.895,-38.291"/>
</g>
<!-- AS3257 -->
<g id="node12" class="node"><title>AS3257</title>
<g id="a_node12"><a xlink:href="/asn/3257" xlink:title="AS3257 ~ GTT [DE]">
<ellipse fill="#ffffff" stroke="black" cx="399.174" cy="-261" rx="39.7935" ry="18"/>
<text text-anchor="middle" x="399.174" y="-257.3" font-family="Times,serif" font-size="14.00" fill="#2c94b3">AS3257</text>
</a>
</g>
</g>
<!-- AS1299&#45;&gt;AS3257 -->
<g id="edge13" class="edge"><title>AS1299&#45;&gt;AS3257</title>
<path fill="none" stroke="black" d="M315.051,-241.955C327.051,-244.704 340.672,-247.825 353.364,-250.733"/>
<polygon fill="black" stroke="black" points="352.767,-254.187 363.296,-253.009 354.33,-247.364 352.767,-254.187"/>
</g>
<!-- AS3491 -->
<g id="node13" class="node"><title>AS3491</title>
<g id="a_node13"><a xlink:href="/asn/3491" xlink:title="AS3491 ~ PCCW Global, Inc. [US]">
<ellipse fill="#ffffff" stroke="black" cx="399.174" cy="-72" rx="39.7935" ry="18"/>
<text text-anchor="middle" x="399.174" y="-68.3" font-family="Times,serif" font-size="14.00" fill="#2c94b3">AS3491</text>
</a>
</g>
</g>
<!-- AS1299&#45;&gt;AS3491 -->
<g id="edge12" class="edge"><title>AS1299&#45;&gt;AS3491</title>
<path fill="none" stroke="black" d="M304.912,-219.844C310.007,-216.128 315.02,-211.799 318.978,-207 344.043,-176.606 334.506,-159.658 354.978,-126 361.188,-115.791 369.098,-105.358 376.449,-96.4178"/>
<polygon fill="black" stroke="black" points="379.206,-98.5777 382.977,-88.6767 373.854,-94.065 379.206,-98.5777"/>
</g>
<!-- AS7018 -->
<g id="node14" class="node"><title>AS7018</title>
<g id="a_node14"><a xlink:href="/asn/7018" xlink:title="AS7018 ~ AT&amp;T Services, Inc. [US]">
<ellipse fill="#ffffff" stroke="black" cx="399.174" cy="-207" rx="39.7935" ry="18"/>
<text text-anchor="middle" x="399.174" y="-203.3" font-family="Times,serif" font-size="14.00" fill="#2c94b3">AS7018</text>
</a>
</g>
</g>
<!-- AS1299&#45;&gt;AS7018 -->
<g id="edge14" class="edge"><title>AS1299&#45;&gt;AS7018</title>
<path fill="none" stroke="black" d="M315.051,-226.045C327.051,-223.296 340.672,-220.175 353.364,-217.267"/>
<polygon fill="black" stroke="black" points="354.33,-220.636 363.296,-214.991 352.767,-213.813 354.33,-220.636"/>
</g>
<!-- AS1239 -->
<g id="node15" class="node"><title>AS1239</title>
<g id="a_node15"><a xlink:href="/asn/1239" xlink:title="AS1239 ~ Sprint [US]">
<ellipse fill="#ffffff" stroke="black" cx="399.174" cy="-153" rx="39.7935" ry="18"/>
<text text-anchor="middle" x="399.174" y="-149.3" font-family="Times,serif" font-size="14.00" fill="#2c94b3">AS1239</text>
</a>
</g>
</g>
<!-- AS1299&#45;&gt;AS1239 -->
<g id="edge15" class="edge"><title>AS1299&#45;&gt;AS1239</title>
<path fill="none" stroke="black" d="M302.089,-218.991C307.623,-215.121 313.542,-210.936 318.978,-207 335.178,-195.271 338.483,-191.311 354.978,-180 358.506,-177.581 362.244,-175.111 365.985,-172.698"/>
<polygon fill="black" stroke="black" points="368.057,-175.528 374.626,-167.216 364.307,-169.618 368.057,-175.528"/>
</g>
<!-- AS12956 -->
<g id="node8" class="node"><title>AS12956</title>
<g id="a_node8"><a xlink:href="/asn/12956" xlink:title="AS12956 ~ TELXIUS [ES]">
<ellipse fill="#ffffff" stroke="black" cx="399.174" cy="-477" rx="44.393" ry="18"/>
<text text-anchor="middle" x="399.174" y="-473.3" font-family="Times,serif" font-size="14.00" fill="#2c94b3">AS12956</text>
</a>
</g>
</g>
<!-- AS3356&#45;&gt;AS12956 -->
<g id="edge7" class="edge"><title>AS3356&#45;&gt;AS12956</title>
<path fill="none" stroke="black" d="M289.573,-359.713C302.118,-382.561 326.295,-422.611 354.978,-450 357.485,-452.393 360.236,-454.687 363.098,-456.855"/>
<polygon fill="black" stroke="black" points="361.145,-459.759 371.349,-462.61 365.15,-454.018 361.145,-459.759"/>
</g>
<!-- AS2497 -->
<g id="node9" class="node"><title>AS2497</title>
<g id="a_node9"><a xlink:href="/asn/2497" xlink:title="AS2497 ~ Internet Initiative Japan Inc. [JP]">
<ellipse fill="#ffffff" stroke="black" cx="399.174" cy="-423" rx="39.7935" ry="18"/>
<text text-anchor="middle" x="399.174" y="-419.3" font-family="Times,serif" font-size="14.00" fill="#2c94b3">AS2497</text>
</a>
</g>
</g>
<!-- AS3356&#45;&gt;AS2497 -->
<g id="edge8" class="edge"><title>AS3356&#45;&gt;AS2497</title>
<path fill="none" stroke="black" d="M300.662,-357.277C315.524,-368.304 336.269,-383.407 354.978,-396 358.527,-398.389 362.277,-400.839 366.026,-403.242"/>
<polygon fill="black" stroke="black" points="364.352,-406.325 374.674,-408.712 368.094,-400.409 364.352,-406.325"/>
</g>
<!-- AS701 -->
<g id="node10" class="node"><title>AS701</title>
<g id="a_node10"><a xlink:href="/asn/701" xlink:title="AS701 ~ UUNET [US]">
<ellipse fill="#ffffff" stroke="black" cx="399.174" cy="-369" rx="35.194" ry="18"/>
<text text-anchor="middle" x="399.174" y="-365.3" font-family="Times,serif" font-size="14.00" fill="#2c94b3">AS701</text>
</a>
</g>
</g>
<!-- AS3356&#45;&gt;AS701 -->
<g id="edge9" class="edge"><title>AS3356&#45;&gt;AS701</title>
<path fill="none" stroke="black" d="M315.051,-349.955C328.143,-352.955 343.166,-356.396 356.806,-359.522"/>
<polygon fill="black" stroke="black" points="356.384,-363.016 366.914,-361.838 357.948,-356.193 356.384,-363.016"/>
</g>
<!-- AS3549 -->
<g id="node11" class="node"><title>AS3549</title>
<g id="a_node11"><a xlink:href="/asn/3549" xlink:title="AS3549 ~ Level 3 Parent, LLC [US]">
<ellipse fill="#ffffff" stroke="black" cx="399.174" cy="-315" rx="39.7935" ry="18"/>
<text text-anchor="middle" x="399.174" y="-311.3" font-family="Times,serif" font-size="14.00" fill="#2c94b3">AS3549</text>
</a>
</g>
</g>
<!-- AS3356&#45;&gt;AS3549 -->
<g id="edge10" class="edge"><title>AS3356&#45;&gt;AS3549</title>
<path fill="none" stroke="black" d="M315.051,-334.045C327.051,-331.296 340.672,-328.175 353.364,-325.267"/>
<polygon fill="black" stroke="black" points="354.33,-328.636 363.296,-322.991 352.767,-321.813 354.33,-328.636"/>
</g>
<!-- AS3356&#45;&gt;AS3257 -->
<g id="edge11" class="edge"><title>AS3356&#45;&gt;AS3257</title>
<path fill="none" stroke="black" d="M300.662,-326.723C315.524,-315.696 336.269,-300.593 354.978,-288 358.527,-285.611 362.277,-283.161 366.026,-280.758"/>
<polygon fill="black" stroke="black" points="368.094,-283.591 374.674,-275.288 364.352,-277.675 368.094,-283.591"/>
</g>
<!-- AS174&#45;&gt;AS3491 -->
<g id="edge18" class="edge"><title>AS174&#45;&gt;AS3491</title>
<path fill="none" stroke="black" d="M314.733,-72C325.557,-72 337.725,-72 349.352,-72"/>
<polygon fill="black" stroke="black" points="349.383,-75.5001 359.383,-72 349.383,-68.5001 349.383,-75.5001"/>
</g>
</g>
</svg>
