<?xml version="1.0" encoding="UTF-8" standalone="no"?>
<!DOCTYPE svg PUBLIC "-//W3C//DTD SVG 1.1//EN"
 "http://www.w3.org/Graphics/SVG/1.1/DTD/svg11.dtd">
<!-- Generated by graphviz version 2.38.0 (20140413.2041)
 -->
<!-- Title: AS35646 IPv4 Upstream Graph Pages: 1 -->
<svg width="576pt" height="746pt"
 viewBox="0.00 0.00 575.76 746.00" xmlns="http://www.w3.org/2000/svg" xmlns:xlink="http://www.w3.org/1999/xlink">
<g id="graph0" class="graph" transform="scale(1 1) rotate(0) translate(4 742)">
<title>AS35646 IPv4 Upstream Graph</title>
<polygon fill="white" stroke="none" points="-4,4 -4,-742 571.762,-742 571.762,4 -4,4"/>
<!-- AS35646 -->
<g id="node1" class="node"><title>AS35646</title>
<g id="a_node1"><a xlink:href="/asn/35646" xlink:title="AS35646 ~ GRAWE&#45;AS [AT]">
<ellipse fill="#ffffff" stroke="black" cx="44.1961" cy="-281" rx="44.393" ry="18"/>
<text text-anchor="middle" x="44.1961" y="-277.3" font-family="Times,serif" font-size="14.00" fill="#880000">AS35646</text>
</a>
</g>
</g>
<!-- AS29056 -->
<g id="node2" class="node"><title>AS29056</title>
<g id="a_node2"><a xlink:href="/asn/29056" xlink:title="AS29056 ~ Citycom Telekommunikation GmbH [AT]">
<ellipse fill="#ffffff" stroke="black" cx="168.588" cy="-315" rx="44.393" ry="18"/>
<text text-anchor="middle" x="168.588" y="-311.3" font-family="Times,serif" font-size="14.00" fill="#2c94b3">AS29056</text>
</a>
</g>
</g>
<!-- AS35646&#45;&gt;AS29056 -->
<g id="edge1" class="edge"><title>AS35646&#45;&gt;AS29056</title>
<path fill="none" stroke="black" stroke-width="4.5" d="M81.2558,-291.017C93.8424,-294.514 108.146,-298.487 121.44,-302.18"/>
<polygon fill="black" stroke="black" stroke-width="4.5" points="120.674,-306.054 131.363,-304.937 122.782,-298.466 120.674,-306.054"/>
</g>
<!-- AS48339 -->
<g id="node3" class="node"><title>AS48339</title>
<g id="a_node3"><a xlink:href="/asn/48339" xlink:title="AS48339 ~ Raiffeisen Rechenzentrum GmbH [AT]">
<ellipse fill="#ffffff" stroke="black" cx="168.588" cy="-160" rx="44.393" ry="18"/>
<text text-anchor="middle" x="168.588" y="-156.3" font-family="Times,serif" font-size="14.00" fill="#2c94b3">AS48339</text>
</a>
</g>
</g>
<!-- AS35646&#45;&gt;AS48339 -->
<g id="edge2" class="edge"><title>AS35646&#45;&gt;AS48339</title>
<path fill="none" stroke="black" stroke-width="0.84375" d="M61.9576,-264.429C82.9885,-243.637 119.21,-207.828 143.282,-184.029"/>
<polygon fill="black" stroke="black" stroke-width="0.84375" points="145.986,-186.279 150.636,-176.759 141.064,-181.301 145.986,-186.279"/>
</g>
<!-- AS3257 -->
<g id="node4" class="node"><title>AS3257</title>
<g id="a_node4"><a xlink:href="/asn/3257" xlink:title="AS3257 ~ GTT [DE]">
<ellipse fill="#ffffff" stroke="black" cx="288.431" cy="-342" rx="39.7935" ry="18"/>
<text text-anchor="middle" x="288.431" y="-338.3" font-family="Times,serif" font-size="14.00" fill="#2c94b3">AS3257</text>
</a>
</g>
</g>
<!-- AS29056&#45;&gt;AS3257 -->
<g id="edge3" class="edge"><title>AS29056&#45;&gt;AS3257</title>
<path fill="none" stroke="black" stroke-width="4.5" d="M207.523,-323.692C218.764,-326.267 231.176,-329.111 242.799,-331.774"/>
<polygon fill="black" stroke="black" stroke-width="4.5" points="242.134,-335.661 252.761,-334.057 243.893,-327.985 242.134,-335.661"/>
</g>
<!-- AS6830 -->
<g id="node5" class="node"><title>AS6830</title>
<g id="a_node5"><a xlink:href="/asn/6830" xlink:title="AS6830 ~ LGI&#45;UPC [AT]">
<ellipse fill="#ffffff" stroke="black" cx="288.431" cy="-288" rx="39.7935" ry="18"/>
<text text-anchor="middle" x="288.431" y="-284.3" font-family="Times,serif" font-size="14.00" fill="#2c94b3">AS6830</text>
</a>
</g>
</g>
<!-- AS29056&#45;&gt;AS6830 -->
<g id="edge4" class="edge"><title>AS29056&#45;&gt;AS6830</title>
<path fill="none" stroke="black" stroke-width="2.57143" d="M207.523,-306.308C218.764,-303.733 231.176,-300.889 242.799,-298.226"/>
<polygon fill="black" stroke="black" stroke-width="2.57143" points="243.795,-301.588 252.761,-295.943 242.232,-294.765 243.795,-301.588"/>
</g>
<!-- AS1764 -->
<g id="node6" class="node"><title>AS1764</title>
<g id="a_node6"><a xlink:href="/asn/1764" xlink:title="AS1764 ~ NEXTLAYER&#45;AS [AT]">
<ellipse fill="#ffffff" stroke="black" cx="288.431" cy="-612" rx="39.7935" ry="18"/>
<text text-anchor="middle" x="288.431" y="-608.3" font-family="Times,serif" font-size="14.00" fill="#2c94b3">AS1764</text>
</a>
</g>
</g>
<!-- AS29056&#45;&gt;AS1764 -->
<g id="edge5" class="edge"><title>AS29056&#45;&gt;AS1764</title>
<path fill="none" stroke="black" stroke-width="3.21429" d="M176.782,-333.132C196.717,-383.373 252.759,-524.615 276.54,-584.553"/>
<polygon fill="black" stroke="black" stroke-width="3.21429" points="273.389,-586.101 280.331,-594.106 279.896,-583.52 273.389,-586.101"/>
</g>
<!-- AS8220 -->
<g id="node20" class="node"><title>AS8220</title>
<g id="a_node20"><a xlink:href="/asn/8220" xlink:title="AS8220 ~ COLT [GB]">
<ellipse fill="#ffffff" stroke="black" cx="288.431" cy="-99" rx="39.7935" ry="18"/>
<text text-anchor="middle" x="288.431" y="-95.3" font-family="Times,serif" font-size="14.00" fill="#2c94b3">AS8220</text>
</a>
</g>
</g>
<!-- AS48339&#45;&gt;AS8220 -->
<g id="edge22" class="edge"><title>AS48339&#45;&gt;AS8220</title>
<path fill="none" stroke="black" stroke-width="3" d="M196.624,-146.005C213.173,-137.439 234.525,-126.386 252.366,-117.151"/>
<polygon fill="black" stroke="black" stroke-width="3" points="254.06,-120.215 261.331,-112.51 250.842,-113.999 254.06,-120.215"/>
</g>
<!-- AS6762 -->
<g id="node7" class="node"><title>AS6762</title>
<g id="a_node7"><a xlink:href="/asn/6762" xlink:title="AS6762 ~ TELECOM ITALIA SPARKLE S.p.A. [IT]">
<ellipse fill="#ffffff" stroke="black" cx="408.273" cy="-234" rx="39.7935" ry="18"/>
<text text-anchor="middle" x="408.273" y="-230.3" font-family="Times,serif" font-size="14.00" fill="#2c94b3">AS6762</text>
</a>
</g>
</g>
<!-- AS3257&#45;&gt;AS6762 -->
<g id="edge6" class="edge"><title>AS3257&#45;&gt;AS6762</title>
<path fill="none" stroke="black" d="M313.025,-327.611C318.281,-323.852 323.613,-319.563 328.077,-315 348.25,-294.383 343.384,-281.094 364.077,-261 366.922,-258.237 370.096,-255.614 373.396,-253.166"/>
<polygon fill="black" stroke="black" points="375.462,-255.994 381.744,-247.462 371.513,-250.214 375.462,-255.994"/>
</g>
<!-- AS3491 -->
<g id="node8" class="node"><title>AS3491</title>
<g id="a_node8"><a xlink:href="/asn/3491" xlink:title="AS3491 ~ PCCW Global, Inc. [US]">
<ellipse fill="#ffffff" stroke="black" cx="408.273" cy="-342" rx="39.7935" ry="18"/>
<text text-anchor="middle" x="408.273" y="-338.3" font-family="Times,serif" font-size="14.00" fill="#2c94b3">AS3491</text>
</a>
</g>
</g>
<!-- AS3257&#45;&gt;AS3491 -->
<g id="edge7" class="edge"><title>AS3257&#45;&gt;AS3491</title>
<path fill="none" stroke="black" d="M328.343,-342C337.897,-342 348.246,-342 358.209,-342"/>
<polygon fill="black" stroke="black" points="358.402,-345.5 368.402,-342 358.402,-338.5 358.402,-345.5"/>
</g>
<!-- AS1239 -->
<g id="node9" class="node"><title>AS1239</title>
<g id="a_node9"><a xlink:href="/asn/1239" xlink:title="AS1239 ~ Sprint [US]">
<ellipse fill="#ffffff" stroke="black" cx="408.273" cy="-450" rx="39.7935" ry="18"/>
<text text-anchor="middle" x="408.273" y="-446.3" font-family="Times,serif" font-size="14.00" fill="#2c94b3">AS1239</text>
</a>
</g>
</g>
<!-- AS3257&#45;&gt;AS1239 -->
<g id="edge8" class="edge"><title>AS3257&#45;&gt;AS1239</title>
<path fill="none" stroke="black" d="M302.85,-359.065C316.964,-376.375 340.379,-403.345 364.077,-423 367.294,-425.668 370.794,-428.27 374.365,-430.741"/>
<polygon fill="black" stroke="black" points="372.442,-433.666 382.721,-436.236 376.288,-427.817 372.442,-433.666"/>
</g>
<!-- AS12956 -->
<g id="node10" class="node"><title>AS12956</title>
<g id="a_node10"><a xlink:href="/asn/12956" xlink:title="AS12956 ~ TELXIUS [ES]">
<ellipse fill="#ffffff" stroke="black" cx="408.273" cy="-396" rx="44.393" ry="18"/>
<text text-anchor="middle" x="408.273" y="-392.3" font-family="Times,serif" font-size="14.00" fill="#2c94b3">AS12956</text>
</a>
</g>
</g>
<!-- AS3257&#45;&gt;AS12956 -->
<g id="edge9" class="edge"><title>AS3257&#45;&gt;AS12956</title>
<path fill="none" stroke="black" d="M317.06,-354.661C332.557,-361.762 352.124,-370.728 369.071,-378.494"/>
<polygon fill="black" stroke="black" points="367.624,-381.681 378.173,-382.665 370.54,-375.317 367.624,-381.681"/>
</g>
<!-- AS2497 -->
<g id="node11" class="node"><title>AS2497</title>
<g id="a_node11"><a xlink:href="/asn/2497" xlink:title="AS2497 ~ Internet Initiative Japan Inc. [JP]">
<ellipse fill="#ffffff" stroke="black" cx="408.273" cy="-288" rx="39.7935" ry="18"/>
<text text-anchor="middle" x="408.273" y="-284.3" font-family="Times,serif" font-size="14.00" fill="#2c94b3">AS2497</text>
</a>
</g>
</g>
<!-- AS3257&#45;&gt;AS2497 -->
<g id="edge10" class="edge"><title>AS3257&#45;&gt;AS2497</title>
<path fill="none" stroke="black" d="M317.06,-329.339C333.017,-322.027 353.287,-312.739 370.57,-304.819"/>
<polygon fill="black" stroke="black" points="372.185,-307.929 379.818,-300.581 369.269,-301.565 372.185,-307.929"/>
</g>
<!-- AS7018 -->
<g id="node12" class="node"><title>AS7018</title>
<g id="a_node12"><a xlink:href="/asn/7018" xlink:title="AS7018 ~ AT&amp;T Services, Inc. [US]">
<ellipse fill="#ffffff" stroke="black" cx="408.273" cy="-504" rx="39.7935" ry="18"/>
<text text-anchor="middle" x="408.273" y="-500.3" font-family="Times,serif" font-size="14.00" fill="#2c94b3">AS7018</text>
</a>
</g>
</g>
<!-- AS3257&#45;&gt;AS7018 -->
<g id="edge11" class="edge"><title>AS3257&#45;&gt;AS7018</title>
<path fill="none" stroke="black" d="M295.954,-359.994C306.704,-387.728 330.362,-441.429 364.077,-477 366.663,-479.728 369.581,-482.294 372.649,-484.677"/>
<polygon fill="black" stroke="black" points="370.803,-487.658 380.997,-490.543 374.827,-481.93 370.803,-487.658"/>
</g>
<!-- AS6830&#45;&gt;AS6762 -->
<g id="edge14" class="edge"><title>AS6830&#45;&gt;AS6762</title>
<path fill="none" stroke="black" d="M317.06,-275.339C333.017,-268.027 353.287,-258.739 370.57,-250.819"/>
<polygon fill="black" stroke="black" points="372.185,-253.929 379.818,-246.581 369.269,-247.565 372.185,-253.929"/>
</g>
<!-- AS6830&#45;&gt;AS3491 -->
<g id="edge12" class="edge"><title>AS6830&#45;&gt;AS3491</title>
<path fill="none" stroke="black" d="M317.06,-300.661C333.017,-307.973 353.287,-317.261 370.57,-325.181"/>
<polygon fill="black" stroke="black" points="369.269,-328.435 379.818,-329.419 372.185,-322.071 369.269,-328.435"/>
</g>
<!-- AS6830&#45;&gt;AS2497 -->
<g id="edge13" class="edge"><title>AS6830&#45;&gt;AS2497</title>
<path fill="none" stroke="black" d="M328.343,-288C337.897,-288 348.246,-288 358.209,-288"/>
<polygon fill="black" stroke="black" points="358.402,-291.5 368.402,-288 358.402,-284.5 358.402,-291.5"/>
</g>
<!-- AS701 -->
<g id="node13" class="node"><title>AS701</title>
<g id="a_node13"><a xlink:href="/asn/701" xlink:title="AS701 ~ UUNET [US]">
<ellipse fill="#ffffff" stroke="black" cx="408.273" cy="-180" rx="35.194" ry="18"/>
<text text-anchor="middle" x="408.273" y="-176.3" font-family="Times,serif" font-size="14.00" fill="#2c94b3">AS701</text>
</a>
</g>
</g>
<!-- AS6830&#45;&gt;AS701 -->
<g id="edge15" class="edge"><title>AS6830&#45;&gt;AS701</title>
<path fill="none" stroke="black" d="M302.85,-270.935C316.964,-253.625 340.379,-226.655 364.077,-207 367.54,-204.128 371.333,-201.331 375.187,-198.692"/>
<polygon fill="black" stroke="black" points="377.149,-201.592 383.62,-193.203 373.33,-195.725 377.149,-201.592"/>
</g>
<!-- AS8218 -->
<g id="node14" class="node"><title>AS8218</title>
<g id="a_node14"><a xlink:href="/asn/8218" xlink:title="AS8218 ~ legacy Neotelecoms [FR]">
<ellipse fill="#ffffff" stroke="black" cx="408.273" cy="-666" rx="39.7935" ry="18"/>
<text text-anchor="middle" x="408.273" y="-662.3" font-family="Times,serif" font-size="14.00" fill="#2c94b3">AS8218</text>
</a>
</g>
</g>
<!-- AS1764&#45;&gt;AS8218 -->
<g id="edge16" class="edge"><title>AS1764&#45;&gt;AS8218</title>
<path fill="none" stroke="black" d="M317.06,-624.661C333.017,-631.973 353.287,-641.261 370.57,-649.181"/>
<polygon fill="black" stroke="black" points="369.269,-652.435 379.818,-653.419 372.185,-646.071 369.269,-652.435"/>
</g>
<!-- AS2914 -->
<g id="node15" class="node"><title>AS2914</title>
<g id="a_node15"><a xlink:href="/asn/2914" xlink:title="AS2914 ~ NTT America, Inc. [US]">
<ellipse fill="#ffffff" stroke="black" cx="408.273" cy="-612" rx="39.7935" ry="18"/>
<text text-anchor="middle" x="408.273" y="-608.3" font-family="Times,serif" font-size="14.00" fill="#2c94b3">AS2914</text>
</a>
</g>
</g>
<!-- AS1764&#45;&gt;AS2914 -->
<g id="edge17" class="edge"><title>AS1764&#45;&gt;AS2914</title>
<path fill="none" stroke="black" d="M328.343,-612C337.897,-612 348.246,-612 358.209,-612"/>
<polygon fill="black" stroke="black" points="358.402,-615.5 368.402,-612 358.402,-608.5 358.402,-615.5"/>
</g>
<!-- AS3356 -->
<g id="node16" class="node"><title>AS3356</title>
<g id="a_node16"><a xlink:href="/asn/3356" xlink:title="AS3356 ~ Level 3 Parent, LLC [US]">
<ellipse fill="#ffffff" stroke="black" cx="408.273" cy="-558" rx="39.7935" ry="18"/>
<text text-anchor="middle" x="408.273" y="-554.3" font-family="Times,serif" font-size="14.00" fill="#2c94b3">AS3356</text>
</a>
</g>
</g>
<!-- AS1764&#45;&gt;AS3356 -->
<g id="edge18" class="edge"><title>AS1764&#45;&gt;AS3356</title>
<path fill="none" stroke="black" stroke-width="2" d="M317.06,-599.339C333.017,-592.027 353.287,-582.739 370.57,-574.819"/>
<polygon fill="black" stroke="black" stroke-width="2" points="372.185,-577.929 379.818,-570.581 369.269,-571.565 372.185,-577.929"/>
</g>
<!-- AS174 -->
<g id="node17" class="node"><title>AS174</title>
<g id="a_node17"><a xlink:href="/asn/174" xlink:title="AS174 ~ Cogent Communications [US]">
<ellipse fill="#ffffff" stroke="black" cx="408.273" cy="-720" rx="35.194" ry="18"/>
<text text-anchor="middle" x="408.273" y="-716.3" font-family="Times,serif" font-size="14.00" fill="#2c94b3">AS174</text>
</a>
</g>
</g>
<!-- AS1764&#45;&gt;AS174 -->
<g id="edge19" class="edge"><title>AS1764&#45;&gt;AS174</title>
<path fill="none" stroke="black" d="M302.85,-629.065C316.964,-646.375 340.379,-673.345 364.077,-693 367.54,-695.872 371.333,-698.669 375.187,-701.308"/>
<polygon fill="black" stroke="black" points="373.33,-704.275 383.62,-706.797 377.149,-698.408 373.33,-704.275"/>
</g>
<!-- AS6461 -->
<g id="node18" class="node"><title>AS6461</title>
<g id="a_node18"><a xlink:href="/asn/6461" xlink:title="AS6461 ~ Zayo Bandwidth [US]">
<ellipse fill="#ffffff" stroke="black" cx="528.116" cy="-666" rx="39.7935" ry="18"/>
<text text-anchor="middle" x="528.116" y="-662.3" font-family="Times,serif" font-size="14.00" fill="#2c94b3">AS6461</text>
</a>
</g>
</g>
<!-- AS8218&#45;&gt;AS6461 -->
<g id="edge20" class="edge"><title>AS8218&#45;&gt;AS6461</title>
<path fill="none" stroke="black" d="M448.186,-666C457.739,-666 468.089,-666 478.052,-666"/>
<polygon fill="black" stroke="black" points="478.244,-669.5 488.244,-666 478.244,-662.5 478.244,-669.5"/>
</g>
<!-- AS3549 -->
<g id="node19" class="node"><title>AS3549</title>
<g id="a_node19"><a xlink:href="/asn/3549" xlink:title="AS3549 ~ Level 3 Parent, LLC [US]">
<ellipse fill="#ffffff" stroke="black" cx="528.116" cy="-558" rx="39.7935" ry="18"/>
<text text-anchor="middle" x="528.116" y="-554.3" font-family="Times,serif" font-size="14.00" fill="#2c94b3">AS3549</text>
</a>
</g>
</g>
<!-- AS3356&#45;&gt;AS3549 -->
<g id="edge21" class="edge"><title>AS3356&#45;&gt;AS3549</title>
<path fill="none" stroke="black" d="M448.186,-558C457.739,-558 468.089,-558 478.052,-558"/>
<polygon fill="black" stroke="black" points="478.244,-561.5 488.244,-558 478.244,-554.5 478.244,-561.5"/>
</g>
<!-- AS5511 -->
<g id="node21" class="node"><title>AS5511</title>
<g id="a_node21"><a xlink:href="/asn/5511" xlink:title="AS5511 ~ Orange S.A. [FR]">
<ellipse fill="#ffffff" stroke="black" cx="408.273" cy="-126" rx="39.7935" ry="18"/>
<text text-anchor="middle" x="408.273" y="-122.3" font-family="Times,serif" font-size="14.00" fill="#2c94b3">AS5511</text>
</a>
</g>
</g>
<!-- AS8220&#45;&gt;AS5511 -->
<g id="edge23" class="edge"><title>AS8220&#45;&gt;AS5511</title>
<path fill="none" stroke="black" d="M324.15,-106.955C336.15,-109.704 349.771,-112.825 362.463,-115.733"/>
<polygon fill="black" stroke="black" points="361.866,-119.187 372.395,-118.009 363.429,-112.364 361.866,-119.187"/>
</g>
<!-- AS1299 -->
<g id="node22" class="node"><title>AS1299</title>
<g id="a_node22"><a xlink:href="/asn/1299" xlink:title="AS1299 ~ Telia Carrier [EU]">
<ellipse fill="#ffffff" stroke="black" cx="408.273" cy="-72" rx="39.7935" ry="18"/>
<text text-anchor="middle" x="408.273" y="-68.3" font-family="Times,serif" font-size="14.00" fill="#2c94b3">AS1299</text>
</a>
</g>
</g>
<!-- AS8220&#45;&gt;AS1299 -->
<g id="edge24" class="edge"><title>AS8220&#45;&gt;AS1299</title>
<path fill="none" stroke="black" d="M324.15,-91.0451C336.15,-88.2957 349.771,-85.1749 362.463,-82.2668"/>
<polygon fill="black" stroke="black" points="363.429,-85.6363 372.395,-79.9913 361.866,-78.8131 363.429,-85.6363"/>
</g>
<!-- AS6453 -->
<g id="node23" class="node"><title>AS6453</title>
<g id="a_node23"><a xlink:href="/asn/6453" xlink:title="AS6453 ~ TATA COMMUNICATIONS (AMERICA) INC [US]">
<ellipse fill="#ffffff" stroke="black" cx="408.273" cy="-18" rx="39.7935" ry="18"/>
<text text-anchor="middle" x="408.273" y="-14.3" font-family="Times,serif" font-size="14.00" fill="#2c94b3">AS6453</text>
</a>
</g>
</g>
<!-- AS8220&#45;&gt;AS6453 -->
<g id="edge25" class="edge"><title>AS8220&#45;&gt;AS6453</title>
<path fill="none" stroke="black" d="M309.761,-83.7231C324.623,-72.6959 345.368,-57.5935 364.077,-45 367.626,-42.6111 371.377,-40.1609 375.125,-37.7579"/>
<polygon fill="black" stroke="black" points="377.193,-40.5912 383.774,-32.2876 373.451,-34.6753 377.193,-40.5912"/>
</g>
</g>
</svg>
