<?xml version="1.0" encoding="UTF-8" standalone="no"?>
<!DOCTYPE svg PUBLIC "-//W3C//DTD SVG 1.1//EN"
 "http://www.w3.org/Graphics/SVG/1.1/DTD/svg11.dtd">
<!-- Generated by graphviz version 2.38.0 (20140413.2041)
 -->
<!-- Title: AS39259 IPv6 Upstream Graph Pages: 1 -->
<svg width="691pt" height="918pt"
 viewBox="0.00 0.00 691.06 917.67" xmlns="http://www.w3.org/2000/svg" xmlns:xlink="http://www.w3.org/1999/xlink">
<g id="graph0" class="graph" transform="scale(1 1) rotate(0) translate(4 913.667)">
<title>AS39259 IPv6 Upstream Graph</title>
<polygon fill="white" stroke="none" points="-4,4 -4,-913.667 687.055,-913.667 687.055,4 -4,4"/>
<!-- AS39259 -->
<g id="node1" class="node"><title>AS39259</title>
<g id="a_node1"><a xlink:href="/asn/39259" xlink:title="AS39259 ~ Reisenbauer Holding OUE [AT]">
<ellipse fill="#ffffff" stroke="black" cx="44.1961" cy="-220.667" rx="44.393" ry="18"/>
<text text-anchor="middle" x="44.1961" y="-216.967" font-family="Times,serif" font-size="14.00" fill="#880000">AS39259</text>
</a>
</g>
</g>
<!-- AS5404 -->
<g id="node2" class="node"><title>AS5404</title>
<g id="a_node2"><a xlink:href="/asn/5404" xlink:title="AS5404 ~ ASN conova communications GmbH [AT]">
<ellipse fill="#ffffff" stroke="black" cx="164.039" cy="-195.667" rx="39.7935" ry="18"/>
<text text-anchor="middle" x="164.039" y="-191.967" font-family="Times,serif" font-size="14.00" fill="#2c94b3">AS5404</text>
</a>
</g>
</g>
<!-- AS39259&#45;&gt;AS5404 -->
<g id="edge1" class="edge"><title>AS39259&#45;&gt;AS5404</title>
<path fill="none" stroke="black" stroke-width="4.5" d="M83.7821,-212.481C94.5745,-210.191 106.404,-207.681 117.556,-205.316"/>
<polygon fill="black" stroke="black" stroke-width="4.5" points="118.592,-209.121 127.557,-203.194 116.958,-201.418 118.592,-209.121"/>
</g>
<!-- AS20473 -->
<g id="node3" class="node"><title>AS20473</title>
<g id="a_node3"><a xlink:href="/asn/20473" xlink:title="AS20473 ~ Choopa, LLC [US]">
<ellipse fill="#ffffff" stroke="black" cx="283.881" cy="-249.667" rx="44.393" ry="18"/>
<text text-anchor="middle" x="283.881" y="-245.967" font-family="Times,serif" font-size="14.00" fill="#2c94b3">AS20473</text>
</a>
</g>
</g>
<!-- AS39259&#45;&gt;AS20473 -->
<g id="edge2" class="edge"><title>AS39259&#45;&gt;AS20473</title>
<path fill="none" stroke="black" stroke-width="4.32" d="M86.8697,-225.751C127.052,-230.654 187.969,-238.086 231.215,-243.363"/>
<polygon fill="black" stroke="black" stroke-width="4.32" points="230.871,-247.129 241.255,-244.588 231.787,-239.625 230.871,-247.129"/>
</g>
<!-- AS6830 -->
<g id="node4" class="node"><title>AS6830</title>
<g id="a_node4"><a xlink:href="/asn/6830" xlink:title="AS6830 ~ LGI&#45;UPC [AT]">
<ellipse fill="#ffffff" stroke="black" cx="403.724" cy="-401.667" rx="39.7935" ry="18"/>
<text text-anchor="middle" x="403.724" y="-397.967" font-family="Times,serif" font-size="14.00" fill="#2c94b3">AS6830</text>
</a>
</g>
</g>
<!-- AS5404&#45;&gt;AS6830 -->
<g id="edge3" class="edge"><title>AS5404&#45;&gt;AS6830</title>
<path fill="none" stroke="black" stroke-width="3" d="M179.126,-212.59C193.582,-229.55 217.093,-256.032 239.685,-276.667 283.321,-316.522 338.771,-357.15 372.462,-380.855"/>
<polygon fill="black" stroke="black" stroke-width="3" points="370.749,-383.928 380.949,-386.792 374.761,-378.192 370.749,-383.928"/>
</g>
<!-- AS33891 -->
<g id="node5" class="node"><title>AS33891</title>
<g id="a_node5"><a xlink:href="/asn/33891" xlink:title="AS33891 ~ CORE&#45;BACKBONE GMBH GLOBAL NETWORK [DE]">
<ellipse fill="#ffffff" stroke="black" cx="283.881" cy="-141.667" rx="44.393" ry="18"/>
<text text-anchor="middle" x="283.881" y="-137.967" font-family="Times,serif" font-size="14.00" fill="#2c94b3">AS33891</text>
</a>
</g>
</g>
<!-- AS5404&#45;&gt;AS33891 -->
<g id="edge4" class="edge"><title>AS5404&#45;&gt;AS33891</title>
<path fill="none" stroke="black" stroke-width="4.5" d="M192.667,-183.006C208.165,-175.904 227.732,-166.938 244.678,-159.173"/>
<polygon fill="black" stroke="black" stroke-width="4.5" points="246.33,-162.747 253.781,-155.001 243.05,-155.588 246.33,-162.747"/>
</g>
<!-- AS1764 -->
<g id="node6" class="node"><title>AS1764</title>
<g id="a_node6"><a xlink:href="/asn/1764" xlink:title="AS1764 ~ NEXTLAYER&#45;AS [AT]">
<ellipse fill="#ffffff" stroke="black" cx="283.881" cy="-195.667" rx="39.7935" ry="18"/>
<text text-anchor="middle" x="283.881" y="-191.967" font-family="Times,serif" font-size="14.00" fill="#2c94b3">AS1764</text>
</a>
</g>
</g>
<!-- AS5404&#45;&gt;AS1764 -->
<g id="edge5" class="edge"><title>AS5404&#45;&gt;AS1764</title>
<path fill="none" stroke="black" stroke-width="4.5" d="M203.951,-195.667C213.505,-195.667 223.854,-195.667 233.817,-195.667"/>
<polygon fill="black" stroke="black" stroke-width="4.5" points="234.009,-199.604 244.009,-195.667 234.009,-191.729 234.009,-199.604"/>
</g>
<!-- AS8445 -->
<g id="node7" class="node"><title>AS8445</title>
<g id="a_node7"><a xlink:href="/asn/8445" xlink:title="AS8445 ~ SALZBURG&#45;AG&#45;AS [AT]">
<ellipse fill="#ffffff" stroke="black" cx="283.881" cy="-41.6667" rx="39.7935" ry="18"/>
<text text-anchor="middle" x="283.881" y="-37.9667" font-family="Times,serif" font-size="14.00" fill="#2c94b3">AS8445</text>
</a>
</g>
</g>
<!-- AS5404&#45;&gt;AS8445 -->
<g id="edge6" class="edge"><title>AS5404&#45;&gt;AS8445</title>
<path fill="none" stroke="black" stroke-width="0.5" d="M178.1,-178.598C198.805,-151.54 239.283,-98.6422 263.417,-67.1025"/>
<polygon fill="black" stroke="black" stroke-width="0.5" points="266.464,-68.8809 269.761,-58.8122 260.905,-64.6269 266.464,-68.8809"/>
</g>
<!-- AS1299 -->
<g id="node15" class="node"><title>AS1299</title>
<g id="a_node15"><a xlink:href="/asn/1299" xlink:title="AS1299 ~ Telia Carrier [EU]">
<ellipse fill="#ffffff" stroke="black" cx="403.724" cy="-95.6667" rx="39.7935" ry="18"/>
<text text-anchor="middle" x="403.724" y="-91.9667" font-family="Times,serif" font-size="14.00" fill="#2c94b3">AS1299</text>
</a>
</g>
</g>
<!-- AS20473&#45;&gt;AS1299 -->
<g id="edge51" class="edge"><title>AS20473&#45;&gt;AS1299</title>
<path fill="none" stroke="black" stroke-width="2.45455" d="M311.983,-235.555C317.697,-231.838 323.403,-227.496 328.077,-222.667 350.239,-199.772 347.935,-188.139 364.077,-160.667 371.582,-147.894 379.979,-133.754 387.024,-121.932"/>
<polygon fill="black" stroke="black" stroke-width="2.45455" points="390.224,-123.4 392.341,-113.019 384.212,-119.814 390.224,-123.4"/>
</g>
<!-- AS3257 -->
<g id="node17" class="node"><title>AS3257</title>
<g id="a_node17"><a xlink:href="/asn/3257" xlink:title="AS3257 ~ GTT [DE]">
<ellipse fill="#ffffff" stroke="black" cx="403.724" cy="-241.667" rx="39.7935" ry="18"/>
<text text-anchor="middle" x="403.724" y="-237.967" font-family="Times,serif" font-size="14.00" fill="#2c94b3">AS3257</text>
</a>
</g>
</g>
<!-- AS20473&#45;&gt;AS3257 -->
<g id="edge50" class="edge"><title>AS20473&#45;&gt;AS3257</title>
<path fill="none" stroke="black" stroke-width="2.86364" d="M327.758,-246.756C336.367,-246.171 345.47,-245.553 354.253,-244.957"/>
<polygon fill="black" stroke="black" stroke-width="2.86364" points="354.628,-248.44 364.368,-244.271 354.154,-241.456 354.628,-248.44"/>
</g>
<!-- AS2914 -->
<g id="node19" class="node"><title>AS2914</title>
<g id="a_node19"><a xlink:href="/asn/2914" xlink:title="AS2914 ~ NTT America, Inc. [US]">
<ellipse fill="#ffffff" stroke="black" cx="403.724" cy="-627.667" rx="39.7935" ry="18"/>
<text text-anchor="middle" x="403.724" y="-623.967" font-family="Times,serif" font-size="14.00" fill="#2c94b3">AS2914</text>
</a>
</g>
</g>
<!-- AS20473&#45;&gt;AS2914 -->
<g id="edge52" class="edge"><title>AS20473&#45;&gt;AS2914</title>
<path fill="none" stroke="black" stroke-width="4.5" d="M284.55,-267.855C284.41,-322.957 290.41,-490.987 364.077,-600.667 365.703,-603.087 367.625,-605.357 369.728,-607.471"/>
<polygon fill="black" stroke="black" stroke-width="4.5" points="367.259,-610.54 377.417,-614.051 372.38,-604.558 367.259,-610.54"/>
</g>
<!-- AS3491 -->
<g id="node8" class="node"><title>AS3491</title>
<g id="a_node8"><a xlink:href="/asn/3491" xlink:title="AS3491 ~ PCCW Global, Inc. [US]">
<ellipse fill="#ffffff" stroke="black" cx="523.566" cy="-577.667" rx="39.7935" ry="18"/>
<text text-anchor="middle" x="523.566" y="-573.967" font-family="Times,serif" font-size="14.00" fill="#2c94b3">AS3491</text>
</a>
</g>
</g>
<!-- AS6830&#45;&gt;AS3491 -->
<g id="edge7" class="edge"><title>AS6830&#45;&gt;AS3491</title>
<path fill="none" stroke="black" d="M410.133,-419.584C419.911,-449.591 442.957,-510.65 479.37,-550.667 481.9,-553.447 484.78,-556.048 487.825,-558.453"/>
<polygon fill="black" stroke="black" points="485.959,-561.42 496.141,-564.349 490.008,-555.71 485.959,-561.42"/>
</g>
<!-- AS701 -->
<g id="node9" class="node"><title>AS701</title>
<g id="a_node9"><a xlink:href="/asn/701" xlink:title="AS701 ~ UUNET [US]">
<ellipse fill="#ffffff" stroke="black" cx="643.409" cy="-241.667" rx="35.194" ry="18"/>
<text text-anchor="middle" x="643.409" y="-237.967" font-family="Times,serif" font-size="14.00" fill="#2c94b3">AS701</text>
</a>
</g>
</g>
<!-- AS6830&#45;&gt;AS701 -->
<g id="edge8" class="edge"><title>AS6830&#45;&gt;AS701</title>
<path fill="none" stroke="black" d="M430.787,-388.448C463.776,-371.281 521.836,-339.594 567.762,-306.667 585.673,-293.825 604.373,-277.537 618.576,-264.478"/>
<polygon fill="black" stroke="black" points="621.033,-266.972 625.97,-257.598 616.265,-261.848 621.033,-266.972"/>
</g>
<!-- AS1273 -->
<g id="node10" class="node"><title>AS1273</title>
<g id="a_node10"><a xlink:href="/asn/1273" xlink:title="AS1273 ~ Vodafone Group PLC [EU]">
<ellipse fill="#ffffff" stroke="black" cx="523.566" cy="-523.667" rx="39.7935" ry="18"/>
<text text-anchor="middle" x="523.566" y="-519.967" font-family="Times,serif" font-size="14.00" fill="#2c94b3">AS1273</text>
</a>
</g>
</g>
<!-- AS6830&#45;&gt;AS1273 -->
<g id="edge9" class="edge"><title>AS6830&#45;&gt;AS1273</title>
<path fill="none" stroke="black" d="M417.094,-418.97C431.067,-437.908 455.045,-468.64 479.37,-491.667 483.253,-495.342 487.56,-498.974 491.909,-502.4"/>
<polygon fill="black" stroke="black" points="490.133,-505.445 500.219,-508.687 494.356,-499.862 490.133,-505.445"/>
</g>
<!-- AS6762 -->
<g id="node11" class="node"><title>AS6762</title>
<g id="a_node11"><a xlink:href="/asn/6762" xlink:title="AS6762 ~ TELECOM ITALIA SPARKLE S.p.A. [IT]">
<ellipse fill="#ffffff" stroke="black" cx="643.409" cy="-466.667" rx="39.7935" ry="18"/>
<text text-anchor="middle" x="643.409" y="-462.967" font-family="Times,serif" font-size="14.00" fill="#2c94b3">AS6762</text>
</a>
</g>
</g>
<!-- AS6830&#45;&gt;AS6762 -->
<g id="edge10" class="edge"><title>AS6830&#45;&gt;AS6762</title>
<path fill="none" stroke="black" d="M421.911,-417.661C436.145,-429.853 457.513,-445.836 479.37,-453.667 516.155,-466.845 560.502,-469.612 593.653,-469.353"/>
<polygon fill="black" stroke="black" points="594.062,-472.846 603.999,-469.172 593.939,-465.847 594.062,-472.846"/>
</g>
<!-- AS7018 -->
<g id="node12" class="node"><title>AS7018</title>
<g id="a_node12"><a xlink:href="/asn/7018" xlink:title="AS7018 ~ AT&amp;T Services, Inc. [US]">
<ellipse fill="#ffffff" stroke="black" cx="523.566" cy="-279.667" rx="39.7935" ry="18"/>
<text text-anchor="middle" x="523.566" y="-275.967" font-family="Times,serif" font-size="14.00" fill="#2c94b3">AS7018</text>
</a>
</g>
</g>
<!-- AS6830&#45;&gt;AS7018 -->
<g id="edge11" class="edge"><title>AS6830&#45;&gt;AS7018</title>
<path fill="none" stroke="black" d="M417.094,-384.364C431.067,-365.425 455.045,-334.693 479.37,-311.667 483.253,-307.991 487.56,-304.359 491.909,-300.934"/>
<polygon fill="black" stroke="black" points="494.356,-303.471 500.219,-294.646 490.133,-297.889 494.356,-303.471"/>
</g>
<!-- AS2497 -->
<g id="node13" class="node"><title>AS2497</title>
<g id="a_node13"><a xlink:href="/asn/2497" xlink:title="AS2497 ~ Internet Initiative Japan Inc. [JP]">
<ellipse fill="#ffffff" stroke="black" cx="643.409" cy="-401.667" rx="39.7935" ry="18"/>
<text text-anchor="middle" x="643.409" y="-397.967" font-family="Times,serif" font-size="14.00" fill="#2c94b3">AS2497</text>
</a>
</g>
</g>
<!-- AS6830&#45;&gt;AS2497 -->
<g id="edge12" class="edge"><title>AS6830&#45;&gt;AS2497</title>
<path fill="none" stroke="black" d="M443.441,-401.667C484.36,-401.667 548.999,-401.667 593.434,-401.667"/>
<polygon fill="black" stroke="black" points="593.708,-405.167 603.708,-401.667 593.708,-398.167 593.708,-405.167"/>
</g>
<!-- AS33891&#45;&gt;AS1273 -->
<g id="edge15" class="edge"><title>AS33891&#45;&gt;AS1273</title>
<path fill="none" stroke="black" stroke-width="0.75" d="M313.94,-154.875C319.408,-158.601 324.519,-163.174 328.077,-168.667 391.507,-266.573 299.737,-331.356 364.077,-428.667 391.445,-470.058 443.6,-496.113 480.598,-510.253"/>
<polygon fill="black" stroke="black" stroke-width="0.75" points="479.532,-513.59 490.126,-513.761 481.951,-507.021 479.532,-513.59"/>
</g>
<!-- AS3356 -->
<g id="node14" class="node"><title>AS3356</title>
<g id="a_node14"><a xlink:href="/asn/3356" xlink:title="AS3356 ~ Level 3 Parent, LLC [US]">
<ellipse fill="#ffffff" stroke="black" cx="523.566" cy="-133.667" rx="39.7935" ry="18"/>
<text text-anchor="middle" x="523.566" y="-129.967" font-family="Times,serif" font-size="14.00" fill="#2c94b3">AS3356</text>
</a>
</g>
</g>
<!-- AS33891&#45;&gt;AS3356 -->
<g id="edge13" class="edge"><title>AS33891&#45;&gt;AS3356</title>
<path fill="none" stroke="black" stroke-width="4.5" d="M328.2,-140.209C369.268,-138.826 430.882,-136.753 473.689,-135.312"/>
<polygon fill="black" stroke="black" stroke-width="4.5" points="474.01,-139.241 483.872,-134.969 473.745,-131.37 474.01,-139.241"/>
</g>
<!-- AS33891&#45;&gt;AS1299 -->
<g id="edge14" class="edge"><title>AS33891&#45;&gt;AS1299</title>
<path fill="none" stroke="black" stroke-width="1.5" d="M316.461,-129.34C330.89,-123.707 348.129,-116.978 363.391,-111.02"/>
<polygon fill="black" stroke="black" stroke-width="1.5" points="365.042,-114.133 373.085,-107.236 362.496,-107.612 365.042,-114.133"/>
</g>
<!-- AS174 -->
<g id="node16" class="node"><title>AS174</title>
<g id="a_node16"><a xlink:href="/asn/174" xlink:title="AS174 ~ Cogent Communications [US]">
<ellipse fill="#ffffff" stroke="black" cx="523.566" cy="-41.6667" rx="35.194" ry="18"/>
<text text-anchor="middle" x="523.566" y="-37.9667" font-family="Times,serif" font-size="14.00" fill="#2c94b3">AS174</text>
</a>
</g>
</g>
<!-- AS1764&#45;&gt;AS174 -->
<g id="edge16" class="edge"><title>AS1764&#45;&gt;AS174</title>
<path fill="none" stroke="black" d="M311.759,-182.737C317.751,-178.875 323.635,-174.173 328.077,-168.667 357.737,-131.903 327.857,-98.9885 364.077,-68.6667 395.692,-42.1999 443.592,-37.2873 478.457,-37.8665"/>
<polygon fill="black" stroke="black" points="478.717,-41.3768 488.826,-38.2048 478.946,-34.3805 478.717,-41.3768"/>
</g>
<!-- AS1764&#45;&gt;AS3257 -->
<g id="edge17" class="edge"><title>AS1764&#45;&gt;AS3257</title>
<path fill="none" stroke="black" stroke-width="2" d="M314.618,-207.274C329.412,-213.049 347.489,-220.106 363.41,-226.321"/>
<polygon fill="black" stroke="black" stroke-width="2" points="362.408,-229.687 372.997,-230.063 364.954,-223.166 362.408,-229.687"/>
</g>
<!-- AS8218 -->
<g id="node18" class="node"><title>AS8218</title>
<g id="a_node18"><a xlink:href="/asn/8218" xlink:title="AS8218 ~ legacy Neotelecoms [FR]">
<ellipse fill="#ffffff" stroke="black" cx="403.724" cy="-187.667" rx="39.7935" ry="18"/>
<text text-anchor="middle" x="403.724" y="-183.967" font-family="Times,serif" font-size="14.00" fill="#2c94b3">AS8218</text>
</a>
</g>
</g>
<!-- AS1764&#45;&gt;AS8218 -->
<g id="edge18" class="edge"><title>AS1764&#45;&gt;AS8218</title>
<path fill="none" stroke="black" d="M323.141,-193.069C333.021,-192.399 343.787,-191.668 354.117,-190.966"/>
<polygon fill="black" stroke="black" points="354.512,-194.448 364.252,-190.278 354.038,-187.464 354.512,-194.448"/>
</g>
<!-- AS1764&#45;&gt;AS2914 -->
<g id="edge19" class="edge"><title>AS1764&#45;&gt;AS2914</title>
<path fill="none" stroke="black" stroke-width="3" d="M313.231,-208.164C319.024,-212 324.451,-216.799 328.077,-222.667 416.797,-366.224 279.059,-454.886 364.077,-600.667 365.546,-603.185 367.355,-605.526 369.38,-607.689"/>
<polygon fill="black" stroke="black" stroke-width="3" points="367.113,-610.357 376.921,-614.362 371.751,-605.114 367.113,-610.357"/>
</g>
<!-- AS6939 -->
<g id="node20" class="node"><title>AS6939</title>
<g id="a_node20"><a xlink:href="/asn/6939" xlink:title="AS6939 ~ Hurricane Electric LLC [US]">
<ellipse fill="#ffffff" stroke="black" cx="403.724" cy="-573.667" rx="39.7935" ry="18"/>
<text text-anchor="middle" x="403.724" y="-569.967" font-family="Times,serif" font-size="14.00" fill="#2c94b3">AS6939</text>
</a>
</g>
</g>
<!-- AS1764&#45;&gt;AS6939 -->
<g id="edge20" class="edge"><title>AS1764&#45;&gt;AS6939</title>
<path fill="none" stroke="black" stroke-width="2" d="M313.086,-208.255C318.885,-212.088 324.351,-216.862 328.077,-222.667 395.144,-327.139 326.766,-381.26 364.077,-499.667 369.351,-516.402 378.279,-533.858 386.227,-547.61"/>
<polygon fill="black" stroke="black" stroke-width="2" points="383.389,-549.686 391.515,-556.485 389.403,-546.103 383.389,-549.686"/>
</g>
<!-- AS6453 -->
<g id="node21" class="node"><title>AS6453</title>
<g id="a_node21"><a xlink:href="/asn/6453" xlink:title="AS6453 ~ TATA COMMUNICATIONS (AMERICA) INC [US]">
<ellipse fill="#ffffff" stroke="black" cx="643.409" cy="-79.6667" rx="39.7935" ry="18"/>
<text text-anchor="middle" x="643.409" y="-75.9667" font-family="Times,serif" font-size="14.00" fill="#2c94b3">AS6453</text>
</a>
</g>
</g>
<!-- AS8445&#45;&gt;AS6453 -->
<g id="edge49" class="edge"><title>AS8445&#45;&gt;AS6453</title>
<path fill="none" stroke="black" d="M314.924,-30.3688C367.867,-12.2716 480.439,18.0243 567.762,-14.6667 589.217,-22.6985 608.569,-39.992 622.191,-54.723"/>
<polygon fill="black" stroke="black" points="619.893,-57.4071 629.146,-62.5682 625.131,-52.7635 619.893,-57.4071"/>
</g>
<!-- AS3356&#45;&gt;AS701 -->
<g id="edge41" class="edge"><title>AS3356&#45;&gt;AS701</title>
<path fill="none" stroke="black" d="M550.095,-147.129C556.258,-151.029 562.56,-155.615 567.762,-160.667 588.456,-180.761 583.59,-194.049 603.762,-214.667 606.242,-217.201 608.988,-219.65 611.841,-221.971"/>
<polygon fill="black" stroke="black" points="609.932,-224.915 620.026,-228.135 614.143,-219.323 609.932,-224.915"/>
</g>
<!-- AS3356&#45;&gt;AS6762 -->
<g id="edge45" class="edge"><title>AS3356&#45;&gt;AS6762</title>
<path fill="none" stroke="black" d="M552.753,-146.267C558.553,-150.099 564.023,-154.87 567.762,-160.667 632.903,-261.662 550.012,-321.175 603.762,-428.667 606.512,-434.166 610.376,-439.334 614.606,-443.981"/>
<polygon fill="black" stroke="black" points="612.382,-446.705 621.939,-451.277 617.319,-441.742 612.382,-446.705"/>
</g>
<!-- AS3356&#45;&gt;AS2497 -->
<g id="edge42" class="edge"><title>AS3356&#45;&gt;AS2497</title>
<path fill="none" stroke="black" d="M551.623,-146.456C557.608,-150.323 563.446,-155.061 567.762,-160.667 574.457,-169.36 616.416,-312.135 634.324,-373.736"/>
<polygon fill="black" stroke="black" points="631.03,-374.943 637.179,-383.571 637.752,-372.991 631.03,-374.943"/>
</g>
<!-- AS3356&#45;&gt;AS6453 -->
<g id="edge43" class="edge"><title>AS3356&#45;&gt;AS6453</title>
<path fill="none" stroke="black" d="M552.195,-121.006C568.152,-113.694 588.423,-104.405 605.705,-96.4856"/>
<polygon fill="black" stroke="black" points="607.32,-99.5957 614.953,-92.248 604.404,-93.232 607.32,-99.5957"/>
</g>
<!-- AS209 -->
<g id="node26" class="node"><title>AS209</title>
<g id="a_node26"><a xlink:href="/asn/209" xlink:title="AS209 ~ CenturyLink Communications, LLC [US]">
<ellipse fill="#ffffff" stroke="black" cx="643.409" cy="-133.667" rx="35.194" ry="18"/>
<text text-anchor="middle" x="643.409" y="-129.967" font-family="Times,serif" font-size="14.00" fill="#2c94b3">AS209</text>
</a>
</g>
</g>
<!-- AS3356&#45;&gt;AS209 -->
<g id="edge44" class="edge"><title>AS3356&#45;&gt;AS209</title>
<path fill="none" stroke="black" stroke-width="2" d="M563.479,-133.667C574.566,-133.667 586.725,-133.667 598.108,-133.667"/>
<polygon fill="black" stroke="black" stroke-width="2" points="598.289,-137.167 608.289,-133.667 598.289,-130.167 598.289,-137.167"/>
</g>
<!-- AS3549 -->
<g id="node27" class="node"><title>AS3549</title>
<g id="a_node27"><a xlink:href="/asn/3549" xlink:title="AS3549 ~ Level 3 Parent, LLC [US]">
<ellipse fill="#ffffff" stroke="black" cx="643.409" cy="-187.667" rx="39.7935" ry="18"/>
<text text-anchor="middle" x="643.409" y="-183.967" font-family="Times,serif" font-size="14.00" fill="#2c94b3">AS3549</text>
</a>
</g>
</g>
<!-- AS3356&#45;&gt;AS3549 -->
<g id="edge46" class="edge"><title>AS3356&#45;&gt;AS3549</title>
<path fill="none" stroke="black" d="M552.195,-146.327C568.152,-153.639 588.423,-162.928 605.705,-170.848"/>
<polygon fill="black" stroke="black" points="604.404,-174.101 614.953,-175.085 607.32,-167.738 604.404,-174.101"/>
</g>
<!-- AS1299&#45;&gt;AS7018 -->
<g id="edge21" class="edge"><title>AS1299&#45;&gt;AS7018</title>
<path fill="none" stroke="black" stroke-width="2" d="M415.46,-113.1C429.837,-136.37 456.218,-178.814 479.37,-214.667 487.746,-227.637 497.224,-241.94 505.164,-253.818"/>
<polygon fill="black" stroke="black" stroke-width="2" points="502.417,-256.008 510.891,-262.367 508.233,-252.112 502.417,-256.008"/>
</g>
<!-- AS1299&#45;&gt;AS3356 -->
<g id="edge22" class="edge"><title>AS1299&#45;&gt;AS3356</title>
<path fill="none" stroke="black" stroke-width="2" d="M436.614,-105.95C450.238,-110.343 466.324,-115.53 480.873,-120.222"/>
<polygon fill="black" stroke="black" stroke-width="2" points="480.059,-123.637 490.651,-123.375 482.208,-116.975 480.059,-123.637"/>
</g>
<!-- AS1299&#45;&gt;AS174 -->
<g id="edge23" class="edge"><title>AS1299&#45;&gt;AS174</title>
<path fill="none" stroke="black" d="M432.353,-83.0061C448.769,-75.4835 469.75,-65.869 487.347,-57.8054"/>
<polygon fill="black" stroke="black" points="489.092,-60.8561 496.725,-53.5083 486.176,-54.4924 489.092,-60.8561"/>
</g>
<!-- AS1299&#45;&gt;AS6453 -->
<g id="edge24" class="edge"><title>AS1299&#45;&gt;AS6453</title>
<path fill="none" stroke="black" d="M443.176,-93.0782C484.254,-90.313 549.454,-85.924 593.999,-82.9254"/>
<polygon fill="black" stroke="black" points="594.269,-86.4152 604.012,-82.2514 593.799,-79.431 594.269,-86.4152"/>
</g>
<!-- AS3257&#45;&gt;AS701 -->
<g id="edge28" class="edge"><title>AS3257&#45;&gt;AS701</title>
<path fill="none" stroke="black" d="M443.441,-241.667C485.699,-241.667 553.257,-241.667 597.731,-241.667"/>
<polygon fill="black" stroke="black" points="597.958,-245.167 607.958,-241.667 597.958,-238.167 597.958,-245.167"/>
</g>
<!-- AS3257&#45;&gt;AS6762 -->
<g id="edge30" class="edge"><title>AS3257&#45;&gt;AS6762</title>
<path fill="none" stroke="black" d="M414.567,-259.113C427.579,-281.254 452.071,-319.9 479.37,-347.667 519.514,-388.497 574.834,-425.686 609.602,-447.247"/>
<polygon fill="black" stroke="black" points="608.05,-450.401 618.405,-452.644 611.709,-444.433 608.05,-450.401"/>
</g>
<!-- AS3257&#45;&gt;AS2497 -->
<g id="edge25" class="edge"><title>AS3257&#45;&gt;AS2497</title>
<path fill="none" stroke="black" stroke-width="2" d="M421.453,-257.871C436.101,-271.65 458.282,-291.548 479.37,-306.667 521.35,-336.764 573.468,-365.825 607.309,-383.709"/>
<polygon fill="black" stroke="black" stroke-width="2" points="605.865,-386.903 616.346,-388.448 609.116,-380.704 605.865,-386.903"/>
</g>
<!-- AS3257&#45;&gt;AS3356 -->
<g id="edge27" class="edge"><title>AS3257&#45;&gt;AS3356</title>
<path fill="none" stroke="black" d="M428.318,-227.277C433.574,-223.519 438.906,-219.23 443.37,-214.667 463.543,-194.049 458.677,-180.761 479.37,-160.667 482.215,-157.904 485.389,-155.28 488.689,-152.832"/>
<polygon fill="black" stroke="black" points="490.755,-155.66 497.037,-147.129 486.806,-149.88 490.755,-155.66"/>
</g>
<!-- AS3257&#45;&gt;AS174 -->
<g id="edge29" class="edge"><title>AS3257&#45;&gt;AS174</title>
<path fill="none" stroke="black" d="M429.655,-227.785C434.731,-224.055 439.649,-219.651 443.37,-214.667 473.642,-174.125 457.174,-152.134 479.37,-106.667 486.144,-92.7918 495.446,-78.3901 503.683,-66.6796"/>
<polygon fill="black" stroke="black" points="506.712,-68.4628 509.716,-58.3025 501.032,-64.3723 506.712,-68.4628"/>
</g>
<!-- AS6461 -->
<g id="node22" class="node"><title>AS6461</title>
<g id="a_node22"><a xlink:href="/asn/6461" xlink:title="AS6461 ~ Zayo Bandwidth [US]">
<ellipse fill="#ffffff" stroke="black" cx="523.566" cy="-187.667" rx="39.7935" ry="18"/>
<text text-anchor="middle" x="523.566" y="-183.967" font-family="Times,serif" font-size="14.00" fill="#2c94b3">AS6461</text>
</a>
</g>
</g>
<!-- AS3257&#45;&gt;AS6461 -->
<g id="edge26" class="edge"><title>AS3257&#45;&gt;AS6461</title>
<path fill="none" stroke="black" d="M432.353,-229.006C448.31,-221.694 468.58,-212.405 485.863,-204.486"/>
<polygon fill="black" stroke="black" points="487.478,-207.596 495.111,-200.248 484.562,-201.232 487.478,-207.596"/>
</g>
<!-- AS8218&#45;&gt;AS6461 -->
<g id="edge31" class="edge"><title>AS8218&#45;&gt;AS6461</title>
<path fill="none" stroke="black" d="M443.636,-187.667C453.19,-187.667 463.539,-187.667 473.502,-187.667"/>
<polygon fill="black" stroke="black" points="473.695,-191.167 483.695,-187.667 473.694,-184.167 473.695,-191.167"/>
</g>
<!-- AS2914&#45;&gt;AS3491 -->
<g id="edge38" class="edge"><title>AS2914&#45;&gt;AS3491</title>
<path fill="none" stroke="black" d="M433.25,-615.563C448.624,-609.04 467.8,-600.904 484.439,-593.844"/>
<polygon fill="black" stroke="black" points="486.056,-596.96 493.894,-589.832 483.321,-590.516 486.056,-596.96"/>
</g>
<!-- AS2914&#45;&gt;AS1273 -->
<g id="edge39" class="edge"><title>AS2914&#45;&gt;AS1273</title>
<path fill="none" stroke="black" d="M428.2,-613.159C433.46,-609.406 438.824,-605.149 443.37,-600.667 462.87,-581.442 459.385,-569.386 479.37,-550.667 482.265,-547.956 485.471,-545.366 488.79,-542.938"/>
<polygon fill="black" stroke="black" points="490.85,-545.77 497.162,-537.26 486.921,-539.976 490.85,-545.77"/>
</g>
<!-- AS2914&#45;&gt;AS6762 -->
<g id="edge33" class="edge"><title>AS2914&#45;&gt;AS6762</title>
<path fill="none" stroke="black" stroke-width="2" d="M407.84,-645.77C414.471,-678.001 433.322,-744.581 479.37,-772.667 512.909,-793.123 536.867,-796.932 567.762,-772.667 611.645,-738.202 633.001,-564.218 639.858,-495.066"/>
<polygon fill="black" stroke="black" stroke-width="2" points="643.362,-495.195 640.836,-484.905 636.394,-494.524 643.362,-495.195"/>
</g>
<!-- AS2914&#45;&gt;AS2497 -->
<g id="edge32" class="edge"><title>AS2914&#45;&gt;AS2497</title>
<path fill="none" stroke="black" stroke-width="2" d="M436.337,-637.928C472.456,-647.489 531.265,-656.155 567.762,-625.667 632.382,-571.685 563.949,-513.86 603.762,-439.667 606.67,-434.249 610.611,-429.121 614.868,-424.488"/>
<polygon fill="black" stroke="black" stroke-width="2" points="617.581,-426.727 622.206,-417.195 612.646,-421.762 617.581,-426.727"/>
</g>
<!-- AS2914&#45;&gt;AS3356 -->
<g id="edge35" class="edge"><title>AS2914&#45;&gt;AS3356</title>
<path fill="none" stroke="black" stroke-width="2" d="M430.58,-614.393C435.608,-610.632 440.272,-606.061 443.37,-600.667 541.086,-430.521 377.334,-328.257 479.37,-160.667 481.164,-157.721 483.414,-155.046 485.939,-152.627"/>
<polygon fill="black" stroke="black" stroke-width="2" points="488.485,-155.076 494.16,-146.129 484.144,-149.584 488.485,-155.076"/>
</g>
<!-- AS2914&#45;&gt;AS6453 -->
<g id="edge36" class="edge"><title>AS2914&#45;&gt;AS6453</title>
<path fill="none" stroke="black" d="M440.703,-634.205C478.201,-638.729 535.856,-638.819 567.762,-604.667 643.508,-523.588 548.961,-203.144 603.762,-106.667 605.203,-104.131 606.99,-101.779 609.001,-99.6072"/>
<polygon fill="black" stroke="black" points="611.373,-102.182 616.515,-92.9187 606.718,-96.9532 611.373,-102.182"/>
</g>
<!-- AS5511 -->
<g id="node23" class="node"><title>AS5511</title>
<g id="a_node23"><a xlink:href="/asn/5511" xlink:title="AS5511 ~ Orange S.A. [FR]">
<ellipse fill="#ffffff" stroke="black" cx="523.566" cy="-837.667" rx="39.7935" ry="18"/>
<text text-anchor="middle" x="523.566" y="-833.967" font-family="Times,serif" font-size="14.00" fill="#2c94b3">AS5511</text>
</a>
</g>
</g>
<!-- AS2914&#45;&gt;AS5511 -->
<g id="edge34" class="edge"><title>AS2914&#45;&gt;AS5511</title>
<path fill="none" stroke="black" d="M408.875,-645.72C417.412,-679.84 439.558,-754.911 479.37,-805.667 482.599,-809.784 486.486,-813.632 490.587,-817.132"/>
<polygon fill="black" stroke="black" points="488.587,-820.011 498.621,-823.413 492.898,-814.496 488.587,-820.011"/>
</g>
<!-- AS12956 -->
<g id="node24" class="node"><title>AS12956</title>
<g id="a_node24"><a xlink:href="/asn/12956" xlink:title="AS12956 ~ TELXIUS [ES]">
<ellipse fill="#ffffff" stroke="black" cx="523.566" cy="-745.667" rx="44.393" ry="18"/>
<text text-anchor="middle" x="523.566" y="-741.967" font-family="Times,serif" font-size="14.00" fill="#2c94b3">AS12956</text>
</a>
</g>
</g>
<!-- AS2914&#45;&gt;AS12956 -->
<g id="edge37" class="edge"><title>AS2914&#45;&gt;AS12956</title>
<path fill="none" stroke="black" d="M417.757,-644.803C431.925,-662.897 455.72,-691.777 479.37,-713.667 483.21,-717.221 487.44,-720.753 491.704,-724.102"/>
<polygon fill="black" stroke="black" points="489.77,-727.028 499.855,-730.276 493.997,-721.448 489.77,-727.028"/>
</g>
<!-- AS3320 -->
<g id="node25" class="node"><title>AS3320</title>
<g id="a_node25"><a xlink:href="/asn/3320" xlink:title="AS3320 ~ DTAG [DE]">
<ellipse fill="#ffffff" stroke="black" cx="523.566" cy="-891.667" rx="39.7935" ry="18"/>
<text text-anchor="middle" x="523.566" y="-887.967" font-family="Times,serif" font-size="14.00" fill="#2c94b3">AS3320</text>
</a>
</g>
</g>
<!-- AS2914&#45;&gt;AS3320 -->
<g id="edge40" class="edge"><title>AS2914&#45;&gt;AS3320</title>
<path fill="none" stroke="black" d="M406.168,-645.655C410.394,-688.033 426.037,-795.755 479.37,-864.667 481.671,-867.639 484.398,-870.369 487.347,-872.854"/>
<polygon fill="black" stroke="black" points="485.397,-875.765 495.529,-878.863 489.54,-870.123 485.397,-875.765"/>
</g>
<!-- AS6939&#45;&gt;AS3491 -->
<g id="edge47" class="edge"><title>AS6939&#45;&gt;AS3491</title>
<path fill="none" stroke="black" d="M443.31,-574.976C453.076,-575.308 463.693,-575.668 473.887,-576.014"/>
<polygon fill="black" stroke="black" points="473.781,-579.513 483.894,-576.354 474.018,-572.517 473.781,-579.513"/>
</g>
<!-- AS6939&#45;&gt;AS2497 -->
<g id="edge48" class="edge"><title>AS6939&#45;&gt;AS2497</title>
<path fill="none" stroke="black" d="M427.479,-588.185C461.746,-608.013 526.921,-637.558 567.762,-604.667 626.221,-557.588 567.493,-505.38 603.762,-439.667 606.733,-434.284 610.706,-429.173 614.974,-424.546"/>
<polygon fill="black" stroke="black" points="617.687,-426.785 622.314,-417.254 612.753,-421.819 617.687,-426.785"/>
</g>
</g>
</svg>
