<?xml version="1.0" encoding="UTF-8" standalone="no"?>
<!DOCTYPE svg PUBLIC "-//W3C//DTD SVG 1.1//EN"
 "http://www.w3.org/Graphics/SVG/1.1/DTD/svg11.dtd">
<!-- Generated by graphviz version 2.38.0 (20140413.2041)
 -->
<!-- Title: AS39259 Combined Upstream Graph Pages: 1 -->
<svg width="576pt" height="692pt"
 viewBox="0.00 0.00 575.76 692.00" xmlns="http://www.w3.org/2000/svg" xmlns:xlink="http://www.w3.org/1999/xlink">
<g id="graph0" class="graph" transform="scale(1 1) rotate(0) translate(4 688)">
<title>AS39259 Combined Upstream Graph</title>
<polygon fill="white" stroke="none" points="-4,4 -4,-688 571.762,-688 571.762,4 -4,4"/>
<!-- AS39259 -->
<g id="node1" class="node"><title>AS39259</title>
<g id="a_node1"><a xlink:href="/asn/39259" xlink:title="AS39259 ~ Reisenbauer Holding OUE [AT]">
<ellipse fill="#ffffff" stroke="black" cx="44.1961" cy="-342" rx="44.393" ry="18"/>
<text text-anchor="middle" x="44.1961" y="-338.3" font-family="Times,serif" font-size="14.00" fill="#880000">AS39259</text>
</a>
</g>
</g>
<!-- AS5404 -->
<g id="node2" class="node"><title>AS5404</title>
<g id="a_node2"><a xlink:href="/asn/5404" xlink:title="AS5404 ~ ASN conova communications GmbH [AT]">
<ellipse fill="#ffffff" stroke="black" cx="164.039" cy="-342" rx="39.7935" ry="18"/>
<text text-anchor="middle" x="164.039" y="-338.3" font-family="Times,serif" font-size="14.00" fill="#2c94b3">AS5404</text>
</a>
</g>
</g>
<!-- AS39259&#45;&gt;AS5404 -->
<g id="edge1" class="edge"><title>AS39259&#45;&gt;AS5404</title>
<path fill="none" stroke="black" stroke-width="4.5" d="M88.4072,-342C96.7198,-342 105.482,-342 113.965,-342"/>
<polygon fill="black" stroke="black" stroke-width="4.5" points="114.123,-345.938 124.123,-342 114.123,-338.063 114.123,-345.938"/>
</g>
<!-- AS33891 -->
<g id="node3" class="node"><title>AS33891</title>
<g id="a_node3"><a xlink:href="/asn/33891" xlink:title="AS33891 ~ CORE&#45;BACKBONE GMBH GLOBAL NETWORK [DE]">
<ellipse fill="#ffffff" stroke="black" cx="283.881" cy="-381" rx="44.393" ry="18"/>
<text text-anchor="middle" x="283.881" y="-377.3" font-family="Times,serif" font-size="14.00" fill="#2c94b3">AS33891</text>
</a>
</g>
</g>
<!-- AS5404&#45;&gt;AS33891 -->
<g id="edge2" class="edge"><title>AS5404&#45;&gt;AS33891</title>
<path fill="none" stroke="black" stroke-width="4.5" d="M196.618,-352.451C209.802,-356.814 225.332,-361.954 239.556,-366.661"/>
<polygon fill="black" stroke="black" stroke-width="4.5" points="238.418,-370.433 249.149,-369.836 240.893,-362.956 238.418,-370.433"/>
</g>
<!-- AS1764 -->
<g id="node4" class="node"><title>AS1764</title>
<g id="a_node4"><a xlink:href="/asn/1764" xlink:title="AS1764 ~ NEXTLAYER&#45;AS [AT]">
<ellipse fill="#ffffff" stroke="black" cx="283.881" cy="-188" rx="39.7935" ry="18"/>
<text text-anchor="middle" x="283.881" y="-184.3" font-family="Times,serif" font-size="14.00" fill="#2c94b3">AS1764</text>
</a>
</g>
</g>
<!-- AS5404&#45;&gt;AS1764 -->
<g id="edge3" class="edge"><title>AS5404&#45;&gt;AS1764</title>
<path fill="none" stroke="black" stroke-width="3.375" d="M178.1,-324.931C198.805,-297.873 239.283,-244.976 263.417,-213.436"/>
<polygon fill="black" stroke="black" stroke-width="3.375" points="266.464,-215.214 269.761,-205.146 260.905,-210.96 266.464,-215.214"/>
</g>
<!-- AS6830 -->
<g id="node5" class="node"><title>AS6830</title>
<g id="a_node5"><a xlink:href="/asn/6830" xlink:title="AS6830 ~ LGI&#45;UPC [AT]">
<ellipse fill="#ffffff" stroke="black" cx="403.724" cy="-296" rx="39.7935" ry="18"/>
<text text-anchor="middle" x="403.724" y="-292.3" font-family="Times,serif" font-size="14.00" fill="#2c94b3">AS6830</text>
</a>
</g>
</g>
<!-- AS5404&#45;&gt;AS6830 -->
<g id="edge4" class="edge"><title>AS5404&#45;&gt;AS6830</title>
<path fill="none" stroke="black" stroke-width="3.15" d="M200.88,-335.064C242.596,-326.99 311.566,-313.642 357.078,-304.834"/>
<polygon fill="black" stroke="black" stroke-width="3.15" points="357.827,-308.254 366.98,-302.918 356.497,-301.382 357.827,-308.254"/>
</g>
<!-- AS8445 -->
<g id="node6" class="node"><title>AS8445</title>
<g id="a_node6"><a xlink:href="/asn/8445" xlink:title="AS8445 ~ SALZBURG&#45;AG&#45;AS [AT]">
<ellipse fill="#ffffff" stroke="black" cx="283.881" cy="-485" rx="39.7935" ry="18"/>
<text text-anchor="middle" x="283.881" y="-481.3" font-family="Times,serif" font-size="14.00" fill="#2c94b3">AS8445</text>
</a>
</g>
</g>
<!-- AS5404&#45;&gt;AS8445 -->
<g id="edge5" class="edge"><title>AS5404&#45;&gt;AS8445</title>
<path fill="none" stroke="black" stroke-width="0.45" d="M179.019,-358.966C199.662,-384.014 238.422,-431.049 262.311,-460.038"/>
<polygon fill="black" stroke="black" stroke-width="0.45" points="259.858,-462.565 268.919,-468.057 265.26,-458.113 259.858,-462.565"/>
</g>
<!-- AS1299 -->
<g id="node7" class="node"><title>AS1299</title>
<g id="a_node7"><a xlink:href="/asn/1299" xlink:title="AS1299 ~ Telia Carrier [EU]">
<ellipse fill="#ffffff" stroke="black" cx="403.724" cy="-381" rx="39.7935" ry="18"/>
<text text-anchor="middle" x="403.724" y="-377.3" font-family="Times,serif" font-size="14.00" fill="#2c94b3">AS1299</text>
</a>
</g>
</g>
<!-- AS33891&#45;&gt;AS1299 -->
<g id="edge6" class="edge"><title>AS33891&#45;&gt;AS1299</title>
<path fill="none" stroke="black" stroke-width="1.73077" d="M328.092,-381C336.405,-381 345.168,-381 353.65,-381"/>
<polygon fill="black" stroke="black" stroke-width="1.73077" points="353.809,-384.5 363.809,-381 353.809,-377.5 353.809,-384.5"/>
</g>
<!-- AS3356 -->
<g id="node8" class="node"><title>AS3356</title>
<g id="a_node8"><a xlink:href="/asn/3356" xlink:title="AS3356 ~ Level 3 Parent, LLC [US]">
<ellipse fill="#ffffff" stroke="black" cx="403.724" cy="-504" rx="39.7935" ry="18"/>
<text text-anchor="middle" x="403.724" y="-500.3" font-family="Times,serif" font-size="14.00" fill="#2c94b3">AS3356</text>
</a>
</g>
</g>
<!-- AS33891&#45;&gt;AS3356 -->
<g id="edge7" class="edge"><title>AS33891&#45;&gt;AS3356</title>
<path fill="none" stroke="black" stroke-width="4.5" d="M301.02,-397.845C321.383,-419.099 356.536,-455.791 379.711,-479.98"/>
<polygon fill="black" stroke="black" stroke-width="4.5" points="377.019,-482.862 386.78,-487.359 382.705,-477.414 377.019,-482.862"/>
</g>
<!-- AS3257 -->
<g id="node9" class="node"><title>AS3257</title>
<g id="a_node9"><a xlink:href="/asn/3257" xlink:title="AS3257 ~ GTT [DE]">
<ellipse fill="#ffffff" stroke="black" cx="523.566" cy="-72" rx="39.7935" ry="18"/>
<text text-anchor="middle" x="523.566" y="-68.3" font-family="Times,serif" font-size="14.00" fill="#2c94b3">AS3257</text>
</a>
</g>
</g>
<!-- AS33891&#45;&gt;AS3257 -->
<g id="edge8" class="edge"><title>AS33891&#45;&gt;AS3257</title>
<path fill="none" stroke="black" stroke-width="0.346154" d="M289.578,-362.867C305.108,-303.179 354.371,-116.104 364.077,-107 393.227,-79.6595 438.723,-71.8704 473.507,-70.361"/>
<polygon fill="black" stroke="black" stroke-width="0.346154" points="474.026,-73.8483 483.928,-70.0794 473.837,-66.8509 474.026,-73.8483"/>
</g>
<!-- AS1273 -->
<g id="node10" class="node"><title>AS1273</title>
<g id="a_node10"><a xlink:href="/asn/1273" xlink:title="AS1273 ~ Vodafone Group PLC [EU]">
<ellipse fill="#ffffff" stroke="black" cx="523.566" cy="-450" rx="39.7935" ry="18"/>
<text text-anchor="middle" x="523.566" y="-446.3" font-family="Times,serif" font-size="14.00" fill="#2c94b3">AS1273</text>
</a>
</g>
</g>
<!-- AS33891&#45;&gt;AS1273 -->
<g id="edge9" class="edge"><title>AS33891&#45;&gt;AS1273</title>
<path fill="none" stroke="black" stroke-width="0.346154" d="M317.853,-392.813C332.01,-397.737 348.783,-403.372 364.077,-408 402.429,-419.604 446.524,-431.146 478.45,-439.185"/>
<polygon fill="black" stroke="black" stroke-width="0.346154" points="477.815,-442.634 488.365,-441.667 479.515,-435.843 477.815,-442.634"/>
</g>
<!-- AS2914 -->
<g id="node11" class="node"><title>AS2914</title>
<g id="a_node11"><a xlink:href="/asn/2914" xlink:title="AS2914 ~ NTT America, Inc. [US]">
<ellipse fill="#ffffff" stroke="black" cx="403.724" cy="-242" rx="39.7935" ry="18"/>
<text text-anchor="middle" x="403.724" y="-238.3" font-family="Times,serif" font-size="14.00" fill="#2c94b3">AS2914</text>
</a>
</g>
</g>
<!-- AS1764&#45;&gt;AS2914 -->
<g id="edge10" class="edge"><title>AS1764&#45;&gt;AS2914</title>
<path fill="none" stroke="black" stroke-width="4.5" d="M312.51,-200.661C328.467,-207.973 348.738,-217.261 366.02,-225.181"/>
<polygon fill="black" stroke="black" stroke-width="4.5" points="364.537,-228.832 375.268,-229.419 367.817,-221.673 364.537,-228.832"/>
</g>
<!-- AS174 -->
<g id="node12" class="node"><title>AS174</title>
<g id="a_node12"><a xlink:href="/asn/174" xlink:title="AS174 ~ Cogent Communications [US]">
<ellipse fill="#ffffff" stroke="black" cx="403.724" cy="-134" rx="35.194" ry="18"/>
<text text-anchor="middle" x="403.724" y="-130.3" font-family="Times,serif" font-size="14.00" fill="#2c94b3">AS174</text>
</a>
</g>
</g>
<!-- AS1764&#45;&gt;AS174 -->
<g id="edge11" class="edge"><title>AS1764&#45;&gt;AS174</title>
<path fill="none" stroke="black" stroke-width="4.5" d="M312.51,-175.339C328.926,-167.817 349.908,-158.202 367.505,-150.139"/>
<polygon fill="black" stroke="black" stroke-width="4.5" points="369.431,-153.587 376.882,-145.842 366.151,-146.428 369.431,-153.587"/>
</g>
<!-- AS8218 -->
<g id="node13" class="node"><title>AS8218</title>
<g id="a_node13"><a xlink:href="/asn/8218" xlink:title="AS8218 ~ legacy Neotelecoms [FR]">
<ellipse fill="#ffffff" stroke="black" cx="403.724" cy="-30" rx="39.7935" ry="18"/>
<text text-anchor="middle" x="403.724" y="-26.3" font-family="Times,serif" font-size="14.00" fill="#2c94b3">AS8218</text>
</a>
</g>
</g>
<!-- AS1764&#45;&gt;AS8218 -->
<g id="edge12" class="edge"><title>AS1764&#45;&gt;AS8218</title>
<path fill="none" stroke="black" stroke-width="1.8" d="M295.254,-170.527C309.587,-146.882 336.785,-103.774 364.077,-70 368.563,-64.4492 373.679,-58.7696 378.689,-53.4982"/>
<polygon fill="black" stroke="black" stroke-width="1.8" points="381.396,-55.7353 385.866,-46.1295 376.381,-50.8512 381.396,-55.7353"/>
</g>
<!-- AS6939 -->
<g id="node14" class="node"><title>AS6939</title>
<g id="a_node14"><a xlink:href="/asn/6939" xlink:title="AS6939 ~ Hurricane Electric LLC [US]">
<ellipse fill="#ffffff" stroke="black" cx="403.724" cy="-188" rx="39.7935" ry="18"/>
<text text-anchor="middle" x="403.724" y="-184.3" font-family="Times,serif" font-size="14.00" fill="#2c94b3">AS6939</text>
</a>
</g>
</g>
<!-- AS1764&#45;&gt;AS6939 -->
<g id="edge13" class="edge"><title>AS1764&#45;&gt;AS6939</title>
<path fill="none" stroke="black" stroke-width="2.7" d="M323.794,-188C333.347,-188 343.697,-188 353.659,-188"/>
<polygon fill="black" stroke="black" stroke-width="2.7" points="353.852,-191.5 363.852,-188 353.852,-184.5 353.852,-191.5"/>
</g>
<!-- AS6830&#45;&gt;AS3257 -->
<g id="edge22" class="edge"><title>AS6830&#45;&gt;AS3257</title>
<path fill="none" stroke="black" d="M430.081,-282.419C435.135,-278.673 439.936,-274.187 443.37,-269 486.006,-204.604 435.101,-162.284 479.37,-99 481.347,-96.1738 483.724,-93.5821 486.334,-91.219"/>
<polygon fill="black" stroke="black" points="488.886,-93.6724 494.692,-84.8097 484.627,-88.1177 488.886,-93.6724"/>
</g>
<!-- AS6830&#45;&gt;AS1273 -->
<g id="edge21" class="edge"><title>AS6830&#45;&gt;AS1273</title>
<path fill="none" stroke="black" d="M416.888,-313.202C424.759,-324.581 435.051,-339.942 443.37,-354 460.985,-383.768 455.881,-397.609 479.37,-423 481.923,-425.759 484.818,-428.346 487.872,-430.742"/>
<polygon fill="black" stroke="black" points="486.015,-433.715 496.202,-436.626 490.054,-427.998 486.015,-433.715"/>
</g>
<!-- AS6762 -->
<g id="node15" class="node"><title>AS6762</title>
<g id="a_node15"><a xlink:href="/asn/6762" xlink:title="AS6762 ~ TELECOM ITALIA SPARKLE S.p.A. [IT]">
<ellipse fill="#ffffff" stroke="black" cx="523.566" cy="-288" rx="39.7935" ry="18"/>
<text text-anchor="middle" x="523.566" y="-284.3" font-family="Times,serif" font-size="14.00" fill="#2c94b3">AS6762</text>
</a>
</g>
</g>
<!-- AS6830&#45;&gt;AS6762 -->
<g id="edge14" class="edge"><title>AS6830&#45;&gt;AS6762</title>
<path fill="none" stroke="black" stroke-width="2" d="M442.984,-293.403C452.863,-292.732 463.63,-292.001 473.96,-291.3"/>
<polygon fill="black" stroke="black" stroke-width="2" points="474.355,-294.781 484.095,-290.612 473.881,-287.797 474.355,-294.781"/>
</g>
<!-- AS12956 -->
<g id="node16" class="node"><title>AS12956</title>
<g id="a_node16"><a xlink:href="/asn/12956" xlink:title="AS12956 ~ TELXIUS [ES]">
<ellipse fill="#ffffff" stroke="black" cx="523.566" cy="-342" rx="44.393" ry="18"/>
<text text-anchor="middle" x="523.566" y="-338.3" font-family="Times,serif" font-size="14.00" fill="#2c94b3">AS12956</text>
</a>
</g>
</g>
<!-- AS6830&#45;&gt;AS12956 -->
<g id="edge15" class="edge"><title>AS6830&#45;&gt;AS12956</title>
<path fill="none" stroke="black" d="M434.46,-307.608C448.689,-313.162 465.956,-319.902 481.421,-325.939"/>
<polygon fill="black" stroke="black" points="480.185,-329.214 490.773,-329.59 482.731,-322.693 480.185,-329.214"/>
</g>
<!-- AS701 -->
<g id="node17" class="node"><title>AS701</title>
<g id="a_node17"><a xlink:href="/asn/701" xlink:title="AS701 ~ UUNET [US]">
<ellipse fill="#ffffff" stroke="black" cx="523.566" cy="-504" rx="35.194" ry="18"/>
<text text-anchor="middle" x="523.566" y="-500.3" font-family="Times,serif" font-size="14.00" fill="#2c94b3">AS701</text>
</a>
</g>
</g>
<!-- AS6830&#45;&gt;AS701 -->
<g id="edge16" class="edge"><title>AS6830&#45;&gt;AS701</title>
<path fill="none" stroke="black" stroke-width="2" d="M418.021,-312.95C426.252,-324.102 436.519,-339.305 443.37,-354 467.438,-405.625 444.969,-431.601 479.37,-477 481.954,-480.41 485.104,-483.495 488.513,-486.257"/>
<polygon fill="black" stroke="black" stroke-width="2" points="486.611,-489.198 496.796,-492.113 490.652,-483.482 486.611,-489.198"/>
</g>
<!-- AS1239 -->
<g id="node18" class="node"><title>AS1239</title>
<g id="a_node18"><a xlink:href="/asn/1239" xlink:title="AS1239 ~ Sprint [US]">
<ellipse fill="#ffffff" stroke="black" cx="523.566" cy="-180" rx="39.7935" ry="18"/>
<text text-anchor="middle" x="523.566" y="-176.3" font-family="Times,serif" font-size="14.00" fill="#2c94b3">AS1239</text>
</a>
</g>
</g>
<!-- AS6830&#45;&gt;AS1239 -->
<g id="edge17" class="edge"><title>AS6830&#45;&gt;AS1239</title>
<path fill="none" stroke="black" d="M428.526,-281.808C433.773,-278.041 439.049,-273.699 443.37,-269 464.938,-245.545 457.209,-229.895 479.37,-207 481.984,-204.299 484.921,-201.751 488.001,-199.379"/>
<polygon fill="black" stroke="black" points="490.177,-202.129 496.366,-193.529 486.165,-196.392 490.177,-202.129"/>
</g>
<!-- AS7018 -->
<g id="node19" class="node"><title>AS7018</title>
<g id="a_node19"><a xlink:href="/asn/7018" xlink:title="AS7018 ~ AT&amp;T Services, Inc. [US]">
<ellipse fill="#ffffff" stroke="black" cx="523.566" cy="-396" rx="39.7935" ry="18"/>
<text text-anchor="middle" x="523.566" y="-392.3" font-family="Times,serif" font-size="14.00" fill="#2c94b3">AS7018</text>
</a>
</g>
</g>
<!-- AS6830&#45;&gt;AS7018 -->
<g id="edge18" class="edge"><title>AS6830&#45;&gt;AS7018</title>
<path fill="none" stroke="black" stroke-width="2" d="M419.821,-312.712C434.287,-328.235 457.144,-351.519 479.37,-369 482.655,-371.583 486.198,-374.133 489.794,-376.573"/>
<polygon fill="black" stroke="black" stroke-width="2" points="487.888,-379.509 498.178,-382.033 491.708,-373.643 487.888,-379.509"/>
</g>
<!-- AS3491 -->
<g id="node20" class="node"><title>AS3491</title>
<g id="a_node20"><a xlink:href="/asn/3491" xlink:title="AS3491 ~ PCCW Global, Inc. [US]">
<ellipse fill="#ffffff" stroke="black" cx="523.566" cy="-126" rx="39.7935" ry="18"/>
<text text-anchor="middle" x="523.566" y="-122.3" font-family="Times,serif" font-size="14.00" fill="#2c94b3">AS3491</text>
</a>
</g>
</g>
<!-- AS6830&#45;&gt;AS3491 -->
<g id="edge19" class="edge"><title>AS6830&#45;&gt;AS3491</title>
<path fill="none" stroke="black" stroke-width="2" d="M429.732,-282.176C434.804,-278.443 439.701,-274.023 443.37,-269 475.215,-225.412 446.421,-195.759 479.37,-153 481.664,-150.023 484.387,-147.29 487.334,-144.802"/>
<polygon fill="black" stroke="black" stroke-width="2" points="489.527,-147.534 495.512,-138.791 485.382,-141.893 489.527,-147.534"/>
</g>
<!-- AS2497 -->
<g id="node21" class="node"><title>AS2497</title>
<g id="a_node21"><a xlink:href="/asn/2497" xlink:title="AS2497 ~ Internet Initiative Japan Inc. [JP]">
<ellipse fill="#ffffff" stroke="black" cx="523.566" cy="-234" rx="39.7935" ry="18"/>
<text text-anchor="middle" x="523.566" y="-230.3" font-family="Times,serif" font-size="14.00" fill="#2c94b3">AS2497</text>
</a>
</g>
</g>
<!-- AS6830&#45;&gt;AS2497 -->
<g id="edge20" class="edge"><title>AS6830&#45;&gt;AS2497</title>
<path fill="none" stroke="black" stroke-width="2" d="M430.294,-282.547C447.203,-273.65 469.577,-261.879 488.058,-252.156"/>
<polygon fill="black" stroke="black" stroke-width="2" points="489.826,-255.18 497.046,-247.427 486.567,-248.986 489.826,-255.18"/>
</g>
<!-- AS6453 -->
<g id="node23" class="node"><title>AS6453</title>
<g id="a_node23"><a xlink:href="/asn/6453" xlink:title="AS6453 ~ TATA COMMUNICATIONS (AMERICA) INC [US]">
<ellipse fill="#ffffff" stroke="black" cx="523.566" cy="-666" rx="39.7935" ry="18"/>
<text text-anchor="middle" x="523.566" y="-662.3" font-family="Times,serif" font-size="14.00" fill="#2c94b3">AS6453</text>
</a>
</g>
</g>
<!-- AS8445&#45;&gt;AS6453 -->
<g id="edge37" class="edge"><title>AS8445&#45;&gt;AS6453</title>
<path fill="none" stroke="black" stroke-width="2" d="M303.394,-500.8C337.361,-529.528 412.319,-591.717 479.37,-639 482.867,-641.465 486.584,-643.963 490.314,-646.393"/>
<polygon fill="black" stroke="black" stroke-width="2" points="488.628,-649.469 498.942,-651.892 492.391,-643.566 488.628,-649.469"/>
</g>
<!-- AS1299&#45;&gt;AS6762 -->
<g id="edge31" class="edge"><title>AS1299&#45;&gt;AS6762</title>
<path fill="none" stroke="black" d="M421.532,-364.685C436.23,-350.781 458.439,-330.627 479.37,-315 482.719,-312.5 486.303,-310.003 489.921,-307.593"/>
<polygon fill="black" stroke="black" points="491.826,-310.53 498.332,-302.168 488.031,-304.647 491.826,-310.53"/>
</g>
<!-- AS1299&#45;&gt;AS7018 -->
<g id="edge32" class="edge"><title>AS1299&#45;&gt;AS7018</title>
<path fill="none" stroke="black" stroke-width="2" d="M442.01,-385.746C452.542,-387.087 464.144,-388.564 475.184,-389.969"/>
<polygon fill="black" stroke="black" stroke-width="2" points="474.756,-393.442 485.118,-391.233 475.64,-386.499 474.756,-393.442"/>
</g>
<!-- AS3356&#45;&gt;AS6762 -->
<g id="edge23" class="edge"><title>AS3356&#45;&gt;AS6762</title>
<path fill="none" stroke="black" stroke-width="2" d="M411.918,-486.335C419.733,-467.097 432.55,-435.406 443.37,-408 459.646,-366.775 451.132,-349.162 479.37,-315 481.765,-312.103 484.555,-309.424 487.543,-306.97"/>
<polygon fill="black" stroke="black" stroke-width="2" points="489.733,-309.705 495.78,-301.005 485.628,-304.035 489.733,-309.705"/>
</g>
<!-- AS3356&#45;&gt;AS701 -->
<g id="edge26" class="edge"><title>AS3356&#45;&gt;AS701</title>
<path fill="none" stroke="black" stroke-width="2" d="M443.636,-504C454.723,-504 466.883,-504 478.265,-504"/>
<polygon fill="black" stroke="black" stroke-width="2" points="478.447,-507.5 488.447,-504 478.447,-500.5 478.447,-507.5"/>
</g>
<!-- AS3356&#45;&gt;AS2497 -->
<g id="edge27" class="edge"><title>AS3356&#45;&gt;AS2497</title>
<path fill="none" stroke="black" stroke-width="2" d="M412.766,-486.234C421.182,-467.173 434.396,-435.877 443.37,-408 463.982,-343.972 439.951,-315.503 479.37,-261 481.573,-257.954 484.235,-255.176 487.143,-252.66"/>
<polygon fill="black" stroke="black" stroke-width="2" points="489.338,-255.389 495.268,-246.609 485.157,-249.775 489.338,-255.389"/>
</g>
<!-- AS209 -->
<g id="node22" class="node"><title>AS209</title>
<g id="a_node22"><a xlink:href="/asn/209" xlink:title="AS209 ~ CenturyLink Communications, LLC [US]">
<ellipse fill="#ffffff" stroke="black" cx="523.566" cy="-612" rx="35.194" ry="18"/>
<text text-anchor="middle" x="523.566" y="-608.3" font-family="Times,serif" font-size="14.00" fill="#2c94b3">AS209</text>
</a>
</g>
</g>
<!-- AS3356&#45;&gt;AS209 -->
<g id="edge24" class="edge"><title>AS3356&#45;&gt;AS209</title>
<path fill="none" stroke="black" stroke-width="2" d="M418.143,-521.065C432.257,-538.375 455.672,-565.345 479.37,-585 482.833,-587.872 486.626,-590.669 490.48,-593.308"/>
<polygon fill="black" stroke="black" stroke-width="2" points="488.623,-596.275 498.913,-598.797 492.442,-590.408 488.623,-596.275"/>
</g>
<!-- AS3356&#45;&gt;AS6453 -->
<g id="edge25" class="edge"><title>AS3356&#45;&gt;AS6453</title>
<path fill="none" stroke="black" stroke-width="2" d="M411.247,-521.994C421.997,-549.728 445.655,-603.429 479.37,-639 481.956,-641.728 484.874,-644.294 487.942,-646.677"/>
<polygon fill="black" stroke="black" stroke-width="2" points="486.096,-649.658 496.29,-652.543 490.12,-643.93 486.096,-649.658"/>
</g>
<!-- AS3549 -->
<g id="node24" class="node"><title>AS3549</title>
<g id="a_node24"><a xlink:href="/asn/3549" xlink:title="AS3549 ~ Level 3 Parent, LLC [US]">
<ellipse fill="#ffffff" stroke="black" cx="523.566" cy="-558" rx="39.7935" ry="18"/>
<text text-anchor="middle" x="523.566" y="-554.3" font-family="Times,serif" font-size="14.00" fill="#2c94b3">AS3549</text>
</a>
</g>
</g>
<!-- AS3356&#45;&gt;AS3549 -->
<g id="edge28" class="edge"><title>AS3356&#45;&gt;AS3549</title>
<path fill="none" stroke="black" d="M432.353,-516.661C448.31,-523.973 468.58,-533.261 485.863,-541.181"/>
<polygon fill="black" stroke="black" points="484.562,-544.435 495.111,-545.419 487.478,-538.071 484.562,-544.435"/>
</g>
<!-- AS2914&#45;&gt;AS6762 -->
<g id="edge30" class="edge"><title>AS2914&#45;&gt;AS6762</title>
<path fill="none" stroke="black" d="M434.46,-253.608C449.254,-259.382 467.332,-266.439 483.253,-272.654"/>
<polygon fill="black" stroke="black" points="482.251,-276.02 492.839,-276.396 484.796,-269.499 482.251,-276.02"/>
</g>
<!-- AS2914&#45;&gt;AS2497 -->
<g id="edge29" class="edge"><title>AS2914&#45;&gt;AS2497</title>
<path fill="none" stroke="black" stroke-width="2" d="M442.984,-239.403C452.863,-238.732 463.63,-238.001 473.96,-237.3"/>
<polygon fill="black" stroke="black" stroke-width="2" points="474.355,-240.781 484.095,-236.612 473.881,-233.797 474.355,-240.781"/>
</g>
<!-- AS174&#45;&gt;AS3257 -->
<g id="edge35" class="edge"><title>AS174&#45;&gt;AS3257</title>
<path fill="none" stroke="black" d="M428.855,-121.304C445.868,-112.353 468.91,-100.23 487.888,-90.2451"/>
<polygon fill="black" stroke="black" points="489.614,-93.2922 496.834,-85.5385 486.354,-87.0973 489.614,-93.2922"/>
</g>
<!-- AS174&#45;&gt;AS1239 -->
<g id="edge33" class="edge"><title>AS174&#45;&gt;AS1239</title>
<path fill="none" stroke="black" d="M432.055,-144.669C447.288,-150.615 466.519,-158.122 483.333,-164.685"/>
<polygon fill="black" stroke="black" points="482.318,-168.046 492.906,-168.422 484.863,-161.525 482.318,-168.046"/>
</g>
<!-- AS174&#45;&gt;AS3491 -->
<g id="edge34" class="edge"><title>AS174&#45;&gt;AS3491</title>
<path fill="none" stroke="black" d="M438.809,-131.686C449.744,-130.944 462.077,-130.106 473.849,-129.307"/>
<polygon fill="black" stroke="black" points="474.261,-132.787 484.001,-128.618 473.787,-125.804 474.261,-132.787"/>
</g>
<!-- AS6461 -->
<g id="node25" class="node"><title>AS6461</title>
<g id="a_node25"><a xlink:href="/asn/6461" xlink:title="AS6461 ~ Zayo Bandwidth [US]">
<ellipse fill="#ffffff" stroke="black" cx="523.566" cy="-18" rx="39.7935" ry="18"/>
<text text-anchor="middle" x="523.566" y="-14.3" font-family="Times,serif" font-size="14.00" fill="#2c94b3">AS6461</text>
</a>
</g>
</g>
<!-- AS8218&#45;&gt;AS6461 -->
<g id="edge36" class="edge"><title>AS8218&#45;&gt;AS6461</title>
<path fill="none" stroke="black" stroke-width="2" d="M442.659,-26.1371C452.856,-25.0986 464.019,-23.962 474.681,-22.8762"/>
<polygon fill="black" stroke="black" stroke-width="2" points="475.109,-26.3508 484.703,-21.8557 474.399,-19.3869 475.109,-26.3508"/>
</g>
<!-- AS6939&#45;&gt;AS6762 -->
<g id="edge39" class="edge"><title>AS6939&#45;&gt;AS6762</title>
<path fill="none" stroke="black" d="M427.666,-202.353C433.06,-206.172 438.616,-210.497 443.37,-215 462.218,-232.853 460.071,-243.635 479.37,-261 482.318,-263.653 485.559,-266.205 488.9,-268.609"/>
<polygon fill="black" stroke="black" points="487.047,-271.582 497.298,-274.259 490.954,-265.773 487.047,-271.582"/>
</g>
<!-- AS6939&#45;&gt;AS3491 -->
<g id="edge38" class="edge"><title>AS6939&#45;&gt;AS3491</title>
<path fill="none" stroke="black" d="M430.294,-174.547C447.203,-165.65 469.577,-153.879 488.058,-144.156"/>
<polygon fill="black" stroke="black" points="489.826,-147.18 497.046,-139.427 486.567,-140.986 489.826,-147.18"/>
</g>
<!-- AS6939&#45;&gt;AS2497 -->
<g id="edge40" class="edge"><title>AS6939&#45;&gt;AS2497</title>
<path fill="none" stroke="black" d="M434.46,-199.608C449.254,-205.382 467.332,-212.439 483.253,-218.654"/>
<polygon fill="black" stroke="black" points="482.251,-222.02 492.839,-222.396 484.796,-215.499 482.251,-222.02"/>
</g>
</g>
</svg>
