<?xml version="1.0" encoding="UTF-8" standalone="no"?>
<!DOCTYPE svg PUBLIC "-//W3C//DTD SVG 1.1//EN"
 "http://www.w3.org/Graphics/SVG/1.1/DTD/svg11.dtd">
<!-- Generated by graphviz version 2.38.0 (20140413.2041)
 -->
<!-- Title: AS29545 IPv4 Upstream Graph Pages: 1 -->
<svg width="451pt" height="584pt"
 viewBox="0.00 0.00 451.37 584.00" xmlns="http://www.w3.org/2000/svg" xmlns:xlink="http://www.w3.org/1999/xlink">
<g id="graph0" class="graph" transform="scale(1 1) rotate(0) translate(4 580)">
<title>AS29545 IPv4 Upstream Graph</title>
<polygon fill="white" stroke="none" points="-4,4 -4,-580 447.37,-580 447.37,4 -4,4"/>
<!-- AS29545 -->
<g id="node1" class="node"><title>AS29545</title>
<g id="a_node1"><a xlink:href="/asn/29545" xlink:title="AS29545 ~ Ringstrasse 5 [AT]">
<ellipse fill="#ffffff" stroke="black" cx="44.1961" cy="-207" rx="44.393" ry="18"/>
<text text-anchor="middle" x="44.1961" y="-203.3" font-family="Times,serif" font-size="14.00" fill="#880000">AS29545</text>
</a>
</g>
</g>
<!-- AS9002 -->
<g id="node2" class="node"><title>AS9002</title>
<g id="a_node2"><a xlink:href="/asn/9002" xlink:title="AS9002 ~ RETN Limited [EU]">
<ellipse fill="#ffffff" stroke="black" cx="168.588" cy="-234" rx="39.7935" ry="18"/>
<text text-anchor="middle" x="168.588" y="-230.3" font-family="Times,serif" font-size="14.00" fill="#2c94b3">AS9002</text>
</a>
</g>
</g>
<!-- AS29545&#45;&gt;AS9002 -->
<g id="edge1" class="edge"><title>AS29545&#45;&gt;AS9002</title>
<path fill="none" stroke="black" stroke-width="3.5" d="M83.5859,-215.469C95.9769,-218.202 109.824,-221.257 122.644,-224.085"/>
<polygon fill="black" stroke="black" stroke-width="3.5" points="122.14,-227.558 132.659,-226.295 123.648,-220.722 122.14,-227.558"/>
</g>
<!-- AS33891 -->
<g id="node3" class="node"><title>AS33891</title>
<g id="a_node3"><a xlink:href="/asn/33891" xlink:title="AS33891 ~ CORE&#45;BACKBONE GMBH GLOBAL NETWORK [DE]">
<ellipse fill="#ffffff" stroke="black" cx="168.588" cy="-180" rx="44.393" ry="18"/>
<text text-anchor="middle" x="168.588" y="-176.3" font-family="Times,serif" font-size="14.00" fill="#2c94b3">AS33891</text>
</a>
</g>
</g>
<!-- AS29545&#45;&gt;AS33891 -->
<g id="edge2" class="edge"><title>AS29545&#45;&gt;AS33891</title>
<path fill="none" stroke="black" stroke-width="4.5" d="M83.5859,-198.531C94.9779,-196.018 107.6,-193.233 119.525,-190.603"/>
<polygon fill="black" stroke="black" stroke-width="4.5" points="120.418,-194.438 129.335,-188.439 118.721,-186.748 120.418,-194.438"/>
</g>
<!-- AS3356 -->
<g id="node4" class="node"><title>AS3356</title>
<g id="a_node4"><a xlink:href="/asn/3356" xlink:title="AS3356 ~ Level 3 Parent, LLC [US]">
<ellipse fill="#ffffff" stroke="black" cx="288.431" cy="-261" rx="39.7935" ry="18"/>
<text text-anchor="middle" x="288.431" y="-257.3" font-family="Times,serif" font-size="14.00" fill="#2c94b3">AS3356</text>
</a>
</g>
</g>
<!-- AS9002&#45;&gt;AS3356 -->
<g id="edge3" class="edge"><title>AS9002&#45;&gt;AS3356</title>
<path fill="none" stroke="black" stroke-width="4.5" d="M204.308,-241.955C216.307,-244.704 229.928,-247.825 242.621,-250.733"/>
<polygon fill="black" stroke="black" stroke-width="4.5" points="241.926,-254.613 252.552,-253.009 243.684,-246.937 241.926,-254.613"/>
</g>
<!-- AS6453 -->
<g id="node5" class="node"><title>AS6453</title>
<g id="a_node5"><a xlink:href="/asn/6453" xlink:title="AS6453 ~ TATA COMMUNICATIONS (AMERICA) INC [US]">
<ellipse fill="#ffffff" stroke="black" cx="403.724" cy="-558" rx="39.7935" ry="18"/>
<text text-anchor="middle" x="403.724" y="-554.3" font-family="Times,serif" font-size="14.00" fill="#2c94b3">AS6453</text>
</a>
</g>
</g>
<!-- AS9002&#45;&gt;AS6453 -->
<g id="edge4" class="edge"><title>AS9002&#45;&gt;AS6453</title>
<path fill="none" stroke="black" stroke-width="0.5" d="M175.448,-251.888C186.675,-284.727 213.291,-356.111 248.784,-409 290.356,-470.947 307.585,-482.273 364.077,-531 366.556,-533.138 369.204,-535.268 371.908,-537.338"/>
<polygon fill="black" stroke="black" stroke-width="0.5" points="369.938,-540.234 380.071,-543.326 374.078,-534.59 369.938,-540.234"/>
</g>
<!-- AS2497 -->
<g id="node6" class="node"><title>AS2497</title>
<g id="a_node6"><a xlink:href="/asn/2497" xlink:title="AS2497 ~ Internet Initiative Japan Inc. [JP]">
<ellipse fill="#ffffff" stroke="black" cx="403.724" cy="-504" rx="39.7935" ry="18"/>
<text text-anchor="middle" x="403.724" y="-500.3" font-family="Times,serif" font-size="14.00" fill="#2c94b3">AS2497</text>
</a>
</g>
</g>
<!-- AS9002&#45;&gt;AS2497 -->
<g id="edge5" class="edge"><title>AS9002&#45;&gt;AS2497</title>
<path fill="none" stroke="black" stroke-width="0.5" d="M180.852,-251.29C208.637,-293.148 284.027,-402.003 364.077,-477 366.466,-479.238 369.052,-481.436 371.716,-483.552"/>
<polygon fill="black" stroke="black" stroke-width="0.5" points="369.712,-486.424 379.816,-489.61 373.904,-480.818 369.712,-486.424"/>
</g>
<!-- AS3257 -->
<g id="node7" class="node"><title>AS3257</title>
<g id="a_node7"><a xlink:href="/asn/3257" xlink:title="AS3257 ~ GTT [DE]">
<ellipse fill="#ffffff" stroke="black" cx="288.431" cy="-153" rx="39.7935" ry="18"/>
<text text-anchor="middle" x="288.431" y="-149.3" font-family="Times,serif" font-size="14.00" fill="#2c94b3">AS3257</text>
</a>
</g>
</g>
<!-- AS9002&#45;&gt;AS3257 -->
<g id="edge6" class="edge"><title>AS9002&#45;&gt;AS3257</title>
<path fill="none" stroke="black" stroke-width="0.5" d="M193.137,-219.784C199.579,-215.76 206.512,-211.301 212.784,-207 229.279,-195.689 232.584,-191.729 248.784,-180 251.587,-177.971 254.519,-175.875 257.46,-173.79"/>
<polygon fill="black" stroke="black" stroke-width="0.5" points="259.511,-176.627 265.674,-168.009 255.482,-170.903 259.511,-176.627"/>
</g>
<!-- AS6461 -->
<g id="node8" class="node"><title>AS6461</title>
<g id="a_node8"><a xlink:href="/asn/6461" xlink:title="AS6461 ~ Zayo Bandwidth [US]">
<ellipse fill="#ffffff" stroke="black" cx="288.431" cy="-99" rx="39.7935" ry="18"/>
<text text-anchor="middle" x="288.431" y="-95.3" font-family="Times,serif" font-size="14.00" fill="#2c94b3">AS6461</text>
</a>
</g>
</g>
<!-- AS9002&#45;&gt;AS6461 -->
<g id="edge7" class="edge"><title>AS9002&#45;&gt;AS6461</title>
<path fill="none" stroke="black" stroke-width="0.5" d="M196.187,-220.836C202.187,-216.981 208.145,-212.341 212.784,-207 238.618,-177.258 223.72,-156.394 248.784,-126 250.639,-123.75 252.727,-121.604 254.945,-119.576"/>
<polygon fill="black" stroke="black" stroke-width="0.5" points="257.294,-122.177 262.85,-113.156 252.881,-116.744 257.294,-122.177"/>
</g>
<!-- AS1299 -->
<g id="node9" class="node"><title>AS1299</title>
<g id="a_node9"><a xlink:href="/asn/1299" xlink:title="AS1299 ~ Telia Carrier [EU]">
<ellipse fill="#ffffff" stroke="black" cx="288.431" cy="-207" rx="39.7935" ry="18"/>
<text text-anchor="middle" x="288.431" y="-203.3" font-family="Times,serif" font-size="14.00" fill="#2c94b3">AS1299</text>
</a>
</g>
</g>
<!-- AS9002&#45;&gt;AS1299 -->
<g id="edge8" class="edge"><title>AS9002&#45;&gt;AS1299</title>
<path fill="none" stroke="black" stroke-width="0.5" d="M204.308,-226.045C216.307,-223.296 229.928,-220.175 242.621,-217.267"/>
<polygon fill="black" stroke="black" stroke-width="0.5" points="243.587,-220.636 252.552,-214.991 242.023,-213.813 243.587,-220.636"/>
</g>
<!-- AS33891&#45;&gt;AS3356 -->
<g id="edge21" class="edge"><title>AS33891&#45;&gt;AS3356</title>
<path fill="none" stroke="black" stroke-width="4.5" d="M194.039,-194.78C200.222,-198.655 206.803,-202.899 212.784,-207 229.279,-218.311 232.584,-222.271 248.784,-234 251.587,-236.029 254.519,-238.125 257.46,-240.21"/>
<polygon fill="black" stroke="black" stroke-width="4.5" points="255.23,-243.455 265.674,-245.991 259.762,-237.015 255.23,-243.455"/>
</g>
<!-- AS33891&#45;&gt;AS3257 -->
<g id="edge23" class="edge"><title>AS33891&#45;&gt;AS3257</title>
<path fill="none" stroke="black" stroke-width="0.45" d="M207.523,-171.308C218.764,-168.733 231.176,-165.889 242.799,-163.226"/>
<polygon fill="black" stroke="black" stroke-width="0.45" points="243.795,-166.588 252.761,-160.943 242.232,-159.765 243.795,-166.588"/>
</g>
<!-- AS33891&#45;&gt;AS6461 -->
<g id="edge22" class="edge"><title>AS33891&#45;&gt;AS6461</title>
<path fill="none" stroke="black" stroke-width="0.45" d="M192.031,-164.574C210.612,-151.802 237.173,-133.545 257.553,-119.537"/>
<polygon fill="black" stroke="black" stroke-width="0.45" points="259.609,-122.371 265.867,-113.822 255.643,-116.602 259.609,-122.371"/>
</g>
<!-- AS33891&#45;&gt;AS1299 -->
<g id="edge20" class="edge"><title>AS33891&#45;&gt;AS1299</title>
<path fill="none" stroke="black" stroke-width="2.7" d="M207.523,-188.692C218.764,-191.267 231.176,-194.111 242.799,-196.774"/>
<polygon fill="black" stroke="black" stroke-width="2.7" points="242.232,-200.235 252.761,-199.057 243.795,-193.412 242.232,-200.235"/>
</g>
<!-- AS3356&#45;&gt;AS6453 -->
<g id="edge19" class="edge"><title>AS3356&#45;&gt;AS6453</title>
<path fill="none" stroke="black" d="M290.286,-279.185C293.28,-325.425 306.526,-449.589 364.077,-531 365.76,-533.381 367.724,-535.622 369.856,-537.716"/>
<polygon fill="black" stroke="black" points="367.702,-540.478 377.599,-544.259 372.22,-535.132 367.702,-540.478"/>
</g>
<!-- AS3356&#45;&gt;AS2497 -->
<g id="edge17" class="edge"><title>AS3356&#45;&gt;AS2497</title>
<path fill="none" stroke="black" d="M294.131,-279.102C306.283,-324.979 339.508,-444.469 364.077,-477 365.835,-479.327 367.851,-481.529 370.021,-483.596"/>
<polygon fill="black" stroke="black" points="367.905,-486.389 377.833,-490.088 372.379,-481.005 367.905,-486.389"/>
</g>
<!-- AS174 -->
<g id="node10" class="node"><title>AS174</title>
<g id="a_node10"><a xlink:href="/asn/174" xlink:title="AS174 ~ Cogent Communications [US]">
<ellipse fill="#ffffff" stroke="black" cx="403.724" cy="-18" rx="35.194" ry="18"/>
<text text-anchor="middle" x="403.724" y="-14.3" font-family="Times,serif" font-size="14.00" fill="#2c94b3">AS174</text>
</a>
</g>
</g>
<!-- AS3356&#45;&gt;AS174 -->
<g id="edge9" class="edge"><title>AS3356&#45;&gt;AS174</title>
<path fill="none" stroke="black" d="M314.867,-247.47C319.917,-243.722 324.696,-239.221 328.077,-234 374.552,-162.222 317.602,-116.778 364.077,-45 365.901,-42.1832 368.132,-39.5761 370.593,-37.1837"/>
<polygon fill="black" stroke="black" points="373.011,-39.7257 378.488,-30.6562 368.551,-34.3308 373.011,-39.7257"/>
</g>
<!-- AS3491 -->
<g id="node11" class="node"><title>AS3491</title>
<g id="a_node11"><a xlink:href="/asn/3491" xlink:title="AS3491 ~ PCCW Global, Inc. [US]">
<ellipse fill="#ffffff" stroke="black" cx="403.724" cy="-234" rx="39.7935" ry="18"/>
<text text-anchor="middle" x="403.724" y="-230.3" font-family="Times,serif" font-size="14.00" fill="#2c94b3">AS3491</text>
</a>
</g>
</g>
<!-- AS3356&#45;&gt;AS3491 -->
<g id="edge10" class="edge"><title>AS3356&#45;&gt;AS3491</title>
<path fill="none" stroke="black" stroke-width="2" d="M324.038,-252.752C334.909,-250.162 347.064,-247.265 358.506,-244.538"/>
<polygon fill="black" stroke="black" stroke-width="2" points="359.412,-247.92 368.328,-242.197 357.789,-241.111 359.412,-247.92"/>
</g>
<!-- AS701 -->
<g id="node12" class="node"><title>AS701</title>
<g id="a_node12"><a xlink:href="/asn/701" xlink:title="AS701 ~ UUNET [US]">
<ellipse fill="#ffffff" stroke="black" cx="403.724" cy="-396" rx="35.194" ry="18"/>
<text text-anchor="middle" x="403.724" y="-392.3" font-family="Times,serif" font-size="14.00" fill="#2c94b3">AS701</text>
</a>
</g>
</g>
<!-- AS3356&#45;&gt;AS701 -->
<g id="edge11" class="edge"><title>AS3356&#45;&gt;AS701</title>
<path fill="none" stroke="black" stroke-width="2" d="M298.891,-278.49C311.672,-301.096 336.105,-340.886 364.077,-369 366.578,-371.513 369.338,-373.949 372.199,-376.261"/>
<polygon fill="black" stroke="black" stroke-width="2" points="370.298,-379.21 380.396,-382.413 374.5,-373.611 370.298,-379.21"/>
</g>
<!-- AS1239 -->
<g id="node13" class="node"><title>AS1239</title>
<g id="a_node13"><a xlink:href="/asn/1239" xlink:title="AS1239 ~ Sprint [US]">
<ellipse fill="#ffffff" stroke="black" cx="403.724" cy="-180" rx="39.7935" ry="18"/>
<text text-anchor="middle" x="403.724" y="-176.3" font-family="Times,serif" font-size="14.00" fill="#2c94b3">AS1239</text>
</a>
</g>
</g>
<!-- AS3356&#45;&gt;AS1239 -->
<g id="edge12" class="edge"><title>AS3356&#45;&gt;AS1239</title>
<path fill="none" stroke="black" stroke-width="2" d="M311.188,-245.991C316.722,-242.121 322.641,-237.936 328.077,-234 344.277,-222.271 347.877,-218.729 364.077,-207 366.88,-204.971 369.812,-202.875 372.752,-200.79"/>
<polygon fill="black" stroke="black" stroke-width="2" points="374.803,-203.627 380.967,-195.009 370.775,-197.903 374.803,-203.627"/>
</g>
<!-- AS2914 -->
<g id="node14" class="node"><title>AS2914</title>
<g id="a_node14"><a xlink:href="/asn/2914" xlink:title="AS2914 ~ NTT America, Inc. [US]">
<ellipse fill="#ffffff" stroke="black" cx="403.724" cy="-126" rx="39.7935" ry="18"/>
<text text-anchor="middle" x="403.724" y="-122.3" font-family="Times,serif" font-size="14.00" fill="#2c94b3">AS2914</text>
</a>
</g>
</g>
<!-- AS3356&#45;&gt;AS2914 -->
<g id="edge13" class="edge"><title>AS3356&#45;&gt;AS2914</title>
<path fill="none" stroke="black" stroke-width="2" d="M314.012,-246.844C319.106,-243.128 324.12,-238.799 328.077,-234 353.142,-203.606 339.013,-183.394 364.077,-153 365.932,-150.75 368.02,-148.604 370.238,-146.576"/>
<polygon fill="black" stroke="black" stroke-width="2" points="372.587,-149.177 378.143,-140.156 368.174,-143.744 372.587,-149.177"/>
</g>
<!-- AS7018 -->
<g id="node15" class="node"><title>AS7018</title>
<g id="a_node15"><a xlink:href="/asn/7018" xlink:title="AS7018 ~ AT&amp;T Services, Inc. [US]">
<ellipse fill="#ffffff" stroke="black" cx="403.724" cy="-72" rx="39.7935" ry="18"/>
<text text-anchor="middle" x="403.724" y="-68.3" font-family="Times,serif" font-size="14.00" fill="#2c94b3">AS7018</text>
</a>
</g>
</g>
<!-- AS3356&#45;&gt;AS7018 -->
<g id="edge14" class="edge"><title>AS3356&#45;&gt;AS7018</title>
<path fill="none" stroke="black" d="M314.59,-247.284C319.654,-243.545 324.51,-239.096 328.077,-234 363.691,-183.131 328.464,-149.869 364.077,-99 365.75,-96.6114 367.705,-94.3647 369.832,-92.2667"/>
<polygon fill="black" stroke="black" points="372.196,-94.8507 377.564,-85.7163 367.672,-89.5095 372.196,-94.8507"/>
</g>
<!-- AS6762 -->
<g id="node16" class="node"><title>AS6762</title>
<g id="a_node16"><a xlink:href="/asn/6762" xlink:title="AS6762 ~ TELECOM ITALIA SPARKLE S.p.A. [IT]">
<ellipse fill="#ffffff" stroke="black" cx="403.724" cy="-342" rx="39.7935" ry="18"/>
<text text-anchor="middle" x="403.724" y="-338.3" font-family="Times,serif" font-size="14.00" fill="#2c94b3">AS6762</text>
</a>
</g>
</g>
<!-- AS3356&#45;&gt;AS6762 -->
<g id="edge15" class="edge"><title>AS3356&#45;&gt;AS6762</title>
<path fill="none" stroke="black" stroke-width="2" d="M310.279,-276.222C325.213,-287.091 345.827,-302.025 364.077,-315 366.898,-317.005 369.841,-319.085 372.789,-321.159"/>
<polygon fill="black" stroke="black" stroke-width="2" points="370.816,-324.05 381.013,-326.926 374.835,-318.319 370.816,-324.05"/>
</g>
<!-- AS3549 -->
<g id="node17" class="node"><title>AS3549</title>
<g id="a_node17"><a xlink:href="/asn/3549" xlink:title="AS3549 ~ Level 3 Parent, LLC [US]">
<ellipse fill="#ffffff" stroke="black" cx="403.724" cy="-288" rx="39.7935" ry="18"/>
<text text-anchor="middle" x="403.724" y="-284.3" font-family="Times,serif" font-size="14.00" fill="#2c94b3">AS3549</text>
</a>
</g>
</g>
<!-- AS3356&#45;&gt;AS3549 -->
<g id="edge16" class="edge"><title>AS3356&#45;&gt;AS3549</title>
<path fill="none" stroke="black" stroke-width="2" d="M324.038,-269.248C334.909,-271.838 347.064,-274.735 358.506,-277.462"/>
<polygon fill="black" stroke="black" stroke-width="2" points="357.789,-280.889 368.328,-279.803 359.412,-274.08 357.789,-280.889"/>
</g>
<!-- AS209 -->
<g id="node18" class="node"><title>AS209</title>
<g id="a_node18"><a xlink:href="/asn/209" xlink:title="AS209 ~ CenturyLink Communications, LLC [US]">
<ellipse fill="#ffffff" stroke="black" cx="403.724" cy="-450" rx="35.194" ry="18"/>
<text text-anchor="middle" x="403.724" y="-446.3" font-family="Times,serif" font-size="14.00" fill="#2c94b3">AS209</text>
</a>
</g>
</g>
<!-- AS3356&#45;&gt;AS209 -->
<g id="edge18" class="edge"><title>AS3356&#45;&gt;AS209</title>
<path fill="none" stroke="black" d="M294.305,-279.002C303.619,-310.844 326.435,-377.981 364.077,-423 366.23,-425.574 368.684,-428.017 371.288,-430.303"/>
<polygon fill="black" stroke="black" points="369.372,-433.249 379.399,-436.672 373.695,-427.743 369.372,-433.249"/>
</g>
<!-- AS1299&#45;&gt;AS174 -->
<g id="edge28" class="edge"><title>AS1299&#45;&gt;AS174</title>
<path fill="none" stroke="black" d="M314.59,-193.284C319.654,-189.545 324.51,-185.096 328.077,-180 363.691,-129.131 328.464,-95.8692 364.077,-45 366.002,-42.251 368.301,-39.69 370.806,-37.3273"/>
<polygon fill="black" stroke="black" points="373.223,-39.8728 378.767,-30.8443 368.803,-34.4448 373.223,-39.8728"/>
</g>
<!-- AS1299&#45;&gt;AS3491 -->
<g id="edge27" class="edge"><title>AS1299&#45;&gt;AS3491</title>
<path fill="none" stroke="black" d="M324.038,-215.248C334.909,-217.838 347.064,-220.735 358.506,-223.462"/>
<polygon fill="black" stroke="black" points="357.789,-226.889 368.328,-225.803 359.412,-220.08 357.789,-226.889"/>
</g>
<!-- AS1299&#45;&gt;AS1239 -->
<g id="edge25" class="edge"><title>AS1299&#45;&gt;AS1239</title>
<path fill="none" stroke="black" d="M324.038,-198.752C334.909,-196.162 347.064,-193.265 358.506,-190.538"/>
<polygon fill="black" stroke="black" points="359.412,-193.92 368.328,-188.197 357.789,-187.111 359.412,-193.92"/>
</g>
<!-- AS1299&#45;&gt;AS2914 -->
<g id="edge26" class="edge"><title>AS1299&#45;&gt;AS2914</title>
<path fill="none" stroke="black" d="M311.188,-191.991C316.722,-188.121 322.641,-183.936 328.077,-180 344.277,-168.271 347.877,-164.729 364.077,-153 366.88,-150.971 369.812,-148.875 372.752,-146.79"/>
<polygon fill="black" stroke="black" points="374.803,-149.627 380.967,-141.009 370.775,-143.903 374.803,-149.627"/>
</g>
<!-- AS1299&#45;&gt;AS7018 -->
<g id="edge24" class="edge"><title>AS1299&#45;&gt;AS7018</title>
<path fill="none" stroke="black" d="M314.012,-192.844C319.106,-189.128 324.12,-184.799 328.077,-180 353.142,-149.606 339.013,-129.394 364.077,-99 365.932,-96.7505 368.02,-94.6041 370.238,-92.5759"/>
<polygon fill="black" stroke="black" points="372.587,-95.1775 378.143,-86.1563 368.174,-89.7437 372.587,-95.1775"/>
</g>
</g>
</svg>
