<?xml version="1.0" encoding="UTF-8" standalone="no"?>
<!DOCTYPE svg PUBLIC "-//W3C//DTD SVG 1.1//EN"
 "http://www.w3.org/Graphics/SVG/1.1/DTD/svg11.dtd">
<!-- Generated by graphviz version 2.38.0 (20140413.2041)
 -->
<!-- Title: AS29545 IPv4 Upstream Graph Pages: 1 -->
<svg width="567pt" height="576pt"
 viewBox="0.00 0.00 566.66 576.22" xmlns="http://www.w3.org/2000/svg" xmlns:xlink="http://www.w3.org/1999/xlink">
<g id="graph0" class="graph" transform="scale(1 1) rotate(0) translate(4 572.217)">
<title>AS29545 IPv4 Upstream Graph</title>
<polygon fill="white" stroke="none" points="-4,4 -4,-572.217 562.663,-572.217 562.663,4 -4,4"/>
<!-- AS29545 -->
<g id="node1" class="node"><title>AS29545</title>
<g id="a_node1"><a xlink:href="/asn/29545" xlink:title="AS29545 ~ Ringstrasse 5 [AT]">
<ellipse fill="#ffffff" stroke="black" cx="44.1961" cy="-425.217" rx="44.393" ry="18"/>
<text text-anchor="middle" x="44.1961" y="-421.517" font-family="Times,serif" font-size="14.00" fill="#880000">AS29545</text>
</a>
</g>
</g>
<!-- AS1764 -->
<g id="node2" class="node"><title>AS1764</title>
<g id="a_node2"><a xlink:href="/asn/1764" xlink:title="AS1764 ~ NEXTLAYER&#45;AS [AT]">
<ellipse fill="#ffffff" stroke="black" cx="168.588" cy="-477.217" rx="39.7935" ry="18"/>
<text text-anchor="middle" x="168.588" y="-473.517" font-family="Times,serif" font-size="14.00" fill="#2c94b3">AS1764</text>
</a>
</g>
</g>
<!-- AS29545&#45;&gt;AS1764 -->
<g id="edge1" class="edge"><title>AS29545&#45;&gt;AS1764</title>
<path fill="none" stroke="black" stroke-width="1.42105" d="M75.4503,-438.071C91.8158,-445.024 112.188,-453.68 129.611,-461.082"/>
<polygon fill="black" stroke="black" stroke-width="1.42105" points="128.371,-464.358 138.943,-465.047 131.108,-457.916 128.371,-464.358"/>
</g>
<!-- AS33891 -->
<g id="node3" class="node"><title>AS33891</title>
<g id="a_node3"><a xlink:href="/asn/33891" xlink:title="AS33891 ~ CORE&#45;BACKBONE GMBH GLOBAL NETWORK [DE]">
<ellipse fill="#ffffff" stroke="black" cx="168.588" cy="-374.217" rx="44.393" ry="18"/>
<text text-anchor="middle" x="168.588" y="-370.517" font-family="Times,serif" font-size="14.00" fill="#2c94b3">AS33891</text>
</a>
</g>
</g>
<!-- AS29545&#45;&gt;AS33891 -->
<g id="edge2" class="edge"><title>AS29545&#45;&gt;AS33891</title>
<path fill="none" stroke="black" stroke-width="4.5" d="M75.7651,-412.479C91.3906,-405.968 110.606,-397.962 127.413,-390.958"/>
<polygon fill="black" stroke="black" stroke-width="4.5" points="129.269,-394.451 136.985,-386.97 126.24,-387.181 129.269,-394.451"/>
</g>
<!-- AS174 -->
<g id="node4" class="node"><title>AS174</title>
<g id="a_node4"><a xlink:href="/asn/174" xlink:title="AS174 ~ Cogent Communications [US]">
<ellipse fill="#ffffff" stroke="black" cx="403.724" cy="-442.217" rx="35.194" ry="18"/>
<text text-anchor="middle" x="403.724" y="-438.517" font-family="Times,serif" font-size="14.00" fill="#2c94b3">AS174</text>
</a>
</g>
</g>
<!-- AS1764&#45;&gt;AS174 -->
<g id="edge3" class="edge"><title>AS1764&#45;&gt;AS174</title>
<path fill="none" stroke="black" stroke-width="2" d="M206.529,-471.672C248.132,-465.426 315.655,-455.289 359.629,-448.687"/>
<polygon fill="black" stroke="black" stroke-width="2" points="360.356,-452.117 369.725,-447.171 359.316,-445.195 360.356,-452.117"/>
</g>
<!-- AS8218 -->
<g id="node5" class="node"><title>AS8218</title>
<g id="a_node5"><a xlink:href="/asn/8218" xlink:title="AS8218 ~ legacy Neotelecoms [FR]">
<ellipse fill="#ffffff" stroke="black" cx="288.431" cy="-546.217" rx="39.7935" ry="18"/>
<text text-anchor="middle" x="288.431" y="-542.517" font-family="Times,serif" font-size="14.00" fill="#2c94b3">AS8218</text>
</a>
</g>
</g>
<!-- AS1764&#45;&gt;AS8218 -->
<g id="edge4" class="edge"><title>AS1764&#45;&gt;AS8218</title>
<path fill="none" stroke="black" d="M193.72,-491.347C211.275,-501.626 235.25,-515.664 254.555,-526.968"/>
<polygon fill="black" stroke="black" points="252.933,-530.074 263.332,-532.107 256.47,-524.033 252.933,-530.074"/>
</g>
<!-- AS2914 -->
<g id="node6" class="node"><title>AS2914</title>
<g id="a_node6"><a xlink:href="/asn/2914" xlink:title="AS2914 ~ NTT America, Inc. [US]">
<ellipse fill="#ffffff" stroke="black" cx="403.724" cy="-496.217" rx="39.7935" ry="18"/>
<text text-anchor="middle" x="403.724" y="-492.517" font-family="Times,serif" font-size="14.00" fill="#2c94b3">AS2914</text>
</a>
</g>
</g>
<!-- AS1764&#45;&gt;AS2914 -->
<g id="edge5" class="edge"><title>AS1764&#45;&gt;AS2914</title>
<path fill="none" stroke="black" stroke-width="3" d="M207.825,-480.334C247.888,-483.599 310.927,-488.736 354.408,-492.28"/>
<polygon fill="black" stroke="black" stroke-width="3" points="354.215,-495.776 364.466,-493.099 354.784,-488.799 354.215,-495.776"/>
</g>
<!-- AS6461 -->
<g id="node8" class="node"><title>AS6461</title>
<g id="a_node8"><a xlink:href="/asn/6461" xlink:title="AS6461 ~ Zayo Bandwidth [US]">
<ellipse fill="#ffffff" stroke="black" cx="403.724" cy="-550.217" rx="39.7935" ry="18"/>
<text text-anchor="middle" x="403.724" y="-546.517" font-family="Times,serif" font-size="14.00" fill="#2c94b3">AS6461</text>
</a>
</g>
</g>
<!-- AS33891&#45;&gt;AS6461 -->
<g id="edge12" class="edge"><title>AS33891&#45;&gt;AS6461</title>
<path fill="none" stroke="black" stroke-width="0.409091" d="M189.806,-390.175C224.906,-417.772 299.546,-475.991 364.077,-523.217 366.87,-525.261 369.794,-527.366 372.731,-529.457"/>
<polygon fill="black" stroke="black" stroke-width="0.409091" points="370.75,-532.343 380.939,-535.247 374.785,-526.622 370.75,-532.343"/>
</g>
<!-- AS3356 -->
<g id="node11" class="node"><title>AS3356</title>
<g id="a_node11"><a xlink:href="/asn/3356" xlink:title="AS3356 ~ Level 3 Parent, LLC [US]">
<ellipse fill="#ffffff" stroke="black" cx="288.431" cy="-257.217" rx="39.7935" ry="18"/>
<text text-anchor="middle" x="288.431" y="-253.517" font-family="Times,serif" font-size="14.00" fill="#2c94b3">AS3356</text>
</a>
</g>
</g>
<!-- AS33891&#45;&gt;AS3356 -->
<g id="edge10" class="edge"><title>AS33891&#45;&gt;AS3356</title>
<path fill="none" stroke="black" stroke-width="4.5" d="M186.222,-357.702C206.4,-337.668 240.563,-303.75 263.551,-280.927"/>
<polygon fill="black" stroke="black" stroke-width="4.5" points="266.559,-283.488 270.881,-273.648 261.011,-277.9 266.559,-283.488"/>
</g>
<!-- AS1299 -->
<g id="node12" class="node"><title>AS1299</title>
<g id="a_node12"><a xlink:href="/asn/1299" xlink:title="AS1299 ~ Telia Carrier [EU]">
<ellipse fill="#ffffff" stroke="black" cx="288.431" cy="-374.217" rx="39.7935" ry="18"/>
<text text-anchor="middle" x="288.431" y="-370.517" font-family="Times,serif" font-size="14.00" fill="#2c94b3">AS1299</text>
</a>
</g>
</g>
<!-- AS33891&#45;&gt;AS1299 -->
<g id="edge11" class="edge"><title>AS33891&#45;&gt;AS1299</title>
<path fill="none" stroke="black" stroke-width="2.45455" d="M212.799,-374.217C221.112,-374.217 229.875,-374.217 238.357,-374.217"/>
<polygon fill="black" stroke="black" stroke-width="2.45455" points="238.516,-377.717 248.516,-374.217 238.516,-370.717 238.516,-377.717"/>
</g>
<!-- AS3257 -->
<g id="node13" class="node"><title>AS3257</title>
<g id="a_node13"><a xlink:href="/asn/3257" xlink:title="AS3257 ~ GTT [DE]">
<ellipse fill="#ffffff" stroke="black" cx="288.431" cy="-203.217" rx="39.7935" ry="18"/>
<text text-anchor="middle" x="288.431" y="-199.517" font-family="Times,serif" font-size="14.00" fill="#2c94b3">AS3257</text>
</a>
</g>
</g>
<!-- AS33891&#45;&gt;AS3257 -->
<g id="edge13" class="edge"><title>AS33891&#45;&gt;AS3257</title>
<path fill="none" stroke="black" stroke-width="0.409091" d="M176.345,-356.193C187.859,-327.199 213.51,-269.483 248.784,-230.217 250.784,-227.991 253.001,-225.85 255.332,-223.815"/>
<polygon fill="black" stroke="black" stroke-width="0.409091" points="257.863,-226.277 263.549,-217.337 253.529,-220.78 257.863,-226.277"/>
</g>
<!-- AS3491 -->
<g id="node7" class="node"><title>AS3491</title>
<g id="a_node7"><a xlink:href="/asn/3491" xlink:title="AS3491 ~ PCCW Global, Inc. [US]">
<ellipse fill="#ffffff" stroke="black" cx="519.017" cy="-130.217" rx="39.7935" ry="18"/>
<text text-anchor="middle" x="519.017" y="-126.517" font-family="Times,serif" font-size="14.00" fill="#2c94b3">AS3491</text>
</a>
</g>
</g>
<!-- AS174&#45;&gt;AS3491 -->
<g id="edge6" class="edge"><title>AS174&#45;&gt;AS3491</title>
<path fill="none" stroke="black" d="M428.944,-429.551C434.431,-425.636 439.711,-420.844 443.37,-415.217 489.036,-344.995 456.182,-310.708 479.37,-230.217 486.643,-204.972 497.645,-177.165 506.052,-157.295"/>
<polygon fill="black" stroke="black" points="509.333,-158.525 510.061,-147.955 502.901,-155.764 509.333,-158.525"/>
</g>
<!-- AS8218&#45;&gt;AS6461 -->
<g id="edge7" class="edge"><title>AS8218&#45;&gt;AS6461</title>
<path fill="none" stroke="black" d="M328.103,-547.583C336.306,-547.872 345.07,-548.182 353.602,-548.483"/>
<polygon fill="black" stroke="black" points="353.724,-551.989 363.841,-548.845 353.971,-544.994 353.724,-551.989"/>
</g>
<!-- AS6762 -->
<g id="node9" class="node"><title>AS6762</title>
<g id="a_node9"><a xlink:href="/asn/6762" xlink:title="AS6762 ~ TELECOM ITALIA SPARKLE S.p.A. [IT]">
<ellipse fill="#ffffff" stroke="black" cx="519.017" cy="-434.217" rx="39.7935" ry="18"/>
<text text-anchor="middle" x="519.017" y="-430.517" font-family="Times,serif" font-size="14.00" fill="#2c94b3">AS6762</text>
</a>
</g>
</g>
<!-- AS2914&#45;&gt;AS6762 -->
<g id="edge8" class="edge"><title>AS2914&#45;&gt;AS6762</title>
<path fill="none" stroke="black" d="M429.867,-482.458C445.708,-473.788 466.369,-462.482 483.706,-452.994"/>
<polygon fill="black" stroke="black" points="485.852,-455.81 492.944,-447.939 482.491,-449.669 485.852,-455.81"/>
</g>
<!-- AS2497 -->
<g id="node10" class="node"><title>AS2497</title>
<g id="a_node10"><a xlink:href="/asn/2497" xlink:title="AS2497 ~ Internet Initiative Japan Inc. [JP]">
<ellipse fill="#ffffff" stroke="black" cx="519.017" cy="-257.217" rx="39.7935" ry="18"/>
<text text-anchor="middle" x="519.017" y="-253.517" font-family="Times,serif" font-size="14.00" fill="#2c94b3">AS2497</text>
</a>
</g>
</g>
<!-- AS2914&#45;&gt;AS2497 -->
<g id="edge9" class="edge"><title>AS2914&#45;&gt;AS2497</title>
<path fill="none" stroke="black" d="M429.593,-482.289C434.672,-478.562 439.607,-474.17 443.37,-469.217 486.57,-412.363 506.151,-328.466 513.807,-285.238"/>
<polygon fill="black" stroke="black" points="517.294,-285.607 515.503,-275.165 510.391,-284.445 517.294,-285.607"/>
</g>
<!-- AS3356&#45;&gt;AS174 -->
<g id="edge23" class="edge"><title>AS3356&#45;&gt;AS174</title>
<path fill="none" stroke="black" d="M297.179,-274.927C314.235,-313.711 354.292,-403.627 364.077,-415.217 366.242,-417.781 368.705,-420.217 371.314,-422.499"/>
<polygon fill="black" stroke="black" points="369.403,-425.448 379.433,-428.861 373.721,-419.938 369.403,-425.448"/>
</g>
<!-- AS3356&#45;&gt;AS2914 -->
<g id="edge22" class="edge"><title>AS3356&#45;&gt;AS2914</title>
<path fill="none" stroke="black" d="M297.763,-274.897C306.056,-292.867 318.843,-321.625 328.077,-347.217 347.264,-400.395 331.047,-423.336 364.077,-469.217 365.781,-471.584 367.759,-473.814 369.901,-475.901"/>
<polygon fill="black" stroke="black" points="367.758,-478.672 377.663,-482.431 372.264,-473.315 367.758,-478.672"/>
</g>
<!-- AS3356&#45;&gt;AS3491 -->
<g id="edge18" class="edge"><title>AS3356&#45;&gt;AS3491</title>
<path fill="none" stroke="black" d="M314.954,-243.743C319.999,-239.992 324.755,-235.476 328.077,-230.217 379.824,-148.308 290.128,-77.8141 364.077,-15.2174 390.976,7.55159 412.401,1.60168 443.37,-15.2174 477.275,-33.631 498.171,-74.8316 508.939,-102.58"/>
<polygon fill="black" stroke="black" points="505.715,-103.953 512.454,-112.128 512.284,-101.535 505.715,-103.953"/>
</g>
<!-- AS3356&#45;&gt;AS6762 -->
<g id="edge19" class="edge"><title>AS3356&#45;&gt;AS6762</title>
<path fill="none" stroke="black" d="M320.668,-246.59C354.004,-237.331 406.933,-228.83 443.37,-253.217 494.692,-287.567 510.765,-364.327 515.772,-405.998"/>
<polygon fill="black" stroke="black" points="512.302,-406.46 516.844,-416.032 519.262,-405.716 512.302,-406.46"/>
</g>
<!-- AS3356&#45;&gt;AS2497 -->
<g id="edge14" class="edge"><title>AS3356&#45;&gt;AS2497</title>
<path fill="none" stroke="black" d="M311.921,-242.649C326.223,-234.273 345.488,-224.572 364.077,-220.217 398.39,-212.18 409.058,-212.18 443.37,-220.217 458.329,-223.721 473.725,-230.687 486.621,-237.639"/>
<polygon fill="black" stroke="black" points="485.095,-240.797 495.527,-242.649 488.527,-234.696 485.095,-240.797"/>
</g>
<!-- AS6453 -->
<g id="node14" class="node"><title>AS6453</title>
<g id="a_node14"><a xlink:href="/asn/6453" xlink:title="AS6453 ~ TATA COMMUNICATIONS (AMERICA) INC [US]">
<ellipse fill="#ffffff" stroke="black" cx="403.724" cy="-280.217" rx="39.7935" ry="18"/>
<text text-anchor="middle" x="403.724" y="-276.517" font-family="Times,serif" font-size="14.00" fill="#2c94b3">AS6453</text>
</a>
</g>
</g>
<!-- AS3356&#45;&gt;AS6453 -->
<g id="edge15" class="edge"><title>AS3356&#45;&gt;AS6453</title>
<path fill="none" stroke="black" d="M324.967,-264.432C335.195,-266.508 346.496,-268.802 357.238,-270.983"/>
<polygon fill="black" stroke="black" points="356.818,-274.469 367.314,-273.029 358.21,-267.609 356.818,-274.469"/>
</g>
<!-- AS3549 -->
<g id="node15" class="node"><title>AS3549</title>
<g id="a_node15"><a xlink:href="/asn/3549" xlink:title="AS3549 ~ Level 3 Parent, LLC [US]">
<ellipse fill="#ffffff" stroke="black" cx="403.724" cy="-150.217" rx="39.7935" ry="18"/>
<text text-anchor="middle" x="403.724" y="-146.517" font-family="Times,serif" font-size="14.00" fill="#2c94b3">AS3549</text>
</a>
</g>
</g>
<!-- AS3356&#45;&gt;AS3549 -->
<g id="edge16" class="edge"><title>AS3356&#45;&gt;AS3549</title>
<path fill="none" stroke="black" d="M312.844,-242.646C318.107,-238.895 323.488,-234.655 328.077,-230.217 347.248,-211.681 345.68,-201.521 364.077,-182.217 367.274,-178.863 370.81,-175.522 374.407,-172.332"/>
<polygon fill="black" stroke="black" points="376.919,-174.791 382.271,-165.647 372.385,-169.458 376.919,-174.791"/>
</g>
<!-- AS1239 -->
<g id="node16" class="node"><title>AS1239</title>
<g id="a_node16"><a xlink:href="/asn/1239" xlink:title="AS1239 ~ Sprint [US]">
<ellipse fill="#ffffff" stroke="black" cx="403.724" cy="-334.217" rx="39.7935" ry="18"/>
<text text-anchor="middle" x="403.724" y="-330.517" font-family="Times,serif" font-size="14.00" fill="#2c94b3">AS1239</text>
</a>
</g>
</g>
<!-- AS3356&#45;&gt;AS1239 -->
<g id="edge17" class="edge"><title>AS3356&#45;&gt;AS1239</title>
<path fill="none" stroke="black" d="M311.275,-272.064C328.672,-283.888 353.22,-300.572 372.502,-313.677"/>
<polygon fill="black" stroke="black" points="370.709,-316.69 380.947,-319.417 374.644,-310.901 370.709,-316.69"/>
</g>
<!-- AS209 -->
<g id="node17" class="node"><title>AS209</title>
<g id="a_node17"><a xlink:href="/asn/209" xlink:title="AS209 ~ CenturyLink Communications, LLC [US]">
<ellipse fill="#ffffff" stroke="black" cx="403.724" cy="-96.2174" rx="35.194" ry="18"/>
<text text-anchor="middle" x="403.724" y="-92.5174" font-family="Times,serif" font-size="14.00" fill="#2c94b3">AS209</text>
</a>
</g>
</g>
<!-- AS3356&#45;&gt;AS209 -->
<g id="edge20" class="edge"><title>AS3356&#45;&gt;AS209</title>
<path fill="none" stroke="black" d="M314.351,-243.328C319.428,-239.599 324.349,-235.196 328.077,-230.217 358.153,-190.055 334.002,-163.379 364.077,-123.217 366.089,-120.531 368.447,-118.013 370.99,-115.678"/>
<polygon fill="black" stroke="black" points="373.404,-118.228 379.008,-109.236 369.02,-112.771 373.404,-118.228"/>
</g>
<!-- AS701 -->
<g id="node18" class="node"><title>AS701</title>
<g id="a_node18"><a xlink:href="/asn/701" xlink:title="AS701 ~ UUNET [US]">
<ellipse fill="#ffffff" stroke="black" cx="403.724" cy="-42.2174" rx="35.194" ry="18"/>
<text text-anchor="middle" x="403.724" y="-38.5174" font-family="Times,serif" font-size="14.00" fill="#2c94b3">AS701</text>
</a>
</g>
</g>
<!-- AS3356&#45;&gt;AS701 -->
<g id="edge21" class="edge"><title>AS3356&#45;&gt;AS701</title>
<path fill="none" stroke="black" d="M314.745,-243.607C319.801,-239.863 324.614,-235.384 328.077,-230.217 368.901,-169.31 323.254,-130.124 364.077,-69.2174 365.946,-66.4299 368.207,-63.8427 370.687,-61.4631"/>
<polygon fill="black" stroke="black" points="373.105,-64.0065 378.611,-54.9549 368.662,-58.5971 373.105,-64.0065"/>
</g>
<!-- AS1299&#45;&gt;AS174 -->
<g id="edge27" class="edge"><title>AS1299&#45;&gt;AS174</title>
<path fill="none" stroke="black" d="M313.181,-388.472C330.132,-398.647 353.098,-412.431 371.527,-423.492"/>
<polygon fill="black" stroke="black" points="369.788,-426.531 380.163,-428.676 373.39,-420.529 369.788,-426.531"/>
</g>
<!-- AS1299&#45;&gt;AS2914 -->
<g id="edge28" class="edge"><title>AS1299&#45;&gt;AS2914</title>
<path fill="none" stroke="black" d="M310.341,-389.237C316.478,-394.226 322.92,-400.084 328.077,-406.217 348.832,-430.9 342.331,-445.404 364.077,-469.217 366.095,-471.427 368.325,-473.556 370.665,-475.583"/>
<polygon fill="black" stroke="black" points="368.871,-478.625 378.898,-482.047 373.194,-473.119 368.871,-478.625"/>
</g>
<!-- AS1299&#45;&gt;AS6453 -->
<g id="edge24" class="edge"><title>AS1299&#45;&gt;AS6453</title>
<path fill="none" stroke="black" d="M306.406,-357.897C321.208,-343.933 343.477,-323.56 364.077,-307.217 366.788,-305.067 369.658,-302.89 372.56,-300.754"/>
<polygon fill="black" stroke="black" points="374.635,-303.574 380.72,-294.901 370.554,-297.886 374.635,-303.574"/>
</g>
<!-- AS1299&#45;&gt;AS1239 -->
<g id="edge26" class="edge"><title>AS1299&#45;&gt;AS1239</title>
<path fill="none" stroke="black" d="M320.389,-363.287C333.252,-358.745 348.358,-353.412 362.095,-348.562"/>
<polygon fill="black" stroke="black" points="363.539,-351.764 371.803,-345.134 361.209,-345.163 363.539,-351.764"/>
</g>
<!-- AS7018 -->
<g id="node19" class="node"><title>AS7018</title>
<g id="a_node19"><a xlink:href="/asn/7018" xlink:title="AS7018 ~ AT&amp;T Services, Inc. [US]">
<ellipse fill="#ffffff" stroke="black" cx="403.724" cy="-388.217" rx="39.7935" ry="18"/>
<text text-anchor="middle" x="403.724" y="-384.517" font-family="Times,serif" font-size="14.00" fill="#2c94b3">AS7018</text>
</a>
</g>
</g>
<!-- AS1299&#45;&gt;AS7018 -->
<g id="edge25" class="edge"><title>AS1299&#45;&gt;AS7018</title>
<path fill="none" stroke="black" d="M326.841,-378.84C335.929,-379.963 345.766,-381.179 355.251,-382.351"/>
<polygon fill="black" stroke="black" points="354.999,-385.846 365.353,-383.599 355.857,-378.899 354.999,-385.846"/>
</g>
</g>
</svg>
