<?xml version="1.0" encoding="UTF-8" standalone="no"?>
<!DOCTYPE svg PUBLIC "-//W3C//DTD SVG 1.1//EN"
 "http://www.w3.org/Graphics/SVG/1.1/DTD/svg11.dtd">
<!-- Generated by graphviz version 2.38.0 (20140413.2041)
 -->
<!-- Title: AS29545 Combined Upstream Graph Pages: 1 -->
<svg width="567pt" height="873pt"
 viewBox="0.00 0.00 566.66 873.00" xmlns="http://www.w3.org/2000/svg" xmlns:xlink="http://www.w3.org/1999/xlink">
<g id="graph0" class="graph" transform="scale(1 1) rotate(0) translate(4 869)">
<title>AS29545 Combined Upstream Graph</title>
<polygon fill="white" stroke="none" points="-4,4 -4,-869 562.663,-869 562.663,4 -4,4"/>
<!-- AS29545 -->
<g id="node1" class="node"><title>AS29545</title>
<g id="a_node1"><a xlink:href="/asn/29545" xlink:title="AS29545 ~ Ringstrasse 5 [AT]">
<ellipse fill="#ffffff" stroke="black" cx="44.1961" cy="-249" rx="44.393" ry="18"/>
<text text-anchor="middle" x="44.1961" y="-245.3" font-family="Times,serif" font-size="14.00" fill="#880000">AS29545</text>
</a>
</g>
</g>
<!-- AS1764 -->
<g id="node2" class="node"><title>AS1764</title>
<g id="a_node2"><a xlink:href="/asn/1764" xlink:title="AS1764 ~ NEXTLAYER&#45;AS [AT]">
<ellipse fill="#ffffff" stroke="black" cx="288.431" cy="-149" rx="39.7935" ry="18"/>
<text text-anchor="middle" x="288.431" y="-145.3" font-family="Times,serif" font-size="14.00" fill="#2c94b3">AS1764</text>
</a>
</g>
</g>
<!-- AS29545&#45;&gt;AS1764 -->
<g id="edge1" class="edge"><title>AS29545&#45;&gt;AS1764</title>
<path fill="none" stroke="black" stroke-width="2.57143" d="M75.8753,-236.335C119.943,-218.143 201.123,-184.63 249.09,-164.828"/>
<polygon fill="black" stroke="black" stroke-width="2.57143" points="250.601,-167.991 258.509,-160.94 247.93,-161.521 250.601,-167.991"/>
</g>
<!-- AS33891 -->
<g id="node3" class="node"><title>AS33891</title>
<g id="a_node3"><a xlink:href="/asn/33891" xlink:title="AS33891 ~ CORE&#45;BACKBONE GMBH GLOBAL NETWORK [DE]">
<ellipse fill="#ffffff" stroke="black" cx="168.588" cy="-249" rx="44.393" ry="18"/>
<text text-anchor="middle" x="168.588" y="-245.3" font-family="Times,serif" font-size="14.00" fill="#2c94b3">AS33891</text>
</a>
</g>
</g>
<!-- AS29545&#45;&gt;AS33891 -->
<g id="edge2" class="edge"><title>AS29545&#45;&gt;AS33891</title>
<path fill="none" stroke="black" stroke-width="4.5" d="M88.6916,-249C96.898,-249 105.569,-249 114.041,-249"/>
<polygon fill="black" stroke="black" stroke-width="4.5" points="114.233,-252.938 124.233,-249 114.233,-245.063 114.233,-252.938"/>
</g>
<!-- AS6939 -->
<g id="node4" class="node"><title>AS6939</title>
<g id="a_node4"><a xlink:href="/asn/6939" xlink:title="AS6939 ~ Hurricane Electric LLC [US]">
<ellipse fill="#ffffff" stroke="black" cx="288.431" cy="-702" rx="39.7935" ry="18"/>
<text text-anchor="middle" x="288.431" y="-698.3" font-family="Times,serif" font-size="14.00" fill="#2c94b3">AS6939</text>
</a>
</g>
</g>
<!-- AS29545&#45;&gt;AS6939 -->
<g id="edge3" class="edge"><title>AS29545&#45;&gt;AS6939</title>
<path fill="none" stroke="black" stroke-width="1.5" d="M54.692,-266.758C92.0041,-336.535 228.689,-592.147 273.268,-675.514"/>
<polygon fill="black" stroke="black" stroke-width="1.5" points="270.199,-677.197 278.001,-684.365 276.371,-673.896 270.199,-677.197"/>
</g>
<!-- AS3257 -->
<g id="node5" class="node"><title>AS3257</title>
<g id="a_node5"><a xlink:href="/asn/3257" xlink:title="AS3257 ~ GTT [DE]">
<ellipse fill="#ffffff" stroke="black" cx="403.724" cy="-149" rx="39.7935" ry="18"/>
<text text-anchor="middle" x="403.724" y="-145.3" font-family="Times,serif" font-size="14.00" fill="#2c94b3">AS3257</text>
</a>
</g>
</g>
<!-- AS1764&#45;&gt;AS3257 -->
<g id="edge4" class="edge"><title>AS1764&#45;&gt;AS3257</title>
<path fill="none" stroke="black" stroke-width="3" d="M328.103,-149C336.306,-149 345.07,-149 353.602,-149"/>
<polygon fill="black" stroke="black" stroke-width="3" points="353.841,-152.5 363.841,-149 353.841,-145.5 353.841,-152.5"/>
</g>
<!-- AS8218 -->
<g id="node6" class="node"><title>AS8218</title>
<g id="a_node6"><a xlink:href="/asn/8218" xlink:title="AS8218 ~ legacy Neotelecoms [FR]">
<ellipse fill="#ffffff" stroke="black" cx="403.724" cy="-41" rx="39.7935" ry="18"/>
<text text-anchor="middle" x="403.724" y="-37.3" font-family="Times,serif" font-size="14.00" fill="#2c94b3">AS8218</text>
</a>
</g>
</g>
<!-- AS1764&#45;&gt;AS8218 -->
<g id="edge5" class="edge"><title>AS1764&#45;&gt;AS8218</title>
<path fill="none" stroke="black" stroke-width="2" d="M303.061,-132.183C317.343,-115.071 340.89,-88.2553 364.077,-68 366.543,-65.8462 369.182,-63.7062 371.879,-61.6284"/>
<polygon fill="black" stroke="black" stroke-width="2" points="374.052,-64.3749 380.033,-55.6297 369.904,-58.7363 374.052,-64.3749"/>
</g>
<!-- AS2914 -->
<g id="node7" class="node"><title>AS2914</title>
<g id="a_node7"><a xlink:href="/asn/2914" xlink:title="AS2914 ~ NTT America, Inc. [US]">
<ellipse fill="#ffffff" stroke="black" cx="403.724" cy="-295" rx="39.7935" ry="18"/>
<text text-anchor="middle" x="403.724" y="-291.3" font-family="Times,serif" font-size="14.00" fill="#2c94b3">AS2914</text>
</a>
</g>
</g>
<!-- AS1764&#45;&gt;AS2914 -->
<g id="edge6" class="edge"><title>AS1764&#45;&gt;AS2914</title>
<path fill="none" stroke="black" stroke-width="4" d="M302.649,-166.034C322.518,-191.639 360.202,-240.202 383.23,-269.879"/>
<polygon fill="black" stroke="black" stroke-width="4" points="380.694,-272.32 389.59,-278.075 386.225,-268.029 380.694,-272.32"/>
</g>
<!-- AS174 -->
<g id="node8" class="node"><title>AS174</title>
<g id="a_node8"><a xlink:href="/asn/174" xlink:title="AS174 ~ Cogent Communications [US]">
<ellipse fill="#ffffff" stroke="black" cx="403.724" cy="-95" rx="35.194" ry="18"/>
<text text-anchor="middle" x="403.724" y="-91.3" font-family="Times,serif" font-size="14.00" fill="#2c94b3">AS174</text>
</a>
</g>
</g>
<!-- AS1764&#45;&gt;AS174 -->
<g id="edge7" class="edge"><title>AS1764&#45;&gt;AS174</title>
<path fill="none" stroke="black" stroke-width="3" d="M316.567,-136.066C331.999,-128.71 351.485,-119.423 368.02,-111.541"/>
<polygon fill="black" stroke="black" stroke-width="3" points="369.84,-114.551 377.361,-107.089 366.828,-108.232 369.84,-114.551"/>
</g>
<!-- AS6461 -->
<g id="node10" class="node"><title>AS6461</title>
<g id="a_node10"><a xlink:href="/asn/6461" xlink:title="AS6461 ~ Zayo Bandwidth [US]">
<ellipse fill="#ffffff" stroke="black" cx="519.017" cy="-18" rx="39.7935" ry="18"/>
<text text-anchor="middle" x="519.017" y="-14.3" font-family="Times,serif" font-size="14.00" fill="#2c94b3">AS6461</text>
</a>
</g>
</g>
<!-- AS33891&#45;&gt;AS6461 -->
<g id="edge15" class="edge"><title>AS33891&#45;&gt;AS6461</title>
<path fill="none" stroke="black" stroke-width="0.409091" d="M176.881,-231.241C197.577,-183.696 261.88,-54.39 364.077,-14 399.076,-0.167894 442.13,-2.7568 473.798,-7.89018"/>
<polygon fill="black" stroke="black" stroke-width="0.409091" points="473.199,-11.3385 483.655,-9.62868 474.415,-4.44491 473.199,-11.3385"/>
</g>
<!-- AS3356 -->
<g id="node13" class="node"><title>AS3356</title>
<g id="a_node13"><a xlink:href="/asn/3356" xlink:title="AS3356 ~ Level 3 Parent, LLC [US]">
<ellipse fill="#ffffff" stroke="black" cx="288.431" cy="-414" rx="39.7935" ry="18"/>
<text text-anchor="middle" x="288.431" y="-410.3" font-family="Times,serif" font-size="14.00" fill="#2c94b3">AS3356</text>
</a>
</g>
</g>
<!-- AS33891&#45;&gt;AS3356 -->
<g id="edge13" class="edge"><title>AS33891&#45;&gt;AS3356</title>
<path fill="none" stroke="black" stroke-width="4.5" d="M181.977,-266.346C202.807,-295.512 244.94,-354.506 269.17,-388.431"/>
<polygon fill="black" stroke="black" stroke-width="4.5" points="266.192,-391.037 275.208,-396.886 272.601,-386.46 266.192,-391.037"/>
</g>
<!-- AS1299 -->
<g id="node14" class="node"><title>AS1299</title>
<g id="a_node14"><a xlink:href="/asn/1299" xlink:title="AS1299 ~ Telia Carrier [EU]">
<ellipse fill="#ffffff" stroke="black" cx="288.431" cy="-249" rx="39.7935" ry="18"/>
<text text-anchor="middle" x="288.431" y="-245.3" font-family="Times,serif" font-size="14.00" fill="#2c94b3">AS1299</text>
</a>
</g>
</g>
<!-- AS33891&#45;&gt;AS1299 -->
<g id="edge14" class="edge"><title>AS33891&#45;&gt;AS1299</title>
<path fill="none" stroke="black" stroke-width="3.68182" d="M212.799,-249C221.112,-249 229.875,-249 238.357,-249"/>
<polygon fill="black" stroke="black" stroke-width="3.68182" points="238.516,-252.5 248.516,-249 238.516,-245.5 238.516,-252.5"/>
</g>
<!-- AS2497 -->
<g id="node9" class="node"><title>AS2497</title>
<g id="a_node9"><a xlink:href="/asn/2497" xlink:title="AS2497 ~ Internet Initiative Japan Inc. [JP]">
<ellipse fill="#ffffff" stroke="black" cx="519.017" cy="-295" rx="39.7935" ry="18"/>
<text text-anchor="middle" x="519.017" y="-291.3" font-family="Times,serif" font-size="14.00" fill="#2c94b3">AS2497</text>
</a>
</g>
</g>
<!-- AS6939&#45;&gt;AS2497 -->
<g id="edge36" class="edge"><title>AS6939&#45;&gt;AS2497</title>
<path fill="none" stroke="black" d="M319.586,-713.402C353.715,-724.147 409.015,-734.723 443.37,-706 478.015,-677.034 471.302,-550.432 479.37,-506 491.28,-440.409 505.43,-363.381 512.864,-322.98"/>
<polygon fill="black" stroke="black" points="516.322,-323.529 514.69,-313.06 509.437,-322.262 516.322,-323.529"/>
</g>
<!-- AS701 -->
<g id="node11" class="node"><title>AS701</title>
<g id="a_node11"><a xlink:href="/asn/701" xlink:title="AS701 ~ UUNET [US]">
<ellipse fill="#ffffff" stroke="black" cx="519.017" cy="-533" rx="35.194" ry="18"/>
<text text-anchor="middle" x="519.017" y="-529.3" font-family="Times,serif" font-size="14.00" fill="#2c94b3">AS701</text>
</a>
</g>
</g>
<!-- AS6939&#45;&gt;AS701 -->
<g id="edge37" class="edge"><title>AS6939&#45;&gt;AS701</title>
<path fill="none" stroke="black" d="M310.351,-717.084C342.512,-738.268 404.453,-770.869 443.37,-739 506.153,-687.586 434.917,-627.89 479.37,-560 481.208,-557.193 483.449,-554.592 485.916,-552.204"/>
<polygon fill="black" stroke="black" points="488.335,-554.746 493.821,-545.682 483.88,-549.346 488.335,-554.746"/>
</g>
<!-- AS3491 -->
<g id="node12" class="node"><title>AS3491</title>
<g id="a_node12"><a xlink:href="/asn/3491" xlink:title="AS3491 ~ PCCW Global, Inc. [US]">
<ellipse fill="#ffffff" stroke="black" cx="519.017" cy="-587" rx="39.7935" ry="18"/>
<text text-anchor="middle" x="519.017" y="-583.3" font-family="Times,serif" font-size="14.00" fill="#2c94b3">AS3491</text>
</a>
</g>
</g>
<!-- AS6939&#45;&gt;AS3491 -->
<g id="edge32" class="edge"><title>AS6939&#45;&gt;AS3491</title>
<path fill="none" stroke="black" d="M300.411,-719.283C313.168,-737.573 336.086,-765.367 364.077,-777 396.62,-790.525 414.249,-796.847 443.37,-777 497.096,-740.384 512.154,-658.675 516.374,-615.306"/>
<polygon fill="black" stroke="black" points="519.877,-615.415 517.23,-605.156 512.902,-614.827 519.877,-615.415"/>
</g>
<!-- AS6762 -->
<g id="node15" class="node"><title>AS6762</title>
<g id="a_node15"><a xlink:href="/asn/6762" xlink:title="AS6762 ~ TELECOM ITALIA SPARKLE S.p.A. [IT]">
<ellipse fill="#ffffff" stroke="black" cx="403.724" cy="-495" rx="39.7935" ry="18"/>
<text text-anchor="middle" x="403.724" y="-491.3" font-family="Times,serif" font-size="14.00" fill="#2c94b3">AS6762</text>
</a>
</g>
</g>
<!-- AS6939&#45;&gt;AS6762 -->
<g id="edge34" class="edge"><title>AS6939&#45;&gt;AS6762</title>
<path fill="none" stroke="black" d="M299.09,-684.351C318.989,-647.993 364.653,-564.56 388.157,-521.615"/>
<polygon fill="black" stroke="black" points="391.358,-523.057 393.089,-512.604 385.218,-519.696 391.358,-523.057"/>
</g>
<!-- AS6453 -->
<g id="node17" class="node"><title>AS6453</title>
<g id="a_node17"><a xlink:href="/asn/6453" xlink:title="AS6453 ~ TATA COMMUNICATIONS (AMERICA) INC [US]">
<ellipse fill="#ffffff" stroke="black" cx="403.724" cy="-679" rx="39.7935" ry="18"/>
<text text-anchor="middle" x="403.724" y="-675.3" font-family="Times,serif" font-size="14.00" fill="#2c94b3">AS6453</text>
</a>
</g>
</g>
<!-- AS6939&#45;&gt;AS6453 -->
<g id="edge33" class="edge"><title>AS6939&#45;&gt;AS6453</title>
<path fill="none" stroke="black" d="M324.967,-694.786C335.195,-692.709 346.496,-690.415 357.238,-688.234"/>
<polygon fill="black" stroke="black" points="358.21,-691.608 367.314,-686.189 356.818,-684.748 358.21,-691.608"/>
</g>
<!-- AS7018 -->
<g id="node20" class="node"><title>AS7018</title>
<g id="a_node20"><a xlink:href="/asn/7018" xlink:title="AS7018 ~ AT&amp;T Services, Inc. [US]">
<ellipse fill="#ffffff" stroke="black" cx="403.724" cy="-625" rx="39.7935" ry="18"/>
<text text-anchor="middle" x="403.724" y="-621.3" font-family="Times,serif" font-size="14.00" fill="#2c94b3">AS7018</text>
</a>
</g>
</g>
<!-- AS6939&#45;&gt;AS7018 -->
<g id="edge38" class="edge"><title>AS6939&#45;&gt;AS7018</title>
<path fill="none" stroke="black" d="M311.275,-687.154C328.672,-675.33 353.22,-658.646 372.502,-645.54"/>
<polygon fill="black" stroke="black" points="374.644,-648.317 380.947,-639.801 370.709,-642.527 374.644,-648.317"/>
</g>
<!-- AS1273 -->
<g id="node21" class="node"><title>AS1273</title>
<g id="a_node21"><a xlink:href="/asn/1273" xlink:title="AS1273 ~ Vodafone Group PLC [EU]">
<ellipse fill="#ffffff" stroke="black" cx="403.724" cy="-847" rx="39.7935" ry="18"/>
<text text-anchor="middle" x="403.724" y="-843.3" font-family="Times,serif" font-size="14.00" fill="#2c94b3">AS1273</text>
</a>
</g>
</g>
<!-- AS6939&#45;&gt;AS1273 -->
<g id="edge35" class="edge"><title>AS6939&#45;&gt;AS1273</title>
<path fill="none" stroke="black" d="M298.866,-719.583C311.802,-742.818 336.592,-784.38 364.077,-815 367.172,-818.448 370.649,-821.844 374.216,-825.062"/>
<polygon fill="black" stroke="black" points="372.181,-827.927 382.054,-831.771 376.733,-822.609 372.181,-827.927"/>
</g>
<!-- AS3257&#45;&gt;AS2497 -->
<g id="edge8" class="edge"><title>AS3257&#45;&gt;AS2497</title>
<path fill="none" stroke="black" d="M428.41,-163.3C433.662,-167.062 438.969,-171.375 443.37,-176 469.906,-203.885 492.096,-242.621 505.212,-268.227"/>
<polygon fill="black" stroke="black" points="502.174,-269.977 509.785,-277.348 508.432,-266.84 502.174,-269.977"/>
</g>
<!-- AS8218&#45;&gt;AS6461 -->
<g id="edge9" class="edge"><title>AS8218&#45;&gt;AS6461</title>
<path fill="none" stroke="black" stroke-width="2" d="M440.26,-33.7858C450.488,-31.7092 461.789,-29.4151 472.531,-27.2341"/>
<polygon fill="black" stroke="black" stroke-width="2" points="473.503,-30.6083 482.607,-25.1886 472.111,-23.7482 473.503,-30.6083"/>
</g>
<!-- AS2914&#45;&gt;AS2497 -->
<g id="edge11" class="edge"><title>AS2914&#45;&gt;AS2497</title>
<path fill="none" stroke="black" d="M443.396,-295C451.599,-295 460.363,-295 468.895,-295"/>
<polygon fill="black" stroke="black" points="469.134,-298.5 479.134,-295 469.134,-291.5 469.134,-298.5"/>
</g>
<!-- AS2914&#45;&gt;AS701 -->
<g id="edge10" class="edge"><title>AS2914&#45;&gt;AS701</title>
<path fill="none" stroke="black" d="M415.848,-312.311C423.932,-325.212 434.896,-343.395 443.37,-360 469.016,-410.253 493.988,-471.319 507.553,-505.817"/>
<polygon fill="black" stroke="black" points="504.328,-507.18 511.227,-515.221 510.848,-504.633 504.328,-507.18"/>
</g>
<!-- AS174&#45;&gt;AS3491 -->
<g id="edge12" class="edge"><title>AS174&#45;&gt;AS3491</title>
<path fill="none" stroke="black" d="M429.381,-107.399C434.86,-111.319 440.027,-116.181 443.37,-122 540.676,-291.36 382.065,-390.64 479.37,-560 480.823,-562.528 482.62,-564.876 484.636,-567.044"/>
<polygon fill="black" stroke="black" points="482.361,-569.703 492.162,-573.725 487.008,-564.469 482.361,-569.703"/>
</g>
<!-- AS3356&#45;&gt;AS3257 -->
<g id="edge22" class="edge"><title>AS3356&#45;&gt;AS3257</title>
<path fill="none" stroke="black" d="M294.39,-395.86C308.819,-343.451 350.606,-194.381 364.077,-176 365.801,-173.648 367.793,-171.428 369.946,-169.348"/>
<polygon fill="black" stroke="black" points="372.307,-171.936 377.727,-162.833 367.813,-166.57 372.307,-171.936"/>
</g>
<!-- AS3356&#45;&gt;AS2914 -->
<g id="edge20" class="edge"><title>AS3356&#45;&gt;AS2914</title>
<path fill="none" stroke="black" d="M302.666,-396.899C317.003,-378.79 340.939,-349.737 364.077,-327 367.545,-323.592 371.338,-320.15 375.149,-316.849"/>
<polygon fill="black" stroke="black" points="377.499,-319.446 382.899,-310.33 372.993,-314.089 377.499,-319.446"/>
</g>
<!-- AS3356&#45;&gt;AS2497 -->
<g id="edge19" class="edge"><title>AS3356&#45;&gt;AS2497</title>
<path fill="none" stroke="black" d="M308.574,-398.285C323.191,-386.758 344.148,-371.224 364.077,-360 400.959,-339.229 445.805,-321.021 477.556,-309.2"/>
<polygon fill="black" stroke="black" points="478.788,-312.477 486.966,-305.741 476.373,-305.906 478.788,-312.477"/>
</g>
<!-- AS3356&#45;&gt;AS701 -->
<g id="edge23" class="edge"><title>AS3356&#45;&gt;AS701</title>
<path fill="none" stroke="black" d="M296.011,-431.945C306.267,-457.031 328.644,-501.775 364.077,-522 397.778,-541.237 442.616,-542.228 475.204,-539.462"/>
<polygon fill="black" stroke="black" points="475.722,-542.928 485.324,-538.45 475.025,-535.962 475.722,-542.928"/>
</g>
<!-- AS3356&#45;&gt;AS3491 -->
<g id="edge17" class="edge"><title>AS3356&#45;&gt;AS3491</title>
<path fill="none" stroke="black" d="M294.641,-431.792C303.868,-460.127 325.809,-515.324 364.077,-545 394.3,-568.437 436.696,-578.81 469.346,-583.394"/>
<polygon fill="black" stroke="black" points="469.216,-586.905 479.576,-584.688 470.094,-579.961 469.216,-586.905"/>
</g>
<!-- AS3356&#45;&gt;AS6762 -->
<g id="edge16" class="edge"><title>AS3356&#45;&gt;AS6762</title>
<path fill="none" stroke="black" d="M310.279,-429.222C325.213,-440.091 345.827,-455.025 364.077,-468 366.898,-470.005 369.841,-472.085 372.789,-474.159"/>
<polygon fill="black" stroke="black" points="370.816,-477.05 381.013,-479.926 374.835,-471.319 370.816,-477.05"/>
</g>
<!-- AS3549 -->
<g id="node16" class="node"><title>AS3549</title>
<g id="a_node16"><a xlink:href="/asn/3549" xlink:title="AS3549 ~ Level 3 Parent, LLC [US]">
<ellipse fill="#ffffff" stroke="black" cx="403.724" cy="-441" rx="39.7935" ry="18"/>
<text text-anchor="middle" x="403.724" y="-437.3" font-family="Times,serif" font-size="14.00" fill="#2c94b3">AS3549</text>
</a>
</g>
</g>
<!-- AS3356&#45;&gt;AS3549 -->
<g id="edge18" class="edge"><title>AS3356&#45;&gt;AS3549</title>
<path fill="none" stroke="black" d="M324.038,-422.248C334.909,-424.838 347.064,-427.735 358.506,-430.462"/>
<polygon fill="black" stroke="black" points="357.789,-433.889 368.328,-432.803 359.412,-427.08 357.789,-433.889"/>
</g>
<!-- AS3356&#45;&gt;AS6453 -->
<g id="edge21" class="edge"><title>AS3356&#45;&gt;AS6453</title>
<path fill="none" stroke="black" d="M291.127,-432.198C295.869,-474.583 312.497,-581.62 364.077,-652 365.801,-654.352 367.793,-656.572 369.946,-658.652"/>
<polygon fill="black" stroke="black" points="367.813,-661.43 377.727,-665.167 372.307,-656.064 367.813,-661.43"/>
</g>
<!-- AS209 -->
<g id="node18" class="node"><title>AS209</title>
<g id="a_node18"><a xlink:href="/asn/209" xlink:title="AS209 ~ CenturyLink Communications, LLC [US]">
<ellipse fill="#ffffff" stroke="black" cx="403.724" cy="-387" rx="35.194" ry="18"/>
<text text-anchor="middle" x="403.724" y="-383.3" font-family="Times,serif" font-size="14.00" fill="#2c94b3">AS209</text>
</a>
</g>
</g>
<!-- AS3356&#45;&gt;AS209 -->
<g id="edge24" class="edge"><title>AS3356&#45;&gt;AS209</title>
<path fill="none" stroke="black" stroke-width="2" d="M324.038,-405.752C335.833,-402.942 349.137,-399.771 361.405,-396.847"/>
<polygon fill="black" stroke="black" stroke-width="2" points="362.494,-400.186 371.41,-394.463 360.871,-393.376 362.494,-400.186"/>
</g>
<!-- AS1299&#45;&gt;AS3257 -->
<g id="edge25" class="edge"><title>AS1299&#45;&gt;AS3257</title>
<path fill="none" stroke="black" d="M304.736,-232.545C319.349,-217.204 342.305,-194.044 364.077,-176 366.598,-173.911 369.275,-171.816 371.997,-169.767"/>
<polygon fill="black" stroke="black" points="374.157,-172.523 380.189,-163.813 370.042,-166.861 374.157,-172.523"/>
</g>
<!-- AS1299&#45;&gt;AS2914 -->
<g id="edge30" class="edge"><title>AS1299&#45;&gt;AS2914</title>
<path fill="none" stroke="black" d="M318.607,-260.846C332.482,-266.48 349.259,-273.292 364.169,-279.346"/>
<polygon fill="black" stroke="black" points="363.065,-282.675 373.647,-283.194 365.698,-276.189 363.065,-282.675"/>
</g>
<!-- AS1299&#45;&gt;AS174 -->
<g id="edge29" class="edge"><title>AS1299&#45;&gt;AS174</title>
<path fill="none" stroke="black" d="M298.468,-231.586C314.454,-201.156 347.584,-139.841 364.077,-122 366.484,-119.397 369.182,-116.902 372.005,-114.553"/>
<polygon fill="black" stroke="black" points="374.315,-117.193 380.15,-108.35 370.074,-111.624 374.315,-117.193"/>
</g>
<!-- AS1299&#45;&gt;AS2497 -->
<g id="edge31" class="edge"><title>AS1299&#45;&gt;AS2497</title>
<path fill="none" stroke="black" d="M327.813,-251.338C359.216,-253.822 404.611,-258.723 443.37,-268 455.516,-270.907 468.418,-275.14 480.017,-279.395"/>
<polygon fill="black" stroke="black" points="478.818,-282.683 489.409,-282.946 481.293,-276.136 478.818,-282.683"/>
</g>
<!-- AS1299&#45;&gt;AS6762 -->
<g id="edge26" class="edge"><title>AS1299&#45;&gt;AS6762</title>
<path fill="none" stroke="black" d="M294.015,-267.015C306.029,-313.275 339.212,-434.932 364.077,-468 365.83,-470.33 367.843,-472.535 370.01,-474.604"/>
<polygon fill="black" stroke="black" points="367.892,-477.395 377.818,-481.1 372.369,-472.014 367.892,-477.395"/>
</g>
<!-- AS1239 -->
<g id="node19" class="node"><title>AS1239</title>
<g id="a_node19"><a xlink:href="/asn/1239" xlink:title="AS1239 ~ Sprint [US]">
<ellipse fill="#ffffff" stroke="black" cx="403.724" cy="-203" rx="39.7935" ry="18"/>
<text text-anchor="middle" x="403.724" y="-199.3" font-family="Times,serif" font-size="14.00" fill="#2c94b3">AS1239</text>
</a>
</g>
</g>
<!-- AS1299&#45;&gt;AS1239 -->
<g id="edge27" class="edge"><title>AS1299&#45;&gt;AS1239</title>
<path fill="none" stroke="black" d="M318.607,-237.154C332.482,-231.52 349.259,-224.708 364.169,-218.654"/>
<polygon fill="black" stroke="black" points="365.698,-221.811 373.647,-214.806 363.065,-215.325 365.698,-221.811"/>
</g>
<!-- AS1299&#45;&gt;AS7018 -->
<g id="edge28" class="edge"><title>AS1299&#45;&gt;AS7018</title>
<path fill="none" stroke="black" d="M294.505,-266.844C301.96,-293.125 316.269,-343.801 328.077,-387 344.45,-446.899 345.147,-462.859 364.077,-522 372.433,-548.106 383.566,-577.312 391.736,-597.938"/>
<polygon fill="black" stroke="black" points="388.525,-599.335 395.484,-607.323 395.026,-596.739 388.525,-599.335"/>
</g>
</g>
</svg>
