<?xml version="1.0" encoding="UTF-8" standalone="no"?>
<!DOCTYPE svg PUBLIC "-//W3C//DTD SVG 1.1//EN"
 "http://www.w3.org/Graphics/SVG/1.1/DTD/svg11.dtd">
<!-- Generated by graphviz version 2.38.0 (20140413.2041)
 -->
<!-- Title: AS29545 IPv4 Upstream Graph Pages: 1 -->
<svg width="576pt" height="682pt"
 viewBox="0.00 0.00 575.76 682.00" xmlns="http://www.w3.org/2000/svg" xmlns:xlink="http://www.w3.org/1999/xlink">
<g id="graph0" class="graph" transform="scale(1 1) rotate(0) translate(4 678)">
<title>AS29545 IPv4 Upstream Graph</title>
<polygon fill="white" stroke="none" points="-4,4 -4,-678 571.762,-678 571.762,4 -4,4"/>
<!-- AS29545 -->
<g id="node1" class="node"><title>AS29545</title>
<g id="a_node1"><a xlink:href="/asn/29545" xlink:title="AS29545 ~ Ringstrasse 5 [AT]">
<ellipse fill="#ffffff" stroke="black" cx="44.1961" cy="-522" rx="44.393" ry="18"/>
<text text-anchor="middle" x="44.1961" y="-518.3" font-family="Times,serif" font-size="14.00" fill="#880000">AS29545</text>
</a>
</g>
</g>
<!-- AS1764 -->
<g id="node2" class="node"><title>AS1764</title>
<g id="a_node2"><a xlink:href="/asn/1764" xlink:title="AS1764 ~ NEXTLAYER&#45;AS [AT]">
<ellipse fill="#ffffff" stroke="black" cx="168.588" cy="-557" rx="39.7935" ry="18"/>
<text text-anchor="middle" x="168.588" y="-553.3" font-family="Times,serif" font-size="14.00" fill="#2c94b3">AS1764</text>
</a>
</g>
</g>
<!-- AS29545&#45;&gt;AS1764 -->
<g id="edge1" class="edge"><title>AS29545&#45;&gt;AS1764</title>
<path fill="none" stroke="black" stroke-width="1.35" d="M80.926,-532.218C94.6848,-536.152 110.534,-540.684 124.885,-544.788"/>
<polygon fill="black" stroke="black" stroke-width="1.35" points="123.961,-548.164 134.538,-547.549 125.885,-541.434 123.961,-548.164"/>
</g>
<!-- AS33891 -->
<g id="node3" class="node"><title>AS33891</title>
<g id="a_node3"><a xlink:href="/asn/33891" xlink:title="AS33891 ~ CORE&#45;BACKBONE GMBH GLOBAL NETWORK [DE]">
<ellipse fill="#ffffff" stroke="black" cx="168.588" cy="-488" rx="44.393" ry="18"/>
<text text-anchor="middle" x="168.588" y="-484.3" font-family="Times,serif" font-size="14.00" fill="#2c94b3">AS33891</text>
</a>
</g>
</g>
<!-- AS29545&#45;&gt;AS33891 -->
<g id="edge2" class="edge"><title>AS29545&#45;&gt;AS33891</title>
<path fill="none" stroke="black" stroke-width="4.5" d="M81.2558,-511.983C93.8424,-508.486 108.146,-504.513 121.44,-500.82"/>
<polygon fill="black" stroke="black" stroke-width="4.5" points="122.782,-504.534 131.363,-498.063 120.674,-496.946 122.782,-504.534"/>
</g>
<!-- AS2914 -->
<g id="node4" class="node"><title>AS2914</title>
<g id="a_node4"><a xlink:href="/asn/2914" xlink:title="AS2914 ~ NTT America, Inc. [US]">
<ellipse fill="#ffffff" stroke="black" cx="408.273" cy="-510" rx="39.7935" ry="18"/>
<text text-anchor="middle" x="408.273" y="-506.3" font-family="Times,serif" font-size="14.00" fill="#2c94b3">AS2914</text>
</a>
</g>
</g>
<!-- AS1764&#45;&gt;AS2914 -->
<g id="edge3" class="edge"><title>AS1764&#45;&gt;AS2914</title>
<path fill="none" stroke="black" stroke-width="3" d="M205.172,-549.964C246.83,-541.726 315.916,-528.065 361.523,-519.047"/>
<polygon fill="black" stroke="black" stroke-width="3" points="362.315,-522.458 371.446,-517.084 360.957,-515.591 362.315,-522.458"/>
</g>
<!-- AS8218 -->
<g id="node5" class="node"><title>AS8218</title>
<g id="a_node5"><a xlink:href="/asn/8218" xlink:title="AS8218 ~ legacy Neotelecoms [FR]">
<ellipse fill="#ffffff" stroke="black" cx="288.431" cy="-656" rx="39.7935" ry="18"/>
<text text-anchor="middle" x="288.431" y="-652.3" font-family="Times,serif" font-size="14.00" fill="#2c94b3">AS8218</text>
</a>
</g>
</g>
<!-- AS1764&#45;&gt;AS8218 -->
<g id="edge4" class="edge"><title>AS1764&#45;&gt;AS8218</title>
<path fill="none" stroke="black" d="M188.104,-572.759C204.124,-586.372 227.93,-606.546 248.784,-624 252.592,-627.187 256.62,-630.541 260.581,-633.83"/>
<polygon fill="black" stroke="black" points="258.594,-636.729 268.527,-640.415 263.061,-631.339 258.594,-636.729"/>
</g>
<!-- AS174 -->
<g id="node6" class="node"><title>AS174</title>
<g id="a_node6"><a xlink:href="/asn/174" xlink:title="AS174 ~ Cogent Communications [US]">
<ellipse fill="#ffffff" stroke="black" cx="408.273" cy="-602" rx="35.194" ry="18"/>
<text text-anchor="middle" x="408.273" y="-598.3" font-family="Times,serif" font-size="14.00" fill="#2c94b3">AS174</text>
</a>
</g>
</g>
<!-- AS1764&#45;&gt;AS174 -->
<g id="edge5" class="edge"><title>AS1764&#45;&gt;AS174</title>
<path fill="none" stroke="black" stroke-width="2" d="M205.429,-563.786C248.231,-571.889 319.722,-585.424 365.131,-594.021"/>
<polygon fill="black" stroke="black" stroke-width="2" points="364.486,-597.461 374.962,-595.883 365.788,-590.584 364.486,-597.461"/>
</g>
<!-- AS6461 -->
<g id="node9" class="node"><title>AS6461</title>
<g id="a_node9"><a xlink:href="/asn/6461" xlink:title="AS6461 ~ Zayo Bandwidth [US]">
<ellipse fill="#ffffff" stroke="black" cx="408.273" cy="-656" rx="39.7935" ry="18"/>
<text text-anchor="middle" x="408.273" y="-652.3" font-family="Times,serif" font-size="14.00" fill="#2c94b3">AS6461</text>
</a>
</g>
</g>
<!-- AS33891&#45;&gt;AS6461 -->
<g id="edge12" class="edge"><title>AS33891&#45;&gt;AS6461</title>
<path fill="none" stroke="black" stroke-width="0.409091" d="M190.264,-503.71C225.437,-530.271 299.402,-585.418 364.077,-629 367.625,-631.391 371.375,-633.842 375.123,-636.246"/>
<polygon fill="black" stroke="black" stroke-width="0.409091" points="373.449,-639.328 383.771,-641.717 377.191,-633.413 373.449,-639.328"/>
</g>
<!-- AS3356 -->
<g id="node11" class="node"><title>AS3356</title>
<g id="a_node11"><a xlink:href="/asn/3356" xlink:title="AS3356 ~ Level 3 Parent, LLC [US]">
<ellipse fill="#ffffff" stroke="black" cx="288.431" cy="-256" rx="39.7935" ry="18"/>
<text text-anchor="middle" x="288.431" y="-252.3" font-family="Times,serif" font-size="14.00" fill="#2c94b3">AS3356</text>
</a>
</g>
</g>
<!-- AS33891&#45;&gt;AS3356 -->
<g id="edge10" class="edge"><title>AS33891&#45;&gt;AS3356</title>
<path fill="none" stroke="black" stroke-width="4.5" d="M178.639,-470.181C199.211,-429.68 249.575,-330.527 273.877,-282.684"/>
<polygon fill="black" stroke="black" stroke-width="4.5" points="277.492,-284.262 278.51,-273.563 270.471,-280.695 277.492,-284.262"/>
</g>
<!-- AS1299 -->
<g id="node12" class="node"><title>AS1299</title>
<g id="a_node12"><a xlink:href="/asn/1299" xlink:title="AS1299 ~ Telia Carrier [EU]">
<ellipse fill="#ffffff" stroke="black" cx="288.431" cy="-488" rx="39.7935" ry="18"/>
<text text-anchor="middle" x="288.431" y="-484.3" font-family="Times,serif" font-size="14.00" fill="#2c94b3">AS1299</text>
</a>
</g>
</g>
<!-- AS33891&#45;&gt;AS1299 -->
<g id="edge11" class="edge"><title>AS33891&#45;&gt;AS1299</title>
<path fill="none" stroke="black" stroke-width="2.86364" d="M212.799,-488C221.112,-488 229.875,-488 238.357,-488"/>
<polygon fill="black" stroke="black" stroke-width="2.86364" points="238.516,-491.5 248.516,-488 238.516,-484.5 238.516,-491.5"/>
</g>
<!-- AS3257 -->
<g id="node13" class="node"><title>AS3257</title>
<g id="a_node13"><a xlink:href="/asn/3257" xlink:title="AS3257 ~ GTT [DE]">
<ellipse fill="#ffffff" stroke="black" cx="288.431" cy="-434" rx="39.7935" ry="18"/>
<text text-anchor="middle" x="288.431" y="-430.3" font-family="Times,serif" font-size="14.00" fill="#2c94b3">AS3257</text>
</a>
</g>
</g>
<!-- AS33891&#45;&gt;AS3257 -->
<g id="edge13" class="edge"><title>AS33891&#45;&gt;AS3257</title>
<path fill="none" stroke="black" stroke-width="0.409091" d="M198.718,-474.652C214.329,-467.498 233.727,-458.609 250.399,-450.97"/>
<polygon fill="black" stroke="black" stroke-width="0.409091" points="252.218,-453.986 259.851,-446.638 249.302,-447.622 252.218,-453.986"/>
</g>
<!-- AS6762 -->
<g id="node7" class="node"><title>AS6762</title>
<g id="a_node7"><a xlink:href="/asn/6762" xlink:title="AS6762 ~ TELECOM ITALIA SPARKLE S.p.A. [IT]">
<ellipse fill="#ffffff" stroke="black" cx="528.116" cy="-356" rx="39.7935" ry="18"/>
<text text-anchor="middle" x="528.116" y="-352.3" font-family="Times,serif" font-size="14.00" fill="#2c94b3">AS6762</text>
</a>
</g>
</g>
<!-- AS2914&#45;&gt;AS6762 -->
<g id="edge6" class="edge"><title>AS2914&#45;&gt;AS6762</title>
<path fill="none" stroke="black" d="M435.454,-496.452C441.467,-492.609 447.535,-488.071 452.469,-483 481.222,-453.453 503.362,-410.759 515.817,-383.192"/>
<polygon fill="black" stroke="black" points="519.138,-384.335 519.962,-373.772 512.731,-381.516 519.138,-384.335"/>
</g>
<!-- AS2497 -->
<g id="node8" class="node"><title>AS2497</title>
<g id="a_node8"><a xlink:href="/asn/2497" xlink:title="AS2497 ~ Internet Initiative Japan Inc. [JP]">
<ellipse fill="#ffffff" stroke="black" cx="528.116" cy="-256" rx="39.7935" ry="18"/>
<text text-anchor="middle" x="528.116" y="-252.3" font-family="Times,serif" font-size="14.00" fill="#2c94b3">AS2497</text>
</a>
</g>
</g>
<!-- AS2914&#45;&gt;AS2497 -->
<g id="edge7" class="edge"><title>AS2914&#45;&gt;AS2497</title>
<path fill="none" stroke="black" d="M437.062,-497.13C442.879,-493.309 448.456,-488.611 452.469,-483 493.362,-425.829 463.822,-394.827 488.469,-329 494.516,-312.851 503.409,-295.766 511.141,-282.188"/>
<polygon fill="black" stroke="black" points="514.249,-283.805 516.258,-273.403 508.2,-280.282 514.249,-283.805"/>
</g>
<!-- AS8218&#45;&gt;AS6461 -->
<g id="edge8" class="edge"><title>AS8218&#45;&gt;AS6461</title>
<path fill="none" stroke="black" d="M328.343,-656C337.897,-656 348.246,-656 358.209,-656"/>
<polygon fill="black" stroke="black" points="358.402,-659.5 368.402,-656 358.402,-652.5 358.402,-659.5"/>
</g>
<!-- AS3491 -->
<g id="node10" class="node"><title>AS3491</title>
<g id="a_node10"><a xlink:href="/asn/3491" xlink:title="AS3491 ~ PCCW Global, Inc. [US]">
<ellipse fill="#ffffff" stroke="black" cx="528.116" cy="-556" rx="39.7935" ry="18"/>
<text text-anchor="middle" x="528.116" y="-552.3" font-family="Times,serif" font-size="14.00" fill="#2c94b3">AS3491</text>
</a>
</g>
</g>
<!-- AS174&#45;&gt;AS3491 -->
<g id="edge9" class="edge"><title>AS174&#45;&gt;AS3491</title>
<path fill="none" stroke="black" d="M436.605,-591.331C451.837,-585.385 471.069,-577.878 487.883,-571.315"/>
<polygon fill="black" stroke="black" points="489.413,-574.475 497.455,-567.578 486.867,-567.954 489.413,-574.475"/>
</g>
<!-- AS3356&#45;&gt;AS2914 -->
<g id="edge24" class="edge"><title>AS3356&#45;&gt;AS2914</title>
<path fill="none" stroke="black" d="M293.676,-274.052C305.13,-321.647 337.585,-449.21 364.077,-483 366.396,-485.958 369.136,-488.678 372.093,-491.157"/>
<polygon fill="black" stroke="black" points="370.15,-494.073 380.286,-497.157 374.286,-488.425 370.15,-494.073"/>
</g>
<!-- AS3356&#45;&gt;AS6762 -->
<g id="edge21" class="edge"><title>AS3356&#45;&gt;AS6762</title>
<path fill="none" stroke="black" d="M314.405,-242.391C348.015,-226.088 408.641,-203.922 452.469,-229 462.352,-234.655 494.609,-293.901 513.328,-329.44"/>
<polygon fill="black" stroke="black" points="510.253,-331.113 517.996,-338.345 516.453,-327.863 510.253,-331.113"/>
</g>
<!-- AS3356&#45;&gt;AS2497 -->
<g id="edge20" class="edge"><title>AS3356&#45;&gt;AS2497</title>
<path fill="none" stroke="black" d="M290.95,-238.032C295.133,-201.345 310.372,-118.318 364.077,-83 396.901,-61.414 419.646,-61.414 452.469,-83 501.664,-115.352 518.583,-187.736 524.293,-227.863"/>
<polygon fill="black" stroke="black" points="520.853,-228.558 525.597,-238.032 527.796,-227.668 520.853,-228.558"/>
</g>
<!-- AS3356&#45;&gt;AS3491 -->
<g id="edge25" class="edge"><title>AS3356&#45;&gt;AS3491</title>
<path fill="none" stroke="black" d="M319.733,-267.315C365.558,-284.535 447.695,-315.87 452.469,-321 481.032,-351.69 509.587,-472.994 521.424,-528.28"/>
<polygon fill="black" stroke="black" points="518.008,-529.045 523.5,-538.105 524.857,-527.597 518.008,-529.045"/>
</g>
<!-- AS1239 -->
<g id="node15" class="node"><title>AS1239</title>
<g id="a_node15"><a xlink:href="/asn/1239" xlink:title="AS1239 ~ Sprint [US]">
<ellipse fill="#ffffff" stroke="black" cx="408.273" cy="-348" rx="39.7935" ry="18"/>
<text text-anchor="middle" x="408.273" y="-344.3" font-family="Times,serif" font-size="14.00" fill="#2c94b3">AS1239</text>
</a>
</g>
</g>
<!-- AS3356&#45;&gt;AS1239 -->
<g id="edge29" class="edge"><title>AS3356&#45;&gt;AS1239</title>
<path fill="none" stroke="black" d="M308.598,-271.75C323.579,-283.977 344.992,-301.269 364.077,-316 368.603,-319.493 373.435,-323.146 378.169,-326.683"/>
<polygon fill="black" stroke="black" points="376.38,-329.714 386.495,-332.864 380.552,-324.093 376.38,-329.714"/>
</g>
<!-- AS6453 -->
<g id="node16" class="node"><title>AS6453</title>
<g id="a_node16"><a xlink:href="/asn/6453" xlink:title="AS6453 ~ TATA COMMUNICATIONS (AMERICA) INC [US]">
<ellipse fill="#ffffff" stroke="black" cx="408.273" cy="-402" rx="39.7935" ry="18"/>
<text text-anchor="middle" x="408.273" y="-398.3" font-family="Times,serif" font-size="14.00" fill="#2c94b3">AS6453</text>
</a>
</g>
</g>
<!-- AS3356&#45;&gt;AS6453 -->
<g id="edge23" class="edge"><title>AS3356&#45;&gt;AS6453</title>
<path fill="none" stroke="black" d="M297.442,-273.868C309.268,-298.778 333.357,-344.329 364.077,-375 366.884,-377.802 370.033,-380.451 373.318,-382.914"/>
<polygon fill="black" stroke="black" points="371.422,-385.859 381.646,-388.637 375.387,-380.089 371.422,-385.859"/>
</g>
<!-- AS3549 -->
<g id="node17" class="node"><title>AS3549</title>
<g id="a_node17"><a xlink:href="/asn/3549" xlink:title="AS3549 ~ Level 3 Parent, LLC [US]">
<ellipse fill="#ffffff" stroke="black" cx="408.273" cy="-110" rx="39.7935" ry="18"/>
<text text-anchor="middle" x="408.273" y="-106.3" font-family="Times,serif" font-size="14.00" fill="#2c94b3">AS3549</text>
</a>
</g>
</g>
<!-- AS3356&#45;&gt;AS3549 -->
<g id="edge22" class="edge"><title>AS3356&#45;&gt;AS3549</title>
<path fill="none" stroke="black" d="M297.442,-238.132C309.268,-213.222 333.357,-167.671 364.077,-137 366.884,-134.198 370.033,-131.549 373.318,-129.086"/>
<polygon fill="black" stroke="black" points="375.387,-131.911 381.646,-123.363 371.422,-126.141 375.387,-131.911"/>
</g>
<!-- AS12956 -->
<g id="node18" class="node"><title>AS12956</title>
<g id="a_node18"><a xlink:href="/asn/12956" xlink:title="AS12956 ~ TELXIUS [ES]">
<ellipse fill="#ffffff" stroke="black" cx="408.273" cy="-18" rx="44.393" ry="18"/>
<text text-anchor="middle" x="408.273" y="-14.3" font-family="Times,serif" font-size="14.00" fill="#2c94b3">AS12956</text>
</a>
</g>
</g>
<!-- AS3356&#45;&gt;AS12956 -->
<g id="edge26" class="edge"><title>AS3356&#45;&gt;AS12956</title>
<path fill="none" stroke="black" d="M292.311,-238.082C299.132,-200.141 319.186,-110.241 364.077,-50 366.991,-46.0898 370.515,-42.4428 374.278,-39.1143"/>
<polygon fill="black" stroke="black" points="376.608,-41.7329 382.221,-32.7474 372.23,-36.271 376.608,-41.7329"/>
</g>
<!-- AS209 -->
<g id="node19" class="node"><title>AS209</title>
<g id="a_node19"><a xlink:href="/asn/209" xlink:title="AS209 ~ CenturyLink Communications, LLC [US]">
<ellipse fill="#ffffff" stroke="black" cx="408.273" cy="-256" rx="35.194" ry="18"/>
<text text-anchor="middle" x="408.273" y="-252.3" font-family="Times,serif" font-size="14.00" fill="#2c94b3">AS209</text>
</a>
</g>
</g>
<!-- AS3356&#45;&gt;AS209 -->
<g id="edge27" class="edge"><title>AS3356&#45;&gt;AS209</title>
<path fill="none" stroke="black" d="M328.343,-256C339.43,-256 351.59,-256 362.972,-256"/>
<polygon fill="black" stroke="black" points="363.154,-259.5 373.154,-256 363.154,-252.5 363.154,-259.5"/>
</g>
<!-- AS701 -->
<g id="node20" class="node"><title>AS701</title>
<g id="a_node20"><a xlink:href="/asn/701" xlink:title="AS701 ~ UUNET [US]">
<ellipse fill="#ffffff" stroke="black" cx="408.273" cy="-164" rx="35.194" ry="18"/>
<text text-anchor="middle" x="408.273" y="-160.3" font-family="Times,serif" font-size="14.00" fill="#2c94b3">AS701</text>
</a>
</g>
</g>
<!-- AS3356&#45;&gt;AS701 -->
<g id="edge28" class="edge"><title>AS3356&#45;&gt;AS701</title>
<path fill="none" stroke="black" d="M308.598,-240.25C323.579,-228.023 344.992,-210.731 364.077,-196 368.905,-192.274 374.083,-188.365 379.117,-184.61"/>
<polygon fill="black" stroke="black" points="381.418,-187.261 387.367,-178.493 377.249,-181.637 381.418,-187.261"/>
</g>
<!-- AS1299&#45;&gt;AS2914 -->
<g id="edge14" class="edge"><title>AS1299&#45;&gt;AS2914</title>
<path fill="none" stroke="black" d="M325.428,-494.72C336.631,-496.812 349.144,-499.148 360.949,-501.352"/>
<polygon fill="black" stroke="black" points="360.618,-504.85 371.091,-503.245 361.903,-497.969 360.618,-504.85"/>
</g>
<!-- AS1299&#45;&gt;AS174 -->
<g id="edge19" class="edge"><title>AS1299&#45;&gt;AS174</title>
<path fill="none" stroke="black" d="M303.141,-504.91C317.487,-522.142 341.083,-549.217 364.077,-570 368.513,-574.009 373.433,-578.016 378.319,-581.77"/>
<polygon fill="black" stroke="black" points="376.305,-584.635 386.415,-587.805 380.489,-579.022 376.305,-584.635"/>
</g>
<!-- AS1299&#45;&gt;AS3491 -->
<g id="edge17" class="edge"><title>AS1299&#45;&gt;AS3491</title>
<path fill="none" stroke="black" d="M308.044,-503.789C322.391,-515.029 343.241,-529.431 364.077,-537 400.814,-550.345 444.985,-554.844 478.08,-556.146"/>
<polygon fill="black" stroke="black" points="478.31,-559.654 488.413,-556.463 478.525,-552.658 478.31,-559.654"/>
</g>
<!-- AS7018 -->
<g id="node14" class="node"><title>AS7018</title>
<g id="a_node14"><a xlink:href="/asn/7018" xlink:title="AS7018 ~ AT&amp;T Services, Inc. [US]">
<ellipse fill="#ffffff" stroke="black" cx="408.273" cy="-456" rx="39.7935" ry="18"/>
<text text-anchor="middle" x="408.273" y="-452.3" font-family="Times,serif" font-size="14.00" fill="#2c94b3">AS7018</text>
</a>
</g>
</g>
<!-- AS1299&#45;&gt;AS7018 -->
<g id="edge15" class="edge"><title>AS1299&#45;&gt;AS7018</title>
<path fill="none" stroke="black" d="M322.885,-478.916C335.573,-475.47 350.212,-471.495 363.699,-467.833"/>
<polygon fill="black" stroke="black" points="365.003,-471.105 373.736,-465.107 363.168,-464.35 365.003,-471.105"/>
</g>
<!-- AS1299&#45;&gt;AS1239 -->
<g id="edge16" class="edge"><title>AS1299&#45;&gt;AS1239</title>
<path fill="none" stroke="black" d="M314.089,-473.907C319.18,-470.188 324.172,-465.842 328.077,-461 354.09,-428.747 337.248,-406.577 364.077,-375 366.511,-372.136 369.327,-369.478 372.332,-367.038"/>
<polygon fill="black" stroke="black" points="374.52,-369.775 380.592,-361.093 370.431,-364.094 374.52,-369.775"/>
</g>
<!-- AS1299&#45;&gt;AS6453 -->
<g id="edge18" class="edge"><title>AS1299&#45;&gt;AS6453</title>
<path fill="none" stroke="black" d="M311.421,-473.299C316.951,-469.423 322.809,-465.158 328.077,-461 344.88,-447.736 346.94,-441.83 364.077,-429 367.422,-426.496 371.004,-423.996 374.621,-421.585"/>
<polygon fill="black" stroke="black" points="376.527,-424.521 383.031,-416.157 372.731,-418.639 376.527,-424.521"/>
</g>
</g>
</svg>
