<?xml version="1.0" encoding="UTF-8" standalone="no"?>
<!DOCTYPE svg PUBLIC "-//W3C//DTD SVG 1.1//EN"
 "http://www.w3.org/Graphics/SVG/1.1/DTD/svg11.dtd">
<!-- Generated by graphviz version 2.38.0 (20140413.2041)
 -->
<!-- Title: AS29545 IPv4 Upstream Graph Pages: 1 -->
<svg width="567pt" height="666pt"
 viewBox="0.00 0.00 566.66 666.00" xmlns="http://www.w3.org/2000/svg" xmlns:xlink="http://www.w3.org/1999/xlink">
<g id="graph0" class="graph" transform="scale(1 1) rotate(0) translate(4 662)">
<title>AS29545 IPv4 Upstream Graph</title>
<polygon fill="white" stroke="none" points="-4,4 -4,-662 562.663,-662 562.663,4 -4,4"/>
<!-- AS29545 -->
<g id="node1" class="node"><title>AS29545</title>
<g id="a_node1"><a xlink:href="/asn/29545" xlink:title="AS29545 ~ Ringstrasse 5 [AT]">
<ellipse fill="#ffffff" stroke="black" cx="44.1961" cy="-478" rx="44.393" ry="18"/>
<text text-anchor="middle" x="44.1961" y="-474.3" font-family="Times,serif" font-size="14.00" fill="#880000">AS29545</text>
</a>
</g>
</g>
<!-- AS1764 -->
<g id="node2" class="node"><title>AS1764</title>
<g id="a_node2"><a xlink:href="/asn/1764" xlink:title="AS1764 ~ NEXTLAYER&#45;AS [AT]">
<ellipse fill="#ffffff" stroke="black" cx="168.588" cy="-509" rx="39.7935" ry="18"/>
<text text-anchor="middle" x="168.588" y="-505.3" font-family="Times,serif" font-size="14.00" fill="#2c94b3">AS1764</text>
</a>
</g>
</g>
<!-- AS29545&#45;&gt;AS1764 -->
<g id="edge1" class="edge"><title>AS29545&#45;&gt;AS1764</title>
<path fill="none" stroke="black" stroke-width="1.35" d="M82.2499,-487.385C95.2573,-490.68 109.998,-494.413 123.524,-497.839"/>
<polygon fill="black" stroke="black" stroke-width="1.35" points="123.028,-501.324 133.582,-500.387 124.747,-494.538 123.028,-501.324"/>
</g>
<!-- AS33891 -->
<g id="node3" class="node"><title>AS33891</title>
<g id="a_node3"><a xlink:href="/asn/33891" xlink:title="AS33891 ~ CORE&#45;BACKBONE GMBH GLOBAL NETWORK [DE]">
<ellipse fill="#ffffff" stroke="black" cx="168.588" cy="-448" rx="44.393" ry="18"/>
<text text-anchor="middle" x="168.588" y="-444.3" font-family="Times,serif" font-size="14.00" fill="#2c94b3">AS33891</text>
</a>
</g>
</g>
<!-- AS29545&#45;&gt;AS33891 -->
<g id="edge2" class="edge"><title>AS29545&#45;&gt;AS33891</title>
<path fill="none" stroke="black" stroke-width="4.5" d="M82.5828,-468.836C94.5645,-465.899 107.989,-462.609 120.568,-459.525"/>
<polygon fill="black" stroke="black" stroke-width="4.5" points="121.655,-463.313 130.43,-457.108 119.781,-455.664 121.655,-463.313"/>
</g>
<!-- AS2914 -->
<g id="node4" class="node"><title>AS2914</title>
<g id="a_node4"><a xlink:href="/asn/2914" xlink:title="AS2914 ~ NTT America, Inc. [US]">
<ellipse fill="#ffffff" stroke="black" cx="403.724" cy="-294" rx="39.7935" ry="18"/>
<text text-anchor="middle" x="403.724" y="-290.3" font-family="Times,serif" font-size="14.00" fill="#2c94b3">AS2914</text>
</a>
</g>
</g>
<!-- AS1764&#45;&gt;AS2914 -->
<g id="edge3" class="edge"><title>AS1764&#45;&gt;AS2914</title>
<path fill="none" stroke="black" stroke-width="2" d="M191.386,-493.982C198.619,-488.461 206.437,-481.869 212.784,-475 232.361,-453.816 229.718,-442.644 248.784,-421 293.621,-370.101 310.581,-362.703 364.077,-321 366.807,-318.872 369.689,-316.711 372.598,-314.585"/>
<polygon fill="black" stroke="black" stroke-width="2" points="374.668,-317.408 380.768,-308.745 370.598,-311.713 374.668,-317.408"/>
</g>
<!-- AS8218 -->
<g id="node5" class="node"><title>AS8218</title>
<g id="a_node5"><a xlink:href="/asn/8218" xlink:title="AS8218 ~ legacy Neotelecoms [FR]">
<ellipse fill="#ffffff" stroke="black" cx="288.431" cy="-636" rx="39.7935" ry="18"/>
<text text-anchor="middle" x="288.431" y="-632.3" font-family="Times,serif" font-size="14.00" fill="#2c94b3">AS8218</text>
</a>
</g>
</g>
<!-- AS1764&#45;&gt;AS8218 -->
<g id="edge4" class="edge"><title>AS1764&#45;&gt;AS8218</title>
<path fill="none" stroke="black" d="M184.994,-525.603C205.461,-547.661 241.756,-586.776 265.192,-612.033"/>
<polygon fill="black" stroke="black" points="262.654,-614.443 272.021,-619.393 267.785,-609.682 262.654,-614.443"/>
</g>
<!-- AS174 -->
<g id="node6" class="node"><title>AS174</title>
<g id="a_node6"><a xlink:href="/asn/174" xlink:title="AS174 ~ Cogent Communications [US]">
<ellipse fill="#ffffff" stroke="black" cx="403.724" cy="-586" rx="35.194" ry="18"/>
<text text-anchor="middle" x="403.724" y="-582.3" font-family="Times,serif" font-size="14.00" fill="#2c94b3">AS174</text>
</a>
</g>
</g>
<!-- AS1764&#45;&gt;AS174 -->
<g id="edge5" class="edge"><title>AS1764&#45;&gt;AS174</title>
<path fill="none" stroke="black" stroke-width="3" d="M201.03,-519.385C243.294,-533.344 318.387,-558.145 364.058,-573.229"/>
<polygon fill="black" stroke="black" stroke-width="3" points="363.018,-576.572 373.611,-576.385 365.214,-569.925 363.018,-576.572"/>
</g>
<!-- AS6461 -->
<g id="node7" class="node"><title>AS6461</title>
<g id="a_node7"><a xlink:href="/asn/6461" xlink:title="AS6461 ~ Zayo Bandwidth [US]">
<ellipse fill="#ffffff" stroke="black" cx="403.724" cy="-640" rx="39.7935" ry="18"/>
<text text-anchor="middle" x="403.724" y="-636.3" font-family="Times,serif" font-size="14.00" fill="#2c94b3">AS6461</text>
</a>
</g>
</g>
<!-- AS33891&#45;&gt;AS6461 -->
<g id="edge12" class="edge"><title>AS33891&#45;&gt;AS6461</title>
<path fill="none" stroke="black" stroke-width="0.45" d="M190.399,-464.062C197.552,-469.667 205.572,-476.045 212.784,-482 281.37,-538.633 293.906,-558.345 364.077,-613 366.807,-615.126 369.69,-617.287 372.6,-619.412"/>
<polygon fill="black" stroke="black" stroke-width="0.45" points="370.6,-622.285 380.771,-625.252 374.67,-616.59 370.6,-622.285"/>
</g>
<!-- AS1299 -->
<g id="node11" class="node"><title>AS1299</title>
<g id="a_node11"><a xlink:href="/asn/1299" xlink:title="AS1299 ~ Telia Carrier [EU]">
<ellipse fill="#ffffff" stroke="black" cx="288.431" cy="-448" rx="39.7935" ry="18"/>
<text text-anchor="middle" x="288.431" y="-444.3" font-family="Times,serif" font-size="14.00" fill="#2c94b3">AS1299</text>
</a>
</g>
</g>
<!-- AS33891&#45;&gt;AS1299 -->
<g id="edge10" class="edge"><title>AS33891&#45;&gt;AS1299</title>
<path fill="none" stroke="black" stroke-width="3.6" d="M212.799,-448C221.112,-448 229.875,-448 238.357,-448"/>
<polygon fill="black" stroke="black" stroke-width="3.6" points="238.516,-451.5 248.516,-448 238.516,-444.5 238.516,-451.5"/>
</g>
<!-- AS3356 -->
<g id="node12" class="node"><title>AS3356</title>
<g id="a_node12"><a xlink:href="/asn/3356" xlink:title="AS3356 ~ Level 3 Parent, LLC [US]">
<ellipse fill="#ffffff" stroke="black" cx="288.431" cy="-248" rx="39.7935" ry="18"/>
<text text-anchor="middle" x="288.431" y="-244.3" font-family="Times,serif" font-size="14.00" fill="#2c94b3">AS3356</text>
</a>
</g>
</g>
<!-- AS33891&#45;&gt;AS3356 -->
<g id="edge11" class="edge"><title>AS33891&#45;&gt;AS3356</title>
<path fill="none" stroke="black" stroke-width="4.5" d="M180.046,-430.251C200.889,-394.878 247.69,-315.447 272.045,-274.112"/>
<polygon fill="black" stroke="black" stroke-width="4.5" points="275.481,-276.038 277.165,-265.423 268.696,-272.04 275.481,-276.038"/>
</g>
<!-- AS3257 -->
<g id="node13" class="node"><title>AS3257</title>
<g id="a_node13"><a xlink:href="/asn/3257" xlink:title="AS3257 ~ GTT [DE]">
<ellipse fill="#ffffff" stroke="black" cx="288.431" cy="-194" rx="39.7935" ry="18"/>
<text text-anchor="middle" x="288.431" y="-190.3" font-family="Times,serif" font-size="14.00" fill="#2c94b3">AS3257</text>
</a>
</g>
</g>
<!-- AS33891&#45;&gt;AS3257 -->
<g id="edge13" class="edge"><title>AS33891&#45;&gt;AS3257</title>
<path fill="none" stroke="black" stroke-width="0.45" d="M172.016,-430.024C178.293,-389.167 198.249,-287.707 248.784,-221 250.545,-218.676 252.564,-216.476 254.736,-214.41"/>
<polygon fill="black" stroke="black" stroke-width="0.45" points="257.094,-217.001 262.551,-207.92 252.622,-211.616 257.094,-217.001"/>
</g>
<!-- AS2497 -->
<g id="node10" class="node"><title>AS2497</title>
<g id="a_node10"><a xlink:href="/asn/2497" xlink:title="AS2497 ~ Internet Initiative Japan Inc. [JP]">
<ellipse fill="#ffffff" stroke="black" cx="519.017" cy="-179" rx="39.7935" ry="18"/>
<text text-anchor="middle" x="519.017" y="-175.3" font-family="Times,serif" font-size="14.00" fill="#2c94b3">AS2497</text>
</a>
</g>
</g>
<!-- AS2914&#45;&gt;AS2497 -->
<g id="edge9" class="edge"><title>AS2914&#45;&gt;AS2497</title>
<path fill="none" stroke="black" d="M420.956,-277.523C440.306,-257.882 472.783,-224.916 494.788,-202.579"/>
<polygon fill="black" stroke="black" points="497.29,-205.026 501.815,-195.446 492.303,-200.114 497.29,-205.026"/>
</g>
<!-- AS8218&#45;&gt;AS6461 -->
<g id="edge6" class="edge"><title>AS8218&#45;&gt;AS6461</title>
<path fill="none" stroke="black" d="M328.103,-637.365C336.306,-637.655 345.07,-637.964 353.602,-638.266"/>
<polygon fill="black" stroke="black" points="353.724,-641.772 363.841,-638.627 353.971,-634.776 353.724,-641.772"/>
</g>
<!-- AS6762 -->
<g id="node8" class="node"><title>AS6762</title>
<g id="a_node8"><a xlink:href="/asn/6762" xlink:title="AS6762 ~ TELECOM ITALIA SPARKLE S.p.A. [IT]">
<ellipse fill="#ffffff" stroke="black" cx="519.017" cy="-448" rx="39.7935" ry="18"/>
<text text-anchor="middle" x="519.017" y="-444.3" font-family="Times,serif" font-size="14.00" fill="#2c94b3">AS6762</text>
</a>
</g>
</g>
<!-- AS174&#45;&gt;AS6762 -->
<g id="edge7" class="edge"><title>AS174&#45;&gt;AS6762</title>
<path fill="none" stroke="black" d="M418.39,-569.354C438.101,-545.343 474.658,-500.814 497.585,-472.887"/>
<polygon fill="black" stroke="black" points="500.307,-475.088 503.947,-465.138 494.897,-470.646 500.307,-475.088"/>
</g>
<!-- AS3491 -->
<g id="node9" class="node"><title>AS3491</title>
<g id="a_node9"><a xlink:href="/asn/3491" xlink:title="AS3491 ~ PCCW Global, Inc. [US]">
<ellipse fill="#ffffff" stroke="black" cx="519.017" cy="-540" rx="39.7935" ry="18"/>
<text text-anchor="middle" x="519.017" y="-536.3" font-family="Times,serif" font-size="14.00" fill="#2c94b3">AS3491</text>
</a>
</g>
</g>
<!-- AS174&#45;&gt;AS3491 -->
<g id="edge8" class="edge"><title>AS174&#45;&gt;AS3491</title>
<path fill="none" stroke="black" d="M431.86,-574.982C446.064,-569.215 463.701,-562.054 479.311,-555.715"/>
<polygon fill="black" stroke="black" points="480.771,-558.9 488.72,-551.895 478.138,-552.414 480.771,-558.9"/>
</g>
<!-- AS1299&#45;&gt;AS2914 -->
<g id="edge23" class="edge"><title>AS1299&#45;&gt;AS2914</title>
<path fill="none" stroke="black" d="M296.999,-430.004C308.618,-403.857 332.827,-354.803 364.077,-321 366.109,-318.803 368.348,-316.682 370.695,-314.661"/>
<polygon fill="black" stroke="black" points="373.222,-317.128 378.94,-308.209 368.908,-311.616 373.222,-317.128"/>
</g>
<!-- AS1299&#45;&gt;AS174 -->
<g id="edge27" class="edge"><title>AS1299&#45;&gt;AS174</title>
<path fill="none" stroke="black" d="M303.04,-464.849C310.619,-474.418 320.105,-486.707 328.077,-498 345.141,-522.172 344.45,-531.859 364.077,-554 367.371,-557.716 371.114,-561.363 374.943,-564.788"/>
<polygon fill="black" stroke="black" points="372.916,-567.659 382.806,-571.458 377.444,-562.321 372.916,-567.659"/>
</g>
<!-- AS1299&#45;&gt;AS6762 -->
<g id="edge28" class="edge"><title>AS1299&#45;&gt;AS6762</title>
<path fill="none" stroke="black" d="M328.207,-448C367.04,-448 426.923,-448 469.021,-448"/>
<polygon fill="black" stroke="black" points="469.05,-451.5 479.05,-448 469.05,-444.5 469.05,-451.5"/>
</g>
<!-- AS1299&#45;&gt;AS3491 -->
<g id="edge26" class="edge"><title>AS1299&#45;&gt;AS3491</title>
<path fill="none" stroke="black" d="M301.53,-465.149C314.753,-482.416 337.617,-508.266 364.077,-521 396.778,-536.737 437.71,-541.17 469.145,-541.84"/>
<polygon fill="black" stroke="black" points="469.384,-545.343 479.416,-541.934 469.448,-538.343 469.384,-545.343"/>
</g>
<!-- AS6453 -->
<g id="node16" class="node"><title>AS6453</title>
<g id="a_node16"><a xlink:href="/asn/6453" xlink:title="AS6453 ~ TATA COMMUNICATIONS (AMERICA) INC [US]">
<ellipse fill="#ffffff" stroke="black" cx="403.724" cy="-402" rx="39.7935" ry="18"/>
<text text-anchor="middle" x="403.724" y="-398.3" font-family="Times,serif" font-size="14.00" fill="#2c94b3">AS6453</text>
</a>
</g>
</g>
<!-- AS1299&#45;&gt;AS6453 -->
<g id="edge29" class="edge"><title>AS1299&#45;&gt;AS6453</title>
<path fill="none" stroke="black" d="M318.607,-436.154C332.482,-430.52 349.259,-423.708 364.169,-417.654"/>
<polygon fill="black" stroke="black" points="365.698,-420.811 373.647,-413.806 363.065,-414.325 365.698,-420.811"/>
</g>
<!-- AS1239 -->
<g id="node18" class="node"><title>AS1239</title>
<g id="a_node18"><a xlink:href="/asn/1239" xlink:title="AS1239 ~ Sprint [US]">
<ellipse fill="#ffffff" stroke="black" cx="403.724" cy="-348" rx="39.7935" ry="18"/>
<text text-anchor="middle" x="403.724" y="-344.3" font-family="Times,serif" font-size="14.00" fill="#2c94b3">AS1239</text>
</a>
</g>
</g>
<!-- AS1299&#45;&gt;AS1239 -->
<g id="edge24" class="edge"><title>AS1299&#45;&gt;AS1239</title>
<path fill="none" stroke="black" d="M304.736,-431.545C319.349,-416.204 342.305,-393.044 364.077,-375 366.598,-372.911 369.275,-370.816 371.997,-368.767"/>
<polygon fill="black" stroke="black" points="374.157,-371.523 380.189,-362.813 370.042,-365.861 374.157,-371.523"/>
</g>
<!-- AS7018 -->
<g id="node19" class="node"><title>AS7018</title>
<g id="a_node19"><a xlink:href="/asn/7018" xlink:title="AS7018 ~ AT&amp;T Services, Inc. [US]">
<ellipse fill="#ffffff" stroke="black" cx="403.724" cy="-494" rx="39.7935" ry="18"/>
<text text-anchor="middle" x="403.724" y="-490.3" font-family="Times,serif" font-size="14.00" fill="#2c94b3">AS7018</text>
</a>
</g>
</g>
<!-- AS1299&#45;&gt;AS7018 -->
<g id="edge25" class="edge"><title>AS1299&#45;&gt;AS7018</title>
<path fill="none" stroke="black" d="M318.607,-459.846C332.482,-465.48 349.259,-472.292 364.169,-478.346"/>
<polygon fill="black" stroke="black" points="363.065,-481.675 373.647,-482.194 365.698,-475.189 363.065,-481.675"/>
</g>
<!-- AS3356&#45;&gt;AS2914 -->
<g id="edge14" class="edge"><title>AS3356&#45;&gt;AS2914</title>
<path fill="none" stroke="black" d="M318.607,-259.846C332.482,-265.48 349.259,-272.292 364.169,-278.346"/>
<polygon fill="black" stroke="black" points="363.065,-281.675 373.647,-282.194 365.698,-275.189 363.065,-281.675"/>
</g>
<!-- AS3356&#45;&gt;AS6762 -->
<g id="edge15" class="edge"><title>AS3356&#45;&gt;AS6762</title>
<path fill="none" stroke="black" d="M316.992,-235.492C350.169,-222.512 406.067,-207.504 443.37,-234 503.637,-276.806 515.65,-372.033 517.776,-419.689"/>
<polygon fill="black" stroke="black" points="514.285,-420.033 518.11,-429.913 521.281,-419.804 514.285,-420.033"/>
</g>
<!-- AS3356&#45;&gt;AS3491 -->
<g id="edge19" class="edge"><title>AS3356&#45;&gt;AS3491</title>
<path fill="none" stroke="black" d="M325.633,-241.397C360.493,-237.291 412.368,-237.469 443.37,-267 511.302,-331.709 446.857,-386.995 479.37,-475 484.432,-488.701 492.394,-502.771 499.779,-514.3"/>
<polygon fill="black" stroke="black" points="497.068,-516.546 505.511,-522.946 502.902,-512.678 497.068,-516.546"/>
</g>
<!-- AS3356&#45;&gt;AS2497 -->
<g id="edge21" class="edge"><title>AS3356&#45;&gt;AS2497</title>
<path fill="none" stroke="black" d="M314.611,-234.298C319.674,-230.559 324.524,-226.105 328.077,-221 364.289,-168.976 313.918,-121.753 364.077,-83 391.965,-61.4541 411.713,-67.5146 443.37,-83 472.54,-97.2687 493.604,-129.046 505.773,-152.142"/>
<polygon fill="black" stroke="black" points="502.672,-153.766 510.294,-161.125 508.925,-150.619 502.672,-153.766"/>
</g>
<!-- AS701 -->
<g id="node14" class="node"><title>AS701</title>
<g id="a_node14"><a xlink:href="/asn/701" xlink:title="AS701 ~ UUNET [US]">
<ellipse fill="#ffffff" stroke="black" cx="403.724" cy="-18" rx="35.194" ry="18"/>
<text text-anchor="middle" x="403.724" y="-14.3" font-family="Times,serif" font-size="14.00" fill="#2c94b3">AS701</text>
</a>
</g>
</g>
<!-- AS3356&#45;&gt;AS701 -->
<g id="edge16" class="edge"><title>AS3356&#45;&gt;AS701</title>
<path fill="none" stroke="black" d="M314.793,-234.422C319.846,-230.676 324.646,-226.189 328.077,-221 370.915,-156.216 323.924,-116.481 364.077,-50 366.591,-45.8384 369.845,-41.9704 373.398,-38.4657"/>
<polygon fill="black" stroke="black" points="375.773,-41.0383 380.968,-31.8047 371.149,-35.783 375.773,-41.0383"/>
</g>
<!-- AS3549 -->
<g id="node15" class="node"><title>AS3549</title>
<g id="a_node15"><a xlink:href="/asn/3549" xlink:title="AS3549 ~ Level 3 Parent, LLC [US]">
<ellipse fill="#ffffff" stroke="black" cx="403.724" cy="-164" rx="39.7935" ry="18"/>
<text text-anchor="middle" x="403.724" y="-160.3" font-family="Times,serif" font-size="14.00" fill="#2c94b3">AS3549</text>
</a>
</g>
</g>
<!-- AS3356&#45;&gt;AS3549 -->
<g id="edge17" class="edge"><title>AS3356&#45;&gt;AS3549</title>
<path fill="none" stroke="black" d="M311.211,-233.023C316.745,-229.152 322.658,-224.959 328.077,-221 343.669,-209.609 360.809,-196.559 374.728,-185.823"/>
<polygon fill="black" stroke="black" points="377.169,-188.36 382.936,-179.473 372.885,-182.824 377.169,-188.36"/>
</g>
<!-- AS3356&#45;&gt;AS6453 -->
<g id="edge18" class="edge"><title>AS3356&#45;&gt;AS6453</title>
<path fill="none" stroke="black" d="M296.999,-265.996C308.618,-292.143 332.827,-341.197 364.077,-375 366.109,-377.197 368.348,-379.318 370.695,-381.339"/>
<polygon fill="black" stroke="black" points="368.908,-384.384 378.94,-387.791 373.222,-378.872 368.908,-384.384"/>
</g>
<!-- AS209 -->
<g id="node17" class="node"><title>AS209</title>
<g id="a_node17"><a xlink:href="/asn/209" xlink:title="AS209 ~ CenturyLink Communications, LLC [US]">
<ellipse fill="#ffffff" stroke="black" cx="403.724" cy="-110" rx="35.194" ry="18"/>
<text text-anchor="middle" x="403.724" y="-106.3" font-family="Times,serif" font-size="14.00" fill="#2c94b3">AS209</text>
</a>
</g>
</g>
<!-- AS3356&#45;&gt;AS209 -->
<g id="edge20" class="edge"><title>AS3356&#45;&gt;AS209</title>
<path fill="none" stroke="black" d="M314.059,-233.883C319.151,-230.165 324.152,-225.825 328.077,-221 353.71,-189.492 338.445,-168.508 364.077,-137 366.195,-134.397 368.626,-131.935 371.215,-129.636"/>
<polygon fill="black" stroke="black" points="373.624,-132.193 379.303,-123.249 369.285,-126.7 373.624,-132.193"/>
</g>
<!-- AS3356&#45;&gt;AS1239 -->
<g id="edge22" class="edge"><title>AS3356&#45;&gt;AS1239</title>
<path fill="none" stroke="black" d="M304.736,-264.455C319.349,-279.796 342.305,-302.956 364.077,-321 366.598,-323.089 369.275,-325.184 371.997,-327.233"/>
<polygon fill="black" stroke="black" points="370.042,-330.139 380.189,-333.187 374.157,-324.477 370.042,-330.139"/>
</g>
</g>
</svg>
