<?xml version="1.0" encoding="UTF-8" standalone="no"?>
<!DOCTYPE svg PUBLIC "-//W3C//DTD SVG 1.1//EN"
 "http://www.w3.org/Graphics/SVG/1.1/DTD/svg11.dtd">
<!-- Generated by graphviz version 2.38.0 (20140413.2041)
 -->
<!-- Title: AS208315 IPv6 Upstream Graph Pages: 1 -->
<svg width="584pt" height="800pt"
 viewBox="0.00 0.00 583.56 800.00" xmlns="http://www.w3.org/2000/svg" xmlns:xlink="http://www.w3.org/1999/xlink">
<g id="graph0" class="graph" transform="scale(1 1) rotate(0) translate(4 796)">
<title>AS208315 IPv6 Upstream Graph</title>
<polygon fill="white" stroke="none" points="-4,4 -4,-796 579.562,-796 579.562,4 -4,4"/>
<!-- AS208315 -->
<g id="node1" class="node"><title>AS208315</title>
<g id="a_node1"><a xlink:href="/asn/208315" xlink:title="AS208315 ~ frauscher [AT]">
<ellipse fill="#ffffff" stroke="black" cx="48.0957" cy="-247" rx="48.1917" ry="18"/>
<text text-anchor="middle" x="48.0957" y="-243.3" font-family="Times,serif" font-size="14.00" fill="#880000">AS208315</text>
</a>
</g>
</g>
<!-- AS28760 -->
<g id="node2" class="node"><title>AS28760</title>
<g id="a_node2"><a xlink:href="/asn/28760" xlink:title="AS28760 ~ Schaerdingerstr. 35 [AT]">
<ellipse fill="#ffffff" stroke="black" cx="176.388" cy="-247" rx="44.393" ry="18"/>
<text text-anchor="middle" x="176.388" y="-243.3" font-family="Times,serif" font-size="14.00" fill="#2c94b3">AS28760</text>
</a>
</g>
</g>
<!-- AS208315&#45;&gt;AS28760 -->
<g id="edge1" class="edge"><title>AS208315&#45;&gt;AS28760</title>
<path fill="none" stroke="black" stroke-width="4.5" d="M96.4815,-247C104.742,-247 113.386,-247 121.799,-247"/>
<polygon fill="black" stroke="black" stroke-width="4.5" points="121.904,-250.938 131.904,-247 121.904,-243.063 121.904,-250.938"/>
</g>
<!-- AS3330 -->
<g id="node3" class="node"><title>AS3330</title>
<g id="a_node3"><a xlink:href="/asn/3330" xlink:title="AS3330 ~ Vienna, Austria [AT]">
<ellipse fill="#ffffff" stroke="black" cx="296.23" cy="-247" rx="39.7935" ry="18"/>
<text text-anchor="middle" x="296.23" y="-243.3" font-family="Times,serif" font-size="14.00" fill="#2c94b3">AS3330</text>
</a>
</g>
</g>
<!-- AS28760&#45;&gt;AS3330 -->
<g id="edge2" class="edge"><title>AS28760&#45;&gt;AS3330</title>
<path fill="none" stroke="black" stroke-width="4.5" d="M220.599,-247C228.911,-247 237.674,-247 246.156,-247"/>
<polygon fill="black" stroke="black" stroke-width="4.5" points="246.315,-250.938 256.315,-247 246.315,-243.063 246.315,-250.938"/>
</g>
<!-- AS3257 -->
<g id="node4" class="node"><title>AS3257</title>
<g id="a_node4"><a xlink:href="/asn/3257" xlink:title="AS3257 ~ GTT [DE]">
<ellipse fill="#ffffff" stroke="black" cx="411.523" cy="-423" rx="39.7935" ry="18"/>
<text text-anchor="middle" x="411.523" y="-419.3" font-family="Times,serif" font-size="14.00" fill="#2c94b3">AS3257</text>
</a>
</g>
</g>
<!-- AS3330&#45;&gt;AS3257 -->
<g id="edge3" class="edge"><title>AS3330&#45;&gt;AS3257</title>
<path fill="none" stroke="black" stroke-width="4.5" d="M308.299,-264.196C328.266,-295.214 370.411,-360.687 393.872,-397.132"/>
<polygon fill="black" stroke="black" stroke-width="4.5" points="390.685,-399.457 399.409,-405.734 397.307,-395.194 390.685,-399.457"/>
</g>
<!-- AS8218 -->
<g id="node5" class="node"><title>AS8218</title>
<g id="a_node5"><a xlink:href="/asn/8218" xlink:title="AS8218 ~ legacy Neotelecoms [FR]">
<ellipse fill="#ffffff" stroke="black" cx="411.523" cy="-72" rx="39.7935" ry="18"/>
<text text-anchor="middle" x="411.523" y="-68.3" font-family="Times,serif" font-size="14.00" fill="#2c94b3">AS8218</text>
</a>
</g>
</g>
<!-- AS3330&#45;&gt;AS8218 -->
<g id="edge4" class="edge"><title>AS3330&#45;&gt;AS8218</title>
<path fill="none" stroke="black" stroke-width="0.642857" d="M308.507,-229.581C328.527,-198.657 370.364,-134.033 393.764,-97.8871"/>
<polygon fill="black" stroke="black" stroke-width="0.642857" points="396.795,-99.6455 399.292,-89.349 390.919,-95.8414 396.795,-99.6455"/>
</g>
<!-- AS701 -->
<g id="node6" class="node"><title>AS701</title>
<g id="a_node6"><a xlink:href="/asn/701" xlink:title="AS701 ~ UUNET [US]">
<ellipse fill="#ffffff" stroke="black" cx="531.366" cy="-774" rx="35.194" ry="18"/>
<text text-anchor="middle" x="531.366" y="-770.3" font-family="Times,serif" font-size="14.00" fill="#2c94b3">AS701</text>
</a>
</g>
</g>
<!-- AS3257&#45;&gt;AS701 -->
<g id="edge5" class="edge"><title>AS3257&#45;&gt;AS701</title>
<path fill="none" stroke="black" d="M412.072,-441.063C411.652,-493.503 416.806,-648.293 487.17,-747 489.653,-750.484 492.74,-753.615 496.114,-756.402"/>
<polygon fill="black" stroke="black" points="494.187,-759.326 504.359,-762.287 498.253,-753.629 494.187,-759.326"/>
</g>
<!-- AS5511 -->
<g id="node7" class="node"><title>AS5511</title>
<g id="a_node7"><a xlink:href="/asn/5511" xlink:title="AS5511 ~ Orange S.A. [FR]">
<ellipse fill="#ffffff" stroke="black" cx="531.366" cy="-720" rx="39.7935" ry="18"/>
<text text-anchor="middle" x="531.366" y="-716.3" font-family="Times,serif" font-size="14.00" fill="#2c94b3">AS5511</text>
</a>
</g>
</g>
<!-- AS3257&#45;&gt;AS5511 -->
<g id="edge6" class="edge"><title>AS3257&#45;&gt;AS5511</title>
<path fill="none" stroke="black" d="M413.115,-441.023C415.491,-487.412 427.409,-612.893 487.17,-693 489.417,-696.013 492.109,-698.769 495.035,-701.272"/>
<polygon fill="black" stroke="black" points="493.066,-704.169 503.187,-707.303 497.23,-698.542 493.066,-704.169"/>
</g>
<!-- AS1273 -->
<g id="node8" class="node"><title>AS1273</title>
<g id="a_node8"><a xlink:href="/asn/1273" xlink:title="AS1273 ~ Vodafone Group PLC [EU]">
<ellipse fill="#ffffff" stroke="black" cx="531.366" cy="-666" rx="39.7935" ry="18"/>
<text text-anchor="middle" x="531.366" y="-662.3" font-family="Times,serif" font-size="14.00" fill="#2c94b3">AS1273</text>
</a>
</g>
</g>
<!-- AS3257&#45;&gt;AS1273 -->
<g id="edge7" class="edge"><title>AS3257&#45;&gt;AS1273</title>
<path fill="none" stroke="black" d="M414.662,-441.17C420.162,-480.974 437.988,-577.233 487.17,-639 489.511,-641.94 492.265,-644.649 495.231,-647.121"/>
<polygon fill="black" stroke="black" points="493.296,-650.042 503.437,-653.11 497.423,-644.388 493.296,-650.042"/>
</g>
<!-- AS7018 -->
<g id="node9" class="node"><title>AS7018</title>
<g id="a_node9"><a xlink:href="/asn/7018" xlink:title="AS7018 ~ AT&amp;T Services, Inc. [US]">
<ellipse fill="#ffffff" stroke="black" cx="531.366" cy="-612" rx="39.7935" ry="18"/>
<text text-anchor="middle" x="531.366" y="-608.3" font-family="Times,serif" font-size="14.00" fill="#2c94b3">AS7018</text>
</a>
</g>
</g>
<!-- AS3257&#45;&gt;AS7018 -->
<g id="edge8" class="edge"><title>AS3257&#45;&gt;AS7018</title>
<path fill="none" stroke="black" d="M417.096,-440.946C426.002,-472.995 448.286,-540.842 487.17,-585 489.653,-587.821 492.503,-590.449 495.529,-592.871"/>
<polygon fill="black" stroke="black" points="493.646,-595.828 503.818,-598.791 497.714,-590.131 493.646,-595.828"/>
</g>
<!-- AS2497 -->
<g id="node10" class="node"><title>AS2497</title>
<g id="a_node10"><a xlink:href="/asn/2497" xlink:title="AS2497 ~ Internet Initiative Japan Inc. [JP]">
<ellipse fill="#ffffff" stroke="black" cx="531.366" cy="-558" rx="39.7935" ry="18"/>
<text text-anchor="middle" x="531.366" y="-554.3" font-family="Times,serif" font-size="14.00" fill="#2c94b3">AS2497</text>
</a>
</g>
</g>
<!-- AS3257&#45;&gt;AS2497 -->
<g id="edge9" class="edge"><title>AS3257&#45;&gt;AS2497</title>
<path fill="none" stroke="black" d="M421.764,-440.713C434.31,-463.561 458.487,-503.611 487.17,-531 490.038,-533.739 493.227,-536.347 496.536,-538.785"/>
<polygon fill="black" stroke="black" points="494.659,-541.742 504.895,-544.477 498.599,-535.956 494.659,-541.742"/>
</g>
<!-- AS6453 -->
<g id="node11" class="node"><title>AS6453</title>
<g id="a_node11"><a xlink:href="/asn/6453" xlink:title="AS6453 ~ TATA COMMUNICATIONS (AMERICA) INC [US]">
<ellipse fill="#ffffff" stroke="black" cx="531.366" cy="-504" rx="39.7935" ry="18"/>
<text text-anchor="middle" x="531.366" y="-500.3" font-family="Times,serif" font-size="14.00" fill="#2c94b3">AS6453</text>
</a>
</g>
</g>
<!-- AS3257&#45;&gt;AS6453 -->
<g id="edge10" class="edge"><title>AS3257&#45;&gt;AS6453</title>
<path fill="none" stroke="black" d="M432.853,-438.277C447.716,-449.304 468.46,-464.407 487.17,-477 490.719,-479.389 494.469,-481.839 498.217,-484.242"/>
<polygon fill="black" stroke="black" points="496.544,-487.325 506.866,-489.712 500.285,-481.409 496.544,-487.325"/>
</g>
<!-- AS209 -->
<g id="node12" class="node"><title>AS209</title>
<g id="a_node12"><a xlink:href="/asn/209" xlink:title="AS209 ~ CenturyLink Communications, LLC [US]">
<ellipse fill="#ffffff" stroke="black" cx="531.366" cy="-450" rx="35.194" ry="18"/>
<text text-anchor="middle" x="531.366" y="-446.3" font-family="Times,serif" font-size="14.00" fill="#2c94b3">AS209</text>
</a>
</g>
</g>
<!-- AS3257&#45;&gt;AS209 -->
<g id="edge11" class="edge"><title>AS3257&#45;&gt;AS209</title>
<path fill="none" stroke="black" d="M447.242,-430.955C460.335,-433.955 475.357,-437.396 488.998,-440.522"/>
<polygon fill="black" stroke="black" points="488.576,-444.016 499.105,-442.838 490.139,-437.193 488.576,-444.016"/>
</g>
<!-- AS12956 -->
<g id="node13" class="node"><title>AS12956</title>
<g id="a_node13"><a xlink:href="/asn/12956" xlink:title="AS12956 ~ TELXIUS [ES]">
<ellipse fill="#ffffff" stroke="black" cx="531.366" cy="-396" rx="44.393" ry="18"/>
<text text-anchor="middle" x="531.366" y="-392.3" font-family="Times,serif" font-size="14.00" fill="#2c94b3">AS12956</text>
</a>
</g>
</g>
<!-- AS3257&#45;&gt;AS12956 -->
<g id="edge12" class="edge"><title>AS3257&#45;&gt;AS12956</title>
<path fill="none" stroke="black" d="M447.242,-415.045C458.381,-412.493 470.916,-409.621 482.809,-406.896"/>
<polygon fill="black" stroke="black" points="483.638,-410.297 492.603,-404.652 482.074,-403.474 483.638,-410.297"/>
</g>
<!-- AS6762 -->
<g id="node14" class="node"><title>AS6762</title>
<g id="a_node14"><a xlink:href="/asn/6762" xlink:title="AS6762 ~ TELECOM ITALIA SPARKLE S.p.A. [IT]">
<ellipse fill="#ffffff" stroke="black" cx="531.366" cy="-342" rx="39.7935" ry="18"/>
<text text-anchor="middle" x="531.366" y="-338.3" font-family="Times,serif" font-size="14.00" fill="#2c94b3">AS6762</text>
</a>
</g>
</g>
<!-- AS3257&#45;&gt;AS6762 -->
<g id="edge13" class="edge"><title>AS3257&#45;&gt;AS6762</title>
<path fill="none" stroke="black" d="M432.853,-407.723C447.716,-396.696 468.46,-381.593 487.17,-369 490.719,-366.611 494.469,-364.161 498.217,-361.758"/>
<polygon fill="black" stroke="black" points="500.285,-364.591 506.866,-356.288 496.544,-358.675 500.285,-364.591"/>
</g>
<!-- AS2914 -->
<g id="node15" class="node"><title>AS2914</title>
<g id="a_node15"><a xlink:href="/asn/2914" xlink:title="AS2914 ~ NTT America, Inc. [US]">
<ellipse fill="#ffffff" stroke="black" cx="531.366" cy="-288" rx="39.7935" ry="18"/>
<text text-anchor="middle" x="531.366" y="-284.3" font-family="Times,serif" font-size="14.00" fill="#2c94b3">AS2914</text>
</a>
</g>
</g>
<!-- AS3257&#45;&gt;AS2914 -->
<g id="edge14" class="edge"><title>AS3257&#45;&gt;AS2914</title>
<path fill="none" stroke="black" d="M421.764,-405.287C434.31,-382.439 458.487,-342.389 487.17,-315 490.038,-312.261 493.227,-309.653 496.536,-307.215"/>
<polygon fill="black" stroke="black" points="498.599,-310.044 504.895,-301.523 494.659,-304.258 498.599,-310.044"/>
</g>
<!-- AS174 -->
<g id="node16" class="node"><title>AS174</title>
<g id="a_node16"><a xlink:href="/asn/174" xlink:title="AS174 ~ Cogent Communications [US]">
<ellipse fill="#ffffff" stroke="black" cx="531.366" cy="-234" rx="35.194" ry="18"/>
<text text-anchor="middle" x="531.366" y="-230.3" font-family="Times,serif" font-size="14.00" fill="#2c94b3">AS174</text>
</a>
</g>
</g>
<!-- AS3257&#45;&gt;AS174 -->
<g id="edge15" class="edge"><title>AS3257&#45;&gt;AS174</title>
<path fill="none" stroke="black" d="M417.096,-405.054C426.002,-373.005 448.286,-305.158 487.17,-261 489.997,-257.789 493.298,-254.828 496.793,-252.136"/>
<polygon fill="black" stroke="black" points="498.927,-254.916 505.168,-246.355 494.95,-249.155 498.927,-254.916"/>
</g>
<!-- AS3491 -->
<g id="node17" class="node"><title>AS3491</title>
<g id="a_node17"><a xlink:href="/asn/3491" xlink:title="AS3491 ~ PCCW Global, Inc. [US]">
<ellipse fill="#ffffff" stroke="black" cx="531.366" cy="-180" rx="39.7935" ry="18"/>
<text text-anchor="middle" x="531.366" y="-176.3" font-family="Times,serif" font-size="14.00" fill="#2c94b3">AS3491</text>
</a>
</g>
</g>
<!-- AS3257&#45;&gt;AS3491 -->
<g id="edge16" class="edge"><title>AS3257&#45;&gt;AS3491</title>
<path fill="none" stroke="black" d="M414.662,-404.83C420.162,-365.026 437.988,-268.767 487.17,-207 489.511,-204.06 492.265,-201.351 495.231,-198.879"/>
<polygon fill="black" stroke="black" points="497.423,-201.612 503.437,-192.89 493.296,-195.958 497.423,-201.612"/>
</g>
<!-- AS3356 -->
<g id="node18" class="node"><title>AS3356</title>
<g id="a_node18"><a xlink:href="/asn/3356" xlink:title="AS3356 ~ Level 3 Parent, LLC [US]">
<ellipse fill="#ffffff" stroke="black" cx="531.366" cy="-126" rx="39.7935" ry="18"/>
<text text-anchor="middle" x="531.366" y="-122.3" font-family="Times,serif" font-size="14.00" fill="#2c94b3">AS3356</text>
</a>
</g>
</g>
<!-- AS3257&#45;&gt;AS3356 -->
<g id="edge17" class="edge"><title>AS3257&#45;&gt;AS3356</title>
<path fill="none" stroke="black" d="M413.115,-404.977C415.491,-358.588 427.409,-233.107 487.17,-153 489.417,-149.987 492.109,-147.231 495.035,-144.728"/>
<polygon fill="black" stroke="black" points="497.23,-147.458 503.187,-138.697 493.066,-141.831 497.23,-147.458"/>
</g>
<!-- AS1299 -->
<g id="node19" class="node"><title>AS1299</title>
<g id="a_node19"><a xlink:href="/asn/1299" xlink:title="AS1299 ~ Telia Carrier [EU]">
<ellipse fill="#ffffff" stroke="black" cx="531.366" cy="-72" rx="39.7935" ry="18"/>
<text text-anchor="middle" x="531.366" y="-68.3" font-family="Times,serif" font-size="14.00" fill="#2c94b3">AS1299</text>
</a>
</g>
</g>
<!-- AS8218&#45;&gt;AS1299 -->
<g id="edge18" class="edge"><title>AS8218&#45;&gt;AS1299</title>
<path fill="none" stroke="black" d="M451.436,-72C460.989,-72 471.339,-72 481.301,-72"/>
<polygon fill="black" stroke="black" points="481.494,-75.5001 491.494,-72 481.494,-68.5001 481.494,-75.5001"/>
</g>
<!-- AS6461 -->
<g id="node20" class="node"><title>AS6461</title>
<g id="a_node20"><a xlink:href="/asn/6461" xlink:title="AS6461 ~ Zayo Bandwidth [US]">
<ellipse fill="#ffffff" stroke="black" cx="531.366" cy="-18" rx="39.7935" ry="18"/>
<text text-anchor="middle" x="531.366" y="-14.3" font-family="Times,serif" font-size="14.00" fill="#2c94b3">AS6461</text>
</a>
</g>
</g>
<!-- AS8218&#45;&gt;AS6461 -->
<g id="edge19" class="edge"><title>AS8218&#45;&gt;AS6461</title>
<path fill="none" stroke="black" d="M440.152,-59.3394C456.109,-52.0273 476.379,-42.7385 493.662,-34.8189"/>
<polygon fill="black" stroke="black" points="495.277,-37.929 502.91,-30.5813 492.361,-31.5653 495.277,-37.929"/>
</g>
</g>
</svg>
