<?xml version="1.0" encoding="UTF-8" standalone="no"?>
<!DOCTYPE svg PUBLIC "-//W3C//DTD SVG 1.1//EN"
 "http://www.w3.org/Graphics/SVG/1.1/DTD/svg11.dtd">
<!-- Generated by graphviz version 2.38.0 (20140413.2041)
 -->
<!-- Title: AS15702 Combined Upstream Graph Pages: 1 -->
<svg width="806pt" height="646pt"
 viewBox="0.00 0.00 806.35 645.75" xmlns="http://www.w3.org/2000/svg" xmlns:xlink="http://www.w3.org/1999/xlink">
<g id="graph0" class="graph" transform="scale(1 1) rotate(0) translate(4 641.752)">
<title>AS15702 Combined Upstream Graph</title>
<polygon fill="white" stroke="none" points="-4,4 -4,-641.752 802.348,-641.752 802.348,4 -4,4"/>
<!-- AS15702 -->
<g id="node1" class="node"><title>AS15702</title>
<g id="a_node1"><a xlink:href="/asn/15702" xlink:title="AS15702 ~ Onstage Online GmbH [AT]">
<ellipse fill="#ffffff" stroke="black" cx="44.1961" cy="-290" rx="44.393" ry="18"/>
<text text-anchor="middle" x="44.1961" y="-286.3" font-family="Times,serif" font-size="14.00" fill="#880000">AS15702</text>
</a>
</g>
</g>
<!-- AS8218 -->
<g id="node2" class="node"><title>AS8218</title>
<g id="a_node2"><a xlink:href="/asn/8218" xlink:title="AS8218 ~ legacy Neotelecoms [FR]">
<ellipse fill="#ffffff" stroke="black" cx="279.332" cy="-336" rx="39.7935" ry="18"/>
<text text-anchor="middle" x="279.332" y="-332.3" font-family="Times,serif" font-size="14.00" fill="#2c94b3">AS8218</text>
</a>
</g>
</g>
<!-- AS15702&#45;&gt;AS8218 -->
<g id="edge1" class="edge"><title>AS15702&#45;&gt;AS8218</title>
<path fill="none" stroke="black" stroke-width="1.09091" d="M76.7469,-302.424C91.0882,-307.636 108.394,-313.327 124.392,-317 159.29,-325.013 199.466,-329.827 230.023,-332.605"/>
<polygon fill="black" stroke="black" stroke-width="1.09091" points="229.73,-336.092 239.995,-333.47 230.335,-329.119 229.73,-336.092"/>
</g>
<!-- AS8245 -->
<g id="node3" class="node"><title>AS8245</title>
<g id="a_node3"><a xlink:href="/asn/8245" xlink:title="AS8245 ~ Video&#45;Broadcast GmbH [AT]">
<ellipse fill="#ffffff" stroke="black" cx="164.039" cy="-290" rx="39.7935" ry="18"/>
<text text-anchor="middle" x="164.039" y="-286.3" font-family="Times,serif" font-size="14.00" fill="#2c94b3">AS8245</text>
</a>
</g>
</g>
<!-- AS15702&#45;&gt;AS8245 -->
<g id="edge2" class="edge"><title>AS15702&#45;&gt;AS8245</title>
<path fill="none" stroke="black" stroke-width="3.27273" d="M88.4072,-290C96.7198,-290 105.482,-290 113.965,-290"/>
<polygon fill="black" stroke="black" stroke-width="3.27273" points="114.123,-293.5 124.123,-290 114.123,-286.5 114.123,-293.5"/>
</g>
<!-- AS47147 -->
<g id="node4" class="node"><title>AS47147</title>
<g id="a_node4"><a xlink:href="/asn/47147" xlink:title="AS47147 ~ ANEXIA Internetdienstleistungs GmbH [AT]">
<ellipse fill="#ffffff" stroke="black" cx="399.174" cy="-244" rx="44.393" ry="18"/>
<text text-anchor="middle" x="399.174" y="-240.3" font-family="Times,serif" font-size="14.00" fill="#2c94b3">AS47147</text>
</a>
</g>
</g>
<!-- AS15702&#45;&gt;AS47147 -->
<g id="edge3" class="edge"><title>AS15702&#45;&gt;AS47147</title>
<path fill="none" stroke="black" stroke-width="4.5" d="M75.9025,-277.455C90.3715,-272.085 108.016,-266.301 124.392,-263 199.644,-247.83 288.618,-244.229 344.235,-243.644"/>
<polygon fill="black" stroke="black" stroke-width="4.5" points="344.591,-247.579 354.56,-243.566 344.531,-239.704 344.591,-247.579"/>
</g>
<!-- AS6461 -->
<g id="node5" class="node"><title>AS6461</title>
<g id="a_node5"><a xlink:href="/asn/6461" xlink:title="AS6461 ~ Zayo Bandwidth [US]">
<ellipse fill="#ffffff" stroke="black" cx="399.174" cy="-390" rx="39.7935" ry="18"/>
<text text-anchor="middle" x="399.174" y="-386.3" font-family="Times,serif" font-size="14.00" fill="#2c94b3">AS6461</text>
</a>
</g>
</g>
<!-- AS8218&#45;&gt;AS6461 -->
<g id="edge4" class="edge"><title>AS8218&#45;&gt;AS6461</title>
<path fill="none" stroke="black" stroke-width="4.5" d="M307.96,-348.661C323.917,-355.973 344.188,-365.261 361.471,-373.181"/>
<polygon fill="black" stroke="black" stroke-width="4.5" points="359.987,-376.832 370.718,-377.419 363.268,-369.673 359.987,-376.832"/>
</g>
<!-- AS1273 -->
<g id="node6" class="node"><title>AS1273</title>
<g id="a_node6"><a xlink:href="/asn/1273" xlink:title="AS1273 ~ Vodafone Group PLC [EU]">
<ellipse fill="#ffffff" stroke="black" cx="399.174" cy="-336" rx="39.7935" ry="18"/>
<text text-anchor="middle" x="399.174" y="-332.3" font-family="Times,serif" font-size="14.00" fill="#2c94b3">AS1273</text>
</a>
</g>
</g>
<!-- AS8218&#45;&gt;AS1273 -->
<g id="edge5" class="edge"><title>AS8218&#45;&gt;AS1273</title>
<path fill="none" stroke="black" stroke-width="0.195652" d="M319.244,-336C328.798,-336 339.147,-336 349.11,-336"/>
<polygon fill="black" stroke="black" stroke-width="0.195652" points="349.302,-339.5 359.302,-336 349.302,-332.5 349.302,-339.5"/>
</g>
<!-- AS8245&#45;&gt;AS8218 -->
<g id="edge20" class="edge"><title>AS8245&#45;&gt;AS8218</title>
<path fill="none" stroke="black" stroke-width="4.5" d="M194.214,-301.846C208.09,-307.48 224.867,-314.292 239.776,-320.346"/>
<polygon fill="black" stroke="black" stroke-width="4.5" points="238.508,-324.08 249.255,-324.194 241.471,-316.784 238.508,-324.08"/>
</g>
<!-- AS6830 -->
<g id="node21" class="node"><title>AS6830</title>
<g id="a_node21"><a xlink:href="/asn/6830" xlink:title="AS6830 ~ LGI&#45;UPC [AT]">
<ellipse fill="#ffffff" stroke="black" cx="523.566" cy="-179" rx="39.7935" ry="18"/>
<text text-anchor="middle" x="523.566" y="-175.3" font-family="Times,serif" font-size="14.00" fill="#2c94b3">AS6830</text>
</a>
</g>
</g>
<!-- AS8245&#45;&gt;AS6830 -->
<g id="edge21" class="edge"><title>AS8245&#45;&gt;AS6830</title>
<path fill="none" stroke="black" stroke-width="2.25" d="M200.625,-297.31C256.731,-306.827 367.188,-317.242 443.37,-271 469.629,-255.061 458.813,-234.826 479.37,-212 483.16,-207.792 487.545,-203.744 492.04,-200.012"/>
<polygon fill="black" stroke="black" stroke-width="2.25" points="494.426,-202.59 500.143,-193.669 490.111,-197.078 494.426,-202.59"/>
</g>
<!-- AS2914 -->
<g id="node13" class="node"><title>AS2914</title>
<g id="a_node13"><a xlink:href="/asn/2914" xlink:title="AS2914 ~ NTT America, Inc. [US]">
<ellipse fill="#ffffff" stroke="black" cx="523.566" cy="-271" rx="39.7935" ry="18"/>
<text text-anchor="middle" x="523.566" y="-267.3" font-family="Times,serif" font-size="14.00" fill="#2c94b3">AS2914</text>
</a>
</g>
</g>
<!-- AS47147&#45;&gt;AS2914 -->
<g id="edge29" class="edge"><title>AS47147&#45;&gt;AS2914</title>
<path fill="none" stroke="black" stroke-width="4.5" d="M438.564,-252.469C450.955,-255.202 464.802,-258.257 477.622,-261.085"/>
<polygon fill="black" stroke="black" stroke-width="4.5" points="477.024,-264.985 487.637,-263.295 478.72,-257.295 477.024,-264.985"/>
</g>
<!-- AS3320 -->
<g id="node14" class="node"><title>AS3320</title>
<g id="a_node14"><a xlink:href="/asn/3320" xlink:title="AS3320 ~ DTAG [DE]">
<ellipse fill="#ffffff" stroke="black" cx="523.566" cy="-363" rx="39.7935" ry="18"/>
<text text-anchor="middle" x="523.566" y="-359.3" font-family="Times,serif" font-size="14.00" fill="#2c94b3">AS3320</text>
</a>
</g>
</g>
<!-- AS47147&#45;&gt;AS3320 -->
<g id="edge30" class="edge"><title>AS47147&#45;&gt;AS3320</title>
<path fill="none" stroke="black" stroke-width="2.76923" d="M417.192,-260.546C438.292,-281.061 474.395,-316.164 498.37,-339.474"/>
<polygon fill="black" stroke="black" stroke-width="2.76923" points="496.083,-342.132 505.693,-346.594 500.963,-337.114 496.083,-342.132"/>
</g>
<!-- AS1299 -->
<g id="node23" class="node"><title>AS1299</title>
<g id="a_node23"><a xlink:href="/asn/1299" xlink:title="AS1299 ~ Telia Carrier [EU]">
<ellipse fill="#ffffff" stroke="black" cx="523.566" cy="-87" rx="39.7935" ry="18"/>
<text text-anchor="middle" x="523.566" y="-83.3" font-family="Times,serif" font-size="14.00" fill="#2c94b3">AS1299</text>
</a>
</g>
</g>
<!-- AS47147&#45;&gt;AS1299 -->
<g id="edge31" class="edge"><title>AS47147&#45;&gt;AS1299</title>
<path fill="none" stroke="black" stroke-width="4.15385" d="M408.86,-226.018C421.815,-200.374 448.059,-152.679 479.37,-119 483.01,-115.085 487.184,-111.319 491.47,-107.833"/>
<polygon fill="black" stroke="black" stroke-width="4.15385" points="494.007,-110.469 499.741,-101.506 489.59,-104.695 494.007,-110.469"/>
</g>
<!-- AS2497 -->
<g id="node7" class="node"><title>AS2497</title>
<g id="a_node7"><a xlink:href="/asn/2497" xlink:title="AS2497 ~ Internet Initiative Japan Inc. [JP]">
<ellipse fill="#ffffff" stroke="black" cx="643.409" cy="-419" rx="39.7935" ry="18"/>
<text text-anchor="middle" x="643.409" y="-415.3" font-family="Times,serif" font-size="14.00" fill="#2c94b3">AS2497</text>
</a>
</g>
</g>
<!-- AS6461&#45;&gt;AS2497 -->
<g id="edge6" class="edge"><title>AS6461&#45;&gt;AS2497</title>
<path fill="none" stroke="black" stroke-width="3" d="M412.44,-407.185C426.337,-425.022 450.805,-451.843 479.37,-463 515.964,-477.292 529.862,-473.339 567.762,-463 584.43,-458.453 601.165,-449.131 614.554,-440.233"/>
<polygon fill="black" stroke="black" stroke-width="3" points="616.604,-443.071 622.834,-434.501 612.62,-437.315 616.604,-443.071"/>
</g>
<!-- AS174 -->
<g id="node8" class="node"><title>AS174</title>
<g id="a_node8"><a xlink:href="/asn/174" xlink:title="AS174 ~ Cogent Communications [US]">
<ellipse fill="#ffffff" stroke="black" cx="643.409" cy="-156" rx="35.194" ry="18"/>
<text text-anchor="middle" x="643.409" y="-152.3" font-family="Times,serif" font-size="14.00" fill="#2c94b3">AS174</text>
</a>
</g>
</g>
<!-- AS6461&#45;&gt;AS174 -->
<g id="edge7" class="edge"><title>AS6461&#45;&gt;AS174</title>
<path fill="none" stroke="black" stroke-width="2" d="M428.213,-377.302C434.019,-373.474 439.529,-368.73 443.37,-363 496.344,-283.981 406.664,-213.352 479.37,-152 513.885,-122.875 568.683,-131.596 605.09,-142.309"/>
<polygon fill="black" stroke="black" stroke-width="2" points="604.25,-145.713 614.838,-145.354 606.336,-139.032 604.25,-145.713"/>
</g>
<!-- AS3356 -->
<g id="node9" class="node"><title>AS3356</title>
<g id="a_node9"><a xlink:href="/asn/3356" xlink:title="AS3356 ~ Level 3 Parent, LLC [US]">
<ellipse fill="#ffffff" stroke="black" cx="643.409" cy="-225" rx="39.7935" ry="18"/>
<text text-anchor="middle" x="643.409" y="-221.3" font-family="Times,serif" font-size="14.00" fill="#2c94b3">AS3356</text>
</a>
</g>
</g>
<!-- AS6461&#45;&gt;AS3356 -->
<g id="edge8" class="edge"><title>AS6461&#45;&gt;AS3356</title>
<path fill="none" stroke="black" stroke-width="3" d="M427.257,-377.231C433.242,-373.364 439.072,-368.62 443.37,-363 476.941,-319.111 436.984,-279.45 479.37,-244 511.302,-217.293 559.88,-214.879 595.708,-217.729"/>
<polygon fill="black" stroke="black" stroke-width="3" points="595.629,-221.238 605.917,-218.709 596.297,-214.27 595.629,-221.238"/>
</g>
<!-- AS12956 -->
<g id="node10" class="node"><title>AS12956</title>
<g id="a_node10"><a xlink:href="/asn/12956" xlink:title="AS12956 ~ TELXIUS [ES]">
<ellipse fill="#ffffff" stroke="black" cx="523.566" cy="-417" rx="44.393" ry="18"/>
<text text-anchor="middle" x="523.566" y="-413.3" font-family="Times,serif" font-size="14.00" fill="#2c94b3">AS12956</text>
</a>
</g>
</g>
<!-- AS6461&#45;&gt;AS12956 -->
<g id="edge9" class="edge"><title>AS6461&#45;&gt;AS12956</title>
<path fill="none" stroke="black" d="M435.247,-397.737C447.286,-400.393 460.986,-403.415 473.907,-406.266"/>
<polygon fill="black" stroke="black" points="473.537,-409.768 484.056,-408.505 475.045,-402.932 473.537,-409.768"/>
</g>
<!-- AS6762 -->
<g id="node11" class="node"><title>AS6762</title>
<g id="a_node11"><a xlink:href="/asn/6762" xlink:title="AS6762 ~ TELECOM ITALIA SPARKLE S.p.A. [IT]">
<ellipse fill="#ffffff" stroke="black" cx="643.409" cy="-279" rx="39.7935" ry="18"/>
<text text-anchor="middle" x="643.409" y="-275.3" font-family="Times,serif" font-size="14.00" fill="#2c94b3">AS6762</text>
</a>
</g>
</g>
<!-- AS6461&#45;&gt;AS6762 -->
<g id="edge10" class="edge"><title>AS6461&#45;&gt;AS6762</title>
<path fill="none" stroke="black" d="M423.723,-375.784C430.165,-371.76 437.098,-367.301 443.37,-363 459.865,-351.689 461.723,-345.411 479.37,-336 517.615,-315.605 564.65,-300.069 598.356,-290.407"/>
<polygon fill="black" stroke="black" points="599.681,-293.671 608.364,-287.599 597.79,-286.931 599.681,-293.671"/>
</g>
<!-- AS6453 -->
<g id="node12" class="node"><title>AS6453</title>
<g id="a_node12"><a xlink:href="/asn/6453" xlink:title="AS6453 ~ TATA COMMUNICATIONS (AMERICA) INC [US]">
<ellipse fill="#ffffff" stroke="black" cx="643.409" cy="-363" rx="39.7935" ry="18"/>
<text text-anchor="middle" x="643.409" y="-359.3" font-family="Times,serif" font-size="14.00" fill="#2c94b3">AS6453</text>
</a>
</g>
</g>
<!-- AS6461&#45;&gt;AS6453 -->
<g id="edge11" class="edge"><title>AS6461&#45;&gt;AS6453</title>
<path fill="none" stroke="black" d="M417.096,-406.063C432.119,-419.136 455.358,-436.593 479.37,-444 516.91,-455.58 532.964,-462.233 567.762,-444 592.661,-430.954 584.27,-412.252 603.762,-392 606.358,-389.303 609.223,-386.665 612.185,-384.148"/>
<polygon fill="black" stroke="black" points="614.498,-386.78 620.132,-377.807 610.132,-381.308 614.498,-386.78"/>
</g>
<!-- AS6461&#45;&gt;AS2914 -->
<g id="edge12" class="edge"><title>AS6461&#45;&gt;AS2914</title>
<path fill="none" stroke="black" d="M426.323,-376.42C432.336,-372.578 438.413,-368.048 443.37,-363 465.159,-340.811 458.474,-326.032 479.37,-303 482.962,-299.041 487.11,-295.251 491.384,-291.753"/>
<polygon fill="black" stroke="black" points="493.84,-294.281 499.647,-285.419 489.581,-288.725 493.84,-294.281"/>
</g>
<!-- AS6461&#45;&gt;AS3320 -->
<g id="edge13" class="edge"><title>AS6461&#45;&gt;AS3320</title>
<path fill="none" stroke="black" d="M435.247,-382.263C448.434,-379.354 463.614,-376.005 477.58,-372.924"/>
<polygon fill="black" stroke="black" points="478.477,-376.31 487.489,-370.738 476.969,-369.475 478.477,-376.31"/>
</g>
<!-- AS3491 -->
<g id="node15" class="node"><title>AS3491</title>
<g id="a_node15"><a xlink:href="/asn/3491" xlink:title="AS3491 ~ PCCW Global, Inc. [US]">
<ellipse fill="#ffffff" stroke="black" cx="643.409" cy="-476" rx="39.7935" ry="18"/>
<text text-anchor="middle" x="643.409" y="-472.3" font-family="Times,serif" font-size="14.00" fill="#2c94b3">AS3491</text>
</a>
</g>
</g>
<!-- AS6461&#45;&gt;AS3491 -->
<g id="edge14" class="edge"><title>AS6461&#45;&gt;AS3491</title>
<path fill="none" stroke="black" d="M409.352,-407.759C421.821,-429.705 446.396,-465.984 479.37,-481 517.09,-498.177 564.971,-494.079 599.065,-487.418"/>
<polygon fill="black" stroke="black" points="600.112,-490.774 609.176,-485.289 598.67,-483.924 600.112,-490.774"/>
</g>
<!-- AS1239 -->
<g id="node16" class="node"><title>AS1239</title>
<g id="a_node16"><a xlink:href="/asn/1239" xlink:title="AS1239 ~ Sprint [US]">
<ellipse fill="#ffffff" stroke="black" cx="643.409" cy="-600" rx="39.7935" ry="18"/>
<text text-anchor="middle" x="643.409" y="-596.3" font-family="Times,serif" font-size="14.00" fill="#2c94b3">AS1239</text>
</a>
</g>
</g>
<!-- AS6461&#45;&gt;AS1239 -->
<g id="edge15" class="edge"><title>AS6461&#45;&gt;AS1239</title>
<path fill="none" stroke="black" d="M406.079,-407.752C416.545,-436.745 440.937,-494.48 479.37,-529 513.236,-559.418 562.176,-578.349 597.591,-588.936"/>
<polygon fill="black" stroke="black" points="597.078,-592.43 607.656,-591.83 599.013,-585.703 597.078,-592.43"/>
</g>
<!-- AS7018 -->
<g id="node17" class="node"><title>AS7018</title>
<g id="a_node17"><a xlink:href="/asn/7018" xlink:title="AS7018 ~ AT&amp;T Services, Inc. [US]">
<ellipse fill="#ffffff" stroke="black" cx="643.409" cy="-18" rx="39.7935" ry="18"/>
<text text-anchor="middle" x="643.409" y="-14.3" font-family="Times,serif" font-size="14.00" fill="#2c94b3">AS7018</text>
</a>
</g>
</g>
<!-- AS6461&#45;&gt;AS7018 -->
<g id="edge16" class="edge"><title>AS6461&#45;&gt;AS7018</title>
<path fill="none" stroke="black" d="M428.456,-377.461C434.252,-373.626 439.697,-368.839 443.37,-363 481.83,-301.87 428.895,-91.656 479.37,-40 509.111,-9.56314 559.459,-7.10288 596.353,-10.3641"/>
<polygon fill="black" stroke="black" points="596.063,-13.8528 606.374,-11.4172 596.795,-6.89118 596.063,-13.8528"/>
</g>
<!-- AS209 -->
<g id="node18" class="node"><title>AS209</title>
<g id="a_node18"><a xlink:href="/asn/209" xlink:title="AS209 ~ CenturyLink Communications, LLC [US]">
<ellipse fill="#ffffff" stroke="black" cx="758.702" cy="-466" rx="35.194" ry="18"/>
<text text-anchor="middle" x="758.702" y="-462.3" font-family="Times,serif" font-size="14.00" fill="#2c94b3">AS209</text>
</a>
</g>
</g>
<!-- AS6461&#45;&gt;AS209 -->
<g id="edge17" class="edge"><title>AS6461&#45;&gt;AS209</title>
<path fill="none" stroke="black" d="M403.851,-407.875C411.844,-442.665 433.857,-520.161 479.37,-567 522.146,-611.021 543.925,-613.323 603.762,-627 638.118,-634.853 653.354,-645.968 683.055,-627 728.904,-597.72 747.018,-532.239 753.844,-494.424"/>
<polygon fill="black" stroke="black" points="757.374,-494.532 755.552,-484.095 750.467,-493.391 757.374,-494.532"/>
</g>
<!-- AS3257 -->
<g id="node19" class="node"><title>AS3257</title>
<g id="a_node19"><a xlink:href="/asn/3257" xlink:title="AS3257 ~ GTT [DE]">
<ellipse fill="#ffffff" stroke="black" cx="643.409" cy="-87" rx="39.7935" ry="18"/>
<text text-anchor="middle" x="643.409" y="-83.3" font-family="Times,serif" font-size="14.00" fill="#2c94b3">AS3257</text>
</a>
</g>
</g>
<!-- AS6461&#45;&gt;AS3257 -->
<g id="edge18" class="edge"><title>AS6461&#45;&gt;AS3257</title>
<path fill="none" stroke="black" stroke-width="2" d="M428.425,-377.441C434.222,-373.607 439.676,-368.825 443.37,-363 479.687,-305.739 428.674,-105.03 479.37,-60 515.11,-28.2553 573.388,-49.2676 609.729,-67.8119"/>
<polygon fill="black" stroke="black" stroke-width="2" points="608.44,-71.0901 618.914,-72.6849 611.72,-64.9065 608.44,-71.0901"/>
</g>
<!-- AS701 -->
<g id="node20" class="node"><title>AS701</title>
<g id="a_node20"><a xlink:href="/asn/701" xlink:title="AS701 ~ UUNET [US]">
<ellipse fill="#ffffff" stroke="black" cx="643.409" cy="-532" rx="35.194" ry="18"/>
<text text-anchor="middle" x="643.409" y="-528.3" font-family="Times,serif" font-size="14.00" fill="#2c94b3">AS701</text>
</a>
</g>
</g>
<!-- AS6461&#45;&gt;AS701 -->
<g id="edge19" class="edge"><title>AS6461&#45;&gt;AS701</title>
<path fill="none" stroke="black" d="M407.673,-407.884C419.183,-432.987 443.683,-478.152 479.37,-501 514.885,-523.738 563.081,-530.609 597.851,-532.324"/>
<polygon fill="black" stroke="black" points="598.06,-535.834 608.182,-532.703 598.316,-528.839 598.06,-535.834"/>
</g>
<!-- AS3356&#45;&gt;AS209 -->
<g id="edge28" class="edge"><title>AS3356&#45;&gt;AS209</title>
<path fill="none" stroke="black" stroke-width="1.8" d="M669.289,-238.92C674.367,-242.648 679.299,-247.042 683.055,-252 726.626,-309.517 746.078,-394.441 753.608,-437.993"/>
<polygon fill="black" stroke="black" stroke-width="1.8" points="750.158,-438.585 755.234,-447.884 757.065,-437.449 750.158,-438.585"/>
</g>
<!-- AS3549 -->
<g id="node22" class="node"><title>AS3549</title>
<g id="a_node22"><a xlink:href="/asn/3549" xlink:title="AS3549 ~ Level 3 Parent, LLC [US]">
<ellipse fill="#ffffff" stroke="black" cx="758.702" cy="-225" rx="39.7935" ry="18"/>
<text text-anchor="middle" x="758.702" y="-221.3" font-family="Times,serif" font-size="14.00" fill="#2c94b3">AS3549</text>
</a>
</g>
</g>
<!-- AS3356&#45;&gt;AS3549 -->
<g id="edge27" class="edge"><title>AS3356&#45;&gt;AS3549</title>
<path fill="none" stroke="black" stroke-width="4.5" d="M683.081,-225C691.284,-225 700.048,-225 708.58,-225"/>
<polygon fill="black" stroke="black" stroke-width="4.5" points="708.819,-228.938 718.819,-225 708.819,-221.063 708.819,-228.938"/>
</g>
<!-- AS2914&#45;&gt;AS2497 -->
<g id="edge32" class="edge"><title>AS2914&#45;&gt;AS2497</title>
<path fill="none" stroke="black" stroke-width="2" d="M535.992,-288.209C557.798,-321.045 603.244,-389.452 603.762,-390 606.333,-392.721 609.182,-395.374 612.134,-397.901"/>
<polygon fill="black" stroke="black" stroke-width="2" points="610.075,-400.736 620.069,-404.253 614.45,-395.271 610.075,-400.736"/>
</g>
<!-- AS2914&#45;&gt;AS174 -->
<g id="edge34" class="edge"><title>AS2914&#45;&gt;AS174</title>
<path fill="none" stroke="black" stroke-width="2" d="M541.2,-254.767C561.493,-234.965 595.928,-201.36 618.917,-178.925"/>
<polygon fill="black" stroke="black" stroke-width="2" points="621.525,-181.27 626.238,-171.781 616.636,-176.26 621.525,-181.27"/>
</g>
<!-- AS2914&#45;&gt;AS3356 -->
<g id="edge35" class="edge"><title>AS2914&#45;&gt;AS3356</title>
<path fill="none" stroke="black" stroke-width="4" d="M554.303,-259.392C569.097,-253.618 587.174,-246.561 603.096,-240.346"/>
<polygon fill="black" stroke="black" stroke-width="4" points="604.639,-243.501 612.682,-236.604 602.094,-236.98 604.639,-243.501"/>
</g>
<!-- AS2914&#45;&gt;AS6762 -->
<g id="edge33" class="edge"><title>AS2914&#45;&gt;AS6762</title>
<path fill="none" stroke="black" stroke-width="2" d="M562.826,-273.597C572.706,-274.268 583.472,-274.999 593.802,-275.7"/>
<polygon fill="black" stroke="black" stroke-width="2" points="593.723,-279.203 603.937,-276.388 594.198,-272.219 593.723,-279.203"/>
</g>
<!-- AS2914&#45;&gt;AS3491 -->
<g id="edge36" class="edge"><title>AS2914&#45;&gt;AS3491</title>
<path fill="none" stroke="black" d="M537.642,-287.89C546.997,-300.582 559.369,-318.687 567.762,-336 590.203,-382.288 574.147,-403.94 603.762,-446 605.945,-449.099 608.54,-452.029 611.339,-454.755"/>
<polygon fill="black" stroke="black" points="609.231,-457.56 619.077,-461.471 613.818,-452.273 609.231,-457.56"/>
</g>
<!-- AS3320&#45;&gt;AS3356 -->
<g id="edge45" class="edge"><title>AS3320&#45;&gt;AS3356</title>
<path fill="none" stroke="black" d="M535.872,-345.677C553.773,-318.514 588.202,-267.407 603.762,-252 605.889,-249.894 608.196,-247.84 610.59,-245.864"/>
<polygon fill="black" stroke="black" points="613.102,-248.348 618.919,-239.493 608.85,-242.788 613.102,-248.348"/>
</g>
<!-- AS3320&#45;&gt;AS6762 -->
<g id="edge46" class="edge"><title>AS3320&#45;&gt;AS6762</title>
<path fill="none" stroke="black" d="M545.634,-347.982C564.37,-334.627 591.961,-314.96 612.894,-300.039"/>
<polygon fill="black" stroke="black" points="615.015,-302.825 621.126,-294.171 610.951,-297.125 615.015,-302.825"/>
</g>
<!-- AS3320&#45;&gt;AS6453 -->
<g id="edge44" class="edge"><title>AS3320&#45;&gt;AS6453</title>
<path fill="none" stroke="black" d="M563.479,-363C573.032,-363 583.382,-363 593.345,-363"/>
<polygon fill="black" stroke="black" points="593.537,-366.5 603.537,-363 593.537,-359.5 593.537,-366.5"/>
</g>
<!-- AS3320&#45;&gt;AS1239 -->
<g id="edge42" class="edge"><title>AS3320&#45;&gt;AS1239</title>
<path fill="none" stroke="black" d="M552.436,-375.813C558.249,-379.636 563.805,-384.35 567.762,-390 611.821,-452.901 568.104,-490.984 603.762,-559 607.058,-565.286 611.59,-571.303 616.394,-576.698"/>
<polygon fill="black" stroke="black" points="614.063,-579.324 623.512,-584.116 619.114,-574.477 614.063,-579.324"/>
</g>
<!-- AS3320&#45;&gt;AS701 -->
<g id="edge43" class="edge"><title>AS3320&#45;&gt;AS701</title>
<path fill="none" stroke="black" stroke-width="2" d="M551.591,-375.814C557.577,-379.68 563.423,-384.412 567.762,-390 600.091,-431.631 573.234,-460.032 603.762,-503 605.982,-506.124 608.64,-509.057 611.51,-511.767"/>
<polygon fill="black" stroke="black" stroke-width="2" points="609.527,-514.671 619.444,-518.399 614.016,-509.3 609.527,-514.671"/>
</g>
<!-- AS6830&#45;&gt;AS174 -->
<g id="edge23" class="edge"><title>AS6830&#45;&gt;AS174</title>
<path fill="none" stroke="black" d="M560.243,-172.037C572.858,-169.575 587.166,-166.782 600.266,-164.225"/>
<polygon fill="black" stroke="black" points="601.314,-167.587 610.458,-162.236 599.973,-160.716 601.314,-167.587"/>
</g>
<!-- AS6830&#45;&gt;AS3356 -->
<g id="edge22" class="edge"><title>AS6830&#45;&gt;AS3356</title>
<path fill="none" stroke="black" stroke-width="3" d="M554.303,-190.608C569.097,-196.382 587.174,-203.439 603.096,-209.654"/>
<polygon fill="black" stroke="black" stroke-width="3" points="602.094,-213.02 612.682,-213.396 604.639,-206.499 602.094,-213.02"/>
</g>
<!-- AS6830&#45;&gt;AS6762 -->
<g id="edge25" class="edge"><title>AS6830&#45;&gt;AS6762</title>
<path fill="none" stroke="black" stroke-width="2" d="M540.972,-195.346C556.594,-210.611 581.03,-233.72 603.762,-252 606.314,-254.052 609.011,-256.121 611.747,-258.153"/>
<polygon fill="black" stroke="black" stroke-width="2" points="609.804,-261.067 619.961,-264.08 613.9,-255.391 609.804,-261.067"/>
</g>
<!-- AS6830&#45;&gt;AS6453 -->
<g id="edge26" class="edge"><title>AS6830&#45;&gt;AS6453</title>
<path fill="none" stroke="black" d="M536.405,-196.196C545.252,-209.192 557.531,-227.546 567.762,-244 584.588,-271.059 586.811,-279.019 603.762,-306 610.288,-316.386 617.79,-327.602 624.438,-337.315"/>
<polygon fill="black" stroke="black" points="621.692,-339.499 630.25,-345.745 627.455,-335.526 621.692,-339.499"/>
</g>
<!-- AS6830&#45;&gt;AS3257 -->
<g id="edge24" class="edge"><title>AS6830&#45;&gt;AS3257</title>
<path fill="none" stroke="black" d="M544.291,-163.601C563.494,-148.609 592.865,-125.679 614.469,-108.812"/>
<polygon fill="black" stroke="black" points="616.892,-111.362 622.62,-102.449 612.584,-105.844 616.892,-111.362"/>
</g>
<!-- AS1299&#45;&gt;AS174 -->
<g id="edge37" class="edge"><title>AS1299&#45;&gt;AS174</title>
<path fill="none" stroke="black" stroke-width="2" d="M548.698,-101.13C566.602,-111.613 591.183,-126.006 610.678,-137.421"/>
<polygon fill="black" stroke="black" stroke-width="2" points="609.113,-140.56 619.511,-142.593 612.65,-134.519 609.113,-140.56"/>
</g>
<!-- AS1299&#45;&gt;AS3356 -->
<g id="edge41" class="edge"><title>AS1299&#45;&gt;AS3356</title>
<path fill="none" stroke="black" stroke-width="2" d="M538.031,-103.878C553.578,-123.233 580.057,-155.797 603.762,-183 608.865,-188.855 614.465,-195.061 619.78,-200.856"/>
<polygon fill="black" stroke="black" stroke-width="2" points="617.421,-203.46 626.778,-208.429 622.562,-198.709 617.421,-203.46"/>
</g>
<!-- AS1299&#45;&gt;AS6762 -->
<g id="edge38" class="edge"><title>AS1299&#45;&gt;AS6762</title>
<path fill="none" stroke="black" stroke-width="2" d="M537.492,-103.964C546.772,-116.693 559.117,-134.812 567.762,-152 588.989,-194.199 575.053,-214.489 603.762,-252 605.535,-254.315 607.562,-256.509 609.739,-258.571"/>
<polygon fill="black" stroke="black" stroke-width="2" points="607.631,-261.37 617.566,-265.052 612.096,-255.978 607.631,-261.37"/>
</g>
<!-- AS1299&#45;&gt;AS7018 -->
<g id="edge40" class="edge"><title>AS1299&#45;&gt;AS7018</title>
<path fill="none" stroke="black" stroke-width="2" d="M548.698,-72.8703C566.253,-62.5911 590.228,-48.5532 609.533,-37.2497"/>
<polygon fill="black" stroke="black" stroke-width="2" points="611.449,-40.184 618.31,-32.1108 607.912,-34.1433 611.449,-40.184"/>
</g>
<!-- AS1299&#45;&gt;AS3257 -->
<g id="edge39" class="edge"><title>AS1299&#45;&gt;AS3257</title>
<path fill="none" stroke="black" stroke-width="2" d="M563.479,-87C573.032,-87 583.382,-87 593.345,-87"/>
<polygon fill="black" stroke="black" stroke-width="2" points="593.537,-90.5001 603.537,-87 593.537,-83.5001 593.537,-90.5001"/>
</g>
</g>
</svg>
