<?xml version="1.0" encoding="UTF-8" standalone="no"?>
<!DOCTYPE svg PUBLIC "-//W3C//DTD SVG 1.1//EN"
 "http://www.w3.org/Graphics/SVG/1.1/DTD/svg11.dtd">
<!-- Generated by graphviz version 2.38.0 (20140413.2041)
 -->
<!-- Title: AS15702 IPv6 Upstream Graph Pages: 1 -->
<svg width="576pt" height="530pt"
 viewBox="0.00 0.00 575.76 530.00" xmlns="http://www.w3.org/2000/svg" xmlns:xlink="http://www.w3.org/1999/xlink">
<g id="graph0" class="graph" transform="scale(1 1) rotate(0) translate(4 526)">
<title>AS15702 IPv6 Upstream Graph</title>
<polygon fill="white" stroke="none" points="-4,4 -4,-526 571.762,-526 571.762,4 -4,4"/>
<!-- AS15702 -->
<g id="node1" class="node"><title>AS15702</title>
<g id="a_node1"><a xlink:href="/asn/15702" xlink:title="AS15702 ~ Onstage Online GmbH [AT]">
<ellipse fill="#ffffff" stroke="black" cx="44.1961" cy="-369" rx="44.393" ry="18"/>
<text text-anchor="middle" x="44.1961" y="-365.3" font-family="Times,serif" font-size="14.00" fill="#880000">AS15702</text>
</a>
</g>
</g>
<!-- AS8218 -->
<g id="node2" class="node"><title>AS8218</title>
<g id="a_node2"><a xlink:href="/asn/8218" xlink:title="AS8218 ~ legacy Neotelecoms [FR]">
<ellipse fill="#ffffff" stroke="black" cx="168.588" cy="-423" rx="39.7935" ry="18"/>
<text text-anchor="middle" x="168.588" y="-419.3" font-family="Times,serif" font-size="14.00" fill="#2c94b3">AS8218</text>
</a>
</g>
</g>
<!-- AS15702&#45;&gt;AS8218 -->
<g id="edge1" class="edge"><title>AS15702&#45;&gt;AS8218</title>
<path fill="none" stroke="black" stroke-width="1.125" d="M74.8238,-382.072C91.4183,-389.393 112.278,-398.597 130.011,-406.421"/>
<polygon fill="black" stroke="black" stroke-width="1.125" points="128.933,-409.77 139.495,-410.605 131.758,-403.366 128.933,-409.77"/>
</g>
<!-- AS8245 -->
<g id="node3" class="node"><title>AS8245</title>
<g id="a_node3"><a xlink:href="/asn/8245" xlink:title="AS8245 ~ Video&#45;Broadcast GmbH [AT]">
<ellipse fill="#ffffff" stroke="black" cx="168.588" cy="-369" rx="39.7935" ry="18"/>
<text text-anchor="middle" x="168.588" y="-365.3" font-family="Times,serif" font-size="14.00" fill="#2c94b3">AS8245</text>
</a>
</g>
</g>
<!-- AS15702&#45;&gt;AS8245 -->
<g id="edge2" class="edge"><title>AS15702&#45;&gt;AS8245</title>
<path fill="none" stroke="black" stroke-width="0.84375" d="M88.6916,-369C98.3806,-369 108.717,-369 118.61,-369"/>
<polygon fill="black" stroke="black" stroke-width="0.84375" points="118.713,-372.5 128.713,-369 118.713,-365.5 118.713,-372.5"/>
</g>
<!-- AS47147 -->
<g id="node4" class="node"><title>AS47147</title>
<g id="a_node4"><a xlink:href="/asn/47147" xlink:title="AS47147 ~ ANEXIA Internetdienstleistungs GmbH [AT]">
<ellipse fill="#ffffff" stroke="black" cx="168.588" cy="-288" rx="44.393" ry="18"/>
<text text-anchor="middle" x="168.588" y="-284.3" font-family="Times,serif" font-size="14.00" fill="#2c94b3">AS47147</text>
</a>
</g>
</g>
<!-- AS15702&#45;&gt;AS47147 -->
<g id="edge3" class="edge"><title>AS15702&#45;&gt;AS47147</title>
<path fill="none" stroke="black" stroke-width="4.5" d="M68.2171,-353.765C87.4491,-341.037 115.056,-322.766 136.294,-308.711"/>
<polygon fill="black" stroke="black" stroke-width="4.5" points="138.504,-311.97 144.67,-303.167 134.158,-305.403 138.504,-311.97"/>
</g>
<!-- AS6461 -->
<g id="node5" class="node"><title>AS6461</title>
<g id="a_node5"><a xlink:href="/asn/6461" xlink:title="AS6461 ~ Zayo Bandwidth [US]">
<ellipse fill="#ffffff" stroke="black" cx="288.431" cy="-477" rx="39.7935" ry="18"/>
<text text-anchor="middle" x="288.431" y="-473.3" font-family="Times,serif" font-size="14.00" fill="#2c94b3">AS6461</text>
</a>
</g>
</g>
<!-- AS8218&#45;&gt;AS6461 -->
<g id="edge4" class="edge"><title>AS8218&#45;&gt;AS6461</title>
<path fill="none" stroke="black" stroke-width="3" d="M197.217,-435.661C213.174,-442.973 233.445,-452.261 250.727,-460.181"/>
<polygon fill="black" stroke="black" stroke-width="3" points="249.426,-463.435 259.975,-464.419 252.342,-457.071 249.426,-463.435"/>
</g>
<!-- AS1273 -->
<g id="node6" class="node"><title>AS1273</title>
<g id="a_node6"><a xlink:href="/asn/1273" xlink:title="AS1273 ~ Vodafone Group PLC [EU]">
<ellipse fill="#ffffff" stroke="black" cx="288.431" cy="-423" rx="39.7935" ry="18"/>
<text text-anchor="middle" x="288.431" y="-419.3" font-family="Times,serif" font-size="14.00" fill="#2c94b3">AS1273</text>
</a>
</g>
</g>
<!-- AS8218&#45;&gt;AS1273 -->
<g id="edge5" class="edge"><title>AS8218&#45;&gt;AS1273</title>
<path fill="none" stroke="black" d="M208.501,-423C218.054,-423 228.404,-423 238.367,-423"/>
<polygon fill="black" stroke="black" points="238.559,-426.5 248.559,-423 238.559,-419.5 238.559,-426.5"/>
</g>
<!-- AS6830 -->
<g id="node9" class="node"><title>AS6830</title>
<g id="a_node9"><a xlink:href="/asn/6830" xlink:title="AS6830 ~ LGI&#45;UPC [AT]">
<ellipse fill="#ffffff" stroke="black" cx="288.431" cy="-369" rx="39.7935" ry="18"/>
<text text-anchor="middle" x="288.431" y="-365.3" font-family="Times,serif" font-size="14.00" fill="#2c94b3">AS6830</text>
</a>
</g>
</g>
<!-- AS8245&#45;&gt;AS6830 -->
<g id="edge8" class="edge"><title>AS8245&#45;&gt;AS6830</title>
<path fill="none" stroke="black" stroke-width="3" d="M208.501,-369C218.054,-369 228.404,-369 238.367,-369"/>
<polygon fill="black" stroke="black" stroke-width="3" points="238.559,-372.5 248.559,-369 238.559,-365.5 238.559,-372.5"/>
</g>
<!-- AS1299 -->
<g id="node12" class="node"><title>AS1299</title>
<g id="a_node12"><a xlink:href="/asn/1299" xlink:title="AS1299 ~ Telia Carrier [EU]">
<ellipse fill="#ffffff" stroke="black" cx="288.431" cy="-261" rx="39.7935" ry="18"/>
<text text-anchor="middle" x="288.431" y="-257.3" font-family="Times,serif" font-size="14.00" fill="#2c94b3">AS1299</text>
</a>
</g>
</g>
<!-- AS47147&#45;&gt;AS1299 -->
<g id="edge12" class="edge"><title>AS47147&#45;&gt;AS1299</title>
<path fill="none" stroke="black" stroke-width="4.5" d="M207.523,-279.308C218.764,-276.733 231.176,-273.889 242.799,-271.226"/>
<polygon fill="black" stroke="black" stroke-width="4.5" points="243.893,-275.015 252.761,-268.943 242.134,-267.339 243.893,-275.015"/>
</g>
<!-- AS2914 -->
<g id="node13" class="node"><title>AS2914</title>
<g id="a_node13"><a xlink:href="/asn/2914" xlink:title="AS2914 ~ NTT America, Inc. [US]">
<ellipse fill="#ffffff" stroke="black" cx="288.431" cy="-315" rx="39.7935" ry="18"/>
<text text-anchor="middle" x="288.431" y="-311.3" font-family="Times,serif" font-size="14.00" fill="#2c94b3">AS2914</text>
</a>
</g>
</g>
<!-- AS47147&#45;&gt;AS2914 -->
<g id="edge13" class="edge"><title>AS47147&#45;&gt;AS2914</title>
<path fill="none" stroke="black" stroke-width="4.5" d="M207.523,-296.692C218.764,-299.267 231.176,-302.111 242.799,-304.774"/>
<polygon fill="black" stroke="black" stroke-width="4.5" points="242.134,-308.661 252.761,-307.057 243.893,-300.985 242.134,-308.661"/>
</g>
<!-- AS3320 -->
<g id="node14" class="node"><title>AS3320</title>
<g id="a_node14"><a xlink:href="/asn/3320" xlink:title="AS3320 ~ DTAG [DE]">
<ellipse fill="#ffffff" stroke="black" cx="288.431" cy="-153" rx="39.7935" ry="18"/>
<text text-anchor="middle" x="288.431" y="-149.3" font-family="Times,serif" font-size="14.00" fill="#2c94b3">AS3320</text>
</a>
</g>
</g>
<!-- AS47147&#45;&gt;AS3320 -->
<g id="edge14" class="edge"><title>AS47147&#45;&gt;AS3320</title>
<path fill="none" stroke="black" stroke-width="3" d="M184.513,-270.902C205.056,-247.369 242.175,-204.845 265.771,-177.813"/>
<polygon fill="black" stroke="black" stroke-width="3" points="268.688,-179.794 272.627,-169.959 263.414,-175.191 268.688,-179.794"/>
</g>
<!-- AS3491 -->
<g id="node7" class="node"><title>AS3491</title>
<g id="a_node7"><a xlink:href="/asn/3491" xlink:title="AS3491 ~ PCCW Global, Inc. [US]">
<ellipse fill="#ffffff" stroke="black" cx="408.273" cy="-504" rx="39.7935" ry="18"/>
<text text-anchor="middle" x="408.273" y="-500.3" font-family="Times,serif" font-size="14.00" fill="#2c94b3">AS3491</text>
</a>
</g>
</g>
<!-- AS6461&#45;&gt;AS3491 -->
<g id="edge6" class="edge"><title>AS6461&#45;&gt;AS3491</title>
<path fill="none" stroke="black" d="M324.15,-484.955C336.15,-487.704 349.771,-490.825 362.463,-493.733"/>
<polygon fill="black" stroke="black" points="361.866,-497.187 372.395,-496.009 363.429,-490.364 361.866,-497.187"/>
</g>
<!-- AS2497 -->
<g id="node8" class="node"><title>AS2497</title>
<g id="a_node8"><a xlink:href="/asn/2497" xlink:title="AS2497 ~ Internet Initiative Japan Inc. [JP]">
<ellipse fill="#ffffff" stroke="black" cx="408.273" cy="-450" rx="39.7935" ry="18"/>
<text text-anchor="middle" x="408.273" y="-446.3" font-family="Times,serif" font-size="14.00" fill="#2c94b3">AS2497</text>
</a>
</g>
</g>
<!-- AS6461&#45;&gt;AS2497 -->
<g id="edge7" class="edge"><title>AS6461&#45;&gt;AS2497</title>
<path fill="none" stroke="black" d="M324.15,-469.045C336.15,-466.296 349.771,-463.175 362.463,-460.267"/>
<polygon fill="black" stroke="black" points="363.429,-463.636 372.395,-457.991 361.866,-456.813 363.429,-463.636"/>
</g>
<!-- AS6830&#45;&gt;AS3491 -->
<g id="edge9" class="edge"><title>AS6830&#45;&gt;AS3491</title>
<path fill="none" stroke="black" d="M314.012,-383.156C319.106,-386.872 324.12,-391.201 328.077,-396 353.142,-426.394 338.243,-447.258 364.077,-477 366.542,-479.838 369.379,-482.477 372.397,-484.906"/>
<polygon fill="black" stroke="black" points="370.507,-487.858 380.675,-490.836 374.583,-482.167 370.507,-487.858"/>
</g>
<!-- AS6762 -->
<g id="node10" class="node"><title>AS6762</title>
<g id="a_node10"><a xlink:href="/asn/6762" xlink:title="AS6762 ~ TELECOM ITALIA SPARKLE S.p.A. [IT]">
<ellipse fill="#ffffff" stroke="black" cx="408.273" cy="-396" rx="39.7935" ry="18"/>
<text text-anchor="middle" x="408.273" y="-392.3" font-family="Times,serif" font-size="14.00" fill="#2c94b3">AS6762</text>
</a>
</g>
</g>
<!-- AS6830&#45;&gt;AS6762 -->
<g id="edge10" class="edge"><title>AS6830&#45;&gt;AS6762</title>
<path fill="none" stroke="black" d="M324.15,-376.955C336.15,-379.704 349.771,-382.825 362.463,-385.733"/>
<polygon fill="black" stroke="black" points="361.866,-389.187 372.395,-388.009 363.429,-382.364 361.866,-389.187"/>
</g>
<!-- AS3356 -->
<g id="node11" class="node"><title>AS3356</title>
<g id="a_node11"><a xlink:href="/asn/3356" xlink:title="AS3356 ~ Level 3 Parent, LLC [US]">
<ellipse fill="#ffffff" stroke="black" cx="408.273" cy="-288" rx="39.7935" ry="18"/>
<text text-anchor="middle" x="408.273" y="-284.3" font-family="Times,serif" font-size="14.00" fill="#2c94b3">AS3356</text>
</a>
</g>
</g>
<!-- AS6830&#45;&gt;AS3356 -->
<g id="edge11" class="edge"><title>AS6830&#45;&gt;AS3356</title>
<path fill="none" stroke="black" d="M311.188,-353.991C316.722,-350.121 322.641,-345.936 328.077,-342 344.277,-330.271 347.583,-326.311 364.077,-315 367.606,-312.581 371.343,-310.111 375.084,-307.698"/>
<polygon fill="black" stroke="black" points="377.156,-310.528 383.725,-302.216 373.406,-304.618 377.156,-310.528"/>
</g>
<!-- AS3549 -->
<g id="node18" class="node"><title>AS3549</title>
<g id="a_node18"><a xlink:href="/asn/3549" xlink:title="AS3549 ~ Level 3 Parent, LLC [US]">
<ellipse fill="#ffffff" stroke="black" cx="528.116" cy="-315" rx="39.7935" ry="18"/>
<text text-anchor="middle" x="528.116" y="-311.3" font-family="Times,serif" font-size="14.00" fill="#2c94b3">AS3549</text>
</a>
</g>
</g>
<!-- AS3356&#45;&gt;AS3549 -->
<g id="edge20" class="edge"><title>AS3356&#45;&gt;AS3549</title>
<path fill="none" stroke="black" d="M443.993,-295.955C455.993,-298.704 469.613,-301.825 482.306,-304.733"/>
<polygon fill="black" stroke="black" points="481.708,-308.187 492.238,-307.009 483.272,-301.364 481.708,-308.187"/>
</g>
<!-- AS209 -->
<g id="node19" class="node"><title>AS209</title>
<g id="a_node19"><a xlink:href="/asn/209" xlink:title="AS209 ~ CenturyLink Communications, LLC [US]">
<ellipse fill="#ffffff" stroke="black" cx="528.116" cy="-261" rx="35.194" ry="18"/>
<text text-anchor="middle" x="528.116" y="-257.3" font-family="Times,serif" font-size="14.00" fill="#2c94b3">AS209</text>
</a>
</g>
</g>
<!-- AS3356&#45;&gt;AS209 -->
<g id="edge21" class="edge"><title>AS3356&#45;&gt;AS209</title>
<path fill="none" stroke="black" d="M443.993,-280.045C457.085,-277.045 472.107,-273.604 485.748,-270.478"/>
<polygon fill="black" stroke="black" points="486.89,-273.807 495.855,-268.162 485.326,-266.984 486.89,-273.807"/>
</g>
<!-- AS1299&#45;&gt;AS6762 -->
<g id="edge19" class="edge"><title>AS1299&#45;&gt;AS6762</title>
<path fill="none" stroke="black" d="M314.012,-275.156C319.106,-278.872 324.12,-283.201 328.077,-288 353.142,-318.394 338.243,-339.258 364.077,-369 366.542,-371.838 369.379,-374.477 372.397,-376.906"/>
<polygon fill="black" stroke="black" points="370.507,-379.858 380.675,-382.836 374.583,-374.167 370.507,-379.858"/>
</g>
<!-- AS1299&#45;&gt;AS3356 -->
<g id="edge15" class="edge"><title>AS1299&#45;&gt;AS3356</title>
<path fill="none" stroke="black" d="M324.15,-268.955C336.15,-271.704 349.771,-274.825 362.463,-277.733"/>
<polygon fill="black" stroke="black" points="361.866,-281.187 372.395,-280.009 363.429,-274.364 361.866,-281.187"/>
</g>
<!-- AS174 -->
<g id="node15" class="node"><title>AS174</title>
<g id="a_node15"><a xlink:href="/asn/174" xlink:title="AS174 ~ Cogent Communications [US]">
<ellipse fill="#ffffff" stroke="black" cx="408.273" cy="-234" rx="35.194" ry="18"/>
<text text-anchor="middle" x="408.273" y="-230.3" font-family="Times,serif" font-size="14.00" fill="#2c94b3">AS174</text>
</a>
</g>
</g>
<!-- AS1299&#45;&gt;AS174 -->
<g id="edge16" class="edge"><title>AS1299&#45;&gt;AS174</title>
<path fill="none" stroke="black" d="M324.15,-253.045C337.243,-250.045 352.265,-246.604 365.906,-243.478"/>
<polygon fill="black" stroke="black" points="367.047,-246.807 376.013,-241.162 365.484,-239.984 367.047,-246.807"/>
</g>
<!-- AS3257 -->
<g id="node16" class="node"><title>AS3257</title>
<g id="a_node16"><a xlink:href="/asn/3257" xlink:title="AS3257 ~ GTT [DE]">
<ellipse fill="#ffffff" stroke="black" cx="408.273" cy="-180" rx="39.7935" ry="18"/>
<text text-anchor="middle" x="408.273" y="-176.3" font-family="Times,serif" font-size="14.00" fill="#2c94b3">AS3257</text>
</a>
</g>
</g>
<!-- AS1299&#45;&gt;AS3257 -->
<g id="edge17" class="edge"><title>AS1299&#45;&gt;AS3257</title>
<path fill="none" stroke="black" d="M309.761,-245.723C324.623,-234.696 345.368,-219.593 364.077,-207 367.626,-204.611 371.377,-202.161 375.125,-199.758"/>
<polygon fill="black" stroke="black" points="377.193,-202.591 383.774,-194.288 373.451,-196.675 377.193,-202.591"/>
</g>
<!-- AS7018 -->
<g id="node17" class="node"><title>AS7018</title>
<g id="a_node17"><a xlink:href="/asn/7018" xlink:title="AS7018 ~ AT&amp;T Services, Inc. [US]">
<ellipse fill="#ffffff" stroke="black" cx="408.273" cy="-126" rx="39.7935" ry="18"/>
<text text-anchor="middle" x="408.273" y="-122.3" font-family="Times,serif" font-size="14.00" fill="#2c94b3">AS7018</text>
</a>
</g>
</g>
<!-- AS1299&#45;&gt;AS7018 -->
<g id="edge18" class="edge"><title>AS1299&#45;&gt;AS7018</title>
<path fill="none" stroke="black" d="M298.672,-243.287C311.218,-220.439 335.394,-180.389 364.077,-153 366.946,-150.261 370.134,-147.653 373.443,-145.215"/>
<polygon fill="black" stroke="black" points="375.507,-148.044 381.803,-139.523 371.567,-142.258 375.507,-148.044"/>
</g>
<!-- AS2914&#45;&gt;AS2497 -->
<g id="edge24" class="edge"><title>AS2914&#45;&gt;AS2497</title>
<path fill="none" stroke="black" d="M314.012,-329.156C319.106,-332.872 324.12,-337.201 328.077,-342 353.142,-372.394 338.243,-393.258 364.077,-423 366.542,-425.838 369.379,-428.477 372.397,-430.906"/>
<polygon fill="black" stroke="black" points="370.507,-433.858 380.675,-436.836 374.583,-428.167 370.507,-433.858"/>
</g>
<!-- AS2914&#45;&gt;AS6762 -->
<g id="edge23" class="edge"><title>AS2914&#45;&gt;AS6762</title>
<path fill="none" stroke="black" d="M311.188,-330.009C316.722,-333.879 322.641,-338.064 328.077,-342 344.277,-353.729 347.583,-357.689 364.077,-369 367.606,-371.419 371.343,-373.889 375.084,-376.302"/>
<polygon fill="black" stroke="black" points="373.406,-379.382 383.725,-381.784 377.156,-373.472 373.406,-379.382"/>
</g>
<!-- AS2914&#45;&gt;AS3356 -->
<g id="edge26" class="edge"><title>AS2914&#45;&gt;AS3356</title>
<path fill="none" stroke="black" d="M324.15,-307.045C336.15,-304.296 349.771,-301.175 362.463,-298.267"/>
<polygon fill="black" stroke="black" points="363.429,-301.636 372.395,-295.991 361.866,-294.813 363.429,-301.636"/>
</g>
<!-- AS2914&#45;&gt;AS174 -->
<g id="edge25" class="edge"><title>AS2914&#45;&gt;AS174</title>
<path fill="none" stroke="black" d="M311.188,-299.991C316.722,-296.121 322.641,-291.936 328.077,-288 344.277,-276.271 347.583,-272.311 364.077,-261 367.872,-258.398 371.909,-255.738 375.933,-253.151"/>
<polygon fill="black" stroke="black" points="378.039,-255.96 384.62,-247.657 374.298,-250.044 378.039,-255.96"/>
</g>
<!-- AS12956 -->
<g id="node20" class="node"><title>AS12956</title>
<g id="a_node20"><a xlink:href="/asn/12956" xlink:title="AS12956 ~ TELXIUS [ES]">
<ellipse fill="#ffffff" stroke="black" cx="408.273" cy="-342" rx="44.393" ry="18"/>
<text text-anchor="middle" x="408.273" y="-338.3" font-family="Times,serif" font-size="14.00" fill="#2c94b3">AS12956</text>
</a>
</g>
</g>
<!-- AS2914&#45;&gt;AS12956 -->
<g id="edge22" class="edge"><title>AS2914&#45;&gt;AS12956</title>
<path fill="none" stroke="black" d="M324.15,-322.955C335.289,-325.507 347.824,-328.379 359.717,-331.104"/>
<polygon fill="black" stroke="black" points="358.982,-334.526 369.511,-333.348 360.545,-327.703 358.982,-334.526"/>
</g>
<!-- AS3320&#45;&gt;AS3356 -->
<g id="edge28" class="edge"><title>AS3320&#45;&gt;AS3356</title>
<path fill="none" stroke="black" d="M298.672,-170.713C311.218,-193.561 335.394,-233.611 364.077,-261 366.946,-263.739 370.134,-266.347 373.443,-268.785"/>
<polygon fill="black" stroke="black" points="371.567,-271.742 381.803,-274.477 375.507,-265.956 371.567,-271.742"/>
</g>
<!-- AS701 -->
<g id="node21" class="node"><title>AS701</title>
<g id="a_node21"><a xlink:href="/asn/701" xlink:title="AS701 ~ UUNET [US]">
<ellipse fill="#ffffff" stroke="black" cx="408.273" cy="-72" rx="35.194" ry="18"/>
<text text-anchor="middle" x="408.273" y="-68.3" font-family="Times,serif" font-size="14.00" fill="#2c94b3">AS701</text>
</a>
</g>
</g>
<!-- AS3320&#45;&gt;AS701 -->
<g id="edge27" class="edge"><title>AS3320&#45;&gt;AS701</title>
<path fill="none" stroke="black" d="M309.761,-137.723C324.623,-126.696 345.368,-111.593 364.077,-99 367.895,-96.4305 371.945,-93.7902 375.975,-91.2139"/>
<polygon fill="black" stroke="black" points="378.079,-94.0248 384.669,-85.7287 374.344,-88.1046 378.079,-94.0248"/>
</g>
<!-- AS6453 -->
<g id="node22" class="node"><title>AS6453</title>
<g id="a_node22"><a xlink:href="/asn/6453" xlink:title="AS6453 ~ TATA COMMUNICATIONS (AMERICA) INC [US]">
<ellipse fill="#ffffff" stroke="black" cx="408.273" cy="-18" rx="39.7935" ry="18"/>
<text text-anchor="middle" x="408.273" y="-14.3" font-family="Times,serif" font-size="14.00" fill="#2c94b3">AS6453</text>
</a>
</g>
</g>
<!-- AS3320&#45;&gt;AS6453 -->
<g id="edge29" class="edge"><title>AS3320&#45;&gt;AS6453</title>
<path fill="none" stroke="black" d="M298.672,-135.287C311.218,-112.439 335.394,-72.3891 364.077,-45 366.946,-42.2611 370.134,-39.6533 373.443,-37.2147"/>
<polygon fill="black" stroke="black" points="375.507,-40.0442 381.803,-31.523 371.567,-34.2581 375.507,-40.0442"/>
</g>
</g>
</svg>
