<?xml version="1.0" encoding="UTF-8" standalone="no"?>
<!DOCTYPE svg PUBLIC "-//W3C//DTD SVG 1.1//EN"
 "http://www.w3.org/Graphics/SVG/1.1/DTD/svg11.dtd">
<!-- Generated by graphviz version 2.38.0 (20140413.2041)
 -->
<!-- Title: AS15702 Combined Upstream Graph Pages: 1 -->
<svg width="815pt" height="740pt"
 viewBox="0.00 0.00 815.45 739.96" xmlns="http://www.w3.org/2000/svg" xmlns:xlink="http://www.w3.org/1999/xlink">
<g id="graph0" class="graph" transform="scale(1 1) rotate(0) translate(4 735.962)">
<title>AS15702 Combined Upstream Graph</title>
<polygon fill="white" stroke="none" points="-4,4 -4,-735.962 811.448,-735.962 811.448,4 -4,4"/>
<!-- AS15702 -->
<g id="node1" class="node"><title>AS15702</title>
<g id="a_node1"><a xlink:href="/asn/15702" xlink:title="AS15702 ~ Onstage Online GmbH [AT]">
<ellipse fill="#ffffff" stroke="black" cx="44.1961" cy="-279.744" rx="44.393" ry="18"/>
<text text-anchor="middle" x="44.1961" y="-276.044" font-family="Times,serif" font-size="14.00" fill="#880000">AS15702</text>
</a>
</g>
</g>
<!-- AS8218 -->
<g id="node2" class="node"><title>AS8218</title>
<g id="a_node2"><a xlink:href="/asn/8218" xlink:title="AS8218 ~ legacy Neotelecoms [FR]">
<ellipse fill="#ffffff" stroke="black" cx="283.881" cy="-356.744" rx="39.7935" ry="18"/>
<text text-anchor="middle" x="283.881" y="-353.044" font-family="Times,serif" font-size="14.00" fill="#2c94b3">AS8218</text>
</a>
</g>
</g>
<!-- AS15702&#45;&gt;AS8218 -->
<g id="edge1" class="edge"><title>AS15702&#45;&gt;AS8218</title>
<path fill="none" stroke="black" stroke-width="1.03846" d="M72.1476,-293.895C87.2212,-301.409 106.522,-310.38 124.392,-316.744 161.541,-329.975 205.059,-340.628 237.085,-347.603"/>
<polygon fill="black" stroke="black" stroke-width="1.03846" points="236.546,-351.067 247.057,-349.737 238.011,-344.222 236.546,-351.067"/>
</g>
<!-- AS8245 -->
<g id="node3" class="node"><title>AS8245</title>
<g id="a_node3"><a xlink:href="/asn/8245" xlink:title="AS8245 ~ Video&#45;Broadcast GmbH [AT]">
<ellipse fill="#ffffff" stroke="black" cx="164.039" cy="-256.744" rx="39.7935" ry="18"/>
<text text-anchor="middle" x="164.039" y="-253.044" font-family="Times,serif" font-size="14.00" fill="#2c94b3">AS8245</text>
</a>
</g>
</g>
<!-- AS15702&#45;&gt;AS8245 -->
<g id="edge2" class="edge"><title>AS15702&#45;&gt;AS8245</title>
<path fill="none" stroke="black" stroke-width="4.5" d="M84.4359,-272.086C94.8881,-270.046 106.274,-267.824 117.052,-265.72"/>
<polygon fill="black" stroke="black" stroke-width="4.5" points="118.089,-269.529 127.149,-263.749 116.58,-261.8 118.089,-269.529"/>
</g>
<!-- AS13237 -->
<g id="node4" class="node"><title>AS13237</title>
<g id="a_node4"><a xlink:href="/asn/13237" xlink:title="AS13237 ~ European Backbone of AS13237 [DE]">
<ellipse fill="#ffffff" stroke="black" cx="408.273" cy="-302.744" rx="44.393" ry="18"/>
<text text-anchor="middle" x="408.273" y="-299.044" font-family="Times,serif" font-size="14.00" fill="#2c94b3">AS13237</text>
</a>
</g>
</g>
<!-- AS15702&#45;&gt;AS13237 -->
<g id="edge3" class="edge"><title>AS15702&#45;&gt;AS13237</title>
<path fill="none" stroke="black" stroke-width="2.59615" d="M88.153,-282.473C154.571,-286.692 282.038,-294.789 354.149,-299.37"/>
<polygon fill="black" stroke="black" stroke-width="2.59615" points="354.171,-302.878 364.372,-300.019 354.614,-295.892 354.171,-302.878"/>
</g>
<!-- AS47147 -->
<g id="node5" class="node"><title>AS47147</title>
<g id="a_node5"><a xlink:href="/asn/47147" xlink:title="AS47147 ~ ANEXIA Internetdienstleistungs GmbH [AT]">
<ellipse fill="#ffffff" stroke="black" cx="283.881" cy="-210.744" rx="44.393" ry="18"/>
<text text-anchor="middle" x="283.881" y="-207.044" font-family="Times,serif" font-size="14.00" fill="#2c94b3">AS47147</text>
</a>
</g>
</g>
<!-- AS15702&#45;&gt;AS47147 -->
<g id="edge4" class="edge"><title>AS15702&#45;&gt;AS47147</title>
<path fill="none" stroke="black" stroke-width="2.76923" d="M65.0577,-263.667C80.3371,-252.215 102.481,-237.526 124.392,-229.744 158.061,-217.788 198.015,-213.056 229.384,-211.303"/>
<polygon fill="black" stroke="black" stroke-width="2.76923" points="229.848,-214.785 239.671,-210.817 229.517,-207.793 229.848,-214.785"/>
</g>
<!-- AS6461 -->
<g id="node6" class="node"><title>AS6461</title>
<g id="a_node6"><a xlink:href="/asn/6461" xlink:title="AS6461 ~ Zayo Bandwidth [US]">
<ellipse fill="#ffffff" stroke="black" cx="408.273" cy="-410.744" rx="39.7935" ry="18"/>
<text text-anchor="middle" x="408.273" y="-407.044" font-family="Times,serif" font-size="14.00" fill="#2c94b3">AS6461</text>
</a>
</g>
</g>
<!-- AS8218&#45;&gt;AS6461 -->
<g id="edge5" class="edge"><title>AS8218&#45;&gt;AS6461</title>
<path fill="none" stroke="black" stroke-width="4.5" d="M312.96,-369.133C329.908,-376.611 351.706,-386.228 370.075,-394.332"/>
<polygon fill="black" stroke="black" stroke-width="4.5" points="368.586,-397.979 379.325,-398.413 371.765,-390.774 368.586,-397.979"/>
</g>
<!-- AS1299 -->
<g id="node7" class="node"><title>AS1299</title>
<g id="a_node7"><a xlink:href="/asn/1299" xlink:title="AS1299 ~ Telia Carrier [EU]">
<ellipse fill="#ffffff" stroke="black" cx="408.273" cy="-356.744" rx="39.7935" ry="18"/>
<text text-anchor="middle" x="408.273" y="-353.044" font-family="Times,serif" font-size="14.00" fill="#2c94b3">AS1299</text>
</a>
</g>
</g>
<!-- AS8218&#45;&gt;AS1299 -->
<g id="edge6" class="edge"><title>AS8218&#45;&gt;AS1299</title>
<path fill="none" stroke="black" stroke-width="0.214286" d="M323.607,-356.744C334.545,-356.744 346.596,-356.744 358.062,-356.744"/>
<polygon fill="black" stroke="black" stroke-width="0.214286" points="358.38,-360.245 368.38,-356.744 358.38,-353.245 358.38,-360.245"/>
</g>
<!-- AS1273 -->
<g id="node8" class="node"><title>AS1273</title>
<g id="a_node8"><a xlink:href="/asn/1273" xlink:title="AS1273 ~ Vodafone Group PLC [EU]">
<ellipse fill="#ffffff" stroke="black" cx="408.273" cy="-464.744" rx="39.7935" ry="18"/>
<text text-anchor="middle" x="408.273" y="-461.044" font-family="Times,serif" font-size="14.00" fill="#2c94b3">AS1273</text>
</a>
</g>
</g>
<!-- AS8218&#45;&gt;AS1273 -->
<g id="edge7" class="edge"><title>AS8218&#45;&gt;AS1273</title>
<path fill="none" stroke="black" stroke-width="0.214286" d="M299.033,-373.408C314.135,-390.638 339.256,-417.769 364.077,-437.744 367.333,-440.364 370.858,-442.937 374.442,-445.39"/>
<polygon fill="black" stroke="black" stroke-width="0.214286" points="372.53,-448.322 382.815,-450.865 376.361,-442.463 372.53,-448.322"/>
</g>
<!-- AS8245&#45;&gt;AS8218 -->
<g id="edge8" class="edge"><title>AS8245&#45;&gt;AS8218</title>
<path fill="none" stroke="black" stroke-width="4.5" d="M183.711,-272.59C203.363,-289.267 234.459,-315.653 256.587,-334.431"/>
<polygon fill="black" stroke="black" stroke-width="4.5" points="254.124,-337.505 264.296,-340.973 259.219,-331.501 254.124,-337.505"/>
</g>
<!-- AS6830 -->
<g id="node9" class="node"><title>AS6830</title>
<g id="a_node9"><a xlink:href="/asn/6830" xlink:title="AS6830 ~ LGI&#45;UPC [AT]">
<ellipse fill="#ffffff" stroke="black" cx="532.666" cy="-210.744" rx="39.7935" ry="18"/>
<text text-anchor="middle" x="532.666" y="-207.044" font-family="Times,serif" font-size="14.00" fill="#2c94b3">AS6830</text>
</a>
</g>
</g>
<!-- AS8245&#45;&gt;AS6830 -->
<g id="edge9" class="edge"><title>AS8245&#45;&gt;AS6830</title>
<path fill="none" stroke="black" stroke-width="2.38235" d="M202.618,-252.536C235.676,-248.793 285.094,-243.099 328.077,-237.744 381.732,-231.061 443.261,-222.821 484.506,-217.214"/>
<polygon fill="black" stroke="black" stroke-width="2.38235" points="485.102,-220.665 494.538,-215.848 484.157,-213.729 485.102,-220.665"/>
</g>
<!-- AS3320 -->
<g id="node12" class="node"><title>AS3320</title>
<g id="a_node12"><a xlink:href="/asn/3320" xlink:title="AS3320 ~ DTAG [DE]">
<ellipse fill="#ffffff" stroke="black" cx="532.666" cy="-42.7445" rx="39.7935" ry="18"/>
<text text-anchor="middle" x="532.666" y="-39.0445" font-family="Times,serif" font-size="14.00" fill="#2c94b3">AS3320</text>
</a>
</g>
</g>
<!-- AS13237&#45;&gt;AS3320 -->
<g id="edge33" class="edge"><title>AS13237&#45;&gt;AS3320</title>
<path fill="none" stroke="black" stroke-width="0.5" d="M411.811,-284.788C418.318,-243.956 438.717,-142.445 488.469,-74.7445 491.568,-70.5283 495.381,-66.624 499.447,-63.0973"/>
<polygon fill="black" stroke="black" stroke-width="0.5" points="501.76,-65.7311 507.456,-56.7979 497.432,-60.2289 501.76,-65.7311"/>
</g>
<!-- AS2914 -->
<g id="node16" class="node"><title>AS2914</title>
<g id="a_node16"><a xlink:href="/asn/2914" xlink:title="AS2914 ~ NTT America, Inc. [US]">
<ellipse fill="#ffffff" stroke="black" cx="532.666" cy="-302.744" rx="39.7935" ry="18"/>
<text text-anchor="middle" x="532.666" y="-299.044" font-family="Times,serif" font-size="14.00" fill="#2c94b3">AS2914</text>
</a>
</g>
</g>
<!-- AS13237&#45;&gt;AS2914 -->
<g id="edge31" class="edge"><title>AS13237&#45;&gt;AS2914</title>
<path fill="none" stroke="black" stroke-width="4.5" d="M452.769,-302.744C462.458,-302.744 472.795,-302.744 482.687,-302.744"/>
<polygon fill="black" stroke="black" stroke-width="4.5" points="482.79,-306.682 492.79,-302.744 482.79,-298.807 482.79,-306.682"/>
</g>
<!-- AS3257 -->
<g id="node22" class="node"><title>AS3257</title>
<g id="a_node22"><a xlink:href="/asn/3257" xlink:title="AS3257 ~ GTT [DE]">
<ellipse fill="#ffffff" stroke="black" cx="532.666" cy="-394.744" rx="39.7935" ry="18"/>
<text text-anchor="middle" x="532.666" y="-391.044" font-family="Times,serif" font-size="14.00" fill="#2c94b3">AS3257</text>
</a>
</g>
</g>
<!-- AS13237&#45;&gt;AS3257 -->
<g id="edge32" class="edge"><title>AS13237&#45;&gt;AS3257</title>
<path fill="none" stroke="black" stroke-width="2.5" d="M434.303,-317.629C440.35,-321.432 446.723,-325.617 452.469,-329.744 470.875,-342.966 490.576,-359.127 505.724,-372.027"/>
<polygon fill="black" stroke="black" stroke-width="2.5" points="503.767,-374.96 513.635,-378.819 508.327,-369.649 503.767,-374.96"/>
</g>
<!-- AS47147&#45;&gt;AS1299 -->
<g id="edge44" class="edge"><title>AS47147&#45;&gt;AS1299</title>
<path fill="none" stroke="black" stroke-width="4.5" d="M293.635,-228.58C306.485,-253.452 332.399,-298.958 364.077,-329.744 366.921,-332.508 370.094,-335.133 373.394,-337.581"/>
<polygon fill="black" stroke="black" stroke-width="4.5" points="371.263,-340.894 381.741,-343.285 375.707,-334.392 371.263,-340.894"/>
</g>
<!-- AS47147&#45;&gt;AS3320 -->
<g id="edge46" class="edge"><title>AS47147&#45;&gt;AS3320</title>
<path fill="none" stroke="black" stroke-width="2.57143" d="M307.656,-195.241C352.231,-164.895 451.013,-97.649 501.17,-63.5043"/>
<polygon fill="black" stroke="black" stroke-width="2.57143" points="503.36,-66.2479 509.657,-57.7272 499.421,-60.4614 503.36,-66.2479"/>
</g>
<!-- AS47147&#45;&gt;AS2914 -->
<g id="edge45" class="edge"><title>AS47147&#45;&gt;AS2914</title>
<path fill="none" stroke="black" stroke-width="3.21429" d="M317.144,-222.772C362.003,-239.495 443.168,-269.753 491.772,-287.872"/>
<polygon fill="black" stroke="black" stroke-width="3.21429" points="490.739,-291.222 501.332,-291.436 493.184,-284.663 490.739,-291.222"/>
</g>
<!-- AS3356 -->
<g id="node10" class="node"><title>AS3356</title>
<g id="a_node10"><a xlink:href="/asn/3356" xlink:title="AS3356 ~ Level 3 Parent, LLC [US]">
<ellipse fill="#ffffff" stroke="black" cx="652.508" cy="-80.7445" rx="39.7935" ry="18"/>
<text text-anchor="middle" x="652.508" y="-77.0445" font-family="Times,serif" font-size="14.00" fill="#2c94b3">AS3356</text>
</a>
</g>
</g>
<!-- AS6461&#45;&gt;AS3356 -->
<g id="edge10" class="edge"><title>AS6461&#45;&gt;AS3356</title>
<path fill="none" stroke="black" stroke-width="3" d="M437.441,-398.132C443.241,-394.3 448.717,-389.533 452.469,-383.744 515.686,-286.224 411.605,-211.914 488.469,-124.744 516.739,-92.6846 565.688,-82.8705 602.594,-80.3621"/>
<polygon fill="black" stroke="black" stroke-width="3" points="602.854,-83.8534 612.657,-79.8359 602.488,-76.863 602.854,-83.8534"/>
</g>
<!-- AS701 -->
<g id="node11" class="node"><title>AS701</title>
<g id="a_node11"><a xlink:href="/asn/701" xlink:title="AS701 ~ UUNET [US]">
<ellipse fill="#ffffff" stroke="black" cx="652.508" cy="-188.744" rx="35.194" ry="18"/>
<text text-anchor="middle" x="652.508" y="-185.044" font-family="Times,serif" font-size="14.00" fill="#2c94b3">AS701</text>
</a>
</g>
</g>
<!-- AS6461&#45;&gt;AS701 -->
<g id="edge11" class="edge"><title>AS6461&#45;&gt;AS701</title>
<path fill="none" stroke="black" d="M437.274,-398.022C443.082,-394.195 448.602,-389.457 452.469,-383.744 503.102,-308.955 419.179,-241.676 488.469,-183.744 523.222,-154.689 578.2,-163.896 614.56,-174.894"/>
<polygon fill="black" stroke="black" points="613.698,-178.293 624.289,-178.013 615.835,-171.627 613.698,-178.293"/>
</g>
<!-- AS6461&#45;&gt;AS3320 -->
<g id="edge12" class="edge"><title>AS6461&#45;&gt;AS3320</title>
<path fill="none" stroke="black" d="M437.534,-398.192C443.331,-394.358 448.781,-389.574 452.469,-383.744 526.388,-266.901 419.219,-194.414 488.469,-74.7445 490.967,-70.4278 494.305,-66.519 498.022,-63.0358"/>
<polygon fill="black" stroke="black" points="500.507,-65.5254 506.039,-56.4895 496.08,-60.1033 500.507,-65.5254"/>
</g>
<!-- AS12956 -->
<g id="node13" class="node"><title>AS12956</title>
<g id="a_node13"><a xlink:href="/asn/12956" xlink:title="AS12956 ~ TELXIUS [ES]">
<ellipse fill="#ffffff" stroke="black" cx="532.666" cy="-638.744" rx="44.393" ry="18"/>
<text text-anchor="middle" x="532.666" y="-635.044" font-family="Times,serif" font-size="14.00" fill="#2c94b3">AS12956</text>
</a>
</g>
</g>
<!-- AS6461&#45;&gt;AS12956 -->
<g id="edge13" class="edge"><title>AS6461&#45;&gt;AS12956</title>
<path fill="none" stroke="black" d="M437.143,-423.558C442.956,-427.381 448.512,-432.094 452.469,-437.744 496.528,-500.646 446.928,-542.154 488.469,-606.744 490.979,-610.647 494.144,-614.241 497.614,-617.499"/>
<polygon fill="black" stroke="black" points="495.629,-620.399 505.562,-624.083 500.094,-615.008 495.629,-620.399"/>
</g>
<!-- AS174 -->
<g id="node14" class="node"><title>AS174</title>
<g id="a_node14"><a xlink:href="/asn/174" xlink:title="AS174 ~ Cogent Communications [US]">
<ellipse fill="#ffffff" stroke="black" cx="652.508" cy="-478.744" rx="35.194" ry="18"/>
<text text-anchor="middle" x="652.508" y="-475.044" font-family="Times,serif" font-size="14.00" fill="#2c94b3">AS174</text>
</a>
</g>
</g>
<!-- AS6461&#45;&gt;AS174 -->
<g id="edge14" class="edge"><title>AS6461&#45;&gt;AS174</title>
<path fill="none" stroke="black" d="M437.363,-423.408C443.167,-427.237 448.664,-431.991 452.469,-437.744 509.066,-523.309 410.476,-599.1 488.469,-665.744 518.336,-691.265 545.774,-689.763 576.862,-665.744 627.021,-626.991 584.636,-584.499 612.862,-527.744 617.255,-518.911 623.413,-510.161 629.524,-502.554"/>
<polygon fill="black" stroke="black" points="632.29,-504.703 636.051,-494.798 626.934,-500.196 632.29,-504.703"/>
</g>
<!-- AS2497 -->
<g id="node15" class="node"><title>AS2497</title>
<g id="a_node15"><a xlink:href="/asn/2497" xlink:title="AS2497 ~ Internet Initiative Japan Inc. [JP]">
<ellipse fill="#ffffff" stroke="black" cx="652.508" cy="-313.744" rx="39.7935" ry="18"/>
<text text-anchor="middle" x="652.508" y="-310.044" font-family="Times,serif" font-size="14.00" fill="#2c94b3">AS2497</text>
</a>
</g>
</g>
<!-- AS6461&#45;&gt;AS2497 -->
<g id="edge15" class="edge"><title>AS6461&#45;&gt;AS2497</title>
<path fill="none" stroke="black" stroke-width="2" d="M438.604,-422.563C474.324,-434.879 535.055,-448.914 576.862,-421.744 609.894,-400.277 587.797,-371.138 612.862,-340.744 614.717,-338.495 616.804,-336.349 619.023,-334.32"/>
<polygon fill="black" stroke="black" stroke-width="2" points="621.371,-336.922 626.927,-327.901 616.958,-331.488 621.371,-336.922"/>
</g>
<!-- AS6461&#45;&gt;AS2914 -->
<g id="edge16" class="edge"><title>AS6461&#45;&gt;AS2914</title>
<path fill="none" stroke="black" d="M434.645,-397.116C440.81,-393.219 447.153,-388.677 452.469,-383.744 472.281,-365.366 469.399,-353.891 488.469,-334.744 492.242,-330.957 496.489,-327.262 500.809,-323.808"/>
<polygon fill="black" stroke="black" points="503.261,-326.341 509.102,-317.502 499.024,-320.769 503.261,-326.341"/>
</g>
<!-- AS3491 -->
<g id="node17" class="node"><title>AS3491</title>
<g id="a_node17"><a xlink:href="/asn/3491" xlink:title="AS3491 ~ PCCW Global, Inc. [US]">
<ellipse fill="#ffffff" stroke="black" cx="652.508" cy="-367.744" rx="39.7935" ry="18"/>
<text text-anchor="middle" x="652.508" y="-364.044" font-family="Times,serif" font-size="14.00" fill="#2c94b3">AS3491</text>
</a>
</g>
</g>
<!-- AS6461&#45;&gt;AS3491 -->
<g id="edge17" class="edge"><title>AS6461&#45;&gt;AS3491</title>
<path fill="none" stroke="black" stroke-width="2" d="M432.136,-425.145C451.148,-436.796 476.898,-451.746 488.469,-454.744 526.499,-464.599 542.675,-474.1 576.862,-454.744 603.923,-439.422 591.648,-417.484 612.862,-394.744 614.903,-392.556 617.15,-390.442 619.501,-388.426"/>
<polygon fill="black" stroke="black" stroke-width="2" points="622.027,-390.895 627.755,-381.982 617.719,-385.377 622.027,-390.895"/>
</g>
<!-- AS209 -->
<g id="node18" class="node"><title>AS209</title>
<g id="a_node18"><a xlink:href="/asn/209" xlink:title="AS209 ~ CenturyLink Communications, LLC [US]">
<ellipse fill="#ffffff" stroke="black" cx="767.801" cy="-447.744" rx="35.194" ry="18"/>
<text text-anchor="middle" x="767.801" y="-444.044" font-family="Times,serif" font-size="14.00" fill="#2c94b3">AS209</text>
</a>
</g>
</g>
<!-- AS6461&#45;&gt;AS209 -->
<g id="edge18" class="edge"><title>AS6461&#45;&gt;AS209</title>
<path fill="none" stroke="black" d="M437.47,-423.338C443.27,-427.17 448.737,-431.943 452.469,-437.744 518.68,-540.671 396.448,-630.061 488.469,-710.744 595.216,-804.339 717.545,-558.787 755.183,-474.768"/>
<polygon fill="black" stroke="black" points="758.403,-476.139 759.249,-465.578 752.002,-473.307 758.403,-476.139"/>
</g>
<!-- AS6762 -->
<g id="node19" class="node"><title>AS6762</title>
<g id="a_node19"><a xlink:href="/asn/6762" xlink:title="AS6762 ~ TELECOM ITALIA SPARKLE S.p.A. [IT]">
<ellipse fill="#ffffff" stroke="black" cx="652.508" cy="-259.744" rx="39.7935" ry="18"/>
<text text-anchor="middle" x="652.508" y="-256.044" font-family="Times,serif" font-size="14.00" fill="#2c94b3">AS6762</text>
</a>
</g>
</g>
<!-- AS6461&#45;&gt;AS6762 -->
<g id="edge19" class="edge"><title>AS6461&#45;&gt;AS6762</title>
<path fill="none" stroke="black" d="M433.587,-396.794C449.104,-388.079 469.748,-376.827 488.469,-367.744 526.942,-349.078 542.56,-355.278 576.862,-329.744 596.855,-314.862 594.486,-303.584 612.862,-286.744 615.275,-284.533 617.878,-282.353 620.552,-280.249"/>
<polygon fill="black" stroke="black" points="622.736,-282.987 628.67,-274.21 618.558,-277.37 622.736,-282.987"/>
</g>
<!-- AS7018 -->
<g id="node20" class="node"><title>AS7018</title>
<g id="a_node20"><a xlink:href="/asn/7018" xlink:title="AS7018 ~ AT&amp;T Services, Inc. [US]">
<ellipse fill="#ffffff" stroke="black" cx="652.508" cy="-554.744" rx="39.7935" ry="18"/>
<text text-anchor="middle" x="652.508" y="-551.044" font-family="Times,serif" font-size="14.00" fill="#2c94b3">AS7018</text>
</a>
</g>
</g>
<!-- AS6461&#45;&gt;AS7018 -->
<g id="edge20" class="edge"><title>AS6461&#45;&gt;AS7018</title>
<path fill="none" stroke="black" d="M437.422,-423.369C443.224,-427.2 448.705,-431.964 452.469,-437.744 513.976,-532.177 403.311,-614.929 488.469,-688.744 518.155,-714.476 542.991,-708.648 576.862,-688.744 615.81,-665.857 635.918,-614.461 645.052,-582.39"/>
<polygon fill="black" stroke="black" points="648.437,-583.282 647.642,-572.717 641.675,-581.471 648.437,-583.282"/>
</g>
<!-- AS1239 -->
<g id="node21" class="node"><title>AS1239</title>
<g id="a_node21"><a xlink:href="/asn/1239" xlink:title="AS1239 ~ Sprint [US]">
<ellipse fill="#ffffff" stroke="black" cx="652.508" cy="-421.744" rx="39.7935" ry="18"/>
<text text-anchor="middle" x="652.508" y="-418.044" font-family="Times,serif" font-size="14.00" fill="#2c94b3">AS1239</text>
</a>
</g>
</g>
<!-- AS6461&#45;&gt;AS1239 -->
<g id="edge21" class="edge"><title>AS6461&#45;&gt;AS1239</title>
<path fill="none" stroke="black" d="M436.059,-423.75C442.053,-427.61 447.962,-432.291 452.469,-437.744 480.708,-471.907 451.907,-505.692 488.469,-530.744 520.877,-552.95 543.821,-551.997 576.862,-530.744 609.313,-509.871 588.927,-482.009 612.862,-451.744 615.34,-448.611 618.211,-445.617 621.249,-442.816"/>
<polygon fill="black" stroke="black" points="623.613,-445.4 629.01,-436.283 619.105,-440.045 623.613,-445.4"/>
</g>
<!-- AS6461&#45;&gt;AS3257 -->
<g id="edge22" class="edge"><title>AS6461&#45;&gt;AS3257</title>
<path fill="none" stroke="black" d="M446.66,-405.857C458.413,-404.321 471.555,-402.603 483.924,-400.986"/>
<polygon fill="black" stroke="black" points="484.624,-404.424 494.086,-399.657 483.717,-397.483 484.624,-404.424"/>
</g>
<!-- AS6453 -->
<g id="node23" class="node"><title>AS6453</title>
<g id="a_node23"><a xlink:href="/asn/6453" xlink:title="AS6453 ~ TATA COMMUNICATIONS (AMERICA) INC [US]">
<ellipse fill="#ffffff" stroke="black" cx="652.508" cy="-134.744" rx="39.7935" ry="18"/>
<text text-anchor="middle" x="652.508" y="-131.044" font-family="Times,serif" font-size="14.00" fill="#2c94b3">AS6453</text>
</a>
</g>
</g>
<!-- AS6461&#45;&gt;AS6453 -->
<g id="edge23" class="edge"><title>AS6461&#45;&gt;AS6453</title>
<path fill="none" stroke="black" d="M437.349,-398.072C443.153,-394.243 448.654,-389.491 452.469,-383.744 508,-300.106 417.412,-231.666 488.469,-160.744 518.29,-130.981 567.617,-126.825 604.218,-128.683"/>
<polygon fill="black" stroke="black" points="604.441,-132.206 614.654,-129.389 604.914,-125.222 604.441,-132.206"/>
</g>
<!-- AS1299&#45;&gt;AS3356 -->
<g id="edge50" class="edge"><title>AS1299&#45;&gt;AS3356</title>
<path fill="none" stroke="black" d="M437.542,-344.197C443.338,-340.362 448.787,-335.577 452.469,-329.744 489.965,-270.356 436.054,-62.4941 488.469,-15.7445 517.788,10.4046 540.07,-1.97089 576.862,-15.7445 598.316,-23.7763 617.668,-41.0698 631.29,-55.8008"/>
<polygon fill="black" stroke="black" points="628.992,-58.4849 638.245,-63.646 634.23,-53.8413 628.992,-58.4849"/>
</g>
<!-- AS1299&#45;&gt;AS174 -->
<g id="edge51" class="edge"><title>AS1299&#45;&gt;AS174</title>
<path fill="none" stroke="black" d="M433.782,-370.562C440.091,-374.518 446.719,-379.041 452.469,-383.744 470.478,-398.473 468.938,-409.105 488.469,-421.744 526.045,-446.062 575.23,-461.4 609.712,-469.963"/>
<polygon fill="black" stroke="black" points="608.928,-473.374 619.469,-472.303 610.561,-466.567 608.928,-473.374"/>
</g>
<!-- AS1299&#45;&gt;AS6762 -->
<g id="edge48" class="edge"><title>AS1299&#45;&gt;AS6762</title>
<path fill="none" stroke="black" d="M434.802,-343.282C440.965,-339.382 447.267,-334.797 452.469,-329.744 473.163,-309.65 463.734,-290.582 488.469,-275.744 523.172,-254.928 569.662,-252.309 604.118,-254.089"/>
<polygon fill="black" stroke="black" points="604.19,-257.601 614.398,-254.767 604.651,-250.616 604.19,-257.601"/>
</g>
<!-- AS1299&#45;&gt;AS7018 -->
<g id="edge49" class="edge"><title>AS1299&#45;&gt;AS7018</title>
<path fill="none" stroke="black" d="M435.681,-370.079C441.686,-373.928 447.695,-378.523 452.469,-383.744 476.344,-409.855 464.484,-428.736 488.469,-454.744 523.909,-493.174 577.419,-522.156 613.371,-538.777"/>
<polygon fill="black" stroke="black" points="612.01,-542.003 622.563,-542.935 614.894,-535.625 612.01,-542.003"/>
</g>
<!-- AS1299&#45;&gt;AS3257 -->
<g id="edge47" class="edge"><title>AS1299&#45;&gt;AS3257</title>
<path fill="none" stroke="black" d="M441.43,-366.729C456.211,-371.318 473.933,-376.82 489.744,-381.729"/>
<polygon fill="black" stroke="black" points="488.71,-385.073 499.298,-384.695 490.786,-378.387 488.71,-385.073"/>
</g>
<!-- AS6830&#45;&gt;AS3356 -->
<g id="edge25" class="edge"><title>AS6830&#45;&gt;AS3356</title>
<path fill="none" stroke="black" stroke-width="3" d="M544.589,-193.41C558.701,-171.828 584.808,-134.545 612.862,-107.744 615.025,-105.677 617.359,-103.65 619.771,-101.693"/>
<polygon fill="black" stroke="black" stroke-width="3" points="622.277,-104.185 628.134,-95.3562 618.05,-98.6061 622.277,-104.185"/>
</g>
<!-- AS6830&#45;&gt;AS2497 -->
<g id="edge24" class="edge"><title>AS6830&#45;&gt;AS2497</title>
<path fill="none" stroke="black" d="M549.366,-227.231C564.876,-243.169 589.589,-267.642 612.862,-286.744 615.392,-288.822 618.075,-290.909 620.802,-292.952"/>
<polygon fill="black" stroke="black" points="618.851,-295.861 629.002,-298.897 622.96,-290.194 618.851,-295.861"/>
</g>
<!-- AS6830&#45;&gt;AS3491 -->
<g id="edge27" class="edge"><title>AS6830&#45;&gt;AS3491</title>
<path fill="none" stroke="black" stroke-width="2" d="M545.602,-227.88C554.499,-240.846 566.798,-259.188 576.862,-275.744 594.015,-303.964 590.756,-316.211 612.862,-340.744 614.865,-342.968 617.084,-345.107 619.417,-347.14"/>
<polygon fill="black" stroke="black" stroke-width="2" points="617.615,-350.176 627.637,-353.616 621.947,-344.678 617.615,-350.176"/>
</g>
<!-- AS6830&#45;&gt;AS6762 -->
<g id="edge28" class="edge"><title>AS6830&#45;&gt;AS6762</title>
<path fill="none" stroke="black" stroke-width="2" d="M562.493,-222.731C577.758,-229.079 596.707,-236.958 613.194,-243.813"/>
<polygon fill="black" stroke="black" stroke-width="2" points="611.992,-247.104 622.57,-247.712 614.68,-240.64 611.992,-247.104"/>
</g>
<!-- AS6830&#45;&gt;AS6453 -->
<g id="edge26" class="edge"><title>AS6830&#45;&gt;AS6453</title>
<path fill="none" stroke="black" d="M556.387,-196.091C574.564,-184.368 600.246,-167.805 620.344,-154.843"/>
<polygon fill="black" stroke="black" points="622.35,-157.714 628.857,-149.353 618.556,-151.832 622.35,-157.714"/>
</g>
<!-- AS3356&#45;&gt;AS209 -->
<g id="edge30" class="edge"><title>AS3356&#45;&gt;AS209</title>
<path fill="none" stroke="black" stroke-width="3" d="M678.837,-94.345C683.892,-98.0892 688.701,-102.571 692.155,-107.744 758.777,-207.56 766.957,-357.101 767.275,-419.165"/>
<polygon fill="black" stroke="black" stroke-width="3" points="763.775,-419.363 767.258,-429.368 770.775,-419.374 763.775,-419.363"/>
</g>
<!-- AS3549 -->
<g id="node24" class="node"><title>AS3549</title>
<g id="a_node24"><a xlink:href="/asn/3549" xlink:title="AS3549 ~ Level 3 Parent, LLC [US]">
<ellipse fill="#ffffff" stroke="black" cx="767.801" cy="-80.7445" rx="39.7935" ry="18"/>
<text text-anchor="middle" x="767.801" y="-77.0445" font-family="Times,serif" font-size="14.00" fill="#2c94b3">AS3549</text>
</a>
</g>
</g>
<!-- AS3356&#45;&gt;AS3549 -->
<g id="edge29" class="edge"><title>AS3356&#45;&gt;AS3549</title>
<path fill="none" stroke="black" stroke-width="4" d="M692.18,-80.7445C700.383,-80.7445 709.147,-80.7445 717.679,-80.7445"/>
<polygon fill="black" stroke="black" stroke-width="4" points="717.919,-84.2446 727.919,-80.7445 717.919,-77.2446 717.919,-84.2446"/>
</g>
<!-- AS3320&#45;&gt;AS3356 -->
<g id="edge53" class="edge"><title>AS3320&#45;&gt;AS3356</title>
<path fill="none" stroke="black" d="M565.555,-53.0278C579.18,-57.4211 595.265,-62.6082 609.815,-67.2999"/>
<polygon fill="black" stroke="black" points="609.001,-70.7149 619.593,-70.4529 611.149,-64.0527 609.001,-70.7149"/>
</g>
<!-- AS3320&#45;&gt;AS701 -->
<g id="edge54" class="edge"><title>AS3320&#45;&gt;AS701</title>
<path fill="none" stroke="black" d="M542.641,-60.3574C555.756,-84.9647 581.981,-130.158 612.862,-161.744 615.34,-164.279 618.086,-166.729 620.938,-169.051"/>
<polygon fill="black" stroke="black" points="619.029,-171.995 629.123,-175.215 623.24,-166.403 619.029,-171.995"/>
</g>
<!-- AS3320&#45;&gt;AS6453 -->
<g id="edge52" class="edge"><title>AS3320&#45;&gt;AS6453</title>
<path fill="none" stroke="black" d="M552.218,-58.659C568.063,-72.0825 591.598,-91.6286 612.862,-107.744 615.62,-109.835 618.521,-111.971 621.443,-114.081"/>
<polygon fill="black" stroke="black" points="619.451,-116.96 629.63,-119.899 623.505,-111.253 619.451,-116.96"/>
</g>
<!-- AS2914&#45;&gt;AS3356 -->
<g id="edge36" class="edge"><title>AS2914&#45;&gt;AS3356</title>
<path fill="none" stroke="black" stroke-width="4" d="M547.181,-285.699C556.628,-273.076 568.926,-255.123 576.862,-237.744 601.764,-183.209 578.244,-156.692 612.862,-107.744 614.545,-105.364 616.509,-103.123 618.642,-101.029"/>
<polygon fill="black" stroke="black" stroke-width="4" points="621.005,-103.614 626.385,-94.4861 616.487,-98.267 621.005,-103.614"/>
</g>
<!-- AS2914&#45;&gt;AS701 -->
<g id="edge37" class="edge"><title>AS2914&#45;&gt;AS701</title>
<path fill="none" stroke="black" d="M550.549,-286.411C570.791,-266.83 604.842,-233.889 627.735,-211.742"/>
<polygon fill="black" stroke="black" points="630.282,-214.149 635.035,-204.68 625.415,-209.117 630.282,-214.149"/>
</g>
<!-- AS2914&#45;&gt;AS174 -->
<g id="edge35" class="edge"><title>AS2914&#45;&gt;AS174</title>
<path fill="none" stroke="black" stroke-width="2" d="M546.223,-319.902C555.32,-332.727 567.597,-350.882 576.862,-367.744 595.831,-402.272 588.569,-417.73 612.862,-448.744 615.513,-452.13 618.627,-455.349 621.917,-458.336"/>
<polygon fill="black" stroke="black" stroke-width="2" points="619.846,-461.165 629.779,-464.852 624.313,-455.776 619.846,-461.165"/>
</g>
<!-- AS2914&#45;&gt;AS2497 -->
<g id="edge39" class="edge"><title>AS2914&#45;&gt;AS2497</title>
<path fill="none" stroke="black" stroke-width="2" d="M571.6,-306.285C581.592,-307.218 592.51,-308.237 602.976,-309.214"/>
<polygon fill="black" stroke="black" stroke-width="2" points="602.958,-312.728 613.24,-310.172 603.609,-305.758 602.958,-312.728"/>
</g>
<!-- AS2914&#45;&gt;AS6762 -->
<g id="edge34" class="edge"><title>AS2914&#45;&gt;AS6762</title>
<path fill="none" stroke="black" stroke-width="2" d="M564.013,-291.671C578.334,-286.445 595.626,-280.135 611.044,-274.51"/>
<polygon fill="black" stroke="black" stroke-width="2" points="612.66,-277.646 620.854,-270.93 610.26,-271.07 612.66,-277.646"/>
</g>
<!-- AS2914&#45;&gt;AS1239 -->
<g id="edge38" class="edge"><title>AS2914&#45;&gt;AS1239</title>
<path fill="none" stroke="black" d="M546.258,-319.814C561.005,-339.184 586.751,-371.145 612.862,-394.744 615.29,-396.94 617.904,-399.108 620.585,-401.205"/>
<polygon fill="black" stroke="black" points="618.596,-404.087 628.713,-407.232 622.765,-398.464 618.596,-404.087"/>
</g>
<!-- AS3257&#45;&gt;AS2497 -->
<g id="edge40" class="edge"><title>AS3257&#45;&gt;AS2497</title>
<path fill="none" stroke="black" d="M555.28,-379.888C573.768,-367.18 600.582,-348.749 621.212,-334.569"/>
<polygon fill="black" stroke="black" points="623.373,-337.33 629.632,-328.781 619.408,-331.561 623.373,-337.33"/>
</g>
<!-- AS3257&#45;&gt;AS6762 -->
<g id="edge41" class="edge"><title>AS3257&#45;&gt;AS6762</title>
<path fill="none" stroke="black" d="M557.424,-380.341C564.299,-375.377 571.411,-369.379 576.862,-362.744 600.589,-333.866 588.736,-315.29 612.862,-286.744 614.744,-284.518 616.85,-282.387 619.083,-280.371"/>
<polygon fill="black" stroke="black" points="621.428,-282.976 627.013,-273.972 617.032,-277.528 621.428,-282.976"/>
</g>
<!-- AS3257&#45;&gt;AS7018 -->
<g id="edge42" class="edge"><title>AS3257&#45;&gt;AS7018</title>
<path fill="none" stroke="black" d="M545.49,-411.853C560.755,-433.812 588.28,-472.988 612.862,-505.744 618.783,-513.636 625.382,-522.113 631.427,-529.761"/>
<polygon fill="black" stroke="black" points="628.749,-532.016 637.711,-537.667 634.229,-527.661 628.749,-532.016"/>
</g>
<!-- AS3257&#45;&gt;AS1239 -->
<g id="edge43" class="edge"><title>AS3257&#45;&gt;AS1239</title>
<path fill="none" stroke="black" d="M568.385,-402.699C580.385,-405.449 594.006,-408.57 606.698,-411.478"/>
<polygon fill="black" stroke="black" points="606.101,-414.931 616.63,-413.753 607.664,-408.108 606.101,-414.931"/>
</g>
</g>
</svg>
