<?xml version="1.0" encoding="UTF-8" standalone="no"?>
<!DOCTYPE svg PUBLIC "-//W3C//DTD SVG 1.1//EN"
 "http://www.w3.org/Graphics/SVG/1.1/DTD/svg11.dtd">
<!-- Generated by graphviz version 2.38.0 (20140413.2041)
 -->
<!-- Title: AS60521 IPv4 Upstream Graph Pages: 1 -->
<svg width="451pt" height="638pt"
 viewBox="0.00 0.00 451.37 638.00" xmlns="http://www.w3.org/2000/svg" xmlns:xlink="http://www.w3.org/1999/xlink">
<g id="graph0" class="graph" transform="scale(1 1) rotate(0) translate(4 634)">
<title>AS60521 IPv4 Upstream Graph</title>
<polygon fill="white" stroke="none" points="-4,4 -4,-634 447.37,-634 447.37,4 -4,4"/>
<!-- AS60521 -->
<g id="node1" class="node"><title>AS60521</title>
<g id="a_node1"><a xlink:href="/asn/60521" xlink:title="AS60521 ~ Superfund Asset Management GmbH [AT]">
<ellipse fill="#ffffff" stroke="black" cx="44.1961" cy="-222" rx="44.393" ry="18"/>
<text text-anchor="middle" x="44.1961" y="-218.3" font-family="Times,serif" font-size="14.00" fill="#880000">AS60521</text>
</a>
</g>
</g>
<!-- AS8220 -->
<g id="node2" class="node"><title>AS8220</title>
<g id="a_node2"><a xlink:href="/asn/8220" xlink:title="AS8220 ~ COLT [GB]">
<ellipse fill="#ffffff" stroke="black" cx="164.039" cy="-222" rx="39.7935" ry="18"/>
<text text-anchor="middle" x="164.039" y="-218.3" font-family="Times,serif" font-size="14.00" fill="#2c94b3">AS8220</text>
</a>
</g>
</g>
<!-- AS60521&#45;&gt;AS8220 -->
<g id="edge1" class="edge"><title>AS60521&#45;&gt;AS8220</title>
<path fill="none" stroke="black" stroke-width="4.5" d="M88.4072,-222C96.7198,-222 105.482,-222 113.965,-222"/>
<polygon fill="black" stroke="black" stroke-width="4.5" points="114.123,-225.938 124.123,-222 114.123,-218.063 114.123,-225.938"/>
</g>
<!-- AS1299 -->
<g id="node3" class="node"><title>AS1299</title>
<g id="a_node3"><a xlink:href="/asn/1299" xlink:title="AS1299 ~ Telia Carrier [EU]">
<ellipse fill="#ffffff" stroke="black" cx="279.332" cy="-249" rx="39.7935" ry="18"/>
<text text-anchor="middle" x="279.332" y="-245.3" font-family="Times,serif" font-size="14.00" fill="#2c94b3">AS1299</text>
</a>
</g>
</g>
<!-- AS8220&#45;&gt;AS1299 -->
<g id="edge2" class="edge"><title>AS8220&#45;&gt;AS1299</title>
<path fill="none" stroke="black" stroke-width="4.5" d="M199.646,-230.248C210.517,-232.838 222.671,-235.735 234.114,-238.462"/>
<polygon fill="black" stroke="black" stroke-width="4.5" points="233.296,-242.315 243.936,-240.803 235.122,-234.654 233.296,-242.315"/>
</g>
<!-- AS6453 -->
<g id="node4" class="node"><title>AS6453</title>
<g id="a_node4"><a xlink:href="/asn/6453" xlink:title="AS6453 ~ TATA COMMUNICATIONS (AMERICA) INC [US]">
<ellipse fill="#ffffff" stroke="black" cx="279.332" cy="-195" rx="39.7935" ry="18"/>
<text text-anchor="middle" x="279.332" y="-191.3" font-family="Times,serif" font-size="14.00" fill="#2c94b3">AS6453</text>
</a>
</g>
</g>
<!-- AS8220&#45;&gt;AS6453 -->
<g id="edge3" class="edge"><title>AS8220&#45;&gt;AS6453</title>
<path fill="none" stroke="black" stroke-width="0.5" d="M199.646,-213.752C210.517,-211.162 222.671,-208.265 234.114,-205.538"/>
<polygon fill="black" stroke="black" stroke-width="0.5" points="235.02,-208.92 243.936,-203.197 233.397,-202.111 235.02,-208.92"/>
</g>
<!-- AS3356 -->
<g id="node5" class="node"><title>AS3356</title>
<g id="a_node5"><a xlink:href="/asn/3356" xlink:title="AS3356 ~ Level 3 Parent, LLC [US]">
<ellipse fill="#ffffff" stroke="black" cx="279.332" cy="-450" rx="39.7935" ry="18"/>
<text text-anchor="middle" x="279.332" y="-446.3" font-family="Times,serif" font-size="14.00" fill="#2c94b3">AS3356</text>
</a>
</g>
</g>
<!-- AS8220&#45;&gt;AS3356 -->
<g id="edge4" class="edge"><title>AS8220&#45;&gt;AS3356</title>
<path fill="none" stroke="black" stroke-width="3.5" d="M173.74,-239.512C193.47,-279.217 241.7,-376.28 265.129,-423.429"/>
<polygon fill="black" stroke="black" stroke-width="3.5" points="262.016,-425.03 269.6,-432.428 268.285,-421.915 262.016,-425.03"/>
</g>
<!-- AS5511 -->
<g id="node6" class="node"><title>AS5511</title>
<g id="a_node6"><a xlink:href="/asn/5511" xlink:title="AS5511 ~ Orange S.A. [FR]">
<ellipse fill="#ffffff" stroke="black" cx="279.332" cy="-141" rx="39.7935" ry="18"/>
<text text-anchor="middle" x="279.332" y="-137.3" font-family="Times,serif" font-size="14.00" fill="#2c94b3">AS5511</text>
</a>
</g>
</g>
<!-- AS8220&#45;&gt;AS5511 -->
<g id="edge5" class="edge"><title>AS8220&#45;&gt;AS5511</title>
<path fill="none" stroke="black" stroke-width="0.5" d="M185.887,-206.778C200.821,-195.909 221.435,-180.975 239.685,-168 242.506,-165.995 245.449,-163.915 248.397,-161.841"/>
<polygon fill="black" stroke="black" stroke-width="0.5" points="250.443,-164.681 256.621,-156.074 246.424,-158.95 250.443,-164.681"/>
</g>
<!-- AS2914 -->
<g id="node7" class="node"><title>AS2914</title>
<g id="a_node7"><a xlink:href="/asn/2914" xlink:title="AS2914 ~ NTT America, Inc. [US]">
<ellipse fill="#ffffff" stroke="black" cx="399.174" cy="-342" rx="39.7935" ry="18"/>
<text text-anchor="middle" x="399.174" y="-338.3" font-family="Times,serif" font-size="14.00" fill="#2c94b3">AS2914</text>
</a>
</g>
</g>
<!-- AS8220&#45;&gt;AS2914 -->
<g id="edge6" class="edge"><title>AS8220&#45;&gt;AS2914</title>
<path fill="none" stroke="black" stroke-width="0.5" d="M184.166,-237.744C198.775,-249.286 219.728,-264.825 239.685,-276 277.866,-297.378 324.38,-315.943 357.111,-327.89"/>
<polygon fill="black" stroke="black" stroke-width="0.5" points="356.208,-331.285 366.802,-331.381 358.58,-324.699 356.208,-331.285"/>
</g>
<!-- AS6461 -->
<g id="node8" class="node"><title>AS6461</title>
<g id="a_node8"><a xlink:href="/asn/6461" xlink:title="AS6461 ~ Zayo Bandwidth [US]">
<ellipse fill="#ffffff" stroke="black" cx="279.332" cy="-87" rx="39.7935" ry="18"/>
<text text-anchor="middle" x="279.332" y="-83.3" font-family="Times,serif" font-size="14.00" fill="#2c94b3">AS6461</text>
</a>
</g>
</g>
<!-- AS8220&#45;&gt;AS6461 -->
<g id="edge7" class="edge"><title>AS8220&#45;&gt;AS6461</title>
<path fill="none" stroke="black" stroke-width="0.5" d="M174.498,-204.51C187.28,-181.904 211.712,-142.114 239.685,-114 241.796,-111.879 244.092,-109.812 246.477,-107.829"/>
<polygon fill="black" stroke="black" stroke-width="0.5" points="248.993,-110.31 254.793,-101.444 244.73,-104.758 248.993,-110.31"/>
</g>
<!-- AS1299&#45;&gt;AS2914 -->
<g id="edge13" class="edge"><title>AS1299&#45;&gt;AS2914</title>
<path fill="none" stroke="black" d="M297.14,-265.315C311.838,-279.219 334.047,-299.373 354.978,-315 358.326,-317.5 361.91,-319.997 365.529,-322.407"/>
<polygon fill="black" stroke="black" points="363.639,-325.353 373.94,-327.832 367.433,-319.47 363.639,-325.353"/>
</g>
<!-- AS2497 -->
<g id="node9" class="node"><title>AS2497</title>
<g id="a_node9"><a xlink:href="/asn/2497" xlink:title="AS2497 ~ Internet Initiative Japan Inc. [JP]">
<ellipse fill="#ffffff" stroke="black" cx="399.174" cy="-288" rx="39.7935" ry="18"/>
<text text-anchor="middle" x="399.174" y="-284.3" font-family="Times,serif" font-size="14.00" fill="#2c94b3">AS2497</text>
</a>
</g>
</g>
<!-- AS1299&#45;&gt;AS2497 -->
<g id="edge8" class="edge"><title>AS1299&#45;&gt;AS2497</title>
<path fill="none" stroke="black" d="M311.911,-259.451C325.649,-263.998 341.934,-269.387 356.634,-274.252"/>
<polygon fill="black" stroke="black" points="355.914,-277.701 366.507,-277.52 358.113,-271.055 355.914,-277.701"/>
</g>
<!-- AS174 -->
<g id="node10" class="node"><title>AS174</title>
<g id="a_node10"><a xlink:href="/asn/174" xlink:title="AS174 ~ Cogent Communications [US]">
<ellipse fill="#ffffff" stroke="black" cx="399.174" cy="-234" rx="35.194" ry="18"/>
<text text-anchor="middle" x="399.174" y="-230.3" font-family="Times,serif" font-size="14.00" fill="#2c94b3">AS174</text>
</a>
</g>
</g>
<!-- AS1299&#45;&gt;AS174 -->
<g id="edge9" class="edge"><title>AS1299&#45;&gt;AS174</title>
<path fill="none" stroke="black" d="M317.618,-244.254C329.418,-242.752 342.563,-241.079 354.754,-239.527"/>
<polygon fill="black" stroke="black" points="355.242,-242.993 364.72,-238.258 354.358,-236.049 355.242,-242.993"/>
</g>
<!-- AS7018 -->
<g id="node11" class="node"><title>AS7018</title>
<g id="a_node11"><a xlink:href="/asn/7018" xlink:title="AS7018 ~ AT&amp;T Services, Inc. [US]">
<ellipse fill="#ffffff" stroke="black" cx="399.174" cy="-180" rx="39.7935" ry="18"/>
<text text-anchor="middle" x="399.174" y="-176.3" font-family="Times,serif" font-size="14.00" fill="#2c94b3">AS7018</text>
</a>
</g>
</g>
<!-- AS1299&#45;&gt;AS7018 -->
<g id="edge10" class="edge"><title>AS1299&#45;&gt;AS7018</title>
<path fill="none" stroke="black" d="M304.463,-234.87C322.019,-224.591 345.993,-210.553 365.298,-199.25"/>
<polygon fill="black" stroke="black" points="367.214,-202.184 374.075,-194.111 363.677,-196.143 367.214,-202.184"/>
</g>
<!-- AS1239 -->
<g id="node12" class="node"><title>AS1239</title>
<g id="a_node12"><a xlink:href="/asn/1239" xlink:title="AS1239 ~ Sprint [US]">
<ellipse fill="#ffffff" stroke="black" cx="399.174" cy="-126" rx="39.7935" ry="18"/>
<text text-anchor="middle" x="399.174" y="-122.3" font-family="Times,serif" font-size="14.00" fill="#2c94b3">AS1239</text>
</a>
</g>
</g>
<!-- AS1299&#45;&gt;AS1239 -->
<g id="edge11" class="edge"><title>AS1299&#45;&gt;AS1239</title>
<path fill="none" stroke="black" d="M304.289,-234.948C309.53,-231.175 314.764,-226.796 318.978,-222 341.81,-196.017 331.489,-178.391 354.978,-153 357.531,-150.241 360.426,-147.654 363.48,-145.258"/>
<polygon fill="black" stroke="black" points="365.661,-148.002 371.809,-139.374 361.622,-142.285 365.661,-148.002"/>
</g>
<!-- AS209 -->
<g id="node13" class="node"><title>AS209</title>
<g id="a_node13"><a xlink:href="/asn/209" xlink:title="AS209 ~ CenturyLink Communications, LLC [US]">
<ellipse fill="#ffffff" stroke="black" cx="399.174" cy="-72" rx="35.194" ry="18"/>
<text text-anchor="middle" x="399.174" y="-68.3" font-family="Times,serif" font-size="14.00" fill="#2c94b3">AS209</text>
</a>
</g>
</g>
<!-- AS1299&#45;&gt;AS209 -->
<g id="edge12" class="edge"><title>AS1299&#45;&gt;AS209</title>
<path fill="none" stroke="black" d="M305.4,-235.219C310.469,-231.484 315.349,-227.052 318.978,-222 352.206,-175.736 320.577,-144.399 354.978,-99 357.562,-95.5902 360.712,-92.5049 364.121,-89.7433"/>
<polygon fill="black" stroke="black" points="366.26,-92.5178 372.404,-83.8866 362.218,-86.8022 366.26,-92.5178"/>
</g>
<!-- AS3257 -->
<g id="node14" class="node"><title>AS3257</title>
<g id="a_node14"><a xlink:href="/asn/3257" xlink:title="AS3257 ~ GTT [DE]">
<ellipse fill="#ffffff" stroke="black" cx="399.174" cy="-396" rx="39.7935" ry="18"/>
<text text-anchor="middle" x="399.174" y="-392.3" font-family="Times,serif" font-size="14.00" fill="#2c94b3">AS3257</text>
</a>
</g>
</g>
<!-- AS1299&#45;&gt;AS3257 -->
<g id="edge14" class="edge"><title>AS1299&#45;&gt;AS3257</title>
<path fill="none" stroke="black" d="M288.109,-266.601C299.822,-291.63 323.957,-337.912 354.978,-369 357.779,-371.807 360.925,-374.46 364.208,-376.925"/>
<polygon fill="black" stroke="black" points="362.311,-379.868 372.534,-382.65 366.277,-374.1 362.311,-379.868"/>
</g>
<!-- AS3491 -->
<g id="node15" class="node"><title>AS3491</title>
<g id="a_node15"><a xlink:href="/asn/3491" xlink:title="AS3491 ~ PCCW Global, Inc. [US]">
<ellipse fill="#ffffff" stroke="black" cx="399.174" cy="-18" rx="39.7935" ry="18"/>
<text text-anchor="middle" x="399.174" y="-14.3" font-family="Times,serif" font-size="14.00" fill="#2c94b3">AS3491</text>
</a>
</g>
</g>
<!-- AS1299&#45;&gt;AS3491 -->
<g id="edge15" class="edge"><title>AS1299&#45;&gt;AS3491</title>
<path fill="none" stroke="black" d="M305.72,-235.439C310.772,-231.693 315.565,-227.2 318.978,-222 363.027,-154.887 309.227,-110.964 354.978,-45 356.944,-42.1659 359.313,-39.5687 361.917,-37.2019"/>
<polygon fill="black" stroke="black" points="364.469,-39.6549 370.267,-30.7868 360.205,-34.1041 364.469,-39.6549"/>
</g>
<!-- AS3356&#45;&gt;AS2914 -->
<g id="edge16" class="edge"><title>AS3356&#45;&gt;AS2914</title>
<path fill="none" stroke="black" d="M293.751,-432.935C307.865,-415.625 331.28,-388.655 354.978,-369 358.194,-366.332 361.695,-363.73 365.265,-361.259"/>
<polygon fill="black" stroke="black" points="367.189,-364.183 373.622,-355.764 363.343,-358.334 367.189,-364.183"/>
</g>
<!-- AS3356&#45;&gt;AS3257 -->
<g id="edge19" class="edge"><title>AS3356&#45;&gt;AS3257</title>
<path fill="none" stroke="black" d="M307.96,-437.339C323.917,-430.027 344.188,-420.739 361.471,-412.819"/>
<polygon fill="black" stroke="black" points="363.085,-415.929 370.718,-408.581 360.169,-409.565 363.085,-415.929"/>
</g>
<!-- AS12956 -->
<g id="node16" class="node"><title>AS12956</title>
<g id="a_node16"><a xlink:href="/asn/12956" xlink:title="AS12956 ~ TELXIUS [ES]">
<ellipse fill="#ffffff" stroke="black" cx="399.174" cy="-504" rx="44.393" ry="18"/>
<text text-anchor="middle" x="399.174" y="-500.3" font-family="Times,serif" font-size="14.00" fill="#2c94b3">AS12956</text>
</a>
</g>
</g>
<!-- AS3356&#45;&gt;AS12956 -->
<g id="edge17" class="edge"><title>AS3356&#45;&gt;AS12956</title>
<path fill="none" stroke="black" d="M307.96,-462.661C323.458,-469.762 343.025,-478.728 359.971,-486.494"/>
<polygon fill="black" stroke="black" points="358.525,-489.681 369.074,-490.665 361.441,-483.317 358.525,-489.681"/>
</g>
<!-- AS701 -->
<g id="node17" class="node"><title>AS701</title>
<g id="a_node17"><a xlink:href="/asn/701" xlink:title="AS701 ~ UUNET [US]">
<ellipse fill="#ffffff" stroke="black" cx="399.174" cy="-450" rx="35.194" ry="18"/>
<text text-anchor="middle" x="399.174" y="-446.3" font-family="Times,serif" font-size="14.00" fill="#2c94b3">AS701</text>
</a>
</g>
</g>
<!-- AS3356&#45;&gt;AS701 -->
<g id="edge18" class="edge"><title>AS3356&#45;&gt;AS701</title>
<path fill="none" stroke="black" d="M319.244,-450C330.331,-450 342.491,-450 353.873,-450"/>
<polygon fill="black" stroke="black" points="354.055,-453.5 364.055,-450 354.055,-446.5 354.055,-453.5"/>
</g>
<!-- AS6762 -->
<g id="node18" class="node"><title>AS6762</title>
<g id="a_node18"><a xlink:href="/asn/6762" xlink:title="AS6762 ~ TELECOM ITALIA SPARKLE S.p.A. [IT]">
<ellipse fill="#ffffff" stroke="black" cx="399.174" cy="-612" rx="39.7935" ry="18"/>
<text text-anchor="middle" x="399.174" y="-608.3" font-family="Times,serif" font-size="14.00" fill="#2c94b3">AS6762</text>
</a>
</g>
</g>
<!-- AS3356&#45;&gt;AS6762 -->
<g id="edge20" class="edge"><title>AS3356&#45;&gt;AS6762</title>
<path fill="none" stroke="black" d="M286.855,-467.994C297.605,-495.728 321.262,-549.429 354.978,-585 357.564,-587.728 360.481,-590.294 363.55,-592.677"/>
<polygon fill="black" stroke="black" points="361.704,-595.658 371.898,-598.543 365.728,-589.93 361.704,-595.658"/>
</g>
<!-- AS3549 -->
<g id="node19" class="node"><title>AS3549</title>
<g id="a_node19"><a xlink:href="/asn/3549" xlink:title="AS3549 ~ Level 3 Parent, LLC [US]">
<ellipse fill="#ffffff" stroke="black" cx="399.174" cy="-558" rx="39.7935" ry="18"/>
<text text-anchor="middle" x="399.174" y="-554.3" font-family="Times,serif" font-size="14.00" fill="#2c94b3">AS3549</text>
</a>
</g>
</g>
<!-- AS3356&#45;&gt;AS3549 -->
<g id="edge21" class="edge"><title>AS3356&#45;&gt;AS3549</title>
<path fill="none" stroke="black" d="M293.751,-467.065C307.865,-484.375 331.28,-511.345 354.978,-531 358.194,-533.668 361.695,-536.27 365.265,-538.741"/>
<polygon fill="black" stroke="black" points="363.343,-541.666 373.622,-544.236 367.189,-535.817 363.343,-541.666"/>
</g>
</g>
</svg>
