<?xml version="1.0" encoding="UTF-8" standalone="no"?>
<!DOCTYPE svg PUBLIC "-//W3C//DTD SVG 1.1//EN"
 "http://www.w3.org/Graphics/SVG/1.1/DTD/svg11.dtd">
<!-- Generated by graphviz version 2.38.0 (20140413.2041)
 -->
<!-- Title: AS202856 Combined Upstream Graph Pages: 1 -->
<svg width="699pt" height="638pt"
 viewBox="0.00 0.00 698.85 638.00" xmlns="http://www.w3.org/2000/svg" xmlns:xlink="http://www.w3.org/1999/xlink">
<g id="graph0" class="graph" transform="scale(1 1) rotate(0) translate(4 634)">
<title>AS202856 Combined Upstream Graph</title>
<polygon fill="white" stroke="none" points="-4,4 -4,-634 694.855,-634 694.855,4 -4,4"/>
<!-- AS202856 -->
<g id="node1" class="node"><title>AS202856</title>
<g id="a_node1"><a xlink:href="/asn/202856" xlink:title="AS202856 ~ BENE GmbH [AT]">
<ellipse fill="#ffffff" stroke="black" cx="48.0957" cy="-288" rx="48.1917" ry="18"/>
<text text-anchor="middle" x="48.0957" y="-284.3" font-family="Times,serif" font-size="14.00" fill="#880000">AS202856</text>
</a>
</g>
</g>
<!-- AS8437 -->
<g id="node2" class="node"><title>AS8437</title>
<g id="a_node2"><a xlink:href="/asn/8437" xlink:title="AS8437 ~ Hutchison Drei Austria GmbH [AT]">
<ellipse fill="#ffffff" stroke="black" cx="171.838" cy="-311" rx="39.7935" ry="18"/>
<text text-anchor="middle" x="171.838" y="-307.3" font-family="Times,serif" font-size="14.00" fill="#2c94b3">AS8437</text>
</a>
</g>
</g>
<!-- AS202856&#45;&gt;AS8437 -->
<g id="edge1" class="edge"><title>AS202856&#45;&gt;AS8437</title>
<path fill="none" stroke="black" stroke-width="3.825" d="M91.3336,-295.98C102.165,-298.026 113.868,-300.237 124.877,-302.317"/>
<polygon fill="black" stroke="black" stroke-width="3.825" points="124.272,-305.764 134.748,-304.182 125.571,-298.886 124.272,-305.764"/>
</g>
<!-- AS8447 -->
<g id="node3" class="node"><title>AS8447</title>
<g id="a_node3"><a xlink:href="/asn/8447" xlink:title="AS8447 ~ A1 Telekom Austria AG [AT]">
<ellipse fill="#ffffff" stroke="black" cx="411.523" cy="-265" rx="39.7935" ry="18"/>
<text text-anchor="middle" x="411.523" y="-261.3" font-family="Times,serif" font-size="14.00" fill="#2c94b3">AS8447</text>
</a>
</g>
</g>
<!-- AS202856&#45;&gt;AS8447 -->
<g id="edge2" class="edge"><title>AS202856&#45;&gt;AS8447</title>
<path fill="none" stroke="black" stroke-width="4.5" d="M95.6061,-285.04C164.246,-280.672 292.062,-272.538 361.896,-268.094"/>
<polygon fill="black" stroke="black" stroke-width="4.5" points="362.446,-272.005 372.176,-267.44 361.946,-264.146 362.446,-272.005"/>
</g>
<!-- AS25255 -->
<g id="node4" class="node"><title>AS25255</title>
<g id="a_node4"><a xlink:href="/asn/25255" xlink:title="AS25255 ~ ==&gt; TELE2 AUSTRIA &lt;== [AT]">
<ellipse fill="#ffffff" stroke="black" cx="291.681" cy="-311" rx="44.393" ry="18"/>
<text text-anchor="middle" x="291.681" y="-307.3" font-family="Times,serif" font-size="14.00" fill="#2c94b3">AS25255</text>
</a>
</g>
</g>
<!-- AS8437&#45;&gt;AS25255 -->
<g id="edge3" class="edge"><title>AS8437&#45;&gt;AS25255</title>
<path fill="none" stroke="black" stroke-width="4.5" d="M211.751,-311C219.853,-311 228.528,-311 237.055,-311"/>
<polygon fill="black" stroke="black" stroke-width="4.5" points="237.332,-314.938 247.332,-311 237.332,-307.063 237.332,-314.938"/>
</g>
<!-- AS3320 -->
<g id="node6" class="node"><title>AS3320</title>
<g id="a_node6"><a xlink:href="/asn/3320" xlink:title="AS3320 ~ DTAG [DE]">
<ellipse fill="#ffffff" stroke="black" cx="526.816" cy="-288" rx="39.7935" ry="18"/>
<text text-anchor="middle" x="526.816" y="-284.3" font-family="Times,serif" font-size="14.00" fill="#2c94b3">AS3320</text>
</a>
</g>
</g>
<!-- AS8447&#45;&gt;AS3320 -->
<g id="edge22" class="edge"><title>AS8447&#45;&gt;AS3320</title>
<path fill="none" stroke="black" stroke-width="2.5" d="M448.059,-272.214C458.288,-274.291 469.588,-276.585 480.331,-278.766"/>
<polygon fill="black" stroke="black" stroke-width="2.5" points="479.91,-282.252 490.406,-280.811 481.303,-275.392 479.91,-282.252"/>
</g>
<!-- AS6762 -->
<g id="node7" class="node"><title>AS6762</title>
<g id="a_node7"><a xlink:href="/asn/6762" xlink:title="AS6762 ~ TELECOM ITALIA SPARKLE S.p.A. [IT]">
<ellipse fill="#ffffff" stroke="black" cx="526.816" cy="-153" rx="39.7935" ry="18"/>
<text text-anchor="middle" x="526.816" y="-149.3" font-family="Times,serif" font-size="14.00" fill="#2c94b3">AS6762</text>
</a>
</g>
</g>
<!-- AS8447&#45;&gt;AS6762 -->
<g id="edge24" class="edge"><title>AS8447&#45;&gt;AS6762</title>
<path fill="none" stroke="black" stroke-width="0.5" d="M425.475,-247.949C439.575,-229.971 463.314,-201.348 487.17,-180 489.609,-177.817 492.23,-175.657 494.916,-173.566"/>
<polygon fill="black" stroke="black" stroke-width="0.5" points="497.094,-176.308 503.052,-167.546 492.931,-170.68 497.094,-176.308"/>
</g>
<!-- AS1299 -->
<g id="node9" class="node"><title>AS1299</title>
<g id="a_node9"><a xlink:href="/asn/1299" xlink:title="AS1299 ~ Telia Carrier [EU]">
<ellipse fill="#ffffff" stroke="black" cx="526.816" cy="-436" rx="39.7935" ry="18"/>
<text text-anchor="middle" x="526.816" y="-432.3" font-family="Times,serif" font-size="14.00" fill="#2c94b3">AS1299</text>
</a>
</g>
</g>
<!-- AS8447&#45;&gt;AS1299 -->
<g id="edge23" class="edge"><title>AS8447&#45;&gt;AS1299</title>
<path fill="none" stroke="black" stroke-width="3" d="M424.01,-282.337C443.994,-312.502 485.259,-374.785 508.652,-410.094"/>
<polygon fill="black" stroke="black" stroke-width="3" points="506.027,-412.468 514.467,-418.871 511.862,-408.601 506.027,-412.468"/>
</g>
<!-- AS3356 -->
<g id="node19" class="node"><title>AS3356</title>
<g id="a_node19"><a xlink:href="/asn/3356" xlink:title="AS3356 ~ Level 3 Parent, LLC [US]">
<ellipse fill="#ffffff" stroke="black" cx="526.816" cy="-207" rx="39.7935" ry="18"/>
<text text-anchor="middle" x="526.816" y="-203.3" font-family="Times,serif" font-size="14.00" fill="#2c94b3">AS3356</text>
</a>
</g>
</g>
<!-- AS8447&#45;&gt;AS3356 -->
<g id="edge20" class="edge"><title>AS8447&#45;&gt;AS3356</title>
<path fill="none" stroke="black" stroke-width="4.5" d="M438.515,-251.694C454.059,-243.736 474.01,-233.522 490.914,-224.868"/>
<polygon fill="black" stroke="black" stroke-width="4.5" points="492.838,-228.306 499.945,-220.244 489.25,-221.297 492.838,-228.306"/>
</g>
<!-- AS6461 -->
<g id="node20" class="node"><title>AS6461</title>
<g id="a_node20"><a xlink:href="/asn/6461" xlink:title="AS6461 ~ Zayo Bandwidth [US]">
<ellipse fill="#ffffff" stroke="black" cx="646.659" cy="-612" rx="39.7935" ry="18"/>
<text text-anchor="middle" x="646.659" y="-608.3" font-family="Times,serif" font-size="14.00" fill="#2c94b3">AS6461</text>
</a>
</g>
</g>
<!-- AS8447&#45;&gt;AS6461 -->
<g id="edge21" class="edge"><title>AS8447&#45;&gt;AS6461</title>
<path fill="none" stroke="black" stroke-width="0.5" d="M416.749,-283.023C425.758,-319.171 449.188,-402.261 487.17,-463 526.724,-526.255 544.742,-537.734 602.463,-585 605.696,-587.647 609.207,-590.237 612.783,-592.701"/>
<polygon fill="black" stroke="black" stroke-width="0.5" points="610.865,-595.629 621.146,-598.187 614.705,-589.776 610.865,-595.629"/>
</g>
<!-- AS25255&#45;&gt;AS8447 -->
<g id="edge7" class="edge"><title>AS25255&#45;&gt;AS8447</title>
<path fill="none" stroke="black" stroke-width="1.5" d="M324.26,-298.673C338.689,-293.04 355.929,-286.311 371.19,-280.354"/>
<polygon fill="black" stroke="black" stroke-width="1.5" points="372.841,-283.466 380.884,-276.57 370.296,-276.946 372.841,-283.466"/>
</g>
<!-- AS1764 -->
<g id="node5" class="node"><title>AS1764</title>
<g id="a_node5"><a xlink:href="/asn/1764" xlink:title="AS1764 ~ NEXTLAYER&#45;AS [AT]">
<ellipse fill="#ffffff" stroke="black" cx="411.523" cy="-459" rx="39.7935" ry="18"/>
<text text-anchor="middle" x="411.523" y="-455.3" font-family="Times,serif" font-size="14.00" fill="#2c94b3">AS1764</text>
</a>
</g>
</g>
<!-- AS25255&#45;&gt;AS1764 -->
<g id="edge4" class="edge"><title>AS25255&#45;&gt;AS1764</title>
<path fill="none" stroke="black" stroke-width="3.75" d="M306.429,-328.267C327.185,-354.334 366.63,-403.874 390.554,-433.921"/>
<polygon fill="black" stroke="black" stroke-width="3.75" points="387.895,-436.2 396.862,-441.843 393.371,-431.84 387.895,-436.2"/>
</g>
<!-- AS25255&#45;&gt;AS3320 -->
<g id="edge5" class="edge"><title>AS25255&#45;&gt;AS3320</title>
<path fill="none" stroke="black" stroke-width="4.5" d="M334.9,-306.835C375.145,-302.864 435.684,-296.892 477.761,-292.741"/>
<polygon fill="black" stroke="black" stroke-width="4.5" points="478.206,-296.654 487.771,-291.753 477.433,-288.817 478.206,-296.654"/>
</g>
<!-- AS25255&#45;&gt;AS6762 -->
<g id="edge6" class="edge"><title>AS25255&#45;&gt;AS6762</title>
<path fill="none" stroke="black" stroke-width="3" d="M308.661,-294.094C323.981,-278.435 348.213,-255.059 371.877,-238 409.631,-210.783 457.011,-185.838 489.164,-170.111"/>
<polygon fill="black" stroke="black" stroke-width="3" points="490.74,-173.237 498.216,-165.73 487.69,-166.936 490.74,-173.237"/>
</g>
<!-- AS3257 -->
<g id="node8" class="node"><title>AS3257</title>
<g id="a_node8"><a xlink:href="/asn/3257" xlink:title="AS3257 ~ GTT [DE]">
<ellipse fill="#ffffff" stroke="black" cx="646.659" cy="-504" rx="39.7935" ry="18"/>
<text text-anchor="middle" x="646.659" y="-500.3" font-family="Times,serif" font-size="14.00" fill="#2c94b3">AS3257</text>
</a>
</g>
</g>
<!-- AS1764&#45;&gt;AS3257 -->
<g id="edge8" class="edge"><title>AS1764&#45;&gt;AS3257</title>
<path fill="none" stroke="black" d="M448.185,-465.884C488.893,-473.741 555.577,-486.612 600.038,-495.194"/>
<polygon fill="black" stroke="black" points="599.518,-498.659 610.001,-497.117 600.845,-491.785 599.518,-498.659"/>
</g>
<!-- AS1764&#45;&gt;AS1299 -->
<g id="edge9" class="edge"><title>AS1764&#45;&gt;AS1299</title>
<path fill="none" stroke="black" d="M448.059,-451.786C458.288,-449.709 469.588,-447.415 480.331,-445.234"/>
<polygon fill="black" stroke="black" points="481.303,-448.608 490.406,-443.189 479.91,-441.748 481.303,-448.608"/>
</g>
<!-- AS2914 -->
<g id="node10" class="node"><title>AS2914</title>
<g id="a_node10"><a xlink:href="/asn/2914" xlink:title="AS2914 ~ NTT America, Inc. [US]">
<ellipse fill="#ffffff" stroke="black" cx="646.659" cy="-342" rx="39.7935" ry="18"/>
<text text-anchor="middle" x="646.659" y="-338.3" font-family="Times,serif" font-size="14.00" fill="#2c94b3">AS2914</text>
</a>
</g>
</g>
<!-- AS1764&#45;&gt;AS2914 -->
<g id="edge10" class="edge"><title>AS1764&#45;&gt;AS2914</title>
<path fill="none" stroke="black" d="M433.092,-443.669C447.724,-433.156 468.091,-419.301 487.17,-409 525.999,-388.035 572.788,-368.956 605.422,-356.568"/>
<polygon fill="black" stroke="black" points="606.94,-359.736 615.071,-352.943 604.478,-353.183 606.94,-359.736"/>
</g>
<!-- AS174 -->
<g id="node11" class="node"><title>AS174</title>
<g id="a_node11"><a xlink:href="/asn/174" xlink:title="AS174 ~ Cogent Communications [US]">
<ellipse fill="#ffffff" stroke="black" cx="646.659" cy="-558" rx="35.194" ry="18"/>
<text text-anchor="middle" x="646.659" y="-554.3" font-family="Times,serif" font-size="14.00" fill="#2c94b3">AS174</text>
</a>
</g>
</g>
<!-- AS1764&#45;&gt;AS174 -->
<g id="edge11" class="edge"><title>AS1764&#45;&gt;AS174</title>
<path fill="none" stroke="black" d="M439.311,-471.994C453.459,-478.746 471.162,-487.022 487.17,-494 528.337,-511.947 576.222,-531.042 608.493,-543.655"/>
<polygon fill="black" stroke="black" points="607.394,-546.983 617.982,-547.353 609.935,-540.461 607.394,-546.983"/>
</g>
<!-- AS8218 -->
<g id="node12" class="node"><title>AS8218</title>
<g id="a_node12"><a xlink:href="/asn/8218" xlink:title="AS8218 ~ legacy Neotelecoms [FR]">
<ellipse fill="#ffffff" stroke="black" cx="526.816" cy="-608" rx="39.7935" ry="18"/>
<text text-anchor="middle" x="526.816" y="-604.3" font-family="Times,serif" font-size="14.00" fill="#2c94b3">AS8218</text>
</a>
</g>
</g>
<!-- AS1764&#45;&gt;AS8218 -->
<g id="edge12" class="edge"><title>AS1764&#45;&gt;AS8218</title>
<path fill="none" stroke="black" d="M422.23,-476.346C435.467,-499.319 460.59,-540.591 487.17,-572 491.04,-576.574 495.453,-581.158 499.878,-585.45"/>
<polygon fill="black" stroke="black" points="497.552,-588.066 507.245,-592.342 502.334,-582.954 497.552,-588.066"/>
</g>
<!-- AS3320&#45;&gt;AS2914 -->
<g id="edge18" class="edge"><title>AS3320&#45;&gt;AS2914</title>
<path fill="none" stroke="black" d="M555.445,-300.661C571.402,-307.973 591.672,-317.261 608.955,-325.181"/>
<polygon fill="black" stroke="black" points="607.654,-328.435 618.203,-329.419 610.57,-322.071 607.654,-328.435"/>
</g>
<!-- AS2497 -->
<g id="node13" class="node"><title>AS2497</title>
<g id="a_node13"><a xlink:href="/asn/2497" xlink:title="AS2497 ~ Internet Initiative Japan Inc. [JP]">
<ellipse fill="#ffffff" stroke="black" cx="646.659" cy="-396" rx="39.7935" ry="18"/>
<text text-anchor="middle" x="646.659" y="-392.3" font-family="Times,serif" font-size="14.00" fill="#2c94b3">AS2497</text>
</a>
</g>
</g>
<!-- AS3320&#45;&gt;AS2497 -->
<g id="edge13" class="edge"><title>AS3320&#45;&gt;AS2497</title>
<path fill="none" stroke="black" d="M541.235,-305.065C555.35,-322.375 578.764,-349.345 602.463,-369 605.679,-371.668 609.179,-374.27 612.75,-376.741"/>
<polygon fill="black" stroke="black" points="610.828,-379.666 621.106,-382.236 614.674,-373.817 610.828,-379.666"/>
</g>
<!-- AS7018 -->
<g id="node14" class="node"><title>AS7018</title>
<g id="a_node14"><a xlink:href="/asn/7018" xlink:title="AS7018 ~ AT&amp;T Services, Inc. [US]">
<ellipse fill="#ffffff" stroke="black" cx="646.659" cy="-450" rx="39.7935" ry="18"/>
<text text-anchor="middle" x="646.659" y="-446.3" font-family="Times,serif" font-size="14.00" fill="#2c94b3">AS7018</text>
</a>
</g>
</g>
<!-- AS3320&#45;&gt;AS7018 -->
<g id="edge14" class="edge"><title>AS3320&#45;&gt;AS7018</title>
<path fill="none" stroke="black" d="M534.339,-305.994C545.09,-333.728 568.747,-387.429 602.463,-423 605.048,-425.728 607.966,-428.294 611.034,-430.677"/>
<polygon fill="black" stroke="black" points="609.188,-433.658 619.383,-436.543 613.212,-427.93 609.188,-433.658"/>
</g>
<!-- AS1239 -->
<g id="node15" class="node"><title>AS1239</title>
<g id="a_node15"><a xlink:href="/asn/1239" xlink:title="AS1239 ~ Sprint [US]">
<ellipse fill="#ffffff" stroke="black" cx="646.659" cy="-288" rx="39.7935" ry="18"/>
<text text-anchor="middle" x="646.659" y="-284.3" font-family="Times,serif" font-size="14.00" fill="#2c94b3">AS1239</text>
</a>
</g>
</g>
<!-- AS3320&#45;&gt;AS1239 -->
<g id="edge15" class="edge"><title>AS3320&#45;&gt;AS1239</title>
<path fill="none" stroke="black" stroke-width="2" d="M566.729,-288C576.282,-288 586.632,-288 596.594,-288"/>
<polygon fill="black" stroke="black" stroke-width="2" points="596.787,-291.5 606.787,-288 596.787,-284.5 596.787,-291.5"/>
</g>
<!-- AS6453 -->
<g id="node16" class="node"><title>AS6453</title>
<g id="a_node16"><a xlink:href="/asn/6453" xlink:title="AS6453 ~ TATA COMMUNICATIONS (AMERICA) INC [US]">
<ellipse fill="#ffffff" stroke="black" cx="646.659" cy="-126" rx="39.7935" ry="18"/>
<text text-anchor="middle" x="646.659" y="-122.3" font-family="Times,serif" font-size="14.00" fill="#2c94b3">AS6453</text>
</a>
</g>
</g>
<!-- AS3320&#45;&gt;AS6453 -->
<g id="edge16" class="edge"><title>AS3320&#45;&gt;AS6453</title>
<path fill="none" stroke="black" d="M541.277,-271.087C549.17,-260.73 559.02,-247.008 566.463,-234 586.027,-199.806 576.629,-182.742 602.463,-153 604.927,-150.162 607.764,-147.523 610.782,-145.094"/>
<polygon fill="black" stroke="black" points="612.969,-147.833 619.06,-139.164 608.892,-142.142 612.969,-147.833"/>
</g>
<!-- AS701 -->
<g id="node17" class="node"><title>AS701</title>
<g id="a_node17"><a xlink:href="/asn/701" xlink:title="AS701 ~ UUNET [US]">
<ellipse fill="#ffffff" stroke="black" cx="646.659" cy="-234" rx="35.194" ry="18"/>
<text text-anchor="middle" x="646.659" y="-230.3" font-family="Times,serif" font-size="14.00" fill="#2c94b3">AS701</text>
</a>
</g>
</g>
<!-- AS3320&#45;&gt;AS701 -->
<g id="edge17" class="edge"><title>AS3320&#45;&gt;AS701</title>
<path fill="none" stroke="black" stroke-width="2" d="M555.445,-275.339C571.861,-267.817 592.843,-258.202 610.44,-250.139"/>
<polygon fill="black" stroke="black" stroke-width="2" points="612.184,-253.189 619.817,-245.842 609.268,-246.826 612.184,-253.189"/>
</g>
<!-- AS12956 -->
<g id="node18" class="node"><title>AS12956</title>
<g id="a_node18"><a xlink:href="/asn/12956" xlink:title="AS12956 ~ TELXIUS [ES]">
<ellipse fill="#ffffff" stroke="black" cx="646.659" cy="-180" rx="44.393" ry="18"/>
<text text-anchor="middle" x="646.659" y="-176.3" font-family="Times,serif" font-size="14.00" fill="#2c94b3">AS12956</text>
</a>
</g>
</g>
<!-- AS3320&#45;&gt;AS12956 -->
<g id="edge19" class="edge"><title>AS3320&#45;&gt;AS12956</title>
<path fill="none" stroke="black" d="M541.235,-270.935C555.35,-253.625 578.764,-226.655 602.463,-207 605.2,-204.729 608.144,-202.506 611.161,-200.37"/>
<polygon fill="black" stroke="black" points="613.387,-203.092 619.75,-194.621 609.493,-197.275 613.387,-203.092"/>
</g>
<!-- AS6762&#45;&gt;AS6453 -->
<g id="edge25" class="edge"><title>AS6762&#45;&gt;AS6453</title>
<path fill="none" stroke="black" d="M562.535,-145.045C574.535,-142.296 588.156,-139.175 600.849,-136.267"/>
<polygon fill="black" stroke="black" points="601.815,-139.636 610.78,-133.991 600.251,-132.813 601.815,-139.636"/>
</g>
<!-- AS6762&#45;&gt;AS12956 -->
<g id="edge26" class="edge"><title>AS6762&#45;&gt;AS12956</title>
<path fill="none" stroke="black" d="M562.535,-160.955C573.674,-163.507 586.209,-166.379 598.102,-169.104"/>
<polygon fill="black" stroke="black" points="597.367,-172.526 607.896,-171.348 598.931,-165.703 597.367,-172.526"/>
</g>
<!-- AS3491 -->
<g id="node21" class="node"><title>AS3491</title>
<g id="a_node21"><a xlink:href="/asn/3491" xlink:title="AS3491 ~ PCCW Global, Inc. [US]">
<ellipse fill="#ffffff" stroke="black" cx="646.659" cy="-18" rx="39.7935" ry="18"/>
<text text-anchor="middle" x="646.659" y="-14.3" font-family="Times,serif" font-size="14.00" fill="#2c94b3">AS3491</text>
</a>
</g>
</g>
<!-- AS6762&#45;&gt;AS3491 -->
<g id="edge27" class="edge"><title>AS6762&#45;&gt;AS3491</title>
<path fill="none" stroke="black" d="M537.057,-135.287C549.603,-112.439 573.78,-72.3891 602.463,-45 605.331,-42.2611 608.52,-39.6533 611.829,-37.2147"/>
<polygon fill="black" stroke="black" points="613.892,-40.0442 620.188,-31.523 609.952,-34.2581 613.892,-40.0442"/>
</g>
<!-- AS1299&#45;&gt;AS3257 -->
<g id="edge38" class="edge"><title>AS1299&#45;&gt;AS3257</title>
<path fill="none" stroke="black" d="M551.948,-449.925C569.387,-459.988 593.161,-473.707 612.399,-484.808"/>
<polygon fill="black" stroke="black" points="610.744,-487.893 621.154,-489.86 614.242,-481.83 610.744,-487.893"/>
</g>
<!-- AS1299&#45;&gt;AS2914 -->
<g id="edge36" class="edge"><title>AS1299&#45;&gt;AS2914</title>
<path fill="none" stroke="black" d="M544.293,-419.691C558.962,-405.551 581.312,-384.914 602.463,-369 605.802,-366.488 609.38,-363.983 612.995,-361.568"/>
<polygon fill="black" stroke="black" points="614.901,-364.504 621.402,-356.138 611.103,-358.624 614.901,-364.504"/>
</g>
<!-- AS1299&#45;&gt;AS174 -->
<g id="edge35" class="edge"><title>AS1299&#45;&gt;AS174</title>
<path fill="none" stroke="black" d="M538.682,-453.252C552.005,-473.5 576.088,-507.315 602.463,-531 605.81,-534.006 609.533,-536.884 613.35,-539.565"/>
<polygon fill="black" stroke="black" points="611.471,-542.518 621.747,-545.096 615.321,-536.673 611.471,-542.518"/>
</g>
<!-- AS1299&#45;&gt;AS2497 -->
<g id="edge39" class="edge"><title>AS1299&#45;&gt;AS2497</title>
<path fill="none" stroke="black" d="M559.086,-425.386C573.07,-420.639 589.741,-414.981 604.702,-409.902"/>
<polygon fill="black" stroke="black" points="605.898,-413.192 614.242,-406.664 603.648,-406.564 605.898,-413.192"/>
</g>
<!-- AS1299&#45;&gt;AS7018 -->
<g id="edge37" class="edge"><title>AS1299&#45;&gt;AS7018</title>
<path fill="none" stroke="black" d="M565.426,-440.468C575.737,-441.693 587.055,-443.038 597.855,-444.321"/>
<polygon fill="black" stroke="black" points="597.658,-447.822 608.002,-445.526 598.484,-440.871 597.658,-447.822"/>
</g>
<!-- AS8218&#45;&gt;AS6461 -->
<g id="edge28" class="edge"><title>AS8218&#45;&gt;AS6461</title>
<path fill="none" stroke="black" d="M566.402,-609.31C576.169,-609.641 586.785,-610.002 596.979,-610.348"/>
<polygon fill="black" stroke="black" points="596.873,-613.846 606.986,-610.687 597.11,-606.85 596.873,-613.846"/>
</g>
<!-- AS3356&#45;&gt;AS3257 -->
<g id="edge32" class="edge"><title>AS3356&#45;&gt;AS3257</title>
<path fill="none" stroke="black" d="M542.899,-223.777C551.148,-233.869 560.809,-247.369 566.463,-261 603.748,-350.899 548.424,-396.056 602.463,-477 604.378,-479.869 606.712,-482.49 609.293,-484.872"/>
<polygon fill="black" stroke="black" points="607.556,-487.954 617.604,-491.313 611.844,-482.421 607.556,-487.954"/>
</g>
<!-- AS3356&#45;&gt;AS2914 -->
<g id="edge34" class="edge"><title>AS3356&#45;&gt;AS2914</title>
<path fill="none" stroke="black" d="M540.495,-224.406C548.111,-234.937 557.944,-248.67 566.463,-261 582.858,-284.731 581.769,-294.906 602.463,-315 605.308,-317.763 608.482,-320.386 611.782,-322.834"/>
<polygon fill="black" stroke="black" points="609.898,-325.786 620.129,-328.538 613.847,-320.006 609.898,-325.786"/>
</g>
<!-- AS3356&#45;&gt;AS6453 -->
<g id="edge31" class="edge"><title>AS3356&#45;&gt;AS6453</title>
<path fill="none" stroke="black" d="M549.573,-191.991C555.108,-188.121 561.026,-183.936 566.463,-180 582.662,-168.271 585.968,-164.311 602.463,-153 605.991,-150.581 609.728,-148.111 613.469,-145.698"/>
<polygon fill="black" stroke="black" points="615.541,-148.528 622.11,-140.216 611.791,-142.618 615.541,-148.528"/>
</g>
<!-- AS3356&#45;&gt;AS12956 -->
<g id="edge30" class="edge"><title>AS3356&#45;&gt;AS12956</title>
<path fill="none" stroke="black" d="M562.535,-199.045C573.674,-196.493 586.209,-193.621 598.102,-190.896"/>
<polygon fill="black" stroke="black" points="598.931,-194.297 607.896,-188.652 597.367,-187.474 598.931,-194.297"/>
</g>
<!-- AS3356&#45;&gt;AS3491 -->
<g id="edge33" class="edge"><title>AS3356&#45;&gt;AS3491</title>
<path fill="none" stroke="black" d="M552.975,-193.284C558.04,-189.545 562.895,-185.096 566.463,-180 602.076,-129.131 565.559,-94.9414 602.463,-45 604.696,-41.9771 607.379,-39.2138 610.3,-36.7071"/>
<polygon fill="black" stroke="black" points="612.495,-39.4368 618.443,-30.6694 608.326,-33.8137 612.495,-39.4368"/>
</g>
<!-- AS3549 -->
<g id="node22" class="node"><title>AS3549</title>
<g id="a_node22"><a xlink:href="/asn/3549" xlink:title="AS3549 ~ Level 3 Parent, LLC [US]">
<ellipse fill="#ffffff" stroke="black" cx="646.659" cy="-72" rx="39.7935" ry="18"/>
<text text-anchor="middle" x="646.659" y="-68.3" font-family="Times,serif" font-size="14.00" fill="#2c94b3">AS3549</text>
</a>
</g>
</g>
<!-- AS3356&#45;&gt;AS3549 -->
<g id="edge29" class="edge"><title>AS3356&#45;&gt;AS3549</title>
<path fill="none" stroke="black" stroke-width="2" d="M552.397,-192.844C557.491,-189.128 562.505,-184.799 566.463,-180 591.527,-149.606 576.629,-128.742 602.463,-99 604.927,-96.1624 607.764,-93.5228 610.782,-91.0937"/>
<polygon fill="black" stroke="black" stroke-width="2" points="612.969,-93.8326 619.06,-85.1638 608.892,-88.1419 612.969,-93.8326"/>
</g>
</g>
</svg>
