<?xml version="1.0" encoding="UTF-8" standalone="no"?>
<!DOCTYPE svg PUBLIC "-//W3C//DTD SVG 1.1//EN"
 "http://www.w3.org/Graphics/SVG/1.1/DTD/svg11.dtd">
<!-- Generated by graphviz version 2.38.0 (20140413.2041)
 -->
<!-- Title: AS202928 Combined Upstream Graph Pages: 1 -->
<svg width="584pt" height="638pt"
 viewBox="0.00 0.00 583.56 638.00" xmlns="http://www.w3.org/2000/svg" xmlns:xlink="http://www.w3.org/1999/xlink">
<g id="graph0" class="graph" transform="scale(1 1) rotate(0) translate(4 634)">
<title>AS202928 Combined Upstream Graph</title>
<polygon fill="white" stroke="none" points="-4,4 -4,-634 579.562,-634 579.562,4 -4,4"/>
<!-- AS202928 -->
<g id="node1" class="node"><title>AS202928</title>
<g id="a_node1"><a xlink:href="/asn/202928" xlink:title="AS202928 ~ z&#45;ix.net [AT]">
<ellipse fill="#ffffff" stroke="black" cx="48.0957" cy="-327" rx="48.1917" ry="18"/>
<text text-anchor="middle" x="48.0957" y="-323.3" font-family="Times,serif" font-size="14.00" fill="#880000">AS202928</text>
</a>
</g>
</g>
<!-- AS5404 -->
<g id="node2" class="node"><title>AS5404</title>
<g id="a_node2"><a xlink:href="/asn/5404" xlink:title="AS5404 ~ ASN conova communications GmbH [AT]">
<ellipse fill="#ffffff" stroke="black" cx="171.838" cy="-327" rx="39.7935" ry="18"/>
<text text-anchor="middle" x="171.838" y="-323.3" font-family="Times,serif" font-size="14.00" fill="#2c94b3">AS5404</text>
</a>
</g>
</g>
<!-- AS202928&#45;&gt;AS5404 -->
<g id="edge1" class="edge"><title>AS202928&#45;&gt;AS5404</title>
<path fill="none" stroke="black" stroke-width="4.5" d="M96.5131,-327C104.867,-327 113.577,-327 121.969,-327"/>
<polygon fill="black" stroke="black" stroke-width="4.5" points="122.004,-330.938 132.004,-327 122.004,-323.063 122.004,-330.938"/>
</g>
<!-- AS1764 -->
<g id="node3" class="node"><title>AS1764</title>
<g id="a_node3"><a xlink:href="/asn/1764" xlink:title="AS1764 ~ NEXTLAYER&#45;AS [AT]">
<ellipse fill="#ffffff" stroke="black" cx="291.681" cy="-463" rx="39.7935" ry="18"/>
<text text-anchor="middle" x="291.681" y="-459.3" font-family="Times,serif" font-size="14.00" fill="#2c94b3">AS1764</text>
</a>
</g>
</g>
<!-- AS5404&#45;&gt;AS1764 -->
<g id="edge2" class="edge"><title>AS5404&#45;&gt;AS1764</title>
<path fill="none" stroke="black" stroke-width="3.85714" d="M187.288,-343.676C207.873,-367.433 245.772,-411.172 269.523,-438.582"/>
<polygon fill="black" stroke="black" stroke-width="3.85714" points="266.919,-440.922 276.113,-446.187 272.209,-436.338 266.919,-440.922"/>
</g>
<!-- AS6830 -->
<g id="node4" class="node"><title>AS6830</title>
<g id="a_node4"><a xlink:href="/asn/6830" xlink:title="AS6830 ~ LGI&#45;UPC [AT]">
<ellipse fill="#ffffff" stroke="black" cx="411.523" cy="-301" rx="39.7935" ry="18"/>
<text text-anchor="middle" x="411.523" y="-297.3" font-family="Times,serif" font-size="14.00" fill="#2c94b3">AS6830</text>
</a>
</g>
</g>
<!-- AS5404&#45;&gt;AS6830 -->
<g id="edge3" class="edge"><title>AS5404&#45;&gt;AS6830</title>
<path fill="none" stroke="black" stroke-width="4.17857" d="M210.5,-322.88C251.668,-318.377 317.732,-311.15 362.574,-306.245"/>
<polygon fill="black" stroke="black" stroke-width="4.17857" points="363.101,-309.866 372.645,-305.143 362.306,-302.596 363.101,-309.866"/>
</g>
<!-- AS33891 -->
<g id="node5" class="node"><title>AS33891</title>
<g id="a_node5"><a xlink:href="/asn/33891" xlink:title="AS33891 ~ CORE&#45;BACKBONE GMBH GLOBAL NETWORK [DE]">
<ellipse fill="#ffffff" stroke="black" cx="291.681" cy="-351" rx="44.393" ry="18"/>
<text text-anchor="middle" x="291.681" y="-347.3" font-family="Times,serif" font-size="14.00" fill="#2c94b3">AS33891</text>
</a>
</g>
</g>
<!-- AS5404&#45;&gt;AS33891 -->
<g id="edge4" class="edge"><title>AS5404&#45;&gt;AS33891</title>
<path fill="none" stroke="black" stroke-width="4.5" d="M208.195,-334.201C218.68,-336.336 230.357,-338.714 241.549,-340.994"/>
<polygon fill="black" stroke="black" stroke-width="4.5" points="241.058,-344.912 251.643,-343.049 242.63,-337.195 241.058,-344.912"/>
</g>
<!-- AS8445 -->
<g id="node6" class="node"><title>AS8445</title>
<g id="a_node6"><a xlink:href="/asn/8445" xlink:title="AS8445 ~ SALZBURG&#45;AG&#45;AS [AT]">
<ellipse fill="#ffffff" stroke="black" cx="291.681" cy="-174" rx="39.7935" ry="18"/>
<text text-anchor="middle" x="291.681" y="-170.3" font-family="Times,serif" font-size="14.00" fill="#2c94b3">AS8445</text>
</a>
</g>
</g>
<!-- AS5404&#45;&gt;AS8445 -->
<g id="edge5" class="edge"><title>AS5404&#45;&gt;AS8445</title>
<path fill="none" stroke="black" stroke-width="0.642857" d="M185.899,-310.042C206.605,-283.159 247.082,-230.606 271.217,-199.271"/>
<polygon fill="black" stroke="black" stroke-width="0.642857" points="274.231,-201.092 277.561,-191.034 268.686,-196.821 274.231,-201.092"/>
</g>
<!-- AS174 -->
<g id="node7" class="node"><title>AS174</title>
<g id="a_node7"><a xlink:href="/asn/174" xlink:title="AS174 ~ Cogent Communications [US]">
<ellipse fill="#ffffff" stroke="black" cx="411.523" cy="-517" rx="35.194" ry="18"/>
<text text-anchor="middle" x="411.523" y="-513.3" font-family="Times,serif" font-size="14.00" fill="#2c94b3">AS174</text>
</a>
</g>
</g>
<!-- AS1764&#45;&gt;AS174 -->
<g id="edge6" class="edge"><title>AS1764&#45;&gt;AS174</title>
<path fill="none" stroke="black" stroke-width="4.5" d="M320.309,-475.661C336.726,-483.183 357.707,-492.798 375.304,-500.861"/>
<polygon fill="black" stroke="black" stroke-width="4.5" points="373.95,-504.572 384.681,-505.158 377.231,-497.413 373.95,-504.572"/>
</g>
<!-- AS2914 -->
<g id="node8" class="node"><title>AS2914</title>
<g id="a_node8"><a xlink:href="/asn/2914" xlink:title="AS2914 ~ NTT America, Inc. [US]">
<ellipse fill="#ffffff" stroke="black" cx="411.523" cy="-463" rx="39.7935" ry="18"/>
<text text-anchor="middle" x="411.523" y="-459.3" font-family="Times,serif" font-size="14.00" fill="#2c94b3">AS2914</text>
</a>
</g>
</g>
<!-- AS1764&#45;&gt;AS2914 -->
<g id="edge7" class="edge"><title>AS1764&#45;&gt;AS2914</title>
<path fill="none" stroke="black" stroke-width="3.6" d="M331.593,-463C341.146,-463 351.496,-463 361.459,-463"/>
<polygon fill="black" stroke="black" stroke-width="3.6" points="361.651,-466.5 371.651,-463 361.651,-459.5 361.651,-466.5"/>
</g>
<!-- AS8218 -->
<g id="node9" class="node"><title>AS8218</title>
<g id="a_node9"><a xlink:href="/asn/8218" xlink:title="AS8218 ~ legacy Neotelecoms [FR]">
<ellipse fill="#ffffff" stroke="black" cx="411.523" cy="-598" rx="39.7935" ry="18"/>
<text text-anchor="middle" x="411.523" y="-594.3" font-family="Times,serif" font-size="14.00" fill="#2c94b3">AS8218</text>
</a>
</g>
</g>
<!-- AS1764&#45;&gt;AS8218 -->
<g id="edge8" class="edge"><title>AS1764&#45;&gt;AS8218</title>
<path fill="none" stroke="black" stroke-width="1.8" d="M307.367,-479.825C327.944,-503.397 365.481,-546.4 389.154,-573.52"/>
<polygon fill="black" stroke="black" stroke-width="1.8" points="386.809,-576.155 396.022,-581.387 392.082,-571.552 386.809,-576.155"/>
</g>
<!-- AS3257 -->
<g id="node10" class="node"><title>AS3257</title>
<g id="a_node10"><a xlink:href="/asn/3257" xlink:title="AS3257 ~ GTT [DE]">
<ellipse fill="#ffffff" stroke="black" cx="411.523" cy="-409" rx="39.7935" ry="18"/>
<text text-anchor="middle" x="411.523" y="-405.3" font-family="Times,serif" font-size="14.00" fill="#2c94b3">AS3257</text>
</a>
</g>
</g>
<!-- AS1764&#45;&gt;AS3257 -->
<g id="edge9" class="edge"><title>AS1764&#45;&gt;AS3257</title>
<path fill="none" stroke="black" stroke-width="0.9" d="M320.309,-450.339C336.266,-443.027 356.537,-433.739 373.82,-425.819"/>
<polygon fill="black" stroke="black" stroke-width="0.9" points="375.434,-428.929 383.067,-421.581 372.518,-422.565 375.434,-428.929"/>
</g>
<!-- AS7018 -->
<g id="node11" class="node"><title>AS7018</title>
<g id="a_node11"><a xlink:href="/asn/7018" xlink:title="AS7018 ~ AT&amp;T Services, Inc. [US]">
<ellipse fill="#ffffff" stroke="black" cx="531.366" cy="-396" rx="39.7935" ry="18"/>
<text text-anchor="middle" x="531.366" y="-392.3" font-family="Times,serif" font-size="14.00" fill="#2c94b3">AS7018</text>
</a>
</g>
</g>
<!-- AS6830&#45;&gt;AS7018 -->
<g id="edge10" class="edge"><title>AS6830&#45;&gt;AS7018</title>
<path fill="none" stroke="black" stroke-width="2" d="M435.288,-315.546C440.687,-319.359 446.29,-323.633 451.17,-328 469.239,-344.172 468.692,-353.296 487.17,-369 490.191,-371.568 493.48,-374.065 496.849,-376.437"/>
<polygon fill="black" stroke="black" stroke-width="2" points="495.019,-379.423 505.284,-382.045 498.894,-373.594 495.019,-379.423"/>
</g>
<!-- AS2497 -->
<g id="node12" class="node"><title>AS2497</title>
<g id="a_node12"><a xlink:href="/asn/2497" xlink:title="AS2497 ~ Internet Initiative Japan Inc. [JP]">
<ellipse fill="#ffffff" stroke="black" cx="531.366" cy="-288" rx="39.7935" ry="18"/>
<text text-anchor="middle" x="531.366" y="-284.3" font-family="Times,serif" font-size="14.00" fill="#2c94b3">AS2497</text>
</a>
</g>
</g>
<!-- AS6830&#45;&gt;AS2497 -->
<g id="edge11" class="edge"><title>AS6830&#45;&gt;AS2497</title>
<path fill="none" stroke="black" stroke-width="2" d="M450.133,-296.851C460.444,-295.713 471.762,-294.465 482.562,-293.274"/>
<polygon fill="black" stroke="black" stroke-width="2" points="483.153,-296.73 492.709,-292.154 482.385,-289.772 483.153,-296.73"/>
</g>
<!-- AS3491 -->
<g id="node13" class="node"><title>AS3491</title>
<g id="a_node13"><a xlink:href="/asn/3491" xlink:title="AS3491 ~ PCCW Global, Inc. [US]">
<ellipse fill="#ffffff" stroke="black" cx="531.366" cy="-558" rx="39.7935" ry="18"/>
<text text-anchor="middle" x="531.366" y="-554.3" font-family="Times,serif" font-size="14.00" fill="#2c94b3">AS3491</text>
</a>
</g>
</g>
<!-- AS6830&#45;&gt;AS3491 -->
<g id="edge12" class="edge"><title>AS6830&#45;&gt;AS3491</title>
<path fill="none" stroke="black" stroke-width="2" d="M438.009,-314.498C443.056,-318.248 447.822,-322.757 451.17,-328 500.481,-405.23 435.899,-455.057 487.17,-531 489.099,-533.859 491.444,-536.473 494.032,-538.851"/>
<polygon fill="black" stroke="black" stroke-width="2" points="492.302,-541.938 502.354,-545.284 496.583,-536.399 492.302,-541.938"/>
</g>
<!-- AS6762 -->
<g id="node14" class="node"><title>AS6762</title>
<g id="a_node14"><a xlink:href="/asn/6762" xlink:title="AS6762 ~ TELECOM ITALIA SPARKLE S.p.A. [IT]">
<ellipse fill="#ffffff" stroke="black" cx="531.366" cy="-450" rx="39.7935" ry="18"/>
<text text-anchor="middle" x="531.366" y="-446.3" font-family="Times,serif" font-size="14.00" fill="#2c94b3">AS6762</text>
</a>
</g>
</g>
<!-- AS6830&#45;&gt;AS6762 -->
<g id="edge13" class="edge"><title>AS6830&#45;&gt;AS6762</title>
<path fill="none" stroke="black" stroke-width="2" d="M437.305,-314.995C442.389,-318.719 447.348,-323.092 451.17,-328 478.91,-363.625 458.526,-388.096 487.17,-423 489.554,-425.906 492.337,-428.59 495.321,-431.048"/>
<polygon fill="black" stroke="black" stroke-width="2" points="493.402,-433.98 503.552,-437.017 497.512,-428.313 493.402,-433.98"/>
</g>
<!-- AS1239 -->
<g id="node15" class="node"><title>AS1239</title>
<g id="a_node15"><a xlink:href="/asn/1239" xlink:title="AS1239 ~ Sprint [US]">
<ellipse fill="#ffffff" stroke="black" cx="531.366" cy="-504" rx="39.7935" ry="18"/>
<text text-anchor="middle" x="531.366" y="-500.3" font-family="Times,serif" font-size="14.00" fill="#2c94b3">AS1239</text>
</a>
</g>
</g>
<!-- AS6830&#45;&gt;AS1239 -->
<g id="edge14" class="edge"><title>AS6830&#45;&gt;AS1239</title>
<path fill="none" stroke="black" d="M437.772,-314.655C442.831,-318.396 447.662,-322.863 451.17,-328 489.583,-384.266 447.33,-421.735 487.17,-477 489.25,-479.885 491.742,-482.53 494.466,-484.94"/>
<polygon fill="black" stroke="black" points="492.523,-487.858 502.607,-491.108 496.75,-482.279 492.523,-487.858"/>
</g>
<!-- AS12956 -->
<g id="node16" class="node"><title>AS12956</title>
<g id="a_node16"><a xlink:href="/asn/12956" xlink:title="AS12956 ~ TELXIUS [ES]">
<ellipse fill="#ffffff" stroke="black" cx="531.366" cy="-342" rx="44.393" ry="18"/>
<text text-anchor="middle" x="531.366" y="-338.3" font-family="Times,serif" font-size="14.00" fill="#2c94b3">AS12956</text>
</a>
</g>
</g>
<!-- AS6830&#45;&gt;AS12956 -->
<g id="edge15" class="edge"><title>AS6830&#45;&gt;AS12956</title>
<path fill="none" stroke="black" d="M443.485,-311.772C456.893,-316.437 472.816,-321.977 487.345,-327.032"/>
<polygon fill="black" stroke="black" points="486.538,-330.457 497.133,-330.438 488.838,-323.846 486.538,-330.457"/>
</g>
<!-- AS701 -->
<g id="node17" class="node"><title>AS701</title>
<g id="a_node17"><a xlink:href="/asn/701" xlink:title="AS701 ~ UUNET [US]">
<ellipse fill="#ffffff" stroke="black" cx="531.366" cy="-180" rx="35.194" ry="18"/>
<text text-anchor="middle" x="531.366" y="-176.3" font-family="Times,serif" font-size="14.00" fill="#2c94b3">AS701</text>
</a>
</g>
</g>
<!-- AS6830&#45;&gt;AS701 -->
<g id="edge16" class="edge"><title>AS6830&#45;&gt;AS701</title>
<path fill="none" stroke="black" stroke-width="2" d="M423.665,-283.583C437.073,-263.518 461.061,-230.325 487.17,-207 490.525,-204.002 494.253,-201.13 498.072,-198.451"/>
<polygon fill="black" stroke="black" stroke-width="2" points="500.042,-201.344 506.471,-192.923 496.194,-195.497 500.042,-201.344"/>
</g>
<!-- AS1273 -->
<g id="node18" class="node"><title>AS1273</title>
<g id="a_node18"><a xlink:href="/asn/1273" xlink:title="AS1273 ~ Vodafone Group PLC [EU]">
<ellipse fill="#ffffff" stroke="black" cx="531.366" cy="-234" rx="39.7935" ry="18"/>
<text text-anchor="middle" x="531.366" y="-230.3" font-family="Times,serif" font-size="14.00" fill="#2c94b3">AS1273</text>
</a>
</g>
</g>
<!-- AS6830&#45;&gt;AS1273 -->
<g id="edge17" class="edge"><title>AS6830&#45;&gt;AS1273</title>
<path fill="none" stroke="black" d="M436.94,-287.118C454.4,-277.191 478.1,-263.716 497.261,-252.822"/>
<polygon fill="black" stroke="black" points="499.017,-255.85 505.98,-247.865 495.557,-249.765 499.017,-255.85"/>
</g>
<!-- AS33891&#45;&gt;AS3257 -->
<g id="edge20" class="edge"><title>AS33891&#45;&gt;AS3257</title>
<path fill="none" stroke="black" stroke-width="0.5" d="M320.608,-364.745C336.802,-372.716 357.363,-382.836 374.735,-391.386"/>
<polygon fill="black" stroke="black" stroke-width="0.5" points="373.493,-394.675 384.01,-395.951 376.584,-388.395 373.493,-394.675"/>
</g>
<!-- AS3356 -->
<g id="node19" class="node"><title>AS3356</title>
<g id="a_node19"><a xlink:href="/asn/3356" xlink:title="AS3356 ~ Level 3 Parent, LLC [US]">
<ellipse fill="#ffffff" stroke="black" cx="411.523" cy="-180" rx="39.7935" ry="18"/>
<text text-anchor="middle" x="411.523" y="-176.3" font-family="Times,serif" font-size="14.00" fill="#2c94b3">AS3356</text>
</a>
</g>
</g>
<!-- AS33891&#45;&gt;AS3356 -->
<g id="edge18" class="edge"><title>AS33891&#45;&gt;AS3356</title>
<path fill="none" stroke="black" stroke-width="4.5" d="M304.628,-333.663C325.504,-303.37 368.703,-240.684 392.98,-205.457"/>
<polygon fill="black" stroke="black" stroke-width="4.5" points="396.286,-207.598 398.719,-197.129 389.802,-203.129 396.286,-207.598"/>
</g>
<!-- AS1299 -->
<g id="node20" class="node"><title>AS1299</title>
<g id="a_node20"><a xlink:href="/asn/1299" xlink:title="AS1299 ~ Telia Carrier [EU]">
<ellipse fill="#ffffff" stroke="black" cx="411.523" cy="-355" rx="39.7935" ry="18"/>
<text text-anchor="middle" x="411.523" y="-351.3" font-family="Times,serif" font-size="14.00" fill="#2c94b3">AS1299</text>
</a>
</g>
</g>
<!-- AS33891&#45;&gt;AS1299 -->
<g id="edge19" class="edge"><title>AS33891&#45;&gt;AS1299</title>
<path fill="none" stroke="black" stroke-width="2" d="M335.892,-352.467C344.204,-352.749 352.967,-353.046 361.449,-353.334"/>
<polygon fill="black" stroke="black" stroke-width="2" points="361.495,-356.838 371.608,-353.679 361.732,-349.842 361.495,-356.838"/>
</g>
<!-- AS6453 -->
<g id="node23" class="node"><title>AS6453</title>
<g id="a_node23"><a xlink:href="/asn/6453" xlink:title="AS6453 ~ TATA COMMUNICATIONS (AMERICA) INC [US]">
<ellipse fill="#ffffff" stroke="black" cx="531.366" cy="-18" rx="39.7935" ry="18"/>
<text text-anchor="middle" x="531.366" y="-14.3" font-family="Times,serif" font-size="14.00" fill="#2c94b3">AS6453</text>
</a>
</g>
</g>
<!-- AS8445&#45;&gt;AS6453 -->
<g id="edge31" class="edge"><title>AS8445&#45;&gt;AS6453</title>
<path fill="none" stroke="black" stroke-width="2" d="M314.72,-159.101C350.645,-134.88 424.15,-85.5849 487.17,-45 490.766,-42.6836 494.546,-40.2786 498.312,-37.9011"/>
<polygon fill="black" stroke="black" stroke-width="2" points="500.371,-40.7407 506.978,-32.4582 496.648,-34.8128 500.371,-40.7407"/>
</g>
<!-- AS174&#45;&gt;AS3491 -->
<g id="edge21" class="edge"><title>AS174&#45;&gt;AS3491</title>
<path fill="none" stroke="black" d="M441.049,-526.925C455.603,-531.988 473.564,-538.237 489.553,-543.8"/>
<polygon fill="black" stroke="black" points="488.612,-547.179 499.206,-547.159 490.912,-540.567 488.612,-547.179"/>
</g>
<!-- AS174&#45;&gt;AS6762 -->
<g id="edge23" class="edge"><title>AS174&#45;&gt;AS6762</title>
<path fill="none" stroke="black" d="M435.805,-503.763C453.292,-493.82 477.489,-480.063 497.028,-468.955"/>
<polygon fill="black" stroke="black" points="498.952,-471.887 505.915,-463.902 495.492,-465.801 498.952,-471.887"/>
</g>
<!-- AS174&#45;&gt;AS1239 -->
<g id="edge22" class="edge"><title>AS174&#45;&gt;AS1239</title>
<path fill="none" stroke="black" d="M445.977,-513.309C457.353,-512.054 470.298,-510.626 482.574,-509.272"/>
<polygon fill="black" stroke="black" points="483.124,-512.733 492.679,-508.157 482.356,-505.775 483.124,-512.733"/>
</g>
<!-- AS2914&#45;&gt;AS2497 -->
<g id="edge34" class="edge"><title>AS2914&#45;&gt;AS2497</title>
<path fill="none" stroke="black" d="M437.575,-449.207C442.645,-445.473 447.53,-441.044 451.17,-436 484.002,-390.502 453.184,-359.644 487.17,-315 489.446,-312.009 492.157,-309.268 495.096,-306.774"/>
<polygon fill="black" stroke="black" points="497.291,-309.505 503.265,-300.755 493.138,-303.87 497.291,-309.505"/>
</g>
<!-- AS2914&#45;&gt;AS6762 -->
<g id="edge35" class="edge"><title>AS2914&#45;&gt;AS6762</title>
<path fill="none" stroke="black" d="M450.133,-458.851C460.444,-457.713 471.762,-456.465 482.562,-455.274"/>
<polygon fill="black" stroke="black" points="483.153,-458.73 492.709,-454.154 482.385,-451.772 483.153,-458.73"/>
</g>
<!-- AS6461 -->
<g id="node24" class="node"><title>AS6461</title>
<g id="a_node24"><a xlink:href="/asn/6461" xlink:title="AS6461 ~ Zayo Bandwidth [US]">
<ellipse fill="#ffffff" stroke="black" cx="531.366" cy="-612" rx="39.7935" ry="18"/>
<text text-anchor="middle" x="531.366" y="-608.3" font-family="Times,serif" font-size="14.00" fill="#2c94b3">AS6461</text>
</a>
</g>
</g>
<!-- AS8218&#45;&gt;AS6461 -->
<g id="edge30" class="edge"><title>AS8218&#45;&gt;AS6461</title>
<path fill="none" stroke="black" stroke-width="2" d="M450.133,-602.468C460.444,-603.693 471.762,-605.038 482.562,-606.321"/>
<polygon fill="black" stroke="black" stroke-width="2" points="482.366,-609.822 492.709,-607.526 483.191,-602.871 482.366,-609.822"/>
</g>
<!-- AS3356&#45;&gt;AS2497 -->
<g id="edge25" class="edge"><title>AS3356&#45;&gt;AS2497</title>
<path fill="none" stroke="black" d="M425.942,-197.065C440.057,-214.375 463.471,-241.345 487.17,-261 490.386,-263.668 493.886,-266.27 497.457,-268.741"/>
<polygon fill="black" stroke="black" points="495.535,-271.666 505.813,-274.236 499.381,-265.817 495.535,-271.666"/>
</g>
<!-- AS3356&#45;&gt;AS6762 -->
<g id="edge26" class="edge"><title>AS3356&#45;&gt;AS6762</title>
<path fill="none" stroke="black" d="M420.762,-197.716C429.218,-216.389 442.353,-246.809 451.17,-274 472.184,-338.806 447.33,-367.735 487.17,-423 489.25,-425.885 491.742,-428.53 494.466,-430.94"/>
<polygon fill="black" stroke="black" points="492.523,-433.858 502.607,-437.108 496.75,-428.279 492.523,-433.858"/>
</g>
<!-- AS3356&#45;&gt;AS701 -->
<g id="edge24" class="edge"><title>AS3356&#45;&gt;AS701</title>
<path fill="none" stroke="black" d="M451.436,-180C462.523,-180 474.682,-180 486.064,-180"/>
<polygon fill="black" stroke="black" points="486.246,-183.5 496.246,-180 486.246,-176.5 486.246,-183.5"/>
</g>
<!-- AS209 -->
<g id="node21" class="node"><title>AS209</title>
<g id="a_node21"><a xlink:href="/asn/209" xlink:title="AS209 ~ CenturyLink Communications, LLC [US]">
<ellipse fill="#ffffff" stroke="black" cx="531.366" cy="-126" rx="35.194" ry="18"/>
<text text-anchor="middle" x="531.366" y="-122.3" font-family="Times,serif" font-size="14.00" fill="#2c94b3">AS209</text>
</a>
</g>
</g>
<!-- AS3356&#45;&gt;AS209 -->
<g id="edge27" class="edge"><title>AS3356&#45;&gt;AS209</title>
<path fill="none" stroke="black" stroke-width="2" d="M440.152,-167.339C456.568,-159.817 477.55,-150.202 495.147,-142.139"/>
<polygon fill="black" stroke="black" stroke-width="2" points="496.891,-145.189 504.524,-137.842 493.975,-138.826 496.891,-145.189"/>
</g>
<!-- AS3549 -->
<g id="node22" class="node"><title>AS3549</title>
<g id="a_node22"><a xlink:href="/asn/3549" xlink:title="AS3549 ~ Level 3 Parent, LLC [US]">
<ellipse fill="#ffffff" stroke="black" cx="531.366" cy="-72" rx="39.7935" ry="18"/>
<text text-anchor="middle" x="531.366" y="-68.3" font-family="Times,serif" font-size="14.00" fill="#2c94b3">AS3549</text>
</a>
</g>
</g>
<!-- AS3356&#45;&gt;AS3549 -->
<g id="edge28" class="edge"><title>AS3356&#45;&gt;AS3549</title>
<path fill="none" stroke="black" d="M425.942,-162.935C440.057,-145.625 463.471,-118.655 487.17,-99 490.386,-96.3323 493.886,-93.7296 497.457,-91.2588"/>
<polygon fill="black" stroke="black" points="499.381,-94.1827 505.813,-85.7642 495.535,-88.3338 499.381,-94.1827"/>
</g>
<!-- AS3356&#45;&gt;AS6453 -->
<g id="edge29" class="edge"><title>AS3356&#45;&gt;AS6453</title>
<path fill="none" stroke="black" d="M419.046,-162.006C429.797,-134.272 453.454,-80.5711 487.17,-45 489.755,-42.2721 492.673,-39.7057 495.741,-37.3226"/>
<polygon fill="black" stroke="black" points="497.92,-40.0695 504.09,-31.4566 493.895,-34.342 497.92,-40.0695"/>
</g>
<!-- AS1299&#45;&gt;AS7018 -->
<g id="edge32" class="edge"><title>AS1299&#45;&gt;AS7018</title>
<path fill="none" stroke="black" d="M443.485,-365.772C457.582,-370.677 474.458,-376.548 489.571,-381.807"/>
<polygon fill="black" stroke="black" points="488.607,-385.177 499.202,-385.157 490.907,-378.566 488.607,-385.177"/>
</g>
<!-- AS1299&#45;&gt;AS6762 -->
<g id="edge33" class="edge"><title>AS1299&#45;&gt;AS6762</title>
<path fill="none" stroke="black" d="M435.288,-369.546C440.687,-373.359 446.29,-377.633 451.17,-382 469.239,-398.172 468.692,-407.296 487.17,-423 490.191,-425.568 493.48,-428.065 496.849,-430.437"/>
<polygon fill="black" stroke="black" points="495.019,-433.423 505.284,-436.045 498.894,-427.594 495.019,-433.423"/>
</g>
</g>
</svg>
