<?xml version="1.0" encoding="UTF-8" standalone="no"?>
<!DOCTYPE svg PUBLIC "-//W3C//DTD SVG 1.1//EN"
 "http://www.w3.org/Graphics/SVG/1.1/DTD/svg11.dtd">
<!-- Generated by graphviz version 2.38.0 (20140413.2041)
 -->
<!-- Title: AS197964 Combined Upstream Graph Pages: 1 -->
<svg width="477pt" height="746pt"
 viewBox="0.00 0.00 477.37 746.00" xmlns="http://www.w3.org/2000/svg" xmlns:xlink="http://www.w3.org/1999/xlink">
<g id="graph0" class="graph" transform="scale(1 1) rotate(0) translate(4 742)">
<title>AS197964 Combined Upstream Graph</title>
<polygon fill="white" stroke="none" points="-4,4 -4,-742 473.368,-742 473.368,4 -4,4"/>
<!-- AS197964 -->
<g id="node1" class="node"><title>AS197964</title>
<g id="a_node1"><a xlink:href="/asn/197964" xlink:title="AS197964 ~ Julius Blum GmbH [AT]">
<ellipse fill="#ffffff" stroke="black" cx="48.0957" cy="-396" rx="48.1917" ry="18"/>
<text text-anchor="middle" x="48.0957" y="-392.3" font-family="Times,serif" font-size="14.00" fill="#880000">AS197964</text>
</a>
</g>
</g>
<!-- AS6830 -->
<g id="node2" class="node"><title>AS6830</title>
<g id="a_node2"><a xlink:href="/asn/6830" xlink:title="AS6830 ~ LGI&#45;UPC [AT]">
<ellipse fill="#ffffff" stroke="black" cx="300.78" cy="-396" rx="39.7935" ry="18"/>
<text text-anchor="middle" x="300.78" y="-392.3" font-family="Times,serif" font-size="14.00" fill="#2c94b3">AS6830</text>
</a>
</g>
</g>
<!-- AS197964&#45;&gt;AS6830 -->
<g id="edge1" class="edge"><title>AS197964&#45;&gt;AS6830</title>
<path fill="none" stroke="black" stroke-width="2.25" d="M96.2475,-396C140.459,-396 206.279,-396 251.008,-396"/>
<polygon fill="black" stroke="black" stroke-width="2.25" points="251.057,-399.5 261.057,-396 251.057,-392.5 251.057,-399.5"/>
</g>
<!-- AS8447 -->
<g id="node3" class="node"><title>AS8447</title>
<g id="a_node3"><a xlink:href="/asn/8447" xlink:title="AS8447 ~ A1 Telekom Austria AG [AT]">
<ellipse fill="#ffffff" stroke="black" cx="176.388" cy="-315" rx="39.7935" ry="18"/>
<text text-anchor="middle" x="176.388" y="-311.3" font-family="Times,serif" font-size="14.00" fill="#2c94b3">AS8447</text>
</a>
</g>
</g>
<!-- AS197964&#45;&gt;AS8447 -->
<g id="edge2" class="edge"><title>AS197964&#45;&gt;AS8447</title>
<path fill="none" stroke="black" stroke-width="4.5" d="M73.1475,-380.574C93.2758,-367.664 122.141,-349.151 144.071,-335.085"/>
<polygon fill="black" stroke="black" stroke-width="4.5" points="146.408,-338.264 152.7,-329.551 142.156,-331.636 146.408,-338.264"/>
</g>
<!-- AS12387 -->
<g id="node4" class="node"><title>AS12387</title>
<g id="a_node4"><a xlink:href="/asn/12387" xlink:title="AS12387 ~ TON Total optical Networks AG [CH]">
<ellipse fill="#ffffff" stroke="black" cx="176.388" cy="-612" rx="44.393" ry="18"/>
<text text-anchor="middle" x="176.388" y="-608.3" font-family="Times,serif" font-size="14.00" fill="#2c94b3">AS12387</text>
</a>
</g>
</g>
<!-- AS197964&#45;&gt;AS12387 -->
<g id="edge3" class="edge"><title>AS197964&#45;&gt;AS12387</title>
<path fill="none" stroke="black" stroke-width="1.40625" d="M59.4307,-413.676C81.5951,-451.584 133.8,-540.873 159.928,-585.559"/>
<polygon fill="black" stroke="black" stroke-width="1.40625" points="157.018,-587.516 165.087,-594.383 163.061,-583.983 157.018,-587.516"/>
</g>
<!-- AS2914 -->
<g id="node5" class="node"><title>AS2914</title>
<g id="a_node5"><a xlink:href="/asn/2914" xlink:title="AS2914 ~ NTT America, Inc. [US]">
<ellipse fill="#ffffff" stroke="black" cx="425.172" cy="-558" rx="39.7935" ry="18"/>
<text text-anchor="middle" x="425.172" y="-554.3" font-family="Times,serif" font-size="14.00" fill="#2c94b3">AS2914</text>
</a>
</g>
</g>
<!-- AS6830&#45;&gt;AS2914 -->
<g id="edge4" class="edge"><title>AS6830&#45;&gt;AS2914</title>
<path fill="none" stroke="black" d="M313.381,-413.098C322.324,-426.488 334.835,-445.683 344.976,-463 362.257,-492.509 357.678,-505.968 380.976,-531 383.536,-533.751 386.438,-536.333 389.495,-538.726"/>
<polygon fill="black" stroke="black" points="387.64,-541.701 397.829,-544.606 391.676,-535.981 387.64,-541.701"/>
</g>
<!-- AS701 -->
<g id="node6" class="node"><title>AS701</title>
<g id="a_node6"><a xlink:href="/asn/701" xlink:title="AS701 ~ UUNET [US]">
<ellipse fill="#ffffff" stroke="black" cx="425.172" cy="-342" rx="35.194" ry="18"/>
<text text-anchor="middle" x="425.172" y="-338.3" font-family="Times,serif" font-size="14.00" fill="#2c94b3">AS701</text>
</a>
</g>
</g>
<!-- AS6830&#45;&gt;AS701 -->
<g id="edge5" class="edge"><title>AS6830&#45;&gt;AS701</title>
<path fill="none" stroke="black" d="M329.859,-383.611C347.288,-375.922 369.845,-365.969 388.528,-357.726"/>
<polygon fill="black" stroke="black" points="390.162,-360.831 397.898,-353.592 387.336,-354.427 390.162,-360.831"/>
</g>
<!-- AS12956 -->
<g id="node7" class="node"><title>AS12956</title>
<g id="a_node7"><a xlink:href="/asn/12956" xlink:title="AS12956 ~ TELXIUS [ES]">
<ellipse fill="#ffffff" stroke="black" cx="425.172" cy="-450" rx="44.393" ry="18"/>
<text text-anchor="middle" x="425.172" y="-446.3" font-family="Times,serif" font-size="14.00" fill="#2c94b3">AS12956</text>
</a>
</g>
</g>
<!-- AS6830&#45;&gt;AS12956 -->
<g id="edge6" class="edge"><title>AS6830&#45;&gt;AS12956</title>
<path fill="none" stroke="black" d="M329.859,-408.389C346.175,-415.587 366.986,-424.769 384.905,-432.675"/>
<polygon fill="black" stroke="black" points="383.954,-436.081 394.516,-436.916 386.78,-429.677 383.954,-436.081"/>
</g>
<!-- AS2497 -->
<g id="node8" class="node"><title>AS2497</title>
<g id="a_node8"><a xlink:href="/asn/2497" xlink:title="AS2497 ~ Internet Initiative Japan Inc. [JP]">
<ellipse fill="#ffffff" stroke="black" cx="425.172" cy="-180" rx="39.7935" ry="18"/>
<text text-anchor="middle" x="425.172" y="-176.3" font-family="Times,serif" font-size="14.00" fill="#2c94b3">AS2497</text>
</a>
</g>
</g>
<!-- AS6830&#45;&gt;AS2497 -->
<g id="edge7" class="edge"><title>AS6830&#45;&gt;AS2497</title>
<path fill="none" stroke="black" d="M329.613,-383.162C335.428,-379.339 340.994,-374.633 344.976,-369 387.555,-308.775 338.397,-267.225 380.976,-207 382.967,-204.184 385.354,-201.599 387.97,-199.24"/>
<polygon fill="black" stroke="black" points="390.522,-201.694 396.338,-192.838 386.269,-196.135 390.522,-201.694"/>
</g>
<!-- AS1239 -->
<g id="node9" class="node"><title>AS1239</title>
<g id="a_node9"><a xlink:href="/asn/1239" xlink:title="AS1239 ~ Sprint [US]">
<ellipse fill="#ffffff" stroke="black" cx="425.172" cy="-504" rx="39.7935" ry="18"/>
<text text-anchor="middle" x="425.172" y="-500.3" font-family="Times,serif" font-size="14.00" fill="#2c94b3">AS1239</text>
</a>
</g>
</g>
<!-- AS6830&#45;&gt;AS1239 -->
<g id="edge8" class="edge"><title>AS6830&#45;&gt;AS1239</title>
<path fill="none" stroke="black" d="M315.932,-412.663C331.034,-429.894 356.155,-457.024 380.976,-477 384.231,-479.62 387.756,-482.192 391.341,-484.646"/>
<polygon fill="black" stroke="black" points="389.429,-487.577 399.714,-490.121 393.26,-481.719 389.429,-487.577"/>
</g>
<!-- AS3491 -->
<g id="node10" class="node"><title>AS3491</title>
<g id="a_node10"><a xlink:href="/asn/3491" xlink:title="AS3491 ~ PCCW Global, Inc. [US]">
<ellipse fill="#ffffff" stroke="black" cx="425.172" cy="-234" rx="39.7935" ry="18"/>
<text text-anchor="middle" x="425.172" y="-230.3" font-family="Times,serif" font-size="14.00" fill="#2c94b3">AS3491</text>
</a>
</g>
</g>
<!-- AS6830&#45;&gt;AS3491 -->
<g id="edge9" class="edge"><title>AS6830&#45;&gt;AS3491</title>
<path fill="none" stroke="black" d="M328.751,-383.145C334.74,-379.28 340.599,-374.559 344.976,-369 376.274,-329.246 349.677,-300.754 380.976,-261 383.301,-258.047 386.044,-255.33 389.004,-252.853"/>
<polygon fill="black" stroke="black" points="391.196,-255.585 397.2,-246.855 387.063,-249.936 391.196,-255.585"/>
</g>
<!-- AS7018 -->
<g id="node11" class="node"><title>AS7018</title>
<g id="a_node11"><a xlink:href="/asn/7018" xlink:title="AS7018 ~ AT&amp;T Services, Inc. [US]">
<ellipse fill="#ffffff" stroke="black" cx="425.172" cy="-288" rx="39.7935" ry="18"/>
<text text-anchor="middle" x="425.172" y="-284.3" font-family="Times,serif" font-size="14.00" fill="#2c94b3">AS7018</text>
</a>
</g>
</g>
<!-- AS6830&#45;&gt;AS7018 -->
<g id="edge10" class="edge"><title>AS6830&#45;&gt;AS7018</title>
<path fill="none" stroke="black" d="M327.309,-382.538C333.472,-378.638 339.773,-374.052 344.976,-369 365.669,-348.906 360.282,-335.094 380.976,-315 383.821,-312.237 386.995,-309.614 390.295,-307.166"/>
<polygon fill="black" stroke="black" points="392.36,-309.994 398.643,-301.462 388.411,-304.214 392.36,-309.994"/>
</g>
<!-- AS6453 -->
<g id="node12" class="node"><title>AS6453</title>
<g id="a_node12"><a xlink:href="/asn/6453" xlink:title="AS6453 ~ TATA COMMUNICATIONS (AMERICA) INC [US]">
<ellipse fill="#ffffff" stroke="black" cx="425.172" cy="-396" rx="39.7935" ry="18"/>
<text text-anchor="middle" x="425.172" y="-392.3" font-family="Times,serif" font-size="14.00" fill="#2c94b3">AS6453</text>
</a>
</g>
</g>
<!-- AS6830&#45;&gt;AS6453 -->
<g id="edge11" class="edge"><title>AS6830&#45;&gt;AS6453</title>
<path fill="none" stroke="black" d="M340.505,-396C351.444,-396 363.494,-396 374.961,-396"/>
<polygon fill="black" stroke="black" points="375.278,-399.5 385.278,-396 375.278,-392.5 375.278,-399.5"/>
</g>
<!-- AS3356 -->
<g id="node13" class="node"><title>AS3356</title>
<g id="a_node13"><a xlink:href="/asn/3356" xlink:title="AS3356 ~ Level 3 Parent, LLC [US]">
<ellipse fill="#ffffff" stroke="black" cx="300.78" cy="-99" rx="39.7935" ry="18"/>
<text text-anchor="middle" x="300.78" y="-95.3" font-family="Times,serif" font-size="14.00" fill="#2c94b3">AS3356</text>
</a>
</g>
</g>
<!-- AS8447&#45;&gt;AS3356 -->
<g id="edge12" class="edge"><title>AS8447&#45;&gt;AS3356</title>
<path fill="none" stroke="black" stroke-width="4" d="M184.515,-297.306C197.14,-266.78 225.087,-202.718 256.584,-153 262.978,-142.906 270.93,-132.498 278.262,-123.547"/>
<polygon fill="black" stroke="black" stroke-width="4" points="281.023,-125.701 284.758,-115.786 275.655,-121.207 281.023,-125.701"/>
</g>
<!-- AS1299 -->
<g id="node14" class="node"><title>AS1299</title>
<g id="a_node14"><a xlink:href="/asn/1299" xlink:title="AS1299 ~ Telia Carrier [EU]">
<ellipse fill="#ffffff" stroke="black" cx="300.78" cy="-288" rx="39.7935" ry="18"/>
<text text-anchor="middle" x="300.78" y="-284.3" font-family="Times,serif" font-size="14.00" fill="#2c94b3">AS1299</text>
</a>
</g>
</g>
<!-- AS8447&#45;&gt;AS1299 -->
<g id="edge13" class="edge"><title>AS8447&#45;&gt;AS1299</title>
<path fill="none" stroke="black" stroke-width="4" d="M212.46,-307.263C225.647,-304.354 240.827,-301.005 254.793,-297.924"/>
<polygon fill="black" stroke="black" stroke-width="4" points="255.691,-301.31 264.702,-295.738 254.183,-294.475 255.691,-301.31"/>
</g>
<!-- AS6762 -->
<g id="node15" class="node"><title>AS6762</title>
<g id="a_node15"><a xlink:href="/asn/6762" xlink:title="AS6762 ~ TELECOM ITALIA SPARKLE S.p.A. [IT]">
<ellipse fill="#ffffff" stroke="black" cx="425.172" cy="-612" rx="39.7935" ry="18"/>
<text text-anchor="middle" x="425.172" y="-608.3" font-family="Times,serif" font-size="14.00" fill="#2c94b3">AS6762</text>
</a>
</g>
</g>
<!-- AS8447&#45;&gt;AS6762 -->
<g id="edge14" class="edge"><title>AS8447&#45;&gt;AS6762</title>
<path fill="none" stroke="black" stroke-width="2" d="M189.459,-332.043C204.757,-353.503 232.086,-391.39 256.584,-423 294.579,-472.027 308.086,-481.136 344.976,-531 362.131,-554.188 360.282,-564.906 380.976,-585 383.821,-587.763 386.995,-590.386 390.295,-592.834"/>
<polygon fill="black" stroke="black" stroke-width="2" points="388.411,-595.786 398.643,-598.538 392.36,-590.006 388.411,-595.786"/>
</g>
<!-- AS6939 -->
<g id="node16" class="node"><title>AS6939</title>
<g id="a_node16"><a xlink:href="/asn/6939" xlink:title="AS6939 ~ Hurricane Electric LLC [US]">
<ellipse fill="#ffffff" stroke="black" cx="300.78" cy="-180" rx="39.7935" ry="18"/>
<text text-anchor="middle" x="300.78" y="-176.3" font-family="Times,serif" font-size="14.00" fill="#2c94b3">AS6939</text>
</a>
</g>
</g>
<!-- AS8447&#45;&gt;AS6939 -->
<g id="edge15" class="edge"><title>AS8447&#45;&gt;AS6939</title>
<path fill="none" stroke="black" stroke-width="4" d="M192.395,-298.446C213.775,-274.864 253.137,-231.447 277.805,-204.238"/>
<polygon fill="black" stroke="black" stroke-width="4" points="280.526,-206.448 284.649,-196.689 275.34,-201.747 280.526,-206.448"/>
</g>
<!-- AS3320 -->
<g id="node17" class="node"><title>AS3320</title>
<g id="a_node17"><a xlink:href="/asn/3320" xlink:title="AS3320 ~ DTAG [DE]">
<ellipse fill="#ffffff" stroke="black" cx="300.78" cy="-342" rx="39.7935" ry="18"/>
<text text-anchor="middle" x="300.78" y="-338.3" font-family="Times,serif" font-size="14.00" fill="#2c94b3">AS3320</text>
</a>
</g>
</g>
<!-- AS8447&#45;&gt;AS3320 -->
<g id="edge16" class="edge"><title>AS8447&#45;&gt;AS3320</title>
<path fill="none" stroke="black" stroke-width="2" d="M212.46,-322.737C225.647,-325.646 240.827,-328.995 254.793,-332.076"/>
<polygon fill="black" stroke="black" stroke-width="2" points="254.183,-335.525 264.702,-334.262 255.691,-328.69 254.183,-335.525"/>
</g>
<!-- AS33891 -->
<g id="node20" class="node"><title>AS33891</title>
<g id="a_node20"><a xlink:href="/asn/33891" xlink:title="AS33891 ~ CORE&#45;BACKBONE GMBH GLOBAL NETWORK [DE]">
<ellipse fill="#ffffff" stroke="black" cx="300.78" cy="-666" rx="44.393" ry="18"/>
<text text-anchor="middle" x="300.78" y="-662.3" font-family="Times,serif" font-size="14.00" fill="#2c94b3">AS33891</text>
</a>
</g>
</g>
<!-- AS12387&#45;&gt;AS33891 -->
<g id="edge20" class="edge"><title>AS12387&#45;&gt;AS33891</title>
<path fill="none" stroke="black" d="M207.015,-625.072C223.132,-632.183 243.272,-641.069 260.664,-648.742"/>
<polygon fill="black" stroke="black" points="259.439,-652.027 270.001,-652.861 262.264,-645.622 259.439,-652.027"/>
</g>
<!-- AS9002 -->
<g id="node21" class="node"><title>AS9002</title>
<g id="a_node21"><a xlink:href="/asn/9002" xlink:title="AS9002 ~ RETN Limited [EU]">
<ellipse fill="#ffffff" stroke="black" cx="300.78" cy="-612" rx="39.7935" ry="18"/>
<text text-anchor="middle" x="300.78" y="-608.3" font-family="Times,serif" font-size="14.00" fill="#2c94b3">AS9002</text>
</a>
</g>
</g>
<!-- AS12387&#45;&gt;AS9002 -->
<g id="edge21" class="edge"><title>AS12387&#45;&gt;AS9002</title>
<path fill="none" stroke="black" d="M220.883,-612C230.572,-612 240.909,-612 250.802,-612"/>
<polygon fill="black" stroke="black" points="250.904,-615.5 260.904,-612 250.904,-608.5 250.904,-615.5"/>
</g>
<!-- AS6730 -->
<g id="node22" class="node"><title>AS6730</title>
<g id="a_node22"><a xlink:href="/asn/6730" xlink:title="AS6730 ~ Sunrise Communications AG [CH]">
<ellipse fill="#ffffff" stroke="black" cx="300.78" cy="-720" rx="39.7935" ry="18"/>
<text text-anchor="middle" x="300.78" y="-716.3" font-family="Times,serif" font-size="14.00" fill="#2c94b3">AS6730</text>
</a>
</g>
</g>
<!-- AS12387&#45;&gt;AS6730 -->
<g id="edge22" class="edge"><title>AS12387&#45;&gt;AS6730</title>
<path fill="none" stroke="black" stroke-width="2" d="M191.82,-628.983C206.952,-646.229 231.916,-673.148 256.584,-693 259.839,-695.62 263.364,-698.192 266.949,-700.646"/>
<polygon fill="black" stroke="black" stroke-width="2" points="265.036,-703.577 275.321,-706.121 268.867,-697.719 265.036,-703.577"/>
</g>
<!-- AS43531 -->
<g id="node23" class="node"><title>AS43531</title>
<g id="a_node23"><a xlink:href="/asn/43531" xlink:title="AS43531 ~ IX Reach Ltd [GB]">
<ellipse fill="#ffffff" stroke="black" cx="300.78" cy="-558" rx="44.393" ry="18"/>
<text text-anchor="middle" x="300.78" y="-554.3" font-family="Times,serif" font-size="14.00" fill="#2c94b3">AS43531</text>
</a>
</g>
</g>
<!-- AS12387&#45;&gt;AS43531 -->
<g id="edge23" class="edge"><title>AS12387&#45;&gt;AS43531</title>
<path fill="none" stroke="black" d="M207.015,-598.928C223.132,-591.817 243.272,-582.931 260.664,-575.258"/>
<polygon fill="black" stroke="black" points="262.264,-578.378 270.001,-571.139 259.439,-571.973 262.264,-578.378"/>
</g>
<!-- AS3356&#45;&gt;AS2497 -->
<g id="edge18" class="edge"><title>AS3356&#45;&gt;AS2497</title>
<path fill="none" stroke="black" d="M323.137,-113.901C338.988,-124.877 361.191,-140.079 380.976,-153 384.558,-155.339 388.328,-157.759 392.089,-160.144"/>
<polygon fill="black" stroke="black" points="390.422,-163.231 400.749,-165.596 394.151,-157.307 390.422,-163.231"/>
</g>
<!-- AS3549 -->
<g id="node18" class="node"><title>AS3549</title>
<g id="a_node18"><a xlink:href="/asn/3549" xlink:title="AS3549 ~ Level 3 Parent, LLC [US]">
<ellipse fill="#ffffff" stroke="black" cx="425.172" cy="-18" rx="39.7935" ry="18"/>
<text text-anchor="middle" x="425.172" y="-14.3" font-family="Times,serif" font-size="14.00" fill="#2c94b3">AS3549</text>
</a>
</g>
</g>
<!-- AS3356&#45;&gt;AS3549 -->
<g id="edge17" class="edge"><title>AS3356&#45;&gt;AS3549</title>
<path fill="none" stroke="black" d="M323.137,-84.0991C338.988,-73.1227 361.191,-57.9213 380.976,-45 384.558,-42.6607 388.328,-40.2413 392.089,-37.8558"/>
<polygon fill="black" stroke="black" points="394.151,-40.6934 400.749,-32.4042 390.422,-34.7692 394.151,-40.6934"/>
</g>
<!-- AS209 -->
<g id="node19" class="node"><title>AS209</title>
<g id="a_node19"><a xlink:href="/asn/209" xlink:title="AS209 ~ CenturyLink Communications, LLC [US]">
<ellipse fill="#ffffff" stroke="black" cx="425.172" cy="-72" rx="35.194" ry="18"/>
<text text-anchor="middle" x="425.172" y="-68.3" font-family="Times,serif" font-size="14.00" fill="#2c94b3">AS209</text>
</a>
</g>
</g>
<!-- AS3356&#45;&gt;AS209 -->
<g id="edge19" class="edge"><title>AS3356&#45;&gt;AS209</title>
<path fill="none" stroke="black" d="M336.852,-91.2629C351.086,-88.1229 367.641,-84.4709 382.485,-81.1962"/>
<polygon fill="black" stroke="black" points="383.428,-84.5725 392.439,-79.0004 381.92,-77.7368 383.428,-84.5725"/>
</g>
<!-- AS1299&#45;&gt;AS7018 -->
<g id="edge33" class="edge"><title>AS1299&#45;&gt;AS7018</title>
<path fill="none" stroke="black" d="M340.505,-288C351.444,-288 363.494,-288 374.961,-288"/>
<polygon fill="black" stroke="black" points="375.278,-291.5 385.278,-288 375.278,-284.5 375.278,-291.5"/>
</g>
<!-- AS1299&#45;&gt;AS209 -->
<g id="edge34" class="edge"><title>AS1299&#45;&gt;AS209</title>
<path fill="none" stroke="black" d="M312.091,-270.723C321.445,-254.603 335.224,-229.696 344.976,-207 364.951,-160.513 349.677,-138.754 380.976,-99 383.622,-95.6386 386.811,-92.5835 390.242,-89.8389"/>
<polygon fill="black" stroke="black" points="392.381,-92.6142 398.549,-84.0004 388.355,-86.8873 392.381,-92.6142"/>
</g>
<!-- AS6939&#45;&gt;AS2497 -->
<g id="edge30" class="edge"><title>AS6939&#45;&gt;AS2497</title>
<path fill="none" stroke="black" d="M340.505,-180C351.444,-180 363.494,-180 374.961,-180"/>
<polygon fill="black" stroke="black" points="375.278,-183.5 385.278,-180 375.278,-176.5 375.278,-183.5"/>
</g>
<!-- AS6939&#45;&gt;AS3491 -->
<g id="edge27" class="edge"><title>AS6939&#45;&gt;AS3491</title>
<path fill="none" stroke="black" d="M329.859,-192.389C346.807,-199.866 368.604,-209.483 386.974,-217.588"/>
<polygon fill="black" stroke="black" points="385.661,-220.834 396.223,-221.669 388.487,-214.43 385.661,-220.834"/>
</g>
<!-- AS6939&#45;&gt;AS209 -->
<g id="edge29" class="edge"><title>AS6939&#45;&gt;AS209</title>
<path fill="none" stroke="black" d="M315.932,-163.337C331.034,-146.106 356.155,-118.976 380.976,-99 384.481,-96.1791 388.299,-93.4131 392.167,-90.7915"/>
<polygon fill="black" stroke="black" points="394.124,-93.6938 400.613,-85.318 390.317,-87.8195 394.124,-93.6938"/>
</g>
<!-- AS1273 -->
<g id="node26" class="node"><title>AS1273</title>
<g id="a_node26"><a xlink:href="/asn/1273" xlink:title="AS1273 ~ Vodafone Group PLC [EU]">
<ellipse fill="#ffffff" stroke="black" cx="425.172" cy="-126" rx="39.7935" ry="18"/>
<text text-anchor="middle" x="425.172" y="-122.3" font-family="Times,serif" font-size="14.00" fill="#2c94b3">AS1273</text>
</a>
</g>
</g>
<!-- AS6939&#45;&gt;AS1273 -->
<g id="edge28" class="edge"><title>AS6939&#45;&gt;AS1273</title>
<path fill="none" stroke="black" d="M329.859,-167.611C346.807,-160.134 368.604,-150.517 386.974,-142.412"/>
<polygon fill="black" stroke="black" points="388.487,-145.57 396.223,-138.331 385.661,-139.166 388.487,-145.57"/>
</g>
<!-- AS3320&#45;&gt;AS701 -->
<g id="edge31" class="edge"><title>AS3320&#45;&gt;AS701</title>
<path fill="none" stroke="black" d="M340.505,-342C352.994,-342 366.933,-342 379.797,-342"/>
<polygon fill="black" stroke="black" points="379.835,-345.5 389.835,-342 379.835,-338.5 379.835,-345.5"/>
</g>
<!-- AS3320&#45;&gt;AS6453 -->
<g id="edge32" class="edge"><title>AS3320&#45;&gt;AS6453</title>
<path fill="none" stroke="black" d="M329.859,-354.389C346.807,-361.866 368.604,-371.483 386.974,-379.588"/>
<polygon fill="black" stroke="black" points="385.661,-382.834 396.223,-383.669 388.487,-376.43 385.661,-382.834"/>
</g>
<!-- AS3257 -->
<g id="node24" class="node"><title>AS3257</title>
<g id="a_node24"><a xlink:href="/asn/3257" xlink:title="AS3257 ~ GTT [DE]">
<ellipse fill="#ffffff" stroke="black" cx="425.172" cy="-666" rx="39.7935" ry="18"/>
<text text-anchor="middle" x="425.172" y="-662.3" font-family="Times,serif" font-size="14.00" fill="#2c94b3">AS3257</text>
</a>
</g>
</g>
<!-- AS33891&#45;&gt;AS3257 -->
<g id="edge24" class="edge"><title>AS33891&#45;&gt;AS3257</title>
<path fill="none" stroke="black" d="M345.275,-666C354.964,-666 365.301,-666 375.194,-666"/>
<polygon fill="black" stroke="black" points="375.296,-669.5 385.296,-666 375.296,-662.5 375.296,-669.5"/>
</g>
<!-- AS9002&#45;&gt;AS6762 -->
<g id="edge25" class="edge"><title>AS9002&#45;&gt;AS6762</title>
<path fill="none" stroke="black" d="M340.505,-612C351.444,-612 363.494,-612 374.961,-612"/>
<polygon fill="black" stroke="black" points="375.278,-615.5 385.278,-612 375.278,-608.5 375.278,-615.5"/>
</g>
<!-- AS174 -->
<g id="node25" class="node"><title>AS174</title>
<g id="a_node25"><a xlink:href="/asn/174" xlink:title="AS174 ~ Cogent Communications [US]">
<ellipse fill="#ffffff" stroke="black" cx="425.172" cy="-720" rx="35.194" ry="18"/>
<text text-anchor="middle" x="425.172" y="-716.3" font-family="Times,serif" font-size="14.00" fill="#2c94b3">AS174</text>
</a>
</g>
</g>
<!-- AS6730&#45;&gt;AS174 -->
<g id="edge26" class="edge"><title>AS6730&#45;&gt;AS174</title>
<path fill="none" stroke="black" stroke-width="2" d="M340.505,-720C352.994,-720 366.933,-720 379.797,-720"/>
<polygon fill="black" stroke="black" stroke-width="2" points="379.835,-723.5 389.835,-720 379.835,-716.5 379.835,-723.5"/>
</g>
<!-- AS43531&#45;&gt;AS2914 -->
<g id="edge35" class="edge"><title>AS43531&#45;&gt;AS2914</title>
<path fill="none" stroke="black" d="M345.275,-558C354.964,-558 365.301,-558 375.194,-558"/>
<polygon fill="black" stroke="black" points="375.296,-561.5 385.296,-558 375.296,-554.5 375.296,-561.5"/>
</g>
</g>
</svg>
