<?xml version="1.0" encoding="UTF-8" standalone="no"?>
<!DOCTYPE svg PUBLIC "-//W3C//DTD SVG 1.1//EN"
 "http://www.w3.org/Graphics/SVG/1.1/DTD/svg11.dtd">
<!-- Generated by graphviz version 2.38.0 (20140413.2041)
 -->
<!-- Title: AS39560 IPv4 Upstream Graph Pages: 1 -->
<svg width="576pt" height="649pt"
 viewBox="0.00 0.00 575.76 649.00" xmlns="http://www.w3.org/2000/svg" xmlns:xlink="http://www.w3.org/1999/xlink">
<g id="graph0" class="graph" transform="scale(1 1) rotate(0) translate(4 645)">
<title>AS39560 IPv4 Upstream Graph</title>
<polygon fill="white" stroke="none" points="-4,4 -4,-645 571.762,-645 571.762,4 -4,4"/>
<!-- AS39560 -->
<g id="node1" class="node"><title>AS39560</title>
<g id="a_node1"><a xlink:href="/asn/39560" xlink:title="AS39560 ~ KT&#45;NET Communications GmbH [AT]">
<ellipse fill="#ffffff" stroke="black" cx="44.1961" cy="-245" rx="44.393" ry="18"/>
<text text-anchor="middle" x="44.1961" y="-241.3" font-family="Times,serif" font-size="14.00" fill="#880000">AS39560</text>
</a>
</g>
</g>
<!-- AS174 -->
<g id="node2" class="node"><title>AS174</title>
<g id="a_node2"><a xlink:href="/asn/174" xlink:title="AS174 ~ Cogent Communications [US]">
<ellipse fill="#ffffff" stroke="black" cx="168.588" cy="-434" rx="35.194" ry="18"/>
<text text-anchor="middle" x="168.588" y="-430.3" font-family="Times,serif" font-size="14.00" fill="#2c94b3">AS174</text>
</a>
</g>
</g>
<!-- AS39560&#45;&gt;AS174 -->
<g id="edge1" class="edge"><title>AS39560&#45;&gt;AS174</title>
<path fill="none" stroke="black" stroke-width="4.5" d="M56.4911,-262.442C78.1315,-295.859 125.532,-369.057 150.857,-408.163"/>
<polygon fill="black" stroke="black" stroke-width="4.5" points="147.757,-410.62 156.497,-416.873 154.367,-406.339 147.757,-410.62"/>
</g>
<!-- AS1299 -->
<g id="node3" class="node"><title>AS1299</title>
<g id="a_node3"><a xlink:href="/asn/1299" xlink:title="AS1299 ~ Telia Carrier [EU]">
<ellipse fill="#ffffff" stroke="black" cx="168.588" cy="-245" rx="39.7935" ry="18"/>
<text text-anchor="middle" x="168.588" y="-241.3" font-family="Times,serif" font-size="14.00" fill="#2c94b3">AS1299</text>
</a>
</g>
</g>
<!-- AS39560&#45;&gt;AS1299 -->
<g id="edge2" class="edge"><title>AS39560&#45;&gt;AS1299</title>
<path fill="none" stroke="black" stroke-width="4.5" d="M88.6916,-245C98.3806,-245 108.717,-245 118.61,-245"/>
<polygon fill="black" stroke="black" stroke-width="4.5" points="118.713,-248.938 128.713,-245 118.713,-241.063 118.713,-248.938"/>
</g>
<!-- AS39912 -->
<g id="node4" class="node"><title>AS39912</title>
<g id="a_node4"><a xlink:href="/asn/39912" xlink:title="AS39912 ~ oja.at GmbH [AT]">
<ellipse fill="#ffffff" stroke="black" cx="168.588" cy="-118" rx="44.393" ry="18"/>
<text text-anchor="middle" x="168.588" y="-114.3" font-family="Times,serif" font-size="14.00" fill="#2c94b3">AS39912</text>
</a>
</g>
</g>
<!-- AS39560&#45;&gt;AS39912 -->
<g id="edge3" class="edge"><title>AS39560&#45;&gt;AS39912</title>
<path fill="none" stroke="black" stroke-width="2.25" d="M61.4488,-228.135C82.6634,-206.122 119.938,-167.444 144.192,-142.278"/>
<polygon fill="black" stroke="black" stroke-width="2.25" points="146.849,-144.564 151.268,-134.934 141.809,-139.706 146.849,-144.564"/>
</g>
<!-- AS2914 -->
<g id="node5" class="node"><title>AS2914</title>
<g id="a_node5"><a xlink:href="/asn/2914" xlink:title="AS2914 ~ NTT America, Inc. [US]">
<ellipse fill="#ffffff" stroke="black" cx="292.98" cy="-407" rx="39.7935" ry="18"/>
<text text-anchor="middle" x="292.98" y="-403.3" font-family="Times,serif" font-size="14.00" fill="#2c94b3">AS2914</text>
</a>
</g>
</g>
<!-- AS174&#45;&gt;AS2914 -->
<g id="edge4" class="edge"><title>AS174&#45;&gt;AS2914</title>
<path fill="none" stroke="black" d="M201.107,-427.047C215.168,-423.945 231.986,-420.235 247.31,-416.854"/>
<polygon fill="black" stroke="black" points="248.109,-420.262 257.12,-414.69 246.601,-413.427 248.109,-420.262"/>
</g>
<!-- AS6762 -->
<g id="node6" class="node"><title>AS6762</title>
<g id="a_node6"><a xlink:href="/asn/6762" xlink:title="AS6762 ~ TELECOM ITALIA SPARKLE S.p.A. [IT]">
<ellipse fill="#ffffff" stroke="black" cx="292.98" cy="-353" rx="39.7935" ry="18"/>
<text text-anchor="middle" x="292.98" y="-349.3" font-family="Times,serif" font-size="14.00" fill="#2c94b3">AS6762</text>
</a>
</g>
</g>
<!-- AS174&#45;&gt;AS6762 -->
<g id="edge5" class="edge"><title>AS174&#45;&gt;AS6762</title>
<path fill="none" stroke="black" d="M190.279,-419.56C206.17,-408.551 228.721,-393.103 248.784,-380 252.366,-377.661 256.137,-375.241 259.897,-372.856"/>
<polygon fill="black" stroke="black" points="261.959,-375.693 268.558,-367.404 258.23,-369.769 261.959,-375.693"/>
</g>
<!-- AS12956 -->
<g id="node7" class="node"><title>AS12956</title>
<g id="a_node7"><a xlink:href="/asn/12956" xlink:title="AS12956 ~ TELXIUS [ES]">
<ellipse fill="#ffffff" stroke="black" cx="292.98" cy="-623" rx="44.393" ry="18"/>
<text text-anchor="middle" x="292.98" y="-619.3" font-family="Times,serif" font-size="14.00" fill="#2c94b3">AS12956</text>
</a>
</g>
</g>
<!-- AS174&#45;&gt;AS12956 -->
<g id="edge6" class="edge"><title>AS174&#45;&gt;AS12956</title>
<path fill="none" stroke="black" d="M174.726,-451.94C184.629,-483.979 208.966,-551.812 248.784,-596 251.104,-598.575 253.726,-600.994 256.503,-603.244"/>
<polygon fill="black" stroke="black" points="254.469,-606.092 264.618,-609.132 258.579,-600.426 254.469,-606.092"/>
</g>
<!-- AS701 -->
<g id="node8" class="node"><title>AS701</title>
<g id="a_node8"><a xlink:href="/asn/701" xlink:title="AS701 ~ UUNET [US]">
<ellipse fill="#ffffff" stroke="black" cx="292.98" cy="-569" rx="35.194" ry="18"/>
<text text-anchor="middle" x="292.98" y="-565.3" font-family="Times,serif" font-size="14.00" fill="#2c94b3">AS701</text>
</a>
</g>
</g>
<!-- AS174&#45;&gt;AS701 -->
<g id="edge7" class="edge"><title>AS174&#45;&gt;AS701</title>
<path fill="none" stroke="black" d="M179.401,-451.279C192.907,-474.011 218.967,-514.314 248.784,-542 252.081,-545.061 255.774,-547.972 259.575,-550.672"/>
<polygon fill="black" stroke="black" points="257.686,-553.619 267.956,-556.22 261.549,-547.781 257.686,-553.619"/>
</g>
<!-- AS6453 -->
<g id="node9" class="node"><title>AS6453</title>
<g id="a_node9"><a xlink:href="/asn/6453" xlink:title="AS6453 ~ TATA COMMUNICATIONS (AMERICA) INC [US]">
<ellipse fill="#ffffff" stroke="black" cx="292.98" cy="-515" rx="39.7935" ry="18"/>
<text text-anchor="middle" x="292.98" y="-511.3" font-family="Times,serif" font-size="14.00" fill="#2c94b3">AS6453</text>
</a>
</g>
</g>
<!-- AS174&#45;&gt;AS6453 -->
<g id="edge8" class="edge"><title>AS174&#45;&gt;AS6453</title>
<path fill="none" stroke="black" d="M190.279,-448.44C206.17,-459.449 228.721,-474.897 248.784,-488 252.366,-490.339 256.137,-492.759 259.897,-495.144"/>
<polygon fill="black" stroke="black" points="258.23,-498.231 268.558,-500.596 261.959,-492.307 258.23,-498.231"/>
</g>
<!-- AS3491 -->
<g id="node10" class="node"><title>AS3491</title>
<g id="a_node10"><a xlink:href="/asn/3491" xlink:title="AS3491 ~ PCCW Global, Inc. [US]">
<ellipse fill="#ffffff" stroke="black" cx="292.98" cy="-461" rx="39.7935" ry="18"/>
<text text-anchor="middle" x="292.98" y="-457.3" font-family="Times,serif" font-size="14.00" fill="#2c94b3">AS3491</text>
</a>
</g>
</g>
<!-- AS174&#45;&gt;AS3491 -->
<g id="edge9" class="edge"><title>AS174&#45;&gt;AS3491</title>
<path fill="none" stroke="black" d="M201.107,-440.953C215.168,-444.055 231.986,-447.765 247.31,-451.146"/>
<polygon fill="black" stroke="black" points="246.601,-454.573 257.12,-453.31 248.109,-447.738 246.601,-454.573"/>
</g>
<!-- AS1239 -->
<g id="node11" class="node"><title>AS1239</title>
<g id="a_node11"><a xlink:href="/asn/1239" xlink:title="AS1239 ~ Sprint [US]">
<ellipse fill="#ffffff" stroke="black" cx="292.98" cy="-299" rx="39.7935" ry="18"/>
<text text-anchor="middle" x="292.98" y="-295.3" font-family="Times,serif" font-size="14.00" fill="#2c94b3">AS1239</text>
</a>
</g>
</g>
<!-- AS174&#45;&gt;AS1239 -->
<g id="edge10" class="edge"><title>AS174&#45;&gt;AS1239</title>
<path fill="none" stroke="black" d="M179.401,-416.721C192.907,-393.989 218.967,-353.686 248.784,-326 251.691,-323.301 254.904,-320.72 258.228,-318.297"/>
<polygon fill="black" stroke="black" points="260.287,-321.13 266.606,-312.625 256.363,-315.333 260.287,-321.13"/>
</g>
<!-- AS1299&#45;&gt;AS2914 -->
<g id="edge12" class="edge"><title>AS1299&#45;&gt;AS2914</title>
<path fill="none" stroke="black" d="M176.779,-262.975C188.546,-290.682 214.12,-344.348 248.784,-380 251.404,-382.695 254.345,-385.239 257.428,-387.608"/>
<polygon fill="black" stroke="black" points="255.594,-390.597 265.796,-393.455 259.603,-384.859 255.594,-390.597"/>
</g>
<!-- AS1299&#45;&gt;AS6762 -->
<g id="edge13" class="edge"><title>AS1299&#45;&gt;AS6762</title>
<path fill="none" stroke="black" d="M183.74,-261.663C198.842,-278.894 223.963,-306.024 248.784,-326 252.04,-328.62 255.565,-331.192 259.149,-333.646"/>
<polygon fill="black" stroke="black" points="257.237,-336.577 267.522,-339.121 261.068,-330.719 257.237,-336.577"/>
</g>
<!-- AS1299&#45;&gt;AS1239 -->
<g id="edge15" class="edge"><title>AS1299&#45;&gt;AS1239</title>
<path fill="none" stroke="black" d="M197.667,-257.389C214.615,-264.866 236.413,-274.483 254.782,-282.588"/>
<polygon fill="black" stroke="black" points="253.47,-285.834 264.032,-286.669 256.296,-279.43 253.47,-285.834"/>
</g>
<!-- AS2497 -->
<g id="node12" class="node"><title>AS2497</title>
<g id="a_node12"><a xlink:href="/asn/2497" xlink:title="AS2497 ~ Internet Initiative Japan Inc. [JP]">
<ellipse fill="#ffffff" stroke="black" cx="292.98" cy="-245" rx="39.7935" ry="18"/>
<text text-anchor="middle" x="292.98" y="-241.3" font-family="Times,serif" font-size="14.00" fill="#2c94b3">AS2497</text>
</a>
</g>
</g>
<!-- AS1299&#45;&gt;AS2497 -->
<g id="edge11" class="edge"><title>AS1299&#45;&gt;AS2497</title>
<path fill="none" stroke="black" d="M208.314,-245C219.252,-245 231.303,-245 242.769,-245"/>
<polygon fill="black" stroke="black" points="243.087,-248.5 253.087,-245 243.087,-241.5 243.087,-248.5"/>
</g>
<!-- AS3257 -->
<g id="node13" class="node"><title>AS3257</title>
<g id="a_node13"><a xlink:href="/asn/3257" xlink:title="AS3257 ~ GTT [DE]">
<ellipse fill="#ffffff" stroke="black" cx="412.823" cy="-149" rx="39.7935" ry="18"/>
<text text-anchor="middle" x="412.823" y="-145.3" font-family="Times,serif" font-size="14.00" fill="#2c94b3">AS3257</text>
</a>
</g>
</g>
<!-- AS1299&#45;&gt;AS3257 -->
<g id="edge14" class="edge"><title>AS1299&#45;&gt;AS3257</title>
<path fill="none" stroke="black" d="M199.643,-233.588C233.247,-220.772 289.248,-199.244 337.176,-180 349.08,-175.221 361.999,-169.902 373.692,-165.039"/>
<polygon fill="black" stroke="black" points="375.294,-168.163 383.176,-161.083 372.599,-161.703 375.294,-168.163"/>
</g>
<!-- AS7018 -->
<g id="node14" class="node"><title>AS7018</title>
<g id="a_node14"><a xlink:href="/asn/7018" xlink:title="AS7018 ~ AT&amp;T Services, Inc. [US]">
<ellipse fill="#ffffff" stroke="black" cx="292.98" cy="-153" rx="39.7935" ry="18"/>
<text text-anchor="middle" x="292.98" y="-149.3" font-family="Times,serif" font-size="14.00" fill="#2c94b3">AS7018</text>
</a>
</g>
</g>
<!-- AS1299&#45;&gt;AS7018 -->
<g id="edge16" class="edge"><title>AS1299&#45;&gt;AS7018</title>
<path fill="none" stroke="black" d="M189.725,-229.65C205.704,-217.492 228.629,-200.1 248.784,-185 253.359,-181.573 258.218,-177.953 262.962,-174.43"/>
<polygon fill="black" stroke="black" points="265.344,-177.022 271.293,-168.255 261.175,-171.398 265.344,-177.022"/>
</g>
<!-- AS6461 -->
<g id="node15" class="node"><title>AS6461</title>
<g id="a_node15"><a xlink:href="/asn/6461" xlink:title="AS6461 ~ Zayo Bandwidth [US]">
<ellipse fill="#ffffff" stroke="black" cx="292.98" cy="-99" rx="39.7935" ry="18"/>
<text text-anchor="middle" x="292.98" y="-95.3" font-family="Times,serif" font-size="14.00" fill="#2c94b3">AS6461</text>
</a>
</g>
</g>
<!-- AS1299&#45;&gt;AS6461 -->
<g id="edge17" class="edge"><title>AS1299&#45;&gt;AS6461</title>
<path fill="none" stroke="black" d="M178.342,-227.164C191.192,-202.292 217.106,-156.786 248.784,-126 251.628,-123.236 254.802,-120.612 258.101,-118.163"/>
<polygon fill="black" stroke="black" points="260.167,-120.991 266.448,-112.459 256.217,-115.212 260.167,-120.991"/>
</g>
<!-- AS33891 -->
<g id="node16" class="node"><title>AS33891</title>
<g id="a_node16"><a xlink:href="/asn/33891" xlink:title="AS33891 ~ CORE&#45;BACKBONE GMBH GLOBAL NETWORK [DE]">
<ellipse fill="#ffffff" stroke="black" cx="292.98" cy="-45" rx="44.393" ry="18"/>
<text text-anchor="middle" x="292.98" y="-41.3" font-family="Times,serif" font-size="14.00" fill="#2c94b3">AS33891</text>
</a>
</g>
</g>
<!-- AS39912&#45;&gt;AS33891 -->
<g id="edge18" class="edge"><title>AS39912&#45;&gt;AS33891</title>
<path fill="none" stroke="black" stroke-width="4" d="M194.356,-103.227C212.853,-92.1948 238.332,-76.9983 258.622,-64.8964"/>
<polygon fill="black" stroke="black" stroke-width="4" points="260.454,-67.8791 267.249,-59.7507 256.868,-61.8673 260.454,-67.8791"/>
</g>
<!-- AS33891&#45;&gt;AS3257 -->
<g id="edge20" class="edge"><title>AS33891&#45;&gt;AS3257</title>
<path fill="none" stroke="black" d="M319.809,-59.7185C325.706,-63.4633 331.812,-67.6637 337.176,-72 356.782,-87.8471 376.53,-108.471 390.786,-124.385"/>
<polygon fill="black" stroke="black" points="388.468,-127.048 397.71,-132.228 393.715,-122.415 388.468,-127.048"/>
</g>
<!-- AS3356 -->
<g id="node17" class="node"><title>AS3356</title>
<g id="a_node17"><a xlink:href="/asn/3356" xlink:title="AS3356 ~ Level 3 Parent, LLC [US]">
<ellipse fill="#ffffff" stroke="black" cx="412.823" cy="-45" rx="39.7935" ry="18"/>
<text text-anchor="middle" x="412.823" y="-41.3" font-family="Times,serif" font-size="14.00" fill="#2c94b3">AS3356</text>
</a>
</g>
</g>
<!-- AS33891&#45;&gt;AS3356 -->
<g id="edge19" class="edge"><title>AS33891&#45;&gt;AS3356</title>
<path fill="none" stroke="black" stroke-width="3" d="M337.191,-45C345.504,-45 354.267,-45 362.749,-45"/>
<polygon fill="black" stroke="black" stroke-width="3" points="362.908,-48.5001 372.908,-45 362.908,-41.5001 362.908,-48.5001"/>
</g>
<!-- AS3549 -->
<g id="node18" class="node"><title>AS3549</title>
<g id="a_node18"><a xlink:href="/asn/3549" xlink:title="AS3549 ~ Level 3 Parent, LLC [US]">
<ellipse fill="#ffffff" stroke="black" cx="528.116" cy="-72" rx="39.7935" ry="18"/>
<text text-anchor="middle" x="528.116" y="-68.3" font-family="Times,serif" font-size="14.00" fill="#2c94b3">AS3549</text>
</a>
</g>
</g>
<!-- AS3356&#45;&gt;AS3549 -->
<g id="edge21" class="edge"><title>AS3356&#45;&gt;AS3549</title>
<path fill="none" stroke="black" d="M448.43,-53.2476C459.301,-55.8384 471.456,-58.7351 482.898,-61.4621"/>
<polygon fill="black" stroke="black" points="482.182,-64.8892 492.721,-63.8029 483.804,-58.0799 482.182,-64.8892"/>
</g>
<!-- AS209 -->
<g id="node19" class="node"><title>AS209</title>
<g id="a_node19"><a xlink:href="/asn/209" xlink:title="AS209 ~ CenturyLink Communications, LLC [US]">
<ellipse fill="#ffffff" stroke="black" cx="528.116" cy="-18" rx="35.194" ry="18"/>
<text text-anchor="middle" x="528.116" y="-14.3" font-family="Times,serif" font-size="14.00" fill="#2c94b3">AS209</text>
</a>
</g>
</g>
<!-- AS3356&#45;&gt;AS209 -->
<g id="edge22" class="edge"><title>AS3356&#45;&gt;AS209</title>
<path fill="none" stroke="black" d="M448.43,-36.7524C460.225,-33.9415 473.529,-30.7708 485.797,-27.8471"/>
<polygon fill="black" stroke="black" points="486.886,-31.1858 495.802,-25.4628 485.263,-24.3765 486.886,-31.1858"/>
</g>
</g>
</svg>
