<?xml version="1.0" encoding="UTF-8" standalone="no"?>
<!DOCTYPE svg PUBLIC "-//W3C//DTD SVG 1.1//EN"
 "http://www.w3.org/Graphics/SVG/1.1/DTD/svg11.dtd">
<!-- Generated by graphviz version 2.38.0 (20140413.2041)
 -->
<!-- Title: AS39560 Combined Upstream Graph Pages: 1 -->
<svg width="576pt" height="540pt"
 viewBox="0.00 0.00 575.76 540.35" xmlns="http://www.w3.org/2000/svg" xmlns:xlink="http://www.w3.org/1999/xlink">
<g id="graph0" class="graph" transform="scale(1 1) rotate(0) translate(4 536.346)">
<title>AS39560 Combined Upstream Graph</title>
<polygon fill="white" stroke="none" points="-4,4 -4,-536.346 571.762,-536.346 571.762,4 -4,4"/>
<!-- AS39560 -->
<g id="node1" class="node"><title>AS39560</title>
<g id="a_node1"><a xlink:href="/asn/39560" xlink:title="AS39560 ~ KT&#45;NET Communications GmbH [AT]">
<ellipse fill="#ffffff" stroke="black" cx="44.1961" cy="-234" rx="44.393" ry="18"/>
<text text-anchor="middle" x="44.1961" y="-230.3" font-family="Times,serif" font-size="14.00" fill="#880000">AS39560</text>
</a>
</g>
</g>
<!-- AS174 -->
<g id="node2" class="node"><title>AS174</title>
<g id="a_node2"><a xlink:href="/asn/174" xlink:title="AS174 ~ Cogent Communications [US]">
<ellipse fill="#ffffff" stroke="black" cx="292.98" cy="-148" rx="35.194" ry="18"/>
<text text-anchor="middle" x="292.98" y="-144.3" font-family="Times,serif" font-size="14.00" fill="#2c94b3">AS174</text>
</a>
</g>
</g>
<!-- AS39560&#45;&gt;AS174 -->
<g id="edge1" class="edge"><title>AS39560&#45;&gt;AS174</title>
<path fill="none" stroke="black" stroke-width="2.25" d="M78.2224,-222.491C123.714,-206.638 205.48,-178.144 253.624,-161.367"/>
<polygon fill="black" stroke="black" stroke-width="2.25" points="255.07,-164.569 263.362,-157.973 252.767,-157.959 255.07,-164.569"/>
</g>
<!-- AS1299 -->
<g id="node3" class="node"><title>AS1299</title>
<g id="a_node3"><a xlink:href="/asn/1299" xlink:title="AS1299 ~ Telia Carrier [EU]">
<ellipse fill="#ffffff" stroke="black" cx="168.588" cy="-279" rx="39.7935" ry="18"/>
<text text-anchor="middle" x="168.588" y="-275.3" font-family="Times,serif" font-size="14.00" fill="#2c94b3">AS1299</text>
</a>
</g>
</g>
<!-- AS39560&#45;&gt;AS1299 -->
<g id="edge2" class="edge"><title>AS39560&#45;&gt;AS1299</title>
<path fill="none" stroke="black" stroke-width="4.5" d="M77.6736,-245.941C92.9218,-251.547 111.246,-258.285 127.363,-264.211"/>
<polygon fill="black" stroke="black" stroke-width="4.5" points="126.322,-268.023 137.066,-267.778 129.039,-260.631 126.322,-268.023"/>
</g>
<!-- AS6939 -->
<g id="node4" class="node"><title>AS6939</title>
<g id="a_node4"><a xlink:href="/asn/6939" xlink:title="AS6939 ~ Hurricane Electric LLC [US]">
<ellipse fill="#ffffff" stroke="black" cx="292.98" cy="-478" rx="39.7935" ry="18"/>
<text text-anchor="middle" x="292.98" y="-474.3" font-family="Times,serif" font-size="14.00" fill="#2c94b3">AS6939</text>
</a>
</g>
</g>
<!-- AS39560&#45;&gt;AS6939 -->
<g id="edge3" class="edge"><title>AS39560&#45;&gt;AS6939</title>
<path fill="none" stroke="black" stroke-width="1.40625" d="M58.7019,-251.191C89.6041,-289.853 168.968,-385.398 248.784,-451 252.013,-453.653 255.521,-456.247 259.095,-458.713"/>
<polygon fill="black" stroke="black" stroke-width="1.40625" points="257.176,-461.639 267.457,-464.201 261.017,-455.788 257.176,-461.639"/>
</g>
<!-- AS39912 -->
<g id="node5" class="node"><title>AS39912</title>
<g id="a_node5"><a xlink:href="/asn/39912" xlink:title="AS39912 ~ oja.at GmbH [AT]">
<ellipse fill="#ffffff" stroke="black" cx="168.588" cy="-102" rx="44.393" ry="18"/>
<text text-anchor="middle" x="168.588" y="-98.3" font-family="Times,serif" font-size="14.00" fill="#2c94b3">AS39912</text>
</a>
</g>
</g>
<!-- AS39560&#45;&gt;AS39912 -->
<g id="edge4" class="edge"><title>AS39560&#45;&gt;AS39912</title>
<path fill="none" stroke="black" stroke-width="0.28125" d="M60.6971,-217.282C82.0076,-194.299 120.494,-152.791 145.006,-126.355"/>
<polygon fill="black" stroke="black" stroke-width="0.28125" points="147.594,-128.712 151.826,-118.999 142.461,-123.952 147.594,-128.712"/>
</g>
<!-- AS6762 -->
<g id="node6" class="node"><title>AS6762</title>
<g id="a_node6"><a xlink:href="/asn/6762" xlink:title="AS6762 ~ TELECOM ITALIA SPARKLE S.p.A. [IT]">
<ellipse fill="#ffffff" stroke="black" cx="412.823" cy="-340" rx="39.7935" ry="18"/>
<text text-anchor="middle" x="412.823" y="-336.3" font-family="Times,serif" font-size="14.00" fill="#2c94b3">AS6762</text>
</a>
</g>
</g>
<!-- AS174&#45;&gt;AS6762 -->
<g id="edge5" class="edge"><title>AS174&#45;&gt;AS6762</title>
<path fill="none" stroke="black" d="M319.87,-159.798C326.321,-163.813 332.673,-168.871 337.176,-175 374.708,-226.08 336.964,-260.976 373.176,-313 374.842,-315.393 376.793,-317.643 378.917,-319.743"/>
<polygon fill="black" stroke="black" points="376.753,-322.498 386.643,-326.298 381.282,-317.16 376.753,-322.498"/>
</g>
<!-- AS3491 -->
<g id="node7" class="node"><title>AS3491</title>
<g id="a_node7"><a xlink:href="/asn/3491" xlink:title="AS3491 ~ PCCW Global, Inc. [US]">
<ellipse fill="#ffffff" stroke="black" cx="412.823" cy="-286" rx="39.7935" ry="18"/>
<text text-anchor="middle" x="412.823" y="-282.3" font-family="Times,serif" font-size="14.00" fill="#2c94b3">AS3491</text>
</a>
</g>
</g>
<!-- AS174&#45;&gt;AS3491 -->
<g id="edge6" class="edge"><title>AS174&#45;&gt;AS3491</title>
<path fill="none" stroke="black" d="M319.229,-160.31C325.678,-164.327 332.189,-169.258 337.176,-175 363.01,-204.742 348.884,-224.986 373.176,-256 375.64,-259.145 378.502,-262.147 381.534,-264.952"/>
<polygon fill="black" stroke="black" points="379.388,-267.72 389.289,-271.49 383.9,-262.368 379.388,-267.72"/>
</g>
<!-- AS2914 -->
<g id="node8" class="node"><title>AS2914</title>
<g id="a_node8"><a xlink:href="/asn/2914" xlink:title="AS2914 ~ NTT America, Inc. [US]">
<ellipse fill="#ffffff" stroke="black" cx="412.823" cy="-394" rx="39.7935" ry="18"/>
<text text-anchor="middle" x="412.823" y="-390.3" font-family="Times,serif" font-size="14.00" fill="#2c94b3">AS2914</text>
</a>
</g>
</g>
<!-- AS174&#45;&gt;AS2914 -->
<g id="edge7" class="edge"><title>AS174&#45;&gt;AS2914</title>
<path fill="none" stroke="black" d="M320.156,-159.595C326.608,-163.609 332.89,-168.717 337.176,-175 386.109,-246.717 326.094,-294.055 373.176,-367 374.758,-369.45 376.647,-371.741 378.729,-373.869"/>
<polygon fill="black" stroke="black" points="376.521,-376.587 386.375,-380.477 381.098,-371.291 376.521,-376.587"/>
</g>
<!-- AS3257 -->
<g id="node9" class="node"><title>AS3257</title>
<g id="a_node9"><a xlink:href="/asn/3257" xlink:title="AS3257 ~ GTT [DE]">
<ellipse fill="#ffffff" stroke="black" cx="412.823" cy="-118" rx="39.7935" ry="18"/>
<text text-anchor="middle" x="412.823" y="-114.3" font-family="Times,serif" font-size="14.00" fill="#2c94b3">AS3257</text>
</a>
</g>
</g>
<!-- AS174&#45;&gt;AS3257 -->
<g id="edge8" class="edge"><title>AS174&#45;&gt;AS3257</title>
<path fill="none" stroke="black" d="M324.635,-140.196C337.933,-136.811 353.748,-132.784 368.235,-129.096"/>
<polygon fill="black" stroke="black" points="369.177,-132.468 378.005,-126.609 367.45,-125.685 369.177,-132.468"/>
</g>
<!-- AS701 -->
<g id="node10" class="node"><title>AS701</title>
<g id="a_node10"><a xlink:href="/asn/701" xlink:title="AS701 ~ UUNET [US]">
<ellipse fill="#ffffff" stroke="black" cx="412.823" cy="-229" rx="35.194" ry="18"/>
<text text-anchor="middle" x="412.823" y="-225.3" font-family="Times,serif" font-size="14.00" fill="#2c94b3">AS701</text>
</a>
</g>
</g>
<!-- AS174&#45;&gt;AS701 -->
<g id="edge9" class="edge"><title>AS174&#45;&gt;AS701</title>
<path fill="none" stroke="black" d="M316.585,-161.729C323.274,-165.899 330.574,-170.555 337.176,-175 352.89,-185.577 370.039,-197.924 383.933,-208.139"/>
<polygon fill="black" stroke="black" points="381.999,-211.062 392.121,-214.19 386.159,-205.432 381.999,-211.062"/>
</g>
<!-- AS3356 -->
<g id="node11" class="node"><title>AS3356</title>
<g id="a_node11"><a xlink:href="/asn/3356" xlink:title="AS3356 ~ Level 3 Parent, LLC [US]">
<ellipse fill="#ffffff" stroke="black" cx="412.823" cy="-64" rx="39.7935" ry="18"/>
<text text-anchor="middle" x="412.823" y="-60.3" font-family="Times,serif" font-size="14.00" fill="#2c94b3">AS3356</text>
</a>
</g>
</g>
<!-- AS174&#45;&gt;AS3356 -->
<g id="edge10" class="edge"><title>AS174&#45;&gt;AS3356</title>
<path fill="none" stroke="black" d="M314.106,-133.396C330.08,-121.834 353.002,-105.307 373.176,-91 375.999,-88.9982 378.944,-86.9211 381.893,-84.8483"/>
<polygon fill="black" stroke="black" points="383.939,-87.6888 390.119,-79.0835 379.921,-81.9563 383.939,-87.6888"/>
</g>
<!-- AS6453 -->
<g id="node12" class="node"><title>AS6453</title>
<g id="a_node12"><a xlink:href="/asn/6453" xlink:title="AS6453 ~ TATA COMMUNICATIONS (AMERICA) INC [US]">
<ellipse fill="#ffffff" stroke="black" cx="412.823" cy="-172" rx="39.7935" ry="18"/>
<text text-anchor="middle" x="412.823" y="-168.3" font-family="Times,serif" font-size="14.00" fill="#2c94b3">AS6453</text>
</a>
</g>
</g>
<!-- AS174&#45;&gt;AS6453 -->
<g id="edge11" class="edge"><title>AS174&#45;&gt;AS6453</title>
<path fill="none" stroke="black" d="M325.87,-154.495C338.255,-157.017 352.673,-159.953 366.123,-162.693"/>
<polygon fill="black" stroke="black" points="365.672,-166.173 376.169,-164.739 367.069,-159.313 365.672,-166.173"/>
</g>
<!-- AS1299&#45;&gt;AS174 -->
<g id="edge22" class="edge"><title>AS1299&#45;&gt;AS174</title>
<path fill="none" stroke="black" d="M180.016,-261.634C193.805,-239.648 219.772,-201.454 248.784,-175 252.109,-171.968 255.818,-169.076 259.628,-166.386"/>
<polygon fill="black" stroke="black" points="261.6,-169.278 268.018,-160.847 257.744,-163.436 261.6,-169.278"/>
</g>
<!-- AS1299&#45;&gt;AS6762 -->
<g id="edge21" class="edge"><title>AS1299&#45;&gt;AS6762</title>
<path fill="none" stroke="black" d="M203.525,-287.546C246.468,-298.36 320.515,-317.007 367.777,-328.908"/>
<polygon fill="black" stroke="black" points="367.173,-332.365 377.725,-331.413 368.883,-325.577 367.173,-332.365"/>
</g>
<!-- AS1299&#45;&gt;AS3491 -->
<g id="edge14" class="edge"><title>AS1299&#45;&gt;AS3491</title>
<path fill="none" stroke="black" d="M208.248,-281.201C221.137,-281.869 235.576,-282.545 248.784,-283 287.08,-284.319 330.456,-285.082 362.836,-285.508"/>
<polygon fill="black" stroke="black" points="362.899,-289.009 372.942,-285.635 362.987,-282.01 362.899,-289.009"/>
</g>
<!-- AS1299&#45;&gt;AS2914 -->
<g id="edge12" class="edge"><title>AS1299&#45;&gt;AS2914</title>
<path fill="none" stroke="black" stroke-width="2" d="M193.128,-293.29C208.687,-302.506 229.665,-314.501 248.784,-324 290.338,-344.646 339.438,-365.231 372.817,-378.679"/>
<polygon fill="black" stroke="black" stroke-width="2" points="371.635,-381.976 382.22,-382.446 374.239,-375.478 371.635,-381.976"/>
</g>
<!-- AS1299&#45;&gt;AS3257 -->
<g id="edge19" class="edge"><title>AS1299&#45;&gt;AS3257</title>
<path fill="none" stroke="black" d="M172.463,-261.006C179.01,-226.724 198.553,-152.652 248.784,-121 284.209,-98.6781 333.12,-101.147 368.111,-107.213"/>
<polygon fill="black" stroke="black" points="367.563,-110.671 378.039,-109.093 368.866,-103.793 367.563,-110.671"/>
</g>
<!-- AS1299&#45;&gt;AS3356 -->
<g id="edge13" class="edge"><title>AS1299&#45;&gt;AS3356</title>
<path fill="none" stroke="black" stroke-width="2" d="M172.052,-260.939C178.048,-224.331 196.916,-141.278 248.784,-99 280.748,-72.9464 327.616,-65.05 362.908,-63.1711"/>
<polygon fill="black" stroke="black" stroke-width="2" points="363.139,-66.6648 372.996,-62.7789 362.867,-59.6701 363.139,-66.6648"/>
</g>
<!-- AS7018 -->
<g id="node13" class="node"><title>AS7018</title>
<g id="a_node13"><a xlink:href="/asn/7018" xlink:title="AS7018 ~ AT&amp;T Services, Inc. [US]">
<ellipse fill="#ffffff" stroke="black" cx="292.98" cy="-256" rx="39.7935" ry="18"/>
<text text-anchor="middle" x="292.98" y="-252.3" font-family="Times,serif" font-size="14.00" fill="#2c94b3">AS7018</text>
</a>
</g>
</g>
<!-- AS1299&#45;&gt;AS7018 -->
<g id="edge15" class="edge"><title>AS1299&#45;&gt;AS7018</title>
<path fill="none" stroke="black" stroke-width="2" d="M205.648,-272.224C218.347,-269.837 232.794,-267.122 246.188,-264.605"/>
<polygon fill="black" stroke="black" stroke-width="2" points="246.997,-268.015 256.178,-262.728 245.704,-261.135 246.997,-268.015"/>
</g>
<!-- AS6461 -->
<g id="node14" class="node"><title>AS6461</title>
<g id="a_node14"><a xlink:href="/asn/6461" xlink:title="AS6461 ~ Zayo Bandwidth [US]">
<ellipse fill="#ffffff" stroke="black" cx="292.98" cy="-202" rx="39.7935" ry="18"/>
<text text-anchor="middle" x="292.98" y="-198.3" font-family="Times,serif" font-size="14.00" fill="#2c94b3">AS6461</text>
</a>
</g>
</g>
<!-- AS1299&#45;&gt;AS6461 -->
<g id="edge16" class="edge"><title>AS1299&#45;&gt;AS6461</title>
<path fill="none" stroke="black" d="M192.444,-264.532C208.254,-254.533 229.783,-240.936 248.784,-229 252.407,-226.724 256.203,-224.344 259.977,-221.981"/>
<polygon fill="black" stroke="black" points="262.032,-224.824 268.654,-216.554 258.32,-218.89 262.032,-224.824"/>
</g>
<!-- AS2497 -->
<g id="node15" class="node"><title>AS2497</title>
<g id="a_node15"><a xlink:href="/asn/2497" xlink:title="AS2497 ~ Internet Initiative Japan Inc. [JP]">
<ellipse fill="#ffffff" stroke="black" cx="412.823" cy="-497" rx="39.7935" ry="18"/>
<text text-anchor="middle" x="412.823" y="-493.3" font-family="Times,serif" font-size="14.00" fill="#2c94b3">AS2497</text>
</a>
</g>
</g>
<!-- AS1299&#45;&gt;AS2497 -->
<g id="edge17" class="edge"><title>AS1299&#45;&gt;AS2497</title>
<path fill="none" stroke="black" d="M169.5,-297.113C170.389,-341.556 179.602,-455.936 248.784,-505 284.705,-530.475 337.089,-522.076 372.715,-511.54"/>
<polygon fill="black" stroke="black" points="373.796,-514.869 382.291,-508.538 371.702,-508.189 373.796,-514.869"/>
</g>
<!-- AS209 -->
<g id="node16" class="node"><title>AS209</title>
<g id="a_node16"><a xlink:href="/asn/209" xlink:title="AS209 ~ CenturyLink Communications, LLC [US]">
<ellipse fill="#ffffff" stroke="black" cx="528.116" cy="-340" rx="35.194" ry="18"/>
<text text-anchor="middle" x="528.116" y="-336.3" font-family="Times,serif" font-size="14.00" fill="#2c94b3">AS209</text>
</a>
</g>
</g>
<!-- AS1299&#45;&gt;AS209 -->
<g id="edge18" class="edge"><title>AS1299&#45;&gt;AS209</title>
<path fill="none" stroke="black" d="M168.872,-297.056C168.107,-344.345 173.415,-471.949 248.784,-527 261.807,-536.512 441.8,-531.389 452.469,-524 504.09,-488.25 520.043,-410.225 524.951,-368.181"/>
<polygon fill="black" stroke="black" points="528.45,-368.378 525.998,-358.07 521.487,-367.657 528.45,-368.378"/>
</g>
<!-- AS1239 -->
<g id="node17" class="node"><title>AS1239</title>
<g id="a_node17"><a xlink:href="/asn/1239" xlink:title="AS1239 ~ Sprint [US]">
<ellipse fill="#ffffff" stroke="black" cx="292.98" cy="-424" rx="39.7935" ry="18"/>
<text text-anchor="middle" x="292.98" y="-420.3" font-family="Times,serif" font-size="14.00" fill="#2c94b3">AS1239</text>
</a>
</g>
</g>
<!-- AS1299&#45;&gt;AS1239 -->
<g id="edge20" class="edge"><title>AS1299&#45;&gt;AS1239</title>
<path fill="none" stroke="black" d="M179.337,-296.36C192.965,-319.713 219.365,-361.797 248.784,-392 252.515,-395.83 256.738,-399.548 261.047,-403.012"/>
<polygon fill="black" stroke="black" points="259.258,-406.048 269.333,-409.325 263.5,-400.48 259.258,-406.048"/>
</g>
<!-- AS6939&#45;&gt;AS6762 -->
<g id="edge29" class="edge"><title>AS6939&#45;&gt;AS6762</title>
<path fill="none" stroke="black" d="M320.63,-464.88C326.628,-461.024 332.573,-456.372 337.176,-451 363.607,-420.158 347.544,-398.508 373.176,-367 375.017,-364.738 377.093,-362.583 379.304,-360.549"/>
<polygon fill="black" stroke="black" points="381.654,-363.148 387.195,-354.117 377.232,-357.722 381.654,-363.148"/>
</g>
<!-- AS6939&#45;&gt;AS3491 -->
<g id="edge26" class="edge"><title>AS6939&#45;&gt;AS3491</title>
<path fill="none" stroke="black" d="M321.218,-465.347C327.198,-461.476 332.987,-456.701 337.176,-451 374.708,-399.92 336.964,-365.024 373.176,-313 374.842,-310.607 376.793,-308.357 378.917,-306.257"/>
<polygon fill="black" stroke="black" points="381.282,-308.84 386.643,-299.702 376.753,-303.502 381.282,-308.84"/>
</g>
<!-- AS6939&#45;&gt;AS2914 -->
<g id="edge25" class="edge"><title>AS6939&#45;&gt;AS2914</title>
<path fill="none" stroke="black" d="M317.554,-463.82C323.996,-459.796 330.923,-455.328 337.176,-451 353.165,-439.934 370.456,-426.81 384.366,-415.945"/>
<polygon fill="black" stroke="black" points="386.851,-418.444 392.548,-409.511 382.524,-412.941 386.851,-418.444"/>
</g>
<!-- AS6939&#45;&gt;AS701 -->
<g id="edge28" class="edge"><title>AS6939&#45;&gt;AS701</title>
<path fill="none" stroke="black" d="M321.951,-465.257C327.76,-461.431 333.289,-456.698 337.176,-451 386.109,-379.283 327.943,-333.106 373.176,-259 375.306,-255.511 378.001,-252.274 380.973,-249.316"/>
<polygon fill="black" stroke="black" points="383.504,-251.754 388.768,-242.56 378.919,-246.465 383.504,-251.754"/>
</g>
<!-- AS6939&#45;&gt;AS2497 -->
<g id="edge27" class="edge"><title>AS6939&#45;&gt;AS2497</title>
<path fill="none" stroke="black" d="M330.621,-483.908C341.594,-485.677 353.778,-487.641 365.299,-489.499"/>
<polygon fill="black" stroke="black" points="364.776,-492.96 375.205,-491.096 365.89,-486.049 364.776,-492.96"/>
</g>
<!-- AS33891 -->
<g id="node19" class="node"><title>AS33891</title>
<g id="a_node19"><a xlink:href="/asn/33891" xlink:title="AS33891 ~ CORE&#45;BACKBONE GMBH GLOBAL NETWORK [DE]">
<ellipse fill="#ffffff" stroke="black" cx="292.98" cy="-18" rx="44.393" ry="18"/>
<text text-anchor="middle" x="292.98" y="-14.3" font-family="Times,serif" font-size="14.00" fill="#2c94b3">AS33891</text>
</a>
</g>
</g>
<!-- AS39912&#45;&gt;AS33891 -->
<g id="edge30" class="edge"><title>AS39912&#45;&gt;AS33891</title>
<path fill="none" stroke="black" d="M192.037,-86.5931C211.446,-73.2721 239.69,-53.8882 261.205,-39.1218"/>
<polygon fill="black" stroke="black" points="263.41,-41.8537 269.674,-33.3092 259.449,-36.0822 263.41,-41.8537"/>
</g>
<!-- AS3356&#45;&gt;AS209 -->
<g id="edge24" class="edge"><title>AS3356&#45;&gt;AS209</title>
<path fill="none" stroke="black" d="M438.867,-77.7983C443.937,-81.5323 448.824,-85.9596 452.469,-91 502.381,-160.016 519.271,-262.6 524.701,-311.75"/>
<polygon fill="black" stroke="black" points="521.244,-312.356 525.746,-321.947 528.208,-311.642 521.244,-312.356"/>
</g>
<!-- AS3549 -->
<g id="node18" class="node"><title>AS3549</title>
<g id="a_node18"><a xlink:href="/asn/3549" xlink:title="AS3549 ~ Level 3 Parent, LLC [US]">
<ellipse fill="#ffffff" stroke="black" cx="528.116" cy="-64" rx="39.7935" ry="18"/>
<text text-anchor="middle" x="528.116" y="-60.3" font-family="Times,serif" font-size="14.00" fill="#2c94b3">AS3549</text>
</a>
</g>
</g>
<!-- AS3356&#45;&gt;AS3549 -->
<g id="edge23" class="edge"><title>AS3356&#45;&gt;AS3549</title>
<path fill="none" stroke="black" d="M452.495,-64C460.698,-64 469.462,-64 477.994,-64"/>
<polygon fill="black" stroke="black" points="478.233,-67.5001 488.233,-64 478.233,-60.5001 478.233,-67.5001"/>
</g>
<!-- AS33891&#45;&gt;AS3356 -->
<g id="edge31" class="edge"><title>AS33891&#45;&gt;AS3356</title>
<path fill="none" stroke="black" d="M325.56,-30.3272C339.989,-35.9595 357.229,-42.6891 372.49,-48.6463"/>
<polygon fill="black" stroke="black" points="371.596,-52.0544 382.184,-52.4303 374.141,-45.5335 371.596,-52.0544"/>
</g>
</g>
</svg>
