<?xml version="1.0" encoding="UTF-8" standalone="no"?>
<!DOCTYPE svg PUBLIC "-//W3C//DTD SVG 1.1//EN"
 "http://www.w3.org/Graphics/SVG/1.1/DTD/svg11.dtd">
<!-- Generated by graphviz version 2.38.0 (20140413.2041)
 -->
<!-- Title: AS39560 Combined Upstream Graph Pages: 1 -->
<svg width="576pt" height="589pt"
 viewBox="0.00 0.00 575.76 589.00" xmlns="http://www.w3.org/2000/svg" xmlns:xlink="http://www.w3.org/1999/xlink">
<g id="graph0" class="graph" transform="scale(1 1) rotate(0) translate(4 585)">
<title>AS39560 Combined Upstream Graph</title>
<polygon fill="white" stroke="none" points="-4,4 -4,-585 571.762,-585 571.762,4 -4,4"/>
<!-- AS39560 -->
<g id="node1" class="node"><title>AS39560</title>
<g id="a_node1"><a xlink:href="/asn/39560" xlink:title="AS39560 ~ KT&#45;NET Communications GmbH [AT]">
<ellipse fill="#ffffff" stroke="black" cx="44.1961" cy="-324" rx="44.393" ry="18"/>
<text text-anchor="middle" x="44.1961" y="-320.3" font-family="Times,serif" font-size="14.00" fill="#880000">AS39560</text>
</a>
</g>
</g>
<!-- AS174 -->
<g id="node2" class="node"><title>AS174</title>
<g id="a_node2"><a xlink:href="/asn/174" xlink:title="AS174 ~ Cogent Communications [US]">
<ellipse fill="#ffffff" stroke="black" cx="292.98" cy="-401" rx="35.194" ry="18"/>
<text text-anchor="middle" x="292.98" y="-397.3" font-family="Times,serif" font-size="14.00" fill="#2c94b3">AS174</text>
</a>
</g>
</g>
<!-- AS39560&#45;&gt;AS174 -->
<g id="edge1" class="edge"><title>AS39560&#45;&gt;AS174</title>
<path fill="none" stroke="black" stroke-width="2.76923" d="M79.7702,-334.788C125.345,-349.008 205.308,-373.957 252.988,-388.834"/>
<polygon fill="black" stroke="black" stroke-width="2.76923" points="252.06,-392.211 262.649,-391.848 254.145,-385.528 252.06,-392.211"/>
</g>
<!-- AS1299 -->
<g id="node3" class="node"><title>AS1299</title>
<g id="a_node3"><a xlink:href="/asn/1299" xlink:title="AS1299 ~ Telia Carrier [EU]">
<ellipse fill="#ffffff" stroke="black" cx="168.588" cy="-278" rx="39.7935" ry="18"/>
<text text-anchor="middle" x="168.588" y="-274.3" font-family="Times,serif" font-size="14.00" fill="#2c94b3">AS1299</text>
</a>
</g>
</g>
<!-- AS39560&#45;&gt;AS1299 -->
<g id="edge2" class="edge"><title>AS39560&#45;&gt;AS1299</title>
<path fill="none" stroke="black" stroke-width="4.5" d="M77.3532,-311.914C92.7201,-306.139 111.267,-299.168 127.54,-293.052"/>
<polygon fill="black" stroke="black" stroke-width="4.5" points="129.354,-296.577 137.329,-289.373 126.583,-289.205 129.354,-296.577"/>
</g>
<!-- AS39912 -->
<g id="node4" class="node"><title>AS39912</title>
<g id="a_node4"><a xlink:href="/asn/39912" xlink:title="AS39912 ~ oja.at GmbH [AT]">
<ellipse fill="#ffffff" stroke="black" cx="168.588" cy="-144" rx="44.393" ry="18"/>
<text text-anchor="middle" x="168.588" y="-140.3" font-family="Times,serif" font-size="14.00" fill="#2c94b3">AS39912</text>
</a>
</g>
</g>
<!-- AS39560&#45;&gt;AS39912 -->
<g id="edge3" class="edge"><title>AS39560&#45;&gt;AS39912</title>
<path fill="none" stroke="black" stroke-width="1.73077" d="M56.9316,-306.741C78.534,-274.97 124.697,-207.079 150.039,-169.81"/>
<polygon fill="black" stroke="black" stroke-width="1.73077" points="152.98,-171.709 155.708,-161.471 147.191,-167.773 152.98,-171.709"/>
</g>
<!-- AS6939 -->
<g id="node5" class="node"><title>AS6939</title>
<g id="a_node5"><a xlink:href="/asn/6939" xlink:title="AS6939 ~ Hurricane Electric LLC [US]">
<ellipse fill="#ffffff" stroke="black" cx="292.98" cy="-455" rx="39.7935" ry="18"/>
<text text-anchor="middle" x="292.98" y="-451.3" font-family="Times,serif" font-size="14.00" fill="#2c94b3">AS6939</text>
</a>
</g>
</g>
<!-- AS39560&#45;&gt;AS6939 -->
<g id="edge4" class="edge"><title>AS39560&#45;&gt;AS6939</title>
<path fill="none" stroke="black" stroke-width="2.07692" d="M67.2039,-339.653C82.8128,-350.454 104.447,-364.824 124.392,-376 167.611,-400.218 219.487,-423.89 253.96,-438.908"/>
<polygon fill="black" stroke="black" stroke-width="2.07692" points="252.632,-442.147 263.2,-442.907 255.413,-435.723 252.632,-442.147"/>
</g>
<!-- AS2914 -->
<g id="node6" class="node"><title>AS2914</title>
<g id="a_node6"><a xlink:href="/asn/2914" xlink:title="AS2914 ~ NTT America, Inc. [US]">
<ellipse fill="#ffffff" stroke="black" cx="412.823" cy="-347" rx="39.7935" ry="18"/>
<text text-anchor="middle" x="412.823" y="-343.3" font-family="Times,serif" font-size="14.00" fill="#2c94b3">AS2914</text>
</a>
</g>
</g>
<!-- AS174&#45;&gt;AS2914 -->
<g id="edge5" class="edge"><title>AS174&#45;&gt;AS2914</title>
<path fill="none" stroke="black" d="M319.841,-389.149C335.962,-381.762 356.964,-372.138 374.83,-363.952"/>
<polygon fill="black" stroke="black" points="376.748,-366.923 384.381,-359.575 373.832,-360.559 376.748,-366.923"/>
</g>
<!-- AS6762 -->
<g id="node7" class="node"><title>AS6762</title>
<g id="a_node7"><a xlink:href="/asn/6762" xlink:title="AS6762 ~ TELECOM ITALIA SPARKLE S.p.A. [IT]">
<ellipse fill="#ffffff" stroke="black" cx="412.823" cy="-401" rx="39.7935" ry="18"/>
<text text-anchor="middle" x="412.823" y="-397.3" font-family="Times,serif" font-size="14.00" fill="#2c94b3">AS6762</text>
</a>
</g>
</g>
<!-- AS174&#45;&gt;AS6762 -->
<g id="edge6" class="edge"><title>AS174&#45;&gt;AS6762</title>
<path fill="none" stroke="black" d="M328.382,-401C339.206,-401 351.374,-401 363.001,-401"/>
<polygon fill="black" stroke="black" points="363.032,-404.5 373.032,-401 363.032,-397.5 363.032,-404.5"/>
</g>
<!-- AS701 -->
<g id="node8" class="node"><title>AS701</title>
<g id="a_node8"><a xlink:href="/asn/701" xlink:title="AS701 ~ UUNET [US]">
<ellipse fill="#ffffff" stroke="black" cx="412.823" cy="-455" rx="35.194" ry="18"/>
<text text-anchor="middle" x="412.823" y="-451.3" font-family="Times,serif" font-size="14.00" fill="#2c94b3">AS701</text>
</a>
</g>
</g>
<!-- AS174&#45;&gt;AS701 -->
<g id="edge7" class="edge"><title>AS174&#45;&gt;AS701</title>
<path fill="none" stroke="black" d="M319.841,-412.851C336.573,-420.518 358.563,-430.594 376.847,-438.972"/>
<polygon fill="black" stroke="black" points="375.473,-442.193 386.022,-443.177 378.389,-435.829 375.473,-442.193"/>
</g>
<!-- AS3257 -->
<g id="node9" class="node"><title>AS3257</title>
<g id="a_node9"><a xlink:href="/asn/3257" xlink:title="AS3257 ~ GTT [DE]">
<ellipse fill="#ffffff" stroke="black" cx="412.823" cy="-99" rx="39.7935" ry="18"/>
<text text-anchor="middle" x="412.823" y="-95.3" font-family="Times,serif" font-size="14.00" fill="#2c94b3">AS3257</text>
</a>
</g>
</g>
<!-- AS174&#45;&gt;AS3257 -->
<g id="edge8" class="edge"><title>AS174&#45;&gt;AS3257</title>
<path fill="none" stroke="black" d="M307.665,-384.384C317.323,-371.828 329.807,-353.773 337.176,-336 368.09,-261.442 342.511,-232.66 373.176,-158 378.034,-146.173 385.358,-134.179 392.329,-124.121"/>
<polygon fill="black" stroke="black" points="395.292,-125.995 398.293,-115.834 389.611,-121.907 395.292,-125.995"/>
</g>
<!-- AS3491 -->
<g id="node10" class="node"><title>AS3491</title>
<g id="a_node10"><a xlink:href="/asn/3491" xlink:title="AS3491 ~ PCCW Global, Inc. [US]">
<ellipse fill="#ffffff" stroke="black" cx="412.823" cy="-563" rx="39.7935" ry="18"/>
<text text-anchor="middle" x="412.823" y="-559.3" font-family="Times,serif" font-size="14.00" fill="#2c94b3">AS3491</text>
</a>
</g>
</g>
<!-- AS174&#45;&gt;AS3491 -->
<g id="edge9" class="edge"><title>AS174&#45;&gt;AS3491</title>
<path fill="none" stroke="black" d="M319.603,-413C326.053,-417.016 332.472,-422.024 337.176,-428 368.475,-467.754 342.905,-495.458 373.176,-536 374.921,-538.336 376.928,-540.545 379.092,-542.617"/>
<polygon fill="black" stroke="black" points="376.969,-545.405 386.892,-549.118 381.451,-540.027 376.969,-545.405"/>
</g>
<!-- AS1239 -->
<g id="node11" class="node"><title>AS1239</title>
<g id="a_node11"><a xlink:href="/asn/1239" xlink:title="AS1239 ~ Sprint [US]">
<ellipse fill="#ffffff" stroke="black" cx="412.823" cy="-239" rx="39.7935" ry="18"/>
<text text-anchor="middle" x="412.823" y="-235.3" font-family="Times,serif" font-size="14.00" fill="#2c94b3">AS1239</text>
</a>
</g>
</g>
<!-- AS174&#45;&gt;AS1239 -->
<g id="edge10" class="edge"><title>AS174&#45;&gt;AS1239</title>
<path fill="none" stroke="black" d="M305.879,-384.224C314.867,-371.29 327.3,-352.827 337.176,-336 354.886,-305.829 350.161,-292.348 373.176,-266 375.145,-263.746 377.34,-261.586 379.656,-259.537"/>
<polygon fill="black" stroke="black" points="382.19,-261.994 387.845,-253.034 377.837,-256.512 382.19,-261.994"/>
</g>
<!-- AS6453 -->
<g id="node12" class="node"><title>AS6453</title>
<g id="a_node12"><a xlink:href="/asn/6453" xlink:title="AS6453 ~ TATA COMMUNICATIONS (AMERICA) INC [US]">
<ellipse fill="#ffffff" stroke="black" cx="412.823" cy="-185" rx="39.7935" ry="18"/>
<text text-anchor="middle" x="412.823" y="-181.3" font-family="Times,serif" font-size="14.00" fill="#2c94b3">AS6453</text>
</a>
</g>
</g>
<!-- AS174&#45;&gt;AS6453 -->
<g id="edge11" class="edge"><title>AS174&#45;&gt;AS6453</title>
<path fill="none" stroke="black" d="M307.031,-384.46C316.497,-371.797 329.019,-353.575 337.176,-336 361.336,-283.947 339.75,-258.647 373.176,-212 374.875,-209.63 376.849,-207.397 378.989,-205.308"/>
<polygon fill="black" stroke="black" points="381.352,-207.894 386.746,-198.775 376.843,-202.54 381.352,-207.894"/>
</g>
<!-- AS1299&#45;&gt;AS174 -->
<g id="edge19" class="edge"><title>AS1299&#45;&gt;AS174</title>
<path fill="none" stroke="black" d="M182.605,-295.083C197.534,-314.144 223.254,-345.401 248.784,-369 253.175,-373.058 258.073,-377.09 262.95,-380.853"/>
<polygon fill="black" stroke="black" points="260.935,-383.717 271.043,-386.891 265.121,-378.106 260.935,-383.717"/>
</g>
<!-- AS1299&#45;&gt;AS2914 -->
<g id="edge12" class="edge"><title>AS1299&#45;&gt;AS2914</title>
<path fill="none" stroke="black" stroke-width="2" d="M185.836,-294.273C200.784,-308.093 224.288,-327.065 248.784,-336 285.58,-349.421 330.106,-351.565 363.323,-350.693"/>
<polygon fill="black" stroke="black" stroke-width="2" points="363.821,-354.177 373.686,-350.314 363.565,-347.182 363.821,-354.177"/>
</g>
<!-- AS1299&#45;&gt;AS3257 -->
<g id="edge18" class="edge"><title>AS1299&#45;&gt;AS3257</title>
<path fill="none" stroke="black" d="M176.922,-260.402C193.94,-219.948 235.663,-123.099 248.784,-114 282.587,-90.5589 330.273,-88.8266 365.344,-91.7502"/>
<polygon fill="black" stroke="black" points="365.04,-95.2372 375.335,-92.7357 365.727,-88.271 365.04,-95.2372"/>
</g>
<!-- AS1299&#45;&gt;AS3491 -->
<g id="edge16" class="edge"><title>AS1299&#45;&gt;AS3491</title>
<path fill="none" stroke="black" d="M172.131,-296.115C178.425,-334.795 198.062,-426.45 248.784,-482 280.927,-517.202 331.785,-539.04 368.15,-551.042"/>
<polygon fill="black" stroke="black" points="367.405,-554.478 377.995,-554.17 369.524,-547.807 367.405,-554.478"/>
</g>
<!-- AS1299&#45;&gt;AS1239 -->
<g id="edge14" class="edge"><title>AS1299&#45;&gt;AS1239</title>
<path fill="none" stroke="black" d="M206.115,-272.119C248.508,-265.294 318.514,-254.023 364.901,-246.554"/>
<polygon fill="black" stroke="black" points="365.682,-249.974 374.998,-244.929 364.569,-243.063 365.682,-249.974"/>
</g>
<!-- AS1299&#45;&gt;AS6453 -->
<g id="edge20" class="edge"><title>AS1299&#45;&gt;AS6453</title>
<path fill="none" stroke="black" d="M199.272,-266.302C214.126,-260.468 232.392,-253.325 248.784,-247 290.775,-230.798 338.962,-212.511 371.998,-200.021"/>
<polygon fill="black" stroke="black" points="373.623,-203.149 381.74,-196.34 371.149,-196.601 373.623,-203.149"/>
</g>
<!-- AS7018 -->
<g id="node13" class="node"><title>AS7018</title>
<g id="a_node13"><a xlink:href="/asn/7018" xlink:title="AS7018 ~ AT&amp;T Services, Inc. [US]">
<ellipse fill="#ffffff" stroke="black" cx="292.98" cy="-141" rx="39.7935" ry="18"/>
<text text-anchor="middle" x="292.98" y="-137.3" font-family="Times,serif" font-size="14.00" fill="#2c94b3">AS7018</text>
</a>
</g>
</g>
<!-- AS1299&#45;&gt;AS7018 -->
<g id="edge13" class="edge"><title>AS1299&#45;&gt;AS7018</title>
<path fill="none" stroke="black" stroke-width="2" d="M180.564,-260.435C194.731,-238.544 220.895,-200.65 248.784,-173 252.581,-169.236 256.841,-165.554 261.167,-162.107"/>
<polygon fill="black" stroke="black" stroke-width="2" points="263.618,-164.641 269.464,-155.805 259.384,-159.066 263.618,-164.641"/>
</g>
<!-- AS2497 -->
<g id="node14" class="node"><title>AS2497</title>
<g id="a_node14"><a xlink:href="/asn/2497" xlink:title="AS2497 ~ Internet Initiative Japan Inc. [JP]">
<ellipse fill="#ffffff" stroke="black" cx="412.823" cy="-293" rx="39.7935" ry="18"/>
<text text-anchor="middle" x="412.823" y="-289.3" font-family="Times,serif" font-size="14.00" fill="#2c94b3">AS2497</text>
</a>
</g>
</g>
<!-- AS1299&#45;&gt;AS2497 -->
<g id="edge15" class="edge"><title>AS1299&#45;&gt;AS2497</title>
<path fill="none" stroke="black" d="M208.268,-277.583C242.282,-277.535 293.099,-278.241 337.176,-282 346.378,-282.785 356.173,-283.972 365.536,-285.279"/>
<polygon fill="black" stroke="black" points="365.077,-288.75 375.479,-286.733 366.09,-281.823 365.077,-288.75"/>
</g>
<!-- AS6461 -->
<g id="node15" class="node"><title>AS6461</title>
<g id="a_node15"><a xlink:href="/asn/6461" xlink:title="AS6461 ~ Zayo Bandwidth [US]">
<ellipse fill="#ffffff" stroke="black" cx="292.98" cy="-309" rx="39.7935" ry="18"/>
<text text-anchor="middle" x="292.98" y="-305.3" font-family="Times,serif" font-size="14.00" fill="#2c94b3">AS6461</text>
</a>
</g>
</g>
<!-- AS1299&#45;&gt;AS6461 -->
<g id="edge17" class="edge"><title>AS1299&#45;&gt;AS6461</title>
<path fill="none" stroke="black" d="M203.681,-286.635C217.474,-290.129 233.569,-294.205 248.211,-297.914"/>
<polygon fill="black" stroke="black" points="247.517,-301.349 258.07,-300.411 249.236,-294.563 247.517,-301.349"/>
</g>
<!-- AS33891 -->
<g id="node16" class="node"><title>AS33891</title>
<g id="a_node16"><a xlink:href="/asn/33891" xlink:title="AS33891 ~ CORE&#45;BACKBONE GMBH GLOBAL NETWORK [DE]">
<ellipse fill="#ffffff" stroke="black" cx="292.98" cy="-49" rx="44.393" ry="18"/>
<text text-anchor="middle" x="292.98" y="-45.3" font-family="Times,serif" font-size="14.00" fill="#2c94b3">AS33891</text>
</a>
</g>
</g>
<!-- AS39912&#45;&gt;AS33891 -->
<g id="edge21" class="edge"><title>AS39912&#45;&gt;AS33891</title>
<path fill="none" stroke="black" stroke-width="4.5" d="M189.293,-128.016C205.227,-115.166 228.299,-96.7282 248.784,-81 253.133,-77.6608 257.761,-74.169 262.311,-70.7703"/>
<polygon fill="black" stroke="black" stroke-width="4.5" points="264.66,-73.9308 270.339,-64.8066 259.963,-67.6092 264.66,-73.9308"/>
</g>
<!-- AS6939&#45;&gt;AS2914 -->
<g id="edge26" class="edge"><title>AS6939&#45;&gt;AS2914</title>
<path fill="none" stroke="black" d="M319.509,-441.538C325.672,-437.638 331.974,-433.052 337.176,-428 357.87,-407.906 353.004,-394.617 373.176,-374 375.269,-371.861 377.553,-369.782 379.929,-367.79"/>
<polygon fill="black" stroke="black" points="382.448,-370.268 388.229,-361.389 378.173,-364.725 382.448,-370.268"/>
</g>
<!-- AS6939&#45;&gt;AS6762 -->
<g id="edge30" class="edge"><title>AS6939&#45;&gt;AS6762</title>
<path fill="none" stroke="black" d="M321.609,-442.339C337.566,-435.027 357.837,-425.739 375.119,-417.819"/>
<polygon fill="black" stroke="black" points="376.734,-420.929 384.367,-413.581 373.818,-414.565 376.734,-420.929"/>
</g>
<!-- AS6939&#45;&gt;AS701 -->
<g id="edge31" class="edge"><title>AS6939&#45;&gt;AS701</title>
<path fill="none" stroke="black" d="M332.893,-455C343.98,-455 356.139,-455 367.522,-455"/>
<polygon fill="black" stroke="black" points="367.703,-458.5 377.703,-455 367.703,-451.5 367.703,-458.5"/>
</g>
<!-- AS6939&#45;&gt;AS3491 -->
<g id="edge28" class="edge"><title>AS6939&#45;&gt;AS3491</title>
<path fill="none" stroke="black" d="M308.626,-471.725C323.927,-488.765 349.025,-515.523 373.176,-536 375.674,-538.117 378.334,-540.232 381.045,-542.293"/>
<polygon fill="black" stroke="black" points="379.082,-545.194 389.222,-548.266 383.212,-539.541 379.082,-545.194"/>
</g>
<!-- AS6939&#45;&gt;AS2497 -->
<g id="edge29" class="edge"><title>AS6939&#45;&gt;AS2497</title>
<path fill="none" stroke="black" d="M320.952,-442.145C326.94,-438.28 332.8,-433.559 337.176,-428 368.475,-388.246 342.905,-360.542 373.176,-320 374.921,-317.664 376.928,-315.455 379.092,-313.383"/>
<polygon fill="black" stroke="black" points="381.451,-315.973 386.892,-306.882 376.969,-310.595 381.451,-315.973"/>
</g>
<!-- AS1273 -->
<g id="node20" class="node"><title>AS1273</title>
<g id="a_node20"><a xlink:href="/asn/1273" xlink:title="AS1273 ~ Vodafone Group PLC [EU]">
<ellipse fill="#ffffff" stroke="black" cx="412.823" cy="-509" rx="39.7935" ry="18"/>
<text text-anchor="middle" x="412.823" y="-505.3" font-family="Times,serif" font-size="14.00" fill="#2c94b3">AS1273</text>
</a>
</g>
</g>
<!-- AS6939&#45;&gt;AS1273 -->
<g id="edge27" class="edge"><title>AS6939&#45;&gt;AS1273</title>
<path fill="none" stroke="black" d="M321.609,-467.661C337.566,-474.973 357.837,-484.261 375.119,-492.181"/>
<polygon fill="black" stroke="black" points="373.818,-495.435 384.367,-496.419 376.734,-489.071 373.818,-495.435"/>
</g>
<!-- AS33891&#45;&gt;AS3257 -->
<g id="edge23" class="edge"><title>AS33891&#45;&gt;AS3257</title>
<path fill="none" stroke="black" d="M324.328,-61.8762C339.35,-68.25 357.642,-76.0111 373.609,-82.7859"/>
<polygon fill="black" stroke="black" points="372.627,-86.1715 383.2,-86.8555 375.362,-79.7276 372.627,-86.1715"/>
</g>
<!-- AS3356 -->
<g id="node17" class="node"><title>AS3356</title>
<g id="a_node17"><a xlink:href="/asn/3356" xlink:title="AS3356 ~ Level 3 Parent, LLC [US]">
<ellipse fill="#ffffff" stroke="black" cx="412.823" cy="-45" rx="39.7935" ry="18"/>
<text text-anchor="middle" x="412.823" y="-41.3" font-family="Times,serif" font-size="14.00" fill="#2c94b3">AS3356</text>
</a>
</g>
</g>
<!-- AS33891&#45;&gt;AS3356 -->
<g id="edge22" class="edge"><title>AS33891&#45;&gt;AS3356</title>
<path fill="none" stroke="black" stroke-width="4" d="M337.191,-47.5333C345.504,-47.2511 354.267,-46.9537 362.749,-46.6657"/>
<polygon fill="black" stroke="black" stroke-width="4" points="363.032,-50.1582 372.908,-46.3209 362.795,-43.1623 363.032,-50.1582"/>
</g>
<!-- AS3549 -->
<g id="node18" class="node"><title>AS3549</title>
<g id="a_node18"><a xlink:href="/asn/3549" xlink:title="AS3549 ~ Level 3 Parent, LLC [US]">
<ellipse fill="#ffffff" stroke="black" cx="528.116" cy="-72" rx="39.7935" ry="18"/>
<text text-anchor="middle" x="528.116" y="-68.3" font-family="Times,serif" font-size="14.00" fill="#2c94b3">AS3549</text>
</a>
</g>
</g>
<!-- AS3356&#45;&gt;AS3549 -->
<g id="edge24" class="edge"><title>AS3356&#45;&gt;AS3549</title>
<path fill="none" stroke="black" d="M448.43,-53.2476C459.301,-55.8384 471.456,-58.7351 482.898,-61.4621"/>
<polygon fill="black" stroke="black" points="482.182,-64.8892 492.721,-63.8029 483.804,-58.0799 482.182,-64.8892"/>
</g>
<!-- AS209 -->
<g id="node19" class="node"><title>AS209</title>
<g id="a_node19"><a xlink:href="/asn/209" xlink:title="AS209 ~ CenturyLink Communications, LLC [US]">
<ellipse fill="#ffffff" stroke="black" cx="528.116" cy="-18" rx="35.194" ry="18"/>
<text text-anchor="middle" x="528.116" y="-14.3" font-family="Times,serif" font-size="14.00" fill="#2c94b3">AS209</text>
</a>
</g>
</g>
<!-- AS3356&#45;&gt;AS209 -->
<g id="edge25" class="edge"><title>AS3356&#45;&gt;AS209</title>
<path fill="none" stroke="black" stroke-width="2" d="M448.43,-36.7524C460.225,-33.9415 473.529,-30.7708 485.797,-27.8471"/>
<polygon fill="black" stroke="black" stroke-width="2" points="486.886,-31.1858 495.802,-25.4628 485.263,-24.3765 486.886,-31.1858"/>
</g>
</g>
</svg>
