<?xml version="1.0" encoding="UTF-8" standalone="no"?>
<!DOCTYPE svg PUBLIC "-//W3C//DTD SVG 1.1//EN"
 "http://www.w3.org/Graphics/SVG/1.1/DTD/svg11.dtd">
<!-- Generated by graphviz version 2.38.0 (20140413.2041)
 -->
<!-- Title: AS34767 Combined Upstream Graph Pages: 1 -->
<svg width="691pt" height="822pt"
 viewBox="0.00 0.00 691.06 822.00" xmlns="http://www.w3.org/2000/svg" xmlns:xlink="http://www.w3.org/1999/xlink">
<g id="graph0" class="graph" transform="scale(1 1) rotate(0) translate(4 818)">
<title>AS34767 Combined Upstream Graph</title>
<polygon fill="white" stroke="none" points="-4,4 -4,-818 687.055,-818 687.055,4 -4,4"/>
<!-- AS34767 -->
<g id="node1" class="node"><title>AS34767</title>
<g id="a_node1"><a xlink:href="/asn/34767" xlink:title="AS34767 ~ Otto M. Steinmann e.U. [AT]">
<ellipse fill="#ffffff" stroke="black" cx="44.1961" cy="-126" rx="44.393" ry="18"/>
<text text-anchor="middle" x="44.1961" y="-122.3" font-family="Times,serif" font-size="14.00" fill="#880000">AS34767</text>
</a>
</g>
</g>
<!-- AS8245 -->
<g id="node2" class="node"><title>AS8245</title>
<g id="a_node2"><a xlink:href="/asn/8245" xlink:title="AS8245 ~ Video&#45;Broadcast GmbH [AT]">
<ellipse fill="#ffffff" stroke="black" cx="164.039" cy="-126" rx="39.7935" ry="18"/>
<text text-anchor="middle" x="164.039" y="-122.3" font-family="Times,serif" font-size="14.00" fill="#2c94b3">AS8245</text>
</a>
</g>
</g>
<!-- AS34767&#45;&gt;AS8245 -->
<g id="edge1" class="edge"><title>AS34767&#45;&gt;AS8245</title>
<path fill="none" stroke="black" stroke-width="4.5" d="M88.4072,-126C96.7198,-126 105.482,-126 113.965,-126"/>
<polygon fill="black" stroke="black" stroke-width="4.5" points="114.123,-129.938 124.123,-126 114.123,-122.063 114.123,-129.938"/>
</g>
<!-- AS6830 -->
<g id="node3" class="node"><title>AS6830</title>
<g id="a_node3"><a xlink:href="/asn/6830" xlink:title="AS6830 ~ LGI&#45;UPC [AT]">
<ellipse fill="#ffffff" stroke="black" cx="283.881" cy="-423" rx="39.7935" ry="18"/>
<text text-anchor="middle" x="283.881" y="-419.3" font-family="Times,serif" font-size="14.00" fill="#2c94b3">AS6830</text>
</a>
</g>
</g>
<!-- AS8245&#45;&gt;AS6830 -->
<g id="edge2" class="edge"><title>AS8245&#45;&gt;AS6830</title>
<path fill="none" stroke="black" stroke-width="4.5" d="M172.057,-143.689C191.824,-193.507 248.066,-335.254 271.944,-395.436"/>
<polygon fill="black" stroke="black" stroke-width="4.5" points="268.402,-397.185 275.75,-405.028 275.722,-394.281 268.402,-397.185"/>
</g>
<!-- AS24953 -->
<g id="node4" class="node"><title>AS24953</title>
<g id="a_node4"><a xlink:href="/asn/24953" xlink:title="AS24953 ~ AS MACRO: AS&#45;24953 (customers) [AT]">
<ellipse fill="#ffffff" stroke="black" cx="283.881" cy="-72" rx="44.393" ry="18"/>
<text text-anchor="middle" x="283.881" y="-68.3" font-family="Times,serif" font-size="14.00" fill="#2c94b3">AS24953</text>
</a>
</g>
</g>
<!-- AS8245&#45;&gt;AS24953 -->
<g id="edge3" class="edge"><title>AS8245&#45;&gt;AS24953</title>
<path fill="none" stroke="black" stroke-width="0.75" d="M192.667,-113.339C208.165,-106.238 227.732,-97.2715 244.678,-89.506"/>
<polygon fill="black" stroke="black" stroke-width="0.75" points="246.148,-92.6825 253.781,-85.3348 243.232,-86.3188 246.148,-92.6825"/>
</g>
<!-- AS8218 -->
<g id="node5" class="node"><title>AS8218</title>
<g id="a_node5"><a xlink:href="/asn/8218" xlink:title="AS8218 ~ legacy Neotelecoms [FR]">
<ellipse fill="#ffffff" stroke="black" cx="283.881" cy="-126" rx="39.7935" ry="18"/>
<text text-anchor="middle" x="283.881" y="-122.3" font-family="Times,serif" font-size="14.00" fill="#2c94b3">AS8218</text>
</a>
</g>
</g>
<!-- AS8245&#45;&gt;AS8218 -->
<g id="edge4" class="edge"><title>AS8245&#45;&gt;AS8218</title>
<path fill="none" stroke="black" stroke-width="0.1875" d="M203.951,-126C213.505,-126 223.854,-126 233.817,-126"/>
<polygon fill="black" stroke="black" stroke-width="0.1875" points="234.009,-129.5 244.009,-126 234.009,-122.5 234.009,-129.5"/>
</g>
<!-- AS6762 -->
<g id="node6" class="node"><title>AS6762</title>
<g id="a_node6"><a xlink:href="/asn/6762" xlink:title="AS6762 ~ TELECOM ITALIA SPARKLE S.p.A. [IT]">
<ellipse fill="#ffffff" stroke="black" cx="408.273" cy="-504" rx="39.7935" ry="18"/>
<text text-anchor="middle" x="408.273" y="-500.3" font-family="Times,serif" font-size="14.00" fill="#2c94b3">AS6762</text>
</a>
</g>
</g>
<!-- AS6830&#45;&gt;AS6762 -->
<g id="edge5" class="edge"><title>AS6830&#45;&gt;AS6762</title>
<path fill="none" stroke="black" stroke-width="2" d="M306.238,-437.901C322.089,-448.877 344.292,-464.079 364.077,-477 367.659,-479.339 371.43,-481.759 375.19,-484.144"/>
<polygon fill="black" stroke="black" stroke-width="2" points="373.523,-487.231 383.851,-489.596 377.252,-481.307 373.523,-487.231"/>
</g>
<!-- AS3491 -->
<g id="node7" class="node"><title>AS3491</title>
<g id="a_node7"><a xlink:href="/asn/3491" xlink:title="AS3491 ~ PCCW Global, Inc. [US]">
<ellipse fill="#ffffff" stroke="black" cx="408.273" cy="-450" rx="39.7935" ry="18"/>
<text text-anchor="middle" x="408.273" y="-446.3" font-family="Times,serif" font-size="14.00" fill="#2c94b3">AS3491</text>
</a>
</g>
</g>
<!-- AS6830&#45;&gt;AS3491 -->
<g id="edge6" class="edge"><title>AS6830&#45;&gt;AS3491</title>
<path fill="none" stroke="black" stroke-width="2" d="M319.954,-430.737C333.141,-433.646 348.321,-436.995 362.287,-440.076"/>
<polygon fill="black" stroke="black" stroke-width="2" points="361.676,-443.525 372.196,-442.262 363.184,-436.69 361.676,-443.525"/>
</g>
<!-- AS6453 -->
<g id="node8" class="node"><title>AS6453</title>
<g id="a_node8"><a xlink:href="/asn/6453" xlink:title="AS6453 ~ TATA COMMUNICATIONS (AMERICA) INC [US]">
<ellipse fill="#ffffff" stroke="black" cx="408.273" cy="-396" rx="39.7935" ry="18"/>
<text text-anchor="middle" x="408.273" y="-392.3" font-family="Times,serif" font-size="14.00" fill="#2c94b3">AS6453</text>
</a>
</g>
</g>
<!-- AS6830&#45;&gt;AS6453 -->
<g id="edge7" class="edge"><title>AS6830&#45;&gt;AS6453</title>
<path fill="none" stroke="black" stroke-width="2" d="M319.954,-415.263C333.141,-412.354 348.321,-409.005 362.287,-405.924"/>
<polygon fill="black" stroke="black" stroke-width="2" points="363.184,-409.31 372.196,-403.738 361.676,-402.475 363.184,-409.31"/>
</g>
<!-- AS7018 -->
<g id="node9" class="node"><title>AS7018</title>
<g id="a_node9"><a xlink:href="/asn/7018" xlink:title="AS7018 ~ AT&amp;T Services, Inc. [US]">
<ellipse fill="#ffffff" stroke="black" cx="408.273" cy="-342" rx="39.7935" ry="18"/>
<text text-anchor="middle" x="408.273" y="-338.3" font-family="Times,serif" font-size="14.00" fill="#2c94b3">AS7018</text>
</a>
</g>
</g>
<!-- AS6830&#45;&gt;AS7018 -->
<g id="edge8" class="edge"><title>AS6830&#45;&gt;AS7018</title>
<path fill="none" stroke="black" stroke-width="2" d="M306.238,-408.099C322.089,-397.123 344.292,-381.921 364.077,-369 367.659,-366.661 371.43,-364.241 375.19,-361.856"/>
<polygon fill="black" stroke="black" stroke-width="2" points="377.252,-364.693 383.851,-356.404 373.523,-358.769 377.252,-364.693"/>
</g>
<!-- AS1239 -->
<g id="node10" class="node"><title>AS1239</title>
<g id="a_node10"><a xlink:href="/asn/1239" xlink:title="AS1239 ~ Sprint [US]">
<ellipse fill="#ffffff" stroke="black" cx="408.273" cy="-288" rx="39.7935" ry="18"/>
<text text-anchor="middle" x="408.273" y="-284.3" font-family="Times,serif" font-size="14.00" fill="#2c94b3">AS1239</text>
</a>
</g>
</g>
<!-- AS6830&#45;&gt;AS1239 -->
<g id="edge9" class="edge"><title>AS6830&#45;&gt;AS1239</title>
<path fill="none" stroke="black" d="M294.927,-405.329C308.498,-382.528 334.43,-342.528 364.077,-315 366.984,-312.301 370.197,-309.72 373.521,-307.297"/>
<polygon fill="black" stroke="black" points="375.58,-310.13 381.899,-301.625 371.656,-304.333 375.58,-310.13"/>
</g>
<!-- AS3320 -->
<g id="node11" class="node"><title>AS3320</title>
<g id="a_node11"><a xlink:href="/asn/3320" xlink:title="AS3320 ~ DTAG [DE]">
<ellipse fill="#ffffff" stroke="black" cx="408.273" cy="-234" rx="39.7935" ry="18"/>
<text text-anchor="middle" x="408.273" y="-230.3" font-family="Times,serif" font-size="14.00" fill="#2c94b3">AS3320</text>
</a>
</g>
</g>
<!-- AS6830&#45;&gt;AS3320 -->
<g id="edge10" class="edge"><title>AS6830&#45;&gt;AS3320</title>
<path fill="none" stroke="black" d="M290.019,-405.06C299.922,-373.021 324.259,-305.188 364.077,-261 366.593,-258.208 369.465,-255.599 372.504,-253.188"/>
<polygon fill="black" stroke="black" points="374.687,-255.93 380.812,-247.285 370.633,-250.224 374.687,-255.93"/>
</g>
<!-- AS174 -->
<g id="node12" class="node"><title>AS174</title>
<g id="a_node12"><a xlink:href="/asn/174" xlink:title="AS174 ~ Cogent Communications [US]">
<ellipse fill="#ffffff" stroke="black" cx="408.273" cy="-180" rx="35.194" ry="18"/>
<text text-anchor="middle" x="408.273" y="-176.3" font-family="Times,serif" font-size="14.00" fill="#2c94b3">AS174</text>
</a>
</g>
</g>
<!-- AS6830&#45;&gt;AS174 -->
<g id="edge11" class="edge"><title>AS6830&#45;&gt;AS174</title>
<path fill="none" stroke="black" stroke-width="2" d="M287.462,-404.822C293.917,-365.003 313.988,-268.714 364.077,-207 366.773,-203.678 369.993,-200.648 373.442,-197.917"/>
<polygon fill="black" stroke="black" stroke-width="2" points="375.579,-200.693 381.767,-192.094 371.567,-194.957 375.579,-200.693"/>
</g>
<!-- AS701 -->
<g id="node13" class="node"><title>AS701</title>
<g id="a_node13"><a xlink:href="/asn/701" xlink:title="AS701 ~ UUNET [US]">
<ellipse fill="#ffffff" stroke="black" cx="408.273" cy="-796" rx="35.194" ry="18"/>
<text text-anchor="middle" x="408.273" y="-792.3" font-family="Times,serif" font-size="14.00" fill="#2c94b3">AS701</text>
</a>
</g>
</g>
<!-- AS6830&#45;&gt;AS701 -->
<g id="edge12" class="edge"><title>AS6830&#45;&gt;AS701</title>
<path fill="none" stroke="black" stroke-width="2" d="M284.377,-441.105C283.746,-495.919 288.5,-662.818 364.077,-769 366.558,-772.485 369.644,-775.618 373.017,-778.406"/>
<polygon fill="black" stroke="black" stroke-width="2" points="371.089,-781.33 381.261,-784.291 375.156,-775.632 371.089,-781.33"/>
</g>
<!-- AS2497 -->
<g id="node14" class="node"><title>AS2497</title>
<g id="a_node14"><a xlink:href="/asn/2497" xlink:title="AS2497 ~ Internet Initiative Japan Inc. [JP]">
<ellipse fill="#ffffff" stroke="black" cx="408.273" cy="-742" rx="39.7935" ry="18"/>
<text text-anchor="middle" x="408.273" y="-738.3" font-family="Times,serif" font-size="14.00" fill="#2c94b3">AS2497</text>
</a>
</g>
</g>
<!-- AS6830&#45;&gt;AS2497 -->
<g id="edge13" class="edge"><title>AS6830&#45;&gt;AS2497</title>
<path fill="none" stroke="black" stroke-width="2" d="M285.337,-441.047C287.434,-489.999 299.119,-627.481 364.077,-715 366.317,-718.018 369.004,-720.778 371.928,-723.283"/>
<polygon fill="black" stroke="black" stroke-width="2" points="369.956,-726.178 380.075,-729.318 374.123,-720.553 369.956,-726.178"/>
</g>
<!-- AS2914 -->
<g id="node15" class="node"><title>AS2914</title>
<g id="a_node15"><a xlink:href="/asn/2914" xlink:title="AS2914 ~ NTT America, Inc. [US]">
<ellipse fill="#ffffff" stroke="black" cx="408.273" cy="-688" rx="39.7935" ry="18"/>
<text text-anchor="middle" x="408.273" y="-684.3" font-family="Times,serif" font-size="14.00" fill="#2c94b3">AS2914</text>
</a>
</g>
</g>
<!-- AS6830&#45;&gt;AS2914 -->
<g id="edge14" class="edge"><title>AS6830&#45;&gt;AS2914</title>
<path fill="none" stroke="black" stroke-width="2" d="M286.705,-441.074C291.82,-483.653 309.681,-591.871 364.077,-661 366.402,-663.954 369.145,-666.671 372.103,-669.149"/>
<polygon fill="black" stroke="black" stroke-width="2" points="370.163,-672.065 380.3,-675.146 374.296,-666.416 370.163,-672.065"/>
</g>
<!-- AS6461 -->
<g id="node16" class="node"><title>AS6461</title>
<g id="a_node16"><a xlink:href="/asn/6461" xlink:title="AS6461 ~ Zayo Bandwidth [US]">
<ellipse fill="#ffffff" stroke="black" cx="408.273" cy="-126" rx="39.7935" ry="18"/>
<text text-anchor="middle" x="408.273" y="-122.3" font-family="Times,serif" font-size="14.00" fill="#2c94b3">AS6461</text>
</a>
</g>
</g>
<!-- AS6830&#45;&gt;AS6461 -->
<g id="edge15" class="edge"><title>AS6830&#45;&gt;AS6461</title>
<path fill="none" stroke="black" d="M285.83,-404.964C289.116,-358.543 303.426,-232.993 364.077,-153 366.348,-150.005 369.056,-147.26 371.992,-144.765"/>
<polygon fill="black" stroke="black" points="374.186,-147.496 380.157,-138.744 370.032,-141.862 374.186,-147.496"/>
</g>
<!-- AS1273 -->
<g id="node17" class="node"><title>AS1273</title>
<g id="a_node17"><a xlink:href="/asn/1273" xlink:title="AS1273 ~ Vodafone Group PLC [EU]">
<ellipse fill="#ffffff" stroke="black" cx="408.273" cy="-634" rx="39.7935" ry="18"/>
<text text-anchor="middle" x="408.273" y="-630.3" font-family="Times,serif" font-size="14.00" fill="#2c94b3">AS1273</text>
</a>
</g>
</g>
<!-- AS6830&#45;&gt;AS1273 -->
<g id="edge16" class="edge"><title>AS6830&#45;&gt;AS1273</title>
<path fill="none" stroke="black" d="M289.464,-440.882C298.895,-475.057 323.099,-550.792 364.077,-602 367.346,-606.085 371.255,-609.916 375.367,-613.408"/>
<polygon fill="black" stroke="black" points="373.372,-616.29 383.409,-619.682 377.678,-610.771 373.372,-616.29"/>
</g>
<!-- AS3356 -->
<g id="node18" class="node"><title>AS3356</title>
<g id="a_node18"><a xlink:href="/asn/3356" xlink:title="AS3356 ~ Level 3 Parent, LLC [US]">
<ellipse fill="#ffffff" stroke="black" cx="528.116" cy="-459" rx="39.7935" ry="18"/>
<text text-anchor="middle" x="528.116" y="-455.3" font-family="Times,serif" font-size="14.00" fill="#2c94b3">AS3356</text>
</a>
</g>
</g>
<!-- AS6830&#45;&gt;AS3356 -->
<g id="edge17" class="edge"><title>AS6830&#45;&gt;AS3356</title>
<path fill="none" stroke="black" stroke-width="2" d="M288.779,-440.91C296.714,-472.438 318.038,-537.055 364.077,-564 397.983,-583.844 417.558,-582.015 452.469,-564 483.878,-547.792 504.954,-511.585 516.485,-486.245"/>
<polygon fill="black" stroke="black" stroke-width="2" points="519.813,-487.368 520.575,-476.801 513.389,-484.586 519.813,-487.368"/>
</g>
<!-- AS1299 -->
<g id="node19" class="node"><title>AS1299</title>
<g id="a_node19"><a xlink:href="/asn/1299" xlink:title="AS1299 ~ Telia Carrier [EU]">
<ellipse fill="#ffffff" stroke="black" cx="528.116" cy="-276" rx="39.7935" ry="18"/>
<text text-anchor="middle" x="528.116" y="-272.3" font-family="Times,serif" font-size="14.00" fill="#2c94b3">AS1299</text>
</a>
</g>
</g>
<!-- AS6830&#45;&gt;AS1299 -->
<g id="edge18" class="edge"><title>AS6830&#45;&gt;AS1299</title>
<path fill="none" stroke="black" d="M291.806,-440.902C302.758,-466.374 326.745,-512.082 364.077,-531 399.12,-548.758 421.03,-554.556 452.469,-531 461.802,-524.008 502.976,-368.916 519.858,-304.087"/>
<polygon fill="black" stroke="black" points="523.315,-304.699 522.442,-294.14 516.54,-302.939 523.315,-304.699"/>
</g>
<!-- AS3257 -->
<g id="node20" class="node"><title>AS3257</title>
<g id="a_node20"><a xlink:href="/asn/3257" xlink:title="AS3257 ~ GTT [DE]">
<ellipse fill="#ffffff" stroke="black" cx="408.273" cy="-72" rx="39.7935" ry="18"/>
<text text-anchor="middle" x="408.273" y="-68.3" font-family="Times,serif" font-size="14.00" fill="#2c94b3">AS3257</text>
</a>
</g>
</g>
<!-- AS6830&#45;&gt;AS3257 -->
<g id="edge19" class="edge"><title>AS6830&#45;&gt;AS3257</title>
<path fill="none" stroke="black" d="M284.733,-404.922C285.182,-352.439 292.835,-197.548 364.077,-99 366.279,-95.954 368.941,-93.1752 371.848,-90.6588"/>
<polygon fill="black" stroke="black" points="374.044,-93.3878 379.973,-84.6076 369.863,-87.7737 374.044,-93.3878"/>
</g>
<!-- AS24953&#45;&gt;AS3257 -->
<g id="edge21" class="edge"><title>AS24953&#45;&gt;AS3257</title>
<path fill="none" stroke="black" d="M328.377,-72C338.066,-72 348.403,-72 358.295,-72"/>
<polygon fill="black" stroke="black" points="358.398,-75.5001 368.398,-72 358.398,-68.5001 358.398,-75.5001"/>
</g>
<!-- AS21385 -->
<g id="node21" class="node"><title>AS21385</title>
<g id="a_node21"><a xlink:href="/asn/21385" xlink:title="AS21385 ~ Trusted Network GmbH [DE]">
<ellipse fill="#ffffff" stroke="black" cx="408.273" cy="-18" rx="44.393" ry="18"/>
<text text-anchor="middle" x="408.273" y="-14.3" font-family="Times,serif" font-size="14.00" fill="#2c94b3">AS21385</text>
</a>
</g>
</g>
<!-- AS24953&#45;&gt;AS21385 -->
<g id="edge20" class="edge"><title>AS24953&#45;&gt;AS21385</title>
<path fill="none" stroke="black" stroke-width="3" d="M314.509,-58.9281C330.626,-51.8172 350.766,-42.9314 368.158,-35.258"/>
<polygon fill="black" stroke="black" stroke-width="3" points="369.758,-38.3775 377.494,-31.1387 366.932,-31.9732 369.758,-38.3775"/>
</g>
<!-- AS8218&#45;&gt;AS6461 -->
<g id="edge26" class="edge"><title>AS8218&#45;&gt;AS6461</title>
<path fill="none" stroke="black" d="M323.607,-126C334.545,-126 346.596,-126 358.062,-126"/>
<polygon fill="black" stroke="black" points="358.38,-129.5 368.38,-126 358.38,-122.5 358.38,-129.5"/>
</g>
<!-- AS3549 -->
<g id="node22" class="node"><title>AS3549</title>
<g id="a_node22"><a xlink:href="/asn/3549" xlink:title="AS3549 ~ Level 3 Parent, LLC [US]">
<ellipse fill="#ffffff" stroke="black" cx="643.409" cy="-486" rx="39.7935" ry="18"/>
<text text-anchor="middle" x="643.409" y="-482.3" font-family="Times,serif" font-size="14.00" fill="#2c94b3">AS3549</text>
</a>
</g>
</g>
<!-- AS3356&#45;&gt;AS3549 -->
<g id="edge24" class="edge"><title>AS3356&#45;&gt;AS3549</title>
<path fill="none" stroke="black" d="M563.723,-467.248C574.594,-469.838 586.749,-472.735 598.191,-475.462"/>
<polygon fill="black" stroke="black" points="597.475,-478.889 608.014,-477.803 599.097,-472.08 597.475,-478.889"/>
</g>
<!-- AS209 -->
<g id="node23" class="node"><title>AS209</title>
<g id="a_node23"><a xlink:href="/asn/209" xlink:title="AS209 ~ CenturyLink Communications, LLC [US]">
<ellipse fill="#ffffff" stroke="black" cx="643.409" cy="-432" rx="35.194" ry="18"/>
<text text-anchor="middle" x="643.409" y="-428.3" font-family="Times,serif" font-size="14.00" fill="#2c94b3">AS209</text>
</a>
</g>
</g>
<!-- AS3356&#45;&gt;AS209 -->
<g id="edge25" class="edge"><title>AS3356&#45;&gt;AS209</title>
<path fill="none" stroke="black" d="M563.723,-450.752C575.518,-447.942 588.822,-444.771 601.09,-441.847"/>
<polygon fill="black" stroke="black" points="602.179,-445.186 611.095,-439.463 600.556,-438.376 602.179,-445.186"/>
</g>
<!-- AS21385&#45;&gt;AS3356 -->
<g id="edge22" class="edge"><title>AS21385&#45;&gt;AS3356</title>
<path fill="none" stroke="black" stroke-width="2" d="M438.328,-31.2108C443.796,-34.937 448.908,-39.5094 452.469,-45 515.472,-142.135 466.519,-189.322 488.469,-303 497.214,-348.289 510.781,-400.138 519.295,-431.19"/>
<polygon fill="black" stroke="black" stroke-width="2" points="515.936,-432.178 521.974,-440.884 522.683,-430.313 515.936,-432.178"/>
</g>
<!-- AS21385&#45;&gt;AS1299 -->
<g id="edge23" class="edge"><title>AS21385&#45;&gt;AS1299</title>
<path fill="none" stroke="black" d="M437.626,-31.7112C443.138,-35.4063 448.445,-39.8394 452.469,-45 500.801,-106.973 518.328,-201.228 524.284,-247.853"/>
<polygon fill="black" stroke="black" points="520.816,-248.328 525.474,-257.844 527.766,-247.5 520.816,-248.328"/>
</g>
</g>
</svg>
