<?xml version="1.0" encoding="UTF-8" standalone="no"?>
<!DOCTYPE svg PUBLIC "-//W3C//DTD SVG 1.1//EN"
 "http://www.w3.org/Graphics/SVG/1.1/DTD/svg11.dtd">
<!-- Generated by graphviz version 2.38.0 (20140413.2041)
 -->
<!-- Title: AS200727 Combined Upstream Graph Pages: 1 -->
<svg width="459pt" height="530pt"
 viewBox="0.00 0.00 459.17 530.00" xmlns="http://www.w3.org/2000/svg" xmlns:xlink="http://www.w3.org/1999/xlink">
<g id="graph0" class="graph" transform="scale(1 1) rotate(0) translate(4 526)">
<title>AS200727 Combined Upstream Graph</title>
<polygon fill="white" stroke="none" points="-4,4 -4,-526 455.17,-526 455.17,4 -4,4"/>
<!-- AS200727 -->
<g id="node1" class="node"><title>AS200727</title>
<g id="a_node1"><a xlink:href="/asn/200727" xlink:title="AS200727 ~ Kommunalbetriebe Rinn GmbH [AT]">
<ellipse fill="#ffffff" stroke="black" cx="48.0957" cy="-288" rx="48.1917" ry="18"/>
<text text-anchor="middle" x="48.0957" y="-284.3" font-family="Times,serif" font-size="14.00" fill="#880000">AS200727</text>
</a>
</g>
</g>
<!-- AS34347 -->
<g id="node2" class="node"><title>AS34347</title>
<g id="a_node2"><a xlink:href="/asn/34347" xlink:title="AS34347 ~ HALLAG Kommunal GmbH [AT]">
<ellipse fill="#ffffff" stroke="black" cx="176.388" cy="-288" rx="44.393" ry="18"/>
<text text-anchor="middle" x="176.388" y="-284.3" font-family="Times,serif" font-size="14.00" fill="#2c94b3">AS34347</text>
</a>
</g>
</g>
<!-- AS200727&#45;&gt;AS34347 -->
<g id="edge1" class="edge"><title>AS200727&#45;&gt;AS34347</title>
<path fill="none" stroke="black" stroke-width="4.5" d="M96.4815,-288C104.742,-288 113.386,-288 121.799,-288"/>
<polygon fill="black" stroke="black" stroke-width="4.5" points="121.904,-291.938 131.904,-288 121.904,-284.063 121.904,-291.938"/>
</g>
<!-- AS2914 -->
<g id="node3" class="node"><title>AS2914</title>
<g id="a_node3"><a xlink:href="/asn/2914" xlink:title="AS2914 ~ NTT America, Inc. [US]">
<ellipse fill="#ffffff" stroke="black" cx="296.23" cy="-288" rx="39.7935" ry="18"/>
<text text-anchor="middle" x="296.23" y="-284.3" font-family="Times,serif" font-size="14.00" fill="#2c94b3">AS2914</text>
</a>
</g>
</g>
<!-- AS34347&#45;&gt;AS2914 -->
<g id="edge2" class="edge"><title>AS34347&#45;&gt;AS2914</title>
<path fill="none" stroke="black" stroke-width="4" d="M220.599,-288C228.911,-288 237.674,-288 246.156,-288"/>
<polygon fill="black" stroke="black" stroke-width="4" points="246.315,-291.5 256.315,-288 246.315,-284.5 246.315,-291.5"/>
</g>
<!-- AS1299 -->
<g id="node4" class="node"><title>AS1299</title>
<g id="a_node4"><a xlink:href="/asn/1299" xlink:title="AS1299 ~ Telia Carrier [EU]">
<ellipse fill="#ffffff" stroke="black" cx="296.23" cy="-436" rx="39.7935" ry="18"/>
<text text-anchor="middle" x="296.23" y="-432.3" font-family="Times,serif" font-size="14.00" fill="#2c94b3">AS1299</text>
</a>
</g>
</g>
<!-- AS34347&#45;&gt;AS1299 -->
<g id="edge3" class="edge"><title>AS34347&#45;&gt;AS1299</title>
<path fill="none" stroke="black" stroke-width="3" d="M189.046,-305.377C203.917,-327.182 230.806,-365.425 256.584,-396 261.184,-401.456 266.349,-407.096 271.369,-412.358"/>
<polygon fill="black" stroke="black" stroke-width="3" points="269.058,-415.003 278.538,-419.733 274.077,-410.123 269.058,-415.003"/>
</g>
<!-- AS6762 -->
<g id="node5" class="node"><title>AS6762</title>
<g id="a_node5"><a xlink:href="/asn/6762" xlink:title="AS6762 ~ TELECOM ITALIA SPARKLE S.p.A. [IT]">
<ellipse fill="#ffffff" stroke="black" cx="296.23" cy="-369" rx="39.7935" ry="18"/>
<text text-anchor="middle" x="296.23" y="-365.3" font-family="Times,serif" font-size="14.00" fill="#2c94b3">AS6762</text>
</a>
</g>
</g>
<!-- AS34347&#45;&gt;AS6762 -->
<g id="edge4" class="edge"><title>AS34347&#45;&gt;AS6762</title>
<path fill="none" stroke="black" stroke-width="1.5" d="M199.83,-303.426C218.412,-316.198 244.972,-334.455 265.352,-348.463"/>
<polygon fill="black" stroke="black" stroke-width="1.5" points="263.443,-351.398 273.666,-354.178 267.408,-345.629 263.443,-351.398"/>
</g>
<!-- AS174 -->
<g id="node6" class="node"><title>AS174</title>
<g id="a_node6"><a xlink:href="/asn/174" xlink:title="AS174 ~ Cogent Communications [US]">
<ellipse fill="#ffffff" stroke="black" cx="296.23" cy="-234" rx="35.194" ry="18"/>
<text text-anchor="middle" x="296.23" y="-230.3" font-family="Times,serif" font-size="14.00" fill="#2c94b3">AS174</text>
</a>
</g>
</g>
<!-- AS34347&#45;&gt;AS174 -->
<g id="edge5" class="edge"><title>AS34347&#45;&gt;AS174</title>
<path fill="none" stroke="black" stroke-width="2.5" d="M206.517,-274.652C222.734,-267.22 243.038,-257.917 260.127,-250.086"/>
<polygon fill="black" stroke="black" stroke-width="2.5" points="261.611,-253.256 269.244,-245.908 258.695,-246.892 261.611,-253.256"/>
</g>
<!-- AS3356 -->
<g id="node7" class="node"><title>AS3356</title>
<g id="a_node7"><a xlink:href="/asn/3356" xlink:title="AS3356 ~ Level 3 Parent, LLC [US]">
<ellipse fill="#ffffff" stroke="black" cx="296.23" cy="-153" rx="39.7935" ry="18"/>
<text text-anchor="middle" x="296.23" y="-149.3" font-family="Times,serif" font-size="14.00" fill="#2c94b3">AS3356</text>
</a>
</g>
</g>
<!-- AS34347&#45;&gt;AS3356 -->
<g id="edge6" class="edge"><title>AS34347&#45;&gt;AS3356</title>
<path fill="none" stroke="black" stroke-width="4.5" d="M192.312,-270.902C212.855,-247.369 249.974,-204.845 273.571,-177.813"/>
<polygon fill="black" stroke="black" stroke-width="4.5" points="276.817,-180.082 280.426,-169.959 270.884,-174.903 276.817,-180.082"/>
</g>
<!-- AS2497 -->
<g id="node11" class="node"><title>AS2497</title>
<g id="a_node11"><a xlink:href="/asn/2497" xlink:title="AS2497 ~ Internet Initiative Japan Inc. [JP]">
<ellipse fill="#ffffff" stroke="black" cx="411.523" cy="-180" rx="39.7935" ry="18"/>
<text text-anchor="middle" x="411.523" y="-176.3" font-family="Times,serif" font-size="14.00" fill="#2c94b3">AS2497</text>
</a>
</g>
</g>
<!-- AS2914&#45;&gt;AS2497 -->
<g id="edge10" class="edge"><title>AS2914&#45;&gt;AS2497</title>
<path fill="none" stroke="black" stroke-width="2" d="M320.824,-273.611C326.08,-269.852 331.412,-265.563 335.877,-261 356.049,-240.383 351.704,-227.617 371.877,-207 373.969,-204.861 376.253,-202.782 378.63,-200.79"/>
<polygon fill="black" stroke="black" stroke-width="2" points="381.148,-203.268 386.929,-194.389 376.873,-197.725 381.148,-203.268"/>
</g>
<!-- AS3491 -->
<g id="node12" class="node"><title>AS3491</title>
<g id="a_node12"><a xlink:href="/asn/3491" xlink:title="AS3491 ~ PCCW Global, Inc. [US]">
<ellipse fill="#ffffff" stroke="black" cx="411.523" cy="-288" rx="39.7935" ry="18"/>
<text text-anchor="middle" x="411.523" y="-284.3" font-family="Times,serif" font-size="14.00" fill="#2c94b3">AS3491</text>
</a>
</g>
</g>
<!-- AS2914&#45;&gt;AS3491 -->
<g id="edge11" class="edge"><title>AS2914&#45;&gt;AS3491</title>
<path fill="none" stroke="black" stroke-width="2" d="M335.902,-288C344.105,-288 352.869,-288 361.401,-288"/>
<polygon fill="black" stroke="black" stroke-width="2" points="361.641,-291.5 371.641,-288 361.641,-284.5 361.641,-291.5"/>
</g>
<!-- AS701 -->
<g id="node13" class="node"><title>AS701</title>
<g id="a_node13"><a xlink:href="/asn/701" xlink:title="AS701 ~ UUNET [US]">
<ellipse fill="#ffffff" stroke="black" cx="411.523" cy="-234" rx="35.194" ry="18"/>
<text text-anchor="middle" x="411.523" y="-230.3" font-family="Times,serif" font-size="14.00" fill="#2c94b3">AS701</text>
</a>
</g>
</g>
<!-- AS2914&#45;&gt;AS701 -->
<g id="edge12" class="edge"><title>AS2914&#45;&gt;AS701</title>
<path fill="none" stroke="black" d="M324.367,-275.066C339.798,-267.71 359.284,-258.423 375.819,-250.541"/>
<polygon fill="black" stroke="black" points="377.64,-253.551 385.161,-246.089 374.628,-247.232 377.64,-253.551"/>
</g>
<!-- AS1273 -->
<g id="node14" class="node"><title>AS1273</title>
<g id="a_node14"><a xlink:href="/asn/1273" xlink:title="AS1273 ~ Vodafone Group PLC [EU]">
<ellipse fill="#ffffff" stroke="black" cx="411.523" cy="-342" rx="39.7935" ry="18"/>
<text text-anchor="middle" x="411.523" y="-338.3" font-family="Times,serif" font-size="14.00" fill="#2c94b3">AS1273</text>
</a>
</g>
</g>
<!-- AS2914&#45;&gt;AS1273 -->
<g id="edge13" class="edge"><title>AS2914&#45;&gt;AS1273</title>
<path fill="none" stroke="black" d="M324.367,-300.934C339.361,-308.081 358.182,-317.052 374.405,-324.785"/>
<polygon fill="black" stroke="black" points="373.075,-328.028 383.608,-329.171 376.087,-321.709 373.075,-328.028"/>
</g>
<!-- AS7018 -->
<g id="node8" class="node"><title>AS7018</title>
<g id="a_node8"><a xlink:href="/asn/7018" xlink:title="AS7018 ~ AT&amp;T Services, Inc. [US]">
<ellipse fill="#ffffff" stroke="black" cx="411.523" cy="-450" rx="39.7935" ry="18"/>
<text text-anchor="middle" x="411.523" y="-446.3" font-family="Times,serif" font-size="14.00" fill="#2c94b3">AS7018</text>
</a>
</g>
</g>
<!-- AS1299&#45;&gt;AS7018 -->
<g id="edge7" class="edge"><title>AS1299&#45;&gt;AS7018</title>
<path fill="none" stroke="black" stroke-width="2" d="M334.64,-440.623C343.728,-441.746 353.566,-442.962 363.05,-444.134"/>
<polygon fill="black" stroke="black" stroke-width="2" points="362.798,-447.629 373.152,-445.382 363.657,-440.682 362.798,-447.629"/>
</g>
<!-- AS1239 -->
<g id="node9" class="node"><title>AS1239</title>
<g id="a_node9"><a xlink:href="/asn/1239" xlink:title="AS1239 ~ Sprint [US]">
<ellipse fill="#ffffff" stroke="black" cx="411.523" cy="-504" rx="39.7935" ry="18"/>
<text text-anchor="middle" x="411.523" y="-500.3" font-family="Times,serif" font-size="14.00" fill="#2c94b3">AS1239</text>
</a>
</g>
</g>
<!-- AS1299&#45;&gt;AS1239 -->
<g id="edge8" class="edge"><title>AS1299&#45;&gt;AS1239</title>
<path fill="none" stroke="black" d="M320.98,-450.255C337.597,-460.229 359.993,-473.671 378.229,-484.617"/>
<polygon fill="black" stroke="black" points="376.429,-487.618 386.804,-489.764 380.032,-481.616 376.429,-487.618"/>
</g>
<!-- AS6453 -->
<g id="node10" class="node"><title>AS6453</title>
<g id="a_node10"><a xlink:href="/asn/6453" xlink:title="AS6453 ~ TATA COMMUNICATIONS (AMERICA) INC [US]">
<ellipse fill="#ffffff" stroke="black" cx="411.523" cy="-396" rx="39.7935" ry="18"/>
<text text-anchor="middle" x="411.523" y="-392.3" font-family="Times,serif" font-size="14.00" fill="#2c94b3">AS6453</text>
</a>
</g>
</g>
<!-- AS1299&#45;&gt;AS6453 -->
<g id="edge9" class="edge"><title>AS1299&#45;&gt;AS6453</title>
<path fill="none" stroke="black" d="M328.188,-425.07C341.051,-420.528 356.157,-415.195 369.894,-410.345"/>
<polygon fill="black" stroke="black" points="371.338,-413.547 379.603,-406.917 369.008,-406.946 371.338,-413.547"/>
</g>
<!-- AS6762&#45;&gt;AS6453 -->
<g id="edge14" class="edge"><title>AS6762&#45;&gt;AS6453</title>
<path fill="none" stroke="black" d="M331.837,-377.248C342.709,-379.838 354.863,-382.735 366.305,-385.462"/>
<polygon fill="black" stroke="black" points="365.589,-388.889 376.128,-387.803 367.212,-382.08 365.589,-388.889"/>
</g>
<!-- AS174&#45;&gt;AS3491 -->
<g id="edge15" class="edge"><title>AS174&#45;&gt;AS3491</title>
<path fill="none" stroke="black" d="M322.655,-246.119C337.958,-253.413 357.681,-262.814 374.563,-270.86"/>
<polygon fill="black" stroke="black" points="373.071,-274.026 383.604,-275.169 376.082,-267.707 373.071,-274.026"/>
</g>
<!-- AS174&#45;&gt;AS701 -->
<g id="edge17" class="edge"><title>AS174&#45;&gt;AS701</title>
<path fill="none" stroke="black" d="M331.529,-234C342.399,-234 354.577,-234 366.054,-234"/>
<polygon fill="black" stroke="black" points="366.341,-237.5 376.341,-234 366.341,-230.5 366.341,-237.5"/>
</g>
<!-- AS3257 -->
<g id="node15" class="node"><title>AS3257</title>
<g id="a_node15"><a xlink:href="/asn/3257" xlink:title="AS3257 ~ GTT [DE]">
<ellipse fill="#ffffff" stroke="black" cx="411.523" cy="-126" rx="39.7935" ry="18"/>
<text text-anchor="middle" x="411.523" y="-122.3" font-family="Times,serif" font-size="14.00" fill="#2c94b3">AS3257</text>
</a>
</g>
</g>
<!-- AS174&#45;&gt;AS3257 -->
<g id="edge16" class="edge"><title>AS174&#45;&gt;AS3257</title>
<path fill="none" stroke="black" d="M310.595,-217.501C324.85,-200.404 348.545,-173.381 371.877,-153 374.342,-150.846 376.981,-148.706 379.678,-146.628"/>
<polygon fill="black" stroke="black" points="381.851,-149.375 387.832,-140.63 377.703,-143.736 381.851,-149.375"/>
</g>
<!-- AS3356&#45;&gt;AS6453 -->
<g id="edge22" class="edge"><title>AS3356&#45;&gt;AS6453</title>
<path fill="none" stroke="black" d="M312.041,-169.894C320.199,-180.025 329.861,-193.525 335.877,-207 365.946,-274.349 330.852,-307.706 371.877,-369 373.498,-371.423 375.417,-373.695 377.519,-375.81"/>
<polygon fill="black" stroke="black" points="375.332,-378.546 385.204,-382.393 379.886,-373.229 375.332,-378.546"/>
</g>
<!-- AS3356&#45;&gt;AS2497 -->
<g id="edge20" class="edge"><title>AS3356&#45;&gt;AS2497</title>
<path fill="none" stroke="black" stroke-width="2" d="M331.837,-161.248C342.709,-163.838 354.863,-166.735 366.305,-169.462"/>
<polygon fill="black" stroke="black" stroke-width="2" points="365.589,-172.889 376.128,-171.803 367.212,-166.08 365.589,-172.889"/>
</g>
<!-- AS3356&#45;&gt;AS3257 -->
<g id="edge19" class="edge"><title>AS3356&#45;&gt;AS3257</title>
<path fill="none" stroke="black" d="M331.837,-144.752C342.709,-142.162 354.863,-139.265 366.305,-136.538"/>
<polygon fill="black" stroke="black" points="367.212,-139.92 376.128,-134.197 365.589,-133.111 367.212,-139.92"/>
</g>
<!-- AS3549 -->
<g id="node16" class="node"><title>AS3549</title>
<g id="a_node16"><a xlink:href="/asn/3549" xlink:title="AS3549 ~ Level 3 Parent, LLC [US]">
<ellipse fill="#ffffff" stroke="black" cx="411.523" cy="-72" rx="39.7935" ry="18"/>
<text text-anchor="middle" x="411.523" y="-68.3" font-family="Times,serif" font-size="14.00" fill="#2c94b3">AS3549</text>
</a>
</g>
</g>
<!-- AS3356&#45;&gt;AS3549 -->
<g id="edge18" class="edge"><title>AS3356&#45;&gt;AS3549</title>
<path fill="none" stroke="black" stroke-width="2" d="M318.078,-137.778C333.012,-126.909 353.626,-111.975 371.877,-99 374.697,-96.9948 377.64,-94.9154 380.588,-92.8411"/>
<polygon fill="black" stroke="black" stroke-width="2" points="382.634,-95.6812 388.813,-87.0744 378.616,-89.9497 382.634,-95.6812"/>
</g>
<!-- AS209 -->
<g id="node17" class="node"><title>AS209</title>
<g id="a_node17"><a xlink:href="/asn/209" xlink:title="AS209 ~ CenturyLink Communications, LLC [US]">
<ellipse fill="#ffffff" stroke="black" cx="411.523" cy="-18" rx="35.194" ry="18"/>
<text text-anchor="middle" x="411.523" y="-14.3" font-family="Times,serif" font-size="14.00" fill="#2c94b3">AS209</text>
</a>
</g>
</g>
<!-- AS3356&#45;&gt;AS209 -->
<g id="edge21" class="edge"><title>AS3356&#45;&gt;AS209</title>
<path fill="none" stroke="black" d="M306.69,-135.51C319.472,-112.904 343.904,-73.114 371.877,-45 374.377,-42.487 377.138,-40.0515 379.999,-37.7391"/>
<polygon fill="black" stroke="black" points="382.299,-40.3888 388.196,-31.5866 378.097,-34.7903 382.299,-40.3888"/>
</g>
</g>
</svg>
