<?xml version="1.0" encoding="UTF-8" standalone="no"?>
<!DOCTYPE svg PUBLIC "-//W3C//DTD SVG 1.1//EN"
 "http://www.w3.org/Graphics/SVG/1.1/DTD/svg11.dtd">
<!-- Generated by graphviz version 2.38.0 (20140413.2041)
 -->
<!-- Title: AS200727 IPv4 Upstream Graph Pages: 1 -->
<svg width="459pt" height="395pt"
 viewBox="0.00 0.00 459.17 395.00" xmlns="http://www.w3.org/2000/svg" xmlns:xlink="http://www.w3.org/1999/xlink">
<g id="graph0" class="graph" transform="scale(1 1) rotate(0) translate(4 391)">
<title>AS200727 IPv4 Upstream Graph</title>
<polygon fill="white" stroke="none" points="-4,4 -4,-391 455.17,-391 455.17,4 -4,4"/>
<!-- AS200727 -->
<g id="node1" class="node"><title>AS200727</title>
<g id="a_node1"><a xlink:href="/asn/200727" xlink:title="AS200727 ~ Kommunalbetriebe Rinn GmbH [AT]">
<ellipse fill="#ffffff" stroke="black" cx="48.0957" cy="-126" rx="48.1917" ry="18"/>
<text text-anchor="middle" x="48.0957" y="-122.3" font-family="Times,serif" font-size="14.00" fill="#880000">AS200727</text>
</a>
</g>
</g>
<!-- AS34347 -->
<g id="node2" class="node"><title>AS34347</title>
<g id="a_node2"><a xlink:href="/asn/34347" xlink:title="AS34347 ~ HALLAG Kommunal GmbH [AT]">
<ellipse fill="#ffffff" stroke="black" cx="176.388" cy="-126" rx="44.393" ry="18"/>
<text text-anchor="middle" x="176.388" y="-122.3" font-family="Times,serif" font-size="14.00" fill="#2c94b3">AS34347</text>
</a>
</g>
</g>
<!-- AS200727&#45;&gt;AS34347 -->
<g id="edge1" class="edge"><title>AS200727&#45;&gt;AS34347</title>
<path fill="none" stroke="black" stroke-width="4.5" d="M96.4815,-126C104.742,-126 113.386,-126 121.799,-126"/>
<polygon fill="black" stroke="black" stroke-width="4.5" points="121.904,-129.938 131.904,-126 121.904,-122.063 121.904,-129.938"/>
</g>
<!-- AS1299 -->
<g id="node3" class="node"><title>AS1299</title>
<g id="a_node3"><a xlink:href="/asn/1299" xlink:title="AS1299 ~ Telia Carrier [EU]">
<ellipse fill="#ffffff" stroke="black" cx="296.23" cy="-234" rx="39.7935" ry="18"/>
<text text-anchor="middle" x="296.23" y="-230.3" font-family="Times,serif" font-size="14.00" fill="#2c94b3">AS1299</text>
</a>
</g>
</g>
<!-- AS34347&#45;&gt;AS1299 -->
<g id="edge2" class="edge"><title>AS34347&#45;&gt;AS1299</title>
<path fill="none" stroke="black" stroke-width="2.25" d="M192.32,-143.044C207.646,-160.097 232.582,-186.65 256.584,-207 259.081,-209.117 261.741,-211.232 264.453,-213.293"/>
<polygon fill="black" stroke="black" stroke-width="2.25" points="262.489,-216.194 272.629,-219.266 266.619,-210.541 262.489,-216.194"/>
</g>
<!-- AS3356 -->
<g id="node4" class="node"><title>AS3356</title>
<g id="a_node4"><a xlink:href="/asn/3356" xlink:title="AS3356 ~ Level 3 Parent, LLC [US]">
<ellipse fill="#ffffff" stroke="black" cx="296.23" cy="-180" rx="39.7935" ry="18"/>
<text text-anchor="middle" x="296.23" y="-176.3" font-family="Times,serif" font-size="14.00" fill="#2c94b3">AS3356</text>
</a>
</g>
</g>
<!-- AS34347&#45;&gt;AS3356 -->
<g id="edge3" class="edge"><title>AS34347&#45;&gt;AS3356</title>
<path fill="none" stroke="black" stroke-width="4.5" d="M206.517,-139.348C222.128,-146.502 241.526,-155.391 258.198,-163.03"/>
<polygon fill="black" stroke="black" stroke-width="4.5" points="256.919,-166.775 267.65,-167.362 260.199,-159.616 256.919,-166.775"/>
</g>
<!-- AS174 -->
<g id="node5" class="node"><title>AS174</title>
<g id="a_node5"><a xlink:href="/asn/174" xlink:title="AS174 ~ Cogent Communications [US]">
<ellipse fill="#ffffff" stroke="black" cx="296.23" cy="-72" rx="35.194" ry="18"/>
<text text-anchor="middle" x="296.23" y="-68.3" font-family="Times,serif" font-size="14.00" fill="#2c94b3">AS174</text>
</a>
</g>
</g>
<!-- AS34347&#45;&gt;AS174 -->
<g id="edge4" class="edge"><title>AS34347&#45;&gt;AS174</title>
<path fill="none" stroke="black" stroke-width="2.25" d="M206.517,-112.652C222.734,-105.22 243.038,-95.9166 260.127,-88.0857"/>
<polygon fill="black" stroke="black" stroke-width="2.25" points="261.611,-91.2557 269.244,-83.908 258.695,-84.892 261.611,-91.2557"/>
</g>
<!-- AS2914 -->
<g id="node6" class="node"><title>AS2914</title>
<g id="a_node6"><a xlink:href="/asn/2914" xlink:title="AS2914 ~ NTT America, Inc. [US]">
<ellipse fill="#ffffff" stroke="black" cx="296.23" cy="-126" rx="39.7935" ry="18"/>
<text text-anchor="middle" x="296.23" y="-122.3" font-family="Times,serif" font-size="14.00" fill="#2c94b3">AS2914</text>
</a>
</g>
</g>
<!-- AS34347&#45;&gt;AS2914 -->
<g id="edge5" class="edge"><title>AS34347&#45;&gt;AS2914</title>
<path fill="none" stroke="black" stroke-width="1.5" d="M220.599,-126C228.911,-126 237.674,-126 246.156,-126"/>
<polygon fill="black" stroke="black" stroke-width="1.5" points="246.315,-129.5 256.315,-126 246.315,-122.5 246.315,-129.5"/>
</g>
<!-- AS6762 -->
<g id="node7" class="node"><title>AS6762</title>
<g id="a_node7"><a xlink:href="/asn/6762" xlink:title="AS6762 ~ TELECOM ITALIA SPARKLE S.p.A. [IT]">
<ellipse fill="#ffffff" stroke="black" cx="296.23" cy="-18" rx="39.7935" ry="18"/>
<text text-anchor="middle" x="296.23" y="-14.3" font-family="Times,serif" font-size="14.00" fill="#2c94b3">AS6762</text>
</a>
</g>
</g>
<!-- AS34347&#45;&gt;AS6762 -->
<g id="edge6" class="edge"><title>AS34347&#45;&gt;AS6762</title>
<path fill="none" stroke="black" stroke-width="0.75" d="M192.32,-108.956C207.646,-91.9029 232.582,-65.3497 256.584,-45 259.081,-42.8828 261.741,-40.7681 264.453,-38.7067"/>
<polygon fill="black" stroke="black" stroke-width="0.75" points="266.619,-41.4588 272.629,-32.7336 262.489,-35.8064 266.619,-41.4588"/>
</g>
<!-- AS7018 -->
<g id="node8" class="node"><title>AS7018</title>
<g id="a_node8"><a xlink:href="/asn/7018" xlink:title="AS7018 ~ AT&amp;T Services, Inc. [US]">
<ellipse fill="#ffffff" stroke="black" cx="411.523" cy="-369" rx="39.7935" ry="18"/>
<text text-anchor="middle" x="411.523" y="-365.3" font-family="Times,serif" font-size="14.00" fill="#2c94b3">AS7018</text>
</a>
</g>
</g>
<!-- AS1299&#45;&gt;AS7018 -->
<g id="edge7" class="edge"><title>AS1299&#45;&gt;AS7018</title>
<path fill="none" stroke="black" d="M306.69,-251.49C319.472,-274.096 343.904,-313.886 371.877,-342 373.987,-344.121 376.283,-346.188 378.669,-348.171"/>
<polygon fill="black" stroke="black" points="376.921,-351.242 386.984,-354.556 381.184,-345.69 376.921,-351.242"/>
</g>
<!-- AS3257 -->
<g id="node9" class="node"><title>AS3257</title>
<g id="a_node9"><a xlink:href="/asn/3257" xlink:title="AS3257 ~ GTT [DE]">
<ellipse fill="#ffffff" stroke="black" cx="411.523" cy="-153" rx="39.7935" ry="18"/>
<text text-anchor="middle" x="411.523" y="-149.3" font-family="Times,serif" font-size="14.00" fill="#2c94b3">AS3257</text>
</a>
</g>
</g>
<!-- AS1299&#45;&gt;AS3257 -->
<g id="edge8" class="edge"><title>AS1299&#45;&gt;AS3257</title>
<path fill="none" stroke="black" d="M318.987,-218.991C324.522,-215.121 330.44,-210.936 335.877,-207 352.076,-195.271 355.677,-191.729 371.877,-180 374.68,-177.971 377.611,-175.875 380.552,-173.79"/>
<polygon fill="black" stroke="black" points="382.603,-176.627 388.766,-168.009 378.574,-170.903 382.603,-176.627"/>
</g>
<!-- AS3356&#45;&gt;AS3257 -->
<g id="edge13" class="edge"><title>AS3356&#45;&gt;AS3257</title>
<path fill="none" stroke="black" d="M331.837,-171.752C342.709,-169.162 354.863,-166.265 366.305,-163.538"/>
<polygon fill="black" stroke="black" points="367.212,-166.92 376.128,-161.197 365.589,-160.111 367.212,-166.92"/>
</g>
<!-- AS3549 -->
<g id="node10" class="node"><title>AS3549</title>
<g id="a_node10"><a xlink:href="/asn/3549" xlink:title="AS3549 ~ Level 3 Parent, LLC [US]">
<ellipse fill="#ffffff" stroke="black" cx="411.523" cy="-261" rx="39.7935" ry="18"/>
<text text-anchor="middle" x="411.523" y="-257.3" font-family="Times,serif" font-size="14.00" fill="#2c94b3">AS3549</text>
</a>
</g>
</g>
<!-- AS3356&#45;&gt;AS3549 -->
<g id="edge9" class="edge"><title>AS3356&#45;&gt;AS3549</title>
<path fill="none" stroke="black" d="M318.987,-195.009C324.522,-198.879 330.44,-203.064 335.877,-207 352.076,-218.729 355.677,-222.271 371.877,-234 374.68,-236.029 377.611,-238.125 380.552,-240.21"/>
<polygon fill="black" stroke="black" points="378.574,-243.097 388.766,-245.991 382.603,-237.373 378.574,-243.097"/>
</g>
<!-- AS2497 -->
<g id="node11" class="node"><title>AS2497</title>
<g id="a_node11"><a xlink:href="/asn/2497" xlink:title="AS2497 ~ Internet Initiative Japan Inc. [JP]">
<ellipse fill="#ffffff" stroke="black" cx="411.523" cy="-99" rx="39.7935" ry="18"/>
<text text-anchor="middle" x="411.523" y="-95.3" font-family="Times,serif" font-size="14.00" fill="#2c94b3">AS2497</text>
</a>
</g>
</g>
<!-- AS3356&#45;&gt;AS2497 -->
<g id="edge10" class="edge"><title>AS3356&#45;&gt;AS2497</title>
<path fill="none" stroke="black" d="M318.987,-164.991C324.522,-161.121 330.44,-156.936 335.877,-153 352.076,-141.271 355.677,-137.729 371.877,-126 374.68,-123.971 377.611,-121.875 380.552,-119.79"/>
<polygon fill="black" stroke="black" points="382.603,-122.627 388.766,-114.009 378.574,-116.903 382.603,-122.627"/>
</g>
<!-- AS701 -->
<g id="node12" class="node"><title>AS701</title>
<g id="a_node12"><a xlink:href="/asn/701" xlink:title="AS701 ~ UUNET [US]">
<ellipse fill="#ffffff" stroke="black" cx="411.523" cy="-207" rx="35.194" ry="18"/>
<text text-anchor="middle" x="411.523" y="-203.3" font-family="Times,serif" font-size="14.00" fill="#2c94b3">AS701</text>
</a>
</g>
</g>
<!-- AS3356&#45;&gt;AS701 -->
<g id="edge11" class="edge"><title>AS3356&#45;&gt;AS701</title>
<path fill="none" stroke="black" d="M331.837,-188.248C343.632,-191.058 356.937,-194.229 369.204,-197.153"/>
<polygon fill="black" stroke="black" points="368.67,-200.624 379.209,-199.537 370.293,-193.814 368.67,-200.624"/>
</g>
<!-- AS6453 -->
<g id="node13" class="node"><title>AS6453</title>
<g id="a_node13"><a xlink:href="/asn/6453" xlink:title="AS6453 ~ TATA COMMUNICATIONS (AMERICA) INC [US]">
<ellipse fill="#ffffff" stroke="black" cx="411.523" cy="-315" rx="39.7935" ry="18"/>
<text text-anchor="middle" x="411.523" y="-311.3" font-family="Times,serif" font-size="14.00" fill="#2c94b3">AS6453</text>
</a>
</g>
</g>
<!-- AS3356&#45;&gt;AS6453 -->
<g id="edge12" class="edge"><title>AS3356&#45;&gt;AS6453</title>
<path fill="none" stroke="black" d="M321.811,-194.156C326.905,-197.872 331.919,-202.201 335.877,-207 360.941,-237.394 346.812,-257.606 371.877,-288 373.732,-290.25 375.819,-292.396 378.038,-294.424"/>
<polygon fill="black" stroke="black" points="375.973,-297.256 385.942,-300.844 380.386,-291.823 375.973,-297.256"/>
</g>
<!-- AS174&#45;&gt;AS3257 -->
<g id="edge15" class="edge"><title>AS174&#45;&gt;AS3257</title>
<path fill="none" stroke="black" d="M318.18,-86.4452C323.943,-90.4706 330.175,-94.8721 335.877,-99 352.076,-110.729 355.677,-114.271 371.877,-126 374.68,-128.029 377.611,-130.125 380.552,-132.21"/>
<polygon fill="black" stroke="black" points="378.574,-135.097 388.766,-137.991 382.603,-129.373 378.574,-135.097"/>
</g>
<!-- AS1239 -->
<g id="node14" class="node"><title>AS1239</title>
<g id="a_node14"><a xlink:href="/asn/1239" xlink:title="AS1239 ~ Sprint [US]">
<ellipse fill="#ffffff" stroke="black" cx="411.523" cy="-45" rx="39.7935" ry="18"/>
<text text-anchor="middle" x="411.523" y="-41.3" font-family="Times,serif" font-size="14.00" fill="#2c94b3">AS1239</text>
</a>
</g>
</g>
<!-- AS174&#45;&gt;AS1239 -->
<g id="edge14" class="edge"><title>AS174&#45;&gt;AS1239</title>
<path fill="none" stroke="black" d="M328.488,-64.5507C340.168,-61.7671 353.663,-58.5509 366.293,-55.541"/>
<polygon fill="black" stroke="black" points="367.268,-58.9066 376.184,-53.1836 365.645,-52.0973 367.268,-58.9066"/>
</g>
<!-- AS2914&#45;&gt;AS2497 -->
<g id="edge16" class="edge"><title>AS2914&#45;&gt;AS2497</title>
<path fill="none" stroke="black" d="M331.837,-117.752C342.709,-115.162 354.863,-112.265 366.305,-109.538"/>
<polygon fill="black" stroke="black" points="367.212,-112.92 376.128,-107.197 365.589,-106.111 367.212,-112.92"/>
</g>
</g>
</svg>
