<?xml version="1.0" encoding="UTF-8" standalone="no"?>
<!DOCTYPE svg PUBLIC "-//W3C//DTD SVG 1.1//EN"
 "http://www.w3.org/Graphics/SVG/1.1/DTD/svg11.dtd">
<!-- Generated by graphviz version 2.38.0 (20140413.2041)
 -->
<!-- Title: AS198211 Combined Upstream Graph Pages: 1 -->
<svg width="459pt" height="746pt"
 viewBox="0.00 0.00 459.17 746.00" xmlns="http://www.w3.org/2000/svg" xmlns:xlink="http://www.w3.org/1999/xlink">
<g id="graph0" class="graph" transform="scale(1 1) rotate(0) translate(4 742)">
<title>AS198211 Combined Upstream Graph</title>
<polygon fill="white" stroke="none" points="-4,4 -4,-742 455.17,-742 455.17,4 -4,4"/>
<!-- AS198211 -->
<g id="node1" class="node"><title>AS198211</title>
<g id="a_node1"><a xlink:href="/asn/198211" xlink:title="AS198211 ~ EGGER&#45;AS [AT]">
<ellipse fill="#ffffff" stroke="black" cx="48.0957" cy="-463" rx="48.1917" ry="18"/>
<text text-anchor="middle" x="48.0957" y="-459.3" font-family="Times,serif" font-size="14.00" fill="#880000">AS198211</text>
</a>
</g>
</g>
<!-- AS3257 -->
<g id="node2" class="node"><title>AS3257</title>
<g id="a_node2"><a xlink:href="/asn/3257" xlink:title="AS3257 ~ GTT [DE]">
<ellipse fill="#ffffff" stroke="black" cx="171.838" cy="-315" rx="39.7935" ry="18"/>
<text text-anchor="middle" x="171.838" y="-311.3" font-family="Times,serif" font-size="14.00" fill="#2c94b3">AS3257</text>
</a>
</g>
</g>
<!-- AS198211&#45;&gt;AS3257 -->
<g id="edge1" class="edge"><title>AS198211&#45;&gt;AS3257</title>
<path fill="none" stroke="black" stroke-width="4.5" d="M63.2994,-445.733C84.7419,-419.666 125.493,-370.126 150.208,-340.079"/>
<polygon fill="black" stroke="black" stroke-width="4.5" points="153.413,-342.381 156.725,-332.157 147.331,-337.379 153.413,-342.381"/>
</g>
<!-- AS8220 -->
<g id="node3" class="node"><title>AS8220</title>
<g id="a_node3"><a xlink:href="/asn/8220" xlink:title="AS8220 ~ COLT [GB]">
<ellipse fill="#ffffff" stroke="black" cx="171.838" cy="-585" rx="39.7935" ry="18"/>
<text text-anchor="middle" x="171.838" y="-581.3" font-family="Times,serif" font-size="14.00" fill="#2c94b3">AS8220</text>
</a>
</g>
</g>
<!-- AS198211&#45;&gt;AS8220 -->
<g id="edge2" class="edge"><title>AS198211&#45;&gt;AS8220</title>
<path fill="none" stroke="black" stroke-width="2.25" d="M66.0235,-479.964C87.1292,-501.114 123.327,-537.388 147.17,-561.282"/>
<polygon fill="black" stroke="black" stroke-width="2.25" points="144.902,-563.964 154.443,-568.57 149.857,-559.019 144.902,-563.964"/>
</g>
<!-- AS6762 -->
<g id="node4" class="node"><title>AS6762</title>
<g id="a_node4"><a xlink:href="/asn/6762" xlink:title="AS6762 ~ TELECOM ITALIA SPARKLE S.p.A. [IT]">
<ellipse fill="#ffffff" stroke="black" cx="291.681" cy="-126" rx="39.7935" ry="18"/>
<text text-anchor="middle" x="291.681" y="-122.3" font-family="Times,serif" font-size="14.00" fill="#2c94b3">AS6762</text>
</a>
</g>
</g>
<!-- AS3257&#45;&gt;AS6762 -->
<g id="edge3" class="edge"><title>AS3257&#45;&gt;AS6762</title>
<path fill="none" stroke="black" d="M177.411,-297.054C186.317,-265.005 208.601,-197.158 247.484,-153 249.968,-150.179 252.818,-147.551 255.844,-145.129"/>
<polygon fill="black" stroke="black" points="258.029,-147.869 264.133,-139.209 253.961,-142.172 258.029,-147.869"/>
</g>
<!-- AS6453 -->
<g id="node5" class="node"><title>AS6453</title>
<g id="a_node5"><a xlink:href="/asn/6453" xlink:title="AS6453 ~ TATA COMMUNICATIONS (AMERICA) INC [US]">
<ellipse fill="#ffffff" stroke="black" cx="291.681" cy="-558" rx="39.7935" ry="18"/>
<text text-anchor="middle" x="291.681" y="-554.3" font-family="Times,serif" font-size="14.00" fill="#2c94b3">AS6453</text>
</a>
</g>
</g>
<!-- AS3257&#45;&gt;AS6453 -->
<g id="edge4" class="edge"><title>AS3257&#45;&gt;AS6453</title>
<path fill="none" stroke="black" d="M174.977,-333.17C180.477,-372.974 198.303,-469.233 247.484,-531 249.826,-533.94 252.58,-536.649 255.546,-539.121"/>
<polygon fill="black" stroke="black" points="253.611,-542.042 263.752,-545.11 257.738,-536.388 253.611,-542.042"/>
</g>
<!-- AS174 -->
<g id="node6" class="node"><title>AS174</title>
<g id="a_node6"><a xlink:href="/asn/174" xlink:title="AS174 ~ Cogent Communications [US]">
<ellipse fill="#ffffff" stroke="black" cx="291.681" cy="-72" rx="35.194" ry="18"/>
<text text-anchor="middle" x="291.681" y="-68.3" font-family="Times,serif" font-size="14.00" fill="#2c94b3">AS174</text>
</a>
</g>
</g>
<!-- AS3257&#45;&gt;AS174 -->
<g id="edge5" class="edge"><title>AS3257&#45;&gt;AS174</title>
<path fill="none" stroke="black" d="M174.977,-296.83C180.477,-257.026 198.303,-160.767 247.484,-99 250.149,-95.6532 253.349,-92.6071 256.788,-89.8676"/>
<polygon fill="black" stroke="black" points="258.925,-92.6434 265.101,-84.0347 254.905,-86.913 258.925,-92.6434"/>
</g>
<!-- AS701 -->
<g id="node7" class="node"><title>AS701</title>
<g id="a_node7"><a xlink:href="/asn/701" xlink:title="AS701 ~ UUNET [US]">
<ellipse fill="#ffffff" stroke="black" cx="291.681" cy="-18" rx="35.194" ry="18"/>
<text text-anchor="middle" x="291.681" y="-14.3" font-family="Times,serif" font-size="14.00" fill="#2c94b3">AS701</text>
</a>
</g>
</g>
<!-- AS3257&#45;&gt;AS701 -->
<g id="edge6" class="edge"><title>AS3257&#45;&gt;AS701</title>
<path fill="none" stroke="black" d="M173.43,-296.977C175.806,-250.588 187.724,-125.107 247.484,-45 250.043,-41.5709 253.176,-38.4737 256.577,-35.7053"/>
<polygon fill="black" stroke="black" points="258.716,-38.4794 264.85,-29.8412 254.668,-32.7685 258.716,-38.4794"/>
</g>
<!-- AS3491 -->
<g id="node8" class="node"><title>AS3491</title>
<g id="a_node8"><a xlink:href="/asn/3491" xlink:title="AS3491 ~ PCCW Global, Inc. [US]">
<ellipse fill="#ffffff" stroke="black" cx="291.681" cy="-450" rx="39.7935" ry="18"/>
<text text-anchor="middle" x="291.681" y="-446.3" font-family="Times,serif" font-size="14.00" fill="#2c94b3">AS3491</text>
</a>
</g>
</g>
<!-- AS3257&#45;&gt;AS3491 -->
<g id="edge7" class="edge"><title>AS3257&#45;&gt;AS3491</title>
<path fill="none" stroke="black" d="M182.079,-332.713C194.625,-355.561 218.802,-395.611 247.484,-423 250.353,-425.739 253.542,-428.347 256.851,-430.785"/>
<polygon fill="black" stroke="black" points="254.974,-433.742 265.21,-436.477 258.914,-427.956 254.974,-433.742"/>
</g>
<!-- AS12956 -->
<g id="node9" class="node"><title>AS12956</title>
<g id="a_node9"><a xlink:href="/asn/12956" xlink:title="AS12956 ~ TELXIUS [ES]">
<ellipse fill="#ffffff" stroke="black" cx="291.681" cy="-396" rx="44.393" ry="18"/>
<text text-anchor="middle" x="291.681" y="-392.3" font-family="Times,serif" font-size="14.00" fill="#2c94b3">AS12956</text>
</a>
</g>
</g>
<!-- AS3257&#45;&gt;AS12956 -->
<g id="edge8" class="edge"><title>AS3257&#45;&gt;AS12956</title>
<path fill="none" stroke="black" d="M193.168,-330.277C208.031,-341.304 228.775,-356.407 247.484,-369 250.774,-371.215 254.237,-373.482 257.711,-375.715"/>
<polygon fill="black" stroke="black" points="255.959,-378.748 266.279,-381.148 259.708,-372.837 255.959,-378.748"/>
</g>
<!-- AS7018 -->
<g id="node10" class="node"><title>AS7018</title>
<g id="a_node10"><a xlink:href="/asn/7018" xlink:title="AS7018 ~ AT&amp;T Services, Inc. [US]">
<ellipse fill="#ffffff" stroke="black" cx="291.681" cy="-342" rx="39.7935" ry="18"/>
<text text-anchor="middle" x="291.681" y="-338.3" font-family="Times,serif" font-size="14.00" fill="#2c94b3">AS7018</text>
</a>
</g>
</g>
<!-- AS3257&#45;&gt;AS7018 -->
<g id="edge9" class="edge"><title>AS3257&#45;&gt;AS7018</title>
<path fill="none" stroke="black" d="M207.557,-322.955C219.557,-325.704 233.178,-328.825 245.871,-331.733"/>
<polygon fill="black" stroke="black" points="245.273,-335.187 255.802,-334.009 246.836,-328.364 245.273,-335.187"/>
</g>
<!-- AS6461 -->
<g id="node11" class="node"><title>AS6461</title>
<g id="a_node11"><a xlink:href="/asn/6461" xlink:title="AS6461 ~ Zayo Bandwidth [US]">
<ellipse fill="#ffffff" stroke="black" cx="291.681" cy="-288" rx="39.7935" ry="18"/>
<text text-anchor="middle" x="291.681" y="-284.3" font-family="Times,serif" font-size="14.00" fill="#2c94b3">AS6461</text>
</a>
</g>
</g>
<!-- AS3257&#45;&gt;AS6461 -->
<g id="edge10" class="edge"><title>AS3257&#45;&gt;AS6461</title>
<path fill="none" stroke="black" d="M207.557,-307.045C219.557,-304.296 233.178,-301.175 245.871,-298.267"/>
<polygon fill="black" stroke="black" points="246.836,-301.636 255.802,-295.991 245.273,-294.813 246.836,-301.636"/>
</g>
<!-- AS1239 -->
<g id="node12" class="node"><title>AS1239</title>
<g id="a_node12"><a xlink:href="/asn/1239" xlink:title="AS1239 ~ Sprint [US]">
<ellipse fill="#ffffff" stroke="black" cx="291.681" cy="-234" rx="39.7935" ry="18"/>
<text text-anchor="middle" x="291.681" y="-230.3" font-family="Times,serif" font-size="14.00" fill="#2c94b3">AS1239</text>
</a>
</g>
</g>
<!-- AS3257&#45;&gt;AS1239 -->
<g id="edge11" class="edge"><title>AS3257&#45;&gt;AS1239</title>
<path fill="none" stroke="black" d="M193.168,-299.723C208.031,-288.696 228.775,-273.593 247.484,-261 251.033,-258.611 254.784,-256.161 258.532,-253.758"/>
<polygon fill="black" stroke="black" points="260.6,-256.591 267.181,-248.288 256.858,-250.675 260.6,-256.591"/>
</g>
<!-- AS2914 -->
<g id="node13" class="node"><title>AS2914</title>
<g id="a_node13"><a xlink:href="/asn/2914" xlink:title="AS2914 ~ NTT America, Inc. [US]">
<ellipse fill="#ffffff" stroke="black" cx="291.681" cy="-504" rx="39.7935" ry="18"/>
<text text-anchor="middle" x="291.681" y="-500.3" font-family="Times,serif" font-size="14.00" fill="#2c94b3">AS2914</text>
</a>
</g>
</g>
<!-- AS3257&#45;&gt;AS2914 -->
<g id="edge12" class="edge"><title>AS3257&#45;&gt;AS2914</title>
<path fill="none" stroke="black" d="M177.411,-332.946C186.317,-364.995 208.601,-432.842 247.484,-477 249.968,-479.821 252.818,-482.449 255.844,-484.871"/>
<polygon fill="black" stroke="black" points="253.961,-487.828 264.133,-490.791 258.029,-482.131 253.961,-487.828"/>
</g>
<!-- AS2497 -->
<g id="node14" class="node"><title>AS2497</title>
<g id="a_node14"><a xlink:href="/asn/2497" xlink:title="AS2497 ~ Internet Initiative Japan Inc. [JP]">
<ellipse fill="#ffffff" stroke="black" cx="291.681" cy="-180" rx="39.7935" ry="18"/>
<text text-anchor="middle" x="291.681" y="-176.3" font-family="Times,serif" font-size="14.00" fill="#2c94b3">AS2497</text>
</a>
</g>
</g>
<!-- AS3257&#45;&gt;AS2497 -->
<g id="edge13" class="edge"><title>AS3257&#45;&gt;AS2497</title>
<path fill="none" stroke="black" d="M182.079,-297.287C194.625,-274.439 218.802,-234.389 247.484,-207 250.353,-204.261 253.542,-201.653 256.851,-199.215"/>
<polygon fill="black" stroke="black" points="258.914,-202.044 265.21,-193.523 254.974,-196.258 258.914,-202.044"/>
</g>
<!-- AS8220&#45;&gt;AS6453 -->
<g id="edge18" class="edge"><title>AS8220&#45;&gt;AS6453</title>
<path fill="none" stroke="black" d="M207.557,-577.045C219.557,-574.296 233.178,-571.175 245.871,-568.267"/>
<polygon fill="black" stroke="black" points="246.836,-571.636 255.802,-565.991 245.273,-564.813 246.836,-571.636"/>
</g>
<!-- AS8220&#45;&gt;AS2914 -->
<g id="edge15" class="edge"><title>AS8220&#45;&gt;AS2914</title>
<path fill="none" stroke="black" d="M193.168,-569.723C208.031,-558.696 228.775,-543.593 247.484,-531 251.033,-528.611 254.784,-526.161 258.532,-523.758"/>
<polygon fill="black" stroke="black" points="260.6,-526.591 267.181,-518.288 256.858,-520.675 260.6,-526.591"/>
</g>
<!-- AS3356 -->
<g id="node15" class="node"><title>AS3356</title>
<g id="a_node15"><a xlink:href="/asn/3356" xlink:title="AS3356 ~ Level 3 Parent, LLC [US]">
<ellipse fill="#ffffff" stroke="black" cx="291.681" cy="-720" rx="39.7935" ry="18"/>
<text text-anchor="middle" x="291.681" y="-716.3" font-family="Times,serif" font-size="14.00" fill="#2c94b3">AS3356</text>
</a>
</g>
</g>
<!-- AS8220&#45;&gt;AS3356 -->
<g id="edge14" class="edge"><title>AS8220&#45;&gt;AS3356</title>
<path fill="none" stroke="black" stroke-width="2" d="M182.079,-602.713C194.625,-625.561 218.802,-665.611 247.484,-693 250.353,-695.739 253.542,-698.347 256.851,-700.785"/>
<polygon fill="black" stroke="black" stroke-width="2" points="254.974,-703.742 265.21,-706.477 258.914,-697.956 254.974,-703.742"/>
</g>
<!-- AS5511 -->
<g id="node16" class="node"><title>AS5511</title>
<g id="a_node16"><a xlink:href="/asn/5511" xlink:title="AS5511 ~ Orange S.A. [FR]">
<ellipse fill="#ffffff" stroke="black" cx="291.681" cy="-666" rx="39.7935" ry="18"/>
<text text-anchor="middle" x="291.681" y="-662.3" font-family="Times,serif" font-size="14.00" fill="#2c94b3">AS5511</text>
</a>
</g>
</g>
<!-- AS8220&#45;&gt;AS5511 -->
<g id="edge16" class="edge"><title>AS8220&#45;&gt;AS5511</title>
<path fill="none" stroke="black" d="M193.168,-600.277C208.031,-611.304 228.775,-626.407 247.484,-639 251.033,-641.389 254.784,-643.839 258.532,-646.242"/>
<polygon fill="black" stroke="black" points="256.858,-649.325 267.181,-651.712 260.6,-643.409 256.858,-649.325"/>
</g>
<!-- AS1299 -->
<g id="node17" class="node"><title>AS1299</title>
<g id="a_node17"><a xlink:href="/asn/1299" xlink:title="AS1299 ~ Telia Carrier [EU]">
<ellipse fill="#ffffff" stroke="black" cx="291.681" cy="-612" rx="39.7935" ry="18"/>
<text text-anchor="middle" x="291.681" y="-608.3" font-family="Times,serif" font-size="14.00" fill="#2c94b3">AS1299</text>
</a>
</g>
</g>
<!-- AS8220&#45;&gt;AS1299 -->
<g id="edge17" class="edge"><title>AS8220&#45;&gt;AS1299</title>
<path fill="none" stroke="black" d="M207.557,-592.955C219.557,-595.704 233.178,-598.825 245.871,-601.733"/>
<polygon fill="black" stroke="black" points="245.273,-605.187 255.802,-604.009 246.836,-598.364 245.273,-605.187"/>
</g>
<!-- AS3549 -->
<g id="node18" class="node"><title>AS3549</title>
<g id="a_node18"><a xlink:href="/asn/3549" xlink:title="AS3549 ~ Level 3 Parent, LLC [US]">
<ellipse fill="#ffffff" stroke="black" cx="411.523" cy="-720" rx="39.7935" ry="18"/>
<text text-anchor="middle" x="411.523" y="-716.3" font-family="Times,serif" font-size="14.00" fill="#2c94b3">AS3549</text>
</a>
</g>
</g>
<!-- AS3356&#45;&gt;AS3549 -->
<g id="edge19" class="edge"><title>AS3356&#45;&gt;AS3549</title>
<path fill="none" stroke="black" d="M331.593,-720C341.146,-720 351.496,-720 361.459,-720"/>
<polygon fill="black" stroke="black" points="361.651,-723.5 371.651,-720 361.651,-716.5 361.651,-723.5"/>
</g>
</g>
</svg>
