<?xml version="1.0" encoding="UTF-8" standalone="no"?>
<!DOCTYPE svg PUBLIC "-//W3C//DTD SVG 1.1//EN"
 "http://www.w3.org/Graphics/SVG/1.1/DTD/svg11.dtd">
<!-- Generated by graphviz version 2.38.0 (20140413.2041)
 -->
<!-- Title: AS41921 Combined Upstream Graph Pages: 1 -->
<svg width="442pt" height="584pt"
 viewBox="0.00 0.00 442.27 584.00" xmlns="http://www.w3.org/2000/svg" xmlns:xlink="http://www.w3.org/1999/xlink">
<g id="graph0" class="graph" transform="scale(1 1) rotate(0) translate(4 580)">
<title>AS41921 Combined Upstream Graph</title>
<polygon fill="white" stroke="none" points="-4,4 -4,-580 438.271,-580 438.271,4 -4,4"/>
<!-- AS41921 -->
<g id="node1" class="node"><title>AS41921</title>
<g id="a_node1"><a xlink:href="/asn/41921" xlink:title="AS41921 ~ B&amp;R Industrial Automation GmbH [AT]">
<ellipse fill="#ffffff" stroke="black" cx="44.1961" cy="-200" rx="44.393" ry="18"/>
<text text-anchor="middle" x="44.1961" y="-196.3" font-family="Times,serif" font-size="14.00" fill="#880000">AS41921</text>
</a>
</g>
</g>
<!-- AS8447 -->
<g id="node2" class="node"><title>AS8447</title>
<g id="a_node2"><a xlink:href="/asn/8447" xlink:title="AS8447 ~ A1 Telekom Austria AG [AT]">
<ellipse fill="#ffffff" stroke="black" cx="164.039" cy="-200" rx="39.7935" ry="18"/>
<text text-anchor="middle" x="164.039" y="-196.3" font-family="Times,serif" font-size="14.00" fill="#2c94b3">AS8447</text>
</a>
</g>
</g>
<!-- AS41921&#45;&gt;AS8447 -->
<g id="edge1" class="edge"><title>AS41921&#45;&gt;AS8447</title>
<path fill="none" stroke="black" stroke-width="4.5" d="M88.4072,-200C96.7198,-200 105.482,-200 113.965,-200"/>
<polygon fill="black" stroke="black" stroke-width="4.5" points="114.123,-203.938 124.123,-200 114.123,-196.063 114.123,-203.938"/>
</g>
<!-- AS1299 -->
<g id="node3" class="node"><title>AS1299</title>
<g id="a_node3"><a xlink:href="/asn/1299" xlink:title="AS1299 ~ Telia Carrier [EU]">
<ellipse fill="#ffffff" stroke="black" cx="279.332" cy="-396" rx="39.7935" ry="18"/>
<text text-anchor="middle" x="279.332" y="-392.3" font-family="Times,serif" font-size="14.00" fill="#2c94b3">AS1299</text>
</a>
</g>
</g>
<!-- AS8447&#45;&gt;AS1299 -->
<g id="edge2" class="edge"><title>AS8447&#45;&gt;AS1299</title>
<path fill="none" stroke="black" stroke-width="4.5" d="M175.093,-217.394C195.038,-251.9 239.711,-329.186 263.215,-369.847"/>
<polygon fill="black" stroke="black" stroke-width="4.5" points="259.887,-371.958 268.3,-378.645 266.705,-368.017 259.887,-371.958"/>
</g>
<!-- AS3356 -->
<g id="node4" class="node"><title>AS3356</title>
<g id="a_node4"><a xlink:href="/asn/3356" xlink:title="AS3356 ~ Level 3 Parent, LLC [US]">
<ellipse fill="#ffffff" stroke="black" cx="279.332" cy="-281" rx="39.7935" ry="18"/>
<text text-anchor="middle" x="279.332" y="-277.3" font-family="Times,serif" font-size="14.00" fill="#2c94b3">AS3356</text>
</a>
</g>
</g>
<!-- AS8447&#45;&gt;AS3356 -->
<g id="edge3" class="edge"><title>AS8447&#45;&gt;AS3356</title>
<path fill="none" stroke="black" stroke-width="3.85714" d="M186.083,-215.046C203.697,-227.639 229.036,-245.755 248.701,-259.816"/>
<polygon fill="black" stroke="black" stroke-width="3.85714" points="246.845,-262.791 257.016,-265.76 250.917,-257.097 246.845,-262.791"/>
</g>
<!-- AS6461 -->
<g id="node5" class="node"><title>AS6461</title>
<g id="a_node5"><a xlink:href="/asn/6461" xlink:title="AS6461 ~ ZAYO&#45;6461 [US]">
<ellipse fill="#ffffff" stroke="black" cx="279.332" cy="-200" rx="39.7935" ry="18"/>
<text text-anchor="middle" x="279.332" y="-196.3" font-family="Times,serif" font-size="14.00" fill="#2c94b3">AS6461</text>
</a>
</g>
</g>
<!-- AS8447&#45;&gt;AS6461 -->
<g id="edge4" class="edge"><title>AS8447&#45;&gt;AS6461</title>
<path fill="none" stroke="black" stroke-width="0.642857" d="M203.711,-200C211.914,-200 220.678,-200 229.21,-200"/>
<polygon fill="black" stroke="black" stroke-width="0.642857" points="229.449,-203.5 239.449,-200 229.449,-196.5 229.449,-203.5"/>
</g>
<!-- AS3320 -->
<g id="node6" class="node"><title>AS3320</title>
<g id="a_node6"><a xlink:href="/asn/3320" xlink:title="AS3320 ~ DTAG [DE]">
<ellipse fill="#ffffff" stroke="black" cx="279.332" cy="-133" rx="39.7935" ry="18"/>
<text text-anchor="middle" x="279.332" y="-129.3" font-family="Times,serif" font-size="14.00" fill="#2c94b3">AS3320</text>
</a>
</g>
</g>
<!-- AS8447&#45;&gt;AS3320 -->
<g id="edge5" class="edge"><title>AS8447&#45;&gt;AS3320</title>
<path fill="none" stroke="black" stroke-width="3.21429" d="M189.065,-185.791C205.437,-176.109 227.325,-163.165 245.329,-152.518"/>
<polygon fill="black" stroke="black" stroke-width="3.21429" points="247.514,-155.292 254.34,-147.188 243.951,-149.266 247.514,-155.292"/>
</g>
<!-- AS6762 -->
<g id="node7" class="node"><title>AS6762</title>
<g id="a_node7"><a xlink:href="/asn/6762" xlink:title="AS6762 ~ TELECOM ITALIA SPARKLE S.p.A. [IT]">
<ellipse fill="#ffffff" stroke="black" cx="279.332" cy="-79" rx="39.7935" ry="18"/>
<text text-anchor="middle" x="279.332" y="-75.3" font-family="Times,serif" font-size="14.00" fill="#2c94b3">AS6762</text>
</a>
</g>
</g>
<!-- AS8447&#45;&gt;AS6762 -->
<g id="edge6" class="edge"><title>AS8447&#45;&gt;AS6762</title>
<path fill="none" stroke="black" stroke-width="0.642857" d="M176.395,-182.817C190.004,-162.972 214.182,-129.985 239.685,-106 242.07,-103.757 244.653,-101.556 247.314,-99.4381"/>
<polygon fill="black" stroke="black" stroke-width="0.642857" points="249.503,-102.171 255.412,-93.377 245.309,-96.5674 249.503,-102.171"/>
</g>
<!-- AS2497 -->
<g id="node8" class="node"><title>AS2497</title>
<g id="a_node8"><a xlink:href="/asn/2497" xlink:title="AS2497 ~ Internet Initiative Japan Inc. [JP]">
<ellipse fill="#ffffff" stroke="black" cx="394.625" cy="-342" rx="39.7935" ry="18"/>
<text text-anchor="middle" x="394.625" y="-338.3" font-family="Times,serif" font-size="14.00" fill="#2c94b3">AS2497</text>
</a>
</g>
</g>
<!-- AS1299&#45;&gt;AS2497 -->
<g id="edge7" class="edge"><title>AS1299&#45;&gt;AS2497</title>
<path fill="none" stroke="black" d="M307.468,-383.066C322.462,-375.919 341.283,-366.948 357.506,-359.215"/>
<polygon fill="black" stroke="black" points="359.188,-362.291 366.71,-354.829 356.177,-355.972 359.188,-362.291"/>
</g>
<!-- AS7018 -->
<g id="node9" class="node"><title>AS7018</title>
<g id="a_node9"><a xlink:href="/asn/7018" xlink:title="AS7018 ~ AT&amp;T Services, Inc. [US]">
<ellipse fill="#ffffff" stroke="black" cx="394.625" cy="-558" rx="39.7935" ry="18"/>
<text text-anchor="middle" x="394.625" y="-554.3" font-family="Times,serif" font-size="14.00" fill="#2c94b3">AS7018</text>
</a>
</g>
</g>
<!-- AS1299&#45;&gt;AS7018 -->
<g id="edge8" class="edge"><title>AS1299&#45;&gt;AS7018</title>
<path fill="none" stroke="black" d="M287.079,-413.787C298.13,-441.243 322.184,-494.578 354.978,-531 356.98,-533.224 359.199,-535.363 361.532,-537.397"/>
<polygon fill="black" stroke="black" points="359.73,-540.433 369.751,-543.873 364.062,-534.935 359.73,-540.433"/>
</g>
<!-- AS209 -->
<g id="node10" class="node"><title>AS209</title>
<g id="a_node10"><a xlink:href="/asn/209" xlink:title="AS209 ~ CenturyLink Communications, LLC [US]">
<ellipse fill="#ffffff" stroke="black" cx="394.625" cy="-504" rx="35.194" ry="18"/>
<text text-anchor="middle" x="394.625" y="-500.3" font-family="Times,serif" font-size="14.00" fill="#2c94b3">AS209</text>
</a>
</g>
</g>
<!-- AS1299&#45;&gt;AS209 -->
<g id="edge9" class="edge"><title>AS1299&#45;&gt;AS209</title>
<path fill="none" stroke="black" d="M293.962,-412.817C308.244,-429.929 331.791,-456.745 354.978,-477 357.648,-479.332 360.521,-481.648 363.451,-483.886"/>
<polygon fill="black" stroke="black" points="361.602,-486.87 371.742,-489.939 365.729,-481.216 361.602,-486.87"/>
</g>
<!-- AS3257 -->
<g id="node11" class="node"><title>AS3257</title>
<g id="a_node11"><a xlink:href="/asn/3257" xlink:title="AS3257 ~ GTT [DE]">
<ellipse fill="#ffffff" stroke="black" cx="394.625" cy="-396" rx="39.7935" ry="18"/>
<text text-anchor="middle" x="394.625" y="-392.3" font-family="Times,serif" font-size="14.00" fill="#2c94b3">AS3257</text>
</a>
</g>
</g>
<!-- AS1299&#45;&gt;AS3257 -->
<g id="edge10" class="edge"><title>AS1299&#45;&gt;AS3257</title>
<path fill="none" stroke="black" d="M319.004,-396C327.207,-396 335.971,-396 344.503,-396"/>
<polygon fill="black" stroke="black" points="344.742,-399.5 354.742,-396 344.742,-392.5 344.742,-399.5"/>
</g>
<!-- AS2914 -->
<g id="node12" class="node"><title>AS2914</title>
<g id="a_node12"><a xlink:href="/asn/2914" xlink:title="AS2914 ~ NTT America, Inc. [US]">
<ellipse fill="#ffffff" stroke="black" cx="394.625" cy="-288" rx="39.7935" ry="18"/>
<text text-anchor="middle" x="394.625" y="-284.3" font-family="Times,serif" font-size="14.00" fill="#2c94b3">AS2914</text>
</a>
</g>
</g>
<!-- AS1299&#45;&gt;AS2914 -->
<g id="edge11" class="edge"><title>AS1299&#45;&gt;AS2914</title>
<path fill="none" stroke="black" d="M293.962,-379.183C308.244,-362.071 331.791,-335.255 354.978,-315 357.444,-312.846 360.082,-310.706 362.78,-308.628"/>
<polygon fill="black" stroke="black" points="364.953,-311.375 370.934,-302.63 360.805,-305.736 364.953,-311.375"/>
</g>
<!-- AS174 -->
<g id="node13" class="node"><title>AS174</title>
<g id="a_node13"><a xlink:href="/asn/174" xlink:title="AS174 ~ Cogent Communications [US]">
<ellipse fill="#ffffff" stroke="black" cx="394.625" cy="-450" rx="35.194" ry="18"/>
<text text-anchor="middle" x="394.625" y="-446.3" font-family="Times,serif" font-size="14.00" fill="#2c94b3">AS174</text>
</a>
</g>
</g>
<!-- AS1299&#45;&gt;AS174 -->
<g id="edge12" class="edge"><title>AS1299&#45;&gt;AS174</title>
<path fill="none" stroke="black" d="M307.468,-408.934C322.9,-416.29 342.385,-425.577 358.92,-433.459"/>
<polygon fill="black" stroke="black" points="357.729,-436.768 368.262,-437.911 360.741,-430.449 357.729,-436.768"/>
</g>
<!-- AS3356&#45;&gt;AS2497 -->
<g id="edge14" class="edge"><title>AS3356&#45;&gt;AS2497</title>
<path fill="none" stroke="black" d="M305.475,-294.538C321.206,-303.008 341.69,-314.037 358.952,-323.331"/>
<polygon fill="black" stroke="black" points="357.696,-326.63 368.16,-328.289 361.014,-320.467 357.696,-326.63"/>
</g>
<!-- AS3356&#45;&gt;AS3257 -->
<g id="edge16" class="edge"><title>AS3356&#45;&gt;AS3257</title>
<path fill="none" stroke="black" d="M292.657,-298.017C306.591,-316.622 330.535,-346.746 354.978,-369 357.399,-371.204 360.007,-373.379 362.684,-375.479"/>
<polygon fill="black" stroke="black" points="360.692,-378.359 370.807,-381.513 364.866,-372.74 360.692,-378.359"/>
</g>
<!-- AS3356&#45;&gt;AS2914 -->
<g id="edge13" class="edge"><title>AS3356&#45;&gt;AS2914</title>
<path fill="none" stroke="black" d="M318.687,-283.37C327.177,-283.894 336.281,-284.457 345.115,-285.003"/>
<polygon fill="black" stroke="black" points="345.111,-288.509 355.308,-285.633 345.543,-281.522 345.111,-288.509"/>
</g>
<!-- AS3491 -->
<g id="node14" class="node"><title>AS3491</title>
<g id="a_node14"><a xlink:href="/asn/3491" xlink:title="AS3491 ~ PCCW Global, Inc. [US]">
<ellipse fill="#ffffff" stroke="black" cx="394.625" cy="-234" rx="39.7935" ry="18"/>
<text text-anchor="middle" x="394.625" y="-230.3" font-family="Times,serif" font-size="14.00" fill="#2c94b3">AS3491</text>
</a>
</g>
</g>
<!-- AS3356&#45;&gt;AS3491 -->
<g id="edge15" class="edge"><title>AS3356&#45;&gt;AS3491</title>
<path fill="none" stroke="black" d="M309.213,-269.018C323.196,-263.218 340.177,-256.173 355.231,-249.928"/>
<polygon fill="black" stroke="black" points="356.9,-253.025 364.796,-245.96 354.218,-246.559 356.9,-253.025"/>
</g>
<!-- AS3549 -->
<g id="node15" class="node"><title>AS3549</title>
<g id="a_node15"><a xlink:href="/asn/3549" xlink:title="AS3549 ~ Level 3 Parent, LLC [US]">
<ellipse fill="#ffffff" stroke="black" cx="394.625" cy="-180" rx="39.7935" ry="18"/>
<text text-anchor="middle" x="394.625" y="-176.3" font-family="Times,serif" font-size="14.00" fill="#2c94b3">AS3549</text>
</a>
</g>
</g>
<!-- AS3356&#45;&gt;AS3549 -->
<g id="edge17" class="edge"><title>AS3356&#45;&gt;AS3549</title>
<path fill="none" stroke="black" d="M295.598,-264.296C310.184,-248.729 333.122,-225.239 354.978,-207 357.492,-204.902 360.163,-202.801 362.882,-200.748"/>
<polygon fill="black" stroke="black" points="365.044,-203.504 371.07,-194.789 360.925,-197.844 365.044,-203.504"/>
</g>
<!-- AS3320&#45;&gt;AS2914 -->
<g id="edge18" class="edge"><title>AS3320&#45;&gt;AS2914</title>
<path fill="none" stroke="black" d="M298.432,-148.893C305.509,-155.783 313.278,-164.267 318.978,-173 342.074,-208.387 328.583,-228 354.978,-261 356.799,-263.277 358.862,-265.443 361.064,-267.485"/>
<polygon fill="black" stroke="black" points="358.982,-270.304 368.937,-273.931 363.416,-264.888 358.982,-270.304"/>
</g>
<!-- AS6453 -->
<g id="node16" class="node"><title>AS6453</title>
<g id="a_node16"><a xlink:href="/asn/6453" xlink:title="AS6453 ~ TATA COMMUNICATIONS (AMERICA) INC [US]">
<ellipse fill="#ffffff" stroke="black" cx="394.625" cy="-126" rx="39.7935" ry="18"/>
<text text-anchor="middle" x="394.625" y="-122.3" font-family="Times,serif" font-size="14.00" fill="#2c94b3">AS6453</text>
</a>
</g>
</g>
<!-- AS3320&#45;&gt;AS6453 -->
<g id="edge19" class="edge"><title>AS3320&#45;&gt;AS6453</title>
<path fill="none" stroke="black" d="M318.687,-130.63C327.177,-130.106 336.281,-129.543 345.115,-128.997"/>
<polygon fill="black" stroke="black" points="345.543,-132.478 355.308,-128.367 345.111,-125.491 345.543,-132.478"/>
</g>
<!-- AS701 -->
<g id="node17" class="node"><title>AS701</title>
<g id="a_node17"><a xlink:href="/asn/701" xlink:title="AS701 ~ UUNET [US]">
<ellipse fill="#ffffff" stroke="black" cx="394.625" cy="-72" rx="35.194" ry="18"/>
<text text-anchor="middle" x="394.625" y="-68.3" font-family="Times,serif" font-size="14.00" fill="#2c94b3">AS701</text>
</a>
</g>
</g>
<!-- AS3320&#45;&gt;AS701 -->
<g id="edge20" class="edge"><title>AS3320&#45;&gt;AS701</title>
<path fill="none" stroke="black" d="M305.475,-119.462C321.796,-110.675 343.232,-99.1325 360.879,-89.631"/>
<polygon fill="black" stroke="black" points="362.569,-92.6961 369.715,-84.8736 359.251,-86.5327 362.569,-92.6961"/>
</g>
<!-- AS1239 -->
<g id="node18" class="node"><title>AS1239</title>
<g id="a_node18"><a xlink:href="/asn/1239" xlink:title="AS1239 ~ Sprint [US]">
<ellipse fill="#ffffff" stroke="black" cx="394.625" cy="-18" rx="39.7935" ry="18"/>
<text text-anchor="middle" x="394.625" y="-14.3" font-family="Times,serif" font-size="14.00" fill="#2c94b3">AS1239</text>
</a>
</g>
</g>
<!-- AS3320&#45;&gt;AS1239 -->
<g id="edge21" class="edge"><title>AS3320&#45;&gt;AS1239</title>
<path fill="none" stroke="black" d="M304.11,-118.786C309.358,-115.02 314.64,-110.684 318.978,-106 340.369,-82.9034 333.587,-68.0966 354.978,-45 357.011,-42.8044 359.252,-40.6853 361.6,-38.6654"/>
<polygon fill="black" stroke="black" points="364.127,-41.1326 369.847,-32.2144 359.814,-35.6191 364.127,-41.1326"/>
</g>
</g>
</svg>
