<?xml version="1.0" encoding="UTF-8" standalone="no"?>
<!DOCTYPE svg PUBLIC "-//W3C//DTD SVG 1.1//EN"
 "http://www.w3.org/Graphics/SVG/1.1/DTD/svg11.dtd">
<!-- Generated by graphviz version 2.38.0 (20140413.2041)
 -->
<!-- Title: AS20704 Combined Upstream Graph Pages: 1 -->
<svg width="576pt" height="846pt"
 viewBox="0.00 0.00 575.76 845.76" xmlns="http://www.w3.org/2000/svg" xmlns:xlink="http://www.w3.org/1999/xlink">
<g id="graph0" class="graph" transform="scale(1 1) rotate(0) translate(4 841.761)">
<title>AS20704 Combined Upstream Graph</title>
<polygon fill="white" stroke="none" points="-4,4 -4,-841.761 571.762,-841.761 571.762,4 -4,4"/>
<!-- AS20704 -->
<g id="node1" class="node"><title>AS20704</title>
<g id="a_node1"><a xlink:href="/asn/20704" xlink:title="AS20704 ~ Hirschstettnerstr. 19&#45;21 L1 [AT]">
<ellipse fill="#ffffff" stroke="black" cx="44.1961" cy="-454.761" rx="44.393" ry="18"/>
<text text-anchor="middle" x="44.1961" y="-451.061" font-family="Times,serif" font-size="14.00" fill="#880000">AS20704</text>
</a>
</g>
</g>
<!-- AS1764 -->
<g id="node2" class="node"><title>AS1764</title>
<g id="a_node2"><a xlink:href="/asn/1764" xlink:title="AS1764 ~ NEXTLAYER&#45;AS [AT]">
<ellipse fill="#ffffff" stroke="black" cx="168.588" cy="-496.761" rx="39.7935" ry="18"/>
<text text-anchor="middle" x="168.588" y="-493.061" font-family="Times,serif" font-size="14.00" fill="#2c94b3">AS1764</text>
</a>
</g>
</g>
<!-- AS20704&#45;&gt;AS1764 -->
<g id="edge1" class="edge"><title>AS20704&#45;&gt;AS1764</title>
<path fill="none" stroke="black" stroke-width="4.09091" d="M78.6403,-466.238C93.3874,-471.298 110.862,-477.295 126.403,-482.628"/>
<polygon fill="black" stroke="black" stroke-width="4.09091" points="125.667,-486.16 136.288,-486.02 127.991,-479.388 125.667,-486.16"/>
</g>
<!-- AS8220 -->
<g id="node3" class="node"><title>AS8220</title>
<g id="a_node3"><a xlink:href="/asn/8220" xlink:title="AS8220 ~ COLT [GB]">
<ellipse fill="#ffffff" stroke="black" cx="168.588" cy="-427.761" rx="39.7935" ry="18"/>
<text text-anchor="middle" x="168.588" y="-424.061" font-family="Times,serif" font-size="14.00" fill="#2c94b3">AS8220</text>
</a>
</g>
</g>
<!-- AS20704&#45;&gt;AS8220 -->
<g id="edge2" class="edge"><title>AS20704&#45;&gt;AS8220</title>
<path fill="none" stroke="black" stroke-width="4.5" d="M83.5859,-446.292C95.9769,-443.559 109.824,-440.504 122.644,-437.676"/>
<polygon fill="black" stroke="black" stroke-width="4.5" points="123.742,-441.466 132.659,-435.466 122.045,-433.776 123.742,-441.466"/>
</g>
<!-- AS6939 -->
<g id="node4" class="node"><title>AS6939</title>
<g id="a_node4"><a xlink:href="/asn/6939" xlink:title="AS6939 ~ Hurricane Electric LLC [US]">
<ellipse fill="#ffffff" stroke="black" cx="168.588" cy="-213.761" rx="39.7935" ry="18"/>
<text text-anchor="middle" x="168.588" y="-210.061" font-family="Times,serif" font-size="14.00" fill="#2c94b3">AS6939</text>
</a>
</g>
</g>
<!-- AS20704&#45;&gt;AS6939 -->
<g id="edge3" class="edge"><title>AS20704&#45;&gt;AS6939</title>
<path fill="none" stroke="black" stroke-width="1.84091" d="M54.1959,-437.04C75.4153,-395.257 128.682,-290.37 153.919,-240.676"/>
<polygon fill="black" stroke="black" stroke-width="1.84091" points="157.168,-242.009 158.575,-231.508 150.927,-238.839 157.168,-242.009"/>
</g>
<!-- AS13030 -->
<g id="node5" class="node"><title>AS13030</title>
<g id="a_node5"><a xlink:href="/asn/13030" xlink:title="AS13030 ~ Init7 (Switzerland) Ltd. [CH]">
<ellipse fill="#ffffff" stroke="black" cx="168.588" cy="-580.761" rx="44.393" ry="18"/>
<text text-anchor="middle" x="168.588" y="-577.061" font-family="Times,serif" font-size="14.00" fill="#2c94b3">AS13030</text>
</a>
</g>
</g>
<!-- AS20704&#45;&gt;AS13030 -->
<g id="edge4" class="edge"><title>AS20704&#45;&gt;AS13030</title>
<path fill="none" stroke="black" stroke-width="0.613636" d="M61.4488,-471.493C82.6634,-493.333 119.938,-531.706 144.192,-556.674"/>
<polygon fill="black" stroke="black" stroke-width="0.613636" points="141.79,-559.225 151.268,-563.96 146.811,-554.348 141.79,-559.225"/>
</g>
<!-- AS1299 -->
<g id="node6" class="node"><title>AS1299</title>
<g id="a_node6"><a xlink:href="/asn/1299" xlink:title="AS1299 ~ Telia Carrier [EU]">
<ellipse fill="#ffffff" stroke="black" cx="288.431" cy="-595.761" rx="39.7935" ry="18"/>
<text text-anchor="middle" x="288.431" y="-592.061" font-family="Times,serif" font-size="14.00" fill="#2c94b3">AS1299</text>
</a>
</g>
</g>
<!-- AS1764&#45;&gt;AS1299 -->
<g id="edge5" class="edge"><title>AS1764&#45;&gt;AS1299</title>
<path fill="none" stroke="black" stroke-width="1.8" d="M188.104,-512.52C204.124,-526.133 227.93,-546.307 248.784,-563.761 252.592,-566.948 256.62,-570.302 260.581,-573.591"/>
<polygon fill="black" stroke="black" stroke-width="1.8" points="258.594,-576.49 268.527,-580.176 263.061,-571.1 258.594,-576.49"/>
</g>
<!-- AS2914 -->
<g id="node7" class="node"><title>AS2914</title>
<g id="a_node7"><a xlink:href="/asn/2914" xlink:title="AS2914 ~ NTT America, Inc. [US]">
<ellipse fill="#ffffff" stroke="black" cx="408.273" cy="-381.761" rx="39.7935" ry="18"/>
<text text-anchor="middle" x="408.273" y="-378.061" font-family="Times,serif" font-size="14.00" fill="#2c94b3">AS2914</text>
</a>
</g>
</g>
<!-- AS1764&#45;&gt;AS2914 -->
<g id="edge6" class="edge"><title>AS1764&#45;&gt;AS2914</title>
<path fill="none" stroke="black" stroke-width="2.7" d="M207.921,-493.52C241.884,-489.121 291.598,-478.812 328.077,-454.761 349.751,-440.471 344.779,-426.126 364.077,-408.761 367.025,-406.108 370.266,-403.556 373.607,-401.151"/>
<polygon fill="black" stroke="black" stroke-width="2.7" points="375.661,-403.988 382.005,-395.502 371.754,-398.179 375.661,-403.988"/>
</g>
<!-- AS3356 -->
<g id="node8" class="node"><title>AS3356</title>
<g id="a_node8"><a xlink:href="/asn/3356" xlink:title="AS3356 ~ Level 3 Parent, LLC [US]">
<ellipse fill="#ffffff" stroke="black" cx="288.431" cy="-297.761" rx="39.7935" ry="18"/>
<text text-anchor="middle" x="288.431" y="-294.061" font-family="Times,serif" font-size="14.00" fill="#2c94b3">AS3356</text>
</a>
</g>
</g>
<!-- AS1764&#45;&gt;AS3356 -->
<g id="edge7" class="edge"><title>AS1764&#45;&gt;AS3356</title>
<path fill="none" stroke="black" stroke-width="4.5" d="M188.739,-480.884C196.841,-473.514 205.962,-464.284 212.784,-454.761 242.442,-413.361 265.434,-358.327 277.662,-325.619"/>
<polygon fill="black" stroke="black" stroke-width="4.5" points="281.505,-326.574 281.249,-315.83 274.111,-323.865 281.505,-326.574"/>
</g>
<!-- AS3320 -->
<g id="node9" class="node"><title>AS3320</title>
<g id="a_node9"><a xlink:href="/asn/3320" xlink:title="AS3320 ~ DTAG [DE]">
<ellipse fill="#ffffff" stroke="black" cx="288.431" cy="-427.761" rx="39.7935" ry="18"/>
<text text-anchor="middle" x="288.431" y="-424.061" font-family="Times,serif" font-size="14.00" fill="#2c94b3">AS3320</text>
</a>
</g>
</g>
<!-- AS1764&#45;&gt;AS3320 -->
<g id="edge8" class="edge"><title>AS1764&#45;&gt;AS3320</title>
<path fill="none" stroke="black" stroke-width="2.7" d="M193.72,-482.631C211.275,-472.352 235.25,-458.314 254.555,-447.011"/>
<polygon fill="black" stroke="black" stroke-width="2.7" points="256.47,-449.945 263.332,-441.872 252.933,-443.904 256.47,-449.945"/>
</g>
<!-- AS174 -->
<g id="node10" class="node"><title>AS174</title>
<g id="a_node10"><a xlink:href="/asn/174" xlink:title="AS174 ~ Cogent Communications [US]">
<ellipse fill="#ffffff" stroke="black" cx="408.273" cy="-727.761" rx="35.194" ry="18"/>
<text text-anchor="middle" x="408.273" y="-724.061" font-family="Times,serif" font-size="14.00" fill="#2c94b3">AS174</text>
</a>
</g>
</g>
<!-- AS1764&#45;&gt;AS174 -->
<g id="edge9" class="edge"><title>AS1764&#45;&gt;AS174</title>
<path fill="none" stroke="black" stroke-width="2.7" d="M183.602,-513.682C192.463,-524.747 203.88,-539.706 212.784,-553.761 231.295,-582.981 225.633,-597.061 248.784,-622.761 284.223,-662.1 337.481,-693.367 372.311,-711.231"/>
<polygon fill="black" stroke="black" stroke-width="2.7" points="371.109,-714.544 381.616,-715.91 374.254,-708.291 371.109,-714.544"/>
</g>
<!-- AS3257 -->
<g id="node11" class="node"><title>AS3257</title>
<g id="a_node11"><a xlink:href="/asn/3257" xlink:title="AS3257 ~ GTT [DE]">
<ellipse fill="#ffffff" stroke="black" cx="408.273" cy="-489.761" rx="39.7935" ry="18"/>
<text text-anchor="middle" x="408.273" y="-486.061" font-family="Times,serif" font-size="14.00" fill="#2c94b3">AS3257</text>
</a>
</g>
</g>
<!-- AS1764&#45;&gt;AS3257 -->
<g id="edge10" class="edge"><title>AS1764&#45;&gt;AS3257</title>
<path fill="none" stroke="black" stroke-width="1.8" d="M208.305,-495.621C249.224,-494.416 313.864,-492.512 358.298,-491.203"/>
<polygon fill="black" stroke="black" stroke-width="1.8" points="358.68,-494.694 368.573,-490.901 358.474,-487.697 358.68,-494.694"/>
</g>
<!-- AS8218 -->
<g id="node12" class="node"><title>AS8218</title>
<g id="a_node12"><a xlink:href="/asn/8218" xlink:title="AS8218 ~ legacy Neotelecoms [FR]">
<ellipse fill="#ffffff" stroke="black" cx="288.431" cy="-806.761" rx="39.7935" ry="18"/>
<text text-anchor="middle" x="288.431" y="-803.061" font-family="Times,serif" font-size="14.00" fill="#2c94b3">AS8218</text>
</a>
</g>
</g>
<!-- AS1764&#45;&gt;AS8218 -->
<g id="edge11" class="edge"><title>AS1764&#45;&gt;AS8218</title>
<path fill="none" stroke="black" stroke-width="1.8" d="M185.577,-513.345C194.972,-524.044 206.252,-538.729 212.784,-553.761 250.176,-639.807 208.782,-676.897 248.784,-761.761 252.366,-769.359 257.588,-776.683 263.042,-783.137"/>
<polygon fill="black" stroke="black" stroke-width="1.8" points="260.667,-785.728 269.968,-790.801 265.86,-781.035 260.667,-785.728"/>
</g>
<!-- AS8220&#45;&gt;AS1299 -->
<g id="edge39" class="edge"><title>AS8220&#45;&gt;AS1299</title>
<path fill="none" stroke="black" stroke-width="4.5" d="M187.905,-443.546C196.033,-451.04 205.406,-460.393 212.784,-469.761 226.257,-486.867 255.117,-537.487 272.743,-569.117"/>
<polygon fill="black" stroke="black" stroke-width="4.5" points="269.526,-571.434 277.823,-578.265 276.411,-567.611 269.526,-571.434"/>
</g>
<!-- AS8220&#45;&gt;AS2914 -->
<g id="edge43" class="edge"><title>AS8220&#45;&gt;AS2914</title>
<path fill="none" stroke="black" stroke-width="0.45" d="M198.875,-416.138C213.632,-410.704 231.93,-404.6 248.784,-400.761 285.077,-392.495 326.916,-387.672 358.489,-384.955"/>
<polygon fill="black" stroke="black" stroke-width="0.45" points="359.1,-388.417 368.781,-384.113 358.528,-381.441 359.1,-388.417"/>
</g>
<!-- AS8220&#45;&gt;AS3356 -->
<g id="edge38" class="edge"><title>AS8220&#45;&gt;AS3356</title>
<path fill="none" stroke="black" stroke-width="3.6" d="M184.753,-411.032C205.259,-388.41 241.964,-347.919 265.482,-321.975"/>
<polygon fill="black" stroke="black" stroke-width="3.6" points="268.201,-324.185 272.324,-314.426 263.015,-319.484 268.201,-324.185"/>
</g>
<!-- AS8220&#45;&gt;AS3320 -->
<g id="edge42" class="edge"><title>AS8220&#45;&gt;AS3320</title>
<path fill="none" stroke="black" stroke-width="0.45" d="M208.501,-427.761C218.054,-427.761 228.404,-427.761 238.367,-427.761"/>
<polygon fill="black" stroke="black" stroke-width="0.45" points="238.559,-431.261 248.559,-427.761 238.559,-424.261 238.559,-431.261"/>
</g>
<!-- AS6453 -->
<g id="node21" class="node"><title>AS6453</title>
<g id="a_node21"><a xlink:href="/asn/6453" xlink:title="AS6453 ~ TATA COMMUNICATIONS (AMERICA) INC [US]">
<ellipse fill="#ffffff" stroke="black" cx="408.273" cy="-89.7609" rx="39.7935" ry="18"/>
<text text-anchor="middle" x="408.273" y="-86.0609" font-family="Times,serif" font-size="14.00" fill="#2c94b3">AS6453</text>
</a>
</g>
</g>
<!-- AS8220&#45;&gt;AS6453 -->
<g id="edge41" class="edge"><title>AS8220&#45;&gt;AS6453</title>
<path fill="none" stroke="black" stroke-width="0.45" d="M176.893,-410.076C189.575,-380.218 217.337,-318.407 248.784,-270.761 292.621,-204.342 310.542,-192.643 364.077,-133.761 370.185,-127.043 376.987,-119.947 383.353,-113.461"/>
<polygon fill="black" stroke="black" stroke-width="0.45" points="386.007,-115.754 390.557,-106.186 381.034,-110.829 386.007,-115.754"/>
</g>
<!-- AS6461 -->
<g id="node23" class="node"><title>AS6461</title>
<g id="a_node23"><a xlink:href="/asn/6461" xlink:title="AS6461 ~ Zayo Bandwidth [US]">
<ellipse fill="#ffffff" stroke="black" cx="408.273" cy="-819.761" rx="39.7935" ry="18"/>
<text text-anchor="middle" x="408.273" y="-816.061" font-family="Times,serif" font-size="14.00" fill="#2c94b3">AS6461</text>
</a>
</g>
</g>
<!-- AS8220&#45;&gt;AS6461 -->
<g id="edge40" class="edge"><title>AS8220&#45;&gt;AS6461</title>
<path fill="none" stroke="black" stroke-width="0.45" d="M189.735,-443.002C198.022,-450.254 207.012,-459.567 212.784,-469.761 247.207,-530.548 219.228,-559.465 248.784,-622.761 284.96,-700.231 308.012,-712.209 364.077,-776.761 369.737,-783.277 376.175,-790.006 382.321,-796.15"/>
<polygon fill="black" stroke="black" stroke-width="0.45" points="380.281,-799.053 389.869,-803.561 385.185,-794.058 380.281,-799.053"/>
</g>
<!-- AS6939&#45;&gt;AS2914 -->
<g id="edge45" class="edge"><title>AS6939&#45;&gt;AS2914</title>
<path fill="none" stroke="black" d="M177.809,-231.31C190.026,-255.595 215.192,-299.321 248.784,-324.761 282.057,-349.958 327.496,-364.777 361.191,-372.958"/>
<polygon fill="black" stroke="black" points="360.713,-376.44 371.245,-375.288 362.293,-369.62 360.713,-376.44"/>
</g>
<!-- AS6939&#45;&gt;AS3356 -->
<g id="edge49" class="edge"><title>AS6939&#45;&gt;AS3356</title>
<path fill="none" stroke="black" stroke-width="2" d="M190.656,-228.778C209.392,-242.134 236.983,-261.801 257.916,-276.722"/>
<polygon fill="black" stroke="black" stroke-width="2" points="255.973,-279.636 266.148,-282.59 260.037,-273.936 255.973,-279.636"/>
</g>
<!-- AS7018 -->
<g id="node13" class="node"><title>AS7018</title>
<g id="a_node13"><a xlink:href="/asn/7018" xlink:title="AS7018 ~ AT&amp;T Services, Inc. [US]">
<ellipse fill="#ffffff" stroke="black" cx="408.273" cy="-597.761" rx="39.7935" ry="18"/>
<text text-anchor="middle" x="408.273" y="-594.061" font-family="Times,serif" font-size="14.00" fill="#2c94b3">AS7018</text>
</a>
</g>
</g>
<!-- AS6939&#45;&gt;AS7018 -->
<g id="edge47" class="edge"><title>AS6939&#45;&gt;AS7018</title>
<path fill="none" stroke="black" d="M172.578,-231.902C180.083,-273.762 202.52,-379.289 248.784,-454.761 286.773,-516.733 307.263,-525.42 364.077,-570.761 367.343,-573.367 370.875,-575.932 374.464,-578.38"/>
<polygon fill="black" stroke="black" points="372.554,-581.313 382.841,-583.849 376.381,-575.452 372.554,-581.313"/>
</g>
<!-- AS2497 -->
<g id="node15" class="node"><title>AS2497</title>
<g id="a_node15"><a xlink:href="/asn/2497" xlink:title="AS2497 ~ Internet Initiative Japan Inc. [JP]">
<ellipse fill="#ffffff" stroke="black" cx="528.116" cy="-381.761" rx="39.7935" ry="18"/>
<text text-anchor="middle" x="528.116" y="-378.061" font-family="Times,serif" font-size="14.00" fill="#2c94b3">AS2497</text>
</a>
</g>
</g>
<!-- AS6939&#45;&gt;AS2497 -->
<g id="edge44" class="edge"><title>AS6939&#45;&gt;AS2497</title>
<path fill="none" stroke="black" d="M174.301,-195.868C183.402,-164.804 206.343,-100.865 248.784,-65.7609 319.623,-7.16928 381.04,28.1092 452.469,-29.7609 502.897,-70.616 520.641,-277.038 525.536,-353.349"/>
<polygon fill="black" stroke="black" points="522.061,-353.863 526.167,-363.629 529.048,-353.433 522.061,-353.863"/>
</g>
<!-- AS6762 -->
<g id="node16" class="node"><title>AS6762</title>
<g id="a_node16"><a xlink:href="/asn/6762" xlink:title="AS6762 ~ TELECOM ITALIA SPARKLE S.p.A. [IT]">
<ellipse fill="#ffffff" stroke="black" cx="528.116" cy="-577.761" rx="39.7935" ry="18"/>
<text text-anchor="middle" x="528.116" y="-574.061" font-family="Times,serif" font-size="14.00" fill="#2c94b3">AS6762</text>
</a>
</g>
</g>
<!-- AS6939&#45;&gt;AS6762 -->
<g id="edge50" class="edge"><title>AS6939&#45;&gt;AS6762</title>
<path fill="none" stroke="black" d="M203.177,-204.614C238.2,-193.588 292.809,-172.01 328.077,-136.761 353.946,-110.906 333.07,-82.1579 364.077,-62.7609 397.383,-41.926 423.288,-36.4585 452.469,-62.7609 509.89,-114.517 475.83,-332.497 488.469,-408.761 496.773,-458.864 510.921,-516.341 519.601,-549.704"/>
<polygon fill="black" stroke="black" points="516.287,-550.865 522.212,-559.648 523.057,-549.087 516.287,-550.865"/>
</g>
<!-- AS701 -->
<g id="node19" class="node"><title>AS701</title>
<g id="a_node19"><a xlink:href="/asn/701" xlink:title="AS701 ~ UUNET [US]">
<ellipse fill="#ffffff" stroke="black" cx="408.273" cy="-235.761" rx="35.194" ry="18"/>
<text text-anchor="middle" x="408.273" y="-232.061" font-family="Times,serif" font-size="14.00" fill="#2c94b3">AS701</text>
</a>
</g>
</g>
<!-- AS6939&#45;&gt;AS701 -->
<g id="edge48" class="edge"><title>AS6939&#45;&gt;AS701</title>
<path fill="none" stroke="black" d="M207.513,-217.271C249.949,-221.199 318.599,-227.553 363.338,-231.694"/>
<polygon fill="black" stroke="black" points="363.054,-235.183 373.334,-232.619 363.699,-228.213 363.054,-235.183"/>
</g>
<!-- AS6939&#45;&gt;AS6453 -->
<g id="edge46" class="edge"><title>AS6939&#45;&gt;AS6453</title>
<path fill="none" stroke="black" d="M174.313,-195.661C183.192,-165.821 205.497,-107.174 248.784,-82.7609 284.548,-62.5906 332.405,-68.2859 366.142,-76.5619"/>
<polygon fill="black" stroke="black" points="365.569,-80.03 376.13,-79.1874 367.349,-73.26 365.569,-80.03"/>
</g>
<!-- AS1273 -->
<g id="node24" class="node"><title>AS1273</title>
<g id="a_node24"><a xlink:href="/asn/1273" xlink:title="AS1273 ~ Vodafone Group PLC [EU]">
<ellipse fill="#ffffff" stroke="black" cx="288.431" cy="-109.761" rx="39.7935" ry="18"/>
<text text-anchor="middle" x="288.431" y="-106.061" font-family="Times,serif" font-size="14.00" fill="#2c94b3">AS1273</text>
</a>
</g>
</g>
<!-- AS6939&#45;&gt;AS1273 -->
<g id="edge51" class="edge"><title>AS6939&#45;&gt;AS1273</title>
<path fill="none" stroke="black" d="M186.994,-197.511C202.902,-182.762 227.171,-160.516 248.784,-141.761 252.456,-138.574 256.364,-135.256 260.23,-132.016"/>
<polygon fill="black" stroke="black" points="262.568,-134.624 268.019,-125.539 258.092,-129.241 262.568,-134.624"/>
</g>
<!-- AS13030&#45;&gt;AS1299 -->
<g id="edge52" class="edge"><title>AS13030&#45;&gt;AS1299</title>
<path fill="none" stroke="black" stroke-width="3" d="M211.135,-586.049C220.381,-587.226 230.254,-588.483 239.725,-589.689"/>
<polygon fill="black" stroke="black" stroke-width="3" points="239.435,-593.18 249.797,-590.97 240.319,-586.236 239.435,-593.18"/>
</g>
<!-- AS1299&#45;&gt;AS2914 -->
<g id="edge14" class="edge"><title>AS1299&#45;&gt;AS2914</title>
<path fill="none" stroke="black" d="M295.887,-577.767C311.833,-533.609 352.619,-422.476 364.077,-408.761 366.487,-405.876 369.287,-403.206 372.282,-400.757"/>
<polygon fill="black" stroke="black" points="374.471,-403.493 380.528,-394.8 370.372,-397.819 374.471,-403.493"/>
</g>
<!-- AS1299&#45;&gt;AS174 -->
<g id="edge13" class="edge"><title>AS1299&#45;&gt;AS174</title>
<path fill="none" stroke="black" stroke-width="2" d="M300.21,-613.234C313.631,-634.197 337.987,-669.766 364.077,-695.761 368.127,-699.796 372.711,-703.732 377.343,-707.385"/>
<polygon fill="black" stroke="black" stroke-width="2" points="375.53,-710.401 385.625,-713.616 379.739,-704.807 375.53,-710.401"/>
</g>
<!-- AS1299&#45;&gt;AS3257 -->
<g id="edge19" class="edge"><title>AS1299&#45;&gt;AS3257</title>
<path fill="none" stroke="black" d="M309.848,-580.297C315.965,-575.291 322.519,-569.534 328.077,-563.761 346.327,-544.805 344.609,-534.462 364.077,-516.761 367.012,-514.093 370.243,-511.531 373.578,-509.12"/>
<polygon fill="black" stroke="black" points="375.634,-511.955 381.97,-503.464 371.722,-506.151 375.634,-511.955"/>
</g>
<!-- AS1299&#45;&gt;AS7018 -->
<g id="edge12" class="edge"><title>AS1299&#45;&gt;AS7018</title>
<path fill="none" stroke="black" stroke-width="2" d="M328.343,-596.421C337.897,-596.583 348.246,-596.759 358.209,-596.928"/>
<polygon fill="black" stroke="black" stroke-width="2" points="358.344,-600.431 368.402,-597.101 358.462,-593.432 358.344,-600.431"/>
</g>
<!-- AS3491 -->
<g id="node14" class="node"><title>AS3491</title>
<g id="a_node14"><a xlink:href="/asn/3491" xlink:title="AS3491 ~ PCCW Global, Inc. [US]">
<ellipse fill="#ffffff" stroke="black" cx="528.116" cy="-750.761" rx="39.7935" ry="18"/>
<text text-anchor="middle" x="528.116" y="-747.061" font-family="Times,serif" font-size="14.00" fill="#2c94b3">AS3491</text>
</a>
</g>
</g>
<!-- AS1299&#45;&gt;AS3491 -->
<g id="edge15" class="edge"><title>AS1299&#45;&gt;AS3491</title>
<path fill="none" stroke="black" stroke-width="2" d="M291.7,-613.907C297.11,-648.471 314.27,-723.121 364.077,-754.761 400.186,-777.699 450.462,-772.168 485.605,-763.783"/>
<polygon fill="black" stroke="black" stroke-width="2" points="486.721,-767.11 495.542,-761.241 484.987,-760.329 486.721,-767.11"/>
</g>
<!-- AS1299&#45;&gt;AS2497 -->
<g id="edge16" class="edge"><title>AS1299&#45;&gt;AS2497</title>
<path fill="none" stroke="black" d="M313.003,-610.043C347.154,-628.684 410.85,-655.515 452.469,-624.761 470.211,-611.651 505.771,-470.802 520.496,-409.736"/>
<polygon fill="black" stroke="black" points="523.907,-410.519 522.835,-399.979 517.1,-408.887 523.907,-410.519"/>
</g>
<!-- AS1299&#45;&gt;AS6762 -->
<g id="edge17" class="edge"><title>AS1299&#45;&gt;AS6762</title>
<path fill="none" stroke="black" d="M303.388,-612.665C317.047,-627.764 339.359,-648.834 364.077,-657.761 401.027,-671.105 416.44,-673.42 452.469,-657.761 477.736,-646.779 498.332,-622.564 511.441,-603.634"/>
<polygon fill="black" stroke="black" points="514.483,-605.38 517.094,-595.112 508.649,-601.51 514.483,-605.38"/>
</g>
<!-- AS1239 -->
<g id="node17" class="node"><title>AS1239</title>
<g id="a_node17"><a xlink:href="/asn/1239" xlink:title="AS1239 ~ Sprint [US]">
<ellipse fill="#ffffff" stroke="black" cx="408.273" cy="-435.761" rx="39.7935" ry="18"/>
<text text-anchor="middle" x="408.273" y="-432.061" font-family="Times,serif" font-size="14.00" fill="#2c94b3">AS1239</text>
</a>
</g>
</g>
<!-- AS1299&#45;&gt;AS1239 -->
<g id="edge18" class="edge"><title>AS1299&#45;&gt;AS1239</title>
<path fill="none" stroke="black" d="M296.02,-578.038C306.859,-550.721 330.632,-497.823 364.077,-462.761 366.672,-460.041 369.595,-457.48 372.667,-455.101"/>
<polygon fill="black" stroke="black" points="374.845,-457.848 381.02,-449.239 370.824,-452.118 374.845,-457.848"/>
</g>
<!-- AS209 -->
<g id="node18" class="node"><title>AS209</title>
<g id="a_node18"><a xlink:href="/asn/209" xlink:title="AS209 ~ CenturyLink Communications, LLC [US]">
<ellipse fill="#ffffff" stroke="black" cx="408.273" cy="-543.761" rx="35.194" ry="18"/>
<text text-anchor="middle" x="408.273" y="-540.061" font-family="Times,serif" font-size="14.00" fill="#2c94b3">AS209</text>
</a>
</g>
</g>
<!-- AS1299&#45;&gt;AS209 -->
<g id="edge20" class="edge"><title>AS1299&#45;&gt;AS209</title>
<path fill="none" stroke="black" d="M317.358,-583.438C333.667,-576.241 354.406,-567.09 371.855,-559.39"/>
<polygon fill="black" stroke="black" points="373.426,-562.522 381.161,-555.283 370.6,-556.118 373.426,-562.522"/>
</g>
<!-- AS2914&#45;&gt;AS2497 -->
<g id="edge36" class="edge"><title>AS2914&#45;&gt;AS2497</title>
<path fill="none" stroke="black" d="M448.186,-381.761C457.739,-381.761 468.089,-381.761 478.052,-381.761"/>
<polygon fill="black" stroke="black" points="478.244,-385.261 488.244,-381.761 478.244,-378.261 478.244,-385.261"/>
</g>
<!-- AS3356&#45;&gt;AS2914 -->
<g id="edge31" class="edge"><title>AS3356&#45;&gt;AS2914</title>
<path fill="none" stroke="black" d="M310.499,-312.778C329.235,-326.134 356.826,-345.801 377.758,-360.722"/>
<polygon fill="black" stroke="black" points="375.816,-363.636 385.991,-366.59 379.879,-357.936 375.816,-363.636"/>
</g>
<!-- AS3356&#45;&gt;AS3257 -->
<g id="edge30" class="edge"><title>AS3356&#45;&gt;AS3257</title>
<path fill="none" stroke="black" d="M295.928,-315.439C309.97,-353.005 343.536,-439.27 364.077,-462.761 366.551,-465.59 369.395,-468.224 372.416,-470.65"/>
<polygon fill="black" stroke="black" points="370.53,-473.604 380.7,-476.575 374.602,-467.911 370.53,-473.604"/>
</g>
<!-- AS3356&#45;&gt;AS2497 -->
<g id="edge25" class="edge"><title>AS3356&#45;&gt;AS2497</title>
<path fill="none" stroke="black" d="M311.552,-283.027C317.59,-278.128 323.674,-272.247 328.077,-265.761 357.208,-222.852 322.127,-185.257 364.077,-154.761 395.854,-131.661 420.646,-131.726 452.469,-154.761 516.339,-200.992 526.517,-303.692 527.522,-353.535"/>
<polygon fill="black" stroke="black" points="524.023,-353.642 527.613,-363.61 531.023,-353.579 524.023,-353.642"/>
</g>
<!-- AS3356&#45;&gt;AS6762 -->
<g id="edge24" class="edge"><title>AS3356&#45;&gt;AS6762</title>
<path fill="none" stroke="black" stroke-width="2" d="M323.987,-306.029C366.2,-316.759 434.251,-336.299 452.469,-354.761 480.294,-382.959 508.829,-496.552 521.008,-549.868"/>
<polygon fill="black" stroke="black" stroke-width="2" points="517.607,-550.699 523.221,-559.684 524.436,-549.16 517.607,-550.699"/>
</g>
<!-- AS3356&#45;&gt;AS1239 -->
<g id="edge27" class="edge"><title>AS3356&#45;&gt;AS1239</title>
<path fill="none" stroke="black" d="M298.347,-315.581C310.709,-339.011 334.865,-380.507 364.077,-408.761 366.928,-411.518 370.105,-414.138 373.408,-416.583"/>
<polygon fill="black" stroke="black" points="371.526,-419.537 381.758,-422.284 375.473,-413.755 371.526,-419.537"/>
</g>
<!-- AS3356&#45;&gt;AS209 -->
<g id="edge32" class="edge"><title>AS3356&#45;&gt;AS209</title>
<path fill="none" stroke="black" d="M296.449,-315.511C304.446,-335.948 317.744,-370.586 328.077,-400.761 345.566,-451.831 331.128,-474.002 364.077,-516.761 366.689,-520.15 369.855,-523.222 373.275,-525.976"/>
<polygon fill="black" stroke="black" points="371.379,-528.922 381.568,-531.825 375.413,-523.201 371.379,-528.922"/>
</g>
<!-- AS3356&#45;&gt;AS701 -->
<g id="edge28" class="edge"><title>AS3356&#45;&gt;AS701</title>
<path fill="none" stroke="black" d="M315.001,-284.308C332.258,-275.229 355.205,-263.155 373.899,-253.32"/>
<polygon fill="black" stroke="black" points="375.741,-256.306 382.961,-248.552 372.482,-250.111 375.741,-256.306"/>
</g>
<!-- AS3549 -->
<g id="node20" class="node"><title>AS3549</title>
<g id="a_node20"><a xlink:href="/asn/3549" xlink:title="AS3549 ~ Level 3 Parent, LLC [US]">
<ellipse fill="#ffffff" stroke="black" cx="408.273" cy="-289.761" rx="39.7935" ry="18"/>
<text text-anchor="middle" x="408.273" y="-286.061" font-family="Times,serif" font-size="14.00" fill="#2c94b3">AS3549</text>
</a>
</g>
</g>
<!-- AS3356&#45;&gt;AS3549 -->
<g id="edge23" class="edge"><title>AS3356&#45;&gt;AS3549</title>
<path fill="none" stroke="black" stroke-width="2" d="M327.691,-295.164C337.57,-294.493 348.337,-293.762 358.667,-293.061"/>
<polygon fill="black" stroke="black" stroke-width="2" points="359.062,-296.542 368.802,-292.373 358.588,-289.558 359.062,-296.542"/>
</g>
<!-- AS3356&#45;&gt;AS6453 -->
<g id="edge26" class="edge"><title>AS3356&#45;&gt;AS6453</title>
<path fill="none" stroke="black" d="M311.836,-283.213C317.882,-278.319 323.899,-272.395 328.077,-265.761 363.236,-209.941 327.424,-176.611 364.077,-121.761 366.984,-117.411 370.69,-113.431 374.704,-109.868"/>
<polygon fill="black" stroke="black" points="377.018,-112.5 382.677,-103.543 372.668,-107.016 377.018,-112.5"/>
</g>
<!-- AS12956 -->
<g id="node22" class="node"><title>AS12956</title>
<g id="a_node22"><a xlink:href="/asn/12956" xlink:title="AS12956 ~ TELXIUS [ES]">
<ellipse fill="#ffffff" stroke="black" cx="408.273" cy="-181.761" rx="44.393" ry="18"/>
<text text-anchor="middle" x="408.273" y="-178.061" font-family="Times,serif" font-size="14.00" fill="#2c94b3">AS12956</text>
</a>
</g>
</g>
<!-- AS3356&#45;&gt;AS12956 -->
<g id="edge29" class="edge"><title>AS3356&#45;&gt;AS12956</title>
<path fill="none" stroke="black" d="M310.176,-282.599C316.306,-277.605 322.785,-271.779 328.077,-265.761 347.863,-243.259 342.841,-229.898 364.077,-208.761 366.534,-206.316 369.25,-203.987 372.09,-201.796"/>
<polygon fill="black" stroke="black" points="374.149,-204.626 380.303,-196.002 370.114,-198.906 374.149,-204.626"/>
</g>
<!-- AS3320&#45;&gt;AS1239 -->
<g id="edge21" class="edge"><title>AS3320&#45;&gt;AS1239</title>
<path fill="none" stroke="black" d="M327.691,-430.358C337.57,-431.029 348.337,-431.76 358.667,-432.461"/>
<polygon fill="black" stroke="black" points="358.588,-435.964 368.802,-433.149 359.062,-428.98 358.588,-435.964"/>
</g>
<!-- AS3320&#45;&gt;AS701 -->
<g id="edge22" class="edge"><title>AS3320&#45;&gt;AS701</title>
<path fill="none" stroke="black" d="M295.928,-410.083C309.97,-372.517 343.536,-286.252 364.077,-262.761 366.893,-259.54 370.188,-256.573 373.679,-253.878"/>
<polygon fill="black" stroke="black" points="375.813,-256.657 382.05,-248.093 371.833,-250.899 375.813,-256.657"/>
</g>
<!-- AS174&#45;&gt;AS3491 -->
<g id="edge34" class="edge"><title>AS174&#45;&gt;AS3491</title>
<path fill="none" stroke="black" d="M441.474,-734.046C453.747,-736.441 467.982,-739.219 481.28,-741.815"/>
<polygon fill="black" stroke="black" points="480.734,-745.274 491.219,-743.755 482.075,-738.404 480.734,-745.274"/>
</g>
<!-- AS174&#45;&gt;AS6762 -->
<g id="edge33" class="edge"><title>AS174&#45;&gt;AS6762</title>
<path fill="none" stroke="black" d="M431.211,-713.896C438.455,-708.722 446.244,-702.462 452.469,-695.761 478.365,-667.887 500.566,-629.839 513.869,-604.568"/>
<polygon fill="black" stroke="black" points="517.044,-606.048 518.521,-595.556 510.823,-602.837 517.044,-606.048"/>
</g>
<!-- AS3257&#45;&gt;AS2497 -->
<g id="edge35" class="edge"><title>AS3257&#45;&gt;AS2497</title>
<path fill="none" stroke="black" d="M433.826,-475.997C440.135,-472.041 446.751,-467.503 452.469,-462.761 472.835,-445.87 492.991,-423.576 507.216,-406.654"/>
<polygon fill="black" stroke="black" points="510.016,-408.76 513.697,-398.826 504.624,-404.296 510.016,-408.76"/>
</g>
<!-- AS8218&#45;&gt;AS6461 -->
<g id="edge37" class="edge"><title>AS8218&#45;&gt;AS6461</title>
<path fill="none" stroke="black" stroke-width="2" d="M327.041,-810.91C337.352,-812.047 348.669,-813.296 359.47,-814.487"/>
<polygon fill="black" stroke="black" stroke-width="2" points="359.293,-817.989 369.616,-815.607 360.06,-811.031 359.293,-817.989"/>
</g>
</g>
</svg>
