<?xml version="1.0" encoding="UTF-8" standalone="no"?>
<!DOCTYPE svg PUBLIC "-//W3C//DTD SVG 1.1//EN"
 "http://www.w3.org/Graphics/SVG/1.1/DTD/svg11.dtd">
<!-- Generated by graphviz version 2.38.0 (20140413.2041)
 -->
<!-- Title: AS20704 IPv4 Upstream Graph Pages: 1 -->
<svg width="567pt" height="623pt"
 viewBox="0.00 0.00 566.66 623.44" xmlns="http://www.w3.org/2000/svg" xmlns:xlink="http://www.w3.org/1999/xlink">
<g id="graph0" class="graph" transform="scale(1 1) rotate(0) translate(4 619.443)">
<title>AS20704 IPv4 Upstream Graph</title>
<polygon fill="white" stroke="none" points="-4,4 -4,-619.443 562.663,-619.443 562.663,4 -4,4"/>
<!-- AS20704 -->
<g id="node1" class="node"><title>AS20704</title>
<g id="a_node1"><a xlink:href="/asn/20704" xlink:title="AS20704 ~ Hirschstettnerstr. 19&#45;21 L1 [AT]">
<ellipse fill="#ffffff" stroke="black" cx="44.1961" cy="-246.443" rx="44.393" ry="18"/>
<text text-anchor="middle" x="44.1961" y="-242.743" font-family="Times,serif" font-size="14.00" fill="#880000">AS20704</text>
</a>
</g>
</g>
<!-- AS1764 -->
<g id="node2" class="node"><title>AS1764</title>
<g id="a_node2"><a xlink:href="/asn/1764" xlink:title="AS1764 ~ NEXTLAYER&#45;AS [AT]">
<ellipse fill="#ffffff" stroke="black" cx="164.039" cy="-326.443" rx="39.7935" ry="18"/>
<text text-anchor="middle" x="164.039" y="-322.743" font-family="Times,serif" font-size="14.00" fill="#2c94b3">AS1764</text>
</a>
</g>
</g>
<!-- AS20704&#45;&gt;AS1764 -->
<g id="edge1" class="edge"><title>AS20704&#45;&gt;AS1764</title>
<path fill="none" stroke="black" stroke-width="4.5" d="M67.9173,-261.868C86.3277,-274.366 112.436,-292.091 132.644,-305.81"/>
<polygon fill="black" stroke="black" stroke-width="4.5" points="130.699,-309.248 141.184,-311.607 135.122,-302.732 130.699,-309.248"/>
</g>
<!-- AS8220 -->
<g id="node3" class="node"><title>AS8220</title>
<g id="a_node3"><a xlink:href="/asn/8220" xlink:title="AS8220 ~ COLT [GB]">
<ellipse fill="#ffffff" stroke="black" cx="164.039" cy="-181.443" rx="39.7935" ry="18"/>
<text text-anchor="middle" x="164.039" y="-177.743" font-family="Times,serif" font-size="14.00" fill="#2c94b3">AS8220</text>
</a>
</g>
</g>
<!-- AS20704&#45;&gt;AS8220 -->
<g id="edge2" class="edge"><title>AS20704&#45;&gt;AS8220</title>
<path fill="none" stroke="black" stroke-width="3.31579" d="M71.3492,-232.018C88.4032,-222.611 110.827,-210.242 129.231,-200.091"/>
<polygon fill="black" stroke="black" stroke-width="3.31579" points="131.103,-203.056 138.169,-195.161 127.722,-196.926 131.103,-203.056"/>
</g>
<!-- AS8218 -->
<g id="node4" class="node"><title>AS8218</title>
<g id="a_node4"><a xlink:href="/asn/8218" xlink:title="AS8218 ~ legacy Neotelecoms [FR]">
<ellipse fill="#ffffff" stroke="black" cx="279.332" cy="-577.443" rx="39.7935" ry="18"/>
<text text-anchor="middle" x="279.332" y="-573.743" font-family="Times,serif" font-size="14.00" fill="#2c94b3">AS8218</text>
</a>
</g>
</g>
<!-- AS1764&#45;&gt;AS8218 -->
<g id="edge3" class="edge"><title>AS1764&#45;&gt;AS8218</title>
<path fill="none" stroke="black" stroke-width="0.9" d="M169.801,-344.312C179.776,-380.222 204.857,-463.119 239.685,-526.443 244.692,-535.546 251.197,-544.804 257.439,-552.889"/>
<polygon fill="black" stroke="black" stroke-width="0.9" points="254.803,-555.197 263.774,-560.834 260.276,-550.833 254.803,-555.197"/>
</g>
<!-- AS2914 -->
<g id="node5" class="node"><title>AS2914</title>
<g id="a_node5"><a xlink:href="/asn/2914" xlink:title="AS2914 ~ NTT America, Inc. [US]">
<ellipse fill="#ffffff" stroke="black" cx="399.174" cy="-181.443" rx="39.7935" ry="18"/>
<text text-anchor="middle" x="399.174" y="-177.743" font-family="Times,serif" font-size="14.00" fill="#2c94b3">AS2914</text>
</a>
</g>
</g>
<!-- AS1764&#45;&gt;AS2914 -->
<g id="edge4" class="edge"><title>AS1764&#45;&gt;AS2914</title>
<path fill="none" stroke="black" stroke-width="1.8" d="M181.256,-310.193C195.758,-296.2 218.009,-276.018 239.685,-261.443 278.446,-235.381 326.854,-212.142 359.906,-197.515"/>
<polygon fill="black" stroke="black" stroke-width="1.8" points="361.461,-200.655 369.22,-193.441 358.656,-194.242 361.461,-200.655"/>
</g>
<!-- AS3356 -->
<g id="node6" class="node"><title>AS3356</title>
<g id="a_node6"><a xlink:href="/asn/3356" xlink:title="AS3356 ~ Level 3 Parent, LLC [US]">
<ellipse fill="#ffffff" stroke="black" cx="279.332" cy="-288.443" rx="39.7935" ry="18"/>
<text text-anchor="middle" x="279.332" y="-284.743" font-family="Times,serif" font-size="14.00" fill="#2c94b3">AS3356</text>
</a>
</g>
</g>
<!-- AS1764&#45;&gt;AS3356 -->
<g id="edge5" class="edge"><title>AS1764&#45;&gt;AS3356</title>
<path fill="none" stroke="black" stroke-width="4.5" d="M196.296,-315.959C208.945,-311.716 223.724,-306.76 237.226,-302.231"/>
<polygon fill="black" stroke="black" stroke-width="4.5" points="238.554,-305.939 246.783,-299.025 236.05,-298.472 238.554,-305.939"/>
</g>
<!-- AS174 -->
<g id="node7" class="node"><title>AS174</title>
<g id="a_node7"><a xlink:href="/asn/174" xlink:title="AS174 ~ Cogent Communications [US]">
<ellipse fill="#ffffff" stroke="black" cx="399.174" cy="-381.443" rx="35.194" ry="18"/>
<text text-anchor="middle" x="399.174" y="-377.743" font-family="Times,serif" font-size="14.00" fill="#2c94b3">AS174</text>
</a>
</g>
</g>
<!-- AS1764&#45;&gt;AS174 -->
<g id="edge6" class="edge"><title>AS1764&#45;&gt;AS174</title>
<path fill="none" stroke="black" stroke-width="1.8" d="M199.439,-334.559C241.389,-344.455 312.227,-361.167 357.025,-371.736"/>
<polygon fill="black" stroke="black" stroke-width="1.8" points="356.457,-375.198 366.993,-374.087 358.064,-368.385 356.457,-375.198"/>
</g>
<!-- AS1299 -->
<g id="node8" class="node"><title>AS1299</title>
<g id="a_node8"><a xlink:href="/asn/1299" xlink:title="AS1299 ~ Telia Carrier [EU]">
<ellipse fill="#ffffff" stroke="black" cx="279.332" cy="-73.4434" rx="39.7935" ry="18"/>
<text text-anchor="middle" x="279.332" y="-69.7434" font-family="Times,serif" font-size="14.00" fill="#2c94b3">AS1299</text>
</a>
</g>
</g>
<!-- AS1764&#45;&gt;AS1299 -->
<g id="edge7" class="edge"><title>AS1764&#45;&gt;AS1299</title>
<path fill="none" stroke="black" stroke-width="2.7" d="M173.005,-308.653C192.547,-265.013 242.956,-152.442 266.228,-100.472"/>
<polygon fill="black" stroke="black" stroke-width="2.7" points="269.481,-101.771 270.374,-91.2142 263.093,-98.9105 269.481,-101.771"/>
</g>
<!-- AS3320 -->
<g id="node9" class="node"><title>AS3320</title>
<g id="a_node9"><a xlink:href="/asn/3320" xlink:title="AS3320 ~ DTAG [DE]">
<ellipse fill="#ffffff" stroke="black" cx="279.332" cy="-435.443" rx="39.7935" ry="18"/>
<text text-anchor="middle" x="279.332" y="-431.743" font-family="Times,serif" font-size="14.00" fill="#2c94b3">AS3320</text>
</a>
</g>
</g>
<!-- AS1764&#45;&gt;AS3320 -->
<g id="edge8" class="edge"><title>AS1764&#45;&gt;AS3320</title>
<path fill="none" stroke="black" stroke-width="2.7" d="M182.245,-342.998C201.404,-361.431 232.512,-391.36 254.122,-412.151"/>
<polygon fill="black" stroke="black" stroke-width="2.7" points="251.701,-414.679 261.334,-419.09 256.554,-409.635 251.701,-414.679"/>
</g>
<!-- AS3257 -->
<g id="node10" class="node"><title>AS3257</title>
<g id="a_node10"><a xlink:href="/asn/3257" xlink:title="AS3257 ~ GTT [DE]">
<ellipse fill="#ffffff" stroke="black" cx="399.174" cy="-543.443" rx="39.7935" ry="18"/>
<text text-anchor="middle" x="399.174" y="-539.743" font-family="Times,serif" font-size="14.00" fill="#2c94b3">AS3257</text>
</a>
</g>
</g>
<!-- AS1764&#45;&gt;AS3257 -->
<g id="edge9" class="edge"><title>AS1764&#45;&gt;AS3257</title>
<path fill="none" stroke="black" stroke-width="2.7" d="M170.994,-344.473C181.122,-372.767 204.129,-427.921 239.685,-462.443 272.878,-494.671 321.456,-516.908 356.07,-529.817"/>
<polygon fill="black" stroke="black" stroke-width="2.7" points="355.289,-533.257 365.884,-533.368 357.671,-526.674 355.289,-533.257"/>
</g>
<!-- AS8220&#45;&gt;AS2914 -->
<g id="edge33" class="edge"><title>AS8220&#45;&gt;AS2914</title>
<path fill="none" stroke="black" stroke-width="0.45" d="M203.798,-181.443C243.714,-181.443 306.032,-181.443 349.304,-181.443"/>
<polygon fill="black" stroke="black" stroke-width="0.45" points="349.322,-184.943 359.322,-181.443 349.322,-177.943 349.322,-184.943"/>
</g>
<!-- AS8220&#45;&gt;AS3356 -->
<g id="edge30" class="edge"><title>AS8220&#45;&gt;AS3356</title>
<path fill="none" stroke="black" stroke-width="4.5" d="M182.245,-197.694C201.321,-215.71 232.241,-244.913 253.838,-265.311"/>
<polygon fill="black" stroke="black" stroke-width="4.5" points="251.36,-268.386 261.334,-272.39 256.768,-262.661 251.36,-268.386"/>
</g>
<!-- AS8220&#45;&gt;AS1299 -->
<g id="edge31" class="edge"><title>AS8220&#45;&gt;AS1299</title>
<path fill="none" stroke="black" stroke-width="0.9" d="M182.245,-165.04C201.321,-146.856 232.241,-117.381 253.838,-96.7924"/>
<polygon fill="black" stroke="black" stroke-width="0.9" points="256.511,-99.0801 261.334,-89.6467 251.681,-94.0134 256.511,-99.0801"/>
</g>
<!-- AS6453 -->
<g id="node14" class="node"><title>AS6453</title>
<g id="a_node14"><a xlink:href="/asn/6453" xlink:title="AS6453 ~ TATA COMMUNICATIONS (AMERICA) INC [US]">
<ellipse fill="#ffffff" stroke="black" cx="399.174" cy="-127.443" rx="39.7935" ry="18"/>
<text text-anchor="middle" x="399.174" y="-123.743" font-family="Times,serif" font-size="14.00" fill="#2c94b3">AS6453</text>
</a>
</g>
</g>
<!-- AS8220&#45;&gt;AS6453 -->
<g id="edge32" class="edge"><title>AS8220&#45;&gt;AS6453</title>
<path fill="none" stroke="black" stroke-width="0.45" d="M199.69,-173.417C240.61,-163.939 308.763,-148.153 353.585,-137.771"/>
<polygon fill="black" stroke="black" stroke-width="0.45" points="354.381,-141.18 363.333,-135.513 352.801,-134.36 354.381,-141.18"/>
</g>
<!-- AS6461 -->
<g id="node11" class="node"><title>AS6461</title>
<g id="a_node11"><a xlink:href="/asn/6461" xlink:title="AS6461 ~ Zayo Bandwidth [US]">
<ellipse fill="#ffffff" stroke="black" cx="399.174" cy="-597.443" rx="39.7935" ry="18"/>
<text text-anchor="middle" x="399.174" y="-593.743" font-family="Times,serif" font-size="14.00" fill="#2c94b3">AS6461</text>
</a>
</g>
</g>
<!-- AS8218&#45;&gt;AS6461 -->
<g id="edge10" class="edge"><title>AS8218&#45;&gt;AS6461</title>
<path fill="none" stroke="black" d="M316.65,-583.607C327.739,-585.489 340.086,-587.585 351.749,-589.564"/>
<polygon fill="black" stroke="black" points="351.328,-593.043 361.773,-591.265 352.5,-586.141 351.328,-593.043"/>
</g>
<!-- AS6762 -->
<g id="node12" class="node"><title>AS6762</title>
<g id="a_node12"><a xlink:href="/asn/6762" xlink:title="AS6762 ~ TELECOM ITALIA SPARKLE S.p.A. [IT]">
<ellipse fill="#ffffff" stroke="black" cx="519.017" cy="-181.443" rx="39.7935" ry="18"/>
<text text-anchor="middle" x="519.017" y="-177.743" font-family="Times,serif" font-size="14.00" fill="#2c94b3">AS6762</text>
</a>
</g>
</g>
<!-- AS2914&#45;&gt;AS6762 -->
<g id="edge29" class="edge"><title>AS2914&#45;&gt;AS6762</title>
<path fill="none" stroke="black" d="M439.087,-181.443C448.64,-181.443 458.99,-181.443 468.952,-181.443"/>
<polygon fill="black" stroke="black" points="469.145,-184.943 479.145,-181.443 469.145,-177.943 469.145,-184.943"/>
</g>
<!-- AS3356&#45;&gt;AS2914 -->
<g id="edge20" class="edge"><title>AS3356&#45;&gt;AS2914</title>
<path fill="none" stroke="black" d="M298.298,-272.231C304.904,-266.133 312.38,-259.072 318.978,-252.443 335.62,-235.726 337.423,-229.2 354.978,-213.443 359.145,-209.703 363.732,-205.958 368.313,-202.416"/>
<polygon fill="black" stroke="black" points="370.56,-205.106 376.459,-196.305 366.359,-199.506 370.56,-205.106"/>
</g>
<!-- AS3356&#45;&gt;AS174 -->
<g id="edge17" class="edge"><title>AS3356&#45;&gt;AS174</title>
<path fill="none" stroke="black" d="M297.14,-304.758C311.838,-318.662 334.047,-338.816 354.978,-354.443 358.665,-357.196 362.638,-359.945 366.628,-362.579"/>
<polygon fill="black" stroke="black" points="364.976,-365.676 375.286,-368.115 368.747,-359.779 364.976,-365.676"/>
</g>
<!-- AS3356&#45;&gt;AS3257 -->
<g id="edge18" class="edge"><title>AS3356&#45;&gt;AS3257</title>
<path fill="none" stroke="black" d="M286.16,-306.52C303.437,-360.066 353.281,-514.276 354.978,-516.443 357.295,-519.403 360.034,-522.124 362.989,-524.604"/>
<polygon fill="black" stroke="black" points="361.046,-527.519 371.181,-530.605 365.182,-521.872 361.046,-527.519"/>
</g>
<!-- AS3356&#45;&gt;AS6762 -->
<g id="edge11" class="edge"><title>AS3356&#45;&gt;AS6762</title>
<path fill="none" stroke="black" stroke-width="2" d="M303.773,-274.191C318.269,-265.646 337.403,-254.845 354.978,-246.443 395.889,-226.886 444.328,-208.102 477.72,-195.801"/>
<polygon fill="black" stroke="black" stroke-width="2" points="478.957,-199.075 487.147,-192.353 476.553,-192.501 478.957,-199.075"/>
</g>
<!-- AS3549 -->
<g id="node13" class="node"><title>AS3549</title>
<g id="a_node13"><a xlink:href="/asn/3549" xlink:title="AS3549 ~ Level 3 Parent, LLC [US]">
<ellipse fill="#ffffff" stroke="black" cx="399.174" cy="-327.443" rx="39.7935" ry="18"/>
<text text-anchor="middle" x="399.174" y="-323.743" font-family="Times,serif" font-size="14.00" fill="#2c94b3">AS3549</text>
</a>
</g>
</g>
<!-- AS3356&#45;&gt;AS3549 -->
<g id="edge12" class="edge"><title>AS3356&#45;&gt;AS3549</title>
<path fill="none" stroke="black" stroke-width="2" d="M311.911,-298.895C325.649,-303.441 341.934,-308.831 356.634,-313.696"/>
<polygon fill="black" stroke="black" stroke-width="2" points="355.914,-317.144 366.507,-316.963 358.113,-310.499 355.914,-317.144"/>
</g>
<!-- AS3356&#45;&gt;AS6453 -->
<g id="edge13" class="edge"><title>AS3356&#45;&gt;AS6453</title>
<path fill="none" stroke="black" d="M286.888,-270.584C297.682,-243.059 321.398,-189.76 354.978,-154.443 357.568,-151.72 360.489,-149.156 363.559,-146.774"/>
<polygon fill="black" stroke="black" points="365.737,-149.522 371.91,-140.911 361.714,-143.793 365.737,-149.522"/>
</g>
<!-- AS12956 -->
<g id="node15" class="node"><title>AS12956</title>
<g id="a_node15"><a xlink:href="/asn/12956" xlink:title="AS12956 ~ TELXIUS [ES]">
<ellipse fill="#ffffff" stroke="black" cx="399.174" cy="-273.443" rx="44.393" ry="18"/>
<text text-anchor="middle" x="399.174" y="-269.743" font-family="Times,serif" font-size="14.00" fill="#2c94b3">AS12956</text>
</a>
</g>
</g>
<!-- AS3356&#45;&gt;AS12956 -->
<g id="edge14" class="edge"><title>AS3356&#45;&gt;AS12956</title>
<path fill="none" stroke="black" stroke-width="2" d="M317.618,-283.697C326.826,-282.525 336.853,-281.249 346.607,-280.007"/>
<polygon fill="black" stroke="black" stroke-width="2" points="347.149,-283.467 356.627,-278.732 346.265,-276.523 347.149,-283.467"/>
</g>
<!-- AS7018 -->
<g id="node16" class="node"><title>AS7018</title>
<g id="a_node16"><a xlink:href="/asn/7018" xlink:title="AS7018 ~ AT&amp;T Services, Inc. [US]">
<ellipse fill="#ffffff" stroke="black" cx="399.174" cy="-73.4434" rx="39.7935" ry="18"/>
<text text-anchor="middle" x="399.174" y="-69.7434" font-family="Times,serif" font-size="14.00" fill="#2c94b3">AS7018</text>
</a>
</g>
</g>
<!-- AS3356&#45;&gt;AS7018 -->
<g id="edge15" class="edge"><title>AS3356&#45;&gt;AS7018</title>
<path fill="none" stroke="black" d="M283.556,-270.466C290.767,-234.588 311.122,-153.036 354.978,-100.443 357.385,-97.5567 360.184,-94.8844 363.177,-92.4347"/>
<polygon fill="black" stroke="black" points="365.367,-95.1706 371.422,-86.4763 361.267,-89.4971 365.367,-95.1706"/>
</g>
<!-- AS701 -->
<g id="node17" class="node"><title>AS701</title>
<g id="a_node17"><a xlink:href="/asn/701" xlink:title="AS701 ~ UUNET [US]">
<ellipse fill="#ffffff" stroke="black" cx="399.174" cy="-489.443" rx="35.194" ry="18"/>
<text text-anchor="middle" x="399.174" y="-485.743" font-family="Times,serif" font-size="14.00" fill="#2c94b3">AS701</text>
</a>
</g>
</g>
<!-- AS3356&#45;&gt;AS701 -->
<g id="edge16" class="edge"><title>AS3356&#45;&gt;AS701</title>
<path fill="none" stroke="black" d="M284.23,-306.382C292.34,-340.226 313.795,-414.404 354.978,-462.443 357.763,-465.691 361.037,-468.676 364.517,-471.381"/>
<polygon fill="black" stroke="black" points="362.664,-474.355 372.876,-477.176 366.652,-468.602 362.664,-474.355"/>
</g>
<!-- AS1239 -->
<g id="node18" class="node"><title>AS1239</title>
<g id="a_node18"><a xlink:href="/asn/1239" xlink:title="AS1239 ~ Sprint [US]">
<ellipse fill="#ffffff" stroke="black" cx="399.174" cy="-435.443" rx="39.7935" ry="18"/>
<text text-anchor="middle" x="399.174" y="-431.743" font-family="Times,serif" font-size="14.00" fill="#2c94b3">AS1239</text>
</a>
</g>
</g>
<!-- AS3356&#45;&gt;AS1239 -->
<g id="edge19" class="edge"><title>AS3356&#45;&gt;AS1239</title>
<path fill="none" stroke="black" d="M288.109,-306.044C299.822,-331.073 323.957,-377.355 354.978,-408.443 357.779,-411.251 360.925,-413.903 364.208,-416.368"/>
<polygon fill="black" stroke="black" points="362.311,-419.312 372.534,-422.094 366.277,-413.544 362.311,-419.312"/>
</g>
<!-- AS3491 -->
<g id="node19" class="node"><title>AS3491</title>
<g id="a_node19"><a xlink:href="/asn/3491" xlink:title="AS3491 ~ PCCW Global, Inc. [US]">
<ellipse fill="#ffffff" stroke="black" cx="519.017" cy="-381.443" rx="39.7935" ry="18"/>
<text text-anchor="middle" x="519.017" y="-377.743" font-family="Times,serif" font-size="14.00" fill="#2c94b3">AS3491</text>
</a>
</g>
</g>
<!-- AS174&#45;&gt;AS3491 -->
<g id="edge28" class="edge"><title>AS174&#45;&gt;AS3491</title>
<path fill="none" stroke="black" d="M434.576,-381.443C445.4,-381.443 457.568,-381.443 469.194,-381.443"/>
<polygon fill="black" stroke="black" points="469.225,-384.943 479.225,-381.443 469.225,-377.943 469.225,-384.943"/>
</g>
<!-- AS1299&#45;&gt;AS6762 -->
<g id="edge21" class="edge"><title>AS1299&#45;&gt;AS6762</title>
<path fill="none" stroke="black" d="M294.669,-56.7914C308.432,-42.1922 330.669,-22.002 354.978,-13.4434 392.034,-0.3969 410.431,7.96543 443.37,-13.4434 491.293,-44.5908 508.697,-114.372 514.829,-153.493"/>
<polygon fill="black" stroke="black" points="511.369,-154.021 516.246,-163.427 518.298,-153.033 511.369,-154.021"/>
</g>
<!-- AS1299&#45;&gt;AS7018 -->
<g id="edge22" class="edge"><title>AS1299&#45;&gt;AS7018</title>
<path fill="none" stroke="black" d="M319.244,-73.4434C328.798,-73.4434 339.147,-73.4434 349.11,-73.4434"/>
<polygon fill="black" stroke="black" points="349.302,-76.9435 359.302,-73.4434 349.302,-69.9435 349.302,-76.9435"/>
</g>
<!-- AS1299&#45;&gt;AS3491 -->
<g id="edge23" class="edge"><title>AS1299&#45;&gt;AS3491</title>
<path fill="none" stroke="black" d="M303.969,-59.3278C338.491,-40.7524 402.974,-14.0389 443.37,-46.4434 500.903,-92.5947 463.33,-136.452 479.37,-208.443 490.724,-259.401 504.001,-318.791 511.666,-353.061"/>
<polygon fill="black" stroke="black" points="508.35,-354.268 513.948,-363.263 515.181,-352.74 508.35,-354.268"/>
</g>
<!-- AS3320&#45;&gt;AS701 -->
<g id="edge25" class="edge"><title>AS3320&#45;&gt;AS701</title>
<path fill="none" stroke="black" d="M307.96,-448.104C324.377,-455.627 345.358,-465.241 362.955,-473.305"/>
<polygon fill="black" stroke="black" points="361.783,-476.618 372.332,-477.602 364.7,-470.254 361.783,-476.618"/>
</g>
<!-- AS3320&#45;&gt;AS1239 -->
<g id="edge24" class="edge"><title>AS3320&#45;&gt;AS1239</title>
<path fill="none" stroke="black" d="M319.244,-435.443C328.798,-435.443 339.147,-435.443 349.11,-435.443"/>
<polygon fill="black" stroke="black" points="349.302,-438.943 359.302,-435.443 349.302,-431.943 349.302,-438.943"/>
</g>
<!-- AS3257&#45;&gt;AS3491 -->
<g id="edge27" class="edge"><title>AS3257&#45;&gt;AS3491</title>
<path fill="none" stroke="black" d="M426.45,-529.987C432.46,-526.141 438.503,-521.578 443.37,-516.443 473.53,-484.624 495.641,-438.297 507.665,-409.028"/>
<polygon fill="black" stroke="black" points="511.036,-410.023 511.494,-399.438 504.535,-407.427 511.036,-410.023"/>
</g>
<!-- AS2497 -->
<g id="node20" class="node"><title>AS2497</title>
<g id="a_node20"><a xlink:href="/asn/2497" xlink:title="AS2497 ~ Internet Initiative Japan Inc. [JP]">
<ellipse fill="#ffffff" stroke="black" cx="519.017" cy="-543.443" rx="39.7935" ry="18"/>
<text text-anchor="middle" x="519.017" y="-539.743" font-family="Times,serif" font-size="14.00" fill="#2c94b3">AS2497</text>
</a>
</g>
</g>
<!-- AS3257&#45;&gt;AS2497 -->
<g id="edge26" class="edge"><title>AS3257&#45;&gt;AS2497</title>
<path fill="none" stroke="black" d="M439.087,-543.443C448.64,-543.443 458.99,-543.443 468.952,-543.443"/>
<polygon fill="black" stroke="black" points="469.145,-546.943 479.145,-543.443 469.145,-539.943 469.145,-546.943"/>
</g>
</g>
</svg>
