<?xml version="1.0" encoding="UTF-8" standalone="no"?>
<!DOCTYPE svg PUBLIC "-//W3C//DTD SVG 1.1//EN"
 "http://www.w3.org/Graphics/SVG/1.1/DTD/svg11.dtd">
<!-- Generated by graphviz version 2.38.0 (20140413.2041)
 -->
<!-- Title: AS20704 Combined Upstream Graph Pages: 1 -->
<svg width="567pt" height="942pt"
 viewBox="0.00 0.00 566.66 942.00" xmlns="http://www.w3.org/2000/svg" xmlns:xlink="http://www.w3.org/1999/xlink">
<g id="graph0" class="graph" transform="scale(1 1) rotate(0) translate(4 938)">
<title>AS20704 Combined Upstream Graph</title>
<polygon fill="white" stroke="none" points="-4,4 -4,-938 562.663,-938 562.663,4 -4,4"/>
<!-- AS20704 -->
<g id="node1" class="node"><title>AS20704</title>
<g id="a_node1"><a xlink:href="/asn/20704" xlink:title="AS20704 ~ Hirschstettnerstr. 19&#45;21 L1 [AT]">
<ellipse fill="#ffffff" stroke="black" cx="44.1961" cy="-470" rx="44.393" ry="18"/>
<text text-anchor="middle" x="44.1961" y="-466.3" font-family="Times,serif" font-size="14.00" fill="#880000">AS20704</text>
</a>
</g>
</g>
<!-- AS1764 -->
<g id="node2" class="node"><title>AS1764</title>
<g id="a_node2"><a xlink:href="/asn/1764" xlink:title="AS1764 ~ NEXTLAYER&#45;AS [AT]">
<ellipse fill="#ffffff" stroke="black" cx="164.039" cy="-659" rx="39.7935" ry="18"/>
<text text-anchor="middle" x="164.039" y="-655.3" font-family="Times,serif" font-size="14.00" fill="#2c94b3">AS1764</text>
</a>
</g>
</g>
<!-- AS20704&#45;&gt;AS1764 -->
<g id="edge1" class="edge"><title>AS20704&#45;&gt;AS1764</title>
<path fill="none" stroke="black" stroke-width="4.5" d="M56.0712,-487.442C76.8545,-520.775 122.315,-593.686 146.744,-632.866"/>
<polygon fill="black" stroke="black" stroke-width="4.5" points="143.558,-635.198 152.19,-641.6 150.24,-631.031 143.558,-635.198"/>
</g>
<!-- AS8220 -->
<g id="node3" class="node"><title>AS8220</title>
<g id="a_node3"><a xlink:href="/asn/8220" xlink:title="AS8220 ~ COLT [GB]">
<ellipse fill="#ffffff" stroke="black" cx="164.039" cy="-470" rx="39.7935" ry="18"/>
<text text-anchor="middle" x="164.039" y="-466.3" font-family="Times,serif" font-size="14.00" fill="#2c94b3">AS8220</text>
</a>
</g>
</g>
<!-- AS20704&#45;&gt;AS8220 -->
<g id="edge2" class="edge"><title>AS20704&#45;&gt;AS8220</title>
<path fill="none" stroke="black" stroke-width="3.98077" d="M88.4072,-470C96.7198,-470 105.482,-470 113.965,-470"/>
<polygon fill="black" stroke="black" stroke-width="3.98077" points="114.123,-473.5 124.123,-470 114.123,-466.5 114.123,-473.5"/>
</g>
<!-- AS6939 -->
<g id="node4" class="node"><title>AS6939</title>
<g id="a_node4"><a xlink:href="/asn/6939" xlink:title="AS6939 ~ Hurricane Electric LLC [US]">
<ellipse fill="#ffffff" stroke="black" cx="279.332" cy="-186" rx="39.7935" ry="18"/>
<text text-anchor="middle" x="279.332" y="-182.3" font-family="Times,serif" font-size="14.00" fill="#2c94b3">AS6939</text>
</a>
</g>
</g>
<!-- AS20704&#45;&gt;AS6939 -->
<g id="edge3" class="edge"><title>AS20704&#45;&gt;AS6939</title>
<path fill="none" stroke="black" stroke-width="1.38462" d="M59.4288,-452.662C99.2054,-404.207 211.646,-267.235 257.984,-210.787"/>
<polygon fill="black" stroke="black" stroke-width="1.38462" points="260.939,-212.703 264.579,-202.753 255.528,-208.262 260.939,-212.703"/>
</g>
<!-- AS8218 -->
<g id="node5" class="node"><title>AS8218</title>
<g id="a_node5"><a xlink:href="/asn/8218" xlink:title="AS8218 ~ legacy Neotelecoms [FR]">
<ellipse fill="#ffffff" stroke="black" cx="279.332" cy="-898" rx="39.7935" ry="18"/>
<text text-anchor="middle" x="279.332" y="-894.3" font-family="Times,serif" font-size="14.00" fill="#2c94b3">AS8218</text>
</a>
</g>
</g>
<!-- AS1764&#45;&gt;AS8218 -->
<g id="edge4" class="edge"><title>AS1764&#45;&gt;AS8218</title>
<path fill="none" stroke="black" stroke-width="1.5" d="M173.369,-676.574C193.011,-718.01 242.318,-822.027 265.679,-871.308"/>
<polygon fill="black" stroke="black" stroke-width="1.5" points="262.543,-872.863 269.989,-880.4 268.868,-869.865 262.543,-872.863"/>
</g>
<!-- AS1299 -->
<g id="node6" class="node"><title>AS1299</title>
<g id="a_node6"><a xlink:href="/asn/1299" xlink:title="AS1299 ~ Telia Carrier [EU]">
<ellipse fill="#ffffff" stroke="black" cx="279.332" cy="-617" rx="39.7935" ry="18"/>
<text text-anchor="middle" x="279.332" y="-613.3" font-family="Times,serif" font-size="14.00" fill="#2c94b3">AS1299</text>
</a>
</g>
</g>
<!-- AS1764&#45;&gt;AS1299 -->
<g id="edge5" class="edge"><title>AS1764&#45;&gt;AS1299</title>
<path fill="none" stroke="black" stroke-width="2.25" d="M195.399,-647.745C208.606,-642.849 224.263,-637.044 238.396,-631.805"/>
<polygon fill="black" stroke="black" stroke-width="2.25" points="239.728,-635.044 247.887,-628.286 237.294,-628.481 239.728,-635.044"/>
</g>
<!-- AS3356 -->
<g id="node7" class="node"><title>AS3356</title>
<g id="a_node7"><a xlink:href="/asn/3356" xlink:title="AS3356 ~ Level 3 Parent, LLC [US]">
<ellipse fill="#ffffff" stroke="black" cx="279.332" cy="-470" rx="39.7935" ry="18"/>
<text text-anchor="middle" x="279.332" y="-466.3" font-family="Times,serif" font-size="14.00" fill="#2c94b3">AS3356</text>
</a>
</g>
</g>
<!-- AS1764&#45;&gt;AS3356 -->
<g id="edge6" class="edge"><title>AS1764&#45;&gt;AS3356</title>
<path fill="none" stroke="black" stroke-width="4.5" d="M175.494,-641.558C195.475,-608.225 239.18,-535.314 262.666,-496.134"/>
<polygon fill="black" stroke="black" stroke-width="4.5" points="266.137,-498.001 267.902,-487.4 259.383,-493.952 266.137,-498.001"/>
</g>
<!-- AS3257 -->
<g id="node8" class="node"><title>AS3257</title>
<g id="a_node8"><a xlink:href="/asn/3257" xlink:title="AS3257 ~ GTT [DE]">
<ellipse fill="#ffffff" stroke="black" cx="399.174" cy="-824" rx="39.7935" ry="18"/>
<text text-anchor="middle" x="399.174" y="-820.3" font-family="Times,serif" font-size="14.00" fill="#2c94b3">AS3257</text>
</a>
</g>
</g>
<!-- AS1764&#45;&gt;AS3257 -->
<g id="edge7" class="edge"><title>AS1764&#45;&gt;AS3257</title>
<path fill="none" stroke="black" stroke-width="3" d="M186.554,-674.227C228.471,-703.894 321.127,-769.47 368.71,-803.147"/>
<polygon fill="black" stroke="black" stroke-width="3" points="366.863,-806.128 377.048,-809.048 370.907,-800.414 366.863,-806.128"/>
</g>
<!-- AS2914 -->
<g id="node9" class="node"><title>AS2914</title>
<g id="a_node9"><a xlink:href="/asn/2914" xlink:title="AS2914 ~ NTT America, Inc. [US]">
<ellipse fill="#ffffff" stroke="black" cx="399.174" cy="-678" rx="39.7935" ry="18"/>
<text text-anchor="middle" x="399.174" y="-674.3" font-family="Times,serif" font-size="14.00" fill="#2c94b3">AS2914</text>
</a>
</g>
</g>
<!-- AS1764&#45;&gt;AS2914 -->
<g id="edge8" class="edge"><title>AS1764&#45;&gt;AS2914</title>
<path fill="none" stroke="black" stroke-width="2.25" d="M203.275,-662.116C243.338,-665.381 306.378,-670.519 349.858,-674.062"/>
<polygon fill="black" stroke="black" stroke-width="2.25" points="349.665,-677.558 359.917,-674.882 350.234,-670.581 349.665,-677.558"/>
</g>
<!-- AS3320 -->
<g id="node10" class="node"><title>AS3320</title>
<g id="a_node10"><a xlink:href="/asn/3320" xlink:title="AS3320 ~ DTAG [DE]">
<ellipse fill="#ffffff" stroke="black" cx="279.332" cy="-416" rx="39.7935" ry="18"/>
<text text-anchor="middle" x="279.332" y="-412.3" font-family="Times,serif" font-size="14.00" fill="#2c94b3">AS3320</text>
</a>
</g>
</g>
<!-- AS1764&#45;&gt;AS3320 -->
<g id="edge9" class="edge"><title>AS1764&#45;&gt;AS3320</title>
<path fill="none" stroke="black" stroke-width="3" d="M167.415,-641.014C173.389,-601.578 192.1,-506.005 239.685,-443 241.442,-440.673 243.459,-438.471 245.629,-436.404"/>
<polygon fill="black" stroke="black" stroke-width="3" points="247.987,-438.995 253.441,-429.912 243.513,-433.611 247.987,-438.995"/>
</g>
<!-- AS174 -->
<g id="node11" class="node"><title>AS174</title>
<g id="a_node11"><a xlink:href="/asn/174" xlink:title="AS174 ~ Cogent Communications [US]">
<ellipse fill="#ffffff" stroke="black" cx="399.174" cy="-732" rx="35.194" ry="18"/>
<text text-anchor="middle" x="399.174" y="-728.3" font-family="Times,serif" font-size="14.00" fill="#2c94b3">AS174</text>
</a>
</g>
</g>
<!-- AS1764&#45;&gt;AS174 -->
<g id="edge10" class="edge"><title>AS1764&#45;&gt;AS174</title>
<path fill="none" stroke="black" stroke-width="3" d="M197.455,-669.15C239.679,-682.372 313.444,-705.469 358.827,-719.679"/>
<polygon fill="black" stroke="black" stroke-width="3" points="358.021,-723.095 368.61,-722.743 360.113,-716.415 358.021,-723.095"/>
</g>
<!-- AS8220&#45;&gt;AS1299 -->
<g id="edge38" class="edge"><title>AS8220&#45;&gt;AS1299</title>
<path fill="none" stroke="black" stroke-width="4.5" d="M178.035,-486.863C197.819,-512.534 235.629,-561.593 258.752,-591.594"/>
<polygon fill="black" stroke="black" stroke-width="4.5" points="255.915,-594.364 265.138,-599.881 262.152,-589.557 255.915,-594.364"/>
</g>
<!-- AS8220&#45;&gt;AS3356 -->
<g id="edge40" class="edge"><title>AS8220&#45;&gt;AS3356</title>
<path fill="none" stroke="black" stroke-width="4" d="M203.711,-470C211.914,-470 220.678,-470 229.21,-470"/>
<polygon fill="black" stroke="black" stroke-width="4" points="229.449,-473.5 239.449,-470 229.449,-466.5 229.449,-473.5"/>
</g>
<!-- AS8220&#45;&gt;AS2914 -->
<g id="edge41" class="edge"><title>AS8220&#45;&gt;AS2914</title>
<path fill="none" stroke="black" stroke-width="0.5" d="M188.659,-484.358C220.954,-504.827 279.388,-544.944 318.978,-590 339.757,-613.648 333.004,-628.458 354.978,-651 357.602,-653.691 360.545,-656.233 363.629,-658.601"/>
<polygon fill="black" stroke="black" stroke-width="0.5" points="361.797,-661.591 372,-664.446 365.804,-655.851 361.797,-661.591"/>
</g>
<!-- AS8220&#45;&gt;AS3320 -->
<g id="edge43" class="edge"><title>AS8220&#45;&gt;AS3320</title>
<path fill="none" stroke="black" stroke-width="0.5" d="M192.175,-457.066C207.169,-449.919 225.99,-440.948 242.213,-433.215"/>
<polygon fill="black" stroke="black" stroke-width="0.5" points="243.895,-436.291 251.417,-428.829 240.884,-429.972 243.895,-436.291"/>
</g>
<!-- AS6461 -->
<g id="node12" class="node"><title>AS6461</title>
<g id="a_node12"><a xlink:href="/asn/6461" xlink:title="AS6461 ~ Zayo Bandwidth [US]">
<ellipse fill="#ffffff" stroke="black" cx="399.174" cy="-916" rx="39.7935" ry="18"/>
<text text-anchor="middle" x="399.174" y="-912.3" font-family="Times,serif" font-size="14.00" fill="#2c94b3">AS6461</text>
</a>
</g>
</g>
<!-- AS8220&#45;&gt;AS6461 -->
<g id="edge42" class="edge"><title>AS8220&#45;&gt;AS6461</title>
<path fill="none" stroke="black" stroke-width="0.5" d="M170.925,-488.072C190.661,-547.041 258.707,-737.768 354.978,-872 360.18,-879.253 366.575,-886.448 372.835,-892.855"/>
<polygon fill="black" stroke="black" stroke-width="0.5" points="370.466,-895.434 380.041,-899.969 375.383,-890.453 370.466,-895.434"/>
</g>
<!-- AS6453 -->
<g id="node14" class="node"><title>AS6453</title>
<g id="a_node14"><a xlink:href="/asn/6453" xlink:title="AS6453 ~ TATA COMMUNICATIONS (AMERICA) INC [US]">
<ellipse fill="#ffffff" stroke="black" cx="399.174" cy="-186" rx="39.7935" ry="18"/>
<text text-anchor="middle" x="399.174" y="-182.3" font-family="Times,serif" font-size="14.00" fill="#2c94b3">AS6453</text>
</a>
</g>
</g>
<!-- AS8220&#45;&gt;AS6453 -->
<g id="edge39" class="edge"><title>AS8220&#45;&gt;AS6453</title>
<path fill="none" stroke="black" stroke-width="0.5" d="M180.234,-453.542C208.767,-422.319 271.737,-351.889 318.978,-288 336.57,-264.209 336.775,-255.326 354.978,-232 360.791,-224.551 367.59,-216.9 374.052,-210.028"/>
<polygon fill="black" stroke="black" stroke-width="0.5" points="376.997,-212.014 381.402,-202.378 371.949,-207.164 376.997,-212.014"/>
</g>
<!-- AS5511 -->
<g id="node23" class="node"><title>AS5511</title>
<g id="a_node23"><a xlink:href="/asn/5511" xlink:title="AS5511 ~ Orange S.A. [FR]">
<ellipse fill="#ffffff" stroke="black" cx="279.332" cy="-261" rx="39.7935" ry="18"/>
<text text-anchor="middle" x="279.332" y="-257.3" font-family="Times,serif" font-size="14.00" fill="#2c94b3">AS5511</text>
</a>
</g>
</g>
<!-- AS8220&#45;&gt;AS5511 -->
<g id="edge37" class="edge"><title>AS8220&#45;&gt;AS5511</title>
<path fill="none" stroke="black" d="M172.309,-452.143C184.626,-422.575 211.061,-361.951 239.685,-314 245.289,-304.613 252.124,-294.813 258.48,-286.23"/>
<polygon fill="black" stroke="black" points="261.377,-288.202 264.612,-278.113 255.791,-283.982 261.377,-288.202"/>
</g>
<!-- AS2497 -->
<g id="node13" class="node"><title>AS2497</title>
<g id="a_node13"><a xlink:href="/asn/2497" xlink:title="AS2497 ~ Internet Initiative Japan Inc. [JP]">
<ellipse fill="#ffffff" stroke="black" cx="519.017" cy="-814" rx="39.7935" ry="18"/>
<text text-anchor="middle" x="519.017" y="-810.3" font-family="Times,serif" font-size="14.00" fill="#2c94b3">AS2497</text>
</a>
</g>
</g>
<!-- AS6939&#45;&gt;AS2497 -->
<g id="edge52" class="edge"><title>AS6939&#45;&gt;AS2497</title>
<path fill="none" stroke="black" d="M303.511,-171.719C338.633,-152.098 405.269,-123.084 443.37,-159 492.695,-205.495 454.297,-705.023 479.37,-768 482.517,-775.904 487.582,-783.441 493.023,-790.042"/>
<polygon fill="black" stroke="black" points="490.73,-792.73 500,-797.861 495.953,-788.069 490.73,-792.73"/>
</g>
<!-- AS6939&#45;&gt;AS6453 -->
<g id="edge45" class="edge"><title>AS6939&#45;&gt;AS6453</title>
<path fill="none" stroke="black" d="M319.244,-186C328.798,-186 339.147,-186 349.11,-186"/>
<polygon fill="black" stroke="black" points="349.302,-189.5 359.302,-186 349.302,-182.5 349.302,-189.5"/>
</g>
<!-- AS6762 -->
<g id="node16" class="node"><title>AS6762</title>
<g id="a_node16"><a xlink:href="/asn/6762" xlink:title="AS6762 ~ TELECOM ITALIA SPARKLE S.p.A. [IT]">
<ellipse fill="#ffffff" stroke="black" cx="519.017" cy="-378" rx="39.7935" ry="18"/>
<text text-anchor="middle" x="519.017" y="-374.3" font-family="Times,serif" font-size="14.00" fill="#2c94b3">AS6762</text>
</a>
</g>
</g>
<!-- AS6939&#45;&gt;AS6762 -->
<g id="edge49" class="edge"><title>AS6939&#45;&gt;AS6762</title>
<path fill="none" stroke="black" d="M287.763,-168.166C298.615,-144.763 321.248,-104.708 354.978,-88 390.181,-70.562 412.321,-63.9311 443.37,-88 485.016,-120.284 507.513,-283.279 515.074,-349.734"/>
<polygon fill="black" stroke="black" points="511.62,-350.342 516.198,-359.896 518.577,-349.572 511.62,-350.342"/>
</g>
<!-- AS701 -->
<g id="node18" class="node"><title>AS701</title>
<g id="a_node18"><a xlink:href="/asn/701" xlink:title="AS701 ~ UUNET [US]">
<ellipse fill="#ffffff" stroke="black" cx="399.174" cy="-278" rx="35.194" ry="18"/>
<text text-anchor="middle" x="399.174" y="-274.3" font-family="Times,serif" font-size="14.00" fill="#2c94b3">AS701</text>
</a>
</g>
</g>
<!-- AS6939&#45;&gt;AS701 -->
<g id="edge47" class="edge"><title>AS6939&#45;&gt;AS701</title>
<path fill="none" stroke="black" d="M300.056,-201.399C319.491,-216.572 349.339,-239.875 371.012,-256.794"/>
<polygon fill="black" stroke="black" points="369.131,-259.766 379.167,-263.161 373.439,-254.249 369.131,-259.766"/>
</g>
<!-- AS3491 -->
<g id="node20" class="node"><title>AS3491</title>
<g id="a_node20"><a xlink:href="/asn/3491" xlink:title="AS3491 ~ PCCW Global, Inc. [US]">
<ellipse fill="#ffffff" stroke="black" cx="519.017" cy="-741" rx="39.7935" ry="18"/>
<text text-anchor="middle" x="519.017" y="-737.3" font-family="Times,serif" font-size="14.00" fill="#2c94b3">AS3491</text>
</a>
</g>
</g>
<!-- AS6939&#45;&gt;AS3491 -->
<g id="edge50" class="edge"><title>AS6939&#45;&gt;AS3491</title>
<path fill="none" stroke="black" d="M294.669,-169.348C308.432,-154.749 330.669,-134.559 354.978,-126 392.034,-112.954 413.965,-99.9483 443.37,-126 446.173,-128.483 500.635,-592.45 514.716,-712.769"/>
<polygon fill="black" stroke="black" points="511.276,-713.483 515.914,-723.008 518.228,-712.669 511.276,-713.483"/>
</g>
<!-- AS7018 -->
<g id="node21" class="node"><title>AS7018</title>
<g id="a_node21"><a xlink:href="/asn/7018" xlink:title="AS7018 ~ AT&amp;T Services, Inc. [US]">
<ellipse fill="#ffffff" stroke="black" cx="399.174" cy="-570" rx="39.7935" ry="18"/>
<text text-anchor="middle" x="399.174" y="-566.3" font-family="Times,serif" font-size="14.00" fill="#2c94b3">AS7018</text>
</a>
</g>
</g>
<!-- AS6939&#45;&gt;AS7018 -->
<g id="edge51" class="edge"><title>AS6939&#45;&gt;AS7018</title>
<path fill="none" stroke="black" d="M297.262,-202.222C305.213,-210.873 314.015,-222.16 318.978,-234 372.428,-361.513 281.059,-426.156 354.978,-543 356.822,-545.915 359.107,-548.568 361.655,-550.972"/>
<polygon fill="black" stroke="black" points="359.885,-554.031 369.914,-557.447 364.204,-548.523 359.885,-554.031"/>
</g>
<!-- AS209 -->
<g id="node22" class="node"><title>AS209</title>
<g id="a_node22"><a xlink:href="/asn/209" xlink:title="AS209 ~ CenturyLink Communications, LLC [US]">
<ellipse fill="#ffffff" stroke="black" cx="399.174" cy="-516" rx="35.194" ry="18"/>
<text text-anchor="middle" x="399.174" y="-512.3" font-family="Times,serif" font-size="14.00" fill="#2c94b3">AS209</text>
</a>
</g>
</g>
<!-- AS6939&#45;&gt;AS209 -->
<g id="edge46" class="edge"><title>AS6939&#45;&gt;AS209</title>
<path fill="none" stroke="black" d="M297.02,-202.327C304.91,-211.004 313.73,-222.283 318.978,-234 358.943,-323.221 319.128,-360.048 354.978,-451 360.6,-465.264 369.692,-479.618 378.087,-491.195"/>
<polygon fill="black" stroke="black" points="375.495,-493.571 384.303,-499.459 381.09,-489.364 375.495,-493.571"/>
</g>
<!-- AS1273 -->
<g id="node24" class="node"><title>AS1273</title>
<g id="a_node24"><a xlink:href="/asn/1273" xlink:title="AS1273 ~ Vodafone Group PLC [EU]">
<ellipse fill="#ffffff" stroke="black" cx="399.174" cy="-18" rx="39.7935" ry="18"/>
<text text-anchor="middle" x="399.174" y="-14.3" font-family="Times,serif" font-size="14.00" fill="#2c94b3">AS1273</text>
</a>
</g>
</g>
<!-- AS6939&#45;&gt;AS1273 -->
<g id="edge48" class="edge"><title>AS6939&#45;&gt;AS1273</title>
<path fill="none" stroke="black" d="M287.173,-168.189C298.349,-140.674 322.567,-87.1339 354.978,-50 358.419,-46.058 362.424,-42.3079 366.582,-38.8547"/>
<polygon fill="black" stroke="black" points="368.889,-41.495 374.656,-32.6075 364.605,-35.9585 368.889,-41.495"/>
</g>
<!-- AS8218&#45;&gt;AS6461 -->
<g id="edge11" class="edge"><title>AS8218&#45;&gt;AS6461</title>
<path fill="none" stroke="black" stroke-width="2" d="M317.294,-903.646C328.044,-905.288 339.931,-907.104 351.208,-908.826"/>
<polygon fill="black" stroke="black" stroke-width="2" points="350.929,-912.324 361.343,-910.374 351.986,-905.404 350.929,-912.324"/>
</g>
<!-- AS1299&#45;&gt;AS3257 -->
<g id="edge33" class="edge"><title>AS1299&#45;&gt;AS3257</title>
<path fill="none" stroke="black" d="M302.729,-631.552C308.776,-636.446 314.794,-642.37 318.978,-649 353.953,-704.426 318.52,-737.538 354.978,-792 357.889,-796.348 361.596,-800.326 365.612,-803.888"/>
<polygon fill="black" stroke="black" points="363.576,-806.741 373.586,-810.213 367.926,-801.256 363.576,-806.741"/>
</g>
<!-- AS1299&#45;&gt;AS2914 -->
<g id="edge35" class="edge"><title>AS1299&#45;&gt;AS2914</title>
<path fill="none" stroke="black" d="M306.193,-630.387C323.001,-639.087 345.116,-650.535 363.449,-660.025"/>
<polygon fill="black" stroke="black" points="361.884,-663.156 372.373,-664.645 365.102,-656.939 361.884,-663.156"/>
</g>
<!-- AS1299&#45;&gt;AS174 -->
<g id="edge34" class="edge"><title>AS1299&#45;&gt;AS174</title>
<path fill="none" stroke="black" d="M301.047,-632.188C307.176,-637.183 313.662,-643.003 318.978,-649 338.605,-671.141 333.924,-684.211 354.978,-705 358.18,-708.161 361.815,-711.132 365.585,-713.864"/>
<polygon fill="black" stroke="black" points="363.677,-716.799 373.937,-719.443 367.565,-710.978 363.677,-716.799"/>
</g>
<!-- AS1299&#45;&gt;AS2497 -->
<g id="edge30" class="edge"><title>AS1299&#45;&gt;AS2497</title>
<path fill="none" stroke="black" d="M303.43,-631.7C309.344,-636.527 315.118,-642.377 318.978,-649 364.904,-727.783 285.067,-792.447 354.978,-851 392.825,-882.698 452.35,-855.943 488.041,-834.415"/>
<polygon fill="black" stroke="black" points="489.941,-837.355 496.574,-829.093 486.237,-831.416 489.941,-837.355"/>
</g>
<!-- AS1239 -->
<g id="node19" class="node"><title>AS1239</title>
<g id="a_node19"><a xlink:href="/asn/1239" xlink:title="AS1239 ~ Sprint [US]">
<ellipse fill="#ffffff" stroke="black" cx="399.174" cy="-624" rx="39.7935" ry="18"/>
<text text-anchor="middle" x="399.174" y="-620.3" font-family="Times,serif" font-size="14.00" fill="#2c94b3">AS1239</text>
</a>
</g>
</g>
<!-- AS1299&#45;&gt;AS1239 -->
<g id="edge31" class="edge"><title>AS1299&#45;&gt;AS1239</title>
<path fill="none" stroke="black" d="M318.918,-619.292C328.684,-619.872 339.301,-620.503 349.495,-621.108"/>
<polygon fill="black" stroke="black" points="349.311,-624.604 359.501,-621.703 349.727,-617.616 349.311,-624.604"/>
</g>
<!-- AS1299&#45;&gt;AS3491 -->
<g id="edge32" class="edge"><title>AS1299&#45;&gt;AS3491</title>
<path fill="none" stroke="black" d="M302.441,-631.741C308.48,-636.641 314.566,-642.52 318.978,-649 347.928,-691.521 313.33,-728.808 354.978,-759 391.859,-785.736 446.306,-772.032 481.967,-757.988"/>
<polygon fill="black" stroke="black" points="483.591,-761.104 491.497,-754.051 480.918,-754.634 483.591,-761.104"/>
</g>
<!-- AS1299&#45;&gt;AS7018 -->
<g id="edge29" class="edge"><title>AS1299&#45;&gt;AS7018</title>
<path fill="none" stroke="black" stroke-width="2" d="M309.764,-605.261C324.668,-599.317 342.964,-592.02 359.038,-585.609"/>
<polygon fill="black" stroke="black" stroke-width="2" points="360.716,-588.708 368.708,-581.752 358.123,-582.206 360.716,-588.708"/>
</g>
<!-- AS1299&#45;&gt;AS209 -->
<g id="edge36" class="edge"><title>AS1299&#45;&gt;AS209</title>
<path fill="none" stroke="black" d="M295.111,-600.34C309.532,-584.59 332.519,-560.788 354.978,-543 358.505,-540.207 362.336,-537.457 366.211,-534.844"/>
<polygon fill="black" stroke="black" points="368.167,-537.748 374.664,-529.379 364.366,-531.87 368.167,-537.748"/>
</g>
<!-- AS3356&#45;&gt;AS3257 -->
<g id="edge17" class="edge"><title>AS3356&#45;&gt;AS3257</title>
<path fill="none" stroke="black" d="M286.665,-487.723C294.835,-510.99 309.161,-553.204 318.978,-590 338.775,-664.201 325.199,-688.212 354.978,-759 360.881,-773.033 369.924,-787.269 378.213,-798.827"/>
<polygon fill="black" stroke="black" points="375.574,-801.144 384.34,-807.095 381.198,-796.977 375.574,-801.144"/>
</g>
<!-- AS3356&#45;&gt;AS2914 -->
<g id="edge18" class="edge"><title>AS3356&#45;&gt;AS2914</title>
<path fill="none" stroke="black" d="M294.052,-486.769C302.239,-497.459 312.305,-511.907 318.978,-526 343.72,-578.252 320.161,-604.846 354.978,-651 357.242,-654.001 359.944,-656.749 362.877,-659.246"/>
<polygon fill="black" stroke="black" points="360.914,-662.148 371.038,-665.271 365.072,-656.516 360.914,-662.148"/>
</g>
<!-- AS3356&#45;&gt;AS2497 -->
<g id="edge12" class="edge"><title>AS3356&#45;&gt;AS2497</title>
<path fill="none" stroke="black" d="M315.824,-462.825C352.912,-457.588 410.222,-456.258 443.37,-489 487.846,-532.931 454.249,-710.756 479.37,-768 482.789,-775.79 487.952,-783.286 493.401,-789.884"/>
<polygon fill="black" stroke="black" points="491.093,-792.556 500.346,-797.716 496.33,-787.912 491.093,-792.556"/>
</g>
<!-- AS3356&#45;&gt;AS6453 -->
<g id="edge13" class="edge"><title>AS3356&#45;&gt;AS6453</title>
<path fill="none" stroke="black" d="M305.779,-456.477C310.828,-452.729 315.605,-448.226 318.978,-443 366.06,-370.055 322.296,-331.434 354.978,-251 360.709,-236.896 369.73,-222.651 378.05,-211.106"/>
<polygon fill="black" stroke="black" points="381.034,-212.959 384.209,-202.851 375.424,-208.773 381.034,-212.959"/>
</g>
<!-- AS3549 -->
<g id="node15" class="node"><title>AS3549</title>
<g id="a_node15"><a xlink:href="/asn/3549" xlink:title="AS3549 ~ Level 3 Parent, LLC [US]">
<ellipse fill="#ffffff" stroke="black" cx="399.174" cy="-424" rx="39.7935" ry="18"/>
<text text-anchor="middle" x="399.174" y="-420.3" font-family="Times,serif" font-size="14.00" fill="#2c94b3">AS3549</text>
</a>
</g>
</g>
<!-- AS3356&#45;&gt;AS3549 -->
<g id="edge14" class="edge"><title>AS3356&#45;&gt;AS3549</title>
<path fill="none" stroke="black" stroke-width="2" d="M310.068,-458.392C324.862,-452.618 342.939,-445.561 358.861,-439.346"/>
<polygon fill="black" stroke="black" stroke-width="2" points="360.404,-442.501 368.447,-435.604 357.859,-435.98 360.404,-442.501"/>
</g>
<!-- AS3356&#45;&gt;AS6762 -->
<g id="edge15" class="edge"><title>AS3356&#45;&gt;AS6762</title>
<path fill="none" stroke="black" stroke-width="2" d="M303.274,-455.647C308.668,-451.828 314.224,-447.503 318.978,-443 337.826,-425.147 332.338,-409.705 354.978,-397 389.886,-377.41 435.573,-373.598 469.7,-374.147"/>
<polygon fill="black" stroke="black" stroke-width="2" points="469.797,-377.651 479.895,-374.445 470.002,-370.654 469.797,-377.651"/>
</g>
<!-- AS12956 -->
<g id="node17" class="node"><title>AS12956</title>
<g id="a_node17"><a xlink:href="/asn/12956" xlink:title="AS12956 ~ TELXIUS [ES]">
<ellipse fill="#ffffff" stroke="black" cx="399.174" cy="-332" rx="44.393" ry="18"/>
<text text-anchor="middle" x="399.174" y="-328.3" font-family="Times,serif" font-size="14.00" fill="#2c94b3">AS12956</text>
</a>
</g>
</g>
<!-- AS3356&#45;&gt;AS12956 -->
<g id="edge16" class="edge"><title>AS3356&#45;&gt;AS12956</title>
<path fill="none" stroke="black" d="M304.879,-455.816C309.975,-452.102 314.998,-447.78 318.978,-443 343.666,-413.347 330.704,-393.993 354.978,-364 358.046,-360.209 361.661,-356.633 365.472,-353.342"/>
<polygon fill="black" stroke="black" points="367.797,-355.964 373.457,-347.008 363.447,-350.48 367.797,-355.964"/>
</g>
<!-- AS3356&#45;&gt;AS701 -->
<g id="edge19" class="edge"><title>AS3356&#45;&gt;AS701</title>
<path fill="none" stroke="black" d="M305.512,-456.298C310.575,-452.559 315.424,-448.105 318.978,-443 355.19,-390.976 317.447,-356.08 354.978,-305 357.511,-301.552 360.629,-298.444 364.021,-295.669"/>
<polygon fill="black" stroke="black" points="366.16,-298.443 372.285,-289.798 362.106,-292.736 366.16,-298.443"/>
</g>
<!-- AS3356&#45;&gt;AS1239 -->
<g id="edge20" class="edge"><title>AS3356&#45;&gt;AS1239</title>
<path fill="none" stroke="black" d="M293.138,-487.256C300.98,-498.129 311.006,-512.599 318.978,-526 337.067,-556.406 331.103,-570.89 354.978,-597 357.514,-599.774 360.399,-602.371 363.447,-604.773"/>
<polygon fill="black" stroke="black" points="361.583,-607.742 371.767,-610.666 365.629,-602.03 361.583,-607.742"/>
</g>
<!-- AS3257&#45;&gt;AS2497 -->
<g id="edge22" class="edge"><title>AS3257&#45;&gt;AS2497</title>
<path fill="none" stroke="black" d="M438.434,-820.753C448.414,-819.906 459.3,-818.983 469.726,-818.098"/>
<polygon fill="black" stroke="black" points="470.28,-821.564 479.949,-817.23 469.688,-814.589 470.28,-821.564"/>
</g>
<!-- AS3257&#45;&gt;AS3491 -->
<g id="edge21" class="edge"><title>AS3257&#45;&gt;AS3491</title>
<path fill="none" stroke="black" d="M421.515,-808.969C440.169,-795.831 467.448,-776.617 488.248,-761.967"/>
<polygon fill="black" stroke="black" points="490.277,-764.819 496.437,-756.199 486.246,-759.096 490.277,-764.819"/>
</g>
<!-- AS2914&#45;&gt;AS6762 -->
<g id="edge23" class="edge"><title>AS2914&#45;&gt;AS6762</title>
<path fill="none" stroke="black" d="M427.364,-665.312C433.346,-661.442 439.148,-656.677 443.37,-651 499.749,-575.203 513.548,-459.282 516.924,-406.252"/>
<polygon fill="black" stroke="black" points="520.421,-406.4 517.484,-396.221 513.432,-406.01 520.421,-406.4"/>
</g>
<!-- AS3320&#45;&gt;AS6762 -->
<g id="edge26" class="edge"><title>AS3320&#45;&gt;AS6762</title>
<path fill="none" stroke="black" d="M290.071,-398.614C298.221,-383.778 309.935,-361.77 318.978,-342 337.07,-302.447 319.008,-275.452 354.978,-251 387.467,-228.914 409.272,-231.49 443.37,-251 480.466,-272.225 500.939,-319.856 510.684,-350.374"/>
<polygon fill="black" stroke="black" points="507.35,-351.44 513.587,-360.005 514.052,-349.421 507.35,-351.44"/>
</g>
<!-- AS3320&#45;&gt;AS701 -->
<g id="edge24" class="edge"><title>AS3320&#45;&gt;AS701</title>
<path fill="none" stroke="black" d="M289.248,-398.18C301.61,-374.749 325.765,-333.253 354.978,-305 358.212,-301.872 361.867,-298.921 365.647,-296.2"/>
<polygon fill="black" stroke="black" points="367.626,-299.088 374.009,-290.632 363.746,-293.261 367.626,-299.088"/>
</g>
<!-- AS3320&#45;&gt;AS1239 -->
<g id="edge25" class="edge"><title>AS3320&#45;&gt;AS1239</title>
<path fill="none" stroke="black" d="M305.609,-429.635C310.667,-433.378 315.49,-437.85 318.978,-443 358.394,-501.198 314.086,-539.829 354.978,-597 356.985,-599.805 359.382,-602.383 362.005,-604.736"/>
<polygon fill="black" stroke="black" points="360.312,-607.846 370.385,-611.13 364.558,-602.281 360.312,-607.846"/>
</g>
<!-- AS174&#45;&gt;AS6762 -->
<g id="edge28" class="edge"><title>AS174&#45;&gt;AS6762</title>
<path fill="none" stroke="black" d="M426.189,-720.293C432.64,-716.278 438.962,-711.198 443.37,-705 510.099,-611.192 518.282,-467.258 518.548,-406.562"/>
<polygon fill="black" stroke="black" points="522.047,-406.218 518.518,-396.228 515.048,-406.238 522.047,-406.218"/>
</g>
<!-- AS174&#45;&gt;AS3491 -->
<g id="edge27" class="edge"><title>AS174&#45;&gt;AS3491</title>
<path fill="none" stroke="black" d="M433.943,-734.579C444.99,-735.423 457.489,-736.377 469.406,-737.287"/>
<polygon fill="black" stroke="black" points="469.441,-740.8 479.679,-738.072 469.975,-733.821 469.441,-740.8"/>
</g>
<!-- AS5511&#45;&gt;AS6453 -->
<g id="edge44" class="edge"><title>AS5511&#45;&gt;AS6453</title>
<path fill="none" stroke="black" d="M303.053,-246.539C321.114,-235.045 346.583,-218.835 366.623,-206.081"/>
<polygon fill="black" stroke="black" points="368.564,-208.994 375.121,-200.672 364.805,-203.089 368.564,-208.994"/>
</g>
</g>
</svg>
