<?xml version="1.0" encoding="UTF-8" standalone="no"?>
<!DOCTYPE svg PUBLIC "-//W3C//DTD SVG 1.1//EN"
 "http://www.w3.org/Graphics/SVG/1.1/DTD/svg11.dtd">
<!-- Generated by graphviz version 2.38.0 (20140413.2041)
 -->
<!-- Title: AS210184 IPv4 Upstream Graph Pages: 1 -->
<svg width="450pt" height="476pt"
 viewBox="0.00 0.00 450.07 476.00" xmlns="http://www.w3.org/2000/svg" xmlns:xlink="http://www.w3.org/1999/xlink">
<g id="graph0" class="graph" transform="scale(1 1) rotate(0) translate(4 472)">
<title>AS210184 IPv4 Upstream Graph</title>
<polygon fill="white" stroke="none" points="-4,4 -4,-472 446.07,-472 446.07,4 -4,4"/>
<!-- AS210184 -->
<g id="node1" class="node"><title>AS210184</title>
<g id="a_node1"><a xlink:href="/asn/210184" xlink:title="AS210184 ~ Stadlmann GmbH [AT]">
<ellipse fill="#ffffff" stroke="black" cx="48.0957" cy="-139" rx="48.1917" ry="18"/>
<text text-anchor="middle" x="48.0957" y="-135.3" font-family="Times,serif" font-size="14.00" fill="#880000">AS210184</text>
</a>
</g>
</g>
<!-- AS8447 -->
<g id="node2" class="node"><title>AS8447</title>
<g id="a_node2"><a xlink:href="/asn/8447" xlink:title="AS8447 ~ A1 Telekom Austria AG [AT]">
<ellipse fill="#ffffff" stroke="black" cx="171.838" cy="-139" rx="39.7935" ry="18"/>
<text text-anchor="middle" x="171.838" y="-135.3" font-family="Times,serif" font-size="14.00" fill="#2c94b3">AS8447</text>
</a>
</g>
</g>
<!-- AS210184&#45;&gt;AS8447 -->
<g id="edge1" class="edge"><title>AS210184&#45;&gt;AS8447</title>
<path fill="none" stroke="black" stroke-width="4.5" d="M96.5131,-139C104.867,-139 113.577,-139 121.969,-139"/>
<polygon fill="black" stroke="black" stroke-width="4.5" points="122.004,-142.938 132.004,-139 122.004,-135.063 122.004,-142.938"/>
</g>
<!-- AS1299 -->
<g id="node3" class="node"><title>AS1299</title>
<g id="a_node3"><a xlink:href="/asn/1299" xlink:title="AS1299 ~ Telia Carrier [EU]">
<ellipse fill="#ffffff" stroke="black" cx="287.131" cy="-193" rx="39.7935" ry="18"/>
<text text-anchor="middle" x="287.131" y="-189.3" font-family="Times,serif" font-size="14.00" fill="#2c94b3">AS1299</text>
</a>
</g>
</g>
<!-- AS8447&#45;&gt;AS1299 -->
<g id="edge2" class="edge"><title>AS8447&#45;&gt;AS1299</title>
<path fill="none" stroke="black" stroke-width="3.9375" d="M199.974,-151.934C214.968,-159.081 233.789,-168.052 250.013,-175.785"/>
<polygon fill="black" stroke="black" stroke-width="3.9375" points="248.683,-179.028 259.216,-180.171 251.695,-172.709 248.683,-179.028"/>
</g>
<!-- AS3356 -->
<g id="node4" class="node"><title>AS3356</title>
<g id="a_node4"><a xlink:href="/asn/3356" xlink:title="AS3356 ~ Level 3 Parent, LLC [US]">
<ellipse fill="#ffffff" stroke="black" cx="287.131" cy="-274" rx="39.7935" ry="18"/>
<text text-anchor="middle" x="287.131" y="-270.3" font-family="Times,serif" font-size="14.00" fill="#2c94b3">AS3356</text>
</a>
</g>
</g>
<!-- AS8447&#45;&gt;AS3356 -->
<g id="edge3" class="edge"><title>AS8447&#45;&gt;AS3356</title>
<path fill="none" stroke="black" stroke-width="4.5" d="M186.958,-155.825C206.632,-179.269 242.436,-221.934 265.215,-249.076"/>
<polygon fill="black" stroke="black" stroke-width="4.5" points="262.389,-251.834 271.833,-256.963 268.421,-246.772 262.389,-251.834"/>
</g>
<!-- AS3320 -->
<g id="node5" class="node"><title>AS3320</title>
<g id="a_node5"><a xlink:href="/asn/3320" xlink:title="AS3320 ~ DTAG [DE]">
<ellipse fill="#ffffff" stroke="black" cx="287.131" cy="-139" rx="39.7935" ry="18"/>
<text text-anchor="middle" x="287.131" y="-135.3" font-family="Times,serif" font-size="14.00" fill="#2c94b3">AS3320</text>
</a>
</g>
</g>
<!-- AS8447&#45;&gt;AS3320 -->
<g id="edge4" class="edge"><title>AS8447&#45;&gt;AS3320</title>
<path fill="none" stroke="black" stroke-width="2.25" d="M211.51,-139C219.713,-139 228.477,-139 237.009,-139"/>
<polygon fill="black" stroke="black" stroke-width="2.25" points="237.248,-142.5 247.248,-139 237.248,-135.5 237.248,-142.5"/>
</g>
<!-- AS6461 -->
<g id="node6" class="node"><title>AS6461</title>
<g id="a_node6"><a xlink:href="/asn/6461" xlink:title="AS6461 ~ Zayo Bandwidth [US]">
<ellipse fill="#ffffff" stroke="black" cx="287.131" cy="-85" rx="39.7935" ry="18"/>
<text text-anchor="middle" x="287.131" y="-81.3" font-family="Times,serif" font-size="14.00" fill="#2c94b3">AS6461</text>
</a>
</g>
</g>
<!-- AS8447&#45;&gt;AS6461 -->
<g id="edge5" class="edge"><title>AS8447&#45;&gt;AS6461</title>
<path fill="none" stroke="black" stroke-width="0.5625" d="M199.974,-126.066C214.968,-118.919 233.789,-109.948 250.013,-102.215"/>
<polygon fill="black" stroke="black" stroke-width="0.5625" points="251.695,-105.291 259.216,-97.8288 248.683,-98.972 251.695,-105.291"/>
</g>
<!-- AS6762 -->
<g id="node7" class="node"><title>AS6762</title>
<g id="a_node7"><a xlink:href="/asn/6762" xlink:title="AS6762 ~ TELECOM ITALIA SPARKLE S.p.A. [IT]">
<ellipse fill="#ffffff" stroke="black" cx="287.131" cy="-31" rx="39.7935" ry="18"/>
<text text-anchor="middle" x="287.131" y="-27.3" font-family="Times,serif" font-size="14.00" fill="#2c94b3">AS6762</text>
</a>
</g>
</g>
<!-- AS8447&#45;&gt;AS6762 -->
<g id="edge6" class="edge"><title>AS8447&#45;&gt;AS6762</title>
<path fill="none" stroke="black" stroke-width="0.5625" d="M186.468,-122.183C200.751,-105.071 224.297,-78.2553 247.484,-58 249.95,-55.8462 252.589,-53.7062 255.286,-51.6284"/>
<polygon fill="black" stroke="black" stroke-width="0.5625" points="257.459,-54.3749 263.44,-45.6297 253.311,-48.7363 257.459,-54.3749"/>
</g>
<!-- AS2914 -->
<g id="node8" class="node"><title>AS2914</title>
<g id="a_node8"><a xlink:href="/asn/2914" xlink:title="AS2914 ~ NTT America, Inc. [US]">
<ellipse fill="#ffffff" stroke="black" cx="402.424" cy="-180" rx="39.7935" ry="18"/>
<text text-anchor="middle" x="402.424" y="-176.3" font-family="Times,serif" font-size="14.00" fill="#2c94b3">AS2914</text>
</a>
</g>
</g>
<!-- AS1299&#45;&gt;AS2914 -->
<g id="edge17" class="edge"><title>AS1299&#45;&gt;AS2914</title>
<path fill="none" stroke="black" d="M325.856,-188.671C334.837,-187.641 344.536,-186.528 353.893,-185.454"/>
<polygon fill="black" stroke="black" points="354.328,-188.927 363.864,-184.31 353.53,-181.973 354.328,-188.927"/>
</g>
<!-- AS2497 -->
<g id="node10" class="node"><title>AS2497</title>
<g id="a_node10"><a xlink:href="/asn/2497" xlink:title="AS2497 ~ Internet Initiative Japan Inc. [JP]">
<ellipse fill="#ffffff" stroke="black" cx="402.424" cy="-342" rx="39.7935" ry="18"/>
<text text-anchor="middle" x="402.424" y="-338.3" font-family="Times,serif" font-size="14.00" fill="#2c94b3">AS2497</text>
</a>
</g>
</g>
<!-- AS1299&#45;&gt;AS2497 -->
<g id="edge19" class="edge"><title>AS1299&#45;&gt;AS2497</title>
<path fill="none" stroke="black" d="M301.271,-210.105C309.05,-220.529 318.892,-234.255 326.777,-247 344.769,-276.081 340.128,-289.38 362.777,-315 364.759,-317.242 366.964,-319.394 369.286,-321.437"/>
<polygon fill="black" stroke="black" points="367.474,-324.466 377.487,-327.929 371.819,-318.978 367.474,-324.466"/>
</g>
<!-- AS3257 -->
<g id="node12" class="node"><title>AS3257</title>
<g id="a_node12"><a xlink:href="/asn/3257" xlink:title="AS3257 ~ GTT [DE]">
<ellipse fill="#ffffff" stroke="black" cx="402.424" cy="-288" rx="39.7935" ry="18"/>
<text text-anchor="middle" x="402.424" y="-284.3" font-family="Times,serif" font-size="14.00" fill="#2c94b3">AS3257</text>
</a>
</g>
</g>
<!-- AS1299&#45;&gt;AS3257 -->
<g id="edge18" class="edge"><title>AS1299&#45;&gt;AS3257</title>
<path fill="none" stroke="black" d="M304.775,-209.312C319.55,-223.51 341.963,-244.363 362.777,-261 365.481,-263.161 368.345,-265.344 371.244,-267.484"/>
<polygon fill="black" stroke="black" points="369.235,-270.35 379.398,-273.344 373.32,-264.666 369.235,-270.35"/>
</g>
<!-- AS174 -->
<g id="node13" class="node"><title>AS174</title>
<g id="a_node13"><a xlink:href="/asn/174" xlink:title="AS174 ~ Cogent Communications [US]">
<ellipse fill="#ffffff" stroke="black" cx="402.424" cy="-234" rx="35.194" ry="18"/>
<text text-anchor="middle" x="402.424" y="-230.3" font-family="Times,serif" font-size="14.00" fill="#2c94b3">AS174</text>
</a>
</g>
</g>
<!-- AS1299&#45;&gt;AS174 -->
<g id="edge16" class="edge"><title>AS1299&#45;&gt;AS174</title>
<path fill="none" stroke="black" d="M318.79,-204.095C332.527,-209.067 348.867,-214.98 363.376,-220.231"/>
<polygon fill="black" stroke="black" points="362.48,-223.628 373.074,-223.74 364.862,-217.046 362.48,-223.628"/>
</g>
<!-- AS1239 -->
<g id="node15" class="node"><title>AS1239</title>
<g id="a_node15"><a xlink:href="/asn/1239" xlink:title="AS1239 ~ Sprint [US]">
<ellipse fill="#ffffff" stroke="black" cx="402.424" cy="-18" rx="39.7935" ry="18"/>
<text text-anchor="middle" x="402.424" y="-14.3" font-family="Times,serif" font-size="14.00" fill="#2c94b3">AS1239</text>
</a>
</g>
</g>
<!-- AS1299&#45;&gt;AS1239 -->
<g id="edge14" class="edge"><title>AS1299&#45;&gt;AS1239</title>
<path fill="none" stroke="black" d="M313.183,-179.207C318.253,-175.473 323.137,-171.044 326.777,-166 359.609,-120.502 329.945,-90.4984 362.777,-45 364.484,-42.6355 366.463,-40.4063 368.607,-38.3204"/>
<polygon fill="black" stroke="black" points="370.97,-40.9069 376.372,-31.7927 366.465,-35.5488 370.97,-40.9069"/>
</g>
<!-- AS7018 -->
<g id="node16" class="node"><title>AS7018</title>
<g id="a_node16"><a xlink:href="/asn/7018" xlink:title="AS7018 ~ AT&amp;T Services, Inc. [US]">
<ellipse fill="#ffffff" stroke="black" cx="402.424" cy="-72" rx="39.7935" ry="18"/>
<text text-anchor="middle" x="402.424" y="-68.3" font-family="Times,serif" font-size="14.00" fill="#2c94b3">AS7018</text>
</a>
</g>
</g>
<!-- AS1299&#45;&gt;AS7018 -->
<g id="edge15" class="edge"><title>AS1299&#45;&gt;AS7018</title>
<path fill="none" stroke="black" d="M312.046,-178.91C317.289,-175.14 322.534,-170.77 326.777,-166 349.245,-140.743 340.31,-124.257 362.777,-99 364.766,-96.7641 366.976,-94.6161 369.301,-92.5766"/>
<polygon fill="black" stroke="black" points="371.834,-95.0365 377.508,-86.0896 367.493,-89.5448 371.834,-95.0365"/>
</g>
<!-- AS3356&#45;&gt;AS2914 -->
<g id="edge7" class="edge"><title>AS3356&#45;&gt;AS2914</title>
<path fill="none" stroke="black" d="M305.106,-257.68C319.908,-243.716 342.177,-223.342 362.777,-207 365.489,-204.849 368.358,-202.672 371.26,-200.537"/>
<polygon fill="black" stroke="black" points="373.335,-203.356 379.42,-194.683 369.254,-197.669 373.335,-203.356"/>
</g>
<!-- AS3549 -->
<g id="node9" class="node"><title>AS3549</title>
<g id="a_node9"><a xlink:href="/asn/3549" xlink:title="AS3549 ~ Level 3 Parent, LLC [US]">
<ellipse fill="#ffffff" stroke="black" cx="402.424" cy="-396" rx="39.7935" ry="18"/>
<text text-anchor="middle" x="402.424" y="-392.3" font-family="Times,serif" font-size="14.00" fill="#2c94b3">AS3549</text>
</a>
</g>
</g>
<!-- AS3356&#45;&gt;AS3549 -->
<g id="edge8" class="edge"><title>AS3356&#45;&gt;AS3549</title>
<path fill="none" stroke="black" d="M299.451,-291.378C313.025,-311.444 337.17,-344.792 362.777,-369 365.156,-371.249 367.736,-373.454 370.394,-375.575"/>
<polygon fill="black" stroke="black" points="368.387,-378.444 378.488,-381.64 372.584,-372.843 368.387,-378.444"/>
</g>
<!-- AS3356&#45;&gt;AS2497 -->
<g id="edge9" class="edge"><title>AS3356&#45;&gt;AS2497</title>
<path fill="none" stroke="black" d="M311.881,-288.255C328.497,-298.229 350.894,-311.671 369.13,-322.617"/>
<polygon fill="black" stroke="black" points="367.33,-325.618 377.705,-327.764 370.932,-319.616 367.33,-325.618"/>
</g>
<!-- AS3491 -->
<g id="node11" class="node"><title>AS3491</title>
<g id="a_node11"><a xlink:href="/asn/3491" xlink:title="AS3491 ~ PCCW Global, Inc. [US]">
<ellipse fill="#ffffff" stroke="black" cx="402.424" cy="-450" rx="39.7935" ry="18"/>
<text text-anchor="middle" x="402.424" y="-446.3" font-family="Times,serif" font-size="14.00" fill="#2c94b3">AS3491</text>
</a>
</g>
</g>
<!-- AS3356&#45;&gt;AS3491 -->
<g id="edge10" class="edge"><title>AS3356&#45;&gt;AS3491</title>
<path fill="none" stroke="black" d="M293.929,-292.196C304.128,-322.077 327.589,-382.284 362.777,-423 364.734,-425.264 366.92,-427.432 369.23,-429.486"/>
<polygon fill="black" stroke="black" points="367.406,-432.507 377.409,-435.998 371.766,-427.031 367.406,-432.507"/>
</g>
<!-- AS3356&#45;&gt;AS3257 -->
<g id="edge11" class="edge"><title>AS3356&#45;&gt;AS3257</title>
<path fill="none" stroke="black" d="M325.541,-278.623C334.629,-279.746 344.466,-280.962 353.951,-282.134"/>
<polygon fill="black" stroke="black" points="353.699,-285.629 364.053,-283.382 354.558,-278.682 353.699,-285.629"/>
</g>
<!-- AS3356&#45;&gt;AS174 -->
<g id="edge12" class="edge"><title>AS3356&#45;&gt;AS174</title>
<path fill="none" stroke="black" d="M319.089,-263.07C332.716,-258.258 348.86,-252.559 363.226,-247.486"/>
<polygon fill="black" stroke="black" points="364.571,-250.723 372.835,-244.094 362.24,-244.123 364.571,-250.723"/>
</g>
<!-- AS701 -->
<g id="node14" class="node"><title>AS701</title>
<g id="a_node14"><a xlink:href="/asn/701" xlink:title="AS701 ~ UUNET [US]">
<ellipse fill="#ffffff" stroke="black" cx="402.424" cy="-126" rx="35.194" ry="18"/>
<text text-anchor="middle" x="402.424" y="-122.3" font-family="Times,serif" font-size="14.00" fill="#2c94b3">AS701</text>
</a>
</g>
</g>
<!-- AS3356&#45;&gt;AS701 -->
<g id="edge13" class="edge"><title>AS3356&#45;&gt;AS701</title>
<path fill="none" stroke="black" d="M301.242,-256.878C309.011,-246.447 318.853,-232.721 326.777,-220 344.651,-191.308 340.31,-178.257 362.777,-153 365.008,-150.493 367.515,-148.096 370.153,-145.839"/>
<polygon fill="black" stroke="black" points="372.554,-148.406 378.315,-139.514 368.266,-142.873 372.554,-148.406"/>
</g>
<!-- AS3320&#45;&gt;AS2914 -->
<g id="edge22" class="edge"><title>AS3320&#45;&gt;AS2914</title>
<path fill="none" stroke="black" d="M318.79,-150.095C331.762,-154.79 347.055,-160.324 360.936,-165.348"/>
<polygon fill="black" stroke="black" points="360.146,-168.784 370.741,-168.896 362.529,-162.202 360.146,-168.784"/>
</g>
<!-- AS3320&#45;&gt;AS701 -->
<g id="edge20" class="edge"><title>AS3320&#45;&gt;AS701</title>
<path fill="none" stroke="black" d="M325.856,-134.671C336.091,-133.497 347.256,-132.216 357.788,-131.007"/>
<polygon fill="black" stroke="black" points="358.514,-134.447 368.05,-129.83 357.716,-127.492 358.514,-134.447"/>
</g>
<!-- AS3320&#45;&gt;AS1239 -->
<g id="edge21" class="edge"><title>AS3320&#45;&gt;AS1239</title>
<path fill="none" stroke="black" d="M312.046,-124.91C317.289,-121.14 322.534,-116.77 326.777,-112 349.245,-86.7429 340.31,-70.2571 362.777,-45 364.766,-42.7641 366.976,-40.6161 369.301,-38.5766"/>
<polygon fill="black" stroke="black" points="371.834,-41.0365 377.508,-32.0896 367.493,-35.5448 371.834,-41.0365"/>
</g>
</g>
</svg>
