<?xml version="1.0" encoding="UTF-8" standalone="no"?>
<!DOCTYPE svg PUBLIC "-//W3C//DTD SVG 1.1//EN"
 "http://www.w3.org/Graphics/SVG/1.1/DTD/svg11.dtd">
<!-- Generated by graphviz version 2.38.0 (20140413.2041)
 -->
<!-- Title: AS13068 IPv4 Upstream Graph Pages: 1 -->
<svg width="442pt" height="550pt"
 viewBox="0.00 0.00 442.27 550.40" xmlns="http://www.w3.org/2000/svg" xmlns:xlink="http://www.w3.org/1999/xlink">
<g id="graph0" class="graph" transform="scale(1 1) rotate(0) translate(4 546.404)">
<title>AS13068 IPv4 Upstream Graph</title>
<polygon fill="white" stroke="none" points="-4,4 -4,-546.404 438.271,-546.404 438.271,4 -4,4"/>
<!-- AS13068 -->
<g id="node1" class="node"><title>AS13068</title>
<g id="a_node1"><a xlink:href="/asn/13068" xlink:title="AS13068 ~ Wiener Borse AG [AT]">
<ellipse fill="#ffffff" stroke="black" cx="44.1961" cy="-200.404" rx="44.393" ry="18"/>
<text text-anchor="middle" x="44.1961" y="-196.704" font-family="Times,serif" font-size="14.00" fill="#880000">AS13068</text>
</a>
</g>
</g>
<!-- AS8220 -->
<g id="node2" class="node"><title>AS8220</title>
<g id="a_node2"><a xlink:href="/asn/8220" xlink:title="AS8220 ~ COLT [GB]">
<ellipse fill="#ffffff" stroke="black" cx="164.039" cy="-146.404" rx="39.7935" ry="18"/>
<text text-anchor="middle" x="164.039" y="-142.704" font-family="Times,serif" font-size="14.00" fill="#2c94b3">AS8220</text>
</a>
</g>
</g>
<!-- AS13068&#45;&gt;AS8220 -->
<g id="edge1" class="edge"><title>AS13068&#45;&gt;AS8220</title>
<path fill="none" stroke="black" stroke-width="3.15" d="M74.3257,-187.055C89.9369,-179.902 109.335,-171.013 126.007,-163.373"/>
<polygon fill="black" stroke="black" stroke-width="3.15" points="127.826,-166.39 135.459,-159.042 124.91,-160.026 127.826,-166.39"/>
</g>
<!-- AS8447 -->
<g id="node3" class="node"><title>AS8447</title>
<g id="a_node3"><a xlink:href="/asn/8447" xlink:title="AS8447 ~ A1 Telekom Austria AG [AT]">
<ellipse fill="#ffffff" stroke="black" cx="164.039" cy="-281.404" rx="39.7935" ry="18"/>
<text text-anchor="middle" x="164.039" y="-277.704" font-family="Times,serif" font-size="14.00" fill="#2c94b3">AS8447</text>
</a>
</g>
</g>
<!-- AS13068&#45;&gt;AS8447 -->
<g id="edge2" class="edge"><title>AS13068&#45;&gt;AS8447</title>
<path fill="none" stroke="black" stroke-width="4.5" d="M67.6387,-215.83C86.22,-228.602 112.781,-246.859 133.161,-260.867"/>
<polygon fill="black" stroke="black" stroke-width="4.5" points="131.003,-264.162 141.475,-266.582 135.464,-257.672 131.003,-264.162"/>
</g>
<!-- AS1299 -->
<g id="node4" class="node"><title>AS1299</title>
<g id="a_node4"><a xlink:href="/asn/1299" xlink:title="AS1299 ~ Telia Carrier [EU]">
<ellipse fill="#ffffff" stroke="black" cx="279.332" cy="-254.404" rx="39.7935" ry="18"/>
<text text-anchor="middle" x="279.332" y="-250.704" font-family="Times,serif" font-size="14.00" fill="#2c94b3">AS1299</text>
</a>
</g>
</g>
<!-- AS8220&#45;&gt;AS1299 -->
<g id="edge3" class="edge"><title>AS8220&#45;&gt;AS1299</title>
<path fill="none" stroke="black" stroke-width="2" d="M178.669,-163.221C192.951,-180.333 216.498,-207.149 239.685,-227.404 242.151,-229.558 244.789,-231.698 247.487,-233.775"/>
<polygon fill="black" stroke="black" stroke-width="2" points="245.512,-236.667 255.641,-239.774 249.66,-231.029 245.512,-236.667"/>
</g>
<!-- AS2497 -->
<g id="node5" class="node"><title>AS2497</title>
<g id="a_node5"><a xlink:href="/asn/2497" xlink:title="AS2497 ~ Internet Initiative Japan Inc. [JP]">
<ellipse fill="#ffffff" stroke="black" cx="279.332" cy="-200.404" rx="39.7935" ry="18"/>
<text text-anchor="middle" x="279.332" y="-196.704" font-family="Times,serif" font-size="14.00" fill="#2c94b3">AS2497</text>
</a>
</g>
</g>
<!-- AS8220&#45;&gt;AS2497 -->
<g id="edge4" class="edge"><title>AS8220&#45;&gt;AS2497</title>
<path fill="none" stroke="black" d="M192.175,-159.338C207.169,-166.485 225.99,-175.456 242.213,-183.188"/>
<polygon fill="black" stroke="black" points="240.884,-186.432 251.417,-187.575 243.895,-180.113 240.884,-186.432"/>
</g>
<!-- AS6461 -->
<g id="node6" class="node"><title>AS6461</title>
<g id="a_node6"><a xlink:href="/asn/6461" xlink:title="AS6461 ~ Zayo Bandwidth [US]">
<ellipse fill="#ffffff" stroke="black" cx="279.332" cy="-146.404" rx="39.7935" ry="18"/>
<text text-anchor="middle" x="279.332" y="-142.704" font-family="Times,serif" font-size="14.00" fill="#2c94b3">AS6461</text>
</a>
</g>
</g>
<!-- AS8220&#45;&gt;AS6461 -->
<g id="edge5" class="edge"><title>AS8220&#45;&gt;AS6461</title>
<path fill="none" stroke="black" d="M203.711,-146.404C211.914,-146.404 220.678,-146.404 229.21,-146.404"/>
<polygon fill="black" stroke="black" points="229.449,-149.904 239.449,-146.404 229.449,-142.904 229.449,-149.904"/>
</g>
<!-- AS2914 -->
<g id="node7" class="node"><title>AS2914</title>
<g id="a_node7"><a xlink:href="/asn/2914" xlink:title="AS2914 ~ NTT America, Inc. [US]">
<ellipse fill="#ffffff" stroke="black" cx="394.625" cy="-69.4038" rx="39.7935" ry="18"/>
<text text-anchor="middle" x="394.625" y="-65.7038" font-family="Times,serif" font-size="14.00" fill="#2c94b3">AS2914</text>
</a>
</g>
</g>
<!-- AS8220&#45;&gt;AS2914 -->
<g id="edge6" class="edge"><title>AS8220&#45;&gt;AS2914</title>
<path fill="none" stroke="black" d="M168.861,-128.303C176.388,-97.7981 196.316,-36.981 239.685,-11.4038 270.041,6.49847 285.641,0.0251743 318.978,-11.4038 338.834,-18.211 357.482,-32.6934 371.172,-45.4828"/>
<polygon fill="black" stroke="black" points="369.026,-48.2778 378.632,-52.7466 373.909,-43.2626 369.026,-48.2778"/>
</g>
<!-- AS6453 -->
<g id="node8" class="node"><title>AS6453</title>
<g id="a_node8"><a xlink:href="/asn/6453" xlink:title="AS6453 ~ TATA COMMUNICATIONS (AMERICA) INC [US]">
<ellipse fill="#ffffff" stroke="black" cx="279.332" cy="-92.4038" rx="39.7935" ry="18"/>
<text text-anchor="middle" x="279.332" y="-88.7038" font-family="Times,serif" font-size="14.00" fill="#2c94b3">AS6453</text>
</a>
</g>
</g>
<!-- AS8220&#45;&gt;AS6453 -->
<g id="edge7" class="edge"><title>AS8220&#45;&gt;AS6453</title>
<path fill="none" stroke="black" d="M192.175,-133.469C207.169,-126.323 225.99,-117.352 242.213,-109.619"/>
<polygon fill="black" stroke="black" points="243.895,-112.695 251.417,-105.233 240.884,-106.376 243.895,-112.695"/>
</g>
<!-- AS5511 -->
<g id="node9" class="node"><title>AS5511</title>
<g id="a_node9"><a xlink:href="/asn/5511" xlink:title="AS5511 ~ Orange S.A. [FR]">
<ellipse fill="#ffffff" stroke="black" cx="279.332" cy="-38.4038" rx="39.7935" ry="18"/>
<text text-anchor="middle" x="279.332" y="-34.7038" font-family="Times,serif" font-size="14.00" fill="#2c94b3">AS5511</text>
</a>
</g>
</g>
<!-- AS8220&#45;&gt;AS5511 -->
<g id="edge8" class="edge"><title>AS8220&#45;&gt;AS5511</title>
<path fill="none" stroke="black" d="M178.669,-129.587C192.951,-112.474 216.498,-85.6591 239.685,-65.4038 242.151,-63.25 244.789,-61.11 247.487,-59.0322"/>
<polygon fill="black" stroke="black" points="249.66,-61.7786 255.641,-53.0334 245.512,-56.1401 249.66,-61.7786"/>
</g>
<!-- AS8447&#45;&gt;AS1299 -->
<g id="edge13" class="edge"><title>AS8447&#45;&gt;AS1299</title>
<path fill="none" stroke="black" stroke-width="0.5625" d="M199.646,-273.156C210.517,-270.565 222.671,-267.669 234.114,-264.942"/>
<polygon fill="black" stroke="black" stroke-width="0.5625" points="235.02,-268.324 243.936,-262.601 233.397,-261.515 235.02,-268.324"/>
</g>
<!-- AS3356 -->
<g id="node12" class="node"><title>AS3356</title>
<g id="a_node12"><a xlink:href="/asn/3356" xlink:title="AS3356 ~ Level 3 Parent, LLC [US]">
<ellipse fill="#ffffff" stroke="black" cx="279.332" cy="-362.404" rx="39.7935" ry="18"/>
<text text-anchor="middle" x="279.332" y="-358.704" font-family="Times,serif" font-size="14.00" fill="#2c94b3">AS3356</text>
</a>
</g>
</g>
<!-- AS8447&#45;&gt;AS3356 -->
<g id="edge11" class="edge"><title>AS8447&#45;&gt;AS3356</title>
<path fill="none" stroke="black" stroke-width="4.5" d="M185.887,-296.626C200.821,-307.495 221.435,-322.428 239.685,-335.404 242.506,-337.409 245.449,-339.488 248.397,-341.563"/>
<polygon fill="black" stroke="black" stroke-width="4.5" points="246.173,-344.812 256.621,-347.329 250.694,-338.364 246.173,-344.812"/>
</g>
<!-- AS6762 -->
<g id="node13" class="node"><title>AS6762</title>
<g id="a_node13"><a xlink:href="/asn/6762" xlink:title="AS6762 ~ TELECOM ITALIA SPARKLE S.p.A. [IT]">
<ellipse fill="#ffffff" stroke="black" cx="279.332" cy="-308.404" rx="39.7935" ry="18"/>
<text text-anchor="middle" x="279.332" y="-304.704" font-family="Times,serif" font-size="14.00" fill="#2c94b3">AS6762</text>
</a>
</g>
</g>
<!-- AS8447&#45;&gt;AS6762 -->
<g id="edge12" class="edge"><title>AS8447&#45;&gt;AS6762</title>
<path fill="none" stroke="black" stroke-width="0.5625" d="M199.646,-289.651C210.517,-292.242 222.671,-295.139 234.114,-297.866"/>
<polygon fill="black" stroke="black" stroke-width="0.5625" points="233.397,-301.293 243.936,-300.207 235.02,-294.484 233.397,-301.293"/>
</g>
<!-- AS3491 -->
<g id="node10" class="node"><title>AS3491</title>
<g id="a_node10"><a xlink:href="/asn/3491" xlink:title="AS3491 ~ PCCW Global, Inc. [US]">
<ellipse fill="#ffffff" stroke="black" cx="394.625" cy="-200.404" rx="39.7935" ry="18"/>
<text text-anchor="middle" x="394.625" y="-196.704" font-family="Times,serif" font-size="14.00" fill="#2c94b3">AS3491</text>
</a>
</g>
</g>
<!-- AS1299&#45;&gt;AS3491 -->
<g id="edge9" class="edge"><title>AS1299&#45;&gt;AS3491</title>
<path fill="none" stroke="black" d="M307.468,-241.469C322.462,-234.323 341.283,-225.352 357.506,-217.619"/>
<polygon fill="black" stroke="black" points="359.188,-220.695 366.71,-213.233 356.177,-214.376 359.188,-220.695"/>
</g>
<!-- AS174 -->
<g id="node11" class="node"><title>AS174</title>
<g id="a_node11"><a xlink:href="/asn/174" xlink:title="AS174 ~ Cogent Communications [US]">
<ellipse fill="#ffffff" stroke="black" cx="394.625" cy="-254.404" rx="35.194" ry="18"/>
<text text-anchor="middle" x="394.625" y="-250.704" font-family="Times,serif" font-size="14.00" fill="#2c94b3">AS174</text>
</a>
</g>
</g>
<!-- AS1299&#45;&gt;AS174 -->
<g id="edge10" class="edge"><title>AS1299&#45;&gt;AS174</title>
<path fill="none" stroke="black" d="M319.004,-254.404C328.709,-254.404 339.2,-254.404 349.163,-254.404"/>
<polygon fill="black" stroke="black" points="349.299,-257.904 359.299,-254.404 349.299,-250.904 349.299,-257.904"/>
</g>
<!-- AS3356&#45;&gt;AS2914 -->
<g id="edge16" class="edge"><title>AS3356&#45;&gt;AS2914</title>
<path fill="none" stroke="black" d="M305.651,-348.797C310.707,-345.053 315.518,-340.573 318.978,-335.404 360.003,-274.11 334.083,-244.139 354.978,-173.404 362.809,-146.892 374.006,-117.421 382.333,-96.64"/>
<polygon fill="black" stroke="black" points="385.652,-97.7702 386.164,-87.1877 379.164,-95.1413 385.652,-97.7702"/>
</g>
<!-- AS3356&#45;&gt;AS174 -->
<g id="edge14" class="edge"><title>AS3356&#45;&gt;AS174</title>
<path fill="none" stroke="black" d="M303.926,-348.014C309.182,-344.256 314.513,-339.967 318.978,-335.404 339.151,-314.787 334.806,-302.021 354.978,-281.404 357.457,-278.87 360.204,-276.421 363.056,-274.1"/>
<polygon fill="black" stroke="black" points="365.359,-276.747 371.242,-267.936 361.148,-271.155 365.359,-276.747"/>
</g>
<!-- AS3257 -->
<g id="node14" class="node"><title>AS3257</title>
<g id="a_node14"><a xlink:href="/asn/3257" xlink:title="AS3257 ~ GTT [DE]">
<ellipse fill="#ffffff" stroke="black" cx="394.625" cy="-308.404" rx="39.7935" ry="18"/>
<text text-anchor="middle" x="394.625" y="-304.704" font-family="Times,serif" font-size="14.00" fill="#2c94b3">AS3257</text>
</a>
</g>
</g>
<!-- AS3356&#45;&gt;AS3257 -->
<g id="edge15" class="edge"><title>AS3356&#45;&gt;AS3257</title>
<path fill="none" stroke="black" d="M307.468,-349.469C322.462,-342.323 341.283,-333.352 357.506,-325.619"/>
<polygon fill="black" stroke="black" points="359.188,-328.695 366.71,-321.233 356.177,-322.376 359.188,-328.695"/>
</g>
<!-- AS7018 -->
<g id="node15" class="node"><title>AS7018</title>
<g id="a_node15"><a xlink:href="/asn/7018" xlink:title="AS7018 ~ AT&amp;T Services, Inc. [US]">
<ellipse fill="#ffffff" stroke="black" cx="394.625" cy="-524.404" rx="39.7935" ry="18"/>
<text text-anchor="middle" x="394.625" y="-520.704" font-family="Times,serif" font-size="14.00" fill="#2c94b3">AS7018</text>
</a>
</g>
</g>
<!-- AS3356&#45;&gt;AS7018 -->
<g id="edge17" class="edge"><title>AS3356&#45;&gt;AS7018</title>
<path fill="none" stroke="black" d="M287.079,-380.191C298.13,-407.647 322.184,-460.982 354.978,-497.404 356.98,-499.628 359.199,-501.767 361.532,-503.801"/>
<polygon fill="black" stroke="black" points="359.73,-506.837 369.751,-510.277 364.062,-501.339 359.73,-506.837"/>
</g>
<!-- AS701 -->
<g id="node16" class="node"><title>AS701</title>
<g id="a_node16"><a xlink:href="/asn/701" xlink:title="AS701 ~ UUNET [US]">
<ellipse fill="#ffffff" stroke="black" cx="394.625" cy="-470.404" rx="35.194" ry="18"/>
<text text-anchor="middle" x="394.625" y="-466.704" font-family="Times,serif" font-size="14.00" fill="#2c94b3">AS701</text>
</a>
</g>
</g>
<!-- AS3356&#45;&gt;AS701 -->
<g id="edge18" class="edge"><title>AS3356&#45;&gt;AS701</title>
<path fill="none" stroke="black" d="M293.962,-379.221C308.244,-396.333 331.791,-423.149 354.978,-443.404 357.648,-445.736 360.521,-448.052 363.451,-450.29"/>
<polygon fill="black" stroke="black" points="361.602,-453.274 371.742,-456.342 365.729,-447.62 361.602,-453.274"/>
</g>
<!-- AS1239 -->
<g id="node17" class="node"><title>AS1239</title>
<g id="a_node17"><a xlink:href="/asn/1239" xlink:title="AS1239 ~ Sprint [US]">
<ellipse fill="#ffffff" stroke="black" cx="394.625" cy="-416.404" rx="39.7935" ry="18"/>
<text text-anchor="middle" x="394.625" y="-412.704" font-family="Times,serif" font-size="14.00" fill="#2c94b3">AS1239</text>
</a>
</g>
</g>
<!-- AS3356&#45;&gt;AS1239 -->
<g id="edge19" class="edge"><title>AS3356&#45;&gt;AS1239</title>
<path fill="none" stroke="black" d="M307.468,-375.338C322.462,-382.485 341.283,-391.456 357.506,-399.188"/>
<polygon fill="black" stroke="black" points="356.177,-402.432 366.71,-403.575 359.188,-396.113 356.177,-402.432"/>
</g>
<!-- AS3549 -->
<g id="node18" class="node"><title>AS3549</title>
<g id="a_node18"><a xlink:href="/asn/3549" xlink:title="AS3549 ~ Level 3 Parent, LLC [US]">
<ellipse fill="#ffffff" stroke="black" cx="394.625" cy="-362.404" rx="39.7935" ry="18"/>
<text text-anchor="middle" x="394.625" y="-358.704" font-family="Times,serif" font-size="14.00" fill="#2c94b3">AS3549</text>
</a>
</g>
</g>
<!-- AS3356&#45;&gt;AS3549 -->
<g id="edge20" class="edge"><title>AS3356&#45;&gt;AS3549</title>
<path fill="none" stroke="black" d="M319.004,-362.404C327.207,-362.404 335.971,-362.404 344.503,-362.404"/>
<polygon fill="black" stroke="black" points="344.742,-365.904 354.742,-362.404 344.742,-358.904 344.742,-365.904"/>
</g>
</g>
</svg>
