<?xml version="1.0" encoding="UTF-8" standalone="no"?>
<!DOCTYPE svg PUBLIC "-//W3C//DTD SVG 1.1//EN"
 "http://www.w3.org/Graphics/SVG/1.1/DTD/svg11.dtd">
<!-- Generated by graphviz version 2.38.0 (20140413.2041)
 -->
<!-- Title: AS210077 IPv4 Upstream Graph Pages: 1 -->
<svg width="468pt" height="584pt"
 viewBox="0.00 0.00 468.27 584.00" xmlns="http://www.w3.org/2000/svg" xmlns:xlink="http://www.w3.org/1999/xlink">
<g id="graph0" class="graph" transform="scale(1 1) rotate(0) translate(4 580)">
<title>AS210077 IPv4 Upstream Graph</title>
<polygon fill="white" stroke="none" points="-4,4 -4,-580 464.269,-580 464.269,4 -4,4"/>
<!-- AS210077 -->
<g id="node1" class="node"><title>AS210077</title>
<g id="a_node1"><a xlink:href="/asn/210077" xlink:title="AS210077 ~ Treibacher Industrie AG [AT]">
<ellipse fill="#ffffff" stroke="black" cx="48.0957" cy="-328" rx="48.1917" ry="18"/>
<text text-anchor="middle" x="48.0957" y="-324.3" font-family="Times,serif" font-size="14.00" fill="#880000">AS210077</text>
</a>
</g>
</g>
<!-- AS3330 -->
<g id="node2" class="node"><title>AS3330</title>
<g id="a_node2"><a xlink:href="/asn/3330" xlink:title="AS3330 ~ Vienna, Austria [AT]">
<ellipse fill="#ffffff" stroke="black" cx="171.838" cy="-436" rx="39.7935" ry="18"/>
<text text-anchor="middle" x="171.838" y="-432.3" font-family="Times,serif" font-size="14.00" fill="#2c94b3">AS3330</text>
</a>
</g>
</g>
<!-- AS210077&#45;&gt;AS3330 -->
<g id="edge1" class="edge"><title>AS210077&#45;&gt;AS3330</title>
<path fill="none" stroke="black" stroke-width="1.38462" d="M67.8512,-344.638C88.4949,-362.952 121.814,-392.51 144.941,-413.026"/>
<polygon fill="black" stroke="black" stroke-width="1.38462" points="142.855,-415.854 152.658,-419.872 147.5,-410.618 142.855,-415.854"/>
</g>
<!-- AS8447 -->
<g id="node3" class="node"><title>AS8447</title>
<g id="a_node3"><a xlink:href="/asn/8447" xlink:title="AS8447 ~ A1 Telekom Austria AG [AT]">
<ellipse fill="#ffffff" stroke="black" cx="171.838" cy="-220" rx="39.7935" ry="18"/>
<text text-anchor="middle" x="171.838" y="-216.3" font-family="Times,serif" font-size="14.00" fill="#2c94b3">AS8447</text>
</a>
</g>
</g>
<!-- AS210077&#45;&gt;AS8447 -->
<g id="edge2" class="edge"><title>AS210077&#45;&gt;AS8447</title>
<path fill="none" stroke="black" stroke-width="4.5" d="M67.8512,-311.362C88.4949,-293.048 121.814,-263.49 144.941,-242.974"/>
<polygon fill="black" stroke="black" stroke-width="4.5" points="147.791,-245.709 152.658,-236.128 142.564,-239.818 147.791,-245.709"/>
</g>
<!-- AS21013 -->
<g id="node4" class="node"><title>AS21013</title>
<g id="a_node4"><a xlink:href="/asn/21013" xlink:title="AS21013 ~ Wels, AT [AT]">
<ellipse fill="#ffffff" stroke="black" cx="291.681" cy="-463" rx="44.393" ry="18"/>
<text text-anchor="middle" x="291.681" y="-459.3" font-family="Times,serif" font-size="14.00" fill="#2c94b3">AS21013</text>
</a>
</g>
</g>
<!-- AS3330&#45;&gt;AS21013 -->
<g id="edge3" class="edge"><title>AS3330&#45;&gt;AS21013</title>
<path fill="none" stroke="black" stroke-width="2" d="M207.557,-443.955C218.696,-446.507 231.231,-449.379 243.124,-452.104"/>
<polygon fill="black" stroke="black" stroke-width="2" points="242.389,-455.526 252.918,-454.348 243.953,-448.703 242.389,-455.526"/>
</g>
<!-- AS3257 -->
<g id="node5" class="node"><title>AS3257</title>
<g id="a_node5"><a xlink:href="/asn/3257" xlink:title="AS3257 ~ GTT [DE]">
<ellipse fill="#ffffff" stroke="black" cx="291.681" cy="-409" rx="39.7935" ry="18"/>
<text text-anchor="middle" x="291.681" y="-405.3" font-family="Times,serif" font-size="14.00" fill="#2c94b3">AS3257</text>
</a>
</g>
</g>
<!-- AS3330&#45;&gt;AS3257 -->
<g id="edge4" class="edge"><title>AS3330&#45;&gt;AS3257</title>
<path fill="none" stroke="black" d="M207.557,-428.045C219.557,-425.296 233.178,-422.175 245.871,-419.267"/>
<polygon fill="black" stroke="black" points="246.836,-422.636 255.802,-416.991 245.273,-415.813 246.836,-422.636"/>
</g>
<!-- AS8218 -->
<g id="node6" class="node"><title>AS8218</title>
<g id="a_node6"><a xlink:href="/asn/8218" xlink:title="AS8218 ~ legacy Neotelecoms [FR]">
<ellipse fill="#ffffff" stroke="black" cx="291.681" cy="-544" rx="39.7935" ry="18"/>
<text text-anchor="middle" x="291.681" y="-540.3" font-family="Times,serif" font-size="14.00" fill="#2c94b3">AS8218</text>
</a>
</g>
</g>
<!-- AS3330&#45;&gt;AS8218 -->
<g id="edge5" class="edge"><title>AS3330&#45;&gt;AS8218</title>
<path fill="none" stroke="black" d="M190.48,-452.169C210.353,-470.382 242.815,-500.133 265.384,-520.817"/>
<polygon fill="black" stroke="black" points="263.181,-523.545 272.918,-527.721 267.91,-518.384 263.181,-523.545"/>
</g>
<!-- AS1299 -->
<g id="node10" class="node"><title>AS1299</title>
<g id="a_node10"><a xlink:href="/asn/1299" xlink:title="AS1299 ~ Telia Carrier [EU]">
<ellipse fill="#ffffff" stroke="black" cx="291.681" cy="-72" rx="39.7935" ry="18"/>
<text text-anchor="middle" x="291.681" y="-68.3" font-family="Times,serif" font-size="14.00" fill="#2c94b3">AS1299</text>
</a>
</g>
</g>
<!-- AS8447&#45;&gt;AS1299 -->
<g id="edge9" class="edge"><title>AS8447&#45;&gt;AS1299</title>
<path fill="none" stroke="black" stroke-width="2.7" d="M183.144,-202.699C196.645,-180.64 221.654,-141.793 247.484,-112 252.548,-106.16 258.389,-100.28 264.107,-94.8924"/>
<polygon fill="black" stroke="black" stroke-width="2.7" points="266.73,-97.2361 271.743,-87.9021 262.004,-92.0729 266.73,-97.2361"/>
</g>
<!-- AS3320 -->
<g id="node11" class="node"><title>AS3320</title>
<g id="a_node11"><a xlink:href="/asn/3320" xlink:title="AS3320 ~ DTAG [DE]">
<ellipse fill="#ffffff" stroke="black" cx="291.681" cy="-288" rx="39.7935" ry="18"/>
<text text-anchor="middle" x="291.681" y="-284.3" font-family="Times,serif" font-size="14.00" fill="#2c94b3">AS3320</text>
</a>
</g>
</g>
<!-- AS8447&#45;&gt;AS3320 -->
<g id="edge10" class="edge"><title>AS8447&#45;&gt;AS3320</title>
<path fill="none" stroke="black" stroke-width="4.5" d="M196.97,-233.925C214.409,-243.988 238.183,-257.707 257.421,-268.808"/>
<polygon fill="black" stroke="black" stroke-width="4.5" points="255.547,-272.272 266.176,-273.86 259.483,-265.452 255.547,-272.272"/>
</g>
<!-- AS6762 -->
<g id="node12" class="node"><title>AS6762</title>
<g id="a_node12"><a xlink:href="/asn/6762" xlink:title="AS6762 ~ TELECOM ITALIA SPARKLE S.p.A. [IT]">
<ellipse fill="#ffffff" stroke="black" cx="291.681" cy="-220" rx="39.7935" ry="18"/>
<text text-anchor="middle" x="291.681" y="-216.3" font-family="Times,serif" font-size="14.00" fill="#2c94b3">AS6762</text>
</a>
</g>
</g>
<!-- AS8447&#45;&gt;AS6762 -->
<g id="edge11" class="edge"><title>AS8447&#45;&gt;AS6762</title>
<path fill="none" stroke="black" stroke-width="0.9" d="M211.751,-220C221.304,-220 231.654,-220 241.616,-220"/>
<polygon fill="black" stroke="black" stroke-width="0.9" points="241.809,-223.5 251.809,-220 241.809,-216.5 241.809,-223.5"/>
</g>
<!-- AS3356 -->
<g id="node13" class="node"><title>AS3356</title>
<g id="a_node13"><a xlink:href="/asn/3356" xlink:title="AS3356 ~ Level 3 Parent, LLC [US]">
<ellipse fill="#ffffff" stroke="black" cx="291.681" cy="-139" rx="39.7935" ry="18"/>
<text text-anchor="middle" x="291.681" y="-135.3" font-family="Times,serif" font-size="14.00" fill="#2c94b3">AS3356</text>
</a>
</g>
</g>
<!-- AS8447&#45;&gt;AS3356 -->
<g id="edge12" class="edge"><title>AS8447&#45;&gt;AS3356</title>
<path fill="none" stroke="black" stroke-width="3.6" d="M194.452,-205.143C212.941,-192.435 239.754,-174.005 260.384,-159.825"/>
<polygon fill="black" stroke="black" stroke-width="3.6" points="262.546,-162.586 268.804,-154.037 258.581,-156.817 262.546,-162.586"/>
</g>
<!-- AS174 -->
<g id="node7" class="node"><title>AS174</title>
<g id="a_node7"><a xlink:href="/asn/174" xlink:title="AS174 ~ Cogent Communications [US]">
<ellipse fill="#ffffff" stroke="black" cx="416.073" cy="-504" rx="35.194" ry="18"/>
<text text-anchor="middle" x="416.073" y="-500.3" font-family="Times,serif" font-size="14.00" fill="#2c94b3">AS174</text>
</a>
</g>
</g>
<!-- AS21013&#45;&gt;AS174 -->
<g id="edge6" class="edge"><title>AS21013&#45;&gt;AS174</title>
<path fill="none" stroke="black" d="M326.449,-474.312C342.035,-479.533 360.614,-485.757 376.726,-491.154"/>
<polygon fill="black" stroke="black" points="375.797,-494.534 386.39,-494.392 378.02,-487.897 375.797,-494.534"/>
</g>
<!-- AS2914 -->
<g id="node8" class="node"><title>AS2914</title>
<g id="a_node8"><a xlink:href="/asn/2914" xlink:title="AS2914 ~ NTT America, Inc. [US]">
<ellipse fill="#ffffff" stroke="black" cx="416.073" cy="-450" rx="39.7935" ry="18"/>
<text text-anchor="middle" x="416.073" y="-446.3" font-family="Times,serif" font-size="14.00" fill="#2c94b3">AS2914</text>
</a>
</g>
</g>
<!-- AS21013&#45;&gt;AS2914 -->
<g id="edge7" class="edge"><title>AS21013&#45;&gt;AS2914</title>
<path fill="none" stroke="black" d="M334.801,-458.526C345.281,-457.413 356.591,-456.212 367.32,-455.072"/>
<polygon fill="black" stroke="black" points="367.809,-458.54 377.384,-454.003 367.07,-451.579 367.809,-458.54"/>
</g>
<!-- AS6461 -->
<g id="node9" class="node"><title>AS6461</title>
<g id="a_node9"><a xlink:href="/asn/6461" xlink:title="AS6461 ~ Zayo Bandwidth [US]">
<ellipse fill="#ffffff" stroke="black" cx="416.073" cy="-558" rx="39.7935" ry="18"/>
<text text-anchor="middle" x="416.073" y="-554.3" font-family="Times,serif" font-size="14.00" fill="#2c94b3">AS6461</text>
</a>
</g>
</g>
<!-- AS8218&#45;&gt;AS6461 -->
<g id="edge8" class="edge"><title>AS8218&#45;&gt;AS6461</title>
<path fill="none" stroke="black" d="M330.401,-548.315C342.034,-549.645 355.001,-551.129 367.222,-552.527"/>
<polygon fill="black" stroke="black" points="366.933,-556.016 377.266,-553.675 367.729,-549.062 366.933,-556.016"/>
</g>
<!-- AS7018 -->
<g id="node18" class="node"><title>AS7018</title>
<g id="a_node18"><a xlink:href="/asn/7018" xlink:title="AS7018 ~ AT&amp;T Services, Inc. [US]">
<ellipse fill="#ffffff" stroke="black" cx="416.073" cy="-18" rx="39.7935" ry="18"/>
<text text-anchor="middle" x="416.073" y="-14.3" font-family="Times,serif" font-size="14.00" fill="#2c94b3">AS7018</text>
</a>
</g>
</g>
<!-- AS1299&#45;&gt;AS7018 -->
<g id="edge17" class="edge"><title>AS1299&#45;&gt;AS7018</title>
<path fill="none" stroke="black" d="M320.76,-59.6113C337.708,-52.1338 359.505,-42.5168 377.874,-34.4121"/>
<polygon fill="black" stroke="black" points="379.388,-37.5699 387.124,-30.331 376.562,-31.1655 379.388,-37.5699"/>
</g>
<!-- AS2497 -->
<g id="node19" class="node"><title>AS2497</title>
<g id="a_node19"><a xlink:href="/asn/2497" xlink:title="AS2497 ~ Internet Initiative Japan Inc. [JP]">
<ellipse fill="#ffffff" stroke="black" cx="416.073" cy="-72" rx="39.7935" ry="18"/>
<text text-anchor="middle" x="416.073" y="-68.3" font-family="Times,serif" font-size="14.00" fill="#2c94b3">AS2497</text>
</a>
</g>
</g>
<!-- AS1299&#45;&gt;AS2497 -->
<g id="edge18" class="edge"><title>AS1299&#45;&gt;AS2497</title>
<path fill="none" stroke="black" d="M331.406,-72C342.344,-72 354.395,-72 365.861,-72"/>
<polygon fill="black" stroke="black" points="366.179,-75.5001 376.179,-72 366.179,-68.5001 366.179,-75.5001"/>
</g>
<!-- AS701 -->
<g id="node14" class="node"><title>AS701</title>
<g id="a_node14"><a xlink:href="/asn/701" xlink:title="AS701 ~ UUNET [US]">
<ellipse fill="#ffffff" stroke="black" cx="416.073" cy="-234" rx="35.194" ry="18"/>
<text text-anchor="middle" x="416.073" y="-230.3" font-family="Times,serif" font-size="14.00" fill="#2c94b3">AS701</text>
</a>
</g>
</g>
<!-- AS3320&#45;&gt;AS701 -->
<g id="edge13" class="edge"><title>AS3320&#45;&gt;AS701</title>
<path fill="none" stroke="black" d="M320.76,-275.611C338.188,-267.922 360.746,-257.969 379.429,-249.726"/>
<polygon fill="black" stroke="black" points="381.063,-252.831 388.799,-245.592 378.237,-246.427 381.063,-252.831"/>
</g>
<!-- AS6453 -->
<g id="node15" class="node"><title>AS6453</title>
<g id="a_node15"><a xlink:href="/asn/6453" xlink:title="AS6453 ~ TATA COMMUNICATIONS (AMERICA) INC [US]">
<ellipse fill="#ffffff" stroke="black" cx="416.073" cy="-396" rx="39.7935" ry="18"/>
<text text-anchor="middle" x="416.073" y="-392.3" font-family="Times,serif" font-size="14.00" fill="#2c94b3">AS6453</text>
</a>
</g>
</g>
<!-- AS3320&#45;&gt;AS6453 -->
<g id="edge14" class="edge"><title>AS3320&#45;&gt;AS6453</title>
<path fill="none" stroke="black" d="M306.833,-304.663C321.934,-321.894 347.055,-349.024 371.877,-369 375.132,-371.62 378.657,-374.192 382.242,-376.646"/>
<polygon fill="black" stroke="black" points="380.329,-379.577 390.614,-382.121 384.16,-373.719 380.329,-379.577"/>
</g>
<!-- AS12956 -->
<g id="node16" class="node"><title>AS12956</title>
<g id="a_node16"><a xlink:href="/asn/12956" xlink:title="AS12956 ~ TELXIUS [ES]">
<ellipse fill="#ffffff" stroke="black" cx="416.073" cy="-342" rx="44.393" ry="18"/>
<text text-anchor="middle" x="416.073" y="-338.3" font-family="Times,serif" font-size="14.00" fill="#2c94b3">AS12956</text>
</a>
</g>
</g>
<!-- AS3320&#45;&gt;AS12956 -->
<g id="edge15" class="edge"><title>AS3320&#45;&gt;AS12956</title>
<path fill="none" stroke="black" d="M320.76,-300.389C337.076,-307.587 357.886,-316.769 375.806,-324.675"/>
<polygon fill="black" stroke="black" points="374.855,-328.081 385.417,-328.916 377.681,-321.677 374.855,-328.081"/>
</g>
<!-- AS1239 -->
<g id="node17" class="node"><title>AS1239</title>
<g id="a_node17"><a xlink:href="/asn/1239" xlink:title="AS1239 ~ Sprint [US]">
<ellipse fill="#ffffff" stroke="black" cx="416.073" cy="-288" rx="39.7935" ry="18"/>
<text text-anchor="middle" x="416.073" y="-284.3" font-family="Times,serif" font-size="14.00" fill="#2c94b3">AS1239</text>
</a>
</g>
</g>
<!-- AS3320&#45;&gt;AS1239 -->
<g id="edge16" class="edge"><title>AS3320&#45;&gt;AS1239</title>
<path fill="none" stroke="black" d="M331.406,-288C342.344,-288 354.395,-288 365.861,-288"/>
<polygon fill="black" stroke="black" points="366.179,-291.5 376.179,-288 366.179,-284.5 366.179,-291.5"/>
</g>
<!-- AS3356&#45;&gt;AS2497 -->
<g id="edge19" class="edge"><title>AS3356&#45;&gt;AS2497</title>
<path fill="none" stroke="black" d="M317.744,-125.28C336.059,-115.253 361.103,-101.544 381.199,-90.5429"/>
<polygon fill="black" stroke="black" points="382.952,-93.5737 390.043,-85.7018 379.591,-87.4335 382.952,-93.5737"/>
</g>
<!-- AS3549 -->
<g id="node20" class="node"><title>AS3549</title>
<g id="a_node20"><a xlink:href="/asn/3549" xlink:title="AS3549 ~ Level 3 Parent, LLC [US]">
<ellipse fill="#ffffff" stroke="black" cx="416.073" cy="-126" rx="39.7935" ry="18"/>
<text text-anchor="middle" x="416.073" y="-122.3" font-family="Times,serif" font-size="14.00" fill="#2c94b3">AS3549</text>
</a>
</g>
</g>
<!-- AS3356&#45;&gt;AS3549 -->
<g id="edge20" class="edge"><title>AS3356&#45;&gt;AS3549</title>
<path fill="none" stroke="black" d="M330.401,-134.993C342.034,-133.758 355.001,-132.381 367.222,-131.083"/>
<polygon fill="black" stroke="black" points="367.692,-134.552 377.266,-130.016 366.952,-127.592 367.692,-134.552"/>
</g>
<!-- AS3491 -->
<g id="node21" class="node"><title>AS3491</title>
<g id="a_node21"><a xlink:href="/asn/3491" xlink:title="AS3491 ~ PCCW Global, Inc. [US]">
<ellipse fill="#ffffff" stroke="black" cx="416.073" cy="-180" rx="39.7935" ry="18"/>
<text text-anchor="middle" x="416.073" y="-176.3" font-family="Times,serif" font-size="14.00" fill="#2c94b3">AS3491</text>
</a>
</g>
</g>
<!-- AS3356&#45;&gt;AS3491 -->
<g id="edge21" class="edge"><title>AS3356&#45;&gt;AS3491</title>
<path fill="none" stroke="black" d="M324.2,-149.559C339.332,-154.628 357.66,-160.767 373.88,-166.201"/>
<polygon fill="black" stroke="black" points="373.067,-169.62 383.66,-169.477 375.29,-162.982 373.067,-169.62"/>
</g>
</g>
</svg>
