<?xml version="1.0" encoding="UTF-8" standalone="no"?>
<!DOCTYPE svg PUBLIC "-//W3C//DTD SVG 1.1//EN"
 "http://www.w3.org/Graphics/SVG/1.1/DTD/svg11.dtd">
<!-- Generated by graphviz version 2.38.0 (20140413.2041)
 -->
<!-- Title: AS199159 IPv4 Upstream Graph Pages: 1 -->
<svg width="459pt" height="638pt"
 viewBox="0.00 0.00 459.17 638.00" xmlns="http://www.w3.org/2000/svg" xmlns:xlink="http://www.w3.org/1999/xlink">
<g id="graph0" class="graph" transform="scale(1 1) rotate(0) translate(4 634)">
<title>AS199159 IPv4 Upstream Graph</title>
<polygon fill="white" stroke="none" points="-4,4 -4,-634 455.17,-634 455.17,4 -4,4"/>
<!-- AS199159 -->
<g id="node1" class="node"><title>AS199159</title>
<g id="a_node1"><a xlink:href="/asn/199159" xlink:title="AS199159 ~ powered by ANX [AT]">
<ellipse fill="#ffffff" stroke="black" cx="48.0957" cy="-261" rx="48.1917" ry="18"/>
<text text-anchor="middle" x="48.0957" y="-257.3" font-family="Times,serif" font-size="14.00" fill="#880000">AS199159</text>
</a>
</g>
</g>
<!-- AS9121 -->
<g id="node2" class="node"><title>AS9121</title>
<g id="a_node2"><a xlink:href="/asn/9121" xlink:title="AS9121 ~ TTNet [TR]">
<ellipse fill="#ffffff" stroke="black" cx="171.838" cy="-261" rx="39.7935" ry="18"/>
<text text-anchor="middle" x="171.838" y="-257.3" font-family="Times,serif" font-size="14.00" fill="#2c94b3">AS9121</text>
</a>
</g>
</g>
<!-- AS199159&#45;&gt;AS9121 -->
<g id="edge1" class="edge"><title>AS199159&#45;&gt;AS9121</title>
<path fill="none" stroke="black" stroke-width="4.5" d="M96.5131,-261C104.867,-261 113.577,-261 121.969,-261"/>
<polygon fill="black" stroke="black" stroke-width="4.5" points="122.004,-264.938 132.004,-261 122.004,-257.063 122.004,-264.938"/>
</g>
<!-- AS2914 -->
<g id="node3" class="node"><title>AS2914</title>
<g id="a_node3"><a xlink:href="/asn/2914" xlink:title="AS2914 ~ NTT America, Inc. [US]">
<ellipse fill="#ffffff" stroke="black" cx="287.131" cy="-423" rx="39.7935" ry="18"/>
<text text-anchor="middle" x="287.131" y="-419.3" font-family="Times,serif" font-size="14.00" fill="#2c94b3">AS2914</text>
</a>
</g>
</g>
<!-- AS9121&#45;&gt;AS2914 -->
<g id="edge2" class="edge"><title>AS9121&#45;&gt;AS2914</title>
<path fill="none" stroke="black" stroke-width="3.27273" d="M184.645,-278.269C199.288,-299.642 225.062,-337.12 247.484,-369 254.119,-378.433 261.469,-388.739 267.963,-397.795"/>
<polygon fill="black" stroke="black" stroke-width="3.27273" points="265.199,-399.946 273.875,-406.026 270.884,-395.862 265.199,-399.946"/>
</g>
<!-- AS3356 -->
<g id="node4" class="node"><title>AS3356</title>
<g id="a_node4"><a xlink:href="/asn/3356" xlink:title="AS3356 ~ Level 3 Parent, LLC [US]">
<ellipse fill="#ffffff" stroke="black" cx="287.131" cy="-342" rx="39.7935" ry="18"/>
<text text-anchor="middle" x="287.131" y="-338.3" font-family="Times,serif" font-size="14.00" fill="#2c94b3">AS3356</text>
</a>
</g>
</g>
<!-- AS9121&#45;&gt;AS3356 -->
<g id="edge3" class="edge"><title>AS9121&#45;&gt;AS3356</title>
<path fill="none" stroke="black" stroke-width="4.5" d="M193.882,-276.046C211.497,-288.639 236.835,-306.755 256.501,-320.816"/>
<polygon fill="black" stroke="black" stroke-width="4.5" points="254.39,-324.147 264.815,-326.76 258.97,-317.741 254.39,-324.147"/>
</g>
<!-- AS3320 -->
<g id="node5" class="node"><title>AS3320</title>
<g id="a_node5"><a xlink:href="/asn/3320" xlink:title="AS3320 ~ DTAG [DE]">
<ellipse fill="#ffffff" stroke="black" cx="287.131" cy="-180" rx="39.7935" ry="18"/>
<text text-anchor="middle" x="287.131" y="-176.3" font-family="Times,serif" font-size="14.00" fill="#2c94b3">AS3320</text>
</a>
</g>
</g>
<!-- AS9121&#45;&gt;AS3320 -->
<g id="edge4" class="edge"><title>AS9121&#45;&gt;AS3320</title>
<path fill="none" stroke="black" stroke-width="1.63636" d="M193.882,-245.954C211.497,-233.361 236.835,-215.245 256.501,-201.184"/>
<polygon fill="black" stroke="black" stroke-width="1.63636" points="258.716,-203.903 264.815,-195.24 254.645,-198.209 258.716,-203.903"/>
</g>
<!-- AS6461 -->
<g id="node6" class="node"><title>AS6461</title>
<g id="a_node6"><a xlink:href="/asn/6461" xlink:title="AS6461 ~ Zayo Bandwidth [US]">
<ellipse fill="#ffffff" stroke="black" cx="287.131" cy="-126" rx="39.7935" ry="18"/>
<text text-anchor="middle" x="287.131" y="-122.3" font-family="Times,serif" font-size="14.00" fill="#2c94b3">AS6461</text>
</a>
</g>
</g>
<!-- AS9121&#45;&gt;AS6461 -->
<g id="edge5" class="edge"><title>AS9121&#45;&gt;AS6461</title>
<path fill="none" stroke="black" stroke-width="0.409091" d="M182.298,-243.51C195.08,-220.904 219.512,-181.114 247.484,-153 249.595,-150.879 251.891,-148.812 254.277,-146.829"/>
<polygon fill="black" stroke="black" stroke-width="0.409091" points="256.792,-149.31 262.592,-140.444 252.529,-143.758 256.792,-149.31"/>
</g>
<!-- AS3491 -->
<g id="node7" class="node"><title>AS3491</title>
<g id="a_node7"><a xlink:href="/asn/3491" xlink:title="AS3491 ~ PCCW Global, Inc. [US]">
<ellipse fill="#ffffff" stroke="black" cx="406.973" cy="-612" rx="39.7935" ry="18"/>
<text text-anchor="middle" x="406.973" y="-608.3" font-family="Times,serif" font-size="14.00" fill="#2c94b3">AS3491</text>
</a>
</g>
</g>
<!-- AS2914&#45;&gt;AS3491 -->
<g id="edge6" class="edge"><title>AS2914&#45;&gt;AS3491</title>
<path fill="none" stroke="black" d="M292.704,-440.946C301.61,-472.995 323.894,-540.842 362.777,-585 365.261,-587.821 368.111,-590.449 371.137,-592.871"/>
<polygon fill="black" stroke="black" points="369.254,-595.828 379.426,-598.791 373.322,-590.131 369.254,-595.828"/>
</g>
<!-- AS6762 -->
<g id="node8" class="node"><title>AS6762</title>
<g id="a_node8"><a xlink:href="/asn/6762" xlink:title="AS6762 ~ TELECOM ITALIA SPARKLE S.p.A. [IT]">
<ellipse fill="#ffffff" stroke="black" cx="406.973" cy="-558" rx="39.7935" ry="18"/>
<text text-anchor="middle" x="406.973" y="-554.3" font-family="Times,serif" font-size="14.00" fill="#2c94b3">AS6762</text>
</a>
</g>
</g>
<!-- AS2914&#45;&gt;AS6762 -->
<g id="edge7" class="edge"><title>AS2914&#45;&gt;AS6762</title>
<path fill="none" stroke="black" d="M297.372,-440.713C309.918,-463.561 334.095,-503.611 362.777,-531 365.646,-533.739 368.834,-536.347 372.144,-538.785"/>
<polygon fill="black" stroke="black" points="370.267,-541.742 380.503,-544.477 374.207,-535.956 370.267,-541.742"/>
</g>
<!-- AS3257 -->
<g id="node9" class="node"><title>AS3257</title>
<g id="a_node9"><a xlink:href="/asn/3257" xlink:title="AS3257 ~ GTT [DE]">
<ellipse fill="#ffffff" stroke="black" cx="406.973" cy="-504" rx="39.7935" ry="18"/>
<text text-anchor="middle" x="406.973" y="-500.3" font-family="Times,serif" font-size="14.00" fill="#2c94b3">AS3257</text>
</a>
</g>
</g>
<!-- AS2914&#45;&gt;AS3257 -->
<g id="edge8" class="edge"><title>AS2914&#45;&gt;AS3257</title>
<path fill="none" stroke="black" d="M308.461,-438.277C323.324,-449.304 344.068,-464.407 362.777,-477 366.326,-479.389 370.077,-481.839 373.825,-484.242"/>
<polygon fill="black" stroke="black" points="372.151,-487.325 382.474,-489.712 375.893,-481.409 372.151,-487.325"/>
</g>
<!-- AS174 -->
<g id="node10" class="node"><title>AS174</title>
<g id="a_node10"><a xlink:href="/asn/174" xlink:title="AS174 ~ Cogent Communications [US]">
<ellipse fill="#ffffff" stroke="black" cx="406.973" cy="-450" rx="35.194" ry="18"/>
<text text-anchor="middle" x="406.973" y="-446.3" font-family="Times,serif" font-size="14.00" fill="#2c94b3">AS174</text>
</a>
</g>
</g>
<!-- AS2914&#45;&gt;AS174 -->
<g id="edge9" class="edge"><title>AS2914&#45;&gt;AS174</title>
<path fill="none" stroke="black" d="M322.85,-430.955C335.943,-433.955 350.965,-437.396 364.606,-440.522"/>
<polygon fill="black" stroke="black" points="364.184,-444.016 374.713,-442.838 365.747,-437.193 364.184,-444.016"/>
</g>
<!-- AS6453 -->
<g id="node11" class="node"><title>AS6453</title>
<g id="a_node11"><a xlink:href="/asn/6453" xlink:title="AS6453 ~ TATA COMMUNICATIONS (AMERICA) INC [US]">
<ellipse fill="#ffffff" stroke="black" cx="406.973" cy="-396" rx="39.7935" ry="18"/>
<text text-anchor="middle" x="406.973" y="-392.3" font-family="Times,serif" font-size="14.00" fill="#2c94b3">AS6453</text>
</a>
</g>
</g>
<!-- AS2914&#45;&gt;AS6453 -->
<g id="edge10" class="edge"><title>AS2914&#45;&gt;AS6453</title>
<path fill="none" stroke="black" d="M322.85,-415.045C334.85,-412.296 348.471,-409.175 361.164,-406.267"/>
<polygon fill="black" stroke="black" points="362.129,-409.636 371.095,-403.991 360.566,-402.813 362.129,-409.636"/>
</g>
<!-- AS1299 -->
<g id="node12" class="node"><title>AS1299</title>
<g id="a_node12"><a xlink:href="/asn/1299" xlink:title="AS1299 ~ Telia Carrier [EU]">
<ellipse fill="#ffffff" stroke="black" cx="406.973" cy="-342" rx="39.7935" ry="18"/>
<text text-anchor="middle" x="406.973" y="-338.3" font-family="Times,serif" font-size="14.00" fill="#2c94b3">AS1299</text>
</a>
</g>
</g>
<!-- AS2914&#45;&gt;AS1299 -->
<g id="edge11" class="edge"><title>AS2914&#45;&gt;AS1299</title>
<path fill="none" stroke="black" d="M308.461,-407.723C323.324,-396.696 344.068,-381.593 362.777,-369 366.326,-366.611 370.077,-364.161 373.825,-361.758"/>
<polygon fill="black" stroke="black" points="375.893,-364.591 382.474,-356.288 372.151,-358.675 375.893,-364.591"/>
</g>
<!-- AS2497 -->
<g id="node13" class="node"><title>AS2497</title>
<g id="a_node13"><a xlink:href="/asn/2497" xlink:title="AS2497 ~ Internet Initiative Japan Inc. [JP]">
<ellipse fill="#ffffff" stroke="black" cx="406.973" cy="-180" rx="39.7935" ry="18"/>
<text text-anchor="middle" x="406.973" y="-176.3" font-family="Times,serif" font-size="14.00" fill="#2c94b3">AS2497</text>
</a>
</g>
</g>
<!-- AS2914&#45;&gt;AS2497 -->
<g id="edge12" class="edge"><title>AS2914&#45;&gt;AS2497</title>
<path fill="none" stroke="black" d="M302.942,-406.106C311.1,-395.975 320.761,-382.475 326.777,-369 356.847,-301.651 320.198,-267.225 362.777,-207 364.769,-204.184 367.156,-201.599 369.772,-199.24"/>
<polygon fill="black" stroke="black" points="372.324,-201.694 378.14,-192.838 368.071,-196.135 372.324,-201.694"/>
</g>
<!-- AS3356&#45;&gt;AS3491 -->
<g id="edge21" class="edge"><title>AS3356&#45;&gt;AS3491</title>
<path fill="none" stroke="black" d="M303.096,-358.827C311.306,-368.935 320.967,-382.435 326.777,-396 360.446,-474.603 314.481,-514.434 362.777,-585 364.725,-587.846 367.082,-590.452 369.679,-592.824"/>
<polygon fill="black" stroke="black" points="367.957,-595.917 378.015,-599.249 372.23,-590.372 367.957,-595.917"/>
</g>
<!-- AS3356&#45;&gt;AS6762 -->
<g id="edge16" class="edge"><title>AS3356&#45;&gt;AS6762</title>
<path fill="none" stroke="black" d="M302.731,-358.991C310.819,-369.155 320.48,-382.655 326.777,-396 353.277,-452.159 325.874,-481.059 362.777,-531 365.011,-534.023 367.694,-536.786 370.615,-539.293"/>
<polygon fill="black" stroke="black" points="368.64,-542.186 378.758,-545.331 372.81,-536.563 368.64,-542.186"/>
</g>
<!-- AS3356&#45;&gt;AS3257 -->
<g id="edge22" class="edge"><title>AS3356&#45;&gt;AS3257</title>
<path fill="none" stroke="black" d="M301.592,-358.913C309.485,-369.27 319.335,-382.992 326.777,-396 346.342,-430.194 336.943,-447.258 362.777,-477 365.242,-479.838 368.079,-482.477 371.097,-484.906"/>
<polygon fill="black" stroke="black" points="369.207,-487.858 379.375,-490.836 373.283,-482.167 369.207,-487.858"/>
</g>
<!-- AS3356&#45;&gt;AS174 -->
<g id="edge18" class="edge"><title>AS3356&#45;&gt;AS174</title>
<path fill="none" stroke="black" d="M301.55,-359.065C315.665,-376.375 339.079,-403.345 362.777,-423 366.241,-425.872 370.033,-428.669 373.888,-431.308"/>
<polygon fill="black" stroke="black" points="372.03,-434.275 382.32,-436.797 375.849,-428.408 372.03,-434.275"/>
</g>
<!-- AS3356&#45;&gt;AS6453 -->
<g id="edge13" class="edge"><title>AS3356&#45;&gt;AS6453</title>
<path fill="none" stroke="black" d="M315.76,-354.661C331.717,-361.973 351.987,-371.261 369.27,-379.181"/>
<polygon fill="black" stroke="black" points="367.969,-382.435 378.518,-383.419 370.885,-376.071 367.969,-382.435"/>
</g>
<!-- AS3356&#45;&gt;AS1299 -->
<g id="edge20" class="edge"><title>AS3356&#45;&gt;AS1299</title>
<path fill="none" stroke="black" d="M327.044,-342C336.597,-342 346.947,-342 356.909,-342"/>
<polygon fill="black" stroke="black" points="357.102,-345.5 367.102,-342 357.102,-338.5 357.102,-345.5"/>
</g>
<!-- AS3356&#45;&gt;AS2497 -->
<g id="edge17" class="edge"><title>AS3356&#45;&gt;AS2497</title>
<path fill="none" stroke="black" d="M294.654,-324.006C305.404,-296.272 329.062,-242.571 362.777,-207 365.363,-204.272 368.281,-201.706 371.349,-199.323"/>
<polygon fill="black" stroke="black" points="373.527,-202.07 379.697,-193.457 369.503,-196.342 373.527,-202.07"/>
</g>
<!-- AS3549 -->
<g id="node14" class="node"><title>AS3549</title>
<g id="a_node14"><a xlink:href="/asn/3549" xlink:title="AS3549 ~ Level 3 Parent, LLC [US]">
<ellipse fill="#ffffff" stroke="black" cx="406.973" cy="-288" rx="39.7935" ry="18"/>
<text text-anchor="middle" x="406.973" y="-284.3" font-family="Times,serif" font-size="14.00" fill="#2c94b3">AS3549</text>
</a>
</g>
</g>
<!-- AS3356&#45;&gt;AS3549 -->
<g id="edge14" class="edge"><title>AS3356&#45;&gt;AS3549</title>
<path fill="none" stroke="black" d="M315.76,-329.339C331.717,-322.027 351.987,-312.739 369.27,-304.819"/>
<polygon fill="black" stroke="black" points="370.885,-307.929 378.518,-300.581 367.969,-301.565 370.885,-307.929"/>
</g>
<!-- AS12956 -->
<g id="node15" class="node"><title>AS12956</title>
<g id="a_node15"><a xlink:href="/asn/12956" xlink:title="AS12956 ~ TELXIUS [ES]">
<ellipse fill="#ffffff" stroke="black" cx="406.973" cy="-234" rx="44.393" ry="18"/>
<text text-anchor="middle" x="406.973" y="-230.3" font-family="Times,serif" font-size="14.00" fill="#2c94b3">AS12956</text>
</a>
</g>
</g>
<!-- AS3356&#45;&gt;AS12956 -->
<g id="edge15" class="edge"><title>AS3356&#45;&gt;AS12956</title>
<path fill="none" stroke="black" d="M301.55,-324.935C315.665,-307.625 339.079,-280.655 362.777,-261 365.515,-258.729 368.459,-256.506 371.476,-254.37"/>
<polygon fill="black" stroke="black" points="373.702,-257.092 380.065,-248.621 369.808,-251.275 373.702,-257.092"/>
</g>
<!-- AS7018 -->
<g id="node16" class="node"><title>AS7018</title>
<g id="a_node16"><a xlink:href="/asn/7018" xlink:title="AS7018 ~ AT&amp;T Services, Inc. [US]">
<ellipse fill="#ffffff" stroke="black" cx="406.973" cy="-126" rx="39.7935" ry="18"/>
<text text-anchor="middle" x="406.973" y="-122.3" font-family="Times,serif" font-size="14.00" fill="#2c94b3">AS7018</text>
</a>
</g>
</g>
<!-- AS3356&#45;&gt;AS7018 -->
<g id="edge19" class="edge"><title>AS3356&#45;&gt;AS7018</title>
<path fill="none" stroke="black" d="M291.33,-323.927C298.493,-287.859 318.767,-205.875 362.777,-153 365.182,-150.111 367.979,-147.437 370.971,-144.987"/>
<polygon fill="black" stroke="black" points="373.161,-147.723 379.214,-139.027 369.059,-142.05 373.161,-147.723"/>
</g>
<!-- AS3320&#45;&gt;AS2497 -->
<g id="edge23" class="edge"><title>AS3320&#45;&gt;AS2497</title>
<path fill="none" stroke="black" d="M327.044,-180C336.597,-180 346.947,-180 356.909,-180"/>
<polygon fill="black" stroke="black" points="357.102,-183.5 367.102,-180 357.102,-176.5 357.102,-183.5"/>
</g>
<!-- AS1239 -->
<g id="node17" class="node"><title>AS1239</title>
<g id="a_node17"><a xlink:href="/asn/1239" xlink:title="AS1239 ~ Sprint [US]">
<ellipse fill="#ffffff" stroke="black" cx="406.973" cy="-72" rx="39.7935" ry="18"/>
<text text-anchor="middle" x="406.973" y="-68.3" font-family="Times,serif" font-size="14.00" fill="#2c94b3">AS1239</text>
</a>
</g>
</g>
<!-- AS3320&#45;&gt;AS1239 -->
<g id="edge24" class="edge"><title>AS3320&#45;&gt;AS1239</title>
<path fill="none" stroke="black" d="M311.725,-165.611C316.981,-161.852 322.313,-157.563 326.777,-153 346.95,-132.383 342.084,-119.094 362.777,-99 365.623,-96.2372 368.796,-93.6138 372.096,-91.1658"/>
<polygon fill="black" stroke="black" points="374.162,-93.9935 380.444,-85.4623 370.213,-88.2137 374.162,-93.9935"/>
</g>
<!-- AS701 -->
<g id="node18" class="node"><title>AS701</title>
<g id="a_node18"><a xlink:href="/asn/701" xlink:title="AS701 ~ UUNET [US]">
<ellipse fill="#ffffff" stroke="black" cx="406.973" cy="-18" rx="35.194" ry="18"/>
<text text-anchor="middle" x="406.973" y="-14.3" font-family="Times,serif" font-size="14.00" fill="#2c94b3">AS701</text>
</a>
</g>
</g>
<!-- AS3320&#45;&gt;AS701 -->
<g id="edge25" class="edge"><title>AS3320&#45;&gt;AS701</title>
<path fill="none" stroke="black" d="M313.062,-166.118C318.138,-162.389 323.056,-157.984 326.777,-153 357.049,-112.458 331.479,-84.7541 362.777,-45 365.424,-41.6386 368.613,-38.5835 372.044,-35.8389"/>
<polygon fill="black" stroke="black" points="374.182,-38.6142 380.351,-30.0004 370.157,-32.8873 374.182,-38.6142"/>
</g>
</g>
</svg>
