<?xml version="1.0" encoding="UTF-8" standalone="no"?>
<!DOCTYPE svg PUBLIC "-//W3C//DTD SVG 1.1//EN"
 "http://www.w3.org/Graphics/SVG/1.1/DTD/svg11.dtd">
<!-- Generated by graphviz version 2.38.0 (20140413.2041)
 -->
<!-- Title: AS201248 Combined Upstream Graph Pages: 1 -->
<svg width="584pt" height="676pt"
 viewBox="0.00 0.00 583.56 676.00" xmlns="http://www.w3.org/2000/svg" xmlns:xlink="http://www.w3.org/1999/xlink">
<g id="graph0" class="graph" transform="scale(1 1) rotate(0) translate(4 672)">
<title>AS201248 Combined Upstream Graph</title>
<polygon fill="white" stroke="none" points="-4,4 -4,-672 579.562,-672 579.562,4 -4,4"/>
<!-- AS201248 -->
<g id="node1" class="node"><title>AS201248</title>
<g id="a_node1"><a xlink:href="/asn/201248" xlink:title="AS201248 ~ SCC EDV&#45;Beratung AG [AT]">
<ellipse fill="#ffffff" stroke="black" cx="48.0957" cy="-299" rx="48.1917" ry="18"/>
<text text-anchor="middle" x="48.0957" y="-295.3" font-family="Times,serif" font-size="14.00" fill="#880000">AS201248</text>
</a>
</g>
</g>
<!-- AS1764 -->
<g id="node2" class="node"><title>AS1764</title>
<g id="a_node2"><a xlink:href="/asn/1764" xlink:title="AS1764 ~ NEXTLAYER&#45;AS [AT]">
<ellipse fill="#ffffff" stroke="black" cx="176.388" cy="-326" rx="39.7935" ry="18"/>
<text text-anchor="middle" x="176.388" y="-322.3" font-family="Times,serif" font-size="14.00" fill="#2c94b3">AS1764</text>
</a>
</g>
</g>
<!-- AS201248&#45;&gt;AS1764 -->
<g id="edge1" class="edge"><title>AS201248&#45;&gt;AS1764</title>
<path fill="none" stroke="black" stroke-width="4.5" d="M90.4484,-307.841C103.163,-310.559 117.222,-313.565 130.181,-316.335"/>
<polygon fill="black" stroke="black" stroke-width="4.5" points="129.69,-320.257 140.292,-318.497 131.336,-312.556 129.69,-320.257"/>
</g>
<!-- AS24864 -->
<g id="node3" class="node"><title>AS24864</title>
<g id="a_node3"><a xlink:href="/asn/24864" xlink:title="AS24864 ~ Raiffeisen Informatik GmbH [AT]">
<ellipse fill="#ffffff" stroke="black" cx="176.388" cy="-272" rx="44.393" ry="18"/>
<text text-anchor="middle" x="176.388" y="-268.3" font-family="Times,serif" font-size="14.00" fill="#2c94b3">AS24864</text>
</a>
</g>
</g>
<!-- AS201248&#45;&gt;AS24864 -->
<g id="edge2" class="edge"><title>AS201248&#45;&gt;AS24864</title>
<path fill="none" stroke="black" stroke-width="0.608108" d="M90.4484,-290.159C102.138,-287.66 114.964,-284.918 127.027,-282.339"/>
<polygon fill="black" stroke="black" stroke-width="0.608108" points="127.891,-285.733 136.939,-280.22 126.428,-278.888 127.891,-285.733"/>
</g>
<!-- AS2914 -->
<g id="node4" class="node"><title>AS2914</title>
<g id="a_node4"><a xlink:href="/asn/2914" xlink:title="AS2914 ~ NTT America, Inc. [US]">
<ellipse fill="#ffffff" stroke="black" cx="296.23" cy="-380" rx="39.7935" ry="18"/>
<text text-anchor="middle" x="296.23" y="-376.3" font-family="Times,serif" font-size="14.00" fill="#2c94b3">AS2914</text>
</a>
</g>
</g>
<!-- AS1764&#45;&gt;AS2914 -->
<g id="edge3" class="edge"><title>AS1764&#45;&gt;AS2914</title>
<path fill="none" stroke="black" stroke-width="3.375" d="M205.016,-338.661C220.973,-345.973 241.244,-355.261 258.527,-363.181"/>
<polygon fill="black" stroke="black" stroke-width="3.375" points="257.225,-366.435 267.774,-367.419 260.141,-360.071 257.225,-366.435"/>
</g>
<!-- AS3356 -->
<g id="node5" class="node"><title>AS3356</title>
<g id="a_node5"><a xlink:href="/asn/3356" xlink:title="AS3356 ~ Level 3 Parent, LLC [US]">
<ellipse fill="#ffffff" stroke="black" cx="296.23" cy="-272" rx="39.7935" ry="18"/>
<text text-anchor="middle" x="296.23" y="-268.3" font-family="Times,serif" font-size="14.00" fill="#2c94b3">AS3356</text>
</a>
</g>
</g>
<!-- AS1764&#45;&gt;AS3356 -->
<g id="edge4" class="edge"><title>AS1764&#45;&gt;AS3356</title>
<path fill="none" stroke="black" stroke-width="3.375" d="M205.016,-313.339C220.973,-306.027 241.244,-296.739 258.527,-288.819"/>
<polygon fill="black" stroke="black" stroke-width="3.375" points="260.141,-291.929 267.774,-284.581 257.225,-285.565 260.141,-291.929"/>
</g>
<!-- AS3320 -->
<g id="node6" class="node"><title>AS3320</title>
<g id="a_node6"><a xlink:href="/asn/3320" xlink:title="AS3320 ~ DTAG [DE]">
<ellipse fill="#ffffff" stroke="black" cx="296.23" cy="-566" rx="39.7935" ry="18"/>
<text text-anchor="middle" x="296.23" y="-562.3" font-family="Times,serif" font-size="14.00" fill="#2c94b3">AS3320</text>
</a>
</g>
</g>
<!-- AS1764&#45;&gt;AS3320 -->
<g id="edge5" class="edge"><title>AS1764&#45;&gt;AS3320</title>
<path fill="none" stroke="black" stroke-width="2.8125" d="M183.86,-343.93C196.19,-377.315 224.677,-450.889 256.584,-509 262.487,-519.752 269.866,-531.041 276.589,-540.709"/>
<polygon fill="black" stroke="black" stroke-width="2.8125" points="273.879,-542.938 282.518,-549.071 279.589,-538.889 273.879,-542.938"/>
</g>
<!-- AS1299 -->
<g id="node7" class="node"><title>AS1299</title>
<g id="a_node7"><a xlink:href="/asn/1299" xlink:title="AS1299 ~ Telia Carrier [EU]">
<ellipse fill="#ffffff" stroke="black" cx="296.23" cy="-482" rx="39.7935" ry="18"/>
<text text-anchor="middle" x="296.23" y="-478.3" font-family="Times,serif" font-size="14.00" fill="#2c94b3">AS1299</text>
</a>
</g>
</g>
<!-- AS1764&#45;&gt;AS1299 -->
<g id="edge6" class="edge"><title>AS1764&#45;&gt;AS1299</title>
<path fill="none" stroke="black" stroke-width="4.5" d="M187.634,-343.577C201.824,-367.338 228.861,-410.578 256.584,-444 260.763,-449.038 265.524,-454.144 270.243,-458.909"/>
<polygon fill="black" stroke="black" stroke-width="4.5" points="267.636,-461.867 277.533,-466.057 273.149,-456.244 267.636,-461.867"/>
</g>
<!-- AS174 -->
<g id="node8" class="node"><title>AS174</title>
<g id="a_node8"><a xlink:href="/asn/174" xlink:title="AS174 ~ Cogent Communications [US]">
<ellipse fill="#ffffff" stroke="black" cx="416.073" cy="-434" rx="35.194" ry="18"/>
<text text-anchor="middle" x="416.073" y="-430.3" font-family="Times,serif" font-size="14.00" fill="#2c94b3">AS174</text>
</a>
</g>
</g>
<!-- AS1764&#45;&gt;AS174 -->
<g id="edge7" class="edge"><title>AS1764&#45;&gt;AS174</title>
<path fill="none" stroke="black" stroke-width="1.125" d="M189.148,-343.376C202.951,-362.287 227.666,-391.846 256.584,-407 291.943,-425.53 337.261,-431.782 370.374,-433.692"/>
<polygon fill="black" stroke="black" stroke-width="1.125" points="370.516,-437.203 380.668,-434.17 370.841,-430.21 370.516,-437.203"/>
</g>
<!-- AS3257 -->
<g id="node9" class="node"><title>AS3257</title>
<g id="a_node9"><a xlink:href="/asn/3257" xlink:title="AS3257 ~ GTT [DE]">
<ellipse fill="#ffffff" stroke="black" cx="296.23" cy="-326" rx="39.7935" ry="18"/>
<text text-anchor="middle" x="296.23" y="-322.3" font-family="Times,serif" font-size="14.00" fill="#2c94b3">AS3257</text>
</a>
</g>
</g>
<!-- AS1764&#45;&gt;AS3257 -->
<g id="edge8" class="edge"><title>AS1764&#45;&gt;AS3257</title>
<path fill="none" stroke="black" stroke-width="2.8125" d="M216.3,-326C225.854,-326 236.203,-326 246.166,-326"/>
<polygon fill="black" stroke="black" stroke-width="2.8125" points="246.358,-329.5 256.358,-326 246.358,-322.5 246.358,-329.5"/>
</g>
<!-- AS8218 -->
<g id="node10" class="node"><title>AS8218</title>
<g id="a_node10"><a xlink:href="/asn/8218" xlink:title="AS8218 ~ legacy Neotelecoms [FR]">
<ellipse fill="#ffffff" stroke="black" cx="296.23" cy="-137" rx="39.7935" ry="18"/>
<text text-anchor="middle" x="296.23" y="-133.3" font-family="Times,serif" font-size="14.00" fill="#2c94b3">AS8218</text>
</a>
</g>
</g>
<!-- AS1764&#45;&gt;AS8218 -->
<g id="edge9" class="edge"><title>AS1764&#45;&gt;AS8218</title>
<path fill="none" stroke="black" stroke-width="0.5625" d="M204.603,-313.331C210.584,-309.461 216.379,-304.69 220.584,-299 257.487,-249.059 220.97,-214.869 256.584,-164 258.256,-161.611 260.211,-159.365 262.338,-157.267"/>
<polygon fill="black" stroke="black" stroke-width="0.5625" points="264.703,-159.851 270.071,-150.716 260.178,-154.51 264.703,-159.851"/>
</g>
<!-- AS6939 -->
<g id="node11" class="node"><title>AS6939</title>
<g id="a_node11"><a xlink:href="/asn/6939" xlink:title="AS6939 ~ Hurricane Electric LLC [US]">
<ellipse fill="#ffffff" stroke="black" cx="296.23" cy="-191" rx="39.7935" ry="18"/>
<text text-anchor="middle" x="296.23" y="-187.3" font-family="Times,serif" font-size="14.00" fill="#2c94b3">AS6939</text>
</a>
</g>
</g>
<!-- AS1764&#45;&gt;AS6939 -->
<g id="edge10" class="edge"><title>AS1764&#45;&gt;AS6939</title>
<path fill="none" stroke="black" stroke-width="2.25" d="M202.917,-312.538C209.079,-308.638 215.381,-304.052 220.584,-299 241.277,-278.906 240.188,-268.731 256.584,-245 263.039,-235.656 270.25,-225.506 276.678,-216.555"/>
<polygon fill="black" stroke="black" stroke-width="2.25" points="279.544,-218.565 282.551,-208.406 273.865,-214.472 279.544,-218.565"/>
</g>
<!-- AS24864&#45;&gt;AS3356 -->
<g id="edge36" class="edge"><title>AS24864&#45;&gt;AS3356</title>
<path fill="none" stroke="black" stroke-width="4" d="M220.599,-272C228.911,-272 237.674,-272 246.156,-272"/>
<polygon fill="black" stroke="black" stroke-width="4" points="246.315,-275.5 256.315,-272 246.315,-268.5 246.315,-275.5"/>
</g>
<!-- AS24864&#45;&gt;AS8218 -->
<g id="edge37" class="edge"><title>AS24864&#45;&gt;AS8218</title>
<path fill="none" stroke="black" d="M187.653,-254.56C201.462,-232.009 227.651,-192.278 256.584,-164 258.724,-161.908 261.041,-159.863 263.441,-157.894"/>
<polygon fill="black" stroke="black" points="265.951,-160.382 271.782,-151.536 261.708,-154.815 265.951,-160.382"/>
</g>
<!-- AS6762 -->
<g id="node14" class="node"><title>AS6762</title>
<g id="a_node14"><a xlink:href="/asn/6762" xlink:title="AS6762 ~ TELECOM ITALIA SPARKLE S.p.A. [IT]">
<ellipse fill="#ffffff" stroke="black" cx="416.073" cy="-326" rx="39.7935" ry="18"/>
<text text-anchor="middle" x="416.073" y="-322.3" font-family="Times,serif" font-size="14.00" fill="#2c94b3">AS6762</text>
</a>
</g>
</g>
<!-- AS2914&#45;&gt;AS6762 -->
<g id="edge24" class="edge"><title>AS2914&#45;&gt;AS6762</title>
<path fill="none" stroke="black" d="M324.859,-367.339C340.816,-360.027 361.087,-350.739 378.369,-342.819"/>
<polygon fill="black" stroke="black" points="379.984,-345.929 387.617,-338.581 377.068,-339.565 379.984,-345.929"/>
</g>
<!-- AS2497 -->
<g id="node16" class="node"><title>AS2497</title>
<g id="a_node16"><a xlink:href="/asn/2497" xlink:title="AS2497 ~ Internet Initiative Japan Inc. [JP]">
<ellipse fill="#ffffff" stroke="black" cx="416.073" cy="-272" rx="39.7935" ry="18"/>
<text text-anchor="middle" x="416.073" y="-268.3" font-family="Times,serif" font-size="14.00" fill="#2c94b3">AS2497</text>
</a>
</g>
</g>
<!-- AS2914&#45;&gt;AS2497 -->
<g id="edge22" class="edge"><title>AS2914&#45;&gt;AS2497</title>
<path fill="none" stroke="black" stroke-width="2" d="M320.824,-365.611C326.08,-361.852 331.412,-357.563 335.877,-353 356.049,-332.383 351.183,-319.094 371.877,-299 374.722,-296.237 377.896,-293.614 381.196,-291.166"/>
<polygon fill="black" stroke="black" stroke-width="2" points="383.261,-293.994 389.544,-285.462 379.312,-288.214 383.261,-293.994"/>
</g>
<!-- AS12956 -->
<g id="node19" class="node"><title>AS12956</title>
<g id="a_node19"><a xlink:href="/asn/12956" xlink:title="AS12956 ~ TELXIUS [ES]">
<ellipse fill="#ffffff" stroke="black" cx="416.073" cy="-380" rx="44.393" ry="18"/>
<text text-anchor="middle" x="416.073" y="-376.3" font-family="Times,serif" font-size="14.00" fill="#2c94b3">AS12956</text>
</a>
</g>
</g>
<!-- AS2914&#45;&gt;AS12956 -->
<g id="edge23" class="edge"><title>AS2914&#45;&gt;AS12956</title>
<path fill="none" stroke="black" d="M336.143,-380C344.245,-380 352.921,-380 361.447,-380"/>
<polygon fill="black" stroke="black" points="361.725,-383.5 371.725,-380 361.724,-376.5 361.725,-383.5"/>
</g>
<!-- AS3356&#45;&gt;AS174 -->
<g id="edge20" class="edge"><title>AS3356&#45;&gt;AS174</title>
<path fill="none" stroke="black" d="M322.161,-285.882C327.237,-289.611 332.155,-294.016 335.877,-299 366.148,-339.542 340.578,-367.246 371.877,-407 374.523,-410.361 377.712,-413.417 381.143,-416.161"/>
<polygon fill="black" stroke="black" points="379.256,-419.113 389.45,-422 383.281,-413.386 379.256,-419.113"/>
</g>
<!-- AS6453 -->
<g id="node13" class="node"><title>AS6453</title>
<g id="a_node13"><a xlink:href="/asn/6453" xlink:title="AS6453 ~ TATA COMMUNICATIONS (AMERICA) INC [US]">
<ellipse fill="#ffffff" stroke="black" cx="416.073" cy="-488" rx="39.7935" ry="18"/>
<text text-anchor="middle" x="416.073" y="-484.3" font-family="Times,serif" font-size="14.00" fill="#2c94b3">AS6453</text>
</a>
</g>
</g>
<!-- AS3356&#45;&gt;AS6453 -->
<g id="edge19" class="edge"><title>AS3356&#45;&gt;AS6453</title>
<path fill="none" stroke="black" d="M322.549,-285.607C327.605,-289.351 332.417,-293.831 335.877,-299 376.901,-360.294 329.297,-400.775 371.877,-461 373.868,-463.816 376.255,-466.401 378.871,-468.76"/>
<polygon fill="black" stroke="black" points="377.17,-471.865 387.239,-475.162 381.423,-466.306 377.17,-471.865"/>
</g>
<!-- AS3356&#45;&gt;AS6762 -->
<g id="edge18" class="edge"><title>AS3356&#45;&gt;AS6762</title>
<path fill="none" stroke="black" stroke-width="2" d="M324.859,-284.661C340.816,-291.973 361.087,-301.261 378.369,-309.181"/>
<polygon fill="black" stroke="black" stroke-width="2" points="377.068,-312.435 387.617,-313.419 379.984,-306.071 377.068,-312.435"/>
</g>
<!-- AS3356&#45;&gt;AS2497 -->
<g id="edge16" class="edge"><title>AS3356&#45;&gt;AS2497</title>
<path fill="none" stroke="black" stroke-width="2" d="M336.143,-272C345.696,-272 356.046,-272 366.008,-272"/>
<polygon fill="black" stroke="black" stroke-width="2" points="366.201,-275.5 376.201,-272 366.201,-268.5 366.201,-275.5"/>
</g>
<!-- AS3549 -->
<g id="node17" class="node"><title>AS3549</title>
<g id="a_node17"><a xlink:href="/asn/3549" xlink:title="AS3549 ~ Level 3 Parent, LLC [US]">
<ellipse fill="#ffffff" stroke="black" cx="416.073" cy="-218" rx="39.7935" ry="18"/>
<text text-anchor="middle" x="416.073" y="-214.3" font-family="Times,serif" font-size="14.00" fill="#2c94b3">AS3549</text>
</a>
</g>
</g>
<!-- AS3356&#45;&gt;AS3549 -->
<g id="edge17" class="edge"><title>AS3356&#45;&gt;AS3549</title>
<path fill="none" stroke="black" d="M324.859,-259.339C340.816,-252.027 361.087,-242.739 378.369,-234.819"/>
<polygon fill="black" stroke="black" points="379.984,-237.929 387.617,-230.581 377.068,-231.565 379.984,-237.929"/>
</g>
<!-- AS209 -->
<g id="node18" class="node"><title>AS209</title>
<g id="a_node18"><a xlink:href="/asn/209" xlink:title="AS209 ~ CenturyLink Communications, LLC [US]">
<ellipse fill="#ffffff" stroke="black" cx="416.073" cy="-164" rx="35.194" ry="18"/>
<text text-anchor="middle" x="416.073" y="-160.3" font-family="Times,serif" font-size="14.00" fill="#2c94b3">AS209</text>
</a>
</g>
</g>
<!-- AS3356&#45;&gt;AS209 -->
<g id="edge21" class="edge"><title>AS3356&#45;&gt;AS209</title>
<path fill="none" stroke="black" d="M310.649,-254.935C324.764,-237.625 348.178,-210.655 371.877,-191 375.34,-188.128 379.132,-185.331 382.987,-182.692"/>
<polygon fill="black" stroke="black" points="384.948,-185.592 391.419,-177.203 381.129,-179.725 384.948,-185.592"/>
</g>
<!-- AS3320&#45;&gt;AS6453 -->
<g id="edge29" class="edge"><title>AS3320&#45;&gt;AS6453</title>
<path fill="none" stroke="black" d="M318.633,-551.037C333.472,-540.746 353.747,-526.852 371.877,-515 375.457,-512.659 379.227,-510.239 382.987,-507.852"/>
<polygon fill="black" stroke="black" points="385.05,-510.69 391.648,-502.4 381.32,-504.766 385.05,-510.69"/>
</g>
<!-- AS1239 -->
<g id="node15" class="node"><title>AS1239</title>
<g id="a_node15"><a xlink:href="/asn/1239" xlink:title="AS1239 ~ Sprint [US]">
<ellipse fill="#ffffff" stroke="black" cx="416.073" cy="-596" rx="39.7935" ry="18"/>
<text text-anchor="middle" x="416.073" y="-592.3" font-family="Times,serif" font-size="14.00" fill="#2c94b3">AS1239</text>
</a>
</g>
</g>
<!-- AS3320&#45;&gt;AS1239 -->
<g id="edge27" class="edge"><title>AS3320&#45;&gt;AS1239</title>
<path fill="none" stroke="black" d="M331.315,-574.677C343.774,-577.849 358.046,-581.482 371.236,-584.84"/>
<polygon fill="black" stroke="black" points="370.51,-588.267 381.064,-587.342 372.237,-581.483 370.51,-588.267"/>
</g>
<!-- AS701 -->
<g id="node20" class="node"><title>AS701</title>
<g id="a_node20"><a xlink:href="/asn/701" xlink:title="AS701 ~ UUNET [US]">
<ellipse fill="#ffffff" stroke="black" cx="416.073" cy="-650" rx="35.194" ry="18"/>
<text text-anchor="middle" x="416.073" y="-646.3" font-family="Times,serif" font-size="14.00" fill="#2c94b3">AS701</text>
</a>
</g>
</g>
<!-- AS3320&#45;&gt;AS701 -->
<g id="edge28" class="edge"><title>AS3320&#45;&gt;AS701</title>
<path fill="none" stroke="black" stroke-width="2" d="M316.505,-581.511C331.364,-593.273 352.569,-609.638 371.877,-623 375.66,-625.619 379.69,-628.288 383.71,-630.88"/>
<polygon fill="black" stroke="black" stroke-width="2" points="382.074,-633.986 392.395,-636.379 385.819,-628.072 382.074,-633.986"/>
</g>
<!-- AS1299&#45;&gt;AS174 -->
<g id="edge15" class="edge"><title>AS1299&#45;&gt;AS174</title>
<path fill="none" stroke="black" d="M326.36,-470.135C342.085,-463.73 361.652,-455.759 378.405,-448.935"/>
<polygon fill="black" stroke="black" points="379.953,-452.084 387.894,-445.071 377.312,-445.601 379.953,-452.084"/>
</g>
<!-- AS7018 -->
<g id="node12" class="node"><title>AS7018</title>
<g id="a_node12"><a xlink:href="/asn/7018" xlink:title="AS7018 ~ AT&amp;T Services, Inc. [US]">
<ellipse fill="#ffffff" stroke="black" cx="416.073" cy="-542" rx="39.7935" ry="18"/>
<text text-anchor="middle" x="416.073" y="-538.3" font-family="Times,serif" font-size="14.00" fill="#2c94b3">AS7018</text>
</a>
</g>
</g>
<!-- AS1299&#45;&gt;AS7018 -->
<g id="edge11" class="edge"><title>AS1299&#45;&gt;AS7018</title>
<path fill="none" stroke="black" stroke-width="2" d="M323.383,-495.316C340.013,-503.783 361.749,-514.85 379.884,-524.083"/>
<polygon fill="black" stroke="black" stroke-width="2" points="378.493,-527.303 388.993,-528.721 381.669,-521.065 378.493,-527.303"/>
</g>
<!-- AS1299&#45;&gt;AS6453 -->
<g id="edge12" class="edge"><title>AS1299&#45;&gt;AS6453</title>
<path fill="none" stroke="black" d="M335.816,-483.965C345.583,-484.462 356.199,-485.002 366.393,-485.521"/>
<polygon fill="black" stroke="black" points="366.235,-489.018 376.4,-486.031 366.591,-482.027 366.235,-489.018"/>
</g>
<!-- AS1299&#45;&gt;AS6762 -->
<g id="edge13" class="edge"><title>AS1299&#45;&gt;AS6762</title>
<path fill="none" stroke="black" d="M306.15,-464.223C321.95,-433.172 354.793,-370.675 371.877,-353 374.489,-350.297 377.424,-347.748 380.503,-345.375"/>
<polygon fill="black" stroke="black" points="382.68,-348.124 388.867,-339.524 378.667,-342.389 382.68,-348.124"/>
</g>
<!-- AS1299&#45;&gt;AS1239 -->
<g id="edge14" class="edge"><title>AS1299&#45;&gt;AS1239</title>
<path fill="none" stroke="black" d="M309.382,-499.048C323.165,-517.638 346.977,-547.591 371.877,-569 374.884,-571.586 378.163,-574.094 381.526,-576.472"/>
<polygon fill="black" stroke="black" points="379.692,-579.456 389.954,-582.088 383.573,-573.631 379.692,-579.456"/>
</g>
<!-- AS3491 -->
<g id="node22" class="node"><title>AS3491</title>
<g id="a_node22"><a xlink:href="/asn/3491" xlink:title="AS3491 ~ PCCW Global, Inc. [US]">
<ellipse fill="#ffffff" stroke="black" cx="535.915" cy="-276" rx="39.7935" ry="18"/>
<text text-anchor="middle" x="535.915" y="-272.3" font-family="Times,serif" font-size="14.00" fill="#2c94b3">AS3491</text>
</a>
</g>
</g>
<!-- AS174&#45;&gt;AS3491 -->
<g id="edge31" class="edge"><title>AS174&#45;&gt;AS3491</title>
<path fill="none" stroke="black" d="M441.951,-421.352C448.398,-417.334 455.001,-412.486 460.269,-407 489.783,-376.259 511.948,-331.636 524.174,-303.221"/>
<polygon fill="black" stroke="black" points="527.445,-304.471 528.08,-293.895 520.989,-301.767 527.445,-304.471"/>
</g>
<!-- AS3257&#45;&gt;AS6762 -->
<g id="edge25" class="edge"><title>AS3257&#45;&gt;AS6762</title>
<path fill="none" stroke="black" d="M336.143,-326C345.696,-326 356.046,-326 366.008,-326"/>
<polygon fill="black" stroke="black" points="366.201,-329.5 376.201,-326 366.201,-322.5 366.201,-329.5"/>
</g>
<!-- AS3257&#45;&gt;AS2497 -->
<g id="edge26" class="edge"><title>AS3257&#45;&gt;AS2497</title>
<path fill="none" stroke="black" stroke-width="2" d="M324.859,-313.339C340.816,-306.027 361.087,-296.739 378.369,-288.819"/>
<polygon fill="black" stroke="black" stroke-width="2" points="379.984,-291.929 387.617,-284.581 377.068,-285.565 379.984,-291.929"/>
</g>
<!-- AS6461 -->
<g id="node21" class="node"><title>AS6461</title>
<g id="a_node21"><a xlink:href="/asn/6461" xlink:title="AS6461 ~ Zayo Bandwidth [US]">
<ellipse fill="#ffffff" stroke="black" cx="416.073" cy="-18" rx="39.7935" ry="18"/>
<text text-anchor="middle" x="416.073" y="-14.3" font-family="Times,serif" font-size="14.00" fill="#2c94b3">AS6461</text>
</a>
</g>
</g>
<!-- AS8218&#45;&gt;AS6461 -->
<g id="edge30" class="edge"><title>AS8218&#45;&gt;AS6461</title>
<path fill="none" stroke="black" stroke-width="2" d="M308.692,-119.622C322.216,-99.9691 346.141,-67.7499 371.877,-45 374.848,-42.3734 378.104,-39.8384 381.453,-37.4437"/>
<polygon fill="black" stroke="black" stroke-width="2" points="383.505,-40.2821 389.863,-31.8074 379.608,-34.4672 383.505,-40.2821"/>
</g>
<!-- AS6939&#45;&gt;AS2497 -->
<g id="edge32" class="edge"><title>AS6939&#45;&gt;AS2497</title>
<path fill="none" stroke="black" d="M317.56,-206.277C332.423,-217.304 353.167,-232.407 371.877,-245 375.426,-247.389 379.176,-249.839 382.924,-252.242"/>
<polygon fill="black" stroke="black" points="381.251,-255.325 391.573,-257.712 384.993,-249.409 381.251,-255.325"/>
</g>
<!-- AS6939&#45;&gt;AS209 -->
<g id="edge34" class="edge"><title>AS6939&#45;&gt;AS209</title>
<path fill="none" stroke="black" d="M331.949,-183.045C345.042,-180.045 360.064,-176.604 373.705,-173.478"/>
<polygon fill="black" stroke="black" points="374.846,-176.807 383.812,-171.162 373.283,-169.984 374.846,-176.807"/>
</g>
<!-- AS6939&#45;&gt;AS3491 -->
<g id="edge33" class="edge"><title>AS6939&#45;&gt;AS3491</title>
<path fill="none" stroke="black" d="M318.987,-175.991C324.522,-172.121 330.44,-167.936 335.877,-164 352.076,-152.271 352.903,-143.325 371.877,-137 409.146,-124.577 426.553,-116.836 460.269,-137 500.36,-160.977 520.163,-214.696 528.917,-247.889"/>
<polygon fill="black" stroke="black" points="525.589,-249.01 531.383,-257.881 532.385,-247.333 525.589,-249.01"/>
</g>
<!-- AS1273 -->
<g id="node23" class="node"><title>AS1273</title>
<g id="a_node23"><a xlink:href="/asn/1273" xlink:title="AS1273 ~ Vodafone Group PLC [EU]">
<ellipse fill="#ffffff" stroke="black" cx="416.073" cy="-72" rx="39.7935" ry="18"/>
<text text-anchor="middle" x="416.073" y="-68.3" font-family="Times,serif" font-size="14.00" fill="#2c94b3">AS1273</text>
</a>
</g>
</g>
<!-- AS6939&#45;&gt;AS1273 -->
<g id="edge35" class="edge"><title>AS6939&#45;&gt;AS1273</title>
<path fill="none" stroke="black" d="M320.983,-176.763C326.233,-172.998 331.522,-168.668 335.877,-164 357.09,-141.261 350.981,-127.032 371.877,-104 375.469,-100.041 379.616,-96.251 383.89,-92.7534"/>
<polygon fill="black" stroke="black" points="386.346,-95.2809 392.153,-86.4194 382.087,-89.7253 386.346,-95.2809"/>
</g>
</g>
</svg>
