<?xml version="1.0" encoding="UTF-8" standalone="no"?>
<!DOCTYPE svg PUBLIC "-//W3C//DTD SVG 1.1//EN"
 "http://www.w3.org/Graphics/SVG/1.1/DTD/svg11.dtd">
<!-- Generated by graphviz version 2.38.0 (20140413.2041)
 -->
<!-- Title: AS207021 IPv4 Upstream Graph Pages: 1 -->
<svg width="708pt" height="584pt"
 viewBox="0.00 0.00 707.95 584.00" xmlns="http://www.w3.org/2000/svg" xmlns:xlink="http://www.w3.org/1999/xlink">
<g id="graph0" class="graph" transform="scale(1 1) rotate(0) translate(4 580)">
<title>AS207021 IPv4 Upstream Graph</title>
<polygon fill="white" stroke="none" points="-4,4 -4,-580 703.954,-580 703.954,4 -4,4"/>
<!-- AS207021 -->
<g id="node1" class="node"><title>AS207021</title>
<g id="a_node1"><a xlink:href="/asn/207021" xlink:title="AS207021 ~ ipcom GmbH [AT]">
<ellipse fill="#ffffff" stroke="black" cx="48.0957" cy="-235" rx="48.1917" ry="18"/>
<text text-anchor="middle" x="48.0957" y="-231.3" font-family="Times,serif" font-size="14.00" fill="#880000">AS207021</text>
</a>
</g>
</g>
<!-- AS30971 -->
<g id="node2" class="node"><title>AS30971</title>
<g id="a_node2"><a xlink:href="/asn/30971" xlink:title="AS30971 ~ Jakob&#45;Haringer&#45;Strasse 8 [AT]">
<ellipse fill="#ffffff" stroke="black" cx="176.388" cy="-259" rx="44.393" ry="18"/>
<text text-anchor="middle" x="176.388" y="-255.3" font-family="Times,serif" font-size="14.00" fill="#2c94b3">AS30971</text>
</a>
</g>
</g>
<!-- AS207021&#45;&gt;AS30971 -->
<g id="edge1" class="edge"><title>AS207021&#45;&gt;AS30971</title>
<path fill="none" stroke="black" stroke-width="0.25" d="M91.5004,-243.058C102.585,-245.165 114.629,-247.454 126.041,-249.622"/>
<polygon fill="black" stroke="black" stroke-width="0.25" points="125.389,-253.061 135.866,-251.49 126.696,-246.184 125.389,-253.061"/>
</g>
<!-- AS36236 -->
<g id="node3" class="node"><title>AS36236</title>
<g id="a_node3"><a xlink:href="/asn/36236" xlink:title="AS36236 ~ NetActuate, Inc [US]">
<ellipse fill="#ffffff" stroke="black" cx="300.78" cy="-207" rx="44.393" ry="18"/>
<text text-anchor="middle" x="300.78" y="-203.3" font-family="Times,serif" font-size="14.00" fill="#2c94b3">AS36236</text>
</a>
</g>
</g>
<!-- AS207021&#45;&gt;AS36236 -->
<g id="edge2" class="edge"><title>AS207021&#45;&gt;AS36236</title>
<path fill="none" stroke="black" stroke-width="4.5" d="M94.4927,-229.929C137.689,-225.105 202.627,-217.851 247.86,-212.799"/>
<polygon fill="black" stroke="black" stroke-width="4.5" points="248.551,-216.684 258.052,-211.661 247.677,-208.858 248.551,-216.684"/>
</g>
<!-- AS1764 -->
<g id="node4" class="node"><title>AS1764</title>
<g id="a_node4"><a xlink:href="/asn/1764" xlink:title="AS1764 ~ NEXTLAYER&#45;AS [AT]">
<ellipse fill="#ffffff" stroke="black" cx="300.78" cy="-288" rx="39.7935" ry="18"/>
<text text-anchor="middle" x="300.78" y="-284.3" font-family="Times,serif" font-size="14.00" fill="#2c94b3">AS1764</text>
</a>
</g>
</g>
<!-- AS30971&#45;&gt;AS1764 -->
<g id="edge3" class="edge"><title>AS30971&#45;&gt;AS1764</title>
<path fill="none" stroke="black" d="M215.108,-267.938C227.869,-270.961 242.236,-274.365 255.462,-277.499"/>
<polygon fill="black" stroke="black" points="254.77,-280.932 265.307,-279.832 256.384,-274.121 254.77,-280.932"/>
</g>
<!-- AS174 -->
<g id="node5" class="node"><title>AS174</title>
<g id="a_node5"><a xlink:href="/asn/174" xlink:title="AS174 ~ Cogent Communications [US]">
<ellipse fill="#ffffff" stroke="black" cx="425.172" cy="-315" rx="35.194" ry="18"/>
<text text-anchor="middle" x="425.172" y="-311.3" font-family="Times,serif" font-size="14.00" fill="#2c94b3">AS174</text>
</a>
</g>
</g>
<!-- AS36236&#45;&gt;AS174 -->
<g id="edge5" class="edge"><title>AS36236&#45;&gt;AS174</title>
<path fill="none" stroke="black" stroke-width="4.5" d="M320.368,-223.403C341.305,-241.878 375.452,-272.009 398.823,-292.632"/>
<polygon fill="black" stroke="black" stroke-width="4.5" points="396.498,-295.832 406.601,-299.496 401.709,-289.927 396.498,-295.832"/>
</g>
<!-- AS2914 -->
<g id="node6" class="node"><title>AS2914</title>
<g id="a_node6"><a xlink:href="/asn/2914" xlink:title="AS2914 ~ NTT America, Inc. [US]">
<ellipse fill="#ffffff" stroke="black" cx="425.172" cy="-207" rx="39.7935" ry="18"/>
<text text-anchor="middle" x="425.172" y="-203.3" font-family="Times,serif" font-size="14.00" fill="#2c94b3">AS2914</text>
</a>
</g>
</g>
<!-- AS36236&#45;&gt;AS2914 -->
<g id="edge6" class="edge"><title>AS36236&#45;&gt;AS2914</title>
<path fill="none" stroke="black" stroke-width="3.5" d="M345.275,-207C354.964,-207 365.301,-207 375.194,-207"/>
<polygon fill="black" stroke="black" stroke-width="3.5" points="375.296,-210.5 385.296,-207 375.296,-203.5 375.296,-210.5"/>
</g>
<!-- AS37100 -->
<g id="node7" class="node"><title>AS37100</title>
<g id="a_node7"><a xlink:href="/asn/37100" xlink:title="AS37100 ~ SEACOM Limited [MU]">
<ellipse fill="#ffffff" stroke="black" cx="425.172" cy="-59" rx="44.393" ry="18"/>
<text text-anchor="middle" x="425.172" y="-55.3" font-family="Times,serif" font-size="14.00" fill="#2c94b3">AS37100</text>
</a>
</g>
</g>
<!-- AS36236&#45;&gt;AS37100 -->
<g id="edge7" class="edge"><title>AS36236&#45;&gt;AS37100</title>
<path fill="none" stroke="black" stroke-width="0.5" d="M315.82,-190.023C337.285,-164.066 378.391,-114.36 403.34,-84.1905"/>
<polygon fill="black" stroke="black" stroke-width="0.5" points="406.243,-86.1722 409.919,-76.2354 400.849,-81.7111 406.243,-86.1722"/>
</g>
<!-- AS3741 -->
<g id="node8" class="node"><title>AS3741</title>
<g id="a_node8"><a xlink:href="/asn/3741" xlink:title="AS3741 ~ IS [ZA]">
<ellipse fill="#ffffff" stroke="black" cx="425.172" cy="-140" rx="39.7935" ry="18"/>
<text text-anchor="middle" x="425.172" y="-136.3" font-family="Times,serif" font-size="14.00" fill="#2c94b3">AS3741</text>
</a>
</g>
</g>
<!-- AS36236&#45;&gt;AS3741 -->
<g id="edge8" class="edge"><title>AS36236&#45;&gt;AS3741</title>
<path fill="none" stroke="black" stroke-width="0.5" d="M328.036,-192.627C346.227,-182.669 370.612,-169.32 390.271,-158.558"/>
<polygon fill="black" stroke="black" stroke-width="0.5" points="392.122,-161.535 399.213,-153.663 388.76,-155.395 392.122,-161.535"/>
</g>
<!-- AS1764&#45;&gt;AS174 -->
<g id="edge4" class="edge"><title>AS1764&#45;&gt;AS174</title>
<path fill="none" stroke="black" d="M336.852,-295.737C351.086,-298.877 367.641,-302.529 382.485,-305.804"/>
<polygon fill="black" stroke="black" points="381.92,-309.263 392.439,-308 383.428,-302.428 381.92,-309.263"/>
</g>
<!-- AS7018 -->
<g id="node9" class="node"><title>AS7018</title>
<g id="a_node9"><a xlink:href="/asn/7018" xlink:title="AS7018 ~ AT&amp;T Services, Inc. [US]">
<ellipse fill="#ffffff" stroke="black" cx="545.014" cy="-504" rx="39.7935" ry="18"/>
<text text-anchor="middle" x="545.014" y="-500.3" font-family="Times,serif" font-size="14.00" fill="#2c94b3">AS7018</text>
</a>
</g>
</g>
<!-- AS174&#45;&gt;AS7018 -->
<g id="edge9" class="edge"><title>AS174&#45;&gt;AS7018</title>
<path fill="none" stroke="black" d="M431.538,-332.74C441.802,-364.461 466.694,-431.808 505.368,-477 507.314,-479.274 509.492,-481.449 511.797,-483.507"/>
<polygon fill="black" stroke="black" points="509.966,-486.524 519.965,-490.027 514.333,-481.053 509.966,-486.524"/>
</g>
<!-- AS3257 -->
<g id="node10" class="node"><title>AS3257</title>
<g id="a_node10"><a xlink:href="/asn/3257" xlink:title="AS3257 ~ GTT [DE]">
<ellipse fill="#ffffff" stroke="black" cx="545.014" cy="-180" rx="39.7935" ry="18"/>
<text text-anchor="middle" x="545.014" y="-176.3" font-family="Times,serif" font-size="14.00" fill="#2c94b3">AS3257</text>
</a>
</g>
</g>
<!-- AS174&#45;&gt;AS3257 -->
<g id="edge10" class="edge"><title>AS174&#45;&gt;AS3257</title>
<path fill="none" stroke="black" d="M436.437,-297.56C450.246,-275.009 476.435,-235.278 505.368,-207 507.508,-204.908 509.825,-202.863 512.225,-200.894"/>
<polygon fill="black" stroke="black" points="514.736,-203.382 520.567,-194.536 510.492,-197.815 514.736,-203.382"/>
</g>
<!-- AS3356 -->
<g id="node11" class="node"><title>AS3356</title>
<g id="a_node11"><a xlink:href="/asn/3356" xlink:title="AS3356 ~ Level 3 Parent, LLC [US]">
<ellipse fill="#ffffff" stroke="black" cx="545.014" cy="-342" rx="39.7935" ry="18"/>
<text text-anchor="middle" x="545.014" y="-338.3" font-family="Times,serif" font-size="14.00" fill="#2c94b3">AS3356</text>
</a>
</g>
</g>
<!-- AS174&#45;&gt;AS3356 -->
<g id="edge11" class="edge"><title>AS174&#45;&gt;AS3356</title>
<path fill="none" stroke="black" d="M457.442,-322.165C470.281,-325.106 485.386,-328.567 499.353,-331.767"/>
<polygon fill="black" stroke="black" points="498.745,-335.219 509.274,-334.04 500.308,-328.395 498.745,-335.219"/>
</g>
<!-- AS1299 -->
<g id="node12" class="node"><title>AS1299</title>
<g id="a_node12"><a xlink:href="/asn/1299" xlink:title="AS1299 ~ Telia Carrier [EU]">
<ellipse fill="#ffffff" stroke="black" cx="545.014" cy="-288" rx="39.7935" ry="18"/>
<text text-anchor="middle" x="545.014" y="-284.3" font-family="Times,serif" font-size="14.00" fill="#2c94b3">AS1299</text>
</a>
</g>
</g>
<!-- AS174&#45;&gt;AS1299 -->
<g id="edge12" class="edge"><title>AS174&#45;&gt;AS1299</title>
<path fill="none" stroke="black" d="M457.442,-307.835C470.281,-304.894 485.386,-301.433 499.353,-298.233"/>
<polygon fill="black" stroke="black" points="500.308,-301.605 509.274,-295.96 498.745,-294.781 500.308,-301.605"/>
</g>
<!-- AS6453 -->
<g id="node13" class="node"><title>AS6453</title>
<g id="a_node13"><a xlink:href="/asn/6453" xlink:title="AS6453 ~ TATA COMMUNICATIONS (AMERICA) INC [US]">
<ellipse fill="#ffffff" stroke="black" cx="545.014" cy="-450" rx="39.7935" ry="18"/>
<text text-anchor="middle" x="545.014" y="-446.3" font-family="Times,serif" font-size="14.00" fill="#2c94b3">AS6453</text>
</a>
</g>
</g>
<!-- AS174&#45;&gt;AS6453 -->
<g id="edge13" class="edge"><title>AS174&#45;&gt;AS6453</title>
<path fill="none" stroke="black" d="M436.437,-332.44C450.246,-354.991 476.435,-394.722 505.368,-423 507.508,-425.092 509.825,-427.137 512.225,-429.106"/>
<polygon fill="black" stroke="black" points="510.492,-432.185 520.567,-435.464 514.736,-426.618 510.492,-432.185"/>
</g>
<!-- AS209 -->
<g id="node14" class="node"><title>AS209</title>
<g id="a_node14"><a xlink:href="/asn/209" xlink:title="AS209 ~ CenturyLink Communications, LLC [US]">
<ellipse fill="#ffffff" stroke="black" cx="545.014" cy="-396" rx="35.194" ry="18"/>
<text text-anchor="middle" x="545.014" y="-392.3" font-family="Times,serif" font-size="14.00" fill="#2c94b3">AS209</text>
</a>
</g>
</g>
<!-- AS174&#45;&gt;AS209 -->
<g id="edge14" class="edge"><title>AS174&#45;&gt;AS209</title>
<path fill="none" stroke="black" d="M446.968,-329.295C465.784,-342.228 493.69,-361.409 514.754,-375.888"/>
<polygon fill="black" stroke="black" points="512.806,-378.796 523.029,-381.576 516.771,-373.027 512.806,-378.796"/>
</g>
<!-- AS6762 -->
<g id="node15" class="node"><title>AS6762</title>
<g id="a_node15"><a xlink:href="/asn/6762" xlink:title="AS6762 ~ TELECOM ITALIA SPARKLE S.p.A. [IT]">
<ellipse fill="#ffffff" stroke="black" cx="545.014" cy="-234" rx="39.7935" ry="18"/>
<text text-anchor="middle" x="545.014" y="-230.3" font-family="Times,serif" font-size="14.00" fill="#2c94b3">AS6762</text>
</a>
</g>
</g>
<!-- AS174&#45;&gt;AS6762 -->
<g id="edge15" class="edge"><title>AS174&#45;&gt;AS6762</title>
<path fill="none" stroke="black" d="M446.968,-300.705C465.552,-287.932 493.003,-269.063 513.971,-254.651"/>
<polygon fill="black" stroke="black" points="515.97,-257.524 522.229,-248.975 512.005,-251.755 515.97,-257.524"/>
</g>
<!-- AS1239 -->
<g id="node16" class="node"><title>AS1239</title>
<g id="a_node16"><a xlink:href="/asn/1239" xlink:title="AS1239 ~ Sprint [US]">
<ellipse fill="#ffffff" stroke="black" cx="545.014" cy="-558" rx="39.7935" ry="18"/>
<text text-anchor="middle" x="545.014" y="-554.3" font-family="Times,serif" font-size="14.00" fill="#2c94b3">AS1239</text>
</a>
</g>
</g>
<!-- AS174&#45;&gt;AS1239 -->
<g id="edge16" class="edge"><title>AS174&#45;&gt;AS1239</title>
<path fill="none" stroke="black" d="M428.99,-332.99C435.918,-372.435 456.874,-468.025 505.368,-531 507.147,-533.31 509.179,-535.5 511.36,-537.559"/>
<polygon fill="black" stroke="black" points="509.256,-540.361 519.193,-544.036 513.716,-534.966 509.256,-540.361"/>
</g>
<!-- AS2914&#45;&gt;AS3257 -->
<g id="edge21" class="edge"><title>AS2914&#45;&gt;AS3257</title>
<path fill="none" stroke="black" d="M460.891,-199.045C472.891,-196.296 486.512,-193.175 499.205,-190.267"/>
<polygon fill="black" stroke="black" points="500.17,-193.636 509.136,-187.991 498.607,-186.813 500.17,-193.636"/>
</g>
<!-- AS2914&#45;&gt;AS3356 -->
<g id="edge22" class="edge"><title>AS2914&#45;&gt;AS3356</title>
<path fill="none" stroke="black" d="M436.437,-224.44C450.246,-246.991 476.435,-286.722 505.368,-315 507.508,-317.092 509.825,-319.137 512.225,-321.106"/>
<polygon fill="black" stroke="black" points="510.492,-324.185 520.567,-327.464 514.736,-318.618 510.492,-324.185"/>
</g>
<!-- AS2914&#45;&gt;AS1299 -->
<g id="edge18" class="edge"><title>AS2914&#45;&gt;AS1299</title>
<path fill="none" stroke="black" d="M447.786,-221.857C466.274,-234.565 493.088,-252.995 513.718,-267.175"/>
<polygon fill="black" stroke="black" points="511.915,-270.183 522.138,-272.963 515.88,-264.414 511.915,-270.183"/>
</g>
<!-- AS2914&#45;&gt;AS6762 -->
<g id="edge19" class="edge"><title>AS2914&#45;&gt;AS6762</title>
<path fill="none" stroke="black" d="M460.891,-214.955C472.891,-217.704 486.512,-220.825 499.205,-223.733"/>
<polygon fill="black" stroke="black" points="498.607,-227.187 509.136,-226.009 500.17,-220.364 498.607,-227.187"/>
</g>
<!-- AS2497 -->
<g id="node17" class="node"><title>AS2497</title>
<g id="a_node17"><a xlink:href="/asn/2497" xlink:title="AS2497 ~ Internet Initiative Japan Inc. [JP]">
<ellipse fill="#ffffff" stroke="black" cx="545.014" cy="-72" rx="39.7935" ry="18"/>
<text text-anchor="middle" x="545.014" y="-68.3" font-family="Times,serif" font-size="14.00" fill="#2c94b3">AS2497</text>
</a>
</g>
</g>
<!-- AS2914&#45;&gt;AS2497 -->
<g id="edge17" class="edge"><title>AS2914&#45;&gt;AS2497</title>
<path fill="none" stroke="black" d="M445.61,-191.507C453.577,-184.553 462.516,-175.914 469.368,-167 490.208,-139.888 482.718,-124.62 505.368,-99 507.35,-96.758 509.554,-94.6056 511.877,-92.5631"/>
<polygon fill="black" stroke="black" points="514.41,-95.0219 520.078,-86.0707 510.065,-89.5336 514.41,-95.0219"/>
</g>
<!-- AS701 -->
<g id="node18" class="node"><title>AS701</title>
<g id="a_node18"><a xlink:href="/asn/701" xlink:title="AS701 ~ UUNET [US]">
<ellipse fill="#ffffff" stroke="black" cx="545.014" cy="-126" rx="35.194" ry="18"/>
<text text-anchor="middle" x="545.014" y="-122.3" font-family="Times,serif" font-size="14.00" fill="#2c94b3">AS701</text>
</a>
</g>
</g>
<!-- AS2914&#45;&gt;AS701 -->
<g id="edge20" class="edge"><title>AS2914&#45;&gt;AS701</title>
<path fill="none" stroke="black" d="M447.786,-192.143C466.623,-179.195 494.103,-160.307 514.879,-146.027"/>
<polygon fill="black" stroke="black" points="517.069,-148.768 523.328,-140.219 513.104,-142.999 517.069,-148.768"/>
</g>
<!-- AS3491 -->
<g id="node19" class="node"><title>AS3491</title>
<g id="a_node19"><a xlink:href="/asn/3491" xlink:title="AS3491 ~ PCCW Global, Inc. [US]">
<ellipse fill="#ffffff" stroke="black" cx="545.014" cy="-18" rx="39.7935" ry="18"/>
<text text-anchor="middle" x="545.014" y="-14.3" font-family="Times,serif" font-size="14.00" fill="#2c94b3">AS3491</text>
</a>
</g>
</g>
<!-- AS37100&#45;&gt;AS3491 -->
<g id="edge23" class="edge"><title>AS37100&#45;&gt;AS3491</title>
<path fill="none" stroke="black" d="M459.311,-47.4701C473.028,-42.6976 489.068,-37.117 503.477,-32.1037"/>
<polygon fill="black" stroke="black" points="504.85,-35.3322 513.144,-28.7405 502.549,-28.7209 504.85,-35.3322"/>
</g>
<!-- AS3741&#45;&gt;AS3491 -->
<g id="edge24" class="edge"><title>AS3741&#45;&gt;AS3491</title>
<path fill="none" stroke="black" d="M440.053,-122.852C460.772,-97.3346 498.132,-51.6446 505.368,-45 507.779,-42.7856 510.381,-40.604 513.054,-38.4991"/>
<polygon fill="black" stroke="black" points="515.238,-41.2364 521.17,-32.4579 511.058,-35.6212 515.238,-41.2364"/>
</g>
<!-- AS3549 -->
<g id="node20" class="node"><title>AS3549</title>
<g id="a_node20"><a xlink:href="/asn/3549" xlink:title="AS3549 ~ Level 3 Parent, LLC [US]">
<ellipse fill="#ffffff" stroke="black" cx="660.307" cy="-342" rx="39.7935" ry="18"/>
<text text-anchor="middle" x="660.307" y="-338.3" font-family="Times,serif" font-size="14.00" fill="#2c94b3">AS3549</text>
</a>
</g>
</g>
<!-- AS3356&#45;&gt;AS3549 -->
<g id="edge25" class="edge"><title>AS3356&#45;&gt;AS3549</title>
<path fill="none" stroke="black" d="M584.687,-342C592.89,-342 601.654,-342 610.186,-342"/>
<polygon fill="black" stroke="black" points="610.425,-345.5 620.425,-342 610.425,-338.5 610.425,-345.5"/>
</g>
</g>
</svg>
