<?xml version="1.0" encoding="UTF-8" standalone="no"?>
<!DOCTYPE svg PUBLIC "-//W3C//DTD SVG 1.1//EN"
 "http://www.w3.org/Graphics/SVG/1.1/DTD/svg11.dtd">
<!-- Generated by graphviz version 2.38.0 (20140413.2041)
 -->
<!-- Title: AS8339 Combined Upstream Graph Pages: 1 -->
<svg width="451pt" height="638pt"
 viewBox="0.00 0.00 451.37 638.00" xmlns="http://www.w3.org/2000/svg" xmlns:xlink="http://www.w3.org/1999/xlink">
<g id="graph0" class="graph" transform="scale(1 1) rotate(0) translate(4 634)">
<title>AS8339 Combined Upstream Graph</title>
<polygon fill="white" stroke="none" points="-4,4 -4,-634 447.37,-634 447.37,4 -4,4"/>
<!-- AS8339 -->
<g id="node1" class="node"><title>AS8339</title>
<g id="a_node1"><a xlink:href="/asn/8339" xlink:title="AS8339 ~ kabelplus GmbH [AT]">
<ellipse fill="#ffffff" stroke="black" cx="39.6465" cy="-342" rx="39.7935" ry="18"/>
<text text-anchor="middle" x="39.6465" y="-338.3" font-family="Times,serif" font-size="14.00" fill="#880000">AS8339</text>
</a>
</g>
</g>
<!-- AS1764 -->
<g id="node2" class="node"><title>AS1764</title>
<g id="a_node2"><a xlink:href="/asn/1764" xlink:title="AS1764 ~ NEXTLAYER&#45;AS [AT]">
<ellipse fill="#ffffff" stroke="black" cx="159.489" cy="-477" rx="39.7935" ry="18"/>
<text text-anchor="middle" x="159.489" y="-473.3" font-family="Times,serif" font-size="14.00" fill="#2c94b3">AS1764</text>
</a>
</g>
</g>
<!-- AS8339&#45;&gt;AS1764 -->
<g id="edge1" class="edge"><title>AS8339&#45;&gt;AS1764</title>
<path fill="none" stroke="black" stroke-width="3.3" d="M55.3331,-358.825C75.9096,-382.397 113.447,-425.4 137.12,-452.52"/>
<polygon fill="black" stroke="black" stroke-width="3.3" points="134.775,-455.155 143.988,-460.387 140.048,-450.552 134.775,-455.155"/>
</g>
<!-- AS33891 -->
<g id="node3" class="node"><title>AS33891</title>
<g id="a_node3"><a xlink:href="/asn/33891" xlink:title="AS33891 ~ CORE&#45;BACKBONE GMBH GLOBAL NETWORK [DE]">
<ellipse fill="#ffffff" stroke="black" cx="159.489" cy="-261" rx="44.393" ry="18"/>
<text text-anchor="middle" x="159.489" y="-257.3" font-family="Times,serif" font-size="14.00" fill="#2c94b3">AS33891</text>
</a>
</g>
</g>
<!-- AS8339&#45;&gt;AS33891 -->
<g id="edge2" class="edge"><title>AS8339&#45;&gt;AS33891</title>
<path fill="none" stroke="black" stroke-width="4.5" d="M62.2606,-327.143C80.6328,-314.515 107.226,-296.236 127.803,-282.093"/>
<polygon fill="black" stroke="black" stroke-width="4.5" points="130.201,-285.222 136.211,-276.313 125.74,-278.732 130.201,-285.222"/>
</g>
<!-- AS6939 -->
<g id="node4" class="node"><title>AS6939</title>
<g id="a_node4"><a xlink:href="/asn/6939" xlink:title="AS6939 ~ Hurricane Electric LLC [US]">
<ellipse fill="#ffffff" stroke="black" cx="279.332" cy="-342" rx="39.7935" ry="18"/>
<text text-anchor="middle" x="279.332" y="-338.3" font-family="Times,serif" font-size="14.00" fill="#2c94b3">AS6939</text>
</a>
</g>
</g>
<!-- AS8339&#45;&gt;AS6939 -->
<g id="edge3" class="edge"><title>AS8339&#45;&gt;AS6939</title>
<path fill="none" stroke="black" stroke-width="2.1" d="M79.3637,-342C120.282,-342 184.922,-342 229.356,-342"/>
<polygon fill="black" stroke="black" stroke-width="2.1" points="229.631,-345.5 239.631,-342 229.631,-338.5 229.631,-345.5"/>
</g>
<!-- AS2914 -->
<g id="node5" class="node"><title>AS2914</title>
<g id="a_node5"><a xlink:href="/asn/2914" xlink:title="AS2914 ~ NTT America, Inc. [US]">
<ellipse fill="#ffffff" stroke="black" cx="279.332" cy="-450" rx="39.7935" ry="18"/>
<text text-anchor="middle" x="279.332" y="-446.3" font-family="Times,serif" font-size="14.00" fill="#2c94b3">AS2914</text>
</a>
</g>
</g>
<!-- AS1764&#45;&gt;AS2914 -->
<g id="edge4" class="edge"><title>AS1764&#45;&gt;AS2914</title>
<path fill="none" stroke="black" stroke-width="4.5" d="M195.208,-469.045C207.208,-466.296 220.829,-463.175 233.522,-460.267"/>
<polygon fill="black" stroke="black" stroke-width="4.5" points="234.585,-464.063 243.453,-457.991 232.826,-456.387 234.585,-464.063"/>
</g>
<!-- AS174 -->
<g id="node6" class="node"><title>AS174</title>
<g id="a_node6"><a xlink:href="/asn/174" xlink:title="AS174 ~ Cogent Communications [US]">
<ellipse fill="#ffffff" stroke="black" cx="279.332" cy="-504" rx="35.194" ry="18"/>
<text text-anchor="middle" x="279.332" y="-500.3" font-family="Times,serif" font-size="14.00" fill="#2c94b3">AS174</text>
</a>
</g>
</g>
<!-- AS1764&#45;&gt;AS174 -->
<g id="edge5" class="edge"><title>AS1764&#45;&gt;AS174</title>
<path fill="none" stroke="black" stroke-width="3.6" d="M195.208,-484.955C208.301,-487.955 223.323,-491.396 236.964,-494.522"/>
<polygon fill="black" stroke="black" stroke-width="3.6" points="236.542,-498.016 247.071,-496.838 238.105,-491.193 236.542,-498.016"/>
</g>
<!-- AS8218 -->
<g id="node7" class="node"><title>AS8218</title>
<g id="a_node7"><a xlink:href="/asn/8218" xlink:title="AS8218 ~ legacy Neotelecoms [FR]">
<ellipse fill="#ffffff" stroke="black" cx="279.332" cy="-585" rx="39.7935" ry="18"/>
<text text-anchor="middle" x="279.332" y="-581.3" font-family="Times,serif" font-size="14.00" fill="#2c94b3">AS8218</text>
</a>
</g>
</g>
<!-- AS1764&#45;&gt;AS8218 -->
<g id="edge6" class="edge"><title>AS1764&#45;&gt;AS8218</title>
<path fill="none" stroke="black" stroke-width="1.8" d="M178.131,-493.169C198.004,-511.382 230.466,-541.133 253.035,-561.817"/>
<polygon fill="black" stroke="black" stroke-width="1.8" points="250.832,-564.545 260.569,-568.721 255.561,-559.384 250.832,-564.545"/>
</g>
<!-- AS3257 -->
<g id="node13" class="node"><title>AS3257</title>
<g id="a_node13"><a xlink:href="/asn/3257" xlink:title="AS3257 ~ GTT [DE]">
<ellipse fill="#ffffff" stroke="black" cx="279.332" cy="-234" rx="39.7935" ry="18"/>
<text text-anchor="middle" x="279.332" y="-230.3" font-family="Times,serif" font-size="14.00" fill="#2c94b3">AS3257</text>
</a>
</g>
</g>
<!-- AS33891&#45;&gt;AS3257 -->
<g id="edge13" class="edge"><title>AS33891&#45;&gt;AS3257</title>
<path fill="none" stroke="black" stroke-width="0.5" d="M198.424,-252.308C209.664,-249.733 222.077,-246.889 233.7,-244.226"/>
<polygon fill="black" stroke="black" stroke-width="0.5" points="234.696,-247.588 243.662,-241.943 233.133,-240.765 234.696,-247.588"/>
</g>
<!-- AS1299 -->
<g id="node14" class="node"><title>AS1299</title>
<g id="a_node14"><a xlink:href="/asn/1299" xlink:title="AS1299 ~ Telia Carrier [EU]">
<ellipse fill="#ffffff" stroke="black" cx="279.332" cy="-288" rx="39.7935" ry="18"/>
<text text-anchor="middle" x="279.332" y="-284.3" font-family="Times,serif" font-size="14.00" fill="#2c94b3">AS1299</text>
</a>
</g>
</g>
<!-- AS33891&#45;&gt;AS1299 -->
<g id="edge14" class="edge"><title>AS33891&#45;&gt;AS1299</title>
<path fill="none" stroke="black" stroke-width="2.5" d="M198.424,-269.692C209.664,-272.267 222.077,-275.111 233.7,-277.774"/>
<polygon fill="black" stroke="black" stroke-width="2.5" points="233.133,-281.235 243.662,-280.057 234.696,-274.412 233.133,-281.235"/>
</g>
<!-- AS3356 -->
<g id="node15" class="node"><title>AS3356</title>
<g id="a_node15"><a xlink:href="/asn/3356" xlink:title="AS3356 ~ Level 3 Parent, LLC [US]">
<ellipse fill="#ffffff" stroke="black" cx="279.332" cy="-180" rx="39.7935" ry="18"/>
<text text-anchor="middle" x="279.332" y="-176.3" font-family="Times,serif" font-size="14.00" fill="#2c94b3">AS3356</text>
</a>
</g>
</g>
<!-- AS33891&#45;&gt;AS3356 -->
<g id="edge15" class="edge"><title>AS33891&#45;&gt;AS3356</title>
<path fill="none" stroke="black" stroke-width="4.5" d="M182.932,-245.574C201.513,-232.802 228.074,-214.545 248.453,-200.537"/>
<polygon fill="black" stroke="black" stroke-width="4.5" points="250.757,-203.731 256.768,-194.822 246.296,-197.242 250.757,-203.731"/>
</g>
<!-- AS2497 -->
<g id="node8" class="node"><title>AS2497</title>
<g id="a_node8"><a xlink:href="/asn/2497" xlink:title="AS2497 ~ Internet Initiative Japan Inc. [JP]">
<ellipse fill="#ffffff" stroke="black" cx="399.174" cy="-342" rx="39.7935" ry="18"/>
<text text-anchor="middle" x="399.174" y="-338.3" font-family="Times,serif" font-size="14.00" fill="#2c94b3">AS2497</text>
</a>
</g>
</g>
<!-- AS6939&#45;&gt;AS2497 -->
<g id="edge28" class="edge"><title>AS6939&#45;&gt;AS2497</title>
<path fill="none" stroke="black" d="M319.244,-342C328.798,-342 339.147,-342 349.11,-342"/>
<polygon fill="black" stroke="black" points="349.302,-345.5 359.302,-342 349.302,-338.5 349.302,-345.5"/>
</g>
<!-- AS6762 -->
<g id="node10" class="node"><title>AS6762</title>
<g id="a_node10"><a xlink:href="/asn/6762" xlink:title="AS6762 ~ TELECOM ITALIA SPARKLE S.p.A. [IT]">
<ellipse fill="#ffffff" stroke="black" cx="399.174" cy="-450" rx="39.7935" ry="18"/>
<text text-anchor="middle" x="399.174" y="-446.3" font-family="Times,serif" font-size="14.00" fill="#2c94b3">AS6762</text>
</a>
</g>
</g>
<!-- AS6939&#45;&gt;AS6762 -->
<g id="edge31" class="edge"><title>AS6939&#45;&gt;AS6762</title>
<path fill="none" stroke="black" d="M293.751,-359.065C307.865,-376.375 331.28,-403.345 354.978,-423 358.194,-425.668 361.695,-428.27 365.265,-430.741"/>
<polygon fill="black" stroke="black" points="363.343,-433.666 373.622,-436.236 367.189,-427.817 363.343,-433.666"/>
</g>
<!-- AS3491 -->
<g id="node11" class="node"><title>AS3491</title>
<g id="a_node11"><a xlink:href="/asn/3491" xlink:title="AS3491 ~ PCCW Global, Inc. [US]">
<ellipse fill="#ffffff" stroke="black" cx="399.174" cy="-558" rx="39.7935" ry="18"/>
<text text-anchor="middle" x="399.174" y="-554.3" font-family="Times,serif" font-size="14.00" fill="#2c94b3">AS3491</text>
</a>
</g>
</g>
<!-- AS6939&#45;&gt;AS3491 -->
<g id="edge30" class="edge"><title>AS6939&#45;&gt;AS3491</title>
<path fill="none" stroke="black" d="M289.412,-359.417C297.681,-375.634 309.942,-400.603 318.978,-423 337.908,-469.922 323.679,-491.246 354.978,-531 357.303,-533.953 360.047,-536.67 363.006,-539.147"/>
<polygon fill="black" stroke="black" points="361.065,-542.064 371.203,-545.145 365.199,-536.415 361.065,-542.064"/>
</g>
<!-- AS701 -->
<g id="node17" class="node"><title>AS701</title>
<g id="a_node17"><a xlink:href="/asn/701" xlink:title="AS701 ~ UUNET [US]">
<ellipse fill="#ffffff" stroke="black" cx="399.174" cy="-234" rx="35.194" ry="18"/>
<text text-anchor="middle" x="399.174" y="-230.3" font-family="Times,serif" font-size="14.00" fill="#2c94b3">AS701</text>
</a>
</g>
</g>
<!-- AS6939&#45;&gt;AS701 -->
<g id="edge27" class="edge"><title>AS6939&#45;&gt;AS701</title>
<path fill="none" stroke="black" d="M303.926,-327.611C309.182,-323.852 314.513,-319.563 318.978,-315 339.151,-294.383 334.285,-281.094 354.978,-261 358.206,-257.866 361.857,-254.911 365.635,-252.188"/>
<polygon fill="black" stroke="black" points="367.614,-255.075 373.995,-246.617 363.732,-249.25 367.614,-255.075"/>
</g>
<!-- AS6453 -->
<g id="node20" class="node"><title>AS6453</title>
<g id="a_node20"><a xlink:href="/asn/6453" xlink:title="AS6453 ~ TATA COMMUNICATIONS (AMERICA) INC [US]">
<ellipse fill="#ffffff" stroke="black" cx="399.174" cy="-180" rx="39.7935" ry="18"/>
<text text-anchor="middle" x="399.174" y="-176.3" font-family="Times,serif" font-size="14.00" fill="#2c94b3">AS6453</text>
</a>
</g>
</g>
<!-- AS6939&#45;&gt;AS6453 -->
<g id="edge32" class="edge"><title>AS6939&#45;&gt;AS6453</title>
<path fill="none" stroke="black" d="M305.262,-328.118C310.338,-324.389 315.256,-319.984 318.978,-315 349.249,-274.458 323.679,-246.754 354.978,-207 357.303,-204.047 360.047,-201.33 363.006,-198.853"/>
<polygon fill="black" stroke="black" points="365.199,-201.585 371.203,-192.855 361.065,-195.936 365.199,-201.585"/>
</g>
<!-- AS7018 -->
<g id="node21" class="node"><title>AS7018</title>
<g id="a_node21"><a xlink:href="/asn/7018" xlink:title="AS7018 ~ AT&amp;T Services, Inc. [US]">
<ellipse fill="#ffffff" stroke="black" cx="399.174" cy="-288" rx="39.7935" ry="18"/>
<text text-anchor="middle" x="399.174" y="-284.3" font-family="Times,serif" font-size="14.00" fill="#2c94b3">AS7018</text>
</a>
</g>
</g>
<!-- AS6939&#45;&gt;AS7018 -->
<g id="edge26" class="edge"><title>AS6939&#45;&gt;AS7018</title>
<path fill="none" stroke="black" d="M307.96,-329.339C323.917,-322.027 344.188,-312.739 361.471,-304.819"/>
<polygon fill="black" stroke="black" points="363.085,-307.929 370.718,-300.581 360.169,-301.565 363.085,-307.929"/>
</g>
<!-- AS1273 -->
<g id="node22" class="node"><title>AS1273</title>
<g id="a_node22"><a xlink:href="/asn/1273" xlink:title="AS1273 ~ Vodafone Group PLC [EU]">
<ellipse fill="#ffffff" stroke="black" cx="399.174" cy="-396" rx="39.7935" ry="18"/>
<text text-anchor="middle" x="399.174" y="-392.3" font-family="Times,serif" font-size="14.00" fill="#2c94b3">AS1273</text>
</a>
</g>
</g>
<!-- AS6939&#45;&gt;AS1273 -->
<g id="edge29" class="edge"><title>AS6939&#45;&gt;AS1273</title>
<path fill="none" stroke="black" d="M307.96,-354.661C323.917,-361.973 344.188,-371.261 361.471,-379.181"/>
<polygon fill="black" stroke="black" points="360.169,-382.435 370.718,-383.419 363.085,-376.071 360.169,-382.435"/>
</g>
<!-- AS2914&#45;&gt;AS2497 -->
<g id="edge7" class="edge"><title>AS2914&#45;&gt;AS2497</title>
<path fill="none" stroke="black" d="M293.751,-432.935C307.865,-415.625 331.28,-388.655 354.978,-369 358.194,-366.332 361.695,-363.73 365.265,-361.259"/>
<polygon fill="black" stroke="black" points="367.189,-364.183 373.622,-355.764 363.343,-358.334 367.189,-364.183"/>
</g>
<!-- AS12956 -->
<g id="node9" class="node"><title>AS12956</title>
<g id="a_node9"><a xlink:href="/asn/12956" xlink:title="AS12956 ~ TELXIUS [ES]">
<ellipse fill="#ffffff" stroke="black" cx="399.174" cy="-504" rx="44.393" ry="18"/>
<text text-anchor="middle" x="399.174" y="-500.3" font-family="Times,serif" font-size="14.00" fill="#2c94b3">AS12956</text>
</a>
</g>
</g>
<!-- AS2914&#45;&gt;AS12956 -->
<g id="edge8" class="edge"><title>AS2914&#45;&gt;AS12956</title>
<path fill="none" stroke="black" d="M307.96,-462.661C323.458,-469.762 343.025,-478.728 359.971,-486.494"/>
<polygon fill="black" stroke="black" points="358.525,-489.681 369.074,-490.665 361.441,-483.317 358.525,-489.681"/>
</g>
<!-- AS2914&#45;&gt;AS6762 -->
<g id="edge9" class="edge"><title>AS2914&#45;&gt;AS6762</title>
<path fill="none" stroke="black" d="M319.244,-450C328.798,-450 339.147,-450 349.11,-450"/>
<polygon fill="black" stroke="black" points="349.302,-453.5 359.302,-450 349.302,-446.5 349.302,-453.5"/>
</g>
<!-- AS174&#45;&gt;AS6762 -->
<g id="edge11" class="edge"><title>AS174&#45;&gt;AS6762</title>
<path fill="none" stroke="black" d="M306.193,-492.149C322.313,-484.762 343.316,-475.138 361.181,-466.952"/>
<polygon fill="black" stroke="black" points="363.099,-469.923 370.732,-462.575 360.183,-463.559 363.099,-469.923"/>
</g>
<!-- AS174&#45;&gt;AS3491 -->
<g id="edge10" class="edge"><title>AS174&#45;&gt;AS3491</title>
<path fill="none" stroke="black" d="M306.193,-515.851C322.313,-523.238 343.316,-532.862 361.181,-541.048"/>
<polygon fill="black" stroke="black" points="360.183,-544.441 370.732,-545.425 363.099,-538.077 360.183,-544.441"/>
</g>
<!-- AS6461 -->
<g id="node12" class="node"><title>AS6461</title>
<g id="a_node12"><a xlink:href="/asn/6461" xlink:title="AS6461 ~ Zayo Bandwidth [US]">
<ellipse fill="#ffffff" stroke="black" cx="399.174" cy="-612" rx="39.7935" ry="18"/>
<text text-anchor="middle" x="399.174" y="-608.3" font-family="Times,serif" font-size="14.00" fill="#2c94b3">AS6461</text>
</a>
</g>
</g>
<!-- AS8218&#45;&gt;AS6461 -->
<g id="edge12" class="edge"><title>AS8218&#45;&gt;AS6461</title>
<path fill="none" stroke="black" stroke-width="2" d="M315.051,-592.955C327.051,-595.704 340.672,-598.825 353.364,-601.733"/>
<polygon fill="black" stroke="black" stroke-width="2" points="352.767,-605.187 363.296,-604.009 354.33,-598.364 352.767,-605.187"/>
</g>
<!-- AS1299&#45;&gt;AS6762 -->
<g id="edge25" class="edge"><title>AS1299&#45;&gt;AS6762</title>
<path fill="none" stroke="black" d="M305.262,-301.882C310.338,-305.611 315.256,-310.016 318.978,-315 349.249,-355.542 323.679,-383.246 354.978,-423 357.303,-425.953 360.047,-428.67 363.006,-431.147"/>
<polygon fill="black" stroke="black" points="361.065,-434.064 371.203,-437.145 365.199,-428.415 361.065,-434.064"/>
</g>
<!-- AS1239 -->
<g id="node16" class="node"><title>AS1239</title>
<g id="a_node16"><a xlink:href="/asn/1239" xlink:title="AS1239 ~ Sprint [US]">
<ellipse fill="#ffffff" stroke="black" cx="399.174" cy="-126" rx="39.7935" ry="18"/>
<text text-anchor="middle" x="399.174" y="-122.3" font-family="Times,serif" font-size="14.00" fill="#2c94b3">AS1239</text>
</a>
</g>
</g>
<!-- AS1299&#45;&gt;AS1239 -->
<g id="edge23" class="edge"><title>AS1299&#45;&gt;AS1239</title>
<path fill="none" stroke="black" d="M305.262,-274.118C310.338,-270.389 315.256,-265.984 318.978,-261 349.249,-220.458 323.679,-192.754 354.978,-153 357.303,-150.047 360.047,-147.33 363.006,-144.853"/>
<polygon fill="black" stroke="black" points="365.199,-147.585 371.203,-138.855 361.065,-141.936 365.199,-147.585"/>
</g>
<!-- AS1299&#45;&gt;AS7018 -->
<g id="edge24" class="edge"><title>AS1299&#45;&gt;AS7018</title>
<path fill="none" stroke="black" d="M319.244,-288C328.798,-288 339.147,-288 349.11,-288"/>
<polygon fill="black" stroke="black" points="349.302,-291.5 359.302,-288 349.302,-284.5 349.302,-291.5"/>
</g>
<!-- AS3356&#45;&gt;AS2497 -->
<g id="edge21" class="edge"><title>AS3356&#45;&gt;AS2497</title>
<path fill="none" stroke="black" d="M305.262,-193.882C310.338,-197.611 315.256,-202.016 318.978,-207 349.249,-247.542 323.679,-275.246 354.978,-315 357.303,-317.953 360.047,-320.67 363.006,-323.147"/>
<polygon fill="black" stroke="black" points="361.065,-326.064 371.203,-329.145 365.199,-320.415 361.065,-326.064"/>
</g>
<!-- AS3356&#45;&gt;AS6762 -->
<g id="edge19" class="edge"><title>AS3356&#45;&gt;AS6762</title>
<path fill="none" stroke="black" d="M305.858,-193.472C310.903,-197.223 315.658,-201.74 318.978,-207 370.928,-289.3 300.94,-342.056 354.978,-423 356.893,-425.869 359.227,-428.49 361.808,-430.872"/>
<polygon fill="black" stroke="black" points="360.071,-433.954 370.12,-437.313 364.359,-428.421 360.071,-433.954"/>
</g>
<!-- AS3356&#45;&gt;AS1239 -->
<g id="edge16" class="edge"><title>AS3356&#45;&gt;AS1239</title>
<path fill="none" stroke="black" d="M307.96,-167.339C323.917,-160.027 344.188,-150.739 361.471,-142.819"/>
<polygon fill="black" stroke="black" points="363.085,-145.929 370.718,-138.581 360.169,-139.565 363.085,-145.929"/>
</g>
<!-- AS3356&#45;&gt;AS701 -->
<g id="edge17" class="edge"><title>AS3356&#45;&gt;AS701</title>
<path fill="none" stroke="black" d="M307.96,-192.661C324.377,-200.183 345.358,-209.798 362.955,-217.861"/>
<polygon fill="black" stroke="black" points="361.783,-221.174 372.332,-222.158 364.7,-214.811 361.783,-221.174"/>
</g>
<!-- AS209 -->
<g id="node18" class="node"><title>AS209</title>
<g id="a_node18"><a xlink:href="/asn/209" xlink:title="AS209 ~ CenturyLink Communications, LLC [US]">
<ellipse fill="#ffffff" stroke="black" cx="399.174" cy="-18" rx="35.194" ry="18"/>
<text text-anchor="middle" x="399.174" y="-14.3" font-family="Times,serif" font-size="14.00" fill="#2c94b3">AS209</text>
</a>
</g>
</g>
<!-- AS3356&#45;&gt;AS209 -->
<g id="edge18" class="edge"><title>AS3356&#45;&gt;AS209</title>
<path fill="none" stroke="black" stroke-width="2" d="M286.855,-162.006C297.605,-134.272 321.262,-80.5711 354.978,-45 357.921,-41.895 361.294,-38.9993 364.83,-36.3448"/>
<polygon fill="black" stroke="black" stroke-width="2" points="366.959,-39.1292 373.249,-30.6034 363.015,-33.346 366.959,-39.1292"/>
</g>
<!-- AS3549 -->
<g id="node19" class="node"><title>AS3549</title>
<g id="a_node19"><a xlink:href="/asn/3549" xlink:title="AS3549 ~ Level 3 Parent, LLC [US]">
<ellipse fill="#ffffff" stroke="black" cx="399.174" cy="-72" rx="39.7935" ry="18"/>
<text text-anchor="middle" x="399.174" y="-68.3" font-family="Times,serif" font-size="14.00" fill="#2c94b3">AS3549</text>
</a>
</g>
</g>
<!-- AS3356&#45;&gt;AS3549 -->
<g id="edge20" class="edge"><title>AS3356&#45;&gt;AS3549</title>
<path fill="none" stroke="black" d="M293.751,-162.935C307.865,-145.625 331.28,-118.655 354.978,-99 358.194,-96.3323 361.695,-93.7296 365.265,-91.2588"/>
<polygon fill="black" stroke="black" points="367.189,-94.1827 373.622,-85.7642 363.343,-88.3338 367.189,-94.1827"/>
</g>
<!-- AS3356&#45;&gt;AS6453 -->
<g id="edge22" class="edge"><title>AS3356&#45;&gt;AS6453</title>
<path fill="none" stroke="black" d="M319.244,-180C328.798,-180 339.147,-180 349.11,-180"/>
<polygon fill="black" stroke="black" points="349.302,-183.5 359.302,-180 349.302,-176.5 349.302,-183.5"/>
</g>
</g>
</svg>
