<?xml version="1.0" encoding="UTF-8" standalone="no"?>
<!DOCTYPE svg PUBLIC "-//W3C//DTD SVG 1.1//EN"
 "http://www.w3.org/Graphics/SVG/1.1/DTD/svg11.dtd">
<!-- Generated by graphviz version 2.38.0 (20140413.2041)
 -->
<!-- Title: AS206021 Combined Upstream Graph Pages: 1 -->
<svg width="699pt" height="674pt"
 viewBox="0.00 0.00 698.85 674.25" xmlns="http://www.w3.org/2000/svg" xmlns:xlink="http://www.w3.org/1999/xlink">
<g id="graph0" class="graph" transform="scale(1 1) rotate(0) translate(4 670.251)">
<title>AS206021 Combined Upstream Graph</title>
<polygon fill="white" stroke="none" points="-4,4 -4,-670.251 694.855,-670.251 694.855,4 -4,4"/>
<!-- AS206021 -->
<g id="node1" class="node"><title>AS206021</title>
<g id="a_node1"><a xlink:href="/asn/206021" xlink:title="AS206021 ~ Wirtschaftskammer Steiermark [AT]">
<ellipse fill="#ffffff" stroke="black" cx="48.0957" cy="-524.338" rx="48.1917" ry="18"/>
<text text-anchor="middle" x="48.0957" y="-520.638" font-family="Times,serif" font-size="14.00" fill="#880000">AS206021</text>
</a>
</g>
</g>
<!-- AS1853 -->
<g id="node2" class="node"><title>AS1853</title>
<g id="a_node2"><a xlink:href="/asn/1853" xlink:title="AS1853 ~ ACOnet Backbone [AT]">
<ellipse fill="#ffffff" stroke="black" cx="171.838" cy="-471.338" rx="39.7935" ry="18"/>
<text text-anchor="middle" x="171.838" y="-467.638" font-family="Times,serif" font-size="14.00" fill="#2c94b3">AS1853</text>
</a>
</g>
</g>
<!-- AS206021&#45;&gt;AS1853 -->
<g id="edge1" class="edge"><title>AS206021&#45;&gt;AS1853</title>
<path fill="none" stroke="black" stroke-width="4.5" d="M80.1314,-510.826C96.1495,-503.853 115.829,-495.285 132.76,-487.915"/>
<polygon fill="black" stroke="black" stroke-width="4.5" points="134.765,-491.336 142.362,-483.735 131.622,-484.116 134.765,-491.336"/>
</g>
<!-- AS8437 -->
<g id="node3" class="node"><title>AS8437</title>
<g id="a_node3"><a xlink:href="/asn/8437" xlink:title="AS8437 ~ Hutchison Drei Austria GmbH [AT]">
<ellipse fill="#ffffff" stroke="black" cx="171.838" cy="-577.338" rx="39.7935" ry="18"/>
<text text-anchor="middle" x="171.838" y="-573.638" font-family="Times,serif" font-size="14.00" fill="#2c94b3">AS8437</text>
</a>
</g>
</g>
<!-- AS206021&#45;&gt;AS8437 -->
<g id="edge2" class="edge"><title>AS206021&#45;&gt;AS8437</title>
<path fill="none" stroke="black" stroke-width="0.125" d="M80.1314,-537.849C96.1495,-544.822 115.829,-553.39 132.76,-560.761"/>
<polygon fill="black" stroke="black" stroke-width="0.125" points="131.796,-564.158 142.362,-564.941 134.59,-557.74 131.796,-564.158"/>
</g>
<!-- AS1764 -->
<g id="node4" class="node"><title>AS1764</title>
<g id="a_node4"><a xlink:href="/asn/1764" xlink:title="AS1764 ~ NEXTLAYER&#45;AS [AT]">
<ellipse fill="#ffffff" stroke="black" cx="291.681" cy="-322.338" rx="39.7935" ry="18"/>
<text text-anchor="middle" x="291.681" y="-318.638" font-family="Times,serif" font-size="14.00" fill="#2c94b3">AS1764</text>
</a>
</g>
</g>
<!-- AS1853&#45;&gt;AS1764 -->
<g id="edge3" class="edge"><title>AS1853&#45;&gt;AS1764</title>
<path fill="none" stroke="black" stroke-width="4.5" d="M186.127,-454.535C206.815,-428.378 246.84,-377.77 270.92,-347.323"/>
<polygon fill="black" stroke="black" stroke-width="4.5" points="274.144,-349.593 277.259,-339.307 267.968,-344.708 274.144,-349.593"/>
</g>
<!-- AS21320 -->
<g id="node5" class="node"><title>AS21320</title>
<g id="a_node5"><a xlink:href="/asn/21320" xlink:title="AS21320 ~ GEANT Vereniging [EU]">
<ellipse fill="#ffffff" stroke="black" cx="291.681" cy="-471.338" rx="44.393" ry="18"/>
<text text-anchor="middle" x="291.681" y="-467.638" font-family="Times,serif" font-size="14.00" fill="#2c94b3">AS21320</text>
</a>
</g>
</g>
<!-- AS1853&#45;&gt;AS21320 -->
<g id="edge4" class="edge"><title>AS1853&#45;&gt;AS21320</title>
<path fill="none" stroke="black" d="M211.751,-471.338C219.853,-471.338 228.528,-471.338 237.055,-471.338"/>
<polygon fill="black" stroke="black" points="237.332,-474.838 247.332,-471.338 237.332,-467.838 237.332,-474.838"/>
</g>
<!-- AS3356 -->
<g id="node6" class="node"><title>AS3356</title>
<g id="a_node6"><a xlink:href="/asn/3356" xlink:title="AS3356 ~ Level 3 Parent, LLC [US]">
<ellipse fill="#ffffff" stroke="black" cx="411.523" cy="-422.338" rx="39.7935" ry="18"/>
<text text-anchor="middle" x="411.523" y="-418.638" font-family="Times,serif" font-size="14.00" fill="#2c94b3">AS3356</text>
</a>
</g>
</g>
<!-- AS1853&#45;&gt;AS3356 -->
<g id="edge5" class="edge"><title>AS1853&#45;&gt;AS3356</title>
<path fill="none" stroke="black" stroke-width="3.25" d="M201.464,-459.362C215.177,-454.048 231.959,-448.147 247.484,-444.338 285.405,-435.034 329.319,-429.393 362.011,-426.156"/>
<polygon fill="black" stroke="black" stroke-width="3.25" points="362.584,-429.618 372.209,-425.188 361.923,-422.649 362.584,-429.618"/>
</g>
<!-- AS6939 -->
<g id="node7" class="node"><title>AS6939</title>
<g id="a_node7"><a xlink:href="/asn/6939" xlink:title="AS6939 ~ Hurricane Electric LLC [US]">
<ellipse fill="#ffffff" stroke="black" cx="291.681" cy="-529.338" rx="39.7935" ry="18"/>
<text text-anchor="middle" x="291.681" y="-525.638" font-family="Times,serif" font-size="14.00" fill="#2c94b3">AS6939</text>
</a>
</g>
</g>
<!-- AS1853&#45;&gt;AS6939 -->
<g id="edge6" class="edge"><title>AS1853&#45;&gt;AS6939</title>
<path fill="none" stroke="black" stroke-width="0.25" d="M199.284,-484.354C215.695,-492.431 236.995,-502.915 254.903,-511.729"/>
<polygon fill="black" stroke="black" stroke-width="0.25" points="253.397,-514.888 263.915,-516.164 256.488,-508.608 253.397,-514.888"/>
</g>
<!-- AS25255 -->
<g id="node23" class="node"><title>AS25255</title>
<g id="a_node23"><a xlink:href="/asn/25255" xlink:title="AS25255 ~ ==&gt; TELE2 AUSTRIA &lt;== [AT]">
<ellipse fill="#ffffff" stroke="black" cx="291.681" cy="-629.338" rx="44.393" ry="18"/>
<text text-anchor="middle" x="291.681" y="-625.638" font-family="Times,serif" font-size="14.00" fill="#2c94b3">AS25255</text>
</a>
</g>
</g>
<!-- AS8437&#45;&gt;AS25255 -->
<g id="edge31" class="edge"><title>AS8437&#45;&gt;AS25255</title>
<path fill="none" stroke="black" d="M200.765,-589.661C215.899,-596.339 234.847,-604.7 251.442,-612.023"/>
<polygon fill="black" stroke="black" points="250.332,-615.359 260.894,-616.194 253.158,-608.955 250.332,-615.359"/>
</g>
<!-- AS2914 -->
<g id="node8" class="node"><title>AS2914</title>
<g id="a_node8"><a xlink:href="/asn/2914" xlink:title="AS2914 ~ NTT America, Inc. [US]">
<ellipse fill="#ffffff" stroke="black" cx="411.523" cy="-322.338" rx="39.7935" ry="18"/>
<text text-anchor="middle" x="411.523" y="-318.638" font-family="Times,serif" font-size="14.00" fill="#2c94b3">AS2914</text>
</a>
</g>
</g>
<!-- AS1764&#45;&gt;AS2914 -->
<g id="edge7" class="edge"><title>AS1764&#45;&gt;AS2914</title>
<path fill="none" stroke="black" stroke-width="4.5" d="M331.593,-322.338C341.146,-322.338 351.496,-322.338 361.459,-322.338"/>
<polygon fill="black" stroke="black" stroke-width="4.5" points="361.651,-326.275 371.651,-322.338 361.651,-318.4 361.651,-326.275"/>
</g>
<!-- AS1299 -->
<g id="node9" class="node"><title>AS1299</title>
<g id="a_node9"><a xlink:href="/asn/1299" xlink:title="AS1299 ~ Telia Carrier [EU]">
<ellipse fill="#ffffff" stroke="black" cx="411.523" cy="-122.338" rx="39.7935" ry="18"/>
<text text-anchor="middle" x="411.523" y="-118.638" font-family="Times,serif" font-size="14.00" fill="#2c94b3">AS1299</text>
</a>
</g>
</g>
<!-- AS1764&#45;&gt;AS1299 -->
<g id="edge8" class="edge"><title>AS1764&#45;&gt;AS1299</title>
<path fill="none" stroke="black" stroke-width="4.5" d="M302.932,-304.939C323.652,-269.774 370.616,-190.067 395.07,-148.564"/>
<polygon fill="black" stroke="black" stroke-width="4.5" points="398.527,-150.453 400.211,-139.839 391.742,-146.455 398.527,-150.453"/>
</g>
<!-- AS174 -->
<g id="node13" class="node"><title>AS174</title>
<g id="a_node13"><a xlink:href="/asn/174" xlink:title="AS174 ~ Cogent Communications [US]">
<ellipse fill="#ffffff" stroke="black" cx="531.366" cy="-149.338" rx="35.194" ry="18"/>
<text text-anchor="middle" x="531.366" y="-145.638" font-family="Times,serif" font-size="14.00" fill="#2c94b3">AS174</text>
</a>
</g>
</g>
<!-- AS21320&#45;&gt;AS174 -->
<g id="edge16" class="edge"><title>AS21320&#45;&gt;AS174</title>
<path fill="none" stroke="black" stroke-width="3" d="M298.084,-453.362C308.653,-420.051 334.354,-347.388 371.877,-295.338 409.188,-243.581 467.126,-195.987 501.649,-169.98"/>
<polygon fill="black" stroke="black" stroke-width="3" points="503.962,-172.622 509.895,-163.844 499.783,-167.006 503.962,-172.622"/>
</g>
<!-- AS2603 -->
<g id="node16" class="node"><title>AS2603</title>
<g id="a_node16"><a xlink:href="/asn/2603" xlink:title="AS2603 ~ NORDUnet [NO]">
<ellipse fill="#ffffff" stroke="black" cx="411.523" cy="-476.338" rx="39.7935" ry="18"/>
<text text-anchor="middle" x="411.523" y="-472.638" font-family="Times,serif" font-size="14.00" fill="#2c94b3">AS2603</text>
</a>
</g>
</g>
<!-- AS21320&#45;&gt;AS2603 -->
<g id="edge15" class="edge"><title>AS21320&#45;&gt;AS2603</title>
<path fill="none" stroke="black" d="M335.892,-473.171C344.298,-473.528 353.164,-473.904 361.735,-474.268"/>
<polygon fill="black" stroke="black" points="361.854,-477.776 371.993,-474.703 362.15,-470.782 361.854,-477.776"/>
</g>
<!-- AS2497 -->
<g id="node10" class="node"><title>AS2497</title>
<g id="a_node10"><a xlink:href="/asn/2497" xlink:title="AS2497 ~ Internet Initiative Japan Inc. [JP]">
<ellipse fill="#ffffff" stroke="black" cx="531.366" cy="-295.338" rx="39.7935" ry="18"/>
<text text-anchor="middle" x="531.366" y="-291.638" font-family="Times,serif" font-size="14.00" fill="#2c94b3">AS2497</text>
</a>
</g>
</g>
<!-- AS3356&#45;&gt;AS2497 -->
<g id="edge23" class="edge"><title>AS3356&#45;&gt;AS2497</title>
<path fill="none" stroke="black" stroke-width="2" d="M422.732,-404.884C435.765,-383.619 459.915,-347.43 487.17,-322.338 490.087,-319.652 493.308,-317.078 496.637,-314.66"/>
<polygon fill="black" stroke="black" stroke-width="2" points="498.695,-317.494 505.02,-308.994 494.775,-311.694 498.695,-317.494"/>
</g>
<!-- AS701 -->
<g id="node11" class="node"><title>AS701</title>
<g id="a_node11"><a xlink:href="/asn/701" xlink:title="AS701 ~ UUNET [US]">
<ellipse fill="#ffffff" stroke="black" cx="531.366" cy="-403.338" rx="35.194" ry="18"/>
<text text-anchor="middle" x="531.366" y="-399.638" font-family="Times,serif" font-size="14.00" fill="#2c94b3">AS701</text>
</a>
</g>
</g>
<!-- AS3356&#45;&gt;AS701 -->
<g id="edge29" class="edge"><title>AS3356&#45;&gt;AS701</title>
<path fill="none" stroke="black" d="M449.163,-416.43C461.425,-414.453 475.197,-412.233 487.867,-410.19"/>
<polygon fill="black" stroke="black" points="488.427,-413.645 497.743,-408.598 487.313,-406.734 488.427,-413.645"/>
</g>
<!-- AS3491 -->
<g id="node12" class="node"><title>AS3491</title>
<g id="a_node12"><a xlink:href="/asn/3491" xlink:title="AS3491 ~ PCCW Global, Inc. [US]">
<ellipse fill="#ffffff" stroke="black" cx="531.366" cy="-495.338" rx="39.7935" ry="18"/>
<text text-anchor="middle" x="531.366" y="-491.638" font-family="Times,serif" font-size="14.00" fill="#2c94b3">AS3491</text>
</a>
</g>
</g>
<!-- AS3356&#45;&gt;AS3491 -->
<g id="edge28" class="edge"><title>AS3356&#45;&gt;AS3491</title>
<path fill="none" stroke="black" d="M435.805,-436.76C453.721,-447.858 478.678,-463.318 498.454,-475.569"/>
<polygon fill="black" stroke="black" points="496.788,-478.654 507.132,-480.945 500.474,-472.704 496.788,-478.654"/>
</g>
<!-- AS12956 -->
<g id="node14" class="node"><title>AS12956</title>
<g id="a_node14"><a xlink:href="/asn/12956" xlink:title="AS12956 ~ TELXIUS [ES]">
<ellipse fill="#ffffff" stroke="black" cx="531.366" cy="-349.338" rx="44.393" ry="18"/>
<text text-anchor="middle" x="531.366" y="-345.638" font-family="Times,serif" font-size="14.00" fill="#2c94b3">AS12956</text>
</a>
</g>
</g>
<!-- AS3356&#45;&gt;AS12956 -->
<g id="edge25" class="edge"><title>AS3356&#45;&gt;AS12956</title>
<path fill="none" stroke="black" d="M435.805,-407.915C453.488,-396.961 478.031,-381.758 497.681,-369.585"/>
<polygon fill="black" stroke="black" points="499.665,-372.473 506.323,-364.231 495.979,-366.522 499.665,-372.473"/>
</g>
<!-- AS3257 -->
<g id="node18" class="node"><title>AS3257</title>
<g id="a_node18"><a xlink:href="/asn/3257" xlink:title="AS3257 ~ GTT [DE]">
<ellipse fill="#ffffff" stroke="black" cx="651.208" cy="-145.338" rx="39.7935" ry="18"/>
<text text-anchor="middle" x="651.208" y="-141.638" font-family="Times,serif" font-size="14.00" fill="#2c94b3">AS3257</text>
</a>
</g>
</g>
<!-- AS3356&#45;&gt;AS3257 -->
<g id="edge27" class="edge"><title>AS3356&#45;&gt;AS3257</title>
<path fill="none" stroke="black" d="M441.161,-434.464C477.122,-447.553 538.576,-462.521 575.562,-430.338 662.903,-354.338 551.065,-271.052 611.562,-172.338 613.085,-169.852 614.933,-167.535 616.986,-165.388"/>
<polygon fill="black" stroke="black" points="619.356,-167.964 624.578,-158.746 614.747,-162.696 619.356,-167.964"/>
</g>
<!-- AS6453 -->
<g id="node20" class="node"><title>AS6453</title>
<g id="a_node20"><a xlink:href="/asn/6453" xlink:title="AS6453 ~ TATA COMMUNICATIONS (AMERICA) INC [US]">
<ellipse fill="#ffffff" stroke="black" cx="531.366" cy="-241.338" rx="39.7935" ry="18"/>
<text text-anchor="middle" x="531.366" y="-237.638" font-family="Times,serif" font-size="14.00" fill="#2c94b3">AS6453</text>
</a>
</g>
</g>
<!-- AS3356&#45;&gt;AS6453 -->
<g id="edge24" class="edge"><title>AS3356&#45;&gt;AS6453</title>
<path fill="none" stroke="black" stroke-width="2" d="M422.237,-404.81C430.268,-390.13 441.827,-368.553 451.17,-349.338 468.396,-313.908 461.336,-298.08 487.17,-268.338 489.634,-265.5 492.471,-262.86 495.489,-260.431"/>
<polygon fill="black" stroke="black" stroke-width="2" points="497.676,-263.17 503.767,-254.502 493.599,-257.48 497.676,-263.17"/>
</g>
<!-- AS3549 -->
<g id="node21" class="node"><title>AS3549</title>
<g id="a_node21"><a xlink:href="/asn/3549" xlink:title="AS3549 ~ Level 3 Parent, LLC [US]">
<ellipse fill="#ffffff" stroke="black" cx="531.366" cy="-549.338" rx="39.7935" ry="18"/>
<text text-anchor="middle" x="531.366" y="-545.638" font-family="Times,serif" font-size="14.00" fill="#2c94b3">AS3549</text>
</a>
</g>
</g>
<!-- AS3356&#45;&gt;AS3549 -->
<g id="edge26" class="edge"><title>AS3356&#45;&gt;AS3549</title>
<path fill="none" stroke="black" stroke-width="2" d="M436.56,-436.321C441.798,-440.096 447.01,-444.494 451.17,-449.338 474.738,-476.782 462.907,-495.506 487.17,-522.338 489.69,-525.126 492.565,-527.732 495.606,-530.14"/>
<polygon fill="black" stroke="black" stroke-width="2" points="493.737,-533.105 503.917,-536.041 497.789,-527.398 493.737,-533.105"/>
</g>
<!-- AS1273 -->
<g id="node22" class="node"><title>AS1273</title>
<g id="a_node22"><a xlink:href="/asn/1273" xlink:title="AS1273 ~ Vodafone Group PLC [EU]">
<ellipse fill="#ffffff" stroke="black" cx="531.366" cy="-603.338" rx="39.7935" ry="18"/>
<text text-anchor="middle" x="531.366" y="-599.638" font-family="Times,serif" font-size="14.00" fill="#2c94b3">AS1273</text>
</a>
</g>
</g>
<!-- AS3356&#45;&gt;AS1273 -->
<g id="edge30" class="edge"><title>AS3356&#45;&gt;AS1273</title>
<path fill="none" stroke="black" d="M437.624,-436.096C442.691,-439.832 447.562,-444.27 451.17,-449.338 485.191,-497.134 451.936,-529.427 487.17,-576.338 489.427,-579.343 492.125,-582.095 495.056,-584.594"/>
<polygon fill="black" stroke="black" points="493.09,-587.494 503.213,-590.621 497.25,-581.864 493.09,-587.494"/>
</g>
<!-- AS209 -->
<g id="node24" class="node"><title>AS209</title>
<g id="a_node24"><a xlink:href="/asn/209" xlink:title="AS209 ~ CenturyLink Communications, LLC [US]">
<ellipse fill="#ffffff" stroke="black" cx="411.523" cy="-530.338" rx="35.194" ry="18"/>
<text text-anchor="middle" x="411.523" y="-526.638" font-family="Times,serif" font-size="14.00" fill="#2c94b3">AS209</text>
</a>
</g>
</g>
<!-- AS6939&#45;&gt;AS209 -->
<g id="edge33" class="edge"><title>AS6939&#45;&gt;AS209</title>
<path fill="none" stroke="black" d="M331.593,-529.668C342.68,-529.762 354.839,-529.865 366.222,-529.962"/>
<polygon fill="black" stroke="black" points="366.374,-533.463 376.404,-530.048 366.434,-526.463 366.374,-533.463"/>
</g>
<!-- AS2914&#45;&gt;AS2497 -->
<g id="edge9" class="edge"><title>AS2914&#45;&gt;AS2497</title>
<path fill="none" stroke="black" stroke-width="2" d="M447.242,-314.383C459.242,-311.633 472.863,-308.513 485.556,-305.604"/>
<polygon fill="black" stroke="black" stroke-width="2" points="486.522,-308.974 495.487,-303.329 484.958,-302.151 486.522,-308.974"/>
</g>
<!-- AS2914&#45;&gt;AS701 -->
<g id="edge10" class="edge"><title>AS2914&#45;&gt;AS701</title>
<path fill="none" stroke="black" d="M432.853,-337.615C447.716,-348.642 468.46,-363.744 487.17,-376.338 490.987,-378.907 495.037,-381.548 499.067,-384.124"/>
<polygon fill="black" stroke="black" points="497.436,-387.233 507.761,-389.609 501.171,-381.313 497.436,-387.233"/>
</g>
<!-- AS2914&#45;&gt;AS3491 -->
<g id="edge11" class="edge"><title>AS2914&#45;&gt;AS3491</title>
<path fill="none" stroke="black" d="M424.253,-339.558C445.076,-370.128 488.594,-434.014 512.934,-469.746"/>
<polygon fill="black" stroke="black" points="510.161,-471.893 518.683,-478.187 515.946,-467.952 510.161,-471.893"/>
</g>
<!-- AS2914&#45;&gt;AS174 -->
<g id="edge12" class="edge"><title>AS2914&#45;&gt;AS174</title>
<path fill="none" stroke="black" d="M424.805,-305.25C432.822,-293.714 443.233,-277.978 451.17,-263.338 470.14,-228.347 462.346,-212.45 487.17,-181.338 490.662,-176.96 494.89,-172.877 499.317,-169.191"/>
<polygon fill="black" stroke="black" points="501.579,-171.867 507.385,-163.005 497.32,-166.312 501.579,-171.867"/>
</g>
<!-- AS2914&#45;&gt;AS12956 -->
<g id="edge13" class="edge"><title>AS2914&#45;&gt;AS12956</title>
<path fill="none" stroke="black" d="M447.242,-330.293C458.381,-332.845 470.916,-335.717 482.809,-338.442"/>
<polygon fill="black" stroke="black" points="482.074,-341.864 492.603,-340.686 483.638,-335.041 482.074,-341.864"/>
</g>
<!-- AS6762 -->
<g id="node15" class="node"><title>AS6762</title>
<g id="a_node15"><a xlink:href="/asn/6762" xlink:title="AS6762 ~ TELECOM ITALIA SPARKLE S.p.A. [IT]">
<ellipse fill="#ffffff" stroke="black" cx="651.208" cy="-199.338" rx="39.7935" ry="18"/>
<text text-anchor="middle" x="651.208" y="-195.638" font-family="Times,serif" font-size="14.00" fill="#2c94b3">AS6762</text>
</a>
</g>
</g>
<!-- AS2914&#45;&gt;AS6762 -->
<g id="edge14" class="edge"><title>AS2914&#45;&gt;AS6762</title>
<path fill="none" stroke="black" d="M423.917,-305.048C443.641,-275.237 482.496,-217.069 487.17,-214.338 521.976,-193.996 568.258,-191.59 602.617,-193.489"/>
<polygon fill="black" stroke="black" points="602.652,-197 612.871,-194.202 603.138,-190.017 602.652,-197"/>
</g>
<!-- AS1299&#45;&gt;AS174 -->
<g id="edge20" class="edge"><title>AS1299&#45;&gt;AS174</title>
<path fill="none" stroke="black" d="M447.242,-130.293C460.335,-133.292 475.357,-136.734 488.998,-139.86"/>
<polygon fill="black" stroke="black" points="488.576,-143.353 499.105,-142.175 490.139,-136.53 488.576,-143.353"/>
</g>
<!-- AS1239 -->
<g id="node17" class="node"><title>AS1239</title>
<g id="a_node17"><a xlink:href="/asn/1239" xlink:title="AS1239 ~ Sprint [US]">
<ellipse fill="#ffffff" stroke="black" cx="531.366" cy="-41.3377" rx="39.7935" ry="18"/>
<text text-anchor="middle" x="531.366" y="-37.6377" font-family="Times,serif" font-size="14.00" fill="#2c94b3">AS1239</text>
</a>
</g>
</g>
<!-- AS1299&#45;&gt;AS1239 -->
<g id="edge18" class="edge"><title>AS1299&#45;&gt;AS1239</title>
<path fill="none" stroke="black" d="M432.853,-107.061C447.716,-96.0336 468.46,-80.9311 487.17,-68.3377 490.719,-65.9488 494.469,-63.4986 498.217,-61.0956"/>
<polygon fill="black" stroke="black" points="500.285,-63.9289 506.866,-55.6253 496.544,-58.013 500.285,-63.9289"/>
</g>
<!-- AS1299&#45;&gt;AS3257 -->
<g id="edge19" class="edge"><title>AS1299&#45;&gt;AS3257</title>
<path fill="none" stroke="black" d="M418.747,-104.472C428.692,-79.0451 450.836,-33.3925 487.17,-14.3377 521.961,3.90831 541.595,5.40132 575.562,-14.3377 613.585,-36.4345 633.851,-85.9502 643.291,-117.379"/>
<polygon fill="black" stroke="black" points="640,-118.606 646.087,-127.278 646.737,-116.703 640,-118.606"/>
</g>
<!-- AS7018 -->
<g id="node19" class="node"><title>AS7018</title>
<g id="a_node19"><a xlink:href="/asn/7018" xlink:title="AS7018 ~ AT&amp;T Services, Inc. [US]">
<ellipse fill="#ffffff" stroke="black" cx="531.366" cy="-95.3377" rx="39.7935" ry="18"/>
<text text-anchor="middle" x="531.366" y="-91.6377" font-family="Times,serif" font-size="14.00" fill="#2c94b3">AS7018</text>
</a>
</g>
</g>
<!-- AS1299&#45;&gt;AS7018 -->
<g id="edge21" class="edge"><title>AS1299&#45;&gt;AS7018</title>
<path fill="none" stroke="black" stroke-width="2" d="M447.242,-114.383C459.242,-111.633 472.863,-108.513 485.556,-105.604"/>
<polygon fill="black" stroke="black" stroke-width="2" points="486.522,-108.974 495.487,-103.329 484.958,-102.151 486.522,-108.974"/>
</g>
<!-- AS1299&#45;&gt;AS6453 -->
<g id="edge22" class="edge"><title>AS1299&#45;&gt;AS6453</title>
<path fill="none" stroke="black" stroke-width="2" d="M428.909,-138.884C449.224,-159.399 483.985,-194.502 507.068,-217.811"/>
<polygon fill="black" stroke="black" stroke-width="2" points="504.596,-220.289 514.119,-224.932 509.57,-215.363 504.596,-220.289"/>
</g>
<!-- AS174&#45;&gt;AS6762 -->
<g id="edge34" class="edge"><title>AS174&#45;&gt;AS6762</title>
<path fill="none" stroke="black" d="M558.812,-160.559C574.5,-167.215 594.655,-175.767 612.044,-183.145"/>
<polygon fill="black" stroke="black" points="610.802,-186.42 621.375,-187.104 613.536,-179.976 610.802,-186.42"/>
</g>
<!-- AS174&#45;&gt;AS3257 -->
<g id="edge35" class="edge"><title>AS174&#45;&gt;AS3257</title>
<path fill="none" stroke="black" d="M566.451,-148.181C577.386,-147.81 589.719,-147.391 601.491,-146.991"/>
<polygon fill="black" stroke="black" points="601.767,-150.484 611.643,-146.647 601.53,-143.488 601.767,-150.484"/>
</g>
<!-- AS2603&#45;&gt;AS3491 -->
<g id="edge17" class="edge"><title>AS2603&#45;&gt;AS3491</title>
<path fill="none" stroke="black" d="M449.163,-482.245C460.137,-484.015 472.32,-485.979 483.841,-487.836"/>
<polygon fill="black" stroke="black" points="483.318,-491.297 493.748,-489.434 484.433,-484.387 483.318,-491.297"/>
</g>
<!-- AS25255&#45;&gt;AS6762 -->
<g id="edge32" class="edge"><title>AS25255&#45;&gt;AS6762</title>
<path fill="none" stroke="black" d="M324.703,-641.333C382.29,-660.613 503.984,-690.584 575.562,-630.338 637.337,-578.342 647.99,-315.325 649.826,-227.75"/>
<polygon fill="black" stroke="black" points="653.33,-227.569 650.016,-217.506 646.331,-227.439 653.33,-227.569"/>
</g>
</g>
</svg>
