<?xml version="1.0" encoding="UTF-8" standalone="no"?>
<!DOCTYPE svg PUBLIC "-//W3C//DTD SVG 1.1//EN"
 "http://www.w3.org/Graphics/SVG/1.1/DTD/svg11.dtd">
<!-- Generated by graphviz version 2.38.0 (20140413.2041)
 -->
<!-- Title: AS202549 Combined Upstream Graph Pages: 1 -->
<svg width="699pt" height="530pt"
 viewBox="0.00 0.00 698.85 530.00" xmlns="http://www.w3.org/2000/svg" xmlns:xlink="http://www.w3.org/1999/xlink">
<g id="graph0" class="graph" transform="scale(1 1) rotate(0) translate(4 526)">
<title>AS202549 Combined Upstream Graph</title>
<polygon fill="white" stroke="none" points="-4,4 -4,-526 694.855,-526 694.855,4 -4,4"/>
<!-- AS202549 -->
<g id="node1" class="node"><title>AS202549</title>
<g id="a_node1"><a xlink:href="/asn/202549" xlink:title="AS202549 ~ Sattler AG [AT]">
<ellipse fill="#ffffff" stroke="black" cx="48.0957" cy="-301" rx="48.1917" ry="18"/>
<text text-anchor="middle" x="48.0957" y="-297.3" font-family="Times,serif" font-size="14.00" fill="#880000">AS202549</text>
</a>
</g>
</g>
<!-- AS8437 -->
<g id="node2" class="node"><title>AS8437</title>
<g id="a_node2"><a xlink:href="/asn/8437" xlink:title="AS8437 ~ Hutchison Drei Austria GmbH [AT]">
<ellipse fill="#ffffff" stroke="black" cx="171.838" cy="-301" rx="39.7935" ry="18"/>
<text text-anchor="middle" x="171.838" y="-297.3" font-family="Times,serif" font-size="14.00" fill="#2c94b3">AS8437</text>
</a>
</g>
</g>
<!-- AS202549&#45;&gt;AS8437 -->
<g id="edge1" class="edge"><title>AS202549&#45;&gt;AS8437</title>
<path fill="none" stroke="black" stroke-width="4.5" d="M96.5131,-301C104.867,-301 113.577,-301 121.969,-301"/>
<polygon fill="black" stroke="black" stroke-width="4.5" points="122.004,-304.938 132.004,-301 122.004,-297.063 122.004,-304.938"/>
</g>
<!-- AS25255 -->
<g id="node3" class="node"><title>AS25255</title>
<g id="a_node3"><a xlink:href="/asn/25255" xlink:title="AS25255 ~ ==&gt; TELE2 AUSTRIA &lt;== [AT]">
<ellipse fill="#ffffff" stroke="black" cx="291.681" cy="-301" rx="44.393" ry="18"/>
<text text-anchor="middle" x="291.681" y="-297.3" font-family="Times,serif" font-size="14.00" fill="#2c94b3">AS25255</text>
</a>
</g>
</g>
<!-- AS8437&#45;&gt;AS25255 -->
<g id="edge2" class="edge"><title>AS8437&#45;&gt;AS25255</title>
<path fill="none" stroke="black" stroke-width="4.5" d="M211.751,-301C219.853,-301 228.528,-301 237.055,-301"/>
<polygon fill="black" stroke="black" stroke-width="4.5" points="237.332,-304.938 247.332,-301 237.332,-297.063 237.332,-304.938"/>
</g>
<!-- AS1764 -->
<g id="node4" class="node"><title>AS1764</title>
<g id="a_node4"><a xlink:href="/asn/1764" xlink:title="AS1764 ~ NEXTLAYER&#45;AS [AT]">
<ellipse fill="#ffffff" stroke="black" cx="411.523" cy="-382" rx="39.7935" ry="18"/>
<text text-anchor="middle" x="411.523" y="-378.3" font-family="Times,serif" font-size="14.00" fill="#2c94b3">AS1764</text>
</a>
</g>
</g>
<!-- AS25255&#45;&gt;AS1764 -->
<g id="edge3" class="edge"><title>AS25255&#45;&gt;AS1764</title>
<path fill="none" stroke="black" stroke-width="2.25" d="M315.123,-316.426C333.704,-329.198 360.265,-347.455 380.645,-361.463"/>
<polygon fill="black" stroke="black" stroke-width="2.25" points="378.736,-364.398 388.959,-367.178 382.701,-358.629 378.736,-364.398"/>
</g>
<!-- AS8447 -->
<g id="node5" class="node"><title>AS8447</title>
<g id="a_node5"><a xlink:href="/asn/8447" xlink:title="AS8447 ~ A1 Telekom Austria AG [AT]">
<ellipse fill="#ffffff" stroke="black" cx="411.523" cy="-207" rx="39.7935" ry="18"/>
<text text-anchor="middle" x="411.523" y="-203.3" font-family="Times,serif" font-size="14.00" fill="#2c94b3">AS8447</text>
</a>
</g>
</g>
<!-- AS25255&#45;&gt;AS8447 -->
<g id="edge4" class="edge"><title>AS25255&#45;&gt;AS8447</title>
<path fill="none" stroke="black" stroke-width="4.5" d="M312.671,-285.054C332.002,-269.634 361.454,-246.141 382.996,-228.957"/>
<polygon fill="black" stroke="black" stroke-width="4.5" points="385.466,-232.024 390.828,-222.71 380.555,-225.868 385.466,-232.024"/>
</g>
<!-- AS174 -->
<g id="node6" class="node"><title>AS174</title>
<g id="a_node6"><a xlink:href="/asn/174" xlink:title="AS174 ~ Cogent Communications [US]">
<ellipse fill="#ffffff" stroke="black" cx="526.816" cy="-355" rx="35.194" ry="18"/>
<text text-anchor="middle" x="526.816" y="-351.3" font-family="Times,serif" font-size="14.00" fill="#2c94b3">AS174</text>
</a>
</g>
</g>
<!-- AS1764&#45;&gt;AS174 -->
<g id="edge5" class="edge"><title>AS1764&#45;&gt;AS174</title>
<path fill="none" stroke="black" stroke-width="3" d="M447.13,-373.752C458.925,-370.942 472.229,-367.771 484.497,-364.847"/>
<polygon fill="black" stroke="black" stroke-width="3" points="485.586,-368.186 494.502,-362.463 483.963,-361.376 485.586,-368.186"/>
</g>
<!-- AS3257 -->
<g id="node7" class="node"><title>AS3257</title>
<g id="a_node7"><a xlink:href="/asn/3257" xlink:title="AS3257 ~ GTT [DE]">
<ellipse fill="#ffffff" stroke="black" cx="526.816" cy="-409" rx="39.7935" ry="18"/>
<text text-anchor="middle" x="526.816" y="-405.3" font-family="Times,serif" font-size="14.00" fill="#2c94b3">AS3257</text>
</a>
</g>
</g>
<!-- AS1764&#45;&gt;AS3257 -->
<g id="edge6" class="edge"><title>AS1764&#45;&gt;AS3257</title>
<path fill="none" stroke="black" stroke-width="3" d="M447.13,-390.248C458.002,-392.838 470.156,-395.735 481.598,-398.462"/>
<polygon fill="black" stroke="black" stroke-width="3" points="480.882,-401.889 491.421,-400.803 482.505,-395.08 480.882,-401.889"/>
</g>
<!-- AS8218 -->
<g id="node8" class="node"><title>AS8218</title>
<g id="a_node8"><a xlink:href="/asn/8218" xlink:title="AS8218 ~ legacy Neotelecoms [FR]">
<ellipse fill="#ffffff" stroke="black" cx="526.816" cy="-490" rx="39.7935" ry="18"/>
<text text-anchor="middle" x="526.816" y="-486.3" font-family="Times,serif" font-size="14.00" fill="#2c94b3">AS8218</text>
</a>
</g>
</g>
<!-- AS1764&#45;&gt;AS8218 -->
<g id="edge7" class="edge"><title>AS1764&#45;&gt;AS8218</title>
<path fill="none" stroke="black" d="M429.73,-398.403C448.805,-416.587 479.725,-446.063 501.323,-466.651"/>
<polygon fill="black" stroke="black" points="499.165,-469.43 508.819,-473.797 503.995,-464.363 499.165,-469.43"/>
</g>
<!-- AS1299 -->
<g id="node9" class="node"><title>AS1299</title>
<g id="a_node9"><a xlink:href="/asn/1299" xlink:title="AS1299 ~ Telia Carrier [EU]">
<ellipse fill="#ffffff" stroke="black" cx="526.816" cy="-72" rx="39.7935" ry="18"/>
<text text-anchor="middle" x="526.816" y="-68.3" font-family="Times,serif" font-size="14.00" fill="#2c94b3">AS1299</text>
</a>
</g>
</g>
<!-- AS8447&#45;&gt;AS1299 -->
<g id="edge8" class="edge"><title>AS8447&#45;&gt;AS1299</title>
<path fill="none" stroke="black" stroke-width="2.25" d="M421.983,-189.51C434.765,-166.904 459.197,-127.114 487.17,-99 489.28,-96.8786 491.576,-94.8125 493.962,-92.829"/>
<polygon fill="black" stroke="black" stroke-width="2.25" points="496.477,-95.3103 502.277,-86.444 492.214,-89.7583 496.477,-95.3103"/>
</g>
<!-- AS3320 -->
<g id="node10" class="node"><title>AS3320</title>
<g id="a_node10"><a xlink:href="/asn/3320" xlink:title="AS3320 ~ DTAG [DE]">
<ellipse fill="#ffffff" stroke="black" cx="526.816" cy="-126" rx="39.7935" ry="18"/>
<text text-anchor="middle" x="526.816" y="-122.3" font-family="Times,serif" font-size="14.00" fill="#2c94b3">AS3320</text>
</a>
</g>
</g>
<!-- AS8447&#45;&gt;AS3320 -->
<g id="edge9" class="edge"><title>AS8447&#45;&gt;AS3320</title>
<path fill="none" stroke="black" stroke-width="3" d="M433.567,-191.954C451.182,-179.361 476.52,-161.245 496.186,-147.184"/>
<polygon fill="black" stroke="black" stroke-width="3" points="498.401,-149.903 504.5,-141.24 494.33,-144.209 498.401,-149.903"/>
</g>
<!-- AS3356 -->
<g id="node11" class="node"><title>AS3356</title>
<g id="a_node11"><a xlink:href="/asn/3356" xlink:title="AS3356 ~ Level 3 Parent, LLC [US]">
<ellipse fill="#ffffff" stroke="black" cx="526.816" cy="-261" rx="39.7935" ry="18"/>
<text text-anchor="middle" x="526.816" y="-257.3" font-family="Times,serif" font-size="14.00" fill="#2c94b3">AS3356</text>
</a>
</g>
</g>
<!-- AS8447&#45;&gt;AS3356 -->
<g id="edge10" class="edge"><title>AS8447&#45;&gt;AS3356</title>
<path fill="none" stroke="black" stroke-width="4.5" d="M439.66,-219.934C454.654,-227.081 473.475,-236.052 489.698,-243.785"/>
<polygon fill="black" stroke="black" stroke-width="4.5" points="488.18,-247.423 498.901,-248.171 491.568,-240.314 488.18,-247.423"/>
</g>
<!-- AS6762 -->
<g id="node12" class="node"><title>AS6762</title>
<g id="a_node12"><a xlink:href="/asn/6762" xlink:title="AS6762 ~ TELECOM ITALIA SPARKLE S.p.A. [IT]">
<ellipse fill="#ffffff" stroke="black" cx="526.816" cy="-207" rx="39.7935" ry="18"/>
<text text-anchor="middle" x="526.816" y="-203.3" font-family="Times,serif" font-size="14.00" fill="#2c94b3">AS6762</text>
</a>
</g>
</g>
<!-- AS8447&#45;&gt;AS6762 -->
<g id="edge11" class="edge"><title>AS8447&#45;&gt;AS6762</title>
<path fill="none" stroke="black" stroke-width="0.75" d="M451.195,-207C459.398,-207 468.162,-207 476.694,-207"/>
<polygon fill="black" stroke="black" stroke-width="0.75" points="476.934,-210.5 486.934,-207 476.933,-203.5 476.934,-210.5"/>
</g>
<!-- AS3491 -->
<g id="node13" class="node"><title>AS3491</title>
<g id="a_node13"><a xlink:href="/asn/3491" xlink:title="AS3491 ~ PCCW Global, Inc. [US]">
<ellipse fill="#ffffff" stroke="black" cx="646.659" cy="-450" rx="39.7935" ry="18"/>
<text text-anchor="middle" x="646.659" y="-446.3" font-family="Times,serif" font-size="14.00" fill="#2c94b3">AS3491</text>
</a>
</g>
</g>
<!-- AS174&#45;&gt;AS3491 -->
<g id="edge12" class="edge"><title>AS174&#45;&gt;AS3491</title>
<path fill="none" stroke="black" d="M549.772,-368.978C555.417,-372.932 561.339,-377.415 566.463,-382 584.532,-398.172 583.985,-407.296 602.463,-423 605.484,-425.568 608.773,-428.065 612.142,-430.437"/>
<polygon fill="black" stroke="black" points="610.312,-433.423 620.577,-436.045 614.187,-427.594 610.312,-433.423"/>
</g>
<!-- AS2914 -->
<g id="node14" class="node"><title>AS2914</title>
<g id="a_node14"><a xlink:href="/asn/2914" xlink:title="AS2914 ~ NTT America, Inc. [US]">
<ellipse fill="#ffffff" stroke="black" cx="646.659" cy="-180" rx="39.7935" ry="18"/>
<text text-anchor="middle" x="646.659" y="-176.3" font-family="Times,serif" font-size="14.00" fill="#2c94b3">AS2914</text>
</a>
</g>
</g>
<!-- AS174&#45;&gt;AS2914 -->
<g id="edge13" class="edge"><title>AS174&#45;&gt;AS2914</title>
<path fill="none" stroke="black" d="M538.332,-337.922C546.406,-324.543 557.632,-305.353 566.463,-288 584.329,-252.889 576.629,-236.742 602.463,-207 604.927,-204.162 607.764,-201.523 610.782,-199.094"/>
<polygon fill="black" stroke="black" points="612.969,-201.833 619.06,-193.164 608.892,-196.142 612.969,-201.833"/>
</g>
<!-- AS3257&#45;&gt;AS3491 -->
<g id="edge25" class="edge"><title>AS3257&#45;&gt;AS3491</title>
<path fill="none" stroke="black" d="M558.778,-419.772C572.875,-424.677 589.751,-430.548 604.864,-435.807"/>
<polygon fill="black" stroke="black" points="603.9,-439.177 614.494,-439.157 606.2,-432.566 603.9,-439.177"/>
</g>
<!-- AS2497 -->
<g id="node16" class="node"><title>AS2497</title>
<g id="a_node16"><a xlink:href="/asn/2497" xlink:title="AS2497 ~ Internet Initiative Japan Inc. [JP]">
<ellipse fill="#ffffff" stroke="black" cx="646.659" cy="-396" rx="39.7935" ry="18"/>
<text text-anchor="middle" x="646.659" y="-392.3" font-family="Times,serif" font-size="14.00" fill="#2c94b3">AS2497</text>
</a>
</g>
</g>
<!-- AS3257&#45;&gt;AS2497 -->
<g id="edge24" class="edge"><title>AS3257&#45;&gt;AS2497</title>
<path fill="none" stroke="black" d="M565.426,-404.851C575.737,-403.713 587.055,-402.465 597.855,-401.274"/>
<polygon fill="black" stroke="black" points="598.446,-404.73 608.002,-400.154 597.678,-397.772 598.446,-404.73"/>
</g>
<!-- AS6461 -->
<g id="node22" class="node"><title>AS6461</title>
<g id="a_node22"><a xlink:href="/asn/6461" xlink:title="AS6461 ~ ZAYO&#45;6461 [US]">
<ellipse fill="#ffffff" stroke="black" cx="646.659" cy="-504" rx="39.7935" ry="18"/>
<text text-anchor="middle" x="646.659" y="-500.3" font-family="Times,serif" font-size="14.00" fill="#2c94b3">AS6461</text>
</a>
</g>
</g>
<!-- AS8218&#45;&gt;AS6461 -->
<g id="edge26" class="edge"><title>AS8218&#45;&gt;AS6461</title>
<path fill="none" stroke="black" d="M565.426,-494.468C575.737,-495.693 587.055,-497.038 597.855,-498.321"/>
<polygon fill="black" stroke="black" points="597.658,-501.822 608.002,-499.526 598.484,-494.871 597.658,-501.822"/>
</g>
<!-- AS1239 -->
<g id="node19" class="node"><title>AS1239</title>
<g id="a_node19"><a xlink:href="/asn/1239" xlink:title="AS1239 ~ Sprint [US]">
<ellipse fill="#ffffff" stroke="black" cx="646.659" cy="-72" rx="39.7935" ry="18"/>
<text text-anchor="middle" x="646.659" y="-68.3" font-family="Times,serif" font-size="14.00" fill="#2c94b3">AS1239</text>
</a>
</g>
</g>
<!-- AS1299&#45;&gt;AS1239 -->
<g id="edge23" class="edge"><title>AS1299&#45;&gt;AS1239</title>
<path fill="none" stroke="black" d="M566.729,-72C576.282,-72 586.632,-72 596.594,-72"/>
<polygon fill="black" stroke="black" points="596.787,-75.5001 606.787,-72 596.787,-68.5001 596.787,-75.5001"/>
</g>
<!-- AS7018 -->
<g id="node21" class="node"><title>AS7018</title>
<g id="a_node21"><a xlink:href="/asn/7018" xlink:title="AS7018 ~ AT&amp;T Services, Inc. [US]">
<ellipse fill="#ffffff" stroke="black" cx="646.659" cy="-18" rx="39.7935" ry="18"/>
<text text-anchor="middle" x="646.659" y="-14.3" font-family="Times,serif" font-size="14.00" fill="#2c94b3">AS7018</text>
</a>
</g>
</g>
<!-- AS1299&#45;&gt;AS7018 -->
<g id="edge22" class="edge"><title>AS1299&#45;&gt;AS7018</title>
<path fill="none" stroke="black" d="M555.445,-59.3394C571.402,-52.0273 591.672,-42.7385 608.955,-34.8189"/>
<polygon fill="black" stroke="black" points="610.57,-37.929 618.203,-30.5813 607.654,-31.5653 610.57,-37.929"/>
</g>
<!-- AS3320&#45;&gt;AS2914 -->
<g id="edge21" class="edge"><title>AS3320&#45;&gt;AS2914</title>
<path fill="none" stroke="black" d="M555.445,-138.661C571.402,-145.973 591.672,-155.261 608.955,-163.181"/>
<polygon fill="black" stroke="black" points="607.654,-166.435 618.203,-167.419 610.57,-160.071 607.654,-166.435"/>
</g>
<!-- AS3320&#45;&gt;AS1239 -->
<g id="edge19" class="edge"><title>AS3320&#45;&gt;AS1239</title>
<path fill="none" stroke="black" d="M555.445,-113.339C571.402,-106.027 591.672,-96.7385 608.955,-88.8189"/>
<polygon fill="black" stroke="black" points="610.57,-91.929 618.203,-84.5813 607.654,-85.5653 610.57,-91.929"/>
</g>
<!-- AS701 -->
<g id="node20" class="node"><title>AS701</title>
<g id="a_node20"><a xlink:href="/asn/701" xlink:title="AS701 ~ UUNET [US]">
<ellipse fill="#ffffff" stroke="black" cx="646.659" cy="-126" rx="35.194" ry="18"/>
<text text-anchor="middle" x="646.659" y="-122.3" font-family="Times,serif" font-size="14.00" fill="#2c94b3">AS701</text>
</a>
</g>
</g>
<!-- AS3320&#45;&gt;AS701 -->
<g id="edge20" class="edge"><title>AS3320&#45;&gt;AS701</title>
<path fill="none" stroke="black" d="M566.729,-126C577.816,-126 589.975,-126 601.357,-126"/>
<polygon fill="black" stroke="black" points="601.539,-129.5 611.539,-126 601.539,-122.5 601.539,-129.5"/>
</g>
<!-- AS3356&#45;&gt;AS2914 -->
<g id="edge15" class="edge"><title>AS3356&#45;&gt;AS2914</title>
<path fill="none" stroke="black" d="M549.573,-245.991C555.108,-242.121 561.026,-237.936 566.463,-234 582.662,-222.271 585.968,-218.311 602.463,-207 605.991,-204.581 609.728,-202.111 613.469,-199.698"/>
<polygon fill="black" stroke="black" points="615.541,-202.528 622.11,-194.216 611.791,-196.618 615.541,-202.528"/>
</g>
<!-- AS6453 -->
<g id="node15" class="node"><title>AS6453</title>
<g id="a_node15"><a xlink:href="/asn/6453" xlink:title="AS6453 ~ TATA COMMUNICATIONS (AMERICA) INC [US]">
<ellipse fill="#ffffff" stroke="black" cx="646.659" cy="-288" rx="39.7935" ry="18"/>
<text text-anchor="middle" x="646.659" y="-284.3" font-family="Times,serif" font-size="14.00" fill="#2c94b3">AS6453</text>
</a>
</g>
</g>
<!-- AS3356&#45;&gt;AS6453 -->
<g id="edge14" class="edge"><title>AS3356&#45;&gt;AS6453</title>
<path fill="none" stroke="black" d="M562.535,-268.955C574.535,-271.704 588.156,-274.825 600.849,-277.733"/>
<polygon fill="black" stroke="black" points="600.251,-281.187 610.78,-280.009 601.815,-274.364 600.251,-281.187"/>
</g>
<!-- AS3356&#45;&gt;AS2497 -->
<g id="edge16" class="edge"><title>AS3356&#45;&gt;AS2497</title>
<path fill="none" stroke="black" d="M537.057,-278.713C549.603,-301.561 573.78,-341.611 602.463,-369 605.331,-371.739 608.52,-374.347 611.829,-376.785"/>
<polygon fill="black" stroke="black" points="609.952,-379.742 620.188,-382.477 613.892,-373.956 609.952,-379.742"/>
</g>
<!-- AS12956 -->
<g id="node17" class="node"><title>AS12956</title>
<g id="a_node17"><a xlink:href="/asn/12956" xlink:title="AS12956 ~ TELXIUS [ES]">
<ellipse fill="#ffffff" stroke="black" cx="646.659" cy="-234" rx="44.393" ry="18"/>
<text text-anchor="middle" x="646.659" y="-230.3" font-family="Times,serif" font-size="14.00" fill="#2c94b3">AS12956</text>
</a>
</g>
</g>
<!-- AS3356&#45;&gt;AS12956 -->
<g id="edge17" class="edge"><title>AS3356&#45;&gt;AS12956</title>
<path fill="none" stroke="black" d="M562.535,-253.045C573.674,-250.493 586.209,-247.621 598.102,-244.896"/>
<polygon fill="black" stroke="black" points="598.931,-248.297 607.896,-242.652 597.367,-241.474 598.931,-248.297"/>
</g>
<!-- AS3549 -->
<g id="node18" class="node"><title>AS3549</title>
<g id="a_node18"><a xlink:href="/asn/3549" xlink:title="AS3549 ~ Level 3 Parent, LLC [US]">
<ellipse fill="#ffffff" stroke="black" cx="646.659" cy="-342" rx="39.7935" ry="18"/>
<text text-anchor="middle" x="646.659" y="-338.3" font-family="Times,serif" font-size="14.00" fill="#2c94b3">AS3549</text>
</a>
</g>
</g>
<!-- AS3356&#45;&gt;AS3549 -->
<g id="edge18" class="edge"><title>AS3356&#45;&gt;AS3549</title>
<path fill="none" stroke="black" d="M548.146,-276.277C563.009,-287.304 583.753,-302.407 602.463,-315 606.012,-317.389 609.762,-319.839 613.51,-322.242"/>
<polygon fill="black" stroke="black" points="611.836,-325.325 622.159,-327.712 615.578,-319.409 611.836,-325.325"/>
</g>
</g>
</svg>
