<?xml version="1.0" encoding="UTF-8" standalone="no"?>
<!DOCTYPE svg PUBLIC "-//W3C//DTD SVG 1.1//EN"
 "http://www.w3.org/Graphics/SVG/1.1/DTD/svg11.dtd">
<!-- Generated by graphviz version 2.38.0 (20140413.2041)
 -->
<!-- Title: AS47576 Combined Upstream Graph Pages: 1 -->
<svg width="691pt" height="822pt"
 viewBox="0.00 0.00 691.06 822.00" xmlns="http://www.w3.org/2000/svg" xmlns:xlink="http://www.w3.org/1999/xlink">
<g id="graph0" class="graph" transform="scale(1 1) rotate(0) translate(4 818)">
<title>AS47576 Combined Upstream Graph</title>
<polygon fill="white" stroke="none" points="-4,4 -4,-818 687.055,-818 687.055,4 -4,4"/>
<!-- AS47576 -->
<g id="node1" class="node"><title>AS47576</title>
<g id="a_node1"><a xlink:href="/asn/47576" xlink:title="AS47576 ~ NETZWARE&#45;AS [AT]">
<ellipse fill="#ffffff" stroke="black" cx="44.1961" cy="-353" rx="44.393" ry="18"/>
<text text-anchor="middle" x="44.1961" y="-349.3" font-family="Times,serif" font-size="14.00" fill="#880000">AS47576</text>
</a>
</g>
</g>
<!-- AS8245 -->
<g id="node2" class="node"><title>AS8245</title>
<g id="a_node2"><a xlink:href="/asn/8245" xlink:title="AS8245 ~ Video&#45;Broadcast GmbH [AT]">
<ellipse fill="#ffffff" stroke="black" cx="164.039" cy="-353" rx="39.7935" ry="18"/>
<text text-anchor="middle" x="164.039" y="-349.3" font-family="Times,serif" font-size="14.00" fill="#2c94b3">AS8245</text>
</a>
</g>
</g>
<!-- AS47576&#45;&gt;AS8245 -->
<g id="edge1" class="edge"><title>AS47576&#45;&gt;AS8245</title>
<path fill="none" stroke="black" stroke-width="4.5" d="M88.4072,-353C96.7198,-353 105.482,-353 113.965,-353"/>
<polygon fill="black" stroke="black" stroke-width="4.5" points="114.123,-356.938 124.123,-353 114.123,-349.063 114.123,-356.938"/>
</g>
<!-- AS6830 -->
<g id="node3" class="node"><title>AS6830</title>
<g id="a_node3"><a xlink:href="/asn/6830" xlink:title="AS6830 ~ LGI&#45;UPC [AT]">
<ellipse fill="#ffffff" stroke="black" cx="283.881" cy="-353" rx="39.7935" ry="18"/>
<text text-anchor="middle" x="283.881" y="-349.3" font-family="Times,serif" font-size="14.00" fill="#2c94b3">AS6830</text>
</a>
</g>
</g>
<!-- AS8245&#45;&gt;AS6830 -->
<g id="edge2" class="edge"><title>AS8245&#45;&gt;AS6830</title>
<path fill="none" stroke="black" stroke-width="4.5" d="M203.951,-353C213.505,-353 223.854,-353 233.817,-353"/>
<polygon fill="black" stroke="black" stroke-width="4.5" points="234.009,-356.938 244.009,-353 234.009,-349.063 234.009,-356.938"/>
</g>
<!-- AS24953 -->
<g id="node4" class="node"><title>AS24953</title>
<g id="a_node4"><a xlink:href="/asn/24953" xlink:title="AS24953 ~ AS MACRO: AS&#45;24953 (customers) [AT]">
<ellipse fill="#ffffff" stroke="black" cx="283.881" cy="-742" rx="44.393" ry="18"/>
<text text-anchor="middle" x="283.881" y="-738.3" font-family="Times,serif" font-size="14.00" fill="#2c94b3">AS24953</text>
</a>
</g>
</g>
<!-- AS8245&#45;&gt;AS24953 -->
<g id="edge3" class="edge"><title>AS8245&#45;&gt;AS24953</title>
<path fill="none" stroke="black" stroke-width="1.125" d="M170.486,-370.982C189.292,-433.061 251.584,-638.686 274.406,-714.023"/>
<polygon fill="black" stroke="black" stroke-width="1.125" points="271.107,-715.204 277.356,-723.76 277.806,-713.175 271.107,-715.204"/>
</g>
<!-- AS8218 -->
<g id="node5" class="node"><title>AS8218</title>
<g id="a_node5"><a xlink:href="/asn/8218" xlink:title="AS8218 ~ legacy Neotelecoms [FR]">
<ellipse fill="#ffffff" stroke="black" cx="283.881" cy="-172" rx="39.7935" ry="18"/>
<text text-anchor="middle" x="283.881" y="-168.3" font-family="Times,serif" font-size="14.00" fill="#2c94b3">AS8218</text>
</a>
</g>
</g>
<!-- AS8245&#45;&gt;AS8218 -->
<g id="edge4" class="edge"><title>AS8245&#45;&gt;AS8218</title>
<path fill="none" stroke="black" stroke-width="0.28125" d="M176.338,-335.645C197.103,-303.751 241.436,-235.657 265.862,-198.141"/>
<polygon fill="black" stroke="black" stroke-width="0.28125" points="269.093,-199.593 271.616,-189.302 263.227,-195.773 269.093,-199.593"/>
</g>
<!-- AS1239 -->
<g id="node6" class="node"><title>AS1239</title>
<g id="a_node6"><a xlink:href="/asn/1239" xlink:title="AS1239 ~ Sprint [US]">
<ellipse fill="#ffffff" stroke="black" cx="408.273" cy="-272" rx="39.7935" ry="18"/>
<text text-anchor="middle" x="408.273" y="-268.3" font-family="Times,serif" font-size="14.00" fill="#2c94b3">AS1239</text>
</a>
</g>
</g>
<!-- AS6830&#45;&gt;AS1239 -->
<g id="edge5" class="edge"><title>AS6830&#45;&gt;AS1239</title>
<path fill="none" stroke="black" d="M306.238,-338.099C322.089,-327.123 344.292,-311.921 364.077,-299 367.659,-296.661 371.43,-294.241 375.19,-291.856"/>
<polygon fill="black" stroke="black" points="377.252,-294.693 383.851,-286.404 373.523,-288.769 377.252,-294.693"/>
</g>
<!-- AS3356 -->
<g id="node7" class="node"><title>AS3356</title>
<g id="a_node7"><a xlink:href="/asn/3356" xlink:title="AS3356 ~ Level 3 Parent, LLC [US]">
<ellipse fill="#ffffff" stroke="black" cx="528.116" cy="-719" rx="39.7935" ry="18"/>
<text text-anchor="middle" x="528.116" y="-715.3" font-family="Times,serif" font-size="14.00" fill="#2c94b3">AS3356</text>
</a>
</g>
</g>
<!-- AS6830&#45;&gt;AS3356 -->
<g id="edge6" class="edge"><title>AS6830&#45;&gt;AS3356</title>
<path fill="none" stroke="black" stroke-width="3" d="M286.859,-371C293.963,-432.435 320.131,-632.505 364.077,-677 380.159,-693.282 437.567,-705.36 479.729,-712.284"/>
<polygon fill="black" stroke="black" stroke-width="3" points="479.389,-715.774 489.815,-713.892 480.49,-708.862 479.389,-715.774"/>
</g>
<!-- AS2914 -->
<g id="node8" class="node"><title>AS2914</title>
<g id="a_node8"><a xlink:href="/asn/2914" xlink:title="AS2914 ~ NTT America, Inc. [US]">
<ellipse fill="#ffffff" stroke="black" cx="408.273" cy="-72" rx="39.7935" ry="18"/>
<text text-anchor="middle" x="408.273" y="-68.3" font-family="Times,serif" font-size="14.00" fill="#2c94b3">AS2914</text>
</a>
</g>
</g>
<!-- AS6830&#45;&gt;AS2914 -->
<g id="edge7" class="edge"><title>AS6830&#45;&gt;AS2914</title>
<path fill="none" stroke="black" d="M289.857,-335.195C304.959,-281.486 350.097,-123.56 364.077,-104 367.12,-99.7433 370.901,-95.8163 374.952,-92.2788"/>
<polygon fill="black" stroke="black" points="377.266,-94.9118 382.951,-85.9716 372.932,-89.4151 377.266,-94.9118"/>
</g>
<!-- AS2497 -->
<g id="node9" class="node"><title>AS2497</title>
<g id="a_node9"><a xlink:href="/asn/2497" xlink:title="AS2497 ~ Internet Initiative Japan Inc. [JP]">
<ellipse fill="#ffffff" stroke="black" cx="408.273" cy="-650" rx="39.7935" ry="18"/>
<text text-anchor="middle" x="408.273" y="-646.3" font-family="Times,serif" font-size="14.00" fill="#2c94b3">AS2497</text>
</a>
</g>
</g>
<!-- AS6830&#45;&gt;AS2497 -->
<g id="edge8" class="edge"><title>AS6830&#45;&gt;AS2497</title>
<path fill="none" stroke="black" d="M285.83,-371.036C289.116,-417.457 303.426,-543.007 364.077,-623 366.348,-625.995 369.056,-628.74 371.992,-631.235"/>
<polygon fill="black" stroke="black" points="370.032,-634.138 380.157,-637.256 374.186,-628.504 370.032,-634.138"/>
</g>
<!-- AS6453 -->
<g id="node10" class="node"><title>AS6453</title>
<g id="a_node10"><a xlink:href="/asn/6453" xlink:title="AS6453 ~ TATA COMMUNICATIONS (AMERICA) INC [US]">
<ellipse fill="#ffffff" stroke="black" cx="408.273" cy="-596" rx="39.7935" ry="18"/>
<text text-anchor="middle" x="408.273" y="-592.3" font-family="Times,serif" font-size="14.00" fill="#2c94b3">AS6453</text>
</a>
</g>
</g>
<!-- AS6830&#45;&gt;AS6453 -->
<g id="edge9" class="edge"><title>AS6830&#45;&gt;AS6453</title>
<path fill="none" stroke="black" d="M287.462,-371.178C293.917,-410.997 313.988,-507.286 364.077,-569 366.446,-571.918 369.219,-574.612 372.196,-577.075"/>
<polygon fill="black" stroke="black" points="370.271,-580.003 380.418,-583.052 374.387,-574.341 370.271,-580.003"/>
</g>
<!-- AS3320 -->
<g id="node11" class="node"><title>AS3320</title>
<g id="a_node11"><a xlink:href="/asn/3320" xlink:title="AS3320 ~ DTAG [DE]">
<ellipse fill="#ffffff" stroke="black" cx="408.273" cy="-542" rx="39.7935" ry="18"/>
<text text-anchor="middle" x="408.273" y="-538.3" font-family="Times,serif" font-size="14.00" fill="#2c94b3">AS3320</text>
</a>
</g>
</g>
<!-- AS6830&#45;&gt;AS3320 -->
<g id="edge10" class="edge"><title>AS6830&#45;&gt;AS3320</title>
<path fill="none" stroke="black" d="M290.019,-370.94C299.922,-402.979 324.259,-470.812 364.077,-515 366.593,-517.792 369.465,-520.401 372.504,-522.812"/>
<polygon fill="black" stroke="black" points="370.633,-525.776 380.812,-528.715 374.687,-520.07 370.633,-525.776"/>
</g>
<!-- AS174 -->
<g id="node12" class="node"><title>AS174</title>
<g id="a_node12"><a xlink:href="/asn/174" xlink:title="AS174 ~ Cogent Communications [US]">
<ellipse fill="#ffffff" stroke="black" cx="408.273" cy="-488" rx="35.194" ry="18"/>
<text text-anchor="middle" x="408.273" y="-484.3" font-family="Times,serif" font-size="14.00" fill="#2c94b3">AS174</text>
</a>
</g>
</g>
<!-- AS6830&#45;&gt;AS174 -->
<g id="edge11" class="edge"><title>AS6830&#45;&gt;AS174</title>
<path fill="none" stroke="black" d="M294.927,-370.671C308.498,-393.472 334.43,-433.472 364.077,-461 367.374,-464.061 371.067,-466.972 374.868,-469.672"/>
<polygon fill="black" stroke="black" points="372.979,-472.619 383.249,-475.22 376.842,-466.781 372.979,-472.619"/>
</g>
<!-- AS3491 -->
<g id="node13" class="node"><title>AS3491</title>
<g id="a_node13"><a xlink:href="/asn/3491" xlink:title="AS3491 ~ PCCW Global, Inc. [US]">
<ellipse fill="#ffffff" stroke="black" cx="408.273" cy="-434" rx="39.7935" ry="18"/>
<text text-anchor="middle" x="408.273" y="-430.3" font-family="Times,serif" font-size="14.00" fill="#2c94b3">AS3491</text>
</a>
</g>
</g>
<!-- AS6830&#45;&gt;AS3491 -->
<g id="edge12" class="edge"><title>AS6830&#45;&gt;AS3491</title>
<path fill="none" stroke="black" d="M306.238,-367.901C322.089,-378.877 344.292,-394.079 364.077,-407 367.659,-409.339 371.43,-411.759 375.19,-414.144"/>
<polygon fill="black" stroke="black" points="373.523,-417.231 383.851,-419.596 377.252,-411.307 373.523,-417.231"/>
</g>
<!-- AS7018 -->
<g id="node14" class="node"><title>AS7018</title>
<g id="a_node14"><a xlink:href="/asn/7018" xlink:title="AS7018 ~ AT&amp;T Services, Inc. [US]">
<ellipse fill="#ffffff" stroke="black" cx="408.273" cy="-380" rx="39.7935" ry="18"/>
<text text-anchor="middle" x="408.273" y="-376.3" font-family="Times,serif" font-size="14.00" fill="#2c94b3">AS7018</text>
</a>
</g>
</g>
<!-- AS6830&#45;&gt;AS7018 -->
<g id="edge13" class="edge"><title>AS6830&#45;&gt;AS7018</title>
<path fill="none" stroke="black" d="M319.954,-360.737C333.141,-363.646 348.321,-366.995 362.287,-370.076"/>
<polygon fill="black" stroke="black" points="361.676,-373.525 372.196,-372.262 363.184,-366.69 361.676,-373.525"/>
</g>
<!-- AS6762 -->
<g id="node15" class="node"><title>AS6762</title>
<g id="a_node15"><a xlink:href="/asn/6762" xlink:title="AS6762 ~ TELECOM ITALIA SPARKLE S.p.A. [IT]">
<ellipse fill="#ffffff" stroke="black" cx="408.273" cy="-326" rx="39.7935" ry="18"/>
<text text-anchor="middle" x="408.273" y="-322.3" font-family="Times,serif" font-size="14.00" fill="#2c94b3">AS6762</text>
</a>
</g>
</g>
<!-- AS6830&#45;&gt;AS6762 -->
<g id="edge14" class="edge"><title>AS6830&#45;&gt;AS6762</title>
<path fill="none" stroke="black" d="M319.954,-345.263C333.141,-342.354 348.321,-339.005 362.287,-335.924"/>
<polygon fill="black" stroke="black" points="363.184,-339.31 372.196,-333.738 361.676,-332.475 363.184,-339.31"/>
</g>
<!-- AS701 -->
<g id="node16" class="node"><title>AS701</title>
<g id="a_node16"><a xlink:href="/asn/701" xlink:title="AS701 ~ UUNET [US]">
<ellipse fill="#ffffff" stroke="black" cx="408.273" cy="-218" rx="35.194" ry="18"/>
<text text-anchor="middle" x="408.273" y="-214.3" font-family="Times,serif" font-size="14.00" fill="#2c94b3">AS701</text>
</a>
</g>
</g>
<!-- AS6830&#45;&gt;AS701 -->
<g id="edge15" class="edge"><title>AS6830&#45;&gt;AS701</title>
<path fill="none" stroke="black" d="M294.927,-335.329C308.498,-312.528 334.43,-272.528 364.077,-245 367.374,-241.939 371.067,-239.028 374.868,-236.328"/>
<polygon fill="black" stroke="black" points="376.842,-239.219 383.249,-230.78 372.979,-233.381 376.842,-239.219"/>
</g>
<!-- AS12956 -->
<g id="node17" class="node"><title>AS12956</title>
<g id="a_node17"><a xlink:href="/asn/12956" xlink:title="AS12956 ~ TELXIUS [ES]">
<ellipse fill="#ffffff" stroke="black" cx="408.273" cy="-164" rx="44.393" ry="18"/>
<text text-anchor="middle" x="408.273" y="-160.3" font-family="Times,serif" font-size="14.00" fill="#2c94b3">AS12956</text>
</a>
</g>
</g>
<!-- AS6830&#45;&gt;AS12956 -->
<g id="edge16" class="edge"><title>AS6830&#45;&gt;AS12956</title>
<path fill="none" stroke="black" d="M290.019,-335.06C299.922,-303.021 324.259,-235.188 364.077,-191 366.397,-188.425 369.019,-186.006 371.796,-183.756"/>
<polygon fill="black" stroke="black" points="373.872,-186.574 379.911,-177.868 369.762,-180.908 373.872,-186.574"/>
</g>
<!-- AS6461 -->
<g id="node18" class="node"><title>AS6461</title>
<g id="a_node18"><a xlink:href="/asn/6461" xlink:title="AS6461 ~ Zayo Bandwidth [US]">
<ellipse fill="#ffffff" stroke="black" cx="408.273" cy="-18" rx="39.7935" ry="18"/>
<text text-anchor="middle" x="408.273" y="-14.3" font-family="Times,serif" font-size="14.00" fill="#2c94b3">AS6461</text>
</a>
</g>
</g>
<!-- AS6830&#45;&gt;AS6461 -->
<g id="edge17" class="edge"><title>AS6830&#45;&gt;AS6461</title>
<path fill="none" stroke="black" d="M290.192,-335.05C298.608,-306.392 315.36,-248.485 328.077,-199 345.573,-130.923 323.185,-102.171 364.077,-45 366.084,-42.1947 368.482,-39.6175 371.105,-37.264"/>
<polygon fill="black" stroke="black" points="373.657,-39.7188 379.484,-30.8703 369.411,-34.1537 373.657,-39.7188"/>
</g>
<!-- AS1299 -->
<g id="node19" class="node"><title>AS1299</title>
<g id="a_node19"><a xlink:href="/asn/1299" xlink:title="AS1299 ~ Telia Carrier [EU]">
<ellipse fill="#ffffff" stroke="black" cx="528.116" cy="-403" rx="39.7935" ry="18"/>
<text text-anchor="middle" x="528.116" y="-399.3" font-family="Times,serif" font-size="14.00" fill="#2c94b3">AS1299</text>
</a>
</g>
</g>
<!-- AS6830&#45;&gt;AS1299 -->
<g id="edge18" class="edge"><title>AS6830&#45;&gt;AS1299</title>
<path fill="none" stroke="black" d="M290.179,-335.04C305.009,-285.356 346.968,-148.95 364.077,-137 396.285,-114.505 421.162,-113.269 452.469,-137 490.771,-166.033 514.851,-312.624 523.503,-374.922"/>
<polygon fill="black" stroke="black" points="520.037,-375.41 524.849,-384.849 526.973,-374.47 520.037,-375.41"/>
</g>
<!-- AS21385 -->
<g id="node22" class="node"><title>AS21385</title>
<g id="a_node22"><a xlink:href="/asn/21385" xlink:title="AS21385 ~ Trusted Network GmbH [DE]">
<ellipse fill="#ffffff" stroke="black" cx="408.273" cy="-742" rx="44.393" ry="18"/>
<text text-anchor="middle" x="408.273" y="-738.3" font-family="Times,serif" font-size="14.00" fill="#2c94b3">AS21385</text>
</a>
</g>
</g>
<!-- AS24953&#45;&gt;AS21385 -->
<g id="edge21" class="edge"><title>AS24953&#45;&gt;AS21385</title>
<path fill="none" stroke="black" stroke-width="3" d="M328.377,-742C336.583,-742 345.254,-742 353.727,-742"/>
<polygon fill="black" stroke="black" stroke-width="3" points="353.918,-745.5 363.918,-742 353.918,-738.5 353.918,-745.5"/>
</g>
<!-- AS3257 -->
<g id="node23" class="node"><title>AS3257</title>
<g id="a_node23"><a xlink:href="/asn/3257" xlink:title="AS3257 ~ GTT [DE]">
<ellipse fill="#ffffff" stroke="black" cx="408.273" cy="-796" rx="39.7935" ry="18"/>
<text text-anchor="middle" x="408.273" y="-792.3" font-family="Times,serif" font-size="14.00" fill="#2c94b3">AS3257</text>
</a>
</g>
</g>
<!-- AS24953&#45;&gt;AS3257 -->
<g id="edge22" class="edge"><title>AS24953&#45;&gt;AS3257</title>
<path fill="none" stroke="black" d="M314.509,-755.072C331.103,-762.393 351.963,-771.597 369.696,-779.421"/>
<polygon fill="black" stroke="black" points="368.618,-782.77 379.18,-783.605 371.443,-776.366 368.618,-782.77"/>
</g>
<!-- AS8218&#45;&gt;AS6461 -->
<g id="edge25" class="edge"><title>AS8218&#45;&gt;AS6461</title>
<path fill="none" stroke="black" d="M292.732,-154.253C305.012,-127.983 330.838,-78.2739 364.077,-45 366.88,-42.1942 370.026,-39.5429 373.31,-37.0781"/>
<polygon fill="black" stroke="black" points="375.379,-39.9029 381.637,-31.3535 371.414,-34.1345 375.379,-39.9029"/>
</g>
<!-- AS3549 -->
<g id="node20" class="node"><title>AS3549</title>
<g id="a_node20"><a xlink:href="/asn/3549" xlink:title="AS3549 ~ Level 3 Parent, LLC [US]">
<ellipse fill="#ffffff" stroke="black" cx="643.409" cy="-746" rx="39.7935" ry="18"/>
<text text-anchor="middle" x="643.409" y="-742.3" font-family="Times,serif" font-size="14.00" fill="#2c94b3">AS3549</text>
</a>
</g>
</g>
<!-- AS3356&#45;&gt;AS3549 -->
<g id="edge19" class="edge"><title>AS3356&#45;&gt;AS3549</title>
<path fill="none" stroke="black" stroke-width="2" d="M563.723,-727.248C574.594,-729.838 586.749,-732.735 598.191,-735.462"/>
<polygon fill="black" stroke="black" stroke-width="2" points="597.475,-738.889 608.014,-737.803 599.097,-732.08 597.475,-738.889"/>
</g>
<!-- AS209 -->
<g id="node21" class="node"><title>AS209</title>
<g id="a_node21"><a xlink:href="/asn/209" xlink:title="AS209 ~ CenturyLink Communications, LLC [US]">
<ellipse fill="#ffffff" stroke="black" cx="643.409" cy="-692" rx="35.194" ry="18"/>
<text text-anchor="middle" x="643.409" y="-688.3" font-family="Times,serif" font-size="14.00" fill="#2c94b3">AS209</text>
</a>
</g>
</g>
<!-- AS3356&#45;&gt;AS209 -->
<g id="edge20" class="edge"><title>AS3356&#45;&gt;AS209</title>
<path fill="none" stroke="black" d="M563.723,-710.752C575.518,-707.942 588.822,-704.771 601.09,-701.847"/>
<polygon fill="black" stroke="black" points="602.179,-705.186 611.095,-699.463 600.556,-698.376 602.179,-705.186"/>
</g>
<!-- AS21385&#45;&gt;AS3356 -->
<g id="edge23" class="edge"><title>AS21385&#45;&gt;AS3356</title>
<path fill="none" stroke="black" stroke-width="2" d="M448.513,-734.341C458.965,-732.301 470.351,-730.079 481.129,-727.975"/>
<polygon fill="black" stroke="black" stroke-width="2" points="482.082,-731.356 491.227,-726.005 480.741,-724.485 482.082,-731.356"/>
</g>
<!-- AS21385&#45;&gt;AS1299 -->
<g id="edge24" class="edge"><title>AS21385&#45;&gt;AS1299</title>
<path fill="none" stroke="black" d="M422.81,-724.965C432.269,-712.347 444.57,-694.395 452.469,-677 491.294,-591.503 513.666,-481.567 522.577,-430.875"/>
<polygon fill="black" stroke="black" points="526.032,-431.435 524.275,-420.987 519.133,-430.25 526.032,-431.435"/>
</g>
</g>
</svg>
