<?xml version="1.0" encoding="UTF-8" standalone="no"?>
<!DOCTYPE svg PUBLIC "-//W3C//DTD SVG 1.1//EN"
 "http://www.w3.org/Graphics/SVG/1.1/DTD/svg11.dtd">
<!-- Generated by graphviz version 2.38.0 (20140413.2041)
 -->
<!-- Title: AS47576 Combined Upstream Graph Pages: 1 -->
<svg width="691pt" height="638pt"
 viewBox="0.00 0.00 691.06 638.00" xmlns="http://www.w3.org/2000/svg" xmlns:xlink="http://www.w3.org/1999/xlink">
<g id="graph0" class="graph" transform="scale(1 1) rotate(0) translate(4 634)">
<title>AS47576 Combined Upstream Graph</title>
<polygon fill="white" stroke="none" points="-4,4 -4,-634 687.055,-634 687.055,4 -4,4"/>
<!-- AS47576 -->
<g id="node1" class="node"><title>AS47576</title>
<g id="a_node1"><a xlink:href="/asn/47576" xlink:title="AS47576 ~ NETZWARE&#45;AS [AT]">
<ellipse fill="#ffffff" stroke="black" cx="44.1961" cy="-113" rx="44.393" ry="18"/>
<text text-anchor="middle" x="44.1961" y="-109.3" font-family="Times,serif" font-size="14.00" fill="#880000">AS47576</text>
</a>
</g>
</g>
<!-- AS8245 -->
<g id="node2" class="node"><title>AS8245</title>
<g id="a_node2"><a xlink:href="/asn/8245" xlink:title="AS8245 ~ Video&#45;Broadcast GmbH [AT]">
<ellipse fill="#ffffff" stroke="black" cx="164.039" cy="-113" rx="39.7935" ry="18"/>
<text text-anchor="middle" x="164.039" y="-109.3" font-family="Times,serif" font-size="14.00" fill="#2c94b3">AS8245</text>
</a>
</g>
</g>
<!-- AS47576&#45;&gt;AS8245 -->
<g id="edge1" class="edge"><title>AS47576&#45;&gt;AS8245</title>
<path fill="none" stroke="black" stroke-width="4.5" d="M88.4072,-113C96.7198,-113 105.482,-113 113.965,-113"/>
<polygon fill="black" stroke="black" stroke-width="4.5" points="114.123,-116.938 124.123,-113 114.123,-109.063 114.123,-116.938"/>
</g>
<!-- AS6830 -->
<g id="node3" class="node"><title>AS6830</title>
<g id="a_node3"><a xlink:href="/asn/6830" xlink:title="AS6830 ~ LGI&#45;UPC [AT]">
<ellipse fill="#ffffff" stroke="black" cx="283.881" cy="-369" rx="39.7935" ry="18"/>
<text text-anchor="middle" x="283.881" y="-365.3" font-family="Times,serif" font-size="14.00" fill="#2c94b3">AS6830</text>
</a>
</g>
</g>
<!-- AS8245&#45;&gt;AS6830 -->
<g id="edge2" class="edge"><title>AS8245&#45;&gt;AS6830</title>
<path fill="none" stroke="black" stroke-width="4.5" d="M173.138,-130.596C193.363,-174.531 246.188,-289.287 270.413,-341.915"/>
<polygon fill="black" stroke="black" stroke-width="4.5" points="266.966,-343.844 274.725,-351.281 274.12,-340.551 266.966,-343.844"/>
</g>
<!-- AS24953 -->
<g id="node4" class="node"><title>AS24953</title>
<g id="a_node4"><a xlink:href="/asn/24953" xlink:title="AS24953 ~ AS MACRO: AS&#45;24953 (customers) [AT]">
<ellipse fill="#ffffff" stroke="black" cx="283.881" cy="-113" rx="44.393" ry="18"/>
<text text-anchor="middle" x="283.881" y="-109.3" font-family="Times,serif" font-size="14.00" fill="#2c94b3">AS24953</text>
</a>
</g>
</g>
<!-- AS8245&#45;&gt;AS24953 -->
<g id="edge3" class="edge"><title>AS8245&#45;&gt;AS24953</title>
<path fill="none" stroke="black" stroke-width="2" d="M203.951,-113C212.054,-113 220.729,-113 229.255,-113"/>
<polygon fill="black" stroke="black" stroke-width="2" points="229.533,-116.5 239.533,-113 229.533,-109.5 229.533,-116.5"/>
</g>
<!-- AS8218 -->
<g id="node5" class="node"><title>AS8218</title>
<g id="a_node5"><a xlink:href="/asn/8218" xlink:title="AS8218 ~ legacy Neotelecoms [FR]">
<ellipse fill="#ffffff" stroke="black" cx="283.881" cy="-32" rx="39.7935" ry="18"/>
<text text-anchor="middle" x="283.881" y="-28.3" font-family="Times,serif" font-size="14.00" fill="#2c94b3">AS8218</text>
</a>
</g>
</g>
<!-- AS8245&#45;&gt;AS8218 -->
<g id="edge4" class="edge"><title>AS8245&#45;&gt;AS8218</title>
<path fill="none" stroke="black" stroke-width="0.5" d="M186.653,-98.1434C205.141,-85.4351 231.955,-67.0045 252.585,-52.8246"/>
<polygon fill="black" stroke="black" stroke-width="0.5" points="254.747,-55.5856 261.005,-47.0368 250.781,-49.817 254.747,-55.5856"/>
</g>
<!-- AS174 -->
<g id="node6" class="node"><title>AS174</title>
<g id="a_node6"><a xlink:href="/asn/174" xlink:title="AS174 ~ Cogent Communications [US]">
<ellipse fill="#ffffff" stroke="black" cx="408.273" cy="-612" rx="35.194" ry="18"/>
<text text-anchor="middle" x="408.273" y="-608.3" font-family="Times,serif" font-size="14.00" fill="#2c94b3">AS174</text>
</a>
</g>
</g>
<!-- AS6830&#45;&gt;AS174 -->
<g id="edge5" class="edge"><title>AS6830&#45;&gt;AS174</title>
<path fill="none" stroke="black" d="M287.462,-387.178C293.917,-426.997 313.988,-523.286 364.077,-585 366.773,-588.322 369.993,-591.352 373.442,-594.083"/>
<polygon fill="black" stroke="black" points="371.567,-597.043 381.767,-599.906 375.579,-591.307 371.567,-597.043"/>
</g>
<!-- AS2914 -->
<g id="node7" class="node"><title>AS2914</title>
<g id="a_node7"><a xlink:href="/asn/2914" xlink:title="AS2914 ~ NTT America, Inc. [US]">
<ellipse fill="#ffffff" stroke="black" cx="408.273" cy="-558" rx="39.7935" ry="18"/>
<text text-anchor="middle" x="408.273" y="-554.3" font-family="Times,serif" font-size="14.00" fill="#2c94b3">AS2914</text>
</a>
</g>
</g>
<!-- AS6830&#45;&gt;AS2914 -->
<g id="edge6" class="edge"><title>AS6830&#45;&gt;AS2914</title>
<path fill="none" stroke="black" d="M290.019,-386.94C299.922,-418.979 324.259,-486.812 364.077,-531 366.593,-533.792 369.465,-536.401 372.504,-538.812"/>
<polygon fill="black" stroke="black" points="370.633,-541.776 380.812,-544.715 374.687,-536.07 370.633,-541.776"/>
</g>
<!-- AS2497 -->
<g id="node8" class="node"><title>AS2497</title>
<g id="a_node8"><a xlink:href="/asn/2497" xlink:title="AS2497 ~ Internet Initiative Japan Inc. [JP]">
<ellipse fill="#ffffff" stroke="black" cx="408.273" cy="-504" rx="39.7935" ry="18"/>
<text text-anchor="middle" x="408.273" y="-500.3" font-family="Times,serif" font-size="14.00" fill="#2c94b3">AS2497</text>
</a>
</g>
</g>
<!-- AS6830&#45;&gt;AS2497 -->
<g id="edge7" class="edge"><title>AS6830&#45;&gt;AS2497</title>
<path fill="none" stroke="black" d="M294.927,-386.671C308.498,-409.472 334.43,-449.472 364.077,-477 366.984,-479.699 370.197,-482.28 373.521,-484.703"/>
<polygon fill="black" stroke="black" points="371.656,-487.667 381.899,-490.375 375.58,-481.87 371.656,-487.667"/>
</g>
<!-- AS1239 -->
<g id="node9" class="node"><title>AS1239</title>
<g id="a_node9"><a xlink:href="/asn/1239" xlink:title="AS1239 ~ Sprint [US]">
<ellipse fill="#ffffff" stroke="black" cx="408.273" cy="-450" rx="39.7935" ry="18"/>
<text text-anchor="middle" x="408.273" y="-446.3" font-family="Times,serif" font-size="14.00" fill="#2c94b3">AS1239</text>
</a>
</g>
</g>
<!-- AS6830&#45;&gt;AS1239 -->
<g id="edge8" class="edge"><title>AS6830&#45;&gt;AS1239</title>
<path fill="none" stroke="black" d="M306.238,-383.901C322.089,-394.877 344.292,-410.079 364.077,-423 367.659,-425.339 371.43,-427.759 375.19,-430.144"/>
<polygon fill="black" stroke="black" points="373.523,-433.231 383.851,-435.596 377.252,-427.307 373.523,-433.231"/>
</g>
<!-- AS701 -->
<g id="node10" class="node"><title>AS701</title>
<g id="a_node10"><a xlink:href="/asn/701" xlink:title="AS701 ~ UUNET [US]">
<ellipse fill="#ffffff" stroke="black" cx="408.273" cy="-396" rx="35.194" ry="18"/>
<text text-anchor="middle" x="408.273" y="-392.3" font-family="Times,serif" font-size="14.00" fill="#2c94b3">AS701</text>
</a>
</g>
</g>
<!-- AS6830&#45;&gt;AS701 -->
<g id="edge9" class="edge"><title>AS6830&#45;&gt;AS701</title>
<path fill="none" stroke="black" d="M319.954,-376.737C334.187,-379.877 350.742,-383.529 365.586,-386.804"/>
<polygon fill="black" stroke="black" points="365.021,-390.263 375.54,-389 366.529,-383.428 365.021,-390.263"/>
</g>
<!-- AS3491 -->
<g id="node11" class="node"><title>AS3491</title>
<g id="a_node11"><a xlink:href="/asn/3491" xlink:title="AS3491 ~ PCCW Global, Inc. [US]">
<ellipse fill="#ffffff" stroke="black" cx="408.273" cy="-342" rx="39.7935" ry="18"/>
<text text-anchor="middle" x="408.273" y="-338.3" font-family="Times,serif" font-size="14.00" fill="#2c94b3">AS3491</text>
</a>
</g>
</g>
<!-- AS6830&#45;&gt;AS3491 -->
<g id="edge10" class="edge"><title>AS6830&#45;&gt;AS3491</title>
<path fill="none" stroke="black" d="M319.954,-361.263C333.141,-358.354 348.321,-355.005 362.287,-351.924"/>
<polygon fill="black" stroke="black" points="363.184,-355.31 372.196,-349.738 361.676,-348.475 363.184,-355.31"/>
</g>
<!-- AS6762 -->
<g id="node12" class="node"><title>AS6762</title>
<g id="a_node12"><a xlink:href="/asn/6762" xlink:title="AS6762 ~ TELECOM ITALIA SPARKLE S.p.A. [IT]">
<ellipse fill="#ffffff" stroke="black" cx="408.273" cy="-288" rx="39.7935" ry="18"/>
<text text-anchor="middle" x="408.273" y="-284.3" font-family="Times,serif" font-size="14.00" fill="#2c94b3">AS6762</text>
</a>
</g>
</g>
<!-- AS6830&#45;&gt;AS6762 -->
<g id="edge11" class="edge"><title>AS6830&#45;&gt;AS6762</title>
<path fill="none" stroke="black" d="M306.238,-354.099C322.089,-343.123 344.292,-327.921 364.077,-315 367.659,-312.661 371.43,-310.241 375.19,-307.856"/>
<polygon fill="black" stroke="black" points="377.252,-310.693 383.851,-302.404 373.523,-304.769 377.252,-310.693"/>
</g>
<!-- AS6453 -->
<g id="node13" class="node"><title>AS6453</title>
<g id="a_node13"><a xlink:href="/asn/6453" xlink:title="AS6453 ~ TATA COMMUNICATIONS (AMERICA) INC [US]">
<ellipse fill="#ffffff" stroke="black" cx="408.273" cy="-234" rx="39.7935" ry="18"/>
<text text-anchor="middle" x="408.273" y="-230.3" font-family="Times,serif" font-size="14.00" fill="#2c94b3">AS6453</text>
</a>
</g>
</g>
<!-- AS6830&#45;&gt;AS6453 -->
<g id="edge12" class="edge"><title>AS6830&#45;&gt;AS6453</title>
<path fill="none" stroke="black" d="M294.927,-351.329C308.498,-328.528 334.43,-288.528 364.077,-261 366.984,-258.301 370.197,-255.72 373.521,-253.297"/>
<polygon fill="black" stroke="black" points="375.58,-256.13 381.899,-247.625 371.656,-250.333 375.58,-256.13"/>
</g>
<!-- AS7018 -->
<g id="node14" class="node"><title>AS7018</title>
<g id="a_node14"><a xlink:href="/asn/7018" xlink:title="AS7018 ~ AT&amp;T Services, Inc. [US]">
<ellipse fill="#ffffff" stroke="black" cx="408.273" cy="-180" rx="39.7935" ry="18"/>
<text text-anchor="middle" x="408.273" y="-176.3" font-family="Times,serif" font-size="14.00" fill="#2c94b3">AS7018</text>
</a>
</g>
</g>
<!-- AS6830&#45;&gt;AS7018 -->
<g id="edge13" class="edge"><title>AS6830&#45;&gt;AS7018</title>
<path fill="none" stroke="black" d="M290.019,-351.06C299.922,-319.021 324.259,-251.188 364.077,-207 366.593,-204.208 369.465,-201.599 372.504,-199.188"/>
<polygon fill="black" stroke="black" points="374.687,-201.93 380.812,-193.285 370.633,-196.224 374.687,-201.93"/>
</g>
<!-- AS21385 -->
<g id="node15" class="node"><title>AS21385</title>
<g id="a_node15"><a xlink:href="/asn/21385" xlink:title="AS21385 ~ Trusted Network GmbH [DE]">
<ellipse fill="#ffffff" stroke="black" cx="408.273" cy="-126" rx="44.393" ry="18"/>
<text text-anchor="middle" x="408.273" y="-122.3" font-family="Times,serif" font-size="14.00" fill="#2c94b3">AS21385</text>
</a>
</g>
</g>
<!-- AS24953&#45;&gt;AS21385 -->
<g id="edge14" class="edge"><title>AS24953&#45;&gt;AS21385</title>
<path fill="none" stroke="black" stroke-width="3" d="M327.002,-117.474C336.041,-118.434 345.696,-119.46 355.065,-120.455"/>
<polygon fill="black" stroke="black" stroke-width="3" points="354.762,-123.942 365.075,-121.518 355.501,-116.981 354.762,-123.942"/>
</g>
<!-- AS3257 -->
<g id="node16" class="node"><title>AS3257</title>
<g id="a_node16"><a xlink:href="/asn/3257" xlink:title="AS3257 ~ GTT [DE]">
<ellipse fill="#ffffff" stroke="black" cx="408.273" cy="-72" rx="39.7935" ry="18"/>
<text text-anchor="middle" x="408.273" y="-68.3" font-family="Times,serif" font-size="14.00" fill="#2c94b3">AS3257</text>
</a>
</g>
</g>
<!-- AS24953&#45;&gt;AS3257 -->
<g id="edge15" class="edge"><title>AS24953&#45;&gt;AS3257</title>
<path fill="none" stroke="black" d="M318.649,-101.688C333.276,-96.7883 350.539,-91.0055 365.924,-85.8515"/>
<polygon fill="black" stroke="black" points="367.347,-89.0662 375.717,-82.571 365.123,-82.4287 367.347,-89.0662"/>
</g>
<!-- AS6461 -->
<g id="node20" class="node"><title>AS6461</title>
<g id="a_node20"><a xlink:href="/asn/6461" xlink:title="AS6461 ~ Zayo Bandwidth [US]">
<ellipse fill="#ffffff" stroke="black" cx="408.273" cy="-18" rx="39.7935" ry="18"/>
<text text-anchor="middle" x="408.273" y="-14.3" font-family="Times,serif" font-size="14.00" fill="#2c94b3">AS6461</text>
</a>
</g>
</g>
<!-- AS8218&#45;&gt;AS6461 -->
<g id="edge19" class="edge"><title>AS8218&#45;&gt;AS6461</title>
<path fill="none" stroke="black" d="M322.602,-27.6853C334.235,-26.3546 347.202,-24.8714 359.423,-23.4735"/>
<polygon fill="black" stroke="black" points="359.929,-26.9384 369.467,-22.3245 359.134,-19.9838 359.929,-26.9384"/>
</g>
<!-- AS3356 -->
<g id="node17" class="node"><title>AS3356</title>
<g id="a_node17"><a xlink:href="/asn/3356" xlink:title="AS3356 ~ Level 3 Parent, LLC [US]">
<ellipse fill="#ffffff" stroke="black" cx="528.116" cy="-153" rx="39.7935" ry="18"/>
<text text-anchor="middle" x="528.116" y="-149.3" font-family="Times,serif" font-size="14.00" fill="#2c94b3">AS3356</text>
</a>
</g>
</g>
<!-- AS21385&#45;&gt;AS3356 -->
<g id="edge16" class="edge"><title>AS21385&#45;&gt;AS3356</title>
<path fill="none" stroke="black" stroke-width="2" d="M447.208,-134.692C458.449,-137.267 470.861,-140.111 482.485,-142.774"/>
<polygon fill="black" stroke="black" stroke-width="2" points="481.917,-146.235 492.446,-145.057 483.481,-139.412 481.917,-146.235"/>
</g>
<!-- AS1299 -->
<g id="node18" class="node"><title>AS1299</title>
<g id="a_node18"><a xlink:href="/asn/1299" xlink:title="AS1299 ~ Telia Carrier [EU]">
<ellipse fill="#ffffff" stroke="black" cx="528.116" cy="-99" rx="39.7935" ry="18"/>
<text text-anchor="middle" x="528.116" y="-95.3" font-family="Times,serif" font-size="14.00" fill="#2c94b3">AS1299</text>
</a>
</g>
</g>
<!-- AS21385&#45;&gt;AS1299 -->
<g id="edge17" class="edge"><title>AS21385&#45;&gt;AS1299</title>
<path fill="none" stroke="black" d="M447.208,-117.308C458.449,-114.733 470.861,-111.889 482.485,-109.226"/>
<polygon fill="black" stroke="black" points="483.481,-112.588 492.446,-106.943 481.917,-105.765 483.481,-112.588"/>
</g>
<!-- AS3549 -->
<g id="node19" class="node"><title>AS3549</title>
<g id="a_node19"><a xlink:href="/asn/3549" xlink:title="AS3549 ~ Level 3 Parent, LLC [US]">
<ellipse fill="#ffffff" stroke="black" cx="643.409" cy="-153" rx="39.7935" ry="18"/>
<text text-anchor="middle" x="643.409" y="-149.3" font-family="Times,serif" font-size="14.00" fill="#2c94b3">AS3549</text>
</a>
</g>
</g>
<!-- AS3356&#45;&gt;AS3549 -->
<g id="edge18" class="edge"><title>AS3356&#45;&gt;AS3549</title>
<path fill="none" stroke="black" d="M567.788,-153C575.991,-153 584.755,-153 593.287,-153"/>
<polygon fill="black" stroke="black" points="593.526,-156.5 603.526,-153 593.526,-149.5 593.526,-156.5"/>
</g>
</g>
</svg>
