<?xml version="1.0" encoding="UTF-8" standalone="no"?>
<!DOCTYPE svg PUBLIC "-//W3C//DTD SVG 1.1//EN"
 "http://www.w3.org/Graphics/SVG/1.1/DTD/svg11.dtd">
<!-- Generated by graphviz version 2.38.0 (20140413.2041)
 -->
<!-- Title: AS47576 IPv4 Upstream Graph Pages: 1 -->
<svg width="691pt" height="773pt"
 viewBox="0.00 0.00 691.06 773.00" xmlns="http://www.w3.org/2000/svg" xmlns:xlink="http://www.w3.org/1999/xlink">
<g id="graph0" class="graph" transform="scale(1 1) rotate(0) translate(4 769)">
<title>AS47576 IPv4 Upstream Graph</title>
<polygon fill="white" stroke="none" points="-4,4 -4,-769 687.055,-769 687.055,4 -4,4"/>
<!-- AS47576 -->
<g id="node1" class="node"><title>AS47576</title>
<g id="a_node1"><a xlink:href="/asn/47576" xlink:title="AS47576 ~ NETZWARE&#45;AS [AT]">
<ellipse fill="#ffffff" stroke="black" cx="44.1961" cy="-504" rx="44.393" ry="18"/>
<text text-anchor="middle" x="44.1961" y="-500.3" font-family="Times,serif" font-size="14.00" fill="#880000">AS47576</text>
</a>
</g>
</g>
<!-- AS8245 -->
<g id="node2" class="node"><title>AS8245</title>
<g id="a_node2"><a xlink:href="/asn/8245" xlink:title="AS8245 ~ Video&#45;Broadcast GmbH [AT]">
<ellipse fill="#ffffff" stroke="black" cx="164.039" cy="-504" rx="39.7935" ry="18"/>
<text text-anchor="middle" x="164.039" y="-500.3" font-family="Times,serif" font-size="14.00" fill="#2c94b3">AS8245</text>
</a>
</g>
</g>
<!-- AS47576&#45;&gt;AS8245 -->
<g id="edge1" class="edge"><title>AS47576&#45;&gt;AS8245</title>
<path fill="none" stroke="black" stroke-width="4.5" d="M88.4072,-504C96.7198,-504 105.482,-504 113.965,-504"/>
<polygon fill="black" stroke="black" stroke-width="4.5" points="114.123,-507.938 124.123,-504 114.123,-500.063 114.123,-507.938"/>
</g>
<!-- AS24953 -->
<g id="node3" class="node"><title>AS24953</title>
<g id="a_node3"><a xlink:href="/asn/24953" xlink:title="AS24953 ~ AS MACRO: AS&#45;24953 (customers) [AT]">
<ellipse fill="#ffffff" stroke="black" cx="283.881" cy="-666" rx="44.393" ry="18"/>
<text text-anchor="middle" x="283.881" y="-662.3" font-family="Times,serif" font-size="14.00" fill="#2c94b3">AS24953</text>
</a>
</g>
</g>
<!-- AS8245&#45;&gt;AS24953 -->
<g id="edge2" class="edge"><title>AS8245&#45;&gt;AS24953</title>
<path fill="none" stroke="black" stroke-width="1.5" d="M177.427,-521.031C198.149,-549.517 239.952,-606.985 264.24,-640.374"/>
<polygon fill="black" stroke="black" stroke-width="1.5" points="261.591,-642.682 270.304,-648.71 267.252,-638.564 261.591,-642.682"/>
</g>
<!-- AS6830 -->
<g id="node4" class="node"><title>AS6830</title>
<g id="a_node4"><a xlink:href="/asn/6830" xlink:title="AS6830 ~ LGI&#45;UPC [AT]">
<ellipse fill="#ffffff" stroke="black" cx="283.881" cy="-342" rx="39.7935" ry="18"/>
<text text-anchor="middle" x="283.881" y="-338.3" font-family="Times,serif" font-size="14.00" fill="#2c94b3">AS6830</text>
</a>
</g>
</g>
<!-- AS8245&#45;&gt;AS6830 -->
<g id="edge3" class="edge"><title>AS8245&#45;&gt;AS6830</title>
<path fill="none" stroke="black" stroke-width="4.5" d="M177.427,-486.969C198.149,-458.483 239.952,-401.015 264.24,-367.626"/>
<polygon fill="black" stroke="black" stroke-width="4.5" points="267.606,-369.693 270.304,-359.29 261.237,-365.061 267.606,-369.693"/>
</g>
<!-- AS21385 -->
<g id="node5" class="node"><title>AS21385</title>
<g id="a_node5"><a xlink:href="/asn/21385" xlink:title="AS21385 ~ Trusted Network GmbH [DE]">
<ellipse fill="#ffffff" stroke="black" cx="408.273" cy="-720" rx="44.393" ry="18"/>
<text text-anchor="middle" x="408.273" y="-716.3" font-family="Times,serif" font-size="14.00" fill="#2c94b3">AS21385</text>
</a>
</g>
</g>
<!-- AS24953&#45;&gt;AS21385 -->
<g id="edge4" class="edge"><title>AS24953&#45;&gt;AS21385</title>
<path fill="none" stroke="black" stroke-width="3" d="M314.509,-679.072C330.626,-686.183 350.766,-695.069 368.158,-702.742"/>
<polygon fill="black" stroke="black" stroke-width="3" points="366.932,-706.027 377.494,-706.861 369.758,-699.622 366.932,-706.027"/>
</g>
<!-- AS3257 -->
<g id="node6" class="node"><title>AS3257</title>
<g id="a_node6"><a xlink:href="/asn/3257" xlink:title="AS3257 ~ GTT [DE]">
<ellipse fill="#ffffff" stroke="black" cx="408.273" cy="-666" rx="39.7935" ry="18"/>
<text text-anchor="middle" x="408.273" y="-662.3" font-family="Times,serif" font-size="14.00" fill="#2c94b3">AS3257</text>
</a>
</g>
</g>
<!-- AS24953&#45;&gt;AS3257 -->
<g id="edge5" class="edge"><title>AS24953&#45;&gt;AS3257</title>
<path fill="none" stroke="black" d="M328.377,-666C338.066,-666 348.403,-666 358.295,-666"/>
<polygon fill="black" stroke="black" points="358.398,-669.5 368.398,-666 358.398,-662.5 358.398,-669.5"/>
</g>
<!-- AS174 -->
<g id="node10" class="node"><title>AS174</title>
<g id="a_node10"><a xlink:href="/asn/174" xlink:title="AS174 ~ Cogent Communications [US]">
<ellipse fill="#ffffff" stroke="black" cx="408.273" cy="-612" rx="35.194" ry="18"/>
<text text-anchor="middle" x="408.273" y="-608.3" font-family="Times,serif" font-size="14.00" fill="#2c94b3">AS174</text>
</a>
</g>
</g>
<!-- AS6830&#45;&gt;AS174 -->
<g id="edge9" class="edge"><title>AS6830&#45;&gt;AS174</title>
<path fill="none" stroke="black" d="M286.56,-360.129C291.391,-403.368 308.732,-514.216 364.077,-585 366.712,-588.37 369.894,-591.431 373.322,-594.179"/>
<polygon fill="black" stroke="black" points="371.432,-597.128 381.624,-600.02 375.46,-591.403 371.432,-597.128"/>
</g>
<!-- AS6461 -->
<g id="node11" class="node"><title>AS6461</title>
<g id="a_node11"><a xlink:href="/asn/6461" xlink:title="AS6461 ~ Zayo Bandwidth [US]">
<ellipse fill="#ffffff" stroke="black" cx="408.273" cy="-558" rx="39.7935" ry="18"/>
<text text-anchor="middle" x="408.273" y="-554.3" font-family="Times,serif" font-size="14.00" fill="#2c94b3">AS6461</text>
</a>
</g>
</g>
<!-- AS6830&#45;&gt;AS6461 -->
<g id="edge10" class="edge"><title>AS6830&#45;&gt;AS6461</title>
<path fill="none" stroke="black" d="M288.575,-360.075C296.715,-396.148 319.148,-478.14 364.077,-531 366.511,-533.864 369.328,-536.521 372.333,-538.961"/>
<polygon fill="black" stroke="black" points="370.432,-541.905 380.593,-544.906 374.521,-536.224 370.432,-541.905"/>
</g>
<!-- AS3320 -->
<g id="node12" class="node"><title>AS3320</title>
<g id="a_node12"><a xlink:href="/asn/3320" xlink:title="AS3320 ~ DTAG [DE]">
<ellipse fill="#ffffff" stroke="black" cx="408.273" cy="-504" rx="39.7935" ry="18"/>
<text text-anchor="middle" x="408.273" y="-500.3" font-family="Times,serif" font-size="14.00" fill="#2c94b3">AS3320</text>
</a>
</g>
</g>
<!-- AS6830&#45;&gt;AS3320 -->
<g id="edge11" class="edge"><title>AS6830&#45;&gt;AS3320</title>
<path fill="none" stroke="black" d="M292.072,-359.975C303.839,-387.682 329.413,-441.348 364.077,-477 366.697,-479.695 369.638,-482.239 372.721,-484.608"/>
<polygon fill="black" stroke="black" points="370.887,-487.597 381.089,-490.455 374.896,-481.859 370.887,-487.597"/>
</g>
<!-- AS2497 -->
<g id="node13" class="node"><title>AS2497</title>
<g id="a_node13"><a xlink:href="/asn/2497" xlink:title="AS2497 ~ Internet Initiative Japan Inc. [JP]">
<ellipse fill="#ffffff" stroke="black" cx="408.273" cy="-450" rx="39.7935" ry="18"/>
<text text-anchor="middle" x="408.273" y="-446.3" font-family="Times,serif" font-size="14.00" fill="#2c94b3">AS2497</text>
</a>
</g>
</g>
<!-- AS6830&#45;&gt;AS2497 -->
<g id="edge12" class="edge"><title>AS6830&#45;&gt;AS2497</title>
<path fill="none" stroke="black" d="M299.033,-358.663C314.135,-375.894 339.256,-403.024 364.077,-423 367.333,-425.62 370.858,-428.192 374.442,-430.646"/>
<polygon fill="black" stroke="black" points="372.53,-433.577 382.815,-436.121 376.361,-427.719 372.53,-433.577"/>
</g>
<!-- AS701 -->
<g id="node14" class="node"><title>AS701</title>
<g id="a_node14"><a xlink:href="/asn/701" xlink:title="AS701 ~ UUNET [US]">
<ellipse fill="#ffffff" stroke="black" cx="408.273" cy="-396" rx="35.194" ry="18"/>
<text text-anchor="middle" x="408.273" y="-392.3" font-family="Times,serif" font-size="14.00" fill="#2c94b3">AS701</text>
</a>
</g>
</g>
<!-- AS6830&#45;&gt;AS701 -->
<g id="edge13" class="edge"><title>AS6830&#45;&gt;AS701</title>
<path fill="none" stroke="black" d="M312.96,-354.389C330.389,-362.078 352.946,-372.031 371.63,-380.274"/>
<polygon fill="black" stroke="black" points="370.438,-383.573 381,-384.408 373.263,-377.169 370.438,-383.573"/>
</g>
<!-- AS12956 -->
<g id="node15" class="node"><title>AS12956</title>
<g id="a_node15"><a xlink:href="/asn/12956" xlink:title="AS12956 ~ TELXIUS [ES]">
<ellipse fill="#ffffff" stroke="black" cx="408.273" cy="-342" rx="44.393" ry="18"/>
<text text-anchor="middle" x="408.273" y="-338.3" font-family="Times,serif" font-size="14.00" fill="#2c94b3">AS12956</text>
</a>
</g>
</g>
<!-- AS6830&#45;&gt;AS12956 -->
<g id="edge14" class="edge"><title>AS6830&#45;&gt;AS12956</title>
<path fill="none" stroke="black" d="M323.607,-342C333.067,-342 343.359,-342 353.385,-342"/>
<polygon fill="black" stroke="black" points="353.692,-345.5 363.692,-342 353.692,-338.5 353.692,-345.5"/>
</g>
<!-- AS2914 -->
<g id="node16" class="node"><title>AS2914</title>
<g id="a_node16"><a xlink:href="/asn/2914" xlink:title="AS2914 ~ NTT America, Inc. [US]">
<ellipse fill="#ffffff" stroke="black" cx="408.273" cy="-288" rx="39.7935" ry="18"/>
<text text-anchor="middle" x="408.273" y="-284.3" font-family="Times,serif" font-size="14.00" fill="#2c94b3">AS2914</text>
</a>
</g>
</g>
<!-- AS6830&#45;&gt;AS2914 -->
<g id="edge15" class="edge"><title>AS6830&#45;&gt;AS2914</title>
<path fill="none" stroke="black" d="M312.96,-329.611C329.908,-322.134 351.706,-312.517 370.075,-304.412"/>
<polygon fill="black" stroke="black" points="371.589,-307.57 379.325,-300.331 368.763,-301.166 371.589,-307.57"/>
</g>
<!-- AS3491 -->
<g id="node17" class="node"><title>AS3491</title>
<g id="a_node17"><a xlink:href="/asn/3491" xlink:title="AS3491 ~ PCCW Global, Inc. [US]">
<ellipse fill="#ffffff" stroke="black" cx="408.273" cy="-234" rx="39.7935" ry="18"/>
<text text-anchor="middle" x="408.273" y="-230.3" font-family="Times,serif" font-size="14.00" fill="#2c94b3">AS3491</text>
</a>
</g>
</g>
<!-- AS6830&#45;&gt;AS3491 -->
<g id="edge16" class="edge"><title>AS6830&#45;&gt;AS3491</title>
<path fill="none" stroke="black" d="M299.033,-325.337C314.135,-308.106 339.256,-280.976 364.077,-261 367.333,-258.38 370.858,-255.808 374.442,-253.354"/>
<polygon fill="black" stroke="black" points="376.361,-256.281 382.815,-247.879 372.53,-250.423 376.361,-256.281"/>
</g>
<!-- AS6453 -->
<g id="node18" class="node"><title>AS6453</title>
<g id="a_node18"><a xlink:href="/asn/6453" xlink:title="AS6453 ~ TATA COMMUNICATIONS (AMERICA) INC [US]">
<ellipse fill="#ffffff" stroke="black" cx="408.273" cy="-180" rx="39.7935" ry="18"/>
<text text-anchor="middle" x="408.273" y="-176.3" font-family="Times,serif" font-size="14.00" fill="#2c94b3">AS6453</text>
</a>
</g>
</g>
<!-- AS6830&#45;&gt;AS6453 -->
<g id="edge17" class="edge"><title>AS6830&#45;&gt;AS6453</title>
<path fill="none" stroke="black" d="M292.072,-324.025C303.839,-296.318 329.413,-242.652 364.077,-207 366.697,-204.305 369.638,-201.761 372.721,-199.392"/>
<polygon fill="black" stroke="black" points="374.896,-202.141 381.089,-193.545 370.887,-196.403 374.896,-202.141"/>
</g>
<!-- AS7018 -->
<g id="node19" class="node"><title>AS7018</title>
<g id="a_node19"><a xlink:href="/asn/7018" xlink:title="AS7018 ~ AT&amp;T Services, Inc. [US]">
<ellipse fill="#ffffff" stroke="black" cx="408.273" cy="-126" rx="39.7935" ry="18"/>
<text text-anchor="middle" x="408.273" y="-122.3" font-family="Times,serif" font-size="14.00" fill="#2c94b3">AS7018</text>
</a>
</g>
</g>
<!-- AS6830&#45;&gt;AS7018 -->
<g id="edge18" class="edge"><title>AS6830&#45;&gt;AS7018</title>
<path fill="none" stroke="black" d="M288.575,-323.925C296.715,-287.852 319.148,-205.86 364.077,-153 366.511,-150.136 369.328,-147.479 372.333,-145.039"/>
<polygon fill="black" stroke="black" points="374.521,-147.776 380.593,-139.094 370.432,-142.095 374.521,-147.776"/>
</g>
<!-- AS1239 -->
<g id="node20" class="node"><title>AS1239</title>
<g id="a_node20"><a xlink:href="/asn/1239" xlink:title="AS1239 ~ Sprint [US]">
<ellipse fill="#ffffff" stroke="black" cx="408.273" cy="-72" rx="39.7935" ry="18"/>
<text text-anchor="middle" x="408.273" y="-68.3" font-family="Times,serif" font-size="14.00" fill="#2c94b3">AS1239</text>
</a>
</g>
</g>
<!-- AS6830&#45;&gt;AS1239 -->
<g id="edge19" class="edge"><title>AS6830&#45;&gt;AS1239</title>
<path fill="none" stroke="black" d="M286.56,-323.871C291.391,-280.632 308.732,-169.784 364.077,-99 366.392,-96.0391 369.129,-93.3171 372.084,-90.8364"/>
<polygon fill="black" stroke="black" points="374.278,-93.5684 380.275,-84.8347 370.14,-87.9219 374.278,-93.5684"/>
</g>
<!-- AS6762 -->
<g id="node21" class="node"><title>AS6762</title>
<g id="a_node21"><a xlink:href="/asn/6762" xlink:title="AS6762 ~ TELECOM ITALIA SPARKLE S.p.A. [IT]">
<ellipse fill="#ffffff" stroke="black" cx="408.273" cy="-18" rx="39.7935" ry="18"/>
<text text-anchor="middle" x="408.273" y="-14.3" font-family="Times,serif" font-size="14.00" fill="#2c94b3">AS6762</text>
</a>
</g>
</g>
<!-- AS6830&#45;&gt;AS6762 -->
<g id="edge20" class="edge"><title>AS6830&#45;&gt;AS6762</title>
<path fill="none" stroke="black" d="M285.233,-324.007C287.059,-274.543 298.113,-134.27 364.077,-45 366.311,-41.9771 368.994,-39.2138 371.914,-36.7071"/>
<polygon fill="black" stroke="black" points="374.109,-39.4367 380.058,-30.6694 369.94,-33.8137 374.109,-39.4367"/>
</g>
<!-- AS1299 -->
<g id="node7" class="node"><title>AS1299</title>
<g id="a_node7"><a xlink:href="/asn/1299" xlink:title="AS1299 ~ Telia Carrier [EU]">
<ellipse fill="#ffffff" stroke="black" cx="528.116" cy="-747" rx="39.7935" ry="18"/>
<text text-anchor="middle" x="528.116" y="-743.3" font-family="Times,serif" font-size="14.00" fill="#2c94b3">AS1299</text>
</a>
</g>
</g>
<!-- AS21385&#45;&gt;AS1299 -->
<g id="edge6" class="edge"><title>AS21385&#45;&gt;AS1299</title>
<path fill="none" stroke="black" d="M447.208,-728.692C458.449,-731.267 470.861,-734.111 482.485,-736.774"/>
<polygon fill="black" stroke="black" points="481.917,-740.235 492.446,-739.057 483.481,-733.412 481.917,-740.235"/>
</g>
<!-- AS3356 -->
<g id="node8" class="node"><title>AS3356</title>
<g id="a_node8"><a xlink:href="/asn/3356" xlink:title="AS3356 ~ Level 3 Parent, LLC [US]">
<ellipse fill="#ffffff" stroke="black" cx="528.116" cy="-693" rx="39.7935" ry="18"/>
<text text-anchor="middle" x="528.116" y="-689.3" font-family="Times,serif" font-size="14.00" fill="#2c94b3">AS3356</text>
</a>
</g>
</g>
<!-- AS21385&#45;&gt;AS3356 -->
<g id="edge7" class="edge"><title>AS21385&#45;&gt;AS3356</title>
<path fill="none" stroke="black" stroke-width="2" d="M447.208,-711.308C458.449,-708.733 470.861,-705.889 482.485,-703.226"/>
<polygon fill="black" stroke="black" stroke-width="2" points="483.481,-706.588 492.446,-700.943 481.917,-699.765 483.481,-706.588"/>
</g>
<!-- AS3549 -->
<g id="node9" class="node"><title>AS3549</title>
<g id="a_node9"><a xlink:href="/asn/3549" xlink:title="AS3549 ~ Level 3 Parent, LLC [US]">
<ellipse fill="#ffffff" stroke="black" cx="643.409" cy="-693" rx="39.7935" ry="18"/>
<text text-anchor="middle" x="643.409" y="-689.3" font-family="Times,serif" font-size="14.00" fill="#2c94b3">AS3549</text>
</a>
</g>
</g>
<!-- AS3356&#45;&gt;AS3549 -->
<g id="edge8" class="edge"><title>AS3356&#45;&gt;AS3549</title>
<path fill="none" stroke="black" d="M567.788,-693C575.991,-693 584.755,-693 593.287,-693"/>
<polygon fill="black" stroke="black" points="593.526,-696.5 603.526,-693 593.526,-689.5 593.526,-696.5"/>
</g>
</g>
</svg>
