<?xml version="1.0" encoding="UTF-8" standalone="no"?>
<!DOCTYPE svg PUBLIC "-//W3C//DTD SVG 1.1//EN"
 "http://www.w3.org/Graphics/SVG/1.1/DTD/svg11.dtd">
<!-- Generated by graphviz version 2.38.0 (20140413.2041)
 -->
<!-- Title: AS209553 IPv4 Upstream Graph Pages: 1 -->
<svg width="450pt" height="476pt"
 viewBox="0.00 0.00 450.07 476.00" xmlns="http://www.w3.org/2000/svg" xmlns:xlink="http://www.w3.org/1999/xlink">
<g id="graph0" class="graph" transform="scale(1 1) rotate(0) translate(4 472)">
<title>AS209553 IPv4 Upstream Graph</title>
<polygon fill="white" stroke="none" points="-4,4 -4,-472 446.07,-472 446.07,4 -4,4"/>
<!-- AS209553 -->
<g id="node1" class="node"><title>AS209553</title>
<g id="a_node1"><a xlink:href="/asn/209553" xlink:title="AS209553 ~ JAGGAER Austria GmbH [AT]">
<ellipse fill="#ffffff" stroke="black" cx="48.0957" cy="-227" rx="48.1917" ry="18"/>
<text text-anchor="middle" x="48.0957" y="-223.3" font-family="Times,serif" font-size="14.00" fill="#880000">AS209553</text>
</a>
</g>
</g>
<!-- AS1764 -->
<g id="node2" class="node"><title>AS1764</title>
<g id="a_node2"><a xlink:href="/asn/1764" xlink:title="AS1764 ~ NEXTLAYER&#45;AS [AT]">
<ellipse fill="#ffffff" stroke="black" cx="171.838" cy="-227" rx="39.7935" ry="18"/>
<text text-anchor="middle" x="171.838" y="-223.3" font-family="Times,serif" font-size="14.00" fill="#2c94b3">AS1764</text>
</a>
</g>
</g>
<!-- AS209553&#45;&gt;AS1764 -->
<g id="edge1" class="edge"><title>AS209553&#45;&gt;AS1764</title>
<path fill="none" stroke="black" stroke-width="4.5" d="M96.5131,-227C104.867,-227 113.577,-227 121.969,-227"/>
<polygon fill="black" stroke="black" stroke-width="4.5" points="122.004,-230.938 132.004,-227 122.004,-223.063 122.004,-230.938"/>
</g>
<!-- AS3356 -->
<g id="node3" class="node"><title>AS3356</title>
<g id="a_node3"><a xlink:href="/asn/3356" xlink:title="AS3356 ~ Level 3 Parent, LLC [US]">
<ellipse fill="#ffffff" stroke="black" cx="287.131" cy="-395" rx="39.7935" ry="18"/>
<text text-anchor="middle" x="287.131" y="-391.3" font-family="Times,serif" font-size="14.00" fill="#2c94b3">AS3356</text>
</a>
</g>
</g>
<!-- AS1764&#45;&gt;AS3356 -->
<g id="edge2" class="edge"><title>AS1764&#45;&gt;AS3356</title>
<path fill="none" stroke="black" stroke-width="4" d="M179.329,-244.926C190.192,-273.183 214.187,-328.791 247.484,-367 249.662,-369.499 252.102,-371.9 254.67,-374.173"/>
<polygon fill="black" stroke="black" stroke-width="4" points="252.64,-377.032 262.623,-380.58 257.031,-371.581 252.64,-377.032"/>
</g>
<!-- AS3257 -->
<g id="node4" class="node"><title>AS3257</title>
<g id="a_node4"><a xlink:href="/asn/3257" xlink:title="AS3257 ~ GTT [DE]">
<ellipse fill="#ffffff" stroke="black" cx="287.131" cy="-340" rx="39.7935" ry="18"/>
<text text-anchor="middle" x="287.131" y="-336.3" font-family="Times,serif" font-size="14.00" fill="#2c94b3">AS3257</text>
</a>
</g>
</g>
<!-- AS1764&#45;&gt;AS3257 -->
<g id="edge3" class="edge"><title>AS1764&#45;&gt;AS3257</title>
<path fill="none" stroke="black" stroke-width="4" d="M186.234,-244.001C200.515,-261.643 224.231,-289.595 247.484,-311 250.387,-313.672 253.528,-316.341 256.721,-318.918"/>
<polygon fill="black" stroke="black" stroke-width="4" points="254.615,-321.714 264.66,-325.083 258.908,-316.185 254.615,-321.714"/>
</g>
<!-- AS3320 -->
<g id="node5" class="node"><title>AS3320</title>
<g id="a_node5"><a xlink:href="/asn/3320" xlink:title="AS3320 ~ DTAG [DE]">
<ellipse fill="#ffffff" stroke="black" cx="287.131" cy="-227" rx="39.7935" ry="18"/>
<text text-anchor="middle" x="287.131" y="-223.3" font-family="Times,serif" font-size="14.00" fill="#2c94b3">AS3320</text>
</a>
</g>
</g>
<!-- AS1764&#45;&gt;AS3320 -->
<g id="edge4" class="edge"><title>AS1764&#45;&gt;AS3320</title>
<path fill="none" stroke="black" stroke-width="4" d="M211.51,-227C219.713,-227 228.477,-227 237.009,-227"/>
<polygon fill="black" stroke="black" stroke-width="4" points="237.248,-230.5 247.248,-227 237.248,-223.5 237.248,-230.5"/>
</g>
<!-- AS174 -->
<g id="node6" class="node"><title>AS174</title>
<g id="a_node6"><a xlink:href="/asn/174" xlink:title="AS174 ~ Cogent Communications [US]">
<ellipse fill="#ffffff" stroke="black" cx="287.131" cy="-173" rx="35.194" ry="18"/>
<text text-anchor="middle" x="287.131" y="-169.3" font-family="Times,serif" font-size="14.00" fill="#2c94b3">AS174</text>
</a>
</g>
</g>
<!-- AS1764&#45;&gt;AS174 -->
<g id="edge5" class="edge"><title>AS1764&#45;&gt;AS174</title>
<path fill="none" stroke="black" d="M199.974,-214.066C215.406,-206.71 234.892,-197.423 251.427,-189.541"/>
<polygon fill="black" stroke="black" points="253.247,-192.551 260.769,-185.089 250.236,-186.232 253.247,-192.551"/>
</g>
<!-- AS2914 -->
<g id="node7" class="node"><title>AS2914</title>
<g id="a_node7"><a xlink:href="/asn/2914" xlink:title="AS2914 ~ NTT America, Inc. [US]">
<ellipse fill="#ffffff" stroke="black" cx="287.131" cy="-284" rx="39.7935" ry="18"/>
<text text-anchor="middle" x="287.131" y="-280.3" font-family="Times,serif" font-size="14.00" fill="#2c94b3">AS2914</text>
</a>
</g>
</g>
<!-- AS1764&#45;&gt;AS2914 -->
<g id="edge6" class="edge"><title>AS1764&#45;&gt;AS2914</title>
<path fill="none" stroke="black" stroke-width="2" d="M199.114,-240.22C214.557,-247.99 234.276,-257.911 251.036,-266.343"/>
<polygon fill="black" stroke="black" stroke-width="2" points="249.491,-269.484 259.997,-270.851 252.637,-263.23 249.491,-269.484"/>
</g>
<!-- AS1299 -->
<g id="node8" class="node"><title>AS1299</title>
<g id="a_node8"><a xlink:href="/asn/1299" xlink:title="AS1299 ~ Telia Carrier [EU]">
<ellipse fill="#ffffff" stroke="black" cx="287.131" cy="-112" rx="39.7935" ry="18"/>
<text text-anchor="middle" x="287.131" y="-108.3" font-family="Times,serif" font-size="14.00" fill="#2c94b3">AS1299</text>
</a>
</g>
</g>
<!-- AS1764&#45;&gt;AS1299 -->
<g id="edge7" class="edge"><title>AS1764&#45;&gt;AS1299</title>
<path fill="none" stroke="black" stroke-width="2" d="M187.224,-210.393C201.913,-193.679 225.601,-167.385 247.484,-146 251.301,-142.27 255.441,-138.43 259.544,-134.735"/>
<polygon fill="black" stroke="black" stroke-width="2" points="262.128,-137.121 267.297,-127.873 257.489,-131.88 262.128,-137.121"/>
</g>
<!-- AS8218 -->
<g id="node9" class="node"><title>AS8218</title>
<g id="a_node9"><a xlink:href="/asn/8218" xlink:title="AS8218 ~ legacy Neotelecoms [FR]">
<ellipse fill="#ffffff" stroke="black" cx="287.131" cy="-45" rx="39.7935" ry="18"/>
<text text-anchor="middle" x="287.131" y="-41.3" font-family="Times,serif" font-size="14.00" fill="#2c94b3">AS8218</text>
</a>
</g>
</g>
<!-- AS1764&#45;&gt;AS8218 -->
<g id="edge8" class="edge"><title>AS1764&#45;&gt;AS8218</title>
<path fill="none" stroke="black" d="M180.3,-209.02C192.307,-181.117 217.618,-126.301 247.484,-85 251.59,-79.3222 256.473,-73.6494 261.363,-68.435"/>
<polygon fill="black" stroke="black" points="263.967,-70.7787 268.443,-61.176 258.955,-65.8913 263.967,-70.7787"/>
</g>
<!-- AS6762 -->
<g id="node10" class="node"><title>AS6762</title>
<g id="a_node10"><a xlink:href="/asn/6762" xlink:title="AS6762 ~ TELECOM ITALIA SPARKLE S.p.A. [IT]">
<ellipse fill="#ffffff" stroke="black" cx="402.424" cy="-342" rx="39.7935" ry="18"/>
<text text-anchor="middle" x="402.424" y="-338.3" font-family="Times,serif" font-size="14.00" fill="#2c94b3">AS6762</text>
</a>
</g>
</g>
<!-- AS3356&#45;&gt;AS6762 -->
<g id="edge9" class="edge"><title>AS3356&#45;&gt;AS6762</title>
<path fill="none" stroke="black" d="M315.267,-382.305C330.152,-375.342 348.808,-366.615 364.95,-359.063"/>
<polygon fill="black" stroke="black" points="366.541,-362.183 374.116,-354.775 363.575,-355.842 366.541,-362.183"/>
</g>
<!-- AS3549 -->
<g id="node11" class="node"><title>AS3549</title>
<g id="a_node11"><a xlink:href="/asn/3549" xlink:title="AS3549 ~ Level 3 Parent, LLC [US]">
<ellipse fill="#ffffff" stroke="black" cx="402.424" cy="-450" rx="39.7935" ry="18"/>
<text text-anchor="middle" x="402.424" y="-446.3" font-family="Times,serif" font-size="14.00" fill="#2c94b3">AS3549</text>
</a>
</g>
</g>
<!-- AS3356&#45;&gt;AS3549 -->
<g id="edge10" class="edge"><title>AS3356&#45;&gt;AS3549</title>
<path fill="none" stroke="black" d="M314.98,-408.034C330.077,-415.363 349.121,-424.609 365.489,-432.555"/>
<polygon fill="black" stroke="black" points="364.243,-435.841 374.768,-437.059 367.3,-429.543 364.243,-435.841"/>
</g>
<!-- AS2497 -->
<g id="node12" class="node"><title>AS2497</title>
<g id="a_node12"><a xlink:href="/asn/2497" xlink:title="AS2497 ~ Internet Initiative Japan Inc. [JP]">
<ellipse fill="#ffffff" stroke="black" cx="402.424" cy="-396" rx="39.7935" ry="18"/>
<text text-anchor="middle" x="402.424" y="-392.3" font-family="Times,serif" font-size="14.00" fill="#2c94b3">AS2497</text>
</a>
</g>
</g>
<!-- AS3356&#45;&gt;AS2497 -->
<g id="edge11" class="edge"><title>AS3356&#45;&gt;AS2497</title>
<path fill="none" stroke="black" d="M326.803,-395.341C335.006,-395.414 343.77,-395.491 352.302,-395.566"/>
<polygon fill="black" stroke="black" points="352.511,-399.068 362.541,-395.657 352.573,-392.069 352.511,-399.068"/>
</g>
<!-- AS3257&#45;&gt;AS6762 -->
<g id="edge12" class="edge"><title>AS3257&#45;&gt;AS6762</title>
<path fill="none" stroke="black" d="M326.803,-340.683C335.006,-340.828 343.77,-340.982 352.302,-341.133"/>
<polygon fill="black" stroke="black" points="352.481,-344.636 362.541,-341.314 352.605,-337.638 352.481,-344.636"/>
</g>
<!-- AS3257&#45;&gt;AS2497 -->
<g id="edge13" class="edge"><title>AS3257&#45;&gt;AS2497</title>
<path fill="none" stroke="black" d="M314.693,-353.13C329.892,-360.642 349.161,-370.167 365.675,-378.33"/>
<polygon fill="black" stroke="black" points="364.513,-381.659 375.028,-382.953 367.614,-375.384 364.513,-381.659"/>
</g>
<!-- AS3491 -->
<g id="node13" class="node"><title>AS3491</title>
<g id="a_node13"><a xlink:href="/asn/3491" xlink:title="AS3491 ~ PCCW Global, Inc. [US]">
<ellipse fill="#ffffff" stroke="black" cx="402.424" cy="-288" rx="39.7935" ry="18"/>
<text text-anchor="middle" x="402.424" y="-284.3" font-family="Times,serif" font-size="14.00" fill="#2c94b3">AS3491</text>
</a>
</g>
</g>
<!-- AS3257&#45;&gt;AS3491 -->
<g id="edge14" class="edge"><title>AS3257&#45;&gt;AS3491</title>
<path fill="none" stroke="black" d="M315.556,-327.412C330.337,-320.628 348.772,-312.166 364.768,-304.824"/>
<polygon fill="black" stroke="black" points="366.23,-308.005 373.859,-300.652 363.31,-301.643 366.23,-308.005"/>
</g>
<!-- AS6453 -->
<g id="node14" class="node"><title>AS6453</title>
<g id="a_node14"><a xlink:href="/asn/6453" xlink:title="AS6453 ~ TATA COMMUNICATIONS (AMERICA) INC [US]">
<ellipse fill="#ffffff" stroke="black" cx="402.424" cy="-234" rx="39.7935" ry="18"/>
<text text-anchor="middle" x="402.424" y="-230.3" font-family="Times,serif" font-size="14.00" fill="#2c94b3">AS6453</text>
</a>
</g>
</g>
<!-- AS3320&#45;&gt;AS6453 -->
<g id="edge15" class="edge"><title>AS3320&#45;&gt;AS6453</title>
<path fill="none" stroke="black" d="M326.487,-229.37C334.976,-229.894 344.08,-230.457 352.914,-231.003"/>
<polygon fill="black" stroke="black" points="352.911,-234.509 363.108,-231.633 353.342,-227.522 352.911,-234.509"/>
</g>
<!-- AS701 -->
<g id="node15" class="node"><title>AS701</title>
<g id="a_node15"><a xlink:href="/asn/701" xlink:title="AS701 ~ UUNET [US]">
<ellipse fill="#ffffff" stroke="black" cx="402.424" cy="-180" rx="35.194" ry="18"/>
<text text-anchor="middle" x="402.424" y="-176.3" font-family="Times,serif" font-size="14.00" fill="#2c94b3">AS701</text>
</a>
</g>
</g>
<!-- AS3320&#45;&gt;AS701 -->
<g id="edge16" class="edge"><title>AS3320&#45;&gt;AS701</title>
<path fill="none" stroke="black" d="M317.013,-215.018C331.671,-208.937 349.625,-201.489 365.2,-195.027"/>
<polygon fill="black" stroke="black" points="366.645,-198.218 374.54,-191.153 363.962,-191.752 366.645,-198.218"/>
</g>
<!-- AS1239 -->
<g id="node16" class="node"><title>AS1239</title>
<g id="a_node16"><a xlink:href="/asn/1239" xlink:title="AS1239 ~ Sprint [US]">
<ellipse fill="#ffffff" stroke="black" cx="402.424" cy="-126" rx="39.7935" ry="18"/>
<text text-anchor="middle" x="402.424" y="-122.3" font-family="Times,serif" font-size="14.00" fill="#2c94b3">AS1239</text>
</a>
</g>
</g>
<!-- AS3320&#45;&gt;AS1239 -->
<g id="edge17" class="edge"><title>AS3320&#45;&gt;AS1239</title>
<path fill="none" stroke="black" d="M311.511,-212.394C316.776,-208.645 322.165,-204.414 326.777,-200 345.786,-181.806 343.768,-171.194 362.777,-153 364.939,-150.931 367.272,-148.902 369.683,-146.944"/>
<polygon fill="black" stroke="black" points="372.189,-149.436 378.044,-140.606 367.96,-143.858 372.189,-149.436"/>
</g>
<!-- AS2914&#45;&gt;AS3491 -->
<g id="edge18" class="edge"><title>AS2914&#45;&gt;AS3491</title>
<path fill="none" stroke="black" d="M326.803,-285.365C335.006,-285.655 343.77,-285.964 352.302,-286.266"/>
<polygon fill="black" stroke="black" points="352.424,-289.772 362.541,-286.627 352.671,-282.776 352.424,-289.772"/>
</g>
<!-- AS7018 -->
<g id="node17" class="node"><title>AS7018</title>
<g id="a_node17"><a xlink:href="/asn/7018" xlink:title="AS7018 ~ ATT&#45;INTERNET4 [US]">
<ellipse fill="#ffffff" stroke="black" cx="402.424" cy="-72" rx="39.7935" ry="18"/>
<text text-anchor="middle" x="402.424" y="-68.3" font-family="Times,serif" font-size="14.00" fill="#2c94b3">AS7018</text>
</a>
</g>
</g>
<!-- AS1299&#45;&gt;AS7018 -->
<g id="edge19" class="edge"><title>AS1299&#45;&gt;AS7018</title>
<path fill="none" stroke="black" d="M319.089,-101.07C331.952,-96.5281 347.058,-91.1948 360.795,-86.3448"/>
<polygon fill="black" stroke="black" points="362.239,-89.5466 370.504,-82.917 359.909,-82.9459 362.239,-89.5466"/>
</g>
<!-- AS6461 -->
<g id="node18" class="node"><title>AS6461</title>
<g id="a_node18"><a xlink:href="/asn/6461" xlink:title="AS6461 ~ Zayo Bandwidth [US]">
<ellipse fill="#ffffff" stroke="black" cx="402.424" cy="-18" rx="39.7935" ry="18"/>
<text text-anchor="middle" x="402.424" y="-14.3" font-family="Times,serif" font-size="14.00" fill="#2c94b3">AS6461</text>
</a>
</g>
</g>
<!-- AS8218&#45;&gt;AS6461 -->
<g id="edge20" class="edge"><title>AS8218&#45;&gt;AS6461</title>
<path fill="none" stroke="black" d="M322.738,-36.7524C333.609,-34.1616 345.764,-31.2649 357.206,-28.5379"/>
<polygon fill="black" stroke="black" points="358.112,-31.9201 367.029,-26.1971 356.49,-25.1108 358.112,-31.9201"/>
</g>
</g>
</svg>
