<?xml version="1.0" encoding="UTF-8" standalone="no"?>
<!DOCTYPE svg PUBLIC "-//W3C//DTD SVG 1.1//EN"
 "http://www.w3.org/Graphics/SVG/1.1/DTD/svg11.dtd">
<!-- Generated by graphviz version 2.38.0 (20140413.2041)
 -->
<!-- Title: AS209553 Combined Upstream Graph Pages: 1 -->
<svg width="565pt" height="536pt"
 viewBox="0.00 0.00 565.36 535.85" xmlns="http://www.w3.org/2000/svg" xmlns:xlink="http://www.w3.org/1999/xlink">
<g id="graph0" class="graph" transform="scale(1 1) rotate(0) translate(4 531.854)">
<title>AS209553 Combined Upstream Graph</title>
<polygon fill="white" stroke="none" points="-4,4 -4,-531.854 561.363,-531.854 561.363,4 -4,4"/>
<!-- AS209553 -->
<g id="node1" class="node"><title>AS209553</title>
<g id="a_node1"><a xlink:href="/asn/209553" xlink:title="AS209553 ~ JAGGAER Austria GmbH [AT]">
<ellipse fill="#ffffff" stroke="black" cx="48.0957" cy="-299" rx="48.1917" ry="18"/>
<text text-anchor="middle" x="48.0957" y="-295.3" font-family="Times,serif" font-size="14.00" fill="#880000">AS209553</text>
</a>
</g>
</g>
<!-- AS1764 -->
<g id="node2" class="node"><title>AS1764</title>
<g id="a_node2"><a xlink:href="/asn/1764" xlink:title="AS1764 ~ NEXTLAYER&#45;AS [AT]">
<ellipse fill="#ffffff" stroke="black" cx="171.838" cy="-299" rx="39.7935" ry="18"/>
<text text-anchor="middle" x="171.838" y="-295.3" font-family="Times,serif" font-size="14.00" fill="#2c94b3">AS1764</text>
</a>
</g>
</g>
<!-- AS209553&#45;&gt;AS1764 -->
<g id="edge1" class="edge"><title>AS209553&#45;&gt;AS1764</title>
<path fill="none" stroke="black" stroke-width="4.5" d="M96.5131,-299C104.867,-299 113.577,-299 121.969,-299"/>
<polygon fill="black" stroke="black" stroke-width="4.5" points="122.004,-302.938 132.004,-299 122.004,-295.063 122.004,-302.938"/>
</g>
<!-- AS3356 -->
<g id="node3" class="node"><title>AS3356</title>
<g id="a_node3"><a xlink:href="/asn/3356" xlink:title="AS3356 ~ Level 3 Parent, LLC [US]">
<ellipse fill="#ffffff" stroke="black" cx="287.131" cy="-322" rx="39.7935" ry="18"/>
<text text-anchor="middle" x="287.131" y="-318.3" font-family="Times,serif" font-size="14.00" fill="#2c94b3">AS3356</text>
</a>
</g>
</g>
<!-- AS1764&#45;&gt;AS3356 -->
<g id="edge2" class="edge"><title>AS1764&#45;&gt;AS3356</title>
<path fill="none" stroke="black" stroke-width="3.21429" d="M208.374,-306.214C218.602,-308.291 229.903,-310.585 240.646,-312.766"/>
<polygon fill="black" stroke="black" stroke-width="3.21429" points="240.225,-316.252 250.721,-314.811 241.618,-309.392 240.225,-316.252"/>
</g>
<!-- AS3320 -->
<g id="node4" class="node"><title>AS3320</title>
<g id="a_node4"><a xlink:href="/asn/3320" xlink:title="AS3320 ~ DTAG [DE]">
<ellipse fill="#ffffff" stroke="black" cx="287.131" cy="-126" rx="39.7935" ry="18"/>
<text text-anchor="middle" x="287.131" y="-122.3" font-family="Times,serif" font-size="14.00" fill="#2c94b3">AS3320</text>
</a>
</g>
</g>
<!-- AS1764&#45;&gt;AS3320 -->
<g id="edge3" class="edge"><title>AS1764&#45;&gt;AS3320</title>
<path fill="none" stroke="black" stroke-width="2.57143" d="M184.115,-281.78C204.135,-251.21 245.972,-187.324 269.372,-151.591"/>
<polygon fill="black" stroke="black" stroke-width="2.57143" points="272.349,-153.434 274.899,-143.151 266.493,-149.599 272.349,-153.434"/>
</g>
<!-- AS3257 -->
<g id="node5" class="node"><title>AS3257</title>
<g id="a_node5"><a xlink:href="/asn/3257" xlink:title="AS3257 ~ GTT [DE]">
<ellipse fill="#ffffff" stroke="black" cx="287.131" cy="-226" rx="39.7935" ry="18"/>
<text text-anchor="middle" x="287.131" y="-222.3" font-family="Times,serif" font-size="14.00" fill="#2c94b3">AS3257</text>
</a>
</g>
</g>
<!-- AS1764&#45;&gt;AS3257 -->
<g id="edge4" class="edge"><title>AS1764&#45;&gt;AS3257</title>
<path fill="none" stroke="black" stroke-width="3.21429" d="M195.492,-284.403C212.55,-273.411 236.134,-258.215 254.969,-246.079"/>
<polygon fill="black" stroke="black" stroke-width="3.21429" points="257.006,-248.931 263.516,-240.572 253.214,-243.046 257.006,-248.931"/>
</g>
<!-- AS174 -->
<g id="node6" class="node"><title>AS174</title>
<g id="a_node6"><a xlink:href="/asn/174" xlink:title="AS174 ~ Cogent Communications [US]">
<ellipse fill="#ffffff" stroke="black" cx="402.424" cy="-326" rx="35.194" ry="18"/>
<text text-anchor="middle" x="402.424" y="-322.3" font-family="Times,serif" font-size="14.00" fill="#2c94b3">AS174</text>
</a>
</g>
</g>
<!-- AS1764&#45;&gt;AS174 -->
<g id="edge5" class="edge"><title>AS1764&#45;&gt;AS174</title>
<path fill="none" stroke="black" stroke-width="1.28571" d="M209.618,-293.513C241.051,-289.898 287.319,-287.132 326.777,-295 340.814,-297.799 355.516,-303.289 368.124,-308.881"/>
<polygon fill="black" stroke="black" stroke-width="1.28571" points="366.767,-312.109 377.312,-313.134 369.707,-305.757 366.767,-312.109"/>
</g>
<!-- AS1299 -->
<g id="node7" class="node"><title>AS1299</title>
<g id="a_node7"><a xlink:href="/asn/1299" xlink:title="AS1299 ~ Telia Carrier [EU]">
<ellipse fill="#ffffff" stroke="black" cx="287.131" cy="-430" rx="39.7935" ry="18"/>
<text text-anchor="middle" x="287.131" y="-426.3" font-family="Times,serif" font-size="14.00" fill="#2c94b3">AS1299</text>
</a>
</g>
</g>
<!-- AS1764&#45;&gt;AS1299 -->
<g id="edge6" class="edge"><title>AS1764&#45;&gt;AS1299</title>
<path fill="none" stroke="black" stroke-width="4.5" d="M182.888,-316.569C195.936,-338.427 220.282,-376.142 247.484,-403 249.614,-405.103 251.923,-407.155 254.318,-409.129"/>
<polygon fill="black" stroke="black" stroke-width="4.5" points="252.314,-412.554 262.65,-415.498 257.096,-406.297 252.314,-412.554"/>
</g>
<!-- AS2914 -->
<g id="node8" class="node"><title>AS2914</title>
<g id="a_node8"><a xlink:href="/asn/2914" xlink:title="AS2914 ~ NTT America, Inc. [US]">
<ellipse fill="#ffffff" stroke="black" cx="287.131" cy="-376" rx="39.7935" ry="18"/>
<text text-anchor="middle" x="287.131" y="-372.3" font-family="Times,serif" font-size="14.00" fill="#2c94b3">AS2914</text>
</a>
</g>
</g>
<!-- AS1764&#45;&gt;AS2914 -->
<g id="edge7" class="edge"><title>AS1764&#45;&gt;AS2914</title>
<path fill="none" stroke="black" stroke-width="2.57143" d="M194.682,-313.846C212.079,-325.67 236.627,-342.354 255.909,-355.46"/>
<polygon fill="black" stroke="black" stroke-width="2.57143" points="254.116,-358.473 264.354,-361.199 258.051,-352.683 254.116,-358.473"/>
</g>
<!-- AS8218 -->
<g id="node9" class="node"><title>AS8218</title>
<g id="a_node9"><a xlink:href="/asn/8218" xlink:title="AS8218 ~ legacy Neotelecoms [FR]">
<ellipse fill="#ffffff" stroke="black" cx="287.131" cy="-45" rx="39.7935" ry="18"/>
<text text-anchor="middle" x="287.131" y="-41.3" font-family="Times,serif" font-size="14.00" fill="#2c94b3">AS8218</text>
</a>
</g>
</g>
<!-- AS1764&#45;&gt;AS8218 -->
<g id="edge8" class="edge"><title>AS1764&#45;&gt;AS8218</title>
<path fill="none" stroke="black" stroke-width="1.28571" d="M177.827,-280.935C188.12,-245.021 213.61,-162.631 247.484,-99 252.821,-88.9747 259.774,-78.6684 266.308,-69.7821"/>
<polygon fill="black" stroke="black" stroke-width="1.28571" points="269.14,-71.8405 272.379,-61.7529 263.556,-67.619 269.14,-71.8405"/>
</g>
<!-- AS6939 -->
<g id="node10" class="node"><title>AS6939</title>
<g id="a_node10"><a xlink:href="/asn/6939" xlink:title="AS6939 ~ Hurricane Electric LLC [US]">
<ellipse fill="#ffffff" stroke="black" cx="287.131" cy="-486" rx="39.7935" ry="18"/>
<text text-anchor="middle" x="287.131" y="-482.3" font-family="Times,serif" font-size="14.00" fill="#2c94b3">AS6939</text>
</a>
</g>
</g>
<!-- AS1764&#45;&gt;AS6939 -->
<g id="edge9" class="edge"><title>AS1764&#45;&gt;AS6939</title>
<path fill="none" stroke="black" stroke-width="1.92857" d="M178.21,-317.166C188.076,-348.309 211.435,-412.802 247.484,-457 249.658,-459.665 252.127,-462.22 254.741,-464.633"/>
<polygon fill="black" stroke="black" stroke-width="1.92857" points="252.943,-467.691 262.865,-471.407 257.426,-462.315 252.943,-467.691"/>
</g>
<!-- AS3356&#45;&gt;AS174 -->
<g id="edge12" class="edge"><title>AS3356&#45;&gt;AS174</title>
<path fill="none" stroke="black" d="M326.803,-323.365C336.508,-323.708 346.999,-324.078 356.962,-324.43"/>
<polygon fill="black" stroke="black" points="356.981,-327.933 367.098,-324.788 357.228,-320.937 356.981,-327.933"/>
</g>
<!-- AS3549 -->
<g id="node11" class="node"><title>AS3549</title>
<g id="a_node11"><a xlink:href="/asn/3549" xlink:title="AS3549 ~ Level 3 Parent, LLC [US]">
<ellipse fill="#ffffff" stroke="black" cx="402.424" cy="-272" rx="39.7935" ry="18"/>
<text text-anchor="middle" x="402.424" y="-268.3" font-family="Times,serif" font-size="14.00" fill="#2c94b3">AS3549</text>
</a>
</g>
</g>
<!-- AS3356&#45;&gt;AS3549 -->
<g id="edge10" class="edge"><title>AS3356&#45;&gt;AS3549</title>
<path fill="none" stroke="black" d="M316.136,-309.64C330.57,-303.27 348.371,-295.414 363.97,-288.53"/>
<polygon fill="black" stroke="black" points="365.613,-291.63 373.348,-284.391 362.787,-285.226 365.613,-291.63"/>
</g>
<!-- AS6762 -->
<g id="node12" class="node"><title>AS6762</title>
<g id="a_node12"><a xlink:href="/asn/6762" xlink:title="AS6762 ~ TELECOM ITALIA SPARKLE S.p.A. [IT]">
<ellipse fill="#ffffff" stroke="black" cx="402.424" cy="-380" rx="39.7935" ry="18"/>
<text text-anchor="middle" x="402.424" y="-376.3" font-family="Times,serif" font-size="14.00" fill="#2c94b3">AS6762</text>
</a>
</g>
</g>
<!-- AS3356&#45;&gt;AS6762 -->
<g id="edge11" class="edge"><title>AS3356&#45;&gt;AS6762</title>
<path fill="none" stroke="black" d="M314.123,-335.306C329.667,-343.264 349.617,-353.478 366.522,-362.132"/>
<polygon fill="black" stroke="black" points="365.057,-365.314 375.553,-366.756 368.247,-359.083 365.057,-365.314"/>
</g>
<!-- AS1239 -->
<g id="node17" class="node"><title>AS1239</title>
<g id="a_node17"><a xlink:href="/asn/1239" xlink:title="AS1239 ~ Sprint [US]">
<ellipse fill="#ffffff" stroke="black" cx="402.424" cy="-72" rx="39.7935" ry="18"/>
<text text-anchor="middle" x="402.424" y="-68.3" font-family="Times,serif" font-size="14.00" fill="#2c94b3">AS1239</text>
</a>
</g>
</g>
<!-- AS3320&#45;&gt;AS1239 -->
<g id="edge20" class="edge"><title>AS3320&#45;&gt;AS1239</title>
<path fill="none" stroke="black" d="M315.267,-113.066C330.261,-105.919 349.082,-96.9481 365.306,-89.2154"/>
<polygon fill="black" stroke="black" points="366.988,-92.291 374.509,-84.8288 363.976,-85.972 366.988,-92.291"/>
</g>
<!-- AS701 -->
<g id="node18" class="node"><title>AS701</title>
<g id="a_node18"><a xlink:href="/asn/701" xlink:title="AS701 ~ UUNET [US]">
<ellipse fill="#ffffff" stroke="black" cx="402.424" cy="-126" rx="35.194" ry="18"/>
<text text-anchor="middle" x="402.424" y="-122.3" font-family="Times,serif" font-size="14.00" fill="#2c94b3">AS701</text>
</a>
</g>
</g>
<!-- AS3320&#45;&gt;AS701 -->
<g id="edge21" class="edge"><title>AS3320&#45;&gt;AS701</title>
<path fill="none" stroke="black" stroke-width="2" d="M326.803,-126C336.508,-126 346.999,-126 356.962,-126"/>
<polygon fill="black" stroke="black" stroke-width="2" points="357.098,-129.5 367.098,-126 357.098,-122.5 357.098,-129.5"/>
</g>
<!-- AS3491 -->
<g id="node13" class="node"><title>AS3491</title>
<g id="a_node13"><a xlink:href="/asn/3491" xlink:title="AS3491 ~ PCCW Global, Inc. [US]">
<ellipse fill="#ffffff" stroke="black" cx="517.717" cy="-326" rx="39.7935" ry="18"/>
<text text-anchor="middle" x="517.717" y="-322.3" font-family="Times,serif" font-size="14.00" fill="#2c94b3">AS3491</text>
</a>
</g>
</g>
<!-- AS3257&#45;&gt;AS3491 -->
<g id="edge13" class="edge"><title>AS3257&#45;&gt;AS3491</title>
<path fill="none" stroke="black" d="M326.647,-223.587C359.154,-223.172 406.021,-226.483 442.07,-245 466.594,-257.596 487.17,-281.694 500.467,-300.344"/>
<polygon fill="black" stroke="black" points="497.678,-302.465 506.224,-308.728 503.449,-298.503 497.678,-302.465"/>
</g>
<!-- AS2497 -->
<g id="node14" class="node"><title>AS2497</title>
<g id="a_node14"><a xlink:href="/asn/2497" xlink:title="AS2497 ~ Internet Initiative Japan Inc. [JP]">
<ellipse fill="#ffffff" stroke="black" cx="402.424" cy="-180" rx="39.7935" ry="18"/>
<text text-anchor="middle" x="402.424" y="-176.3" font-family="Times,serif" font-size="14.00" fill="#2c94b3">AS2497</text>
</a>
</g>
</g>
<!-- AS3257&#45;&gt;AS2497 -->
<g id="edge14" class="edge"><title>AS3257&#45;&gt;AS2497</title>
<path fill="none" stroke="black" stroke-width="2" d="M317.307,-214.154C331.182,-208.52 347.96,-201.708 362.869,-195.654"/>
<polygon fill="black" stroke="black" stroke-width="2" points="364.398,-198.811 372.347,-191.806 361.765,-192.325 364.398,-198.811"/>
</g>
<!-- AS174&#45;&gt;AS3491 -->
<g id="edge15" class="edge"><title>AS174&#45;&gt;AS3491</title>
<path fill="none" stroke="black" d="M437.723,-326C447.1,-326 457.451,-326 467.485,-326"/>
<polygon fill="black" stroke="black" points="467.774,-329.5 477.774,-326 467.774,-322.5 467.774,-329.5"/>
</g>
<!-- AS1299&#45;&gt;AS174 -->
<g id="edge18" class="edge"><title>AS1299&#45;&gt;AS174</title>
<path fill="none" stroke="black" d="M311.607,-415.493C316.868,-411.739 322.231,-407.482 326.777,-403 346.277,-383.775 343.278,-372.225 362.777,-353 365.302,-350.511 368.078,-348.092 370.949,-345.789"/>
<polygon fill="black" stroke="black" points="373.247,-348.441 379.16,-339.65 369.055,-342.835 373.247,-348.441"/>
</g>
<!-- AS1299&#45;&gt;AS6762 -->
<g id="edge17" class="edge"><title>AS1299&#45;&gt;AS6762</title>
<path fill="none" stroke="black" d="M316.136,-417.64C330.57,-411.27 348.371,-403.414 363.97,-396.53"/>
<polygon fill="black" stroke="black" points="365.613,-399.63 373.348,-392.391 362.787,-393.226 365.613,-399.63"/>
</g>
<!-- AS7018 -->
<g id="node15" class="node"><title>AS7018</title>
<g id="a_node15"><a xlink:href="/asn/7018" xlink:title="AS7018 ~ AT&amp;T Services, Inc. [US]">
<ellipse fill="#ffffff" stroke="black" cx="402.424" cy="-434" rx="39.7935" ry="18"/>
<text text-anchor="middle" x="402.424" y="-430.3" font-family="Times,serif" font-size="14.00" fill="#2c94b3">AS7018</text>
</a>
</g>
</g>
<!-- AS1299&#45;&gt;AS7018 -->
<g id="edge16" class="edge"><title>AS1299&#45;&gt;AS7018</title>
<path fill="none" stroke="black" stroke-width="2" d="M326.803,-431.365C335.006,-431.655 343.77,-431.964 352.302,-432.266"/>
<polygon fill="black" stroke="black" stroke-width="2" points="352.424,-435.772 362.541,-432.627 352.671,-428.776 352.424,-435.772"/>
</g>
<!-- AS209 -->
<g id="node16" class="node"><title>AS209</title>
<g id="a_node16"><a xlink:href="/asn/209" xlink:title="AS209 ~ CenturyLink Communications, LLC [US]">
<ellipse fill="#ffffff" stroke="black" cx="402.424" cy="-488" rx="35.194" ry="18"/>
<text text-anchor="middle" x="402.424" y="-484.3" font-family="Times,serif" font-size="14.00" fill="#2c94b3">AS209</text>
</a>
</g>
</g>
<!-- AS1299&#45;&gt;AS209 -->
<g id="edge19" class="edge"><title>AS1299&#45;&gt;AS209</title>
<path fill="none" stroke="black" d="M314.123,-443.306C329.997,-451.433 350.468,-461.914 367.597,-470.682"/>
<polygon fill="black" stroke="black" points="366.222,-473.911 376.719,-475.352 369.412,-467.68 366.222,-473.911"/>
</g>
<!-- AS2914&#45;&gt;AS174 -->
<g id="edge23" class="edge"><title>AS2914&#45;&gt;AS174</title>
<path fill="none" stroke="black" d="M316.136,-363.64C331.113,-357.031 349.714,-348.821 365.72,-341.757"/>
<polygon fill="black" stroke="black" points="367.559,-344.772 375.294,-337.532 364.733,-338.367 367.559,-344.772"/>
</g>
<!-- AS2914&#45;&gt;AS6762 -->
<g id="edge22" class="edge"><title>AS2914&#45;&gt;AS6762</title>
<path fill="none" stroke="black" d="M326.803,-377.365C335.006,-377.655 343.77,-377.964 352.302,-378.266"/>
<polygon fill="black" stroke="black" points="352.424,-381.772 362.541,-378.627 352.671,-374.776 352.424,-381.772"/>
</g>
<!-- AS6461 -->
<g id="node19" class="node"><title>AS6461</title>
<g id="a_node19"><a xlink:href="/asn/6461" xlink:title="AS6461 ~ Zayo Bandwidth [US]">
<ellipse fill="#ffffff" stroke="black" cx="402.424" cy="-18" rx="39.7935" ry="18"/>
<text text-anchor="middle" x="402.424" y="-14.3" font-family="Times,serif" font-size="14.00" fill="#2c94b3">AS6461</text>
</a>
</g>
</g>
<!-- AS8218&#45;&gt;AS6461 -->
<g id="edge24" class="edge"><title>AS8218&#45;&gt;AS6461</title>
<path fill="none" stroke="black" stroke-width="2" d="M322.738,-36.7524C333.609,-34.1616 345.764,-31.2649 357.206,-28.5379"/>
<polygon fill="black" stroke="black" stroke-width="2" points="358.112,-31.9201 367.029,-26.1971 356.49,-25.1108 358.112,-31.9201"/>
</g>
<!-- AS6939&#45;&gt;AS6762 -->
<g id="edge26" class="edge"><title>AS6939&#45;&gt;AS6762</title>
<path fill="none" stroke="black" d="M310.345,-471.132C315.988,-466.883 321.844,-462.031 326.777,-457 345.948,-437.447 343.278,-426.225 362.777,-407 364.908,-404.899 367.219,-402.847 369.615,-400.874"/>
<polygon fill="black" stroke="black" points="372.127,-403.359 377.948,-394.507 367.877,-397.797 372.127,-403.359"/>
</g>
<!-- AS6939&#45;&gt;AS3491 -->
<g id="edge25" class="edge"><title>AS6939&#45;&gt;AS3491</title>
<path fill="none" stroke="black" d="M311.691,-500.315C343.916,-517.846 402.269,-542.073 442.07,-515 495.584,-478.599 510.734,-397.311 515.023,-354.162"/>
<polygon fill="black" stroke="black" points="518.522,-354.329 515.896,-344.064 511.548,-353.726 518.522,-354.329"/>
</g>
<!-- AS6939&#45;&gt;AS209 -->
<g id="edge27" class="edge"><title>AS6939&#45;&gt;AS209</title>
<path fill="none" stroke="black" d="M326.803,-486.683C336.508,-486.854 346.999,-487.039 356.962,-487.215"/>
<polygon fill="black" stroke="black" points="357.038,-490.717 367.098,-487.394 357.162,-483.718 357.038,-490.717"/>
</g>
</g>
</svg>
