<?xml version="1.0" encoding="UTF-8" standalone="no"?>
<!DOCTYPE svg PUBLIC "-//W3C//DTD SVG 1.1//EN"
 "http://www.w3.org/Graphics/SVG/1.1/DTD/svg11.dtd">
<!-- Generated by graphviz version 2.38.0 (20140413.2041)
 -->
<!-- Title: AS209553 Combined Upstream Graph Pages: 1 -->
<svg width="450pt" height="584pt"
 viewBox="0.00 0.00 450.07 584.00" xmlns="http://www.w3.org/2000/svg" xmlns:xlink="http://www.w3.org/1999/xlink">
<g id="graph0" class="graph" transform="scale(1 1) rotate(0) translate(4 580)">
<title>AS209553 Combined Upstream Graph</title>
<polygon fill="white" stroke="none" points="-4,4 -4,-580 446.07,-580 446.07,4 -4,4"/>
<!-- AS209553 -->
<g id="node1" class="node"><title>AS209553</title>
<g id="a_node1"><a xlink:href="/asn/209553" xlink:title="AS209553 ~ JAGGAER Austria GmbH [AT]">
<ellipse fill="#ffffff" stroke="black" cx="48.0957" cy="-254" rx="48.1917" ry="18"/>
<text text-anchor="middle" x="48.0957" y="-250.3" font-family="Times,serif" font-size="14.00" fill="#880000">AS209553</text>
</a>
</g>
</g>
<!-- AS1764 -->
<g id="node2" class="node"><title>AS1764</title>
<g id="a_node2"><a xlink:href="/asn/1764" xlink:title="AS1764 ~ NEXTLAYER&#45;AS [AT]">
<ellipse fill="#ffffff" stroke="black" cx="171.838" cy="-254" rx="39.7935" ry="18"/>
<text text-anchor="middle" x="171.838" y="-250.3" font-family="Times,serif" font-size="14.00" fill="#2c94b3">AS1764</text>
</a>
</g>
</g>
<!-- AS209553&#45;&gt;AS1764 -->
<g id="edge1" class="edge"><title>AS209553&#45;&gt;AS1764</title>
<path fill="none" stroke="black" stroke-width="4.5" d="M96.5131,-254C104.867,-254 113.577,-254 121.969,-254"/>
<polygon fill="black" stroke="black" stroke-width="4.5" points="122.004,-257.938 132.004,-254 122.004,-250.063 122.004,-257.938"/>
</g>
<!-- AS1299 -->
<g id="node3" class="node"><title>AS1299</title>
<g id="a_node3"><a xlink:href="/asn/1299" xlink:title="AS1299 ~ Telia Carrier [EU]">
<ellipse fill="#ffffff" stroke="black" cx="287.131" cy="-510" rx="39.7935" ry="18"/>
<text text-anchor="middle" x="287.131" y="-506.3" font-family="Times,serif" font-size="14.00" fill="#2c94b3">AS1299</text>
</a>
</g>
</g>
<!-- AS1764&#45;&gt;AS1299 -->
<g id="edge2" class="edge"><title>AS1764&#45;&gt;AS1299</title>
<path fill="none" stroke="black" stroke-width="2.25" d="M180.117,-271.743C193.198,-303.472 221.723,-371.954 247.484,-429 255.716,-447.227 265.409,-467.54 273.028,-483.264"/>
<polygon fill="black" stroke="black" stroke-width="2.25" points="269.951,-484.941 277.473,-492.402 276.246,-481.879 269.951,-484.941"/>
</g>
<!-- AS3320 -->
<g id="node4" class="node"><title>AS3320</title>
<g id="a_node4"><a xlink:href="/asn/3320" xlink:title="AS3320 ~ DTAG [DE]">
<ellipse fill="#ffffff" stroke="black" cx="287.131" cy="-402" rx="39.7935" ry="18"/>
<text text-anchor="middle" x="287.131" y="-398.3" font-family="Times,serif" font-size="14.00" fill="#2c94b3">AS3320</text>
</a>
</g>
</g>
<!-- AS1764&#45;&gt;AS3320 -->
<g id="edge3" class="edge"><title>AS1764&#45;&gt;AS3320</title>
<path fill="none" stroke="black" stroke-width="2.8125" d="M183.649,-271.459C197.481,-293.347 222.636,-331.677 247.484,-362 252.008,-367.52 257.14,-373.187 262.153,-378.455"/>
<polygon fill="black" stroke="black" stroke-width="2.8125" points="259.845,-381.101 269.328,-385.826 264.861,-376.219 259.845,-381.101"/>
</g>
<!-- AS3356 -->
<g id="node5" class="node"><title>AS3356</title>
<g id="a_node5"><a xlink:href="/asn/3356" xlink:title="AS3356 ~ Level 3 Parent, LLC [US]">
<ellipse fill="#ffffff" stroke="black" cx="287.131" cy="-335" rx="39.7935" ry="18"/>
<text text-anchor="middle" x="287.131" y="-331.3" font-family="Times,serif" font-size="14.00" fill="#2c94b3">AS3356</text>
</a>
</g>
</g>
<!-- AS1764&#45;&gt;AS3356 -->
<g id="edge4" class="edge"><title>AS1764&#45;&gt;AS3356</title>
<path fill="none" stroke="black" stroke-width="4.5" d="M193.686,-269.222C208.62,-280.091 229.234,-295.025 247.484,-308 250.305,-310.005 253.248,-312.085 256.196,-314.159"/>
<polygon fill="black" stroke="black" stroke-width="4.5" points="253.972,-317.409 264.421,-319.926 258.493,-310.961 253.972,-317.409"/>
</g>
<!-- AS174 -->
<g id="node6" class="node"><title>AS174</title>
<g id="a_node6"><a xlink:href="/asn/174" xlink:title="AS174 ~ Cogent Communications [US]">
<ellipse fill="#ffffff" stroke="black" cx="287.131" cy="-281" rx="35.194" ry="18"/>
<text text-anchor="middle" x="287.131" y="-277.3" font-family="Times,serif" font-size="14.00" fill="#2c94b3">AS174</text>
</a>
</g>
</g>
<!-- AS1764&#45;&gt;AS174 -->
<g id="edge5" class="edge"><title>AS1764&#45;&gt;AS174</title>
<path fill="none" stroke="black" stroke-width="2.8125" d="M207.445,-262.248C219.24,-265.058 232.544,-268.229 244.812,-271.153"/>
<polygon fill="black" stroke="black" stroke-width="2.8125" points="244.278,-274.624 254.817,-273.537 245.901,-267.814 244.278,-274.624"/>
</g>
<!-- AS3257 -->
<g id="node7" class="node"><title>AS3257</title>
<g id="a_node7"><a xlink:href="/asn/3257" xlink:title="AS3257 ~ GTT [DE]">
<ellipse fill="#ffffff" stroke="black" cx="287.131" cy="-119" rx="39.7935" ry="18"/>
<text text-anchor="middle" x="287.131" y="-115.3" font-family="Times,serif" font-size="14.00" fill="#2c94b3">AS3257</text>
</a>
</g>
</g>
<!-- AS1764&#45;&gt;AS3257 -->
<g id="edge6" class="edge"><title>AS1764&#45;&gt;AS3257</title>
<path fill="none" stroke="black" stroke-width="2.25" d="M182.298,-236.51C195.08,-213.904 219.512,-174.114 247.484,-146 249.595,-143.879 251.891,-141.812 254.277,-139.829"/>
<polygon fill="black" stroke="black" stroke-width="2.25" points="256.792,-142.31 262.592,-133.444 252.529,-136.758 256.792,-142.31"/>
</g>
<!-- AS8218 -->
<g id="node8" class="node"><title>AS8218</title>
<g id="a_node8"><a xlink:href="/asn/8218" xlink:title="AS8218 ~ legacy Neotelecoms [FR]">
<ellipse fill="#ffffff" stroke="black" cx="287.131" cy="-38" rx="39.7935" ry="18"/>
<text text-anchor="middle" x="287.131" y="-34.3" font-family="Times,serif" font-size="14.00" fill="#2c94b3">AS8218</text>
</a>
</g>
</g>
<!-- AS1764&#45;&gt;AS8218 -->
<g id="edge7" class="edge"><title>AS1764&#45;&gt;AS8218</title>
<path fill="none" stroke="black" stroke-width="1.125" d="M179.841,-235.949C191.968,-205.43 218.386,-142.067 247.484,-92 253.191,-82.1806 260.229,-71.9217 266.728,-63.0159"/>
<polygon fill="black" stroke="black" stroke-width="1.125" points="269.569,-65.0615 272.734,-54.9504 263.954,-60.8811 269.569,-65.0615"/>
</g>
<!-- AS2914 -->
<g id="node9" class="node"><title>AS2914</title>
<g id="a_node9"><a xlink:href="/asn/2914" xlink:title="AS2914 ~ NTT America, Inc. [US]">
<ellipse fill="#ffffff" stroke="black" cx="287.131" cy="-227" rx="39.7935" ry="18"/>
<text text-anchor="middle" x="287.131" y="-223.3" font-family="Times,serif" font-size="14.00" fill="#2c94b3">AS2914</text>
</a>
</g>
</g>
<!-- AS1764&#45;&gt;AS2914 -->
<g id="edge8" class="edge"><title>AS1764&#45;&gt;AS2914</title>
<path fill="none" stroke="black" stroke-width="3.375" d="M207.445,-245.752C218.316,-243.162 230.471,-240.265 241.913,-237.538"/>
<polygon fill="black" stroke="black" stroke-width="3.375" points="242.819,-240.92 251.736,-235.197 241.197,-234.111 242.819,-240.92"/>
</g>
<!-- AS6939 -->
<g id="node10" class="node"><title>AS6939</title>
<g id="a_node10"><a xlink:href="/asn/6939" xlink:title="AS6939 ~ Hurricane Electric LLC [US]">
<ellipse fill="#ffffff" stroke="black" cx="287.131" cy="-173" rx="39.7935" ry="18"/>
<text text-anchor="middle" x="287.131" y="-169.3" font-family="Times,serif" font-size="14.00" fill="#2c94b3">AS6939</text>
</a>
</g>
</g>
<!-- AS1764&#45;&gt;AS6939 -->
<g id="edge9" class="edge"><title>AS1764&#45;&gt;AS6939</title>
<path fill="none" stroke="black" stroke-width="2.25" d="M193.686,-238.778C208.62,-227.909 229.234,-212.975 247.484,-200 250.305,-197.995 253.248,-195.915 256.196,-193.841"/>
<polygon fill="black" stroke="black" stroke-width="2.25" points="258.242,-196.681 264.421,-188.074 254.223,-190.95 258.242,-196.681"/>
</g>
<!-- AS7018 -->
<g id="node20" class="node"><title>AS7018</title>
<g id="a_node20"><a xlink:href="/asn/7018" xlink:title="AS7018 ~ AT&amp;T Services, Inc. [US]">
<ellipse fill="#ffffff" stroke="black" cx="402.424" cy="-558" rx="39.7935" ry="18"/>
<text text-anchor="middle" x="402.424" y="-554.3" font-family="Times,serif" font-size="14.00" fill="#2c94b3">AS7018</text>
</a>
</g>
</g>
<!-- AS1299&#45;&gt;AS7018 -->
<g id="edge25" class="edge"><title>AS1299&#45;&gt;AS7018</title>
<path fill="none" stroke="black" stroke-width="2" d="M316.72,-522.112C330.942,-528.138 348.322,-535.502 363.628,-541.987"/>
<polygon fill="black" stroke="black" stroke-width="2" points="362.271,-545.213 372.844,-545.891 365.002,-538.768 362.271,-545.213"/>
</g>
<!-- AS701 -->
<g id="node11" class="node"><title>AS701</title>
<g id="a_node11"><a xlink:href="/asn/701" xlink:title="AS701 ~ UUNET [US]">
<ellipse fill="#ffffff" stroke="black" cx="402.424" cy="-450" rx="35.194" ry="18"/>
<text text-anchor="middle" x="402.424" y="-446.3" font-family="Times,serif" font-size="14.00" fill="#2c94b3">AS701</text>
</a>
</g>
</g>
<!-- AS3320&#45;&gt;AS701 -->
<g id="edge10" class="edge"><title>AS3320&#45;&gt;AS701</title>
<path fill="none" stroke="black" stroke-width="2" d="M316.72,-414.112C331.485,-420.368 349.653,-428.066 365.372,-434.725"/>
<polygon fill="black" stroke="black" stroke-width="2" points="364.217,-438.037 374.79,-438.716 366.948,-431.592 364.217,-438.037"/>
</g>
<!-- AS1239 -->
<g id="node12" class="node"><title>AS1239</title>
<g id="a_node12"><a xlink:href="/asn/1239" xlink:title="AS1239 ~ Sprint [US]">
<ellipse fill="#ffffff" stroke="black" cx="402.424" cy="-504" rx="39.7935" ry="18"/>
<text text-anchor="middle" x="402.424" y="-500.3" font-family="Times,serif" font-size="14.00" fill="#2c94b3">AS1239</text>
</a>
</g>
</g>
<!-- AS3320&#45;&gt;AS1239 -->
<g id="edge11" class="edge"><title>AS3320&#45;&gt;AS1239</title>
<path fill="none" stroke="black" d="M303.08,-418.65C317.623,-434.441 340.695,-458.446 362.777,-477 365.284,-479.106 367.951,-481.213 370.666,-483.27"/>
<polygon fill="black" stroke="black" points="368.707,-486.172 378.849,-489.235 372.83,-480.516 368.707,-486.172"/>
</g>
<!-- AS6453 -->
<g id="node13" class="node"><title>AS6453</title>
<g id="a_node13"><a xlink:href="/asn/6453" xlink:title="AS6453 ~ TATA COMMUNICATIONS (AMERICA) INC [US]">
<ellipse fill="#ffffff" stroke="black" cx="402.424" cy="-396" rx="39.7935" ry="18"/>
<text text-anchor="middle" x="402.424" y="-392.3" font-family="Times,serif" font-size="14.00" fill="#2c94b3">AS6453</text>
</a>
</g>
</g>
<!-- AS3320&#45;&gt;AS6453 -->
<g id="edge12" class="edge"><title>AS3320&#45;&gt;AS6453</title>
<path fill="none" stroke="black" d="M326.803,-399.952C335.188,-399.508 344.16,-399.033 352.871,-398.571"/>
<polygon fill="black" stroke="black" points="353.125,-402.063 362.926,-398.039 352.755,-395.073 353.125,-402.063"/>
</g>
<!-- AS3356&#45;&gt;AS6453 -->
<g id="edge16" class="edge"><title>AS3356&#45;&gt;AS6453</title>
<path fill="none" stroke="black" d="M313.274,-348.538C329.005,-357.008 349.489,-368.037 366.751,-377.331"/>
<polygon fill="black" stroke="black" points="365.495,-380.63 375.959,-382.289 368.813,-374.467 365.495,-380.63"/>
</g>
<!-- AS6762 -->
<g id="node14" class="node"><title>AS6762</title>
<g id="a_node14"><a xlink:href="/asn/6762" xlink:title="AS6762 ~ TELECOM ITALIA SPARKLE S.p.A. [IT]">
<ellipse fill="#ffffff" stroke="black" cx="402.424" cy="-234" rx="39.7935" ry="18"/>
<text text-anchor="middle" x="402.424" y="-230.3" font-family="Times,serif" font-size="14.00" fill="#2c94b3">AS6762</text>
</a>
</g>
</g>
<!-- AS3356&#45;&gt;AS6762 -->
<g id="edge13" class="edge"><title>AS3356&#45;&gt;AS6762</title>
<path fill="none" stroke="black" d="M311.511,-320.394C316.776,-316.645 322.165,-312.414 326.777,-308 345.786,-289.806 343.768,-279.194 362.777,-261 364.939,-258.931 367.272,-256.902 369.683,-254.944"/>
<polygon fill="black" stroke="black" points="372.189,-257.436 378.044,-248.606 367.96,-251.858 372.189,-257.436"/>
</g>
<!-- AS3549 -->
<g id="node15" class="node"><title>AS3549</title>
<g id="a_node15"><a xlink:href="/asn/3549" xlink:title="AS3549 ~ Level 3 Parent, LLC [US]">
<ellipse fill="#ffffff" stroke="black" cx="402.424" cy="-342" rx="39.7935" ry="18"/>
<text text-anchor="middle" x="402.424" y="-338.3" font-family="Times,serif" font-size="14.00" fill="#2c94b3">AS3549</text>
</a>
</g>
</g>
<!-- AS3356&#45;&gt;AS3549 -->
<g id="edge14" class="edge"><title>AS3356&#45;&gt;AS3549</title>
<path fill="none" stroke="black" d="M326.487,-337.37C334.976,-337.894 344.08,-338.457 352.914,-339.003"/>
<polygon fill="black" stroke="black" points="352.911,-342.509 363.108,-339.633 353.342,-335.522 352.911,-342.509"/>
</g>
<!-- AS2497 -->
<g id="node16" class="node"><title>AS2497</title>
<g id="a_node16"><a xlink:href="/asn/2497" xlink:title="AS2497 ~ Internet Initiative Japan Inc. [JP]">
<ellipse fill="#ffffff" stroke="black" cx="402.424" cy="-126" rx="39.7935" ry="18"/>
<text text-anchor="middle" x="402.424" y="-122.3" font-family="Times,serif" font-size="14.00" fill="#2c94b3">AS2497</text>
</a>
</g>
</g>
<!-- AS3356&#45;&gt;AS2497 -->
<g id="edge15" class="edge"><title>AS3356&#45;&gt;AS2497</title>
<path fill="none" stroke="black" stroke-width="2" d="M313.413,-321.368C318.471,-317.626 323.293,-313.153 326.777,-308 366.394,-249.415 323.16,-211.585 362.777,-153 364.411,-150.585 366.338,-148.319 368.446,-146.207"/>
<polygon fill="black" stroke="black" stroke-width="2" points="370.812,-148.789 376.141,-139.632 366.265,-143.467 370.812,-148.789"/>
</g>
<!-- AS209 -->
<g id="node17" class="node"><title>AS209</title>
<g id="a_node17"><a xlink:href="/asn/209" xlink:title="AS209 ~ CenturyLink Communications, LLC [US]">
<ellipse fill="#ffffff" stroke="black" cx="402.424" cy="-288" rx="35.194" ry="18"/>
<text text-anchor="middle" x="402.424" y="-284.3" font-family="Times,serif" font-size="14.00" fill="#2c94b3">AS209</text>
</a>
</g>
</g>
<!-- AS3356&#45;&gt;AS209 -->
<g id="edge17" class="edge"><title>AS3356&#45;&gt;AS209</title>
<path fill="none" stroke="black" d="M317.013,-323.018C331.671,-316.937 349.625,-309.489 365.2,-303.027"/>
<polygon fill="black" stroke="black" points="366.645,-306.218 374.54,-299.153 363.962,-299.752 366.645,-306.218"/>
</g>
<!-- AS174&#45;&gt;AS6762 -->
<g id="edge18" class="edge"><title>AS174&#45;&gt;AS6762</title>
<path fill="none" stroke="black" d="M314.98,-269.862C329.285,-263.927 347.135,-256.522 362.894,-249.984"/>
<polygon fill="black" stroke="black" points="364.491,-253.111 372.386,-246.046 361.808,-246.646 364.491,-253.111"/>
</g>
<!-- AS174&#45;&gt;AS209 -->
<g id="edge20" class="edge"><title>AS174&#45;&gt;AS209</title>
<path fill="none" stroke="black" d="M322.123,-283.1C333.213,-283.785 345.691,-284.556 357.408,-285.28"/>
<polygon fill="black" stroke="black" points="357.259,-288.778 367.456,-285.901 357.691,-281.791 357.259,-288.778"/>
</g>
<!-- AS3491 -->
<g id="node18" class="node"><title>AS3491</title>
<g id="a_node18"><a xlink:href="/asn/3491" xlink:title="AS3491 ~ PCCW Global, Inc. [US]">
<ellipse fill="#ffffff" stroke="black" cx="402.424" cy="-180" rx="39.7935" ry="18"/>
<text text-anchor="middle" x="402.424" y="-176.3" font-family="Times,serif" font-size="14.00" fill="#2c94b3">AS3491</text>
</a>
</g>
</g>
<!-- AS174&#45;&gt;AS3491 -->
<g id="edge19" class="edge"><title>AS174&#45;&gt;AS3491</title>
<path fill="none" stroke="black" d="M310.299,-267.251C315.942,-263.295 321.811,-258.754 326.777,-254 345.786,-235.806 343.768,-225.194 362.777,-207 364.939,-204.931 367.272,-202.902 369.683,-200.944"/>
<polygon fill="black" stroke="black" points="372.189,-203.436 378.044,-194.606 367.96,-197.858 372.189,-203.436"/>
</g>
<!-- AS3257&#45;&gt;AS2497 -->
<g id="edge21" class="edge"><title>AS3257&#45;&gt;AS2497</title>
<path fill="none" stroke="black" stroke-width="2" d="M326.487,-121.37C334.976,-121.894 344.08,-122.457 352.914,-123.003"/>
<polygon fill="black" stroke="black" stroke-width="2" points="352.911,-126.509 363.108,-123.633 353.342,-119.522 352.911,-126.509"/>
</g>
<!-- AS6461 -->
<g id="node19" class="node"><title>AS6461</title>
<g id="a_node19"><a xlink:href="/asn/6461" xlink:title="AS6461 ~ Zayo Bandwidth [US]">
<ellipse fill="#ffffff" stroke="black" cx="402.424" cy="-18" rx="39.7935" ry="18"/>
<text text-anchor="middle" x="402.424" y="-14.3" font-family="Times,serif" font-size="14.00" fill="#2c94b3">AS6461</text>
</a>
</g>
</g>
<!-- AS8218&#45;&gt;AS6461 -->
<g id="edge22" class="edge"><title>AS8218&#45;&gt;AS6461</title>
<path fill="none" stroke="black" stroke-width="2" d="M324.289,-31.6169C334.1,-29.885 344.858,-27.9857 355.144,-26.1699"/>
<polygon fill="black" stroke="black" stroke-width="2" points="355.981,-29.5763 365.221,-24.3911 354.764,-22.6829 355.981,-29.5763"/>
</g>
<!-- AS2914&#45;&gt;AS6762 -->
<g id="edge23" class="edge"><title>AS2914&#45;&gt;AS6762</title>
<path fill="none" stroke="black" stroke-width="2" d="M326.487,-229.37C334.976,-229.894 344.08,-230.457 352.914,-231.003"/>
<polygon fill="black" stroke="black" stroke-width="2" points="352.911,-234.509 363.108,-231.633 353.342,-227.522 352.911,-234.509"/>
</g>
<!-- AS2914&#45;&gt;AS2497 -->
<g id="edge24" class="edge"><title>AS2914&#45;&gt;AS2497</title>
<path fill="none" stroke="black" stroke-width="2" d="M311.511,-212.394C316.776,-208.645 322.165,-204.414 326.777,-200 345.786,-181.806 343.768,-171.194 362.777,-153 364.939,-150.931 367.272,-148.902 369.683,-146.944"/>
<polygon fill="black" stroke="black" stroke-width="2" points="372.189,-149.436 378.044,-140.606 367.96,-143.858 372.189,-149.436"/>
</g>
<!-- AS6939&#45;&gt;AS6762 -->
<g id="edge28" class="edge"><title>AS6939&#45;&gt;AS6762</title>
<path fill="none" stroke="black" d="M313.274,-186.538C329.005,-195.008 349.489,-206.037 366.751,-215.331"/>
<polygon fill="black" stroke="black" points="365.495,-218.63 375.959,-220.289 368.813,-212.467 365.495,-218.63"/>
</g>
<!-- AS6939&#45;&gt;AS2497 -->
<g id="edge27" class="edge"><title>AS6939&#45;&gt;AS2497</title>
<path fill="none" stroke="black" d="M317.013,-161.018C330.995,-155.218 347.976,-148.173 363.031,-141.928"/>
<polygon fill="black" stroke="black" points="364.699,-145.025 372.595,-137.96 362.017,-138.559 364.699,-145.025"/>
</g>
<!-- AS6939&#45;&gt;AS3491 -->
<g id="edge26" class="edge"><title>AS6939&#45;&gt;AS3491</title>
<path fill="none" stroke="black" d="M326.487,-175.37C334.976,-175.894 344.08,-176.457 352.914,-177.003"/>
<polygon fill="black" stroke="black" points="352.911,-180.509 363.108,-177.633 353.342,-173.522 352.911,-180.509"/>
</g>
<!-- AS1273 -->
<g id="node21" class="node"><title>AS1273</title>
<g id="a_node21"><a xlink:href="/asn/1273" xlink:title="AS1273 ~ Vodafone Group PLC [EU]">
<ellipse fill="#ffffff" stroke="black" cx="402.424" cy="-72" rx="39.7935" ry="18"/>
<text text-anchor="middle" x="402.424" y="-68.3" font-family="Times,serif" font-size="14.00" fill="#2c94b3">AS1273</text>
</a>
</g>
</g>
<!-- AS6939&#45;&gt;AS1273 -->
<g id="edge29" class="edge"><title>AS6939&#45;&gt;AS1273</title>
<path fill="none" stroke="black" d="M311.511,-158.394C316.776,-154.645 322.165,-150.414 326.777,-146 345.786,-127.806 343.768,-117.194 362.777,-99 364.939,-96.9308 367.272,-94.902 369.683,-92.9441"/>
<polygon fill="black" stroke="black" points="372.189,-95.436 378.044,-86.6055 367.96,-89.8577 372.189,-95.436"/>
</g>
</g>
</svg>
