<?xml version="1.0" encoding="UTF-8" standalone="no"?>
<!DOCTYPE svg PUBLIC "-//W3C//DTD SVG 1.1//EN"
 "http://www.w3.org/Graphics/SVG/1.1/DTD/svg11.dtd">
<!-- Generated by graphviz version 2.38.0 (20140413.2041)
 -->
<!-- Title: AS39878 Combined Upstream Graph Pages: 1 -->
<svg width="460pt" height="811pt"
 viewBox="0.00 0.00 460.47 811.00" xmlns="http://www.w3.org/2000/svg" xmlns:xlink="http://www.w3.org/1999/xlink">
<g id="graph0" class="graph" transform="scale(1 1) rotate(0) translate(4 807)">
<title>AS39878 Combined Upstream Graph</title>
<polygon fill="white" stroke="none" points="-4,4 -4,-807 456.469,-807 456.469,4 -4,4"/>
<!-- AS39878 -->
<g id="node1" class="node"><title>AS39878</title>
<g id="a_node1"><a xlink:href="/asn/39878" xlink:title="AS39878 ~ Peter Rauter GmbH [AT]">
<ellipse fill="#ffffff" stroke="black" cx="44.1961" cy="-330" rx="44.393" ry="18"/>
<text text-anchor="middle" x="44.1961" y="-326.3" font-family="Times,serif" font-size="14.00" fill="#880000">AS39878</text>
</a>
</g>
</g>
<!-- AS174 -->
<g id="node2" class="node"><title>AS174</title>
<g id="a_node2"><a xlink:href="/asn/174" xlink:title="AS174 ~ Cogent Communications [US]">
<ellipse fill="#ffffff" stroke="black" cx="168.588" cy="-623" rx="35.194" ry="18"/>
<text text-anchor="middle" x="168.588" y="-619.3" font-family="Times,serif" font-size="14.00" fill="#2c94b3">AS174</text>
</a>
</g>
</g>
<!-- AS39878&#45;&gt;AS174 -->
<g id="edge1" class="edge"><title>AS39878&#45;&gt;AS174</title>
<path fill="none" stroke="black" stroke-width="3.6" d="M52.668,-347.887C73.3723,-397.452 131.577,-536.792 156.277,-595.923"/>
<polygon fill="black" stroke="black" stroke-width="3.6" points="153.13,-597.468 160.214,-605.347 159.589,-594.77 153.13,-597.468"/>
</g>
<!-- AS1299 -->
<g id="node3" class="node"><title>AS1299</title>
<g id="a_node3"><a xlink:href="/asn/1299" xlink:title="AS1299 ~ Telia Carrier [EU]">
<ellipse fill="#ffffff" stroke="black" cx="168.588" cy="-407" rx="39.7935" ry="18"/>
<text text-anchor="middle" x="168.588" y="-403.3" font-family="Times,serif" font-size="14.00" fill="#2c94b3">AS1299</text>
</a>
</g>
</g>
<!-- AS39878&#45;&gt;AS1299 -->
<g id="edge2" class="edge"><title>AS39878&#45;&gt;AS1299</title>
<path fill="none" stroke="black" stroke-width="4.5" d="M69.0851,-345.029C88.1986,-357.054 115.164,-374.019 136.05,-387.159"/>
<polygon fill="black" stroke="black" stroke-width="4.5" points="134.028,-390.538 144.589,-392.53 138.221,-383.872 134.028,-390.538"/>
</g>
<!-- AS8245 -->
<g id="node4" class="node"><title>AS8245</title>
<g id="a_node4"><a xlink:href="/asn/8245" xlink:title="AS8245 ~ Video&#45;Broadcast GmbH [AT]">
<ellipse fill="#ffffff" stroke="black" cx="168.588" cy="-253" rx="39.7935" ry="18"/>
<text text-anchor="middle" x="168.588" y="-249.3" font-family="Times,serif" font-size="14.00" fill="#2c94b3">AS8245</text>
</a>
</g>
</g>
<!-- AS39878&#45;&gt;AS8245 -->
<g id="edge3" class="edge"><title>AS39878&#45;&gt;AS8245</title>
<path fill="none" stroke="black" stroke-width="0.3" d="M69.0851,-314.971C88.1986,-302.946 115.164,-285.981 136.05,-272.841"/>
<polygon fill="black" stroke="black" stroke-width="0.3" points="137.988,-275.757 144.589,-267.47 134.26,-269.832 137.988,-275.757"/>
</g>
<!-- AS33891 -->
<g id="node5" class="node"><title>AS33891</title>
<g id="a_node5"><a xlink:href="/asn/33891" xlink:title="AS33891 ~ CORE&#45;BACKBONE GMBH GLOBAL NETWORK [DE]">
<ellipse fill="#ffffff" stroke="black" cx="168.588" cy="-99" rx="44.393" ry="18"/>
<text text-anchor="middle" x="168.588" y="-95.3" font-family="Times,serif" font-size="14.00" fill="#2c94b3">AS33891</text>
</a>
</g>
</g>
<!-- AS39878&#45;&gt;AS33891 -->
<g id="edge4" class="edge"><title>AS39878&#45;&gt;AS33891</title>
<path fill="none" stroke="black" stroke-width="1.8" d="M54.5968,-312.257C75.9106,-272.03 128.015,-173.69 153.325,-125.92"/>
<polygon fill="black" stroke="black" stroke-width="1.8" points="156.566,-127.278 158.156,-116.803 150.381,-124.001 156.566,-127.278"/>
</g>
<!-- AS6453 -->
<g id="node6" class="node"><title>AS6453</title>
<g id="a_node6"><a xlink:href="/asn/6453" xlink:title="AS6453 ~ TATA COMMUNICATIONS (AMERICA) INC [US]">
<ellipse fill="#ffffff" stroke="black" cx="292.98" cy="-515" rx="39.7935" ry="18"/>
<text text-anchor="middle" x="292.98" y="-511.3" font-family="Times,serif" font-size="14.00" fill="#2c94b3">AS6453</text>
</a>
</g>
</g>
<!-- AS174&#45;&gt;AS6453 -->
<g id="edge5" class="edge"><title>AS174&#45;&gt;AS6453</title>
<path fill="none" stroke="black" d="M183.462,-606.655C198.532,-589.441 223.81,-562.099 248.784,-542 252.04,-539.38 255.565,-536.808 259.149,-534.354"/>
<polygon fill="black" stroke="black" points="261.068,-537.281 267.522,-528.879 257.237,-531.423 261.068,-537.281"/>
</g>
<!-- AS6762 -->
<g id="node7" class="node"><title>AS6762</title>
<g id="a_node7"><a xlink:href="/asn/6762" xlink:title="AS6762 ~ TELECOM ITALIA SPARKLE S.p.A. [IT]">
<ellipse fill="#ffffff" stroke="black" cx="292.98" cy="-677" rx="39.7935" ry="18"/>
<text text-anchor="middle" x="292.98" y="-673.3" font-family="Times,serif" font-size="14.00" fill="#2c94b3">AS6762</text>
</a>
</g>
</g>
<!-- AS174&#45;&gt;AS6762 -->
<g id="edge6" class="edge"><title>AS174&#45;&gt;AS6762</title>
<path fill="none" stroke="black" stroke-width="2" d="M195.844,-634.584C213.03,-642.167 235.743,-652.188 254.777,-660.586"/>
<polygon fill="black" stroke="black" stroke-width="2" points="253.503,-663.849 264.065,-664.684 256.329,-657.445 253.503,-663.849"/>
</g>
<!-- AS701 -->
<g id="node8" class="node"><title>AS701</title>
<g id="a_node8"><a xlink:href="/asn/701" xlink:title="AS701 ~ UUNET [US]">
<ellipse fill="#ffffff" stroke="black" cx="292.98" cy="-731" rx="35.194" ry="18"/>
<text text-anchor="middle" x="292.98" y="-727.3" font-family="Times,serif" font-size="14.00" fill="#2c94b3">AS701</text>
</a>
</g>
</g>
<!-- AS174&#45;&gt;AS701 -->
<g id="edge7" class="edge"><title>AS174&#45;&gt;AS701</title>
<path fill="none" stroke="black" stroke-width="2" d="M183.462,-639.345C198.532,-656.559 223.81,-683.901 248.784,-704 252.289,-706.821 256.107,-709.587 259.975,-712.208"/>
<polygon fill="black" stroke="black" stroke-width="2" points="258.126,-715.18 268.421,-717.682 261.933,-709.306 258.126,-715.18"/>
</g>
<!-- AS3491 -->
<g id="node9" class="node"><title>AS3491</title>
<g id="a_node9"><a xlink:href="/asn/3491" xlink:title="AS3491 ~ PCCW Global, Inc. [US]">
<ellipse fill="#ffffff" stroke="black" cx="292.98" cy="-623" rx="39.7935" ry="18"/>
<text text-anchor="middle" x="292.98" y="-619.3" font-family="Times,serif" font-size="14.00" fill="#2c94b3">AS3491</text>
</a>
</g>
</g>
<!-- AS174&#45;&gt;AS3491 -->
<g id="edge8" class="edge"><title>AS174&#45;&gt;AS3491</title>
<path fill="none" stroke="black" stroke-width="2" d="M204.007,-623C216.058,-623 229.834,-623 242.852,-623"/>
<polygon fill="black" stroke="black" stroke-width="2" points="243.081,-626.5 253.081,-623 243.081,-619.5 243.081,-626.5"/>
</g>
<!-- AS2914 -->
<g id="node10" class="node"><title>AS2914</title>
<g id="a_node10"><a xlink:href="/asn/2914" xlink:title="AS2914 ~ NTT America, Inc. [US]">
<ellipse fill="#ffffff" stroke="black" cx="292.98" cy="-569" rx="39.7935" ry="18"/>
<text text-anchor="middle" x="292.98" y="-565.3" font-family="Times,serif" font-size="14.00" fill="#2c94b3">AS2914</text>
</a>
</g>
</g>
<!-- AS174&#45;&gt;AS2914 -->
<g id="edge9" class="edge"><title>AS174&#45;&gt;AS2914</title>
<path fill="none" stroke="black" stroke-width="2" d="M195.844,-611.416C213.03,-603.833 235.743,-593.812 254.777,-585.414"/>
<polygon fill="black" stroke="black" stroke-width="2" points="256.329,-588.555 264.065,-581.316 253.503,-582.151 256.329,-588.555"/>
</g>
<!-- AS12956 -->
<g id="node11" class="node"><title>AS12956</title>
<g id="a_node11"><a xlink:href="/asn/12956" xlink:title="AS12956 ~ TELXIUS [ES]">
<ellipse fill="#ffffff" stroke="black" cx="292.98" cy="-785" rx="44.393" ry="18"/>
<text text-anchor="middle" x="292.98" y="-781.3" font-family="Times,serif" font-size="14.00" fill="#2c94b3">AS12956</text>
</a>
</g>
</g>
<!-- AS174&#45;&gt;AS12956 -->
<g id="edge10" class="edge"><title>AS174&#45;&gt;AS12956</title>
<path fill="none" stroke="black" d="M176.779,-640.975C188.546,-668.682 214.12,-722.348 248.784,-758 251.2,-760.485 253.889,-762.842 256.71,-765.051"/>
<polygon fill="black" stroke="black" points="254.717,-767.929 264.894,-770.873 258.774,-762.225 254.717,-767.929"/>
</g>
<!-- AS1299&#45;&gt;AS6453 -->
<g id="edge20" class="edge"><title>AS1299&#45;&gt;AS6453</title>
<path fill="none" stroke="black" d="M183.74,-423.663C198.842,-440.894 223.963,-468.024 248.784,-488 252.04,-490.62 255.565,-493.192 259.149,-495.646"/>
<polygon fill="black" stroke="black" points="257.237,-498.577 267.522,-501.121 261.068,-492.719 257.237,-498.577"/>
</g>
<!-- AS1299&#45;&gt;AS6762 -->
<g id="edge15" class="edge"><title>AS1299&#45;&gt;AS6762</title>
<path fill="none" stroke="black" d="M171.268,-425.129C176.098,-468.368 193.439,-579.216 248.784,-650 251.099,-652.961 253.836,-655.683 256.791,-658.164"/>
<polygon fill="black" stroke="black" points="254.847,-661.078 264.982,-664.165 258.985,-655.432 254.847,-661.078"/>
</g>
<!-- AS1299&#45;&gt;AS3491 -->
<g id="edge17" class="edge"><title>AS1299&#45;&gt;AS3491</title>
<path fill="none" stroke="black" d="M173.282,-425.075C181.422,-461.148 203.855,-543.14 248.784,-596 251.219,-598.864 254.035,-601.521 257.04,-603.961"/>
<polygon fill="black" stroke="black" points="255.139,-606.905 265.3,-609.906 259.228,-601.224 255.139,-606.905"/>
</g>
<!-- AS1299&#45;&gt;AS2914 -->
<g id="edge11" class="edge"><title>AS1299&#45;&gt;AS2914</title>
<path fill="none" stroke="black" stroke-width="2" d="M176.779,-424.975C188.546,-452.682 214.12,-506.348 248.784,-542 251.404,-544.695 254.345,-547.239 257.428,-549.608"/>
<polygon fill="black" stroke="black" stroke-width="2" points="255.594,-552.597 265.796,-555.455 259.603,-546.859 255.594,-552.597"/>
</g>
<!-- AS7018 -->
<g id="node12" class="node"><title>AS7018</title>
<g id="a_node12"><a xlink:href="/asn/7018" xlink:title="AS7018 ~ AT&amp;T Services, Inc. [US]">
<ellipse fill="#ffffff" stroke="black" cx="292.98" cy="-407" rx="39.7935" ry="18"/>
<text text-anchor="middle" x="292.98" y="-403.3" font-family="Times,serif" font-size="14.00" fill="#2c94b3">AS7018</text>
</a>
</g>
</g>
<!-- AS1299&#45;&gt;AS7018 -->
<g id="edge12" class="edge"><title>AS1299&#45;&gt;AS7018</title>
<path fill="none" stroke="black" stroke-width="2" d="M208.314,-407C219.252,-407 231.303,-407 242.769,-407"/>
<polygon fill="black" stroke="black" stroke-width="2" points="243.087,-410.5 253.087,-407 243.087,-403.5 243.087,-410.5"/>
</g>
<!-- AS1239 -->
<g id="node13" class="node"><title>AS1239</title>
<g id="a_node13"><a xlink:href="/asn/1239" xlink:title="AS1239 ~ Sprint [US]">
<ellipse fill="#ffffff" stroke="black" cx="292.98" cy="-353" rx="39.7935" ry="18"/>
<text text-anchor="middle" x="292.98" y="-349.3" font-family="Times,serif" font-size="14.00" fill="#2c94b3">AS1239</text>
</a>
</g>
</g>
<!-- AS1299&#45;&gt;AS1239 -->
<g id="edge13" class="edge"><title>AS1299&#45;&gt;AS1239</title>
<path fill="none" stroke="black" d="M197.667,-394.611C214.615,-387.134 236.413,-377.517 254.782,-369.412"/>
<polygon fill="black" stroke="black" points="256.296,-372.57 264.032,-365.331 253.47,-366.166 256.296,-372.57"/>
</g>
<!-- AS2497 -->
<g id="node14" class="node"><title>AS2497</title>
<g id="a_node14"><a xlink:href="/asn/2497" xlink:title="AS2497 ~ Internet Initiative Japan Inc. [JP]">
<ellipse fill="#ffffff" stroke="black" cx="292.98" cy="-299" rx="39.7935" ry="18"/>
<text text-anchor="middle" x="292.98" y="-295.3" font-family="Times,serif" font-size="14.00" fill="#2c94b3">AS2497</text>
</a>
</g>
</g>
<!-- AS1299&#45;&gt;AS2497 -->
<g id="edge14" class="edge"><title>AS1299&#45;&gt;AS2497</title>
<path fill="none" stroke="black" stroke-width="2" d="M183.74,-390.337C198.842,-373.106 223.963,-345.976 248.784,-326 252.04,-323.38 255.565,-320.808 259.149,-318.354"/>
<polygon fill="black" stroke="black" stroke-width="2" points="261.068,-321.281 267.522,-312.879 257.237,-315.423 261.068,-321.281"/>
</g>
<!-- AS3320 -->
<g id="node15" class="node"><title>AS3320</title>
<g id="a_node15"><a xlink:href="/asn/3320" xlink:title="AS3320 ~ DTAG [DE]">
<ellipse fill="#ffffff" stroke="black" cx="292.98" cy="-245" rx="39.7935" ry="18"/>
<text text-anchor="middle" x="292.98" y="-241.3" font-family="Times,serif" font-size="14.00" fill="#2c94b3">AS3320</text>
</a>
</g>
</g>
<!-- AS1299&#45;&gt;AS3320 -->
<g id="edge16" class="edge"><title>AS1299&#45;&gt;AS3320</title>
<path fill="none" stroke="black" d="M176.779,-389.025C188.546,-361.318 214.12,-307.652 248.784,-272 251.404,-269.305 254.345,-266.761 257.428,-264.392"/>
<polygon fill="black" stroke="black" points="259.603,-267.141 265.796,-258.545 255.594,-261.403 259.603,-267.141"/>
</g>
<!-- AS6461 -->
<g id="node16" class="node"><title>AS6461</title>
<g id="a_node16"><a xlink:href="/asn/6461" xlink:title="AS6461 ~ Zayo Bandwidth [US]">
<ellipse fill="#ffffff" stroke="black" cx="412.823" cy="-153" rx="39.7935" ry="18"/>
<text text-anchor="middle" x="412.823" y="-149.3" font-family="Times,serif" font-size="14.00" fill="#2c94b3">AS6461</text>
</a>
</g>
</g>
<!-- AS1299&#45;&gt;AS6461 -->
<g id="edge18" class="edge"><title>AS1299&#45;&gt;AS6461</title>
<path fill="none" stroke="black" d="M175.153,-388.995C188.492,-346.811 223.092,-243.248 248.784,-218 253.451,-213.414 325.266,-185.715 372.012,-167.987"/>
<polygon fill="black" stroke="black" points="373.461,-171.181 381.574,-164.367 370.982,-164.634 373.461,-171.181"/>
</g>
<!-- AS1273 -->
<g id="node17" class="node"><title>AS1273</title>
<g id="a_node17"><a xlink:href="/asn/1273" xlink:title="AS1273 ~ Vodafone Group PLC [EU]">
<ellipse fill="#ffffff" stroke="black" cx="292.98" cy="-461" rx="39.7935" ry="18"/>
<text text-anchor="middle" x="292.98" y="-457.3" font-family="Times,serif" font-size="14.00" fill="#2c94b3">AS1273</text>
</a>
</g>
</g>
<!-- AS1299&#45;&gt;AS1273 -->
<g id="edge19" class="edge"><title>AS1299&#45;&gt;AS1273</title>
<path fill="none" stroke="black" d="M197.667,-419.389C214.615,-426.866 236.413,-436.483 254.782,-444.588"/>
<polygon fill="black" stroke="black" points="253.47,-447.834 264.032,-448.669 256.296,-441.43 253.47,-447.834"/>
</g>
<!-- AS8218 -->
<g id="node18" class="node"><title>AS8218</title>
<g id="a_node18"><a xlink:href="/asn/8218" xlink:title="AS8218 ~ legacy Neotelecoms [FR]">
<ellipse fill="#ffffff" stroke="black" cx="292.98" cy="-153" rx="39.7935" ry="18"/>
<text text-anchor="middle" x="292.98" y="-149.3" font-family="Times,serif" font-size="14.00" fill="#2c94b3">AS8218</text>
</a>
</g>
</g>
<!-- AS8245&#45;&gt;AS8218 -->
<g id="edge21" class="edge"><title>AS8245&#45;&gt;AS8218</title>
<path fill="none" stroke="black" d="M187.52,-236.957C203.371,-222.933 227.254,-202.182 248.784,-185 253.161,-181.507 257.859,-177.894 262.488,-174.408"/>
<polygon fill="black" stroke="black" points="264.727,-177.105 270.659,-168.326 260.547,-171.489 264.727,-177.105"/>
</g>
<!-- AS3356 -->
<g id="node19" class="node"><title>AS3356</title>
<g id="a_node19"><a xlink:href="/asn/3356" xlink:title="AS3356 ~ Level 3 Parent, LLC [US]">
<ellipse fill="#ffffff" stroke="black" cx="292.98" cy="-45" rx="39.7935" ry="18"/>
<text text-anchor="middle" x="292.98" y="-41.3" font-family="Times,serif" font-size="14.00" fill="#2c94b3">AS3356</text>
</a>
</g>
</g>
<!-- AS33891&#45;&gt;AS3356 -->
<g id="edge23" class="edge"><title>AS33891&#45;&gt;AS3356</title>
<path fill="none" stroke="black" stroke-width="4.5" d="M199.216,-85.9281C215.81,-78.6065 236.67,-69.4033 254.403,-61.5792"/>
<polygon fill="black" stroke="black" stroke-width="4.5" points="256.327,-65.0342 263.887,-57.395 253.148,-57.8293 256.327,-65.0342"/>
</g>
<!-- AS3257 -->
<g id="node20" class="node"><title>AS3257</title>
<g id="a_node20"><a xlink:href="/asn/3257" xlink:title="AS3257 ~ GTT [DE]">
<ellipse fill="#ffffff" stroke="black" cx="292.98" cy="-99" rx="39.7935" ry="18"/>
<text text-anchor="middle" x="292.98" y="-95.3" font-family="Times,serif" font-size="14.00" fill="#2c94b3">AS3257</text>
</a>
</g>
</g>
<!-- AS33891&#45;&gt;AS3257 -->
<g id="edge24" class="edge"><title>AS33891&#45;&gt;AS3257</title>
<path fill="none" stroke="black" stroke-width="0.9" d="M213.084,-99C222.773,-99 233.11,-99 243.002,-99"/>
<polygon fill="black" stroke="black" stroke-width="0.9" points="243.105,-102.5 253.105,-99 243.105,-95.5001 243.105,-102.5"/>
</g>
<!-- AS8218&#45;&gt;AS6461 -->
<g id="edge22" class="edge"><title>AS8218&#45;&gt;AS6461</title>
<path fill="none" stroke="black" d="M332.893,-153C342.446,-153 352.796,-153 362.759,-153"/>
<polygon fill="black" stroke="black" points="362.951,-156.5 372.951,-153 362.951,-149.5 362.951,-156.5"/>
</g>
<!-- AS3549 -->
<g id="node21" class="node"><title>AS3549</title>
<g id="a_node21"><a xlink:href="/asn/3549" xlink:title="AS3549 ~ Level 3 Parent, LLC [US]">
<ellipse fill="#ffffff" stroke="black" cx="412.823" cy="-18" rx="39.7935" ry="18"/>
<text text-anchor="middle" x="412.823" y="-14.3" font-family="Times,serif" font-size="14.00" fill="#2c94b3">AS3549</text>
</a>
</g>
</g>
<!-- AS3356&#45;&gt;AS3549 -->
<g id="edge25" class="edge"><title>AS3356&#45;&gt;AS3549</title>
<path fill="none" stroke="black" d="M328.7,-37.0451C340.7,-34.2957 354.32,-31.1749 367.013,-28.2668"/>
<polygon fill="black" stroke="black" points="367.979,-31.6363 376.945,-25.9913 366.415,-24.8131 367.979,-31.6363"/>
</g>
<!-- AS209 -->
<g id="node22" class="node"><title>AS209</title>
<g id="a_node22"><a xlink:href="/asn/209" xlink:title="AS209 ~ CenturyLink Communications, LLC [US]">
<ellipse fill="#ffffff" stroke="black" cx="412.823" cy="-72" rx="35.194" ry="18"/>
<text text-anchor="middle" x="412.823" y="-68.3" font-family="Times,serif" font-size="14.00" fill="#2c94b3">AS209</text>
</a>
</g>
</g>
<!-- AS3356&#45;&gt;AS209 -->
<g id="edge26" class="edge"><title>AS3356&#45;&gt;AS209</title>
<path fill="none" stroke="black" stroke-width="2" d="M328.7,-52.9549C341.792,-55.9546 356.814,-59.3965 370.455,-62.5219"/>
<polygon fill="black" stroke="black" stroke-width="2" points="370.033,-66.0158 380.562,-64.8376 371.597,-59.1926 370.033,-66.0158"/>
</g>
</g>
</svg>
