<?xml version="1.0" encoding="UTF-8" standalone="no"?>
<!DOCTYPE svg PUBLIC "-//W3C//DTD SVG 1.1//EN"
 "http://www.w3.org/Graphics/SVG/1.1/DTD/svg11.dtd">
<!-- Generated by graphviz version 2.38.0 (20140413.2041)
 -->
<!-- Title: AS62363 Combined Upstream Graph Pages: 1 -->
<svg width="576pt" height="584pt"
 viewBox="0.00 0.00 575.76 584.00" xmlns="http://www.w3.org/2000/svg" xmlns:xlink="http://www.w3.org/1999/xlink">
<g id="graph0" class="graph" transform="scale(1 1) rotate(0) translate(4 580)">
<title>AS62363 Combined Upstream Graph</title>
<polygon fill="white" stroke="none" points="-4,4 -4,-580 571.762,-580 571.762,4 -4,4"/>
<!-- AS62363 -->
<g id="node1" class="node"><title>AS62363</title>
<g id="a_node1"><a xlink:href="/asn/62363" xlink:title="AS62363 ~ Ertl &amp; Gross OG [AT]">
<ellipse fill="#ffffff" stroke="black" cx="44.1961" cy="-325" rx="44.393" ry="18"/>
<text text-anchor="middle" x="44.1961" y="-321.3" font-family="Times,serif" font-size="14.00" fill="#880000">AS62363</text>
</a>
</g>
</g>
<!-- AS8220 -->
<g id="node2" class="node"><title>AS8220</title>
<g id="a_node2"><a xlink:href="/asn/8220" xlink:title="AS8220 ~ COLT [GB]">
<ellipse fill="#ffffff" stroke="black" cx="292.98" cy="-437" rx="39.7935" ry="18"/>
<text text-anchor="middle" x="292.98" y="-433.3" font-family="Times,serif" font-size="14.00" fill="#2c94b3">AS8220</text>
</a>
</g>
</g>
<!-- AS62363&#45;&gt;AS8220 -->
<g id="edge1" class="edge"><title>AS62363&#45;&gt;AS8220</title>
<path fill="none" stroke="black" stroke-width="1.125" d="M74.4746,-338.288C119.481,-358.713 205.613,-397.803 254.91,-420.176"/>
<polygon fill="black" stroke="black" stroke-width="1.125" points="253.703,-423.472 264.255,-424.417 256.596,-417.097 253.703,-423.472"/>
</g>
<!-- AS33891 -->
<g id="node3" class="node"><title>AS33891</title>
<g id="a_node3"><a xlink:href="/asn/33891" xlink:title="AS33891 ~ CORE&#45;BACKBONE GMBH GLOBAL NETWORK [DE]">
<ellipse fill="#ffffff" stroke="black" cx="292.98" cy="-300" rx="44.393" ry="18"/>
<text text-anchor="middle" x="292.98" y="-296.3" font-family="Times,serif" font-size="14.00" fill="#2c94b3">AS33891</text>
</a>
</g>
</g>
<!-- AS62363&#45;&gt;AS33891 -->
<g id="edge2" class="edge"><title>AS62363&#45;&gt;AS33891</title>
<path fill="none" stroke="black" stroke-width="3.375" d="M87.3394,-320.731C129.486,-316.461 194.398,-309.885 239.781,-305.288"/>
<polygon fill="black" stroke="black" stroke-width="3.375" points="240.415,-308.742 250.011,-304.252 239.709,-301.777 240.415,-308.742"/>
</g>
<!-- AS60587 -->
<g id="node4" class="node"><title>AS60587</title>
<g id="a_node4"><a xlink:href="/asn/60587" xlink:title="AS60587 ~ XINON GmbH [AT]">
<ellipse fill="#ffffff" stroke="black" cx="168.588" cy="-279" rx="44.393" ry="18"/>
<text text-anchor="middle" x="168.588" y="-275.3" font-family="Times,serif" font-size="14.00" fill="#2c94b3">AS60587</text>
</a>
</g>
</g>
<!-- AS62363&#45;&gt;AS60587 -->
<g id="edge3" class="edge"><title>AS62363&#45;&gt;AS60587</title>
<path fill="none" stroke="black" stroke-width="4.5" d="M77.3532,-312.914C92.2509,-307.315 110.138,-300.592 126.043,-294.614"/>
<polygon fill="black" stroke="black" stroke-width="4.5" points="127.67,-298.209 135.646,-291.005 124.9,-290.838 127.67,-298.209"/>
</g>
<!-- AS6453 -->
<g id="node5" class="node"><title>AS6453</title>
<g id="a_node5"><a xlink:href="/asn/6453" xlink:title="AS6453 ~ TATA COMMUNICATIONS (AMERICA) INC [US]">
<ellipse fill="#ffffff" stroke="black" cx="528.116" cy="-558" rx="39.7935" ry="18"/>
<text text-anchor="middle" x="528.116" y="-554.3" font-family="Times,serif" font-size="14.00" fill="#2c94b3">AS6453</text>
</a>
</g>
</g>
<!-- AS8220&#45;&gt;AS6453 -->
<g id="edge4" class="edge"><title>AS8220&#45;&gt;AS6453</title>
<path fill="none" stroke="black" d="M308.107,-453.788C322.806,-470.267 347.264,-495.044 373.176,-510 406.869,-529.447 449.342,-541.925 481.135,-549.269"/>
<polygon fill="black" stroke="black" points="480.537,-552.722 491.058,-551.476 482.056,-545.889 480.537,-552.722"/>
</g>
<!-- AS5511 -->
<g id="node6" class="node"><title>AS5511</title>
<g id="a_node6"><a xlink:href="/asn/5511" xlink:title="AS5511 ~ Orange S.A. [FR]">
<ellipse fill="#ffffff" stroke="black" cx="412.823" cy="-483" rx="39.7935" ry="18"/>
<text text-anchor="middle" x="412.823" y="-479.3" font-family="Times,serif" font-size="14.00" fill="#2c94b3">AS5511</text>
</a>
</g>
</g>
<!-- AS8220&#45;&gt;AS5511 -->
<g id="edge5" class="edge"><title>AS8220&#45;&gt;AS5511</title>
<path fill="none" stroke="black" d="M323.717,-448.608C338.511,-454.382 356.588,-461.439 372.51,-467.654"/>
<polygon fill="black" stroke="black" points="371.508,-471.02 382.096,-471.396 374.053,-464.499 371.508,-471.02"/>
</g>
<!-- AS1299 -->
<g id="node7" class="node"><title>AS1299</title>
<g id="a_node7"><a xlink:href="/asn/1299" xlink:title="AS1299 ~ Telia Carrier [EU]">
<ellipse fill="#ffffff" stroke="black" cx="412.823" cy="-298" rx="39.7935" ry="18"/>
<text text-anchor="middle" x="412.823" y="-294.3" font-family="Times,serif" font-size="14.00" fill="#2c94b3">AS1299</text>
</a>
</g>
</g>
<!-- AS8220&#45;&gt;AS1299 -->
<g id="edge6" class="edge"><title>AS8220&#45;&gt;AS1299</title>
<path fill="none" stroke="black" d="M303.873,-419.283C317.467,-395.933 343.624,-354.385 373.176,-325 375.299,-322.89 377.603,-320.832 379.994,-318.854"/>
<polygon fill="black" stroke="black" points="382.507,-321.338 388.319,-312.479 378.252,-315.78 382.507,-321.338"/>
</g>
<!-- AS2497 -->
<g id="node8" class="node"><title>AS2497</title>
<g id="a_node8"><a xlink:href="/asn/2497" xlink:title="AS2497 ~ Internet Initiative Japan Inc. [JP]">
<ellipse fill="#ffffff" stroke="black" cx="528.116" cy="-504" rx="39.7935" ry="18"/>
<text text-anchor="middle" x="528.116" y="-500.3" font-family="Times,serif" font-size="14.00" fill="#2c94b3">AS2497</text>
</a>
</g>
</g>
<!-- AS8220&#45;&gt;AS2497 -->
<g id="edge7" class="edge"><title>AS8220&#45;&gt;AS2497</title>
<path fill="none" stroke="black" d="M332.878,-436.836C365.665,-437.822 413.356,-441.926 452.469,-456 457.413,-457.779 478.28,-471.288 496.698,-483.523"/>
<polygon fill="black" stroke="black" points="494.93,-486.551 505.191,-489.189 498.815,-480.728 494.93,-486.551"/>
</g>
<!-- AS33891&#45;&gt;AS1299 -->
<g id="edge10" class="edge"><title>AS33891&#45;&gt;AS1299</title>
<path fill="none" stroke="black" stroke-width="2.57143" d="M337.191,-299.267C345.504,-299.126 354.267,-298.977 362.749,-298.833"/>
<polygon fill="black" stroke="black" stroke-width="2.57143" points="362.969,-302.33 372.908,-298.66 362.85,-295.331 362.969,-302.33"/>
</g>
<!-- AS3356 -->
<g id="node9" class="node"><title>AS3356</title>
<g id="a_node9"><a xlink:href="/asn/3356" xlink:title="AS3356 ~ Level 3 Parent, LLC [US]">
<ellipse fill="#ffffff" stroke="black" cx="412.823" cy="-244" rx="39.7935" ry="18"/>
<text text-anchor="middle" x="412.823" y="-240.3" font-family="Times,serif" font-size="14.00" fill="#2c94b3">AS3356</text>
</a>
</g>
</g>
<!-- AS33891&#45;&gt;AS3356 -->
<g id="edge8" class="edge"><title>AS33891&#45;&gt;AS3356</title>
<path fill="none" stroke="black" stroke-width="4.5" d="M322.507,-286.444C338.484,-278.851 358.568,-269.307 375.643,-261.193"/>
<polygon fill="black" stroke="black" stroke-width="4.5" points="377.432,-264.703 384.774,-256.854 374.052,-257.59 377.432,-264.703"/>
</g>
<!-- AS3257 -->
<g id="node10" class="node"><title>AS3257</title>
<g id="a_node10"><a xlink:href="/asn/3257" xlink:title="AS3257 ~ GTT [DE]">
<ellipse fill="#ffffff" stroke="black" cx="412.823" cy="-352" rx="39.7935" ry="18"/>
<text text-anchor="middle" x="412.823" y="-348.3" font-family="Times,serif" font-size="14.00" fill="#2c94b3">AS3257</text>
</a>
</g>
</g>
<!-- AS33891&#45;&gt;AS3257 -->
<g id="edge9" class="edge"><title>AS33891&#45;&gt;AS3257</title>
<path fill="none" stroke="black" stroke-width="0.642857" d="M323.717,-313.122C339.106,-319.913 358.049,-328.271 374.422,-335.496"/>
<polygon fill="black" stroke="black" stroke-width="0.642857" points="373.157,-338.763 383.718,-339.598 375.983,-332.359 373.157,-338.763"/>
</g>
<!-- AS60587&#45;&gt;AS3257 -->
<g id="edge21" class="edge"><title>AS60587&#45;&gt;AS3257</title>
<path fill="none" stroke="black" stroke-width="4.5" d="M190.603,-294.9C205.927,-305.678 227.629,-319.313 248.784,-327 285.699,-340.413 329.858,-346.63 362.903,-349.511"/>
<polygon fill="black" stroke="black" stroke-width="4.5" points="362.936,-353.464 373.218,-350.334 363.563,-345.614 362.936,-353.464"/>
</g>
<!-- AS1764 -->
<g id="node18" class="node"><title>AS1764</title>
<g id="a_node18"><a xlink:href="/asn/1764" xlink:title="AS1764 ~ NEXTLAYER&#45;AS [AT]">
<ellipse fill="#ffffff" stroke="black" cx="292.98" cy="-217" rx="39.7935" ry="18"/>
<text text-anchor="middle" x="292.98" y="-213.3" font-family="Times,serif" font-size="14.00" fill="#2c94b3">AS1764</text>
</a>
</g>
</g>
<!-- AS60587&#45;&gt;AS1764 -->
<g id="edge20" class="edge"><title>AS60587&#45;&gt;AS1764</title>
<path fill="none" stroke="black" stroke-width="3.5" d="M197.055,-265.086C214.741,-256.127 237.893,-244.399 256.904,-234.768"/>
<polygon fill="black" stroke="black" stroke-width="3.5" points="258.524,-237.872 265.863,-230.23 255.36,-231.627 258.524,-237.872"/>
</g>
<!-- AS1239 -->
<g id="node14" class="node"><title>AS1239</title>
<g id="a_node14"><a xlink:href="/asn/1239" xlink:title="AS1239 ~ Sprint [US]">
<ellipse fill="#ffffff" stroke="black" cx="528.116" cy="-126" rx="39.7935" ry="18"/>
<text text-anchor="middle" x="528.116" y="-122.3" font-family="Times,serif" font-size="14.00" fill="#2c94b3">AS1239</text>
</a>
</g>
</g>
<!-- AS1299&#45;&gt;AS1239 -->
<g id="edge17" class="edge"><title>AS1299&#45;&gt;AS1239</title>
<path fill="none" stroke="black" d="M438.849,-284.189C443.92,-280.455 448.812,-276.032 452.469,-271 484.708,-226.648 456.23,-197.352 488.469,-153 490.184,-150.641 492.17,-148.416 494.318,-146.334"/>
<polygon fill="black" stroke="black" points="496.68,-148.921 502.09,-139.811 492.18,-143.559 496.68,-148.921"/>
</g>
<!-- AS6762 -->
<g id="node16" class="node"><title>AS6762</title>
<g id="a_node16"><a xlink:href="/asn/6762" xlink:title="AS6762 ~ TELECOM ITALIA SPARKLE S.p.A. [IT]">
<ellipse fill="#ffffff" stroke="black" cx="528.116" cy="-342" rx="39.7935" ry="18"/>
<text text-anchor="middle" x="528.116" y="-338.3" font-family="Times,serif" font-size="14.00" fill="#2c94b3">AS6762</text>
</a>
</g>
</g>
<!-- AS1299&#45;&gt;AS6762 -->
<g id="edge19" class="edge"><title>AS1299&#45;&gt;AS6762</title>
<path fill="none" stroke="black" d="M443.589,-309.56C457.119,-314.815 473.313,-321.104 487.824,-326.74"/>
<polygon fill="black" stroke="black" points="486.96,-330.159 497.548,-330.517 489.494,-323.634 486.96,-330.159"/>
</g>
<!-- AS7018 -->
<g id="node17" class="node"><title>AS7018</title>
<g id="a_node17"><a xlink:href="/asn/7018" xlink:title="AS7018 ~ AT&amp;T Services, Inc. [US]">
<ellipse fill="#ffffff" stroke="black" cx="528.116" cy="-396" rx="39.7935" ry="18"/>
<text text-anchor="middle" x="528.116" y="-392.3" font-family="Times,serif" font-size="14.00" fill="#2c94b3">AS7018</text>
</a>
</g>
</g>
<!-- AS1299&#45;&gt;AS7018 -->
<g id="edge18" class="edge"><title>AS1299&#45;&gt;AS7018</title>
<path fill="none" stroke="black" d="M436.696,-312.427C442.092,-316.243 447.667,-320.549 452.469,-325 471.001,-342.176 469.938,-351.824 488.469,-369 490.871,-371.225 493.465,-373.415 496.133,-375.525"/>
<polygon fill="black" stroke="black" points="494.134,-378.4 504.242,-381.573 498.32,-372.789 494.134,-378.4"/>
</g>
<!-- AS3491 -->
<g id="node11" class="node"><title>AS3491</title>
<g id="a_node11"><a xlink:href="/asn/3491" xlink:title="AS3491 ~ PCCW Global, Inc. [US]">
<ellipse fill="#ffffff" stroke="black" cx="528.116" cy="-180" rx="39.7935" ry="18"/>
<text text-anchor="middle" x="528.116" y="-176.3" font-family="Times,serif" font-size="14.00" fill="#2c94b3">AS3491</text>
</a>
</g>
</g>
<!-- AS3356&#45;&gt;AS3491 -->
<g id="edge11" class="edge"><title>AS3356&#45;&gt;AS3491</title>
<path fill="none" stroke="black" d="M438.406,-230.113C454.588,-220.971 475.976,-208.889 493.696,-198.879"/>
<polygon fill="black" stroke="black" points="495.596,-201.826 502.581,-193.86 492.153,-195.731 495.596,-201.826"/>
</g>
<!-- AS701 -->
<g id="node12" class="node"><title>AS701</title>
<g id="a_node12"><a xlink:href="/asn/701" xlink:title="AS701 ~ UUNET [US]">
<ellipse fill="#ffffff" stroke="black" cx="528.116" cy="-288" rx="35.194" ry="18"/>
<text text-anchor="middle" x="528.116" y="-284.3" font-family="Times,serif" font-size="14.00" fill="#2c94b3">AS701</text>
</a>
</g>
</g>
<!-- AS3356&#45;&gt;AS701 -->
<g id="edge12" class="edge"><title>AS3356&#45;&gt;AS701</title>
<path fill="none" stroke="black" d="M443.589,-255.56C457.787,-261.075 474.918,-267.728 489.96,-273.57"/>
<polygon fill="black" stroke="black" points="488.903,-276.914 499.492,-277.272 491.437,-270.389 488.903,-276.914"/>
</g>
<!-- AS3549 -->
<g id="node13" class="node"><title>AS3549</title>
<g id="a_node13"><a xlink:href="/asn/3549" xlink:title="AS3549 ~ Level 3 Parent, LLC [US]">
<ellipse fill="#ffffff" stroke="black" cx="528.116" cy="-72" rx="39.7935" ry="18"/>
<text text-anchor="middle" x="528.116" y="-68.3" font-family="Times,serif" font-size="14.00" fill="#2c94b3">AS3549</text>
</a>
</g>
</g>
<!-- AS3356&#45;&gt;AS3549 -->
<g id="edge13" class="edge"><title>AS3356&#45;&gt;AS3549</title>
<path fill="none" stroke="black" d="M438.849,-230.189C443.92,-226.455 448.812,-222.032 452.469,-217 484.708,-172.648 456.23,-143.352 488.469,-99 490.184,-96.6415 492.17,-94.4165 494.318,-92.3336"/>
<polygon fill="black" stroke="black" points="496.68,-94.9207 502.09,-85.8114 492.18,-89.5586 496.68,-94.9207"/>
</g>
<!-- AS3356&#45;&gt;AS1239 -->
<g id="edge14" class="edge"><title>AS3356&#45;&gt;AS1239</title>
<path fill="none" stroke="black" d="M437.672,-229.851C442.917,-226.082 448.18,-221.729 452.469,-217 474.395,-192.827 466.544,-177.173 488.469,-153 490.48,-150.783 492.704,-148.649 495.041,-146.619"/>
<polygon fill="black" stroke="black" points="497.57,-149.083 503.267,-140.149 493.243,-143.58 497.57,-149.083"/>
</g>
<!-- AS209 -->
<g id="node15" class="node"><title>AS209</title>
<g id="a_node15"><a xlink:href="/asn/209" xlink:title="AS209 ~ CenturyLink Communications, LLC [US]">
<ellipse fill="#ffffff" stroke="black" cx="528.116" cy="-234" rx="35.194" ry="18"/>
<text text-anchor="middle" x="528.116" y="-230.3" font-family="Times,serif" font-size="14.00" fill="#2c94b3">AS209</text>
</a>
</g>
</g>
<!-- AS3356&#45;&gt;AS209 -->
<g id="edge15" class="edge"><title>AS3356&#45;&gt;AS209</title>
<path fill="none" stroke="black" d="M451.863,-240.642C461.891,-239.757 472.794,-238.795 483.109,-237.884"/>
<polygon fill="black" stroke="black" points="483.519,-241.362 493.172,-236.996 482.903,-234.389 483.519,-241.362"/>
</g>
<!-- AS3356&#45;&gt;AS6762 -->
<g id="edge16" class="edge"><title>AS3356&#45;&gt;AS6762</title>
<path fill="none" stroke="black" d="M436.696,-258.427C442.092,-262.243 447.667,-266.549 452.469,-271 471.001,-288.176 469.938,-297.824 488.469,-315 490.871,-317.225 493.465,-319.415 496.133,-321.525"/>
<polygon fill="black" stroke="black" points="494.134,-324.4 504.242,-327.573 498.32,-318.789 494.134,-324.4"/>
</g>
<!-- AS3257&#45;&gt;AS6453 -->
<g id="edge35" class="edge"><title>AS3257&#45;&gt;AS6453</title>
<path fill="none" stroke="black" d="M420.598,-369.814C436.893,-412.418 477.725,-517.659 488.469,-531 490.298,-533.271 492.367,-535.433 494.572,-537.471"/>
<polygon fill="black" stroke="black" points="492.494,-540.293 502.452,-543.911 496.924,-534.873 492.494,-540.293"/>
</g>
<!-- AS3257&#45;&gt;AS2497 -->
<g id="edge29" class="edge"><title>AS3257&#45;&gt;AS2497</title>
<path fill="none" stroke="black" d="M423.141,-369.612C439.263,-399.716 472.194,-459.517 488.469,-477 490.509,-479.19 492.753,-481.306 495.104,-483.323"/>
<polygon fill="black" stroke="black" points="493.32,-486.371 503.356,-489.769 497.63,-480.855 493.32,-486.371"/>
</g>
<!-- AS3257&#45;&gt;AS3491 -->
<g id="edge32" class="edge"><title>AS3257&#45;&gt;AS3491</title>
<path fill="none" stroke="black" d="M438.849,-338.189C443.92,-334.455 448.812,-330.032 452.469,-325 484.708,-280.648 456.23,-251.352 488.469,-207 490.184,-204.641 492.17,-202.416 494.318,-200.334"/>
<polygon fill="black" stroke="black" points="496.68,-202.921 502.09,-193.811 492.18,-197.559 496.68,-202.921"/>
</g>
<!-- AS3257&#45;&gt;AS701 -->
<g id="edge31" class="edge"><title>AS3257&#45;&gt;AS701</title>
<path fill="none" stroke="black" d="M438.406,-338.113C454.921,-328.784 476.857,-316.392 494.783,-306.265"/>
<polygon fill="black" stroke="black" points="496.757,-309.17 503.742,-301.204 493.314,-303.075 496.757,-309.17"/>
</g>
<!-- AS3257&#45;&gt;AS209 -->
<g id="edge30" class="edge"><title>AS3257&#45;&gt;AS209</title>
<path fill="none" stroke="black" d="M437.672,-337.851C442.917,-334.082 448.18,-329.729 452.469,-325 474.395,-300.827 466.544,-285.173 488.469,-261 490.794,-258.437 493.406,-255.984 496.145,-253.674"/>
<polygon fill="black" stroke="black" points="498.282,-256.446 504.074,-247.574 494.014,-250.898 498.282,-256.446"/>
</g>
<!-- AS3257&#45;&gt;AS6762 -->
<g id="edge34" class="edge"><title>AS3257&#45;&gt;AS6762</title>
<path fill="none" stroke="black" d="M451.863,-348.642C460.55,-347.876 469.894,-347.051 478.943,-346.252"/>
<polygon fill="black" stroke="black" points="479.33,-349.732 488.983,-345.366 478.714,-342.759 479.33,-349.732"/>
</g>
<!-- AS3257&#45;&gt;AS7018 -->
<g id="edge28" class="edge"><title>AS3257&#45;&gt;AS7018</title>
<path fill="none" stroke="black" d="M443.589,-363.56C457.119,-368.815 473.313,-375.104 487.824,-380.74"/>
<polygon fill="black" stroke="black" points="486.96,-384.159 497.548,-384.517 489.494,-377.634 486.96,-384.159"/>
</g>
<!-- AS1273 -->
<g id="node23" class="node"><title>AS1273</title>
<g id="a_node23"><a xlink:href="/asn/1273" xlink:title="AS1273 ~ Vodafone Group PLC [EU]">
<ellipse fill="#ffffff" stroke="black" cx="528.116" cy="-450" rx="39.7935" ry="18"/>
<text text-anchor="middle" x="528.116" y="-446.3" font-family="Times,serif" font-size="14.00" fill="#2c94b3">AS1273</text>
</a>
</g>
</g>
<!-- AS3257&#45;&gt;AS1273 -->
<g id="edge33" class="edge"><title>AS3257&#45;&gt;AS1273</title>
<path fill="none" stroke="black" d="M429.773,-368.532C444.46,-383.419 467.141,-405.572 488.469,-423 491.005,-425.072 493.691,-427.155 496.42,-429.196"/>
<polygon fill="black" stroke="black" points="494.47,-432.106 504.622,-435.137 498.577,-426.436 494.47,-432.106"/>
</g>
<!-- AS1764&#45;&gt;AS1299 -->
<g id="edge25" class="edge"><title>AS1764&#45;&gt;AS1299</title>
<path fill="none" stroke="black" d="M315.595,-231.857C334.083,-244.565 360.897,-262.995 381.526,-277.175"/>
<polygon fill="black" stroke="black" points="379.723,-280.183 389.947,-282.963 383.688,-274.414 379.723,-280.183"/>
</g>
<!-- AS1764&#45;&gt;AS3356 -->
<g id="edge26" class="edge"><title>AS1764&#45;&gt;AS3356</title>
<path fill="none" stroke="black" d="M328.7,-224.955C340.7,-227.704 354.32,-230.825 367.013,-233.733"/>
<polygon fill="black" stroke="black" points="366.415,-237.187 376.945,-236.009 367.979,-230.364 366.415,-237.187"/>
</g>
<!-- AS8218 -->
<g id="node19" class="node"><title>AS8218</title>
<g id="a_node19"><a xlink:href="/asn/8218" xlink:title="AS8218 ~ legacy Neotelecoms [FR]">
<ellipse fill="#ffffff" stroke="black" cx="412.823" cy="-55" rx="39.7935" ry="18"/>
<text text-anchor="middle" x="412.823" y="-51.3" font-family="Times,serif" font-size="14.00" fill="#2c94b3">AS8218</text>
</a>
</g>
</g>
<!-- AS1764&#45;&gt;AS8218 -->
<g id="edge22" class="edge"><title>AS1764&#45;&gt;AS8218</title>
<path fill="none" stroke="black" stroke-width="2" d="M306.369,-199.969C327.091,-171.483 368.894,-114.015 393.182,-80.6263"/>
<polygon fill="black" stroke="black" stroke-width="2" points="396.194,-82.4357 399.246,-72.29 390.533,-78.318 396.194,-82.4357"/>
</g>
<!-- AS2914 -->
<g id="node20" class="node"><title>AS2914</title>
<g id="a_node20"><a xlink:href="/asn/2914" xlink:title="AS2914 ~ NTT America, Inc. [US]">
<ellipse fill="#ffffff" stroke="black" cx="412.823" cy="-190" rx="39.7935" ry="18"/>
<text text-anchor="middle" x="412.823" y="-186.3" font-family="Times,serif" font-size="14.00" fill="#2c94b3">AS2914</text>
</a>
</g>
</g>
<!-- AS1764&#45;&gt;AS2914 -->
<g id="edge23" class="edge"><title>AS1764&#45;&gt;AS2914</title>
<path fill="none" stroke="black" stroke-width="2" d="M328.7,-209.045C340.7,-206.296 354.32,-203.175 367.013,-200.267"/>
<polygon fill="black" stroke="black" stroke-width="2" points="367.979,-203.636 376.945,-197.991 366.415,-196.813 367.979,-203.636"/>
</g>
<!-- AS174 -->
<g id="node21" class="node"><title>AS174</title>
<g id="a_node21"><a xlink:href="/asn/174" xlink:title="AS174 ~ Cogent Communications [US]">
<ellipse fill="#ffffff" stroke="black" cx="412.823" cy="-136" rx="35.194" ry="18"/>
<text text-anchor="middle" x="412.823" y="-132.3" font-family="Times,serif" font-size="14.00" fill="#2c94b3">AS174</text>
</a>
</g>
</g>
<!-- AS1764&#45;&gt;AS174 -->
<g id="edge24" class="edge"><title>AS1764&#45;&gt;AS174</title>
<path fill="none" stroke="black" d="M315.595,-202.143C334.432,-189.195 361.912,-170.307 382.687,-156.027"/>
<polygon fill="black" stroke="black" points="384.878,-158.768 391.136,-150.219 380.913,-152.999 384.878,-158.768"/>
</g>
<!-- AS6461 -->
<g id="node22" class="node"><title>AS6461</title>
<g id="a_node22"><a xlink:href="/asn/6461" xlink:title="AS6461 ~ Zayo Bandwidth [US]">
<ellipse fill="#ffffff" stroke="black" cx="528.116" cy="-18" rx="39.7935" ry="18"/>
<text text-anchor="middle" x="528.116" y="-14.3" font-family="Times,serif" font-size="14.00" fill="#2c94b3">AS6461</text>
</a>
</g>
</g>
<!-- AS8218&#45;&gt;AS6461 -->
<g id="edge27" class="edge"><title>AS8218&#45;&gt;AS6461</title>
<path fill="none" stroke="black" stroke-width="2" d="M445.381,-44.6934C457.799,-40.6381 472.232,-35.9244 485.484,-31.5966"/>
<polygon fill="black" stroke="black" stroke-width="2" points="486.915,-34.8113 495.334,-28.3796 484.741,-28.1571 486.915,-34.8113"/>
</g>
</g>
</svg>
