<?xml version="1.0" encoding="UTF-8" standalone="no"?>
<!DOCTYPE svg PUBLIC "-//W3C//DTD SVG 1.1//EN"
 "http://www.w3.org/Graphics/SVG/1.1/DTD/svg11.dtd">
<!-- Generated by graphviz version 2.38.0 (20140413.2041)
 -->
<!-- Title: AS208094 Combined Upstream Graph Pages: 1 -->
<svg width="584pt" height="638pt"
 viewBox="0.00 0.00 583.56 638.00" xmlns="http://www.w3.org/2000/svg" xmlns:xlink="http://www.w3.org/1999/xlink">
<g id="graph0" class="graph" transform="scale(1 1) rotate(0) translate(4 634)">
<title>AS208094 Combined Upstream Graph</title>
<polygon fill="white" stroke="none" points="-4,4 -4,-634 579.562,-634 579.562,4 -4,4"/>
<!-- AS208094 -->
<g id="node1" class="node"><title>AS208094</title>
<g id="a_node1"><a xlink:href="/asn/208094" xlink:title="AS208094 ~ EDV&#45;SCHERER [AT]">
<ellipse fill="#ffffff" stroke="black" cx="48.0957" cy="-288" rx="48.1917" ry="18"/>
<text text-anchor="middle" x="48.0957" y="-284.3" font-family="Times,serif" font-size="14.00" fill="#880000">AS208094</text>
</a>
</g>
</g>
<!-- AS31543 -->
<g id="node2" class="node"><title>AS31543</title>
<g id="a_node2"><a xlink:href="/asn/31543" xlink:title="AS31543 ~ myNET gmbh [AT]">
<ellipse fill="#ffffff" stroke="black" cx="176.388" cy="-315" rx="44.393" ry="18"/>
<text text-anchor="middle" x="176.388" y="-311.3" font-family="Times,serif" font-size="14.00" fill="#2c94b3">AS31543</text>
</a>
</g>
</g>
<!-- AS208094&#45;&gt;AS31543 -->
<g id="edge1" class="edge"><title>AS208094&#45;&gt;AS31543</title>
<path fill="none" stroke="black" stroke-width="4.5" d="M90.4484,-296.841C102.138,-299.34 114.964,-302.082 127.027,-304.661"/>
<polygon fill="black" stroke="black" stroke-width="4.5" points="126.336,-308.54 136.939,-306.78 127.983,-300.839 126.336,-308.54"/>
</g>
<!-- AS6939 -->
<g id="node3" class="node"><title>AS6939</title>
<g id="a_node3"><a xlink:href="/asn/6939" xlink:title="AS6939 ~ Hurricane Electric LLC [US]">
<ellipse fill="#ffffff" stroke="black" cx="176.388" cy="-261" rx="39.7935" ry="18"/>
<text text-anchor="middle" x="176.388" y="-257.3" font-family="Times,serif" font-size="14.00" fill="#2c94b3">AS6939</text>
</a>
</g>
</g>
<!-- AS208094&#45;&gt;AS6939 -->
<g id="edge2" class="edge"><title>AS208094&#45;&gt;AS6939</title>
<path fill="none" stroke="black" stroke-width="0.3" d="M90.4484,-279.159C103.163,-276.441 117.222,-273.435 130.181,-270.665"/>
<polygon fill="black" stroke="black" stroke-width="0.3" points="131.245,-274.016 140.292,-268.503 129.781,-267.171 131.245,-274.016"/>
</g>
<!-- AS174 -->
<g id="node4" class="node"><title>AS174</title>
<g id="a_node4"><a xlink:href="/asn/174" xlink:title="AS174 ~ Cogent Communications [US]">
<ellipse fill="#ffffff" stroke="black" cx="300.78" cy="-315" rx="35.194" ry="18"/>
<text text-anchor="middle" x="300.78" y="-311.3" font-family="Times,serif" font-size="14.00" fill="#2c94b3">AS174</text>
</a>
</g>
</g>
<!-- AS31543&#45;&gt;AS174 -->
<g id="edge3" class="edge"><title>AS31543&#45;&gt;AS174</title>
<path fill="none" stroke="black" stroke-width="4.5" d="M220.883,-315C232.141,-315 244.273,-315 255.566,-315"/>
<polygon fill="black" stroke="black" stroke-width="4.5" points="255.654,-318.938 265.654,-315 255.654,-311.063 255.654,-318.938"/>
</g>
<!-- AS12956 -->
<g id="node19" class="node"><title>AS12956</title>
<g id="a_node19"><a xlink:href="/asn/12956" xlink:title="AS12956 ~ TELXIUS [ES]">
<ellipse fill="#ffffff" stroke="black" cx="300.78" cy="-261" rx="44.393" ry="18"/>
<text text-anchor="middle" x="300.78" y="-257.3" font-family="Times,serif" font-size="14.00" fill="#2c94b3">AS12956</text>
</a>
</g>
</g>
<!-- AS6939&#45;&gt;AS12956 -->
<g id="edge18" class="edge"><title>AS6939&#45;&gt;AS12956</title>
<path fill="none" stroke="black" d="M216.113,-261C225.573,-261 235.865,-261 245.891,-261"/>
<polygon fill="black" stroke="black" points="246.198,-264.5 256.198,-261 246.198,-257.5 246.198,-264.5"/>
</g>
<!-- AS209 -->
<g id="node5" class="node"><title>AS209</title>
<g id="a_node5"><a xlink:href="/asn/209" xlink:title="AS209 ~ CenturyLink Communications, LLC [US]">
<ellipse fill="#ffffff" stroke="black" cx="420.622" cy="-612" rx="35.194" ry="18"/>
<text text-anchor="middle" x="420.622" y="-608.3" font-family="Times,serif" font-size="14.00" fill="#2c94b3">AS209</text>
</a>
</g>
</g>
<!-- AS174&#45;&gt;AS209 -->
<g id="edge4" class="edge"><title>AS174&#45;&gt;AS209</title>
<path fill="none" stroke="black" d="M302.998,-333.195C306.906,-379.461 322.533,-503.68 380.976,-585 382.934,-587.725 385.257,-590.27 387.776,-592.622"/>
<polygon fill="black" stroke="black" points="385.786,-595.514 395.759,-599.089 390.192,-590.075 385.786,-595.514"/>
</g>
<!-- AS701 -->
<g id="node6" class="node"><title>AS701</title>
<g id="a_node6"><a xlink:href="/asn/701" xlink:title="AS701 ~ UUNET [US]">
<ellipse fill="#ffffff" stroke="black" cx="420.622" cy="-558" rx="35.194" ry="18"/>
<text text-anchor="middle" x="420.622" y="-554.3" font-family="Times,serif" font-size="14.00" fill="#2c94b3">AS701</text>
</a>
</g>
</g>
<!-- AS174&#45;&gt;AS701 -->
<g id="edge5" class="edge"><title>AS174&#45;&gt;AS701</title>
<path fill="none" stroke="black" d="M304.598,-332.99C311.526,-372.435 332.482,-468.025 380.976,-531 383.023,-533.659 385.406,-536.158 387.964,-538.482"/>
<polygon fill="black" stroke="black" points="386.008,-541.399 396.006,-544.906 390.377,-535.93 386.008,-541.399"/>
</g>
<!-- AS3257 -->
<g id="node7" class="node"><title>AS3257</title>
<g id="a_node7"><a xlink:href="/asn/3257" xlink:title="AS3257 ~ GTT [DE]">
<ellipse fill="#ffffff" stroke="black" cx="420.622" cy="-504" rx="39.7935" ry="18"/>
<text text-anchor="middle" x="420.622" y="-500.3" font-family="Times,serif" font-size="14.00" fill="#2c94b3">AS3257</text>
</a>
</g>
</g>
<!-- AS174&#45;&gt;AS3257 -->
<g id="edge6" class="edge"><title>AS174&#45;&gt;AS3257</title>
<path fill="none" stroke="black" d="M307.146,-332.74C317.41,-364.461 342.301,-431.808 380.976,-477 382.922,-479.274 385.1,-481.449 387.404,-483.507"/>
<polygon fill="black" stroke="black" points="385.574,-486.524 395.573,-490.027 389.941,-481.053 385.574,-486.524"/>
</g>
<!-- AS2914 -->
<g id="node8" class="node"><title>AS2914</title>
<g id="a_node8"><a xlink:href="/asn/2914" xlink:title="AS2914 ~ NTT America, Inc. [US]">
<ellipse fill="#ffffff" stroke="black" cx="420.622" cy="-450" rx="39.7935" ry="18"/>
<text text-anchor="middle" x="420.622" y="-446.3" font-family="Times,serif" font-size="14.00" fill="#2c94b3">AS2914</text>
</a>
</g>
</g>
<!-- AS174&#45;&gt;AS2914 -->
<g id="edge7" class="edge"><title>AS174&#45;&gt;AS2914</title>
<path fill="none" stroke="black" stroke-width="2" d="M312.045,-332.44C325.854,-354.991 352.043,-394.722 380.976,-423 383.116,-425.092 385.433,-427.137 387.833,-429.106"/>
<polygon fill="black" stroke="black" stroke-width="2" points="386.1,-432.185 396.175,-435.464 390.343,-426.618 386.1,-432.185"/>
</g>
<!-- AS7018 -->
<g id="node9" class="node"><title>AS7018</title>
<g id="a_node9"><a xlink:href="/asn/7018" xlink:title="AS7018 ~ AT&amp;T Services, Inc. [US]">
<ellipse fill="#ffffff" stroke="black" cx="420.622" cy="-396" rx="39.7935" ry="18"/>
<text text-anchor="middle" x="420.622" y="-392.3" font-family="Times,serif" font-size="14.00" fill="#2c94b3">AS7018</text>
</a>
</g>
</g>
<!-- AS174&#45;&gt;AS7018 -->
<g id="edge8" class="edge"><title>AS174&#45;&gt;AS7018</title>
<path fill="none" stroke="black" d="M322.576,-329.295C341.16,-342.068 368.61,-360.937 389.579,-375.349"/>
<polygon fill="black" stroke="black" points="387.613,-378.245 397.836,-381.025 391.578,-372.476 387.613,-378.245"/>
</g>
<!-- AS3356 -->
<g id="node10" class="node"><title>AS3356</title>
<g id="a_node10"><a xlink:href="/asn/3356" xlink:title="AS3356 ~ Level 3 Parent, LLC [US]">
<ellipse fill="#ffffff" stroke="black" cx="420.622" cy="-342" rx="39.7935" ry="18"/>
<text text-anchor="middle" x="420.622" y="-338.3" font-family="Times,serif" font-size="14.00" fill="#2c94b3">AS3356</text>
</a>
</g>
</g>
<!-- AS174&#45;&gt;AS3356 -->
<g id="edge9" class="edge"><title>AS174&#45;&gt;AS3356</title>
<path fill="none" stroke="black" stroke-width="2" d="M333.05,-322.165C345.889,-325.106 360.994,-328.567 374.961,-331.767"/>
<polygon fill="black" stroke="black" stroke-width="2" points="374.353,-335.219 384.882,-334.04 375.916,-328.395 374.353,-335.219"/>
</g>
<!-- AS1299 -->
<g id="node11" class="node"><title>AS1299</title>
<g id="a_node11"><a xlink:href="/asn/1299" xlink:title="AS1299 ~ Telia Carrier [EU]">
<ellipse fill="#ffffff" stroke="black" cx="420.622" cy="-288" rx="39.7935" ry="18"/>
<text text-anchor="middle" x="420.622" y="-284.3" font-family="Times,serif" font-size="14.00" fill="#2c94b3">AS1299</text>
</a>
</g>
</g>
<!-- AS174&#45;&gt;AS1299 -->
<g id="edge10" class="edge"><title>AS174&#45;&gt;AS1299</title>
<path fill="none" stroke="black" d="M333.05,-307.835C345.889,-304.894 360.994,-301.433 374.961,-298.233"/>
<polygon fill="black" stroke="black" points="375.916,-301.605 384.882,-295.96 374.353,-294.781 375.916,-301.605"/>
</g>
<!-- AS3491 -->
<g id="node12" class="node"><title>AS3491</title>
<g id="a_node12"><a xlink:href="/asn/3491" xlink:title="AS3491 ~ PCCW Global, Inc. [US]">
<ellipse fill="#ffffff" stroke="black" cx="420.622" cy="-234" rx="39.7935" ry="18"/>
<text text-anchor="middle" x="420.622" y="-230.3" font-family="Times,serif" font-size="14.00" fill="#2c94b3">AS3491</text>
</a>
</g>
</g>
<!-- AS174&#45;&gt;AS3491 -->
<g id="edge11" class="edge"><title>AS174&#45;&gt;AS3491</title>
<path fill="none" stroke="black" d="M324.433,-301.343C331.124,-297.175 338.411,-292.501 344.976,-288 361.47,-276.689 364.776,-272.729 380.976,-261 383.779,-258.971 386.71,-256.875 389.651,-254.79"/>
<polygon fill="black" stroke="black" points="391.702,-257.627 397.865,-249.009 387.673,-251.903 391.702,-257.627"/>
</g>
<!-- AS6762 -->
<g id="node13" class="node"><title>AS6762</title>
<g id="a_node13"><a xlink:href="/asn/6762" xlink:title="AS6762 ~ TELECOM ITALIA SPARKLE S.p.A. [IT]">
<ellipse fill="#ffffff" stroke="black" cx="420.622" cy="-180" rx="39.7935" ry="18"/>
<text text-anchor="middle" x="420.622" y="-176.3" font-family="Times,serif" font-size="14.00" fill="#2c94b3">AS6762</text>
</a>
</g>
</g>
<!-- AS174&#45;&gt;AS6762 -->
<g id="edge12" class="edge"><title>AS174&#45;&gt;AS6762</title>
<path fill="none" stroke="black" d="M327.028,-302.69C333.477,-298.673 339.988,-293.742 344.976,-288 370.81,-258.258 355.911,-237.394 380.976,-207 382.831,-204.75 384.918,-202.604 387.137,-200.576"/>
<polygon fill="black" stroke="black" points="389.485,-203.177 395.041,-194.156 385.072,-197.744 389.485,-203.177"/>
</g>
<!-- AS6453 -->
<g id="node14" class="node"><title>AS6453</title>
<g id="a_node14"><a xlink:href="/asn/6453" xlink:title="AS6453 ~ TATA COMMUNICATIONS (AMERICA) INC [US]">
<ellipse fill="#ffffff" stroke="black" cx="420.622" cy="-126" rx="39.7935" ry="18"/>
<text text-anchor="middle" x="420.622" y="-122.3" font-family="Times,serif" font-size="14.00" fill="#2c94b3">AS6453</text>
</a>
</g>
</g>
<!-- AS174&#45;&gt;AS6453 -->
<g id="edge13" class="edge"><title>AS174&#45;&gt;AS6453</title>
<path fill="none" stroke="black" d="M327.647,-303.186C334.098,-299.171 340.456,-294.117 344.976,-288 381.879,-238.059 345.362,-203.869 380.976,-153 382.648,-150.611 384.603,-148.365 386.73,-146.267"/>
<polygon fill="black" stroke="black" points="389.095,-148.851 394.463,-139.716 384.57,-143.51 389.095,-148.851"/>
</g>
<!-- AS6461 -->
<g id="node15" class="node"><title>AS6461</title>
<g id="a_node15"><a xlink:href="/asn/6461" xlink:title="AS6461 ~ Zayo Bandwidth [US]">
<ellipse fill="#ffffff" stroke="black" cx="420.622" cy="-72" rx="39.7935" ry="18"/>
<text text-anchor="middle" x="420.622" y="-68.3" font-family="Times,serif" font-size="14.00" fill="#2c94b3">AS6461</text>
</a>
</g>
</g>
<!-- AS174&#45;&gt;AS6461 -->
<g id="edge14" class="edge"><title>AS174&#45;&gt;AS6461</title>
<path fill="none" stroke="black" d="M327.944,-303.397C334.396,-299.383 340.68,-294.276 344.976,-288 393.272,-217.434 334.501,-170.778 380.976,-99 382.561,-96.5525 384.453,-94.2632 386.536,-92.1357"/>
<polygon fill="black" stroke="black" points="388.905,-94.7145 394.186,-85.5298 384.33,-89.4164 388.905,-94.7145"/>
</g>
<!-- AS1239 -->
<g id="node16" class="node"><title>AS1239</title>
<g id="a_node16"><a xlink:href="/asn/1239" xlink:title="AS1239 ~ Sprint [US]">
<ellipse fill="#ffffff" stroke="black" cx="420.622" cy="-18" rx="39.7935" ry="18"/>
<text text-anchor="middle" x="420.622" y="-14.3" font-family="Times,serif" font-size="14.00" fill="#2c94b3">AS1239</text>
</a>
</g>
</g>
<!-- AS174&#45;&gt;AS1239 -->
<g id="edge15" class="edge"><title>AS174&#45;&gt;AS1239</title>
<path fill="none" stroke="black" d="M328.116,-303.512C334.568,-299.498 340.81,-294.363 344.976,-288 404.773,-196.653 323.535,-137.847 380.976,-45 382.51,-42.5204 384.365,-40.208 386.423,-38.0644"/>
<polygon fill="black" stroke="black" points="388.794,-40.6411 394.026,-31.4283 384.19,-35.3676 388.794,-40.6411"/>
</g>
<!-- AS2497 -->
<g id="node17" class="node"><title>AS2497</title>
<g id="a_node17"><a xlink:href="/asn/2497" xlink:title="AS2497 ~ Internet Initiative Japan Inc. [JP]">
<ellipse fill="#ffffff" stroke="black" cx="535.915" cy="-450" rx="39.7935" ry="18"/>
<text text-anchor="middle" x="535.915" y="-446.3" font-family="Times,serif" font-size="14.00" fill="#2c94b3">AS2497</text>
</a>
</g>
</g>
<!-- AS2914&#45;&gt;AS2497 -->
<g id="edge16" class="edge"><title>AS2914&#45;&gt;AS2497</title>
<path fill="none" stroke="black" d="M460.294,-450C468.497,-450 477.261,-450 485.794,-450"/>
<polygon fill="black" stroke="black" points="486.033,-453.5 496.033,-450 486.033,-446.5 486.033,-453.5"/>
</g>
<!-- AS3549 -->
<g id="node18" class="node"><title>AS3549</title>
<g id="a_node18"><a xlink:href="/asn/3549" xlink:title="AS3549 ~ Level 3 Parent, LLC [US]">
<ellipse fill="#ffffff" stroke="black" cx="535.915" cy="-342" rx="39.7935" ry="18"/>
<text text-anchor="middle" x="535.915" y="-338.3" font-family="Times,serif" font-size="14.00" fill="#2c94b3">AS3549</text>
</a>
</g>
</g>
<!-- AS3356&#45;&gt;AS3549 -->
<g id="edge17" class="edge"><title>AS3356&#45;&gt;AS3549</title>
<path fill="none" stroke="black" d="M460.294,-342C468.497,-342 477.261,-342 485.794,-342"/>
<polygon fill="black" stroke="black" points="486.033,-345.5 496.033,-342 486.033,-338.5 486.033,-345.5"/>
</g>
</g>
</svg>
