<?xml version="1.0" encoding="UTF-8" standalone="no"?>
<!DOCTYPE svg PUBLIC "-//W3C//DTD SVG 1.1//EN"
 "http://www.w3.org/Graphics/SVG/1.1/DTD/svg11.dtd">
<!-- Generated by graphviz version 2.38.0 (20140413.2041)
 -->
<!-- Title: AS206876 IPv4 Upstream Graph Pages: 1 -->
<svg width="708pt" height="530pt"
 viewBox="0.00 0.00 707.95 530.00" xmlns="http://www.w3.org/2000/svg" xmlns:xlink="http://www.w3.org/1999/xlink">
<g id="graph0" class="graph" transform="scale(1 1) rotate(0) translate(4 526)">
<title>AS206876 IPv4 Upstream Graph</title>
<polygon fill="white" stroke="none" points="-4,4 -4,-526 703.954,-526 703.954,4 -4,4"/>
<!-- AS206876 -->
<g id="node1" class="node"><title>AS206876</title>
<g id="a_node1"><a xlink:href="/asn/206876" xlink:title="AS206876 ~ MeinSystem GmbH [AT]">
<ellipse fill="#ffffff" stroke="black" cx="48.0957" cy="-199" rx="48.1917" ry="18"/>
<text text-anchor="middle" x="48.0957" y="-195.3" font-family="Times,serif" font-size="14.00" fill="#880000">AS206876</text>
</a>
</g>
</g>
<!-- AS15702 -->
<g id="node2" class="node"><title>AS15702</title>
<g id="a_node2"><a xlink:href="/asn/15702" xlink:title="AS15702 ~ Onstage Online GmbH [AT]">
<ellipse fill="#ffffff" stroke="black" cx="176.388" cy="-199" rx="44.393" ry="18"/>
<text text-anchor="middle" x="176.388" y="-195.3" font-family="Times,serif" font-size="14.00" fill="#2c94b3">AS15702</text>
</a>
</g>
</g>
<!-- AS206876&#45;&gt;AS15702 -->
<g id="edge1" class="edge"><title>AS206876&#45;&gt;AS15702</title>
<path fill="none" stroke="black" stroke-width="4.5" d="M96.4815,-199C104.742,-199 113.386,-199 121.799,-199"/>
<polygon fill="black" stroke="black" stroke-width="4.5" points="121.904,-202.938 131.904,-199 121.904,-195.063 121.904,-202.938"/>
</g>
<!-- AS13237 -->
<g id="node3" class="node"><title>AS13237</title>
<g id="a_node3"><a xlink:href="/asn/13237" xlink:title="AS13237 ~ European Backbone of AS13237 [DE]">
<ellipse fill="#ffffff" stroke="black" cx="300.78" cy="-233" rx="44.393" ry="18"/>
<text text-anchor="middle" x="300.78" y="-229.3" font-family="Times,serif" font-size="14.00" fill="#2c94b3">AS13237</text>
</a>
</g>
</g>
<!-- AS15702&#45;&gt;AS13237 -->
<g id="edge2" class="edge"><title>AS15702&#45;&gt;AS13237</title>
<path fill="none" stroke="black" stroke-width="4.5" d="M213.447,-209.017C226.034,-212.514 240.337,-216.487 253.631,-220.18"/>
<polygon fill="black" stroke="black" stroke-width="4.5" points="252.866,-224.054 263.555,-222.937 254.974,-216.466 252.866,-224.054"/>
</g>
<!-- AS47147 -->
<g id="node4" class="node"><title>AS47147</title>
<g id="a_node4"><a xlink:href="/asn/47147" xlink:title="AS47147 ~ ANEXIA Internetdienstleistungs GmbH [AT]">
<ellipse fill="#ffffff" stroke="black" cx="300.78" cy="-166" rx="44.393" ry="18"/>
<text text-anchor="middle" x="300.78" y="-162.3" font-family="Times,serif" font-size="14.00" fill="#2c94b3">AS47147</text>
</a>
</g>
</g>
<!-- AS15702&#45;&gt;AS47147 -->
<g id="edge3" class="edge"><title>AS15702&#45;&gt;AS47147</title>
<path fill="none" stroke="black" stroke-width="0.204545" d="M213.778,-189.188C226.243,-185.827 240.362,-182.02 253.503,-178.477"/>
<polygon fill="black" stroke="black" stroke-width="0.204545" points="254.574,-181.814 263.318,-175.831 252.752,-175.055 254.574,-181.814"/>
</g>
<!-- AS3257 -->
<g id="node5" class="node"><title>AS3257</title>
<g id="a_node5"><a xlink:href="/asn/3257" xlink:title="AS3257 ~ GTT [DE]">
<ellipse fill="#ffffff" stroke="black" cx="420.622" cy="-247" rx="39.7935" ry="18"/>
<text text-anchor="middle" x="420.622" y="-243.3" font-family="Times,serif" font-size="14.00" fill="#2c94b3">AS3257</text>
</a>
</g>
</g>
<!-- AS13237&#45;&gt;AS3257 -->
<g id="edge4" class="edge"><title>AS13237&#45;&gt;AS3257</title>
<path fill="none" stroke="black" stroke-width="4.5" d="M343.327,-237.936C352.573,-239.034 362.445,-240.207 371.917,-241.332"/>
<polygon fill="black" stroke="black" stroke-width="4.5" points="371.593,-245.259 381.988,-242.529 372.522,-237.439 371.593,-245.259"/>
</g>
<!-- AS2914 -->
<g id="node6" class="node"><title>AS2914</title>
<g id="a_node6"><a xlink:href="/asn/2914" xlink:title="AS2914 ~ NTT America, Inc. [US]">
<ellipse fill="#ffffff" stroke="black" cx="420.622" cy="-315" rx="39.7935" ry="18"/>
<text text-anchor="middle" x="420.622" y="-311.3" font-family="Times,serif" font-size="14.00" fill="#2c94b3">AS2914</text>
</a>
</g>
</g>
<!-- AS13237&#45;&gt;AS2914 -->
<g id="edge5" class="edge"><title>AS13237&#45;&gt;AS2914</title>
<path fill="none" stroke="black" stroke-width="3.375" d="M323.945,-248.424C342.496,-261.333 369.142,-279.874 389.605,-294.113"/>
<polygon fill="black" stroke="black" stroke-width="3.375" points="387.747,-297.084 397.955,-299.923 391.745,-291.338 387.747,-297.084"/>
</g>
<!-- AS6461 -->
<g id="node7" class="node"><title>AS6461</title>
<g id="a_node7"><a xlink:href="/asn/6461" xlink:title="AS6461 ~ Zayo Bandwidth [US]">
<ellipse fill="#ffffff" stroke="black" cx="420.622" cy="-193" rx="39.7935" ry="18"/>
<text text-anchor="middle" x="420.622" y="-189.3" font-family="Times,serif" font-size="14.00" fill="#2c94b3">AS6461</text>
</a>
</g>
</g>
<!-- AS13237&#45;&gt;AS6461 -->
<g id="edge6" class="edge"><title>AS13237&#45;&gt;AS6461</title>
<path fill="none" stroke="black" stroke-width="0.375" d="M335.233,-221.645C348.834,-217.028 364.676,-211.651 378.938,-206.81"/>
<polygon fill="black" stroke="black" stroke-width="0.375" points="380.167,-210.089 388.511,-203.56 377.917,-203.46 380.167,-210.089"/>
</g>
<!-- AS1299 -->
<g id="node18" class="node"><title>AS1299</title>
<g id="a_node18"><a xlink:href="/asn/1299" xlink:title="AS1299 ~ Telia Carrier [EU]">
<ellipse fill="#ffffff" stroke="black" cx="420.622" cy="-139" rx="39.7935" ry="18"/>
<text text-anchor="middle" x="420.622" y="-135.3" font-family="Times,serif" font-size="14.00" fill="#2c94b3">AS1299</text>
</a>
</g>
</g>
<!-- AS47147&#45;&gt;AS1299 -->
<g id="edge23" class="edge"><title>AS47147&#45;&gt;AS1299</title>
<path fill="none" stroke="black" d="M339.714,-157.308C350.955,-154.733 363.368,-151.889 374.991,-149.226"/>
<polygon fill="black" stroke="black" points="375.987,-152.588 384.953,-146.943 374.424,-145.765 375.987,-152.588"/>
</g>
<!-- AS7018 -->
<g id="node8" class="node"><title>AS7018</title>
<g id="a_node8"><a xlink:href="/asn/7018" xlink:title="AS7018 ~ AT&amp;T Services, Inc. [US]">
<ellipse fill="#ffffff" stroke="black" cx="540.465" cy="-18" rx="39.7935" ry="18"/>
<text text-anchor="middle" x="540.465" y="-14.3" font-family="Times,serif" font-size="14.00" fill="#2c94b3">AS7018</text>
</a>
</g>
</g>
<!-- AS3257&#45;&gt;AS7018 -->
<g id="edge7" class="edge"><title>AS3257&#45;&gt;AS7018</title>
<path fill="none" stroke="black" d="M447.002,-233.433C452.055,-229.687 456.85,-225.197 460.269,-220 503.914,-153.664 450.941,-110.198 496.269,-45 498.238,-42.1681 500.609,-39.5724 503.215,-37.2067"/>
<polygon fill="black" stroke="black" points="505.767,-39.6597 511.566,-30.7931 501.504,-34.1079 505.767,-39.6597"/>
</g>
<!-- AS3491 -->
<g id="node9" class="node"><title>AS3491</title>
<g id="a_node9"><a xlink:href="/asn/3491" xlink:title="AS3491 ~ PCCW Global, Inc. [US]">
<ellipse fill="#ffffff" stroke="black" cx="540.465" cy="-342" rx="39.7935" ry="18"/>
<text text-anchor="middle" x="540.465" y="-338.3" font-family="Times,serif" font-size="14.00" fill="#2c94b3">AS3491</text>
</a>
</g>
</g>
<!-- AS3257&#45;&gt;AS3491 -->
<g id="edge8" class="edge"><title>AS3257&#45;&gt;AS3491</title>
<path fill="none" stroke="black" d="M437.771,-263.296C452.407,-277.671 474.896,-298.795 496.269,-315 499.599,-317.525 503.171,-320.037 506.782,-322.456"/>
<polygon fill="black" stroke="black" points="504.888,-325.399 515.186,-327.892 508.69,-319.522 504.888,-325.399"/>
</g>
<!-- AS174 -->
<g id="node10" class="node"><title>AS174</title>
<g id="a_node10"><a xlink:href="/asn/174" xlink:title="AS174 ~ Cogent Communications [US]">
<ellipse fill="#ffffff" stroke="black" cx="540.465" cy="-288" rx="35.194" ry="18"/>
<text text-anchor="middle" x="540.465" y="-284.3" font-family="Times,serif" font-size="14.00" fill="#2c94b3">AS174</text>
</a>
</g>
</g>
<!-- AS3257&#45;&gt;AS174 -->
<g id="edge9" class="edge"><title>AS3257&#45;&gt;AS174</title>
<path fill="none" stroke="black" d="M452.584,-257.772C467.493,-262.959 485.51,-269.228 501.264,-274.709"/>
<polygon fill="black" stroke="black" points="500.137,-278.023 510.731,-278.003 502.437,-271.411 500.137,-278.023"/>
</g>
<!-- AS3356 -->
<g id="node11" class="node"><title>AS3356</title>
<g id="a_node11"><a xlink:href="/asn/3356" xlink:title="AS3356 ~ Level 3 Parent, LLC [US]">
<ellipse fill="#ffffff" stroke="black" cx="540.465" cy="-234" rx="39.7935" ry="18"/>
<text text-anchor="middle" x="540.465" y="-230.3" font-family="Times,serif" font-size="14.00" fill="#2c94b3">AS3356</text>
</a>
</g>
</g>
<!-- AS3257&#45;&gt;AS3356 -->
<g id="edge10" class="edge"><title>AS3257&#45;&gt;AS3356</title>
<path fill="none" stroke="black" stroke-width="3" d="M459.232,-242.851C469.543,-241.713 480.861,-240.465 491.661,-239.274"/>
<polygon fill="black" stroke="black" stroke-width="3" points="492.252,-242.73 501.808,-238.154 491.484,-235.772 492.252,-242.73"/>
</g>
<!-- AS1239 -->
<g id="node12" class="node"><title>AS1239</title>
<g id="a_node12"><a xlink:href="/asn/1239" xlink:title="AS1239 ~ Sprint [US]">
<ellipse fill="#ffffff" stroke="black" cx="540.465" cy="-180" rx="39.7935" ry="18"/>
<text text-anchor="middle" x="540.465" y="-176.3" font-family="Times,serif" font-size="14.00" fill="#2c94b3">AS1239</text>
</a>
</g>
</g>
<!-- AS3257&#45;&gt;AS1239 -->
<g id="edge11" class="edge"><title>AS3257&#45;&gt;AS1239</title>
<path fill="none" stroke="black" d="M446.039,-233.118C463.499,-223.191 487.199,-209.716 506.36,-198.822"/>
<polygon fill="black" stroke="black" points="508.116,-201.85 515.079,-193.865 504.656,-195.765 508.116,-201.85"/>
</g>
<!-- AS6762 -->
<g id="node13" class="node"><title>AS6762</title>
<g id="a_node13"><a xlink:href="/asn/6762" xlink:title="AS6762 ~ TELECOM ITALIA SPARKLE S.p.A. [IT]">
<ellipse fill="#ffffff" stroke="black" cx="540.465" cy="-450" rx="39.7935" ry="18"/>
<text text-anchor="middle" x="540.465" y="-446.3" font-family="Times,serif" font-size="14.00" fill="#2c94b3">AS6762</text>
</a>
</g>
</g>
<!-- AS3257&#45;&gt;AS6762 -->
<g id="edge12" class="edge"><title>AS3257&#45;&gt;AS6762</title>
<path fill="none" stroke="black" d="M440.283,-263.012C447.446,-270.032 455.128,-278.771 460.269,-288 490.487,-342.248 459.365,-373.059 496.269,-423 498.502,-426.023 501.185,-428.786 504.106,-431.293"/>
<polygon fill="black" stroke="black" points="502.132,-434.186 512.249,-437.331 506.301,-428.563 502.132,-434.186"/>
</g>
<!-- AS12956 -->
<g id="node14" class="node"><title>AS12956</title>
<g id="a_node14"><a xlink:href="/asn/12956" xlink:title="AS12956 ~ TELXIUS [ES]">
<ellipse fill="#ffffff" stroke="black" cx="540.465" cy="-126" rx="44.393" ry="18"/>
<text text-anchor="middle" x="540.465" y="-122.3" font-family="Times,serif" font-size="14.00" fill="#2c94b3">AS12956</text>
</a>
</g>
</g>
<!-- AS3257&#45;&gt;AS12956 -->
<g id="edge13" class="edge"><title>AS3257&#45;&gt;AS12956</title>
<path fill="none" stroke="black" d="M445.538,-232.91C450.78,-229.14 456.026,-224.77 460.269,-220 482.736,-194.743 473.162,-177.674 496.269,-153 498.638,-150.47 501.294,-148.083 504.093,-145.852"/>
<polygon fill="black" stroke="black" points="506.164,-148.674 512.244,-139.998 502.08,-142.989 506.164,-148.674"/>
</g>
<!-- AS2497 -->
<g id="node15" class="node"><title>AS2497</title>
<g id="a_node15"><a xlink:href="/asn/2497" xlink:title="AS2497 ~ Internet Initiative Japan Inc. [JP]">
<ellipse fill="#ffffff" stroke="black" cx="540.465" cy="-396" rx="39.7935" ry="18"/>
<text text-anchor="middle" x="540.465" y="-392.3" font-family="Times,serif" font-size="14.00" fill="#2c94b3">AS2497</text>
</a>
</g>
</g>
<!-- AS3257&#45;&gt;AS2497 -->
<g id="edge14" class="edge"><title>AS3257&#45;&gt;AS2497</title>
<path fill="none" stroke="black" d="M439.179,-263.054C446.335,-270.212 454.309,-279.041 460.269,-288 482.09,-320.8 470.435,-339.258 496.269,-369 498.733,-371.838 501.57,-374.477 504.588,-376.906"/>
<polygon fill="black" stroke="black" points="502.698,-379.858 512.866,-382.836 506.775,-374.167 502.698,-379.858"/>
</g>
<!-- AS6453 -->
<g id="node16" class="node"><title>AS6453</title>
<g id="a_node16"><a xlink:href="/asn/6453" xlink:title="AS6453 ~ TATA COMMUNICATIONS (AMERICA) INC [US]">
<ellipse fill="#ffffff" stroke="black" cx="540.465" cy="-72" rx="39.7935" ry="18"/>
<text text-anchor="middle" x="540.465" y="-68.3" font-family="Times,serif" font-size="14.00" fill="#2c94b3">AS6453</text>
</a>
</g>
</g>
<!-- AS3257&#45;&gt;AS6453 -->
<g id="edge15" class="edge"><title>AS3257&#45;&gt;AS6453</title>
<path fill="none" stroke="black" d="M446.674,-233.207C451.744,-229.473 456.629,-225.044 460.269,-220 493.101,-174.502 462.283,-143.644 496.269,-99 498.545,-96.0094 501.257,-93.2675 504.196,-90.7744"/>
<polygon fill="black" stroke="black" points="506.39,-93.5052 512.364,-84.7554 502.237,-87.8698 506.39,-93.5052"/>
</g>
<!-- AS2914&#45;&gt;AS3491 -->
<g id="edge21" class="edge"><title>AS2914&#45;&gt;AS3491</title>
<path fill="none" stroke="black" d="M456.342,-322.955C468.341,-325.704 481.962,-328.825 494.655,-331.733"/>
<polygon fill="black" stroke="black" points="494.057,-335.187 504.586,-334.009 495.621,-328.364 494.057,-335.187"/>
</g>
<!-- AS2914&#45;&gt;AS174 -->
<g id="edge17" class="edge"><title>AS2914&#45;&gt;AS174</title>
<path fill="none" stroke="black" d="M456.342,-307.045C469.434,-304.045 484.456,-300.604 498.097,-297.478"/>
<polygon fill="black" stroke="black" points="499.238,-300.807 508.204,-295.162 497.675,-293.984 499.238,-300.807"/>
</g>
<!-- AS2914&#45;&gt;AS3356 -->
<g id="edge19" class="edge"><title>AS2914&#45;&gt;AS3356</title>
<path fill="none" stroke="black" stroke-width="2" d="M441.953,-299.723C456.815,-288.696 477.559,-273.593 496.269,-261 499.818,-258.611 503.568,-256.161 507.317,-253.758"/>
<polygon fill="black" stroke="black" stroke-width="2" points="509.385,-256.591 515.965,-248.288 505.643,-250.675 509.385,-256.591"/>
</g>
<!-- AS2914&#45;&gt;AS1239 -->
<g id="edge22" class="edge"><title>AS2914&#45;&gt;AS1239</title>
<path fill="none" stroke="black" d="M438.856,-298.722C445.958,-291.527 453.978,-282.729 460.269,-274 480.032,-246.575 473.162,-231.674 496.269,-207 498.838,-204.257 501.745,-201.68 504.806,-199.29"/>
<polygon fill="black" stroke="black" points="506.986,-202.036 513.145,-193.415 502.954,-196.313 506.986,-202.036"/>
</g>
<!-- AS2914&#45;&gt;AS6762 -->
<g id="edge18" class="edge"><title>AS2914&#45;&gt;AS6762</title>
<path fill="none" stroke="black" d="M430.864,-332.713C443.409,-355.561 467.586,-395.611 496.269,-423 499.137,-425.739 502.326,-428.347 505.635,-430.785"/>
<polygon fill="black" stroke="black" points="503.758,-433.742 513.994,-436.477 507.698,-427.956 503.758,-433.742"/>
</g>
<!-- AS2914&#45;&gt;AS2497 -->
<g id="edge20" class="edge"><title>AS2914&#45;&gt;AS2497</title>
<path fill="none" stroke="black" d="M441.953,-330.277C456.815,-341.304 477.559,-356.407 496.269,-369 499.818,-371.389 503.568,-373.839 507.317,-376.242"/>
<polygon fill="black" stroke="black" points="505.643,-379.325 515.965,-381.712 509.385,-373.409 505.643,-379.325"/>
</g>
<!-- AS701 -->
<g id="node17" class="node"><title>AS701</title>
<g id="a_node17"><a xlink:href="/asn/701" xlink:title="AS701 ~ UUNET [US]">
<ellipse fill="#ffffff" stroke="black" cx="540.465" cy="-504" rx="35.194" ry="18"/>
<text text-anchor="middle" x="540.465" y="-500.3" font-family="Times,serif" font-size="14.00" fill="#2c94b3">AS701</text>
</a>
</g>
</g>
<!-- AS2914&#45;&gt;AS701 -->
<g id="edge16" class="edge"><title>AS2914&#45;&gt;AS701</title>
<path fill="none" stroke="black" d="M426.195,-332.946C435.101,-364.995 457.385,-432.842 496.269,-477 499.096,-480.211 502.397,-483.172 505.892,-485.864"/>
<polygon fill="black" stroke="black" points="504.049,-488.845 514.267,-491.645 508.026,-483.084 504.049,-488.845"/>
</g>
<!-- AS209 -->
<g id="node19" class="node"><title>AS209</title>
<g id="a_node19"><a xlink:href="/asn/209" xlink:title="AS209 ~ CenturyLink Communications, LLC [US]">
<ellipse fill="#ffffff" stroke="black" cx="660.307" cy="-261" rx="35.194" ry="18"/>
<text text-anchor="middle" x="660.307" y="-257.3" font-family="Times,serif" font-size="14.00" fill="#2c94b3">AS209</text>
</a>
</g>
</g>
<!-- AS3356&#45;&gt;AS209 -->
<g id="edge24" class="edge"><title>AS3356&#45;&gt;AS209</title>
<path fill="none" stroke="black" d="M576.184,-241.955C589.277,-244.955 604.299,-248.396 617.94,-251.522"/>
<polygon fill="black" stroke="black" points="617.518,-255.016 628.047,-253.838 619.081,-248.193 617.518,-255.016"/>
</g>
<!-- AS3549 -->
<g id="node20" class="node"><title>AS3549</title>
<g id="a_node20"><a xlink:href="/asn/3549" xlink:title="AS3549 ~ Level 3 Parent, LLC [US]">
<ellipse fill="#ffffff" stroke="black" cx="660.307" cy="-207" rx="39.7935" ry="18"/>
<text text-anchor="middle" x="660.307" y="-203.3" font-family="Times,serif" font-size="14.00" fill="#2c94b3">AS3549</text>
</a>
</g>
</g>
<!-- AS3356&#45;&gt;AS3549 -->
<g id="edge25" class="edge"><title>AS3356&#45;&gt;AS3549</title>
<path fill="none" stroke="black" stroke-width="2" d="M576.184,-226.045C588.184,-223.296 601.805,-220.175 614.498,-217.267"/>
<polygon fill="black" stroke="black" stroke-width="2" points="615.463,-220.636 624.429,-214.991 613.9,-213.813 615.463,-220.636"/>
</g>
</g>
</svg>
