<?xml version="1.0" encoding="UTF-8" standalone="no"?>
<!DOCTYPE svg PUBLIC "-//W3C//DTD SVG 1.1//EN"
 "http://www.w3.org/Graphics/SVG/1.1/DTD/svg11.dtd">
<!-- Generated by graphviz version 2.38.0 (20140413.2041)
 -->
<!-- Title: AS206876 IPv4 Upstream Graph Pages: 1 -->
<svg width="708pt" height="584pt"
 viewBox="0.00 0.00 707.95 584.00" xmlns="http://www.w3.org/2000/svg" xmlns:xlink="http://www.w3.org/1999/xlink">
<g id="graph0" class="graph" transform="scale(1 1) rotate(0) translate(4 580)">
<title>AS206876 IPv4 Upstream Graph</title>
<polygon fill="white" stroke="none" points="-4,4 -4,-580 703.954,-580 703.954,4 -4,4"/>
<!-- AS206876 -->
<g id="node1" class="node"><title>AS206876</title>
<g id="a_node1"><a xlink:href="/asn/206876" xlink:title="AS206876 ~ MeinSystem GmbH [AT]">
<ellipse fill="#ffffff" stroke="black" cx="48.0957" cy="-195" rx="48.1917" ry="18"/>
<text text-anchor="middle" x="48.0957" y="-191.3" font-family="Times,serif" font-size="14.00" fill="#880000">AS206876</text>
</a>
</g>
</g>
<!-- AS15702 -->
<g id="node2" class="node"><title>AS15702</title>
<g id="a_node2"><a xlink:href="/asn/15702" xlink:title="AS15702 ~ Onstage Online GmbH [AT]">
<ellipse fill="#ffffff" stroke="black" cx="176.388" cy="-195" rx="44.393" ry="18"/>
<text text-anchor="middle" x="176.388" y="-191.3" font-family="Times,serif" font-size="14.00" fill="#2c94b3">AS15702</text>
</a>
</g>
</g>
<!-- AS206876&#45;&gt;AS15702 -->
<g id="edge1" class="edge"><title>AS206876&#45;&gt;AS15702</title>
<path fill="none" stroke="black" stroke-width="4.5" d="M96.4815,-195C104.742,-195 113.386,-195 121.799,-195"/>
<polygon fill="black" stroke="black" stroke-width="4.5" points="121.904,-198.938 131.904,-195 121.904,-191.063 121.904,-198.938"/>
</g>
<!-- AS13237 -->
<g id="node3" class="node"><title>AS13237</title>
<g id="a_node3"><a xlink:href="/asn/13237" xlink:title="AS13237 ~ European Backbone of AS13237 [DE]">
<ellipse fill="#ffffff" stroke="black" cx="300.78" cy="-234" rx="44.393" ry="18"/>
<text text-anchor="middle" x="300.78" y="-230.3" font-family="Times,serif" font-size="14.00" fill="#2c94b3">AS13237</text>
</a>
</g>
</g>
<!-- AS15702&#45;&gt;AS13237 -->
<g id="edge2" class="edge"><title>AS15702&#45;&gt;AS13237</title>
<path fill="none" stroke="black" stroke-width="4.5" d="M211.806,-205.967C225.364,-210.288 241.106,-215.304 255.494,-219.888"/>
<polygon fill="black" stroke="black" stroke-width="4.5" points="254.472,-223.695 265.195,-222.98 256.863,-216.192 254.472,-223.695"/>
</g>
<!-- AS47147 -->
<g id="node4" class="node"><title>AS47147</title>
<g id="a_node4"><a xlink:href="/asn/47147" xlink:title="AS47147 ~ ANEXIA Internetdienstleistungs GmbH [AT]">
<ellipse fill="#ffffff" stroke="black" cx="300.78" cy="-157" rx="44.393" ry="18"/>
<text text-anchor="middle" x="300.78" y="-153.3" font-family="Times,serif" font-size="14.00" fill="#2c94b3">AS47147</text>
</a>
</g>
</g>
<!-- AS15702&#45;&gt;AS47147 -->
<g id="edge3" class="edge"><title>AS15702&#45;&gt;AS47147</title>
<path fill="none" stroke="black" stroke-width="0.173077" d="M212.133,-184.212C225.57,-180.041 241.113,-175.215 255.346,-170.796"/>
<polygon fill="black" stroke="black" stroke-width="0.173077" points="256.435,-174.122 264.948,-167.815 254.359,-167.437 256.435,-174.122"/>
</g>
<!-- AS2914 -->
<g id="node5" class="node"><title>AS2914</title>
<g id="a_node5"><a xlink:href="/asn/2914" xlink:title="AS2914 ~ NTT America, Inc. [US]">
<ellipse fill="#ffffff" stroke="black" cx="420.622" cy="-180" rx="39.7935" ry="18"/>
<text text-anchor="middle" x="420.622" y="-176.3" font-family="Times,serif" font-size="14.00" fill="#2c94b3">AS2914</text>
</a>
</g>
</g>
<!-- AS13237&#45;&gt;AS2914 -->
<g id="edge4" class="edge"><title>AS13237&#45;&gt;AS2914</title>
<path fill="none" stroke="black" stroke-width="3.80769" d="M330.909,-220.652C346.521,-213.498 365.918,-204.609 382.59,-196.97"/>
<polygon fill="black" stroke="black" stroke-width="3.80769" points="384.409,-199.986 392.042,-192.638 381.493,-193.622 384.409,-199.986"/>
</g>
<!-- AS3257 -->
<g id="node6" class="node"><title>AS3257</title>
<g id="a_node6"><a xlink:href="/asn/3257" xlink:title="AS3257 ~ GTT [DE]">
<ellipse fill="#ffffff" stroke="black" cx="420.622" cy="-342" rx="39.7935" ry="18"/>
<text text-anchor="middle" x="420.622" y="-338.3" font-family="Times,serif" font-size="14.00" fill="#2c94b3">AS3257</text>
</a>
</g>
</g>
<!-- AS13237&#45;&gt;AS3257 -->
<g id="edge5" class="edge"><title>AS13237&#45;&gt;AS3257</title>
<path fill="none" stroke="black" stroke-width="4.5" d="M316.712,-251.044C332.038,-268.097 356.974,-294.65 380.976,-315 383.473,-317.117 386.133,-319.232 388.845,-321.293"/>
<polygon fill="black" stroke="black" stroke-width="4.5" points="386.623,-324.547 397.021,-327.266 391.269,-318.188 386.623,-324.547"/>
</g>
<!-- AS6461 -->
<g id="node7" class="node"><title>AS6461</title>
<g id="a_node7"><a xlink:href="/asn/6461" xlink:title="AS6461 ~ Zayo Bandwidth [US]">
<ellipse fill="#ffffff" stroke="black" cx="420.622" cy="-288" rx="39.7935" ry="18"/>
<text text-anchor="middle" x="420.622" y="-284.3" font-family="Times,serif" font-size="14.00" fill="#2c94b3">AS6461</text>
</a>
</g>
</g>
<!-- AS13237&#45;&gt;AS6461 -->
<g id="edge6" class="edge"><title>AS13237&#45;&gt;AS6461</title>
<path fill="none" stroke="black" stroke-width="0.346154" d="M330.909,-247.348C346.521,-254.502 365.918,-263.391 382.59,-271.03"/>
<polygon fill="black" stroke="black" stroke-width="0.346154" points="381.493,-274.378 392.042,-275.362 384.409,-268.014 381.493,-274.378"/>
</g>
<!-- AS3320 -->
<g id="node8" class="node"><title>AS3320</title>
<g id="a_node8"><a xlink:href="/asn/3320" xlink:title="AS3320 ~ DTAG [DE]">
<ellipse fill="#ffffff" stroke="black" cx="420.622" cy="-234" rx="39.7935" ry="18"/>
<text text-anchor="middle" x="420.622" y="-230.3" font-family="Times,serif" font-size="14.00" fill="#2c94b3">AS3320</text>
</a>
</g>
</g>
<!-- AS13237&#45;&gt;AS3320 -->
<g id="edge7" class="edge"><title>AS13237&#45;&gt;AS3320</title>
<path fill="none" stroke="black" stroke-width="0.346154" d="M344.991,-234C353.303,-234 362.066,-234 370.548,-234"/>
<polygon fill="black" stroke="black" stroke-width="0.346154" points="370.707,-237.5 380.707,-234 370.707,-230.5 370.707,-237.5"/>
</g>
<!-- AS1299 -->
<g id="node16" class="node"><title>AS1299</title>
<g id="a_node16"><a xlink:href="/asn/1299" xlink:title="AS1299 ~ Telia Carrier [EU]">
<ellipse fill="#ffffff" stroke="black" cx="540.465" cy="-18" rx="39.7935" ry="18"/>
<text text-anchor="middle" x="540.465" y="-14.3" font-family="Times,serif" font-size="14.00" fill="#2c94b3">AS1299</text>
</a>
</g>
</g>
<!-- AS47147&#45;&gt;AS1299 -->
<g id="edge29" class="edge"><title>AS47147&#45;&gt;AS1299</title>
<path fill="none" stroke="black" d="M326.767,-142.387C369.988,-117.111 458.682,-65.2425 506.754,-37.1295"/>
<polygon fill="black" stroke="black" points="508.654,-40.073 515.519,-32.0034 505.12,-34.0304 508.654,-40.073"/>
</g>
<!-- AS701 -->
<g id="node9" class="node"><title>AS701</title>
<g id="a_node9"><a xlink:href="/asn/701" xlink:title="AS701 ~ UUNET [US]">
<ellipse fill="#ffffff" stroke="black" cx="540.465" cy="-72" rx="35.194" ry="18"/>
<text text-anchor="middle" x="540.465" y="-68.3" font-family="Times,serif" font-size="14.00" fill="#2c94b3">AS701</text>
</a>
</g>
</g>
<!-- AS2914&#45;&gt;AS701 -->
<g id="edge8" class="edge"><title>AS2914&#45;&gt;AS701</title>
<path fill="none" stroke="black" d="M435.041,-162.935C449.156,-145.625 472.571,-118.655 496.269,-99 499.732,-96.1277 503.524,-93.3306 507.379,-90.6924"/>
<polygon fill="black" stroke="black" points="509.34,-93.5919 515.812,-85.203 505.521,-87.7254 509.34,-93.5919"/>
</g>
<!-- AS3356 -->
<g id="node10" class="node"><title>AS3356</title>
<g id="a_node10"><a xlink:href="/asn/3356" xlink:title="AS3356 ~ Level 3 Parent, LLC [US]">
<ellipse fill="#ffffff" stroke="black" cx="540.465" cy="-342" rx="39.7935" ry="18"/>
<text text-anchor="middle" x="540.465" y="-338.3" font-family="Times,serif" font-size="14.00" fill="#2c94b3">AS3356</text>
</a>
</g>
</g>
<!-- AS2914&#45;&gt;AS3356 -->
<g id="edge9" class="edge"><title>AS2914&#45;&gt;AS3356</title>
<path fill="none" stroke="black" stroke-width="2" d="M446.553,-193.882C451.629,-197.611 456.547,-202.016 460.269,-207 490.54,-247.542 464.97,-275.246 496.269,-315 498.594,-317.953 501.337,-320.67 504.296,-323.147"/>
<polygon fill="black" stroke="black" stroke-width="2" points="502.356,-326.064 512.493,-329.145 506.489,-320.415 502.356,-326.064"/>
</g>
<!-- AS174 -->
<g id="node11" class="node"><title>AS174</title>
<g id="a_node11"><a xlink:href="/asn/174" xlink:title="AS174 ~ Cogent Communications [US]">
<ellipse fill="#ffffff" stroke="black" cx="540.465" cy="-288" rx="35.194" ry="18"/>
<text text-anchor="middle" x="540.465" y="-284.3" font-family="Times,serif" font-size="14.00" fill="#2c94b3">AS174</text>
</a>
</g>
</g>
<!-- AS2914&#45;&gt;AS174 -->
<g id="edge10" class="edge"><title>AS2914&#45;&gt;AS174</title>
<path fill="none" stroke="black" d="M445.216,-194.389C450.472,-198.148 455.804,-202.437 460.269,-207 480.441,-227.617 475.575,-240.906 496.269,-261 499.497,-264.134 503.147,-267.089 506.926,-269.812"/>
<polygon fill="black" stroke="black" points="505.023,-272.75 515.286,-275.383 508.905,-266.925 505.023,-272.75"/>
</g>
<!-- AS2497 -->
<g id="node12" class="node"><title>AS2497</title>
<g id="a_node12"><a xlink:href="/asn/2497" xlink:title="AS2497 ~ Internet Initiative Japan Inc. [JP]">
<ellipse fill="#ffffff" stroke="black" cx="540.465" cy="-234" rx="39.7935" ry="18"/>
<text text-anchor="middle" x="540.465" y="-230.3" font-family="Times,serif" font-size="14.00" fill="#2c94b3">AS2497</text>
</a>
</g>
</g>
<!-- AS2914&#45;&gt;AS2497 -->
<g id="edge11" class="edge"><title>AS2914&#45;&gt;AS2497</title>
<path fill="none" stroke="black" d="M449.251,-192.661C465.208,-199.973 485.479,-209.261 502.761,-217.181"/>
<polygon fill="black" stroke="black" points="501.46,-220.435 512.009,-221.419 504.376,-214.071 501.46,-220.435"/>
</g>
<!-- AS6762 -->
<g id="node13" class="node"><title>AS6762</title>
<g id="a_node13"><a xlink:href="/asn/6762" xlink:title="AS6762 ~ TELECOM ITALIA SPARKLE S.p.A. [IT]">
<ellipse fill="#ffffff" stroke="black" cx="540.465" cy="-180" rx="39.7935" ry="18"/>
<text text-anchor="middle" x="540.465" y="-176.3" font-family="Times,serif" font-size="14.00" fill="#2c94b3">AS6762</text>
</a>
</g>
</g>
<!-- AS2914&#45;&gt;AS6762 -->
<g id="edge12" class="edge"><title>AS2914&#45;&gt;AS6762</title>
<path fill="none" stroke="black" d="M460.535,-180C470.088,-180 480.438,-180 490.401,-180"/>
<polygon fill="black" stroke="black" points="490.593,-183.5 500.593,-180 490.593,-176.5 490.593,-183.5"/>
</g>
<!-- AS1239 -->
<g id="node14" class="node"><title>AS1239</title>
<g id="a_node14"><a xlink:href="/asn/1239" xlink:title="AS1239 ~ Sprint [US]">
<ellipse fill="#ffffff" stroke="black" cx="540.465" cy="-126" rx="39.7935" ry="18"/>
<text text-anchor="middle" x="540.465" y="-122.3" font-family="Times,serif" font-size="14.00" fill="#2c94b3">AS1239</text>
</a>
</g>
</g>
<!-- AS2914&#45;&gt;AS1239 -->
<g id="edge13" class="edge"><title>AS2914&#45;&gt;AS1239</title>
<path fill="none" stroke="black" d="M449.251,-167.339C465.208,-160.027 485.479,-150.739 502.761,-142.819"/>
<polygon fill="black" stroke="black" points="504.376,-145.929 512.009,-138.581 501.46,-139.565 504.376,-145.929"/>
</g>
<!-- AS3491 -->
<g id="node15" class="node"><title>AS3491</title>
<g id="a_node15"><a xlink:href="/asn/3491" xlink:title="AS3491 ~ PCCW Global, Inc. [US]">
<ellipse fill="#ffffff" stroke="black" cx="540.465" cy="-450" rx="39.7935" ry="18"/>
<text text-anchor="middle" x="540.465" y="-446.3" font-family="Times,serif" font-size="14.00" fill="#2c94b3">AS3491</text>
</a>
</g>
</g>
<!-- AS2914&#45;&gt;AS3491 -->
<g id="edge14" class="edge"><title>AS2914&#45;&gt;AS3491</title>
<path fill="none" stroke="black" d="M447.148,-193.472C452.193,-197.223 456.948,-201.74 460.269,-207 512.219,-289.3 442.23,-342.056 496.269,-423 498.184,-425.869 500.518,-428.49 503.099,-430.872"/>
<polygon fill="black" stroke="black" points="501.362,-433.954 511.41,-437.313 505.65,-428.421 501.362,-433.954"/>
</g>
<!-- AS2914&#45;&gt;AS1299 -->
<g id="edge15" class="edge"><title>AS2914&#45;&gt;AS1299</title>
<path fill="none" stroke="black" d="M428.145,-162.006C438.896,-134.272 462.553,-80.5711 496.269,-45 498.854,-42.2721 501.772,-39.7057 504.84,-37.3226"/>
<polygon fill="black" stroke="black" points="507.019,-40.0695 513.189,-31.4566 502.994,-34.342 507.019,-40.0695"/>
</g>
<!-- AS12956 -->
<g id="node17" class="node"><title>AS12956</title>
<g id="a_node17"><a xlink:href="/asn/12956" xlink:title="AS12956 ~ TELXIUS [ES]">
<ellipse fill="#ffffff" stroke="black" cx="540.465" cy="-396" rx="44.393" ry="18"/>
<text text-anchor="middle" x="540.465" y="-392.3" font-family="Times,serif" font-size="14.00" fill="#2c94b3">AS12956</text>
</a>
</g>
</g>
<!-- AS2914&#45;&gt;AS12956 -->
<g id="edge16" class="edge"><title>AS2914&#45;&gt;AS12956</title>
<path fill="none" stroke="black" d="M446.941,-193.607C451.997,-197.351 456.809,-201.831 460.269,-207 501.293,-268.294 453.69,-308.775 496.269,-369 498.158,-371.672 500.403,-374.135 502.862,-376.395"/>
<polygon fill="black" stroke="black" points="500.709,-379.154 510.739,-382.567 505.026,-373.644 500.709,-379.154"/>
</g>
<!-- AS3257&#45;&gt;AS3356 -->
<g id="edge19" class="edge"><title>AS3257&#45;&gt;AS3356</title>
<path fill="none" stroke="black" stroke-width="3" d="M460.535,-342C470.088,-342 480.438,-342 490.401,-342"/>
<polygon fill="black" stroke="black" stroke-width="3" points="490.593,-345.5 500.593,-342 490.593,-338.5 490.593,-345.5"/>
</g>
<!-- AS3257&#45;&gt;AS174 -->
<g id="edge24" class="edge"><title>AS3257&#45;&gt;AS174</title>
<path fill="none" stroke="black" d="M449.251,-329.339C465.667,-321.817 486.649,-312.202 504.246,-304.139"/>
<polygon fill="black" stroke="black" points="505.99,-307.189 513.623,-299.842 503.074,-300.826 505.99,-307.189"/>
</g>
<!-- AS3257&#45;&gt;AS2497 -->
<g id="edge18" class="edge"><title>AS3257&#45;&gt;AS2497</title>
<path fill="none" stroke="black" d="M445.216,-327.611C450.472,-323.852 455.804,-319.563 460.269,-315 480.441,-294.383 475.575,-281.094 496.269,-261 499.114,-258.237 502.288,-255.614 505.588,-253.166"/>
<polygon fill="black" stroke="black" points="507.653,-255.994 513.936,-247.462 503.704,-250.214 507.653,-255.994"/>
</g>
<!-- AS3257&#45;&gt;AS6762 -->
<g id="edge23" class="edge"><title>AS3257&#45;&gt;AS6762</title>
<path fill="none" stroke="black" d="M446.553,-328.118C451.629,-324.389 456.547,-319.984 460.269,-315 490.54,-274.458 464.97,-246.754 496.269,-207 498.594,-204.047 501.337,-201.33 504.296,-198.853"/>
<polygon fill="black" stroke="black" points="506.489,-201.585 512.493,-192.855 502.356,-195.936 506.489,-201.585"/>
</g>
<!-- AS3257&#45;&gt;AS1239 -->
<g id="edge26" class="edge"><title>AS3257&#45;&gt;AS1239</title>
<path fill="none" stroke="black" d="M446.941,-328.393C451.997,-324.649 456.809,-320.169 460.269,-315 501.293,-253.706 453.69,-213.225 496.269,-153 498.26,-150.184 500.647,-147.599 503.263,-145.24"/>
<polygon fill="black" stroke="black" points="505.815,-147.694 511.631,-138.838 501.562,-142.135 505.815,-147.694"/>
</g>
<!-- AS3257&#45;&gt;AS3491 -->
<g id="edge22" class="edge"><title>AS3257&#45;&gt;AS3491</title>
<path fill="none" stroke="black" d="M435.041,-359.065C449.156,-376.375 472.571,-403.345 496.269,-423 499.485,-425.668 502.986,-428.27 506.556,-430.741"/>
<polygon fill="black" stroke="black" points="504.634,-433.666 514.912,-436.236 508.48,-427.817 504.634,-433.666"/>
</g>
<!-- AS3257&#45;&gt;AS1299 -->
<g id="edge21" class="edge"><title>AS3257&#45;&gt;AS1299</title>
<path fill="none" stroke="black" d="M447.276,-328.607C452.315,-324.852 457.035,-320.314 460.269,-315 523.212,-211.588 430.7,-146.768 496.269,-45 498.137,-42.1006 500.438,-39.458 502.998,-37.0612"/>
<polygon fill="black" stroke="black" points="505.547,-39.511 511.274,-30.5974 501.239,-33.9941 505.547,-39.511"/>
</g>
<!-- AS3257&#45;&gt;AS12956 -->
<g id="edge25" class="edge"><title>AS3257&#45;&gt;AS12956</title>
<path fill="none" stroke="black" d="M449.251,-354.661C464.749,-361.762 484.316,-370.728 501.262,-378.494"/>
<polygon fill="black" stroke="black" points="499.816,-381.681 510.365,-382.665 502.732,-375.317 499.816,-381.681"/>
</g>
<!-- AS7018 -->
<g id="node18" class="node"><title>AS7018</title>
<g id="a_node18"><a xlink:href="/asn/7018" xlink:title="AS7018 ~ AT&amp;T Services, Inc. [US]">
<ellipse fill="#ffffff" stroke="black" cx="540.465" cy="-558" rx="39.7935" ry="18"/>
<text text-anchor="middle" x="540.465" y="-554.3" font-family="Times,serif" font-size="14.00" fill="#2c94b3">AS7018</text>
</a>
</g>
</g>
<!-- AS3257&#45;&gt;AS7018 -->
<g id="edge17" class="edge"><title>AS3257&#45;&gt;AS7018</title>
<path fill="none" stroke="black" d="M424.821,-360.073C431.984,-396.141 452.259,-478.125 496.269,-531 498.673,-533.889 501.47,-536.563 504.462,-539.013"/>
<polygon fill="black" stroke="black" points="502.551,-541.95 512.705,-544.973 506.652,-536.277 502.551,-541.95"/>
</g>
<!-- AS6453 -->
<g id="node19" class="node"><title>AS6453</title>
<g id="a_node19"><a xlink:href="/asn/6453" xlink:title="AS6453 ~ TATA COMMUNICATIONS (AMERICA) INC [US]">
<ellipse fill="#ffffff" stroke="black" cx="540.465" cy="-504" rx="39.7935" ry="18"/>
<text text-anchor="middle" x="540.465" y="-500.3" font-family="Times,serif" font-size="14.00" fill="#2c94b3">AS6453</text>
</a>
</g>
</g>
<!-- AS3257&#45;&gt;AS6453 -->
<g id="edge20" class="edge"><title>AS3257&#45;&gt;AS6453</title>
<path fill="none" stroke="black" d="M428.145,-359.994C438.896,-387.728 462.553,-441.429 496.269,-477 498.854,-479.728 501.772,-482.294 504.84,-484.677"/>
<polygon fill="black" stroke="black" points="502.994,-487.658 513.189,-490.543 507.019,-481.93 502.994,-487.658"/>
</g>
<!-- AS3549 -->
<g id="node20" class="node"><title>AS3549</title>
<g id="a_node20"><a xlink:href="/asn/3549" xlink:title="AS3549 ~ Level 3 Parent, LLC [US]">
<ellipse fill="#ffffff" stroke="black" cx="660.307" cy="-369" rx="39.7935" ry="18"/>
<text text-anchor="middle" x="660.307" y="-365.3" font-family="Times,serif" font-size="14.00" fill="#2c94b3">AS3549</text>
</a>
</g>
</g>
<!-- AS3356&#45;&gt;AS3549 -->
<g id="edge27" class="edge"><title>AS3356&#45;&gt;AS3549</title>
<path fill="none" stroke="black" stroke-width="2" d="M576.184,-349.955C588.184,-352.704 601.805,-355.825 614.498,-358.733"/>
<polygon fill="black" stroke="black" stroke-width="2" points="613.9,-362.187 624.429,-361.009 615.463,-355.364 613.9,-362.187"/>
</g>
<!-- AS209 -->
<g id="node21" class="node"><title>AS209</title>
<g id="a_node21"><a xlink:href="/asn/209" xlink:title="AS209 ~ CenturyLink Communications, LLC [US]">
<ellipse fill="#ffffff" stroke="black" cx="660.307" cy="-315" rx="35.194" ry="18"/>
<text text-anchor="middle" x="660.307" y="-311.3" font-family="Times,serif" font-size="14.00" fill="#2c94b3">AS209</text>
</a>
</g>
</g>
<!-- AS3356&#45;&gt;AS209 -->
<g id="edge28" class="edge"><title>AS3356&#45;&gt;AS209</title>
<path fill="none" stroke="black" d="M576.184,-334.045C589.277,-331.045 604.299,-327.604 617.94,-324.478"/>
<polygon fill="black" stroke="black" points="619.081,-327.807 628.047,-322.162 617.518,-320.984 619.081,-327.807"/>
</g>
</g>
</svg>
