<?xml version="1.0" encoding="UTF-8" standalone="no"?>
<!DOCTYPE svg PUBLIC "-//W3C//DTD SVG 1.1//EN"
 "http://www.w3.org/Graphics/SVG/1.1/DTD/svg11.dtd">
<!-- Generated by graphviz version 2.38.0 (20140413.2041)
 -->
<!-- Title: AS35369 IPv6 Upstream Graph Pages: 1 -->
<svg width="433pt" height="422pt"
 viewBox="0.00 0.00 433.17 422.00" xmlns="http://www.w3.org/2000/svg" xmlns:xlink="http://www.w3.org/1999/xlink">
<g id="graph0" class="graph" transform="scale(1 1) rotate(0) translate(4 418)">
<title>AS35369 IPv6 Upstream Graph</title>
<polygon fill="white" stroke="none" points="-4,4 -4,-418 429.172,-418 429.172,4 -4,4"/>
<!-- AS35369 -->
<g id="node1" class="node"><title>AS35369</title>
<g id="a_node1"><a xlink:href="/asn/35369" xlink:title="AS35369 ~ LINZAG&#45;TELEKOM&#45;AS [AT]">
<ellipse fill="#ffffff" stroke="black" cx="44.1961" cy="-180" rx="44.393" ry="18"/>
<text text-anchor="middle" x="44.1961" y="-176.3" font-family="Times,serif" font-size="14.00" fill="#880000">AS35369</text>
</a>
</g>
</g>
<!-- AS1764 -->
<g id="node2" class="node"><title>AS1764</title>
<g id="a_node2"><a xlink:href="/asn/1764" xlink:title="AS1764 ~ NEXTLAYER&#45;AS [AT]">
<ellipse fill="#ffffff" stroke="black" cx="164.039" cy="-342" rx="39.7935" ry="18"/>
<text text-anchor="middle" x="164.039" y="-338.3" font-family="Times,serif" font-size="14.00" fill="#2c94b3">AS1764</text>
</a>
</g>
</g>
<!-- AS35369&#45;&gt;AS1764 -->
<g id="edge1" class="edge"><title>AS35369&#45;&gt;AS1764</title>
<path fill="none" stroke="black" stroke-width="2.25" d="M57.8073,-197.337C78.6281,-225.96 120.29,-283.233 144.479,-316.486"/>
<polygon fill="black" stroke="black" stroke-width="2.25" points="141.805,-318.76 150.518,-324.788 147.466,-314.642 141.805,-318.76"/>
</g>
<!-- AS2914 -->
<g id="node3" class="node"><title>AS2914</title>
<g id="a_node3"><a xlink:href="/asn/2914" xlink:title="AS2914 ~ NTT America, Inc. [US]">
<ellipse fill="#ffffff" stroke="black" cx="164.039" cy="-180" rx="39.7935" ry="18"/>
<text text-anchor="middle" x="164.039" y="-176.3" font-family="Times,serif" font-size="14.00" fill="#2c94b3">AS2914</text>
</a>
</g>
</g>
<!-- AS35369&#45;&gt;AS2914 -->
<g id="edge2" class="edge"><title>AS35369&#45;&gt;AS2914</title>
<path fill="none" stroke="black" stroke-width="4.5" d="M88.4072,-180C96.7198,-180 105.482,-180 113.965,-180"/>
<polygon fill="black" stroke="black" stroke-width="4.5" points="114.123,-183.938 124.123,-180 114.123,-176.063 114.123,-183.938"/>
</g>
<!-- AS8218 -->
<g id="node4" class="node"><title>AS8218</title>
<g id="a_node4"><a xlink:href="/asn/8218" xlink:title="AS8218 ~ legacy Neotelecoms [FR]">
<ellipse fill="#ffffff" stroke="black" cx="164.039" cy="-72" rx="39.7935" ry="18"/>
<text text-anchor="middle" x="164.039" y="-68.3" font-family="Times,serif" font-size="14.00" fill="#2c94b3">AS8218</text>
</a>
</g>
</g>
<!-- AS35369&#45;&gt;AS8218 -->
<g id="edge3" class="edge"><title>AS35369&#45;&gt;AS8218</title>
<path fill="none" stroke="black" stroke-width="0.75" d="M63.0938,-163.597C83.0221,-145.333 115.38,-115.678 137.857,-95.0786"/>
<polygon fill="black" stroke="black" stroke-width="0.75" points="140.351,-97.5402 145.359,-88.2034 135.622,-92.3796 140.351,-97.5402"/>
</g>
<!-- AS174 -->
<g id="node5" class="node"><title>AS174</title>
<g id="a_node5"><a xlink:href="/asn/174" xlink:title="AS174 ~ Cogent Communications [US]">
<ellipse fill="#ffffff" stroke="black" cx="279.332" cy="-396" rx="35.194" ry="18"/>
<text text-anchor="middle" x="279.332" y="-392.3" font-family="Times,serif" font-size="14.00" fill="#2c94b3">AS174</text>
</a>
</g>
</g>
<!-- AS1764&#45;&gt;AS174 -->
<g id="edge4" class="edge"><title>AS1764&#45;&gt;AS174</title>
<path fill="none" stroke="black" stroke-width="2" d="M192.175,-354.934C207.607,-362.29 227.092,-371.577 243.628,-379.459"/>
<polygon fill="black" stroke="black" stroke-width="2" points="242.436,-382.768 252.969,-383.911 245.448,-376.449 242.436,-382.768"/>
</g>
<!-- AS1299 -->
<g id="node6" class="node"><title>AS1299</title>
<g id="a_node6"><a xlink:href="/asn/1299" xlink:title="AS1299 ~ Telia Carrier [EU]">
<ellipse fill="#ffffff" stroke="black" cx="279.332" cy="-342" rx="39.7935" ry="18"/>
<text text-anchor="middle" x="279.332" y="-338.3" font-family="Times,serif" font-size="14.00" fill="#2c94b3">AS1299</text>
</a>
</g>
</g>
<!-- AS1764&#45;&gt;AS1299 -->
<g id="edge5" class="edge"><title>AS1764&#45;&gt;AS1299</title>
<path fill="none" stroke="black" d="M203.711,-342C211.914,-342 220.678,-342 229.21,-342"/>
<polygon fill="black" stroke="black" points="229.449,-345.5 239.449,-342 229.449,-338.5 229.449,-345.5"/>
</g>
<!-- AS3491 -->
<g id="node8" class="node"><title>AS3491</title>
<g id="a_node8"><a xlink:href="/asn/3491" xlink:title="AS3491 ~ PCCW Global, Inc. [US]">
<ellipse fill="#ffffff" stroke="black" cx="279.332" cy="-288" rx="39.7935" ry="18"/>
<text text-anchor="middle" x="279.332" y="-284.3" font-family="Times,serif" font-size="14.00" fill="#2c94b3">AS3491</text>
</a>
</g>
</g>
<!-- AS2914&#45;&gt;AS3491 -->
<g id="edge8" class="edge"><title>AS2914&#45;&gt;AS3491</title>
<path fill="none" stroke="black" d="M178.669,-196.817C192.951,-213.929 216.498,-240.745 239.685,-261 242.151,-263.154 244.789,-265.294 247.487,-267.372"/>
<polygon fill="black" stroke="black" points="245.512,-270.264 255.641,-273.37 249.66,-264.625 245.512,-270.264"/>
</g>
<!-- AS7018 -->
<g id="node9" class="node"><title>AS7018</title>
<g id="a_node9"><a xlink:href="/asn/7018" xlink:title="AS7018 ~ AT&amp;T Services, Inc. [US]">
<ellipse fill="#ffffff" stroke="black" cx="279.332" cy="-234" rx="39.7935" ry="18"/>
<text text-anchor="middle" x="279.332" y="-230.3" font-family="Times,serif" font-size="14.00" fill="#2c94b3">AS7018</text>
</a>
</g>
</g>
<!-- AS2914&#45;&gt;AS7018 -->
<g id="edge9" class="edge"><title>AS2914&#45;&gt;AS7018</title>
<path fill="none" stroke="black" d="M192.175,-192.934C207.169,-200.081 225.99,-209.052 242.213,-216.785"/>
<polygon fill="black" stroke="black" points="240.884,-220.028 251.417,-221.171 243.895,-213.709 240.884,-220.028"/>
</g>
<!-- AS2497 -->
<g id="node10" class="node"><title>AS2497</title>
<g id="a_node10"><a xlink:href="/asn/2497" xlink:title="AS2497 ~ Internet Initiative Japan Inc. [JP]">
<ellipse fill="#ffffff" stroke="black" cx="279.332" cy="-180" rx="39.7935" ry="18"/>
<text text-anchor="middle" x="279.332" y="-176.3" font-family="Times,serif" font-size="14.00" fill="#2c94b3">AS2497</text>
</a>
</g>
</g>
<!-- AS2914&#45;&gt;AS2497 -->
<g id="edge10" class="edge"><title>AS2914&#45;&gt;AS2497</title>
<path fill="none" stroke="black" d="M203.711,-180C211.914,-180 220.678,-180 229.21,-180"/>
<polygon fill="black" stroke="black" points="229.449,-183.5 239.449,-180 229.449,-176.5 229.449,-183.5"/>
</g>
<!-- AS701 -->
<g id="node11" class="node"><title>AS701</title>
<g id="a_node11"><a xlink:href="/asn/701" xlink:title="AS701 ~ UUNET [US]">
<ellipse fill="#ffffff" stroke="black" cx="279.332" cy="-126" rx="35.194" ry="18"/>
<text text-anchor="middle" x="279.332" y="-122.3" font-family="Times,serif" font-size="14.00" fill="#2c94b3">AS701</text>
</a>
</g>
</g>
<!-- AS2914&#45;&gt;AS701 -->
<g id="edge11" class="edge"><title>AS2914&#45;&gt;AS701</title>
<path fill="none" stroke="black" d="M192.175,-167.066C207.607,-159.71 227.092,-150.423 243.628,-142.541"/>
<polygon fill="black" stroke="black" points="245.448,-145.551 252.969,-138.089 242.436,-139.232 245.448,-145.551"/>
</g>
<!-- AS6762 -->
<g id="node12" class="node"><title>AS6762</title>
<g id="a_node12"><a xlink:href="/asn/6762" xlink:title="AS6762 ~ TELECOM ITALIA SPARKLE S.p.A. [IT]">
<ellipse fill="#ffffff" stroke="black" cx="279.332" cy="-72" rx="39.7935" ry="18"/>
<text text-anchor="middle" x="279.332" y="-68.3" font-family="Times,serif" font-size="14.00" fill="#2c94b3">AS6762</text>
</a>
</g>
</g>
<!-- AS2914&#45;&gt;AS6762 -->
<g id="edge12" class="edge"><title>AS2914&#45;&gt;AS6762</title>
<path fill="none" stroke="black" d="M178.669,-163.183C192.951,-146.071 216.498,-119.255 239.685,-99 242.151,-96.8462 244.789,-94.7062 247.487,-92.6284"/>
<polygon fill="black" stroke="black" points="249.66,-95.3749 255.641,-86.6297 245.512,-89.7363 249.66,-95.3749"/>
</g>
<!-- AS6461 -->
<g id="node13" class="node"><title>AS6461</title>
<g id="a_node13"><a xlink:href="/asn/6461" xlink:title="AS6461 ~ Zayo Bandwidth [US]">
<ellipse fill="#ffffff" stroke="black" cx="279.332" cy="-18" rx="39.7935" ry="18"/>
<text text-anchor="middle" x="279.332" y="-14.3" font-family="Times,serif" font-size="14.00" fill="#2c94b3">AS6461</text>
</a>
</g>
</g>
<!-- AS8218&#45;&gt;AS6461 -->
<g id="edge13" class="edge"><title>AS8218&#45;&gt;AS6461</title>
<path fill="none" stroke="black" d="M192.175,-59.0657C207.169,-51.9189 225.99,-42.9481 242.213,-35.2154"/>
<polygon fill="black" stroke="black" points="243.895,-38.291 251.417,-30.8288 240.884,-31.972 243.895,-38.291"/>
</g>
<!-- AS209 -->
<g id="node7" class="node"><title>AS209</title>
<g id="a_node7"><a xlink:href="/asn/209" xlink:title="AS209 ~ CenturyLink Communications, LLC [US]">
<ellipse fill="#ffffff" stroke="black" cx="390.075" cy="-369" rx="35.194" ry="18"/>
<text text-anchor="middle" x="390.075" y="-365.3" font-family="Times,serif" font-size="14.00" fill="#2c94b3">AS209</text>
</a>
</g>
</g>
<!-- AS174&#45;&gt;AS209 -->
<g id="edge6" class="edge"><title>AS174&#45;&gt;AS209</title>
<path fill="none" stroke="black" d="M311.202,-388.335C322.681,-385.485 335.891,-382.205 348.132,-379.166"/>
<polygon fill="black" stroke="black" points="349.265,-382.491 358.127,-376.684 347.578,-375.697 349.265,-382.491"/>
</g>
<!-- AS1299&#45;&gt;AS209 -->
<g id="edge7" class="edge"><title>AS1299&#45;&gt;AS209</title>
<path fill="none" stroke="black" d="M314.44,-350.469C325.123,-353.121 337.022,-356.076 348.126,-358.833"/>
<polygon fill="black" stroke="black" points="347.492,-362.282 358.041,-361.295 349.179,-355.488 347.492,-362.282"/>
</g>
</g>
</svg>
