<?xml version="1.0" encoding="UTF-8" standalone="no"?>
<!DOCTYPE svg PUBLIC "-//W3C//DTD SVG 1.1//EN"
 "http://www.w3.org/Graphics/SVG/1.1/DTD/svg11.dtd">
<!-- Generated by graphviz version 2.38.0 (20140413.2041)
 -->
<!-- Title: AS199191 IPv4 Upstream Graph Pages: 1 -->
<svg width="459pt" height="422pt"
 viewBox="0.00 0.00 459.17 422.00" xmlns="http://www.w3.org/2000/svg" xmlns:xlink="http://www.w3.org/1999/xlink">
<g id="graph0" class="graph" transform="scale(1 1) rotate(0) translate(4 418)">
<title>AS199191 IPv4 Upstream Graph</title>
<polygon fill="white" stroke="none" points="-4,4 -4,-418 455.17,-418 455.17,4 -4,4"/>
<!-- AS199191 -->
<g id="node1" class="node"><title>AS199191</title>
<g id="a_node1"><a xlink:href="/asn/199191" xlink:title="AS199191 ~ Klausner Trading International GmbH [AT]">
<ellipse fill="#ffffff" stroke="black" cx="48.0957" cy="-99" rx="48.1917" ry="18"/>
<text text-anchor="middle" x="48.0957" y="-95.3" font-family="Times,serif" font-size="14.00" fill="#880000">AS199191</text>
</a>
</g>
</g>
<!-- AS34347 -->
<g id="node2" class="node"><title>AS34347</title>
<g id="a_node2"><a xlink:href="/asn/34347" xlink:title="AS34347 ~ HALLAG Kommunal GmbH [AT]">
<ellipse fill="#ffffff" stroke="black" cx="176.388" cy="-99" rx="44.393" ry="18"/>
<text text-anchor="middle" x="176.388" y="-95.3" font-family="Times,serif" font-size="14.00" fill="#2c94b3">AS34347</text>
</a>
</g>
</g>
<!-- AS199191&#45;&gt;AS34347 -->
<g id="edge1" class="edge"><title>AS199191&#45;&gt;AS34347</title>
<path fill="none" stroke="black" stroke-width="4.5" d="M96.4815,-99C104.742,-99 113.386,-99 121.799,-99"/>
<polygon fill="black" stroke="black" stroke-width="4.5" points="121.904,-102.938 131.904,-99 121.904,-95.0626 121.904,-102.938"/>
</g>
<!-- AS3356 -->
<g id="node3" class="node"><title>AS3356</title>
<g id="a_node3"><a xlink:href="/asn/3356" xlink:title="AS3356 ~ Level 3 Parent, LLC [US]">
<ellipse fill="#ffffff" stroke="black" cx="296.23" cy="-261" rx="39.7935" ry="18"/>
<text text-anchor="middle" x="296.23" y="-257.3" font-family="Times,serif" font-size="14.00" fill="#2c94b3">AS3356</text>
</a>
</g>
</g>
<!-- AS34347&#45;&gt;AS3356 -->
<g id="edge2" class="edge"><title>AS34347&#45;&gt;AS3356</title>
<path fill="none" stroke="black" stroke-width="4.5" d="M189.999,-116.337C210.82,-144.96 252.482,-202.233 276.671,-235.486"/>
<polygon fill="black" stroke="black" stroke-width="4.5" points="273.643,-238.017 282.71,-243.788 280.011,-233.385 273.643,-238.017"/>
</g>
<!-- AS2914 -->
<g id="node4" class="node"><title>AS2914</title>
<g id="a_node4"><a xlink:href="/asn/2914" xlink:title="AS2914 ~ NTT America, Inc. [US]">
<ellipse fill="#ffffff" stroke="black" cx="296.23" cy="-126" rx="39.7935" ry="18"/>
<text text-anchor="middle" x="296.23" y="-122.3" font-family="Times,serif" font-size="14.00" fill="#2c94b3">AS2914</text>
</a>
</g>
</g>
<!-- AS34347&#45;&gt;AS2914 -->
<g id="edge3" class="edge"><title>AS34347&#45;&gt;AS2914</title>
<path fill="none" stroke="black" stroke-width="3" d="M215.322,-107.692C226.563,-110.267 238.976,-113.111 250.599,-115.774"/>
<polygon fill="black" stroke="black" stroke-width="3" points="250.031,-119.235 260.56,-118.057 251.595,-112.412 250.031,-119.235"/>
</g>
<!-- AS174 -->
<g id="node5" class="node"><title>AS174</title>
<g id="a_node5"><a xlink:href="/asn/174" xlink:title="AS174 ~ Cogent Communications [US]">
<ellipse fill="#ffffff" stroke="black" cx="296.23" cy="-72" rx="35.194" ry="18"/>
<text text-anchor="middle" x="296.23" y="-68.3" font-family="Times,serif" font-size="14.00" fill="#2c94b3">AS174</text>
</a>
</g>
</g>
<!-- AS34347&#45;&gt;AS174 -->
<g id="edge4" class="edge"><title>AS34347&#45;&gt;AS174</title>
<path fill="none" stroke="black" stroke-width="1.5" d="M215.322,-90.3084C227.639,-87.4863 241.364,-84.3418 253.915,-81.4661"/>
<polygon fill="black" stroke="black" stroke-width="1.5" points="254.714,-84.8738 263.68,-79.2289 253.15,-78.0507 254.714,-84.8738"/>
</g>
<!-- AS1299 -->
<g id="node6" class="node"><title>AS1299</title>
<g id="a_node6"><a xlink:href="/asn/1299" xlink:title="AS1299 ~ Telia Carrier [EU]">
<ellipse fill="#ffffff" stroke="black" cx="296.23" cy="-18" rx="39.7935" ry="18"/>
<text text-anchor="middle" x="296.23" y="-14.3" font-family="Times,serif" font-size="14.00" fill="#2c94b3">AS1299</text>
</a>
</g>
</g>
<!-- AS34347&#45;&gt;AS1299 -->
<g id="edge5" class="edge"><title>AS34347&#45;&gt;AS1299</title>
<path fill="none" stroke="black" stroke-width="0.75" d="M199.83,-83.5739C218.412,-70.8019 244.972,-52.545 265.352,-38.537"/>
<polygon fill="black" stroke="black" stroke-width="0.75" points="267.408,-41.3709 273.666,-32.822 263.443,-35.6022 267.408,-41.3709"/>
</g>
<!-- AS3257 -->
<g id="node7" class="node"><title>AS3257</title>
<g id="a_node7"><a xlink:href="/asn/3257" xlink:title="AS3257 ~ GTT [DE]">
<ellipse fill="#ffffff" stroke="black" cx="411.523" cy="-180" rx="39.7935" ry="18"/>
<text text-anchor="middle" x="411.523" y="-176.3" font-family="Times,serif" font-size="14.00" fill="#2c94b3">AS3257</text>
</a>
</g>
</g>
<!-- AS3356&#45;&gt;AS3257 -->
<g id="edge6" class="edge"><title>AS3356&#45;&gt;AS3257</title>
<path fill="none" stroke="black" d="M318.078,-245.778C333.012,-234.909 353.626,-219.975 371.877,-207 374.697,-204.995 377.64,-202.915 380.588,-200.841"/>
<polygon fill="black" stroke="black" points="382.634,-203.681 388.813,-195.074 378.616,-197.95 382.634,-203.681"/>
</g>
<!-- AS3549 -->
<g id="node8" class="node"><title>AS3549</title>
<g id="a_node8"><a xlink:href="/asn/3549" xlink:title="AS3549 ~ Level 3 Parent, LLC [US]">
<ellipse fill="#ffffff" stroke="black" cx="411.523" cy="-396" rx="39.7935" ry="18"/>
<text text-anchor="middle" x="411.523" y="-392.3" font-family="Times,serif" font-size="14.00" fill="#2c94b3">AS3549</text>
</a>
</g>
</g>
<!-- AS3356&#45;&gt;AS3549 -->
<g id="edge7" class="edge"><title>AS3356&#45;&gt;AS3549</title>
<path fill="none" stroke="black" d="M306.69,-278.49C319.472,-301.096 343.904,-340.886 371.877,-369 373.987,-371.121 376.283,-373.188 378.669,-375.171"/>
<polygon fill="black" stroke="black" points="376.921,-378.242 386.984,-381.556 381.184,-372.69 376.921,-378.242"/>
</g>
<!-- AS2497 -->
<g id="node9" class="node"><title>AS2497</title>
<g id="a_node9"><a xlink:href="/asn/2497" xlink:title="AS2497 ~ Internet Initiative Japan Inc. [JP]">
<ellipse fill="#ffffff" stroke="black" cx="411.523" cy="-342" rx="39.7935" ry="18"/>
<text text-anchor="middle" x="411.523" y="-338.3" font-family="Times,serif" font-size="14.00" fill="#2c94b3">AS2497</text>
</a>
</g>
</g>
<!-- AS3356&#45;&gt;AS2497 -->
<g id="edge8" class="edge"><title>AS3356&#45;&gt;AS2497</title>
<path fill="none" stroke="black" d="M318.078,-276.222C333.012,-287.091 353.626,-302.025 371.877,-315 374.697,-317.005 377.64,-319.085 380.588,-321.159"/>
<polygon fill="black" stroke="black" points="378.616,-324.05 388.813,-326.926 382.634,-318.319 378.616,-324.05"/>
</g>
<!-- AS7018 -->
<g id="node10" class="node"><title>AS7018</title>
<g id="a_node10"><a xlink:href="/asn/7018" xlink:title="AS7018 ~ AT&amp;T Services, Inc. [US]">
<ellipse fill="#ffffff" stroke="black" cx="411.523" cy="-288" rx="39.7935" ry="18"/>
<text text-anchor="middle" x="411.523" y="-284.3" font-family="Times,serif" font-size="14.00" fill="#2c94b3">AS7018</text>
</a>
</g>
</g>
<!-- AS3356&#45;&gt;AS7018 -->
<g id="edge9" class="edge"><title>AS3356&#45;&gt;AS7018</title>
<path fill="none" stroke="black" d="M331.837,-269.248C342.709,-271.838 354.863,-274.735 366.305,-277.462"/>
<polygon fill="black" stroke="black" points="365.589,-280.889 376.128,-279.803 367.212,-274.08 365.589,-280.889"/>
</g>
<!-- AS6453 -->
<g id="node11" class="node"><title>AS6453</title>
<g id="a_node11"><a xlink:href="/asn/6453" xlink:title="AS6453 ~ TATA COMMUNICATIONS (AMERICA) INC [US]">
<ellipse fill="#ffffff" stroke="black" cx="411.523" cy="-234" rx="39.7935" ry="18"/>
<text text-anchor="middle" x="411.523" y="-230.3" font-family="Times,serif" font-size="14.00" fill="#2c94b3">AS6453</text>
</a>
</g>
</g>
<!-- AS3356&#45;&gt;AS6453 -->
<g id="edge10" class="edge"><title>AS3356&#45;&gt;AS6453</title>
<path fill="none" stroke="black" d="M331.837,-252.752C342.709,-250.162 354.863,-247.265 366.305,-244.538"/>
<polygon fill="black" stroke="black" points="367.212,-247.92 376.128,-242.197 365.589,-241.111 367.212,-247.92"/>
</g>
<!-- AS2914&#45;&gt;AS3257 -->
<g id="edge11" class="edge"><title>AS2914&#45;&gt;AS3257</title>
<path fill="none" stroke="black" d="M324.367,-138.934C339.361,-146.081 358.182,-155.052 374.405,-162.785"/>
<polygon fill="black" stroke="black" points="373.075,-166.028 383.608,-167.171 376.087,-159.709 373.075,-166.028"/>
</g>
<!-- AS3491 -->
<g id="node12" class="node"><title>AS3491</title>
<g id="a_node12"><a xlink:href="/asn/3491" xlink:title="AS3491 ~ PCCW Global, Inc. [US]">
<ellipse fill="#ffffff" stroke="black" cx="411.523" cy="-72" rx="39.7935" ry="18"/>
<text text-anchor="middle" x="411.523" y="-68.3" font-family="Times,serif" font-size="14.00" fill="#2c94b3">AS3491</text>
</a>
</g>
</g>
<!-- AS2914&#45;&gt;AS3491 -->
<g id="edge12" class="edge"><title>AS2914&#45;&gt;AS3491</title>
<path fill="none" stroke="black" d="M324.367,-113.066C339.361,-105.919 358.182,-96.9481 374.405,-89.2154"/>
<polygon fill="black" stroke="black" points="376.087,-92.291 383.608,-84.8288 373.075,-85.972 376.087,-92.291"/>
</g>
<!-- AS1239 -->
<g id="node13" class="node"><title>AS1239</title>
<g id="a_node13"><a xlink:href="/asn/1239" xlink:title="AS1239 ~ Sprint [US]">
<ellipse fill="#ffffff" stroke="black" cx="411.523" cy="-126" rx="39.7935" ry="18"/>
<text text-anchor="middle" x="411.523" y="-122.3" font-family="Times,serif" font-size="14.00" fill="#2c94b3">AS1239</text>
</a>
</g>
</g>
<!-- AS2914&#45;&gt;AS1239 -->
<g id="edge13" class="edge"><title>AS2914&#45;&gt;AS1239</title>
<path fill="none" stroke="black" d="M335.902,-126C344.105,-126 352.869,-126 361.401,-126"/>
<polygon fill="black" stroke="black" points="361.641,-129.5 371.641,-126 361.641,-122.5 361.641,-129.5"/>
</g>
<!-- AS174&#45;&gt;AS3491 -->
<g id="edge14" class="edge"><title>AS174&#45;&gt;AS3491</title>
<path fill="none" stroke="black" d="M331.529,-72C340.906,-72 351.257,-72 361.291,-72"/>
<polygon fill="black" stroke="black" points="361.58,-75.5001 371.58,-72 361.58,-68.5001 361.58,-75.5001"/>
</g>
</g>
</svg>
