<?xml version="1.0" encoding="UTF-8" standalone="no"?>
<!DOCTYPE svg PUBLIC "-//W3C//DTD SVG 1.1//EN"
 "http://www.w3.org/Graphics/SVG/1.1/DTD/svg11.dtd">
<!-- Generated by graphviz version 2.38.0 (20140413.2041)
 -->
<!-- Title: AS5385 Combined Upstream Graph Pages: 1 -->
<svg width="682pt" height="700pt"
 viewBox="0.00 0.00 681.96 700.00" xmlns="http://www.w3.org/2000/svg" xmlns:xlink="http://www.w3.org/1999/xlink">
<g id="graph0" class="graph" transform="scale(1 1) rotate(0) translate(4 696)">
<title>AS5385 Combined Upstream Graph</title>
<polygon fill="white" stroke="none" points="-4,4 -4,-696 677.956,-696 677.956,4 -4,4"/>
<!-- AS5385 -->
<g id="node1" class="node"><title>AS5385</title>
<g id="a_node1"><a xlink:href="/asn/5385" xlink:title="AS5385 ~ Russmedia IT GmbH [AT]">
<ellipse fill="#ffffff" stroke="black" cx="39.6465" cy="-268" rx="39.7935" ry="18"/>
<text text-anchor="middle" x="39.6465" y="-264.3" font-family="Times,serif" font-size="14.00" fill="#880000">AS5385</text>
</a>
</g>
</g>
<!-- AS1299 -->
<g id="node2" class="node"><title>AS1299</title>
<g id="a_node2"><a xlink:href="/asn/1299" xlink:title="AS1299 ~ Telia Carrier [EU]">
<ellipse fill="#ffffff" stroke="black" cx="279.332" cy="-314" rx="39.7935" ry="18"/>
<text text-anchor="middle" x="279.332" y="-310.3" font-family="Times,serif" font-size="14.00" fill="#2c94b3">AS1299</text>
</a>
</g>
</g>
<!-- AS5385&#45;&gt;AS1299 -->
<g id="edge1" class="edge"><title>AS5385&#45;&gt;AS1299</title>
<path fill="none" stroke="black" stroke-width="3.53571" d="M79.2931,-269.984C112.605,-272.29 161.803,-277.126 203.685,-287 215.841,-289.866 228.745,-294.086 240.344,-298.343"/>
<polygon fill="black" stroke="black" stroke-width="3.53571" points="239.144,-301.631 249.735,-301.898 241.622,-295.085 239.144,-301.631"/>
</g>
<!-- AS8447 -->
<g id="node3" class="node"><title>AS8447</title>
<g id="a_node3"><a xlink:href="/asn/8447" xlink:title="AS8447 ~ A1 Telekom Austria AG [AT]">
<ellipse fill="#ffffff" stroke="black" cx="159.489" cy="-207" rx="39.7935" ry="18"/>
<text text-anchor="middle" x="159.489" y="-203.3" font-family="Times,serif" font-size="14.00" fill="#2c94b3">AS8447</text>
</a>
</g>
</g>
<!-- AS5385&#45;&gt;AS8447 -->
<g id="edge2" class="edge"><title>AS5385&#45;&gt;AS8447</title>
<path fill="none" stroke="black" stroke-width="4.5" d="M66.5075,-254.613C83.3158,-245.913 105.431,-234.465 123.764,-224.975"/>
<polygon fill="black" stroke="black" stroke-width="4.5" points="125.618,-228.449 132.688,-220.355 121.997,-221.456 125.618,-228.449"/>
</g>
<!-- AS41549 -->
<g id="node4" class="node"><title>AS41549</title>
<g id="a_node4"><a xlink:href="/asn/41549" xlink:title="AS41549 ~ EWB&#45;Cable&#45;Network&#45;AS [CH]">
<ellipse fill="#ffffff" stroke="black" cx="159.489" cy="-314" rx="44.393" ry="18"/>
<text text-anchor="middle" x="159.489" y="-310.3" font-family="Times,serif" font-size="14.00" fill="#2c94b3">AS41549</text>
</a>
</g>
</g>
<!-- AS5385&#45;&gt;AS41549 -->
<g id="edge3" class="edge"><title>AS5385&#45;&gt;AS41549</title>
<path fill="none" stroke="black" stroke-width="3.69643" d="M70.3831,-279.608C84.6122,-285.162 101.879,-291.902 117.344,-297.939"/>
<polygon fill="black" stroke="black" stroke-width="3.69643" points="116.108,-301.214 126.696,-301.59 118.653,-294.693 116.108,-301.214"/>
</g>
<!-- AS2497 -->
<g id="node5" class="node"><title>AS2497</title>
<g id="a_node5"><a xlink:href="/asn/2497" xlink:title="AS2497 ~ Internet Initiative Japan Inc. [JP]">
<ellipse fill="#ffffff" stroke="black" cx="629.76" cy="-674" rx="39.7935" ry="18"/>
<text text-anchor="middle" x="629.76" y="-670.3" font-family="Times,serif" font-size="14.00" fill="#2c94b3">AS2497</text>
</a>
</g>
</g>
<!-- AS1299&#45;&gt;AS2497 -->
<g id="edge4" class="edge"><title>AS1299&#45;&gt;AS2497</title>
<path fill="none" stroke="black" stroke-width="4" d="M279.675,-332.268C278.956,-380.985 283.881,-515.299 354.978,-589 414.753,-650.965 518.762,-667.999 579.927,-672.53"/>
<polygon fill="black" stroke="black" stroke-width="4" points="579.887,-676.035 590.095,-673.197 580.346,-669.05 579.887,-676.035"/>
</g>
<!-- AS6453 -->
<g id="node6" class="node"><title>AS6453</title>
<g id="a_node6"><a xlink:href="/asn/6453" xlink:title="AS6453 ~ TATA COMMUNICATIONS (AMERICA) INC [US]">
<ellipse fill="#ffffff" stroke="black" cx="629.76" cy="-598" rx="39.7935" ry="18"/>
<text text-anchor="middle" x="629.76" y="-594.3" font-family="Times,serif" font-size="14.00" fill="#2c94b3">AS6453</text>
</a>
</g>
</g>
<!-- AS1299&#45;&gt;AS6453 -->
<g id="edge5" class="edge"><title>AS1299&#45;&gt;AS6453</title>
<path fill="none" stroke="black" stroke-width="2" d="M279.954,-332.221C280.086,-377.635 287.231,-496.402 354.978,-555 418.275,-609.748 521.948,-609.95 581.91,-604.454"/>
<polygon fill="black" stroke="black" stroke-width="2" points="582.262,-607.937 591.862,-603.453 581.561,-600.972 582.262,-607.937"/>
</g>
<!-- AS174 -->
<g id="node7" class="node"><title>AS174</title>
<g id="a_node7"><a xlink:href="/asn/174" xlink:title="AS174 ~ Cogent Communications [US]">
<ellipse fill="#ffffff" stroke="black" cx="629.76" cy="-522" rx="35.194" ry="18"/>
<text text-anchor="middle" x="629.76" y="-518.3" font-family="Times,serif" font-size="14.00" fill="#2c94b3">AS174</text>
</a>
</g>
</g>
<!-- AS1299&#45;&gt;AS174 -->
<g id="edge6" class="edge"><title>AS1299&#45;&gt;AS174</title>
<path fill="none" stroke="black" stroke-width="4" d="M280.269,-332.006C281.219,-374.54 290.254,-481.099 354.978,-527 425.58,-577.07 534.24,-553.391 591.112,-535.538"/>
<polygon fill="black" stroke="black" stroke-width="4" points="592.344,-538.818 600.776,-532.403 590.184,-532.159 592.344,-538.818"/>
</g>
<!-- AS701 -->
<g id="node8" class="node"><title>AS701</title>
<g id="a_node8"><a xlink:href="/asn/701" xlink:title="AS701 ~ UUNET [US]">
<ellipse fill="#ffffff" stroke="black" cx="629.76" cy="-310" rx="35.194" ry="18"/>
<text text-anchor="middle" x="629.76" y="-306.3" font-family="Times,serif" font-size="14.00" fill="#2c94b3">AS701</text>
</a>
</g>
</g>
<!-- AS1299&#45;&gt;AS701 -->
<g id="edge7" class="edge"><title>AS1299&#45;&gt;AS701</title>
<path fill="none" stroke="black" stroke-width="2" d="M298.509,-298.035C320.324,-278.895 354.108,-249.326 354.978,-249 439.558,-217.336 545.276,-263.563 597.117,-291.444"/>
<polygon fill="black" stroke="black" stroke-width="2" points="595.704,-294.661 606.153,-296.414 599.078,-288.528 595.704,-294.661"/>
</g>
<!-- AS2914 -->
<g id="node9" class="node"><title>AS2914</title>
<g id="a_node9"><a xlink:href="/asn/2914" xlink:title="AS2914 ~ NTT America, Inc. [US]">
<ellipse fill="#ffffff" stroke="black" cx="629.76" cy="-227" rx="39.7935" ry="18"/>
<text text-anchor="middle" x="629.76" y="-223.3" font-family="Times,serif" font-size="14.00" fill="#2c94b3">AS2914</text>
</a>
</g>
</g>
<!-- AS1299&#45;&gt;AS2914 -->
<g id="edge8" class="edge"><title>AS1299&#45;&gt;AS2914</title>
<path fill="none" stroke="black" stroke-width="4" d="M299.453,-298.41C305.893,-292.843 312.966,-286.368 318.978,-280 336.8,-261.123 331.787,-245.668 354.978,-234 428.351,-197.083 527.367,-206.802 584.008,-217.027"/>
<polygon fill="black" stroke="black" stroke-width="4" points="583.599,-220.511 594.075,-218.931 584.9,-213.633 583.599,-220.511"/>
</g>
<!-- AS3257 -->
<g id="node10" class="node"><title>AS3257</title>
<g id="a_node10"><a xlink:href="/asn/3257" xlink:title="AS3257 ~ GTT [DE]">
<ellipse fill="#ffffff" stroke="black" cx="394.625" cy="-476" rx="39.7935" ry="18"/>
<text text-anchor="middle" x="394.625" y="-472.3" font-family="Times,serif" font-size="14.00" fill="#2c94b3">AS3257</text>
</a>
</g>
</g>
<!-- AS1299&#45;&gt;AS3257 -->
<g id="edge9" class="edge"><title>AS1299&#45;&gt;AS3257</title>
<path fill="none" stroke="black" stroke-width="3" d="M287.079,-331.787C298.13,-359.243 322.184,-412.578 354.978,-449 356.98,-451.224 359.199,-453.363 361.532,-455.397"/>
<polygon fill="black" stroke="black" stroke-width="3" points="359.73,-458.433 369.751,-461.873 364.062,-452.935 359.73,-458.433"/>
</g>
<!-- AS7018 -->
<g id="node11" class="node"><title>AS7018</title>
<g id="a_node11"><a xlink:href="/asn/7018" xlink:title="AS7018 ~ AT&amp;T Services, Inc. [US]">
<ellipse fill="#ffffff" stroke="black" cx="394.625" cy="-422" rx="39.7935" ry="18"/>
<text text-anchor="middle" x="394.625" y="-418.3" font-family="Times,serif" font-size="14.00" fill="#2c94b3">AS7018</text>
</a>
</g>
</g>
<!-- AS1299&#45;&gt;AS7018 -->
<g id="edge10" class="edge"><title>AS1299&#45;&gt;AS7018</title>
<path fill="none" stroke="black" stroke-width="4" d="M293.962,-330.817C308.244,-347.929 331.791,-374.745 354.978,-395 357.444,-397.154 360.082,-399.294 362.78,-401.372"/>
<polygon fill="black" stroke="black" stroke-width="4" points="360.805,-404.264 370.934,-407.37 364.953,-398.625 360.805,-404.264"/>
</g>
<!-- AS1239 -->
<g id="node12" class="node"><title>AS1239</title>
<g id="a_node12"><a xlink:href="/asn/1239" xlink:title="AS1239 ~ Sprint [US]">
<ellipse fill="#ffffff" stroke="black" cx="629.76" cy="-18" rx="39.7935" ry="18"/>
<text text-anchor="middle" x="629.76" y="-14.3" font-family="Times,serif" font-size="14.00" fill="#2c94b3">AS1239</text>
</a>
</g>
</g>
<!-- AS1299&#45;&gt;AS1239 -->
<g id="edge11" class="edge"><title>AS1299&#45;&gt;AS1239</title>
<path fill="none" stroke="black" stroke-width="3" d="M302.257,-299.2C308.589,-293.869 314.887,-287.336 318.978,-280 365.528,-196.532 299.491,-145.814 354.978,-68 407.755,6.0125 458.962,2.38669 549.564,-5 560.404,-5.88375 571.996,-7.43713 582.874,-9.16963"/>
<polygon fill="black" stroke="black" stroke-width="3" points="582.596,-12.6717 593.036,-10.8696 583.751,-5.76765 582.596,-12.6717"/>
</g>
<!-- AS3491 -->
<g id="node13" class="node"><title>AS3491</title>
<g id="a_node13"><a xlink:href="/asn/3491" xlink:title="AS3491 ~ PCCW Global, Inc. [US]">
<ellipse fill="#ffffff" stroke="black" cx="629.76" cy="-448" rx="39.7935" ry="18"/>
<text text-anchor="middle" x="629.76" y="-444.3" font-family="Times,serif" font-size="14.00" fill="#2c94b3">AS3491</text>
</a>
</g>
</g>
<!-- AS1299&#45;&gt;AS3491 -->
<g id="edge12" class="edge"><title>AS1299&#45;&gt;AS3491</title>
<path fill="none" stroke="black" stroke-width="4" d="M281.152,-332.064C284.022,-371.211 296.929,-463.514 354.978,-503 430.577,-554.423 543.372,-500.233 597.533,-468.129"/>
<polygon fill="black" stroke="black" stroke-width="4" points="599.585,-470.978 606.325,-462.804 595.959,-464.991 599.585,-470.978"/>
</g>
<!-- AS12956 -->
<g id="node14" class="node"><title>AS12956</title>
<g id="a_node14"><a xlink:href="/asn/12956" xlink:title="AS12956 ~ TELXIUS [ES]">
<ellipse fill="#ffffff" stroke="black" cx="629.76" cy="-91" rx="44.393" ry="18"/>
<text text-anchor="middle" x="629.76" y="-87.3" font-family="Times,serif" font-size="14.00" fill="#2c94b3">AS12956</text>
</a>
</g>
</g>
<!-- AS1299&#45;&gt;AS12956 -->
<g id="edge13" class="edge"><title>AS1299&#45;&gt;AS12956</title>
<path fill="none" stroke="black" stroke-width="2" d="M302.08,-299.098C308.402,-293.763 314.739,-287.252 318.978,-280 357.953,-213.325 297.8,-161.916 354.978,-110 416.835,-53.8365 522.409,-65.7002 582.786,-78.7482"/>
<polygon fill="black" stroke="black" stroke-width="2" points="582.267,-82.2193 592.793,-81.0117 583.812,-75.3918 582.267,-82.2193"/>
</g>
<!-- AS6762 -->
<g id="node15" class="node"><title>AS6762</title>
<g id="a_node15"><a xlink:href="/asn/6762" xlink:title="AS6762 ~ TELECOM ITALIA SPARKLE S.p.A. [IT]">
<ellipse fill="#ffffff" stroke="black" cx="509.918" cy="-124" rx="39.7935" ry="18"/>
<text text-anchor="middle" x="509.918" y="-120.3" font-family="Times,serif" font-size="14.00" fill="#2c94b3">AS6762</text>
</a>
</g>
</g>
<!-- AS1299&#45;&gt;AS6762 -->
<g id="edge14" class="edge"><title>AS1299&#45;&gt;AS6762</title>
<path fill="none" stroke="black" d="M301.894,-298.987C308.206,-293.645 314.584,-287.159 318.978,-280 352.585,-225.244 306.312,-181.943 354.978,-140 384.214,-114.803 429.106,-112.845 462.881,-115.979"/>
<polygon fill="black" stroke="black" points="462.652,-119.475 472.976,-117.096 463.421,-112.518 462.652,-119.475"/>
</g>
<!-- AS3356 -->
<g id="node16" class="node"><title>AS3356</title>
<g id="a_node16"><a xlink:href="/asn/3356" xlink:title="AS3356 ~ Level 3 Parent, LLC [US]">
<ellipse fill="#ffffff" stroke="black" cx="509.918" cy="-398" rx="39.7935" ry="18"/>
<text text-anchor="middle" x="509.918" y="-394.3" font-family="Times,serif" font-size="14.00" fill="#2c94b3">AS3356</text>
</a>
</g>
</g>
<!-- AS1299&#45;&gt;AS3356 -->
<g id="edge15" class="edge"><title>AS1299&#45;&gt;AS3356</title>
<path fill="none" stroke="black" stroke-width="2" d="M319.121,-315.705C351.166,-318.293 397.239,-324.778 434.271,-341 452.874,-349.149 471.045,-362.862 484.801,-374.795"/>
<polygon fill="black" stroke="black" stroke-width="2" points="482.574,-377.499 492.36,-381.56 487.242,-372.283 482.574,-377.499"/>
</g>
<!-- AS209 -->
<g id="node17" class="node"><title>AS209</title>
<g id="a_node17"><a xlink:href="/asn/209" xlink:title="AS209 ~ CenturyLink Communications, LLC [US]">
<ellipse fill="#ffffff" stroke="black" cx="394.625" cy="-368" rx="35.194" ry="18"/>
<text text-anchor="middle" x="394.625" y="-364.3" font-family="Times,serif" font-size="14.00" fill="#2c94b3">AS209</text>
</a>
</g>
</g>
<!-- AS1299&#45;&gt;AS209 -->
<g id="edge16" class="edge"><title>AS1299&#45;&gt;AS209</title>
<path fill="none" stroke="black" stroke-width="2" d="M307.468,-326.934C322.9,-334.29 342.385,-343.577 358.92,-351.459"/>
<polygon fill="black" stroke="black" stroke-width="2" points="357.729,-354.768 368.262,-355.911 360.741,-348.449 357.729,-354.768"/>
</g>
<!-- AS1273 -->
<g id="node18" class="node"><title>AS1273</title>
<g id="a_node18"><a xlink:href="/asn/1273" xlink:title="AS1273 ~ Vodafone Group PLC [EU]">
<ellipse fill="#ffffff" stroke="black" cx="394.625" cy="-276" rx="39.7935" ry="18"/>
<text text-anchor="middle" x="394.625" y="-272.3" font-family="Times,serif" font-size="14.00" fill="#2c94b3">AS1273</text>
</a>
</g>
</g>
<!-- AS1299&#45;&gt;AS1273 -->
<g id="edge17" class="edge"><title>AS1299&#45;&gt;AS1273</title>
<path fill="none" stroke="black" d="M311.589,-303.516C324.238,-299.273 339.017,-294.316 352.518,-289.788"/>
<polygon fill="black" stroke="black" points="353.708,-293.08 362.076,-286.582 351.482,-286.444 353.708,-293.08"/>
</g>
<!-- AS8447&#45;&gt;AS1299 -->
<g id="edge20" class="edge"><title>AS8447&#45;&gt;AS1299</title>
<path fill="none" stroke="black" stroke-width="3.68182" d="M177.686,-223.065C193.658,-237.934 218.147,-260.604 239.685,-280 243.835,-283.738 248.263,-287.677 252.584,-291.496"/>
<polygon fill="black" stroke="black" stroke-width="3.68182" points="250.349,-294.191 260.167,-298.173 254.975,-288.937 250.349,-294.191"/>
</g>
<!-- AS8447&#45;&gt;AS6762 -->
<g id="edge19" class="edge"><title>AS8447&#45;&gt;AS6762</title>
<path fill="none" stroke="black" stroke-width="0.818182" d="M181.952,-192.075C216.492,-169.064 287.4,-125.917 354.978,-110 391.588,-101.377 434.253,-106.392 465.37,-112.697"/>
<polygon fill="black" stroke="black" stroke-width="0.818182" points="464.942,-116.185 475.454,-114.867 466.414,-109.341 464.942,-116.185"/>
</g>
<!-- AS8447&#45;&gt;AS3356 -->
<g id="edge18" class="edge"><title>AS8447&#45;&gt;AS3356</title>
<path fill="none" stroke="black" stroke-width="4.5" d="M197.979,-202.236C255.064,-197.092 364.494,-195.775 434.271,-249 473.881,-279.214 493.977,-336.192 502.89,-370.261"/>
<polygon fill="black" stroke="black" stroke-width="4.5" points="499.086,-371.28 505.307,-380.044 506.731,-369.391 499.086,-371.28"/>
</g>
<!-- AS3320 -->
<g id="node19" class="node"><title>AS3320</title>
<g id="a_node19"><a xlink:href="/asn/3320" xlink:title="AS3320 ~ DTAG [DE]">
<ellipse fill="#ffffff" stroke="black" cx="509.918" cy="-32" rx="39.7935" ry="18"/>
<text text-anchor="middle" x="509.918" y="-28.3" font-family="Times,serif" font-size="14.00" fill="#2c94b3">AS3320</text>
</a>
</g>
</g>
<!-- AS8447&#45;&gt;AS3320 -->
<g id="edge21" class="edge"><title>AS8447&#45;&gt;AS3320</title>
<path fill="none" stroke="black" stroke-width="2.04545" d="M171.204,-189.682C184.733,-169.209 209.875,-135.468 239.685,-116 309.347,-70.5057 405.15,-48.3974 461.699,-38.6735"/>
<polygon fill="black" stroke="black" stroke-width="2.04545" points="462.494,-42.0895 471.786,-36.9991 461.348,-35.184 462.494,-42.0895"/>
</g>
<!-- AS6461 -->
<g id="node20" class="node"><title>AS6461</title>
<g id="a_node20"><a xlink:href="/asn/6461" xlink:title="AS6461 ~ Zayo Bandwidth [US]">
<ellipse fill="#ffffff" stroke="black" cx="279.332" cy="-253" rx="39.7935" ry="18"/>
<text text-anchor="middle" x="279.332" y="-249.3" font-family="Times,serif" font-size="14.00" fill="#2c94b3">AS6461</text>
</a>
</g>
</g>
<!-- AS8447&#45;&gt;AS6461 -->
<g id="edge22" class="edge"><title>AS8447&#45;&gt;AS6461</title>
<path fill="none" stroke="black" stroke-width="0.409091" d="M190.226,-218.608C205.019,-224.382 223.097,-231.439 239.018,-237.654"/>
<polygon fill="black" stroke="black" stroke-width="0.409091" points="238.016,-241.02 248.604,-241.396 240.562,-234.499 238.016,-241.02"/>
</g>
<!-- AS41549&#45;&gt;AS1299 -->
<g id="edge38" class="edge"><title>AS41549&#45;&gt;AS1299</title>
<path fill="none" stroke="black" stroke-width="4.5" d="M203.7,-314C212.013,-314 220.775,-314 229.258,-314"/>
<polygon fill="black" stroke="black" stroke-width="4.5" points="229.416,-317.938 239.416,-314 229.416,-310.063 229.416,-317.938"/>
</g>
<!-- AS41549&#45;&gt;AS3257 -->
<g id="edge36" class="edge"><title>AS41549&#45;&gt;AS3257</title>
<path fill="none" stroke="black" stroke-width="4.5" d="M182.843,-329.533C225.008,-358.833 316.297,-422.267 363.698,-455.205"/>
<polygon fill="black" stroke="black" stroke-width="4.5" points="361.558,-458.512 372.017,-460.985 366.052,-452.045 361.558,-458.512"/>
</g>
<!-- AS41549&#45;&gt;AS6461 -->
<g id="edge37" class="edge"><title>AS41549&#45;&gt;AS6461</title>
<path fill="none" stroke="black" stroke-width="0.409091" d="M187.525,-300.005C204.074,-291.439 225.426,-280.386 243.267,-271.151"/>
<polygon fill="black" stroke="black" stroke-width="0.409091" points="244.96,-274.215 252.232,-266.51 241.742,-267.999 244.96,-274.215"/>
</g>
<!-- AS3257&#45;&gt;AS2497 -->
<g id="edge39" class="edge"><title>AS3257&#45;&gt;AS2497</title>
<path fill="none" stroke="black" d="M411.459,-492.461C426.254,-507.603 449.167,-530.452 470.271,-549 514.006,-587.438 567.733,-628.636 600.058,-652.82"/>
<polygon fill="black" stroke="black" points="598.08,-655.711 608.189,-658.882 602.263,-650.099 598.08,-655.711"/>
</g>
<!-- AS3257&#45;&gt;AS6453 -->
<g id="edge40" class="edge"><title>AS3257&#45;&gt;AS6453</title>
<path fill="none" stroke="black" d="M421.465,-489.522C463.589,-511.566 547.079,-555.256 594.236,-579.933"/>
<polygon fill="black" stroke="black" points="592.676,-583.068 603.159,-584.603 595.922,-576.865 592.676,-583.068"/>
</g>
<!-- AS3257&#45;&gt;AS174 -->
<g id="edge41" class="edge"><title>AS3257&#45;&gt;AS174</title>
<path fill="none" stroke="black" d="M431.287,-483.036C473.178,-491.302 542.578,-504.995 586.959,-513.752"/>
<polygon fill="black" stroke="black" points="586.362,-517.202 596.851,-515.704 587.717,-510.334 586.362,-517.202"/>
</g>
<!-- AS3257&#45;&gt;AS701 -->
<g id="edge43" class="edge"><title>AS3257&#45;&gt;AS701</title>
<path fill="none" stroke="black" d="M420.155,-461.802C425.252,-458.089 430.28,-453.771 434.271,-449 458.771,-419.717 442.41,-397.106 470.271,-371 502.482,-340.817 551.227,-325.074 586.148,-317.205"/>
<polygon fill="black" stroke="black" points="587.003,-320.602 596.056,-315.098 585.547,-313.755 587.003,-320.602"/>
</g>
<!-- AS3257&#45;&gt;AS2914 -->
<g id="edge42" class="edge"><title>AS3257&#45;&gt;AS2914</title>
<path fill="none" stroke="black" d="M420.717,-462.237C425.785,-458.501 430.659,-454.064 434.271,-449 468.094,-401.587 434.921,-369.286 470.271,-323 500.563,-283.338 552.344,-256.491 588.445,-241.494"/>
<polygon fill="black" stroke="black" points="589.754,-244.74 597.721,-237.756 587.138,-238.247 589.754,-244.74"/>
</g>
<!-- AS3257&#45;&gt;AS3491 -->
<g id="edge46" class="edge"><title>AS3257&#45;&gt;AS3491</title>
<path fill="none" stroke="black" d="M433.082,-471.501C473.239,-466.678 537.114,-459.007 580.891,-453.749"/>
<polygon fill="black" stroke="black" points="581.498,-457.202 591.009,-452.534 580.663,-450.251 581.498,-457.202"/>
</g>
<!-- AS3257&#45;&gt;AS12956 -->
<g id="edge45" class="edge"><title>AS3257&#45;&gt;AS12956</title>
<path fill="none" stroke="black" d="M421.076,-462.48C426.125,-458.731 430.9,-454.228 434.271,-449 481.556,-375.665 430.377,-333.604 470.271,-256 501.542,-195.171 562.452,-141.521 598.98,-112.914"/>
<polygon fill="black" stroke="black" points="601.484,-115.403 607.267,-106.525 597.21,-109.859 601.484,-115.403"/>
</g>
<!-- AS3257&#45;&gt;AS6762 -->
<g id="edge47" class="edge"><title>AS3257&#45;&gt;AS6762</title>
<path fill="none" stroke="black" d="M421.319,-462.631C426.355,-458.875 431.064,-454.33 434.271,-449 501.909,-336.577 407.286,-271.094 470.271,-156 472.341,-152.217 475.055,-148.701 478.088,-145.49"/>
<polygon fill="black" stroke="black" points="480.612,-147.923 485.586,-138.568 475.864,-142.779 480.612,-147.923"/>
</g>
<!-- AS3257&#45;&gt;AS3356 -->
<g id="edge44" class="edge"><title>AS3257&#45;&gt;AS3356</title>
<path fill="none" stroke="black" stroke-width="2" d="M412.341,-459.535C428.212,-446.838 452.591,-429.593 472.883,-416.473"/>
<polygon fill="black" stroke="black" stroke-width="2" points="475.018,-419.263 481.583,-410.947 471.265,-413.354 475.018,-419.263"/>
</g>
<!-- AS3356&#45;&gt;AS2497 -->
<g id="edge23" class="edge"><title>AS3356&#45;&gt;AS2497</title>
<path fill="none" stroke="black" d="M514.269,-416.095C522.187,-455.93 544.535,-553.36 585.564,-625 590.614,-633.817 597.419,-642.464 604.134,-649.98"/>
<polygon fill="black" stroke="black" points="601.912,-652.729 611.296,-657.647 607.027,-647.95 601.912,-652.729"/>
</g>
<!-- AS3356&#45;&gt;AS6453 -->
<g id="edge24" class="edge"><title>AS3356&#45;&gt;AS6453</title>
<path fill="none" stroke="black" d="M518.004,-416.034C529.865,-445.221 555.428,-504.07 585.564,-549 591.317,-557.576 598.442,-566.251 605.236,-573.87"/>
<polygon fill="black" stroke="black" points="603.056,-576.669 612.398,-581.667 608.211,-571.934 603.056,-576.669"/>
</g>
<!-- AS3356&#45;&gt;AS174 -->
<g id="edge25" class="edge"><title>AS3356&#45;&gt;AS174</title>
<path fill="none" stroke="black" d="M526.566,-414.466C547.017,-435.986 582.969,-473.816 606.319,-498.386"/>
<polygon fill="black" stroke="black" points="603.995,-501.022 613.421,-505.86 609.07,-496.2 603.995,-501.022"/>
</g>
<!-- AS3356&#45;&gt;AS701 -->
<g id="edge29" class="edge"><title>AS3356&#45;&gt;AS701</title>
<path fill="none" stroke="black" d="M531.444,-382.672C550.655,-368.326 579.511,-346.777 600.816,-330.867"/>
<polygon fill="black" stroke="black" points="602.943,-333.647 608.861,-324.86 598.755,-328.039 602.943,-333.647"/>
</g>
<!-- AS3356&#45;&gt;AS2914 -->
<g id="edge26" class="edge"><title>AS3356&#45;&gt;AS2914</title>
<path fill="none" stroke="black" d="M521.618,-380.564C535.741,-357.777 561.622,-316.795 585.564,-283 592.921,-272.616 601.4,-261.462 608.888,-251.862"/>
<polygon fill="black" stroke="black" points="611.731,-253.91 615.16,-243.886 606.228,-249.583 611.731,-253.91"/>
</g>
<!-- AS3356&#45;&gt;AS3257 -->
<g id="edge27" class="edge"><title>AS3356&#45;&gt;AS3257</title>
<path fill="none" stroke="black" d="M492.518,-414.211C476.55,-427.017 451.758,-444.552 431.25,-457.791"/>
<polygon fill="black" stroke="black" points="429.331,-454.864 422.761,-463.176 433.08,-460.775 429.331,-454.864"/>
</g>
<!-- AS3356&#45;&gt;AS3491 -->
<g id="edge30" class="edge"><title>AS3356&#45;&gt;AS3491</title>
<path fill="none" stroke="black" d="M539.444,-410.104C554.818,-416.627 573.994,-424.763 590.633,-431.823"/>
<polygon fill="black" stroke="black" points="589.515,-435.151 600.088,-435.835 592.249,-428.707 589.515,-435.151"/>
</g>
<!-- AS3356&#45;&gt;AS12956 -->
<g id="edge31" class="edge"><title>AS3356&#45;&gt;AS12956</title>
<path fill="none" stroke="black" d="M517.509,-380.213C530.4,-345.496 559.93,-266.303 585.564,-200 596.385,-172.011 609.068,-140.111 617.88,-118.086"/>
<polygon fill="black" stroke="black" points="621.166,-119.295 621.636,-108.711 614.668,-116.692 621.166,-119.295"/>
</g>
<!-- AS3549 -->
<g id="node21" class="node"><title>AS3549</title>
<g id="a_node21"><a xlink:href="/asn/3549" xlink:title="AS3549 ~ Level 3 Parent, LLC [US]">
<ellipse fill="#ffffff" stroke="black" cx="629.76" cy="-394" rx="39.7935" ry="18"/>
<text text-anchor="middle" x="629.76" y="-390.3" font-family="Times,serif" font-size="14.00" fill="#2c94b3">AS3549</text>
</a>
</g>
</g>
<!-- AS3356&#45;&gt;AS3549 -->
<g id="edge28" class="edge"><title>AS3356&#45;&gt;AS3549</title>
<path fill="none" stroke="black" stroke-width="3" d="M549.504,-396.69C559.27,-396.359 569.887,-395.998 580.081,-395.652"/>
<polygon fill="black" stroke="black" stroke-width="3" points="580.212,-399.15 590.087,-395.313 579.974,-392.154 580.212,-399.15"/>
</g>
<!-- AS3320&#45;&gt;AS701 -->
<g id="edge34" class="edge"><title>AS3320&#45;&gt;AS701</title>
<path fill="none" stroke="black" d="M523.141,-49.1624C531.657,-61.8423 542.682,-79.8153 549.564,-97 576.178,-163.458 554.993,-189.267 585.564,-254 590.917,-265.335 598.871,-276.536 606.499,-285.906"/>
<polygon fill="black" stroke="black" points="603.909,-288.264 613.046,-293.627 609.248,-283.737 603.909,-288.264"/>
</g>
<!-- AS3320&#45;&gt;AS2914 -->
<g id="edge35" class="edge"><title>AS3320&#45;&gt;AS2914</title>
<path fill="none" stroke="black" d="M521.375,-49.3049C542.122,-83.6354 588.589,-160.527 613.036,-200.981"/>
<polygon fill="black" stroke="black" points="610.158,-202.986 618.326,-209.734 616.149,-199.365 610.158,-202.986"/>
</g>
<!-- AS3320&#45;&gt;AS1239 -->
<g id="edge32" class="edge"><title>AS3320&#45;&gt;AS1239</title>
<path fill="none" stroke="black" d="M548.528,-27.5318C558.839,-26.3068 570.156,-24.9623 580.956,-23.6792"/>
<polygon fill="black" stroke="black" points="581.586,-27.1291 591.103,-22.4737 580.76,-20.178 581.586,-27.1291"/>
</g>
<!-- AS3320&#45;&gt;AS12956 -->
<g id="edge33" class="edge"><title>AS3320&#45;&gt;AS12956</title>
<path fill="none" stroke="black" d="M537.364,-45.2408C553.544,-53.3416 574.475,-63.8214 592.224,-72.7075"/>
<polygon fill="black" stroke="black" points="590.664,-75.8408 601.173,-77.1881 593.798,-69.5814 590.664,-75.8408"/>
</g>
</g>
</svg>
