<?xml version="1.0" encoding="UTF-8" standalone="no"?>
<!DOCTYPE svg PUBLIC "-//W3C//DTD SVG 1.1//EN"
 "http://www.w3.org/Graphics/SVG/1.1/DTD/svg11.dtd">
<!-- Generated by graphviz version 2.38.0 (20140413.2041)
 -->
<!-- Title: AS200986 IPv6 Upstream Graph Pages: 1 -->
<svg width="450pt" height="530pt"
 viewBox="0.00 0.00 450.07 530.00" xmlns="http://www.w3.org/2000/svg" xmlns:xlink="http://www.w3.org/1999/xlink">
<g id="graph0" class="graph" transform="scale(1 1) rotate(0) translate(4 526)">
<title>AS200986 IPv6 Upstream Graph</title>
<polygon fill="white" stroke="none" points="-4,4 -4,-526 446.07,-526 446.07,4 -4,4"/>
<!-- AS200986 -->
<g id="node1" class="node"><title>AS200986</title>
<g id="a_node1"><a xlink:href="/asn/200986" xlink:title="AS200986 ~ D Swarovski Tourism Service GmbH [AT]">
<ellipse fill="#ffffff" stroke="black" cx="48.0957" cy="-223" rx="48.1917" ry="18"/>
<text text-anchor="middle" x="48.0957" y="-219.3" font-family="Times,serif" font-size="14.00" fill="#880000">AS200986</text>
</a>
</g>
</g>
<!-- AS6830 -->
<g id="node2" class="node"><title>AS6830</title>
<g id="a_node2"><a xlink:href="/asn/6830" xlink:title="AS6830 ~ LGI&#45;UPC [AT]">
<ellipse fill="#ffffff" stroke="black" cx="287.131" cy="-281" rx="39.7935" ry="18"/>
<text text-anchor="middle" x="287.131" y="-277.3" font-family="Times,serif" font-size="14.00" fill="#2c94b3">AS6830</text>
</a>
</g>
</g>
<!-- AS200986&#45;&gt;AS6830 -->
<g id="edge1" class="edge"><title>AS200986&#45;&gt;AS6830</title>
<path fill="none" stroke="black" stroke-width="2.025" d="M88.7701,-232.708C131.075,-243.06 197.909,-259.413 241.887,-270.174"/>
<polygon fill="black" stroke="black" stroke-width="2.025" points="241.18,-273.604 251.725,-272.581 242.844,-266.805 241.18,-273.604"/>
</g>
<!-- AS8447 -->
<g id="node3" class="node"><title>AS8447</title>
<g id="a_node3"><a xlink:href="/asn/8447" xlink:title="AS8447 ~ A1 Telekom Austria AG [AT]">
<ellipse fill="#ffffff" stroke="black" cx="171.838" cy="-183" rx="39.7935" ry="18"/>
<text text-anchor="middle" x="171.838" y="-179.3" font-family="Times,serif" font-size="14.00" fill="#2c94b3">AS8447</text>
</a>
</g>
</g>
<!-- AS200986&#45;&gt;AS8447 -->
<g id="edge2" class="edge"><title>AS200986&#45;&gt;AS8447</title>
<path fill="none" stroke="black" stroke-width="4.5" d="M84.964,-211.215C98.9829,-206.609 115.143,-201.299 129.637,-196.537"/>
<polygon fill="black" stroke="black" stroke-width="4.5" points="131.086,-200.206 139.358,-193.343 128.628,-192.724 131.086,-200.206"/>
</g>
<!-- AS3257 -->
<g id="node4" class="node"><title>AS3257</title>
<g id="a_node4"><a xlink:href="/asn/3257" xlink:title="AS3257 ~ GTT [DE]">
<ellipse fill="#ffffff" stroke="black" cx="402.424" cy="-396" rx="39.7935" ry="18"/>
<text text-anchor="middle" x="402.424" y="-392.3" font-family="Times,serif" font-size="14.00" fill="#2c94b3">AS3257</text>
</a>
</g>
</g>
<!-- AS6830&#45;&gt;AS3257 -->
<g id="edge3" class="edge"><title>AS6830&#45;&gt;AS3257</title>
<path fill="none" stroke="black" d="M300.456,-298.017C314.39,-316.622 338.335,-346.746 362.777,-369 365.198,-371.204 367.806,-373.379 370.483,-375.479"/>
<polygon fill="black" stroke="black" points="368.491,-378.359 378.606,-381.513 372.666,-372.74 368.491,-378.359"/>
</g>
<!-- AS3491 -->
<g id="node5" class="node"><title>AS3491</title>
<g id="a_node5"><a xlink:href="/asn/3491" xlink:title="AS3491 ~ PCCW Global, Inc. [US]">
<ellipse fill="#ffffff" stroke="black" cx="402.424" cy="-288" rx="39.7935" ry="18"/>
<text text-anchor="middle" x="402.424" y="-284.3" font-family="Times,serif" font-size="14.00" fill="#2c94b3">AS3491</text>
</a>
</g>
</g>
<!-- AS6830&#45;&gt;AS3491 -->
<g id="edge4" class="edge"><title>AS6830&#45;&gt;AS3491</title>
<path fill="none" stroke="black" d="M326.487,-283.37C334.976,-283.894 344.08,-284.457 352.914,-285.003"/>
<polygon fill="black" stroke="black" points="352.911,-288.509 363.108,-285.633 353.342,-281.522 352.911,-288.509"/>
</g>
<!-- AS1273 -->
<g id="node6" class="node"><title>AS1273</title>
<g id="a_node6"><a xlink:href="/asn/1273" xlink:title="AS1273 ~ Vodafone Group PLC [EU]">
<ellipse fill="#ffffff" stroke="black" cx="402.424" cy="-342" rx="39.7935" ry="18"/>
<text text-anchor="middle" x="402.424" y="-338.3" font-family="Times,serif" font-size="14.00" fill="#2c94b3">AS1273</text>
</a>
</g>
</g>
<!-- AS6830&#45;&gt;AS1273 -->
<g id="edge5" class="edge"><title>AS6830&#45;&gt;AS1273</title>
<path fill="none" stroke="black" d="M313.274,-294.538C329.005,-303.008 349.489,-314.037 366.751,-323.331"/>
<polygon fill="black" stroke="black" points="365.495,-326.63 375.959,-328.289 368.813,-320.467 365.495,-326.63"/>
</g>
<!-- AS7018 -->
<g id="node7" class="node"><title>AS7018</title>
<g id="a_node7"><a xlink:href="/asn/7018" xlink:title="AS7018 ~ AT&amp;T Services, Inc. [US]">
<ellipse fill="#ffffff" stroke="black" cx="402.424" cy="-234" rx="39.7935" ry="18"/>
<text text-anchor="middle" x="402.424" y="-230.3" font-family="Times,serif" font-size="14.00" fill="#2c94b3">AS7018</text>
</a>
</g>
</g>
<!-- AS6830&#45;&gt;AS7018 -->
<g id="edge6" class="edge"><title>AS6830&#45;&gt;AS7018</title>
<path fill="none" stroke="black" d="M317.013,-269.018C330.995,-263.218 347.976,-256.173 363.031,-249.928"/>
<polygon fill="black" stroke="black" points="364.699,-253.025 372.595,-245.96 362.017,-246.559 364.699,-253.025"/>
</g>
<!-- AS2497 -->
<g id="node8" class="node"><title>AS2497</title>
<g id="a_node8"><a xlink:href="/asn/2497" xlink:title="AS2497 ~ Internet Initiative Japan Inc. [JP]">
<ellipse fill="#ffffff" stroke="black" cx="402.424" cy="-126" rx="39.7935" ry="18"/>
<text text-anchor="middle" x="402.424" y="-122.3" font-family="Times,serif" font-size="14.00" fill="#2c94b3">AS2497</text>
</a>
</g>
</g>
<!-- AS6830&#45;&gt;AS2497 -->
<g id="edge7" class="edge"><title>AS6830&#45;&gt;AS2497</title>
<path fill="none" stroke="black" d="M309.212,-265.672C315.498,-260.313 321.982,-253.897 326.777,-247 352.314,-210.268 335.23,-188.249 362.777,-153 364.573,-150.703 366.617,-148.522 368.806,-146.469"/>
<polygon fill="black" stroke="black" points="371.161,-149.064 376.654,-140.005 366.71,-143.661 371.161,-149.064"/>
</g>
<!-- AS701 -->
<g id="node9" class="node"><title>AS701</title>
<g id="a_node9"><a xlink:href="/asn/701" xlink:title="AS701 ~ UUNET [US]">
<ellipse fill="#ffffff" stroke="black" cx="402.424" cy="-504" rx="35.194" ry="18"/>
<text text-anchor="middle" x="402.424" y="-500.3" font-family="Times,serif" font-size="14.00" fill="#2c94b3">AS701</text>
</a>
</g>
</g>
<!-- AS6830&#45;&gt;AS701 -->
<g id="edge8" class="edge"><title>AS6830&#45;&gt;AS701</title>
<path fill="none" stroke="black" d="M297.058,-298.755C305.332,-315.575 317.696,-341.662 326.777,-365 345.738,-413.727 331.721,-434.937 362.777,-477 364.771,-479.7 367.117,-482.227 369.651,-484.568"/>
<polygon fill="black" stroke="black" points="367.675,-487.47 377.658,-491.019 372.067,-482.019 367.675,-487.47"/>
</g>
<!-- AS6453 -->
<g id="node10" class="node"><title>AS6453</title>
<g id="a_node10"><a xlink:href="/asn/6453" xlink:title="AS6453 ~ TATA COMMUNICATIONS (AMERICA) INC [US]">
<ellipse fill="#ffffff" stroke="black" cx="402.424" cy="-450" rx="39.7935" ry="18"/>
<text text-anchor="middle" x="402.424" y="-446.3" font-family="Times,serif" font-size="14.00" fill="#2c94b3">AS6453</text>
</a>
</g>
</g>
<!-- AS6830&#45;&gt;AS6453 -->
<g id="edge9" class="edge"><title>AS6830&#45;&gt;AS6453</title>
<path fill="none" stroke="black" d="M296.12,-298.644C311.43,-332.002 344.959,-402.786 362.777,-423 364.756,-425.245 366.958,-427.399 369.279,-429.443"/>
<polygon fill="black" stroke="black" points="367.465,-432.472 377.477,-435.938 371.812,-426.985 367.465,-432.472"/>
</g>
<!-- AS2914 -->
<g id="node11" class="node"><title>AS2914</title>
<g id="a_node11"><a xlink:href="/asn/2914" xlink:title="AS2914 ~ NTT America, Inc. [US]">
<ellipse fill="#ffffff" stroke="black" cx="402.424" cy="-180" rx="39.7935" ry="18"/>
<text text-anchor="middle" x="402.424" y="-176.3" font-family="Times,serif" font-size="14.00" fill="#2c94b3">AS2914</text>
</a>
</g>
</g>
<!-- AS6830&#45;&gt;AS2914 -->
<g id="edge10" class="edge"><title>AS6830&#45;&gt;AS2914</title>
<path fill="none" stroke="black" d="M307.007,-265.17C313.427,-259.583 320.55,-253.158 326.777,-247 343.785,-230.183 344.858,-222.841 362.777,-207 365.23,-204.832 367.86,-202.682 370.552,-200.597"/>
<polygon fill="black" stroke="black" points="372.728,-203.342 378.697,-194.589 368.572,-197.709 372.728,-203.342"/>
</g>
<!-- AS174 -->
<g id="node12" class="node"><title>AS174</title>
<g id="a_node12"><a xlink:href="/asn/174" xlink:title="AS174 ~ Cogent Communications [US]">
<ellipse fill="#ffffff" stroke="black" cx="402.424" cy="-18" rx="35.194" ry="18"/>
<text text-anchor="middle" x="402.424" y="-14.3" font-family="Times,serif" font-size="14.00" fill="#2c94b3">AS174</text>
</a>
</g>
</g>
<!-- AS6830&#45;&gt;AS174 -->
<g id="edge11" class="edge"><title>AS6830&#45;&gt;AS174</title>
<path fill="none" stroke="black" d="M310.021,-266.179C316.351,-260.848 322.656,-254.32 326.777,-247 371.52,-167.538 313.669,-121.84 362.777,-45 364.585,-42.1724 366.804,-39.558 369.258,-37.161"/>
<polygon fill="black" stroke="black" points="371.676,-39.7025 377.142,-30.6264 367.209,-34.3131 371.676,-39.7025"/>
</g>
<!-- AS3320 -->
<g id="node13" class="node"><title>AS3320</title>
<g id="a_node13"><a xlink:href="/asn/3320" xlink:title="AS3320 ~ DTAG [DE]">
<ellipse fill="#ffffff" stroke="black" cx="287.131" cy="-392" rx="39.7935" ry="18"/>
<text text-anchor="middle" x="287.131" y="-388.3" font-family="Times,serif" font-size="14.00" fill="#2c94b3">AS3320</text>
</a>
</g>
</g>
<!-- AS8447&#45;&gt;AS3320 -->
<g id="edge12" class="edge"><title>AS8447&#45;&gt;AS3320</title>
<path fill="none" stroke="black" stroke-width="2.7" d="M182.302,-200.46C202.17,-237.112 248.324,-322.254 271.826,-365.61"/>
<polygon fill="black" stroke="black" stroke-width="2.7" points="268.771,-367.32 276.614,-374.443 274.925,-363.984 268.771,-367.32"/>
</g>
<!-- AS1299 -->
<g id="node14" class="node"><title>AS1299</title>
<g id="a_node14"><a xlink:href="/asn/1299" xlink:title="AS1299 ~ Telia Carrier [EU]">
<ellipse fill="#ffffff" stroke="black" cx="287.131" cy="-166" rx="39.7935" ry="18"/>
<text text-anchor="middle" x="287.131" y="-162.3" font-family="Times,serif" font-size="14.00" fill="#2c94b3">AS1299</text>
</a>
</g>
</g>
<!-- AS8447&#45;&gt;AS1299 -->
<g id="edge13" class="edge"><title>AS8447&#45;&gt;AS1299</title>
<path fill="none" stroke="black" stroke-width="4.5" d="M209.621,-177.481C219.02,-176.07 229.254,-174.535 239.09,-173.059"/>
<polygon fill="black" stroke="black" stroke-width="4.5" points="239.84,-176.928 249.145,-171.55 238.671,-169.14 239.84,-176.928"/>
</g>
<!-- AS6939 -->
<g id="node15" class="node"><title>AS6939</title>
<g id="a_node15"><a xlink:href="/asn/6939" xlink:title="AS6939 ~ Hurricane Electric LLC [US]">
<ellipse fill="#ffffff" stroke="black" cx="287.131" cy="-220" rx="39.7935" ry="18"/>
<text text-anchor="middle" x="287.131" y="-216.3" font-family="Times,serif" font-size="14.00" fill="#2c94b3">AS6939</text>
</a>
</g>
</g>
<!-- AS8447&#45;&gt;AS6939 -->
<g id="edge14" class="edge"><title>AS8447&#45;&gt;AS6939</title>
<path fill="none" stroke="black" stroke-width="4.5" d="M204.396,-193.307C216.814,-197.362 231.247,-202.076 244.498,-206.403"/>
<polygon fill="black" stroke="black" stroke-width="4.5" points="243.62,-210.259 254.349,-209.62 246.065,-202.773 243.62,-210.259"/>
</g>
<!-- AS3356 -->
<g id="node16" class="node"><title>AS3356</title>
<g id="a_node16"><a xlink:href="/asn/3356" xlink:title="AS3356 ~ Level 3 Parent, LLC [US]">
<ellipse fill="#ffffff" stroke="black" cx="287.131" cy="-112" rx="39.7935" ry="18"/>
<text text-anchor="middle" x="287.131" y="-108.3" font-family="Times,serif" font-size="14.00" fill="#2c94b3">AS3356</text>
</a>
</g>
</g>
<!-- AS8447&#45;&gt;AS3356 -->
<g id="edge15" class="edge"><title>AS8447&#45;&gt;AS3356</title>
<path fill="none" stroke="black" stroke-width="4.5" d="M195.764,-168.632C212.545,-158.116 235.533,-143.71 254.123,-132.059"/>
<polygon fill="black" stroke="black" stroke-width="4.5" points="256.467,-135.237 262.85,-126.59 252.285,-128.564 256.467,-135.237"/>
</g>
<!-- AS6762 -->
<g id="node17" class="node"><title>AS6762</title>
<g id="a_node17"><a xlink:href="/asn/6762" xlink:title="AS6762 ~ TELECOM ITALIA SPARKLE S.p.A. [IT]">
<ellipse fill="#ffffff" stroke="black" cx="287.131" cy="-45" rx="39.7935" ry="18"/>
<text text-anchor="middle" x="287.131" y="-41.3" font-family="Times,serif" font-size="14.00" fill="#2c94b3">AS6762</text>
</a>
</g>
</g>
<!-- AS8447&#45;&gt;AS6762 -->
<g id="edge16" class="edge"><title>AS8447&#45;&gt;AS6762</title>
<path fill="none" stroke="black" stroke-width="1.8" d="M184.937,-165.884C199.243,-145.945 224.075,-112.259 247.484,-85 252.134,-79.5859 257.32,-73.9641 262.345,-68.7056"/>
<polygon fill="black" stroke="black" stroke-width="1.8" points="265.054,-70.9398 269.511,-61.328 260.033,-66.0626 265.054,-70.9398"/>
</g>
<!-- AS3320&#45;&gt;AS701 -->
<g id="edge17" class="edge"><title>AS3320&#45;&gt;AS701</title>
<path fill="none" stroke="black" d="M301.083,-409.051C315.183,-427.029 338.922,-455.652 362.777,-477 365.419,-479.364 368.273,-481.701 371.192,-483.952"/>
<polygon fill="black" stroke="black" points="369.334,-486.93 379.468,-490.022 373.474,-481.286 369.334,-486.93"/>
</g>
<!-- AS3320&#45;&gt;AS6453 -->
<g id="edge19" class="edge"><title>AS3320&#45;&gt;AS6453</title>
<path fill="none" stroke="black" d="M314.123,-405.306C329.667,-413.264 349.617,-423.478 366.522,-432.132"/>
<polygon fill="black" stroke="black" points="365.057,-435.314 375.553,-436.756 368.247,-429.083 365.057,-435.314"/>
</g>
<!-- AS3320&#45;&gt;AS2914 -->
<g id="edge18" class="edge"><title>AS3320&#45;&gt;AS2914</title>
<path fill="none" stroke="black" d="M296.734,-374.501C304.889,-357.646 317.27,-331.341 326.777,-308 344.754,-263.866 333.873,-244.889 362.777,-207 364.546,-204.682 366.571,-202.486 368.746,-200.423"/>
<polygon fill="black" stroke="black" points="371.103,-203.015 376.569,-193.939 366.636,-197.626 371.103,-203.015"/>
</g>
<!-- AS1299&#45;&gt;AS7018 -->
<g id="edge20" class="edge"><title>AS1299&#45;&gt;AS7018</title>
<path fill="none" stroke="black" d="M311.881,-180.255C328.497,-190.229 350.894,-203.671 369.13,-214.617"/>
<polygon fill="black" stroke="black" points="367.33,-217.618 377.705,-219.764 370.932,-211.616 367.33,-217.618"/>
</g>
<!-- AS1299&#45;&gt;AS2914 -->
<g id="edge23" class="edge"><title>AS1299&#45;&gt;AS2914</title>
<path fill="none" stroke="black" d="M325.541,-170.623C334.629,-171.746 344.466,-172.962 353.951,-174.134"/>
<polygon fill="black" stroke="black" points="353.699,-177.629 364.053,-175.382 354.558,-170.682 353.699,-177.629"/>
</g>
<!-- AS1299&#45;&gt;AS174 -->
<g id="edge22" class="edge"><title>AS1299&#45;&gt;AS174</title>
<path fill="none" stroke="black" d="M312.9,-151.995C317.985,-148.272 322.947,-143.901 326.777,-139 354.325,-103.751 335.23,-80.2492 362.777,-45 364.844,-42.3559 367.24,-39.8663 369.806,-37.5493"/>
<polygon fill="black" stroke="black" points="372.218,-40.1027 377.86,-31.1351 367.857,-34.627 372.218,-40.1027"/>
</g>
<!-- AS209 -->
<g id="node18" class="node"><title>AS209</title>
<g id="a_node18"><a xlink:href="/asn/209" xlink:title="AS209 ~ CenturyLink Communications, LLC [US]">
<ellipse fill="#ffffff" stroke="black" cx="402.424" cy="-72" rx="35.194" ry="18"/>
<text text-anchor="middle" x="402.424" y="-68.3" font-family="Times,serif" font-size="14.00" fill="#2c94b3">AS209</text>
</a>
</g>
</g>
<!-- AS1299&#45;&gt;AS209 -->
<g id="edge21" class="edge"><title>AS1299&#45;&gt;AS209</title>
<path fill="none" stroke="black" d="M310.858,-151.411C316.258,-147.6 321.872,-143.337 326.777,-139 344.697,-123.159 344.858,-114.841 362.777,-99 365.433,-96.6521 368.297,-94.3258 371.222,-92.081"/>
<polygon fill="black" stroke="black" points="373.502,-94.7498 379.505,-86.0202 369.368,-89.1005 373.502,-94.7498"/>
</g>
<!-- AS6939&#45;&gt;AS3491 -->
<g id="edge24" class="edge"><title>AS6939&#45;&gt;AS3491</title>
<path fill="none" stroke="black" d="M311.881,-234.255C328.497,-244.229 350.894,-257.671 369.13,-268.617"/>
<polygon fill="black" stroke="black" points="367.33,-271.618 377.705,-273.764 370.932,-265.616 367.33,-271.618"/>
</g>
<!-- AS6939&#45;&gt;AS1273 -->
<g id="edge27" class="edge"><title>AS6939&#45;&gt;AS1273</title>
<path fill="none" stroke="black" d="M308.141,-235.496C314.507,-240.956 321.309,-247.39 326.777,-254 346.845,-278.255 341.387,-291.903 362.777,-315 364.811,-317.196 367.052,-319.315 369.399,-321.335"/>
<polygon fill="black" stroke="black" points="367.613,-324.381 377.646,-327.786 371.926,-318.867 367.613,-324.381"/>
</g>
<!-- AS6939&#45;&gt;AS2497 -->
<g id="edge26" class="edge"><title>AS6939&#45;&gt;AS2497</title>
<path fill="none" stroke="black" d="M310.858,-205.411C316.258,-201.6 321.872,-197.337 326.777,-193 344.697,-177.159 344.858,-168.841 362.777,-153 365.23,-150.832 367.86,-148.682 370.552,-146.597"/>
<polygon fill="black" stroke="black" points="372.728,-149.342 378.697,-140.589 368.572,-143.709 372.728,-149.342"/>
</g>
<!-- AS6939&#45;&gt;AS2914 -->
<g id="edge28" class="edge"><title>AS6939&#45;&gt;AS2914</title>
<path fill="none" stroke="black" d="M319.089,-209.07C331.952,-204.528 347.058,-199.195 360.795,-194.345"/>
<polygon fill="black" stroke="black" points="362.239,-197.547 370.504,-190.917 359.909,-190.946 362.239,-197.547"/>
</g>
<!-- AS6939&#45;&gt;AS209 -->
<g id="edge25" class="edge"><title>AS6939&#45;&gt;AS209</title>
<path fill="none" stroke="black" d="M312.9,-205.995C317.985,-202.272 322.947,-197.901 326.777,-193 354.325,-157.751 335.23,-134.249 362.777,-99 364.844,-96.3559 367.24,-93.8663 369.806,-91.5493"/>
<polygon fill="black" stroke="black" points="372.218,-94.1027 377.86,-85.1351 367.857,-88.627 372.218,-94.1027"/>
</g>
<!-- AS3356&#45;&gt;AS2497 -->
<g id="edge31" class="edge"><title>AS3356&#45;&gt;AS2497</title>
<path fill="none" stroke="black" d="M325.541,-116.623C334.629,-117.746 344.466,-118.962 353.951,-120.134"/>
<polygon fill="black" stroke="black" points="353.699,-123.629 364.053,-121.382 354.558,-116.682 353.699,-123.629"/>
</g>
<!-- AS3356&#45;&gt;AS2914 -->
<g id="edge29" class="edge"><title>AS3356&#45;&gt;AS2914</title>
<path fill="none" stroke="black" d="M311.881,-126.255C328.497,-136.229 350.894,-149.671 369.13,-160.617"/>
<polygon fill="black" stroke="black" points="367.33,-163.618 377.705,-165.764 370.932,-157.616 367.33,-163.618"/>
</g>
<!-- AS3356&#45;&gt;AS174 -->
<g id="edge32" class="edge"><title>AS3356&#45;&gt;AS174</title>
<path fill="none" stroke="black" d="M305.106,-95.6798C319.908,-81.716 342.177,-61.3422 362.777,-45 365.707,-42.676 368.822,-40.3216 371.962,-38.0216"/>
<polygon fill="black" stroke="black" points="374.123,-40.7792 380.227,-32.1188 370.055,-35.083 374.123,-40.7792"/>
</g>
<!-- AS3356&#45;&gt;AS209 -->
<g id="edge30" class="edge"><title>AS3356&#45;&gt;AS209</title>
<path fill="none" stroke="black" d="M319.089,-101.07C332.716,-96.2585 348.86,-90.5587 363.226,-85.4864"/>
<polygon fill="black" stroke="black" points="364.571,-88.7233 372.835,-82.0937 362.24,-82.1227 364.571,-88.7233"/>
</g>
<!-- AS6762&#45;&gt;AS174 -->
<g id="edge33" class="edge"><title>AS6762&#45;&gt;AS174</title>
<path fill="none" stroke="black" d="M322.738,-36.7524C334.533,-33.9415 347.837,-30.7708 360.105,-27.8471"/>
<polygon fill="black" stroke="black" points="361.194,-31.1858 370.11,-25.4628 359.571,-24.3765 361.194,-31.1858"/>
</g>
</g>
</svg>
