<?xml version="1.0" encoding="UTF-8" standalone="no"?>
<!DOCTYPE svg PUBLIC "-//W3C//DTD SVG 1.1//EN"
 "http://www.w3.org/Graphics/SVG/1.1/DTD/svg11.dtd">
<!-- Generated by graphviz version 2.38.0 (20140413.2041)
 -->
<!-- Title: AS200986 IPv4 Upstream Graph Pages: 1 -->
<svg width="450pt" height="619pt"
 viewBox="0.00 0.00 450.07 619.00" xmlns="http://www.w3.org/2000/svg" xmlns:xlink="http://www.w3.org/1999/xlink">
<g id="graph0" class="graph" transform="scale(1 1) rotate(0) translate(4 615)">
<title>AS200986 IPv4 Upstream Graph</title>
<polygon fill="white" stroke="none" points="-4,4 -4,-615 446.07,-615 446.07,4 -4,4"/>
<!-- AS200986 -->
<g id="node1" class="node"><title>AS200986</title>
<g id="a_node1"><a xlink:href="/asn/200986" xlink:title="AS200986 ~ D Swarovski Tourism Service GmbH [AT]">
<ellipse fill="#ffffff" stroke="black" cx="48.0957" cy="-336" rx="48.1917" ry="18"/>
<text text-anchor="middle" x="48.0957" y="-332.3" font-family="Times,serif" font-size="14.00" fill="#880000">AS200986</text>
</a>
</g>
</g>
<!-- AS6830 -->
<g id="node2" class="node"><title>AS6830</title>
<g id="a_node2"><a xlink:href="/asn/6830" xlink:title="AS6830 ~ LGI&#45;UPC [AT]">
<ellipse fill="#ffffff" stroke="black" cx="171.838" cy="-252" rx="39.7935" ry="18"/>
<text text-anchor="middle" x="171.838" y="-248.3" font-family="Times,serif" font-size="14.00" fill="#2c94b3">AS6830</text>
</a>
</g>
</g>
<!-- AS200986&#45;&gt;AS6830 -->
<g id="edge1" class="edge"><title>AS200986&#45;&gt;AS6830</title>
<path fill="none" stroke="black" stroke-width="2.60526" d="M71.9945,-320.2C91.4876,-306.75 119.631,-287.332 140.906,-272.653"/>
<polygon fill="black" stroke="black" stroke-width="2.60526" points="143.025,-275.443 149.268,-266.883 139.049,-269.681 143.025,-275.443"/>
</g>
<!-- AS8447 -->
<g id="node3" class="node"><title>AS8447</title>
<g id="a_node3"><a xlink:href="/asn/8447" xlink:title="AS8447 ~ A1 Telekom Austria AG [AT]">
<ellipse fill="#ffffff" stroke="black" cx="171.838" cy="-401" rx="39.7935" ry="18"/>
<text text-anchor="middle" x="171.838" y="-397.3" font-family="Times,serif" font-size="14.00" fill="#2c94b3">AS8447</text>
</a>
</g>
</g>
<!-- AS200986&#45;&gt;AS8447 -->
<g id="edge2" class="edge"><title>AS200986&#45;&gt;AS8447</title>
<path fill="none" stroke="black" stroke-width="4.5" d="M76.4171,-350.587C94.1295,-360.044 117.353,-372.444 136.336,-382.579"/>
<polygon fill="black" stroke="black" stroke-width="4.5" points="134.596,-386.113 145.272,-387.35 138.305,-379.166 134.596,-386.113"/>
</g>
<!-- AS2914 -->
<g id="node4" class="node"><title>AS2914</title>
<g id="a_node4"><a xlink:href="/asn/2914" xlink:title="AS2914 ~ NTT America, Inc. [US]">
<ellipse fill="#ffffff" stroke="black" cx="402.424" cy="-294" rx="39.7935" ry="18"/>
<text text-anchor="middle" x="402.424" y="-290.3" font-family="Times,serif" font-size="14.00" fill="#2c94b3">AS2914</text>
</a>
</g>
</g>
<!-- AS6830&#45;&gt;AS2914 -->
<g id="edge3" class="edge"><title>AS6830&#45;&gt;AS2914</title>
<path fill="none" stroke="black" d="M208.806,-258.609C248.381,-265.88 312.096,-277.587 355.313,-285.528"/>
<polygon fill="black" stroke="black" points="354.821,-288.996 365.289,-287.361 356.086,-282.111 354.821,-288.996"/>
</g>
<!-- AS7018 -->
<g id="node5" class="node"><title>AS7018</title>
<g id="a_node5"><a xlink:href="/asn/7018" xlink:title="AS7018 ~ AT&amp;T Services, Inc. [US]">
<ellipse fill="#ffffff" stroke="black" cx="402.424" cy="-235" rx="39.7935" ry="18"/>
<text text-anchor="middle" x="402.424" y="-231.3" font-family="Times,serif" font-size="14.00" fill="#2c94b3">AS7018</text>
</a>
</g>
</g>
<!-- AS6830&#45;&gt;AS7018 -->
<g id="edge4" class="edge"><title>AS6830&#45;&gt;AS7018</title>
<path fill="none" stroke="black" d="M211.098,-249.155C250.08,-246.256 310.657,-241.75 352.968,-238.604"/>
<polygon fill="black" stroke="black" points="353.326,-242.087 363.039,-237.855 352.807,-235.106 353.326,-242.087"/>
</g>
<!-- AS3257 -->
<g id="node6" class="node"><title>AS3257</title>
<g id="a_node6"><a xlink:href="/asn/3257" xlink:title="AS3257 ~ GTT [DE]">
<ellipse fill="#ffffff" stroke="black" cx="402.424" cy="-351" rx="39.7935" ry="18"/>
<text text-anchor="middle" x="402.424" y="-347.3" font-family="Times,serif" font-size="14.00" fill="#2c94b3">AS3257</text>
</a>
</g>
</g>
<!-- AS6830&#45;&gt;AS3257 -->
<g id="edge5" class="edge"><title>AS6830&#45;&gt;AS3257</title>
<path fill="none" stroke="black" d="M199.656,-264.926C213.811,-271.66 231.513,-279.94 247.484,-287 286.301,-304.159 331.154,-322.658 362.395,-335.333"/>
<polygon fill="black" stroke="black" points="361.452,-338.727 372.034,-339.234 364.078,-332.238 361.452,-338.727"/>
</g>
<!-- AS6461 -->
<g id="node7" class="node"><title>AS6461</title>
<g id="a_node7"><a xlink:href="/asn/6461" xlink:title="AS6461 ~ Zayo Bandwidth [US]">
<ellipse fill="#ffffff" stroke="black" cx="287.131" cy="-447" rx="39.7935" ry="18"/>
<text text-anchor="middle" x="287.131" y="-443.3" font-family="Times,serif" font-size="14.00" fill="#2c94b3">AS6461</text>
</a>
</g>
</g>
<!-- AS6830&#45;&gt;AS6461 -->
<g id="edge6" class="edge"><title>AS6830&#45;&gt;AS6461</title>
<path fill="none" stroke="black" d="M178.144,-270.059C188.057,-301.723 211.681,-368.324 247.484,-415 250.243,-418.596 253.477,-422.053 256.878,-425.277"/>
<polygon fill="black" stroke="black" points="254.646,-427.975 264.474,-431.931 259.258,-422.709 254.646,-427.975"/>
</g>
<!-- AS6453 -->
<g id="node8" class="node"><title>AS6453</title>
<g id="a_node8"><a xlink:href="/asn/6453" xlink:title="AS6453 ~ TATA COMMUNICATIONS (AMERICA) INC [US]">
<ellipse fill="#ffffff" stroke="black" cx="287.131" cy="-133" rx="39.7935" ry="18"/>
<text text-anchor="middle" x="287.131" y="-129.3" font-family="Times,serif" font-size="14.00" fill="#2c94b3">AS6453</text>
</a>
</g>
</g>
<!-- AS6830&#45;&gt;AS6453 -->
<g id="edge7" class="edge"><title>AS6830&#45;&gt;AS6453</title>
<path fill="none" stroke="black" d="M184.514,-234.858C198.235,-215.422 222.339,-183.401 247.484,-160 249.881,-157.77 252.472,-155.577 255.139,-153.465"/>
<polygon fill="black" stroke="black" points="257.326,-156.2 263.244,-147.413 253.138,-150.591 257.326,-156.2"/>
</g>
<!-- AS2497 -->
<g id="node9" class="node"><title>AS2497</title>
<g id="a_node9"><a xlink:href="/asn/2497" xlink:title="AS2497 ~ Internet Initiative Japan Inc. [JP]">
<ellipse fill="#ffffff" stroke="black" cx="402.424" cy="-87" rx="39.7935" ry="18"/>
<text text-anchor="middle" x="402.424" y="-83.3" font-family="Times,serif" font-size="14.00" fill="#2c94b3">AS2497</text>
</a>
</g>
</g>
<!-- AS6830&#45;&gt;AS2497 -->
<g id="edge8" class="edge"><title>AS6830&#45;&gt;AS2497</title>
<path fill="none" stroke="black" d="M175.005,-233.883C180.264,-198.962 197.208,-122.885 247.484,-90 279.781,-68.8747 324.611,-70.6231 357.565,-76.1643"/>
<polygon fill="black" stroke="black" points="357.345,-79.6833 367.816,-78.0724 358.626,-72.8015 357.345,-79.6833"/>
</g>
<!-- AS174 -->
<g id="node10" class="node"><title>AS174</title>
<g id="a_node10"><a xlink:href="/asn/174" xlink:title="AS174 ~ Cogent Communications [US]">
<ellipse fill="#ffffff" stroke="black" cx="402.424" cy="-480" rx="35.194" ry="18"/>
<text text-anchor="middle" x="402.424" y="-476.3" font-family="Times,serif" font-size="14.00" fill="#2c94b3">AS174</text>
</a>
</g>
</g>
<!-- AS6830&#45;&gt;AS174 -->
<g id="edge9" class="edge"><title>AS6830&#45;&gt;AS174</title>
<path fill="none" stroke="black" d="M179.04,-270.059C187.068,-293.759 201.24,-336.723 211.484,-374 230.112,-441.777 192.415,-484.319 247.484,-528 275.095,-549.9 292.965,-537.933 326.777,-528 331.937,-526.484 353.672,-512.345 372.367,-499.802"/>
<polygon fill="black" stroke="black" points="374.338,-502.695 380.673,-494.202 370.424,-496.89 374.338,-502.695"/>
</g>
<!-- AS3491 -->
<g id="node11" class="node"><title>AS3491</title>
<g id="a_node11"><a xlink:href="/asn/3491" xlink:title="AS3491 ~ PCCW Global, Inc. [US]">
<ellipse fill="#ffffff" stroke="black" cx="402.424" cy="-405" rx="39.7935" ry="18"/>
<text text-anchor="middle" x="402.424" y="-401.3" font-family="Times,serif" font-size="14.00" fill="#2c94b3">AS3491</text>
</a>
</g>
</g>
<!-- AS6830&#45;&gt;AS3491 -->
<g id="edge10" class="edge"><title>AS6830&#45;&gt;AS3491</title>
<path fill="none" stroke="black" d="M177.702,-270.188C186.444,-299.054 207.718,-354.856 247.484,-382 278.297,-403.032 320.647,-408.069 353.128,-408.245"/>
<polygon fill="black" stroke="black" points="353.335,-411.743 363.301,-408.146 353.267,-404.744 353.335,-411.743"/>
</g>
<!-- AS3320 -->
<g id="node12" class="node"><title>AS3320</title>
<g id="a_node12"><a xlink:href="/asn/3320" xlink:title="AS3320 ~ DTAG [DE]">
<ellipse fill="#ffffff" stroke="black" cx="287.131" cy="-187" rx="39.7935" ry="18"/>
<text text-anchor="middle" x="287.131" y="-183.3" font-family="Times,serif" font-size="14.00" fill="#2c94b3">AS3320</text>
</a>
</g>
</g>
<!-- AS6830&#45;&gt;AS3320 -->
<g id="edge11" class="edge"><title>AS6830&#45;&gt;AS3320</title>
<path fill="none" stroke="black" d="M197.142,-238.056C213.42,-228.717 235.056,-216.303 252.919,-206.055"/>
<polygon fill="black" stroke="black" points="254.935,-208.933 261.867,-200.921 251.451,-202.862 254.935,-208.933"/>
</g>
<!-- AS701 -->
<g id="node13" class="node"><title>AS701</title>
<g id="a_node13"><a xlink:href="/asn/701" xlink:title="AS701 ~ UUNET [US]">
<ellipse fill="#ffffff" stroke="black" cx="402.424" cy="-18" rx="35.194" ry="18"/>
<text text-anchor="middle" x="402.424" y="-14.3" font-family="Times,serif" font-size="14.00" fill="#2c94b3">AS701</text>
</a>
</g>
</g>
<!-- AS6830&#45;&gt;AS701 -->
<g id="edge12" class="edge"><title>AS6830&#45;&gt;AS701</title>
<path fill="none" stroke="black" d="M175.164,-233.844C180.789,-197.376 198.48,-114.808 247.484,-69 277.587,-40.8609 323.586,-28.2271 357.465,-22.5669"/>
<polygon fill="black" stroke="black" points="358.203,-25.9949 367.559,-21.0247 357.146,-19.0752 358.203,-25.9949"/>
</g>
<!-- AS1239 -->
<g id="node14" class="node"><title>AS1239</title>
<g id="a_node14"><a xlink:href="/asn/1239" xlink:title="AS1239 ~ Sprint [US]">
<ellipse fill="#ffffff" stroke="black" cx="402.424" cy="-171" rx="39.7935" ry="18"/>
<text text-anchor="middle" x="402.424" y="-167.3" font-family="Times,serif" font-size="14.00" fill="#2c94b3">AS1239</text>
</a>
</g>
</g>
<!-- AS6830&#45;&gt;AS1239 -->
<g id="edge13" class="edge"><title>AS6830&#45;&gt;AS1239</title>
<path fill="none" stroke="black" d="M175.861,-234.031C182.379,-201.683 201.103,-134.378 247.484,-106 277.545,-87.6073 293.773,-93.6443 326.777,-106 348.232,-114.032 367.584,-131.325 381.206,-146.056"/>
<polygon fill="black" stroke="black" points="378.908,-148.74 388.161,-153.902 384.146,-144.097 378.908,-148.74"/>
</g>
<!-- AS8447&#45;&gt;AS6461 -->
<g id="edge18" class="edge"><title>AS8447&#45;&gt;AS6461</title>
<path fill="none" stroke="black" stroke-width="0.75" d="M202.014,-412.846C215.889,-418.48 232.667,-425.292 247.576,-431.346"/>
<polygon fill="black" stroke="black" stroke-width="0.75" points="246.472,-434.675 257.054,-435.194 249.105,-428.189 246.472,-434.675"/>
</g>
<!-- AS8447&#45;&gt;AS3320 -->
<g id="edge17" class="edge"><title>AS8447&#45;&gt;AS3320</title>
<path fill="none" stroke="black" stroke-width="3.75" d="M182.109,-383.487C201.951,-346.009 248.628,-257.839 272.115,-213.475"/>
<polygon fill="black" stroke="black" stroke-width="3.75" points="275.305,-214.93 276.89,-204.454 269.118,-211.655 275.305,-214.93"/>
</g>
<!-- AS1299 -->
<g id="node15" class="node"><title>AS1299</title>
<g id="a_node15"><a xlink:href="/asn/1299" xlink:title="AS1299 ~ Telia Carrier [EU]">
<ellipse fill="#ffffff" stroke="black" cx="287.131" cy="-355" rx="39.7935" ry="18"/>
<text text-anchor="middle" x="287.131" y="-351.3" font-family="Times,serif" font-size="14.00" fill="#2c94b3">AS1299</text>
</a>
</g>
</g>
<!-- AS8447&#45;&gt;AS1299 -->
<g id="edge14" class="edge"><title>AS8447&#45;&gt;AS1299</title>
<path fill="none" stroke="black" stroke-width="4.5" d="M202.014,-389.154C215.889,-383.52 232.667,-376.708 247.576,-370.654"/>
<polygon fill="black" stroke="black" stroke-width="4.5" points="249.27,-374.216 257.054,-366.806 246.307,-366.92 249.27,-374.216"/>
</g>
<!-- AS3356 -->
<g id="node16" class="node"><title>AS3356</title>
<g id="a_node16"><a xlink:href="/asn/3356" xlink:title="AS3356 ~ Level 3 Parent, LLC [US]">
<ellipse fill="#ffffff" stroke="black" cx="287.131" cy="-501" rx="39.7935" ry="18"/>
<text text-anchor="middle" x="287.131" y="-497.3" font-family="Times,serif" font-size="14.00" fill="#2c94b3">AS3356</text>
</a>
</g>
</g>
<!-- AS8447&#45;&gt;AS3356 -->
<g id="edge15" class="edge"><title>AS8447&#45;&gt;AS3356</title>
<path fill="none" stroke="black" stroke-width="4.5" d="M188.143,-417.455C202.756,-432.796 225.712,-455.956 247.484,-474 250.005,-476.089 252.682,-478.184 255.404,-480.233"/>
<polygon fill="black" stroke="black" stroke-width="4.5" points="253.192,-483.493 263.596,-486.187 257.821,-477.123 253.192,-483.493"/>
</g>
<!-- AS6762 -->
<g id="node17" class="node"><title>AS6762</title>
<g id="a_node17"><a xlink:href="/asn/6762" xlink:title="AS6762 ~ TELECOM ITALIA SPARKLE S.p.A. [IT]">
<ellipse fill="#ffffff" stroke="black" cx="287.131" cy="-593" rx="39.7935" ry="18"/>
<text text-anchor="middle" x="287.131" y="-589.3" font-family="Times,serif" font-size="14.00" fill="#2c94b3">AS6762</text>
</a>
</g>
</g>
<!-- AS8447&#45;&gt;AS6762 -->
<g id="edge16" class="edge"><title>AS8447&#45;&gt;AS6762</title>
<path fill="none" stroke="black" stroke-width="0.75" d="M178.382,-419.218C188.509,-450.486 212.25,-515.401 247.484,-561 250.256,-564.587 253.497,-568.037 256.903,-571.259"/>
<polygon fill="black" stroke="black" stroke-width="0.75" points="254.672,-573.958 264.502,-577.91 259.282,-568.69 254.672,-573.958"/>
</g>
<!-- AS3320&#45;&gt;AS2914 -->
<g id="edge30" class="edge"><title>AS3320&#45;&gt;AS2914</title>
<path fill="none" stroke="black" d="M303.712,-203.549C318.519,-219.058 341.608,-242.683 362.777,-262 366.369,-265.277 370.231,-268.646 374.076,-271.912"/>
<polygon fill="black" stroke="black" points="371.931,-274.68 381.849,-278.406 376.419,-269.308 371.931,-274.68"/>
</g>
<!-- AS3320&#45;&gt;AS2497 -->
<g id="edge29" class="edge"><title>AS3320&#45;&gt;AS2497</title>
<path fill="none" stroke="black" d="M310.665,-172.187C316.071,-168.382 321.736,-164.178 326.777,-160 345.318,-144.635 364.717,-125.559 379.091,-110.761"/>
<polygon fill="black" stroke="black" points="381.709,-113.088 386.118,-103.455 376.664,-108.236 381.709,-113.088"/>
</g>
<!-- AS3320&#45;&gt;AS701 -->
<g id="edge31" class="edge"><title>AS3320&#45;&gt;AS701</title>
<path fill="none" stroke="black" d="M312.974,-173.052C318.055,-169.326 322.997,-164.94 326.777,-160 355.487,-122.489 338.301,-100.401 362.777,-60 366.801,-53.3578 371.984,-46.846 377.238,-41.0074"/>
<polygon fill="black" stroke="black" points="380.003,-43.1779 384.346,-33.5138 374.925,-38.3607 380.003,-43.1779"/>
</g>
<!-- AS3320&#45;&gt;AS1239 -->
<g id="edge32" class="edge"><title>AS3320&#45;&gt;AS1239</title>
<path fill="none" stroke="black" d="M325.227,-181.761C334.519,-180.449 344.611,-179.024 354.318,-177.653"/>
<polygon fill="black" stroke="black" points="354.832,-181.115 364.244,-176.251 353.853,-174.184 354.832,-181.115"/>
</g>
<!-- AS1299&#45;&gt;AS2914 -->
<g id="edge27" class="edge"><title>AS1299&#45;&gt;AS2914</title>
<path fill="none" stroke="black" d="M313.274,-341.462C329.005,-332.992 349.489,-321.963 366.751,-312.669"/>
<polygon fill="black" stroke="black" points="368.813,-315.533 375.959,-307.711 365.495,-309.37 368.813,-315.533"/>
</g>
<!-- AS1299&#45;&gt;AS7018 -->
<g id="edge25" class="edge"><title>AS1299&#45;&gt;AS7018</title>
<path fill="none" stroke="black" d="M301.069,-338.021C315.345,-319.714 339.407,-290.094 362.777,-267 366.073,-263.743 369.667,-260.459 373.294,-257.298"/>
<polygon fill="black" stroke="black" points="375.8,-259.763 381.182,-250.637 371.284,-254.415 375.8,-259.763"/>
</g>
<!-- AS1299&#45;&gt;AS3257 -->
<g id="edge26" class="edge"><title>AS1299&#45;&gt;AS3257</title>
<path fill="none" stroke="black" d="M326.803,-353.635C335.006,-353.345 343.77,-353.036 352.302,-352.734"/>
<polygon fill="black" stroke="black" points="352.671,-356.224 362.541,-352.373 352.424,-349.228 352.671,-356.224"/>
</g>
<!-- AS1299&#45;&gt;AS174 -->
<g id="edge24" class="edge"><title>AS1299&#45;&gt;AS174</title>
<path fill="none" stroke="black" d="M303.175,-371.599C322.837,-393.292 357.4,-431.427 379.849,-456.195"/>
<polygon fill="black" stroke="black" points="377.368,-458.67 386.677,-463.73 382.555,-453.97 377.368,-458.67"/>
</g>
<!-- AS1299&#45;&gt;AS3491 -->
<g id="edge28" class="edge"><title>AS1299&#45;&gt;AS3491</title>
<path fill="none" stroke="black" d="M316.136,-367.36C330.57,-373.73 348.371,-381.586 363.97,-388.47"/>
<polygon fill="black" stroke="black" points="362.787,-391.774 373.348,-392.609 365.613,-385.37 362.787,-391.774"/>
</g>
<!-- AS3356&#45;&gt;AS2914 -->
<g id="edge19" class="edge"><title>AS3356&#45;&gt;AS2914</title>
<path fill="none" stroke="black" d="M313.385,-487.349C318.445,-483.608 323.274,-479.14 326.777,-474 365.391,-417.348 325.6,-381.605 362.777,-324 364.833,-320.815 367.346,-317.829 370.095,-315.07"/>
<polygon fill="black" stroke="black" points="372.577,-317.547 377.769,-308.311 367.951,-312.294 372.577,-317.547"/>
</g>
<!-- AS3356&#45;&gt;AS3257 -->
<g id="edge21" class="edge"><title>AS3356&#45;&gt;AS3257</title>
<path fill="none" stroke="black" d="M312.926,-487.015C318.009,-483.291 322.964,-478.915 326.777,-474 354.711,-437.998 334.843,-414.002 362.777,-378 364.565,-375.696 366.603,-373.511 368.788,-371.456"/>
<polygon fill="black" stroke="black" points="371.144,-374.049 376.629,-364.985 366.688,-368.65 371.144,-374.049"/>
</g>
<!-- AS3356&#45;&gt;AS174 -->
<g id="edge23" class="edge"><title>AS3356&#45;&gt;AS174</title>
<path fill="none" stroke="black" d="M323.978,-494.355C335.209,-492.274 347.707,-489.957 359.328,-487.803"/>
<polygon fill="black" stroke="black" points="360.067,-491.226 369.262,-485.962 358.791,-484.343 360.067,-491.226"/>
</g>
<!-- AS3356&#45;&gt;AS3491 -->
<g id="edge22" class="edge"><title>AS3356&#45;&gt;AS3491</title>
<path fill="none" stroke="black" d="M310.583,-486.086C315.991,-482.284 321.678,-478.107 326.777,-474 344.521,-459.711 363.352,-442.287 377.661,-428.523"/>
<polygon fill="black" stroke="black" points="380.369,-430.772 385.109,-421.297 375.495,-425.748 380.369,-430.772"/>
</g>
<!-- AS3549 -->
<g id="node18" class="node"><title>AS3549</title>
<g id="a_node18"><a xlink:href="/asn/3549" xlink:title="AS3549 ~ Level 3 Parent, LLC [US]">
<ellipse fill="#ffffff" stroke="black" cx="402.424" cy="-534" rx="39.7935" ry="18"/>
<text text-anchor="middle" x="402.424" y="-530.3" font-family="Times,serif" font-size="14.00" fill="#2c94b3">AS3549</text>
</a>
</g>
</g>
<!-- AS3356&#45;&gt;AS3549 -->
<g id="edge20" class="edge"><title>AS3356&#45;&gt;AS3549</title>
<path fill="none" stroke="black" d="M320.9,-510.545C332.76,-514 346.33,-517.952 358.907,-521.616"/>
<polygon fill="black" stroke="black" points="358.149,-525.04 368.729,-524.476 360.106,-518.319 358.149,-525.04"/>
</g>
</g>
</svg>
