<?xml version="1.0" encoding="UTF-8" standalone="no"?>
<!DOCTYPE svg PUBLIC "-//W3C//DTD SVG 1.1//EN"
 "http://www.w3.org/Graphics/SVG/1.1/DTD/svg11.dtd">
<!-- Generated by graphviz version 2.38.0 (20140413.2041)
 -->
<!-- Title: AS200986 IPv6 Upstream Graph Pages: 1 -->
<svg width="574pt" height="606pt"
 viewBox="0.00 0.00 574.46 606.00" xmlns="http://www.w3.org/2000/svg" xmlns:xlink="http://www.w3.org/1999/xlink">
<g id="graph0" class="graph" transform="scale(1 1) rotate(0) translate(4 602)">
<title>AS200986 IPv6 Upstream Graph</title>
<polygon fill="white" stroke="none" points="-4,4 -4,-602 570.463,-602 570.463,4 -4,4"/>
<!-- AS200986 -->
<g id="node1" class="node"><title>AS200986</title>
<g id="a_node1"><a xlink:href="/asn/200986" xlink:title="AS200986 ~ D Swarovski Tourism Service GmbH [AT]">
<ellipse fill="#ffffff" stroke="black" cx="48.0957" cy="-247" rx="48.1917" ry="18"/>
<text text-anchor="middle" x="48.0957" y="-243.3" font-family="Times,serif" font-size="14.00" fill="#880000">AS200986</text>
</a>
</g>
</g>
<!-- AS6830 -->
<g id="node2" class="node"><title>AS6830</title>
<g id="a_node2"><a xlink:href="/asn/6830" xlink:title="AS6830 ~ LibertyGlobal [AT]">
<ellipse fill="#ffffff" stroke="black" cx="287.131" cy="-315" rx="39.7935" ry="18"/>
<text text-anchor="middle" x="287.131" y="-311.3" font-family="Times,serif" font-size="14.00" fill="#2c94b3">AS6830</text>
</a>
</g>
</g>
<!-- AS200986&#45;&gt;AS6830 -->
<g id="edge1" class="edge"><title>AS200986&#45;&gt;AS6830</title>
<path fill="none" stroke="black" stroke-width="2.91176" d="M86.6547,-257.775C129.375,-270.03 198.976,-289.997 243.643,-302.811"/>
<polygon fill="black" stroke="black" stroke-width="2.91176" points="242.75,-306.196 253.328,-305.59 244.681,-299.468 242.75,-306.196"/>
</g>
<!-- AS8447 -->
<g id="node3" class="node"><title>AS8447</title>
<g id="a_node3"><a xlink:href="/asn/8447" xlink:title="AS8447 ~ A1 Telekom Austria AG [AT]">
<ellipse fill="#ffffff" stroke="black" cx="171.838" cy="-202" rx="39.7935" ry="18"/>
<text text-anchor="middle" x="171.838" y="-198.3" font-family="Times,serif" font-size="14.00" fill="#2c94b3">AS8447</text>
</a>
</g>
</g>
<!-- AS200986&#45;&gt;AS8447 -->
<g id="edge2" class="edge"><title>AS200986&#45;&gt;AS8447</title>
<path fill="none" stroke="black" stroke-width="4.5" d="M83.0077,-234.465C97.7826,-229.004 115.213,-222.561 130.635,-216.86"/>
<polygon fill="black" stroke="black" stroke-width="4.5" points="132.417,-220.4 140.431,-213.239 129.686,-213.013 132.417,-220.4"/>
</g>
<!-- AS2914 -->
<g id="node4" class="node"><title>AS2914</title>
<g id="a_node4"><a xlink:href="/asn/2914" xlink:title="AS2914 ~ NTT America, Inc. [US]">
<ellipse fill="#ffffff" stroke="black" cx="406.973" cy="-126" rx="39.7935" ry="18"/>
<text text-anchor="middle" x="406.973" y="-122.3" font-family="Times,serif" font-size="14.00" fill="#2c94b3">AS2914</text>
</a>
</g>
</g>
<!-- AS6830&#45;&gt;AS2914 -->
<g id="edge3" class="edge"><title>AS6830&#45;&gt;AS2914</title>
<path fill="none" stroke="black" d="M302.427,-297.86C310.414,-287.647 320.075,-274.147 326.777,-261 349.758,-215.923 331.479,-192.754 362.777,-153 365.102,-150.047 367.846,-147.33 370.805,-144.853"/>
<polygon fill="black" stroke="black" points="372.998,-147.585 379.002,-138.855 368.865,-141.936 372.998,-147.585"/>
</g>
<!-- AS12956 -->
<g id="node5" class="node"><title>AS12956</title>
<g id="a_node5"><a xlink:href="/asn/12956" xlink:title="AS12956 ~ TELXIUS [ES]">
<ellipse fill="#ffffff" stroke="black" cx="406.973" cy="-488" rx="44.393" ry="18"/>
<text text-anchor="middle" x="406.973" y="-484.3" font-family="Times,serif" font-size="14.00" fill="#2c94b3">AS12956</text>
</a>
</g>
</g>
<!-- AS6830&#45;&gt;AS12956 -->
<g id="edge4" class="edge"><title>AS6830&#45;&gt;AS12956</title>
<path fill="none" stroke="black" d="M293.793,-333.027C303.795,-362.59 326.98,-421.983 362.777,-461 365.12,-463.554 367.758,-465.958 370.546,-468.199"/>
<polygon fill="black" stroke="black" points="368.521,-471.055 378.678,-474.071 372.619,-465.38 368.521,-471.055"/>
</g>
<!-- AS174 -->
<g id="node6" class="node"><title>AS174</title>
<g id="a_node6"><a xlink:href="/asn/174" xlink:title="AS174 ~ Cogent Communications [US]">
<ellipse fill="#ffffff" stroke="black" cx="406.973" cy="-72" rx="35.194" ry="18"/>
<text text-anchor="middle" x="406.973" y="-68.3" font-family="Times,serif" font-size="14.00" fill="#2c94b3">AS174</text>
</a>
</g>
</g>
<!-- AS6830&#45;&gt;AS174 -->
<g id="edge5" class="edge"><title>AS6830&#45;&gt;AS174</title>
<path fill="none" stroke="black" d="M302.942,-298.106C311.1,-287.975 320.761,-274.475 326.777,-261 356.847,-193.651 320.198,-159.225 362.777,-99 365.247,-95.5067 368.326,-92.3695 371.695,-89.5786"/>
<polygon fill="black" stroke="black" points="373.834,-92.3521 379.935,-83.6903 369.764,-86.6569 373.834,-92.3521"/>
</g>
<!-- AS6453 -->
<g id="node7" class="node"><title>AS6453</title>
<g id="a_node7"><a xlink:href="/asn/6453" xlink:title="AS6453 ~ TATA COMMUNICATIONS (AMERICA) INC [US]">
<ellipse fill="#ffffff" stroke="black" cx="526.816" cy="-557" rx="39.7935" ry="18"/>
<text text-anchor="middle" x="526.816" y="-553.3" font-family="Times,serif" font-size="14.00" fill="#2c94b3">AS6453</text>
</a>
</g>
</g>
<!-- AS6830&#45;&gt;AS6453 -->
<g id="edge6" class="edge"><title>AS6830&#45;&gt;AS6453</title>
<path fill="none" stroke="black" d="M289.432,-332.992C293.26,-372.176 307.959,-465.66 362.777,-515 393.822,-542.942 441.007,-552.776 476.641,-556.012"/>
<polygon fill="black" stroke="black" points="476.593,-559.518 486.83,-556.788 477.124,-552.539 476.593,-559.518"/>
</g>
<!-- AS3257 -->
<g id="node8" class="node"><title>AS3257</title>
<g id="a_node8"><a xlink:href="/asn/3257" xlink:title="AS3257 ~ GTT [DE]">
<ellipse fill="#ffffff" stroke="black" cx="406.973" cy="-434" rx="39.7935" ry="18"/>
<text text-anchor="middle" x="406.973" y="-430.3" font-family="Times,serif" font-size="14.00" fill="#2c94b3">AS3257</text>
</a>
</g>
</g>
<!-- AS6830&#45;&gt;AS3257 -->
<g id="edge7" class="edge"><title>AS6830&#45;&gt;AS3257</title>
<path fill="none" stroke="black" d="M300.867,-332.016C314.972,-350.311 338.888,-379.761 362.777,-402 366.876,-405.816 371.426,-409.6 375.991,-413.159"/>
<polygon fill="black" stroke="black" points="374.034,-416.066 384.13,-419.279 378.241,-410.472 374.034,-416.066"/>
</g>
<!-- AS7018 -->
<g id="node9" class="node"><title>AS7018</title>
<g id="a_node9"><a xlink:href="/asn/7018" xlink:title="AS7018 ~ AT&amp;T Services, Inc. [US]">
<ellipse fill="#ffffff" stroke="black" cx="406.973" cy="-234" rx="39.7935" ry="18"/>
<text text-anchor="middle" x="406.973" y="-230.3" font-family="Times,serif" font-size="14.00" fill="#2c94b3">AS7018</text>
</a>
</g>
</g>
<!-- AS6830&#45;&gt;AS7018 -->
<g id="edge8" class="edge"><title>AS6830&#45;&gt;AS7018</title>
<path fill="none" stroke="black" d="M308.461,-299.723C323.324,-288.696 344.068,-273.593 362.777,-261 366.326,-258.611 370.077,-256.161 373.825,-253.758"/>
<polygon fill="black" stroke="black" points="375.893,-256.591 382.474,-248.288 372.151,-250.675 375.893,-256.591"/>
</g>
<!-- AS701 -->
<g id="node10" class="node"><title>AS701</title>
<g id="a_node10"><a xlink:href="/asn/701" xlink:title="AS701 ~ UUNET [US]">
<ellipse fill="#ffffff" stroke="black" cx="526.816" cy="-457" rx="35.194" ry="18"/>
<text text-anchor="middle" x="526.816" y="-453.3" font-family="Times,serif" font-size="14.00" fill="#2c94b3">AS701</text>
</a>
</g>
</g>
<!-- AS6830&#45;&gt;AS701 -->
<g id="edge9" class="edge"><title>AS6830&#45;&gt;AS701</title>
<path fill="none" stroke="black" d="M307.296,-330.677C321.924,-342.185 342.884,-357.712 362.777,-369 399.969,-390.104 413.604,-386.57 451.17,-407 467.131,-415.681 484.022,-426.814 497.692,-436.37"/>
<polygon fill="black" stroke="black" points="495.986,-439.451 506.167,-442.381 500.035,-433.741 495.986,-439.451"/>
</g>
<!-- AS3491 -->
<g id="node11" class="node"><title>AS3491</title>
<g id="a_node11"><a xlink:href="/asn/3491" xlink:title="AS3491 ~ PCCW Global, Inc. [US]">
<ellipse fill="#ffffff" stroke="black" cx="406.973" cy="-342" rx="39.7935" ry="18"/>
<text text-anchor="middle" x="406.973" y="-338.3" font-family="Times,serif" font-size="14.00" fill="#2c94b3">AS3491</text>
</a>
</g>
</g>
<!-- AS6830&#45;&gt;AS3491 -->
<g id="edge10" class="edge"><title>AS6830&#45;&gt;AS3491</title>
<path fill="none" stroke="black" d="M322.85,-322.955C334.85,-325.704 348.471,-328.825 361.164,-331.733"/>
<polygon fill="black" stroke="black" points="360.566,-335.187 371.095,-334.009 362.129,-328.364 360.566,-335.187"/>
</g>
<!-- AS2497 -->
<g id="node12" class="node"><title>AS2497</title>
<g id="a_node12"><a xlink:href="/asn/2497" xlink:title="AS2497 ~ Internet Initiative Japan Inc. [JP]">
<ellipse fill="#ffffff" stroke="black" cx="406.973" cy="-180" rx="39.7935" ry="18"/>
<text text-anchor="middle" x="406.973" y="-176.3" font-family="Times,serif" font-size="14.00" fill="#2c94b3">AS2497</text>
</a>
</g>
</g>
<!-- AS6830&#45;&gt;AS2497 -->
<g id="edge11" class="edge"><title>AS6830&#45;&gt;AS2497</title>
<path fill="none" stroke="black" d="M300.81,-297.594C308.426,-287.063 318.258,-273.33 326.777,-261 343.173,-237.269 342.084,-227.094 362.777,-207 365.623,-204.237 368.796,-201.614 372.096,-199.166"/>
<polygon fill="black" stroke="black" points="374.162,-201.994 380.444,-193.462 370.213,-196.214 374.162,-201.994"/>
</g>
<!-- AS3320 -->
<g id="node13" class="node"><title>AS3320</title>
<g id="a_node13"><a xlink:href="/asn/3320" xlink:title="AS3320 ~ DTAG [DE]">
<ellipse fill="#ffffff" stroke="black" cx="406.973" cy="-580" rx="39.7935" ry="18"/>
<text text-anchor="middle" x="406.973" y="-576.3" font-family="Times,serif" font-size="14.00" fill="#2c94b3">AS3320</text>
</a>
</g>
</g>
<!-- AS6830&#45;&gt;AS3320 -->
<g id="edge12" class="edge"><title>AS6830&#45;&gt;AS3320</title>
<path fill="none" stroke="black" d="M292.39,-333.062C304.011,-381.348 337.113,-512.174 362.777,-548 365.824,-552.254 369.609,-556.179 373.661,-559.715"/>
<polygon fill="black" stroke="black" points="371.64,-562.579 381.66,-566.022 375.974,-557.082 371.64,-562.579"/>
</g>
<!-- AS1273 -->
<g id="node14" class="node"><title>AS1273</title>
<g id="a_node14"><a xlink:href="/asn/1273" xlink:title="AS1273 ~ Vodafone Group PLC [EU]">
<ellipse fill="#ffffff" stroke="black" cx="406.973" cy="-288" rx="39.7935" ry="18"/>
<text text-anchor="middle" x="406.973" y="-284.3" font-family="Times,serif" font-size="14.00" fill="#2c94b3">AS1273</text>
</a>
</g>
</g>
<!-- AS6830&#45;&gt;AS1273 -->
<g id="edge13" class="edge"><title>AS6830&#45;&gt;AS1273</title>
<path fill="none" stroke="black" d="M322.85,-307.045C334.85,-304.296 348.471,-301.175 361.164,-298.267"/>
<polygon fill="black" stroke="black" points="362.129,-301.636 371.095,-295.991 360.566,-294.813 362.129,-301.636"/>
</g>
<!-- AS8447&#45;&gt;AS3320 -->
<g id="edge16" class="edge"><title>AS8447&#45;&gt;AS3320</title>
<path fill="none" stroke="black" stroke-width="1.8" d="M179.463,-219.755C200.158,-273.567 267.929,-437.841 362.777,-547 366.491,-551.274 370.837,-555.358 375.315,-559.105"/>
<polygon fill="black" stroke="black" stroke-width="1.8" points="373.381,-562.036 383.409,-565.456 377.702,-556.529 373.381,-562.036"/>
</g>
<!-- AS6762 -->
<g id="node15" class="node"><title>AS6762</title>
<g id="a_node15"><a xlink:href="/asn/6762" xlink:title="AS6762 ~ TELECOM ITALIA SPARKLE S.p.A. [IT]">
<ellipse fill="#ffffff" stroke="black" cx="287.131" cy="-72" rx="39.7935" ry="18"/>
<text text-anchor="middle" x="287.131" y="-68.3" font-family="Times,serif" font-size="14.00" fill="#2c94b3">AS6762</text>
</a>
</g>
</g>
<!-- AS8447&#45;&gt;AS6762 -->
<g id="edge14" class="edge"><title>AS8447&#45;&gt;AS6762</title>
<path fill="none" stroke="black" stroke-width="1.8" d="M182.924,-184.609C196.009,-162.969 220.394,-125.626 247.484,-99 249.619,-96.9024 251.932,-94.8531 254.329,-92.8813"/>
<polygon fill="black" stroke="black" stroke-width="1.8" points="256.84,-95.3674 262.665,-86.5174 252.593,-89.8033 256.84,-95.3674"/>
</g>
<!-- AS1299 -->
<g id="node16" class="node"><title>AS1299</title>
<g id="a_node16"><a xlink:href="/asn/1299" xlink:title="AS1299 ~ Telia Carrier [EU]">
<ellipse fill="#ffffff" stroke="black" cx="287.131" cy="-180" rx="39.7935" ry="18"/>
<text text-anchor="middle" x="287.131" y="-176.3" font-family="Times,serif" font-size="14.00" fill="#2c94b3">AS1299</text>
</a>
</g>
</g>
<!-- AS8447&#45;&gt;AS1299 -->
<g id="edge15" class="edge"><title>AS8447&#45;&gt;AS1299</title>
<path fill="none" stroke="black" stroke-width="3.6" d="M208.685,-195.039C218.805,-193.074 229.953,-190.909 240.562,-188.849"/>
<polygon fill="black" stroke="black" stroke-width="3.6" points="241.368,-192.258 250.518,-186.916 240.034,-185.386 241.368,-192.258"/>
</g>
<!-- AS6939 -->
<g id="node17" class="node"><title>AS6939</title>
<g id="a_node17"><a xlink:href="/asn/6939" xlink:title="AS6939 ~ Hurricane Electric LLC [US]">
<ellipse fill="#ffffff" stroke="black" cx="287.131" cy="-234" rx="39.7935" ry="18"/>
<text text-anchor="middle" x="287.131" y="-230.3" font-family="Times,serif" font-size="14.00" fill="#2c94b3">AS6939</text>
</a>
</g>
</g>
<!-- AS8447&#45;&gt;AS6939 -->
<g id="edge17" class="edge"><title>AS8447&#45;&gt;AS6939</title>
<path fill="none" stroke="black" stroke-width="3.6" d="M205.912,-211.342C217.559,-214.631 230.824,-218.378 243.167,-221.865"/>
<polygon fill="black" stroke="black" stroke-width="3.6" points="242.245,-225.241 252.82,-224.591 244.148,-218.505 242.245,-225.241"/>
</g>
<!-- AS3356 -->
<g id="node18" class="node"><title>AS3356</title>
<g id="a_node18"><a xlink:href="/asn/3356" xlink:title="AS3356 ~ Level 3 Parent, LLC [US]">
<ellipse fill="#ffffff" stroke="black" cx="287.131" cy="-126" rx="39.7935" ry="18"/>
<text text-anchor="middle" x="287.131" y="-122.3" font-family="Times,serif" font-size="14.00" fill="#2c94b3">AS3356</text>
</a>
</g>
</g>
<!-- AS8447&#45;&gt;AS3356 -->
<g id="edge18" class="edge"><title>AS8447&#45;&gt;AS3356</title>
<path fill="none" stroke="black" stroke-width="4.5" d="M194.951,-187.166C212.262,-175.553 236.531,-159.273 255.68,-146.428"/>
<polygon fill="black" stroke="black" stroke-width="4.5" points="257.963,-149.637 264.074,-140.797 253.576,-143.098 257.963,-149.637"/>
</g>
<!-- AS3320&#45;&gt;AS6453 -->
<g id="edge23" class="edge"><title>AS3320&#45;&gt;AS6453</title>
<path fill="none" stroke="black" d="M443.65,-573.037C455.081,-570.806 467.903,-568.303 479.957,-565.951"/>
<polygon fill="black" stroke="black" points="480.71,-569.37 489.854,-564.019 479.369,-562.499 480.71,-569.37"/>
</g>
<!-- AS3320&#45;&gt;AS701 -->
<g id="edge24" class="edge"><title>AS3320&#45;&gt;AS701</title>
<path fill="none" stroke="black" d="M423.866,-563.412C444.274,-542.11 479.825,-505.004 503.088,-480.722"/>
<polygon fill="black" stroke="black" points="505.784,-482.968 510.175,-473.326 500.73,-478.125 505.784,-482.968"/>
</g>
<!-- AS6762&#45;&gt;AS174 -->
<g id="edge19" class="edge"><title>AS6762&#45;&gt;AS174</title>
<path fill="none" stroke="black" d="M327.044,-72C338.13,-72 350.29,-72 361.672,-72"/>
<polygon fill="black" stroke="black" points="361.854,-75.5001 371.854,-72 361.854,-68.5001 361.854,-75.5001"/>
</g>
<!-- AS1299&#45;&gt;AS2914 -->
<g id="edge22" class="edge"><title>AS1299&#45;&gt;AS2914</title>
<path fill="none" stroke="black" d="M315.76,-167.339C331.717,-160.027 351.987,-150.739 369.27,-142.819"/>
<polygon fill="black" stroke="black" points="370.885,-145.929 378.518,-138.581 367.969,-139.565 370.885,-145.929"/>
</g>
<!-- AS1299&#45;&gt;AS174 -->
<g id="edge20" class="edge"><title>AS1299&#45;&gt;AS174</title>
<path fill="none" stroke="black" d="M311.725,-165.611C316.981,-161.852 322.313,-157.563 326.777,-153 346.95,-132.383 342.084,-119.094 362.777,-99 366.005,-95.8656 369.656,-92.9106 373.434,-90.1876"/>
<polygon fill="black" stroke="black" points="375.413,-93.0749 381.794,-84.6173 371.532,-87.2496 375.413,-93.0749"/>
</g>
<!-- AS1299&#45;&gt;AS7018 -->
<g id="edge21" class="edge"><title>AS1299&#45;&gt;AS7018</title>
<path fill="none" stroke="black" d="M315.76,-192.661C331.717,-199.973 351.987,-209.261 369.27,-217.181"/>
<polygon fill="black" stroke="black" points="367.969,-220.435 378.518,-221.419 370.885,-214.071 367.969,-220.435"/>
</g>
<!-- AS6939&#45;&gt;AS2914 -->
<g id="edge26" class="edge"><title>AS6939&#45;&gt;AS2914</title>
<path fill="none" stroke="black" d="M311.725,-219.611C316.981,-215.852 322.313,-211.563 326.777,-207 346.95,-186.383 342.084,-173.094 362.777,-153 365.623,-150.237 368.796,-147.614 372.096,-145.166"/>
<polygon fill="black" stroke="black" points="374.162,-147.994 380.444,-139.462 370.213,-142.214 374.162,-147.994"/>
</g>
<!-- AS6939&#45;&gt;AS3491 -->
<g id="edge25" class="edge"><title>AS6939&#45;&gt;AS3491</title>
<path fill="none" stroke="black" d="M301.55,-251.065C315.665,-268.375 339.079,-295.345 362.777,-315 365.994,-317.668 369.494,-320.27 373.065,-322.741"/>
<polygon fill="black" stroke="black" points="371.143,-325.666 381.421,-328.236 374.988,-319.817 371.143,-325.666"/>
</g>
<!-- AS6939&#45;&gt;AS2497 -->
<g id="edge27" class="edge"><title>AS6939&#45;&gt;AS2497</title>
<path fill="none" stroke="black" d="M315.76,-221.339C331.717,-214.027 351.987,-204.739 369.27,-196.819"/>
<polygon fill="black" stroke="black" points="370.885,-199.929 378.518,-192.581 367.969,-193.565 370.885,-199.929"/>
</g>
<!-- AS6939&#45;&gt;AS1273 -->
<g id="edge28" class="edge"><title>AS6939&#45;&gt;AS1273</title>
<path fill="none" stroke="black" d="M315.76,-246.661C331.717,-253.973 351.987,-263.261 369.27,-271.181"/>
<polygon fill="black" stroke="black" points="367.969,-274.435 378.518,-275.419 370.885,-268.071 367.969,-274.435"/>
</g>
<!-- AS3356&#45;&gt;AS2914 -->
<g id="edge32" class="edge"><title>AS3356&#45;&gt;AS2914</title>
<path fill="none" stroke="black" d="M327.044,-126C336.597,-126 346.947,-126 356.909,-126"/>
<polygon fill="black" stroke="black" points="357.102,-129.5 367.102,-126 357.102,-122.5 357.102,-129.5"/>
</g>
<!-- AS3356&#45;&gt;AS174 -->
<g id="edge30" class="edge"><title>AS3356&#45;&gt;AS174</title>
<path fill="none" stroke="black" d="M315.76,-113.339C332.176,-105.817 353.158,-96.2023 370.754,-88.1387"/>
<polygon fill="black" stroke="black" points="372.499,-91.1894 380.132,-83.8417 369.583,-84.8257 372.499,-91.1894"/>
</g>
<!-- AS3356&#45;&gt;AS2497 -->
<g id="edge31" class="edge"><title>AS3356&#45;&gt;AS2497</title>
<path fill="none" stroke="black" d="M315.76,-138.661C331.717,-145.973 351.987,-155.261 369.27,-163.181"/>
<polygon fill="black" stroke="black" points="367.969,-166.435 378.518,-167.419 370.885,-160.071 367.969,-166.435"/>
</g>
<!-- AS209 -->
<g id="node19" class="node"><title>AS209</title>
<g id="a_node19"><a xlink:href="/asn/209" xlink:title="AS209 ~ CenturyLink Communications, LLC [US]">
<ellipse fill="#ffffff" stroke="black" cx="406.973" cy="-18" rx="35.194" ry="18"/>
<text text-anchor="middle" x="406.973" y="-14.3" font-family="Times,serif" font-size="14.00" fill="#2c94b3">AS209</text>
</a>
</g>
</g>
<!-- AS3356&#45;&gt;AS209 -->
<g id="edge29" class="edge"><title>AS3356&#45;&gt;AS209</title>
<path fill="none" stroke="black" d="M311.725,-111.611C316.981,-107.852 322.313,-103.563 326.777,-99 346.95,-78.3827 342.084,-65.0945 362.777,-45 366.005,-41.8656 369.656,-38.9106 373.434,-36.1876"/>
<polygon fill="black" stroke="black" points="375.413,-39.0749 381.794,-30.6173 371.532,-33.2496 375.413,-39.0749"/>
</g>
</g>
</svg>
