<?xml version="1.0" encoding="UTF-8" standalone="no"?>
<!DOCTYPE svg PUBLIC "-//W3C//DTD SVG 1.1//EN"
 "http://www.w3.org/Graphics/SVG/1.1/DTD/svg11.dtd">
<!-- Generated by graphviz version 2.38.0 (20140413.2041)
 -->
<!-- Title: AS200986 IPv4 Upstream Graph Pages: 1 -->
<svg width="459pt" height="639pt"
 viewBox="0.00 0.00 459.17 639.00" xmlns="http://www.w3.org/2000/svg" xmlns:xlink="http://www.w3.org/1999/xlink">
<g id="graph0" class="graph" transform="scale(1 1) rotate(0) translate(4 635)">
<title>AS200986 IPv4 Upstream Graph</title>
<polygon fill="white" stroke="none" points="-4,4 -4,-635 455.17,-635 455.17,4 -4,4"/>
<!-- AS200986 -->
<g id="node1" class="node"><title>AS200986</title>
<g id="a_node1"><a xlink:href="/asn/200986" xlink:title="AS200986 ~ D Swarovski Tourism Service GmbH [AT]">
<ellipse fill="#ffffff" stroke="black" cx="48.0957" cy="-320" rx="48.1917" ry="18"/>
<text text-anchor="middle" x="48.0957" y="-316.3" font-family="Times,serif" font-size="14.00" fill="#880000">AS200986</text>
</a>
</g>
</g>
<!-- AS6830 -->
<g id="node2" class="node"><title>AS6830</title>
<g id="a_node2"><a xlink:href="/asn/6830" xlink:title="AS6830 ~ LGI&#45;UPC [AT]">
<ellipse fill="#ffffff" stroke="black" cx="171.838" cy="-253" rx="39.7935" ry="18"/>
<text text-anchor="middle" x="171.838" y="-249.3" font-family="Times,serif" font-size="14.00" fill="#2c94b3">AS6830</text>
</a>
</g>
</g>
<!-- AS200986&#45;&gt;AS6830 -->
<g id="edge1" class="edge"><title>AS200986&#45;&gt;AS6830</title>
<path fill="none" stroke="black" stroke-width="2.7" d="M76.1143,-305.131C94.054,-295.258 117.746,-282.219 136.947,-271.652"/>
<polygon fill="black" stroke="black" stroke-width="2.7" points="138.894,-274.575 145.968,-266.687 135.519,-268.442 138.894,-274.575"/>
</g>
<!-- AS8447 -->
<g id="node3" class="node"><title>AS8447</title>
<g id="a_node3"><a xlink:href="/asn/8447" xlink:title="AS8447 ~ A1 Telekom Austria AG [AT]">
<ellipse fill="#ffffff" stroke="black" cx="171.838" cy="-387" rx="39.7935" ry="18"/>
<text text-anchor="middle" x="171.838" y="-383.3" font-family="Times,serif" font-size="14.00" fill="#2c94b3">AS8447</text>
</a>
</g>
</g>
<!-- AS200986&#45;&gt;AS8447 -->
<g id="edge2" class="edge"><title>AS200986&#45;&gt;AS8447</title>
<path fill="none" stroke="black" stroke-width="4.5" d="M76.1143,-334.869C94.054,-344.742 117.746,-357.781 136.947,-368.348"/>
<polygon fill="black" stroke="black" stroke-width="4.5" points="135.308,-371.941 145.968,-373.313 139.105,-365.042 135.308,-371.941"/>
</g>
<!-- AS3320 -->
<g id="node4" class="node"><title>AS3320</title>
<g id="a_node4"><a xlink:href="/asn/3320" xlink:title="AS3320 ~ DTAG [DE]">
<ellipse fill="#ffffff" stroke="black" cx="291.681" cy="-169" rx="39.7935" ry="18"/>
<text text-anchor="middle" x="291.681" y="-165.3" font-family="Times,serif" font-size="14.00" fill="#2c94b3">AS3320</text>
</a>
</g>
</g>
<!-- AS6830&#45;&gt;AS3320 -->
<g id="edge3" class="edge"><title>AS6830&#45;&gt;AS3320</title>
<path fill="none" stroke="black" d="M193.906,-237.982C212.642,-224.627 240.233,-204.96 261.165,-190.039"/>
<polygon fill="black" stroke="black" points="263.286,-192.825 269.398,-184.171 259.223,-187.125 263.286,-192.825"/>
</g>
<!-- AS6461 -->
<g id="node5" class="node"><title>AS6461</title>
<g id="a_node5"><a xlink:href="/asn/6461" xlink:title="AS6461 ~ Zayo Bandwidth [US]">
<ellipse fill="#ffffff" stroke="black" cx="291.681" cy="-467" rx="39.7935" ry="18"/>
<text text-anchor="middle" x="291.681" y="-463.3" font-family="Times,serif" font-size="14.00" fill="#2c94b3">AS6461</text>
</a>
</g>
</g>
<!-- AS6830&#45;&gt;AS6461 -->
<g id="edge4" class="edge"><title>AS6830&#45;&gt;AS6461</title>
<path fill="none" stroke="black" d="M179.503,-270.776C195.738,-313.844 236.789,-421.253 247.484,-435 250.697,-439.13 254.575,-442.985 258.671,-446.489"/>
<polygon fill="black" stroke="black" points="256.67,-449.367 266.703,-452.771 260.983,-443.853 256.67,-449.367"/>
</g>
<!-- AS3257 -->
<g id="node6" class="node"><title>AS3257</title>
<g id="a_node6"><a xlink:href="/asn/3257" xlink:title="AS3257 ~ GTT [DE]">
<ellipse fill="#ffffff" stroke="black" cx="411.523" cy="-519" rx="39.7935" ry="18"/>
<text text-anchor="middle" x="411.523" y="-515.3" font-family="Times,serif" font-size="14.00" fill="#2c94b3">AS3257</text>
</a>
</g>
</g>
<!-- AS6830&#45;&gt;AS3257 -->
<g id="edge5" class="edge"><title>AS6830&#45;&gt;AS3257</title>
<path fill="none" stroke="black" d="M180.285,-270.895C188.802,-291.92 202.701,-328.002 211.484,-360 234.004,-442.039 181.915,-493.795 247.484,-548 284.403,-578.52 342.325,-557.03 378.274,-538.301"/>
<polygon fill="black" stroke="black" points="380.227,-541.224 387.354,-533.386 376.894,-535.068 380.227,-541.224"/>
</g>
<!-- AS701 -->
<g id="node7" class="node"><title>AS701</title>
<g id="a_node7"><a xlink:href="/asn/701" xlink:title="AS701 ~ UUNET [US]">
<ellipse fill="#ffffff" stroke="black" cx="411.523" cy="-83" rx="35.194" ry="18"/>
<text text-anchor="middle" x="411.523" y="-79.3" font-family="Times,serif" font-size="14.00" fill="#2c94b3">AS701</text>
</a>
</g>
</g>
<!-- AS6830&#45;&gt;AS701 -->
<g id="edge6" class="edge"><title>AS6830&#45;&gt;AS701</title>
<path fill="none" stroke="black" d="M173.123,-234.897C174.87,-193.701 185.587,-93.189 247.484,-50 287.271,-22.2393 345.046,-45.1219 380.07,-64.137"/>
<polygon fill="black" stroke="black" points="378.454,-67.2441 388.885,-69.1031 381.89,-61.1453 378.454,-67.2441"/>
</g>
<!-- AS7018 -->
<g id="node8" class="node"><title>AS7018</title>
<g id="a_node8"><a xlink:href="/asn/7018" xlink:title="AS7018 ~ AT&amp;T Services, Inc. [US]">
<ellipse fill="#ffffff" stroke="black" cx="411.523" cy="-142" rx="39.7935" ry="18"/>
<text text-anchor="middle" x="411.523" y="-138.3" font-family="Times,serif" font-size="14.00" fill="#2c94b3">AS7018</text>
</a>
</g>
</g>
<!-- AS6830&#45;&gt;AS7018 -->
<g id="edge7" class="edge"><title>AS6830&#45;&gt;AS7018</title>
<path fill="none" stroke="black" d="M178.752,-235.089C188.431,-209.066 210.384,-161.759 247.484,-142 284.049,-122.526 332.095,-125.319 366.543,-131.284"/>
<polygon fill="black" stroke="black" points="366.294,-134.798 376.77,-133.215 367.593,-127.92 366.294,-134.798"/>
</g>
<!-- AS1239 -->
<g id="node9" class="node"><title>AS1239</title>
<g id="a_node9"><a xlink:href="/asn/1239" xlink:title="AS1239 ~ Sprint [US]">
<ellipse fill="#ffffff" stroke="black" cx="411.523" cy="-215" rx="39.7935" ry="18"/>
<text text-anchor="middle" x="411.523" y="-211.3" font-family="Times,serif" font-size="14.00" fill="#2c94b3">AS1239</text>
</a>
</g>
</g>
<!-- AS6830&#45;&gt;AS1239 -->
<g id="edge8" class="edge"><title>AS6830&#45;&gt;AS1239</title>
<path fill="none" stroke="black" d="M209.455,-247.146C250.893,-240.521 318.49,-229.714 363.724,-222.482"/>
<polygon fill="black" stroke="black" points="364.542,-225.896 373.864,-220.861 363.437,-218.984 364.542,-225.896"/>
</g>
<!-- AS3491 -->
<g id="node10" class="node"><title>AS3491</title>
<g id="a_node10"><a xlink:href="/asn/3491" xlink:title="AS3491 ~ PCCW Global, Inc. [US]">
<ellipse fill="#ffffff" stroke="black" cx="411.523" cy="-463" rx="39.7935" ry="18"/>
<text text-anchor="middle" x="411.523" y="-459.3" font-family="Times,serif" font-size="14.00" fill="#2c94b3">AS3491</text>
</a>
</g>
</g>
<!-- AS6830&#45;&gt;AS3491 -->
<g id="edge9" class="edge"><title>AS6830&#45;&gt;AS3491</title>
<path fill="none" stroke="black" d="M179.052,-270.899C189.389,-298.396 212.501,-351.277 247.484,-384 282.023,-416.308 332.235,-437.917 367.793,-450.25"/>
<polygon fill="black" stroke="black" points="366.815,-453.613 377.409,-453.484 369.046,-446.979 366.815,-453.613"/>
</g>
<!-- AS6453 -->
<g id="node11" class="node"><title>AS6453</title>
<g id="a_node11"><a xlink:href="/asn/6453" xlink:title="AS6453 ~ TATA COMMUNICATIONS (AMERICA) INC [US]">
<ellipse fill="#ffffff" stroke="black" cx="411.523" cy="-18" rx="39.7935" ry="18"/>
<text text-anchor="middle" x="411.523" y="-14.3" font-family="Times,serif" font-size="14.00" fill="#2c94b3">AS6453</text>
</a>
</g>
</g>
<!-- AS6830&#45;&gt;AS6453 -->
<g id="edge10" class="edge"><title>AS6830&#45;&gt;AS6453</title>
<path fill="none" stroke="black" d="M172.853,-234.817C173.972,-191.793 183.35,-83.5723 247.484,-33 280.192,-7.20914 328.874,-6.02913 364.527,-9.73557"/>
<polygon fill="black" stroke="black" points="364.33,-13.237 374.677,-10.9571 365.166,-6.28716 364.33,-13.237"/>
</g>
<!-- AS12956 -->
<g id="node12" class="node"><title>AS12956</title>
<g id="a_node12"><a xlink:href="/asn/12956" xlink:title="AS12956 ~ TELXIUS [ES]">
<ellipse fill="#ffffff" stroke="black" cx="291.681" cy="-77" rx="44.393" ry="18"/>
<text text-anchor="middle" x="291.681" y="-73.3" font-family="Times,serif" font-size="14.00" fill="#2c94b3">AS12956</text>
</a>
</g>
</g>
<!-- AS6830&#45;&gt;AS12956 -->
<g id="edge11" class="edge"><title>AS6830&#45;&gt;AS12956</title>
<path fill="none" stroke="black" d="M179.082,-235.065C189.76,-206.196 213.697,-148.652 247.484,-109 250.804,-105.104 254.684,-101.409 258.732,-98.0069"/>
<polygon fill="black" stroke="black" points="260.889,-100.763 266.619,-91.851 256.582,-95.2445 260.889,-100.763"/>
</g>
<!-- AS2497 -->
<g id="node13" class="node"><title>AS2497</title>
<g id="a_node13"><a xlink:href="/asn/2497" xlink:title="AS2497 ~ Internet Initiative Japan Inc. [JP]">
<ellipse fill="#ffffff" stroke="black" cx="411.523" cy="-406" rx="39.7935" ry="18"/>
<text text-anchor="middle" x="411.523" y="-402.3" font-family="Times,serif" font-size="14.00" fill="#2c94b3">AS2497</text>
</a>
</g>
</g>
<!-- AS6830&#45;&gt;AS2497 -->
<g id="edge12" class="edge"><title>AS6830&#45;&gt;AS2497</title>
<path fill="none" stroke="black" d="M182.086,-270.59C194.307,-292.22 217.799,-328.678 247.484,-350 282.441,-375.108 329.571,-389.678 364.168,-397.627"/>
<polygon fill="black" stroke="black" points="363.505,-401.065 374.023,-399.791 365.007,-394.228 363.505,-401.065"/>
</g>
<!-- AS2914 -->
<g id="node14" class="node"><title>AS2914</title>
<g id="a_node14"><a xlink:href="/asn/2914" xlink:title="AS2914 ~ NTT America, Inc. [US]">
<ellipse fill="#ffffff" stroke="black" cx="411.523" cy="-280" rx="39.7935" ry="18"/>
<text text-anchor="middle" x="411.523" y="-276.3" font-family="Times,serif" font-size="14.00" fill="#2c94b3">AS2914</text>
</a>
</g>
</g>
<!-- AS6830&#45;&gt;AS2914 -->
<g id="edge13" class="edge"><title>AS6830&#45;&gt;AS2914</title>
<path fill="none" stroke="black" d="M210.5,-257.278C251.668,-261.955 317.732,-269.459 362.574,-274.553"/>
<polygon fill="black" stroke="black" points="362.313,-278.046 372.645,-275.697 363.104,-271.091 362.313,-278.046"/>
</g>
<!-- AS174 -->
<g id="node15" class="node"><title>AS174</title>
<g id="a_node15"><a xlink:href="/asn/174" xlink:title="AS174 ~ Cogent Communications [US]">
<ellipse fill="#ffffff" stroke="black" cx="411.523" cy="-345" rx="35.194" ry="18"/>
<text text-anchor="middle" x="411.523" y="-341.3" font-family="Times,serif" font-size="14.00" fill="#2c94b3">AS174</text>
</a>
</g>
</g>
<!-- AS6830&#45;&gt;AS174 -->
<g id="edge14" class="edge"><title>AS6830&#45;&gt;AS174</title>
<path fill="none" stroke="black" d="M184.92,-270.185C198.129,-287.482 220.981,-313.356 247.484,-326 284.895,-343.847 332.427,-347.547 366.501,-347.415"/>
<polygon fill="black" stroke="black" points="366.672,-350.913 376.618,-347.262 366.567,-343.914 366.672,-350.913"/>
</g>
<!-- AS8447&#45;&gt;AS3320 -->
<g id="edge17" class="edge"><title>AS8447&#45;&gt;AS3320</title>
<path fill="none" stroke="black" stroke-width="3.21429" d="M182.282,-369.529C202.882,-331.421 251.956,-240.637 276.374,-195.466"/>
<polygon fill="black" stroke="black" stroke-width="3.21429" points="279.515,-197.016 281.191,-186.555 273.357,-193.687 279.515,-197.016"/>
</g>
<!-- AS8447&#45;&gt;AS6461 -->
<g id="edge19" class="edge"><title>AS8447&#45;&gt;AS6461</title>
<path fill="none" stroke="black" stroke-width="0.642857" d="M194.727,-401.86C213.248,-414.433 239.977,-432.579 260.524,-446.527"/>
<polygon fill="black" stroke="black" stroke-width="0.642857" points="258.669,-449.499 268.909,-452.22 262.601,-443.707 258.669,-449.499"/>
</g>
<!-- AS1299 -->
<g id="node16" class="node"><title>AS1299</title>
<g id="a_node16"><a xlink:href="/asn/1299" xlink:title="AS1299 ~ Telia Carrier [EU]">
<ellipse fill="#ffffff" stroke="black" cx="291.681" cy="-299" rx="39.7935" ry="18"/>
<text text-anchor="middle" x="291.681" y="-295.3" font-family="Times,serif" font-size="14.00" fill="#2c94b3">AS1299</text>
</a>
</g>
</g>
<!-- AS8447&#45;&gt;AS1299 -->
<g id="edge15" class="edge"><title>AS8447&#45;&gt;AS1299</title>
<path fill="none" stroke="black" stroke-width="3.85714" d="M193.365,-371.672C212.343,-357.499 240.733,-336.298 261.959,-320.448"/>
<polygon fill="black" stroke="black" stroke-width="3.85714" points="264.075,-323.236 269.994,-314.448 259.887,-317.627 264.075,-323.236"/>
</g>
<!-- AS3356 -->
<g id="node17" class="node"><title>AS3356</title>
<g id="a_node17"><a xlink:href="/asn/3356" xlink:title="AS3356 ~ Level 3 Parent, LLC [US]">
<ellipse fill="#ffffff" stroke="black" cx="291.681" cy="-521" rx="39.7935" ry="18"/>
<text text-anchor="middle" x="291.681" y="-517.3" font-family="Times,serif" font-size="14.00" fill="#2c94b3">AS3356</text>
</a>
</g>
</g>
<!-- AS8447&#45;&gt;AS3356 -->
<g id="edge16" class="edge"><title>AS8447&#45;&gt;AS3356</title>
<path fill="none" stroke="black" stroke-width="4.5" d="M182.116,-404.543C194.702,-427.172 218.922,-466.844 247.484,-494 250.359,-496.733 253.551,-499.336 256.863,-501.773"/>
<polygon fill="black" stroke="black" stroke-width="4.5" points="254.742,-505.092 265.225,-507.461 259.171,-498.581 254.742,-505.092"/>
</g>
<!-- AS6762 -->
<g id="node18" class="node"><title>AS6762</title>
<g id="a_node18"><a xlink:href="/asn/6762" xlink:title="AS6762 ~ TELECOM ITALIA SPARKLE S.p.A. [IT]">
<ellipse fill="#ffffff" stroke="black" cx="291.681" cy="-613" rx="39.7935" ry="18"/>
<text text-anchor="middle" x="291.681" y="-609.3" font-family="Times,serif" font-size="14.00" fill="#2c94b3">AS6762</text>
</a>
</g>
</g>
<!-- AS8447&#45;&gt;AS6762 -->
<g id="edge18" class="edge"><title>AS8447&#45;&gt;AS6762</title>
<path fill="none" stroke="black" stroke-width="0.642857" d="M176.218,-404.975C183.763,-441.319 204.773,-524.846 247.484,-581 250.652,-585.165 254.504,-589.04 258.588,-592.553"/>
<polygon fill="black" stroke="black" stroke-width="0.642857" points="256.582,-595.427 266.611,-598.842 260.901,-589.918 256.582,-595.427"/>
</g>
<!-- AS3320&#45;&gt;AS701 -->
<g id="edge32" class="edge"><title>AS3320&#45;&gt;AS701</title>
<path fill="none" stroke="black" d="M313.477,-153.823C332.525,-139.922 360.889,-119.222 382.04,-103.787"/>
<polygon fill="black" stroke="black" points="384.314,-106.46 390.328,-97.7381 380.187,-100.806 384.314,-106.46"/>
</g>
<!-- AS3320&#45;&gt;AS1239 -->
<g id="edge33" class="edge"><title>AS3320&#45;&gt;AS1239</title>
<path fill="none" stroke="black" d="M322.417,-180.608C337.211,-186.382 355.288,-193.439 371.21,-199.654"/>
<polygon fill="black" stroke="black" points="370.208,-203.02 380.796,-203.396 372.753,-196.499 370.208,-203.02"/>
</g>
<!-- AS3320&#45;&gt;AS6453 -->
<g id="edge34" class="edge"><title>AS3320&#45;&gt;AS6453</title>
<path fill="none" stroke="black" d="M304.272,-151.648C322.575,-124.393 357.557,-72.912 371.877,-56 376.106,-51.0045 380.891,-45.9181 385.616,-41.159"/>
<polygon fill="black" stroke="black" points="388.217,-43.5109 392.905,-34.0099 383.315,-38.5133 388.217,-43.5109"/>
</g>
<!-- AS3320&#45;&gt;AS2914 -->
<g id="edge31" class="edge"><title>AS3320&#45;&gt;AS2914</title>
<path fill="none" stroke="black" d="M309.816,-185.14C329.889,-204.048 363.292,-235.512 386.08,-256.977"/>
<polygon fill="black" stroke="black" points="383.688,-259.531 393.367,-263.84 388.488,-254.436 383.688,-259.531"/>
</g>
<!-- AS1299&#45;&gt;AS3257 -->
<g id="edge20" class="edge"><title>AS1299&#45;&gt;AS3257</title>
<path fill="none" stroke="black" d="M296.716,-316.947C305.471,-352.826 328.956,-434.703 371.877,-490 373.985,-492.717 376.41,-495.307 378.995,-497.742"/>
<polygon fill="black" stroke="black" points="377.174,-500.785 387.077,-504.551 381.684,-495.431 377.174,-500.785"/>
</g>
<!-- AS1299&#45;&gt;AS7018 -->
<g id="edge24" class="edge"><title>AS1299&#45;&gt;AS7018</title>
<path fill="none" stroke="black" d="M304.347,-281.771C319.443,-259.683 346.792,-220.373 371.877,-188 377.387,-180.889 383.571,-173.348 389.349,-166.474"/>
<polygon fill="black" stroke="black" points="392.08,-168.666 395.882,-158.776 386.743,-164.136 392.08,-168.666"/>
</g>
<!-- AS1299&#45;&gt;AS1239 -->
<g id="edge22" class="edge"><title>AS1299&#45;&gt;AS1239</title>
<path fill="none" stroke="black" d="M313.748,-283.982C332.484,-270.627 360.075,-250.96 381.008,-236.039"/>
<polygon fill="black" stroke="black" points="383.129,-238.825 389.24,-230.171 379.066,-233.125 383.129,-238.825"/>
</g>
<!-- AS1299&#45;&gt;AS2914 -->
<g id="edge21" class="edge"><title>AS1299&#45;&gt;AS2914</title>
<path fill="none" stroke="black" d="M329.321,-293.092C340.295,-291.323 352.478,-289.359 363.999,-287.501"/>
<polygon fill="black" stroke="black" points="364.59,-290.951 373.906,-285.904 363.476,-284.04 364.59,-290.951"/>
</g>
<!-- AS1299&#45;&gt;AS174 -->
<g id="edge23" class="edge"><title>AS1299&#45;&gt;AS174</title>
<path fill="none" stroke="black" d="M322.417,-310.608C338.034,-316.704 357.311,-324.229 373.848,-330.684"/>
<polygon fill="black" stroke="black" points="372.631,-333.966 383.219,-334.342 375.177,-327.445 372.631,-333.966"/>
</g>
<!-- AS3356&#45;&gt;AS3257 -->
<g id="edge27" class="edge"><title>AS3356&#45;&gt;AS3257</title>
<path fill="none" stroke="black" d="M331.593,-520.34C341.146,-520.177 351.496,-520.002 361.459,-519.833"/>
<polygon fill="black" stroke="black" points="361.712,-523.329 371.651,-519.66 361.593,-516.33 361.712,-523.329"/>
</g>
<!-- AS3356&#45;&gt;AS3491 -->
<g id="edge25" class="edge"><title>AS3356&#45;&gt;AS3491</title>
<path fill="none" stroke="black" d="M319.127,-507.984C335.538,-499.906 356.837,-489.423 374.746,-480.609"/>
<polygon fill="black" stroke="black" points="376.331,-483.73 383.757,-476.174 373.24,-477.449 376.331,-483.73"/>
</g>
<!-- AS3356&#45;&gt;AS2497 -->
<g id="edge30" class="edge"><title>AS3356&#45;&gt;AS2497</title>
<path fill="none" stroke="black" d="M318.324,-507.654C324.485,-503.752 330.757,-499.136 335.877,-494 357.296,-472.513 351.574,-458.546 371.877,-436 374.55,-433.032 377.545,-430.141 380.654,-427.4"/>
<polygon fill="black" stroke="black" points="383.006,-429.998 388.497,-420.937 378.554,-424.596 383.006,-429.998"/>
</g>
<!-- AS3356&#45;&gt;AS2914 -->
<g id="edge29" class="edge"><title>AS3356&#45;&gt;AS2914</title>
<path fill="none" stroke="black" d="M320.583,-508.21C326.395,-504.386 331.942,-499.666 335.877,-494 381.416,-428.419 333.753,-388.152 371.877,-318 374.812,-312.598 378.767,-307.477 383.03,-302.847"/>
<polygon fill="black" stroke="black" points="385.743,-305.086 390.369,-295.554 380.808,-300.121 385.743,-305.086"/>
</g>
<!-- AS3356&#45;&gt;AS174 -->
<g id="edge28" class="edge"><title>AS3356&#45;&gt;AS174</title>
<path fill="none" stroke="black" d="M319.725,-508.201C325.711,-504.335 331.551,-499.599 335.877,-494 368.619,-451.617 342.691,-423.906 371.877,-379 374.785,-374.525 378.439,-370.288 382.334,-366.421"/>
<polygon fill="black" stroke="black" points="384.933,-368.789 389.985,-359.476 380.228,-363.606 384.933,-368.789"/>
</g>
<!-- AS3549 -->
<g id="node19" class="node"><title>AS3549</title>
<g id="a_node19"><a xlink:href="/asn/3549" xlink:title="AS3549 ~ Level 3 Parent, LLC [US]">
<ellipse fill="#ffffff" stroke="black" cx="411.523" cy="-573" rx="39.7935" ry="18"/>
<text text-anchor="middle" x="411.523" y="-569.3" font-family="Times,serif" font-size="14.00" fill="#2c94b3">AS3549</text>
</a>
</g>
</g>
<!-- AS3356&#45;&gt;AS3549 -->
<g id="edge26" class="edge"><title>AS3356&#45;&gt;AS3549</title>
<path fill="none" stroke="black" d="M320.608,-533.323C336.197,-540.202 355.833,-548.867 372.775,-556.343"/>
<polygon fill="black" stroke="black" points="371.826,-559.75 382.388,-560.585 374.652,-553.346 371.826,-559.75"/>
</g>
</g>
</svg>
