<?xml version="1.0" encoding="UTF-8" standalone="no"?>
<!DOCTYPE svg PUBLIC "-//W3C//DTD SVG 1.1//EN"
 "http://www.w3.org/Graphics/SVG/1.1/DTD/svg11.dtd">
<!-- Generated by graphviz version 2.38.0 (20140413.2041)
 -->
<!-- Title: AS200986 Combined Upstream Graph Pages: 1 -->
<svg width="459pt" height="753pt"
 viewBox="0.00 0.00 459.17 753.00" xmlns="http://www.w3.org/2000/svg" xmlns:xlink="http://www.w3.org/1999/xlink">
<g id="graph0" class="graph" transform="scale(1 1) rotate(0) translate(4 749)">
<title>AS200986 Combined Upstream Graph</title>
<polygon fill="white" stroke="none" points="-4,4 -4,-749 455.17,-749 455.17,4 -4,4"/>
<!-- AS200986 -->
<g id="node1" class="node"><title>AS200986</title>
<g id="a_node1"><a xlink:href="/asn/200986" xlink:title="AS200986 ~ D Swarovski Tourism Service GmbH [AT]">
<ellipse fill="#ffffff" stroke="black" cx="48.0957" cy="-401" rx="48.1917" ry="18"/>
<text text-anchor="middle" x="48.0957" y="-397.3" font-family="Times,serif" font-size="14.00" fill="#880000">AS200986</text>
</a>
</g>
</g>
<!-- AS6830 -->
<g id="node2" class="node"><title>AS6830</title>
<g id="a_node2"><a xlink:href="/asn/6830" xlink:title="AS6830 ~ LGI&#45;UPC [AT]">
<ellipse fill="#ffffff" stroke="black" cx="171.838" cy="-290" rx="39.7935" ry="18"/>
<text text-anchor="middle" x="171.838" y="-286.3" font-family="Times,serif" font-size="14.00" fill="#2c94b3">AS6830</text>
</a>
</g>
</g>
<!-- AS200986&#45;&gt;AS6830 -->
<g id="edge1" class="edge"><title>AS200986&#45;&gt;AS6830</title>
<path fill="none" stroke="black" stroke-width="2.3625" d="M67.3218,-384.382C88.1801,-365.364 122.464,-334.106 145.814,-312.816"/>
<polygon fill="black" stroke="black" stroke-width="2.3625" points="148.247,-315.334 153.279,-306.01 143.531,-310.161 148.247,-315.334"/>
</g>
<!-- AS8447 -->
<g id="node3" class="node"><title>AS8447</title>
<g id="a_node3"><a xlink:href="/asn/8447" xlink:title="AS8447 ~ A1 Telekom Austria AG [AT]">
<ellipse fill="#ffffff" stroke="black" cx="171.838" cy="-489" rx="39.7935" ry="18"/>
<text text-anchor="middle" x="171.838" y="-485.3" font-family="Times,serif" font-size="14.00" fill="#2c94b3">AS8447</text>
</a>
</g>
</g>
<!-- AS200986&#45;&gt;AS8447 -->
<g id="edge2" class="edge"><title>AS200986&#45;&gt;AS8447</title>
<path fill="none" stroke="black" stroke-width="4.5" d="M71.1423,-416.936C90.8625,-431.191 119.913,-452.189 141.574,-467.847"/>
<polygon fill="black" stroke="black" stroke-width="4.5" points="139.359,-471.104 149.77,-473.771 143.972,-464.722 139.359,-471.104"/>
</g>
<!-- AS3257 -->
<g id="node4" class="node"><title>AS3257</title>
<g id="a_node4"><a xlink:href="/asn/3257" xlink:title="AS3257 ~ GTT [DE]">
<ellipse fill="#ffffff" stroke="black" cx="411.523" cy="-573" rx="39.7935" ry="18"/>
<text text-anchor="middle" x="411.523" y="-569.3" font-family="Times,serif" font-size="14.00" fill="#2c94b3">AS3257</text>
</a>
</g>
</g>
<!-- AS6830&#45;&gt;AS3257 -->
<g id="edge3" class="edge"><title>AS6830&#45;&gt;AS3257</title>
<path fill="none" stroke="black" stroke-width="2" d="M176.914,-308.074C183.976,-339.408 198.937,-405.846 211.484,-462 227.569,-533.981 189.951,-577.849 247.484,-624 278.129,-648.582 298.342,-635.598 335.877,-624 337.213,-623.587 360.23,-607.804 380.355,-593.906"/>
<polygon fill="black" stroke="black" stroke-width="2" points="382.496,-596.681 388.732,-588.115 378.515,-590.923 382.496,-596.681"/>
</g>
<!-- AS7018 -->
<g id="node5" class="node"><title>AS7018</title>
<g id="a_node5"><a xlink:href="/asn/7018" xlink:title="AS7018 ~ AT&amp;T Services, Inc. [US]">
<ellipse fill="#ffffff" stroke="black" cx="411.523" cy="-211" rx="39.7935" ry="18"/>
<text text-anchor="middle" x="411.523" y="-207.3" font-family="Times,serif" font-size="14.00" fill="#2c94b3">AS7018</text>
</a>
</g>
</g>
<!-- AS6830&#45;&gt;AS7018 -->
<g id="edge4" class="edge"><title>AS6830&#45;&gt;AS7018</title>
<path fill="none" stroke="black" stroke-width="2" d="M176.132,-272.008C183.011,-240.328 202.189,-175.362 247.484,-148 281.111,-127.687 299.156,-134.039 335.877,-148 355.886,-155.608 355.522,-166.187 371.877,-180 375.372,-182.952 379.083,-186.015 382.769,-189.017"/>
<polygon fill="black" stroke="black" stroke-width="2" points="380.725,-191.865 390.706,-195.42 385.121,-186.417 380.725,-191.865"/>
</g>
<!-- AS3491 -->
<g id="node6" class="node"><title>AS3491</title>
<g id="a_node6"><a xlink:href="/asn/3491" xlink:title="AS3491 ~ PCCW Global, Inc. [US]">
<ellipse fill="#ffffff" stroke="black" cx="411.523" cy="-400" rx="39.7935" ry="18"/>
<text text-anchor="middle" x="411.523" y="-396.3" font-family="Times,serif" font-size="14.00" fill="#2c94b3">AS3491</text>
</a>
</g>
</g>
<!-- AS6830&#45;&gt;AS3491 -->
<g id="edge5" class="edge"><title>AS6830&#45;&gt;AS3491</title>
<path fill="none" stroke="black" stroke-width="2" d="M196.66,-304.349C211.132,-312.827 230.11,-323.525 247.484,-332 270.196,-343.078 331.225,-368.071 371.83,-384.473"/>
<polygon fill="black" stroke="black" stroke-width="2" points="370.589,-387.747 381.172,-388.241 373.207,-381.255 370.589,-387.747"/>
</g>
<!-- AS12956 -->
<g id="node7" class="node"><title>AS12956</title>
<g id="a_node7"><a xlink:href="/asn/12956" xlink:title="AS12956 ~ TELXIUS [ES]">
<ellipse fill="#ffffff" stroke="black" cx="291.681" cy="-175" rx="44.393" ry="18"/>
<text text-anchor="middle" x="291.681" y="-171.3" font-family="Times,serif" font-size="14.00" fill="#2c94b3">AS12956</text>
</a>
</g>
</g>
<!-- AS6830&#45;&gt;AS12956 -->
<g id="edge6" class="edge"><title>AS6830&#45;&gt;AS12956</title>
<path fill="none" stroke="black" d="M186.245,-273.19C200.534,-255.749 224.257,-228.123 247.484,-207 251.355,-203.48 255.603,-199.967 259.876,-196.627"/>
<polygon fill="black" stroke="black" points="262.166,-199.282 268.032,-190.46 257.945,-193.699 262.166,-199.282"/>
</g>
<!-- AS6453 -->
<g id="node8" class="node"><title>AS6453</title>
<g id="a_node8"><a xlink:href="/asn/6453" xlink:title="AS6453 ~ TATA COMMUNICATIONS (AMERICA) INC [US]">
<ellipse fill="#ffffff" stroke="black" cx="411.523" cy="-267" rx="39.7935" ry="18"/>
<text text-anchor="middle" x="411.523" y="-263.3" font-family="Times,serif" font-size="14.00" fill="#2c94b3">AS6453</text>
</a>
</g>
</g>
<!-- AS6830&#45;&gt;AS6453 -->
<g id="edge7" class="edge"><title>AS6830&#45;&gt;AS6453</title>
<path fill="none" stroke="black" stroke-width="2" d="M190.272,-273.907C204.48,-261.955 225.696,-246.623 247.484,-240 285.072,-228.575 297.181,-233.217 335.877,-240 348.39,-242.194 361.571,-246.309 373.316,-250.677"/>
<polygon fill="black" stroke="black" stroke-width="2" points="372.21,-254.002 382.798,-254.369 374.75,-247.479 372.21,-254.002"/>
</g>
<!-- AS174 -->
<g id="node9" class="node"><title>AS174</title>
<g id="a_node9"><a xlink:href="/asn/174" xlink:title="AS174 ~ Cogent Communications [US]">
<ellipse fill="#ffffff" stroke="black" cx="411.523" cy="-681" rx="35.194" ry="18"/>
<text text-anchor="middle" x="411.523" y="-677.3" font-family="Times,serif" font-size="14.00" fill="#2c94b3">AS174</text>
</a>
</g>
</g>
<!-- AS6830&#45;&gt;AS174 -->
<g id="edge8" class="edge"><title>AS6830&#45;&gt;AS174</title>
<path fill="none" stroke="black" stroke-width="2" d="M177.053,-308.044C184.325,-339.332 199.594,-405.703 211.484,-462 228.524,-542.676 189.998,-584.888 247.484,-644 278.058,-675.438 329.332,-682.655 366.223,-683.291"/>
<polygon fill="black" stroke="black" stroke-width="2" points="366.69,-686.791 376.694,-683.304 366.698,-679.791 366.69,-686.791"/>
</g>
<!-- AS1239 -->
<g id="node10" class="node"><title>AS1239</title>
<g id="a_node10"><a xlink:href="/asn/1239" xlink:title="AS1239 ~ Sprint [US]">
<ellipse fill="#ffffff" stroke="black" cx="411.523" cy="-90" rx="39.7935" ry="18"/>
<text text-anchor="middle" x="411.523" y="-86.3" font-family="Times,serif" font-size="14.00" fill="#2c94b3">AS1239</text>
</a>
</g>
</g>
<!-- AS6830&#45;&gt;AS1239 -->
<g id="edge9" class="edge"><title>AS6830&#45;&gt;AS1239</title>
<path fill="none" stroke="black" d="M174.681,-271.959C179.446,-235.441 195.683,-152.866 247.484,-113 280.061,-87.929 327.486,-83.767 362.797,-84.9344"/>
<polygon fill="black" stroke="black" points="362.717,-88.4345 372.874,-85.4209 363.054,-81.4427 362.717,-88.4345"/>
</g>
<!-- AS3320 -->
<g id="node11" class="node"><title>AS3320</title>
<g id="a_node11"><a xlink:href="/asn/3320" xlink:title="AS3320 ~ DTAG [DE]">
<ellipse fill="#ffffff" stroke="black" cx="291.681" cy="-267" rx="39.7935" ry="18"/>
<text text-anchor="middle" x="291.681" y="-263.3" font-family="Times,serif" font-size="14.00" fill="#2c94b3">AS3320</text>
</a>
</g>
</g>
<!-- AS6830&#45;&gt;AS3320 -->
<g id="edge10" class="edge"><title>AS6830&#45;&gt;AS3320</title>
<path fill="none" stroke="black" d="M208.514,-283.037C219.946,-280.806 232.768,-278.303 244.821,-275.951"/>
<polygon fill="black" stroke="black" points="245.574,-279.37 254.719,-274.019 244.233,-272.499 245.574,-279.37"/>
</g>
<!-- AS701 -->
<g id="node12" class="node"><title>AS701</title>
<g id="a_node12"><a xlink:href="/asn/701" xlink:title="AS701 ~ UUNET [US]">
<ellipse fill="#ffffff" stroke="black" cx="411.523" cy="-18" rx="35.194" ry="18"/>
<text text-anchor="middle" x="411.523" y="-14.3" font-family="Times,serif" font-size="14.00" fill="#2c94b3">AS701</text>
</a>
</g>
</g>
<!-- AS6830&#45;&gt;AS701 -->
<g id="edge11" class="edge"><title>AS6830&#45;&gt;AS701</title>
<path fill="none" stroke="black" stroke-width="2" d="M174.301,-271.997C178.47,-232.224 193.834,-136.047 247.484,-81 279.621,-48.0265 330.939,-32.0082 367.41,-24.4298"/>
<polygon fill="black" stroke="black" stroke-width="2" points="368.128,-27.8558 377.275,-22.5091 366.791,-20.9849 368.128,-27.8558"/>
</g>
<!-- AS2914 -->
<g id="node13" class="node"><title>AS2914</title>
<g id="a_node13"><a xlink:href="/asn/2914" xlink:title="AS2914 ~ NTT America, Inc. [US]">
<ellipse fill="#ffffff" stroke="black" cx="411.523" cy="-346" rx="39.7935" ry="18"/>
<text text-anchor="middle" x="411.523" y="-342.3" font-family="Times,serif" font-size="14.00" fill="#2c94b3">AS2914</text>
</a>
</g>
</g>
<!-- AS6830&#45;&gt;AS2914 -->
<g id="edge12" class="edge"><title>AS6830&#45;&gt;AS2914</title>
<path fill="none" stroke="black" stroke-width="2" d="M207.399,-298.143C249.294,-308.014 319.979,-324.667 365.939,-335.496"/>
<polygon fill="black" stroke="black" stroke-width="2" points="365.384,-338.961 375.92,-337.847 366.989,-332.147 365.384,-338.961"/>
</g>
<!-- AS2497 -->
<g id="node14" class="node"><title>AS2497</title>
<g id="a_node14"><a xlink:href="/asn/2497" xlink:title="AS2497 ~ Internet Initiative Japan Inc. [JP]">
<ellipse fill="#ffffff" stroke="black" cx="411.523" cy="-458" rx="39.7935" ry="18"/>
<text text-anchor="middle" x="411.523" y="-454.3" font-family="Times,serif" font-size="14.00" fill="#2c94b3">AS2497</text>
</a>
</g>
</g>
<!-- AS6830&#45;&gt;AS2497 -->
<g id="edge13" class="edge"><title>AS6830&#45;&gt;AS2497</title>
<path fill="none" stroke="black" stroke-width="2" d="M177.579,-307.996C186.257,-337.215 207.58,-394.656 247.484,-424 280.311,-448.139 326.401,-456.005 361.206,-458.199"/>
<polygon fill="black" stroke="black" stroke-width="2" points="361.458,-461.716 371.618,-458.71 361.801,-454.724 361.458,-461.716"/>
</g>
<!-- AS6461 -->
<g id="node15" class="node"><title>AS6461</title>
<g id="a_node15"><a xlink:href="/asn/6461" xlink:title="AS6461 ~ Zayo Bandwidth [US]">
<ellipse fill="#ffffff" stroke="black" cx="291.681" cy="-489" rx="39.7935" ry="18"/>
<text text-anchor="middle" x="291.681" y="-485.3" font-family="Times,serif" font-size="14.00" fill="#2c94b3">AS6461</text>
</a>
</g>
</g>
<!-- AS6830&#45;&gt;AS6461 -->
<g id="edge14" class="edge"><title>AS6830&#45;&gt;AS6461</title>
<path fill="none" stroke="black" d="M177.556,-307.94C186.761,-340.39 209.596,-409.836 247.484,-457 250.761,-461.079 254.675,-464.906 258.788,-468.396"/>
<polygon fill="black" stroke="black" points="256.794,-471.279 266.832,-474.669 261.099,-465.76 256.794,-471.279"/>
</g>
<!-- AS1273 -->
<g id="node16" class="node"><title>AS1273</title>
<g id="a_node16"><a xlink:href="/asn/1273" xlink:title="AS1273 ~ Vodafone Group PLC [EU]">
<ellipse fill="#ffffff" stroke="black" cx="411.523" cy="-153" rx="39.7935" ry="18"/>
<text text-anchor="middle" x="411.523" y="-149.3" font-family="Times,serif" font-size="14.00" fill="#2c94b3">AS1273</text>
</a>
</g>
</g>
<!-- AS6830&#45;&gt;AS1273 -->
<g id="edge15" class="edge"><title>AS6830&#45;&gt;AS1273</title>
<path fill="none" stroke="black" d="M175.107,-271.854C180.517,-237.29 197.677,-162.64 247.484,-131 286.049,-106.502 340.075,-121.209 375.184,-135.691"/>
<polygon fill="black" stroke="black" points="373.988,-138.987 384.557,-139.737 376.763,-132.56 373.988,-138.987"/>
</g>
<!-- AS8447&#45;&gt;AS3320 -->
<g id="edge20" class="edge"><title>AS8447&#45;&gt;AS3320</title>
<path fill="none" stroke="black" stroke-width="2.42308" d="M182.085,-471.58C202.6,-432.932 252.039,-339.796 276.494,-293.726"/>
<polygon fill="black" stroke="black" stroke-width="2.42308" points="279.716,-295.12 281.313,-284.646 273.533,-291.838 279.716,-295.12"/>
</g>
<!-- AS8447&#45;&gt;AS6461 -->
<g id="edge18" class="edge"><title>AS8447&#45;&gt;AS6461</title>
<path fill="none" stroke="black" stroke-width="0.346154" d="M211.751,-489C221.304,-489 231.654,-489 241.616,-489"/>
<polygon fill="black" stroke="black" stroke-width="0.346154" points="241.809,-492.5 251.809,-489 241.809,-485.5 241.809,-492.5"/>
</g>
<!-- AS3356 -->
<g id="node17" class="node"><title>AS3356</title>
<g id="a_node17"><a xlink:href="/asn/3356" xlink:title="AS3356 ~ Level 3 Parent, LLC [US]">
<ellipse fill="#ffffff" stroke="black" cx="291.681" cy="-597" rx="39.7935" ry="18"/>
<text text-anchor="middle" x="291.681" y="-593.3" font-family="Times,serif" font-size="14.00" fill="#2c94b3">AS3356</text>
</a>
</g>
</g>
<!-- AS8447&#45;&gt;AS3356 -->
<g id="edge16" class="edge"><title>AS8447&#45;&gt;AS3356</title>
<path fill="none" stroke="black" stroke-width="4.5" d="M186.257,-506.065C200.372,-523.375 223.786,-550.345 247.484,-570 250.701,-572.668 254.201,-575.27 257.772,-577.741"/>
<polygon fill="black" stroke="black" stroke-width="4.5" points="255.609,-581.032 266.128,-583.236 259.936,-574.452 255.609,-581.032"/>
</g>
<!-- AS1299 -->
<g id="node18" class="node"><title>AS1299</title>
<g id="a_node18"><a xlink:href="/asn/1299" xlink:title="AS1299 ~ Telia Carrier [EU]">
<ellipse fill="#ffffff" stroke="black" cx="291.681" cy="-543" rx="39.7935" ry="18"/>
<text text-anchor="middle" x="291.681" y="-539.3" font-family="Times,serif" font-size="14.00" fill="#2c94b3">AS1299</text>
</a>
</g>
</g>
<!-- AS8447&#45;&gt;AS1299 -->
<g id="edge17" class="edge"><title>AS8447&#45;&gt;AS1299</title>
<path fill="none" stroke="black" stroke-width="3.80769" d="M200.467,-501.661C216.424,-508.973 236.694,-518.261 253.977,-526.181"/>
<polygon fill="black" stroke="black" stroke-width="3.80769" points="252.676,-529.435 263.225,-530.419 255.592,-523.071 252.676,-529.435"/>
</g>
<!-- AS6762 -->
<g id="node19" class="node"><title>AS6762</title>
<g id="a_node19"><a xlink:href="/asn/6762" xlink:title="AS6762 ~ TELECOM ITALIA SPARKLE S.p.A. [IT]">
<ellipse fill="#ffffff" stroke="black" cx="291.681" cy="-727" rx="39.7935" ry="18"/>
<text text-anchor="middle" x="291.681" y="-723.3" font-family="Times,serif" font-size="14.00" fill="#2c94b3">AS6762</text>
</a>
</g>
</g>
<!-- AS8447&#45;&gt;AS6762 -->
<g id="edge19" class="edge"><title>AS8447&#45;&gt;AS6762</title>
<path fill="none" stroke="black" stroke-width="1.03846" d="M175.718,-506.918C182.539,-544.859 202.593,-634.759 247.484,-695 250.611,-699.195 254.44,-703.088 258.513,-706.609"/>
<polygon fill="black" stroke="black" stroke-width="1.03846" points="256.502,-709.48 266.528,-712.905 260.826,-703.975 256.502,-709.48"/>
</g>
<!-- AS6939 -->
<g id="node20" class="node"><title>AS6939</title>
<g id="a_node20"><a xlink:href="/asn/6939" xlink:title="AS6939 ~ Hurricane Electric LLC [US]">
<ellipse fill="#ffffff" stroke="black" cx="291.681" cy="-397" rx="39.7935" ry="18"/>
<text text-anchor="middle" x="291.681" y="-393.3" font-family="Times,serif" font-size="14.00" fill="#2c94b3">AS6939</text>
</a>
</g>
</g>
<!-- AS8447&#45;&gt;AS6939 -->
<g id="edge21" class="edge"><title>AS8447&#45;&gt;AS6939</title>
<path fill="none" stroke="black" stroke-width="1.73077" d="M192.562,-473.601C211.766,-458.609 241.137,-435.679 262.741,-418.812"/>
<polygon fill="black" stroke="black" stroke-width="1.73077" points="265.163,-421.362 270.892,-412.449 260.856,-415.844 265.163,-421.362"/>
</g>
<!-- AS3320&#45;&gt;AS6453 -->
<g id="edge39" class="edge"><title>AS3320&#45;&gt;AS6453</title>
<path fill="none" stroke="black" d="M331.593,-267C341.146,-267 351.496,-267 361.459,-267"/>
<polygon fill="black" stroke="black" points="361.651,-270.5 371.651,-267 361.651,-263.5 361.651,-270.5"/>
</g>
<!-- AS3320&#45;&gt;AS1239 -->
<g id="edge38" class="edge"><title>AS3320&#45;&gt;AS1239</title>
<path fill="none" stroke="black" d="M305.117,-249.775C314.154,-236.917 326.409,-218.75 335.877,-202 354.268,-169.462 349.808,-156.165 371.877,-126 375.26,-121.375 379.295,-116.862 383.462,-112.683"/>
<polygon fill="black" stroke="black" points="386.127,-114.98 390.992,-105.568 381.32,-109.892 386.127,-114.98"/>
</g>
<!-- AS3320&#45;&gt;AS701 -->
<g id="edge36" class="edge"><title>AS3320&#45;&gt;AS701</title>
<path fill="none" stroke="black" stroke-width="2" d="M306.284,-249.995C315.774,-237.391 328.087,-219.444 335.877,-202 361.897,-143.73 342.322,-119.56 371.877,-63 375.834,-55.4272 381.285,-48.0364 386.847,-41.5049"/>
<polygon fill="black" stroke="black" stroke-width="2" points="389.749,-43.5129 393.846,-33.7423 384.55,-38.8252 389.749,-43.5129"/>
</g>
<!-- AS3320&#45;&gt;AS2914 -->
<g id="edge37" class="edge"><title>AS3320&#45;&gt;AS2914</title>
<path fill="none" stroke="black" stroke-width="2" d="M314.846,-281.859C333.281,-294.218 359.708,-311.934 380.119,-325.617"/>
<polygon fill="black" stroke="black" stroke-width="2" points="378.202,-328.546 388.457,-331.207 382.1,-322.732 378.202,-328.546"/>
</g>
<!-- AS3356&#45;&gt;AS3257 -->
<g id="edge24" class="edge"><title>AS3356&#45;&gt;AS3257</title>
<path fill="none" stroke="black" d="M328.037,-589.799C339.584,-587.448 352.575,-584.802 364.774,-582.317"/>
<polygon fill="black" stroke="black" points="365.684,-585.704 374.784,-580.279 364.287,-578.845 365.684,-585.704"/>
</g>
<!-- AS3356&#45;&gt;AS3491 -->
<g id="edge23" class="edge"><title>AS3356&#45;&gt;AS3491</title>
<path fill="none" stroke="black" d="M319.925,-584.352C325.905,-580.481 331.692,-575.705 335.877,-570 373.617,-518.54 337.22,-484.586 371.877,-431 374.073,-427.603 376.768,-424.408 379.702,-421.456"/>
<polygon fill="black" stroke="black" points="382.212,-423.907 387.345,-414.638 377.552,-418.683 382.212,-423.907"/>
</g>
<!-- AS3356&#45;&gt;AS6453 -->
<g id="edge25" class="edge"><title>AS3356&#45;&gt;AS6453</title>
<path fill="none" stroke="black" d="M320.83,-584.376C326.631,-580.545 332.112,-575.78 335.877,-570 397.383,-475.567 328.948,-423.2 371.877,-319 375.926,-309.172 382.251,-299.514 388.621,-291.24"/>
<polygon fill="black" stroke="black" points="391.341,-293.443 394.923,-283.472 385.905,-289.033 391.341,-293.443"/>
</g>
<!-- AS3356&#45;&gt;AS174 -->
<g id="edge28" class="edge"><title>AS3356&#45;&gt;AS174</title>
<path fill="none" stroke="black" stroke-width="2" d="M313.466,-612.081C329.407,-623.618 351.978,-639.889 371.877,-654 375.09,-656.278 378.46,-658.654 381.816,-661.011"/>
<polygon fill="black" stroke="black" stroke-width="2" points="379.829,-663.892 390.028,-666.761 383.844,-658.158 379.829,-663.892"/>
</g>
<!-- AS3356&#45;&gt;AS2914 -->
<g id="edge27" class="edge"><title>AS3356&#45;&gt;AS2914</title>
<path fill="none" stroke="black" stroke-width="2" d="M320.67,-584.27C326.478,-580.443 332.002,-575.707 335.877,-570 385.872,-496.363 323.782,-447.892 371.877,-373 373.452,-370.547 375.338,-368.253 377.416,-366.123"/>
<polygon fill="black" stroke="black" stroke-width="2" points="379.785,-368.701 385.058,-359.511 375.205,-363.407 379.785,-368.701"/>
</g>
<!-- AS3356&#45;&gt;AS2497 -->
<g id="edge22" class="edge"><title>AS3356&#45;&gt;AS2497</title>
<path fill="none" stroke="black" stroke-width="2" d="M319.226,-583.789C325.227,-579.936 331.199,-575.308 335.877,-570 361.118,-541.353 349.049,-522.606 371.877,-492 375.002,-487.809 378.717,-483.759 382.589,-480.003"/>
<polygon fill="black" stroke="black" stroke-width="2" points="385.055,-482.492 390.115,-473.183 380.355,-477.304 385.055,-482.492"/>
</g>
<!-- AS3549 -->
<g id="node21" class="node"><title>AS3549</title>
<g id="a_node21"><a xlink:href="/asn/3549" xlink:title="AS3549 ~ Level 3 Parent, LLC [US]">
<ellipse fill="#ffffff" stroke="black" cx="411.523" cy="-627" rx="39.7935" ry="18"/>
<text text-anchor="middle" x="411.523" y="-623.3" font-family="Times,serif" font-size="14.00" fill="#2c94b3">AS3549</text>
</a>
</g>
</g>
<!-- AS3356&#45;&gt;AS3549 -->
<g id="edge26" class="edge"><title>AS3356&#45;&gt;AS3549</title>
<path fill="none" stroke="black" d="M326.765,-605.677C339.224,-608.849 353.496,-612.482 366.687,-615.84"/>
<polygon fill="black" stroke="black" points="365.96,-619.267 376.515,-618.342 367.687,-612.483 365.96,-619.267"/>
</g>
<!-- AS209 -->
<g id="node22" class="node"><title>AS209</title>
<g id="a_node22"><a xlink:href="/asn/209" xlink:title="AS209 ~ CenturyLink Communications, LLC [US]">
<ellipse fill="#ffffff" stroke="black" cx="411.523" cy="-519" rx="35.194" ry="18"/>
<text text-anchor="middle" x="411.523" y="-515.3" font-family="Times,serif" font-size="14.00" fill="#2c94b3">AS209</text>
</a>
</g>
</g>
<!-- AS3356&#45;&gt;AS209 -->
<g id="edge29" class="edge"><title>AS3356&#45;&gt;AS209</title>
<path fill="none" stroke="black" d="M316.106,-582.6C322.547,-578.574 329.511,-574.162 335.877,-570 351.071,-560.066 367.774,-548.698 381.52,-539.219"/>
<polygon fill="black" stroke="black" points="383.847,-541.865 390.08,-533.298 379.865,-536.108 383.847,-541.865"/>
</g>
<!-- AS1299&#45;&gt;AS3257 -->
<g id="edge31" class="edge"><title>AS1299&#45;&gt;AS3257</title>
<path fill="none" stroke="black" d="M326.765,-551.677C339.224,-554.849 353.496,-558.482 366.687,-561.84"/>
<polygon fill="black" stroke="black" points="365.96,-565.267 376.515,-564.342 367.687,-558.483 365.96,-565.267"/>
</g>
<!-- AS1299&#45;&gt;AS7018 -->
<g id="edge30" class="edge"><title>AS1299&#45;&gt;AS7018</title>
<path fill="none" stroke="black" stroke-width="2" d="M320.883,-530.41C326.682,-526.578 332.149,-521.804 335.877,-516 402.729,-411.914 309.513,-346.836 371.877,-240 373.568,-237.102 375.675,-234.402 378.025,-231.908"/>
<polygon fill="black" stroke="black" stroke-width="2" points="380.546,-234.348 385.637,-225.056 375.863,-229.145 380.546,-234.348"/>
</g>
<!-- AS1299&#45;&gt;AS174 -->
<g id="edge32" class="edge"><title>AS1299&#45;&gt;AS174</title>
<path fill="none" stroke="black" stroke-width="2" d="M319.33,-556.12C325.328,-559.976 331.273,-564.628 335.877,-570 362.307,-600.842 346.244,-622.492 371.877,-654 373.994,-656.603 376.425,-659.065 379.014,-661.364"/>
<polygon fill="black" stroke="black" stroke-width="2" points="377.085,-664.3 387.102,-667.751 381.423,-658.807 377.085,-664.3"/>
</g>
<!-- AS1299&#45;&gt;AS2914 -->
<g id="edge34" class="edge"><title>AS1299&#45;&gt;AS2914</title>
<path fill="none" stroke="black" stroke-width="2" d="M319.953,-530.372C325.932,-526.501 331.712,-521.719 335.877,-516 374.456,-463.019 334.665,-426.95 371.877,-373 373.532,-370.6 375.475,-368.345 377.594,-366.241"/>
<polygon fill="black" stroke="black" stroke-width="2" points="379.96,-368.824 385.311,-359.679 375.425,-363.491 379.96,-368.824"/>
</g>
<!-- AS1299&#45;&gt;AS2497 -->
<g id="edge33" class="edge"><title>AS1299&#45;&gt;AS2497</title>
<path fill="none" stroke="black" d="M316.278,-528.855C322.72,-524.83 329.641,-520.355 335.877,-516 352.186,-504.611 369.786,-491.004 383.797,-479.833"/>
<polygon fill="black" stroke="black" points="385.989,-482.562 391.596,-473.572 381.607,-477.103 385.989,-482.562"/>
</g>
<!-- AS1299&#45;&gt;AS209 -->
<g id="edge35" class="edge"><title>AS1299&#45;&gt;AS209</title>
<path fill="none" stroke="black" d="M328.037,-535.799C340.787,-533.203 355.299,-530.247 368.559,-527.546"/>
<polygon fill="black" stroke="black" points="369.304,-530.967 378.405,-525.541 367.907,-524.107 369.304,-530.967"/>
</g>
<!-- AS6762&#45;&gt;AS174 -->
<g id="edge45" class="edge"><title>AS6762&#45;&gt;AS174</title>
<path fill="none" stroke="black" d="M322.417,-715.392C338.034,-709.296 357.311,-701.771 373.848,-695.316"/>
<polygon fill="black" stroke="black" points="375.177,-698.555 383.219,-691.658 372.631,-692.034 375.177,-698.555"/>
</g>
<!-- AS6939&#45;&gt;AS3491 -->
<g id="edge41" class="edge"><title>AS6939&#45;&gt;AS3491</title>
<path fill="none" stroke="black" d="M331.593,-397.991C341.146,-398.234 351.496,-398.497 361.459,-398.751"/>
<polygon fill="black" stroke="black" points="361.565,-402.255 371.651,-399.01 361.744,-395.257 361.565,-402.255"/>
</g>
<!-- AS6939&#45;&gt;AS2914 -->
<g id="edge43" class="edge"><title>AS6939&#45;&gt;AS2914</title>
<path fill="none" stroke="black" d="M320.907,-384.784C336.389,-378.084 355.794,-369.686 372.584,-362.419"/>
<polygon fill="black" stroke="black" points="374.331,-365.477 382.119,-358.293 371.551,-359.053 374.331,-365.477"/>
</g>
<!-- AS6939&#45;&gt;AS2497 -->
<g id="edge44" class="edge"><title>AS6939&#45;&gt;AS2497</title>
<path fill="none" stroke="black" d="M318.542,-410.387C335.35,-419.087 357.465,-430.535 375.798,-440.025"/>
<polygon fill="black" stroke="black" points="374.233,-443.156 384.722,-444.645 377.451,-436.939 374.233,-443.156"/>
</g>
<!-- AS6939&#45;&gt;AS1273 -->
<g id="edge40" class="edge"><title>AS6939&#45;&gt;AS1273</title>
<path fill="none" stroke="black" d="M300.613,-379.311C309.632,-358.931 324.569,-324.344 335.877,-294 353.838,-245.797 342.597,-226.295 371.877,-184 374.179,-180.674 376.94,-177.524 379.913,-174.597"/>
<polygon fill="black" stroke="black" points="382.421,-177.052 387.601,-167.809 377.788,-171.804 382.421,-177.052"/>
</g>
<!-- AS6939&#45;&gt;AS209 -->
<g id="edge42" class="edge"><title>AS6939&#45;&gt;AS209</title>
<path fill="none" stroke="black" d="M306.727,-413.744C322.147,-431.85 347.908,-461.299 371.877,-485 375.928,-489.006 380.358,-493.125 384.727,-497.052"/>
<polygon fill="black" stroke="black" points="382.616,-499.858 392.43,-503.849 387.247,-494.609 382.616,-499.858"/>
</g>
</g>
</svg>
