<?xml version="1.0" encoding="UTF-8" standalone="no"?>
<!DOCTYPE svg PUBLIC "-//W3C//DTD SVG 1.1//EN"
 "http://www.w3.org/Graphics/SVG/1.1/DTD/svg11.dtd">
<!-- Generated by graphviz version 2.38.0 (20140413.2041)
 -->
<!-- Title: AS21013 IPv6 Upstream Graph Pages: 1 -->
<svg width="442pt" height="422pt"
 viewBox="0.00 0.00 442.27 422.00" xmlns="http://www.w3.org/2000/svg" xmlns:xlink="http://www.w3.org/1999/xlink">
<g id="graph0" class="graph" transform="scale(1 1) rotate(0) translate(4 418)">
<title>AS21013 IPv6 Upstream Graph</title>
<polygon fill="white" stroke="none" points="-4,4 -4,-418 438.271,-418 438.271,4 -4,4"/>
<!-- AS21013 -->
<g id="node1" class="node"><title>AS21013</title>
<g id="a_node1"><a xlink:href="/asn/21013" xlink:title="AS21013 ~ Wels, AT [AT]">
<ellipse fill="#ffffff" stroke="black" cx="44.1961" cy="-180" rx="44.393" ry="18"/>
<text text-anchor="middle" x="44.1961" y="-176.3" font-family="Times,serif" font-size="14.00" fill="#880000">AS21013</text>
</a>
</g>
</g>
<!-- AS174 -->
<g id="node2" class="node"><title>AS174</title>
<g id="a_node2"><a xlink:href="/asn/174" xlink:title="AS174 ~ Cogent Communications [US]">
<ellipse fill="#ffffff" stroke="black" cx="164.039" cy="-288" rx="35.194" ry="18"/>
<text text-anchor="middle" x="164.039" y="-284.3" font-family="Times,serif" font-size="14.00" fill="#2c94b3">AS174</text>
</a>
</g>
</g>
<!-- AS21013&#45;&gt;AS174 -->
<g id="edge1" class="edge"><title>AS21013&#45;&gt;AS174</title>
<path fill="none" stroke="black" stroke-width="4.5" d="M60.1284,-197.044C75.4547,-214.097 100.39,-240.65 124.392,-261 127.244,-263.418 130.309,-265.833 133.421,-268.169"/>
<polygon fill="black" stroke="black" stroke-width="4.5" points="131.237,-271.45 141.649,-274.116 135.85,-265.067 131.237,-271.45"/>
</g>
<!-- AS1764 -->
<g id="node3" class="node"><title>AS1764</title>
<g id="a_node3"><a xlink:href="/asn/1764" xlink:title="AS1764 ~ NEXTLAYER&#45;AS [AT]">
<ellipse fill="#ffffff" stroke="black" cx="164.039" cy="-180" rx="39.7935" ry="18"/>
<text text-anchor="middle" x="164.039" y="-176.3" font-family="Times,serif" font-size="14.00" fill="#2c94b3">AS1764</text>
</a>
</g>
</g>
<!-- AS21013&#45;&gt;AS1764 -->
<g id="edge2" class="edge"><title>AS21013&#45;&gt;AS1764</title>
<path fill="none" stroke="black" stroke-width="0.9" d="M88.4072,-180C96.7198,-180 105.482,-180 113.965,-180"/>
<polygon fill="black" stroke="black" stroke-width="0.9" points="114.123,-183.5 124.123,-180 114.123,-176.5 114.123,-183.5"/>
</g>
<!-- AS2914 -->
<g id="node4" class="node"><title>AS2914</title>
<g id="a_node4"><a xlink:href="/asn/2914" xlink:title="AS2914 ~ NTT America, Inc. [US]">
<ellipse fill="#ffffff" stroke="black" cx="164.039" cy="-126" rx="39.7935" ry="18"/>
<text text-anchor="middle" x="164.039" y="-122.3" font-family="Times,serif" font-size="14.00" fill="#2c94b3">AS2914</text>
</a>
</g>
</g>
<!-- AS21013&#45;&gt;AS2914 -->
<g id="edge3" class="edge"><title>AS21013&#45;&gt;AS2914</title>
<path fill="none" stroke="black" stroke-width="0.9" d="M74.3257,-166.652C89.9369,-159.498 109.335,-150.609 126.007,-142.97"/>
<polygon fill="black" stroke="black" stroke-width="0.9" points="127.826,-145.986 135.459,-138.638 124.91,-139.622 127.826,-145.986"/>
</g>
<!-- AS3356 -->
<g id="node5" class="node"><title>AS3356</title>
<g id="a_node5"><a xlink:href="/asn/3356" xlink:title="AS3356 ~ Level 3 Parent, LLC [US]">
<ellipse fill="#ffffff" stroke="black" cx="164.039" cy="-234" rx="39.7935" ry="18"/>
<text text-anchor="middle" x="164.039" y="-230.3" font-family="Times,serif" font-size="14.00" fill="#2c94b3">AS3356</text>
</a>
</g>
</g>
<!-- AS21013&#45;&gt;AS3356 -->
<g id="edge4" class="edge"><title>AS21013&#45;&gt;AS3356</title>
<path fill="none" stroke="black" stroke-width="1.8" d="M74.3257,-193.348C89.9369,-200.502 109.335,-209.391 126.007,-217.03"/>
<polygon fill="black" stroke="black" stroke-width="1.8" points="124.91,-220.378 135.459,-221.362 127.826,-214.014 124.91,-220.378"/>
</g>
<!-- AS6939 -->
<g id="node6" class="node"><title>AS6939</title>
<g id="a_node6"><a xlink:href="/asn/6939" xlink:title="AS6939 ~ Hurricane Electric LLC [US]">
<ellipse fill="#ffffff" stroke="black" cx="164.039" cy="-72" rx="39.7935" ry="18"/>
<text text-anchor="middle" x="164.039" y="-68.3" font-family="Times,serif" font-size="14.00" fill="#2c94b3">AS6939</text>
</a>
</g>
</g>
<!-- AS21013&#45;&gt;AS6939 -->
<g id="edge5" class="edge"><title>AS21013&#45;&gt;AS6939</title>
<path fill="none" stroke="black" stroke-width="2.7" d="M60.1284,-162.956C75.4547,-145.903 100.39,-119.35 124.392,-99 126.889,-96.8828 129.55,-94.7681 132.261,-92.7067"/>
<polygon fill="black" stroke="black" stroke-width="2.7" points="134.427,-95.4588 140.437,-86.7336 130.298,-89.8064 134.427,-95.4588"/>
</g>
<!-- AS701 -->
<g id="node7" class="node"><title>AS701</title>
<g id="a_node7"><a xlink:href="/asn/701" xlink:title="AS701 ~ UUNET [US]">
<ellipse fill="#ffffff" stroke="black" cx="279.332" cy="-396" rx="35.194" ry="18"/>
<text text-anchor="middle" x="279.332" y="-392.3" font-family="Times,serif" font-size="14.00" fill="#2c94b3">AS701</text>
</a>
</g>
</g>
<!-- AS174&#45;&gt;AS701 -->
<g id="edge6" class="edge"><title>AS174&#45;&gt;AS701</title>
<path fill="none" stroke="black" d="M178.404,-304.499C192.659,-321.596 216.354,-348.619 239.685,-369 242.355,-371.332 245.228,-373.648 248.158,-375.886"/>
<polygon fill="black" stroke="black" points="246.309,-378.87 256.449,-381.939 250.436,-373.216 246.309,-378.87"/>
</g>
<!-- AS209 -->
<g id="node8" class="node"><title>AS209</title>
<g id="a_node8"><a xlink:href="/asn/209" xlink:title="AS209 ~ CenturyLink Communications, LLC [US]">
<ellipse fill="#ffffff" stroke="black" cx="279.332" cy="-342" rx="35.194" ry="18"/>
<text text-anchor="middle" x="279.332" y="-338.3" font-family="Times,serif" font-size="14.00" fill="#2c94b3">AS209</text>
</a>
</g>
</g>
<!-- AS174&#45;&gt;AS209 -->
<g id="edge7" class="edge"><title>AS174&#45;&gt;AS209</title>
<path fill="none" stroke="black" d="M190.464,-300.119C206.207,-307.622 226.629,-317.356 243.822,-325.551"/>
<polygon fill="black" stroke="black" points="242.458,-328.779 252.991,-329.922 245.47,-322.46 242.458,-328.779"/>
</g>
<!-- AS6453 -->
<g id="node9" class="node"><title>AS6453</title>
<g id="a_node9"><a xlink:href="/asn/6453" xlink:title="AS6453 ~ TATA COMMUNICATIONS (AMERICA) INC [US]">
<ellipse fill="#ffffff" stroke="black" cx="279.332" cy="-288" rx="39.7935" ry="18"/>
<text text-anchor="middle" x="279.332" y="-284.3" font-family="Times,serif" font-size="14.00" fill="#2c94b3">AS6453</text>
</a>
</g>
</g>
<!-- AS174&#45;&gt;AS6453 -->
<g id="edge8" class="edge"><title>AS174&#45;&gt;AS6453</title>
<path fill="none" stroke="black" d="M199.338,-288C208.715,-288 219.065,-288 229.1,-288"/>
<polygon fill="black" stroke="black" points="229.388,-291.5 239.388,-288 229.388,-284.5 229.388,-291.5"/>
</g>
<!-- AS7018 -->
<g id="node10" class="node"><title>AS7018</title>
<g id="a_node10"><a xlink:href="/asn/7018" xlink:title="AS7018 ~ AT&amp;T Services, Inc. [US]">
<ellipse fill="#ffffff" stroke="black" cx="279.332" cy="-234" rx="39.7935" ry="18"/>
<text text-anchor="middle" x="279.332" y="-230.3" font-family="Times,serif" font-size="14.00" fill="#2c94b3">AS7018</text>
</a>
</g>
</g>
<!-- AS174&#45;&gt;AS7018 -->
<g id="edge9" class="edge"><title>AS174&#45;&gt;AS7018</title>
<path fill="none" stroke="black" d="M190.464,-275.881C205.766,-268.587 225.49,-259.186 242.372,-251.14"/>
<polygon fill="black" stroke="black" points="243.891,-254.293 251.412,-246.831 240.879,-247.974 243.891,-254.293"/>
</g>
<!-- AS8218 -->
<g id="node11" class="node"><title>AS8218</title>
<g id="a_node11"><a xlink:href="/asn/8218" xlink:title="AS8218 ~ legacy Neotelecoms [FR]">
<ellipse fill="#ffffff" stroke="black" cx="279.332" cy="-180" rx="39.7935" ry="18"/>
<text text-anchor="middle" x="279.332" y="-176.3" font-family="Times,serif" font-size="14.00" fill="#2c94b3">AS8218</text>
</a>
</g>
</g>
<!-- AS1764&#45;&gt;AS8218 -->
<g id="edge10" class="edge"><title>AS1764&#45;&gt;AS8218</title>
<path fill="none" stroke="black" d="M203.711,-180C211.914,-180 220.678,-180 229.21,-180"/>
<polygon fill="black" stroke="black" points="229.449,-183.5 239.449,-180 229.449,-176.5 229.449,-183.5"/>
</g>
<!-- AS3356&#45;&gt;AS6453 -->
<g id="edge12" class="edge"><title>AS3356&#45;&gt;AS6453</title>
<path fill="none" stroke="black" d="M192.175,-246.934C207.169,-254.081 225.99,-263.052 242.213,-270.785"/>
<polygon fill="black" stroke="black" points="240.884,-274.028 251.417,-275.171 243.895,-267.709 240.884,-274.028"/>
</g>
<!-- AS3356&#45;&gt;AS7018 -->
<g id="edge13" class="edge"><title>AS3356&#45;&gt;AS7018</title>
<path fill="none" stroke="black" d="M203.711,-234C211.914,-234 220.678,-234 229.21,-234"/>
<polygon fill="black" stroke="black" points="229.449,-237.5 239.449,-234 229.449,-230.5 229.449,-237.5"/>
</g>
<!-- AS3491 -->
<g id="node13" class="node"><title>AS3491</title>
<g id="a_node13"><a xlink:href="/asn/3491" xlink:title="AS3491 ~ PCCW Global, Inc. [US]">
<ellipse fill="#ffffff" stroke="black" cx="279.332" cy="-126" rx="39.7935" ry="18"/>
<text text-anchor="middle" x="279.332" y="-122.3" font-family="Times,serif" font-size="14.00" fill="#2c94b3">AS3491</text>
</a>
</g>
</g>
<!-- AS6939&#45;&gt;AS3491 -->
<g id="edge14" class="edge"><title>AS6939&#45;&gt;AS3491</title>
<path fill="none" stroke="black" d="M192.175,-84.9343C207.169,-92.0811 225.99,-101.052 242.213,-108.785"/>
<polygon fill="black" stroke="black" points="240.884,-112.028 251.417,-113.171 243.895,-105.709 240.884,-112.028"/>
</g>
<!-- AS2497 -->
<g id="node14" class="node"><title>AS2497</title>
<g id="a_node14"><a xlink:href="/asn/2497" xlink:title="AS2497 ~ Internet Initiative Japan Inc. [JP]">
<ellipse fill="#ffffff" stroke="black" cx="279.332" cy="-72" rx="39.7935" ry="18"/>
<text text-anchor="middle" x="279.332" y="-68.3" font-family="Times,serif" font-size="14.00" fill="#2c94b3">AS2497</text>
</a>
</g>
</g>
<!-- AS6939&#45;&gt;AS2497 -->
<g id="edge15" class="edge"><title>AS6939&#45;&gt;AS2497</title>
<path fill="none" stroke="black" d="M203.711,-72C211.914,-72 220.678,-72 229.21,-72"/>
<polygon fill="black" stroke="black" points="229.449,-75.5001 239.449,-72 229.449,-68.5001 229.449,-75.5001"/>
</g>
<!-- AS1273 -->
<g id="node15" class="node"><title>AS1273</title>
<g id="a_node15"><a xlink:href="/asn/1273" xlink:title="AS1273 ~ Vodafone Group PLC [EU]">
<ellipse fill="#ffffff" stroke="black" cx="279.332" cy="-18" rx="39.7935" ry="18"/>
<text text-anchor="middle" x="279.332" y="-14.3" font-family="Times,serif" font-size="14.00" fill="#2c94b3">AS1273</text>
</a>
</g>
</g>
<!-- AS6939&#45;&gt;AS1273 -->
<g id="edge16" class="edge"><title>AS6939&#45;&gt;AS1273</title>
<path fill="none" stroke="black" d="M192.175,-59.0657C207.169,-51.9189 225.99,-42.9481 242.213,-35.2154"/>
<polygon fill="black" stroke="black" points="243.895,-38.291 251.417,-30.8288 240.884,-31.972 243.895,-38.291"/>
</g>
<!-- AS6461 -->
<g id="node12" class="node"><title>AS6461</title>
<g id="a_node12"><a xlink:href="/asn/6461" xlink:title="AS6461 ~ Zayo Bandwidth [US]">
<ellipse fill="#ffffff" stroke="black" cx="394.625" cy="-180" rx="39.7935" ry="18"/>
<text text-anchor="middle" x="394.625" y="-176.3" font-family="Times,serif" font-size="14.00" fill="#2c94b3">AS6461</text>
</a>
</g>
</g>
<!-- AS8218&#45;&gt;AS6461 -->
<g id="edge11" class="edge"><title>AS8218&#45;&gt;AS6461</title>
<path fill="none" stroke="black" d="M319.004,-180C327.207,-180 335.971,-180 344.503,-180"/>
<polygon fill="black" stroke="black" points="344.742,-183.5 354.742,-180 344.742,-176.5 344.742,-183.5"/>
</g>
</g>
</svg>
