<?xml version="1.0" encoding="UTF-8" standalone="no"?>
<!DOCTYPE svg PUBLIC "-//W3C//DTD SVG 1.1//EN"
 "http://www.w3.org/Graphics/SVG/1.1/DTD/svg11.dtd">
<!-- Generated by graphviz version 2.38.0 (20140413.2041)
 -->
<!-- Title: AS21013 IPv6 Upstream Graph Pages: 1 -->
<svg width="442pt" height="476pt"
 viewBox="0.00 0.00 442.27 476.00" xmlns="http://www.w3.org/2000/svg" xmlns:xlink="http://www.w3.org/1999/xlink">
<g id="graph0" class="graph" transform="scale(1 1) rotate(0) translate(4 472)">
<title>AS21013 IPv6 Upstream Graph</title>
<polygon fill="white" stroke="none" points="-4,4 -4,-472 438.271,-472 438.271,4 -4,4"/>
<!-- AS21013 -->
<g id="node1" class="node"><title>AS21013</title>
<g id="a_node1"><a xlink:href="/asn/21013" xlink:title="AS21013 ~ Wels, AT [AT]">
<ellipse fill="#ffffff" stroke="black" cx="44.1961" cy="-234" rx="44.393" ry="18"/>
<text text-anchor="middle" x="44.1961" y="-230.3" font-family="Times,serif" font-size="14.00" fill="#880000">AS21013</text>
</a>
</g>
</g>
<!-- AS174 -->
<g id="node2" class="node"><title>AS174</title>
<g id="a_node2"><a xlink:href="/asn/174" xlink:title="AS174 ~ Cogent Communications [US]">
<ellipse fill="#ffffff" stroke="black" cx="164.039" cy="-342" rx="35.194" ry="18"/>
<text text-anchor="middle" x="164.039" y="-338.3" font-family="Times,serif" font-size="14.00" fill="#2c94b3">AS174</text>
</a>
</g>
</g>
<!-- AS21013&#45;&gt;AS174 -->
<g id="edge1" class="edge"><title>AS21013&#45;&gt;AS174</title>
<path fill="none" stroke="black" stroke-width="2.25" d="M63.0938,-250.403C83.2525,-268.878 116.129,-299.009 138.632,-319.632"/>
<polygon fill="black" stroke="black" stroke-width="2.25" points="136.384,-322.319 146.121,-326.496 141.114,-317.159 136.384,-322.319"/>
</g>
<!-- AS1764 -->
<g id="node3" class="node"><title>AS1764</title>
<g id="a_node3"><a xlink:href="/asn/1764" xlink:title="AS1764 ~ NEXTLAYER&#45;AS [AT]">
<ellipse fill="#ffffff" stroke="black" cx="164.039" cy="-423" rx="39.7935" ry="18"/>
<text text-anchor="middle" x="164.039" y="-419.3" font-family="Times,serif" font-size="14.00" fill="#2c94b3">AS1764</text>
</a>
</g>
</g>
<!-- AS21013&#45;&gt;AS1764 -->
<g id="edge2" class="edge"><title>AS21013&#45;&gt;AS1764</title>
<path fill="none" stroke="black" stroke-width="0.75" d="M54.9493,-251.783C69.4246,-277.901 97.7577,-327.977 124.392,-369 130.577,-378.526 137.725,-388.717 144.178,-397.651"/>
<polygon fill="black" stroke="black" stroke-width="0.75" points="141.379,-399.751 150.099,-405.768 147.034,-395.626 141.379,-399.751"/>
</g>
<!-- AS2914 -->
<g id="node4" class="node"><title>AS2914</title>
<g id="a_node4"><a xlink:href="/asn/2914" xlink:title="AS2914 ~ NTT America, Inc. [US]">
<ellipse fill="#ffffff" stroke="black" cx="164.039" cy="-167" rx="39.7935" ry="18"/>
<text text-anchor="middle" x="164.039" y="-163.3" font-family="Times,serif" font-size="14.00" fill="#2c94b3">AS2914</text>
</a>
</g>
</g>
<!-- AS21013&#45;&gt;AS2914 -->
<g id="edge3" class="edge"><title>AS21013&#45;&gt;AS2914</title>
<path fill="none" stroke="black" stroke-width="1.5" d="M70.7662,-219.462C87.9854,-209.672 110.871,-196.66 129.542,-186.045"/>
<polygon fill="black" stroke="black" stroke-width="1.5" points="131.363,-189.036 138.326,-181.05 127.903,-182.95 131.363,-189.036"/>
</g>
<!-- AS3356 -->
<g id="node5" class="node"><title>AS3356</title>
<g id="a_node5"><a xlink:href="/asn/3356" xlink:title="AS3356 ~ Level 3 Parent, LLC [US]">
<ellipse fill="#ffffff" stroke="black" cx="164.039" cy="-234" rx="39.7935" ry="18"/>
<text text-anchor="middle" x="164.039" y="-230.3" font-family="Times,serif" font-size="14.00" fill="#2c94b3">AS3356</text>
</a>
</g>
</g>
<!-- AS21013&#45;&gt;AS3356 -->
<g id="edge4" class="edge"><title>AS21013&#45;&gt;AS3356</title>
<path fill="none" stroke="black" stroke-width="4.5" d="M88.4072,-234C96.7198,-234 105.482,-234 113.965,-234"/>
<polygon fill="black" stroke="black" stroke-width="4.5" points="114.123,-237.938 124.123,-234 114.123,-230.063 114.123,-237.938"/>
</g>
<!-- AS6939 -->
<g id="node6" class="node"><title>AS6939</title>
<g id="a_node6"><a xlink:href="/asn/6939" xlink:title="AS6939 ~ Hurricane Electric LLC [US]">
<ellipse fill="#ffffff" stroke="black" cx="164.039" cy="-86" rx="39.7935" ry="18"/>
<text text-anchor="middle" x="164.039" y="-82.3" font-family="Times,serif" font-size="14.00" fill="#2c94b3">AS6939</text>
</a>
</g>
</g>
<!-- AS21013&#45;&gt;AS6939 -->
<g id="edge5" class="edge"><title>AS21013&#45;&gt;AS6939</title>
<path fill="none" stroke="black" stroke-width="2.25" d="M58.9447,-216.733C79.7004,-190.666 119.146,-141.126 143.07,-111.079"/>
<polygon fill="black" stroke="black" stroke-width="2.25" points="145.887,-113.16 149.378,-103.157 140.41,-108.8 145.887,-113.16"/>
</g>
<!-- AS6762 -->
<g id="node7" class="node"><title>AS6762</title>
<g id="a_node7"><a xlink:href="/asn/6762" xlink:title="AS6762 ~ TELECOM ITALIA SPARKLE S.p.A. [IT]">
<ellipse fill="#ffffff" stroke="black" cx="279.332" cy="-396" rx="39.7935" ry="18"/>
<text text-anchor="middle" x="279.332" y="-392.3" font-family="Times,serif" font-size="14.00" fill="#2c94b3">AS6762</text>
</a>
</g>
</g>
<!-- AS174&#45;&gt;AS6762 -->
<g id="edge6" class="edge"><title>AS174&#45;&gt;AS6762</title>
<path fill="none" stroke="black" d="M190.464,-354.119C205.766,-361.413 225.49,-370.814 242.372,-378.86"/>
<polygon fill="black" stroke="black" points="240.879,-382.026 251.412,-383.169 243.891,-375.707 240.879,-382.026"/>
</g>
<!-- AS701 -->
<g id="node8" class="node"><title>AS701</title>
<g id="a_node8"><a xlink:href="/asn/701" xlink:title="AS701 ~ UUNET [US]">
<ellipse fill="#ffffff" stroke="black" cx="279.332" cy="-342" rx="35.194" ry="18"/>
<text text-anchor="middle" x="279.332" y="-338.3" font-family="Times,serif" font-size="14.00" fill="#2c94b3">AS701</text>
</a>
</g>
</g>
<!-- AS174&#45;&gt;AS701 -->
<g id="edge7" class="edge"><title>AS174&#45;&gt;AS701</title>
<path fill="none" stroke="black" d="M199.338,-342C210.208,-342 222.385,-342 233.863,-342"/>
<polygon fill="black" stroke="black" points="234.149,-345.5 244.149,-342 234.149,-338.5 234.149,-345.5"/>
</g>
<!-- AS8218 -->
<g id="node9" class="node"><title>AS8218</title>
<g id="a_node9"><a xlink:href="/asn/8218" xlink:title="AS8218 ~ legacy Neotelecoms [FR]">
<ellipse fill="#ffffff" stroke="black" cx="279.332" cy="-450" rx="39.7935" ry="18"/>
<text text-anchor="middle" x="279.332" y="-446.3" font-family="Times,serif" font-size="14.00" fill="#2c94b3">AS8218</text>
</a>
</g>
</g>
<!-- AS1764&#45;&gt;AS8218 -->
<g id="edge8" class="edge"><title>AS1764&#45;&gt;AS8218</title>
<path fill="none" stroke="black" d="M199.646,-431.248C210.517,-433.838 222.671,-436.735 234.114,-439.462"/>
<polygon fill="black" stroke="black" points="233.397,-442.889 243.936,-441.803 235.02,-436.08 233.397,-442.889"/>
</g>
<!-- AS2497 -->
<g id="node11" class="node"><title>AS2497</title>
<g id="a_node11"><a xlink:href="/asn/2497" xlink:title="AS2497 ~ Internet Initiative Japan Inc. [JP]">
<ellipse fill="#ffffff" stroke="black" cx="279.332" cy="-126" rx="39.7935" ry="18"/>
<text text-anchor="middle" x="279.332" y="-122.3" font-family="Times,serif" font-size="14.00" fill="#2c94b3">AS2497</text>
</a>
</g>
</g>
<!-- AS2914&#45;&gt;AS2497 -->
<g id="edge10" class="edge"><title>AS2914&#45;&gt;AS2497</title>
<path fill="none" stroke="black" d="M195.697,-155.905C208.67,-151.21 223.963,-145.676 237.844,-140.652"/>
<polygon fill="black" stroke="black" points="239.436,-143.798 247.648,-137.104 237.054,-137.216 239.436,-143.798"/>
</g>
<!-- AS3356&#45;&gt;AS701 -->
<g id="edge11" class="edge"><title>AS3356&#45;&gt;AS701</title>
<path fill="none" stroke="black" d="M178.669,-250.817C192.951,-267.929 216.498,-294.745 239.685,-315 242.355,-317.332 245.228,-319.648 248.158,-321.886"/>
<polygon fill="black" stroke="black" points="246.309,-324.87 256.449,-327.939 250.436,-319.216 246.309,-324.87"/>
</g>
<!-- AS3356&#45;&gt;AS2497 -->
<g id="edge14" class="edge"><title>AS3356&#45;&gt;AS2497</title>
<path fill="none" stroke="black" d="M181.389,-217.432C188.341,-210.296 196.489,-201.812 203.685,-194 220.115,-176.164 221.615,-169.172 239.685,-153 242.125,-150.817 244.745,-148.656 247.431,-146.565"/>
<polygon fill="black" stroke="black" points="249.61,-149.307 255.567,-140.546 245.446,-143.68 249.61,-149.307"/>
</g>
<!-- AS7018 -->
<g id="node12" class="node"><title>AS7018</title>
<g id="a_node12"><a xlink:href="/asn/7018" xlink:title="AS7018 ~ AT&amp;T Services, Inc. [US]">
<ellipse fill="#ffffff" stroke="black" cx="279.332" cy="-234" rx="39.7935" ry="18"/>
<text text-anchor="middle" x="279.332" y="-230.3" font-family="Times,serif" font-size="14.00" fill="#2c94b3">AS7018</text>
</a>
</g>
</g>
<!-- AS3356&#45;&gt;AS7018 -->
<g id="edge12" class="edge"><title>AS3356&#45;&gt;AS7018</title>
<path fill="none" stroke="black" d="M203.711,-234C211.914,-234 220.678,-234 229.21,-234"/>
<polygon fill="black" stroke="black" points="229.449,-237.5 239.449,-234 229.449,-230.5 229.449,-237.5"/>
</g>
<!-- AS6453 -->
<g id="node13" class="node"><title>AS6453</title>
<g id="a_node13"><a xlink:href="/asn/6453" xlink:title="AS6453 ~ TATA COMMUNICATIONS (AMERICA) INC [US]">
<ellipse fill="#ffffff" stroke="black" cx="279.332" cy="-180" rx="39.7935" ry="18"/>
<text text-anchor="middle" x="279.332" y="-176.3" font-family="Times,serif" font-size="14.00" fill="#2c94b3">AS6453</text>
</a>
</g>
</g>
<!-- AS3356&#45;&gt;AS6453 -->
<g id="edge13" class="edge"><title>AS3356&#45;&gt;AS6453</title>
<path fill="none" stroke="black" d="M192.175,-221.066C207.169,-213.919 225.99,-204.948 242.213,-197.215"/>
<polygon fill="black" stroke="black" points="243.895,-200.291 251.417,-192.829 240.884,-193.972 243.895,-200.291"/>
</g>
<!-- AS209 -->
<g id="node14" class="node"><title>AS209</title>
<g id="a_node14"><a xlink:href="/asn/209" xlink:title="AS209 ~ CenturyLink Communications, LLC [US]">
<ellipse fill="#ffffff" stroke="black" cx="279.332" cy="-288" rx="35.194" ry="18"/>
<text text-anchor="middle" x="279.332" y="-284.3" font-family="Times,serif" font-size="14.00" fill="#2c94b3">AS209</text>
</a>
</g>
</g>
<!-- AS3356&#45;&gt;AS209 -->
<g id="edge15" class="edge"><title>AS3356&#45;&gt;AS209</title>
<path fill="none" stroke="black" d="M192.175,-246.934C207.607,-254.29 227.092,-263.577 243.628,-271.459"/>
<polygon fill="black" stroke="black" points="242.436,-274.768 252.969,-275.911 245.448,-268.449 242.436,-274.768"/>
</g>
<!-- AS6939&#45;&gt;AS2497 -->
<g id="edge18" class="edge"><title>AS6939&#45;&gt;AS2497</title>
<path fill="none" stroke="black" d="M195.996,-96.9302C208.86,-101.472 223.966,-106.805 237.702,-111.655"/>
<polygon fill="black" stroke="black" points="236.816,-115.054 247.411,-115.083 239.147,-108.453 236.816,-115.054"/>
</g>
<!-- AS1273 -->
<g id="node15" class="node"><title>AS1273</title>
<g id="a_node15"><a xlink:href="/asn/1273" xlink:title="AS1273 ~ Vodafone Group PLC [EU]">
<ellipse fill="#ffffff" stroke="black" cx="279.332" cy="-18" rx="39.7935" ry="18"/>
<text text-anchor="middle" x="279.332" y="-14.3" font-family="Times,serif" font-size="14.00" fill="#2c94b3">AS1273</text>
</a>
</g>
</g>
<!-- AS6939&#45;&gt;AS1273 -->
<g id="edge16" class="edge"><title>AS6939&#45;&gt;AS1273</title>
<path fill="none" stroke="black" d="M188.789,-71.745C205.405,-61.7714 227.801,-48.329 246.038,-37.383"/>
<polygon fill="black" stroke="black" points="247.84,-40.3836 254.613,-32.2363 244.238,-34.3817 247.84,-40.3836"/>
</g>
<!-- AS3491 -->
<g id="node16" class="node"><title>AS3491</title>
<g id="a_node16"><a xlink:href="/asn/3491" xlink:title="AS3491 ~ PCCW Global, Inc. [US]">
<ellipse fill="#ffffff" stroke="black" cx="279.332" cy="-72" rx="39.7935" ry="18"/>
<text text-anchor="middle" x="279.332" y="-68.3" font-family="Times,serif" font-size="14.00" fill="#2c94b3">AS3491</text>
</a>
</g>
</g>
<!-- AS6939&#45;&gt;AS3491 -->
<g id="edge17" class="edge"><title>AS6939&#45;&gt;AS3491</title>
<path fill="none" stroke="black" d="M202.449,-81.3771C211.537,-80.2541 221.374,-79.0384 230.859,-77.8664"/>
<polygon fill="black" stroke="black" points="231.465,-81.3181 240.961,-76.6181 230.607,-74.371 231.465,-81.3181"/>
</g>
<!-- AS6461 -->
<g id="node10" class="node"><title>AS6461</title>
<g id="a_node10"><a xlink:href="/asn/6461" xlink:title="AS6461 ~ Zayo Bandwidth [US]">
<ellipse fill="#ffffff" stroke="black" cx="394.625" cy="-450" rx="39.7935" ry="18"/>
<text text-anchor="middle" x="394.625" y="-446.3" font-family="Times,serif" font-size="14.00" fill="#2c94b3">AS6461</text>
</a>
</g>
</g>
<!-- AS8218&#45;&gt;AS6461 -->
<g id="edge9" class="edge"><title>AS8218&#45;&gt;AS6461</title>
<path fill="none" stroke="black" d="M319.004,-450C327.207,-450 335.971,-450 344.503,-450"/>
<polygon fill="black" stroke="black" points="344.742,-453.5 354.742,-450 344.742,-446.5 344.742,-453.5"/>
</g>
</g>
</svg>
