<?xml version="1.0" encoding="UTF-8" standalone="no"?>
<!DOCTYPE svg PUBLIC "-//W3C//DTD SVG 1.1//EN"
 "http://www.w3.org/Graphics/SVG/1.1/DTD/svg11.dtd">
<!-- Generated by graphviz version 2.38.0 (20140413.2041)
 -->
<!-- Title: AS34785 Combined Upstream Graph Pages: 1 -->
<svg width="567pt" height="530pt"
 viewBox="0.00 0.00 566.66 530.00" xmlns="http://www.w3.org/2000/svg" xmlns:xlink="http://www.w3.org/1999/xlink">
<g id="graph0" class="graph" transform="scale(1 1) rotate(0) translate(4 526)">
<title>AS34785 Combined Upstream Graph</title>
<polygon fill="white" stroke="none" points="-4,4 -4,-526 562.663,-526 562.663,4 -4,4"/>
<!-- AS34785 -->
<g id="node1" class="node"><title>AS34785</title>
<g id="a_node1"><a xlink:href="/asn/34785" xlink:title="AS34785 ~ Stadtwerke Klagenfurt AG [AT]">
<ellipse fill="#ffffff" stroke="black" cx="44.1961" cy="-281" rx="44.393" ry="18"/>
<text text-anchor="middle" x="44.1961" y="-277.3" font-family="Times,serif" font-size="14.00" fill="#880000">AS34785</text>
</a>
</g>
</g>
<!-- AS21013 -->
<g id="node2" class="node"><title>AS21013</title>
<g id="a_node2"><a xlink:href="/asn/21013" xlink:title="AS21013 ~ Wels, AT [AT]">
<ellipse fill="#ffffff" stroke="black" cx="168.588" cy="-315" rx="44.393" ry="18"/>
<text text-anchor="middle" x="168.588" y="-311.3" font-family="Times,serif" font-size="14.00" fill="#2c94b3">AS21013</text>
</a>
</g>
</g>
<!-- AS34785&#45;&gt;AS21013 -->
<g id="edge1" class="edge"><title>AS34785&#45;&gt;AS21013</title>
<path fill="none" stroke="black" stroke-width="4.5" d="M81.2558,-291.017C93.8424,-294.514 108.146,-298.487 121.44,-302.18"/>
<polygon fill="black" stroke="black" stroke-width="4.5" points="120.674,-306.054 131.363,-304.937 122.782,-298.466 120.674,-306.054"/>
</g>
<!-- AS47147 -->
<g id="node3" class="node"><title>AS47147</title>
<g id="a_node3"><a xlink:href="/asn/47147" xlink:title="AS47147 ~ ANEXIA Internetdienstleistungs GmbH [AT]">
<ellipse fill="#ffffff" stroke="black" cx="168.588" cy="-214" rx="44.393" ry="18"/>
<text text-anchor="middle" x="168.588" y="-210.3" font-family="Times,serif" font-size="14.00" fill="#2c94b3">AS47147</text>
</a>
</g>
</g>
<!-- AS34785&#45;&gt;AS47147 -->
<g id="edge2" class="edge"><title>AS34785&#45;&gt;AS47147</title>
<path fill="none" stroke="black" stroke-width="3.97059" d="M71.4523,-266.627C89.2795,-256.868 113.056,-243.852 132.503,-233.207"/>
<polygon fill="black" stroke="black" stroke-width="3.97059" points="134.284,-236.221 141.375,-228.349 130.923,-230.081 134.284,-236.221"/>
</g>
<!-- AS3356 -->
<g id="node4" class="node"><title>AS3356</title>
<g id="a_node4"><a xlink:href="/asn/3356" xlink:title="AS3356 ~ Level 3 Parent, LLC [US]">
<ellipse fill="#ffffff" stroke="black" cx="288.431" cy="-288" rx="39.7935" ry="18"/>
<text text-anchor="middle" x="288.431" y="-284.3" font-family="Times,serif" font-size="14.00" fill="#2c94b3">AS3356</text>
</a>
</g>
</g>
<!-- AS21013&#45;&gt;AS3356 -->
<g id="edge3" class="edge"><title>AS21013&#45;&gt;AS3356</title>
<path fill="none" stroke="black" stroke-width="4.5" d="M207.523,-306.308C218.764,-303.733 231.176,-300.889 242.799,-298.226"/>
<polygon fill="black" stroke="black" stroke-width="4.5" points="243.893,-302.015 252.761,-295.943 242.134,-294.339 243.893,-302.015"/>
</g>
<!-- AS174 -->
<g id="node5" class="node"><title>AS174</title>
<g id="a_node5"><a xlink:href="/asn/174" xlink:title="AS174 ~ Cogent Communications [US]">
<ellipse fill="#ffffff" stroke="black" cx="288.431" cy="-234" rx="35.194" ry="18"/>
<text text-anchor="middle" x="288.431" y="-230.3" font-family="Times,serif" font-size="14.00" fill="#2c94b3">AS174</text>
</a>
</g>
</g>
<!-- AS21013&#45;&gt;AS174 -->
<g id="edge4" class="edge"><title>AS21013&#45;&gt;AS174</title>
<path fill="none" stroke="black" stroke-width="4.5" d="M192.031,-299.574C210.846,-286.641 237.843,-268.085 258.319,-254.01"/>
<polygon fill="black" stroke="black" stroke-width="4.5" points="260.642,-257.192 266.652,-248.282 256.181,-250.702 260.642,-257.192"/>
</g>
<!-- AS1764 -->
<g id="node6" class="node"><title>AS1764</title>
<g id="a_node6"><a xlink:href="/asn/1764" xlink:title="AS1764 ~ NEXTLAYER&#45;AS [AT]">
<ellipse fill="#ffffff" stroke="black" cx="288.431" cy="-504" rx="39.7935" ry="18"/>
<text text-anchor="middle" x="288.431" y="-500.3" font-family="Times,serif" font-size="14.00" fill="#2c94b3">AS1764</text>
</a>
</g>
</g>
<!-- AS21013&#45;&gt;AS1764 -->
<g id="edge5" class="edge"><title>AS21013&#45;&gt;AS1764</title>
<path fill="none" stroke="black" stroke-width="1.8" d="M175.035,-332.991C185.349,-364.816 210.212,-431.927 248.784,-477 250.73,-479.274 252.908,-481.449 255.213,-483.507"/>
<polygon fill="black" stroke="black" stroke-width="1.8" points="253.383,-486.524 263.382,-490.027 257.75,-481.053 253.383,-486.524"/>
</g>
<!-- AS3257 -->
<g id="node7" class="node"><title>AS3257</title>
<g id="a_node7"><a xlink:href="/asn/3257" xlink:title="AS3257 ~ GTT [DE]">
<ellipse fill="#ffffff" stroke="black" cx="288.431" cy="-450" rx="39.7935" ry="18"/>
<text text-anchor="middle" x="288.431" y="-446.3" font-family="Times,serif" font-size="14.00" fill="#2c94b3">AS3257</text>
</a>
</g>
</g>
<!-- AS21013&#45;&gt;AS3257 -->
<g id="edge6" class="edge"><title>AS21013&#45;&gt;AS3257</title>
<path fill="none" stroke="black" stroke-width="2.7" d="M179.854,-332.44C193.662,-354.991 219.851,-394.722 248.784,-423 250.924,-425.092 253.242,-427.137 255.642,-429.106"/>
<polygon fill="black" stroke="black" stroke-width="2.7" points="253.908,-432.185 263.983,-435.464 258.152,-426.618 253.908,-432.185"/>
</g>
<!-- AS6939 -->
<g id="node8" class="node"><title>AS6939</title>
<g id="a_node8"><a xlink:href="/asn/6939" xlink:title="AS6939 ~ Hurricane Electric LLC [US]">
<ellipse fill="#ffffff" stroke="black" cx="288.431" cy="-342" rx="39.7935" ry="18"/>
<text text-anchor="middle" x="288.431" y="-338.3" font-family="Times,serif" font-size="14.00" fill="#2c94b3">AS6939</text>
</a>
</g>
</g>
<!-- AS21013&#45;&gt;AS6939 -->
<g id="edge7" class="edge"><title>AS21013&#45;&gt;AS6939</title>
<path fill="none" stroke="black" stroke-width="1.8" d="M207.523,-323.692C218.764,-326.267 231.176,-329.111 242.799,-331.774"/>
<polygon fill="black" stroke="black" stroke-width="1.8" points="242.232,-335.235 252.761,-334.057 243.795,-328.412 242.232,-335.235"/>
</g>
<!-- AS1299 -->
<g id="node16" class="node"><title>AS1299</title>
<g id="a_node16"><a xlink:href="/asn/1299" xlink:title="AS1299 ~ Telia Carrier [EU]">
<ellipse fill="#ffffff" stroke="black" cx="288.431" cy="-180" rx="39.7935" ry="18"/>
<text text-anchor="middle" x="288.431" y="-176.3" font-family="Times,serif" font-size="14.00" fill="#2c94b3">AS1299</text>
</a>
</g>
</g>
<!-- AS47147&#45;&gt;AS1299 -->
<g id="edge18" class="edge"><title>AS47147&#45;&gt;AS1299</title>
<path fill="none" stroke="black" stroke-width="4.5" d="M205.265,-203.707C217.681,-200.124 231.736,-196.069 244.667,-192.338"/>
<polygon fill="black" stroke="black" stroke-width="4.5" points="245.774,-196.117 254.29,-189.562 243.591,-188.551 245.774,-196.117"/>
</g>
<!-- AS2914 -->
<g id="node17" class="node"><title>AS2914</title>
<g id="a_node17"><a xlink:href="/asn/2914" xlink:title="AS2914 ~ NTT America, Inc. [US]">
<ellipse fill="#ffffff" stroke="black" cx="288.431" cy="-396" rx="39.7935" ry="18"/>
<text text-anchor="middle" x="288.431" y="-392.3" font-family="Times,serif" font-size="14.00" fill="#2c94b3">AS2914</text>
</a>
</g>
</g>
<!-- AS47147&#45;&gt;AS2914 -->
<g id="edge19" class="edge"><title>AS47147&#45;&gt;AS2914</title>
<path fill="none" stroke="black" stroke-width="2.57143" d="M180.624,-231.637C189.705,-246.44 202.681,-268.272 212.784,-288 230.742,-323.065 223.72,-338.606 248.784,-369 250.639,-371.25 252.727,-373.396 254.945,-375.424"/>
<polygon fill="black" stroke="black" stroke-width="2.57143" points="252.881,-378.256 262.85,-381.844 257.294,-372.823 252.881,-378.256"/>
</g>
<!-- AS3320 -->
<g id="node18" class="node"><title>AS3320</title>
<g id="a_node18"><a xlink:href="/asn/3320" xlink:title="AS3320 ~ DTAG [DE]">
<ellipse fill="#ffffff" stroke="black" cx="288.431" cy="-72" rx="39.7935" ry="18"/>
<text text-anchor="middle" x="288.431" y="-68.3" font-family="Times,serif" font-size="14.00" fill="#2c94b3">AS3320</text>
</a>
</g>
</g>
<!-- AS47147&#45;&gt;AS3320 -->
<g id="edge20" class="edge"><title>AS47147&#45;&gt;AS3320</title>
<path fill="none" stroke="black" stroke-width="2.57143" d="M183.803,-196.871C204.529,-171.896 243.16,-125.346 266.951,-96.6776"/>
<polygon fill="black" stroke="black" stroke-width="2.57143" points="269.839,-98.6788 273.532,-88.7483 264.452,-94.2085 269.839,-98.6788"/>
</g>
<!-- AS3549 -->
<g id="node9" class="node"><title>AS3549</title>
<g id="a_node9"><a xlink:href="/asn/3549" xlink:title="AS3549 ~ Level 3 Parent, LLC [US]">
<ellipse fill="#ffffff" stroke="black" cx="403.724" cy="-288" rx="39.7935" ry="18"/>
<text text-anchor="middle" x="403.724" y="-284.3" font-family="Times,serif" font-size="14.00" fill="#2c94b3">AS3549</text>
</a>
</g>
</g>
<!-- AS3356&#45;&gt;AS3549 -->
<g id="edge8" class="edge"><title>AS3356&#45;&gt;AS3549</title>
<path fill="none" stroke="black" d="M328.103,-288C336.306,-288 345.07,-288 353.602,-288"/>
<polygon fill="black" stroke="black" points="353.841,-291.5 363.841,-288 353.841,-284.5 353.841,-291.5"/>
</g>
<!-- AS2497 -->
<g id="node10" class="node"><title>AS2497</title>
<g id="a_node10"><a xlink:href="/asn/2497" xlink:title="AS2497 ~ Internet Initiative Japan Inc. [JP]">
<ellipse fill="#ffffff" stroke="black" cx="403.724" cy="-396" rx="39.7935" ry="18"/>
<text text-anchor="middle" x="403.724" y="-392.3" font-family="Times,serif" font-size="14.00" fill="#2c94b3">AS2497</text>
</a>
</g>
</g>
<!-- AS3356&#45;&gt;AS2497 -->
<g id="edge9" class="edge"><title>AS3356&#45;&gt;AS2497</title>
<path fill="none" stroke="black" d="M313.025,-302.389C318.281,-306.148 323.613,-310.437 328.077,-315 348.25,-335.617 343.905,-348.383 364.077,-369 366.17,-371.139 368.453,-373.218 370.83,-375.21"/>
<polygon fill="black" stroke="black" points="369.074,-378.275 379.13,-381.611 373.349,-372.732 369.074,-378.275"/>
</g>
<!-- AS6762 -->
<g id="node11" class="node"><title>AS6762</title>
<g id="a_node11"><a xlink:href="/asn/6762" xlink:title="AS6762 ~ TELECOM ITALIA SPARKLE S.p.A. [IT]">
<ellipse fill="#ffffff" stroke="black" cx="403.724" cy="-234" rx="39.7935" ry="18"/>
<text text-anchor="middle" x="403.724" y="-230.3" font-family="Times,serif" font-size="14.00" fill="#2c94b3">AS6762</text>
</a>
</g>
</g>
<!-- AS3356&#45;&gt;AS6762 -->
<g id="edge10" class="edge"><title>AS3356&#45;&gt;AS6762</title>
<path fill="none" stroke="black" d="M316.567,-275.066C331.561,-267.919 350.382,-258.948 366.605,-251.215"/>
<polygon fill="black" stroke="black" points="368.288,-254.291 375.809,-246.829 365.276,-247.972 368.288,-254.291"/>
</g>
<!-- AS174&#45;&gt;AS6762 -->
<g id="edge17" class="edge"><title>AS174&#45;&gt;AS6762</title>
<path fill="none" stroke="black" d="M323.73,-234C333.107,-234 343.457,-234 353.492,-234"/>
<polygon fill="black" stroke="black" points="353.781,-237.5 363.781,-234 353.781,-230.5 353.781,-237.5"/>
</g>
<!-- AS3491 -->
<g id="node14" class="node"><title>AS3491</title>
<g id="a_node14"><a xlink:href="/asn/3491" xlink:title="AS3491 ~ PCCW Global, Inc. [US]">
<ellipse fill="#ffffff" stroke="black" cx="403.724" cy="-342" rx="39.7935" ry="18"/>
<text text-anchor="middle" x="403.724" y="-338.3" font-family="Times,serif" font-size="14.00" fill="#2c94b3">AS3491</text>
</a>
</g>
</g>
<!-- AS174&#45;&gt;AS3491 -->
<g id="edge15" class="edge"><title>AS174&#45;&gt;AS3491</title>
<path fill="none" stroke="black" d="M311.814,-247.532C317.455,-251.49 323.269,-256.086 328.077,-261 348.25,-281.617 343.905,-294.383 364.077,-315 366.17,-317.139 368.453,-319.218 370.83,-321.21"/>
<polygon fill="black" stroke="black" points="369.074,-324.275 379.13,-327.611 373.349,-318.732 369.074,-324.275"/>
</g>
<!-- AS209 -->
<g id="node15" class="node"><title>AS209</title>
<g id="a_node15"><a xlink:href="/asn/209" xlink:title="AS209 ~ CenturyLink Communications, LLC [US]">
<ellipse fill="#ffffff" stroke="black" cx="403.724" cy="-180" rx="35.194" ry="18"/>
<text text-anchor="middle" x="403.724" y="-176.3" font-family="Times,serif" font-size="14.00" fill="#2c94b3">AS209</text>
</a>
</g>
</g>
<!-- AS174&#45;&gt;AS209 -->
<g id="edge16" class="edge"><title>AS174&#45;&gt;AS209</title>
<path fill="none" stroke="black" d="M314.856,-221.881C330.599,-214.378 351.021,-204.644 368.214,-196.449"/>
<polygon fill="black" stroke="black" points="369.862,-199.54 377.383,-192.078 366.85,-193.221 369.862,-199.54"/>
</g>
<!-- AS8218 -->
<g id="node12" class="node"><title>AS8218</title>
<g id="a_node12"><a xlink:href="/asn/8218" xlink:title="AS8218 ~ legacy Neotelecoms [FR]">
<ellipse fill="#ffffff" stroke="black" cx="403.724" cy="-504" rx="39.7935" ry="18"/>
<text text-anchor="middle" x="403.724" y="-500.3" font-family="Times,serif" font-size="14.00" fill="#2c94b3">AS8218</text>
</a>
</g>
</g>
<!-- AS1764&#45;&gt;AS8218 -->
<g id="edge11" class="edge"><title>AS1764&#45;&gt;AS8218</title>
<path fill="none" stroke="black" stroke-width="2" d="M328.103,-504C336.306,-504 345.07,-504 353.602,-504"/>
<polygon fill="black" stroke="black" stroke-width="2" points="353.841,-507.5 363.841,-504 353.841,-500.5 353.841,-507.5"/>
</g>
<!-- AS3257&#45;&gt;AS2497 -->
<g id="edge14" class="edge"><title>AS3257&#45;&gt;AS2497</title>
<path fill="none" stroke="black" d="M316.567,-437.066C331.561,-429.919 350.382,-420.948 366.605,-413.215"/>
<polygon fill="black" stroke="black" points="368.288,-416.291 375.809,-408.829 365.276,-409.972 368.288,-416.291"/>
</g>
<!-- AS3257&#45;&gt;AS3491 -->
<g id="edge13" class="edge"><title>AS3257&#45;&gt;AS3491</title>
<path fill="none" stroke="black" d="M313.025,-435.611C318.281,-431.852 323.613,-427.563 328.077,-423 348.25,-402.383 343.905,-389.617 364.077,-369 366.17,-366.861 368.453,-364.782 370.83,-362.79"/>
<polygon fill="black" stroke="black" points="373.349,-365.268 379.13,-356.389 369.074,-359.725 373.349,-365.268"/>
</g>
<!-- AS6939&#45;&gt;AS2497 -->
<g id="edge29" class="edge"><title>AS6939&#45;&gt;AS2497</title>
<path fill="none" stroke="black" d="M316.567,-354.934C331.561,-362.081 350.382,-371.052 366.605,-378.785"/>
<polygon fill="black" stroke="black" points="365.276,-382.028 375.809,-383.171 368.288,-375.709 365.276,-382.028"/>
</g>
<!-- AS6939&#45;&gt;AS3491 -->
<g id="edge28" class="edge"><title>AS6939&#45;&gt;AS3491</title>
<path fill="none" stroke="black" d="M328.103,-342C336.306,-342 345.07,-342 353.602,-342"/>
<polygon fill="black" stroke="black" points="353.841,-345.5 363.841,-342 353.841,-338.5 353.841,-345.5"/>
</g>
<!-- AS6461 -->
<g id="node13" class="node"><title>AS6461</title>
<g id="a_node13"><a xlink:href="/asn/6461" xlink:title="AS6461 ~ Zayo Bandwidth [US]">
<ellipse fill="#ffffff" stroke="black" cx="519.017" cy="-504" rx="39.7935" ry="18"/>
<text text-anchor="middle" x="519.017" y="-500.3" font-family="Times,serif" font-size="14.00" fill="#2c94b3">AS6461</text>
</a>
</g>
</g>
<!-- AS8218&#45;&gt;AS6461 -->
<g id="edge12" class="edge"><title>AS8218&#45;&gt;AS6461</title>
<path fill="none" stroke="black" stroke-width="2" d="M443.396,-504C451.599,-504 460.363,-504 468.895,-504"/>
<polygon fill="black" stroke="black" stroke-width="2" points="469.134,-507.5 479.134,-504 469.134,-500.5 469.134,-507.5"/>
</g>
<!-- AS1299&#45;&gt;AS6762 -->
<g id="edge23" class="edge"><title>AS1299&#45;&gt;AS6762</title>
<path fill="none" stroke="black" d="M316.567,-192.934C331.561,-200.081 350.382,-209.052 366.605,-216.785"/>
<polygon fill="black" stroke="black" points="365.276,-220.028 375.809,-221.171 368.288,-213.709 365.276,-220.028"/>
</g>
<!-- AS1299&#45;&gt;AS209 -->
<g id="edge24" class="edge"><title>AS1299&#45;&gt;AS209</title>
<path fill="none" stroke="black" d="M328.103,-180C337.808,-180 348.299,-180 358.262,-180"/>
<polygon fill="black" stroke="black" points="358.398,-183.5 368.398,-180 358.398,-176.5 358.398,-183.5"/>
</g>
<!-- AS7018 -->
<g id="node19" class="node"><title>AS7018</title>
<g id="a_node19"><a xlink:href="/asn/7018" xlink:title="AS7018 ~ AT&amp;T Services, Inc. [US]">
<ellipse fill="#ffffff" stroke="black" cx="403.724" cy="-126" rx="39.7935" ry="18"/>
<text text-anchor="middle" x="403.724" y="-122.3" font-family="Times,serif" font-size="14.00" fill="#2c94b3">AS7018</text>
</a>
</g>
</g>
<!-- AS1299&#45;&gt;AS7018 -->
<g id="edge21" class="edge"><title>AS1299&#45;&gt;AS7018</title>
<path fill="none" stroke="black" stroke-width="2" d="M316.567,-167.066C331.561,-159.919 350.382,-150.948 366.605,-143.215"/>
<polygon fill="black" stroke="black" stroke-width="2" points="368.288,-146.291 375.809,-138.829 365.276,-139.972 368.288,-146.291"/>
</g>
<!-- AS1239 -->
<g id="node20" class="node"><title>AS1239</title>
<g id="a_node20"><a xlink:href="/asn/1239" xlink:title="AS1239 ~ Sprint [US]">
<ellipse fill="#ffffff" stroke="black" cx="403.724" cy="-72" rx="39.7935" ry="18"/>
<text text-anchor="middle" x="403.724" y="-68.3" font-family="Times,serif" font-size="14.00" fill="#2c94b3">AS1239</text>
</a>
</g>
</g>
<!-- AS1299&#45;&gt;AS1239 -->
<g id="edge22" class="edge"><title>AS1299&#45;&gt;AS1239</title>
<path fill="none" stroke="black" d="M303.061,-163.183C317.343,-146.071 340.89,-119.255 364.077,-99 366.543,-96.8462 369.182,-94.7062 371.879,-92.6284"/>
<polygon fill="black" stroke="black" points="374.052,-95.3749 380.033,-86.6297 369.904,-89.7363 374.052,-95.3749"/>
</g>
<!-- AS2914&#45;&gt;AS2497 -->
<g id="edge27" class="edge"><title>AS2914&#45;&gt;AS2497</title>
<path fill="none" stroke="black" stroke-width="2" d="M328.103,-396C336.306,-396 345.07,-396 353.602,-396"/>
<polygon fill="black" stroke="black" stroke-width="2" points="353.841,-399.5 363.841,-396 353.841,-392.5 353.841,-399.5"/>
</g>
<!-- AS3320&#45;&gt;AS1239 -->
<g id="edge26" class="edge"><title>AS3320&#45;&gt;AS1239</title>
<path fill="none" stroke="black" d="M328.103,-72C336.306,-72 345.07,-72 353.602,-72"/>
<polygon fill="black" stroke="black" points="353.841,-75.5001 363.841,-72 353.841,-68.5001 353.841,-75.5001"/>
</g>
<!-- AS701 -->
<g id="node21" class="node"><title>AS701</title>
<g id="a_node21"><a xlink:href="/asn/701" xlink:title="AS701 ~ UUNET [US]">
<ellipse fill="#ffffff" stroke="black" cx="403.724" cy="-18" rx="35.194" ry="18"/>
<text text-anchor="middle" x="403.724" y="-14.3" font-family="Times,serif" font-size="14.00" fill="#2c94b3">AS701</text>
</a>
</g>
</g>
<!-- AS3320&#45;&gt;AS701 -->
<g id="edge25" class="edge"><title>AS3320&#45;&gt;AS701</title>
<path fill="none" stroke="black" stroke-width="2" d="M316.567,-59.0657C331.999,-51.7103 351.485,-42.4227 368.02,-34.5414"/>
<polygon fill="black" stroke="black" stroke-width="2" points="369.84,-37.5509 377.361,-30.0887 366.828,-31.2319 369.84,-37.5509"/>
</g>
</g>
</svg>
