<?xml version="1.0" encoding="UTF-8" standalone="no"?>
<!DOCTYPE svg PUBLIC "-//W3C//DTD SVG 1.1//EN"
 "http://www.w3.org/Graphics/SVG/1.1/DTD/svg11.dtd">
<!-- Generated by graphviz version 2.38.0 (20140413.2041)
 -->
<!-- Title: AS51066 Combined Upstream Graph Pages: 1 -->
<svg width="451pt" height="611pt"
 viewBox="0.00 0.00 451.37 611.00" xmlns="http://www.w3.org/2000/svg" xmlns:xlink="http://www.w3.org/1999/xlink">
<g id="graph0" class="graph" transform="scale(1 1) rotate(0) translate(4 607)">
<title>AS51066 Combined Upstream Graph</title>
<polygon fill="white" stroke="none" points="-4,4 -4,-607 447.37,-607 447.37,4 -4,4"/>
<!-- AS51066 -->
<g id="node1" class="node"><title>AS51066</title>
<g id="a_node1"><a xlink:href="/asn/51066" xlink:title="AS51066 ~ AUSTROCONTROL&#45;AS [AT]">
<ellipse fill="#ffffff" stroke="black" cx="44.1961" cy="-288" rx="44.393" ry="18"/>
<text text-anchor="middle" x="44.1961" y="-284.3" font-family="Times,serif" font-size="14.00" fill="#880000">AS51066</text>
</a>
</g>
</g>
<!-- AS1764 -->
<g id="node2" class="node"><title>AS1764</title>
<g id="a_node2"><a xlink:href="/asn/1764" xlink:title="AS1764 ~ NEXTLAYER&#45;AS [AT]">
<ellipse fill="#ffffff" stroke="black" cx="164.039" cy="-423" rx="39.7935" ry="18"/>
<text text-anchor="middle" x="164.039" y="-419.3" font-family="Times,serif" font-size="14.00" fill="#2c94b3">AS1764</text>
</a>
</g>
</g>
<!-- AS51066&#45;&gt;AS1764 -->
<g id="edge1" class="edge"><title>AS51066&#45;&gt;AS1764</title>
<path fill="none" stroke="black" stroke-width="4.5" d="M60.1209,-305.098C80.6634,-328.631 117.782,-371.155 141.379,-398.187"/>
<polygon fill="black" stroke="black" stroke-width="4.5" points="138.692,-401.097 148.235,-406.041 144.625,-395.918 138.692,-401.097"/>
</g>
<!-- AS8447 -->
<g id="node3" class="node"><title>AS8447</title>
<g id="a_node3"><a xlink:href="/asn/8447" xlink:title="AS8447 ~ A1 Telekom Austria AG [AT]">
<ellipse fill="#ffffff" stroke="black" cx="164.039" cy="-153" rx="39.7935" ry="18"/>
<text text-anchor="middle" x="164.039" y="-149.3" font-family="Times,serif" font-size="14.00" fill="#2c94b3">AS8447</text>
</a>
</g>
</g>
<!-- AS51066&#45;&gt;AS8447 -->
<g id="edge2" class="edge"><title>AS51066&#45;&gt;AS8447</title>
<path fill="none" stroke="black" stroke-width="3.07895" d="M60.1209,-270.902C80.6634,-247.369 117.782,-204.845 141.379,-177.813"/>
<polygon fill="black" stroke="black" stroke-width="3.07895" points="144.296,-179.794 148.235,-169.959 139.022,-175.191 144.296,-179.794"/>
</g>
<!-- AS174 -->
<g id="node4" class="node"><title>AS174</title>
<g id="a_node4"><a xlink:href="/asn/174" xlink:title="AS174 ~ Cogent Communications [US]">
<ellipse fill="#ffffff" stroke="black" cx="279.332" cy="-585" rx="35.194" ry="18"/>
<text text-anchor="middle" x="279.332" y="-581.3" font-family="Times,serif" font-size="14.00" fill="#2c94b3">AS174</text>
</a>
</g>
</g>
<!-- AS1764&#45;&gt;AS174 -->
<g id="edge3" class="edge"><title>AS1764&#45;&gt;AS174</title>
<path fill="none" stroke="black" stroke-width="2" d="M171.786,-440.787C182.837,-468.243 206.891,-521.578 239.685,-558 242.001,-560.572 244.606,-563.03 247.341,-565.343"/>
<polygon fill="black" stroke="black" stroke-width="2" points="245.207,-568.117 255.264,-571.448 249.479,-562.572 245.207,-568.117"/>
</g>
<!-- AS3257 -->
<g id="node5" class="node"><title>AS3257</title>
<g id="a_node5"><a xlink:href="/asn/3257" xlink:title="AS3257 ~ GTT [DE]">
<ellipse fill="#ffffff" stroke="black" cx="279.332" cy="-315" rx="39.7935" ry="18"/>
<text text-anchor="middle" x="279.332" y="-311.3" font-family="Times,serif" font-size="14.00" fill="#2c94b3">AS3257</text>
</a>
</g>
</g>
<!-- AS1764&#45;&gt;AS3257 -->
<g id="edge4" class="edge"><title>AS1764&#45;&gt;AS3257</title>
<path fill="none" stroke="black" stroke-width="4" d="M178.669,-406.183C192.951,-389.071 216.498,-362.255 239.685,-342 242.151,-339.846 244.789,-337.706 247.487,-335.628"/>
<polygon fill="black" stroke="black" stroke-width="4" points="249.66,-338.375 255.641,-329.63 245.512,-332.736 249.66,-338.375"/>
</g>
<!-- AS1299 -->
<g id="node6" class="node"><title>AS1299</title>
<g id="a_node6"><a xlink:href="/asn/1299" xlink:title="AS1299 ~ Telia Carrier [EU]">
<ellipse fill="#ffffff" stroke="black" cx="279.332" cy="-531" rx="39.7935" ry="18"/>
<text text-anchor="middle" x="279.332" y="-527.3" font-family="Times,serif" font-size="14.00" fill="#2c94b3">AS1299</text>
</a>
</g>
</g>
<!-- AS1764&#45;&gt;AS1299 -->
<g id="edge5" class="edge"><title>AS1764&#45;&gt;AS1299</title>
<path fill="none" stroke="black" stroke-width="4" d="M178.669,-439.817C192.951,-456.929 216.498,-483.745 239.685,-504 242.151,-506.154 244.789,-508.294 247.487,-510.372"/>
<polygon fill="black" stroke="black" stroke-width="4" points="245.512,-513.264 255.641,-516.37 249.66,-507.625 245.512,-513.264"/>
</g>
<!-- AS8218 -->
<g id="node7" class="node"><title>AS8218</title>
<g id="a_node7"><a xlink:href="/asn/8218" xlink:title="AS8218 ~ legacy Neotelecoms [FR]">
<ellipse fill="#ffffff" stroke="black" cx="279.332" cy="-477" rx="39.7935" ry="18"/>
<text text-anchor="middle" x="279.332" y="-473.3" font-family="Times,serif" font-size="14.00" fill="#2c94b3">AS8218</text>
</a>
</g>
</g>
<!-- AS1764&#45;&gt;AS8218 -->
<g id="edge6" class="edge"><title>AS1764&#45;&gt;AS8218</title>
<path fill="none" stroke="black" stroke-width="2" d="M192.175,-435.934C207.169,-443.081 225.99,-452.052 242.213,-459.785"/>
<polygon fill="black" stroke="black" stroke-width="2" points="240.884,-463.028 251.417,-464.171 243.895,-456.709 240.884,-463.028"/>
</g>
<!-- AS2914 -->
<g id="node8" class="node"><title>AS2914</title>
<g id="a_node8"><a xlink:href="/asn/2914" xlink:title="AS2914 ~ NTT America, Inc. [US]">
<ellipse fill="#ffffff" stroke="black" cx="279.332" cy="-423" rx="39.7935" ry="18"/>
<text text-anchor="middle" x="279.332" y="-419.3" font-family="Times,serif" font-size="14.00" fill="#2c94b3">AS2914</text>
</a>
</g>
</g>
<!-- AS1764&#45;&gt;AS2914 -->
<g id="edge7" class="edge"><title>AS1764&#45;&gt;AS2914</title>
<path fill="none" stroke="black" stroke-width="4" d="M203.711,-423C211.914,-423 220.678,-423 229.21,-423"/>
<polygon fill="black" stroke="black" stroke-width="4" points="229.449,-426.5 239.449,-423 229.449,-419.5 229.449,-426.5"/>
</g>
<!-- AS6939 -->
<g id="node9" class="node"><title>AS6939</title>
<g id="a_node9"><a xlink:href="/asn/6939" xlink:title="AS6939 ~ Hurricane Electric LLC [US]">
<ellipse fill="#ffffff" stroke="black" cx="279.332" cy="-369" rx="39.7935" ry="18"/>
<text text-anchor="middle" x="279.332" y="-365.3" font-family="Times,serif" font-size="14.00" fill="#2c94b3">AS6939</text>
</a>
</g>
</g>
<!-- AS1764&#45;&gt;AS6939 -->
<g id="edge8" class="edge"><title>AS1764&#45;&gt;AS6939</title>
<path fill="none" stroke="black" stroke-width="3" d="M192.175,-410.066C207.169,-402.919 225.99,-393.948 242.213,-386.215"/>
<polygon fill="black" stroke="black" stroke-width="3" points="243.895,-389.291 251.417,-381.829 240.884,-382.972 243.895,-389.291"/>
</g>
<!-- AS3356 -->
<g id="node15" class="node"><title>AS3356</title>
<g id="a_node15"><a xlink:href="/asn/3356" xlink:title="AS3356 ~ Level 3 Parent, LLC [US]">
<ellipse fill="#ffffff" stroke="black" cx="279.332" cy="-180" rx="39.7935" ry="18"/>
<text text-anchor="middle" x="279.332" y="-176.3" font-family="Times,serif" font-size="14.00" fill="#2c94b3">AS3356</text>
</a>
</g>
</g>
<!-- AS8447&#45;&gt;AS3356 -->
<g id="edge15" class="edge"><title>AS8447&#45;&gt;AS3356</title>
<path fill="none" stroke="black" stroke-width="4.5" d="M199.646,-161.248C210.517,-163.838 222.671,-166.735 234.114,-169.462"/>
<polygon fill="black" stroke="black" stroke-width="4.5" points="233.296,-173.315 243.936,-171.803 235.122,-165.654 233.296,-173.315"/>
</g>
<!-- AS3320 -->
<g id="node16" class="node"><title>AS3320</title>
<g id="a_node16"><a xlink:href="/asn/3320" xlink:title="AS3320 ~ DTAG [DE]">
<ellipse fill="#ffffff" stroke="black" cx="279.332" cy="-126" rx="39.7935" ry="18"/>
<text text-anchor="middle" x="279.332" y="-122.3" font-family="Times,serif" font-size="14.00" fill="#2c94b3">AS3320</text>
</a>
</g>
</g>
<!-- AS8447&#45;&gt;AS3320 -->
<g id="edge16" class="edge"><title>AS8447&#45;&gt;AS3320</title>
<path fill="none" stroke="black" stroke-width="2.57143" d="M199.646,-144.752C210.517,-142.162 222.671,-139.265 234.114,-136.538"/>
<polygon fill="black" stroke="black" stroke-width="2.57143" points="235.02,-139.92 243.936,-134.197 233.397,-133.111 235.02,-139.92"/>
</g>
<!-- AS6762 -->
<g id="node17" class="node"><title>AS6762</title>
<g id="a_node17"><a xlink:href="/asn/6762" xlink:title="AS6762 ~ TELECOM ITALIA SPARKLE S.p.A. [IT]">
<ellipse fill="#ffffff" stroke="black" cx="279.332" cy="-72" rx="39.7935" ry="18"/>
<text text-anchor="middle" x="279.332" y="-68.3" font-family="Times,serif" font-size="14.00" fill="#2c94b3">AS6762</text>
</a>
</g>
</g>
<!-- AS8447&#45;&gt;AS6762 -->
<g id="edge17" class="edge"><title>AS8447&#45;&gt;AS6762</title>
<path fill="none" stroke="black" stroke-width="1.28571" d="M185.887,-137.778C200.821,-126.909 221.435,-111.975 239.685,-99 242.506,-96.9948 245.449,-94.9154 248.397,-92.8411"/>
<polygon fill="black" stroke="black" stroke-width="1.28571" points="250.443,-95.6812 256.621,-87.0744 246.424,-89.9497 250.443,-95.6812"/>
</g>
<!-- AS3491 -->
<g id="node10" class="node"><title>AS3491</title>
<g id="a_node10"><a xlink:href="/asn/3491" xlink:title="AS3491 ~ PCCW Global, Inc. [US]">
<ellipse fill="#ffffff" stroke="black" cx="399.174" cy="-342" rx="39.7935" ry="18"/>
<text text-anchor="middle" x="399.174" y="-338.3" font-family="Times,serif" font-size="14.00" fill="#2c94b3">AS3491</text>
</a>
</g>
</g>
<!-- AS3257&#45;&gt;AS3491 -->
<g id="edge9" class="edge"><title>AS3257&#45;&gt;AS3491</title>
<path fill="none" stroke="black" d="M315.051,-322.955C327.051,-325.704 340.672,-328.825 353.364,-331.733"/>
<polygon fill="black" stroke="black" points="352.767,-335.187 363.296,-334.009 354.33,-328.364 352.767,-335.187"/>
</g>
<!-- AS2497 -->
<g id="node11" class="node"><title>AS2497</title>
<g id="a_node11"><a xlink:href="/asn/2497" xlink:title="AS2497 ~ Internet Initiative Japan Inc. [JP]">
<ellipse fill="#ffffff" stroke="black" cx="399.174" cy="-288" rx="39.7935" ry="18"/>
<text text-anchor="middle" x="399.174" y="-284.3" font-family="Times,serif" font-size="14.00" fill="#2c94b3">AS2497</text>
</a>
</g>
</g>
<!-- AS3257&#45;&gt;AS2497 -->
<g id="edge10" class="edge"><title>AS3257&#45;&gt;AS2497</title>
<path fill="none" stroke="black" stroke-width="2" d="M315.051,-307.045C327.051,-304.296 340.672,-301.175 353.364,-298.267"/>
<polygon fill="black" stroke="black" stroke-width="2" points="354.33,-301.636 363.296,-295.991 352.767,-294.813 354.33,-301.636"/>
</g>
<!-- AS7018 -->
<g id="node14" class="node"><title>AS7018</title>
<g id="a_node14"><a xlink:href="/asn/7018" xlink:title="AS7018 ~ AT&amp;T Services, Inc. [US]">
<ellipse fill="#ffffff" stroke="black" cx="399.174" cy="-558" rx="39.7935" ry="18"/>
<text text-anchor="middle" x="399.174" y="-554.3" font-family="Times,serif" font-size="14.00" fill="#2c94b3">AS7018</text>
</a>
</g>
</g>
<!-- AS1299&#45;&gt;AS7018 -->
<g id="edge14" class="edge"><title>AS1299&#45;&gt;AS7018</title>
<path fill="none" stroke="black" stroke-width="2" d="M315.051,-538.955C327.051,-541.704 340.672,-544.825 353.364,-547.733"/>
<polygon fill="black" stroke="black" stroke-width="2" points="352.767,-551.187 363.296,-550.009 354.33,-544.364 352.767,-551.187"/>
</g>
<!-- AS6461 -->
<g id="node12" class="node"><title>AS6461</title>
<g id="a_node12"><a xlink:href="/asn/6461" xlink:title="AS6461 ~ Zayo Bandwidth [US]">
<ellipse fill="#ffffff" stroke="black" cx="399.174" cy="-504" rx="39.7935" ry="18"/>
<text text-anchor="middle" x="399.174" y="-500.3" font-family="Times,serif" font-size="14.00" fill="#2c94b3">AS6461</text>
</a>
</g>
</g>
<!-- AS8218&#45;&gt;AS6461 -->
<g id="edge11" class="edge"><title>AS8218&#45;&gt;AS6461</title>
<path fill="none" stroke="black" stroke-width="2" d="M315.051,-484.955C327.051,-487.704 340.672,-490.825 353.364,-493.733"/>
<polygon fill="black" stroke="black" stroke-width="2" points="352.767,-497.187 363.296,-496.009 354.33,-490.364 352.767,-497.187"/>
</g>
<!-- AS2914&#45;&gt;AS3491 -->
<g id="edge13" class="edge"><title>AS2914&#45;&gt;AS3491</title>
<path fill="none" stroke="black" d="M302.089,-407.991C307.623,-404.121 313.542,-399.936 318.978,-396 335.178,-384.271 338.483,-380.311 354.978,-369 358.506,-366.581 362.244,-364.111 365.985,-361.698"/>
<polygon fill="black" stroke="black" points="368.057,-364.528 374.626,-356.216 364.307,-358.618 368.057,-364.528"/>
</g>
<!-- AS12956 -->
<g id="node13" class="node"><title>AS12956</title>
<g id="a_node13"><a xlink:href="/asn/12956" xlink:title="AS12956 ~ TELXIUS [ES]">
<ellipse fill="#ffffff" stroke="black" cx="399.174" cy="-450" rx="44.393" ry="18"/>
<text text-anchor="middle" x="399.174" y="-446.3" font-family="Times,serif" font-size="14.00" fill="#2c94b3">AS12956</text>
</a>
</g>
</g>
<!-- AS2914&#45;&gt;AS12956 -->
<g id="edge12" class="edge"><title>AS2914&#45;&gt;AS12956</title>
<path fill="none" stroke="black" d="M315.051,-430.955C326.189,-433.507 338.725,-436.379 350.618,-439.104"/>
<polygon fill="black" stroke="black" points="349.883,-442.526 360.412,-441.348 351.446,-435.703 349.883,-442.526"/>
</g>
<!-- AS6939&#45;&gt;AS3491 -->
<g id="edge25" class="edge"><title>AS6939&#45;&gt;AS3491</title>
<path fill="none" stroke="black" d="M315.051,-361.045C327.051,-358.296 340.672,-355.175 353.364,-352.267"/>
<polygon fill="black" stroke="black" points="354.33,-355.636 363.296,-349.991 352.767,-348.813 354.33,-355.636"/>
</g>
<!-- AS6939&#45;&gt;AS2497 -->
<g id="edge26" class="edge"><title>AS6939&#45;&gt;AS2497</title>
<path fill="none" stroke="black" d="M302.089,-353.991C307.623,-350.121 313.542,-345.936 318.978,-342 335.178,-330.271 338.483,-326.311 354.978,-315 358.506,-312.581 362.244,-310.111 365.985,-307.698"/>
<polygon fill="black" stroke="black" points="368.057,-310.528 374.626,-302.216 364.307,-304.618 368.057,-310.528"/>
</g>
<!-- AS1273 -->
<g id="node23" class="node"><title>AS1273</title>
<g id="a_node23"><a xlink:href="/asn/1273" xlink:title="AS1273 ~ Vodafone Group PLC [EU]">
<ellipse fill="#ffffff" stroke="black" cx="399.174" cy="-396" rx="39.7935" ry="18"/>
<text text-anchor="middle" x="399.174" y="-392.3" font-family="Times,serif" font-size="14.00" fill="#2c94b3">AS1273</text>
</a>
</g>
</g>
<!-- AS6939&#45;&gt;AS1273 -->
<g id="edge27" class="edge"><title>AS6939&#45;&gt;AS1273</title>
<path fill="none" stroke="black" d="M315.051,-376.955C327.051,-379.704 340.672,-382.825 353.364,-385.733"/>
<polygon fill="black" stroke="black" points="352.767,-389.187 363.296,-388.009 354.33,-382.364 352.767,-389.187"/>
</g>
<!-- AS3356&#45;&gt;AS2497 -->
<g id="edge23" class="edge"><title>AS3356&#45;&gt;AS2497</title>
<path fill="none" stroke="black" stroke-width="2" d="M293.751,-197.065C307.865,-214.375 331.28,-241.345 354.978,-261 358.194,-263.668 361.695,-266.27 365.265,-268.741"/>
<polygon fill="black" stroke="black" stroke-width="2" points="363.343,-271.666 373.622,-274.236 367.189,-265.817 363.343,-271.666"/>
</g>
<!-- AS6453 -->
<g id="node20" class="node"><title>AS6453</title>
<g id="a_node20"><a xlink:href="/asn/6453" xlink:title="AS6453 ~ TATA COMMUNICATIONS (AMERICA) INC [US]">
<ellipse fill="#ffffff" stroke="black" cx="399.174" cy="-126" rx="39.7935" ry="18"/>
<text text-anchor="middle" x="399.174" y="-122.3" font-family="Times,serif" font-size="14.00" fill="#2c94b3">AS6453</text>
</a>
</g>
</g>
<!-- AS3356&#45;&gt;AS6453 -->
<g id="edge22" class="edge"><title>AS3356&#45;&gt;AS6453</title>
<path fill="none" stroke="black" d="M307.96,-167.339C323.917,-160.027 344.188,-150.739 361.471,-142.819"/>
<polygon fill="black" stroke="black" points="363.085,-145.929 370.718,-138.581 360.169,-139.565 363.085,-145.929"/>
</g>
<!-- AS3549 -->
<g id="node21" class="node"><title>AS3549</title>
<g id="a_node21"><a xlink:href="/asn/3549" xlink:title="AS3549 ~ Level 3 Parent, LLC [US]">
<ellipse fill="#ffffff" stroke="black" cx="399.174" cy="-234" rx="39.7935" ry="18"/>
<text text-anchor="middle" x="399.174" y="-230.3" font-family="Times,serif" font-size="14.00" fill="#2c94b3">AS3549</text>
</a>
</g>
</g>
<!-- AS3356&#45;&gt;AS3549 -->
<g id="edge21" class="edge"><title>AS3356&#45;&gt;AS3549</title>
<path fill="none" stroke="black" d="M307.96,-192.661C323.917,-199.973 344.188,-209.261 361.471,-217.181"/>
<polygon fill="black" stroke="black" points="360.169,-220.435 370.718,-221.419 363.085,-214.071 360.169,-220.435"/>
</g>
<!-- AS209 -->
<g id="node22" class="node"><title>AS209</title>
<g id="a_node22"><a xlink:href="/asn/209" xlink:title="AS209 ~ CenturyLink Communications, LLC [US]">
<ellipse fill="#ffffff" stroke="black" cx="399.174" cy="-180" rx="35.194" ry="18"/>
<text text-anchor="middle" x="399.174" y="-176.3" font-family="Times,serif" font-size="14.00" fill="#2c94b3">AS209</text>
</a>
</g>
</g>
<!-- AS3356&#45;&gt;AS209 -->
<g id="edge24" class="edge"><title>AS3356&#45;&gt;AS209</title>
<path fill="none" stroke="black" d="M319.244,-180C330.331,-180 342.491,-180 353.873,-180"/>
<polygon fill="black" stroke="black" points="354.055,-183.5 364.055,-180 354.055,-176.5 354.055,-183.5"/>
</g>
<!-- AS701 -->
<g id="node18" class="node"><title>AS701</title>
<g id="a_node18"><a xlink:href="/asn/701" xlink:title="AS701 ~ UUNET [US]">
<ellipse fill="#ffffff" stroke="black" cx="399.174" cy="-72" rx="35.194" ry="18"/>
<text text-anchor="middle" x="399.174" y="-68.3" font-family="Times,serif" font-size="14.00" fill="#2c94b3">AS701</text>
</a>
</g>
</g>
<!-- AS3320&#45;&gt;AS701 -->
<g id="edge18" class="edge"><title>AS3320&#45;&gt;AS701</title>
<path fill="none" stroke="black" stroke-width="2" d="M307.96,-113.339C324.377,-105.817 345.358,-96.2023 362.955,-88.1387"/>
<polygon fill="black" stroke="black" stroke-width="2" points="364.7,-91.1894 372.332,-83.8417 361.783,-84.8257 364.7,-91.1894"/>
</g>
<!-- AS1239 -->
<g id="node19" class="node"><title>AS1239</title>
<g id="a_node19"><a xlink:href="/asn/1239" xlink:title="AS1239 ~ Sprint [US]">
<ellipse fill="#ffffff" stroke="black" cx="399.174" cy="-18" rx="39.7935" ry="18"/>
<text text-anchor="middle" x="399.174" y="-14.3" font-family="Times,serif" font-size="14.00" fill="#2c94b3">AS1239</text>
</a>
</g>
</g>
<!-- AS3320&#45;&gt;AS1239 -->
<g id="edge19" class="edge"><title>AS3320&#45;&gt;AS1239</title>
<path fill="none" stroke="black" d="M303.926,-111.611C309.182,-107.852 314.513,-103.563 318.978,-99 339.151,-78.3827 334.285,-65.0945 354.978,-45 357.823,-42.2372 360.997,-39.6138 364.297,-37.1658"/>
<polygon fill="black" stroke="black" points="366.363,-39.9935 372.645,-31.4623 362.414,-34.2137 366.363,-39.9935"/>
</g>
<!-- AS3320&#45;&gt;AS6453 -->
<g id="edge20" class="edge"><title>AS3320&#45;&gt;AS6453</title>
<path fill="none" stroke="black" d="M319.244,-126C328.798,-126 339.147,-126 349.11,-126"/>
<polygon fill="black" stroke="black" points="349.302,-129.5 359.302,-126 349.302,-122.5 349.302,-129.5"/>
</g>
</g>
</svg>
