<?xml version="1.0" encoding="UTF-8" standalone="no"?>
<!DOCTYPE svg PUBLIC "-//W3C//DTD SVG 1.1//EN"
 "http://www.w3.org/Graphics/SVG/1.1/DTD/svg11.dtd">
<!-- Generated by graphviz version 2.38.0 (20140413.2041)
 -->
<!-- Title: AS39555 Combined Upstream Graph Pages: 1 -->
<svg width="460pt" height="692pt"
 viewBox="0.00 0.00 460.47 692.00" xmlns="http://www.w3.org/2000/svg" xmlns:xlink="http://www.w3.org/1999/xlink">
<g id="graph0" class="graph" transform="scale(1 1) rotate(0) translate(4 688)">
<title>AS39555 Combined Upstream Graph</title>
<polygon fill="white" stroke="none" points="-4,4 -4,-688 456.469,-688 456.469,4 -4,4"/>
<!-- AS39555 -->
<g id="node1" class="node"><title>AS39555</title>
<g id="a_node1"><a xlink:href="/asn/39555" xlink:title="AS39555 ~ Stadtwerke Schwaz GmbH [AT]">
<ellipse fill="#ffffff" stroke="black" cx="44.1961" cy="-369" rx="44.393" ry="18"/>
<text text-anchor="middle" x="44.1961" y="-365.3" font-family="Times,serif" font-size="14.00" fill="#880000">AS39555</text>
</a>
</g>
</g>
<!-- AS3330 -->
<g id="node2" class="node"><title>AS3330</title>
<g id="a_node2"><a xlink:href="/asn/3330" xlink:title="AS3330 ~ Vienna, Austria [AT]">
<ellipse fill="#ffffff" stroke="black" cx="168.588" cy="-423" rx="39.7935" ry="18"/>
<text text-anchor="middle" x="168.588" y="-419.3" font-family="Times,serif" font-size="14.00" fill="#2c94b3">AS3330</text>
</a>
</g>
</g>
<!-- AS39555&#45;&gt;AS3330 -->
<g id="edge1" class="edge"><title>AS39555&#45;&gt;AS3330</title>
<path fill="none" stroke="black" stroke-width="4.5" d="M74.8238,-382.072C91.4183,-389.393 112.278,-398.597 130.011,-406.421"/>
<polygon fill="black" stroke="black" stroke-width="4.5" points="128.756,-410.171 139.495,-410.605 131.935,-402.966 128.756,-410.171"/>
</g>
<!-- AS21013 -->
<g id="node3" class="node"><title>AS21013</title>
<g id="a_node3"><a xlink:href="/asn/21013" xlink:title="AS21013 ~ Wels, AT [AT]">
<ellipse fill="#ffffff" stroke="black" cx="168.588" cy="-288" rx="44.393" ry="18"/>
<text text-anchor="middle" x="168.588" y="-284.3" font-family="Times,serif" font-size="14.00" fill="#2c94b3">AS21013</text>
</a>
</g>
</g>
<!-- AS39555&#45;&gt;AS21013 -->
<g id="edge2" class="edge"><title>AS39555&#45;&gt;AS21013</title>
<path fill="none" stroke="black" stroke-width="4.05" d="M68.2171,-353.765C87.4491,-341.037 115.056,-322.766 136.294,-308.711"/>
<polygon fill="black" stroke="black" stroke-width="4.05" points="138.287,-311.641 144.67,-303.167 134.375,-305.731 138.287,-311.641"/>
</g>
<!-- AS3320 -->
<g id="node4" class="node"><title>AS3320</title>
<g id="a_node4"><a xlink:href="/asn/3320" xlink:title="AS3320 ~ DTAG [DE]">
<ellipse fill="#ffffff" stroke="black" cx="288.431" cy="-450" rx="39.7935" ry="18"/>
<text text-anchor="middle" x="288.431" y="-446.3" font-family="Times,serif" font-size="14.00" fill="#2c94b3">AS3320</text>
</a>
</g>
</g>
<!-- AS3330&#45;&gt;AS3320 -->
<g id="edge3" class="edge"><title>AS3330&#45;&gt;AS3320</title>
<path fill="none" stroke="black" stroke-width="1.875" d="M204.308,-430.955C216.307,-433.704 229.928,-436.825 242.621,-439.733"/>
<polygon fill="black" stroke="black" stroke-width="1.875" points="242.023,-443.187 252.552,-442.009 243.587,-436.364 242.023,-443.187"/>
</g>
<!-- AS3257 -->
<g id="node5" class="node"><title>AS3257</title>
<g id="a_node5"><a xlink:href="/asn/3257" xlink:title="AS3257 ~ GTT [DE]">
<ellipse fill="#ffffff" stroke="black" cx="288.431" cy="-396" rx="39.7935" ry="18"/>
<text text-anchor="middle" x="288.431" y="-392.3" font-family="Times,serif" font-size="14.00" fill="#2c94b3">AS3257</text>
</a>
</g>
</g>
<!-- AS3330&#45;&gt;AS3257 -->
<g id="edge4" class="edge"><title>AS3330&#45;&gt;AS3257</title>
<path fill="none" stroke="black" stroke-width="4.5" d="M204.308,-415.045C216.307,-412.296 229.928,-409.175 242.621,-406.267"/>
<polygon fill="black" stroke="black" stroke-width="4.5" points="243.684,-410.063 252.552,-403.991 241.926,-402.387 243.684,-410.063"/>
</g>
<!-- AS8218 -->
<g id="node6" class="node"><title>AS8218</title>
<g id="a_node6"><a xlink:href="/asn/8218" xlink:title="AS8218 ~ legacy Neotelecoms [FR]">
<ellipse fill="#ffffff" stroke="black" cx="288.431" cy="-612" rx="39.7935" ry="18"/>
<text text-anchor="middle" x="288.431" y="-608.3" font-family="Times,serif" font-size="14.00" fill="#2c94b3">AS8218</text>
</a>
</g>
</g>
<!-- AS3330&#45;&gt;AS8218 -->
<g id="edge5" class="edge"><title>AS3330&#45;&gt;AS8218</title>
<path fill="none" stroke="black" stroke-width="1.125" d="M179.341,-440.783C193.817,-466.901 222.15,-516.977 248.784,-558 254.969,-567.526 262.117,-577.717 268.571,-586.651"/>
<polygon fill="black" stroke="black" stroke-width="1.125" points="265.771,-588.751 274.492,-594.768 271.426,-584.626 265.771,-588.751"/>
</g>
<!-- AS3356 -->
<g id="node17" class="node"><title>AS3356</title>
<g id="a_node17"><a xlink:href="/asn/3356" xlink:title="AS3356 ~ Level 3 Parent, LLC [US]">
<ellipse fill="#ffffff" stroke="black" cx="288.431" cy="-261" rx="39.7935" ry="18"/>
<text text-anchor="middle" x="288.431" y="-257.3" font-family="Times,serif" font-size="14.00" fill="#2c94b3">AS3356</text>
</a>
</g>
</g>
<!-- AS21013&#45;&gt;AS3356 -->
<g id="edge20" class="edge"><title>AS21013&#45;&gt;AS3356</title>
<path fill="none" stroke="black" stroke-width="4.5" d="M207.523,-279.308C218.764,-276.733 231.176,-273.889 242.799,-271.226"/>
<polygon fill="black" stroke="black" stroke-width="4.5" points="243.893,-275.015 252.761,-268.943 242.134,-267.339 243.893,-275.015"/>
</g>
<!-- AS1764 -->
<g id="node18" class="node"><title>AS1764</title>
<g id="a_node18"><a xlink:href="/asn/1764" xlink:title="AS1764 ~ NEXTLAYER&#45;AS [AT]">
<ellipse fill="#ffffff" stroke="black" cx="288.431" cy="-531" rx="39.7935" ry="18"/>
<text text-anchor="middle" x="288.431" y="-527.3" font-family="Times,serif" font-size="14.00" fill="#2c94b3">AS1764</text>
</a>
</g>
</g>
<!-- AS21013&#45;&gt;AS1764 -->
<g id="edge21" class="edge"><title>AS21013&#45;&gt;AS1764</title>
<path fill="none" stroke="black" stroke-width="1.8" d="M176.838,-305.941C194.681,-350.004 239.921,-461.117 248.784,-477 254.319,-486.918 261.317,-497.199 267.832,-506.096"/>
<polygon fill="black" stroke="black" stroke-width="1.8" points="265.068,-508.244 273.868,-514.144 270.668,-504.044 265.068,-508.244"/>
</g>
<!-- AS2914 -->
<g id="node19" class="node"><title>AS2914</title>
<g id="a_node19"><a xlink:href="/asn/2914" xlink:title="AS2914 ~ NTT America, Inc. [US]">
<ellipse fill="#ffffff" stroke="black" cx="288.431" cy="-315" rx="39.7935" ry="18"/>
<text text-anchor="middle" x="288.431" y="-311.3" font-family="Times,serif" font-size="14.00" fill="#2c94b3">AS2914</text>
</a>
</g>
</g>
<!-- AS21013&#45;&gt;AS2914 -->
<g id="edge22" class="edge"><title>AS21013&#45;&gt;AS2914</title>
<path fill="none" stroke="black" stroke-width="2.7" d="M207.523,-296.692C218.764,-299.267 231.176,-302.111 242.799,-304.774"/>
<polygon fill="black" stroke="black" stroke-width="2.7" points="242.232,-308.235 252.761,-307.057 243.795,-301.412 242.232,-308.235"/>
</g>
<!-- AS174 -->
<g id="node20" class="node"><title>AS174</title>
<g id="a_node20"><a xlink:href="/asn/174" xlink:title="AS174 ~ Cogent Communications [US]">
<ellipse fill="#ffffff" stroke="black" cx="288.431" cy="-59" rx="35.194" ry="18"/>
<text text-anchor="middle" x="288.431" y="-55.3" font-family="Times,serif" font-size="14.00" fill="#2c94b3">AS174</text>
</a>
</g>
</g>
<!-- AS21013&#45;&gt;AS174 -->
<g id="edge23" class="edge"><title>AS21013&#45;&gt;AS174</title>
<path fill="none" stroke="black" stroke-width="2.7" d="M177.754,-270.301C191.704,-240.301 221.287,-177.683 248.784,-126 256.072,-112.302 264.654,-97.3201 271.878,-85.0037"/>
<polygon fill="black" stroke="black" stroke-width="2.7" points="275.023,-86.561 277.093,-76.1703 268.995,-83.0023 275.023,-86.561"/>
</g>
<!-- AS6939 -->
<g id="node21" class="node"><title>AS6939</title>
<g id="a_node21"><a xlink:href="/asn/6939" xlink:title="AS6939 ~ Hurricane Electric LLC [US]">
<ellipse fill="#ffffff" stroke="black" cx="288.431" cy="-153" rx="39.7935" ry="18"/>
<text text-anchor="middle" x="288.431" y="-149.3" font-family="Times,serif" font-size="14.00" fill="#2c94b3">AS6939</text>
</a>
</g>
</g>
<!-- AS21013&#45;&gt;AS6939 -->
<g id="edge24" class="edge"><title>AS21013&#45;&gt;AS6939</title>
<path fill="none" stroke="black" stroke-width="4.5" d="M184.513,-270.902C205.056,-247.369 242.175,-204.845 265.771,-177.813"/>
<polygon fill="black" stroke="black" stroke-width="4.5" points="269.017,-180.082 272.627,-169.959 263.085,-174.903 269.017,-180.082"/>
</g>
<!-- AS701 -->
<g id="node7" class="node"><title>AS701</title>
<g id="a_node7"><a xlink:href="/asn/701" xlink:title="AS701 ~ UUNET [US]">
<ellipse fill="#ffffff" stroke="black" cx="408.273" cy="-504" rx="35.194" ry="18"/>
<text text-anchor="middle" x="408.273" y="-500.3" font-family="Times,serif" font-size="14.00" fill="#2c94b3">AS701</text>
</a>
</g>
</g>
<!-- AS3320&#45;&gt;AS701 -->
<g id="edge6" class="edge"><title>AS3320&#45;&gt;AS701</title>
<path fill="none" stroke="black" d="M317.06,-462.661C333.476,-470.183 354.457,-479.798 372.054,-487.861"/>
<polygon fill="black" stroke="black" points="370.883,-491.174 381.432,-492.158 373.799,-484.811 370.883,-491.174"/>
</g>
<!-- AS6453 -->
<g id="node8" class="node"><title>AS6453</title>
<g id="a_node8"><a xlink:href="/asn/6453" xlink:title="AS6453 ~ TATA COMMUNICATIONS (AMERICA) INC [US]">
<ellipse fill="#ffffff" stroke="black" cx="408.273" cy="-450" rx="39.7935" ry="18"/>
<text text-anchor="middle" x="408.273" y="-446.3" font-family="Times,serif" font-size="14.00" fill="#2c94b3">AS6453</text>
</a>
</g>
</g>
<!-- AS3320&#45;&gt;AS6453 -->
<g id="edge7" class="edge"><title>AS3320&#45;&gt;AS6453</title>
<path fill="none" stroke="black" d="M328.343,-450C337.897,-450 348.246,-450 358.209,-450"/>
<polygon fill="black" stroke="black" points="358.402,-453.5 368.402,-450 358.402,-446.5 358.402,-453.5"/>
</g>
<!-- AS2497 -->
<g id="node9" class="node"><title>AS2497</title>
<g id="a_node9"><a xlink:href="/asn/2497" xlink:title="AS2497 ~ Internet Initiative Japan Inc. [JP]">
<ellipse fill="#ffffff" stroke="black" cx="408.273" cy="-288" rx="39.7935" ry="18"/>
<text text-anchor="middle" x="408.273" y="-284.3" font-family="Times,serif" font-size="14.00" fill="#2c94b3">AS2497</text>
</a>
</g>
</g>
<!-- AS3320&#45;&gt;AS2497 -->
<g id="edge8" class="edge"><title>AS3320&#45;&gt;AS2497</title>
<path fill="none" stroke="black" d="M314.362,-436.118C319.438,-432.389 324.356,-427.984 328.077,-423 358.349,-382.458 332.779,-354.754 364.077,-315 366.402,-312.047 369.146,-309.33 372.105,-306.853"/>
<polygon fill="black" stroke="black" points="374.298,-309.585 380.302,-300.855 370.165,-303.936 374.298,-309.585"/>
</g>
<!-- AS1239 -->
<g id="node10" class="node"><title>AS1239</title>
<g id="a_node10"><a xlink:href="/asn/1239" xlink:title="AS1239 ~ Sprint [US]">
<ellipse fill="#ffffff" stroke="black" cx="408.273" cy="-558" rx="39.7935" ry="18"/>
<text text-anchor="middle" x="408.273" y="-554.3" font-family="Times,serif" font-size="14.00" fill="#2c94b3">AS1239</text>
</a>
</g>
</g>
<!-- AS3320&#45;&gt;AS1239 -->
<g id="edge9" class="edge"><title>AS3320&#45;&gt;AS1239</title>
<path fill="none" stroke="black" d="M302.85,-467.065C316.964,-484.375 340.379,-511.345 364.077,-531 367.294,-533.668 370.794,-536.27 374.365,-538.741"/>
<polygon fill="black" stroke="black" points="372.442,-541.666 382.721,-544.236 376.288,-535.817 372.442,-541.666"/>
</g>
<!-- AS3257&#45;&gt;AS701 -->
<g id="edge17" class="edge"><title>AS3257&#45;&gt;AS701</title>
<path fill="none" stroke="black" d="M313.025,-410.389C318.281,-414.148 323.613,-418.437 328.077,-423 348.25,-443.617 343.384,-456.906 364.077,-477 367.305,-480.134 370.956,-483.089 374.734,-485.812"/>
<polygon fill="black" stroke="black" points="372.832,-488.75 383.094,-491.383 376.713,-482.925 372.832,-488.75"/>
</g>
<!-- AS3257&#45;&gt;AS6453 -->
<g id="edge16" class="edge"><title>AS3257&#45;&gt;AS6453</title>
<path fill="none" stroke="black" d="M317.06,-408.661C333.017,-415.973 353.287,-425.261 370.57,-433.181"/>
<polygon fill="black" stroke="black" points="369.269,-436.435 379.818,-437.419 372.185,-430.071 369.269,-436.435"/>
</g>
<!-- AS3257&#45;&gt;AS2497 -->
<g id="edge10" class="edge"><title>AS3257&#45;&gt;AS2497</title>
<path fill="none" stroke="black" stroke-width="2" d="M302.85,-378.935C316.964,-361.625 340.379,-334.655 364.077,-315 367.294,-312.332 370.794,-309.73 374.365,-307.259"/>
<polygon fill="black" stroke="black" stroke-width="2" points="376.288,-310.183 382.721,-301.764 372.442,-304.334 376.288,-310.183"/>
</g>
<!-- AS3257&#45;&gt;AS1239 -->
<g id="edge14" class="edge"><title>AS3257&#45;&gt;AS1239</title>
<path fill="none" stroke="black" d="M314.362,-409.882C319.438,-413.611 324.356,-418.016 328.077,-423 358.349,-463.542 332.779,-491.246 364.077,-531 366.402,-533.953 369.146,-536.67 372.105,-539.147"/>
<polygon fill="black" stroke="black" points="370.165,-542.064 380.302,-545.145 374.298,-536.415 370.165,-542.064"/>
</g>
<!-- AS12956 -->
<g id="node11" class="node"><title>AS12956</title>
<g id="a_node11"><a xlink:href="/asn/12956" xlink:title="AS12956 ~ TELXIUS [ES]">
<ellipse fill="#ffffff" stroke="black" cx="408.273" cy="-342" rx="44.393" ry="18"/>
<text text-anchor="middle" x="408.273" y="-338.3" font-family="Times,serif" font-size="14.00" fill="#2c94b3">AS12956</text>
</a>
</g>
</g>
<!-- AS3257&#45;&gt;AS12956 -->
<g id="edge11" class="edge"><title>AS3257&#45;&gt;AS12956</title>
<path fill="none" stroke="black" d="M317.06,-383.339C332.557,-376.238 352.124,-367.272 369.071,-359.506"/>
<polygon fill="black" stroke="black" points="370.54,-362.683 378.173,-355.335 367.624,-356.319 370.54,-362.683"/>
</g>
<!-- AS3491 -->
<g id="node12" class="node"><title>AS3491</title>
<g id="a_node12"><a xlink:href="/asn/3491" xlink:title="AS3491 ~ PCCW Global, Inc. [US]">
<ellipse fill="#ffffff" stroke="black" cx="408.273" cy="-234" rx="39.7935" ry="18"/>
<text text-anchor="middle" x="408.273" y="-230.3" font-family="Times,serif" font-size="14.00" fill="#2c94b3">AS3491</text>
</a>
</g>
</g>
<!-- AS3257&#45;&gt;AS3491 -->
<g id="edge12" class="edge"><title>AS3257&#45;&gt;AS3491</title>
<path fill="none" stroke="black" d="M302.892,-379.087C310.785,-368.73 320.634,-355.008 328.077,-342 347.642,-307.806 338.243,-290.742 364.077,-261 366.542,-258.162 369.379,-255.523 372.397,-253.094"/>
<polygon fill="black" stroke="black" points="374.583,-255.833 380.675,-247.164 370.507,-250.142 374.583,-255.833"/>
</g>
<!-- AS7018 -->
<g id="node13" class="node"><title>AS7018</title>
<g id="a_node13"><a xlink:href="/asn/7018" xlink:title="AS7018 ~ AT&amp;T Services, Inc. [US]">
<ellipse fill="#ffffff" stroke="black" cx="408.273" cy="-396" rx="39.7935" ry="18"/>
<text text-anchor="middle" x="408.273" y="-392.3" font-family="Times,serif" font-size="14.00" fill="#2c94b3">AS7018</text>
</a>
</g>
</g>
<!-- AS3257&#45;&gt;AS7018 -->
<g id="edge13" class="edge"><title>AS3257&#45;&gt;AS7018</title>
<path fill="none" stroke="black" stroke-width="2" d="M328.343,-396C337.897,-396 348.246,-396 358.209,-396"/>
<polygon fill="black" stroke="black" stroke-width="2" points="358.402,-399.5 368.402,-396 358.402,-392.5 358.402,-399.5"/>
</g>
<!-- AS6762 -->
<g id="node14" class="node"><title>AS6762</title>
<g id="a_node14"><a xlink:href="/asn/6762" xlink:title="AS6762 ~ TELECOM ITALIA SPARKLE S.p.A. [IT]">
<ellipse fill="#ffffff" stroke="black" cx="408.273" cy="-126" rx="39.7935" ry="18"/>
<text text-anchor="middle" x="408.273" y="-122.3" font-family="Times,serif" font-size="14.00" fill="#2c94b3">AS6762</text>
</a>
</g>
</g>
<!-- AS3257&#45;&gt;AS6762 -->
<g id="edge15" class="edge"><title>AS3257&#45;&gt;AS6762</title>
<path fill="none" stroke="black" d="M304.396,-379.173C312.605,-369.065 322.267,-355.565 328.077,-342 361.746,-263.397 315.781,-223.566 364.077,-153 366.025,-150.154 368.382,-147.548 370.978,-145.176"/>
<polygon fill="black" stroke="black" points="373.53,-147.628 379.315,-138.751 369.257,-142.083 373.53,-147.628"/>
</g>
<!-- AS6461 -->
<g id="node15" class="node"><title>AS6461</title>
<g id="a_node15"><a xlink:href="/asn/6461" xlink:title="AS6461 ~ ZAYO&#45;6461 [US]">
<ellipse fill="#ffffff" stroke="black" cx="408.273" cy="-666" rx="39.7935" ry="18"/>
<text text-anchor="middle" x="408.273" y="-662.3" font-family="Times,serif" font-size="14.00" fill="#2c94b3">AS6461</text>
</a>
</g>
</g>
<!-- AS8218&#45;&gt;AS6461 -->
<g id="edge18" class="edge"><title>AS8218&#45;&gt;AS6461</title>
<path fill="none" stroke="black" stroke-width="2" d="M317.06,-624.661C333.017,-631.973 353.287,-641.261 370.57,-649.181"/>
<polygon fill="black" stroke="black" stroke-width="2" points="369.269,-652.435 379.818,-653.419 372.185,-646.071 369.269,-652.435"/>
</g>
<!-- AS1299 -->
<g id="node16" class="node"><title>AS1299</title>
<g id="a_node16"><a xlink:href="/asn/1299" xlink:title="AS1299 ~ Telia Carrier [EU]">
<ellipse fill="#ffffff" stroke="black" cx="408.273" cy="-612" rx="39.7935" ry="18"/>
<text text-anchor="middle" x="408.273" y="-608.3" font-family="Times,serif" font-size="14.00" fill="#2c94b3">AS1299</text>
</a>
</g>
</g>
<!-- AS8218&#45;&gt;AS1299 -->
<g id="edge19" class="edge"><title>AS8218&#45;&gt;AS1299</title>
<path fill="none" stroke="black" d="M328.343,-612C337.897,-612 348.246,-612 358.209,-612"/>
<polygon fill="black" stroke="black" points="358.402,-615.5 368.402,-612 358.402,-608.5 358.402,-615.5"/>
</g>
<!-- AS3356&#45;&gt;AS6453 -->
<g id="edge27" class="edge"><title>AS3356&#45;&gt;AS6453</title>
<path fill="none" stroke="black" d="M314.59,-274.716C319.654,-278.455 324.51,-282.904 328.077,-288 363.691,-338.869 327.174,-373.059 364.077,-423 366.311,-426.023 368.994,-428.786 371.914,-431.293"/>
<polygon fill="black" stroke="black" points="369.94,-434.186 380.058,-437.331 374.109,-428.563 369.94,-434.186"/>
</g>
<!-- AS3356&#45;&gt;AS2497 -->
<g id="edge26" class="edge"><title>AS3356&#45;&gt;AS2497</title>
<path fill="none" stroke="black" d="M324.15,-268.955C336.15,-271.704 349.771,-274.825 362.463,-277.733"/>
<polygon fill="black" stroke="black" points="361.866,-281.187 372.395,-280.009 363.429,-274.364 361.866,-281.187"/>
</g>
<!-- AS3549 -->
<g id="node22" class="node"><title>AS3549</title>
<g id="a_node22"><a xlink:href="/asn/3549" xlink:title="AS3549 ~ Level 3 Parent, LLC [US]">
<ellipse fill="#ffffff" stroke="black" cx="408.273" cy="-180" rx="39.7935" ry="18"/>
<text text-anchor="middle" x="408.273" y="-176.3" font-family="Times,serif" font-size="14.00" fill="#2c94b3">AS3549</text>
</a>
</g>
</g>
<!-- AS3356&#45;&gt;AS3549 -->
<g id="edge25" class="edge"><title>AS3356&#45;&gt;AS3549</title>
<path fill="none" stroke="black" d="M309.761,-245.723C324.623,-234.696 345.368,-219.593 364.077,-207 367.626,-204.611 371.377,-202.161 375.125,-199.758"/>
<polygon fill="black" stroke="black" points="377.193,-202.591 383.774,-194.288 373.451,-196.675 377.193,-202.591"/>
</g>
<!-- AS1764&#45;&gt;AS1299 -->
<g id="edge28" class="edge"><title>AS1764&#45;&gt;AS1299</title>
<path fill="none" stroke="black" stroke-width="2" d="M309.761,-546.277C324.623,-557.304 345.368,-572.407 364.077,-585 367.626,-587.389 371.377,-589.839 375.125,-592.242"/>
<polygon fill="black" stroke="black" stroke-width="2" points="373.451,-595.325 383.774,-597.712 377.193,-589.409 373.451,-595.325"/>
</g>
<!-- AS2914&#45;&gt;AS2497 -->
<g id="edge35" class="edge"><title>AS2914&#45;&gt;AS2497</title>
<path fill="none" stroke="black" d="M324.15,-307.045C336.15,-304.296 349.771,-301.175 362.463,-298.267"/>
<polygon fill="black" stroke="black" points="363.429,-301.636 372.395,-295.991 361.866,-294.813 363.429,-301.636"/>
</g>
<!-- AS209 -->
<g id="node23" class="node"><title>AS209</title>
<g id="a_node23"><a xlink:href="/asn/209" xlink:title="AS209 ~ CenturyLink Communications, LLC [US]">
<ellipse fill="#ffffff" stroke="black" cx="408.273" cy="-18" rx="35.194" ry="18"/>
<text text-anchor="middle" x="408.273" y="-14.3" font-family="Times,serif" font-size="14.00" fill="#2c94b3">AS209</text>
</a>
</g>
</g>
<!-- AS174&#45;&gt;AS209 -->
<g id="edge34" class="edge"><title>AS174&#45;&gt;AS209</title>
<path fill="none" stroke="black" d="M317.957,-49.075C333.331,-43.726 352.507,-37.0542 369.146,-31.2654"/>
<polygon fill="black" stroke="black" points="370.307,-34.5674 378.601,-27.9757 368.006,-27.9561 370.307,-34.5674"/>
</g>
<!-- AS6939&#45;&gt;AS2497 -->
<g id="edge33" class="edge"><title>AS6939&#45;&gt;AS2497</title>
<path fill="none" stroke="black" d="M298.672,-170.713C311.218,-193.561 335.394,-233.611 364.077,-261 366.946,-263.739 370.134,-266.347 373.443,-268.785"/>
<polygon fill="black" stroke="black" points="371.567,-271.742 381.803,-274.477 375.507,-265.956 371.567,-271.742"/>
</g>
<!-- AS6939&#45;&gt;AS3491 -->
<g id="edge29" class="edge"><title>AS6939&#45;&gt;AS3491</title>
<path fill="none" stroke="black" d="M309.761,-168.277C324.623,-179.304 345.368,-194.407 364.077,-207 367.626,-209.389 371.377,-211.839 375.125,-214.242"/>
<polygon fill="black" stroke="black" points="373.451,-217.325 383.774,-219.712 377.193,-211.409 373.451,-217.325"/>
</g>
<!-- AS6939&#45;&gt;AS6762 -->
<g id="edge31" class="edge"><title>AS6939&#45;&gt;AS6762</title>
<path fill="none" stroke="black" d="M324.15,-145.045C336.15,-142.296 349.771,-139.175 362.463,-136.267"/>
<polygon fill="black" stroke="black" points="363.429,-139.636 372.395,-133.991 361.866,-132.813 363.429,-139.636"/>
</g>
<!-- AS6939&#45;&gt;AS209 -->
<g id="edge30" class="edge"><title>AS6939&#45;&gt;AS209</title>
<path fill="none" stroke="black" d="M298.672,-135.287C311.218,-112.439 335.394,-72.3891 364.077,-45 367.331,-41.8928 370.998,-38.9542 374.785,-36.24"/>
<polygon fill="black" stroke="black" points="376.762,-39.1284 383.153,-30.6781 372.887,-33.2986 376.762,-39.1284"/>
</g>
<!-- AS1273 -->
<g id="node24" class="node"><title>AS1273</title>
<g id="a_node24"><a xlink:href="/asn/1273" xlink:title="AS1273 ~ Vodafone Group PLC [EU]">
<ellipse fill="#ffffff" stroke="black" cx="408.273" cy="-72" rx="39.7935" ry="18"/>
<text text-anchor="middle" x="408.273" y="-68.3" font-family="Times,serif" font-size="14.00" fill="#2c94b3">AS1273</text>
</a>
</g>
</g>
<!-- AS6939&#45;&gt;AS1273 -->
<g id="edge32" class="edge"><title>AS6939&#45;&gt;AS1273</title>
<path fill="none" stroke="black" d="M309.761,-137.723C324.623,-126.696 345.368,-111.593 364.077,-99 367.626,-96.6111 371.377,-94.1609 375.125,-91.7579"/>
<polygon fill="black" stroke="black" points="377.193,-94.5912 383.774,-86.2876 373.451,-88.6753 377.193,-94.5912"/>
</g>
</g>
</svg>
