<?xml version="1.0" encoding="UTF-8" standalone="no"?>
<!DOCTYPE svg PUBLIC "-//W3C//DTD SVG 1.1//EN"
 "http://www.w3.org/Graphics/SVG/1.1/DTD/svg11.dtd">
<!-- Generated by graphviz version 2.38.0 (20140413.2041)
 -->
<!-- Title: AS39555 IPv6 Upstream Graph Pages: 1 -->
<svg width="451pt" height="530pt"
 viewBox="0.00 0.00 451.37 530.00" xmlns="http://www.w3.org/2000/svg" xmlns:xlink="http://www.w3.org/1999/xlink">
<g id="graph0" class="graph" transform="scale(1 1) rotate(0) translate(4 526)">
<title>AS39555 IPv6 Upstream Graph</title>
<polygon fill="white" stroke="none" points="-4,4 -4,-526 447.37,-526 447.37,4 -4,4"/>
<!-- AS39555 -->
<g id="node1" class="node"><title>AS39555</title>
<g id="a_node1"><a xlink:href="/asn/39555" xlink:title="AS39555 ~ Stadtwerke Schwaz GmbH [AT]">
<ellipse fill="#ffffff" stroke="black" cx="44.1961" cy="-365" rx="44.393" ry="18"/>
<text text-anchor="middle" x="44.1961" y="-361.3" font-family="Times,serif" font-size="14.00" fill="#880000">AS39555</text>
</a>
</g>
</g>
<!-- AS3330 -->
<g id="node2" class="node"><title>AS3330</title>
<g id="a_node2"><a xlink:href="/asn/3330" xlink:title="AS3330 ~ Vienna, Austria [AT]">
<ellipse fill="#ffffff" stroke="black" cx="168.588" cy="-439" rx="39.7935" ry="18"/>
<text text-anchor="middle" x="168.588" y="-435.3" font-family="Times,serif" font-size="14.00" fill="#2c94b3">AS3330</text>
</a>
</g>
</g>
<!-- AS39555&#45;&gt;AS3330 -->
<g id="edge1" class="edge"><title>AS39555&#45;&gt;AS3330</title>
<path fill="none" stroke="black" stroke-width="1.5" d="M69.6698,-379.797C88.5077,-391.187 114.713,-407.031 135.274,-419.462"/>
<polygon fill="black" stroke="black" stroke-width="1.5" points="133.62,-422.552 143.989,-424.731 137.242,-416.562 133.62,-422.552"/>
</g>
<!-- AS21013 -->
<g id="node3" class="node"><title>AS21013</title>
<g id="a_node3"><a xlink:href="/asn/21013" xlink:title="AS21013 ~ Wels, AT [AT]">
<ellipse fill="#ffffff" stroke="black" cx="168.588" cy="-264" rx="44.393" ry="18"/>
<text text-anchor="middle" x="168.588" y="-260.3" font-family="Times,serif" font-size="14.00" fill="#2c94b3">AS21013</text>
</a>
</g>
</g>
<!-- AS39555&#45;&gt;AS21013 -->
<g id="edge2" class="edge"><title>AS39555&#45;&gt;AS21013</title>
<path fill="none" stroke="black" stroke-width="4.5" d="M64.5895,-348.996C84.8804,-332.252 116.917,-305.815 139.872,-286.872"/>
<polygon fill="black" stroke="black" stroke-width="4.5" points="142.674,-289.665 147.88,-280.263 137.661,-283.591 142.674,-289.665"/>
</g>
<!-- AS8218 -->
<g id="node4" class="node"><title>AS8218</title>
<g id="a_node4"><a xlink:href="/asn/8218" xlink:title="AS8218 ~ legacy Neotelecoms [FR]">
<ellipse fill="#ffffff" stroke="black" cx="288.431" cy="-500" rx="39.7935" ry="18"/>
<text text-anchor="middle" x="288.431" y="-496.3" font-family="Times,serif" font-size="14.00" fill="#2c94b3">AS8218</text>
</a>
</g>
</g>
<!-- AS3330&#45;&gt;AS8218 -->
<g id="edge3" class="edge"><title>AS3330&#45;&gt;AS8218</title>
<path fill="none" stroke="black" d="M195.449,-452.387C212.258,-461.087 234.373,-472.535 252.706,-482.025"/>
<polygon fill="black" stroke="black" points="251.14,-485.156 261.63,-486.645 254.358,-478.939 251.14,-485.156"/>
</g>
<!-- AS3257 -->
<g id="node5" class="node"><title>AS3257</title>
<g id="a_node5"><a xlink:href="/asn/3257" xlink:title="AS3257 ~ GTT [DE]">
<ellipse fill="#ffffff" stroke="black" cx="288.431" cy="-439" rx="39.7935" ry="18"/>
<text text-anchor="middle" x="288.431" y="-435.3" font-family="Times,serif" font-size="14.00" fill="#2c94b3">AS3257</text>
</a>
</g>
</g>
<!-- AS3330&#45;&gt;AS3257 -->
<g id="edge4" class="edge"><title>AS3330&#45;&gt;AS3257</title>
<path fill="none" stroke="black" stroke-width="3" d="M208.501,-439C218.054,-439 228.404,-439 238.367,-439"/>
<polygon fill="black" stroke="black" stroke-width="3" points="238.559,-442.5 248.559,-439 238.559,-435.5 238.559,-442.5"/>
</g>
<!-- AS174 -->
<g id="node9" class="node"><title>AS174</title>
<g id="a_node9"><a xlink:href="/asn/174" xlink:title="AS174 ~ Cogent Communications [US]">
<ellipse fill="#ffffff" stroke="black" cx="288.431" cy="-153" rx="35.194" ry="18"/>
<text text-anchor="middle" x="288.431" y="-149.3" font-family="Times,serif" font-size="14.00" fill="#2c94b3">AS174</text>
</a>
</g>
</g>
<!-- AS21013&#45;&gt;AS174 -->
<g id="edge8" class="edge"><title>AS21013&#45;&gt;AS174</title>
<path fill="none" stroke="black" stroke-width="4" d="M186.976,-247.622C207.136,-228.633 240.493,-197.213 263.19,-175.833"/>
<polygon fill="black" stroke="black" stroke-width="4" points="265.855,-178.131 270.734,-168.727 261.055,-173.036 265.855,-178.131"/>
</g>
<!-- AS3356 -->
<g id="node10" class="node"><title>AS3356</title>
<g id="a_node10"><a xlink:href="/asn/3356" xlink:title="AS3356 ~ Level 3 Parent, LLC [US]">
<ellipse fill="#ffffff" stroke="black" cx="288.431" cy="-45" rx="39.7935" ry="18"/>
<text text-anchor="middle" x="288.431" y="-41.3" font-family="Times,serif" font-size="14.00" fill="#2c94b3">AS3356</text>
</a>
</g>
</g>
<!-- AS21013&#45;&gt;AS3356 -->
<g id="edge9" class="edge"><title>AS21013&#45;&gt;AS3356</title>
<path fill="none" stroke="black" stroke-width="2" d="M179.033,-246.449C199.632,-208.166 248.707,-116.965 273.124,-71.5872"/>
<polygon fill="black" stroke="black" stroke-width="2" points="276.285,-73.0996 277.941,-62.6351 270.121,-69.7827 276.285,-73.0996"/>
</g>
<!-- AS2914 -->
<g id="node11" class="node"><title>AS2914</title>
<g id="a_node11"><a xlink:href="/asn/2914" xlink:title="AS2914 ~ NTT America, Inc. [US]">
<ellipse fill="#ffffff" stroke="black" cx="288.431" cy="-372" rx="39.7935" ry="18"/>
<text text-anchor="middle" x="288.431" y="-368.3" font-family="Times,serif" font-size="14.00" fill="#2c94b3">AS2914</text>
</a>
</g>
</g>
<!-- AS21013&#45;&gt;AS2914 -->
<g id="edge10" class="edge"><title>AS21013&#45;&gt;AS2914</title>
<path fill="none" stroke="black" stroke-width="2" d="M187.486,-280.403C207.414,-298.667 239.772,-328.322 262.249,-348.921"/>
<polygon fill="black" stroke="black" stroke-width="2" points="260.014,-351.62 269.751,-355.797 264.743,-346.46 260.014,-351.62"/>
</g>
<!-- AS6939 -->
<g id="node12" class="node"><title>AS6939</title>
<g id="a_node12"><a xlink:href="/asn/6939" xlink:title="AS6939 ~ Hurricane Electric LLC [US]">
<ellipse fill="#ffffff" stroke="black" cx="288.431" cy="-291" rx="39.7935" ry="18"/>
<text text-anchor="middle" x="288.431" y="-287.3" font-family="Times,serif" font-size="14.00" fill="#2c94b3">AS6939</text>
</a>
</g>
</g>
<!-- AS21013&#45;&gt;AS6939 -->
<g id="edge11" class="edge"><title>AS21013&#45;&gt;AS6939</title>
<path fill="none" stroke="black" stroke-width="3" d="M207.523,-272.692C218.764,-275.267 231.176,-278.111 242.799,-280.774"/>
<polygon fill="black" stroke="black" stroke-width="3" points="242.232,-284.235 252.761,-283.057 243.795,-277.412 242.232,-284.235"/>
</g>
<!-- AS1764 -->
<g id="node13" class="node"><title>AS1764</title>
<g id="a_node13"><a xlink:href="/asn/1764" xlink:title="AS1764 ~ NEXTLAYER&#45;AS [AT]">
<ellipse fill="#ffffff" stroke="black" cx="288.431" cy="-237" rx="39.7935" ry="18"/>
<text text-anchor="middle" x="288.431" y="-233.3" font-family="Times,serif" font-size="14.00" fill="#2c94b3">AS1764</text>
</a>
</g>
</g>
<!-- AS21013&#45;&gt;AS1764 -->
<g id="edge12" class="edge"><title>AS21013&#45;&gt;AS1764</title>
<path fill="none" stroke="black" d="M207.523,-255.308C218.764,-252.733 231.176,-249.889 242.799,-247.226"/>
<polygon fill="black" stroke="black" points="243.795,-250.588 252.761,-244.943 242.232,-243.765 243.795,-250.588"/>
</g>
<!-- AS6461 -->
<g id="node6" class="node"><title>AS6461</title>
<g id="a_node6"><a xlink:href="/asn/6461" xlink:title="AS6461 ~ Zayo Bandwidth [US]">
<ellipse fill="#ffffff" stroke="black" cx="403.724" cy="-504" rx="39.7935" ry="18"/>
<text text-anchor="middle" x="403.724" y="-500.3" font-family="Times,serif" font-size="14.00" fill="#2c94b3">AS6461</text>
</a>
</g>
</g>
<!-- AS8218&#45;&gt;AS6461 -->
<g id="edge5" class="edge"><title>AS8218&#45;&gt;AS6461</title>
<path fill="none" stroke="black" d="M328.103,-501.365C336.306,-501.655 345.07,-501.964 353.602,-502.266"/>
<polygon fill="black" stroke="black" points="353.724,-505.772 363.841,-502.627 353.971,-498.776 353.724,-505.772"/>
</g>
<!-- AS2497 -->
<g id="node7" class="node"><title>AS2497</title>
<g id="a_node7"><a xlink:href="/asn/2497" xlink:title="AS2497 ~ Internet Initiative Japan Inc. [JP]">
<ellipse fill="#ffffff" stroke="black" cx="403.724" cy="-396" rx="39.7935" ry="18"/>
<text text-anchor="middle" x="403.724" y="-392.3" font-family="Times,serif" font-size="14.00" fill="#2c94b3">AS2497</text>
</a>
</g>
</g>
<!-- AS3257&#45;&gt;AS2497 -->
<g id="edge6" class="edge"><title>AS3257&#45;&gt;AS2497</title>
<path fill="none" stroke="black" d="M319.494,-427.59C332.809,-422.536 348.66,-416.52 362.937,-411.101"/>
<polygon fill="black" stroke="black" points="364.413,-414.284 372.52,-407.464 361.929,-407.74 364.413,-414.284"/>
</g>
<!-- AS7018 -->
<g id="node8" class="node"><title>AS7018</title>
<g id="a_node8"><a xlink:href="/asn/7018" xlink:title="AS7018 ~ AT&amp;T Services, Inc. [US]">
<ellipse fill="#ffffff" stroke="black" cx="403.724" cy="-450" rx="39.7935" ry="18"/>
<text text-anchor="middle" x="403.724" y="-446.3" font-family="Times,serif" font-size="14.00" fill="#2c94b3">AS7018</text>
</a>
</g>
</g>
<!-- AS3257&#45;&gt;AS7018 -->
<g id="edge7" class="edge"><title>AS3257&#45;&gt;AS7018</title>
<path fill="none" stroke="black" d="M327.471,-442.693C336.158,-443.537 345.502,-444.444 354.551,-445.323"/>
<polygon fill="black" stroke="black" points="354.3,-448.815 364.591,-446.298 354.976,-441.847 354.3,-448.815"/>
</g>
<!-- AS6762 -->
<g id="node14" class="node"><title>AS6762</title>
<g id="a_node14"><a xlink:href="/asn/6762" xlink:title="AS6762 ~ TELECOM ITALIA SPARKLE S.p.A. [IT]">
<ellipse fill="#ffffff" stroke="black" cx="403.724" cy="-126" rx="39.7935" ry="18"/>
<text text-anchor="middle" x="403.724" y="-122.3" font-family="Times,serif" font-size="14.00" fill="#2c94b3">AS6762</text>
</a>
</g>
</g>
<!-- AS174&#45;&gt;AS6762 -->
<g id="edge13" class="edge"><title>AS174&#45;&gt;AS6762</title>
<path fill="none" stroke="black" d="M320.688,-145.551C332.368,-142.767 345.864,-139.551 358.493,-136.541"/>
<polygon fill="black" stroke="black" points="359.469,-139.907 368.385,-134.184 357.846,-133.097 359.469,-139.907"/>
</g>
<!-- AS701 -->
<g id="node15" class="node"><title>AS701</title>
<g id="a_node15"><a xlink:href="/asn/701" xlink:title="AS701 ~ UUNET [US]">
<ellipse fill="#ffffff" stroke="black" cx="403.724" cy="-72" rx="35.194" ry="18"/>
<text text-anchor="middle" x="403.724" y="-68.3" font-family="Times,serif" font-size="14.00" fill="#2c94b3">AS701</text>
</a>
</g>
</g>
<!-- AS174&#45;&gt;AS701 -->
<g id="edge14" class="edge"><title>AS174&#45;&gt;AS701</title>
<path fill="none" stroke="black" d="M309.327,-138.471C324.328,-127.55 345.436,-112.253 364.077,-99 367.288,-96.7177 370.657,-94.3393 374.011,-91.9816"/>
<polygon fill="black" stroke="black" points="376.039,-94.8341 382.222,-86.2301 372.023,-89.1008 376.039,-94.8341"/>
</g>
<!-- AS209 -->
<g id="node16" class="node"><title>AS209</title>
<g id="a_node16"><a xlink:href="/asn/209" xlink:title="AS209 ~ CenturyLink Communications, LLC [US]">
<ellipse fill="#ffffff" stroke="black" cx="403.724" cy="-180" rx="35.194" ry="18"/>
<text text-anchor="middle" x="403.724" y="-176.3" font-family="Times,serif" font-size="14.00" fill="#2c94b3">AS209</text>
</a>
</g>
</g>
<!-- AS174&#45;&gt;AS209 -->
<g id="edge15" class="edge"><title>AS174&#45;&gt;AS209</title>
<path fill="none" stroke="black" d="M320.688,-160.449C333.319,-163.459 348.073,-166.976 361.559,-170.19"/>
<polygon fill="black" stroke="black" points="361.029,-173.661 371.568,-172.575 362.652,-166.852 361.029,-173.661"/>
</g>
<!-- AS6453 -->
<g id="node17" class="node"><title>AS6453</title>
<g id="a_node17"><a xlink:href="/asn/6453" xlink:title="AS6453 ~ TATA COMMUNICATIONS (AMERICA) INC [US]">
<ellipse fill="#ffffff" stroke="black" cx="403.724" cy="-18" rx="39.7935" ry="18"/>
<text text-anchor="middle" x="403.724" y="-14.3" font-family="Times,serif" font-size="14.00" fill="#2c94b3">AS6453</text>
</a>
</g>
</g>
<!-- AS3356&#45;&gt;AS6453 -->
<g id="edge16" class="edge"><title>AS3356&#45;&gt;AS6453</title>
<path fill="none" stroke="black" d="M324.038,-36.7524C334.909,-34.1616 347.064,-31.2649 358.506,-28.5379"/>
<polygon fill="black" stroke="black" points="359.412,-31.9201 368.328,-26.1971 357.789,-25.1108 359.412,-31.9201"/>
</g>
<!-- AS2914&#45;&gt;AS2497 -->
<g id="edge17" class="edge"><title>AS2914&#45;&gt;AS2497</title>
<path fill="none" stroke="black" d="M324.656,-379.462C335.1,-381.675 346.683,-384.128 357.66,-386.454"/>
<polygon fill="black" stroke="black" points="357.012,-389.894 367.52,-388.542 358.462,-383.046 357.012,-389.894"/>
</g>
<!-- AS6939&#45;&gt;AS2497 -->
<g id="edge18" class="edge"><title>AS6939&#45;&gt;AS2497</title>
<path fill="none" stroke="black" d="M303.714,-307.756C318.134,-324.214 341.449,-349.606 364.077,-369 366.563,-371.131 369.216,-373.254 371.922,-375.322"/>
<polygon fill="black" stroke="black" points="369.955,-378.219 380.09,-381.304 374.091,-372.572 369.955,-378.219"/>
</g>
<!-- AS3491 -->
<g id="node18" class="node"><title>AS3491</title>
<g id="a_node18"><a xlink:href="/asn/3491" xlink:title="AS3491 ~ PCCW Global, Inc. [US]">
<ellipse fill="#ffffff" stroke="black" cx="403.724" cy="-288" rx="39.7935" ry="18"/>
<text text-anchor="middle" x="403.724" y="-284.3" font-family="Times,serif" font-size="14.00" fill="#2c94b3">AS3491</text>
</a>
</g>
</g>
<!-- AS6939&#45;&gt;AS3491 -->
<g id="edge19" class="edge"><title>AS6939&#45;&gt;AS3491</title>
<path fill="none" stroke="black" d="M328.103,-289.976C336.306,-289.759 345.07,-289.527 353.602,-289.301"/>
<polygon fill="black" stroke="black" points="353.937,-292.793 363.841,-289.03 353.752,-285.796 353.937,-292.793"/>
</g>
<!-- AS1273 -->
<g id="node19" class="node"><title>AS1273</title>
<g id="a_node19"><a xlink:href="/asn/1273" xlink:title="AS1273 ~ Vodafone Group PLC [EU]">
<ellipse fill="#ffffff" stroke="black" cx="403.724" cy="-342" rx="39.7935" ry="18"/>
<text text-anchor="middle" x="403.724" y="-338.3" font-family="Times,serif" font-size="14.00" fill="#2c94b3">AS1273</text>
</a>
</g>
</g>
<!-- AS6939&#45;&gt;AS1273 -->
<g id="edge20" class="edge"><title>AS6939&#45;&gt;AS1273</title>
<path fill="none" stroke="black" d="M317.145,-303.476C331.684,-310.021 349.699,-318.13 365.444,-325.218"/>
<polygon fill="black" stroke="black" points="364.347,-328.563 374.903,-329.476 367.221,-322.18 364.347,-328.563"/>
</g>
<!-- AS1299 -->
<g id="node20" class="node"><title>AS1299</title>
<g id="a_node20"><a xlink:href="/asn/1299" xlink:title="AS1299 ~ Telia Carrier [EU]">
<ellipse fill="#ffffff" stroke="black" cx="403.724" cy="-234" rx="39.7935" ry="18"/>
<text text-anchor="middle" x="403.724" y="-230.3" font-family="Times,serif" font-size="14.00" fill="#2c94b3">AS1299</text>
</a>
</g>
</g>
<!-- AS1764&#45;&gt;AS1299 -->
<g id="edge21" class="edge"><title>AS1764&#45;&gt;AS1299</title>
<path fill="none" stroke="black" d="M328.103,-235.976C336.306,-235.759 345.07,-235.527 353.602,-235.301"/>
<polygon fill="black" stroke="black" points="353.937,-238.793 363.841,-235.03 353.752,-231.796 353.937,-238.793"/>
</g>
</g>
</svg>
