<?xml version="1.0" encoding="UTF-8" standalone="no"?>
<!DOCTYPE svg PUBLIC "-//W3C//DTD SVG 1.1//EN"
 "http://www.w3.org/Graphics/SVG/1.1/DTD/svg11.dtd">
<!-- Generated by graphviz version 2.38.0 (20140413.2041)
 -->
<!-- Title: AS49322 IPv4 Upstream Graph Pages: 1 -->
<svg width="451pt" height="622pt"
 viewBox="0.00 0.00 451.37 622.00" xmlns="http://www.w3.org/2000/svg" xmlns:xlink="http://www.w3.org/1999/xlink">
<g id="graph0" class="graph" transform="scale(1 1) rotate(0) translate(4 618)">
<title>AS49322 IPv4 Upstream Graph</title>
<polygon fill="white" stroke="none" points="-4,4 -4,-618 447.37,-618 447.37,4 -4,4"/>
<!-- AS49322 -->
<g id="node1" class="node"><title>AS49322</title>
<g id="a_node1"><a xlink:href="/asn/49322" xlink:title="AS49322 ~ ViM Internetdienstleistungen GmbH [AT]">
<ellipse fill="#ffffff" stroke="black" cx="44.1961" cy="-203" rx="44.393" ry="18"/>
<text text-anchor="middle" x="44.1961" y="-199.3" font-family="Times,serif" font-size="14.00" fill="#880000">AS49322</text>
</a>
</g>
</g>
<!-- AS8220 -->
<g id="node2" class="node"><title>AS8220</title>
<g id="a_node2"><a xlink:href="/asn/8220" xlink:title="AS8220 ~ COLT [GB]">
<ellipse fill="#ffffff" stroke="black" cx="164.039" cy="-203" rx="39.7935" ry="18"/>
<text text-anchor="middle" x="164.039" y="-199.3" font-family="Times,serif" font-size="14.00" fill="#2c94b3">AS8220</text>
</a>
</g>
</g>
<!-- AS49322&#45;&gt;AS8220 -->
<g id="edge1" class="edge"><title>AS49322&#45;&gt;AS8220</title>
<path fill="none" stroke="black" stroke-width="4.5" d="M88.4072,-203C96.7198,-203 105.482,-203 113.965,-203"/>
<polygon fill="black" stroke="black" stroke-width="4.5" points="114.123,-206.938 124.123,-203 114.123,-199.063 114.123,-206.938"/>
</g>
<!-- AS2914 -->
<g id="node3" class="node"><title>AS2914</title>
<g id="a_node3"><a xlink:href="/asn/2914" xlink:title="AS2914 ~ NTT America, Inc. [US]">
<ellipse fill="#ffffff" stroke="black" cx="399.174" cy="-218" rx="39.7935" ry="18"/>
<text text-anchor="middle" x="399.174" y="-214.3" font-family="Times,serif" font-size="14.00" fill="#2c94b3">AS2914</text>
</a>
</g>
</g>
<!-- AS8220&#45;&gt;AS2914 -->
<g id="edge2" class="edge"><title>AS8220&#45;&gt;AS2914</title>
<path fill="none" stroke="black" stroke-width="0.642857" d="M203.536,-205.477C243.527,-208.05 306.204,-212.083 349.581,-214.873"/>
<polygon fill="black" stroke="black" stroke-width="0.642857" points="349.415,-218.37 359.619,-215.519 349.865,-211.384 349.415,-218.37"/>
</g>
<!-- AS5511 -->
<g id="node4" class="node"><title>AS5511</title>
<g id="a_node4"><a xlink:href="/asn/5511" xlink:title="AS5511 ~ Orange S.A. [FR]">
<ellipse fill="#ffffff" stroke="black" cx="279.332" cy="-326" rx="39.7935" ry="18"/>
<text text-anchor="middle" x="279.332" y="-322.3" font-family="Times,serif" font-size="14.00" fill="#2c94b3">AS5511</text>
</a>
</g>
</g>
<!-- AS8220&#45;&gt;AS5511 -->
<g id="edge3" class="edge"><title>AS8220&#45;&gt;AS5511</title>
<path fill="none" stroke="black" stroke-width="1.28571" d="M176.081,-220.211C189.573,-240.458 213.82,-274.423 239.685,-299 241.855,-301.061 244.193,-303.085 246.607,-305.039"/>
<polygon fill="black" stroke="black" stroke-width="1.28571" points="244.888,-308.127 254.974,-311.37 249.112,-302.545 244.888,-308.127"/>
</g>
<!-- AS3356 -->
<g id="node5" class="node"><title>AS3356</title>
<g id="a_node5"><a xlink:href="/asn/3356" xlink:title="AS3356 ~ Level 3 Parent, LLC [US]">
<ellipse fill="#ffffff" stroke="black" cx="279.332" cy="-434" rx="39.7935" ry="18"/>
<text text-anchor="middle" x="279.332" y="-430.3" font-family="Times,serif" font-size="14.00" fill="#2c94b3">AS3356</text>
</a>
</g>
</g>
<!-- AS8220&#45;&gt;AS3356 -->
<g id="edge4" class="edge"><title>AS8220&#45;&gt;AS3356</title>
<path fill="none" stroke="black" stroke-width="4.5" d="M173.74,-220.743C193.518,-261.069 241.938,-359.794 265.301,-407.431"/>
<polygon fill="black" stroke="black" stroke-width="4.5" points="261.817,-409.269 269.755,-416.513 268.887,-405.801 261.817,-409.269"/>
</g>
<!-- AS1299 -->
<g id="node6" class="node"><title>AS1299</title>
<g id="a_node6"><a xlink:href="/asn/1299" xlink:title="AS1299 ~ Telia Carrier [EU]">
<ellipse fill="#ffffff" stroke="black" cx="279.332" cy="-272" rx="39.7935" ry="18"/>
<text text-anchor="middle" x="279.332" y="-268.3" font-family="Times,serif" font-size="14.00" fill="#2c94b3">AS1299</text>
</a>
</g>
</g>
<!-- AS8220&#45;&gt;AS1299 -->
<g id="edge5" class="edge"><title>AS8220&#45;&gt;AS1299</title>
<path fill="none" stroke="black" stroke-width="4.5" d="M188.513,-217.297C205.223,-227.474 227.878,-241.272 246.255,-252.464"/>
<polygon fill="black" stroke="black" stroke-width="4.5" points="244.298,-255.883 254.887,-257.721 248.395,-249.157 244.298,-255.883"/>
</g>
<!-- AS6453 -->
<g id="node7" class="node"><title>AS6453</title>
<g id="a_node7"><a xlink:href="/asn/6453" xlink:title="AS6453 ~ TATA COMMUNICATIONS (AMERICA) INC [US]">
<ellipse fill="#ffffff" stroke="black" cx="279.332" cy="-180" rx="39.7935" ry="18"/>
<text text-anchor="middle" x="279.332" y="-176.3" font-family="Times,serif" font-size="14.00" fill="#2c94b3">AS6453</text>
</a>
</g>
</g>
<!-- AS8220&#45;&gt;AS6453 -->
<g id="edge6" class="edge"><title>AS8220&#45;&gt;AS6453</title>
<path fill="none" stroke="black" stroke-width="0.642857" d="M200.574,-195.786C210.803,-193.709 222.104,-191.415 232.846,-189.234"/>
<polygon fill="black" stroke="black" stroke-width="0.642857" points="233.818,-192.608 242.922,-187.189 232.425,-185.748 233.818,-192.608"/>
</g>
<!-- AS2497 -->
<g id="node8" class="node"><title>AS2497</title>
<g id="a_node8"><a xlink:href="/asn/2497" xlink:title="AS2497 ~ Internet Initiative Japan Inc. [JP]">
<ellipse fill="#ffffff" stroke="black" cx="279.332" cy="-126" rx="39.7935" ry="18"/>
<text text-anchor="middle" x="279.332" y="-122.3" font-family="Times,serif" font-size="14.00" fill="#2c94b3">AS2497</text>
</a>
</g>
</g>
<!-- AS8220&#45;&gt;AS2497 -->
<g id="edge7" class="edge"><title>AS8220&#45;&gt;AS2497</title>
<path fill="none" stroke="black" stroke-width="0.642857" d="M186.883,-188.154C204.28,-176.33 228.827,-159.646 248.11,-146.54"/>
<polygon fill="black" stroke="black" stroke-width="0.642857" points="250.251,-149.317 256.555,-140.801 246.317,-143.527 250.251,-149.317"/>
</g>
<!-- AS6461 -->
<g id="node9" class="node"><title>AS6461</title>
<g id="a_node9"><a xlink:href="/asn/6461" xlink:title="AS6461 ~ Zayo Bandwidth [US]">
<ellipse fill="#ffffff" stroke="black" cx="279.332" cy="-72" rx="39.7935" ry="18"/>
<text text-anchor="middle" x="279.332" y="-68.3" font-family="Times,serif" font-size="14.00" fill="#2c94b3">AS6461</text>
</a>
</g>
</g>
<!-- AS8220&#45;&gt;AS6461 -->
<g id="edge8" class="edge"><title>AS8220&#45;&gt;AS6461</title>
<path fill="none" stroke="black" stroke-width="0.642857" d="M175.089,-185.431C188.137,-163.573 212.483,-125.858 239.685,-99 241.815,-96.8975 244.124,-94.8448 246.519,-92.8705"/>
<polygon fill="black" stroke="black" stroke-width="0.642857" points="249.031,-95.3556 254.851,-86.5023 244.78,-89.794 249.031,-95.3556"/>
</g>
<!-- AS3320 -->
<g id="node10" class="node"><title>AS3320</title>
<g id="a_node10"><a xlink:href="/asn/3320" xlink:title="AS3320 ~ DTAG [DE]">
<ellipse fill="#ffffff" stroke="black" cx="279.332" cy="-18" rx="39.7935" ry="18"/>
<text text-anchor="middle" x="279.332" y="-14.3" font-family="Times,serif" font-size="14.00" fill="#2c94b3">AS3320</text>
</a>
</g>
</g>
<!-- AS8220&#45;&gt;AS3320 -->
<g id="edge9" class="edge"><title>AS8220&#45;&gt;AS3320</title>
<path fill="none" stroke="black" stroke-width="0.642857" d="M170.1,-185.2C179.636,-154.052 202.695,-88.8115 239.685,-45 241.566,-42.7721 243.672,-40.6414 245.904,-38.6239"/>
<polygon fill="black" stroke="black" stroke-width="0.642857" points="248.249,-41.2288 253.833,-32.2247 243.853,-35.7816 248.249,-41.2288"/>
</g>
<!-- AS1239 -->
<g id="node17" class="node"><title>AS1239</title>
<g id="a_node17"><a xlink:href="/asn/1239" xlink:title="AS1239 ~ Sprint [US]">
<ellipse fill="#ffffff" stroke="black" cx="399.174" cy="-326" rx="39.7935" ry="18"/>
<text text-anchor="middle" x="399.174" y="-322.3" font-family="Times,serif" font-size="14.00" fill="#2c94b3">AS1239</text>
</a>
</g>
</g>
<!-- AS5511&#45;&gt;AS1239 -->
<g id="edge22" class="edge"><title>AS5511&#45;&gt;AS1239</title>
<path fill="none" stroke="black" d="M319.244,-326C328.798,-326 339.147,-326 349.11,-326"/>
<polygon fill="black" stroke="black" points="349.302,-329.5 359.302,-326 349.302,-322.5 349.302,-329.5"/>
</g>
<!-- AS3356&#45;&gt;AS2914 -->
<g id="edge12" class="edge"><title>AS3356&#45;&gt;AS2914</title>
<path fill="none" stroke="black" d="M289.412,-416.583C297.681,-400.366 309.942,-375.397 318.978,-353 337.908,-306.078 323.679,-284.754 354.978,-245 357.303,-242.047 360.047,-239.33 363.006,-236.853"/>
<polygon fill="black" stroke="black" points="365.199,-239.585 371.203,-230.855 361.065,-233.936 365.199,-239.585"/>
</g>
<!-- AS6762 -->
<g id="node11" class="node"><title>AS6762</title>
<g id="a_node11"><a xlink:href="/asn/6762" xlink:title="AS6762 ~ TELECOM ITALIA SPARKLE S.p.A. [IT]">
<ellipse fill="#ffffff" stroke="black" cx="399.174" cy="-434" rx="39.7935" ry="18"/>
<text text-anchor="middle" x="399.174" y="-430.3" font-family="Times,serif" font-size="14.00" fill="#2c94b3">AS6762</text>
</a>
</g>
</g>
<!-- AS3356&#45;&gt;AS6762 -->
<g id="edge10" class="edge"><title>AS3356&#45;&gt;AS6762</title>
<path fill="none" stroke="black" d="M319.244,-434C328.798,-434 339.147,-434 349.11,-434"/>
<polygon fill="black" stroke="black" points="349.302,-437.5 359.302,-434 349.302,-430.5 349.302,-437.5"/>
</g>
<!-- AS12956 -->
<g id="node12" class="node"><title>AS12956</title>
<g id="a_node12"><a xlink:href="/asn/12956" xlink:title="AS12956 ~ TELXIUS [ES]">
<ellipse fill="#ffffff" stroke="black" cx="399.174" cy="-596" rx="44.393" ry="18"/>
<text text-anchor="middle" x="399.174" y="-592.3" font-family="Times,serif" font-size="14.00" fill="#2c94b3">AS12956</text>
</a>
</g>
</g>
<!-- AS3356&#45;&gt;AS12956 -->
<g id="edge11" class="edge"><title>AS3356&#45;&gt;AS12956</title>
<path fill="none" stroke="black" d="M286.855,-451.994C297.605,-479.728 321.262,-533.429 354.978,-569 357.362,-571.515 360.029,-573.893 362.835,-576.117"/>
<polygon fill="black" stroke="black" points="360.828,-578.985 370.997,-581.961 364.904,-573.293 360.828,-578.985"/>
</g>
<!-- AS3549 -->
<g id="node13" class="node"><title>AS3549</title>
<g id="a_node13"><a xlink:href="/asn/3549" xlink:title="AS3549 ~ Level 3 Parent, LLC [US]">
<ellipse fill="#ffffff" stroke="black" cx="399.174" cy="-542" rx="39.7935" ry="18"/>
<text text-anchor="middle" x="399.174" y="-538.3" font-family="Times,serif" font-size="14.00" fill="#2c94b3">AS3549</text>
</a>
</g>
</g>
<!-- AS3356&#45;&gt;AS3549 -->
<g id="edge13" class="edge"><title>AS3356&#45;&gt;AS3549</title>
<path fill="none" stroke="black" d="M293.751,-451.065C307.865,-468.375 331.28,-495.345 354.978,-515 358.194,-517.668 361.695,-520.27 365.265,-522.741"/>
<polygon fill="black" stroke="black" points="363.343,-525.666 373.622,-528.236 367.189,-519.817 363.343,-525.666"/>
</g>
<!-- AS701 -->
<g id="node14" class="node"><title>AS701</title>
<g id="a_node14"><a xlink:href="/asn/701" xlink:title="AS701 ~ UUNET [US]">
<ellipse fill="#ffffff" stroke="black" cx="399.174" cy="-488" rx="35.194" ry="18"/>
<text text-anchor="middle" x="399.174" y="-484.3" font-family="Times,serif" font-size="14.00" fill="#2c94b3">AS701</text>
</a>
</g>
</g>
<!-- AS3356&#45;&gt;AS701 -->
<g id="edge14" class="edge"><title>AS3356&#45;&gt;AS701</title>
<path fill="none" stroke="black" d="M307.96,-446.661C324.377,-454.183 345.358,-463.798 362.955,-471.861"/>
<polygon fill="black" stroke="black" points="361.783,-475.174 372.332,-476.158 364.7,-468.811 361.783,-475.174"/>
</g>
<!-- AS3257 -->
<g id="node15" class="node"><title>AS3257</title>
<g id="a_node15"><a xlink:href="/asn/3257" xlink:title="AS3257 ~ GTT [DE]">
<ellipse fill="#ffffff" stroke="black" cx="399.174" cy="-380" rx="39.7935" ry="18"/>
<text text-anchor="middle" x="399.174" y="-376.3" font-family="Times,serif" font-size="14.00" fill="#2c94b3">AS3257</text>
</a>
</g>
</g>
<!-- AS3356&#45;&gt;AS3257 -->
<g id="edge15" class="edge"><title>AS3356&#45;&gt;AS3257</title>
<path fill="none" stroke="black" d="M307.96,-421.339C323.917,-414.027 344.188,-404.739 361.471,-396.819"/>
<polygon fill="black" stroke="black" points="363.085,-399.929 370.718,-392.581 360.169,-393.565 363.085,-399.929"/>
</g>
<!-- AS1299&#45;&gt;AS2914 -->
<g id="edge18" class="edge"><title>AS1299&#45;&gt;AS2914</title>
<path fill="none" stroke="black" d="M307.96,-259.339C323.917,-252.027 344.188,-242.739 361.471,-234.819"/>
<polygon fill="black" stroke="black" points="363.085,-237.929 370.718,-230.581 360.169,-231.565 363.085,-237.929"/>
</g>
<!-- AS1299&#45;&gt;AS6762 -->
<g id="edge17" class="edge"><title>AS1299&#45;&gt;AS6762</title>
<path fill="none" stroke="black" d="M305.262,-285.882C310.338,-289.611 315.256,-294.016 318.978,-299 349.249,-339.542 323.679,-367.246 354.978,-407 357.303,-409.953 360.047,-412.67 363.006,-415.147"/>
<polygon fill="black" stroke="black" points="361.065,-418.064 371.203,-421.145 365.199,-412.415 361.065,-418.064"/>
</g>
<!-- AS1299&#45;&gt;AS3257 -->
<g id="edge16" class="edge"><title>AS1299&#45;&gt;AS3257</title>
<path fill="none" stroke="black" d="M303.926,-286.389C309.182,-290.148 314.513,-294.437 318.978,-299 339.151,-319.617 334.285,-332.906 354.978,-353 357.823,-355.763 360.997,-358.386 364.297,-360.834"/>
<polygon fill="black" stroke="black" points="362.414,-363.786 372.645,-366.538 366.363,-358.006 362.414,-363.786"/>
</g>
<!-- AS174 -->
<g id="node16" class="node"><title>AS174</title>
<g id="a_node16"><a xlink:href="/asn/174" xlink:title="AS174 ~ Cogent Communications [US]">
<ellipse fill="#ffffff" stroke="black" cx="399.174" cy="-164" rx="35.194" ry="18"/>
<text text-anchor="middle" x="399.174" y="-160.3" font-family="Times,serif" font-size="14.00" fill="#2c94b3">AS174</text>
</a>
</g>
</g>
<!-- AS1299&#45;&gt;AS174 -->
<g id="edge19" class="edge"><title>AS1299&#45;&gt;AS174</title>
<path fill="none" stroke="black" d="M293.751,-254.935C307.865,-237.625 331.28,-210.655 354.978,-191 358.441,-188.128 362.234,-185.331 366.088,-182.692"/>
<polygon fill="black" stroke="black" points="368.05,-185.592 374.521,-177.203 364.231,-179.725 368.05,-185.592"/>
</g>
<!-- AS1299&#45;&gt;AS1239 -->
<g id="edge20" class="edge"><title>AS1299&#45;&gt;AS1239</title>
<path fill="none" stroke="black" d="M307.96,-284.661C323.917,-291.973 344.188,-301.261 361.471,-309.181"/>
<polygon fill="black" stroke="black" points="360.169,-312.435 370.718,-313.419 363.085,-306.071 360.169,-312.435"/>
</g>
<!-- AS7018 -->
<g id="node18" class="node"><title>AS7018</title>
<g id="a_node18"><a xlink:href="/asn/7018" xlink:title="AS7018 ~ AT&amp;T Services, Inc. [US]">
<ellipse fill="#ffffff" stroke="black" cx="399.174" cy="-272" rx="39.7935" ry="18"/>
<text text-anchor="middle" x="399.174" y="-268.3" font-family="Times,serif" font-size="14.00" fill="#2c94b3">AS7018</text>
</a>
</g>
</g>
<!-- AS1299&#45;&gt;AS7018 -->
<g id="edge21" class="edge"><title>AS1299&#45;&gt;AS7018</title>
<path fill="none" stroke="black" d="M319.244,-272C328.798,-272 339.147,-272 349.11,-272"/>
<polygon fill="black" stroke="black" points="349.302,-275.5 359.302,-272 349.302,-268.5 349.302,-275.5"/>
</g>
</g>
</svg>
