<?xml version="1.0" encoding="UTF-8" standalone="no"?>
<!DOCTYPE svg PUBLIC "-//W3C//DTD SVG 1.1//EN"
 "http://www.w3.org/Graphics/SVG/1.1/DTD/svg11.dtd">
<!-- Generated by graphviz version 2.38.0 (20140413.2041)
 -->
<!-- Title: AS208323 IPv6 Upstream Graph Pages: 1 -->
<svg width="459pt" height="476pt"
 viewBox="0.00 0.00 459.17 476.00" xmlns="http://www.w3.org/2000/svg" xmlns:xlink="http://www.w3.org/1999/xlink">
<g id="graph0" class="graph" transform="scale(1 1) rotate(0) translate(4 472)">
<title>AS208323 IPv6 Upstream Graph</title>
<polygon fill="white" stroke="none" points="-4,4 -4,-472 455.17,-472 455.17,4 -4,4"/>
<!-- AS208323 -->
<g id="node1" class="node"><title>AS208323</title>
<g id="a_node1"><a xlink:href="/asn/208323" xlink:title="AS208323 ~ ZVR: 1254016365 [AT]">
<ellipse fill="#ffffff" stroke="black" cx="48.0957" cy="-274" rx="48.1917" ry="18"/>
<text text-anchor="middle" x="48.0957" y="-270.3" font-family="Times,serif" font-size="14.00" fill="#880000">AS208323</text>
</a>
</g>
</g>
<!-- AS1764 -->
<g id="node2" class="node"><title>AS1764</title>
<g id="a_node2"><a xlink:href="/asn/1764" xlink:title="AS1764 ~ NEXTLAYER&#45;AS [AT]">
<ellipse fill="#ffffff" stroke="black" cx="176.388" cy="-153" rx="39.7935" ry="18"/>
<text text-anchor="middle" x="176.388" y="-149.3" font-family="Times,serif" font-size="14.00" fill="#2c94b3">AS1764</text>
</a>
</g>
</g>
<!-- AS208323&#45;&gt;AS1764 -->
<g id="edge1" class="edge"><title>AS208323&#45;&gt;AS1764</title>
<path fill="none" stroke="black" stroke-width="4.5" d="M66.6561,-257.175C88.6453,-236.108 126.426,-199.91 151.156,-176.216"/>
<polygon fill="black" stroke="black" stroke-width="4.5" points="153.883,-179.056 158.38,-169.295 148.435,-173.37 153.883,-179.056"/>
</g>
<!-- AS47147 -->
<g id="node3" class="node"><title>AS47147</title>
<g id="a_node3"><a xlink:href="/asn/47147" xlink:title="AS47147 ~ ANEXIA Internetdienstleistungs GmbH [AT]">
<ellipse fill="#ffffff" stroke="black" cx="176.388" cy="-369" rx="44.393" ry="18"/>
<text text-anchor="middle" x="176.388" y="-365.3" font-family="Times,serif" font-size="14.00" fill="#2c94b3">AS47147</text>
</a>
</g>
</g>
<!-- AS208323&#45;&gt;AS47147 -->
<g id="edge2" class="edge"><title>AS208323&#45;&gt;AS47147</title>
<path fill="none" stroke="black" stroke-width="2.7" d="M70.5194,-290.115C91.3282,-305.768 123.078,-329.652 146.192,-347.038"/>
<polygon fill="black" stroke="black" stroke-width="2.7" points="144.185,-349.908 154.28,-353.123 148.393,-344.314 144.185,-349.908"/>
</g>
<!-- AS6939 -->
<g id="node4" class="node"><title>AS6939</title>
<g id="a_node4"><a xlink:href="/asn/6939" xlink:title="AS6939 ~ Hurricane Electric LLC [US]">
<ellipse fill="#ffffff" stroke="black" cx="296.23" cy="-180" rx="39.7935" ry="18"/>
<text text-anchor="middle" x="296.23" y="-176.3" font-family="Times,serif" font-size="14.00" fill="#2c94b3">AS6939</text>
</a>
</g>
</g>
<!-- AS1764&#45;&gt;AS6939 -->
<g id="edge3" class="edge"><title>AS1764&#45;&gt;AS6939</title>
<path fill="none" stroke="black" stroke-width="4" d="M212.107,-160.955C224.107,-163.704 237.728,-166.825 250.42,-169.733"/>
<polygon fill="black" stroke="black" stroke-width="4" points="249.823,-173.187 260.352,-172.009 251.386,-166.364 249.823,-173.187"/>
</g>
<!-- AS3356 -->
<g id="node5" class="node"><title>AS3356</title>
<g id="a_node5"><a xlink:href="/asn/3356" xlink:title="AS3356 ~ Level 3 Parent, LLC [US]">
<ellipse fill="#ffffff" stroke="black" cx="296.23" cy="-72" rx="39.7935" ry="18"/>
<text text-anchor="middle" x="296.23" y="-68.3" font-family="Times,serif" font-size="14.00" fill="#2c94b3">AS3356</text>
</a>
</g>
</g>
<!-- AS1764&#45;&gt;AS3356 -->
<g id="edge4" class="edge"><title>AS1764&#45;&gt;AS3356</title>
<path fill="none" stroke="black" stroke-width="2" d="M199.002,-138.143C217.49,-125.435 244.304,-107.005 264.934,-92.8246"/>
<polygon fill="black" stroke="black" stroke-width="2" points="267.096,-95.5856 273.354,-87.0368 263.13,-89.817 267.096,-95.5856"/>
</g>
<!-- AS3257 -->
<g id="node6" class="node"><title>AS3257</title>
<g id="a_node6"><a xlink:href="/asn/3257" xlink:title="AS3257 ~ GTT [DE]">
<ellipse fill="#ffffff" stroke="black" cx="296.23" cy="-126" rx="39.7935" ry="18"/>
<text text-anchor="middle" x="296.23" y="-122.3" font-family="Times,serif" font-size="14.00" fill="#2c94b3">AS3257</text>
</a>
</g>
</g>
<!-- AS1764&#45;&gt;AS3257 -->
<g id="edge5" class="edge"><title>AS1764&#45;&gt;AS3257</title>
<path fill="none" stroke="black" stroke-width="2" d="M212.107,-145.045C224.107,-142.296 237.728,-139.175 250.42,-136.267"/>
<polygon fill="black" stroke="black" stroke-width="2" points="251.386,-139.636 260.352,-133.991 249.823,-132.813 251.386,-139.636"/>
</g>
<!-- AS8218 -->
<g id="node7" class="node"><title>AS8218</title>
<g id="a_node7"><a xlink:href="/asn/8218" xlink:title="AS8218 ~ legacy Neotelecoms [FR]">
<ellipse fill="#ffffff" stroke="black" cx="296.23" cy="-18" rx="39.7935" ry="18"/>
<text text-anchor="middle" x="296.23" y="-14.3" font-family="Times,serif" font-size="14.00" fill="#2c94b3">AS8218</text>
</a>
</g>
</g>
<!-- AS1764&#45;&gt;AS8218 -->
<g id="edge6" class="edge"><title>AS1764&#45;&gt;AS8218</title>
<path fill="none" stroke="black" d="M187.653,-135.56C201.462,-113.009 227.651,-73.2776 256.584,-45 258.724,-42.9083 261.041,-40.8634 263.441,-38.8945"/>
<polygon fill="black" stroke="black" points="265.951,-41.3818 271.782,-32.5359 261.708,-35.8147 265.951,-41.3818"/>
</g>
<!-- AS174 -->
<g id="node8" class="node"><title>AS174</title>
<g id="a_node8"><a xlink:href="/asn/174" xlink:title="AS174 ~ Cogent Communications [US]">
<ellipse fill="#ffffff" stroke="black" cx="296.23" cy="-234" rx="35.194" ry="18"/>
<text text-anchor="middle" x="296.23" y="-230.3" font-family="Times,serif" font-size="14.00" fill="#2c94b3">AS174</text>
</a>
</g>
</g>
<!-- AS1764&#45;&gt;AS174 -->
<g id="edge7" class="edge"><title>AS1764&#45;&gt;AS174</title>
<path fill="none" stroke="black" d="M199.002,-167.857C217.839,-180.805 245.319,-199.693 266.095,-213.973"/>
<polygon fill="black" stroke="black" points="264.32,-217.001 274.543,-219.781 268.285,-211.232 264.32,-217.001"/>
</g>
<!-- AS3320 -->
<g id="node15" class="node"><title>AS3320</title>
<g id="a_node15"><a xlink:href="/asn/3320" xlink:title="AS3320 ~ DTAG [DE]">
<ellipse fill="#ffffff" stroke="black" cx="296.23" cy="-396" rx="39.7935" ry="18"/>
<text text-anchor="middle" x="296.23" y="-392.3" font-family="Times,serif" font-size="14.00" fill="#2c94b3">AS3320</text>
</a>
</g>
</g>
<!-- AS47147&#45;&gt;AS3320 -->
<g id="edge15" class="edge"><title>AS47147&#45;&gt;AS3320</title>
<path fill="none" stroke="black" stroke-width="3" d="M215.322,-377.692C226.563,-380.267 238.976,-383.111 250.599,-385.774"/>
<polygon fill="black" stroke="black" stroke-width="3" points="250.031,-389.235 260.56,-388.057 251.595,-382.412 250.031,-389.235"/>
</g>
<!-- AS1299 -->
<g id="node16" class="node"><title>AS1299</title>
<g id="a_node16"><a xlink:href="/asn/1299" xlink:title="AS1299 ~ Telia Carrier [EU]">
<ellipse fill="#ffffff" stroke="black" cx="296.23" cy="-342" rx="39.7935" ry="18"/>
<text text-anchor="middle" x="296.23" y="-338.3" font-family="Times,serif" font-size="14.00" fill="#2c94b3">AS1299</text>
</a>
</g>
</g>
<!-- AS47147&#45;&gt;AS1299 -->
<g id="edge16" class="edge"><title>AS47147&#45;&gt;AS1299</title>
<path fill="none" stroke="black" stroke-width="2" d="M215.322,-360.308C226.563,-357.733 238.976,-354.889 250.599,-352.226"/>
<polygon fill="black" stroke="black" stroke-width="2" points="251.595,-355.588 260.56,-349.943 250.031,-348.765 251.595,-355.588"/>
</g>
<!-- AS2914 -->
<g id="node17" class="node"><title>AS2914</title>
<g id="a_node17"><a xlink:href="/asn/2914" xlink:title="AS2914 ~ NTT America, Inc. [US]">
<ellipse fill="#ffffff" stroke="black" cx="296.23" cy="-450" rx="39.7935" ry="18"/>
<text text-anchor="middle" x="296.23" y="-446.3" font-family="Times,serif" font-size="14.00" fill="#2c94b3">AS2914</text>
</a>
</g>
</g>
<!-- AS47147&#45;&gt;AS2914 -->
<g id="edge17" class="edge"><title>AS47147&#45;&gt;AS2914</title>
<path fill="none" stroke="black" d="M199.83,-384.426C218.412,-397.198 244.972,-415.455 265.352,-429.463"/>
<polygon fill="black" stroke="black" points="263.443,-432.398 273.666,-435.178 267.408,-426.629 263.443,-432.398"/>
</g>
<!-- AS6762 -->
<g id="node9" class="node"><title>AS6762</title>
<g id="a_node9"><a xlink:href="/asn/6762" xlink:title="AS6762 ~ TELECOM ITALIA SPARKLE S.p.A. [IT]">
<ellipse fill="#ffffff" stroke="black" cx="411.523" cy="-288" rx="39.7935" ry="18"/>
<text text-anchor="middle" x="411.523" y="-284.3" font-family="Times,serif" font-size="14.00" fill="#2c94b3">AS6762</text>
</a>
</g>
</g>
<!-- AS6939&#45;&gt;AS6762 -->
<g id="edge8" class="edge"><title>AS6939&#45;&gt;AS6762</title>
<path fill="none" stroke="black" d="M320.824,-194.389C326.08,-198.148 331.412,-202.437 335.877,-207 356.049,-227.617 351.704,-240.383 371.877,-261 373.969,-263.139 376.253,-265.218 378.63,-267.21"/>
<polygon fill="black" stroke="black" points="376.873,-270.275 386.929,-273.611 381.148,-264.732 376.873,-270.275"/>
</g>
<!-- AS1273 -->
<g id="node10" class="node"><title>AS1273</title>
<g id="a_node10"><a xlink:href="/asn/1273" xlink:title="AS1273 ~ Vodafone Group PLC [EU]">
<ellipse fill="#ffffff" stroke="black" cx="411.523" cy="-234" rx="39.7935" ry="18"/>
<text text-anchor="middle" x="411.523" y="-230.3" font-family="Times,serif" font-size="14.00" fill="#2c94b3">AS1273</text>
</a>
</g>
</g>
<!-- AS6939&#45;&gt;AS1273 -->
<g id="edge9" class="edge"><title>AS6939&#45;&gt;AS1273</title>
<path fill="none" stroke="black" d="M324.367,-192.934C339.361,-200.081 358.182,-209.052 374.405,-216.785"/>
<polygon fill="black" stroke="black" points="373.075,-220.028 383.608,-221.171 376.087,-213.709 373.075,-220.028"/>
</g>
<!-- AS3491 -->
<g id="node11" class="node"><title>AS3491</title>
<g id="a_node11"><a xlink:href="/asn/3491" xlink:title="AS3491 ~ PCCW Global, Inc. [US]">
<ellipse fill="#ffffff" stroke="black" cx="411.523" cy="-180" rx="39.7935" ry="18"/>
<text text-anchor="middle" x="411.523" y="-176.3" font-family="Times,serif" font-size="14.00" fill="#2c94b3">AS3491</text>
</a>
</g>
</g>
<!-- AS6939&#45;&gt;AS3491 -->
<g id="edge10" class="edge"><title>AS6939&#45;&gt;AS3491</title>
<path fill="none" stroke="black" d="M335.902,-180C344.105,-180 352.869,-180 361.401,-180"/>
<polygon fill="black" stroke="black" points="361.641,-183.5 371.641,-180 361.641,-176.5 361.641,-183.5"/>
</g>
<!-- AS2497 -->
<g id="node12" class="node"><title>AS2497</title>
<g id="a_node12"><a xlink:href="/asn/2497" xlink:title="AS2497 ~ Internet Initiative Japan Inc. [JP]">
<ellipse fill="#ffffff" stroke="black" cx="411.523" cy="-126" rx="39.7935" ry="18"/>
<text text-anchor="middle" x="411.523" y="-122.3" font-family="Times,serif" font-size="14.00" fill="#2c94b3">AS2497</text>
</a>
</g>
</g>
<!-- AS6939&#45;&gt;AS2497 -->
<g id="edge11" class="edge"><title>AS6939&#45;&gt;AS2497</title>
<path fill="none" stroke="black" d="M324.367,-167.066C339.361,-159.919 358.182,-150.948 374.405,-143.215"/>
<polygon fill="black" stroke="black" points="376.087,-146.291 383.608,-138.829 373.075,-139.972 376.087,-146.291"/>
</g>
<!-- AS209 -->
<g id="node13" class="node"><title>AS209</title>
<g id="a_node13"><a xlink:href="/asn/209" xlink:title="AS209 ~ CenturyLink Communications, LLC [US]">
<ellipse fill="#ffffff" stroke="black" cx="411.523" cy="-72" rx="35.194" ry="18"/>
<text text-anchor="middle" x="411.523" y="-68.3" font-family="Times,serif" font-size="14.00" fill="#2c94b3">AS209</text>
</a>
</g>
</g>
<!-- AS3356&#45;&gt;AS209 -->
<g id="edge12" class="edge"><title>AS3356&#45;&gt;AS209</title>
<path fill="none" stroke="black" d="M335.902,-72C345.608,-72 356.098,-72 366.061,-72"/>
<polygon fill="black" stroke="black" points="366.198,-75.5001 376.198,-72 366.198,-68.5001 366.198,-75.5001"/>
</g>
<!-- AS3257&#45;&gt;AS2497 -->
<g id="edge13" class="edge"><title>AS3257&#45;&gt;AS2497</title>
<path fill="none" stroke="black" d="M335.902,-126C344.105,-126 352.869,-126 361.401,-126"/>
<polygon fill="black" stroke="black" points="361.641,-129.5 371.641,-126 361.641,-122.5 361.641,-129.5"/>
</g>
<!-- AS6461 -->
<g id="node14" class="node"><title>AS6461</title>
<g id="a_node14"><a xlink:href="/asn/6461" xlink:title="AS6461 ~ Zayo Bandwidth [US]">
<ellipse fill="#ffffff" stroke="black" cx="411.523" cy="-18" rx="39.7935" ry="18"/>
<text text-anchor="middle" x="411.523" y="-14.3" font-family="Times,serif" font-size="14.00" fill="#2c94b3">AS6461</text>
</a>
</g>
</g>
<!-- AS8218&#45;&gt;AS6461 -->
<g id="edge14" class="edge"><title>AS8218&#45;&gt;AS6461</title>
<path fill="none" stroke="black" d="M335.902,-18C344.105,-18 352.869,-18 361.401,-18"/>
<polygon fill="black" stroke="black" points="361.641,-21.5001 371.641,-18 361.641,-14.5001 361.641,-21.5001"/>
</g>
<!-- AS3320&#45;&gt;AS6762 -->
<g id="edge18" class="edge"><title>AS3320&#45;&gt;AS6762</title>
<path fill="none" stroke="black" d="M320.824,-381.611C326.08,-377.852 331.412,-373.563 335.877,-369 356.049,-348.383 351.704,-335.617 371.877,-315 373.969,-312.861 376.253,-310.782 378.63,-308.79"/>
<polygon fill="black" stroke="black" points="381.148,-311.268 386.929,-302.389 376.873,-305.725 381.148,-311.268"/>
</g>
<!-- AS701 -->
<g id="node18" class="node"><title>AS701</title>
<g id="a_node18"><a xlink:href="/asn/701" xlink:title="AS701 ~ UUNET [US]">
<ellipse fill="#ffffff" stroke="black" cx="411.523" cy="-396" rx="35.194" ry="18"/>
<text text-anchor="middle" x="411.523" y="-392.3" font-family="Times,serif" font-size="14.00" fill="#2c94b3">AS701</text>
</a>
</g>
</g>
<!-- AS3320&#45;&gt;AS701 -->
<g id="edge19" class="edge"><title>AS3320&#45;&gt;AS701</title>
<path fill="none" stroke="black" d="M335.902,-396C345.608,-396 356.098,-396 366.061,-396"/>
<polygon fill="black" stroke="black" points="366.198,-399.5 376.198,-396 366.198,-392.5 366.198,-399.5"/>
</g>
<!-- AS6453 -->
<g id="node19" class="node"><title>AS6453</title>
<g id="a_node19"><a xlink:href="/asn/6453" xlink:title="AS6453 ~ TATA COMMUNICATIONS (AMERICA) INC [US]">
<ellipse fill="#ffffff" stroke="black" cx="411.523" cy="-450" rx="39.7935" ry="18"/>
<text text-anchor="middle" x="411.523" y="-446.3" font-family="Times,serif" font-size="14.00" fill="#2c94b3">AS6453</text>
</a>
</g>
</g>
<!-- AS3320&#45;&gt;AS6453 -->
<g id="edge20" class="edge"><title>AS3320&#45;&gt;AS6453</title>
<path fill="none" stroke="black" d="M324.367,-408.934C339.361,-416.081 358.182,-425.052 374.405,-432.785"/>
<polygon fill="black" stroke="black" points="373.075,-436.028 383.608,-437.171 376.087,-429.709 373.075,-436.028"/>
</g>
<!-- AS7018 -->
<g id="node20" class="node"><title>AS7018</title>
<g id="a_node20"><a xlink:href="/asn/7018" xlink:title="AS7018 ~ AT&amp;T Services, Inc. [US]">
<ellipse fill="#ffffff" stroke="black" cx="411.523" cy="-342" rx="39.7935" ry="18"/>
<text text-anchor="middle" x="411.523" y="-338.3" font-family="Times,serif" font-size="14.00" fill="#2c94b3">AS7018</text>
</a>
</g>
</g>
<!-- AS1299&#45;&gt;AS7018 -->
<g id="edge21" class="edge"><title>AS1299&#45;&gt;AS7018</title>
<path fill="none" stroke="black" d="M335.902,-342C344.105,-342 352.869,-342 361.401,-342"/>
<polygon fill="black" stroke="black" points="361.641,-345.5 371.641,-342 361.641,-338.5 361.641,-345.5"/>
</g>
</g>
</svg>
