<?xml version="1.0" encoding="UTF-8" standalone="no"?>
<!DOCTYPE svg PUBLIC "-//W3C//DTD SVG 1.1//EN"
 "http://www.w3.org/Graphics/SVG/1.1/DTD/svg11.dtd">
<!-- Generated by graphviz version 2.38.0 (20140413.2041)
 -->
<!-- Title: AS35339 IPv4 Upstream Graph Pages: 1 -->
<svg width="451pt" height="692pt"
 viewBox="0.00 0.00 451.37 692.00" xmlns="http://www.w3.org/2000/svg" xmlns:xlink="http://www.w3.org/1999/xlink">
<g id="graph0" class="graph" transform="scale(1 1) rotate(0) translate(4 688)">
<title>AS35339 IPv4 Upstream Graph</title>
<polygon fill="white" stroke="none" points="-4,4 -4,-688 447.37,-688 447.37,4 -4,4"/>
<!-- AS35339 -->
<g id="node1" class="node"><title>AS35339</title>
<g id="a_node1"><a xlink:href="/asn/35339" xlink:title="AS35339 ~ AtNOC Clemens Zauner e.U. [AT]">
<ellipse fill="#ffffff" stroke="black" cx="44.1961" cy="-247" rx="44.393" ry="18"/>
<text text-anchor="middle" x="44.1961" y="-243.3" font-family="Times,serif" font-size="14.00" fill="#880000">AS35339</text>
</a>
</g>
</g>
<!-- AS174 -->
<g id="node2" class="node"><title>AS174</title>
<g id="a_node2"><a xlink:href="/asn/174" xlink:title="AS174 ~ Cogent Communications [US]">
<ellipse fill="#ffffff" stroke="black" cx="164.039" cy="-342" rx="35.194" ry="18"/>
<text text-anchor="middle" x="164.039" y="-338.3" font-family="Times,serif" font-size="14.00" fill="#2c94b3">AS174</text>
</a>
</g>
</g>
<!-- AS35339&#45;&gt;AS174 -->
<g id="edge1" class="edge"><title>AS35339&#45;&gt;AS174</title>
<path fill="none" stroke="black" stroke-width="4.5" d="M64.9203,-262.901C84.5577,-278.732 114.826,-303.133 136.55,-320.646"/>
<polygon fill="black" stroke="black" stroke-width="4.5" points="134.161,-323.778 144.418,-326.989 139.104,-317.647 134.161,-323.778"/>
</g>
<!-- AS1299 -->
<g id="node3" class="node"><title>AS1299</title>
<g id="a_node3"><a xlink:href="/asn/1299" xlink:title="AS1299 ~ Telia Carrier [EU]">
<ellipse fill="#ffffff" stroke="black" cx="164.039" cy="-153" rx="39.7935" ry="18"/>
<text text-anchor="middle" x="164.039" y="-149.3" font-family="Times,serif" font-size="14.00" fill="#2c94b3">AS1299</text>
</a>
</g>
</g>
<!-- AS35339&#45;&gt;AS1299 -->
<g id="edge2" class="edge"><title>AS35339&#45;&gt;AS1299</title>
<path fill="none" stroke="black" stroke-width="0.6" d="M65.1865,-231.054C84.5179,-215.634 113.969,-192.141 135.512,-174.957"/>
<polygon fill="black" stroke="black" stroke-width="0.6" points="137.708,-177.682 143.343,-168.71 133.343,-172.21 137.708,-177.682"/>
</g>
<!-- AS6453 -->
<g id="node4" class="node"><title>AS6453</title>
<g id="a_node4"><a xlink:href="/asn/6453" xlink:title="AS6453 ~ TATA COMMUNICATIONS (AMERICA) INC [US]">
<ellipse fill="#ffffff" stroke="black" cx="283.881" cy="-666" rx="39.7935" ry="18"/>
<text text-anchor="middle" x="283.881" y="-662.3" font-family="Times,serif" font-size="14.00" fill="#2c94b3">AS6453</text>
</a>
</g>
</g>
<!-- AS174&#45;&gt;AS6453 -->
<g id="edge3" class="edge"><title>AS174&#45;&gt;AS6453</title>
<path fill="none" stroke="black" d="M165.071,-360.337C166.044,-410.079 174.763,-549.806 239.685,-639 241.897,-642.039 244.565,-644.813 247.477,-647.326"/>
<polygon fill="black" stroke="black" points="245.495,-650.214 255.608,-653.373 249.672,-644.597 245.495,-650.214"/>
</g>
<!-- AS1239 -->
<g id="node5" class="node"><title>AS1239</title>
<g id="a_node5"><a xlink:href="/asn/1239" xlink:title="AS1239 ~ Sprint [US]">
<ellipse fill="#ffffff" stroke="black" cx="283.881" cy="-612" rx="39.7935" ry="18"/>
<text text-anchor="middle" x="283.881" y="-608.3" font-family="Times,serif" font-size="14.00" fill="#2c94b3">AS1239</text>
</a>
</g>
</g>
<!-- AS174&#45;&gt;AS1239 -->
<g id="edge4" class="edge"><title>AS174&#45;&gt;AS1239</title>
<path fill="none" stroke="black" d="M166.323,-360.117C170.221,-403.332 185.238,-514.131 239.685,-585 241.975,-587.981 244.695,-590.716 247.639,-593.205"/>
<polygon fill="black" stroke="black" points="245.686,-596.113 255.816,-599.218 249.833,-590.473 245.686,-596.113"/>
</g>
<!-- AS3356 -->
<g id="node6" class="node"><title>AS3356</title>
<g id="a_node6"><a xlink:href="/asn/3356" xlink:title="AS3356 ~ Level 3 Parent, LLC [US]">
<ellipse fill="#ffffff" stroke="black" cx="283.881" cy="-558" rx="39.7935" ry="18"/>
<text text-anchor="middle" x="283.881" y="-554.3" font-family="Times,serif" font-size="14.00" fill="#2c94b3">AS3356</text>
</a>
</g>
</g>
<!-- AS174&#45;&gt;AS3356 -->
<g id="edge5" class="edge"><title>AS174&#45;&gt;AS3356</title>
<path fill="none" stroke="black" stroke-width="3" d="M168.237,-360.073C175.401,-396.141 195.675,-478.125 239.685,-531 242.09,-533.889 244.886,-536.563 247.879,-539.013"/>
<polygon fill="black" stroke="black" stroke-width="3" points="245.967,-541.95 256.122,-544.973 250.069,-536.277 245.967,-541.95"/>
</g>
<!-- AS6762 -->
<g id="node7" class="node"><title>AS6762</title>
<g id="a_node7"><a xlink:href="/asn/6762" xlink:title="AS6762 ~ TELECOM ITALIA SPARKLE S.p.A. [IT]">
<ellipse fill="#ffffff" stroke="black" cx="283.881" cy="-504" rx="39.7935" ry="18"/>
<text text-anchor="middle" x="283.881" y="-500.3" font-family="Times,serif" font-size="14.00" fill="#2c94b3">AS6762</text>
</a>
</g>
</g>
<!-- AS174&#45;&gt;AS6762 -->
<g id="edge6" class="edge"><title>AS174&#45;&gt;AS6762</title>
<path fill="none" stroke="black" d="M171.562,-359.994C182.312,-387.728 205.969,-441.429 239.685,-477 242.271,-479.728 245.188,-482.294 248.257,-484.677"/>
<polygon fill="black" stroke="black" points="246.411,-487.658 256.605,-490.543 250.435,-481.93 246.411,-487.658"/>
</g>
<!-- AS3257 -->
<g id="node8" class="node"><title>AS3257</title>
<g id="a_node8"><a xlink:href="/asn/3257" xlink:title="AS3257 ~ GTT [DE]">
<ellipse fill="#ffffff" stroke="black" cx="283.881" cy="-450" rx="39.7935" ry="18"/>
<text text-anchor="middle" x="283.881" y="-446.3" font-family="Times,serif" font-size="14.00" fill="#2c94b3">AS3257</text>
</a>
</g>
</g>
<!-- AS174&#45;&gt;AS3257 -->
<g id="edge7" class="edge"><title>AS174&#45;&gt;AS3257</title>
<path fill="none" stroke="black" d="M178.196,-358.743C192.281,-376.039 215.84,-403.223 239.685,-423 242.901,-425.668 246.402,-428.27 249.972,-430.741"/>
<polygon fill="black" stroke="black" points="248.05,-433.666 258.329,-436.236 251.896,-427.817 248.05,-433.666"/>
</g>
<!-- AS701 -->
<g id="node9" class="node"><title>AS701</title>
<g id="a_node9"><a xlink:href="/asn/701" xlink:title="AS701 ~ UUNET [US]">
<ellipse fill="#ffffff" stroke="black" cx="283.881" cy="-396" rx="35.194" ry="18"/>
<text text-anchor="middle" x="283.881" y="-392.3" font-family="Times,serif" font-size="14.00" fill="#2c94b3">AS701</text>
</a>
</g>
</g>
<!-- AS174&#45;&gt;AS701 -->
<g id="edge8" class="edge"><title>AS174&#45;&gt;AS701</title>
<path fill="none" stroke="black" d="M190.9,-353.851C207.631,-361.518 229.621,-371.594 247.905,-379.972"/>
<polygon fill="black" stroke="black" points="246.531,-383.193 257.08,-384.177 249.448,-376.829 246.531,-383.193"/>
</g>
<!-- AS6461 -->
<g id="node10" class="node"><title>AS6461</title>
<g id="a_node10"><a xlink:href="/asn/6461" xlink:title="AS6461 ~ Zayo Bandwidth [US]">
<ellipse fill="#ffffff" stroke="black" cx="283.881" cy="-342" rx="39.7935" ry="18"/>
<text text-anchor="middle" x="283.881" y="-338.3" font-family="Times,serif" font-size="14.00" fill="#2c94b3">AS6461</text>
</a>
</g>
</g>
<!-- AS174&#45;&gt;AS6461 -->
<g id="edge9" class="edge"><title>AS174&#45;&gt;AS6461</title>
<path fill="none" stroke="black" d="M199.44,-342C210.264,-342 222.432,-342 234.059,-342"/>
<polygon fill="black" stroke="black" points="234.09,-345.5 244.09,-342 234.09,-338.5 234.09,-345.5"/>
</g>
<!-- AS12956 -->
<g id="node11" class="node"><title>AS12956</title>
<g id="a_node11"><a xlink:href="/asn/12956" xlink:title="AS12956 ~ TELXIUS [ES]">
<ellipse fill="#ffffff" stroke="black" cx="283.881" cy="-288" rx="44.393" ry="18"/>
<text text-anchor="middle" x="283.881" y="-284.3" font-family="Times,serif" font-size="14.00" fill="#2c94b3">AS12956</text>
</a>
</g>
</g>
<!-- AS174&#45;&gt;AS12956 -->
<g id="edge10" class="edge"><title>AS174&#45;&gt;AS12956</title>
<path fill="none" stroke="black" d="M190.9,-330.149C206.563,-322.972 226.835,-313.683 244.36,-305.652"/>
<polygon fill="black" stroke="black" points="246.134,-308.689 253.767,-301.341 243.218,-302.325 246.134,-308.689"/>
</g>
<!-- AS7018 -->
<g id="node12" class="node"><title>AS7018</title>
<g id="a_node12"><a xlink:href="/asn/7018" xlink:title="AS7018 ~ AT&amp;T Services, Inc. [US]">
<ellipse fill="#ffffff" stroke="black" cx="283.881" cy="-234" rx="39.7935" ry="18"/>
<text text-anchor="middle" x="283.881" y="-230.3" font-family="Times,serif" font-size="14.00" fill="#2c94b3">AS7018</text>
</a>
</g>
</g>
<!-- AS174&#45;&gt;AS7018 -->
<g id="edge11" class="edge"><title>AS174&#45;&gt;AS7018</title>
<path fill="none" stroke="black" d="M178.196,-325.257C192.281,-307.961 215.84,-280.777 239.685,-261 242.901,-258.332 246.402,-255.73 249.972,-253.259"/>
<polygon fill="black" stroke="black" points="251.896,-256.183 258.329,-247.764 248.05,-250.334 251.896,-256.183"/>
</g>
<!-- AS1273 -->
<g id="node13" class="node"><title>AS1273</title>
<g id="a_node13"><a xlink:href="/asn/1273" xlink:title="AS1273 ~ Vodafone Group PLC [EU]">
<ellipse fill="#ffffff" stroke="black" cx="283.881" cy="-180" rx="39.7935" ry="18"/>
<text text-anchor="middle" x="283.881" y="-176.3" font-family="Times,serif" font-size="14.00" fill="#2c94b3">AS1273</text>
</a>
</g>
</g>
<!-- AS174&#45;&gt;AS1273 -->
<g id="edge12" class="edge"><title>AS174&#45;&gt;AS1273</title>
<path fill="none" stroke="black" d="M171.562,-324.006C182.312,-296.272 205.969,-242.571 239.685,-207 242.271,-204.272 245.188,-201.706 248.257,-199.323"/>
<polygon fill="black" stroke="black" points="250.435,-202.07 256.605,-193.457 246.411,-196.342 250.435,-202.07"/>
</g>
<!-- AS2914 -->
<g id="node14" class="node"><title>AS2914</title>
<g id="a_node14"><a xlink:href="/asn/2914" xlink:title="AS2914 ~ NTT America, Inc. [US]">
<ellipse fill="#ffffff" stroke="black" cx="283.881" cy="-126" rx="39.7935" ry="18"/>
<text text-anchor="middle" x="283.881" y="-122.3" font-family="Times,serif" font-size="14.00" fill="#2c94b3">AS2914</text>
</a>
</g>
</g>
<!-- AS174&#45;&gt;AS2914 -->
<g id="edge13" class="edge"><title>AS174&#45;&gt;AS2914</title>
<path fill="none" stroke="black" d="M168.237,-323.927C175.401,-287.859 195.675,-205.875 239.685,-153 242.09,-150.111 244.886,-147.437 247.879,-144.987"/>
<polygon fill="black" stroke="black" points="250.069,-147.723 256.122,-139.027 245.967,-142.05 250.069,-147.723"/>
</g>
<!-- AS3491 -->
<g id="node15" class="node"><title>AS3491</title>
<g id="a_node15"><a xlink:href="/asn/3491" xlink:title="AS3491 ~ PCCW Global, Inc. [US]">
<ellipse fill="#ffffff" stroke="black" cx="283.881" cy="-72" rx="39.7935" ry="18"/>
<text text-anchor="middle" x="283.881" y="-68.3" font-family="Times,serif" font-size="14.00" fill="#2c94b3">AS3491</text>
</a>
</g>
</g>
<!-- AS174&#45;&gt;AS3491 -->
<g id="edge14" class="edge"><title>AS174&#45;&gt;AS3491</title>
<path fill="none" stroke="black" d="M168.822,-324.134C179.615,-274.393 211.588,-135.572 239.685,-99 241.975,-96.0195 244.695,-93.2844 247.639,-90.7955"/>
<polygon fill="black" stroke="black" points="249.833,-93.5267 255.816,-84.7824 245.686,-87.8875 249.833,-93.5267"/>
</g>
<!-- AS2497 -->
<g id="node18" class="node"><title>AS2497</title>
<g id="a_node18"><a xlink:href="/asn/2497" xlink:title="AS2497 ~ Internet Initiative Japan Inc. [JP]">
<ellipse fill="#ffffff" stroke="black" cx="283.881" cy="-18" rx="39.7935" ry="18"/>
<text text-anchor="middle" x="283.881" y="-14.3" font-family="Times,serif" font-size="14.00" fill="#2c94b3">AS2497</text>
</a>
</g>
</g>
<!-- AS1299&#45;&gt;AS2497 -->
<g id="edge17" class="edge"><title>AS1299&#45;&gt;AS2497</title>
<path fill="none" stroke="black" d="M174.28,-135.287C186.825,-112.439 211.002,-72.3891 239.685,-45 242.553,-42.2611 245.742,-39.6533 249.051,-37.2147"/>
<polygon fill="black" stroke="black" points="251.114,-40.0442 257.411,-31.523 247.175,-34.2581 251.114,-40.0442"/>
</g>
<!-- AS209 -->
<g id="node16" class="node"><title>AS209</title>
<g id="a_node16"><a xlink:href="/asn/209" xlink:title="AS209 ~ CenturyLink Communications, LLC [US]">
<ellipse fill="#ffffff" stroke="black" cx="403.724" cy="-585" rx="35.194" ry="18"/>
<text text-anchor="middle" x="403.724" y="-581.3" font-family="Times,serif" font-size="14.00" fill="#2c94b3">AS209</text>
</a>
</g>
</g>
<!-- AS3356&#45;&gt;AS209 -->
<g id="edge15" class="edge"><title>AS3356&#45;&gt;AS209</title>
<path fill="none" stroke="black" d="M319.6,-565.955C332.693,-568.955 347.715,-572.396 361.356,-575.522"/>
<polygon fill="black" stroke="black" points="360.934,-579.016 371.463,-577.838 362.497,-572.193 360.934,-579.016"/>
</g>
<!-- AS3549 -->
<g id="node17" class="node"><title>AS3549</title>
<g id="a_node17"><a xlink:href="/asn/3549" xlink:title="AS3549 ~ Level 3 Parent, LLC [US]">
<ellipse fill="#ffffff" stroke="black" cx="403.724" cy="-531" rx="39.7935" ry="18"/>
<text text-anchor="middle" x="403.724" y="-527.3" font-family="Times,serif" font-size="14.00" fill="#2c94b3">AS3549</text>
</a>
</g>
</g>
<!-- AS3356&#45;&gt;AS3549 -->
<g id="edge16" class="edge"><title>AS3356&#45;&gt;AS3549</title>
<path fill="none" stroke="black" d="M319.6,-550.045C331.6,-547.296 345.221,-544.175 357.914,-541.267"/>
<polygon fill="black" stroke="black" points="358.88,-544.636 367.845,-538.991 357.316,-537.813 358.88,-544.636"/>
</g>
</g>
</svg>
