<?xml version="1.0" encoding="UTF-8" standalone="no"?>
<!DOCTYPE svg PUBLIC "-//W3C//DTD SVG 1.1//EN"
 "http://www.w3.org/Graphics/SVG/1.1/DTD/svg11.dtd">
<!-- Generated by graphviz version 2.38.0 (20140413.2041)
 -->
<!-- Title: AS29330 IPv4 Upstream Graph Pages: 1 -->
<svg width="558pt" height="692pt"
 viewBox="0.00 0.00 557.56 692.00" xmlns="http://www.w3.org/2000/svg" xmlns:xlink="http://www.w3.org/1999/xlink">
<g id="graph0" class="graph" transform="scale(1 1) rotate(0) translate(4 688)">
<title>AS29330 IPv4 Upstream Graph</title>
<polygon fill="white" stroke="none" points="-4,4 -4,-688 553.564,-688 553.564,4 -4,4"/>
<!-- AS29330 -->
<g id="node1" class="node"><title>AS29330</title>
<g id="a_node1"><a xlink:href="/asn/29330" xlink:title="AS29330 ~ NEXTLAYER&#45;IN&#45;A&#45;BOX [AT]">
<ellipse fill="#ffffff" stroke="black" cx="44.1961" cy="-315" rx="44.393" ry="18"/>
<text text-anchor="middle" x="44.1961" y="-311.3" font-family="Times,serif" font-size="14.00" fill="#880000">AS29330</text>
</a>
</g>
</g>
<!-- AS8218 -->
<g id="node2" class="node"><title>AS8218</title>
<g id="a_node2"><a xlink:href="/asn/8218" xlink:title="AS8218 ~ legacy Neotelecoms [FR]">
<ellipse fill="#ffffff" stroke="black" cx="164.039" cy="-315" rx="39.7935" ry="18"/>
<text text-anchor="middle" x="164.039" y="-311.3" font-family="Times,serif" font-size="14.00" fill="#2c94b3">AS8218</text>
</a>
</g>
</g>
<!-- AS29330&#45;&gt;AS8218 -->
<g id="edge1" class="edge"><title>AS29330&#45;&gt;AS8218</title>
<path fill="none" stroke="black" stroke-width="4.5" d="M88.4072,-315C96.7198,-315 105.482,-315 113.965,-315"/>
<polygon fill="black" stroke="black" stroke-width="4.5" points="114.123,-318.938 124.123,-315 114.123,-311.063 114.123,-318.938"/>
</g>
<!-- AS6461 -->
<g id="node3" class="node"><title>AS6461</title>
<g id="a_node3"><a xlink:href="/asn/6461" xlink:title="AS6461 ~ Zayo Bandwidth [US]">
<ellipse fill="#ffffff" stroke="black" cx="279.332" cy="-342" rx="39.7935" ry="18"/>
<text text-anchor="middle" x="279.332" y="-338.3" font-family="Times,serif" font-size="14.00" fill="#2c94b3">AS6461</text>
</a>
</g>
</g>
<!-- AS8218&#45;&gt;AS6461 -->
<g id="edge2" class="edge"><title>AS8218&#45;&gt;AS6461</title>
<path fill="none" stroke="black" stroke-width="4.5" d="M199.646,-323.248C210.517,-325.838 222.671,-328.735 234.114,-331.462"/>
<polygon fill="black" stroke="black" stroke-width="4.5" points="233.296,-335.315 243.936,-333.803 235.122,-327.654 233.296,-335.315"/>
</g>
<!-- AS1299 -->
<g id="node4" class="node"><title>AS1299</title>
<g id="a_node4"><a xlink:href="/asn/1299" xlink:title="AS1299 ~ Telia Carrier [EU]">
<ellipse fill="#ffffff" stroke="black" cx="279.332" cy="-288" rx="39.7935" ry="18"/>
<text text-anchor="middle" x="279.332" y="-284.3" font-family="Times,serif" font-size="14.00" fill="#2c94b3">AS1299</text>
</a>
</g>
</g>
<!-- AS8218&#45;&gt;AS1299 -->
<g id="edge3" class="edge"><title>AS8218&#45;&gt;AS1299</title>
<path fill="none" stroke="black" stroke-width="0.3" d="M199.646,-306.752C210.517,-304.162 222.671,-301.265 234.114,-298.538"/>
<polygon fill="black" stroke="black" stroke-width="0.3" points="235.02,-301.92 243.936,-296.197 233.397,-295.111 235.02,-301.92"/>
</g>
<!-- AS3356 -->
<g id="node5" class="node"><title>AS3356</title>
<g id="a_node5"><a xlink:href="/asn/3356" xlink:title="AS3356 ~ Level 3 Parent, LLC [US]">
<ellipse fill="#ffffff" stroke="black" cx="394.625" cy="-666" rx="39.7935" ry="18"/>
<text text-anchor="middle" x="394.625" y="-662.3" font-family="Times,serif" font-size="14.00" fill="#2c94b3">AS3356</text>
</a>
</g>
</g>
<!-- AS6461&#45;&gt;AS3356 -->
<g id="edge4" class="edge"><title>AS6461&#45;&gt;AS3356</title>
<path fill="none" stroke="black" stroke-width="2" d="M280.611,-360.161C282.209,-409.461 292.359,-548.175 354.978,-639 356.633,-641.401 358.576,-643.656 360.694,-645.76"/>
<polygon fill="black" stroke="black" stroke-width="2" points="358.525,-648.51 368.411,-652.322 363.06,-643.177 358.525,-648.51"/>
</g>
<!-- AS2497 -->
<g id="node6" class="node"><title>AS2497</title>
<g id="a_node6"><a xlink:href="/asn/2497" xlink:title="AS2497 ~ Internet Initiative Japan Inc. [JP]">
<ellipse fill="#ffffff" stroke="black" cx="394.625" cy="-612" rx="39.7935" ry="18"/>
<text text-anchor="middle" x="394.625" y="-608.3" font-family="Times,serif" font-size="14.00" fill="#2c94b3">AS2497</text>
</a>
</g>
</g>
<!-- AS6461&#45;&gt;AS2497 -->
<g id="edge5" class="edge"><title>AS6461&#45;&gt;AS2497</title>
<path fill="none" stroke="black" d="M281.888,-360.256C286.359,-403.303 302.492,-512.94 354.978,-585 356.695,-587.357 358.682,-589.581 360.831,-591.663"/>
<polygon fill="black" stroke="black" points="358.695,-594.439 368.606,-598.183 363.193,-589.075 358.695,-594.439"/>
</g>
<!-- AS6762 -->
<g id="node7" class="node"><title>AS6762</title>
<g id="a_node7"><a xlink:href="/asn/6762" xlink:title="AS6762 ~ TELECOM ITALIA SPARKLE S.p.A. [IT]">
<ellipse fill="#ffffff" stroke="black" cx="394.625" cy="-558" rx="39.7935" ry="18"/>
<text text-anchor="middle" x="394.625" y="-554.3" font-family="Times,serif" font-size="14.00" fill="#2c94b3">AS6762</text>
</a>
</g>
</g>
<!-- AS6461&#45;&gt;AS6762 -->
<g id="edge6" class="edge"><title>AS6461&#45;&gt;AS6762</title>
<path fill="none" stroke="black" d="M283.822,-360.16C291.453,-396.03 312.445,-477.155 354.978,-531 356.785,-533.288 358.838,-535.462 361.033,-537.51"/>
<polygon fill="black" stroke="black" points="358.944,-540.323 368.893,-543.966 363.387,-534.914 358.944,-540.323"/>
</g>
<!-- AS1239 -->
<g id="node8" class="node"><title>AS1239</title>
<g id="a_node8"><a xlink:href="/asn/1239" xlink:title="AS1239 ~ Sprint [US]">
<ellipse fill="#ffffff" stroke="black" cx="394.625" cy="-504" rx="39.7935" ry="18"/>
<text text-anchor="middle" x="394.625" y="-500.3" font-family="Times,serif" font-size="14.00" fill="#2c94b3">AS1239</text>
</a>
</g>
</g>
<!-- AS6461&#45;&gt;AS1239 -->
<g id="edge7" class="edge"><title>AS6461&#45;&gt;AS1239</title>
<path fill="none" stroke="black" d="M287.079,-359.787C298.13,-387.243 322.184,-440.578 354.978,-477 356.98,-479.224 359.199,-481.363 361.532,-483.397"/>
<polygon fill="black" stroke="black" points="359.73,-486.433 369.751,-489.873 364.062,-480.935 359.73,-486.433"/>
</g>
<!-- AS3491 -->
<g id="node9" class="node"><title>AS3491</title>
<g id="a_node9"><a xlink:href="/asn/3491" xlink:title="AS3491 ~ PCCW Global, Inc. [US]">
<ellipse fill="#ffffff" stroke="black" cx="394.625" cy="-450" rx="39.7935" ry="18"/>
<text text-anchor="middle" x="394.625" y="-446.3" font-family="Times,serif" font-size="14.00" fill="#2c94b3">AS3491</text>
</a>
</g>
</g>
<!-- AS6461&#45;&gt;AS3491 -->
<g id="edge8" class="edge"><title>AS6461&#45;&gt;AS3491</title>
<path fill="none" stroke="black" d="M293.962,-358.817C308.244,-375.929 331.791,-402.745 354.978,-423 357.444,-425.154 360.082,-427.294 362.78,-429.372"/>
<polygon fill="black" stroke="black" points="360.805,-432.264 370.934,-435.37 364.953,-426.625 360.805,-432.264"/>
</g>
<!-- AS7018 -->
<g id="node10" class="node"><title>AS7018</title>
<g id="a_node10"><a xlink:href="/asn/7018" xlink:title="AS7018 ~ AT&amp;T Services, Inc. [US]">
<ellipse fill="#ffffff" stroke="black" cx="394.625" cy="-396" rx="39.7935" ry="18"/>
<text text-anchor="middle" x="394.625" y="-392.3" font-family="Times,serif" font-size="14.00" fill="#2c94b3">AS7018</text>
</a>
</g>
</g>
<!-- AS6461&#45;&gt;AS7018 -->
<g id="edge9" class="edge"><title>AS6461&#45;&gt;AS7018</title>
<path fill="none" stroke="black" d="M307.468,-354.934C322.462,-362.081 341.283,-371.052 357.506,-378.785"/>
<polygon fill="black" stroke="black" points="356.177,-382.028 366.71,-383.171 359.188,-375.709 356.177,-382.028"/>
</g>
<!-- AS209 -->
<g id="node11" class="node"><title>AS209</title>
<g id="a_node11"><a xlink:href="/asn/209" xlink:title="AS209 ~ CenturyLink Communications, LLC [US]">
<ellipse fill="#ffffff" stroke="black" cx="394.625" cy="-342" rx="35.194" ry="18"/>
<text text-anchor="middle" x="394.625" y="-338.3" font-family="Times,serif" font-size="14.00" fill="#2c94b3">AS209</text>
</a>
</g>
</g>
<!-- AS6461&#45;&gt;AS209 -->
<g id="edge10" class="edge"><title>AS6461&#45;&gt;AS209</title>
<path fill="none" stroke="black" d="M319.004,-342C328.709,-342 339.2,-342 349.163,-342"/>
<polygon fill="black" stroke="black" points="349.299,-345.5 359.299,-342 349.299,-338.5 349.299,-345.5"/>
</g>
<!-- AS3257 -->
<g id="node12" class="node"><title>AS3257</title>
<g id="a_node12"><a xlink:href="/asn/3257" xlink:title="AS3257 ~ GTT [DE]">
<ellipse fill="#ffffff" stroke="black" cx="394.625" cy="-288" rx="39.7935" ry="18"/>
<text text-anchor="middle" x="394.625" y="-284.3" font-family="Times,serif" font-size="14.00" fill="#2c94b3">AS3257</text>
</a>
</g>
</g>
<!-- AS6461&#45;&gt;AS3257 -->
<g id="edge11" class="edge"><title>AS6461&#45;&gt;AS3257</title>
<path fill="none" stroke="black" d="M307.468,-329.066C322.462,-321.919 341.283,-312.948 357.506,-305.215"/>
<polygon fill="black" stroke="black" points="359.188,-308.291 366.71,-300.829 356.177,-301.972 359.188,-308.291"/>
</g>
<!-- AS701 -->
<g id="node13" class="node"><title>AS701</title>
<g id="a_node13"><a xlink:href="/asn/701" xlink:title="AS701 ~ UUNET [US]">
<ellipse fill="#ffffff" stroke="black" cx="394.625" cy="-234" rx="35.194" ry="18"/>
<text text-anchor="middle" x="394.625" y="-230.3" font-family="Times,serif" font-size="14.00" fill="#2c94b3">AS701</text>
</a>
</g>
</g>
<!-- AS6461&#45;&gt;AS701 -->
<g id="edge12" class="edge"><title>AS6461&#45;&gt;AS701</title>
<path fill="none" stroke="black" d="M303.926,-327.611C309.182,-323.852 314.513,-319.563 318.978,-315 339.151,-294.383 334.806,-281.617 354.978,-261 357.457,-258.466 360.204,-256.017 363.056,-253.696"/>
<polygon fill="black" stroke="black" points="365.359,-256.343 371.242,-247.532 361.148,-250.752 365.359,-256.343"/>
</g>
<!-- AS3320 -->
<g id="node14" class="node"><title>AS3320</title>
<g id="a_node14"><a xlink:href="/asn/3320" xlink:title="AS3320 ~ DTAG [DE]">
<ellipse fill="#ffffff" stroke="black" cx="394.625" cy="-180" rx="39.7935" ry="18"/>
<text text-anchor="middle" x="394.625" y="-176.3" font-family="Times,serif" font-size="14.00" fill="#2c94b3">AS3320</text>
</a>
</g>
</g>
<!-- AS6461&#45;&gt;AS3320 -->
<g id="edge13" class="edge"><title>AS6461&#45;&gt;AS3320</title>
<path fill="none" stroke="black" d="M305.262,-328.118C310.338,-324.389 315.256,-319.984 318.978,-315 349.249,-274.458 324.707,-247.542 354.978,-207 356.723,-204.664 358.73,-202.455 360.893,-200.383"/>
<polygon fill="black" stroke="black" points="363.253,-202.973 368.694,-193.882 358.771,-197.595 363.253,-202.973"/>
</g>
<!-- AS174 -->
<g id="node15" class="node"><title>AS174</title>
<g id="a_node15"><a xlink:href="/asn/174" xlink:title="AS174 ~ Cogent Communications [US]">
<ellipse fill="#ffffff" stroke="black" cx="394.625" cy="-126" rx="35.194" ry="18"/>
<text text-anchor="middle" x="394.625" y="-122.3" font-family="Times,serif" font-size="14.00" fill="#2c94b3">AS174</text>
</a>
</g>
</g>
<!-- AS6461&#45;&gt;AS174 -->
<g id="edge14" class="edge"><title>AS6461&#45;&gt;AS174</title>
<path fill="none" stroke="black" d="M305.651,-328.393C310.707,-324.649 315.518,-320.169 318.978,-315 360.003,-253.706 313.954,-214.294 354.978,-153 356.845,-150.211 359.105,-147.623 361.584,-145.243"/>
<polygon fill="black" stroke="black" points="364.002,-147.786 369.507,-138.734 359.558,-142.378 364.002,-147.786"/>
</g>
<!-- AS6453 -->
<g id="node16" class="node"><title>AS6453</title>
<g id="a_node16"><a xlink:href="/asn/6453" xlink:title="AS6453 ~ TATA COMMUNICATIONS (AMERICA) INC [US]">
<ellipse fill="#ffffff" stroke="black" cx="394.625" cy="-72" rx="39.7935" ry="18"/>
<text text-anchor="middle" x="394.625" y="-68.3" font-family="Times,serif" font-size="14.00" fill="#2c94b3">AS6453</text>
</a>
</g>
</g>
<!-- AS6461&#45;&gt;AS6453 -->
<g id="edge15" class="edge"><title>AS6461&#45;&gt;AS6453</title>
<path fill="none" stroke="black" d="M305.858,-328.528C310.903,-324.777 315.658,-320.26 318.978,-315 370.928,-232.7 303.028,-181.3 354.978,-99 356.534,-96.5343 358.406,-94.232 360.475,-92.0954"/>
<polygon fill="black" stroke="black" points="362.845,-94.673 368.099,-85.4725 358.254,-89.3886 362.845,-94.673"/>
</g>
<!-- AS2914 -->
<g id="node17" class="node"><title>AS2914</title>
<g id="a_node17"><a xlink:href="/asn/2914" xlink:title="AS2914 ~ NTT America, Inc. [US]">
<ellipse fill="#ffffff" stroke="black" cx="394.625" cy="-18" rx="39.7935" ry="18"/>
<text text-anchor="middle" x="394.625" y="-14.3" font-family="Times,serif" font-size="14.00" fill="#2c94b3">AS2914</text>
</a>
</g>
</g>
<!-- AS6461&#45;&gt;AS2914 -->
<g id="edge16" class="edge"><title>AS6461&#45;&gt;AS2914</title>
<path fill="none" stroke="black" d="M305.985,-328.607C311.024,-324.852 315.744,-320.314 318.978,-315 381.922,-211.588 292.034,-148.412 354.978,-45 356.494,-42.5093 358.337,-40.1889 360.385,-38.0397"/>
<polygon fill="black" stroke="black" points="362.756,-40.6159 367.971,-31.3932 358.143,-35.3511 362.756,-40.6159"/>
</g>
<!-- AS3549 -->
<g id="node18" class="node"><title>AS3549</title>
<g id="a_node18"><a xlink:href="/asn/3549" xlink:title="AS3549 ~ Level 3 Parent, LLC [US]">
<ellipse fill="#ffffff" stroke="black" cx="509.918" cy="-666" rx="39.7935" ry="18"/>
<text text-anchor="middle" x="509.918" y="-662.3" font-family="Times,serif" font-size="14.00" fill="#2c94b3">AS3549</text>
</a>
</g>
</g>
<!-- AS3356&#45;&gt;AS3549 -->
<g id="edge17" class="edge"><title>AS3356&#45;&gt;AS3549</title>
<path fill="none" stroke="black" d="M434.297,-666C442.5,-666 451.264,-666 459.796,-666"/>
<polygon fill="black" stroke="black" points="460.035,-669.5 470.035,-666 460.035,-662.5 460.035,-669.5"/>
</g>
</g>
</svg>
