<?xml version="1.0" encoding="UTF-8" standalone="no"?>
<!DOCTYPE svg PUBLIC "-//W3C//DTD SVG 1.1//EN"
 "http://www.w3.org/Graphics/SVG/1.1/DTD/svg11.dtd">
<!-- Generated by graphviz version 2.38.0 (20140413.2041)
 -->
<!-- Title: AS44825 IPv4 Upstream Graph Pages: 1 -->
<svg width="691pt" height="807pt"
 viewBox="0.00 0.00 691.06 807.00" xmlns="http://www.w3.org/2000/svg" xmlns:xlink="http://www.w3.org/1999/xlink">
<g id="graph0" class="graph" transform="scale(1 1) rotate(0) translate(4 803)">
<title>AS44825 IPv4 Upstream Graph</title>
<polygon fill="white" stroke="none" points="-4,4 -4,-803 687.055,-803 687.055,4 -4,4"/>
<!-- AS44825 -->
<g id="node1" class="node"><title>AS44825</title>
<g id="a_node1"><a xlink:href="/asn/44825" xlink:title="AS44825 ~ RKOOE&#45;AS [AT]">
<ellipse fill="#ffffff" stroke="black" cx="44.1961" cy="-423" rx="44.393" ry="18"/>
<text text-anchor="middle" x="44.1961" y="-419.3" font-family="Times,serif" font-size="14.00" fill="#880000">AS44825</text>
</a>
</g>
</g>
<!-- AS6830 -->
<g id="node2" class="node"><title>AS6830</title>
<g id="a_node2"><a xlink:href="/asn/6830" xlink:title="AS6830 ~ LGI&#45;UPC [AT]">
<ellipse fill="#ffffff" stroke="black" cx="403.724" cy="-446" rx="39.7935" ry="18"/>
<text text-anchor="middle" x="403.724" y="-442.3" font-family="Times,serif" font-size="14.00" fill="#2c94b3">AS6830</text>
</a>
</g>
</g>
<!-- AS44825&#45;&gt;AS6830 -->
<g id="edge1" class="edge"><title>AS44825&#45;&gt;AS6830</title>
<path fill="none" stroke="black" stroke-width="4.5" d="M87.9671,-425.751C154.785,-430.05 283.55,-438.333 353.904,-442.859"/>
<polygon fill="black" stroke="black" stroke-width="4.5" points="354.029,-446.813 364.261,-443.526 354.535,-438.954 354.029,-446.813"/>
</g>
<!-- AS8437 -->
<g id="node3" class="node"><title>AS8437</title>
<g id="a_node3"><a xlink:href="/asn/8437" xlink:title="AS8437 ~ Hutchison Drei Austria GmbH [AT]">
<ellipse fill="#ffffff" stroke="black" cx="164.039" cy="-400" rx="39.7935" ry="18"/>
<text text-anchor="middle" x="164.039" y="-396.3" font-family="Times,serif" font-size="14.00" fill="#2c94b3">AS8437</text>
</a>
</g>
</g>
<!-- AS44825&#45;&gt;AS8437 -->
<g id="edge2" class="edge"><title>AS44825&#45;&gt;AS8437</title>
<path fill="none" stroke="black" stroke-width="4.25" d="M84.4359,-415.341C94.8881,-413.301 106.274,-411.079 117.052,-408.975"/>
<polygon fill="black" stroke="black" stroke-width="4.25" points="118.047,-412.57 127.149,-407.005 116.622,-405.271 118.047,-412.57"/>
</g>
<!-- AS2914 -->
<g id="node4" class="node"><title>AS2914</title>
<g id="a_node4"><a xlink:href="/asn/2914" xlink:title="AS2914 ~ NTT America, Inc. [US]">
<ellipse fill="#ffffff" stroke="black" cx="519.017" cy="-315" rx="39.7935" ry="18"/>
<text text-anchor="middle" x="519.017" y="-311.3" font-family="Times,serif" font-size="14.00" fill="#2c94b3">AS2914</text>
</a>
</g>
</g>
<!-- AS6830&#45;&gt;AS2914 -->
<g id="edge3" class="edge"><title>AS6830&#45;&gt;AS2914</title>
<path fill="none" stroke="black" d="M416.02,-428.583C429.757,-408.022 454.239,-373.302 479.37,-347 482.571,-343.65 486.11,-340.311 489.708,-337.123"/>
<polygon fill="black" stroke="black" points="492.22,-339.581 497.573,-330.438 487.687,-334.248 492.22,-339.581"/>
</g>
<!-- AS6453 -->
<g id="node5" class="node"><title>AS6453</title>
<g id="a_node5"><a xlink:href="/asn/6453" xlink:title="AS6453 ~ TATA COMMUNICATIONS (AMERICA) INC [US]">
<ellipse fill="#ffffff" stroke="black" cx="638.859" cy="-638" rx="39.7935" ry="18"/>
<text text-anchor="middle" x="638.859" y="-634.3" font-family="Times,serif" font-size="14.00" fill="#2c94b3">AS6453</text>
</a>
</g>
</g>
<!-- AS6830&#45;&gt;AS6453 -->
<g id="edge4" class="edge"><title>AS6830&#45;&gt;AS6453</title>
<path fill="none" stroke="black" d="M405.354,-464.222C407.84,-504.194 420.021,-599.245 479.37,-640 513.436,-663.393 562.075,-658.652 596.466,-650.735"/>
<polygon fill="black" stroke="black" points="597.341,-654.124 606.206,-648.322 595.658,-647.329 597.341,-654.124"/>
</g>
<!-- AS1273 -->
<g id="node6" class="node"><title>AS1273</title>
<g id="a_node6"><a xlink:href="/asn/1273" xlink:title="AS1273 ~ Vodafone Group PLC [EU]">
<ellipse fill="#ffffff" stroke="black" cx="519.017" cy="-613" rx="39.7935" ry="18"/>
<text text-anchor="middle" x="519.017" y="-609.3" font-family="Times,serif" font-size="14.00" fill="#2c94b3">AS1273</text>
</a>
</g>
</g>
<!-- AS6830&#45;&gt;AS1273 -->
<g id="edge5" class="edge"><title>AS6830&#45;&gt;AS1273</title>
<path fill="none" stroke="black" d="M412.032,-463.913C423.658,-491.072 448.263,-543.474 479.37,-581 482.263,-584.489 485.576,-587.882 489.019,-591.074"/>
<polygon fill="black" stroke="black" points="486.806,-593.787 496.653,-597.698 491.394,-588.5 486.806,-593.787"/>
</g>
<!-- AS701 -->
<g id="node7" class="node"><title>AS701</title>
<g id="a_node7"><a xlink:href="/asn/701" xlink:title="AS701 ~ UUNET [US]">
<ellipse fill="#ffffff" stroke="black" cx="638.859" cy="-564" rx="35.194" ry="18"/>
<text text-anchor="middle" x="638.859" y="-560.3" font-family="Times,serif" font-size="14.00" fill="#2c94b3">AS701</text>
</a>
</g>
</g>
<!-- AS6830&#45;&gt;AS701 -->
<g id="edge6" class="edge"><title>AS6830&#45;&gt;AS701</title>
<path fill="none" stroke="black" d="M412.032,-463.634C422.881,-487.332 445.66,-528.707 479.37,-548 514.24,-567.957 560.574,-570.416 594.131,-568.81"/>
<polygon fill="black" stroke="black" points="594.782,-572.276 604.546,-568.162 594.348,-565.289 594.782,-572.276"/>
</g>
<!-- AS7018 -->
<g id="node8" class="node"><title>AS7018</title>
<g id="a_node8"><a xlink:href="/asn/7018" xlink:title="AS7018 ~ AT&amp;T Services, Inc. [US]">
<ellipse fill="#ffffff" stroke="black" cx="638.859" cy="-509" rx="39.7935" ry="18"/>
<text text-anchor="middle" x="638.859" y="-505.3" font-family="Times,serif" font-size="14.00" fill="#2c94b3">AS7018</text>
</a>
</g>
</g>
<!-- AS6830&#45;&gt;AS7018 -->
<g id="edge7" class="edge"><title>AS6830&#45;&gt;AS7018</title>
<path fill="none" stroke="black" d="M438.126,-455.026C479.329,-466.161 549.458,-485.111 594.703,-497.338"/>
<polygon fill="black" stroke="black" points="593.952,-500.76 604.519,-499.99 595.778,-494.003 593.952,-500.76"/>
</g>
<!-- AS6461 -->
<g id="node9" class="node"><title>AS6461</title>
<g id="a_node9"><a xlink:href="/asn/6461" xlink:title="AS6461 ~ ZAYO&#45;6461 [US]">
<ellipse fill="#ffffff" stroke="black" cx="638.859" cy="-222" rx="39.7935" ry="18"/>
<text text-anchor="middle" x="638.859" y="-218.3" font-family="Times,serif" font-size="14.00" fill="#2c94b3">AS6461</text>
</a>
</g>
</g>
<!-- AS6830&#45;&gt;AS6461 -->
<g id="edge8" class="edge"><title>AS6830&#45;&gt;AS6461</title>
<path fill="none" stroke="black" d="M430.684,-432.649C463.243,-415.023 519.535,-381.553 558.663,-342 586.493,-313.868 610.225,-274.56 624.263,-248.706"/>
<polygon fill="black" stroke="black" points="627.376,-250.307 628.986,-239.835 621.197,-247.017 627.376,-250.307"/>
</g>
<!-- AS3356 -->
<g id="node10" class="node"><title>AS3356</title>
<g id="a_node10"><a xlink:href="/asn/3356" xlink:title="AS3356 ~ Level 3 Parent, LLC [US]">
<ellipse fill="#ffffff" stroke="black" cx="519.017" cy="-45" rx="39.7935" ry="18"/>
<text text-anchor="middle" x="519.017" y="-41.3" font-family="Times,serif" font-size="14.00" fill="#2c94b3">AS3356</text>
</a>
</g>
</g>
<!-- AS6830&#45;&gt;AS3356 -->
<g id="edge9" class="edge"><title>AS6830&#45;&gt;AS3356</title>
<path fill="none" stroke="black" stroke-width="3" d="M408.615,-427.903C415.707,-394.809 431.131,-322.296 443.37,-261 460.114,-177.145 432.895,-143.778 479.37,-72 480.955,-69.5525 482.847,-67.2632 484.93,-65.1357"/>
<polygon fill="black" stroke="black" stroke-width="3" points="487.299,-67.7145 492.58,-58.5298 482.724,-62.4164 487.299,-67.7145"/>
</g>
<!-- AS1239 -->
<g id="node11" class="node"><title>AS1239</title>
<g id="a_node11"><a xlink:href="/asn/1239" xlink:title="AS1239 ~ Sprint [US]">
<ellipse fill="#ffffff" stroke="black" cx="638.859" cy="-454" rx="39.7935" ry="18"/>
<text text-anchor="middle" x="638.859" y="-450.3" font-family="Times,serif" font-size="14.00" fill="#2c94b3">AS1239</text>
</a>
</g>
</g>
<!-- AS6830&#45;&gt;AS1239 -->
<g id="edge10" class="edge"><title>AS6830&#45;&gt;AS1239</title>
<path fill="none" stroke="black" d="M443.483,-447.33C483.399,-448.7 545.718,-450.838 588.989,-452.323"/>
<polygon fill="black" stroke="black" points="588.893,-455.822 599.007,-452.667 589.133,-448.826 588.893,-455.822"/>
</g>
<!-- AS6762 -->
<g id="node12" class="node"><title>AS6762</title>
<g id="a_node12"><a xlink:href="/asn/6762" xlink:title="AS6762 ~ TELECOM ITALIA SPARKLE S.p.A. [IT]">
<ellipse fill="#ffffff" stroke="black" cx="519.017" cy="-781" rx="39.7935" ry="18"/>
<text text-anchor="middle" x="519.017" y="-777.3" font-family="Times,serif" font-size="14.00" fill="#2c94b3">AS6762</text>
</a>
</g>
</g>
<!-- AS6830&#45;&gt;AS6762 -->
<g id="edge11" class="edge"><title>AS6830&#45;&gt;AS6762</title>
<path fill="none" stroke="black" d="M407.671,-464.23C417.245,-521.989 448.631,-700.011 479.37,-749 481.779,-752.839 484.805,-756.44 488.098,-759.74"/>
<polygon fill="black" stroke="black" points="485.815,-762.393 495.598,-766.461 490.487,-757.18 485.815,-762.393"/>
</g>
<!-- AS2497 -->
<g id="node13" class="node"><title>AS2497</title>
<g id="a_node13"><a xlink:href="/asn/2497" xlink:title="AS2497 ~ Internet Initiative Japan Inc. [JP]">
<ellipse fill="#ffffff" stroke="black" cx="638.859" cy="-399" rx="39.7935" ry="18"/>
<text text-anchor="middle" x="638.859" y="-395.3" font-family="Times,serif" font-size="14.00" fill="#2c94b3">AS2497</text>
</a>
</g>
</g>
<!-- AS6830&#45;&gt;AS2497 -->
<g id="edge12" class="edge"><title>AS6830&#45;&gt;AS2497</title>
<path fill="none" stroke="black" d="M440.132,-438.862C480.784,-430.666 547.581,-417.2 592.134,-408.218"/>
<polygon fill="black" stroke="black" points="593.007,-411.613 602.118,-406.205 591.623,-404.751 593.007,-411.613"/>
</g>
<!-- AS1299 -->
<g id="node14" class="node"><title>AS1299</title>
<g id="a_node14"><a xlink:href="/asn/1299" xlink:title="AS1299 ~ Telia Carrier [EU]">
<ellipse fill="#ffffff" stroke="black" cx="519.017" cy="-99" rx="39.7935" ry="18"/>
<text text-anchor="middle" x="519.017" y="-95.3" font-family="Times,serif" font-size="14.00" fill="#2c94b3">AS1299</text>
</a>
</g>
</g>
<!-- AS6830&#45;&gt;AS1299 -->
<g id="edge13" class="edge"><title>AS6830&#45;&gt;AS1299</title>
<path fill="none" stroke="black" d="M408.594,-427.792C422.653,-361.873 470.656,-138.873 479.37,-126 481.005,-123.585 482.933,-121.32 485.041,-119.209"/>
<polygon fill="black" stroke="black" points="487.408,-121.79 492.738,-112.634 482.861,-116.468 487.408,-121.79"/>
</g>
<!-- AS3257 -->
<g id="node15" class="node"><title>AS3257</title>
<g id="a_node15"><a xlink:href="/asn/3257" xlink:title="AS3257 ~ GTT [DE]">
<ellipse fill="#ffffff" stroke="black" cx="519.017" cy="-261" rx="39.7935" ry="18"/>
<text text-anchor="middle" x="519.017" y="-257.3" font-family="Times,serif" font-size="14.00" fill="#2c94b3">AS3257</text>
</a>
</g>
</g>
<!-- AS6830&#45;&gt;AS3257 -->
<g id="edge14" class="edge"><title>AS6830&#45;&gt;AS3257</title>
<path fill="none" stroke="black" d="M409.785,-428.2C419.322,-397.052 442.38,-331.812 479.37,-288 481.251,-285.772 483.357,-283.641 485.589,-281.624"/>
<polygon fill="black" stroke="black" points="487.934,-284.229 493.518,-275.225 483.538,-278.782 487.934,-284.229"/>
</g>
<!-- AS12956 -->
<g id="node16" class="node"><title>AS12956</title>
<g id="a_node16"><a xlink:href="/asn/12956" xlink:title="AS12956 ~ TELXIUS [ES]">
<ellipse fill="#ffffff" stroke="black" cx="638.859" cy="-773" rx="44.393" ry="18"/>
<text text-anchor="middle" x="638.859" y="-769.3" font-family="Times,serif" font-size="14.00" fill="#2c94b3">AS12956</text>
</a>
</g>
</g>
<!-- AS6830&#45;&gt;AS12956 -->
<g id="edge15" class="edge"><title>AS6830&#45;&gt;AS12956</title>
<path fill="none" stroke="black" d="M405.414,-464.185C408.013,-508.593 420.397,-624.038 479.37,-694 508.259,-728.272 555.647,-749.13 591.093,-760.738"/>
<polygon fill="black" stroke="black" points="590.16,-764.113 600.749,-763.77 592.257,-757.434 590.16,-764.113"/>
</g>
<!-- AS3320 -->
<g id="node17" class="node"><title>AS3320</title>
<g id="a_node17"><a xlink:href="/asn/3320" xlink:title="AS3320 ~ DTAG [DE]">
<ellipse fill="#ffffff" stroke="black" cx="519.017" cy="-521" rx="39.7935" ry="18"/>
<text text-anchor="middle" x="519.017" y="-517.3" font-family="Times,serif" font-size="14.00" fill="#2c94b3">AS3320</text>
</a>
</g>
</g>
<!-- AS6830&#45;&gt;AS3320 -->
<g id="edge16" class="edge"><title>AS6830&#45;&gt;AS3320</title>
<path fill="none" stroke="black" d="M426.837,-460.639C444.036,-472.025 468.104,-487.958 487.194,-500.595"/>
<polygon fill="black" stroke="black" points="485.302,-503.54 495.572,-506.142 489.166,-497.703 485.302,-503.54"/>
</g>
<!-- AS174 -->
<g id="node18" class="node"><title>AS174</title>
<g id="a_node18"><a xlink:href="/asn/174" xlink:title="AS174 ~ Cogent Communications [US]">
<ellipse fill="#ffffff" stroke="black" cx="519.017" cy="-207" rx="35.194" ry="18"/>
<text text-anchor="middle" x="519.017" y="-203.3" font-family="Times,serif" font-size="14.00" fill="#2c94b3">AS174</text>
</a>
</g>
</g>
<!-- AS6830&#45;&gt;AS174 -->
<g id="edge17" class="edge"><title>AS6830&#45;&gt;AS174</title>
<path fill="none" stroke="black" d="M407.237,-428.053C413.44,-389.165 432.51,-295.672 479.37,-234 481.4,-231.328 483.772,-228.819 486.323,-226.49"/>
<polygon fill="black" stroke="black" points="488.736,-229.041 494.353,-220.058 484.36,-223.578 488.736,-229.041"/>
</g>
<!-- AS3491 -->
<g id="node19" class="node"><title>AS3491</title>
<g id="a_node19"><a xlink:href="/asn/3491" xlink:title="AS3491 ~ PCCW Global, Inc. [US]">
<ellipse fill="#ffffff" stroke="black" cx="638.859" cy="-704" rx="39.7935" ry="18"/>
<text text-anchor="middle" x="638.859" y="-700.3" font-family="Times,serif" font-size="14.00" fill="#2c94b3">AS3491</text>
</a>
</g>
</g>
<!-- AS6830&#45;&gt;AS3491 -->
<g id="edge18" class="edge"><title>AS6830&#45;&gt;AS3491</title>
<path fill="none" stroke="black" d="M405.489,-464.111C408.246,-505.521 420.94,-607.724 479.37,-662 508.855,-689.388 554.109,-699.335 588.724,-702.752"/>
<polygon fill="black" stroke="black" points="588.84,-706.274 599.095,-703.615 589.42,-699.298 588.84,-706.274"/>
</g>
<!-- AS25255 -->
<g id="node22" class="node"><title>AS25255</title>
<g id="a_node22"><a xlink:href="/asn/25255" xlink:title="AS25255 ~ ==&gt; TELE2 AUSTRIA &lt;== [AT]">
<ellipse fill="#ffffff" stroke="black" cx="283.881" cy="-400" rx="44.393" ry="18"/>
<text text-anchor="middle" x="283.881" y="-396.3" font-family="Times,serif" font-size="14.00" fill="#2c94b3">AS25255</text>
</a>
</g>
</g>
<!-- AS8437&#45;&gt;AS25255 -->
<g id="edge21" class="edge"><title>AS8437&#45;&gt;AS25255</title>
<path fill="none" stroke="black" stroke-width="4.5" d="M203.951,-400C212.054,-400 220.729,-400 229.255,-400"/>
<polygon fill="black" stroke="black" stroke-width="4.5" points="229.533,-403.938 239.533,-400 229.533,-396.063 229.533,-403.938"/>
</g>
<!-- AS3549 -->
<g id="node20" class="node"><title>AS3549</title>
<g id="a_node20"><a xlink:href="/asn/3549" xlink:title="AS3549 ~ Level 3 Parent, LLC [US]">
<ellipse fill="#ffffff" stroke="black" cx="638.859" cy="-18" rx="39.7935" ry="18"/>
<text text-anchor="middle" x="638.859" y="-14.3" font-family="Times,serif" font-size="14.00" fill="#2c94b3">AS3549</text>
</a>
</g>
</g>
<!-- AS3356&#45;&gt;AS3549 -->
<g id="edge19" class="edge"><title>AS3356&#45;&gt;AS3549</title>
<path fill="none" stroke="black" stroke-width="2" d="M554.736,-37.0451C566.736,-34.2957 580.357,-31.1749 593.049,-28.2668"/>
<polygon fill="black" stroke="black" stroke-width="2" points="594.015,-31.6363 602.981,-25.9913 592.452,-24.8131 594.015,-31.6363"/>
</g>
<!-- AS209 -->
<g id="node21" class="node"><title>AS209</title>
<g id="a_node21"><a xlink:href="/asn/209" xlink:title="AS209 ~ CenturyLink Communications, LLC [US]">
<ellipse fill="#ffffff" stroke="black" cx="638.859" cy="-72" rx="35.194" ry="18"/>
<text text-anchor="middle" x="638.859" y="-68.3" font-family="Times,serif" font-size="14.00" fill="#2c94b3">AS209</text>
</a>
</g>
</g>
<!-- AS3356&#45;&gt;AS209 -->
<g id="edge20" class="edge"><title>AS3356&#45;&gt;AS209</title>
<path fill="none" stroke="black" d="M554.736,-52.9549C567.829,-55.9546 582.851,-59.3965 596.492,-62.5219"/>
<polygon fill="black" stroke="black" points="596.07,-66.0158 606.599,-64.8376 597.633,-59.1926 596.07,-66.0158"/>
</g>
<!-- AS6762&#45;&gt;AS12956 -->
<g id="edge39" class="edge"><title>AS6762&#45;&gt;AS12956</title>
<path fill="none" stroke="black" d="M558.277,-778.403C566.773,-777.826 575.926,-777.205 584.892,-776.596"/>
<polygon fill="black" stroke="black" points="585.152,-780.086 594.892,-775.917 584.678,-773.102 585.152,-780.086"/>
</g>
<!-- AS6762&#45;&gt;AS3491 -->
<g id="edge38" class="edge"><title>AS6762&#45;&gt;AS3491</title>
<path fill="none" stroke="black" d="M542.459,-766.336C560.725,-754.401 586.702,-737.427 606.937,-724.205"/>
<polygon fill="black" stroke="black" points="609.043,-727.01 615.5,-718.61 605.214,-721.15 609.043,-727.01"/>
</g>
<!-- AS3320&#45;&gt;AS6453 -->
<g id="edge33" class="edge"><title>AS3320&#45;&gt;AS6453</title>
<path fill="none" stroke="black" d="M536.402,-537.268C556.516,-557.238 590.79,-591.268 613.871,-614.184"/>
<polygon fill="black" stroke="black" points="611.671,-616.931 621.233,-621.493 616.603,-611.963 611.671,-616.931"/>
</g>
<!-- AS3320&#45;&gt;AS701 -->
<g id="edge34" class="edge"><title>AS3320&#45;&gt;AS701</title>
<path fill="none" stroke="black" d="M550.364,-532.074C565.499,-537.596 583.953,-544.33 600.005,-550.187"/>
<polygon fill="black" stroke="black" points="599.044,-553.562 609.638,-553.702 601.443,-546.986 599.044,-553.562"/>
</g>
<!-- AS3320&#45;&gt;AS7018 -->
<g id="edge36" class="edge"><title>AS3320&#45;&gt;AS7018</title>
<path fill="none" stroke="black" d="M557.952,-517.137C568.149,-516.099 579.312,-514.962 589.974,-513.876"/>
<polygon fill="black" stroke="black" points="590.402,-517.351 599.996,-512.856 589.692,-510.387 590.402,-517.351"/>
</g>
<!-- AS3320&#45;&gt;AS1239 -->
<g id="edge35" class="edge"><title>AS3320&#45;&gt;AS1239</title>
<path fill="none" stroke="black" d="M544.434,-507.118C561.893,-497.191 585.594,-483.716 604.755,-472.822"/>
<polygon fill="black" stroke="black" points="606.51,-475.85 613.474,-467.865 603.05,-469.765 606.51,-475.85"/>
</g>
<!-- AS3320&#45;&gt;AS2497 -->
<g id="edge37" class="edge"><title>AS3320&#45;&gt;AS2497</title>
<path fill="none" stroke="black" d="M531.227,-503.658C544.699,-483.666 568.748,-450.539 594.663,-427 597.789,-424.161 601.232,-421.416 604.77,-418.827"/>
<polygon fill="black" stroke="black" points="606.837,-421.653 613.089,-413.099 602.868,-415.887 606.837,-421.653"/>
</g>
<!-- AS25255&#45;&gt;AS6762 -->
<g id="edge25" class="edge"><title>AS25255&#45;&gt;AS6762</title>
<path fill="none" stroke="black" stroke-width="2.25" d="M293.855,-417.633C319.958,-468.392 399.1,-618.595 479.37,-734 484.573,-741.48 490.657,-749.255 496.437,-756.277"/>
<polygon fill="black" stroke="black" stroke-width="2.25" points="493.903,-758.702 503.013,-764.111 499.265,-754.201 493.903,-758.702"/>
</g>
<!-- AS25255&#45;&gt;AS3320 -->
<g id="edge24" class="edge"><title>AS25255&#45;&gt;AS3320</title>
<path fill="none" stroke="black" stroke-width="4.5" d="M299.284,-417.098C314.013,-433.576 338.327,-458.137 364.077,-473 397.769,-492.447 440.242,-504.925 472.036,-512.269"/>
<polygon fill="black" stroke="black" stroke-width="4.5" points="471.343,-516.149 481.959,-514.476 473.052,-508.462 471.343,-516.149"/>
</g>
<!-- AS1764 -->
<g id="node23" class="node"><title>AS1764</title>
<g id="a_node23"><a xlink:href="/asn/1764" xlink:title="AS1764 ~ NEXTLAYER&#45;AS [AT]">
<ellipse fill="#ffffff" stroke="black" cx="403.724" cy="-234" rx="39.7935" ry="18"/>
<text text-anchor="middle" x="403.724" y="-230.3" font-family="Times,serif" font-size="14.00" fill="#2c94b3">AS1764</text>
</a>
</g>
</g>
<!-- AS25255&#45;&gt;AS1764 -->
<g id="edge22" class="edge"><title>AS25255&#45;&gt;AS1764</title>
<path fill="none" stroke="black" stroke-width="3.75" d="M297.27,-382.549C318.1,-353.206 360.233,-293.855 384.463,-259.724"/>
<polygon fill="black" stroke="black" stroke-width="3.75" points="387.567,-261.398 390.501,-251.217 381.859,-257.346 387.567,-261.398"/>
</g>
<!-- AS8447 -->
<g id="node24" class="node"><title>AS8447</title>
<g id="a_node24"><a xlink:href="/asn/8447" xlink:title="AS8447 ~ A1 Telekom Austria AG [AT]">
<ellipse fill="#ffffff" stroke="black" cx="403.724" cy="-99" rx="39.7935" ry="18"/>
<text text-anchor="middle" x="403.724" y="-95.3" font-family="Times,serif" font-size="14.00" fill="#2c94b3">AS8447</text>
</a>
</g>
</g>
<!-- AS25255&#45;&gt;AS8447 -->
<g id="edge23" class="edge"><title>AS25255&#45;&gt;AS8447</title>
<path fill="none" stroke="black" stroke-width="2.25" d="M291.9,-382.072C311.713,-331.465 368.175,-187.246 391.956,-126.503"/>
<polygon fill="black" stroke="black" stroke-width="2.25" points="395.355,-127.421 395.742,-116.834 388.837,-124.869 395.355,-127.421"/>
</g>
<!-- AS1764&#45;&gt;AS2914 -->
<g id="edge28" class="edge"><title>AS1764&#45;&gt;AS2914</title>
<path fill="none" stroke="black" d="M425.572,-249.222C440.506,-260.091 461.12,-275.025 479.37,-288 482.191,-290.005 485.134,-292.085 488.082,-294.159"/>
<polygon fill="black" stroke="black" points="486.109,-297.05 496.306,-299.926 490.128,-291.319 486.109,-297.05"/>
</g>
<!-- AS1764&#45;&gt;AS1299 -->
<g id="edge27" class="edge"><title>AS1764&#45;&gt;AS1299</title>
<path fill="none" stroke="black" d="M414.184,-216.51C426.965,-193.904 451.398,-154.114 479.37,-126 481.481,-123.879 483.777,-121.812 486.163,-119.829"/>
<polygon fill="black" stroke="black" points="488.678,-122.31 494.478,-113.444 484.415,-116.758 488.678,-122.31"/>
</g>
<!-- AS1764&#45;&gt;AS3257 -->
<g id="edge26" class="edge"><title>AS1764&#45;&gt;AS3257</title>
<path fill="none" stroke="black" d="M439.331,-242.248C450.202,-244.838 462.357,-247.735 473.799,-250.462"/>
<polygon fill="black" stroke="black" points="473.082,-253.889 483.621,-252.803 474.705,-247.08 473.082,-253.889"/>
</g>
<!-- AS1764&#45;&gt;AS174 -->
<g id="edge29" class="edge"><title>AS1764&#45;&gt;AS174</title>
<path fill="none" stroke="black" d="M439.331,-225.752C451.125,-222.942 464.43,-219.771 476.698,-216.847"/>
<polygon fill="black" stroke="black" points="477.787,-220.186 486.703,-214.463 476.164,-213.376 477.787,-220.186"/>
</g>
<!-- AS8218 -->
<g id="node25" class="node"><title>AS8218</title>
<g id="a_node25"><a xlink:href="/asn/8218" xlink:title="AS8218 ~ legacy Neotelecoms [FR]">
<ellipse fill="#ffffff" stroke="black" cx="519.017" cy="-153" rx="39.7935" ry="18"/>
<text text-anchor="middle" x="519.017" y="-149.3" font-family="Times,serif" font-size="14.00" fill="#2c94b3">AS8218</text>
</a>
</g>
</g>
<!-- AS1764&#45;&gt;AS8218 -->
<g id="edge30" class="edge"><title>AS1764&#45;&gt;AS8218</title>
<path fill="none" stroke="black" d="M425.572,-218.778C440.506,-207.909 461.12,-192.975 479.37,-180 482.191,-177.995 485.134,-175.915 488.082,-173.841"/>
<polygon fill="black" stroke="black" points="490.128,-176.681 496.306,-168.074 486.109,-170.95 490.128,-176.681"/>
</g>
<!-- AS8447&#45;&gt;AS3356 -->
<g id="edge31" class="edge"><title>AS8447&#45;&gt;AS3356</title>
<path fill="none" stroke="black" stroke-width="2" d="M431.86,-86.0657C446.854,-78.9189 465.675,-69.9481 481.898,-62.2154"/>
<polygon fill="black" stroke="black" stroke-width="2" points="483.581,-65.291 491.102,-57.8288 480.569,-58.972 483.581,-65.291"/>
</g>
<!-- AS8447&#45;&gt;AS1299 -->
<g id="edge32" class="edge"><title>AS8447&#45;&gt;AS1299</title>
<path fill="none" stroke="black" d="M443.396,-99C451.599,-99 460.363,-99 468.895,-99"/>
<polygon fill="black" stroke="black" points="469.134,-102.5 479.134,-99 469.134,-95.5001 469.134,-102.5"/>
</g>
<!-- AS8218&#45;&gt;AS6461 -->
<g id="edge40" class="edge"><title>AS8218&#45;&gt;AS6461</title>
<path fill="none" stroke="black" d="M544.148,-167.13C561.704,-177.409 585.679,-191.447 604.983,-202.75"/>
<polygon fill="black" stroke="black" points="603.362,-205.857 613.76,-207.889 606.899,-199.816 603.362,-205.857"/>
</g>
</g>
</svg>
