<?xml version="1.0" encoding="UTF-8" standalone="no"?>
<!DOCTYPE svg PUBLIC "-//W3C//DTD SVG 1.1//EN"
 "http://www.w3.org/Graphics/SVG/1.1/DTD/svg11.dtd">
<!-- Generated by graphviz version 2.38.0 (20140413.2041)
 -->
<!-- Title: AS44825 Combined Upstream Graph Pages: 1 -->
<svg width="691pt" height="654pt"
 viewBox="0.00 0.00 691.06 654.00" xmlns="http://www.w3.org/2000/svg" xmlns:xlink="http://www.w3.org/1999/xlink">
<g id="graph0" class="graph" transform="scale(1 1) rotate(0) translate(4 650)">
<title>AS44825 Combined Upstream Graph</title>
<polygon fill="white" stroke="none" points="-4,4 -4,-650 687.055,-650 687.055,4 -4,4"/>
<!-- AS44825 -->
<g id="node1" class="node"><title>AS44825</title>
<g id="a_node1"><a xlink:href="/asn/44825" xlink:title="AS44825 ~ RKOOE&#45;AS [AT]">
<ellipse fill="#ffffff" stroke="black" cx="44.1961" cy="-400" rx="44.393" ry="18"/>
<text text-anchor="middle" x="44.1961" y="-396.3" font-family="Times,serif" font-size="14.00" fill="#880000">AS44825</text>
</a>
</g>
</g>
<!-- AS6830 -->
<g id="node2" class="node"><title>AS6830</title>
<g id="a_node2"><a xlink:href="/asn/6830" xlink:title="AS6830 ~ LGI&#45;UPC [AT]">
<ellipse fill="#ffffff" stroke="black" cx="283.881" cy="-469" rx="39.7935" ry="18"/>
<text text-anchor="middle" x="283.881" y="-465.3" font-family="Times,serif" font-size="14.00" fill="#2c94b3">AS6830</text>
</a>
</g>
</g>
<!-- AS44825&#45;&gt;AS6830 -->
<g id="edge1" class="edge"><title>AS44825&#45;&gt;AS6830</title>
<path fill="none" stroke="black" stroke-width="2.4" d="M80.5233,-410.255C123.084,-422.611 194.54,-443.354 240.158,-456.598"/>
<polygon fill="black" stroke="black" stroke-width="2.4" points="239.462,-460.04 250.042,-459.467 241.414,-453.317 239.462,-460.04"/>
</g>
<!-- AS8437 -->
<g id="node3" class="node"><title>AS8437</title>
<g id="a_node3"><a xlink:href="/asn/8437" xlink:title="AS8437 ~ Hutchison Drei Austria GmbH [AT]">
<ellipse fill="#ffffff" stroke="black" cx="164.039" cy="-362" rx="39.7935" ry="18"/>
<text text-anchor="middle" x="164.039" y="-358.3" font-family="Times,serif" font-size="14.00" fill="#2c94b3">AS8437</text>
</a>
</g>
</g>
<!-- AS44825&#45;&gt;AS8437 -->
<g id="edge2" class="edge"><title>AS44825&#45;&gt;AS8437</title>
<path fill="none" stroke="black" stroke-width="4.5" d="M79.281,-389.009C92.4088,-384.776 107.55,-379.893 121.318,-375.454"/>
<polygon fill="black" stroke="black" stroke-width="4.5" points="122.743,-379.131 131.052,-372.315 120.326,-371.636 122.743,-379.131"/>
</g>
<!-- AS3491 -->
<g id="node4" class="node"><title>AS3491</title>
<g id="a_node4"><a xlink:href="/asn/3491" xlink:title="AS3491 ~ PCCW Global, Inc. [US]">
<ellipse fill="#ffffff" stroke="black" cx="528.116" cy="-342" rx="39.7935" ry="18"/>
<text text-anchor="middle" x="528.116" y="-338.3" font-family="Times,serif" font-size="14.00" fill="#2c94b3">AS3491</text>
</a>
</g>
</g>
<!-- AS6830&#45;&gt;AS3491 -->
<g id="edge3" class="edge"><title>AS6830&#45;&gt;AS3491</title>
<path fill="none" stroke="black" d="M302.018,-452.86C317.36,-439.048 340.942,-419.339 364.077,-406 402.919,-383.605 451.102,-365.776 484.982,-354.683"/>
<polygon fill="black" stroke="black" points="486.127,-357.992 494.574,-351.597 483.983,-351.328 486.127,-357.992"/>
</g>
<!-- AS701 -->
<g id="node5" class="node"><title>AS701</title>
<g id="a_node5"><a xlink:href="/asn/701" xlink:title="AS701 ~ UUNET [US]">
<ellipse fill="#ffffff" stroke="black" cx="528.116" cy="-450" rx="35.194" ry="18"/>
<text text-anchor="middle" x="528.116" y="-446.3" font-family="Times,serif" font-size="14.00" fill="#2c94b3">AS701</text>
</a>
</g>
</g>
<!-- AS6830&#45;&gt;AS701 -->
<g id="edge4" class="edge"><title>AS6830&#45;&gt;AS701</title>
<path fill="none" stroke="black" d="M313.258,-456.792C328.096,-451.064 346.737,-444.875 364.077,-442 404.567,-435.288 451.425,-438.73 484.487,-442.986"/>
<polygon fill="black" stroke="black" points="484.328,-446.497 494.711,-444.385 485.277,-439.562 484.328,-446.497"/>
</g>
<!-- AS12956 -->
<g id="node6" class="node"><title>AS12956</title>
<g id="a_node6"><a xlink:href="/asn/12956" xlink:title="AS12956 ~ TELXIUS [ES]">
<ellipse fill="#ffffff" stroke="black" cx="408.273" cy="-599" rx="44.393" ry="18"/>
<text text-anchor="middle" x="408.273" y="-595.3" font-family="Times,serif" font-size="14.00" fill="#2c94b3">AS12956</text>
</a>
</g>
</g>
<!-- AS6830&#45;&gt;AS12956 -->
<g id="edge5" class="edge"><title>AS6830&#45;&gt;AS12956</title>
<path fill="none" stroke="black" d="M296.858,-486.397C311.426,-506.901 337.392,-541.415 364.077,-567 367.854,-570.621 372.048,-574.191 376.296,-577.558"/>
<polygon fill="black" stroke="black" points="374.355,-580.479 384.435,-583.744 378.591,-574.906 374.355,-580.479"/>
</g>
<!-- AS1239 -->
<g id="node7" class="node"><title>AS1239</title>
<g id="a_node7"><a xlink:href="/asn/1239" xlink:title="AS1239 ~ Sprint [US]">
<ellipse fill="#ffffff" stroke="black" cx="528.116" cy="-396" rx="39.7935" ry="18"/>
<text text-anchor="middle" x="528.116" y="-392.3" font-family="Times,serif" font-size="14.00" fill="#2c94b3">AS1239</text>
</a>
</g>
</g>
<!-- AS6830&#45;&gt;AS1239 -->
<g id="edge6" class="edge"><title>AS6830&#45;&gt;AS1239</title>
<path fill="none" stroke="black" d="M311.151,-455.905C326.339,-448.713 345.971,-440.052 364.077,-434 402.798,-421.058 448.113,-410.878 481.128,-404.325"/>
<polygon fill="black" stroke="black" points="481.813,-407.758 490.959,-402.409 480.474,-400.887 481.813,-407.758"/>
</g>
<!-- AS7018 -->
<g id="node8" class="node"><title>AS7018</title>
<g id="a_node8"><a xlink:href="/asn/7018" xlink:title="AS7018 ~ AT&amp;T Services, Inc. [US]">
<ellipse fill="#ffffff" stroke="black" cx="528.116" cy="-628" rx="39.7935" ry="18"/>
<text text-anchor="middle" x="528.116" y="-624.3" font-family="Times,serif" font-size="14.00" fill="#2c94b3">AS7018</text>
</a>
</g>
</g>
<!-- AS6830&#45;&gt;AS7018 -->
<g id="edge7" class="edge"><title>AS6830&#45;&gt;AS7018</title>
<path fill="none" stroke="black" d="M287.828,-487.177C294.462,-521.412 314.093,-594.806 364.077,-626 399.704,-648.234 448.793,-645.37 483.776,-639.03"/>
<polygon fill="black" stroke="black" points="484.564,-642.442 493.697,-637.072 483.208,-635.575 484.564,-642.442"/>
</g>
<!-- AS2497 -->
<g id="node9" class="node"><title>AS2497</title>
<g id="a_node9"><a xlink:href="/asn/2497" xlink:title="AS2497 ~ Internet Initiative Japan Inc. [JP]">
<ellipse fill="#ffffff" stroke="black" cx="528.116" cy="-558" rx="39.7935" ry="18"/>
<text text-anchor="middle" x="528.116" y="-554.3" font-family="Times,serif" font-size="14.00" fill="#2c94b3">AS2497</text>
</a>
</g>
</g>
<!-- AS6830&#45;&gt;AS2497 -->
<g id="edge8" class="edge"><title>AS6830&#45;&gt;AS2497</title>
<path fill="none" stroke="black" d="M307.321,-483.789C322.768,-493.452 344.04,-505.76 364.077,-514 402.411,-529.764 448.128,-541.536 481.383,-548.917"/>
<polygon fill="black" stroke="black" points="480.766,-552.365 491.281,-551.066 482.252,-545.524 480.766,-552.365"/>
</g>
<!-- AS6453 -->
<g id="node10" class="node"><title>AS6453</title>
<g id="a_node10"><a xlink:href="/asn/6453" xlink:title="AS6453 ~ TATA COMMUNICATIONS (AMERICA) INC [US]">
<ellipse fill="#ffffff" stroke="black" cx="528.116" cy="-504" rx="39.7935" ry="18"/>
<text text-anchor="middle" x="528.116" y="-500.3" font-family="Times,serif" font-size="14.00" fill="#2c94b3">AS6453</text>
</a>
</g>
</g>
<!-- AS6830&#45;&gt;AS6453 -->
<g id="edge9" class="edge"><title>AS6830&#45;&gt;AS6453</title>
<path fill="none" stroke="black" d="M313.69,-480.994C328.484,-486.591 346.955,-492.728 364.077,-496 402.005,-503.247 445.745,-505.046 478.366,-505.143"/>
<polygon fill="black" stroke="black" points="478.553,-508.643 488.545,-505.12 478.537,-501.643 478.553,-508.643"/>
</g>
<!-- AS3320 -->
<g id="node11" class="node"><title>AS3320</title>
<g id="a_node11"><a xlink:href="/asn/3320" xlink:title="AS3320 ~ DTAG [DE]">
<ellipse fill="#ffffff" stroke="black" cx="408.273" cy="-469" rx="39.7935" ry="18"/>
<text text-anchor="middle" x="408.273" y="-465.3" font-family="Times,serif" font-size="14.00" fill="#2c94b3">AS3320</text>
</a>
</g>
</g>
<!-- AS6830&#45;&gt;AS3320 -->
<g id="edge10" class="edge"><title>AS6830&#45;&gt;AS3320</title>
<path fill="none" stroke="black" d="M323.607,-469C334.545,-469 346.596,-469 358.062,-469"/>
<polygon fill="black" stroke="black" points="358.38,-472.5 368.38,-469 358.38,-465.5 358.38,-472.5"/>
</g>
<!-- AS25255 -->
<g id="node12" class="node"><title>AS25255</title>
<g id="a_node12"><a xlink:href="/asn/25255" xlink:title="AS25255 ~ ==&gt; TELE2 AUSTRIA &lt;== [AT]">
<ellipse fill="#ffffff" stroke="black" cx="283.881" cy="-301" rx="44.393" ry="18"/>
<text text-anchor="middle" x="283.881" y="-297.3" font-family="Times,serif" font-size="14.00" fill="#2c94b3">AS25255</text>
</a>
</g>
</g>
<!-- AS8437&#45;&gt;AS25255 -->
<g id="edge11" class="edge"><title>AS8437&#45;&gt;AS25255</title>
<path fill="none" stroke="black" stroke-width="4.5" d="M190.9,-348.613C207.285,-340.132 228.714,-329.039 246.765,-319.695"/>
<polygon fill="black" stroke="black" stroke-width="4.5" points="248.782,-323.085 255.853,-314.991 245.162,-316.091 248.782,-323.085"/>
</g>
<!-- AS3320&#45;&gt;AS701 -->
<g id="edge24" class="edge"><title>AS3320&#45;&gt;AS701</title>
<path fill="none" stroke="black" d="M445.914,-463.092C458.175,-461.115 471.947,-458.895 484.618,-456.852"/>
<polygon fill="black" stroke="black" points="485.178,-460.307 494.493,-455.26 484.063,-453.396 485.178,-460.307"/>
</g>
<!-- AS3320&#45;&gt;AS1239 -->
<g id="edge23" class="edge"><title>AS3320&#45;&gt;AS1239</title>
<path fill="none" stroke="black" d="M432.555,-454.578C450.471,-443.479 475.428,-428.019 495.204,-415.768"/>
<polygon fill="black" stroke="black" points="497.224,-418.634 503.882,-410.392 493.538,-412.683 497.224,-418.634"/>
</g>
<!-- AS3320&#45;&gt;AS7018 -->
<g id="edge22" class="edge"><title>AS3320&#45;&gt;AS7018</title>
<path fill="none" stroke="black" d="M420.127,-486.409C434.785,-509.553 462.118,-551.435 488.469,-585 493.327,-591.188 498.833,-597.617 504.134,-603.56"/>
<polygon fill="black" stroke="black" points="501.844,-606.244 511.157,-611.294 507.026,-601.538 501.844,-606.244"/>
</g>
<!-- AS3320&#45;&gt;AS2497 -->
<g id="edge21" class="edge"><title>AS3320&#45;&gt;AS2497</title>
<path fill="none" stroke="black" d="M428.574,-484.586C444.471,-497.308 467.695,-515.629 488.469,-531 491.251,-533.058 494.169,-535.173 497.1,-537.27"/>
<polygon fill="black" stroke="black" points="495.116,-540.153 505.302,-543.068 499.157,-534.438 495.116,-540.153"/>
</g>
<!-- AS3320&#45;&gt;AS6453 -->
<g id="edge25" class="edge"><title>AS3320&#45;&gt;AS6453</title>
<path fill="none" stroke="black" d="M441.786,-478.657C454.943,-482.564 470.315,-487.13 484.359,-491.301"/>
<polygon fill="black" stroke="black" points="483.717,-494.761 494.3,-494.253 485.71,-488.051 483.717,-494.761"/>
</g>
<!-- AS25255&#45;&gt;AS3320 -->
<g id="edge13" class="edge"><title>AS25255&#45;&gt;AS3320</title>
<path fill="none" stroke="black" stroke-width="4.5" d="M297.518,-318.346C319.252,-348.178 363.791,-409.315 388.938,-443.832"/>
<polygon fill="black" stroke="black" stroke-width="4.5" points="385.816,-446.234 394.887,-451.998 392.181,-441.597 385.816,-446.234"/>
</g>
<!-- AS1764 -->
<g id="node13" class="node"><title>AS1764</title>
<g id="a_node13"><a xlink:href="/asn/1764" xlink:title="AS1764 ~ NEXTLAYER&#45;AS [AT]">
<ellipse fill="#ffffff" stroke="black" cx="408.273" cy="-207" rx="39.7935" ry="18"/>
<text text-anchor="middle" x="408.273" y="-203.3" font-family="Times,serif" font-size="14.00" fill="#2c94b3">AS1764</text>
</a>
</g>
</g>
<!-- AS25255&#45;&gt;AS1764 -->
<g id="edge12" class="edge"><title>AS25255&#45;&gt;AS1764</title>
<path fill="none" stroke="black" stroke-width="3.75" d="M305.367,-285.267C325.521,-269.788 356.457,-246.028 378.958,-228.747"/>
<polygon fill="black" stroke="black" stroke-width="3.75" points="381.329,-231.339 387.128,-222.472 377.065,-225.787 381.329,-231.339"/>
</g>
<!-- AS6762 -->
<g id="node14" class="node"><title>AS6762</title>
<g id="a_node14"><a xlink:href="/asn/6762" xlink:title="AS6762 ~ TELECOM ITALIA SPARKLE S.p.A. [IT]">
<ellipse fill="#ffffff" stroke="black" cx="408.273" cy="-301" rx="39.7935" ry="18"/>
<text text-anchor="middle" x="408.273" y="-297.3" font-family="Times,serif" font-size="14.00" fill="#2c94b3">AS6762</text>
</a>
</g>
</g>
<!-- AS25255&#45;&gt;AS6762 -->
<g id="edge14" class="edge"><title>AS25255&#45;&gt;AS6762</title>
<path fill="none" stroke="black" stroke-width="1.5" d="M328.377,-301C338.066,-301 348.403,-301 358.295,-301"/>
<polygon fill="black" stroke="black" stroke-width="1.5" points="358.398,-304.5 368.398,-301 358.398,-297.5 358.398,-304.5"/>
</g>
<!-- AS8447 -->
<g id="node15" class="node"><title>AS8447</title>
<g id="a_node15"><a xlink:href="/asn/8447" xlink:title="AS8447 ~ A1 Telekom Austria AG [AT]">
<ellipse fill="#ffffff" stroke="black" cx="408.273" cy="-99" rx="39.7935" ry="18"/>
<text text-anchor="middle" x="408.273" y="-95.3" font-family="Times,serif" font-size="14.00" fill="#2c94b3">AS8447</text>
</a>
</g>
</g>
<!-- AS25255&#45;&gt;AS8447 -->
<g id="edge15" class="edge"><title>AS25255&#45;&gt;AS8447</title>
<path fill="none" stroke="black" stroke-width="1.5" d="M295.529,-283.427C317.102,-247.821 366.071,-167.002 391.415,-125.173"/>
<polygon fill="black" stroke="black" stroke-width="1.5" points="394.549,-126.755 396.738,-116.388 388.562,-123.127 394.549,-126.755"/>
</g>
<!-- AS2914 -->
<g id="node16" class="node"><title>AS2914</title>
<g id="a_node16"><a xlink:href="/asn/2914" xlink:title="AS2914 ~ NTT America, Inc. [US]">
<ellipse fill="#ffffff" stroke="black" cx="528.116" cy="-234" rx="39.7935" ry="18"/>
<text text-anchor="middle" x="528.116" y="-230.3" font-family="Times,serif" font-size="14.00" fill="#2c94b3">AS2914</text>
</a>
</g>
</g>
<!-- AS1764&#45;&gt;AS2914 -->
<g id="edge16" class="edge"><title>AS1764&#45;&gt;AS2914</title>
<path fill="none" stroke="black" d="M443.993,-214.955C455.993,-217.704 469.613,-220.825 482.306,-223.733"/>
<polygon fill="black" stroke="black" points="481.708,-227.187 492.238,-226.009 483.272,-220.364 481.708,-227.187"/>
</g>
<!-- AS174 -->
<g id="node17" class="node"><title>AS174</title>
<g id="a_node17"><a xlink:href="/asn/174" xlink:title="AS174 ~ Cogent Communications [US]">
<ellipse fill="#ffffff" stroke="black" cx="528.116" cy="-180" rx="35.194" ry="18"/>
<text text-anchor="middle" x="528.116" y="-176.3" font-family="Times,serif" font-size="14.00" fill="#2c94b3">AS174</text>
</a>
</g>
</g>
<!-- AS1764&#45;&gt;AS174 -->
<g id="edge17" class="edge"><title>AS1764&#45;&gt;AS174</title>
<path fill="none" stroke="black" d="M443.993,-199.045C457.085,-196.045 472.107,-192.604 485.748,-189.478"/>
<polygon fill="black" stroke="black" points="486.89,-192.807 495.855,-187.162 485.326,-185.984 486.89,-192.807"/>
</g>
<!-- AS3257 -->
<g id="node18" class="node"><title>AS3257</title>
<g id="a_node18"><a xlink:href="/asn/3257" xlink:title="AS3257 ~ GTT [DE]">
<ellipse fill="#ffffff" stroke="black" cx="528.116" cy="-126" rx="39.7935" ry="18"/>
<text text-anchor="middle" x="528.116" y="-122.3" font-family="Times,serif" font-size="14.00" fill="#2c94b3">AS3257</text>
</a>
</g>
</g>
<!-- AS1764&#45;&gt;AS3257 -->
<g id="edge18" class="edge"><title>AS1764&#45;&gt;AS3257</title>
<path fill="none" stroke="black" d="M430.887,-192.143C449.376,-179.435 476.19,-161.005 496.819,-146.825"/>
<polygon fill="black" stroke="black" points="498.981,-149.586 505.24,-141.037 495.016,-143.817 498.981,-149.586"/>
</g>
<!-- AS1299 -->
<g id="node19" class="node"><title>AS1299</title>
<g id="a_node19"><a xlink:href="/asn/1299" xlink:title="AS1299 ~ Telia Carrier [EU]">
<ellipse fill="#ffffff" stroke="black" cx="528.116" cy="-72" rx="39.7935" ry="18"/>
<text text-anchor="middle" x="528.116" y="-68.3" font-family="Times,serif" font-size="14.00" fill="#2c94b3">AS1299</text>
</a>
</g>
</g>
<!-- AS1764&#45;&gt;AS1299 -->
<g id="edge19" class="edge"><title>AS1764&#45;&gt;AS1299</title>
<path fill="none" stroke="black" d="M419.539,-189.56C433.348,-167.009 459.536,-127.278 488.469,-99 490.61,-96.9083 492.927,-94.8634 495.327,-92.8945"/>
<polygon fill="black" stroke="black" points="497.837,-95.3818 503.668,-86.5359 493.594,-89.8147 497.837,-95.3818"/>
</g>
<!-- AS8218 -->
<g id="node20" class="node"><title>AS8218</title>
<g id="a_node20"><a xlink:href="/asn/8218" xlink:title="AS8218 ~ legacy Neotelecoms [FR]">
<ellipse fill="#ffffff" stroke="black" cx="528.116" cy="-288" rx="39.7935" ry="18"/>
<text text-anchor="middle" x="528.116" y="-284.3" font-family="Times,serif" font-size="14.00" fill="#2c94b3">AS8218</text>
</a>
</g>
</g>
<!-- AS1764&#45;&gt;AS8218 -->
<g id="edge20" class="edge"><title>AS1764&#45;&gt;AS8218</title>
<path fill="none" stroke="black" d="M430.887,-221.857C449.376,-234.565 476.19,-252.995 496.819,-267.175"/>
<polygon fill="black" stroke="black" points="495.016,-270.183 505.24,-272.963 498.981,-264.414 495.016,-270.183"/>
</g>
<!-- AS6762&#45;&gt;AS3491 -->
<g id="edge29" class="edge"><title>AS6762&#45;&gt;AS3491</title>
<path fill="none" stroke="black" d="M440.235,-311.772C454.332,-316.677 471.208,-322.548 486.322,-327.807"/>
<polygon fill="black" stroke="black" points="485.357,-331.177 495.952,-331.157 487.657,-324.566 485.357,-331.177"/>
</g>
<!-- AS3356 -->
<g id="node21" class="node"><title>AS3356</title>
<g id="a_node21"><a xlink:href="/asn/3356" xlink:title="AS3356 ~ Level 3 Parent, LLC [US]">
<ellipse fill="#ffffff" stroke="black" cx="528.116" cy="-18" rx="39.7935" ry="18"/>
<text text-anchor="middle" x="528.116" y="-14.3" font-family="Times,serif" font-size="14.00" fill="#2c94b3">AS3356</text>
</a>
</g>
</g>
<!-- AS8447&#45;&gt;AS3356 -->
<g id="edge26" class="edge"><title>AS8447&#45;&gt;AS3356</title>
<path fill="none" stroke="black" stroke-width="2" d="M430.887,-84.1434C449.376,-71.4351 476.19,-53.0045 496.819,-38.8246"/>
<polygon fill="black" stroke="black" stroke-width="2" points="498.981,-41.5856 505.24,-33.0368 495.016,-35.817 498.981,-41.5856"/>
</g>
<!-- AS6461 -->
<g id="node23" class="node"><title>AS6461</title>
<g id="a_node23"><a xlink:href="/asn/6461" xlink:title="AS6461 ~ Zayo Bandwidth [US]">
<ellipse fill="#ffffff" stroke="black" cx="643.409" cy="-288" rx="39.7935" ry="18"/>
<text text-anchor="middle" x="643.409" y="-284.3" font-family="Times,serif" font-size="14.00" fill="#2c94b3">AS6461</text>
</a>
</g>
</g>
<!-- AS8218&#45;&gt;AS6461 -->
<g id="edge28" class="edge"><title>AS8218&#45;&gt;AS6461</title>
<path fill="none" stroke="black" d="M567.788,-288C575.991,-288 584.755,-288 593.287,-288"/>
<polygon fill="black" stroke="black" points="593.526,-291.5 603.526,-288 593.526,-284.5 593.526,-291.5"/>
</g>
<!-- AS3549 -->
<g id="node22" class="node"><title>AS3549</title>
<g id="a_node22"><a xlink:href="/asn/3549" xlink:title="AS3549 ~ Level 3 Parent, LLC [US]">
<ellipse fill="#ffffff" stroke="black" cx="643.409" cy="-18" rx="39.7935" ry="18"/>
<text text-anchor="middle" x="643.409" y="-14.3" font-family="Times,serif" font-size="14.00" fill="#2c94b3">AS3549</text>
</a>
</g>
</g>
<!-- AS3356&#45;&gt;AS3549 -->
<g id="edge27" class="edge"><title>AS3356&#45;&gt;AS3549</title>
<path fill="none" stroke="black" d="M567.788,-18C575.991,-18 584.755,-18 593.287,-18"/>
<polygon fill="black" stroke="black" points="593.526,-21.5001 603.526,-18 593.526,-14.5001 593.526,-21.5001"/>
</g>
</g>
</svg>
