<?xml version="1.0" encoding="UTF-8" standalone="no"?>
<!DOCTYPE svg PUBLIC "-//W3C//DTD SVG 1.1//EN"
 "http://www.w3.org/Graphics/SVG/1.1/DTD/svg11.dtd">
<!-- Generated by graphviz version 2.38.0 (20140413.2041)
 -->
<!-- Title: AS199236 Combined Upstream Graph Pages: 1 -->
<svg width="574pt" height="575pt"
 viewBox="0.00 0.00 574.46 575.29" xmlns="http://www.w3.org/2000/svg" xmlns:xlink="http://www.w3.org/1999/xlink">
<g id="graph0" class="graph" transform="scale(1 1) rotate(0) translate(4 571.287)">
<title>AS199236 Combined Upstream Graph</title>
<polygon fill="white" stroke="none" points="-4,4 -4,-571.287 570.463,-571.287 570.463,4 -4,4"/>
<!-- AS199236 -->
<g id="node1" class="node"><title>AS199236</title>
<g id="a_node1"><a xlink:href="/asn/199236" xlink:title="AS199236 ~ Emarsys eMarketing Systems AG [AT]">
<ellipse fill="#ffffff" stroke="black" cx="48.0957" cy="-316.287" rx="48.1917" ry="18"/>
<text text-anchor="middle" x="48.0957" y="-312.587" font-family="Times,serif" font-size="14.00" fill="#880000">AS199236</text>
</a>
</g>
</g>
<!-- AS1764 -->
<g id="node2" class="node"><title>AS1764</title>
<g id="a_node2"><a xlink:href="/asn/1764" xlink:title="AS1764 ~ NEXTLAYER&#45;AS [AT]">
<ellipse fill="#ffffff" stroke="black" cx="171.838" cy="-360.287" rx="39.7935" ry="18"/>
<text text-anchor="middle" x="171.838" y="-356.587" font-family="Times,serif" font-size="14.00" fill="#2c94b3">AS1764</text>
</a>
</g>
</g>
<!-- AS199236&#45;&gt;AS1764 -->
<g id="edge1" class="edge"><title>AS199236&#45;&gt;AS1764</title>
<path fill="none" stroke="black" stroke-width="4.5" d="M83.3317,-328.66C97.9854,-333.956 115.204,-340.18 130.474,-345.698"/>
<polygon fill="black" stroke="black" stroke-width="4.5" points="129.437,-349.51 140.18,-349.206 132.114,-342.104 129.437,-349.51"/>
</g>
<!-- AS8218 -->
<g id="node3" class="node"><title>AS8218</title>
<g id="a_node3"><a xlink:href="/asn/8218" xlink:title="AS8218 ~ legacy Neotelecoms [FR]">
<ellipse fill="#ffffff" stroke="black" cx="171.838" cy="-230.287" rx="39.7935" ry="18"/>
<text text-anchor="middle" x="171.838" y="-226.587" font-family="Times,serif" font-size="14.00" fill="#2c94b3">AS8218</text>
</a>
</g>
</g>
<!-- AS199236&#45;&gt;AS8218 -->
<g id="edge2" class="edge"><title>AS199236&#45;&gt;AS8218</title>
<path fill="none" stroke="black" stroke-width="2.63793" d="M71.4251,-300.513C90.9727,-286.704 119.529,-266.532 141.025,-251.347"/>
<polygon fill="black" stroke="black" stroke-width="2.63793" points="143.318,-254.012 149.467,-245.384 139.28,-248.295 143.318,-254.012"/>
</g>
<!-- AS3356 -->
<g id="node4" class="node"><title>AS3356</title>
<g id="a_node4"><a xlink:href="/asn/3356" xlink:title="AS3356 ~ Level 3 Parent, LLC [US]">
<ellipse fill="#ffffff" stroke="black" cx="287.131" cy="-549.287" rx="39.7935" ry="18"/>
<text text-anchor="middle" x="287.131" y="-545.587" font-family="Times,serif" font-size="14.00" fill="#2c94b3">AS3356</text>
</a>
</g>
</g>
<!-- AS1764&#45;&gt;AS3356 -->
<g id="edge3" class="edge"><title>AS1764&#45;&gt;AS3356</title>
<path fill="none" stroke="black" stroke-width="3" d="M177.712,-378.288C187.026,-410.13 209.843,-477.267 247.484,-522.287 249.355,-524.524 251.453,-526.661 253.679,-528.683"/>
<polygon fill="black" stroke="black" stroke-width="3" points="251.623,-531.521 261.598,-535.09 256.026,-526.079 251.623,-531.521"/>
</g>
<!-- AS2914 -->
<g id="node5" class="node"><title>AS2914</title>
<g id="a_node5"><a xlink:href="/asn/2914" xlink:title="AS2914 ~ NTT America, Inc. [US]">
<ellipse fill="#ffffff" stroke="black" cx="287.131" cy="-495.287" rx="39.7935" ry="18"/>
<text text-anchor="middle" x="287.131" y="-491.587" font-family="Times,serif" font-size="14.00" fill="#2c94b3">AS2914</text>
</a>
</g>
</g>
<!-- AS1764&#45;&gt;AS2914 -->
<g id="edge4" class="edge"><title>AS1764&#45;&gt;AS2914</title>
<path fill="none" stroke="black" stroke-width="3" d="M182.298,-377.777C195.08,-400.383 219.512,-440.173 247.484,-468.287 249.595,-470.408 251.891,-472.474 254.277,-474.458"/>
<polygon fill="black" stroke="black" stroke-width="3" points="252.529,-477.528 262.592,-480.843 256.792,-471.976 252.529,-477.528"/>
</g>
<!-- AS174 -->
<g id="node6" class="node"><title>AS174</title>
<g id="a_node6"><a xlink:href="/asn/174" xlink:title="AS174 ~ Cogent Communications [US]">
<ellipse fill="#ffffff" stroke="black" cx="287.131" cy="-333.287" rx="35.194" ry="18"/>
<text text-anchor="middle" x="287.131" y="-329.587" font-family="Times,serif" font-size="14.00" fill="#2c94b3">AS174</text>
</a>
</g>
</g>
<!-- AS1764&#45;&gt;AS174 -->
<g id="edge5" class="edge"><title>AS1764&#45;&gt;AS174</title>
<path fill="none" stroke="black" stroke-width="2.25" d="M207.445,-352.039C219.24,-349.228 232.544,-346.057 244.812,-343.134"/>
<polygon fill="black" stroke="black" stroke-width="2.25" points="245.901,-346.472 254.817,-340.749 244.278,-339.663 245.901,-346.472"/>
</g>
<!-- AS1299 -->
<g id="node7" class="node"><title>AS1299</title>
<g id="a_node7"><a xlink:href="/asn/1299" xlink:title="AS1299 ~ Telia Carrier [EU]">
<ellipse fill="#ffffff" stroke="black" cx="287.131" cy="-279.287" rx="39.7935" ry="18"/>
<text text-anchor="middle" x="287.131" y="-275.587" font-family="Times,serif" font-size="14.00" fill="#2c94b3">AS1299</text>
</a>
</g>
</g>
<!-- AS1764&#45;&gt;AS1299 -->
<g id="edge6" class="edge"><title>AS1764&#45;&gt;AS1299</title>
<path fill="none" stroke="black" stroke-width="3.75" d="M193.686,-345.065C208.62,-334.195 229.234,-319.262 247.484,-306.287 250.305,-304.281 253.248,-302.202 256.196,-300.128"/>
<polygon fill="black" stroke="black" stroke-width="3.75" points="258.242,-302.968 264.421,-294.361 254.223,-297.236 258.242,-302.968"/>
</g>
<!-- AS3320 -->
<g id="node8" class="node"><title>AS3320</title>
<g id="a_node8"><a xlink:href="/asn/3320" xlink:title="AS3320 ~ DTAG [DE]">
<ellipse fill="#ffffff" stroke="black" cx="406.973" cy="-187.287" rx="39.7935" ry="18"/>
<text text-anchor="middle" x="406.973" y="-183.587" font-family="Times,serif" font-size="14.00" fill="#2c94b3">AS3320</text>
</a>
</g>
</g>
<!-- AS1764&#45;&gt;AS3320 -->
<g id="edge7" class="edge"><title>AS1764&#45;&gt;AS3320</title>
<path fill="none" stroke="black" stroke-width="4.5" d="M180.995,-342.606C192.669,-319.052 216.232,-277.436 247.484,-252.287 266.213,-237.215 324.496,-215.256 364.904,-201.12"/>
<polygon fill="black" stroke="black" stroke-width="4.5" points="366.345,-204.788 374.503,-197.791 363.764,-197.348 366.345,-204.788"/>
</g>
<!-- AS3257 -->
<g id="node9" class="node"><title>AS3257</title>
<g id="a_node9"><a xlink:href="/asn/3257" xlink:title="AS3257 ~ GTT [DE]">
<ellipse fill="#ffffff" stroke="black" cx="287.131" cy="-441.287" rx="39.7935" ry="18"/>
<text text-anchor="middle" x="287.131" y="-437.587" font-family="Times,serif" font-size="14.00" fill="#2c94b3">AS3257</text>
</a>
</g>
</g>
<!-- AS1764&#45;&gt;AS3257 -->
<g id="edge8" class="edge"><title>AS1764&#45;&gt;AS3257</title>
<path fill="none" stroke="black" stroke-width="3.75" d="M193.686,-375.509C208.62,-386.378 229.234,-401.311 247.484,-414.287 250.305,-416.292 253.248,-418.371 256.196,-420.446"/>
<polygon fill="black" stroke="black" stroke-width="3.75" points="254.223,-423.337 264.421,-426.212 258.242,-417.605 254.223,-423.337"/>
</g>
<!-- AS6939 -->
<g id="node10" class="node"><title>AS6939</title>
<g id="a_node10"><a xlink:href="/asn/6939" xlink:title="AS6939 ~ Hurricane Electric LLC [US]">
<ellipse fill="#ffffff" stroke="black" cx="287.131" cy="-387.287" rx="39.7935" ry="18"/>
<text text-anchor="middle" x="287.131" y="-383.587" font-family="Times,serif" font-size="14.00" fill="#2c94b3">AS6939</text>
</a>
</g>
</g>
<!-- AS1764&#45;&gt;AS6939 -->
<g id="edge9" class="edge"><title>AS1764&#45;&gt;AS6939</title>
<path fill="none" stroke="black" stroke-width="1.5" d="M207.445,-368.534C218.316,-371.125 230.471,-374.022 241.913,-376.749"/>
<polygon fill="black" stroke="black" stroke-width="1.5" points="241.197,-380.176 251.736,-379.09 242.819,-373.367 241.197,-380.176"/>
</g>
<!-- AS8218&#45;&gt;AS1299 -->
<g id="edge23" class="edge"><title>AS8218&#45;&gt;AS1299</title>
<path fill="none" stroke="black" stroke-width="1.03846" d="M201.134,-242.525C215.463,-248.722 233.052,-256.33 248.505,-263.013"/>
<polygon fill="black" stroke="black" stroke-width="1.03846" points="247.235,-266.277 257.803,-267.034 250.014,-259.852 247.235,-266.277"/>
</g>
<!-- AS6461 -->
<g id="node19" class="node"><title>AS6461</title>
<g id="a_node19"><a xlink:href="/asn/6461" xlink:title="AS6461 ~ Zayo Bandwidth [US]">
<ellipse fill="#ffffff" stroke="black" cx="287.131" cy="-187.287" rx="39.7935" ry="18"/>
<text text-anchor="middle" x="287.131" y="-183.587" font-family="Times,serif" font-size="14.00" fill="#2c94b3">AS6461</text>
</a>
</g>
</g>
<!-- AS8218&#45;&gt;AS6461 -->
<g id="edge22" class="edge"><title>AS8218&#45;&gt;AS6461</title>
<path fill="none" stroke="black" stroke-width="4.5" d="M202.901,-218.876C216.217,-213.822 232.067,-207.807 246.344,-202.387"/>
<polygon fill="black" stroke="black" stroke-width="4.5" points="247.975,-205.98 255.927,-198.75 245.181,-198.618 247.975,-205.98"/>
</g>
<!-- AS1273 -->
<g id="node20" class="node"><title>AS1273</title>
<g id="a_node20"><a xlink:href="/asn/1273" xlink:title="AS1273 ~ Vodafone Group PLC [EU]">
<ellipse fill="#ffffff" stroke="black" cx="287.131" cy="-133.287" rx="39.7935" ry="18"/>
<text text-anchor="middle" x="287.131" y="-129.587" font-family="Times,serif" font-size="14.00" fill="#2c94b3">AS1273</text>
</a>
</g>
</g>
<!-- AS8218&#45;&gt;AS1273 -->
<g id="edge24" class="edge"><title>AS8218&#45;&gt;AS1273</title>
<path fill="none" stroke="black" stroke-width="0.346154" d="M188.826,-214.013C203.54,-199.354 226.237,-177.523 247.484,-160.287 250.027,-158.224 252.718,-156.147 255.45,-154.11"/>
<polygon fill="black" stroke="black" stroke-width="0.346154" points="257.605,-156.871 263.658,-148.175 253.504,-151.198 257.605,-156.871"/>
</g>
<!-- AS2497 -->
<g id="node12" class="node"><title>AS2497</title>
<g id="a_node12"><a xlink:href="/asn/2497" xlink:title="AS2497 ~ Internet Initiative Japan Inc. [JP]">
<ellipse fill="#ffffff" stroke="black" cx="406.973" cy="-441.287" rx="39.7935" ry="18"/>
<text text-anchor="middle" x="406.973" y="-437.587" font-family="Times,serif" font-size="14.00" fill="#2c94b3">AS2497</text>
</a>
</g>
</g>
<!-- AS3356&#45;&gt;AS2497 -->
<g id="edge21" class="edge"><title>AS3356&#45;&gt;AS2497</title>
<path fill="none" stroke="black" d="M310.732,-534.553C316.136,-530.746 321.783,-526.521 326.777,-522.287 347.533,-504.689 368.987,-482.453 384.321,-465.733"/>
<polygon fill="black" stroke="black" points="387.199,-467.769 391.327,-458.012 382.015,-463.065 387.199,-467.769"/>
</g>
<!-- AS3549 -->
<g id="node18" class="node"><title>AS3549</title>
<g id="a_node18"><a xlink:href="/asn/3549" xlink:title="AS3549 ~ Level 3 Parent, LLC [US]">
<ellipse fill="#ffffff" stroke="black" cx="406.973" cy="-549.287" rx="39.7935" ry="18"/>
<text text-anchor="middle" x="406.973" y="-545.587" font-family="Times,serif" font-size="14.00" fill="#2c94b3">AS3549</text>
</a>
</g>
</g>
<!-- AS3356&#45;&gt;AS3549 -->
<g id="edge20" class="edge"><title>AS3356&#45;&gt;AS3549</title>
<path fill="none" stroke="black" d="M327.044,-549.287C336.597,-549.287 346.947,-549.287 356.909,-549.287"/>
<polygon fill="black" stroke="black" points="357.102,-552.787 367.102,-549.287 357.102,-545.787 357.102,-552.787"/>
</g>
<!-- AS6762 -->
<g id="node11" class="node"><title>AS6762</title>
<g id="a_node11"><a xlink:href="/asn/6762" xlink:title="AS6762 ~ TELECOM ITALIA SPARKLE S.p.A. [IT]">
<ellipse fill="#ffffff" stroke="black" cx="406.973" cy="-387.287" rx="39.7935" ry="18"/>
<text text-anchor="middle" x="406.973" y="-383.587" font-family="Times,serif" font-size="14.00" fill="#2c94b3">AS6762</text>
</a>
</g>
</g>
<!-- AS2914&#45;&gt;AS6762 -->
<g id="edge10" class="edge"><title>AS2914&#45;&gt;AS6762</title>
<path fill="none" stroke="black" d="M311.725,-480.897C316.981,-477.139 322.313,-472.85 326.777,-468.287 346.95,-447.669 342.084,-434.381 362.777,-414.287 365.623,-411.524 368.796,-408.9 372.096,-406.452"/>
<polygon fill="black" stroke="black" points="374.162,-409.28 380.444,-400.749 370.213,-403.5 374.162,-409.28"/>
</g>
<!-- AS2914&#45;&gt;AS2497 -->
<g id="edge11" class="edge"><title>AS2914&#45;&gt;AS2497</title>
<path fill="none" stroke="black" d="M315.76,-482.626C331.717,-475.314 351.987,-466.025 369.27,-458.106"/>
<polygon fill="black" stroke="black" points="370.885,-461.216 378.518,-453.868 367.969,-454.852 370.885,-461.216"/>
</g>
<!-- AS209 -->
<g id="node14" class="node"><title>AS209</title>
<g id="a_node14"><a xlink:href="/asn/209" xlink:title="AS209 ~ CenturyLink Communications, LLC [US]">
<ellipse fill="#ffffff" stroke="black" cx="406.973" cy="-333.287" rx="35.194" ry="18"/>
<text text-anchor="middle" x="406.973" y="-329.587" font-family="Times,serif" font-size="14.00" fill="#2c94b3">AS209</text>
</a>
</g>
</g>
<!-- AS174&#45;&gt;AS209 -->
<g id="edge34" class="edge"><title>AS174&#45;&gt;AS209</title>
<path fill="none" stroke="black" d="M322.533,-333.287C334.755,-333.287 348.69,-333.287 361.625,-333.287"/>
<polygon fill="black" stroke="black" points="361.733,-336.787 371.733,-333.287 361.733,-329.787 361.733,-336.787"/>
</g>
<!-- AS1299&#45;&gt;AS6762 -->
<g id="edge12" class="edge"><title>AS1299&#45;&gt;AS6762</title>
<path fill="none" stroke="black" d="M311.725,-293.676C316.981,-297.434 322.313,-301.723 326.777,-306.287 346.95,-326.904 342.084,-340.192 362.777,-360.287 365.623,-363.049 368.796,-365.673 372.096,-368.121"/>
<polygon fill="black" stroke="black" points="370.213,-371.073 380.444,-373.824 374.162,-365.293 370.213,-371.073"/>
</g>
<!-- AS7018 -->
<g id="node13" class="node"><title>AS7018</title>
<g id="a_node13"><a xlink:href="/asn/7018" xlink:title="AS7018 ~ AT&amp;T Services, Inc. [US]">
<ellipse fill="#ffffff" stroke="black" cx="406.973" cy="-279.287" rx="39.7935" ry="18"/>
<text text-anchor="middle" x="406.973" y="-275.587" font-family="Times,serif" font-size="14.00" fill="#2c94b3">AS7018</text>
</a>
</g>
</g>
<!-- AS1299&#45;&gt;AS7018 -->
<g id="edge13" class="edge"><title>AS1299&#45;&gt;AS7018</title>
<path fill="none" stroke="black" stroke-width="2" d="M327.044,-279.287C336.597,-279.287 346.947,-279.287 356.909,-279.287"/>
<polygon fill="black" stroke="black" stroke-width="2" points="357.102,-282.787 367.102,-279.287 357.102,-275.787 357.102,-282.787"/>
</g>
<!-- AS1299&#45;&gt;AS209 -->
<g id="edge14" class="edge"><title>AS1299&#45;&gt;AS209</title>
<path fill="none" stroke="black" d="M315.76,-291.947C332.176,-299.47 353.158,-309.084 370.754,-317.148"/>
<polygon fill="black" stroke="black" points="369.583,-320.461 380.132,-321.445 372.499,-314.097 369.583,-320.461"/>
</g>
<!-- AS701 -->
<g id="node15" class="node"><title>AS701</title>
<g id="a_node15"><a xlink:href="/asn/701" xlink:title="AS701 ~ UUNET [US]">
<ellipse fill="#ffffff" stroke="black" cx="526.816" cy="-121.287" rx="35.194" ry="18"/>
<text text-anchor="middle" x="526.816" y="-117.587" font-family="Times,serif" font-size="14.00" fill="#2c94b3">AS701</text>
</a>
</g>
</g>
<!-- AS3320&#45;&gt;AS701 -->
<g id="edge15" class="edge"><title>AS3320&#45;&gt;AS701</title>
<path fill="none" stroke="black" stroke-width="2" d="M432.677,-173.451C450.309,-163.576 474.197,-150.197 493.366,-139.461"/>
<polygon fill="black" stroke="black" stroke-width="2" points="495.335,-142.37 502.349,-134.43 491.914,-136.263 495.335,-142.37"/>
</g>
<!-- AS1239 -->
<g id="node16" class="node"><title>AS1239</title>
<g id="a_node16"><a xlink:href="/asn/1239" xlink:title="AS1239 ~ Sprint [US]">
<ellipse fill="#ffffff" stroke="black" cx="526.816" cy="-210.287" rx="39.7935" ry="18"/>
<text text-anchor="middle" x="526.816" y="-206.587" font-family="Times,serif" font-size="14.00" fill="#2c94b3">AS1239</text>
</a>
</g>
</g>
<!-- AS3320&#45;&gt;AS1239 -->
<g id="edge16" class="edge"><title>AS3320&#45;&gt;AS1239</title>
<path fill="none" stroke="black" d="M443.65,-194.25C455.081,-196.481 467.903,-198.983 479.957,-201.336"/>
<polygon fill="black" stroke="black" points="479.369,-204.787 489.854,-203.268 480.71,-197.917 479.369,-204.787"/>
</g>
<!-- AS6453 -->
<g id="node17" class="node"><title>AS6453</title>
<g id="a_node17"><a xlink:href="/asn/6453" xlink:title="AS6453 ~ TATA COMMUNICATIONS (AMERICA) INC [US]">
<ellipse fill="#ffffff" stroke="black" cx="526.816" cy="-48.2866" rx="39.7935" ry="18"/>
<text text-anchor="middle" x="526.816" y="-44.5866" font-family="Times,serif" font-size="14.00" fill="#2c94b3">AS6453</text>
</a>
</g>
</g>
<!-- AS3320&#45;&gt;AS6453 -->
<g id="edge17" class="edge"><title>AS3320&#45;&gt;AS6453</title>
<path fill="none" stroke="black" stroke-width="2" d="M434.271,-173.85C440.279,-170.003 446.317,-165.436 451.17,-160.287 474.086,-135.97 468.329,-121.882 487.17,-94.2866 492.049,-87.1395 497.825,-79.7933 503.404,-73.1278"/>
<polygon fill="black" stroke="black" stroke-width="2" points="506.425,-74.9825 510.283,-65.1151 501.113,-70.4228 506.425,-74.9825"/>
</g>
<!-- AS3257&#45;&gt;AS6762 -->
<g id="edge19" class="edge"><title>AS3257&#45;&gt;AS6762</title>
<path fill="none" stroke="black" d="M315.76,-428.626C331.717,-421.314 351.987,-412.025 369.27,-404.106"/>
<polygon fill="black" stroke="black" points="370.885,-407.216 378.518,-399.868 367.969,-400.852 370.885,-407.216"/>
</g>
<!-- AS3257&#45;&gt;AS2497 -->
<g id="edge18" class="edge"><title>AS3257&#45;&gt;AS2497</title>
<path fill="none" stroke="black" stroke-width="2" d="M327.044,-441.287C336.597,-441.287 346.947,-441.287 356.909,-441.287"/>
<polygon fill="black" stroke="black" stroke-width="2" points="357.102,-444.787 367.102,-441.287 357.102,-437.787 357.102,-444.787"/>
</g>
<!-- AS6939&#45;&gt;AS6762 -->
<g id="edge36" class="edge"><title>AS6939&#45;&gt;AS6762</title>
<path fill="none" stroke="black" d="M327.044,-387.287C336.597,-387.287 346.947,-387.287 356.909,-387.287"/>
<polygon fill="black" stroke="black" points="357.102,-390.787 367.102,-387.287 357.102,-383.787 357.102,-390.787"/>
</g>
<!-- AS6939&#45;&gt;AS2497 -->
<g id="edge35" class="edge"><title>AS6939&#45;&gt;AS2497</title>
<path fill="none" stroke="black" d="M315.76,-399.947C331.717,-407.259 351.987,-416.548 369.27,-424.468"/>
<polygon fill="black" stroke="black" points="367.969,-427.721 378.518,-428.705 370.885,-421.358 367.969,-427.721"/>
</g>
<!-- AS6461&#45;&gt;AS3320 -->
<g id="edge27" class="edge"><title>AS6461&#45;&gt;AS3320</title>
<path fill="none" stroke="black" d="M327.044,-187.287C336.597,-187.287 346.947,-187.287 356.909,-187.287"/>
<polygon fill="black" stroke="black" points="357.102,-190.787 367.102,-187.287 357.102,-183.787 357.102,-190.787"/>
</g>
<!-- AS6461&#45;&gt;AS6762 -->
<g id="edge25" class="edge"><title>AS6461&#45;&gt;AS6762</title>
<path fill="none" stroke="black" stroke-width="2" d="M299.682,-204.391C307.979,-217.189 319.021,-235.334 326.777,-252.287 347.827,-298.296 331.479,-320.533 362.777,-360.287 365.102,-363.24 367.846,-365.957 370.805,-368.434"/>
<polygon fill="black" stroke="black" stroke-width="2" points="368.865,-371.351 379.002,-374.431 372.998,-365.702 368.865,-371.351"/>
</g>
<!-- AS6461&#45;&gt;AS2497 -->
<g id="edge26" class="edge"><title>AS6461&#45;&gt;AS2497</title>
<path fill="none" stroke="black" stroke-width="2" d="M300.389,-204.435C308.923,-217.108 319.953,-235.079 326.777,-252.287 353.967,-320.849 320.198,-354.062 362.777,-414.287 364.769,-417.103 367.156,-419.688 369.772,-422.046"/>
<polygon fill="black" stroke="black" stroke-width="2" points="368.071,-425.152 378.14,-428.448 372.324,-419.592 368.071,-425.152"/>
</g>
<!-- AS6461&#45;&gt;AS7018 -->
<g id="edge30" class="edge"><title>AS6461&#45;&gt;AS7018</title>
<path fill="none" stroke="black" d="M307.298,-203.037C322.279,-215.264 343.692,-232.556 362.777,-247.287 367.303,-250.779 372.135,-254.433 376.869,-257.97"/>
<polygon fill="black" stroke="black" points="375.08,-261 385.196,-264.151 379.252,-255.38 375.08,-261"/>
</g>
<!-- AS6461&#45;&gt;AS701 -->
<g id="edge32" class="edge"><title>AS6461&#45;&gt;AS701</title>
<path fill="none" stroke="black" d="M311.725,-172.897C316.981,-169.139 322.313,-164.85 326.777,-160.287 346.95,-139.669 337.346,-119.897 362.777,-106.287 402.124,-85.2288 454.532,-95.6419 489.181,-106.845"/>
<polygon fill="black" stroke="black" points="488.298,-110.242 498.893,-110.156 490.557,-103.616 488.298,-110.242"/>
</g>
<!-- AS6461&#45;&gt;AS1239 -->
<g id="edge29" class="edge"><title>AS6461&#45;&gt;AS1239</title>
<path fill="none" stroke="black" d="M315.856,-199.918C329.649,-205.523 346.76,-211.479 362.777,-214.287 401.28,-221.036 445.672,-219.342 478.403,-216.349"/>
<polygon fill="black" stroke="black" points="478.991,-219.808 488.598,-215.341 478.302,-212.842 478.991,-219.808"/>
</g>
<!-- AS6461&#45;&gt;AS6453 -->
<g id="edge28" class="edge"><title>AS6461&#45;&gt;AS6453</title>
<path fill="none" stroke="black" d="M313.362,-173.62C318.422,-169.879 323.258,-165.416 326.777,-160.287 364.589,-105.179 310.166,-55.501 362.777,-14.2866 401.014,15.6672 459.274,-8.33117 494.813,-28.3727"/>
<polygon fill="black" stroke="black" points="493.367,-31.5815 503.766,-33.6094 496.901,-25.5392 493.367,-31.5815"/>
</g>
<!-- AS3491 -->
<g id="node21" class="node"><title>AS3491</title>
<g id="a_node21"><a xlink:href="/asn/3491" xlink:title="AS3491 ~ PCCW Global, Inc. [US]">
<ellipse fill="#ffffff" stroke="black" cx="406.973" cy="-133.287" rx="39.7935" ry="18"/>
<text text-anchor="middle" x="406.973" y="-129.587" font-family="Times,serif" font-size="14.00" fill="#2c94b3">AS3491</text>
</a>
</g>
</g>
<!-- AS6461&#45;&gt;AS3491 -->
<g id="edge31" class="edge"><title>AS6461&#45;&gt;AS3491</title>
<path fill="none" stroke="black" d="M315.76,-174.626C331.717,-167.314 351.987,-158.025 369.27,-150.106"/>
<polygon fill="black" stroke="black" points="370.885,-153.216 378.518,-145.868 367.969,-146.852 370.885,-153.216"/>
</g>
<!-- AS12956 -->
<g id="node22" class="node"><title>AS12956</title>
<g id="a_node22"><a xlink:href="/asn/12956" xlink:title="AS12956 ~ TELXIUS [ES]">
<ellipse fill="#ffffff" stroke="black" cx="406.973" cy="-41.2866" rx="44.393" ry="18"/>
<text text-anchor="middle" x="406.973" y="-37.5866" font-family="Times,serif" font-size="14.00" fill="#2c94b3">AS12956</text>
</a>
</g>
</g>
<!-- AS6461&#45;&gt;AS12956 -->
<g id="edge33" class="edge"><title>AS6461&#45;&gt;AS12956</title>
<path fill="none" stroke="black" d="M312.804,-173.206C317.894,-169.486 322.882,-165.136 326.777,-160.287 352.981,-127.66 337.029,-106.274 362.777,-73.2866 365.778,-69.4426 369.353,-65.8346 373.143,-62.5266"/>
<polygon fill="black" stroke="black" points="375.471,-65.1472 381.11,-56.1779 371.108,-59.6729 375.471,-65.1472"/>
</g>
</g>
</svg>
