<?xml version="1.0" encoding="UTF-8" standalone="no"?>
<!DOCTYPE svg PUBLIC "-//W3C//DTD SVG 1.1//EN"
 "http://www.w3.org/Graphics/SVG/1.1/DTD/svg11.dtd">
<!-- Generated by graphviz version 2.38.0 (20140413.2041)
 -->
<!-- Title: AS25522 Combined Upstream Graph Pages: 1 -->
<svg width="442pt" height="622pt"
 viewBox="0.00 0.00 442.27 622.00" xmlns="http://www.w3.org/2000/svg" xmlns:xlink="http://www.w3.org/1999/xlink">
<g id="graph0" class="graph" transform="scale(1 1) rotate(0) translate(4 618)">
<title>AS25522 Combined Upstream Graph</title>
<polygon fill="white" stroke="none" points="-4,4 -4,-618 438.271,-618 438.271,4 -4,4"/>
<!-- AS25522 -->
<g id="node1" class="node"><title>AS25522</title>
<g id="a_node1"><a xlink:href="/asn/25522" xlink:title="AS25522 ~ Travelport Austria GmbH [AT]">
<ellipse fill="#ffffff" stroke="black" cx="44.1961" cy="-330" rx="44.393" ry="18"/>
<text text-anchor="middle" x="44.1961" y="-326.3" font-family="Times,serif" font-size="14.00" fill="#880000">AS25522</text>
</a>
</g>
</g>
<!-- AS1764 -->
<g id="node2" class="node"><title>AS1764</title>
<g id="a_node2"><a xlink:href="/asn/1764" xlink:title="AS1764 ~ NEXTLAYER&#45;AS [AT]">
<ellipse fill="#ffffff" stroke="black" cx="164.039" cy="-434" rx="39.7935" ry="18"/>
<text text-anchor="middle" x="164.039" y="-430.3" font-family="Times,serif" font-size="14.00" fill="#2c94b3">AS1764</text>
</a>
</g>
</g>
<!-- AS25522&#45;&gt;AS1764 -->
<g id="edge1" class="edge"><title>AS25522&#45;&gt;AS1764</title>
<path fill="none" stroke="black" stroke-width="4.5" d="M63.609,-346.25C83.3262,-363.651 114.773,-391.404 137.016,-411.034"/>
<polygon fill="black" stroke="black" stroke-width="4.5" points="134.652,-414.199 144.755,-417.864 139.863,-408.295 134.652,-414.199"/>
</g>
<!-- AS8220 -->
<g id="node3" class="node"><title>AS8220</title>
<g id="a_node3"><a xlink:href="/asn/8220" xlink:title="AS8220 ~ COLT [GB]">
<ellipse fill="#ffffff" stroke="black" cx="164.039" cy="-226" rx="39.7935" ry="18"/>
<text text-anchor="middle" x="164.039" y="-222.3" font-family="Times,serif" font-size="14.00" fill="#2c94b3">AS8220</text>
</a>
</g>
</g>
<!-- AS25522&#45;&gt;AS8220 -->
<g id="edge2" class="edge"><title>AS25522&#45;&gt;AS8220</title>
<path fill="none" stroke="black" stroke-width="3.375" d="M63.609,-313.75C83.3262,-296.349 114.773,-268.596 137.016,-248.966"/>
<polygon fill="black" stroke="black" stroke-width="3.375" points="139.573,-251.377 144.755,-242.136 134.941,-246.129 139.573,-251.377"/>
</g>
<!-- AS8218 -->
<g id="node4" class="node"><title>AS8218</title>
<g id="a_node4"><a xlink:href="/asn/8218" xlink:title="AS8218 ~ legacy Neotelecoms [FR]">
<ellipse fill="#ffffff" stroke="black" cx="279.332" cy="-596" rx="39.7935" ry="18"/>
<text text-anchor="middle" x="279.332" y="-592.3" font-family="Times,serif" font-size="14.00" fill="#2c94b3">AS8218</text>
</a>
</g>
</g>
<!-- AS1764&#45;&gt;AS8218 -->
<g id="edge3" class="edge"><title>AS1764&#45;&gt;AS8218</title>
<path fill="none" stroke="black" stroke-width="1.8" d="M171.786,-451.787C182.837,-479.243 206.891,-532.578 239.685,-569 241.688,-571.224 243.906,-573.363 246.239,-575.397"/>
<polygon fill="black" stroke="black" stroke-width="1.8" points="244.437,-578.433 254.458,-581.873 248.769,-572.935 244.437,-578.433"/>
</g>
<!-- AS174 -->
<g id="node5" class="node"><title>AS174</title>
<g id="a_node5"><a xlink:href="/asn/174" xlink:title="AS174 ~ Cogent Communications [US]">
<ellipse fill="#ffffff" stroke="black" cx="279.332" cy="-542" rx="35.194" ry="18"/>
<text text-anchor="middle" x="279.332" y="-538.3" font-family="Times,serif" font-size="14.00" fill="#2c94b3">AS174</text>
</a>
</g>
</g>
<!-- AS1764&#45;&gt;AS174 -->
<g id="edge4" class="edge"><title>AS1764&#45;&gt;AS174</title>
<path fill="none" stroke="black" stroke-width="3.6" d="M178.669,-450.817C192.951,-467.929 216.498,-494.745 239.685,-515 242.355,-517.332 245.228,-519.648 248.158,-521.886"/>
<polygon fill="black" stroke="black" stroke-width="3.6" points="246.309,-524.87 256.449,-527.939 250.436,-519.216 246.309,-524.87"/>
</g>
<!-- AS3257 -->
<g id="node6" class="node"><title>AS3257</title>
<g id="a_node6"><a xlink:href="/asn/3257" xlink:title="AS3257 ~ GTT [DE]">
<ellipse fill="#ffffff" stroke="black" cx="279.332" cy="-326" rx="39.7935" ry="18"/>
<text text-anchor="middle" x="279.332" y="-322.3" font-family="Times,serif" font-size="14.00" fill="#2c94b3">AS3257</text>
</a>
</g>
</g>
<!-- AS1764&#45;&gt;AS3257 -->
<g id="edge5" class="edge"><title>AS1764&#45;&gt;AS3257</title>
<path fill="none" stroke="black" stroke-width="4.5" d="M178.669,-417.183C192.951,-400.071 216.498,-373.255 239.685,-353 242.151,-350.846 244.789,-348.706 247.487,-346.628"/>
<polygon fill="black" stroke="black" stroke-width="4.5" points="249.919,-349.727 255.641,-340.63 245.252,-343.384 249.919,-349.727"/>
</g>
<!-- AS3356 -->
<g id="node7" class="node"><title>AS3356</title>
<g id="a_node7"><a xlink:href="/asn/3356" xlink:title="AS3356 ~ Level 3 Parent, LLC [US]">
<ellipse fill="#ffffff" stroke="black" cx="279.332" cy="-272" rx="39.7935" ry="18"/>
<text text-anchor="middle" x="279.332" y="-268.3" font-family="Times,serif" font-size="14.00" fill="#2c94b3">AS3356</text>
</a>
</g>
</g>
<!-- AS1764&#45;&gt;AS3356 -->
<g id="edge6" class="edge"><title>AS1764&#45;&gt;AS3356</title>
<path fill="none" stroke="black" stroke-width="4.5" d="M171.786,-416.213C182.837,-388.757 206.891,-335.422 239.685,-299 241.688,-296.776 243.906,-294.637 246.239,-292.603"/>
<polygon fill="black" stroke="black" stroke-width="4.5" points="249.04,-295.409 254.458,-286.127 244.166,-289.223 249.04,-295.409"/>
</g>
<!-- AS2914 -->
<g id="node8" class="node"><title>AS2914</title>
<g id="a_node8"><a xlink:href="/asn/2914" xlink:title="AS2914 ~ NTT America, Inc. [US]">
<ellipse fill="#ffffff" stroke="black" cx="279.332" cy="-434" rx="39.7935" ry="18"/>
<text text-anchor="middle" x="279.332" y="-430.3" font-family="Times,serif" font-size="14.00" fill="#2c94b3">AS2914</text>
</a>
</g>
</g>
<!-- AS1764&#45;&gt;AS2914 -->
<g id="edge7" class="edge"><title>AS1764&#45;&gt;AS2914</title>
<path fill="none" stroke="black" stroke-width="2.7" d="M203.711,-434C211.914,-434 220.678,-434 229.21,-434"/>
<polygon fill="black" stroke="black" stroke-width="2.7" points="229.449,-437.5 239.449,-434 229.449,-430.5 229.449,-437.5"/>
</g>
<!-- AS6939 -->
<g id="node9" class="node"><title>AS6939</title>
<g id="a_node9"><a xlink:href="/asn/6939" xlink:title="AS6939 ~ Hurricane Electric LLC [US]">
<ellipse fill="#ffffff" stroke="black" cx="279.332" cy="-488" rx="39.7935" ry="18"/>
<text text-anchor="middle" x="279.332" y="-484.3" font-family="Times,serif" font-size="14.00" fill="#2c94b3">AS6939</text>
</a>
</g>
</g>
<!-- AS1764&#45;&gt;AS6939 -->
<g id="edge8" class="edge"><title>AS1764&#45;&gt;AS6939</title>
<path fill="none" stroke="black" stroke-width="0.9" d="M192.175,-446.934C207.169,-454.081 225.99,-463.052 242.213,-470.785"/>
<polygon fill="black" stroke="black" stroke-width="0.9" points="240.884,-474.028 251.417,-475.171 243.895,-467.709 240.884,-474.028"/>
</g>
<!-- AS8220&#45;&gt;AS3356 -->
<g id="edge20" class="edge"><title>AS8220&#45;&gt;AS3356</title>
<path fill="none" stroke="black" stroke-width="3.6" d="M194.214,-237.846C208.09,-243.48 224.867,-250.292 239.776,-256.346"/>
<polygon fill="black" stroke="black" stroke-width="3.6" points="238.673,-259.675 249.255,-260.194 241.306,-253.189 238.673,-259.675"/>
</g>
<!-- AS8220&#45;&gt;AS6939 -->
<g id="edge24" class="edge"><title>AS8220&#45;&gt;AS6939</title>
<path fill="none" stroke="black" stroke-width="0.9" d="M166.798,-243.97C171.675,-285.824 188.57,-391.52 239.685,-461 241.413,-463.349 243.408,-465.567 245.563,-467.645"/>
<polygon fill="black" stroke="black" stroke-width="0.9" points="243.432,-470.425 253.348,-474.157 247.924,-465.056 243.432,-470.425"/>
</g>
<!-- AS2497 -->
<g id="node12" class="node"><title>AS2497</title>
<g id="a_node12"><a xlink:href="/asn/2497" xlink:title="AS2497 ~ Internet Initiative Japan Inc. [JP]">
<ellipse fill="#ffffff" stroke="black" cx="394.625" cy="-326" rx="39.7935" ry="18"/>
<text text-anchor="middle" x="394.625" y="-322.3" font-family="Times,serif" font-size="14.00" fill="#2c94b3">AS2497</text>
</a>
</g>
</g>
<!-- AS8220&#45;&gt;AS2497 -->
<g id="edge21" class="edge"><title>AS8220&#45;&gt;AS2497</title>
<path fill="none" stroke="black" stroke-width="0.9" d="M203.041,-222.232C236.091,-220.822 284.029,-223.438 318.978,-245 343.526,-260.145 334.806,-278.383 354.978,-299 357.071,-301.139 359.354,-303.218 361.731,-305.21"/>
<polygon fill="black" stroke="black" stroke-width="0.9" points="359.974,-308.275 370.031,-311.611 364.249,-302.732 359.974,-308.275"/>
</g>
<!-- AS1299 -->
<g id="node18" class="node"><title>AS1299</title>
<g id="a_node18"><a xlink:href="/asn/1299" xlink:title="AS1299 ~ Telia Carrier [EU]">
<ellipse fill="#ffffff" stroke="black" cx="279.332" cy="-380" rx="39.7935" ry="18"/>
<text text-anchor="middle" x="279.332" y="-376.3" font-family="Times,serif" font-size="14.00" fill="#2c94b3">AS1299</text>
</a>
</g>
</g>
<!-- AS8220&#45;&gt;AS1299 -->
<g id="edge19" class="edge"><title>AS8220&#45;&gt;AS1299</title>
<path fill="none" stroke="black" stroke-width="4.5" d="M172.606,-243.996C184.226,-270.143 208.435,-319.197 239.685,-353 241.717,-355.197 243.956,-357.318 246.303,-359.339"/>
<polygon fill="black" stroke="black" stroke-width="4.5" points="244.246,-362.729 254.548,-365.791 249.099,-356.527 244.246,-362.729"/>
</g>
<!-- AS5511 -->
<g id="node19" class="node"><title>AS5511</title>
<g id="a_node19"><a xlink:href="/asn/5511" xlink:title="AS5511 ~ Orange S.A. [FR]">
<ellipse fill="#ffffff" stroke="black" cx="279.332" cy="-180" rx="39.7935" ry="18"/>
<text text-anchor="middle" x="279.332" y="-176.3" font-family="Times,serif" font-size="14.00" fill="#2c94b3">AS5511</text>
</a>
</g>
</g>
<!-- AS8220&#45;&gt;AS5511 -->
<g id="edge22" class="edge"><title>AS8220&#45;&gt;AS5511</title>
<path fill="none" stroke="black" stroke-width="0.9" d="M194.214,-214.154C208.09,-208.52 224.867,-201.708 239.776,-195.654"/>
<polygon fill="black" stroke="black" stroke-width="0.9" points="241.306,-198.811 249.255,-191.806 238.673,-192.325 241.306,-198.811"/>
</g>
<!-- AS1273 -->
<g id="node20" class="node"><title>AS1273</title>
<g id="a_node20"><a xlink:href="/asn/1273" xlink:title="AS1273 ~ Vodafone Group PLC [EU]">
<ellipse fill="#ffffff" stroke="black" cx="279.332" cy="-126" rx="39.7935" ry="18"/>
<text text-anchor="middle" x="279.332" y="-122.3" font-family="Times,serif" font-size="14.00" fill="#2c94b3">AS1273</text>
</a>
</g>
</g>
<!-- AS8220&#45;&gt;AS1273 -->
<g id="edge23" class="edge"><title>AS8220&#45;&gt;AS1273</title>
<path fill="none" stroke="black" stroke-width="0.9" d="M180.344,-209.545C194.957,-194.204 217.913,-171.044 239.685,-153 242.206,-150.911 244.882,-148.816 247.604,-146.767"/>
<polygon fill="black" stroke="black" stroke-width="0.9" points="249.765,-149.523 255.797,-140.813 245.65,-143.861 249.765,-149.523"/>
</g>
<!-- AS6453 -->
<g id="node21" class="node"><title>AS6453</title>
<g id="a_node21"><a xlink:href="/asn/6453" xlink:title="AS6453 ~ TATA COMMUNICATIONS (AMERICA) INC [US]">
<ellipse fill="#ffffff" stroke="black" cx="279.332" cy="-72" rx="39.7935" ry="18"/>
<text text-anchor="middle" x="279.332" y="-68.3" font-family="Times,serif" font-size="14.00" fill="#2c94b3">AS6453</text>
</a>
</g>
</g>
<!-- AS8220&#45;&gt;AS6453 -->
<g id="edge25" class="edge"><title>AS8220&#45;&gt;AS6453</title>
<path fill="none" stroke="black" stroke-width="0.9" d="M172.606,-208.004C184.226,-181.857 208.435,-132.803 239.685,-99 241.717,-96.8026 243.956,-94.6822 246.303,-92.6615"/>
<polygon fill="black" stroke="black" stroke-width="0.9" points="248.83,-95.1283 254.548,-86.2088 244.515,-89.6158 248.83,-95.1283"/>
</g>
<!-- AS3491 -->
<g id="node22" class="node"><title>AS3491</title>
<g id="a_node22"><a xlink:href="/asn/3491" xlink:title="AS3491 ~ PCCW Global, Inc. [US]">
<ellipse fill="#ffffff" stroke="black" cx="279.332" cy="-18" rx="39.7935" ry="18"/>
<text text-anchor="middle" x="279.332" y="-14.3" font-family="Times,serif" font-size="14.00" fill="#2c94b3">AS3491</text>
</a>
</g>
</g>
<!-- AS8220&#45;&gt;AS3491 -->
<g id="edge26" class="edge"><title>AS8220&#45;&gt;AS3491</title>
<path fill="none" stroke="black" stroke-width="0.9" d="M168.855,-208.077C176.942,-173.461 198.529,-96.3051 239.685,-45 241.51,-42.7256 243.575,-40.5613 245.778,-38.5205"/>
<polygon fill="black" stroke="black" stroke-width="0.9" points="248.13,-41.1185 253.654,-32.0775 243.698,-35.7005 248.13,-41.1185"/>
</g>
<!-- AS6461 -->
<g id="node10" class="node"><title>AS6461</title>
<g id="a_node10"><a xlink:href="/asn/6461" xlink:title="AS6461 ~ Zayo Bandwidth [US]">
<ellipse fill="#ffffff" stroke="black" cx="394.625" cy="-596" rx="39.7935" ry="18"/>
<text text-anchor="middle" x="394.625" y="-592.3" font-family="Times,serif" font-size="14.00" fill="#2c94b3">AS6461</text>
</a>
</g>
</g>
<!-- AS8218&#45;&gt;AS6461 -->
<g id="edge9" class="edge"><title>AS8218&#45;&gt;AS6461</title>
<path fill="none" stroke="black" stroke-width="2" d="M319.004,-596C327.207,-596 335.971,-596 344.503,-596"/>
<polygon fill="black" stroke="black" stroke-width="2" points="344.742,-599.5 354.742,-596 344.742,-592.5 344.742,-599.5"/>
</g>
<!-- AS1239 -->
<g id="node16" class="node"><title>AS1239</title>
<g id="a_node16"><a xlink:href="/asn/1239" xlink:title="AS1239 ~ Sprint [US]">
<ellipse fill="#ffffff" stroke="black" cx="394.625" cy="-488" rx="39.7935" ry="18"/>
<text text-anchor="middle" x="394.625" y="-484.3" font-family="Times,serif" font-size="14.00" fill="#2c94b3">AS1239</text>
</a>
</g>
</g>
<!-- AS174&#45;&gt;AS1239 -->
<g id="edge16" class="edge"><title>AS174&#45;&gt;AS1239</title>
<path fill="none" stroke="black" d="M305.757,-529.881C321.059,-522.587 340.783,-513.186 357.665,-505.14"/>
<polygon fill="black" stroke="black" points="359.184,-508.293 366.705,-500.831 356.172,-501.974 359.184,-508.293"/>
</g>
<!-- AS209 -->
<g id="node17" class="node"><title>AS209</title>
<g id="a_node17"><a xlink:href="/asn/209" xlink:title="AS209 ~ CenturyLink Communications, LLC [US]">
<ellipse fill="#ffffff" stroke="black" cx="394.625" cy="-542" rx="35.194" ry="18"/>
<text text-anchor="middle" x="394.625" y="-538.3" font-family="Times,serif" font-size="14.00" fill="#2c94b3">AS209</text>
</a>
</g>
</g>
<!-- AS174&#45;&gt;AS209 -->
<g id="edge17" class="edge"><title>AS174&#45;&gt;AS209</title>
<path fill="none" stroke="black" d="M314.631,-542C325.501,-542 337.678,-542 349.156,-542"/>
<polygon fill="black" stroke="black" points="349.442,-545.5 359.442,-542 349.442,-538.5 349.442,-545.5"/>
</g>
<!-- AS7018 -->
<g id="node11" class="node"><title>AS7018</title>
<g id="a_node11"><a xlink:href="/asn/7018" xlink:title="AS7018 ~ AT&amp;T Services, Inc. [US]">
<ellipse fill="#ffffff" stroke="black" cx="394.625" cy="-380" rx="39.7935" ry="18"/>
<text text-anchor="middle" x="394.625" y="-376.3" font-family="Times,serif" font-size="14.00" fill="#2c94b3">AS7018</text>
</a>
</g>
</g>
<!-- AS3257&#45;&gt;AS7018 -->
<g id="edge10" class="edge"><title>AS3257&#45;&gt;AS7018</title>
<path fill="none" stroke="black" stroke-width="2" d="M307.468,-338.934C322.462,-346.081 341.283,-355.052 357.506,-362.785"/>
<polygon fill="black" stroke="black" stroke-width="2" points="356.177,-366.028 366.71,-367.171 359.188,-359.709 356.177,-366.028"/>
</g>
<!-- AS3257&#45;&gt;AS2497 -->
<g id="edge11" class="edge"><title>AS3257&#45;&gt;AS2497</title>
<path fill="none" stroke="black" d="M319.004,-326C327.207,-326 335.971,-326 344.503,-326"/>
<polygon fill="black" stroke="black" points="344.742,-329.5 354.742,-326 344.742,-322.5 344.742,-329.5"/>
</g>
<!-- AS3356&#45;&gt;AS2497 -->
<g id="edge15" class="edge"><title>AS3356&#45;&gt;AS2497</title>
<path fill="none" stroke="black" d="M307.468,-284.934C322.462,-292.081 341.283,-301.052 357.506,-308.785"/>
<polygon fill="black" stroke="black" points="356.177,-312.028 366.71,-313.171 359.188,-305.709 356.177,-312.028"/>
</g>
<!-- AS3549 -->
<g id="node13" class="node"><title>AS3549</title>
<g id="a_node13"><a xlink:href="/asn/3549" xlink:title="AS3549 ~ Level 3 Parent, LLC [US]">
<ellipse fill="#ffffff" stroke="black" cx="394.625" cy="-272" rx="39.7935" ry="18"/>
<text text-anchor="middle" x="394.625" y="-268.3" font-family="Times,serif" font-size="14.00" fill="#2c94b3">AS3549</text>
</a>
</g>
</g>
<!-- AS3356&#45;&gt;AS3549 -->
<g id="edge12" class="edge"><title>AS3356&#45;&gt;AS3549</title>
<path fill="none" stroke="black" stroke-width="2" d="M319.004,-272C327.207,-272 335.971,-272 344.503,-272"/>
<polygon fill="black" stroke="black" stroke-width="2" points="344.742,-275.5 354.742,-272 344.742,-268.5 344.742,-275.5"/>
</g>
<!-- AS701 -->
<g id="node14" class="node"><title>AS701</title>
<g id="a_node14"><a xlink:href="/asn/701" xlink:title="AS701 ~ UUNET [US]">
<ellipse fill="#ffffff" stroke="black" cx="394.625" cy="-218" rx="35.194" ry="18"/>
<text text-anchor="middle" x="394.625" y="-214.3" font-family="Times,serif" font-size="14.00" fill="#2c94b3">AS701</text>
</a>
</g>
</g>
<!-- AS3356&#45;&gt;AS701 -->
<g id="edge13" class="edge"><title>AS3356&#45;&gt;AS701</title>
<path fill="none" stroke="black" stroke-width="3" d="M307.468,-259.066C322.9,-251.71 342.385,-242.423 358.92,-234.541"/>
<polygon fill="black" stroke="black" stroke-width="3" points="360.741,-237.551 368.262,-230.089 357.729,-231.232 360.741,-237.551"/>
</g>
<!-- AS6762 -->
<g id="node15" class="node"><title>AS6762</title>
<g id="a_node15"><a xlink:href="/asn/6762" xlink:title="AS6762 ~ TELECOM ITALIA SPARKLE S.p.A. [IT]">
<ellipse fill="#ffffff" stroke="black" cx="394.625" cy="-434" rx="39.7935" ry="18"/>
<text text-anchor="middle" x="394.625" y="-430.3" font-family="Times,serif" font-size="14.00" fill="#2c94b3">AS6762</text>
</a>
</g>
</g>
<!-- AS3356&#45;&gt;AS6762 -->
<g id="edge14" class="edge"><title>AS3356&#45;&gt;AS6762</title>
<path fill="none" stroke="black" d="M305.262,-285.882C310.338,-289.611 315.256,-294.016 318.978,-299 349.249,-339.542 324.707,-366.458 354.978,-407 356.723,-409.336 358.73,-411.545 360.893,-413.617"/>
<polygon fill="black" stroke="black" points="358.771,-416.405 368.694,-420.118 363.253,-411.027 358.771,-416.405"/>
</g>
<!-- AS2914&#45;&gt;AS6762 -->
<g id="edge18" class="edge"><title>AS2914&#45;&gt;AS6762</title>
<path fill="none" stroke="black" d="M319.004,-434C327.207,-434 335.971,-434 344.503,-434"/>
<polygon fill="black" stroke="black" points="344.742,-437.5 354.742,-434 344.742,-430.5 344.742,-437.5"/>
</g>
<!-- AS6939&#45;&gt;AS6762 -->
<g id="edge30" class="edge"><title>AS6939&#45;&gt;AS6762</title>
<path fill="none" stroke="black" d="M307.468,-475.066C322.462,-467.919 341.283,-458.948 357.506,-451.215"/>
<polygon fill="black" stroke="black" points="359.188,-454.291 366.71,-446.829 356.177,-447.972 359.188,-454.291"/>
</g>
<!-- AS6939&#45;&gt;AS209 -->
<g id="edge31" class="edge"><title>AS6939&#45;&gt;AS209</title>
<path fill="none" stroke="black" d="M307.468,-500.934C322.9,-508.29 342.385,-517.577 358.92,-525.459"/>
<polygon fill="black" stroke="black" points="357.729,-528.768 368.262,-529.911 360.741,-522.449 357.729,-528.768"/>
</g>
<!-- AS1299&#45;&gt;AS7018 -->
<g id="edge29" class="edge"><title>AS1299&#45;&gt;AS7018</title>
<path fill="none" stroke="black" d="M319.004,-380C327.207,-380 335.971,-380 344.503,-380"/>
<polygon fill="black" stroke="black" points="344.742,-383.5 354.742,-380 344.742,-376.5 344.742,-383.5"/>
</g>
<!-- AS1299&#45;&gt;AS6762 -->
<g id="edge27" class="edge"><title>AS1299&#45;&gt;AS6762</title>
<path fill="none" stroke="black" d="M307.468,-392.934C322.462,-400.081 341.283,-409.052 357.506,-416.785"/>
<polygon fill="black" stroke="black" points="356.177,-420.028 366.71,-421.171 359.188,-413.709 356.177,-420.028"/>
</g>
<!-- AS1299&#45;&gt;AS1239 -->
<g id="edge28" class="edge"><title>AS1299&#45;&gt;AS1239</title>
<path fill="none" stroke="black" d="M303.926,-394.389C309.182,-398.148 314.513,-402.437 318.978,-407 339.151,-427.617 334.806,-440.383 354.978,-461 357.071,-463.139 359.354,-465.218 361.731,-467.21"/>
<polygon fill="black" stroke="black" points="359.974,-470.275 370.031,-473.611 364.249,-464.732 359.974,-470.275"/>
</g>
</g>
</svg>
