<?xml version="1.0" encoding="UTF-8" standalone="no"?>
<!DOCTYPE svg PUBLIC "-//W3C//DTD SVG 1.1//EN"
 "http://www.w3.org/Graphics/SVG/1.1/DTD/svg11.dtd">
<!-- Generated by graphviz version 2.38.0 (20140413.2041)
 -->
<!-- Title: AS25522 IPv4 Upstream Graph Pages: 1 -->
<svg width="442pt" height="487pt"
 viewBox="0.00 0.00 442.27 487.00" xmlns="http://www.w3.org/2000/svg" xmlns:xlink="http://www.w3.org/1999/xlink">
<g id="graph0" class="graph" transform="scale(1 1) rotate(0) translate(4 483)">
<title>AS25522 IPv4 Upstream Graph</title>
<polygon fill="white" stroke="none" points="-4,4 -4,-483 438.271,-483 438.271,4 -4,4"/>
<!-- AS25522 -->
<g id="node1" class="node"><title>AS25522</title>
<g id="a_node1"><a xlink:href="/asn/25522" xlink:title="AS25522 ~ Travelport Austria GmbH [AT]">
<ellipse fill="#ffffff" stroke="black" cx="44.1961" cy="-189" rx="44.393" ry="18"/>
<text text-anchor="middle" x="44.1961" y="-185.3" font-family="Times,serif" font-size="14.00" fill="#880000">AS25522</text>
</a>
</g>
</g>
<!-- AS1764 -->
<g id="node2" class="node"><title>AS1764</title>
<g id="a_node2"><a xlink:href="/asn/1764" xlink:title="AS1764 ~ NEXTLAYER&#45;AS [AT]">
<ellipse fill="#ffffff" stroke="black" cx="164.039" cy="-230" rx="39.7935" ry="18"/>
<text text-anchor="middle" x="164.039" y="-226.3" font-family="Times,serif" font-size="14.00" fill="#2c94b3">AS1764</text>
</a>
</g>
</g>
<!-- AS25522&#45;&gt;AS1764 -->
<g id="edge1" class="edge"><title>AS25522&#45;&gt;AS1764</title>
<path fill="none" stroke="black" stroke-width="4.5" d="M78.3354,-200.53C92.0527,-205.302 108.092,-210.883 122.502,-215.896"/>
<polygon fill="black" stroke="black" stroke-width="4.5" points="121.43,-219.692 132.168,-219.26 124.018,-212.255 121.43,-219.692"/>
</g>
<!-- AS8220 -->
<g id="node3" class="node"><title>AS8220</title>
<g id="a_node3"><a xlink:href="/asn/8220" xlink:title="AS8220 ~ COLT [GB]">
<ellipse fill="#ffffff" stroke="black" cx="164.039" cy="-122" rx="39.7935" ry="18"/>
<text text-anchor="middle" x="164.039" y="-118.3" font-family="Times,serif" font-size="14.00" fill="#2c94b3">AS8220</text>
</a>
</g>
</g>
<!-- AS25522&#45;&gt;AS8220 -->
<g id="edge2" class="edge"><title>AS25522&#45;&gt;AS8220</title>
<path fill="none" stroke="black" stroke-width="3.75" d="M70.7662,-174.462C87.9854,-164.672 110.871,-151.66 129.542,-141.045"/>
<polygon fill="black" stroke="black" stroke-width="3.75" points="131.363,-144.036 138.326,-136.05 127.903,-137.95 131.363,-144.036"/>
</g>
<!-- AS3356 -->
<g id="node4" class="node"><title>AS3356</title>
<g id="a_node4"><a xlink:href="/asn/3356" xlink:title="AS3356 ~ Level 3 Parent, LLC [US]">
<ellipse fill="#ffffff" stroke="black" cx="279.332" cy="-149" rx="39.7935" ry="18"/>
<text text-anchor="middle" x="279.332" y="-145.3" font-family="Times,serif" font-size="14.00" fill="#2c94b3">AS3356</text>
</a>
</g>
</g>
<!-- AS1764&#45;&gt;AS3356 -->
<g id="edge3" class="edge"><title>AS1764&#45;&gt;AS3356</title>
<path fill="none" stroke="black" stroke-width="4.5" d="M185.887,-214.778C200.821,-203.909 221.435,-188.975 239.685,-176 242.506,-173.995 245.449,-171.915 248.397,-169.841"/>
<polygon fill="black" stroke="black" stroke-width="4.5" points="250.694,-173.039 256.621,-164.074 246.173,-166.591 250.694,-173.039"/>
</g>
<!-- AS3257 -->
<g id="node5" class="node"><title>AS3257</title>
<g id="a_node5"><a xlink:href="/asn/3257" xlink:title="AS3257 ~ GTT [DE]">
<ellipse fill="#ffffff" stroke="black" cx="279.332" cy="-365" rx="39.7935" ry="18"/>
<text text-anchor="middle" x="279.332" y="-361.3" font-family="Times,serif" font-size="14.00" fill="#2c94b3">AS3257</text>
</a>
</g>
</g>
<!-- AS1764&#45;&gt;AS3257 -->
<g id="edge4" class="edge"><title>AS1764&#45;&gt;AS3257</title>
<path fill="none" stroke="black" stroke-width="3.6" d="M174.498,-247.49C187.28,-270.096 211.712,-309.886 239.685,-338 241.796,-340.121 244.092,-342.188 246.477,-344.171"/>
<polygon fill="black" stroke="black" stroke-width="3.6" points="244.73,-347.242 254.793,-350.556 248.993,-341.69 244.73,-347.242"/>
</g>
<!-- AS174 -->
<g id="node6" class="node"><title>AS174</title>
<g id="a_node6"><a xlink:href="/asn/174" xlink:title="AS174 ~ Cogent Communications [US]">
<ellipse fill="#ffffff" stroke="black" cx="279.332" cy="-257" rx="35.194" ry="18"/>
<text text-anchor="middle" x="279.332" y="-253.3" font-family="Times,serif" font-size="14.00" fill="#2c94b3">AS174</text>
</a>
</g>
</g>
<!-- AS1764&#45;&gt;AS174 -->
<g id="edge5" class="edge"><title>AS1764&#45;&gt;AS174</title>
<path fill="none" stroke="black" stroke-width="3.6" d="M199.646,-238.248C211.44,-241.058 224.745,-244.229 237.013,-247.153"/>
<polygon fill="black" stroke="black" stroke-width="3.6" points="236.479,-250.624 247.018,-249.537 238.101,-243.814 236.479,-250.624"/>
</g>
<!-- AS2914 -->
<g id="node7" class="node"><title>AS2914</title>
<g id="a_node7"><a xlink:href="/asn/2914" xlink:title="AS2914 ~ NTT America, Inc. [US]">
<ellipse fill="#ffffff" stroke="black" cx="279.332" cy="-203" rx="39.7935" ry="18"/>
<text text-anchor="middle" x="279.332" y="-199.3" font-family="Times,serif" font-size="14.00" fill="#2c94b3">AS2914</text>
</a>
</g>
</g>
<!-- AS1764&#45;&gt;AS2914 -->
<g id="edge6" class="edge"><title>AS1764&#45;&gt;AS2914</title>
<path fill="none" stroke="black" stroke-width="3.6" d="M199.646,-221.752C210.517,-219.162 222.671,-216.265 234.114,-213.538"/>
<polygon fill="black" stroke="black" stroke-width="3.6" points="235.02,-216.92 243.936,-211.197 233.397,-210.111 235.02,-216.92"/>
</g>
<!-- AS8218 -->
<g id="node8" class="node"><title>AS8218</title>
<g id="a_node8"><a xlink:href="/asn/8218" xlink:title="AS8218 ~ legacy Neotelecoms [FR]">
<ellipse fill="#ffffff" stroke="black" cx="279.332" cy="-423" rx="39.7935" ry="18"/>
<text text-anchor="middle" x="279.332" y="-419.3" font-family="Times,serif" font-size="14.00" fill="#2c94b3">AS8218</text>
</a>
</g>
</g>
<!-- AS1764&#45;&gt;AS8218 -->
<g id="edge7" class="edge"><title>AS1764&#45;&gt;AS8218</title>
<path fill="none" stroke="black" stroke-width="0.9" d="M170.297,-248.004C180.136,-279.56 203.65,-345.881 239.685,-392 242.307,-395.355 245.359,-398.572 248.578,-401.578"/>
<polygon fill="black" stroke="black" stroke-width="0.9" points="246.399,-404.32 256.266,-408.177 250.958,-399.008 246.399,-404.32"/>
</g>
<!-- AS8220&#45;&gt;AS3356 -->
<g id="edge24" class="edge"><title>AS8220&#45;&gt;AS3356</title>
<path fill="none" stroke="black" stroke-width="3.75" d="M199.646,-130.248C210.517,-132.838 222.671,-135.735 234.114,-138.462"/>
<polygon fill="black" stroke="black" stroke-width="3.75" points="233.397,-141.889 243.936,-140.803 235.02,-135.08 233.397,-141.889"/>
</g>
<!-- AS1299 -->
<g id="node17" class="node"><title>AS1299</title>
<g id="a_node17"><a xlink:href="/asn/1299" xlink:title="AS1299 ~ Telia Carrier [EU]">
<ellipse fill="#ffffff" stroke="black" cx="279.332" cy="-311" rx="39.7935" ry="18"/>
<text text-anchor="middle" x="279.332" y="-307.3" font-family="Times,serif" font-size="14.00" fill="#2c94b3">AS1299</text>
</a>
</g>
</g>
<!-- AS8220&#45;&gt;AS1299 -->
<g id="edge23" class="edge"><title>AS8220&#45;&gt;AS1299</title>
<path fill="none" stroke="black" stroke-width="4.5" d="M173.62,-139.633C181.544,-155.998 193.58,-181.065 203.685,-203 220.169,-238.781 214.621,-253.606 239.685,-284 241.54,-286.25 243.627,-288.396 245.846,-290.424"/>
<polygon fill="black" stroke="black" stroke-width="4.5" points="243.506,-293.596 253.751,-296.844 248.471,-287.483 243.506,-293.596"/>
</g>
<!-- AS5511 -->
<g id="node18" class="node"><title>AS5511</title>
<g id="a_node18"><a xlink:href="/asn/5511" xlink:title="AS5511 ~ Orange S.A. [FR]">
<ellipse fill="#ffffff" stroke="black" cx="279.332" cy="-41" rx="39.7935" ry="18"/>
<text text-anchor="middle" x="279.332" y="-37.3" font-family="Times,serif" font-size="14.00" fill="#2c94b3">AS5511</text>
</a>
</g>
</g>
<!-- AS8220&#45;&gt;AS5511 -->
<g id="edge25" class="edge"><title>AS8220&#45;&gt;AS5511</title>
<path fill="none" stroke="black" stroke-width="1.5" d="M185.887,-106.778C200.821,-95.9088 221.435,-80.9753 239.685,-68 242.506,-65.9948 245.449,-63.9154 248.397,-61.8411"/>
<polygon fill="black" stroke="black" stroke-width="1.5" points="250.443,-64.6812 256.621,-56.0744 246.424,-58.9497 250.443,-64.6812"/>
</g>
<!-- AS3320 -->
<g id="node19" class="node"><title>AS3320</title>
<g id="a_node19"><a xlink:href="/asn/3320" xlink:title="AS3320 ~ DTAG [DE]">
<ellipse fill="#ffffff" stroke="black" cx="279.332" cy="-95" rx="39.7935" ry="18"/>
<text text-anchor="middle" x="279.332" y="-91.3" font-family="Times,serif" font-size="14.00" fill="#2c94b3">AS3320</text>
</a>
</g>
</g>
<!-- AS8220&#45;&gt;AS3320 -->
<g id="edge26" class="edge"><title>AS8220&#45;&gt;AS3320</title>
<path fill="none" stroke="black" stroke-width="0.75" d="M199.646,-113.752C210.517,-111.162 222.671,-108.265 234.114,-105.538"/>
<polygon fill="black" stroke="black" stroke-width="0.75" points="235.02,-108.92 243.936,-103.197 233.397,-102.111 235.02,-108.92"/>
</g>
<!-- AS6453 -->
<g id="node20" class="node"><title>AS6453</title>
<g id="a_node20"><a xlink:href="/asn/6453" xlink:title="AS6453 ~ TATA COMMUNICATIONS (AMERICA) INC [US]">
<ellipse fill="#ffffff" stroke="black" cx="394.625" cy="-18" rx="39.7935" ry="18"/>
<text text-anchor="middle" x="394.625" y="-14.3" font-family="Times,serif" font-size="14.00" fill="#2c94b3">AS6453</text>
</a>
</g>
</g>
<!-- AS8220&#45;&gt;AS6453 -->
<g id="edge27" class="edge"><title>AS8220&#45;&gt;AS6453</title>
<path fill="none" stroke="black" stroke-width="0.75" d="M171.262,-104.134C181.208,-78.7074 203.352,-33.0549 239.685,-14 273.868,3.92678 318.456,0.361186 350.841,-6.15662"/>
<polygon fill="black" stroke="black" stroke-width="0.75" points="350.382,-9.63874 360.899,-8.35302 351.876,-2.79992 350.382,-9.63874"/>
</g>
<!-- AS2497 -->
<g id="node11" class="node"><title>AS2497</title>
<g id="a_node11"><a xlink:href="/asn/2497" xlink:title="AS2497 ~ Internet Initiative Japan Inc. [JP]">
<ellipse fill="#ffffff" stroke="black" cx="394.625" cy="-299" rx="39.7935" ry="18"/>
<text text-anchor="middle" x="394.625" y="-295.3" font-family="Times,serif" font-size="14.00" fill="#2c94b3">AS2497</text>
</a>
</g>
</g>
<!-- AS3356&#45;&gt;AS2497 -->
<g id="edge12" class="edge"><title>AS3356&#45;&gt;AS2497</title>
<path fill="none" stroke="black" d="M305.127,-162.985C310.21,-166.709 315.165,-171.085 318.978,-176 346.912,-212.002 327.044,-235.998 354.978,-272 356.766,-274.304 358.804,-276.489 360.989,-278.544"/>
<polygon fill="black" stroke="black" points="358.889,-281.35 368.83,-285.015 363.344,-275.951 358.889,-281.35"/>
</g>
<!-- AS3549 -->
<g id="node12" class="node"><title>AS3549</title>
<g id="a_node12"><a xlink:href="/asn/3549" xlink:title="AS3549 ~ Level 3 Parent, LLC [US]">
<ellipse fill="#ffffff" stroke="black" cx="394.625" cy="-137" rx="39.7935" ry="18"/>
<text text-anchor="middle" x="394.625" y="-133.3" font-family="Times,serif" font-size="14.00" fill="#2c94b3">AS3549</text>
</a>
</g>
</g>
<!-- AS3356&#45;&gt;AS3549 -->
<g id="edge11" class="edge"><title>AS3356&#45;&gt;AS3549</title>
<path fill="none" stroke="black" stroke-width="2" d="M318.057,-145.004C326.849,-144.073 336.328,-143.069 345.503,-142.097"/>
<polygon fill="black" stroke="black" stroke-width="2" points="346.102,-145.553 355.678,-141.019 345.365,-138.592 346.102,-145.553"/>
</g>
<!-- AS6762 -->
<g id="node13" class="node"><title>AS6762</title>
<g id="a_node13"><a xlink:href="/asn/6762" xlink:title="AS6762 ~ TELECOM ITALIA SPARKLE S.p.A. [IT]">
<ellipse fill="#ffffff" stroke="black" cx="394.625" cy="-245" rx="39.7935" ry="18"/>
<text text-anchor="middle" x="394.625" y="-241.3" font-family="Times,serif" font-size="14.00" fill="#2c94b3">AS6762</text>
</a>
</g>
</g>
<!-- AS3356&#45;&gt;AS6762 -->
<g id="edge13" class="edge"><title>AS3356&#45;&gt;AS6762</title>
<path fill="none" stroke="black" stroke-width="2" d="M303.133,-163.505C308.531,-167.319 314.125,-171.604 318.978,-176 337.2,-192.505 336.756,-201.495 354.978,-218 357.405,-220.198 360.016,-222.368 362.696,-224.466"/>
<polygon fill="black" stroke="black" stroke-width="2" points="360.706,-227.347 370.823,-230.495 364.877,-221.726 360.706,-227.347"/>
</g>
<!-- AS701 -->
<g id="node14" class="node"><title>AS701</title>
<g id="a_node14"><a xlink:href="/asn/701" xlink:title="AS701 ~ UUNET [US]">
<ellipse fill="#ffffff" stroke="black" cx="394.625" cy="-83" rx="35.194" ry="18"/>
<text text-anchor="middle" x="394.625" y="-79.3" font-family="Times,serif" font-size="14.00" fill="#2c94b3">AS701</text>
</a>
</g>
</g>
<!-- AS3356&#45;&gt;AS701 -->
<g id="edge14" class="edge"><title>AS3356&#45;&gt;AS701</title>
<path fill="none" stroke="black" stroke-width="2" d="M304.358,-135.003C321.062,-125.272 343.507,-112.196 361.712,-101.591"/>
<polygon fill="black" stroke="black" stroke-width="2" points="363.913,-104.36 370.792,-96.3015 360.389,-98.311 363.913,-104.36"/>
</g>
<!-- AS1239 -->
<g id="node15" class="node"><title>AS1239</title>
<g id="a_node15"><a xlink:href="/asn/1239" xlink:title="AS1239 ~ Sprint [US]">
<ellipse fill="#ffffff" stroke="black" cx="394.625" cy="-191" rx="39.7935" ry="18"/>
<text text-anchor="middle" x="394.625" y="-187.3" font-family="Times,serif" font-size="14.00" fill="#2c94b3">AS1239</text>
</a>
</g>
</g>
<!-- AS3356&#45;&gt;AS1239 -->
<g id="edge15" class="edge"><title>AS3356&#45;&gt;AS1239</title>
<path fill="none" stroke="black" d="M310.692,-160.255C323.899,-165.151 339.556,-170.956 353.689,-176.195"/>
<polygon fill="black" stroke="black" points="352.587,-179.519 363.18,-179.714 355.021,-172.956 352.587,-179.519"/>
</g>
<!-- AS7018 -->
<g id="node9" class="node"><title>AS7018</title>
<g id="a_node9"><a xlink:href="/asn/7018" xlink:title="AS7018 ~ AT&amp;T Services, Inc. [US]">
<ellipse fill="#ffffff" stroke="black" cx="394.625" cy="-407" rx="39.7935" ry="18"/>
<text text-anchor="middle" x="394.625" y="-403.3" font-family="Times,serif" font-size="14.00" fill="#2c94b3">AS7018</text>
</a>
</g>
</g>
<!-- AS3257&#45;&gt;AS7018 -->
<g id="edge8" class="edge"><title>AS3257&#45;&gt;AS7018</title>
<path fill="none" stroke="black" d="M310.692,-376.255C323.899,-381.151 339.556,-386.956 353.689,-392.195"/>
<polygon fill="black" stroke="black" points="352.587,-395.519 363.18,-395.714 355.021,-388.956 352.587,-395.519"/>
</g>
<!-- AS3491 -->
<g id="node10" class="node"><title>AS3491</title>
<g id="a_node10"><a xlink:href="/asn/3491" xlink:title="AS3491 ~ PCCW Global, Inc. [US]">
<ellipse fill="#ffffff" stroke="black" cx="394.625" cy="-353" rx="39.7935" ry="18"/>
<text text-anchor="middle" x="394.625" y="-349.3" font-family="Times,serif" font-size="14.00" fill="#2c94b3">AS3491</text>
</a>
</g>
</g>
<!-- AS3257&#45;&gt;AS3491 -->
<g id="edge9" class="edge"><title>AS3257&#45;&gt;AS3491</title>
<path fill="none" stroke="black" d="M318.057,-361.004C326.849,-360.073 336.328,-359.069 345.503,-358.097"/>
<polygon fill="black" stroke="black" points="346.102,-361.553 355.678,-357.019 345.365,-354.592 346.102,-361.553"/>
</g>
<!-- AS3257&#45;&gt;AS2497 -->
<g id="edge10" class="edge"><title>AS3257&#45;&gt;AS2497</title>
<path fill="none" stroke="black" d="M304.358,-351.003C320.73,-341.465 342.618,-328.715 360.622,-318.226"/>
<polygon fill="black" stroke="black" points="362.754,-321.035 369.633,-312.977 359.23,-314.986 362.754,-321.035"/>
</g>
<!-- AS174&#45;&gt;AS3491 -->
<g id="edge19" class="edge"><title>AS174&#45;&gt;AS3491</title>
<path fill="none" stroke="black" d="M302.325,-270.936C307.97,-274.891 313.882,-279.385 318.978,-284 337.2,-300.505 336.756,-309.495 354.978,-326 357.405,-328.198 360.016,-330.368 362.696,-332.466"/>
<polygon fill="black" stroke="black" points="360.706,-335.347 370.823,-338.495 364.877,-329.726 360.706,-335.347"/>
</g>
<!-- AS174&#45;&gt;AS6762 -->
<g id="edge20" class="edge"><title>AS174&#45;&gt;AS6762</title>
<path fill="none" stroke="black" d="M314.016,-253.432C324.001,-252.375 335.131,-251.196 345.83,-250.062"/>
<polygon fill="black" stroke="black" points="346.328,-253.529 355.903,-248.995 345.59,-246.568 346.328,-253.529"/>
</g>
<!-- AS174&#45;&gt;AS1239 -->
<g id="edge21" class="edge"><title>AS174&#45;&gt;AS1239</title>
<path fill="none" stroke="black" d="M303.258,-243.644C319.816,-233.998 342.419,-220.831 360.876,-210.078"/>
<polygon fill="black" stroke="black" points="362.68,-213.078 369.559,-205.02 359.157,-207.029 362.68,-213.078"/>
</g>
<!-- AS2914&#45;&gt;AS2497 -->
<g id="edge16" class="edge"><title>AS2914&#45;&gt;AS2497</title>
<path fill="none" stroke="black" d="M303.133,-217.505C308.531,-221.319 314.125,-225.604 318.978,-230 337.2,-246.505 336.756,-255.495 354.978,-272 357.405,-274.198 360.016,-276.368 362.696,-278.466"/>
<polygon fill="black" stroke="black" points="360.706,-281.347 370.823,-284.495 364.877,-275.726 360.706,-281.347"/>
</g>
<!-- AS2914&#45;&gt;AS6762 -->
<g id="edge18" class="edge"><title>AS2914&#45;&gt;AS6762</title>
<path fill="none" stroke="black" d="M310.692,-214.255C323.899,-219.151 339.556,-224.956 353.689,-230.195"/>
<polygon fill="black" stroke="black" points="352.587,-233.519 363.18,-233.714 355.021,-226.956 352.587,-233.519"/>
</g>
<!-- AS2914&#45;&gt;AS1239 -->
<g id="edge17" class="edge"><title>AS2914&#45;&gt;AS1239</title>
<path fill="none" stroke="black" d="M318.057,-199.004C326.849,-198.073 336.328,-197.069 345.503,-196.097"/>
<polygon fill="black" stroke="black" points="346.102,-199.553 355.678,-195.019 345.365,-192.592 346.102,-199.553"/>
</g>
<!-- AS6461 -->
<g id="node16" class="node"><title>AS6461</title>
<g id="a_node16"><a xlink:href="/asn/6461" xlink:title="AS6461 ~ Zayo Bandwidth [US]">
<ellipse fill="#ffffff" stroke="black" cx="394.625" cy="-461" rx="39.7935" ry="18"/>
<text text-anchor="middle" x="394.625" y="-457.3" font-family="Times,serif" font-size="14.00" fill="#2c94b3">AS6461</text>
</a>
</g>
</g>
<!-- AS8218&#45;&gt;AS6461 -->
<g id="edge22" class="edge"><title>AS8218&#45;&gt;AS6461</title>
<path fill="none" stroke="black" d="M311.589,-433.484C324.238,-437.727 339.017,-442.684 352.518,-447.212"/>
<polygon fill="black" stroke="black" points="351.482,-450.556 362.076,-450.418 353.708,-443.92 351.482,-450.556"/>
</g>
<!-- AS1299&#45;&gt;AS7018 -->
<g id="edge32" class="edge"><title>AS1299&#45;&gt;AS7018</title>
<path fill="none" stroke="black" d="M303.133,-325.505C308.531,-329.319 314.125,-333.604 318.978,-338 337.2,-354.505 336.756,-363.495 354.978,-380 357.405,-382.198 360.016,-384.368 362.696,-386.466"/>
<polygon fill="black" stroke="black" points="360.706,-389.347 370.823,-392.495 364.877,-383.726 360.706,-389.347"/>
</g>
<!-- AS1299&#45;&gt;AS3491 -->
<g id="edge28" class="edge"><title>AS1299&#45;&gt;AS3491</title>
<path fill="none" stroke="black" d="M310.692,-322.255C323.899,-327.151 339.556,-332.956 353.689,-338.195"/>
<polygon fill="black" stroke="black" points="352.587,-341.519 363.18,-341.714 355.021,-334.956 352.587,-341.519"/>
</g>
<!-- AS1299&#45;&gt;AS2497 -->
<g id="edge30" class="edge"><title>AS1299&#45;&gt;AS2497</title>
<path fill="none" stroke="black" d="M318.057,-307.004C326.849,-306.073 336.328,-305.069 345.503,-304.097"/>
<polygon fill="black" stroke="black" points="346.102,-307.553 355.678,-303.019 345.365,-300.592 346.102,-307.553"/>
</g>
<!-- AS1299&#45;&gt;AS6762 -->
<g id="edge31" class="edge"><title>AS1299&#45;&gt;AS6762</title>
<path fill="none" stroke="black" d="M304.358,-297.003C320.73,-287.465 342.618,-274.715 360.622,-264.226"/>
<polygon fill="black" stroke="black" points="362.754,-267.035 369.633,-258.977 359.23,-260.986 362.754,-267.035"/>
</g>
<!-- AS1299&#45;&gt;AS1239 -->
<g id="edge29" class="edge"><title>AS1299&#45;&gt;AS1239</title>
<path fill="none" stroke="black" d="M304.225,-296.891C309.469,-293.121 314.72,-288.757 318.978,-284 341.264,-259.105 332.692,-242.895 354.978,-218 356.974,-215.77 359.188,-213.627 361.518,-211.59"/>
<polygon fill="black" stroke="black" points="364.049,-214.051 369.731,-205.109 359.713,-208.556 364.049,-214.051"/>
</g>
<!-- AS5511&#45;&gt;AS6453 -->
<g id="edge33" class="edge"><title>AS5511&#45;&gt;AS6453</title>
<path fill="none" stroke="black" d="M315.867,-33.7858C326.096,-31.7092 337.396,-29.4151 348.139,-27.2341"/>
<polygon fill="black" stroke="black" points="349.111,-30.6083 358.215,-25.1886 347.718,-23.7482 349.111,-30.6083"/>
</g>
</g>
</svg>
