<?xml version="1.0" encoding="UTF-8" standalone="no"?>
<!DOCTYPE svg PUBLIC "-//W3C//DTD SVG 1.1//EN"
 "http://www.w3.org/Graphics/SVG/1.1/DTD/svg11.dtd">
<!-- Generated by graphviz version 2.38.0 (20140413.2041)
 -->
<!-- Title: AS35765 Combined Upstream Graph Pages: 1 -->
<svg width="576pt" height="746pt"
 viewBox="0.00 0.00 575.76 746.00" xmlns="http://www.w3.org/2000/svg" xmlns:xlink="http://www.w3.org/1999/xlink">
<g id="graph0" class="graph" transform="scale(1 1) rotate(0) translate(4 742)">
<title>AS35765 Combined Upstream Graph</title>
<polygon fill="white" stroke="none" points="-4,4 -4,-742 571.762,-742 571.762,4 -4,4"/>
<!-- AS35765 -->
<g id="node1" class="node"><title>AS35765</title>
<g id="a_node1"><a xlink:href="/asn/35765" xlink:title="AS35765 ~ Gemeindewerke Telfs Ges.m.b.H [AT]">
<ellipse fill="#ffffff" stroke="black" cx="44.1961" cy="-280" rx="44.393" ry="18"/>
<text text-anchor="middle" x="44.1961" y="-276.3" font-family="Times,serif" font-size="14.00" fill="#880000">AS35765</text>
</a>
</g>
</g>
<!-- AS3330 -->
<g id="node2" class="node"><title>AS3330</title>
<g id="a_node2"><a xlink:href="/asn/3330" xlink:title="AS3330 ~ Vienna, Austria [AT]">
<ellipse fill="#ffffff" stroke="black" cx="168.588" cy="-477" rx="39.7935" ry="18"/>
<text text-anchor="middle" x="168.588" y="-473.3" font-family="Times,serif" font-size="14.00" fill="#2c94b3">AS3330</text>
</a>
</g>
</g>
<!-- AS35765&#45;&gt;AS3330 -->
<g id="edge1" class="edge"><title>AS35765&#45;&gt;AS3330</title>
<path fill="none" stroke="black" stroke-width="3.9375" d="M56.0576,-297.482C77.6505,-332.238 126.069,-410.172 151.417,-450.972"/>
<polygon fill="black" stroke="black" stroke-width="3.9375" points="148.501,-452.91 156.751,-459.557 154.447,-449.216 148.501,-452.91"/>
</g>
<!-- AS6830 -->
<g id="node3" class="node"><title>AS6830</title>
<g id="a_node3"><a xlink:href="/asn/6830" xlink:title="AS6830 ~ LGI&#45;UPC [AT]">
<ellipse fill="#ffffff" stroke="black" cx="292.98" cy="-234" rx="39.7935" ry="18"/>
<text text-anchor="middle" x="292.98" y="-230.3" font-family="Times,serif" font-size="14.00" fill="#2c94b3">AS6830</text>
</a>
</g>
</g>
<!-- AS35765&#45;&gt;AS6830 -->
<g id="edge2" class="edge"><title>AS35765&#45;&gt;AS6830</title>
<path fill="none" stroke="black" stroke-width="4.5" d="M88.3263,-277.675C122.427,-275.224 171.07,-270.36 212.784,-261 226.093,-258.014 240.294,-253.586 252.941,-249.175"/>
<polygon fill="black" stroke="black" stroke-width="4.5" points="254.623,-252.755 262.705,-245.67 251.962,-245.343 254.623,-252.755"/>
</g>
<!-- AS62451 -->
<g id="node4" class="node"><title>AS62451</title>
<g id="a_node4"><a xlink:href="/asn/62451" xlink:title="AS62451 ~ Ing. Rudolf Geiger &amp; Co [AT]">
<ellipse fill="#ffffff" stroke="black" cx="168.588" cy="-234" rx="44.393" ry="18"/>
<text text-anchor="middle" x="168.588" y="-230.3" font-family="Times,serif" font-size="14.00" fill="#2c94b3">AS62451</text>
</a>
</g>
</g>
<!-- AS35765&#45;&gt;AS62451 -->
<g id="edge3" class="edge"><title>AS35765&#45;&gt;AS62451</title>
<path fill="none" stroke="black" stroke-width="4.5" d="M77.3532,-267.914C92.2509,-262.315 110.138,-255.592 126.043,-249.614"/>
<polygon fill="black" stroke="black" stroke-width="4.5" points="127.67,-253.209 135.646,-246.005 124.9,-245.838 127.67,-253.209"/>
</g>
<!-- AS21013 -->
<g id="node5" class="node"><title>AS21013</title>
<g id="a_node5"><a xlink:href="/asn/21013" xlink:title="AS21013 ~ Wels, AT [AT]">
<ellipse fill="#ffffff" stroke="black" cx="292.98" cy="-639" rx="44.393" ry="18"/>
<text text-anchor="middle" x="292.98" y="-635.3" font-family="Times,serif" font-size="14.00" fill="#2c94b3">AS21013</text>
</a>
</g>
</g>
<!-- AS3330&#45;&gt;AS21013 -->
<g id="edge4" class="edge"><title>AS3330&#45;&gt;AS21013</title>
<path fill="none" stroke="black" stroke-width="4" d="M182.455,-494.031C203.977,-522.517 247.394,-579.985 272.62,-613.374"/>
<polygon fill="black" stroke="black" stroke-width="4" points="270.097,-615.841 278.918,-621.71 275.682,-611.621 270.097,-615.841"/>
</g>
<!-- AS8218 -->
<g id="node6" class="node"><title>AS8218</title>
<g id="a_node6"><a xlink:href="/asn/8218" xlink:title="AS8218 ~ legacy Neotelecoms [FR]">
<ellipse fill="#ffffff" stroke="black" cx="292.98" cy="-504" rx="39.7935" ry="18"/>
<text text-anchor="middle" x="292.98" y="-500.3" font-family="Times,serif" font-size="14.00" fill="#2c94b3">AS8218</text>
</a>
</g>
</g>
<!-- AS3330&#45;&gt;AS8218 -->
<g id="edge5" class="edge"><title>AS3330&#45;&gt;AS8218</title>
<path fill="none" stroke="black" stroke-width="2" d="M204.661,-484.737C217.848,-487.646 233.028,-490.995 246.994,-494.076"/>
<polygon fill="black" stroke="black" stroke-width="2" points="246.383,-497.525 256.903,-496.262 247.891,-490.69 246.383,-497.525"/>
</g>
<!-- AS8928 -->
<g id="node7" class="node"><title>AS8928</title>
<g id="a_node7"><a xlink:href="/asn/8928" xlink:title="AS8928 ~ INTEROUTE [GB]">
<ellipse fill="#ffffff" stroke="black" cx="292.98" cy="-450" rx="39.7935" ry="18"/>
<text text-anchor="middle" x="292.98" y="-446.3" font-family="Times,serif" font-size="14.00" fill="#2c94b3">AS8928</text>
</a>
</g>
</g>
<!-- AS3330&#45;&gt;AS8928 -->
<g id="edge6" class="edge"><title>AS3330&#45;&gt;AS8928</title>
<path fill="none" stroke="black" d="M204.661,-469.263C217.848,-466.354 233.028,-463.005 246.994,-459.924"/>
<polygon fill="black" stroke="black" points="247.891,-463.31 256.903,-457.738 246.383,-456.475 247.891,-463.31"/>
</g>
<!-- AS3320 -->
<g id="node15" class="node"><title>AS3320</title>
<g id="a_node15"><a xlink:href="/asn/3320" xlink:title="AS3320 ~ DTAG [DE]">
<ellipse fill="#ffffff" stroke="black" cx="412.823" cy="-396" rx="39.7935" ry="18"/>
<text text-anchor="middle" x="412.823" y="-392.3" font-family="Times,serif" font-size="14.00" fill="#2c94b3">AS3320</text>
</a>
</g>
</g>
<!-- AS6830&#45;&gt;AS3320 -->
<g id="edge14" class="edge"><title>AS6830&#45;&gt;AS3320</title>
<path fill="none" stroke="black" stroke-width="2" d="M301.396,-251.761C313.464,-279.183 339.436,-332.473 373.176,-369 375.207,-371.198 377.446,-373.319 379.792,-375.34"/>
<polygon fill="black" stroke="black" stroke-width="2" points="378.004,-378.386 388.036,-381.794 382.319,-372.874 378.004,-378.386"/>
</g>
<!-- AS6762 -->
<g id="node16" class="node"><title>AS6762</title>
<g id="a_node16"><a xlink:href="/asn/6762" xlink:title="AS6762 ~ TELECOM ITALIA SPARKLE S.p.A. [IT]">
<ellipse fill="#ffffff" stroke="black" cx="412.823" cy="-342" rx="39.7935" ry="18"/>
<text text-anchor="middle" x="412.823" y="-338.3" font-family="Times,serif" font-size="14.00" fill="#2c94b3">AS6762</text>
</a>
</g>
</g>
<!-- AS6830&#45;&gt;AS6762 -->
<g id="edge15" class="edge"><title>AS6830&#45;&gt;AS6762</title>
<path fill="none" stroke="black" stroke-width="2" d="M308.626,-250.725C323.927,-267.765 349.025,-294.523 373.176,-315 375.674,-317.117 378.334,-319.232 381.045,-321.293"/>
<polygon fill="black" stroke="black" stroke-width="2" points="379.082,-324.194 389.222,-327.266 383.212,-318.541 379.082,-324.194"/>
</g>
<!-- AS6453 -->
<g id="node17" class="node"><title>AS6453</title>
<g id="a_node17"><a xlink:href="/asn/6453" xlink:title="AS6453 ~ TATA COMMUNICATIONS (AMERICA) INC [US]">
<ellipse fill="#ffffff" stroke="black" cx="412.823" cy="-288" rx="39.7935" ry="18"/>
<text text-anchor="middle" x="412.823" y="-284.3" font-family="Times,serif" font-size="14.00" fill="#2c94b3">AS6453</text>
</a>
</g>
</g>
<!-- AS6830&#45;&gt;AS6453 -->
<g id="edge16" class="edge"><title>AS6830&#45;&gt;AS6453</title>
<path fill="none" stroke="black" stroke-width="2" d="M321.609,-246.661C337.566,-253.973 357.837,-263.261 375.119,-271.181"/>
<polygon fill="black" stroke="black" stroke-width="2" points="373.818,-274.435 384.367,-275.419 376.734,-268.071 373.818,-274.435"/>
</g>
<!-- AS2497 -->
<g id="node18" class="node"><title>AS2497</title>
<g id="a_node18"><a xlink:href="/asn/2497" xlink:title="AS2497 ~ Internet Initiative Japan Inc. [JP]">
<ellipse fill="#ffffff" stroke="black" cx="412.823" cy="-234" rx="39.7935" ry="18"/>
<text text-anchor="middle" x="412.823" y="-230.3" font-family="Times,serif" font-size="14.00" fill="#2c94b3">AS2497</text>
</a>
</g>
</g>
<!-- AS6830&#45;&gt;AS2497 -->
<g id="edge17" class="edge"><title>AS6830&#45;&gt;AS2497</title>
<path fill="none" stroke="black" stroke-width="2" d="M332.893,-234C342.446,-234 352.796,-234 362.759,-234"/>
<polygon fill="black" stroke="black" stroke-width="2" points="362.951,-237.5 372.951,-234 362.951,-230.5 362.951,-237.5"/>
</g>
<!-- AS7018 -->
<g id="node19" class="node"><title>AS7018</title>
<g id="a_node19"><a xlink:href="/asn/7018" xlink:title="AS7018 ~ AT&amp;T Services, Inc. [US]">
<ellipse fill="#ffffff" stroke="black" cx="412.823" cy="-180" rx="39.7935" ry="18"/>
<text text-anchor="middle" x="412.823" y="-176.3" font-family="Times,serif" font-size="14.00" fill="#2c94b3">AS7018</text>
</a>
</g>
</g>
<!-- AS6830&#45;&gt;AS7018 -->
<g id="edge18" class="edge"><title>AS6830&#45;&gt;AS7018</title>
<path fill="none" stroke="black" stroke-width="2" d="M321.609,-221.339C337.566,-214.027 357.837,-204.739 375.119,-196.819"/>
<polygon fill="black" stroke="black" stroke-width="2" points="376.734,-199.929 384.367,-192.581 373.818,-193.565 376.734,-199.929"/>
</g>
<!-- AS3491 -->
<g id="node20" class="node"><title>AS3491</title>
<g id="a_node20"><a xlink:href="/asn/3491" xlink:title="AS3491 ~ PCCW Global, Inc. [US]">
<ellipse fill="#ffffff" stroke="black" cx="412.823" cy="-126" rx="39.7935" ry="18"/>
<text text-anchor="middle" x="412.823" y="-122.3" font-family="Times,serif" font-size="14.00" fill="#2c94b3">AS3491</text>
</a>
</g>
</g>
<!-- AS6830&#45;&gt;AS3491 -->
<g id="edge19" class="edge"><title>AS6830&#45;&gt;AS3491</title>
<path fill="none" stroke="black" stroke-width="2" d="M308.626,-217.275C323.927,-200.235 349.025,-173.477 373.176,-153 375.674,-150.883 378.334,-148.768 381.045,-146.707"/>
<polygon fill="black" stroke="black" stroke-width="2" points="383.212,-149.459 389.222,-140.734 379.082,-143.806 383.212,-149.459"/>
</g>
<!-- AS1239 -->
<g id="node21" class="node"><title>AS1239</title>
<g id="a_node21"><a xlink:href="/asn/1239" xlink:title="AS1239 ~ Sprint [US]">
<ellipse fill="#ffffff" stroke="black" cx="412.823" cy="-72" rx="39.7935" ry="18"/>
<text text-anchor="middle" x="412.823" y="-68.3" font-family="Times,serif" font-size="14.00" fill="#2c94b3">AS1239</text>
</a>
</g>
</g>
<!-- AS6830&#45;&gt;AS1239 -->
<g id="edge20" class="edge"><title>AS6830&#45;&gt;AS1239</title>
<path fill="none" stroke="black" stroke-width="2" d="M301.396,-216.239C313.464,-188.817 339.436,-135.527 373.176,-99 375.207,-96.8018 377.446,-94.6807 379.792,-92.6596"/>
<polygon fill="black" stroke="black" stroke-width="2" points="382.319,-95.1262 388.036,-86.2062 378.004,-89.6142 382.319,-95.1262"/>
</g>
<!-- AS701 -->
<g id="node22" class="node"><title>AS701</title>
<g id="a_node22"><a xlink:href="/asn/701" xlink:title="AS701 ~ UUNET [US]">
<ellipse fill="#ffffff" stroke="black" cx="412.823" cy="-18" rx="35.194" ry="18"/>
<text text-anchor="middle" x="412.823" y="-14.3" font-family="Times,serif" font-size="14.00" fill="#2c94b3">AS701</text>
</a>
</g>
</g>
<!-- AS6830&#45;&gt;AS701 -->
<g id="edge21" class="edge"><title>AS6830&#45;&gt;AS701</title>
<path fill="none" stroke="black" stroke-width="2" d="M297.907,-216.118C306.465,-180.391 329.614,-98.9921 373.176,-45 375.284,-42.3883 377.707,-39.9207 380.292,-37.6179"/>
<polygon fill="black" stroke="black" stroke-width="2" points="382.701,-40.1743 388.372,-31.2249 378.358,-34.6845 382.701,-40.1743"/>
</g>
<!-- AS62451&#45;&gt;AS6830 -->
<g id="edge22" class="edge"><title>AS62451&#45;&gt;AS6830</title>
<path fill="none" stroke="black" stroke-width="4.5" d="M213.084,-234C222.773,-234 233.11,-234 243.002,-234"/>
<polygon fill="black" stroke="black" stroke-width="4.5" points="243.105,-237.938 253.105,-234 243.105,-230.063 243.105,-237.938"/>
</g>
<!-- AS2914 -->
<g id="node8" class="node"><title>AS2914</title>
<g id="a_node8"><a xlink:href="/asn/2914" xlink:title="AS2914 ~ NTT America, Inc. [US]">
<ellipse fill="#ffffff" stroke="black" cx="412.823" cy="-720" rx="39.7935" ry="18"/>
<text text-anchor="middle" x="412.823" y="-716.3" font-family="Times,serif" font-size="14.00" fill="#2c94b3">AS2914</text>
</a>
</g>
</g>
<!-- AS21013&#45;&gt;AS2914 -->
<g id="edge7" class="edge"><title>AS21013&#45;&gt;AS2914</title>
<path fill="none" stroke="black" d="M316.423,-654.426C335.004,-667.198 361.565,-685.455 381.945,-699.463"/>
<polygon fill="black" stroke="black" points="380.036,-702.398 390.259,-705.178 384.001,-696.629 380.036,-702.398"/>
</g>
<!-- AS3356 -->
<g id="node9" class="node"><title>AS3356</title>
<g id="a_node9"><a xlink:href="/asn/3356" xlink:title="AS3356 ~ Level 3 Parent, LLC [US]">
<ellipse fill="#ffffff" stroke="black" cx="412.823" cy="-666" rx="39.7935" ry="18"/>
<text text-anchor="middle" x="412.823" y="-662.3" font-family="Times,serif" font-size="14.00" fill="#2c94b3">AS3356</text>
</a>
</g>
</g>
<!-- AS21013&#45;&gt;AS3356 -->
<g id="edge8" class="edge"><title>AS21013&#45;&gt;AS3356</title>
<path fill="none" stroke="black" stroke-width="2" d="M331.915,-647.692C343.156,-650.267 355.568,-653.111 367.192,-655.774"/>
<polygon fill="black" stroke="black" stroke-width="2" points="366.624,-659.235 377.153,-658.057 368.188,-652.412 366.624,-659.235"/>
</g>
<!-- AS174 -->
<g id="node10" class="node"><title>AS174</title>
<g id="a_node10"><a xlink:href="/asn/174" xlink:title="AS174 ~ Cogent Communications [US]">
<ellipse fill="#ffffff" stroke="black" cx="412.823" cy="-612" rx="35.194" ry="18"/>
<text text-anchor="middle" x="412.823" y="-608.3" font-family="Times,serif" font-size="14.00" fill="#2c94b3">AS174</text>
</a>
</g>
</g>
<!-- AS21013&#45;&gt;AS174 -->
<g id="edge9" class="edge"><title>AS21013&#45;&gt;AS174</title>
<path fill="none" stroke="black" d="M331.915,-630.308C344.232,-627.486 357.957,-624.342 370.508,-621.466"/>
<polygon fill="black" stroke="black" points="371.307,-624.874 380.272,-619.229 369.743,-618.051 371.307,-624.874"/>
</g>
<!-- AS6461 -->
<g id="node11" class="node"><title>AS6461</title>
<g id="a_node11"><a xlink:href="/asn/6461" xlink:title="AS6461 ~ Zayo Bandwidth [US]">
<ellipse fill="#ffffff" stroke="black" cx="412.823" cy="-558" rx="39.7935" ry="18"/>
<text text-anchor="middle" x="412.823" y="-554.3" font-family="Times,serif" font-size="14.00" fill="#2c94b3">AS6461</text>
</a>
</g>
</g>
<!-- AS8218&#45;&gt;AS6461 -->
<g id="edge10" class="edge"><title>AS8218&#45;&gt;AS6461</title>
<path fill="none" stroke="black" d="M321.609,-516.661C337.566,-523.973 357.837,-533.261 375.119,-541.181"/>
<polygon fill="black" stroke="black" points="373.818,-544.435 384.367,-545.419 376.734,-538.071 373.818,-544.435"/>
</g>
<!-- AS1299 -->
<g id="node12" class="node"><title>AS1299</title>
<g id="a_node12"><a xlink:href="/asn/1299" xlink:title="AS1299 ~ Telia Carrier [EU]">
<ellipse fill="#ffffff" stroke="black" cx="412.823" cy="-504" rx="39.7935" ry="18"/>
<text text-anchor="middle" x="412.823" y="-500.3" font-family="Times,serif" font-size="14.00" fill="#2c94b3">AS1299</text>
</a>
</g>
</g>
<!-- AS8218&#45;&gt;AS1299 -->
<g id="edge11" class="edge"><title>AS8218&#45;&gt;AS1299</title>
<path fill="none" stroke="black" d="M332.893,-504C342.446,-504 352.796,-504 362.759,-504"/>
<polygon fill="black" stroke="black" points="362.951,-507.5 372.951,-504 362.951,-500.5 362.951,-507.5"/>
</g>
<!-- AS3257 -->
<g id="node14" class="node"><title>AS3257</title>
<g id="a_node14"><a xlink:href="/asn/3257" xlink:title="AS3257 ~ GTT [DE]">
<ellipse fill="#ffffff" stroke="black" cx="412.823" cy="-450" rx="39.7935" ry="18"/>
<text text-anchor="middle" x="412.823" y="-446.3" font-family="Times,serif" font-size="14.00" fill="#2c94b3">AS3257</text>
</a>
</g>
</g>
<!-- AS8928&#45;&gt;AS3257 -->
<g id="edge13" class="edge"><title>AS8928&#45;&gt;AS3257</title>
<path fill="none" stroke="black" d="M332.893,-450C342.446,-450 352.796,-450 362.759,-450"/>
<polygon fill="black" stroke="black" points="362.951,-453.5 372.951,-450 362.951,-446.5 362.951,-453.5"/>
</g>
<!-- AS3549 -->
<g id="node13" class="node"><title>AS3549</title>
<g id="a_node13"><a xlink:href="/asn/3549" xlink:title="AS3549 ~ Level 3 Parent, LLC [US]">
<ellipse fill="#ffffff" stroke="black" cx="528.116" cy="-666" rx="39.7935" ry="18"/>
<text text-anchor="middle" x="528.116" y="-662.3" font-family="Times,serif" font-size="14.00" fill="#2c94b3">AS3549</text>
</a>
</g>
</g>
<!-- AS3356&#45;&gt;AS3549 -->
<g id="edge12" class="edge"><title>AS3356&#45;&gt;AS3549</title>
<path fill="none" stroke="black" d="M452.495,-666C460.698,-666 469.462,-666 477.994,-666"/>
<polygon fill="black" stroke="black" points="478.233,-669.5 488.233,-666 478.233,-662.5 478.233,-669.5"/>
</g>
</g>
</svg>
