<?xml version="1.0" encoding="UTF-8" standalone="no"?>
<!DOCTYPE svg PUBLIC "-//W3C//DTD SVG 1.1//EN"
 "http://www.w3.org/Graphics/SVG/1.1/DTD/svg11.dtd">
<!-- Generated by graphviz version 2.38.0 (20140413.2041)
 -->
<!-- Title: AS60729 Combined Upstream Graph Pages: 1 -->
<svg width="585pt" height="584pt"
 viewBox="0.00 0.00 584.86 584.00" xmlns="http://www.w3.org/2000/svg" xmlns:xlink="http://www.w3.org/1999/xlink">
<g id="graph0" class="graph" transform="scale(1 1) rotate(0) translate(4 580)">
<title>AS60729 Combined Upstream Graph</title>
<polygon fill="white" stroke="none" points="-4,4 -4,-580 580.862,-580 580.862,4 -4,4"/>
<!-- AS60729 -->
<g id="node1" class="node"><title>AS60729</title>
<g id="a_node1"><a xlink:href="/asn/60729" xlink:title="AS60729 ~ Zwiebelfreunde e.V. [AT]">
<ellipse fill="#ffffff" stroke="black" cx="44.1961" cy="-216" rx="44.393" ry="18"/>
<text text-anchor="middle" x="44.1961" y="-212.3" font-family="Times,serif" font-size="14.00" fill="#880000">AS60729</text>
</a>
</g>
</g>
<!-- AS1273 -->
<g id="node2" class="node"><title>AS1273</title>
<g id="a_node2"><a xlink:href="/asn/1273" xlink:title="AS1273 ~ RIPE Network Coordination Centre [NL]">
<ellipse fill="#ffffff" stroke="black" cx="292.98" cy="-297" rx="39.7935" ry="18"/>
<text text-anchor="middle" x="292.98" y="-293.3" font-family="Times,serif" font-size="14.00" fill="#2c94b3">AS1273</text>
</a>
</g>
</g>
<!-- AS60729&#45;&gt;AS1273 -->
<g id="edge1" class="edge"><title>AS60729&#45;&gt;AS1273</title>
<path fill="none" stroke="black" stroke-width="1.8" d="M78.6794,-227.555C92.7745,-232.383 109.363,-238.017 124.392,-243 167.306,-257.228 216.571,-273.04 250.526,-283.857"/>
<polygon fill="black" stroke="black" stroke-width="1.8" points="249.522,-287.21 260.112,-286.908 251.645,-280.54 249.522,-287.21"/>
</g>
<!-- AS3320 -->
<g id="node3" class="node"><title>AS3320</title>
<g id="a_node3"><a xlink:href="/asn/3320" xlink:title="AS3320 ~ DTAG [DE]">
<ellipse fill="#ffffff" stroke="black" cx="417.373" cy="-342" rx="39.7935" ry="18"/>
<text text-anchor="middle" x="417.373" y="-338.3" font-family="Times,serif" font-size="14.00" fill="#2c94b3">AS3320</text>
</a>
</g>
</g>
<!-- AS60729&#45;&gt;AS3320 -->
<g id="edge2" class="edge"><title>AS60729&#45;&gt;AS3320</title>
<path fill="none" stroke="black" stroke-width="2.025" d="M65.6191,-231.92C81.185,-243.616 103.441,-259.421 124.392,-271 176.988,-300.069 190.631,-308.848 248.784,-324 287.919,-334.197 333.643,-338.63 367.435,-340.551"/>
<polygon fill="black" stroke="black" stroke-width="2.025" points="367.352,-344.051 377.519,-341.07 367.712,-337.06 367.352,-344.051"/>
</g>
<!-- AS9002 -->
<g id="node4" class="node"><title>AS9002</title>
<g id="a_node4"><a xlink:href="/asn/9002" xlink:title="AS9002 ~ RETN Limited [EU]">
<ellipse fill="#ffffff" stroke="black" cx="417.373" cy="-396" rx="39.7935" ry="18"/>
<text text-anchor="middle" x="417.373" y="-392.3" font-family="Times,serif" font-size="14.00" fill="#2c94b3">AS9002</text>
</a>
</g>
</g>
<!-- AS60729&#45;&gt;AS9002 -->
<g id="edge3" class="edge"><title>AS60729&#45;&gt;AS9002</title>
<path fill="none" stroke="black" stroke-width="0.675" d="M56.2017,-233.475C69.8345,-253.746 94.9029,-286.827 124.392,-306 201.535,-356.155 308.193,-379.663 368.949,-389.607"/>
<polygon fill="black" stroke="black" stroke-width="0.675" points="368.594,-393.095 379.018,-391.2 369.687,-386.18 368.594,-393.095"/>
</g>
<!-- AS25291 -->
<g id="node5" class="node"><title>AS25291</title>
<g id="a_node5"><a xlink:href="/asn/25291" xlink:title="AS25291 ~ SysEleven GmbH [DE]">
<ellipse fill="#ffffff" stroke="black" cx="168.588" cy="-44" rx="44.393" ry="18"/>
<text text-anchor="middle" x="168.588" y="-40.3" font-family="Times,serif" font-size="14.00" fill="#2c94b3">AS25291</text>
</a>
</g>
</g>
<!-- AS60729&#45;&gt;AS25291 -->
<g id="edge4" class="edge"><title>AS60729&#45;&gt;AS25291</title>
<path fill="none" stroke="black" stroke-width="0.45" d="M52.2902,-197.949C64.1,-169.494 89.94,-113.495 124.392,-75 127.453,-71.5802 130.954,-68.3195 134.609,-65.2851"/>
<polygon fill="black" stroke="black" stroke-width="0.45" points="136.951,-67.8995 142.745,-59.0296 132.684,-62.3501 136.951,-67.8995"/>
</g>
<!-- AS29670 -->
<g id="node6" class="node"><title>AS29670</title>
<g id="a_node6"><a xlink:href="/asn/29670" xlink:title="AS29670 ~ Individual Network Berlin e.V. [DE]">
<ellipse fill="#ffffff" stroke="black" cx="292.98" cy="-113" rx="44.393" ry="18"/>
<text text-anchor="middle" x="292.98" y="-109.3" font-family="Times,serif" font-size="14.00" fill="#2c94b3">AS29670</text>
</a>
</g>
</g>
<!-- AS60729&#45;&gt;AS29670 -->
<g id="edge5" class="edge"><title>AS60729&#45;&gt;AS29670</title>
<path fill="none" stroke="black" stroke-width="1.35" d="M75.9525,-203.163C120.408,-184.609 202.67,-150.275 251.851,-129.749"/>
<polygon fill="black" stroke="black" stroke-width="1.35" points="253.345,-132.918 261.225,-125.836 250.648,-126.458 253.345,-132.918"/>
</g>
<!-- AS33891 -->
<g id="node7" class="node"><title>AS33891</title>
<g id="a_node7"><a xlink:href="/asn/33891" xlink:title="AS33891 ~ CORE&#45;BACKBONE GMBH GLOBAL NETWORK [DE]">
<ellipse fill="#ffffff" stroke="black" cx="168.588" cy="-216" rx="44.393" ry="18"/>
<text text-anchor="middle" x="168.588" y="-212.3" font-family="Times,serif" font-size="14.00" fill="#2c94b3">AS33891</text>
</a>
</g>
</g>
<!-- AS60729&#45;&gt;AS33891 -->
<g id="edge6" class="edge"><title>AS60729&#45;&gt;AS33891</title>
<path fill="none" stroke="black" stroke-width="4.5" d="M88.6916,-216C96.898,-216 105.569,-216 114.041,-216"/>
<polygon fill="black" stroke="black" stroke-width="4.5" points="114.233,-219.938 124.233,-216 114.233,-212.063 114.233,-219.938"/>
</g>
<!-- AS47147 -->
<g id="node8" class="node"><title>AS47147</title>
<g id="a_node8"><a xlink:href="/asn/47147" xlink:title="AS47147 ~ ANEXIA Internetdienstleistungs GmbH [AT]">
<ellipse fill="#ffffff" stroke="black" cx="168.588" cy="-102" rx="44.393" ry="18"/>
<text text-anchor="middle" x="168.588" y="-98.3" font-family="Times,serif" font-size="14.00" fill="#2c94b3">AS47147</text>
</a>
</g>
</g>
<!-- AS60729&#45;&gt;AS47147 -->
<g id="edge7" class="edge"><title>AS60729&#45;&gt;AS47147</title>
<path fill="none" stroke="black" stroke-width="0.45" d="M62.3877,-199.495C78.3551,-184.218 102.842,-160.927 124.392,-141 130.002,-135.812 136.067,-130.286 141.829,-125.074"/>
<polygon fill="black" stroke="black" stroke-width="0.45" points="144.344,-127.52 149.427,-118.223 139.656,-122.321 144.344,-127.52"/>
</g>
<!-- AS3491 -->
<g id="node9" class="node"><title>AS3491</title>
<g id="a_node9"><a xlink:href="/asn/3491" xlink:title="AS3491 ~ PCCW Global, Inc. [US]">
<ellipse fill="#ffffff" stroke="black" cx="537.215" cy="-504" rx="39.7935" ry="18"/>
<text text-anchor="middle" x="537.215" y="-500.3" font-family="Times,serif" font-size="14.00" fill="#2c94b3">AS3491</text>
</a>
</g>
</g>
<!-- AS1273&#45;&gt;AS3491 -->
<g id="edge8" class="edge"><title>AS1273&#45;&gt;AS3491</title>
<path fill="none" stroke="black" stroke-width="2" d="M301.46,-315.029C313.266,-341.631 338.496,-391.627 373.176,-423 408.633,-455.076 459.118,-477.528 494.488,-490.529"/>
<polygon fill="black" stroke="black" stroke-width="2" points="493.444,-493.872 504.038,-493.945 495.801,-487.281 493.444,-493.872"/>
</g>
<!-- AS2497 -->
<g id="node10" class="node"><title>AS2497</title>
<g id="a_node10"><a xlink:href="/asn/2497" xlink:title="AS2497 ~ Internet Initiative Japan Inc. [JP]">
<ellipse fill="#ffffff" stroke="black" cx="537.215" cy="-234" rx="39.7935" ry="18"/>
<text text-anchor="middle" x="537.215" y="-230.3" font-family="Times,serif" font-size="14.00" fill="#2c94b3">AS2497</text>
</a>
</g>
</g>
<!-- AS1273&#45;&gt;AS2497 -->
<g id="edge9" class="edge"><title>AS1273&#45;&gt;AS2497</title>
<path fill="none" stroke="black" stroke-width="2" d="M332.846,-296.361C367.423,-294.809 418.962,-290.052 461.569,-276 477.058,-270.891 492.978,-262.45 506.116,-254.47"/>
<polygon fill="black" stroke="black" stroke-width="2" points="508.118,-257.345 514.728,-249.065 504.397,-251.416 508.118,-257.345"/>
</g>
<!-- AS1239 -->
<g id="node11" class="node"><title>AS1239</title>
<g id="a_node11"><a xlink:href="/asn/1239" xlink:title="AS1239 ~ Sprint [US]">
<ellipse fill="#ffffff" stroke="black" cx="537.215" cy="-558" rx="39.7935" ry="18"/>
<text text-anchor="middle" x="537.215" y="-554.3" font-family="Times,serif" font-size="14.00" fill="#2c94b3">AS1239</text>
</a>
</g>
</g>
<!-- AS1273&#45;&gt;AS1239 -->
<g id="edge10" class="edge"><title>AS1273&#45;&gt;AS1239</title>
<path fill="none" stroke="black" d="M298.715,-314.993C308.113,-347.812 331.865,-418.134 373.176,-463 407.704,-500.498 460.489,-527.508 496.583,-542.927"/>
<polygon fill="black" stroke="black" points="495.258,-546.167 505.835,-546.782 497.95,-539.705 495.258,-546.167"/>
</g>
<!-- AS1299 -->
<g id="node12" class="node"><title>AS1299</title>
<g id="a_node12"><a xlink:href="/asn/1299" xlink:title="AS1299 ~ Telia Carrier [EU]">
<ellipse fill="#ffffff" stroke="black" cx="417.373" cy="-139" rx="39.7935" ry="18"/>
<text text-anchor="middle" x="417.373" y="-135.3" font-family="Times,serif" font-size="14.00" fill="#2c94b3">AS1299</text>
</a>
</g>
</g>
<!-- AS1273&#45;&gt;AS1299 -->
<g id="edge11" class="edge"><title>AS1273&#45;&gt;AS1299</title>
<path fill="none" stroke="black" d="M305.885,-279.845C314.765,-266.869 327.058,-248.524 337.176,-232 354.22,-204.168 351.027,-191.969 373.176,-168 376.224,-164.702 379.718,-161.591 383.368,-158.719"/>
<polygon fill="black" stroke="black" points="385.452,-161.532 391.5,-152.833 381.347,-155.861 385.452,-161.532"/>
</g>
<!-- AS3320&#45;&gt;AS2497 -->
<g id="edge13" class="edge"><title>AS3320&#45;&gt;AS2497</title>
<path fill="none" stroke="black" stroke-width="2" d="M440.936,-327.242C447.909,-322.181 455.377,-316.216 461.569,-310 480.639,-290.854 478.234,-279.88 497.569,-261 499.71,-258.909 502.028,-256.865 504.428,-254.897"/>
<polygon fill="black" stroke="black" stroke-width="2" points="506.938,-257.384 512.77,-248.539 502.695,-251.817 506.938,-257.384"/>
</g>
<!-- AS3320&#45;&gt;AS1239 -->
<g id="edge15" class="edge"><title>AS3320&#45;&gt;AS1239</title>
<path fill="none" stroke="black" d="M446.206,-354.838C452.021,-358.661 457.586,-363.367 461.569,-369 504.148,-429.225 456.544,-469.706 497.569,-531 499.19,-533.423 501.109,-535.695 503.211,-537.81"/>
<polygon fill="black" stroke="black" points="501.024,-540.546 510.896,-544.393 505.578,-535.229 501.024,-540.546"/>
</g>
<!-- AS701 -->
<g id="node13" class="node"><title>AS701</title>
<g id="a_node13"><a xlink:href="/asn/701" xlink:title="AS701 ~ UUNET [US]">
<ellipse fill="#ffffff" stroke="black" cx="537.215" cy="-342" rx="35.194" ry="18"/>
<text text-anchor="middle" x="537.215" y="-338.3" font-family="Times,serif" font-size="14.00" fill="#2c94b3">AS701</text>
</a>
</g>
</g>
<!-- AS3320&#45;&gt;AS701 -->
<g id="edge12" class="edge"><title>AS3320&#45;&gt;AS701</title>
<path fill="none" stroke="black" stroke-width="2" d="M457.285,-342C468.372,-342 480.531,-342 491.914,-342"/>
<polygon fill="black" stroke="black" stroke-width="2" points="492.096,-345.5 502.096,-342 492.096,-338.5 492.096,-345.5"/>
</g>
<!-- AS7018 -->
<g id="node14" class="node"><title>AS7018</title>
<g id="a_node14"><a xlink:href="/asn/7018" xlink:title="AS7018 ~ AT&amp;T Services, Inc. [US]">
<ellipse fill="#ffffff" stroke="black" cx="537.215" cy="-288" rx="39.7935" ry="18"/>
<text text-anchor="middle" x="537.215" y="-284.3" font-family="Times,serif" font-size="14.00" fill="#2c94b3">AS7018</text>
</a>
</g>
</g>
<!-- AS3320&#45;&gt;AS7018 -->
<g id="edge14" class="edge"><title>AS3320&#45;&gt;AS7018</title>
<path fill="none" stroke="black" stroke-width="2" d="M446.001,-329.339C461.958,-322.027 482.229,-312.739 499.512,-304.819"/>
<polygon fill="black" stroke="black" stroke-width="2" points="501.126,-307.929 508.759,-300.581 498.21,-301.565 501.126,-307.929"/>
</g>
<!-- AS6453 -->
<g id="node15" class="node"><title>AS6453</title>
<g id="a_node15"><a xlink:href="/asn/6453" xlink:title="AS6453 ~ TATA COMMUNICATIONS (AMERICA) INC [US]">
<ellipse fill="#ffffff" stroke="black" cx="537.215" cy="-450" rx="39.7935" ry="18"/>
<text text-anchor="middle" x="537.215" y="-446.3" font-family="Times,serif" font-size="14.00" fill="#2c94b3">AS6453</text>
</a>
</g>
</g>
<!-- AS3320&#45;&gt;AS6453 -->
<g id="edge16" class="edge"><title>AS3320&#45;&gt;AS6453</title>
<path fill="none" stroke="black" d="M443.902,-355.462C450.064,-359.362 456.366,-363.948 461.569,-369 482.262,-389.094 477.396,-402.383 497.569,-423 499.661,-425.139 501.945,-427.218 504.322,-429.21"/>
<polygon fill="black" stroke="black" points="502.565,-432.275 512.621,-435.611 506.84,-426.732 502.565,-432.275"/>
</g>
<!-- AS9002&#45;&gt;AS6453 -->
<g id="edge17" class="edge"><title>AS9002&#45;&gt;AS6453</title>
<path fill="none" stroke="black" d="M446.001,-408.661C461.958,-415.973 482.229,-425.261 499.512,-433.181"/>
<polygon fill="black" stroke="black" points="498.21,-436.435 508.759,-437.419 501.126,-430.071 498.21,-436.435"/>
</g>
<!-- AS6762 -->
<g id="node16" class="node"><title>AS6762</title>
<g id="a_node16"><a xlink:href="/asn/6762" xlink:title="AS6762 ~ TELECOM ITALIA SPARKLE S.p.A. [IT]">
<ellipse fill="#ffffff" stroke="black" cx="537.215" cy="-396" rx="39.7935" ry="18"/>
<text text-anchor="middle" x="537.215" y="-392.3" font-family="Times,serif" font-size="14.00" fill="#2c94b3">AS6762</text>
</a>
</g>
</g>
<!-- AS9002&#45;&gt;AS6762 -->
<g id="edge18" class="edge"><title>AS9002&#45;&gt;AS6762</title>
<path fill="none" stroke="black" stroke-width="2" d="M457.285,-396C466.839,-396 477.188,-396 487.151,-396"/>
<polygon fill="black" stroke="black" stroke-width="2" points="487.343,-399.5 497.343,-396 487.343,-392.5 487.343,-399.5"/>
</g>
<!-- AS2914 -->
<g id="node17" class="node"><title>AS2914</title>
<g id="a_node17"><a xlink:href="/asn/2914" xlink:title="AS2914 ~ NTT America, Inc. [US]">
<ellipse fill="#ffffff" stroke="black" cx="537.215" cy="-126" rx="39.7935" ry="18"/>
<text text-anchor="middle" x="537.215" y="-122.3" font-family="Times,serif" font-size="14.00" fill="#2c94b3">AS2914</text>
</a>
</g>
</g>
<!-- AS25291&#45;&gt;AS2914 -->
<g id="edge19" class="edge"><title>AS25291&#45;&gt;AS2914</title>
<path fill="none" stroke="black" stroke-width="2" d="M208.433,-35.8391C266.817,-25.6154 379.125,-14.0136 461.569,-55 484.194,-66.248 479.037,-81.8244 497.569,-99 499.97,-101.225 502.564,-103.415 505.233,-105.525"/>
<polygon fill="black" stroke="black" stroke-width="2" points="503.233,-108.4 513.342,-111.573 507.419,-102.789 503.233,-108.4"/>
</g>
<!-- AS50629 -->
<g id="node18" class="node"><title>AS50629</title>
<g id="a_node18"><a xlink:href="/asn/50629" xlink:title="AS50629 ~ LWLcom GmbH [DE]">
<ellipse fill="#ffffff" stroke="black" cx="417.373" cy="-82" rx="44.393" ry="18"/>
<text text-anchor="middle" x="417.373" y="-78.3" font-family="Times,serif" font-size="14.00" fill="#2c94b3">AS50629</text>
</a>
</g>
</g>
<!-- AS29670&#45;&gt;AS50629 -->
<g id="edge20" class="edge"><title>AS29670&#45;&gt;AS50629</title>
<path fill="none" stroke="black" stroke-width="2" d="M331.034,-103.615C343.137,-100.549 356.74,-97.104 369.469,-93.88"/>
<polygon fill="black" stroke="black" stroke-width="2" points="370.61,-97.2015 379.445,-91.3532 368.891,-90.4158 370.61,-97.2015"/>
</g>
<!-- AS6939 -->
<g id="node19" class="node"><title>AS6939</title>
<g id="a_node19"><a xlink:href="/asn/6939" xlink:title="AS6939 ~ Hurricane Electric LLC [US]">
<ellipse fill="#ffffff" stroke="black" cx="417.373" cy="-249" rx="39.7935" ry="18"/>
<text text-anchor="middle" x="417.373" y="-245.3" font-family="Times,serif" font-size="14.00" fill="#2c94b3">AS6939</text>
</a>
</g>
</g>
<!-- AS29670&#45;&gt;AS6939 -->
<g id="edge21" class="edge"><title>AS29670&#45;&gt;AS6939</title>
<path fill="none" stroke="black" stroke-width="4" d="M305.516,-130.533C323.411,-157.434 357.439,-207.323 373.176,-222 376.077,-224.705 379.286,-227.291 382.608,-229.716"/>
<polygon fill="black" stroke="black" stroke-width="4" points="380.741,-232.679 390.983,-235.391 384.668,-226.884 380.741,-232.679"/>
</g>
<!-- AS33891&#45;&gt;AS1273 -->
<g id="edge26" class="edge"><title>AS33891&#45;&gt;AS1273</title>
<path fill="none" stroke="black" stroke-width="0.409091" d="M192.609,-231.235C211.963,-244.044 239.798,-262.466 261.088,-276.555"/>
<polygon fill="black" stroke="black" stroke-width="0.409091" points="259.205,-279.506 269.476,-282.107 263.069,-273.669 259.205,-279.506"/>
</g>
<!-- AS33891&#45;&gt;AS1299 -->
<g id="edge23" class="edge"><title>AS33891&#45;&gt;AS1299</title>
<path fill="none" stroke="black" stroke-width="2.86364" d="M195.731,-201.67C210.879,-193.825 230.513,-184.423 248.784,-178 288.627,-163.995 335.574,-153.565 369.628,-147.032"/>
<polygon fill="black" stroke="black" stroke-width="2.86364" points="370.578,-150.415 379.76,-145.13 369.286,-143.535 370.578,-150.415"/>
</g>
<!-- AS3356 -->
<g id="node21" class="node"><title>AS3356</title>
<g id="a_node21"><a xlink:href="/asn/3356" xlink:title="AS3356 ~ Level 3 Parent, LLC [US]">
<ellipse fill="#ffffff" stroke="black" cx="417.373" cy="-195" rx="39.7935" ry="18"/>
<text text-anchor="middle" x="417.373" y="-191.3" font-family="Times,serif" font-size="14.00" fill="#2c94b3">AS3356</text>
</a>
</g>
</g>
<!-- AS33891&#45;&gt;AS3356 -->
<g id="edge24" class="edge"><title>AS33891&#45;&gt;AS3356</title>
<path fill="none" stroke="black" stroke-width="4.5" d="M205.622,-225.866C239.834,-233.729 292.523,-241.916 337.176,-232 353.186,-228.445 369.791,-221.298 383.636,-214.226"/>
<polygon fill="black" stroke="black" stroke-width="4.5" points="385.758,-217.557 392.739,-209.386 382.061,-210.604 385.758,-217.557"/>
</g>
<!-- AS3257 -->
<g id="node22" class="node"><title>AS3257</title>
<g id="a_node22"><a xlink:href="/asn/3257" xlink:title="AS3257 ~ GTT [DE]">
<ellipse fill="#ffffff" stroke="black" cx="292.98" cy="-205" rx="39.7935" ry="18"/>
<text text-anchor="middle" x="292.98" y="-201.3" font-family="Times,serif" font-size="14.00" fill="#2c94b3">AS3257</text>
</a>
</g>
</g>
<!-- AS33891&#45;&gt;AS3257 -->
<g id="edge25" class="edge"><title>AS33891&#45;&gt;AS3257</title>
<path fill="none" stroke="black" stroke-width="0.409091" d="M212.052,-212.184C222.201,-211.271 233.111,-210.291 243.508,-209.356"/>
<polygon fill="black" stroke="black" stroke-width="0.409091" points="244.041,-212.823 253.687,-208.442 243.414,-205.851 244.041,-212.823"/>
</g>
<!-- AS47147&#45;&gt;AS1299 -->
<g id="edge35" class="edge"><title>AS47147&#45;&gt;AS1299</title>
<path fill="none" stroke="black" stroke-width="2" d="M204.06,-91.118C238.492,-81.9966 292.571,-72.4514 337.176,-86 340.046,-86.8716 365.079,-103.764 386.244,-118.246"/>
<polygon fill="black" stroke="black" stroke-width="2" points="384.477,-121.278 394.703,-124.046 388.435,-115.505 384.477,-121.278"/>
</g>
<!-- AS1299&#45;&gt;AS2497 -->
<g id="edge42" class="edge"><title>AS1299&#45;&gt;AS2497</title>
<path fill="none" stroke="black" d="M441.966,-153.395C448.541,-157.786 455.532,-162.829 461.569,-168 479.484,-183.346 479.797,-191.488 497.569,-207 500.035,-209.153 502.674,-211.292 505.372,-213.369"/>
<polygon fill="black" stroke="black" points="503.397,-216.262 513.527,-219.367 507.545,-210.623 503.397,-216.262"/>
</g>
<!-- AS1299&#45;&gt;AS7018 -->
<g id="edge41" class="edge"><title>AS1299&#45;&gt;AS7018</title>
<path fill="none" stroke="black" d="M444.252,-152.657C450.551,-156.914 456.831,-162.074 461.569,-168 489.246,-202.618 470.214,-226.127 497.569,-261 499.368,-263.294 501.415,-265.473 503.606,-267.523"/>
<polygon fill="black" stroke="black" points="501.513,-270.333 511.459,-273.985 505.961,-264.928 501.513,-270.333"/>
</g>
<!-- AS1299&#45;&gt;AS2914 -->
<g id="edge44" class="edge"><title>AS1299&#45;&gt;AS2914</title>
<path fill="none" stroke="black" d="M455.983,-134.851C466.294,-133.713 477.611,-132.465 488.411,-131.274"/>
<polygon fill="black" stroke="black" points="489.002,-134.73 498.558,-130.154 488.235,-127.772 489.002,-134.73"/>
</g>
<!-- AS174 -->
<g id="node20" class="node"><title>AS174</title>
<g id="a_node20"><a xlink:href="/asn/174" xlink:title="AS174 ~ Cogent Communications [US]">
<ellipse fill="#ffffff" stroke="black" cx="537.215" cy="-18" rx="35.194" ry="18"/>
<text text-anchor="middle" x="537.215" y="-14.3" font-family="Times,serif" font-size="14.00" fill="#2c94b3">AS174</text>
</a>
</g>
</g>
<!-- AS1299&#45;&gt;AS174 -->
<g id="edge43" class="edge"><title>AS1299&#45;&gt;AS174</title>
<path fill="none" stroke="black" d="M442.78,-124.877C449.369,-120.346 456.162,-114.944 461.569,-109 483.528,-84.8573 475.643,-69.1732 497.569,-45 499.894,-42.4367 502.505,-39.9837 505.244,-37.6743"/>
<polygon fill="black" stroke="black" points="507.381,-40.4461 513.173,-31.5744 503.113,-34.898 507.381,-40.4461"/>
</g>
<!-- AS209 -->
<g id="node24" class="node"><title>AS209</title>
<g id="a_node24"><a xlink:href="/asn/209" xlink:title="AS209 ~ CenturyLink Communications, LLC [US]">
<ellipse fill="#ffffff" stroke="black" cx="537.215" cy="-72" rx="35.194" ry="18"/>
<text text-anchor="middle" x="537.215" y="-68.3" font-family="Times,serif" font-size="14.00" fill="#2c94b3">AS209</text>
</a>
</g>
</g>
<!-- AS1299&#45;&gt;AS209 -->
<g id="edge40" class="edge"><title>AS1299&#45;&gt;AS209</title>
<path fill="none" stroke="black" d="M442.79,-125.118C460.598,-114.992 484.9,-101.175 504.254,-90.1714"/>
<polygon fill="black" stroke="black" points="506.069,-93.166 513.032,-85.1808 502.609,-87.0808 506.069,-93.166"/>
</g>
<!-- AS50629&#45;&gt;AS174 -->
<g id="edge22" class="edge"><title>AS50629&#45;&gt;AS174</title>
<path fill="none" stroke="black" stroke-width="2" d="M444.526,-67.7963C461.928,-58.3453 484.921,-45.8575 503.529,-35.7518"/>
<polygon fill="black" stroke="black" stroke-width="2" points="505.419,-38.7082 512.536,-30.86 502.078,-32.5569 505.419,-38.7082"/>
</g>
<!-- AS6939&#45;&gt;AS3491 -->
<g id="edge37" class="edge"><title>AS6939&#45;&gt;AS3491</title>
<path fill="none" stroke="black" d="M431.946,-265.948C441.548,-278.735 454.012,-297.082 461.569,-315 490.229,-382.96 456.544,-415.706 497.569,-477 499.19,-479.423 501.109,-481.695 503.211,-483.81"/>
<polygon fill="black" stroke="black" points="501.024,-486.546 510.896,-490.393 505.578,-481.229 501.024,-486.546"/>
</g>
<!-- AS6939&#45;&gt;AS2497 -->
<g id="edge39" class="edge"><title>AS6939&#45;&gt;AS2497</title>
<path fill="none" stroke="black" d="M455.659,-244.254C466.19,-242.913 477.793,-241.436 488.833,-240.031"/>
<polygon fill="black" stroke="black" points="489.289,-243.501 498.767,-238.767 488.405,-236.558 489.289,-243.501"/>
</g>
<!-- AS6939&#45;&gt;AS6762 -->
<g id="edge38" class="edge"><title>AS6939&#45;&gt;AS6762</title>
<path fill="none" stroke="black" d="M429.687,-266.325C451.065,-299.036 495.457,-366.832 497.569,-369 499.656,-371.144 501.936,-373.226 504.311,-375.221"/>
<polygon fill="black" stroke="black" points="502.551,-378.284 512.606,-381.626 506.83,-372.744 502.551,-378.284"/>
</g>
<!-- AS6939&#45;&gt;AS2914 -->
<g id="edge36" class="edge"><title>AS6939&#45;&gt;AS2914</title>
<path fill="none" stroke="black" d="M444.737,-235.626C450.744,-231.778 456.764,-227.193 461.569,-222 485.058,-196.609 474.736,-178.983 497.569,-153 499.544,-150.752 501.743,-148.595 504.063,-146.55"/>
<polygon fill="black" stroke="black" points="506.596,-149.008 512.257,-140.052 502.247,-143.523 506.596,-149.008"/>
</g>
<!-- AS3356&#45;&gt;AS2497 -->
<g id="edge30" class="edge"><title>AS3356&#45;&gt;AS2497</title>
<path fill="none" stroke="black" d="M449.952,-205.451C463.69,-209.998 479.975,-215.387 494.675,-220.252"/>
<polygon fill="black" stroke="black" points="493.955,-223.701 504.548,-223.52 496.154,-217.055 493.955,-223.701"/>
</g>
<!-- AS3356&#45;&gt;AS701 -->
<g id="edge31" class="edge"><title>AS3356&#45;&gt;AS701</title>
<path fill="none" stroke="black" d="M445.158,-208.005C451.152,-211.865 457.061,-216.547 461.569,-222 489.807,-256.162 470.214,-280.127 497.569,-315 499.64,-317.64 502.039,-320.128 504.607,-322.443"/>
<polygon fill="black" stroke="black" points="502.66,-325.366 512.665,-328.855 507.019,-319.889 502.66,-325.366"/>
</g>
<!-- AS3356&#45;&gt;AS6453 -->
<g id="edge34" class="edge"><title>AS3356&#45;&gt;AS6453</title>
<path fill="none" stroke="black" d="M446.377,-207.721C452.184,-211.548 457.704,-216.286 461.569,-222 512.414,-297.174 448.663,-346.55 497.569,-423 499.14,-425.456 501.022,-427.752 503.099,-429.884"/>
<polygon fill="black" stroke="black" points="500.885,-432.597 510.736,-436.498 505.468,-427.305 500.885,-432.597"/>
</g>
<!-- AS3356&#45;&gt;AS6762 -->
<g id="edge29" class="edge"><title>AS3356&#45;&gt;AS6762</title>
<path fill="none" stroke="black" d="M445.671,-207.609C451.649,-211.481 457.422,-216.267 461.569,-222 500.988,-276.503 459.556,-313.507 497.569,-369 499.216,-371.406 501.154,-373.664 503.269,-375.771"/>
<polygon fill="black" stroke="black" points="501.096,-378.518 510.978,-382.337 505.635,-373.189 501.096,-378.518"/>
</g>
<!-- AS3356&#45;&gt;AS2914 -->
<g id="edge32" class="edge"><title>AS3356&#45;&gt;AS2914</title>
<path fill="none" stroke="black" d="M442.504,-180.87C460.06,-170.591 484.034,-156.553 503.339,-145.25"/>
<polygon fill="black" stroke="black" points="505.255,-148.184 512.116,-140.111 501.718,-142.143 505.255,-148.184"/>
</g>
<!-- AS3356&#45;&gt;AS174 -->
<g id="edge33" class="edge"><title>AS3356&#45;&gt;AS174</title>
<path fill="none" stroke="black" d="M444.579,-181.594C450.875,-177.334 457.072,-172.111 461.569,-166 494.822,-120.808 464.737,-90.4984 497.569,-45 499.532,-42.2788 501.858,-39.7367 504.38,-37.3861"/>
<polygon fill="black" stroke="black" points="506.796,-39.9334 512.367,-30.9213 502.392,-34.4924 506.796,-39.9334"/>
</g>
<!-- AS3549 -->
<g id="node23" class="node"><title>AS3549</title>
<g id="a_node23"><a xlink:href="/asn/3549" xlink:title="AS3549 ~ Level 3 Parent, LLC [US]">
<ellipse fill="#ffffff" stroke="black" cx="537.215" cy="-180" rx="39.7935" ry="18"/>
<text text-anchor="middle" x="537.215" y="-176.3" font-family="Times,serif" font-size="14.00" fill="#2c94b3">AS3549</text>
</a>
</g>
</g>
<!-- AS3356&#45;&gt;AS3549 -->
<g id="edge27" class="edge"><title>AS3356&#45;&gt;AS3549</title>
<path fill="none" stroke="black" d="M455.659,-190.254C466.19,-188.913 477.793,-187.436 488.833,-186.031"/>
<polygon fill="black" stroke="black" points="489.289,-189.501 498.767,-184.767 488.405,-182.558 489.289,-189.501"/>
</g>
<!-- AS3356&#45;&gt;AS209 -->
<g id="edge28" class="edge"><title>AS3356&#45;&gt;AS209</title>
<path fill="none" stroke="black" stroke-width="2" d="M443.318,-181.234C449.765,-176.917 456.352,-171.756 461.569,-166 484.27,-140.953 475.101,-124.257 497.569,-99 499.799,-96.4927 502.306,-94.096 504.944,-91.8388"/>
<polygon fill="black" stroke="black" stroke-width="2" points="507.345,-94.4061 513.106,-85.5143 503.058,-88.873 507.345,-94.4061"/>
</g>
</g>
</svg>
