<?xml version="1.0" encoding="UTF-8" standalone="no"?>
<!DOCTYPE svg PUBLIC "-//W3C//DTD SVG 1.1//EN"
 "http://www.w3.org/Graphics/SVG/1.1/DTD/svg11.dtd">
<!-- Generated by graphviz version 2.38.0 (20140413.2041)
 -->
<!-- Title: AS47650 Combined Upstream Graph Pages: 1 -->
<svg width="806pt" height="530pt"
 viewBox="0.00 0.00 806.35 530.00" xmlns="http://www.w3.org/2000/svg" xmlns:xlink="http://www.w3.org/1999/xlink">
<g id="graph0" class="graph" transform="scale(1 1) rotate(0) translate(4 526)">
<title>AS47650 Combined Upstream Graph</title>
<polygon fill="white" stroke="none" points="-4,4 -4,-526 802.348,-526 802.348,4 -4,4"/>
<!-- AS47650 -->
<g id="node1" class="node"><title>AS47650</title>
<g id="a_node1"><a xlink:href="/asn/47650" xlink:title="AS47650 ~ IS&#45;IT&#45;ON GmbH [AT]">
<ellipse fill="#ffffff" stroke="black" cx="44.1961" cy="-226" rx="44.393" ry="18"/>
<text text-anchor="middle" x="44.1961" y="-222.3" font-family="Times,serif" font-size="14.00" fill="#880000">AS47650</text>
</a>
</g>
</g>
<!-- AS48943 -->
<g id="node2" class="node"><title>AS48943</title>
<g id="a_node2"><a xlink:href="/asn/48943" xlink:title="AS48943 ~ KAPPER NETWORK&#45;COMMUNICATIONS GmbH [AT]">
<ellipse fill="#ffffff" stroke="black" cx="168.588" cy="-226" rx="44.393" ry="18"/>
<text text-anchor="middle" x="168.588" y="-222.3" font-family="Times,serif" font-size="14.00" fill="#2c94b3">AS48943</text>
</a>
</g>
</g>
<!-- AS47650&#45;&gt;AS48943 -->
<g id="edge1" class="edge"><title>AS47650&#45;&gt;AS48943</title>
<path fill="none" stroke="black" stroke-width="4.5" d="M88.6916,-226C96.898,-226 105.569,-226 114.041,-226"/>
<polygon fill="black" stroke="black" stroke-width="4.5" points="114.233,-229.938 124.233,-226 114.233,-222.063 114.233,-229.938"/>
</g>
<!-- AS47147 -->
<g id="node3" class="node"><title>AS47147</title>
<g id="a_node3"><a xlink:href="/asn/47147" xlink:title="AS47147 ~ ANEXIA Internetdienstleistungs GmbH [AT]">
<ellipse fill="#ffffff" stroke="black" cx="408.273" cy="-334" rx="44.393" ry="18"/>
<text text-anchor="middle" x="408.273" y="-330.3" font-family="Times,serif" font-size="14.00" fill="#2c94b3">AS47147</text>
</a>
</g>
</g>
<!-- AS48943&#45;&gt;AS47147 -->
<g id="edge2" class="edge"><title>AS48943&#45;&gt;AS47147</title>
<path fill="none" stroke="black" stroke-width="4.5" d="M198.733,-239.243C241.411,-258.635 320.986,-294.793 368.54,-316.4"/>
<polygon fill="black" stroke="black" stroke-width="4.5" points="367.157,-320.097 377.89,-320.649 370.415,-312.927 367.157,-320.097"/>
</g>
<!-- AS8218 -->
<g id="node4" class="node"><title>AS8218</title>
<g id="a_node4"><a xlink:href="/asn/8218" xlink:title="AS8218 ~ legacy Neotelecoms [FR]">
<ellipse fill="#ffffff" stroke="black" cx="288.431" cy="-172" rx="39.7935" ry="18"/>
<text text-anchor="middle" x="288.431" y="-168.3" font-family="Times,serif" font-size="14.00" fill="#2c94b3">AS8218</text>
</a>
</g>
</g>
<!-- AS48943&#45;&gt;AS8218 -->
<g id="edge3" class="edge"><title>AS48943&#45;&gt;AS8218</title>
<path fill="none" stroke="black" stroke-width="1.96875" d="M198.718,-212.652C214.329,-205.498 233.727,-196.609 250.399,-188.97"/>
<polygon fill="black" stroke="black" stroke-width="1.96875" points="252.218,-191.986 259.851,-184.638 249.302,-185.622 252.218,-191.986"/>
</g>
<!-- AS8437 -->
<g id="node5" class="node"><title>AS8437</title>
<g id="a_node5"><a xlink:href="/asn/8437" xlink:title="AS8437 ~ Hutchison Drei Austria GmbH [AT]">
<ellipse fill="#ffffff" stroke="black" cx="288.431" cy="-226" rx="39.7935" ry="18"/>
<text text-anchor="middle" x="288.431" y="-222.3" font-family="Times,serif" font-size="14.00" fill="#2c94b3">AS8437</text>
</a>
</g>
</g>
<!-- AS48943&#45;&gt;AS8437 -->
<g id="edge4" class="edge"><title>AS48943&#45;&gt;AS8437</title>
<path fill="none" stroke="black" stroke-width="1.40625" d="M212.799,-226C221.112,-226 229.875,-226 238.357,-226"/>
<polygon fill="black" stroke="black" stroke-width="1.40625" points="238.516,-229.5 248.516,-226 238.516,-222.5 238.516,-229.5"/>
</g>
<!-- AS2914 -->
<g id="node6" class="node"><title>AS2914</title>
<g id="a_node6"><a xlink:href="/asn/2914" xlink:title="AS2914 ~ NTT America, Inc. [US]">
<ellipse fill="#ffffff" stroke="black" cx="528.116" cy="-280" rx="39.7935" ry="18"/>
<text text-anchor="middle" x="528.116" y="-276.3" font-family="Times,serif" font-size="14.00" fill="#2c94b3">AS2914</text>
</a>
</g>
</g>
<!-- AS47147&#45;&gt;AS2914 -->
<g id="edge5" class="edge"><title>AS47147&#45;&gt;AS2914</title>
<path fill="none" stroke="black" stroke-width="4.5" d="M438.403,-320.652C454.014,-313.498 473.412,-304.609 490.084,-296.97"/>
<polygon fill="black" stroke="black" stroke-width="4.5" points="492.085,-300.384 499.536,-292.638 488.805,-293.225 492.085,-300.384"/>
</g>
<!-- AS3320 -->
<g id="node7" class="node"><title>AS3320</title>
<g id="a_node7"><a xlink:href="/asn/3320" xlink:title="AS3320 ~ DTAG [DE]">
<ellipse fill="#ffffff" stroke="black" cx="528.116" cy="-450" rx="39.7935" ry="18"/>
<text text-anchor="middle" x="528.116" y="-446.3" font-family="Times,serif" font-size="14.00" fill="#2c94b3">AS3320</text>
</a>
</g>
</g>
<!-- AS47147&#45;&gt;AS3320 -->
<g id="edge6" class="edge"><title>AS47147&#45;&gt;AS3320</title>
<path fill="none" stroke="black" stroke-width="1.92857" d="M425.063,-350.735C440.845,-367.32 465.939,-393.315 488.469,-415 492.546,-418.923 496.935,-423.017 501.242,-426.964"/>
<polygon fill="black" stroke="black" stroke-width="1.92857" points="499.062,-429.713 508.819,-433.842 503.767,-424.53 499.062,-429.713"/>
</g>
<!-- AS1299 -->
<g id="node8" class="node"><title>AS1299</title>
<g id="a_node8"><a xlink:href="/asn/1299" xlink:title="AS1299 ~ Telia Carrier [EU]">
<ellipse fill="#ffffff" stroke="black" cx="528.116" cy="-388" rx="39.7935" ry="18"/>
<text text-anchor="middle" x="528.116" y="-384.3" font-family="Times,serif" font-size="14.00" fill="#2c94b3">AS1299</text>
</a>
</g>
</g>
<!-- AS47147&#45;&gt;AS1299 -->
<g id="edge7" class="edge"><title>AS47147&#45;&gt;AS1299</title>
<path fill="none" stroke="black" stroke-width="3.85714" d="M438.403,-347.348C454.014,-354.502 473.412,-363.391 490.084,-371.03"/>
<polygon fill="black" stroke="black" stroke-width="3.85714" points="488.987,-374.378 499.536,-375.362 491.903,-368.014 488.987,-374.378"/>
</g>
<!-- AS6461 -->
<g id="node14" class="node"><title>AS6461</title>
<g id="a_node14"><a xlink:href="/asn/6461" xlink:title="AS6461 ~ Zayo Bandwidth [US]">
<ellipse fill="#ffffff" stroke="black" cx="528.116" cy="-172" rx="39.7935" ry="18"/>
<text text-anchor="middle" x="528.116" y="-168.3" font-family="Times,serif" font-size="14.00" fill="#2c94b3">AS6461</text>
</a>
</g>
</g>
<!-- AS8218&#45;&gt;AS6461 -->
<g id="edge13" class="edge"><title>AS8218&#45;&gt;AS6461</title>
<path fill="none" stroke="black" stroke-width="4.5" d="M328.148,-172C369.067,-172 433.707,-172 478.141,-172"/>
<polygon fill="black" stroke="black" stroke-width="4.5" points="478.415,-175.938 488.415,-172 478.415,-168.063 478.415,-175.938"/>
</g>
<!-- AS25255 -->
<g id="node22" class="node"><title>AS25255</title>
<g id="a_node22"><a xlink:href="/asn/25255" xlink:title="AS25255 ~ ==&gt; TELE2 AUSTRIA &lt;== [AT]">
<ellipse fill="#ffffff" stroke="black" cx="408.273" cy="-226" rx="44.393" ry="18"/>
<text text-anchor="middle" x="408.273" y="-222.3" font-family="Times,serif" font-size="14.00" fill="#2c94b3">AS25255</text>
</a>
</g>
</g>
<!-- AS8437&#45;&gt;AS25255 -->
<g id="edge29" class="edge"><title>AS8437&#45;&gt;AS25255</title>
<path fill="none" stroke="black" stroke-width="4.5" d="M328.343,-226C336.446,-226 345.121,-226 353.648,-226"/>
<polygon fill="black" stroke="black" stroke-width="4.5" points="353.925,-229.938 363.925,-226 353.925,-222.063 353.925,-229.938"/>
</g>
<!-- AS2497 -->
<g id="node9" class="node"><title>AS2497</title>
<g id="a_node9"><a xlink:href="/asn/2497" xlink:title="AS2497 ~ Internet Initiative Japan Inc. [JP]">
<ellipse fill="#ffffff" stroke="black" cx="643.409" cy="-180" rx="39.7935" ry="18"/>
<text text-anchor="middle" x="643.409" y="-176.3" font-family="Times,serif" font-size="14.00" fill="#2c94b3">AS2497</text>
</a>
</g>
</g>
<!-- AS2914&#45;&gt;AS2497 -->
<g id="edge8" class="edge"><title>AS2914&#45;&gt;AS2497</title>
<path fill="none" stroke="black" d="M552.058,-265.647C557.452,-261.828 563.009,-257.503 567.762,-253 586.611,-235.147 584.914,-224.853 603.762,-207 606.139,-204.749 608.717,-202.542 611.375,-200.42"/>
<polygon fill="black" stroke="black" points="613.565,-203.152 619.467,-194.353 609.366,-197.552 613.565,-203.152"/>
</g>
<!-- AS6762 -->
<g id="node10" class="node"><title>AS6762</title>
<g id="a_node10"><a xlink:href="/asn/6762" xlink:title="AS6762 ~ TELECOM ITALIA SPARKLE S.p.A. [IT]">
<ellipse fill="#ffffff" stroke="black" cx="643.409" cy="-126" rx="39.7935" ry="18"/>
<text text-anchor="middle" x="643.409" y="-122.3" font-family="Times,serif" font-size="14.00" fill="#2c94b3">AS6762</text>
</a>
</g>
</g>
<!-- AS2914&#45;&gt;AS6762 -->
<g id="edge9" class="edge"><title>AS2914&#45;&gt;AS6762</title>
<path fill="none" stroke="black" d="M553.959,-266.052C559.04,-262.326 563.982,-257.94 567.762,-253 596.472,-215.489 575.053,-190.511 603.762,-153 605.535,-150.685 607.562,-148.491 609.739,-146.429"/>
<polygon fill="black" stroke="black" points="612.096,-149.022 617.566,-139.948 607.631,-143.63 612.096,-149.022"/>
</g>
<!-- AS3356 -->
<g id="node11" class="node"><title>AS3356</title>
<g id="a_node11"><a xlink:href="/asn/3356" xlink:title="AS3356 ~ Level 3 Parent, LLC [US]">
<ellipse fill="#ffffff" stroke="black" cx="643.409" cy="-234" rx="39.7935" ry="18"/>
<text text-anchor="middle" x="643.409" y="-230.3" font-family="Times,serif" font-size="14.00" fill="#2c94b3">AS3356</text>
</a>
</g>
</g>
<!-- AS2914&#45;&gt;AS3356 -->
<g id="edge10" class="edge"><title>AS2914&#45;&gt;AS3356</title>
<path fill="none" stroke="black" stroke-width="2" d="M558.292,-268.154C572.167,-262.52 588.945,-255.708 603.854,-249.654"/>
<polygon fill="black" stroke="black" stroke-width="2" points="605.383,-252.811 613.332,-245.806 602.75,-246.325 605.383,-252.811"/>
</g>
<!-- AS3257 -->
<g id="node12" class="node"><title>AS3257</title>
<g id="a_node12"><a xlink:href="/asn/3257" xlink:title="AS3257 ~ GTT [DE]">
<ellipse fill="#ffffff" stroke="black" cx="643.409" cy="-288" rx="39.7935" ry="18"/>
<text text-anchor="middle" x="643.409" y="-284.3" font-family="Times,serif" font-size="14.00" fill="#2c94b3">AS3257</text>
</a>
</g>
</g>
<!-- AS2914&#45;&gt;AS3257 -->
<g id="edge11" class="edge"><title>AS2914&#45;&gt;AS3257</title>
<path fill="none" stroke="black" d="M567.472,-282.708C575.961,-283.308 585.065,-283.951 593.899,-284.575"/>
<polygon fill="black" stroke="black" points="593.871,-288.081 604.093,-285.294 594.364,-281.099 593.871,-288.081"/>
</g>
<!-- AS701 -->
<g id="node13" class="node"><title>AS701</title>
<g id="a_node13"><a xlink:href="/asn/701" xlink:title="AS701 ~ UUNET [US]">
<ellipse fill="#ffffff" stroke="black" cx="643.409" cy="-450" rx="35.194" ry="18"/>
<text text-anchor="middle" x="643.409" y="-446.3" font-family="Times,serif" font-size="14.00" fill="#2c94b3">AS701</text>
</a>
</g>
</g>
<!-- AS2914&#45;&gt;AS701 -->
<g id="edge12" class="edge"><title>AS2914&#45;&gt;AS701</title>
<path fill="none" stroke="black" d="M554.124,-293.824C559.196,-297.557 564.093,-301.977 567.762,-307 599.607,-350.588 571.918,-379.412 603.762,-423 605.742,-425.71 608.079,-428.244 610.608,-430.589"/>
<polygon fill="black" stroke="black" points="608.626,-433.488 618.605,-437.047 613.023,-428.041 608.626,-433.488"/>
</g>
<!-- AS3320&#45;&gt;AS701 -->
<g id="edge23" class="edge"><title>AS3320&#45;&gt;AS701</title>
<path fill="none" stroke="black" d="M567.788,-450C577.493,-450 587.984,-450 597.947,-450"/>
<polygon fill="black" stroke="black" points="598.083,-453.5 608.083,-450 598.083,-446.5 598.083,-453.5"/>
</g>
<!-- AS1239 -->
<g id="node19" class="node"><title>AS1239</title>
<g id="a_node19"><a xlink:href="/asn/1239" xlink:title="AS1239 ~ Sprint [US]">
<ellipse fill="#ffffff" stroke="black" cx="643.409" cy="-504" rx="39.7935" ry="18"/>
<text text-anchor="middle" x="643.409" y="-500.3" font-family="Times,serif" font-size="14.00" fill="#2c94b3">AS1239</text>
</a>
</g>
</g>
<!-- AS3320&#45;&gt;AS1239 -->
<g id="edge22" class="edge"><title>AS3320&#45;&gt;AS1239</title>
<path fill="none" stroke="black" d="M556.252,-462.934C571.246,-470.081 590.067,-479.052 606.291,-486.785"/>
<polygon fill="black" stroke="black" points="604.961,-490.028 615.494,-491.171 607.973,-483.709 604.961,-490.028"/>
</g>
<!-- AS1299&#45;&gt;AS3356 -->
<g id="edge28" class="edge"><title>AS1299&#45;&gt;AS3356</title>
<path fill="none" stroke="black" d="M553.959,-374.052C559.04,-370.326 563.982,-365.94 567.762,-361 596.472,-323.489 575.053,-298.511 603.762,-261 605.535,-258.685 607.562,-256.491 609.739,-254.429"/>
<polygon fill="black" stroke="black" points="612.096,-257.022 617.566,-247.948 607.631,-251.63 612.096,-257.022"/>
</g>
<!-- AS1299&#45;&gt;AS3257 -->
<g id="edge26" class="edge"><title>AS1299&#45;&gt;AS3257</title>
<path fill="none" stroke="black" d="M552.058,-373.647C557.452,-369.828 563.009,-365.503 567.762,-361 586.611,-343.147 584.914,-332.853 603.762,-315 606.139,-312.749 608.717,-310.542 611.375,-308.42"/>
<polygon fill="black" stroke="black" points="613.565,-311.152 619.467,-302.353 609.366,-305.552 613.565,-311.152"/>
</g>
<!-- AS1299&#45;&gt;AS1239 -->
<g id="edge25" class="edge"><title>AS1299&#45;&gt;AS1239</title>
<path fill="none" stroke="black" d="M548.489,-403.861C554.949,-409.577 561.97,-416.281 567.762,-423 586.596,-444.847 583.59,-456.383 603.762,-477 605.855,-479.139 608.139,-481.218 610.515,-483.21"/>
<polygon fill="black" stroke="black" points="608.759,-486.275 618.815,-489.611 613.034,-480.732 608.759,-486.275"/>
</g>
<!-- AS7018 -->
<g id="node20" class="node"><title>AS7018</title>
<g id="a_node20"><a xlink:href="/asn/7018" xlink:title="AS7018 ~ ATT&#45;INTERNET4 [US]">
<ellipse fill="#ffffff" stroke="black" cx="643.409" cy="-396" rx="39.7935" ry="18"/>
<text text-anchor="middle" x="643.409" y="-392.3" font-family="Times,serif" font-size="14.00" fill="#2c94b3">AS7018</text>
</a>
</g>
</g>
<!-- AS1299&#45;&gt;AS7018 -->
<g id="edge24" class="edge"><title>AS1299&#45;&gt;AS7018</title>
<path fill="none" stroke="black" d="M567.472,-390.708C575.961,-391.308 585.065,-391.951 593.899,-392.575"/>
<polygon fill="black" stroke="black" points="593.871,-396.081 604.093,-393.294 594.364,-389.099 593.871,-396.081"/>
</g>
<!-- AS174 -->
<g id="node21" class="node"><title>AS174</title>
<g id="a_node21"><a xlink:href="/asn/174" xlink:title="AS174 ~ Cogent Communications [US]">
<ellipse fill="#ffffff" stroke="black" cx="643.409" cy="-342" rx="35.194" ry="18"/>
<text text-anchor="middle" x="643.409" y="-338.3" font-family="Times,serif" font-size="14.00" fill="#2c94b3">AS174</text>
</a>
</g>
</g>
<!-- AS1299&#45;&gt;AS174 -->
<g id="edge27" class="edge"><title>AS1299&#45;&gt;AS174</title>
<path fill="none" stroke="black" d="M558.292,-376.154C572.705,-370.302 590.249,-363.178 605.579,-356.954"/>
<polygon fill="black" stroke="black" points="607.328,-360.021 615.277,-353.016 604.695,-353.535 607.328,-360.021"/>
</g>
<!-- AS3549 -->
<g id="node17" class="node"><title>AS3549</title>
<g id="a_node17"><a xlink:href="/asn/3549" xlink:title="AS3549 ~ Level 3 Parent, LLC [US]">
<ellipse fill="#ffffff" stroke="black" cx="758.702" cy="-261" rx="39.7935" ry="18"/>
<text text-anchor="middle" x="758.702" y="-257.3" font-family="Times,serif" font-size="14.00" fill="#2c94b3">AS3549</text>
</a>
</g>
</g>
<!-- AS3356&#45;&gt;AS3549 -->
<g id="edge20" class="edge"><title>AS3356&#45;&gt;AS3549</title>
<path fill="none" stroke="black" stroke-width="3" d="M679.016,-242.248C689.887,-244.838 702.042,-247.735 713.484,-250.462"/>
<polygon fill="black" stroke="black" stroke-width="3" points="712.768,-253.889 723.307,-252.803 714.39,-247.08 712.768,-253.889"/>
</g>
<!-- AS209 -->
<g id="node18" class="node"><title>AS209</title>
<g id="a_node18"><a xlink:href="/asn/209" xlink:title="AS209 ~ CenturyLink Communications, LLC [US]">
<ellipse fill="#ffffff" stroke="black" cx="758.702" cy="-207" rx="35.194" ry="18"/>
<text text-anchor="middle" x="758.702" y="-203.3" font-family="Times,serif" font-size="14.00" fill="#2c94b3">AS209</text>
</a>
</g>
</g>
<!-- AS3356&#45;&gt;AS209 -->
<g id="edge21" class="edge"><title>AS3356&#45;&gt;AS209</title>
<path fill="none" stroke="black" d="M679.016,-225.752C690.811,-222.942 704.115,-219.771 716.383,-216.847"/>
<polygon fill="black" stroke="black" points="717.472,-220.186 726.388,-214.463 715.849,-213.376 717.472,-220.186"/>
</g>
<!-- AS6461&#45;&gt;AS2497 -->
<g id="edge15" class="edge"><title>AS6461&#45;&gt;AS2497</title>
<path fill="none" stroke="black" d="M567.472,-174.708C575.961,-175.308 585.065,-175.951 593.899,-176.575"/>
<polygon fill="black" stroke="black" points="593.871,-180.081 604.093,-177.294 594.364,-173.099 593.871,-180.081"/>
</g>
<!-- AS6461&#45;&gt;AS6762 -->
<g id="edge14" class="edge"><title>AS6461&#45;&gt;AS6762</title>
<path fill="none" stroke="black" d="M558.292,-160.154C572.167,-154.52 588.945,-147.708 603.854,-141.654"/>
<polygon fill="black" stroke="black" points="605.383,-144.811 613.332,-137.806 602.75,-138.325 605.383,-144.811"/>
</g>
<!-- AS6461&#45;&gt;AS3356 -->
<g id="edge17" class="edge"><title>AS6461&#45;&gt;AS3356</title>
<path fill="none" stroke="black" d="M554.259,-185.76C570.1,-194.429 590.761,-205.735 608.098,-215.223"/>
<polygon fill="black" stroke="black" points="606.883,-218.548 617.336,-220.279 610.244,-212.408 606.883,-218.548"/>
</g>
<!-- AS6461&#45;&gt;AS3257 -->
<g id="edge16" class="edge"><title>AS6461&#45;&gt;AS3257</title>
<path fill="none" stroke="black" d="M552.918,-186.192C558.165,-189.959 563.441,-194.301 567.762,-199 589.331,-222.455 582.194,-237.545 603.762,-261 605.788,-263.203 608.023,-265.327 610.367,-267.35"/>
<polygon fill="black" stroke="black" points="608.577,-270.394 618.607,-273.808 612.895,-264.885 608.577,-270.394"/>
</g>
<!-- AS6453 -->
<g id="node15" class="node"><title>AS6453</title>
<g id="a_node15"><a xlink:href="/asn/6453" xlink:title="AS6453 ~ TATA COMMUNICATIONS (AMERICA) INC [US]">
<ellipse fill="#ffffff" stroke="black" cx="643.409" cy="-18" rx="39.7935" ry="18"/>
<text text-anchor="middle" x="643.409" y="-14.3" font-family="Times,serif" font-size="14.00" fill="#2c94b3">AS6453</text>
</a>
</g>
</g>
<!-- AS6461&#45;&gt;AS6453 -->
<g id="edge18" class="edge"><title>AS6461&#45;&gt;AS6453</title>
<path fill="none" stroke="black" d="M536.684,-154.004C548.303,-127.857 572.512,-78.8031 603.762,-45 605.794,-42.8026 608.033,-40.6822 610.38,-38.6615"/>
<polygon fill="black" stroke="black" points="612.907,-41.1283 618.625,-32.2088 608.593,-35.6158 612.907,-41.1283"/>
</g>
<!-- AS3491 -->
<g id="node16" class="node"><title>AS3491</title>
<g id="a_node16"><a xlink:href="/asn/3491" xlink:title="AS3491 ~ PCCW Global, Inc. [US]">
<ellipse fill="#ffffff" stroke="black" cx="643.409" cy="-72" rx="39.7935" ry="18"/>
<text text-anchor="middle" x="643.409" y="-68.3" font-family="Times,serif" font-size="14.00" fill="#2c94b3">AS3491</text>
</a>
</g>
</g>
<!-- AS6461&#45;&gt;AS3491 -->
<g id="edge19" class="edge"><title>AS6461&#45;&gt;AS3491</title>
<path fill="none" stroke="black" d="M544.421,-155.545C559.034,-140.204 581.99,-117.044 603.762,-99 606.283,-96.9109 608.96,-94.8155 611.682,-92.7667"/>
<polygon fill="black" stroke="black" points="613.842,-95.5233 619.874,-86.8133 609.727,-89.8605 613.842,-95.5233"/>
</g>
<!-- AS25255&#45;&gt;AS6762 -->
<g id="edge31" class="edge"><title>AS25255&#45;&gt;AS6762</title>
<path fill="none" stroke="black" d="M420.661,-208.721C434.302,-189.603 459.035,-159.573 488.469,-145 521.1,-128.844 562.206,-124.454 593.732,-123.908"/>
<polygon fill="black" stroke="black" points="594.047,-127.407 604.03,-123.859 594.013,-120.407 594.047,-127.407"/>
</g>
<!-- AS8447 -->
<g id="node23" class="node"><title>AS8447</title>
<g id="a_node23"><a xlink:href="/asn/8447" xlink:title="AS8447 ~ A1 Telekom Austria AG [AT]">
<ellipse fill="#ffffff" stroke="black" cx="528.116" cy="-226" rx="39.7935" ry="18"/>
<text text-anchor="middle" x="528.116" y="-222.3" font-family="Times,serif" font-size="14.00" fill="#2c94b3">AS8447</text>
</a>
</g>
</g>
<!-- AS25255&#45;&gt;AS8447 -->
<g id="edge30" class="edge"><title>AS25255&#45;&gt;AS8447</title>
<path fill="none" stroke="black" stroke-width="2" d="M452.484,-226C460.797,-226 469.56,-226 478.042,-226"/>
<polygon fill="black" stroke="black" stroke-width="2" points="478.201,-229.5 488.201,-226 478.201,-222.5 478.201,-229.5"/>
</g>
<!-- AS1764 -->
<g id="node24" class="node"><title>AS1764</title>
<g id="a_node24"><a xlink:href="/asn/1764" xlink:title="AS1764 ~ NEXTLAYER&#45;AS [AT]">
<ellipse fill="#ffffff" stroke="black" cx="528.116" cy="-334" rx="39.7935" ry="18"/>
<text text-anchor="middle" x="528.116" y="-330.3" font-family="Times,serif" font-size="14.00" fill="#2c94b3">AS1764</text>
</a>
</g>
</g>
<!-- AS25255&#45;&gt;AS1764 -->
<g id="edge32" class="edge"><title>AS25255&#45;&gt;AS1764</title>
<path fill="none" stroke="black" stroke-width="2" d="M424.206,-243.044C439.532,-260.097 464.468,-286.65 488.469,-307 490.967,-309.117 493.627,-311.232 496.338,-313.293"/>
<polygon fill="black" stroke="black" stroke-width="2" points="494.375,-316.194 504.515,-319.266 498.505,-310.541 494.375,-316.194"/>
</g>
<!-- AS8447&#45;&gt;AS3356 -->
<g id="edge33" class="edge"><title>AS8447&#45;&gt;AS3356</title>
<path fill="none" stroke="black" stroke-width="2" d="M567.472,-228.708C575.961,-229.308 585.065,-229.951 593.899,-230.575"/>
<polygon fill="black" stroke="black" stroke-width="2" points="593.871,-234.081 604.093,-231.294 594.364,-227.099 593.871,-234.081"/>
</g>
<!-- AS1764&#45;&gt;AS3257 -->
<g id="edge34" class="edge"><title>AS1764&#45;&gt;AS3257</title>
<path fill="none" stroke="black" d="M558.292,-322.154C572.167,-316.52 588.945,-309.708 603.854,-303.654"/>
<polygon fill="black" stroke="black" points="605.383,-306.811 613.332,-299.806 602.75,-300.325 605.383,-306.811"/>
</g>
<!-- AS1764&#45;&gt;AS174 -->
<g id="edge35" class="edge"><title>AS1764&#45;&gt;AS174</title>
<path fill="none" stroke="black" d="M567.472,-336.708C577.286,-337.401 587.922,-338.152 598.012,-338.865"/>
<polygon fill="black" stroke="black" points="598.052,-342.376 608.273,-339.59 598.545,-335.394 598.052,-342.376"/>
</g>
</g>
</svg>
