<?xml version="1.0" encoding="UTF-8" standalone="no"?>
<!DOCTYPE svg PUBLIC "-//W3C//DTD SVG 1.1//EN"
 "http://www.w3.org/Graphics/SVG/1.1/DTD/svg11.dtd">
<!-- Generated by graphviz version 2.38.0 (20140413.2041)
 -->
<!-- Title: AS199524 IPv6 Upstream Graph Pages: 1 -->
<svg width="1409pt" height="2577pt"
 viewBox="0.00 0.00 1408.81 2576.74" xmlns="http://www.w3.org/2000/svg" xmlns:xlink="http://www.w3.org/1999/xlink">
<g id="graph0" class="graph" transform="scale(1 1) rotate(0) translate(4 2572.74)">
<title>AS199524 IPv6 Upstream Graph</title>
<polygon fill="white" stroke="none" points="-4,4 -4,-2572.74 1404.81,-2572.74 1404.81,4 -4,4"/>
<!-- AS199524 -->
<g id="node1" class="node"><title>AS199524</title>
<g id="a_node1"><a xlink:href="/asn/199524" xlink:title="AS199524 ~ G&#45;Core Labs S.A. [AT]">
<ellipse fill="#ffffff" stroke="black" cx="48.0957" cy="-1559" rx="48.1917" ry="18"/>
<text text-anchor="middle" x="48.0957" y="-1555.3" font-family="Times,serif" font-size="14.00" fill="#880000">AS199524</text>
</a>
</g>
</g>
<!-- AS174 -->
<g id="node2" class="node"><title>AS174</title>
<g id="a_node2"><a xlink:href="/asn/174" xlink:title="AS174 ~ Cogent Communications [US]">
<ellipse fill="#ffffff" stroke="black" cx="425.172" cy="-783" rx="35.194" ry="18"/>
<text text-anchor="middle" x="425.172" y="-779.3" font-family="Times,serif" font-size="14.00" fill="#2c94b3">AS174</text>
</a>
</g>
</g>
<!-- AS199524&#45;&gt;AS174 -->
<g id="edge1" class="edge"><title>AS199524&#45;&gt;AS174</title>
<path fill="none" stroke="black" stroke-width="3.70588" d="M50.534,-1541C56.3837,-1472.19 80.5774,-1226.99 132.191,-1172 199.436,-1100.36 276.851,-1182.81 344.976,-1112 386.819,-1068.51 412.509,-882.92 421.022,-811.327"/>
<polygon fill="black" stroke="black" stroke-width="3.70588" points="424.517,-811.576 422.198,-801.238 417.564,-810.766 424.517,-811.576"/>
</g>
<!-- AS1299 -->
<g id="node3" class="node"><title>AS1299</title>
<g id="a_node3"><a xlink:href="/asn/1299" xlink:title="AS1299 ~ Telia Carrier [EU]">
<ellipse fill="#ffffff" stroke="black" cx="549.564" cy="-1412" rx="39.7935" ry="18"/>
<text text-anchor="middle" x="549.564" y="-1408.3" font-family="Times,serif" font-size="14.00" fill="#2c94b3">AS1299</text>
</a>
</g>
</g>
<!-- AS199524&#45;&gt;AS1299 -->
<g id="edge2" class="edge"><title>AS199524&#45;&gt;AS1299</title>
<path fill="none" stroke="black" stroke-width="4.23529" d="M67.1411,-1542.43C83.0863,-1528.7 107.573,-1509.76 132.191,-1499 272.261,-1437.76 320.087,-1463.95 469.368,-1431 480.794,-1428.48 493.11,-1425.6 504.545,-1422.86"/>
<polygon fill="black" stroke="black" stroke-width="4.23529" points="505.471,-1426.45 514.323,-1420.5 503.733,-1419.25 505.471,-1426.45"/>
</g>
<!-- AS2914 -->
<g id="node4" class="node"><title>AS2914</title>
<g id="a_node4"><a xlink:href="/asn/2914" xlink:title="AS2914 ~ NTT America, Inc. [US]">
<ellipse fill="#ffffff" stroke="black" cx="669.407" cy="-914" rx="39.7935" ry="18"/>
<text text-anchor="middle" x="669.407" y="-910.3" font-family="Times,serif" font-size="14.00" fill="#2c94b3">AS2914</text>
</a>
</g>
</g>
<!-- AS199524&#45;&gt;AS2914 -->
<g id="edge3" class="edge"><title>AS199524&#45;&gt;AS2914</title>
<path fill="none" stroke="black" stroke-width="2.64706" d="M49.1817,-1540.71C50.3328,-1396.78 66.7637,-452 299.78,-452 299.78,-452 299.78,-452 426.172,-452 475.587,-452 616.813,-787.806 657.384,-886.831"/>
<polygon fill="black" stroke="black" stroke-width="2.64706" points="654.178,-888.238 661.2,-896.172 660.658,-885.591 654.178,-888.238"/>
</g>
<!-- AS3216 -->
<g id="node5" class="node"><title>AS3216</title>
<g id="a_node5"><a xlink:href="/asn/3216" xlink:title="AS3216 ~ PJSC &quot;Vimpelcom&quot; [RU]">
<ellipse fill="#ffffff" stroke="black" cx="784.7" cy="-2514" rx="39.7935" ry="18"/>
<text text-anchor="middle" x="784.7" y="-2510.3" font-family="Times,serif" font-size="14.00" fill="#2c94b3">AS3216</text>
</a>
</g>
</g>
<!-- AS199524&#45;&gt;AS3216 -->
<g id="edge4" class="edge"><title>AS199524&#45;&gt;AS3216</title>
<path fill="none" stroke="black" stroke-width="1.58824" d="M49.237,-1577.3C50.3121,-1683.02 59.3215,-2215.71 132.191,-2359 177.638,-2448.37 199.521,-2510 299.78,-2510 299.78,-2510 299.78,-2510 550.564,-2510 614.166,-2510 687.515,-2511.51 734.689,-2512.67"/>
<polygon fill="black" stroke="black" stroke-width="1.58824" points="734.842,-2516.18 744.927,-2512.93 735.018,-2509.18 734.842,-2516.18"/>
</g>
<!-- AS3549 -->
<g id="node6" class="node"><title>AS3549</title>
<g id="a_node6"><a xlink:href="/asn/3549" xlink:title="AS3549 ~ Level 3 Parent, LLC [US]">
<ellipse fill="#ffffff" stroke="black" cx="1019.84" cy="-1408" rx="39.7935" ry="18"/>
<text text-anchor="middle" x="1019.84" y="-1404.3" font-family="Times,serif" font-size="14.00" fill="#2c94b3">AS3549</text>
</a>
</g>
</g>
<!-- AS199524&#45;&gt;AS3549 -->
<g id="edge5" class="edge"><title>AS199524&#45;&gt;AS3549</title>
<path fill="none" stroke="black" stroke-width="0.264706" d="M48.8243,-1577.01C47.4341,-1688.4 44.2606,-2283.67 132.191,-2438 177.801,-2518.05 207.65,-2560 299.78,-2560 299.78,-2560 299.78,-2560 670.407,-2560 739.343,-2560 774.684,-2588.81 824.346,-2541 860.35,-2506.34 852.063,-2368.29 860.346,-2319 918.926,-1970.44 993.972,-1547.6 1013.83,-1436.06"/>
<polygon fill="black" stroke="black" stroke-width="0.264706" points="1017.32,-1436.43 1015.63,-1425.97 1010.43,-1435.2 1017.32,-1436.43"/>
</g>
<!-- AS4637 -->
<g id="node7" class="node"><title>AS4637</title>
<g id="a_node7"><a xlink:href="/asn/4637" xlink:title="AS4637 ~ Telstra Global [HK]">
<ellipse fill="#ffffff" stroke="black" cx="669.407" cy="-1874" rx="39.7935" ry="18"/>
<text text-anchor="middle" x="669.407" y="-1870.3" font-family="Times,serif" font-size="14.00" fill="#2c94b3">AS4637</text>
</a>
</g>
</g>
<!-- AS199524&#45;&gt;AS4637 -->
<g id="edge6" class="edge"><title>AS199524&#45;&gt;AS4637</title>
<path fill="none" stroke="black" stroke-width="1.05882" d="M80.2779,-1545.5C136.8,-1523.22 258.34,-1485.63 344.976,-1532 370.407,-1545.61 362.207,-1564.1 380.976,-1586 415.649,-1626.46 431.24,-1629.78 469.368,-1667 535.311,-1731.38 609.8,-1810.71 646.111,-1849.84"/>
<polygon fill="black" stroke="black" stroke-width="1.05882" points="643.899,-1852.6 653.263,-1857.56 649.033,-1847.84 643.899,-1852.6"/>
</g>
<!-- AS6762 -->
<g id="node8" class="node"><title>AS6762</title>
<g id="a_node8"><a xlink:href="/asn/6762" xlink:title="AS6762 ~ TELECOM ITALIA SPARKLE S.p.A. [IT]">
<ellipse fill="#ffffff" stroke="black" cx="784.7" cy="-1491" rx="39.7935" ry="18"/>
<text text-anchor="middle" x="784.7" y="-1487.3" font-family="Times,serif" font-size="14.00" fill="#2c94b3">AS6762</text>
</a>
</g>
</g>
<!-- AS199524&#45;&gt;AS6762 -->
<g id="edge7" class="edge"><title>AS199524&#45;&gt;AS6762</title>
<path fill="none" stroke="black" stroke-width="1.85294" d="M75.0931,-1574.07C91.0191,-1582.48 112.134,-1592.21 132.191,-1597 186.007,-1609.86 201.265,-1600.89 256.584,-1602 459.965,-1606.09 519.036,-1605.62 709.053,-1533 713.548,-1531.28 732.58,-1520.56 750.301,-1510.39"/>
<polygon fill="black" stroke="black" stroke-width="1.85294" points="752.447,-1513.19 759.364,-1505.16 748.952,-1507.12 752.447,-1513.19"/>
</g>
<!-- AS6939 -->
<g id="node9" class="node"><title>AS6939</title>
<g id="a_node9"><a xlink:href="/asn/6939" xlink:title="AS6939 ~ Hurricane Electric LLC [US]">
<ellipse fill="#ffffff" stroke="black" cx="425.172" cy="-1090" rx="39.7935" ry="18"/>
<text text-anchor="middle" x="425.172" y="-1086.3" font-family="Times,serif" font-size="14.00" fill="#2c94b3">AS6939</text>
</a>
</g>
</g>
<!-- AS199524&#45;&gt;AS6939 -->
<g id="edge8" class="edge"><title>AS199524&#45;&gt;AS6939</title>
<path fill="none" stroke="black" stroke-width="2.91176" d="M51.4046,-1540.62C59.6232,-1477.84 89.2756,-1273.2 132.191,-1225 199.38,-1149.54 255.514,-1191.95 344.976,-1145 362.942,-1135.57 381.65,-1122.74 396.368,-1111.84"/>
<polygon fill="black" stroke="black" stroke-width="2.91176" points="398.655,-1114.5 404.538,-1105.69 394.444,-1108.91 398.655,-1114.5"/>
</g>
<!-- AS7545 -->
<g id="node10" class="node"><title>AS7545</title>
<g id="a_node10"><a xlink:href="/asn/7545" xlink:title="AS7545 ~ TPG Telecom Limited [AU]">
<ellipse fill="#ffffff" stroke="black" cx="425.172" cy="-2320" rx="39.7935" ry="18"/>
<text text-anchor="middle" x="425.172" y="-2316.3" font-family="Times,serif" font-size="14.00" fill="#2c94b3">AS7545</text>
</a>
</g>
</g>
<!-- AS199524&#45;&gt;AS7545 -->
<g id="edge9" class="edge"><title>AS199524&#45;&gt;AS7545</title>
<path fill="none" stroke="black" stroke-width="0.529412" d="M49.8269,-1577.01C54.3513,-1684.29 80.0618,-2236.1 132.191,-2288 197.365,-2352.89 315.624,-2342.23 379.825,-2330.27"/>
<polygon fill="black" stroke="black" stroke-width="0.529412" points="380.505,-2333.7 389.648,-2328.35 379.162,-2326.83 380.505,-2333.7"/>
</g>
<!-- AS7922 -->
<g id="node11" class="node"><title>AS7922</title>
<g id="a_node11"><a xlink:href="/asn/7922" xlink:title="AS7922 ~ Comcast Cable Communications, LLC [US]">
<ellipse fill="#ffffff" stroke="black" cx="669.407" cy="-190" rx="39.7935" ry="18"/>
<text text-anchor="middle" x="669.407" y="-186.3" font-family="Times,serif" font-size="14.00" fill="#2c94b3">AS7922</text>
</a>
</g>
</g>
<!-- AS199524&#45;&gt;AS7922 -->
<g id="edge10" class="edge"><title>AS199524&#45;&gt;AS7922</title>
<path fill="none" stroke="black" stroke-width="1.05882" d="M48.8228,-1540.83C47.6125,-1437.15 46.1235,-910.118 132.191,-492 178.766,-265.74 68.7755,-0 299.78,-0 299.78,-0 299.78,-0 426.172,-0 531.264,-0 617.821,-112.086 652.319,-164.079"/>
<polygon fill="black" stroke="black" stroke-width="1.05882" points="649.389,-165.993 657.777,-172.466 655.256,-162.175 649.389,-165.993"/>
</g>
<!-- AS8359 -->
<g id="node12" class="node"><title>AS8359</title>
<g id="a_node12"><a xlink:href="/asn/8359" xlink:title="AS8359 ~ MTS PJSC [RU]">
<ellipse fill="#ffffff" stroke="black" cx="300.78" cy="-1559" rx="39.7935" ry="18"/>
<text text-anchor="middle" x="300.78" y="-1555.3" font-family="Times,serif" font-size="14.00" fill="#2c94b3">AS8359</text>
</a>
</g>
</g>
<!-- AS199524&#45;&gt;AS8359 -->
<g id="edge11" class="edge"><title>AS199524&#45;&gt;AS8359</title>
<path fill="none" stroke="black" stroke-width="0.529412" d="M96.2475,-1559C140.459,-1559 206.279,-1559 251.008,-1559"/>
<polygon fill="black" stroke="black" stroke-width="0.529412" points="251.057,-1562.5 261.057,-1559 251.057,-1555.5 251.057,-1562.5"/>
</g>
<!-- AS8551 -->
<g id="node13" class="node"><title>AS8551</title>
<g id="a_node13"><a xlink:href="/asn/8551" xlink:title="AS8551 ~ Bezeqint Internet Backbone [IL]">
<ellipse fill="#ffffff" stroke="black" cx="300.78" cy="-1085" rx="39.7935" ry="18"/>
<text text-anchor="middle" x="300.78" y="-1081.3" font-family="Times,serif" font-size="14.00" fill="#2c94b3">AS8551</text>
</a>
</g>
</g>
<!-- AS199524&#45;&gt;AS8551 -->
<g id="edge12" class="edge"><title>AS199524&#45;&gt;AS8551</title>
<path fill="none" stroke="black" stroke-width="3.70588" d="M49.8652,-1540.93C53.4468,-1465.69 70.9942,-1178.37 132.191,-1117 163.067,-1086.04 214.06,-1080.14 251.703,-1080.7"/>
<polygon fill="black" stroke="black" stroke-width="3.70588" points="251.836,-1084.21 261.939,-1081.01 252.05,-1077.21 251.836,-1084.21"/>
</g>
<!-- AS8966 -->
<g id="node14" class="node"><title>AS8966</title>
<g id="a_node14"><a xlink:href="/asn/8966" xlink:title="AS8966 ~ P.O. Box 1150, Dubai, UAE [AE]">
<ellipse fill="#ffffff" stroke="black" cx="425.172" cy="-1559" rx="39.7935" ry="18"/>
<text text-anchor="middle" x="425.172" y="-1555.3" font-family="Times,serif" font-size="14.00" fill="#2c94b3">AS8966</text>
</a>
</g>
</g>
<!-- AS199524&#45;&gt;AS8966 -->
<g id="edge13" class="edge"><title>AS199524&#45;&gt;AS8966</title>
<path fill="none" stroke="black" stroke-width="1.05882" d="M88.5754,-1568.96C145.523,-1581.88 253.888,-1601.1 344.976,-1586 358.794,-1583.71 373.438,-1579.31 386.325,-1574.72"/>
<polygon fill="black" stroke="black" stroke-width="1.05882" points="387.639,-1577.97 395.795,-1571.21 385.202,-1571.41 387.639,-1577.97"/>
</g>
<!-- AS9002 -->
<g id="node15" class="node"><title>AS9002</title>
<g id="a_node15"><a xlink:href="/asn/9002" xlink:title="AS9002 ~ RETN Limited [EU]">
<ellipse fill="#ffffff" stroke="black" cx="669.407" cy="-2232" rx="39.7935" ry="18"/>
<text text-anchor="middle" x="669.407" y="-2228.3" font-family="Times,serif" font-size="14.00" fill="#2c94b3">AS9002</text>
</a>
</g>
</g>
<!-- AS199524&#45;&gt;AS9002 -->
<g id="edge14" class="edge"><title>AS199524&#45;&gt;AS9002</title>
<path fill="none" stroke="black" stroke-width="1.58824" d="M49.8377,-1577.08C54.518,-1687.26 81.4006,-2265.71 132.191,-2324 182.634,-2381.89 222.993,-2366 299.78,-2366 299.78,-2366 299.78,-2366 426.172,-2366 516.473,-2366 604.708,-2293.82 645.267,-2255.41"/>
<polygon fill="black" stroke="black" stroke-width="1.58824" points="647.733,-2257.89 652.502,-2248.43 642.874,-2252.85 647.733,-2257.89"/>
</g>
<!-- AS9957 -->
<g id="node16" class="node"><title>AS9957</title>
<g id="a_node16"><a xlink:href="/asn/9957" xlink:title="AS9957 ~ KINX [KR]">
<ellipse fill="#ffffff" stroke="black" cx="176.388" cy="-1375" rx="39.7935" ry="18"/>
<text text-anchor="middle" x="176.388" y="-1371.3" font-family="Times,serif" font-size="14.00" fill="#2c94b3">AS9957</text>
</a>
</g>
</g>
<!-- AS199524&#45;&gt;AS9957 -->
<g id="edge15" class="edge"><title>AS199524&#45;&gt;AS9957</title>
<path fill="none" stroke="black" stroke-width="0.529412" d="M55.0323,-1541.14C66.1149,-1509.91 92.4838,-1444.67 132.191,-1402 134.752,-1399.25 137.653,-1396.67 140.711,-1394.27"/>
<polygon fill="black" stroke="black" stroke-width="0.529412" points="142.891,-1397.02 149.045,-1388.39 138.856,-1391.3 142.891,-1397.02"/>
</g>
<!-- AS12389 -->
<g id="node17" class="node"><title>AS12389</title>
<g id="a_node17"><a xlink:href="/asn/12389" xlink:title="AS12389 ~ PJSC Rostelecom [RU]">
<ellipse fill="#ffffff" stroke="black" cx="425.172" cy="-1779" rx="44.393" ry="18"/>
<text text-anchor="middle" x="425.172" y="-1775.3" font-family="Times,serif" font-size="14.00" fill="#2c94b3">AS12389</text>
</a>
</g>
</g>
<!-- AS199524&#45;&gt;AS12389 -->
<g id="edge16" class="edge"><title>AS199524&#45;&gt;AS12389</title>
<path fill="none" stroke="black" stroke-width="4.23529" d="M52.1782,-1577.05C59.2926,-1612.75 80.3924,-1692.28 132.191,-1731 202.45,-1783.51 308.875,-1787.33 371.968,-1784.05"/>
<polygon fill="black" stroke="black" stroke-width="4.23529" points="372.329,-1787.74 382.089,-1783.44 371.885,-1780.34 372.329,-1787.74"/>
</g>
<!-- AS12956 -->
<g id="node18" class="node"><title>AS12956</title>
<g id="a_node18"><a xlink:href="/asn/12956" xlink:title="AS12956 ~ TELXIUS [ES]">
<ellipse fill="#ffffff" stroke="black" cx="1019.84" cy="-1354" rx="44.393" ry="18"/>
<text text-anchor="middle" x="1019.84" y="-1350.3" font-family="Times,serif" font-size="14.00" fill="#2c94b3">AS12956</text>
</a>
</g>
</g>
<!-- AS199524&#45;&gt;AS12956 -->
<g id="edge17" class="edge"><title>AS199524&#45;&gt;AS12956</title>
<path fill="none" stroke="black" stroke-width="1.85294" d="M50.315,-1577.27C54.7164,-1635.25 72.8057,-1819.48 132.191,-1958 196.488,-2107.97 233.017,-2159.19 380.976,-2228 467.633,-2268.3 513.834,-2311.4 593.76,-2259 638.245,-2229.84 940.918,-1421.3 975.639,-1381 977.775,-1378.52 980.196,-1376.19 982.775,-1374.03"/>
<polygon fill="black" stroke="black" stroke-width="1.85294" points="984.921,-1376.79 990.858,-1368.02 980.744,-1371.18 984.921,-1376.79"/>
</g>
<!-- AS20485 -->
<g id="node19" class="node"><title>AS20485</title>
<g id="a_node19"><a xlink:href="/asn/20485" xlink:title="AS20485 ~ Moscow, Russia [RU]">
<ellipse fill="#ffffff" stroke="black" cx="300.78" cy="-1828" rx="44.393" ry="18"/>
<text text-anchor="middle" x="300.78" y="-1824.3" font-family="Times,serif" font-size="14.00" fill="#2c94b3">AS20485</text>
</a>
</g>
</g>
<!-- AS199524&#45;&gt;AS20485 -->
<g id="edge18" class="edge"><title>AS199524&#45;&gt;AS20485</title>
<path fill="none" stroke="black" stroke-width="4.5" d="M50.0208,-1577.13C53.2619,-1620.67 67.7591,-1731.76 132.191,-1789 163.189,-1816.54 209.838,-1825.68 246.055,-1828.28"/>
<polygon fill="black" stroke="black" stroke-width="4.5" points="246.243,-1832.23 256.45,-1828.87 246.689,-1824.37 246.243,-1832.23"/>
</g>
<!-- AS31133 -->
<g id="node20" class="node"><title>AS31133</title>
<g id="a_node20"><a xlink:href="/asn/31133" xlink:title="AS31133 ~ PJSC MegaFon [RU]">
<ellipse fill="#ffffff" stroke="black" cx="300.78" cy="-1215" rx="44.393" ry="18"/>
<text text-anchor="middle" x="300.78" y="-1211.3" font-family="Times,serif" font-size="14.00" fill="#2c94b3">AS31133</text>
</a>
</g>
</g>
<!-- AS199524&#45;&gt;AS31133 -->
<g id="edge19" class="edge"><title>AS199524&#45;&gt;AS31133</title>
<path fill="none" stroke="black" stroke-width="3.70588" d="M49.1705,-1540.89C50.353,-1491.9 60.2853,-1355.28 132.191,-1278 162.383,-1245.55 210.936,-1229.7 248.029,-1222.03"/>
<polygon fill="black" stroke="black" stroke-width="3.70588" points="249.006,-1225.41 258.162,-1220.08 247.68,-1218.54 249.006,-1225.41"/>
</g>
<!-- AS33891 -->
<g id="node21" class="node"><title>AS33891</title>
<g id="a_node21"><a xlink:href="/asn/33891" xlink:title="AS33891 ~ CORE&#45;BACKBONE GMBH GLOBAL NETWORK [DE]">
<ellipse fill="#ffffff" stroke="black" cx="549.564" cy="-1291" rx="44.393" ry="18"/>
<text text-anchor="middle" x="549.564" y="-1287.3" font-family="Times,serif" font-size="14.00" fill="#2c94b3">AS33891</text>
</a>
</g>
</g>
<!-- AS199524&#45;&gt;AS33891 -->
<g id="edge20" class="edge"><title>AS199524&#45;&gt;AS33891</title>
<path fill="none" stroke="black" stroke-width="0.264706" d="M50.3369,-1540.74C54.2255,-1499.08 69.9605,-1396.88 132.191,-1348 239.843,-1263.44 413.351,-1272.21 498.359,-1282.93"/>
<polygon fill="black" stroke="black" stroke-width="0.264706" points="497.904,-1286.4 508.276,-1284.24 498.821,-1279.46 497.904,-1286.4"/>
</g>
<!-- AS37100 -->
<g id="node22" class="node"><title>AS37100</title>
<g id="a_node22"><a xlink:href="/asn/37100" xlink:title="AS37100 ~ SEACOM Limited [MU]">
<ellipse fill="#ffffff" stroke="black" cx="176.388" cy="-1429" rx="44.393" ry="18"/>
<text text-anchor="middle" x="176.388" y="-1425.3" font-family="Times,serif" font-size="14.00" fill="#2c94b3">AS37100</text>
</a>
</g>
</g>
<!-- AS199524&#45;&gt;AS37100 -->
<g id="edge21" class="edge"><title>AS199524&#45;&gt;AS37100</title>
<path fill="none" stroke="black" stroke-width="0.264706" d="M61.8294,-1541.67C77.2743,-1521.22 104.674,-1486.77 132.191,-1461 136.011,-1457.42 140.229,-1453.88 144.488,-1450.52"/>
<polygon fill="black" stroke="black" stroke-width="0.264706" points="146.781,-1453.18 152.635,-1444.35 142.552,-1447.6 146.781,-1453.18"/>
</g>
<!-- AS47123 -->
<g id="node23" class="node"><title>AS47123</title>
<g id="a_node23"><a xlink:href="/asn/47123" xlink:title="AS47123 ~ MEDNAUTILUS [TR]">
<ellipse fill="#ffffff" stroke="black" cx="176.388" cy="-1704" rx="44.393" ry="18"/>
<text text-anchor="middle" x="176.388" y="-1700.3" font-family="Times,serif" font-size="14.00" fill="#2c94b3">AS47123</text>
</a>
</g>
</g>
<!-- AS199524&#45;&gt;AS47123 -->
<g id="edge22" class="edge"><title>AS199524&#45;&gt;AS47123</title>
<path fill="none" stroke="black" stroke-width="0.264706" d="M63.3028,-1576.17C79.687,-1595.88 107.537,-1629.07 132.191,-1657 138.763,-1664.44 146.026,-1672.43 152.691,-1679.68"/>
<polygon fill="black" stroke="black" stroke-width="0.264706" points="150.269,-1682.21 159.627,-1687.18 155.409,-1677.46 150.269,-1682.21"/>
</g>
<!-- AS47147 -->
<g id="node24" class="node"><title>AS47147</title>
<g id="a_node24"><a xlink:href="/asn/47147" xlink:title="AS47147 ~ ANEXIA Internetdienstleistungs GmbH [AT]">
<ellipse fill="#ffffff" stroke="black" cx="549.564" cy="-2232" rx="44.393" ry="18"/>
<text text-anchor="middle" x="549.564" y="-2228.3" font-family="Times,serif" font-size="14.00" fill="#2c94b3">AS47147</text>
</a>
</g>
</g>
<!-- AS199524&#45;&gt;AS47147 -->
<g id="edge23" class="edge"><title>AS199524&#45;&gt;AS47147</title>
<path fill="none" stroke="black" stroke-width="0.529412" d="M52.051,-1577.15C67.3136,-1664.38 145.791,-2042.77 380.976,-2200 414.594,-2222.48 460.018,-2230.08 495.095,-2232.28"/>
<polygon fill="black" stroke="black" stroke-width="0.529412" points="494.996,-2235.78 505.159,-2232.79 495.346,-2228.79 494.996,-2235.78"/>
</g>
<!-- AS174&#45;&gt;AS1299 -->
<g id="edge29" class="edge"><title>AS174&#45;&gt;AS1299</title>
<path fill="none" stroke="black" d="M429.799,-800.921C437.352,-844.585 455.244,-958.387 469.368,-1054 486.094,-1167.23 473.132,-1199.18 505.368,-1309 513.184,-1335.63 527.303,-1364.36 537.268,-1384.93"/>
<polygon fill="black" stroke="black" points="534.164,-1386.55 541.649,-1394.05 540.474,-1383.52 534.164,-1386.55"/>
</g>
<!-- AS174&#45;&gt;AS2914 -->
<g id="edge31" class="edge"><title>AS174&#45;&gt;AS2914</title>
<path fill="none" stroke="black" stroke-width="2" d="M453.959,-793.533C499.979,-815.451 591.61,-864.967 638.801,-893.381"/>
<polygon fill="black" stroke="black" stroke-width="2" points="637.261,-896.542 647.62,-898.768 640.91,-890.568 637.261,-896.542"/>
</g>
<!-- AS174&#45;&gt;AS6762 -->
<g id="edge24" class="edge"><title>AS174&#45;&gt;AS6762</title>
<path fill="none" stroke="black" d="M443.201,-798.7C498.682,-856.987 672.746,-1059.38 709.053,-1137 722.817,-1166.42 764.986,-1383.77 779.067,-1462.68"/>
<polygon fill="black" stroke="black" points="775.679,-1463.62 780.862,-1472.86 782.573,-1462.4 775.679,-1463.62"/>
</g>
<!-- AS174&#45;&gt;AS12956 -->
<g id="edge28" class="edge"><title>AS174&#45;&gt;AS12956</title>
<path fill="none" stroke="black" d="M447.904,-769.183C497.431,-745.53 621.182,-705.847 709.053,-751 936.853,-868.057 1001.97,-1223.24 1015.72,-1326"/>
<polygon fill="black" stroke="black" points="1012.25,-1326.47 1016.99,-1335.94 1019.19,-1325.58 1012.25,-1326.47"/>
</g>
<!-- AS209 -->
<g id="node25" class="node"><title>AS209</title>
<g id="a_node25"><a xlink:href="/asn/209" xlink:title="AS209 ~ CenturyLink Communications, LLC [US]">
<ellipse fill="#ffffff" stroke="black" cx="1254.97" cy="-932" rx="35.194" ry="18"/>
<text text-anchor="middle" x="1254.97" y="-928.3" font-family="Times,serif" font-size="14.00" fill="#2c94b3">AS209</text>
</a>
</g>
</g>
<!-- AS174&#45;&gt;AS209 -->
<g id="edge25" class="edge"><title>AS174&#45;&gt;AS209</title>
<path fill="none" stroke="black" stroke-width="2" d="M436.552,-765.751C446.65,-748.116 461.575,-719.613 469.368,-693 506.24,-567.086 431.526,-508.449 505.368,-400 530.528,-363.048 556.349,-376.471 593.76,-352 610.723,-340.904 610.587,-330.578 629.76,-324 662.366,-312.813 771.551,-301.406 939.639,-328 994.829,-336.732 1143.48,-361.135 1179.32,-404 1187.48,-413.752 1236.62,-795.66 1250.39,-903.757"/>
<polygon fill="black" stroke="black" stroke-width="2" points="1246.94,-904.421 1251.68,-913.899 1253.89,-903.538 1246.94,-904.421"/>
</g>
<!-- AS7018 -->
<g id="node26" class="node"><title>AS7018</title>
<g id="a_node26"><a xlink:href="/asn/7018" xlink:title="AS7018 ~ AT&amp;T Services, Inc. [US]">
<ellipse fill="#ffffff" stroke="black" cx="1254.97" cy="-608" rx="39.7935" ry="18"/>
<text text-anchor="middle" x="1254.97" y="-604.3" font-family="Times,serif" font-size="14.00" fill="#2c94b3">AS7018</text>
</a>
</g>
</g>
<!-- AS174&#45;&gt;AS7018 -->
<g id="edge26" class="edge"><title>AS174&#45;&gt;AS7018</title>
<path fill="none" stroke="black" d="M426.946,-764.632C430.049,-703.686 444.549,-503.433 505.368,-352 542.846,-258.684 546.827,-219.874 629.76,-163 673.001,-133.346 692.919,-143.587 745.053,-138 939.88,-117.12 1066.14,-54.0501 1179.32,-214 1221.38,-273.435 1244.54,-498.764 1251.61,-579.228"/>
<polygon fill="black" stroke="black" points="1248.16,-579.924 1252.5,-589.588 1255.13,-579.325 1248.16,-579.924"/>
</g>
<!-- AS3257 -->
<g id="node27" class="node"><title>AS3257</title>
<g id="a_node27"><a xlink:href="/asn/3257" xlink:title="AS3257 ~ GTT [DE]">
<ellipse fill="#ffffff" stroke="black" cx="1139.68" cy="-978" rx="39.7935" ry="18"/>
<text text-anchor="middle" x="1139.68" y="-974.3" font-family="Times,serif" font-size="14.00" fill="#2c94b3">AS3257</text>
</a>
</g>
</g>
<!-- AS174&#45;&gt;AS3257 -->
<g id="edge27" class="edge"><title>AS174&#45;&gt;AS3257</title>
<path fill="none" stroke="black" stroke-width="2" d="M454.946,-772.995C460.432,-769.912 465.622,-765.975 469.368,-761 520.02,-693.738 451.621,-639.816 505.368,-575 599.789,-461.134 688.171,-422.23 824.346,-480 965.46,-539.865 986.638,-595.685 1064.03,-728 1106.98,-801.427 1127.09,-901.66 1134.75,-949.856"/>
<polygon fill="black" stroke="black" stroke-width="2" points="1131.31,-950.508 1136.28,-959.864 1138.23,-949.45 1131.31,-950.508"/>
</g>
<!-- AS1273 -->
<g id="node28" class="node"><title>AS1273</title>
<g id="a_node28"><a xlink:href="/asn/1273" xlink:title="AS1273 ~ Vodafone Group PLC [EU]">
<ellipse fill="#ffffff" stroke="black" cx="1254.97" cy="-1441" rx="39.7935" ry="18"/>
<text text-anchor="middle" x="1254.97" y="-1437.3" font-family="Times,serif" font-size="14.00" fill="#2c94b3">AS1273</text>
</a>
</g>
</g>
<!-- AS174&#45;&gt;AS1273 -->
<g id="edge30" class="edge"><title>AS174&#45;&gt;AS1273</title>
<path fill="none" stroke="black" d="M436.263,-765.662C446.137,-747.958 460.891,-719.403 469.368,-693 497.646,-604.923 444.088,-557.297 505.368,-488 672.26,-299.273 917.281,-379.219 1064.03,-584 1163.97,-723.461 1235.05,-1280.6 1250.72,-1412.77"/>
<polygon fill="black" stroke="black" points="1247.26,-1413.37 1251.91,-1422.89 1254.22,-1412.55 1247.26,-1413.37"/>
</g>
<!-- AS3356 -->
<g id="node29" class="node"><title>AS3356</title>
<g id="a_node29"><a xlink:href="/asn/3356" xlink:title="AS3356 ~ Level 3 Parent, LLC [US]">
<ellipse fill="#ffffff" stroke="black" cx="899.993" cy="-1221" rx="39.7935" ry="18"/>
<text text-anchor="middle" x="899.993" y="-1217.3" font-family="Times,serif" font-size="14.00" fill="#2c94b3">AS3356</text>
</a>
</g>
</g>
<!-- AS174&#45;&gt;AS3356 -->
<g id="edge32" class="edge"><title>AS174&#45;&gt;AS3356</title>
<path fill="none" stroke="black" stroke-width="2" d="M460.337,-782.48C517.527,-788.817 633.765,-815.502 709.053,-878 740.728,-904.294 803.75,-987.356 824.346,-1023 857.075,-1079.64 881.555,-1153.39 892.564,-1193.16"/>
<polygon fill="black" stroke="black" stroke-width="2" points="889.223,-1194.22 895.189,-1202.98 895.986,-1192.41 889.223,-1194.22"/>
</g>
<!-- AS3491 -->
<g id="node30" class="node"><title>AS3491</title>
<g id="a_node30"><a xlink:href="/asn/3491" xlink:title="AS3491 ~ PCCW Global, Inc. [US]">
<ellipse fill="#ffffff" stroke="black" cx="1019.84" cy="-803" rx="39.7935" ry="18"/>
<text text-anchor="middle" x="1019.84" y="-799.3" font-family="Times,serif" font-size="14.00" fill="#2c94b3">AS3491</text>
</a>
</g>
</g>
<!-- AS174&#45;&gt;AS3491 -->
<g id="edge33" class="edge"><title>AS174&#45;&gt;AS3491</title>
<path fill="none" stroke="black" d="M427.272,-764.827C430.782,-724.973 445.356,-630.242 505.368,-590 537.996,-568.12 555.353,-581.739 593.76,-590 758.626,-625.459 793.611,-661.656 939.639,-746 957.542,-756.341 976.375,-769.777 991.182,-781.007"/>
<polygon fill="black" stroke="black" points="989.336,-784.003 999.397,-787.324 993.603,-778.454 989.336,-784.003"/>
</g>
<!-- AS6453 -->
<g id="node31" class="node"><title>AS6453</title>
<g id="a_node31"><a xlink:href="/asn/6453" xlink:title="AS6453 ~ TATA COMMUNICATIONS (AMERICA) INC [US]">
<ellipse fill="#ffffff" stroke="black" cx="1139.68" cy="-1497" rx="39.7935" ry="18"/>
<text text-anchor="middle" x="1139.68" y="-1493.3" font-family="Times,serif" font-size="14.00" fill="#2c94b3">AS6453</text>
</a>
</g>
</g>
<!-- AS174&#45;&gt;AS6453 -->
<g id="edge34" class="edge"><title>AS174&#45;&gt;AS6453</title>
<path fill="none" stroke="black" d="M451.61,-770.77C457.524,-767.728 463.734,-764.37 469.368,-761 486.086,-751.001 486.779,-741.822 505.368,-736 742.922,-661.606 895.871,-592.455 1064.03,-776 1087.91,-802.062 1127.38,-1337.85 1136.67,-1468.47"/>
<polygon fill="black" stroke="black" points="1133.21,-1469.11 1137.41,-1478.84 1140.19,-1468.62 1133.21,-1469.11"/>
</g>
<!-- AS701 -->
<g id="node32" class="node"><title>AS701</title>
<g id="a_node32"><a xlink:href="/asn/701" xlink:title="AS701 ~ UUNET [US]">
<ellipse fill="#ffffff" stroke="black" cx="1365.71" cy="-622" rx="35.194" ry="18"/>
<text text-anchor="middle" x="1365.71" y="-618.3" font-family="Times,serif" font-size="14.00" fill="#2c94b3">AS701</text>
</a>
</g>
</g>
<!-- AS174&#45;&gt;AS701 -->
<g id="edge35" class="edge"><title>AS174&#45;&gt;AS701</title>
<path fill="none" stroke="black" d="M426.928,-764.998C430.865,-677.052 450.964,-292.583 505.368,-188 550.808,-100.648 569.943,-38 668.407,-38 668.407,-38 668.407,-38 1140.68,-38 1213.63,-38 1249.07,-38.0056 1294.62,-95 1356.96,-173.02 1363.99,-495.735 1364.68,-593.684"/>
<polygon fill="black" stroke="black" points="1361.18,-593.999 1364.73,-603.981 1368.18,-593.963 1361.18,-593.999"/>
</g>
<!-- AS1299&#45;&gt;AS174 -->
<g id="edge60" class="edge"><title>AS1299&#45;&gt;AS174</title>
<path fill="none" stroke="black" stroke-width="2" d="M534.973,-1395.06C525.232,-1378.09 512.601,-1351.64 505.368,-1327 473.132,-1217.18 486.094,-1185.23 469.368,-1072 455.276,-976.603 437.434,-863.101 429.85,-811.134"/>
<polygon fill="black" stroke="black" stroke-width="2" points="433.282,-810.406 428.393,-801.007 426.353,-811.404 433.282,-810.406"/>
</g>
<!-- AS1299&#45;&gt;AS2914 -->
<g id="edge53" class="edge"><title>AS1299&#45;&gt;AS2914</title>
<path fill="none" stroke="black" stroke-width="3" d="M560.553,-1394.61C570.642,-1376.2 585.834,-1346 593.76,-1318 629.86,-1190.49 599.246,-1150.96 629.76,-1022 636.45,-993.727 648.066,-962.602 656.822,-941.059"/>
<polygon fill="black" stroke="black" stroke-width="3" points="660.148,-942.173 660.735,-931.594 653.68,-939.498 660.148,-942.173"/>
</g>
<!-- AS1299&#45;&gt;AS6762 -->
<g id="edge50" class="edge"><title>AS1299&#45;&gt;AS6762</title>
<path fill="none" stroke="black" d="M569.36,-1427.91C583.938,-1442.62 605.67,-1463.07 629.76,-1473 663.114,-1486.75 704.012,-1488.52 735.268,-1488.42"/>
<polygon fill="black" stroke="black" points="735.504,-1491.92 745.473,-1488.33 735.442,-1484.92 735.504,-1491.92"/>
</g>
<!-- AS1299&#45;&gt;AS12956 -->
<g id="edge56" class="edge"><title>AS1299&#45;&gt;AS12956</title>
<path fill="none" stroke="black" d="M589.457,-1411.73C602.234,-1413.61 616.546,-1415.84 629.76,-1417 664.867,-1420.08 674.028,-1420.9 709.053,-1417 721.923,-1415.57 882.326,-1377.56 967.095,-1360.9"/>
<polygon fill="black" stroke="black" points="967.888,-1364.31 977.042,-1358.98 966.56,-1357.44 967.888,-1364.31"/>
</g>
<!-- AS1299&#45;&gt;AS209 -->
<g id="edge54" class="edge"><title>AS1299&#45;&gt;AS209</title>
<path fill="none" stroke="black" stroke-width="3" d="M559.959,-1394.41C573.375,-1370.29 599.743,-1326.37 629.76,-1295 808.801,-1107.91 858.276,-1043.81 1100.03,-951 1135.27,-937.473 1178.06,-933.063 1209.58,-931.841"/>
<polygon fill="black" stroke="black" stroke-width="3" points="1209.91,-935.333 1219.81,-931.54 1209.71,-928.336 1209.91,-935.333"/>
</g>
<!-- AS1299&#45;&gt;AS7018 -->
<g id="edge52" class="edge"><title>AS1299&#45;&gt;AS7018</title>
<path fill="none" stroke="black" stroke-width="3" d="M560.846,-1394.69C571.173,-1376.34 586.558,-1346.19 593.76,-1318 622.268,-1206.42 570.446,-899.718 629.76,-801 750.083,-600.744 1080.83,-597.789 1205.54,-604.285"/>
<polygon fill="black" stroke="black" stroke-width="3" points="1205.37,-607.782 1215.56,-604.852 1205.77,-600.793 1205.37,-607.782"/>
</g>
<!-- AS1299&#45;&gt;AS3257 -->
<g id="edge58" class="edge"><title>AS1299&#45;&gt;AS3257</title>
<path fill="none" stroke="black" d="M560.767,-1394.67C571.03,-1376.31 586.363,-1346.14 593.76,-1318 618.194,-1225.05 569.941,-962.227 629.76,-887 753.75,-731.074 900.564,-662.136 1064.03,-776 1121.12,-815.764 1134.65,-904.449 1137.79,-949.926"/>
<polygon fill="black" stroke="black" points="1134.3,-950.197 1138.36,-959.982 1141.29,-949.8 1134.3,-950.197"/>
</g>
<!-- AS1299&#45;&gt;AS1273 -->
<g id="edge59" class="edge"><title>AS1299&#45;&gt;AS1273</title>
<path fill="none" stroke="black" d="M558.584,-1429.56C570.403,-1453.1 594.928,-1494.02 629.76,-1512 675.355,-1535.53 693.791,-1515.78 745.053,-1518 937.9,-1526.36 1003.01,-1602.56 1179.32,-1524 1205.27,-1512.44 1225.97,-1486.91 1238.93,-1467.2"/>
<polygon fill="black" stroke="black" points="1241.97,-1468.95 1244.33,-1458.62 1236.04,-1465.22 1241.97,-1468.95"/>
</g>
<!-- AS1299&#45;&gt;AS3356 -->
<g id="edge51" class="edge"><title>AS1299&#45;&gt;AS3356</title>
<path fill="none" stroke="black" stroke-width="2" d="M565.289,-1395.43C580.262,-1379.35 604.757,-1355.09 629.76,-1339 708.681,-1288.22 738.812,-1295.62 824.346,-1257 837.199,-1251.2 851.153,-1244.56 863.48,-1238.58"/>
<polygon fill="black" stroke="black" stroke-width="2" points="865.091,-1241.69 872.544,-1234.16 862.022,-1235.4 865.091,-1241.69"/>
</g>
<!-- AS1299&#45;&gt;AS3491 -->
<g id="edge57" class="edge"><title>AS1299&#45;&gt;AS3491</title>
<path fill="none" stroke="black" d="M560.241,-1394.52C570.075,-1376.03 585.063,-1345.77 593.76,-1318 621.019,-1230.98 583.278,-1194.46 629.76,-1116 717.763,-967.46 904.311,-860.605 982.819,-820.473"/>
<polygon fill="black" stroke="black" points="984.498,-823.547 991.844,-815.912 981.34,-817.299 984.498,-823.547"/>
</g>
<!-- AS1299&#45;&gt;AS6453 -->
<g id="edge48" class="edge"><title>AS1299&#45;&gt;AS6453</title>
<path fill="none" stroke="black" d="M552.906,-1430.17C560.605,-1486.73 587.104,-1657.8 629.76,-1690 791.262,-1811.92 1038.68,-1594.82 1115.27,-1520.57"/>
<polygon fill="black" stroke="black" points="1117.85,-1522.94 1122.54,-1513.44 1112.95,-1517.94 1117.85,-1522.94"/>
</g>
<!-- AS1299&#45;&gt;AS701 -->
<g id="edge55" class="edge"><title>AS1299&#45;&gt;AS701</title>
<path fill="none" stroke="black" d="M589.227,-1411.48C621.871,-1410.07 669.483,-1405.73 709.053,-1393 998.106,-1299.97 1141.4,-1303.16 1294.62,-1041 1333.83,-973.897 1355.99,-733.285 1362.59,-650.342"/>
<polygon fill="black" stroke="black" points="1366.08,-650.614 1363.37,-640.372 1359.11,-650.069 1366.08,-650.614"/>
</g>
<!-- AS2497 -->
<g id="node33" class="node"><title>AS2497</title>
<g id="a_node33"><a xlink:href="/asn/2497" xlink:title="AS2497 ~ Internet Initiative Japan Inc. [JP]">
<ellipse fill="#ffffff" stroke="black" cx="1019.84" cy="-1920" rx="39.7935" ry="18"/>
<text text-anchor="middle" x="1019.84" y="-1916.3" font-family="Times,serif" font-size="14.00" fill="#2c94b3">AS2497</text>
</a>
</g>
</g>
<!-- AS1299&#45;&gt;AS2497 -->
<g id="edge49" class="edge"><title>AS1299&#45;&gt;AS2497</title>
<path fill="none" stroke="black" d="M553.842,-1430.17C561.244,-1471.37 579.699,-1575.04 593.76,-1662 602.333,-1715.02 589.918,-1864.98 629.76,-1901 678.598,-1945.15 878.204,-1933.13 970.995,-1924.85"/>
<polygon fill="black" stroke="black" points="971.327,-1928.33 980.967,-1923.93 970.689,-1921.36 971.327,-1928.33"/>
</g>
<!-- AS6461 -->
<g id="node34" class="node"><title>AS6461</title>
<g id="a_node34"><a xlink:href="/asn/6461" xlink:title="AS6461 ~ ZAYO&#45;6461 [US]">
<ellipse fill="#ffffff" stroke="black" cx="669.407" cy="-1366" rx="39.7935" ry="18"/>
<text text-anchor="middle" x="669.407" y="-1362.3" font-family="Times,serif" font-size="14.00" fill="#2c94b3">AS6461</text>
</a>
</g>
</g>
<!-- AS1299&#45;&gt;AS6461 -->
<g id="edge61" class="edge"><title>AS1299&#45;&gt;AS6461</title>
<path fill="none" stroke="black" d="M580.301,-1400.39C595.094,-1394.62 613.172,-1387.56 629.093,-1381.35"/>
<polygon fill="black" stroke="black" points="630.637,-1384.5 638.679,-1377.6 628.091,-1377.98 630.637,-1384.5"/>
</g>
<!-- AS2914&#45;&gt;AS174 -->
<g id="edge64" class="edge"><title>AS2914&#45;&gt;AS174</title>
<path fill="none" stroke="black" d="M638.658,-902.529C591.648,-879.977 500.79,-830.814 454.609,-802.914"/>
<polygon fill="black" stroke="black" points="456.349,-799.876 445.995,-797.632 452.69,-805.843 456.349,-799.876"/>
</g>
<!-- AS2914&#45;&gt;AS6762 -->
<g id="edge63" class="edge"><title>AS2914&#45;&gt;AS6762</title>
<path fill="none" stroke="black" d="M677.566,-931.698C685.939,-957.914 699.826,-1007.66 709.053,-1051 729.867,-1148.76 727.965,-1174.52 745.053,-1273 756.834,-1340.89 771.992,-1420.95 779.331,-1462.79"/>
<polygon fill="black" stroke="black" points="775.912,-1463.55 781.063,-1472.81 782.809,-1462.36 775.912,-1463.55"/>
</g>
<!-- AS2914&#45;&gt;AS7018 -->
<g id="edge68" class="edge"><title>AS2914&#45;&gt;AS7018</title>
<path fill="none" stroke="black" d="M696.235,-900.457C790.018,-851.28 1112.65,-682.106 1219.38,-626.139"/>
<polygon fill="black" stroke="black" points="1221.21,-629.131 1228.44,-621.387 1217.96,-622.931 1221.21,-629.131"/>
</g>
<!-- AS2914&#45;&gt;AS3257 -->
<g id="edge66" class="edge"><title>AS2914&#45;&gt;AS3257</title>
<path fill="none" stroke="black" d="M709.126,-915.363C795.422,-923.473 1003.1,-951.782 1094.38,-967.79"/>
<polygon fill="black" stroke="black" points="1093.94,-971.267 1104.4,-969.584 1095.17,-964.377 1093.94,-971.267"/>
</g>
<!-- AS2914&#45;&gt;AS3356 -->
<g id="edge65" class="edge"><title>AS2914&#45;&gt;AS3356</title>
<path fill="none" stroke="black" stroke-width="2" d="M683.472,-930.9C697.667,-953.633 721.485,-994.096 745.053,-1027 790.327,-1090.21 851.119,-1159.27 880.948,-1195.74"/>
<polygon fill="black" stroke="black" stroke-width="2" points="878.498,-1198.28 887.501,-1203.86 883.946,-1193.88 878.498,-1198.28"/>
</g>
<!-- AS2914&#45;&gt;AS6453 -->
<g id="edge67" class="edge"><title>AS2914&#45;&gt;AS6453</title>
<path fill="none" stroke="black" d="M696.696,-927.239C767.626,-970.937 964.272,-1115.01 1064.03,-1285 1099.77,-1345.9 1123.29,-1426.88 1133.25,-1469.13"/>
<polygon fill="black" stroke="black" points="1129.86,-1470.03 1135.49,-1479.01 1136.69,-1468.48 1129.86,-1470.03"/>
</g>
<!-- AS2914&#45;&gt;AS701 -->
<g id="edge69" class="edge"><title>AS2914&#45;&gt;AS701</title>
<path fill="none" stroke="black" d="M674.985,-895.958C699.186,-805.151 821.768,-398.221 1100.03,-290 1132.88,-277.226 1148.93,-272.161 1179.32,-290 1294.98,-357.881 1343.82,-527.071 1359.06,-594.056"/>
<polygon fill="black" stroke="black" points="1355.65,-594.882 1361.22,-603.898 1362.49,-593.38 1355.65,-594.882"/>
</g>
<!-- AS2914&#45;&gt;AS2497 -->
<g id="edge62" class="edge"><title>AS2914&#45;&gt;AS2497</title>
<path fill="none" stroke="black" d="M676.602,-931.888C718.33,-1052.37 958.255,-1745.09 1009.29,-1892.44"/>
<polygon fill="black" stroke="black" points="1006.05,-1893.79 1012.63,-1902.1 1012.67,-1891.5 1006.05,-1893.79"/>
</g>
<!-- AS3216&#45;&gt;AS1273 -->
<g id="edge70" class="edge"><title>AS3216&#45;&gt;AS1273</title>
<path fill="none" stroke="black" stroke-width="2" d="M818.404,-2523.61C894.062,-2543.62 1082.1,-2580.15 1179.32,-2482 1252.48,-2408.14 1254.46,-1630.13 1254.09,-1469.8"/>
<polygon fill="black" stroke="black" stroke-width="2" points="1257.59,-1469.33 1254.06,-1459.34 1250.59,-1469.35 1257.59,-1469.33"/>
</g>
<!-- AS3216&#45;&gt;AS3356 -->
<g id="edge71" class="edge"><title>AS3216&#45;&gt;AS3356</title>
<path fill="none" stroke="black" stroke-width="4" d="M787.301,-2495.72C799.768,-2353.43 881.217,-1423.87 896.517,-1249.25"/>
<polygon fill="black" stroke="black" stroke-width="4" points="900.023,-1249.34 897.409,-1239.07 893.049,-1248.73 900.023,-1249.34"/>
</g>
<!-- AS3549&#45;&gt;AS3356 -->
<g id="edge73" class="edge"><title>AS3549&#45;&gt;AS3356</title>
<path fill="none" stroke="black" d="M985.196,-1398.73C981.729,-1396.12 978.452,-1393.18 975.639,-1390 938.758,-1348.32 916.642,-1285.27 906.9,-1248.93"/>
<polygon fill="black" stroke="black" points="910.23,-1247.82 904.374,-1238.99 903.446,-1249.54 910.23,-1247.82"/>
</g>
<!-- AS4637&#45;&gt;AS6762 -->
<g id="edge77" class="edge"><title>AS4637&#45;&gt;AS6762</title>
<path fill="none" stroke="black" d="M675.719,-1856.04C693.857,-1794.72 753.427,-1593.34 775.434,-1518.94"/>
<polygon fill="black" stroke="black" points="778.918,-1519.5 778.399,-1508.92 772.206,-1517.52 778.918,-1519.5"/>
</g>
<!-- AS4637&#45;&gt;AS209 -->
<g id="edge75" class="edge"><title>AS4637&#45;&gt;AS209</title>
<path fill="none" stroke="black" d="M702.071,-1863.51C795.135,-1830.77 1068.21,-1720.79 1179.32,-1524 1234.97,-1425.44 1250.01,-1063.81 1253.22,-960.019"/>
<polygon fill="black" stroke="black" points="1256.72,-960.092 1253.52,-949.992 1249.72,-959.884 1256.72,-960.092"/>
</g>
<!-- AS4637&#45;&gt;AS3257 -->
<g id="edge74" class="edge"><title>AS4637&#45;&gt;AS3257</title>
<path fill="none" stroke="black" d="M690.93,-1858.64C697.051,-1853.63 703.581,-1847.86 709.053,-1842 727.751,-1821.99 727.907,-1813.35 745.053,-1792 878.284,-1626.1 979.633,-1630.32 1064.03,-1435 1137.47,-1265.05 1025.35,-1189.41 1100.03,-1020 1103.05,-1013.14 1107.66,-1006.67 1112.66,-1000.96"/>
<polygon fill="black" stroke="black" points="1115.24,-1003.33 1119.6,-993.668 1110.17,-998.499 1115.24,-1003.33"/>
</g>
<!-- AS4637&#45;&gt;AS2497 -->
<g id="edge76" class="edge"><title>AS4637&#45;&gt;AS2497</title>
<path fill="none" stroke="black" d="M705.749,-1866.43C758.103,-1856.73 858.785,-1843.83 939.639,-1868 959.268,-1873.87 978.544,-1886.34 993.163,-1897.59"/>
<polygon fill="black" stroke="black" points="991.205,-1900.51 1001.2,-1904.02 995.577,-1895.04 991.205,-1900.51"/>
</g>
<!-- AS6762&#45;&gt;AS174 -->
<g id="edge81" class="edge"><title>AS6762&#45;&gt;AS174</title>
<path fill="none" stroke="black" d="M779.548,-1472.79C765.974,-1406.86 722.977,-1184.77 709.053,-1155 673.026,-1077.98 501.355,-878.098 444.504,-807.727"/>
<polygon fill="black" stroke="black" points="447.141,-805.421 438.157,-799.805 441.678,-809.797 447.141,-805.421"/>
</g>
<!-- AS6762&#45;&gt;AS1299 -->
<g id="edge83" class="edge"><title>AS6762&#45;&gt;AS1299</title>
<path fill="none" stroke="black" d="M752.596,-1501.7C720.535,-1506.75 669.731,-1507.48 629.76,-1491 603.427,-1480.14 579.91,-1456.71 565.477,-1437.95"/>
<polygon fill="black" stroke="black" points="568.211,-1435.75 559.507,-1429.71 562.544,-1439.86 568.211,-1435.75"/>
</g>
<!-- AS6762&#45;&gt;AS2914 -->
<g id="edge78" class="edge"><title>AS6762&#45;&gt;AS2914</title>
<path fill="none" stroke="black" stroke-width="3" d="M779.183,-1473.1C771.79,-1437.88 756.755,-1358.44 745.053,-1291 727.965,-1192.52 729.867,-1166.76 709.053,-1069 699.537,-1024.3 685.064,-972.79 676.795,-941.622"/>
<polygon fill="black" stroke="black" stroke-width="3" points="680.162,-940.66 674.245,-931.871 673.389,-942.432 680.162,-940.66"/>
</g>
<!-- AS6762&#45;&gt;AS7018 -->
<g id="edge82" class="edge"><title>AS6762&#45;&gt;AS7018</title>
<path fill="none" stroke="black" d="M823.672,-1494.93C883.046,-1498.84 997.901,-1497.06 1064.03,-1435 1124.82,-1377.95 1226.62,-775.154 1249.37,-636.379"/>
<polygon fill="black" stroke="black" points="1252.88,-636.579 1251.04,-626.146 1245.97,-635.451 1252.88,-636.579"/>
</g>
<!-- AS6762&#45;&gt;AS3356 -->
<g id="edge80" class="edge"><title>AS6762&#45;&gt;AS3356</title>
<path fill="none" stroke="black" d="M791.791,-1473.22C809.524,-1426.77 861.409,-1302.7 885.903,-1247.69"/>
<polygon fill="black" stroke="black" points="889.099,-1249.11 890.005,-1238.56 882.714,-1246.25 889.099,-1249.11"/>
</g>
<!-- AS6762&#45;&gt;AS6453 -->
<g id="edge79" class="edge"><title>AS6762&#45;&gt;AS6453</title>
<path fill="none" stroke="black" d="M820.046,-1499.38C832.639,-1502.06 847.061,-1504.68 860.346,-1506 950.428,-1514.96 973.667,-1511.43 1064.03,-1506 1072.93,-1505.47 1082.39,-1504.58 1091.49,-1503.56"/>
<polygon fill="black" stroke="black" points="1092.03,-1507.02 1101.55,-1502.37 1091.21,-1500.07 1092.03,-1507.02"/>
</g>
<!-- AS6939&#45;&gt;AS1299 -->
<g id="edge94" class="edge"><title>AS6939&#45;&gt;AS1299</title>
<path fill="none" stroke="black" stroke-width="0.9" d="M443.785,-1105.99C452.773,-1115.1 463.104,-1127.23 469.368,-1140 504.913,-1212.46 480.35,-1241.26 505.368,-1318 513.048,-1341.56 524.994,-1367.02 534.379,-1385.5"/>
<polygon fill="black" stroke="black" stroke-width="0.9" points="531.317,-1387.2 539.017,-1394.47 537.537,-1383.98 531.317,-1387.2"/>
</g>
<!-- AS6939&#45;&gt;AS2914 -->
<g id="edge86" class="edge"><title>AS6939&#45;&gt;AS2914</title>
<path fill="none" stroke="black" stroke-width="1.8" d="M435.8,-1072.35C448.92,-1049.71 474.365,-1010.46 505.368,-986 541.409,-957.569 590.431,-937.91 625.286,-926.404"/>
<polygon fill="black" stroke="black" stroke-width="1.8" points="626.714,-929.622 635.167,-923.235 624.576,-922.956 626.714,-929.622"/>
</g>
<!-- AS6939&#45;&gt;AS6762 -->
<g id="edge84" class="edge"><title>AS6939&#45;&gt;AS6762</title>
<path fill="none" stroke="black" stroke-width="0.9" d="M460.629,-1098.12C528.284,-1114.72 674.887,-1154.18 709.053,-1192 727.475,-1212.39 764.407,-1392.64 778.273,-1463.02"/>
<polygon fill="black" stroke="black" stroke-width="0.9" points="774.862,-1463.81 780.22,-1472.95 781.731,-1462.47 774.862,-1463.81"/>
</g>
<!-- AS6939&#45;&gt;AS209 -->
<g id="edge87" class="edge"><title>AS6939&#45;&gt;AS209</title>
<path fill="none" stroke="black" stroke-width="4.5" d="M425.716,-1071.9C425.333,-1019.41 430.953,-864.927 505.368,-771 523.956,-747.537 715.957,-655.03 745.053,-648 887.124,-613.674 941.107,-648.93 1064.03,-728 1140.4,-777.126 1206.87,-863.844 1236.91,-906.646"/>
<polygon fill="black" stroke="black" stroke-width="4.5" points="1233.83,-909.109 1242.76,-915.084 1240.3,-904.622 1233.83,-909.109"/>
</g>
<!-- AS6939&#45;&gt;AS7018 -->
<g id="edge89" class="edge"><title>AS6939&#45;&gt;AS7018</title>
<path fill="none" stroke="black" stroke-width="0.9" d="M428.264,-1071.84C435.222,-1014.11 459.764,-830.009 505.368,-684 575.276,-460.18 540.175,-328.05 745.053,-214 805.344,-180.438 956.669,-161.794 1064.03,-234 1188.18,-317.499 1235.4,-507.863 1249.2,-579.782"/>
<polygon fill="black" stroke="black" stroke-width="0.9" points="1245.81,-580.693 1251.07,-589.89 1252.69,-579.421 1245.81,-580.693"/>
</g>
<!-- AS6939&#45;&gt;AS1273 -->
<g id="edge91" class="edge"><title>AS6939&#45;&gt;AS1273</title>
<path fill="none" stroke="black" stroke-width="0.9" d="M430.876,-1071.96C440.026,-1040.24 463.125,-974.227 505.368,-936 610.602,-840.772 704.872,-844.393 824.346,-921 1035.28,-1056.26 1193.75,-1328.7 1240.09,-1414.5"/>
<polygon fill="black" stroke="black" stroke-width="0.9" points="1237.02,-1416.18 1244.83,-1423.35 1243.2,-1412.88 1237.02,-1416.18"/>
</g>
<!-- AS6939&#45;&gt;AS3356 -->
<g id="edge93" class="edge"><title>AS6939&#45;&gt;AS3356</title>
<path fill="none" stroke="black" stroke-width="0.9" d="M464.812,-1091.83C499.019,-1094 550.14,-1098.58 593.76,-1108 694.531,-1129.76 806.698,-1177.9 862.835,-1203.76"/>
<polygon fill="black" stroke="black" stroke-width="0.9" points="861.458,-1206.98 872.002,-1208.02 864.406,-1200.63 861.458,-1206.98"/>
</g>
<!-- AS6939&#45;&gt;AS3491 -->
<g id="edge90" class="edge"><title>AS6939&#45;&gt;AS3491</title>
<path fill="none" stroke="black" stroke-width="1.8" d="M428.542,-1071.76C434.745,-1029.78 454.632,-924.511 505.368,-854 545.841,-797.752 564.06,-782.032 629.76,-760 752.682,-718.778 908.471,-762.876 979.875,-788.021"/>
<polygon fill="black" stroke="black" stroke-width="1.8" points="978.784,-791.348 989.378,-791.433 981.149,-784.76 978.784,-791.348"/>
</g>
<!-- AS6939&#45;&gt;AS6453 -->
<g id="edge92" class="edge"><title>AS6939&#45;&gt;AS6453</title>
<path fill="none" stroke="black" stroke-width="0.9" d="M464.251,-1086.27C557.157,-1079.33 798.176,-1074.64 939.639,-1194 963.992,-1214.55 954.867,-1231.84 975.639,-1256 1008.49,-1294.21 1033.38,-1287.01 1064.03,-1327 1098.12,-1371.48 1120.33,-1433.94 1131.08,-1469.45"/>
<polygon fill="black" stroke="black" stroke-width="0.9" points="1127.75,-1470.53 1133.93,-1479.14 1134.46,-1468.56 1127.75,-1470.53"/>
</g>
<!-- AS6939&#45;&gt;AS701 -->
<g id="edge88" class="edge"><title>AS6939&#45;&gt;AS701</title>
<path fill="none" stroke="black" stroke-width="1.8" d="M428.478,-1071.76C437.109,-1005.33 468.891,-776.903 505.368,-714 644.765,-473.619 725.918,-423.876 975.639,-302 1103.13,-239.776 1199.57,-208.681 1294.62,-314 1332.02,-355.446 1354.27,-525.795 1361.81,-593.786"/>
<polygon fill="black" stroke="black" stroke-width="1.8" points="1358.33,-594.22 1362.89,-603.784 1365.29,-593.465 1358.33,-594.22"/>
</g>
<!-- AS6939&#45;&gt;AS2497 -->
<g id="edge85" class="edge"><title>AS6939&#45;&gt;AS2497</title>
<path fill="none" stroke="black" stroke-width="0.9" d="M451.043,-1104.02C507.085,-1137.01 643.446,-1225.4 709.053,-1339 749.637,-1409.27 713.588,-1443.2 745.053,-1518 811.502,-1675.97 944.667,-1836.13 997,-1895.72"/>
<polygon fill="black" stroke="black" stroke-width="0.9" points="994.588,-1898.28 1003.83,-1903.45 999.833,-1893.64 994.588,-1898.28"/>
</g>
<!-- AS7545&#45;&gt;AS1299 -->
<g id="edge96" class="edge"><title>AS7545&#45;&gt;AS1299</title>
<path fill="none" stroke="black" d="M428.617,-2301.86C443.87,-2188.7 525.936,-1579.88 544.728,-1440.46"/>
<polygon fill="black" stroke="black" points="548.246,-1440.56 546.113,-1430.18 541.309,-1439.62 548.246,-1440.56"/>
</g>
<!-- AS7545&#45;&gt;AS6453 -->
<g id="edge95" class="edge"><title>AS7545&#45;&gt;AS6453</title>
<path fill="none" stroke="black" d="M445.235,-2335.53C484.457,-2365.85 578.11,-2430 668.407,-2430 668.407,-2430 668.407,-2430 785.7,-2430 915.042,-2430 982.591,-2445.48 1064.03,-2345 1116.75,-2279.95 1134.63,-1665.58 1138.04,-1525.39"/>
<polygon fill="black" stroke="black" points="1141.54,-1525.14 1138.28,-1515.06 1134.55,-1524.97 1141.54,-1525.14"/>
</g>
<!-- AS7922&#45;&gt;AS6762 -->
<g id="edge100" class="edge"><title>AS7922&#45;&gt;AS6762</title>
<path fill="none" stroke="black" d="M672.008,-208.391C684.482,-351.632 766.005,-1287.8 781.247,-1462.84"/>
<polygon fill="black" stroke="black" points="777.761,-1463.16 782.116,-1472.81 784.735,-1462.55 777.761,-1463.16"/>
</g>
<!-- AS7922&#45;&gt;AS209 -->
<g id="edge99" class="edge"><title>AS7922&#45;&gt;AS209</title>
<path fill="none" stroke="black" d="M709.232,-190.519C805.935,-194.095 1058.44,-217.882 1179.32,-366 1180.41,-367.328 1235.43,-789.546 1250.3,-903.787"/>
<polygon fill="black" stroke="black" points="1246.85,-904.392 1251.61,-913.857 1253.79,-903.489 1246.85,-904.392"/>
</g>
<!-- AS7922&#45;&gt;AS6453 -->
<g id="edge98" class="edge"><title>AS7922&#45;&gt;AS6453</title>
<path fill="none" stroke="black" d="M689.776,-205.715C756.253,-260.955 975.867,-454.557 1064.03,-670 1079.51,-707.831 1126.17,-1327.95 1136.6,-1468.73"/>
<polygon fill="black" stroke="black" points="1133.11,-1469.02 1137.34,-1478.74 1140.09,-1468.5 1133.11,-1469.02"/>
</g>
<!-- AS7922&#45;&gt;AS701 -->
<g id="edge97" class="edge"><title>AS7922&#45;&gt;AS701</title>
<path fill="none" stroke="black" d="M688.82,-174.122C703.228,-162.487 724.246,-147.182 745.053,-138 859.196,-87.6314 894.073,-76 1018.84,-76 1018.84,-76 1018.84,-76 1140.68,-76 1170.55,-76 1241.22,-93.0467 1294.62,-176 1339.68,-245.998 1358.22,-506.896 1363.23,-593.705"/>
<polygon fill="black" stroke="black" points="1359.74,-594.071 1363.8,-603.86 1366.73,-593.679 1359.74,-594.071"/>
</g>
<!-- AS8359&#45;&gt;AS6939 -->
<g id="edge102" class="edge"><title>AS8359&#45;&gt;AS6939</title>
<path fill="none" stroke="black" d="M306.819,-1541.14C315.001,-1512.04 331.605,-1452.56 344.976,-1402 372.636,-1297.41 403.752,-1172.58 417.279,-1117.94"/>
<polygon fill="black" stroke="black" points="420.74,-1118.52 419.743,-1107.97 413.945,-1116.84 420.74,-1118.52"/>
</g>
<!-- AS8359&#45;&gt;AS2497 -->
<g id="edge101" class="edge"><title>AS8359&#45;&gt;AS2497</title>
<path fill="none" stroke="black" d="M316.642,-1575.53C346.248,-1608.59 414.462,-1685.4 469.368,-1752 542.959,-1841.26 531.759,-1895.53 629.76,-1957 746.506,-2030.23 809.393,-2013.03 939.639,-1968 957.633,-1961.78 975.927,-1951.04 990.392,-1941.3"/>
<polygon fill="black" stroke="black" points="992.652,-1943.99 998.867,-1935.41 988.657,-1938.24 992.652,-1943.99"/>
</g>
<!-- AS8551&#45;&gt;AS1299 -->
<g id="edge105" class="edge"><title>AS8551&#45;&gt;AS1299</title>
<path fill="none" stroke="black" stroke-width="0.409091" d="M318.258,-1101.22C349.802,-1132.75 419.969,-1205.27 469.368,-1274 495.73,-1310.68 520.726,-1356.8 535.346,-1385.34"/>
<polygon fill="black" stroke="black" stroke-width="0.409091" points="532.248,-1386.97 539.893,-1394.31 538.491,-1383.81 532.248,-1386.97"/>
</g>
<!-- AS8551&#45;&gt;AS6939 -->
<g id="edge104" class="edge"><title>AS8551&#45;&gt;AS6939</title>
<path fill="none" stroke="black" stroke-width="0.409091" d="M340.505,-1086.58C351.444,-1087.03 363.494,-1087.52 374.961,-1087.99"/>
<polygon fill="black" stroke="black" stroke-width="0.409091" points="375.143,-1091.5 385.278,-1088.41 375.429,-1084.51 375.143,-1091.5"/>
</g>
<!-- AS8551&#45;&gt;AS3257 -->
<g id="edge106" class="edge"><title>AS8551&#45;&gt;AS3257</title>
<path fill="none" stroke="black" stroke-width="0.409091" d="M301.831,-1066.92C302.789,-1012.89 311.611,-849.554 380.976,-740 491.197,-565.917 550.382,-520.503 745.053,-453 889.853,-402.79 982.205,-454.414 1064.03,-584 1102.9,-645.563 1128.09,-869.543 1136,-949.442"/>
<polygon fill="black" stroke="black" stroke-width="0.409091" points="1132.55,-950.114 1137,-959.727 1139.52,-949.435 1132.55,-950.114"/>
</g>
<!-- AS8551&#45;&gt;AS3356 -->
<g id="edge103" class="edge"><title>AS8551&#45;&gt;AS3356</title>
<path fill="none" stroke="black" stroke-width="4.5" d="M303.286,-1066.73C308.918,-1003.45 331.021,-795.357 380.976,-756 411.835,-731.688 430.513,-750.198 469.368,-756 641.998,-781.78 728.32,-778.244 824.346,-924 881.245,-1010.37 894.773,-1136.97 897.99,-1192.79"/>
<polygon fill="black" stroke="black" stroke-width="4.5" points="894.067,-1193.19 898.505,-1202.98 901.932,-1192.79 894.067,-1193.19"/>
</g>
<!-- AS8966&#45;&gt;AS1299 -->
<g id="edge110" class="edge"><title>AS8966&#45;&gt;AS1299</title>
<path fill="none" stroke="black" d="M448.85,-1544.35C455.829,-1539.3 463.272,-1533.31 469.368,-1527 495.654,-1499.79 519.323,-1463.02 533.797,-1438.45"/>
<polygon fill="black" stroke="black" points="536.894,-1440.09 538.88,-1429.68 530.838,-1436.58 536.894,-1440.09"/>
</g>
<!-- AS8966&#45;&gt;AS6762 -->
<g id="edge107" class="edge"><title>AS8966&#45;&gt;AS6762</title>
<path fill="none" stroke="black" d="M463.491,-1554.13C517.849,-1546.73 621.833,-1531.45 709.053,-1512 719.608,-1509.65 730.889,-1506.7 741.4,-1503.77"/>
<polygon fill="black" stroke="black" points="742.535,-1507.09 751.194,-1500.98 740.618,-1500.35 742.535,-1507.09"/>
</g>
<!-- AS8966&#45;&gt;AS3356 -->
<g id="edge108" class="edge"><title>AS8966&#45;&gt;AS3356</title>
<path fill="none" stroke="black" d="M460.287,-1567.45C536.491,-1584.11 721.881,-1611.9 824.346,-1518 844.478,-1499.55 880.375,-1319.42 893.766,-1249.01"/>
<polygon fill="black" stroke="black" points="897.226,-1249.54 895.645,-1239.07 890.348,-1248.24 897.226,-1249.54"/>
</g>
<!-- AS8966&#45;&gt;AS2497 -->
<g id="edge109" class="edge"><title>AS8966&#45;&gt;AS2497</title>
<path fill="none" stroke="black" d="M433.583,-1576.99C461.772,-1644.53 564.043,-1881.47 629.76,-1927 736.98,-2001.29 903.791,-1959.54 979.31,-1934.52"/>
<polygon fill="black" stroke="black" points="980.569,-1937.79 988.917,-1931.27 978.322,-1931.16 980.569,-1937.79"/>
</g>
<!-- AS9002&#45;&gt;AS6762 -->
<g id="edge112" class="edge"><title>AS9002&#45;&gt;AS6762</title>
<path fill="none" stroke="black" d="M673.151,-2214.05C688.224,-2115.47 760.934,-1639.9 779.418,-1519"/>
<polygon fill="black" stroke="black" points="782.889,-1519.46 780.941,-1509.04 775.969,-1518.4 782.889,-1519.46"/>
</g>
<!-- AS9002&#45;&gt;AS3257 -->
<g id="edge111" class="edge"><title>AS9002&#45;&gt;AS3257</title>
<path fill="none" stroke="black" d="M709.313,-2231.9C792.952,-2229.26 988.407,-2209.56 1064.03,-2086 1099.82,-2027.52 1095.35,-1538.4 1100.03,-1470 1112.11,-1293.61 1129.83,-1081.91 1136.24,-1006.43"/>
<polygon fill="black" stroke="black" points="1139.75,-1006.57 1137.11,-996.308 1132.77,-1005.97 1139.75,-1006.57"/>
</g>
<!-- AS9002&#45;&gt;AS1273 -->
<g id="edge116" class="edge"><title>AS9002&#45;&gt;AS1273</title>
<path fill="none" stroke="black" d="M685.581,-2248.89C715.349,-2280.61 785.09,-2348.12 860.346,-2373 947.106,-2401.68 999.881,-2410.07 1064.03,-2345 1191.46,-2215.73 1242.04,-1608.23 1252.05,-1469.33"/>
<polygon fill="black" stroke="black" points="1255.56,-1469.32 1252.77,-1459.1 1248.57,-1468.83 1255.56,-1469.32"/>
</g>
<!-- AS9002&#45;&gt;AS3356 -->
<g id="edge113" class="edge"><title>AS9002&#45;&gt;AS3356</title>
<path fill="none" stroke="black" d="M675.533,-2213.89C696.038,-2141.06 773.496,-1862.37 824.346,-1630 855.479,-1487.73 883.906,-1315.66 894.553,-1249.13"/>
<polygon fill="black" stroke="black" points="898.046,-1249.46 896.164,-1239.03 891.134,-1248.35 898.046,-1249.46"/>
</g>
<!-- AS9002&#45;&gt;AS6453 -->
<g id="edge114" class="edge"><title>AS9002&#45;&gt;AS6453</title>
<path fill="none" stroke="black" d="M706.451,-2238.48C793.607,-2253.26 1012.39,-2284.7 1064.03,-2238 1117.9,-2189.28 1134.71,-1655.2 1138.02,-1525.34"/>
<polygon fill="black" stroke="black" points="1141.53,-1525.12 1138.27,-1515.03 1134.53,-1524.94 1141.53,-1525.12"/>
</g>
<!-- AS9002&#45;&gt;AS2497 -->
<g id="edge115" class="edge"><title>AS9002&#45;&gt;AS2497</title>
<path fill="none" stroke="black" d="M703.1,-2222.47C766.972,-2203.3 905.112,-2158.91 939.639,-2124 988.523,-2074.57 1007.99,-1991.57 1015.11,-1948.25"/>
<polygon fill="black" stroke="black" points="1018.61,-1948.55 1016.67,-1938.14 1011.69,-1947.49 1018.61,-1948.55"/>
</g>
<!-- AS15412 -->
<g id="node35" class="node"><title>AS15412</title>
<g id="a_node35"><a xlink:href="/asn/15412" xlink:title="AS15412 ~ Flag Telecom Global Internet AS [GB]">
<ellipse fill="#ffffff" stroke="black" cx="300.78" cy="-1375" rx="44.393" ry="18"/>
<text text-anchor="middle" x="300.78" y="-1371.3" font-family="Times,serif" font-size="14.00" fill="#2c94b3">AS15412</text>
</a>
</g>
</g>
<!-- AS9957&#45;&gt;AS15412 -->
<g id="edge117" class="edge"><title>AS9957&#45;&gt;AS15412</title>
<path fill="none" stroke="black" stroke-width="2" d="M216.113,-1375C225.573,-1375 235.865,-1375 245.891,-1375"/>
<polygon fill="black" stroke="black" stroke-width="2" points="246.198,-1378.5 256.198,-1375 246.198,-1371.5 246.198,-1378.5"/>
</g>
<!-- AS12389&#45;&gt;AS1299 -->
<g id="edge123" class="edge"><title>AS12389&#45;&gt;AS1299</title>
<path fill="none" stroke="black" stroke-width="4.5" d="M432.158,-1761.05C451.965,-1701.66 515.474,-1511.22 539.362,-1439.59"/>
<polygon fill="black" stroke="black" stroke-width="4.5" points="543.161,-1440.65 542.589,-1429.92 535.69,-1438.16 543.161,-1440.65"/>
</g>
<!-- AS12389&#45;&gt;AS6762 -->
<g id="edge121" class="edge"><title>AS12389&#45;&gt;AS6762</title>
<path fill="none" stroke="black" stroke-width="1.8" d="M466.124,-1772.17C527.512,-1759.56 644.67,-1726.74 709.053,-1652 743.585,-1611.91 765.379,-1553.15 775.985,-1518.82"/>
<polygon fill="black" stroke="black" stroke-width="1.8" points="779.411,-1519.58 778.919,-1508.99 772.704,-1517.57 779.411,-1519.58"/>
</g>
<!-- AS12389&#45;&gt;AS3257 -->
<g id="edge120" class="edge"><title>AS12389&#45;&gt;AS3257</title>
<path fill="none" stroke="black" stroke-width="4.5" d="M428.133,-1797.18C433.352,-1836.86 451.112,-1931.97 505.368,-1986 547.245,-2027.7 572.879,-2016.96 629.76,-2033 819.13,-2086.41 967.997,-2118.73 1064.03,-1947 1115.92,-1854.22 1091.87,-1575.99 1100.03,-1470 1113.61,-1293.72 1130.41,-1081.96 1136.41,-1006.45"/>
<polygon fill="black" stroke="black" stroke-width="4.5" points="1140.35,-1006.6 1137.22,-996.316 1132.5,-1005.97 1140.35,-1006.6"/>
</g>
<!-- AS12389&#45;&gt;AS6453 -->
<g id="edge124" class="edge"><title>AS12389&#45;&gt;AS6453</title>
<path fill="none" stroke="black" stroke-width="2.7" d="M428.523,-1797.23C436.535,-1856.64 464.553,-2043.35 505.368,-2086 624.784,-2210.79 1061.8,-2088.19 1064.03,-2086 1104.63,-2046.19 1130.7,-1637.43 1137.12,-1525.31"/>
<polygon fill="black" stroke="black" stroke-width="2.7" points="1140.63,-1525.3 1137.7,-1515.12 1133.64,-1524.91 1140.63,-1525.3"/>
</g>
<!-- AS12389&#45;&gt;AS2497 -->
<g id="edge122" class="edge"><title>AS12389&#45;&gt;AS2497</title>
<path fill="none" stroke="black" stroke-width="0.9" d="M430.637,-1796.92C439.664,-1829.93 462.923,-1900.98 505.368,-1945 548.667,-1989.9 569.181,-1995.13 629.76,-2010 763.512,-2042.84 814.143,-2066.73 939.639,-2010 968.347,-1997.02 990.795,-1967.92 1004.35,-1946.31"/>
<polygon fill="black" stroke="black" stroke-width="0.9" points="1007.45,-1947.94 1009.61,-1937.57 1001.45,-1944.33 1007.45,-1947.94"/>
</g>
<!-- AS12956&#45;&gt;AS174 -->
<g id="edge131" class="edge"><title>AS12956&#45;&gt;AS174</title>
<path fill="none" stroke="black" d="M1016.22,-1335.89C1003.59,-1250.29 939.742,-887.541 709.053,-769 631.12,-728.954 524.965,-755.639 467.398,-772.655"/>
<polygon fill="black" stroke="black" points="466.146,-769.377 457.571,-775.599 468.154,-776.082 466.146,-769.377"/>
</g>
<!-- AS12956&#45;&gt;AS1299 -->
<g id="edge135" class="edge"><title>AS12956&#45;&gt;AS1299</title>
<path fill="none" stroke="black" d="M986.854,-1366.13C910.53,-1388.87 723.012,-1433.45 709.053,-1435 674.028,-1438.9 664.867,-1438.08 629.76,-1435 615.351,-1433.74 599.635,-1431.2 586.03,-1428.04"/>
<polygon fill="black" stroke="black" points="586.648,-1424.58 576.093,-1425.5 584.919,-1431.37 586.648,-1424.58"/>
</g>
<!-- AS12956&#45;&gt;AS6762 -->
<g id="edge136" class="edge"><title>AS12956&#45;&gt;AS6762</title>
<path fill="none" stroke="black" d="M991.152,-1367.93C959.137,-1384.29 905.097,-1412.67 860.346,-1440 845.073,-1449.33 828.596,-1460.46 815.018,-1469.95"/>
<polygon fill="black" stroke="black" points="812.718,-1467.29 806.556,-1475.9 816.748,-1473.01 812.718,-1467.29"/>
</g>
<!-- AS12956&#45;&gt;AS3257 -->
<g id="edge132" class="edge"><title>AS12956&#45;&gt;AS3257</title>
<path fill="none" stroke="black" d="M1021.03,-1335.67C1022.41,-1281.61 1032.3,-1119.79 1100.03,-1010 1102.29,-1006.33 1105.13,-1002.88 1108.23,-999.71"/>
<polygon fill="black" stroke="black" points="1110.75,-1002.15 1115.79,-992.827 1106.04,-996.968 1110.75,-1002.15"/>
</g>
<!-- AS12956&#45;&gt;AS1273 -->
<g id="edge134" class="edge"><title>AS12956&#45;&gt;AS1273</title>
<path fill="none" stroke="black" d="M1053.25,-1366.1C1095.33,-1381.8 1168.74,-1409.19 1214.16,-1426.14"/>
<polygon fill="black" stroke="black" points="1213.09,-1429.48 1223.68,-1429.7 1215.53,-1422.92 1213.09,-1429.48"/>
</g>
<!-- AS12956&#45;&gt;AS6453 -->
<g id="edge133" class="edge"><title>AS12956&#45;&gt;AS6453</title>
<path fill="none" stroke="black" d="M1047.78,-1368.27C1053.5,-1371.98 1059.25,-1376.28 1064.03,-1381 1090.78,-1407.4 1112.79,-1445.03 1125.82,-1470.2"/>
<polygon fill="black" stroke="black" points="1122.72,-1471.84 1130.36,-1479.18 1128.97,-1468.68 1122.72,-1471.84"/>
</g>
<!-- AS20485&#45;&gt;AS1299 -->
<g id="edge140" class="edge"><title>AS20485&#45;&gt;AS1299</title>
<path fill="none" stroke="black" stroke-width="0.375" d="M301.662,-1809.69C302.291,-1759.41 310.567,-1617.36 380.976,-1532 408.775,-1498.3 433.611,-1514.1 469.368,-1489 490.949,-1473.85 512.195,-1452.76 527.239,-1436.48"/>
<polygon fill="black" stroke="black" stroke-width="0.375" points="529.97,-1438.68 534.1,-1428.93 524.787,-1433.98 529.97,-1438.68"/>
</g>
<!-- AS20485&#45;&gt;AS6939 -->
<g id="edge142" class="edge"><title>AS20485&#45;&gt;AS6939</title>
<path fill="none" stroke="black" stroke-width="0.375" d="M305.145,-1809.81C312.569,-1769.52 330.818,-1669.74 344.976,-1586 375.042,-1408.17 408.22,-1193.93 419.857,-1118.19"/>
<polygon fill="black" stroke="black" stroke-width="0.375" points="423.357,-1118.45 421.414,-1108.04 416.438,-1117.39 423.357,-1118.45"/>
</g>
<!-- AS20485&#45;&gt;AS1273 -->
<g id="edge141" class="edge"><title>AS20485&#45;&gt;AS1273</title>
<path fill="none" stroke="black" stroke-width="0.375" d="M302.688,-1846.22C307.036,-1927.86 327.753,-2259.89 380.976,-2347 428.872,-2425.4 456.695,-2468 548.564,-2468 548.564,-2468 548.564,-2468 1020.84,-2468 1231.51,-2468 1251.81,-1635.73 1253.76,-1469.64"/>
<polygon fill="black" stroke="black" stroke-width="0.375" points="1257.27,-1469.3 1253.87,-1459.26 1250.27,-1469.22 1257.27,-1469.3"/>
</g>
<!-- AS20485&#45;&gt;AS3356 -->
<g id="edge137" class="edge"><title>AS20485&#45;&gt;AS3356</title>
<path fill="none" stroke="black" stroke-width="4.5" d="M344.608,-1824.95C378.752,-1821.9 427.598,-1816.17 469.368,-1806 657.357,-1760.23 726.555,-1720.95 824.346,-1554 883.547,-1452.93 895.829,-1309.37 898.353,-1249.22"/>
<polygon fill="black" stroke="black" stroke-width="4.5" points="902.296,-1249.13 898.719,-1238.99 894.426,-1248.84 902.296,-1249.13"/>
</g>
<!-- AS20485&#45;&gt;AS6453 -->
<g id="edge139" class="edge"><title>AS20485&#45;&gt;AS6453</title>
<path fill="none" stroke="black" stroke-width="0.375" d="M306.066,-1845.99C315.271,-1882 339.525,-1964.43 380.976,-2022 453.861,-2123.22 511.114,-2111.57 593.76,-2205 612.872,-2226.6 604.784,-2244.57 629.76,-2259 713.326,-2307.28 995.485,-2330.94 1064.03,-2263 1090.83,-2236.44 1128.45,-1660.38 1136.93,-1525.21"/>
<polygon fill="black" stroke="black" stroke-width="0.375" points="1140.43,-1525.41 1137.56,-1515.22 1133.44,-1524.98 1140.43,-1525.41"/>
</g>
<!-- AS20485&#45;&gt;AS2497 -->
<g id="edge138" class="edge"><title>AS20485&#45;&gt;AS2497</title>
<path fill="none" stroke="black" stroke-width="0.375" d="M310.761,-1845.75C335.283,-1892.41 408.098,-2019.51 505.368,-2086 553.091,-2118.62 572.587,-2115.46 629.76,-2124 771.24,-2145.13 827.36,-2125.64 939.639,-2037 970.503,-2012.63 993.768,-1972.9 1006.85,-1946.61"/>
<polygon fill="black" stroke="black" stroke-width="0.375" points="1010.01,-1948.11 1011.2,-1937.58 1003.71,-1945.07 1010.01,-1948.11"/>
</g>
<!-- AS31133&#45;&gt;AS174 -->
<g id="edge145" class="edge"><title>AS31133&#45;&gt;AS174</title>
<path fill="none" stroke="black" stroke-width="4" d="M314.724,-1197.76C324.388,-1184.1 337.216,-1164.2 344.976,-1145 392.965,-1026.28 414.207,-873.326 421.282,-811.149"/>
<polygon fill="black" stroke="black" stroke-width="4" points="424.789,-811.281 422.407,-800.958 417.831,-810.514 424.789,-811.281"/>
</g>
<!-- AS31133&#45;&gt;AS1299 -->
<g id="edge146" class="edge"><title>AS31133&#45;&gt;AS1299</title>
<path fill="none" stroke="black" stroke-width="4" d="M321.975,-1231.12C366.047,-1266.3 470.904,-1350.01 520.999,-1390"/>
<polygon fill="black" stroke="black" stroke-width="4" points="519.122,-1392.98 529.12,-1396.48 523.489,-1387.5 519.122,-1392.98"/>
</g>
<!-- AS31133&#45;&gt;AS6762 -->
<g id="edge143" class="edge"><title>AS31133&#45;&gt;AS6762</title>
<path fill="none" stroke="black" stroke-width="2" d="M344.805,-1216.74C403.071,-1220.31 509.468,-1231.16 593.76,-1264 650.719,-1286.19 668.503,-1293.26 709.053,-1339 741.96,-1376.12 763.918,-1430.35 775.063,-1463"/>
<polygon fill="black" stroke="black" stroke-width="2" points="771.839,-1464.4 778.302,-1472.79 778.485,-1462.2 771.839,-1464.4"/>
</g>
<!-- AS31133&#45;&gt;AS6939 -->
<g id="edge144" class="edge"><title>AS31133&#45;&gt;AS6939</title>
<path fill="none" stroke="black" stroke-width="4" d="M324.525,-1199.65C331.359,-1194.64 338.702,-1188.86 344.976,-1183 367.517,-1161.94 390.013,-1134.78 405.237,-1115.26"/>
<polygon fill="black" stroke="black" stroke-width="4" points="408.163,-1117.2 411.494,-1107.14 402.618,-1112.92 408.163,-1117.2"/>
</g>
<!-- AS33891&#45;&gt;AS3356 -->
<g id="edge147" class="edge"><title>AS33891&#45;&gt;AS3356</title>
<path fill="none" stroke="black" d="M589.519,-1283.17C654.38,-1270.14 784.194,-1244.06 853.281,-1230.18"/>
<polygon fill="black" stroke="black" points="854.308,-1233.55 863.423,-1228.15 852.93,-1226.68 854.308,-1233.55"/>
</g>
<!-- AS37100&#45;&gt;AS1299 -->
<g id="edge148" class="edge"><title>AS37100&#45;&gt;AS1299</title>
<path fill="none" stroke="black" d="M220.329,-1427.03C289.809,-1423.85 426.458,-1417.59 499.609,-1414.24"/>
<polygon fill="black" stroke="black" points="500.097,-1417.72 509.926,-1413.77 499.776,-1410.73 500.097,-1417.72"/>
</g>
<!-- AS47123&#45;&gt;AS6762 -->
<g id="edge149" class="edge"><title>AS47123&#45;&gt;AS6762</title>
<path fill="none" stroke="black" d="M220.395,-1701.34C332.294,-1693.71 629.355,-1668.69 709.053,-1614 742.768,-1590.86 763.888,-1547.02 774.734,-1518.42"/>
<polygon fill="black" stroke="black" points="778.033,-1519.59 778.146,-1508.99 771.451,-1517.2 778.033,-1519.59"/>
</g>
<!-- AS47147&#45;&gt;AS2914 -->
<g id="edge150" class="edge"><title>AS47147&#45;&gt;AS2914</title>
<path fill="none" stroke="black" d="M552.166,-2213.76C560.33,-2120.87 598.157,-1690.89 629.76,-1339 643.191,-1189.45 659.576,-1010.34 665.821,-942.188"/>
<polygon fill="black" stroke="black" points="669.307,-942.503 666.735,-932.225 662.336,-941.864 669.307,-942.503"/>
</g>
<!-- AS3320 -->
<g id="node36" class="node"><title>AS3320</title>
<g id="a_node36"><a xlink:href="/asn/3320" xlink:title="AS3320 ~ DTAG [DE]">
<ellipse fill="#ffffff" stroke="black" cx="899.993" cy="-2346" rx="39.7935" ry="18"/>
<text text-anchor="middle" x="899.993" y="-2342.3" font-family="Times,serif" font-size="14.00" fill="#2c94b3">AS3320</text>
</a>
</g>
</g>
<!-- AS47147&#45;&gt;AS3320 -->
<g id="edge151" class="edge"><title>AS47147&#45;&gt;AS3320</title>
<path fill="none" stroke="black" d="M564.37,-2249.1C578.82,-2265.73 603.088,-2290.29 629.76,-2303 701.017,-2336.95 793.677,-2344.92 849.623,-2346.34"/>
<polygon fill="black" stroke="black" points="849.902,-2349.85 859.967,-2346.54 850.037,-2342.85 849.902,-2349.85"/>
</g>
<!-- AS3257&#45;&gt;AS2914 -->
<g id="edge126" class="edge"><title>AS3257&#45;&gt;AS2914</title>
<path fill="none" stroke="black" d="M1099.97,-976.638C1013.73,-968.534 806.238,-940.253 714.872,-924.239"/>
<polygon fill="black" stroke="black" points="715.3,-920.76 704.84,-922.444 714.067,-927.651 715.3,-920.76"/>
</g>
<!-- AS3257&#45;&gt;AS209 -->
<g id="edge128" class="edge"><title>AS3257&#45;&gt;AS209</title>
<path fill="none" stroke="black" d="M1169.85,-966.154C1184.27,-960.302 1201.81,-953.178 1217.14,-946.954"/>
<polygon fill="black" stroke="black" points="1218.89,-950.021 1226.84,-943.016 1216.26,-943.535 1218.89,-950.021"/>
</g>
<!-- AS3257&#45;&gt;AS7018 -->
<g id="edge127" class="edge"><title>AS3257&#45;&gt;AS7018</title>
<path fill="none" stroke="black" d="M1151.85,-960.784C1160.39,-946.98 1171.92,-926.865 1179.32,-908 1217.13,-811.719 1240.32,-690.381 1249.47,-636.279"/>
<polygon fill="black" stroke="black" points="1252.98,-636.523 1251.16,-626.084 1246.07,-635.376 1252.98,-636.523"/>
</g>
<!-- AS3257&#45;&gt;AS701 -->
<g id="edge125" class="edge"><title>AS3257&#45;&gt;AS701</title>
<path fill="none" stroke="black" d="M1177,-984.413C1211.69,-988.307 1263.22,-987.914 1294.62,-959 1339.98,-917.221 1357.76,-723.74 1362.95,-650.34"/>
<polygon fill="black" stroke="black" points="1366.46,-650.237 1363.65,-640.023 1359.48,-649.762 1366.46,-650.237"/>
</g>
<!-- AS1273&#45;&gt;AS701 -->
<g id="edge72" class="edge"><title>AS1273&#45;&gt;AS701</title>
<path fill="none" stroke="black" d="M1261.31,-1422.8C1269.64,-1393.72 1285.7,-1334.88 1294.62,-1284 1337.26,-1040.6 1357.57,-741.998 1363.1,-650.184"/>
<polygon fill="black" stroke="black" points="1366.61,-650.219 1363.71,-640.029 1359.62,-649.805 1366.61,-650.219"/>
</g>
<!-- AS3356&#45;&gt;AS174 -->
<g id="edge40" class="edge"><title>AS3356&#45;&gt;AS174</title>
<path fill="none" stroke="black" stroke-width="3" d="M892.216,-1203.28C881.044,-1169.86 856.734,-1097.05 824.346,-1041 803.75,-1005.36 740.728,-922.294 709.053,-896 635.941,-835.308 524.21,-808.389 465.44,-794.656"/>
<polygon fill="black" stroke="black" stroke-width="3" points="465.981,-791.188 455.447,-792.32 464.388,-798.004 465.981,-791.188"/>
</g>
<!-- AS3356&#45;&gt;AS2914 -->
<g id="edge44" class="edge"><title>AS3356&#45;&gt;AS2914</title>
<path fill="none" stroke="black" stroke-width="2" d="M879.44,-1205.33C849.109,-1174.99 789.577,-1107.16 745.053,-1045 720.479,-1010.69 695.632,-968.163 681.707,-940.819"/>
<polygon fill="black" stroke="black" stroke-width="2" points="684.826,-939.23 677.255,-931.818 678.551,-942.334 684.826,-939.23"/>
</g>
<!-- AS3356&#45;&gt;AS3549 -->
<g id="edge36" class="edge"><title>AS3356&#45;&gt;AS3549</title>
<path fill="none" stroke="black" stroke-width="4" d="M907.406,-1238.9C917.396,-1269.4 939.383,-1331.02 975.639,-1372 980.364,-1377.34 986.397,-1381.99 992.446,-1386.15"/>
<polygon fill="black" stroke="black" stroke-width="4" points="990.892,-1389.31 1001.17,-1391.89 994.743,-1383.47 990.892,-1389.31"/>
</g>
<!-- AS3356&#45;&gt;AS6762 -->
<g id="edge41" class="edge"><title>AS3356&#45;&gt;AS6762</title>
<path fill="none" stroke="black" stroke-width="2" d="M892.921,-1238.73C875.231,-1285.07 823.438,-1408.93 798.892,-1464.08"/>
<polygon fill="black" stroke="black" stroke-width="2" points="795.683,-1462.68 794.779,-1473.24 802.069,-1465.55 795.683,-1462.68"/>
</g>
<!-- AS3356&#45;&gt;AS12956 -->
<g id="edge38" class="edge"><title>AS3356&#45;&gt;AS12956</title>
<path fill="none" stroke="black" stroke-width="3" d="M911.501,-1238.29C924.835,-1259.42 949.289,-1295.62 975.639,-1322 979.256,-1325.62 983.306,-1329.16 987.437,-1332.48"/>
<polygon fill="black" stroke="black" stroke-width="3" points="985.324,-1335.27 995.39,-1338.58 989.583,-1329.72 985.324,-1335.27"/>
</g>
<!-- AS3356&#45;&gt;AS209 -->
<g id="edge37" class="edge"><title>AS3356&#45;&gt;AS209</title>
<path fill="none" stroke="black" stroke-width="4" d="M911.3,-1203.45C924.255,-1182.53 948.154,-1147.44 975.639,-1124 1009.65,-1094.99 1025.34,-1098.4 1064.03,-1076 1116.11,-1045.85 1131.9,-1042.04 1179.32,-1005 1198.54,-989.987 1218.18,-970.59 1232.49,-955.565"/>
<polygon fill="black" stroke="black" stroke-width="4" points="1235.15,-957.837 1239.45,-948.152 1230.05,-953.043 1235.15,-957.837"/>
</g>
<!-- AS3356&#45;&gt;AS7018 -->
<g id="edge42" class="edge"><title>AS3356&#45;&gt;AS7018</title>
<path fill="none" stroke="black" stroke-width="2" d="M906.765,-1203.21C918.038,-1169.36 944.609,-1093.71 975.639,-1034 1058.9,-873.779 1186.63,-697.853 1234.75,-633.428"/>
<polygon fill="black" stroke="black" stroke-width="2" points="1237.8,-635.192 1240.99,-625.091 1232.2,-630.994 1237.8,-635.192"/>
</g>
<!-- AS3356&#45;&gt;AS3257 -->
<g id="edge47" class="edge"><title>AS3356&#45;&gt;AS3257</title>
<path fill="none" stroke="black" d="M907.085,-1203.21C917.402,-1175.27 940.661,-1120.71 975.639,-1086 1007.37,-1054.51 1026.82,-1062.77 1064.03,-1038 1069.06,-1034.65 1092.41,-1015.79 1111.68,-1000.09"/>
<polygon fill="black" stroke="black" points="1114.08,-1002.65 1119.62,-993.615 1109.66,-997.225 1114.08,-1002.65"/>
</g>
<!-- AS3356&#45;&gt;AS1273 -->
<g id="edge45" class="edge"><title>AS3356&#45;&gt;AS1273</title>
<path fill="none" stroke="black" stroke-width="2" d="M927.575,-1234.3C978.146,-1260 1091.03,-1319.33 1179.32,-1380 1196.39,-1391.73 1214.39,-1406.37 1228.44,-1418.36"/>
<polygon fill="black" stroke="black" stroke-width="2" points="1226.37,-1421.19 1236.22,-1425.08 1230.94,-1415.9 1226.37,-1421.19"/>
</g>
<!-- AS3356&#45;&gt;AS3491 -->
<g id="edge39" class="edge"><title>AS3356&#45;&gt;AS3491</title>
<path fill="none" stroke="black" stroke-width="3" d="M906.056,-1203.04C924.565,-1137.39 988.638,-910.114 1011.03,-830.672"/>
<polygon fill="black" stroke="black" stroke-width="3" points="1014.45,-831.469 1013.79,-820.894 1007.71,-829.569 1014.45,-831.469"/>
</g>
<!-- AS3356&#45;&gt;AS701 -->
<g id="edge46" class="edge"><title>AS3356&#45;&gt;AS701</title>
<path fill="none" stroke="black" stroke-width="2" d="M934.115,-1211.61C1011.09,-1187.97 1202.46,-1118.27 1294.62,-987 1333.05,-932.26 1355.2,-726.826 1362.24,-650.653"/>
<polygon fill="black" stroke="black" stroke-width="2" points="1365.76,-650.661 1363.17,-640.386 1358.78,-650.03 1365.76,-650.661"/>
</g>
<!-- AS3356&#45;&gt;AS2497 -->
<g id="edge43" class="edge"><title>AS3356&#45;&gt;AS2497</title>
<path fill="none" stroke="black" d="M904.024,-1238.98C920.007,-1333.78 994.495,-1775.62 1014.1,-1891.9"/>
<polygon fill="black" stroke="black" points="1010.66,-1892.54 1015.77,-1901.82 1017.56,-1891.37 1010.66,-1892.54"/>
</g>
<!-- AS6453&#45;&gt;AS2914 -->
<g id="edge129" class="edge"><title>AS6453&#45;&gt;AS2914</title>
<path fill="none" stroke="black" d="M1133,-1479.11C1122.89,-1443.53 1099.48,-1363.4 1064.03,-1303 964.473,-1133.36 768.418,-989.517 697.126,-935.976"/>
<polygon fill="black" stroke="black" points="699.157,-933.124 689.065,-929.899 694.943,-938.714 699.157,-933.124"/>
</g>
<!-- AS6453&#45;&gt;AS1273 -->
<g id="edge130" class="edge"><title>AS6453&#45;&gt;AS1273</title>
<path fill="none" stroke="black" d="M1167.24,-1483.87C1182.44,-1476.36 1201.71,-1466.83 1218.22,-1458.67"/>
<polygon fill="black" stroke="black" points="1220.16,-1461.62 1227.57,-1454.05 1217.06,-1455.34 1220.16,-1461.62"/>
</g>
<!-- AS15412&#45;&gt;AS174 -->
<g id="edge119" class="edge"><title>AS15412&#45;&gt;AS174</title>
<path fill="none" stroke="black" d="M308.477,-1357.17C317.77,-1331.86 334.601,-1283.95 344.976,-1242 365.595,-1158.63 406.522,-897.599 419.86,-811.134"/>
<polygon fill="black" stroke="black" points="423.354,-811.441 421.416,-801.025 416.435,-810.376 423.354,-811.441"/>
</g>
<!-- AS15412&#45;&gt;AS1299 -->
<g id="edge118" class="edge"><title>AS15412&#45;&gt;AS1299</title>
<path fill="none" stroke="black" d="M342.531,-1381.11C386.314,-1387.67 455.788,-1398.09 501.775,-1404.98"/>
<polygon fill="black" stroke="black" points="501.376,-1408.46 511.785,-1406.49 502.414,-1401.54 501.376,-1408.46"/>
</g>
<!-- AS3320&#45;&gt;AS6453 -->
<g id="edge152" class="edge"><title>AS3320&#45;&gt;AS6453</title>
<path fill="none" stroke="black" d="M938.833,-2350.3C976.456,-2352.25 1032.92,-2348.48 1064.03,-2314 1117.97,-2254.22 1134.86,-1662.6 1138.07,-1525.34"/>
<polygon fill="black" stroke="black" points="1141.57,-1525.28 1138.3,-1515.21 1134.57,-1525.12 1141.57,-1525.28"/>
</g>
</g>
</svg>
