<?xml version="1.0" encoding="UTF-8" standalone="no"?>
<!DOCTYPE svg PUBLIC "-//W3C//DTD SVG 1.1//EN"
 "http://www.w3.org/Graphics/SVG/1.1/DTD/svg11.dtd">
<!-- Generated by graphviz version 2.38.0 (20140413.2041)
 -->
<!-- Title: AS201612 IPv4 Upstream Graph Pages: 1 -->
<svg width="717pt" height="566pt"
 viewBox="0.00 0.00 717.05 566.00" xmlns="http://www.w3.org/2000/svg" xmlns:xlink="http://www.w3.org/1999/xlink">
<g id="graph0" class="graph" transform="scale(1 1) rotate(0) translate(4 562)">
<title>AS201612 IPv4 Upstream Graph</title>
<polygon fill="white" stroke="none" points="-4,4 -4,-562 713.053,-562 713.053,4 -4,4"/>
<!-- AS201612 -->
<g id="node1" class="node"><title>AS201612</title>
<g id="a_node1"><a xlink:href="/asn/201612" xlink:title="AS201612 ~ nic.at GmbH [AT]">
<ellipse fill="#ffffff" stroke="black" cx="48.0957" cy="-337" rx="48.1917" ry="18"/>
<text text-anchor="middle" x="48.0957" y="-333.3" font-family="Times,serif" font-size="14.00" fill="#880000">AS201612</text>
</a>
</g>
</g>
<!-- AS760 -->
<g id="node2" class="node"><title>AS760</title>
<g id="a_node2"><a xlink:href="/asn/760" xlink:title="AS760 ~ University of Vienna, Austria [AT]">
<ellipse fill="#ffffff" stroke="black" cx="176.388" cy="-225" rx="35.194" ry="18"/>
<text text-anchor="middle" x="176.388" y="-221.3" font-family="Times,serif" font-size="14.00" fill="#2c94b3">AS760</text>
</a>
</g>
</g>
<!-- AS201612&#45;&gt;AS760 -->
<g id="edge1" class="edge"><title>AS201612&#45;&gt;AS760</title>
<path fill="none" stroke="black" stroke-width="0.818182" d="M67.7305,-320.474C89.5529,-301.121 125.806,-268.971 150.14,-247.39"/>
<polygon fill="black" stroke="black" stroke-width="0.818182" points="152.738,-249.764 157.898,-240.511 148.094,-244.527 152.738,-249.764"/>
</g>
<!-- AS25795 -->
<g id="node3" class="node"><title>AS25795</title>
<g id="a_node3"><a xlink:href="/asn/25795" xlink:title="AS25795 ~ ARP NETWORKS, INC. [US]">
<ellipse fill="#ffffff" stroke="black" cx="176.388" cy="-429" rx="44.393" ry="18"/>
<text text-anchor="middle" x="176.388" y="-425.3" font-family="Times,serif" font-size="14.00" fill="#2c94b3">AS25795</text>
</a>
</g>
</g>
<!-- AS201612&#45;&gt;AS25795 -->
<g id="edge2" class="edge"><title>AS201612&#45;&gt;AS25795</title>
<path fill="none" stroke="black" stroke-width="0.409091" d="M71.0941,-353.025C91.7736,-368.09 122.881,-390.751 145.743,-407.405"/>
<polygon fill="black" stroke="black" stroke-width="0.409091" points="143.918,-410.406 154.062,-413.465 148.04,-404.748 143.918,-410.406"/>
</g>
<!-- AS30971 -->
<g id="node4" class="node"><title>AS30971</title>
<g id="a_node4"><a xlink:href="/asn/30971" xlink:title="AS30971 ~ Jakob&#45;Haringer&#45;Strasse 8 [AT]">
<ellipse fill="#ffffff" stroke="black" cx="176.388" cy="-362" rx="44.393" ry="18"/>
<text text-anchor="middle" x="176.388" y="-358.3" font-family="Times,serif" font-size="14.00" fill="#2c94b3">AS30971</text>
</a>
</g>
</g>
<!-- AS201612&#45;&gt;AS30971 -->
<g id="edge3" class="edge"><title>AS201612&#45;&gt;AS30971</title>
<path fill="none" stroke="black" stroke-width="4.5" d="M91.1491,-345.325C102.36,-347.544 114.572,-349.961 126.131,-352.25"/>
<polygon fill="black" stroke="black" stroke-width="4.5" points="125.506,-356.139 136.08,-354.219 127.035,-348.414 125.506,-356.139"/>
</g>
<!-- AS36236 -->
<g id="node5" class="node"><title>AS36236</title>
<g id="a_node5"><a xlink:href="/asn/36236" xlink:title="AS36236 ~ NetActuate, Inc [US]">
<ellipse fill="#ffffff" stroke="black" cx="300.78" cy="-303" rx="44.393" ry="18"/>
<text text-anchor="middle" x="300.78" y="-299.3" font-family="Times,serif" font-size="14.00" fill="#2c94b3">AS36236</text>
</a>
</g>
</g>
<!-- AS201612&#45;&gt;AS36236 -->
<g id="edge4" class="edge"><title>AS201612&#45;&gt;AS36236</title>
<path fill="none" stroke="black" stroke-width="3.68182" d="M93.6241,-330.961C137.051,-325.071 203.04,-316.121 248.606,-309.941"/>
<polygon fill="black" stroke="black" stroke-width="3.68182" points="249.136,-313.401 258.575,-308.589 248.196,-306.464 249.136,-313.401"/>
</g>
<!-- AS47147 -->
<g id="node6" class="node"><title>AS47147</title>
<g id="a_node6"><a xlink:href="/asn/47147" xlink:title="AS47147 ~ ANEXIA Internetdienstleistungs GmbH [AT]">
<ellipse fill="#ffffff" stroke="black" cx="300.78" cy="-140" rx="44.393" ry="18"/>
<text text-anchor="middle" x="300.78" y="-136.3" font-family="Times,serif" font-size="14.00" fill="#2c94b3">AS47147</text>
</a>
</g>
</g>
<!-- AS201612&#45;&gt;AS47147 -->
<g id="edge5" class="edge"><title>AS201612&#45;&gt;AS47147</title>
<path fill="none" stroke="black" stroke-width="3.27273" d="M55.235,-318.904C66.1349,-289.417 91.6139,-230.987 132.191,-198 165.785,-170.69 213.039,-155.882 248.809,-148.082"/>
<polygon fill="black" stroke="black" stroke-width="3.27273" points="249.956,-151.42 259.043,-145.972 248.542,-144.564 249.956,-151.42"/>
</g>
<!-- AS58436 -->
<g id="node7" class="node"><title>AS58436</title>
<g id="a_node7"><a xlink:href="/asn/58436" xlink:title="AS58436 ~ SECUREAX PTE LTD [SG]">
<ellipse fill="#ffffff" stroke="black" cx="176.388" cy="-510" rx="44.393" ry="18"/>
<text text-anchor="middle" x="176.388" y="-506.3" font-family="Times,serif" font-size="14.00" fill="#2c94b3">AS58436</text>
</a>
</g>
</g>
<!-- AS201612&#45;&gt;AS58436 -->
<g id="edge6" class="edge"><title>AS201612&#45;&gt;AS58436</title>
<path fill="none" stroke="black" stroke-width="1.22727" d="M60.8564,-354.595C76.6484,-378.044 105.782,-420.687 132.191,-456 139.348,-465.569 147.469,-475.86 154.723,-484.865"/>
<polygon fill="black" stroke="black" stroke-width="1.22727" points="152.072,-487.153 161.089,-492.716 157.509,-482.744 152.072,-487.153"/>
</g>
<!-- AS1853 -->
<g id="node8" class="node"><title>AS1853</title>
<g id="a_node8"><a xlink:href="/asn/1853" xlink:title="AS1853 ~ ACOnet Backbone [AT]">
<ellipse fill="#ffffff" stroke="black" cx="300.78" cy="-194" rx="39.7935" ry="18"/>
<text text-anchor="middle" x="300.78" y="-190.3" font-family="Times,serif" font-size="14.00" fill="#2c94b3">AS1853</text>
</a>
</g>
</g>
<!-- AS760&#45;&gt;AS1853 -->
<g id="edge7" class="edge"><title>AS760&#45;&gt;AS1853</title>
<path fill="none" stroke="black" stroke-width="2" d="M208.272,-217.177C222.679,-213.528 240.084,-209.12 255.83,-205.132"/>
<polygon fill="black" stroke="black" stroke-width="2" points="257.055,-208.432 265.89,-202.584 255.337,-201.646 257.055,-208.432"/>
</g>
<!-- AS33597 -->
<g id="node12" class="node"><title>AS33597</title>
<g id="a_node12"><a xlink:href="/asn/33597" xlink:title="AS33597 ~ ATLANTIC&#45;METRO&#45;COMMUNICATIONS&#45;II&#45;INC [US]">
<ellipse fill="#ffffff" stroke="black" cx="300.78" cy="-491" rx="44.393" ry="18"/>
<text text-anchor="middle" x="300.78" y="-487.3" font-family="Times,serif" font-size="14.00" fill="#2c94b3">AS33597</text>
</a>
</g>
</g>
<!-- AS25795&#45;&gt;AS33597 -->
<g id="edge11" class="edge"><title>AS25795&#45;&gt;AS33597</title>
<path fill="none" stroke="black" d="M204.855,-442.914C222.098,-451.649 244.538,-463.016 263.27,-472.505"/>
<polygon fill="black" stroke="black" points="261.902,-475.736 272.404,-477.132 265.065,-469.491 261.902,-475.736"/>
</g>
<!-- AS1764 -->
<g id="node14" class="node"><title>AS1764</title>
<g id="a_node14"><a xlink:href="/asn/1764" xlink:title="AS1764 ~ NEXTLAYER&#45;AS [AT]">
<ellipse fill="#ffffff" stroke="black" cx="300.78" cy="-248" rx="39.7935" ry="18"/>
<text text-anchor="middle" x="300.78" y="-244.3" font-family="Times,serif" font-size="14.00" fill="#2c94b3">AS1764</text>
</a>
</g>
</g>
<!-- AS30971&#45;&gt;AS1764 -->
<g id="edge13" class="edge"><title>AS30971&#45;&gt;AS1764</title>
<path fill="none" stroke="black" stroke-width="4.5" d="M190.863,-344.979C205.796,-326.723 231.142,-297.465 256.584,-276 259.888,-273.212 263.486,-270.478 267.148,-267.877"/>
<polygon fill="black" stroke="black" stroke-width="4.5" points="269.63,-270.952 275.704,-262.086 265.216,-264.431 269.63,-270.952"/>
</g>
<!-- AS8437 -->
<g id="node15" class="node"><title>AS8437</title>
<g id="a_node15"><a xlink:href="/asn/8437" xlink:title="AS8437 ~ Hutchison Drei Austria GmbH [AT]">
<ellipse fill="#ffffff" stroke="black" cx="300.78" cy="-433" rx="39.7935" ry="18"/>
<text text-anchor="middle" x="300.78" y="-429.3" font-family="Times,serif" font-size="14.00" fill="#2c94b3">AS8437</text>
</a>
</g>
</g>
<!-- AS30971&#45;&gt;AS8437 -->
<g id="edge14" class="edge"><title>AS30971&#45;&gt;AS8437</title>
<path fill="none" stroke="black" stroke-width="0.5" d="M202.451,-376.539C221.009,-387.305 246.474,-402.078 266.702,-413.812"/>
<polygon fill="black" stroke="black" stroke-width="0.5" points="265.178,-416.974 275.584,-418.964 268.69,-410.919 265.178,-416.974"/>
</g>
<!-- AS5404 -->
<g id="node16" class="node"><title>AS5404</title>
<g id="a_node16"><a xlink:href="/asn/5404" xlink:title="AS5404 ~ ASN conova communications GmbH [AT]">
<ellipse fill="#ffffff" stroke="black" cx="300.78" cy="-372" rx="39.7935" ry="18"/>
<text text-anchor="middle" x="300.78" y="-368.3" font-family="Times,serif" font-size="14.00" fill="#2c94b3">AS5404</text>
</a>
</g>
</g>
<!-- AS30971&#45;&gt;AS5404 -->
<g id="edge15" class="edge"><title>AS30971&#45;&gt;AS5404</title>
<path fill="none" stroke="black" stroke-width="0.5" d="M219.851,-365.469C230,-366.299 240.91,-367.19 251.308,-368.04"/>
<polygon fill="black" stroke="black" stroke-width="0.5" points="251.235,-371.545 261.487,-368.871 251.805,-364.568 251.235,-371.545"/>
</g>
<!-- AS3257 -->
<g id="node13" class="node"><title>AS3257</title>
<g id="a_node13"><a xlink:href="/asn/3257" xlink:title="AS3257 ~ GTT [DE]">
<ellipse fill="#ffffff" stroke="black" cx="549.564" cy="-402" rx="39.7935" ry="18"/>
<text text-anchor="middle" x="549.564" y="-398.3" font-family="Times,serif" font-size="14.00" fill="#2c94b3">AS3257</text>
</a>
</g>
</g>
<!-- AS36236&#45;&gt;AS3257 -->
<g id="edge29" class="edge"><title>AS36236&#45;&gt;AS3257</title>
<path fill="none" stroke="black" stroke-width="3" d="M334.415,-314.898C368.331,-327.395 422.855,-347.855 469.368,-367 483.238,-372.709 498.328,-379.285 511.579,-385.184"/>
<polygon fill="black" stroke="black" stroke-width="3" points="510.301,-388.447 520.859,-389.339 513.162,-382.058 510.301,-388.447"/>
</g>
<!-- AS2914 -->
<g id="node17" class="node"><title>AS2914</title>
<g id="a_node17"><a xlink:href="/asn/2914" xlink:title="AS2914 ~ NTT America, Inc. [US]">
<ellipse fill="#ffffff" stroke="black" cx="425.172" cy="-248" rx="39.7935" ry="18"/>
<text text-anchor="middle" x="425.172" y="-244.3" font-family="Times,serif" font-size="14.00" fill="#2c94b3">AS2914</text>
</a>
</g>
</g>
<!-- AS36236&#45;&gt;AS2914 -->
<g id="edge30" class="edge"><title>AS36236&#45;&gt;AS2914</title>
<path fill="none" stroke="black" stroke-width="3" d="M331.096,-289.826C347.803,-282.318 368.909,-272.834 386.798,-264.795"/>
<polygon fill="black" stroke="black" stroke-width="3" points="388.669,-267.791 396.356,-260.5 385.8,-261.406 388.669,-267.791"/>
</g>
<!-- AS174 -->
<g id="node19" class="node"><title>AS174</title>
<g id="a_node19"><a xlink:href="/asn/174" xlink:title="AS174 ~ Cogent Communications [US]">
<ellipse fill="#ffffff" stroke="black" cx="425.172" cy="-302" rx="35.194" ry="18"/>
<text text-anchor="middle" x="425.172" y="-298.3" font-family="Times,serif" font-size="14.00" fill="#2c94b3">AS174</text>
</a>
</g>
</g>
<!-- AS36236&#45;&gt;AS174 -->
<g id="edge28" class="edge"><title>AS36236&#45;&gt;AS174</title>
<path fill="none" stroke="black" stroke-width="3" d="M345.275,-302.645C356.533,-302.553 368.665,-302.454 379.959,-302.361"/>
<polygon fill="black" stroke="black" stroke-width="3" points="380.075,-305.861 390.046,-302.279 380.017,-298.861 380.075,-305.861"/>
</g>
<!-- AS47147&#45;&gt;AS2914 -->
<g id="edge37" class="edge"><title>AS47147&#45;&gt;AS2914</title>
<path fill="none" stroke="black" stroke-width="2" d="M328.663,-154.329C334.388,-158.036 340.154,-162.318 344.976,-167 365.669,-187.094 360.282,-200.906 380.976,-221 383.821,-223.763 386.995,-226.386 390.295,-228.834"/>
<polygon fill="black" stroke="black" stroke-width="2" points="388.411,-231.786 398.643,-234.538 392.36,-226.006 388.411,-231.786"/>
</g>
<!-- AS1299 -->
<g id="node18" class="node"><title>AS1299</title>
<g id="a_node18"><a xlink:href="/asn/1299" xlink:title="AS1299 ~ Telia Carrier [EU]">
<ellipse fill="#ffffff" stroke="black" cx="425.172" cy="-86" rx="39.7935" ry="18"/>
<text text-anchor="middle" x="425.172" y="-82.3" font-family="Times,serif" font-size="14.00" fill="#2c94b3">AS1299</text>
</a>
</g>
</g>
<!-- AS47147&#45;&gt;AS1299 -->
<g id="edge36" class="edge"><title>AS47147&#45;&gt;AS1299</title>
<path fill="none" stroke="black" stroke-width="2" d="M331.407,-126.928C348.002,-119.607 368.861,-110.403 386.595,-102.579"/>
<polygon fill="black" stroke="black" stroke-width="2" points="388.342,-105.634 396.078,-98.395 385.516,-99.2295 388.342,-105.634"/>
</g>
<!-- AS3320 -->
<g id="node28" class="node"><title>AS3320</title>
<g id="a_node28"><a xlink:href="/asn/3320" xlink:title="AS3320 ~ DTAG [DE]">
<ellipse fill="#ffffff" stroke="black" cx="425.172" cy="-140" rx="39.7935" ry="18"/>
<text text-anchor="middle" x="425.172" y="-136.3" font-family="Times,serif" font-size="14.00" fill="#2c94b3">AS3320</text>
</a>
</g>
</g>
<!-- AS47147&#45;&gt;AS3320 -->
<g id="edge35" class="edge"><title>AS47147&#45;&gt;AS3320</title>
<path fill="none" stroke="black" stroke-width="3" d="M345.275,-140C354.964,-140 365.301,-140 375.194,-140"/>
<polygon fill="black" stroke="black" stroke-width="3" points="375.296,-143.5 385.296,-140 375.296,-136.5 375.296,-143.5"/>
</g>
<!-- AS6461 -->
<g id="node29" class="node"><title>AS6461</title>
<g id="a_node29"><a xlink:href="/asn/6461" xlink:title="AS6461 ~ Zayo Bandwidth [US]">
<ellipse fill="#ffffff" stroke="black" cx="425.172" cy="-32" rx="39.7935" ry="18"/>
<text text-anchor="middle" x="425.172" y="-28.3" font-family="Times,serif" font-size="14.00" fill="#2c94b3">AS6461</text>
</a>
</g>
</g>
<!-- AS47147&#45;&gt;AS6461 -->
<g id="edge38" class="edge"><title>AS47147&#45;&gt;AS6461</title>
<path fill="none" stroke="black" d="M316.213,-123.017C331.344,-105.771 356.308,-78.8523 380.976,-59 384.231,-56.3801 387.756,-53.8076 391.341,-51.3541"/>
<polygon fill="black" stroke="black" points="393.26,-54.2814 399.714,-45.8793 389.429,-48.4228 393.26,-54.2814"/>
</g>
<!-- AS56308 -->
<g id="node30" class="node"><title>AS56308</title>
<g id="a_node30"><a xlink:href="/asn/56308" xlink:title="AS56308 ~ TELIN&#45;NET&#45;SG [SG]">
<ellipse fill="#ffffff" stroke="black" cx="425.172" cy="-540" rx="44.393" ry="18"/>
<text text-anchor="middle" x="425.172" y="-536.3" font-family="Times,serif" font-size="14.00" fill="#2c94b3">AS56308</text>
</a>
</g>
</g>
<!-- AS58436&#45;&gt;AS56308 -->
<g id="edge41" class="edge"><title>AS58436&#45;&gt;AS56308</title>
<path fill="none" stroke="black" stroke-width="3" d="M218.972,-515.055C261.243,-520.194 326.828,-528.166 372.431,-533.71"/>
<polygon fill="black" stroke="black" stroke-width="3" points="372.067,-537.192 382.417,-534.924 372.912,-530.243 372.067,-537.192"/>
</g>
<!-- AS3356 -->
<g id="node9" class="node"><title>AS3356</title>
<g id="a_node9"><a xlink:href="/asn/3356" xlink:title="AS3356 ~ Level 3 Parent, LLC [US]">
<ellipse fill="#ffffff" stroke="black" cx="425.172" cy="-194" rx="39.7935" ry="18"/>
<text text-anchor="middle" x="425.172" y="-190.3" font-family="Times,serif" font-size="14.00" fill="#2c94b3">AS3356</text>
</a>
</g>
</g>
<!-- AS1853&#45;&gt;AS3356 -->
<g id="edge8" class="edge"><title>AS1853&#45;&gt;AS3356</title>
<path fill="none" stroke="black" stroke-width="2" d="M340.505,-194C351.444,-194 363.494,-194 374.961,-194"/>
<polygon fill="black" stroke="black" stroke-width="2" points="375.278,-197.5 385.278,-194 375.278,-190.5 375.278,-197.5"/>
</g>
<!-- AS3549 -->
<g id="node10" class="node"><title>AS3549</title>
<g id="a_node10"><a xlink:href="/asn/3549" xlink:title="AS3549 ~ Level 3 Parent, LLC [US]">
<ellipse fill="#ffffff" stroke="black" cx="549.564" cy="-218" rx="39.7935" ry="18"/>
<text text-anchor="middle" x="549.564" y="-214.3" font-family="Times,serif" font-size="14.00" fill="#2c94b3">AS3549</text>
</a>
</g>
</g>
<!-- AS3356&#45;&gt;AS3549 -->
<g id="edge9" class="edge"><title>AS3356&#45;&gt;AS3549</title>
<path fill="none" stroke="black" stroke-width="2" d="M461.902,-201.006C474.721,-203.52 489.355,-206.39 502.902,-209.046"/>
<polygon fill="black" stroke="black" stroke-width="2" points="502.515,-212.537 513.001,-211.026 503.862,-205.668 502.515,-212.537"/>
</g>
<!-- AS2497 -->
<g id="node11" class="node"><title>AS2497</title>
<g id="a_node11"><a xlink:href="/asn/2497" xlink:title="AS2497 ~ Internet Initiative Japan Inc. [JP]">
<ellipse fill="#ffffff" stroke="black" cx="669.407" cy="-333" rx="39.7935" ry="18"/>
<text text-anchor="middle" x="669.407" y="-329.3" font-family="Times,serif" font-size="14.00" fill="#2c94b3">AS2497</text>
</a>
</g>
</g>
<!-- AS3356&#45;&gt;AS2497 -->
<g id="edge10" class="edge"><title>AS3356&#45;&gt;AS2497</title>
<path fill="none" stroke="black" d="M450.319,-179.713C456.632,-175.761 463.351,-171.357 469.368,-167 486.238,-154.785 485.785,-144.09 505.368,-137 542.307,-123.626 561.413,-114.706 593.76,-137 649.155,-175.179 663.472,-260.346 667.151,-304.786"/>
<polygon fill="black" stroke="black" points="663.669,-305.169 667.861,-314.899 670.652,-304.679 663.669,-305.169"/>
</g>
<!-- AS33597&#45;&gt;AS3257 -->
<g id="edge12" class="edge"><title>AS33597&#45;&gt;AS3257</title>
<path fill="none" stroke="black" d="M343.695,-495.83C379.307,-497.954 430.658,-496.196 469.368,-475 492.139,-462.532 486.069,-446.365 505.368,-429 508.316,-426.347 511.557,-423.795 514.897,-421.391"/>
<polygon fill="black" stroke="black" points="516.952,-424.227 523.296,-415.741 513.045,-418.418 516.952,-424.227"/>
</g>
<!-- AS3257&#45;&gt;AS2497 -->
<g id="edge32" class="edge"><title>AS3257&#45;&gt;AS2497</title>
<path fill="none" stroke="black" d="M574.696,-387.87C592.251,-377.591 616.226,-363.553 635.531,-352.25"/>
<polygon fill="black" stroke="black" points="637.446,-355.184 644.307,-347.111 633.909,-349.143 637.446,-355.184"/>
</g>
<!-- AS3491 -->
<g id="node26" class="node"><title>AS3491</title>
<g id="a_node26"><a xlink:href="/asn/3491" xlink:title="AS3491 ~ PCCW Global, Inc. [US]">
<ellipse fill="#ffffff" stroke="black" cx="669.407" cy="-402" rx="39.7935" ry="18"/>
<text text-anchor="middle" x="669.407" y="-398.3" font-family="Times,serif" font-size="14.00" fill="#2c94b3">AS3491</text>
</a>
</g>
</g>
<!-- AS3257&#45;&gt;AS3491 -->
<g id="edge31" class="edge"><title>AS3257&#45;&gt;AS3491</title>
<path fill="none" stroke="black" d="M589.477,-402C599.03,-402 609.38,-402 619.342,-402"/>
<polygon fill="black" stroke="black" points="619.535,-405.5 629.535,-402 619.535,-398.5 619.535,-405.5"/>
</g>
<!-- AS1764&#45;&gt;AS3356 -->
<g id="edge16" class="edge"><title>AS1764&#45;&gt;AS3356</title>
<path fill="none" stroke="black" stroke-width="3" d="M329.859,-235.611C346.807,-228.134 368.604,-218.517 386.974,-210.412"/>
<polygon fill="black" stroke="black" stroke-width="3" points="388.487,-213.57 396.223,-206.331 385.661,-207.166 388.487,-213.57"/>
</g>
<!-- AS1764&#45;&gt;AS2914 -->
<g id="edge17" class="edge"><title>AS1764&#45;&gt;AS2914</title>
<path fill="none" stroke="black" stroke-width="2" d="M340.505,-248C351.444,-248 363.494,-248 374.961,-248"/>
<polygon fill="black" stroke="black" stroke-width="2" points="375.278,-251.5 385.278,-248 375.278,-244.5 375.278,-251.5"/>
</g>
<!-- AS1764&#45;&gt;AS1299 -->
<g id="edge18" class="edge"><title>AS1764&#45;&gt;AS1299</title>
<path fill="none" stroke="black" stroke-width="3" d="M328.751,-235.145C334.74,-231.28 340.599,-226.559 344.976,-221 376.274,-181.246 349.677,-152.754 380.976,-113 383.301,-110.047 386.044,-107.33 389.004,-104.853"/>
<polygon fill="black" stroke="black" stroke-width="3" points="391.196,-107.585 397.2,-98.8554 387.063,-101.936 391.196,-107.585"/>
</g>
<!-- AS1764&#45;&gt;AS174 -->
<g id="edge19" class="edge"><title>AS1764&#45;&gt;AS174</title>
<path fill="none" stroke="black" d="M329.859,-260.389C347.288,-268.078 369.845,-278.031 388.528,-286.274"/>
<polygon fill="black" stroke="black" points="387.336,-289.573 397.898,-290.408 390.162,-283.169 387.336,-289.573"/>
</g>
<!-- AS25255 -->
<g id="node20" class="node"><title>AS25255</title>
<g id="a_node20"><a xlink:href="/asn/25255" xlink:title="AS25255 ~ ==&gt; TELE2 AUSTRIA &lt;== [AT]">
<ellipse fill="#ffffff" stroke="black" cx="425.172" cy="-448" rx="44.393" ry="18"/>
<text text-anchor="middle" x="425.172" y="-444.3" font-family="Times,serif" font-size="14.00" fill="#2c94b3">AS25255</text>
</a>
</g>
</g>
<!-- AS8437&#45;&gt;AS25255 -->
<g id="edge20" class="edge"><title>AS8437&#45;&gt;AS25255</title>
<path fill="none" stroke="black" d="M339.166,-437.582C349.716,-438.875 361.383,-440.305 372.608,-441.68"/>
<polygon fill="black" stroke="black" points="372.395,-445.18 382.746,-442.923 373.246,-438.232 372.395,-445.18"/>
</g>
<!-- AS33891 -->
<g id="node25" class="node"><title>AS33891</title>
<g id="a_node25"><a xlink:href="/asn/33891" xlink:title="AS33891 ~ CORE&#45;BACKBONE GMBH GLOBAL NETWORK [DE]">
<ellipse fill="#ffffff" stroke="black" cx="425.172" cy="-394" rx="44.393" ry="18"/>
<text text-anchor="middle" x="425.172" y="-390.3" font-family="Times,serif" font-size="14.00" fill="#2c94b3">AS33891</text>
</a>
</g>
</g>
<!-- AS5404&#45;&gt;AS33891 -->
<g id="edge26" class="edge"><title>AS5404&#45;&gt;AS33891</title>
<path fill="none" stroke="black" d="M337.839,-378.482C349.298,-380.541 362.179,-382.857 374.426,-385.058"/>
<polygon fill="black" stroke="black" points="374.058,-388.548 384.519,-386.872 375.296,-381.658 374.058,-388.548"/>
</g>
<!-- AS2914&#45;&gt;AS2497 -->
<g id="edge22" class="edge"><title>AS2914&#45;&gt;AS2497</title>
<path fill="none" stroke="black" stroke-width="3" d="M449.566,-262.448C456.007,-266.474 462.978,-270.875 469.368,-275 485.523,-285.431 487.632,-291.568 505.368,-299 542.465,-314.545 587.387,-323.235 620.676,-327.93"/>
<polygon fill="black" stroke="black" stroke-width="3" points="620.236,-331.402 630.612,-329.262 621.166,-324.464 620.236,-331.402"/>
</g>
<!-- AS12956 -->
<g id="node22" class="node"><title>AS12956</title>
<g id="a_node22"><a xlink:href="/asn/12956" xlink:title="AS12956 ~ TELXIUS [ES]">
<ellipse fill="#ffffff" stroke="black" cx="549.564" cy="-272" rx="44.393" ry="18"/>
<text text-anchor="middle" x="549.564" y="-268.3" font-family="Times,serif" font-size="14.00" fill="#2c94b3">AS12956</text>
</a>
</g>
</g>
<!-- AS2914&#45;&gt;AS12956 -->
<g id="edge23" class="edge"><title>AS2914&#45;&gt;AS12956</title>
<path fill="none" stroke="black" d="M461.902,-255.006C473.593,-257.299 486.795,-259.888 499.303,-262.34"/>
<polygon fill="black" stroke="black" points="498.658,-265.781 509.145,-264.27 500.005,-258.911 498.658,-265.781"/>
</g>
<!-- AS7018 -->
<g id="node23" class="node"><title>AS7018</title>
<g id="a_node23"><a xlink:href="/asn/7018" xlink:title="AS7018 ~ AT&amp;T Services, Inc. [US]">
<ellipse fill="#ffffff" stroke="black" cx="549.564" cy="-18" rx="39.7935" ry="18"/>
<text text-anchor="middle" x="549.564" y="-14.3" font-family="Times,serif" font-size="14.00" fill="#2c94b3">AS7018</text>
</a>
</g>
</g>
<!-- AS1299&#45;&gt;AS7018 -->
<g id="edge24" class="edge"><title>AS1299&#45;&gt;AS7018</title>
<path fill="none" stroke="black" stroke-width="2" d="M450.94,-72.2392C469.354,-62.0084 494.687,-47.9335 514.932,-36.6855"/>
<polygon fill="black" stroke="black" stroke-width="2" points="516.791,-39.6566 523.833,-31.7403 513.392,-33.5376 516.791,-39.6566"/>
</g>
<!-- AS1239 -->
<g id="node24" class="node"><title>AS1239</title>
<g id="a_node24"><a xlink:href="/asn/1239" xlink:title="AS1239 ~ Sprint [US]">
<ellipse fill="#ffffff" stroke="black" cx="549.564" cy="-72" rx="39.7935" ry="18"/>
<text text-anchor="middle" x="549.564" y="-68.3" font-family="Times,serif" font-size="14.00" fill="#2c94b3">AS1239</text>
</a>
</g>
</g>
<!-- AS1299&#45;&gt;AS1239 -->
<g id="edge25" class="edge"><title>AS1299&#45;&gt;AS1239</title>
<path fill="none" stroke="black" d="M463.892,-81.6853C475.525,-80.3546 488.493,-78.8714 500.713,-77.4735"/>
<polygon fill="black" stroke="black" points="501.22,-80.9384 510.758,-76.3245 500.425,-73.9838 501.22,-80.9384"/>
</g>
<!-- AS174&#45;&gt;AS3491 -->
<g id="edge33" class="edge"><title>AS174&#45;&gt;AS3491</title>
<path fill="none" stroke="black" d="M453.021,-313.084C496.096,-330.866 580.802,-365.835 630.179,-386.219"/>
<polygon fill="black" stroke="black" points="628.982,-389.511 639.561,-390.092 631.653,-383.041 628.982,-389.511"/>
</g>
<!-- AS701 -->
<g id="node27" class="node"><title>AS701</title>
<g id="a_node27"><a xlink:href="/asn/701" xlink:title="AS701 ~ UUNET [US]">
<ellipse fill="#ffffff" stroke="black" cx="549.564" cy="-164" rx="35.194" ry="18"/>
<text text-anchor="middle" x="549.564" y="-160.3" font-family="Times,serif" font-size="14.00" fill="#2c94b3">AS701</text>
</a>
</g>
</g>
<!-- AS174&#45;&gt;AS701 -->
<g id="edge34" class="edge"><title>AS174&#45;&gt;AS701</title>
<path fill="none" stroke="black" d="M451.471,-289.734C457.92,-285.717 464.419,-280.775 469.368,-275 495.798,-244.158 478.938,-221.842 505.368,-191 508.152,-187.751 511.426,-184.767 514.906,-182.062"/>
<polygon fill="black" stroke="black" points="517.041,-184.84 523.265,-176.266 513.052,-179.088 517.041,-184.84"/>
</g>
<!-- AS6762 -->
<g id="node21" class="node"><title>AS6762</title>
<g id="a_node21"><a xlink:href="/asn/6762" xlink:title="AS6762 ~ TELECOM ITALIA SPARKLE S.p.A. [IT]">
<ellipse fill="#ffffff" stroke="black" cx="549.564" cy="-456" rx="39.7935" ry="18"/>
<text text-anchor="middle" x="549.564" y="-452.3" font-family="Times,serif" font-size="14.00" fill="#2c94b3">AS6762</text>
</a>
</g>
</g>
<!-- AS25255&#45;&gt;AS6762 -->
<g id="edge21" class="edge"><title>AS25255&#45;&gt;AS6762</title>
<path fill="none" stroke="black" d="M468.979,-450.798C479.009,-451.454 489.765,-452.157 500.025,-452.827"/>
<polygon fill="black" stroke="black" points="499.868,-456.324 510.075,-453.484 500.324,-449.339 499.868,-456.324"/>
</g>
<!-- AS33891&#45;&gt;AS3257 -->
<g id="edge27" class="edge"><title>AS33891&#45;&gt;AS3257</title>
<path fill="none" stroke="black" d="M468.979,-396.798C479.009,-397.454 489.765,-398.157 500.025,-398.827"/>
<polygon fill="black" stroke="black" points="499.868,-402.324 510.075,-399.484 500.324,-395.339 499.868,-402.324"/>
</g>
<!-- AS3320&#45;&gt;AS1239 -->
<g id="edge40" class="edge"><title>AS3320&#45;&gt;AS1239</title>
<path fill="none" stroke="black" d="M450.94,-126.239C469.354,-116.008 494.687,-101.934 514.932,-90.6855"/>
<polygon fill="black" stroke="black" points="516.791,-93.6566 523.833,-85.7403 513.392,-87.5376 516.791,-93.6566"/>
</g>
<!-- AS3320&#45;&gt;AS701 -->
<g id="edge39" class="edge"><title>AS3320&#45;&gt;AS701</title>
<path fill="none" stroke="black" d="M461.902,-147.006C475.755,-149.723 491.728,-152.855 506.158,-155.685"/>
<polygon fill="black" stroke="black" points="505.853,-159.191 516.339,-157.681 507.2,-152.322 505.853,-159.191"/>
</g>
<!-- AS56308&#45;&gt;AS2497 -->
<g id="edge43" class="edge"><title>AS56308&#45;&gt;AS2497</title>
<path fill="none" stroke="black" d="M460.822,-529.082C508.461,-513.947 588.899,-487.891 593.76,-483 629.428,-447.114 604.06,-418.583 629.76,-375 633.566,-368.545 638.496,-362.239 643.554,-356.556"/>
<polygon fill="black" stroke="black" points="646.135,-358.921 650.436,-349.239 641.036,-354.125 646.135,-358.921"/>
</g>
<!-- AS56308&#45;&gt;AS6762 -->
<g id="edge44" class="edge"><title>AS56308&#45;&gt;AS6762</title>
<path fill="none" stroke="black" d="M448.62,-524.593C468.151,-511.189 496.627,-491.646 518.191,-476.845"/>
<polygon fill="black" stroke="black" points="520.405,-479.571 526.67,-471.027 516.444,-473.8 520.405,-479.571"/>
</g>
<!-- AS56308&#45;&gt;AS3491 -->
<g id="edge42" class="edge"><title>AS56308&#45;&gt;AS3491</title>
<path fill="none" stroke="black" d="M468.726,-543.223C504.737,-543.894 556.315,-539.825 593.76,-516 625.617,-495.731 646.767,-456.422 658.177,-429.694"/>
<polygon fill="black" stroke="black" points="661.541,-430.714 662.075,-420.133 655.059,-428.071 661.541,-430.714"/>
</g>
</g>
</svg>
