<?xml version="1.0" encoding="UTF-8" standalone="no"?>
<!DOCTYPE svg PUBLIC "-//W3C//DTD SVG 1.1//EN"
 "http://www.w3.org/Graphics/SVG/1.1/DTD/svg11.dtd">
<!-- Generated by graphviz version 2.38.0 (20140413.2041)
 -->
<!-- Title: AS201612 IPv6 Upstream Graph Pages: 1 -->
<svg width="832pt" height="590pt"
 viewBox="0.00 0.00 832.35 590.00" xmlns="http://www.w3.org/2000/svg" xmlns:xlink="http://www.w3.org/1999/xlink">
<g id="graph0" class="graph" transform="scale(1 1) rotate(0) translate(4 586)">
<title>AS201612 IPv6 Upstream Graph</title>
<polygon fill="white" stroke="none" points="-4,4 -4,-586 828.346,-586 828.346,4 -4,4"/>
<!-- AS201612 -->
<g id="node1" class="node"><title>AS201612</title>
<g id="a_node1"><a xlink:href="/asn/201612" xlink:title="AS201612 ~ nic.at GmbH [AT]">
<ellipse fill="#ffffff" stroke="black" cx="48.0957" cy="-272" rx="48.1917" ry="18"/>
<text text-anchor="middle" x="48.0957" y="-268.3" font-family="Times,serif" font-size="14.00" fill="#880000">AS201612</text>
</a>
</g>
</g>
<!-- AS25795 -->
<g id="node2" class="node"><title>AS25795</title>
<g id="a_node2"><a xlink:href="/asn/25795" xlink:title="AS25795 ~ ARP NETWORKS, INC. [US]">
<ellipse fill="#ffffff" stroke="black" cx="176.388" cy="-372" rx="44.393" ry="18"/>
<text text-anchor="middle" x="176.388" y="-368.3" font-family="Times,serif" font-size="14.00" fill="#2c94b3">AS25795</text>
</a>
</g>
</g>
<!-- AS201612&#45;&gt;AS25795 -->
<g id="edge1" class="edge"><title>AS201612&#45;&gt;AS25795</title>
<path fill="none" stroke="black" stroke-width="2.04545" d="M69.6678,-288.289C90.8007,-305.023 123.842,-331.185 147.357,-349.805"/>
<polygon fill="black" stroke="black" stroke-width="2.04545" points="145.229,-352.585 155.242,-356.048 149.575,-347.097 145.229,-352.585"/>
</g>
<!-- AS30971 -->
<g id="node3" class="node"><title>AS30971</title>
<g id="a_node3"><a xlink:href="/asn/30971" xlink:title="AS30971 ~ Jakob&#45;Haringer&#45;Strasse 8 [AT]">
<ellipse fill="#ffffff" stroke="black" cx="176.388" cy="-218" rx="44.393" ry="18"/>
<text text-anchor="middle" x="176.388" y="-214.3" font-family="Times,serif" font-size="14.00" fill="#2c94b3">AS30971</text>
</a>
</g>
</g>
<!-- AS201612&#45;&gt;AS30971 -->
<g id="edge2" class="edge"><title>AS201612&#45;&gt;AS30971</title>
<path fill="none" stroke="black" stroke-width="2.86364" d="M80.6387,-258.513C97.2827,-251.396 117.873,-242.592 135.604,-235.011"/>
<polygon fill="black" stroke="black" stroke-width="2.86364" points="137.297,-238.093 145.116,-230.943 134.545,-231.657 137.297,-238.093"/>
</g>
<!-- AS36236 -->
<g id="node4" class="node"><title>AS36236</title>
<g id="a_node4"><a xlink:href="/asn/36236" xlink:title="AS36236 ~ NetActuate, Inc [US]">
<ellipse fill="#ffffff" stroke="black" cx="300.78" cy="-326" rx="44.393" ry="18"/>
<text text-anchor="middle" x="300.78" y="-322.3" font-family="Times,serif" font-size="14.00" fill="#2c94b3">AS36236</text>
</a>
</g>
</g>
<!-- AS201612&#45;&gt;AS36236 -->
<g id="edge3" class="edge"><title>AS201612&#45;&gt;AS36236</title>
<path fill="none" stroke="black" stroke-width="4.5" d="M90.2104,-280.857C134.338,-290.362 204.39,-305.452 251.205,-315.536"/>
<polygon fill="black" stroke="black" stroke-width="4.5" points="250.51,-319.415 261.115,-317.671 252.169,-311.716 250.51,-319.415"/>
</g>
<!-- AS47147 -->
<g id="node5" class="node"><title>AS47147</title>
<g id="a_node5"><a xlink:href="/asn/47147" xlink:title="AS47147 ~ ANEXIA Internetdienstleistungs GmbH [AT]">
<ellipse fill="#ffffff" stroke="black" cx="300.78" cy="-272" rx="44.393" ry="18"/>
<text text-anchor="middle" x="300.78" y="-268.3" font-family="Times,serif" font-size="14.00" fill="#2c94b3">AS47147</text>
</a>
</g>
</g>
<!-- AS201612&#45;&gt;AS47147 -->
<g id="edge4" class="edge"><title>AS201612&#45;&gt;AS47147</title>
<path fill="none" stroke="black" stroke-width="2.86364" d="M96.2475,-272C138.88,-272 201.605,-272 246.137,-272"/>
<polygon fill="black" stroke="black" stroke-width="2.86364" points="246.194,-275.5 256.194,-272 246.194,-268.5 246.194,-275.5"/>
</g>
<!-- AS58436 -->
<g id="node6" class="node"><title>AS58436</title>
<g id="a_node6"><a xlink:href="/asn/58436" xlink:title="AS58436 ~ SECUREAX PTE LTD [SG]">
<ellipse fill="#ffffff" stroke="black" cx="176.388" cy="-164" rx="44.393" ry="18"/>
<text text-anchor="middle" x="176.388" y="-160.3" font-family="Times,serif" font-size="14.00" fill="#2c94b3">AS58436</text>
</a>
</g>
</g>
<!-- AS201612&#45;&gt;AS58436 -->
<g id="edge5" class="edge"><title>AS201612&#45;&gt;AS58436</title>
<path fill="none" stroke="black" stroke-width="1.22727" d="M64.692,-254.769C80.7175,-237.57 106.839,-210.906 132.191,-191 135.148,-188.679 138.313,-186.384 141.536,-184.171"/>
<polygon fill="black" stroke="black" stroke-width="1.22727" points="143.666,-186.96 150.101,-178.542 139.822,-181.11 143.666,-186.96"/>
</g>
<!-- AS33597 -->
<g id="node7" class="node"><title>AS33597</title>
<g id="a_node7"><a xlink:href="/asn/33597" xlink:title="AS33597 ~ ATLANTIC&#45;METRO&#45;COMMUNICATIONS&#45;II&#45;INC [US]">
<ellipse fill="#ffffff" stroke="black" cx="300.78" cy="-380" rx="44.393" ry="18"/>
<text text-anchor="middle" x="300.78" y="-376.3" font-family="Times,serif" font-size="14.00" fill="#2c94b3">AS33597</text>
</a>
</g>
</g>
<!-- AS25795&#45;&gt;AS33597 -->
<g id="edge6" class="edge"><title>AS25795&#45;&gt;AS33597</title>
<path fill="none" stroke="black" stroke-width="4.5" d="M220.194,-374.798C228.716,-375.355 237.763,-375.946 246.584,-376.523"/>
<polygon fill="black" stroke="black" stroke-width="4.5" points="246.555,-380.467 256.79,-377.19 247.068,-372.609 246.555,-380.467"/>
</g>
<!-- AS1764 -->
<g id="node16" class="node"><title>AS1764</title>
<g id="a_node16"><a xlink:href="/asn/1764" xlink:title="AS1764 ~ NEXTLAYER&#45;AS [AT]">
<ellipse fill="#ffffff" stroke="black" cx="300.78" cy="-218" rx="39.7935" ry="18"/>
<text text-anchor="middle" x="300.78" y="-214.3" font-family="Times,serif" font-size="14.00" fill="#2c94b3">AS1764</text>
</a>
</g>
</g>
<!-- AS30971&#45;&gt;AS1764 -->
<g id="edge17" class="edge"><title>AS30971&#45;&gt;AS1764</title>
<path fill="none" stroke="black" stroke-width="4.5" d="M220.883,-218C230.572,-218 240.909,-218 250.802,-218"/>
<polygon fill="black" stroke="black" stroke-width="4.5" points="250.904,-221.938 260.904,-218 250.904,-214.063 250.904,-221.938"/>
</g>
<!-- AS8437 -->
<g id="node17" class="node"><title>AS8437</title>
<g id="a_node17"><a xlink:href="/asn/8437" xlink:title="AS8437 ~ Hutchison Drei Austria GmbH [AT]">
<ellipse fill="#ffffff" stroke="black" cx="300.78" cy="-68" rx="39.7935" ry="18"/>
<text text-anchor="middle" x="300.78" y="-64.3" font-family="Times,serif" font-size="14.00" fill="#2c94b3">AS8437</text>
</a>
</g>
</g>
<!-- AS30971&#45;&gt;AS8437 -->
<g id="edge18" class="edge"><title>AS30971&#45;&gt;AS8437</title>
<path fill="none" stroke="black" stroke-width="1.8" d="M204.327,-203.727C210.048,-200.018 215.799,-195.721 220.584,-191 249.566,-162.403 273.307,-121.388 287.005,-94.7212"/>
<polygon fill="black" stroke="black" stroke-width="1.8" points="290.228,-96.1026 291.589,-85.5955 283.973,-92.9608 290.228,-96.1026"/>
</g>
<!-- AS2914 -->
<g id="node8" class="node"><title>AS2914</title>
<g id="a_node8"><a xlink:href="/asn/2914" xlink:title="AS2914 ~ NTT America, Inc. [US]">
<ellipse fill="#ffffff" stroke="black" cx="425.172" cy="-380" rx="39.7935" ry="18"/>
<text text-anchor="middle" x="425.172" y="-376.3" font-family="Times,serif" font-size="14.00" fill="#2c94b3">AS2914</text>
</a>
</g>
</g>
<!-- AS36236&#45;&gt;AS2914 -->
<g id="edge28" class="edge"><title>AS36236&#45;&gt;AS2914</title>
<path fill="none" stroke="black" stroke-width="3.6" d="M331.407,-339.072C348.002,-346.393 368.861,-355.597 386.595,-363.421"/>
<polygon fill="black" stroke="black" stroke-width="3.6" points="385.516,-366.77 396.078,-367.605 388.342,-360.366 385.516,-366.77"/>
</g>
<!-- AS3257 -->
<g id="node9" class="node"><title>AS3257</title>
<g id="a_node9"><a xlink:href="/asn/3257" xlink:title="AS3257 ~ GTT [DE]">
<ellipse fill="#ffffff" stroke="black" cx="425.172" cy="-434" rx="39.7935" ry="18"/>
<text text-anchor="middle" x="425.172" y="-430.3" font-family="Times,serif" font-size="14.00" fill="#2c94b3">AS3257</text>
</a>
</g>
</g>
<!-- AS36236&#45;&gt;AS3257 -->
<g id="edge29" class="edge"><title>AS36236&#45;&gt;AS3257</title>
<path fill="none" stroke="black" stroke-width="1.8" d="M328.663,-340.329C334.388,-344.036 340.154,-348.318 344.976,-353 365.669,-373.094 360.282,-386.906 380.976,-407 383.821,-409.763 386.995,-412.386 390.295,-414.834"/>
<polygon fill="black" stroke="black" stroke-width="1.8" points="388.411,-417.786 398.643,-420.538 392.36,-412.006 388.411,-417.786"/>
</g>
<!-- AS174 -->
<g id="node23" class="node"><title>AS174</title>
<g id="a_node23"><a xlink:href="/asn/174" xlink:title="AS174 ~ Cogent Communications [US]">
<ellipse fill="#ffffff" stroke="black" cx="425.172" cy="-326" rx="35.194" ry="18"/>
<text text-anchor="middle" x="425.172" y="-322.3" font-family="Times,serif" font-size="14.00" fill="#2c94b3">AS174</text>
</a>
</g>
</g>
<!-- AS36236&#45;&gt;AS174 -->
<g id="edge30" class="edge"><title>AS36236&#45;&gt;AS174</title>
<path fill="none" stroke="black" stroke-width="4.5" d="M345.275,-326C356.533,-326 368.665,-326 379.959,-326"/>
<polygon fill="black" stroke="black" stroke-width="4.5" points="380.046,-329.938 390.046,-326 380.046,-322.063 380.046,-329.938"/>
</g>
<!-- AS47147&#45;&gt;AS2914 -->
<g id="edge35" class="edge"><title>AS47147&#45;&gt;AS2914</title>
<path fill="none" stroke="black" stroke-width="3" d="M328.663,-286.329C334.388,-290.036 340.154,-294.318 344.976,-299 365.669,-319.094 360.282,-332.906 380.976,-353 383.821,-355.763 386.995,-358.386 390.295,-360.834"/>
<polygon fill="black" stroke="black" stroke-width="3" points="388.411,-363.786 398.643,-366.538 392.36,-358.006 388.411,-363.786"/>
</g>
<!-- AS1299 -->
<g id="node11" class="node"><title>AS1299</title>
<g id="a_node11"><a xlink:href="/asn/1299" xlink:title="AS1299 ~ Telia Carrier [EU]">
<ellipse fill="#ffffff" stroke="black" cx="425.172" cy="-272" rx="39.7935" ry="18"/>
<text text-anchor="middle" x="425.172" y="-268.3" font-family="Times,serif" font-size="14.00" fill="#2c94b3">AS1299</text>
</a>
</g>
</g>
<!-- AS47147&#45;&gt;AS1299 -->
<g id="edge36" class="edge"><title>AS47147&#45;&gt;AS1299</title>
<path fill="none" stroke="black" stroke-width="2" d="M345.275,-272C354.964,-272 365.301,-272 375.194,-272"/>
<polygon fill="black" stroke="black" stroke-width="2" points="375.296,-275.5 385.296,-272 375.296,-268.5 375.296,-275.5"/>
</g>
<!-- AS3320 -->
<g id="node26" class="node"><title>AS3320</title>
<g id="a_node26"><a xlink:href="/asn/3320" xlink:title="AS3320 ~ DTAG [DE]">
<ellipse fill="#ffffff" stroke="black" cx="425.172" cy="-218" rx="39.7935" ry="18"/>
<text text-anchor="middle" x="425.172" y="-214.3" font-family="Times,serif" font-size="14.00" fill="#2c94b3">AS3320</text>
</a>
</g>
</g>
<!-- AS47147&#45;&gt;AS3320 -->
<g id="edge37" class="edge"><title>AS47147&#45;&gt;AS3320</title>
<path fill="none" stroke="black" stroke-width="2" d="M331.407,-258.928C348.002,-251.607 368.861,-242.403 386.595,-234.579"/>
<polygon fill="black" stroke="black" stroke-width="2" points="388.342,-237.634 396.078,-230.395 385.516,-231.23 388.342,-237.634"/>
</g>
<!-- AS56308 -->
<g id="node28" class="node"><title>AS56308</title>
<g id="a_node28"><a xlink:href="/asn/56308" xlink:title="AS56308 ~ TELIN&#45;NET&#45;SG [SG]">
<ellipse fill="#ffffff" stroke="black" cx="425.172" cy="-164" rx="44.393" ry="18"/>
<text text-anchor="middle" x="425.172" y="-160.3" font-family="Times,serif" font-size="14.00" fill="#2c94b3">AS56308</text>
</a>
</g>
</g>
<!-- AS58436&#45;&gt;AS56308 -->
<g id="edge41" class="edge"><title>AS58436&#45;&gt;AS56308</title>
<path fill="none" stroke="black" stroke-width="3" d="M220.656,-164C262.465,-164 325.894,-164 370.812,-164"/>
<polygon fill="black" stroke="black" stroke-width="3" points="370.953,-167.5 380.953,-164 370.953,-160.5 370.953,-167.5"/>
</g>
<!-- AS33597&#45;&gt;AS2914 -->
<g id="edge7" class="edge"><title>AS33597&#45;&gt;AS2914</title>
<path fill="none" stroke="black" stroke-width="2" d="M345.275,-380C354.964,-380 365.301,-380 375.194,-380"/>
<polygon fill="black" stroke="black" stroke-width="2" points="375.296,-383.5 385.296,-380 375.296,-376.5 375.296,-383.5"/>
</g>
<!-- AS33597&#45;&gt;AS3257 -->
<g id="edge8" class="edge"><title>AS33597&#45;&gt;AS3257</title>
<path fill="none" stroke="black" d="M331.407,-393.072C348.002,-400.393 368.861,-409.597 386.595,-417.421"/>
<polygon fill="black" stroke="black" points="385.516,-420.77 396.078,-421.605 388.342,-414.366 385.516,-420.77"/>
</g>
<!-- AS6939 -->
<g id="node10" class="node"><title>AS6939</title>
<g id="a_node10"><a xlink:href="/asn/6939" xlink:title="AS6939 ~ Hurricane Electric LLC [US]">
<ellipse fill="#ffffff" stroke="black" cx="669.407" cy="-564" rx="39.7935" ry="18"/>
<text text-anchor="middle" x="669.407" y="-560.3" font-family="Times,serif" font-size="14.00" fill="#2c94b3">AS6939</text>
</a>
</g>
</g>
<!-- AS33597&#45;&gt;AS6939 -->
<g id="edge9" class="edge"><title>AS33597&#45;&gt;AS6939</title>
<path fill="none" stroke="black" d="M315.112,-397.068C329.731,-414.886 354.635,-442.728 380.976,-461 456.94,-513.696 562.809,-542.397 622.577,-555.34"/>
<polygon fill="black" stroke="black" points="621.965,-558.788 632.472,-557.429 623.411,-551.939 621.965,-558.788"/>
</g>
<!-- AS33597&#45;&gt;AS1299 -->
<g id="edge10" class="edge"><title>AS33597&#45;&gt;AS1299</title>
<path fill="none" stroke="black" d="M328.663,-365.671C334.388,-361.964 340.154,-357.682 344.976,-353 365.669,-332.906 360.282,-319.094 380.976,-299 383.821,-296.237 386.995,-293.614 390.295,-291.166"/>
<polygon fill="black" stroke="black" points="392.36,-293.994 398.643,-285.462 388.411,-288.214 392.36,-293.994"/>
</g>
<!-- AS2497 -->
<g id="node12" class="node"><title>AS2497</title>
<g id="a_node12"><a xlink:href="/asn/2497" xlink:title="AS2497 ~ Internet Initiative Japan Inc. [JP]">
<ellipse fill="#ffffff" stroke="black" cx="784.7" cy="-499" rx="39.7935" ry="18"/>
<text text-anchor="middle" x="784.7" y="-495.3" font-family="Times,serif" font-size="14.00" fill="#2c94b3">AS2497</text>
</a>
</g>
</g>
<!-- AS2914&#45;&gt;AS2497 -->
<g id="edge11" class="edge"><title>AS2914&#45;&gt;AS2497</title>
<path fill="none" stroke="black" stroke-width="3" d="M451.701,-393.462C457.864,-397.362 464.165,-401.948 469.368,-407 490.061,-427.094 480.918,-445.697 505.368,-461 542.625,-484.319 665.398,-493.639 734.796,-497.113"/>
<polygon fill="black" stroke="black" stroke-width="3" points="734.887,-500.621 745.042,-497.603 735.221,-493.629 734.887,-500.621"/>
</g>
<!-- AS3491 -->
<g id="node13" class="node"><title>AS3491</title>
<g id="a_node13"><a xlink:href="/asn/3491" xlink:title="AS3491 ~ PCCW Global, Inc. [US]">
<ellipse fill="#ffffff" stroke="black" cx="549.564" cy="-326" rx="39.7935" ry="18"/>
<text text-anchor="middle" x="549.564" y="-322.3" font-family="Times,serif" font-size="14.00" fill="#2c94b3">AS3491</text>
</a>
</g>
</g>
<!-- AS2914&#45;&gt;AS3491 -->
<g id="edge12" class="edge"><title>AS2914&#45;&gt;AS3491</title>
<path fill="none" stroke="black" d="M454.251,-367.611C471.199,-360.134 492.996,-350.517 511.366,-342.412"/>
<polygon fill="black" stroke="black" points="512.879,-345.57 520.615,-338.331 510.054,-339.166 512.879,-345.57"/>
</g>
<!-- AS1273 -->
<g id="node14" class="node"><title>AS1273</title>
<g id="a_node14"><a xlink:href="/asn/1273" xlink:title="AS1273 ~ Vodafone Group PLC [EU]">
<ellipse fill="#ffffff" stroke="black" cx="549.564" cy="-380" rx="39.7935" ry="18"/>
<text text-anchor="middle" x="549.564" y="-376.3" font-family="Times,serif" font-size="14.00" fill="#2c94b3">AS1273</text>
</a>
</g>
</g>
<!-- AS2914&#45;&gt;AS1273 -->
<g id="edge13" class="edge"><title>AS2914&#45;&gt;AS1273</title>
<path fill="none" stroke="black" d="M464.898,-380C475.836,-380 487.886,-380 499.353,-380"/>
<polygon fill="black" stroke="black" points="499.67,-383.5 509.67,-380 499.67,-376.5 499.67,-383.5"/>
</g>
<!-- AS12956 -->
<g id="node15" class="node"><title>AS12956</title>
<g id="a_node15"><a xlink:href="/asn/12956" xlink:title="AS12956 ~ TELXIUS [ES]">
<ellipse fill="#ffffff" stroke="black" cx="549.564" cy="-434" rx="44.393" ry="18"/>
<text text-anchor="middle" x="549.564" y="-430.3" font-family="Times,serif" font-size="14.00" fill="#2c94b3">AS12956</text>
</a>
</g>
</g>
<!-- AS2914&#45;&gt;AS12956 -->
<g id="edge14" class="edge"><title>AS2914&#45;&gt;AS12956</title>
<path fill="none" stroke="black" d="M454.251,-392.389C470.567,-399.587 491.378,-408.769 509.297,-416.675"/>
<polygon fill="black" stroke="black" points="508.346,-420.081 518.908,-420.916 511.172,-413.677 508.346,-420.081"/>
</g>
<!-- AS3257&#45;&gt;AS2497 -->
<g id="edge15" class="edge"><title>AS3257&#45;&gt;AS2497</title>
<path fill="none" stroke="black" stroke-width="2" d="M441.628,-450.566C456.398,-465.105 480.101,-485.256 505.368,-494 583.19,-520.931 680.724,-514.226 737.251,-506.731"/>
<polygon fill="black" stroke="black" stroke-width="2" points="737.893,-510.175 747.315,-505.33 736.928,-503.242 737.893,-510.175"/>
</g>
<!-- AS6939&#45;&gt;AS2497 -->
<g id="edge16" class="edge"><title>AS6939&#45;&gt;AS2497</title>
<path fill="none" stroke="black" d="M694.711,-550.056C710.989,-540.717 732.625,-528.303 750.487,-518.055"/>
<polygon fill="black" stroke="black" points="752.504,-520.933 759.436,-512.921 749.02,-514.862 752.504,-520.933"/>
</g>
<!-- AS7018 -->
<g id="node25" class="node"><title>AS7018</title>
<g id="a_node25"><a xlink:href="/asn/7018" xlink:title="AS7018 ~ AT&amp;T Services, Inc. [US]">
<ellipse fill="#ffffff" stroke="black" cx="549.564" cy="-272" rx="39.7935" ry="18"/>
<text text-anchor="middle" x="549.564" y="-268.3" font-family="Times,serif" font-size="14.00" fill="#2c94b3">AS7018</text>
</a>
</g>
</g>
<!-- AS1299&#45;&gt;AS7018 -->
<g id="edge40" class="edge"><title>AS1299&#45;&gt;AS7018</title>
<path fill="none" stroke="black" d="M464.898,-272C475.836,-272 487.886,-272 499.353,-272"/>
<polygon fill="black" stroke="black" points="499.67,-275.5 509.67,-272 499.67,-268.5 499.67,-275.5"/>
</g>
<!-- AS1764&#45;&gt;AS2914 -->
<g id="edge21" class="edge"><title>AS1764&#45;&gt;AS2914</title>
<path fill="none" stroke="black" d="M328.751,-230.855C334.74,-234.72 340.599,-239.441 344.976,-245 376.274,-284.754 349.677,-313.246 380.976,-353 383.301,-355.953 386.044,-358.67 389.004,-361.147"/>
<polygon fill="black" stroke="black" points="387.063,-364.064 397.2,-367.145 391.196,-358.415 387.063,-364.064"/>
</g>
<!-- AS1764&#45;&gt;AS1299 -->
<g id="edge20" class="edge"><title>AS1764&#45;&gt;AS1299</title>
<path fill="none" stroke="black" d="M329.859,-230.389C346.807,-237.866 368.604,-247.483 386.974,-255.588"/>
<polygon fill="black" stroke="black" points="385.661,-258.834 396.223,-259.669 388.487,-252.43 385.661,-258.834"/>
</g>
<!-- AS3356 -->
<g id="node18" class="node"><title>AS3356</title>
<g id="a_node18"><a xlink:href="/asn/3356" xlink:title="AS3356 ~ Level 3 Parent, LLC [US]">
<ellipse fill="#ffffff" stroke="black" cx="669.407" cy="-64" rx="39.7935" ry="18"/>
<text text-anchor="middle" x="669.407" y="-60.3" font-family="Times,serif" font-size="14.00" fill="#2c94b3">AS3356</text>
</a>
</g>
</g>
<!-- AS1764&#45;&gt;AS3356 -->
<g id="edge19" class="edge"><title>AS1764&#45;&gt;AS3356</title>
<path fill="none" stroke="black" stroke-width="3" d="M315.088,-200.896C329.686,-183.05 354.574,-155.183 380.976,-137 430.613,-102.814 447.167,-98.6566 505.368,-83 542.863,-72.9135 586.631,-68.1815 619.373,-65.9617"/>
<polygon fill="black" stroke="black" stroke-width="3" points="619.831,-69.44 629.594,-65.3256 619.396,-62.4535 619.831,-69.44"/>
</g>
<!-- AS25255 -->
<g id="node20" class="node"><title>AS25255</title>
<g id="a_node20"><a xlink:href="/asn/25255" xlink:title="AS25255 ~ ==&gt; TELE2 AUSTRIA &lt;== [AT]">
<ellipse fill="#ffffff" stroke="black" cx="425.172" cy="-18" rx="44.393" ry="18"/>
<text text-anchor="middle" x="425.172" y="-14.3" font-family="Times,serif" font-size="14.00" fill="#2c94b3">AS25255</text>
</a>
</g>
</g>
<!-- AS8437&#45;&gt;AS25255 -->
<g id="edge24" class="edge"><title>AS8437&#45;&gt;AS25255</title>
<path fill="none" stroke="black" stroke-width="2" d="M330.785,-56.1507C346.65,-49.6693 366.551,-41.5394 383.901,-34.4516"/>
<polygon fill="black" stroke="black" stroke-width="2" points="385.302,-37.6603 393.235,-30.6383 382.654,-31.1801 385.302,-37.6603"/>
</g>
<!-- AS3356&#45;&gt;AS2497 -->
<g id="edge23" class="edge"><title>AS3356&#45;&gt;AS2497</title>
<path fill="none" stroke="black" d="M675.059,-81.8635C692.611,-149.254 754.899,-388.417 776.365,-470.839"/>
<polygon fill="black" stroke="black" points="773.038,-471.951 778.945,-480.746 779.812,-470.187 773.038,-471.951"/>
</g>
<!-- AS209 -->
<g id="node19" class="node"><title>AS209</title>
<g id="a_node19"><a xlink:href="/asn/209" xlink:title="AS209 ~ CenturyLink Communications, LLC [US]">
<ellipse fill="#ffffff" stroke="black" cx="784.7" cy="-64" rx="35.194" ry="18"/>
<text text-anchor="middle" x="784.7" y="-60.3" font-family="Times,serif" font-size="14.00" fill="#2c94b3">AS209</text>
</a>
</g>
</g>
<!-- AS3356&#45;&gt;AS209 -->
<g id="edge22" class="edge"><title>AS3356&#45;&gt;AS209</title>
<path fill="none" stroke="black" stroke-width="2" d="M709.079,-64C718.784,-64 729.275,-64 739.238,-64"/>
<polygon fill="black" stroke="black" stroke-width="2" points="739.374,-67.5001 749.374,-64 739.374,-60.5001 739.374,-67.5001"/>
</g>
<!-- AS6762 -->
<g id="node21" class="node"><title>AS6762</title>
<g id="a_node21"><a xlink:href="/asn/6762" xlink:title="AS6762 ~ TELECOM ITALIA SPARKLE S.p.A. [IT]">
<ellipse fill="#ffffff" stroke="black" cx="549.564" cy="-110" rx="39.7935" ry="18"/>
<text text-anchor="middle" x="549.564" y="-106.3" font-family="Times,serif" font-size="14.00" fill="#2c94b3">AS6762</text>
</a>
</g>
</g>
<!-- AS25255&#45;&gt;AS6762 -->
<g id="edge25" class="edge"><title>AS25255&#45;&gt;AS6762</title>
<path fill="none" stroke="black" d="M447.212,-33.8154C467.333,-48.9398 497.823,-71.8586 520.106,-88.6084"/>
<polygon fill="black" stroke="black" points="518.109,-91.4858 528.205,-94.6967 522.315,-85.8903 518.109,-91.4858"/>
</g>
<!-- AS8447 -->
<g id="node22" class="node"><title>AS8447</title>
<g id="a_node22"><a xlink:href="/asn/8447" xlink:title="AS8447 ~ A1 Telekom Austria AG [AT]">
<ellipse fill="#ffffff" stroke="black" cx="549.564" cy="-18" rx="39.7935" ry="18"/>
<text text-anchor="middle" x="549.564" y="-14.3" font-family="Times,serif" font-size="14.00" fill="#2c94b3">AS8447</text>
</a>
</g>
</g>
<!-- AS25255&#45;&gt;AS8447 -->
<g id="edge26" class="edge"><title>AS25255&#45;&gt;AS8447</title>
<path fill="none" stroke="black" d="M469.667,-18C479.356,-18 489.693,-18 499.586,-18"/>
<polygon fill="black" stroke="black" points="499.689,-21.5001 509.689,-18 499.689,-14.5001 499.689,-21.5001"/>
</g>
<!-- AS8447&#45;&gt;AS3356 -->
<g id="edge27" class="edge"><title>AS8447&#45;&gt;AS3356</title>
<path fill="none" stroke="black" d="M580.301,-29.6077C595.094,-35.3825 613.172,-42.439 629.093,-48.654"/>
<polygon fill="black" stroke="black" points="628.091,-52.02 638.679,-52.396 630.637,-45.4992 628.091,-52.02"/>
</g>
<!-- AS174&#45;&gt;AS3491 -->
<g id="edge33" class="edge"><title>AS174&#45;&gt;AS3491</title>
<path fill="none" stroke="black" d="M460.591,-326C472.641,-326 486.418,-326 499.435,-326"/>
<polygon fill="black" stroke="black" points="499.665,-329.5 509.665,-326 499.665,-322.5 499.665,-329.5"/>
</g>
<!-- AS174&#45;&gt;AS1273 -->
<g id="edge34" class="edge"><title>AS174&#45;&gt;AS1273</title>
<path fill="none" stroke="black" d="M452.428,-337.584C469.613,-345.167 492.327,-355.188 511.361,-363.586"/>
<polygon fill="black" stroke="black" points="510.087,-366.849 520.649,-367.684 512.913,-360.445 510.087,-366.849"/>
</g>
<!-- AS701 -->
<g id="node24" class="node"><title>AS701</title>
<g id="a_node24"><a xlink:href="/asn/701" xlink:title="AS701 ~ UUNET [US]">
<ellipse fill="#ffffff" stroke="black" cx="549.564" cy="-218" rx="35.194" ry="18"/>
<text text-anchor="middle" x="549.564" y="-214.3" font-family="Times,serif" font-size="14.00" fill="#2c94b3">AS701</text>
</a>
</g>
</g>
<!-- AS174&#45;&gt;AS701 -->
<g id="edge31" class="edge"><title>AS174&#45;&gt;AS701</title>
<path fill="none" stroke="black" d="M450.351,-313.383C456.936,-309.306 463.785,-304.422 469.368,-299 490.061,-278.906 484.675,-265.094 505.368,-245 508.596,-241.866 512.247,-238.911 516.025,-236.188"/>
<polygon fill="black" stroke="black" points="518.004,-239.075 524.385,-230.617 514.122,-233.25 518.004,-239.075"/>
</g>
<!-- AS174&#45;&gt;AS7018 -->
<g id="edge32" class="edge"><title>AS174&#45;&gt;AS7018</title>
<path fill="none" stroke="black" d="M452.428,-314.416C469.613,-306.833 492.327,-296.812 511.361,-288.414"/>
<polygon fill="black" stroke="black" points="512.913,-291.555 520.649,-284.316 510.087,-285.151 512.913,-291.555"/>
</g>
<!-- AS3320&#45;&gt;AS701 -->
<g id="edge38" class="edge"><title>AS3320&#45;&gt;AS701</title>
<path fill="none" stroke="black" d="M464.898,-218C477.386,-218 491.325,-218 504.189,-218"/>
<polygon fill="black" stroke="black" points="504.227,-221.5 514.227,-218 504.227,-214.5 504.227,-221.5"/>
</g>
<!-- AS6453 -->
<g id="node27" class="node"><title>AS6453</title>
<g id="a_node27"><a xlink:href="/asn/6453" xlink:title="AS6453 ~ TATA COMMUNICATIONS (AMERICA) INC [US]">
<ellipse fill="#ffffff" stroke="black" cx="549.564" cy="-164" rx="39.7935" ry="18"/>
<text text-anchor="middle" x="549.564" y="-160.3" font-family="Times,serif" font-size="14.00" fill="#2c94b3">AS6453</text>
</a>
</g>
</g>
<!-- AS3320&#45;&gt;AS6453 -->
<g id="edge39" class="edge"><title>AS3320&#45;&gt;AS6453</title>
<path fill="none" stroke="black" d="M454.251,-205.611C471.199,-198.134 492.996,-188.517 511.366,-180.412"/>
<polygon fill="black" stroke="black" points="512.879,-183.57 520.615,-176.331 510.054,-177.166 512.879,-183.57"/>
</g>
<!-- AS56308&#45;&gt;AS3491 -->
<g id="edge42" class="edge"><title>AS56308&#45;&gt;AS3491</title>
<path fill="none" stroke="black" d="M454.488,-177.739C460.002,-181.433 465.32,-185.858 469.368,-191 500.667,-230.754 474.069,-259.246 505.368,-299 507.693,-301.953 510.437,-304.67 513.396,-307.147"/>
<polygon fill="black" stroke="black" points="511.455,-310.064 521.592,-313.145 515.589,-304.415 511.455,-310.064"/>
</g>
<!-- AS56308&#45;&gt;AS6762 -->
<g id="edge43" class="edge"><title>AS56308&#45;&gt;AS6762</title>
<path fill="none" stroke="black" d="M455.8,-150.928C472.394,-143.607 493.253,-134.403 510.987,-126.579"/>
<polygon fill="black" stroke="black" points="512.734,-129.634 520.47,-122.395 509.908,-123.23 512.734,-129.634"/>
</g>
<!-- AS56308&#45;&gt;AS6453 -->
<g id="edge44" class="edge"><title>AS56308&#45;&gt;AS6453</title>
<path fill="none" stroke="black" d="M469.667,-164C479.356,-164 489.693,-164 499.586,-164"/>
<polygon fill="black" stroke="black" points="499.689,-167.5 509.689,-164 499.689,-160.5 499.689,-167.5"/>
</g>
</g>
</svg>
