<?xml version="1.0" encoding="UTF-8" standalone="no"?>
<!DOCTYPE svg PUBLIC "-//W3C//DTD SVG 1.1//EN"
 "http://www.w3.org/Graphics/SVG/1.1/DTD/svg11.dtd">
<!-- Generated by graphviz version 2.38.0 (20140413.2041)
 -->
<!-- Title: AS200939 Combined Upstream Graph Pages: 1 -->
<svg width="955pt" height="827pt"
 viewBox="0.00 0.00 955.44 827.34" xmlns="http://www.w3.org/2000/svg" xmlns:xlink="http://www.w3.org/1999/xlink">
<g id="graph0" class="graph" transform="scale(1 1) rotate(0) translate(4 823.342)">
<title>AS200939 Combined Upstream Graph</title>
<polygon fill="white" stroke="none" points="-4,4 -4,-823.342 951.438,-823.342 951.438,4 -4,4"/>
<!-- AS200939 -->
<g id="node1" class="node"><title>AS200939</title>
<g id="a_node1"><a xlink:href="/asn/200939" xlink:title="AS200939 ~ LUKOIL Technology Services GmbH [AT]">
<ellipse fill="#ffffff" stroke="black" cx="48.0957" cy="-332" rx="48.1917" ry="18"/>
<text text-anchor="middle" x="48.0957" y="-328.3" font-family="Times,serif" font-size="14.00" fill="#880000">AS200939</text>
</a>
</g>
</g>
<!-- AS57588 -->
<g id="node2" class="node"><title>AS57588</title>
<g id="a_node2"><a xlink:href="/asn/57588" xlink:title="AS57588 ~ HAYAT&#45;ISP&#45;ASN [IQ]">
<ellipse fill="#ffffff" stroke="black" cx="176.388" cy="-332" rx="44.393" ry="18"/>
<text text-anchor="middle" x="176.388" y="-328.3" font-family="Times,serif" font-size="14.00" fill="#2c94b3">AS57588</text>
</a>
</g>
</g>
<!-- AS200939&#45;&gt;AS57588 -->
<g id="edge1" class="edge"><title>AS200939&#45;&gt;AS57588</title>
<path fill="none" stroke="black" stroke-width="4.5" d="M96.4815,-332C104.742,-332 113.386,-332 121.799,-332"/>
<polygon fill="black" stroke="black" stroke-width="4.5" points="121.904,-335.938 131.904,-332 121.904,-328.063 121.904,-335.938"/>
</g>
<!-- AS208293 -->
<g id="node3" class="node"><title>AS208293</title>
<g id="a_node3"><a xlink:href="/asn/208293" xlink:title="AS208293 ~ alsalam state company [IQ]">
<ellipse fill="#ffffff" stroke="black" cx="304.679" cy="-332" rx="48.1917" ry="18"/>
<text text-anchor="middle" x="304.679" y="-328.3" font-family="Times,serif" font-size="14.00" fill="#2c94b3">AS208293</text>
</a>
</g>
</g>
<!-- AS57588&#45;&gt;AS208293 -->
<g id="edge2" class="edge"><title>AS57588&#45;&gt;AS208293</title>
<path fill="none" stroke="black" stroke-width="4.5" d="M220.85,-332C228.966,-332 237.564,-332 246.03,-332"/>
<polygon fill="black" stroke="black" stroke-width="4.5" points="246.249,-335.938 256.249,-332 246.249,-328.063 246.249,-335.938"/>
</g>
<!-- AS21277 -->
<g id="node4" class="node"><title>AS21277</title>
<g id="a_node4"><a xlink:href="/asn/21277" xlink:title="AS21277 ~ Newroz&#45;Telecom&#45;ASN [IQ]">
<ellipse fill="#ffffff" stroke="black" cx="432.971" cy="-359" rx="44.393" ry="18"/>
<text text-anchor="middle" x="432.971" y="-355.3" font-family="Times,serif" font-size="14.00" fill="#2c94b3">AS21277</text>
</a>
</g>
</g>
<!-- AS208293&#45;&gt;AS21277 -->
<g id="edge3" class="edge"><title>AS208293&#45;&gt;AS21277</title>
<path fill="none" stroke="black" stroke-width="4.5" d="M347.032,-340.841C358.722,-343.34 371.547,-346.082 383.61,-348.661"/>
<polygon fill="black" stroke="black" stroke-width="4.5" points="382.92,-352.54 393.522,-350.78 384.566,-344.839 382.92,-352.54"/>
</g>
<!-- AS39386 -->
<g id="node5" class="node"><title>AS39386</title>
<g id="a_node5"><a xlink:href="/asn/39386" xlink:title="AS39386 ~ Saudi Telecom Company JSC [SA]">
<ellipse fill="#ffffff" stroke="black" cx="432.971" cy="-305" rx="44.393" ry="18"/>
<text text-anchor="middle" x="432.971" y="-301.3" font-family="Times,serif" font-size="14.00" fill="#2c94b3">AS39386</text>
</a>
</g>
</g>
<!-- AS208293&#45;&gt;AS39386 -->
<g id="edge4" class="edge"><title>AS208293&#45;&gt;AS39386</title>
<path fill="none" stroke="black" stroke-width="3.68182" d="M347.032,-323.159C358.722,-320.66 371.547,-317.918 383.61,-315.339"/>
<polygon fill="black" stroke="black" stroke-width="3.68182" points="384.475,-318.733 393.522,-313.22 383.011,-311.888 384.475,-318.733"/>
</g>
<!-- AS174 -->
<g id="node6" class="node"><title>AS174</title>
<g id="a_node6"><a xlink:href="/asn/174" xlink:title="AS174 ~ Cogent Communications [US]">
<ellipse fill="#ffffff" stroke="black" cx="552.814" cy="-305" rx="35.194" ry="18"/>
<text text-anchor="middle" x="552.814" y="-301.3" font-family="Times,serif" font-size="14.00" fill="#2c94b3">AS174</text>
</a>
</g>
</g>
<!-- AS21277&#45;&gt;AS174 -->
<g id="edge5" class="edge"><title>AS21277&#45;&gt;AS174</title>
<path fill="none" stroke="black" stroke-width="3.75" d="M463.101,-345.652C479.318,-338.22 499.621,-328.917 516.71,-321.086"/>
<polygon fill="black" stroke="black" stroke-width="3.75" points="518.194,-324.256 525.827,-316.908 515.278,-317.892 518.194,-324.256"/>
</g>
<!-- AS3356 -->
<g id="node7" class="node"><title>AS3356</title>
<g id="a_node7"><a xlink:href="/asn/3356" xlink:title="AS3356 ~ Level 3 Parent, LLC [US]">
<ellipse fill="#ffffff" stroke="black" cx="552.814" cy="-581" rx="39.7935" ry="18"/>
<text text-anchor="middle" x="552.814" y="-577.3" font-family="Times,serif" font-size="14.00" fill="#2c94b3">AS3356</text>
</a>
</g>
</g>
<!-- AS21277&#45;&gt;AS3356 -->
<g id="edge6" class="edge"><title>AS21277&#45;&gt;AS3356</title>
<path fill="none" stroke="black" stroke-width="4.5" d="M443.416,-376.792C464.066,-415.695 513.333,-508.507 537.688,-554.389"/>
<polygon fill="black" stroke="black" stroke-width="4.5" points="534.321,-556.445 542.488,-563.432 541.277,-552.753 534.321,-556.445"/>
</g>
<!-- AS39386&#45;&gt;AS174 -->
<g id="edge30" class="edge"><title>AS39386&#45;&gt;AS174</title>
<path fill="none" stroke="black" stroke-width="4.5" d="M477.182,-305C487.03,-305 497.51,-305 507.407,-305"/>
<polygon fill="black" stroke="black" stroke-width="4.5" points="507.459,-308.938 517.459,-305 507.459,-301.063 507.459,-308.938"/>
</g>
<!-- AS6762 -->
<g id="node10" class="node"><title>AS6762</title>
<g id="a_node10"><a xlink:href="/asn/6762" xlink:title="AS6762 ~ TELECOM ITALIA SPARKLE S.p.A. [IT]">
<ellipse fill="#ffffff" stroke="black" cx="672.656" cy="-424" rx="39.7935" ry="18"/>
<text text-anchor="middle" x="672.656" y="-420.3" font-family="Times,serif" font-size="14.00" fill="#2c94b3">AS6762</text>
</a>
</g>
</g>
<!-- AS39386&#45;&gt;AS6762 -->
<g id="edge28" class="edge"><title>AS39386&#45;&gt;AS6762</title>
<path fill="none" stroke="black" stroke-width="3.6" d="M461.702,-318.884C504.983,-340.553 588.558,-382.396 636.172,-406.234"/>
<polygon fill="black" stroke="black" stroke-width="3.6" points="634.684,-409.403 645.193,-410.751 637.818,-403.144 634.684,-409.403"/>
</g>
<!-- AS2914 -->
<g id="node13" class="node"><title>AS2914</title>
<g id="a_node13"><a xlink:href="/asn/2914" xlink:title="AS2914 ~ NTT America, Inc. [US]">
<ellipse fill="#ffffff" stroke="black" cx="792.499" cy="-424" rx="39.7935" ry="18"/>
<text text-anchor="middle" x="792.499" y="-420.3" font-family="Times,serif" font-size="14.00" fill="#2c94b3">AS2914</text>
</a>
</g>
</g>
<!-- AS39386&#45;&gt;AS2914 -->
<g id="edge27" class="edge"><title>AS39386&#45;&gt;AS2914</title>
<path fill="none" stroke="black" stroke-width="1.8" d="M447.608,-287.619C490.197,-235.403 623.452,-87.8041 716.852,-159 764.873,-195.604 736.486,-231.88 752.852,-290 763.165,-326.623 775.379,-368.775 783.274,-395.869"/>
<polygon fill="black" stroke="black" stroke-width="1.8" points="780.015,-397.195 786.175,-405.815 786.735,-395.234 780.015,-397.195"/>
</g>
<!-- AS1299 -->
<g id="node14" class="node"><title>AS1299</title>
<g id="a_node14"><a xlink:href="/asn/1299" xlink:title="AS1299 ~ Telia Carrier [EU]">
<ellipse fill="#ffffff" stroke="black" cx="672.656" cy="-478" rx="39.7935" ry="18"/>
<text text-anchor="middle" x="672.656" y="-474.3" font-family="Times,serif" font-size="14.00" fill="#2c94b3">AS1299</text>
</a>
</g>
</g>
<!-- AS39386&#45;&gt;AS1299 -->
<g id="edge29" class="edge"><title>AS39386&#45;&gt;AS1299</title>
<path fill="none" stroke="black" stroke-width="3.6" d="M460.178,-319.277C466.06,-323.04 472.063,-327.359 477.167,-332 496.635,-349.701 493.697,-361.302 513.167,-379 550.801,-413.208 601.774,-442.644 635.637,-460.325"/>
<polygon fill="black" stroke="black" stroke-width="3.6" points="634.217,-463.53 644.71,-464.994 637.42,-457.306 634.217,-463.53"/>
</g>
<!-- AS5511 -->
<g id="node22" class="node"><title>AS5511</title>
<g id="a_node22"><a xlink:href="/asn/5511" xlink:title="AS5511 ~ Orange S.A. [FR]">
<ellipse fill="#ffffff" stroke="black" cx="672.656" cy="-18" rx="39.7935" ry="18"/>
<text text-anchor="middle" x="672.656" y="-14.3" font-family="Times,serif" font-size="14.00" fill="#2c94b3">AS5511</text>
</a>
</g>
</g>
<!-- AS39386&#45;&gt;AS5511 -->
<g id="edge31" class="edge"><title>AS39386&#45;&gt;AS5511</title>
<path fill="none" stroke="black" stroke-width="2.7" d="M433.743,-286.941C434.2,-240.118 442.291,-113.999 513.167,-50 542.716,-23.3188 588.169,-16.3793 622.835,-15.4965"/>
<polygon fill="black" stroke="black" stroke-width="2.7" points="623.25,-18.993 633.218,-15.4018 623.186,-11.9932 623.25,-18.993"/>
</g>
<!-- AS3491 -->
<g id="node8" class="node"><title>AS3491</title>
<g id="a_node8"><a xlink:href="/asn/3491" xlink:title="AS3491 ~ PCCW Global, Inc. [US]">
<ellipse fill="#ffffff" stroke="black" cx="672.656" cy="-186" rx="39.7935" ry="18"/>
<text text-anchor="middle" x="672.656" y="-182.3" font-family="Times,serif" font-size="14.00" fill="#2c94b3">AS3491</text>
</a>
</g>
</g>
<!-- AS174&#45;&gt;AS3491 -->
<g id="edge7" class="edge"><title>AS174&#45;&gt;AS3491</title>
<path fill="none" stroke="black" stroke-width="2" d="M565.034,-287.974C578.514,-268.355 602.571,-235.886 628.46,-213 631.432,-210.373 634.687,-207.838 638.037,-205.444"/>
<polygon fill="black" stroke="black" stroke-width="2" points="640.088,-208.282 646.447,-199.807 636.191,-202.467 640.088,-208.282"/>
</g>
<!-- AS3257 -->
<g id="node9" class="node"><title>AS3257</title>
<g id="a_node9"><a xlink:href="/asn/3257" xlink:title="AS3257 ~ GTT [DE]">
<ellipse fill="#ffffff" stroke="black" cx="672.656" cy="-370" rx="39.7935" ry="18"/>
<text text-anchor="middle" x="672.656" y="-366.3" font-family="Times,serif" font-size="14.00" fill="#2c94b3">AS3257</text>
</a>
</g>
</g>
<!-- AS174&#45;&gt;AS3257 -->
<g id="edge8" class="edge"><title>AS174&#45;&gt;AS3257</title>
<path fill="none" stroke="black" stroke-width="2" d="M577.378,-317.997C594.657,-327.528 618.374,-340.61 637.697,-351.269"/>
<polygon fill="black" stroke="black" stroke-width="2" points="636.057,-354.361 646.504,-356.126 639.438,-348.232 636.057,-354.361"/>
</g>
<!-- AS174&#45;&gt;AS6762 -->
<g id="edge9" class="edge"><title>AS174&#45;&gt;AS6762</title>
<path fill="none" stroke="black" d="M565.034,-322.026C578.514,-341.645 602.571,-374.114 628.46,-397 631.432,-399.627 634.687,-402.162 638.037,-404.556"/>
<polygon fill="black" stroke="black" points="636.191,-407.533 646.447,-410.193 640.088,-401.718 636.191,-407.533"/>
</g>
<!-- AS6461 -->
<g id="node11" class="node"><title>AS6461</title>
<g id="a_node11"><a xlink:href="/asn/6461" xlink:title="AS6461 ~ ZAYO&#45;6461 [US]">
<ellipse fill="#ffffff" stroke="black" cx="792.499" cy="-478" rx="39.7935" ry="18"/>
<text text-anchor="middle" x="792.499" y="-474.3" font-family="Times,serif" font-size="14.00" fill="#2c94b3">AS6461</text>
</a>
</g>
</g>
<!-- AS174&#45;&gt;AS6461 -->
<g id="edge10" class="edge"><title>AS174&#45;&gt;AS6461</title>
<path fill="none" stroke="black" stroke-width="2" d="M587.167,-308.909C629.165,-314.469 698.109,-325.92 716.852,-343 754.25,-377.08 722.581,-410.458 752.852,-451 754.597,-453.336 756.604,-455.545 758.768,-457.617"/>
<polygon fill="black" stroke="black" stroke-width="2" points="756.645,-460.405 766.568,-464.118 761.127,-455.027 756.645,-460.405"/>
</g>
<!-- AS1239 -->
<g id="node12" class="node"><title>AS1239</title>
<g id="a_node12"><a xlink:href="/asn/1239" xlink:title="AS1239 ~ Sprint [US]">
<ellipse fill="#ffffff" stroke="black" cx="792.499" cy="-102" rx="39.7935" ry="18"/>
<text text-anchor="middle" x="792.499" y="-98.3" font-family="Times,serif" font-size="14.00" fill="#2c94b3">AS1239</text>
</a>
</g>
</g>
<!-- AS174&#45;&gt;AS1239 -->
<g id="edge11" class="edge"><title>AS174&#45;&gt;AS1239</title>
<path fill="none" stroke="black" d="M556.685,-287.068C563.1,-253.111 581.866,-179.395 628.46,-141 660.453,-114.637 707.318,-105.537 742.601,-102.651"/>
<polygon fill="black" stroke="black" points="742.946,-106.136 752.686,-101.968 742.472,-99.1522 742.946,-106.136"/>
</g>
<!-- AS174&#45;&gt;AS2914 -->
<g id="edge12" class="edge"><title>AS174&#45;&gt;AS2914</title>
<path fill="none" stroke="black" d="M585.206,-297.842C619.806,-291.709 675.969,-287.085 716.852,-310 750.303,-328.749 771.32,-369.459 782.238,-396.803"/>
<polygon fill="black" stroke="black" points="778.987,-398.1 785.808,-406.207 785.531,-395.616 778.987,-398.1"/>
</g>
<!-- AS174&#45;&gt;AS1299 -->
<g id="edge13" class="edge"><title>AS174&#45;&gt;AS1299</title>
<path fill="none" stroke="black" d="M559.476,-323.027C569.478,-352.59 592.663,-411.983 628.46,-451 631.001,-453.77 633.889,-456.364 636.939,-458.764"/>
<polygon fill="black" stroke="black" points="635.077,-461.734 645.261,-464.654 639.12,-456.021 635.077,-461.734"/>
</g>
<!-- AS701 -->
<g id="node15" class="node"><title>AS701</title>
<g id="a_node15"><a xlink:href="/asn/701" xlink:title="AS701 ~ UUNET [US]">
<ellipse fill="#ffffff" stroke="black" cx="672.656" cy="-240" rx="35.194" ry="18"/>
<text text-anchor="middle" x="672.656" y="-236.3" font-family="Times,serif" font-size="14.00" fill="#2c94b3">AS701</text>
</a>
</g>
</g>
<!-- AS174&#45;&gt;AS701 -->
<g id="edge14" class="edge"><title>AS174&#45;&gt;AS701</title>
<path fill="none" stroke="black" stroke-width="2" d="M577.378,-292.003C595.121,-282.216 619.652,-268.685 639.243,-257.878"/>
<polygon fill="black" stroke="black" stroke-width="2" points="641.067,-260.87 648.133,-252.975 637.686,-254.74 641.067,-260.87"/>
</g>
<!-- AS6453 -->
<g id="node16" class="node"><title>AS6453</title>
<g id="a_node16"><a xlink:href="/asn/6453" xlink:title="AS6453 ~ TATA COMMUNICATIONS (AMERICA) INC [US]">
<ellipse fill="#ffffff" stroke="black" cx="792.499" cy="-263" rx="39.7935" ry="18"/>
<text text-anchor="middle" x="792.499" y="-259.3" font-family="Times,serif" font-size="14.00" fill="#2c94b3">AS6453</text>
</a>
</g>
</g>
<!-- AS174&#45;&gt;AS6453 -->
<g id="edge15" class="edge"><title>AS174&#45;&gt;AS6453</title>
<path fill="none" stroke="black" d="M556.837,-287.031C563.355,-254.683 582.079,-187.378 628.46,-159 661.971,-138.497 681.9,-141.064 716.852,-159 747.924,-174.945 768.976,-210.501 780.602,-235.584"/>
<polygon fill="black" stroke="black" points="777.495,-237.214 784.735,-244.949 783.899,-234.387 777.495,-237.214"/>
</g>
<!-- AS3356&#45;&gt;AS3257 -->
<g id="edge19" class="edge"><title>AS3356&#45;&gt;AS3257</title>
<path fill="none" stroke="black" d="M557.258,-562.86C564.754,-527.469 585.439,-448.204 628.46,-397 630.878,-394.122 633.684,-391.456 636.682,-389.01"/>
<polygon fill="black" stroke="black" points="638.871,-391.746 644.932,-383.057 634.775,-386.07 638.871,-391.746"/>
</g>
<!-- AS3356&#45;&gt;AS6762 -->
<g id="edge16" class="edge"><title>AS3356&#45;&gt;AS6762</title>
<path fill="none" stroke="black" d="M560.682,-563.244C571.734,-536.428 595.599,-485.114 628.46,-451 631.068,-448.293 634,-445.741 637.077,-443.366"/>
<polygon fill="black" stroke="black" points="639.254,-446.115 645.439,-437.513 635.239,-440.381 639.254,-446.115"/>
</g>
<!-- AS3356&#45;&gt;AS6461 -->
<g id="edge23" class="edge"><title>AS3356&#45;&gt;AS6461</title>
<path fill="none" stroke="black" d="M589.38,-588.314C623.953,-593.561 676.942,-596.538 716.852,-576 746.27,-560.862 767.391,-528.237 779.501,-504.785"/>
<polygon fill="black" stroke="black" points="782.706,-506.2 783.992,-495.684 776.428,-503.103 782.706,-506.2"/>
</g>
<!-- AS3356&#45;&gt;AS2914 -->
<g id="edge20" class="edge"><title>AS3356&#45;&gt;AS2914</title>
<path fill="none" stroke="black" d="M592.576,-580.249C628.764,-577.562 682.245,-568.241 716.852,-538 748.363,-510.465 726.648,-483.626 752.852,-451 754.678,-448.727 756.744,-446.563 758.948,-444.523"/>
<polygon fill="black" stroke="black" points="761.3,-447.121 766.825,-438.081 756.869,-441.702 761.3,-447.121"/>
</g>
<!-- AS3356&#45;&gt;AS1299 -->
<g id="edge22" class="edge"><title>AS3356&#45;&gt;AS1299</title>
<path fill="none" stroke="black" d="M569.88,-564.608C584.646,-549.816 607.376,-527.723 628.46,-510 632.747,-506.397 637.397,-502.725 642.005,-499.214"/>
<polygon fill="black" stroke="black" points="644.248,-501.908 650.165,-493.119 640.059,-496.299 644.248,-501.908"/>
</g>
<!-- AS3356&#45;&gt;AS6453 -->
<g id="edge21" class="edge"><title>AS3356&#45;&gt;AS6453</title>
<path fill="none" stroke="black" d="M576.816,-566.426C591.311,-557.578 610.599,-546.408 628.46,-538 666.401,-520.14 688.075,-535.501 716.852,-505 724.429,-496.97 766.077,-352.536 783.661,-290.71"/>
<polygon fill="black" stroke="black" points="787.095,-291.427 786.46,-280.852 780.361,-289.516 787.095,-291.427"/>
</g>
<!-- AS2497 -->
<g id="node17" class="node"><title>AS2497</title>
<g id="a_node17"><a xlink:href="/asn/2497" xlink:title="AS2497 ~ Internet Initiative Japan Inc. [JP]">
<ellipse fill="#ffffff" stroke="black" cx="907.792" cy="-631" rx="39.7935" ry="18"/>
<text text-anchor="middle" x="907.792" y="-627.3" font-family="Times,serif" font-size="14.00" fill="#2c94b3">AS2497</text>
</a>
</g>
</g>
<!-- AS3356&#45;&gt;AS2497 -->
<g id="edge17" class="edge"><title>AS3356&#45;&gt;AS2497</title>
<path fill="none" stroke="black" d="M553.497,-599.009C553.83,-642.64 561.508,-753.946 628.46,-802 723.069,-869.904 844.979,-718.854 889.523,-656.415"/>
<polygon fill="black" stroke="black" points="892.393,-658.417 895.283,-648.224 886.668,-654.39 892.393,-658.417"/>
</g>
<!-- AS12956 -->
<g id="node18" class="node"><title>AS12956</title>
<g id="a_node18"><a xlink:href="/asn/12956" xlink:title="AS12956 ~ TELXIUS [ES]">
<ellipse fill="#ffffff" stroke="black" cx="672.656" cy="-754" rx="44.393" ry="18"/>
<text text-anchor="middle" x="672.656" y="-750.3" font-family="Times,serif" font-size="14.00" fill="#2c94b3">AS12956</text>
</a>
</g>
</g>
<!-- AS3356&#45;&gt;AS12956 -->
<g id="edge18" class="edge"><title>AS3356&#45;&gt;AS12956</title>
<path fill="none" stroke="black" d="M559.476,-599.027C569.478,-628.59 592.663,-687.983 628.46,-727 630.803,-729.554 633.441,-731.958 636.229,-734.199"/>
<polygon fill="black" stroke="black" points="634.204,-737.055 644.36,-740.071 638.302,-731.38 634.204,-737.055"/>
</g>
<!-- AS7018 -->
<g id="node19" class="node"><title>AS7018</title>
<g id="a_node19"><a xlink:href="/asn/7018" xlink:title="AS7018 ~ AT&amp;T Services, Inc. [US]">
<ellipse fill="#ffffff" stroke="black" cx="792.499" cy="-662" rx="39.7935" ry="18"/>
<text text-anchor="middle" x="792.499" y="-658.3" font-family="Times,serif" font-size="14.00" fill="#2c94b3">AS7018</text>
</a>
</g>
</g>
<!-- AS3356&#45;&gt;AS7018 -->
<g id="edge24" class="edge"><title>AS3356&#45;&gt;AS7018</title>
<path fill="none" stroke="black" d="M554.211,-599.15C556.203,-639.946 567.417,-738.627 628.46,-781 660.733,-803.402 682.476,-800.016 716.852,-781 751.824,-761.655 772.611,-718.313 783.042,-689.625"/>
<polygon fill="black" stroke="black" points="786.482,-690.385 786.424,-679.79 779.863,-688.108 786.482,-690.385"/>
</g>
<!-- AS3549 -->
<g id="node20" class="node"><title>AS3549</title>
<g id="a_node20"><a xlink:href="/asn/3549" xlink:title="AS3549 ~ Level 3 Parent, LLC [US]">
<ellipse fill="#ffffff" stroke="black" cx="672.656" cy="-700" rx="39.7935" ry="18"/>
<text text-anchor="middle" x="672.656" y="-696.3" font-family="Times,serif" font-size="14.00" fill="#2c94b3">AS3549</text>
</a>
</g>
</g>
<!-- AS3356&#45;&gt;AS3549 -->
<g id="edge25" class="edge"><title>AS3356&#45;&gt;AS3549</title>
<path fill="none" stroke="black" d="M565.275,-598.378C578.8,-618.031 602.725,-650.25 628.46,-673 631.432,-675.627 634.687,-678.162 638.037,-680.556"/>
<polygon fill="black" stroke="black" points="636.191,-683.533 646.447,-686.193 640.088,-677.718 636.191,-683.533"/>
</g>
<!-- AS3320 -->
<g id="node21" class="node"><title>AS3320</title>
<g id="a_node21"><a xlink:href="/asn/3320" xlink:title="AS3320 ~ DTAG [DE]">
<ellipse fill="#ffffff" stroke="black" cx="672.656" cy="-646" rx="39.7935" ry="18"/>
<text text-anchor="middle" x="672.656" y="-642.3" font-family="Times,serif" font-size="14.00" fill="#2c94b3">AS3320</text>
</a>
</g>
</g>
<!-- AS3356&#45;&gt;AS3320 -->
<g id="edge26" class="edge"><title>AS3356&#45;&gt;AS3320</title>
<path fill="none" stroke="black" d="M578.805,-594.785C595.991,-604.264 619.019,-616.966 637.842,-627.349"/>
<polygon fill="black" stroke="black" points="636.254,-630.47 646.701,-632.235 639.635,-624.34 636.254,-630.47"/>
</g>
<!-- AS6762&#45;&gt;AS6461 -->
<g id="edge33" class="edge"><title>AS6762&#45;&gt;AS6461</title>
<path fill="none" stroke="black" d="M701.285,-436.661C717.242,-443.973 737.513,-453.261 754.795,-461.181"/>
<polygon fill="black" stroke="black" points="753.494,-464.435 764.043,-465.419 756.41,-458.071 753.494,-464.435"/>
</g>
<!-- AS6762&#45;&gt;AS2914 -->
<g id="edge34" class="edge"><title>AS6762&#45;&gt;AS2914</title>
<path fill="none" stroke="black" d="M712.569,-424C722.122,-424 732.472,-424 742.435,-424"/>
<polygon fill="black" stroke="black" points="742.627,-427.5 752.627,-424 742.627,-420.5 742.627,-427.5"/>
</g>
<!-- AS6762&#45;&gt;AS6453 -->
<g id="edge35" class="edge"><title>AS6762&#45;&gt;AS6453</title>
<path fill="none" stroke="black" d="M699.921,-410.532C705.931,-406.687 711.977,-402.127 716.852,-397 746.891,-365.408 769.036,-319.427 781.1,-290.377"/>
<polygon fill="black" stroke="black" points="784.444,-291.442 784.943,-280.859 777.953,-288.821 784.444,-291.442"/>
</g>
<!-- AS2914&#45;&gt;AS2497 -->
<g id="edge32" class="edge"><title>AS2914&#45;&gt;AS2497</title>
<path fill="none" stroke="black" d="M818.169,-438.083C823.259,-441.802 828.248,-446.152 832.145,-451 869.536,-497.518 890.842,-565.402 900.475,-603.114"/>
<polygon fill="black" stroke="black" points="897.097,-604.035 902.887,-612.908 903.894,-602.361 897.097,-604.035"/>
</g>
<!-- AS1299&#45;&gt;AS1239 -->
<g id="edge38" class="edge"><title>AS1299&#45;&gt;AS1239</title>
<path fill="none" stroke="black" d="M701.707,-465.311C707.513,-461.483 713.02,-456.736 716.852,-451 770.678,-370.441 731.393,-330.479 752.852,-236 761.28,-198.898 773.923,-156.855 782.43,-129.917"/>
<polygon fill="black" stroke="black" points="785.878,-130.625 785.58,-120.034 779.209,-128.499 785.878,-130.625"/>
</g>
<!-- AS1299&#45;&gt;AS2914 -->
<g id="edge36" class="edge"><title>AS1299&#45;&gt;AS2914</title>
<path fill="none" stroke="black" d="M701.285,-465.339C717.242,-458.027 737.513,-448.739 754.795,-440.819"/>
<polygon fill="black" stroke="black" points="756.41,-443.929 764.043,-436.581 753.494,-437.565 756.41,-443.929"/>
</g>
<!-- AS1299&#45;&gt;AS7018 -->
<g id="edge37" class="edge"><title>AS1299&#45;&gt;AS7018</title>
<path fill="none" stroke="black" d="M684.743,-495.31C705.536,-527.776 750.487,-597.963 774.903,-636.087"/>
<polygon fill="black" stroke="black" points="772.015,-638.068 780.356,-644.602 777.91,-634.293 772.015,-638.068"/>
</g>
<!-- AS5511&#45;&gt;AS1239 -->
<g id="edge40" class="edge"><title>AS5511&#45;&gt;AS1239</title>
<path fill="none" stroke="black" d="M694.724,-33.0175C713.46,-46.3727 741.051,-66.0401 761.984,-80.9611"/>
<polygon fill="black" stroke="black" points="760.041,-83.8748 770.216,-86.8293 764.105,-78.1747 760.041,-83.8748"/>
</g>
<!-- AS5511&#45;&gt;AS6453 -->
<g id="edge39" class="edge"><title>AS5511&#45;&gt;AS6453</title>
<path fill="none" stroke="black" d="M697.854,-32.0621C704.747,-37.0113 711.758,-43.0881 716.852,-50 739.153,-80.258 769.953,-184.793 783.988,-235.281"/>
<polygon fill="black" stroke="black" points="780.687,-236.478 786.719,-245.188 787.435,-234.617 780.687,-236.478"/>
</g>
</g>
</svg>
