<?xml version="1.0" encoding="UTF-8" standalone="no"?>
<!DOCTYPE svg PUBLIC "-//W3C//DTD SVG 1.1//EN"
 "http://www.w3.org/Graphics/SVG/1.1/DTD/svg11.dtd">
<!-- Generated by graphviz version 2.38.0 (20140413.2041)
 -->
<!-- Title: AS200939 Combined Upstream Graph Pages: 1 -->
<svg width="725pt" height="703pt"
 viewBox="0.00 0.00 724.85 703.00" xmlns="http://www.w3.org/2000/svg" xmlns:xlink="http://www.w3.org/1999/xlink">
<g id="graph0" class="graph" transform="scale(1 1) rotate(0) translate(4 699)">
<title>AS200939 Combined Upstream Graph</title>
<polygon fill="white" stroke="none" points="-4,4 -4,-699 720.852,-699 720.852,4 -4,4"/>
<!-- AS200939 -->
<g id="node1" class="node"><title>AS200939</title>
<g id="a_node1"><a xlink:href="/asn/200939" xlink:title="AS200939 ~ LUKOIL Technology Services GmbH [AT]">
<ellipse fill="#ffffff" stroke="black" cx="48.0957" cy="-455" rx="48.1917" ry="18"/>
<text text-anchor="middle" x="48.0957" y="-451.3" font-family="Times,serif" font-size="14.00" fill="#880000">AS200939</text>
</a>
</g>
</g>
<!-- AS50710 -->
<g id="node2" class="node"><title>AS50710</title>
<g id="a_node2"><a xlink:href="/asn/50710" xlink:title="AS50710 ~ EarthLink&#45;AS [IQ]">
<ellipse fill="#ffffff" stroke="black" cx="176.388" cy="-455" rx="44.393" ry="18"/>
<text text-anchor="middle" x="176.388" y="-451.3" font-family="Times,serif" font-size="14.00" fill="#2c94b3">AS50710</text>
</a>
</g>
</g>
<!-- AS200939&#45;&gt;AS50710 -->
<g id="edge1" class="edge"><title>AS200939&#45;&gt;AS50710</title>
<path fill="none" stroke="black" stroke-width="4.5" d="M96.4815,-455C104.742,-455 113.386,-455 121.799,-455"/>
<polygon fill="black" stroke="black" stroke-width="4.5" points="121.904,-458.938 131.904,-455 121.904,-451.063 121.904,-458.938"/>
</g>
<!-- AS205906 -->
<g id="node3" class="node"><title>AS205906</title>
<g id="a_node3"><a xlink:href="/asn/205906" xlink:title="AS205906 ~ SCIS [IQ]">
<ellipse fill="#ffffff" stroke="black" cx="304.679" cy="-455" rx="48.1917" ry="18"/>
<text text-anchor="middle" x="304.679" y="-451.3" font-family="Times,serif" font-size="14.00" fill="#2c94b3">AS205906</text>
</a>
</g>
</g>
<!-- AS50710&#45;&gt;AS205906 -->
<g id="edge2" class="edge"><title>AS50710&#45;&gt;AS205906</title>
<path fill="none" stroke="black" stroke-width="4.5" d="M220.85,-455C228.966,-455 237.564,-455 246.03,-455"/>
<polygon fill="black" stroke="black" stroke-width="4.5" points="246.249,-458.938 256.249,-455 246.249,-451.063 246.249,-458.938"/>
</g>
<!-- AS6762 -->
<g id="node4" class="node"><title>AS6762</title>
<g id="a_node4"><a xlink:href="/asn/6762" xlink:title="AS6762 ~ TELECOM ITALIA SPARKLE S.p.A. [IT]">
<ellipse fill="#ffffff" stroke="black" cx="432.971" cy="-365" rx="39.7935" ry="18"/>
<text text-anchor="middle" x="432.971" y="-361.3" font-family="Times,serif" font-size="14.00" fill="#2c94b3">AS6762</text>
</a>
</g>
</g>
<!-- AS205906&#45;&gt;AS6762 -->
<g id="edge3" class="edge"><title>AS205906&#45;&gt;AS6762</title>
<path fill="none" stroke="black" stroke-width="4.5" d="M327.967,-439.117C348.688,-424.351 379.695,-402.254 402.463,-386.028"/>
<polygon fill="black" stroke="black" stroke-width="4.5" points="404.889,-389.135 410.747,-380.125 400.318,-382.722 404.889,-389.135"/>
</g>
<!-- AS60051 -->
<g id="node5" class="node"><title>AS60051</title>
<g id="a_node5"><a xlink:href="/asn/60051" xlink:title="AS60051 ~ Earthlink&#45;dmcc [IQ]">
<ellipse fill="#ffffff" stroke="black" cx="432.971" cy="-546" rx="44.393" ry="18"/>
<text text-anchor="middle" x="432.971" y="-542.3" font-family="Times,serif" font-size="14.00" fill="#2c94b3">AS60051</text>
</a>
</g>
</g>
<!-- AS205906&#45;&gt;AS60051 -->
<g id="edge4" class="edge"><title>AS205906&#45;&gt;AS60051</title>
<path fill="none" stroke="black" stroke-width="1.05882" d="M327.678,-470.851C348.232,-485.661 379.088,-507.895 401.91,-524.339"/>
<polygon fill="black" stroke="black" stroke-width="1.05882" points="400.066,-527.324 410.225,-530.331 404.158,-521.645 400.066,-527.324"/>
</g>
<!-- AS2914 -->
<g id="node6" class="node"><title>AS2914</title>
<g id="a_node6"><a xlink:href="/asn/2914" xlink:title="AS2914 ~ NTT America, Inc. [US]">
<ellipse fill="#ffffff" stroke="black" cx="557.363" cy="-488" rx="39.7935" ry="18"/>
<text text-anchor="middle" x="557.363" y="-484.3" font-family="Times,serif" font-size="14.00" fill="#2c94b3">AS2914</text>
</a>
</g>
</g>
<!-- AS6762&#45;&gt;AS2914 -->
<g id="edge5" class="edge"><title>AS6762&#45;&gt;AS2914</title>
<path fill="none" stroke="black" stroke-width="2" d="M445.681,-382.386C459.992,-402.801 485.712,-436.928 513.167,-461 516.149,-463.615 519.412,-466.142 522.766,-468.532"/>
<polygon fill="black" stroke="black" stroke-width="2" points="520.923,-471.51 531.181,-474.162 524.816,-465.692 520.923,-471.51"/>
</g>
<!-- AS174 -->
<g id="node7" class="node"><title>AS174</title>
<g id="a_node7"><a xlink:href="/asn/174" xlink:title="AS174 ~ Cogent Communications [US]">
<ellipse fill="#ffffff" stroke="black" cx="557.363" cy="-342" rx="35.194" ry="18"/>
<text text-anchor="middle" x="557.363" y="-338.3" font-family="Times,serif" font-size="14.00" fill="#2c94b3">AS174</text>
</a>
</g>
</g>
<!-- AS6762&#45;&gt;AS174 -->
<g id="edge6" class="edge"><title>AS6762&#45;&gt;AS174</title>
<path fill="none" stroke="black" d="M470.031,-358.224C483.762,-355.643 499.537,-352.679 513.815,-349.996"/>
<polygon fill="black" stroke="black" points="514.714,-353.388 523.896,-348.101 513.421,-346.508 514.714,-353.388"/>
</g>
<!-- AS3320 -->
<g id="node8" class="node"><title>AS3320</title>
<g id="a_node8"><a xlink:href="/asn/3320" xlink:title="AS3320 ~ DTAG [DE]">
<ellipse fill="#ffffff" stroke="black" cx="557.363" cy="-288" rx="39.7935" ry="18"/>
<text text-anchor="middle" x="557.363" y="-284.3" font-family="Times,serif" font-size="14.00" fill="#2c94b3">AS3320</text>
</a>
</g>
</g>
<!-- AS6762&#45;&gt;AS3320 -->
<g id="edge7" class="edge"><title>AS6762&#45;&gt;AS3320</title>
<path fill="none" stroke="black" d="M456.827,-350.532C472.637,-340.533 494.166,-326.936 513.167,-315 516.79,-312.724 520.586,-310.344 524.36,-307.981"/>
<polygon fill="black" stroke="black" points="526.415,-310.824 533.037,-302.554 522.703,-304.89 526.415,-310.824"/>
</g>
<!-- AS3356 -->
<g id="node9" class="node"><title>AS3356</title>
<g id="a_node9"><a xlink:href="/asn/3356" xlink:title="AS3356 ~ Level 3 Parent, LLC [US]">
<ellipse fill="#ffffff" stroke="black" cx="557.363" cy="-650" rx="39.7935" ry="18"/>
<text text-anchor="middle" x="557.363" y="-646.3" font-family="Times,serif" font-size="14.00" fill="#2c94b3">AS3356</text>
</a>
</g>
</g>
<!-- AS6762&#45;&gt;AS3356 -->
<g id="edge8" class="edge"><title>AS6762&#45;&gt;AS3356</title>
<path fill="none" stroke="black" stroke-width="3" d="M439.165,-383.151C455.555,-440.261 505.55,-613.083 513.167,-623 515.457,-625.981 518.177,-628.716 521.121,-631.205"/>
<polygon fill="black" stroke="black" stroke-width="3" points="519.167,-634.113 529.297,-637.218 523.315,-628.474 519.167,-634.113"/>
</g>
<!-- AS3491 -->
<g id="node10" class="node"><title>AS3491</title>
<g id="a_node10"><a xlink:href="/asn/3491" xlink:title="AS3491 ~ PCCW Global, Inc. [US]">
<ellipse fill="#ffffff" stroke="black" cx="557.363" cy="-234" rx="39.7935" ry="18"/>
<text text-anchor="middle" x="557.363" y="-230.3" font-family="Times,serif" font-size="14.00" fill="#2c94b3">AS3491</text>
</a>
</g>
</g>
<!-- AS6762&#45;&gt;AS3491 -->
<g id="edge9" class="edge"><title>AS6762&#45;&gt;AS3491</title>
<path fill="none" stroke="black" d="M444.399,-347.634C458.188,-325.648 484.155,-287.454 513.167,-261 516.098,-258.328 519.327,-255.763 522.661,-253.351"/>
<polygon fill="black" stroke="black" points="524.717,-256.186 531.051,-247.692 520.803,-250.382 524.717,-256.186"/>
</g>
<!-- AS12956 -->
<g id="node11" class="node"><title>AS12956</title>
<g id="a_node11"><a xlink:href="/asn/12956" xlink:title="AS12956 ~ TELXIUS [ES]">
<ellipse fill="#ffffff" stroke="black" cx="557.363" cy="-180" rx="44.393" ry="18"/>
<text text-anchor="middle" x="557.363" y="-176.3" font-family="Times,serif" font-size="14.00" fill="#2c94b3">AS12956</text>
</a>
</g>
</g>
<!-- AS6762&#45;&gt;AS12956 -->
<g id="edge10" class="edge"><title>AS6762&#45;&gt;AS12956</title>
<path fill="none" stroke="black" d="M439.384,-347.01C449.569,-315.568 474.133,-249.888 513.167,-207 515.5,-204.437 518.131,-202.026 520.914,-199.78"/>
<polygon fill="black" stroke="black" points="522.988,-202.599 529.038,-193.902 518.885,-196.928 522.988,-202.599"/>
</g>
<!-- AS6453 -->
<g id="node12" class="node"><title>AS6453</title>
<g id="a_node12"><a xlink:href="/asn/6453" xlink:title="AS6453 ~ TATA COMMUNICATIONS (AMERICA) INC [US]">
<ellipse fill="#ffffff" stroke="black" cx="557.363" cy="-126" rx="39.7935" ry="18"/>
<text text-anchor="middle" x="557.363" y="-122.3" font-family="Times,serif" font-size="14.00" fill="#2c94b3">AS6453</text>
</a>
</g>
</g>
<!-- AS6762&#45;&gt;AS6453 -->
<g id="edge11" class="edge"><title>AS6762&#45;&gt;AS6453</title>
<path fill="none" stroke="black" d="M436.696,-346.861C443.391,-307.596 463.835,-213.405 513.167,-153 515.545,-150.089 518.323,-147.4 521.304,-144.94"/>
<polygon fill="black" stroke="black" points="523.495,-147.675 529.532,-138.968 519.383,-142.01 523.495,-147.675"/>
</g>
<!-- AS3257 -->
<g id="node13" class="node"><title>AS3257</title>
<g id="a_node13"><a xlink:href="/asn/3257" xlink:title="AS3257 ~ GTT [DE]">
<ellipse fill="#ffffff" stroke="black" cx="677.206" cy="-451" rx="39.7935" ry="18"/>
<text text-anchor="middle" x="677.206" y="-447.3" font-family="Times,serif" font-size="14.00" fill="#2c94b3">AS3257</text>
</a>
</g>
</g>
<!-- AS6762&#45;&gt;AS3257 -->
<g id="edge12" class="edge"><title>AS6762&#45;&gt;AS3257</title>
<path fill="none" stroke="black" d="M470.558,-371.032C505.165,-377.461 558.126,-389.193 601.559,-407 616.827,-413.259 632.715,-422.233 645.889,-430.445"/>
<polygon fill="black" stroke="black" points="644.223,-433.534 654.535,-435.966 647.99,-427.634 644.223,-433.534"/>
</g>
<!-- AS7018 -->
<g id="node14" class="node"><title>AS7018</title>
<g id="a_node14"><a xlink:href="/asn/7018" xlink:title="AS7018 ~ AT&amp;T Services, Inc. [US]">
<ellipse fill="#ffffff" stroke="black" cx="557.363" cy="-72" rx="39.7935" ry="18"/>
<text text-anchor="middle" x="557.363" y="-68.3" font-family="Times,serif" font-size="14.00" fill="#2c94b3">AS7018</text>
</a>
</g>
</g>
<!-- AS6762&#45;&gt;AS7018 -->
<g id="edge13" class="edge"><title>AS6762&#45;&gt;AS7018</title>
<path fill="none" stroke="black" d="M435.024,-346.892C438.541,-300.885 453.329,-177.589 513.167,-99 515.444,-96.0096 518.156,-93.2679 521.095,-90.7748"/>
<polygon fill="black" stroke="black" points="523.289,-93.5056 529.263,-84.756 519.136,-87.8702 523.289,-93.5056"/>
</g>
<!-- AS701 -->
<g id="node15" class="node"><title>AS701</title>
<g id="a_node15"><a xlink:href="/asn/701" xlink:title="AS701 ~ UUNET [US]">
<ellipse fill="#ffffff" stroke="black" cx="557.363" cy="-18" rx="35.194" ry="18"/>
<text text-anchor="middle" x="557.363" y="-14.3" font-family="Times,serif" font-size="14.00" fill="#2c94b3">AS701</text>
</a>
</g>
</g>
<!-- AS6762&#45;&gt;AS701 -->
<g id="edge14" class="edge"><title>AS6762&#45;&gt;AS701</title>
<path fill="none" stroke="black" d="M433.894,-346.77C434.559,-294.571 442.782,-142.067 513.167,-45 515.679,-41.5365 518.783,-38.4179 522.167,-35.6375"/>
<polygon fill="black" stroke="black" points="524.306,-38.4112 530.423,-29.7604 520.247,-32.7086 524.306,-38.4112"/>
</g>
<!-- AS1299 -->
<g id="node16" class="node"><title>AS1299</title>
<g id="a_node16"><a xlink:href="/asn/1299" xlink:title="AS1299 ~ Telia Carrier [EU]">
<ellipse fill="#ffffff" stroke="black" cx="557.363" cy="-596" rx="39.7935" ry="18"/>
<text text-anchor="middle" x="557.363" y="-592.3" font-family="Times,serif" font-size="14.00" fill="#2c94b3">AS1299</text>
</a>
</g>
</g>
<!-- AS6762&#45;&gt;AS1299 -->
<g id="edge15" class="edge"><title>AS6762&#45;&gt;AS1299</title>
<path fill="none" stroke="black" d="M436.994,-383.033C444.169,-421.16 465.334,-511.189 513.167,-569 515.563,-571.896 518.354,-574.574 521.343,-577.028"/>
<polygon fill="black" stroke="black" points="519.429,-579.963 529.581,-582.992 523.533,-574.293 519.429,-579.963"/>
</g>
<!-- AS6461 -->
<g id="node17" class="node"><title>AS6461</title>
<g id="a_node17"><a xlink:href="/asn/6461" xlink:title="AS6461 ~ Zayo Bandwidth [US]">
<ellipse fill="#ffffff" stroke="black" cx="557.363" cy="-542" rx="39.7935" ry="18"/>
<text text-anchor="middle" x="557.363" y="-538.3" font-family="Times,serif" font-size="14.00" fill="#2c94b3">AS6461</text>
</a>
</g>
</g>
<!-- AS6762&#45;&gt;AS6461 -->
<g id="edge16" class="edge"><title>AS6762&#45;&gt;AS6461</title>
<path fill="none" stroke="black" d="M439.958,-383.027C450.697,-413.221 475.672,-474.668 513.167,-515 515.726,-517.753 518.626,-520.336 521.683,-522.729"/>
<polygon fill="black" stroke="black" points="519.828,-525.704 530.017,-528.61 523.864,-519.984 519.828,-525.704"/>
</g>
<!-- AS1239 -->
<g id="node18" class="node"><title>AS1239</title>
<g id="a_node18"><a xlink:href="/asn/1239" xlink:title="AS1239 ~ Sprint [US]">
<ellipse fill="#ffffff" stroke="black" cx="557.363" cy="-434" rx="39.7935" ry="18"/>
<text text-anchor="middle" x="557.363" y="-430.3" font-family="Times,serif" font-size="14.00" fill="#2c94b3">AS1239</text>
</a>
</g>
</g>
<!-- AS6762&#45;&gt;AS1239 -->
<g id="edge17" class="edge"><title>AS6762&#45;&gt;AS1239</title>
<path fill="none" stroke="black" d="M458.445,-378.797C476.835,-389.165 502.247,-403.491 522.574,-414.951"/>
<polygon fill="black" stroke="black" points="521.083,-418.128 531.512,-419.99 524.52,-412.03 521.083,-418.128"/>
</g>
<!-- AS60051&#45;&gt;AS3356 -->
<g id="edge22" class="edge"><title>AS60051&#45;&gt;AS3356</title>
<path fill="none" stroke="black" stroke-width="4" d="M449.421,-562.993C464.745,-579.355 489.324,-604.304 513.167,-623 516.456,-625.578 520.002,-628.125 523.598,-630.563"/>
<polygon fill="black" stroke="black" stroke-width="4" points="521.694,-633.5 531.984,-636.021 525.512,-627.633 521.694,-633.5"/>
</g>
<!-- AS2497 -->
<g id="node21" class="node"><title>AS2497</title>
<g id="a_node21"><a xlink:href="/asn/2497" xlink:title="AS2497 ~ Internet Initiative Japan Inc. [JP]">
<ellipse fill="#ffffff" stroke="black" cx="677.206" cy="-528" rx="39.7935" ry="18"/>
<text text-anchor="middle" x="677.206" y="-524.3" font-family="Times,serif" font-size="14.00" fill="#2c94b3">AS2497</text>
</a>
</g>
</g>
<!-- AS2914&#45;&gt;AS2497 -->
<g id="edge23" class="edge"><title>AS2914&#45;&gt;AS2497</title>
<path fill="none" stroke="black" d="M589.634,-498.614C603.617,-503.361 620.288,-509.019 635.25,-514.098"/>
<polygon fill="black" stroke="black" points="634.195,-517.436 644.79,-517.336 636.445,-510.808 634.195,-517.436"/>
</g>
<!-- AS3356&#45;&gt;AS3257 -->
<g id="edge19" class="edge"><title>AS3356&#45;&gt;AS3257</title>
<path fill="none" stroke="black" d="M585.473,-637.251C591.457,-633.384 597.28,-628.634 601.559,-623 635.752,-577.979 611.831,-551.34 637.559,-501 642.106,-492.104 648.308,-483.21 654.413,-475.443"/>
<polygon fill="black" stroke="black" points="657.283,-477.462 660.915,-467.509 651.869,-473.024 657.283,-477.462"/>
</g>
<!-- AS3549 -->
<g id="node19" class="node"><title>AS3549</title>
<g id="a_node19"><a xlink:href="/asn/3549" xlink:title="AS3549 ~ Level 3 Parent, LLC [US]">
<ellipse fill="#ffffff" stroke="black" cx="677.206" cy="-677" rx="39.7935" ry="18"/>
<text text-anchor="middle" x="677.206" y="-673.3" font-family="Times,serif" font-size="14.00" fill="#2c94b3">AS3549</text>
</a>
</g>
</g>
<!-- AS3356&#45;&gt;AS3549 -->
<g id="edge18" class="edge"><title>AS3356&#45;&gt;AS3549</title>
<path fill="none" stroke="black" stroke-width="2" d="M593.083,-657.955C605.082,-660.704 618.703,-663.825 631.396,-666.733"/>
<polygon fill="black" stroke="black" stroke-width="2" points="630.798,-670.187 641.328,-669.009 632.362,-663.364 630.798,-670.187"/>
</g>
<!-- AS209 -->
<g id="node20" class="node"><title>AS209</title>
<g id="a_node20"><a xlink:href="/asn/209" xlink:title="AS209 ~ CenturyLink Communications, LLC [US]">
<ellipse fill="#ffffff" stroke="black" cx="677.206" cy="-623" rx="35.194" ry="18"/>
<text text-anchor="middle" x="677.206" y="-619.3" font-family="Times,serif" font-size="14.00" fill="#2c94b3">AS209</text>
</a>
</g>
</g>
<!-- AS3356&#45;&gt;AS209 -->
<g id="edge20" class="edge"><title>AS3356&#45;&gt;AS209</title>
<path fill="none" stroke="black" d="M593.083,-642.045C606.175,-639.045 621.197,-635.604 634.838,-632.478"/>
<polygon fill="black" stroke="black" points="635.98,-635.807 644.945,-630.162 634.416,-628.984 635.98,-635.807"/>
</g>
<!-- AS3356&#45;&gt;AS2497 -->
<g id="edge21" class="edge"><title>AS3356&#45;&gt;AS2497</title>
<path fill="none" stroke="black" d="M583.625,-636.251C589.793,-632.357 596.164,-627.845 601.559,-623 624.534,-602.368 645.77,-574.05 659.67,-553.708"/>
<polygon fill="black" stroke="black" points="662.678,-555.507 665.34,-545.252 656.864,-551.608 662.678,-555.507"/>
</g>
</g>
</svg>
