<?xml version="1.0" encoding="UTF-8" standalone="no"?>
<!DOCTYPE svg PUBLIC "-//W3C//DTD SVG 1.1//EN"
 "http://www.w3.org/Graphics/SVG/1.1/DTD/svg11.dtd">
<!-- Generated by graphviz version 2.38.0 (20140413.2041)
 -->
<!-- Title: AS200939 IPv4 Upstream Graph Pages: 1 -->
<svg width="840pt" height="908pt"
 viewBox="0.00 0.00 840.15 908.00" xmlns="http://www.w3.org/2000/svg" xmlns:xlink="http://www.w3.org/1999/xlink">
<g id="graph0" class="graph" transform="scale(1 1) rotate(0) translate(4 904)">
<title>AS200939 IPv4 Upstream Graph</title>
<polygon fill="white" stroke="none" points="-4,4 -4,-904 836.145,-904 836.145,4 -4,4"/>
<!-- AS200939 -->
<g id="node1" class="node"><title>AS200939</title>
<g id="a_node1"><a xlink:href="/asn/200939" xlink:title="AS200939 ~ LUKOIL Technology Services GmbH [AT]">
<ellipse fill="#ffffff" stroke="black" cx="48.0957" cy="-798" rx="48.1917" ry="18"/>
<text text-anchor="middle" x="48.0957" y="-794.3" font-family="Times,serif" font-size="14.00" fill="#880000">AS200939</text>
</a>
</g>
</g>
<!-- AS2914 -->
<g id="node2" class="node"><title>AS2914</title>
<g id="a_node2"><a xlink:href="/asn/2914" xlink:title="AS2914 ~ NTT America, Inc. [US]">
<ellipse fill="#ffffff" stroke="black" cx="672.656" cy="-882" rx="39.7935" ry="18"/>
<text text-anchor="middle" x="672.656" y="-878.3" font-family="Times,serif" font-size="14.00" fill="#2c94b3">AS2914</text>
</a>
</g>
</g>
<!-- AS200939&#45;&gt;AS2914 -->
<g id="edge1" class="edge"><title>AS200939&#45;&gt;AS2914</title>
<path fill="none" stroke="black" stroke-width="0.236842" d="M78.9095,-812.027C125.698,-832.719 219.709,-869 303.679,-869 303.679,-869 303.679,-869 433.971,-869 499.616,-869 575.307,-874.005 623.304,-877.804"/>
<polygon fill="black" stroke="black" stroke-width="0.236842" points="623.158,-881.304 633.407,-878.618 623.72,-874.326 623.158,-881.304"/>
</g>
<!-- AS50710 -->
<g id="node3" class="node"><title>AS50710</title>
<g id="a_node3"><a xlink:href="/asn/50710" xlink:title="AS50710 ~ EarthLink&#45;AS [IQ]">
<ellipse fill="#ffffff" stroke="black" cx="176.388" cy="-727" rx="44.393" ry="18"/>
<text text-anchor="middle" x="176.388" y="-723.3" font-family="Times,serif" font-size="14.00" fill="#2c94b3">AS50710</text>
</a>
</g>
</g>
<!-- AS200939&#45;&gt;AS50710 -->
<g id="edge2" class="edge"><title>AS200939&#45;&gt;AS50710</title>
<path fill="none" stroke="black" stroke-width="4.5" d="M75.5706,-783.116C94.4724,-772.49 120.083,-758.092 140.629,-746.541"/>
<polygon fill="black" stroke="black" stroke-width="4.5" points="142.593,-749.954 149.38,-741.621 138.734,-743.089 142.593,-749.954"/>
</g>
<!-- AS205906 -->
<g id="node4" class="node"><title>AS205906</title>
<g id="a_node4"><a xlink:href="/asn/205906" xlink:title="AS205906 ~ SCIS [IQ]">
<ellipse fill="#ffffff" stroke="black" cx="304.679" cy="-534" rx="48.1917" ry="18"/>
<text text-anchor="middle" x="304.679" y="-530.3" font-family="Times,serif" font-size="14.00" fill="#2c94b3">AS205906</text>
</a>
</g>
</g>
<!-- AS50710&#45;&gt;AS205906 -->
<g id="edge3" class="edge"><title>AS50710&#45;&gt;AS205906</title>
<path fill="none" stroke="black" stroke-width="4.5" d="M188.818,-709.532C211.115,-675.457 260.516,-599.963 286.67,-559.993"/>
<polygon fill="black" stroke="black" stroke-width="4.5" points="290.003,-562.091 292.184,-551.567 283.414,-557.779 290.003,-562.091"/>
</g>
<!-- AS35753 -->
<g id="node5" class="node"><title>AS35753</title>
<g id="a_node5"><a xlink:href="/asn/35753" xlink:title="AS35753 ~ ITC AS number [SA]">
<ellipse fill="#ffffff" stroke="black" cx="432.971" cy="-510" rx="44.393" ry="18"/>
<text text-anchor="middle" x="432.971" y="-506.3" font-family="Times,serif" font-size="14.00" fill="#2c94b3">AS35753</text>
</a>
</g>
</g>
<!-- AS205906&#45;&gt;AS35753 -->
<g id="edge4" class="edge"><title>AS205906&#45;&gt;AS35753</title>
<path fill="none" stroke="black" stroke-width="4.5" d="M348.084,-525.942C359.169,-523.835 371.213,-521.546 382.624,-519.378"/>
<polygon fill="black" stroke="black" stroke-width="4.5" points="383.361,-523.246 392.45,-517.51 381.891,-515.509 383.361,-523.246"/>
</g>
<!-- AS6453 -->
<g id="node6" class="node"><title>AS6453</title>
<g id="a_node6"><a xlink:href="/asn/6453" xlink:title="AS6453 ~ TATA COMMUNICATIONS (AMERICA) INC [US]">
<ellipse fill="#ffffff" stroke="black" cx="552.814" cy="-462" rx="39.7935" ry="18"/>
<text text-anchor="middle" x="552.814" y="-458.3" font-family="Times,serif" font-size="14.00" fill="#2c94b3">AS6453</text>
</a>
</g>
</g>
<!-- AS35753&#45;&gt;AS6453 -->
<g id="edge5" class="edge"><title>AS35753&#45;&gt;AS6453</title>
<path fill="none" stroke="black" stroke-width="4.5" d="M464.933,-497.389C479.729,-491.362 497.586,-484.088 513.254,-477.706"/>
<polygon fill="black" stroke="black" stroke-width="4.5" points="514.904,-481.286 522.679,-473.867 511.933,-473.993 514.904,-481.286"/>
</g>
<!-- AS6453&#45;&gt;AS2914 -->
<g id="edge7" class="edge"><title>AS6453&#45;&gt;AS2914</title>
<path fill="none" stroke="black" d="M555.35,-480.322C561.421,-549.248 585.525,-792.233 628.46,-855 630.408,-857.847 632.764,-860.453 635.36,-862.825"/>
<polygon fill="black" stroke="black" points="633.638,-865.917 643.695,-869.25 637.912,-860.373 633.638,-865.917"/>
</g>
<!-- AS1273 -->
<g id="node7" class="node"><title>AS1273</title>
<g id="a_node7"><a xlink:href="/asn/1273" xlink:title="AS1273 ~ Vodafone Group PLC [EU]">
<ellipse fill="#ffffff" stroke="black" cx="672.656" cy="-828" rx="39.7935" ry="18"/>
<text text-anchor="middle" x="672.656" y="-824.3" font-family="Times,serif" font-size="14.00" fill="#2c94b3">AS1273</text>
</a>
</g>
</g>
<!-- AS6453&#45;&gt;AS1273 -->
<g id="edge6" class="edge"><title>AS6453&#45;&gt;AS1273</title>
<path fill="none" stroke="black" d="M553.127,-480.111C551.978,-534.178 555.153,-697.101 628.46,-801 630.449,-803.818 632.834,-806.404 635.448,-808.764"/>
<polygon fill="black" stroke="black" points="633.746,-811.869 643.815,-815.167 638.001,-806.31 633.746,-811.869"/>
</g>
<!-- AS3356 -->
<g id="node8" class="node"><title>AS3356</title>
<g id="a_node8"><a xlink:href="/asn/3356" xlink:title="AS3356 ~ Level 3 Parent, LLC [US]">
<ellipse fill="#ffffff" stroke="black" cx="672.656" cy="-774" rx="39.7935" ry="18"/>
<text text-anchor="middle" x="672.656" y="-770.3" font-family="Times,serif" font-size="14.00" fill="#2c94b3">AS3356</text>
</a>
</g>
</g>
<!-- AS6453&#45;&gt;AS3356 -->
<g id="edge8" class="edge"><title>AS6453&#45;&gt;AS3356</title>
<path fill="none" stroke="black" stroke-width="2" d="M554.088,-480.302C555.689,-528.655 565.88,-661.915 628.46,-747 630.687,-750.028 633.365,-752.794 636.283,-755.303"/>
<polygon fill="black" stroke="black" stroke-width="2" points="634.307,-758.195 644.423,-761.344 638.478,-752.574 634.307,-758.195"/>
</g>
<!-- AS6461 -->
<g id="node9" class="node"><title>AS6461</title>
<g id="a_node9"><a xlink:href="/asn/6461" xlink:title="AS6461 ~ ZAYO&#45;6461 [US]">
<ellipse fill="#ffffff" stroke="black" cx="672.656" cy="-720" rx="39.7935" ry="18"/>
<text text-anchor="middle" x="672.656" y="-716.3" font-family="Times,serif" font-size="14.00" fill="#2c94b3">AS6461</text>
</a>
</g>
</g>
<!-- AS6453&#45;&gt;AS6461 -->
<g id="edge9" class="edge"><title>AS6453&#45;&gt;AS6461</title>
<path fill="none" stroke="black" d="M555.456,-480.156C560.058,-521.892 576.363,-626.199 628.46,-693 630.772,-695.964 633.506,-698.688 636.46,-701.17"/>
<polygon fill="black" stroke="black" points="634.514,-704.083 644.648,-707.173 638.653,-698.438 634.514,-704.083"/>
</g>
<!-- AS2497 -->
<g id="node10" class="node"><title>AS2497</title>
<g id="a_node10"><a xlink:href="/asn/2497" xlink:title="AS2497 ~ Internet Initiative Japan Inc. [JP]">
<ellipse fill="#ffffff" stroke="black" cx="672.656" cy="-666" rx="39.7935" ry="18"/>
<text text-anchor="middle" x="672.656" y="-662.3" font-family="Times,serif" font-size="14.00" fill="#2c94b3">AS2497</text>
</a>
</g>
</g>
<!-- AS6453&#45;&gt;AS2497 -->
<g id="edge10" class="edge"><title>AS6453&#45;&gt;AS2497</title>
<path fill="none" stroke="black" d="M557.567,-479.981C565.488,-514.283 586.718,-590.005 628.46,-639 630.898,-641.861 633.716,-644.516 636.723,-646.955"/>
<polygon fill="black" stroke="black" points="634.823,-649.9 644.985,-652.899 638.911,-644.218 634.823,-649.9"/>
</g>
<!-- AS6762 -->
<g id="node11" class="node"><title>AS6762</title>
<g id="a_node11"><a xlink:href="/asn/6762" xlink:title="AS6762 ~ TELECOM ITALIA SPARKLE S.p.A. [IT]">
<ellipse fill="#ffffff" stroke="black" cx="672.656" cy="-612" rx="39.7935" ry="18"/>
<text text-anchor="middle" x="672.656" y="-608.3" font-family="Times,serif" font-size="14.00" fill="#2c94b3">AS6762</text>
</a>
</g>
</g>
<!-- AS6453&#45;&gt;AS6762 -->
<g id="edge11" class="edge"><title>AS6453&#45;&gt;AS6762</title>
<path fill="none" stroke="black" d="M561.294,-479.624C572.804,-505.19 596.877,-552.998 628.46,-585 631.1,-587.675 634.054,-590.206 637.145,-592.567"/>
<polygon fill="black" stroke="black" points="635.319,-595.561 645.526,-598.403 639.319,-589.816 635.319,-595.561"/>
</g>
<!-- AS7018 -->
<g id="node12" class="node"><title>AS7018</title>
<g id="a_node12"><a xlink:href="/asn/7018" xlink:title="AS7018 ~ AT&amp;T Services, Inc. [US]">
<ellipse fill="#ffffff" stroke="black" cx="672.656" cy="-558" rx="39.7935" ry="18"/>
<text text-anchor="middle" x="672.656" y="-554.3" font-family="Times,serif" font-size="14.00" fill="#2c94b3">AS7018</text>
</a>
</g>
</g>
<!-- AS6453&#45;&gt;AS7018 -->
<g id="edge12" class="edge"><title>AS6453&#45;&gt;AS7018</title>
<path fill="none" stroke="black" d="M569.921,-478.561C584.531,-493.163 607.004,-514.608 628.46,-531 631.781,-533.537 635.347,-536.057 638.955,-538.48"/>
<polygon fill="black" stroke="black" points="637.059,-541.422 647.355,-543.921 640.864,-535.547 637.059,-541.422"/>
</g>
<!-- AS3320 -->
<g id="node13" class="node"><title>AS3320</title>
<g id="a_node13"><a xlink:href="/asn/3320" xlink:title="AS3320 ~ DTAG [DE]">
<ellipse fill="#ffffff" stroke="black" cx="672.656" cy="-504" rx="39.7935" ry="18"/>
<text text-anchor="middle" x="672.656" y="-500.3" font-family="Times,serif" font-size="14.00" fill="#2c94b3">AS3320</text>
</a>
</g>
</g>
<!-- AS6453&#45;&gt;AS3320 -->
<g id="edge13" class="edge"><title>AS6453&#45;&gt;AS3320</title>
<path fill="none" stroke="black" d="M584.468,-472.925C598.677,-477.99 615.761,-484.078 631.026,-489.519"/>
<polygon fill="black" stroke="black" points="630.152,-492.923 640.746,-492.983 632.502,-486.329 630.152,-492.923"/>
</g>
<!-- AS1299 -->
<g id="node14" class="node"><title>AS1299</title>
<g id="a_node14"><a xlink:href="/asn/1299" xlink:title="AS1299 ~ Telia Carrier [EU]">
<ellipse fill="#ffffff" stroke="black" cx="672.656" cy="-450" rx="39.7935" ry="18"/>
<text text-anchor="middle" x="672.656" y="-446.3" font-family="Times,serif" font-size="14.00" fill="#2c94b3">AS1299</text>
</a>
</g>
</g>
<!-- AS6453&#45;&gt;AS1299 -->
<g id="edge14" class="edge"><title>AS6453&#45;&gt;AS1299</title>
<path fill="none" stroke="black" d="M591.749,-458.137C601.946,-457.099 613.109,-455.962 623.771,-454.876"/>
<polygon fill="black" stroke="black" points="624.199,-458.351 633.793,-453.856 623.489,-451.387 624.199,-458.351"/>
</g>
<!-- AS3257 -->
<g id="node15" class="node"><title>AS3257</title>
<g id="a_node15"><a xlink:href="/asn/3257" xlink:title="AS3257 ~ GTT [DE]">
<ellipse fill="#ffffff" stroke="black" cx="672.656" cy="-396" rx="39.7935" ry="18"/>
<text text-anchor="middle" x="672.656" y="-392.3" font-family="Times,serif" font-size="14.00" fill="#2c94b3">AS3257</text>
</a>
</g>
</g>
<!-- AS6453&#45;&gt;AS3257 -->
<g id="edge15" class="edge"><title>AS6453&#45;&gt;AS3257</title>
<path fill="none" stroke="black" d="M578.517,-448.164C595.801,-438.484 619.097,-425.437 638.066,-414.813"/>
<polygon fill="black" stroke="black" points="639.971,-417.758 646.985,-409.818 636.55,-411.65 639.971,-417.758"/>
</g>
<!-- AS209 -->
<g id="node16" class="node"><title>AS209</title>
<g id="a_node16"><a xlink:href="/asn/209" xlink:title="AS209 ~ CenturyLink Communications, LLC [US]">
<ellipse fill="#ffffff" stroke="black" cx="672.656" cy="-342" rx="35.194" ry="18"/>
<text text-anchor="middle" x="672.656" y="-338.3" font-family="Times,serif" font-size="14.00" fill="#2c94b3">AS209</text>
</a>
</g>
</g>
<!-- AS6453&#45;&gt;AS209 -->
<g id="edge16" class="edge"><title>AS6453&#45;&gt;AS209</title>
<path fill="none" stroke="black" d="M564.995,-444.778C578.439,-424.937 602.462,-392.105 628.46,-369 631.823,-366.011 635.556,-363.144 639.378,-360.468"/>
<polygon fill="black" stroke="black" points="641.348,-363.362 647.78,-354.943 637.501,-357.513 641.348,-363.362"/>
</g>
<!-- AS12956 -->
<g id="node17" class="node"><title>AS12956</title>
<g id="a_node17"><a xlink:href="/asn/12956" xlink:title="AS12956 ~ TELXIUS [ES]">
<ellipse fill="#ffffff" stroke="black" cx="672.656" cy="-288" rx="44.393" ry="18"/>
<text text-anchor="middle" x="672.656" y="-284.3" font-family="Times,serif" font-size="14.00" fill="#2c94b3">AS12956</text>
</a>
</g>
</g>
<!-- AS6453&#45;&gt;AS12956 -->
<g id="edge17" class="edge"><title>AS6453&#45;&gt;AS12956</title>
<path fill="none" stroke="black" d="M559.444,-443.848C569.401,-414.081 592.523,-354.278 628.46,-315 630.8,-312.443 633.435,-310.036 636.221,-307.794"/>
<polygon fill="black" stroke="black" points="638.295,-310.613 644.35,-301.919 634.195,-304.939 638.295,-310.613"/>
</g>
<!-- AS1239 -->
<g id="node18" class="node"><title>AS1239</title>
<g id="a_node18"><a xlink:href="/asn/1239" xlink:title="AS1239 ~ Sprint [US]">
<ellipse fill="#ffffff" stroke="black" cx="672.656" cy="-234" rx="39.7935" ry="18"/>
<text text-anchor="middle" x="672.656" y="-230.3" font-family="Times,serif" font-size="14.00" fill="#2c94b3">AS1239</text>
</a>
</g>
</g>
<!-- AS6453&#45;&gt;AS1239 -->
<g id="edge18" class="edge"><title>AS6453&#45;&gt;AS1239</title>
<path fill="none" stroke="black" d="M556.498,-443.95C562.9,-406.229 582.129,-317.842 628.46,-261 630.835,-258.087 633.612,-255.396 636.592,-252.936"/>
<polygon fill="black" stroke="black" points="638.783,-255.67 644.817,-246.962 634.669,-250.006 638.783,-255.67"/>
</g>
<!-- AS3491 -->
<g id="node19" class="node"><title>AS3491</title>
<g id="a_node19"><a xlink:href="/asn/3491" xlink:title="AS3491 ~ PCCW Global, Inc. [US]">
<ellipse fill="#ffffff" stroke="black" cx="672.656" cy="-180" rx="39.7935" ry="18"/>
<text text-anchor="middle" x="672.656" y="-176.3" font-family="Times,serif" font-size="14.00" fill="#2c94b3">AS3491</text>
</a>
</g>
</g>
<!-- AS6453&#45;&gt;AS3491 -->
<g id="edge19" class="edge"><title>AS6453&#45;&gt;AS3491</title>
<path fill="none" stroke="black" d="M554.767,-443.994C557.97,-399.397 571.626,-282.001 628.46,-207 630.73,-204.004 633.437,-201.259 636.373,-198.764"/>
<polygon fill="black" stroke="black" points="638.568,-201.495 644.538,-192.742 634.413,-195.861 638.568,-201.495"/>
</g>
<!-- AS701 -->
<g id="node20" class="node"><title>AS701</title>
<g id="a_node20"><a xlink:href="/asn/701" xlink:title="AS701 ~ UUNET [US]">
<ellipse fill="#ffffff" stroke="black" cx="672.656" cy="-126" rx="35.194" ry="18"/>
<text text-anchor="middle" x="672.656" y="-122.3" font-family="Times,serif" font-size="14.00" fill="#2c94b3">AS701</text>
</a>
</g>
</g>
<!-- AS6453&#45;&gt;AS701 -->
<g id="edge20" class="edge"><title>AS6453&#45;&gt;AS701</title>
<path fill="none" stroke="black" d="M553.62,-443.674C553.974,-392.61 561.171,-246.344 628.46,-153 630.962,-149.53 634.061,-146.407 637.441,-143.624"/>
<polygon fill="black" stroke="black" points="639.58,-146.397 645.693,-137.744 635.518,-140.696 639.58,-146.397"/>
</g>
<!-- AS174 -->
<g id="node21" class="node"><title>AS174</title>
<g id="a_node21"><a xlink:href="/asn/174" xlink:title="AS174 ~ Cogent Communications [US]">
<ellipse fill="#ffffff" stroke="black" cx="672.656" cy="-72" rx="35.194" ry="18"/>
<text text-anchor="middle" x="672.656" y="-68.3" font-family="Times,serif" font-size="14.00" fill="#2c94b3">AS174</text>
</a>
</g>
</g>
<!-- AS6453&#45;&gt;AS174 -->
<g id="edge21" class="edge"><title>AS6453&#45;&gt;AS174</title>
<path fill="none" stroke="black" d="M555.661,-443.737C562.565,-378.307 588.522,-156.451 628.46,-99 630.902,-95.4872 633.964,-92.338 637.323,-89.5402"/>
<polygon fill="black" stroke="black" points="639.462,-92.3136 645.553,-83.6445 635.385,-86.6232 639.462,-92.3136"/>
</g>
<!-- AS5511 -->
<g id="node22" class="node"><title>AS5511</title>
<g id="a_node22"><a xlink:href="/asn/5511" xlink:title="AS5511 ~ Orange S.A. [FR]">
<ellipse fill="#ffffff" stroke="black" cx="672.656" cy="-18" rx="39.7935" ry="18"/>
<text text-anchor="middle" x="672.656" y="-14.3" font-family="Times,serif" font-size="14.00" fill="#2c94b3">AS5511</text>
</a>
</g>
</g>
<!-- AS6453&#45;&gt;AS5511 -->
<g id="edge22" class="edge"><title>AS6453&#45;&gt;AS5511</title>
<path fill="none" stroke="black" d="M555.138,-443.556C560.585,-371.813 583.138,-112.014 628.46,-45 630.392,-42.143 632.738,-39.5298 635.327,-37.1525"/>
<polygon fill="black" stroke="black" points="637.879,-39.6042 643.652,-30.7203 633.599,-34.0651 637.879,-39.6042"/>
</g>
<!-- AS3549 -->
<g id="node23" class="node"><title>AS3549</title>
<g id="a_node23"><a xlink:href="/asn/3549" xlink:title="AS3549 ~ Level 3 Parent, LLC [US]">
<ellipse fill="#ffffff" stroke="black" cx="792.499" cy="-774" rx="39.7935" ry="18"/>
<text text-anchor="middle" x="792.499" y="-770.3" font-family="Times,serif" font-size="14.00" fill="#2c94b3">AS3549</text>
</a>
</g>
</g>
<!-- AS3356&#45;&gt;AS3549 -->
<g id="edge23" class="edge"><title>AS3356&#45;&gt;AS3549</title>
<path fill="none" stroke="black" d="M712.569,-774C722.122,-774 732.472,-774 742.435,-774"/>
<polygon fill="black" stroke="black" points="742.627,-777.5 752.627,-774 742.627,-770.5 742.627,-777.5"/>
</g>
</g>
</svg>
