<?xml version="1.0" encoding="UTF-8" standalone="no"?>
<!DOCTYPE svg PUBLIC "-//W3C//DTD SVG 1.1//EN"
 "http://www.w3.org/Graphics/SVG/1.1/DTD/svg11.dtd">
<!-- Generated by graphviz version 2.38.0 (20140413.2041)
 -->
<!-- Title: AS44760 Combined Upstream Graph Pages: 1 -->
<svg width="567pt" height="720pt"
 viewBox="0.00 0.00 566.66 720.21" xmlns="http://www.w3.org/2000/svg" xmlns:xlink="http://www.w3.org/1999/xlink">
<g id="graph0" class="graph" transform="scale(1 1) rotate(0) translate(4 716.213)">
<title>AS44760 Combined Upstream Graph</title>
<polygon fill="white" stroke="none" points="-4,4 -4,-716.213 562.663,-716.213 562.663,4 -4,4"/>
<!-- AS44760 -->
<g id="node1" class="node"><title>AS44760</title>
<g id="a_node1"><a xlink:href="/asn/44760" xlink:title="AS44760 ~ Skidata AG [AT]">
<ellipse fill="#ffffff" stroke="black" cx="44.1961" cy="-375" rx="44.393" ry="18"/>
<text text-anchor="middle" x="44.1961" y="-371.3" font-family="Times,serif" font-size="14.00" fill="#880000">AS44760</text>
</a>
</g>
</g>
<!-- AS21013 -->
<g id="node2" class="node"><title>AS21013</title>
<g id="a_node2"><a xlink:href="/asn/21013" xlink:title="AS21013 ~ Wels, AT [AT]">
<ellipse fill="#ffffff" stroke="black" cx="168.588" cy="-375" rx="44.393" ry="18"/>
<text text-anchor="middle" x="168.588" y="-371.3" font-family="Times,serif" font-size="14.00" fill="#2c94b3">AS21013</text>
</a>
</g>
</g>
<!-- AS44760&#45;&gt;AS21013 -->
<g id="edge1" class="edge"><title>AS44760&#45;&gt;AS21013</title>
<path fill="none" stroke="black" stroke-width="4.5" d="M88.6916,-375C96.898,-375 105.569,-375 114.041,-375"/>
<polygon fill="black" stroke="black" stroke-width="4.5" points="114.233,-378.938 124.233,-375 114.233,-371.063 114.233,-378.938"/>
</g>
<!-- AS2914 -->
<g id="node3" class="node"><title>AS2914</title>
<g id="a_node3"><a xlink:href="/asn/2914" xlink:title="AS2914 ~ NTT America, Inc. [US]">
<ellipse fill="#ffffff" stroke="black" cx="288.431" cy="-545" rx="39.7935" ry="18"/>
<text text-anchor="middle" x="288.431" y="-541.3" font-family="Times,serif" font-size="14.00" fill="#2c94b3">AS2914</text>
</a>
</g>
</g>
<!-- AS21013&#45;&gt;AS2914 -->
<g id="edge2" class="edge"><title>AS21013&#45;&gt;AS2914</title>
<path fill="none" stroke="black" stroke-width="2.45455" d="M181.536,-392.236C202.358,-422.274 245.388,-484.349 269.699,-519.42"/>
<polygon fill="black" stroke="black" stroke-width="2.45455" points="266.878,-521.494 275.451,-527.718 272.631,-517.506 266.878,-521.494"/>
</g>
<!-- AS174 -->
<g id="node4" class="node"><title>AS174</title>
<g id="a_node4"><a xlink:href="/asn/174" xlink:title="AS174 ~ Cogent Communications [US]">
<ellipse fill="#ffffff" stroke="black" cx="288.431" cy="-337" rx="35.194" ry="18"/>
<text text-anchor="middle" x="288.431" y="-333.3" font-family="Times,serif" font-size="14.00" fill="#2c94b3">AS174</text>
</a>
</g>
</g>
<!-- AS21013&#45;&gt;AS174 -->
<g id="edge3" class="edge"><title>AS21013&#45;&gt;AS174</title>
<path fill="none" stroke="black" stroke-width="4.5" d="M203.673,-364.009C217.702,-359.485 234.029,-354.22 248.523,-349.546"/>
<polygon fill="black" stroke="black" stroke-width="4.5" points="249.905,-353.238 258.214,-346.421 247.488,-345.743 249.905,-353.238"/>
</g>
<!-- AS3356 -->
<g id="node5" class="node"><title>AS3356</title>
<g id="a_node5"><a xlink:href="/asn/3356" xlink:title="AS3356 ~ Level 3 Parent, LLC [US]">
<ellipse fill="#ffffff" stroke="black" cx="288.431" cy="-414" rx="39.7935" ry="18"/>
<text text-anchor="middle" x="288.431" y="-410.3" font-family="Times,serif" font-size="14.00" fill="#2c94b3">AS3356</text>
</a>
</g>
</g>
<!-- AS21013&#45;&gt;AS3356 -->
<g id="edge4" class="edge"><title>AS21013&#45;&gt;AS3356</title>
<path fill="none" stroke="black" stroke-width="1.63636" d="M203.357,-386.176C216.601,-390.559 231.933,-395.633 245.848,-400.238"/>
<polygon fill="black" stroke="black" stroke-width="1.63636" points="245.087,-403.673 255.68,-403.492 247.286,-397.027 245.087,-403.673"/>
</g>
<!-- AS3257 -->
<g id="node6" class="node"><title>AS3257</title>
<g id="a_node6"><a xlink:href="/asn/3257" xlink:title="AS3257 ~ GTT [DE]">
<ellipse fill="#ffffff" stroke="black" cx="403.724" cy="-126" rx="39.7935" ry="18"/>
<text text-anchor="middle" x="403.724" y="-122.3" font-family="Times,serif" font-size="14.00" fill="#2c94b3">AS3257</text>
</a>
</g>
</g>
<!-- AS21013&#45;&gt;AS3257 -->
<g id="edge5" class="edge"><title>AS21013&#45;&gt;AS3257</title>
<path fill="none" stroke="black" stroke-width="1.22727" d="M182.157,-357.709C211.286,-318.335 286.839,-220.14 364.077,-152 366.238,-150.094 368.545,-148.215 370.917,-146.393"/>
<polygon fill="black" stroke="black" stroke-width="1.22727" points="373.065,-149.158 379.109,-140.456 368.958,-143.49 373.065,-149.158"/>
</g>
<!-- AS1764 -->
<g id="node7" class="node"><title>AS1764</title>
<g id="a_node7"><a xlink:href="/asn/1764" xlink:title="AS1764 ~ NEXTLAYER&#45;AS [AT]">
<ellipse fill="#ffffff" stroke="black" cx="288.431" cy="-99" rx="39.7935" ry="18"/>
<text text-anchor="middle" x="288.431" y="-95.3" font-family="Times,serif" font-size="14.00" fill="#2c94b3">AS1764</text>
</a>
</g>
</g>
<!-- AS21013&#45;&gt;AS1764 -->
<g id="edge6" class="edge"><title>AS21013&#45;&gt;AS1764</title>
<path fill="none" stroke="black" stroke-width="1.63636" d="M177.139,-357.315C197.17,-310.4 251.767,-182.529 275.805,-126.229"/>
<polygon fill="black" stroke="black" stroke-width="1.63636" points="279.082,-127.466 279.79,-116.895 272.645,-124.717 279.082,-127.466"/>
</g>
<!-- AS6939 -->
<g id="node8" class="node"><title>AS6939</title>
<g id="a_node8"><a xlink:href="/asn/6939" xlink:title="AS6939 ~ Hurricane Electric LLC [US]">
<ellipse fill="#ffffff" stroke="black" cx="288.431" cy="-618" rx="39.7935" ry="18"/>
<text text-anchor="middle" x="288.431" y="-614.3" font-family="Times,serif" font-size="14.00" fill="#2c94b3">AS6939</text>
</a>
</g>
</g>
<!-- AS21013&#45;&gt;AS6939 -->
<g id="edge7" class="edge"><title>AS21013&#45;&gt;AS6939</title>
<path fill="none" stroke="black" stroke-width="1.63636" d="M174.717,-393.002C185.344,-428.746 211.893,-510.524 248.784,-572 253.237,-579.42 258.863,-586.863 264.434,-593.533"/>
<polygon fill="black" stroke="black" stroke-width="1.63636" points="262.167,-596.26 271.369,-601.51 267.449,-591.667 262.167,-596.26"/>
</g>
<!-- AS6762 -->
<g id="node9" class="node"><title>AS6762</title>
<g id="a_node9"><a xlink:href="/asn/6762" xlink:title="AS6762 ~ TELECOM ITALIA SPARKLE S.p.A. [IT]">
<ellipse fill="#ffffff" stroke="black" cx="403.724" cy="-526" rx="39.7935" ry="18"/>
<text text-anchor="middle" x="403.724" y="-522.3" font-family="Times,serif" font-size="14.00" fill="#2c94b3">AS6762</text>
</a>
</g>
</g>
<!-- AS2914&#45;&gt;AS6762 -->
<g id="edge8" class="edge"><title>AS2914&#45;&gt;AS6762</title>
<path fill="none" stroke="black" d="M325.901,-538.884C335.604,-537.256 346.215,-535.477 356.37,-533.774"/>
<polygon fill="black" stroke="black" points="357.039,-537.211 366.322,-532.105 355.881,-530.307 357.039,-537.211"/>
</g>
<!-- AS3491 -->
<g id="node10" class="node"><title>AS3491</title>
<g id="a_node10"><a xlink:href="/asn/3491" xlink:title="AS3491 ~ PCCW Global, Inc. [US]">
<ellipse fill="#ffffff" stroke="black" cx="403.724" cy="-618" rx="39.7935" ry="18"/>
<text text-anchor="middle" x="403.724" y="-614.3" font-family="Times,serif" font-size="14.00" fill="#2c94b3">AS3491</text>
</a>
</g>
</g>
<!-- AS2914&#45;&gt;AS3491 -->
<g id="edge9" class="edge"><title>AS2914&#45;&gt;AS3491</title>
<path fill="none" stroke="black" d="M312.085,-559.597C329.143,-570.589 352.727,-585.785 371.562,-597.921"/>
<polygon fill="black" stroke="black" points="369.807,-600.954 380.109,-603.428 373.598,-595.069 369.807,-600.954"/>
</g>
<!-- AS2497 -->
<g id="node11" class="node"><title>AS2497</title>
<g id="a_node11"><a xlink:href="/asn/2497" xlink:title="AS2497 ~ Internet Initiative Japan Inc. [JP]">
<ellipse fill="#ffffff" stroke="black" cx="519.017" cy="-499" rx="39.7935" ry="18"/>
<text text-anchor="middle" x="519.017" y="-495.3" font-family="Times,serif" font-size="14.00" fill="#2c94b3">AS2497</text>
</a>
</g>
</g>
<!-- AS2914&#45;&gt;AS2497 -->
<g id="edge10" class="edge"><title>AS2914&#45;&gt;AS2497</title>
<path fill="none" stroke="black" stroke-width="2" d="M323.366,-553.595C355.177,-560.076 403.652,-565.86 443.37,-553 462.451,-546.822 480.749,-533.741 494.452,-522.001"/>
<polygon fill="black" stroke="black" stroke-width="2" points="496.826,-524.574 501.961,-515.306 492.168,-519.349 496.826,-524.574"/>
</g>
<!-- AS174&#45;&gt;AS6762 -->
<g id="edge15" class="edge"><title>AS174&#45;&gt;AS6762</title>
<path fill="none" stroke="black" stroke-width="2" d="M304.226,-353.122C312.176,-362.464 321.639,-374.767 328.077,-387 352.431,-433.268 333.021,-456.937 364.077,-499 365.809,-501.346 367.807,-503.561 369.964,-505.638"/>
<polygon fill="black" stroke="black" stroke-width="2" points="367.836,-508.42 377.753,-512.148 372.325,-503.049 367.836,-508.42"/>
</g>
<!-- AS174&#45;&gt;AS3491 -->
<g id="edge14" class="edge"><title>AS174&#45;&gt;AS3491</title>
<path fill="none" stroke="black" d="M305.079,-353.335C313.088,-362.551 322.335,-374.667 328.077,-387 359.945,-455.437 336.427,-482.753 364.077,-553 369.427,-566.592 377.426,-580.647 384.762,-592.195"/>
<polygon fill="black" stroke="black" points="382.032,-594.415 390.439,-600.862 387.887,-590.579 382.032,-594.415"/>
</g>
<!-- AS6453 -->
<g id="node13" class="node"><title>AS6453</title>
<g id="a_node13"><a xlink:href="/asn/6453" xlink:title="AS6453 ~ TATA COMMUNICATIONS (AMERICA) INC [US]">
<ellipse fill="#ffffff" stroke="black" cx="403.724" cy="-380" rx="39.7935" ry="18"/>
<text text-anchor="middle" x="403.724" y="-376.3" font-family="Times,serif" font-size="14.00" fill="#2c94b3">AS6453</text>
</a>
</g>
</g>
<!-- AS174&#45;&gt;AS6453 -->
<g id="edge20" class="edge"><title>AS174&#45;&gt;AS6453</title>
<path fill="none" stroke="black" d="M317.145,-347.519C330.902,-352.74 347.771,-359.143 362.884,-364.879"/>
<polygon fill="black" stroke="black" points="361.921,-368.257 372.512,-368.533 364.405,-361.712 361.921,-368.257"/>
</g>
<!-- AS701 -->
<g id="node14" class="node"><title>AS701</title>
<g id="a_node14"><a xlink:href="/asn/701" xlink:title="AS701 ~ UUNET [US]">
<ellipse fill="#ffffff" stroke="black" cx="403.724" cy="-272" rx="35.194" ry="18"/>
<text text-anchor="middle" x="403.724" y="-268.3" font-family="Times,serif" font-size="14.00" fill="#2c94b3">AS701</text>
</a>
</g>
</g>
<!-- AS174&#45;&gt;AS701 -->
<g id="edge16" class="edge"><title>AS174&#45;&gt;AS701</title>
<path fill="none" stroke="black" stroke-width="2" d="M312.631,-323.689C329.432,-314.05 352.349,-300.902 370.865,-290.278"/>
<polygon fill="black" stroke="black" stroke-width="2" points="372.623,-293.305 379.555,-285.293 369.139,-287.233 372.623,-293.305"/>
</g>
<!-- AS1239 -->
<g id="node15" class="node"><title>AS1239</title>
<g id="a_node15"><a xlink:href="/asn/1239" xlink:title="AS1239 ~ Sprint [US]">
<ellipse fill="#ffffff" stroke="black" cx="403.724" cy="-218" rx="39.7935" ry="18"/>
<text text-anchor="middle" x="403.724" y="-214.3" font-family="Times,serif" font-size="14.00" fill="#2c94b3">AS1239</text>
</a>
</g>
</g>
<!-- AS174&#45;&gt;AS1239 -->
<g id="edge17" class="edge"><title>AS174&#45;&gt;AS1239</title>
<path fill="none" stroke="black" d="M301.107,-319.858C314.828,-300.422 338.932,-268.401 364.077,-245 366.474,-242.77 369.065,-240.577 371.732,-238.465"/>
<polygon fill="black" stroke="black" points="373.919,-241.2 379.837,-232.413 369.73,-235.591 373.919,-241.2"/>
</g>
<!-- AS209 -->
<g id="node16" class="node"><title>AS209</title>
<g id="a_node16"><a xlink:href="/asn/209" xlink:title="AS209 ~ CenturyLink Communications, LLC [US]">
<ellipse fill="#ffffff" stroke="black" cx="403.724" cy="-326" rx="35.194" ry="18"/>
<text text-anchor="middle" x="403.724" y="-322.3" font-family="Times,serif" font-size="14.00" fill="#2c94b3">AS209</text>
</a>
</g>
</g>
<!-- AS174&#45;&gt;AS209 -->
<g id="edge18" class="edge"><title>AS174&#45;&gt;AS209</title>
<path fill="none" stroke="black" d="M323.116,-333.729C334.315,-332.642 346.956,-331.415 358.812,-330.264"/>
<polygon fill="black" stroke="black" points="359.358,-333.727 368.973,-329.277 358.682,-326.76 359.358,-333.727"/>
</g>
<!-- AS7018 -->
<g id="node17" class="node"><title>AS7018</title>
<g id="a_node17"><a xlink:href="/asn/7018" xlink:title="AS7018 ~ AT&amp;T Services, Inc. [US]">
<ellipse fill="#ffffff" stroke="black" cx="519.017" cy="-149" rx="39.7935" ry="18"/>
<text text-anchor="middle" x="519.017" y="-145.3" font-family="Times,serif" font-size="14.00" fill="#2c94b3">AS7018</text>
</a>
</g>
</g>
<!-- AS174&#45;&gt;AS7018 -->
<g id="edge19" class="edge"><title>AS174&#45;&gt;AS7018</title>
<path fill="none" stroke="black" d="M297.377,-319.56C314.272,-282.781 353.112,-199.908 364.077,-191 393.762,-166.884 436.2,-156.564 469.003,-152.174"/>
<polygon fill="black" stroke="black" points="469.771,-155.607 479.286,-150.947 468.942,-148.656 469.771,-155.607"/>
</g>
<!-- AS3356&#45;&gt;AS2497 -->
<g id="edge12" class="edge"><title>AS3356&#45;&gt;AS2497</title>
<path fill="none" stroke="black" d="M327.483,-417.111C359.495,-420.781 405.907,-428.606 443.37,-445 461.087,-452.753 478.719,-465.228 492.395,-476.235"/>
<polygon fill="black" stroke="black" points="490.433,-479.154 500.364,-482.843 494.901,-473.766 490.433,-479.154"/>
</g>
<!-- AS3549 -->
<g id="node12" class="node"><title>AS3549</title>
<g id="a_node12"><a xlink:href="/asn/3549" xlink:title="AS3549 ~ Level 3 Parent, LLC [US]">
<ellipse fill="#ffffff" stroke="black" cx="403.724" cy="-472" rx="39.7935" ry="18"/>
<text text-anchor="middle" x="403.724" y="-468.3" font-family="Times,serif" font-size="14.00" fill="#2c94b3">AS3549</text>
</a>
</g>
</g>
<!-- AS3356&#45;&gt;AS3549 -->
<g id="edge11" class="edge"><title>AS3356&#45;&gt;AS3549</title>
<path fill="none" stroke="black" d="M315.422,-427.306C330.966,-435.264 350.917,-445.478 367.822,-454.132"/>
<polygon fill="black" stroke="black" points="366.357,-457.314 376.853,-458.756 369.547,-451.083 366.357,-457.314"/>
</g>
<!-- AS3356&#45;&gt;AS6453 -->
<g id="edge13" class="edge"><title>AS3356&#45;&gt;AS6453</title>
<path fill="none" stroke="black" d="M321.896,-404.257C333.866,-400.665 347.609,-396.54 360.327,-392.723"/>
<polygon fill="black" stroke="black" points="361.682,-395.971 370.254,-389.744 359.67,-389.267 361.682,-395.971"/>
</g>
<!-- AS3257&#45;&gt;AS2497 -->
<g id="edge22" class="edge"><title>AS3257&#45;&gt;AS2497</title>
<path fill="none" stroke="black" d="M416.883,-143.188C425.368,-155.881 436.382,-173.858 443.37,-191 483.677,-289.874 505.77,-415.836 514.101,-470.999"/>
<polygon fill="black" stroke="black" points="510.663,-471.677 515.585,-481.059 517.588,-470.655 510.663,-471.677"/>
</g>
<!-- AS3257&#45;&gt;AS7018 -->
<g id="edge21" class="edge"><title>AS3257&#45;&gt;AS7018</title>
<path fill="none" stroke="black" d="M440.26,-133.214C450.488,-135.291 461.789,-137.585 472.531,-139.766"/>
<polygon fill="black" stroke="black" points="472.111,-143.252 482.607,-141.811 473.503,-136.392 472.111,-143.252"/>
</g>
<!-- AS1764&#45;&gt;AS3257 -->
<g id="edge25" class="edge"><title>AS1764&#45;&gt;AS3257</title>
<path fill="none" stroke="black" d="M324.038,-107.248C334.909,-109.838 347.064,-112.735 358.506,-115.462"/>
<polygon fill="black" stroke="black" points="357.789,-118.889 368.328,-117.803 359.412,-112.08 357.789,-118.889"/>
</g>
<!-- AS1299 -->
<g id="node18" class="node"><title>AS1299</title>
<g id="a_node18"><a xlink:href="/asn/1299" xlink:title="AS1299 ~ Telia Carrier [EU]">
<ellipse fill="#ffffff" stroke="black" cx="403.724" cy="-18" rx="39.7935" ry="18"/>
<text text-anchor="middle" x="403.724" y="-14.3" font-family="Times,serif" font-size="14.00" fill="#2c94b3">AS1299</text>
</a>
</g>
</g>
<!-- AS1764&#45;&gt;AS1299 -->
<g id="edge23" class="edge"><title>AS1764&#45;&gt;AS1299</title>
<path fill="none" stroke="black" d="M310.279,-83.7781C325.213,-72.9088 345.827,-57.9753 364.077,-45 366.898,-42.9948 369.841,-40.9154 372.789,-38.8411"/>
<polygon fill="black" stroke="black" points="374.835,-41.6812 381.013,-33.0744 370.816,-35.9497 374.835,-41.6812"/>
</g>
<!-- AS8218 -->
<g id="node19" class="node"><title>AS8218</title>
<g id="a_node19"><a xlink:href="/asn/8218" xlink:title="AS8218 ~ legacy Neotelecoms [FR]">
<ellipse fill="#ffffff" stroke="black" cx="403.724" cy="-72" rx="39.7935" ry="18"/>
<text text-anchor="middle" x="403.724" y="-68.3" font-family="Times,serif" font-size="14.00" fill="#2c94b3">AS8218</text>
</a>
</g>
</g>
<!-- AS1764&#45;&gt;AS8218 -->
<g id="edge24" class="edge"><title>AS1764&#45;&gt;AS8218</title>
<path fill="none" stroke="black" stroke-width="2" d="M324.038,-90.7524C334.909,-88.1616 347.064,-85.2649 358.506,-82.5379"/>
<polygon fill="black" stroke="black" stroke-width="2" points="359.412,-85.9201 368.328,-80.1971 357.789,-79.1108 359.412,-85.9201"/>
</g>
<!-- AS6939&#45;&gt;AS6762 -->
<g id="edge29" class="edge"><title>AS6939&#45;&gt;AS6762</title>
<path fill="none" stroke="black" d="M308.649,-602.393C327.041,-587.458 354.961,-564.786 375.611,-548.017"/>
<polygon fill="black" stroke="black" points="377.854,-550.704 383.411,-541.683 373.442,-545.27 377.854,-550.704"/>
</g>
<!-- AS6939&#45;&gt;AS3491 -->
<g id="edge28" class="edge"><title>AS6939&#45;&gt;AS3491</title>
<path fill="none" stroke="black" d="M328.103,-618C336.306,-618 345.07,-618 353.602,-618"/>
<polygon fill="black" stroke="black" points="353.841,-621.5 363.841,-618 353.841,-614.5 353.841,-621.5"/>
</g>
<!-- AS6939&#45;&gt;AS2497 -->
<g id="edge27" class="edge"><title>AS6939&#45;&gt;AS2497</title>
<path fill="none" stroke="black" d="M299.397,-635.562C311.7,-655.249 334.653,-686.103 364.077,-699 396.354,-713.148 414.42,-719.096 443.37,-699 499.883,-659.772 513.688,-572.284 517.007,-527.143"/>
<polygon fill="black" stroke="black" points="520.501,-527.345 517.62,-517.15 513.514,-526.917 520.501,-527.345"/>
</g>
<!-- AS1273 -->
<g id="node21" class="node"><title>AS1273</title>
<g id="a_node21"><a xlink:href="/asn/1273" xlink:title="AS1273 ~ Vodafone Group PLC [EU]">
<ellipse fill="#ffffff" stroke="black" cx="403.724" cy="-672" rx="39.7935" ry="18"/>
<text text-anchor="middle" x="403.724" y="-668.3" font-family="Times,serif" font-size="14.00" fill="#2c94b3">AS1273</text>
</a>
</g>
</g>
<!-- AS6939&#45;&gt;AS1273 -->
<g id="edge30" class="edge"><title>AS6939&#45;&gt;AS1273</title>
<path fill="none" stroke="black" d="M316.567,-630.934C331.561,-638.081 350.382,-647.052 366.605,-654.785"/>
<polygon fill="black" stroke="black" points="365.276,-658.028 375.809,-659.171 368.288,-651.709 365.276,-658.028"/>
</g>
<!-- AS6461 -->
<g id="node20" class="node"><title>AS6461</title>
<g id="a_node20"><a xlink:href="/asn/6461" xlink:title="AS6461 ~ Zayo Bandwidth [US]">
<ellipse fill="#ffffff" stroke="black" cx="519.017" cy="-72" rx="39.7935" ry="18"/>
<text text-anchor="middle" x="519.017" y="-68.3" font-family="Times,serif" font-size="14.00" fill="#2c94b3">AS6461</text>
</a>
</g>
</g>
<!-- AS8218&#45;&gt;AS6461 -->
<g id="edge26" class="edge"><title>AS8218&#45;&gt;AS6461</title>
<path fill="none" stroke="black" stroke-width="2" d="M443.396,-72C451.599,-72 460.363,-72 468.895,-72"/>
<polygon fill="black" stroke="black" stroke-width="2" points="469.134,-75.5001 479.134,-72 469.134,-68.5001 469.134,-75.5001"/>
</g>
</g>
</svg>
