<?xml version="1.0" encoding="UTF-8" standalone="no"?>
<!DOCTYPE svg PUBLIC "-//W3C//DTD SVG 1.1//EN"
 "http://www.w3.org/Graphics/SVG/1.1/DTD/svg11.dtd">
<!-- Generated by graphviz version 2.38.0 (20140413.2041)
 -->
<!-- Title: AS42061 IPv6 Upstream Graph Pages: 1 -->
<svg width="567pt" height="476pt"
 viewBox="0.00 0.00 566.66 476.00" xmlns="http://www.w3.org/2000/svg" xmlns:xlink="http://www.w3.org/1999/xlink">
<g id="graph0" class="graph" transform="scale(1 1) rotate(0) translate(4 472)">
<title>AS42061 IPv6 Upstream Graph</title>
<polygon fill="white" stroke="none" points="-4,4 -4,-472 562.663,-472 562.663,4 -4,4"/>
<!-- AS42061 -->
<g id="node1" class="node"><title>AS42061</title>
<g id="a_node1"><a xlink:href="/asn/42061" xlink:title="AS42061 ~ LINZAG&#45;AS [AT]">
<ellipse fill="#ffffff" stroke="black" cx="44.1961" cy="-237" rx="44.393" ry="18"/>
<text text-anchor="middle" x="44.1961" y="-233.3" font-family="Times,serif" font-size="14.00" fill="#880000">AS42061</text>
</a>
</g>
</g>
<!-- AS35369 -->
<g id="node2" class="node"><title>AS35369</title>
<g id="a_node2"><a xlink:href="/asn/35369" xlink:title="AS35369 ~ LINZAG&#45;TELEKOM&#45;AS [AT]">
<ellipse fill="#ffffff" stroke="black" cx="168.588" cy="-237" rx="44.393" ry="18"/>
<text text-anchor="middle" x="168.588" y="-233.3" font-family="Times,serif" font-size="14.00" fill="#2c94b3">AS35369</text>
</a>
</g>
</g>
<!-- AS42061&#45;&gt;AS35369 -->
<g id="edge1" class="edge"><title>AS42061&#45;&gt;AS35369</title>
<path fill="none" stroke="black" stroke-width="4.5" d="M88.6916,-237C96.898,-237 105.569,-237 114.041,-237"/>
<polygon fill="black" stroke="black" stroke-width="4.5" points="114.233,-240.938 124.233,-237 114.233,-233.063 114.233,-240.938"/>
</g>
<!-- AS1764 -->
<g id="node3" class="node"><title>AS1764</title>
<g id="a_node3"><a xlink:href="/asn/1764" xlink:title="AS1764 ~ NEXTLAYER&#45;AS [AT]">
<ellipse fill="#ffffff" stroke="black" cx="292.98" cy="-355" rx="39.7935" ry="18"/>
<text text-anchor="middle" x="292.98" y="-351.3" font-family="Times,serif" font-size="14.00" fill="#2c94b3">AS1764</text>
</a>
</g>
</g>
<!-- AS35369&#45;&gt;AS1764 -->
<g id="edge2" class="edge"><title>AS35369&#45;&gt;AS1764</title>
<path fill="none" stroke="black" stroke-width="3.75" d="M186.864,-253.656C208.032,-274.064 244.016,-308.757 267.892,-331.776"/>
<polygon fill="black" stroke="black" stroke-width="3.75" points="265.557,-334.386 275.185,-338.807 270.415,-329.347 265.557,-334.386"/>
</g>
<!-- AS2914 -->
<g id="node4" class="node"><title>AS2914</title>
<g id="a_node4"><a xlink:href="/asn/2914" xlink:title="AS2914 ~ NTT America, Inc. [US]">
<ellipse fill="#ffffff" stroke="black" cx="292.98" cy="-200" rx="39.7935" ry="18"/>
<text text-anchor="middle" x="292.98" y="-196.3" font-family="Times,serif" font-size="14.00" fill="#2c94b3">AS2914</text>
</a>
</g>
</g>
<!-- AS35369&#45;&gt;AS2914 -->
<g id="edge3" class="edge"><title>AS35369&#45;&gt;AS2914</title>
<path fill="none" stroke="black" stroke-width="4.5" d="M204.661,-226.397C218.665,-222.164 234.916,-217.251 249.574,-212.82"/>
<polygon fill="black" stroke="black" stroke-width="4.5" points="250.987,-216.506 259.42,-209.843 248.709,-208.968 250.987,-216.506"/>
</g>
<!-- AS8218 -->
<g id="node5" class="node"><title>AS8218</title>
<g id="a_node5"><a xlink:href="/asn/8218" xlink:title="AS8218 ~ legacy Neotelecoms [FR]">
<ellipse fill="#ffffff" stroke="black" cx="292.98" cy="-92" rx="39.7935" ry="18"/>
<text text-anchor="middle" x="292.98" y="-88.3" font-family="Times,serif" font-size="14.00" fill="#2c94b3">AS8218</text>
</a>
</g>
</g>
<!-- AS35369&#45;&gt;AS8218 -->
<g id="edge4" class="edge"><title>AS35369&#45;&gt;AS8218</title>
<path fill="none" stroke="black" stroke-width="0.75" d="M183.868,-220.083C205.425,-194.544 246.393,-146.008 271.241,-116.571"/>
<polygon fill="black" stroke="black" stroke-width="0.75" points="274.016,-118.709 277.792,-108.809 268.667,-114.193 274.016,-118.709"/>
</g>
<!-- AS13030 -->
<g id="node6" class="node"><title>AS13030</title>
<g id="a_node6"><a xlink:href="/asn/13030" xlink:title="AS13030 ~ Init7 (Switzerland) Ltd. [CH]">
<ellipse fill="#ffffff" stroke="black" cx="292.98" cy="-274" rx="44.393" ry="18"/>
<text text-anchor="middle" x="292.98" y="-270.3" font-family="Times,serif" font-size="14.00" fill="#2c94b3">AS13030</text>
</a>
</g>
</g>
<!-- AS35369&#45;&gt;AS13030 -->
<g id="edge5" class="edge"><title>AS35369&#45;&gt;AS13030</title>
<path fill="none" stroke="black" stroke-width="0.75" d="M204.661,-247.603C217.848,-251.589 233.028,-256.178 246.994,-260.4"/>
<polygon fill="black" stroke="black" stroke-width="0.75" points="246.318,-263.852 256.903,-263.396 248.343,-257.152 246.318,-263.852"/>
</g>
<!-- AS1299 -->
<g id="node7" class="node"><title>AS1299</title>
<g id="a_node7"><a xlink:href="/asn/1299" xlink:title="AS1299 ~ Telia Carrier [EU]">
<ellipse fill="#ffffff" stroke="black" cx="412.823" cy="-450" rx="39.7935" ry="18"/>
<text text-anchor="middle" x="412.823" y="-446.3" font-family="Times,serif" font-size="14.00" fill="#2c94b3">AS1299</text>
</a>
</g>
</g>
<!-- AS1764&#45;&gt;AS1299 -->
<g id="edge6" class="edge"><title>AS1764&#45;&gt;AS1299</title>
<path fill="none" stroke="black" stroke-width="2" d="M311.795,-371.191C327.571,-385.311 351.41,-406.119 373.176,-423 375.911,-425.121 378.797,-427.278 381.709,-429.401"/>
<polygon fill="black" stroke="black" stroke-width="2" points="379.71,-432.274 389.882,-435.236 383.777,-426.577 379.71,-432.274"/>
</g>
<!-- AS174 -->
<g id="node8" class="node"><title>AS174</title>
<g id="a_node8"><a xlink:href="/asn/174" xlink:title="AS174 ~ Cogent Communications [US]">
<ellipse fill="#ffffff" stroke="black" cx="412.823" cy="-396" rx="35.194" ry="18"/>
<text text-anchor="middle" x="412.823" y="-392.3" font-family="Times,serif" font-size="14.00" fill="#2c94b3">AS174</text>
</a>
</g>
</g>
<!-- AS1764&#45;&gt;AS174 -->
<g id="edge7" class="edge"><title>AS1764&#45;&gt;AS174</title>
<path fill="none" stroke="black" stroke-width="2" d="M324.942,-365.772C339.851,-370.959 357.868,-377.228 373.622,-382.709"/>
<polygon fill="black" stroke="black" stroke-width="2" points="372.495,-386.023 383.09,-386.003 374.795,-379.411 372.495,-386.023"/>
</g>
<!-- AS3356 -->
<g id="node9" class="node"><title>AS3356</title>
<g id="a_node9"><a xlink:href="/asn/3356" xlink:title="AS3356 ~ Level 3 Parent, LLC [US]">
<ellipse fill="#ffffff" stroke="black" cx="412.823" cy="-342" rx="39.7935" ry="18"/>
<text text-anchor="middle" x="412.823" y="-338.3" font-family="Times,serif" font-size="14.00" fill="#2c94b3">AS3356</text>
</a>
</g>
</g>
<!-- AS1764&#45;&gt;AS3356 -->
<g id="edge8" class="edge"><title>AS1764&#45;&gt;AS3356</title>
<path fill="none" stroke="black" d="M331.591,-350.851C341.902,-349.713 353.219,-348.465 364.019,-347.274"/>
<polygon fill="black" stroke="black" points="364.61,-350.73 374.166,-346.154 363.842,-343.772 364.61,-350.73"/>
</g>
<!-- AS701 -->
<g id="node11" class="node"><title>AS701</title>
<g id="a_node11"><a xlink:href="/asn/701" xlink:title="AS701 ~ UUNET [US]">
<ellipse fill="#ffffff" stroke="black" cx="412.823" cy="-234" rx="35.194" ry="18"/>
<text text-anchor="middle" x="412.823" y="-230.3" font-family="Times,serif" font-size="14.00" fill="#2c94b3">AS701</text>
</a>
</g>
</g>
<!-- AS2914&#45;&gt;AS701 -->
<g id="edge10" class="edge"><title>AS2914&#45;&gt;AS701</title>
<path fill="none" stroke="black" d="M326.806,-209.471C340.861,-213.526 357.398,-218.297 372.133,-222.549"/>
<polygon fill="black" stroke="black" points="371.415,-225.984 381.993,-225.394 373.356,-219.259 371.415,-225.984"/>
</g>
<!-- AS2497 -->
<g id="node12" class="node"><title>AS2497</title>
<g id="a_node12"><a xlink:href="/asn/2497" xlink:title="AS2497 ~ Internet Initiative Japan Inc. [JP]">
<ellipse fill="#ffffff" stroke="black" cx="412.823" cy="-288" rx="39.7935" ry="18"/>
<text text-anchor="middle" x="412.823" y="-284.3" font-family="Times,serif" font-size="14.00" fill="#2c94b3">AS2497</text>
</a>
</g>
</g>
<!-- AS2914&#45;&gt;AS2497 -->
<g id="edge11" class="edge"><title>AS2914&#45;&gt;AS2497</title>
<path fill="none" stroke="black" d="M313.64,-215.55C329.548,-228.034 352.608,-245.907 373.176,-261 375.966,-263.047 378.889,-265.155 381.824,-267.247"/>
<polygon fill="black" stroke="black" points="379.842,-270.132 390.031,-273.039 383.879,-264.413 379.842,-270.132"/>
</g>
<!-- AS6762 -->
<g id="node13" class="node"><title>AS6762</title>
<g id="a_node13"><a xlink:href="/asn/6762" xlink:title="AS6762 ~ TELECOM ITALIA SPARKLE S.p.A. [IT]">
<ellipse fill="#ffffff" stroke="black" cx="412.823" cy="-180" rx="39.7935" ry="18"/>
<text text-anchor="middle" x="412.823" y="-176.3" font-family="Times,serif" font-size="14.00" fill="#2c94b3">AS6762</text>
</a>
</g>
</g>
<!-- AS2914&#45;&gt;AS6762 -->
<g id="edge12" class="edge"><title>AS2914&#45;&gt;AS6762</title>
<path fill="none" stroke="black" d="M330.299,-193.836C341.387,-191.954 353.735,-189.859 365.398,-187.879"/>
<polygon fill="black" stroke="black" points="366.148,-191.302 375.422,-186.178 364.977,-184.401 366.148,-191.302"/>
</g>
<!-- AS7018 -->
<g id="node14" class="node"><title>AS7018</title>
<g id="a_node14"><a xlink:href="/asn/7018" xlink:title="AS7018 ~ AT&amp;T Services, Inc. [US]">
<ellipse fill="#ffffff" stroke="black" cx="412.823" cy="-126" rx="39.7935" ry="18"/>
<text text-anchor="middle" x="412.823" y="-122.3" font-family="Times,serif" font-size="14.00" fill="#2c94b3">AS7018</text>
</a>
</g>
</g>
<!-- AS2914&#45;&gt;AS7018 -->
<g id="edge13" class="edge"><title>AS2914&#45;&gt;AS7018</title>
<path fill="none" stroke="black" d="M316.981,-185.556C334.988,-174.249 360.232,-158.397 380.149,-145.89"/>
<polygon fill="black" stroke="black" points="382.273,-148.689 388.88,-140.407 378.55,-142.761 382.273,-148.689"/>
</g>
<!-- AS3491 -->
<g id="node15" class="node"><title>AS3491</title>
<g id="a_node15"><a xlink:href="/asn/3491" xlink:title="AS3491 ~ PCCW Global, Inc. [US]">
<ellipse fill="#ffffff" stroke="black" cx="412.823" cy="-72" rx="39.7935" ry="18"/>
<text text-anchor="middle" x="412.823" y="-68.3" font-family="Times,serif" font-size="14.00" fill="#2c94b3">AS3491</text>
</a>
</g>
</g>
<!-- AS2914&#45;&gt;AS3491 -->
<g id="edge14" class="edge"><title>AS2914&#45;&gt;AS3491</title>
<path fill="none" stroke="black" d="M305.222,-182.652C319.462,-161.456 345.501,-125.19 373.176,-99 375.554,-96.7497 378.133,-94.5435 380.791,-92.4225"/>
<polygon fill="black" stroke="black" points="382.981,-95.1547 388.884,-86.3562 378.783,-89.5536 382.981,-95.1547"/>
</g>
<!-- AS6461 -->
<g id="node16" class="node"><title>AS6461</title>
<g id="a_node16"><a xlink:href="/asn/6461" xlink:title="AS6461 ~ Zayo Bandwidth [US]">
<ellipse fill="#ffffff" stroke="black" cx="412.823" cy="-18" rx="39.7935" ry="18"/>
<text text-anchor="middle" x="412.823" y="-14.3" font-family="Times,serif" font-size="14.00" fill="#2c94b3">AS6461</text>
</a>
</g>
</g>
<!-- AS8218&#45;&gt;AS6461 -->
<g id="edge15" class="edge"><title>AS8218&#45;&gt;AS6461</title>
<path fill="none" stroke="black" d="M316.981,-77.5564C334.988,-66.2491 360.232,-50.3971 380.149,-37.89"/>
<polygon fill="black" stroke="black" points="382.273,-40.6893 388.88,-32.4072 378.55,-34.7612 382.273,-40.6893"/>
</g>
<!-- AS13030&#45;&gt;AS2497 -->
<g id="edge17" class="edge"><title>AS13030&#45;&gt;AS2497</title>
<path fill="none" stroke="black" d="M335.527,-278.936C344.773,-280.034 354.646,-281.207 364.118,-282.332"/>
<polygon fill="black" stroke="black" points="363.846,-285.825 374.189,-283.529 364.672,-278.874 363.846,-285.825"/>
</g>
<!-- AS209 -->
<g id="node10" class="node"><title>AS209</title>
<g id="a_node10"><a xlink:href="/asn/209" xlink:title="AS209 ~ CenturyLink Communications, LLC [US]">
<ellipse fill="#ffffff" stroke="black" cx="523.566" cy="-423" rx="35.194" ry="18"/>
<text text-anchor="middle" x="523.566" y="-419.3" font-family="Times,serif" font-size="14.00" fill="#2c94b3">AS209</text>
</a>
</g>
</g>
<!-- AS1299&#45;&gt;AS209 -->
<g id="edge9" class="edge"><title>AS1299&#45;&gt;AS209</title>
<path fill="none" stroke="black" d="M447.932,-441.531C458.614,-438.879 470.514,-435.924 481.617,-433.167"/>
<polygon fill="black" stroke="black" points="482.67,-436.512 491.532,-430.705 480.983,-429.718 482.67,-436.512"/>
</g>
<!-- AS174&#45;&gt;AS209 -->
<g id="edge16" class="edge"><title>AS174&#45;&gt;AS209</title>
<path fill="none" stroke="black" d="M444.694,-403.665C456.173,-406.515 469.382,-409.795 481.623,-412.834"/>
<polygon fill="black" stroke="black" points="481.07,-416.303 491.619,-415.316 482.757,-409.509 481.07,-416.303"/>
</g>
</g>
</svg>
