<?xml version="1.0" encoding="UTF-8" standalone="no"?>
<!DOCTYPE svg PUBLIC "-//W3C//DTD SVG 1.1//EN"
 "http://www.w3.org/Graphics/SVG/1.1/DTD/svg11.dtd">
<!-- Generated by graphviz version 2.38.0 (20140413.2041)
 -->
<!-- Title: AS42061 Combined Upstream Graph Pages: 1 -->
<svg width="585pt" height="746pt"
 viewBox="0.00 0.00 584.86 746.00" xmlns="http://www.w3.org/2000/svg" xmlns:xlink="http://www.w3.org/1999/xlink">
<g id="graph0" class="graph" transform="scale(1 1) rotate(0) translate(4 742)">
<title>AS42061 Combined Upstream Graph</title>
<polygon fill="white" stroke="none" points="-4,4 -4,-742 580.862,-742 580.862,4 -4,4"/>
<!-- AS42061 -->
<g id="node1" class="node"><title>AS42061</title>
<g id="a_node1"><a xlink:href="/asn/42061" xlink:title="AS42061 ~ LINZAG&#45;AS [AT]">
<ellipse fill="#ffffff" stroke="black" cx="44.1961" cy="-544" rx="44.393" ry="18"/>
<text text-anchor="middle" x="44.1961" y="-540.3" font-family="Times,serif" font-size="14.00" fill="#880000">AS42061</text>
</a>
</g>
</g>
<!-- AS8412 -->
<g id="node2" class="node"><title>AS8412</title>
<g id="a_node2"><a xlink:href="/asn/8412" xlink:title="AS8412 ~ Rennweg 97&#45;99 [AT]">
<ellipse fill="#ffffff" stroke="black" cx="168.588" cy="-585" rx="39.7935" ry="18"/>
<text text-anchor="middle" x="168.588" y="-581.3" font-family="Times,serif" font-size="14.00" fill="#2c94b3">AS8412</text>
</a>
</g>
</g>
<!-- AS42061&#45;&gt;AS8412 -->
<g id="edge1" class="edge"><title>AS42061&#45;&gt;AS8412</title>
<path fill="none" stroke="black" stroke-width="0.964286" d="M78.9643,-555.312C93.591,-560.212 110.853,-565.994 126.239,-571.148"/>
<polygon fill="black" stroke="black" stroke-width="0.964286" points="125.438,-574.571 136.032,-574.429 127.662,-567.934 125.438,-574.571"/>
</g>
<!-- AS35369 -->
<g id="node3" class="node"><title>AS35369</title>
<g id="a_node3"><a xlink:href="/asn/35369" xlink:title="AS35369 ~ LINZAG&#45;TELEKOM&#45;AS [AT]">
<ellipse fill="#ffffff" stroke="black" cx="168.588" cy="-504" rx="44.393" ry="18"/>
<text text-anchor="middle" x="168.588" y="-500.3" font-family="Times,serif" font-size="14.00" fill="#2c94b3">AS35369</text>
</a>
</g>
</g>
<!-- AS42061&#45;&gt;AS35369 -->
<g id="edge2" class="edge"><title>AS42061&#45;&gt;AS35369</title>
<path fill="none" stroke="black" stroke-width="4.5" d="M79.2891,-532.858C93.0819,-528.35 109.177,-523.09 123.819,-518.305"/>
<polygon fill="black" stroke="black" stroke-width="4.5" points="125.396,-521.932 133.678,-515.082 122.95,-514.446 125.396,-521.932"/>
</g>
<!-- AS3320 -->
<g id="node4" class="node"><title>AS3320</title>
<g id="a_node4"><a xlink:href="/asn/3320" xlink:title="AS3320 ~ DTAG [DE]">
<ellipse fill="#ffffff" stroke="black" cx="292.98" cy="-598" rx="39.7935" ry="18"/>
<text text-anchor="middle" x="292.98" y="-594.3" font-family="Times,serif" font-size="14.00" fill="#2c94b3">AS3320</text>
</a>
</g>
</g>
<!-- AS8412&#45;&gt;AS3320 -->
<g id="edge3" class="edge"><title>AS8412&#45;&gt;AS3320</title>
<path fill="none" stroke="black" stroke-width="4.5" d="M207.309,-589.007C218.942,-590.242 231.909,-591.619 244.13,-592.917"/>
<polygon fill="black" stroke="black" stroke-width="4.5" points="243.814,-596.844 254.174,-593.984 244.646,-589.013 243.814,-596.844"/>
</g>
<!-- AS8218 -->
<g id="node10" class="node"><title>AS8218</title>
<g id="a_node10"><a xlink:href="/asn/8218" xlink:title="AS8218 ~ legacy Neotelecoms [FR]">
<ellipse fill="#ffffff" stroke="black" cx="292.98" cy="-342" rx="39.7935" ry="18"/>
<text text-anchor="middle" x="292.98" y="-338.3" font-family="Times,serif" font-size="14.00" fill="#2c94b3">AS8218</text>
</a>
</g>
</g>
<!-- AS35369&#45;&gt;AS8218 -->
<g id="edge9" class="edge"><title>AS35369&#45;&gt;AS8218</title>
<path fill="none" stroke="black" stroke-width="0.9" d="M182.686,-486.663C204.311,-458.04 247.582,-400.767 272.705,-367.514"/>
<polygon fill="black" stroke="black" stroke-width="0.9" points="275.741,-369.301 278.976,-359.212 270.156,-365.081 275.741,-369.301"/>
</g>
<!-- AS2914 -->
<g id="node11" class="node"><title>AS2914</title>
<g id="a_node11"><a xlink:href="/asn/2914" xlink:title="AS2914 ~ NTT America, Inc. [US]">
<ellipse fill="#ffffff" stroke="black" cx="292.98" cy="-504" rx="39.7935" ry="18"/>
<text text-anchor="middle" x="292.98" y="-500.3" font-family="Times,serif" font-size="14.00" fill="#2c94b3">AS2914</text>
</a>
</g>
</g>
<!-- AS35369&#45;&gt;AS2914 -->
<g id="edge10" class="edge"><title>AS35369&#45;&gt;AS2914</title>
<path fill="none" stroke="black" stroke-width="4.5" d="M213.084,-504C222.773,-504 233.11,-504 243.002,-504"/>
<polygon fill="black" stroke="black" stroke-width="4.5" points="243.105,-507.938 253.105,-504 243.105,-500.063 243.105,-507.938"/>
</g>
<!-- AS1764 -->
<g id="node12" class="node"><title>AS1764</title>
<g id="a_node12"><a xlink:href="/asn/1764" xlink:title="AS1764 ~ NEXTLAYER&#45;AS [AT]">
<ellipse fill="#ffffff" stroke="black" cx="292.98" cy="-126" rx="39.7935" ry="18"/>
<text text-anchor="middle" x="292.98" y="-122.3" font-family="Times,serif" font-size="14.00" fill="#2c94b3">AS1764</text>
</a>
</g>
</g>
<!-- AS35369&#45;&gt;AS1764 -->
<g id="edge11" class="edge"><title>AS35369&#45;&gt;AS1764</title>
<path fill="none" stroke="black" stroke-width="2.7" d="M175.409,-486.023C195.06,-425.331 259.049,-227.707 282.905,-154.028"/>
<polygon fill="black" stroke="black" stroke-width="2.7" points="286.373,-154.679 286.124,-144.087 279.714,-152.523 286.373,-154.679"/>
</g>
<!-- AS13030 -->
<g id="node13" class="node"><title>AS13030</title>
<g id="a_node13"><a xlink:href="/asn/13030" xlink:title="AS13030 ~ Init7 (Switzerland) Ltd. [CH]">
<ellipse fill="#ffffff" stroke="black" cx="292.98" cy="-706" rx="44.393" ry="18"/>
<text text-anchor="middle" x="292.98" y="-702.3" font-family="Times,serif" font-size="14.00" fill="#2c94b3">AS13030</text>
</a>
</g>
</g>
<!-- AS35369&#45;&gt;AS13030 -->
<g id="edge12" class="edge"><title>AS35369&#45;&gt;AS13030</title>
<path fill="none" stroke="black" stroke-width="0.3" d="M184.436,-520.899C193.187,-531.25 204.192,-544.971 212.784,-558 213.719,-559.417 255.281,-637.237 277.81,-679.446"/>
<polygon fill="black" stroke="black" stroke-width="0.3" points="274.773,-681.189 282.569,-688.363 280.948,-677.893 274.773,-681.189"/>
</g>
<!-- AS1239 -->
<g id="node5" class="node"><title>AS1239</title>
<g id="a_node5"><a xlink:href="/asn/1239" xlink:title="AS1239 ~ Sprint [US]">
<ellipse fill="#ffffff" stroke="black" cx="417.373" cy="-504" rx="39.7935" ry="18"/>
<text text-anchor="middle" x="417.373" y="-500.3" font-family="Times,serif" font-size="14.00" fill="#2c94b3">AS1239</text>
</a>
</g>
</g>
<!-- AS3320&#45;&gt;AS1239 -->
<g id="edge4" class="edge"><title>AS3320&#45;&gt;AS1239</title>
<path fill="none" stroke="black" d="M311.624,-581.801C327.29,-567.731 351.064,-547.137 373.176,-531 376.552,-528.537 380.153,-526.063 383.781,-523.667"/>
<polygon fill="black" stroke="black" points="385.681,-526.606 392.203,-518.256 381.898,-520.716 385.681,-526.606"/>
</g>
<!-- AS2497 -->
<g id="node6" class="node"><title>AS2497</title>
<g id="a_node6"><a xlink:href="/asn/2497" xlink:title="AS2497 ~ Internet Initiative Japan Inc. [JP]">
<ellipse fill="#ffffff" stroke="black" cx="417.373" cy="-720" rx="39.7935" ry="18"/>
<text text-anchor="middle" x="417.373" y="-716.3" font-family="Times,serif" font-size="14.00" fill="#2c94b3">AS2497</text>
</a>
</g>
</g>
<!-- AS3320&#45;&gt;AS2497 -->
<g id="edge5" class="edge"><title>AS3320&#45;&gt;AS2497</title>
<path fill="none" stroke="black" d="M305.728,-615.194C320.075,-635.386 345.829,-669.147 373.176,-693 376.165,-695.607 379.432,-698.129 382.789,-700.516"/>
<polygon fill="black" stroke="black" points="380.948,-703.496 391.207,-706.142 384.838,-697.676 380.948,-703.496"/>
</g>
<!-- AS701 -->
<g id="node7" class="node"><title>AS701</title>
<g id="a_node7"><a xlink:href="/asn/701" xlink:title="AS701 ~ UUNET [US]">
<ellipse fill="#ffffff" stroke="black" cx="417.373" cy="-666" rx="35.194" ry="18"/>
<text text-anchor="middle" x="417.373" y="-662.3" font-family="Times,serif" font-size="14.00" fill="#2c94b3">AS701</text>
</a>
</g>
</g>
<!-- AS3320&#45;&gt;AS701 -->
<g id="edge6" class="edge"><title>AS3320&#45;&gt;AS701</title>
<path fill="none" stroke="black" d="M318.748,-611.761C337.526,-622.194 363.498,-636.624 383.934,-647.977"/>
<polygon fill="black" stroke="black" points="382.446,-651.155 392.887,-652.952 385.846,-645.036 382.446,-651.155"/>
</g>
<!-- AS6762 -->
<g id="node8" class="node"><title>AS6762</title>
<g id="a_node8"><a xlink:href="/asn/6762" xlink:title="AS6762 ~ TELECOM ITALIA SPARKLE S.p.A. [IT]">
<ellipse fill="#ffffff" stroke="black" cx="417.373" cy="-612" rx="39.7935" ry="18"/>
<text text-anchor="middle" x="417.373" y="-608.3" font-family="Times,serif" font-size="14.00" fill="#2c94b3">AS6762</text>
</a>
</g>
</g>
<!-- AS3320&#45;&gt;AS6762 -->
<g id="edge7" class="edge"><title>AS3320&#45;&gt;AS6762</title>
<path fill="none" stroke="black" d="M331.701,-602.315C343.334,-603.645 356.301,-605.129 368.522,-606.527"/>
<polygon fill="black" stroke="black" points="368.233,-610.016 378.566,-607.675 369.029,-603.062 368.233,-610.016"/>
</g>
<!-- AS6453 -->
<g id="node9" class="node"><title>AS6453</title>
<g id="a_node9"><a xlink:href="/asn/6453" xlink:title="AS6453 ~ TATA COMMUNICATIONS (AMERICA) INC [US]">
<ellipse fill="#ffffff" stroke="black" cx="417.373" cy="-558" rx="39.7935" ry="18"/>
<text text-anchor="middle" x="417.373" y="-554.3" font-family="Times,serif" font-size="14.00" fill="#2c94b3">AS6453</text>
</a>
</g>
</g>
<!-- AS3320&#45;&gt;AS6453 -->
<g id="edge8" class="edge"><title>AS3320&#45;&gt;AS6453</title>
<path fill="none" stroke="black" d="M325.499,-587.699C340.515,-582.792 358.676,-576.856 374.803,-571.586"/>
<polygon fill="black" stroke="black" points="376.117,-574.839 384.535,-568.405 373.942,-568.185 376.117,-574.839"/>
</g>
<!-- AS6461 -->
<g id="node14" class="node"><title>AS6461</title>
<g id="a_node14"><a xlink:href="/asn/6461" xlink:title="AS6461 ~ Zayo Bandwidth [US]">
<ellipse fill="#ffffff" stroke="black" cx="417.373" cy="-234" rx="39.7935" ry="18"/>
<text text-anchor="middle" x="417.373" y="-230.3" font-family="Times,serif" font-size="14.00" fill="#2c94b3">AS6461</text>
</a>
</g>
</g>
<!-- AS8218&#45;&gt;AS6461 -->
<g id="edge13" class="edge"><title>AS8218&#45;&gt;AS6461</title>
<path fill="none" stroke="black" stroke-width="3" d="M308.133,-325.337C323.234,-308.106 348.355,-280.976 373.176,-261 376.432,-258.38 379.957,-255.808 383.542,-253.354"/>
<polygon fill="black" stroke="black" stroke-width="3" points="385.46,-256.281 391.914,-247.879 381.629,-250.423 385.46,-256.281"/>
</g>
<!-- AS2914&#45;&gt;AS1239 -->
<g id="edge17" class="edge"><title>AS2914&#45;&gt;AS1239</title>
<path fill="none" stroke="black" d="M332.706,-504C343.644,-504 355.695,-504 367.161,-504"/>
<polygon fill="black" stroke="black" points="367.479,-507.5 377.479,-504 367.479,-500.5 367.479,-507.5"/>
</g>
<!-- AS2914&#45;&gt;AS2497 -->
<g id="edge19" class="edge"><title>AS2914&#45;&gt;AS2497</title>
<path fill="none" stroke="black" stroke-width="2" d="M306.979,-521.122C316.418,-534.211 328.93,-553.009 337.176,-571 360.733,-622.392 338.983,-647.979 373.176,-693 375.45,-695.993 378.159,-698.737 381.096,-701.231"/>
<polygon fill="black" stroke="black" stroke-width="2" points="379.137,-704.135 389.263,-707.251 383.291,-698.5 379.137,-704.135"/>
</g>
<!-- AS2914&#45;&gt;AS701 -->
<g id="edge20" class="edge"><title>AS2914&#45;&gt;AS701</title>
<path fill="none" stroke="black" d="M305.581,-521.098C314.524,-534.488 327.035,-553.683 337.176,-571 354.457,-600.509 349.879,-613.968 373.176,-639 376.091,-642.132 379.447,-645.044 382.973,-647.708"/>
<polygon fill="black" stroke="black" points="381.151,-650.702 391.381,-653.459 385.103,-644.925 381.151,-650.702"/>
</g>
<!-- AS2914&#45;&gt;AS6762 -->
<g id="edge14" class="edge"><title>AS2914&#45;&gt;AS6762</title>
<path fill="none" stroke="black" stroke-width="2" d="M308.133,-520.663C323.234,-537.894 348.355,-565.024 373.176,-585 376.432,-587.62 379.957,-590.192 383.542,-592.646"/>
<polygon fill="black" stroke="black" stroke-width="2" points="381.629,-595.577 391.914,-598.121 385.46,-589.719 381.629,-595.577"/>
</g>
<!-- AS2914&#45;&gt;AS6453 -->
<g id="edge22" class="edge"><title>AS2914&#45;&gt;AS6453</title>
<path fill="none" stroke="black" d="M322.06,-516.389C339.008,-523.866 360.805,-533.483 379.174,-541.588"/>
<polygon fill="black" stroke="black" points="377.862,-544.834 388.424,-545.669 380.688,-538.43 377.862,-544.834"/>
</g>
<!-- AS7018 -->
<g id="node15" class="node"><title>AS7018</title>
<g id="a_node15"><a xlink:href="/asn/7018" xlink:title="AS7018 ~ AT&amp;T Services, Inc. [US]">
<ellipse fill="#ffffff" stroke="black" cx="417.373" cy="-396" rx="39.7935" ry="18"/>
<text text-anchor="middle" x="417.373" y="-392.3" font-family="Times,serif" font-size="14.00" fill="#2c94b3">AS7018</text>
</a>
</g>
</g>
<!-- AS2914&#45;&gt;AS7018 -->
<g id="edge15" class="edge"><title>AS2914&#45;&gt;AS7018</title>
<path fill="none" stroke="black" stroke-width="2" d="M308.133,-487.337C323.234,-470.106 348.355,-442.976 373.176,-423 376.432,-420.38 379.957,-417.808 383.542,-415.354"/>
<polygon fill="black" stroke="black" stroke-width="2" points="385.46,-418.281 391.914,-409.879 381.629,-412.423 385.46,-418.281"/>
</g>
<!-- AS12956 -->
<g id="node16" class="node"><title>AS12956</title>
<g id="a_node16"><a xlink:href="/asn/12956" xlink:title="AS12956 ~ TELXIUS [ES]">
<ellipse fill="#ffffff" stroke="black" cx="417.373" cy="-342" rx="44.393" ry="18"/>
<text text-anchor="middle" x="417.373" y="-338.3" font-family="Times,serif" font-size="14.00" fill="#2c94b3">AS12956</text>
</a>
</g>
</g>
<!-- AS2914&#45;&gt;AS12956 -->
<g id="edge16" class="edge"><title>AS2914&#45;&gt;AS12956</title>
<path fill="none" stroke="black" d="M301.171,-486.025C312.938,-458.318 338.512,-404.652 373.176,-369 375.592,-366.515 378.281,-364.158 381.102,-361.949"/>
<polygon fill="black" stroke="black" points="383.167,-364.775 389.286,-356.127 379.109,-359.071 383.167,-364.775"/>
</g>
<!-- AS3491 -->
<g id="node17" class="node"><title>AS3491</title>
<g id="a_node17"><a xlink:href="/asn/3491" xlink:title="AS3491 ~ PCCW Global, Inc. [US]">
<ellipse fill="#ffffff" stroke="black" cx="417.373" cy="-288" rx="39.7935" ry="18"/>
<text text-anchor="middle" x="417.373" y="-284.3" font-family="Times,serif" font-size="14.00" fill="#2c94b3">AS3491</text>
</a>
</g>
</g>
<!-- AS2914&#45;&gt;AS3491 -->
<g id="edge18" class="edge"><title>AS2914&#45;&gt;AS3491</title>
<path fill="none" stroke="black" stroke-width="2" d="M297.674,-485.925C305.814,-449.852 328.247,-367.86 373.176,-315 375.611,-312.136 378.427,-309.479 381.432,-307.039"/>
<polygon fill="black" stroke="black" stroke-width="2" points="383.62,-309.776 389.692,-301.094 379.531,-304.095 383.62,-309.776"/>
</g>
<!-- AS1273 -->
<g id="node18" class="node"><title>AS1273</title>
<g id="a_node18"><a xlink:href="/asn/1273" xlink:title="AS1273 ~ Vodafone Group PLC [EU]">
<ellipse fill="#ffffff" stroke="black" cx="417.373" cy="-450" rx="39.7935" ry="18"/>
<text text-anchor="middle" x="417.373" y="-446.3" font-family="Times,serif" font-size="14.00" fill="#2c94b3">AS1273</text>
</a>
</g>
</g>
<!-- AS2914&#45;&gt;AS1273 -->
<g id="edge21" class="edge"><title>AS2914&#45;&gt;AS1273</title>
<path fill="none" stroke="black" d="M322.06,-491.611C339.008,-484.134 360.805,-474.517 379.174,-466.412"/>
<polygon fill="black" stroke="black" points="380.688,-469.57 388.424,-462.331 377.862,-463.166 380.688,-469.57"/>
</g>
<!-- AS1299 -->
<g id="node19" class="node"><title>AS1299</title>
<g id="a_node19"><a xlink:href="/asn/1299" xlink:title="AS1299 ~ Telia Carrier [EU]">
<ellipse fill="#ffffff" stroke="black" cx="417.373" cy="-180" rx="39.7935" ry="18"/>
<text text-anchor="middle" x="417.373" y="-176.3" font-family="Times,serif" font-size="14.00" fill="#2c94b3">AS1299</text>
</a>
</g>
</g>
<!-- AS1764&#45;&gt;AS1299 -->
<g id="edge23" class="edge"><title>AS1764&#45;&gt;AS1299</title>
<path fill="none" stroke="black" stroke-width="3" d="M322.06,-138.389C339.008,-145.866 360.805,-155.483 379.174,-163.588"/>
<polygon fill="black" stroke="black" stroke-width="3" points="377.862,-166.834 388.424,-167.669 380.688,-160.43 377.862,-166.834"/>
</g>
<!-- AS174 -->
<g id="node20" class="node"><title>AS174</title>
<g id="a_node20"><a xlink:href="/asn/174" xlink:title="AS174 ~ Cogent Communications [US]">
<ellipse fill="#ffffff" stroke="black" cx="417.373" cy="-126" rx="35.194" ry="18"/>
<text text-anchor="middle" x="417.373" y="-122.3" font-family="Times,serif" font-size="14.00" fill="#2c94b3">AS174</text>
</a>
</g>
</g>
<!-- AS1764&#45;&gt;AS174 -->
<g id="edge24" class="edge"><title>AS1764&#45;&gt;AS174</title>
<path fill="none" stroke="black" stroke-width="2" d="M332.706,-126C345.195,-126 359.134,-126 371.998,-126"/>
<polygon fill="black" stroke="black" stroke-width="2" points="372.035,-129.5 382.035,-126 372.035,-122.5 372.035,-129.5"/>
</g>
<!-- AS3356 -->
<g id="node21" class="node"><title>AS3356</title>
<g id="a_node21"><a xlink:href="/asn/3356" xlink:title="AS3356 ~ Level 3 Parent, LLC [US]">
<ellipse fill="#ffffff" stroke="black" cx="417.373" cy="-72" rx="39.7935" ry="18"/>
<text text-anchor="middle" x="417.373" y="-68.3" font-family="Times,serif" font-size="14.00" fill="#2c94b3">AS3356</text>
</a>
</g>
</g>
<!-- AS1764&#45;&gt;AS3356 -->
<g id="edge25" class="edge"><title>AS1764&#45;&gt;AS3356</title>
<path fill="none" stroke="black" stroke-width="3" d="M322.06,-113.611C339.008,-106.134 360.805,-96.5168 379.174,-88.4121"/>
<polygon fill="black" stroke="black" stroke-width="3" points="380.688,-91.5699 388.424,-84.331 377.862,-85.1655 380.688,-91.5699"/>
</g>
<!-- AS3257 -->
<g id="node22" class="node"><title>AS3257</title>
<g id="a_node22"><a xlink:href="/asn/3257" xlink:title="AS3257 ~ GTT [DE]">
<ellipse fill="#ffffff" stroke="black" cx="417.373" cy="-18" rx="39.7935" ry="18"/>
<text text-anchor="middle" x="417.373" y="-14.3" font-family="Times,serif" font-size="14.00" fill="#2c94b3">AS3257</text>
</a>
</g>
</g>
<!-- AS1764&#45;&gt;AS3257 -->
<g id="edge26" class="edge"><title>AS1764&#45;&gt;AS3257</title>
<path fill="none" stroke="black" d="M308.133,-109.337C323.234,-92.1061 348.355,-64.9756 373.176,-45 376.432,-42.3801 379.957,-39.8076 383.542,-37.3541"/>
<polygon fill="black" stroke="black" points="385.46,-40.2814 391.914,-31.8793 381.629,-34.4228 385.46,-40.2814"/>
</g>
<!-- AS13030&#45;&gt;AS2497 -->
<g id="edge30" class="edge"><title>AS13030&#45;&gt;AS2497</title>
<path fill="none" stroke="black" d="M335.759,-710.779C346.254,-711.979 357.6,-713.277 368.373,-714.51"/>
<polygon fill="black" stroke="black" points="368.147,-718.006 378.48,-715.666 368.942,-711.052 368.147,-718.006"/>
</g>
<!-- AS209 -->
<g id="node24" class="node"><title>AS209</title>
<g id="a_node24"><a xlink:href="/asn/209" xlink:title="AS209 ~ CenturyLink Communications, LLC [US]">
<ellipse fill="#ffffff" stroke="black" cx="537.215" cy="-207" rx="35.194" ry="18"/>
<text text-anchor="middle" x="537.215" y="-203.3" font-family="Times,serif" font-size="14.00" fill="#2c94b3">AS209</text>
</a>
</g>
</g>
<!-- AS6461&#45;&gt;AS209 -->
<g id="edge29" class="edge"><title>AS6461&#45;&gt;AS209</title>
<path fill="none" stroke="black" d="M453.092,-226.045C466.184,-223.045 481.207,-219.604 494.847,-216.478"/>
<polygon fill="black" stroke="black" points="495.989,-219.807 504.955,-214.162 494.425,-212.984 495.989,-219.807"/>
</g>
<!-- AS1299&#45;&gt;AS209 -->
<g id="edge28" class="edge"><title>AS1299&#45;&gt;AS209</title>
<path fill="none" stroke="black" d="M453.092,-187.955C466.184,-190.955 481.207,-194.396 494.847,-197.522"/>
<polygon fill="black" stroke="black" points="494.425,-201.016 504.955,-199.838 495.989,-194.193 494.425,-201.016"/>
</g>
<!-- AS3549 -->
<g id="node23" class="node"><title>AS3549</title>
<g id="a_node23"><a xlink:href="/asn/3549" xlink:title="AS3549 ~ Level 3 Parent, LLC [US]">
<ellipse fill="#ffffff" stroke="black" cx="537.215" cy="-72" rx="39.7935" ry="18"/>
<text text-anchor="middle" x="537.215" y="-68.3" font-family="Times,serif" font-size="14.00" fill="#2c94b3">AS3549</text>
</a>
</g>
</g>
<!-- AS3356&#45;&gt;AS3549 -->
<g id="edge27" class="edge"><title>AS3356&#45;&gt;AS3549</title>
<path fill="none" stroke="black" d="M457.285,-72C466.839,-72 477.188,-72 487.151,-72"/>
<polygon fill="black" stroke="black" points="487.343,-75.5001 497.343,-72 487.343,-68.5001 487.343,-75.5001"/>
</g>
</g>
</svg>
