<?xml version="1.0" encoding="UTF-8" standalone="no"?>
<!DOCTYPE svg PUBLIC "-//W3C//DTD SVG 1.1//EN"
 "http://www.w3.org/Graphics/SVG/1.1/DTD/svg11.dtd">
<!-- Generated by graphviz version 2.38.0 (20140413.2041)
 -->
<!-- Title: AS8666 Combined Upstream Graph Pages: 1 -->
<svg width="567pt" height="689pt"
 viewBox="0.00 0.00 566.66 689.40" xmlns="http://www.w3.org/2000/svg" xmlns:xlink="http://www.w3.org/1999/xlink">
<g id="graph0" class="graph" transform="scale(1 1) rotate(0) translate(4 685.405)">
<title>AS8666 Combined Upstream Graph</title>
<polygon fill="white" stroke="none" points="-4,4 -4,-685.405 562.663,-685.405 562.663,4 -4,4"/>
<!-- AS8666 -->
<g id="node1" class="node"><title>AS8666</title>
<g id="a_node1"><a xlink:href="/asn/8666" xlink:title="AS8666 ~ FiberLink GmbH [AT]">
<ellipse fill="#ffffff" stroke="black" cx="39.6465" cy="-385" rx="39.7935" ry="18"/>
<text text-anchor="middle" x="39.6465" y="-381.3" font-family="Times,serif" font-size="14.00" fill="#880000">AS8666</text>
</a>
</g>
</g>
<!-- AS47147 -->
<g id="node2" class="node"><title>AS47147</title>
<g id="a_node2"><a xlink:href="/asn/47147" xlink:title="AS47147 ~ ANEXIA Internetdienstleistungs GmbH [AT]">
<ellipse fill="#ffffff" stroke="black" cx="159.489" cy="-412" rx="44.393" ry="18"/>
<text text-anchor="middle" x="159.489" y="-408.3" font-family="Times,serif" font-size="14.00" fill="#2c94b3">AS47147</text>
</a>
</g>
</g>
<!-- AS8666&#45;&gt;AS47147 -->
<g id="edge1" class="edge"><title>AS8666&#45;&gt;AS47147</title>
<path fill="none" stroke="black" stroke-width="4.5" d="M75.3658,-392.955C86.5043,-395.507 99.0394,-398.379 110.932,-401.104"/>
<polygon fill="black" stroke="black" stroke-width="4.5" points="110.1,-404.953 120.727,-403.348 111.859,-397.276 110.1,-404.953"/>
</g>
<!-- AS6830 -->
<g id="node3" class="node"><title>AS6830</title>
<g id="a_node3"><a xlink:href="/asn/6830" xlink:title="AS6830 ~ LGI&#45;UPC [AT]">
<ellipse fill="#ffffff" stroke="black" cx="159.489" cy="-339" rx="39.7935" ry="18"/>
<text text-anchor="middle" x="159.489" y="-335.3" font-family="Times,serif" font-size="14.00" fill="#2c94b3">AS6830</text>
</a>
</g>
</g>
<!-- AS8666&#45;&gt;AS6830 -->
<g id="edge2" class="edge"><title>AS8666&#45;&gt;AS6830</title>
<path fill="none" stroke="black" stroke-width="2.125" d="M70.3831,-373.392C85.1768,-367.618 103.254,-360.561 119.176,-354.346"/>
<polygon fill="black" stroke="black" stroke-width="2.125" points="120.719,-357.501 128.762,-350.604 118.174,-350.98 120.719,-357.501"/>
</g>
<!-- AS2914 -->
<g id="node4" class="node"><title>AS2914</title>
<g id="a_node4"><a xlink:href="/asn/2914" xlink:title="AS2914 ~ NTT America, Inc. [US]">
<ellipse fill="#ffffff" stroke="black" cx="283.881" cy="-228" rx="39.7935" ry="18"/>
<text text-anchor="middle" x="283.881" y="-224.3" font-family="Times,serif" font-size="14.00" fill="#2c94b3">AS2914</text>
</a>
</g>
</g>
<!-- AS47147&#45;&gt;AS2914 -->
<g id="edge3" class="edge"><title>AS47147&#45;&gt;AS2914</title>
<path fill="none" stroke="black" stroke-width="4.5" d="M178.193,-395.573C186.568,-387.228 196.321,-376.625 203.685,-366 224.292,-336.268 221.637,-324.351 239.685,-293 247.388,-279.619 256.793,-265.271 264.857,-253.469"/>
<polygon fill="black" stroke="black" stroke-width="4.5" points="268.265,-255.463 270.713,-244.998 261.787,-250.985 268.265,-255.463"/>
</g>
<!-- AS3320 -->
<g id="node5" class="node"><title>AS3320</title>
<g id="a_node5"><a xlink:href="/asn/3320" xlink:title="AS3320 ~ DTAG [DE]">
<ellipse fill="#ffffff" stroke="black" cx="283.881" cy="-634" rx="39.7935" ry="18"/>
<text text-anchor="middle" x="283.881" y="-630.3" font-family="Times,serif" font-size="14.00" fill="#2c94b3">AS3320</text>
</a>
</g>
</g>
<!-- AS47147&#45;&gt;AS3320 -->
<g id="edge4" class="edge"><title>AS47147&#45;&gt;AS3320</title>
<path fill="none" stroke="black" d="M163.907,-430.079C171.661,-466.996 193.604,-552.176 239.685,-607 242.104,-609.877 244.909,-612.543 247.908,-614.989"/>
<polygon fill="black" stroke="black" points="246.001,-617.929 256.159,-620.942 250.097,-612.253 246.001,-617.929"/>
</g>
<!-- AS1299 -->
<g id="node6" class="node"><title>AS1299</title>
<g id="a_node6"><a xlink:href="/asn/1299" xlink:title="AS1299 ~ Telia Carrier [EU]">
<ellipse fill="#ffffff" stroke="black" cx="283.881" cy="-412" rx="39.7935" ry="18"/>
<text text-anchor="middle" x="283.881" y="-408.3" font-family="Times,serif" font-size="14.00" fill="#2c94b3">AS1299</text>
</a>
</g>
</g>
<!-- AS47147&#45;&gt;AS1299 -->
<g id="edge5" class="edge"><title>AS47147&#45;&gt;AS1299</title>
<path fill="none" stroke="black" stroke-width="3" d="M203.985,-412C213.674,-412 224.01,-412 233.903,-412"/>
<polygon fill="black" stroke="black" stroke-width="3" points="234.006,-415.5 244.006,-412 234.006,-408.5 234.006,-415.5"/>
</g>
<!-- AS6461 -->
<g id="node7" class="node"><title>AS6461</title>
<g id="a_node7"><a xlink:href="/asn/6461" xlink:title="AS6461 ~ Zayo Bandwidth [US]">
<ellipse fill="#ffffff" stroke="black" cx="283.881" cy="-580" rx="39.7935" ry="18"/>
<text text-anchor="middle" x="283.881" y="-576.3" font-family="Times,serif" font-size="14.00" fill="#2c94b3">AS6461</text>
</a>
</g>
</g>
<!-- AS47147&#45;&gt;AS6461 -->
<g id="edge6" class="edge"><title>AS47147&#45;&gt;AS6461</title>
<path fill="none" stroke="black" stroke-width="0.5" d="M167.999,-429.782C180.194,-457.259 206.332,-510.75 239.685,-548 243.251,-551.983 247.384,-555.785 251.652,-559.289"/>
<polygon fill="black" stroke="black" stroke-width="0.5" points="249.847,-562.315 259.911,-565.627 254.108,-556.762 249.847,-562.315"/>
</g>
<!-- AS6830&#45;&gt;AS2914 -->
<g id="edge26" class="edge"><title>AS6830&#45;&gt;AS2914</title>
<path fill="none" stroke="black" d="M175.905,-322.247C191.402,-305.743 216.286,-280.148 239.685,-260 243.929,-256.346 248.556,-252.647 253.154,-249.125"/>
<polygon fill="black" stroke="black" points="255.398,-251.817 261.309,-243.024 251.205,-246.212 255.398,-251.817"/>
</g>
<!-- AS6830&#45;&gt;AS1299 -->
<g id="edge33" class="edge"><title>AS6830&#45;&gt;AS1299</title>
<path fill="none" stroke="black" d="M184.378,-353.248C203.164,-364.453 229.534,-380.182 250.263,-392.545"/>
<polygon fill="black" stroke="black" points="248.671,-395.671 259.052,-397.788 252.257,-389.659 248.671,-395.671"/>
</g>
<!-- AS6830&#45;&gt;AS6461 -->
<g id="edge29" class="edge"><title>AS6830&#45;&gt;AS6461</title>
<path fill="none" stroke="black" d="M179.352,-354.724C188.002,-362.901 197.651,-373.568 203.685,-385 238.317,-450.611 199.32,-485.752 239.685,-548 242.532,-552.39 246.203,-556.392 250.202,-559.965"/>
<polygon fill="black" stroke="black" points="248.158,-562.812 258.163,-566.298 252.516,-557.334 248.158,-562.812"/>
</g>
<!-- AS3356 -->
<g id="node8" class="node"><title>AS3356</title>
<g id="a_node8"><a xlink:href="/asn/3356" xlink:title="AS3356 ~ Level 3 Parent, LLC [US]">
<ellipse fill="#ffffff" stroke="black" cx="403.724" cy="-366" rx="39.7935" ry="18"/>
<text text-anchor="middle" x="403.724" y="-362.3" font-family="Times,serif" font-size="14.00" fill="#2c94b3">AS3356</text>
</a>
</g>
</g>
<!-- AS6830&#45;&gt;AS3356 -->
<g id="edge31" class="edge"><title>AS6830&#45;&gt;AS3356</title>
<path fill="none" stroke="black" stroke-width="3" d="M198.072,-343.189C240.325,-347.899 309.022,-355.556 355.025,-360.683"/>
<polygon fill="black" stroke="black" stroke-width="3" points="354.726,-364.172 365.052,-361.801 355.501,-357.215 354.726,-364.172"/>
</g>
<!-- AS3257 -->
<g id="node9" class="node"><title>AS3257</title>
<g id="a_node9"><a xlink:href="/asn/3257" xlink:title="AS3257 ~ GTT [DE]">
<ellipse fill="#ffffff" stroke="black" cx="403.724" cy="-288" rx="39.7935" ry="18"/>
<text text-anchor="middle" x="403.724" y="-284.3" font-family="Times,serif" font-size="14.00" fill="#2c94b3">AS3257</text>
</a>
</g>
</g>
<!-- AS6830&#45;&gt;AS3257 -->
<g id="edge27" class="edge"><title>AS6830&#45;&gt;AS3257</title>
<path fill="none" stroke="black" d="M180.38,-323.677C195.674,-312.87 217.823,-299.249 239.685,-293 277.276,-282.254 321.739,-281.645 354.73,-283.364"/>
<polygon fill="black" stroke="black" points="354.819,-286.876 365.015,-283.994 355.247,-279.889 354.819,-286.876"/>
</g>
<!-- AS6762 -->
<g id="node10" class="node"><title>AS6762</title>
<g id="a_node10"><a xlink:href="/asn/6762" xlink:title="AS6762 ~ TELECOM ITALIA SPARKLE S.p.A. [IT]">
<ellipse fill="#ffffff" stroke="black" cx="403.724" cy="-180" rx="39.7935" ry="18"/>
<text text-anchor="middle" x="403.724" y="-176.3" font-family="Times,serif" font-size="14.00" fill="#2c94b3">AS6762</text>
</a>
</g>
</g>
<!-- AS6830&#45;&gt;AS6762 -->
<g id="edge34" class="edge"><title>AS6830&#45;&gt;AS6762</title>
<path fill="none" stroke="black" d="M163.826,-321.001C171.037,-287.835 191.484,-217.671 239.685,-187 274.711,-164.713 323.058,-165.647 358,-170.52"/>
<polygon fill="black" stroke="black" points="357.511,-173.986 367.93,-172.06 358.584,-167.069 357.511,-173.986"/>
</g>
<!-- AS2497 -->
<g id="node11" class="node"><title>AS2497</title>
<g id="a_node11"><a xlink:href="/asn/2497" xlink:title="AS2497 ~ Internet Initiative Japan Inc. [JP]">
<ellipse fill="#ffffff" stroke="black" cx="403.724" cy="-126" rx="39.7935" ry="18"/>
<text text-anchor="middle" x="403.724" y="-122.3" font-family="Times,serif" font-size="14.00" fill="#2c94b3">AS2497</text>
</a>
</g>
</g>
<!-- AS6830&#45;&gt;AS2497 -->
<g id="edge37" class="edge"><title>AS6830&#45;&gt;AS2497</title>
<path fill="none" stroke="black" d="M163.275,-320.955C169.782,-285.202 189.424,-205.263 239.685,-164 271.682,-137.731 318.547,-128.93 353.829,-126.291"/>
<polygon fill="black" stroke="black" points="354.143,-129.779 363.913,-125.679 353.719,-122.792 354.143,-129.779"/>
</g>
<!-- AS174 -->
<g id="node12" class="node"><title>AS174</title>
<g id="a_node12"><a xlink:href="/asn/174" xlink:title="AS174 ~ Cogent Communications [US]">
<ellipse fill="#ffffff" stroke="black" cx="403.724" cy="-234" rx="35.194" ry="18"/>
<text text-anchor="middle" x="403.724" y="-230.3" font-family="Times,serif" font-size="14.00" fill="#2c94b3">AS174</text>
</a>
</g>
</g>
<!-- AS6830&#45;&gt;AS174 -->
<g id="edge28" class="edge"><title>AS6830&#45;&gt;AS174</title>
<path fill="none" stroke="black" d="M164.64,-320.966C172.87,-289.913 194.506,-227.163 239.685,-201 281.032,-177.056 337.032,-197.844 371.476,-215.546"/>
<polygon fill="black" stroke="black" points="370.12,-218.79 380.59,-220.417 373.42,-212.617 370.12,-218.79"/>
</g>
<!-- AS3491 -->
<g id="node13" class="node"><title>AS3491</title>
<g id="a_node13"><a xlink:href="/asn/3491" xlink:title="AS3491 ~ PCCW Global, Inc. [US]">
<ellipse fill="#ffffff" stroke="black" cx="403.724" cy="-72" rx="39.7935" ry="18"/>
<text text-anchor="middle" x="403.724" y="-68.3" font-family="Times,serif" font-size="14.00" fill="#2c94b3">AS3491</text>
</a>
</g>
</g>
<!-- AS6830&#45;&gt;AS3491 -->
<g id="edge30" class="edge"><title>AS6830&#45;&gt;AS3491</title>
<path fill="none" stroke="black" d="M162.047,-320.746C166.501,-279.97 182.892,-180.777 239.685,-126 270.646,-96.1385 318.485,-82.7842 354.35,-76.8154"/>
<polygon fill="black" stroke="black" points="355.234,-80.2212 364.593,-75.255 354.179,-73.301 355.234,-80.2212"/>
</g>
<!-- AS701 -->
<g id="node14" class="node"><title>AS701</title>
<g id="a_node14"><a xlink:href="/asn/701" xlink:title="AS701 ~ UUNET [US]">
<ellipse fill="#ffffff" stroke="black" cx="403.724" cy="-534" rx="35.194" ry="18"/>
<text text-anchor="middle" x="403.724" y="-530.3" font-family="Times,serif" font-size="14.00" fill="#2c94b3">AS701</text>
</a>
</g>
</g>
<!-- AS6830&#45;&gt;AS701 -->
<g id="edge38" class="edge"><title>AS6830&#45;&gt;AS701</title>
<path fill="none" stroke="black" d="M178.725,-355.081C187.226,-363.343 196.931,-373.978 203.685,-385 228.366,-425.276 205.401,-452.506 239.685,-485 271.803,-515.441 322.119,-527.035 358.362,-531.416"/>
<polygon fill="black" stroke="black" points="358.337,-534.933 368.652,-532.514 359.08,-527.973 358.337,-534.933"/>
</g>
<!-- AS1273 -->
<g id="node15" class="node"><title>AS1273</title>
<g id="a_node15"><a xlink:href="/asn/1273" xlink:title="AS1273 ~ Vodafone Group PLC [EU]">
<ellipse fill="#ffffff" stroke="black" cx="403.724" cy="-18" rx="39.7935" ry="18"/>
<text text-anchor="middle" x="403.724" y="-14.3" font-family="Times,serif" font-size="14.00" fill="#2c94b3">AS1273</text>
</a>
</g>
</g>
<!-- AS6830&#45;&gt;AS1273 -->
<g id="edge39" class="edge"><title>AS6830&#45;&gt;AS1273</title>
<path fill="none" stroke="black" d="M160.767,-320.889C162.457,-274.421 173.289,-149.671 239.685,-79 269.949,-46.7876 318.845,-31.4717 355.208,-24.26"/>
<polygon fill="black" stroke="black" points="355.907,-27.6902 365.105,-22.4335 354.636,-20.8064 355.907,-27.6902"/>
</g>
<!-- AS6453 -->
<g id="node16" class="node"><title>AS6453</title>
<g id="a_node16"><a xlink:href="/asn/6453" xlink:title="AS6453 ~ TATA COMMUNICATIONS (AMERICA) INC [US]">
<ellipse fill="#ffffff" stroke="black" cx="403.724" cy="-479" rx="39.7935" ry="18"/>
<text text-anchor="middle" x="403.724" y="-475.3" font-family="Times,serif" font-size="14.00" fill="#2c94b3">AS6453</text>
</a>
</g>
</g>
<!-- AS6830&#45;&gt;AS6453 -->
<g id="edge32" class="edge"><title>AS6830&#45;&gt;AS6453</title>
<path fill="none" stroke="black" d="M177.769,-355.005C186.237,-363.412 196.197,-374.195 203.685,-385 224.292,-414.732 210.251,-436.97 239.685,-458 272.973,-481.783 320.102,-485.516 355.135,-484.195"/>
<polygon fill="black" stroke="black" points="355.328,-487.69 365.13,-483.671 354.961,-480.7 355.328,-487.69"/>
</g>
<!-- AS1239 -->
<g id="node19" class="node"><title>AS1239</title>
<g id="a_node19"><a xlink:href="/asn/1239" xlink:title="AS1239 ~ Sprint [US]">
<ellipse fill="#ffffff" stroke="black" cx="403.724" cy="-657" rx="39.7935" ry="18"/>
<text text-anchor="middle" x="403.724" y="-653.3" font-family="Times,serif" font-size="14.00" fill="#2c94b3">AS1239</text>
</a>
</g>
</g>
<!-- AS6830&#45;&gt;AS1239 -->
<g id="edge36" class="edge"><title>AS6830&#45;&gt;AS1239</title>
<path fill="none" stroke="black" d="M179.794,-354.503C188.548,-362.628 198.157,-373.314 203.685,-385 230.134,-440.913 193.206,-620.19 239.685,-661 273.038,-690.285 326.679,-682.205 363.254,-671.539"/>
<polygon fill="black" stroke="black" points="364.572,-674.796 373.087,-668.492 362.499,-668.109 364.572,-674.796"/>
</g>
<!-- AS7018 -->
<g id="node20" class="node"><title>AS7018</title>
<g id="a_node20"><a xlink:href="/asn/7018" xlink:title="AS7018 ~ AT&amp;T Services, Inc. [US]">
<ellipse fill="#ffffff" stroke="black" cx="403.724" cy="-422" rx="39.7935" ry="18"/>
<text text-anchor="middle" x="403.724" y="-418.3" font-family="Times,serif" font-size="14.00" fill="#2c94b3">AS7018</text>
</a>
</g>
</g>
<!-- AS6830&#45;&gt;AS7018 -->
<g id="edge40" class="edge"><title>AS6830&#45;&gt;AS7018</title>
<path fill="none" stroke="black" d="M177.189,-355.436C185.509,-363.953 195.511,-374.704 203.685,-385 221.619,-407.591 214.254,-425.39 239.685,-439 278.508,-459.777 329.96,-449.229 364.593,-437.631"/>
<polygon fill="black" stroke="black" points="366.064,-440.824 374.329,-434.195 363.734,-434.223 366.064,-440.824"/>
</g>
<!-- AS12956 -->
<g id="node21" class="node"><title>AS12956</title>
<g id="a_node21"><a xlink:href="/asn/12956" xlink:title="AS12956 ~ TELXIUS [ES]">
<ellipse fill="#ffffff" stroke="black" cx="283.881" cy="-320" rx="44.393" ry="18"/>
<text text-anchor="middle" x="283.881" y="-316.3" font-family="Times,serif" font-size="14.00" fill="#2c94b3">AS12956</text>
</a>
</g>
</g>
<!-- AS6830&#45;&gt;AS12956 -->
<g id="edge35" class="edge"><title>AS6830&#45;&gt;AS12956</title>
<path fill="none" stroke="black" d="M197.211,-333.299C208.212,-331.592 220.476,-329.688 232.208,-327.866"/>
<polygon fill="black" stroke="black" points="232.992,-331.287 242.336,-326.294 231.918,-324.37 232.992,-331.287"/>
</g>
<!-- AS2914&#45;&gt;AS3356 -->
<g id="edge7" class="edge"><title>AS2914&#45;&gt;AS3356</title>
<path fill="none" stroke="black" stroke-width="4" d="M299.096,-244.646C319.711,-268.787 358.038,-313.67 381.859,-341.567"/>
<polygon fill="black" stroke="black" stroke-width="4" points="379.303,-343.963 388.459,-349.295 384.627,-339.417 379.303,-343.963"/>
</g>
<!-- AS2914&#45;&gt;AS3257 -->
<g id="edge8" class="edge"><title>AS2914&#45;&gt;AS3257</title>
<path fill="none" stroke="black" stroke-width="2" d="M311.034,-241.316C327.664,-249.783 349.4,-260.85 367.535,-270.083"/>
<polygon fill="black" stroke="black" stroke-width="2" points="366.144,-273.303 376.644,-274.721 369.32,-267.065 366.144,-273.303"/>
</g>
<!-- AS2914&#45;&gt;AS6762 -->
<g id="edge9" class="edge"><title>AS2914&#45;&gt;AS6762</title>
<path fill="none" stroke="black" stroke-width="2" d="M314.011,-216.135C329.166,-209.962 347.89,-202.335 364.225,-195.682"/>
<polygon fill="black" stroke="black" stroke-width="2" points="365.58,-198.909 373.521,-191.895 362.939,-192.426 365.58,-198.909"/>
</g>
<!-- AS2914&#45;&gt;AS2497 -->
<g id="edge10" class="edge"><title>AS2914&#45;&gt;AS2497</title>
<path fill="none" stroke="black" stroke-width="2" d="M300.914,-211.455C316.469,-195.739 341.035,-171.786 364.077,-153 366.615,-150.931 369.303,-148.85 372.032,-146.81"/>
<polygon fill="black" stroke="black" stroke-width="2" points="374.189,-149.57 380.237,-140.871 370.084,-143.9 374.189,-149.57"/>
</g>
<!-- AS2914&#45;&gt;AS174 -->
<g id="edge11" class="edge"><title>AS2914&#45;&gt;AS174</title>
<path fill="none" stroke="black" d="M323.467,-229.965C334.568,-230.53 346.766,-231.151 358.195,-231.733"/>
<polygon fill="black" stroke="black" points="358.256,-235.24 368.421,-232.253 358.612,-228.249 358.256,-235.24"/>
</g>
<!-- AS2914&#45;&gt;AS3491 -->
<g id="edge12" class="edge"><title>AS2914&#45;&gt;AS3491</title>
<path fill="none" stroke="black" stroke-width="2" d="M292.89,-210.184C305.372,-183.769 331.453,-133.615 364.077,-99 366.13,-96.8222 368.384,-94.7158 370.741,-92.7047"/>
<polygon fill="black" stroke="black" stroke-width="2" points="373.265,-95.1752 379.005,-86.2695 368.964,-89.6523 373.265,-95.1752"/>
</g>
<!-- AS2914&#45;&gt;AS701 -->
<g id="edge13" class="edge"><title>AS2914&#45;&gt;AS701</title>
<path fill="none" stroke="black" d="M298.943,-244.812C308.655,-257.323 321.045,-275.237 328.077,-293 363.42,-382.267 313.435,-424.433 364.077,-506 365.913,-508.956 368.186,-511.696 370.705,-514.211"/>
<polygon fill="black" stroke="black" points="368.909,-517.278 378.801,-521.073 373.435,-511.937 368.909,-517.278"/>
</g>
<!-- AS2914&#45;&gt;AS1273 -->
<g id="edge14" class="edge"><title>AS2914&#45;&gt;AS1273</title>
<path fill="none" stroke="black" d="M289.093,-210.152C298.023,-175.291 321.602,-97.0221 364.077,-45 365.921,-42.7414 368.001,-40.5886 370.214,-38.5558"/>
<polygon fill="black" stroke="black" points="372.564,-41.156 378.108,-32.1277 368.144,-35.7279 372.564,-41.156"/>
</g>
<!-- AS2914&#45;&gt;AS6453 -->
<g id="edge15" class="edge"><title>AS2914&#45;&gt;AS6453</title>
<path fill="none" stroke="black" d="M298.625,-244.943C308.184,-257.517 320.52,-275.454 328.077,-293 356.223,-358.352 325.755,-389.046 364.077,-449 366.119,-452.194 368.623,-455.185 371.366,-457.949"/>
<polygon fill="black" stroke="black" points="369.218,-460.721 379.033,-464.711 373.849,-455.472 369.218,-460.721"/>
</g>
<!-- AS3320&#45;&gt;AS701 -->
<g id="edge19" class="edge"><title>AS3320&#45;&gt;AS701</title>
<path fill="none" stroke="black" d="M309.269,-620.033C315.58,-616.078 322.238,-611.592 328.077,-607 347.126,-592.019 366.638,-572.775 380.933,-557.807"/>
<polygon fill="black" stroke="black" points="383.59,-560.092 387.904,-550.415 378.497,-555.289 383.59,-560.092"/>
</g>
<!-- AS3320&#45;&gt;AS6453 -->
<g id="edge18" class="edge"><title>AS3320&#45;&gt;AS6453</title>
<path fill="none" stroke="black" d="M311.759,-621.07C317.751,-617.208 323.635,-612.506 328.077,-607 357.737,-570.236 335.691,-544.756 364.077,-507 366.069,-504.351 368.382,-501.846 370.867,-499.505"/>
<polygon fill="black" stroke="black" points="373.243,-502.081 378.689,-492.994 368.764,-496.702 373.243,-502.081"/>
</g>
<!-- AS3320&#45;&gt;AS1239 -->
<g id="edge20" class="edge"><title>AS3320&#45;&gt;AS1239</title>
<path fill="none" stroke="black" d="M320.558,-640.963C331.989,-643.194 344.811,-645.697 356.865,-648.049"/>
<polygon fill="black" stroke="black" points="356.277,-651.501 366.762,-649.981 357.618,-644.63 356.277,-651.501"/>
</g>
<!-- AS1299&#45;&gt;AS3356 -->
<g id="edge21" class="edge"><title>AS1299&#45;&gt;AS3356</title>
<path fill="none" stroke="black" stroke-width="4" d="M314.618,-400.392C329.412,-394.618 347.489,-387.561 363.41,-381.346"/>
<polygon fill="black" stroke="black" stroke-width="4" points="364.954,-384.501 372.997,-377.604 362.408,-377.98 364.954,-384.501"/>
</g>
<!-- AS1299&#45;&gt;AS3257 -->
<g id="edge24" class="edge"><title>AS1299&#45;&gt;AS3257</title>
<path fill="none" stroke="black" d="M300.53,-395.534C320.868,-374.133 356.536,-336.602 379.894,-312.023"/>
<polygon fill="black" stroke="black" points="382.659,-314.194 387.01,-304.534 377.585,-309.372 382.659,-314.194"/>
</g>
<!-- AS1299&#45;&gt;AS174 -->
<g id="edge22" class="edge"><title>AS1299&#45;&gt;AS174</title>
<path fill="none" stroke="black" stroke-width="2" d="M297.548,-394.902C306.7,-382.106 318.997,-363.963 328.077,-347 347.633,-310.469 338.064,-293.253 364.077,-261 366.184,-258.388 368.607,-255.92 371.191,-253.617"/>
<polygon fill="black" stroke="black" stroke-width="2" points="373.601,-256.173 379.272,-247.224 369.258,-250.684 373.601,-256.173"/>
</g>
<!-- AS1299&#45;&gt;AS6453 -->
<g id="edge25" class="edge"><title>AS1299&#45;&gt;AS6453</title>
<path fill="none" stroke="black" d="M309.298,-425.882C326.758,-435.809 350.458,-449.284 369.619,-460.178"/>
<polygon fill="black" stroke="black" points="367.915,-463.235 378.338,-465.135 371.375,-457.15 367.915,-463.235"/>
</g>
<!-- AS1299&#45;&gt;AS7018 -->
<g id="edge23" class="edge"><title>AS1299&#45;&gt;AS7018</title>
<path fill="none" stroke="black" stroke-width="2" d="M323.141,-415.247C333.121,-416.094 344.007,-417.017 354.433,-417.902"/>
<polygon fill="black" stroke="black" stroke-width="2" points="354.395,-421.411 364.656,-418.77 354.987,-414.436 354.395,-421.411"/>
</g>
<!-- AS3549 -->
<g id="node17" class="node"><title>AS3549</title>
<g id="a_node17"><a xlink:href="/asn/3549" xlink:title="AS3549 ~ Level 3 Parent, LLC [US]">
<ellipse fill="#ffffff" stroke="black" cx="519.017" cy="-393" rx="39.7935" ry="18"/>
<text text-anchor="middle" x="519.017" y="-389.3" font-family="Times,serif" font-size="14.00" fill="#2c94b3">AS3549</text>
</a>
</g>
</g>
<!-- AS3356&#45;&gt;AS3549 -->
<g id="edge16" class="edge"><title>AS3356&#45;&gt;AS3549</title>
<path fill="none" stroke="black" stroke-width="4" d="M439.331,-374.248C450.202,-376.838 462.357,-379.735 473.799,-382.462"/>
<polygon fill="black" stroke="black" stroke-width="4" points="473.082,-385.889 483.621,-384.803 474.705,-379.08 473.082,-385.889"/>
</g>
<!-- AS209 -->
<g id="node18" class="node"><title>AS209</title>
<g id="a_node18"><a xlink:href="/asn/209" xlink:title="AS209 ~ CenturyLink Communications, LLC [US]">
<ellipse fill="#ffffff" stroke="black" cx="519.017" cy="-339" rx="35.194" ry="18"/>
<text text-anchor="middle" x="519.017" y="-335.3" font-family="Times,serif" font-size="14.00" fill="#2c94b3">AS209</text>
</a>
</g>
</g>
<!-- AS3356&#45;&gt;AS209 -->
<g id="edge17" class="edge"><title>AS3356&#45;&gt;AS209</title>
<path fill="none" stroke="black" stroke-width="3" d="M439.331,-357.752C451.125,-354.942 464.43,-351.771 476.698,-348.847"/>
<polygon fill="black" stroke="black" stroke-width="3" points="477.787,-352.186 486.703,-346.463 476.164,-345.376 477.787,-352.186"/>
</g>
</g>
</svg>
