<?xml version="1.0" encoding="UTF-8" standalone="no"?>
<!DOCTYPE svg PUBLIC "-//W3C//DTD SVG 1.1//EN"
 "http://www.w3.org/Graphics/SVG/1.1/DTD/svg11.dtd">
<!-- Generated by graphviz version 2.38.0 (20140413.2041)
 -->
<!-- Title: AS8666 Combined Upstream Graph Pages: 1 -->
<svg width="567pt" height="658pt"
 viewBox="0.00 0.00 566.66 658.00" xmlns="http://www.w3.org/2000/svg" xmlns:xlink="http://www.w3.org/1999/xlink">
<g id="graph0" class="graph" transform="scale(1 1) rotate(0) translate(4 654)">
<title>AS8666 Combined Upstream Graph</title>
<polygon fill="white" stroke="none" points="-4,4 -4,-654 562.663,-654 562.663,4 -4,4"/>
<!-- AS8666 -->
<g id="node1" class="node"><title>AS8666</title>
<g id="a_node1"><a xlink:href="/asn/8666" xlink:title="AS8666 ~ FiberLink GmbH [AT]">
<ellipse fill="#ffffff" stroke="black" cx="39.6465" cy="-345" rx="39.7935" ry="18"/>
<text text-anchor="middle" x="39.6465" y="-341.3" font-family="Times,serif" font-size="14.00" fill="#880000">AS8666</text>
</a>
</g>
</g>
<!-- AS47147 -->
<g id="node2" class="node"><title>AS47147</title>
<g id="a_node2"><a xlink:href="/asn/47147" xlink:title="AS47147 ~ ANEXIA Internetdienstleistungs GmbH [AT]">
<ellipse fill="#ffffff" stroke="black" cx="159.489" cy="-372" rx="44.393" ry="18"/>
<text text-anchor="middle" x="159.489" y="-368.3" font-family="Times,serif" font-size="14.00" fill="#2c94b3">AS47147</text>
</a>
</g>
</g>
<!-- AS8666&#45;&gt;AS47147 -->
<g id="edge1" class="edge"><title>AS8666&#45;&gt;AS47147</title>
<path fill="none" stroke="black" stroke-width="4.5" d="M75.3658,-352.955C86.5043,-355.507 99.0394,-358.379 110.932,-361.104"/>
<polygon fill="black" stroke="black" stroke-width="4.5" points="110.1,-364.953 120.727,-363.348 111.859,-357.276 110.1,-364.953"/>
</g>
<!-- AS6830 -->
<g id="node3" class="node"><title>AS6830</title>
<g id="a_node3"><a xlink:href="/asn/6830" xlink:title="AS6830 ~ LGI&#45;UPC [AT]">
<ellipse fill="#ffffff" stroke="black" cx="159.489" cy="-299" rx="39.7935" ry="18"/>
<text text-anchor="middle" x="159.489" y="-295.3" font-family="Times,serif" font-size="14.00" fill="#2c94b3">AS6830</text>
</a>
</g>
</g>
<!-- AS8666&#45;&gt;AS6830 -->
<g id="edge2" class="edge"><title>AS8666&#45;&gt;AS6830</title>
<path fill="none" stroke="black" stroke-width="1.6875" d="M70.3831,-333.392C85.1768,-327.618 103.254,-320.561 119.176,-314.346"/>
<polygon fill="black" stroke="black" stroke-width="1.6875" points="120.719,-317.501 128.762,-310.604 118.174,-310.98 120.719,-317.501"/>
</g>
<!-- AS1299 -->
<g id="node4" class="node"><title>AS1299</title>
<g id="a_node4"><a xlink:href="/asn/1299" xlink:title="AS1299 ~ Telia Carrier [EU]">
<ellipse fill="#ffffff" stroke="black" cx="279.332" cy="-280" rx="39.7935" ry="18"/>
<text text-anchor="middle" x="279.332" y="-276.3" font-family="Times,serif" font-size="14.00" fill="#2c94b3">AS1299</text>
</a>
</g>
</g>
<!-- AS47147&#45;&gt;AS1299 -->
<g id="edge3" class="edge"><title>AS47147&#45;&gt;AS1299</title>
<path fill="none" stroke="black" stroke-width="3.75" d="M180.747,-356.185C199.918,-341.218 228.867,-318.617 250.259,-301.916"/>
<polygon fill="black" stroke="black" stroke-width="3.75" points="252.61,-304.522 258.338,-295.609 248.302,-299.004 252.61,-304.522"/>
</g>
<!-- AS6461 -->
<g id="node5" class="node"><title>AS6461</title>
<g id="a_node5"><a xlink:href="/asn/6461" xlink:title="AS6461 ~ Zayo Bandwidth [US]">
<ellipse fill="#ffffff" stroke="black" cx="279.332" cy="-632" rx="39.7935" ry="18"/>
<text text-anchor="middle" x="279.332" y="-628.3" font-family="Times,serif" font-size="14.00" fill="#2c94b3">AS6461</text>
</a>
</g>
</g>
<!-- AS47147&#45;&gt;AS6461 -->
<g id="edge4" class="edge"><title>AS47147&#45;&gt;AS6461</title>
<path fill="none" stroke="black" stroke-width="0.5" d="M162.742,-390.136C168.699,-431.861 188.104,-536.341 239.685,-605 241.437,-607.331 243.449,-609.536 245.616,-611.606"/>
<polygon fill="black" stroke="black" stroke-width="0.5" points="243.497,-614.396 253.423,-618.102 247.975,-609.015 243.497,-614.396"/>
</g>
<!-- AS3320 -->
<g id="node6" class="node"><title>AS3320</title>
<g id="a_node6"><a xlink:href="/asn/3320" xlink:title="AS3320 ~ DTAG [DE]">
<ellipse fill="#ffffff" stroke="black" cx="279.332" cy="-578" rx="39.7935" ry="18"/>
<text text-anchor="middle" x="279.332" y="-574.3" font-family="Times,serif" font-size="14.00" fill="#2c94b3">AS3320</text>
</a>
</g>
</g>
<!-- AS47147&#45;&gt;AS3320 -->
<g id="edge5" class="edge"><title>AS47147&#45;&gt;AS3320</title>
<path fill="none" stroke="black" stroke-width="1.25" d="M165.682,-389.958C175.906,-423.199 201.06,-495.524 239.685,-546 242.439,-549.599 245.671,-553.058 249.071,-556.283"/>
<polygon fill="black" stroke="black" stroke-width="1.25" points="246.838,-558.98 256.666,-562.938 251.451,-553.715 246.838,-558.98"/>
</g>
<!-- AS2914 -->
<g id="node7" class="node"><title>AS2914</title>
<g id="a_node7"><a xlink:href="/asn/2914" xlink:title="AS2914 ~ NTT America, Inc. [US]">
<ellipse fill="#ffffff" stroke="black" cx="279.332" cy="-372" rx="39.7935" ry="18"/>
<text text-anchor="middle" x="279.332" y="-368.3" font-family="Times,serif" font-size="14.00" fill="#2c94b3">AS2914</text>
</a>
</g>
</g>
<!-- AS47147&#45;&gt;AS2914 -->
<g id="edge6" class="edge"><title>AS47147&#45;&gt;AS2914</title>
<path fill="none" stroke="black" stroke-width="4.5" d="M203.7,-372C212.013,-372 220.775,-372 229.258,-372"/>
<polygon fill="black" stroke="black" stroke-width="4.5" points="229.416,-375.938 239.416,-372 229.416,-368.063 229.416,-375.938"/>
</g>
<!-- AS6830&#45;&gt;AS1299 -->
<g id="edge40" class="edge"><title>AS6830&#45;&gt;AS1299</title>
<path fill="none" stroke="black" d="M197.129,-293.092C208.103,-291.323 220.286,-289.359 231.807,-287.501"/>
<polygon fill="black" stroke="black" points="232.399,-290.951 241.714,-285.904 231.284,-284.04 232.399,-290.951"/>
</g>
<!-- AS6830&#45;&gt;AS2914 -->
<g id="edge41" class="edge"><title>AS6830&#45;&gt;AS2914</title>
<path fill="none" stroke="black" d="M183.771,-313.422C201.687,-324.521 226.644,-339.981 246.42,-352.232"/>
<polygon fill="black" stroke="black" points="244.754,-355.317 255.098,-357.608 248.44,-349.366 244.754,-355.317"/>
</g>
<!-- AS174 -->
<g id="node8" class="node"><title>AS174</title>
<g id="a_node8"><a xlink:href="/asn/174" xlink:title="AS174 ~ Cogent Communications [US]">
<ellipse fill="#ffffff" stroke="black" cx="399.174" cy="-396" rx="35.194" ry="18"/>
<text text-anchor="middle" x="399.174" y="-392.3" font-family="Times,serif" font-size="14.00" fill="#2c94b3">AS174</text>
</a>
</g>
</g>
<!-- AS6830&#45;&gt;AS174 -->
<g id="edge35" class="edge"><title>AS6830&#45;&gt;AS174</title>
<path fill="none" stroke="black" d="M177.189,-315.436C185.509,-323.953 195.511,-334.704 203.685,-345 221.619,-367.591 214.254,-385.39 239.685,-399 276.297,-418.594 324.811,-414.048 358.476,-407.011"/>
<polygon fill="black" stroke="black" points="359.432,-410.384 368.418,-404.772 357.893,-403.555 359.432,-410.384"/>
</g>
<!-- AS3257 -->
<g id="node9" class="node"><title>AS3257</title>
<g id="a_node9"><a xlink:href="/asn/3257" xlink:title="AS3257 ~ GTT [DE]">
<ellipse fill="#ffffff" stroke="black" cx="399.174" cy="-180" rx="39.7935" ry="18"/>
<text text-anchor="middle" x="399.174" y="-176.3" font-family="Times,serif" font-size="14.00" fill="#2c94b3">AS3257</text>
</a>
</g>
</g>
<!-- AS6830&#45;&gt;AS3257 -->
<g id="edge36" class="edge"><title>AS6830&#45;&gt;AS3257</title>
<path fill="none" stroke="black" d="M174.896,-282.069C189.628,-265.765 213.944,-241.502 239.685,-227 274.809,-207.212 319.105,-194.989 351.933,-187.986"/>
<polygon fill="black" stroke="black" points="352.636,-191.415 361.729,-185.978 351.23,-184.558 352.636,-191.415"/>
</g>
<!-- AS6762 -->
<g id="node10" class="node"><title>AS6762</title>
<g id="a_node10"><a xlink:href="/asn/6762" xlink:title="AS6762 ~ TELECOM ITALIA SPARKLE S.p.A. [IT]">
<ellipse fill="#ffffff" stroke="black" cx="399.174" cy="-126" rx="39.7935" ry="18"/>
<text text-anchor="middle" x="399.174" y="-122.3" font-family="Times,serif" font-size="14.00" fill="#2c94b3">AS6762</text>
</a>
</g>
</g>
<!-- AS6830&#45;&gt;AS6762 -->
<g id="edge32" class="edge"><title>AS6830&#45;&gt;AS6762</title>
<path fill="none" stroke="black" d="M169.473,-281.528C182.233,-258.243 207.654,-217.071 239.685,-192 273.865,-165.247 320.444,-147.574 354.255,-137.308"/>
<polygon fill="black" stroke="black" points="355.263,-140.66 363.87,-134.482 353.289,-133.944 355.263,-140.66"/>
</g>
<!-- AS3356 -->
<g id="node11" class="node"><title>AS3356</title>
<g id="a_node11"><a xlink:href="/asn/3356" xlink:title="AS3356 ~ Level 3 Parent, LLC [US]">
<ellipse fill="#ffffff" stroke="black" cx="399.174" cy="-342" rx="39.7935" ry="18"/>
<text text-anchor="middle" x="399.174" y="-338.3" font-family="Times,serif" font-size="14.00" fill="#2c94b3">AS3356</text>
</a>
</g>
</g>
<!-- AS6830&#45;&gt;AS3356 -->
<g id="edge34" class="edge"><title>AS6830&#45;&gt;AS3356</title>
<path fill="none" stroke="black" stroke-width="3" d="M196.588,-305.531C238.242,-313.066 306.818,-325.473 352.239,-333.69"/>
<polygon fill="black" stroke="black" stroke-width="3" points="351.662,-337.142 362.125,-335.478 352.908,-330.254 351.662,-337.142"/>
</g>
<!-- AS7018 -->
<g id="node12" class="node"><title>AS7018</title>
<g id="a_node12"><a xlink:href="/asn/7018" xlink:title="AS7018 ~ AT&amp;T Services, Inc. [US]">
<ellipse fill="#ffffff" stroke="black" cx="399.174" cy="-18" rx="39.7935" ry="18"/>
<text text-anchor="middle" x="399.174" y="-14.3" font-family="Times,serif" font-size="14.00" fill="#2c94b3">AS7018</text>
</a>
</g>
</g>
<!-- AS6830&#45;&gt;AS7018 -->
<g id="edge33" class="edge"><title>AS6830&#45;&gt;AS7018</title>
<path fill="none" stroke="black" d="M163.042,-280.958C169.356,-242.438 189.029,-151.177 239.685,-96 270.681,-62.2384 319.501,-41.313 354.77,-29.7428"/>
<polygon fill="black" stroke="black" points="355.85,-33.0723 364.333,-26.7246 353.743,-26.3969 355.85,-33.0723"/>
</g>
<!-- AS3491 -->
<g id="node13" class="node"><title>AS3491</title>
<g id="a_node13"><a xlink:href="/asn/3491" xlink:title="AS3491 ~ PCCW Global, Inc. [US]">
<ellipse fill="#ffffff" stroke="black" cx="399.174" cy="-288" rx="39.7935" ry="18"/>
<text text-anchor="middle" x="399.174" y="-284.3" font-family="Times,serif" font-size="14.00" fill="#2c94b3">AS3491</text>
</a>
</g>
</g>
<!-- AS6830&#45;&gt;AS3491 -->
<g id="edge31" class="edge"><title>AS6830&#45;&gt;AS3491</title>
<path fill="none" stroke="black" d="M180.325,-283.481C195.592,-272.574 217.73,-258.914 239.685,-253 273.714,-243.834 284.497,-245.72 318.978,-253 334.633,-256.305 350.96,-262.912 364.695,-269.504"/>
<polygon fill="black" stroke="black" points="363.239,-272.689 373.749,-274.025 366.366,-266.426 363.239,-272.689"/>
</g>
<!-- AS6453 -->
<g id="node14" class="node"><title>AS6453</title>
<g id="a_node14"><a xlink:href="/asn/6453" xlink:title="AS6453 ~ TATA COMMUNICATIONS (AMERICA) INC [US]">
<ellipse fill="#ffffff" stroke="black" cx="399.174" cy="-450" rx="39.7935" ry="18"/>
<text text-anchor="middle" x="399.174" y="-446.3" font-family="Times,serif" font-size="14.00" fill="#2c94b3">AS6453</text>
</a>
</g>
</g>
<!-- AS6830&#45;&gt;AS6453 -->
<g id="edge30" class="edge"><title>AS6830&#45;&gt;AS6453</title>
<path fill="none" stroke="black" d="M177.818,-314.972C186.298,-323.37 196.254,-334.155 203.685,-345 224.585,-375.501 210.367,-397.472 239.685,-420 270.877,-443.968 315.556,-450.666 349.53,-451.829"/>
<polygon fill="black" stroke="black" points="349.638,-455.332 359.704,-452.026 349.773,-448.333 349.638,-455.332"/>
</g>
<!-- AS2497 -->
<g id="node15" class="node"><title>AS2497</title>
<g id="a_node15"><a xlink:href="/asn/2497" xlink:title="AS2497 ~ Internet Initiative Japan Inc. [JP]">
<ellipse fill="#ffffff" stroke="black" cx="399.174" cy="-504" rx="39.7935" ry="18"/>
<text text-anchor="middle" x="399.174" y="-500.3" font-family="Times,serif" font-size="14.00" fill="#2c94b3">AS2497</text>
</a>
</g>
</g>
<!-- AS6830&#45;&gt;AS2497 -->
<g id="edge39" class="edge"><title>AS6830&#45;&gt;AS2497</title>
<path fill="none" stroke="black" d="M178.77,-315.054C187.281,-323.309 196.982,-333.946 203.685,-345 228.829,-386.465 205.454,-413.652 239.685,-448 269.215,-477.631 315.369,-491.637 350.27,-498.225"/>
<polygon fill="black" stroke="black" points="349.797,-501.695 360.25,-499.967 351.001,-494.8 349.797,-501.695"/>
</g>
<!-- AS701 -->
<g id="node16" class="node"><title>AS701</title>
<g id="a_node16"><a xlink:href="/asn/701" xlink:title="AS701 ~ UUNET [US]">
<ellipse fill="#ffffff" stroke="black" cx="399.174" cy="-558" rx="35.194" ry="18"/>
<text text-anchor="middle" x="399.174" y="-554.3" font-family="Times,serif" font-size="14.00" fill="#2c94b3">AS701</text>
</a>
</g>
</g>
<!-- AS6830&#45;&gt;AS701 -->
<g id="edge37" class="edge"><title>AS6830&#45;&gt;AS701</title>
<path fill="none" stroke="black" d="M179.165,-314.825C187.77,-323.026 197.436,-333.684 203.685,-345 234.328,-400.487 199.24,-434.194 239.685,-483 269.512,-518.993 320.584,-538.792 356.68,-548.873"/>
<polygon fill="black" stroke="black" points="355.87,-552.28 366.434,-551.465 357.668,-545.514 355.87,-552.28"/>
</g>
<!-- AS1273 -->
<g id="node17" class="node"><title>AS1273</title>
<g id="a_node17"><a xlink:href="/asn/1273" xlink:title="AS1273 ~ Vodafone Group PLC [EU]">
<ellipse fill="#ffffff" stroke="black" cx="399.174" cy="-234" rx="39.7935" ry="18"/>
<text text-anchor="middle" x="399.174" y="-230.3" font-family="Times,serif" font-size="14.00" fill="#2c94b3">AS1273</text>
</a>
</g>
</g>
<!-- AS6830&#45;&gt;AS1273 -->
<g id="edge42" class="edge"><title>AS6830&#45;&gt;AS1273</title>
<path fill="none" stroke="black" d="M177.414,-282.698C192.44,-269.363 215.68,-251.386 239.685,-243 275.253,-230.574 318.029,-228.853 350.172,-229.947"/>
<polygon fill="black" stroke="black" points="350.067,-233.445 360.212,-230.391 350.376,-226.452 350.067,-233.445"/>
</g>
<!-- AS12956 -->
<g id="node18" class="node"><title>AS12956</title>
<g id="a_node18"><a xlink:href="/asn/12956" xlink:title="AS12956 ~ TELXIUS [ES]">
<ellipse fill="#ffffff" stroke="black" cx="399.174" cy="-72" rx="44.393" ry="18"/>
<text text-anchor="middle" x="399.174" y="-68.3" font-family="Times,serif" font-size="14.00" fill="#2c94b3">AS12956</text>
</a>
</g>
</g>
<!-- AS6830&#45;&gt;AS12956 -->
<g id="edge38" class="edge"><title>AS6830&#45;&gt;AS12956</title>
<path fill="none" stroke="black" d="M165.752,-280.735C175.561,-249.582 199.378,-185.791 239.685,-147 271.326,-116.549 317.635,-96.6011 352.033,-84.9885"/>
<polygon fill="black" stroke="black" points="353.422,-88.2171 361.846,-81.7912 351.253,-81.5615 353.422,-88.2171"/>
</g>
<!-- AS1299&#45;&gt;AS174 -->
<g id="edge7" class="edge"><title>AS1299&#45;&gt;AS174</title>
<path fill="none" stroke="black" stroke-width="2" d="M292.156,-297.121C305.83,-316.132 329.717,-347.033 354.978,-369 358.373,-371.952 362.125,-374.798 365.957,-377.462"/>
<polygon fill="black" stroke="black" stroke-width="2" points="364.087,-380.421 374.369,-382.976 367.925,-374.566 364.087,-380.421"/>
</g>
<!-- AS1299&#45;&gt;AS3257 -->
<g id="edge8" class="edge"><title>AS1299&#45;&gt;AS3257</title>
<path fill="none" stroke="black" stroke-width="2" d="M295.429,-263.288C309.894,-247.765 332.751,-224.481 354.978,-207 358.263,-204.417 361.806,-201.867 365.401,-199.427"/>
<polygon fill="black" stroke="black" stroke-width="2" points="367.316,-202.357 373.786,-193.967 363.496,-196.491 367.316,-202.357"/>
</g>
<!-- AS1299&#45;&gt;AS6762 -->
<g id="edge9" class="edge"><title>AS1299&#45;&gt;AS6762</title>
<path fill="none" stroke="black" d="M287.486,-262.228C298.747,-235.925 322.695,-186.176 354.978,-153 357.599,-150.306 360.541,-147.763 363.624,-145.394"/>
<polygon fill="black" stroke="black" points="365.799,-148.144 371.993,-139.548 361.791,-142.405 365.799,-148.144"/>
</g>
<!-- AS1299&#45;&gt;AS3356 -->
<g id="edge10" class="edge"><title>AS1299&#45;&gt;AS3356</title>
<path fill="none" stroke="black" stroke-width="4" d="M305.902,-293.453C322.811,-302.35 345.184,-314.121 363.665,-323.844"/>
<polygon fill="black" stroke="black" stroke-width="4" points="362.174,-327.014 372.654,-328.573 365.434,-320.82 362.174,-327.014"/>
</g>
<!-- AS1299&#45;&gt;AS7018 -->
<g id="edge11" class="edge"><title>AS1299&#45;&gt;AS7018</title>
<path fill="none" stroke="black" stroke-width="2" d="M281.851,-261.849C286.218,-219.609 302.102,-113.15 354.978,-45 357.282,-42.0304 360.012,-39.3027 362.962,-36.8183"/>
<polygon fill="black" stroke="black" stroke-width="2" points="365.156,-39.55 371.146,-30.8116 361.014,-33.9067 365.156,-39.55"/>
</g>
<!-- AS1299&#45;&gt;AS3491 -->
<g id="edge12" class="edge"><title>AS1299&#45;&gt;AS3491</title>
<path fill="none" stroke="black" d="M318.592,-282.597C328.471,-283.268 339.237,-283.999 349.567,-284.7"/>
<polygon fill="black" stroke="black" points="349.489,-288.203 359.703,-285.388 349.963,-281.219 349.489,-288.203"/>
</g>
<!-- AS1299&#45;&gt;AS6453 -->
<g id="edge13" class="edge"><title>AS1299&#45;&gt;AS6453</title>
<path fill="none" stroke="black" d="M291.332,-297.374C299.355,-310.308 310.296,-328.502 318.978,-345 336.758,-378.788 329.737,-394.353 354.978,-423 357.463,-425.82 360.313,-428.448 363.339,-430.87"/>
<polygon fill="black" stroke="black" points="361.457,-433.826 371.629,-436.789 365.525,-428.13 361.457,-433.826"/>
</g>
<!-- AS3320&#45;&gt;AS6453 -->
<g id="edge29" class="edge"><title>AS3320&#45;&gt;AS6453</title>
<path fill="none" stroke="black" d="M290.503,-560.364C303.497,-538.878 327.608,-502.319 354.978,-477 357.889,-474.307 361.106,-471.729 364.432,-469.308"/>
<polygon fill="black" stroke="black" points="366.491,-472.141 372.813,-463.639 362.569,-466.343 366.491,-472.141"/>
</g>
<!-- AS3320&#45;&gt;AS2497 -->
<g id="edge28" class="edge"><title>AS3320&#45;&gt;AS2497</title>
<path fill="none" stroke="black" d="M303.188,-563.581C317.957,-554.272 337.594,-541.905 354.978,-531 358.602,-528.726 362.399,-526.348 366.174,-523.986"/>
<polygon fill="black" stroke="black" points="368.228,-526.829 374.851,-518.559 364.516,-520.894 368.228,-526.829"/>
</g>
<!-- AS3320&#45;&gt;AS701 -->
<g id="edge27" class="edge"><title>AS3320&#45;&gt;AS701</title>
<path fill="none" stroke="black" d="M316.65,-571.836C328.923,-569.753 342.738,-567.408 355.461,-565.249"/>
<polygon fill="black" stroke="black" points="356.106,-568.69 365.379,-563.566 354.934,-561.789 356.106,-568.69"/>
</g>
<!-- AS1239 -->
<g id="node21" class="node"><title>AS1239</title>
<g id="a_node21"><a xlink:href="/asn/1239" xlink:title="AS1239 ~ Sprint [US]">
<ellipse fill="#ffffff" stroke="black" cx="399.174" cy="-612" rx="39.7935" ry="18"/>
<text text-anchor="middle" x="399.174" y="-608.3" font-family="Times,serif" font-size="14.00" fill="#2c94b3">AS1239</text>
</a>
</g>
</g>
<!-- AS3320&#45;&gt;AS1239 -->
<g id="edge26" class="edge"><title>AS3320&#45;&gt;AS1239</title>
<path fill="none" stroke="black" d="M313.157,-587.471C326.2,-591.234 341.381,-595.614 355.275,-599.623"/>
<polygon fill="black" stroke="black" points="354.537,-603.053 365.116,-602.462 356.478,-596.327 354.537,-603.053"/>
</g>
<!-- AS2914&#45;&gt;AS174 -->
<g id="edge15" class="edge"><title>AS2914&#45;&gt;AS174</title>
<path fill="none" stroke="black" d="M315.688,-379.201C328.438,-381.797 342.95,-384.753 356.21,-387.454"/>
<polygon fill="black" stroke="black" points="355.559,-390.893 366.056,-389.459 356.956,-384.033 355.559,-390.893"/>
</g>
<!-- AS2914&#45;&gt;AS3257 -->
<g id="edge19" class="edge"><title>AS2914&#45;&gt;AS3257</title>
<path fill="none" stroke="black" stroke-width="2" d="M291.763,-354.84C300,-342.014 311.021,-323.859 318.978,-307 339.14,-264.282 325.318,-243.764 354.978,-207 357.338,-204.075 360.105,-201.377 363.079,-198.911"/>
<polygon fill="black" stroke="black" stroke-width="2" points="365.271,-201.644 371.296,-192.93 361.151,-195.985 365.271,-201.644"/>
</g>
<!-- AS2914&#45;&gt;AS6762 -->
<g id="edge16" class="edge"><title>AS2914&#45;&gt;AS6762</title>
<path fill="none" stroke="black" stroke-width="2" d="M292.533,-354.829C301.039,-342.145 312.06,-324.17 318.978,-307 345.247,-241.804 314.086,-210.171 354.978,-153 356.985,-150.195 359.382,-147.617 362.005,-145.264"/>
<polygon fill="black" stroke="black" stroke-width="2" points="364.558,-147.719 370.385,-138.87 360.312,-142.154 364.558,-147.719"/>
</g>
<!-- AS2914&#45;&gt;AS3356 -->
<g id="edge14" class="edge"><title>AS2914&#45;&gt;AS3356</title>
<path fill="none" stroke="black" stroke-width="4" d="M314.417,-363.323C326.875,-360.151 341.147,-356.518 354.338,-353.16"/>
<polygon fill="black" stroke="black" stroke-width="4" points="355.338,-356.517 364.166,-350.658 353.611,-349.733 355.338,-356.517"/>
</g>
<!-- AS2914&#45;&gt;AS3491 -->
<g id="edge18" class="edge"><title>AS2914&#45;&gt;AS3491</title>
<path fill="none" stroke="black" d="M299.607,-356.489C314.466,-344.727 335.671,-328.362 354.978,-315 358.496,-312.565 362.227,-310.087 365.964,-307.668"/>
<polygon fill="black" stroke="black" points="368.038,-310.497 374.601,-302.18 364.284,-304.589 368.038,-310.497"/>
</g>
<!-- AS2914&#45;&gt;AS6453 -->
<g id="edge22" class="edge"><title>AS2914&#45;&gt;AS6453</title>
<path fill="none" stroke="black" d="M301.735,-386.963C316.574,-397.254 336.849,-411.148 354.978,-423 358.559,-425.341 362.329,-427.761 366.089,-430.148"/>
<polygon fill="black" stroke="black" points="364.422,-433.234 374.749,-435.6 368.151,-427.31 364.422,-433.234"/>
</g>
<!-- AS2914&#45;&gt;AS2497 -->
<g id="edge17" class="edge"><title>AS2914&#45;&gt;AS2497</title>
<path fill="none" stroke="black" stroke-width="2" d="M289.903,-389.587C302.628,-411.841 326.817,-450.464 354.978,-477 357.864,-479.72 361.065,-482.315 364.381,-484.746"/>
<polygon fill="black" stroke="black" stroke-width="2" points="362.51,-487.707 372.749,-490.429 366.442,-481.915 362.51,-487.707"/>
</g>
<!-- AS2914&#45;&gt;AS701 -->
<g id="edge20" class="edge"><title>AS2914&#45;&gt;AS701</title>
<path fill="none" stroke="black" d="M285.136,-390.112C294.273,-421.765 316.735,-487.881 354.978,-531 357.817,-534.201 361.125,-537.156 364.624,-539.844"/>
<polygon fill="black" stroke="black" points="362.784,-542.827 373.004,-545.622 366.758,-537.064 362.784,-542.827"/>
</g>
<!-- AS2914&#45;&gt;AS1273 -->
<g id="edge21" class="edge"><title>AS2914&#45;&gt;AS1273</title>
<path fill="none" stroke="black" d="M290.809,-354.568C307.43,-327.251 339.537,-275.934 354.978,-261 357.829,-258.243 361.006,-255.623 364.309,-253.177"/>
<polygon fill="black" stroke="black" points="366.373,-256.006 372.659,-247.477 362.427,-250.224 366.373,-256.006"/>
</g>
<!-- AS2914&#45;&gt;AS12956 -->
<g id="edge23" class="edge"><title>AS2914&#45;&gt;AS12956</title>
<path fill="none" stroke="black" d="M292.837,-354.946C301.491,-342.319 312.563,-324.364 318.978,-307 351.491,-218.995 302.643,-176.866 354.978,-99 356.689,-96.454 358.73,-94.1022 360.979,-91.9387"/>
<polygon fill="black" stroke="black" points="363.644,-94.2877 369.255,-85.3003 359.264,-88.8273 363.644,-94.2877"/>
</g>
<!-- AS3549 -->
<g id="node19" class="node"><title>AS3549</title>
<g id="a_node19"><a xlink:href="/asn/3549" xlink:title="AS3549 ~ Level 3 Parent, LLC [US]">
<ellipse fill="#ffffff" stroke="black" cx="519.017" cy="-369" rx="39.7935" ry="18"/>
<text text-anchor="middle" x="519.017" y="-365.3" font-family="Times,serif" font-size="14.00" fill="#2c94b3">AS3549</text>
</a>
</g>
</g>
<!-- AS3356&#45;&gt;AS3549 -->
<g id="edge24" class="edge"><title>AS3356&#45;&gt;AS3549</title>
<path fill="none" stroke="black" stroke-width="4" d="M434.893,-349.955C446.893,-352.704 460.514,-355.825 473.207,-358.733"/>
<polygon fill="black" stroke="black" stroke-width="4" points="472.609,-362.187 483.138,-361.009 474.173,-355.364 472.609,-362.187"/>
</g>
<!-- AS209 -->
<g id="node20" class="node"><title>AS209</title>
<g id="a_node20"><a xlink:href="/asn/209" xlink:title="AS209 ~ CenturyLink Communications, LLC [US]">
<ellipse fill="#ffffff" stroke="black" cx="519.017" cy="-315" rx="35.194" ry="18"/>
<text text-anchor="middle" x="519.017" y="-311.3" font-family="Times,serif" font-size="14.00" fill="#2c94b3">AS209</text>
</a>
</g>
</g>
<!-- AS3356&#45;&gt;AS209 -->
<g id="edge25" class="edge"><title>AS3356&#45;&gt;AS209</title>
<path fill="none" stroke="black" stroke-width="3" d="M434.893,-334.045C447.986,-331.045 463.008,-327.604 476.649,-324.478"/>
<polygon fill="black" stroke="black" stroke-width="3" points="477.79,-327.807 486.756,-322.162 476.227,-320.984 477.79,-327.807"/>
</g>
</g>
</svg>
