<?xml version="1.0" encoding="UTF-8" standalone="no"?>
<!DOCTYPE svg PUBLIC "-//W3C//DTD SVG 1.1//EN"
 "http://www.w3.org/Graphics/SVG/1.1/DTD/svg11.dtd">
<!-- Generated by graphviz version 2.38.0 (20140413.2041)
 -->
<!-- Title: AS51890 Combined Upstream Graph Pages: 1 -->
<svg width="567pt" height="780pt"
 viewBox="0.00 0.00 566.66 780.00" xmlns="http://www.w3.org/2000/svg" xmlns:xlink="http://www.w3.org/1999/xlink">
<g id="graph0" class="graph" transform="scale(1 1) rotate(0) translate(4 776)">
<title>AS51890 Combined Upstream Graph</title>
<polygon fill="white" stroke="none" points="-4,4 -4,-776 562.663,-776 562.663,4 -4,4"/>
<!-- AS51890 -->
<g id="node1" class="node"><title>AS51890</title>
<g id="a_node1"><a xlink:href="/asn/51890" xlink:title="AS51890 ~ Mayr&#45;Melnhof Karton GmbH [AT]">
<ellipse fill="#ffffff" stroke="black" cx="44.1961" cy="-401" rx="44.393" ry="18"/>
<text text-anchor="middle" x="44.1961" y="-397.3" font-family="Times,serif" font-size="14.00" fill="#880000">AS51890</text>
</a>
</g>
</g>
<!-- AS1764 -->
<g id="node2" class="node"><title>AS1764</title>
<g id="a_node2"><a xlink:href="/asn/1764" xlink:title="AS1764 ~ NEXTLAYER&#45;AS [AT]">
<ellipse fill="#ffffff" stroke="black" cx="164.039" cy="-424" rx="39.7935" ry="18"/>
<text text-anchor="middle" x="164.039" y="-420.3" font-family="Times,serif" font-size="14.00" fill="#2c94b3">AS1764</text>
</a>
</g>
</g>
<!-- AS51890&#45;&gt;AS1764 -->
<g id="edge1" class="edge"><title>AS51890&#45;&gt;AS1764</title>
<path fill="none" stroke="black" stroke-width="4.5" d="M84.4359,-408.659C94.8881,-410.699 106.274,-412.921 117.052,-415.025"/>
<polygon fill="black" stroke="black" stroke-width="4.5" points="116.58,-418.944 127.149,-416.995 118.089,-411.215 116.58,-418.944"/>
</g>
<!-- AS3257 -->
<g id="node3" class="node"><title>AS3257</title>
<g id="a_node3"><a xlink:href="/asn/3257" xlink:title="AS3257 ~ GTT [DE]">
<ellipse fill="#ffffff" stroke="black" cx="279.332" cy="-378" rx="39.7935" ry="18"/>
<text text-anchor="middle" x="279.332" y="-374.3" font-family="Times,serif" font-size="14.00" fill="#2c94b3">AS3257</text>
</a>
</g>
</g>
<!-- AS51890&#45;&gt;AS3257 -->
<g id="edge2" class="edge"><title>AS51890&#45;&gt;AS3257</title>
<path fill="none" stroke="black" stroke-width="2.31429" d="M87.4152,-396.835C127.661,-392.864 188.2,-386.892 230.277,-382.741"/>
<polygon fill="black" stroke="black" stroke-width="2.31429" points="230.678,-386.218 240.286,-381.753 229.991,-379.252 230.678,-386.218"/>
</g>
<!-- AS1764&#45;&gt;AS3257 -->
<g id="edge3" class="edge"><title>AS1764&#45;&gt;AS3257</title>
<path fill="none" stroke="black" stroke-width="2.8125" d="M194.214,-412.154C208.09,-406.52 224.867,-399.708 239.776,-393.654"/>
<polygon fill="black" stroke="black" stroke-width="2.8125" points="241.306,-396.811 249.255,-389.806 238.673,-390.325 241.306,-396.811"/>
</g>
<!-- AS174 -->
<g id="node4" class="node"><title>AS174</title>
<g id="a_node4"><a xlink:href="/asn/174" xlink:title="AS174 ~ Cogent Communications [US]">
<ellipse fill="#ffffff" stroke="black" cx="399.174" cy="-424" rx="35.194" ry="18"/>
<text text-anchor="middle" x="399.174" y="-420.3" font-family="Times,serif" font-size="14.00" fill="#2c94b3">AS174</text>
</a>
</g>
</g>
<!-- AS1764&#45;&gt;AS174 -->
<g id="edge4" class="edge"><title>AS1764&#45;&gt;AS174</title>
<path fill="none" stroke="black" stroke-width="4.5" d="M203.798,-424C245.065,-424 310.277,-424 353.631,-424"/>
<polygon fill="black" stroke="black" stroke-width="4.5" points="353.883,-427.938 363.883,-424 353.883,-420.063 353.883,-427.938"/>
</g>
<!-- AS2914 -->
<g id="node5" class="node"><title>AS2914</title>
<g id="a_node5"><a xlink:href="/asn/2914" xlink:title="AS2914 ~ NTT America, Inc. [US]">
<ellipse fill="#ffffff" stroke="black" cx="399.174" cy="-700" rx="39.7935" ry="18"/>
<text text-anchor="middle" x="399.174" y="-696.3" font-family="Times,serif" font-size="14.00" fill="#2c94b3">AS2914</text>
</a>
</g>
</g>
<!-- AS1764&#45;&gt;AS2914 -->
<g id="edge5" class="edge"><title>AS1764&#45;&gt;AS2914</title>
<path fill="none" stroke="black" stroke-width="2.8125" d="M168.281,-441.99C175.472,-477.464 195.719,-557.376 239.685,-608 271.721,-644.887 322.351,-670.624 357.741,-685.315"/>
<polygon fill="black" stroke="black" stroke-width="2.8125" points="356.707,-688.672 367.29,-689.166 359.325,-682.18 356.707,-688.672"/>
</g>
<!-- AS1299 -->
<g id="node6" class="node"><title>AS1299</title>
<g id="a_node6"><a xlink:href="/asn/1299" xlink:title="AS1299 ~ Telia Carrier [EU]">
<ellipse fill="#ffffff" stroke="black" cx="399.174" cy="-478" rx="39.7935" ry="18"/>
<text text-anchor="middle" x="399.174" y="-474.3" font-family="Times,serif" font-size="14.00" fill="#2c94b3">AS1299</text>
</a>
</g>
</g>
<!-- AS1764&#45;&gt;AS1299 -->
<g id="edge6" class="edge"><title>AS1764&#45;&gt;AS1299</title>
<path fill="none" stroke="black" stroke-width="3.375" d="M199.69,-432.026C240.61,-441.504 308.763,-457.29 353.585,-467.672"/>
<polygon fill="black" stroke="black" stroke-width="3.375" points="352.801,-471.083 363.333,-469.93 354.381,-464.264 352.801,-471.083"/>
</g>
<!-- AS8218 -->
<g id="node7" class="node"><title>AS8218</title>
<g id="a_node7"><a xlink:href="/asn/8218" xlink:title="AS8218 ~ legacy Neotelecoms [FR]">
<ellipse fill="#ffffff" stroke="black" cx="279.332" cy="-581" rx="39.7935" ry="18"/>
<text text-anchor="middle" x="279.332" y="-577.3" font-family="Times,serif" font-size="14.00" fill="#2c94b3">AS8218</text>
</a>
</g>
</g>
<!-- AS1764&#45;&gt;AS8218 -->
<g id="edge7" class="edge"><title>AS1764&#45;&gt;AS8218</title>
<path fill="none" stroke="black" stroke-width="1.125" d="M177.379,-441.101C197.299,-468.706 236.653,-523.242 259.905,-555.465"/>
<polygon fill="black" stroke="black" stroke-width="1.125" points="257.317,-557.859 266.007,-563.92 262.993,-553.763 257.317,-557.859"/>
</g>
<!-- AS3356 -->
<g id="node8" class="node"><title>AS3356</title>
<g id="a_node8"><a xlink:href="/asn/3356" xlink:title="AS3356 ~ Level 3 Parent, LLC [US]">
<ellipse fill="#ffffff" stroke="black" cx="399.174" cy="-18" rx="39.7935" ry="18"/>
<text text-anchor="middle" x="399.174" y="-14.3" font-family="Times,serif" font-size="14.00" fill="#2c94b3">AS3356</text>
</a>
</g>
</g>
<!-- AS1764&#45;&gt;AS3356 -->
<g id="edge8" class="edge"><title>AS1764&#45;&gt;AS3356</title>
<path fill="none" stroke="black" stroke-width="2.25" d="M166.076,-406.013C169.528,-359.019 183.821,-230.111 239.685,-142 270.21,-93.8551 326.211,-56.7073 362.811,-36.0975"/>
<polygon fill="black" stroke="black" stroke-width="2.25" points="364.6,-39.1078 371.67,-31.2173 361.222,-32.9764 364.6,-39.1078"/>
</g>
<!-- AS6939 -->
<g id="node9" class="node"><title>AS6939</title>
<g id="a_node9"><a xlink:href="/asn/6939" xlink:title="AS6939 ~ Hurricane Electric LLC [US]">
<ellipse fill="#ffffff" stroke="black" cx="399.174" cy="-754" rx="39.7935" ry="18"/>
<text text-anchor="middle" x="399.174" y="-750.3" font-family="Times,serif" font-size="14.00" fill="#2c94b3">AS6939</text>
</a>
</g>
</g>
<!-- AS1764&#45;&gt;AS6939 -->
<g id="edge9" class="edge"><title>AS1764&#45;&gt;AS6939</title>
<path fill="none" stroke="black" stroke-width="1.6875" d="M166.918,-442.065C171.988,-483.107 189.158,-584.926 239.685,-651 270.976,-691.919 323.482,-721.383 359.422,-738.055"/>
<polygon fill="black" stroke="black" stroke-width="1.6875" points="358.079,-741.289 368.633,-742.217 360.961,-734.91 358.079,-741.289"/>
</g>
<!-- AS3320 -->
<g id="node10" class="node"><title>AS3320</title>
<g id="a_node10"><a xlink:href="/asn/3320" xlink:title="AS3320 ~ DTAG [DE]">
<ellipse fill="#ffffff" stroke="black" cx="399.174" cy="-72" rx="39.7935" ry="18"/>
<text text-anchor="middle" x="399.174" y="-68.3" font-family="Times,serif" font-size="14.00" fill="#2c94b3">AS3320</text>
</a>
</g>
</g>
<!-- AS1764&#45;&gt;AS3320 -->
<g id="edge10" class="edge"><title>AS1764&#45;&gt;AS3320</title>
<path fill="none" stroke="black" stroke-width="1.125" d="M171.826,-406.204C192.496,-353.828 259.16,-197.711 354.978,-99 357.596,-96.303 360.535,-93.7574 363.617,-91.3872"/>
<polygon fill="black" stroke="black" stroke-width="1.125" points="365.793,-94.1367 371.984,-85.5393 361.783,-88.399 365.793,-94.1367"/>
</g>
<!-- AS3257&#45;&gt;AS174 -->
<g id="edge29" class="edge"><title>AS3257&#45;&gt;AS174</title>
<path fill="none" stroke="black" d="M310.068,-389.608C325.685,-395.704 344.962,-403.229 361.499,-409.684"/>
<polygon fill="black" stroke="black" points="360.282,-412.966 370.87,-413.342 362.828,-406.445 360.282,-412.966"/>
</g>
<!-- AS3257&#45;&gt;AS2914 -->
<g id="edge28" class="edge"><title>AS3257&#45;&gt;AS2914</title>
<path fill="none" stroke="black" d="M284.086,-396.087C296.776,-456.68 338.21,-650.002 354.978,-673 357.192,-676.037 359.862,-678.81 362.775,-681.322"/>
<polygon fill="black" stroke="black" points="360.794,-684.211 370.907,-687.368 364.97,-678.593 360.794,-684.211"/>
</g>
<!-- AS3257&#45;&gt;AS1299 -->
<g id="edge25" class="edge"><title>AS3257&#45;&gt;AS1299</title>
<path fill="none" stroke="black" d="M295.429,-394.712C309.894,-410.235 332.751,-433.519 354.978,-451 358.263,-453.583 361.806,-456.133 365.401,-458.573"/>
<polygon fill="black" stroke="black" points="363.496,-461.509 373.786,-464.033 367.316,-455.643 363.496,-461.509"/>
</g>
<!-- AS3257&#45;&gt;AS3356 -->
<g id="edge26" class="edge"><title>AS3257&#45;&gt;AS3356</title>
<path fill="none" stroke="black" stroke-width="2" d="M279.735,-359.826C278.882,-306.324 282.886,-146.768 354.978,-45 356.972,-42.1856 359.361,-39.602 361.978,-37.2443"/>
<polygon fill="black" stroke="black" stroke-width="2" points="364.53,-39.6985 370.348,-30.8438 360.278,-34.1379 364.53,-39.6985"/>
</g>
<!-- AS3257&#45;&gt;AS3320 -->
<g id="edge24" class="edge"><title>AS3257&#45;&gt;AS3320</title>
<path fill="none" stroke="black" d="M284.742,-360.076C299.541,-300.142 346.947,-109.86 354.978,-99 357.213,-95.9781 359.896,-93.2153 362.818,-90.7091"/>
<polygon fill="black" stroke="black" points="365.013,-93.4387 370.962,-84.6719 360.844,-87.8153 365.013,-93.4387"/>
</g>
<!-- AS6762 -->
<g id="node11" class="node"><title>AS6762</title>
<g id="a_node11"><a xlink:href="/asn/6762" xlink:title="AS6762 ~ TELECOM ITALIA SPARKLE S.p.A. [IT]">
<ellipse fill="#ffffff" stroke="black" cx="519.017" cy="-493" rx="39.7935" ry="18"/>
<text text-anchor="middle" x="519.017" y="-489.3" font-family="Times,serif" font-size="14.00" fill="#2c94b3">AS6762</text>
</a>
</g>
</g>
<!-- AS3257&#45;&gt;AS6762 -->
<g id="edge16" class="edge"><title>AS3257&#45;&gt;AS6762</title>
<path fill="none" stroke="black" d="M284.762,-395.995C292.993,-425.038 313.689,-481.375 354.978,-505 392.758,-526.617 443.784,-518.027 478.627,-507.665"/>
<polygon fill="black" stroke="black" points="479.958,-510.915 488.444,-504.571 477.854,-504.238 479.958,-510.915"/>
</g>
<!-- AS2497 -->
<g id="node12" class="node"><title>AS2497</title>
<g id="a_node12"><a xlink:href="/asn/2497" xlink:title="AS2497 ~ Internet Initiative Japan Inc. [JP]">
<ellipse fill="#ffffff" stroke="black" cx="519.017" cy="-700" rx="39.7935" ry="18"/>
<text text-anchor="middle" x="519.017" y="-696.3" font-family="Times,serif" font-size="14.00" fill="#2c94b3">AS2497</text>
</a>
</g>
</g>
<!-- AS3257&#45;&gt;AS2497 -->
<g id="edge15" class="edge"><title>AS3257&#45;&gt;AS2497</title>
<path fill="none" stroke="black" stroke-width="3" d="M284.458,-395.992C292.953,-429.986 315.031,-504.744 354.978,-555 385.158,-592.968 407.113,-586.784 443.37,-619 463.149,-636.574 483.353,-658.812 497.745,-675.539"/>
<polygon fill="black" stroke="black" stroke-width="3" points="495.17,-677.915 504.316,-683.264 500.502,-673.379 495.17,-677.915"/>
</g>
<!-- AS6461 -->
<g id="node13" class="node"><title>AS6461</title>
<g id="a_node13"><a xlink:href="/asn/6461" xlink:title="AS6461 ~ Zayo Bandwidth [US]">
<ellipse fill="#ffffff" stroke="black" cx="399.174" cy="-646" rx="39.7935" ry="18"/>
<text text-anchor="middle" x="399.174" y="-642.3" font-family="Times,serif" font-size="14.00" fill="#2c94b3">AS6461</text>
</a>
</g>
</g>
<!-- AS3257&#45;&gt;AS6461 -->
<g id="edge27" class="edge"><title>AS3257&#45;&gt;AS6461</title>
<path fill="none" stroke="black" d="M282.24,-396.263C287.403,-438.301 304.807,-543.689 354.978,-614 358.017,-618.259 361.797,-622.187 365.847,-625.726"/>
<polygon fill="black" stroke="black" points="363.826,-628.589 373.845,-632.033 368.16,-623.093 363.826,-628.589"/>
</g>
<!-- AS3491 -->
<g id="node14" class="node"><title>AS3491</title>
<g id="a_node14"><a xlink:href="/asn/3491" xlink:title="AS3491 ~ PCCW Global, Inc. [US]">
<ellipse fill="#ffffff" stroke="black" cx="519.017" cy="-562" rx="39.7935" ry="18"/>
<text text-anchor="middle" x="519.017" y="-558.3" font-family="Times,serif" font-size="14.00" fill="#2c94b3">AS3491</text>
</a>
</g>
</g>
<!-- AS3257&#45;&gt;AS3491 -->
<g id="edge14" class="edge"><title>AS3257&#45;&gt;AS3491</title>
<path fill="none" stroke="black" stroke-width="2" d="M284.226,-396.103C291.957,-427.469 312.31,-491.745 354.978,-525 387.483,-550.334 434.084,-558.948 469.146,-561.595"/>
<polygon fill="black" stroke="black" stroke-width="2" points="468.97,-565.091 479.168,-562.215 469.403,-558.104 468.97,-565.091"/>
</g>
<!-- AS6453 -->
<g id="node15" class="node"><title>AS6453</title>
<g id="a_node15"><a xlink:href="/asn/6453" xlink:title="AS6453 ~ TATA COMMUNICATIONS (AMERICA) INC [US]">
<ellipse fill="#ffffff" stroke="black" cx="519.017" cy="-72" rx="39.7935" ry="18"/>
<text text-anchor="middle" x="519.017" y="-68.3" font-family="Times,serif" font-size="14.00" fill="#2c94b3">AS6453</text>
</a>
</g>
</g>
<!-- AS3257&#45;&gt;AS6453 -->
<g id="edge17" class="edge"><title>AS3257&#45;&gt;AS6453</title>
<path fill="none" stroke="black" d="M282.878,-359.806C288.906,-323.195 307.292,-239.953 354.978,-191 384.816,-160.369 408.471,-177.71 443.37,-153 465.233,-137.52 485.519,-114.729 499.409,-97.2626"/>
<polygon fill="black" stroke="black" points="502.323,-99.216 505.692,-89.1712 496.795,-94.9226 502.323,-99.216"/>
</g>
<!-- AS12956 -->
<g id="node16" class="node"><title>AS12956</title>
<g id="a_node16"><a xlink:href="/asn/12956" xlink:title="AS12956 ~ TELXIUS [ES]">
<ellipse fill="#ffffff" stroke="black" cx="399.174" cy="-126" rx="44.393" ry="18"/>
<text text-anchor="middle" x="399.174" y="-122.3" font-family="Times,serif" font-size="14.00" fill="#2c94b3">AS12956</text>
</a>
</g>
</g>
<!-- AS3257&#45;&gt;AS12956 -->
<g id="edge18" class="edge"><title>AS3257&#45;&gt;AS12956</title>
<path fill="none" stroke="black" d="M282.751,-359.781C288.81,-319.815 307.681,-222.847 354.978,-158 357.852,-154.06 361.352,-150.395 365.103,-147.058"/>
<polygon fill="black" stroke="black" points="367.433,-149.676 373.034,-140.683 363.047,-144.219 367.433,-149.676"/>
</g>
<!-- AS7018 -->
<g id="node17" class="node"><title>AS7018</title>
<g id="a_node17"><a xlink:href="/asn/7018" xlink:title="AS7018 ~ AT&amp;T Services, Inc. [US]">
<ellipse fill="#ffffff" stroke="black" cx="519.017" cy="-371" rx="39.7935" ry="18"/>
<text text-anchor="middle" x="519.017" y="-367.3" font-family="Times,serif" font-size="14.00" fill="#2c94b3">AS7018</text>
</a>
</g>
</g>
<!-- AS3257&#45;&gt;AS7018 -->
<g id="edge19" class="edge"><title>AS3257&#45;&gt;AS7018</title>
<path fill="none" stroke="black" d="M315.081,-370.099C327.587,-367.624 341.849,-365.221 354.978,-364 393.67,-360.403 437.701,-362.67 470.245,-365.549"/>
<polygon fill="black" stroke="black" points="470.103,-369.051 480.386,-366.499 470.756,-362.082 470.103,-369.051"/>
</g>
<!-- AS701 -->
<g id="node18" class="node"><title>AS701</title>
<g id="a_node18"><a xlink:href="/asn/701" xlink:title="AS701 ~ UUNET [US]">
<ellipse fill="#ffffff" stroke="black" cx="519.017" cy="-263" rx="35.194" ry="18"/>
<text text-anchor="middle" x="519.017" y="-259.3" font-family="Times,serif" font-size="14.00" fill="#2c94b3">AS701</text>
</a>
</g>
</g>
<!-- AS3257&#45;&gt;AS701 -->
<g id="edge20" class="edge"><title>AS3257&#45;&gt;AS701</title>
<path fill="none" stroke="black" d="M302.74,-363.387C317.33,-354.151 336.937,-342.256 354.978,-333 397.135,-311.372 447.492,-290.463 480.975,-277.217"/>
<polygon fill="black" stroke="black" points="482.346,-280.439 490.374,-273.525 479.787,-273.924 482.346,-280.439"/>
</g>
<!-- AS1239 -->
<g id="node19" class="node"><title>AS1239</title>
<g id="a_node19"><a xlink:href="/asn/1239" xlink:title="AS1239 ~ Sprint [US]">
<ellipse fill="#ffffff" stroke="black" cx="519.017" cy="-317" rx="39.7935" ry="18"/>
<text text-anchor="middle" x="519.017" y="-313.3" font-family="Times,serif" font-size="14.00" fill="#2c94b3">AS1239</text>
</a>
</g>
</g>
<!-- AS3257&#45;&gt;AS1239 -->
<g id="edge21" class="edge"><title>AS3257&#45;&gt;AS1239</title>
<path fill="none" stroke="black" d="M314.134,-369.325C356.164,-358.538 427.995,-340.103 474.209,-328.243"/>
<polygon fill="black" stroke="black" points="475.13,-331.62 483.946,-325.744 473.39,-324.84 475.13,-331.62"/>
</g>
<!-- AS209 -->
<g id="node20" class="node"><title>AS209</title>
<g id="a_node20"><a xlink:href="/asn/209" xlink:title="AS209 ~ CenturyLink Communications, LLC [US]">
<ellipse fill="#ffffff" stroke="black" cx="519.017" cy="-425" rx="35.194" ry="18"/>
<text text-anchor="middle" x="519.017" y="-421.3" font-family="Times,serif" font-size="14.00" fill="#2c94b3">AS209</text>
</a>
</g>
</g>
<!-- AS3257&#45;&gt;AS209 -->
<g id="edge22" class="edge"><title>AS3257&#45;&gt;AS209</title>
<path fill="none" stroke="black" d="M319.008,-379.859C352.339,-382.087 401.547,-386.879 443.37,-397 456.427,-400.16 470.313,-404.948 482.522,-409.676"/>
<polygon fill="black" stroke="black" points="481.321,-412.965 491.906,-413.423 483.917,-406.464 481.321,-412.965"/>
</g>
<!-- AS5511 -->
<g id="node21" class="node"><title>AS5511</title>
<g id="a_node21"><a xlink:href="/asn/5511" xlink:title="AS5511 ~ Orange S.A. [FR]">
<ellipse fill="#ffffff" stroke="black" cx="399.174" cy="-218" rx="39.7935" ry="18"/>
<text text-anchor="middle" x="399.174" y="-214.3" font-family="Times,serif" font-size="14.00" fill="#2c94b3">AS5511</text>
</a>
</g>
</g>
<!-- AS3257&#45;&gt;AS5511 -->
<g id="edge23" class="edge"><title>AS3257&#45;&gt;AS5511</title>
<path fill="none" stroke="black" d="M287.798,-360.408C299.457,-334.306 323.907,-284.679 354.978,-250 358.546,-246.018 362.679,-242.216 366.947,-238.713"/>
<polygon fill="black" stroke="black" points="369.403,-241.24 375.206,-232.375 365.142,-235.687 369.403,-241.24"/>
</g>
<!-- AS174&#45;&gt;AS6762 -->
<g id="edge30" class="edge"><title>AS174&#45;&gt;AS6762</title>
<path fill="none" stroke="black" stroke-width="2" d="M422.895,-437.304C440.527,-447.628 465.22,-462.086 485.028,-473.684"/>
<polygon fill="black" stroke="black" stroke-width="2" points="483.344,-476.754 493.743,-478.787 486.882,-470.714 483.344,-476.754"/>
</g>
<!-- AS174&#45;&gt;AS3491 -->
<g id="edge33" class="edge"><title>AS174&#45;&gt;AS3491</title>
<path fill="none" stroke="black" d="M425.188,-436.52C431.636,-440.538 438.205,-445.417 443.37,-451 466.86,-476.391 459.488,-491.696 479.37,-520 483.756,-526.243 489,-532.531 494.188,-538.271"/>
<polygon fill="black" stroke="black" points="491.756,-540.794 501.144,-545.703 496.867,-536.01 491.756,-540.794"/>
</g>
<!-- AS174&#45;&gt;AS701 -->
<g id="edge32" class="edge"><title>AS174&#45;&gt;AS701</title>
<path fill="none" stroke="black" d="M407.621,-406.374C419.73,-379.16 445.756,-326.272 479.37,-290 481.78,-287.4 484.48,-284.907 487.304,-282.559"/>
<polygon fill="black" stroke="black" points="489.614,-285.199 495.451,-276.358 485.374,-279.629 489.614,-285.199"/>
</g>
<!-- AS174&#45;&gt;AS1239 -->
<g id="edge31" class="edge"><title>AS174&#45;&gt;AS1239</title>
<path fill="none" stroke="black" d="M414.572,-407.814C429.875,-391.017 455.158,-364.399 479.37,-344 481.874,-341.891 484.539,-339.781 487.253,-337.723"/>
<polygon fill="black" stroke="black" points="489.418,-340.477 495.434,-331.756 485.292,-334.821 489.418,-340.477"/>
</g>
<!-- AS174&#45;&gt;AS209 -->
<g id="edge34" class="edge"><title>AS174&#45;&gt;AS209</title>
<path fill="none" stroke="black" d="M434.576,-424.292C446.798,-424.396 460.733,-424.514 473.668,-424.624"/>
<polygon fill="black" stroke="black" points="473.747,-428.124 483.776,-424.709 473.806,-421.125 473.747,-428.124"/>
</g>
<!-- AS2914&#45;&gt;AS6762 -->
<g id="edge11" class="edge"><title>AS2914&#45;&gt;AS6762</title>
<path fill="none" stroke="black" d="M427.412,-687.347C433.392,-683.476 439.181,-678.701 443.37,-673 480.901,-621.92 449.009,-590.641 479.37,-535 482.96,-528.422 487.801,-522.065 492.841,-516.373"/>
<polygon fill="black" stroke="black" points="495.421,-518.739 499.739,-509.064 490.33,-513.935 495.421,-518.739"/>
</g>
<!-- AS2914&#45;&gt;AS2497 -->
<g id="edge12" class="edge"><title>AS2914&#45;&gt;AS2497</title>
<path fill="none" stroke="black" stroke-width="2" d="M439.087,-700C448.64,-700 458.99,-700 468.952,-700"/>
<polygon fill="black" stroke="black" stroke-width="2" points="469.145,-703.5 479.145,-700 469.145,-696.5 469.145,-703.5"/>
</g>
<!-- AS1299&#45;&gt;AS6762 -->
<g id="edge35" class="edge"><title>AS1299&#45;&gt;AS6762</title>
<path fill="none" stroke="black" d="M437.46,-482.746C447.992,-484.087 459.595,-485.564 470.635,-486.969"/>
<polygon fill="black" stroke="black" points="470.207,-490.442 480.569,-488.233 471.091,-483.499 470.207,-490.442"/>
</g>
<!-- AS1299&#45;&gt;AS7018 -->
<g id="edge36" class="edge"><title>AS1299&#45;&gt;AS7018</title>
<path fill="none" stroke="black" stroke-width="2" d="M425.673,-464.506C431.836,-460.607 438.146,-456.029 443.37,-451 463.885,-431.251 459.368,-418.267 479.37,-398 481.472,-395.87 483.762,-393.798 486.144,-391.81"/>
<polygon fill="black" stroke="black" stroke-width="2" points="488.66,-394.29 494.451,-385.418 484.392,-388.742 488.66,-394.29"/>
</g>
<!-- AS1299&#45;&gt;AS209 -->
<g id="edge37" class="edge"><title>AS1299&#45;&gt;AS209</title>
<path fill="none" stroke="black" d="M428.101,-465.44C444.411,-458.105 465.149,-448.777 482.598,-440.93"/>
<polygon fill="black" stroke="black" points="484.22,-444.038 491.905,-436.744 481.349,-437.654 484.22,-444.038"/>
</g>
<!-- AS8218&#45;&gt;AS6461 -->
<g id="edge13" class="edge"><title>AS8218&#45;&gt;AS6461</title>
<path fill="none" stroke="black" stroke-width="2" d="M305.323,-594.785C322.509,-604.264 345.537,-616.966 364.36,-627.349"/>
<polygon fill="black" stroke="black" stroke-width="2" points="362.772,-630.47 373.219,-632.235 366.153,-624.34 362.772,-630.47"/>
</g>
<!-- AS3356&#45;&gt;AS6453 -->
<g id="edge39" class="edge"><title>AS3356&#45;&gt;AS6453</title>
<path fill="none" stroke="black" d="M427.803,-30.6606C443.76,-37.9727 464.031,-47.2615 481.313,-55.1811"/>
<polygon fill="black" stroke="black" points="480.012,-58.4347 490.561,-59.4187 482.928,-52.071 480.012,-58.4347"/>
</g>
<!-- AS3549 -->
<g id="node22" class="node"><title>AS3549</title>
<g id="a_node22"><a xlink:href="/asn/3549" xlink:title="AS3549 ~ Level 3 Parent, LLC [US]">
<ellipse fill="#ffffff" stroke="black" cx="519.017" cy="-18" rx="39.7935" ry="18"/>
<text text-anchor="middle" x="519.017" y="-14.3" font-family="Times,serif" font-size="14.00" fill="#2c94b3">AS3549</text>
</a>
</g>
</g>
<!-- AS3356&#45;&gt;AS3549 -->
<g id="edge38" class="edge"><title>AS3356&#45;&gt;AS3549</title>
<path fill="none" stroke="black" stroke-width="2" d="M439.087,-18C448.64,-18 458.99,-18 468.952,-18"/>
<polygon fill="black" stroke="black" stroke-width="2" points="469.145,-21.5001 479.145,-18 469.145,-14.5001 469.145,-21.5001"/>
</g>
<!-- AS6939&#45;&gt;AS2497 -->
<g id="edge40" class="edge"><title>AS6939&#45;&gt;AS2497</title>
<path fill="none" stroke="black" d="M427.803,-741.339C443.76,-734.027 464.031,-724.739 481.313,-716.819"/>
<polygon fill="black" stroke="black" points="482.928,-719.929 490.561,-712.581 480.012,-713.565 482.928,-719.929"/>
</g>
<!-- AS6939&#45;&gt;AS3491 -->
<g id="edge41" class="edge"><title>AS6939&#45;&gt;AS3491</title>
<path fill="none" stroke="black" d="M426.748,-740.814C432.748,-736.96 438.713,-732.326 443.37,-727 479.1,-686.139 500.587,-625.35 510.792,-590.094"/>
<polygon fill="black" stroke="black" points="514.286,-590.595 513.6,-580.022 507.543,-588.715 514.286,-590.595"/>
</g>
<!-- AS1273 -->
<g id="node23" class="node"><title>AS1273</title>
<g id="a_node23"><a xlink:href="/asn/1273" xlink:title="AS1273 ~ Vodafone Group PLC [EU]">
<ellipse fill="#ffffff" stroke="black" cx="519.017" cy="-754" rx="39.7935" ry="18"/>
<text text-anchor="middle" x="519.017" y="-750.3" font-family="Times,serif" font-size="14.00" fill="#2c94b3">AS1273</text>
</a>
</g>
</g>
<!-- AS6939&#45;&gt;AS1273 -->
<g id="edge42" class="edge"><title>AS6939&#45;&gt;AS1273</title>
<path fill="none" stroke="black" d="M439.087,-754C448.64,-754 458.99,-754 468.952,-754"/>
<polygon fill="black" stroke="black" points="469.145,-757.5 479.145,-754 469.145,-750.5 469.145,-757.5"/>
</g>
<!-- AS3320&#45;&gt;AS6453 -->
<g id="edge44" class="edge"><title>AS3320&#45;&gt;AS6453</title>
<path fill="none" stroke="black" d="M439.087,-72C448.64,-72 458.99,-72 468.952,-72"/>
<polygon fill="black" stroke="black" points="469.145,-75.5001 479.145,-72 469.145,-68.5001 469.145,-75.5001"/>
</g>
<!-- AS3320&#45;&gt;AS701 -->
<g id="edge43" class="edge"><title>AS3320&#45;&gt;AS701</title>
<path fill="none" stroke="black" d="M426.739,-85.1932C432.74,-89.0473 438.707,-93.6793 443.37,-99 478.967,-139.615 500.501,-200.035 510.75,-235.077"/>
<polygon fill="black" stroke="black" points="507.49,-236.412 513.572,-245.087 514.227,-234.513 507.49,-236.412"/>
</g>
</g>
</svg>
