<?xml version="1.0" encoding="UTF-8" standalone="no"?>
<!DOCTYPE svg PUBLIC "-//W3C//DTD SVG 1.1//EN"
 "http://www.w3.org/Graphics/SVG/1.1/DTD/svg11.dtd">
<!-- Generated by graphviz version 2.38.0 (20140413.2041)
 -->
<!-- Title: AS57169 Combined Upstream Graph Pages: 1 -->
<svg width="1046pt" height="1402pt"
 viewBox="0.00 0.00 1046.03 1401.99" xmlns="http://www.w3.org/2000/svg" xmlns:xlink="http://www.w3.org/1999/xlink">
<g id="graph0" class="graph" transform="scale(1 1) rotate(0) translate(4 1397.99)">
<title>AS57169 Combined Upstream Graph</title>
<polygon fill="white" stroke="none" points="-4,4 -4,-1397.99 1042.03,-1397.99 1042.03,4 -4,4"/>
<!-- AS57169 -->
<g id="node1" class="node"><title>AS57169</title>
<g id="a_node1"><a xlink:href="/asn/57169" xlink:title="AS57169 ~ EDIS GmbH [AT]">
<ellipse fill="#ffffff" stroke="black" cx="44.1961" cy="-788" rx="44.393" ry="18"/>
<text text-anchor="middle" x="44.1961" y="-784.3" font-family="Times,serif" font-size="14.00" fill="#880000">AS57169</text>
</a>
</g>
</g>
<!-- AS1299 -->
<g id="node2" class="node"><title>AS1299</title>
<g id="a_node2"><a xlink:href="/asn/1299" xlink:title="AS1299 ~ Telia Carrier [EU]">
<ellipse fill="#ffffff" stroke="black" cx="528.116" cy="-627" rx="39.7935" ry="18"/>
<text text-anchor="middle" x="528.116" y="-623.3" font-family="Times,serif" font-size="14.00" fill="#2c94b3">AS1299</text>
</a>
</g>
</g>
<!-- AS57169&#45;&gt;AS1299 -->
<g id="edge1" class="edge"><title>AS57169&#45;&gt;AS1299</title>
<path fill="none" stroke="black" stroke-width="3.75" d="M65.248,-771.975C113.299,-734.729 240.258,-643.06 364.077,-611 404.25,-600.598 451.591,-607.251 484.88,-614.896"/>
<polygon fill="black" stroke="black" stroke-width="3.75" points="484.194,-618.331 494.737,-617.283 485.841,-611.528 484.194,-618.331"/>
</g>
<!-- AS3257 -->
<g id="node3" class="node"><title>AS3257</title>
<g id="a_node3"><a xlink:href="/asn/3257" xlink:title="AS3257 ~ GTT [DE]">
<ellipse fill="#ffffff" stroke="black" cx="647.958" cy="-834" rx="39.7935" ry="18"/>
<text text-anchor="middle" x="647.958" y="-830.3" font-family="Times,serif" font-size="14.00" fill="#2c94b3">AS3257</text>
</a>
</g>
</g>
<!-- AS57169&#45;&gt;AS3257 -->
<g id="edge2" class="edge"><title>AS57169&#45;&gt;AS3257</title>
<path fill="none" stroke="black" stroke-width="1.65" d="M68.661,-803.166C84.0168,-812.546 104.797,-824.238 124.392,-832 191.934,-858.756 210.233,-872 282.881,-872 282.881,-872 282.881,-872 409.273,-872 477.794,-872 556.048,-856.411 603.457,-845.202"/>
<polygon fill="black" stroke="black" stroke-width="1.65" points="604.476,-848.557 613.379,-842.813 602.837,-841.751 604.476,-848.557"/>
</g>
<!-- AS8437 -->
<g id="node4" class="node"><title>AS8437</title>
<g id="a_node4"><a xlink:href="/asn/8437" xlink:title="AS8437 ~ Hutchison Drei Austria GmbH [AT]">
<ellipse fill="#ffffff" stroke="black" cx="164.039" cy="-788" rx="39.7935" ry="18"/>
<text text-anchor="middle" x="164.039" y="-784.3" font-family="Times,serif" font-size="14.00" fill="#2c94b3">AS8437</text>
</a>
</g>
</g>
<!-- AS57169&#45;&gt;AS8437 -->
<g id="edge3" class="edge"><title>AS57169&#45;&gt;AS8437</title>
<path fill="none" stroke="black" stroke-width="2.55" d="M88.4072,-788C96.7198,-788 105.482,-788 113.965,-788"/>
<polygon fill="black" stroke="black" stroke-width="2.55" points="114.123,-791.5 124.123,-788 114.123,-784.5 114.123,-791.5"/>
</g>
<!-- AS9293 -->
<g id="node5" class="node"><title>AS9293</title>
<g id="a_node5"><a xlink:href="/asn/9293" xlink:title="AS9293 ~ NTT Com Asia Limited [HK]">
<ellipse fill="#ffffff" stroke="black" cx="528.116" cy="-788" rx="39.7935" ry="18"/>
<text text-anchor="middle" x="528.116" y="-784.3" font-family="Times,serif" font-size="14.00" fill="#2c94b3">AS9293</text>
</a>
</g>
</g>
<!-- AS57169&#45;&gt;AS9293 -->
<g id="edge4" class="edge"><title>AS57169&#45;&gt;AS9293</title>
<path fill="none" stroke="black" stroke-width="4.5" d="M75.4312,-800.92C89.9492,-806.442 107.768,-812.244 124.392,-815 252.976,-836.316 407.309,-812.404 482.094,-797.733"/>
<polygon fill="black" stroke="black" stroke-width="4.5" points="483.074,-801.553 492.107,-795.73 481.529,-793.831 483.074,-801.553"/>
</g>
<!-- AS29691 -->
<g id="node6" class="node"><title>AS29691</title>
<g id="a_node6"><a xlink:href="/asn/29691" xlink:title="AS29691 ~ Nine Internet Solutions AG [CH]">
<ellipse fill="#ffffff" stroke="black" cx="408.273" cy="-746" rx="44.393" ry="18"/>
<text text-anchor="middle" x="408.273" y="-742.3" font-family="Times,serif" font-size="14.00" fill="#2c94b3">AS29691</text>
</a>
</g>
</g>
<!-- AS57169&#45;&gt;AS29691 -->
<g id="edge5" class="edge"><title>AS57169&#45;&gt;AS29691</title>
<path fill="none" stroke="black" stroke-width="2.85" d="M75.8785,-775.333C90.3424,-769.938 107.99,-764.168 124.392,-761 203.263,-745.768 296.645,-743.867 353.914,-744.486"/>
<polygon fill="black" stroke="black" stroke-width="2.85" points="354.128,-747.989 364.176,-744.628 354.225,-740.99 354.128,-747.989"/>
</g>
<!-- AS5580 -->
<g id="node7" class="node"><title>AS5580</title>
<g id="a_node7"><a xlink:href="/asn/5580" xlink:title="AS5580 ~ Hibernia Networks (Netherlands) BV [NL]">
<ellipse fill="#ffffff" stroke="black" cx="164.039" cy="-918" rx="39.7935" ry="18"/>
<text text-anchor="middle" x="164.039" y="-914.3" font-family="Times,serif" font-size="14.00" fill="#2c94b3">AS5580</text>
</a>
</g>
</g>
<!-- AS57169&#45;&gt;AS5580 -->
<g id="edge6" class="edge"><title>AS57169&#45;&gt;AS5580</title>
<path fill="none" stroke="black" stroke-width="0.15" d="M57.6799,-805.512C72.5265,-825.823 98.5613,-859.859 124.392,-886 127.649,-889.296 131.22,-892.603 134.835,-895.775"/>
<polygon fill="black" stroke="black" stroke-width="0.15" points="132.82,-898.655 142.714,-902.446 137.344,-893.313 132.82,-898.655"/>
</g>
<!-- AS6939 -->
<g id="node8" class="node"><title>AS6939</title>
<g id="a_node8"><a xlink:href="/asn/6939" xlink:title="AS6939 ~ Hurricane Electric LLC [US]">
<ellipse fill="#ffffff" stroke="black" cx="283.881" cy="-139" rx="39.7935" ry="18"/>
<text text-anchor="middle" x="283.881" y="-135.3" font-family="Times,serif" font-size="14.00" fill="#2c94b3">AS6939</text>
</a>
</g>
</g>
<!-- AS57169&#45;&gt;AS6939 -->
<g id="edge7" class="edge"><title>AS57169&#45;&gt;AS6939</title>
<path fill="none" stroke="black" stroke-width="0.15" d="M51.8012,-769.965C84.8857,-679.627 232.584,-276.336 272.763,-166.628"/>
<polygon fill="black" stroke="black" stroke-width="0.15" points="276.155,-167.542 276.308,-156.948 269.582,-165.135 276.155,-167.542"/>
</g>
<!-- AS1299&#45;&gt;AS3257 -->
<g id="edge18" class="edge"><title>AS1299&#45;&gt;AS3257</title>
<path fill="none" stroke="black" stroke-width="2" d="M539.163,-644.649C559.905,-681.083 607.559,-764.791 631.961,-807.655"/>
<polygon fill="black" stroke="black" stroke-width="2" points="628.948,-809.437 636.937,-816.396 635.031,-805.974 628.948,-809.437"/>
</g>
<!-- AS2914 -->
<g id="node9" class="node"><title>AS2914</title>
<g id="a_node9"><a xlink:href="/asn/2914" xlink:title="AS2914 ~ NTT America, Inc. [US]">
<ellipse fill="#ffffff" stroke="black" cx="767.801" cy="-702" rx="39.7935" ry="18"/>
<text text-anchor="middle" x="767.801" y="-698.3" font-family="Times,serif" font-size="14.00" fill="#2c94b3">AS2914</text>
</a>
</g>
</g>
<!-- AS1299&#45;&gt;AS2914 -->
<g id="edge8" class="edge"><title>AS1299&#45;&gt;AS2914</title>
<path fill="none" stroke="black" stroke-width="3" d="M567.606,-624.221C601.249,-626.932 651.012,-635.696 692.155,-651 710.506,-657.826 729.727,-668.741 744.068,-678.958"/>
<polygon fill="black" stroke="black" stroke-width="3" points="742.227,-681.953 752.316,-685.186 746.445,-676.367 742.227,-681.953"/>
</g>
<!-- AS3356 -->
<g id="node10" class="node"><title>AS3356</title>
<g id="a_node10"><a xlink:href="/asn/3356" xlink:title="AS3356 ~ Level 3 Parent, LLC [US]">
<ellipse fill="#ffffff" stroke="black" cx="883.094" cy="-388" rx="39.7935" ry="18"/>
<text text-anchor="middle" x="883.094" y="-384.3" font-family="Times,serif" font-size="14.00" fill="#2c94b3">AS3356</text>
</a>
</g>
</g>
<!-- AS1299&#45;&gt;AS3356 -->
<g id="edge9" class="edge"><title>AS1299&#45;&gt;AS3356</title>
<path fill="none" stroke="black" stroke-width="3" d="M531.655,-608.854C537.704,-571.889 556.185,-487.046 603.762,-436 668.022,-367.055 713.452,-370.112 807.448,-377 816.658,-377.675 826.457,-378.812 835.821,-380.106"/>
<polygon fill="black" stroke="black" stroke-width="3" points="835.363,-383.577 845.764,-381.558 836.374,-376.65 835.363,-383.577"/>
</g>
<!-- AS174 -->
<g id="node11" class="node"><title>AS174</title>
<g id="a_node11"><a xlink:href="/asn/174" xlink:title="AS174 ~ Cogent Communications [US]">
<ellipse fill="#ffffff" stroke="black" cx="883.094" cy="-480" rx="35.194" ry="18"/>
<text text-anchor="middle" x="883.094" y="-476.3" font-family="Times,serif" font-size="14.00" fill="#2c94b3">AS174</text>
</a>
</g>
</g>
<!-- AS1299&#45;&gt;AS174 -->
<g id="edge10" class="edge"><title>AS1299&#45;&gt;AS174</title>
<path fill="none" stroke="black" stroke-width="2" d="M549.022,-611.518C583.462,-585.563 657.298,-533.516 728.155,-507 763.772,-493.671 806.531,-486.844 837.936,-483.395"/>
<polygon fill="black" stroke="black" stroke-width="2" points="838.534,-486.852 848.124,-482.35 837.82,-479.888 838.534,-486.852"/>
</g>
<!-- AS7018 -->
<g id="node12" class="node"><title>AS7018</title>
<g id="a_node12"><a xlink:href="/asn/7018" xlink:title="AS7018 ~ AT&amp;T Services, Inc. [US]">
<ellipse fill="#ffffff" stroke="black" cx="998.387" cy="-626" rx="39.7935" ry="18"/>
<text text-anchor="middle" x="998.387" y="-622.3" font-family="Times,serif" font-size="14.00" fill="#2c94b3">AS7018</text>
</a>
</g>
</g>
<!-- AS1299&#45;&gt;AS7018 -->
<g id="edge11" class="edge"><title>AS1299&#45;&gt;AS7018</title>
<path fill="none" stroke="black" stroke-width="3" d="M529.932,-608.93C533.476,-538.718 549.866,-285.195 603.762,-230 704.066,-127.281 816.976,-81.9133 922.74,-179 991.75,-242.347 911.931,-517.858 958.74,-599 960.197,-601.526 961.997,-603.871 964.017,-606.038"/>
<polygon fill="black" stroke="black" stroke-width="3" points="961.743,-608.7 971.546,-612.717 966.388,-603.463 961.743,-608.7"/>
</g>
<!-- AS1239 -->
<g id="node13" class="node"><title>AS1239</title>
<g id="a_node13"><a xlink:href="/asn/1239" xlink:title="AS1239 ~ Sprint [US]">
<ellipse fill="#ffffff" stroke="black" cx="998.387" cy="-572" rx="39.7935" ry="18"/>
<text text-anchor="middle" x="998.387" y="-568.3" font-family="Times,serif" font-size="14.00" fill="#2c94b3">AS1239</text>
</a>
</g>
</g>
<!-- AS1299&#45;&gt;AS1239 -->
<g id="edge12" class="edge"><title>AS1299&#45;&gt;AS1239</title>
<path fill="none" stroke="black" stroke-width="2" d="M530.274,-608.815C536.143,-519.441 563.909,-129.652 603.762,-95 662.68,-43.7722 840.484,-44.9826 922.74,-129 967.553,-174.772 947.065,-352.016 958.74,-415 967.198,-460.627 980.848,-512.795 989.458,-544.03"/>
<polygon fill="black" stroke="black" stroke-width="2" points="986.118,-545.084 992.169,-553.78 992.862,-543.208 986.118,-545.084"/>
</g>
<!-- AS6762 -->
<g id="node14" class="node"><title>AS6762</title>
<g id="a_node14"><a xlink:href="/asn/6762" xlink:title="AS6762 ~ TELECOM ITALIA SPARKLE S.p.A. [IT]">
<ellipse fill="#ffffff" stroke="black" cx="883.094" cy="-1060" rx="39.7935" ry="18"/>
<text text-anchor="middle" x="883.094" y="-1056.3" font-family="Times,serif" font-size="14.00" fill="#2c94b3">AS6762</text>
</a>
</g>
</g>
<!-- AS1299&#45;&gt;AS6762 -->
<g id="edge13" class="edge"><title>AS1299&#45;&gt;AS6762</title>
<path fill="none" stroke="black" stroke-width="3" d="M534.1,-644.829C548.596,-696.34 590.552,-842.86 603.762,-861 668.656,-950.108 785.722,-1014.6 845.223,-1043.34"/>
<polygon fill="black" stroke="black" stroke-width="3" points="843.728,-1046.5 854.261,-1047.64 846.737,-1040.18 843.728,-1046.5"/>
</g>
<!-- AS6461 -->
<g id="node15" class="node"><title>AS6461</title>
<g id="a_node15"><a xlink:href="/asn/6461" xlink:title="AS6461 ~ Zayo Bandwidth [US]">
<ellipse fill="#ffffff" stroke="black" cx="883.094" cy="-206" rx="39.7935" ry="18"/>
<text text-anchor="middle" x="883.094" y="-202.3" font-family="Times,serif" font-size="14.00" fill="#2c94b3">AS6461</text>
</a>
</g>
</g>
<!-- AS1299&#45;&gt;AS6461 -->
<g id="edge14" class="edge"><title>AS1299&#45;&gt;AS6461</title>
<path fill="none" stroke="black" stroke-width="2" d="M530.342,-608.884C535.169,-543.001 555.046,-317.412 603.762,-268 635.441,-235.869 763.125,-218.061 834.031,-210.469"/>
<polygon fill="black" stroke="black" stroke-width="2" points="834.48,-213.942 844.063,-209.423 833.753,-206.979 834.48,-213.942"/>
</g>
<!-- AS2497 -->
<g id="node16" class="node"><title>AS2497</title>
<g id="a_node16"><a xlink:href="/asn/2497" xlink:title="AS2497 ~ Internet Initiative Japan Inc. [JP]">
<ellipse fill="#ffffff" stroke="black" cx="998.387" cy="-1212" rx="39.7935" ry="18"/>
<text text-anchor="middle" x="998.387" y="-1208.3" font-family="Times,serif" font-size="14.00" fill="#2c94b3">AS2497</text>
</a>
</g>
</g>
<!-- AS1299&#45;&gt;AS2497 -->
<g id="edge15" class="edge"><title>AS1299&#45;&gt;AS2497</title>
<path fill="none" stroke="black" stroke-width="2" d="M535.069,-645.027C543.336,-670.589 558.34,-718.945 567.762,-761 589.713,-858.965 551.095,-898.53 603.762,-984 683.984,-1114.18 868.039,-1177.87 952.962,-1201.18"/>
<polygon fill="black" stroke="black" stroke-width="2" points="952.248,-1204.61 962.814,-1203.82 954.063,-1197.85 952.248,-1204.61"/>
</g>
<!-- AS6453 -->
<g id="node17" class="node"><title>AS6453</title>
<g id="a_node17"><a xlink:href="/asn/6453" xlink:title="AS6453 ~ TATA COMMUNICATIONS (AMERICA) INC [US]">
<ellipse fill="#ffffff" stroke="black" cx="998.387" cy="-881" rx="39.7935" ry="18"/>
<text text-anchor="middle" x="998.387" y="-877.3" font-family="Times,serif" font-size="14.00" fill="#2c94b3">AS6453</text>
</a>
</g>
</g>
<!-- AS1299&#45;&gt;AS6453 -->
<g id="edge16" class="edge"><title>AS1299&#45;&gt;AS6453</title>
<path fill="none" stroke="black" stroke-width="2" d="M552.915,-641.09C605.039,-671.814 733.429,-746.751 843.448,-805 883.194,-826.044 929.566,-848.684 960.945,-863.727"/>
<polygon fill="black" stroke="black" stroke-width="2" points="959.647,-866.986 970.178,-868.142 962.666,-860.671 959.647,-866.986"/>
</g>
<!-- AS3491 -->
<g id="node18" class="node"><title>AS3491</title>
<g id="a_node18"><a xlink:href="/asn/3491" xlink:title="AS3491 ~ PCCW Global, Inc. [US]">
<ellipse fill="#ffffff" stroke="black" cx="998.387" cy="-1060" rx="39.7935" ry="18"/>
<text text-anchor="middle" x="998.387" y="-1056.3" font-family="Times,serif" font-size="14.00" fill="#2c94b3">AS3491</text>
</a>
</g>
</g>
<!-- AS1299&#45;&gt;AS3491 -->
<g id="edge17" class="edge"><title>AS1299&#45;&gt;AS3491</title>
<path fill="none" stroke="black" stroke-width="3" d="M534.695,-645.116C542.52,-670.786 556.999,-719.268 567.762,-761 585.749,-830.74 564.664,-858.515 603.762,-919 674.383,-1028.25 718.618,-1050.39 843.448,-1087 877.264,-1096.92 888.028,-1093.08 922.74,-1087 935.254,-1084.81 948.435,-1080.69 960.18,-1076.32"/>
<polygon fill="black" stroke="black" stroke-width="3" points="961.614,-1079.52 969.662,-1072.63 959.074,-1073 961.614,-1079.52"/>
</g>
<!-- AS1273 -->
<g id="node19" class="node"><title>AS1273</title>
<g id="a_node19"><a xlink:href="/asn/1273" xlink:title="AS1273 ~ Vodafone Group PLC [EU]">
<ellipse fill="#ffffff" stroke="black" cx="883.094" cy="-534" rx="39.7935" ry="18"/>
<text text-anchor="middle" x="883.094" y="-530.3" font-family="Times,serif" font-size="14.00" fill="#2c94b3">AS1273</text>
</a>
</g>
</g>
<!-- AS1299&#45;&gt;AS1273 -->
<g id="edge19" class="edge"><title>AS1299&#45;&gt;AS1273</title>
<path fill="none" stroke="black" d="M564.607,-619.942C617.842,-609.051 721.312,-586.699 807.448,-561 819.091,-557.526 831.57,-553.242 842.926,-549.118"/>
<polygon fill="black" stroke="black" points="844.398,-552.306 852.568,-545.56 841.975,-545.739 844.398,-552.306"/>
</g>
<!-- AS209 -->
<g id="node20" class="node"><title>AS209</title>
<g id="a_node20"><a xlink:href="/asn/209" xlink:title="AS209 ~ CenturyLink Communications, LLC [US]">
<ellipse fill="#ffffff" stroke="black" cx="998.387" cy="-308" rx="35.194" ry="18"/>
<text text-anchor="middle" x="998.387" y="-304.3" font-family="Times,serif" font-size="14.00" fill="#2c94b3">AS209</text>
</a>
</g>
</g>
<!-- AS1299&#45;&gt;AS209 -->
<g id="edge20" class="edge"><title>AS1299&#45;&gt;AS209</title>
<path fill="none" stroke="black" d="M532.205,-608.802C541.38,-556.772 569.95,-408.943 603.762,-375 698.106,-280.294 873.673,-290.251 954.56,-300.929"/>
<polygon fill="black" stroke="black" points="954.48,-304.451 964.866,-302.362 955.444,-297.518 954.48,-304.451"/>
</g>
<!-- AS701 -->
<g id="node21" class="node"><title>AS701</title>
<g id="a_node21"><a xlink:href="/asn/701" xlink:title="AS701 ~ UUNET [US]">
<ellipse fill="#ffffff" stroke="black" cx="998.387" cy="-702" rx="35.194" ry="18"/>
<text text-anchor="middle" x="998.387" y="-698.3" font-family="Times,serif" font-size="14.00" fill="#2c94b3">AS701</text>
</a>
</g>
</g>
<!-- AS1299&#45;&gt;AS701 -->
<g id="edge21" class="edge"><title>AS1299&#45;&gt;AS701</title>
<path fill="none" stroke="black" d="M536.744,-609.391C547.964,-585.561 571.173,-543.349 603.762,-520 662.641,-477.816 867.172,-406.541 922.74,-453 992.031,-510.932 921.669,-570.641 958.74,-653 962.79,-661.997 968.849,-670.793 974.975,-678.393"/>
<polygon fill="black" stroke="black" points="972.409,-680.778 981.557,-686.123 977.739,-676.24 972.409,-680.778"/>
</g>
<!-- AS3257&#45;&gt;AS2914 -->
<g id="edge25" class="edge"><title>AS3257&#45;&gt;AS2914</title>
<path fill="none" stroke="black" d="M664.302,-817.24C673.23,-810.309 684.245,-802.201 692.155,-793 714.446,-767.068 706.571,-751.524 728.155,-725 729.117,-723.818 730.128,-722.647 731.177,-721.496"/>
<polygon fill="black" stroke="black" points="733.869,-723.756 738.531,-714.242 728.954,-718.773 733.869,-723.756"/>
</g>
<!-- AS3257&#45;&gt;AS3356 -->
<g id="edge27" class="edge"><title>AS3257&#45;&gt;AS3356</title>
<path fill="none" stroke="black" stroke-width="2" d="M653.03,-815.906C661.988,-778.833 686.036,-692.638 728.155,-632 755.14,-593.148 781.479,-600.539 807.448,-561 835.224,-518.709 822.398,-499.01 843.448,-453 849.568,-439.623 857.734,-425.504 864.982,-413.855"/>
<polygon fill="black" stroke="black" stroke-width="2" points="868.134,-415.421 870.542,-405.104 862.226,-411.668 868.134,-415.421"/>
</g>
<!-- AS3257&#45;&gt;AS174 -->
<g id="edge28" class="edge"><title>AS3257&#45;&gt;AS174</title>
<path fill="none" stroke="black" d="M653.919,-816.148C663.541,-784.316 687.449,-717.146 728.155,-675 756.005,-646.164 782.328,-663.244 807.448,-632 843.672,-586.942 809.823,-554.03 843.448,-507 845.399,-504.27 847.717,-501.722 850.234,-499.368"/>
<polygon fill="black" stroke="black" points="852.65,-501.915 858.213,-492.897 848.241,-496.478 852.65,-501.915"/>
</g>
<!-- AS3257&#45;&gt;AS6762 -->
<g id="edge24" class="edge"><title>AS3257&#45;&gt;AS6762</title>
<path fill="none" stroke="black" d="M674.171,-847.71C717.667,-871.445 802.642,-918.222 807.448,-924 838.725,-961.606 815.578,-987.803 843.448,-1028 846.03,-1031.72 849.159,-1035.26 852.506,-1038.52"/>
<polygon fill="black" stroke="black" points="850.248,-1041.2 860.053,-1045.21 854.891,-1035.96 850.248,-1041.2"/>
</g>
<!-- AS3257&#45;&gt;AS2497 -->
<g id="edge31" class="edge"><title>AS3257&#45;&gt;AS2497</title>
<path fill="none" stroke="black" d="M660.219,-851.365C688.29,-893.998 764.795,-1006.22 843.448,-1087 883.022,-1127.64 935.427,-1167.75 967.751,-1191.18"/>
<polygon fill="black" stroke="black" points="965.75,-1194.05 975.912,-1197.05 969.837,-1188.37 965.75,-1194.05"/>
</g>
<!-- AS3257&#45;&gt;AS6453 -->
<g id="edge26" class="edge"><title>AS3257&#45;&gt;AS6453</title>
<path fill="none" stroke="black" d="M687.483,-831.432C720.464,-830.611 768.629,-832.739 807.448,-848 826.312,-855.416 824.384,-869.111 843.448,-876 877.565,-888.328 918.753,-888.994 949.937,-886.896"/>
<polygon fill="black" stroke="black" points="950.412,-890.37 960.104,-886.092 949.859,-883.392 950.412,-890.37"/>
</g>
<!-- AS3257&#45;&gt;AS3491 -->
<g id="edge29" class="edge"><title>AS3257&#45;&gt;AS3491</title>
<path fill="none" stroke="black" d="M684.53,-841.231C724.512,-849.74 786.568,-864.203 807.448,-876 881.183,-917.66 947.275,-994.818 978.455,-1034.69"/>
<polygon fill="black" stroke="black" points="975.862,-1037.05 984.743,-1042.83 981.402,-1032.78 975.862,-1037.05"/>
</g>
<!-- AS3257&#45;&gt;AS209 -->
<g id="edge30" class="edge"><title>AS3257&#45;&gt;AS209</title>
<path fill="none" stroke="black" d="M649.549,-815.951C652.421,-739.443 667.371,-442.805 728.155,-377 786.22,-314.138 893.049,-305.259 953.208,-305.736"/>
<polygon fill="black" stroke="black" points="953.46,-309.241 963.519,-305.914 953.581,-302.242 953.46,-309.241"/>
</g>
<!-- AS3257&#45;&gt;AS701 -->
<g id="edge32" class="edge"><title>AS3257&#45;&gt;AS701</title>
<path fill="none" stroke="black" d="M678.967,-822.632C742.529,-798.551 890.588,-742.46 960.096,-716.127"/>
<polygon fill="black" stroke="black" points="961.651,-719.281 969.762,-712.466 959.171,-712.735 961.651,-719.281"/>
</g>
<!-- AS25255 -->
<g id="node23" class="node"><title>AS25255</title>
<g id="a_node23"><a xlink:href="/asn/25255" xlink:title="AS25255 ~ ==&gt; TELE2 AUSTRIA &lt;== [AT]">
<ellipse fill="#ffffff" stroke="black" cx="283.881" cy="-788" rx="44.393" ry="18"/>
<text text-anchor="middle" x="283.881" y="-784.3" font-family="Times,serif" font-size="14.00" fill="#2c94b3">AS25255</text>
</a>
</g>
</g>
<!-- AS8437&#45;&gt;AS25255 -->
<g id="edge33" class="edge"><title>AS8437&#45;&gt;AS25255</title>
<path fill="none" stroke="black" stroke-width="4.5" d="M203.951,-788C212.054,-788 220.729,-788 229.255,-788"/>
<polygon fill="black" stroke="black" stroke-width="4.5" points="229.533,-791.938 239.533,-788 229.533,-784.063 229.533,-791.938"/>
</g>
<!-- AS9293&#45;&gt;AS3257 -->
<g id="edge54" class="edge"><title>AS9293&#45;&gt;AS3257</title>
<path fill="none" stroke="black" stroke-width="0.160714" d="M558.853,-799.608C573.646,-805.382 591.724,-812.439 607.645,-818.654"/>
<polygon fill="black" stroke="black" stroke-width="0.160714" points="606.643,-822.02 617.231,-822.396 609.189,-815.499 606.643,-822.02"/>
</g>
<!-- AS9293&#45;&gt;AS2914 -->
<g id="edge53" class="edge"><title>AS9293&#45;&gt;AS2914</title>
<path fill="none" stroke="black" stroke-width="4.5" d="M567.984,-788.136C602.091,-786.917 652.324,-781.809 692.155,-764 711.168,-755.499 712.134,-747.308 728.155,-734 731.974,-730.827 736.008,-727.481 739.973,-724.196"/>
<polygon fill="black" stroke="black" stroke-width="4.5" points="742.731,-727.024 747.921,-717.613 737.708,-720.959 742.731,-727.024"/>
</g>
<!-- AS9304 -->
<g id="node28" class="node"><title>AS9304</title>
<g id="a_node28"><a xlink:href="/asn/9304" xlink:title="AS9304 ~ HGC Global Communications Limited [HK]">
<ellipse fill="#ffffff" stroke="black" cx="767.801" cy="-534" rx="39.7935" ry="18"/>
<text text-anchor="middle" x="767.801" y="-530.3" font-family="Times,serif" font-size="14.00" fill="#2c94b3">AS9304</text>
</a>
</g>
</g>
<!-- AS9293&#45;&gt;AS9304 -->
<g id="edge55" class="edge"><title>AS9293&#45;&gt;AS9304</title>
<path fill="none" stroke="black" stroke-width="0.160714" d="M544.711,-771.334C585.675,-727.558 696.455,-609.174 744.296,-558.05"/>
<polygon fill="black" stroke="black" stroke-width="0.160714" points="746.871,-560.42 751.148,-550.727 741.76,-555.637 746.871,-560.42"/>
</g>
<!-- AS29691&#45;&gt;AS1299 -->
<g id="edge71" class="edge"><title>AS29691&#45;&gt;AS1299</title>
<path fill="none" stroke="black" stroke-width="4.5" d="M435.387,-731.619C441.272,-727.86 447.301,-723.569 452.469,-719 474.787,-699.272 495.743,-672.422 509.735,-652.822"/>
<polygon fill="black" stroke="black" stroke-width="4.5" points="513.138,-654.827 515.654,-644.378 506.69,-650.307 513.138,-654.827"/>
</g>
<!-- AS6730 -->
<g id="node29" class="node"><title>AS6730</title>
<g id="a_node29"><a xlink:href="/asn/6730" xlink:title="AS6730 ~ Sunrise Communications AG [CH]">
<ellipse fill="#ffffff" stroke="black" cx="767.801" cy="-404" rx="39.7935" ry="18"/>
<text text-anchor="middle" x="767.801" y="-400.3" font-family="Times,serif" font-size="14.00" fill="#2c94b3">AS6730</text>
</a>
</g>
</g>
<!-- AS29691&#45;&gt;AS6730 -->
<g id="edge72" class="edge"><title>AS29691&#45;&gt;AS6730</title>
<path fill="none" stroke="black" stroke-width="1.6875" d="M437.699,-732.346C443.207,-728.647 448.493,-724.198 452.469,-719 486.04,-675.111 464.273,-649.677 488.469,-600 527.485,-519.898 529.037,-484.524 603.762,-436 637.635,-414.004 683.227,-406.496 717.585,-404.209"/>
<polygon fill="black" stroke="black" stroke-width="1.6875" points="718.065,-407.688 727.863,-403.656 717.689,-400.698 718.065,-407.688"/>
</g>
<!-- AS6830 -->
<g id="node30" class="node"><title>AS6830</title>
<g id="a_node30"><a xlink:href="/asn/6830" xlink:title="AS6830 ~ LGI&#45;UPC [AT]">
<ellipse fill="#ffffff" stroke="black" cx="528.116" cy="-1147" rx="39.7935" ry="18"/>
<text text-anchor="middle" x="528.116" y="-1143.3" font-family="Times,serif" font-size="14.00" fill="#2c94b3">AS6830</text>
</a>
</g>
</g>
<!-- AS29691&#45;&gt;AS6830 -->
<g id="edge73" class="edge"><title>AS29691&#45;&gt;AS6830</title>
<path fill="none" stroke="black" stroke-width="3.9375" d="M414.566,-764.009C433.258,-827.615 496.266,-1042.02 518.918,-1119.11"/>
<polygon fill="black" stroke="black" stroke-width="3.9375" points="515.661,-1120.43 521.838,-1129.04 522.377,-1118.46 515.661,-1120.43"/>
</g>
<!-- AS13030 -->
<g id="node31" class="node"><title>AS13030</title>
<g id="a_node31"><a xlink:href="/asn/13030" xlink:title="AS13030 ~ Init7 (Switzerland) Ltd. [CH]">
<ellipse fill="#ffffff" stroke="black" cx="647.958" cy="-1356" rx="44.393" ry="18"/>
<text text-anchor="middle" x="647.958" y="-1352.3" font-family="Times,serif" font-size="14.00" fill="#2c94b3">AS13030</text>
</a>
</g>
</g>
<!-- AS29691&#45;&gt;AS13030 -->
<g id="edge74" class="edge"><title>AS29691&#45;&gt;AS13030</title>
<path fill="none" stroke="black" stroke-width="0.5625" d="M409.629,-763.998C411.43,-824.579 422.349,-1025.59 488.469,-1174 522.69,-1250.81 543.782,-1265.07 603.762,-1324 607.495,-1327.67 611.664,-1331.26 615.9,-1334.64"/>
<polygon fill="black" stroke="black" stroke-width="0.5625" points="613.955,-1337.56 624.03,-1340.84 618.197,-1331.99 613.955,-1337.56"/>
</g>
<!-- AS5580&#45;&gt;AS3257 -->
<g id="edge85" class="edge"><title>AS5580&#45;&gt;AS3257</title>
<path fill="none" stroke="black" d="M202.782,-922.182C276.105,-928.783 441.662,-936.177 567.762,-886 586.852,-878.404 586.618,-868.323 603.762,-857 606.304,-855.322 608.98,-853.662 611.704,-852.05"/>
<polygon fill="black" stroke="black" points="613.482,-855.065 620.459,-847.092 610.032,-848.974 613.482,-855.065"/>
</g>
<!-- AS6939&#45;&gt;AS209 -->
<g id="edge86" class="edge"><title>AS6939&#45;&gt;AS209</title>
<path fill="none" stroke="black" d="M300.125,-122.509C335.909,-85.6894 429.658,-0 527.116,-0 527.116,-0 527.116,-0 768.801,-0 845.3,-0 872.889,-18.9746 922.74,-77 974.083,-136.761 990.246,-232.421 995.23,-279.684"/>
<polygon fill="black" stroke="black" points="991.762,-280.188 996.203,-289.808 998.73,-279.519 991.762,-280.188"/>
</g>
<!-- AS2914&#45;&gt;AS1299 -->
<g id="edge59" class="edge"><title>AS2914&#45;&gt;AS1299</title>
<path fill="none" stroke="black" stroke-width="1.8" d="M736.975,-690.646C723.713,-683.415 707.625,-674.754 692.155,-669 652.293,-654.173 604.34,-645.484 570.796,-639.065"/>
<polygon fill="black" stroke="black" stroke-width="1.8" points="571.357,-635.609 560.873,-637.141 570.024,-642.481 571.357,-635.609"/>
</g>
<!-- AS2914&#45;&gt;AS3257 -->
<g id="edge68" class="edge"><title>AS2914&#45;&gt;AS3257</title>
<path fill="none" stroke="black" stroke-width="0.9" d="M753.125,-719.063C745.156,-726.102 735.302,-734.216 728.155,-743 706.571,-769.524 714.446,-785.068 692.155,-811 690.672,-812.725 689.079,-814.412 687.412,-816.044"/>
<polygon fill="black" stroke="black" stroke-width="0.9" points="684.927,-813.569 679.729,-822.801 689.55,-818.825 684.927,-813.569"/>
</g>
<!-- AS2914&#45;&gt;AS3356 -->
<g id="edge61" class="edge"><title>AS2914&#45;&gt;AS3356</title>
<path fill="none" stroke="black" stroke-width="4.5" d="M780.21,-684.874C788.881,-671.121 800.47,-651.029 807.448,-632 835.384,-555.812 814.297,-528.732 843.448,-453 848.695,-439.368 856.68,-425.308 864.033,-413.767"/>
<polygon fill="black" stroke="black" stroke-width="4.5" points="867.524,-415.626 869.73,-405.107 860.945,-411.298 867.524,-415.626"/>
</g>
<!-- AS2914&#45;&gt;AS174 -->
<g id="edge67" class="edge"><title>AS2914&#45;&gt;AS174</title>
<path fill="none" stroke="black" stroke-width="0.9" d="M791.725,-687.196C797.637,-682.368 803.452,-676.542 807.448,-670 846.117,-606.685 802.222,-568.682 843.448,-507 845.312,-504.21 847.571,-501.621 850.05,-499.241"/>
<polygon fill="black" stroke="black" stroke-width="0.9" points="852.468,-501.784 857.971,-492.731 848.023,-496.376 852.468,-501.784"/>
</g>
<!-- AS2914&#45;&gt;AS7018 -->
<g id="edge56" class="edge"><title>AS2914&#45;&gt;AS7018</title>
<path fill="none" stroke="black" stroke-width="1.8" d="M793.833,-688.411C808.08,-681.065 826.429,-672.247 843.448,-666 879.08,-652.921 920.831,-642.354 951.855,-635.374"/>
<polygon fill="black" stroke="black" stroke-width="1.8" points="952.932,-638.72 961.941,-633.145 951.421,-631.885 952.932,-638.72"/>
</g>
<!-- AS2914&#45;&gt;AS1239 -->
<g id="edge58" class="edge"><title>AS2914&#45;&gt;AS1239</title>
<path fill="none" stroke="black" stroke-width="0.9" d="M788.126,-686.122C794.319,-681.001 801.191,-675.283 807.448,-670 823.58,-656.377 825.566,-650.228 843.448,-639 879.463,-616.384 924.43,-597.784 956.446,-585.968"/>
<polygon fill="black" stroke="black" stroke-width="0.9" points="957.736,-589.224 965.942,-582.522 955.348,-582.644 957.736,-589.224"/>
</g>
<!-- AS2914&#45;&gt;AS6762 -->
<g id="edge69" class="edge"><title>AS2914&#45;&gt;AS6762</title>
<path fill="none" stroke="black" stroke-width="0.9" d="M771.843,-720.024C779.97,-766.125 804.267,-891.628 843.448,-990 849.482,-1005.15 858.117,-1021.14 865.695,-1034"/>
<polygon fill="black" stroke="black" stroke-width="0.9" points="862.814,-1036.01 870.974,-1042.76 868.81,-1032.39 862.814,-1036.01"/>
</g>
<!-- AS2914&#45;&gt;AS6461 -->
<g id="edge62" class="edge"><title>AS2914&#45;&gt;AS6461</title>
<path fill="none" stroke="black" stroke-width="1.8" d="M774.328,-683.879C782.347,-657.165 797.352,-605.558 807.448,-561 827.405,-472.915 824.512,-449.31 843.448,-361 853.018,-316.367 866.257,-265.053 874.492,-234.1"/>
<polygon fill="black" stroke="black" stroke-width="1.8" points="877.978,-234.61 877.181,-224.045 871.216,-232.801 877.978,-234.61"/>
</g>
<!-- AS2914&#45;&gt;AS2497 -->
<g id="edge64" class="edge"><title>AS2914&#45;&gt;AS2497</title>
<path fill="none" stroke="black" stroke-width="1.8" d="M774.712,-719.943C786.321,-754.505 813.583,-832.424 843.448,-895 873.915,-958.839 891.444,-969.563 922.74,-1033 948.569,-1085.35 973.653,-1148.9 987.152,-1184.46"/>
<polygon fill="black" stroke="black" stroke-width="1.8" points="983.997,-1186.02 990.801,-1194.14 990.547,-1183.55 983.997,-1186.02"/>
</g>
<!-- AS2914&#45;&gt;AS6453 -->
<g id="edge60" class="edge"><title>AS2914&#45;&gt;AS6453</title>
<path fill="none" stroke="black" stroke-width="1.8" d="M788.687,-717.572C829.571,-749.588 923.136,-822.856 969.828,-859.419"/>
<polygon fill="black" stroke="black" stroke-width="1.8" points="967.679,-862.182 977.71,-865.592 971.995,-856.67 967.679,-862.182"/>
</g>
<!-- AS2914&#45;&gt;AS3491 -->
<g id="edge65" class="edge"><title>AS2914&#45;&gt;AS3491</title>
<path fill="none" stroke="black" stroke-width="1.8" d="M779.826,-719.267C816.783,-777.146 936.434,-964.539 980.711,-1033.88"/>
<polygon fill="black" stroke="black" stroke-width="1.8" points="977.873,-1035.94 986.205,-1042.49 983.773,-1032.17 977.873,-1035.94"/>
</g>
<!-- AS2914&#45;&gt;AS1273 -->
<g id="edge57" class="edge"><title>AS2914&#45;&gt;AS1273</title>
<path fill="none" stroke="black" stroke-width="1.8" d="M790.842,-687.211C796.878,-682.311 802.981,-676.443 807.448,-670 835.317,-629.803 815.578,-606.197 843.448,-566 846.03,-562.275 849.159,-558.743 852.506,-555.478"/>
<polygon fill="black" stroke="black" stroke-width="1.8" points="854.891,-558.041 860.053,-548.789 850.248,-552.802 854.891,-558.041"/>
</g>
<!-- AS2914&#45;&gt;AS701 -->
<g id="edge66" class="edge"><title>AS2914&#45;&gt;AS701</title>
<path fill="none" stroke="black" stroke-width="1.8" d="M796.526,-689.369C810.319,-683.764 827.43,-677.808 843.448,-675 878.16,-668.915 888.028,-668.915 922.74,-675 936.022,-677.328 950.055,-681.821 962.326,-686.483"/>
<polygon fill="black" stroke="black" stroke-width="1.8" points="961.154,-689.784 971.74,-690.221 963.737,-683.278 961.154,-689.784"/>
</g>
<!-- AS3320 -->
<g id="node25" class="node"><title>AS3320</title>
<g id="a_node25"><a xlink:href="/asn/3320" xlink:title="AS3320 ~ DTAG [DE]">
<ellipse fill="#ffffff" stroke="black" cx="883.094" cy="-702" rx="39.7935" ry="18"/>
<text text-anchor="middle" x="883.094" y="-698.3" font-family="Times,serif" font-size="14.00" fill="#2c94b3">AS3320</text>
</a>
</g>
</g>
<!-- AS2914&#45;&gt;AS3320 -->
<g id="edge63" class="edge"><title>AS2914&#45;&gt;AS3320</title>
<path fill="none" stroke="black" stroke-width="0.9" d="M807.473,-702C815.676,-702 824.44,-702 832.972,-702"/>
<polygon fill="black" stroke="black" stroke-width="0.9" points="833.212,-705.5 843.212,-702 833.211,-698.5 833.212,-705.5"/>
</g>
<!-- AS3356&#45;&gt;AS209 -->
<g id="edge23" class="edge"><title>AS3356&#45;&gt;AS209</title>
<path fill="none" stroke="black" stroke-width="1.8" d="M905.404,-372.953C923.271,-360.336 948.948,-342.205 968.634,-328.303"/>
<polygon fill="black" stroke="black" stroke-width="1.8" points="970.786,-331.068 976.936,-322.441 966.748,-325.35 970.786,-331.068"/>
</g>
<!-- AS3549 -->
<g id="node22" class="node"><title>AS3549</title>
<g id="a_node22"><a xlink:href="/asn/3549" xlink:title="AS3549 ~ Level 3 Parent, LLC [US]">
<ellipse fill="#ffffff" stroke="black" cx="998.387" cy="-388" rx="39.7935" ry="18"/>
<text text-anchor="middle" x="998.387" y="-384.3" font-family="Times,serif" font-size="14.00" fill="#2c94b3">AS3549</text>
</a>
</g>
</g>
<!-- AS3356&#45;&gt;AS3549 -->
<g id="edge22" class="edge"><title>AS3356&#45;&gt;AS3549</title>
<path fill="none" stroke="black" stroke-width="4.5" d="M922.766,-388C930.969,-388 939.733,-388 948.265,-388"/>
<polygon fill="black" stroke="black" stroke-width="4.5" points="948.505,-391.938 958.504,-388 948.504,-384.063 948.505,-391.938"/>
</g>
<!-- AS6762&#45;&gt;AS6453 -->
<g id="edge45" class="edge"><title>AS6762&#45;&gt;AS6453</title>
<path fill="none" stroke="black" d="M895.163,-1042.51C915.181,-1010.88 957.492,-944.033 980.916,-907.023"/>
<polygon fill="black" stroke="black" points="984.049,-908.618 986.44,-898.297 978.134,-904.875 984.049,-908.618"/>
</g>
<!-- AS6762&#45;&gt;AS3491 -->
<g id="edge46" class="edge"><title>AS6762&#45;&gt;AS3491</title>
<path fill="none" stroke="black" d="M922.766,-1060C930.969,-1060 939.733,-1060 948.265,-1060"/>
<polygon fill="black" stroke="black" points="948.504,-1063.5 958.504,-1060 948.504,-1056.5 948.504,-1063.5"/>
</g>
<!-- AS25255&#45;&gt;AS6762 -->
<g id="edge36" class="edge"><title>AS25255&#45;&gt;AS6762</title>
<path fill="none" stroke="black" stroke-width="2.25" d="M287.116,-805.958C299.052,-892.886 364.03,-1270.38 603.762,-1383 747.641,-1450.59 845.989,-1177.49 873.949,-1087.72"/>
<polygon fill="black" stroke="black" stroke-width="2.25" points="877.359,-1088.54 876.938,-1077.96 870.665,-1086.49 877.359,-1088.54"/>
</g>
<!-- AS8447 -->
<g id="node24" class="node"><title>AS8447</title>
<g id="a_node24"><a xlink:href="/asn/8447" xlink:title="AS8447 ~ A1 Telekom Austria AG [AT]">
<ellipse fill="#ffffff" stroke="black" cx="408.273" cy="-638" rx="39.7935" ry="18"/>
<text text-anchor="middle" x="408.273" y="-634.3" font-family="Times,serif" font-size="14.00" fill="#2c94b3">AS8447</text>
</a>
</g>
</g>
<!-- AS25255&#45;&gt;AS8447 -->
<g id="edge34" class="edge"><title>AS25255&#45;&gt;AS8447</title>
<path fill="none" stroke="black" stroke-width="2.25" d="M293.282,-769.977C305.89,-744.343 331.716,-696.93 364.077,-665 366.9,-662.215 370.06,-659.577 373.351,-657.12"/>
<polygon fill="black" stroke="black" stroke-width="2.25" points="375.419,-659.946 381.688,-651.405 371.461,-654.172 375.419,-659.946"/>
</g>
<!-- AS25255&#45;&gt;AS3320 -->
<g id="edge35" class="edge"><title>AS25255&#45;&gt;AS3320</title>
<path fill="none" stroke="black" stroke-width="4.5" d="M311.907,-802.249C378.445,-835.345 554.759,-910.917 692.155,-861 765.994,-834.173 831.173,-764.666 862.45,-727.053"/>
<polygon fill="black" stroke="black" stroke-width="4.5" points="865.672,-729.333 868.953,-719.099 859.575,-724.348 865.672,-729.333"/>
</g>
<!-- AS1764 -->
<g id="node26" class="node"><title>AS1764</title>
<g id="a_node26"><a xlink:href="/asn/1764" xlink:title="AS1764 ~ NEXTLAYER&#45;AS [AT]">
<ellipse fill="#ffffff" stroke="black" cx="408.273" cy="-692" rx="39.7935" ry="18"/>
<text text-anchor="middle" x="408.273" y="-688.3" font-family="Times,serif" font-size="14.00" fill="#2c94b3">AS1764</text>
</a>
</g>
</g>
<!-- AS25255&#45;&gt;AS1764 -->
<g id="edge37" class="edge"><title>AS25255&#45;&gt;AS1764</title>
<path fill="none" stroke="black" stroke-width="3.75" d="M302.139,-771.545C317.75,-757.012 341.659,-735.61 364.077,-719 367.435,-716.512 371.024,-714.023 374.646,-711.618"/>
<polygon fill="black" stroke="black" stroke-width="3.75" points="376.549,-714.555 383.061,-706.198 372.759,-708.67 376.549,-714.555"/>
</g>
<!-- AS8447&#45;&gt;AS1299 -->
<g id="edge38" class="edge"><title>AS8447&#45;&gt;AS1299</title>
<path fill="none" stroke="black" d="M447.208,-634.459C457.2,-633.526 468.117,-632.507 478.584,-631.53"/>
<polygon fill="black" stroke="black" points="479.217,-634.986 488.848,-630.572 478.566,-628.017 479.217,-634.986"/>
</g>
<!-- AS8447&#45;&gt;AS3356 -->
<g id="edge39" class="edge"><title>AS8447&#45;&gt;AS3356</title>
<path fill="none" stroke="black" stroke-width="2" d="M409.318,-619.868C409.911,-536.38 416.72,-189.906 488.469,-116 551.861,-50.7033 612.194,-51.543 692.155,-95 798.646,-152.876 854.653,-299.065 874.077,-360.323"/>
<polygon fill="black" stroke="black" stroke-width="2" points="870.791,-361.544 877.083,-370.068 877.48,-359.48 870.791,-361.544"/>
</g>
<!-- AS3320&#45;&gt;AS7018 -->
<g id="edge43" class="edge"><title>AS3320&#45;&gt;AS7018</title>
<path fill="none" stroke="black" d="M906.207,-687.166C923.518,-675.553 947.787,-659.273 966.936,-646.428"/>
<polygon fill="black" stroke="black" points="968.975,-649.274 975.33,-640.797 965.075,-643.461 968.975,-649.274"/>
</g>
<!-- AS3320&#45;&gt;AS1239 -->
<g id="edge40" class="edge"><title>AS3320&#45;&gt;AS1239</title>
<path fill="none" stroke="black" d="M894.18,-684.609C907.266,-662.969 931.65,-625.626 958.74,-599 960.875,-596.902 963.188,-594.853 965.585,-592.881"/>
<polygon fill="black" stroke="black" points="968.096,-595.367 973.921,-586.517 963.849,-589.803 968.096,-595.367"/>
</g>
<!-- AS3320&#45;&gt;AS2497 -->
<g id="edge44" class="edge"><title>AS3320&#45;&gt;AS2497</title>
<path fill="none" stroke="black" d="M886.902,-720.194C895.614,-775.655 923.717,-947.324 958.74,-1087 967.238,-1120.89 979.475,-1159.18 987.891,-1184.35"/>
<polygon fill="black" stroke="black" points="984.62,-1185.6 991.132,-1193.96 991.253,-1183.36 984.62,-1185.6"/>
</g>
<!-- AS3320&#45;&gt;AS6453 -->
<g id="edge41" class="edge"><title>AS3320&#45;&gt;AS6453</title>
<path fill="none" stroke="black" d="M895.163,-719.489C915.181,-751.117 957.492,-817.967 980.916,-854.977"/>
<polygon fill="black" stroke="black" points="978.134,-857.125 986.44,-863.703 984.049,-853.382 978.134,-857.125"/>
</g>
<!-- AS3320&#45;&gt;AS701 -->
<g id="edge42" class="edge"><title>AS3320&#45;&gt;AS701</title>
<path fill="none" stroke="black" d="M922.766,-702C932.472,-702 942.962,-702 952.925,-702"/>
<polygon fill="black" stroke="black" points="953.061,-705.5 963.061,-702 953.061,-698.5 953.061,-705.5"/>
</g>
<!-- AS1764&#45;&gt;AS1299 -->
<g id="edge50" class="edge"><title>AS1764&#45;&gt;AS1299</title>
<path fill="none" stroke="black" d="M434.265,-678.215C451.451,-668.736 474.479,-656.034 493.302,-645.651"/>
<polygon fill="black" stroke="black" points="495.095,-648.66 502.161,-640.765 491.714,-642.53 495.095,-648.66"/>
</g>
<!-- AS1764&#45;&gt;AS3257 -->
<g id="edge51" class="edge"><title>AS1764&#45;&gt;AS3257</title>
<path fill="none" stroke="black" d="M436.1,-704.972C442.093,-708.832 447.991,-713.523 452.469,-719 481.315,-754.275 452.63,-786.858 488.469,-815 519.679,-839.506 565.558,-842.543 599.933,-840.46"/>
<polygon fill="black" stroke="black" points="600.502,-843.926 610.203,-839.667 599.964,-836.947 600.502,-843.926"/>
</g>
<!-- AS1764&#45;&gt;AS2914 -->
<g id="edge47" class="edge"><title>AS1764&#45;&gt;AS2914</title>
<path fill="none" stroke="black" d="M447.875,-693.08C513.359,-694.911 646.089,-698.624 717.945,-700.634"/>
<polygon fill="black" stroke="black" points="717.996,-704.136 728.09,-700.917 718.192,-697.139 717.996,-704.136"/>
</g>
<!-- AS1764&#45;&gt;AS174 -->
<g id="edge49" class="edge"><title>AS1764&#45;&gt;AS174</title>
<path fill="none" stroke="black" d="M437.292,-679.289C443.098,-675.461 448.614,-670.72 452.469,-665 504.166,-588.288 433.023,-534.046 488.469,-460 522.732,-414.245 549.733,-421.663 603.762,-403 690.022,-373.203 726.158,-335.52 807.448,-377 823.795,-385.342 850.382,-426.27 867.02,-453.954"/>
<polygon fill="black" stroke="black" points="864.138,-455.956 872.252,-462.769 870.158,-452.383 864.138,-455.956"/>
</g>
<!-- AS8218 -->
<g id="node27" class="node"><title>AS8218</title>
<g id="a_node27"><a xlink:href="/asn/8218" xlink:title="AS8218 ~ legacy Neotelecoms [FR]">
<ellipse fill="#ffffff" stroke="black" cx="647.958" cy="-122" rx="39.7935" ry="18"/>
<text text-anchor="middle" x="647.958" y="-118.3" font-family="Times,serif" font-size="14.00" fill="#2c94b3">AS8218</text>
</a>
</g>
</g>
<!-- AS1764&#45;&gt;AS8218 -->
<g id="edge48" class="edge"><title>AS1764&#45;&gt;AS8218</title>
<path fill="none" stroke="black" d="M437.728,-679.567C443.517,-675.728 448.915,-670.912 452.469,-665 511.119,-567.434 413.326,-239.512 488.469,-154 515.453,-123.293 563.023,-117.167 599.026,-117.592"/>
<polygon fill="black" stroke="black" points="599.221,-121.099 609.319,-117.892 599.425,-114.102 599.221,-121.099"/>
</g>
<!-- AS8218&#45;&gt;AS6461 -->
<g id="edge52" class="edge"><title>AS8218&#45;&gt;AS6461</title>
<path fill="none" stroke="black" d="M679.437,-132.982C721.063,-147.98 795.781,-174.901 841.934,-191.53"/>
<polygon fill="black" stroke="black" points="841.014,-194.919 851.608,-195.016 843.387,-188.333 841.014,-194.919"/>
</g>
<!-- AS9304&#45;&gt;AS174 -->
<g id="edge70" class="edge"><title>AS9304&#45;&gt;AS174</title>
<path fill="none" stroke="black" d="M795.938,-521.066C811.369,-513.71 830.855,-504.423 847.39,-496.541"/>
<polygon fill="black" stroke="black" points="849.211,-499.551 856.732,-492.089 846.199,-493.232 849.211,-499.551"/>
</g>
<!-- AS6730&#45;&gt;AS3356 -->
<g id="edge76" class="edge"><title>AS6730&#45;&gt;AS3356</title>
<path fill="none" stroke="black" stroke-width="2" d="M805.897,-398.761C815.189,-397.449 825.281,-396.024 834.988,-394.653"/>
<polygon fill="black" stroke="black" stroke-width="2" points="835.502,-398.115 844.914,-393.251 834.523,-391.184 835.502,-398.115"/>
</g>
<!-- AS6730&#45;&gt;AS174 -->
<g id="edge75" class="edge"><title>AS6730&#45;&gt;AS174</title>
<path fill="none" stroke="black" d="M790.914,-418.834C808.449,-430.597 833.122,-447.148 852.381,-460.068"/>
<polygon fill="black" stroke="black" points="850.55,-463.054 860.804,-465.718 854.449,-457.241 850.55,-463.054"/>
</g>
<!-- AS6830&#45;&gt;AS3257 -->
<g id="edge82" class="edge"><title>AS6830&#45;&gt;AS3257</title>
<path fill="none" stroke="black" d="M535.789,-1129.27C555.391,-1077.21 612.9,-924.462 636.584,-861.556"/>
<polygon fill="black" stroke="black" points="639.964,-862.511 640.212,-851.919 633.413,-860.044 639.964,-862.511"/>
</g>
<!-- AS6830&#45;&gt;AS2914 -->
<g id="edge79" class="edge"><title>AS6830&#45;&gt;AS2914</title>
<path fill="none" stroke="black" d="M539.721,-1129.53C566.461,-1085.25 638.335,-964.752 692.155,-861 715.722,-815.568 740.472,-761.365 754.724,-729.42"/>
<polygon fill="black" stroke="black" points="758.106,-730.429 758.968,-719.869 751.709,-727.587 758.106,-730.429"/>
</g>
<!-- AS6830&#45;&gt;AS6762 -->
<g id="edge83" class="edge"><title>AS6830&#45;&gt;AS6762</title>
<path fill="none" stroke="black" d="M567.647,-1148.91C600.886,-1149.83 650.043,-1149.42 692.155,-1142 745.288,-1132.63 758.306,-1126.27 807.448,-1104 822.365,-1097.24 838.096,-1088.27 851.25,-1080.2"/>
<polygon fill="black" stroke="black" points="853.279,-1083.05 859.903,-1074.79 849.568,-1077.12 853.279,-1083.05"/>
</g>
<!-- AS6830&#45;&gt;AS2497 -->
<g id="edge81" class="edge"><title>AS6830&#45;&gt;AS2497</title>
<path fill="none" stroke="black" d="M556.504,-1159.78C560.707,-1162.68 564.669,-1166.08 567.762,-1170 601.176,-1212.4 561.352,-1252.6 603.762,-1286 635.098,-1310.68 892.865,-1307.2 922.74,-1294 948.546,-1282.59 969.27,-1257.37 982.272,-1237.89"/>
<polygon fill="black" stroke="black" points="985.254,-1239.73 987.694,-1229.42 979.357,-1235.96 985.254,-1239.73"/>
</g>
<!-- AS6830&#45;&gt;AS6453 -->
<g id="edge77" class="edge"><title>AS6830&#45;&gt;AS6453</title>
<path fill="none" stroke="black" d="M564.735,-1154.1C642.27,-1167.26 827.037,-1185.81 922.74,-1087 948.065,-1060.85 977.245,-958.665 990.361,-908.747"/>
<polygon fill="black" stroke="black" points="993.784,-909.494 992.909,-898.935 987.008,-907.734 993.784,-909.494"/>
</g>
<!-- AS6830&#45;&gt;AS3491 -->
<g id="edge78" class="edge"><title>AS6830&#45;&gt;AS3491</title>
<path fill="none" stroke="black" d="M555.047,-1160.51C559.504,-1163.36 563.93,-1166.56 567.762,-1170 587.597,-1187.82 579.911,-1206.07 603.762,-1218 730.564,-1281.4 802.983,-1293.87 922.74,-1218 967.875,-1189.41 986.237,-1125.38 993.302,-1088.2"/>
<polygon fill="black" stroke="black" points="996.805,-1088.49 995.079,-1078.04 989.909,-1087.28 996.805,-1088.49"/>
</g>
<!-- AS6830&#45;&gt;AS701 -->
<g id="edge80" class="edge"><title>AS6830&#45;&gt;AS701</title>
<path fill="none" stroke="black" d="M559.277,-1135.58C613.776,-1113.83 730.166,-1062.09 807.448,-990 893.385,-909.833 959.172,-783.361 985.21,-728.666"/>
<polygon fill="black" stroke="black" points="988.378,-730.154 989.466,-719.615 982.043,-727.175 988.378,-730.154"/>
</g>
<!-- AS13030&#45;&gt;AS2497 -->
<g id="edge84" class="edge"><title>AS13030&#45;&gt;AS2497</title>
<path fill="none" stroke="black" d="M689.088,-1362.99C745.695,-1370.66 850.171,-1376.58 922.74,-1332 956.813,-1311.07 977.757,-1268.15 988.479,-1239.72"/>
<polygon fill="black" stroke="black" points="991.894,-1240.57 991.972,-1229.98 985.304,-1238.21 991.894,-1240.57"/>
</g>
</g>
</svg>
