<?xml version="1.0" encoding="UTF-8" standalone="no"?>
<!DOCTYPE svg PUBLIC "-//W3C//DTD SVG 1.1//EN"
 "http://www.w3.org/Graphics/SVG/1.1/DTD/svg11.dtd">
<!-- Generated by graphviz version 2.38.0 (20140413.2041)
 -->
<!-- Title: AS38977 IPv4 Upstream Graph Pages: 1 -->
<svg width="442pt" height="530pt"
 viewBox="0.00 0.00 442.27 530.00" xmlns="http://www.w3.org/2000/svg" xmlns:xlink="http://www.w3.org/1999/xlink">
<g id="graph0" class="graph" transform="scale(1 1) rotate(0) translate(4 526)">
<title>AS38977 IPv4 Upstream Graph</title>
<polygon fill="white" stroke="none" points="-4,4 -4,-526 438.271,-526 438.271,4 -4,4"/>
<!-- AS38977 -->
<g id="node1" class="node"><title>AS38977</title>
<g id="a_node1"><a xlink:href="/asn/38977" xlink:title="AS38977 ~ Silhouette International Schmied AG [AT]">
<ellipse fill="#ffffff" stroke="black" cx="44.1961" cy="-232" rx="44.393" ry="18"/>
<text text-anchor="middle" x="44.1961" y="-228.3" font-family="Times,serif" font-size="14.00" fill="#880000">AS38977</text>
</a>
</g>
</g>
<!-- AS3356 -->
<g id="node2" class="node"><title>AS3356</title>
<g id="a_node2"><a xlink:href="/asn/3356" xlink:title="AS3356 ~ Level 3 Parent, LLC [US]">
<ellipse fill="#ffffff" stroke="black" cx="279.332" cy="-342" rx="39.7935" ry="18"/>
<text text-anchor="middle" x="279.332" y="-338.3" font-family="Times,serif" font-size="14.00" fill="#2c94b3">AS3356</text>
</a>
</g>
</g>
<!-- AS38977&#45;&gt;AS3356 -->
<g id="edge1" class="edge"><title>AS38977&#45;&gt;AS3356</title>
<path fill="none" stroke="black" stroke-width="2.625" d="M73.7831,-245.488C116.213,-265.508 195.824,-303.07 242.223,-324.963"/>
<polygon fill="black" stroke="black" stroke-width="2.625" points="240.78,-328.152 251.317,-329.254 243.767,-321.821 240.78,-328.152"/>
</g>
<!-- AS8447 -->
<g id="node3" class="node"><title>AS8447</title>
<g id="a_node3"><a xlink:href="/asn/8447" xlink:title="AS8447 ~ A1 Telekom Austria AG [AT]">
<ellipse fill="#ffffff" stroke="black" cx="164.039" cy="-180" rx="39.7935" ry="18"/>
<text text-anchor="middle" x="164.039" y="-176.3" font-family="Times,serif" font-size="14.00" fill="#2c94b3">AS8447</text>
</a>
</g>
</g>
<!-- AS38977&#45;&gt;AS8447 -->
<g id="edge2" class="edge"><title>AS38977&#45;&gt;AS8447</title>
<path fill="none" stroke="black" stroke-width="4.5" d="M74.9327,-218.878C90.3219,-212.087 109.265,-203.729 125.637,-196.504"/>
<polygon fill="black" stroke="black" stroke-width="4.5" points="127.375,-200.041 134.934,-192.402 124.196,-192.836 127.375,-200.041"/>
</g>
<!-- AS3549 -->
<g id="node4" class="node"><title>AS3549</title>
<g id="a_node4"><a xlink:href="/asn/3549" xlink:title="AS3549 ~ Level 3 Parent, LLC [US]">
<ellipse fill="#ffffff" stroke="black" cx="394.625" cy="-396" rx="39.7935" ry="18"/>
<text text-anchor="middle" x="394.625" y="-392.3" font-family="Times,serif" font-size="14.00" fill="#2c94b3">AS3549</text>
</a>
</g>
</g>
<!-- AS3356&#45;&gt;AS3549 -->
<g id="edge3" class="edge"><title>AS3356&#45;&gt;AS3549</title>
<path fill="none" stroke="black" d="M307.468,-354.934C322.462,-362.081 341.283,-371.052 357.506,-378.785"/>
<polygon fill="black" stroke="black" points="356.177,-382.028 366.71,-383.171 359.188,-375.709 356.177,-382.028"/>
</g>
<!-- AS3491 -->
<g id="node5" class="node"><title>AS3491</title>
<g id="a_node5"><a xlink:href="/asn/3491" xlink:title="AS3491 ~ PCCW Global, Inc. [US]">
<ellipse fill="#ffffff" stroke="black" cx="394.625" cy="-342" rx="39.7935" ry="18"/>
<text text-anchor="middle" x="394.625" y="-338.3" font-family="Times,serif" font-size="14.00" fill="#2c94b3">AS3491</text>
</a>
</g>
</g>
<!-- AS3356&#45;&gt;AS3491 -->
<g id="edge4" class="edge"><title>AS3356&#45;&gt;AS3491</title>
<path fill="none" stroke="black" d="M319.004,-342C327.207,-342 335.971,-342 344.503,-342"/>
<polygon fill="black" stroke="black" points="344.742,-345.5 354.742,-342 344.742,-338.5 344.742,-345.5"/>
</g>
<!-- AS2497 -->
<g id="node6" class="node"><title>AS2497</title>
<g id="a_node6"><a xlink:href="/asn/2497" xlink:title="AS2497 ~ Internet Initiative Japan Inc. [JP]">
<ellipse fill="#ffffff" stroke="black" cx="394.625" cy="-504" rx="39.7935" ry="18"/>
<text text-anchor="middle" x="394.625" y="-500.3" font-family="Times,serif" font-size="14.00" fill="#2c94b3">AS2497</text>
</a>
</g>
</g>
<!-- AS3356&#45;&gt;AS2497 -->
<g id="edge5" class="edge"><title>AS3356&#45;&gt;AS2497</title>
<path fill="none" stroke="black" d="M287.079,-359.787C298.13,-387.243 322.184,-440.578 354.978,-477 356.98,-479.224 359.199,-481.363 361.532,-483.397"/>
<polygon fill="black" stroke="black" points="359.73,-486.433 369.751,-489.873 364.062,-480.935 359.73,-486.433"/>
</g>
<!-- AS3257 -->
<g id="node7" class="node"><title>AS3257</title>
<g id="a_node7"><a xlink:href="/asn/3257" xlink:title="AS3257 ~ GTT [DE]">
<ellipse fill="#ffffff" stroke="black" cx="394.625" cy="-288" rx="39.7935" ry="18"/>
<text text-anchor="middle" x="394.625" y="-284.3" font-family="Times,serif" font-size="14.00" fill="#2c94b3">AS3257</text>
</a>
</g>
</g>
<!-- AS3356&#45;&gt;AS3257 -->
<g id="edge6" class="edge"><title>AS3356&#45;&gt;AS3257</title>
<path fill="none" stroke="black" d="M307.468,-329.066C322.462,-321.919 341.283,-312.948 357.506,-305.215"/>
<polygon fill="black" stroke="black" points="359.188,-308.291 366.71,-300.829 356.177,-301.972 359.188,-308.291"/>
</g>
<!-- AS2914 -->
<g id="node8" class="node"><title>AS2914</title>
<g id="a_node8"><a xlink:href="/asn/2914" xlink:title="AS2914 ~ NTT America, Inc. [US]">
<ellipse fill="#ffffff" stroke="black" cx="394.625" cy="-126" rx="39.7935" ry="18"/>
<text text-anchor="middle" x="394.625" y="-122.3" font-family="Times,serif" font-size="14.00" fill="#2c94b3">AS2914</text>
</a>
</g>
</g>
<!-- AS3356&#45;&gt;AS2914 -->
<g id="edge7" class="edge"><title>AS3356&#45;&gt;AS2914</title>
<path fill="none" stroke="black" d="M289.412,-324.583C297.681,-308.366 309.942,-283.397 318.978,-261 337.908,-214.078 324.707,-193.542 354.978,-153 356.723,-150.664 358.73,-148.455 360.893,-146.383"/>
<polygon fill="black" stroke="black" points="363.253,-148.973 368.694,-139.882 358.771,-143.595 363.253,-148.973"/>
</g>
<!-- AS6453 -->
<g id="node9" class="node"><title>AS6453</title>
<g id="a_node9"><a xlink:href="/asn/6453" xlink:title="AS6453 ~ TATA COMMUNICATIONS (AMERICA) INC [US]">
<ellipse fill="#ffffff" stroke="black" cx="394.625" cy="-450" rx="39.7935" ry="18"/>
<text text-anchor="middle" x="394.625" y="-446.3" font-family="Times,serif" font-size="14.00" fill="#2c94b3">AS6453</text>
</a>
</g>
</g>
<!-- AS3356&#45;&gt;AS6453 -->
<g id="edge8" class="edge"><title>AS3356&#45;&gt;AS6453</title>
<path fill="none" stroke="black" d="M293.962,-358.817C308.244,-375.929 331.791,-402.745 354.978,-423 357.444,-425.154 360.082,-427.294 362.78,-429.372"/>
<polygon fill="black" stroke="black" points="360.805,-432.264 370.934,-435.37 364.953,-426.625 360.805,-432.264"/>
</g>
<!-- AS6461 -->
<g id="node10" class="node"><title>AS6461</title>
<g id="a_node10"><a xlink:href="/asn/6461" xlink:title="AS6461 ~ Zayo Bandwidth [US]">
<ellipse fill="#ffffff" stroke="black" cx="279.332" cy="-180" rx="39.7935" ry="18"/>
<text text-anchor="middle" x="279.332" y="-176.3" font-family="Times,serif" font-size="14.00" fill="#2c94b3">AS6461</text>
</a>
</g>
</g>
<!-- AS8447&#45;&gt;AS6461 -->
<g id="edge9" class="edge"><title>AS8447&#45;&gt;AS6461</title>
<path fill="none" stroke="black" stroke-width="0.75" d="M203.711,-180C211.914,-180 220.678,-180 229.21,-180"/>
<polygon fill="black" stroke="black" stroke-width="0.75" points="229.449,-183.5 239.449,-180 229.449,-176.5 229.449,-183.5"/>
</g>
<!-- AS3320 -->
<g id="node11" class="node"><title>AS3320</title>
<g id="a_node11"><a xlink:href="/asn/3320" xlink:title="AS3320 ~ DTAG [DE]">
<ellipse fill="#ffffff" stroke="black" cx="279.332" cy="-72" rx="39.7935" ry="18"/>
<text text-anchor="middle" x="279.332" y="-68.3" font-family="Times,serif" font-size="14.00" fill="#2c94b3">AS3320</text>
</a>
</g>
</g>
<!-- AS8447&#45;&gt;AS3320 -->
<g id="edge10" class="edge"><title>AS8447&#45;&gt;AS3320</title>
<path fill="none" stroke="black" stroke-width="3" d="M178.669,-163.183C192.951,-146.071 216.498,-119.255 239.685,-99 242.151,-96.8462 244.789,-94.7062 247.487,-92.6284"/>
<polygon fill="black" stroke="black" stroke-width="3" points="249.66,-95.3749 255.641,-86.6297 245.512,-89.7363 249.66,-95.3749"/>
</g>
<!-- AS1299 -->
<g id="node12" class="node"><title>AS1299</title>
<g id="a_node12"><a xlink:href="/asn/1299" xlink:title="AS1299 ~ Telia Carrier [EU]">
<ellipse fill="#ffffff" stroke="black" cx="279.332" cy="-234" rx="39.7935" ry="18"/>
<text text-anchor="middle" x="279.332" y="-230.3" font-family="Times,serif" font-size="14.00" fill="#2c94b3">AS1299</text>
</a>
</g>
</g>
<!-- AS8447&#45;&gt;AS1299 -->
<g id="edge11" class="edge"><title>AS8447&#45;&gt;AS1299</title>
<path fill="none" stroke="black" stroke-width="4.5" d="M192.175,-192.934C207.169,-200.081 225.99,-209.052 242.213,-216.785"/>
<polygon fill="black" stroke="black" stroke-width="4.5" points="240.695,-220.423 251.417,-221.171 244.084,-213.314 240.695,-220.423"/>
</g>
<!-- AS6762 -->
<g id="node13" class="node"><title>AS6762</title>
<g id="a_node13"><a xlink:href="/asn/6762" xlink:title="AS6762 ~ TELECOM ITALIA SPARKLE S.p.A. [IT]">
<ellipse fill="#ffffff" stroke="black" cx="279.332" cy="-126" rx="39.7935" ry="18"/>
<text text-anchor="middle" x="279.332" y="-122.3" font-family="Times,serif" font-size="14.00" fill="#2c94b3">AS6762</text>
</a>
</g>
</g>
<!-- AS8447&#45;&gt;AS6762 -->
<g id="edge12" class="edge"><title>AS8447&#45;&gt;AS6762</title>
<path fill="none" stroke="black" stroke-width="0.75" d="M192.175,-167.066C207.169,-159.919 225.99,-150.948 242.213,-143.215"/>
<polygon fill="black" stroke="black" stroke-width="0.75" points="243.895,-146.291 251.417,-138.829 240.884,-139.972 243.895,-146.291"/>
</g>
<!-- AS3320&#45;&gt;AS2914 -->
<g id="edge15" class="edge"><title>AS3320&#45;&gt;AS2914</title>
<path fill="none" stroke="black" d="M307.468,-84.9343C322.462,-92.0811 341.283,-101.052 357.506,-108.785"/>
<polygon fill="black" stroke="black" points="356.177,-112.028 366.71,-113.171 359.188,-105.709 356.177,-112.028"/>
</g>
<!-- AS701 -->
<g id="node14" class="node"><title>AS701</title>
<g id="a_node14"><a xlink:href="/asn/701" xlink:title="AS701 ~ UUNET [US]">
<ellipse fill="#ffffff" stroke="black" cx="394.625" cy="-18" rx="35.194" ry="18"/>
<text text-anchor="middle" x="394.625" y="-14.3" font-family="Times,serif" font-size="14.00" fill="#2c94b3">AS701</text>
</a>
</g>
</g>
<!-- AS3320&#45;&gt;AS701 -->
<g id="edge13" class="edge"><title>AS3320&#45;&gt;AS701</title>
<path fill="none" stroke="black" d="M307.468,-59.0657C322.9,-51.7103 342.385,-42.4227 358.92,-34.5414"/>
<polygon fill="black" stroke="black" points="360.741,-37.5509 368.262,-30.0887 357.729,-31.2319 360.741,-37.5509"/>
</g>
<!-- AS1239 -->
<g id="node15" class="node"><title>AS1239</title>
<g id="a_node15"><a xlink:href="/asn/1239" xlink:title="AS1239 ~ Sprint [US]">
<ellipse fill="#ffffff" stroke="black" cx="394.625" cy="-72" rx="39.7935" ry="18"/>
<text text-anchor="middle" x="394.625" y="-68.3" font-family="Times,serif" font-size="14.00" fill="#2c94b3">AS1239</text>
</a>
</g>
</g>
<!-- AS3320&#45;&gt;AS1239 -->
<g id="edge14" class="edge"><title>AS3320&#45;&gt;AS1239</title>
<path fill="none" stroke="black" d="M319.004,-72C327.207,-72 335.971,-72 344.503,-72"/>
<polygon fill="black" stroke="black" points="344.742,-75.5001 354.742,-72 344.742,-68.5001 344.742,-75.5001"/>
</g>
<!-- AS1299&#45;&gt;AS3257 -->
<g id="edge18" class="edge"><title>AS1299&#45;&gt;AS3257</title>
<path fill="none" stroke="black" d="M307.468,-246.934C322.462,-254.081 341.283,-263.052 357.506,-270.785"/>
<polygon fill="black" stroke="black" points="356.177,-274.028 366.71,-275.171 359.188,-267.709 356.177,-274.028"/>
</g>
<!-- AS1299&#45;&gt;AS2914 -->
<g id="edge16" class="edge"><title>AS1299&#45;&gt;AS2914</title>
<path fill="none" stroke="black" d="M303.926,-219.611C309.182,-215.852 314.513,-211.563 318.978,-207 339.151,-186.383 334.806,-173.617 354.978,-153 357.071,-150.861 359.354,-148.782 361.731,-146.79"/>
<polygon fill="black" stroke="black" points="364.249,-149.268 370.031,-140.389 359.974,-143.725 364.249,-149.268"/>
</g>
<!-- AS1299&#45;&gt;AS1239 -->
<g id="edge19" class="edge"><title>AS1299&#45;&gt;AS1239</title>
<path fill="none" stroke="black" d="M305.262,-220.118C310.338,-216.389 315.256,-211.984 318.978,-207 349.249,-166.458 324.707,-139.542 354.978,-99 356.723,-96.6636 358.73,-94.4546 360.893,-92.3828"/>
<polygon fill="black" stroke="black" points="363.253,-94.9726 368.694,-85.8816 358.771,-89.5954 363.253,-94.9726"/>
</g>
<!-- AS174 -->
<g id="node16" class="node"><title>AS174</title>
<g id="a_node16"><a xlink:href="/asn/174" xlink:title="AS174 ~ Cogent Communications [US]">
<ellipse fill="#ffffff" stroke="black" cx="394.625" cy="-180" rx="35.194" ry="18"/>
<text text-anchor="middle" x="394.625" y="-176.3" font-family="Times,serif" font-size="14.00" fill="#2c94b3">AS174</text>
</a>
</g>
</g>
<!-- AS1299&#45;&gt;AS174 -->
<g id="edge17" class="edge"><title>AS1299&#45;&gt;AS174</title>
<path fill="none" stroke="black" d="M307.468,-221.066C322.9,-213.71 342.385,-204.423 358.92,-196.541"/>
<polygon fill="black" stroke="black" points="360.741,-199.551 368.262,-192.089 357.729,-193.232 360.741,-199.551"/>
</g>
<!-- AS7018 -->
<g id="node17" class="node"><title>AS7018</title>
<g id="a_node17"><a xlink:href="/asn/7018" xlink:title="AS7018 ~ AT&amp;T Services, Inc. [US]">
<ellipse fill="#ffffff" stroke="black" cx="394.625" cy="-234" rx="39.7935" ry="18"/>
<text text-anchor="middle" x="394.625" y="-230.3" font-family="Times,serif" font-size="14.00" fill="#2c94b3">AS7018</text>
</a>
</g>
</g>
<!-- AS1299&#45;&gt;AS7018 -->
<g id="edge20" class="edge"><title>AS1299&#45;&gt;AS7018</title>
<path fill="none" stroke="black" d="M319.004,-234C327.207,-234 335.971,-234 344.503,-234"/>
<polygon fill="black" stroke="black" points="344.742,-237.5 354.742,-234 344.742,-230.5 344.742,-237.5"/>
</g>
</g>
</svg>
