<?xml version="1.0" encoding="UTF-8" standalone="no"?>
<!DOCTYPE svg PUBLIC "-//W3C//DTD SVG 1.1//EN"
 "http://www.w3.org/Graphics/SVG/1.1/DTD/svg11.dtd">
<!-- Generated by graphviz version 2.38.0 (20140413.2041)
 -->
<!-- Title: AS62149 Combined Upstream Graph Pages: 1 -->
<svg width="576pt" height="827pt"
 viewBox="0.00 0.00 575.76 827.00" xmlns="http://www.w3.org/2000/svg" xmlns:xlink="http://www.w3.org/1999/xlink">
<g id="graph0" class="graph" transform="scale(1 1) rotate(0) translate(4 823)">
<title>AS62149 Combined Upstream Graph</title>
<polygon fill="white" stroke="none" points="-4,4 -4,-823 571.762,-823 571.762,4 -4,4"/>
<!-- AS62149 -->
<g id="node1" class="node"><title>AS62149</title>
<g id="a_node1"><a xlink:href="/asn/62149" xlink:title="AS62149 ~ Verein Kabel&#45;TV Gerlos [AT]">
<ellipse fill="#ffffff" stroke="black" cx="44.1961" cy="-423" rx="44.393" ry="18"/>
<text text-anchor="middle" x="44.1961" y="-419.3" font-family="Times,serif" font-size="14.00" fill="#880000">AS62149</text>
</a>
</g>
</g>
<!-- AS5404 -->
<g id="node2" class="node"><title>AS5404</title>
<g id="a_node2"><a xlink:href="/asn/5404" xlink:title="AS5404 ~ ASN conova communications GmbH [AT]">
<ellipse fill="#ffffff" stroke="black" cx="164.039" cy="-423" rx="39.7935" ry="18"/>
<text text-anchor="middle" x="164.039" y="-419.3" font-family="Times,serif" font-size="14.00" fill="#2c94b3">AS5404</text>
</a>
</g>
</g>
<!-- AS62149&#45;&gt;AS5404 -->
<g id="edge1" class="edge"><title>AS62149&#45;&gt;AS5404</title>
<path fill="none" stroke="black" stroke-width="4.5" d="M88.4072,-423C96.7198,-423 105.482,-423 113.965,-423"/>
<polygon fill="black" stroke="black" stroke-width="4.5" points="114.123,-426.938 124.123,-423 114.123,-419.063 114.123,-426.938"/>
</g>
<!-- AS33891 -->
<g id="node3" class="node"><title>AS33891</title>
<g id="a_node3"><a xlink:href="/asn/33891" xlink:title="AS33891 ~ CORE&#45;BACKBONE GMBH GLOBAL NETWORK [DE]">
<ellipse fill="#ffffff" stroke="black" cx="283.881" cy="-693" rx="44.393" ry="18"/>
<text text-anchor="middle" x="283.881" y="-689.3" font-family="Times,serif" font-size="14.00" fill="#2c94b3">AS33891</text>
</a>
</g>
</g>
<!-- AS5404&#45;&gt;AS33891 -->
<g id="edge2" class="edge"><title>AS5404&#45;&gt;AS33891</title>
<path fill="none" stroke="black" stroke-width="2.76923" d="M172.771,-440.715C192.872,-486.771 246.88,-610.514 270.983,-665.739"/>
<polygon fill="black" stroke="black" stroke-width="2.76923" points="267.913,-667.454 275.121,-675.219 274.328,-664.654 267.913,-667.454"/>
</g>
<!-- AS6830 -->
<g id="node4" class="node"><title>AS6830</title>
<g id="a_node4"><a xlink:href="/asn/6830" xlink:title="AS6830 ~ LGI&#45;UPC [AT]">
<ellipse fill="#ffffff" stroke="black" cx="283.881" cy="-288" rx="39.7935" ry="18"/>
<text text-anchor="middle" x="283.881" y="-284.3" font-family="Times,serif" font-size="14.00" fill="#2c94b3">AS6830</text>
</a>
</g>
</g>
<!-- AS5404&#45;&gt;AS6830 -->
<g id="edge3" class="edge"><title>AS5404&#45;&gt;AS6830</title>
<path fill="none" stroke="black" stroke-width="4.5" d="M179.725,-406.175C200.302,-382.603 237.839,-339.6 261.512,-312.48"/>
<polygon fill="black" stroke="black" stroke-width="4.5" points="264.77,-314.736 268.38,-304.613 258.837,-309.557 264.77,-314.736"/>
</g>
<!-- AS1764 -->
<g id="node5" class="node"><title>AS1764</title>
<g id="a_node5"><a xlink:href="/asn/1764" xlink:title="AS1764 ~ NEXTLAYER&#45;AS [AT]">
<ellipse fill="#ffffff" stroke="black" cx="283.881" cy="-558" rx="39.7935" ry="18"/>
<text text-anchor="middle" x="283.881" y="-554.3" font-family="Times,serif" font-size="14.00" fill="#2c94b3">AS1764</text>
</a>
</g>
</g>
<!-- AS5404&#45;&gt;AS1764 -->
<g id="edge4" class="edge"><title>AS5404&#45;&gt;AS1764</title>
<path fill="none" stroke="black" stroke-width="2.42308" d="M179.725,-439.825C200.302,-463.397 237.839,-506.4 261.512,-533.52"/>
<polygon fill="black" stroke="black" stroke-width="2.42308" points="259.167,-536.155 268.38,-541.387 264.44,-531.552 259.167,-536.155"/>
</g>
<!-- AS8445 -->
<g id="node6" class="node"><title>AS8445</title>
<g id="a_node6"><a xlink:href="/asn/8445" xlink:title="AS8445 ~ SALZBURG&#45;AG&#45;AS [AT]">
<ellipse fill="#ffffff" stroke="black" cx="283.881" cy="-126" rx="39.7935" ry="18"/>
<text text-anchor="middle" x="283.881" y="-122.3" font-family="Times,serif" font-size="14.00" fill="#2c94b3">AS8445</text>
</a>
</g>
</g>
<!-- AS5404&#45;&gt;AS8445 -->
<g id="edge5" class="edge"><title>AS5404&#45;&gt;AS8445</title>
<path fill="none" stroke="black" stroke-width="0.692308" d="M172.057,-405.311C191.824,-355.493 248.066,-213.746 271.944,-153.564"/>
<polygon fill="black" stroke="black" stroke-width="0.692308" points="275.315,-154.558 275.75,-143.972 268.809,-151.976 275.315,-154.558"/>
</g>
<!-- AS1299 -->
<g id="node7" class="node"><title>AS1299</title>
<g id="a_node7"><a xlink:href="/asn/1299" xlink:title="AS1299 ~ Telia Carrier [EU]">
<ellipse fill="#ffffff" stroke="black" cx="408.273" cy="-720" rx="39.7935" ry="18"/>
<text text-anchor="middle" x="408.273" y="-716.3" font-family="Times,serif" font-size="14.00" fill="#2c94b3">AS1299</text>
</a>
</g>
</g>
<!-- AS33891&#45;&gt;AS1299 -->
<g id="edge6" class="edge"><title>AS33891&#45;&gt;AS1299</title>
<path fill="none" stroke="black" stroke-width="1.8" d="M323.271,-701.469C335.662,-704.202 349.509,-707.257 362.329,-710.085"/>
<polygon fill="black" stroke="black" stroke-width="1.8" points="361.825,-713.558 372.344,-712.295 363.333,-706.722 361.825,-713.558"/>
</g>
<!-- AS3257 -->
<g id="node8" class="node"><title>AS3257</title>
<g id="a_node8"><a xlink:href="/asn/3257" xlink:title="AS3257 ~ GTT [DE]">
<ellipse fill="#ffffff" stroke="black" cx="408.273" cy="-666" rx="39.7935" ry="18"/>
<text text-anchor="middle" x="408.273" y="-662.3" font-family="Times,serif" font-size="14.00" fill="#2c94b3">AS3257</text>
</a>
</g>
</g>
<!-- AS33891&#45;&gt;AS3257 -->
<g id="edge7" class="edge"><title>AS33891&#45;&gt;AS3257</title>
<path fill="none" stroke="black" stroke-width="0.9" d="M323.271,-684.531C335.662,-681.798 349.509,-678.743 362.329,-675.915"/>
<polygon fill="black" stroke="black" stroke-width="0.9" points="363.333,-679.278 372.344,-673.705 361.825,-672.442 363.333,-679.278"/>
</g>
<!-- AS3356 -->
<g id="node9" class="node"><title>AS3356</title>
<g id="a_node9"><a xlink:href="/asn/3356" xlink:title="AS3356 ~ Level 3 Parent, LLC [US]">
<ellipse fill="#ffffff" stroke="black" cx="408.273" cy="-774" rx="39.7935" ry="18"/>
<text text-anchor="middle" x="408.273" y="-770.3" font-family="Times,serif" font-size="14.00" fill="#2c94b3">AS3356</text>
</a>
</g>
</g>
<!-- AS33891&#45;&gt;AS3356 -->
<g id="edge8" class="edge"><title>AS33891&#45;&gt;AS3356</title>
<path fill="none" stroke="black" stroke-width="4.5" d="M306.912,-708.367C322.714,-719.305 344.571,-734.261 364.077,-747 367.659,-749.339 371.43,-751.759 375.19,-754.144"/>
<polygon fill="black" stroke="black" stroke-width="4.5" points="373.29,-757.601 383.851,-759.596 377.485,-750.936 373.29,-757.601"/>
</g>
<!-- AS2497 -->
<g id="node10" class="node"><title>AS2497</title>
<g id="a_node10"><a xlink:href="/asn/2497" xlink:title="AS2497 ~ Internet Initiative Japan Inc. [JP]">
<ellipse fill="#ffffff" stroke="black" cx="408.273" cy="-72" rx="39.7935" ry="18"/>
<text text-anchor="middle" x="408.273" y="-68.3" font-family="Times,serif" font-size="14.00" fill="#2c94b3">AS2497</text>
</a>
</g>
</g>
<!-- AS6830&#45;&gt;AS2497 -->
<g id="edge9" class="edge"><title>AS6830&#45;&gt;AS2497</title>
<path fill="none" stroke="black" stroke-width="2" d="M288.575,-269.925C296.715,-233.852 319.148,-151.86 364.077,-99 366.511,-96.1361 369.328,-93.479 372.333,-91.0389"/>
<polygon fill="black" stroke="black" stroke-width="2" points="374.521,-93.7761 380.593,-85.0938 370.432,-88.0946 374.521,-93.7761"/>
</g>
<!-- AS1239 -->
<g id="node11" class="node"><title>AS1239</title>
<g id="a_node11"><a xlink:href="/asn/1239" xlink:title="AS1239 ~ Sprint [US]">
<ellipse fill="#ffffff" stroke="black" cx="408.273" cy="-450" rx="39.7935" ry="18"/>
<text text-anchor="middle" x="408.273" y="-446.3" font-family="Times,serif" font-size="14.00" fill="#2c94b3">AS1239</text>
</a>
</g>
</g>
<!-- AS6830&#45;&gt;AS1239 -->
<g id="edge10" class="edge"><title>AS6830&#45;&gt;AS1239</title>
<path fill="none" stroke="black" d="M292.072,-305.975C303.839,-333.682 329.413,-387.348 364.077,-423 366.697,-425.695 369.638,-428.239 372.721,-430.608"/>
<polygon fill="black" stroke="black" points="370.887,-433.597 381.089,-436.455 374.896,-427.859 370.887,-433.597"/>
</g>
<!-- AS701 -->
<g id="node12" class="node"><title>AS701</title>
<g id="a_node12"><a xlink:href="/asn/701" xlink:title="AS701 ~ UUNET [US]">
<ellipse fill="#ffffff" stroke="black" cx="408.273" cy="-396" rx="35.194" ry="18"/>
<text text-anchor="middle" x="408.273" y="-392.3" font-family="Times,serif" font-size="14.00" fill="#2c94b3">AS701</text>
</a>
</g>
</g>
<!-- AS6830&#45;&gt;AS701 -->
<g id="edge11" class="edge"><title>AS6830&#45;&gt;AS701</title>
<path fill="none" stroke="black" stroke-width="2" d="M299.033,-304.663C314.135,-321.894 339.256,-349.024 364.077,-369 367.582,-371.821 371.4,-374.587 375.268,-377.208"/>
<polygon fill="black" stroke="black" stroke-width="2" points="373.419,-380.18 383.714,-382.682 377.226,-374.306 373.419,-380.18"/>
</g>
<!-- AS7018 -->
<g id="node13" class="node"><title>AS7018</title>
<g id="a_node13"><a xlink:href="/asn/7018" xlink:title="AS7018 ~ AT&amp;T Services, Inc. [US]">
<ellipse fill="#ffffff" stroke="black" cx="408.273" cy="-342" rx="39.7935" ry="18"/>
<text text-anchor="middle" x="408.273" y="-338.3" font-family="Times,serif" font-size="14.00" fill="#2c94b3">AS7018</text>
</a>
</g>
</g>
<!-- AS6830&#45;&gt;AS7018 -->
<g id="edge12" class="edge"><title>AS6830&#45;&gt;AS7018</title>
<path fill="none" stroke="black" stroke-width="2" d="M312.96,-300.389C329.908,-307.866 351.706,-317.483 370.075,-325.588"/>
<polygon fill="black" stroke="black" stroke-width="2" points="368.763,-328.834 379.325,-329.669 371.589,-322.43 368.763,-328.834"/>
</g>
<!-- AS6762 -->
<g id="node14" class="node"><title>AS6762</title>
<g id="a_node14"><a xlink:href="/asn/6762" xlink:title="AS6762 ~ TELECOM ITALIA SPARKLE S.p.A. [IT]">
<ellipse fill="#ffffff" stroke="black" cx="408.273" cy="-288" rx="39.7935" ry="18"/>
<text text-anchor="middle" x="408.273" y="-284.3" font-family="Times,serif" font-size="14.00" fill="#2c94b3">AS6762</text>
</a>
</g>
</g>
<!-- AS6830&#45;&gt;AS6762 -->
<g id="edge13" class="edge"><title>AS6830&#45;&gt;AS6762</title>
<path fill="none" stroke="black" stroke-width="2" d="M323.607,-288C334.545,-288 346.596,-288 358.062,-288"/>
<polygon fill="black" stroke="black" stroke-width="2" points="358.38,-291.5 368.38,-288 358.38,-284.5 358.38,-291.5"/>
</g>
<!-- AS12956 -->
<g id="node15" class="node"><title>AS12956</title>
<g id="a_node15"><a xlink:href="/asn/12956" xlink:title="AS12956 ~ TELXIUS [ES]">
<ellipse fill="#ffffff" stroke="black" cx="408.273" cy="-234" rx="44.393" ry="18"/>
<text text-anchor="middle" x="408.273" y="-230.3" font-family="Times,serif" font-size="14.00" fill="#2c94b3">AS12956</text>
</a>
</g>
</g>
<!-- AS6830&#45;&gt;AS12956 -->
<g id="edge14" class="edge"><title>AS6830&#45;&gt;AS12956</title>
<path fill="none" stroke="black" d="M312.96,-275.611C329.276,-268.413 350.087,-259.231 368.007,-251.325"/>
<polygon fill="black" stroke="black" points="369.881,-254.323 377.618,-247.084 367.056,-247.919 369.881,-254.323"/>
</g>
<!-- AS3491 -->
<g id="node16" class="node"><title>AS3491</title>
<g id="a_node16"><a xlink:href="/asn/3491" xlink:title="AS3491 ~ PCCW Global, Inc. [US]">
<ellipse fill="#ffffff" stroke="black" cx="408.273" cy="-180" rx="39.7935" ry="18"/>
<text text-anchor="middle" x="408.273" y="-176.3" font-family="Times,serif" font-size="14.00" fill="#2c94b3">AS3491</text>
</a>
</g>
</g>
<!-- AS6830&#45;&gt;AS3491 -->
<g id="edge15" class="edge"><title>AS6830&#45;&gt;AS3491</title>
<path fill="none" stroke="black" stroke-width="2" d="M299.033,-271.337C314.135,-254.106 339.256,-226.976 364.077,-207 367.333,-204.38 370.858,-201.808 374.442,-199.354"/>
<polygon fill="black" stroke="black" stroke-width="2" points="376.361,-202.281 382.815,-193.879 372.53,-196.423 376.361,-202.281"/>
</g>
<!-- AS1273 -->
<g id="node17" class="node"><title>AS1273</title>
<g id="a_node17"><a xlink:href="/asn/1273" xlink:title="AS1273 ~ Vodafone Group PLC [EU]">
<ellipse fill="#ffffff" stroke="black" cx="408.273" cy="-126" rx="39.7935" ry="18"/>
<text text-anchor="middle" x="408.273" y="-122.3" font-family="Times,serif" font-size="14.00" fill="#2c94b3">AS1273</text>
</a>
</g>
</g>
<!-- AS6830&#45;&gt;AS1273 -->
<g id="edge16" class="edge"><title>AS6830&#45;&gt;AS1273</title>
<path fill="none" stroke="black" d="M292.072,-270.025C303.839,-242.318 329.413,-188.652 364.077,-153 366.697,-150.305 369.638,-147.761 372.721,-145.392"/>
<polygon fill="black" stroke="black" points="374.896,-148.141 381.089,-139.545 370.887,-142.403 374.896,-148.141"/>
</g>
<!-- AS1764&#45;&gt;AS3257 -->
<g id="edge20" class="edge"><title>AS1764&#45;&gt;AS3257</title>
<path fill="none" stroke="black" d="M299.033,-574.663C314.135,-591.894 339.256,-619.024 364.077,-639 367.333,-641.62 370.858,-644.192 374.442,-646.646"/>
<polygon fill="black" stroke="black" points="372.53,-649.577 382.815,-652.121 376.361,-643.719 372.53,-649.577"/>
</g>
<!-- AS2914 -->
<g id="node18" class="node"><title>AS2914</title>
<g id="a_node18"><a xlink:href="/asn/2914" xlink:title="AS2914 ~ NTT America, Inc. [US]">
<ellipse fill="#ffffff" stroke="black" cx="408.273" cy="-504" rx="39.7935" ry="18"/>
<text text-anchor="middle" x="408.273" y="-500.3" font-family="Times,serif" font-size="14.00" fill="#2c94b3">AS2914</text>
</a>
</g>
</g>
<!-- AS1764&#45;&gt;AS2914 -->
<g id="edge17" class="edge"><title>AS1764&#45;&gt;AS2914</title>
<path fill="none" stroke="black" stroke-width="2" d="M312.96,-545.611C329.908,-538.134 351.706,-528.517 370.075,-520.412"/>
<polygon fill="black" stroke="black" stroke-width="2" points="371.589,-523.57 379.325,-516.331 368.763,-517.166 371.589,-523.57"/>
</g>
<!-- AS174 -->
<g id="node19" class="node"><title>AS174</title>
<g id="a_node19"><a xlink:href="/asn/174" xlink:title="AS174 ~ Cogent Communications [US]">
<ellipse fill="#ffffff" stroke="black" cx="408.273" cy="-612" rx="35.194" ry="18"/>
<text text-anchor="middle" x="408.273" y="-608.3" font-family="Times,serif" font-size="14.00" fill="#2c94b3">AS174</text>
</a>
</g>
</g>
<!-- AS1764&#45;&gt;AS174 -->
<g id="edge18" class="edge"><title>AS1764&#45;&gt;AS174</title>
<path fill="none" stroke="black" stroke-width="2" d="M312.96,-570.389C330.389,-578.078 352.946,-588.031 371.63,-596.274"/>
<polygon fill="black" stroke="black" stroke-width="2" points="370.438,-599.573 381,-600.408 373.263,-593.169 370.438,-599.573"/>
</g>
<!-- AS8218 -->
<g id="node20" class="node"><title>AS8218</title>
<g id="a_node20"><a xlink:href="/asn/8218" xlink:title="AS8218 ~ legacy Neotelecoms [FR]">
<ellipse fill="#ffffff" stroke="black" cx="408.273" cy="-558" rx="39.7935" ry="18"/>
<text text-anchor="middle" x="408.273" y="-554.3" font-family="Times,serif" font-size="14.00" fill="#2c94b3">AS8218</text>
</a>
</g>
</g>
<!-- AS1764&#45;&gt;AS8218 -->
<g id="edge19" class="edge"><title>AS1764&#45;&gt;AS8218</title>
<path fill="none" stroke="black" stroke-width="2" d="M323.607,-558C334.545,-558 346.596,-558 358.062,-558"/>
<polygon fill="black" stroke="black" stroke-width="2" points="358.38,-561.5 368.38,-558 358.38,-554.5 358.38,-561.5"/>
</g>
<!-- AS6453 -->
<g id="node22" class="node"><title>AS6453</title>
<g id="a_node22"><a xlink:href="/asn/6453" xlink:title="AS6453 ~ TATA COMMUNICATIONS (AMERICA) INC [US]">
<ellipse fill="#ffffff" stroke="black" cx="408.273" cy="-18" rx="39.7935" ry="18"/>
<text text-anchor="middle" x="408.273" y="-14.3" font-family="Times,serif" font-size="14.00" fill="#2c94b3">AS6453</text>
</a>
</g>
</g>
<!-- AS8445&#45;&gt;AS6453 -->
<g id="edge22" class="edge"><title>AS8445&#45;&gt;AS6453</title>
<path fill="none" stroke="black" stroke-width="2" d="M299.033,-109.337C314.135,-92.1061 339.256,-64.9756 364.077,-45 367.333,-42.3801 370.858,-39.8076 374.442,-37.3541"/>
<polygon fill="black" stroke="black" stroke-width="2" points="376.361,-40.2814 382.815,-31.8793 372.53,-34.4228 376.361,-40.2814"/>
</g>
<!-- AS209 -->
<g id="node23" class="node"><title>AS209</title>
<g id="a_node23"><a xlink:href="/asn/209" xlink:title="AS209 ~ CenturyLink Communications, LLC [US]">
<ellipse fill="#ffffff" stroke="black" cx="528.116" cy="-747" rx="35.194" ry="18"/>
<text text-anchor="middle" x="528.116" y="-743.3" font-family="Times,serif" font-size="14.00" fill="#2c94b3">AS209</text>
</a>
</g>
</g>
<!-- AS3356&#45;&gt;AS209 -->
<g id="edge23" class="edge"><title>AS3356&#45;&gt;AS209</title>
<path fill="none" stroke="black" stroke-width="2" d="M443.993,-766.045C457.085,-763.045 472.107,-759.604 485.748,-756.478"/>
<polygon fill="black" stroke="black" stroke-width="2" points="486.89,-759.807 495.855,-754.162 485.326,-752.984 486.89,-759.807"/>
</g>
<!-- AS3549 -->
<g id="node24" class="node"><title>AS3549</title>
<g id="a_node24"><a xlink:href="/asn/3549" xlink:title="AS3549 ~ Level 3 Parent, LLC [US]">
<ellipse fill="#ffffff" stroke="black" cx="528.116" cy="-801" rx="39.7935" ry="18"/>
<text text-anchor="middle" x="528.116" y="-797.3" font-family="Times,serif" font-size="14.00" fill="#2c94b3">AS3549</text>
</a>
</g>
</g>
<!-- AS3356&#45;&gt;AS3549 -->
<g id="edge24" class="edge"><title>AS3356&#45;&gt;AS3549</title>
<path fill="none" stroke="black" d="M443.993,-781.955C455.993,-784.704 469.613,-787.825 482.306,-790.733"/>
<polygon fill="black" stroke="black" points="481.708,-794.187 492.238,-793.009 483.272,-787.364 481.708,-794.187"/>
</g>
<!-- AS6461 -->
<g id="node21" class="node"><title>AS6461</title>
<g id="a_node21"><a xlink:href="/asn/6461" xlink:title="AS6461 ~ Zayo Bandwidth [US]">
<ellipse fill="#ffffff" stroke="black" cx="528.116" cy="-558" rx="39.7935" ry="18"/>
<text text-anchor="middle" x="528.116" y="-554.3" font-family="Times,serif" font-size="14.00" fill="#2c94b3">AS6461</text>
</a>
</g>
</g>
<!-- AS8218&#45;&gt;AS6461 -->
<g id="edge21" class="edge"><title>AS8218&#45;&gt;AS6461</title>
<path fill="none" stroke="black" stroke-width="2" d="M448.186,-558C457.739,-558 468.089,-558 478.052,-558"/>
<polygon fill="black" stroke="black" stroke-width="2" points="478.244,-561.5 488.244,-558 478.244,-554.5 478.244,-561.5"/>
</g>
</g>
</svg>
