<?xml version="1.0" encoding="UTF-8" standalone="no"?>
<!DOCTYPE svg PUBLIC "-//W3C//DTD SVG 1.1//EN"
 "http://www.w3.org/Graphics/SVG/1.1/DTD/svg11.dtd">
<!-- Generated by graphviz version 2.38.0 (20140413.2041)
 -->
<!-- Title: AS8437 Combined Upstream Graph Pages: 1 -->
<svg width="673pt" height="656pt"
 viewBox="0.00 0.00 672.86 656.00" xmlns="http://www.w3.org/2000/svg" xmlns:xlink="http://www.w3.org/1999/xlink">
<g id="graph0" class="graph" transform="scale(1 1) rotate(0) translate(4 652)">
<title>AS8437 Combined Upstream Graph</title>
<polygon fill="white" stroke="none" points="-4,4 -4,-652 668.857,-652 668.857,4 -4,4"/>
<!-- AS8437 -->
<g id="node1" class="node"><title>AS8437</title>
<g id="a_node1"><a xlink:href="/asn/8437" xlink:title="AS8437 ~ Hutchison Drei Austria GmbH [AT]">
<ellipse fill="#ffffff" stroke="black" cx="39.6465" cy="-351" rx="39.7935" ry="18"/>
<text text-anchor="middle" x="39.6465" y="-347.3" font-family="Times,serif" font-size="14.00" fill="#880000">AS8437</text>
</a>
</g>
</g>
<!-- AS25255 -->
<g id="node2" class="node"><title>AS25255</title>
<g id="a_node2"><a xlink:href="/asn/25255" xlink:title="AS25255 ~ ==&gt; TELE2 AUSTRIA &lt;== [AT]">
<ellipse fill="#ffffff" stroke="black" cx="159.489" cy="-351" rx="44.393" ry="18"/>
<text text-anchor="middle" x="159.489" y="-347.3" font-family="Times,serif" font-size="14.00" fill="#2c94b3">AS25255</text>
</a>
</g>
</g>
<!-- AS8437&#45;&gt;AS25255 -->
<g id="edge1" class="edge"><title>AS8437&#45;&gt;AS25255</title>
<path fill="none" stroke="black" stroke-width="4.5" d="M79.5591,-351C87.6617,-351 96.337,-351 104.863,-351"/>
<polygon fill="black" stroke="black" stroke-width="4.5" points="105.141,-354.938 115.141,-351 105.141,-347.063 105.141,-354.938"/>
</g>
<!-- AS3320 -->
<g id="node3" class="node"><title>AS3320</title>
<g id="a_node3"><a xlink:href="/asn/3320" xlink:title="AS3320 ~ DTAG [DE]">
<ellipse fill="#ffffff" stroke="black" cx="394.625" cy="-270" rx="39.7935" ry="18"/>
<text text-anchor="middle" x="394.625" y="-266.3" font-family="Times,serif" font-size="14.00" fill="#2c94b3">AS3320</text>
</a>
</g>
</g>
<!-- AS25255&#45;&gt;AS3320 -->
<g id="edge2" class="edge"><title>AS25255&#45;&gt;AS3320</title>
<path fill="none" stroke="black" stroke-width="1.625" d="M193.892,-339.395C235.885,-324.805 307.924,-299.776 353.044,-284.099"/>
<polygon fill="black" stroke="black" stroke-width="1.625" points="354.222,-287.395 362.519,-280.807 351.924,-280.783 354.222,-287.395"/>
</g>
<!-- AS1764 -->
<g id="node4" class="node"><title>AS1764</title>
<g id="a_node4"><a xlink:href="/asn/1764" xlink:title="AS1764 ~ NEXTLAYER&#45;AS [AT]">
<ellipse fill="#ffffff" stroke="black" cx="279.332" cy="-378" rx="39.7935" ry="18"/>
<text text-anchor="middle" x="279.332" y="-374.3" font-family="Times,serif" font-size="14.00" fill="#2c94b3">AS1764</text>
</a>
</g>
</g>
<!-- AS25255&#45;&gt;AS1764 -->
<g id="edge3" class="edge"><title>AS25255&#45;&gt;AS1764</title>
<path fill="none" stroke="black" stroke-width="4.5" d="M198.424,-359.692C209.664,-362.267 222.077,-365.111 233.7,-367.774"/>
<polygon fill="black" stroke="black" stroke-width="4.5" points="233.035,-371.661 243.662,-370.057 234.794,-363.985 233.035,-371.661"/>
</g>
<!-- AS6762 -->
<g id="node5" class="node"><title>AS6762</title>
<g id="a_node5"><a xlink:href="/asn/6762" xlink:title="AS6762 ~ TELECOM ITALIA SPARKLE S.p.A. [IT]">
<ellipse fill="#ffffff" stroke="black" cx="509.918" cy="-408" rx="39.7935" ry="18"/>
<text text-anchor="middle" x="509.918" y="-404.3" font-family="Times,serif" font-size="14.00" fill="#2c94b3">AS6762</text>
</a>
</g>
</g>
<!-- AS25255&#45;&gt;AS6762 -->
<g id="edge4" class="edge"><title>AS25255&#45;&gt;AS6762</title>
<path fill="none" stroke="black" stroke-width="1.125" d="M180.163,-367.098C213.58,-393.183 284.668,-443.35 354.978,-459 389.378,-466.657 400.6,-469.404 434.271,-459 452.526,-453.359 470.299,-441.551 483.92,-430.716"/>
<polygon fill="black" stroke="black" stroke-width="1.125" points="486.366,-433.235 491.832,-424.159 481.899,-427.845 486.366,-433.235"/>
</g>
<!-- AS8447 -->
<g id="node6" class="node"><title>AS8447</title>
<g id="a_node6"><a xlink:href="/asn/8447" xlink:title="AS8447 ~ A1 Telekom Austria AG [AT]">
<ellipse fill="#ffffff" stroke="black" cx="279.332" cy="-247" rx="39.7935" ry="18"/>
<text text-anchor="middle" x="279.332" y="-243.3" font-family="Times,serif" font-size="14.00" fill="#2c94b3">AS8447</text>
</a>
</g>
</g>
<!-- AS25255&#45;&gt;AS8447 -->
<g id="edge5" class="edge"><title>AS25255&#45;&gt;AS8447</title>
<path fill="none" stroke="black" stroke-width="0.5" d="M178.902,-334.75C198.619,-317.349 230.066,-289.596 252.309,-269.966"/>
<polygon fill="black" stroke="black" stroke-width="0.5" points="254.866,-272.377 260.048,-263.136 250.234,-267.129 254.866,-272.377"/>
</g>
<!-- AS6453 -->
<g id="node7" class="node"><title>AS6453</title>
<g id="a_node7"><a xlink:href="/asn/6453" xlink:title="AS6453 ~ TATA COMMUNICATIONS (AMERICA) INC [US]">
<ellipse fill="#ffffff" stroke="black" cx="625.21" cy="-240" rx="39.7935" ry="18"/>
<text text-anchor="middle" x="625.21" y="-236.3" font-family="Times,serif" font-size="14.00" fill="#2c94b3">AS6453</text>
</a>
</g>
</g>
<!-- AS3320&#45;&gt;AS6453 -->
<g id="edge6" class="edge"><title>AS3320&#45;&gt;AS6453</title>
<path fill="none" stroke="black" stroke-width="2" d="M431.216,-262.71C443.548,-260.348 457.484,-257.86 470.271,-256 505.473,-250.878 545.436,-246.775 575.821,-244.006"/>
<polygon fill="black" stroke="black" stroke-width="2" points="576.497,-247.46 586.146,-243.083 575.874,-240.488 576.497,-247.46"/>
</g>
<!-- AS2497 -->
<g id="node8" class="node"><title>AS2497</title>
<g id="a_node8"><a xlink:href="/asn/2497" xlink:title="AS2497 ~ Internet Initiative Japan Inc. [JP]">
<ellipse fill="#ffffff" stroke="black" cx="509.918" cy="-354" rx="39.7935" ry="18"/>
<text text-anchor="middle" x="509.918" y="-350.3" font-family="Times,serif" font-size="14.00" fill="#2c94b3">AS2497</text>
</a>
</g>
</g>
<!-- AS3320&#45;&gt;AS2497 -->
<g id="edge7" class="edge"><title>AS3320&#45;&gt;AS2497</title>
<path fill="none" stroke="black" stroke-width="2" d="M417.405,-284.977C422.939,-288.848 428.852,-293.041 434.271,-297 449.862,-308.391 467.002,-321.441 480.922,-332.177"/>
<polygon fill="black" stroke="black" stroke-width="2" points="479.079,-335.176 489.13,-338.527 483.362,-329.64 479.079,-335.176"/>
</g>
<!-- AS7018 -->
<g id="node9" class="node"><title>AS7018</title>
<g id="a_node9"><a xlink:href="/asn/7018" xlink:title="AS7018 ~ AT&amp;T Services, Inc. [US]">
<ellipse fill="#ffffff" stroke="black" cx="625.21" cy="-492" rx="39.7935" ry="18"/>
<text text-anchor="middle" x="625.21" y="-488.3" font-family="Times,serif" font-size="14.00" fill="#2c94b3">AS7018</text>
</a>
</g>
</g>
<!-- AS3320&#45;&gt;AS7018 -->
<g id="edge8" class="edge"><title>AS3320&#45;&gt;AS7018</title>
<path fill="none" stroke="black" stroke-width="2" d="M420.804,-283.702C425.868,-287.441 430.717,-291.895 434.271,-297 470.483,-349.024 427.733,-388.007 470.271,-435 497.483,-465.062 541.998,-479.315 576.178,-486.046"/>
<polygon fill="black" stroke="black" stroke-width="2" points="575.959,-489.563 586.423,-487.902 577.207,-482.675 575.959,-489.563"/>
</g>
<!-- AS1239 -->
<g id="node10" class="node"><title>AS1239</title>
<g id="a_node10"><a xlink:href="/asn/1239" xlink:title="AS1239 ~ Sprint [US]">
<ellipse fill="#ffffff" stroke="black" cx="625.21" cy="-320" rx="39.7935" ry="18"/>
<text text-anchor="middle" x="625.21" y="-316.3" font-family="Times,serif" font-size="14.00" fill="#2c94b3">AS1239</text>
</a>
</g>
</g>
<!-- AS3320&#45;&gt;AS1239 -->
<g id="edge9" class="edge"><title>AS3320&#45;&gt;AS1239</title>
<path fill="none" stroke="black" stroke-width="2" d="M433.331,-273.952C464.731,-277.701 510.465,-284.228 549.564,-294 561.303,-296.934 573.81,-300.931 585.165,-304.911"/>
<polygon fill="black" stroke="black" stroke-width="2" points="584.203,-308.285 594.798,-308.377 586.573,-301.698 584.203,-308.285"/>
</g>
<!-- AS701 -->
<g id="node11" class="node"><title>AS701</title>
<g id="a_node11"><a xlink:href="/asn/701" xlink:title="AS701 ~ UUNET [US]">
<ellipse fill="#ffffff" stroke="black" cx="625.21" cy="-186" rx="35.194" ry="18"/>
<text text-anchor="middle" x="625.21" y="-182.3" font-family="Times,serif" font-size="14.00" fill="#2c94b3">AS701</text>
</a>
</g>
</g>
<!-- AS3320&#45;&gt;AS701 -->
<g id="edge10" class="edge"><title>AS3320&#45;&gt;AS701</title>
<path fill="none" stroke="black" stroke-width="3" d="M425.979,-258.845C467.415,-243.619 541.657,-216.336 586.58,-199.828"/>
<polygon fill="black" stroke="black" stroke-width="3" points="588.064,-203.012 596.243,-196.277 585.649,-196.441 588.064,-203.012"/>
</g>
<!-- AS1273 -->
<g id="node12" class="node"><title>AS1273</title>
<g id="a_node12"><a xlink:href="/asn/1273" xlink:title="AS1273 ~ Vodafone Group PLC [EU]">
<ellipse fill="#ffffff" stroke="black" cx="509.918" cy="-148" rx="39.7935" ry="18"/>
<text text-anchor="middle" x="509.918" y="-144.3" font-family="Times,serif" font-size="14.00" fill="#2c94b3">AS1273</text>
</a>
</g>
</g>
<!-- AS3320&#45;&gt;AS1273 -->
<g id="edge11" class="edge"><title>AS3320&#45;&gt;AS1273</title>
<path fill="none" stroke="black" d="M408.234,-252.943C422.416,-234.219 446.577,-203.675 470.271,-180 473.549,-176.725 477.132,-173.43 480.754,-170.264"/>
<polygon fill="black" stroke="black" points="483.261,-172.727 488.637,-163.598 478.741,-167.382 483.261,-172.727"/>
</g>
<!-- AS3491 -->
<g id="node13" class="node"><title>AS3491</title>
<g id="a_node13"><a xlink:href="/asn/3491" xlink:title="AS3491 ~ PCCW Global, Inc. [US]">
<ellipse fill="#ffffff" stroke="black" cx="625.21" cy="-408" rx="39.7935" ry="18"/>
<text text-anchor="middle" x="625.21" y="-404.3" font-family="Times,serif" font-size="14.00" fill="#2c94b3">AS3491</text>
</a>
</g>
</g>
<!-- AS3320&#45;&gt;AS3491 -->
<g id="edge12" class="edge"><title>AS3320&#45;&gt;AS3491</title>
<path fill="none" stroke="black" d="M426.855,-280.684C468.721,-295.141 539.029,-319.94 549.564,-327 571.953,-342.004 592.315,-365.038 606.096,-382.713"/>
<polygon fill="black" stroke="black" points="603.477,-385.052 612.312,-390.9 609.053,-380.819 603.477,-385.052"/>
</g>
<!-- AS1764&#45;&gt;AS3320 -->
<g id="edge19" class="edge"><title>AS1764&#45;&gt;AS3320</title>
<path fill="none" stroke="black" stroke-width="1.22727" d="M293.962,-361.183C308.244,-344.071 331.791,-317.255 354.978,-297 357.444,-294.846 360.082,-292.706 362.78,-290.628"/>
<polygon fill="black" stroke="black" stroke-width="1.22727" points="364.953,-293.375 370.934,-284.63 360.805,-287.736 364.953,-293.375"/>
</g>
<!-- AS8218 -->
<g id="node14" class="node"><title>AS8218</title>
<g id="a_node14"><a xlink:href="/asn/8218" xlink:title="AS8218 ~ legacy Neotelecoms [FR]">
<ellipse fill="#ffffff" stroke="black" cx="509.918" cy="-630" rx="39.7935" ry="18"/>
<text text-anchor="middle" x="509.918" y="-626.3" font-family="Times,serif" font-size="14.00" fill="#2c94b3">AS8218</text>
</a>
</g>
</g>
<!-- AS1764&#45;&gt;AS8218 -->
<g id="edge13" class="edge"><title>AS1764&#45;&gt;AS8218</title>
<path fill="none" stroke="black" stroke-width="0.818182" d="M280.372,-396.126C281.529,-439.611 290.95,-550.294 354.978,-605 383.987,-629.786 427.706,-634.859 461.149,-634.412"/>
<polygon fill="black" stroke="black" stroke-width="0.818182" points="461.28,-637.91 471.171,-634.111 461.07,-630.913 461.28,-637.91"/>
</g>
<!-- AS3257 -->
<g id="node15" class="node"><title>AS3257</title>
<g id="a_node15"><a xlink:href="/asn/3257" xlink:title="AS3257 ~ GTT [DE]">
<ellipse fill="#ffffff" stroke="black" cx="394.625" cy="-324" rx="39.7935" ry="18"/>
<text text-anchor="middle" x="394.625" y="-320.3" font-family="Times,serif" font-size="14.00" fill="#2c94b3">AS3257</text>
</a>
</g>
</g>
<!-- AS1764&#45;&gt;AS3257 -->
<g id="edge14" class="edge"><title>AS1764&#45;&gt;AS3257</title>
<path fill="none" stroke="black" stroke-width="1.63636" d="M307.468,-365.066C322.462,-357.919 341.283,-348.948 357.506,-341.215"/>
<polygon fill="black" stroke="black" stroke-width="1.63636" points="359.188,-344.291 366.71,-336.829 356.177,-337.972 359.188,-344.291"/>
</g>
<!-- AS1299 -->
<g id="node16" class="node"><title>AS1299</title>
<g id="a_node16"><a xlink:href="/asn/1299" xlink:title="AS1299 ~ Telia Carrier [EU]">
<ellipse fill="#ffffff" stroke="black" cx="394.625" cy="-578" rx="39.7935" ry="18"/>
<text text-anchor="middle" x="394.625" y="-574.3" font-family="Times,serif" font-size="14.00" fill="#2c94b3">AS1299</text>
</a>
</g>
</g>
<!-- AS1764&#45;&gt;AS1299 -->
<g id="edge15" class="edge"><title>AS1764&#45;&gt;AS1299</title>
<path fill="none" stroke="black" stroke-width="2.04545" d="M284.552,-395.905C293.142,-429.352 315.283,-502.329 354.978,-551 356.821,-553.26 358.899,-555.413 361.112,-557.446"/>
<polygon fill="black" stroke="black" stroke-width="2.04545" points="359.041,-560.274 369.005,-563.875 363.462,-554.846 359.041,-560.274"/>
</g>
<!-- AS174 -->
<g id="node17" class="node"><title>AS174</title>
<g id="a_node17"><a xlink:href="/asn/174" xlink:title="AS174 ~ Cogent Communications [US]">
<ellipse fill="#ffffff" stroke="black" cx="394.625" cy="-432" rx="35.194" ry="18"/>
<text text-anchor="middle" x="394.625" y="-428.3" font-family="Times,serif" font-size="14.00" fill="#2c94b3">AS174</text>
</a>
</g>
</g>
<!-- AS1764&#45;&gt;AS174 -->
<g id="edge16" class="edge"><title>AS1764&#45;&gt;AS174</title>
<path fill="none" stroke="black" stroke-width="2.04545" d="M307.468,-390.934C322.9,-398.29 342.385,-407.577 358.92,-415.459"/>
<polygon fill="black" stroke="black" stroke-width="2.04545" points="357.729,-418.768 368.262,-419.911 360.741,-412.449 357.729,-418.768"/>
</g>
<!-- AS2914 -->
<g id="node18" class="node"><title>AS2914</title>
<g id="a_node18"><a xlink:href="/asn/2914" xlink:title="AS2914 ~ NTT America, Inc. [US]">
<ellipse fill="#ffffff" stroke="black" cx="394.625" cy="-378" rx="39.7935" ry="18"/>
<text text-anchor="middle" x="394.625" y="-374.3" font-family="Times,serif" font-size="14.00" fill="#2c94b3">AS2914</text>
</a>
</g>
</g>
<!-- AS1764&#45;&gt;AS2914 -->
<g id="edge17" class="edge"><title>AS1764&#45;&gt;AS2914</title>
<path fill="none" stroke="black" stroke-width="2.04545" d="M319.004,-378C327.207,-378 335.971,-378 344.503,-378"/>
<polygon fill="black" stroke="black" stroke-width="2.04545" points="344.742,-381.5 354.742,-378 344.742,-374.5 344.742,-381.5"/>
</g>
<!-- AS3356 -->
<g id="node19" class="node"><title>AS3356</title>
<g id="a_node19"><a xlink:href="/asn/3356" xlink:title="AS3356 ~ Level 3 Parent, LLC [US]">
<ellipse fill="#ffffff" stroke="black" cx="394.625" cy="-182" rx="39.7935" ry="18"/>
<text text-anchor="middle" x="394.625" y="-178.3" font-family="Times,serif" font-size="14.00" fill="#2c94b3">AS3356</text>
</a>
</g>
</g>
<!-- AS1764&#45;&gt;AS3356 -->
<g id="edge18" class="edge"><title>AS1764&#45;&gt;AS3356</title>
<path fill="none" stroke="black" stroke-width="4.5" d="M289.665,-360.336C303.483,-334.367 330.404,-284.473 354.978,-243 361.918,-231.288 369.924,-218.535 376.843,-207.733"/>
<polygon fill="black" stroke="black" stroke-width="4.5" points="380.246,-209.722 382.353,-199.184 373.626,-205.457 380.246,-209.722"/>
</g>
<!-- AS6939 -->
<g id="node20" class="node"><title>AS6939</title>
<g id="a_node20"><a xlink:href="/asn/6939" xlink:title="AS6939 ~ Hurricane Electric LLC [US]">
<ellipse fill="#ffffff" stroke="black" cx="394.625" cy="-524" rx="39.7935" ry="18"/>
<text text-anchor="middle" x="394.625" y="-520.3" font-family="Times,serif" font-size="14.00" fill="#2c94b3">AS6939</text>
</a>
</g>
</g>
<!-- AS1764&#45;&gt;AS6939 -->
<g id="edge20" class="edge"><title>AS1764&#45;&gt;AS6939</title>
<path fill="none" stroke="black" stroke-width="0.409091" d="M293.549,-395.034C313.419,-420.639 351.103,-469.202 374.131,-498.879"/>
<polygon fill="black" stroke="black" stroke-width="0.409091" points="371.595,-501.32 380.491,-507.075 377.125,-497.029 371.595,-501.32"/>
</g>
<!-- AS6762&#45;&gt;AS6453 -->
<g id="edge22" class="edge"><title>AS6762&#45;&gt;AS6453</title>
<path fill="none" stroke="black" d="M535.605,-393.931C540.694,-390.211 545.679,-385.858 549.564,-381 575.959,-348 564.965,-329.897 585.564,-293 590.893,-283.455 597.66,-273.615 604.037,-265.044"/>
<polygon fill="black" stroke="black" points="606.928,-267.026 610.216,-256.955 601.365,-262.777 606.928,-267.026"/>
</g>
<!-- AS6762&#45;&gt;AS7018 -->
<g id="edge24" class="edge"><title>AS6762&#45;&gt;AS7018</title>
<path fill="none" stroke="black" d="M531.434,-423.212C549.288,-436.45 575.361,-455.781 595.324,-470.583"/>
<polygon fill="black" stroke="black" points="593.346,-473.473 603.464,-476.618 597.515,-467.85 593.346,-473.473"/>
</g>
<!-- AS6762&#45;&gt;AS1239 -->
<g id="edge26" class="edge"><title>AS6762&#45;&gt;AS1239</title>
<path fill="none" stroke="black" d="M532.79,-393.146C538.322,-389.273 544.211,-385.048 549.564,-381 565.856,-368.68 583.58,-354.242 597.667,-342.506"/>
<polygon fill="black" stroke="black" points="600.083,-345.049 605.503,-335.945 595.589,-339.682 600.083,-345.049"/>
</g>
<!-- AS6762&#45;&gt;AS701 -->
<g id="edge25" class="edge"><title>AS6762&#45;&gt;AS701</title>
<path fill="none" stroke="black" d="M536.266,-394.412C541.32,-390.667 546.124,-386.182 549.564,-381 591.797,-317.38 543.331,-276.62 585.564,-213 587.42,-210.204 589.673,-207.611 592.148,-205.228"/>
<polygon fill="black" stroke="black" points="594.566,-207.771 600.064,-198.715 590.118,-202.366 594.566,-207.771"/>
</g>
<!-- AS6762&#45;&gt;AS3491 -->
<g id="edge23" class="edge"><title>AS6762&#45;&gt;AS3491</title>
<path fill="none" stroke="black" stroke-width="2" d="M549.59,-408C557.793,-408 566.557,-408 575.089,-408"/>
<polygon fill="black" stroke="black" stroke-width="2" points="575.328,-411.5 585.328,-408 575.328,-404.5 575.328,-411.5"/>
</g>
<!-- AS6461 -->
<g id="node21" class="node"><title>AS6461</title>
<g id="a_node21"><a xlink:href="/asn/6461" xlink:title="AS6461 ~ Zayo Bandwidth [US]">
<ellipse fill="#ffffff" stroke="black" cx="625.21" cy="-588" rx="39.7935" ry="18"/>
<text text-anchor="middle" x="625.21" y="-584.3" font-family="Times,serif" font-size="14.00" fill="#2c94b3">AS6461</text>
</a>
</g>
</g>
<!-- AS6762&#45;&gt;AS6461 -->
<g id="edge27" class="edge"><title>AS6762&#45;&gt;AS6461</title>
<path fill="none" stroke="black" d="M521.781,-425.259C541.744,-456.977 584.366,-524.695 607.848,-562.003"/>
<polygon fill="black" stroke="black" points="605.091,-564.194 613.38,-570.793 611.016,-560.466 605.091,-564.194"/>
</g>
<!-- AS8447&#45;&gt;AS3356 -->
<g id="edge28" class="edge"><title>AS8447&#45;&gt;AS3356</title>
<path fill="none" stroke="black" stroke-width="4" d="M304.636,-233.056C320.914,-223.717 342.55,-211.303 360.412,-201.055"/>
<polygon fill="black" stroke="black" stroke-width="4" points="362.429,-203.933 369.361,-195.921 358.945,-197.862 362.429,-203.933"/>
</g>
<!-- AS8218&#45;&gt;AS6461 -->
<g id="edge21" class="edge"><title>AS8218&#45;&gt;AS6461</title>
<path fill="none" stroke="black" stroke-width="2" d="M541.278,-618.745C554.485,-613.849 570.142,-608.044 584.274,-602.805"/>
<polygon fill="black" stroke="black" stroke-width="2" points="585.606,-606.044 593.766,-599.286 583.173,-599.481 585.606,-606.044"/>
</g>
<!-- AS3257&#45;&gt;AS2497 -->
<g id="edge35" class="edge"><title>AS3257&#45;&gt;AS2497</title>
<path fill="none" stroke="black" stroke-width="2" d="M429.309,-332.92C440.622,-335.915 453.405,-339.3 465.365,-342.467"/>
<polygon fill="black" stroke="black" stroke-width="2" points="464.604,-345.886 475.167,-345.063 466.396,-339.12 464.604,-345.886"/>
</g>
<!-- AS1299&#45;&gt;AS7018 -->
<g id="edge38" class="edge"><title>AS1299&#45;&gt;AS7018</title>
<path fill="none" stroke="black" stroke-width="2" d="M433.487,-581.74C465.798,-583.35 512.739,-581.855 549.564,-565 572.301,-554.593 592.21,-534.204 605.736,-517.613"/>
<polygon fill="black" stroke="black" stroke-width="2" points="608.794,-519.385 612.208,-509.356 603.284,-515.067 608.794,-519.385"/>
</g>
<!-- AS209 -->
<g id="node23" class="node"><title>AS209</title>
<g id="a_node23"><a xlink:href="/asn/209" xlink:title="AS209 ~ CenturyLink Communications, LLC [US]">
<ellipse fill="#ffffff" stroke="black" cx="509.918" cy="-538" rx="35.194" ry="18"/>
<text text-anchor="middle" x="509.918" y="-534.3" font-family="Times,serif" font-size="14.00" fill="#2c94b3">AS209</text>
</a>
</g>
</g>
<!-- AS1299&#45;&gt;AS209 -->
<g id="edge39" class="edge"><title>AS1299&#45;&gt;AS209</title>
<path fill="none" stroke="black" d="M426.582,-567.07C440.21,-562.258 456.353,-556.559 470.72,-551.486"/>
<polygon fill="black" stroke="black" points="472.065,-554.723 480.329,-548.094 469.734,-548.123 472.065,-554.723"/>
</g>
<!-- AS174&#45;&gt;AS6762 -->
<g id="edge41" class="edge"><title>AS174&#45;&gt;AS6762</title>
<path fill="none" stroke="black" d="M427.484,-425.251C438.733,-422.868 451.607,-420.141 463.746,-417.569"/>
<polygon fill="black" stroke="black" points="464.661,-420.953 473.719,-415.457 463.21,-414.105 464.661,-420.953"/>
</g>
<!-- AS174&#45;&gt;AS3491 -->
<g id="edge40" class="edge"><title>AS174&#45;&gt;AS3491</title>
<path fill="none" stroke="black" stroke-width="2" d="M428.939,-436.312C460.312,-439.511 508.49,-442.2 549.564,-435 562.078,-432.806 575.259,-428.691 587.004,-424.323"/>
<polygon fill="black" stroke="black" stroke-width="2" points="588.437,-427.521 596.486,-420.631 585.897,-420.998 588.437,-427.521"/>
</g>
<!-- AS2914&#45;&gt;AS6762 -->
<g id="edge37" class="edge"><title>AS2914&#45;&gt;AS6762</title>
<path fill="none" stroke="black" d="M429.309,-386.92C440.622,-389.915 453.405,-393.3 465.365,-396.467"/>
<polygon fill="black" stroke="black" points="464.604,-399.886 475.167,-399.063 466.396,-393.12 464.604,-399.886"/>
</g>
<!-- AS2914&#45;&gt;AS2497 -->
<g id="edge36" class="edge"><title>AS2914&#45;&gt;AS2497</title>
<path fill="none" stroke="black" stroke-width="2" d="M430.85,-370.538C441.294,-368.325 452.877,-365.872 463.854,-363.546"/>
<polygon fill="black" stroke="black" stroke-width="2" points="464.656,-366.954 473.714,-361.458 463.205,-360.106 464.656,-366.954"/>
</g>
<!-- AS3356&#45;&gt;AS6762 -->
<g id="edge33" class="edge"><title>AS3356&#45;&gt;AS6762</title>
<path fill="none" stroke="black" d="M408.476,-199.077C416.839,-210.885 427.426,-227.248 434.271,-243 459.535,-301.134 434.059,-328.976 470.271,-381 471.937,-383.393 473.887,-385.643 476.011,-387.743"/>
<polygon fill="black" stroke="black" points="473.848,-390.498 483.738,-394.298 478.376,-385.16 473.848,-390.498"/>
</g>
<!-- AS3356&#45;&gt;AS6453 -->
<g id="edge31" class="edge"><title>AS3356&#45;&gt;AS6453</title>
<path fill="none" stroke="black" stroke-width="2" d="M409.904,-165.076C423.626,-150.238 445.837,-129.714 470.271,-121 503.465,-109.162 520.456,-101.133 549.564,-121 585.83,-145.753 558.402,-178.502 585.564,-213 587.368,-215.291 589.418,-217.467 591.611,-219.516"/>
<polygon fill="black" stroke="black" stroke-width="2" points="589.52,-222.328 599.467,-225.975 593.965,-216.92 589.52,-222.328"/>
</g>
<!-- AS3356&#45;&gt;AS2497 -->
<g id="edge29" class="edge"><title>AS3356&#45;&gt;AS2497</title>
<path fill="none" stroke="black" stroke-width="3" d="M406.902,-199.121C426.87,-229.436 468.543,-292.704 491.977,-328.281"/>
<polygon fill="black" stroke="black" stroke-width="3" points="489.094,-330.267 497.518,-336.693 494.94,-326.417 489.094,-330.267"/>
</g>
<!-- AS3356&#45;&gt;AS701 -->
<g id="edge34" class="edge"><title>AS3356&#45;&gt;AS701</title>
<path fill="none" stroke="black" d="M403.644,-164.098C414.868,-141.526 437.618,-103.766 470.271,-88 502.007,-72.6767 517.985,-72.3571 549.564,-88 579.21,-102.685 600.283,-135.405 612.32,-159.002"/>
<polygon fill="black" stroke="black" points="609.256,-160.705 616.779,-168.166 615.551,-157.642 609.256,-160.705"/>
</g>
<!-- AS3356&#45;&gt;AS1273 -->
<g id="edge32" class="edge"><title>AS3356&#45;&gt;AS1273</title>
<path fill="none" stroke="black" d="M428.09,-172.257C440.06,-168.665 453.803,-164.54 466.521,-160.723"/>
<polygon fill="black" stroke="black" points="467.876,-163.971 476.448,-157.744 465.864,-157.267 467.876,-163.971"/>
</g>
<!-- AS3549 -->
<g id="node22" class="node"><title>AS3549</title>
<g id="a_node22"><a xlink:href="/asn/3549" xlink:title="AS3549 ~ Level 3 Parent, LLC [US]">
<ellipse fill="#ffffff" stroke="black" cx="509.918" cy="-18" rx="39.7935" ry="18"/>
<text text-anchor="middle" x="509.918" y="-14.3" font-family="Times,serif" font-size="14.00" fill="#2c94b3">AS3549</text>
</a>
</g>
</g>
<!-- AS3356&#45;&gt;AS3549 -->
<g id="edge30" class="edge"><title>AS3356&#45;&gt;AS3549</title>
<path fill="none" stroke="black" stroke-width="3" d="M403.216,-164.058C415.034,-137.396 439.684,-86.5403 470.271,-50 473.245,-46.4472 476.651,-42.9894 480.182,-39.7405"/>
<polygon fill="black" stroke="black" stroke-width="3" points="482.704,-42.1875 487.991,-33.0059 478.132,-36.8867 482.704,-42.1875"/>
</g>
<!-- AS6939&#45;&gt;AS209 -->
<g id="edge42" class="edge"><title>AS6939&#45;&gt;AS209</title>
<path fill="none" stroke="black" d="M433.035,-528.623C443.487,-529.915 454.931,-531.329 465.69,-532.658"/>
<polygon fill="black" stroke="black" points="465.387,-536.147 475.74,-533.9 466.245,-529.2 465.387,-536.147"/>
</g>
</g>
</svg>
