<?xml version="1.0" encoding="UTF-8" standalone="no"?>
<!DOCTYPE svg PUBLIC "-//W3C//DTD SVG 1.1//EN"
 "http://www.w3.org/Graphics/SVG/1.1/DTD/svg11.dtd">
<!-- Generated by graphviz version 2.38.0 (20140413.2041)
 -->
<!-- Title: AS8437 Combined Upstream Graph Pages: 1 -->
<svg width="682pt" height="587pt"
 viewBox="0.00 0.00 681.96 587.00" xmlns="http://www.w3.org/2000/svg" xmlns:xlink="http://www.w3.org/1999/xlink">
<g id="graph0" class="graph" transform="scale(1 1) rotate(0) translate(4 583)">
<title>AS8437 Combined Upstream Graph</title>
<polygon fill="white" stroke="none" points="-4,4 -4,-583 677.956,-583 677.956,4 -4,4"/>
<!-- AS8437 -->
<g id="node1" class="node"><title>AS8437</title>
<g id="a_node1"><a xlink:href="/asn/8437" xlink:title="AS8437 ~ Hutchison Drei Austria GmbH [AT]">
<ellipse fill="#ffffff" stroke="black" cx="39.6465" cy="-270" rx="39.7935" ry="18"/>
<text text-anchor="middle" x="39.6465" y="-266.3" font-family="Times,serif" font-size="14.00" fill="#880000">AS8437</text>
</a>
</g>
</g>
<!-- AS25255 -->
<g id="node2" class="node"><title>AS25255</title>
<g id="a_node2"><a xlink:href="/asn/25255" xlink:title="AS25255 ~ ==&gt; TELE2 AUSTRIA &lt;== [AT]">
<ellipse fill="#ffffff" stroke="black" cx="159.489" cy="-270" rx="44.393" ry="18"/>
<text text-anchor="middle" x="159.489" y="-266.3" font-family="Times,serif" font-size="14.00" fill="#2c94b3">AS25255</text>
</a>
</g>
</g>
<!-- AS8437&#45;&gt;AS25255 -->
<g id="edge1" class="edge"><title>AS8437&#45;&gt;AS25255</title>
<path fill="none" stroke="black" stroke-width="4.5" d="M79.5591,-270C87.6617,-270 96.337,-270 104.863,-270"/>
<polygon fill="black" stroke="black" stroke-width="4.5" points="105.141,-273.938 115.141,-270 105.141,-266.063 105.141,-273.938"/>
</g>
<!-- AS6762 -->
<g id="node3" class="node"><title>AS6762</title>
<g id="a_node3"><a xlink:href="/asn/6762" xlink:title="AS6762 ~ TELECOM ITALIA SPARKLE S.p.A. [IT]">
<ellipse fill="#ffffff" stroke="black" cx="509.918" cy="-117" rx="39.7935" ry="18"/>
<text text-anchor="middle" x="509.918" y="-113.3" font-family="Times,serif" font-size="14.00" fill="#2c94b3">AS6762</text>
</a>
</g>
</g>
<!-- AS25255&#45;&gt;AS6762 -->
<g id="edge2" class="edge"><title>AS25255&#45;&gt;AS6762</title>
<path fill="none" stroke="black" stroke-width="1.45161" d="M175.223,-252.953C205.119,-219.809 276.74,-147.52 354.978,-120 389.301,-107.927 430.643,-107.844 461.838,-110.415"/>
<polygon fill="black" stroke="black" stroke-width="1.45161" points="461.719,-113.919 472.003,-111.374 462.377,-106.95 461.719,-113.919"/>
</g>
<!-- AS1764 -->
<g id="node4" class="node"><title>AS1764</title>
<g id="a_node4"><a xlink:href="/asn/1764" xlink:title="AS1764 ~ NEXTLAYER&#45;AS [AT]">
<ellipse fill="#ffffff" stroke="black" cx="279.332" cy="-247" rx="39.7935" ry="18"/>
<text text-anchor="middle" x="279.332" y="-243.3" font-family="Times,serif" font-size="14.00" fill="#2c94b3">AS1764</text>
</a>
</g>
</g>
<!-- AS25255&#45;&gt;AS1764 -->
<g id="edge3" class="edge"><title>AS25255&#45;&gt;AS1764</title>
<path fill="none" stroke="black" stroke-width="4.5" d="M199.729,-262.341C210.181,-260.301 221.567,-258.079 232.345,-255.975"/>
<polygon fill="black" stroke="black" stroke-width="4.5" points="233.382,-259.785 242.442,-254.005 231.873,-252.056 233.382,-259.785"/>
</g>
<!-- AS8447 -->
<g id="node5" class="node"><title>AS8447</title>
<g id="a_node5"><a xlink:href="/asn/8447" xlink:title="AS8447 ~ A1 Telekom Austria AG [AT]">
<ellipse fill="#ffffff" stroke="black" cx="279.332" cy="-381" rx="39.7935" ry="18"/>
<text text-anchor="middle" x="279.332" y="-377.3" font-family="Times,serif" font-size="14.00" fill="#2c94b3">AS8447</text>
</a>
</g>
</g>
<!-- AS25255&#45;&gt;AS8447 -->
<g id="edge4" class="edge"><title>AS25255&#45;&gt;AS8447</title>
<path fill="none" stroke="black" stroke-width="0.580645" d="M177.877,-286.378C197.922,-305.259 231.015,-336.431 253.703,-357.801"/>
<polygon fill="black" stroke="black" stroke-width="0.580645" points="251.576,-360.606 261.255,-364.915 256.376,-355.511 251.576,-360.606"/>
</g>
<!-- AS3320 -->
<g id="node6" class="node"><title>AS3320</title>
<g id="a_node6"><a xlink:href="/asn/3320" xlink:title="AS3320 ~ DTAG [DE]">
<ellipse fill="#ffffff" stroke="black" cx="394.625" cy="-293" rx="39.7935" ry="18"/>
<text text-anchor="middle" x="394.625" y="-289.3" font-family="Times,serif" font-size="14.00" fill="#2c94b3">AS3320</text>
</a>
</g>
</g>
<!-- AS25255&#45;&gt;AS3320 -->
<g id="edge5" class="edge"><title>AS25255&#45;&gt;AS3320</title>
<path fill="none" stroke="black" stroke-width="1.59677" d="M202.708,-274.165C242.954,-278.136 303.493,-284.108 345.57,-288.259"/>
<polygon fill="black" stroke="black" stroke-width="1.59677" points="345.284,-291.748 355.579,-289.247 345.971,-284.782 345.284,-291.748"/>
</g>
<!-- AS3491 -->
<g id="node7" class="node"><title>AS3491</title>
<g id="a_node7"><a xlink:href="/asn/3491" xlink:title="AS3491 ~ PCCW Global, Inc. [US]">
<ellipse fill="#ffffff" stroke="black" cx="629.76" cy="-72" rx="39.7935" ry="18"/>
<text text-anchor="middle" x="629.76" y="-68.3" font-family="Times,serif" font-size="14.00" fill="#2c94b3">AS3491</text>
</a>
</g>
</g>
<!-- AS6762&#45;&gt;AS3491 -->
<g id="edge6" class="edge"><title>AS6762&#45;&gt;AS3491</title>
<path fill="none" stroke="black" stroke-width="2" d="M540.959,-105.528C555.641,-99.9215 573.502,-93.101 589.272,-87.0791"/>
<polygon fill="black" stroke="black" stroke-width="2" points="590.68,-90.2881 598.773,-83.4509 588.183,-83.7486 590.68,-90.2881"/>
</g>
<!-- AS6453 -->
<g id="node8" class="node"><title>AS6453</title>
<g id="a_node8"><a xlink:href="/asn/6453" xlink:title="AS6453 ~ TATA COMMUNICATIONS (AMERICA) INC [US]">
<ellipse fill="#ffffff" stroke="black" cx="629.76" cy="-344" rx="39.7935" ry="18"/>
<text text-anchor="middle" x="629.76" y="-340.3" font-family="Times,serif" font-size="14.00" fill="#2c94b3">AS6453</text>
</a>
</g>
</g>
<!-- AS6762&#45;&gt;AS6453 -->
<g id="edge7" class="edge"><title>AS6762&#45;&gt;AS6453</title>
<path fill="none" stroke="black" d="M536.288,-130.573C541.342,-134.318 546.139,-138.807 549.564,-144 592.805,-209.56 540.66,-252.568 585.564,-317 587.536,-319.83 589.91,-322.424 592.517,-324.789"/>
<polygon fill="black" stroke="black" points="590.807,-327.888 600.871,-331.2 595.069,-322.335 590.807,-327.888"/>
</g>
<!-- AS7018 -->
<g id="node9" class="node"><title>AS7018</title>
<g id="a_node9"><a xlink:href="/asn/7018" xlink:title="AS7018 ~ AT&amp;T Services, Inc. [US]">
<ellipse fill="#ffffff" stroke="black" cx="629.76" cy="-180" rx="39.7935" ry="18"/>
<text text-anchor="middle" x="629.76" y="-176.3" font-family="Times,serif" font-size="14.00" fill="#2c94b3">AS7018</text>
</a>
</g>
</g>
<!-- AS6762&#45;&gt;AS7018 -->
<g id="edge8" class="edge"><title>AS6762&#45;&gt;AS7018</title>
<path fill="none" stroke="black" d="M536.198,-130.515C553.091,-139.547 575.533,-151.544 594.089,-161.464"/>
<polygon fill="black" stroke="black" points="592.646,-164.662 603.115,-166.29 595.946,-158.489 592.646,-164.662"/>
</g>
<!-- AS1239 -->
<g id="node10" class="node"><title>AS1239</title>
<g id="a_node10"><a xlink:href="/asn/1239" xlink:title="AS1239 ~ Sprint [US]">
<ellipse fill="#ffffff" stroke="black" cx="629.76" cy="-290" rx="39.7935" ry="18"/>
<text text-anchor="middle" x="629.76" y="-286.3" font-family="Times,serif" font-size="14.00" fill="#2c94b3">AS1239</text>
</a>
</g>
</g>
<!-- AS6762&#45;&gt;AS1239 -->
<g id="edge9" class="edge"><title>AS6762&#45;&gt;AS1239</title>
<path fill="none" stroke="black" d="M535.944,-130.811C541.015,-134.545 545.907,-138.968 549.564,-144 581.803,-188.352 552.56,-218.214 585.564,-262 587.976,-265.2 590.869,-268.139 594,-270.809"/>
<polygon fill="black" stroke="black" points="592.029,-273.705 602.134,-276.889 596.22,-268.098 592.029,-273.705"/>
</g>
<!-- AS701 -->
<g id="node11" class="node"><title>AS701</title>
<g id="a_node11"><a xlink:href="/asn/701" xlink:title="AS701 ~ UUNET [US]">
<ellipse fill="#ffffff" stroke="black" cx="629.76" cy="-235" rx="35.194" ry="18"/>
<text text-anchor="middle" x="629.76" y="-231.3" font-family="Times,serif" font-size="14.00" fill="#2c94b3">AS701</text>
</a>
</g>
</g>
<!-- AS6762&#45;&gt;AS701 -->
<g id="edge10" class="edge"><title>AS6762&#45;&gt;AS701</title>
<path fill="none" stroke="black" d="M534.743,-131.171C539.99,-134.938 545.259,-139.286 549.564,-144 571.311,-167.813 563.407,-183.567 585.564,-207 588.759,-210.379 592.439,-213.541 596.276,-216.435"/>
<polygon fill="black" stroke="black" points="594.58,-219.517 604.797,-222.321 598.559,-213.758 594.58,-219.517"/>
</g>
<!-- AS6461 -->
<g id="node12" class="node"><title>AS6461</title>
<g id="a_node12"><a xlink:href="/asn/6461" xlink:title="AS6461 ~ ZAYO&#45;6461 [US]">
<ellipse fill="#ffffff" stroke="black" cx="629.76" cy="-18" rx="39.7935" ry="18"/>
<text text-anchor="middle" x="629.76" y="-14.3" font-family="Times,serif" font-size="14.00" fill="#2c94b3">AS6461</text>
</a>
</g>
</g>
<!-- AS6762&#45;&gt;AS6461 -->
<g id="edge11" class="edge"><title>AS6762&#45;&gt;AS6461</title>
<path fill="none" stroke="black" d="M526.055,-100.538C540.55,-85.2426 563.426,-62.288 585.564,-45 588.857,-42.4281 592.407,-39.8858 596.005,-37.4498"/>
<polygon fill="black" stroke="black" points="597.918,-40.3807 604.393,-31.9948 594.102,-34.5124 597.918,-40.3807"/>
</g>
<!-- AS12956 -->
<g id="node13" class="node"><title>AS12956</title>
<g id="a_node13"><a xlink:href="/asn/12956" xlink:title="AS12956 ~ TELXIUS [ES]">
<ellipse fill="#ffffff" stroke="black" cx="629.76" cy="-126" rx="44.393" ry="18"/>
<text text-anchor="middle" x="629.76" y="-122.3" font-family="Times,serif" font-size="14.00" fill="#2c94b3">AS12956</text>
</a>
</g>
</g>
<!-- AS6762&#45;&gt;AS12956 -->
<g id="edge12" class="edge"><title>AS6762&#45;&gt;AS12956</title>
<path fill="none" stroke="black" d="M549.178,-119.922C557.772,-120.578 567.037,-121.286 576.102,-121.978"/>
<polygon fill="black" stroke="black" points="575.968,-125.478 586.206,-122.75 576.501,-118.499 575.968,-125.478"/>
</g>
<!-- AS1764&#45;&gt;AS3320 -->
<g id="edge19" class="edge"><title>AS1764&#45;&gt;AS3320</title>
<path fill="none" stroke="black" stroke-width="1.35" d="M309.507,-258.846C323.383,-264.48 340.16,-271.292 355.069,-277.346"/>
<polygon fill="black" stroke="black" stroke-width="1.35" points="353.966,-280.675 364.548,-281.194 356.599,-274.189 353.966,-280.675"/>
</g>
<!-- AS174 -->
<g id="node14" class="node"><title>AS174</title>
<g id="a_node14"><a xlink:href="/asn/174" xlink:title="AS174 ~ Cogent Communications [US]">
<ellipse fill="#ffffff" stroke="black" cx="394.625" cy="-147" rx="35.194" ry="18"/>
<text text-anchor="middle" x="394.625" y="-143.3" font-family="Times,serif" font-size="14.00" fill="#2c94b3">AS174</text>
</a>
</g>
</g>
<!-- AS1764&#45;&gt;AS174 -->
<g id="edge13" class="edge"><title>AS1764&#45;&gt;AS174</title>
<path fill="none" stroke="black" stroke-width="2.25" d="M295.637,-230.545C310.25,-215.204 333.206,-192.044 354.978,-174 357.857,-171.614 360.94,-169.22 364.061,-166.896"/>
<polygon fill="black" stroke="black" stroke-width="2.25" points="366.23,-169.647 372.302,-160.964 362.141,-163.965 366.23,-169.647"/>
</g>
<!-- AS8218 -->
<g id="node15" class="node"><title>AS8218</title>
<g id="a_node15"><a xlink:href="/asn/8218" xlink:title="AS8218 ~ legacy Neotelecoms [FR]">
<ellipse fill="#ffffff" stroke="black" cx="509.918" cy="-20" rx="39.7935" ry="18"/>
<text text-anchor="middle" x="509.918" y="-16.3" font-family="Times,serif" font-size="14.00" fill="#2c94b3">AS8218</text>
</a>
</g>
</g>
<!-- AS1764&#45;&gt;AS8218 -->
<g id="edge14" class="edge"><title>AS1764&#45;&gt;AS8218</title>
<path fill="none" stroke="black" stroke-width="0.9" d="M287.561,-229.3C298.917,-203.09 322.985,-153.456 354.978,-120 389.405,-83.9978 439.179,-54.68 472.726,-37.3053"/>
<polygon fill="black" stroke="black" stroke-width="0.9" points="474.404,-40.3785 481.731,-32.7258 471.231,-34.139 474.404,-40.3785"/>
</g>
<!-- AS2914 -->
<g id="node16" class="node"><title>AS2914</title>
<g id="a_node16"><a xlink:href="/asn/2914" xlink:title="AS2914 ~ NTT America, Inc. [US]">
<ellipse fill="#ffffff" stroke="black" cx="394.625" cy="-201" rx="39.7935" ry="18"/>
<text text-anchor="middle" x="394.625" y="-197.3" font-family="Times,serif" font-size="14.00" fill="#2c94b3">AS2914</text>
</a>
</g>
</g>
<!-- AS1764&#45;&gt;AS2914 -->
<g id="edge15" class="edge"><title>AS1764&#45;&gt;AS2914</title>
<path fill="none" stroke="black" stroke-width="1.35" d="M309.507,-235.154C323.383,-229.52 340.16,-222.708 355.069,-216.654"/>
<polygon fill="black" stroke="black" stroke-width="1.35" points="356.599,-219.811 364.548,-212.806 353.966,-213.325 356.599,-219.811"/>
</g>
<!-- AS3257 -->
<g id="node17" class="node"><title>AS3257</title>
<g id="a_node17"><a xlink:href="/asn/3257" xlink:title="AS3257 ~ GTT [DE]">
<ellipse fill="#ffffff" stroke="black" cx="394.625" cy="-362" rx="39.7935" ry="18"/>
<text text-anchor="middle" x="394.625" y="-358.3" font-family="Times,serif" font-size="14.00" fill="#2c94b3">AS3257</text>
</a>
</g>
</g>
<!-- AS1764&#45;&gt;AS3257 -->
<g id="edge16" class="edge"><title>AS1764&#45;&gt;AS3257</title>
<path fill="none" stroke="black" stroke-width="1.8" d="M296.564,-263.477C315.913,-283.118 348.39,-316.084 370.395,-338.421"/>
<polygon fill="black" stroke="black" stroke-width="1.8" points="367.911,-340.886 377.423,-345.554 372.898,-335.974 367.911,-340.886"/>
</g>
<!-- AS1299 -->
<g id="node18" class="node"><title>AS1299</title>
<g id="a_node18"><a xlink:href="/asn/1299" xlink:title="AS1299 ~ Telia Carrier [EU]">
<ellipse fill="#ffffff" stroke="black" cx="509.918" cy="-171" rx="39.7935" ry="18"/>
<text text-anchor="middle" x="509.918" y="-167.3" font-family="Times,serif" font-size="14.00" fill="#2c94b3">AS1299</text>
</a>
</g>
</g>
<!-- AS1764&#45;&gt;AS1299 -->
<g id="edge17" class="edge"><title>AS1764&#45;&gt;AS1299</title>
<path fill="none" stroke="black" stroke-width="1.8" d="M319.06,-247.763C351.068,-247.11 397.122,-243.161 434.271,-228 439.72,-225.776 462.765,-207.931 481.825,-192.792"/>
<polygon fill="black" stroke="black" stroke-width="1.8" points="484.051,-195.494 489.687,-186.523 479.687,-190.021 484.051,-195.494"/>
</g>
<!-- AS3356 -->
<g id="node19" class="node"><title>AS3356</title>
<g id="a_node19"><a xlink:href="/asn/3356" xlink:title="AS3356 ~ Level 3 Parent, LLC [US]">
<ellipse fill="#ffffff" stroke="black" cx="394.625" cy="-423" rx="39.7935" ry="18"/>
<text text-anchor="middle" x="394.625" y="-419.3" font-family="Times,serif" font-size="14.00" fill="#2c94b3">AS3356</text>
</a>
</g>
</g>
<!-- AS1764&#45;&gt;AS3356 -->
<g id="edge18" class="edge"><title>AS1764&#45;&gt;AS3356</title>
<path fill="none" stroke="black" stroke-width="4.5" d="M287.205,-264.821C298.591,-292.988 323.29,-348.724 354.978,-389 358.211,-393.109 361.984,-397.115 365.882,-400.851"/>
<polygon fill="black" stroke="black" stroke-width="4.5" points="363.361,-403.88 373.423,-407.659 368.639,-398.035 363.361,-403.88"/>
</g>
<!-- AS8447&#45;&gt;AS3356 -->
<g id="edge23" class="edge"><title>AS8447&#45;&gt;AS3356</title>
<path fill="none" stroke="black" stroke-width="4" d="M310.692,-392.255C323.899,-397.151 339.556,-402.956 353.689,-408.195"/>
<polygon fill="black" stroke="black" stroke-width="4" points="352.587,-411.519 363.18,-411.714 355.021,-404.956 352.587,-411.519"/>
</g>
<!-- AS3320&#45;&gt;AS6453 -->
<g id="edge27" class="edge"><title>AS3320&#45;&gt;AS6453</title>
<path fill="none" stroke="black" stroke-width="2" d="M430.78,-300.69C471.612,-309.623 539.063,-324.378 583.707,-334.144"/>
<polygon fill="black" stroke="black" stroke-width="2" points="583.184,-337.613 593.701,-336.331 584.68,-330.774 583.184,-337.613"/>
</g>
<!-- AS3320&#45;&gt;AS7018 -->
<g id="edge25" class="edge"><title>AS3320&#45;&gt;AS7018</title>
<path fill="none" stroke="black" stroke-width="2" d="M419.528,-278.815C434.029,-270.395 453.009,-259.7 470.271,-251 510.653,-230.648 558.119,-209.772 590.507,-195.973"/>
<polygon fill="black" stroke="black" stroke-width="2" points="592.21,-199.052 600.05,-191.926 589.477,-192.608 592.21,-199.052"/>
</g>
<!-- AS3320&#45;&gt;AS1239 -->
<g id="edge26" class="edge"><title>AS3320&#45;&gt;AS1239</title>
<path fill="none" stroke="black" stroke-width="2" d="M434.384,-292.501C474.3,-291.988 536.618,-291.186 579.89,-290.629"/>
<polygon fill="black" stroke="black" stroke-width="2" points="579.954,-294.128 589.908,-290.5 579.864,-287.129 579.954,-294.128"/>
</g>
<!-- AS3320&#45;&gt;AS701 -->
<g id="edge28" class="edge"><title>AS3320&#45;&gt;AS701</title>
<path fill="none" stroke="black" stroke-width="2" d="M430.025,-284.442C472.092,-273.976 543.21,-256.283 587.986,-245.144"/>
<polygon fill="black" stroke="black" stroke-width="2" points="589.085,-248.477 597.944,-242.666 587.395,-241.684 589.085,-248.477"/>
</g>
<!-- AS2497 -->
<g id="node20" class="node"><title>AS2497</title>
<g id="a_node20"><a xlink:href="/asn/2497" xlink:title="AS2497 ~ Internet Initiative Japan Inc. [JP]">
<ellipse fill="#ffffff" stroke="black" cx="509.918" cy="-431" rx="39.7935" ry="18"/>
<text text-anchor="middle" x="509.918" y="-427.3" font-family="Times,serif" font-size="14.00" fill="#2c94b3">AS2497</text>
</a>
</g>
</g>
<!-- AS3320&#45;&gt;AS2497 -->
<g id="edge24" class="edge"><title>AS3320&#45;&gt;AS2497</title>
<path fill="none" stroke="black" stroke-width="2" d="M412.497,-309.297C419.697,-316.744 427.892,-325.919 434.271,-335 454.153,-363.304 447.439,-378.017 470.271,-404 472.246,-406.248 474.446,-408.405 476.765,-410.45"/>
<polygon fill="black" stroke="black" stroke-width="2" points="474.95,-413.477 484.96,-416.948 479.299,-407.992 474.95,-413.477"/>
</g>
<!-- AS1273 -->
<g id="node21" class="node"><title>AS1273</title>
<g id="a_node21"><a xlink:href="/asn/1273" xlink:title="AS1273 ~ Vodafone Group PLC [EU]">
<ellipse fill="#ffffff" stroke="black" cx="509.918" cy="-377" rx="39.7935" ry="18"/>
<text text-anchor="middle" x="509.918" y="-373.3" font-family="Times,serif" font-size="14.00" fill="#2c94b3">AS1273</text>
</a>
</g>
</g>
<!-- AS3320&#45;&gt;AS1273 -->
<g id="edge29" class="edge"><title>AS3320&#45;&gt;AS1273</title>
<path fill="none" stroke="black" d="M416.141,-308.212C433.995,-321.45 460.068,-340.781 480.031,-355.583"/>
<polygon fill="black" stroke="black" points="478.053,-358.473 488.171,-361.618 482.222,-352.85 478.053,-358.473"/>
</g>
<!-- AS174&#45;&gt;AS6762 -->
<g id="edge21" class="edge"><title>AS174&#45;&gt;AS6762</title>
<path fill="none" stroke="black" d="M426.283,-138.882C438.294,-135.701 452.295,-131.994 465.322,-128.544"/>
<polygon fill="black" stroke="black" points="466.274,-131.913 475.045,-125.97 464.482,-125.146 466.274,-131.913"/>
</g>
<!-- AS174&#45;&gt;AS3491 -->
<g id="edge20" class="edge"><title>AS174&#45;&gt;AS3491</title>
<path fill="none" stroke="black" stroke-width="2" d="M411.19,-131.003C425.274,-117.613 447.279,-99.2534 470.271,-90 505.159,-75.9594 547.632,-71.75 579.825,-70.8924"/>
<polygon fill="black" stroke="black" stroke-width="2" points="579.954,-74.3908 589.894,-70.7235 579.837,-67.3918 579.954,-74.3908"/>
</g>
<!-- AS8218&#45;&gt;AS6461 -->
<g id="edge22" class="edge"><title>AS8218&#45;&gt;AS6461</title>
<path fill="none" stroke="black" stroke-width="2" d="M549.83,-19.3396C559.384,-19.1774 569.733,-19.0018 579.696,-18.8327"/>
<polygon fill="black" stroke="black" stroke-width="2" points="579.949,-22.329 589.888,-18.6597 579.83,-15.33 579.949,-22.329"/>
</g>
<!-- AS2914&#45;&gt;AS6762 -->
<g id="edge38" class="edge"><title>AS2914&#45;&gt;AS6762</title>
<path fill="none" stroke="black" d="M417.524,-186.182C423.056,-182.308 428.937,-178.074 434.271,-174 450.823,-161.358 453.719,-156.642 470.271,-144 473.021,-141.899 475.917,-139.756 478.836,-137.642"/>
<polygon fill="black" stroke="black" points="480.901,-140.468 487.018,-131.818 476.842,-134.765 480.901,-140.468"/>
</g>
<!-- AS3257&#45;&gt;AS2497 -->
<g id="edge30" class="edge"><title>AS3257&#45;&gt;AS2497</title>
<path fill="none" stroke="black" stroke-width="2" d="M419.099,-376.297C435.809,-386.474 458.464,-400.272 476.841,-411.464"/>
<polygon fill="black" stroke="black" stroke-width="2" points="475.112,-414.509 485.473,-416.721 478.753,-408.531 475.112,-414.509"/>
</g>
<!-- AS1299&#45;&gt;AS7018 -->
<g id="edge37" class="edge"><title>AS1299&#45;&gt;AS7018</title>
<path fill="none" stroke="black" stroke-width="2" d="M549.178,-173.922C559.057,-174.677 569.823,-175.499 580.153,-176.288"/>
<polygon fill="black" stroke="black" stroke-width="2" points="580.051,-179.79 590.289,-177.062 580.584,-172.81 580.051,-179.79"/>
</g>
<!-- AS3356&#45;&gt;AS6762 -->
<g id="edge36" class="edge"><title>AS3356&#45;&gt;AS6762</title>
<path fill="none" stroke="black" d="M417.649,-408.254C423.986,-402.926 430.262,-396.382 434.271,-389 486.802,-292.288 412.423,-237.629 470.271,-144 471.804,-141.519 473.658,-139.206 475.715,-137.062"/>
<polygon fill="black" stroke="black" points="478.086,-139.639 483.316,-130.425 473.482,-134.366 478.086,-139.639"/>
</g>
<!-- AS3356&#45;&gt;AS6453 -->
<g id="edge34" class="edge"><title>AS3356&#45;&gt;AS6453</title>
<path fill="none" stroke="black" d="M408.208,-440.243C421.495,-456.842 444.114,-480.872 470.271,-491 503.135,-503.725 519.307,-509.068 549.564,-491 592.645,-465.274 613.675,-407.132 622.777,-372.172"/>
<polygon fill="black" stroke="black" points="626.257,-372.673 625.23,-362.128 619.457,-371.012 626.257,-372.673"/>
</g>
<!-- AS3356&#45;&gt;AS1239 -->
<g id="edge33" class="edge"><title>AS3356&#45;&gt;AS1239</title>
<path fill="none" stroke="black" d="M417.167,-437.92C449.32,-458.168 510.278,-488.516 549.564,-458 600.642,-418.325 547.404,-369.22 585.564,-317 587.782,-313.965 590.453,-311.194 593.368,-308.682"/>
<polygon fill="black" stroke="black" points="595.563,-311.412 601.502,-302.638 591.388,-305.793 595.563,-311.412"/>
</g>
<!-- AS3356&#45;&gt;AS2497 -->
<g id="edge31" class="edge"><title>AS3356&#45;&gt;AS2497</title>
<path fill="none" stroke="black" stroke-width="3" d="M433.98,-425.708C442.47,-426.308 451.574,-426.951 460.408,-427.575"/>
<polygon fill="black" stroke="black" stroke-width="3" points="460.379,-431.081 470.601,-428.294 460.873,-424.099 460.379,-431.081"/>
</g>
<!-- AS3356&#45;&gt;AS1273 -->
<g id="edge35" class="edge"><title>AS3356&#45;&gt;AS1273</title>
<path fill="none" stroke="black" d="M424.8,-411.154C438.676,-405.52 455.453,-398.708 470.362,-392.654"/>
<polygon fill="black" stroke="black" points="471.892,-395.811 479.841,-388.806 469.259,-389.325 471.892,-395.811"/>
</g>
<!-- AS3549 -->
<g id="node22" class="node"><title>AS3549</title>
<g id="a_node22"><a xlink:href="/asn/3549" xlink:title="AS3549 ~ Level 3 Parent, LLC [US]">
<ellipse fill="#ffffff" stroke="black" cx="509.918" cy="-561" rx="39.7935" ry="18"/>
<text text-anchor="middle" x="509.918" y="-557.3" font-family="Times,serif" font-size="14.00" fill="#2c94b3">AS3549</text>
</a>
</g>
</g>
<!-- AS3356&#45;&gt;AS3549 -->
<g id="edge32" class="edge"><title>AS3356&#45;&gt;AS3549</title>
<path fill="none" stroke="black" stroke-width="3" d="M405.971,-440.568C419.324,-462.498 443.985,-500.578 470.271,-529 473.417,-532.401 476.924,-535.771 480.506,-538.975"/>
<polygon fill="black" stroke="black" stroke-width="3" points="478.477,-541.845 488.357,-545.672 483.02,-536.519 478.477,-541.845"/>
</g>
</g>
</svg>
