<?xml version="1.0" encoding="UTF-8" standalone="no"?>
<!DOCTYPE svg PUBLIC "-//W3C//DTD SVG 1.1//EN"
 "http://www.w3.org/Graphics/SVG/1.1/DTD/svg11.dtd">
<!-- Generated by graphviz version 2.38.0 (20140413.2041)
 -->
<!-- Title: AS8447 IPv4 Upstream Graph Pages: 1 -->
<svg width="548pt" height="587pt"
 viewBox="0.00 0.00 548.46 587.00" xmlns="http://www.w3.org/2000/svg" xmlns:xlink="http://www.w3.org/1999/xlink">
<g id="graph0" class="graph" transform="scale(1 1) rotate(0) translate(4 583)">
<title>AS8447 IPv4 Upstream Graph</title>
<polygon fill="white" stroke="none" points="-4,4 -4,-583 544.465,-583 544.465,4 -4,4"/>
<!-- AS8447 -->
<g id="node1" class="node"><title>AS8447</title>
<g id="a_node1"><a xlink:href="/asn/8447" xlink:title="AS8447 ~ A1 Telekom Austria AG [AT]">
<ellipse fill="#ffffff" stroke="black" cx="39.6465" cy="-224" rx="39.7935" ry="18"/>
<text text-anchor="middle" x="39.6465" y="-220.3" font-family="Times,serif" font-size="14.00" fill="#880000">AS8447</text>
</a>
</g>
</g>
<!-- AS1299 -->
<g id="node2" class="node"><title>AS1299</title>
<g id="a_node2"><a xlink:href="/asn/1299" xlink:title="AS1299 ~ Telia Carrier [EU]">
<ellipse fill="#ffffff" stroke="black" cx="154.939" cy="-247" rx="39.7935" ry="18"/>
<text text-anchor="middle" x="154.939" y="-243.3" font-family="Times,serif" font-size="14.00" fill="#2c94b3">AS1299</text>
</a>
</g>
</g>
<!-- AS8447&#45;&gt;AS1299 -->
<g id="edge1" class="edge"><title>AS8447&#45;&gt;AS1299</title>
<path fill="none" stroke="black" stroke-width="3.68182" d="M76.1822,-231.214C86.411,-233.291 97.7114,-235.585 108.454,-237.766"/>
<polygon fill="black" stroke="black" stroke-width="3.68182" points="108.033,-241.252 118.53,-239.811 109.426,-234.392 108.033,-241.252"/>
</g>
<!-- AS3320 -->
<g id="node3" class="node"><title>AS3320</title>
<g id="a_node3"><a xlink:href="/asn/3320" xlink:title="AS3320 ~ DTAG [DE]">
<ellipse fill="#ffffff" stroke="black" cx="385.525" cy="-499" rx="39.7935" ry="18"/>
<text text-anchor="middle" x="385.525" y="-495.3" font-family="Times,serif" font-size="14.00" fill="#2c94b3">AS3320</text>
</a>
</g>
</g>
<!-- AS8447&#45;&gt;AS3320 -->
<g id="edge2" class="edge"><title>AS8447&#45;&gt;AS3320</title>
<path fill="none" stroke="black" stroke-width="1.63636" d="M55.6698,-240.762C70.2664,-256.684 93.3765,-280.954 115.293,-300 197.202,-371.182 302.836,-444.381 354.025,-478.795"/>
<polygon fill="black" stroke="black" stroke-width="1.63636" points="352.091,-481.713 362.347,-484.371 355.987,-475.897 352.091,-481.713"/>
</g>
<!-- AS3356 -->
<g id="node4" class="node"><title>AS3356</title>
<g id="a_node4"><a xlink:href="/asn/3356" xlink:title="AS3356 ~ Level 3 Parent, LLC [US]">
<ellipse fill="#ffffff" stroke="black" cx="385.525" cy="-331" rx="39.7935" ry="18"/>
<text text-anchor="middle" x="385.525" y="-327.3" font-family="Times,serif" font-size="14.00" fill="#2c94b3">AS3356</text>
</a>
</g>
</g>
<!-- AS8447&#45;&gt;AS3356 -->
<g id="edge3" class="edge"><title>AS8447&#45;&gt;AS3356</title>
<path fill="none" stroke="black" stroke-width="4.5" d="M59.7311,-239.791C74.1519,-250.945 94.8871,-265.387 115.293,-274 188.9,-305.069 281.223,-319.87 336.404,-326.399"/>
<polygon fill="black" stroke="black" stroke-width="4.5" points="336.213,-330.34 346.595,-327.56 337.105,-322.516 336.213,-330.34"/>
</g>
<!-- AS6453 -->
<g id="node5" class="node"><title>AS6453</title>
<g id="a_node5"><a xlink:href="/asn/6453" xlink:title="AS6453 ~ TATA COMMUNICATIONS (AMERICA) INC [US]">
<ellipse fill="#ffffff" stroke="black" cx="270.232" cy="-201" rx="39.7935" ry="18"/>
<text text-anchor="middle" x="270.232" y="-197.3" font-family="Times,serif" font-size="14.00" fill="#2c94b3">AS6453</text>
</a>
</g>
</g>
<!-- AS8447&#45;&gt;AS6453 -->
<g id="edge4" class="edge"><title>AS8447&#45;&gt;AS6453</title>
<path fill="none" stroke="black" stroke-width="4.09091" d="M78.6494,-220.176C117.704,-216.247 178.631,-210.116 221.047,-205.848"/>
<polygon fill="black" stroke="black" stroke-width="4.09091" points="221.547,-209.396 231.139,-204.833 220.83,-202.273 221.547,-209.396"/>
</g>
<!-- AS6461 -->
<g id="node6" class="node"><title>AS6461</title>
<g id="a_node6"><a xlink:href="/asn/6461" xlink:title="AS6461 ~ Zayo Bandwidth [US]">
<ellipse fill="#ffffff" stroke="black" cx="154.939" cy="-18" rx="39.7935" ry="18"/>
<text text-anchor="middle" x="154.939" y="-14.3" font-family="Times,serif" font-size="14.00" fill="#2c94b3">AS6461</text>
</a>
</g>
</g>
<!-- AS8447&#45;&gt;AS6461 -->
<g id="edge5" class="edge"><title>AS8447&#45;&gt;AS6461</title>
<path fill="none" stroke="black" stroke-width="0.409091" d="M45.2939,-206.029C54.5232,-172.766 77.5885,-100.406 115.293,-50 118.008,-46.3706 121.216,-42.8946 124.604,-39.6597"/>
<polygon fill="black" stroke="black" stroke-width="0.409091" points="126.985,-42.2263 132.188,-32.9967 122.365,-36.9675 126.985,-42.2263"/>
</g>
<!-- AS6762 -->
<g id="node7" class="node"><title>AS6762</title>
<g id="a_node7"><a xlink:href="/asn/6762" xlink:title="AS6762 ~ TELECOM ITALIA SPARKLE S.p.A. [IT]">
<ellipse fill="#ffffff" stroke="black" cx="385.525" cy="-87" rx="39.7935" ry="18"/>
<text text-anchor="middle" x="385.525" y="-83.3" font-family="Times,serif" font-size="14.00" fill="#2c94b3">AS6762</text>
</a>
</g>
</g>
<!-- AS8447&#45;&gt;AS6762 -->
<g id="edge6" class="edge"><title>AS8447&#45;&gt;AS6762</title>
<path fill="none" stroke="black" stroke-width="0.409091" d="M69.9654,-212.319C131.888,-187.65 276.007,-130.233 345.576,-102.517"/>
<polygon fill="black" stroke="black" stroke-width="0.409091" points="347.286,-105.604 355.281,-98.651 344.695,-99.1006 347.286,-105.604"/>
</g>
<!-- AS1299&#45;&gt;AS6453 -->
<g id="edge14" class="edge"><title>AS1299&#45;&gt;AS6453</title>
<path fill="none" stroke="black" d="M178.322,-232.408C191.566,-225.922 208.813,-218.55 224.72,-212.463"/>
<polygon fill="black" stroke="black" points="226.253,-215.627 234.403,-208.858 223.811,-209.067 226.253,-215.627"/>
</g>
<!-- AS2914 -->
<g id="node8" class="node"><title>AS2914</title>
<g id="a_node8"><a xlink:href="/asn/2914" xlink:title="AS2914 ~ NTT America, Inc. [US]">
<ellipse fill="#ffffff" stroke="black" cx="500.818" cy="-453" rx="39.7935" ry="18"/>
<text text-anchor="middle" x="500.818" y="-449.3" font-family="Times,serif" font-size="14.00" fill="#2c94b3">AS2914</text>
</a>
</g>
</g>
<!-- AS1299&#45;&gt;AS2914 -->
<g id="edge7" class="edge"><title>AS1299&#45;&gt;AS2914</title>
<path fill="none" stroke="black" d="M168.279,-264.298C182.043,-282.792 205.671,-312.251 230.586,-333 299.214,-390.153 399.397,-425.151 456.216,-441.639"/>
<polygon fill="black" stroke="black" points="455.389,-445.043 465.965,-444.409 457.303,-438.309 455.389,-445.043"/>
</g>
<!-- AS3257 -->
<g id="node9" class="node"><title>AS3257</title>
<g id="a_node9"><a xlink:href="/asn/3257" xlink:title="AS3257 ~ GTT [DE]">
<ellipse fill="#ffffff" stroke="black" cx="500.818" cy="-75" rx="39.7935" ry="18"/>
<text text-anchor="middle" x="500.818" y="-71.3" font-family="Times,serif" font-size="14.00" fill="#2c94b3">AS3257</text>
</a>
</g>
</g>
<!-- AS1299&#45;&gt;AS3257 -->
<g id="edge8" class="edge"><title>AS1299&#45;&gt;AS3257</title>
<path fill="none" stroke="black" d="M158.482,-228.812C164.399,-193.572 182.444,-115.87 230.586,-75 297.243,-18.4121 339.231,-29.8924 425.172,-46 438.219,-48.4453 451.917,-53.1005 463.966,-57.9769"/>
<polygon fill="black" stroke="black" points="462.658,-61.2238 473.231,-61.8972 465.385,-54.7771 462.658,-61.2238"/>
</g>
<!-- AS1239 -->
<g id="node10" class="node"><title>AS1239</title>
<g id="a_node10"><a xlink:href="/asn/1239" xlink:title="AS1239 ~ Sprint [US]">
<ellipse fill="#ffffff" stroke="black" cx="500.818" cy="-561" rx="39.7935" ry="18"/>
<text text-anchor="middle" x="500.818" y="-557.3" font-family="Times,serif" font-size="14.00" fill="#2c94b3">AS1239</text>
</a>
</g>
</g>
<!-- AS1299&#45;&gt;AS1239 -->
<g id="edge9" class="edge"><title>AS1299&#45;&gt;AS1239</title>
<path fill="none" stroke="black" d="M162.409,-265.016C181.564,-315.553 243.163,-459.31 345.879,-526 377.304,-546.403 419.064,-554.996 451.16,-558.574"/>
<polygon fill="black" stroke="black" points="450.921,-562.068 461.216,-559.568 451.609,-555.101 450.921,-562.068"/>
</g>
<!-- AS7018 -->
<g id="node11" class="node"><title>AS7018</title>
<g id="a_node11"><a xlink:href="/asn/7018" xlink:title="AS7018 ~ AT&amp;T Services, Inc. [US]">
<ellipse fill="#ffffff" stroke="black" cx="500.818" cy="-399" rx="39.7935" ry="18"/>
<text text-anchor="middle" x="500.818" y="-395.3" font-family="Times,serif" font-size="14.00" fill="#2c94b3">AS7018</text>
</a>
</g>
</g>
<!-- AS1299&#45;&gt;AS7018 -->
<g id="edge10" class="edge"><title>AS1299&#45;&gt;AS7018</title>
<path fill="none" stroke="black" d="M177.166,-261.991C211.263,-285.461 281.003,-330.984 345.879,-358 380.861,-372.567 422.492,-383.286 453.636,-390.103"/>
<polygon fill="black" stroke="black" points="453.26,-393.601 463.771,-392.265 454.721,-386.755 453.26,-393.601"/>
</g>
<!-- AS3491 -->
<g id="node12" class="node"><title>AS3491</title>
<g id="a_node12"><a xlink:href="/asn/3491" xlink:title="AS3491 ~ PCCW Global, Inc. [US]">
<ellipse fill="#ffffff" stroke="black" cx="500.818" cy="-183" rx="39.7935" ry="18"/>
<text text-anchor="middle" x="500.818" y="-179.3" font-family="Times,serif" font-size="14.00" fill="#2c94b3">AS3491</text>
</a>
</g>
</g>
<!-- AS1299&#45;&gt;AS3491 -->
<g id="edge11" class="edge"><title>AS1299&#45;&gt;AS3491</title>
<path fill="none" stroke="black" d="M193.831,-243.466C246.343,-238.064 343.958,-226.195 425.172,-206 436.154,-203.269 447.909,-199.874 458.765,-196.539"/>
<polygon fill="black" stroke="black" points="459.937,-199.84 468.435,-193.513 457.846,-193.159 459.937,-199.84"/>
</g>
<!-- AS2497 -->
<g id="node13" class="node"><title>AS2497</title>
<g id="a_node13"><a xlink:href="/asn/2497" xlink:title="AS2497 ~ Internet Initiative Japan Inc. [JP]">
<ellipse fill="#ffffff" stroke="black" cx="500.818" cy="-237" rx="39.7935" ry="18"/>
<text text-anchor="middle" x="500.818" y="-233.3" font-family="Times,serif" font-size="14.00" fill="#2c94b3">AS2497</text>
</a>
</g>
</g>
<!-- AS1299&#45;&gt;AS2497 -->
<g id="edge12" class="edge"><title>AS1299&#45;&gt;AS2497</title>
<path fill="none" stroke="black" d="M190.688,-254.901C203.195,-257.376 217.457,-259.779 230.586,-261 316.697,-269.005 339.733,-274.397 425.172,-261 437.03,-259.141 449.574,-255.715 460.926,-252.023"/>
<polygon fill="black" stroke="black" points="462.212,-255.282 470.547,-248.742 459.953,-248.657 462.212,-255.282"/>
</g>
<!-- AS174 -->
<g id="node14" class="node"><title>AS174</title>
<g id="a_node14"><a xlink:href="/asn/174" xlink:title="AS174 ~ Cogent Communications [US]">
<ellipse fill="#ffffff" stroke="black" cx="500.818" cy="-129" rx="35.194" ry="18"/>
<text text-anchor="middle" x="500.818" y="-125.3" font-family="Times,serif" font-size="14.00" fill="#2c94b3">AS174</text>
</a>
</g>
</g>
<!-- AS1299&#45;&gt;AS174 -->
<g id="edge13" class="edge"><title>AS1299&#45;&gt;AS174</title>
<path fill="none" stroke="black" d="M166.555,-229.697C191.803,-190.43 259.808,-95.2592 345.879,-60 378.49,-46.6408 393.155,-45.2742 425.172,-60 447.508,-70.2732 442.95,-85.4952 461.172,-102 463.799,-104.38 466.644,-106.727 469.557,-108.985"/>
<polygon fill="black" stroke="black" points="467.695,-111.96 477.825,-115.064 471.841,-106.32 467.695,-111.96"/>
</g>
<!-- AS3320&#45;&gt;AS2914 -->
<g id="edge17" class="edge"><title>AS3320&#45;&gt;AS2914</title>
<path fill="none" stroke="black" d="M415.701,-487.154C429.577,-481.52 446.354,-474.708 461.263,-468.654"/>
<polygon fill="black" stroke="black" points="462.793,-471.811 470.741,-464.806 460.159,-465.325 462.793,-471.811"/>
</g>
<!-- AS3320&#45;&gt;AS1239 -->
<g id="edge16" class="edge"><title>AS3320&#45;&gt;AS1239</title>
<path fill="none" stroke="black" d="M411.669,-512.76C427.51,-521.429 448.17,-532.735 465.507,-542.223"/>
<polygon fill="black" stroke="black" points="464.293,-545.548 474.745,-547.279 467.653,-539.408 464.293,-545.548"/>
</g>
<!-- AS701 -->
<g id="node15" class="node"><title>AS701</title>
<g id="a_node15"><a xlink:href="/asn/701" xlink:title="AS701 ~ UUNET [US]">
<ellipse fill="#ffffff" stroke="black" cx="500.818" cy="-507" rx="35.194" ry="18"/>
<text text-anchor="middle" x="500.818" y="-503.3" font-family="Times,serif" font-size="14.00" fill="#2c94b3">AS701</text>
</a>
</g>
</g>
<!-- AS3320&#45;&gt;AS701 -->
<g id="edge15" class="edge"><title>AS3320&#45;&gt;AS701</title>
<path fill="none" stroke="black" d="M424.881,-501.708C434.696,-502.401 445.331,-503.152 455.422,-503.865"/>
<polygon fill="black" stroke="black" points="455.461,-507.376 465.683,-504.59 455.954,-500.394 455.461,-507.376"/>
</g>
<!-- AS3356&#45;&gt;AS6453 -->
<g id="edge18" class="edge"><title>AS3356&#45;&gt;AS6453</title>
<path fill="none" stroke="black" d="M366.232,-315.134C344.888,-292.834 309.844,-252.598 288.811,-226.22"/>
<polygon fill="black" stroke="black" points="291.434,-223.893 282.51,-218.184 285.926,-228.213 291.434,-223.893"/>
</g>
<!-- AS3356&#45;&gt;AS2914 -->
<g id="edge19" class="edge"><title>AS3356&#45;&gt;AS2914</title>
<path fill="none" stroke="black" d="M397.845,-348.378C411.419,-368.444 435.564,-401.792 461.172,-426 463.551,-428.249 466.13,-430.454 468.789,-432.575"/>
<polygon fill="black" stroke="black" points="466.781,-435.444 476.882,-438.64 470.979,-429.843 466.781,-435.444"/>
</g>
<!-- AS3356&#45;&gt;AS3257 -->
<g id="edge25" class="edge"><title>AS3356&#45;&gt;AS3257</title>
<path fill="none" stroke="black" d="M388.488,-312.873C393.73,-271.671 411.234,-169.346 461.172,-102 462.909,-99.6578 464.91,-97.4447 467.07,-95.37"/>
<polygon fill="black" stroke="black" points="469.43,-97.9591 474.863,-88.8633 464.944,-92.5857 469.43,-97.9591"/>
</g>
<!-- AS3356&#45;&gt;AS1239 -->
<g id="edge20" class="edge"><title>AS3356&#45;&gt;AS1239</title>
<path fill="none" stroke="black" d="M389.396,-349.041C396.152,-386.782 416.012,-475.411 461.172,-534 462.952,-536.309 464.985,-538.499 467.166,-540.557"/>
<polygon fill="black" stroke="black" points="465.063,-543.359 475,-547.033 469.523,-537.964 465.063,-543.359"/>
</g>
<!-- AS3356&#45;&gt;AS7018 -->
<g id="edge21" class="edge"><title>AS3356&#45;&gt;AS7018</title>
<path fill="none" stroke="black" d="M410.275,-345.255C426.892,-355.229 449.288,-368.671 467.525,-379.617"/>
<polygon fill="black" stroke="black" points="465.724,-382.618 476.1,-384.764 469.327,-376.616 465.724,-382.618"/>
</g>
<!-- AS3356&#45;&gt;AS3491 -->
<g id="edge23" class="edge"><title>AS3356&#45;&gt;AS3491</title>
<path fill="none" stroke="black" d="M396.156,-313.494C412.451,-284.217 445.24,-226.867 461.172,-210 463.227,-207.824 465.483,-205.72 467.841,-203.71"/>
<polygon fill="black" stroke="black" points="470.365,-206.18 476.107,-197.276 466.065,-200.656 470.365,-206.18"/>
</g>
<!-- AS3356&#45;&gt;AS2497 -->
<g id="edge22" class="edge"><title>AS3356&#45;&gt;AS2497</title>
<path fill="none" stroke="black" d="M406.046,-315.346C412.249,-310.237 419.078,-304.469 425.172,-299 441.779,-284.094 443.969,-278.214 461.172,-264 463.696,-261.915 466.374,-259.822 469.098,-257.775"/>
<polygon fill="black" stroke="black" points="471.258,-260.532 477.293,-251.824 467.144,-254.868 471.258,-260.532"/>
</g>
<!-- AS3356&#45;&gt;AS174 -->
<g id="edge26" class="edge"><title>AS3356&#45;&gt;AS174</title>
<path fill="none" stroke="black" d="M390.693,-312.887C399.193,-279.052 421.192,-205.229 461.172,-156 463.287,-153.395 465.717,-150.932 468.305,-148.632"/>
<polygon fill="black" stroke="black" points="470.714,-151.189 476.391,-142.244 466.375,-145.696 470.714,-151.189"/>
</g>
<!-- AS3549 -->
<g id="node16" class="node"><title>AS3549</title>
<g id="a_node16"><a xlink:href="/asn/3549" xlink:title="AS3549 ~ Level 3 Parent, LLC [US]">
<ellipse fill="#ffffff" stroke="black" cx="500.818" cy="-291" rx="39.7935" ry="18"/>
<text text-anchor="middle" x="500.818" y="-287.3" font-family="Times,serif" font-size="14.00" fill="#2c94b3">AS3549</text>
</a>
</g>
</g>
<!-- AS3356&#45;&gt;AS3549 -->
<g id="edge24" class="edge"><title>AS3356&#45;&gt;AS3549</title>
<path fill="none" stroke="black" stroke-width="2" d="M417.483,-320.07C430.347,-315.528 445.453,-310.195 459.189,-305.345"/>
<polygon fill="black" stroke="black" stroke-width="2" points="460.634,-308.547 468.898,-301.917 458.303,-301.946 460.634,-308.547"/>
</g>
<!-- AS209 -->
<g id="node17" class="node"><title>AS209</title>
<g id="a_node17"><a xlink:href="/asn/209" xlink:title="AS209 ~ CenturyLink Communications, LLC [US]">
<ellipse fill="#ffffff" stroke="black" cx="500.818" cy="-345" rx="35.194" ry="18"/>
<text text-anchor="middle" x="500.818" y="-341.3" font-family="Times,serif" font-size="14.00" fill="#2c94b3">AS209</text>
</a>
</g>
</g>
<!-- AS3356&#45;&gt;AS209 -->
<g id="edge27" class="edge"><title>AS3356&#45;&gt;AS209</title>
<path fill="none" stroke="black" d="M423.936,-335.623C434.388,-336.915 445.832,-338.329 456.591,-339.658"/>
<polygon fill="black" stroke="black" points="456.287,-343.147 466.641,-340.9 457.146,-336.2 456.287,-343.147"/>
</g>
<!-- AS6453&#45;&gt;AS1299 -->
<g id="edge31" class="edge"><title>AS6453&#45;&gt;AS1299</title>
<path fill="none" stroke="black" d="M246.752,-215.64C233.537,-222.107 216.36,-229.447 200.508,-235.516"/>
<polygon fill="black" stroke="black" points="199.005,-232.341 190.856,-239.111 201.448,-238.9 199.005,-232.341"/>
</g>
<!-- AS6453&#45;&gt;AS3320 -->
<g id="edge35" class="edge"><title>AS6453&#45;&gt;AS3320</title>
<path fill="none" stroke="black" d="M275.846,-218.866C286.18,-257.864 312.891,-353.189 345.879,-429 352.386,-443.955 361.06,-459.926 368.542,-472.831"/>
<polygon fill="black" stroke="black" points="365.635,-474.793 373.73,-481.628 371.664,-471.236 365.635,-474.793"/>
</g>
<!-- AS6453&#45;&gt;AS3356 -->
<g id="edge32" class="edge"><title>AS6453&#45;&gt;AS3356</title>
<path fill="none" stroke="black" stroke-width="2" d="M289.435,-216.772C310.77,-239.051 345.88,-279.361 366.943,-305.775"/>
<polygon fill="black" stroke="black" stroke-width="2" points="364.328,-308.113 373.253,-313.823 369.837,-303.794 364.328,-308.113"/>
</g>
<!-- AS6453&#45;&gt;AS6762 -->
<g id="edge29" class="edge"><title>AS6453&#45;&gt;AS6762</title>
<path fill="none" stroke="black" d="M285.45,-184.025C300.006,-166.979 323.594,-140.264 345.879,-119 349.396,-115.644 353.217,-112.23 357.041,-108.943"/>
<polygon fill="black" stroke="black" points="359.389,-111.542 364.801,-102.434 354.89,-106.179 359.389,-111.542"/>
</g>
<!-- AS6453&#45;&gt;AS2914 -->
<g id="edge28" class="edge"><title>AS6453&#45;&gt;AS2914</title>
<path fill="none" stroke="black" d="M276.071,-218.905C285.262,-250.193 307.803,-315.526 345.879,-358 378.166,-394.017 427.324,-421.082 461.366,-436.931"/>
<polygon fill="black" stroke="black" points="459.988,-440.149 470.54,-441.101 462.885,-433.777 459.988,-440.149"/>
</g>
<!-- AS6453&#45;&gt;AS3257 -->
<g id="edge30" class="edge"><title>AS6453&#45;&gt;AS3257</title>
<path fill="none" stroke="black" d="M291.528,-185.716C306.202,-175.022 326.732,-160.78 345.879,-150 379.604,-131.012 390.386,-130.968 425.172,-114 438.367,-107.564 452.694,-100.177 465.236,-93.5752"/>
<polygon fill="black" stroke="black" points="467.229,-96.4802 474.43,-88.7086 463.955,-90.2934 467.229,-96.4802"/>
</g>
<!-- AS6453&#45;&gt;AS3491 -->
<g id="edge34" class="edge"><title>AS6453&#45;&gt;AS3491</title>
<path fill="none" stroke="black" d="M309.493,-197.987C348.474,-194.918 409.052,-190.147 451.362,-186.816"/>
<polygon fill="black" stroke="black" points="451.739,-190.297 461.433,-186.023 451.189,-183.319 451.739,-190.297"/>
</g>
<!-- AS6453&#45;&gt;AS174 -->
<g id="edge33" class="edge"><title>AS6453&#45;&gt;AS174</title>
<path fill="none" stroke="black" d="M303.498,-190.837C344.916,-177.791 416.708,-155.178 461.048,-141.212"/>
<polygon fill="black" stroke="black" points="462.125,-144.542 470.612,-138.199 460.022,-137.865 462.125,-144.542"/>
</g>
</g>
</svg>
