<?xml version="1.0" encoding="UTF-8" standalone="no"?>
<!DOCTYPE svg PUBLIC "-//W3C//DTD SVG 1.1//EN"
 "http://www.w3.org/Graphics/SVG/1.1/DTD/svg11.dtd">
<!-- Generated by graphviz version 2.38.0 (20140413.2041)
 -->
<!-- Title: AS8447 IPv4 Upstream Graph Pages: 1 -->
<svg width="548pt" height="650pt"
 viewBox="0.00 0.00 548.46 650.00" xmlns="http://www.w3.org/2000/svg" xmlns:xlink="http://www.w3.org/1999/xlink">
<g id="graph0" class="graph" transform="scale(1 1) rotate(0) translate(4 646)">
<title>AS8447 IPv4 Upstream Graph</title>
<polygon fill="white" stroke="none" points="-4,4 -4,-646 544.465,-646 544.465,4 -4,4"/>
<!-- AS8447 -->
<g id="node1" class="node"><title>AS8447</title>
<g id="a_node1"><a xlink:href="/asn/8447" xlink:title="AS8447 ~ A1 Telekom Austria AG [AT]">
<ellipse fill="#ffffff" stroke="black" cx="39.6465" cy="-175" rx="39.7935" ry="18"/>
<text text-anchor="middle" x="39.6465" y="-171.3" font-family="Times,serif" font-size="14.00" fill="#880000">AS8447</text>
</a>
</g>
</g>
<!-- AS1299 -->
<g id="node2" class="node"><title>AS1299</title>
<g id="a_node2"><a xlink:href="/asn/1299" xlink:title="AS1299 ~ Telia Carrier [EU]">
<ellipse fill="#ffffff" stroke="black" cx="154.939" cy="-354" rx="39.7935" ry="18"/>
<text text-anchor="middle" x="154.939" y="-350.3" font-family="Times,serif" font-size="14.00" fill="#2c94b3">AS1299</text>
</a>
</g>
</g>
<!-- AS8447&#45;&gt;AS1299 -->
<g id="edge1" class="edge"><title>AS8447&#45;&gt;AS1299</title>
<path fill="none" stroke="black" stroke-width="4.09091" d="M51.7158,-192.489C71.734,-224.117 114.045,-290.967 137.469,-327.977"/>
<polygon fill="black" stroke="black" stroke-width="4.09091" points="134.619,-330.168 142.992,-336.703 140.669,-326.339 134.619,-330.168"/>
</g>
<!-- AS3320 -->
<g id="node3" class="node"><title>AS3320</title>
<g id="a_node3"><a xlink:href="/asn/3320" xlink:title="AS3320 ~ DTAG [DE]">
<ellipse fill="#ffffff" stroke="black" cx="385.525" cy="-522" rx="39.7935" ry="18"/>
<text text-anchor="middle" x="385.525" y="-518.3" font-family="Times,serif" font-size="14.00" fill="#2c94b3">AS3320</text>
</a>
</g>
</g>
<!-- AS8447&#45;&gt;AS3320 -->
<g id="edge2" class="edge"><title>AS8447&#45;&gt;AS3320</title>
<path fill="none" stroke="black" stroke-width="2.45455" d="M42.7748,-193.196C48.1865,-232.067 65.7425,-324.276 115.293,-381 176.819,-451.433 282.211,-491.927 341.232,-510.175"/>
<polygon fill="black" stroke="black" stroke-width="2.45455" points="340.407,-513.582 350.992,-513.12 342.429,-506.881 340.407,-513.582"/>
</g>
<!-- AS3356 -->
<g id="node4" class="node"><title>AS3356</title>
<g id="a_node4"><a xlink:href="/asn/3356" xlink:title="AS3356 ~ Level 3 Parent, LLC [US]">
<ellipse fill="#ffffff" stroke="black" cx="385.525" cy="-354" rx="39.7935" ry="18"/>
<text text-anchor="middle" x="385.525" y="-350.3" font-family="Times,serif" font-size="14.00" fill="#2c94b3">AS3356</text>
</a>
</g>
</g>
<!-- AS8447&#45;&gt;AS3356 -->
<g id="edge3" class="edge"><title>AS8447&#45;&gt;AS3356</title>
<path fill="none" stroke="black" stroke-width="4.5" d="M72.6794,-185.208C104.374,-195.784 153.905,-213.604 194.586,-234 254.305,-263.94 319.132,-307.53 355.503,-333.105"/>
<polygon fill="black" stroke="black" stroke-width="4.5" points="353.247,-336.332 363.685,-338.892 357.795,-329.902 353.247,-336.332"/>
</g>
<!-- AS6453 -->
<g id="node5" class="node"><title>AS6453</title>
<g id="a_node5"><a xlink:href="/asn/6453" xlink:title="AS6453 ~ TATA COMMUNICATIONS (AMERICA) INC [US]">
<ellipse fill="#ffffff" stroke="black" cx="270.232" cy="-354" rx="39.7935" ry="18"/>
<text text-anchor="middle" x="270.232" y="-350.3" font-family="Times,serif" font-size="14.00" fill="#2c94b3">AS6453</text>
</a>
</g>
</g>
<!-- AS8447&#45;&gt;AS6453 -->
<g id="edge4" class="edge"><title>AS8447&#45;&gt;AS6453</title>
<path fill="none" stroke="black" stroke-width="3.68182" d="M60.5321,-190.572C101.417,-222.588 194.981,-295.856 241.674,-332.419"/>
<polygon fill="black" stroke="black" stroke-width="3.68182" points="239.524,-335.182 249.556,-338.592 243.84,-329.67 239.524,-335.182"/>
</g>
<!-- AS6461 -->
<g id="node6" class="node"><title>AS6461</title>
<g id="a_node6"><a xlink:href="/asn/6461" xlink:title="AS6461 ~ Zayo Bandwidth [US]">
<ellipse fill="#ffffff" stroke="black" cx="154.939" cy="-72" rx="39.7935" ry="18"/>
<text text-anchor="middle" x="154.939" y="-68.3" font-family="Times,serif" font-size="14.00" fill="#2c94b3">AS6461</text>
</a>
</g>
</g>
<!-- AS8447&#45;&gt;AS6461 -->
<g id="edge5" class="edge"><title>AS8447&#45;&gt;AS6461</title>
<path fill="none" stroke="black" stroke-width="0.409091" d="M57.2357,-158.591C72.1621,-143.979 94.8283,-122.167 115.293,-104 118.929,-100.772 122.816,-97.4311 126.673,-94.1792"/>
<polygon fill="black" stroke="black" stroke-width="0.409091" points="129.013,-96.785 134.455,-87.6945 124.532,-91.4074 129.013,-96.785"/>
</g>
<!-- AS6762 -->
<g id="node7" class="node"><title>AS6762</title>
<g id="a_node7"><a xlink:href="/asn/6762" xlink:title="AS6762 ~ TELECOM ITALIA SPARKLE S.p.A. [IT]">
<ellipse fill="#ffffff" stroke="black" cx="154.939" cy="-18" rx="39.7935" ry="18"/>
<text text-anchor="middle" x="154.939" y="-14.3" font-family="Times,serif" font-size="14.00" fill="#2c94b3">AS6762</text>
</a>
</g>
</g>
<!-- AS8447&#45;&gt;AS6762 -->
<g id="edge6" class="edge"><title>AS8447&#45;&gt;AS6762</title>
<path fill="none" stroke="black" stroke-width="0.409091" d="M47.9246,-157.012C59.3439,-130.348 83.4913,-79.7512 115.293,-45 117.313,-42.7923 119.545,-40.6645 121.886,-38.6388"/>
<polygon fill="black" stroke="black" stroke-width="0.409091" points="124.414,-41.1038 130.121,-32.177 120.093,-35.5967 124.414,-41.1038"/>
</g>
<!-- AS1299&#45;&gt;AS6453 -->
<g id="edge15" class="edge"><title>AS1299&#45;&gt;AS6453</title>
<path fill="none" stroke="black" d="M192.098,-347.659C201.908,-347.25 212.667,-347.148 222.953,-347.351"/>
<polygon fill="black" stroke="black" points="222.928,-350.852 233.029,-347.657 223.14,-343.855 222.928,-350.852"/>
</g>
<!-- AS2914 -->
<g id="node8" class="node"><title>AS2914</title>
<g id="a_node8"><a xlink:href="/asn/2914" xlink:title="AS2914 ~ NTT America, Inc. [US]">
<ellipse fill="#ffffff" stroke="black" cx="500.818" cy="-624" rx="39.7935" ry="18"/>
<text text-anchor="middle" x="500.818" y="-620.3" font-family="Times,serif" font-size="14.00" fill="#2c94b3">AS2914</text>
</a>
</g>
</g>
<!-- AS1299&#45;&gt;AS2914 -->
<g id="edge7" class="edge"><title>AS1299&#45;&gt;AS2914</title>
<path fill="none" stroke="black" d="M160.964,-371.92C170.305,-402.55 192.894,-465.575 230.586,-506 291.286,-571.1 394.243,-602.267 453.704,-615.52"/>
<polygon fill="black" stroke="black" points="453.058,-618.961 463.571,-617.643 454.531,-612.118 453.058,-618.961"/>
</g>
<!-- AS2497 -->
<g id="node9" class="node"><title>AS2497</title>
<g id="a_node9"><a xlink:href="/asn/2497" xlink:title="AS2497 ~ Internet Initiative Japan Inc. [JP]">
<ellipse fill="#ffffff" stroke="black" cx="500.818" cy="-462" rx="39.7935" ry="18"/>
<text text-anchor="middle" x="500.818" y="-458.3" font-family="Times,serif" font-size="14.00" fill="#2c94b3">AS2497</text>
</a>
</g>
</g>
<!-- AS1299&#45;&gt;AS2497 -->
<g id="edge8" class="edge"><title>AS1299&#45;&gt;AS2497</title>
<path fill="none" stroke="black" d="M175.399,-369.648C189.84,-380.519 210.439,-394.522 230.586,-403 304.34,-434.035 396.618,-449.7 451.75,-456.832"/>
<polygon fill="black" stroke="black" points="451.574,-460.337 461.931,-458.107 452.444,-453.391 451.574,-460.337"/>
</g>
<!-- AS209 -->
<g id="node10" class="node"><title>AS209</title>
<g id="a_node10"><a xlink:href="/asn/209" xlink:title="AS209 ~ CenturyLink Communications, LLC [US]">
<ellipse fill="#ffffff" stroke="black" cx="500.818" cy="-95" rx="35.194" ry="18"/>
<text text-anchor="middle" x="500.818" y="-91.3" font-family="Times,serif" font-size="14.00" fill="#2c94b3">AS209</text>
</a>
</g>
</g>
<!-- AS1299&#45;&gt;AS209 -->
<g id="edge9" class="edge"><title>AS1299&#45;&gt;AS209</title>
<path fill="none" stroke="black" d="M162.812,-336.263C173.715,-310.09 197.211,-260.897 230.586,-230 299.362,-166.332 403.811,-125.64 460.266,-106.961"/>
<polygon fill="black" stroke="black" points="461.467,-110.251 469.897,-103.835 459.305,-103.593 461.467,-110.251"/>
</g>
<!-- AS3257 -->
<g id="node11" class="node"><title>AS3257</title>
<g id="a_node11"><a xlink:href="/asn/3257" xlink:title="AS3257 ~ GTT [DE]">
<ellipse fill="#ffffff" stroke="black" cx="500.818" cy="-246" rx="39.7935" ry="18"/>
<text text-anchor="middle" x="500.818" y="-242.3" font-family="Times,serif" font-size="14.00" fill="#2c94b3">AS3257</text>
</a>
</g>
</g>
<!-- AS1299&#45;&gt;AS3257 -->
<g id="edge10" class="edge"><title>AS1299&#45;&gt;AS3257</title>
<path fill="none" stroke="black" d="M175.768,-338.482C190.221,-327.884 210.679,-314.308 230.586,-306 304.488,-275.157 396.721,-259.007 451.803,-251.515"/>
<polygon fill="black" stroke="black" points="452.519,-254.951 461.976,-250.173 451.604,-248.011 452.519,-254.951"/>
</g>
<!-- AS174 -->
<g id="node12" class="node"><title>AS174</title>
<g id="a_node12"><a xlink:href="/asn/174" xlink:title="AS174 ~ Cogent Communications [US]">
<ellipse fill="#ffffff" stroke="black" cx="500.818" cy="-408" rx="35.194" ry="18"/>
<text text-anchor="middle" x="500.818" y="-404.3" font-family="Times,serif" font-size="14.00" fill="#2c94b3">AS174</text>
</a>
</g>
</g>
<!-- AS1299&#45;&gt;AS174 -->
<g id="edge11" class="edge"><title>AS1299&#45;&gt;AS174</title>
<path fill="none" stroke="black" d="M185.02,-365.733C198.687,-370.932 215.303,-376.806 230.586,-381 280.892,-394.804 294.031,-397.247 345.879,-403 382.65,-407.08 424.64,-408.211 455.467,-408.388"/>
<polygon fill="black" stroke="black" points="455.461,-411.888 465.47,-408.414 455.479,-404.888 455.461,-411.888"/>
</g>
<!-- AS1239 -->
<g id="node13" class="node"><title>AS1239</title>
<g id="a_node13"><a xlink:href="/asn/1239" xlink:title="AS1239 ~ Sprint [US]">
<ellipse fill="#ffffff" stroke="black" cx="500.818" cy="-570" rx="39.7935" ry="18"/>
<text text-anchor="middle" x="500.818" y="-566.3" font-family="Times,serif" font-size="14.00" fill="#2c94b3">AS1239</text>
</a>
</g>
</g>
<!-- AS1299&#45;&gt;AS1239 -->
<g id="edge12" class="edge"><title>AS1299&#45;&gt;AS1239</title>
<path fill="none" stroke="black" d="M166.729,-371.212C192.342,-410.41 261.061,-506.228 345.879,-549 378.336,-565.367 419.281,-570.322 450.783,-571.344"/>
<polygon fill="black" stroke="black" points="451.01,-574.849 461.078,-571.55 451.151,-567.85 451.01,-574.849"/>
</g>
<!-- AS3491 -->
<g id="node14" class="node"><title>AS3491</title>
<g id="a_node14"><a xlink:href="/asn/3491" xlink:title="AS3491 ~ PCCW Global, Inc. [US]">
<ellipse fill="#ffffff" stroke="black" cx="500.818" cy="-300" rx="39.7935" ry="18"/>
<text text-anchor="middle" x="500.818" y="-296.3" font-family="Times,serif" font-size="14.00" fill="#2c94b3">AS3491</text>
</a>
</g>
</g>
<!-- AS1299&#45;&gt;AS3491 -->
<g id="edge13" class="edge"><title>AS1299&#45;&gt;AS3491</title>
<path fill="none" stroke="black" d="M185.004,-342.209C198.668,-336.998 215.285,-331.13 230.586,-327 280.871,-313.428 294.107,-311.695 345.879,-306 380.838,-302.154 420.499,-300.676 450.808,-300.148"/>
<polygon fill="black" stroke="black" points="451.167,-303.644 461.115,-299.999 451.066,-296.644 451.167,-303.644"/>
</g>
<!-- AS7018 -->
<g id="node15" class="node"><title>AS7018</title>
<g id="a_node15"><a xlink:href="/asn/7018" xlink:title="AS7018 ~ AT&amp;T Services, Inc. [US]">
<ellipse fill="#ffffff" stroke="black" cx="500.818" cy="-178" rx="39.7935" ry="18"/>
<text text-anchor="middle" x="500.818" y="-174.3" font-family="Times,serif" font-size="14.00" fill="#2c94b3">AS7018</text>
</a>
</g>
</g>
<!-- AS1299&#45;&gt;AS7018 -->
<g id="edge14" class="edge"><title>AS1299&#45;&gt;AS7018</title>
<path fill="none" stroke="black" d="M168.456,-336.886C182.02,-319.423 205.158,-292.596 230.586,-276 301.957,-229.421 398.393,-201.293 454.373,-187.783"/>
<polygon fill="black" stroke="black" points="455.411,-191.134 464.339,-185.429 453.803,-184.321 455.411,-191.134"/>
</g>
<!-- AS3320&#45;&gt;AS6453 -->
<g id="edge20" class="edge"><title>AS3320&#45;&gt;AS6453</title>
<path fill="none" stroke="black" d="M370.046,-505.219C348.353,-475.791 307.643,-415.43 285.862,-380.403"/>
<polygon fill="black" stroke="black" points="288.713,-378.357 280.504,-371.66 282.745,-382.015 288.713,-378.357"/>
</g>
<!-- AS3320&#45;&gt;AS2914 -->
<g id="edge16" class="edge"><title>AS3320&#45;&gt;AS2914</title>
<path fill="none" stroke="black" d="M406.79,-537.614C412.9,-542.626 419.49,-548.349 425.172,-554 442.844,-571.576 442.796,-580.161 461.172,-597 463.586,-599.212 466.188,-601.392 468.863,-603.496"/>
<polygon fill="black" stroke="black" points="466.868,-606.374 476.98,-609.535 471.046,-600.758 466.868,-606.374"/>
</g>
<!-- AS3320&#45;&gt;AS2497 -->
<g id="edge19" class="edge"><title>AS3320&#45;&gt;AS2497</title>
<path fill="none" stroke="black" d="M411.951,-508.535C427.584,-500.256 447.83,-489.533 464.947,-480.468"/>
<polygon fill="black" stroke="black" points="466.887,-483.401 474.086,-475.628 463.611,-477.215 466.887,-483.401"/>
</g>
<!-- AS3320&#45;&gt;AS1239 -->
<g id="edge17" class="edge"><title>AS3320&#45;&gt;AS1239</title>
<path fill="none" stroke="black" d="M415.114,-534.112C429.336,-540.138 446.716,-547.502 462.023,-553.987"/>
<polygon fill="black" stroke="black" points="460.666,-557.213 471.239,-557.891 463.397,-550.768 460.666,-557.213"/>
</g>
<!-- AS701 -->
<g id="node16" class="node"><title>AS701</title>
<g id="a_node16"><a xlink:href="/asn/701" xlink:title="AS701 ~ UUNET [US]">
<ellipse fill="#ffffff" stroke="black" cx="500.818" cy="-516" rx="35.194" ry="18"/>
<text text-anchor="middle" x="500.818" y="-512.3" font-family="Times,serif" font-size="14.00" fill="#2c94b3">AS701</text>
</a>
</g>
</g>
<!-- AS3320&#45;&gt;AS701 -->
<g id="edge18" class="edge"><title>AS3320&#45;&gt;AS701</title>
<path fill="none" stroke="black" d="M425.198,-519.952C434.998,-519.433 445.599,-518.871 455.649,-518.339"/>
<polygon fill="black" stroke="black" points="456.065,-521.822 465.866,-517.798 455.695,-514.832 456.065,-521.822"/>
</g>
<!-- AS3356&#45;&gt;AS6453 -->
<g id="edge30" class="edge"><title>AS3356&#45;&gt;AS6453</title>
<path fill="none" stroke="black" d="M348.322,-360.343C338.509,-360.75 327.749,-360.852 317.465,-360.648"/>
<polygon fill="black" stroke="black" points="317.492,-357.147 307.391,-360.341 317.279,-364.144 317.492,-357.147"/>
</g>
<!-- AS3356&#45;&gt;AS2914 -->
<g id="edge22" class="edge"><title>AS3356&#45;&gt;AS2914</title>
<path fill="none" stroke="black" d="M391.363,-372.141C405.643,-425.306 447.466,-578.182 461.172,-597 462.889,-599.357 464.876,-601.581 467.025,-603.663"/>
<polygon fill="black" stroke="black" points="464.888,-606.439 474.799,-610.183 469.387,-601.075 464.888,-606.439"/>
</g>
<!-- AS3356&#45;&gt;AS2497 -->
<g id="edge24" class="edge"><title>AS3356&#45;&gt;AS2497</title>
<path fill="none" stroke="black" d="M400.155,-370.817C414.438,-387.929 437.984,-414.745 461.172,-435 463.637,-437.154 466.276,-439.294 468.974,-441.372"/>
<polygon fill="black" stroke="black" points="466.998,-444.264 477.128,-447.37 471.147,-438.625 466.998,-444.264"/>
</g>
<!-- AS3356&#45;&gt;AS209 -->
<g id="edge26" class="edge"><title>AS3356&#45;&gt;AS209</title>
<path fill="none" stroke="black" d="M391.481,-335.988C401.802,-299.764 427.475,-216.009 461.172,-151 466.666,-140.401 473.845,-129.443 480.522,-120.061"/>
<polygon fill="black" stroke="black" points="483.379,-122.084 486.451,-111.944 477.727,-117.955 483.379,-122.084"/>
</g>
<!-- AS3356&#45;&gt;AS3257 -->
<g id="edge27" class="edge"><title>AS3356&#45;&gt;AS3257</title>
<path fill="none" stroke="black" d="M400.155,-337.183C414.438,-320.071 437.984,-293.255 461.172,-273 463.637,-270.846 466.276,-268.706 468.974,-266.628"/>
<polygon fill="black" stroke="black" points="471.147,-269.375 477.128,-260.63 466.998,-263.736 471.147,-269.375"/>
</g>
<!-- AS3356&#45;&gt;AS174 -->
<g id="edge23" class="edge"><title>AS3356&#45;&gt;AS174</title>
<path fill="none" stroke="black" d="M413.662,-366.934C429.094,-374.29 448.579,-383.577 465.114,-391.459"/>
<polygon fill="black" stroke="black" points="463.923,-394.768 474.456,-395.911 466.935,-388.449 463.923,-394.768"/>
</g>
<!-- AS3356&#45;&gt;AS1239 -->
<g id="edge21" class="edge"><title>AS3356&#45;&gt;AS1239</title>
<path fill="none" stroke="black" d="M390.015,-372.16C397.647,-408.03 418.638,-489.155 461.172,-543 462.979,-545.288 465.032,-547.462 467.227,-549.51"/>
<polygon fill="black" stroke="black" points="465.138,-552.323 475.086,-555.966 469.581,-546.914 465.138,-552.323"/>
</g>
<!-- AS3356&#45;&gt;AS3491 -->
<g id="edge25" class="edge"><title>AS3356&#45;&gt;AS3491</title>
<path fill="none" stroke="black" d="M413.662,-341.066C428.656,-333.919 447.477,-324.948 463.7,-317.215"/>
<polygon fill="black" stroke="black" points="465.382,-320.291 472.903,-312.829 462.37,-313.972 465.382,-320.291"/>
</g>
<!-- AS3356&#45;&gt;AS7018 -->
<g id="edge29" class="edge"><title>AS3356&#45;&gt;AS7018</title>
<path fill="none" stroke="black" d="M394.634,-336.11C407.112,-309.428 432.594,-258.156 461.172,-219 465.434,-213.161 470.456,-207.276 475.444,-201.858"/>
<polygon fill="black" stroke="black" points="478.268,-203.968 482.636,-194.315 473.202,-199.138 478.268,-203.968"/>
</g>
<!-- AS3549 -->
<g id="node17" class="node"><title>AS3549</title>
<g id="a_node17"><a xlink:href="/asn/3549" xlink:title="AS3549 ~ Level 3 Parent, LLC [US]">
<ellipse fill="#ffffff" stroke="black" cx="500.818" cy="-354" rx="39.7935" ry="18"/>
<text text-anchor="middle" x="500.818" y="-350.3" font-family="Times,serif" font-size="14.00" fill="#2c94b3">AS3549</text>
</a>
</g>
</g>
<!-- AS3356&#45;&gt;AS3549 -->
<g id="edge28" class="edge"><title>AS3356&#45;&gt;AS3549</title>
<path fill="none" stroke="black" stroke-width="2" d="M425.198,-354C433.401,-354 442.165,-354 450.697,-354"/>
<polygon fill="black" stroke="black" stroke-width="2" points="450.936,-357.5 460.936,-354 450.936,-350.5 450.936,-357.5"/>
</g>
<!-- AS6453&#45;&gt;AS1299 -->
<g id="edge31" class="edge"><title>AS6453&#45;&gt;AS1299</title>
<path fill="none" stroke="black" d="M233.029,-360.343C223.216,-360.75 212.456,-360.852 202.172,-360.648"/>
<polygon fill="black" stroke="black" points="202.199,-357.147 192.098,-360.341 201.986,-364.144 202.199,-357.147"/>
</g>
<!-- AS6453&#45;&gt;AS3320 -->
<g id="edge35" class="edge"><title>AS6453&#45;&gt;AS3320</title>
<path fill="none" stroke="black" d="M285.581,-370.604C307.226,-399.945 348.012,-460.413 369.848,-495.521"/>
<polygon fill="black" stroke="black" points="367.011,-497.589 375.221,-504.285 372.978,-493.93 367.011,-497.589"/>
</g>
<!-- AS6453&#45;&gt;AS3356 -->
<g id="edge36" class="edge"><title>AS6453&#45;&gt;AS3356</title>
<path fill="none" stroke="black" stroke-width="2" d="M307.391,-347.659C317.201,-347.25 327.96,-347.148 338.246,-347.351"/>
<polygon fill="black" stroke="black" stroke-width="2" points="338.221,-350.852 348.322,-347.657 338.433,-343.855 338.221,-350.852"/>
</g>
<!-- AS6453&#45;&gt;AS2914 -->
<g id="edge37" class="edge"><title>AS6453&#45;&gt;AS2914</title>
<path fill="none" stroke="black" d="M273.658,-372.192C279.535,-409.693 297.769,-496.471 345.879,-549 375.393,-581.225 421.766,-601.17 455.907,-612.314"/>
<polygon fill="black" stroke="black" points="455.043,-615.71 465.632,-615.359 457.135,-609.03 455.043,-615.71"/>
</g>
<!-- AS6453&#45;&gt;AS3257 -->
<g id="edge33" class="edge"><title>AS6453&#45;&gt;AS3257</title>
<path fill="none" stroke="black" d="M292.117,-338.963C306.725,-328.853 326.937,-315.659 345.879,-306 382.656,-287.246 426.737,-270.615 458.285,-259.647"/>
<polygon fill="black" stroke="black" points="459.741,-262.848 468.062,-256.29 457.467,-256.227 459.741,-262.848"/>
</g>
<!-- AS6453&#45;&gt;AS174 -->
<g id="edge32" class="edge"><title>AS6453&#45;&gt;AS174</title>
<path fill="none" stroke="black" d="M300.285,-365.837C313.946,-371.058 330.565,-376.92 345.879,-381 382.627,-390.789 425.279,-397.953 456.355,-402.431"/>
<polygon fill="black" stroke="black" points="456.035,-405.92 466.425,-403.847 457.01,-398.989 456.035,-405.92"/>
</g>
<!-- AS6453&#45;&gt;AS3491 -->
<g id="edge34" class="edge"><title>AS6453&#45;&gt;AS3491</title>
<path fill="none" stroke="black" d="M300.285,-342.163C313.946,-336.942 330.565,-331.08 345.879,-327 381.096,-317.619 421.735,-310.649 452.411,-306.143"/>
<polygon fill="black" stroke="black" points="453.009,-309.593 462.411,-304.709 452.015,-302.664 453.009,-309.593"/>
</g>
</g>
</svg>
