<?xml version="1.0" encoding="UTF-8" standalone="no"?>
<!DOCTYPE svg PUBLIC "-//W3C//DTD SVG 1.1//EN"
 "http://www.w3.org/Graphics/SVG/1.1/DTD/svg11.dtd">
<!-- Generated by graphviz version 2.38.0 (20140413.2041)
 -->
<!-- Title: AS8447 Combined Upstream Graph Pages: 1 -->
<svg width="558pt" height="638pt"
 viewBox="0.00 0.00 557.56 638.00" xmlns="http://www.w3.org/2000/svg" xmlns:xlink="http://www.w3.org/1999/xlink">
<g id="graph0" class="graph" transform="scale(1 1) rotate(0) translate(4 634)">
<title>AS8447 Combined Upstream Graph</title>
<polygon fill="white" stroke="none" points="-4,4 -4,-634 553.564,-634 553.564,4 -4,4"/>
<!-- AS8447 -->
<g id="node1" class="node"><title>AS8447</title>
<g id="a_node1"><a xlink:href="/asn/8447" xlink:title="AS8447 ~ A1 Telekom Austria AG [AT]">
<ellipse fill="#ffffff" stroke="black" cx="39.6465" cy="-226" rx="39.7935" ry="18"/>
<text text-anchor="middle" x="39.6465" y="-222.3" font-family="Times,serif" font-size="14.00" fill="#880000">AS8447</text>
</a>
</g>
</g>
<!-- AS1299 -->
<g id="node2" class="node"><title>AS1299</title>
<g id="a_node2"><a xlink:href="/asn/1299" xlink:title="AS1299 ~ Telia Carrier [EU]">
<ellipse fill="#ffffff" stroke="black" cx="385.525" cy="-432" rx="39.7935" ry="18"/>
<text text-anchor="middle" x="385.525" y="-428.3" font-family="Times,serif" font-size="14.00" fill="#2c94b3">AS1299</text>
</a>
</g>
</g>
<!-- AS8447&#45;&gt;AS1299 -->
<g id="edge1" class="edge"><title>AS8447&#45;&gt;AS1299</title>
<path fill="none" stroke="black" stroke-width="3.75" d="M49.9737,-243.73C62.276,-265.576 85.8524,-302.549 115.293,-325 184.339,-377.654 282.696,-407.952 339.434,-422.101"/>
<polygon fill="black" stroke="black" stroke-width="3.75" points="338.644,-425.51 349.188,-424.476 340.3,-418.709 338.644,-425.51"/>
</g>
<!-- AS3320 -->
<g id="node3" class="node"><title>AS3320</title>
<g id="a_node3"><a xlink:href="/asn/3320" xlink:title="AS3320 ~ DTAG [DE]">
<ellipse fill="#ffffff" stroke="black" cx="154.939" cy="-226" rx="39.7935" ry="18"/>
<text text-anchor="middle" x="154.939" y="-222.3" font-family="Times,serif" font-size="14.00" fill="#2c94b3">AS3320</text>
</a>
</g>
</g>
<!-- AS8447&#45;&gt;AS3320 -->
<g id="edge2" class="edge"><title>AS8447&#45;&gt;AS3320</title>
<path fill="none" stroke="black" stroke-width="2" d="M79.3186,-226C87.5216,-226 96.2857,-226 104.818,-226"/>
<polygon fill="black" stroke="black" stroke-width="2" points="105.057,-229.5 115.057,-226 105.057,-222.5 105.057,-229.5"/>
</g>
<!-- AS3356 -->
<g id="node4" class="node"><title>AS3356</title>
<g id="a_node4"><a xlink:href="/asn/3356" xlink:title="AS3356 ~ LEVEL3 [US]">
<ellipse fill="#ffffff" stroke="black" cx="385.525" cy="-340" rx="39.7935" ry="18"/>
<text text-anchor="middle" x="385.525" y="-336.3" font-family="Times,serif" font-size="14.00" fill="#2c94b3">AS3356</text>
</a>
</g>
</g>
<!-- AS8447&#45;&gt;AS3356 -->
<g id="edge3" class="edge"><title>AS8447&#45;&gt;AS3356</title>
<path fill="none" stroke="black" stroke-width="4.5" d="M70.6773,-237.234C84.2514,-242.216 100.526,-248.056 115.293,-253 201.111,-281.733 224.061,-284.267 309.879,-313 321.3,-316.824 333.623,-321.184 344.902,-325.268"/>
<polygon fill="black" stroke="black" stroke-width="4.5" points="343.751,-329.04 354.495,-328.766 346.448,-321.641 343.751,-329.04"/>
</g>
<!-- AS6453 -->
<g id="node5" class="node"><title>AS6453</title>
<g id="a_node5"><a xlink:href="/asn/6453" xlink:title="AS6453 ~ TATA COMMUNICATIONS (AMERICA) INC [US]">
<ellipse fill="#ffffff" stroke="black" cx="270.232" cy="-340" rx="39.7935" ry="18"/>
<text text-anchor="middle" x="270.232" y="-336.3" font-family="Times,serif" font-size="14.00" fill="#2c94b3">AS6453</text>
</a>
</g>
</g>
<!-- AS8447&#45;&gt;AS6453 -->
<g id="edge4" class="edge"><title>AS8447&#45;&gt;AS6453</title>
<path fill="none" stroke="black" stroke-width="2" d="M54.0246,-242.808C67.7569,-258.971 90.5631,-282.959 115.293,-297 148.498,-315.853 190.485,-326.862 222.218,-333.013"/>
<polygon fill="black" stroke="black" stroke-width="2" points="221.668,-336.47 232.137,-334.843 222.938,-329.586 221.668,-336.47"/>
</g>
<!-- AS6461 -->
<g id="node6" class="node"><title>AS6461</title>
<g id="a_node6"><a xlink:href="/asn/6461" xlink:title="AS6461 ~ Zayo Bandwidth [US]">
<ellipse fill="#ffffff" stroke="black" cx="154.939" cy="-134" rx="39.7935" ry="18"/>
<text text-anchor="middle" x="154.939" y="-130.3" font-family="Times,serif" font-size="14.00" fill="#2c94b3">AS6461</text>
</a>
</g>
</g>
<!-- AS8447&#45;&gt;AS6461 -->
<g id="edge5" class="edge"><title>AS8447&#45;&gt;AS6461</title>
<path fill="none" stroke="black" stroke-width="0.25" d="M59.8651,-210.393C78.2569,-195.458 106.176,-172.786 126.827,-156.017"/>
<polygon fill="black" stroke="black" stroke-width="0.25" points="129.07,-158.704 134.627,-149.683 124.657,-153.27 129.07,-158.704"/>
</g>
<!-- AS6762 -->
<g id="node7" class="node"><title>AS6762</title>
<g id="a_node7"><a xlink:href="/asn/6762" xlink:title="AS6762 ~ TELECOM ITALIA SPARKLE S.p.A. [IT]">
<ellipse fill="#ffffff" stroke="black" cx="154.939" cy="-80" rx="39.7935" ry="18"/>
<text text-anchor="middle" x="154.939" y="-76.3" font-family="Times,serif" font-size="14.00" fill="#2c94b3">AS6762</text>
</a>
</g>
</g>
<!-- AS8447&#45;&gt;AS6762 -->
<g id="edge6" class="edge"><title>AS8447&#45;&gt;AS6762</title>
<path fill="none" stroke="black" stroke-width="0.5" d="M48.8786,-208.348C60.9685,-183.695 85.3673,-138.447 115.293,-107 117.356,-104.832 119.618,-102.733 121.98,-100.727"/>
<polygon fill="black" stroke="black" stroke-width="0.5" points="124.503,-103.199 130.253,-94.3002 120.209,-97.6708 124.503,-103.199"/>
</g>
<!-- AS6939 -->
<g id="node8" class="node"><title>AS6939</title>
<g id="a_node8"><a xlink:href="/asn/6939" xlink:title="AS6939 ~ Hurricane Electric LLC [US]">
<ellipse fill="#ffffff" stroke="black" cx="385.525" cy="-172" rx="39.7935" ry="18"/>
<text text-anchor="middle" x="385.525" y="-168.3" font-family="Times,serif" font-size="14.00" fill="#2c94b3">AS6939</text>
</a>
</g>
</g>
<!-- AS8447&#45;&gt;AS6939 -->
<g id="edge7" class="edge"><title>AS8447&#45;&gt;AS6939</title>
<path fill="none" stroke="black" stroke-width="1.25" d="M69.2167,-213.786C82.9165,-208.419 99.7045,-202.543 115.293,-199 191.033,-181.784 281.247,-175.543 335.643,-173.283"/>
<polygon fill="black" stroke="black" stroke-width="1.25" points="335.844,-176.778 345.701,-172.893 335.573,-169.783 335.844,-176.778"/>
</g>
<!-- AS2914 -->
<g id="node9" class="node"><title>AS2914</title>
<g id="a_node9"><a xlink:href="/asn/2914" xlink:title="AS2914 ~ NTT America, Inc. [US]">
<ellipse fill="#ffffff" stroke="black" cx="505.368" cy="-180" rx="39.7935" ry="18"/>
<text text-anchor="middle" x="505.368" y="-176.3" font-family="Times,serif" font-size="14.00" fill="#2c94b3">AS2914</text>
</a>
</g>
</g>
<!-- AS1299&#45;&gt;AS2914 -->
<g id="edge8" class="edge"><title>AS1299&#45;&gt;AS2914</title>
<path fill="none" stroke="black" stroke-width="2" d="M398.77,-414.846C407.297,-402.17 418.325,-384.199 425.172,-367 452.131,-299.28 419.015,-266.461 461.172,-207 463.167,-204.186 465.556,-201.603 468.174,-199.246"/>
<polygon fill="black" stroke="black" stroke-width="2" points="470.727,-201.7 476.545,-192.846 466.475,-196.139 470.727,-201.7"/>
</g>
<!-- AS174 -->
<g id="node10" class="node"><title>AS174</title>
<g id="a_node10"><a xlink:href="/asn/174" xlink:title="AS174 ~ Cogent Communications [US]">
<ellipse fill="#ffffff" stroke="black" cx="505.368" cy="-612" rx="35.194" ry="18"/>
<text text-anchor="middle" x="505.368" y="-608.3" font-family="Times,serif" font-size="14.00" fill="#2c94b3">AS174</text>
</a>
</g>
</g>
<!-- AS1299&#45;&gt;AS174 -->
<g id="edge9" class="edge"><title>AS1299&#45;&gt;AS174</title>
<path fill="none" stroke="black" stroke-width="2" d="M391.658,-449.91C401.163,-480.55 423.993,-543.708 461.172,-585 464.034,-588.179 467.358,-591.121 470.865,-593.802"/>
<polygon fill="black" stroke="black" stroke-width="2" points="469.031,-596.788 479.254,-599.571 472.998,-591.021 469.031,-596.788"/>
</g>
<!-- AS7018 -->
<g id="node11" class="node"><title>AS7018</title>
<g id="a_node11"><a xlink:href="/asn/7018" xlink:title="AS7018 ~ AT&amp;T Services, Inc. [US]">
<ellipse fill="#ffffff" stroke="black" cx="505.368" cy="-504" rx="39.7935" ry="18"/>
<text text-anchor="middle" x="505.368" y="-500.3" font-family="Times,serif" font-size="14.00" fill="#2c94b3">AS7018</text>
</a>
</g>
</g>
<!-- AS1299&#45;&gt;AS7018 -->
<g id="edge10" class="edge"><title>AS1299&#45;&gt;AS7018</title>
<path fill="none" stroke="black" stroke-width="2" d="M410.089,-446.397C427.913,-457.287 452.586,-472.362 472.221,-484.358"/>
<polygon fill="black" stroke="black" stroke-width="2" points="470.487,-487.401 480.845,-489.628 474.136,-481.427 470.487,-487.401"/>
</g>
<!-- AS3257 -->
<g id="node12" class="node"><title>AS3257</title>
<g id="a_node12"><a xlink:href="/asn/3257" xlink:title="AS3257 ~ GTT [DE]">
<ellipse fill="#ffffff" stroke="black" cx="505.368" cy="-396" rx="39.7935" ry="18"/>
<text text-anchor="middle" x="505.368" y="-392.3" font-family="Times,serif" font-size="14.00" fill="#2c94b3">AS3257</text>
</a>
</g>
</g>
<!-- AS1299&#45;&gt;AS3257 -->
<g id="edge11" class="edge"><title>AS1299&#45;&gt;AS3257</title>
<path fill="none" stroke="black" d="M419.038,-422.068C432.434,-417.975 448.125,-413.182 462.373,-408.829"/>
<polygon fill="black" stroke="black" points="463.42,-412.169 471.961,-405.9 461.375,-405.474 463.42,-412.169"/>
</g>
<!-- AS2497 -->
<g id="node13" class="node"><title>AS2497</title>
<g id="a_node13"><a xlink:href="/asn/2497" xlink:title="AS2497 ~ Internet Initiative Japan Inc. [JP]">
<ellipse fill="#ffffff" stroke="black" cx="505.368" cy="-126" rx="39.7935" ry="18"/>
<text text-anchor="middle" x="505.368" y="-122.3" font-family="Times,serif" font-size="14.00" fill="#2c94b3">AS2497</text>
</a>
</g>
</g>
<!-- AS1299&#45;&gt;AS2497 -->
<g id="edge12" class="edge"><title>AS1299&#45;&gt;AS2497</title>
<path fill="none" stroke="black" d="M399.056,-414.955C407.721,-402.333 418.798,-384.379 425.172,-367 458.383,-276.451 407.56,-233.174 461.172,-153 463.089,-150.133 465.425,-147.513 468.007,-145.131"/>
<polygon fill="black" stroke="black" points="470.558,-147.582 476.32,-138.691 466.271,-142.048 470.558,-147.582"/>
</g>
<!-- AS12956 -->
<g id="node14" class="node"><title>AS12956</title>
<g id="a_node14"><a xlink:href="/asn/12956" xlink:title="AS12956 ~ TELXIUS [ES]">
<ellipse fill="#ffffff" stroke="black" cx="505.368" cy="-450" rx="44.393" ry="18"/>
<text text-anchor="middle" x="505.368" y="-446.3" font-family="Times,serif" font-size="14.00" fill="#2c94b3">AS12956</text>
</a>
</g>
</g>
<!-- AS1299&#45;&gt;AS12956 -->
<g id="edge13" class="edge"><title>AS1299&#45;&gt;AS12956</title>
<path fill="none" stroke="black" d="M423.488,-437.646C433.107,-439.115 443.636,-440.723 453.825,-442.28"/>
<polygon fill="black" stroke="black" points="453.439,-445.761 463.853,-443.812 454.496,-438.842 453.439,-445.761"/>
</g>
<!-- AS3491 -->
<g id="node15" class="node"><title>AS3491</title>
<g id="a_node15"><a xlink:href="/asn/3491" xlink:title="AS3491 ~ PCCW Global, Inc. [US]">
<ellipse fill="#ffffff" stroke="black" cx="505.368" cy="-234" rx="39.7935" ry="18"/>
<text text-anchor="middle" x="505.368" y="-230.3" font-family="Times,serif" font-size="14.00" fill="#2c94b3">AS3491</text>
</a>
</g>
</g>
<!-- AS1299&#45;&gt;AS3491 -->
<g id="edge14" class="edge"><title>AS1299&#45;&gt;AS3491</title>
<path fill="none" stroke="black" d="M398.048,-414.883C406.331,-402.078 417.368,-383.931 425.172,-367 445.999,-321.815 430.284,-300.005 461.172,-261 463.505,-258.053 466.254,-255.341 469.217,-252.866"/>
<polygon fill="black" stroke="black" points="471.41,-255.599 477.419,-246.873 467.28,-249.947 471.41,-255.599"/>
</g>
<!-- AS209 -->
<g id="node16" class="node"><title>AS209</title>
<g id="a_node16"><a xlink:href="/asn/209" xlink:title="AS209 ~ CenturyLink Communications, LLC [US]">
<ellipse fill="#ffffff" stroke="black" cx="505.368" cy="-288" rx="35.194" ry="18"/>
<text text-anchor="middle" x="505.368" y="-284.3" font-family="Times,serif" font-size="14.00" fill="#2c94b3">AS209</text>
</a>
</g>
</g>
<!-- AS1299&#45;&gt;AS209 -->
<g id="edge15" class="edge"><title>AS1299&#45;&gt;AS209</title>
<path fill="none" stroke="black" stroke-width="2" d="M397.231,-414.286C415.861,-383.602 453.042,-323.055 461.172,-315 464.368,-311.833 468,-308.859 471.768,-306.125"/>
<polygon fill="black" stroke="black" stroke-width="2" points="473.748,-309.011 480.118,-300.545 469.859,-303.191 473.748,-309.011"/>
</g>
<!-- AS1239 -->
<g id="node17" class="node"><title>AS1239</title>
<g id="a_node17"><a xlink:href="/asn/1239" xlink:title="AS1239 ~ Sprint [US]">
<ellipse fill="#ffffff" stroke="black" cx="505.368" cy="-558" rx="39.7935" ry="18"/>
<text text-anchor="middle" x="505.368" y="-554.3" font-family="Times,serif" font-size="14.00" fill="#2c94b3">AS1239</text>
</a>
</g>
</g>
<!-- AS1299&#45;&gt;AS1239 -->
<g id="edge16" class="edge"><title>AS1299&#45;&gt;AS1239</title>
<path fill="none" stroke="black" d="M396.772,-449.271C409.843,-470.316 434.031,-506.134 461.172,-531 464.096,-533.679 467.321,-536.248 470.652,-538.663"/>
<polygon fill="black" stroke="black" points="468.793,-541.631 479.039,-544.325 472.709,-535.829 468.793,-541.631"/>
</g>
<!-- AS3320&#45;&gt;AS6453 -->
<g id="edge20" class="edge"><title>AS3320&#45;&gt;AS6453</title>
<path fill="none" stroke="black" stroke-width="2" d="M172.172,-242.333C191.437,-261.719 223.716,-294.2 245.716,-316.337"/>
<polygon fill="black" stroke="black" stroke-width="2" points="243.499,-319.071 253.03,-323.697 248.464,-314.137 243.499,-319.071"/>
</g>
<!-- AS3320&#45;&gt;AS2914 -->
<g id="edge17" class="edge"><title>AS3320&#45;&gt;AS2914</title>
<path fill="none" stroke="black" d="M194.501,-223.781C246.969,-220.387 343.654,-212.801 425.172,-199 436.925,-197.01 449.526,-194.271 461.141,-191.491"/>
<polygon fill="black" stroke="black" points="462.174,-194.841 471.049,-189.055 460.503,-188.043 462.174,-194.841"/>
</g>
<!-- AS3320&#45;&gt;AS2497 -->
<g id="edge21" class="edge"><title>AS3320&#45;&gt;AS2497</title>
<path fill="none" stroke="black" d="M181.225,-212.457C216.866,-194.018 284.406,-161.433 345.879,-145 381.839,-135.387 423.693,-130.631 455.358,-128.282"/>
<polygon fill="black" stroke="black" points="455.946,-131.75 465.683,-127.574 455.467,-124.766 455.946,-131.75"/>
</g>
<!-- AS3320&#45;&gt;AS1239 -->
<g id="edge19" class="edge"><title>AS3320&#45;&gt;AS1239</title>
<path fill="none" stroke="black" d="M162.614,-243.875C173.729,-272.088 198.063,-327.762 230.586,-367 298.727,-449.21 410.596,-512.019 467.956,-540.77"/>
<polygon fill="black" stroke="black" points="466.497,-543.954 477.012,-545.253 469.603,-537.68 466.497,-543.954"/>
</g>
<!-- AS701 -->
<g id="node18" class="node"><title>AS701</title>
<g id="a_node18"><a xlink:href="/asn/701" xlink:title="AS701 ~ UUNET [US]">
<ellipse fill="#ffffff" stroke="black" cx="505.368" cy="-72" rx="35.194" ry="18"/>
<text text-anchor="middle" x="505.368" y="-68.3" font-family="Times,serif" font-size="14.00" fill="#2c94b3">AS701</text>
</a>
</g>
</g>
<!-- AS3320&#45;&gt;AS701 -->
<g id="edge18" class="edge"><title>AS3320&#45;&gt;AS701</title>
<path fill="none" stroke="black" stroke-width="2" d="M168.947,-208.841C182.563,-192.027 205.434,-166.827 230.586,-152 304.88,-108.203 404.801,-86.9713 461.095,-77.8723"/>
<polygon fill="black" stroke="black" stroke-width="2" points="461.743,-81.3136 471.083,-76.3118 460.662,-74.3975 461.743,-81.3136"/>
</g>
<!-- AS3356&#45;&gt;AS6453 -->
<g id="edge31" class="edge"><title>AS3356&#45;&gt;AS6453</title>
<path fill="none" stroke="black" d="M348.322,-346.343C338.509,-346.75 327.749,-346.852 317.465,-346.648"/>
<polygon fill="black" stroke="black" points="317.492,-343.147 307.391,-346.341 317.279,-350.144 317.492,-343.147"/>
</g>
<!-- AS3356&#45;&gt;AS2914 -->
<g id="edge24" class="edge"><title>AS3356&#45;&gt;AS2914</title>
<path fill="none" stroke="black" stroke-width="2" d="M396.234,-322.439C415.931,-286.847 458.922,-209.359 461.172,-207 463.766,-204.28 466.69,-201.719 469.761,-199.34"/>
<polygon fill="black" stroke="black" stroke-width="2" points="471.939,-202.087 478.115,-193.479 467.919,-196.357 471.939,-202.087"/>
</g>
<!-- AS3356&#45;&gt;AS174 -->
<g id="edge22" class="edge"><title>AS3356&#45;&gt;AS174</title>
<path fill="none" stroke="black" stroke-width="2" d="M398.895,-357.105C407.482,-369.757 418.531,-387.721 425.172,-405 454.438,-481.154 414.785,-517.886 461.172,-585 463.604,-588.519 466.66,-591.673 470.016,-594.473"/>
<polygon fill="black" stroke="black" stroke-width="2" points="468.076,-597.388 478.242,-600.371 472.155,-591.699 468.076,-597.388"/>
</g>
<!-- AS3356&#45;&gt;AS7018 -->
<g id="edge28" class="edge"><title>AS3356&#45;&gt;AS7018</title>
<path fill="none" stroke="black" d="M397.374,-357.456C405.321,-370.43 416.234,-388.64 425.172,-405 442.325,-436.397 437.103,-450.529 461.172,-477 463.7,-479.781 466.58,-482.383 469.624,-484.788"/>
<polygon fill="black" stroke="black" points="467.758,-487.755 477.939,-490.685 471.807,-482.045 467.758,-487.755"/>
</g>
<!-- AS3356&#45;&gt;AS3257 -->
<g id="edge30" class="edge"><title>AS3356&#45;&gt;AS3257</title>
<path fill="none" stroke="black" d="M413.561,-352.848C429.729,-360.531 450.481,-370.392 468.065,-378.748"/>
<polygon fill="black" stroke="black" points="466.924,-382.081 477.458,-383.212 469.928,-375.759 466.924,-382.081"/>
</g>
<!-- AS3356&#45;&gt;AS2497 -->
<g id="edge23" class="edge"><title>AS3356&#45;&gt;AS2497</title>
<path fill="none" stroke="black" stroke-width="2" d="M389.832,-321.842C397.139,-286.014 417.581,-205.177 461.172,-153 463.582,-150.116 466.382,-147.445 469.376,-144.996"/>
<polygon fill="black" stroke="black" stroke-width="2" points="471.566,-147.732 477.622,-139.039 467.467,-142.058 471.566,-147.732"/>
</g>
<!-- AS3356&#45;&gt;AS12956 -->
<g id="edge32" class="edge"><title>AS3356&#45;&gt;AS12956</title>
<path fill="none" stroke="black" d="M399.602,-357.188C413.623,-374.936 437.129,-402.811 461.172,-423 463.896,-425.287 466.83,-427.522 469.841,-429.665"/>
<polygon fill="black" stroke="black" points="468.167,-432.757 478.42,-435.426 472.07,-426.945 468.167,-432.757"/>
</g>
<!-- AS3356&#45;&gt;AS3491 -->
<g id="edge26" class="edge"><title>AS3356&#45;&gt;AS3491</title>
<path fill="none" stroke="black" d="M406.942,-324.536C413.059,-319.53 419.614,-313.773 425.172,-308 443.421,-289.045 441.704,-278.701 461.172,-261 464.106,-258.332 467.338,-255.77 470.673,-253.359"/>
<polygon fill="black" stroke="black" points="472.729,-256.194 479.065,-247.703 468.816,-250.39 472.729,-256.194"/>
</g>
<!-- AS3356&#45;&gt;AS209 -->
<g id="edge25" class="edge"><title>AS3356&#45;&gt;AS209</title>
<path fill="none" stroke="black" stroke-width="2" d="M414.452,-327.677C430.762,-320.48 451.5,-311.329 468.949,-303.629"/>
<polygon fill="black" stroke="black" stroke-width="2" points="470.52,-306.762 478.256,-299.522 467.694,-300.357 470.52,-306.762"/>
</g>
<!-- AS3356&#45;&gt;AS1239 -->
<g id="edge29" class="edge"><title>AS3356&#45;&gt;AS1239</title>
<path fill="none" stroke="black" d="M398.475,-357.276C406.859,-370.011 417.838,-388.003 425.172,-405 448.246,-458.475 426.147,-484.468 461.172,-531 463.432,-534.003 466.133,-536.753 469.065,-539.251"/>
<polygon fill="black" stroke="black" points="467.1,-542.152 477.224,-545.278 471.259,-536.521 467.1,-542.152"/>
</g>
<!-- AS3356&#45;&gt;AS701 -->
<g id="edge33" class="edge"><title>AS3356&#45;&gt;AS701</title>
<path fill="none" stroke="black" d="M391.327,-321.975C405.506,-269.156 447.074,-117.306 461.172,-99 463.782,-95.6105 466.948,-92.5379 470.367,-89.7834"/>
<polygon fill="black" stroke="black" points="472.506,-92.5582 478.66,-83.9343 468.471,-86.8378 472.506,-92.5582"/>
</g>
<!-- AS3549 -->
<g id="node19" class="node"><title>AS3549</title>
<g id="a_node19"><a xlink:href="/asn/3549" xlink:title="AS3549 ~ Level 3 Parent, LLC [US]">
<ellipse fill="#ffffff" stroke="black" cx="505.368" cy="-342" rx="39.7935" ry="18"/>
<text text-anchor="middle" x="505.368" y="-338.3" font-family="Times,serif" font-size="14.00" fill="#2c94b3">AS3549</text>
</a>
</g>
</g>
<!-- AS3356&#45;&gt;AS3549 -->
<g id="edge27" class="edge"><title>AS3356&#45;&gt;AS3549</title>
<path fill="none" stroke="black" stroke-width="2" d="M425.438,-340.66C434.991,-340.823 445.341,-340.998 455.304,-341.167"/>
<polygon fill="black" stroke="black" stroke-width="2" points="455.438,-344.67 465.496,-341.34 455.557,-337.671 455.438,-344.67"/>
</g>
<!-- AS6453&#45;&gt;AS1299 -->
<g id="edge36" class="edge"><title>AS6453&#45;&gt;AS1299</title>
<path fill="none" stroke="black" d="M290.451,-355.607C308.843,-370.542 336.762,-393.214 357.413,-409.983"/>
<polygon fill="black" stroke="black" points="355.243,-412.73 365.212,-416.317 359.656,-407.296 355.243,-412.73"/>
</g>
<!-- AS6453&#45;&gt;AS3356 -->
<g id="edge34" class="edge"><title>AS6453&#45;&gt;AS3356</title>
<path fill="none" stroke="black" stroke-width="2" d="M307.391,-333.659C317.201,-333.25 327.96,-333.148 338.246,-333.351"/>
<polygon fill="black" stroke="black" stroke-width="2" points="338.221,-336.852 348.322,-333.657 338.433,-329.855 338.221,-336.852"/>
</g>
<!-- AS6453&#45;&gt;AS2914 -->
<g id="edge38" class="edge"><title>AS6453&#45;&gt;AS2914</title>
<path fill="none" stroke="black" d="M286.034,-323.466C300.29,-308.221 323.006,-285.651 345.879,-270 378.13,-247.931 391.394,-251.653 425.172,-232 442.009,-222.204 444.908,-217.721 461.172,-207 464.744,-204.645 468.508,-202.217 472.265,-199.826"/>
<polygon fill="black" stroke="black" points="474.329,-202.662 480.922,-194.368 470.596,-196.74 474.329,-202.662"/>
</g>
<!-- AS6453&#45;&gt;AS174 -->
<g id="edge39" class="edge"><title>AS6453&#45;&gt;AS174</title>
<path fill="none" stroke="black" d="M280.929,-357.594C294.348,-381.408 319.881,-424.847 345.879,-459 391.855,-519.398 402.833,-536.438 461.172,-585 464.63,-587.878 468.419,-590.679 472.272,-593.319"/>
<polygon fill="black" stroke="black" points="470.414,-596.286 480.703,-598.811 474.234,-590.42 470.414,-596.286"/>
</g>
<!-- AS6453&#45;&gt;AS3257 -->
<g id="edge35" class="edge"><title>AS6453&#45;&gt;AS3257</title>
<path fill="none" stroke="black" d="M300.299,-351.786C313.962,-356.996 330.58,-362.864 345.879,-367 382.793,-376.979 425.478,-384.57 457.243,-389.478"/>
<polygon fill="black" stroke="black" points="456.741,-392.942 467.152,-390.977 457.788,-386.02 456.741,-392.942"/>
</g>
<!-- AS6453&#45;&gt;AS3491 -->
<g id="edge37" class="edge"><title>AS6453&#45;&gt;AS3491</title>
<path fill="none" stroke="black" d="M298.892,-327.424C340.869,-308.338 420.717,-272.034 467.557,-250.737"/>
<polygon fill="black" stroke="black" points="469.09,-253.885 476.745,-246.559 466.193,-247.512 469.09,-253.885"/>
</g>
<!-- AS6939&#45;&gt;AS2914 -->
<g id="edge40" class="edge"><title>AS6939&#45;&gt;AS2914</title>
<path fill="none" stroke="black" d="M424.785,-174.597C434.665,-175.268 445.431,-175.999 455.761,-176.7"/>
<polygon fill="black" stroke="black" points="455.682,-180.203 465.897,-177.388 456.157,-173.219 455.682,-180.203"/>
</g>
<!-- AS6939&#45;&gt;AS2497 -->
<g id="edge42" class="edge"><title>AS6939&#45;&gt;AS2497</title>
<path fill="none" stroke="black" d="M416.262,-160.392C431.056,-154.618 449.133,-147.561 465.055,-141.346"/>
<polygon fill="black" stroke="black" points="466.598,-144.501 474.641,-137.604 464.053,-137.98 466.598,-144.501"/>
</g>
<!-- AS6939&#45;&gt;AS3491 -->
<g id="edge44" class="edge"><title>AS6939&#45;&gt;AS3491</title>
<path fill="none" stroke="black" d="M412.095,-185.453C429.005,-194.35 451.378,-206.121 469.859,-215.844"/>
<polygon fill="black" stroke="black" points="468.368,-219.014 478.848,-220.573 471.628,-212.82 468.368,-219.014"/>
</g>
<!-- AS6939&#45;&gt;AS209 -->
<g id="edge41" class="edge"><title>AS6939&#45;&gt;AS209</title>
<path fill="none" stroke="black" d="M398.35,-189.121C412.023,-208.132 435.911,-239.033 461.172,-261 464.567,-263.952 468.319,-266.798 472.151,-269.462"/>
<polygon fill="black" stroke="black" points="470.281,-272.421 480.563,-274.976 474.118,-266.566 470.281,-272.421"/>
</g>
<!-- AS1273 -->
<g id="node20" class="node"><title>AS1273</title>
<g id="a_node20"><a xlink:href="/asn/1273" xlink:title="AS1273 ~ Vodafone Group PLC [EU]">
<ellipse fill="#ffffff" stroke="black" cx="505.368" cy="-18" rx="39.7935" ry="18"/>
<text text-anchor="middle" x="505.368" y="-14.3" font-family="Times,serif" font-size="14.00" fill="#2c94b3">AS1273</text>
</a>
</g>
</g>
<!-- AS6939&#45;&gt;AS1273 -->
<g id="edge43" class="edge"><title>AS6939&#45;&gt;AS1273</title>
<path fill="none" stroke="black" d="M393.679,-154.228C404.94,-127.925 428.888,-78.1759 461.172,-45 463.793,-42.3063 466.735,-39.7628 469.818,-37.3939"/>
<polygon fill="black" stroke="black" points="471.993,-40.1437 478.187,-31.5479 467.985,-34.4051 471.993,-40.1437"/>
</g>
</g>
</svg>
