<?xml version="1.0" encoding="UTF-8" standalone="no"?>
<!DOCTYPE svg PUBLIC "-//W3C//DTD SVG 1.1//EN"
 "http://www.w3.org/Graphics/SVG/1.1/DTD/svg11.dtd">
<!-- Generated by graphviz version 2.38.0 (20140413.2041)
 -->
<!-- Title: AS59909 Combined Upstream Graph Pages: 1 -->
<svg width="576pt" height="696pt"
 viewBox="0.00 0.00 575.76 696.00" xmlns="http://www.w3.org/2000/svg" xmlns:xlink="http://www.w3.org/1999/xlink">
<g id="graph0" class="graph" transform="scale(1 1) rotate(0) translate(4 692)">
<title>AS59909 Combined Upstream Graph</title>
<polygon fill="white" stroke="none" points="-4,4 -4,-692 571.762,-692 571.762,4 -4,4"/>
<!-- AS59909 -->
<g id="node1" class="node"><title>AS59909</title>
<g id="a_node1"><a xlink:href="/asn/59909" xlink:title="AS59909 ~ Tele&#45;Tec GmbH [AT]">
<ellipse fill="#ffffff" stroke="black" cx="44.1961" cy="-137" rx="44.393" ry="18"/>
<text text-anchor="middle" x="44.1961" y="-133.3" font-family="Times,serif" font-size="14.00" fill="#880000">AS59909</text>
</a>
</g>
</g>
<!-- AS1764 -->
<g id="node2" class="node"><title>AS1764</title>
<g id="a_node2"><a xlink:href="/asn/1764" xlink:title="AS1764 ~ NEXTLAYER&#45;AS [AT]">
<ellipse fill="#ffffff" stroke="black" cx="168.588" cy="-183" rx="39.7935" ry="18"/>
<text text-anchor="middle" x="168.588" y="-179.3" font-family="Times,serif" font-size="14.00" fill="#2c94b3">AS1764</text>
</a>
</g>
</g>
<!-- AS59909&#45;&gt;AS1764 -->
<g id="edge1" class="edge"><title>AS59909&#45;&gt;AS1764</title>
<path fill="none" stroke="black" stroke-width="4.5" d="M77.3532,-149.086C92.7201,-154.861 111.267,-161.832 127.54,-167.948"/>
<polygon fill="black" stroke="black" stroke-width="4.5" points="126.583,-171.795 137.329,-171.627 129.354,-164.423 126.583,-171.795"/>
</g>
<!-- AS28889 -->
<g id="node3" class="node"><title>AS28889</title>
<g id="a_node3"><a xlink:href="/asn/28889" xlink:title="AS28889 ~ LINZNET&#45;AS [AT]">
<ellipse fill="#ffffff" stroke="black" cx="168.588" cy="-95" rx="44.393" ry="18"/>
<text text-anchor="middle" x="168.588" y="-91.3" font-family="Times,serif" font-size="14.00" fill="#2c94b3">AS28889</text>
</a>
</g>
</g>
<!-- AS59909&#45;&gt;AS28889 -->
<g id="edge2" class="edge"><title>AS59909&#45;&gt;AS28889</title>
<path fill="none" stroke="black" stroke-width="2.18571" d="M78.6403,-125.523C92.8068,-120.662 109.491,-114.937 124.559,-109.766"/>
<polygon fill="black" stroke="black" stroke-width="2.18571" points="125.862,-113.019 134.184,-106.463 123.59,-106.398 125.862,-113.019"/>
</g>
<!-- AS3356 -->
<g id="node4" class="node"><title>AS3356</title>
<g id="a_node4"><a xlink:href="/asn/3356" xlink:title="AS3356 ~ LEVEL3 [US]">
<ellipse fill="#ffffff" stroke="black" cx="403.724" cy="-332" rx="39.7935" ry="18"/>
<text text-anchor="middle" x="403.724" y="-328.3" font-family="Times,serif" font-size="14.00" fill="#2c94b3">AS3356</text>
</a>
</g>
</g>
<!-- AS1764&#45;&gt;AS3356 -->
<g id="edge3" class="edge"><title>AS1764&#45;&gt;AS3356</title>
<path fill="none" stroke="black" stroke-width="4.5" d="M192.367,-197.558C234.238,-224.319 323.505,-281.37 371.178,-311.838"/>
<polygon fill="black" stroke="black" stroke-width="4.5" points="369.306,-315.315 379.853,-317.383 373.547,-308.68 369.306,-315.315"/>
</g>
<!-- AS8218 -->
<g id="node5" class="node"><title>AS8218</title>
<g id="a_node5"><a xlink:href="/asn/8218" xlink:title="AS8218 ~ legacy Neotelecoms [FR]">
<ellipse fill="#ffffff" stroke="black" cx="403.724" cy="-18" rx="39.7935" ry="18"/>
<text text-anchor="middle" x="403.724" y="-14.3" font-family="Times,serif" font-size="14.00" fill="#2c94b3">AS8218</text>
</a>
</g>
</g>
<!-- AS1764&#45;&gt;AS8218 -->
<g id="edge4" class="edge"><title>AS1764&#45;&gt;AS8218</title>
<path fill="none" stroke="black" stroke-width="0.642857" d="M193.866,-168.974C209.368,-160.23 230.011,-148.974 248.784,-140 283.224,-123.538 297.316,-129.6 328.077,-107 351.754,-89.6047 372.658,-63.1844 386.277,-43.645"/>
<polygon fill="black" stroke="black" stroke-width="0.642857" points="389.283,-45.4479 392.005,-35.2087 383.492,-41.5156 389.283,-45.4479"/>
</g>
<!-- AS2914 -->
<g id="node6" class="node"><title>AS2914</title>
<g id="a_node6"><a xlink:href="/asn/2914" xlink:title="AS2914 ~ NTT America, Inc. [US]">
<ellipse fill="#ffffff" stroke="black" cx="403.724" cy="-630" rx="39.7935" ry="18"/>
<text text-anchor="middle" x="403.724" y="-626.3" font-family="Times,serif" font-size="14.00" fill="#2c94b3">AS2914</text>
</a>
</g>
</g>
<!-- AS1764&#45;&gt;AS2914 -->
<g id="edge5" class="edge"><title>AS1764&#45;&gt;AS2914</title>
<path fill="none" stroke="black" stroke-width="2.25" d="M174.487,-200.801C185.359,-239.179 213.365,-332.129 248.784,-405 290.808,-491.457 305.671,-511.649 364.077,-588 368.713,-594.06 374.056,-600.274 379.262,-606.002"/>
<polygon fill="black" stroke="black" stroke-width="2.25" points="376.821,-608.516 386.197,-613.45 381.944,-603.746 376.821,-608.516"/>
</g>
<!-- AS3257 -->
<g id="node7" class="node"><title>AS3257</title>
<g id="a_node7"><a xlink:href="/asn/3257" xlink:title="AS3257 ~ GTT [DE]">
<ellipse fill="#ffffff" stroke="black" cx="403.724" cy="-110" rx="39.7935" ry="18"/>
<text text-anchor="middle" x="403.724" y="-106.3" font-family="Times,serif" font-size="14.00" fill="#2c94b3">AS3257</text>
</a>
</g>
</g>
<!-- AS1764&#45;&gt;AS3257 -->
<g id="edge6" class="edge"><title>AS1764&#45;&gt;AS3257</title>
<path fill="none" stroke="black" stroke-width="0.321429" d="M204.254,-174.839C236.598,-166.932 286.044,-154.095 328.077,-140 340.182,-135.941 353.159,-130.956 364.842,-126.224"/>
<polygon fill="black" stroke="black" stroke-width="0.321429" points="366.386,-129.373 374.304,-122.334 363.725,-122.899 366.386,-129.373"/>
</g>
<!-- AS174 -->
<g id="node8" class="node"><title>AS174</title>
<g id="a_node8"><a xlink:href="/asn/174" xlink:title="AS174 ~ Cogent Communications [US]">
<ellipse fill="#ffffff" stroke="black" cx="288.431" cy="-80" rx="35.194" ry="18"/>
<text text-anchor="middle" x="288.431" y="-76.3" font-family="Times,serif" font-size="14.00" fill="#2c94b3">AS174</text>
</a>
</g>
</g>
<!-- AS1764&#45;&gt;AS174 -->
<g id="edge7" class="edge"><title>AS1764&#45;&gt;AS174</title>
<path fill="none" stroke="black" stroke-width="0.964286" d="M187.027,-167.008C202.958,-152.486 227.242,-130.563 248.784,-112 252.725,-108.604 256.93,-105.051 261.062,-101.6"/>
<polygon fill="black" stroke="black" stroke-width="0.964286" points="263.369,-104.234 268.829,-95.1539 258.899,-98.847 263.369,-104.234"/>
</g>
<!-- AS1299 -->
<g id="node9" class="node"><title>AS1299</title>
<g id="a_node9"><a xlink:href="/asn/1299" xlink:title="AS1299 ~ Telia Carrier [EU]">
<ellipse fill="#ffffff" stroke="black" cx="288.431" cy="-378" rx="39.7935" ry="18"/>
<text text-anchor="middle" x="288.431" y="-374.3" font-family="Times,serif" font-size="14.00" fill="#2c94b3">AS1299</text>
</a>
</g>
</g>
<!-- AS1764&#45;&gt;AS1299 -->
<g id="edge8" class="edge"><title>AS1764&#45;&gt;AS1299</title>
<path fill="none" stroke="black" stroke-width="1.28571" d="M180.046,-200.305C200.793,-234.635 247.26,-311.527 271.707,-351.981"/>
<polygon fill="black" stroke="black" stroke-width="1.28571" points="268.829,-353.986 276.996,-360.734 274.82,-350.365 268.829,-353.986"/>
</g>
<!-- AS6939 -->
<g id="node10" class="node"><title>AS6939</title>
<g id="a_node10"><a xlink:href="/asn/6939" xlink:title="AS6939 ~ Hurricane Electric LLC [US]">
<ellipse fill="#ffffff" stroke="black" cx="403.724" cy="-202" rx="39.7935" ry="18"/>
<text text-anchor="middle" x="403.724" y="-198.3" font-family="Times,serif" font-size="14.00" fill="#2c94b3">AS6939</text>
</a>
</g>
</g>
<!-- AS1764&#45;&gt;AS6939 -->
<g id="edge9" class="edge"><title>AS1764&#45;&gt;AS6939</title>
<path fill="none" stroke="black" stroke-width="1.28571" d="M207.825,-186.116C247.888,-189.381 310.927,-194.519 354.408,-198.062"/>
<polygon fill="black" stroke="black" stroke-width="1.28571" points="354.215,-201.558 364.466,-198.882 354.784,-194.581 354.215,-201.558"/>
</g>
<!-- AS28889&#45;&gt;AS174 -->
<g id="edge26" class="edge"><title>AS28889&#45;&gt;AS174</title>
<path fill="none" stroke="black" stroke-width="0.3" d="M211.135,-89.7116C221.781,-88.3565 233.258,-86.8956 243.996,-85.5287"/>
<polygon fill="black" stroke="black" stroke-width="0.3" points="244.536,-88.9883 254.014,-84.2536 243.652,-82.0444 244.536,-88.9883"/>
</g>
<!-- AS28889&#45;&gt;AS1299 -->
<g id="edge25" class="edge"><title>AS28889&#45;&gt;AS1299</title>
<path fill="none" stroke="black" stroke-width="4.5" d="M183.69,-112.015C192.924,-123.796 204.729,-140.152 212.784,-156 246.487,-222.304 270.137,-307.197 280.894,-350.264"/>
<polygon fill="black" stroke="black" stroke-width="4.5" points="277.083,-351.256 283.29,-360.03 284.731,-349.379 277.083,-351.256"/>
</g>
<!-- AS8245 -->
<g id="node22" class="node"><title>AS8245</title>
<g id="a_node22"><a xlink:href="/asn/8245" xlink:title="AS8245 ~ Video&#45;Broadcast GmbH [AT]">
<ellipse fill="#ffffff" stroke="black" cx="288.431" cy="-22" rx="39.7935" ry="18"/>
<text text-anchor="middle" x="288.431" y="-18.3" font-family="Times,serif" font-size="14.00" fill="#2c94b3">AS8245</text>
</a>
</g>
</g>
<!-- AS28889&#45;&gt;AS8245 -->
<g id="edge27" class="edge"><title>AS28889&#45;&gt;AS8245</title>
<path fill="none" stroke="black" stroke-width="0.3" d="M193.72,-80.0512C211.588,-68.9822 236.107,-53.7935 255.583,-41.7287"/>
<polygon fill="black" stroke="black" stroke-width="0.3" points="257.477,-44.6729 264.135,-36.4313 253.79,-38.7221 257.477,-44.6729"/>
</g>
<!-- AS3549 -->
<g id="node11" class="node"><title>AS3549</title>
<g id="a_node11"><a xlink:href="/asn/3549" xlink:title="AS3549 ~ Level 3 Parent, LLC [US]">
<ellipse fill="#ffffff" stroke="black" cx="523.566" cy="-328" rx="39.7935" ry="18"/>
<text text-anchor="middle" x="523.566" y="-324.3" font-family="Times,serif" font-size="14.00" fill="#2c94b3">AS3549</text>
</a>
</g>
</g>
<!-- AS3356&#45;&gt;AS3549 -->
<g id="edge10" class="edge"><title>AS3356&#45;&gt;AS3549</title>
<path fill="none" stroke="black" stroke-width="3" d="M443.31,-330.69C453.076,-330.359 463.693,-329.998 473.887,-329.652"/>
<polygon fill="black" stroke="black" stroke-width="3" points="474.018,-333.15 483.894,-329.313 473.781,-326.154 474.018,-333.15"/>
</g>
<!-- AS7018 -->
<g id="node12" class="node"><title>AS7018</title>
<g id="a_node12"><a xlink:href="/asn/7018" xlink:title="AS7018 ~ AT&amp;T Services, Inc. [US]">
<ellipse fill="#ffffff" stroke="black" cx="523.566" cy="-436" rx="39.7935" ry="18"/>
<text text-anchor="middle" x="523.566" y="-432.3" font-family="Times,serif" font-size="14.00" fill="#2c94b3">AS7018</text>
</a>
</g>
</g>
<!-- AS3356&#45;&gt;AS7018 -->
<g id="edge11" class="edge"><title>AS3356&#45;&gt;AS7018</title>
<path fill="none" stroke="black" d="M418.837,-348.772C433.128,-365.194 456.347,-390.391 479.37,-409 482.62,-411.627 486.142,-414.204 489.724,-416.66"/>
<polygon fill="black" stroke="black" points="487.81,-419.59 498.095,-422.137 491.644,-413.733 487.81,-419.59"/>
</g>
<!-- AS6453 -->
<g id="node13" class="node"><title>AS6453</title>
<g id="a_node13"><a xlink:href="/asn/6453" xlink:title="AS6453 ~ TATA COMMUNICATIONS (AMERICA) INC [US]">
<ellipse fill="#ffffff" stroke="black" cx="523.566" cy="-382" rx="39.7935" ry="18"/>
<text text-anchor="middle" x="523.566" y="-378.3" font-family="Times,serif" font-size="14.00" fill="#2c94b3">AS6453</text>
</a>
</g>
</g>
<!-- AS3356&#45;&gt;AS6453 -->
<g id="edge12" class="edge"><title>AS3356&#45;&gt;AS6453</title>
<path fill="none" stroke="black" stroke-width="2" d="M433.25,-344.104C448.624,-350.627 467.8,-358.763 484.439,-365.823"/>
<polygon fill="black" stroke="black" stroke-width="2" points="483.321,-369.151 493.894,-369.835 486.056,-362.707 483.321,-369.151"/>
</g>
<!-- AS2497 -->
<g id="node14" class="node"><title>AS2497</title>
<g id="a_node14"><a xlink:href="/asn/2497" xlink:title="AS2497 ~ Internet Initiative Japan Inc. [JP]">
<ellipse fill="#ffffff" stroke="black" cx="523.566" cy="-220" rx="39.7935" ry="18"/>
<text text-anchor="middle" x="523.566" y="-216.3" font-family="Times,serif" font-size="14.00" fill="#2c94b3">AS2497</text>
</a>
</g>
</g>
<!-- AS3356&#45;&gt;AS2497 -->
<g id="edge13" class="edge"><title>AS3356&#45;&gt;AS2497</title>
<path fill="none" stroke="black" stroke-width="2" d="M425.346,-316.728C431.471,-311.73 437.979,-305.929 443.37,-300 462.528,-278.932 458.856,-266.749 479.37,-247 482.227,-244.25 485.409,-241.634 488.714,-239.191"/>
<polygon fill="black" stroke="black" stroke-width="2" points="490.778,-242.02 497.067,-233.494 486.834,-236.237 490.778,-242.02"/>
</g>
<!-- AS6762 -->
<g id="node15" class="node"><title>AS6762</title>
<g id="a_node15"><a xlink:href="/asn/6762" xlink:title="AS6762 ~ TELECOM ITALIA SPARKLE S.p.A. [IT]">
<ellipse fill="#ffffff" stroke="black" cx="523.566" cy="-546" rx="39.7935" ry="18"/>
<text text-anchor="middle" x="523.566" y="-542.3" font-family="Times,serif" font-size="14.00" fill="#2c94b3">AS6762</text>
</a>
</g>
</g>
<!-- AS3356&#45;&gt;AS6762 -->
<g id="edge14" class="edge"><title>AS3356&#45;&gt;AS6762</title>
<path fill="none" stroke="black" stroke-width="2" d="M408.29,-350.116C415.999,-385.483 437.041,-464.82 479.37,-517 482.059,-520.314 485.227,-523.393 488.605,-526.211"/>
<polygon fill="black" stroke="black" stroke-width="2" points="486.639,-529.111 496.744,-532.298 490.832,-523.506 486.639,-529.111"/>
</g>
<!-- AS3491 -->
<g id="node16" class="node"><title>AS3491</title>
<g id="a_node16"><a xlink:href="/asn/3491" xlink:title="AS3491 ~ PCCW Global, Inc. [US]">
<ellipse fill="#ffffff" stroke="black" cx="523.566" cy="-112" rx="39.7935" ry="18"/>
<text text-anchor="middle" x="523.566" y="-108.3" font-family="Times,serif" font-size="14.00" fill="#2c94b3">AS3491</text>
</a>
</g>
</g>
<!-- AS3356&#45;&gt;AS3491 -->
<g id="edge15" class="edge"><title>AS3356&#45;&gt;AS3491</title>
<path fill="none" stroke="black" d="M411.427,-314.23C429.204,-267.159 476.402,-142.592 479.37,-139 481.764,-136.103 484.554,-133.423 487.542,-130.969"/>
<polygon fill="black" stroke="black" points="489.733,-133.704 495.779,-125.004 485.627,-128.035 489.733,-133.704"/>
</g>
<!-- AS701 -->
<g id="node17" class="node"><title>AS701</title>
<g id="a_node17"><a xlink:href="/asn/701" xlink:title="AS701 ~ UUNET [US]">
<ellipse fill="#ffffff" stroke="black" cx="523.566" cy="-490" rx="35.194" ry="18"/>
<text text-anchor="middle" x="523.566" y="-486.3" font-family="Times,serif" font-size="14.00" fill="#2c94b3">AS701</text>
</a>
</g>
</g>
<!-- AS3356&#45;&gt;AS701 -->
<g id="edge16" class="edge"><title>AS3356&#45;&gt;AS701</title>
<path fill="none" stroke="black" d="M411.559,-349.895C422.567,-376.921 446.376,-428.634 479.37,-463 482.333,-466.086 485.719,-468.97 489.261,-471.618"/>
<polygon fill="black" stroke="black" points="487.452,-474.62 497.688,-477.352 491.39,-468.832 487.452,-474.62"/>
</g>
<!-- AS1273 -->
<g id="node18" class="node"><title>AS1273</title>
<g id="a_node18"><a xlink:href="/asn/1273" xlink:title="AS1273 ~ Vodafone Group PLC [EU]">
<ellipse fill="#ffffff" stroke="black" cx="523.566" cy="-274" rx="39.7935" ry="18"/>
<text text-anchor="middle" x="523.566" y="-270.3" font-family="Times,serif" font-size="14.00" fill="#2c94b3">AS1273</text>
</a>
</g>
</g>
<!-- AS3356&#45;&gt;AS1273 -->
<g id="edge17" class="edge"><title>AS3356&#45;&gt;AS1273</title>
<path fill="none" stroke="black" d="M431.17,-318.984C447.581,-310.906 468.881,-300.423 486.789,-291.609"/>
<polygon fill="black" stroke="black" points="488.374,-294.73 495.801,-287.174 485.283,-288.449 488.374,-294.73"/>
</g>
<!-- AS6461 -->
<g id="node19" class="node"><title>AS6461</title>
<g id="a_node19"><a xlink:href="/asn/6461" xlink:title="AS6461 ~ Zayo Bandwidth [US]">
<ellipse fill="#ffffff" stroke="black" cx="523.566" cy="-18" rx="39.7935" ry="18"/>
<text text-anchor="middle" x="523.566" y="-14.3" font-family="Times,serif" font-size="14.00" fill="#2c94b3">AS6461</text>
</a>
</g>
</g>
<!-- AS8218&#45;&gt;AS6461 -->
<g id="edge18" class="edge"><title>AS8218&#45;&gt;AS6461</title>
<path fill="none" stroke="black" stroke-width="3" d="M443.636,-18C453.19,-18 463.539,-18 473.502,-18"/>
<polygon fill="black" stroke="black" stroke-width="3" points="473.695,-21.5001 483.695,-18 473.694,-14.5001 473.695,-21.5001"/>
</g>
<!-- AS2914&#45;&gt;AS6762 -->
<g id="edge21" class="edge"><title>AS2914&#45;&gt;AS6762</title>
<path fill="none" stroke="black" stroke-width="2" d="M425.792,-614.982C444.527,-601.627 472.119,-581.96 493.051,-567.039"/>
<polygon fill="black" stroke="black" stroke-width="2" points="495.172,-569.825 501.284,-561.171 491.109,-564.125 495.172,-569.825"/>
</g>
<!-- AS2914&#45;&gt;AS1273 -->
<g id="edge22" class="edge"><title>AS2914&#45;&gt;AS1273</title>
<path fill="none" stroke="black" d="M412.69,-612.125C421.423,-591.86 435.267,-557.652 443.37,-527 469.367,-428.668 423.2,-385.794 479.37,-301 481.275,-298.125 483.602,-295.499 486.178,-293.113"/>
<polygon fill="black" stroke="black" points="488.729,-295.564 494.482,-286.667 484.437,-290.034 488.729,-295.564"/>
</g>
<!-- AS1239 -->
<g id="node20" class="node"><title>AS1239</title>
<g id="a_node20"><a xlink:href="/asn/1239" xlink:title="AS1239 ~ Sprint [US]">
<ellipse fill="#ffffff" stroke="black" cx="523.566" cy="-670" rx="39.7935" ry="18"/>
<text text-anchor="middle" x="523.566" y="-666.3" font-family="Times,serif" font-size="14.00" fill="#2c94b3">AS1239</text>
</a>
</g>
</g>
<!-- AS2914&#45;&gt;AS1239 -->
<g id="edge20" class="edge"><title>AS2914&#45;&gt;AS1239</title>
<path fill="none" stroke="black" d="M435.994,-640.614C449.978,-645.361 466.648,-651.019 481.61,-656.098"/>
<polygon fill="black" stroke="black" points="480.556,-659.436 491.15,-659.336 482.806,-652.808 480.556,-659.436"/>
</g>
<!-- AS12956 -->
<g id="node21" class="node"><title>AS12956</title>
<g id="a_node21"><a xlink:href="/asn/12956" xlink:title="AS12956 ~ TELXIUS [ES]">
<ellipse fill="#ffffff" stroke="black" cx="523.566" cy="-611" rx="44.393" ry="18"/>
<text text-anchor="middle" x="523.566" y="-607.3" font-family="Times,serif" font-size="14.00" fill="#2c94b3">AS12956</text>
</a>
</g>
</g>
<!-- AS2914&#45;&gt;AS12956 -->
<g id="edge23" class="edge"><title>AS2914&#45;&gt;AS12956</title>
<path fill="none" stroke="black" d="M441.364,-624.092C451.093,-622.524 461.773,-620.802 472.099,-619.137"/>
<polygon fill="black" stroke="black" points="472.943,-622.546 482.259,-617.499 471.829,-615.635 472.943,-622.546"/>
</g>
<!-- AS3257&#45;&gt;AS3491 -->
<g id="edge19" class="edge"><title>AS3257&#45;&gt;AS3491</title>
<path fill="none" stroke="black" d="M443.636,-110.66C453.19,-110.823 463.539,-110.998 473.502,-111.167"/>
<polygon fill="black" stroke="black" points="473.637,-114.67 483.695,-111.34 473.755,-107.671 473.637,-114.67"/>
</g>
<!-- AS174&#45;&gt;AS3491 -->
<g id="edge24" class="edge"><title>AS174&#45;&gt;AS3491</title>
<path fill="none" stroke="black" d="M323.392,-77.4688C354.804,-75.8784 402.647,-75.3684 443.37,-83 457.476,-85.6435 472.39,-90.5139 485.425,-95.5184"/>
<polygon fill="black" stroke="black" points="484.398,-98.8769 494.983,-99.337 486.995,-92.3765 484.398,-98.8769"/>
</g>
<!-- AS1299&#45;&gt;AS3356 -->
<g id="edge32" class="edge"><title>AS1299&#45;&gt;AS3356</title>
<path fill="none" stroke="black" stroke-width="2" d="M318.607,-366.154C332.482,-360.52 349.259,-353.708 364.169,-347.654"/>
<polygon fill="black" stroke="black" stroke-width="2" points="365.698,-350.811 373.647,-343.806 363.065,-344.325 365.698,-350.811"/>
</g>
<!-- AS1299&#45;&gt;AS2914 -->
<g id="edge38" class="edge"><title>AS1299&#45;&gt;AS2914</title>
<path fill="none" stroke="black" d="M294.164,-395.983C306.537,-442.181 340.512,-563.787 364.077,-598 366.648,-601.733 369.771,-605.27 373.114,-608.537"/>
<polygon fill="black" stroke="black" points="370.854,-611.211 380.658,-615.229 375.5,-605.974 370.854,-611.211"/>
</g>
<!-- AS1299&#45;&gt;AS3257 -->
<g id="edge29" class="edge"><title>AS1299&#45;&gt;AS3257</title>
<path fill="none" stroke="black" d="M291.605,-359.921C297.325,-318.27 315.822,-213.639 364.077,-142 366.609,-138.241 369.709,-134.688 373.04,-131.413"/>
<polygon fill="black" stroke="black" points="375.426,-133.974 380.573,-124.714 370.775,-128.743 375.426,-133.974"/>
</g>
<!-- AS1299&#45;&gt;AS7018 -->
<g id="edge30" class="edge"><title>AS1299&#45;&gt;AS7018</title>
<path fill="none" stroke="black" stroke-width="2" d="M323.831,-386.558C364.927,-396.782 433.748,-413.903 478.65,-425.074"/>
<polygon fill="black" stroke="black" stroke-width="2" points="477.856,-428.483 488.405,-427.501 479.546,-421.69 477.856,-428.483"/>
</g>
<!-- AS1299&#45;&gt;AS6453 -->
<g id="edge37" class="edge"><title>AS1299&#45;&gt;AS6453</title>
<path fill="none" stroke="black" d="M328.19,-378.665C368.106,-379.35 430.425,-380.419 473.696,-381.162"/>
<polygon fill="black" stroke="black" points="473.656,-384.661 483.714,-381.333 473.776,-377.662 473.656,-384.661"/>
</g>
<!-- AS1299&#45;&gt;AS2497 -->
<g id="edge33" class="edge"><title>AS1299&#45;&gt;AS2497</title>
<path fill="none" stroke="black" d="M303.995,-361.248C318.259,-345.482 341.137,-321.841 364.077,-305 366.873,-302.947 442.198,-262.765 487.982,-238.393"/>
<polygon fill="black" stroke="black" points="489.808,-241.386 496.991,-233.599 486.519,-235.207 489.808,-241.386"/>
</g>
<!-- AS1299&#45;&gt;AS6762 -->
<g id="edge35" class="edge"><title>AS1299&#45;&gt;AS6762</title>
<path fill="none" stroke="black" d="M292.736,-396.045C299.67,-428.269 318.991,-495.297 364.077,-527 396.229,-549.607 441.401,-552.997 475.298,-551.523"/>
<polygon fill="black" stroke="black" points="475.653,-555.009 485.429,-550.926 475.24,-548.021 475.653,-555.009"/>
</g>
<!-- AS1299&#45;&gt;AS3491 -->
<g id="edge40" class="edge"><title>AS1299&#45;&gt;AS3491</title>
<path fill="none" stroke="black" d="M291.164,-359.957C295.831,-321.032 312.061,-228.386 364.077,-175 372.722,-166.128 437.788,-141.935 481.818,-126.242"/>
<polygon fill="black" stroke="black" points="483.159,-129.48 491.413,-122.837 480.819,-122.883 483.159,-129.48"/>
</g>
<!-- AS1299&#45;&gt;AS701 -->
<g id="edge28" class="edge"><title>AS1299&#45;&gt;AS701</title>
<path fill="none" stroke="black" d="M313.317,-392.218C327.813,-400.65 346.792,-411.345 364.077,-420 405.149,-440.565 453.614,-461.502 486.039,-475.051"/>
<polygon fill="black" stroke="black" points="484.983,-478.403 495.561,-479.01 487.671,-471.939 484.983,-478.403"/>
</g>
<!-- AS1299&#45;&gt;AS1239 -->
<g id="edge34" class="edge"><title>AS1299&#45;&gt;AS1239</title>
<path fill="none" stroke="black" d="M291.572,-396.074C298.63,-452.359 323.084,-622.778 364.077,-657 395.133,-682.926 442.564,-683.431 477.449,-679.123"/>
<polygon fill="black" stroke="black" points="477.97,-682.584 487.385,-677.726 476.995,-675.652 477.97,-682.584"/>
</g>
<!-- AS1299&#45;&gt;AS12956 -->
<g id="edge36" class="edge"><title>AS1299&#45;&gt;AS12956</title>
<path fill="none" stroke="black" d="M292.266,-396.06C298.695,-431.136 317.596,-508.891 364.077,-553 393.48,-580.902 437.389,-595.586 471.539,-603.189"/>
<polygon fill="black" stroke="black" points="470.838,-606.618 481.343,-605.239 472.271,-599.766 470.838,-606.618"/>
</g>
<!-- AS209 -->
<g id="node23" class="node"><title>AS209</title>
<g id="a_node23"><a xlink:href="/asn/209" xlink:title="AS209 ~ CenturyLink Communications, LLC [US]">
<ellipse fill="#ffffff" stroke="black" cx="523.566" cy="-166" rx="35.194" ry="18"/>
<text text-anchor="middle" x="523.566" y="-162.3" font-family="Times,serif" font-size="14.00" fill="#2c94b3">AS209</text>
</a>
</g>
</g>
<!-- AS1299&#45;&gt;AS209 -->
<g id="edge31" class="edge"><title>AS1299&#45;&gt;AS209</title>
<path fill="none" stroke="black" stroke-width="2" d="M296.705,-360.295C307.804,-335.261 331.199,-289.507 364.077,-262 393.354,-237.506 411.65,-250.234 443.37,-229 462.174,-216.413 461.663,-207.087 479.37,-193 482.891,-190.199 486.719,-187.445 490.592,-184.83"/>
<polygon fill="black" stroke="black" stroke-width="2" points="492.548,-187.733 499.042,-179.362 488.745,-181.856 492.548,-187.733"/>
</g>
<!-- AS3320 -->
<g id="node24" class="node"><title>AS3320</title>
<g id="a_node24"><a xlink:href="/asn/3320" xlink:title="AS3320 ~ DTAG [DE]">
<ellipse fill="#ffffff" stroke="black" cx="403.724" cy="-500" rx="39.7935" ry="18"/>
<text text-anchor="middle" x="403.724" y="-496.3" font-family="Times,serif" font-size="14.00" fill="#2c94b3">AS3320</text>
</a>
</g>
</g>
<!-- AS1299&#45;&gt;AS3320 -->
<g id="edge39" class="edge"><title>AS1299&#45;&gt;AS3320</title>
<path fill="none" stroke="black" d="M302.04,-395.057C316.222,-413.781 340.383,-444.325 364.077,-468 367.355,-471.275 370.939,-474.57 374.56,-477.736"/>
<polygon fill="black" stroke="black" points="372.547,-480.618 382.443,-484.402 377.067,-475.273 372.547,-480.618"/>
</g>
<!-- AS6939&#45;&gt;AS2497 -->
<g id="edge42" class="edge"><title>AS6939&#45;&gt;AS2497</title>
<path fill="none" stroke="black" d="M441.687,-207.646C452.436,-209.288 464.323,-211.104 475.6,-212.826"/>
<polygon fill="black" stroke="black" points="475.321,-216.324 485.735,-214.374 476.378,-209.404 475.321,-216.324"/>
</g>
<!-- AS6939&#45;&gt;AS3491 -->
<g id="edge45" class="edge"><title>AS6939&#45;&gt;AS3491</title>
<path fill="none" stroke="black" d="M424.049,-186.122C430.242,-181.001 437.114,-175.283 443.37,-170 459.503,-156.377 462.369,-151.521 479.37,-139 482.735,-136.522 486.329,-134.039 489.953,-131.637"/>
<polygon fill="black" stroke="black" points="491.855,-134.575 498.371,-126.221 488.068,-128.689 491.855,-134.575"/>
</g>
<!-- AS6939&#45;&gt;AS1273 -->
<g id="edge43" class="edge"><title>AS6939&#45;&gt;AS1273</title>
<path fill="none" stroke="black" d="M428.288,-216.397C446.111,-227.287 470.784,-242.362 490.419,-254.358"/>
<polygon fill="black" stroke="black" points="488.685,-257.401 499.043,-259.628 492.335,-251.427 488.685,-257.401"/>
</g>
<!-- AS6939&#45;&gt;AS209 -->
<g id="edge44" class="edge"><title>AS6939&#45;&gt;AS209</title>
<path fill="none" stroke="black" d="M437.237,-192.068C451.407,-187.739 468.147,-182.625 483.029,-178.078"/>
<polygon fill="black" stroke="black" points="484.441,-181.307 492.982,-175.038 482.395,-174.612 484.441,-181.307"/>
</g>
<!-- AS8245&#45;&gt;AS8218 -->
<g id="edge41" class="edge"><title>AS8245&#45;&gt;AS8218</title>
<path fill="none" stroke="black" d="M328.103,-20.6346C336.306,-20.345 345.07,-20.0356 353.602,-19.7343"/>
<polygon fill="black" stroke="black" points="353.971,-23.2236 363.841,-19.3728 353.724,-16.2279 353.971,-23.2236"/>
</g>
</g>
</svg>
