<?xml version="1.0" encoding="UTF-8" standalone="no"?>
<!DOCTYPE svg PUBLIC "-//W3C//DTD SVG 1.1//EN"
 "http://www.w3.org/Graphics/SVG/1.1/DTD/svg11.dtd">
<!-- Generated by graphviz version 2.38.0 (20140413.2041)
 -->
<!-- Title: AS59909 IPv6 Upstream Graph Pages: 1 -->
<svg width="442pt" height="530pt"
 viewBox="0.00 0.00 442.27 530.00" xmlns="http://www.w3.org/2000/svg" xmlns:xlink="http://www.w3.org/1999/xlink">
<g id="graph0" class="graph" transform="scale(1 1) rotate(0) translate(4 526)">
<title>AS59909 IPv6 Upstream Graph</title>
<polygon fill="white" stroke="none" points="-4,4 -4,-526 438.271,-526 438.271,4 -4,4"/>
<!-- AS59909 -->
<g id="node1" class="node"><title>AS59909</title>
<g id="a_node1"><a xlink:href="/asn/59909" xlink:title="AS59909 ~ Tele&#45;Tec GmbH [AT]">
<ellipse fill="#ffffff" stroke="black" cx="44.1961" cy="-178" rx="44.393" ry="18"/>
<text text-anchor="middle" x="44.1961" y="-174.3" font-family="Times,serif" font-size="14.00" fill="#880000">AS59909</text>
</a>
</g>
</g>
<!-- AS1764 -->
<g id="node2" class="node"><title>AS1764</title>
<g id="a_node2"><a xlink:href="/asn/1764" xlink:title="AS1764 ~ NEXTLAYER&#45;AS [AT]">
<ellipse fill="#ffffff" stroke="black" cx="164.039" cy="-178" rx="39.7935" ry="18"/>
<text text-anchor="middle" x="164.039" y="-174.3" font-family="Times,serif" font-size="14.00" fill="#2c94b3">AS1764</text>
</a>
</g>
</g>
<!-- AS59909&#45;&gt;AS1764 -->
<g id="edge1" class="edge"><title>AS59909&#45;&gt;AS1764</title>
<path fill="none" stroke="black" stroke-width="4.5" d="M88.4072,-178C96.7198,-178 105.482,-178 113.965,-178"/>
<polygon fill="black" stroke="black" stroke-width="4.5" points="114.123,-181.938 124.123,-178 114.123,-174.063 114.123,-181.938"/>
</g>
<!-- AS8218 -->
<g id="node3" class="node"><title>AS8218</title>
<g id="a_node3"><a xlink:href="/asn/8218" xlink:title="AS8218 ~ legacy Neotelecoms [FR]">
<ellipse fill="#ffffff" stroke="black" cx="279.332" cy="-477" rx="39.7935" ry="18"/>
<text text-anchor="middle" x="279.332" y="-473.3" font-family="Times,serif" font-size="14.00" fill="#2c94b3">AS8218</text>
</a>
</g>
</g>
<!-- AS1764&#45;&gt;AS8218 -->
<g id="edge2" class="edge"><title>AS1764&#45;&gt;AS8218</title>
<path fill="none" stroke="black" stroke-width="0.5625" d="M168.417,-195.969C176.672,-237.527 200.131,-342.854 239.685,-423 244.583,-432.925 251.242,-442.999 257.653,-451.716"/>
<polygon fill="black" stroke="black" stroke-width="0.5625" points="255.062,-454.091 263.906,-459.925 260.63,-449.849 255.062,-454.091"/>
</g>
<!-- AS1299 -->
<g id="node4" class="node"><title>AS1299</title>
<g id="a_node4"><a xlink:href="/asn/1299" xlink:title="AS1299 ~ Telia Carrier [EU]">
<ellipse fill="#ffffff" stroke="black" cx="279.332" cy="-396" rx="39.7935" ry="18"/>
<text text-anchor="middle" x="279.332" y="-392.3" font-family="Times,serif" font-size="14.00" fill="#2c94b3">AS1299</text>
</a>
</g>
</g>
<!-- AS1764&#45;&gt;AS1299 -->
<g id="edge3" class="edge"><title>AS1764&#45;&gt;AS1299</title>
<path fill="none" stroke="black" stroke-width="1.6875" d="M174.118,-195.471C193.923,-233.579 241.103,-324.363 264.578,-369.534"/>
<polygon fill="black" stroke="black" stroke-width="1.6875" points="261.492,-371.186 269.209,-378.445 267.703,-367.958 261.492,-371.186"/>
</g>
<!-- AS3356 -->
<g id="node5" class="node"><title>AS3356</title>
<g id="a_node5"><a xlink:href="/asn/3356" xlink:title="AS3356 ~ Level 3 Parent, LLC [US]">
<ellipse fill="#ffffff" stroke="black" cx="279.332" cy="-207" rx="39.7935" ry="18"/>
<text text-anchor="middle" x="279.332" y="-203.3" font-family="Times,serif" font-size="14.00" fill="#2c94b3">AS3356</text>
</a>
</g>
</g>
<!-- AS1764&#45;&gt;AS3356 -->
<g id="edge4" class="edge"><title>AS1764&#45;&gt;AS3356</title>
<path fill="none" stroke="black" stroke-width="4.5" d="M199.03,-186.701C210.233,-189.568 222.85,-192.798 234.671,-195.824"/>
<polygon fill="black" stroke="black" stroke-width="4.5" points="233.7,-199.64 244.364,-198.305 235.653,-192.011 233.7,-199.64"/>
</g>
<!-- AS6939 -->
<g id="node6" class="node"><title>AS6939</title>
<g id="a_node6"><a xlink:href="/asn/6939" xlink:title="AS6939 ~ Hurricane Electric LLC [US]">
<ellipse fill="#ffffff" stroke="black" cx="279.332" cy="-150" rx="39.7935" ry="18"/>
<text text-anchor="middle" x="279.332" y="-146.3" font-family="Times,serif" font-size="14.00" fill="#2c94b3">AS6939</text>
</a>
</g>
</g>
<!-- AS1764&#45;&gt;AS6939 -->
<g id="edge5" class="edge"><title>AS1764&#45;&gt;AS6939</title>
<path fill="none" stroke="black" stroke-width="2.8125" d="M199.338,-169.523C210.319,-166.809 222.634,-163.765 234.214,-160.904"/>
<polygon fill="black" stroke="black" stroke-width="2.8125" points="235.281,-164.245 244.149,-158.448 233.601,-157.45 235.281,-164.245"/>
</g>
<!-- AS2914 -->
<g id="node7" class="node"><title>AS2914</title>
<g id="a_node7"><a xlink:href="/asn/2914" xlink:title="AS2914 ~ NTT America, Inc. [US]">
<ellipse fill="#ffffff" stroke="black" cx="279.332" cy="-89" rx="39.7935" ry="18"/>
<text text-anchor="middle" x="279.332" y="-85.3" font-family="Times,serif" font-size="14.00" fill="#2c94b3">AS2914</text>
</a>
</g>
</g>
<!-- AS1764&#45;&gt;AS2914 -->
<g id="edge6" class="edge"><title>AS1764&#45;&gt;AS2914</title>
<path fill="none" stroke="black" stroke-width="1.125" d="M184.773,-162.497C202.937,-148.228 230.071,-126.912 250.447,-110.905"/>
<polygon fill="black" stroke="black" stroke-width="1.125" points="252.742,-113.553 258.443,-104.624 248.418,-108.049 252.742,-113.553"/>
</g>
<!-- AS174 -->
<g id="node8" class="node"><title>AS174</title>
<g id="a_node8"><a xlink:href="/asn/174" xlink:title="AS174 ~ Cogent Communications [US]">
<ellipse fill="#ffffff" stroke="black" cx="279.332" cy="-22" rx="35.194" ry="18"/>
<text text-anchor="middle" x="279.332" y="-18.3" font-family="Times,serif" font-size="14.00" fill="#2c94b3">AS174</text>
</a>
</g>
</g>
<!-- AS1764&#45;&gt;AS174 -->
<g id="edge7" class="edge"><title>AS1764&#45;&gt;AS174</title>
<path fill="none" stroke="black" stroke-width="0.5625" d="M174.912,-160.376C188.334,-136.995 213.66,-94.8498 239.685,-62 244.197,-56.3045 249.396,-50.5012 254.488,-45.1455"/>
<polygon fill="black" stroke="black" stroke-width="0.5625" points="257.293,-47.2824 261.779,-37.6839 252.287,-42.3901 257.293,-47.2824"/>
</g>
<!-- AS6461 -->
<g id="node9" class="node"><title>AS6461</title>
<g id="a_node9"><a xlink:href="/asn/6461" xlink:title="AS6461 ~ Zayo Bandwidth [US]">
<ellipse fill="#ffffff" stroke="black" cx="394.625" cy="-504" rx="39.7935" ry="18"/>
<text text-anchor="middle" x="394.625" y="-500.3" font-family="Times,serif" font-size="14.00" fill="#2c94b3">AS6461</text>
</a>
</g>
</g>
<!-- AS8218&#45;&gt;AS6461 -->
<g id="edge8" class="edge"><title>AS8218&#45;&gt;AS6461</title>
<path fill="none" stroke="black" d="M314.939,-485.248C325.81,-487.838 337.964,-490.735 349.407,-493.462"/>
<polygon fill="black" stroke="black" points="348.69,-496.889 359.229,-495.803 350.313,-490.08 348.69,-496.889"/>
</g>
<!-- AS7018 -->
<g id="node10" class="node"><title>AS7018</title>
<g id="a_node10"><a xlink:href="/asn/7018" xlink:title="AS7018 ~ AT&amp;T Services, Inc. [US]">
<ellipse fill="#ffffff" stroke="black" cx="394.625" cy="-450" rx="39.7935" ry="18"/>
<text text-anchor="middle" x="394.625" y="-446.3" font-family="Times,serif" font-size="14.00" fill="#2c94b3">AS7018</text>
</a>
</g>
</g>
<!-- AS1299&#45;&gt;AS7018 -->
<g id="edge9" class="edge"><title>AS1299&#45;&gt;AS7018</title>
<path fill="none" stroke="black" d="M307.468,-408.934C322.462,-416.081 341.283,-425.052 357.506,-432.785"/>
<polygon fill="black" stroke="black" points="356.177,-436.028 366.71,-437.171 359.188,-429.709 356.177,-436.028"/>
</g>
<!-- AS209 -->
<g id="node11" class="node"><title>AS209</title>
<g id="a_node11"><a xlink:href="/asn/209" xlink:title="AS209 ~ CenturyLink Communications, LLC [US]">
<ellipse fill="#ffffff" stroke="black" cx="394.625" cy="-396" rx="35.194" ry="18"/>
<text text-anchor="middle" x="394.625" y="-392.3" font-family="Times,serif" font-size="14.00" fill="#2c94b3">AS209</text>
</a>
</g>
</g>
<!-- AS1299&#45;&gt;AS209 -->
<g id="edge10" class="edge"><title>AS1299&#45;&gt;AS209</title>
<path fill="none" stroke="black" d="M319.004,-396C328.709,-396 339.2,-396 349.163,-396"/>
<polygon fill="black" stroke="black" points="349.299,-399.5 359.299,-396 349.299,-392.5 349.299,-399.5"/>
</g>
<!-- AS3356&#45;&gt;AS209 -->
<g id="edge13" class="edge"><title>AS3356&#45;&gt;AS209</title>
<path fill="none" stroke="black" d="M285.206,-225.002C294.52,-256.844 317.336,-323.981 354.978,-369 357.131,-371.574 359.585,-374.017 362.189,-376.303"/>
<polygon fill="black" stroke="black" points="360.273,-379.249 370.3,-382.672 364.596,-373.743 360.273,-379.249"/>
</g>
<!-- AS1273 -->
<g id="node12" class="node"><title>AS1273</title>
<g id="a_node12"><a xlink:href="/asn/1273" xlink:title="AS1273 ~ Vodafone Group PLC [EU]">
<ellipse fill="#ffffff" stroke="black" cx="394.625" cy="-180" rx="39.7935" ry="18"/>
<text text-anchor="middle" x="394.625" y="-176.3" font-family="Times,serif" font-size="14.00" fill="#2c94b3">AS1273</text>
</a>
</g>
</g>
<!-- AS3356&#45;&gt;AS1273 -->
<g id="edge11" class="edge"><title>AS3356&#45;&gt;AS1273</title>
<path fill="none" stroke="black" d="M314.939,-198.752C325.81,-196.162 337.964,-193.265 349.407,-190.538"/>
<polygon fill="black" stroke="black" points="350.313,-193.92 359.229,-188.197 348.69,-187.111 350.313,-193.92"/>
</g>
<!-- AS6453 -->
<g id="node13" class="node"><title>AS6453</title>
<g id="a_node13"><a xlink:href="/asn/6453" xlink:title="AS6453 ~ TATA COMMUNICATIONS (AMERICA) INC [US]">
<ellipse fill="#ffffff" stroke="black" cx="394.625" cy="-342" rx="39.7935" ry="18"/>
<text text-anchor="middle" x="394.625" y="-338.3" font-family="Times,serif" font-size="14.00" fill="#2c94b3">AS6453</text>
</a>
</g>
</g>
<!-- AS3356&#45;&gt;AS6453 -->
<g id="edge12" class="edge"><title>AS3356&#45;&gt;AS6453</title>
<path fill="none" stroke="black" d="M289.791,-224.49C302.573,-247.096 327.005,-286.886 354.978,-315 357.089,-317.121 359.385,-319.188 361.77,-321.171"/>
<polygon fill="black" stroke="black" points="360.023,-324.242 370.086,-327.556 364.286,-318.69 360.023,-324.242"/>
</g>
<!-- AS2497 -->
<g id="node14" class="node"><title>AS2497</title>
<g id="a_node14"><a xlink:href="/asn/2497" xlink:title="AS2497 ~ Internet Initiative Japan Inc. [JP]">
<ellipse fill="#ffffff" stroke="black" cx="394.625" cy="-126" rx="39.7935" ry="18"/>
<text text-anchor="middle" x="394.625" y="-122.3" font-family="Times,serif" font-size="14.00" fill="#2c94b3">AS2497</text>
</a>
</g>
</g>
<!-- AS3356&#45;&gt;AS2497 -->
<g id="edge14" class="edge"><title>AS3356&#45;&gt;AS2497</title>
<path fill="none" stroke="black" d="M301.18,-191.778C316.114,-180.909 336.727,-165.975 354.978,-153 357.799,-150.995 360.742,-148.915 363.69,-146.841"/>
<polygon fill="black" stroke="black" points="365.736,-149.681 371.914,-141.074 361.717,-143.95 365.736,-149.681"/>
</g>
<!-- AS3549 -->
<g id="node15" class="node"><title>AS3549</title>
<g id="a_node15"><a xlink:href="/asn/3549" xlink:title="AS3549 ~ Level 3 Parent, LLC [US]">
<ellipse fill="#ffffff" stroke="black" cx="394.625" cy="-288" rx="39.7935" ry="18"/>
<text text-anchor="middle" x="394.625" y="-284.3" font-family="Times,serif" font-size="14.00" fill="#2c94b3">AS3549</text>
</a>
</g>
</g>
<!-- AS3356&#45;&gt;AS3549 -->
<g id="edge15" class="edge"><title>AS3356&#45;&gt;AS3549</title>
<path fill="none" stroke="black" d="M301.18,-222.222C316.114,-233.091 336.727,-248.025 354.978,-261 357.799,-263.005 360.742,-265.085 363.69,-267.159"/>
<polygon fill="black" stroke="black" points="361.717,-270.05 371.914,-272.926 365.736,-264.319 361.717,-270.05"/>
</g>
<!-- AS701 -->
<g id="node16" class="node"><title>AS701</title>
<g id="a_node16"><a xlink:href="/asn/701" xlink:title="AS701 ~ UUNET [US]">
<ellipse fill="#ffffff" stroke="black" cx="394.625" cy="-234" rx="35.194" ry="18"/>
<text text-anchor="middle" x="394.625" y="-230.3" font-family="Times,serif" font-size="14.00" fill="#2c94b3">AS701</text>
</a>
</g>
</g>
<!-- AS3356&#45;&gt;AS701 -->
<g id="edge16" class="edge"><title>AS3356&#45;&gt;AS701</title>
<path fill="none" stroke="black" d="M314.939,-215.248C326.733,-218.058 340.038,-221.229 352.306,-224.153"/>
<polygon fill="black" stroke="black" points="351.772,-227.624 362.311,-226.537 353.394,-220.814 351.772,-227.624"/>
</g>
<!-- AS6762 -->
<g id="node17" class="node"><title>AS6762</title>
<g id="a_node17"><a xlink:href="/asn/6762" xlink:title="AS6762 ~ TELECOM ITALIA SPARKLE S.p.A. [IT]">
<ellipse fill="#ffffff" stroke="black" cx="394.625" cy="-72" rx="39.7935" ry="18"/>
<text text-anchor="middle" x="394.625" y="-68.3" font-family="Times,serif" font-size="14.00" fill="#2c94b3">AS6762</text>
</a>
</g>
</g>
<!-- AS3356&#45;&gt;AS6762 -->
<g id="edge17" class="edge"><title>AS3356&#45;&gt;AS6762</title>
<path fill="none" stroke="black" d="M302.812,-192.447C308.58,-187.98 314.433,-182.718 318.978,-177 342.734,-147.11 330.478,-128.283 354.978,-99 356.849,-96.7637 358.948,-94.6269 361.175,-92.6053"/>
<polygon fill="black" stroke="black" points="363.521,-95.2089 369.094,-86.1981 359.118,-89.7668 363.521,-95.2089"/>
</g>
<!-- AS6939&#45;&gt;AS209 -->
<g id="edge18" class="edge"><title>AS6939&#45;&gt;AS209</title>
<path fill="none" stroke="black" d="M304.18,-164.19C309.81,-168.594 315.252,-173.915 318.978,-180 363.634,-252.924 308.503,-297.222 354.978,-369 356.802,-371.817 359.033,-374.424 361.494,-376.816"/>
<polygon fill="black" stroke="black" points="359.452,-379.669 369.389,-383.344 363.912,-374.274 359.452,-379.669"/>
</g>
<!-- AS6939&#45;&gt;AS1273 -->
<g id="edge22" class="edge"><title>AS6939&#45;&gt;AS1273</title>
<path fill="none" stroke="black" d="M314.016,-158.92C325.329,-161.915 338.112,-165.3 350.072,-168.467"/>
<polygon fill="black" stroke="black" points="349.311,-171.886 359.874,-171.063 351.103,-165.12 349.311,-171.886"/>
</g>
<!-- AS6939&#45;&gt;AS2497 -->
<g id="edge19" class="edge"><title>AS6939&#45;&gt;AS2497</title>
<path fill="none" stroke="black" d="M315.557,-142.538C326.001,-140.325 337.584,-137.872 348.561,-135.546"/>
<polygon fill="black" stroke="black" points="349.363,-138.954 358.421,-133.458 347.913,-132.106 349.363,-138.954"/>
</g>
<!-- AS6939&#45;&gt;AS6762 -->
<g id="edge20" class="edge"><title>AS6939&#45;&gt;AS6762</title>
<path fill="none" stroke="black" d="M301.908,-135.145C319.278,-123.186 343.902,-106.233 363.263,-92.9035"/>
<polygon fill="black" stroke="black" points="365.491,-95.6188 371.743,-87.0652 361.521,-89.8532 365.491,-95.6188"/>
</g>
<!-- AS3491 -->
<g id="node18" class="node"><title>AS3491</title>
<g id="a_node18"><a xlink:href="/asn/3491" xlink:title="AS3491 ~ PCCW Global, Inc. [US]">
<ellipse fill="#ffffff" stroke="black" cx="394.625" cy="-18" rx="39.7935" ry="18"/>
<text text-anchor="middle" x="394.625" y="-14.3" font-family="Times,serif" font-size="14.00" fill="#2c94b3">AS3491</text>
</a>
</g>
</g>
<!-- AS6939&#45;&gt;AS3491 -->
<g id="edge21" class="edge"><title>AS6939&#45;&gt;AS3491</title>
<path fill="none" stroke="black" d="M300.592,-134.704C306.975,-129.258 313.723,-122.781 318.978,-116 340.65,-88.0341 331.779,-71.7124 354.978,-45 356.94,-42.7406 359.13,-40.5758 361.443,-38.5248"/>
<polygon fill="black" stroke="black" points="363.978,-40.9806 369.626,-32.0169 359.621,-35.5019 363.978,-40.9806"/>
</g>
<!-- AS2914&#45;&gt;AS6762 -->
<g id="edge23" class="edge"><title>AS2914&#45;&gt;AS6762</title>
<path fill="none" stroke="black" d="M317.115,-83.4806C326.513,-82.0703 336.748,-80.5346 346.584,-79.0586"/>
<polygon fill="black" stroke="black" points="347.269,-82.4951 356.638,-77.5499 346.23,-75.5726 347.269,-82.4951"/>
</g>
<!-- AS174&#45;&gt;AS3491 -->
<g id="edge24" class="edge"><title>AS174&#45;&gt;AS3491</title>
<path fill="none" stroke="black" d="M314.631,-20.789C324.204,-20.451 334.792,-20.0772 345.023,-19.716"/>
<polygon fill="black" stroke="black" points="345.213,-23.2115 355.083,-19.3608 344.966,-16.2159 345.213,-23.2115"/>
</g>
</g>
</svg>
