<?xml version="1.0" encoding="UTF-8" standalone="no"?>
<!DOCTYPE svg PUBLIC "-//W3C//DTD SVG 1.1//EN"
 "http://www.w3.org/Graphics/SVG/1.1/DTD/svg11.dtd">
<!-- Generated by graphviz version 2.38.0 (20140413.2041)
 -->
<!-- Title: AS209057 Combined Upstream Graph Pages: 1 -->
<svg width="699pt" height="930pt"
 viewBox="0.00 0.00 698.85 930.00" xmlns="http://www.w3.org/2000/svg" xmlns:xlink="http://www.w3.org/1999/xlink">
<g id="graph0" class="graph" transform="scale(1 1) rotate(0) translate(4 926)">
<title>AS209057 Combined Upstream Graph</title>
<polygon fill="white" stroke="none" points="-4,4 -4,-926 694.855,-926 694.855,4 -4,4"/>
<!-- AS209057 -->
<g id="node1" class="node"><title>AS209057</title>
<g id="a_node1"><a xlink:href="/asn/209057" xlink:title="AS209057 ~ netkey information technology gmbh [AT]">
<ellipse fill="#ffffff" stroke="black" cx="48.0957" cy="-473" rx="48.1917" ry="18"/>
<text text-anchor="middle" x="48.0957" y="-469.3" font-family="Times,serif" font-size="14.00" fill="#880000">AS209057</text>
</a>
</g>
</g>
<!-- AS8245 -->
<g id="node2" class="node"><title>AS8245</title>
<g id="a_node2"><a xlink:href="/asn/8245" xlink:title="AS8245 ~ Video&#45;Broadcast GmbH [AT]">
<ellipse fill="#ffffff" stroke="black" cx="171.838" cy="-473" rx="39.7935" ry="18"/>
<text text-anchor="middle" x="171.838" y="-469.3" font-family="Times,serif" font-size="14.00" fill="#2c94b3">AS8245</text>
</a>
</g>
</g>
<!-- AS209057&#45;&gt;AS8245 -->
<g id="edge1" class="edge"><title>AS209057&#45;&gt;AS8245</title>
<path fill="none" stroke="black" stroke-width="4.5" d="M96.5131,-473C104.867,-473 113.577,-473 121.969,-473"/>
<polygon fill="black" stroke="black" stroke-width="4.5" points="122.004,-476.938 132.004,-473 122.004,-469.063 122.004,-476.938"/>
</g>
<!-- AS24953 -->
<g id="node3" class="node"><title>AS24953</title>
<g id="a_node3"><a xlink:href="/asn/24953" xlink:title="AS24953 ~ AS MACRO: AS&#45;24953 (customers) [AT]">
<ellipse fill="#ffffff" stroke="black" cx="291.681" cy="-850" rx="44.393" ry="18"/>
<text text-anchor="middle" x="291.681" y="-846.3" font-family="Times,serif" font-size="14.00" fill="#2c94b3">AS24953</text>
</a>
</g>
</g>
<!-- AS8245&#45;&gt;AS24953 -->
<g id="edge2" class="edge"><title>AS8245&#45;&gt;AS24953</title>
<path fill="none" stroke="black" stroke-width="0.666667" d="M178.522,-491.183C197.54,-552.026 259.038,-748.77 281.961,-822.105"/>
<polygon fill="black" stroke="black" stroke-width="0.666667" points="278.73,-823.499 285.054,-831.999 285.411,-821.41 278.73,-823.499"/>
</g>
<!-- AS6830 -->
<g id="node4" class="node"><title>AS6830</title>
<g id="a_node4"><a xlink:href="/asn/6830" xlink:title="AS6830 ~ LGI&#45;UPC [AT]">
<ellipse fill="#ffffff" stroke="black" cx="291.681" cy="-473" rx="39.7935" ry="18"/>
<text text-anchor="middle" x="291.681" y="-469.3" font-family="Times,serif" font-size="14.00" fill="#2c94b3">AS6830</text>
</a>
</g>
</g>
<!-- AS8245&#45;&gt;AS6830 -->
<g id="edge3" class="edge"><title>AS8245&#45;&gt;AS6830</title>
<path fill="none" stroke="black" stroke-width="4.5" d="M211.751,-473C221.304,-473 231.654,-473 241.616,-473"/>
<polygon fill="black" stroke="black" stroke-width="4.5" points="241.809,-476.938 251.809,-473 241.809,-469.063 241.809,-476.938"/>
</g>
<!-- AS8218 -->
<g id="node5" class="node"><title>AS8218</title>
<g id="a_node5"><a xlink:href="/asn/8218" xlink:title="AS8218 ~ legacy Neotelecoms [FR]">
<ellipse fill="#ffffff" stroke="black" cx="291.681" cy="-230" rx="39.7935" ry="18"/>
<text text-anchor="middle" x="291.681" y="-226.3" font-family="Times,serif" font-size="14.00" fill="#2c94b3">AS8218</text>
</a>
</g>
</g>
<!-- AS8245&#45;&gt;AS8218 -->
<g id="edge4" class="edge"><title>AS8245&#45;&gt;AS8218</title>
<path fill="none" stroke="black" stroke-width="0.166667" d="M181.503,-455.132C201.984,-412.899 253.471,-306.728 277.697,-256.773"/>
<polygon fill="black" stroke="black" stroke-width="0.166667" points="280.947,-258.092 282.161,-247.567 274.649,-255.037 280.947,-258.092"/>
</g>
<!-- AS3257 -->
<g id="node6" class="node"><title>AS3257</title>
<g id="a_node6"><a xlink:href="/asn/3257" xlink:title="AS3257 ~ GTT [DE]">
<ellipse fill="#ffffff" stroke="black" cx="416.073" cy="-850" rx="39.7935" ry="18"/>
<text text-anchor="middle" x="416.073" y="-846.3" font-family="Times,serif" font-size="14.00" fill="#2c94b3">AS3257</text>
</a>
</g>
</g>
<!-- AS24953&#45;&gt;AS3257 -->
<g id="edge5" class="edge"><title>AS24953&#45;&gt;AS3257</title>
<path fill="none" stroke="black" d="M336.176,-850C345.865,-850 356.202,-850 366.095,-850"/>
<polygon fill="black" stroke="black" points="366.197,-853.5 376.197,-850 366.197,-846.5 366.197,-853.5"/>
</g>
<!-- AS21385 -->
<g id="node7" class="node"><title>AS21385</title>
<g id="a_node7"><a xlink:href="/asn/21385" xlink:title="AS21385 ~ Trusted Network GmbH [DE]">
<ellipse fill="#ffffff" stroke="black" cx="416.073" cy="-904" rx="44.393" ry="18"/>
<text text-anchor="middle" x="416.073" y="-900.3" font-family="Times,serif" font-size="14.00" fill="#2c94b3">AS21385</text>
</a>
</g>
</g>
<!-- AS24953&#45;&gt;AS21385 -->
<g id="edge6" class="edge"><title>AS24953&#45;&gt;AS21385</title>
<path fill="none" stroke="black" stroke-width="3" d="M322.308,-863.072C338.425,-870.183 358.565,-879.069 375.957,-886.742"/>
<polygon fill="black" stroke="black" stroke-width="3" points="374.732,-890.027 385.294,-890.861 377.557,-883.622 374.732,-890.027"/>
</g>
<!-- AS6830&#45;&gt;AS3257 -->
<g id="edge21" class="edge"><title>AS6830&#45;&gt;AS3257</title>
<path fill="none" stroke="black" d="M292.58,-491.175C293.115,-545.483 300.878,-709.497 371.877,-818 374.741,-822.378 378.423,-826.374 382.427,-829.944"/>
<polygon fill="black" stroke="black" points="380.385,-832.792 390.392,-836.274 384.741,-827.312 380.385,-832.792"/>
</g>
<!-- AS701 -->
<g id="node8" class="node"><title>AS701</title>
<g id="a_node8"><a xlink:href="/asn/701" xlink:title="AS701 ~ UUNET [US]">
<ellipse fill="#ffffff" stroke="black" cx="416.073" cy="-396" rx="35.194" ry="18"/>
<text text-anchor="middle" x="416.073" y="-392.3" font-family="Times,serif" font-size="14.00" fill="#2c94b3">AS701</text>
</a>
</g>
</g>
<!-- AS6830&#45;&gt;AS701 -->
<g id="edge7" class="edge"><title>AS6830&#45;&gt;AS701</title>
<path fill="none" stroke="black" stroke-width="2" d="M315.537,-458.532C331.347,-448.533 352.876,-434.936 371.877,-423 375.967,-420.43 380.279,-417.728 384.531,-415.066"/>
<polygon fill="black" stroke="black" stroke-width="2" points="386.463,-417.986 393.086,-409.716 382.751,-412.051 386.463,-417.986"/>
</g>
<!-- AS3491 -->
<g id="node9" class="node"><title>AS3491</title>
<g id="a_node9"><a xlink:href="/asn/3491" xlink:title="AS3491 ~ PCCW Global, Inc. [US]">
<ellipse fill="#ffffff" stroke="black" cx="416.073" cy="-342" rx="39.7935" ry="18"/>
<text text-anchor="middle" x="416.073" y="-338.3" font-family="Times,serif" font-size="14.00" fill="#2c94b3">AS3491</text>
</a>
</g>
</g>
<!-- AS6830&#45;&gt;AS3491 -->
<g id="edge8" class="edge"><title>AS6830&#45;&gt;AS3491</title>
<path fill="none" stroke="black" stroke-width="2" d="M303.108,-455.634C316.897,-433.648 342.865,-395.454 371.877,-369 374.807,-366.328 378.036,-363.763 381.37,-361.351"/>
<polygon fill="black" stroke="black" stroke-width="2" points="383.426,-364.186 389.76,-355.692 379.512,-358.382 383.426,-364.186"/>
</g>
<!-- AS12956 -->
<g id="node10" class="node"><title>AS12956</title>
<g id="a_node10"><a xlink:href="/asn/12956" xlink:title="AS12956 ~ TELXIUS [ES]">
<ellipse fill="#ffffff" stroke="black" cx="416.073" cy="-288" rx="44.393" ry="18"/>
<text text-anchor="middle" x="416.073" y="-284.3" font-family="Times,serif" font-size="14.00" fill="#2c94b3">AS12956</text>
</a>
</g>
</g>
<!-- AS6830&#45;&gt;AS12956 -->
<g id="edge9" class="edge"><title>AS6830&#45;&gt;AS12956</title>
<path fill="none" stroke="black" stroke-width="2" d="M298.094,-455.01C308.278,-423.568 332.842,-357.888 371.877,-315 374.209,-312.437 376.84,-310.026 379.623,-307.78"/>
<polygon fill="black" stroke="black" stroke-width="2" points="381.698,-310.599 387.747,-301.902 377.594,-304.928 381.698,-310.599"/>
</g>
<!-- AS3320 -->
<g id="node11" class="node"><title>AS3320</title>
<g id="a_node11"><a xlink:href="/asn/3320" xlink:title="AS3320 ~ DTAG [DE]">
<ellipse fill="#ffffff" stroke="black" cx="416.073" cy="-234" rx="39.7935" ry="18"/>
<text text-anchor="middle" x="416.073" y="-230.3" font-family="Times,serif" font-size="14.00" fill="#2c94b3">AS3320</text>
</a>
</g>
</g>
<!-- AS6830&#45;&gt;AS3320 -->
<g id="edge10" class="edge"><title>AS6830&#45;&gt;AS3320</title>
<path fill="none" stroke="black" d="M295.406,-454.861C302.1,-415.596 322.544,-321.405 371.877,-261 374.254,-258.089 377.033,-255.4 380.014,-252.94"/>
<polygon fill="black" stroke="black" points="382.205,-255.675 388.241,-246.968 378.092,-250.01 382.205,-255.675"/>
</g>
<!-- AS6453 -->
<g id="node12" class="node"><title>AS6453</title>
<g id="a_node12"><a xlink:href="/asn/6453" xlink:title="AS6453 ~ TATA COMMUNICATIONS (AMERICA) INC [US]">
<ellipse fill="#ffffff" stroke="black" cx="416.073" cy="-180" rx="39.7935" ry="18"/>
<text text-anchor="middle" x="416.073" y="-176.3" font-family="Times,serif" font-size="14.00" fill="#2c94b3">AS6453</text>
</a>
</g>
</g>
<!-- AS6830&#45;&gt;AS6453 -->
<g id="edge11" class="edge"><title>AS6830&#45;&gt;AS6453</title>
<path fill="none" stroke="black" stroke-width="2" d="M293.733,-454.892C297.25,-408.885 312.038,-285.589 371.877,-207 374.154,-204.01 376.865,-201.268 379.804,-198.775"/>
<polygon fill="black" stroke="black" stroke-width="2" points="381.998,-201.506 387.973,-192.756 377.846,-195.87 381.998,-201.506"/>
</g>
<!-- AS6762 -->
<g id="node13" class="node"><title>AS6762</title>
<g id="a_node13"><a xlink:href="/asn/6762" xlink:title="AS6762 ~ TELECOM ITALIA SPARKLE S.p.A. [IT]">
<ellipse fill="#ffffff" stroke="black" cx="416.073" cy="-126" rx="39.7935" ry="18"/>
<text text-anchor="middle" x="416.073" y="-122.3" font-family="Times,serif" font-size="14.00" fill="#2c94b3">AS6762</text>
</a>
</g>
</g>
<!-- AS6830&#45;&gt;AS6762 -->
<g id="edge12" class="edge"><title>AS6830&#45;&gt;AS6762</title>
<path fill="none" stroke="black" stroke-width="2" d="M296.366,-454.733C309.419,-390.585 353.65,-178.136 371.877,-153 374.083,-149.957 376.747,-147.18 379.657,-144.665"/>
<polygon fill="black" stroke="black" stroke-width="2" points="381.852,-147.395 387.784,-138.616 377.673,-141.779 381.852,-147.395"/>
</g>
<!-- AS2497 -->
<g id="node14" class="node"><title>AS2497</title>
<g id="a_node14"><a xlink:href="/asn/2497" xlink:title="AS2497 ~ Internet Initiative Japan Inc. [JP]">
<ellipse fill="#ffffff" stroke="black" cx="416.073" cy="-72" rx="39.7935" ry="18"/>
<text text-anchor="middle" x="416.073" y="-68.3" font-family="Times,serif" font-size="14.00" fill="#2c94b3">AS2497</text>
</a>
</g>
</g>
<!-- AS6830&#45;&gt;AS2497 -->
<g id="edge13" class="edge"><title>AS6830&#45;&gt;AS2497</title>
<path fill="none" stroke="black" stroke-width="2" d="M296.271,-455.113C311.043,-381.637 366.604,-106.537 371.877,-99 373.854,-96.1738 376.231,-93.5821 378.84,-91.219"/>
<polygon fill="black" stroke="black" stroke-width="2" points="381.393,-93.6724 387.198,-84.8097 377.133,-88.1177 381.393,-93.6724"/>
</g>
<!-- AS174 -->
<g id="node15" class="node"><title>AS174</title>
<g id="a_node15"><a xlink:href="/asn/174" xlink:title="AS174 ~ Cogent Communications [US]">
<ellipse fill="#ffffff" stroke="black" cx="416.073" cy="-758" rx="35.194" ry="18"/>
<text text-anchor="middle" x="416.073" y="-754.3" font-family="Times,serif" font-size="14.00" fill="#2c94b3">AS174</text>
</a>
</g>
</g>
<!-- AS6830&#45;&gt;AS174 -->
<g id="edge14" class="edge"><title>AS6830&#45;&gt;AS174</title>
<path fill="none" stroke="black" stroke-width="2" d="M293.949,-491.228C297.932,-536.373 313.652,-655.198 371.877,-731 374.483,-734.393 377.646,-737.467 381.064,-740.223"/>
<polygon fill="black" stroke="black" stroke-width="2" points="379.166,-743.168 389.355,-746.073 383.202,-737.448 379.166,-743.168"/>
</g>
<!-- AS1239 -->
<g id="node16" class="node"><title>AS1239</title>
<g id="a_node16"><a xlink:href="/asn/1239" xlink:title="AS1239 ~ Sprint [US]">
<ellipse fill="#ffffff" stroke="black" cx="416.073" cy="-704" rx="39.7935" ry="18"/>
<text text-anchor="middle" x="416.073" y="-700.3" font-family="Times,serif" font-size="14.00" fill="#2c94b3">AS1239</text>
</a>
</g>
</g>
<!-- AS6830&#45;&gt;AS1239 -->
<g id="edge15" class="edge"><title>AS6830&#45;&gt;AS1239</title>
<path fill="none" stroke="black" d="M295.704,-491.033C302.879,-529.16 324.043,-619.189 371.877,-677 374.273,-679.896 377.064,-682.574 380.052,-685.028"/>
<polygon fill="black" stroke="black" points="378.138,-687.963 388.291,-690.992 382.243,-682.293 378.138,-687.963"/>
</g>
<!-- AS2914 -->
<g id="node17" class="node"><title>AS2914</title>
<g id="a_node17"><a xlink:href="/asn/2914" xlink:title="AS2914 ~ NTT America, Inc. [US]">
<ellipse fill="#ffffff" stroke="black" cx="416.073" cy="-650" rx="39.7935" ry="18"/>
<text text-anchor="middle" x="416.073" y="-646.3" font-family="Times,serif" font-size="14.00" fill="#2c94b3">AS2914</text>
</a>
</g>
</g>
<!-- AS6830&#45;&gt;AS2914 -->
<g id="edge16" class="edge"><title>AS6830&#45;&gt;AS2914</title>
<path fill="none" stroke="black" stroke-width="2" d="M298.667,-491.027C309.407,-521.221 334.381,-582.668 371.877,-623 374.436,-625.753 377.336,-628.336 380.393,-630.729"/>
<polygon fill="black" stroke="black" stroke-width="2" points="378.537,-633.704 388.726,-636.61 382.573,-627.984 378.537,-633.704"/>
</g>
<!-- AS7018 -->
<g id="node18" class="node"><title>AS7018</title>
<g id="a_node18"><a xlink:href="/asn/7018" xlink:title="AS7018 ~ AT&amp;T Services, Inc. [US]">
<ellipse fill="#ffffff" stroke="black" cx="416.073" cy="-596" rx="39.7935" ry="18"/>
<text text-anchor="middle" x="416.073" y="-592.3" font-family="Times,serif" font-size="14.00" fill="#2c94b3">AS7018</text>
</a>
</g>
</g>
<!-- AS6830&#45;&gt;AS7018 -->
<g id="edge17" class="edge"><title>AS6830&#45;&gt;AS7018</title>
<path fill="none" stroke="black" stroke-width="2" d="M304.391,-490.386C318.701,-510.801 344.421,-544.928 371.877,-569 374.859,-571.615 378.121,-574.142 381.475,-576.532"/>
<polygon fill="black" stroke="black" stroke-width="2" points="379.633,-579.51 389.89,-582.162 383.525,-573.692 379.633,-579.51"/>
</g>
<!-- AS3356 -->
<g id="node19" class="node"><title>AS3356</title>
<g id="a_node19"><a xlink:href="/asn/3356" xlink:title="AS3356 ~ Level 3 Parent, LLC [US]">
<ellipse fill="#ffffff" stroke="black" cx="535.915" cy="-854" rx="39.7935" ry="18"/>
<text text-anchor="middle" x="535.915" y="-850.3" font-family="Times,serif" font-size="14.00" fill="#2c94b3">AS3356</text>
</a>
</g>
</g>
<!-- AS6830&#45;&gt;AS3356 -->
<g id="edge18" class="edge"><title>AS6830&#45;&gt;AS3356</title>
<path fill="none" stroke="black" stroke-width="3" d="M292.021,-491.35C291.13,-543.782 295.605,-696.175 371.877,-785 372.971,-786.275 448.712,-818.032 496.563,-838.013"/>
<polygon fill="black" stroke="black" stroke-width="3" points="495.446,-841.339 506.022,-841.961 498.142,-834.879 495.446,-841.339"/>
</g>
<!-- AS1273 -->
<g id="node20" class="node"><title>AS1273</title>
<g id="a_node20"><a xlink:href="/asn/1273" xlink:title="AS1273 ~ Vodafone Group PLC [EU]">
<ellipse fill="#ffffff" stroke="black" cx="416.073" cy="-450" rx="39.7935" ry="18"/>
<text text-anchor="middle" x="416.073" y="-446.3" font-family="Times,serif" font-size="14.00" fill="#2c94b3">AS1273</text>
</a>
</g>
</g>
<!-- AS6830&#45;&gt;AS1273 -->
<g id="edge19" class="edge"><title>AS6830&#45;&gt;AS1273</title>
<path fill="none" stroke="black" d="M328.74,-466.224C341.439,-463.837 355.886,-461.122 369.28,-458.605"/>
<polygon fill="black" stroke="black" points="370.089,-462.015 379.271,-456.728 368.796,-455.135 370.089,-462.015"/>
</g>
<!-- AS5511 -->
<g id="node21" class="node"><title>AS5511</title>
<g id="a_node21"><a xlink:href="/asn/5511" xlink:title="AS5511 ~ Orange S.A. [FR]">
<ellipse fill="#ffffff" stroke="black" cx="416.073" cy="-542" rx="39.7935" ry="18"/>
<text text-anchor="middle" x="416.073" y="-538.3" font-family="Times,serif" font-size="14.00" fill="#2c94b3">AS5511</text>
</a>
</g>
</g>
<!-- AS6830&#45;&gt;AS5511 -->
<g id="edge20" class="edge"><title>AS6830&#45;&gt;AS5511</title>
<path fill="none" stroke="black" d="M317.154,-486.797C335.545,-497.165 360.957,-511.491 381.284,-522.951"/>
<polygon fill="black" stroke="black" points="379.792,-526.128 390.222,-527.99 383.23,-520.03 379.792,-526.128"/>
</g>
<!-- AS1299 -->
<g id="node22" class="node"><title>AS1299</title>
<g id="a_node22"><a xlink:href="/asn/1299" xlink:title="AS1299 ~ Telia Carrier [EU]">
<ellipse fill="#ffffff" stroke="black" cx="535.915" cy="-673" rx="39.7935" ry="18"/>
<text text-anchor="middle" x="535.915" y="-669.3" font-family="Times,serif" font-size="14.00" fill="#2c94b3">AS1299</text>
</a>
</g>
</g>
<!-- AS6830&#45;&gt;AS1299 -->
<g id="edge22" class="edge"><title>AS6830&#45;&gt;AS1299</title>
<path fill="none" stroke="black" d="M331.453,-473.53C368.389,-475.975 423.642,-484.925 460.269,-515 500.959,-548.412 520.785,-609.135 529.336,-644.785"/>
<polygon fill="black" stroke="black" points="526.022,-646.002 531.638,-654.986 532.851,-644.46 526.022,-646.002"/>
</g>
<!-- AS6461 -->
<g id="node23" class="node"><title>AS6461</title>
<g id="a_node23"><a xlink:href="/asn/6461" xlink:title="AS6461 ~ Zayo Bandwidth [US]">
<ellipse fill="#ffffff" stroke="black" cx="416.073" cy="-18" rx="39.7935" ry="18"/>
<text text-anchor="middle" x="416.073" y="-14.3" font-family="Times,serif" font-size="14.00" fill="#2c94b3">AS6461</text>
</a>
</g>
</g>
<!-- AS8218&#45;&gt;AS6461 -->
<g id="edge25" class="edge"><title>AS8218&#45;&gt;AS6461</title>
<path fill="none" stroke="black" d="M296.542,-212.035C304.921,-176.586 327.669,-96.6073 371.877,-45 374.322,-42.1455 377.146,-39.4946 380.155,-37.0585"/>
<polygon fill="black" stroke="black" points="382.343,-39.7963 388.422,-31.1188 378.258,-34.1115 382.343,-39.7963"/>
</g>
<!-- AS21385&#45;&gt;AS3356 -->
<g id="edge24" class="edge"><title>AS21385&#45;&gt;AS3356</title>
<path fill="none" stroke="black" stroke-width="2" d="M447.42,-891.124C462.442,-884.75 480.734,-876.989 496.701,-870.214"/>
<polygon fill="black" stroke="black" stroke-width="2" points="498.454,-873.272 506.292,-866.144 495.72,-866.828 498.454,-873.272"/>
</g>
<!-- AS21385&#45;&gt;AS1299 -->
<g id="edge23" class="edge"><title>AS21385&#45;&gt;AS1299</title>
<path fill="none" stroke="black" d="M445.276,-890.171C450.798,-886.483 456.146,-882.083 460.269,-877 503.431,-823.785 522.927,-743.353 530.608,-701.139"/>
<polygon fill="black" stroke="black" points="534.101,-701.477 532.353,-691.027 527.203,-700.286 534.101,-701.477"/>
</g>
<!-- AS3549 -->
<g id="node24" class="node"><title>AS3549</title>
<g id="a_node24"><a xlink:href="/asn/3549" xlink:title="AS3549 ~ Level 3 Parent, LLC [US]">
<ellipse fill="#ffffff" stroke="black" cx="651.208" cy="-881" rx="39.7935" ry="18"/>
<text text-anchor="middle" x="651.208" y="-877.3" font-family="Times,serif" font-size="14.00" fill="#2c94b3">AS3549</text>
</a>
</g>
</g>
<!-- AS3356&#45;&gt;AS3549 -->
<g id="edge26" class="edge"><title>AS3356&#45;&gt;AS3549</title>
<path fill="none" stroke="black" stroke-width="2" d="M571.522,-862.248C582.394,-864.838 594.548,-867.735 605.991,-870.462"/>
<polygon fill="black" stroke="black" stroke-width="2" points="605.274,-873.889 615.813,-872.803 606.897,-867.08 605.274,-873.889"/>
</g>
<!-- AS209 -->
<g id="node25" class="node"><title>AS209</title>
<g id="a_node25"><a xlink:href="/asn/209" xlink:title="AS209 ~ CenturyLink Communications, LLC [US]">
<ellipse fill="#ffffff" stroke="black" cx="651.208" cy="-827" rx="35.194" ry="18"/>
<text text-anchor="middle" x="651.208" y="-823.3" font-family="Times,serif" font-size="14.00" fill="#2c94b3">AS209</text>
</a>
</g>
</g>
<!-- AS3356&#45;&gt;AS209 -->
<g id="edge27" class="edge"><title>AS3356&#45;&gt;AS209</title>
<path fill="none" stroke="black" d="M571.522,-845.752C583.317,-842.942 596.622,-839.771 608.889,-836.847"/>
<polygon fill="black" stroke="black" points="609.978,-840.186 618.894,-834.463 608.355,-833.376 609.978,-840.186"/>
</g>
</g>
</svg>
