<?xml version="1.0" encoding="UTF-8" standalone="no"?>
<!DOCTYPE svg PUBLIC "-//W3C//DTD SVG 1.1//EN"
 "http://www.w3.org/Graphics/SVG/1.1/DTD/svg11.dtd">
<!-- Generated by graphviz version 2.38.0 (20140413.2041)
 -->
<!-- Title: AS209057 Combined Upstream Graph Pages: 1 -->
<svg width="699pt" height="822pt"
 viewBox="0.00 0.00 698.85 822.00" xmlns="http://www.w3.org/2000/svg" xmlns:xlink="http://www.w3.org/1999/xlink">
<g id="graph0" class="graph" transform="scale(1 1) rotate(0) translate(4 818)">
<title>AS209057 Combined Upstream Graph</title>
<polygon fill="white" stroke="none" points="-4,4 -4,-818 694.855,-818 694.855,4 -4,4"/>
<!-- AS209057 -->
<g id="node1" class="node"><title>AS209057</title>
<g id="a_node1"><a xlink:href="/asn/209057" xlink:title="AS209057 ~ netkey information technology gmbh [AT]">
<ellipse fill="#ffffff" stroke="black" cx="48.0957" cy="-688" rx="48.1917" ry="18"/>
<text text-anchor="middle" x="48.0957" y="-684.3" font-family="Times,serif" font-size="14.00" fill="#880000">AS209057</text>
</a>
</g>
</g>
<!-- AS8245 -->
<g id="node2" class="node"><title>AS8245</title>
<g id="a_node2"><a xlink:href="/asn/8245" xlink:title="AS8245 ~ Video&#45;Broadcast GmbH [AT]">
<ellipse fill="#ffffff" stroke="black" cx="171.838" cy="-688" rx="39.7935" ry="18"/>
<text text-anchor="middle" x="171.838" y="-684.3" font-family="Times,serif" font-size="14.00" fill="#2c94b3">AS8245</text>
</a>
</g>
</g>
<!-- AS209057&#45;&gt;AS8245 -->
<g id="edge1" class="edge"><title>AS209057&#45;&gt;AS8245</title>
<path fill="none" stroke="black" stroke-width="4.5" d="M96.5131,-688C104.867,-688 113.577,-688 121.969,-688"/>
<polygon fill="black" stroke="black" stroke-width="4.5" points="122.004,-691.938 132.004,-688 122.004,-684.063 122.004,-691.938"/>
</g>
<!-- AS24953 -->
<g id="node3" class="node"><title>AS24953</title>
<g id="a_node3"><a xlink:href="/asn/24953" xlink:title="AS24953 ~ AS MACRO: AS&#45;24953 (customers) [AT]">
<ellipse fill="#ffffff" stroke="black" cx="291.681" cy="-742" rx="44.393" ry="18"/>
<text text-anchor="middle" x="291.681" y="-738.3" font-family="Times,serif" font-size="14.00" fill="#2c94b3">AS24953</text>
</a>
</g>
</g>
<!-- AS8245&#45;&gt;AS24953 -->
<g id="edge2" class="edge"><title>AS8245&#45;&gt;AS24953</title>
<path fill="none" stroke="black" stroke-width="0.666667" d="M200.467,-700.661C215.965,-707.762 235.531,-716.728 252.478,-724.494"/>
<polygon fill="black" stroke="black" stroke-width="0.666667" points="251.031,-727.681 261.58,-728.665 253.948,-721.317 251.031,-727.681"/>
</g>
<!-- AS8218 -->
<g id="node4" class="node"><title>AS8218</title>
<g id="a_node4"><a xlink:href="/asn/8218" xlink:title="AS8218 ~ legacy Neotelecoms [FR]">
<ellipse fill="#ffffff" stroke="black" cx="291.681" cy="-688" rx="39.7935" ry="18"/>
<text text-anchor="middle" x="291.681" y="-684.3" font-family="Times,serif" font-size="14.00" fill="#2c94b3">AS8218</text>
</a>
</g>
</g>
<!-- AS8245&#45;&gt;AS8218 -->
<g id="edge3" class="edge"><title>AS8245&#45;&gt;AS8218</title>
<path fill="none" stroke="black" stroke-width="0.166667" d="M211.751,-688C221.304,-688 231.654,-688 241.616,-688"/>
<polygon fill="black" stroke="black" stroke-width="0.166667" points="241.809,-691.5 251.809,-688 241.809,-684.5 241.809,-691.5"/>
</g>
<!-- AS6830 -->
<g id="node5" class="node"><title>AS6830</title>
<g id="a_node5"><a xlink:href="/asn/6830" xlink:title="AS6830 ~ LGI&#45;UPC [AT]">
<ellipse fill="#ffffff" stroke="black" cx="291.681" cy="-407" rx="39.7935" ry="18"/>
<text text-anchor="middle" x="291.681" y="-403.3" font-family="Times,serif" font-size="14.00" fill="#2c94b3">AS6830</text>
</a>
</g>
</g>
<!-- AS8245&#45;&gt;AS6830 -->
<g id="edge4" class="edge"><title>AS8245&#45;&gt;AS6830</title>
<path fill="none" stroke="black" stroke-width="4.5" d="M180.389,-669.995C200.468,-622.115 255.278,-491.419 279.227,-434.312"/>
<polygon fill="black" stroke="black" stroke-width="4.5" points="282.956,-435.6 283.193,-424.855 275.694,-432.554 282.956,-435.6"/>
</g>
<!-- AS21385 -->
<g id="node6" class="node"><title>AS21385</title>
<g id="a_node6"><a xlink:href="/asn/21385" xlink:title="AS21385 ~ Trusted Network GmbH [DE]">
<ellipse fill="#ffffff" stroke="black" cx="416.073" cy="-796" rx="44.393" ry="18"/>
<text text-anchor="middle" x="416.073" y="-792.3" font-family="Times,serif" font-size="14.00" fill="#2c94b3">AS21385</text>
</a>
</g>
</g>
<!-- AS24953&#45;&gt;AS21385 -->
<g id="edge5" class="edge"><title>AS24953&#45;&gt;AS21385</title>
<path fill="none" stroke="black" stroke-width="3" d="M322.308,-755.072C338.425,-762.183 358.565,-771.069 375.957,-778.742"/>
<polygon fill="black" stroke="black" stroke-width="3" points="374.732,-782.027 385.294,-782.861 377.557,-775.622 374.732,-782.027"/>
</g>
<!-- AS3257 -->
<g id="node7" class="node"><title>AS3257</title>
<g id="a_node7"><a xlink:href="/asn/3257" xlink:title="AS3257 ~ GTT [DE]">
<ellipse fill="#ffffff" stroke="black" cx="416.073" cy="-742" rx="39.7935" ry="18"/>
<text text-anchor="middle" x="416.073" y="-738.3" font-family="Times,serif" font-size="14.00" fill="#2c94b3">AS3257</text>
</a>
</g>
</g>
<!-- AS24953&#45;&gt;AS3257 -->
<g id="edge6" class="edge"><title>AS24953&#45;&gt;AS3257</title>
<path fill="none" stroke="black" d="M336.176,-742C345.865,-742 356.202,-742 366.095,-742"/>
<polygon fill="black" stroke="black" points="366.197,-745.5 376.197,-742 366.197,-738.5 366.197,-745.5"/>
</g>
<!-- AS6461 -->
<g id="node12" class="node"><title>AS6461</title>
<g id="a_node12"><a xlink:href="/asn/6461" xlink:title="AS6461 ~ ZAYO&#45;6461 [US]">
<ellipse fill="#ffffff" stroke="black" cx="416.073" cy="-688" rx="39.7935" ry="18"/>
<text text-anchor="middle" x="416.073" y="-684.3" font-family="Times,serif" font-size="14.00" fill="#2c94b3">AS6461</text>
</a>
</g>
</g>
<!-- AS8218&#45;&gt;AS6461 -->
<g id="edge11" class="edge"><title>AS8218&#45;&gt;AS6461</title>
<path fill="none" stroke="black" d="M331.406,-688C342.344,-688 354.395,-688 365.861,-688"/>
<polygon fill="black" stroke="black" points="366.179,-691.5 376.179,-688 366.179,-684.5 366.179,-691.5"/>
</g>
<!-- AS6830&#45;&gt;AS3257 -->
<g id="edge23" class="edge"><title>AS6830&#45;&gt;AS3257</title>
<path fill="none" stroke="black" d="M292.825,-425.283C294.109,-476.223 303.878,-622.113 371.877,-715 374.097,-718.033 376.77,-720.803 379.686,-723.314"/>
<polygon fill="black" stroke="black" points="377.707,-726.204 387.821,-729.357 381.881,-720.584 377.707,-726.204"/>
</g>
<!-- AS3356 -->
<g id="node8" class="node"><title>AS3356</title>
<g id="a_node8"><a xlink:href="/asn/3356" xlink:title="AS3356 ~ Level 3 Parent, LLC [US]">
<ellipse fill="#ffffff" stroke="black" cx="535.915" cy="-719" rx="39.7935" ry="18"/>
<text text-anchor="middle" x="535.915" y="-715.3" font-family="Times,serif" font-size="14.00" fill="#2c94b3">AS3356</text>
</a>
</g>
</g>
<!-- AS6830&#45;&gt;AS3356 -->
<g id="edge22" class="edge"><title>AS6830&#45;&gt;AS3356</title>
<path fill="none" stroke="black" stroke-width="3" d="M294.507,-425.159C299.51,-465.787 316.954,-564.994 371.877,-623 401.277,-654.051 423.445,-639.261 460.269,-661 477.635,-671.252 495.529,-685.026 509.442,-696.578"/>
<polygon fill="black" stroke="black" stroke-width="3" points="507.242,-699.301 517.14,-703.08 511.759,-693.953 507.242,-699.301"/>
</g>
<!-- AS1299 -->
<g id="node9" class="node"><title>AS1299</title>
<g id="a_node9"><a xlink:href="/asn/1299" xlink:title="AS1299 ~ Telia Carrier [EU]">
<ellipse fill="#ffffff" stroke="black" cx="535.915" cy="-430" rx="39.7935" ry="18"/>
<text text-anchor="middle" x="535.915" y="-426.3" font-family="Times,serif" font-size="14.00" fill="#2c94b3">AS1299</text>
</a>
</g>
</g>
<!-- AS6830&#45;&gt;AS1299 -->
<g id="edge24" class="edge"><title>AS6830&#45;&gt;AS1299</title>
<path fill="none" stroke="black" d="M295.165,-388.957C303.189,-333.611 330.331,-168.11 371.877,-137 403.323,-113.453 429.25,-112.893 460.269,-137 502.279,-169.649 524.563,-334.313 532.02,-401.446"/>
<polygon fill="black" stroke="black" points="528.575,-402.145 533.128,-411.711 535.534,-401.393 528.575,-402.145"/>
</g>
<!-- AS6830&#45;&gt;AS6461 -->
<g id="edge25" class="edge"><title>AS6830&#45;&gt;AS6461</title>
<path fill="none" stroke="black" d="M294.573,-424.965C299.906,-468.409 318.328,-581.083 371.877,-656 374.919,-660.257 378.701,-664.184 382.752,-667.721"/>
<polygon fill="black" stroke="black" points="380.731,-670.585 390.751,-674.028 385.065,-665.088 380.731,-670.585"/>
</g>
<!-- AS6762 -->
<g id="node13" class="node"><title>AS6762</title>
<g id="a_node13"><a xlink:href="/asn/6762" xlink:title="AS6762 ~ TELECOM ITALIA SPARKLE S.p.A. [IT]">
<ellipse fill="#ffffff" stroke="black" cx="416.073" cy="-72" rx="39.7935" ry="18"/>
<text text-anchor="middle" x="416.073" y="-68.3" font-family="Times,serif" font-size="14.00" fill="#2c94b3">AS6762</text>
</a>
</g>
</g>
<!-- AS6830&#45;&gt;AS6762 -->
<g id="edge12" class="edge"><title>AS6830&#45;&gt;AS6762</title>
<path fill="none" stroke="black" stroke-width="2" d="M293.309,-388.919C295.844,-339.162 308.541,-197.693 371.877,-104 374.807,-99.6652 378.525,-95.6943 382.546,-92.1359"/>
<polygon fill="black" stroke="black" stroke-width="2" points="384.86,-94.768 390.524,-85.8139 380.512,-89.2819 384.86,-94.768"/>
</g>
<!-- AS3491 -->
<g id="node14" class="node"><title>AS3491</title>
<g id="a_node14"><a xlink:href="/asn/3491" xlink:title="AS3491 ~ PCCW Global, Inc. [US]">
<ellipse fill="#ffffff" stroke="black" cx="416.073" cy="-18" rx="39.7935" ry="18"/>
<text text-anchor="middle" x="416.073" y="-14.3" font-family="Times,serif" font-size="14.00" fill="#2c94b3">AS3491</text>
</a>
</g>
</g>
<!-- AS6830&#45;&gt;AS3491 -->
<g id="edge13" class="edge"><title>AS6830&#45;&gt;AS3491</title>
<path fill="none" stroke="black" stroke-width="2" d="M291.943,-388.876C290.55,-332.409 293.139,-156.757 371.877,-45 373.863,-42.1804 376.247,-39.5933 378.861,-37.2333"/>
<polygon fill="black" stroke="black" stroke-width="2" points="381.413,-39.6871 387.226,-30.829 377.158,-34.1291 381.413,-39.6871"/>
</g>
<!-- AS6453 -->
<g id="node15" class="node"><title>AS6453</title>
<g id="a_node15"><a xlink:href="/asn/6453" xlink:title="AS6453 ~ TATA COMMUNICATIONS (AMERICA) INC [US]">
<ellipse fill="#ffffff" stroke="black" cx="416.073" cy="-596" rx="39.7935" ry="18"/>
<text text-anchor="middle" x="416.073" y="-592.3" font-family="Times,serif" font-size="14.00" fill="#2c94b3">AS6453</text>
</a>
</g>
</g>
<!-- AS6830&#45;&gt;AS6453 -->
<g id="edge14" class="edge"><title>AS6830&#45;&gt;AS6453</title>
<path fill="none" stroke="black" stroke-width="2" d="M297.818,-424.94C307.721,-456.979 332.059,-524.812 371.877,-569 374.393,-571.792 377.264,-574.401 380.303,-576.812"/>
<polygon fill="black" stroke="black" stroke-width="2" points="378.432,-579.776 388.611,-582.715 382.487,-574.07 378.432,-579.776"/>
</g>
<!-- AS701 -->
<g id="node16" class="node"><title>AS701</title>
<g id="a_node16"><a xlink:href="/asn/701" xlink:title="AS701 ~ UUNET [US]">
<ellipse fill="#ffffff" stroke="black" cx="416.073" cy="-542" rx="35.194" ry="18"/>
<text text-anchor="middle" x="416.073" y="-538.3" font-family="Times,serif" font-size="14.00" fill="#2c94b3">AS701</text>
</a>
</g>
</g>
<!-- AS6830&#45;&gt;AS701 -->
<g id="edge15" class="edge"><title>AS6830&#45;&gt;AS701</title>
<path fill="none" stroke="black" stroke-width="2" d="M302.726,-424.671C316.297,-447.472 342.23,-487.472 371.877,-515 375.174,-518.061 378.866,-520.972 382.667,-523.672"/>
<polygon fill="black" stroke="black" stroke-width="2" points="380.778,-526.619 391.048,-529.22 384.642,-520.781 380.778,-526.619"/>
</g>
<!-- AS7018 -->
<g id="node17" class="node"><title>AS7018</title>
<g id="a_node17"><a xlink:href="/asn/7018" xlink:title="AS7018 ~ AT&amp;T Services, Inc. [US]">
<ellipse fill="#ffffff" stroke="black" cx="416.073" cy="-488" rx="39.7935" ry="18"/>
<text text-anchor="middle" x="416.073" y="-484.3" font-family="Times,serif" font-size="14.00" fill="#2c94b3">AS7018</text>
</a>
</g>
</g>
<!-- AS6830&#45;&gt;AS7018 -->
<g id="edge16" class="edge"><title>AS6830&#45;&gt;AS7018</title>
<path fill="none" stroke="black" stroke-width="2" d="M314.038,-421.901C329.889,-432.877 352.092,-448.079 371.877,-461 375.459,-463.339 379.229,-465.759 382.989,-468.144"/>
<polygon fill="black" stroke="black" stroke-width="2" points="381.323,-471.231 391.65,-473.596 385.052,-465.307 381.323,-471.231"/>
</g>
<!-- AS1239 -->
<g id="node18" class="node"><title>AS1239</title>
<g id="a_node18"><a xlink:href="/asn/1239" xlink:title="AS1239 ~ Sprint [US]">
<ellipse fill="#ffffff" stroke="black" cx="416.073" cy="-434" rx="39.7935" ry="18"/>
<text text-anchor="middle" x="416.073" y="-430.3" font-family="Times,serif" font-size="14.00" fill="#2c94b3">AS1239</text>
</a>
</g>
</g>
<!-- AS6830&#45;&gt;AS1239 -->
<g id="edge17" class="edge"><title>AS6830&#45;&gt;AS1239</title>
<path fill="none" stroke="black" stroke-width="2" d="M327.753,-414.737C340.94,-417.646 356.12,-420.995 370.086,-424.076"/>
<polygon fill="black" stroke="black" stroke-width="2" points="369.476,-427.525 379.995,-426.262 370.984,-420.69 369.476,-427.525"/>
</g>
<!-- AS12956 -->
<g id="node19" class="node"><title>AS12956</title>
<g id="a_node19"><a xlink:href="/asn/12956" xlink:title="AS12956 ~ TELXIUS [ES]">
<ellipse fill="#ffffff" stroke="black" cx="416.073" cy="-380" rx="44.393" ry="18"/>
<text text-anchor="middle" x="416.073" y="-376.3" font-family="Times,serif" font-size="14.00" fill="#2c94b3">AS12956</text>
</a>
</g>
</g>
<!-- AS6830&#45;&gt;AS12956 -->
<g id="edge18" class="edge"><title>AS6830&#45;&gt;AS12956</title>
<path fill="none" stroke="black" stroke-width="2" d="M327.753,-399.263C339.793,-396.607 353.493,-393.585 366.414,-390.734"/>
<polygon fill="black" stroke="black" stroke-width="2" points="367.551,-394.068 376.562,-388.495 366.043,-387.232 367.551,-394.068"/>
</g>
<!-- AS2914 -->
<g id="node20" class="node"><title>AS2914</title>
<g id="a_node20"><a xlink:href="/asn/2914" xlink:title="AS2914 ~ NTT America, Inc. [US]">
<ellipse fill="#ffffff" stroke="black" cx="416.073" cy="-326" rx="39.7935" ry="18"/>
<text text-anchor="middle" x="416.073" y="-322.3" font-family="Times,serif" font-size="14.00" fill="#2c94b3">AS2914</text>
</a>
</g>
</g>
<!-- AS6830&#45;&gt;AS2914 -->
<g id="edge19" class="edge"><title>AS6830&#45;&gt;AS2914</title>
<path fill="none" stroke="black" stroke-width="2" d="M314.038,-392.099C329.889,-381.123 352.092,-365.921 371.877,-353 375.459,-350.661 379.229,-348.241 382.989,-345.856"/>
<polygon fill="black" stroke="black" stroke-width="2" points="385.052,-348.693 391.65,-340.404 381.323,-342.769 385.052,-348.693"/>
</g>
<!-- AS174 -->
<g id="node21" class="node"><title>AS174</title>
<g id="a_node21"><a xlink:href="/asn/174" xlink:title="AS174 ~ Cogent Communications [US]">
<ellipse fill="#ffffff" stroke="black" cx="416.073" cy="-272" rx="35.194" ry="18"/>
<text text-anchor="middle" x="416.073" y="-268.3" font-family="Times,serif" font-size="14.00" fill="#2c94b3">AS174</text>
</a>
</g>
</g>
<!-- AS6830&#45;&gt;AS174 -->
<g id="edge20" class="edge"><title>AS6830&#45;&gt;AS174</title>
<path fill="none" stroke="black" stroke-width="2" d="M302.726,-389.329C316.297,-366.528 342.23,-326.528 371.877,-299 375.174,-295.939 378.866,-293.028 382.667,-290.328"/>
<polygon fill="black" stroke="black" stroke-width="2" points="384.642,-293.219 391.048,-284.78 380.778,-287.381 384.642,-293.219"/>
</g>
<!-- AS2497 -->
<g id="node22" class="node"><title>AS2497</title>
<g id="a_node22"><a xlink:href="/asn/2497" xlink:title="AS2497 ~ Internet Initiative Japan Inc. [JP]">
<ellipse fill="#ffffff" stroke="black" cx="416.073" cy="-218" rx="39.7935" ry="18"/>
<text text-anchor="middle" x="416.073" y="-214.3" font-family="Times,serif" font-size="14.00" fill="#2c94b3">AS2497</text>
</a>
</g>
</g>
<!-- AS6830&#45;&gt;AS2497 -->
<g id="edge21" class="edge"><title>AS6830&#45;&gt;AS2497</title>
<path fill="none" stroke="black" stroke-width="2" d="M297.818,-389.06C307.721,-357.021 332.059,-289.188 371.877,-245 374.393,-242.208 377.264,-239.599 380.303,-237.188"/>
<polygon fill="black" stroke="black" stroke-width="2" points="382.487,-239.93 388.611,-231.285 378.432,-234.224 382.487,-239.93"/>
</g>
<!-- AS1273 -->
<g id="node23" class="node"><title>AS1273</title>
<g id="a_node23"><a xlink:href="/asn/1273" xlink:title="AS1273 ~ Vodafone Group PLC [EU]">
<ellipse fill="#ffffff" stroke="black" cx="416.073" cy="-164" rx="39.7935" ry="18"/>
<text text-anchor="middle" x="416.073" y="-160.3" font-family="Times,serif" font-size="14.00" fill="#2c94b3">AS1273</text>
</a>
</g>
</g>
<!-- AS6830&#45;&gt;AS1273 -->
<g id="edge26" class="edge"><title>AS6830&#45;&gt;AS1273</title>
<path fill="none" stroke="black" d="M295.261,-388.822C301.716,-349.003 321.788,-252.714 371.877,-191 374.245,-188.082 377.018,-185.388 379.995,-182.925"/>
<polygon fill="black" stroke="black" points="382.187,-185.659 388.217,-176.948 378.071,-179.997 382.187,-185.659"/>
</g>
<!-- AS21385&#45;&gt;AS3356 -->
<g id="edge7" class="edge"><title>AS21385&#45;&gt;AS3356</title>
<path fill="none" stroke="black" stroke-width="2" d="M441.375,-780.997C447.561,-777.126 454.181,-772.94 460.269,-769 474.985,-759.475 491.166,-748.678 504.69,-739.56"/>
<polygon fill="black" stroke="black" stroke-width="2" points="506.826,-742.341 513.151,-733.841 502.906,-736.541 506.826,-742.341"/>
</g>
<!-- AS21385&#45;&gt;AS1299 -->
<g id="edge8" class="edge"><title>AS21385&#45;&gt;AS1299</title>
<path fill="none" stroke="black" d="M445.807,-782.572C451.295,-778.859 456.496,-774.347 460.269,-769 495.959,-718.416 522.442,-530.679 531.508,-458.514"/>
<polygon fill="black" stroke="black" points="535.011,-458.702 532.766,-448.348 528.064,-457.842 535.011,-458.702"/>
</g>
<!-- AS3549 -->
<g id="node10" class="node"><title>AS3549</title>
<g id="a_node10"><a xlink:href="/asn/3549" xlink:title="AS3549 ~ Level 3 Parent, LLC [US]">
<ellipse fill="#ffffff" stroke="black" cx="651.208" cy="-746" rx="39.7935" ry="18"/>
<text text-anchor="middle" x="651.208" y="-742.3" font-family="Times,serif" font-size="14.00" fill="#2c94b3">AS3549</text>
</a>
</g>
</g>
<!-- AS3356&#45;&gt;AS3549 -->
<g id="edge9" class="edge"><title>AS3356&#45;&gt;AS3549</title>
<path fill="none" stroke="black" stroke-width="2" d="M571.522,-727.248C582.394,-729.838 594.548,-732.735 605.991,-735.462"/>
<polygon fill="black" stroke="black" stroke-width="2" points="605.274,-738.889 615.813,-737.803 606.897,-732.08 605.274,-738.889"/>
</g>
<!-- AS209 -->
<g id="node11" class="node"><title>AS209</title>
<g id="a_node11"><a xlink:href="/asn/209" xlink:title="AS209 ~ CenturyLink Communications, LLC [US]">
<ellipse fill="#ffffff" stroke="black" cx="651.208" cy="-692" rx="35.194" ry="18"/>
<text text-anchor="middle" x="651.208" y="-688.3" font-family="Times,serif" font-size="14.00" fill="#2c94b3">AS209</text>
</a>
</g>
</g>
<!-- AS3356&#45;&gt;AS209 -->
<g id="edge10" class="edge"><title>AS3356&#45;&gt;AS209</title>
<path fill="none" stroke="black" d="M571.522,-710.752C583.317,-707.942 596.622,-704.771 608.889,-701.847"/>
<polygon fill="black" stroke="black" points="609.978,-705.186 618.894,-699.463 608.355,-698.376 609.978,-705.186"/>
</g>
</g>
</svg>
