<?xml version="1.0" encoding="UTF-8" standalone="no"?>
<!DOCTYPE svg PUBLIC "-//W3C//DTD SVG 1.1//EN"
 "http://www.w3.org/Graphics/SVG/1.1/DTD/svg11.dtd">
<!-- Generated by graphviz version 2.38.0 (20140413.2041)
 -->
<!-- Title: AS56963 IPv6 Upstream Graph Pages: 1 -->
<svg width="558pt" height="557pt"
 viewBox="0.00 0.00 557.56 557.00" xmlns="http://www.w3.org/2000/svg" xmlns:xlink="http://www.w3.org/1999/xlink">
<g id="graph0" class="graph" transform="scale(1 1) rotate(0) translate(4 553)">
<title>AS56963 IPv6 Upstream Graph</title>
<polygon fill="white" stroke="none" points="-4,4 -4,-553 553.564,-553 553.564,4 -4,4"/>
<!-- AS56963 -->
<g id="node1" class="node"><title>AS56963</title>
<g id="a_node1"><a xlink:href="/asn/56963" xlink:title="AS56963 ~ Skidata AG [AT]">
<ellipse fill="#ffffff" stroke="black" cx="44.1961" cy="-220" rx="44.393" ry="18"/>
<text text-anchor="middle" x="44.1961" y="-216.3" font-family="Times,serif" font-size="14.00" fill="#880000">AS56963</text>
</a>
</g>
</g>
<!-- AS8445 -->
<g id="node2" class="node"><title>AS8445</title>
<g id="a_node2"><a xlink:href="/asn/8445" xlink:title="AS8445 ~ SALZBURG&#45;AG&#45;AS [AT]">
<ellipse fill="#ffffff" stroke="black" cx="164.039" cy="-274" rx="39.7935" ry="18"/>
<text text-anchor="middle" x="164.039" y="-270.3" font-family="Times,serif" font-size="14.00" fill="#2c94b3">AS8445</text>
</a>
</g>
</g>
<!-- AS56963&#45;&gt;AS8445 -->
<g id="edge1" class="edge"><title>AS56963&#45;&gt;AS8445</title>
<path fill="none" stroke="black" stroke-width="4.5" d="M74.3257,-233.348C89.9369,-240.502 109.335,-249.391 126.007,-257.03"/>
<polygon fill="black" stroke="black" stroke-width="4.5" points="124.727,-260.775 135.459,-261.362 128.008,-253.616 124.727,-260.775"/>
</g>
<!-- AS8447 -->
<g id="node3" class="node"><title>AS8447</title>
<g id="a_node3"><a xlink:href="/asn/8447" xlink:title="AS8447 ~ A1 Telekom Austria AG [AT]">
<ellipse fill="#ffffff" stroke="black" cx="164.039" cy="-139" rx="39.7935" ry="18"/>
<text text-anchor="middle" x="164.039" y="-135.3" font-family="Times,serif" font-size="14.00" fill="#2c94b3">AS8447</text>
</a>
</g>
</g>
<!-- AS56963&#45;&gt;AS8447 -->
<g id="edge2" class="edge"><title>AS56963&#45;&gt;AS8447</title>
<path fill="none" stroke="black" stroke-width="1.875" d="M67.6387,-204.574C86.22,-191.802 112.781,-173.545 133.161,-159.537"/>
<polygon fill="black" stroke="black" stroke-width="1.875" points="135.216,-162.371 141.475,-153.822 131.251,-156.602 135.216,-162.371"/>
</g>
<!-- AS6453 -->
<g id="node4" class="node"><title>AS6453</title>
<g id="a_node4"><a xlink:href="/asn/6453" xlink:title="AS6453 ~ TATA COMMUNICATIONS (AMERICA) INC [US]">
<ellipse fill="#ffffff" stroke="black" cx="279.332" cy="-274" rx="39.7935" ry="18"/>
<text text-anchor="middle" x="279.332" y="-270.3" font-family="Times,serif" font-size="14.00" fill="#2c94b3">AS6453</text>
</a>
</g>
</g>
<!-- AS8445&#45;&gt;AS6453 -->
<g id="edge3" class="edge"><title>AS8445&#45;&gt;AS6453</title>
<path fill="none" stroke="black" stroke-width="3" d="M203.711,-274C211.914,-274 220.678,-274 229.21,-274"/>
<polygon fill="black" stroke="black" stroke-width="3" points="229.449,-277.5 239.449,-274 229.449,-270.5 229.449,-277.5"/>
</g>
<!-- AS1299 -->
<g id="node5" class="node"><title>AS1299</title>
<g id="a_node5"><a xlink:href="/asn/1299" xlink:title="AS1299 ~ Telia Carrier [EU]">
<ellipse fill="#ffffff" stroke="black" cx="279.332" cy="-220" rx="39.7935" ry="18"/>
<text text-anchor="middle" x="279.332" y="-216.3" font-family="Times,serif" font-size="14.00" fill="#2c94b3">AS1299</text>
</a>
</g>
</g>
<!-- AS8445&#45;&gt;AS1299 -->
<g id="edge4" class="edge"><title>AS8445&#45;&gt;AS1299</title>
<path fill="none" stroke="black" stroke-width="3" d="M192.175,-261.066C207.169,-253.919 225.99,-244.948 242.213,-237.215"/>
<polygon fill="black" stroke="black" stroke-width="3" points="243.895,-240.291 251.417,-232.829 240.884,-233.972 243.895,-240.291"/>
</g>
<!-- AS1764 -->
<g id="node6" class="node"><title>AS1764</title>
<g id="a_node6"><a xlink:href="/asn/1764" xlink:title="AS1764 ~ NEXTLAYER&#45;AS [AT]">
<ellipse fill="#ffffff" stroke="black" cx="279.332" cy="-423" rx="39.7935" ry="18"/>
<text text-anchor="middle" x="279.332" y="-419.3" font-family="Times,serif" font-size="14.00" fill="#2c94b3">AS1764</text>
</a>
</g>
</g>
<!-- AS8445&#45;&gt;AS1764 -->
<g id="edge5" class="edge"><title>AS8445&#45;&gt;AS1764</title>
<path fill="none" stroke="black" stroke-width="4" d="M178.035,-291.092C198.011,-317.364 236.362,-367.802 259.418,-398.125"/>
<polygon fill="black" stroke="black" stroke-width="4" points="256.648,-400.265 265.487,-406.107 262.22,-396.028 256.648,-400.265"/>
</g>
<!-- AS3356 -->
<g id="node7" class="node"><title>AS3356</title>
<g id="a_node7"><a xlink:href="/asn/3356" xlink:title="AS3356 ~ Level 3 Parent, LLC [US]">
<ellipse fill="#ffffff" stroke="black" cx="279.332" cy="-328" rx="39.7935" ry="18"/>
<text text-anchor="middle" x="279.332" y="-324.3" font-family="Times,serif" font-size="14.00" fill="#2c94b3">AS3356</text>
</a>
</g>
</g>
<!-- AS8445&#45;&gt;AS3356 -->
<g id="edge6" class="edge"><title>AS8445&#45;&gt;AS3356</title>
<path fill="none" stroke="black" stroke-width="2" d="M192.175,-286.934C207.169,-294.081 225.99,-303.052 242.213,-310.785"/>
<polygon fill="black" stroke="black" stroke-width="2" points="240.884,-314.028 251.417,-315.171 243.895,-307.709 240.884,-314.028"/>
</g>
<!-- AS6939 -->
<g id="node16" class="node"><title>AS6939</title>
<g id="a_node16"><a xlink:href="/asn/6939" xlink:title="AS6939 ~ Hurricane Electric LLC [US]">
<ellipse fill="#ffffff" stroke="black" cx="279.332" cy="-58" rx="39.7935" ry="18"/>
<text text-anchor="middle" x="279.332" y="-54.3" font-family="Times,serif" font-size="14.00" fill="#2c94b3">AS6939</text>
</a>
</g>
</g>
<!-- AS8447&#45;&gt;AS6939 -->
<g id="edge17" class="edge"><title>AS8447&#45;&gt;AS6939</title>
<path fill="none" stroke="black" stroke-width="3" d="M185.887,-123.778C200.821,-112.909 221.435,-97.9753 239.685,-85 242.506,-82.9948 245.449,-80.9154 248.397,-78.8411"/>
<polygon fill="black" stroke="black" stroke-width="3" points="250.443,-81.6812 256.621,-73.0744 246.424,-75.9497 250.443,-81.6812"/>
</g>
<!-- AS3320 -->
<g id="node17" class="node"><title>AS3320</title>
<g id="a_node17"><a xlink:href="/asn/3320" xlink:title="AS3320 ~ DTAG [DE]">
<ellipse fill="#ffffff" stroke="black" cx="279.332" cy="-166" rx="39.7935" ry="18"/>
<text text-anchor="middle" x="279.332" y="-162.3" font-family="Times,serif" font-size="14.00" fill="#2c94b3">AS3320</text>
</a>
</g>
</g>
<!-- AS8447&#45;&gt;AS3320 -->
<g id="edge18" class="edge"><title>AS8447&#45;&gt;AS3320</title>
<path fill="none" stroke="black" d="M199.646,-147.248C210.517,-149.838 222.671,-152.735 234.114,-155.462"/>
<polygon fill="black" stroke="black" points="233.397,-158.889 243.936,-157.803 235.02,-152.08 233.397,-158.889"/>
</g>
<!-- AS6762 -->
<g id="node18" class="node"><title>AS6762</title>
<g id="a_node18"><a xlink:href="/asn/6762" xlink:title="AS6762 ~ TELECOM ITALIA SPARKLE S.p.A. [IT]">
<ellipse fill="#ffffff" stroke="black" cx="279.332" cy="-112" rx="39.7935" ry="18"/>
<text text-anchor="middle" x="279.332" y="-108.3" font-family="Times,serif" font-size="14.00" fill="#2c94b3">AS6762</text>
</a>
</g>
</g>
<!-- AS8447&#45;&gt;AS6762 -->
<g id="edge19" class="edge"><title>AS8447&#45;&gt;AS6762</title>
<path fill="none" stroke="black" d="M199.646,-130.752C210.517,-128.162 222.671,-125.265 234.114,-122.538"/>
<polygon fill="black" stroke="black" points="235.02,-125.92 243.936,-120.197 233.397,-119.111 235.02,-125.92"/>
</g>
<!-- AS2497 -->
<g id="node8" class="node"><title>AS2497</title>
<g id="a_node8"><a xlink:href="/asn/2497" xlink:title="AS2497 ~ Internet Initiative Japan Inc. [JP]">
<ellipse fill="#ffffff" stroke="black" cx="394.625" cy="-315" rx="39.7935" ry="18"/>
<text text-anchor="middle" x="394.625" y="-311.3" font-family="Times,serif" font-size="14.00" fill="#2c94b3">AS2497</text>
</a>
</g>
</g>
<!-- AS6453&#45;&gt;AS2497 -->
<g id="edge7" class="edge"><title>AS6453&#45;&gt;AS2497</title>
<path fill="none" stroke="black" d="M310.99,-285.095C323.963,-289.79 339.256,-295.324 353.137,-300.348"/>
<polygon fill="black" stroke="black" points="352.347,-303.784 362.941,-303.896 354.729,-297.202 352.347,-303.784"/>
</g>
<!-- AS209 -->
<g id="node9" class="node"><title>AS209</title>
<g id="a_node9"><a xlink:href="/asn/209" xlink:title="AS209 ~ CenturyLink Communications, LLC [US]">
<ellipse fill="#ffffff" stroke="black" cx="394.625" cy="-261" rx="35.194" ry="18"/>
<text text-anchor="middle" x="394.625" y="-257.3" font-family="Times,serif" font-size="14.00" fill="#2c94b3">AS209</text>
</a>
</g>
</g>
<!-- AS6453&#45;&gt;AS209 -->
<g id="edge8" class="edge"><title>AS6453&#45;&gt;AS209</title>
<path fill="none" stroke="black" d="M318.057,-269.671C328.291,-268.497 339.457,-267.216 349.988,-266.007"/>
<polygon fill="black" stroke="black" points="350.715,-269.447 360.25,-264.83 349.917,-262.492 350.715,-269.447"/>
</g>
<!-- AS1299&#45;&gt;AS209 -->
<g id="edge10" class="edge"><title>AS1299&#45;&gt;AS209</title>
<path fill="none" stroke="black" d="M310.99,-231.095C324.727,-236.067 341.068,-241.98 355.577,-247.231"/>
<polygon fill="black" stroke="black" points="354.68,-250.628 365.275,-250.74 357.062,-244.046 354.68,-250.628"/>
</g>
<!-- AS7018 -->
<g id="node10" class="node"><title>AS7018</title>
<g id="a_node10"><a xlink:href="/asn/7018" xlink:title="AS7018 ~ AT&amp;T Services, Inc. [US]">
<ellipse fill="#ffffff" stroke="black" cx="394.625" cy="-207" rx="39.7935" ry="18"/>
<text text-anchor="middle" x="394.625" y="-203.3" font-family="Times,serif" font-size="14.00" fill="#2c94b3">AS7018</text>
</a>
</g>
</g>
<!-- AS1299&#45;&gt;AS7018 -->
<g id="edge9" class="edge"><title>AS1299&#45;&gt;AS7018</title>
<path fill="none" stroke="black" d="M318.057,-215.671C327.038,-214.641 336.737,-213.528 346.094,-212.454"/>
<polygon fill="black" stroke="black" points="346.529,-215.927 356.064,-211.31 345.731,-208.973 346.529,-215.927"/>
</g>
<!-- AS174 -->
<g id="node11" class="node"><title>AS174</title>
<g id="a_node11"><a xlink:href="/asn/174" xlink:title="AS174 ~ Cogent Communications [US]">
<ellipse fill="#ffffff" stroke="black" cx="394.625" cy="-531" rx="35.194" ry="18"/>
<text text-anchor="middle" x="394.625" y="-527.3" font-family="Times,serif" font-size="14.00" fill="#2c94b3">AS174</text>
</a>
</g>
</g>
<!-- AS1764&#45;&gt;AS174 -->
<g id="edge11" class="edge"><title>AS1764&#45;&gt;AS174</title>
<path fill="none" stroke="black" d="M293.962,-439.817C308.244,-456.929 331.791,-483.745 354.978,-504 357.648,-506.332 360.521,-508.648 363.451,-510.886"/>
<polygon fill="black" stroke="black" points="361.602,-513.87 371.742,-516.939 365.729,-508.216 361.602,-513.87"/>
</g>
<!-- AS2914 -->
<g id="node12" class="node"><title>AS2914</title>
<g id="a_node12"><a xlink:href="/asn/2914" xlink:title="AS2914 ~ NTT America, Inc. [US]">
<ellipse fill="#ffffff" stroke="black" cx="394.625" cy="-477" rx="39.7935" ry="18"/>
<text text-anchor="middle" x="394.625" y="-473.3" font-family="Times,serif" font-size="14.00" fill="#2c94b3">AS2914</text>
</a>
</g>
</g>
<!-- AS1764&#45;&gt;AS2914 -->
<g id="edge12" class="edge"><title>AS1764&#45;&gt;AS2914</title>
<path fill="none" stroke="black" d="M307.468,-435.934C322.462,-443.081 341.283,-452.052 357.506,-459.785"/>
<polygon fill="black" stroke="black" points="356.177,-463.028 366.71,-464.171 359.188,-456.709 356.177,-463.028"/>
</g>
<!-- AS8218 -->
<g id="node13" class="node"><title>AS8218</title>
<g id="a_node13"><a xlink:href="/asn/8218" xlink:title="AS8218 ~ legacy Neotelecoms [FR]">
<ellipse fill="#ffffff" stroke="black" cx="394.625" cy="-423" rx="39.7935" ry="18"/>
<text text-anchor="middle" x="394.625" y="-419.3" font-family="Times,serif" font-size="14.00" fill="#2c94b3">AS8218</text>
</a>
</g>
</g>
<!-- AS1764&#45;&gt;AS8218 -->
<g id="edge13" class="edge"><title>AS1764&#45;&gt;AS8218</title>
<path fill="none" stroke="black" d="M319.004,-423C327.207,-423 335.971,-423 344.503,-423"/>
<polygon fill="black" stroke="black" points="344.742,-426.5 354.742,-423 344.742,-419.5 344.742,-426.5"/>
</g>
<!-- AS3257 -->
<g id="node14" class="node"><title>AS3257</title>
<g id="a_node14"><a xlink:href="/asn/3257" xlink:title="AS3257 ~ GTT [DE]">
<ellipse fill="#ffffff" stroke="black" cx="394.625" cy="-369" rx="39.7935" ry="18"/>
<text text-anchor="middle" x="394.625" y="-365.3" font-family="Times,serif" font-size="14.00" fill="#2c94b3">AS3257</text>
</a>
</g>
</g>
<!-- AS1764&#45;&gt;AS3257 -->
<g id="edge14" class="edge"><title>AS1764&#45;&gt;AS3257</title>
<path fill="none" stroke="black" d="M307.468,-410.066C322.462,-402.919 341.283,-393.948 357.506,-386.215"/>
<polygon fill="black" stroke="black" points="359.188,-389.291 366.71,-381.829 356.177,-382.972 359.188,-389.291"/>
</g>
<!-- AS3356&#45;&gt;AS2497 -->
<g id="edge16" class="edge"><title>AS3356&#45;&gt;AS2497</title>
<path fill="none" stroke="black" d="M318.057,-323.671C327.038,-322.641 336.737,-321.528 346.094,-320.454"/>
<polygon fill="black" stroke="black" points="346.529,-323.927 356.064,-319.31 345.731,-316.973 346.529,-323.927"/>
</g>
<!-- AS6461 -->
<g id="node15" class="node"><title>AS6461</title>
<g id="a_node15"><a xlink:href="/asn/6461" xlink:title="AS6461 ~ Zayo Bandwidth [US]">
<ellipse fill="#ffffff" stroke="black" cx="509.918" cy="-423" rx="39.7935" ry="18"/>
<text text-anchor="middle" x="509.918" y="-419.3" font-family="Times,serif" font-size="14.00" fill="#2c94b3">AS6461</text>
</a>
</g>
</g>
<!-- AS8218&#45;&gt;AS6461 -->
<g id="edge15" class="edge"><title>AS8218&#45;&gt;AS6461</title>
<path fill="none" stroke="black" d="M434.297,-423C442.5,-423 451.264,-423 459.796,-423"/>
<polygon fill="black" stroke="black" points="460.035,-426.5 470.035,-423 460.035,-419.5 460.035,-426.5"/>
</g>
<!-- AS6939&#45;&gt;AS2497 -->
<g id="edge20" class="edge"><title>AS6939&#45;&gt;AS2497</title>
<path fill="none" stroke="black" d="M305.817,-71.4981C310.865,-75.2477 315.631,-79.7572 318.978,-85 368.289,-162.23 305.667,-210.77 354.978,-288 356.547,-290.458 358.428,-292.754 360.503,-294.887"/>
<polygon fill="black" stroke="black" points="358.289,-297.599 368.139,-301.502 362.873,-292.308 358.289,-297.599"/>
</g>
<!-- AS3491 -->
<g id="node19" class="node"><title>AS3491</title>
<g id="a_node19"><a xlink:href="/asn/3491" xlink:title="AS3491 ~ PCCW Global, Inc. [US]">
<ellipse fill="#ffffff" stroke="black" cx="394.625" cy="-18" rx="39.7935" ry="18"/>
<text text-anchor="middle" x="394.625" y="-14.3" font-family="Times,serif" font-size="14.00" fill="#2c94b3">AS3491</text>
</a>
</g>
</g>
<!-- AS6939&#45;&gt;AS3491 -->
<g id="edge21" class="edge"><title>AS6939&#45;&gt;AS3491</title>
<path fill="none" stroke="black" d="M311.289,-47.0698C324.153,-42.5281 339.259,-37.1948 352.995,-32.3448"/>
<polygon fill="black" stroke="black" points="354.44,-35.5466 362.704,-28.917 352.109,-28.9459 354.44,-35.5466"/>
</g>
<!-- AS1273 -->
<g id="node20" class="node"><title>AS1273</title>
<g id="a_node20"><a xlink:href="/asn/1273" xlink:title="AS1273 ~ Vodafone Group PLC [EU]">
<ellipse fill="#ffffff" stroke="black" cx="394.625" cy="-72" rx="39.7935" ry="18"/>
<text text-anchor="middle" x="394.625" y="-68.3" font-family="Times,serif" font-size="14.00" fill="#2c94b3">AS1273</text>
</a>
</g>
</g>
<!-- AS6939&#45;&gt;AS1273 -->
<g id="edge22" class="edge"><title>AS6939&#45;&gt;AS1273</title>
<path fill="none" stroke="black" d="M317.742,-62.6229C326.83,-63.7459 336.667,-64.9616 346.152,-66.1336"/>
<polygon fill="black" stroke="black" points="345.9,-69.629 356.254,-67.3819 346.758,-62.6819 345.9,-69.629"/>
</g>
<!-- AS701 -->
<g id="node21" class="node"><title>AS701</title>
<g id="a_node21"><a xlink:href="/asn/701" xlink:title="AS701 ~ UUNET [US]">
<ellipse fill="#ffffff" stroke="black" cx="394.625" cy="-153" rx="35.194" ry="18"/>
<text text-anchor="middle" x="394.625" y="-149.3" font-family="Times,serif" font-size="14.00" fill="#2c94b3">AS701</text>
</a>
</g>
</g>
<!-- AS3320&#45;&gt;AS701 -->
<g id="edge23" class="edge"><title>AS3320&#45;&gt;AS701</title>
<path fill="none" stroke="black" d="M318.057,-161.671C328.291,-160.497 339.457,-159.216 349.988,-158.007"/>
<polygon fill="black" stroke="black" points="350.715,-161.447 360.25,-156.83 349.917,-154.492 350.715,-161.447"/>
</g>
</g>
</svg>
