<?xml version="1.0" encoding="UTF-8" standalone="no"?>
<!DOCTYPE svg PUBLIC "-//W3C//DTD SVG 1.1//EN"
 "http://www.w3.org/Graphics/SVG/1.1/DTD/svg11.dtd">
<!-- Generated by graphviz version 2.38.0 (20140413.2041)
 -->
<!-- Title: AS199437 IPv4 Upstream Graph Pages: 1 -->
<svg width="699pt" height="692pt"
 viewBox="0.00 0.00 698.85 692.00" xmlns="http://www.w3.org/2000/svg" xmlns:xlink="http://www.w3.org/1999/xlink">
<g id="graph0" class="graph" transform="scale(1 1) rotate(0) translate(4 688)">
<title>AS199437 IPv4 Upstream Graph</title>
<polygon fill="white" stroke="none" points="-4,4 -4,-688 694.855,-688 694.855,4 -4,4"/>
<!-- AS199437 -->
<g id="node1" class="node"><title>AS199437</title>
<g id="a_node1"><a xlink:href="/asn/199437" xlink:title="AS199437 ~ VVO&#45;AT [AT]">
<ellipse fill="#ffffff" stroke="black" cx="48.0957" cy="-423" rx="48.1917" ry="18"/>
<text text-anchor="middle" x="48.0957" y="-419.3" font-family="Times,serif" font-size="14.00" fill="#880000">AS199437</text>
</a>
</g>
</g>
<!-- AS8437 -->
<g id="node2" class="node"><title>AS8437</title>
<g id="a_node2"><a xlink:href="/asn/8437" xlink:title="AS8437 ~ Hutchison Drei Austria GmbH [AT]">
<ellipse fill="#ffffff" stroke="black" cx="171.838" cy="-423" rx="39.7935" ry="18"/>
<text text-anchor="middle" x="171.838" y="-419.3" font-family="Times,serif" font-size="14.00" fill="#2c94b3">AS8437</text>
</a>
</g>
</g>
<!-- AS199437&#45;&gt;AS8437 -->
<g id="edge1" class="edge"><title>AS199437&#45;&gt;AS8437</title>
<path fill="none" stroke="black" stroke-width="4.5" d="M96.5131,-423C104.867,-423 113.577,-423 121.969,-423"/>
<polygon fill="black" stroke="black" stroke-width="4.5" points="122.004,-426.938 132.004,-423 122.004,-419.063 122.004,-426.938"/>
</g>
<!-- AS25255 -->
<g id="node3" class="node"><title>AS25255</title>
<g id="a_node3"><a xlink:href="/asn/25255" xlink:title="AS25255 ~ ==&gt; TELE2 AUSTRIA &lt;== [AT]">
<ellipse fill="#ffffff" stroke="black" cx="291.681" cy="-423" rx="44.393" ry="18"/>
<text text-anchor="middle" x="291.681" y="-419.3" font-family="Times,serif" font-size="14.00" fill="#2c94b3">AS25255</text>
</a>
</g>
</g>
<!-- AS8437&#45;&gt;AS25255 -->
<g id="edge2" class="edge"><title>AS8437&#45;&gt;AS25255</title>
<path fill="none" stroke="black" stroke-width="4.5" d="M211.751,-423C219.853,-423 228.528,-423 237.055,-423"/>
<polygon fill="black" stroke="black" stroke-width="4.5" points="237.332,-426.938 247.332,-423 237.332,-419.063 237.332,-426.938"/>
</g>
<!-- AS6762 -->
<g id="node4" class="node"><title>AS6762</title>
<g id="a_node4"><a xlink:href="/asn/6762" xlink:title="AS6762 ~ TELECOM ITALIA SPARKLE S.p.A. [IT]">
<ellipse fill="#ffffff" stroke="black" cx="411.523" cy="-585" rx="39.7935" ry="18"/>
<text text-anchor="middle" x="411.523" y="-581.3" font-family="Times,serif" font-size="14.00" fill="#2c94b3">AS6762</text>
</a>
</g>
</g>
<!-- AS25255&#45;&gt;AS6762 -->
<g id="edge3" class="edge"><title>AS25255&#45;&gt;AS6762</title>
<path fill="none" stroke="black" stroke-width="3.6" d="M305.292,-440.337C326.113,-468.96 367.775,-526.233 391.964,-559.486"/>
<polygon fill="black" stroke="black" stroke-width="3.6" points="389.29,-561.76 398.003,-567.788 394.95,-557.642 389.29,-561.76"/>
</g>
<!-- AS8447 -->
<g id="node5" class="node"><title>AS8447</title>
<g id="a_node5"><a xlink:href="/asn/8447" xlink:title="AS8447 ~ A1 Telekom Austria AG [AT]">
<ellipse fill="#ffffff" stroke="black" cx="411.523" cy="-477" rx="39.7935" ry="18"/>
<text text-anchor="middle" x="411.523" y="-473.3" font-family="Times,serif" font-size="14.00" fill="#2c94b3">AS8447</text>
</a>
</g>
</g>
<!-- AS25255&#45;&gt;AS8447 -->
<g id="edge4" class="edge"><title>AS25255&#45;&gt;AS8447</title>
<path fill="none" stroke="black" stroke-width="1.8" d="M321.81,-436.348C337.421,-443.502 356.819,-452.391 373.491,-460.03"/>
<polygon fill="black" stroke="black" stroke-width="1.8" points="372.394,-463.378 382.943,-464.362 375.31,-457.014 372.394,-463.378"/>
</g>
<!-- AS1764 -->
<g id="node6" class="node"><title>AS1764</title>
<g id="a_node6"><a xlink:href="/asn/1764" xlink:title="AS1764 ~ NEXTLAYER&#45;AS [AT]">
<ellipse fill="#ffffff" stroke="black" cx="411.523" cy="-369" rx="39.7935" ry="18"/>
<text text-anchor="middle" x="411.523" y="-365.3" font-family="Times,serif" font-size="14.00" fill="#2c94b3">AS1764</text>
</a>
</g>
</g>
<!-- AS25255&#45;&gt;AS1764 -->
<g id="edge5" class="edge"><title>AS25255&#45;&gt;AS1764</title>
<path fill="none" stroke="black" stroke-width="4.5" d="M321.81,-409.652C337.421,-402.498 356.819,-393.609 373.491,-385.97"/>
<polygon fill="black" stroke="black" stroke-width="4.5" points="375.492,-389.384 382.943,-381.638 372.212,-382.225 375.492,-389.384"/>
</g>
<!-- AS3320 -->
<g id="node7" class="node"><title>AS3320</title>
<g id="a_node7"><a xlink:href="/asn/3320" xlink:title="AS3320 ~ DTAG [DE]">
<ellipse fill="#ffffff" stroke="black" cx="411.523" cy="-126" rx="39.7935" ry="18"/>
<text text-anchor="middle" x="411.523" y="-122.3" font-family="Times,serif" font-size="14.00" fill="#2c94b3">AS3320</text>
</a>
</g>
</g>
<!-- AS25255&#45;&gt;AS3320 -->
<g id="edge6" class="edge"><title>AS25255&#45;&gt;AS3320</title>
<path fill="none" stroke="black" stroke-width="4.5" d="M299.875,-404.868C319.809,-354.627 375.851,-213.385 399.633,-153.447"/>
<polygon fill="black" stroke="black" stroke-width="4.5" points="403.395,-154.642 403.423,-143.894 396.075,-151.737 403.395,-154.642"/>
</g>
<!-- AS6453 -->
<g id="node8" class="node"><title>AS6453</title>
<g id="a_node8"><a xlink:href="/asn/6453" xlink:title="AS6453 ~ TATA COMMUNICATIONS (AMERICA) INC [US]">
<ellipse fill="#ffffff" stroke="black" cx="531.366" cy="-666" rx="39.7935" ry="18"/>
<text text-anchor="middle" x="531.366" y="-662.3" font-family="Times,serif" font-size="14.00" fill="#2c94b3">AS6453</text>
</a>
</g>
</g>
<!-- AS6762&#45;&gt;AS6453 -->
<g id="edge7" class="edge"><title>AS6762&#45;&gt;AS6453</title>
<path fill="none" stroke="black" d="M432.853,-600.277C447.716,-611.304 468.46,-626.407 487.17,-639 490.719,-641.389 494.469,-643.839 498.217,-646.242"/>
<polygon fill="black" stroke="black" points="496.544,-649.325 506.866,-651.712 500.285,-643.409 496.544,-649.325"/>
</g>
<!-- AS3491 -->
<g id="node9" class="node"><title>AS3491</title>
<g id="a_node9"><a xlink:href="/asn/3491" xlink:title="AS3491 ~ PCCW Global, Inc. [US]">
<ellipse fill="#ffffff" stroke="black" cx="531.366" cy="-612" rx="39.7935" ry="18"/>
<text text-anchor="middle" x="531.366" y="-608.3" font-family="Times,serif" font-size="14.00" fill="#2c94b3">AS3491</text>
</a>
</g>
</g>
<!-- AS6762&#45;&gt;AS3491 -->
<g id="edge8" class="edge"><title>AS6762&#45;&gt;AS3491</title>
<path fill="none" stroke="black" d="M447.242,-592.955C459.242,-595.704 472.863,-598.825 485.556,-601.733"/>
<polygon fill="black" stroke="black" points="484.958,-605.187 495.487,-604.009 486.522,-598.364 484.958,-605.187"/>
</g>
<!-- AS12956 -->
<g id="node10" class="node"><title>AS12956</title>
<g id="a_node10"><a xlink:href="/asn/12956" xlink:title="AS12956 ~ TELXIUS [ES]">
<ellipse fill="#ffffff" stroke="black" cx="531.366" cy="-558" rx="44.393" ry="18"/>
<text text-anchor="middle" x="531.366" y="-554.3" font-family="Times,serif" font-size="14.00" fill="#2c94b3">AS12956</text>
</a>
</g>
</g>
<!-- AS6762&#45;&gt;AS12956 -->
<g id="edge9" class="edge"><title>AS6762&#45;&gt;AS12956</title>
<path fill="none" stroke="black" d="M447.242,-577.045C458.381,-574.493 470.916,-571.621 482.809,-568.896"/>
<polygon fill="black" stroke="black" points="483.638,-572.297 492.603,-566.652 482.074,-565.474 483.638,-572.297"/>
</g>
<!-- AS3356 -->
<g id="node11" class="node"><title>AS3356</title>
<g id="a_node11"><a xlink:href="/asn/3356" xlink:title="AS3356 ~ Level 3 Parent, LLC [US]">
<ellipse fill="#ffffff" stroke="black" cx="531.366" cy="-504" rx="39.7935" ry="18"/>
<text text-anchor="middle" x="531.366" y="-500.3" font-family="Times,serif" font-size="14.00" fill="#2c94b3">AS3356</text>
</a>
</g>
</g>
<!-- AS8447&#45;&gt;AS3356 -->
<g id="edge10" class="edge"><title>AS8447&#45;&gt;AS3356</title>
<path fill="none" stroke="black" stroke-width="2" d="M447.242,-484.955C459.242,-487.704 472.863,-490.825 485.556,-493.733"/>
<polygon fill="black" stroke="black" stroke-width="2" points="484.958,-497.187 495.487,-496.009 486.522,-490.364 484.958,-497.187"/>
</g>
<!-- AS2914 -->
<g id="node13" class="node"><title>AS2914</title>
<g id="a_node13"><a xlink:href="/asn/2914" xlink:title="AS2914 ~ NTT America, Inc. [US]">
<ellipse fill="#ffffff" stroke="black" cx="531.366" cy="-450" rx="39.7935" ry="18"/>
<text text-anchor="middle" x="531.366" y="-446.3" font-family="Times,serif" font-size="14.00" fill="#2c94b3">AS2914</text>
</a>
</g>
</g>
<!-- AS1764&#45;&gt;AS2914 -->
<g id="edge12" class="edge"><title>AS1764&#45;&gt;AS2914</title>
<path fill="none" stroke="black" d="M432.853,-384.277C447.716,-395.304 468.46,-410.407 487.17,-423 490.719,-425.389 494.469,-427.839 498.217,-430.242"/>
<polygon fill="black" stroke="black" points="496.544,-433.325 506.866,-435.712 500.285,-427.409 496.544,-433.325"/>
</g>
<!-- AS1299 -->
<g id="node14" class="node"><title>AS1299</title>
<g id="a_node14"><a xlink:href="/asn/1299" xlink:title="AS1299 ~ Telia Carrier [EU]">
<ellipse fill="#ffffff" stroke="black" cx="531.366" cy="-396" rx="39.7935" ry="18"/>
<text text-anchor="middle" x="531.366" y="-392.3" font-family="Times,serif" font-size="14.00" fill="#2c94b3">AS1299</text>
</a>
</g>
</g>
<!-- AS1764&#45;&gt;AS1299 -->
<g id="edge13" class="edge"><title>AS1764&#45;&gt;AS1299</title>
<path fill="none" stroke="black" d="M447.242,-376.955C459.242,-379.704 472.863,-382.825 485.556,-385.733"/>
<polygon fill="black" stroke="black" points="484.958,-389.187 495.487,-388.009 486.522,-382.364 484.958,-389.187"/>
</g>
<!-- AS3257 -->
<g id="node15" class="node"><title>AS3257</title>
<g id="a_node15"><a xlink:href="/asn/3257" xlink:title="AS3257 ~ GTT [DE]">
<ellipse fill="#ffffff" stroke="black" cx="531.366" cy="-342" rx="39.7935" ry="18"/>
<text text-anchor="middle" x="531.366" y="-338.3" font-family="Times,serif" font-size="14.00" fill="#2c94b3">AS3257</text>
</a>
</g>
</g>
<!-- AS1764&#45;&gt;AS3257 -->
<g id="edge14" class="edge"><title>AS1764&#45;&gt;AS3257</title>
<path fill="none" stroke="black" d="M447.242,-361.045C459.242,-358.296 472.863,-355.175 485.556,-352.267"/>
<polygon fill="black" stroke="black" points="486.522,-355.636 495.487,-349.991 484.958,-348.813 486.522,-355.636"/>
</g>
<!-- AS8218 -->
<g id="node16" class="node"><title>AS8218</title>
<g id="a_node16"><a xlink:href="/asn/8218" xlink:title="AS8218 ~ legacy Neotelecoms [FR]">
<ellipse fill="#ffffff" stroke="black" cx="531.366" cy="-288" rx="39.7935" ry="18"/>
<text text-anchor="middle" x="531.366" y="-284.3" font-family="Times,serif" font-size="14.00" fill="#2c94b3">AS8218</text>
</a>
</g>
</g>
<!-- AS1764&#45;&gt;AS8218 -->
<g id="edge15" class="edge"><title>AS1764&#45;&gt;AS8218</title>
<path fill="none" stroke="black" d="M432.853,-353.723C447.716,-342.696 468.46,-327.593 487.17,-315 490.719,-312.611 494.469,-310.161 498.217,-307.758"/>
<polygon fill="black" stroke="black" points="500.285,-310.591 506.866,-302.288 496.544,-304.675 500.285,-310.591"/>
</g>
<!-- AS174 -->
<g id="node17" class="node"><title>AS174</title>
<g id="a_node17"><a xlink:href="/asn/174" xlink:title="AS174 ~ Cogent Communications [US]">
<ellipse fill="#ffffff" stroke="black" cx="531.366" cy="-234" rx="35.194" ry="18"/>
<text text-anchor="middle" x="531.366" y="-230.3" font-family="Times,serif" font-size="14.00" fill="#2c94b3">AS174</text>
</a>
</g>
</g>
<!-- AS1764&#45;&gt;AS174 -->
<g id="edge16" class="edge"><title>AS1764&#45;&gt;AS174</title>
<path fill="none" stroke="black" d="M421.764,-351.287C434.31,-328.439 458.487,-288.389 487.17,-261 490.424,-257.893 494.09,-254.954 497.877,-252.24"/>
<polygon fill="black" stroke="black" points="499.854,-255.128 506.245,-246.678 495.979,-249.299 499.854,-255.128"/>
</g>
<!-- AS2497 -->
<g id="node18" class="node"><title>AS2497</title>
<g id="a_node18"><a xlink:href="/asn/2497" xlink:title="AS2497 ~ Internet Initiative Japan Inc. [JP]">
<ellipse fill="#ffffff" stroke="black" cx="531.366" cy="-180" rx="39.7935" ry="18"/>
<text text-anchor="middle" x="531.366" y="-176.3" font-family="Times,serif" font-size="14.00" fill="#2c94b3">AS2497</text>
</a>
</g>
</g>
<!-- AS3320&#45;&gt;AS2497 -->
<g id="edge17" class="edge"><title>AS3320&#45;&gt;AS2497</title>
<path fill="none" stroke="black" d="M440.152,-138.661C456.109,-145.973 476.379,-155.261 493.662,-163.181"/>
<polygon fill="black" stroke="black" points="492.361,-166.435 502.91,-167.419 495.277,-160.071 492.361,-166.435"/>
</g>
<!-- AS701 -->
<g id="node19" class="node"><title>AS701</title>
<g id="a_node19"><a xlink:href="/asn/701" xlink:title="AS701 ~ UUNET [US]">
<ellipse fill="#ffffff" stroke="black" cx="531.366" cy="-126" rx="35.194" ry="18"/>
<text text-anchor="middle" x="531.366" y="-122.3" font-family="Times,serif" font-size="14.00" fill="#2c94b3">AS701</text>
</a>
</g>
</g>
<!-- AS3320&#45;&gt;AS701 -->
<g id="edge18" class="edge"><title>AS3320&#45;&gt;AS701</title>
<path fill="none" stroke="black" d="M451.436,-126C462.523,-126 474.682,-126 486.064,-126"/>
<polygon fill="black" stroke="black" points="486.246,-129.5 496.246,-126 486.246,-122.5 486.246,-129.5"/>
</g>
<!-- AS1239 -->
<g id="node20" class="node"><title>AS1239</title>
<g id="a_node20"><a xlink:href="/asn/1239" xlink:title="AS1239 ~ Sprint [US]">
<ellipse fill="#ffffff" stroke="black" cx="531.366" cy="-72" rx="39.7935" ry="18"/>
<text text-anchor="middle" x="531.366" y="-68.3" font-family="Times,serif" font-size="14.00" fill="#2c94b3">AS1239</text>
</a>
</g>
</g>
<!-- AS3320&#45;&gt;AS1239 -->
<g id="edge19" class="edge"><title>AS3320&#45;&gt;AS1239</title>
<path fill="none" stroke="black" d="M440.152,-113.339C456.109,-106.027 476.379,-96.7385 493.662,-88.8189"/>
<polygon fill="black" stroke="black" points="495.277,-91.929 502.91,-84.5813 492.361,-85.5653 495.277,-91.929"/>
</g>
<!-- AS7018 -->
<g id="node21" class="node"><title>AS7018</title>
<g id="a_node21"><a xlink:href="/asn/7018" xlink:title="AS7018 ~ AT&amp;T Services, Inc. [US]">
<ellipse fill="#ffffff" stroke="black" cx="531.366" cy="-18" rx="39.7935" ry="18"/>
<text text-anchor="middle" x="531.366" y="-14.3" font-family="Times,serif" font-size="14.00" fill="#2c94b3">AS7018</text>
</a>
</g>
</g>
<!-- AS3320&#45;&gt;AS7018 -->
<g id="edge20" class="edge"><title>AS3320&#45;&gt;AS7018</title>
<path fill="none" stroke="black" d="M425.942,-108.935C440.057,-91.6254 463.471,-64.6554 487.17,-45 490.386,-42.3323 493.886,-39.7296 497.457,-37.2588"/>
<polygon fill="black" stroke="black" points="499.381,-40.1827 505.813,-31.7642 495.535,-34.3338 499.381,-40.1827"/>
</g>
<!-- AS3549 -->
<g id="node12" class="node"><title>AS3549</title>
<g id="a_node12"><a xlink:href="/asn/3549" xlink:title="AS3549 ~ Level 3 Parent, LLC [US]">
<ellipse fill="#ffffff" stroke="black" cx="651.208" cy="-504" rx="39.7935" ry="18"/>
<text text-anchor="middle" x="651.208" y="-500.3" font-family="Times,serif" font-size="14.00" fill="#2c94b3">AS3549</text>
</a>
</g>
</g>
<!-- AS3356&#45;&gt;AS3549 -->
<g id="edge11" class="edge"><title>AS3356&#45;&gt;AS3549</title>
<path fill="none" stroke="black" d="M571.278,-504C580.832,-504 591.181,-504 601.144,-504"/>
<polygon fill="black" stroke="black" points="601.336,-507.5 611.336,-504 601.336,-500.5 601.336,-507.5"/>
</g>
<!-- AS6461 -->
<g id="node22" class="node"><title>AS6461</title>
<g id="a_node22"><a xlink:href="/asn/6461" xlink:title="AS6461 ~ Zayo Bandwidth [US]">
<ellipse fill="#ffffff" stroke="black" cx="651.208" cy="-288" rx="39.7935" ry="18"/>
<text text-anchor="middle" x="651.208" y="-284.3" font-family="Times,serif" font-size="14.00" fill="#2c94b3">AS6461</text>
</a>
</g>
</g>
<!-- AS8218&#45;&gt;AS6461 -->
<g id="edge21" class="edge"><title>AS8218&#45;&gt;AS6461</title>
<path fill="none" stroke="black" d="M571.278,-288C580.832,-288 591.181,-288 601.144,-288"/>
<polygon fill="black" stroke="black" points="601.336,-291.5 611.336,-288 601.336,-284.5 601.336,-291.5"/>
</g>
</g>
</svg>
