<?xml version="1.0" encoding="UTF-8" standalone="no"?>
<!DOCTYPE svg PUBLIC "-//W3C//DTD SVG 1.1//EN"
 "http://www.w3.org/Graphics/SVG/1.1/DTD/svg11.dtd">
<!-- Generated by graphviz version 2.38.0 (20140413.2041)
 -->
<!-- Title: AS206469 Combined Upstream Graph Pages: 1 -->
<svg width="690pt" height="607pt"
 viewBox="0.00 0.00 689.76 606.56" xmlns="http://www.w3.org/2000/svg" xmlns:xlink="http://www.w3.org/1999/xlink">
<g id="graph0" class="graph" transform="scale(1 1) rotate(0) translate(4 602.558)">
<title>AS206469 Combined Upstream Graph</title>
<polygon fill="white" stroke="none" points="-4,4 -4,-602.558 685.755,-602.558 685.755,4 -4,4"/>
<!-- AS206469 -->
<g id="node1" class="node"><title>AS206469</title>
<g id="a_node1"><a xlink:href="/asn/206469" xlink:title="AS206469 ~ Networked Creativity LLP [AT]">
<ellipse fill="#ffffff" stroke="black" cx="48.0957" cy="-324" rx="48.1917" ry="18"/>
<text text-anchor="middle" x="48.0957" y="-320.3" font-family="Times,serif" font-size="14.00" fill="#880000">AS206469</text>
</a>
</g>
</g>
<!-- AS9009 -->
<g id="node2" class="node"><title>AS9009</title>
<g id="a_node2"><a xlink:href="/asn/9009" xlink:title="AS9009 ~ M247 Ltd [GB]">
<ellipse fill="#ffffff" stroke="black" cx="171.838" cy="-324" rx="39.7935" ry="18"/>
<text text-anchor="middle" x="171.838" y="-320.3" font-family="Times,serif" font-size="14.00" fill="#2c94b3">AS9009</text>
</a>
</g>
</g>
<!-- AS206469&#45;&gt;AS9009 -->
<g id="edge1" class="edge"><title>AS206469&#45;&gt;AS9009</title>
<path fill="none" stroke="black" stroke-width="4.5" d="M96.5131,-324C104.867,-324 113.577,-324 121.969,-324"/>
<polygon fill="black" stroke="black" stroke-width="4.5" points="122.004,-327.938 132.004,-324 122.004,-320.063 122.004,-327.938"/>
</g>
<!-- AS6453 -->
<g id="node3" class="node"><title>AS6453</title>
<g id="a_node3"><a xlink:href="/asn/6453" xlink:title="AS6453 ~ TATA COMMUNICATIONS (AMERICA) INC [US]">
<ellipse fill="#ffffff" stroke="black" cx="287.131" cy="-291" rx="39.7935" ry="18"/>
<text text-anchor="middle" x="287.131" y="-287.3" font-family="Times,serif" font-size="14.00" fill="#2c94b3">AS6453</text>
</a>
</g>
</g>
<!-- AS9009&#45;&gt;AS6453 -->
<g id="edge2" class="edge"><title>AS9009&#45;&gt;AS6453</title>
<path fill="none" stroke="black" stroke-width="4.5" d="M205.607,-314.455C217.467,-311 231.037,-307.048 243.614,-303.384"/>
<polygon fill="black" stroke="black" stroke-width="4.5" points="244.936,-307.101 253.436,-300.524 242.733,-299.54 244.936,-307.101"/>
</g>
<!-- AS2914 -->
<g id="node4" class="node"><title>AS2914</title>
<g id="a_node4"><a xlink:href="/asn/2914" xlink:title="AS2914 ~ NTT America, Inc. [US]">
<ellipse fill="#ffffff" stroke="black" cx="406.973" cy="-99" rx="39.7935" ry="18"/>
<text text-anchor="middle" x="406.973" y="-95.3" font-family="Times,serif" font-size="14.00" fill="#2c94b3">AS2914</text>
</a>
</g>
</g>
<!-- AS9009&#45;&gt;AS2914 -->
<g id="edge3" class="edge"><title>AS9009&#45;&gt;AS2914</title>
<path fill="none" stroke="black" stroke-width="1.575" d="M190.366,-307.975C204.966,-295.117 226.661,-277.112 247.484,-264 280.553,-243.176 300.437,-254.868 326.777,-226 357.772,-192.031 334.599,-165.339 362.777,-129 365.624,-125.329 369.045,-121.932 372.7,-118.846"/>
<polygon fill="black" stroke="black" stroke-width="1.575" points="375.087,-121.429 380.942,-112.599 370.858,-115.85 375.087,-121.429"/>
</g>
<!-- AS1299 -->
<g id="node5" class="node"><title>AS1299</title>
<g id="a_node5"><a xlink:href="/asn/1299" xlink:title="AS1299 ~ Telia Carrier [EU]">
<ellipse fill="#ffffff" stroke="black" cx="406.973" cy="-505" rx="39.7935" ry="18"/>
<text text-anchor="middle" x="406.973" y="-501.3" font-family="Times,serif" font-size="14.00" fill="#2c94b3">AS1299</text>
</a>
</g>
</g>
<!-- AS9009&#45;&gt;AS1299 -->
<g id="edge4" class="edge"><title>AS9009&#45;&gt;AS1299</title>
<path fill="none" stroke="black" stroke-width="0.9" d="M187.749,-340.695C202.265,-356.519 225.318,-380.547 247.484,-399 295.223,-438.743 310.809,-443.975 362.777,-478 366.357,-480.343 370.126,-482.765 373.885,-485.152"/>
<polygon fill="black" stroke="black" stroke-width="0.9" points="372.218,-488.239 382.545,-490.605 375.948,-482.315 372.218,-488.239"/>
</g>
<!-- AS5511 -->
<g id="node6" class="node"><title>AS5511</title>
<g id="a_node6"><a xlink:href="/asn/5511" xlink:title="AS5511 ~ Orange S.A. [FR]">
<ellipse fill="#ffffff" stroke="black" cx="287.131" cy="-505" rx="39.7935" ry="18"/>
<text text-anchor="middle" x="287.131" y="-501.3" font-family="Times,serif" font-size="14.00" fill="#2c94b3">AS5511</text>
</a>
</g>
</g>
<!-- AS9009&#45;&gt;AS5511 -->
<g id="edge5" class="edge"><title>AS9009&#45;&gt;AS5511</title>
<path fill="none" stroke="black" stroke-width="1.575" d="M182.426,-341.733C196.127,-366.762 222.428,-413.673 247.484,-452 253.56,-461.293 260.613,-471.196 267.019,-479.895"/>
<polygon fill="black" stroke="black" stroke-width="1.575" points="264.368,-482.196 273.148,-488.126 269.983,-478.015 264.368,-482.196"/>
</g>
<!-- AS1239 -->
<g id="node7" class="node"><title>AS1239</title>
<g id="a_node7"><a xlink:href="/asn/1239" xlink:title="AS1239 ~ Sprint [US]">
<ellipse fill="#ffffff" stroke="black" cx="287.131" cy="-199" rx="39.7935" ry="18"/>
<text text-anchor="middle" x="287.131" y="-195.3" font-family="Times,serif" font-size="14.00" fill="#2c94b3">AS1239</text>
</a>
</g>
</g>
<!-- AS9009&#45;&gt;AS1239 -->
<g id="edge6" class="edge"><title>AS9009&#45;&gt;AS1239</title>
<path fill="none" stroke="black" stroke-width="0.225" d="M185.087,-306.678C199.141,-287.321 223.369,-255.486 247.484,-231 250.736,-227.699 254.304,-224.388 257.917,-221.215"/>
<polygon fill="black" stroke="black" stroke-width="0.225" points="260.426,-223.676 265.794,-214.542 255.902,-218.335 260.426,-223.676"/>
</g>
<!-- AS174 -->
<g id="node8" class="node"><title>AS174</title>
<g id="a_node8"><a xlink:href="/asn/174" xlink:title="AS174 ~ Cogent Communications [US]">
<ellipse fill="#ffffff" stroke="black" cx="406.973" cy="-451" rx="35.194" ry="18"/>
<text text-anchor="middle" x="406.973" y="-447.3" font-family="Times,serif" font-size="14.00" fill="#2c94b3">AS174</text>
</a>
</g>
</g>
<!-- AS9009&#45;&gt;AS174 -->
<g id="edge7" class="edge"><title>AS9009&#45;&gt;AS174</title>
<path fill="none" stroke="black" stroke-width="0.225" d="M198.231,-337.833C240.827,-361.037 326.607,-407.765 373.516,-433.319"/>
<polygon fill="black" stroke="black" stroke-width="0.225" points="371.9,-436.424 382.356,-438.134 375.248,-430.277 371.9,-436.424"/>
</g>
<!-- AS6453&#45;&gt;AS2914 -->
<g id="edge14" class="edge"><title>AS6453&#45;&gt;AS2914</title>
<path fill="none" stroke="black" d="M310.414,-276.374C316.457,-271.478 322.503,-265.572 326.777,-259 358.999,-209.461 329.23,-179.651 362.777,-131 365.748,-126.693 369.489,-122.737 373.52,-119.186"/>
<polygon fill="black" stroke="black" points="375.834,-121.818 381.505,-112.869 371.491,-116.328 375.834,-121.818"/>
</g>
<!-- AS6453&#45;&gt;AS174 -->
<g id="edge17" class="edge"><title>AS6453&#45;&gt;AS174</title>
<path fill="none" stroke="black" d="M301.845,-308.116C309.637,-318.239 319.298,-331.489 326.777,-344 345.749,-375.736 339.231,-390.492 362.777,-419 366.418,-423.407 370.789,-427.538 375.333,-431.271"/>
<polygon fill="black" stroke="black" points="373.498,-434.273 383.577,-437.537 377.733,-428.699 373.498,-434.273"/>
</g>
<!-- AS3491 -->
<g id="node9" class="node"><title>AS3491</title>
<g id="a_node9"><a xlink:href="/asn/3491" xlink:title="AS3491 ~ PCCW Global, Inc. [US]">
<ellipse fill="#ffffff" stroke="black" cx="526.816" cy="-18" rx="39.7935" ry="18"/>
<text text-anchor="middle" x="526.816" y="-14.3" font-family="Times,serif" font-size="14.00" fill="#2c94b3">AS3491</text>
</a>
</g>
</g>
<!-- AS6453&#45;&gt;AS3491 -->
<g id="edge8" class="edge"><title>AS6453&#45;&gt;AS3491</title>
<path fill="none" stroke="black" stroke-width="2" d="M300.478,-273.886C309.054,-261.23 320.099,-243.265 326.777,-226 355.581,-151.535 306.097,-106.232 362.777,-50 392.505,-20.508 440.945,-14.1739 477.316,-14.2171"/>
<polygon fill="black" stroke="black" stroke-width="2" points="477.644,-17.7233 487.704,-14.4001 477.768,-10.7244 477.644,-17.7233"/>
</g>
<!-- AS3356 -->
<g id="node10" class="node"><title>AS3356</title>
<g id="a_node10"><a xlink:href="/asn/3356" xlink:title="AS3356 ~ Level 3 Parent, LLC [US]">
<ellipse fill="#ffffff" stroke="black" cx="526.816" cy="-488" rx="39.7935" ry="18"/>
<text text-anchor="middle" x="526.816" y="-484.3" font-family="Times,serif" font-size="14.00" fill="#2c94b3">AS3356</text>
</a>
</g>
</g>
<!-- AS6453&#45;&gt;AS3356 -->
<g id="edge9" class="edge"><title>AS6453&#45;&gt;AS3356</title>
<path fill="none" stroke="black" stroke-width="3" d="M302.269,-307.742C316.578,-324.141 339.811,-349.321 362.777,-368 398.857,-397.344 413.777,-396.349 451.17,-424 468.38,-436.727 486.639,-452.341 500.791,-464.96"/>
<polygon fill="black" stroke="black" stroke-width="3" points="498.836,-467.909 508.61,-471.999 503.52,-462.707 498.836,-467.909"/>
</g>
<!-- AS3257 -->
<g id="node11" class="node"><title>AS3257</title>
<g id="a_node11"><a xlink:href="/asn/3257" xlink:title="AS3257 ~ GTT [DE]">
<ellipse fill="#ffffff" stroke="black" cx="526.816" cy="-329" rx="39.7935" ry="18"/>
<text text-anchor="middle" x="526.816" y="-325.3" font-family="Times,serif" font-size="14.00" fill="#2c94b3">AS3257</text>
</a>
</g>
</g>
<!-- AS6453&#45;&gt;AS3257 -->
<g id="edge10" class="edge"><title>AS6453&#45;&gt;AS3257</title>
<path fill="none" stroke="black" stroke-width="2" d="M323.771,-297.979C336.107,-300.316 350.033,-302.868 362.777,-305 401.608,-311.497 445.801,-317.944 478.372,-322.517"/>
<polygon fill="black" stroke="black" stroke-width="2" points="478.13,-326.017 488.518,-323.934 479.098,-319.084 478.13,-326.017"/>
</g>
<!-- AS6762 -->
<g id="node12" class="node"><title>AS6762</title>
<g id="a_node12"><a xlink:href="/asn/6762" xlink:title="AS6762 ~ TELECOM ITALIA SPARKLE S.p.A. [IT]">
<ellipse fill="#ffffff" stroke="black" cx="526.816" cy="-134" rx="39.7935" ry="18"/>
<text text-anchor="middle" x="526.816" y="-130.3" font-family="Times,serif" font-size="14.00" fill="#2c94b3">AS6762</text>
</a>
</g>
</g>
<!-- AS6453&#45;&gt;AS6762 -->
<g id="edge11" class="edge"><title>AS6453&#45;&gt;AS6762</title>
<path fill="none" stroke="black" stroke-width="2" d="M310.054,-276.129C316.087,-271.226 322.218,-265.377 326.777,-259 353.039,-222.27 328.106,-192.924 362.777,-164 394.458,-137.571 441.78,-131.334 477.293,-130.962"/>
<polygon fill="black" stroke="black" stroke-width="2" points="477.422,-134.463 487.438,-131.01 477.455,-127.463 477.422,-134.463"/>
</g>
<!-- AS2497 -->
<g id="node13" class="node"><title>AS2497</title>
<g id="a_node13"><a xlink:href="/asn/2497" xlink:title="AS2497 ~ Internet Initiative Japan Inc. [JP]">
<ellipse fill="#ffffff" stroke="black" cx="526.816" cy="-77" rx="39.7935" ry="18"/>
<text text-anchor="middle" x="526.816" y="-73.3" font-family="Times,serif" font-size="14.00" fill="#2c94b3">AS2497</text>
</a>
</g>
</g>
<!-- AS6453&#45;&gt;AS2497 -->
<g id="edge12" class="edge"><title>AS6453&#45;&gt;AS2497</title>
<path fill="none" stroke="black" stroke-width="2" d="M300.332,-273.829C308.838,-261.145 319.859,-243.17 326.777,-226 353.047,-160.804 307.708,-115.681 362.777,-72 397.253,-44.6539 449.946,-52.3479 486.038,-62.6191"/>
<polygon fill="black" stroke="black" stroke-width="2" points="485.164,-66.0112 495.749,-65.5575 487.191,-59.3112 485.164,-66.0112"/>
</g>
<!-- AS12956 -->
<g id="node14" class="node"><title>AS12956</title>
<g id="a_node14"><a xlink:href="/asn/12956" xlink:title="AS12956 ~ TELXIUS [ES]">
<ellipse fill="#ffffff" stroke="black" cx="406.973" cy="-245" rx="44.393" ry="18"/>
<text text-anchor="middle" x="406.973" y="-241.3" font-family="Times,serif" font-size="14.00" fill="#2c94b3">AS12956</text>
</a>
</g>
</g>
<!-- AS6453&#45;&gt;AS12956 -->
<g id="edge13" class="edge"><title>AS6453&#45;&gt;AS12956</title>
<path fill="none" stroke="black" stroke-width="2" d="M317.868,-279.392C332.097,-273.838 349.364,-267.098 364.828,-261.061"/>
<polygon fill="black" stroke="black" stroke-width="2" points="366.138,-264.307 374.181,-257.41 363.592,-257.786 366.138,-264.307"/>
</g>
<!-- AS701 -->
<g id="node15" class="node"><title>AS701</title>
<g id="a_node15"><a xlink:href="/asn/701" xlink:title="AS701 ~ UUNET [US]">
<ellipse fill="#ffffff" stroke="black" cx="526.816" cy="-232" rx="35.194" ry="18"/>
<text text-anchor="middle" x="526.816" y="-228.3" font-family="Times,serif" font-size="14.00" fill="#2c94b3">AS701</text>
</a>
</g>
</g>
<!-- AS6453&#45;&gt;AS701 -->
<g id="edge15" class="edge"><title>AS6453&#45;&gt;AS701</title>
<path fill="none" stroke="black" d="M326.861,-290.546C360.439,-289.204 409.976,-284.922 451.17,-272 466.671,-267.137 482.698,-259.02 495.909,-251.364"/>
<polygon fill="black" stroke="black" points="497.782,-254.322 504.564,-246.182 494.186,-248.316 497.782,-254.322"/>
</g>
<!-- AS7018 -->
<g id="node16" class="node"><title>AS7018</title>
<g id="a_node16"><a xlink:href="/asn/7018" xlink:title="AS7018 ~ AT&amp;T Services, Inc. [US]">
<ellipse fill="#ffffff" stroke="black" cx="526.816" cy="-417" rx="39.7935" ry="18"/>
<text text-anchor="middle" x="526.816" y="-413.3" font-family="Times,serif" font-size="14.00" fill="#2c94b3">AS7018</text>
</a>
</g>
</g>
<!-- AS6453&#45;&gt;AS7018 -->
<g id="edge16" class="edge"><title>AS6453&#45;&gt;AS7018</title>
<path fill="none" stroke="black" d="M313.567,-304.484C356.344,-327.16 442.735,-372.958 491.068,-398.58"/>
<polygon fill="black" stroke="black" points="489.729,-401.831 500.203,-403.422 493.007,-395.646 489.729,-401.831"/>
</g>
<!-- AS1273 -->
<g id="node17" class="node"><title>AS1273</title>
<g id="a_node17"><a xlink:href="/asn/1273" xlink:title="AS1273 ~ Vodafone Group PLC [EU]">
<ellipse fill="#ffffff" stroke="black" cx="406.973" cy="-191" rx="39.7935" ry="18"/>
<text text-anchor="middle" x="406.973" y="-187.3" font-family="Times,serif" font-size="14.00" fill="#2c94b3">AS1273</text>
</a>
</g>
</g>
<!-- AS6453&#45;&gt;AS1273 -->
<g id="edge18" class="edge"><title>AS6453&#45;&gt;AS1273</title>
<path fill="none" stroke="black" d="M307.916,-275.629C314.133,-270.536 320.904,-264.706 326.777,-259 344.171,-242.103 344.3,-233.704 362.777,-218 365.799,-215.432 369.088,-212.935 372.457,-210.563"/>
<polygon fill="black" stroke="black" points="374.502,-213.406 380.892,-204.955 370.627,-207.577 374.502,-213.406"/>
</g>
<!-- AS2914&#45;&gt;AS3491 -->
<g id="edge24" class="edge"><title>AS2914&#45;&gt;AS3491</title>
<path fill="none" stroke="black" d="M429.588,-84.1434C448.076,-71.4351 474.89,-53.0045 495.519,-38.8246"/>
<polygon fill="black" stroke="black" points="497.681,-41.5856 503.94,-33.0368 493.716,-35.817 497.681,-41.5856"/>
</g>
<!-- AS2914&#45;&gt;AS3356 -->
<g id="edge26" class="edge"><title>AS2914&#45;&gt;AS3356</title>
<path fill="none" stroke="black" d="M422.248,-115.73C432.064,-128.201 444.49,-146.101 451.17,-164 495.041,-281.549 435.517,-329.656 487.17,-444 490.525,-451.427 495.567,-458.517 500.912,-464.752"/>
<polygon fill="black" stroke="black" points="498.387,-467.177 507.739,-472.155 503.533,-462.431 498.387,-467.177"/>
</g>
<!-- AS2914&#45;&gt;AS3257 -->
<g id="edge28" class="edge"><title>AS2914&#45;&gt;AS3257</title>
<path fill="none" stroke="black" d="M420.814,-116.007C430.052,-128.757 442.381,-146.885 451.17,-164 471.795,-204.166 468.21,-218.021 487.17,-259 494.018,-273.802 502.72,-289.76 510.132,-302.697"/>
<polygon fill="black" stroke="black" points="507.208,-304.632 515.256,-311.523 513.262,-301.117 507.208,-304.632"/>
</g>
<!-- AS2914&#45;&gt;AS6762 -->
<g id="edge25" class="edge"><title>AS2914&#45;&gt;AS6762</title>
<path fill="none" stroke="black" d="M440.486,-108.657C453.643,-112.564 469.015,-117.13 483.059,-121.301"/>
<polygon fill="black" stroke="black" points="482.417,-124.761 493,-124.253 484.41,-118.051 482.417,-124.761"/>
</g>
<!-- AS2914&#45;&gt;AS2497 -->
<g id="edge29" class="edge"><title>AS2914&#45;&gt;AS2497</title>
<path fill="none" stroke="black" d="M443.97,-92.2797C455.174,-90.1882 467.687,-87.8522 479.492,-85.6482"/>
<polygon fill="black" stroke="black" points="480.446,-89.0307 489.633,-83.7549 479.161,-82.1496 480.446,-89.0307"/>
</g>
<!-- AS2914&#45;&gt;AS701 -->
<g id="edge27" class="edge"><title>AS2914&#45;&gt;AS701</title>
<path fill="none" stroke="black" d="M422.66,-115.576C443.237,-138.799 480.774,-181.165 504.447,-207.882"/>
<polygon fill="black" stroke="black" points="502.063,-210.47 511.315,-215.633 507.302,-205.827 502.063,-210.47"/>
</g>
<!-- AS1299&#45;&gt;AS3356 -->
<g id="edge20" class="edge"><title>AS1299&#45;&gt;AS3356</title>
<path fill="none" stroke="black" d="M444.936,-499.668C455.582,-498.132 467.344,-496.435 478.524,-494.822"/>
<polygon fill="black" stroke="black" points="479.181,-498.264 488.579,-493.372 478.182,-491.336 479.181,-498.264"/>
</g>
<!-- AS1299&#45;&gt;AS3257 -->
<g id="edge19" class="edge"><title>AS1299&#45;&gt;AS3257</title>
<path fill="none" stroke="black" d="M434.686,-491.934C440.682,-488.076 446.61,-483.41 451.17,-478 478.4,-445.686 467.787,-427.55 487.17,-390 493.369,-377.99 501.201,-365.276 508.192,-354.582"/>
<polygon fill="black" stroke="black" points="511.187,-356.399 513.811,-346.134 505.358,-352.522 511.187,-356.399"/>
</g>
<!-- AS1299&#45;&gt;AS7018 -->
<g id="edge21" class="edge"><title>AS1299&#45;&gt;AS7018</title>
<path fill="none" stroke="black" d="M432.092,-490.674C438.405,-486.722 445.132,-482.328 451.17,-478 467.885,-466.019 485.753,-451.485 499.815,-439.609"/>
<polygon fill="black" stroke="black" points="502.274,-442.113 507.617,-432.964 497.735,-436.783 502.274,-442.113"/>
</g>
<!-- AS5511&#45;&gt;AS1299 -->
<g id="edge33" class="edge"><title>AS5511&#45;&gt;AS1299</title>
<path fill="none" stroke="black" d="M327.044,-505C336.597,-505 346.947,-505 356.909,-505"/>
<polygon fill="black" stroke="black" points="357.102,-508.5 367.102,-505 357.102,-501.5 357.102,-508.5"/>
</g>
<!-- AS5511&#45;&gt;AS174 -->
<g id="edge32" class="edge"><title>AS5511&#45;&gt;AS174</title>
<path fill="none" stroke="black" d="M315.76,-492.339C332.176,-484.817 353.158,-475.202 370.754,-467.139"/>
<polygon fill="black" stroke="black" points="372.499,-470.189 380.132,-462.842 369.583,-463.826 372.499,-470.189"/>
</g>
<!-- AS5511&#45;&gt;AS3356 -->
<g id="edge31" class="edge"><title>AS5511&#45;&gt;AS3356</title>
<path fill="none" stroke="black" stroke-width="2" d="M298.098,-522.562C310.4,-542.249 333.353,-573.103 362.777,-586 398.758,-601.771 415.966,-603.438 451.17,-586 480.815,-571.315 501.889,-538.595 513.926,-514.998"/>
<polygon fill="black" stroke="black" stroke-width="2" points="517.156,-516.358 518.385,-505.834 510.862,-513.295 517.156,-516.358"/>
</g>
<!-- AS6461 -->
<g id="node20" class="node"><title>AS6461</title>
<g id="a_node20"><a xlink:href="/asn/6461" xlink:title="AS6461 ~ Zayo Bandwidth [US]">
<ellipse fill="#ffffff" stroke="black" cx="406.973" cy="-559" rx="39.7935" ry="18"/>
<text text-anchor="middle" x="406.973" y="-555.3" font-family="Times,serif" font-size="14.00" fill="#2c94b3">AS6461</text>
</a>
</g>
</g>
<!-- AS5511&#45;&gt;AS6461 -->
<g id="edge30" class="edge"><title>AS5511&#45;&gt;AS6461</title>
<path fill="none" stroke="black" d="M315.76,-517.661C331.717,-524.973 351.987,-534.261 369.27,-542.181"/>
<polygon fill="black" stroke="black" points="367.969,-545.435 378.518,-546.419 370.885,-539.071 367.969,-545.435"/>
</g>
<!-- AS3549 -->
<g id="node18" class="node"><title>AS3549</title>
<g id="a_node18"><a xlink:href="/asn/3549" xlink:title="AS3549 ~ Level 3 Parent, LLC [US]">
<ellipse fill="#ffffff" stroke="black" cx="642.109" cy="-515" rx="39.7935" ry="18"/>
<text text-anchor="middle" x="642.109" y="-511.3" font-family="Times,serif" font-size="14.00" fill="#2c94b3">AS3549</text>
</a>
</g>
</g>
<!-- AS3356&#45;&gt;AS3549 -->
<g id="edge22" class="edge"><title>AS3356&#45;&gt;AS3549</title>
<path fill="none" stroke="black" d="M562.423,-496.248C573.295,-498.838 585.449,-501.735 596.891,-504.462"/>
<polygon fill="black" stroke="black" points="596.175,-507.889 606.714,-506.803 597.798,-501.08 596.175,-507.889"/>
</g>
<!-- AS209 -->
<g id="node19" class="node"><title>AS209</title>
<g id="a_node19"><a xlink:href="/asn/209" xlink:title="AS209 ~ CenturyLink Communications, LLC [US]">
<ellipse fill="#ffffff" stroke="black" cx="642.109" cy="-461" rx="35.194" ry="18"/>
<text text-anchor="middle" x="642.109" y="-457.3" font-family="Times,serif" font-size="14.00" fill="#2c94b3">AS209</text>
</a>
</g>
</g>
<!-- AS3356&#45;&gt;AS209 -->
<g id="edge23" class="edge"><title>AS3356&#45;&gt;AS209</title>
<path fill="none" stroke="black" stroke-width="2" d="M562.423,-479.752C574.218,-476.942 587.522,-473.771 599.79,-470.847"/>
<polygon fill="black" stroke="black" stroke-width="2" points="600.879,-474.186 609.795,-468.463 599.256,-467.376 600.879,-474.186"/>
</g>
</g>
</svg>
