<?xml version="1.0" encoding="UTF-8" standalone="no"?>
<!DOCTYPE svg PUBLIC "-//W3C//DTD SVG 1.1//EN"
 "http://www.w3.org/Graphics/SVG/1.1/DTD/svg11.dtd">
<!-- Generated by graphviz version 2.38.0 (20140413.2041)
 -->
<!-- Title: AS21406 IPv6 Upstream Graph Pages: 1 -->
<svg width="451pt" height="530pt"
 viewBox="0.00 0.00 451.37 530.00" xmlns="http://www.w3.org/2000/svg" xmlns:xlink="http://www.w3.org/1999/xlink">
<g id="graph0" class="graph" transform="scale(1 1) rotate(0) translate(4 526)">
<title>AS21406 IPv6 Upstream Graph</title>
<polygon fill="white" stroke="none" points="-4,4 -4,-526 447.37,-526 447.37,4 -4,4"/>
<!-- AS21406 -->
<g id="node1" class="node"><title>AS21406</title>
<g id="a_node1"><a xlink:href="/asn/21406" xlink:title="AS21406 ~ D. Swarovski KG [AT]">
<ellipse fill="#ffffff" stroke="black" cx="44.1961" cy="-341" rx="44.393" ry="18"/>
<text text-anchor="middle" x="44.1961" y="-337.3" font-family="Times,serif" font-size="14.00" fill="#880000">AS21406</text>
</a>
</g>
</g>
<!-- AS8447 -->
<g id="node2" class="node"><title>AS8447</title>
<g id="a_node2"><a xlink:href="/asn/8447" xlink:title="AS8447 ~ A1 Telekom Austria AG [AT]">
<ellipse fill="#ffffff" stroke="black" cx="168.588" cy="-301" rx="39.7935" ry="18"/>
<text text-anchor="middle" x="168.588" y="-297.3" font-family="Times,serif" font-size="14.00" fill="#2c94b3">AS8447</text>
</a>
</g>
</g>
<!-- AS21406&#45;&gt;AS8447 -->
<g id="edge1" class="edge"><title>AS21406&#45;&gt;AS8447</title>
<path fill="none" stroke="black" stroke-width="2.91176" d="M79.2891,-329.858C93.7947,-325.117 110.846,-319.544 126.077,-314.567"/>
<polygon fill="black" stroke="black" stroke-width="2.91176" points="127.36,-317.83 135.778,-311.396 125.186,-311.176 127.36,-317.83"/>
</g>
<!-- AS34347 -->
<g id="node3" class="node"><title>AS34347</title>
<g id="a_node3"><a xlink:href="/asn/34347" xlink:title="AS34347 ~ HALLAG Kommunal GmbH [AT]">
<ellipse fill="#ffffff" stroke="black" cx="168.588" cy="-382" rx="44.393" ry="18"/>
<text text-anchor="middle" x="168.588" y="-378.3" font-family="Times,serif" font-size="14.00" fill="#2c94b3">AS34347</text>
</a>
</g>
</g>
<!-- AS21406&#45;&gt;AS34347 -->
<g id="edge2" class="edge"><title>AS21406&#45;&gt;AS34347</title>
<path fill="none" stroke="black" stroke-width="4.5" d="M78.9643,-352.312C93.0105,-357.017 109.488,-362.537 124.399,-367.532"/>
<polygon fill="black" stroke="black" stroke-width="4.5" points="123.197,-371.282 133.93,-370.725 125.699,-363.815 123.197,-371.282"/>
</g>
<!-- AS3356 -->
<g id="node4" class="node"><title>AS3356</title>
<g id="a_node4"><a xlink:href="/asn/3356" xlink:title="AS3356 ~ Level 3 Parent, LLC [US]">
<ellipse fill="#ffffff" stroke="black" cx="288.431" cy="-288" rx="39.7935" ry="18"/>
<text text-anchor="middle" x="288.431" y="-284.3" font-family="Times,serif" font-size="14.00" fill="#2c94b3">AS3356</text>
</a>
</g>
</g>
<!-- AS8447&#45;&gt;AS3356 -->
<g id="edge3" class="edge"><title>AS8447&#45;&gt;AS3356</title>
<path fill="none" stroke="black" stroke-width="3" d="M207.198,-296.851C217.509,-295.713 228.827,-294.465 239.627,-293.274"/>
<polygon fill="black" stroke="black" stroke-width="3" points="240.218,-296.73 249.774,-292.154 239.45,-289.772 240.218,-296.73"/>
</g>
<!-- AS3320 -->
<g id="node5" class="node"><title>AS3320</title>
<g id="a_node5"><a xlink:href="/asn/3320" xlink:title="AS3320 ~ DTAG [DE]">
<ellipse fill="#ffffff" stroke="black" cx="288.431" cy="-234" rx="39.7935" ry="18"/>
<text text-anchor="middle" x="288.431" y="-230.3" font-family="Times,serif" font-size="14.00" fill="#2c94b3">AS3320</text>
</a>
</g>
</g>
<!-- AS8447&#45;&gt;AS3320 -->
<g id="edge4" class="edge"><title>AS8447&#45;&gt;AS3320</title>
<path fill="none" stroke="black" stroke-width="2" d="M194.005,-287.118C211.465,-277.191 235.165,-263.716 254.326,-252.822"/>
<polygon fill="black" stroke="black" stroke-width="2" points="256.082,-255.85 263.045,-247.865 252.622,-249.765 256.082,-255.85"/>
</g>
<!-- AS6939 -->
<g id="node6" class="node"><title>AS6939</title>
<g id="a_node6"><a xlink:href="/asn/6939" xlink:title="AS6939 ~ Hurricane Electric LLC [US]">
<ellipse fill="#ffffff" stroke="black" cx="288.431" cy="-342" rx="39.7935" ry="18"/>
<text text-anchor="middle" x="288.431" y="-338.3" font-family="Times,serif" font-size="14.00" fill="#2c94b3">AS6939</text>
</a>
</g>
</g>
<!-- AS8447&#45;&gt;AS6939 -->
<g id="edge5" class="edge"><title>AS8447&#45;&gt;AS6939</title>
<path fill="none" stroke="black" stroke-width="3" d="M200.55,-311.772C214.647,-316.677 231.523,-322.548 246.636,-327.807"/>
<polygon fill="black" stroke="black" stroke-width="3" points="245.672,-331.177 256.267,-331.157 247.972,-324.566 245.672,-331.177"/>
</g>
<!-- AS1299 -->
<g id="node7" class="node"><title>AS1299</title>
<g id="a_node7"><a xlink:href="/asn/1299" xlink:title="AS1299 ~ Telia Carrier [EU]">
<ellipse fill="#ffffff" stroke="black" cx="288.431" cy="-126" rx="39.7935" ry="18"/>
<text text-anchor="middle" x="288.431" y="-122.3" font-family="Times,serif" font-size="14.00" fill="#2c94b3">AS1299</text>
</a>
</g>
</g>
<!-- AS8447&#45;&gt;AS1299 -->
<g id="edge6" class="edge"><title>AS8447&#45;&gt;AS1299</title>
<path fill="none" stroke="black" stroke-width="2" d="M181.102,-283.902C201.871,-253.059 245.708,-187.959 270.111,-151.721"/>
<polygon fill="black" stroke="black" stroke-width="2" points="273.188,-153.417 275.87,-143.168 267.382,-149.508 273.188,-153.417"/>
</g>
<!-- AS6762 -->
<g id="node8" class="node"><title>AS6762</title>
<g id="a_node8"><a xlink:href="/asn/6762" xlink:title="AS6762 ~ TELECOM ITALIA SPARKLE S.p.A. [IT]">
<ellipse fill="#ffffff" stroke="black" cx="288.431" cy="-396" rx="39.7935" ry="18"/>
<text text-anchor="middle" x="288.431" y="-392.3" font-family="Times,serif" font-size="14.00" fill="#2c94b3">AS6762</text>
</a>
</g>
</g>
<!-- AS8447&#45;&gt;AS6762 -->
<g id="edge7" class="edge"><title>AS8447&#45;&gt;AS6762</title>
<path fill="none" stroke="black" d="M187.403,-317.191C203.179,-331.311 227.017,-352.119 248.784,-369 251.519,-371.121 254.404,-373.278 257.316,-375.401"/>
<polygon fill="black" stroke="black" points="255.317,-378.274 265.49,-381.236 259.385,-372.577 255.317,-378.274"/>
</g>
<!-- AS34347&#45;&gt;AS3356 -->
<g id="edge24" class="edge"><title>AS34347&#45;&gt;AS3356</title>
<path fill="none" stroke="black" stroke-width="4.5" d="M188.067,-365.527C203.866,-351.648 227.377,-331.477 248.784,-315 251.527,-312.889 254.417,-310.739 257.333,-308.62"/>
<polygon fill="black" stroke="black" stroke-width="4.5" points="259.653,-311.802 265.511,-302.791 255.082,-305.389 259.653,-311.802"/>
</g>
<!-- AS34347&#45;&gt;AS1299 -->
<g id="edge26" class="edge"><title>AS34347&#45;&gt;AS1299</title>
<path fill="none" stroke="black" stroke-width="2.57143" d="M185.844,-365.212C194.863,-355.117 205.662,-341.617 212.784,-328 238.79,-278.283 228.643,-259.368 248.784,-207 255.918,-188.454 265.535,-168.284 273.391,-152.711"/>
<polygon fill="black" stroke="black" stroke-width="2.57143" points="276.58,-154.161 278.016,-143.664 270.348,-150.974 276.58,-154.161"/>
</g>
<!-- AS34347&#45;&gt;AS6762 -->
<g id="edge25" class="edge"><title>AS34347&#45;&gt;AS6762</title>
<path fill="none" stroke="black" stroke-width="0.642857" d="M211.135,-386.936C220.381,-388.034 230.254,-389.207 239.725,-390.332"/>
<polygon fill="black" stroke="black" stroke-width="0.642857" points="239.453,-393.825 249.797,-391.529 240.279,-386.874 239.453,-393.825"/>
</g>
<!-- AS174 -->
<g id="node19" class="node"><title>AS174</title>
<g id="a_node19"><a xlink:href="/asn/174" xlink:title="AS174 ~ Cogent Communications [US]">
<ellipse fill="#ffffff" stroke="black" cx="288.431" cy="-504" rx="35.194" ry="18"/>
<text text-anchor="middle" x="288.431" y="-500.3" font-family="Times,serif" font-size="14.00" fill="#2c94b3">AS174</text>
</a>
</g>
</g>
<!-- AS34347&#45;&gt;AS174 -->
<g id="edge23" class="edge"><title>AS34347&#45;&gt;AS174</title>
<path fill="none" stroke="black" stroke-width="1.92857" d="M181.81,-399.31C196.411,-419.312 222.214,-452.6 248.784,-477 251.395,-479.398 254.229,-481.757 257.136,-484.022"/>
<polygon fill="black" stroke="black" stroke-width="1.92857" points="255.268,-486.994 265.394,-490.111 259.422,-481.36 255.268,-486.994"/>
</g>
<!-- AS2914 -->
<g id="node20" class="node"><title>AS2914</title>
<g id="a_node20"><a xlink:href="/asn/2914" xlink:title="AS2914 ~ NTT America, Inc. [US]">
<ellipse fill="#ffffff" stroke="black" cx="288.431" cy="-450" rx="39.7935" ry="18"/>
<text text-anchor="middle" x="288.431" y="-446.3" font-family="Times,serif" font-size="14.00" fill="#2c94b3">AS2914</text>
</a>
</g>
</g>
<!-- AS34347&#45;&gt;AS2914 -->
<g id="edge27" class="edge"><title>AS34347&#45;&gt;AS2914</title>
<path fill="none" stroke="black" stroke-width="1.28571" d="M194.868,-396.588C212.188,-406.582 235.339,-419.941 254.155,-430.799"/>
<polygon fill="black" stroke="black" stroke-width="1.28571" points="252.588,-433.935 262.999,-435.902 256.087,-427.872 252.588,-433.935"/>
</g>
<!-- AS5511 -->
<g id="node9" class="node"><title>AS5511</title>
<g id="a_node9"><a xlink:href="/asn/5511" xlink:title="AS5511 ~ Orange S.A. [FR]">
<ellipse fill="#ffffff" stroke="black" cx="403.724" cy="-450" rx="39.7935" ry="18"/>
<text text-anchor="middle" x="403.724" y="-446.3" font-family="Times,serif" font-size="14.00" fill="#2c94b3">AS5511</text>
</a>
</g>
</g>
<!-- AS3356&#45;&gt;AS5511 -->
<g id="edge8" class="edge"><title>AS3356&#45;&gt;AS5511</title>
<path fill="none" stroke="black" d="M314.362,-301.882C319.438,-305.611 324.356,-310.016 328.077,-315 358.349,-355.542 333.806,-382.458 364.077,-423 365.822,-425.336 367.829,-427.545 369.992,-429.617"/>
<polygon fill="black" stroke="black" points="367.87,-432.405 377.793,-436.118 372.352,-427.027 367.87,-432.405"/>
</g>
<!-- AS209 -->
<g id="node10" class="node"><title>AS209</title>
<g id="a_node10"><a xlink:href="/asn/209" xlink:title="AS209 ~ CenturyLink Communications, LLC [US]">
<ellipse fill="#ffffff" stroke="black" cx="403.724" cy="-126" rx="35.194" ry="18"/>
<text text-anchor="middle" x="403.724" y="-122.3" font-family="Times,serif" font-size="14.00" fill="#2c94b3">AS209</text>
</a>
</g>
</g>
<!-- AS3356&#45;&gt;AS209 -->
<g id="edge9" class="edge"><title>AS3356&#45;&gt;AS209</title>
<path fill="none" stroke="black" stroke-width="2" d="M314.362,-274.118C319.438,-270.389 324.356,-265.984 328.077,-261 358.349,-220.458 333.806,-193.542 364.077,-153 366.085,-150.311 368.441,-147.791 370.982,-145.454"/>
<polygon fill="black" stroke="black" stroke-width="2" points="373.397,-148.004 378.998,-139.011 369.011,-142.548 373.397,-148.004"/>
</g>
<!-- AS1273 -->
<g id="node11" class="node"><title>AS1273</title>
<g id="a_node11"><a xlink:href="/asn/1273" xlink:title="AS1273 ~ Vodafone Group PLC [EU]">
<ellipse fill="#ffffff" stroke="black" cx="403.724" cy="-342" rx="39.7935" ry="18"/>
<text text-anchor="middle" x="403.724" y="-338.3" font-family="Times,serif" font-size="14.00" fill="#2c94b3">AS1273</text>
</a>
</g>
</g>
<!-- AS3356&#45;&gt;AS1273 -->
<g id="edge10" class="edge"><title>AS3356&#45;&gt;AS1273</title>
<path fill="none" stroke="black" d="M316.567,-300.934C331.561,-308.081 350.382,-317.052 366.605,-324.785"/>
<polygon fill="black" stroke="black" points="365.276,-328.028 375.809,-329.171 368.288,-321.709 365.276,-328.028"/>
</g>
<!-- AS701 -->
<g id="node12" class="node"><title>AS701</title>
<g id="a_node12"><a xlink:href="/asn/701" xlink:title="AS701 ~ UUNET [US]">
<ellipse fill="#ffffff" stroke="black" cx="403.724" cy="-180" rx="35.194" ry="18"/>
<text text-anchor="middle" x="403.724" y="-176.3" font-family="Times,serif" font-size="14.00" fill="#2c94b3">AS701</text>
</a>
</g>
</g>
<!-- AS3356&#45;&gt;AS701 -->
<g id="edge11" class="edge"><title>AS3356&#45;&gt;AS701</title>
<path fill="none" stroke="black" d="M313.025,-273.611C318.281,-269.852 323.613,-265.563 328.077,-261 348.25,-240.383 343.905,-227.617 364.077,-207 366.556,-204.466 369.303,-202.017 372.156,-199.696"/>
<polygon fill="black" stroke="black" points="374.458,-202.343 380.341,-193.532 370.247,-196.752 374.458,-202.343"/>
</g>
<!-- AS2497 -->
<g id="node13" class="node"><title>AS2497</title>
<g id="a_node13"><a xlink:href="/asn/2497" xlink:title="AS2497 ~ Internet Initiative Japan Inc. [JP]">
<ellipse fill="#ffffff" stroke="black" cx="403.724" cy="-396" rx="39.7935" ry="18"/>
<text text-anchor="middle" x="403.724" y="-392.3" font-family="Times,serif" font-size="14.00" fill="#2c94b3">AS2497</text>
</a>
</g>
</g>
<!-- AS3356&#45;&gt;AS2497 -->
<g id="edge12" class="edge"><title>AS3356&#45;&gt;AS2497</title>
<path fill="none" stroke="black" d="M313.025,-302.389C318.281,-306.148 323.613,-310.437 328.077,-315 348.25,-335.617 343.905,-348.383 364.077,-369 366.17,-371.139 368.453,-373.218 370.83,-375.21"/>
<polygon fill="black" stroke="black" points="369.074,-378.275 379.13,-381.611 373.349,-372.732 369.074,-378.275"/>
</g>
<!-- AS6453 -->
<g id="node14" class="node"><title>AS6453</title>
<g id="a_node14"><a xlink:href="/asn/6453" xlink:title="AS6453 ~ TATA COMMUNICATIONS (AMERICA) INC [US]">
<ellipse fill="#ffffff" stroke="black" cx="403.724" cy="-234" rx="39.7935" ry="18"/>
<text text-anchor="middle" x="403.724" y="-230.3" font-family="Times,serif" font-size="14.00" fill="#2c94b3">AS6453</text>
</a>
</g>
</g>
<!-- AS3356&#45;&gt;AS6453 -->
<g id="edge13" class="edge"><title>AS3356&#45;&gt;AS6453</title>
<path fill="none" stroke="black" d="M316.567,-275.066C331.561,-267.919 350.382,-258.948 366.605,-251.215"/>
<polygon fill="black" stroke="black" points="368.288,-254.291 375.809,-246.829 365.276,-247.972 368.288,-254.291"/>
</g>
<!-- AS3549 -->
<g id="node15" class="node"><title>AS3549</title>
<g id="a_node15"><a xlink:href="/asn/3549" xlink:title="AS3549 ~ Level 3 Parent, LLC [US]">
<ellipse fill="#ffffff" stroke="black" cx="403.724" cy="-288" rx="39.7935" ry="18"/>
<text text-anchor="middle" x="403.724" y="-284.3" font-family="Times,serif" font-size="14.00" fill="#2c94b3">AS3549</text>
</a>
</g>
</g>
<!-- AS3356&#45;&gt;AS3549 -->
<g id="edge14" class="edge"><title>AS3356&#45;&gt;AS3549</title>
<path fill="none" stroke="black" d="M328.103,-288C336.306,-288 345.07,-288 353.602,-288"/>
<polygon fill="black" stroke="black" points="353.841,-291.5 363.841,-288 353.841,-284.5 353.841,-291.5"/>
</g>
<!-- AS3320&#45;&gt;AS701 -->
<g id="edge16" class="edge"><title>AS3320&#45;&gt;AS701</title>
<path fill="none" stroke="black" d="M316.567,-221.066C331.999,-213.71 351.485,-204.423 368.02,-196.541"/>
<polygon fill="black" stroke="black" points="369.84,-199.551 377.361,-192.089 366.828,-193.232 369.84,-199.551"/>
</g>
<!-- AS3320&#45;&gt;AS6453 -->
<g id="edge15" class="edge"><title>AS3320&#45;&gt;AS6453</title>
<path fill="none" stroke="black" d="M328.103,-234C336.306,-234 345.07,-234 353.602,-234"/>
<polygon fill="black" stroke="black" points="353.841,-237.5 363.841,-234 353.841,-230.5 353.841,-237.5"/>
</g>
<!-- AS6939&#45;&gt;AS1273 -->
<g id="edge18" class="edge"><title>AS6939&#45;&gt;AS1273</title>
<path fill="none" stroke="black" d="M328.103,-342C336.306,-342 345.07,-342 353.602,-342"/>
<polygon fill="black" stroke="black" points="353.841,-345.5 363.841,-342 353.841,-338.5 353.841,-345.5"/>
</g>
<!-- AS6939&#45;&gt;AS2497 -->
<g id="edge17" class="edge"><title>AS6939&#45;&gt;AS2497</title>
<path fill="none" stroke="black" d="M316.567,-354.934C331.561,-362.081 350.382,-371.052 366.605,-378.785"/>
<polygon fill="black" stroke="black" points="365.276,-382.028 375.809,-383.171 368.288,-375.709 365.276,-382.028"/>
</g>
<!-- AS3491 -->
<g id="node16" class="node"><title>AS3491</title>
<g id="a_node16"><a xlink:href="/asn/3491" xlink:title="AS3491 ~ PCCW Global, Inc. [US]">
<ellipse fill="#ffffff" stroke="black" cx="403.724" cy="-504" rx="39.7935" ry="18"/>
<text text-anchor="middle" x="403.724" y="-500.3" font-family="Times,serif" font-size="14.00" fill="#2c94b3">AS3491</text>
</a>
</g>
</g>
<!-- AS6939&#45;&gt;AS3491 -->
<g id="edge19" class="edge"><title>AS6939&#45;&gt;AS3491</title>
<path fill="none" stroke="black" d="M314.362,-355.882C319.438,-359.611 324.356,-364.016 328.077,-369 358.349,-409.542 333.806,-436.458 364.077,-477 365.822,-479.336 367.829,-481.545 369.992,-483.617"/>
<polygon fill="black" stroke="black" points="367.87,-486.405 377.793,-490.118 372.352,-481.027 367.87,-486.405"/>
</g>
<!-- AS1299&#45;&gt;AS209 -->
<g id="edge21" class="edge"><title>AS1299&#45;&gt;AS209</title>
<path fill="none" stroke="black" d="M328.103,-126C337.808,-126 348.299,-126 358.262,-126"/>
<polygon fill="black" stroke="black" points="358.398,-129.5 368.398,-126 358.398,-122.5 358.398,-129.5"/>
</g>
<!-- AS7018 -->
<g id="node17" class="node"><title>AS7018</title>
<g id="a_node17"><a xlink:href="/asn/7018" xlink:title="AS7018 ~ AT&amp;T Services, Inc. [US]">
<ellipse fill="#ffffff" stroke="black" cx="403.724" cy="-72" rx="39.7935" ry="18"/>
<text text-anchor="middle" x="403.724" y="-68.3" font-family="Times,serif" font-size="14.00" fill="#2c94b3">AS7018</text>
</a>
</g>
</g>
<!-- AS1299&#45;&gt;AS7018 -->
<g id="edge20" class="edge"><title>AS1299&#45;&gt;AS7018</title>
<path fill="none" stroke="black" stroke-width="2" d="M316.567,-113.066C331.561,-105.919 350.382,-96.9481 366.605,-89.2154"/>
<polygon fill="black" stroke="black" stroke-width="2" points="368.288,-92.291 375.809,-84.8288 365.276,-85.972 368.288,-92.291"/>
</g>
<!-- AS3257 -->
<g id="node18" class="node"><title>AS3257</title>
<g id="a_node18"><a xlink:href="/asn/3257" xlink:title="AS3257 ~ GTT [DE]">
<ellipse fill="#ffffff" stroke="black" cx="403.724" cy="-18" rx="39.7935" ry="18"/>
<text text-anchor="middle" x="403.724" y="-14.3" font-family="Times,serif" font-size="14.00" fill="#2c94b3">AS3257</text>
</a>
</g>
</g>
<!-- AS1299&#45;&gt;AS3257 -->
<g id="edge22" class="edge"><title>AS1299&#45;&gt;AS3257</title>
<path fill="none" stroke="black" d="M303.061,-109.183C317.343,-92.0706 340.89,-65.2553 364.077,-45 366.543,-42.8462 369.182,-40.7062 371.879,-38.6284"/>
<polygon fill="black" stroke="black" points="374.052,-41.3749 380.033,-32.6297 369.904,-35.7363 374.052,-41.3749"/>
</g>
<!-- AS174&#45;&gt;AS5511 -->
<g id="edge29" class="edge"><title>AS174&#45;&gt;AS5511</title>
<path fill="none" stroke="black" d="M314.856,-491.881C330.159,-484.587 349.882,-475.186 366.764,-467.14"/>
<polygon fill="black" stroke="black" points="368.283,-470.293 375.804,-462.831 365.271,-463.974 368.283,-470.293"/>
</g>
<!-- AS174&#45;&gt;AS3491 -->
<g id="edge28" class="edge"><title>AS174&#45;&gt;AS3491</title>
<path fill="none" stroke="black" d="M323.73,-504C333.107,-504 343.457,-504 353.492,-504"/>
<polygon fill="black" stroke="black" points="353.781,-507.5 363.781,-504 353.781,-500.5 353.781,-507.5"/>
</g>
<!-- AS2914&#45;&gt;AS2497 -->
<g id="edge30" class="edge"><title>AS2914&#45;&gt;AS2497</title>
<path fill="none" stroke="black" d="M316.567,-437.066C331.561,-429.919 350.382,-420.948 366.605,-413.215"/>
<polygon fill="black" stroke="black" points="368.288,-416.291 375.809,-408.829 365.276,-409.972 368.288,-416.291"/>
</g>
</g>
</svg>
