<?xml version="1.0" encoding="UTF-8" standalone="no"?>
<!DOCTYPE svg PUBLIC "-//W3C//DTD SVG 1.1//EN"
 "http://www.w3.org/Graphics/SVG/1.1/DTD/svg11.dtd">
<!-- Generated by graphviz version 2.38.0 (20140413.2041)
 -->
<!-- Title: AS21406 Combined Upstream Graph Pages: 1 -->
<svg width="460pt" height="584pt"
 viewBox="0.00 0.00 460.47 584.00" xmlns="http://www.w3.org/2000/svg" xmlns:xlink="http://www.w3.org/1999/xlink">
<g id="graph0" class="graph" transform="scale(1 1) rotate(0) translate(4 580)">
<title>AS21406 Combined Upstream Graph</title>
<polygon fill="white" stroke="none" points="-4,4 -4,-580 456.469,-580 456.469,4 -4,4"/>
<!-- AS21406 -->
<g id="node1" class="node"><title>AS21406</title>
<g id="a_node1"><a xlink:href="/asn/21406" xlink:title="AS21406 ~ D. Swarovski KG [AT]">
<ellipse fill="#ffffff" stroke="black" cx="44.1961" cy="-288" rx="44.393" ry="18"/>
<text text-anchor="middle" x="44.1961" y="-284.3" font-family="Times,serif" font-size="14.00" fill="#880000">AS21406</text>
</a>
</g>
</g>
<!-- AS8447 -->
<g id="node2" class="node"><title>AS8447</title>
<g id="a_node2"><a xlink:href="/asn/8447" xlink:title="AS8447 ~ A1 Telekom Austria AG [AT]">
<ellipse fill="#ffffff" stroke="black" cx="168.588" cy="-315" rx="39.7935" ry="18"/>
<text text-anchor="middle" x="168.588" y="-311.3" font-family="Times,serif" font-size="14.00" fill="#2c94b3">AS8447</text>
</a>
</g>
</g>
<!-- AS21406&#45;&gt;AS8447 -->
<g id="edge1" class="edge"><title>AS21406&#45;&gt;AS8447</title>
<path fill="none" stroke="black" stroke-width="4.20968" d="M83.5859,-296.469C95.9769,-299.202 109.824,-302.257 122.644,-305.085"/>
<polygon fill="black" stroke="black" stroke-width="4.20968" points="122.1,-308.737 132.659,-307.295 123.687,-301.543 122.1,-308.737"/>
</g>
<!-- AS34347 -->
<g id="node3" class="node"><title>AS34347</title>
<g id="a_node3"><a xlink:href="/asn/34347" xlink:title="AS34347 ~ HALLAG Kommunal GmbH [AT]">
<ellipse fill="#ffffff" stroke="black" cx="168.588" cy="-261" rx="44.393" ry="18"/>
<text text-anchor="middle" x="168.588" y="-257.3" font-family="Times,serif" font-size="14.00" fill="#2c94b3">AS34347</text>
</a>
</g>
</g>
<!-- AS21406&#45;&gt;AS34347 -->
<g id="edge2" class="edge"><title>AS21406&#45;&gt;AS34347</title>
<path fill="none" stroke="black" stroke-width="4.5" d="M83.5859,-279.531C94.9779,-277.018 107.6,-274.233 119.525,-271.603"/>
<polygon fill="black" stroke="black" stroke-width="4.5" points="120.418,-275.438 129.335,-269.439 118.721,-267.748 120.418,-275.438"/>
</g>
<!-- AS3356 -->
<g id="node4" class="node"><title>AS3356</title>
<g id="a_node4"><a xlink:href="/asn/3356" xlink:title="AS3356 ~ Level 3 Parent, LLC [US]">
<ellipse fill="#ffffff" stroke="black" cx="288.431" cy="-207" rx="39.7935" ry="18"/>
<text text-anchor="middle" x="288.431" y="-203.3" font-family="Times,serif" font-size="14.00" fill="#2c94b3">AS3356</text>
</a>
</g>
</g>
<!-- AS8447&#45;&gt;AS3356 -->
<g id="edge3" class="edge"><title>AS8447&#45;&gt;AS3356</title>
<path fill="none" stroke="black" stroke-width="4.5" d="M195.117,-301.538C201.28,-297.638 207.582,-293.052 212.784,-288 233.478,-267.906 228.612,-254.617 248.784,-234 250.877,-231.861 253.161,-229.782 255.537,-227.79"/>
<polygon fill="black" stroke="black" stroke-width="4.5" points="258.323,-230.614 263.837,-221.389 253.513,-224.379 258.323,-230.614"/>
</g>
<!-- AS1299 -->
<g id="node5" class="node"><title>AS1299</title>
<g id="a_node5"><a xlink:href="/asn/1299" xlink:title="AS1299 ~ Telia Carrier [EU]">
<ellipse fill="#ffffff" stroke="black" cx="288.431" cy="-315" rx="39.7935" ry="18"/>
<text text-anchor="middle" x="288.431" y="-311.3" font-family="Times,serif" font-size="14.00" fill="#2c94b3">AS1299</text>
</a>
</g>
</g>
<!-- AS8447&#45;&gt;AS1299 -->
<g id="edge4" class="edge"><title>AS8447&#45;&gt;AS1299</title>
<path fill="none" stroke="black" stroke-width="4.5" d="M208.501,-315C218.054,-315 228.404,-315 238.367,-315"/>
<polygon fill="black" stroke="black" stroke-width="4.5" points="238.559,-318.938 248.559,-315 238.559,-311.063 238.559,-318.938"/>
</g>
<!-- AS3320 -->
<g id="node6" class="node"><title>AS3320</title>
<g id="a_node6"><a xlink:href="/asn/3320" xlink:title="AS3320 ~ DTAG [DE]">
<ellipse fill="#ffffff" stroke="black" cx="288.431" cy="-477" rx="39.7935" ry="18"/>
<text text-anchor="middle" x="288.431" y="-473.3" font-family="Times,serif" font-size="14.00" fill="#2c94b3">AS3320</text>
</a>
</g>
</g>
<!-- AS8447&#45;&gt;AS3320 -->
<g id="edge5" class="edge"><title>AS8447&#45;&gt;AS3320</title>
<path fill="none" stroke="black" stroke-width="3.9375" d="M177.004,-332.761C189.072,-360.183 215.044,-413.473 248.784,-450 250.815,-452.198 253.054,-454.319 255.4,-456.34"/>
<polygon fill="black" stroke="black" stroke-width="3.9375" points="253.612,-459.386 263.644,-462.794 257.927,-453.874 253.612,-459.386"/>
</g>
<!-- AS6461 -->
<g id="node7" class="node"><title>AS6461</title>
<g id="a_node7"><a xlink:href="/asn/6461" xlink:title="AS6461 ~ Zayo Bandwidth [US]">
<ellipse fill="#ffffff" stroke="black" cx="288.431" cy="-423" rx="39.7935" ry="18"/>
<text text-anchor="middle" x="288.431" y="-419.3" font-family="Times,serif" font-size="14.00" fill="#2c94b3">AS6461</text>
</a>
</g>
</g>
<!-- AS8447&#45;&gt;AS6461 -->
<g id="edge6" class="edge"><title>AS8447&#45;&gt;AS6461</title>
<path fill="none" stroke="black" stroke-width="0.5625" d="M184.234,-331.725C199.535,-348.765 224.632,-375.523 248.784,-396 251.281,-398.117 253.942,-400.232 256.653,-402.293"/>
<polygon fill="black" stroke="black" stroke-width="0.5625" points="254.69,-405.194 264.83,-408.266 258.819,-399.541 254.69,-405.194"/>
</g>
<!-- AS6762 -->
<g id="node8" class="node"><title>AS6762</title>
<g id="a_node8"><a xlink:href="/asn/6762" xlink:title="AS6762 ~ TELECOM ITALIA SPARKLE S.p.A. [IT]">
<ellipse fill="#ffffff" stroke="black" cx="288.431" cy="-369" rx="39.7935" ry="18"/>
<text text-anchor="middle" x="288.431" y="-365.3" font-family="Times,serif" font-size="14.00" fill="#2c94b3">AS6762</text>
</a>
</g>
</g>
<!-- AS8447&#45;&gt;AS6762 -->
<g id="edge7" class="edge"><title>AS8447&#45;&gt;AS6762</title>
<path fill="none" stroke="black" stroke-width="1.125" d="M197.217,-327.661C213.174,-334.973 233.445,-344.261 250.727,-352.181"/>
<polygon fill="black" stroke="black" stroke-width="1.125" points="249.426,-355.435 259.975,-356.419 252.342,-349.071 249.426,-355.435"/>
</g>
<!-- AS6939 -->
<g id="node9" class="node"><title>AS6939</title>
<g id="a_node9"><a xlink:href="/asn/6939" xlink:title="AS6939 ~ Hurricane Electric LLC [US]">
<ellipse fill="#ffffff" stroke="black" cx="288.431" cy="-126" rx="39.7935" ry="18"/>
<text text-anchor="middle" x="288.431" y="-122.3" font-family="Times,serif" font-size="14.00" fill="#2c94b3">AS6939</text>
</a>
</g>
</g>
<!-- AS8447&#45;&gt;AS6939 -->
<g id="edge8" class="edge"><title>AS8447&#45;&gt;AS6939</title>
<path fill="none" stroke="black" stroke-width="1.6875" d="M196.56,-302.145C202.548,-298.28 208.408,-293.559 212.784,-288 244.083,-248.246 225.804,-225.077 248.784,-180 253.811,-170.14 260.502,-160.081 266.903,-151.359"/>
<polygon fill="black" stroke="black" stroke-width="1.6875" points="269.882,-153.223 273.134,-143.14 264.304,-148.994 269.882,-153.223"/>
</g>
<!-- AS34347&#45;&gt;AS3356 -->
<g id="edge26" class="edge"><title>AS34347&#45;&gt;AS3356</title>
<path fill="none" stroke="black" stroke-width="4" d="M198.718,-247.652C214.329,-240.498 233.727,-231.609 250.399,-223.97"/>
<polygon fill="black" stroke="black" stroke-width="4" points="252.218,-226.986 259.851,-219.638 249.302,-220.622 252.218,-226.986"/>
</g>
<!-- AS34347&#45;&gt;AS1299 -->
<g id="edge25" class="edge"><title>AS34347&#45;&gt;AS1299</title>
<path fill="none" stroke="black" stroke-width="3.5" d="M198.718,-274.348C214.329,-281.502 233.727,-290.391 250.399,-298.03"/>
<polygon fill="black" stroke="black" stroke-width="3.5" points="249.302,-301.378 259.851,-302.362 252.218,-295.014 249.302,-301.378"/>
</g>
<!-- AS34347&#45;&gt;AS6762 -->
<g id="edge28" class="edge"><title>AS34347&#45;&gt;AS6762</title>
<path fill="none" stroke="black" stroke-width="1.5" d="M196.472,-275.329C202.196,-279.036 207.962,-283.318 212.784,-288 233.478,-308.094 228.612,-321.383 248.784,-342 250.877,-344.139 253.161,-346.218 255.537,-348.21"/>
<polygon fill="black" stroke="black" stroke-width="1.5" points="253.781,-351.275 263.837,-354.611 258.056,-345.732 253.781,-351.275"/>
</g>
<!-- AS174 -->
<g id="node21" class="node"><title>AS174</title>
<g id="a_node21"><a xlink:href="/asn/174" xlink:title="AS174 ~ Cogent Communications [US]">
<ellipse fill="#ffffff" stroke="black" cx="288.431" cy="-261" rx="35.194" ry="18"/>
<text text-anchor="middle" x="288.431" y="-257.3" font-family="Times,serif" font-size="14.00" fill="#2c94b3">AS174</text>
</a>
</g>
</g>
<!-- AS34347&#45;&gt;AS174 -->
<g id="edge24" class="edge"><title>AS34347&#45;&gt;AS174</title>
<path fill="none" stroke="black" stroke-width="4.5" d="M212.799,-261C222.647,-261 233.127,-261 243.024,-261"/>
<polygon fill="black" stroke="black" stroke-width="4.5" points="243.076,-264.938 253.076,-261 243.076,-257.063 243.076,-264.938"/>
</g>
<!-- AS2914 -->
<g id="node22" class="node"><title>AS2914</title>
<g id="a_node22"><a xlink:href="/asn/2914" xlink:title="AS2914 ~ NTT America, Inc. [US]">
<ellipse fill="#ffffff" stroke="black" cx="288.431" cy="-59" rx="39.7935" ry="18"/>
<text text-anchor="middle" x="288.431" y="-55.3" font-family="Times,serif" font-size="14.00" fill="#2c94b3">AS2914</text>
</a>
</g>
</g>
<!-- AS34347&#45;&gt;AS2914 -->
<g id="edge27" class="edge"><title>AS34347&#45;&gt;AS2914</title>
<path fill="none" stroke="black" stroke-width="2" d="M176.232,-242.982C188.125,-211.97 214.998,-147.192 248.784,-99 252.807,-93.2627 257.654,-87.5642 262.535,-82.3434"/>
<polygon fill="black" stroke="black" stroke-width="2" points="265.137,-84.6878 269.618,-75.0872 260.128,-79.798 265.137,-84.6878"/>
</g>
<!-- AS3491 -->
<g id="node11" class="node"><title>AS3491</title>
<g id="a_node11"><a xlink:href="/asn/3491" xlink:title="AS3491 ~ PCCW Global, Inc. [US]">
<ellipse fill="#ffffff" stroke="black" cx="408.273" cy="-234" rx="39.7935" ry="18"/>
<text text-anchor="middle" x="408.273" y="-230.3" font-family="Times,serif" font-size="14.00" fill="#2c94b3">AS3491</text>
</a>
</g>
</g>
<!-- AS3356&#45;&gt;AS3491 -->
<g id="edge14" class="edge"><title>AS3356&#45;&gt;AS3491</title>
<path fill="none" stroke="black" d="M324.15,-214.955C336.15,-217.704 349.771,-220.825 362.463,-223.733"/>
<polygon fill="black" stroke="black" points="361.866,-227.187 372.395,-226.009 363.429,-220.364 361.866,-227.187"/>
</g>
<!-- AS3257 -->
<g id="node13" class="node"><title>AS3257</title>
<g id="a_node13"><a xlink:href="/asn/3257" xlink:title="AS3257 ~ GTT [DE]">
<ellipse fill="#ffffff" stroke="black" cx="408.273" cy="-288" rx="39.7935" ry="18"/>
<text text-anchor="middle" x="408.273" y="-284.3" font-family="Times,serif" font-size="14.00" fill="#2c94b3">AS3257</text>
</a>
</g>
</g>
<!-- AS3356&#45;&gt;AS3257 -->
<g id="edge17" class="edge"><title>AS3356&#45;&gt;AS3257</title>
<path fill="none" stroke="black" d="M311.188,-222.009C316.722,-225.879 322.641,-230.064 328.077,-234 344.277,-245.729 347.583,-249.689 364.077,-261 367.606,-263.419 371.343,-265.889 375.084,-268.302"/>
<polygon fill="black" stroke="black" points="373.406,-271.382 383.725,-273.784 377.156,-265.472 373.406,-271.382"/>
</g>
<!-- AS12956 -->
<g id="node14" class="node"><title>AS12956</title>
<g id="a_node14"><a xlink:href="/asn/12956" xlink:title="AS12956 ~ TELXIUS [ES]">
<ellipse fill="#ffffff" stroke="black" cx="408.273" cy="-126" rx="44.393" ry="18"/>
<text text-anchor="middle" x="408.273" y="-122.3" font-family="Times,serif" font-size="14.00" fill="#2c94b3">AS12956</text>
</a>
</g>
</g>
<!-- AS3356&#45;&gt;AS12956 -->
<g id="edge13" class="edge"><title>AS3356&#45;&gt;AS12956</title>
<path fill="none" stroke="black" d="M309.761,-191.723C324.623,-180.696 345.368,-165.593 364.077,-153 367.367,-150.785 370.83,-148.518 374.304,-146.285"/>
<polygon fill="black" stroke="black" points="376.301,-149.163 382.872,-140.852 372.552,-143.252 376.301,-149.163"/>
</g>
<!-- AS3549 -->
<g id="node15" class="node"><title>AS3549</title>
<g id="a_node15"><a xlink:href="/asn/3549" xlink:title="AS3549 ~ Level 3 Parent, LLC [US]">
<ellipse fill="#ffffff" stroke="black" cx="408.273" cy="-180" rx="39.7935" ry="18"/>
<text text-anchor="middle" x="408.273" y="-176.3" font-family="Times,serif" font-size="14.00" fill="#2c94b3">AS3549</text>
</a>
</g>
</g>
<!-- AS3356&#45;&gt;AS3549 -->
<g id="edge15" class="edge"><title>AS3356&#45;&gt;AS3549</title>
<path fill="none" stroke="black" stroke-width="3" d="M324.15,-199.045C336.15,-196.296 349.771,-193.175 362.463,-190.267"/>
<polygon fill="black" stroke="black" stroke-width="3" points="363.429,-193.636 372.395,-187.991 361.866,-186.813 363.429,-193.636"/>
</g>
<!-- AS2497 -->
<g id="node16" class="node"><title>AS2497</title>
<g id="a_node16"><a xlink:href="/asn/2497" xlink:title="AS2497 ~ Internet Initiative Japan Inc. [JP]">
<ellipse fill="#ffffff" stroke="black" cx="408.273" cy="-18" rx="39.7935" ry="18"/>
<text text-anchor="middle" x="408.273" y="-14.3" font-family="Times,serif" font-size="14.00" fill="#2c94b3">AS2497</text>
</a>
</g>
</g>
<!-- AS3356&#45;&gt;AS2497 -->
<g id="edge16" class="edge"><title>AS3356&#45;&gt;AS2497</title>
<path fill="none" stroke="black" stroke-width="4" d="M303.727,-189.86C311.713,-179.647 321.375,-166.147 328.077,-153 351.058,-107.923 332.779,-84.7541 364.077,-45 366.402,-42.0468 369.146,-39.33 372.105,-36.8526"/>
<polygon fill="black" stroke="black" stroke-width="4" points="374.298,-39.585 380.302,-30.8554 370.165,-33.9356 374.298,-39.585"/>
</g>
<!-- AS1273 -->
<g id="node17" class="node"><title>AS1273</title>
<g id="a_node17"><a xlink:href="/asn/1273" xlink:title="AS1273 ~ Vodafone Group PLC [EU]">
<ellipse fill="#ffffff" stroke="black" cx="408.273" cy="-72" rx="39.7935" ry="18"/>
<text text-anchor="middle" x="408.273" y="-68.3" font-family="Times,serif" font-size="14.00" fill="#2c94b3">AS1273</text>
</a>
</g>
</g>
<!-- AS3356&#45;&gt;AS1273 -->
<g id="edge18" class="edge"><title>AS3356&#45;&gt;AS1273</title>
<path fill="none" stroke="black" d="M302.11,-189.594C309.725,-179.063 319.558,-165.33 328.077,-153 344.473,-129.269 343.384,-119.094 364.077,-99 366.922,-96.2372 370.096,-93.6138 373.396,-91.1658"/>
<polygon fill="black" stroke="black" points="375.462,-93.9935 381.744,-85.4623 371.513,-88.2137 375.462,-93.9935"/>
</g>
<!-- AS6453 -->
<g id="node18" class="node"><title>AS6453</title>
<g id="a_node18"><a xlink:href="/asn/6453" xlink:title="AS6453 ~ TATA COMMUNICATIONS (AMERICA) INC [US]">
<ellipse fill="#ffffff" stroke="black" cx="408.273" cy="-396" rx="39.7935" ry="18"/>
<text text-anchor="middle" x="408.273" y="-392.3" font-family="Times,serif" font-size="14.00" fill="#2c94b3">AS6453</text>
</a>
</g>
</g>
<!-- AS3356&#45;&gt;AS6453 -->
<g id="edge19" class="edge"><title>AS3356&#45;&gt;AS6453</title>
<path fill="none" stroke="black" d="M314.59,-220.716C319.654,-224.455 324.51,-228.904 328.077,-234 363.691,-284.869 327.174,-319.059 364.077,-369 366.311,-372.023 368.994,-374.786 371.914,-377.293"/>
<polygon fill="black" stroke="black" points="369.94,-380.186 380.058,-383.331 374.109,-374.563 369.94,-380.186"/>
</g>
<!-- AS209 -->
<g id="node10" class="node"><title>AS209</title>
<g id="a_node10"><a xlink:href="/asn/209" xlink:title="AS209 ~ CenturyLink Communications, LLC [US]">
<ellipse fill="#ffffff" stroke="black" cx="408.273" cy="-558" rx="35.194" ry="18"/>
<text text-anchor="middle" x="408.273" y="-554.3" font-family="Times,serif" font-size="14.00" fill="#2c94b3">AS209</text>
</a>
</g>
</g>
<!-- AS1299&#45;&gt;AS209 -->
<g id="edge9" class="edge"><title>AS1299&#45;&gt;AS209</title>
<path fill="none" stroke="black" stroke-width="3" d="M314.867,-328.53C319.917,-332.278 324.696,-336.779 328.077,-342 374.552,-413.778 315.781,-460.434 364.077,-531 366.494,-534.53 369.539,-537.691 372.89,-540.495"/>
<polygon fill="black" stroke="black" stroke-width="3" points="370.945,-543.407 381.109,-546.397 375.028,-537.721 370.945,-543.407"/>
</g>
<!-- AS1299&#45;&gt;AS3491 -->
<g id="edge10" class="edge"><title>AS1299&#45;&gt;AS3491</title>
<path fill="none" stroke="black" d="M311.188,-299.991C316.722,-296.121 322.641,-291.936 328.077,-288 344.277,-276.271 347.583,-272.311 364.077,-261 367.606,-258.581 371.343,-256.111 375.084,-253.698"/>
<polygon fill="black" stroke="black" points="377.156,-256.528 383.725,-248.216 373.406,-250.618 377.156,-256.528"/>
</g>
<!-- AS7018 -->
<g id="node12" class="node"><title>AS7018</title>
<g id="a_node12"><a xlink:href="/asn/7018" xlink:title="AS7018 ~ AT&amp;T Services, Inc. [US]">
<ellipse fill="#ffffff" stroke="black" cx="408.273" cy="-342" rx="39.7935" ry="18"/>
<text text-anchor="middle" x="408.273" y="-338.3" font-family="Times,serif" font-size="14.00" fill="#2c94b3">AS7018</text>
</a>
</g>
</g>
<!-- AS1299&#45;&gt;AS7018 -->
<g id="edge11" class="edge"><title>AS1299&#45;&gt;AS7018</title>
<path fill="none" stroke="black" stroke-width="4" d="M324.15,-322.955C336.15,-325.704 349.771,-328.825 362.463,-331.733"/>
<polygon fill="black" stroke="black" stroke-width="4" points="361.866,-335.187 372.395,-334.009 363.429,-328.364 361.866,-335.187"/>
</g>
<!-- AS1299&#45;&gt;AS3257 -->
<g id="edge12" class="edge"><title>AS1299&#45;&gt;AS3257</title>
<path fill="none" stroke="black" stroke-width="3" d="M324.15,-307.045C336.15,-304.296 349.771,-301.175 362.463,-298.267"/>
<polygon fill="black" stroke="black" stroke-width="3" points="363.429,-301.636 372.395,-295.991 361.866,-294.813 363.429,-301.636"/>
</g>
<!-- AS3320&#45;&gt;AS209 -->
<g id="edge20" class="edge"><title>AS3320&#45;&gt;AS209</title>
<path fill="none" stroke="black" d="M309.761,-492.277C324.623,-503.304 345.368,-518.407 364.077,-531 367.895,-533.569 371.945,-536.21 375.975,-538.786"/>
<polygon fill="black" stroke="black" points="374.344,-541.895 384.669,-544.271 378.079,-535.975 374.344,-541.895"/>
</g>
<!-- AS3320&#45;&gt;AS6453 -->
<g id="edge21" class="edge"><title>AS3320&#45;&gt;AS6453</title>
<path fill="none" stroke="black" stroke-width="2" d="M311.188,-461.991C316.722,-458.121 322.641,-453.936 328.077,-450 344.277,-438.271 347.583,-434.311 364.077,-423 367.606,-420.581 371.343,-418.111 375.084,-415.698"/>
<polygon fill="black" stroke="black" stroke-width="2" points="377.156,-418.528 383.725,-410.216 373.406,-412.618 377.156,-418.528"/>
</g>
<!-- AS1239 -->
<g id="node19" class="node"><title>AS1239</title>
<g id="a_node19"><a xlink:href="/asn/1239" xlink:title="AS1239 ~ Sprint [US]">
<ellipse fill="#ffffff" stroke="black" cx="408.273" cy="-450" rx="39.7935" ry="18"/>
<text text-anchor="middle" x="408.273" y="-446.3" font-family="Times,serif" font-size="14.00" fill="#2c94b3">AS1239</text>
</a>
</g>
</g>
<!-- AS3320&#45;&gt;AS1239 -->
<g id="edge22" class="edge"><title>AS3320&#45;&gt;AS1239</title>
<path fill="none" stroke="black" d="M324.15,-469.045C336.15,-466.296 349.771,-463.175 362.463,-460.267"/>
<polygon fill="black" stroke="black" points="363.429,-463.636 372.395,-457.991 361.866,-456.813 363.429,-463.636"/>
</g>
<!-- AS701 -->
<g id="node20" class="node"><title>AS701</title>
<g id="a_node20"><a xlink:href="/asn/701" xlink:title="AS701 ~ UUNET [US]">
<ellipse fill="#ffffff" stroke="black" cx="408.273" cy="-504" rx="35.194" ry="18"/>
<text text-anchor="middle" x="408.273" y="-500.3" font-family="Times,serif" font-size="14.00" fill="#2c94b3">AS701</text>
</a>
</g>
</g>
<!-- AS3320&#45;&gt;AS701 -->
<g id="edge23" class="edge"><title>AS3320&#45;&gt;AS701</title>
<path fill="none" stroke="black" stroke-width="2" d="M324.15,-484.955C337.243,-487.955 352.265,-491.396 365.906,-494.522"/>
<polygon fill="black" stroke="black" stroke-width="2" points="365.484,-498.016 376.013,-496.838 367.047,-491.193 365.484,-498.016"/>
</g>
<!-- AS6762&#45;&gt;AS6453 -->
<g id="edge34" class="edge"><title>AS6762&#45;&gt;AS6453</title>
<path fill="none" stroke="black" d="M324.15,-376.955C336.15,-379.704 349.771,-382.825 362.463,-385.733"/>
<polygon fill="black" stroke="black" points="361.866,-389.187 372.395,-388.009 363.429,-382.364 361.866,-389.187"/>
</g>
<!-- AS6939&#45;&gt;AS3491 -->
<g id="edge37" class="edge"><title>AS6939&#45;&gt;AS3491</title>
<path fill="none" stroke="black" d="M302.85,-143.065C316.964,-160.375 340.379,-187.345 364.077,-207 367.294,-209.668 370.794,-212.27 374.365,-214.741"/>
<polygon fill="black" stroke="black" points="372.442,-217.666 382.721,-220.236 376.288,-211.817 372.442,-217.666"/>
</g>
<!-- AS6939&#45;&gt;AS2497 -->
<g id="edge36" class="edge"><title>AS6939&#45;&gt;AS2497</title>
<path fill="none" stroke="black" d="M305.781,-109.432C312.734,-102.296 320.881,-93.8125 328.077,-86 344.507,-68.164 345.6,-60.7043 364.077,-45 367.099,-42.4317 370.388,-39.9346 373.757,-37.5627"/>
<polygon fill="black" stroke="black" points="375.802,-40.4061 382.192,-31.9552 371.927,-34.5767 375.802,-40.4061"/>
</g>
<!-- AS6939&#45;&gt;AS1273 -->
<g id="edge35" class="edge"><title>AS6939&#45;&gt;AS1273</title>
<path fill="none" stroke="black" d="M317.06,-113.339C333.017,-106.027 353.287,-96.7385 370.57,-88.8189"/>
<polygon fill="black" stroke="black" points="372.185,-91.929 379.818,-84.5813 369.269,-85.5653 372.185,-91.929"/>
</g>
<!-- AS174&#45;&gt;AS3491 -->
<g id="edge32" class="edge"><title>AS174&#45;&gt;AS3491</title>
<path fill="none" stroke="black" stroke-width="2" d="M320.701,-253.835C333.54,-250.894 348.645,-247.433 362.612,-244.233"/>
<polygon fill="black" stroke="black" stroke-width="2" points="363.567,-247.605 372.533,-241.96 362.004,-240.781 363.567,-247.605"/>
</g>
<!-- AS174&#45;&gt;AS3257 -->
<g id="edge30" class="edge"><title>AS174&#45;&gt;AS3257</title>
<path fill="none" stroke="black" stroke-width="2" d="M320.701,-268.165C333.54,-271.106 348.645,-274.567 362.612,-277.767"/>
<polygon fill="black" stroke="black" stroke-width="2" points="362.004,-281.219 372.533,-280.04 363.567,-274.395 362.004,-281.219"/>
</g>
<!-- AS174&#45;&gt;AS1239 -->
<g id="edge29" class="edge"><title>AS174&#45;&gt;AS1239</title>
<path fill="none" stroke="black" d="M313.387,-273.844C318.88,-277.756 324.228,-282.502 328.077,-288 363.691,-338.869 327.174,-373.059 364.077,-423 366.311,-426.023 368.994,-428.786 371.914,-431.293"/>
<polygon fill="black" stroke="black" points="369.94,-434.186 380.058,-437.331 374.109,-428.563 369.94,-434.186"/>
</g>
<!-- AS174&#45;&gt;AS701 -->
<g id="edge31" class="edge"><title>AS174&#45;&gt;AS701</title>
<path fill="none" stroke="black" stroke-width="2" d="M313.667,-273.656C319.154,-277.572 324.43,-282.366 328.077,-288 374.552,-359.778 315.781,-406.434 364.077,-477 366.494,-480.53 369.539,-483.691 372.89,-486.495"/>
<polygon fill="black" stroke="black" stroke-width="2" points="370.945,-489.407 381.109,-492.397 375.028,-483.721 370.945,-489.407"/>
</g>
<!-- AS2914&#45;&gt;AS2497 -->
<g id="edge33" class="edge"><title>AS2914&#45;&gt;AS2497</title>
<path fill="none" stroke="black" stroke-width="2" d="M320.393,-48.2277C334.489,-43.3232 351.366,-37.4515 366.479,-32.1932"/>
<polygon fill="black" stroke="black" stroke-width="2" points="367.815,-35.4344 376.109,-28.8427 365.514,-28.8231 367.815,-35.4344"/>
</g>
</g>
</svg>
