<?xml version="1.0" encoding="UTF-8" standalone="no"?>
<!DOCTYPE svg PUBLIC "-//W3C//DTD SVG 1.1//EN"
 "http://www.w3.org/Graphics/SVG/1.1/DTD/svg11.dtd">
<!-- Generated by graphviz version 2.38.0 (20140413.2041)
 -->
<!-- Title: AS21406 Combined Upstream Graph Pages: 1 -->
<svg width="460pt" height="476pt"
 viewBox="0.00 0.00 460.47 476.00" xmlns="http://www.w3.org/2000/svg" xmlns:xlink="http://www.w3.org/1999/xlink">
<g id="graph0" class="graph" transform="scale(1 1) rotate(0) translate(4 472)">
<title>AS21406 Combined Upstream Graph</title>
<polygon fill="white" stroke="none" points="-4,4 -4,-472 456.469,-472 456.469,4 -4,4"/>
<!-- AS21406 -->
<g id="node1" class="node"><title>AS21406</title>
<g id="a_node1"><a xlink:href="/asn/21406" xlink:title="AS21406 ~ D. Swarovski KG [AT]">
<ellipse fill="#ffffff" stroke="black" cx="44.1961" cy="-234" rx="44.393" ry="18"/>
<text text-anchor="middle" x="44.1961" y="-230.3" font-family="Times,serif" font-size="14.00" fill="#880000">AS21406</text>
</a>
</g>
</g>
<!-- AS8447 -->
<g id="node2" class="node"><title>AS8447</title>
<g id="a_node2"><a xlink:href="/asn/8447" xlink:title="AS8447 ~ A1 Telekom Austria AG [AT]">
<ellipse fill="#ffffff" stroke="black" cx="168.588" cy="-207" rx="39.7935" ry="18"/>
<text text-anchor="middle" x="168.588" y="-203.3" font-family="Times,serif" font-size="14.00" fill="#2c94b3">AS8447</text>
</a>
</g>
</g>
<!-- AS21406&#45;&gt;AS8447 -->
<g id="edge1" class="edge"><title>AS21406&#45;&gt;AS8447</title>
<path fill="none" stroke="black" stroke-width="4.5" d="M83.5859,-225.531C95.9769,-222.798 109.824,-219.743 122.644,-216.915"/>
<polygon fill="black" stroke="black" stroke-width="4.5" points="123.742,-220.705 132.659,-214.705 122.045,-213.015 123.742,-220.705"/>
</g>
<!-- AS34347 -->
<g id="node3" class="node"><title>AS34347</title>
<g id="a_node3"><a xlink:href="/asn/34347" xlink:title="AS34347 ~ HALLAG Kommunal GmbH [AT]">
<ellipse fill="#ffffff" stroke="black" cx="168.588" cy="-261" rx="44.393" ry="18"/>
<text text-anchor="middle" x="168.588" y="-257.3" font-family="Times,serif" font-size="14.00" fill="#2c94b3">AS34347</text>
</a>
</g>
</g>
<!-- AS21406&#45;&gt;AS34347 -->
<g id="edge2" class="edge"><title>AS21406&#45;&gt;AS34347</title>
<path fill="none" stroke="black" stroke-width="4.33929" d="M83.5859,-242.469C94.9779,-244.982 107.6,-247.767 119.525,-250.397"/>
<polygon fill="black" stroke="black" stroke-width="4.33929" points="118.751,-254.115 129.335,-252.561 120.387,-246.699 118.751,-254.115"/>
</g>
<!-- AS6762 -->
<g id="node4" class="node"><title>AS6762</title>
<g id="a_node4"><a xlink:href="/asn/6762" xlink:title="AS6762 ~ TELECOM ITALIA SPARKLE S.p.A. [IT]">
<ellipse fill="#ffffff" stroke="black" cx="288.431" cy="-153" rx="39.7935" ry="18"/>
<text text-anchor="middle" x="288.431" y="-149.3" font-family="Times,serif" font-size="14.00" fill="#2c94b3">AS6762</text>
</a>
</g>
</g>
<!-- AS8447&#45;&gt;AS6762 -->
<g id="edge3" class="edge"><title>AS8447&#45;&gt;AS6762</title>
<path fill="none" stroke="black" stroke-width="0.9" d="M197.217,-194.339C213.174,-187.027 233.445,-177.739 250.727,-169.819"/>
<polygon fill="black" stroke="black" stroke-width="0.9" points="252.342,-172.929 259.975,-165.581 249.426,-166.565 252.342,-172.929"/>
</g>
<!-- AS3320 -->
<g id="node5" class="node"><title>AS3320</title>
<g id="a_node5"><a xlink:href="/asn/3320" xlink:title="AS3320 ~ DTAG [DE]">
<ellipse fill="#ffffff" stroke="black" cx="288.431" cy="-45" rx="39.7935" ry="18"/>
<text text-anchor="middle" x="288.431" y="-41.3" font-family="Times,serif" font-size="14.00" fill="#2c94b3">AS3320</text>
</a>
</g>
</g>
<!-- AS8447&#45;&gt;AS3320 -->
<g id="edge4" class="edge"><title>AS8447&#45;&gt;AS3320</title>
<path fill="none" stroke="black" stroke-width="2.7" d="M177.004,-189.239C189.072,-161.817 215.044,-108.527 248.784,-72 250.815,-69.8018 253.054,-67.6807 255.4,-65.6596"/>
<polygon fill="black" stroke="black" stroke-width="2.7" points="257.927,-68.1262 263.644,-59.2062 253.612,-62.6142 257.927,-68.1262"/>
</g>
<!-- AS3356 -->
<g id="node6" class="node"><title>AS3356</title>
<g id="a_node6"><a xlink:href="/asn/3356" xlink:title="AS3356 ~ Level 3 Parent, LLC [US]">
<ellipse fill="#ffffff" stroke="black" cx="288.431" cy="-261" rx="39.7935" ry="18"/>
<text text-anchor="middle" x="288.431" y="-257.3" font-family="Times,serif" font-size="14.00" fill="#2c94b3">AS3356</text>
</a>
</g>
</g>
<!-- AS8447&#45;&gt;AS3356 -->
<g id="edge5" class="edge"><title>AS8447&#45;&gt;AS3356</title>
<path fill="none" stroke="black" stroke-width="4.5" d="M197.217,-219.661C213.174,-226.973 233.445,-236.261 250.727,-244.181"/>
<polygon fill="black" stroke="black" stroke-width="4.5" points="249.244,-247.832 259.975,-248.419 252.524,-240.673 249.244,-247.832"/>
</g>
<!-- AS6461 -->
<g id="node7" class="node"><title>AS6461</title>
<g id="a_node7"><a xlink:href="/asn/6461" xlink:title="AS6461 ~ Zayo Bandwidth [US]">
<ellipse fill="#ffffff" stroke="black" cx="288.431" cy="-99" rx="39.7935" ry="18"/>
<text text-anchor="middle" x="288.431" y="-95.3" font-family="Times,serif" font-size="14.00" fill="#2c94b3">AS6461</text>
</a>
</g>
</g>
<!-- AS8447&#45;&gt;AS6461 -->
<g id="edge6" class="edge"><title>AS8447&#45;&gt;AS6461</title>
<path fill="none" stroke="black" stroke-width="0.45" d="M184.234,-190.275C199.535,-173.235 224.632,-146.477 248.784,-126 251.281,-123.883 253.942,-121.768 256.653,-119.707"/>
<polygon fill="black" stroke="black" stroke-width="0.45" points="258.819,-122.459 264.83,-113.734 254.69,-116.806 258.819,-122.459"/>
</g>
<!-- AS1299 -->
<g id="node8" class="node"><title>AS1299</title>
<g id="a_node8"><a xlink:href="/asn/1299" xlink:title="AS1299 ~ Telia Carrier [EU]">
<ellipse fill="#ffffff" stroke="black" cx="288.431" cy="-369" rx="39.7935" ry="18"/>
<text text-anchor="middle" x="288.431" y="-365.3" font-family="Times,serif" font-size="14.00" fill="#2c94b3">AS1299</text>
</a>
</g>
</g>
<!-- AS8447&#45;&gt;AS1299 -->
<g id="edge7" class="edge"><title>AS8447&#45;&gt;AS1299</title>
<path fill="none" stroke="black" stroke-width="2.7" d="M196.56,-219.855C202.548,-223.72 208.408,-228.441 212.784,-234 244.083,-273.754 218.513,-301.458 248.784,-342 250.529,-344.336 252.536,-346.545 254.7,-348.617"/>
<polygon fill="black" stroke="black" stroke-width="2.7" points="252.577,-351.405 262.5,-355.118 257.059,-346.027 252.577,-351.405"/>
</g>
<!-- AS6939 -->
<g id="node9" class="node"><title>AS6939</title>
<g id="a_node9"><a xlink:href="/asn/6939" xlink:title="AS6939 ~ Hurricane Electric LLC [US]">
<ellipse fill="#ffffff" stroke="black" cx="288.431" cy="-315" rx="39.7935" ry="18"/>
<text text-anchor="middle" x="288.431" y="-311.3" font-family="Times,serif" font-size="14.00" fill="#2c94b3">AS6939</text>
</a>
</g>
</g>
<!-- AS8447&#45;&gt;AS6939 -->
<g id="edge8" class="edge"><title>AS8447&#45;&gt;AS6939</title>
<path fill="none" stroke="black" stroke-width="1.35" d="M195.117,-220.462C201.28,-224.362 207.582,-228.948 212.784,-234 233.478,-254.094 228.612,-267.383 248.784,-288 250.877,-290.139 253.161,-292.218 255.537,-294.21"/>
<polygon fill="black" stroke="black" stroke-width="1.35" points="253.781,-297.275 263.837,-300.611 258.056,-291.732 253.781,-297.275"/>
</g>
<!-- AS34347&#45;&gt;AS6762 -->
<g id="edge28" class="edge"><title>AS34347&#45;&gt;AS6762</title>
<path fill="none" stroke="black" d="M196.472,-246.671C202.196,-242.964 207.962,-238.682 212.784,-234 233.478,-213.906 228.612,-200.617 248.784,-180 250.877,-177.861 253.161,-175.782 255.537,-173.79"/>
<polygon fill="black" stroke="black" points="258.056,-176.268 263.837,-167.389 253.781,-170.725 258.056,-176.268"/>
</g>
<!-- AS34347&#45;&gt;AS3356 -->
<g id="edge27" class="edge"><title>AS34347&#45;&gt;AS3356</title>
<path fill="none" stroke="black" stroke-width="4.5" d="M212.799,-261C221.112,-261 229.875,-261 238.357,-261"/>
<polygon fill="black" stroke="black" stroke-width="4.5" points="238.516,-264.938 248.516,-261 238.516,-257.063 238.516,-264.938"/>
</g>
<!-- AS34347&#45;&gt;AS1299 -->
<g id="edge25" class="edge"><title>AS34347&#45;&gt;AS1299</title>
<path fill="none" stroke="black" stroke-width="3" d="M184.521,-278.044C199.847,-295.097 224.782,-321.65 248.784,-342 251.281,-344.117 253.942,-346.232 256.653,-348.293"/>
<polygon fill="black" stroke="black" stroke-width="3" points="254.69,-351.194 264.83,-354.266 258.819,-345.541 254.69,-351.194"/>
</g>
<!-- AS2914 -->
<g id="node19" class="node"><title>AS2914</title>
<g id="a_node19"><a xlink:href="/asn/2914" xlink:title="AS2914 ~ NTT America, Inc. [US]">
<ellipse fill="#ffffff" stroke="black" cx="288.431" cy="-423" rx="39.7935" ry="18"/>
<text text-anchor="middle" x="288.431" y="-419.3" font-family="Times,serif" font-size="14.00" fill="#2c94b3">AS2914</text>
</a>
</g>
</g>
<!-- AS34347&#45;&gt;AS2914 -->
<g id="edge24" class="edge"><title>AS34347&#45;&gt;AS2914</title>
<path fill="none" stroke="black" stroke-width="2" d="M177.004,-278.761C189.072,-306.183 215.044,-359.473 248.784,-396 250.815,-398.198 253.054,-400.319 255.4,-402.34"/>
<polygon fill="black" stroke="black" stroke-width="2" points="253.612,-405.386 263.644,-408.794 257.927,-399.874 253.612,-405.386"/>
</g>
<!-- AS174 -->
<g id="node20" class="node"><title>AS174</title>
<g id="a_node20"><a xlink:href="/asn/174" xlink:title="AS174 ~ Cogent Communications [US]">
<ellipse fill="#ffffff" stroke="black" cx="288.431" cy="-207" rx="35.194" ry="18"/>
<text text-anchor="middle" x="288.431" y="-203.3" font-family="Times,serif" font-size="14.00" fill="#2c94b3">AS174</text>
</a>
</g>
</g>
<!-- AS34347&#45;&gt;AS174 -->
<g id="edge26" class="edge"><title>AS34347&#45;&gt;AS174</title>
<path fill="none" stroke="black" stroke-width="3" d="M198.718,-247.652C214.935,-240.22 235.238,-230.917 252.327,-223.086"/>
<polygon fill="black" stroke="black" stroke-width="3" points="253.811,-226.256 261.444,-218.908 250.895,-219.892 253.811,-226.256"/>
</g>
<!-- AS12956 -->
<g id="node10" class="node"><title>AS12956</title>
<g id="a_node10"><a xlink:href="/asn/12956" xlink:title="AS12956 ~ TELXIUS [ES]">
<ellipse fill="#ffffff" stroke="black" cx="408.273" cy="-72" rx="44.393" ry="18"/>
<text text-anchor="middle" x="408.273" y="-68.3" font-family="Times,serif" font-size="14.00" fill="#2c94b3">AS12956</text>
</a>
</g>
</g>
<!-- AS3320&#45;&gt;AS12956 -->
<g id="edge9" class="edge"><title>AS3320&#45;&gt;AS12956</title>
<path fill="none" stroke="black" d="M324.15,-52.9549C335.289,-55.5069 347.824,-58.3789 359.717,-61.1039"/>
<polygon fill="black" stroke="black" points="358.982,-64.5261 369.511,-63.3479 360.545,-57.7029 358.982,-64.5261"/>
</g>
<!-- AS701 -->
<g id="node11" class="node"><title>AS701</title>
<g id="a_node11"><a xlink:href="/asn/701" xlink:title="AS701 ~ UUNET [US]">
<ellipse fill="#ffffff" stroke="black" cx="408.273" cy="-126" rx="35.194" ry="18"/>
<text text-anchor="middle" x="408.273" y="-122.3" font-family="Times,serif" font-size="14.00" fill="#2c94b3">AS701</text>
</a>
</g>
</g>
<!-- AS3320&#45;&gt;AS701 -->
<g id="edge10" class="edge"><title>AS3320&#45;&gt;AS701</title>
<path fill="none" stroke="black" stroke-width="2" d="M311.188,-60.0092C316.722,-63.8795 322.641,-68.0641 328.077,-72 344.277,-83.7288 347.583,-87.6895 364.077,-99 367.872,-101.602 371.909,-104.262 375.933,-106.849"/>
<polygon fill="black" stroke="black" stroke-width="2" points="374.298,-109.956 384.62,-112.343 378.039,-104.04 374.298,-109.956"/>
</g>
<!-- AS1239 -->
<g id="node12" class="node"><title>AS1239</title>
<g id="a_node12"><a xlink:href="/asn/1239" xlink:title="AS1239 ~ Sprint [US]">
<ellipse fill="#ffffff" stroke="black" cx="408.273" cy="-18" rx="39.7935" ry="18"/>
<text text-anchor="middle" x="408.273" y="-14.3" font-family="Times,serif" font-size="14.00" fill="#2c94b3">AS1239</text>
</a>
</g>
</g>
<!-- AS3320&#45;&gt;AS1239 -->
<g id="edge11" class="edge"><title>AS3320&#45;&gt;AS1239</title>
<path fill="none" stroke="black" d="M324.15,-37.0451C336.15,-34.2957 349.771,-31.1749 362.463,-28.2668"/>
<polygon fill="black" stroke="black" points="363.429,-31.6363 372.395,-25.9913 361.866,-24.8131 363.429,-31.6363"/>
</g>
<!-- AS209 -->
<g id="node13" class="node"><title>AS209</title>
<g id="a_node13"><a xlink:href="/asn/209" xlink:title="AS209 ~ CenturyLink Communications, LLC [US]">
<ellipse fill="#ffffff" stroke="black" cx="408.273" cy="-234" rx="35.194" ry="18"/>
<text text-anchor="middle" x="408.273" y="-230.3" font-family="Times,serif" font-size="14.00" fill="#2c94b3">AS209</text>
</a>
</g>
</g>
<!-- AS3320&#45;&gt;AS209 -->
<g id="edge12" class="edge"><title>AS3320&#45;&gt;AS209</title>
<path fill="none" stroke="black" d="M314.59,-58.7163C319.654,-62.4545 324.51,-66.9043 328.077,-72 363.691,-122.869 327.174,-157.059 364.077,-207 366.62,-210.441 369.744,-213.545 373.139,-216.318"/>
<polygon fill="black" stroke="black" points="371.226,-219.252 381.406,-222.186 375.278,-213.544 371.226,-219.252"/>
</g>
<!-- AS3356&#45;&gt;AS12956 -->
<g id="edge18" class="edge"><title>AS3356&#45;&gt;AS12956</title>
<path fill="none" stroke="black" d="M314.59,-247.284C319.654,-243.545 324.51,-239.096 328.077,-234 363.691,-183.131 327.174,-148.941 364.077,-99 366.022,-96.3683 368.307,-93.9334 370.793,-91.6932"/>
<polygon fill="black" stroke="black" points="372.954,-94.4464 378.716,-85.5553 368.667,-88.9127 372.954,-94.4464"/>
</g>
<!-- AS3356&#45;&gt;AS701 -->
<g id="edge19" class="edge"><title>AS3356&#45;&gt;AS701</title>
<path fill="none" stroke="black" stroke-width="2" d="M314.012,-246.844C319.106,-243.128 324.12,-238.799 328.077,-234 353.142,-203.606 338.243,-182.742 364.077,-153 366.883,-149.77 370.17,-146.797 373.658,-144.098"/>
<polygon fill="black" stroke="black" stroke-width="2" points="375.792,-146.878 382.025,-138.31 371.81,-141.121 375.792,-146.878"/>
</g>
<!-- AS3356&#45;&gt;AS209 -->
<g id="edge13" class="edge"><title>AS3356&#45;&gt;AS209</title>
<path fill="none" stroke="black" stroke-width="2" d="M324.15,-253.045C337.243,-250.045 352.265,-246.604 365.906,-243.478"/>
<polygon fill="black" stroke="black" stroke-width="2" points="367.047,-246.807 376.013,-241.162 365.484,-239.984 367.047,-246.807"/>
</g>
<!-- AS3549 -->
<g id="node14" class="node"><title>AS3549</title>
<g id="a_node14"><a xlink:href="/asn/3549" xlink:title="AS3549 ~ Level 3 Parent, LLC [US]">
<ellipse fill="#ffffff" stroke="black" cx="408.273" cy="-180" rx="39.7935" ry="18"/>
<text text-anchor="middle" x="408.273" y="-176.3" font-family="Times,serif" font-size="14.00" fill="#2c94b3">AS3549</text>
</a>
</g>
</g>
<!-- AS3356&#45;&gt;AS3549 -->
<g id="edge14" class="edge"><title>AS3356&#45;&gt;AS3549</title>
<path fill="none" stroke="black" stroke-width="3" d="M311.188,-245.991C316.722,-242.121 322.641,-237.936 328.077,-234 344.277,-222.271 347.583,-218.311 364.077,-207 367.606,-204.581 371.343,-202.111 375.084,-199.698"/>
<polygon fill="black" stroke="black" stroke-width="3" points="377.156,-202.528 383.725,-194.216 373.406,-196.618 377.156,-202.528"/>
</g>
<!-- AS2497 -->
<g id="node15" class="node"><title>AS2497</title>
<g id="a_node15"><a xlink:href="/asn/2497" xlink:title="AS2497 ~ Internet Initiative Japan Inc. [JP]">
<ellipse fill="#ffffff" stroke="black" cx="408.273" cy="-396" rx="39.7935" ry="18"/>
<text text-anchor="middle" x="408.273" y="-392.3" font-family="Times,serif" font-size="14.00" fill="#2c94b3">AS2497</text>
</a>
</g>
</g>
<!-- AS3356&#45;&gt;AS2497 -->
<g id="edge15" class="edge"><title>AS3356&#45;&gt;AS2497</title>
<path fill="none" stroke="black" stroke-width="4" d="M314.012,-275.156C319.106,-278.872 324.12,-283.201 328.077,-288 353.142,-318.394 338.243,-339.258 364.077,-369 366.542,-371.838 369.379,-374.477 372.397,-376.906"/>
<polygon fill="black" stroke="black" stroke-width="4" points="370.507,-379.858 380.675,-382.836 374.583,-374.167 370.507,-379.858"/>
</g>
<!-- AS3257 -->
<g id="node16" class="node"><title>AS3257</title>
<g id="a_node16"><a xlink:href="/asn/3257" xlink:title="AS3257 ~ GTT [DE]">
<ellipse fill="#ffffff" stroke="black" cx="408.273" cy="-342" rx="39.7935" ry="18"/>
<text text-anchor="middle" x="408.273" y="-338.3" font-family="Times,serif" font-size="14.00" fill="#2c94b3">AS3257</text>
</a>
</g>
</g>
<!-- AS3356&#45;&gt;AS3257 -->
<g id="edge16" class="edge"><title>AS3356&#45;&gt;AS3257</title>
<path fill="none" stroke="black" stroke-width="2" d="M311.188,-276.009C316.722,-279.879 322.641,-284.064 328.077,-288 344.277,-299.729 347.583,-303.689 364.077,-315 367.606,-317.419 371.343,-319.889 375.084,-322.302"/>
<polygon fill="black" stroke="black" stroke-width="2" points="373.406,-325.382 383.725,-327.784 377.156,-319.472 373.406,-325.382"/>
</g>
<!-- AS3491 -->
<g id="node17" class="node"><title>AS3491</title>
<g id="a_node17"><a xlink:href="/asn/3491" xlink:title="AS3491 ~ PCCW Global, Inc. [US]">
<ellipse fill="#ffffff" stroke="black" cx="408.273" cy="-288" rx="39.7935" ry="18"/>
<text text-anchor="middle" x="408.273" y="-284.3" font-family="Times,serif" font-size="14.00" fill="#2c94b3">AS3491</text>
</a>
</g>
</g>
<!-- AS3356&#45;&gt;AS3491 -->
<g id="edge17" class="edge"><title>AS3356&#45;&gt;AS3491</title>
<path fill="none" stroke="black" d="M324.15,-268.955C336.15,-271.704 349.771,-274.825 362.463,-277.733"/>
<polygon fill="black" stroke="black" points="361.866,-281.187 372.395,-280.009 363.429,-274.364 361.866,-281.187"/>
</g>
<!-- AS1299&#45;&gt;AS209 -->
<g id="edge23" class="edge"><title>AS1299&#45;&gt;AS209</title>
<path fill="none" stroke="black" d="M314.012,-354.844C319.106,-351.128 324.12,-346.799 328.077,-342 353.142,-311.606 338.243,-290.742 364.077,-261 366.883,-257.77 370.17,-254.797 373.658,-252.098"/>
<polygon fill="black" stroke="black" points="375.792,-254.878 382.025,-246.31 371.81,-249.121 375.792,-254.878"/>
</g>
<!-- AS1299&#45;&gt;AS2497 -->
<g id="edge20" class="edge"><title>AS1299&#45;&gt;AS2497</title>
<path fill="none" stroke="black" d="M324.15,-376.955C336.15,-379.704 349.771,-382.825 362.463,-385.733"/>
<polygon fill="black" stroke="black" points="361.866,-389.187 372.395,-388.009 363.429,-382.364 361.866,-389.187"/>
</g>
<!-- AS1299&#45;&gt;AS3257 -->
<g id="edge22" class="edge"><title>AS1299&#45;&gt;AS3257</title>
<path fill="none" stroke="black" stroke-width="2" d="M324.15,-361.045C336.15,-358.296 349.771,-355.175 362.463,-352.267"/>
<polygon fill="black" stroke="black" stroke-width="2" points="363.429,-355.636 372.395,-349.991 361.866,-348.813 363.429,-355.636"/>
</g>
<!-- AS7018 -->
<g id="node18" class="node"><title>AS7018</title>
<g id="a_node18"><a xlink:href="/asn/7018" xlink:title="AS7018 ~ AT&amp;T Services, Inc. [US]">
<ellipse fill="#ffffff" stroke="black" cx="408.273" cy="-450" rx="39.7935" ry="18"/>
<text text-anchor="middle" x="408.273" y="-446.3" font-family="Times,serif" font-size="14.00" fill="#2c94b3">AS7018</text>
</a>
</g>
</g>
<!-- AS1299&#45;&gt;AS7018 -->
<g id="edge21" class="edge"><title>AS1299&#45;&gt;AS7018</title>
<path fill="none" stroke="black" stroke-width="4" d="M311.188,-384.009C316.722,-387.879 322.641,-392.064 328.077,-396 344.277,-407.729 347.583,-411.689 364.077,-423 367.606,-425.419 371.343,-427.889 375.084,-430.302"/>
<polygon fill="black" stroke="black" stroke-width="4" points="373.406,-433.382 383.725,-435.784 377.156,-427.472 373.406,-433.382"/>
</g>
<!-- AS6939&#45;&gt;AS209 -->
<g id="edge35" class="edge"><title>AS6939&#45;&gt;AS209</title>
<path fill="none" stroke="black" d="M311.188,-299.991C316.722,-296.121 322.641,-291.936 328.077,-288 344.277,-276.271 347.583,-272.311 364.077,-261 367.872,-258.398 371.909,-255.738 375.933,-253.151"/>
<polygon fill="black" stroke="black" points="378.039,-255.96 384.62,-247.657 374.298,-250.044 378.039,-255.96"/>
</g>
<!-- AS6939&#45;&gt;AS2497 -->
<g id="edge34" class="edge"><title>AS6939&#45;&gt;AS2497</title>
<path fill="none" stroke="black" d="M311.188,-330.009C316.722,-333.879 322.641,-338.064 328.077,-342 344.277,-353.729 347.583,-357.689 364.077,-369 367.606,-371.419 371.343,-373.889 375.084,-376.302"/>
<polygon fill="black" stroke="black" points="373.406,-379.382 383.725,-381.784 377.156,-373.472 373.406,-379.382"/>
</g>
<!-- AS6939&#45;&gt;AS3491 -->
<g id="edge33" class="edge"><title>AS6939&#45;&gt;AS3491</title>
<path fill="none" stroke="black" d="M324.15,-307.045C336.15,-304.296 349.771,-301.175 362.463,-298.267"/>
<polygon fill="black" stroke="black" points="363.429,-301.636 372.395,-295.991 361.866,-294.813 363.429,-301.636"/>
</g>
<!-- AS2914&#45;&gt;AS2497 -->
<g id="edge32" class="edge"><title>AS2914&#45;&gt;AS2497</title>
<path fill="none" stroke="black" stroke-width="2" d="M324.15,-415.045C336.15,-412.296 349.771,-409.175 362.463,-406.267"/>
<polygon fill="black" stroke="black" stroke-width="2" points="363.429,-409.636 372.395,-403.991 361.866,-402.813 363.429,-409.636"/>
</g>
<!-- AS174&#45;&gt;AS1239 -->
<g id="edge30" class="edge"><title>AS174&#45;&gt;AS1239</title>
<path fill="none" stroke="black" d="M313.387,-194.156C318.88,-190.244 324.228,-185.498 328.077,-180 363.691,-129.131 327.174,-94.9414 364.077,-45 366.311,-41.9771 368.994,-39.2138 371.914,-36.7071"/>
<polygon fill="black" stroke="black" points="374.109,-39.4368 380.058,-30.6694 369.94,-33.8137 374.109,-39.4368"/>
</g>
<!-- AS174&#45;&gt;AS209 -->
<g id="edge31" class="edge"><title>AS174&#45;&gt;AS209</title>
<path fill="none" stroke="black" d="M320.701,-214.165C334.551,-217.338 351.038,-221.115 365.889,-224.518"/>
<polygon fill="black" stroke="black" points="365.328,-227.98 375.857,-226.802 366.891,-221.157 365.328,-227.98"/>
</g>
<!-- AS174&#45;&gt;AS3491 -->
<g id="edge29" class="edge"><title>AS174&#45;&gt;AS3491</title>
<path fill="none" stroke="black" stroke-width="2" d="M310.381,-221.445C316.144,-225.471 322.376,-229.872 328.077,-234 344.277,-245.729 347.583,-249.689 364.077,-261 367.606,-263.419 371.343,-265.889 375.084,-268.302"/>
<polygon fill="black" stroke="black" stroke-width="2" points="373.406,-271.382 383.725,-273.784 377.156,-265.472 373.406,-271.382"/>
</g>
</g>
</svg>
