<?xml version="1.0" encoding="UTF-8" standalone="no"?>
<!DOCTYPE svg PUBLIC "-//W3C//DTD SVG 1.1//EN"
 "http://www.w3.org/Graphics/SVG/1.1/DTD/svg11.dtd">
<!-- Generated by graphviz version 2.38.0 (20140413.2041)
 -->
<!-- Title: AS42354 IPv4 Upstream Graph Pages: 1 -->
<svg width="576pt" height="422pt"
 viewBox="0.00 0.00 575.76 422.00" xmlns="http://www.w3.org/2000/svg" xmlns:xlink="http://www.w3.org/1999/xlink">
<g id="graph0" class="graph" transform="scale(1 1) rotate(0) translate(4 418)">
<title>AS42354 IPv4 Upstream Graph</title>
<polygon fill="white" stroke="none" points="-4,4 -4,-418 571.762,-418 571.762,4 -4,4"/>
<!-- AS42354 -->
<g id="node1" class="node"><title>AS42354</title>
<g id="a_node1"><a xlink:href="/asn/42354" xlink:title="AS42354 ~ DATASIX Rechenzentrumsbetriebs GmbH [AT]">
<ellipse fill="#ffffff" stroke="black" cx="44.1961" cy="-207" rx="44.393" ry="18"/>
<text text-anchor="middle" x="44.1961" y="-203.3" font-family="Times,serif" font-size="14.00" fill="#880000">AS42354</text>
</a>
</g>
</g>
<!-- AS42473 -->
<g id="node2" class="node"><title>AS42473</title>
<g id="a_node2"><a xlink:href="/asn/42473" xlink:title="AS42473 ~ ANEXIA Internetdienstleistungs GmbH [AT]">
<ellipse fill="#ffffff" stroke="black" cx="168.588" cy="-234" rx="44.393" ry="18"/>
<text text-anchor="middle" x="168.588" y="-230.3" font-family="Times,serif" font-size="14.00" fill="#2c94b3">AS42473</text>
</a>
</g>
</g>
<!-- AS42354&#45;&gt;AS42473 -->
<g id="edge1" class="edge"><title>AS42354&#45;&gt;AS42473</title>
<path fill="none" stroke="black" stroke-width="4.5" d="M83.5859,-215.469C94.9779,-217.982 107.6,-220.767 119.525,-223.397"/>
<polygon fill="black" stroke="black" stroke-width="4.5" points="118.721,-227.252 129.335,-225.561 120.418,-219.562 118.721,-227.252"/>
</g>
<!-- AS47147 -->
<g id="node3" class="node"><title>AS47147</title>
<g id="a_node3"><a xlink:href="/asn/47147" xlink:title="AS47147 ~ ANEXIA Internetdienstleistungs GmbH [AT]">
<ellipse fill="#ffffff" stroke="black" cx="168.588" cy="-180" rx="44.393" ry="18"/>
<text text-anchor="middle" x="168.588" y="-176.3" font-family="Times,serif" font-size="14.00" fill="#2c94b3">AS47147</text>
</a>
</g>
</g>
<!-- AS42354&#45;&gt;AS47147 -->
<g id="edge2" class="edge"><title>AS42354&#45;&gt;AS47147</title>
<path fill="none" stroke="black" stroke-width="2.25" d="M83.5859,-198.531C94.9779,-196.018 107.6,-193.233 119.525,-190.603"/>
<polygon fill="black" stroke="black" stroke-width="2.25" points="120.323,-194.011 129.335,-188.439 118.815,-187.175 120.323,-194.011"/>
</g>
<!-- AS2914 -->
<g id="node4" class="node"><title>AS2914</title>
<g id="a_node4"><a xlink:href="/asn/2914" xlink:title="AS2914 ~ NTT America, Inc. [US]">
<ellipse fill="#ffffff" stroke="black" cx="292.98" cy="-234" rx="39.7935" ry="18"/>
<text text-anchor="middle" x="292.98" y="-230.3" font-family="Times,serif" font-size="14.00" fill="#2c94b3">AS2914</text>
</a>
</g>
</g>
<!-- AS42473&#45;&gt;AS2914 -->
<g id="edge3" class="edge"><title>AS42473&#45;&gt;AS2914</title>
<path fill="none" stroke="black" stroke-width="3" d="M213.084,-234C222.773,-234 233.11,-234 243.002,-234"/>
<polygon fill="black" stroke="black" stroke-width="3" points="243.105,-237.5 253.105,-234 243.105,-230.5 243.105,-237.5"/>
</g>
<!-- AS6762 -->
<g id="node5" class="node"><title>AS6762</title>
<g id="a_node5"><a xlink:href="/asn/6762" xlink:title="AS6762 ~ TELECOM ITALIA SPARKLE S.p.A. [IT]">
<ellipse fill="#ffffff" stroke="black" cx="292.98" cy="-342" rx="39.7935" ry="18"/>
<text text-anchor="middle" x="292.98" y="-338.3" font-family="Times,serif" font-size="14.00" fill="#2c94b3">AS6762</text>
</a>
</g>
</g>
<!-- AS42473&#45;&gt;AS6762 -->
<g id="edge4" class="edge"><title>AS42473&#45;&gt;AS6762</title>
<path fill="none" stroke="black" stroke-width="3" d="M184.021,-250.983C199.152,-268.229 224.116,-295.148 248.784,-315 252.04,-317.62 255.565,-320.192 259.149,-322.646"/>
<polygon fill="black" stroke="black" stroke-width="3" points="257.237,-325.577 267.522,-328.121 261.068,-319.719 257.237,-325.577"/>
</g>
<!-- AS16735 -->
<g id="node6" class="node"><title>AS16735</title>
<g id="a_node6"><a xlink:href="/asn/16735" xlink:title="AS16735 ~ ALGAR TELECOM S/A [BR]">
<ellipse fill="#ffffff" stroke="black" cx="292.98" cy="-396" rx="44.393" ry="18"/>
<text text-anchor="middle" x="292.98" y="-392.3" font-family="Times,serif" font-size="14.00" fill="#2c94b3">AS16735</text>
</a>
</g>
</g>
<!-- AS42473&#45;&gt;AS16735 -->
<g id="edge5" class="edge"><title>AS42473&#45;&gt;AS16735</title>
<path fill="none" stroke="black" d="M176.779,-251.975C188.546,-279.682 214.12,-333.348 248.784,-369 251.2,-371.485 253.889,-373.842 256.71,-376.051"/>
<polygon fill="black" stroke="black" points="254.717,-378.929 264.894,-381.873 258.774,-373.225 254.717,-378.929"/>
</g>
<!-- AS1299 -->
<g id="node7" class="node"><title>AS1299</title>
<g id="a_node7"><a xlink:href="/asn/1299" xlink:title="AS1299 ~ Telia Carrier [EU]">
<ellipse fill="#ffffff" stroke="black" cx="292.98" cy="-180" rx="39.7935" ry="18"/>
<text text-anchor="middle" x="292.98" y="-176.3" font-family="Times,serif" font-size="14.00" fill="#2c94b3">AS1299</text>
</a>
</g>
</g>
<!-- AS42473&#45;&gt;AS1299 -->
<g id="edge6" class="edge"><title>AS42473&#45;&gt;AS1299</title>
<path fill="none" stroke="black" stroke-width="3" d="M199.216,-220.928C215.81,-213.607 236.67,-204.403 254.403,-196.579"/>
<polygon fill="black" stroke="black" stroke-width="3" points="256.151,-199.634 263.887,-192.395 253.325,-193.23 256.151,-199.634"/>
</g>
<!-- AS3491 -->
<g id="node8" class="node"><title>AS3491</title>
<g id="a_node8"><a xlink:href="/asn/3491" xlink:title="AS3491 ~ PCCW Global, Inc. [US]">
<ellipse fill="#ffffff" stroke="black" cx="292.98" cy="-288" rx="39.7935" ry="18"/>
<text text-anchor="middle" x="292.98" y="-284.3" font-family="Times,serif" font-size="14.00" fill="#2c94b3">AS3491</text>
</a>
</g>
</g>
<!-- AS42473&#45;&gt;AS3491 -->
<g id="edge7" class="edge"><title>AS42473&#45;&gt;AS3491</title>
<path fill="none" stroke="black" stroke-width="4" d="M199.216,-247.072C215.81,-254.393 236.67,-263.597 254.403,-271.421"/>
<polygon fill="black" stroke="black" stroke-width="4" points="253.325,-274.77 263.887,-275.605 256.151,-268.366 253.325,-274.77"/>
</g>
<!-- AS47147&#45;&gt;AS2914 -->
<g id="edge19" class="edge"><title>AS47147&#45;&gt;AS2914</title>
<path fill="none" stroke="black" d="M199.216,-193.072C215.81,-200.393 236.67,-209.597 254.403,-217.421"/>
<polygon fill="black" stroke="black" points="253.325,-220.77 263.887,-221.605 256.151,-214.366 253.325,-220.77"/>
</g>
<!-- AS47147&#45;&gt;AS1299 -->
<g id="edge20" class="edge"><title>AS47147&#45;&gt;AS1299</title>
<path fill="none" stroke="black" stroke-width="2" d="M213.084,-180C222.773,-180 233.11,-180 243.002,-180"/>
<polygon fill="black" stroke="black" stroke-width="2" points="243.105,-183.5 253.105,-180 243.105,-176.5 243.105,-183.5"/>
</g>
<!-- AS3320 -->
<g id="node17" class="node"><title>AS3320</title>
<g id="a_node17"><a xlink:href="/asn/3320" xlink:title="AS3320 ~ DTAG [DE]">
<ellipse fill="#ffffff" stroke="black" cx="292.98" cy="-99" rx="39.7935" ry="18"/>
<text text-anchor="middle" x="292.98" y="-95.3" font-family="Times,serif" font-size="14.00" fill="#2c94b3">AS3320</text>
</a>
</g>
</g>
<!-- AS47147&#45;&gt;AS3320 -->
<g id="edge21" class="edge"><title>AS47147&#45;&gt;AS3320</title>
<path fill="none" stroke="black" stroke-width="3" d="M192.609,-164.765C211.963,-151.956 239.798,-133.534 261.088,-119.445"/>
<polygon fill="black" stroke="black" stroke-width="3" points="263.069,-122.331 269.476,-113.893 259.205,-116.494 263.069,-122.331"/>
</g>
<!-- AS6461 -->
<g id="node18" class="node"><title>AS6461</title>
<g id="a_node18"><a xlink:href="/asn/6461" xlink:title="AS6461 ~ Zayo Bandwidth [US]">
<ellipse fill="#ffffff" stroke="black" cx="292.98" cy="-45" rx="39.7935" ry="18"/>
<text text-anchor="middle" x="292.98" y="-41.3" font-family="Times,serif" font-size="14.00" fill="#2c94b3">AS6461</text>
</a>
</g>
</g>
<!-- AS47147&#45;&gt;AS6461 -->
<g id="edge22" class="edge"><title>AS47147&#45;&gt;AS6461</title>
<path fill="none" stroke="black" d="M179.634,-162.329C193.205,-139.528 219.137,-99.5281 248.784,-72 251.691,-69.3015 254.904,-66.7199 258.228,-64.297"/>
<polygon fill="black" stroke="black" points="260.287,-67.1296 266.606,-58.6253 256.363,-61.333 260.287,-67.1296"/>
</g>
<!-- AS2497 -->
<g id="node9" class="node"><title>AS2497</title>
<g id="a_node9"><a xlink:href="/asn/2497" xlink:title="AS2497 ~ Internet Initiative Japan Inc. [JP]">
<ellipse fill="#ffffff" stroke="black" cx="412.823" cy="-234" rx="39.7935" ry="18"/>
<text text-anchor="middle" x="412.823" y="-230.3" font-family="Times,serif" font-size="14.00" fill="#2c94b3">AS2497</text>
</a>
</g>
</g>
<!-- AS2914&#45;&gt;AS2497 -->
<g id="edge8" class="edge"><title>AS2914&#45;&gt;AS2497</title>
<path fill="none" stroke="black" d="M332.893,-234C342.446,-234 352.796,-234 362.759,-234"/>
<polygon fill="black" stroke="black" points="362.951,-237.5 372.951,-234 362.951,-230.5 362.951,-237.5"/>
</g>
<!-- AS3356 -->
<g id="node10" class="node"><title>AS3356</title>
<g id="a_node10"><a xlink:href="/asn/3356" xlink:title="AS3356 ~ Level 3 Parent, LLC [US]">
<ellipse fill="#ffffff" stroke="black" cx="412.823" cy="-288" rx="39.7935" ry="18"/>
<text text-anchor="middle" x="412.823" y="-284.3" font-family="Times,serif" font-size="14.00" fill="#2c94b3">AS3356</text>
</a>
</g>
</g>
<!-- AS2914&#45;&gt;AS3356 -->
<g id="edge9" class="edge"><title>AS2914&#45;&gt;AS3356</title>
<path fill="none" stroke="black" d="M321.609,-246.661C337.566,-253.973 357.837,-263.261 375.119,-271.181"/>
<polygon fill="black" stroke="black" points="373.818,-274.435 384.367,-275.419 376.734,-268.071 373.818,-274.435"/>
</g>
<!-- AS6762&#45;&gt;AS3356 -->
<g id="edge18" class="edge"><title>AS6762&#45;&gt;AS3356</title>
<path fill="none" stroke="black" d="M321.609,-329.339C337.566,-322.027 357.837,-312.739 375.119,-304.819"/>
<polygon fill="black" stroke="black" points="376.734,-307.929 384.367,-300.581 373.818,-301.565 376.734,-307.929"/>
</g>
<!-- AS6453 -->
<g id="node16" class="node"><title>AS6453</title>
<g id="a_node16"><a xlink:href="/asn/6453" xlink:title="AS6453 ~ TATA COMMUNICATIONS (AMERICA) INC [US]">
<ellipse fill="#ffffff" stroke="black" cx="412.823" cy="-342" rx="39.7935" ry="18"/>
<text text-anchor="middle" x="412.823" y="-338.3" font-family="Times,serif" font-size="14.00" fill="#2c94b3">AS6453</text>
</a>
</g>
</g>
<!-- AS6762&#45;&gt;AS6453 -->
<g id="edge17" class="edge"><title>AS6762&#45;&gt;AS6453</title>
<path fill="none" stroke="black" d="M332.893,-342C342.446,-342 352.796,-342 362.759,-342"/>
<polygon fill="black" stroke="black" points="362.951,-345.5 372.951,-342 362.951,-338.5 362.951,-345.5"/>
</g>
<!-- AS3257 -->
<g id="node11" class="node"><title>AS3257</title>
<g id="a_node11"><a xlink:href="/asn/3257" xlink:title="AS3257 ~ GTT [DE]">
<ellipse fill="#ffffff" stroke="black" cx="412.823" cy="-396" rx="39.7935" ry="18"/>
<text text-anchor="middle" x="412.823" y="-392.3" font-family="Times,serif" font-size="14.00" fill="#2c94b3">AS3257</text>
</a>
</g>
</g>
<!-- AS16735&#45;&gt;AS3257 -->
<g id="edge10" class="edge"><title>AS16735&#45;&gt;AS3257</title>
<path fill="none" stroke="black" d="M337.191,-396C345.504,-396 354.267,-396 362.749,-396"/>
<polygon fill="black" stroke="black" points="362.908,-399.5 372.908,-396 362.908,-392.5 362.908,-399.5"/>
</g>
<!-- AS7018 -->
<g id="node12" class="node"><title>AS7018</title>
<g id="a_node12"><a xlink:href="/asn/7018" xlink:title="AS7018 ~ ATT&#45;INTERNET4 [US]">
<ellipse fill="#ffffff" stroke="black" cx="412.823" cy="-126" rx="39.7935" ry="18"/>
<text text-anchor="middle" x="412.823" y="-122.3" font-family="Times,serif" font-size="14.00" fill="#2c94b3">AS7018</text>
</a>
</g>
</g>
<!-- AS1299&#45;&gt;AS7018 -->
<g id="edge11" class="edge"><title>AS1299&#45;&gt;AS7018</title>
<path fill="none" stroke="black" d="M321.609,-167.339C337.566,-160.027 357.837,-150.739 375.119,-142.819"/>
<polygon fill="black" stroke="black" points="376.734,-145.929 384.367,-138.581 373.818,-139.565 376.734,-145.929"/>
</g>
<!-- AS174 -->
<g id="node13" class="node"><title>AS174</title>
<g id="a_node13"><a xlink:href="/asn/174" xlink:title="AS174 ~ Cogent Communications [US]">
<ellipse fill="#ffffff" stroke="black" cx="412.823" cy="-180" rx="35.194" ry="18"/>
<text text-anchor="middle" x="412.823" y="-176.3" font-family="Times,serif" font-size="14.00" fill="#2c94b3">AS174</text>
</a>
</g>
</g>
<!-- AS1299&#45;&gt;AS174 -->
<g id="edge12" class="edge"><title>AS1299&#45;&gt;AS174</title>
<path fill="none" stroke="black" stroke-width="2" d="M332.893,-180C343.98,-180 356.139,-180 367.522,-180"/>
<polygon fill="black" stroke="black" stroke-width="2" points="367.703,-183.5 377.703,-180 367.703,-176.5 367.703,-183.5"/>
</g>
<!-- AS3491&#45;&gt;AS2497 -->
<g id="edge14" class="edge"><title>AS3491&#45;&gt;AS2497</title>
<path fill="none" stroke="black" d="M321.609,-275.339C337.566,-268.027 357.837,-258.739 375.119,-250.819"/>
<polygon fill="black" stroke="black" points="376.734,-253.929 384.367,-246.581 373.818,-247.565 376.734,-253.929"/>
</g>
<!-- AS3491&#45;&gt;AS3356 -->
<g id="edge13" class="edge"><title>AS3491&#45;&gt;AS3356</title>
<path fill="none" stroke="black" stroke-width="2" d="M332.893,-288C342.446,-288 352.796,-288 362.759,-288"/>
<polygon fill="black" stroke="black" stroke-width="2" points="362.951,-291.5 372.951,-288 362.951,-284.5 362.951,-291.5"/>
</g>
<!-- AS3549 -->
<g id="node14" class="node"><title>AS3549</title>
<g id="a_node14"><a xlink:href="/asn/3549" xlink:title="AS3549 ~ Level 3 Parent, LLC [US]">
<ellipse fill="#ffffff" stroke="black" cx="528.116" cy="-315" rx="39.7935" ry="18"/>
<text text-anchor="middle" x="528.116" y="-311.3" font-family="Times,serif" font-size="14.00" fill="#2c94b3">AS3549</text>
</a>
</g>
</g>
<!-- AS3356&#45;&gt;AS3549 -->
<g id="edge15" class="edge"><title>AS3356&#45;&gt;AS3549</title>
<path fill="none" stroke="black" stroke-width="2" d="M448.43,-296.248C459.301,-298.838 471.456,-301.735 482.898,-304.462"/>
<polygon fill="black" stroke="black" stroke-width="2" points="482.182,-307.889 492.721,-306.803 483.804,-301.08 482.182,-307.889"/>
</g>
<!-- AS209 -->
<g id="node15" class="node"><title>AS209</title>
<g id="a_node15"><a xlink:href="/asn/209" xlink:title="AS209 ~ CenturyLink Communications, LLC [US]">
<ellipse fill="#ffffff" stroke="black" cx="528.116" cy="-261" rx="35.194" ry="18"/>
<text text-anchor="middle" x="528.116" y="-257.3" font-family="Times,serif" font-size="14.00" fill="#2c94b3">AS209</text>
</a>
</g>
</g>
<!-- AS3356&#45;&gt;AS209 -->
<g id="edge16" class="edge"><title>AS3356&#45;&gt;AS209</title>
<path fill="none" stroke="black" d="M448.43,-279.752C460.225,-276.942 473.529,-273.771 485.797,-270.847"/>
<polygon fill="black" stroke="black" points="486.886,-274.186 495.802,-268.463 485.263,-267.376 486.886,-274.186"/>
</g>
<!-- AS1239 -->
<g id="node19" class="node"><title>AS1239</title>
<g id="a_node19"><a xlink:href="/asn/1239" xlink:title="AS1239 ~ Sprint [US]">
<ellipse fill="#ffffff" stroke="black" cx="412.823" cy="-18" rx="39.7935" ry="18"/>
<text text-anchor="middle" x="412.823" y="-14.3" font-family="Times,serif" font-size="14.00" fill="#2c94b3">AS1239</text>
</a>
</g>
</g>
<!-- AS3320&#45;&gt;AS1239 -->
<g id="edge23" class="edge"><title>AS3320&#45;&gt;AS1239</title>
<path fill="none" stroke="black" d="M317.529,-84.7841C323.971,-80.7596 330.904,-76.3012 337.176,-72 353.671,-60.6895 356.977,-56.7288 373.176,-45 375.98,-42.9706 378.911,-40.875 381.852,-38.7905"/>
<polygon fill="black" stroke="black" points="383.903,-41.627 390.066,-33.0092 379.874,-35.9026 383.903,-41.627"/>
</g>
<!-- AS701 -->
<g id="node20" class="node"><title>AS701</title>
<g id="a_node20"><a xlink:href="/asn/701" xlink:title="AS701 ~ UUNET [US]">
<ellipse fill="#ffffff" stroke="black" cx="412.823" cy="-72" rx="35.194" ry="18"/>
<text text-anchor="middle" x="412.823" y="-68.3" font-family="Times,serif" font-size="14.00" fill="#2c94b3">AS701</text>
</a>
</g>
</g>
<!-- AS3320&#45;&gt;AS701 -->
<g id="edge24" class="edge"><title>AS3320&#45;&gt;AS701</title>
<path fill="none" stroke="black" d="M328.7,-91.0451C341.792,-88.0454 356.814,-84.6035 370.455,-81.4781"/>
<polygon fill="black" stroke="black" points="371.597,-84.8074 380.562,-79.1624 370.033,-77.9842 371.597,-84.8074"/>
</g>
</g>
</svg>
