<?xml version="1.0" encoding="UTF-8" standalone="no"?>
<!DOCTYPE svg PUBLIC "-//W3C//DTD SVG 1.1//EN"
 "http://www.w3.org/Graphics/SVG/1.1/DTD/svg11.dtd">
<!-- Generated by graphviz version 2.38.0 (20140413.2041)
 -->
<!-- Title: AS24953 IPv4 Upstream Graph Pages: 1 -->
<svg width="451pt" height="692pt"
 viewBox="0.00 0.00 451.37 692.00" xmlns="http://www.w3.org/2000/svg" xmlns:xlink="http://www.w3.org/1999/xlink">
<g id="graph0" class="graph" transform="scale(1 1) rotate(0) translate(4 688)">
<title>AS24953 IPv4 Upstream Graph</title>
<polygon fill="white" stroke="none" points="-4,4 -4,-688 447.37,-688 447.37,4 -4,4"/>
<!-- AS24953 -->
<g id="node1" class="node"><title>AS24953</title>
<g id="a_node1"><a xlink:href="/asn/24953" xlink:title="AS24953 ~ AS MACRO: AS&#45;24953 (customers) [AT]">
<ellipse fill="#ffffff" stroke="black" cx="44.1961" cy="-274" rx="44.393" ry="18"/>
<text text-anchor="middle" x="44.1961" y="-270.3" font-family="Times,serif" font-size="14.00" fill="#880000">AS24953</text>
</a>
</g>
</g>
<!-- AS3257 -->
<g id="node2" class="node"><title>AS3257</title>
<g id="a_node2"><a xlink:href="/asn/3257" xlink:title="AS3257 ~ GTT [DE]">
<ellipse fill="#ffffff" stroke="black" cx="168.588" cy="-423" rx="39.7935" ry="18"/>
<text text-anchor="middle" x="168.588" y="-419.3" font-family="Times,serif" font-size="14.00" fill="#2c94b3">AS3257</text>
</a>
</g>
</g>
<!-- AS24953&#45;&gt;AS3257 -->
<g id="edge1" class="edge"><title>AS24953&#45;&gt;AS3257</title>
<path fill="none" stroke="black" stroke-width="4.5" d="M59.236,-291.092C80.8161,-317.364 122.247,-367.802 147.155,-398.125"/>
<polygon fill="black" stroke="black" stroke-width="4.5" points="144.322,-400.879 153.712,-406.107 150.407,-395.881 144.322,-400.879"/>
</g>
<!-- AS21385 -->
<g id="node3" class="node"><title>AS21385</title>
<g id="a_node3"><a xlink:href="/asn/21385" xlink:title="AS21385 ~ Trusted Network GmbH [DE]">
<ellipse fill="#ffffff" stroke="black" cx="168.588" cy="-126" rx="44.393" ry="18"/>
<text text-anchor="middle" x="168.588" y="-122.3" font-family="Times,serif" font-size="14.00" fill="#2c94b3">AS21385</text>
</a>
</g>
</g>
<!-- AS24953&#45;&gt;AS21385 -->
<g id="edge2" class="edge"><title>AS24953&#45;&gt;AS21385</title>
<path fill="none" stroke="black" stroke-width="2.7" d="M59.236,-257.023C80.7014,-231.066 121.807,-181.36 146.756,-151.191"/>
<polygon fill="black" stroke="black" stroke-width="2.7" points="149.659,-153.172 153.335,-143.235 144.265,-148.711 149.659,-153.172"/>
</g>
<!-- AS6453 -->
<g id="node4" class="node"><title>AS6453</title>
<g id="a_node4"><a xlink:href="/asn/6453" xlink:title="AS6453 ~ TATA COMMUNICATIONS (AMERICA) INC [US]">
<ellipse fill="#ffffff" stroke="black" cx="288.431" cy="-666" rx="39.7935" ry="18"/>
<text text-anchor="middle" x="288.431" y="-662.3" font-family="Times,serif" font-size="14.00" fill="#2c94b3">AS6453</text>
</a>
</g>
</g>
<!-- AS3257&#45;&gt;AS6453 -->
<g id="edge3" class="edge"><title>AS3257&#45;&gt;AS6453</title>
<path fill="none" stroke="black" d="M172.406,-440.99C179.334,-480.435 200.291,-576.025 248.784,-639 250.563,-641.31 252.596,-643.5 254.776,-645.559"/>
<polygon fill="black" stroke="black" points="252.672,-648.361 262.609,-652.036 257.133,-642.966 252.672,-648.361"/>
</g>
<!-- AS2497 -->
<g id="node5" class="node"><title>AS2497</title>
<g id="a_node5"><a xlink:href="/asn/2497" xlink:title="AS2497 ~ Internet Initiative Japan Inc. [JP]">
<ellipse fill="#ffffff" stroke="black" cx="288.431" cy="-612" rx="39.7935" ry="18"/>
<text text-anchor="middle" x="288.431" y="-608.3" font-family="Times,serif" font-size="14.00" fill="#2c94b3">AS2497</text>
</a>
</g>
</g>
<!-- AS3257&#45;&gt;AS2497 -->
<g id="edge4" class="edge"><title>AS3257&#45;&gt;AS2497</title>
<path fill="none" stroke="black" d="M175.035,-440.991C185.349,-472.816 210.212,-539.927 248.784,-585 250.73,-587.274 252.908,-589.449 255.213,-591.507"/>
<polygon fill="black" stroke="black" points="253.383,-594.524 263.382,-598.027 257.75,-589.053 253.383,-594.524"/>
</g>
<!-- AS6762 -->
<g id="node6" class="node"><title>AS6762</title>
<g id="a_node6"><a xlink:href="/asn/6762" xlink:title="AS6762 ~ TELECOM ITALIA SPARKLE S.p.A. [IT]">
<ellipse fill="#ffffff" stroke="black" cx="288.431" cy="-558" rx="39.7935" ry="18"/>
<text text-anchor="middle" x="288.431" y="-554.3" font-family="Times,serif" font-size="14.00" fill="#2c94b3">AS6762</text>
</a>
</g>
</g>
<!-- AS3257&#45;&gt;AS6762 -->
<g id="edge5" class="edge"><title>AS3257&#45;&gt;AS6762</title>
<path fill="none" stroke="black" d="M179.854,-440.44C193.662,-462.991 219.851,-502.722 248.784,-531 250.924,-533.092 253.242,-535.137 255.642,-537.106"/>
<polygon fill="black" stroke="black" points="253.908,-540.185 263.983,-543.464 258.152,-534.618 253.908,-540.185"/>
</g>
<!-- AS2914 -->
<g id="node7" class="node"><title>AS2914</title>
<g id="a_node7"><a xlink:href="/asn/2914" xlink:title="AS2914 ~ NTT America, Inc. [US]">
<ellipse fill="#ffffff" stroke="black" cx="288.431" cy="-504" rx="39.7935" ry="18"/>
<text text-anchor="middle" x="288.431" y="-500.3" font-family="Times,serif" font-size="14.00" fill="#2c94b3">AS2914</text>
</a>
</g>
</g>
<!-- AS3257&#45;&gt;AS2914 -->
<g id="edge6" class="edge"><title>AS3257&#45;&gt;AS2914</title>
<path fill="none" stroke="black" d="M191.202,-437.857C209.691,-450.565 236.505,-468.995 257.134,-483.175"/>
<polygon fill="black" stroke="black" points="255.331,-486.183 265.555,-488.963 259.296,-480.414 255.331,-486.183"/>
</g>
<!-- AS209 -->
<g id="node8" class="node"><title>AS209</title>
<g id="a_node8"><a xlink:href="/asn/209" xlink:title="AS209 ~ CenturyLink Communications, LLC [US]">
<ellipse fill="#ffffff" stroke="black" cx="288.431" cy="-450" rx="35.194" ry="18"/>
<text text-anchor="middle" x="288.431" y="-446.3" font-family="Times,serif" font-size="14.00" fill="#2c94b3">AS209</text>
</a>
</g>
</g>
<!-- AS3257&#45;&gt;AS209 -->
<g id="edge7" class="edge"><title>AS3257&#45;&gt;AS209</title>
<path fill="none" stroke="black" d="M204.308,-430.955C217.4,-433.955 232.422,-437.396 246.063,-440.522"/>
<polygon fill="black" stroke="black" points="245.641,-444.016 256.17,-442.838 247.204,-437.193 245.641,-444.016"/>
</g>
<!-- AS174 -->
<g id="node9" class="node"><title>AS174</title>
<g id="a_node9"><a xlink:href="/asn/174" xlink:title="AS174 ~ Cogent Communications [US]">
<ellipse fill="#ffffff" stroke="black" cx="288.431" cy="-396" rx="35.194" ry="18"/>
<text text-anchor="middle" x="288.431" y="-392.3" font-family="Times,serif" font-size="14.00" fill="#2c94b3">AS174</text>
</a>
</g>
</g>
<!-- AS3257&#45;&gt;AS174 -->
<g id="edge8" class="edge"><title>AS3257&#45;&gt;AS174</title>
<path fill="none" stroke="black" d="M204.308,-415.045C217.4,-412.045 232.422,-408.604 246.063,-405.478"/>
<polygon fill="black" stroke="black" points="247.204,-408.807 256.17,-403.162 245.641,-401.984 247.204,-408.807"/>
</g>
<!-- AS3491 -->
<g id="node10" class="node"><title>AS3491</title>
<g id="a_node10"><a xlink:href="/asn/3491" xlink:title="AS3491 ~ PCCW Global, Inc. [US]">
<ellipse fill="#ffffff" stroke="black" cx="288.431" cy="-342" rx="39.7935" ry="18"/>
<text text-anchor="middle" x="288.431" y="-338.3" font-family="Times,serif" font-size="14.00" fill="#2c94b3">AS3491</text>
</a>
</g>
</g>
<!-- AS3257&#45;&gt;AS3491 -->
<g id="edge9" class="edge"><title>AS3257&#45;&gt;AS3491</title>
<path fill="none" stroke="black" d="M191.202,-408.143C209.691,-395.435 236.505,-377.005 257.134,-362.825"/>
<polygon fill="black" stroke="black" points="259.296,-365.586 265.555,-357.037 255.331,-359.817 259.296,-365.586"/>
</g>
<!-- AS1239 -->
<g id="node11" class="node"><title>AS1239</title>
<g id="a_node11"><a xlink:href="/asn/1239" xlink:title="AS1239 ~ Sprint [US]">
<ellipse fill="#ffffff" stroke="black" cx="288.431" cy="-288" rx="39.7935" ry="18"/>
<text text-anchor="middle" x="288.431" y="-284.3" font-family="Times,serif" font-size="14.00" fill="#2c94b3">AS1239</text>
</a>
</g>
</g>
<!-- AS3257&#45;&gt;AS1239 -->
<g id="edge10" class="edge"><title>AS3257&#45;&gt;AS1239</title>
<path fill="none" stroke="black" d="M179.854,-405.56C193.662,-383.009 219.851,-343.278 248.784,-315 250.924,-312.908 253.242,-310.863 255.642,-308.894"/>
<polygon fill="black" stroke="black" points="258.152,-311.382 263.983,-302.536 253.908,-305.815 258.152,-311.382"/>
</g>
<!-- AS7018 -->
<g id="node12" class="node"><title>AS7018</title>
<g id="a_node12"><a xlink:href="/asn/7018" xlink:title="AS7018 ~ AT&amp;T Services, Inc. [US]">
<ellipse fill="#ffffff" stroke="black" cx="288.431" cy="-234" rx="39.7935" ry="18"/>
<text text-anchor="middle" x="288.431" y="-230.3" font-family="Times,serif" font-size="14.00" fill="#2c94b3">AS7018</text>
</a>
</g>
</g>
<!-- AS3257&#45;&gt;AS7018 -->
<g id="edge11" class="edge"><title>AS3257&#45;&gt;AS7018</title>
<path fill="none" stroke="black" d="M175.035,-405.009C185.349,-373.184 210.212,-306.073 248.784,-261 250.73,-258.726 252.908,-256.551 255.213,-254.493"/>
<polygon fill="black" stroke="black" points="257.75,-256.947 263.382,-247.973 253.383,-251.476 257.75,-256.947"/>
</g>
<!-- AS1299 -->
<g id="node13" class="node"><title>AS1299</title>
<g id="a_node13"><a xlink:href="/asn/1299" xlink:title="AS1299 ~ Telia Carrier [EU]">
<ellipse fill="#ffffff" stroke="black" cx="288.431" cy="-180" rx="39.7935" ry="18"/>
<text text-anchor="middle" x="288.431" y="-176.3" font-family="Times,serif" font-size="14.00" fill="#2c94b3">AS1299</text>
</a>
</g>
</g>
<!-- AS21385&#45;&gt;AS1299 -->
<g id="edge12" class="edge"><title>AS21385&#45;&gt;AS1299</title>
<path fill="none" stroke="black" d="M198.718,-139.348C214.329,-146.502 233.727,-155.391 250.399,-163.03"/>
<polygon fill="black" stroke="black" points="249.302,-166.378 259.851,-167.362 252.218,-160.014 249.302,-166.378"/>
</g>
<!-- AS3356 -->
<g id="node14" class="node"><title>AS3356</title>
<g id="a_node14"><a xlink:href="/asn/3356" xlink:title="AS3356 ~ LEVEL3 [US]">
<ellipse fill="#ffffff" stroke="black" cx="288.431" cy="-126" rx="39.7935" ry="18"/>
<text text-anchor="middle" x="288.431" y="-122.3" font-family="Times,serif" font-size="14.00" fill="#2c94b3">AS3356</text>
</a>
</g>
</g>
<!-- AS21385&#45;&gt;AS3356 -->
<g id="edge13" class="edge"><title>AS21385&#45;&gt;AS3356</title>
<path fill="none" stroke="black" stroke-width="2" d="M212.799,-126C221.112,-126 229.875,-126 238.357,-126"/>
<polygon fill="black" stroke="black" stroke-width="2" points="238.516,-129.5 248.516,-126 238.516,-122.5 238.516,-129.5"/>
</g>
<!-- AS6461 -->
<g id="node15" class="node"><title>AS6461</title>
<g id="a_node15"><a xlink:href="/asn/6461" xlink:title="AS6461 ~ Zayo Bandwidth [US]">
<ellipse fill="#ffffff" stroke="black" cx="288.431" cy="-72" rx="39.7935" ry="18"/>
<text text-anchor="middle" x="288.431" y="-68.3" font-family="Times,serif" font-size="14.00" fill="#2c94b3">AS6461</text>
</a>
</g>
</g>
<!-- AS21385&#45;&gt;AS6461 -->
<g id="edge14" class="edge"><title>AS21385&#45;&gt;AS6461</title>
<path fill="none" stroke="black" d="M198.718,-112.652C214.329,-105.498 233.727,-96.6093 250.399,-88.9695"/>
<polygon fill="black" stroke="black" points="252.218,-91.986 259.851,-84.6382 249.302,-85.6223 252.218,-91.986"/>
</g>
<!-- AS3320 -->
<g id="node16" class="node"><title>AS3320</title>
<g id="a_node16"><a xlink:href="/asn/3320" xlink:title="AS3320 ~ DTAG [DE]">
<ellipse fill="#ffffff" stroke="black" cx="288.431" cy="-18" rx="39.7935" ry="18"/>
<text text-anchor="middle" x="288.431" y="-14.3" font-family="Times,serif" font-size="14.00" fill="#2c94b3">AS3320</text>
</a>
</g>
</g>
<!-- AS21385&#45;&gt;AS3320 -->
<g id="edge15" class="edge"><title>AS21385&#45;&gt;AS3320</title>
<path fill="none" stroke="black" stroke-width="2" d="M184.521,-108.956C199.847,-91.9029 224.782,-65.3497 248.784,-45 251.281,-42.8828 253.942,-40.7681 256.653,-38.7067"/>
<polygon fill="black" stroke="black" stroke-width="2" points="258.819,-41.4588 264.83,-32.7336 254.69,-35.8064 258.819,-41.4588"/>
</g>
<!-- AS3549 -->
<g id="node18" class="node"><title>AS3549</title>
<g id="a_node18"><a xlink:href="/asn/3549" xlink:title="AS3549 ~ Level 3 Parent, LLC [US]">
<ellipse fill="#ffffff" stroke="black" cx="403.724" cy="-126" rx="39.7935" ry="18"/>
<text text-anchor="middle" x="403.724" y="-122.3" font-family="Times,serif" font-size="14.00" fill="#2c94b3">AS3549</text>
</a>
</g>
</g>
<!-- AS3356&#45;&gt;AS3549 -->
<g id="edge17" class="edge"><title>AS3356&#45;&gt;AS3549</title>
<path fill="none" stroke="black" d="M328.103,-126C336.306,-126 345.07,-126 353.602,-126"/>
<polygon fill="black" stroke="black" points="353.841,-129.5 363.841,-126 353.841,-122.5 353.841,-129.5"/>
</g>
<!-- AS701 -->
<g id="node17" class="node"><title>AS701</title>
<g id="a_node17"><a xlink:href="/asn/701" xlink:title="AS701 ~ UUNET [US]">
<ellipse fill="#ffffff" stroke="black" cx="403.724" cy="-18" rx="35.194" ry="18"/>
<text text-anchor="middle" x="403.724" y="-14.3" font-family="Times,serif" font-size="14.00" fill="#2c94b3">AS701</text>
</a>
</g>
</g>
<!-- AS3320&#45;&gt;AS701 -->
<g id="edge16" class="edge"><title>AS3320&#45;&gt;AS701</title>
<path fill="none" stroke="black" d="M328.103,-18C337.808,-18 348.299,-18 358.262,-18"/>
<polygon fill="black" stroke="black" points="358.398,-21.5001 368.398,-18 358.398,-14.5001 358.398,-21.5001"/>
</g>
</g>
</svg>
