<?xml version="1.0" encoding="UTF-8" standalone="no"?>
<!DOCTYPE svg PUBLIC "-//W3C//DTD SVG 1.1//EN"
 "http://www.w3.org/Graphics/SVG/1.1/DTD/svg11.dtd">
<!-- Generated by graphviz version 2.38.0 (20140413.2041)
 -->
<!-- Title: AS48339 Combined Upstream Graph Pages: 1 -->
<svg width="460pt" height="875pt"
 viewBox="0.00 0.00 460.47 875.11" xmlns="http://www.w3.org/2000/svg" xmlns:xlink="http://www.w3.org/1999/xlink">
<g id="graph0" class="graph" transform="scale(1 1) rotate(0) translate(4 871.114)">
<title>AS48339 Combined Upstream Graph</title>
<polygon fill="white" stroke="none" points="-4,4 -4,-871.114 456.469,-871.114 456.469,4 -4,4"/>
<!-- AS48339 -->
<g id="node1" class="node"><title>AS48339</title>
<g id="a_node1"><a xlink:href="/asn/48339" xlink:title="AS48339 ~ Raiffeisen Rechenzentrum GmbH [AT]">
<ellipse fill="#ffffff" stroke="black" cx="44.1961" cy="-430.525" rx="44.393" ry="18"/>
<text text-anchor="middle" x="44.1961" y="-426.825" font-family="Times,serif" font-size="14.00" fill="#880000">AS48339</text>
</a>
</g>
</g>
<!-- AS3257 -->
<g id="node2" class="node"><title>AS3257</title>
<g id="a_node2"><a xlink:href="/asn/3257" xlink:title="AS3257 ~ GTT [DE]">
<ellipse fill="#ffffff" stroke="black" cx="168.588" cy="-530.525" rx="39.7935" ry="18"/>
<text text-anchor="middle" x="168.588" y="-526.825" font-family="Times,serif" font-size="14.00" fill="#2c94b3">AS3257</text>
</a>
</g>
</g>
<!-- AS48339&#45;&gt;AS3257 -->
<g id="edge1" class="edge"><title>AS48339&#45;&gt;AS3257</title>
<path fill="none" stroke="black" stroke-width="3.64286" d="M64.8605,-446.592C85.3225,-463.31 117.514,-489.612 140.403,-508.314"/>
<polygon fill="black" stroke="black" stroke-width="3.64286" points="138.418,-511.211 148.376,-514.828 142.847,-505.791 138.418,-511.211"/>
</g>
<!-- AS8220 -->
<g id="node3" class="node"><title>AS8220</title>
<g id="a_node3"><a xlink:href="/asn/8220" xlink:title="AS8220 ~ COLT [GB]">
<ellipse fill="#ffffff" stroke="black" cx="168.588" cy="-285.525" rx="39.7935" ry="18"/>
<text text-anchor="middle" x="168.588" y="-281.825" font-family="Times,serif" font-size="14.00" fill="#2c94b3">AS8220</text>
</a>
</g>
</g>
<!-- AS48339&#45;&gt;AS8220 -->
<g id="edge2" class="edge"><title>AS48339&#45;&gt;AS8220</title>
<path fill="none" stroke="black" stroke-width="1.71429" d="M59.4755,-413.608C81.0325,-388.069 122.001,-339.533 146.848,-310.096"/>
<polygon fill="black" stroke="black" stroke-width="1.71429" points="149.624,-312.234 153.4,-302.335 144.275,-307.719 149.624,-312.234"/>
</g>
<!-- AS24864 -->
<g id="node4" class="node"><title>AS24864</title>
<g id="a_node4"><a xlink:href="/asn/24864" xlink:title="AS24864 ~ Raiffeisen Informatik GmbH [AT]">
<ellipse fill="#ffffff" stroke="black" cx="168.588" cy="-430.525" rx="44.393" ry="18"/>
<text text-anchor="middle" x="168.588" y="-426.825" font-family="Times,serif" font-size="14.00" fill="#2c94b3">AS24864</text>
</a>
</g>
</g>
<!-- AS48339&#45;&gt;AS24864 -->
<g id="edge3" class="edge"><title>AS48339&#45;&gt;AS24864</title>
<path fill="none" stroke="black" stroke-width="4.5" d="M88.6916,-430.525C96.898,-430.525 105.569,-430.525 114.041,-430.525"/>
<polygon fill="black" stroke="black" stroke-width="4.5" points="114.233,-434.463 124.233,-430.525 114.233,-426.588 114.233,-434.463"/>
</g>
<!-- AS3356 -->
<g id="node5" class="node"><title>AS3356</title>
<g id="a_node5"><a xlink:href="/asn/3356" xlink:title="AS3356 ~ Level 3 Parent, LLC [US]">
<ellipse fill="#ffffff" stroke="black" cx="288.431" cy="-430.525" rx="39.7935" ry="18"/>
<text text-anchor="middle" x="288.431" y="-426.825" font-family="Times,serif" font-size="14.00" fill="#2c94b3">AS3356</text>
</a>
</g>
</g>
<!-- AS3257&#45;&gt;AS3356 -->
<g id="edge4" class="edge"><title>AS3257&#45;&gt;AS3356</title>
<path fill="none" stroke="black" stroke-width="2" d="M185.994,-514.179C201.616,-498.915 226.052,-475.806 248.784,-457.525 251.336,-455.474 254.033,-453.404 256.769,-451.372"/>
<polygon fill="black" stroke="black" stroke-width="2" points="258.922,-454.135 264.983,-445.445 254.826,-448.458 258.922,-454.135"/>
</g>
<!-- AS7018 -->
<g id="node6" class="node"><title>AS7018</title>
<g id="a_node6"><a xlink:href="/asn/7018" xlink:title="AS7018 ~ AT&amp;T Services, Inc. [US]">
<ellipse fill="#ffffff" stroke="black" cx="408.273" cy="-772.525" rx="39.7935" ry="18"/>
<text text-anchor="middle" x="408.273" y="-768.825" font-family="Times,serif" font-size="14.00" fill="#2c94b3">AS7018</text>
</a>
</g>
</g>
<!-- AS3257&#45;&gt;AS7018 -->
<g id="edge5" class="edge"><title>AS3257&#45;&gt;AS7018</title>
<path fill="none" stroke="black" d="M174.084,-548.585C183.096,-581.468 206.241,-651.663 248.784,-694.525 280.933,-726.915 329.26,-748.005 364.093,-759.988"/>
<polygon fill="black" stroke="black" points="363.392,-763.443 373.985,-763.273 365.598,-756.8 363.392,-763.443"/>
</g>
<!-- AS6453 -->
<g id="node7" class="node"><title>AS6453</title>
<g id="a_node7"><a xlink:href="/asn/6453" xlink:title="AS6453 ~ TATA COMMUNICATIONS (AMERICA) INC [US]">
<ellipse fill="#ffffff" stroke="black" cx="408.273" cy="-269.525" rx="39.7935" ry="18"/>
<text text-anchor="middle" x="408.273" y="-265.825" font-family="Times,serif" font-size="14.00" fill="#2c94b3">AS6453</text>
</a>
</g>
</g>
<!-- AS3257&#45;&gt;AS6453 -->
<g id="edge6" class="edge"><title>AS3257&#45;&gt;AS6453</title>
<path fill="none" stroke="black" d="M181.588,-513.21C191.114,-498.831 204.212,-477.563 212.784,-457.525 236.028,-403.192 208.87,-373.105 248.784,-329.525 277.451,-298.226 324.138,-283.149 359.432,-275.951"/>
<polygon fill="black" stroke="black" points="360.348,-279.34 369.523,-274.041 359.046,-272.462 360.348,-279.34"/>
</g>
<!-- AS2497 -->
<g id="node8" class="node"><title>AS2497</title>
<g id="a_node8"><a xlink:href="/asn/2497" xlink:title="AS2497 ~ Internet Initiative Japan Inc. [JP]">
<ellipse fill="#ffffff" stroke="black" cx="408.273" cy="-713.525" rx="39.7935" ry="18"/>
<text text-anchor="middle" x="408.273" y="-709.825" font-family="Times,serif" font-size="14.00" fill="#2c94b3">AS2497</text>
</a>
</g>
</g>
<!-- AS3257&#45;&gt;AS2497 -->
<g id="edge7" class="edge"><title>AS3257&#45;&gt;AS2497</title>
<path fill="none" stroke="black" d="M175.548,-548.261C185.945,-576.542 210.058,-631.79 248.784,-662.525 280.793,-687.929 325.784,-700.828 359.656,-707.287"/>
<polygon fill="black" stroke="black" points="359.325,-710.783 369.784,-709.091 360.553,-703.891 359.325,-710.783"/>
</g>
<!-- AS12956 -->
<g id="node9" class="node"><title>AS12956</title>
<g id="a_node9"><a xlink:href="/asn/12956" xlink:title="AS12956 ~ TELXIUS [ES]">
<ellipse fill="#ffffff" stroke="black" cx="408.273" cy="-323.525" rx="44.393" ry="18"/>
<text text-anchor="middle" x="408.273" y="-319.825" font-family="Times,serif" font-size="14.00" fill="#2c94b3">AS12956</text>
</a>
</g>
</g>
<!-- AS3257&#45;&gt;AS12956 -->
<g id="edge8" class="edge"><title>AS3257&#45;&gt;AS12956</title>
<path fill="none" stroke="black" d="M180.715,-513.182C189.851,-498.611 202.855,-477.092 212.784,-457.525 231.165,-421.305 218.673,-400.786 248.784,-373.525 277.86,-347.202 320.746,-334.736 354.577,-328.833"/>
<polygon fill="black" stroke="black" points="355.438,-332.24 364.76,-327.204 354.332,-325.328 355.438,-332.24"/>
</g>
<!-- AS6762 -->
<g id="node10" class="node"><title>AS6762</title>
<g id="a_node10"><a xlink:href="/asn/6762" xlink:title="AS6762 ~ TELECOM ITALIA SPARKLE S.p.A. [IT]">
<ellipse fill="#ffffff" stroke="black" cx="408.273" cy="-539.525" rx="39.7935" ry="18"/>
<text text-anchor="middle" x="408.273" y="-535.825" font-family="Times,serif" font-size="14.00" fill="#2c94b3">AS6762</text>
</a>
</g>
</g>
<!-- AS3257&#45;&gt;AS6762 -->
<g id="edge9" class="edge"><title>AS3257&#45;&gt;AS6762</title>
<path fill="none" stroke="black" d="M181.854,-547.71C195.751,-565.547 220.219,-592.368 248.784,-603.525 281.611,-616.347 295.612,-617.234 328.077,-603.525 349.214,-594.6 346.22,-580.932 364.077,-566.525 367.329,-563.902 370.853,-561.326 374.436,-558.872"/>
<polygon fill="black" stroke="black" points="376.355,-561.799 382.807,-553.395 372.523,-555.941 376.355,-561.799"/>
</g>
<!-- AS3320 -->
<g id="node11" class="node"><title>AS3320</title>
<g id="a_node11"><a xlink:href="/asn/3320" xlink:title="AS3320 ~ DTAG [DE]">
<ellipse fill="#ffffff" stroke="black" cx="288.431" cy="-820.525" rx="39.7935" ry="18"/>
<text text-anchor="middle" x="288.431" y="-816.825" font-family="Times,serif" font-size="14.00" fill="#2c94b3">AS3320</text>
</a>
</g>
</g>
<!-- AS3257&#45;&gt;AS3320 -->
<g id="edge10" class="edge"><title>AS3257&#45;&gt;AS3320</title>
<path fill="none" stroke="black" d="M171.536,-548.621C177.03,-592.966 195.854,-709.218 248.784,-788.525 251.3,-792.295 254.39,-795.855 257.716,-799.133"/>
<polygon fill="black" stroke="black" points="255.449,-801.801 265.245,-805.835 260.103,-796.572 255.449,-801.801"/>
</g>
<!-- AS1239 -->
<g id="node12" class="node"><title>AS1239</title>
<g id="a_node12"><a xlink:href="/asn/1239" xlink:title="AS1239 ~ Sprint [US]">
<ellipse fill="#ffffff" stroke="black" cx="408.273" cy="-847.525" rx="39.7935" ry="18"/>
<text text-anchor="middle" x="408.273" y="-843.825" font-family="Times,serif" font-size="14.00" fill="#2c94b3">AS1239</text>
</a>
</g>
</g>
<!-- AS3257&#45;&gt;AS1239 -->
<g id="edge11" class="edge"><title>AS3257&#45;&gt;AS1239</title>
<path fill="none" stroke="black" d="M171.248,-548.563C177.314,-610.065 200.498,-809.819 248.784,-847.525 281.55,-873.112 330.844,-868.497 365.744,-860.417"/>
<polygon fill="black" stroke="black" points="366.775,-863.768 375.629,-857.949 365.079,-856.976 366.775,-863.768"/>
</g>
<!-- AS3491 -->
<g id="node13" class="node"><title>AS3491</title>
<g id="a_node13"><a xlink:href="/asn/3491" xlink:title="AS3491 ~ PCCW Global, Inc. [US]">
<ellipse fill="#ffffff" stroke="black" cx="408.273" cy="-485.525" rx="39.7935" ry="18"/>
<text text-anchor="middle" x="408.273" y="-481.825" font-family="Times,serif" font-size="14.00" fill="#2c94b3">AS3491</text>
</a>
</g>
</g>
<!-- AS3257&#45;&gt;AS3491 -->
<g id="edge12" class="edge"><title>AS3257&#45;&gt;AS3491</title>
<path fill="none" stroke="black" d="M208.054,-528.054C240.373,-525.469 287.63,-520.496 328.077,-511.525 341.12,-508.633 355.056,-504.445 367.543,-500.272"/>
<polygon fill="black" stroke="black" points="368.882,-503.513 377.203,-496.954 366.608,-496.893 368.882,-503.513"/>
</g>
<!-- AS174 -->
<g id="node14" class="node"><title>AS174</title>
<g id="a_node14"><a xlink:href="/asn/174" xlink:title="AS174 ~ Cogent Communications [US]">
<ellipse fill="#ffffff" stroke="black" cx="408.273" cy="-593.525" rx="35.194" ry="18"/>
<text text-anchor="middle" x="408.273" y="-589.825" font-family="Times,serif" font-size="14.00" fill="#2c94b3">AS174</text>
</a>
</g>
</g>
<!-- AS3257&#45;&gt;AS174 -->
<g id="edge13" class="edge"><title>AS3257&#45;&gt;AS174</title>
<path fill="none" stroke="black" d="M178.766,-548.284C191.235,-570.231 215.81,-606.509 248.784,-621.525 289.287,-639.97 340.742,-624.624 373.842,-610.395"/>
<polygon fill="black" stroke="black" points="375.39,-613.536 383.079,-606.247 372.523,-607.15 375.39,-613.536"/>
</g>
<!-- AS701 -->
<g id="node15" class="node"><title>AS701</title>
<g id="a_node15"><a xlink:href="/asn/701" xlink:title="AS701 ~ UUNET [US]">
<ellipse fill="#ffffff" stroke="black" cx="408.273" cy="-649.525" rx="35.194" ry="18"/>
<text text-anchor="middle" x="408.273" y="-645.825" font-family="Times,serif" font-size="14.00" fill="#2c94b3">AS701</text>
</a>
</g>
</g>
<!-- AS3257&#45;&gt;AS701 -->
<g id="edge14" class="edge"><title>AS3257&#45;&gt;AS701</title>
<path fill="none" stroke="black" d="M176.629,-548.278C187.725,-573.592 211.89,-619.239 248.784,-639.525 284.253,-659.028 331.165,-659.45 364.73,-656.263"/>
<polygon fill="black" stroke="black" points="365.13,-659.74 374.691,-655.175 364.37,-652.782 365.13,-659.74"/>
</g>
<!-- AS6461 -->
<g id="node16" class="node"><title>AS6461</title>
<g id="a_node16"><a xlink:href="/asn/6461" xlink:title="AS6461 ~ Zayo Bandwidth [US]">
<ellipse fill="#ffffff" stroke="black" cx="408.273" cy="-94.5254" rx="39.7935" ry="18"/>
<text text-anchor="middle" x="408.273" y="-90.8254" font-family="Times,serif" font-size="14.00" fill="#2c94b3">AS6461</text>
</a>
</g>
</g>
<!-- AS3257&#45;&gt;AS6461 -->
<g id="edge15" class="edge"><title>AS3257&#45;&gt;AS6461</title>
<path fill="none" stroke="black" d="M182.329,-513.497C192.285,-499.285 205.599,-478.102 212.784,-457.525 251.243,-347.389 186.221,-295.988 248.784,-197.525 276.41,-154.048 329.746,-125.163 366.876,-109.322"/>
<polygon fill="black" stroke="black" points="368.503,-112.436 376.412,-105.386 365.833,-105.966 368.503,-112.436"/>
</g>
<!-- AS2914 -->
<g id="node17" class="node"><title>AS2914</title>
<g id="a_node17"><a xlink:href="/asn/2914" xlink:title="AS2914 ~ NTT America, Inc. [US]">
<ellipse fill="#ffffff" stroke="black" cx="408.273" cy="-377.525" rx="39.7935" ry="18"/>
<text text-anchor="middle" x="408.273" y="-373.825" font-family="Times,serif" font-size="14.00" fill="#2c94b3">AS2914</text>
</a>
</g>
</g>
<!-- AS3257&#45;&gt;AS2914 -->
<g id="edge16" class="edge"><title>AS3257&#45;&gt;AS2914</title>
<path fill="none" stroke="black" d="M179.882,-513.189C200.1,-479.256 243.501,-407.047 248.784,-403.525 281.165,-381.943 325.344,-376.165 358.833,-375.374"/>
<polygon fill="black" stroke="black" points="358.893,-378.874 368.859,-375.277 358.825,-371.874 358.893,-378.874"/>
</g>
<!-- AS209 -->
<g id="node18" class="node"><title>AS209</title>
<g id="a_node18"><a xlink:href="/asn/209" xlink:title="AS209 ~ CenturyLink Communications, LLC [US]">
<ellipse fill="#ffffff" stroke="black" cx="288.431" cy="-576.525" rx="35.194" ry="18"/>
<text text-anchor="middle" x="288.431" y="-572.825" font-family="Times,serif" font-size="14.00" fill="#2c94b3">AS209</text>
</a>
</g>
</g>
<!-- AS3257&#45;&gt;AS209 -->
<g id="edge17" class="edge"><title>AS3257&#45;&gt;AS209</title>
<path fill="none" stroke="black" d="M199.325,-542.133C214.942,-548.229 234.219,-555.754 250.755,-562.209"/>
<polygon fill="black" stroke="black" points="249.539,-565.491 260.127,-565.867 252.084,-558.971 249.539,-565.491"/>
</g>
<!-- AS1299 -->
<g id="node19" class="node"><title>AS1299</title>
<g id="a_node19"><a xlink:href="/asn/1299" xlink:title="AS1299 ~ Telia Carrier [EU]">
<ellipse fill="#ffffff" stroke="black" cx="288.431" cy="-484.525" rx="39.7935" ry="18"/>
<text text-anchor="middle" x="288.431" y="-480.825" font-family="Times,serif" font-size="14.00" fill="#2c94b3">AS1299</text>
</a>
</g>
</g>
<!-- AS3257&#45;&gt;AS1299 -->
<g id="edge18" class="edge"><title>AS3257&#45;&gt;AS1299</title>
<path fill="none" stroke="black" d="M192.589,-516.066C206.699,-509.407 225.253,-501.797 242.206,-495.594"/>
<polygon fill="black" stroke="black" points="243.71,-498.774 251.957,-492.122 241.362,-492.179 243.71,-498.774"/>
</g>
<!-- AS8220&#45;&gt;AS3356 -->
<g id="edge29" class="edge"><title>AS8220&#45;&gt;AS3356</title>
<path fill="none" stroke="black" stroke-width="2" d="M183.337,-302.443C204.093,-327.981 243.538,-376.517 267.462,-405.955"/>
<polygon fill="black" stroke="black" stroke-width="2" points="264.747,-408.163 273.77,-413.716 270.179,-403.748 264.747,-408.163"/>
</g>
<!-- AS8220&#45;&gt;AS6453 -->
<g id="edge30" class="edge"><title>AS8220&#45;&gt;AS6453</title>
<path fill="none" stroke="black" d="M179.142,-267.965C191.841,-246.689 216.49,-211.908 248.784,-197.525 280.977,-183.187 295.207,-184.817 328.077,-197.525 352.504,-206.969 374.039,-227.837 388.462,-244.688"/>
<polygon fill="black" stroke="black" points="385.894,-247.076 394.953,-252.57 391.298,-242.626 385.894,-247.076"/>
</g>
<!-- AS8220&#45;&gt;AS6461 -->
<g id="edge32" class="edge"><title>AS8220&#45;&gt;AS6461</title>
<path fill="none" stroke="black" d="M172.051,-267.35C180.011,-211.6 206.986,-44.8894 248.784,-13.5254 276.972,7.62596 295.595,0.143973 328.077,-13.5254 354.644,-24.7053 376.748,-49.631 390.792,-68.9001"/>
<polygon fill="black" stroke="black" points="388.062,-71.1024 396.665,-77.2858 393.795,-67.0869 388.062,-71.1024"/>
</g>
<!-- AS8220&#45;&gt;AS2914 -->
<g id="edge33" class="edge"><title>AS8220&#45;&gt;AS2914</title>
<path fill="none" stroke="black" d="M199.211,-296.991C241.849,-313.495 320.596,-343.975 368.03,-362.335"/>
<polygon fill="black" stroke="black" points="367.063,-365.714 377.652,-366.06 369.59,-359.186 367.063,-365.714"/>
</g>
<!-- AS8220&#45;&gt;AS1299 -->
<g id="edge28" class="edge"><title>AS8220&#45;&gt;AS1299</title>
<path fill="none" stroke="black" d="M174.448,-303.581C184.123,-336.939 208.409,-409.223 248.784,-457.525 250.654,-459.763 252.752,-461.9 254.979,-463.922"/>
<polygon fill="black" stroke="black" points="252.922,-466.76 262.897,-470.33 257.325,-461.319 252.922,-466.76"/>
</g>
<!-- AS5511 -->
<g id="node21" class="node"><title>AS5511</title>
<g id="a_node21"><a xlink:href="/asn/5511" xlink:title="AS5511 ~ Orange S.A. [FR]">
<ellipse fill="#ffffff" stroke="black" cx="288.431" cy="-40.5254" rx="39.7935" ry="18"/>
<text text-anchor="middle" x="288.431" y="-36.8254" font-family="Times,serif" font-size="14.00" fill="#2c94b3">AS5511</text>
</a>
</g>
</g>
<!-- AS8220&#45;&gt;AS5511 -->
<g id="edge31" class="edge"><title>AS8220&#45;&gt;AS5511</title>
<path fill="none" stroke="black" d="M172.361,-267.369C179.2,-227.56 199.989,-131.087 248.784,-67.5254 250.56,-65.2125 252.59,-63.0205 254.769,-60.9605"/>
<polygon fill="black" stroke="black" points="257.125,-63.5532 262.598,-54.4813 252.663,-58.1602 257.125,-63.5532"/>
</g>
<!-- AS6939 -->
<g id="node22" class="node"><title>AS6939</title>
<g id="a_node22"><a xlink:href="/asn/6939" xlink:title="AS6939 ~ Hurricane Electric LLC [US]">
<ellipse fill="#ffffff" stroke="black" cx="288.431" cy="-224.525" rx="39.7935" ry="18"/>
<text text-anchor="middle" x="288.431" y="-220.825" font-family="Times,serif" font-size="14.00" fill="#2c94b3">AS6939</text>
</a>
</g>
</g>
<!-- AS8220&#45;&gt;AS6939 -->
<g id="edge34" class="edge"><title>AS8220&#45;&gt;AS6939</title>
<path fill="none" stroke="black" d="M195.449,-272.139C212.258,-263.438 234.373,-251.99 252.706,-242.5"/>
<polygon fill="black" stroke="black" points="254.358,-245.586 261.63,-237.881 251.14,-239.37 254.358,-245.586"/>
</g>
<!-- AS24864&#45;&gt;AS3356 -->
<g id="edge36" class="edge"><title>AS24864&#45;&gt;AS3356</title>
<path fill="none" stroke="black" stroke-width="4.5" d="M212.799,-430.525C221.112,-430.525 229.875,-430.525 238.357,-430.525"/>
<polygon fill="black" stroke="black" stroke-width="4.5" points="238.516,-434.463 248.516,-430.525 238.516,-426.588 238.516,-434.463"/>
</g>
<!-- AS24864&#45;&gt;AS1299 -->
<g id="edge35" class="edge"><title>AS24864&#45;&gt;AS1299</title>
<path fill="none" stroke="black" stroke-width="4.5" d="M198.718,-443.874C214.329,-451.027 233.727,-459.916 250.399,-467.556"/>
<polygon fill="black" stroke="black" stroke-width="4.5" points="249.119,-471.301 259.851,-471.887 252.4,-464.142 249.119,-471.301"/>
</g>
<!-- AS8218 -->
<g id="node23" class="node"><title>AS8218</title>
<g id="a_node23"><a xlink:href="/asn/8218" xlink:title="AS8218 ~ legacy Neotelecoms [FR]">
<ellipse fill="#ffffff" stroke="black" cx="288.431" cy="-94.5254" rx="39.7935" ry="18"/>
<text text-anchor="middle" x="288.431" y="-90.8254" font-family="Times,serif" font-size="14.00" fill="#2c94b3">AS8218</text>
</a>
</g>
</g>
<!-- AS24864&#45;&gt;AS8218 -->
<g id="edge37" class="edge"><title>AS24864&#45;&gt;AS8218</title>
<path fill="none" stroke="black" stroke-width="0.45" d="M176.808,-412.745C185.948,-389.831 201.82,-348.639 212.784,-312.525 232.451,-247.749 224.208,-227.602 248.784,-164.525 254.705,-149.329 263.331,-133.338 270.932,-120.482"/>
<polygon fill="black" stroke="black" stroke-width="0.45" points="274.045,-122.098 276.232,-111.731 268.058,-118.471 274.045,-122.098"/>
</g>
<!-- AS3356&#45;&gt;AS6453 -->
<g id="edge23" class="edge"><title>AS3356&#45;&gt;AS6453</title>
<path fill="none" stroke="black" d="M295.987,-412.666C306.782,-385.141 330.497,-331.842 364.077,-296.525 366.667,-293.802 369.588,-291.238 372.658,-288.856"/>
<polygon fill="black" stroke="black" points="374.836,-291.604 381.009,-282.993 370.813,-285.875 374.836,-291.604"/>
</g>
<!-- AS3356&#45;&gt;AS2497 -->
<g id="edge22" class="edge"><title>AS3356&#45;&gt;AS2497</title>
<path fill="none" stroke="black" d="M314.965,-443.992C320.01,-447.744 324.763,-452.262 328.077,-457.525 380.637,-540.996 315.69,-590.569 364.077,-676.525 367.32,-682.285 371.82,-687.562 376.698,-692.216"/>
<polygon fill="black" stroke="black" points="374.693,-695.108 384.549,-698.995 379.267,-689.81 374.693,-695.108"/>
</g>
<!-- AS3356&#45;&gt;AS12956 -->
<g id="edge20" class="edge"><title>AS3356&#45;&gt;AS12956</title>
<path fill="none" stroke="black" d="M302.89,-413.687C317.037,-396.604 340.477,-369.977 364.077,-350.525 366.905,-348.195 369.949,-345.911 373.066,-343.72"/>
<polygon fill="black" stroke="black" points="375.009,-346.632 381.384,-338.17 371.123,-340.809 375.009,-346.632"/>
</g>
<!-- AS3356&#45;&gt;AS6762 -->
<g id="edge25" class="edge"><title>AS3356&#45;&gt;AS6762</title>
<path fill="none" stroke="black" d="M313.053,-444.888C318.308,-448.647 323.632,-452.943 328.077,-457.525 348.421,-478.494 343.204,-492.084 364.077,-512.525 366.911,-515.3 370.077,-517.931 373.373,-520.384"/>
<polygon fill="black" stroke="black" points="371.486,-523.334 381.715,-526.093 375.439,-517.557 371.486,-523.334"/>
</g>
<!-- AS3356&#45;&gt;AS3491 -->
<g id="edge24" class="edge"><title>AS3356&#45;&gt;AS3491</title>
<path fill="none" stroke="black" d="M316.762,-443.282C332.826,-450.779 353.336,-460.351 370.769,-468.488"/>
<polygon fill="black" stroke="black" points="369.548,-471.78 380.09,-472.838 372.509,-465.437 369.548,-471.78"/>
</g>
<!-- AS3356&#45;&gt;AS174 -->
<g id="edge26" class="edge"><title>AS3356&#45;&gt;AS174</title>
<path fill="none" stroke="black" d="M314.372,-444.399C319.447,-448.129 324.363,-452.536 328.077,-457.525 358.545,-498.447 332.573,-526.396 364.077,-566.525 366.719,-569.89 369.905,-572.948 373.335,-575.694"/>
<polygon fill="black" stroke="black" points="371.446,-578.645 381.64,-581.534 375.473,-572.918 371.446,-578.645"/>
</g>
<!-- AS3356&#45;&gt;AS701 -->
<g id="edge27" class="edge"><title>AS3356&#45;&gt;AS701</title>
<path fill="none" stroke="black" d="M314.755,-444.129C319.81,-447.873 324.621,-452.354 328.077,-457.525 369.303,-519.207 322.281,-559.229 364.077,-620.525 366.797,-624.513 370.263,-628.1 374.046,-631.279"/>
<polygon fill="black" stroke="black" points="371.991,-634.113 382.117,-637.23 376.145,-628.479 371.991,-634.113"/>
</g>
<!-- AS3356&#45;&gt;AS2914 -->
<g id="edge21" class="edge"><title>AS3356&#45;&gt;AS2914</title>
<path fill="none" stroke="black" d="M317.358,-417.965C333.208,-410.837 353.241,-401.827 370.373,-394.122"/>
<polygon fill="black" stroke="black" points="371.862,-397.289 379.547,-389.995 368.991,-390.905 371.862,-397.289"/>
</g>
<!-- AS3549 -->
<g id="node20" class="node"><title>AS3549</title>
<g id="a_node20"><a xlink:href="/asn/3549" xlink:title="AS3549 ~ Level 3 Parent, LLC [US]">
<ellipse fill="#ffffff" stroke="black" cx="408.273" cy="-431.525" rx="39.7935" ry="18"/>
<text text-anchor="middle" x="408.273" y="-427.825" font-family="Times,serif" font-size="14.00" fill="#2c94b3">AS3549</text>
</a>
</g>
</g>
<!-- AS3356&#45;&gt;AS3549 -->
<g id="edge19" class="edge"><title>AS3356&#45;&gt;AS3549</title>
<path fill="none" stroke="black" stroke-width="3" d="M328.343,-430.856C337.897,-430.937 348.246,-431.024 358.209,-431.109"/>
<polygon fill="black" stroke="black" stroke-width="3" points="358.372,-434.61 368.402,-431.196 358.432,-427.611 358.372,-434.61"/>
</g>
<!-- AS1299&#45;&gt;AS3257 -->
<g id="edge46" class="edge"><title>AS1299&#45;&gt;AS3257</title>
<path fill="none" stroke="black" d="M264.382,-499.008C250.246,-505.676 231.664,-513.295 214.7,-519.498"/>
<polygon fill="black" stroke="black" points="213.193,-516.32 204.945,-522.969 215.54,-522.915 213.193,-516.32"/>
</g>
<!-- AS1299&#45;&gt;AS7018 -->
<g id="edge40" class="edge"><title>AS1299&#45;&gt;AS7018</title>
<path fill="none" stroke="black" d="M301.858,-501.608C310.474,-514.25 321.533,-532.209 328.077,-549.525 358.617,-630.33 318.21,-667.325 364.077,-740.525 366.725,-744.752 370.15,-748.608 373.912,-752.064"/>
<polygon fill="black" stroke="black" points="371.992,-755.013 381.966,-758.588 376.398,-749.574 371.992,-755.013"/>
</g>
<!-- AS1299&#45;&gt;AS6453 -->
<g id="edge45" class="edge"><title>AS1299&#45;&gt;AS6453</title>
<path fill="none" stroke="black" d="M314.745,-470.915C319.801,-467.171 324.614,-462.692 328.077,-457.525 368.901,-396.618 321.709,-356.368 364.077,-296.525 366.07,-293.71 368.459,-291.126 371.075,-288.769"/>
<polygon fill="black" stroke="black" points="373.628,-291.223 379.445,-282.368 369.376,-285.662 373.628,-291.223"/>
</g>
<!-- AS1299&#45;&gt;AS12956 -->
<g id="edge41" class="edge"><title>AS1299&#45;&gt;AS12956</title>
<path fill="none" stroke="black" d="M314.351,-470.636C319.428,-466.907 324.349,-462.504 328.077,-457.525 358.153,-417.363 332.984,-389.905 364.077,-350.525 366.105,-347.957 368.449,-345.567 370.975,-343.358"/>
<polygon fill="black" stroke="black" points="373.131,-346.116 378.968,-337.273 368.891,-340.546 373.131,-346.116"/>
</g>
<!-- AS1299&#45;&gt;AS6762 -->
<g id="edge39" class="edge"><title>AS1299&#45;&gt;AS6762</title>
<path fill="none" stroke="black" d="M316.762,-497.282C332.826,-504.779 353.336,-514.351 370.769,-522.488"/>
<polygon fill="black" stroke="black" points="369.548,-525.78 380.09,-526.838 372.509,-519.437 369.548,-525.78"/>
</g>
<!-- AS1299&#45;&gt;AS1239 -->
<g id="edge42" class="edge"><title>AS1299&#45;&gt;AS1239</title>
<path fill="none" stroke="black" d="M302.086,-501.525C310.812,-514.126 321.909,-532.072 328.077,-549.525 365.483,-655.367 316.477,-697.86 364.077,-799.525 368.267,-808.473 374.69,-816.948 381.314,-824.216"/>
<polygon fill="black" stroke="black" points="379.004,-826.861 388.483,-831.594 384.024,-821.983 379.004,-826.861"/>
</g>
<!-- AS1299&#45;&gt;AS3491 -->
<g id="edge44" class="edge"><title>AS1299&#45;&gt;AS3491</title>
<path fill="none" stroke="black" d="M328.343,-484.856C337.897,-484.937 348.246,-485.024 358.209,-485.109"/>
<polygon fill="black" stroke="black" points="358.372,-488.61 368.402,-485.196 358.432,-481.611 358.372,-488.61"/>
</g>
<!-- AS1299&#45;&gt;AS174 -->
<g id="edge43" class="edge"><title>AS1299&#45;&gt;AS174</title>
<path fill="none" stroke="black" d="M302.548,-501.491C316.601,-519.013 340.133,-546.542 364.077,-566.525 367.532,-569.408 371.319,-572.212 375.171,-574.853"/>
<polygon fill="black" stroke="black" points="373.311,-577.819 383.6,-580.346 377.133,-571.954 373.311,-577.819"/>
</g>
<!-- AS1299&#45;&gt;AS2914 -->
<g id="edge38" class="edge"><title>AS1299&#45;&gt;AS2914</title>
<path fill="none" stroke="black" d="M312.996,-470.108C318.253,-466.351 323.593,-462.069 328.077,-457.525 348.08,-437.258 343.563,-424.274 364.077,-404.525 366.934,-401.775 370.116,-399.16 373.421,-396.716"/>
<polygon fill="black" stroke="black" points="375.485,-399.545 381.774,-391.019 371.541,-393.762 375.485,-399.545"/>
</g>
<!-- AS6939&#45;&gt;AS12956 -->
<g id="edge48" class="edge"><title>AS6939&#45;&gt;AS12956</title>
<path fill="none" stroke="black" d="M304.569,-240.987C319.063,-256.283 341.939,-279.237 364.077,-296.525 367.04,-298.839 370.209,-301.128 373.435,-303.338"/>
<polygon fill="black" stroke="black" points="371.722,-306.4 382.003,-308.962 375.564,-300.549 371.722,-306.4"/>
</g>
<!-- AS8218&#45;&gt;AS6461 -->
<g id="edge47" class="edge"><title>AS8218&#45;&gt;AS6461</title>
<path fill="none" stroke="black" d="M328.343,-94.5254C337.897,-94.5254 348.246,-94.5254 358.209,-94.5254"/>
<polygon fill="black" stroke="black" points="358.402,-98.0255 368.402,-94.5254 358.402,-91.0255 358.402,-98.0255"/>
</g>
</g>
</svg>
