<?xml version="1.0" encoding="UTF-8" standalone="no"?>
<!DOCTYPE svg PUBLIC "-//W3C//DTD SVG 1.1//EN"
 "http://www.w3.org/Graphics/SVG/1.1/DTD/svg11.dtd">
<!-- Generated by graphviz version 2.38.0 (20140413.2041)
 -->
<!-- Title: AS48339 IPv4 Upstream Graph Pages: 1 -->
<svg width="460pt" height="772pt"
 viewBox="0.00 0.00 460.47 771.69" xmlns="http://www.w3.org/2000/svg" xmlns:xlink="http://www.w3.org/1999/xlink">
<g id="graph0" class="graph" transform="scale(1 1) rotate(0) translate(4 767.695)">
<title>AS48339 IPv4 Upstream Graph</title>
<polygon fill="white" stroke="none" points="-4,4 -4,-767.695 456.469,-767.695 456.469,4 -4,4"/>
<!-- AS48339 -->
<g id="node1" class="node"><title>AS48339</title>
<g id="a_node1"><a xlink:href="/asn/48339" xlink:title="AS48339 ~ Raiffeisen Rechenzentrum GmbH [AT]">
<ellipse fill="#ffffff" stroke="black" cx="44.1961" cy="-522" rx="44.393" ry="18"/>
<text text-anchor="middle" x="44.1961" y="-518.3" font-family="Times,serif" font-size="14.00" fill="#880000">AS48339</text>
</a>
</g>
</g>
<!-- AS3257 -->
<g id="node2" class="node"><title>AS3257</title>
<g id="a_node2"><a xlink:href="/asn/3257" xlink:title="AS3257 ~ GTT [DE]">
<ellipse fill="#ffffff" stroke="black" cx="168.588" cy="-370" rx="39.7935" ry="18"/>
<text text-anchor="middle" x="168.588" y="-366.3" font-family="Times,serif" font-size="14.00" fill="#2c94b3">AS3257</text>
</a>
</g>
</g>
<!-- AS48339&#45;&gt;AS3257 -->
<g id="edge1" class="edge"><title>AS48339&#45;&gt;AS3257</title>
<path fill="none" stroke="black" stroke-width="3.85714" d="M58.9981,-504.859C80.5987,-478.033 122.498,-425.998 147.462,-394.995"/>
<polygon fill="black" stroke="black" stroke-width="3.85714" points="150.478,-396.83 154.023,-386.846 145.026,-392.44 150.478,-396.83"/>
</g>
<!-- AS8447 -->
<g id="node3" class="node"><title>AS8447</title>
<g id="a_node3"><a xlink:href="/asn/8447" xlink:title="AS8447 ~ A1 Telekom Austria AG [AT]">
<ellipse fill="#ffffff" stroke="black" cx="168.588" cy="-576" rx="39.7935" ry="18"/>
<text text-anchor="middle" x="168.588" y="-572.3" font-family="Times,serif" font-size="14.00" fill="#2c94b3">AS8447</text>
</a>
</g>
</g>
<!-- AS48339&#45;&gt;AS8447 -->
<g id="edge2" class="edge"><title>AS48339&#45;&gt;AS8447</title>
<path fill="none" stroke="black" stroke-width="4.5" d="M74.8238,-535.072C91.4183,-542.393 112.278,-551.597 130.011,-559.421"/>
<polygon fill="black" stroke="black" stroke-width="4.5" points="128.756,-563.171 139.495,-563.605 131.935,-555.966 128.756,-563.171"/>
</g>
<!-- AS24864 -->
<g id="node4" class="node"><title>AS24864</title>
<g id="a_node4"><a xlink:href="/asn/24864" xlink:title="AS24864 ~ Raiffeisen Informatik GmbH &amp; Co KG [AT]">
<ellipse fill="#ffffff" stroke="black" cx="168.588" cy="-522" rx="44.393" ry="18"/>
<text text-anchor="middle" x="168.588" y="-518.3" font-family="Times,serif" font-size="14.00" fill="#2c94b3">AS24864</text>
</a>
</g>
</g>
<!-- AS48339&#45;&gt;AS24864 -->
<g id="edge3" class="edge"><title>AS48339&#45;&gt;AS24864</title>
<path fill="none" stroke="black" stroke-width="3.64286" d="M88.6916,-522C96.898,-522 105.569,-522 114.041,-522"/>
<polygon fill="black" stroke="black" stroke-width="3.64286" points="114.233,-525.5 124.233,-522 114.233,-518.5 114.233,-525.5"/>
</g>
<!-- AS2914 -->
<g id="node5" class="node"><title>AS2914</title>
<g id="a_node5"><a xlink:href="/asn/2914" xlink:title="AS2914 ~ NTT America, Inc. [US]">
<ellipse fill="#ffffff" stroke="black" cx="408.273" cy="-415" rx="39.7935" ry="18"/>
<text text-anchor="middle" x="408.273" y="-411.3" font-family="Times,serif" font-size="14.00" fill="#2c94b3">AS2914</text>
</a>
</g>
</g>
<!-- AS3257&#45;&gt;AS2914 -->
<g id="edge4" class="edge"><title>AS3257&#45;&gt;AS2914</title>
<path fill="none" stroke="black" d="M198.864,-381.668C213.619,-387.113 231.918,-393.214 248.784,-397 285.076,-405.147 326.915,-409.7 358.489,-412.188"/>
<polygon fill="black" stroke="black" points="358.548,-415.702 368.78,-412.955 359.068,-408.721 358.548,-415.702"/>
</g>
<!-- AS6453 -->
<g id="node6" class="node"><title>AS6453</title>
<g id="a_node6"><a xlink:href="/asn/6453" xlink:title="AS6453 ~ TATA COMMUNICATIONS (AMERICA) INC [US]">
<ellipse fill="#ffffff" stroke="black" cx="408.273" cy="-361" rx="39.7935" ry="18"/>
<text text-anchor="middle" x="408.273" y="-357.3" font-family="Times,serif" font-size="14.00" fill="#2c94b3">AS6453</text>
</a>
</g>
</g>
<!-- AS3257&#45;&gt;AS6453 -->
<g id="edge5" class="edge"><title>AS3257&#45;&gt;AS6453</title>
<path fill="none" stroke="black" d="M180.197,-352.76C193.448,-333.063 218.149,-301.892 248.784,-289 281.267,-275.331 296.314,-273.734 328.077,-289 351.162,-300.095 344.946,-316.97 364.077,-334 367.04,-336.637 370.289,-339.178 373.635,-341.577"/>
<polygon fill="black" stroke="black" points="371.787,-344.552 382.041,-347.218 375.688,-338.74 371.787,-344.552"/>
</g>
<!-- AS3491 -->
<g id="node7" class="node"><title>AS3491</title>
<g id="a_node7"><a xlink:href="/asn/3491" xlink:title="AS3491 ~ PCCW Global, Inc. [US]">
<ellipse fill="#ffffff" stroke="black" cx="408.273" cy="-145" rx="39.7935" ry="18"/>
<text text-anchor="middle" x="408.273" y="-141.3" font-family="Times,serif" font-size="14.00" fill="#2c94b3">AS3491</text>
</a>
</g>
</g>
<!-- AS3257&#45;&gt;AS3491 -->
<g id="edge6" class="edge"><title>AS3257&#45;&gt;AS3491</title>
<path fill="none" stroke="black" d="M174.547,-351.907C184.028,-320.397 207.539,-255.083 248.784,-216 280.954,-185.517 328.432,-166.632 363.034,-156.076"/>
<polygon fill="black" stroke="black" points="364.266,-159.362 372.877,-153.19 362.296,-152.645 364.266,-159.362"/>
</g>
<!-- AS174 -->
<g id="node8" class="node"><title>AS174</title>
<g id="a_node8"><a xlink:href="/asn/174" xlink:title="AS174 ~ Cogent Communications [US]">
<ellipse fill="#ffffff" stroke="black" cx="408.273" cy="-469" rx="35.194" ry="18"/>
<text text-anchor="middle" x="408.273" y="-465.3" font-family="Times,serif" font-size="14.00" fill="#2c94b3">AS174</text>
</a>
</g>
</g>
<!-- AS3257&#45;&gt;AS174 -->
<g id="edge7" class="edge"><title>AS3257&#45;&gt;AS174</title>
<path fill="none" stroke="black" d="M191.415,-384.719C206.94,-394.744 228.55,-407.81 248.784,-417 287.613,-434.635 334.216,-449.189 366.8,-458.37"/>
<polygon fill="black" stroke="black" points="365.866,-461.743 376.438,-461.045 367.738,-454.998 365.866,-461.743"/>
</g>
<!-- AS7018 -->
<g id="node9" class="node"><title>AS7018</title>
<g id="a_node9"><a xlink:href="/asn/7018" xlink:title="AS7018 ~ ATT&#45;INTERNET4 [US]">
<ellipse fill="#ffffff" stroke="black" cx="408.273" cy="-577" rx="39.7935" ry="18"/>
<text text-anchor="middle" x="408.273" y="-573.3" font-family="Times,serif" font-size="14.00" fill="#2c94b3">AS7018</text>
</a>
</g>
</g>
<!-- AS3257&#45;&gt;AS7018 -->
<g id="edge8" class="edge"><title>AS3257&#45;&gt;AS7018</title>
<path fill="none" stroke="black" d="M179.007,-387.444C192.26,-410.826 218.238,-452.666 248.784,-481 285.541,-515.095 336.283,-543.256 370.359,-560.072"/>
<polygon fill="black" stroke="black" points="368.978,-563.293 379.503,-564.51 372.034,-556.995 368.978,-563.293"/>
</g>
<!-- AS2497 -->
<g id="node10" class="node"><title>AS2497</title>
<g id="a_node10"><a xlink:href="/asn/2497" xlink:title="AS2497 ~ Internet Initiative Japan Inc. [JP]">
<ellipse fill="#ffffff" stroke="black" cx="408.273" cy="-307" rx="39.7935" ry="18"/>
<text text-anchor="middle" x="408.273" y="-303.3" font-family="Times,serif" font-size="14.00" fill="#2c94b3">AS2497</text>
</a>
</g>
</g>
<!-- AS3257&#45;&gt;AS2497 -->
<g id="edge9" class="edge"><title>AS3257&#45;&gt;AS2497</title>
<path fill="none" stroke="black" d="M177.879,-352.485C189.854,-329.509 214.388,-290.215 248.784,-274 289.277,-254.912 340.734,-272.351 373.837,-288.253"/>
<polygon fill="black" stroke="black" points="372.567,-291.531 383.076,-292.881 375.702,-285.272 372.567,-291.531"/>
</g>
<!-- AS701 -->
<g id="node11" class="node"><title>AS701</title>
<g id="a_node11"><a xlink:href="/asn/701" xlink:title="AS701 ~ UUNET [US]">
<ellipse fill="#ffffff" stroke="black" cx="408.273" cy="-199" rx="35.194" ry="18"/>
<text text-anchor="middle" x="408.273" y="-195.3" font-family="Times,serif" font-size="14.00" fill="#2c94b3">AS701</text>
</a>
</g>
</g>
<!-- AS3257&#45;&gt;AS701 -->
<g id="edge10" class="edge"><title>AS3257&#45;&gt;AS701</title>
<path fill="none" stroke="black" d="M178.198,-352.497C190.702,-328.727 216.018,-286.308 248.784,-261 283.537,-234.157 331.357,-217.585 365.358,-208.405"/>
<polygon fill="black" stroke="black" points="366.636,-211.69 375.437,-205.791 364.878,-204.914 366.636,-211.69"/>
</g>
<!-- AS12956 -->
<g id="node12" class="node"><title>AS12956</title>
<g id="a_node12"><a xlink:href="/asn/12956" xlink:title="AS12956 ~ TELXIUS [ES]">
<ellipse fill="#ffffff" stroke="black" cx="408.273" cy="-91" rx="44.393" ry="18"/>
<text text-anchor="middle" x="408.273" y="-87.3" font-family="Times,serif" font-size="14.00" fill="#2c94b3">AS12956</text>
</a>
</g>
</g>
<!-- AS3257&#45;&gt;AS12956 -->
<g id="edge11" class="edge"><title>AS3257&#45;&gt;AS12956</title>
<path fill="none" stroke="black" d="M171.955,-351.996C177.946,-313.115 197.087,-220.347 248.784,-165 278.499,-133.188 324.63,-113.8 359.476,-102.897"/>
<polygon fill="black" stroke="black" points="360.864,-106.135 369.439,-99.912 358.855,-99.429 360.864,-106.135"/>
</g>
<!-- AS6762 -->
<g id="node13" class="node"><title>AS6762</title>
<g id="a_node13"><a xlink:href="/asn/6762" xlink:title="AS6762 ~ TELECOM ITALIA SPARKLE S.p.A. [IT]">
<ellipse fill="#ffffff" stroke="black" cx="408.273" cy="-631" rx="39.7935" ry="18"/>
<text text-anchor="middle" x="408.273" y="-627.3" font-family="Times,serif" font-size="14.00" fill="#2c94b3">AS6762</text>
</a>
</g>
</g>
<!-- AS3257&#45;&gt;AS6762 -->
<g id="edge12" class="edge"><title>AS3257&#45;&gt;AS6762</title>
<path fill="none" stroke="black" d="M175.801,-387.781C184.249,-412.002 199.795,-456.734 212.784,-495 229.047,-542.912 210.478,-569.945 248.784,-603 278.787,-628.89 324.191,-634.687 358.723,-634.709"/>
<polygon fill="black" stroke="black" points="359.118,-638.203 369.062,-634.546 359.008,-631.204 359.118,-638.203"/>
</g>
<!-- AS1299 -->
<g id="node14" class="node"><title>AS1299</title>
<g id="a_node14"><a xlink:href="/asn/1299" xlink:title="AS1299 ~ Telia Carrier [EU]">
<ellipse fill="#ffffff" stroke="black" cx="288.431" cy="-576" rx="39.7935" ry="18"/>
<text text-anchor="middle" x="288.431" y="-572.3" font-family="Times,serif" font-size="14.00" fill="#2c94b3">AS1299</text>
</a>
</g>
</g>
<!-- AS3257&#45;&gt;AS1299 -->
<g id="edge13" class="edge"><title>AS3257&#45;&gt;AS1299</title>
<path fill="none" stroke="black" d="M176.505,-387.684C187.669,-419.693 212.176,-487.159 248.784,-535 253.516,-541.183 259.654,-546.949 265.64,-552.219"/>
<polygon fill="black" stroke="black" points="263.714,-555.181 273.562,-559.089 268.3,-549.893 263.714,-555.181"/>
</g>
<!-- AS6461 -->
<g id="node15" class="node"><title>AS6461</title>
<g id="a_node15"><a xlink:href="/asn/6461" xlink:title="AS6461 ~ Zayo Bandwidth [US]">
<ellipse fill="#ffffff" stroke="black" cx="408.273" cy="-706" rx="39.7935" ry="18"/>
<text text-anchor="middle" x="408.273" y="-702.3" font-family="Times,serif" font-size="14.00" fill="#2c94b3">AS6461</text>
</a>
</g>
</g>
<!-- AS3257&#45;&gt;AS6461 -->
<g id="edge14" class="edge"><title>AS3257&#45;&gt;AS6461</title>
<path fill="none" stroke="black" d="M176.318,-388.076C185.21,-412.258 201.108,-456.553 212.784,-495 231.079,-555.239 208.446,-583.665 248.784,-632 264.726,-651.102 325.195,-676.069 366.657,-691.566"/>
<polygon fill="black" stroke="black" points="365.636,-694.92 376.229,-695.103 368.062,-688.354 365.636,-694.92"/>
</g>
<!-- AS1273 -->
<g id="node16" class="node"><title>AS1273</title>
<g id="a_node16"><a xlink:href="/asn/1273" xlink:title="AS1273 ~ Vodafone Group PLC [EU]">
<ellipse fill="#ffffff" stroke="black" cx="288.431" cy="-72" rx="39.7935" ry="18"/>
<text text-anchor="middle" x="288.431" y="-68.3" font-family="Times,serif" font-size="14.00" fill="#2c94b3">AS1273</text>
</a>
</g>
</g>
<!-- AS3257&#45;&gt;AS1273 -->
<g id="edge15" class="edge"><title>AS3257&#45;&gt;AS1273</title>
<path fill="none" stroke="black" d="M171.315,-352.015C176.379,-306.81 194.431,-186.189 248.784,-104 251.284,-100.219 254.365,-96.6538 257.686,-93.3718"/>
<polygon fill="black" stroke="black" points="260.073,-95.9329 265.21,-86.6669 255.416,-90.7067 260.073,-95.9329"/>
</g>
<!-- AS3320 -->
<g id="node17" class="node"><title>AS3320</title>
<g id="a_node17"><a xlink:href="/asn/3320" xlink:title="AS3320 ~ DTAG [DE]">
<ellipse fill="#ffffff" stroke="black" cx="288.431" cy="-370" rx="39.7935" ry="18"/>
<text text-anchor="middle" x="288.431" y="-366.3" font-family="Times,serif" font-size="14.00" fill="#2c94b3">AS3320</text>
</a>
</g>
</g>
<!-- AS3257&#45;&gt;AS3320 -->
<g id="edge16" class="edge"><title>AS3257&#45;&gt;AS3320</title>
<path fill="none" stroke="black" d="M208.501,-370C218.054,-370 228.404,-370 238.367,-370"/>
<polygon fill="black" stroke="black" points="238.559,-373.5 248.559,-370 238.559,-366.5 238.559,-373.5"/>
</g>
<!-- AS1239 -->
<g id="node18" class="node"><title>AS1239</title>
<g id="a_node18"><a xlink:href="/asn/1239" xlink:title="AS1239 ~ Sprint [US]">
<ellipse fill="#ffffff" stroke="black" cx="408.273" cy="-523" rx="39.7935" ry="18"/>
<text text-anchor="middle" x="408.273" y="-519.3" font-family="Times,serif" font-size="14.00" fill="#2c94b3">AS1239</text>
</a>
</g>
</g>
<!-- AS3257&#45;&gt;AS1239 -->
<g id="edge17" class="edge"><title>AS3257&#45;&gt;AS1239</title>
<path fill="none" stroke="black" d="M184.436,-386.738C199.503,-403.039 224.067,-427.807 248.784,-445 286.706,-471.379 334.873,-493.72 368.099,-507.642"/>
<polygon fill="black" stroke="black" points="366.899,-510.933 377.478,-511.514 369.571,-504.463 366.899,-510.933"/>
</g>
<!-- AS209 -->
<g id="node19" class="node"><title>AS209</title>
<g id="a_node19"><a xlink:href="/asn/209" xlink:title="AS209 ~ CenturyLink Communications, LLC [US]">
<ellipse fill="#ffffff" stroke="black" cx="288.431" cy="-18" rx="35.194" ry="18"/>
<text text-anchor="middle" x="288.431" y="-14.3" font-family="Times,serif" font-size="14.00" fill="#2c94b3">AS209</text>
</a>
</g>
</g>
<!-- AS3257&#45;&gt;AS209 -->
<g id="edge18" class="edge"><title>AS3257&#45;&gt;AS209</title>
<path fill="none" stroke="black" d="M169.678,-351.666C170.789,-299.135 180.086,-145.415 248.784,-45 250.679,-42.2304 252.958,-39.6554 255.45,-37.2837"/>
<polygon fill="black" stroke="black" points="257.868,-39.8279 263.392,-30.7871 253.435,-34.4098 257.868,-39.8279"/>
</g>
<!-- AS3356 -->
<g id="node20" class="node"><title>AS3356</title>
<g id="a_node20"><a xlink:href="/asn/3356" xlink:title="AS3356 ~ Level 3 Parent, LLC [US]">
<ellipse fill="#ffffff" stroke="black" cx="288.431" cy="-316" rx="39.7935" ry="18"/>
<text text-anchor="middle" x="288.431" y="-312.3" font-family="Times,serif" font-size="14.00" fill="#2c94b3">AS3356</text>
</a>
</g>
</g>
<!-- AS3257&#45;&gt;AS3356 -->
<g id="edge19" class="edge"><title>AS3257&#45;&gt;AS3356</title>
<path fill="none" stroke="black" stroke-width="2" d="M190.656,-355.03C205.652,-346.818 226.321,-336.946 244.708,-329.059"/>
<polygon fill="black" stroke="black" stroke-width="2" points="246.202,-332.228 254.073,-325.136 243.497,-325.772 246.202,-332.228"/>
</g>
<!-- AS8447&#45;&gt;AS6762 -->
<g id="edge34" class="edge"><title>AS8447&#45;&gt;AS6762</title>
<path fill="none" stroke="black" stroke-width="0.642857" d="M172.449,-593.967C178.975,-628.182 198.479,-702.033 248.784,-733 278.795,-751.474 297.006,-749.629 328.077,-733 353.509,-719.39 346.383,-701.78 364.077,-679 370.34,-670.937 377.612,-662.537 384.385,-655.06"/>
<polygon fill="black" stroke="black" stroke-width="0.642857" points="387.267,-657.096 391.465,-647.368 382.117,-652.355 387.267,-657.096"/>
</g>
<!-- AS8447&#45;&gt;AS1299 -->
<g id="edge30" class="edge"><title>AS8447&#45;&gt;AS1299</title>
<path fill="none" stroke="black" stroke-width="3.85714" d="M208.501,-576C218.054,-576 228.404,-576 238.367,-576"/>
<polygon fill="black" stroke="black" stroke-width="3.85714" points="238.559,-579.5 248.559,-576 238.559,-572.5 238.559,-579.5"/>
</g>
<!-- AS8447&#45;&gt;AS6461 -->
<g id="edge32" class="edge"><title>AS8447&#45;&gt;AS6461</title>
<path fill="none" stroke="black" stroke-width="0.642857" d="M171.401,-594.123C176.233,-631.559 193.131,-716.931 248.784,-753 289.685,-779.508 346.066,-750.163 379.391,-727.403"/>
<polygon fill="black" stroke="black" stroke-width="0.642857" points="381.595,-730.131 387.744,-721.504 377.557,-724.413 381.595,-730.131"/>
</g>
<!-- AS8447&#45;&gt;AS3320 -->
<g id="edge31" class="edge"><title>AS8447&#45;&gt;AS3320</title>
<path fill="none" stroke="black" stroke-width="3.85714" d="M196.275,-562.912C202.272,-559.054 208.207,-554.395 212.784,-549 251.314,-503.591 272.236,-435.483 281.488,-397.718"/>
<polygon fill="black" stroke="black" stroke-width="3.85714" points="284.911,-398.451 283.793,-387.915 278.097,-396.848 284.911,-398.451"/>
</g>
<!-- AS8447&#45;&gt;AS3356 -->
<g id="edge33" class="edge"><title>AS8447&#45;&gt;AS3356</title>
<path fill="none" stroke="black" stroke-width="4.5" d="M197.61,-563.291C203.417,-559.464 208.932,-554.722 212.784,-549 264.694,-471.904 198.864,-421.399 248.784,-343 250.35,-340.54 252.229,-338.243 254.303,-336.109"/>
<polygon fill="black" stroke="black" stroke-width="4.5" points="256.959,-339.018 261.935,-329.492 251.8,-333.067 256.959,-339.018"/>
</g>
<!-- AS24864&#45;&gt;AS1299 -->
<g id="edge47" class="edge"><title>AS24864&#45;&gt;AS1299</title>
<path fill="none" stroke="black" stroke-width="3.5" d="M198.718,-535.348C214.329,-542.502 233.727,-551.391 250.399,-559.03"/>
<polygon fill="black" stroke="black" stroke-width="3.5" points="249.302,-562.378 259.851,-563.362 252.218,-556.014 249.302,-562.378"/>
</g>
<!-- AS24864&#45;&gt;AS3356 -->
<g id="edge48" class="edge"><title>AS24864&#45;&gt;AS3356</title>
<path fill="none" stroke="black" stroke-width="4.5" d="M174.043,-504.013C183.254,-469.661 207.099,-393.634 248.784,-343 250.638,-340.749 252.723,-338.601 254.941,-336.572"/>
<polygon fill="black" stroke="black" stroke-width="4.5" points="257.566,-339.513 262.844,-330.151 252.6,-333.401 257.566,-339.513"/>
</g>
<!-- AS8218 -->
<g id="node22" class="node"><title>AS8218</title>
<g id="a_node22"><a xlink:href="/asn/8218" xlink:title="AS8218 ~ legacy Neotelecoms [FR]">
<ellipse fill="#ffffff" stroke="black" cx="288.431" cy="-706" rx="39.7935" ry="18"/>
<text text-anchor="middle" x="288.431" y="-702.3" font-family="Times,serif" font-size="14.00" fill="#2c94b3">AS8218</text>
</a>
</g>
</g>
<!-- AS24864&#45;&gt;AS8218 -->
<g id="edge46" class="edge"><title>AS24864&#45;&gt;AS8218</title>
<path fill="none" stroke="black" stroke-width="0.5" d="M198.067,-535.614C203.571,-539.315 208.843,-543.775 212.784,-549 247.601,-595.154 217.11,-625.635 248.784,-674 251.267,-677.792 254.338,-681.364 257.654,-684.649"/>
<polygon fill="black" stroke="black" stroke-width="0.5" points="255.381,-687.312 265.173,-691.357 260.041,-682.089 255.381,-687.312"/>
</g>
<!-- AS1299&#45;&gt;AS3257 -->
<g id="edge36" class="edge"><title>AS1299&#45;&gt;AS3257</title>
<path fill="none" stroke="black" stroke-width="2" d="M258.951,-563.923C255.266,-560.584 251.749,-556.874 248.784,-553 211.727,-504.573 187.069,-436.034 176.1,-397.868"/>
<polygon fill="black" stroke="black" stroke-width="2" points="179.399,-396.663 173.37,-387.951 172.65,-398.521 179.399,-396.663"/>
</g>
<!-- AS1299&#45;&gt;AS2914 -->
<g id="edge35" class="edge"><title>AS1299&#45;&gt;AS2914</title>
<path fill="none" stroke="black" stroke-width="2" d="M295.987,-558.141C306.782,-530.616 330.497,-477.317 364.077,-442 366.667,-439.276 369.588,-436.713 372.658,-434.331"/>
<polygon fill="black" stroke="black" stroke-width="2" points="374.836,-437.078 381.009,-428.468 370.813,-431.349 374.836,-437.078"/>
</g>
<!-- AS1299&#45;&gt;AS174 -->
<g id="edge39" class="edge"><title>AS1299&#45;&gt;AS174</title>
<path fill="none" stroke="black" stroke-width="2" d="M302.89,-559.162C317.037,-542.079 340.477,-515.452 364.077,-496 367.549,-493.138 371.347,-490.348 375.205,-487.713"/>
<polygon fill="black" stroke="black" stroke-width="2" points="377.165,-490.613 383.64,-482.227 373.349,-484.745 377.165,-490.613"/>
</g>
<!-- AS1299&#45;&gt;AS7018 -->
<g id="edge37" class="edge"><title>AS1299&#45;&gt;AS7018</title>
<path fill="none" stroke="black" stroke-width="2" d="M328.343,-576.33C337.897,-576.411 348.246,-576.499 358.209,-576.584"/>
<polygon fill="black" stroke="black" stroke-width="2" points="358.372,-580.085 368.402,-576.67 358.432,-573.085 358.372,-580.085"/>
</g>
<!-- AS1299&#45;&gt;AS6762 -->
<g id="edge40" class="edge"><title>AS1299&#45;&gt;AS6762</title>
<path fill="none" stroke="black" d="M316.762,-588.756C332.826,-596.253 353.336,-605.826 370.769,-613.963"/>
<polygon fill="black" stroke="black" points="369.548,-617.255 380.09,-618.313 372.509,-610.912 369.548,-617.255"/>
</g>
<!-- AS1299&#45;&gt;AS1239 -->
<g id="edge38" class="edge"><title>AS1299&#45;&gt;AS1239</title>
<path fill="none" stroke="black" stroke-width="2" d="M317.358,-563.44C333.208,-556.311 353.241,-547.301 370.373,-539.596"/>
<polygon fill="black" stroke="black" stroke-width="2" points="371.862,-542.764 379.547,-535.47 368.991,-536.38 371.862,-542.764"/>
</g>
<!-- AS3320&#45;&gt;AS2914 -->
<g id="edge41" class="edge"><title>AS3320&#45;&gt;AS2914</title>
<path fill="none" stroke="black" d="M319.472,-381.472C334.155,-387.079 352.016,-393.899 367.785,-399.921"/>
<polygon fill="black" stroke="black" points="366.696,-403.251 377.287,-403.549 369.193,-396.712 366.696,-403.251"/>
</g>
<!-- AS3320&#45;&gt;AS6453 -->
<g id="edge44" class="edge"><title>AS3320&#45;&gt;AS6453</title>
<path fill="none" stroke="black" d="M327.691,-367.078C337.57,-366.323 348.337,-365.501 358.667,-364.712"/>
<polygon fill="black" stroke="black" points="359.098,-368.19 368.802,-363.938 358.564,-361.21 359.098,-368.19"/>
</g>
<!-- AS3320&#45;&gt;AS2497 -->
<g id="edge45" class="edge"><title>AS3320&#45;&gt;AS2497</title>
<path fill="none" stroke="black" d="M314.711,-356.485C331.604,-347.453 354.047,-335.456 372.602,-325.536"/>
<polygon fill="black" stroke="black" points="374.46,-328.511 381.628,-320.71 371.159,-322.338 374.46,-328.511"/>
</g>
<!-- AS3320&#45;&gt;AS701 -->
<g id="edge42" class="edge"><title>AS3320&#45;&gt;AS701</title>
<path fill="none" stroke="black" d="M314.448,-356.182C319.52,-352.449 324.414,-348.027 328.077,-343 360.119,-299.03 330.921,-269.136 364.077,-226 366.684,-222.608 369.849,-219.534 373.267,-216.779"/>
<polygon fill="black" stroke="black" points="375.405,-219.553 381.558,-210.929 371.37,-213.834 375.405,-219.553"/>
</g>
<!-- AS3320&#45;&gt;AS1239 -->
<g id="edge43" class="edge"><title>AS3320&#45;&gt;AS1239</title>
<path fill="none" stroke="black" d="M296.619,-387.629C307.923,-413.721 331.926,-463.074 364.077,-496 366.703,-498.689 369.648,-501.23 372.733,-503.597"/>
<polygon fill="black" stroke="black" points="370.901,-506.587 381.105,-509.44 374.908,-500.846 370.901,-506.587"/>
</g>
<!-- AS3356&#45;&gt;AS3257 -->
<g id="edge22" class="edge"><title>AS3356&#45;&gt;AS3257</title>
<path fill="none" stroke="black" d="M266.154,-331.084C251.189,-339.266 230.65,-349.073 212.36,-356.92"/>
<polygon fill="black" stroke="black" points="210.912,-353.732 203.042,-360.825 213.618,-360.188 210.912,-353.732"/>
</g>
<!-- AS3356&#45;&gt;AS2914 -->
<g id="edge23" class="edge"><title>AS3356&#45;&gt;AS2914</title>
<path fill="none" stroke="black" stroke-width="2" d="M312.339,-330.389C317.734,-334.207 323.299,-338.523 328.077,-343 346.766,-360.513 344.946,-370.97 364.077,-388 367.04,-390.637 370.289,-393.178 373.635,-395.577"/>
<polygon fill="black" stroke="black" stroke-width="2" points="371.787,-398.552 382.041,-401.218 375.688,-392.74 371.787,-398.552"/>
</g>
<!-- AS3356&#45;&gt;AS6453 -->
<g id="edge28" class="edge"><title>AS3356&#45;&gt;AS6453</title>
<path fill="none" stroke="black" d="M319.472,-327.472C334.155,-333.079 352.016,-339.899 367.785,-345.921"/>
<polygon fill="black" stroke="black" points="366.696,-349.251 377.287,-349.549 369.193,-342.712 366.696,-349.251"/>
</g>
<!-- AS3356&#45;&gt;AS3491 -->
<g id="edge24" class="edge"><title>AS3356&#45;&gt;AS3491</title>
<path fill="none" stroke="black" stroke-width="2" d="M295.155,-298.223C305.248,-269.068 328.56,-210.494 364.077,-172 366.626,-169.238 369.519,-166.648 372.572,-164.251"/>
<polygon fill="black" stroke="black" stroke-width="2" points="374.753,-166.995 380.899,-158.365 370.713,-161.279 374.753,-166.995"/>
</g>
<!-- AS3356&#45;&gt;AS174 -->
<g id="edge21" class="edge"><title>AS3356&#45;&gt;AS174</title>
<path fill="none" stroke="black" d="M314.262,-329.957C319.343,-333.683 324.289,-338.066 328.077,-343 356.593,-380.133 334.621,-405.609 364.077,-442 366.769,-445.325 369.986,-448.358 373.433,-451.09"/>
<polygon fill="black" stroke="black" points="371.557,-454.049 381.757,-456.915 375.57,-448.314 371.557,-454.049"/>
</g>
<!-- AS3356&#45;&gt;AS2497 -->
<g id="edge25" class="edge"><title>AS3356&#45;&gt;AS2497</title>
<path fill="none" stroke="black" stroke-width="2" d="M327.691,-313.078C337.57,-312.323 348.337,-311.501 358.667,-310.712"/>
<polygon fill="black" stroke="black" stroke-width="2" points="359.098,-314.19 368.802,-309.938 358.564,-307.21 359.098,-314.19"/>
</g>
<!-- AS3356&#45;&gt;AS701 -->
<g id="edge27" class="edge"><title>AS3356&#45;&gt;AS701</title>
<path fill="none" stroke="black" d="M301.216,-298.675C314.854,-279.439 338.71,-248.182 364.077,-226 367.464,-223.038 371.211,-220.187 375.041,-217.52"/>
<polygon fill="black" stroke="black" points="377.009,-220.415 383.45,-212.003 373.169,-214.562 377.009,-220.415"/>
</g>
<!-- AS3356&#45;&gt;AS12956 -->
<g id="edge26" class="edge"><title>AS3356&#45;&gt;AS12956</title>
<path fill="none" stroke="black" d="M292.24,-297.934C298.833,-260.615 318.331,-173.842 364.077,-118 366.151,-115.469 368.527,-113.105 371.076,-110.914"/>
<polygon fill="black" stroke="black" points="373.228,-113.674 379.107,-104.86 369.015,-108.084 373.228,-113.674"/>
</g>
<!-- AS3356&#45;&gt;AS6762 -->
<g id="edge29" class="edge"><title>AS3356&#45;&gt;AS6762</title>
<path fill="none" stroke="black" d="M315.067,-329.404C320.106,-333.159 324.831,-337.694 328.077,-343 389.186,-442.889 300.433,-505.707 364.077,-604 365.952,-606.895 368.258,-609.535 370.82,-611.93"/>
<polygon fill="black" stroke="black" points="369.064,-614.999 379.102,-618.39 373.37,-609.48 369.064,-614.999"/>
</g>
<!-- AS3549 -->
<g id="node21" class="node"><title>AS3549</title>
<g id="a_node21"><a xlink:href="/asn/3549" xlink:title="AS3549 ~ Level 3 Parent, LLC [US]">
<ellipse fill="#ffffff" stroke="black" cx="408.273" cy="-253" rx="39.7935" ry="18"/>
<text text-anchor="middle" x="408.273" y="-249.3" font-family="Times,serif" font-size="14.00" fill="#2c94b3">AS3549</text>
</a>
</g>
</g>
<!-- AS3356&#45;&gt;AS3549 -->
<g id="edge20" class="edge"><title>AS3356&#45;&gt;AS3549</title>
<path fill="none" stroke="black" stroke-width="3" d="M314.711,-302.485C331.604,-293.453 354.047,-281.456 372.602,-271.536"/>
<polygon fill="black" stroke="black" stroke-width="3" points="374.46,-274.511 381.628,-266.71 371.159,-268.338 374.46,-274.511"/>
</g>
<!-- AS8218&#45;&gt;AS6461 -->
<g id="edge49" class="edge"><title>AS8218&#45;&gt;AS6461</title>
<path fill="none" stroke="black" d="M328.343,-706C337.897,-706 348.246,-706 358.209,-706"/>
<polygon fill="black" stroke="black" points="358.402,-709.5 368.402,-706 358.402,-702.5 358.402,-709.5"/>
</g>
</g>
</svg>
