<?xml version="1.0" encoding="UTF-8" standalone="no"?>
<!DOCTYPE svg PUBLIC "-//W3C//DTD SVG 1.1//EN"
 "http://www.w3.org/Graphics/SVG/1.1/DTD/svg11.dtd">
<!-- Generated by graphviz version 2.38.0 (20140413.2041)
 -->
<!-- Title: AS200098 Combined Upstream Graph Pages: 1 -->
<svg width="699pt" height="530pt"
 viewBox="0.00 0.00 698.85 530.00" xmlns="http://www.w3.org/2000/svg" xmlns:xlink="http://www.w3.org/1999/xlink">
<g id="graph0" class="graph" transform="scale(1 1) rotate(0) translate(4 526)">
<title>AS200098 Combined Upstream Graph</title>
<polygon fill="white" stroke="none" points="-4,4 -4,-526 694.855,-526 694.855,4 -4,4"/>
<!-- AS200098 -->
<g id="node1" class="node"><title>AS200098</title>
<g id="a_node1"><a xlink:href="/asn/200098" xlink:title="AS200098 ~ Netronics Harald Heinzel e.U. [AT]">
<ellipse fill="#ffffff" stroke="black" cx="48.0957" cy="-261" rx="48.1917" ry="18"/>
<text text-anchor="middle" x="48.0957" y="-257.3" font-family="Times,serif" font-size="14.00" fill="#880000">AS200098</text>
</a>
</g>
</g>
<!-- AS6798 -->
<g id="node2" class="node"><title>AS6798</title>
<g id="a_node2"><a xlink:href="/asn/6798" xlink:title="AS6798 ~ Net4You Internet GmbH [AT]">
<ellipse fill="#ffffff" stroke="black" cx="171.838" cy="-261" rx="39.7935" ry="18"/>
<text text-anchor="middle" x="171.838" y="-257.3" font-family="Times,serif" font-size="14.00" fill="#2c94b3">AS6798</text>
</a>
</g>
</g>
<!-- AS200098&#45;&gt;AS6798 -->
<g id="edge1" class="edge"><title>AS200098&#45;&gt;AS6798</title>
<path fill="none" stroke="black" stroke-width="4.5" d="M96.5131,-261C104.867,-261 113.577,-261 121.969,-261"/>
<polygon fill="black" stroke="black" stroke-width="4.5" points="122.004,-264.938 132.004,-261 122.004,-257.063 122.004,-264.938"/>
</g>
<!-- AS47147 -->
<g id="node3" class="node"><title>AS47147</title>
<g id="a_node3"><a xlink:href="/asn/47147" xlink:title="AS47147 ~ ANEXIA Internetdienstleistungs GmbH [AT]">
<ellipse fill="#ffffff" stroke="black" cx="291.681" cy="-261" rx="44.393" ry="18"/>
<text text-anchor="middle" x="291.681" y="-257.3" font-family="Times,serif" font-size="14.00" fill="#2c94b3">AS47147</text>
</a>
</g>
</g>
<!-- AS6798&#45;&gt;AS47147 -->
<g id="edge2" class="edge"><title>AS6798&#45;&gt;AS47147</title>
<path fill="none" stroke="black" stroke-width="4.5" d="M211.751,-261C219.853,-261 228.528,-261 237.055,-261"/>
<polygon fill="black" stroke="black" stroke-width="4.5" points="237.332,-264.938 247.332,-261 237.332,-257.063 237.332,-264.938"/>
</g>
<!-- AS3320 -->
<g id="node4" class="node"><title>AS3320</title>
<g id="a_node4"><a xlink:href="/asn/3320" xlink:title="AS3320 ~ DTAG [DE]">
<ellipse fill="#ffffff" stroke="black" cx="411.523" cy="-450" rx="39.7935" ry="18"/>
<text text-anchor="middle" x="411.523" y="-446.3" font-family="Times,serif" font-size="14.00" fill="#2c94b3">AS3320</text>
</a>
</g>
</g>
<!-- AS47147&#45;&gt;AS3320 -->
<g id="edge3" class="edge"><title>AS47147&#45;&gt;AS3320</title>
<path fill="none" stroke="black" stroke-width="1.5" d="M303.556,-278.442C324.339,-311.775 369.8,-384.686 394.228,-423.866"/>
<polygon fill="black" stroke="black" stroke-width="1.5" points="391.413,-425.966 399.674,-432.6 397.353,-422.263 391.413,-425.966"/>
</g>
<!-- AS2914 -->
<g id="node5" class="node"><title>AS2914</title>
<g id="a_node5"><a xlink:href="/asn/2914" xlink:title="AS2914 ~ NTT America, Inc. [US]">
<ellipse fill="#ffffff" stroke="black" cx="411.523" cy="-207" rx="39.7935" ry="18"/>
<text text-anchor="middle" x="411.523" y="-203.3" font-family="Times,serif" font-size="14.00" fill="#2c94b3">AS2914</text>
</a>
</g>
</g>
<!-- AS47147&#45;&gt;AS2914 -->
<g id="edge4" class="edge"><title>AS47147&#45;&gt;AS2914</title>
<path fill="none" stroke="black" stroke-width="4.5" d="M321.81,-247.652C337.421,-240.498 356.819,-231.609 373.491,-223.97"/>
<polygon fill="black" stroke="black" stroke-width="4.5" points="375.492,-227.384 382.943,-219.638 372.212,-220.225 375.492,-227.384"/>
</g>
<!-- AS1299 -->
<g id="node6" class="node"><title>AS1299</title>
<g id="a_node6"><a xlink:href="/asn/1299" xlink:title="AS1299 ~ Telia Carrier [EU]">
<ellipse fill="#ffffff" stroke="black" cx="411.523" cy="-288" rx="39.7935" ry="18"/>
<text text-anchor="middle" x="411.523" y="-284.3" font-family="Times,serif" font-size="14.00" fill="#2c94b3">AS1299</text>
</a>
</g>
</g>
<!-- AS47147&#45;&gt;AS1299 -->
<g id="edge5" class="edge"><title>AS47147&#45;&gt;AS1299</title>
<path fill="none" stroke="black" stroke-width="3" d="M330.615,-269.692C341.856,-272.267 354.269,-275.111 365.892,-277.774"/>
<polygon fill="black" stroke="black" stroke-width="3" points="365.324,-281.235 375.853,-280.057 366.888,-274.412 365.324,-281.235"/>
</g>
<!-- AS6461 -->
<g id="node7" class="node"><title>AS6461</title>
<g id="a_node7"><a xlink:href="/asn/6461" xlink:title="AS6461 ~ Zayo Bandwidth [US]">
<ellipse fill="#ffffff" stroke="black" cx="411.523" cy="-153" rx="39.7935" ry="18"/>
<text text-anchor="middle" x="411.523" y="-149.3" font-family="Times,serif" font-size="14.00" fill="#2c94b3">AS6461</text>
</a>
</g>
</g>
<!-- AS47147&#45;&gt;AS6461 -->
<g id="edge6" class="edge"><title>AS47147&#45;&gt;AS6461</title>
<path fill="none" stroke="black" stroke-width="0.5" d="M307.613,-243.956C322.939,-226.903 347.875,-200.35 371.877,-180 374.374,-177.883 377.034,-175.768 379.746,-173.707"/>
<polygon fill="black" stroke="black" stroke-width="0.5" points="381.912,-176.459 387.922,-167.734 377.782,-170.806 381.912,-176.459"/>
</g>
<!-- AS701 -->
<g id="node8" class="node"><title>AS701</title>
<g id="a_node8"><a xlink:href="/asn/701" xlink:title="AS701 ~ UUNET [US]">
<ellipse fill="#ffffff" stroke="black" cx="531.366" cy="-504" rx="35.194" ry="18"/>
<text text-anchor="middle" x="531.366" y="-500.3" font-family="Times,serif" font-size="14.00" fill="#2c94b3">AS701</text>
</a>
</g>
</g>
<!-- AS3320&#45;&gt;AS701 -->
<g id="edge7" class="edge"><title>AS3320&#45;&gt;AS701</title>
<path fill="none" stroke="black" d="M440.152,-462.661C456.568,-470.183 477.55,-479.798 495.147,-487.861"/>
<polygon fill="black" stroke="black" points="493.975,-491.174 504.524,-492.158 496.891,-484.811 493.975,-491.174"/>
</g>
<!-- AS1239 -->
<g id="node9" class="node"><title>AS1239</title>
<g id="a_node9"><a xlink:href="/asn/1239" xlink:title="AS1239 ~ Sprint [US]">
<ellipse fill="#ffffff" stroke="black" cx="531.366" cy="-450" rx="39.7935" ry="18"/>
<text text-anchor="middle" x="531.366" y="-446.3" font-family="Times,serif" font-size="14.00" fill="#2c94b3">AS1239</text>
</a>
</g>
</g>
<!-- AS3320&#45;&gt;AS1239 -->
<g id="edge8" class="edge"><title>AS3320&#45;&gt;AS1239</title>
<path fill="none" stroke="black" d="M451.436,-450C460.989,-450 471.339,-450 481.301,-450"/>
<polygon fill="black" stroke="black" points="481.494,-453.5 491.494,-450 481.494,-446.5 481.494,-453.5"/>
</g>
<!-- AS3356 -->
<g id="node10" class="node"><title>AS3356</title>
<g id="a_node10"><a xlink:href="/asn/3356" xlink:title="AS3356 ~ Level 3 Parent, LLC [US]">
<ellipse fill="#ffffff" stroke="black" cx="531.366" cy="-288" rx="39.7935" ry="18"/>
<text text-anchor="middle" x="531.366" y="-284.3" font-family="Times,serif" font-size="14.00" fill="#2c94b3">AS3356</text>
</a>
</g>
</g>
<!-- AS2914&#45;&gt;AS3356 -->
<g id="edge9" class="edge"><title>AS2914&#45;&gt;AS3356</title>
<path fill="none" stroke="black" stroke-width="3" d="M432.853,-222.277C447.716,-233.304 468.46,-248.407 487.17,-261 490.719,-263.389 494.469,-265.839 498.217,-268.242"/>
<polygon fill="black" stroke="black" stroke-width="3" points="496.544,-271.325 506.866,-273.712 500.285,-265.409 496.544,-271.325"/>
</g>
<!-- AS174 -->
<g id="node11" class="node"><title>AS174</title>
<g id="a_node11"><a xlink:href="/asn/174" xlink:title="AS174 ~ Cogent Communications [US]">
<ellipse fill="#ffffff" stroke="black" cx="531.366" cy="-72" rx="35.194" ry="18"/>
<text text-anchor="middle" x="531.366" y="-68.3" font-family="Times,serif" font-size="14.00" fill="#2c94b3">AS174</text>
</a>
</g>
</g>
<!-- AS2914&#45;&gt;AS174 -->
<g id="edge10" class="edge"><title>AS2914&#45;&gt;AS174</title>
<path fill="none" stroke="black" d="M437.104,-192.844C442.198,-189.128 447.212,-184.799 451.17,-180 476.234,-149.606 461.336,-128.742 487.17,-99 489.975,-95.7701 493.263,-92.7968 496.75,-90.0984"/>
<polygon fill="black" stroke="black" points="498.885,-92.8776 505.117,-84.3097 494.902,-87.121 498.885,-92.8776"/>
</g>
<!-- AS6762 -->
<g id="node12" class="node"><title>AS6762</title>
<g id="a_node12"><a xlink:href="/asn/6762" xlink:title="AS6762 ~ TELECOM ITALIA SPARKLE S.p.A. [IT]">
<ellipse fill="#ffffff" stroke="black" cx="531.366" cy="-234" rx="39.7935" ry="18"/>
<text text-anchor="middle" x="531.366" y="-230.3" font-family="Times,serif" font-size="14.00" fill="#2c94b3">AS6762</text>
</a>
</g>
</g>
<!-- AS2914&#45;&gt;AS6762 -->
<g id="edge11" class="edge"><title>AS2914&#45;&gt;AS6762</title>
<path fill="none" stroke="black" d="M447.242,-214.955C459.242,-217.704 472.863,-220.825 485.556,-223.733"/>
<polygon fill="black" stroke="black" points="484.958,-227.187 495.487,-226.009 486.522,-220.364 484.958,-227.187"/>
</g>
<!-- AS12956 -->
<g id="node13" class="node"><title>AS12956</title>
<g id="a_node13"><a xlink:href="/asn/12956" xlink:title="AS12956 ~ TELXIUS [ES]">
<ellipse fill="#ffffff" stroke="black" cx="531.366" cy="-18" rx="44.393" ry="18"/>
<text text-anchor="middle" x="531.366" y="-14.3" font-family="Times,serif" font-size="14.00" fill="#2c94b3">AS12956</text>
</a>
</g>
</g>
<!-- AS2914&#45;&gt;AS12956 -->
<g id="edge12" class="edge"><title>AS2914&#45;&gt;AS12956</title>
<path fill="none" stroke="black" d="M437.682,-193.284C442.747,-189.545 447.602,-185.096 451.17,-180 486.783,-129.131 450.266,-94.9414 487.17,-45 489.114,-42.3683 491.399,-39.9334 493.885,-37.6932"/>
<polygon fill="black" stroke="black" points="496.046,-40.4464 501.808,-31.5553 491.759,-34.9127 496.046,-40.4464"/>
</g>
<!-- AS3491 -->
<g id="node14" class="node"><title>AS3491</title>
<g id="a_node14"><a xlink:href="/asn/3491" xlink:title="AS3491 ~ PCCW Global, Inc. [US]">
<ellipse fill="#ffffff" stroke="black" cx="531.366" cy="-180" rx="39.7935" ry="18"/>
<text text-anchor="middle" x="531.366" y="-176.3" font-family="Times,serif" font-size="14.00" fill="#2c94b3">AS3491</text>
</a>
</g>
</g>
<!-- AS2914&#45;&gt;AS3491 -->
<g id="edge13" class="edge"><title>AS2914&#45;&gt;AS3491</title>
<path fill="none" stroke="black" d="M447.242,-199.045C459.242,-196.296 472.863,-193.175 485.556,-190.267"/>
<polygon fill="black" stroke="black" points="486.522,-193.636 495.487,-187.991 484.958,-186.813 486.522,-193.636"/>
</g>
<!-- AS2497 -->
<g id="node15" class="node"><title>AS2497</title>
<g id="a_node15"><a xlink:href="/asn/2497" xlink:title="AS2497 ~ Internet Initiative Japan Inc. [JP]">
<ellipse fill="#ffffff" stroke="black" cx="531.366" cy="-126" rx="39.7935" ry="18"/>
<text text-anchor="middle" x="531.366" y="-122.3" font-family="Times,serif" font-size="14.00" fill="#2c94b3">AS2497</text>
</a>
</g>
</g>
<!-- AS2914&#45;&gt;AS2497 -->
<g id="edge14" class="edge"><title>AS2914&#45;&gt;AS2497</title>
<path fill="none" stroke="black" d="M434.28,-191.991C439.815,-188.121 445.733,-183.936 451.17,-180 467.369,-168.271 470.675,-164.311 487.17,-153 490.698,-150.581 494.435,-148.111 498.177,-145.698"/>
<polygon fill="black" stroke="black" points="500.248,-148.528 506.817,-140.216 496.498,-142.618 500.248,-148.528"/>
</g>
<!-- AS1299&#45;&gt;AS3356 -->
<g id="edge20" class="edge"><title>AS1299&#45;&gt;AS3356</title>
<path fill="none" stroke="black" stroke-width="2" d="M451.436,-288C460.989,-288 471.339,-288 481.301,-288"/>
<polygon fill="black" stroke="black" stroke-width="2" points="481.494,-291.5 491.494,-288 481.494,-284.5 481.494,-291.5"/>
</g>
<!-- AS1299&#45;&gt;AS6762 -->
<g id="edge19" class="edge"><title>AS1299&#45;&gt;AS6762</title>
<path fill="none" stroke="black" d="M440.152,-275.339C456.109,-268.027 476.379,-258.739 493.662,-250.819"/>
<polygon fill="black" stroke="black" points="495.277,-253.929 502.91,-246.581 492.361,-247.565 495.277,-253.929"/>
</g>
<!-- AS7018 -->
<g id="node18" class="node"><title>AS7018</title>
<g id="a_node18"><a xlink:href="/asn/7018" xlink:title="AS7018 ~ AT&amp;T Services, Inc. [US]">
<ellipse fill="#ffffff" stroke="black" cx="531.366" cy="-396" rx="39.7935" ry="18"/>
<text text-anchor="middle" x="531.366" y="-392.3" font-family="Times,serif" font-size="14.00" fill="#2c94b3">AS7018</text>
</a>
</g>
</g>
<!-- AS1299&#45;&gt;AS7018 -->
<g id="edge17" class="edge"><title>AS1299&#45;&gt;AS7018</title>
<path fill="none" stroke="black" d="M425.942,-305.065C440.057,-322.375 463.471,-349.345 487.17,-369 490.386,-371.668 493.886,-374.27 497.457,-376.741"/>
<polygon fill="black" stroke="black" points="495.535,-379.666 505.813,-382.236 499.381,-373.817 495.535,-379.666"/>
</g>
<!-- AS3257 -->
<g id="node19" class="node"><title>AS3257</title>
<g id="a_node19"><a xlink:href="/asn/3257" xlink:title="AS3257 ~ GTT [DE]">
<ellipse fill="#ffffff" stroke="black" cx="531.366" cy="-342" rx="39.7935" ry="18"/>
<text text-anchor="middle" x="531.366" y="-338.3" font-family="Times,serif" font-size="14.00" fill="#2c94b3">AS3257</text>
</a>
</g>
</g>
<!-- AS1299&#45;&gt;AS3257 -->
<g id="edge18" class="edge"><title>AS1299&#45;&gt;AS3257</title>
<path fill="none" stroke="black" d="M440.152,-300.661C456.109,-307.973 476.379,-317.261 493.662,-325.181"/>
<polygon fill="black" stroke="black" points="492.361,-328.435 502.91,-329.419 495.277,-322.071 492.361,-328.435"/>
</g>
<!-- AS3549 -->
<g id="node16" class="node"><title>AS3549</title>
<g id="a_node16"><a xlink:href="/asn/3549" xlink:title="AS3549 ~ Level 3 Parent, LLC [US]">
<ellipse fill="#ffffff" stroke="black" cx="651.208" cy="-315" rx="39.7935" ry="18"/>
<text text-anchor="middle" x="651.208" y="-311.3" font-family="Times,serif" font-size="14.00" fill="#2c94b3">AS3549</text>
</a>
</g>
</g>
<!-- AS3356&#45;&gt;AS3549 -->
<g id="edge15" class="edge"><title>AS3356&#45;&gt;AS3549</title>
<path fill="none" stroke="black" stroke-width="2" d="M567.085,-295.955C579.085,-298.704 592.706,-301.825 605.398,-304.733"/>
<polygon fill="black" stroke="black" stroke-width="2" points="604.801,-308.187 615.33,-307.009 606.364,-301.364 604.801,-308.187"/>
</g>
<!-- AS209 -->
<g id="node17" class="node"><title>AS209</title>
<g id="a_node17"><a xlink:href="/asn/209" xlink:title="AS209 ~ CenturyLink Communications, LLC [US]">
<ellipse fill="#ffffff" stroke="black" cx="651.208" cy="-261" rx="35.194" ry="18"/>
<text text-anchor="middle" x="651.208" y="-257.3" font-family="Times,serif" font-size="14.00" fill="#2c94b3">AS209</text>
</a>
</g>
</g>
<!-- AS3356&#45;&gt;AS209 -->
<g id="edge16" class="edge"><title>AS3356&#45;&gt;AS209</title>
<path fill="none" stroke="black" d="M567.085,-280.045C580.177,-277.045 595.2,-273.604 608.84,-270.478"/>
<polygon fill="black" stroke="black" points="609.982,-273.807 618.948,-268.162 608.418,-266.984 609.982,-273.807"/>
</g>
</g>
</svg>
