<?xml version="1.0" encoding="UTF-8" standalone="no"?>
<!DOCTYPE svg PUBLIC "-//W3C//DTD SVG 1.1//EN"
 "http://www.w3.org/Graphics/SVG/1.1/DTD/svg11.dtd">
<!-- Generated by graphviz version 2.38.0 (20140413.2041)
 -->
<!-- Title: AS206672 IPv4 Upstream Graph Pages: 1 -->
<svg width="459pt" height="422pt"
 viewBox="0.00 0.00 459.17 422.00" xmlns="http://www.w3.org/2000/svg" xmlns:xlink="http://www.w3.org/1999/xlink">
<g id="graph0" class="graph" transform="scale(1 1) rotate(0) translate(4 418)">
<title>AS206672 IPv4 Upstream Graph</title>
<polygon fill="white" stroke="none" points="-4,4 -4,-418 455.17,-418 455.17,4 -4,4"/>
<!-- AS206672 -->
<g id="node1" class="node"><title>AS206672</title>
<g id="a_node1"><a xlink:href="/asn/206672" xlink:title="AS206672 ~ Logispin Austria GmbH [AT]">
<ellipse fill="#ffffff" stroke="black" cx="48.0957" cy="-274" rx="48.1917" ry="18"/>
<text text-anchor="middle" x="48.0957" y="-270.3" font-family="Times,serif" font-size="14.00" fill="#880000">AS206672</text>
</a>
</g>
</g>
<!-- AS20811 -->
<g id="node2" class="node"><title>AS20811</title>
<g id="a_node2"><a xlink:href="/asn/20811" xlink:title="AS20811 ~ Brennercom S.p.A. [IT]">
<ellipse fill="#ffffff" stroke="black" cx="176.388" cy="-315" rx="44.393" ry="18"/>
<text text-anchor="middle" x="176.388" y="-311.3" font-family="Times,serif" font-size="14.00" fill="#2c94b3">AS20811</text>
</a>
</g>
</g>
<!-- AS206672&#45;&gt;AS20811 -->
<g id="edge1" class="edge"><title>AS206672&#45;&gt;AS20811</title>
<path fill="none" stroke="black" stroke-width="0.6" d="M84.9481,-285.639C99.4248,-290.339 116.271,-295.808 131.474,-300.744"/>
<polygon fill="black" stroke="black" stroke-width="0.6" points="130.593,-304.137 141.185,-303.896 132.755,-297.48 130.593,-304.137"/>
</g>
<!-- AS34347 -->
<g id="node3" class="node"><title>AS34347</title>
<g id="a_node3"><a xlink:href="/asn/34347" xlink:title="AS34347 ~ HALLAG Kommunal GmbH [AT]">
<ellipse fill="#ffffff" stroke="black" cx="176.388" cy="-207" rx="44.393" ry="18"/>
<text text-anchor="middle" x="176.388" y="-203.3" font-family="Times,serif" font-size="14.00" fill="#2c94b3">AS34347</text>
</a>
</g>
</g>
<!-- AS206672&#45;&gt;AS34347 -->
<g id="edge2" class="edge"><title>AS206672&#45;&gt;AS34347</title>
<path fill="none" stroke="black" stroke-width="4.5" d="M76.4992,-259.462C94.9949,-249.65 119.591,-236.601 139.626,-225.972"/>
<polygon fill="black" stroke="black" stroke-width="4.5" points="141.483,-229.444 148.471,-221.279 137.792,-222.488 141.483,-229.444"/>
</g>
<!-- AS6461 -->
<g id="node4" class="node"><title>AS6461</title>
<g id="a_node4"><a xlink:href="/asn/6461" xlink:title="AS6461 ~ Zayo Bandwidth [US]">
<ellipse fill="#ffffff" stroke="black" cx="296.23" cy="-369" rx="39.7935" ry="18"/>
<text text-anchor="middle" x="296.23" y="-365.3" font-family="Times,serif" font-size="14.00" fill="#2c94b3">AS6461</text>
</a>
</g>
</g>
<!-- AS20811&#45;&gt;AS6461 -->
<g id="edge3" class="edge"><title>AS20811&#45;&gt;AS6461</title>
<path fill="none" stroke="black" d="M206.517,-328.348C222.128,-335.502 241.526,-344.391 258.198,-352.03"/>
<polygon fill="black" stroke="black" points="257.101,-355.378 267.65,-356.362 260.017,-349.014 257.101,-355.378"/>
</g>
<!-- AS2914 -->
<g id="node5" class="node"><title>AS2914</title>
<g id="a_node5"><a xlink:href="/asn/2914" xlink:title="AS2914 ~ NTT America, Inc. [US]">
<ellipse fill="#ffffff" stroke="black" cx="296.23" cy="-315" rx="39.7935" ry="18"/>
<text text-anchor="middle" x="296.23" y="-311.3" font-family="Times,serif" font-size="14.00" fill="#2c94b3">AS2914</text>
</a>
</g>
</g>
<!-- AS20811&#45;&gt;AS2914 -->
<g id="edge4" class="edge"><title>AS20811&#45;&gt;AS2914</title>
<path fill="none" stroke="black" d="M220.599,-315C228.911,-315 237.674,-315 246.156,-315"/>
<polygon fill="black" stroke="black" points="246.315,-318.5 256.315,-315 246.315,-311.5 246.315,-318.5"/>
</g>
<!-- AS34347&#45;&gt;AS2914 -->
<g id="edge7" class="edge"><title>AS34347&#45;&gt;AS2914</title>
<path fill="none" stroke="black" stroke-width="2.7" d="M195.285,-223.403C215.214,-241.667 247.571,-271.322 270.048,-291.921"/>
<polygon fill="black" stroke="black" stroke-width="2.7" points="267.813,-294.62 277.55,-298.797 272.543,-289.46 267.813,-294.62"/>
</g>
<!-- AS3356 -->
<g id="node6" class="node"><title>AS3356</title>
<g id="a_node6"><a xlink:href="/asn/3356" xlink:title="AS3356 ~ Level 3 Parent, LLC [US]">
<ellipse fill="#ffffff" stroke="black" cx="296.23" cy="-234" rx="39.7935" ry="18"/>
<text text-anchor="middle" x="296.23" y="-230.3" font-family="Times,serif" font-size="14.00" fill="#2c94b3">AS3356</text>
</a>
</g>
</g>
<!-- AS34347&#45;&gt;AS3356 -->
<g id="edge5" class="edge"><title>AS34347&#45;&gt;AS3356</title>
<path fill="none" stroke="black" stroke-width="4.5" d="M215.322,-215.692C226.563,-218.267 238.976,-221.111 250.599,-223.774"/>
<polygon fill="black" stroke="black" stroke-width="4.5" points="249.934,-227.661 260.56,-226.057 251.692,-219.985 249.934,-227.661"/>
</g>
<!-- AS174 -->
<g id="node7" class="node"><title>AS174</title>
<g id="a_node7"><a xlink:href="/asn/174" xlink:title="AS174 ~ Cogent Communications [US]">
<ellipse fill="#ffffff" stroke="black" cx="296.23" cy="-99" rx="35.194" ry="18"/>
<text text-anchor="middle" x="296.23" y="-95.3" font-family="Times,serif" font-size="14.00" fill="#2c94b3">AS174</text>
</a>
</g>
</g>
<!-- AS34347&#45;&gt;AS174 -->
<g id="edge6" class="edge"><title>AS34347&#45;&gt;AS174</title>
<path fill="none" stroke="black" stroke-width="2.7" d="M195.285,-190.597C215.444,-172.122 248.321,-141.991 270.824,-121.368"/>
<polygon fill="black" stroke="black" stroke-width="2.7" points="273.305,-123.841 278.313,-114.504 268.576,-118.681 273.305,-123.841"/>
</g>
<!-- AS1299 -->
<g id="node8" class="node"><title>AS1299</title>
<g id="a_node8"><a xlink:href="/asn/1299" xlink:title="AS1299 ~ Telia Carrier [EU]">
<ellipse fill="#ffffff" stroke="black" cx="296.23" cy="-180" rx="39.7935" ry="18"/>
<text text-anchor="middle" x="296.23" y="-176.3" font-family="Times,serif" font-size="14.00" fill="#2c94b3">AS1299</text>
</a>
</g>
</g>
<!-- AS34347&#45;&gt;AS1299 -->
<g id="edge8" class="edge"><title>AS34347&#45;&gt;AS1299</title>
<path fill="none" stroke="black" stroke-width="2.7" d="M215.322,-198.308C226.563,-195.733 238.976,-192.889 250.599,-190.226"/>
<polygon fill="black" stroke="black" stroke-width="2.7" points="251.595,-193.588 260.56,-187.943 250.031,-186.765 251.595,-193.588"/>
</g>
<!-- AS6762 -->
<g id="node9" class="node"><title>AS6762</title>
<g id="a_node9"><a xlink:href="/asn/6762" xlink:title="AS6762 ~ TELECOM ITALIA SPARKLE S.p.A. [IT]">
<ellipse fill="#ffffff" stroke="black" cx="296.23" cy="-45" rx="39.7935" ry="18"/>
<text text-anchor="middle" x="296.23" y="-41.3" font-family="Times,serif" font-size="14.00" fill="#2c94b3">AS6762</text>
</a>
</g>
</g>
<!-- AS34347&#45;&gt;AS6762 -->
<g id="edge9" class="edge"><title>AS34347&#45;&gt;AS6762</title>
<path fill="none" stroke="black" stroke-width="0.9" d="M184.803,-189.239C196.872,-161.817 222.843,-108.527 256.584,-72 258.614,-69.8018 260.853,-67.6807 263.199,-65.6596"/>
<polygon fill="black" stroke="black" stroke-width="0.9" points="265.726,-68.1262 271.443,-59.2062 261.411,-62.6142 265.726,-68.1262"/>
</g>
<!-- AS2497 -->
<g id="node12" class="node"><title>AS2497</title>
<g id="a_node12"><a xlink:href="/asn/2497" xlink:title="AS2497 ~ Internet Initiative Japan Inc. [JP]">
<ellipse fill="#ffffff" stroke="black" cx="411.523" cy="-342" rx="39.7935" ry="18"/>
<text text-anchor="middle" x="411.523" y="-338.3" font-family="Times,serif" font-size="14.00" fill="#2c94b3">AS2497</text>
</a>
</g>
</g>
<!-- AS2914&#45;&gt;AS2497 -->
<g id="edge16" class="edge"><title>AS2914&#45;&gt;AS2497</title>
<path fill="none" stroke="black" d="M331.837,-323.248C342.709,-325.838 354.863,-328.735 366.305,-331.462"/>
<polygon fill="black" stroke="black" points="365.589,-334.889 376.128,-333.803 367.212,-328.08 365.589,-334.889"/>
</g>
<!-- AS701 -->
<g id="node16" class="node"><title>AS701</title>
<g id="a_node16"><a xlink:href="/asn/701" xlink:title="AS701 ~ UUNET [US]">
<ellipse fill="#ffffff" stroke="black" cx="411.523" cy="-396" rx="35.194" ry="18"/>
<text text-anchor="middle" x="411.523" y="-392.3" font-family="Times,serif" font-size="14.00" fill="#2c94b3">AS701</text>
</a>
</g>
</g>
<!-- AS2914&#45;&gt;AS701 -->
<g id="edge17" class="edge"><title>AS2914&#45;&gt;AS701</title>
<path fill="none" stroke="black" d="M318.987,-330.009C324.522,-333.879 330.44,-338.064 335.877,-342 352.076,-353.729 355.677,-357.271 371.877,-369 374.905,-371.193 378.084,-373.463 381.263,-375.713"/>
<polygon fill="black" stroke="black" points="379.379,-378.667 389.573,-381.555 383.405,-372.941 379.379,-378.667"/>
</g>
<!-- AS3549 -->
<g id="node10" class="node"><title>AS3549</title>
<g id="a_node10"><a xlink:href="/asn/3549" xlink:title="AS3549 ~ Level 3 Parent, LLC [US]">
<ellipse fill="#ffffff" stroke="black" cx="411.523" cy="-288" rx="39.7935" ry="18"/>
<text text-anchor="middle" x="411.523" y="-284.3" font-family="Times,serif" font-size="14.00" fill="#2c94b3">AS3549</text>
</a>
</g>
</g>
<!-- AS3356&#45;&gt;AS3549 -->
<g id="edge10" class="edge"><title>AS3356&#45;&gt;AS3549</title>
<path fill="none" stroke="black" d="M324.367,-246.934C339.361,-254.081 358.182,-263.052 374.405,-270.785"/>
<polygon fill="black" stroke="black" points="373.075,-274.028 383.608,-275.171 376.087,-267.709 373.075,-274.028"/>
</g>
<!-- AS3257 -->
<g id="node11" class="node"><title>AS3257</title>
<g id="a_node11"><a xlink:href="/asn/3257" xlink:title="AS3257 ~ GTT [DE]">
<ellipse fill="#ffffff" stroke="black" cx="411.523" cy="-180" rx="39.7935" ry="18"/>
<text text-anchor="middle" x="411.523" y="-176.3" font-family="Times,serif" font-size="14.00" fill="#2c94b3">AS3257</text>
</a>
</g>
</g>
<!-- AS3356&#45;&gt;AS3257 -->
<g id="edge11" class="edge"><title>AS3356&#45;&gt;AS3257</title>
<path fill="none" stroke="black" d="M324.367,-221.066C339.361,-213.919 358.182,-204.948 374.405,-197.215"/>
<polygon fill="black" stroke="black" points="376.087,-200.291 383.608,-192.829 373.075,-193.972 376.087,-200.291"/>
</g>
<!-- AS3356&#45;&gt;AS2497 -->
<g id="edge12" class="edge"><title>AS3356&#45;&gt;AS2497</title>
<path fill="none" stroke="black" d="M310.86,-250.817C325.143,-267.929 348.689,-294.745 371.877,-315 374.342,-317.154 376.981,-319.294 379.678,-321.372"/>
<polygon fill="black" stroke="black" points="377.703,-324.264 387.832,-327.37 381.851,-318.625 377.703,-324.264"/>
</g>
<!-- AS6453 -->
<g id="node13" class="node"><title>AS6453</title>
<g id="a_node13"><a xlink:href="/asn/6453" xlink:title="AS6453 ~ TATA COMMUNICATIONS (AMERICA) INC [US]">
<ellipse fill="#ffffff" stroke="black" cx="411.523" cy="-234" rx="39.7935" ry="18"/>
<text text-anchor="middle" x="411.523" y="-230.3" font-family="Times,serif" font-size="14.00" fill="#2c94b3">AS6453</text>
</a>
</g>
</g>
<!-- AS3356&#45;&gt;AS6453 -->
<g id="edge13" class="edge"><title>AS3356&#45;&gt;AS6453</title>
<path fill="none" stroke="black" d="M335.902,-234C344.105,-234 352.869,-234 361.401,-234"/>
<polygon fill="black" stroke="black" points="361.641,-237.5 371.641,-234 361.641,-230.5 361.641,-237.5"/>
</g>
<!-- AS3491 -->
<g id="node14" class="node"><title>AS3491</title>
<g id="a_node14"><a xlink:href="/asn/3491" xlink:title="AS3491 ~ PCCW Global, Inc. [US]">
<ellipse fill="#ffffff" stroke="black" cx="411.523" cy="-72" rx="39.7935" ry="18"/>
<text text-anchor="middle" x="411.523" y="-68.3" font-family="Times,serif" font-size="14.00" fill="#2c94b3">AS3491</text>
</a>
</g>
</g>
<!-- AS174&#45;&gt;AS3491 -->
<g id="edge14" class="edge"><title>AS174&#45;&gt;AS3491</title>
<path fill="none" stroke="black" d="M328.488,-91.5507C340.168,-88.7671 353.663,-85.5509 366.293,-82.541"/>
<polygon fill="black" stroke="black" points="367.268,-85.9066 376.184,-80.1836 365.645,-79.0973 367.268,-85.9066"/>
</g>
<!-- AS1239 -->
<g id="node15" class="node"><title>AS1239</title>
<g id="a_node15"><a xlink:href="/asn/1239" xlink:title="AS1239 ~ Sprint [US]">
<ellipse fill="#ffffff" stroke="black" cx="411.523" cy="-18" rx="39.7935" ry="18"/>
<text text-anchor="middle" x="411.523" y="-14.3" font-family="Times,serif" font-size="14.00" fill="#2c94b3">AS1239</text>
</a>
</g>
</g>
<!-- AS174&#45;&gt;AS1239 -->
<g id="edge15" class="edge"><title>AS174&#45;&gt;AS1239</title>
<path fill="none" stroke="black" d="M318.18,-84.5548C323.943,-80.5294 330.175,-76.1279 335.877,-72 352.076,-60.2712 355.677,-56.7288 371.877,-45 374.68,-42.9706 377.611,-40.875 380.552,-38.7905"/>
<polygon fill="black" stroke="black" points="382.603,-41.627 388.766,-33.0092 378.574,-35.9026 382.603,-41.627"/>
</g>
<!-- AS1299&#45;&gt;AS3257 -->
<g id="edge18" class="edge"><title>AS1299&#45;&gt;AS3257</title>
<path fill="none" stroke="black" d="M335.902,-180C344.105,-180 352.869,-180 361.401,-180"/>
<polygon fill="black" stroke="black" points="361.641,-183.5 371.641,-180 361.641,-176.5 361.641,-183.5"/>
</g>
<!-- AS7018 -->
<g id="node17" class="node"><title>AS7018</title>
<g id="a_node17"><a xlink:href="/asn/7018" xlink:title="AS7018 ~ AT&amp;T Services, Inc. [US]">
<ellipse fill="#ffffff" stroke="black" cx="411.523" cy="-126" rx="39.7935" ry="18"/>
<text text-anchor="middle" x="411.523" y="-122.3" font-family="Times,serif" font-size="14.00" fill="#2c94b3">AS7018</text>
</a>
</g>
</g>
<!-- AS1299&#45;&gt;AS7018 -->
<g id="edge19" class="edge"><title>AS1299&#45;&gt;AS7018</title>
<path fill="none" stroke="black" d="M324.367,-167.066C339.361,-159.919 358.182,-150.948 374.405,-143.215"/>
<polygon fill="black" stroke="black" points="376.087,-146.291 383.608,-138.829 373.075,-139.972 376.087,-146.291"/>
</g>
</g>
</svg>
