<?xml version="1.0" encoding="UTF-8" standalone="no"?>
<!DOCTYPE svg PUBLIC "-//W3C//DTD SVG 1.1//EN"
 "http://www.w3.org/Graphics/SVG/1.1/DTD/svg11.dtd">
<!-- Generated by graphviz version 2.38.0 (20140413.2041)
 -->
<!-- Title: AS206672 IPv4 Upstream Graph Pages: 1 -->
<svg width="946pt" height="615pt"
 viewBox="0.00 0.00 946.34 615.00" xmlns="http://www.w3.org/2000/svg" xmlns:xlink="http://www.w3.org/1999/xlink">
<g id="graph0" class="graph" transform="scale(1 1) rotate(0) translate(4 611)">
<title>AS206672 IPv4 Upstream Graph</title>
<polygon fill="white" stroke="none" points="-4,4 -4,-611 942.339,-611 942.339,4 -4,4"/>
<!-- AS206672 -->
<g id="node1" class="node"><title>AS206672</title>
<g id="a_node1"><a xlink:href="/asn/206672" xlink:title="AS206672 ~ Logispin Austria GmbH [AT]">
<ellipse fill="#ffffff" stroke="black" cx="48.0957" cy="-423" rx="48.1917" ry="18"/>
<text text-anchor="middle" x="48.0957" y="-419.3" font-family="Times,serif" font-size="14.00" fill="#880000">AS206672</text>
</a>
</g>
</g>
<!-- AS20811 -->
<g id="node2" class="node"><title>AS20811</title>
<g id="a_node2"><a xlink:href="/asn/20811" xlink:title="AS20811 ~ Brennercom S.p.A. [IT]">
<ellipse fill="#ffffff" stroke="black" cx="308.579" cy="-589" rx="44.393" ry="18"/>
<text text-anchor="middle" x="308.579" y="-585.3" font-family="Times,serif" font-size="14.00" fill="#2c94b3">AS20811</text>
</a>
</g>
</g>
<!-- AS206672&#45;&gt;AS20811 -->
<g id="edge1" class="edge"><title>AS206672&#45;&gt;AS20811</title>
<path fill="none" stroke="black" stroke-width="0.195652" d="M73.4132,-438.617C120.221,-468.677 222.844,-534.583 275.308,-568.275"/>
<polygon fill="black" stroke="black" stroke-width="0.195652" points="273.583,-571.327 283.889,-573.786 277.366,-565.437 273.583,-571.327"/>
</g>
<!-- AS34347 -->
<g id="node3" class="node"><title>AS34347</title>
<g id="a_node3"><a xlink:href="/asn/34347" xlink:title="AS34347 ~ Stadtwerke Hall in Tirol GmbH [AT]">
<ellipse fill="#ffffff" stroke="black" cx="180.287" cy="-231" rx="44.393" ry="18"/>
<text text-anchor="middle" x="180.287" y="-227.3" font-family="Times,serif" font-size="14.00" fill="#2c94b3">AS34347</text>
</a>
</g>
</g>
<!-- AS206672&#45;&gt;AS34347 -->
<g id="edge2" class="edge"><title>AS206672&#45;&gt;AS34347</title>
<path fill="none" stroke="black" stroke-width="3.32609" d="M60.879,-405.623C83.8649,-371.724 134.791,-296.621 161.753,-256.859"/>
<polygon fill="black" stroke="black" stroke-width="3.32609" points="164.721,-258.717 167.437,-248.476 158.928,-254.789 164.721,-258.717"/>
</g>
<!-- AS393676 -->
<g id="node4" class="node"><title>AS393676</title>
<g id="a_node4"><a xlink:href="/asn/393676" xlink:title="AS393676 ~ Oracle Corporation [US]">
<ellipse fill="#ffffff" stroke="black" cx="180.287" cy="-423" rx="48.1917" ry="18"/>
<text text-anchor="middle" x="180.287" y="-419.3" font-family="Times,serif" font-size="14.00" fill="#2c94b3">AS393676</text>
</a>
</g>
</g>
<!-- AS206672&#45;&gt;AS393676 -->
<g id="edge3" class="edge"><title>AS206672&#45;&gt;AS393676</title>
<path fill="none" stroke="black" stroke-width="4.5" d="M96.4661,-423C104.736,-423 113.42,-423 121.924,-423"/>
<polygon fill="black" stroke="black" stroke-width="4.5" points="122.17,-426.938 132.17,-423 122.17,-419.063 122.17,-426.938"/>
</g>
<!-- AS6461 -->
<g id="node5" class="node"><title>AS6461</title>
<g id="a_node5"><a xlink:href="/asn/6461" xlink:title="AS6461 ~ Zayo Bandwidth [US]">
<ellipse fill="#ffffff" stroke="black" cx="898.693" cy="-544" rx="39.7935" ry="18"/>
<text text-anchor="middle" x="898.693" y="-540.3" font-family="Times,serif" font-size="14.00" fill="#2c94b3">AS6461</text>
</a>
</g>
</g>
<!-- AS20811&#45;&gt;AS6461 -->
<g id="edge4" class="edge"><title>AS20811&#45;&gt;AS6461</title>
<path fill="none" stroke="black" d="M352.973,-587.811C399.788,-586.632 476.528,-585 542.715,-585 542.715,-585 542.715,-585 664.557,-585 731.942,-585 808.649,-568.18 855.092,-556.087"/>
<polygon fill="black" stroke="black" points="856.042,-559.456 864.811,-553.509 854.248,-552.689 856.042,-559.456"/>
</g>
<!-- AS174 -->
<g id="node6" class="node"><title>AS174</title>
<g id="a_node6"><a xlink:href="/asn/174" xlink:title="AS174 ~ Cogent Communications [US]">
<ellipse fill="#ffffff" stroke="black" cx="308.579" cy="-198" rx="35.194" ry="18"/>
<text text-anchor="middle" x="308.579" y="-194.3" font-family="Times,serif" font-size="14.00" fill="#2c94b3">AS174</text>
</a>
</g>
</g>
<!-- AS34347&#45;&gt;AS174 -->
<g id="edge5" class="edge"><title>AS34347&#45;&gt;AS174</title>
<path fill="none" stroke="black" stroke-width="2.7" d="M217.816,-221.455C233.234,-217.426 251.243,-212.721 267.067,-208.586"/>
<polygon fill="black" stroke="black" stroke-width="2.7" points="268.31,-211.879 277.1,-205.964 266.54,-205.106 268.31,-211.879"/>
</g>
<!-- AS1299 -->
<g id="node7" class="node"><title>AS1299</title>
<g id="a_node7"><a xlink:href="/asn/1299" xlink:title="AS1299 ~ Telia Carrier [EU]">
<ellipse fill="#ffffff" stroke="black" cx="308.579" cy="-383" rx="39.7935" ry="18"/>
<text text-anchor="middle" x="308.579" y="-379.3" font-family="Times,serif" font-size="14.00" fill="#2c94b3">AS1299</text>
</a>
</g>
</g>
<!-- AS34347&#45;&gt;AS1299 -->
<g id="edge6" class="edge"><title>AS34347&#45;&gt;AS1299</title>
<path fill="none" stroke="black" stroke-width="2.7" d="M195.529,-248.141C217.913,-275.081 261.422,-327.447 287.141,-358.402"/>
<polygon fill="black" stroke="black" stroke-width="2.7" points="284.499,-360.699 293.582,-366.154 289.883,-356.225 284.499,-360.699"/>
</g>
<!-- AS3356 -->
<g id="node8" class="node"><title>AS3356</title>
<g id="a_node8"><a xlink:href="/asn/3356" xlink:title="AS3356 ~ Level 3 Parent, LLC [US]">
<ellipse fill="#ffffff" stroke="black" cx="428.422" cy="-328" rx="39.7935" ry="18"/>
<text text-anchor="middle" x="428.422" y="-324.3" font-family="Times,serif" font-size="14.00" fill="#2c94b3">AS3356</text>
</a>
</g>
</g>
<!-- AS34347&#45;&gt;AS3356 -->
<g id="edge7" class="edge"><title>AS34347&#45;&gt;AS3356</title>
<path fill="none" stroke="black" stroke-width="4.5" d="M212.71,-243.384C257.45,-261.015 339.469,-293.339 388.157,-312.526"/>
<polygon fill="black" stroke="black" stroke-width="4.5" points="386.975,-316.292 397.722,-316.296 389.862,-308.966 386.975,-316.292"/>
</g>
<!-- AS2914 -->
<g id="node9" class="node"><title>AS2914</title>
<g id="a_node9"><a xlink:href="/asn/2914" xlink:title="AS2914 ~ NTT America, Inc. [US]">
<ellipse fill="#ffffff" stroke="black" cx="663.557" cy="-160" rx="39.7935" ry="18"/>
<text text-anchor="middle" x="663.557" y="-156.3" font-family="Times,serif" font-size="14.00" fill="#2c94b3">AS2914</text>
</a>
</g>
</g>
<!-- AS34347&#45;&gt;AS2914 -->
<g id="edge8" class="edge"><title>AS34347&#45;&gt;AS2914</title>
<path fill="none" stroke="black" stroke-width="4.5" d="M198.485,-214.443C214.267,-200.328 238.988,-180.813 264.383,-171 384.365,-124.639 540.193,-139.84 616.44,-151.619"/>
<polygon fill="black" stroke="black" stroke-width="4.5" points="616.162,-155.562 626.658,-153.252 617.405,-147.786 616.162,-155.562"/>
</g>
<!-- AS6762 -->
<g id="node10" class="node"><title>AS6762</title>
<g id="a_node10"><a xlink:href="/asn/6762" xlink:title="AS6762 ~ TELECOM ITALIA SPARKLE S.p.A. [IT]">
<ellipse fill="#ffffff" stroke="black" cx="898.693" cy="-370" rx="39.7935" ry="18"/>
<text text-anchor="middle" x="898.693" y="-366.3" font-family="Times,serif" font-size="14.00" fill="#2c94b3">AS6762</text>
</a>
</g>
</g>
<!-- AS34347&#45;&gt;AS6762 -->
<g id="edge9" class="edge"><title>AS34347&#45;&gt;AS6762</title>
<path fill="none" stroke="black" stroke-width="0.9" d="M189.405,-213.257C215.506,-159.166 302.89,-0 427.422,-0 427.422,-0 427.422,-0 664.557,-0 740.523,-4.65157e-15 773.348,-6.54603 823.046,-64 859.391,-106.017 885.066,-274.106 894.113,-341.669"/>
<polygon fill="black" stroke="black" stroke-width="0.9" points="890.695,-342.521 895.468,-351.98 897.635,-341.609 890.695,-342.521"/>
</g>
<!-- AS393676&#45;&gt;AS174 -->
<g id="edge30" class="edge"><title>AS393676&#45;&gt;AS174</title>
<path fill="none" stroke="black" stroke-width="3.85714" d="M191.197,-405.345C213.338,-365.898 266.915,-270.447 292.925,-224.108"/>
<polygon fill="black" stroke="black" stroke-width="3.85714" points="296.046,-225.698 297.889,-215.264 289.942,-222.271 296.046,-225.698"/>
</g>
<!-- AS393676&#45;&gt;AS1299 -->
<g id="edge28" class="edge"><title>AS393676&#45;&gt;AS1299</title>
<path fill="none" stroke="black" stroke-width="2.57143" d="M217.477,-411.538C232.545,-406.765 250.133,-401.195 265.75,-396.248"/>
<polygon fill="black" stroke="black" stroke-width="2.57143" points="267.206,-399.459 275.682,-393.103 265.092,-392.785 267.206,-399.459"/>
</g>
<!-- AS6453 -->
<g id="node15" class="node"><title>AS6453</title>
<g id="a_node15"><a xlink:href="/asn/6453" xlink:title="AS6453 ~ TATA COMMUNICATIONS (AMERICA) INC [US]">
<ellipse fill="#ffffff" stroke="black" cx="543.715" cy="-328" rx="39.7935" ry="18"/>
<text text-anchor="middle" x="543.715" y="-324.3" font-family="Times,serif" font-size="14.00" fill="#2c94b3">AS6453</text>
</a>
</g>
</g>
<!-- AS393676&#45;&gt;AS6453 -->
<g id="edge31" class="edge"><title>AS393676&#45;&gt;AS6453</title>
<path fill="none" stroke="black" stroke-width="4.5" d="M224.041,-430.83C282.289,-439.392 388.435,-447.373 468.068,-410 493.458,-398.084 514.125,-373.174 527.221,-353.918"/>
<polygon fill="black" stroke="black" stroke-width="4.5" points="530.524,-356.062 532.696,-345.536 523.931,-351.755 530.524,-356.062"/>
</g>
<!-- AS3257 -->
<g id="node16" class="node"><title>AS3257</title>
<g id="a_node16"><a xlink:href="/asn/3257" xlink:title="AS3257 ~ GTT [DE]">
<ellipse fill="#ffffff" stroke="black" cx="783.4" cy="-421" rx="39.7935" ry="18"/>
<text text-anchor="middle" x="783.4" y="-417.3" font-family="Times,serif" font-size="14.00" fill="#2c94b3">AS3257</text>
</a>
</g>
</g>
<!-- AS393676&#45;&gt;AS3257 -->
<g id="edge29" class="edge"><title>AS393676&#45;&gt;AS3257</title>
<path fill="none" stroke="black" stroke-width="3.85714" d="M213.463,-436.066C228.635,-441.545 247.154,-447.271 264.383,-450 303.185,-456.146 313.494,-450.553 352.775,-450 510.59,-447.778 551.438,-461.821 707.753,-440 718.392,-438.515 729.704,-436.091 740.219,-433.464"/>
<polygon fill="black" stroke="black" stroke-width="3.85714" points="741.218,-436.82 750.008,-430.907 739.448,-430.048 741.218,-436.82"/>
</g>
<!-- AS174&#45;&gt;AS3356 -->
<g id="edge12" class="edge"><title>AS174&#45;&gt;AS3356</title>
<path fill="none" stroke="black" d="M324.266,-214.202C344.618,-236.654 381.566,-277.413 405.276,-303.57"/>
<polygon fill="black" stroke="black" points="402.867,-306.123 412.176,-311.182 408.053,-301.422 402.867,-306.123"/>
</g>
<!-- AS174&#45;&gt;AS2914 -->
<g id="edge14" class="edge"><title>AS174&#45;&gt;AS2914</title>
<path fill="none" stroke="black" d="M336.185,-186.779C351.316,-180.948 370.782,-174.355 388.775,-171 466.535,-156.499 558.789,-156.195 613.9,-157.763"/>
<polygon fill="black" stroke="black" points="613.973,-161.267 624.079,-158.086 614.195,-154.271 613.973,-161.267"/>
</g>
<!-- AS3491 -->
<g id="node11" class="node"><title>AS3491</title>
<g id="a_node11"><a xlink:href="/asn/3491" xlink:title="AS3491 ~ PCCW Global, Inc. [US]">
<ellipse fill="#ffffff" stroke="black" cx="783.4" cy="-160" rx="39.7935" ry="18"/>
<text text-anchor="middle" x="783.4" y="-156.3" font-family="Times,serif" font-size="14.00" fill="#2c94b3">AS3491</text>
</a>
</g>
</g>
<!-- AS174&#45;&gt;AS3491 -->
<g id="edge10" class="edge"><title>AS174&#45;&gt;AS3491</title>
<path fill="none" stroke="black" stroke-width="2" d="M331.165,-184.001C346.581,-174.726 368.157,-163.169 388.775,-157 524.979,-116.25 567.72,-108.453 707.753,-133 720.267,-135.194 733.448,-139.309 745.193,-143.677"/>
<polygon fill="black" stroke="black" stroke-width="2" points="744.087,-147.002 754.675,-147.369 746.627,-140.479 744.087,-147.002"/>
</g>
<!-- AS1239 -->
<g id="node12" class="node"><title>AS1239</title>
<g id="a_node12"><a xlink:href="/asn/1239" xlink:title="AS1239 ~ Sprint [US]">
<ellipse fill="#ffffff" stroke="black" cx="428.422" cy="-198" rx="39.7935" ry="18"/>
<text text-anchor="middle" x="428.422" y="-194.3" font-family="Times,serif" font-size="14.00" fill="#2c94b3">AS1239</text>
</a>
</g>
</g>
<!-- AS174&#45;&gt;AS1239 -->
<g id="edge11" class="edge"><title>AS174&#45;&gt;AS1239</title>
<path fill="none" stroke="black" stroke-width="2" d="M343.981,-198C354.805,-198 366.972,-198 378.599,-198"/>
<polygon fill="black" stroke="black" stroke-width="2" points="378.63,-201.5 388.63,-198 378.63,-194.5 378.63,-201.5"/>
</g>
<!-- AS701 -->
<g id="node13" class="node"><title>AS701</title>
<g id="a_node13"><a xlink:href="/asn/701" xlink:title="AS701 ~ UUNET [US]">
<ellipse fill="#ffffff" stroke="black" cx="783.4" cy="-91" rx="35.194" ry="18"/>
<text text-anchor="middle" x="783.4" y="-87.3" font-family="Times,serif" font-size="14.00" fill="#2c94b3">AS701</text>
</a>
</g>
</g>
<!-- AS174&#45;&gt;AS701 -->
<g id="edge13" class="edge"><title>AS174&#45;&gt;AS701</title>
<path fill="none" stroke="black" d="M334.331,-185.653C340.639,-181.986 347.205,-177.684 352.775,-173 371.851,-156.958 366.921,-141.984 388.775,-130 502.786,-67.4821 663.477,-76.1091 739.427,-84.84"/>
<polygon fill="black" stroke="black" points="739.22,-88.3404 749.568,-86.0652 740.06,-81.3909 739.22,-88.3404"/>
</g>
<!-- AS1299&#45;&gt;AS6461 -->
<g id="edge27" class="edge"><title>AS1299&#45;&gt;AS6461</title>
<path fill="none" stroke="black" d="M331.194,-397.98C346.623,-408.054 368.203,-420.921 388.775,-429 551.548,-492.926 758.249,-525.837 850.049,-538.156"/>
<polygon fill="black" stroke="black" points="849.769,-541.65 860.141,-539.489 850.686,-534.71 849.769,-541.65"/>
</g>
<!-- AS1299&#45;&gt;AS3356 -->
<g id="edge26" class="edge"><title>AS1299&#45;&gt;AS3356</title>
<path fill="none" stroke="black" d="M336.911,-370.244C352.974,-362.747 373.484,-353.174 390.917,-345.037"/>
<polygon fill="black" stroke="black" points="392.657,-348.088 400.238,-340.687 389.696,-341.745 392.657,-348.088"/>
</g>
<!-- AS1299&#45;&gt;AS2914 -->
<g id="edge25" class="edge"><title>AS1299&#45;&gt;AS2914</title>
<path fill="none" stroke="black" d="M323.238,-366.185C352.532,-331.28 425.178,-250.743 504.068,-209 539.787,-190.1 583.964,-177.198 616.596,-169.397"/>
<polygon fill="black" stroke="black" points="617.808,-172.709 626.76,-167.042 616.228,-165.889 617.808,-172.709"/>
</g>
<!-- AS1299&#45;&gt;AS3257 -->
<g id="edge23" class="edge"><title>AS1299&#45;&gt;AS3257</title>
<path fill="none" stroke="black" d="M338.374,-395.067C353.164,-400.683 371.637,-406.814 388.775,-410 511.385,-432.792 659.126,-428.687 733.926,-424.445"/>
<polygon fill="black" stroke="black" points="734.211,-427.934 743.986,-423.848 733.796,-420.946 734.211,-427.934"/>
</g>
<!-- AS7018 -->
<g id="node18" class="node"><title>AS7018</title>
<g id="a_node18"><a xlink:href="/asn/7018" xlink:title="AS7018 ~ AT&amp;T Services, Inc. [US]">
<ellipse fill="#ffffff" stroke="black" cx="428.422" cy="-383" rx="39.7935" ry="18"/>
<text text-anchor="middle" x="428.422" y="-379.3" font-family="Times,serif" font-size="14.00" fill="#2c94b3">AS7018</text>
</a>
</g>
</g>
<!-- AS1299&#45;&gt;AS7018 -->
<g id="edge24" class="edge"><title>AS1299&#45;&gt;AS7018</title>
<path fill="none" stroke="black" d="M348.492,-383C358.045,-383 368.395,-383 378.357,-383"/>
<polygon fill="black" stroke="black" points="378.55,-386.5 388.55,-383 378.55,-379.5 378.55,-386.5"/>
</g>
<!-- AS3549 -->
<g id="node14" class="node"><title>AS3549</title>
<g id="a_node14"><a xlink:href="/asn/3549" xlink:title="AS3549 ~ Level 3 Parent, LLC [US]">
<ellipse fill="#ffffff" stroke="black" cx="543.715" cy="-236" rx="39.7935" ry="18"/>
<text text-anchor="middle" x="543.715" y="-232.3" font-family="Times,serif" font-size="14.00" fill="#2c94b3">AS3549</text>
</a>
</g>
</g>
<!-- AS3356&#45;&gt;AS3549 -->
<g id="edge15" class="edge"><title>AS3356&#45;&gt;AS3549</title>
<path fill="none" stroke="black" stroke-width="2" d="M448.64,-312.393C467.032,-297.458 494.952,-274.786 515.602,-258.017"/>
<polygon fill="black" stroke="black" stroke-width="2" points="517.845,-260.704 523.402,-251.683 513.432,-255.27 517.845,-260.704"/>
</g>
<!-- AS3356&#45;&gt;AS6453 -->
<g id="edge16" class="edge"><title>AS3356&#45;&gt;AS6453</title>
<path fill="none" stroke="black" d="M465.58,-321.659C475.39,-321.25 486.149,-321.148 496.435,-321.351"/>
<polygon fill="black" stroke="black" points="496.41,-324.852 506.511,-321.657 496.622,-317.855 496.41,-324.852"/>
</g>
<!-- AS3356&#45;&gt;AS3257 -->
<g id="edge17" class="edge"><title>AS3356&#45;&gt;AS3257</title>
<path fill="none" stroke="black" d="M466.353,-333.749C478.293,-337.672 491.654,-342.296 504.068,-346 587.894,-371.01 688.138,-392.85 742.52,-406.973"/>
<polygon fill="black" stroke="black" points="741.883,-410.425 752.446,-409.607 743.678,-403.659 741.883,-410.425"/>
</g>
<!-- AS2497 -->
<g id="node17" class="node"><title>AS2497</title>
<g id="a_node17"><a xlink:href="/asn/2497" xlink:title="AS2497 ~ Internet Initiative Japan Inc. [JP]">
<ellipse fill="#ffffff" stroke="black" cx="783.4" cy="-244" rx="39.7935" ry="18"/>
<text text-anchor="middle" x="783.4" y="-240.3" font-family="Times,serif" font-size="14.00" fill="#2c94b3">AS2497</text>
</a>
</g>
</g>
<!-- AS3356&#45;&gt;AS2497 -->
<g id="edge18" class="edge"><title>AS3356&#45;&gt;AS2497</title>
<path fill="none" stroke="black" d="M459.461,-316.791C473.036,-311.814 489.31,-305.97 504.068,-301 554.941,-283.866 566.92,-276.473 619.361,-265 657.474,-256.662 701.374,-251.241 734.013,-247.999"/>
<polygon fill="black" stroke="black" points="734.572,-251.461 744.192,-247.022 733.903,-244.493 734.572,-251.461"/>
</g>
<!-- AS2914&#45;&gt;AS3491 -->
<g id="edge22" class="edge"><title>AS2914&#45;&gt;AS3491</title>
<path fill="none" stroke="black" d="M703.47,-160C713.023,-160 723.373,-160 733.335,-160"/>
<polygon fill="black" stroke="black" points="733.528,-163.5 743.528,-160 733.528,-156.5 733.528,-163.5"/>
</g>
<!-- AS2914&#45;&gt;AS701 -->
<g id="edge19" class="edge"><title>AS2914&#45;&gt;AS701</title>
<path fill="none" stroke="black" d="M688.689,-145.87C706.593,-135.387 731.174,-120.994 750.669,-109.579"/>
<polygon fill="black" stroke="black" points="752.64,-112.481 759.502,-104.407 749.103,-106.44 752.64,-112.481"/>
</g>
<!-- AS2914&#45;&gt;AS3257 -->
<g id="edge20" class="edge"><title>AS2914&#45;&gt;AS3257</title>
<path fill="none" stroke="black" d="M674.201,-177.447C696.09,-222.187 749.381,-340.175 771.987,-393.897"/>
<polygon fill="black" stroke="black" points="768.763,-395.26 775.836,-403.148 775.226,-392.571 768.763,-395.26"/>
</g>
<!-- AS2914&#45;&gt;AS2497 -->
<g id="edge21" class="edge"><title>AS2914&#45;&gt;AS2497</title>
<path fill="none" stroke="black" d="M685.625,-175.018C704.361,-188.373 731.952,-208.04 752.885,-222.961"/>
<polygon fill="black" stroke="black" points="750.942,-225.875 761.117,-228.829 755.005,-220.175 750.942,-225.875"/>
</g>
<!-- AS6453&#45;&gt;AS3356 -->
<g id="edge40" class="edge"><title>AS6453&#45;&gt;AS3356</title>
<path fill="none" stroke="black" d="M506.511,-334.343C496.698,-334.75 485.939,-334.852 475.654,-334.648"/>
<polygon fill="black" stroke="black" points="475.681,-331.147 465.58,-334.341 475.469,-338.144 475.681,-331.147"/>
</g>
<!-- AS6453&#45;&gt;AS2914 -->
<g id="edge41" class="edge"><title>AS6453&#45;&gt;AS2914</title>
<path fill="none" stroke="black" d="M555.535,-310.529C563.469,-297.548 574.377,-279.335 583.361,-263 600.411,-231.999 596.535,-219.032 619.361,-192 622.737,-188.002 626.705,-184.221 630.846,-180.753"/>
<polygon fill="black" stroke="black" points="633.154,-183.391 638.908,-174.495 628.862,-177.862 633.154,-183.391"/>
</g>
<!-- AS6453&#45;&gt;AS6762 -->
<g id="edge39" class="edge"><title>AS6453&#45;&gt;AS6762</title>
<path fill="none" stroke="black" d="M572.862,-340.396C586.61,-345.874 603.56,-351.79 619.361,-355 698.44,-371.067 792.592,-372.567 848.629,-371.66"/>
<polygon fill="black" stroke="black" points="849.044,-375.153 858.974,-371.458 848.908,-368.154 849.044,-375.153"/>
</g>
<!-- AS6453&#45;&gt;AS3491 -->
<g id="edge37" class="edge"><title>AS6453&#45;&gt;AS3491</title>
<path fill="none" stroke="black" d="M562.286,-312.054C577.089,-298.898 599.042,-280.02 619.361,-265 662.915,-232.803 716.114,-199.607 749.636,-179.382"/>
<polygon fill="black" stroke="black" points="751.773,-182.182 758.545,-174.034 748.17,-176.18 751.773,-182.182"/>
</g>
<!-- AS6453&#45;&gt;AS2497 -->
<g id="edge38" class="edge"><title>AS6453&#45;&gt;AS2497</title>
<path fill="none" stroke="black" d="M575.195,-316.891C588.713,-311.986 604.818,-306.172 619.361,-301 660.966,-286.203 708.657,-269.568 741.664,-258.106"/>
<polygon fill="black" stroke="black" points="743.113,-261.308 751.413,-254.723 740.818,-254.695 743.113,-261.308"/>
</g>
<!-- AS12956 -->
<g id="node20" class="node"><title>AS12956</title>
<g id="a_node20"><a xlink:href="/asn/12956" xlink:title="AS12956 ~ TELXIUS [ES]">
<ellipse fill="#ffffff" stroke="black" cx="663.557" cy="-328" rx="44.393" ry="18"/>
<text text-anchor="middle" x="663.557" y="-324.3" font-family="Times,serif" font-size="14.00" fill="#2c94b3">AS12956</text>
</a>
</g>
</g>
<!-- AS6453&#45;&gt;AS12956 -->
<g id="edge42" class="edge"><title>AS6453&#45;&gt;AS12956</title>
<path fill="none" stroke="black" d="M583.627,-328C591.73,-328 600.405,-328 608.931,-328"/>
<polygon fill="black" stroke="black" points="609.209,-331.5 619.209,-328 609.209,-324.5 609.209,-331.5"/>
</g>
<!-- AS3257&#45;&gt;AS6461 -->
<g id="edge33" class="edge"><title>AS3257&#45;&gt;AS6461</title>
<path fill="none" stroke="black" d="M799.679,-437.588C819.19,-458.771 853.098,-495.584 875.469,-519.872"/>
<polygon fill="black" stroke="black" points="872.944,-522.298 882.294,-527.282 878.093,-517.555 872.944,-522.298"/>
</g>
<!-- AS3257&#45;&gt;AS3356 -->
<g id="edge36" class="edge"><title>AS3257&#45;&gt;AS3356</title>
<path fill="none" stroke="black" d="M743.764,-419.297C689.679,-411.185 588.538,-389.202 504.068,-364 488.978,-359.498 472.487,-353.636 458.853,-347.724"/>
<polygon fill="black" stroke="black" points="460.039,-344.418 449.49,-343.43 457.12,-350.78 460.039,-344.418"/>
</g>
<!-- AS3257&#45;&gt;AS2914 -->
<g id="edge32" class="edge"><title>AS3257&#45;&gt;AS2914</title>
<path fill="none" stroke="black" d="M772.75,-403.541C750.88,-358.839 697.686,-241.069 675.042,-187.272"/>
<polygon fill="black" stroke="black" points="678.134,-185.593 671.061,-177.705 671.671,-188.282 678.134,-185.593"/>
</g>
<!-- AS3257&#45;&gt;AS6762 -->
<g id="edge34" class="edge"><title>AS3257&#45;&gt;AS6762</title>
<path fill="none" stroke="black" d="M812.114,-408.524C826.653,-401.979 844.667,-393.87 860.413,-386.782"/>
<polygon fill="black" stroke="black" points="862.19,-389.82 869.872,-382.524 859.316,-383.437 862.19,-389.82"/>
</g>
<!-- AS209 -->
<g id="node19" class="node"><title>AS209</title>
<g id="a_node19"><a xlink:href="/asn/209" xlink:title="AS209 ~ CenturyLink Communications, LLC [US]">
<ellipse fill="#ffffff" stroke="black" cx="898.693" cy="-424" rx="35.194" ry="18"/>
<text text-anchor="middle" x="898.693" y="-420.3" font-family="Times,serif" font-size="14.00" fill="#2c94b3">AS209</text>
</a>
</g>
</g>
<!-- AS3257&#45;&gt;AS209 -->
<g id="edge35" class="edge"><title>AS3257&#45;&gt;AS209</title>
<path fill="none" stroke="black" d="M823.072,-422.024C832.777,-422.281 843.268,-422.559 853.231,-422.823"/>
<polygon fill="black" stroke="black" points="853.278,-426.325 863.367,-423.091 853.463,-419.327 853.278,-426.325"/>
</g>
</g>
</svg>
