<?xml version="1.0" encoding="UTF-8" standalone="no"?>
<!DOCTYPE svg PUBLIC "-//W3C//DTD SVG 1.1//EN"
 "http://www.w3.org/Graphics/SVG/1.1/DTD/svg11.dtd">
<!-- Generated by graphviz version 2.38.0 (20140413.2041)
 -->
<!-- Title: AS61438 Combined Upstream Graph Pages: 1 -->
<svg width="567pt" height="617pt"
 viewBox="0.00 0.00 566.66 616.96" xmlns="http://www.w3.org/2000/svg" xmlns:xlink="http://www.w3.org/1999/xlink">
<g id="graph0" class="graph" transform="scale(1 1) rotate(0) translate(4 612.964)">
<title>AS61438 Combined Upstream Graph</title>
<polygon fill="white" stroke="none" points="-4,4 -4,-612.964 562.663,-612.964 562.663,4 -4,4"/>
<!-- AS61438 -->
<g id="node1" class="node"><title>AS61438</title>
<g id="a_node1"><a xlink:href="/asn/61438" xlink:title="AS61438 ~ ip&#45;it consult GmbH [AT]">
<ellipse fill="#ffffff" stroke="black" cx="44.1961" cy="-265.458" rx="44.393" ry="18"/>
<text text-anchor="middle" x="44.1961" y="-261.758" font-family="Times,serif" font-size="14.00" fill="#880000">AS61438</text>
</a>
</g>
</g>
<!-- AS33891 -->
<g id="node2" class="node"><title>AS33891</title>
<g id="a_node2"><a xlink:href="/asn/33891" xlink:title="AS33891 ~ CORE&#45;BACKBONE GMBH GLOBAL NETWORK [DE]">
<ellipse fill="#ffffff" stroke="black" cx="168.588" cy="-357.458" rx="44.393" ry="18"/>
<text text-anchor="middle" x="168.588" y="-353.758" font-family="Times,serif" font-size="14.00" fill="#2c94b3">AS33891</text>
</a>
</g>
</g>
<!-- AS61438&#45;&gt;AS33891 -->
<g id="edge1" class="edge"><title>AS61438&#45;&gt;AS33891</title>
<path fill="none" stroke="black" stroke-width="4.5" d="M66.236,-281.273C86.1144,-296.216 116.114,-318.766 138.321,-335.458"/>
<polygon fill="black" stroke="black" stroke-width="4.5" points="136.054,-338.68 146.413,-341.541 140.786,-332.385 136.054,-338.68"/>
</g>
<!-- AS47147 -->
<g id="node3" class="node"><title>AS47147</title>
<g id="a_node3"><a xlink:href="/asn/47147" xlink:title="AS47147 ~ ANEXIA Internetdienstleistungs GmbH [AT]">
<ellipse fill="#ffffff" stroke="black" cx="168.588" cy="-265.458" rx="44.393" ry="18"/>
<text text-anchor="middle" x="168.588" y="-261.758" font-family="Times,serif" font-size="14.00" fill="#2c94b3">AS47147</text>
</a>
</g>
</g>
<!-- AS61438&#45;&gt;AS47147 -->
<g id="edge2" class="edge"><title>AS61438&#45;&gt;AS47147</title>
<path fill="none" stroke="black" stroke-width="3.31579" d="M88.6916,-265.458C96.898,-265.458 105.569,-265.458 114.041,-265.458"/>
<polygon fill="black" stroke="black" stroke-width="3.31579" points="114.233,-268.958 124.233,-265.458 114.233,-261.958 114.233,-268.958"/>
</g>
<!-- AS6939 -->
<g id="node4" class="node"><title>AS6939</title>
<g id="a_node4"><a xlink:href="/asn/6939" xlink:title="AS6939 ~ Hurricane Electric LLC [US]">
<ellipse fill="#ffffff" stroke="black" cx="288.431" cy="-88.4581" rx="39.7935" ry="18"/>
<text text-anchor="middle" x="288.431" y="-84.7581" font-family="Times,serif" font-size="14.00" fill="#2c94b3">AS6939</text>
</a>
</g>
</g>
<!-- AS61438&#45;&gt;AS6939 -->
<g id="edge3" class="edge"><title>AS61438&#45;&gt;AS6939</title>
<path fill="none" stroke="black" stroke-width="1.18421" d="M66.6928,-249.751C110.276,-217.905 209.077,-145.711 258.354,-109.704"/>
<polygon fill="black" stroke="black" stroke-width="1.18421" points="260.662,-112.353 266.672,-103.627 256.532,-106.701 260.662,-112.353"/>
</g>
<!-- AS1299 -->
<g id="node5" class="node"><title>AS1299</title>
<g id="a_node5"><a xlink:href="/asn/1299" xlink:title="AS1299 ~ Telia Carrier [EU]">
<ellipse fill="#ffffff" stroke="black" cx="288.431" cy="-265.458" rx="39.7935" ry="18"/>
<text text-anchor="middle" x="288.431" y="-261.758" font-family="Times,serif" font-size="14.00" fill="#2c94b3">AS1299</text>
</a>
</g>
</g>
<!-- AS33891&#45;&gt;AS1299 -->
<g id="edge4" class="edge"><title>AS33891&#45;&gt;AS1299</title>
<path fill="none" stroke="black" stroke-width="2.45455" d="M189.846,-341.643C209.017,-326.676 237.966,-304.076 259.358,-287.374"/>
<polygon fill="black" stroke="black" stroke-width="2.45455" points="261.709,-289.98 267.437,-281.067 257.401,-284.462 261.709,-289.98"/>
</g>
<!-- AS3356 -->
<g id="node6" class="node"><title>AS3356</title>
<g id="a_node6"><a xlink:href="/asn/3356" xlink:title="AS3356 ~ Level 3 Parent, LLC [US]">
<ellipse fill="#ffffff" stroke="black" cx="288.431" cy="-411.458" rx="39.7935" ry="18"/>
<text text-anchor="middle" x="288.431" y="-407.758" font-family="Times,serif" font-size="14.00" fill="#2c94b3">AS3356</text>
</a>
</g>
</g>
<!-- AS33891&#45;&gt;AS3356 -->
<g id="edge5" class="edge"><title>AS33891&#45;&gt;AS3356</title>
<path fill="none" stroke="black" stroke-width="4.5" d="M198.718,-370.806C214.329,-377.96 233.727,-386.849 250.399,-394.489"/>
<polygon fill="black" stroke="black" stroke-width="4.5" points="249.119,-398.234 259.851,-398.82 252.4,-391.074 249.119,-398.234"/>
</g>
<!-- AS6461 -->
<g id="node7" class="node"><title>AS6461</title>
<g id="a_node7"><a xlink:href="/asn/6461" xlink:title="AS6461 ~ Zayo Bandwidth [US]">
<ellipse fill="#ffffff" stroke="black" cx="288.431" cy="-357.458" rx="39.7935" ry="18"/>
<text text-anchor="middle" x="288.431" y="-353.758" font-family="Times,serif" font-size="14.00" fill="#2c94b3">AS6461</text>
</a>
</g>
</g>
<!-- AS33891&#45;&gt;AS6461 -->
<g id="edge6" class="edge"><title>AS33891&#45;&gt;AS6461</title>
<path fill="none" stroke="black" stroke-width="0.409091" d="M212.799,-357.458C221.112,-357.458 229.875,-357.458 238.357,-357.458"/>
<polygon fill="black" stroke="black" stroke-width="0.409091" points="238.516,-360.958 248.516,-357.458 238.516,-353.958 238.516,-360.958"/>
</g>
<!-- AS3257 -->
<g id="node8" class="node"><title>AS3257</title>
<g id="a_node8"><a xlink:href="/asn/3257" xlink:title="AS3257 ~ GTT [DE]">
<ellipse fill="#ffffff" stroke="black" cx="288.431" cy="-465.458" rx="39.7935" ry="18"/>
<text text-anchor="middle" x="288.431" y="-461.758" font-family="Times,serif" font-size="14.00" fill="#2c94b3">AS3257</text>
</a>
</g>
</g>
<!-- AS33891&#45;&gt;AS3257 -->
<g id="edge7" class="edge"><title>AS33891&#45;&gt;AS3257</title>
<path fill="none" stroke="black" stroke-width="0.409091" d="M184.521,-374.502C199.847,-391.555 224.782,-418.108 248.784,-438.458 251.281,-440.575 253.942,-442.69 256.653,-444.751"/>
<polygon fill="black" stroke="black" stroke-width="0.409091" points="254.69,-447.652 264.83,-450.725 258.819,-441.999 254.69,-447.652"/>
</g>
<!-- AS47147&#45;&gt;AS1299 -->
<g id="edge21" class="edge"><title>AS47147&#45;&gt;AS1299</title>
<path fill="none" stroke="black" stroke-width="2.57143" d="M212.799,-265.458C221.112,-265.458 229.875,-265.458 238.357,-265.458"/>
<polygon fill="black" stroke="black" stroke-width="2.57143" points="238.516,-268.958 248.516,-265.458 238.516,-261.958 238.516,-268.958"/>
</g>
<!-- AS2914 -->
<g id="node13" class="node"><title>AS2914</title>
<g id="a_node13"><a xlink:href="/asn/2914" xlink:title="AS2914 ~ NTT America, Inc. [US]">
<ellipse fill="#ffffff" stroke="black" cx="403.724" cy="-349.458" rx="39.7935" ry="18"/>
<text text-anchor="middle" x="403.724" y="-345.758" font-family="Times,serif" font-size="14.00" fill="#2c94b3">AS2914</text>
</a>
</g>
</g>
<!-- AS47147&#45;&gt;AS2914 -->
<g id="edge22" class="edge"><title>AS47147&#45;&gt;AS2914</title>
<path fill="none" stroke="black" stroke-width="4.5" d="M202.496,-277.315C244.593,-292.483 317.456,-318.736 362.714,-335.043"/>
<polygon fill="black" stroke="black" stroke-width="4.5" points="361.465,-338.778 372.208,-338.463 364.135,-331.369 361.465,-338.778"/>
</g>
<!-- AS3320 -->
<g id="node19" class="node"><title>AS3320</title>
<g id="a_node19"><a xlink:href="/asn/3320" xlink:title="AS3320 ~ DTAG [DE]">
<ellipse fill="#ffffff" stroke="black" cx="288.431" cy="-211.458" rx="39.7935" ry="18"/>
<text text-anchor="middle" x="288.431" y="-207.758" font-family="Times,serif" font-size="14.00" fill="#2c94b3">AS3320</text>
</a>
</g>
</g>
<!-- AS47147&#45;&gt;AS3320 -->
<g id="edge23" class="edge"><title>AS47147&#45;&gt;AS3320</title>
<path fill="none" stroke="black" stroke-width="1.92857" d="M198.718,-252.11C214.329,-244.956 233.727,-236.067 250.399,-228.428"/>
<polygon fill="black" stroke="black" stroke-width="1.92857" points="252.218,-231.444 259.851,-224.096 249.302,-225.08 252.218,-231.444"/>
</g>
<!-- AS6762 -->
<g id="node10" class="node"><title>AS6762</title>
<g id="a_node10"><a xlink:href="/asn/6762" xlink:title="AS6762 ~ TELECOM ITALIA SPARKLE S.p.A. [IT]">
<ellipse fill="#ffffff" stroke="black" cx="519.017" cy="-266.458" rx="39.7935" ry="18"/>
<text text-anchor="middle" x="519.017" y="-262.758" font-family="Times,serif" font-size="14.00" fill="#2c94b3">AS6762</text>
</a>
</g>
</g>
<!-- AS6939&#45;&gt;AS6762 -->
<g id="edge31" class="edge"><title>AS6939&#45;&gt;AS6762</title>
<path fill="none" stroke="black" d="M300.411,-71.1748C313.168,-52.885 336.086,-25.0911 364.077,-13.4581 396.62,0.0665941 415.144,7.64279 443.37,-13.4581 479.875,-40.748 504.741,-178.554 513.997,-238.517"/>
<polygon fill="black" stroke="black" points="510.541,-239.07 515.495,-248.436 517.463,-238.025 510.541,-239.07"/>
</g>
<!-- AS7018 -->
<g id="node11" class="node"><title>AS7018</title>
<g id="a_node11"><a xlink:href="/asn/7018" xlink:title="AS7018 ~ AT&amp;T Services, Inc. [US]">
<ellipse fill="#ffffff" stroke="black" cx="403.724" cy="-111.458" rx="39.7935" ry="18"/>
<text text-anchor="middle" x="403.724" y="-107.758" font-family="Times,serif" font-size="14.00" fill="#2c94b3">AS7018</text>
</a>
</g>
</g>
<!-- AS6939&#45;&gt;AS7018 -->
<g id="edge33" class="edge"><title>AS6939&#45;&gt;AS7018</title>
<path fill="none" stroke="black" d="M324.967,-95.6724C335.195,-97.7489 346.496,-100.043 357.238,-102.224"/>
<polygon fill="black" stroke="black" points="356.818,-105.71 367.314,-104.269 358.21,-98.8498 356.818,-105.71"/>
</g>
<!-- AS2497 -->
<g id="node16" class="node"><title>AS2497</title>
<g id="a_node16"><a xlink:href="/asn/2497" xlink:title="AS2497 ~ Internet Initiative Japan Inc. [JP]">
<ellipse fill="#ffffff" stroke="black" cx="519.017" cy="-322.458" rx="39.7935" ry="18"/>
<text text-anchor="middle" x="519.017" y="-318.758" font-family="Times,serif" font-size="14.00" fill="#2c94b3">AS2497</text>
</a>
</g>
</g>
<!-- AS6939&#45;&gt;AS2497 -->
<g id="edge30" class="edge"><title>AS6939&#45;&gt;AS2497</title>
<path fill="none" stroke="black" d="M310.286,-73.3113C342.64,-51.813 405.171,-18.5212 443.37,-51.4581 525.723,-122.466 423.71,-200.044 479.37,-293.458 481.088,-296.341 483.212,-299.03 485.574,-301.517"/>
<polygon fill="black" stroke="black" points="483.422,-304.289 493.204,-308.359 488.096,-299.077 483.422,-304.289"/>
</g>
<!-- AS701 -->
<g id="node17" class="node"><title>AS701</title>
<g id="a_node17"><a xlink:href="/asn/701" xlink:title="AS701 ~ UUNET [US]">
<ellipse fill="#ffffff" stroke="black" cx="403.724" cy="-165.458" rx="35.194" ry="18"/>
<text text-anchor="middle" x="403.724" y="-161.758" font-family="Times,serif" font-size="14.00" fill="#2c94b3">AS701</text>
</a>
</g>
</g>
<!-- AS6939&#45;&gt;AS701 -->
<g id="edge32" class="edge"><title>AS6939&#45;&gt;AS701</title>
<path fill="none" stroke="black" d="M311.275,-103.304C328.895,-115.28 353.85,-132.241 373.241,-145.42"/>
<polygon fill="black" stroke="black" points="371.475,-148.452 381.713,-151.178 375.41,-142.662 371.475,-148.452"/>
</g>
<!-- AS3491 -->
<g id="node18" class="node"><title>AS3491</title>
<g id="a_node18"><a xlink:href="/asn/3491" xlink:title="AS3491 ~ PCCW Global, Inc. [US]">
<ellipse fill="#ffffff" stroke="black" cx="519.017" cy="-376.458" rx="39.7935" ry="18"/>
<text text-anchor="middle" x="519.017" y="-372.758" font-family="Times,serif" font-size="14.00" fill="#2c94b3">AS3491</text>
</a>
</g>
</g>
<!-- AS6939&#45;&gt;AS3491 -->
<g id="edge34" class="edge"><title>AS6939&#45;&gt;AS3491</title>
<path fill="none" stroke="black" d="M319.197,-76.9903C353.485,-65.9346 409.44,-54.8259 443.37,-84.4581 532.895,-162.643 417.446,-248.004 479.37,-349.458 480.889,-351.947 482.734,-354.266 484.784,-356.414"/>
<polygon fill="black" stroke="black" points="482.544,-359.104 492.373,-363.059 487.155,-353.838 482.544,-359.104"/>
</g>
<!-- AS1239 -->
<g id="node9" class="node"><title>AS1239</title>
<g id="a_node9"><a xlink:href="/asn/1239" xlink:title="AS1239 ~ Sprint [US]">
<ellipse fill="#ffffff" stroke="black" cx="403.724" cy="-219.458" rx="39.7935" ry="18"/>
<text text-anchor="middle" x="403.724" y="-215.758" font-family="Times,serif" font-size="14.00" fill="#2c94b3">AS1239</text>
</a>
</g>
</g>
<!-- AS1299&#45;&gt;AS1239 -->
<g id="edge8" class="edge"><title>AS1299&#45;&gt;AS1239</title>
<path fill="none" stroke="black" d="M318.607,-253.612C332.482,-247.978 349.259,-241.166 364.169,-235.113"/>
<polygon fill="black" stroke="black" points="365.698,-238.269 373.647,-231.264 363.065,-231.783 365.698,-238.269"/>
</g>
<!-- AS1299&#45;&gt;AS6762 -->
<g id="edge9" class="edge"><title>AS1299&#45;&gt;AS6762</title>
<path fill="none" stroke="black" d="M328.207,-265.628C367.04,-265.798 426.923,-266.06 469.021,-266.244"/>
<polygon fill="black" stroke="black" points="469.035,-269.744 479.05,-266.288 469.065,-262.744 469.035,-269.744"/>
</g>
<!-- AS1299&#45;&gt;AS7018 -->
<g id="edge10" class="edge"><title>AS1299&#45;&gt;AS7018</title>
<path fill="none" stroke="black" d="M314.274,-251.51C319.355,-247.784 324.297,-243.398 328.077,-238.458 356.787,-200.947 335.367,-175.969 364.077,-138.458 365.849,-136.143 367.877,-133.949 370.054,-131.887"/>
<polygon fill="black" stroke="black" points="372.411,-134.48 377.881,-125.406 367.946,-129.089 372.411,-134.48"/>
</g>
<!-- AS174 -->
<g id="node12" class="node"><title>AS174</title>
<g id="a_node12"><a xlink:href="/asn/174" xlink:title="AS174 ~ Cogent Communications [US]">
<ellipse fill="#ffffff" stroke="black" cx="519.017" cy="-433.458" rx="35.194" ry="18"/>
<text text-anchor="middle" x="519.017" y="-429.758" font-family="Times,serif" font-size="14.00" fill="#2c94b3">AS174</text>
</a>
</g>
</g>
<!-- AS1299&#45;&gt;AS174 -->
<g id="edge11" class="edge"><title>AS1299&#45;&gt;AS174</title>
<path fill="none" stroke="black" stroke-width="3" d="M299.315,-282.821C315.39,-310.558 347.104,-363.102 364.077,-376.458 396.958,-402.332 442.754,-417.275 475.838,-425.316"/>
<polygon fill="black" stroke="black" stroke-width="3" points="475.137,-428.746 485.669,-427.594 476.717,-421.927 475.137,-428.746"/>
</g>
<!-- AS1299&#45;&gt;AS2914 -->
<g id="edge12" class="edge"><title>AS1299&#45;&gt;AS2914</title>
<path fill="none" stroke="black" d="M309.947,-280.67C327.802,-293.908 353.875,-313.239 373.837,-328.041"/>
<polygon fill="black" stroke="black" points="371.86,-330.931 381.977,-334.076 376.029,-325.308 371.86,-330.931"/>
</g>
<!-- AS3356&#45;&gt;AS6762 -->
<g id="edge13" class="edge"><title>AS3356&#45;&gt;AS6762</title>
<path fill="none" stroke="black" d="M313.233,-397.266C318.48,-393.5 323.756,-389.157 328.077,-384.458 349.646,-361.004 339.641,-342.908 364.077,-322.458 394.911,-296.655 438.637,-282.273 471.612,-274.566"/>
<polygon fill="black" stroke="black" points="472.467,-277.962 481.474,-272.384 470.954,-271.127 472.467,-277.962"/>
</g>
<!-- AS3356&#45;&gt;AS174 -->
<g id="edge15" class="edge"><title>AS3356&#45;&gt;AS174</title>
<path fill="none" stroke="black" stroke-width="2" d="M314.713,-425.09C319.771,-428.832 324.593,-433.305 328.077,-438.458 367.694,-497.043 308.7,-549.469 364.077,-593.458 391.672,-615.378 413.646,-612.39 443.37,-593.458 489.02,-564.382 507.209,-499.299 514.101,-461.712"/>
<polygon fill="black" stroke="black" stroke-width="2" points="517.621,-461.887 515.828,-451.445 510.718,-460.726 517.621,-461.887"/>
</g>
<!-- AS3356&#45;&gt;AS2914 -->
<g id="edge17" class="edge"><title>AS3356&#45;&gt;AS2914</title>
<path fill="none" stroke="black" d="M314.574,-397.698C330.415,-389.029 351.076,-377.723 368.413,-368.235"/>
<polygon fill="black" stroke="black" points="370.559,-371.051 377.651,-363.179 367.198,-364.91 370.559,-371.051"/>
</g>
<!-- AS3549 -->
<g id="node14" class="node"><title>AS3549</title>
<g id="a_node14"><a xlink:href="/asn/3549" xlink:title="AS3549 ~ Level 3 Parent, LLC [US]">
<ellipse fill="#ffffff" stroke="black" cx="403.724" cy="-479.458" rx="39.7935" ry="18"/>
<text text-anchor="middle" x="403.724" y="-475.758" font-family="Times,serif" font-size="14.00" fill="#2c94b3">AS3549</text>
</a>
</g>
</g>
<!-- AS3356&#45;&gt;AS3549 -->
<g id="edge14" class="edge"><title>AS3356&#45;&gt;AS3549</title>
<path fill="none" stroke="black" d="M313.181,-425.713C329.797,-435.687 352.193,-449.129 370.43,-460.075"/>
<polygon fill="black" stroke="black" points="368.63,-463.076 379.005,-465.222 372.232,-457.075 368.63,-463.076"/>
</g>
<!-- AS209 -->
<g id="node15" class="node"><title>AS209</title>
<g id="a_node15"><a xlink:href="/asn/209" xlink:title="AS209 ~ CenturyLink Communications, LLC [US]">
<ellipse fill="#ffffff" stroke="black" cx="403.724" cy="-533.458" rx="35.194" ry="18"/>
<text text-anchor="middle" x="403.724" y="-529.758" font-family="Times,serif" font-size="14.00" fill="#2c94b3">AS209</text>
</a>
</g>
</g>
<!-- AS3356&#45;&gt;AS209 -->
<g id="edge16" class="edge"><title>AS3356&#45;&gt;AS209</title>
<path fill="none" stroke="black" stroke-width="2" d="M313.368,-425.529C318.609,-429.3 323.849,-433.675 328.077,-438.458 350.727,-464.078 341.428,-480.838 364.077,-506.458 366.3,-508.972 368.802,-511.374 371.437,-513.634"/>
<polygon fill="black" stroke="black" stroke-width="2" points="369.547,-516.598 379.593,-519.963 373.838,-511.067 369.547,-516.598"/>
</g>
<!-- AS3356&#45;&gt;AS2497 -->
<g id="edge18" class="edge"><title>AS3356&#45;&gt;AS2497</title>
<path fill="none" stroke="black" d="M327.243,-407.353C359.314,-402.836 405.938,-393.786 443.37,-376.458 461.52,-368.057 463.17,-361.187 479.37,-349.458 482.173,-347.429 485.105,-345.333 488.045,-343.249"/>
<polygon fill="black" stroke="black" points="490.096,-346.085 496.26,-337.467 486.068,-340.361 490.096,-346.085"/>
</g>
<!-- AS3356&#45;&gt;AS701 -->
<g id="edge19" class="edge"><title>AS3356&#45;&gt;AS701</title>
<path fill="none" stroke="black" d="M314.878,-397.936C319.928,-394.187 324.704,-389.684 328.077,-384.458 375.159,-311.513 316.995,-265.404 364.077,-192.458 365.897,-189.639 368.125,-187.03 370.584,-184.636"/>
<polygon fill="black" stroke="black" points="373.003,-187.178 378.477,-178.107 368.541,-181.785 373.003,-187.178"/>
</g>
<!-- AS3356&#45;&gt;AS3491 -->
<g id="edge20" class="edge"><title>AS3356&#45;&gt;AS3491</title>
<path fill="none" stroke="black" d="M314.491,-425.245C319.56,-428.979 324.443,-433.41 328.077,-438.458 361.107,-484.339 318.797,-526.609 364.077,-560.458 392.304,-581.559 415.76,-582.358 443.37,-560.458 498.44,-516.777 441.43,-465.629 479.37,-406.458 481.416,-403.267 483.923,-400.277 486.668,-397.515"/>
<polygon fill="black" stroke="black" points="489.151,-399.992 494.338,-390.754 484.522,-394.742 489.151,-399.992"/>
</g>
<!-- AS2914&#45;&gt;AS6762 -->
<g id="edge26" class="edge"><title>AS2914&#45;&gt;AS6762</title>
<path fill="none" stroke="black" d="M425.503,-334.235C443.39,-321.131 469.381,-302.089 489.263,-287.523"/>
<polygon fill="black" stroke="black" points="491.37,-290.318 497.369,-281.585 487.233,-284.672 491.37,-290.318"/>
</g>
<!-- AS2914&#45;&gt;AS174 -->
<g id="edge24" class="edge"><title>AS2914&#45;&gt;AS174</title>
<path fill="none" stroke="black" stroke-width="2" d="M425.24,-364.67C443.318,-378.073 469.821,-397.724 489.876,-412.594"/>
<polygon fill="black" stroke="black" stroke-width="2" points="487.916,-415.497 498.033,-418.642 492.085,-409.874 487.916,-415.497"/>
</g>
<!-- AS2914&#45;&gt;AS2497 -->
<g id="edge25" class="edge"><title>AS2914&#45;&gt;AS2497</title>
<path fill="none" stroke="black" d="M439.331,-341.211C450.202,-338.62 462.357,-335.723 473.799,-332.996"/>
<polygon fill="black" stroke="black" points="474.705,-336.378 483.621,-330.655 473.082,-329.569 474.705,-336.378"/>
</g>
<!-- AS2914&#45;&gt;AS3491 -->
<g id="edge27" class="edge"><title>AS2914&#45;&gt;AS3491</title>
<path fill="none" stroke="black" d="M439.331,-357.706C450.202,-360.297 462.357,-363.193 473.799,-365.92"/>
<polygon fill="black" stroke="black" points="473.082,-369.347 483.621,-368.261 474.705,-362.538 473.082,-369.347"/>
</g>
<!-- AS3320&#45;&gt;AS1239 -->
<g id="edge29" class="edge"><title>AS3320&#45;&gt;AS1239</title>
<path fill="none" stroke="black" d="M327.787,-214.167C336.276,-214.766 345.38,-215.409 354.214,-216.033"/>
<polygon fill="black" stroke="black" points="354.186,-219.539 364.407,-216.752 354.679,-212.557 354.186,-219.539"/>
</g>
<!-- AS3320&#45;&gt;AS701 -->
<g id="edge28" class="edge"><title>AS3320&#45;&gt;AS701</title>
<path fill="none" stroke="black" d="M318.607,-199.612C333.02,-193.76 350.564,-186.636 365.893,-180.412"/>
<polygon fill="black" stroke="black" points="367.643,-183.479 375.592,-176.474 365.01,-176.994 367.643,-183.479"/>
</g>
</g>
</svg>
