<?xml version="1.0" encoding="UTF-8" standalone="no"?>
<!DOCTYPE svg PUBLIC "-//W3C//DTD SVG 1.1//EN"
 "http://www.w3.org/Graphics/SVG/1.1/DTD/svg11.dtd">
<!-- Generated by graphviz version 2.38.0 (20140413.2041)
 -->
<!-- Title: AS31382 IPv4 Upstream Graph Pages: 1 -->
<svg width="442pt" height="476pt"
 viewBox="0.00 0.00 442.27 476.00" xmlns="http://www.w3.org/2000/svg" xmlns:xlink="http://www.w3.org/1999/xlink">
<g id="graph0" class="graph" transform="scale(1 1) rotate(0) translate(4 472)">
<title>AS31382 IPv4 Upstream Graph</title>
<polygon fill="white" stroke="none" points="-4,4 -4,-472 438.271,-472 438.271,4 -4,4"/>
<!-- AS31382 -->
<g id="node1" class="node"><title>AS31382</title>
<g id="a_node1"><a xlink:href="/asn/31382" xlink:title="AS31382 ~ Kapsch BusinessCom AG [AT]">
<ellipse fill="#ffffff" stroke="black" cx="44.1961" cy="-234" rx="44.393" ry="18"/>
<text text-anchor="middle" x="44.1961" y="-230.3" font-family="Times,serif" font-size="14.00" fill="#880000">AS31382</text>
</a>
</g>
</g>
<!-- AS1764 -->
<g id="node2" class="node"><title>AS1764</title>
<g id="a_node2"><a xlink:href="/asn/1764" xlink:title="AS1764 ~ NEXTLAYER&#45;AS [AT]">
<ellipse fill="#ffffff" stroke="black" cx="164.039" cy="-234" rx="39.7935" ry="18"/>
<text text-anchor="middle" x="164.039" y="-230.3" font-family="Times,serif" font-size="14.00" fill="#2c94b3">AS1764</text>
</a>
</g>
</g>
<!-- AS31382&#45;&gt;AS1764 -->
<g id="edge1" class="edge"><title>AS31382&#45;&gt;AS1764</title>
<path fill="none" stroke="black" stroke-width="4.5" d="M88.4072,-234C96.7198,-234 105.482,-234 113.965,-234"/>
<polygon fill="black" stroke="black" stroke-width="4.5" points="114.123,-237.938 124.123,-234 114.123,-230.063 114.123,-237.938"/>
</g>
<!-- AS1299 -->
<g id="node3" class="node"><title>AS1299</title>
<g id="a_node3"><a xlink:href="/asn/1299" xlink:title="AS1299 ~ Telia Carrier [EU]">
<ellipse fill="#ffffff" stroke="black" cx="279.332" cy="-423" rx="39.7935" ry="18"/>
<text text-anchor="middle" x="279.332" y="-419.3" font-family="Times,serif" font-size="14.00" fill="#2c94b3">AS1299</text>
</a>
</g>
</g>
<!-- AS1764&#45;&gt;AS1299 -->
<g id="edge2" class="edge"><title>AS1764&#45;&gt;AS1299</title>
<path fill="none" stroke="black" stroke-width="1.8" d="M174.065,-251.852C187.501,-278.055 213.95,-328.237 239.685,-369 245.748,-378.604 252.868,-388.813 259.333,-397.739"/>
<polygon fill="black" stroke="black" stroke-width="1.8" points="256.54,-399.848 265.276,-405.843 262.185,-395.709 256.54,-399.848"/>
</g>
<!-- AS3257 -->
<g id="node4" class="node"><title>AS3257</title>
<g id="a_node4"><a xlink:href="/asn/3257" xlink:title="AS3257 ~ GTT [DE]">
<ellipse fill="#ffffff" stroke="black" cx="279.332" cy="-342" rx="39.7935" ry="18"/>
<text text-anchor="middle" x="279.332" y="-338.3" font-family="Times,serif" font-size="14.00" fill="#2c94b3">AS3257</text>
</a>
</g>
</g>
<!-- AS1764&#45;&gt;AS3257 -->
<g id="edge3" class="edge"><title>AS1764&#45;&gt;AS3257</title>
<path fill="none" stroke="black" stroke-width="2.7" d="M178.669,-250.817C192.951,-267.929 216.498,-294.745 239.685,-315 242.151,-317.154 244.789,-319.294 247.487,-321.372"/>
<polygon fill="black" stroke="black" stroke-width="2.7" points="245.512,-324.264 255.641,-327.37 249.66,-318.625 245.512,-324.264"/>
</g>
<!-- AS3356 -->
<g id="node5" class="node"><title>AS3356</title>
<g id="a_node5"><a xlink:href="/asn/3356" xlink:title="AS3356 ~ Level 3 Parent, LLC [US]">
<ellipse fill="#ffffff" stroke="black" cx="279.332" cy="-234" rx="39.7935" ry="18"/>
<text text-anchor="middle" x="279.332" y="-230.3" font-family="Times,serif" font-size="14.00" fill="#2c94b3">AS3356</text>
</a>
</g>
</g>
<!-- AS1764&#45;&gt;AS3356 -->
<g id="edge4" class="edge"><title>AS1764&#45;&gt;AS3356</title>
<path fill="none" stroke="black" stroke-width="4.5" d="M203.711,-234C211.914,-234 220.678,-234 229.21,-234"/>
<polygon fill="black" stroke="black" stroke-width="4.5" points="229.449,-237.938 239.449,-234 229.449,-230.063 229.449,-237.938"/>
</g>
<!-- AS174 -->
<g id="node6" class="node"><title>AS174</title>
<g id="a_node6"><a xlink:href="/asn/174" xlink:title="AS174 ~ Cogent Communications [US]">
<ellipse fill="#ffffff" stroke="black" cx="279.332" cy="-288" rx="35.194" ry="18"/>
<text text-anchor="middle" x="279.332" y="-284.3" font-family="Times,serif" font-size="14.00" fill="#2c94b3">AS174</text>
</a>
</g>
</g>
<!-- AS1764&#45;&gt;AS174 -->
<g id="edge5" class="edge"><title>AS1764&#45;&gt;AS174</title>
<path fill="none" stroke="black" stroke-width="2.7" d="M192.175,-246.934C207.607,-254.29 227.092,-263.577 243.628,-271.459"/>
<polygon fill="black" stroke="black" stroke-width="2.7" points="242.436,-274.768 252.969,-275.911 245.448,-268.449 242.436,-274.768"/>
</g>
<!-- AS3320 -->
<g id="node7" class="node"><title>AS3320</title>
<g id="a_node7"><a xlink:href="/asn/3320" xlink:title="AS3320 ~ DTAG [DE]">
<ellipse fill="#ffffff" stroke="black" cx="279.332" cy="-153" rx="39.7935" ry="18"/>
<text text-anchor="middle" x="279.332" y="-149.3" font-family="Times,serif" font-size="14.00" fill="#2c94b3">AS3320</text>
</a>
</g>
</g>
<!-- AS1764&#45;&gt;AS3320 -->
<g id="edge6" class="edge"><title>AS1764&#45;&gt;AS3320</title>
<path fill="none" stroke="black" stroke-width="2.7" d="M186.083,-218.954C203.697,-206.361 229.036,-188.245 248.701,-174.184"/>
<polygon fill="black" stroke="black" stroke-width="2.7" points="250.917,-176.903 257.016,-168.24 246.845,-171.209 250.917,-176.903"/>
</g>
<!-- AS8218 -->
<g id="node8" class="node"><title>AS8218</title>
<g id="a_node8"><a xlink:href="/asn/8218" xlink:title="AS8218 ~ legacy Neotelecoms [FR]">
<ellipse fill="#ffffff" stroke="black" cx="279.332" cy="-99" rx="39.7935" ry="18"/>
<text text-anchor="middle" x="279.332" y="-95.3" font-family="Times,serif" font-size="14.00" fill="#2c94b3">AS8218</text>
</a>
</g>
</g>
<!-- AS1764&#45;&gt;AS8218 -->
<g id="edge7" class="edge"><title>AS1764&#45;&gt;AS8218</title>
<path fill="none" stroke="black" stroke-width="0.9" d="M174.498,-216.51C187.28,-193.904 211.712,-154.114 239.685,-126 241.796,-123.879 244.092,-121.812 246.477,-119.829"/>
<polygon fill="black" stroke="black" stroke-width="0.9" points="248.993,-122.31 254.793,-113.444 244.73,-116.758 248.993,-122.31"/>
</g>
<!-- AS2914 -->
<g id="node9" class="node"><title>AS2914</title>
<g id="a_node9"><a xlink:href="/asn/2914" xlink:title="AS2914 ~ NTT America, Inc. [US]">
<ellipse fill="#ffffff" stroke="black" cx="279.332" cy="-45" rx="39.7935" ry="18"/>
<text text-anchor="middle" x="279.332" y="-41.3" font-family="Times,serif" font-size="14.00" fill="#2c94b3">AS2914</text>
</a>
</g>
</g>
<!-- AS1764&#45;&gt;AS2914 -->
<g id="edge8" class="edge"><title>AS1764&#45;&gt;AS2914</title>
<path fill="none" stroke="black" stroke-width="0.9" d="M169.913,-215.998C179.227,-184.156 202.043,-117.019 239.685,-72 241.555,-69.7631 243.654,-67.6259 245.88,-65.604"/>
<polygon fill="black" stroke="black" stroke-width="0.9" points="248.227,-68.2075 253.799,-59.1963 243.823,-62.7658 248.227,-68.2075"/>
</g>
<!-- AS7018 -->
<g id="node13" class="node"><title>AS7018</title>
<g id="a_node13"><a xlink:href="/asn/7018" xlink:title="AS7018 ~ AT&amp;T Services, Inc. [US]">
<ellipse fill="#ffffff" stroke="black" cx="394.625" cy="-450" rx="39.7935" ry="18"/>
<text text-anchor="middle" x="394.625" y="-446.3" font-family="Times,serif" font-size="14.00" fill="#2c94b3">AS7018</text>
</a>
</g>
</g>
<!-- AS1299&#45;&gt;AS7018 -->
<g id="edge13" class="edge"><title>AS1299&#45;&gt;AS7018</title>
<path fill="none" stroke="black" d="M314.939,-431.248C325.81,-433.838 337.964,-436.735 349.407,-439.462"/>
<polygon fill="black" stroke="black" points="348.69,-442.889 359.229,-441.803 350.313,-436.08 348.69,-442.889"/>
</g>
<!-- AS2497 -->
<g id="node10" class="node"><title>AS2497</title>
<g id="a_node10"><a xlink:href="/asn/2497" xlink:title="AS2497 ~ Internet Initiative Japan Inc. [JP]">
<ellipse fill="#ffffff" stroke="black" cx="394.625" cy="-342" rx="39.7935" ry="18"/>
<text text-anchor="middle" x="394.625" y="-338.3" font-family="Times,serif" font-size="14.00" fill="#2c94b3">AS2497</text>
</a>
</g>
</g>
<!-- AS3257&#45;&gt;AS2497 -->
<g id="edge9" class="edge"><title>AS3257&#45;&gt;AS2497</title>
<path fill="none" stroke="black" d="M319.004,-342C327.207,-342 335.971,-342 344.503,-342"/>
<polygon fill="black" stroke="black" points="344.742,-345.5 354.742,-342 344.742,-338.5 344.742,-345.5"/>
</g>
<!-- AS3491 -->
<g id="node11" class="node"><title>AS3491</title>
<g id="a_node11"><a xlink:href="/asn/3491" xlink:title="AS3491 ~ PCCW Global, Inc. [US]">
<ellipse fill="#ffffff" stroke="black" cx="394.625" cy="-396" rx="39.7935" ry="18"/>
<text text-anchor="middle" x="394.625" y="-392.3" font-family="Times,serif" font-size="14.00" fill="#2c94b3">AS3491</text>
</a>
</g>
</g>
<!-- AS3257&#45;&gt;AS3491 -->
<g id="edge10" class="edge"><title>AS3257&#45;&gt;AS3491</title>
<path fill="none" stroke="black" d="M307.468,-354.934C322.462,-362.081 341.283,-371.052 357.506,-378.785"/>
<polygon fill="black" stroke="black" points="356.177,-382.028 366.71,-383.171 359.188,-375.709 356.177,-382.028"/>
</g>
<!-- AS3356&#45;&gt;AS2497 -->
<g id="edge20" class="edge"><title>AS3356&#45;&gt;AS2497</title>
<path fill="none" stroke="black" d="M303.926,-248.389C309.182,-252.148 314.513,-256.437 318.978,-261 339.151,-281.617 334.806,-294.383 354.978,-315 357.071,-317.139 359.354,-319.218 361.731,-321.21"/>
<polygon fill="black" stroke="black" points="359.974,-324.275 370.031,-327.611 364.249,-318.732 359.974,-324.275"/>
</g>
<!-- AS6762 -->
<g id="node12" class="node"><title>AS6762</title>
<g id="a_node12"><a xlink:href="/asn/6762" xlink:title="AS6762 ~ TELECOM ITALIA SPARKLE S.p.A. [IT]">
<ellipse fill="#ffffff" stroke="black" cx="394.625" cy="-288" rx="39.7935" ry="18"/>
<text text-anchor="middle" x="394.625" y="-284.3" font-family="Times,serif" font-size="14.00" fill="#2c94b3">AS6762</text>
</a>
</g>
</g>
<!-- AS3356&#45;&gt;AS6762 -->
<g id="edge17" class="edge"><title>AS3356&#45;&gt;AS6762</title>
<path fill="none" stroke="black" d="M307.468,-246.934C322.462,-254.081 341.283,-263.052 357.506,-270.785"/>
<polygon fill="black" stroke="black" points="356.177,-274.028 366.71,-275.171 359.188,-267.709 356.177,-274.028"/>
</g>
<!-- AS6453 -->
<g id="node17" class="node"><title>AS6453</title>
<g id="a_node17"><a xlink:href="/asn/6453" xlink:title="AS6453 ~ TATA COMMUNICATIONS (AMERICA) INC [US]">
<ellipse fill="#ffffff" stroke="black" cx="394.625" cy="-180" rx="39.7935" ry="18"/>
<text text-anchor="middle" x="394.625" y="-176.3" font-family="Times,serif" font-size="14.00" fill="#2c94b3">AS6453</text>
</a>
</g>
</g>
<!-- AS3356&#45;&gt;AS6453 -->
<g id="edge18" class="edge"><title>AS3356&#45;&gt;AS6453</title>
<path fill="none" stroke="black" d="M307.468,-221.066C322.462,-213.919 341.283,-204.948 357.506,-197.215"/>
<polygon fill="black" stroke="black" points="359.188,-200.291 366.71,-192.829 356.177,-193.972 359.188,-200.291"/>
</g>
<!-- AS3549 -->
<g id="node18" class="node"><title>AS3549</title>
<g id="a_node18"><a xlink:href="/asn/3549" xlink:title="AS3549 ~ Level 3 Parent, LLC [US]">
<ellipse fill="#ffffff" stroke="black" cx="394.625" cy="-234" rx="39.7935" ry="18"/>
<text text-anchor="middle" x="394.625" y="-230.3" font-family="Times,serif" font-size="14.00" fill="#2c94b3">AS3549</text>
</a>
</g>
</g>
<!-- AS3356&#45;&gt;AS3549 -->
<g id="edge19" class="edge"><title>AS3356&#45;&gt;AS3549</title>
<path fill="none" stroke="black" d="M319.004,-234C327.207,-234 335.971,-234 344.503,-234"/>
<polygon fill="black" stroke="black" points="344.742,-237.5 354.742,-234 344.742,-230.5 344.742,-237.5"/>
</g>
<!-- AS174&#45;&gt;AS3491 -->
<g id="edge11" class="edge"><title>AS174&#45;&gt;AS3491</title>
<path fill="none" stroke="black" d="M302.714,-301.532C308.356,-305.49 314.17,-310.086 318.978,-315 339.151,-335.617 334.806,-348.383 354.978,-369 357.071,-371.139 359.354,-373.218 361.731,-375.21"/>
<polygon fill="black" stroke="black" points="359.974,-378.275 370.031,-381.611 364.249,-372.732 359.974,-378.275"/>
</g>
<!-- AS174&#45;&gt;AS6762 -->
<g id="edge12" class="edge"><title>AS174&#45;&gt;AS6762</title>
<path fill="none" stroke="black" d="M314.631,-288C324.008,-288 334.358,-288 344.393,-288"/>
<polygon fill="black" stroke="black" points="344.681,-291.5 354.681,-288 344.681,-284.5 344.681,-291.5"/>
</g>
<!-- AS701 -->
<g id="node15" class="node"><title>AS701</title>
<g id="a_node15"><a xlink:href="/asn/701" xlink:title="AS701 ~ UUNET [US]">
<ellipse fill="#ffffff" stroke="black" cx="394.625" cy="-72" rx="35.194" ry="18"/>
<text text-anchor="middle" x="394.625" y="-68.3" font-family="Times,serif" font-size="14.00" fill="#2c94b3">AS701</text>
</a>
</g>
</g>
<!-- AS3320&#45;&gt;AS701 -->
<g id="edge15" class="edge"><title>AS3320&#45;&gt;AS701</title>
<path fill="none" stroke="black" d="M302.089,-137.991C307.623,-134.121 313.542,-129.936 318.978,-126 335.178,-114.271 338.778,-110.729 354.978,-99 358.007,-96.8071 361.186,-94.5369 364.364,-92.2869"/>
<polygon fill="black" stroke="black" points="366.506,-95.0593 372.675,-86.4452 362.481,-89.3326 366.506,-95.0593"/>
</g>
<!-- AS1239 -->
<g id="node16" class="node"><title>AS1239</title>
<g id="a_node16"><a xlink:href="/asn/1239" xlink:title="AS1239 ~ Sprint [US]">
<ellipse fill="#ffffff" stroke="black" cx="394.625" cy="-126" rx="39.7935" ry="18"/>
<text text-anchor="middle" x="394.625" y="-122.3" font-family="Times,serif" font-size="14.00" fill="#2c94b3">AS1239</text>
</a>
</g>
</g>
<!-- AS3320&#45;&gt;AS1239 -->
<g id="edge16" class="edge"><title>AS3320&#45;&gt;AS1239</title>
<path fill="none" stroke="black" d="M314.939,-144.752C325.81,-142.162 337.964,-139.265 349.407,-136.538"/>
<polygon fill="black" stroke="black" points="350.313,-139.92 359.229,-134.197 348.69,-133.111 350.313,-139.92"/>
</g>
<!-- AS6461 -->
<g id="node14" class="node"><title>AS6461</title>
<g id="a_node14"><a xlink:href="/asn/6461" xlink:title="AS6461 ~ Zayo Bandwidth [US]">
<ellipse fill="#ffffff" stroke="black" cx="394.625" cy="-18" rx="39.7935" ry="18"/>
<text text-anchor="middle" x="394.625" y="-14.3" font-family="Times,serif" font-size="14.00" fill="#2c94b3">AS6461</text>
</a>
</g>
</g>
<!-- AS8218&#45;&gt;AS6461 -->
<g id="edge14" class="edge"><title>AS8218&#45;&gt;AS6461</title>
<path fill="none" stroke="black" d="M302.089,-83.9908C307.623,-80.1205 313.542,-75.9359 318.978,-72 335.178,-60.2712 338.778,-56.7288 354.978,-45 357.781,-42.9706 360.712,-40.875 363.653,-38.7905"/>
<polygon fill="black" stroke="black" points="365.704,-41.627 371.868,-33.0092 361.675,-35.9026 365.704,-41.627"/>
</g>
</g>
</svg>
