<?xml version="1.0" encoding="UTF-8" standalone="no"?>
<!DOCTYPE svg PUBLIC "-//W3C//DTD SVG 1.1//EN"
 "http://www.w3.org/Graphics/SVG/1.1/DTD/svg11.dtd">
<!-- Generated by graphviz version 2.38.0 (20140413.2041)
 -->
<!-- Title: AS31382 Combined Upstream Graph Pages: 1 -->
<svg width="451pt" height="584pt"
 viewBox="0.00 0.00 451.37 584.00" xmlns="http://www.w3.org/2000/svg" xmlns:xlink="http://www.w3.org/1999/xlink">
<g id="graph0" class="graph" transform="scale(1 1) rotate(0) translate(4 580)">
<title>AS31382 Combined Upstream Graph</title>
<polygon fill="white" stroke="none" points="-4,4 -4,-580 447.37,-580 447.37,4 -4,4"/>
<!-- AS31382 -->
<g id="node1" class="node"><title>AS31382</title>
<g id="a_node1"><a xlink:href="/asn/31382" xlink:title="AS31382 ~ Kapsch BusinessCom AG [AT]">
<ellipse fill="#ffffff" stroke="black" cx="44.1961" cy="-315" rx="44.393" ry="18"/>
<text text-anchor="middle" x="44.1961" y="-311.3" font-family="Times,serif" font-size="14.00" fill="#880000">AS31382</text>
</a>
</g>
</g>
<!-- AS1764 -->
<g id="node2" class="node"><title>AS1764</title>
<g id="a_node2"><a xlink:href="/asn/1764" xlink:title="AS1764 ~ NEXTLAYER&#45;AS [AT]">
<ellipse fill="#ffffff" stroke="black" cx="168.588" cy="-342" rx="39.7935" ry="18"/>
<text text-anchor="middle" x="168.588" y="-338.3" font-family="Times,serif" font-size="14.00" fill="#2c94b3">AS1764</text>
</a>
</g>
</g>
<!-- AS31382&#45;&gt;AS1764 -->
<g id="edge1" class="edge"><title>AS31382&#45;&gt;AS1764</title>
<path fill="none" stroke="black" stroke-width="4.5" d="M83.5859,-323.469C95.9769,-326.202 109.824,-329.257 122.644,-332.085"/>
<polygon fill="black" stroke="black" stroke-width="4.5" points="122.045,-335.985 132.659,-334.295 123.742,-328.295 122.045,-335.985"/>
</g>
<!-- AS47147 -->
<g id="node3" class="node"><title>AS47147</title>
<g id="a_node3"><a xlink:href="/asn/47147" xlink:title="AS47147 ~ ANEXIA Internetdienstleistungs GmbH [AT]">
<ellipse fill="#ffffff" stroke="black" cx="168.588" cy="-261" rx="44.393" ry="18"/>
<text text-anchor="middle" x="168.588" y="-257.3" font-family="Times,serif" font-size="14.00" fill="#2c94b3">AS47147</text>
</a>
</g>
</g>
<!-- AS31382&#45;&gt;AS47147 -->
<g id="edge2" class="edge"><title>AS31382&#45;&gt;AS47147</title>
<path fill="none" stroke="black" stroke-width="1.05" d="M74.8238,-301.928C90.9408,-294.817 111.081,-285.931 128.473,-278.258"/>
<polygon fill="black" stroke="black" stroke-width="1.05" points="130.073,-281.378 137.809,-274.139 127.247,-274.973 130.073,-281.378"/>
</g>
<!-- AS8218 -->
<g id="node4" class="node"><title>AS8218</title>
<g id="a_node4"><a xlink:href="/asn/8218" xlink:title="AS8218 ~ legacy Neotelecoms [FR]">
<ellipse fill="#ffffff" stroke="black" cx="288.431" cy="-558" rx="39.7935" ry="18"/>
<text text-anchor="middle" x="288.431" y="-554.3" font-family="Times,serif" font-size="14.00" fill="#2c94b3">AS8218</text>
</a>
</g>
</g>
<!-- AS1764&#45;&gt;AS8218 -->
<g id="edge3" class="edge"><title>AS1764&#45;&gt;AS8218</title>
<path fill="none" stroke="black" stroke-width="1.125" d="M173.515,-359.882C182.073,-395.609 205.222,-477.008 248.784,-531 250.615,-533.269 252.685,-535.43 254.892,-537.468"/>
<polygon fill="black" stroke="black" stroke-width="1.125" points="252.815,-540.291 262.773,-543.906 257.243,-534.869 252.815,-540.291"/>
</g>
<!-- AS174 -->
<g id="node5" class="node"><title>AS174</title>
<g id="a_node5"><a xlink:href="/asn/174" xlink:title="AS174 ~ Cogent Communications [US]">
<ellipse fill="#ffffff" stroke="black" cx="288.431" cy="-504" rx="35.194" ry="18"/>
<text text-anchor="middle" x="288.431" y="-500.3" font-family="Times,serif" font-size="14.00" fill="#2c94b3">AS174</text>
</a>
</g>
</g>
<!-- AS1764&#45;&gt;AS174 -->
<g id="edge4" class="edge"><title>AS1764&#45;&gt;AS174</title>
<path fill="none" stroke="black" stroke-width="2.8125" d="M177.004,-359.761C189.072,-387.183 215.044,-440.473 248.784,-477 251.19,-479.604 253.887,-482.1 256.71,-484.449"/>
<polygon fill="black" stroke="black" stroke-width="2.8125" points="254.778,-487.378 264.854,-490.653 259.019,-481.809 254.778,-487.378"/>
</g>
<!-- AS3257 -->
<g id="node6" class="node"><title>AS3257</title>
<g id="a_node6"><a xlink:href="/asn/3257" xlink:title="AS3257 ~ GTT [DE]">
<ellipse fill="#ffffff" stroke="black" cx="288.431" cy="-450" rx="39.7935" ry="18"/>
<text text-anchor="middle" x="288.431" y="-446.3" font-family="Times,serif" font-size="14.00" fill="#2c94b3">AS3257</text>
</a>
</g>
</g>
<!-- AS1764&#45;&gt;AS3257 -->
<g id="edge5" class="edge"><title>AS1764&#45;&gt;AS3257</title>
<path fill="none" stroke="black" stroke-width="2.25" d="M184.234,-358.725C199.535,-375.765 224.632,-402.523 248.784,-423 251.281,-425.117 253.942,-427.232 256.653,-429.293"/>
<polygon fill="black" stroke="black" stroke-width="2.25" points="254.69,-432.194 264.83,-435.266 258.819,-426.541 254.69,-432.194"/>
</g>
<!-- AS3356 -->
<g id="node7" class="node"><title>AS3356</title>
<g id="a_node7"><a xlink:href="/asn/3356" xlink:title="AS3356 ~ Level 3 Parent, LLC [US]">
<ellipse fill="#ffffff" stroke="black" cx="288.431" cy="-288" rx="39.7935" ry="18"/>
<text text-anchor="middle" x="288.431" y="-284.3" font-family="Times,serif" font-size="14.00" fill="#2c94b3">AS3356</text>
</a>
</g>
</g>
<!-- AS1764&#45;&gt;AS3356 -->
<g id="edge6" class="edge"><title>AS1764&#45;&gt;AS3356</title>
<path fill="none" stroke="black" stroke-width="4.5" d="M197.217,-329.339C213.174,-322.027 233.445,-312.739 250.727,-304.819"/>
<polygon fill="black" stroke="black" stroke-width="4.5" points="252.524,-308.327 259.975,-300.581 249.244,-301.168 252.524,-308.327"/>
</g>
<!-- AS3320 -->
<g id="node8" class="node"><title>AS3320</title>
<g id="a_node8"><a xlink:href="/asn/3320" xlink:title="AS3320 ~ DTAG [DE]">
<ellipse fill="#ffffff" stroke="black" cx="288.431" cy="-234" rx="39.7935" ry="18"/>
<text text-anchor="middle" x="288.431" y="-230.3" font-family="Times,serif" font-size="14.00" fill="#2c94b3">AS3320</text>
</a>
</g>
</g>
<!-- AS1764&#45;&gt;AS3320 -->
<g id="edge7" class="edge"><title>AS1764&#45;&gt;AS3320</title>
<path fill="none" stroke="black" stroke-width="1.6875" d="M184.234,-325.275C199.535,-308.235 224.632,-281.477 248.784,-261 251.281,-258.883 253.942,-256.768 256.653,-254.707"/>
<polygon fill="black" stroke="black" stroke-width="1.6875" points="258.819,-257.459 264.83,-248.734 254.69,-251.806 258.819,-257.459"/>
</g>
<!-- AS2914 -->
<g id="node9" class="node"><title>AS2914</title>
<g id="a_node9"><a xlink:href="/asn/2914" xlink:title="AS2914 ~ NTT America, Inc. [US]">
<ellipse fill="#ffffff" stroke="black" cx="288.431" cy="-342" rx="39.7935" ry="18"/>
<text text-anchor="middle" x="288.431" y="-338.3" font-family="Times,serif" font-size="14.00" fill="#2c94b3">AS2914</text>
</a>
</g>
</g>
<!-- AS1764&#45;&gt;AS2914 -->
<g id="edge8" class="edge"><title>AS1764&#45;&gt;AS2914</title>
<path fill="none" stroke="black" stroke-width="1.125" d="M208.501,-342C218.054,-342 228.404,-342 238.367,-342"/>
<polygon fill="black" stroke="black" stroke-width="1.125" points="238.559,-345.5 248.559,-342 238.559,-338.5 238.559,-345.5"/>
</g>
<!-- AS1299 -->
<g id="node10" class="node"><title>AS1299</title>
<g id="a_node10"><a xlink:href="/asn/1299" xlink:title="AS1299 ~ Telia Carrier [EU]">
<ellipse fill="#ffffff" stroke="black" cx="288.431" cy="-180" rx="39.7935" ry="18"/>
<text text-anchor="middle" x="288.431" y="-176.3" font-family="Times,serif" font-size="14.00" fill="#2c94b3">AS1299</text>
</a>
</g>
</g>
<!-- AS1764&#45;&gt;AS1299 -->
<g id="edge9" class="edge"><title>AS1764&#45;&gt;AS1299</title>
<path fill="none" stroke="black" stroke-width="1.125" d="M184.786,-325.323C193.661,-315.051 204.674,-301.334 212.784,-288 233.257,-254.342 223.72,-237.394 248.784,-207 250.639,-204.75 252.727,-202.604 254.945,-200.576"/>
<polygon fill="black" stroke="black" stroke-width="1.125" points="257.294,-203.177 262.85,-194.156 252.881,-197.744 257.294,-203.177"/>
</g>
<!-- AS6939 -->
<g id="node11" class="node"><title>AS6939</title>
<g id="a_node11"><a xlink:href="/asn/6939" xlink:title="AS6939 ~ Hurricane Electric LLC [US]">
<ellipse fill="#ffffff" stroke="black" cx="288.431" cy="-396" rx="39.7935" ry="18"/>
<text text-anchor="middle" x="288.431" y="-392.3" font-family="Times,serif" font-size="14.00" fill="#2c94b3">AS6939</text>
</a>
</g>
</g>
<!-- AS1764&#45;&gt;AS6939 -->
<g id="edge10" class="edge"><title>AS1764&#45;&gt;AS6939</title>
<path fill="none" stroke="black" stroke-width="2.25" d="M197.217,-354.661C213.174,-361.973 233.445,-371.261 250.727,-379.181"/>
<polygon fill="black" stroke="black" stroke-width="2.25" points="249.426,-382.435 259.975,-383.419 252.342,-376.071 249.426,-382.435"/>
</g>
<!-- AS47147&#45;&gt;AS3320 -->
<g id="edge31" class="edge"><title>AS47147&#45;&gt;AS3320</title>
<path fill="none" stroke="black" stroke-width="2" d="M207.523,-252.308C218.764,-249.733 231.176,-246.889 242.799,-244.226"/>
<polygon fill="black" stroke="black" stroke-width="2" points="243.795,-247.588 252.761,-241.943 242.232,-240.765 243.795,-247.588"/>
</g>
<!-- AS47147&#45;&gt;AS2914 -->
<g id="edge33" class="edge"><title>AS47147&#45;&gt;AS2914</title>
<path fill="none" stroke="black" stroke-width="2" d="M192.031,-276.426C210.612,-289.198 237.173,-307.455 257.553,-321.463"/>
<polygon fill="black" stroke="black" stroke-width="2" points="255.643,-324.398 265.867,-327.178 259.609,-318.629 255.643,-324.398"/>
</g>
<!-- AS47147&#45;&gt;AS1299 -->
<g id="edge32" class="edge"><title>AS47147&#45;&gt;AS1299</title>
<path fill="none" stroke="black" stroke-width="3" d="M192.031,-245.574C210.612,-232.802 237.173,-214.545 257.553,-200.537"/>
<polygon fill="black" stroke="black" stroke-width="3" points="259.609,-203.371 265.867,-194.822 255.643,-197.602 259.609,-203.371"/>
</g>
<!-- AS6461 -->
<g id="node12" class="node"><title>AS6461</title>
<g id="a_node12"><a xlink:href="/asn/6461" xlink:title="AS6461 ~ Zayo Bandwidth [US]">
<ellipse fill="#ffffff" stroke="black" cx="403.724" cy="-558" rx="39.7935" ry="18"/>
<text text-anchor="middle" x="403.724" y="-554.3" font-family="Times,serif" font-size="14.00" fill="#2c94b3">AS6461</text>
</a>
</g>
</g>
<!-- AS8218&#45;&gt;AS6461 -->
<g id="edge11" class="edge"><title>AS8218&#45;&gt;AS6461</title>
<path fill="none" stroke="black" stroke-width="2" d="M328.103,-558C336.306,-558 345.07,-558 353.602,-558"/>
<polygon fill="black" stroke="black" stroke-width="2" points="353.841,-561.5 363.841,-558 353.841,-554.5 353.841,-561.5"/>
</g>
<!-- AS3491 -->
<g id="node13" class="node"><title>AS3491</title>
<g id="a_node13"><a xlink:href="/asn/3491" xlink:title="AS3491 ~ PCCW Global, Inc. [US]">
<ellipse fill="#ffffff" stroke="black" cx="403.724" cy="-504" rx="39.7935" ry="18"/>
<text text-anchor="middle" x="403.724" y="-500.3" font-family="Times,serif" font-size="14.00" fill="#2c94b3">AS3491</text>
</a>
</g>
</g>
<!-- AS174&#45;&gt;AS3491 -->
<g id="edge12" class="edge"><title>AS174&#45;&gt;AS3491</title>
<path fill="none" stroke="black" d="M323.73,-504C333.107,-504 343.457,-504 353.492,-504"/>
<polygon fill="black" stroke="black" points="353.781,-507.5 363.781,-504 353.781,-500.5 353.781,-507.5"/>
</g>
<!-- AS6762 -->
<g id="node14" class="node"><title>AS6762</title>
<g id="a_node14"><a xlink:href="/asn/6762" xlink:title="AS6762 ~ TELECOM ITALIA SPARKLE S.p.A. [IT]">
<ellipse fill="#ffffff" stroke="black" cx="403.724" cy="-396" rx="39.7935" ry="18"/>
<text text-anchor="middle" x="403.724" y="-392.3" font-family="Times,serif" font-size="14.00" fill="#2c94b3">AS6762</text>
</a>
</g>
</g>
<!-- AS174&#45;&gt;AS6762 -->
<g id="edge13" class="edge"><title>AS174&#45;&gt;AS6762</title>
<path fill="none" stroke="black" stroke-width="2" d="M311.814,-490.468C317.455,-486.51 323.269,-481.914 328.077,-477 348.25,-456.383 343.905,-443.617 364.077,-423 366.17,-420.861 368.453,-418.782 370.83,-416.79"/>
<polygon fill="black" stroke="black" stroke-width="2" points="373.349,-419.268 379.13,-410.389 369.074,-413.725 373.349,-419.268"/>
</g>
<!-- AS3257&#45;&gt;AS3491 -->
<g id="edge15" class="edge"><title>AS3257&#45;&gt;AS3491</title>
<path fill="none" stroke="black" d="M316.567,-462.934C331.561,-470.081 350.382,-479.052 366.605,-486.785"/>
<polygon fill="black" stroke="black" points="365.276,-490.028 375.809,-491.171 368.288,-483.709 365.276,-490.028"/>
</g>
<!-- AS2497 -->
<g id="node15" class="node"><title>AS2497</title>
<g id="a_node15"><a xlink:href="/asn/2497" xlink:title="AS2497 ~ Internet Initiative Japan Inc. [JP]">
<ellipse fill="#ffffff" stroke="black" cx="403.724" cy="-342" rx="39.7935" ry="18"/>
<text text-anchor="middle" x="403.724" y="-338.3" font-family="Times,serif" font-size="14.00" fill="#2c94b3">AS2497</text>
</a>
</g>
</g>
<!-- AS3257&#45;&gt;AS2497 -->
<g id="edge14" class="edge"><title>AS3257&#45;&gt;AS2497</title>
<path fill="none" stroke="black" stroke-width="2" d="M313.025,-435.611C318.281,-431.852 323.613,-427.563 328.077,-423 348.25,-402.383 343.905,-389.617 364.077,-369 366.17,-366.861 368.453,-364.782 370.83,-362.79"/>
<polygon fill="black" stroke="black" stroke-width="2" points="373.349,-365.268 379.13,-356.389 369.074,-359.725 373.349,-365.268"/>
</g>
<!-- AS3356&#45;&gt;AS6762 -->
<g id="edge16" class="edge"><title>AS3356&#45;&gt;AS6762</title>
<path fill="none" stroke="black" d="M313.025,-302.389C318.281,-306.148 323.613,-310.437 328.077,-315 348.25,-335.617 343.905,-348.383 364.077,-369 366.17,-371.139 368.453,-373.218 370.83,-375.21"/>
<polygon fill="black" stroke="black" points="369.074,-378.275 379.13,-381.611 373.349,-372.732 369.074,-378.275"/>
</g>
<!-- AS3356&#45;&gt;AS2497 -->
<g id="edge19" class="edge"><title>AS3356&#45;&gt;AS2497</title>
<path fill="none" stroke="black" stroke-width="2" d="M316.567,-300.934C331.561,-308.081 350.382,-317.052 366.605,-324.785"/>
<polygon fill="black" stroke="black" stroke-width="2" points="365.276,-328.028 375.809,-329.171 368.288,-321.709 365.276,-328.028"/>
</g>
<!-- AS3549 -->
<g id="node16" class="node"><title>AS3549</title>
<g id="a_node16"><a xlink:href="/asn/3549" xlink:title="AS3549 ~ Level 3 Parent, LLC [US]">
<ellipse fill="#ffffff" stroke="black" cx="403.724" cy="-288" rx="39.7935" ry="18"/>
<text text-anchor="middle" x="403.724" y="-284.3" font-family="Times,serif" font-size="14.00" fill="#2c94b3">AS3549</text>
</a>
</g>
</g>
<!-- AS3356&#45;&gt;AS3549 -->
<g id="edge17" class="edge"><title>AS3356&#45;&gt;AS3549</title>
<path fill="none" stroke="black" d="M328.103,-288C336.306,-288 345.07,-288 353.602,-288"/>
<polygon fill="black" stroke="black" points="353.841,-291.5 363.841,-288 353.841,-284.5 353.841,-291.5"/>
</g>
<!-- AS6453 -->
<g id="node17" class="node"><title>AS6453</title>
<g id="a_node17"><a xlink:href="/asn/6453" xlink:title="AS6453 ~ TATA COMMUNICATIONS (AMERICA) INC [US]">
<ellipse fill="#ffffff" stroke="black" cx="403.724" cy="-234" rx="39.7935" ry="18"/>
<text text-anchor="middle" x="403.724" y="-230.3" font-family="Times,serif" font-size="14.00" fill="#2c94b3">AS6453</text>
</a>
</g>
</g>
<!-- AS3356&#45;&gt;AS6453 -->
<g id="edge18" class="edge"><title>AS3356&#45;&gt;AS6453</title>
<path fill="none" stroke="black" d="M316.567,-275.066C331.561,-267.919 350.382,-258.948 366.605,-251.215"/>
<polygon fill="black" stroke="black" points="368.288,-254.291 375.809,-246.829 365.276,-247.972 368.288,-254.291"/>
</g>
<!-- AS209 -->
<g id="node18" class="node"><title>AS209</title>
<g id="a_node18"><a xlink:href="/asn/209" xlink:title="AS209 ~ CenturyLink Communications, LLC [US]">
<ellipse fill="#ffffff" stroke="black" cx="403.724" cy="-180" rx="35.194" ry="18"/>
<text text-anchor="middle" x="403.724" y="-176.3" font-family="Times,serif" font-size="14.00" fill="#2c94b3">AS209</text>
</a>
</g>
</g>
<!-- AS3356&#45;&gt;AS209 -->
<g id="edge20" class="edge"><title>AS3356&#45;&gt;AS209</title>
<path fill="none" stroke="black" d="M313.025,-273.611C318.281,-269.852 323.613,-265.563 328.077,-261 348.25,-240.383 343.905,-227.617 364.077,-207 366.556,-204.466 369.303,-202.017 372.156,-199.696"/>
<polygon fill="black" stroke="black" points="374.458,-202.343 380.341,-193.532 370.247,-196.752 374.458,-202.343"/>
</g>
<!-- AS3320&#45;&gt;AS6453 -->
<g id="edge23" class="edge"><title>AS3320&#45;&gt;AS6453</title>
<path fill="none" stroke="black" d="M328.103,-234C336.306,-234 345.07,-234 353.602,-234"/>
<polygon fill="black" stroke="black" points="353.841,-237.5 363.841,-234 353.841,-230.5 353.841,-237.5"/>
</g>
<!-- AS1239 -->
<g id="node19" class="node"><title>AS1239</title>
<g id="a_node19"><a xlink:href="/asn/1239" xlink:title="AS1239 ~ Sprint [US]">
<ellipse fill="#ffffff" stroke="black" cx="403.724" cy="-72" rx="39.7935" ry="18"/>
<text text-anchor="middle" x="403.724" y="-68.3" font-family="Times,serif" font-size="14.00" fill="#2c94b3">AS1239</text>
</a>
</g>
</g>
<!-- AS3320&#45;&gt;AS1239 -->
<g id="edge21" class="edge"><title>AS3320&#45;&gt;AS1239</title>
<path fill="none" stroke="black" d="M314.362,-220.118C319.438,-216.389 324.356,-211.984 328.077,-207 358.349,-166.458 333.806,-139.542 364.077,-99 365.822,-96.6636 367.829,-94.4546 369.992,-92.3828"/>
<polygon fill="black" stroke="black" points="372.352,-94.9726 377.793,-85.8816 367.87,-89.5954 372.352,-94.9726"/>
</g>
<!-- AS701 -->
<g id="node20" class="node"><title>AS701</title>
<g id="a_node20"><a xlink:href="/asn/701" xlink:title="AS701 ~ UUNET [US]">
<ellipse fill="#ffffff" stroke="black" cx="403.724" cy="-126" rx="35.194" ry="18"/>
<text text-anchor="middle" x="403.724" y="-122.3" font-family="Times,serif" font-size="14.00" fill="#2c94b3">AS701</text>
</a>
</g>
</g>
<!-- AS3320&#45;&gt;AS701 -->
<g id="edge22" class="edge"><title>AS3320&#45;&gt;AS701</title>
<path fill="none" stroke="black" stroke-width="2" d="M313.025,-219.611C318.281,-215.852 323.613,-211.563 328.077,-207 348.25,-186.383 343.905,-173.617 364.077,-153 366.556,-150.466 369.303,-148.017 372.156,-145.696"/>
<polygon fill="black" stroke="black" stroke-width="2" points="374.458,-148.343 380.341,-139.532 370.247,-142.752 374.458,-148.343"/>
</g>
<!-- AS2914&#45;&gt;AS2497 -->
<g id="edge24" class="edge"><title>AS2914&#45;&gt;AS2497</title>
<path fill="none" stroke="black" stroke-width="2" d="M328.103,-342C336.306,-342 345.07,-342 353.602,-342"/>
<polygon fill="black" stroke="black" stroke-width="2" points="353.841,-345.5 363.841,-342 353.841,-338.5 353.841,-345.5"/>
</g>
<!-- AS1299&#45;&gt;AS209 -->
<g id="edge26" class="edge"><title>AS1299&#45;&gt;AS209</title>
<path fill="none" stroke="black" d="M328.103,-180C337.808,-180 348.299,-180 358.262,-180"/>
<polygon fill="black" stroke="black" points="358.398,-183.5 368.398,-180 358.398,-176.5 358.398,-183.5"/>
</g>
<!-- AS7018 -->
<g id="node21" class="node"><title>AS7018</title>
<g id="a_node21"><a xlink:href="/asn/7018" xlink:title="AS7018 ~ AT&amp;T Services, Inc. [US]">
<ellipse fill="#ffffff" stroke="black" cx="403.724" cy="-18" rx="39.7935" ry="18"/>
<text text-anchor="middle" x="403.724" y="-14.3" font-family="Times,serif" font-size="14.00" fill="#2c94b3">AS7018</text>
</a>
</g>
</g>
<!-- AS1299&#45;&gt;AS7018 -->
<g id="edge25" class="edge"><title>AS1299&#45;&gt;AS7018</title>
<path fill="none" stroke="black" stroke-width="2" d="M296.179,-162.213C307.23,-134.757 331.283,-81.422 364.077,-45 366.08,-42.7761 368.298,-40.6367 370.631,-38.603"/>
<polygon fill="black" stroke="black" stroke-width="2" points="373.161,-41.0651 378.85,-32.1268 368.829,-35.5668 373.161,-41.0651"/>
</g>
<!-- AS6939&#45;&gt;AS3491 -->
<g id="edge29" class="edge"><title>AS6939&#45;&gt;AS3491</title>
<path fill="none" stroke="black" d="M313.025,-410.389C318.281,-414.148 323.613,-418.437 328.077,-423 348.25,-443.617 343.905,-456.383 364.077,-477 366.17,-479.139 368.453,-481.218 370.83,-483.21"/>
<polygon fill="black" stroke="black" points="369.074,-486.275 379.13,-489.611 373.349,-480.732 369.074,-486.275"/>
</g>
<!-- AS6939&#45;&gt;AS6762 -->
<g id="edge30" class="edge"><title>AS6939&#45;&gt;AS6762</title>
<path fill="none" stroke="black" d="M328.103,-396C336.306,-396 345.07,-396 353.602,-396"/>
<polygon fill="black" stroke="black" points="353.841,-399.5 363.841,-396 353.841,-392.5 353.841,-399.5"/>
</g>
<!-- AS6939&#45;&gt;AS2497 -->
<g id="edge28" class="edge"><title>AS6939&#45;&gt;AS2497</title>
<path fill="none" stroke="black" d="M316.567,-383.066C331.561,-375.919 350.382,-366.948 366.605,-359.215"/>
<polygon fill="black" stroke="black" points="368.288,-362.291 375.809,-354.829 365.276,-355.972 368.288,-362.291"/>
</g>
<!-- AS1273 -->
<g id="node22" class="node"><title>AS1273</title>
<g id="a_node22"><a xlink:href="/asn/1273" xlink:title="AS1273 ~ Vodafone Group PLC [EU]">
<ellipse fill="#ffffff" stroke="black" cx="403.724" cy="-450" rx="39.7935" ry="18"/>
<text text-anchor="middle" x="403.724" y="-446.3" font-family="Times,serif" font-size="14.00" fill="#2c94b3">AS1273</text>
</a>
</g>
</g>
<!-- AS6939&#45;&gt;AS1273 -->
<g id="edge27" class="edge"><title>AS6939&#45;&gt;AS1273</title>
<path fill="none" stroke="black" d="M316.567,-408.934C331.561,-416.081 350.382,-425.052 366.605,-432.785"/>
<polygon fill="black" stroke="black" points="365.276,-436.028 375.809,-437.171 368.288,-429.709 365.276,-436.028"/>
</g>
</g>
</svg>
