<?xml version="1.0" encoding="UTF-8" standalone="no"?>
<!DOCTYPE svg PUBLIC "-//W3C//DTD SVG 1.1//EN"
 "http://www.w3.org/Graphics/SVG/1.1/DTD/svg11.dtd">
<!-- Generated by graphviz version 2.38.0 (20140413.2041)
 -->
<!-- Title: AS35609 IPv6 Upstream Graph Pages: 1 -->
<svg width="682pt" height="692pt"
 viewBox="0.00 0.00 681.96 692.00" xmlns="http://www.w3.org/2000/svg" xmlns:xlink="http://www.w3.org/1999/xlink">
<g id="graph0" class="graph" transform="scale(1 1) rotate(0) translate(4 688)">
<title>AS35609 IPv6 Upstream Graph</title>
<polygon fill="white" stroke="none" points="-4,4 -4,-688 677.956,-688 677.956,4 -4,4"/>
<!-- AS35609 -->
<g id="node1" class="node"><title>AS35609</title>
<g id="a_node1"><a xlink:href="/asn/35609" xlink:title="AS35609 ~ Smart Force e.U. [AT]">
<ellipse fill="#ffffff" stroke="black" cx="44.1961" cy="-355" rx="44.393" ry="18"/>
<text text-anchor="middle" x="44.1961" y="-351.3" font-family="Times,serif" font-size="14.00" fill="#880000">AS35609</text>
</a>
</g>
</g>
<!-- AS8437 -->
<g id="node2" class="node"><title>AS8437</title>
<g id="a_node2"><a xlink:href="/asn/8437" xlink:title="AS8437 ~ Hutchison Drei Austria GmbH [AT]">
<ellipse fill="#ffffff" stroke="black" cx="164.039" cy="-355" rx="39.7935" ry="18"/>
<text text-anchor="middle" x="164.039" y="-351.3" font-family="Times,serif" font-size="14.00" fill="#2c94b3">AS8437</text>
</a>
</g>
</g>
<!-- AS35609&#45;&gt;AS8437 -->
<g id="edge1" class="edge"><title>AS35609&#45;&gt;AS8437</title>
<path fill="none" stroke="black" stroke-width="4.5" d="M88.4072,-355C96.7198,-355 105.482,-355 113.965,-355"/>
<polygon fill="black" stroke="black" stroke-width="4.5" points="114.123,-358.938 124.123,-355 114.123,-351.063 114.123,-358.938"/>
</g>
<!-- AS25255 -->
<g id="node3" class="node"><title>AS25255</title>
<g id="a_node3"><a xlink:href="/asn/25255" xlink:title="AS25255 ~ ==&gt; TELE2 AUSTRIA &lt;== [AT]">
<ellipse fill="#ffffff" stroke="black" cx="283.881" cy="-355" rx="44.393" ry="18"/>
<text text-anchor="middle" x="283.881" y="-351.3" font-family="Times,serif" font-size="14.00" fill="#2c94b3">AS25255</text>
</a>
</g>
</g>
<!-- AS8437&#45;&gt;AS25255 -->
<g id="edge2" class="edge"><title>AS8437&#45;&gt;AS25255</title>
<path fill="none" stroke="black" stroke-width="4.5" d="M203.951,-355C212.054,-355 220.729,-355 229.255,-355"/>
<polygon fill="black" stroke="black" stroke-width="4.5" points="229.533,-358.938 239.533,-355 229.533,-351.063 229.533,-358.938"/>
</g>
<!-- AS1764 -->
<g id="node4" class="node"><title>AS1764</title>
<g id="a_node4"><a xlink:href="/asn/1764" xlink:title="AS1764 ~ NEXTLAYER&#45;AS [AT]">
<ellipse fill="#ffffff" stroke="black" cx="403.724" cy="-477" rx="39.7935" ry="18"/>
<text text-anchor="middle" x="403.724" y="-473.3" font-family="Times,serif" font-size="14.00" fill="#2c94b3">AS1764</text>
</a>
</g>
</g>
<!-- AS25255&#45;&gt;AS1764 -->
<g id="edge3" class="edge"><title>AS25255&#45;&gt;AS1764</title>
<path fill="none" stroke="black" stroke-width="4.5" d="M301.02,-371.708C321.383,-392.789 356.536,-429.183 379.711,-453.175"/>
<polygon fill="black" stroke="black" stroke-width="4.5" points="377.001,-456.037 386.78,-460.494 382.665,-450.566 377.001,-456.037"/>
</g>
<!-- AS3320 -->
<g id="node5" class="node"><title>AS3320</title>
<g id="a_node5"><a xlink:href="/asn/3320" xlink:title="AS3320 ~ DTAG [DE]">
<ellipse fill="#ffffff" stroke="black" cx="403.724" cy="-207" rx="39.7935" ry="18"/>
<text text-anchor="middle" x="403.724" y="-203.3" font-family="Times,serif" font-size="14.00" fill="#2c94b3">AS3320</text>
</a>
</g>
</g>
<!-- AS25255&#45;&gt;AS3320 -->
<g id="edge4" class="edge"><title>AS25255&#45;&gt;AS3320</title>
<path fill="none" stroke="black" stroke-width="3.5" d="M298.63,-337.733C319.386,-311.666 358.831,-262.126 382.755,-232.079"/>
<polygon fill="black" stroke="black" stroke-width="3.5" points="385.572,-234.16 389.063,-224.157 380.096,-229.8 385.572,-234.16"/>
</g>
<!-- AS8447 -->
<g id="node6" class="node"><title>AS8447</title>
<g id="a_node6"><a xlink:href="/asn/8447" xlink:title="AS8447 ~ A1 Telekom Austria AG [AT]">
<ellipse fill="#ffffff" stroke="black" cx="403.724" cy="-612" rx="39.7935" ry="18"/>
<text text-anchor="middle" x="403.724" y="-608.3" font-family="Times,serif" font-size="14.00" fill="#2c94b3">AS8447</text>
</a>
</g>
</g>
<!-- AS25255&#45;&gt;AS8447 -->
<g id="edge5" class="edge"><title>AS25255&#45;&gt;AS8447</title>
<path fill="none" stroke="black" stroke-width="0.5" d="M292.981,-372.665C313.206,-416.772 366.03,-531.976 390.256,-584.809"/>
<polygon fill="black" stroke="black" stroke-width="0.5" points="387.218,-586.581 394.567,-594.212 393.581,-583.663 387.218,-586.581"/>
</g>
<!-- AS6762 -->
<g id="node7" class="node"><title>AS6762</title>
<g id="a_node7"><a xlink:href="/asn/6762" xlink:title="AS6762 ~ TELECOM ITALIA SPARKLE S.p.A. [IT]">
<ellipse fill="#ffffff" stroke="black" cx="403.724" cy="-153" rx="39.7935" ry="18"/>
<text text-anchor="middle" x="403.724" y="-149.3" font-family="Times,serif" font-size="14.00" fill="#2c94b3">AS6762</text>
</a>
</g>
</g>
<!-- AS25255&#45;&gt;AS6762 -->
<g id="edge6" class="edge"><title>AS25255&#45;&gt;AS6762</title>
<path fill="none" stroke="black" stroke-width="0.5" d="M289.586,-336.893C299.078,-303.068 323.174,-229.26 364.077,-180 365.94,-177.757 368.033,-175.615 370.255,-173.59"/>
<polygon fill="black" stroke="black" stroke-width="0.5" points="372.603,-176.192 378.167,-167.176 368.195,-170.755 372.603,-176.192"/>
</g>
<!-- AS3257 -->
<g id="node8" class="node"><title>AS3257</title>
<g id="a_node8"><a xlink:href="/asn/3257" xlink:title="AS3257 ~ GTT [DE]">
<ellipse fill="#ffffff" stroke="black" cx="519.017" cy="-558" rx="39.7935" ry="18"/>
<text text-anchor="middle" x="519.017" y="-554.3" font-family="Times,serif" font-size="14.00" fill="#2c94b3">AS3257</text>
</a>
</g>
</g>
<!-- AS1764&#45;&gt;AS3257 -->
<g id="edge7" class="edge"><title>AS1764&#45;&gt;AS3257</title>
<path fill="none" stroke="black" d="M425.572,-492.222C440.506,-503.091 461.12,-518.025 479.37,-531 482.191,-533.005 485.134,-535.085 488.082,-537.159"/>
<polygon fill="black" stroke="black" points="486.109,-540.05 496.306,-542.926 490.128,-534.319 486.109,-540.05"/>
</g>
<!-- AS3356 -->
<g id="node9" class="node"><title>AS3356</title>
<g id="a_node9"><a xlink:href="/asn/3356" xlink:title="AS3356 ~ Level 3 Parent, LLC [US]">
<ellipse fill="#ffffff" stroke="black" cx="519.017" cy="-504" rx="39.7935" ry="18"/>
<text text-anchor="middle" x="519.017" y="-500.3" font-family="Times,serif" font-size="14.00" fill="#2c94b3">AS3356</text>
</a>
</g>
</g>
<!-- AS1764&#45;&gt;AS3356 -->
<g id="edge8" class="edge"><title>AS1764&#45;&gt;AS3356</title>
<path fill="none" stroke="black" d="M439.331,-485.248C450.202,-487.838 462.357,-490.735 473.799,-493.462"/>
<polygon fill="black" stroke="black" points="473.082,-496.889 483.621,-495.803 474.705,-490.08 473.082,-496.889"/>
</g>
<!-- AS1299 -->
<g id="node10" class="node"><title>AS1299</title>
<g id="a_node10"><a xlink:href="/asn/1299" xlink:title="AS1299 ~ Telia Carrier [EU]">
<ellipse fill="#ffffff" stroke="black" cx="519.017" cy="-666" rx="39.7935" ry="18"/>
<text text-anchor="middle" x="519.017" y="-662.3" font-family="Times,serif" font-size="14.00" fill="#2c94b3">AS1299</text>
</a>
</g>
</g>
<!-- AS1764&#45;&gt;AS1299 -->
<g id="edge9" class="edge"><title>AS1764&#45;&gt;AS1299</title>
<path fill="none" stroke="black" stroke-width="2" d="M409.598,-495.002C418.912,-526.844 441.728,-593.981 479.37,-639 481.241,-641.237 483.339,-643.374 485.565,-645.396"/>
<polygon fill="black" stroke="black" stroke-width="2" points="483.509,-648.234 493.484,-651.804 487.912,-642.793 483.509,-648.234"/>
</g>
<!-- AS8218 -->
<g id="node11" class="node"><title>AS8218</title>
<g id="a_node11"><a xlink:href="/asn/8218" xlink:title="AS8218 ~ legacy Neotelecoms [FR]">
<ellipse fill="#ffffff" stroke="black" cx="519.017" cy="-342" rx="39.7935" ry="18"/>
<text text-anchor="middle" x="519.017" y="-338.3" font-family="Times,serif" font-size="14.00" fill="#2c94b3">AS8218</text>
</a>
</g>
</g>
<!-- AS1764&#45;&gt;AS8218 -->
<g id="edge10" class="edge"><title>AS1764&#45;&gt;AS8218</title>
<path fill="none" stroke="black" d="M414.184,-459.51C426.965,-436.904 451.398,-397.114 479.37,-369 481.481,-366.879 483.777,-364.812 486.163,-362.829"/>
<polygon fill="black" stroke="black" points="488.678,-365.31 494.478,-356.444 484.415,-359.758 488.678,-365.31"/>
</g>
<!-- AS2914 -->
<g id="node12" class="node"><title>AS2914</title>
<g id="a_node12"><a xlink:href="/asn/2914" xlink:title="AS2914 ~ NTT America, Inc. [US]">
<ellipse fill="#ffffff" stroke="black" cx="519.017" cy="-396" rx="39.7935" ry="18"/>
<text text-anchor="middle" x="519.017" y="-392.3" font-family="Times,serif" font-size="14.00" fill="#2c94b3">AS2914</text>
</a>
</g>
</g>
<!-- AS1764&#45;&gt;AS2914 -->
<g id="edge11" class="edge"><title>AS1764&#45;&gt;AS2914</title>
<path fill="none" stroke="black" d="M425.572,-461.778C440.506,-450.909 461.12,-435.975 479.37,-423 482.191,-420.995 485.134,-418.915 488.082,-416.841"/>
<polygon fill="black" stroke="black" points="490.128,-419.681 496.306,-411.074 486.109,-413.95 490.128,-419.681"/>
</g>
<!-- AS6939 -->
<g id="node13" class="node"><title>AS6939</title>
<g id="a_node13"><a xlink:href="/asn/6939" xlink:title="AS6939 ~ Hurricane Electric LLC [US]">
<ellipse fill="#ffffff" stroke="black" cx="519.017" cy="-612" rx="39.7935" ry="18"/>
<text text-anchor="middle" x="519.017" y="-608.3" font-family="Times,serif" font-size="14.00" fill="#2c94b3">AS6939</text>
</a>
</g>
</g>
<!-- AS1764&#45;&gt;AS6939 -->
<g id="edge12" class="edge"><title>AS1764&#45;&gt;AS6939</title>
<path fill="none" stroke="black" d="M414.184,-494.49C426.965,-517.096 451.398,-556.886 479.37,-585 481.481,-587.121 483.777,-589.188 486.163,-591.171"/>
<polygon fill="black" stroke="black" points="484.415,-594.242 494.478,-597.556 488.678,-588.69 484.415,-594.242"/>
</g>
<!-- AS174 -->
<g id="node14" class="node"><title>AS174</title>
<g id="a_node14"><a xlink:href="/asn/174" xlink:title="AS174 ~ Cogent Communications [US]">
<ellipse fill="#ffffff" stroke="black" cx="519.017" cy="-450" rx="35.194" ry="18"/>
<text text-anchor="middle" x="519.017" y="-446.3" font-family="Times,serif" font-size="14.00" fill="#2c94b3">AS174</text>
</a>
</g>
</g>
<!-- AS1764&#45;&gt;AS174 -->
<g id="edge13" class="edge"><title>AS1764&#45;&gt;AS174</title>
<path fill="none" stroke="black" stroke-width="2" d="M439.331,-468.752C451.125,-465.942 464.43,-462.771 476.698,-459.847"/>
<polygon fill="black" stroke="black" stroke-width="2" points="477.787,-463.186 486.703,-457.463 476.164,-456.376 477.787,-463.186"/>
</g>
<!-- AS3491 -->
<g id="node15" class="node"><title>AS3491</title>
<g id="a_node15"><a xlink:href="/asn/3491" xlink:title="AS3491 ~ PCCW Global, Inc. [US]">
<ellipse fill="#ffffff" stroke="black" cx="519.017" cy="-234" rx="39.7935" ry="18"/>
<text text-anchor="middle" x="519.017" y="-230.3" font-family="Times,serif" font-size="14.00" fill="#2c94b3">AS3491</text>
</a>
</g>
</g>
<!-- AS3320&#45;&gt;AS3491 -->
<g id="edge14" class="edge"><title>AS3320&#45;&gt;AS3491</title>
<path fill="none" stroke="black" d="M439.331,-215.248C450.202,-217.838 462.357,-220.735 473.799,-223.462"/>
<polygon fill="black" stroke="black" points="473.082,-226.889 483.621,-225.803 474.705,-220.08 473.082,-226.889"/>
</g>
<!-- AS1273 -->
<g id="node16" class="node"><title>AS1273</title>
<g id="a_node16"><a xlink:href="/asn/1273" xlink:title="AS1273 ~ Vodafone Group PLC [EU]">
<ellipse fill="#ffffff" stroke="black" cx="519.017" cy="-180" rx="39.7935" ry="18"/>
<text text-anchor="middle" x="519.017" y="-176.3" font-family="Times,serif" font-size="14.00" fill="#2c94b3">AS1273</text>
</a>
</g>
</g>
<!-- AS3320&#45;&gt;AS1273 -->
<g id="edge15" class="edge"><title>AS3320&#45;&gt;AS1273</title>
<path fill="none" stroke="black" d="M439.331,-198.752C450.202,-196.162 462.357,-193.265 473.799,-190.538"/>
<polygon fill="black" stroke="black" points="474.705,-193.92 483.621,-188.197 473.082,-187.111 474.705,-193.92"/>
</g>
<!-- AS6453 -->
<g id="node17" class="node"><title>AS6453</title>
<g id="a_node17"><a xlink:href="/asn/6453" xlink:title="AS6453 ~ TATA COMMUNICATIONS (AMERICA) INC [US]">
<ellipse fill="#ffffff" stroke="black" cx="519.017" cy="-126" rx="39.7935" ry="18"/>
<text text-anchor="middle" x="519.017" y="-122.3" font-family="Times,serif" font-size="14.00" fill="#2c94b3">AS6453</text>
</a>
</g>
</g>
<!-- AS3320&#45;&gt;AS6453 -->
<g id="edge16" class="edge"><title>AS3320&#45;&gt;AS6453</title>
<path fill="none" stroke="black" d="M426.481,-191.991C432.015,-188.121 437.934,-183.936 443.37,-180 459.57,-168.271 463.17,-164.729 479.37,-153 482.173,-150.971 485.105,-148.875 488.045,-146.79"/>
<polygon fill="black" stroke="black" points="490.096,-149.627 496.26,-141.009 486.068,-143.903 490.096,-149.627"/>
</g>
<!-- AS701 -->
<g id="node18" class="node"><title>AS701</title>
<g id="a_node18"><a xlink:href="/asn/701" xlink:title="AS701 ~ UUNET [US]">
<ellipse fill="#ffffff" stroke="black" cx="519.017" cy="-72" rx="35.194" ry="18"/>
<text text-anchor="middle" x="519.017" y="-68.3" font-family="Times,serif" font-size="14.00" fill="#2c94b3">AS701</text>
</a>
</g>
</g>
<!-- AS3320&#45;&gt;AS701 -->
<g id="edge17" class="edge"><title>AS3320&#45;&gt;AS701</title>
<path fill="none" stroke="black" d="M429.305,-192.844C434.399,-189.128 439.413,-184.799 443.37,-180 468.435,-149.606 454.306,-129.394 479.37,-99 481.505,-96.4111 483.948,-93.9588 486.544,-91.6659"/>
<polygon fill="black" stroke="black" points="488.952,-94.2245 494.643,-85.2879 484.622,-88.7251 488.952,-94.2245"/>
</g>
<!-- AS2497 -->
<g id="node19" class="node"><title>AS2497</title>
<g id="a_node19"><a xlink:href="/asn/2497" xlink:title="AS2497 ~ Internet Initiative Japan Inc. [JP]">
<ellipse fill="#ffffff" stroke="black" cx="519.017" cy="-18" rx="39.7935" ry="18"/>
<text text-anchor="middle" x="519.017" y="-14.3" font-family="Times,serif" font-size="14.00" fill="#2c94b3">AS2497</text>
</a>
</g>
</g>
<!-- AS3320&#45;&gt;AS2497 -->
<g id="edge18" class="edge"><title>AS3320&#45;&gt;AS2497</title>
<path fill="none" stroke="black" d="M429.883,-193.284C434.947,-189.545 439.803,-185.096 443.37,-180 478.984,-129.131 443.757,-95.8692 479.37,-45 481.043,-42.6114 482.998,-40.3647 485.125,-38.2667"/>
<polygon fill="black" stroke="black" points="487.489,-40.8507 492.857,-31.7163 482.965,-35.5095 487.489,-40.8507"/>
</g>
<!-- AS7018 -->
<g id="node20" class="node"><title>AS7018</title>
<g id="a_node20"><a xlink:href="/asn/7018" xlink:title="AS7018 ~ AT&amp;T Services, Inc. [US]">
<ellipse fill="#ffffff" stroke="black" cx="519.017" cy="-288" rx="39.7935" ry="18"/>
<text text-anchor="middle" x="519.017" y="-284.3" font-family="Times,serif" font-size="14.00" fill="#2c94b3">AS7018</text>
</a>
</g>
</g>
<!-- AS3320&#45;&gt;AS7018 -->
<g id="edge19" class="edge"><title>AS3320&#45;&gt;AS7018</title>
<path fill="none" stroke="black" d="M425.572,-222.222C440.506,-233.091 461.12,-248.025 479.37,-261 482.191,-263.005 485.134,-265.085 488.082,-267.159"/>
<polygon fill="black" stroke="black" points="486.109,-270.05 496.306,-272.926 490.128,-264.319 486.109,-270.05"/>
</g>
<!-- AS8447&#45;&gt;AS1299 -->
<g id="edge22" class="edge"><title>AS8447&#45;&gt;AS1299</title>
<path fill="none" stroke="black" d="M431.86,-624.934C446.854,-632.081 465.675,-641.052 481.898,-648.785"/>
<polygon fill="black" stroke="black" points="480.569,-652.028 491.102,-653.171 483.581,-645.709 480.569,-652.028"/>
</g>
<!-- AS209 -->
<g id="node21" class="node"><title>AS209</title>
<g id="a_node21"><a xlink:href="/asn/209" xlink:title="AS209 ~ CenturyLink Communications, LLC [US]">
<ellipse fill="#ffffff" stroke="black" cx="634.31" cy="-612" rx="35.194" ry="18"/>
<text text-anchor="middle" x="634.31" y="-608.3" font-family="Times,serif" font-size="14.00" fill="#2c94b3">AS209</text>
</a>
</g>
</g>
<!-- AS1299&#45;&gt;AS209 -->
<g id="edge20" class="edge"><title>AS1299&#45;&gt;AS209</title>
<path fill="none" stroke="black" d="M547.153,-653.066C562.585,-645.71 582.07,-636.423 598.606,-628.541"/>
<polygon fill="black" stroke="black" points="600.426,-631.551 607.947,-624.089 597.414,-625.232 600.426,-631.551"/>
</g>
<!-- AS6461 -->
<g id="node22" class="node"><title>AS6461</title>
<g id="a_node22"><a xlink:href="/asn/6461" xlink:title="AS6461 ~ Zayo Bandwidth [US]">
<ellipse fill="#ffffff" stroke="black" cx="634.31" cy="-342" rx="39.7935" ry="18"/>
<text text-anchor="middle" x="634.31" y="-338.3" font-family="Times,serif" font-size="14.00" fill="#2c94b3">AS6461</text>
</a>
</g>
</g>
<!-- AS8218&#45;&gt;AS6461 -->
<g id="edge21" class="edge"><title>AS8218&#45;&gt;AS6461</title>
<path fill="none" stroke="black" d="M558.689,-342C566.892,-342 575.656,-342 584.188,-342"/>
<polygon fill="black" stroke="black" points="584.427,-345.5 594.427,-342 584.427,-338.5 584.427,-345.5"/>
</g>
<!-- AS6939&#45;&gt;AS209 -->
<g id="edge23" class="edge"><title>AS6939&#45;&gt;AS209</title>
<path fill="none" stroke="black" d="M558.689,-612C568.394,-612 578.885,-612 588.848,-612"/>
<polygon fill="black" stroke="black" points="588.984,-615.5 598.984,-612 588.984,-608.5 588.984,-615.5"/>
</g>
<!-- AS174&#45;&gt;AS209 -->
<g id="edge24" class="edge"><title>AS174&#45;&gt;AS209</title>
<path fill="none" stroke="black" d="M543.084,-463.552C548.593,-467.45 554.172,-472.012 558.663,-477 587.999,-509.581 610.34,-555.695 622.636,-584.713"/>
<polygon fill="black" stroke="black" points="619.508,-586.308 626.562,-594.213 625.978,-583.634 619.508,-586.308"/>
</g>
</g>
</svg>
