<?xml version="1.0" encoding="UTF-8" standalone="no"?>
<!DOCTYPE svg PUBLIC "-//W3C//DTD SVG 1.1//EN"
 "http://www.w3.org/Graphics/SVG/1.1/DTD/svg11.dtd">
<!-- Generated by graphviz version 2.38.0 (20140413.2041)
 -->
<!-- Title: AS21079 IPv6 Upstream Graph Pages: 1 -->
<svg width="442pt" height="449pt"
 viewBox="0.00 0.00 442.27 449.00" xmlns="http://www.w3.org/2000/svg" xmlns:xlink="http://www.w3.org/1999/xlink">
<g id="graph0" class="graph" transform="scale(1 1) rotate(0) translate(4 445)">
<title>AS21079 IPv6 Upstream Graph</title>
<polygon fill="white" stroke="none" points="-4,4 -4,-445 438.271,-445 438.271,4 -4,4"/>
<!-- AS21079 -->
<g id="node1" class="node"><title>AS21079</title>
<g id="a_node1"><a xlink:href="/asn/21079" xlink:title="AS21079 ~ Vienna, AT [AT]">
<ellipse fill="#ffffff" stroke="black" cx="44.1961" cy="-234" rx="44.393" ry="18"/>
<text text-anchor="middle" x="44.1961" y="-230.3" font-family="Times,serif" font-size="14.00" fill="#880000">AS21079</text>
</a>
</g>
</g>
<!-- AS1764 -->
<g id="node2" class="node"><title>AS1764</title>
<g id="a_node2"><a xlink:href="/asn/1764" xlink:title="AS1764 ~ NEXTLAYER&#45;AS [AT]">
<ellipse fill="#ffffff" stroke="black" cx="164.039" cy="-234" rx="39.7935" ry="18"/>
<text text-anchor="middle" x="164.039" y="-230.3" font-family="Times,serif" font-size="14.00" fill="#2c94b3">AS1764</text>
</a>
</g>
</g>
<!-- AS21079&#45;&gt;AS1764 -->
<g id="edge1" class="edge"><title>AS21079&#45;&gt;AS1764</title>
<path fill="none" stroke="black" stroke-width="4.5" d="M88.4072,-234C96.7198,-234 105.482,-234 113.965,-234"/>
<polygon fill="black" stroke="black" stroke-width="4.5" points="114.123,-237.938 124.123,-234 114.123,-230.063 114.123,-237.938"/>
</g>
<!-- AS174 -->
<g id="node3" class="node"><title>AS174</title>
<g id="a_node3"><a xlink:href="/asn/174" xlink:title="AS174 ~ Cogent Communications [US]">
<ellipse fill="#ffffff" stroke="black" cx="279.332" cy="-315" rx="35.194" ry="18"/>
<text text-anchor="middle" x="279.332" y="-311.3" font-family="Times,serif" font-size="14.00" fill="#2c94b3">AS174</text>
</a>
</g>
</g>
<!-- AS1764&#45;&gt;AS174 -->
<g id="edge2" class="edge"><title>AS1764&#45;&gt;AS174</title>
<path fill="none" stroke="black" stroke-width="2" d="M185.887,-249.222C200.821,-260.091 221.435,-275.025 239.685,-288 242.895,-290.282 246.264,-292.661 249.619,-295.018"/>
<polygon fill="black" stroke="black" stroke-width="2" points="247.631,-297.899 257.83,-300.77 251.647,-292.166 247.631,-297.899"/>
</g>
<!-- AS3356 -->
<g id="node4" class="node"><title>AS3356</title>
<g id="a_node4"><a xlink:href="/asn/3356" xlink:title="AS3356 ~ Level 3 Parent, LLC [US]">
<ellipse fill="#ffffff" stroke="black" cx="279.332" cy="-423" rx="39.7935" ry="18"/>
<text text-anchor="middle" x="279.332" y="-419.3" font-family="Times,serif" font-size="14.00" fill="#2c94b3">AS3356</text>
</a>
</g>
</g>
<!-- AS1764&#45;&gt;AS3356 -->
<g id="edge3" class="edge"><title>AS1764&#45;&gt;AS3356</title>
<path fill="none" stroke="black" stroke-width="2" d="M169.913,-252.002C179.227,-283.844 202.043,-350.981 239.685,-396 241.555,-398.237 243.654,-400.374 245.88,-402.396"/>
<polygon fill="black" stroke="black" stroke-width="2" points="243.823,-405.234 253.799,-408.804 248.227,-399.793 243.823,-405.234"/>
</g>
<!-- AS3257 -->
<g id="node5" class="node"><title>AS3257</title>
<g id="a_node5"><a xlink:href="/asn/3257" xlink:title="AS3257 ~ GTT [DE]">
<ellipse fill="#ffffff" stroke="black" cx="279.332" cy="-369" rx="39.7935" ry="18"/>
<text text-anchor="middle" x="279.332" y="-365.3" font-family="Times,serif" font-size="14.00" fill="#2c94b3">AS3257</text>
</a>
</g>
</g>
<!-- AS1764&#45;&gt;AS3257 -->
<g id="edge4" class="edge"><title>AS1764&#45;&gt;AS3257</title>
<path fill="none" stroke="black" stroke-width="2" d="M174.498,-251.49C187.28,-274.096 211.712,-313.886 239.685,-342 241.796,-344.121 244.092,-346.188 246.477,-348.171"/>
<polygon fill="black" stroke="black" stroke-width="2" points="244.73,-351.242 254.793,-354.556 248.993,-345.69 244.73,-351.242"/>
</g>
<!-- AS3320 -->
<g id="node6" class="node"><title>AS3320</title>
<g id="a_node6"><a xlink:href="/asn/3320" xlink:title="AS3320 ~ DTAG [DE]">
<ellipse fill="#ffffff" stroke="black" cx="279.332" cy="-207" rx="39.7935" ry="18"/>
<text text-anchor="middle" x="279.332" y="-203.3" font-family="Times,serif" font-size="14.00" fill="#2c94b3">AS3320</text>
</a>
</g>
</g>
<!-- AS1764&#45;&gt;AS3320 -->
<g id="edge5" class="edge"><title>AS1764&#45;&gt;AS3320</title>
<path fill="none" stroke="black" stroke-width="2" d="M199.646,-225.752C210.517,-223.162 222.671,-220.265 234.114,-217.538"/>
<polygon fill="black" stroke="black" stroke-width="2" points="235.02,-220.92 243.936,-215.197 233.397,-214.111 235.02,-220.92"/>
</g>
<!-- AS1299 -->
<g id="node7" class="node"><title>AS1299</title>
<g id="a_node7"><a xlink:href="/asn/1299" xlink:title="AS1299 ~ Telia Carrier [EU]">
<ellipse fill="#ffffff" stroke="black" cx="279.332" cy="-261" rx="39.7935" ry="18"/>
<text text-anchor="middle" x="279.332" y="-257.3" font-family="Times,serif" font-size="14.00" fill="#2c94b3">AS1299</text>
</a>
</g>
</g>
<!-- AS1764&#45;&gt;AS1299 -->
<g id="edge6" class="edge"><title>AS1764&#45;&gt;AS1299</title>
<path fill="none" stroke="black" stroke-width="3" d="M199.646,-242.248C210.517,-244.838 222.671,-247.735 234.114,-250.462"/>
<polygon fill="black" stroke="black" stroke-width="3" points="233.397,-253.889 243.936,-252.803 235.02,-247.08 233.397,-253.889"/>
</g>
<!-- AS6939 -->
<g id="node8" class="node"><title>AS6939</title>
<g id="a_node8"><a xlink:href="/asn/6939" xlink:title="AS6939 ~ Hurricane Electric LLC [US]">
<ellipse fill="#ffffff" stroke="black" cx="279.332" cy="-126" rx="39.7935" ry="18"/>
<text text-anchor="middle" x="279.332" y="-122.3" font-family="Times,serif" font-size="14.00" fill="#2c94b3">AS6939</text>
</a>
</g>
</g>
<!-- AS1764&#45;&gt;AS6939 -->
<g id="edge7" class="edge"><title>AS1764&#45;&gt;AS6939</title>
<path fill="none" stroke="black" stroke-width="2" d="M182.245,-217.597C201.321,-199.413 232.241,-169.937 253.838,-149.349"/>
<polygon fill="black" stroke="black" stroke-width="2" points="256.511,-151.637 261.334,-142.203 251.681,-146.57 256.511,-151.637"/>
</g>
<!-- AS8218 -->
<g id="node9" class="node"><title>AS8218</title>
<g id="a_node9"><a xlink:href="/asn/8218" xlink:title="AS8218 ~ legacy Neotelecoms [FR]">
<ellipse fill="#ffffff" stroke="black" cx="279.332" cy="-72" rx="39.7935" ry="18"/>
<text text-anchor="middle" x="279.332" y="-68.3" font-family="Times,serif" font-size="14.00" fill="#2c94b3">AS8218</text>
</a>
</g>
</g>
<!-- AS1764&#45;&gt;AS8218 -->
<g id="edge8" class="edge"><title>AS1764&#45;&gt;AS8218</title>
<path fill="none" stroke="black" d="M171.786,-216.213C182.837,-188.757 206.891,-135.422 239.685,-99 241.688,-96.7761 243.906,-94.6367 246.239,-92.603"/>
<polygon fill="black" stroke="black" points="248.769,-95.0651 254.458,-86.1268 244.437,-89.5668 248.769,-95.0651"/>
</g>
<!-- AS2914 -->
<g id="node10" class="node"><title>AS2914</title>
<g id="a_node10"><a xlink:href="/asn/2914" xlink:title="AS2914 ~ NTT America, Inc. [US]">
<ellipse fill="#ffffff" stroke="black" cx="279.332" cy="-18" rx="39.7935" ry="18"/>
<text text-anchor="middle" x="279.332" y="-14.3" font-family="Times,serif" font-size="14.00" fill="#2c94b3">AS2914</text>
</a>
</g>
</g>
<!-- AS1764&#45;&gt;AS2914 -->
<g id="edge9" class="edge"><title>AS1764&#45;&gt;AS2914</title>
<path fill="none" stroke="black" d="M168.529,-215.84C176.16,-179.97 197.152,-98.845 239.685,-45 241.493,-42.7119 243.545,-40.5378 245.74,-38.4902"/>
<polygon fill="black" stroke="black" points="248.094,-41.0863 253.6,-32.0344 243.651,-35.6771 248.094,-41.0863"/>
</g>
<!-- AS209 -->
<g id="node18" class="node"><title>AS209</title>
<g id="a_node18"><a xlink:href="/asn/209" xlink:title="AS209 ~ CenturyLink Communications, LLC [US]">
<ellipse fill="#ffffff" stroke="black" cx="394.625" cy="-342" rx="35.194" ry="18"/>
<text text-anchor="middle" x="394.625" y="-338.3" font-family="Times,serif" font-size="14.00" fill="#2c94b3">AS209</text>
</a>
</g>
</g>
<!-- AS174&#45;&gt;AS209 -->
<g id="edge19" class="edge"><title>AS174&#45;&gt;AS209</title>
<path fill="none" stroke="black" d="M311.589,-322.449C324.22,-325.459 338.974,-328.976 352.46,-332.19"/>
<polygon fill="black" stroke="black" points="351.93,-335.661 362.469,-334.575 353.553,-328.852 351.93,-335.661"/>
</g>
<!-- AS2497 -->
<g id="node11" class="node"><title>AS2497</title>
<g id="a_node11"><a xlink:href="/asn/2497" xlink:title="AS2497 ~ Internet Initiative Japan Inc. [JP]">
<ellipse fill="#ffffff" stroke="black" cx="394.625" cy="-423" rx="39.7935" ry="18"/>
<text text-anchor="middle" x="394.625" y="-419.3" font-family="Times,serif" font-size="14.00" fill="#2c94b3">AS2497</text>
</a>
</g>
</g>
<!-- AS3356&#45;&gt;AS2497 -->
<g id="edge15" class="edge"><title>AS3356&#45;&gt;AS2497</title>
<path fill="none" stroke="black" d="M319.004,-423C327.207,-423 335.971,-423 344.503,-423"/>
<polygon fill="black" stroke="black" points="344.742,-426.5 354.742,-423 344.742,-419.5 344.742,-426.5"/>
</g>
<!-- AS3257&#45;&gt;AS2497 -->
<g id="edge10" class="edge"><title>AS3257&#45;&gt;AS2497</title>
<path fill="none" stroke="black" d="M307.468,-381.934C322.462,-389.081 341.283,-398.052 357.506,-405.785"/>
<polygon fill="black" stroke="black" points="356.177,-409.028 366.71,-410.171 359.188,-402.709 356.177,-409.028"/>
</g>
<!-- AS6453 -->
<g id="node12" class="node"><title>AS6453</title>
<g id="a_node12"><a xlink:href="/asn/6453" xlink:title="AS6453 ~ TATA COMMUNICATIONS (AMERICA) INC [US]">
<ellipse fill="#ffffff" stroke="black" cx="394.625" cy="-234" rx="39.7935" ry="18"/>
<text text-anchor="middle" x="394.625" y="-230.3" font-family="Times,serif" font-size="14.00" fill="#2c94b3">AS6453</text>
</a>
</g>
</g>
<!-- AS3320&#45;&gt;AS6453 -->
<g id="edge11" class="edge"><title>AS3320&#45;&gt;AS6453</title>
<path fill="none" stroke="black" d="M314.939,-215.248C325.81,-217.838 337.964,-220.735 349.407,-223.462"/>
<polygon fill="black" stroke="black" points="348.69,-226.889 359.229,-225.803 350.313,-220.08 348.69,-226.889"/>
</g>
<!-- AS701 -->
<g id="node13" class="node"><title>AS701</title>
<g id="a_node13"><a xlink:href="/asn/701" xlink:title="AS701 ~ UUNET [US]">
<ellipse fill="#ffffff" stroke="black" cx="394.625" cy="-180" rx="35.194" ry="18"/>
<text text-anchor="middle" x="394.625" y="-176.3" font-family="Times,serif" font-size="14.00" fill="#2c94b3">AS701</text>
</a>
</g>
</g>
<!-- AS3320&#45;&gt;AS701 -->
<g id="edge12" class="edge"><title>AS3320&#45;&gt;AS701</title>
<path fill="none" stroke="black" d="M314.939,-198.752C326.733,-195.942 340.038,-192.771 352.306,-189.847"/>
<polygon fill="black" stroke="black" points="353.394,-193.186 362.311,-187.463 351.772,-186.376 353.394,-193.186"/>
</g>
<!-- AS7018 -->
<g id="node17" class="node"><title>AS7018</title>
<g id="a_node17"><a xlink:href="/asn/7018" xlink:title="AS7018 ~ AT&amp;T Services, Inc. [US]">
<ellipse fill="#ffffff" stroke="black" cx="394.625" cy="-288" rx="39.7935" ry="18"/>
<text text-anchor="middle" x="394.625" y="-284.3" font-family="Times,serif" font-size="14.00" fill="#2c94b3">AS7018</text>
</a>
</g>
</g>
<!-- AS1299&#45;&gt;AS7018 -->
<g id="edge17" class="edge"><title>AS1299&#45;&gt;AS7018</title>
<path fill="none" stroke="black" d="M314.939,-269.248C325.81,-271.838 337.964,-274.735 349.407,-277.462"/>
<polygon fill="black" stroke="black" points="348.69,-280.889 359.229,-279.803 350.313,-274.08 348.69,-280.889"/>
</g>
<!-- AS1299&#45;&gt;AS209 -->
<g id="edge18" class="edge"><title>AS1299&#45;&gt;AS209</title>
<path fill="none" stroke="black" d="M302.089,-276.009C307.623,-279.879 313.542,-284.064 318.978,-288 335.178,-299.729 338.778,-303.271 354.978,-315 358.007,-317.193 361.186,-319.463 364.364,-321.713"/>
<polygon fill="black" stroke="black" points="362.481,-324.667 372.675,-327.555 366.506,-318.941 362.481,-324.667"/>
</g>
<!-- AS1273 -->
<g id="node14" class="node"><title>AS1273</title>
<g id="a_node14"><a xlink:href="/asn/1273" xlink:title="AS1273 ~ Vodafone Group PLC [EU]">
<ellipse fill="#ffffff" stroke="black" cx="394.625" cy="-126" rx="39.7935" ry="18"/>
<text text-anchor="middle" x="394.625" y="-122.3" font-family="Times,serif" font-size="14.00" fill="#2c94b3">AS1273</text>
</a>
</g>
</g>
<!-- AS6939&#45;&gt;AS1273 -->
<g id="edge13" class="edge"><title>AS6939&#45;&gt;AS1273</title>
<path fill="none" stroke="black" d="M319.004,-126C327.207,-126 335.971,-126 344.503,-126"/>
<polygon fill="black" stroke="black" points="344.742,-129.5 354.742,-126 344.742,-122.5 344.742,-129.5"/>
</g>
<!-- AS3491 -->
<g id="node15" class="node"><title>AS3491</title>
<g id="a_node15"><a xlink:href="/asn/3491" xlink:title="AS3491 ~ PCCW Global, Inc. [US]">
<ellipse fill="#ffffff" stroke="black" cx="394.625" cy="-72" rx="39.7935" ry="18"/>
<text text-anchor="middle" x="394.625" y="-68.3" font-family="Times,serif" font-size="14.00" fill="#2c94b3">AS3491</text>
</a>
</g>
</g>
<!-- AS6939&#45;&gt;AS3491 -->
<g id="edge14" class="edge"><title>AS6939&#45;&gt;AS3491</title>
<path fill="none" stroke="black" d="M307.468,-113.066C322.462,-105.919 341.283,-96.9481 357.506,-89.2154"/>
<polygon fill="black" stroke="black" points="359.188,-92.291 366.71,-84.8288 356.177,-85.972 359.188,-92.291"/>
</g>
<!-- AS6461 -->
<g id="node16" class="node"><title>AS6461</title>
<g id="a_node16"><a xlink:href="/asn/6461" xlink:title="AS6461 ~ Zayo Bandwidth [US]">
<ellipse fill="#ffffff" stroke="black" cx="394.625" cy="-18" rx="39.7935" ry="18"/>
<text text-anchor="middle" x="394.625" y="-14.3" font-family="Times,serif" font-size="14.00" fill="#2c94b3">AS6461</text>
</a>
</g>
</g>
<!-- AS8218&#45;&gt;AS6461 -->
<g id="edge16" class="edge"><title>AS8218&#45;&gt;AS6461</title>
<path fill="none" stroke="black" d="M307.468,-59.0657C322.462,-51.9189 341.283,-42.9481 357.506,-35.2154"/>
<polygon fill="black" stroke="black" points="359.188,-38.291 366.71,-30.8288 356.177,-31.972 359.188,-38.291"/>
</g>
</g>
</svg>
