<?xml version="1.0" encoding="UTF-8" standalone="no"?>
<!DOCTYPE svg PUBLIC "-//W3C//DTD SVG 1.1//EN"
 "http://www.w3.org/Graphics/SVG/1.1/DTD/svg11.dtd">
<!-- Generated by graphviz version 2.38.0 (20140413.2041)
 -->
<!-- Title: AS201535 IPv4 Upstream Graph Pages: 1 -->
<svg width="459pt" height="530pt"
 viewBox="0.00 0.00 459.17 530.00" xmlns="http://www.w3.org/2000/svg" xmlns:xlink="http://www.w3.org/1999/xlink">
<g id="graph0" class="graph" transform="scale(1 1) rotate(0) translate(4 526)">
<title>AS201535 IPv4 Upstream Graph</title>
<polygon fill="white" stroke="none" points="-4,4 -4,-526 455.17,-526 455.17,4 -4,4"/>
<!-- AS201535 -->
<g id="node1" class="node"><title>AS201535</title>
<g id="a_node1"><a xlink:href="/asn/201535" xlink:title="AS201535 ~ andom&#45;tec [AT]">
<ellipse fill="#ffffff" stroke="black" cx="48.0957" cy="-253" rx="48.1917" ry="18"/>
<text text-anchor="middle" x="48.0957" y="-249.3" font-family="Times,serif" font-size="14.00" fill="#880000">AS201535</text>
</a>
</g>
</g>
<!-- AS1764 -->
<g id="node2" class="node"><title>AS1764</title>
<g id="a_node2"><a xlink:href="/asn/1764" xlink:title="AS1764 ~ NEXTLAYER&#45;AS [AT]">
<ellipse fill="#ffffff" stroke="black" cx="176.388" cy="-321" rx="39.7935" ry="18"/>
<text text-anchor="middle" x="176.388" y="-317.3" font-family="Times,serif" font-size="14.00" fill="#2c94b3">AS1764</text>
</a>
</g>
</g>
<!-- AS201535&#45;&gt;AS1764 -->
<g id="edge1" class="edge"><title>AS201535&#45;&gt;AS1764</title>
<path fill="none" stroke="black" stroke-width="2.25" d="M76.4992,-267.755C95.4982,-277.985 120.934,-291.68 141.251,-302.62"/>
<polygon fill="black" stroke="black" stroke-width="2.25" points="139.72,-305.77 150.184,-307.429 143.038,-299.607 139.72,-305.77"/>
</g>
<!-- AS33891 -->
<g id="node3" class="node"><title>AS33891</title>
<g id="a_node3"><a xlink:href="/asn/33891" xlink:title="AS33891 ~ CORE&#45;BACKBONE GMBH GLOBAL NETWORK [DE]">
<ellipse fill="#ffffff" stroke="black" cx="176.388" cy="-186" rx="44.393" ry="18"/>
<text text-anchor="middle" x="176.388" y="-182.3" font-family="Times,serif" font-size="14.00" fill="#2c94b3">AS33891</text>
</a>
</g>
</g>
<!-- AS201535&#45;&gt;AS33891 -->
<g id="edge2" class="edge"><title>AS201535&#45;&gt;AS33891</title>
<path fill="none" stroke="black" stroke-width="4.5" d="M76.4992,-238.462C94.9949,-228.65 119.591,-215.601 139.626,-204.972"/>
<polygon fill="black" stroke="black" stroke-width="4.5" points="141.483,-208.444 148.471,-200.279 137.792,-201.488 141.483,-208.444"/>
</g>
<!-- AS174 -->
<g id="node4" class="node"><title>AS174</title>
<g id="a_node4"><a xlink:href="/asn/174" xlink:title="AS174 ~ Cogent Communications [US]">
<ellipse fill="#ffffff" stroke="black" cx="296.23" cy="-450" rx="35.194" ry="18"/>
<text text-anchor="middle" x="296.23" y="-446.3" font-family="Times,serif" font-size="14.00" fill="#2c94b3">AS174</text>
</a>
</g>
</g>
<!-- AS1764&#45;&gt;AS174 -->
<g id="edge3" class="edge"><title>AS1764&#45;&gt;AS174</title>
<path fill="none" stroke="black" stroke-width="3" d="M192.552,-337.6C213.171,-360.171 250.167,-400.67 273.667,-426.396"/>
<polygon fill="black" stroke="black" stroke-width="3" points="271.166,-428.846 280.494,-433.869 276.334,-424.125 271.166,-428.846"/>
</g>
<!-- AS2914 -->
<g id="node5" class="node"><title>AS2914</title>
<g id="a_node5"><a xlink:href="/asn/2914" xlink:title="AS2914 ~ NTT America, Inc. [US]">
<ellipse fill="#ffffff" stroke="black" cx="296.23" cy="-342" rx="39.7935" ry="18"/>
<text text-anchor="middle" x="296.23" y="-338.3" font-family="Times,serif" font-size="14.00" fill="#2c94b3">AS2914</text>
</a>
</g>
</g>
<!-- AS1764&#45;&gt;AS2914 -->
<g id="edge4" class="edge"><title>AS1764&#45;&gt;AS2914</title>
<path fill="none" stroke="black" stroke-width="2" d="M213.706,-327.472C224.794,-329.448 237.142,-331.648 248.805,-333.727"/>
<polygon fill="black" stroke="black" stroke-width="2" points="248.37,-337.204 258.829,-335.513 249.598,-330.313 248.37,-337.204"/>
</g>
<!-- AS8218 -->
<g id="node6" class="node"><title>AS8218</title>
<g id="a_node6"><a xlink:href="/asn/8218" xlink:title="AS8218 ~ legacy Neotelecoms [FR]">
<ellipse fill="#ffffff" stroke="black" cx="296.23" cy="-92" rx="39.7935" ry="18"/>
<text text-anchor="middle" x="296.23" y="-88.3" font-family="Times,serif" font-size="14.00" fill="#2c94b3">AS8218</text>
</a>
</g>
</g>
<!-- AS1764&#45;&gt;AS8218 -->
<g id="edge5" class="edge"><title>AS1764&#45;&gt;AS8218</title>
<path fill="none" stroke="black" d="M184.653,-303.069C193.303,-281.668 208.143,-244.78 220.584,-213 236.891,-171.341 229.036,-154.249 256.584,-119 258.379,-116.703 260.423,-114.522 262.612,-112.469"/>
<polygon fill="black" stroke="black" points="264.967,-115.064 270.461,-106.005 260.517,-109.661 264.967,-115.064"/>
</g>
<!-- AS1299 -->
<g id="node11" class="node"><title>AS1299</title>
<g id="a_node11"><a xlink:href="/asn/1299" xlink:title="AS1299 ~ Telia Carrier [EU]">
<ellipse fill="#ffffff" stroke="black" cx="296.23" cy="-146" rx="39.7935" ry="18"/>
<text text-anchor="middle" x="296.23" y="-142.3" font-family="Times,serif" font-size="14.00" fill="#2c94b3">AS1299</text>
</a>
</g>
</g>
<!-- AS33891&#45;&gt;AS1299 -->
<g id="edge10" class="edge"><title>AS33891&#45;&gt;AS1299</title>
<path fill="none" stroke="black" stroke-width="1.6875" d="M210.841,-174.645C224.442,-170.028 240.284,-164.651 254.546,-159.81"/>
<polygon fill="black" stroke="black" stroke-width="1.6875" points="255.775,-163.089 264.119,-156.56 253.525,-156.46 255.775,-163.089"/>
</g>
<!-- AS3356 -->
<g id="node12" class="node"><title>AS3356</title>
<g id="a_node12"><a xlink:href="/asn/3356" xlink:title="AS3356 ~ Level 3 Parent, LLC [US]">
<ellipse fill="#ffffff" stroke="black" cx="296.23" cy="-261" rx="39.7935" ry="18"/>
<text text-anchor="middle" x="296.23" y="-257.3" font-family="Times,serif" font-size="14.00" fill="#2c94b3">AS3356</text>
</a>
</g>
</g>
<!-- AS33891&#45;&gt;AS3356 -->
<g id="edge11" class="edge"><title>AS33891&#45;&gt;AS3356</title>
<path fill="none" stroke="black" stroke-width="4.5" d="M200.952,-200.997C219.008,-212.489 244.094,-228.455 263.85,-241.028"/>
<polygon fill="black" stroke="black" stroke-width="4.5" points="261.957,-244.491 272.508,-246.539 266.186,-237.847 261.957,-244.491"/>
</g>
<!-- AS3257 -->
<g id="node13" class="node"><title>AS3257</title>
<g id="a_node13"><a xlink:href="/asn/3257" xlink:title="AS3257 ~ GTT [DE]">
<ellipse fill="#ffffff" stroke="black" cx="296.23" cy="-38" rx="39.7935" ry="18"/>
<text text-anchor="middle" x="296.23" y="-34.3" font-family="Times,serif" font-size="14.00" fill="#2c94b3">AS3257</text>
</a>
</g>
</g>
<!-- AS33891&#45;&gt;AS3257 -->
<g id="edge12" class="edge"><title>AS33891&#45;&gt;AS3257</title>
<path fill="none" stroke="black" stroke-width="0.5625" d="M186.297,-168.079C199.333,-143.044 225.465,-97.0749 256.584,-65 258.667,-62.8522 260.944,-60.7671 263.317,-58.7707"/>
<polygon fill="black" stroke="black" stroke-width="0.5625" points="265.836,-61.2468 271.608,-52.3621 261.555,-55.7083 265.836,-61.2468"/>
</g>
<!-- AS1239 -->
<g id="node7" class="node"><title>AS1239</title>
<g id="a_node7"><a xlink:href="/asn/1239" xlink:title="AS1239 ~ Sprint [US]">
<ellipse fill="#ffffff" stroke="black" cx="411.523" cy="-450" rx="39.7935" ry="18"/>
<text text-anchor="middle" x="411.523" y="-446.3" font-family="Times,serif" font-size="14.00" fill="#2c94b3">AS1239</text>
</a>
</g>
</g>
<!-- AS174&#45;&gt;AS1239 -->
<g id="edge6" class="edge"><title>AS174&#45;&gt;AS1239</title>
<path fill="none" stroke="black" d="M331.529,-450C340.906,-450 351.257,-450 361.291,-450"/>
<polygon fill="black" stroke="black" points="361.58,-453.5 371.58,-450 361.58,-446.5 361.58,-453.5"/>
</g>
<!-- AS3491 -->
<g id="node8" class="node"><title>AS3491</title>
<g id="a_node8"><a xlink:href="/asn/3491" xlink:title="AS3491 ~ PCCW Global, Inc. [US]">
<ellipse fill="#ffffff" stroke="black" cx="411.523" cy="-504" rx="39.7935" ry="18"/>
<text text-anchor="middle" x="411.523" y="-500.3" font-family="Times,serif" font-size="14.00" fill="#2c94b3">AS3491</text>
</a>
</g>
</g>
<!-- AS174&#45;&gt;AS3491 -->
<g id="edge7" class="edge"><title>AS174&#45;&gt;AS3491</title>
<path fill="none" stroke="black" d="M322.655,-462.119C337.958,-469.413 357.681,-478.814 374.563,-486.86"/>
<polygon fill="black" stroke="black" points="373.071,-490.026 383.604,-491.169 376.082,-483.707 373.071,-490.026"/>
</g>
<!-- AS2497 -->
<g id="node9" class="node"><title>AS2497</title>
<g id="a_node9"><a xlink:href="/asn/2497" xlink:title="AS2497 ~ Internet Initiative Japan Inc. [JP]">
<ellipse fill="#ffffff" stroke="black" cx="411.523" cy="-396" rx="39.7935" ry="18"/>
<text text-anchor="middle" x="411.523" y="-392.3" font-family="Times,serif" font-size="14.00" fill="#2c94b3">AS2497</text>
</a>
</g>
</g>
<!-- AS2914&#45;&gt;AS2497 -->
<g id="edge8" class="edge"><title>AS2914&#45;&gt;AS2497</title>
<path fill="none" stroke="black" d="M324.367,-354.934C339.361,-362.081 358.182,-371.052 374.405,-378.785"/>
<polygon fill="black" stroke="black" points="373.075,-382.028 383.608,-383.171 376.087,-375.709 373.075,-382.028"/>
</g>
<!-- AS6461 -->
<g id="node10" class="node"><title>AS6461</title>
<g id="a_node10"><a xlink:href="/asn/6461" xlink:title="AS6461 ~ Zayo Bandwidth [US]">
<ellipse fill="#ffffff" stroke="black" cx="411.523" cy="-18" rx="39.7935" ry="18"/>
<text text-anchor="middle" x="411.523" y="-14.3" font-family="Times,serif" font-size="14.00" fill="#2c94b3">AS6461</text>
</a>
</g>
</g>
<!-- AS8218&#45;&gt;AS6461 -->
<g id="edge9" class="edge"><title>AS8218&#45;&gt;AS6461</title>
<path fill="none" stroke="black" d="M319.613,-77.38C336.759,-66.1804 360.615,-50.5989 379.586,-38.2071"/>
<polygon fill="black" stroke="black" points="381.728,-40.9885 388.187,-32.5896 377.9,-35.1279 381.728,-40.9885"/>
</g>
<!-- AS6762 -->
<g id="node16" class="node"><title>AS6762</title>
<g id="a_node16"><a xlink:href="/asn/6762" xlink:title="AS6762 ~ TELECOM ITALIA SPARKLE S.p.A. [IT]">
<ellipse fill="#ffffff" stroke="black" cx="411.523" cy="-126" rx="39.7935" ry="18"/>
<text text-anchor="middle" x="411.523" y="-122.3" font-family="Times,serif" font-size="14.00" fill="#2c94b3">AS6762</text>
</a>
</g>
</g>
<!-- AS1299&#45;&gt;AS6762 -->
<g id="edge21" class="edge"><title>AS1299&#45;&gt;AS6762</title>
<path fill="none" stroke="black" d="M333.388,-139.617C343.199,-137.885 353.957,-135.986 364.244,-134.17"/>
<polygon fill="black" stroke="black" points="365.081,-137.576 374.32,-132.391 363.864,-130.683 365.081,-137.576"/>
</g>
<!-- AS7018 -->
<g id="node19" class="node"><title>AS7018</title>
<g id="a_node19"><a xlink:href="/asn/7018" xlink:title="AS7018 ~ AT&amp;T Services, Inc. [US]">
<ellipse fill="#ffffff" stroke="black" cx="411.523" cy="-72" rx="39.7935" ry="18"/>
<text text-anchor="middle" x="411.523" y="-68.3" font-family="Times,serif" font-size="14.00" fill="#2c94b3">AS7018</text>
</a>
</g>
</g>
<!-- AS1299&#45;&gt;AS7018 -->
<g id="edge20" class="edge"><title>AS1299&#45;&gt;AS7018</title>
<path fill="none" stroke="black" d="M319.613,-131.38C336.759,-120.18 360.615,-104.599 379.586,-92.2071"/>
<polygon fill="black" stroke="black" points="381.728,-94.9885 388.187,-86.5896 377.9,-89.1279 381.728,-94.9885"/>
</g>
<!-- AS3356&#45;&gt;AS1239 -->
<g id="edge16" class="edge"><title>AS3356&#45;&gt;AS1239</title>
<path fill="none" stroke="black" d="M311.527,-278.14C319.513,-288.353 329.174,-301.853 335.877,-315 358.857,-360.077 341.605,-382.458 371.877,-423 373.621,-425.336 375.628,-427.545 377.792,-429.617"/>
<polygon fill="black" stroke="black" points="375.67,-432.405 385.592,-436.118 380.151,-427.027 375.67,-432.405"/>
</g>
<!-- AS3356&#45;&gt;AS2497 -->
<g id="edge19" class="edge"><title>AS3356&#45;&gt;AS2497</title>
<path fill="none" stroke="black" d="M309.909,-278.406C317.525,-288.937 327.358,-302.67 335.877,-315 352.272,-338.731 351.704,-348.383 371.877,-369 373.969,-371.139 376.253,-373.218 378.63,-375.21"/>
<polygon fill="black" stroke="black" points="376.873,-378.275 386.929,-381.611 381.148,-372.732 376.873,-378.275"/>
</g>
<!-- AS6453 -->
<g id="node14" class="node"><title>AS6453</title>
<g id="a_node14"><a xlink:href="/asn/6453" xlink:title="AS6453 ~ TATA COMMUNICATIONS (AMERICA) INC [US]">
<ellipse fill="#ffffff" stroke="black" cx="411.523" cy="-342" rx="39.7935" ry="18"/>
<text text-anchor="middle" x="411.523" y="-338.3" font-family="Times,serif" font-size="14.00" fill="#2c94b3">AS6453</text>
</a>
</g>
</g>
<!-- AS3356&#45;&gt;AS6453 -->
<g id="edge13" class="edge"><title>AS3356&#45;&gt;AS6453</title>
<path fill="none" stroke="black" d="M318.078,-276.222C333.012,-287.091 353.626,-302.025 371.877,-315 374.697,-317.005 377.64,-319.085 380.588,-321.159"/>
<polygon fill="black" stroke="black" points="378.616,-324.05 388.813,-326.926 382.634,-318.319 378.616,-324.05"/>
</g>
<!-- AS701 -->
<g id="node15" class="node"><title>AS701</title>
<g id="a_node15"><a xlink:href="/asn/701" xlink:title="AS701 ~ UUNET [US]">
<ellipse fill="#ffffff" stroke="black" cx="411.523" cy="-288" rx="35.194" ry="18"/>
<text text-anchor="middle" x="411.523" y="-284.3" font-family="Times,serif" font-size="14.00" fill="#2c94b3">AS701</text>
</a>
</g>
</g>
<!-- AS3356&#45;&gt;AS701 -->
<g id="edge14" class="edge"><title>AS3356&#45;&gt;AS701</title>
<path fill="none" stroke="black" d="M331.837,-269.248C343.632,-272.058 356.937,-275.229 369.204,-278.153"/>
<polygon fill="black" stroke="black" points="368.67,-281.624 379.209,-280.537 370.293,-274.814 368.67,-281.624"/>
</g>
<!-- AS3356&#45;&gt;AS6762 -->
<g id="edge15" class="edge"><title>AS3356&#45;&gt;AS6762</title>
<path fill="none" stroke="black" d="M306.69,-243.51C319.472,-220.904 343.904,-181.114 371.877,-153 373.987,-150.879 376.283,-148.812 378.669,-146.829"/>
<polygon fill="black" stroke="black" points="381.184,-149.31 386.984,-140.444 376.921,-143.758 381.184,-149.31"/>
</g>
<!-- AS209 -->
<g id="node17" class="node"><title>AS209</title>
<g id="a_node17"><a xlink:href="/asn/209" xlink:title="AS209 ~ CenturyLink Communications, LLC [US]">
<ellipse fill="#ffffff" stroke="black" cx="411.523" cy="-234" rx="35.194" ry="18"/>
<text text-anchor="middle" x="411.523" y="-230.3" font-family="Times,serif" font-size="14.00" fill="#2c94b3">AS209</text>
</a>
</g>
</g>
<!-- AS3356&#45;&gt;AS209 -->
<g id="edge17" class="edge"><title>AS3356&#45;&gt;AS209</title>
<path fill="none" stroke="black" d="M331.837,-252.752C343.632,-249.942 356.937,-246.771 369.204,-243.847"/>
<polygon fill="black" stroke="black" points="370.293,-247.186 379.209,-241.463 368.67,-240.376 370.293,-247.186"/>
</g>
<!-- AS3549 -->
<g id="node18" class="node"><title>AS3549</title>
<g id="a_node18"><a xlink:href="/asn/3549" xlink:title="AS3549 ~ Level 3 Parent, LLC [US]">
<ellipse fill="#ffffff" stroke="black" cx="411.523" cy="-180" rx="39.7935" ry="18"/>
<text text-anchor="middle" x="411.523" y="-176.3" font-family="Times,serif" font-size="14.00" fill="#2c94b3">AS3549</text>
</a>
</g>
</g>
<!-- AS3356&#45;&gt;AS3549 -->
<g id="edge18" class="edge"><title>AS3356&#45;&gt;AS3549</title>
<path fill="none" stroke="black" d="M318.078,-245.778C333.012,-234.909 353.626,-219.975 371.877,-207 374.697,-204.995 377.64,-202.915 380.588,-200.841"/>
<polygon fill="black" stroke="black" points="382.634,-203.681 388.813,-195.074 378.616,-197.95 382.634,-203.681"/>
</g>
</g>
</svg>
