<?xml version="1.0" encoding="UTF-8" standalone="no"?>
<!DOCTYPE svg PUBLIC "-//W3C//DTD SVG 1.1//EN"
 "http://www.w3.org/Graphics/SVG/1.1/DTD/svg11.dtd">
<!-- Generated by graphviz version 2.38.0 (20140413.2041)
 -->
<!-- Title: AS210237 Combined Upstream Graph Pages: 1 -->
<svg width="450pt" height="476pt"
 viewBox="0.00 0.00 450.07 476.00" xmlns="http://www.w3.org/2000/svg" xmlns:xlink="http://www.w3.org/1999/xlink">
<g id="graph0" class="graph" transform="scale(1 1) rotate(0) translate(4 472)">
<title>AS210237 Combined Upstream Graph</title>
<polygon fill="white" stroke="none" points="-4,4 -4,-472 446.07,-472 446.07,4 -4,4"/>
<!-- AS210237 -->
<g id="node1" class="node"><title>AS210237</title>
<g id="a_node1"><a xlink:href="/asn/210237" xlink:title="AS210237 ~ WIENER LINIEN GmbH &amp; Co KG [AT]">
<ellipse fill="#ffffff" stroke="black" cx="48.0957" cy="-234" rx="48.1917" ry="18"/>
<text text-anchor="middle" x="48.0957" y="-230.3" font-family="Times,serif" font-size="14.00" fill="#880000">AS210237</text>
</a>
</g>
</g>
<!-- AS1764 -->
<g id="node2" class="node"><title>AS1764</title>
<g id="a_node2"><a xlink:href="/asn/1764" xlink:title="AS1764 ~ NEXTLAYER&#45;AS [AT]">
<ellipse fill="#ffffff" stroke="black" cx="171.838" cy="-234" rx="39.7935" ry="18"/>
<text text-anchor="middle" x="171.838" y="-230.3" font-family="Times,serif" font-size="14.00" fill="#2c94b3">AS1764</text>
</a>
</g>
</g>
<!-- AS210237&#45;&gt;AS1764 -->
<g id="edge1" class="edge"><title>AS210237&#45;&gt;AS1764</title>
<path fill="none" stroke="black" stroke-width="4.5" d="M96.5131,-234C104.867,-234 113.577,-234 121.969,-234"/>
<polygon fill="black" stroke="black" stroke-width="4.5" points="122.004,-237.938 132.004,-234 122.004,-230.063 122.004,-237.938"/>
</g>
<!-- AS3257 -->
<g id="node3" class="node"><title>AS3257</title>
<g id="a_node3"><a xlink:href="/asn/3257" xlink:title="AS3257 ~ GTT [DE]">
<ellipse fill="#ffffff" stroke="black" cx="287.131" cy="-369" rx="39.7935" ry="18"/>
<text text-anchor="middle" x="287.131" y="-365.3" font-family="Times,serif" font-size="14.00" fill="#2c94b3">AS3257</text>
</a>
</g>
</g>
<!-- AS1764&#45;&gt;AS3257 -->
<g id="edge2" class="edge"><title>AS1764&#45;&gt;AS3257</title>
<path fill="none" stroke="black" stroke-width="2.7" d="M186.958,-250.825C206.632,-274.269 242.436,-316.934 265.215,-344.076"/>
<polygon fill="black" stroke="black" stroke-width="2.7" points="262.724,-346.553 271.833,-351.963 268.086,-342.053 262.724,-346.553"/>
</g>
<!-- AS2914 -->
<g id="node4" class="node"><title>AS2914</title>
<g id="a_node4"><a xlink:href="/asn/2914" xlink:title="AS2914 ~ NTT America, Inc. [US]">
<ellipse fill="#ffffff" stroke="black" cx="287.131" cy="-423" rx="39.7935" ry="18"/>
<text text-anchor="middle" x="287.131" y="-419.3" font-family="Times,serif" font-size="14.00" fill="#2c94b3">AS2914</text>
</a>
</g>
</g>
<!-- AS1764&#45;&gt;AS2914 -->
<g id="edge3" class="edge"><title>AS1764&#45;&gt;AS2914</title>
<path fill="none" stroke="black" stroke-width="2.7" d="M177.712,-252.002C187.026,-283.844 209.843,-350.981 247.484,-396 249.355,-398.237 251.453,-400.374 253.679,-402.396"/>
<polygon fill="black" stroke="black" stroke-width="2.7" points="251.623,-405.234 261.598,-408.804 256.026,-399.793 251.623,-405.234"/>
</g>
<!-- AS3356 -->
<g id="node5" class="node"><title>AS3356</title>
<g id="a_node5"><a xlink:href="/asn/3356" xlink:title="AS3356 ~ Level 3 Parent, LLC [US]">
<ellipse fill="#ffffff" stroke="black" cx="287.131" cy="-288" rx="39.7935" ry="18"/>
<text text-anchor="middle" x="287.131" y="-284.3" font-family="Times,serif" font-size="14.00" fill="#2c94b3">AS3356</text>
</a>
</g>
</g>
<!-- AS1764&#45;&gt;AS3356 -->
<g id="edge4" class="edge"><title>AS1764&#45;&gt;AS3356</title>
<path fill="none" stroke="black" stroke-width="4.5" d="M199.974,-246.934C214.968,-254.081 233.789,-263.052 250.013,-270.785"/>
<polygon fill="black" stroke="black" stroke-width="4.5" points="248.495,-274.423 259.216,-275.171 251.883,-267.314 248.495,-274.423"/>
</g>
<!-- AS3320 -->
<g id="node6" class="node"><title>AS3320</title>
<g id="a_node6"><a xlink:href="/asn/3320" xlink:title="AS3320 ~ DTAG [DE]">
<ellipse fill="#ffffff" stroke="black" cx="287.131" cy="-180" rx="39.7935" ry="18"/>
<text text-anchor="middle" x="287.131" y="-176.3" font-family="Times,serif" font-size="14.00" fill="#2c94b3">AS3320</text>
</a>
</g>
</g>
<!-- AS1764&#45;&gt;AS3320 -->
<g id="edge5" class="edge"><title>AS1764&#45;&gt;AS3320</title>
<path fill="none" stroke="black" stroke-width="2.7" d="M199.974,-221.066C214.968,-213.919 233.789,-204.948 250.013,-197.215"/>
<polygon fill="black" stroke="black" stroke-width="2.7" points="251.695,-200.291 259.216,-192.829 248.683,-193.972 251.695,-200.291"/>
</g>
<!-- AS174 -->
<g id="node7" class="node"><title>AS174</title>
<g id="a_node7"><a xlink:href="/asn/174" xlink:title="AS174 ~ Cogent Communications [US]">
<ellipse fill="#ffffff" stroke="black" cx="287.131" cy="-234" rx="35.194" ry="18"/>
<text text-anchor="middle" x="287.131" y="-230.3" font-family="Times,serif" font-size="14.00" fill="#2c94b3">AS174</text>
</a>
</g>
</g>
<!-- AS1764&#45;&gt;AS174 -->
<g id="edge6" class="edge"><title>AS1764&#45;&gt;AS174</title>
<path fill="none" stroke="black" stroke-width="1.8" d="M211.51,-234C221.215,-234 231.706,-234 241.669,-234"/>
<polygon fill="black" stroke="black" stroke-width="1.8" points="241.805,-237.5 251.805,-234 241.805,-230.5 241.805,-237.5"/>
</g>
<!-- AS8218 -->
<g id="node8" class="node"><title>AS8218</title>
<g id="a_node8"><a xlink:href="/asn/8218" xlink:title="AS8218 ~ legacy Neotelecoms [FR]">
<ellipse fill="#ffffff" stroke="black" cx="287.131" cy="-113" rx="39.7935" ry="18"/>
<text text-anchor="middle" x="287.131" y="-109.3" font-family="Times,serif" font-size="14.00" fill="#2c94b3">AS8218</text>
</a>
</g>
</g>
<!-- AS1764&#45;&gt;AS8218 -->
<g id="edge7" class="edge"><title>AS1764&#45;&gt;AS8218</title>
<path fill="none" stroke="black" stroke-width="0.9" d="M187.879,-217.45C202.875,-201.005 226.617,-175.115 247.484,-153 252.382,-147.809 257.673,-142.282 262.722,-137.045"/>
<polygon fill="black" stroke="black" stroke-width="0.9" points="265.435,-139.274 269.872,-129.653 260.404,-134.407 265.435,-139.274"/>
</g>
<!-- AS1299 -->
<g id="node9" class="node"><title>AS1299</title>
<g id="a_node9"><a xlink:href="/asn/1299" xlink:title="AS1299 ~ Telia Carrier [EU]">
<ellipse fill="#ffffff" stroke="black" cx="287.131" cy="-32" rx="39.7935" ry="18"/>
<text text-anchor="middle" x="287.131" y="-28.3" font-family="Times,serif" font-size="14.00" fill="#2c94b3">AS1299</text>
</a>
</g>
</g>
<!-- AS1764&#45;&gt;AS1299 -->
<g id="edge8" class="edge"><title>AS1764&#45;&gt;AS1299</title>
<path fill="none" stroke="black" stroke-width="1.8" d="M180.725,-216.215C193.503,-187.94 220.072,-131.303 247.484,-86 253.364,-76.283 260.442,-66.0477 266.924,-57.1322"/>
<polygon fill="black" stroke="black" stroke-width="1.8" points="269.77,-59.1708 272.899,-49.0486 264.141,-55.0101 269.77,-59.1708"/>
</g>
<!-- AS2497 -->
<g id="node10" class="node"><title>AS2497</title>
<g id="a_node10"><a xlink:href="/asn/2497" xlink:title="AS2497 ~ Internet Initiative Japan Inc. [JP]">
<ellipse fill="#ffffff" stroke="black" cx="402.424" cy="-396" rx="39.7935" ry="18"/>
<text text-anchor="middle" x="402.424" y="-392.3" font-family="Times,serif" font-size="14.00" fill="#2c94b3">AS2497</text>
</a>
</g>
</g>
<!-- AS3257&#45;&gt;AS2497 -->
<g id="edge9" class="edge"><title>AS3257&#45;&gt;AS2497</title>
<path fill="none" stroke="black" d="M322.738,-377.248C333.609,-379.838 345.764,-382.735 357.206,-385.462"/>
<polygon fill="black" stroke="black" points="356.49,-388.889 367.029,-387.803 358.112,-382.08 356.49,-388.889"/>
</g>
<!-- AS3491 -->
<g id="node11" class="node"><title>AS3491</title>
<g id="a_node11"><a xlink:href="/asn/3491" xlink:title="AS3491 ~ PCCW Global, Inc. [US]">
<ellipse fill="#ffffff" stroke="black" cx="402.424" cy="-450" rx="39.7935" ry="18"/>
<text text-anchor="middle" x="402.424" y="-446.3" font-family="Times,serif" font-size="14.00" fill="#2c94b3">AS3491</text>
</a>
</g>
</g>
<!-- AS3257&#45;&gt;AS3491 -->
<g id="edge10" class="edge"><title>AS3257&#45;&gt;AS3491</title>
<path fill="none" stroke="black" d="M309.888,-384.009C315.422,-387.879 321.341,-392.064 326.777,-396 342.977,-407.729 346.578,-411.271 362.777,-423 365.58,-425.029 368.512,-427.125 371.453,-429.21"/>
<polygon fill="black" stroke="black" points="369.475,-432.097 379.667,-434.991 373.504,-426.373 369.475,-432.097"/>
</g>
<!-- AS2914&#45;&gt;AS2497 -->
<g id="edge11" class="edge"><title>AS2914&#45;&gt;AS2497</title>
<path fill="none" stroke="black" d="M322.738,-414.752C333.609,-412.162 345.764,-409.265 357.206,-406.538"/>
<polygon fill="black" stroke="black" points="358.112,-409.92 367.029,-404.197 356.49,-403.111 358.112,-409.92"/>
</g>
<!-- AS2914&#45;&gt;AS3491 -->
<g id="edge12" class="edge"><title>AS2914&#45;&gt;AS3491</title>
<path fill="none" stroke="black" d="M322.738,-431.248C333.609,-433.838 345.764,-436.735 357.206,-439.462"/>
<polygon fill="black" stroke="black" points="356.49,-442.889 367.029,-441.803 358.112,-436.08 356.49,-442.889"/>
</g>
<!-- AS3356&#45;&gt;AS2497 -->
<g id="edge16" class="edge"><title>AS3356&#45;&gt;AS2497</title>
<path fill="none" stroke="black" d="M301.761,-304.817C316.044,-321.929 339.59,-348.745 362.777,-369 365.243,-371.154 367.882,-373.294 370.579,-375.372"/>
<polygon fill="black" stroke="black" points="368.604,-378.264 378.733,-381.37 372.752,-372.625 368.604,-378.264"/>
</g>
<!-- AS3549 -->
<g id="node12" class="node"><title>AS3549</title>
<g id="a_node12"><a xlink:href="/asn/3549" xlink:title="AS3549 ~ Level 3 Parent, LLC [US]">
<ellipse fill="#ffffff" stroke="black" cx="402.424" cy="-288" rx="39.7935" ry="18"/>
<text text-anchor="middle" x="402.424" y="-284.3" font-family="Times,serif" font-size="14.00" fill="#2c94b3">AS3549</text>
</a>
</g>
</g>
<!-- AS3356&#45;&gt;AS3549 -->
<g id="edge13" class="edge"><title>AS3356&#45;&gt;AS3549</title>
<path fill="none" stroke="black" d="M326.803,-288C335.006,-288 343.77,-288 352.302,-288"/>
<polygon fill="black" stroke="black" points="352.541,-291.5 362.541,-288 352.541,-284.5 352.541,-291.5"/>
</g>
<!-- AS6762 -->
<g id="node13" class="node"><title>AS6762</title>
<g id="a_node13"><a xlink:href="/asn/6762" xlink:title="AS6762 ~ TELECOM ITALIA SPARKLE S.p.A. [IT]">
<ellipse fill="#ffffff" stroke="black" cx="402.424" cy="-234" rx="39.7935" ry="18"/>
<text text-anchor="middle" x="402.424" y="-230.3" font-family="Times,serif" font-size="14.00" fill="#2c94b3">AS6762</text>
</a>
</g>
</g>
<!-- AS3356&#45;&gt;AS6762 -->
<g id="edge14" class="edge"><title>AS3356&#45;&gt;AS6762</title>
<path fill="none" stroke="black" d="M315.267,-275.066C330.261,-267.919 349.082,-258.948 365.306,-251.215"/>
<polygon fill="black" stroke="black" points="366.988,-254.291 374.509,-246.829 363.976,-247.972 366.988,-254.291"/>
</g>
<!-- AS6453 -->
<g id="node14" class="node"><title>AS6453</title>
<g id="a_node14"><a xlink:href="/asn/6453" xlink:title="AS6453 ~ TATA COMMUNICATIONS (AMERICA) INC [US]">
<ellipse fill="#ffffff" stroke="black" cx="402.424" cy="-342" rx="39.7935" ry="18"/>
<text text-anchor="middle" x="402.424" y="-338.3" font-family="Times,serif" font-size="14.00" fill="#2c94b3">AS6453</text>
</a>
</g>
</g>
<!-- AS3356&#45;&gt;AS6453 -->
<g id="edge15" class="edge"><title>AS3356&#45;&gt;AS6453</title>
<path fill="none" stroke="black" d="M315.267,-300.934C330.261,-308.081 349.082,-317.052 365.306,-324.785"/>
<polygon fill="black" stroke="black" points="363.976,-328.028 374.509,-329.171 366.988,-321.709 363.976,-328.028"/>
</g>
<!-- AS1239 -->
<g id="node15" class="node"><title>AS1239</title>
<g id="a_node15"><a xlink:href="/asn/1239" xlink:title="AS1239 ~ Sprint [US]">
<ellipse fill="#ffffff" stroke="black" cx="402.424" cy="-126" rx="39.7935" ry="18"/>
<text text-anchor="middle" x="402.424" y="-122.3" font-family="Times,serif" font-size="14.00" fill="#2c94b3">AS1239</text>
</a>
</g>
</g>
<!-- AS3320&#45;&gt;AS1239 -->
<g id="edge17" class="edge"><title>AS3320&#45;&gt;AS1239</title>
<path fill="none" stroke="black" d="M315.267,-167.066C330.261,-159.919 349.082,-150.948 365.306,-143.215"/>
<polygon fill="black" stroke="black" points="366.988,-146.291 374.509,-138.829 363.976,-139.972 366.988,-146.291"/>
</g>
<!-- AS701 -->
<g id="node16" class="node"><title>AS701</title>
<g id="a_node16"><a xlink:href="/asn/701" xlink:title="AS701 ~ UUNET [US]">
<ellipse fill="#ffffff" stroke="black" cx="402.424" cy="-180" rx="35.194" ry="18"/>
<text text-anchor="middle" x="402.424" y="-176.3" font-family="Times,serif" font-size="14.00" fill="#2c94b3">AS701</text>
</a>
</g>
</g>
<!-- AS3320&#45;&gt;AS701 -->
<g id="edge18" class="edge"><title>AS3320&#45;&gt;AS701</title>
<path fill="none" stroke="black" d="M326.803,-180C336.508,-180 346.999,-180 356.962,-180"/>
<polygon fill="black" stroke="black" points="357.098,-183.5 367.098,-180 357.098,-176.5 357.098,-183.5"/>
</g>
<!-- AS174&#45;&gt;AS6762 -->
<g id="edge20" class="edge"><title>AS174&#45;&gt;AS6762</title>
<path fill="none" stroke="black" d="M322.43,-234C331.807,-234 342.158,-234 352.192,-234"/>
<polygon fill="black" stroke="black" points="352.481,-237.5 362.481,-234 352.481,-230.5 352.481,-237.5"/>
</g>
<!-- AS6461 -->
<g id="node17" class="node"><title>AS6461</title>
<g id="a_node17"><a xlink:href="/asn/6461" xlink:title="AS6461 ~ Zayo Bandwidth [US]">
<ellipse fill="#ffffff" stroke="black" cx="402.424" cy="-72" rx="39.7935" ry="18"/>
<text text-anchor="middle" x="402.424" y="-68.3" font-family="Times,serif" font-size="14.00" fill="#2c94b3">AS6461</text>
</a>
</g>
</g>
<!-- AS8218&#45;&gt;AS6461 -->
<g id="edge19" class="edge"><title>AS8218&#45;&gt;AS6461</title>
<path fill="none" stroke="black" d="M318.79,-101.905C331.762,-97.2103 347.055,-91.6756 360.936,-86.6522"/>
<polygon fill="black" stroke="black" points="362.529,-89.7982 370.741,-83.1041 360.146,-83.216 362.529,-89.7982"/>
</g>
<!-- AS7018 -->
<g id="node18" class="node"><title>AS7018</title>
<g id="a_node18"><a xlink:href="/asn/7018" xlink:title="AS7018 ~ AT&amp;T Services, Inc. [US]">
<ellipse fill="#ffffff" stroke="black" cx="402.424" cy="-18" rx="39.7935" ry="18"/>
<text text-anchor="middle" x="402.424" y="-14.3" font-family="Times,serif" font-size="14.00" fill="#2c94b3">AS7018</text>
</a>
</g>
</g>
<!-- AS1299&#45;&gt;AS7018 -->
<g id="edge21" class="edge"><title>AS1299&#45;&gt;AS7018</title>
<path fill="none" stroke="black" d="M325.541,-27.3771C334.629,-26.2541 344.466,-25.0384 353.951,-23.8664"/>
<polygon fill="black" stroke="black" points="354.558,-27.3181 364.053,-22.6181 353.699,-20.371 354.558,-27.3181"/>
</g>
</g>
</svg>
