<?xml version="1.0" encoding="UTF-8" standalone="no"?>
<!DOCTYPE svg PUBLIC "-//W3C//DTD SVG 1.1//EN"
 "http://www.w3.org/Graphics/SVG/1.1/DTD/svg11.dtd">
<!-- Generated by graphviz version 2.38.0 (20140413.2041)
 -->
<!-- Title: AS51184 IPv6 Upstream Graph Pages: 1 -->
<svg width="691pt" height="606pt"
 viewBox="0.00 0.00 691.06 606.00" xmlns="http://www.w3.org/2000/svg" xmlns:xlink="http://www.w3.org/1999/xlink">
<g id="graph0" class="graph" transform="scale(1 1) rotate(0) translate(4 602)">
<title>AS51184 IPv6 Upstream Graph</title>
<polygon fill="white" stroke="none" points="-4,4 -4,-602 687.055,-602 687.055,4 -4,4"/>
<!-- AS51184 -->
<g id="node1" class="node"><title>AS51184</title>
<g id="a_node1"><a xlink:href="/asn/51184" xlink:title="AS51184 ~ Fonira Telekom GmbH [AT]">
<ellipse fill="#ffffff" stroke="black" cx="44.1961" cy="-312" rx="44.393" ry="18"/>
<text text-anchor="middle" x="44.1961" y="-308.3" font-family="Times,serif" font-size="14.00" fill="#880000">AS51184</text>
</a>
</g>
</g>
<!-- AS174 -->
<g id="node2" class="node"><title>AS174</title>
<g id="a_node2"><a xlink:href="/asn/174" xlink:title="AS174 ~ Cogent Communications [US]">
<ellipse fill="#ffffff" stroke="black" cx="292.98" cy="-391" rx="35.194" ry="18"/>
<text text-anchor="middle" x="292.98" y="-387.3" font-family="Times,serif" font-size="14.00" fill="#2c94b3">AS174</text>
</a>
</g>
</g>
<!-- AS51184&#45;&gt;AS174 -->
<g id="edge1" class="edge"><title>AS51184&#45;&gt;AS174</title>
<path fill="none" stroke="black" stroke-width="4.5" d="M79.5104,-322.985C125.012,-337.55 205.117,-363.194 252.899,-378.489"/>
<polygon fill="black" stroke="black" stroke-width="4.5" points="251.855,-382.29 262.58,-381.588 254.256,-374.789 251.855,-382.29"/>
</g>
<!-- AS6939 -->
<g id="node3" class="node"><title>AS6939</title>
<g id="a_node3"><a xlink:href="/asn/6939" xlink:title="AS6939 ~ Hurricane Electric LLC [US]">
<ellipse fill="#ffffff" stroke="black" cx="292.98" cy="-149" rx="39.7935" ry="18"/>
<text text-anchor="middle" x="292.98" y="-145.3" font-family="Times,serif" font-size="14.00" fill="#2c94b3">AS6939</text>
</a>
</g>
</g>
<!-- AS51184&#45;&gt;AS6939 -->
<g id="edge2" class="edge"><title>AS51184&#45;&gt;AS6939</title>
<path fill="none" stroke="black" stroke-width="2.8125" d="M66.8531,-296.27C82.6635,-284.889 104.687,-269.247 124.392,-256 171.071,-224.62 226.221,-189.839 260.149,-168.699"/>
<polygon fill="black" stroke="black" stroke-width="2.8125" points="262.072,-171.624 268.715,-163.37 258.375,-165.68 262.072,-171.624"/>
</g>
<!-- AS8437 -->
<g id="node4" class="node"><title>AS8437</title>
<g id="a_node4"><a xlink:href="/asn/8437" xlink:title="AS8437 ~ Hutchison Drei Austria GmbH [AT]">
<ellipse fill="#ffffff" stroke="black" cx="168.588" cy="-283" rx="39.7935" ry="18"/>
<text text-anchor="middle" x="168.588" y="-279.3" font-family="Times,serif" font-size="14.00" fill="#2c94b3">AS8437</text>
</a>
</g>
</g>
<!-- AS51184&#45;&gt;AS8437 -->
<g id="edge3" class="edge"><title>AS51184&#45;&gt;AS8437</title>
<path fill="none" stroke="black" stroke-width="1.6875" d="M82.9164,-303.062C95.6778,-300.039 110.044,-296.635 123.27,-293.501"/>
<polygon fill="black" stroke="black" stroke-width="1.6875" points="124.192,-296.879 133.116,-291.168 122.578,-290.068 124.192,-296.879"/>
</g>
<!-- AS47692 -->
<g id="node5" class="node"><title>AS47692</title>
<g id="a_node5"><a xlink:href="/asn/47692" xlink:title="AS47692 ~ Nessus GmbH [AT]">
<ellipse fill="#ffffff" stroke="black" cx="168.588" cy="-507" rx="44.393" ry="18"/>
<text text-anchor="middle" x="168.588" y="-503.3" font-family="Times,serif" font-size="14.00" fill="#2c94b3">AS47692</text>
</a>
</g>
</g>
<!-- AS51184&#45;&gt;AS47692 -->
<g id="edge4" class="edge"><title>AS51184&#45;&gt;AS47692</title>
<path fill="none" stroke="black" stroke-width="1.6875" d="M56.2734,-329.649C77.9371,-364.164 126,-440.74 151.297,-481.043"/>
<polygon fill="black" stroke="black" stroke-width="1.6875" points="148.343,-482.922 156.624,-489.532 154.272,-479.201 148.343,-482.922"/>
</g>
<!-- AS6453 -->
<g id="node6" class="node"><title>AS6453</title>
<g id="a_node6"><a xlink:href="/asn/6453" xlink:title="AS6453 ~ TATA COMMUNICATIONS (AMERICA) INC [US]">
<ellipse fill="#ffffff" stroke="black" cx="412.823" cy="-580" rx="39.7935" ry="18"/>
<text text-anchor="middle" x="412.823" y="-576.3" font-family="Times,serif" font-size="14.00" fill="#2c94b3">AS6453</text>
</a>
</g>
</g>
<!-- AS174&#45;&gt;AS6453 -->
<g id="edge5" class="edge"><title>AS174&#45;&gt;AS6453</title>
<path fill="none" stroke="black" d="M306.43,-407.745C315.708,-420.727 328.261,-439.411 337.176,-457 357.779,-497.645 345.242,-516.998 373.176,-553 374.964,-555.304 377.002,-557.489 379.187,-559.544"/>
<polygon fill="black" stroke="black" points="377.087,-562.35 387.028,-566.015 381.543,-556.951 377.087,-562.35"/>
</g>
<!-- AS1299 -->
<g id="node7" class="node"><title>AS1299</title>
<g id="a_node7"><a xlink:href="/asn/1299" xlink:title="AS1299 ~ Telia Carrier [EU]">
<ellipse fill="#ffffff" stroke="black" cx="412.823" cy="-472" rx="39.7935" ry="18"/>
<text text-anchor="middle" x="412.823" y="-468.3" font-family="Times,serif" font-size="14.00" fill="#2c94b3">AS1299</text>
</a>
</g>
</g>
<!-- AS174&#45;&gt;AS1299 -->
<g id="edge6" class="edge"><title>AS174&#45;&gt;AS1299</title>
<path fill="none" stroke="black" d="M314.777,-405.295C333.361,-418.068 360.811,-436.937 381.779,-451.349"/>
<polygon fill="black" stroke="black" points="379.814,-454.245 390.037,-457.025 383.779,-448.476 379.814,-454.245"/>
</g>
<!-- AS6762 -->
<g id="node8" class="node"><title>AS6762</title>
<g id="a_node8"><a xlink:href="/asn/6762" xlink:title="AS6762 ~ TELECOM ITALIA SPARKLE S.p.A. [IT]">
<ellipse fill="#ffffff" stroke="black" cx="412.823" cy="-218" rx="39.7935" ry="18"/>
<text text-anchor="middle" x="412.823" y="-214.3" font-family="Times,serif" font-size="14.00" fill="#2c94b3">AS6762</text>
</a>
</g>
</g>
<!-- AS174&#45;&gt;AS6762 -->
<g id="edge7" class="edge"><title>AS174&#45;&gt;AS6762</title>
<path fill="none" stroke="black" d="M302.262,-373.392C318.486,-339.327 354.496,-265.916 373.176,-245 375.17,-242.768 377.382,-240.623 379.71,-238.585"/>
<polygon fill="black" stroke="black" points="382.242,-241.046 387.921,-232.102 377.904,-235.552 382.242,-241.046"/>
</g>
<!-- AS3356 -->
<g id="node9" class="node"><title>AS3356</title>
<g id="a_node9"><a xlink:href="/asn/3356" xlink:title="AS3356 ~ Level 3 Parent, LLC [US]">
<ellipse fill="#ffffff" stroke="black" cx="412.823" cy="-526" rx="39.7935" ry="18"/>
<text text-anchor="middle" x="412.823" y="-522.3" font-family="Times,serif" font-size="14.00" fill="#2c94b3">AS3356</text>
</a>
</g>
</g>
<!-- AS174&#45;&gt;AS3356 -->
<g id="edge8" class="edge"><title>AS174&#45;&gt;AS3356</title>
<path fill="none" stroke="black" d="M305.62,-408.275C323.659,-434.797 357.879,-484.049 373.176,-499 375.317,-501.092 377.634,-503.137 380.034,-505.106"/>
<polygon fill="black" stroke="black" points="378.301,-508.185 388.375,-511.464 382.544,-502.618 378.301,-508.185"/>
</g>
<!-- AS701 -->
<g id="node10" class="node"><title>AS701</title>
<g id="a_node10"><a xlink:href="/asn/701" xlink:title="AS701 ~ UUNET [US]">
<ellipse fill="#ffffff" stroke="black" cx="412.823" cy="-418" rx="35.194" ry="18"/>
<text text-anchor="middle" x="412.823" y="-414.3" font-family="Times,serif" font-size="14.00" fill="#2c94b3">AS701</text>
</a>
</g>
</g>
<!-- AS174&#45;&gt;AS701 -->
<g id="edge9" class="edge"><title>AS174&#45;&gt;AS701</title>
<path fill="none" stroke="black" d="M325.251,-398.165C339.101,-401.338 355.588,-405.115 370.439,-408.518"/>
<polygon fill="black" stroke="black" points="369.877,-411.98 380.407,-410.802 371.441,-405.157 369.877,-411.98"/>
</g>
<!-- AS7018 -->
<g id="node11" class="node"><title>AS7018</title>
<g id="a_node11"><a xlink:href="/asn/7018" xlink:title="AS7018 ~ AT&amp;T Services, Inc. [US]">
<ellipse fill="#ffffff" stroke="black" cx="412.823" cy="-364" rx="39.7935" ry="18"/>
<text text-anchor="middle" x="412.823" y="-360.3" font-family="Times,serif" font-size="14.00" fill="#2c94b3">AS7018</text>
</a>
</g>
</g>
<!-- AS174&#45;&gt;AS7018 -->
<g id="edge10" class="edge"><title>AS174&#45;&gt;AS7018</title>
<path fill="none" stroke="black" d="M325.251,-383.835C338.09,-380.894 353.195,-377.433 367.162,-374.233"/>
<polygon fill="black" stroke="black" points="368.117,-377.605 377.083,-371.96 366.553,-370.781 368.117,-377.605"/>
</g>
<!-- AS2914 -->
<g id="node12" class="node"><title>AS2914</title>
<g id="a_node12"><a xlink:href="/asn/2914" xlink:title="AS2914 ~ NTT America, Inc. [US]">
<ellipse fill="#ffffff" stroke="black" cx="528.116" cy="-245" rx="39.7935" ry="18"/>
<text text-anchor="middle" x="528.116" y="-241.3" font-family="Times,serif" font-size="14.00" fill="#2c94b3">AS2914</text>
</a>
</g>
</g>
<!-- AS174&#45;&gt;AS2914 -->
<g id="edge11" class="edge"><title>AS174&#45;&gt;AS2914</title>
<path fill="none" stroke="black" d="M313.62,-376.376C329.325,-364.987 352.124,-349.129 373.176,-337 407.038,-317.492 419.056,-319.266 452.469,-299 469.57,-288.628 472.27,-283.729 488.469,-272 491.272,-269.971 494.204,-267.875 497.145,-265.79"/>
<polygon fill="black" stroke="black" points="499.196,-268.627 505.359,-260.009 495.167,-262.903 499.196,-268.627"/>
</g>
<!-- AS6939&#45;&gt;AS6762 -->
<g id="edge16" class="edge"><title>AS6939&#45;&gt;AS6762</title>
<path fill="none" stroke="black" d="M318.112,-163.13C335.667,-173.409 359.642,-187.447 378.947,-198.75"/>
<polygon fill="black" stroke="black" points="377.326,-201.857 387.724,-203.889 380.863,-195.816 377.326,-201.857"/>
</g>
<!-- AS6939&#45;&gt;AS2914 -->
<g id="edge14" class="edge"><title>AS6939&#45;&gt;AS2914</title>
<path fill="none" stroke="black" d="M330.869,-154.806C363.871,-160.912 412.987,-172.284 452.469,-191 469.825,-199.227 487.322,-211.617 501.01,-222.454"/>
<polygon fill="black" stroke="black" points="499.036,-225.361 509.005,-228.95 503.451,-219.928 499.036,-225.361"/>
</g>
<!-- AS2497 -->
<g id="node13" class="node"><title>AS2497</title>
<g id="a_node13"><a xlink:href="/asn/2497" xlink:title="AS2497 ~ Internet Initiative Japan Inc. [JP]">
<ellipse fill="#ffffff" stroke="black" cx="412.823" cy="-72" rx="39.7935" ry="18"/>
<text text-anchor="middle" x="412.823" y="-68.3" font-family="Times,serif" font-size="14.00" fill="#2c94b3">AS2497</text>
</a>
</g>
</g>
<!-- AS6939&#45;&gt;AS2497 -->
<g id="edge12" class="edge"><title>AS6939&#45;&gt;AS2497</title>
<path fill="none" stroke="black" d="M316.423,-134.336C334.689,-122.401 360.665,-105.427 380.901,-92.2048"/>
<polygon fill="black" stroke="black" points="383.007,-95.0097 389.464,-86.6098 379.178,-89.1498 383.007,-95.0097"/>
</g>
<!-- AS1273 -->
<g id="node14" class="node"><title>AS1273</title>
<g id="a_node14"><a xlink:href="/asn/1273" xlink:title="AS1273 ~ Vodafone Group PLC [EU]">
<ellipse fill="#ffffff" stroke="black" cx="412.823" cy="-18" rx="39.7935" ry="18"/>
<text text-anchor="middle" x="412.823" y="-14.3" font-family="Times,serif" font-size="14.00" fill="#2c94b3">AS1273</text>
</a>
</g>
</g>
<!-- AS6939&#45;&gt;AS1273 -->
<g id="edge13" class="edge"><title>AS6939&#45;&gt;AS1273</title>
<path fill="none" stroke="black" d="M304.869,-131.487C318.945,-109.686 345.015,-72.0301 373.176,-45 375.335,-42.9278 377.666,-40.8967 380.075,-38.9374"/>
<polygon fill="black" stroke="black" points="382.582,-41.4286 388.434,-32.5961 378.351,-35.8519 382.582,-41.4286"/>
</g>
<!-- AS3491 -->
<g id="node15" class="node"><title>AS3491</title>
<g id="a_node15"><a xlink:href="/asn/3491" xlink:title="AS3491 ~ PCCW Global, Inc. [US]">
<ellipse fill="#ffffff" stroke="black" cx="412.823" cy="-126" rx="39.7935" ry="18"/>
<text text-anchor="middle" x="412.823" y="-122.3" font-family="Times,serif" font-size="14.00" fill="#2c94b3">AS3491</text>
</a>
</g>
</g>
<!-- AS6939&#45;&gt;AS3491 -->
<g id="edge15" class="edge"><title>AS6939&#45;&gt;AS3491</title>
<path fill="none" stroke="black" d="M329.657,-142.037C341.088,-139.806 353.91,-137.303 365.964,-134.951"/>
<polygon fill="black" stroke="black" points="366.717,-138.37 375.861,-133.019 365.376,-131.499 366.717,-138.37"/>
</g>
<!-- AS25255 -->
<g id="node16" class="node"><title>AS25255</title>
<g id="a_node16"><a xlink:href="/asn/25255" xlink:title="AS25255 ~ ==&gt; TELE2 AUSTRIA &lt;== [AT]">
<ellipse fill="#ffffff" stroke="black" cx="292.98" cy="-272" rx="44.393" ry="18"/>
<text text-anchor="middle" x="292.98" y="-268.3" font-family="Times,serif" font-size="14.00" fill="#2c94b3">AS25255</text>
</a>
</g>
</g>
<!-- AS8437&#45;&gt;AS25255 -->
<g id="edge17" class="edge"><title>AS8437&#45;&gt;AS25255</title>
<path fill="none" stroke="black" stroke-width="3" d="M207.643,-279.58C217.747,-278.672 228.838,-277.675 239.561,-276.711"/>
<polygon fill="black" stroke="black" stroke-width="3" points="240.039,-280.182 249.686,-275.801 239.413,-273.211 240.039,-280.182"/>
</g>
<!-- AS47692&#45;&gt;AS6453 -->
<g id="edge24" class="edge"><title>AS47692&#45;&gt;AS6453</title>
<path fill="none" stroke="black" d="M204.553,-517.537C248.129,-530.669 322.555,-553.098 369.363,-567.204"/>
<polygon fill="black" stroke="black" points="368.612,-570.633 379.197,-570.168 370.632,-563.931 368.612,-570.633"/>
</g>
<!-- AS47692&#45;&gt;AS3356 -->
<g id="edge23" class="edge"><title>AS47692&#45;&gt;AS3356</title>
<path fill="none" stroke="black" d="M212.059,-510.331C254.267,-513.642 318.923,-518.713 363.172,-522.184"/>
<polygon fill="black" stroke="black" points="363.155,-525.693 373.398,-522.986 363.703,-518.715 363.155,-525.693"/>
</g>
<!-- AS33891 -->
<g id="node20" class="node"><title>AS33891</title>
<g id="a_node20"><a xlink:href="/asn/33891" xlink:title="AS33891 ~ CORE&#45;BACKBONE GMBH GLOBAL NETWORK [DE]">
<ellipse fill="#ffffff" stroke="black" cx="292.98" cy="-484" rx="44.393" ry="18"/>
<text text-anchor="middle" x="292.98" y="-480.3" font-family="Times,serif" font-size="14.00" fill="#2c94b3">AS33891</text>
</a>
</g>
</g>
<!-- AS47692&#45;&gt;AS33891 -->
<g id="edge25" class="edge"><title>AS47692&#45;&gt;AS33891</title>
<path fill="none" stroke="black" d="M208.988,-499.596C219.688,-497.585 231.411,-495.382 242.589,-493.282"/>
<polygon fill="black" stroke="black" points="243.473,-496.677 252.655,-491.39 242.18,-489.797 243.473,-496.677"/>
</g>
<!-- AS209 -->
<g id="node21" class="node"><title>AS209</title>
<g id="a_node21"><a xlink:href="/asn/209" xlink:title="AS209 ~ CenturyLink Communications, LLC [US]">
<ellipse fill="#ffffff" stroke="black" cx="528.116" cy="-553" rx="35.194" ry="18"/>
<text text-anchor="middle" x="528.116" y="-549.3" font-family="Times,serif" font-size="14.00" fill="#2c94b3">AS209</text>
</a>
</g>
</g>
<!-- AS6453&#45;&gt;AS209 -->
<g id="edge27" class="edge"><title>AS6453&#45;&gt;AS209</title>
<path fill="none" stroke="black" d="M448.43,-571.752C460.225,-568.942 473.529,-565.771 485.797,-562.847"/>
<polygon fill="black" stroke="black" points="486.886,-566.186 495.802,-560.463 485.263,-559.376 486.886,-566.186"/>
</g>
<!-- AS3356&#45;&gt;AS209 -->
<g id="edge26" class="edge"><title>AS3356&#45;&gt;AS209</title>
<path fill="none" stroke="black" stroke-width="2" d="M448.43,-534.248C460.225,-537.058 473.529,-540.229 485.797,-543.153"/>
<polygon fill="black" stroke="black" stroke-width="2" points="485.263,-546.624 495.802,-545.537 486.886,-539.814 485.263,-546.624"/>
</g>
<!-- AS25255&#45;&gt;AS6762 -->
<g id="edge19" class="edge"><title>AS25255&#45;&gt;AS6762</title>
<path fill="none" stroke="black" d="M323.11,-258.652C338.721,-251.498 358.119,-242.609 374.791,-234.97"/>
<polygon fill="black" stroke="black" points="376.61,-237.986 384.243,-230.638 373.694,-231.622 376.61,-237.986"/>
</g>
<!-- AS1764 -->
<g id="node17" class="node"><title>AS1764</title>
<g id="a_node17"><a xlink:href="/asn/1764" xlink:title="AS1764 ~ NEXTLAYER&#45;AS [AT]">
<ellipse fill="#ffffff" stroke="black" cx="412.823" cy="-272" rx="39.7935" ry="18"/>
<text text-anchor="middle" x="412.823" y="-268.3" font-family="Times,serif" font-size="14.00" fill="#2c94b3">AS1764</text>
</a>
</g>
</g>
<!-- AS25255&#45;&gt;AS1764 -->
<g id="edge18" class="edge"><title>AS25255&#45;&gt;AS1764</title>
<path fill="none" stroke="black" stroke-width="2" d="M337.191,-272C345.504,-272 354.267,-272 362.749,-272"/>
<polygon fill="black" stroke="black" stroke-width="2" points="362.908,-275.5 372.908,-272 362.908,-268.5 362.908,-275.5"/>
</g>
<!-- AS1764&#45;&gt;AS2914 -->
<g id="edge21" class="edge"><title>AS1764&#45;&gt;AS2914</title>
<path fill="none" stroke="black" d="M448.43,-263.752C459.301,-261.162 471.456,-258.265 482.898,-255.538"/>
<polygon fill="black" stroke="black" points="483.804,-258.92 492.721,-253.197 482.182,-252.111 483.804,-258.92"/>
</g>
<!-- AS8218 -->
<g id="node18" class="node"><title>AS8218</title>
<g id="a_node18"><a xlink:href="/asn/8218" xlink:title="AS8218 ~ legacy Neotelecoms [FR]">
<ellipse fill="#ffffff" stroke="black" cx="528.116" cy="-299" rx="39.7935" ry="18"/>
<text text-anchor="middle" x="528.116" y="-295.3" font-family="Times,serif" font-size="14.00" fill="#2c94b3">AS8218</text>
</a>
</g>
</g>
<!-- AS1764&#45;&gt;AS8218 -->
<g id="edge20" class="edge"><title>AS1764&#45;&gt;AS8218</title>
<path fill="none" stroke="black" d="M448.43,-280.248C459.301,-282.838 471.456,-285.735 482.898,-288.462"/>
<polygon fill="black" stroke="black" points="482.182,-291.889 492.721,-290.803 483.804,-285.08 482.182,-291.889"/>
</g>
<!-- AS6461 -->
<g id="node19" class="node"><title>AS6461</title>
<g id="a_node19"><a xlink:href="/asn/6461" xlink:title="AS6461 ~ ZAYO&#45;6461 [US]">
<ellipse fill="#ffffff" stroke="black" cx="643.409" cy="-299" rx="39.7935" ry="18"/>
<text text-anchor="middle" x="643.409" y="-295.3" font-family="Times,serif" font-size="14.00" fill="#2c94b3">AS6461</text>
</a>
</g>
</g>
<!-- AS8218&#45;&gt;AS6461 -->
<g id="edge22" class="edge"><title>AS8218&#45;&gt;AS6461</title>
<path fill="none" stroke="black" d="M567.788,-299C575.991,-299 584.755,-299 593.287,-299"/>
<polygon fill="black" stroke="black" points="593.526,-302.5 603.526,-299 593.526,-295.5 593.526,-302.5"/>
</g>
<!-- AS33891&#45;&gt;AS3356 -->
<g id="edge28" class="edge"><title>AS33891&#45;&gt;AS3356</title>
<path fill="none" stroke="black" d="M326.806,-495.699C340.64,-500.63 356.878,-506.417 371.436,-511.606"/>
<polygon fill="black" stroke="black" points="370.601,-515.024 381.195,-515.084 372.951,-508.43 370.601,-515.024"/>
</g>
</g>
</svg>
