<?xml version="1.0" encoding="UTF-8" standalone="no"?>
<!DOCTYPE svg PUBLIC "-//W3C//DTD SVG 1.1//EN"
 "http://www.w3.org/Graphics/SVG/1.1/DTD/svg11.dtd">
<!-- Generated by graphviz version 2.38.0 (20140413.2041)
 -->
<!-- Title: AS47515 Combined Upstream Graph Pages: 1 -->
<svg width="691pt" height="602pt"
 viewBox="0.00 0.00 691.06 602.00" xmlns="http://www.w3.org/2000/svg" xmlns:xlink="http://www.w3.org/1999/xlink">
<g id="graph0" class="graph" transform="scale(1 1) rotate(0) translate(4 598)">
<title>AS47515 Combined Upstream Graph</title>
<polygon fill="white" stroke="none" points="-4,4 -4,-598 687.055,-598 687.055,4 -4,4"/>
<!-- AS47515 -->
<g id="node1" class="node"><title>AS47515</title>
<g id="a_node1"><a xlink:href="/asn/47515" xlink:title="AS47515 ~ BMI&#45;GOVIX [AT]">
<ellipse fill="#ffffff" stroke="black" cx="44.1961" cy="-121" rx="44.393" ry="18"/>
<text text-anchor="middle" x="44.1961" y="-117.3" font-family="Times,serif" font-size="14.00" fill="#880000">AS47515</text>
</a>
</g>
</g>
<!-- AS1853 -->
<g id="node2" class="node"><title>AS1853</title>
<g id="a_node2"><a xlink:href="/asn/1853" xlink:title="AS1853 ~ ACOnet Backbone [AT]">
<ellipse fill="#ffffff" stroke="black" cx="164.039" cy="-121" rx="39.7935" ry="18"/>
<text text-anchor="middle" x="164.039" y="-117.3" font-family="Times,serif" font-size="14.00" fill="#2c94b3">AS1853</text>
</a>
</g>
</g>
<!-- AS47515&#45;&gt;AS1853 -->
<g id="edge1" class="edge"><title>AS47515&#45;&gt;AS1853</title>
<path fill="none" stroke="black" stroke-width="4.5" d="M88.4072,-121C96.7198,-121 105.482,-121 113.965,-121"/>
<polygon fill="black" stroke="black" stroke-width="4.5" points="114.123,-124.938 124.123,-121 114.123,-117.063 114.123,-124.938"/>
</g>
<!-- AS1764 -->
<g id="node3" class="node"><title>AS1764</title>
<g id="a_node3"><a xlink:href="/asn/1764" xlink:title="AS1764 ~ NEXTLAYER&#45;AS [AT]">
<ellipse fill="#ffffff" stroke="black" cx="283.881" cy="-234" rx="39.7935" ry="18"/>
<text text-anchor="middle" x="283.881" y="-230.3" font-family="Times,serif" font-size="14.00" fill="#2c94b3">AS1764</text>
</a>
</g>
</g>
<!-- AS1853&#45;&gt;AS1764 -->
<g id="edge2" class="edge"><title>AS1853&#45;&gt;AS1764</title>
<path fill="none" stroke="black" stroke-width="4.5" d="M181.923,-137.19C202.049,-156.49 235.83,-188.883 258.719,-210.831"/>
<polygon fill="black" stroke="black" stroke-width="4.5" points="256.085,-213.761 266.029,-217.84 261.536,-208.077 256.085,-213.761"/>
</g>
<!-- AS21320 -->
<g id="node4" class="node"><title>AS21320</title>
<g id="a_node4"><a xlink:href="/asn/21320" xlink:title="AS21320 ~ GEANT Vereniging [EU]">
<ellipse fill="#ffffff" stroke="black" cx="283.881" cy="-153" rx="44.393" ry="18"/>
<text text-anchor="middle" x="283.881" y="-149.3" font-family="Times,serif" font-size="14.00" fill="#2c94b3">AS21320</text>
</a>
</g>
</g>
<!-- AS1853&#45;&gt;AS21320 -->
<g id="edge3" class="edge"><title>AS1853&#45;&gt;AS21320</title>
<path fill="none" stroke="black" stroke-width="1.25" d="M198.492,-130.084C210.305,-133.292 223.808,-136.959 236.498,-140.405"/>
<polygon fill="black" stroke="black" stroke-width="1.25" points="235.885,-143.865 246.452,-143.108 237.719,-137.109 235.885,-143.865"/>
</g>
<!-- AS3356 -->
<g id="node5" class="node"><title>AS3356</title>
<g id="a_node5"><a xlink:href="/asn/3356" xlink:title="AS3356 ~ Level 3 Parent, LLC [US]">
<ellipse fill="#ffffff" stroke="black" cx="403.724" cy="-72" rx="39.7935" ry="18"/>
<text text-anchor="middle" x="403.724" y="-68.3" font-family="Times,serif" font-size="14.00" fill="#2c94b3">AS3356</text>
</a>
</g>
</g>
<!-- AS1853&#45;&gt;AS3356 -->
<g id="edge4" class="edge"><title>AS1853&#45;&gt;AS3356</title>
<path fill="none" stroke="black" stroke-width="1.75" d="M200.366,-113.717C242.085,-105.117 311.568,-90.7923 357.265,-81.3716"/>
<polygon fill="black" stroke="black" stroke-width="1.75" points="358.115,-84.77 367.203,-79.3229 356.702,-77.9141 358.115,-84.77"/>
</g>
<!-- AS6939 -->
<g id="node6" class="node"><title>AS6939</title>
<g id="a_node6"><a xlink:href="/asn/6939" xlink:title="AS6939 ~ Hurricane Electric LLC [US]">
<ellipse fill="#ffffff" stroke="black" cx="283.881" cy="-39" rx="39.7935" ry="18"/>
<text text-anchor="middle" x="283.881" y="-35.3" font-family="Times,serif" font-size="14.00" fill="#2c94b3">AS6939</text>
</a>
</g>
</g>
<!-- AS1853&#45;&gt;AS6939 -->
<g id="edge5" class="edge"><title>AS1853&#45;&gt;AS6939</title>
<path fill="none" stroke="black" stroke-width="0.25" d="M186.653,-105.96C205.258,-93.0139 232.293,-74.2018 252.973,-59.8113"/>
<polygon fill="black" stroke="black" stroke-width="0.25" points="255.195,-62.5294 261.404,-53.9447 251.197,-56.7835 255.195,-62.5294"/>
</g>
<!-- AS2914 -->
<g id="node7" class="node"><title>AS2914</title>
<g id="a_node7"><a xlink:href="/asn/2914" xlink:title="AS2914 ~ NTT America, Inc. [US]">
<ellipse fill="#ffffff" stroke="black" cx="403.724" cy="-234" rx="39.7935" ry="18"/>
<text text-anchor="middle" x="403.724" y="-230.3" font-family="Times,serif" font-size="14.00" fill="#2c94b3">AS2914</text>
</a>
</g>
</g>
<!-- AS1764&#45;&gt;AS2914 -->
<g id="edge6" class="edge"><title>AS1764&#45;&gt;AS2914</title>
<path fill="none" stroke="black" stroke-width="4.5" d="M323.794,-234C333.347,-234 343.697,-234 353.659,-234"/>
<polygon fill="black" stroke="black" stroke-width="4.5" points="353.852,-237.938 363.852,-234 353.852,-230.063 353.852,-237.938"/>
</g>
<!-- AS1299 -->
<g id="node8" class="node"><title>AS1299</title>
<g id="a_node8"><a xlink:href="/asn/1299" xlink:title="AS1299 ~ Telia Carrier [EU]">
<ellipse fill="#ffffff" stroke="black" cx="403.724" cy="-430" rx="39.7935" ry="18"/>
<text text-anchor="middle" x="403.724" y="-426.3" font-family="Times,serif" font-size="14.00" fill="#2c94b3">AS1299</text>
</a>
</g>
</g>
<!-- AS1764&#45;&gt;AS1299 -->
<g id="edge7" class="edge"><title>AS1764&#45;&gt;AS1299</title>
<path fill="none" stroke="black" stroke-width="4.5" d="M295.339,-251.394C316.086,-285.9 362.553,-363.186 387,-403.847"/>
<polygon fill="black" stroke="black" stroke-width="4.5" points="383.762,-406.104 392.289,-412.645 390.511,-402.046 383.762,-406.104"/>
</g>
<!-- AS174 -->
<g id="node9" class="node"><title>AS174</title>
<g id="a_node9"><a xlink:href="/asn/174" xlink:title="AS174 ~ Cogent Communications [US]">
<ellipse fill="#ffffff" stroke="black" cx="523.566" cy="-322" rx="35.194" ry="18"/>
<text text-anchor="middle" x="523.566" y="-318.3" font-family="Times,serif" font-size="14.00" fill="#2c94b3">AS174</text>
</a>
</g>
</g>
<!-- AS21320&#45;&gt;AS174 -->
<g id="edge22" class="edge"><title>AS21320&#45;&gt;AS174</title>
<path fill="none" stroke="black" stroke-width="3" d="M299.278,-170.211C307.87,-180.673 318.865,-194.401 328.077,-207 345.102,-230.284 341.56,-242.973 364.077,-261 398.285,-288.386 446.193,-304.534 480.363,-313.262"/>
<polygon fill="black" stroke="black" stroke-width="3" points="479.951,-316.764 490.496,-315.736 481.612,-309.964 479.951,-316.764"/>
</g>
<!-- AS2603 -->
<g id="node19" class="node"><title>AS2603</title>
<g id="a_node19"><a xlink:href="/asn/2603" xlink:title="AS2603 ~ NORDUnet [NO]">
<ellipse fill="#ffffff" stroke="black" cx="403.724" cy="-126" rx="39.7935" ry="18"/>
<text text-anchor="middle" x="403.724" y="-122.3" font-family="Times,serif" font-size="14.00" fill="#2c94b3">AS2603</text>
</a>
</g>
</g>
<!-- AS21320&#45;&gt;AS2603 -->
<g id="edge20" class="edge"><title>AS21320&#45;&gt;AS2603</title>
<path fill="none" stroke="black" d="M322.816,-144.308C334.057,-141.733 346.469,-138.889 358.092,-136.226"/>
<polygon fill="black" stroke="black" points="359.088,-139.588 368.054,-133.943 357.525,-132.765 359.088,-139.588"/>
</g>
<!-- AS6461 -->
<g id="node20" class="node"><title>AS6461</title>
<g id="a_node20"><a xlink:href="/asn/6461" xlink:title="AS6461 ~ Zayo Bandwidth [US]">
<ellipse fill="#ffffff" stroke="black" cx="403.724" cy="-180" rx="39.7935" ry="18"/>
<text text-anchor="middle" x="403.724" y="-176.3" font-family="Times,serif" font-size="14.00" fill="#2c94b3">AS6461</text>
</a>
</g>
</g>
<!-- AS21320&#45;&gt;AS6461 -->
<g id="edge21" class="edge"><title>AS21320&#45;&gt;AS6461</title>
<path fill="none" stroke="black" d="M322.816,-161.692C334.057,-164.267 346.469,-167.111 358.092,-169.774"/>
<polygon fill="black" stroke="black" points="357.525,-173.235 368.054,-172.057 359.088,-166.412 357.525,-173.235"/>
</g>
<!-- AS2497 -->
<g id="node11" class="node"><title>AS2497</title>
<g id="a_node11"><a xlink:href="/asn/2497" xlink:title="AS2497 ~ Internet Initiative Japan Inc. [JP]">
<ellipse fill="#ffffff" stroke="black" cx="523.566" cy="-138" rx="39.7935" ry="18"/>
<text text-anchor="middle" x="523.566" y="-134.3" font-family="Times,serif" font-size="14.00" fill="#2c94b3">AS2497</text>
</a>
</g>
</g>
<!-- AS3356&#45;&gt;AS2497 -->
<g id="edge25" class="edge"><title>AS3356&#45;&gt;AS2497</title>
<path fill="none" stroke="black" stroke-width="2" d="M429.427,-85.8358C446.711,-95.516 470.007,-108.563 488.976,-119.187"/>
<polygon fill="black" stroke="black" stroke-width="2" points="487.46,-122.35 497.895,-124.182 490.881,-116.242 487.46,-122.35"/>
</g>
<!-- AS3491 -->
<g id="node14" class="node"><title>AS3491</title>
<g id="a_node14"><a xlink:href="/asn/3491" xlink:title="AS3491 ~ PCCW Global, Inc. [US]">
<ellipse fill="#ffffff" stroke="black" cx="523.566" cy="-84" rx="39.7935" ry="18"/>
<text text-anchor="middle" x="523.566" y="-80.3" font-family="Times,serif" font-size="14.00" fill="#2c94b3">AS3491</text>
</a>
</g>
</g>
<!-- AS3356&#45;&gt;AS3491 -->
<g id="edge26" class="edge"><title>AS3356&#45;&gt;AS3491</title>
<path fill="none" stroke="black" d="M442.659,-75.8629C452.856,-76.9014 464.019,-78.038 474.681,-79.1238"/>
<polygon fill="black" stroke="black" points="474.399,-82.6131 484.703,-80.1443 475.109,-75.6492 474.399,-82.6131"/>
</g>
<!-- AS3549 -->
<g id="node21" class="node"><title>AS3549</title>
<g id="a_node21"><a xlink:href="/asn/3549" xlink:title="AS3549 ~ Level 3 Parent, LLC [US]">
<ellipse fill="#ffffff" stroke="black" cx="523.566" cy="-30" rx="39.7935" ry="18"/>
<text text-anchor="middle" x="523.566" y="-26.3" font-family="Times,serif" font-size="14.00" fill="#2c94b3">AS3549</text>
</a>
</g>
</g>
<!-- AS3356&#45;&gt;AS3549 -->
<g id="edge24" class="edge"><title>AS3356&#45;&gt;AS3549</title>
<path fill="none" stroke="black" stroke-width="2" d="M435.378,-61.0746C449.587,-56.0104 466.671,-49.9217 481.936,-44.481"/>
<polygon fill="black" stroke="black" stroke-width="2" points="483.412,-47.6707 491.656,-41.0166 481.062,-41.077 483.412,-47.6707"/>
</g>
<!-- AS209 -->
<g id="node22" class="node"><title>AS209</title>
<g id="a_node22"><a xlink:href="/asn/209" xlink:title="AS209 ~ CenturyLink Communications, LLC [US]">
<ellipse fill="#ffffff" stroke="black" cx="403.724" cy="-18" rx="35.194" ry="18"/>
<text text-anchor="middle" x="403.724" y="-14.3" font-family="Times,serif" font-size="14.00" fill="#2c94b3">AS209</text>
</a>
</g>
</g>
<!-- AS6939&#45;&gt;AS209 -->
<g id="edge29" class="edge"><title>AS6939&#45;&gt;AS209</title>
<path fill="none" stroke="black" d="M321.199,-32.528C333.579,-30.3218 347.528,-27.836 360.342,-25.5526"/>
<polygon fill="black" stroke="black" points="361.092,-28.9741 370.323,-23.7739 359.864,-22.0827 361.092,-28.9741"/>
</g>
<!-- AS2914&#45;&gt;AS174 -->
<g id="edge8" class="edge"><title>AS2914&#45;&gt;AS174</title>
<path fill="none" stroke="black" d="M422.922,-249.964C437.729,-262.682 459.374,-280.667 479.37,-295 483.11,-297.681 487.114,-300.387 491.121,-302.998"/>
<polygon fill="black" stroke="black" points="489.477,-306.1 499.793,-308.514 493.234,-300.194 489.477,-306.1"/>
</g>
<!-- AS12956 -->
<g id="node10" class="node"><title>AS12956</title>
<g id="a_node10"><a xlink:href="/asn/12956" xlink:title="AS12956 ~ TELXIUS [ES]">
<ellipse fill="#ffffff" stroke="black" cx="523.566" cy="-268" rx="44.393" ry="18"/>
<text text-anchor="middle" x="523.566" y="-264.3" font-family="Times,serif" font-size="14.00" fill="#2c94b3">AS12956</text>
</a>
</g>
</g>
<!-- AS2914&#45;&gt;AS12956 -->
<g id="edge9" class="edge"><title>AS2914&#45;&gt;AS12956</title>
<path fill="none" stroke="black" d="M437.549,-243.471C449.814,-247.01 463.97,-251.094 477.168,-254.902"/>
<polygon fill="black" stroke="black" points="476.449,-258.337 487.027,-257.746 478.39,-251.611 476.449,-258.337"/>
</g>
<!-- AS2914&#45;&gt;AS2497 -->
<g id="edge10" class="edge"><title>AS2914&#45;&gt;AS2497</title>
<path fill="none" stroke="black" stroke-width="2" d="M427.332,-219.275C432.736,-215.467 438.381,-211.24 443.37,-207 460.853,-192.141 462.096,-185.1 479.37,-170 483.586,-166.315 488.199,-162.599 492.791,-159.07"/>
<polygon fill="black" stroke="black" stroke-width="2" points="495.036,-161.76 500.943,-152.965 490.84,-156.157 495.036,-161.76"/>
</g>
<!-- AS6762 -->
<g id="node12" class="node"><title>AS6762</title>
<g id="a_node12"><a xlink:href="/asn/6762" xlink:title="AS6762 ~ TELECOM ITALIA SPARKLE S.p.A. [IT]">
<ellipse fill="#ffffff" stroke="black" cx="643.409" cy="-322" rx="39.7935" ry="18"/>
<text text-anchor="middle" x="643.409" y="-318.3" font-family="Times,serif" font-size="14.00" fill="#2c94b3">AS6762</text>
</a>
</g>
</g>
<!-- AS2914&#45;&gt;AS6762 -->
<g id="edge11" class="edge"><title>AS2914&#45;&gt;AS6762</title>
<path fill="none" stroke="black" d="M441.24,-227.891C475.568,-223.873 527.545,-222.333 567.762,-241 592.919,-252.676 613.53,-277.12 626.672,-296.117"/>
<polygon fill="black" stroke="black" points="623.896,-298.264 632.342,-304.661 629.728,-294.394 623.896,-298.264"/>
</g>
<!-- AS701 -->
<g id="node13" class="node"><title>AS701</title>
<g id="a_node13"><a xlink:href="/asn/701" xlink:title="AS701 ~ UUNET [US]">
<ellipse fill="#ffffff" stroke="black" cx="643.409" cy="-226" rx="35.194" ry="18"/>
<text text-anchor="middle" x="643.409" y="-222.3" font-family="Times,serif" font-size="14.00" fill="#2c94b3">AS701</text>
</a>
</g>
</g>
<!-- AS2914&#45;&gt;AS701 -->
<g id="edge12" class="edge"><title>AS2914&#45;&gt;AS701</title>
<path fill="none" stroke="black" d="M432.845,-221.697C446.587,-216.339 463.539,-210.678 479.37,-208 518.105,-201.447 528.752,-203.363 567.762,-208 579.215,-209.361 591.452,-211.858 602.636,-214.568"/>
<polygon fill="black" stroke="black" points="602.003,-218.018 612.557,-217.09 603.728,-211.234 602.003,-218.018"/>
</g>
<!-- AS2914&#45;&gt;AS3491 -->
<g id="edge13" class="edge"><title>AS2914&#45;&gt;AS3491</title>
<path fill="none" stroke="black" d="M429.519,-220.015C434.602,-216.291 439.557,-211.915 443.37,-207 471.304,-170.998 450.524,-146.275 479.37,-111 481.75,-108.09 484.529,-105.403 487.511,-102.943"/>
<polygon fill="black" stroke="black" points="489.702,-105.678 495.74,-96.9716 485.591,-100.013 489.702,-105.678"/>
</g>
<!-- AS1299&#45;&gt;AS174 -->
<g id="edge18" class="edge"><title>AS1299&#45;&gt;AS174</title>
<path fill="none" stroke="black" d="M418.143,-412.935C432.257,-395.625 455.672,-368.655 479.37,-349 482.833,-346.128 486.626,-343.331 490.48,-340.692"/>
<polygon fill="black" stroke="black" points="492.442,-343.592 498.913,-335.203 488.623,-337.725 492.442,-343.592"/>
</g>
<!-- AS1299&#45;&gt;AS6762 -->
<g id="edge17" class="edge"><title>AS1299&#45;&gt;AS6762</title>
<path fill="none" stroke="black" d="M429.795,-443.777C463.517,-460.27 524.267,-482.651 567.762,-457 606.896,-433.921 626.944,-382.148 636.016,-349.844"/>
<polygon fill="black" stroke="black" points="639.42,-350.663 638.586,-340.101 632.651,-348.878 639.42,-350.663"/>
</g>
<!-- AS7018 -->
<g id="node15" class="node"><title>AS7018</title>
<g id="a_node15"><a xlink:href="/asn/7018" xlink:title="AS7018 ~ AT&amp;T Services, Inc. [US]">
<ellipse fill="#ffffff" stroke="black" cx="523.566" cy="-430" rx="39.7935" ry="18"/>
<text text-anchor="middle" x="523.566" y="-426.3" font-family="Times,serif" font-size="14.00" fill="#2c94b3">AS7018</text>
</a>
</g>
</g>
<!-- AS1299&#45;&gt;AS7018 -->
<g id="edge14" class="edge"><title>AS1299&#45;&gt;AS7018</title>
<path fill="none" stroke="black" stroke-width="2" d="M443.636,-430C453.19,-430 463.539,-430 473.502,-430"/>
<polygon fill="black" stroke="black" stroke-width="2" points="473.695,-433.5 483.695,-430 473.694,-426.5 473.695,-433.5"/>
</g>
<!-- AS3257 -->
<g id="node16" class="node"><title>AS3257</title>
<g id="a_node16"><a xlink:href="/asn/3257" xlink:title="AS3257 ~ GTT [DE]">
<ellipse fill="#ffffff" stroke="black" cx="523.566" cy="-376" rx="39.7935" ry="18"/>
<text text-anchor="middle" x="523.566" y="-372.3" font-family="Times,serif" font-size="14.00" fill="#2c94b3">AS3257</text>
</a>
</g>
</g>
<!-- AS1299&#45;&gt;AS3257 -->
<g id="edge15" class="edge"><title>AS1299&#45;&gt;AS3257</title>
<path fill="none" stroke="black" d="M432.353,-417.339C448.31,-410.027 468.58,-400.739 485.863,-392.819"/>
<polygon fill="black" stroke="black" points="487.478,-395.929 495.111,-388.581 484.562,-389.565 487.478,-395.929"/>
</g>
<!-- AS1239 -->
<g id="node17" class="node"><title>AS1239</title>
<g id="a_node17"><a xlink:href="/asn/1239" xlink:title="AS1239 ~ Sprint [US]">
<ellipse fill="#ffffff" stroke="black" cx="523.566" cy="-576" rx="39.7935" ry="18"/>
<text text-anchor="middle" x="523.566" y="-572.3" font-family="Times,serif" font-size="14.00" fill="#2c94b3">AS1239</text>
</a>
</g>
</g>
<!-- AS1299&#45;&gt;AS1239 -->
<g id="edge16" class="edge"><title>AS1299&#45;&gt;AS1239</title>
<path fill="none" stroke="black" d="M412.734,-447.868C424.561,-472.778 448.65,-518.329 479.37,-549 482.177,-551.802 485.326,-554.451 488.611,-556.914"/>
<polygon fill="black" stroke="black" points="486.715,-559.859 496.939,-562.637 490.679,-554.089 486.715,-559.859"/>
</g>
<!-- AS6453 -->
<g id="node18" class="node"><title>AS6453</title>
<g id="a_node18"><a xlink:href="/asn/6453" xlink:title="AS6453 ~ TATA COMMUNICATIONS (AMERICA) INC [US]">
<ellipse fill="#ffffff" stroke="black" cx="523.566" cy="-522" rx="39.7935" ry="18"/>
<text text-anchor="middle" x="523.566" y="-518.3" font-family="Times,serif" font-size="14.00" fill="#2c94b3">AS6453</text>
</a>
</g>
</g>
<!-- AS1299&#45;&gt;AS6453 -->
<g id="edge19" class="edge"><title>AS1299&#45;&gt;AS6453</title>
<path fill="none" stroke="black" d="M423.891,-445.75C438.872,-457.977 460.285,-475.269 479.37,-490 483.896,-493.493 488.728,-497.146 493.462,-500.683"/>
<polygon fill="black" stroke="black" points="491.673,-503.714 501.788,-506.864 495.845,-498.093 491.673,-503.714"/>
</g>
<!-- AS174&#45;&gt;AS6762 -->
<g id="edge28" class="edge"><title>AS174&#45;&gt;AS6762</title>
<path fill="none" stroke="black" d="M558.968,-322C569.792,-322 581.96,-322 593.587,-322"/>
<polygon fill="black" stroke="black" points="593.618,-325.5 603.617,-322 593.617,-318.5 593.618,-325.5"/>
</g>
<!-- AS174&#45;&gt;AS701 -->
<g id="edge27" class="edge"><title>AS174&#45;&gt;AS701</title>
<path fill="none" stroke="black" d="M547.521,-308.76C554.221,-304.604 561.438,-299.832 567.762,-295 586.103,-280.989 605.186,-263.285 619.466,-249.319"/>
<polygon fill="black" stroke="black" points="622.224,-251.513 626.87,-241.991 617.3,-246.538 622.224,-251.513"/>
</g>
<!-- AS2603&#45;&gt;AS3491 -->
<g id="edge23" class="edge"><title>AS2603&#45;&gt;AS3491</title>
<path fill="none" stroke="black" d="M435.378,-115.075C449.587,-110.01 466.671,-103.922 481.936,-98.481"/>
<polygon fill="black" stroke="black" points="483.412,-101.671 491.656,-95.0166 481.062,-95.077 483.412,-101.671"/>
</g>
</g>
</svg>
