<?xml version="1.0" encoding="UTF-8" standalone="no"?>
<!DOCTYPE svg PUBLIC "-//W3C//DTD SVG 1.1//EN"
 "http://www.w3.org/Graphics/SVG/1.1/DTD/svg11.dtd">
<!-- Generated by graphviz version 2.38.0 (20140413.2041)
 -->
<!-- Title: AS47515 Combined Upstream Graph Pages: 1 -->
<svg width="691pt" height="682pt"
 viewBox="0.00 0.00 691.06 682.00" xmlns="http://www.w3.org/2000/svg" xmlns:xlink="http://www.w3.org/1999/xlink">
<g id="graph0" class="graph" transform="scale(1 1) rotate(0) translate(4 678)">
<title>AS47515 Combined Upstream Graph</title>
<polygon fill="white" stroke="none" points="-4,4 -4,-678 687.055,-678 687.055,4 -4,4"/>
<!-- AS47515 -->
<g id="node1" class="node"><title>AS47515</title>
<g id="a_node1"><a xlink:href="/asn/47515" xlink:title="AS47515 ~ BMI&#45;GOVIX [AT]">
<ellipse fill="#ffffff" stroke="black" cx="44.1961" cy="-139" rx="44.393" ry="18"/>
<text text-anchor="middle" x="44.1961" y="-135.3" font-family="Times,serif" font-size="14.00" fill="#880000">AS47515</text>
</a>
</g>
</g>
<!-- AS1853 -->
<g id="node2" class="node"><title>AS1853</title>
<g id="a_node2"><a xlink:href="/asn/1853" xlink:title="AS1853 ~ ACOnet Backbone [AT]">
<ellipse fill="#ffffff" stroke="black" cx="164.039" cy="-139" rx="39.7935" ry="18"/>
<text text-anchor="middle" x="164.039" y="-135.3" font-family="Times,serif" font-size="14.00" fill="#2c94b3">AS1853</text>
</a>
</g>
</g>
<!-- AS47515&#45;&gt;AS1853 -->
<g id="edge1" class="edge"><title>AS47515&#45;&gt;AS1853</title>
<path fill="none" stroke="black" stroke-width="4.5" d="M88.4072,-139C96.7198,-139 105.482,-139 113.965,-139"/>
<polygon fill="black" stroke="black" stroke-width="4.5" points="114.123,-142.938 124.123,-139 114.123,-135.063 114.123,-142.938"/>
</g>
<!-- AS1764 -->
<g id="node3" class="node"><title>AS1764</title>
<g id="a_node3"><a xlink:href="/asn/1764" xlink:title="AS1764 ~ NEXTLAYER&#45;AS [AT]">
<ellipse fill="#ffffff" stroke="black" cx="279.332" cy="-164" rx="39.7935" ry="18"/>
<text text-anchor="middle" x="279.332" y="-160.3" font-family="Times,serif" font-size="14.00" fill="#2c94b3">AS1764</text>
</a>
</g>
</g>
<!-- AS1853&#45;&gt;AS1764 -->
<g id="edge2" class="edge"><title>AS1853&#45;&gt;AS1764</title>
<path fill="none" stroke="black" stroke-width="4.5" d="M199.955,-146.705C210.508,-149.033 222.246,-151.624 233.359,-154.076"/>
<polygon fill="black" stroke="black" stroke-width="4.5" points="232.722,-157.968 243.336,-156.278 234.419,-150.278 232.722,-157.968"/>
</g>
<!-- AS3356 -->
<g id="node4" class="node"><title>AS3356</title>
<g id="a_node4"><a xlink:href="/asn/3356" xlink:title="AS3356 ~ Level 3 Parent, LLC [US]">
<ellipse fill="#ffffff" stroke="black" cx="399.174" cy="-502" rx="39.7935" ry="18"/>
<text text-anchor="middle" x="399.174" y="-498.3" font-family="Times,serif" font-size="14.00" fill="#2c94b3">AS3356</text>
</a>
</g>
</g>
<!-- AS1853&#45;&gt;AS3356 -->
<g id="edge3" class="edge"><title>AS1853&#45;&gt;AS3356</title>
<path fill="none" stroke="black" stroke-width="2.91176" d="M176.283,-156.508C214.062,-215.331 336.572,-406.084 381.478,-476.003"/>
<polygon fill="black" stroke="black" stroke-width="2.91176" points="378.693,-478.145 387.042,-484.667 384.583,-474.362 378.693,-478.145"/>
</g>
<!-- AS21320 -->
<g id="node5" class="node"><title>AS21320</title>
<g id="a_node5"><a xlink:href="/asn/21320" xlink:title="AS21320 ~ GEANT Vereniging [EU]">
<ellipse fill="#ffffff" stroke="black" cx="399.174" cy="-110" rx="44.393" ry="18"/>
<text text-anchor="middle" x="399.174" y="-106.3" font-family="Times,serif" font-size="14.00" fill="#2c94b3">AS21320</text>
</a>
</g>
</g>
<!-- AS1853&#45;&gt;AS21320 -->
<g id="edge4" class="edge"><title>AS1853&#45;&gt;AS21320</title>
<path fill="none" stroke="black" stroke-width="1.32353" d="M202.496,-134.341C241.462,-129.494 302.758,-121.869 346.356,-116.446"/>
<polygon fill="black" stroke="black" stroke-width="1.32353" points="346.988,-119.894 356.479,-115.186 346.124,-112.948 346.988,-119.894"/>
</g>
<!-- AS6939 -->
<g id="node6" class="node"><title>AS6939</title>
<g id="a_node6"><a xlink:href="/asn/6939" xlink:title="AS6939 ~ Hurricane Electric LLC [US]">
<ellipse fill="#ffffff" stroke="black" cx="279.332" cy="-64" rx="39.7935" ry="18"/>
<text text-anchor="middle" x="279.332" y="-60.3" font-family="Times,serif" font-size="14.00" fill="#2c94b3">AS6939</text>
</a>
</g>
</g>
<!-- AS1853&#45;&gt;AS6939 -->
<g id="edge5" class="edge"><title>AS1853&#45;&gt;AS6939</title>
<path fill="none" stroke="black" stroke-width="0.264706" d="M187.152,-124.361C204.351,-112.975 228.419,-97.042 247.509,-84.4045"/>
<polygon fill="black" stroke="black" stroke-width="0.264706" points="249.481,-87.2967 255.887,-78.8582 245.617,-81.4598 249.481,-87.2967"/>
</g>
<!-- AS2914 -->
<g id="node7" class="node"><title>AS2914</title>
<g id="a_node7"><a xlink:href="/asn/2914" xlink:title="AS2914 ~ NTT America, Inc. [US]">
<ellipse fill="#ffffff" stroke="black" cx="399.174" cy="-164" rx="39.7935" ry="18"/>
<text text-anchor="middle" x="399.174" y="-160.3" font-family="Times,serif" font-size="14.00" fill="#2c94b3">AS2914</text>
</a>
</g>
</g>
<!-- AS1764&#45;&gt;AS2914 -->
<g id="edge6" class="edge"><title>AS1764&#45;&gt;AS2914</title>
<path fill="none" stroke="black" stroke-width="4.5" d="M319.244,-164C328.798,-164 339.147,-164 349.11,-164"/>
<polygon fill="black" stroke="black" stroke-width="4.5" points="349.302,-167.938 359.302,-164 349.302,-160.063 349.302,-167.938"/>
</g>
<!-- AS1299 -->
<g id="node8" class="node"><title>AS1299</title>
<g id="a_node8"><a xlink:href="/asn/1299" xlink:title="AS1299 ~ Telia Carrier [EU]">
<ellipse fill="#ffffff" stroke="black" cx="399.174" cy="-267" rx="39.7935" ry="18"/>
<text text-anchor="middle" x="399.174" y="-263.3" font-family="Times,serif" font-size="14.00" fill="#2c94b3">AS1299</text>
</a>
</g>
</g>
<!-- AS1764&#45;&gt;AS1299 -->
<g id="edge7" class="edge"><title>AS1764&#45;&gt;AS1299</title>
<path fill="none" stroke="black" stroke-width="4" d="M298.486,-179.868C318.151,-197.056 349.7,-224.631 372.033,-244.151"/>
<polygon fill="black" stroke="black" stroke-width="4" points="369.972,-246.999 379.805,-250.944 374.579,-241.728 369.972,-246.999"/>
</g>
<!-- AS6762 -->
<g id="node10" class="node"><title>AS6762</title>
<g id="a_node10"><a xlink:href="/asn/6762" xlink:title="AS6762 ~ TELECOM ITALIA SPARKLE S.p.A. [IT]">
<ellipse fill="#ffffff" stroke="black" cx="643.409" cy="-194" rx="39.7935" ry="18"/>
<text text-anchor="middle" x="643.409" y="-190.3" font-family="Times,serif" font-size="14.00" fill="#2c94b3">AS6762</text>
</a>
</g>
</g>
<!-- AS3356&#45;&gt;AS6762 -->
<g id="edge14" class="edge"><title>AS3356&#45;&gt;AS6762</title>
<path fill="none" stroke="black" d="M436.193,-508.695C473.646,-513.45 531.737,-514.309 567.762,-483 607.314,-448.627 630.961,-288.197 639.149,-222.333"/>
<polygon fill="black" stroke="black" points="642.642,-222.599 640.372,-212.251 635.693,-221.756 642.642,-222.599"/>
</g>
<!-- AS2497 -->
<g id="node13" class="node"><title>AS2497</title>
<g id="a_node13"><a xlink:href="/asn/2497" xlink:title="AS2497 ~ Internet Initiative Japan Inc. [JP]">
<ellipse fill="#ffffff" stroke="black" cx="523.566" cy="-348" rx="39.7935" ry="18"/>
<text text-anchor="middle" x="523.566" y="-344.3" font-family="Times,serif" font-size="14.00" fill="#2c94b3">AS2497</text>
</a>
</g>
</g>
<!-- AS3356&#45;&gt;AS2497 -->
<g id="edge15" class="edge"><title>AS3356&#45;&gt;AS2497</title>
<path fill="none" stroke="black" stroke-width="2" d="M408.025,-484.253C420.305,-457.983 446.131,-408.274 479.37,-375 482.173,-372.194 485.319,-369.543 488.603,-367.078"/>
<polygon fill="black" stroke="black" stroke-width="2" points="490.672,-369.903 496.93,-361.353 486.707,-364.135 490.672,-369.903"/>
</g>
<!-- AS3549 -->
<g id="node14" class="node"><title>AS3549</title>
<g id="a_node14"><a xlink:href="/asn/3549" xlink:title="AS3549 ~ Level 3 Parent, LLC [US]">
<ellipse fill="#ffffff" stroke="black" cx="523.566" cy="-548" rx="39.7935" ry="18"/>
<text text-anchor="middle" x="523.566" y="-544.3" font-family="Times,serif" font-size="14.00" fill="#2c94b3">AS3549</text>
</a>
</g>
</g>
<!-- AS3356&#45;&gt;AS3549 -->
<g id="edge13" class="edge"><title>AS3356&#45;&gt;AS3549</title>
<path fill="none" stroke="black" stroke-width="2" d="M430.428,-513.371C446.169,-519.287 465.616,-526.596 482.581,-532.972"/>
<polygon fill="black" stroke="black" stroke-width="2" points="481.644,-536.359 492.236,-536.601 484.107,-529.806 481.644,-536.359"/>
</g>
<!-- AS6453 -->
<g id="node15" class="node"><title>AS6453</title>
<g id="a_node15"><a xlink:href="/asn/6453" xlink:title="AS6453 ~ TATA COMMUNICATIONS (AMERICA) INC [US]">
<ellipse fill="#ffffff" stroke="black" cx="523.566" cy="-456" rx="39.7935" ry="18"/>
<text text-anchor="middle" x="523.566" y="-452.3" font-family="Times,serif" font-size="14.00" fill="#2c94b3">AS6453</text>
</a>
</g>
</g>
<!-- AS3356&#45;&gt;AS6453 -->
<g id="edge16" class="edge"><title>AS3356&#45;&gt;AS6453</title>
<path fill="none" stroke="black" stroke-width="2" d="M430.428,-490.629C446.169,-484.713 465.616,-477.404 482.581,-471.028"/>
<polygon fill="black" stroke="black" stroke-width="2" points="484.107,-474.194 492.236,-467.399 481.644,-467.641 484.107,-474.194"/>
</g>
<!-- AS12956 -->
<g id="node16" class="node"><title>AS12956</title>
<g id="a_node16"><a xlink:href="/asn/12956" xlink:title="AS12956 ~ TELXIUS [ES]">
<ellipse fill="#ffffff" stroke="black" cx="523.566" cy="-656" rx="44.393" ry="18"/>
<text text-anchor="middle" x="523.566" y="-652.3" font-family="Times,serif" font-size="14.00" fill="#2c94b3">AS12956</text>
</a>
</g>
</g>
<!-- AS3356&#45;&gt;AS12956 -->
<g id="edge17" class="edge"><title>AS3356&#45;&gt;AS12956</title>
<path fill="none" stroke="black" d="M408.025,-519.747C420.305,-546.017 446.131,-595.726 479.37,-629 481.82,-631.452 484.531,-633.786 487.367,-635.98"/>
<polygon fill="black" stroke="black" points="485.389,-638.868 495.576,-641.779 489.428,-633.15 485.389,-638.868"/>
</g>
<!-- AS1273 -->
<g id="node17" class="node"><title>AS1273</title>
<g id="a_node17"><a xlink:href="/asn/1273" xlink:title="AS1273 ~ Vodafone Group PLC [EU]">
<ellipse fill="#ffffff" stroke="black" cx="523.566" cy="-602" rx="39.7935" ry="18"/>
<text text-anchor="middle" x="523.566" y="-598.3" font-family="Times,serif" font-size="14.00" fill="#2c94b3">AS1273</text>
</a>
</g>
</g>
<!-- AS3356&#45;&gt;AS1273 -->
<g id="edge18" class="edge"><title>AS3356&#45;&gt;AS1273</title>
<path fill="none" stroke="black" d="M416.073,-518.319C431.53,-533.772 456.029,-557.194 479.37,-575 482.693,-577.534 486.26,-580.053 489.869,-582.475"/>
<polygon fill="black" stroke="black" points="487.973,-585.417 498.269,-587.915 491.778,-579.542 487.973,-585.417"/>
</g>
<!-- AS174 -->
<g id="node9" class="node"><title>AS174</title>
<g id="a_node9"><a xlink:href="/asn/174" xlink:title="AS174 ~ Cogent Communications [US]">
<ellipse fill="#ffffff" stroke="black" cx="523.566" cy="-110" rx="35.194" ry="18"/>
<text text-anchor="middle" x="523.566" y="-106.3" font-family="Times,serif" font-size="14.00" fill="#2c94b3">AS174</text>
</a>
</g>
</g>
<!-- AS21320&#45;&gt;AS174 -->
<g id="edge25" class="edge"><title>AS21320&#45;&gt;AS174</title>
<path fill="none" stroke="black" stroke-width="4" d="M443.67,-110C454.927,-110 467.059,-110 478.353,-110"/>
<polygon fill="black" stroke="black" stroke-width="4" points="478.44,-113.5 488.44,-110 478.44,-106.5 478.44,-113.5"/>
</g>
<!-- AS2603 -->
<g id="node21" class="node"><title>AS2603</title>
<g id="a_node21"><a xlink:href="/asn/2603" xlink:title="AS2603 ~ NORDUnet [NO]">
<ellipse fill="#ffffff" stroke="black" cx="523.566" cy="-18" rx="39.7935" ry="18"/>
<text text-anchor="middle" x="523.566" y="-14.3" font-family="Times,serif" font-size="14.00" fill="#2c94b3">AS2603</text>
</a>
</g>
</g>
<!-- AS21320&#45;&gt;AS2603 -->
<g id="edge24" class="edge"><title>AS21320&#45;&gt;AS2603</title>
<path fill="none" stroke="black" d="M425.367,-95.3359C431.409,-91.5263 437.739,-87.2834 443.37,-83 460.645,-69.8593 462.627,-63.8122 479.37,-50 483.69,-46.4365 488.357,-42.7856 492.973,-39.284"/>
<polygon fill="black" stroke="black" points="495.214,-41.9784 501.137,-33.1935 491.029,-36.3676 495.214,-41.9784"/>
</g>
<!-- AS209 -->
<g id="node22" class="node"><title>AS209</title>
<g id="a_node22"><a xlink:href="/asn/209" xlink:title="AS209 ~ CenturyLink Communications, LLC [US]">
<ellipse fill="#ffffff" stroke="black" cx="399.174" cy="-56" rx="35.194" ry="18"/>
<text text-anchor="middle" x="399.174" y="-52.3" font-family="Times,serif" font-size="14.00" fill="#2c94b3">AS209</text>
</a>
</g>
</g>
<!-- AS6939&#45;&gt;AS209 -->
<g id="edge30" class="edge"><title>AS6939&#45;&gt;AS209</title>
<path fill="none" stroke="black" d="M318.592,-61.4026C329.923,-60.6334 342.422,-59.7849 354.09,-58.9927"/>
<polygon fill="black" stroke="black" points="354.341,-62.4839 364.081,-58.3145 353.866,-55.5 354.341,-62.4839"/>
</g>
<!-- AS2914&#45;&gt;AS174 -->
<g id="edge8" class="edge"><title>AS2914&#45;&gt;AS174</title>
<path fill="none" stroke="black" d="M428.253,-151.611C445.682,-143.922 468.239,-133.969 486.923,-125.726"/>
<polygon fill="black" stroke="black" points="488.556,-128.831 496.293,-121.592 485.731,-122.427 488.556,-128.831"/>
</g>
<!-- AS2914&#45;&gt;AS6762 -->
<g id="edge9" class="edge"><title>AS2914&#45;&gt;AS6762</title>
<path fill="none" stroke="black" stroke-width="2" d="M437.492,-168.622C479.812,-173.863 548.904,-182.42 595.005,-188.129"/>
<polygon fill="black" stroke="black" stroke-width="2" points="594.694,-191.617 605.048,-189.373 595.554,-184.67 594.694,-191.617"/>
</g>
<!-- AS3491 -->
<g id="node11" class="node"><title>AS3491</title>
<g id="a_node11"><a xlink:href="/asn/3491" xlink:title="AS3491 ~ PCCW Global, Inc. [US]">
<ellipse fill="#ffffff" stroke="black" cx="643.409" cy="-64" rx="39.7935" ry="18"/>
<text text-anchor="middle" x="643.409" y="-60.3" font-family="Times,serif" font-size="14.00" fill="#2c94b3">AS3491</text>
</a>
</g>
</g>
<!-- AS2914&#45;&gt;AS3491 -->
<g id="edge10" class="edge"><title>AS2914&#45;&gt;AS3491</title>
<path fill="none" stroke="black" d="M425.703,-150.538C431.866,-146.638 438.168,-142.052 443.37,-137 464.064,-116.906 454.771,-98.0619 479.37,-83 513.729,-61.9627 559.861,-58.3664 594.285,-59.3635"/>
<polygon fill="black" stroke="black" points="594.425,-62.8727 604.567,-59.8062 594.726,-55.8792 594.425,-62.8727"/>
</g>
<!-- AS701 -->
<g id="node12" class="node"><title>AS701</title>
<g id="a_node12"><a xlink:href="/asn/701" xlink:title="AS701 ~ UUNET [US]">
<ellipse fill="#ffffff" stroke="black" cx="643.409" cy="-129" rx="35.194" ry="18"/>
<text text-anchor="middle" x="643.409" y="-125.3" font-family="Times,serif" font-size="14.00" fill="#2c94b3">AS701</text>
</a>
</g>
</g>
<!-- AS2914&#45;&gt;AS701 -->
<g id="edge11" class="edge"><title>AS2914&#45;&gt;AS701</title>
<path fill="none" stroke="black" d="M437.228,-158.646C480.846,-152.344 553.166,-141.894 599.268,-135.233"/>
<polygon fill="black" stroke="black" points="599.857,-138.685 609.254,-133.79 598.856,-131.757 599.857,-138.685"/>
</g>
<!-- AS2914&#45;&gt;AS2497 -->
<g id="edge12" class="edge"><title>AS2914&#45;&gt;AS2497</title>
<path fill="none" stroke="black" stroke-width="2" d="M410.621,-181.242C419.695,-196.475 432.974,-219.407 443.37,-240 461.125,-275.168 453.536,-291.258 479.37,-321 481.835,-323.838 484.672,-326.477 487.689,-328.906"/>
<polygon fill="black" stroke="black" stroke-width="2" points="485.8,-331.858 495.968,-334.836 489.876,-326.167 485.8,-331.858"/>
</g>
<!-- AS1299&#45;&gt;AS174 -->
<g id="edge20" class="edge"><title>AS1299&#45;&gt;AS174</title>
<path fill="none" stroke="black" d="M413.505,-249.899C435.231,-222.031 478.355,-166.713 503.375,-134.617"/>
<polygon fill="black" stroke="black" points="506.233,-136.644 509.621,-126.606 500.713,-132.34 506.233,-136.644"/>
</g>
<!-- AS1299&#45;&gt;AS6453 -->
<g id="edge23" class="edge"><title>AS1299&#45;&gt;AS6453</title>
<path fill="none" stroke="black" d="M405.312,-284.94C415.215,-316.979 439.552,-384.812 479.37,-429 481.886,-431.792 484.758,-434.401 487.797,-436.812"/>
<polygon fill="black" stroke="black" points="485.926,-439.776 496.105,-442.715 489.98,-434.07 485.926,-439.776"/>
</g>
<!-- AS7018 -->
<g id="node18" class="node"><title>AS7018</title>
<g id="a_node18"><a xlink:href="/asn/7018" xlink:title="AS7018 ~ AT&amp;T Services, Inc. [US]">
<ellipse fill="#ffffff" stroke="black" cx="523.566" cy="-402" rx="39.7935" ry="18"/>
<text text-anchor="middle" x="523.566" y="-398.3" font-family="Times,serif" font-size="14.00" fill="#2c94b3">AS7018</text>
</a>
</g>
</g>
<!-- AS1299&#45;&gt;AS7018 -->
<g id="edge19" class="edge"><title>AS1299&#45;&gt;AS7018</title>
<path fill="none" stroke="black" stroke-width="2" d="M410.22,-284.671C423.791,-307.472 449.723,-347.472 479.37,-375 482.276,-377.699 485.49,-380.28 488.814,-382.703"/>
<polygon fill="black" stroke="black" stroke-width="2" points="486.949,-385.667 497.192,-388.375 490.873,-379.87 486.949,-385.667"/>
</g>
<!-- AS1239 -->
<g id="node19" class="node"><title>AS1239</title>
<g id="a_node19"><a xlink:href="/asn/1239" xlink:title="AS1239 ~ Sprint [US]">
<ellipse fill="#ffffff" stroke="black" cx="523.566" cy="-294" rx="39.7935" ry="18"/>
<text text-anchor="middle" x="523.566" y="-290.3" font-family="Times,serif" font-size="14.00" fill="#2c94b3">AS1239</text>
</a>
</g>
</g>
<!-- AS1299&#45;&gt;AS1239 -->
<g id="edge21" class="edge"><title>AS1299&#45;&gt;AS1239</title>
<path fill="none" stroke="black" d="M435.247,-274.737C448.434,-277.646 463.614,-280.995 477.58,-284.076"/>
<polygon fill="black" stroke="black" points="476.969,-287.525 487.489,-286.262 478.477,-280.69 476.969,-287.525"/>
</g>
<!-- AS3257 -->
<g id="node20" class="node"><title>AS3257</title>
<g id="a_node20"><a xlink:href="/asn/3257" xlink:title="AS3257 ~ GTT [DE]">
<ellipse fill="#ffffff" stroke="black" cx="523.566" cy="-240" rx="39.7935" ry="18"/>
<text text-anchor="middle" x="523.566" y="-236.3" font-family="Times,serif" font-size="14.00" fill="#2c94b3">AS3257</text>
</a>
</g>
</g>
<!-- AS1299&#45;&gt;AS3257 -->
<g id="edge22" class="edge"><title>AS1299&#45;&gt;AS3257</title>
<path fill="none" stroke="black" d="M435.247,-259.263C448.434,-256.354 463.614,-253.005 477.58,-249.924"/>
<polygon fill="black" stroke="black" points="478.477,-253.31 487.489,-247.738 476.969,-246.475 478.477,-253.31"/>
</g>
<!-- AS174&#45;&gt;AS6762 -->
<g id="edge27" class="edge"><title>AS174&#45;&gt;AS6762</title>
<path fill="none" stroke="black" d="M544.824,-124.44C563.564,-137.798 591.645,-157.815 612.879,-172.951"/>
<polygon fill="black" stroke="black" points="611.049,-175.945 621.224,-178.899 615.113,-170.245 611.049,-175.945"/>
</g>
<!-- AS174&#45;&gt;AS3491 -->
<g id="edge29" class="edge"><title>AS174&#45;&gt;AS3491</title>
<path fill="none" stroke="black" d="M551.898,-99.3311C567.13,-93.3851 586.362,-85.8781 603.176,-79.3146"/>
<polygon fill="black" stroke="black" points="604.706,-82.4748 612.748,-75.578 602.16,-75.954 604.706,-82.4748"/>
</g>
<!-- AS174&#45;&gt;AS701 -->
<g id="edge28" class="edge"><title>AS174&#45;&gt;AS701</title>
<path fill="none" stroke="black" d="M557.392,-115.293C570.544,-117.413 585.871,-119.884 599.86,-122.14"/>
<polygon fill="black" stroke="black" points="599.33,-125.599 609.759,-123.736 600.444,-118.689 599.33,-125.599"/>
</g>
<!-- AS2603&#45;&gt;AS3491 -->
<g id="edge26" class="edge"><title>AS2603&#45;&gt;AS3491</title>
<path fill="none" stroke="black" d="M554.303,-29.6077C569.097,-35.3825 587.174,-42.439 603.096,-48.654"/>
<polygon fill="black" stroke="black" points="602.094,-52.02 612.682,-52.396 604.639,-45.4992 602.094,-52.02"/>
</g>
</g>
</svg>
