<?xml version="1.0" encoding="UTF-8" standalone="no"?>
<!DOCTYPE svg PUBLIC "-//W3C//DTD SVG 1.1//EN"
 "http://www.w3.org/Graphics/SVG/1.1/DTD/svg11.dtd">
<!-- Generated by graphviz version 2.38.0 (20140413.2041)
 -->
<!-- Title: AS25255 IPv4 Upstream Graph Pages: 1 -->
<svg width="1028pt" height="1083pt"
 viewBox="0.00 0.00 1027.84 1082.93" xmlns="http://www.w3.org/2000/svg" xmlns:xlink="http://www.w3.org/1999/xlink">
<g id="graph0" class="graph" transform="scale(1 1) rotate(0) translate(4 1078.93)">
<title>AS25255 IPv4 Upstream Graph</title>
<polygon fill="white" stroke="none" points="-4,4 -4,-1078.93 1023.84,-1078.93 1023.84,4 -4,4"/>
<!-- AS25255 -->
<g id="node1" class="node"><title>AS25255</title>
<g id="a_node1"><a xlink:href="/asn/25255" xlink:title="AS25255 ~ ==&gt; TELE2 AUSTRIA &lt;== [AT]">
<ellipse fill="#ffffff" stroke="black" cx="44.1961" cy="-837.758" rx="44.393" ry="18"/>
<text text-anchor="middle" x="44.1961" y="-834.058" font-family="Times,serif" font-size="14.00" fill="#880000">AS25255</text>
</a>
</g>
</g>
<!-- AS1764 -->
<g id="node2" class="node"><title>AS1764</title>
<g id="a_node2"><a xlink:href="/asn/1764" xlink:title="AS1764 ~ NEXTLAYER&#45;AS [AT]">
<ellipse fill="#ffffff" stroke="black" cx="164.039" cy="-860.758" rx="39.7935" ry="18"/>
<text text-anchor="middle" x="164.039" y="-857.058" font-family="Times,serif" font-size="14.00" fill="#2c94b3">AS1764</text>
</a>
</g>
</g>
<!-- AS25255&#45;&gt;AS1764 -->
<g id="edge1" class="edge"><title>AS25255&#45;&gt;AS1764</title>
<path fill="none" stroke="black" stroke-width="4.5" d="M84.4359,-845.417C94.8881,-847.457 106.274,-849.679 117.052,-851.783"/>
<polygon fill="black" stroke="black" stroke-width="4.5" points="116.58,-855.702 127.149,-853.754 118.089,-847.973 116.58,-855.702"/>
</g>
<!-- AS3320 -->
<g id="node3" class="node"><title>AS3320</title>
<g id="a_node3"><a xlink:href="/asn/3320" xlink:title="AS3320 ~ DTAG [DE]">
<ellipse fill="#ffffff" stroke="black" cx="279.332" cy="-342.758" rx="39.7935" ry="18"/>
<text text-anchor="middle" x="279.332" y="-339.058" font-family="Times,serif" font-size="14.00" fill="#2c94b3">AS3320</text>
</a>
</g>
</g>
<!-- AS25255&#45;&gt;AS3320 -->
<g id="edge2" class="edge"><title>AS25255&#45;&gt;AS3320</title>
<path fill="none" stroke="black" stroke-width="3.375" d="M53.4935,-820.141C88.4025,-746.021 223.483,-459.215 265.67,-369.643"/>
<polygon fill="black" stroke="black" stroke-width="3.375" points="268.918,-370.96 270.012,-360.422 262.585,-367.978 268.918,-370.96"/>
</g>
<!-- AS6762 -->
<g id="node4" class="node"><title>AS6762</title>
<g id="a_node4"><a xlink:href="/asn/6762" xlink:title="AS6762 ~ TELECOM ITALIA SPARKLE S.p.A. [IT]">
<ellipse fill="#ffffff" stroke="black" cx="625.21" cy="-654.758" rx="39.7935" ry="18"/>
<text text-anchor="middle" x="625.21" y="-651.058" font-family="Times,serif" font-size="14.00" fill="#2c94b3">AS6762</text>
</a>
</g>
</g>
<!-- AS25255&#45;&gt;AS6762 -->
<g id="edge3" class="edge"><title>AS25255&#45;&gt;AS6762</title>
<path fill="none" stroke="black" stroke-width="3.375" d="M79.6821,-826.859C180.256,-795.072 473.021,-702.542 582.367,-667.983"/>
<polygon fill="black" stroke="black" stroke-width="3.375" points="583.58,-671.27 592.061,-664.919 581.471,-664.596 583.58,-671.27"/>
</g>
<!-- AS8447 -->
<g id="node5" class="node"><title>AS8447</title>
<g id="a_node5"><a xlink:href="/asn/8447" xlink:title="AS8447 ~ A1 Telekom Austria AG [AT]">
<ellipse fill="#ffffff" stroke="black" cx="279.332" cy="-1044.76" rx="39.7935" ry="18"/>
<text text-anchor="middle" x="279.332" y="-1041.06" font-family="Times,serif" font-size="14.00" fill="#2c94b3">AS8447</text>
</a>
</g>
</g>
<!-- AS25255&#45;&gt;AS8447 -->
<g id="edge4" class="edge"><title>AS25255&#45;&gt;AS8447</title>
<path fill="none" stroke="black" stroke-width="3.825" d="M61.6643,-854.463C94.3306,-887.262 170.187,-961.756 239.685,-1017.76 242.234,-1019.81 244.93,-1021.88 247.665,-1023.92"/>
<polygon fill="black" stroke="black" stroke-width="3.825" points="245.721,-1026.83 255.878,-1029.85 249.819,-1021.15 245.721,-1026.83"/>
</g>
<!-- AS1764&#45;&gt;AS3320 -->
<g id="edge8" class="edge"><title>AS1764&#45;&gt;AS3320</title>
<path fill="none" stroke="black" stroke-width="0.5625" d="M169.004,-842.626C185.88,-765.467 251.784,-464.138 272.241,-370.607"/>
<polygon fill="black" stroke="black" stroke-width="0.5625" points="275.681,-371.26 274.398,-360.743 268.842,-369.764 275.681,-371.26"/>
</g>
<!-- AS1299 -->
<g id="node6" class="node"><title>AS1299</title>
<g id="a_node6"><a xlink:href="/asn/1299" xlink:title="AS1299 ~ Telia Carrier [EU]">
<ellipse fill="#ffffff" stroke="black" cx="394.625" cy="-515.758" rx="39.7935" ry="18"/>
<text text-anchor="middle" x="394.625" y="-512.058" font-family="Times,serif" font-size="14.00" fill="#2c94b3">AS1299</text>
</a>
</g>
</g>
<!-- AS1764&#45;&gt;AS1299 -->
<g id="edge5" class="edge"><title>AS1764&#45;&gt;AS1299</title>
<path fill="none" stroke="black" stroke-width="1.125" d="M176.374,-843.65C213.543,-787.551 331.887,-608.937 376.44,-541.695"/>
<polygon fill="black" stroke="black" stroke-width="1.125" points="379.615,-543.24 382.221,-532.97 373.779,-539.373 379.615,-543.24"/>
</g>
<!-- AS8218 -->
<g id="node7" class="node"><title>AS8218</title>
<g id="a_node7"><a xlink:href="/asn/8218" xlink:title="AS8218 ~ legacy Neotelecoms [FR]">
<ellipse fill="#ffffff" stroke="black" cx="279.332" cy="-990.758" rx="39.7935" ry="18"/>
<text text-anchor="middle" x="279.332" y="-987.058" font-family="Times,serif" font-size="14.00" fill="#2c94b3">AS8218</text>
</a>
</g>
</g>
<!-- AS1764&#45;&gt;AS8218 -->
<g id="edge6" class="edge"><title>AS1764&#45;&gt;AS8218</title>
<path fill="none" stroke="black" stroke-width="0.5625" d="M176.369,-877.987C190.139,-898.328 214.652,-932.686 239.685,-958.758 242.894,-962.1 246.438,-965.435 250.039,-968.621"/>
<polygon fill="black" stroke="black" stroke-width="0.5625" points="248.018,-971.497 257.905,-975.304 252.55,-966.162 248.018,-971.497"/>
</g>
<!-- AS3356 -->
<g id="node8" class="node"><title>AS3356</title>
<g id="a_node8"><a xlink:href="/asn/3356" xlink:title="AS3356 ~ Level 3 Parent, LLC [US]">
<ellipse fill="#ffffff" stroke="black" cx="745.053" cy="-784.758" rx="39.7935" ry="18"/>
<text text-anchor="middle" x="745.053" y="-781.058" font-family="Times,serif" font-size="14.00" fill="#2c94b3">AS3356</text>
</a>
</g>
</g>
<!-- AS1764&#45;&gt;AS3356 -->
<g id="edge7" class="edge"><title>AS1764&#45;&gt;AS3356</title>
<path fill="none" stroke="black" stroke-width="4.5" d="M199.146,-869.323C266.764,-884.954 422.279,-914.17 549.564,-887.758 614.158,-874.355 680.09,-832.179 716.173,-806.138"/>
<polygon fill="black" stroke="black" stroke-width="4.5" points="718.523,-809.298 724.26,-800.21 713.867,-802.947 718.523,-809.298"/>
</g>
<!-- AS2914 -->
<g id="node9" class="node"><title>AS2914</title>
<g id="a_node9"><a xlink:href="/asn/2914" xlink:title="AS2914 ~ NTT America, Inc. [US]">
<ellipse fill="#ffffff" stroke="black" cx="509.918" cy="-860.758" rx="39.7935" ry="18"/>
<text text-anchor="middle" x="509.918" y="-857.058" font-family="Times,serif" font-size="14.00" fill="#2c94b3">AS2914</text>
</a>
</g>
</g>
<!-- AS1764&#45;&gt;AS2914 -->
<g id="edge9" class="edge"><title>AS1764&#45;&gt;AS2914</title>
<path fill="none" stroke="black" stroke-width="2.8125" d="M203.817,-860.758C266.721,-860.758 390.892,-860.758 459.849,-860.758"/>
<polygon fill="black" stroke="black" stroke-width="2.8125" points="460.017,-864.258 470.017,-860.758 460.017,-857.258 460.017,-864.258"/>
</g>
<!-- AS174 -->
<g id="node10" class="node"><title>AS174</title>
<g id="a_node10"><a xlink:href="/asn/174" xlink:title="AS174 ~ Cogent Communications [US]">
<ellipse fill="#ffffff" stroke="black" cx="864.896" cy="-321.758" rx="35.194" ry="18"/>
<text text-anchor="middle" x="864.896" y="-318.058" font-family="Times,serif" font-size="14.00" fill="#2c94b3">AS174</text>
</a>
</g>
</g>
<!-- AS1764&#45;&gt;AS174 -->
<g id="edge10" class="edge"><title>AS1764&#45;&gt;AS174</title>
<path fill="none" stroke="black" stroke-width="1.6875" d="M165.103,-842.323C165.857,-771.931 173.263,-514.079 239.685,-315.758 279.812,-195.95 267.275,-76.7582 393.625,-76.7582 393.625,-76.7582 393.625,-76.7582 626.21,-76.7582 704.722,-76.7582 733.623,-89.3521 789.249,-144.758 831.149,-186.493 850.819,-255.337 858.951,-293.709"/>
<polygon fill="black" stroke="black" stroke-width="1.6875" points="855.551,-294.558 860.947,-303.676 862.415,-293.183 855.551,-294.558"/>
</g>
<!-- AS3320&#45;&gt;AS1299 -->
<g id="edge13" class="edge"><title>AS3320&#45;&gt;AS1299</title>
<path fill="none" stroke="black" d="M291.609,-359.979C311.628,-390.549 353.465,-454.434 376.866,-490.167"/>
<polygon fill="black" stroke="black" points="373.986,-492.159 382.393,-498.608 379.842,-488.324 373.986,-492.159"/>
</g>
<!-- AS3320&#45;&gt;AS3356 -->
<g id="edge19" class="edge"><title>AS3320&#45;&gt;AS3356</title>
<path fill="none" stroke="black" stroke-width="2" d="M283.031,-360.727C289.461,-398.277 308.741,-486.253 354.978,-542.758 452.807,-662.311 626.101,-739.739 704.075,-770.158"/>
<polygon fill="black" stroke="black" stroke-width="2" points="702.954,-773.476 713.544,-773.802 705.468,-766.944 702.954,-773.476"/>
</g>
<!-- AS3320&#45;&gt;AS2914 -->
<g id="edge20" class="edge"><title>AS3320&#45;&gt;AS2914</title>
<path fill="none" stroke="black" d="M281.124,-360.945C284.727,-436.056 301.753,-721.403 354.978,-790.758 381.089,-824.782 427.525,-842.769 462.589,-851.942"/>
<polygon fill="black" stroke="black" points="462.063,-855.417 472.609,-854.408 463.736,-848.62 462.063,-855.417"/>
</g>
<!-- AS3320&#45;&gt;AS174 -->
<g id="edge18" class="edge"><title>AS3320&#45;&gt;AS174</title>
<path fill="none" stroke="black" d="M282.768,-324.805C288.498,-290.093 306.23,-213.928 354.978,-176.758 410.042,-134.774 439.673,-152.758 508.918,-152.758 508.918,-152.758 508.918,-152.758 626.21,-152.758 699.453,-152.758 729.671,-134.156 789.249,-176.758 828.527,-204.845 848.601,-259.861 857.625,-293.461"/>
<polygon fill="black" stroke="black" points="854.333,-294.72 860.178,-303.557 861.12,-293.004 854.333,-294.72"/>
</g>
<!-- AS6453 -->
<g id="node12" class="node"><title>AS6453</title>
<g id="a_node12"><a xlink:href="/asn/6453" xlink:title="AS6453 ~ TATA COMMUNICATIONS (AMERICA) INC [US]">
<ellipse fill="#ffffff" stroke="black" cx="864.896" cy="-636.758" rx="39.7935" ry="18"/>
<text text-anchor="middle" x="864.896" y="-633.058" font-family="Times,serif" font-size="14.00" fill="#2c94b3">AS6453</text>
</a>
</g>
</g>
<!-- AS3320&#45;&gt;AS6453 -->
<g id="edge12" class="edge"><title>AS3320&#45;&gt;AS6453</title>
<path fill="none" stroke="black" stroke-width="2" d="M298.275,-326.717C312.599,-314.836 333.724,-299.286 354.978,-290.758 419.243,-264.974 439.673,-266.758 508.918,-266.758 508.918,-266.758 508.918,-266.758 626.21,-266.758 676.376,-266.758 728.673,-304.998 789.249,-404.758 821.256,-457.469 805.907,-480.203 825.249,-538.758 833.261,-563.011 844.032,-589.968 852.169,-609.461"/>
<polygon fill="black" stroke="black" stroke-width="2" points="849.046,-611.064 856.155,-618.92 855.497,-608.345 849.046,-611.064"/>
</g>
<!-- AS2497 -->
<g id="node13" class="node"><title>AS2497</title>
<g id="a_node13"><a xlink:href="/asn/2497" xlink:title="AS2497 ~ Internet Initiative Japan Inc. [JP]">
<ellipse fill="#ffffff" stroke="black" cx="864.896" cy="-928.758" rx="39.7935" ry="18"/>
<text text-anchor="middle" x="864.896" y="-925.058" font-family="Times,serif" font-size="14.00" fill="#2c94b3">AS2497</text>
</a>
</g>
</g>
<!-- AS3320&#45;&gt;AS2497 -->
<g id="edge14" class="edge"><title>AS3320&#45;&gt;AS2497</title>
<path fill="none" stroke="black" d="M280.644,-360.833C282.311,-411.27 292.592,-556.232 354.978,-653.758 473.695,-839.344 590.103,-798.543 789.249,-892.758 801.893,-898.74 815.699,-905.37 827.961,-911.294"/>
<polygon fill="black" stroke="black" points="826.466,-914.459 836.992,-915.664 829.515,-908.158 826.466,-914.459"/>
</g>
<!-- AS1239 -->
<g id="node14" class="node"><title>AS1239</title>
<g id="a_node14"><a xlink:href="/asn/1239" xlink:title="AS1239 ~ Sprint [US]">
<ellipse fill="#ffffff" stroke="black" cx="980.189" cy="-321.758" rx="39.7935" ry="18"/>
<text text-anchor="middle" x="980.189" y="-318.058" font-family="Times,serif" font-size="14.00" fill="#2c94b3">AS1239</text>
</a>
</g>
</g>
<!-- AS3320&#45;&gt;AS1239 -->
<g id="edge15" class="edge"><title>AS3320&#45;&gt;AS1239</title>
<path fill="none" stroke="black" d="M281.718,-324.776C285.841,-281.872 301.313,-171.801 354.978,-100.758 404.154,-35.6586 427.332,-0.758238 508.918,-0.758238 508.918,-0.758238 508.918,-0.758238 746.053,-0.758238 818.924,-0.758238 852.953,8.70799 904.542,-42.7582 940.195,-78.3268 965.858,-229.863 975.256,-293.471"/>
<polygon fill="black" stroke="black" points="971.824,-294.194 976.722,-303.588 978.751,-293.189 971.824,-294.194"/>
</g>
<!-- AS701 -->
<g id="node15" class="node"><title>AS701</title>
<g id="a_node15"><a xlink:href="/asn/701" xlink:title="AS701 ~ UUNET [US]">
<ellipse fill="#ffffff" stroke="black" cx="864.896" cy="-690.758" rx="35.194" ry="18"/>
<text text-anchor="middle" x="864.896" y="-687.058" font-family="Times,serif" font-size="14.00" fill="#2c94b3">AS701</text>
</a>
</g>
</g>
<!-- AS3320&#45;&gt;AS701 -->
<g id="edge16" class="edge"><title>AS3320&#45;&gt;AS701</title>
<path fill="none" stroke="black" d="M316.833,-336.714C410.839,-323.449 662.716,-302.897 789.249,-437.758 858.843,-511.932 771.267,-577.555 825.249,-663.758 827.03,-666.602 829.232,-669.228 831.674,-671.632"/>
<polygon fill="black" stroke="black" points="829.615,-674.472 839.541,-678.178 834.092,-669.091 829.615,-674.472"/>
</g>
<!-- AS7018 -->
<g id="node16" class="node"><title>AS7018</title>
<g id="a_node16"><a xlink:href="/asn/7018" xlink:title="AS7018 ~ AT&amp;T Services, Inc. [US]">
<ellipse fill="#ffffff" stroke="black" cx="864.896" cy="-441.758" rx="39.7935" ry="18"/>
<text text-anchor="middle" x="864.896" y="-438.058" font-family="Times,serif" font-size="14.00" fill="#2c94b3">AS7018</text>
</a>
</g>
</g>
<!-- AS3320&#45;&gt;AS7018 -->
<g id="edge17" class="edge"><title>AS3320&#45;&gt;AS7018</title>
<path fill="none" stroke="black" d="M285.3,-324.872C294.189,-296.482 315.666,-241.581 354.978,-214.758 412.176,-175.732 439.673,-190.758 508.918,-190.758 508.918,-190.758 508.918,-190.758 626.21,-190.758 699.453,-190.758 734.536,-166.066 789.249,-214.758 835.315,-255.756 805.374,-290.381 825.249,-348.758 832.987,-371.487 843.544,-396.591 851.668,-414.982"/>
<polygon fill="black" stroke="black" points="848.509,-416.492 855.783,-424.195 854.901,-413.637 848.509,-416.492"/>
</g>
<!-- AS3491 -->
<g id="node17" class="node"><title>AS3491</title>
<g id="a_node17"><a xlink:href="/asn/3491" xlink:title="AS3491 ~ PCCW Global, Inc. [US]">
<ellipse fill="#ffffff" stroke="black" cx="980.189" cy="-782.758" rx="39.7935" ry="18"/>
<text text-anchor="middle" x="980.189" y="-779.058" font-family="Times,serif" font-size="14.00" fill="#2c94b3">AS3491</text>
</a>
</g>
</g>
<!-- AS3320&#45;&gt;AS3491 -->
<g id="edge21" class="edge"><title>AS3320&#45;&gt;AS3491</title>
<path fill="none" stroke="black" d="M281.559,-324.517C285.231,-285.302 299.622,-192.731 354.978,-145.758 408.192,-100.603 439.127,-114.758 508.918,-114.758 508.918,-114.758 508.918,-114.758 746.053,-114.758 814.397,-114.758 862.74,-196.857 904.542,-294.758 974.313,-458.162 980.035,-676.928 979.687,-754.242"/>
<polygon fill="black" stroke="black" points="976.184,-754.569 979.598,-764.599 983.184,-754.629 976.184,-754.569"/>
</g>
<!-- AS3257 -->
<g id="node18" class="node"><title>AS3257</title>
<g id="a_node18"><a xlink:href="/asn/3257" xlink:title="AS3257 ~ GTT [DE]">
<ellipse fill="#ffffff" stroke="black" cx="864.896" cy="-511.758" rx="39.7935" ry="18"/>
<text text-anchor="middle" x="864.896" y="-508.058" font-family="Times,serif" font-size="14.00" fill="#2c94b3">AS3257</text>
</a>
</g>
</g>
<!-- AS3320&#45;&gt;AS3257 -->
<g id="edge22" class="edge"><title>AS3320&#45;&gt;AS3257</title>
<path fill="none" stroke="black" d="M289.572,-325.251C301.628,-304.299 324.794,-269.901 354.978,-252.758 415.189,-218.562 439.673,-228.758 508.918,-228.758 508.918,-228.758 508.918,-228.758 626.21,-228.758 699.453,-228.758 736.969,-201.462 789.249,-252.758 858.718,-320.92 783.036,-381.065 825.249,-468.758 828.601,-475.722 833.433,-482.387 838.552,-488.303"/>
<polygon fill="black" stroke="black" points="836.219,-490.933 845.597,-495.863 841.34,-486.161 836.219,-490.933"/>
</g>
<!-- AS209 -->
<g id="node19" class="node"><title>AS209</title>
<g id="a_node19"><a xlink:href="/asn/209" xlink:title="AS209 ~ CenturyLink Communications, LLC [US]">
<ellipse fill="#ffffff" stroke="black" cx="864.896" cy="-874.758" rx="35.194" ry="18"/>
<text text-anchor="middle" x="864.896" y="-871.058" font-family="Times,serif" font-size="14.00" fill="#2c94b3">AS209</text>
</a>
</g>
</g>
<!-- AS3320&#45;&gt;AS209 -->
<g id="edge23" class="edge"><title>AS3320&#45;&gt;AS209</title>
<path fill="none" stroke="black" d="M281.926,-360.828C286.534,-404.545 303.037,-518.065 354.978,-594.758 456.741,-745.015 536.24,-735.379 700.857,-811.758 742.516,-831.087 791.901,-849.581 825.317,-861.471"/>
<polygon fill="black" stroke="black" points="824.554,-864.913 835.148,-864.943 826.884,-858.313 824.554,-864.913"/>
</g>
<!-- AS12956 -->
<g id="node20" class="node"><title>AS12956</title>
<g id="a_node20"><a xlink:href="/asn/12956" xlink:title="AS12956 ~ TELXIUS [ES]">
<ellipse fill="#ffffff" stroke="black" cx="745.053" cy="-464.758" rx="44.393" ry="18"/>
<text text-anchor="middle" x="745.053" y="-461.058" font-family="Times,serif" font-size="14.00" fill="#2c94b3">AS12956</text>
</a>
</g>
</g>
<!-- AS3320&#45;&gt;AS12956 -->
<g id="edge24" class="edge"><title>AS3320&#45;&gt;AS12956</title>
<path fill="none" stroke="black" d="M314.055,-351.63C395.798,-373.136 604.631,-428.078 697.877,-452.61"/>
<polygon fill="black" stroke="black" points="697.036,-456.008 707.597,-455.167 698.817,-449.238 697.036,-456.008"/>
</g>
<!-- AS6762&#45;&gt;AS1299 -->
<g id="edge56" class="edge"><title>AS6762&#45;&gt;AS1299</title>
<path fill="none" stroke="black" d="M600.737,-640.484C559.657,-615.504 474.67,-563.824 428.021,-535.458"/>
<polygon fill="black" stroke="black" points="429.589,-532.315 419.226,-530.11 425.952,-538.296 429.589,-532.315"/>
</g>
<!-- AS6762&#45;&gt;AS3356 -->
<g id="edge50" class="edge"><title>AS6762&#45;&gt;AS3356</title>
<path fill="none" stroke="black" stroke-width="3" d="M654.438,-667.036C658.16,-670.345 661.755,-673.994 664.857,-677.758 686.107,-703.543 678.919,-718.556 700.857,-743.758 706.583,-750.336 713.883,-756.375 720.846,-761.83"/>
<polygon fill="black" stroke="black" stroke-width="3" points="718.704,-764.598 728.751,-767.962 722.995,-759.067 718.704,-764.598"/>
</g>
<!-- AS6762&#45;&gt;AS2914 -->
<g id="edge51" class="edge"><title>AS6762&#45;&gt;AS2914</title>
<path fill="none" stroke="black" stroke-width="2" d="M617.223,-672.717C604.022,-700.607 574.502,-754.456 549.564,-799.758 543.131,-811.444 536.082,-824.22 529.786,-835.145"/>
<polygon fill="black" stroke="black" stroke-width="2" points="526.738,-833.424 524.705,-843.822 532.779,-836.962 526.738,-833.424"/>
</g>
<!-- AS6762&#45;&gt;AS174 -->
<g id="edge58" class="edge"><title>AS6762&#45;&gt;AS174</title>
<path fill="none" stroke="black" d="M632.098,-636.59C641.998,-608.758 664.536,-555.565 700.857,-524.758 732.837,-497.634 758.773,-520.562 789.249,-491.758 794.801,-486.511 833.07,-395.798 852.552,-349.085"/>
<polygon fill="black" stroke="black" points="855.904,-350.141 856.517,-339.564 849.442,-347.45 855.904,-350.141"/>
</g>
<!-- AS6762&#45;&gt;AS6453 -->
<g id="edge54" class="edge"><title>AS6762&#45;&gt;AS6453</title>
<path fill="none" stroke="black" d="M664.399,-651.866C705.426,-648.759 770.736,-643.813 815.374,-640.433"/>
<polygon fill="black" stroke="black" points="815.701,-643.918 825.408,-639.673 815.172,-636.938 815.701,-643.918"/>
</g>
<!-- AS6762&#45;&gt;AS1239 -->
<g id="edge57" class="edge"><title>AS6762&#45;&gt;AS1239</title>
<path fill="none" stroke="black" d="M658.93,-645.224C725.074,-625.322 871.236,-577.952 904.542,-538.758 952.089,-482.805 969.865,-394.944 976.091,-350.12"/>
<polygon fill="black" stroke="black" points="979.595,-350.318 977.406,-339.952 972.653,-349.421 979.595,-350.318"/>
</g>
<!-- AS6762&#45;&gt;AS701 -->
<g id="edge55" class="edge"><title>AS6762&#45;&gt;AS701</title>
<path fill="none" stroke="black" d="M663.088,-660.344C705.791,-666.811 776.021,-677.449 821.093,-684.275"/>
<polygon fill="black" stroke="black" points="820.732,-687.76 831.143,-685.798 821.78,-680.839 820.732,-687.76"/>
</g>
<!-- AS6762&#45;&gt;AS7018 -->
<g id="edge53" class="edge"><title>AS6762&#45;&gt;AS7018</title>
<path fill="none" stroke="black" d="M636.609,-637.37C649.483,-617.105 673.134,-583.728 700.857,-562.758 734.961,-536.962 754.5,-549.68 789.249,-524.758 789.451,-524.613 820.114,-490.497 842.072,-466.055"/>
<polygon fill="black" stroke="black" points="844.767,-468.292 848.846,-458.514 839.559,-463.614 844.767,-468.292"/>
</g>
<!-- AS6762&#45;&gt;AS3491 -->
<g id="edge49" class="edge"><title>AS6762&#45;&gt;AS3491</title>
<path fill="none" stroke="black" d="M654.001,-667.286C667.957,-673.42 685.188,-680.756 700.857,-686.758 790.113,-720.948 814.334,-724.168 904.542,-755.758 915.809,-759.704 927.998,-764.071 939.195,-768.122"/>
<polygon fill="black" stroke="black" points="938.137,-771.461 948.731,-771.583 940.525,-764.881 938.137,-771.461"/>
</g>
<!-- AS6762&#45;&gt;AS3257 -->
<g id="edge48" class="edge"><title>AS6762&#45;&gt;AS3257</title>
<path fill="none" stroke="black" d="M649.955,-640.475C664.562,-631.76 683.707,-620.465 700.857,-610.758 739.761,-588.738 751.101,-586.065 789.249,-562.758 804.521,-553.428 820.997,-542.292 834.575,-532.809"/>
<polygon fill="black" stroke="black" points="836.875,-535.47 843.038,-526.852 832.846,-529.746 836.875,-535.47"/>
</g>
<!-- AS6762&#45;&gt;AS12956 -->
<g id="edge52" class="edge"><title>AS6762&#45;&gt;AS12956</title>
<path fill="none" stroke="black" d="M631.554,-636.569C641.376,-605.39 664.672,-540.845 700.857,-496.758 703.951,-492.989 707.581,-489.425 711.4,-486.14"/>
<polygon fill="black" stroke="black" points="713.725,-488.764 719.393,-479.812 709.38,-483.275 713.725,-488.764"/>
</g>
<!-- AS8447&#45;&gt;AS1299 -->
<g id="edge60" class="edge"><title>AS8447&#45;&gt;AS1299</title>
<path fill="none" stroke="black" stroke-width="3.5" d="M305.926,-1031.33C310.968,-1027.58 315.704,-1023.05 318.978,-1017.76 368.831,-937.226 387.596,-637.916 392.329,-544.081"/>
<polygon fill="black" stroke="black" stroke-width="3.5" points="395.833,-544.088 392.827,-533.928 388.842,-543.745 395.833,-544.088"/>
</g>
<!-- AS8447&#45;&gt;AS3356 -->
<g id="edge59" class="edge"><title>AS8447&#45;&gt;AS3356</title>
<path fill="none" stroke="black" stroke-width="4.5" d="M318.049,-1048.77C349.456,-1051.16 395.193,-1052.42 434.271,-1044.76 542.876,-1023.47 584.362,-1026.71 664.857,-950.758 705.442,-912.464 727.522,-849.1 737.449,-812.736"/>
<polygon fill="black" stroke="black" stroke-width="4.5" points="741.325,-813.477 740.04,-802.807 733.705,-811.489 741.325,-813.477"/>
</g>
<!-- AS6461 -->
<g id="node11" class="node"><title>AS6461</title>
<g id="a_node11"><a xlink:href="/asn/6461" xlink:title="AS6461 ~ Zayo Bandwidth [US]">
<ellipse fill="#ffffff" stroke="black" cx="394.625" cy="-1017.76" rx="39.7935" ry="18"/>
<text text-anchor="middle" x="394.625" y="-1014.06" font-family="Times,serif" font-size="14.00" fill="#2c94b3">AS6461</text>
</a>
</g>
</g>
<!-- AS8447&#45;&gt;AS6461 -->
<g id="edge61" class="edge"><title>AS8447&#45;&gt;AS6461</title>
<path fill="none" stroke="black" stroke-width="0.5" d="M314.939,-1036.51C325.81,-1033.92 337.964,-1031.02 349.407,-1028.3"/>
<polygon fill="black" stroke="black" stroke-width="0.5" points="350.313,-1031.68 359.229,-1025.96 348.69,-1024.87 350.313,-1031.68"/>
</g>
<!-- AS1299&#45;&gt;AS2914 -->
<g id="edge44" class="edge"><title>AS1299&#45;&gt;AS2914</title>
<path fill="none" stroke="black" d="M401.556,-533.821C420.178,-590.528 477.56,-765.267 499.892,-833.275"/>
<polygon fill="black" stroke="black" points="496.599,-834.465 503.045,-842.874 503.25,-832.281 496.599,-834.465"/>
</g>
<!-- AS1299&#45;&gt;AS174 -->
<g id="edge43" class="edge"><title>AS1299&#45;&gt;AS174</title>
<path fill="none" stroke="black" d="M402.188,-498.066C412.557,-472.708 435.222,-426.479 470.271,-402.758 579.399,-328.901 741.752,-319.934 819.399,-320.31"/>
<polygon fill="black" stroke="black" points="819.742,-323.814 829.778,-320.42 819.816,-316.815 819.742,-323.814"/>
</g>
<!-- AS1299&#45;&gt;AS1239 -->
<g id="edge46" class="edge"><title>AS1299&#45;&gt;AS1239</title>
<path fill="none" stroke="black" d="M395.756,-497.642C397.419,-410.512 416.674,-38.7582 624.21,-38.7582 624.21,-38.7582 624.21,-38.7582 746.053,-38.7582 821.691,-38.7582 852.334,-46.0283 904.542,-100.758 956.558,-155.286 972.395,-247.311 977.166,-293.51"/>
<polygon fill="black" stroke="black" points="973.702,-294.062 978.113,-303.695 980.672,-293.414 973.702,-294.062"/>
</g>
<!-- AS1299&#45;&gt;AS7018 -->
<g id="edge42" class="edge"><title>AS1299&#45;&gt;AS7018</title>
<path fill="none" stroke="black" stroke-width="2" d="M408.166,-498.54C421.583,-481.429 444.45,-455.774 470.271,-441.758 595.281,-373.904 649.004,-392.033 789.249,-415.758 801.617,-417.851 814.67,-421.763 826.341,-425.93"/>
<polygon fill="black" stroke="black" stroke-width="2" points="825.182,-429.233 835.775,-429.455 827.633,-422.676 825.182,-429.233"/>
</g>
<!-- AS1299&#45;&gt;AS3491 -->
<g id="edge47" class="edge"><title>AS1299&#45;&gt;AS3491</title>
<path fill="none" stroke="black" d="M395.185,-533.907C394.436,-611.719 403.384,-917.577 585.564,-1014.76 710.648,-1081.48 796.382,-1106.41 904.542,-1014.76 965.743,-962.9 977.236,-860.609 979.08,-811.027"/>
<polygon fill="black" stroke="black" points="982.58,-811.094 979.346,-801.005 975.582,-810.908 982.58,-811.094"/>
</g>
<!-- AS1299&#45;&gt;AS3257 -->
<g id="edge45" class="edge"><title>AS1299&#45;&gt;AS3257</title>
<path fill="none" stroke="black" d="M419.619,-501.742C482.53,-466.925 656.542,-383.127 789.249,-437.758 795.795,-440.453 821.832,-467.07 841.326,-487.618"/>
<polygon fill="black" stroke="black" points="839.012,-490.266 848.423,-495.134 844.102,-485.46 839.012,-490.266"/>
</g>
<!-- AS8218&#45;&gt;AS6461 -->
<g id="edge11" class="edge"><title>AS8218&#45;&gt;AS6461</title>
<path fill="none" stroke="black" d="M314.939,-999.006C325.81,-1001.6 337.964,-1004.49 349.407,-1007.22"/>
<polygon fill="black" stroke="black" points="348.69,-1010.65 359.229,-1009.56 350.313,-1003.84 348.69,-1010.65"/>
</g>
<!-- AS3356&#45;&gt;AS6762 -->
<g id="edge28" class="edge"><title>AS3356&#45;&gt;AS6762</title>
<path fill="none" stroke="black" d="M713.329,-773.519C708.86,-769.984 704.534,-765.982 700.857,-761.758 678.919,-736.556 686.107,-721.543 664.857,-695.758 659.906,-689.75 653.701,-684.037 647.722,-678.762"/>
<polygon fill="black" stroke="black" points="649.672,-675.817 639.847,-671.854 645.056,-681.079 649.672,-675.817"/>
</g>
<!-- AS3356&#45;&gt;AS2914 -->
<g id="edge35" class="edge"><title>AS3356&#45;&gt;AS2914</title>
<path fill="none" stroke="black" d="M712.511,-795.041C671.112,-808.536 598.339,-832.26 552.482,-847.209"/>
<polygon fill="black" stroke="black" points="551.268,-843.923 542.845,-850.35 553.438,-850.578 551.268,-843.923"/>
</g>
<!-- AS3356&#45;&gt;AS174 -->
<g id="edge33" class="edge"><title>AS3356&#45;&gt;AS174</title>
<path fill="none" stroke="black" d="M748.708,-766.745C756.938,-712.632 783.976,-547.079 825.249,-414.758 832.398,-391.838 842.998,-366.747 851.289,-348.41"/>
<polygon fill="black" stroke="black" points="854.512,-349.778 855.502,-339.23 848.15,-346.858 854.512,-349.778"/>
</g>
<!-- AS3356&#45;&gt;AS6453 -->
<g id="edge31" class="edge"><title>AS3356&#45;&gt;AS6453</title>
<path fill="none" stroke="black" stroke-width="2" d="M754.744,-767.257C767.705,-742.319 793.956,-696.013 825.249,-663.758 827.333,-661.61 829.61,-659.525 831.982,-657.529"/>
<polygon fill="black" stroke="black" stroke-width="2" points="834.502,-660.005 840.274,-651.12 830.221,-654.467 834.502,-660.005"/>
</g>
<!-- AS3356&#45;&gt;AS2497 -->
<g id="edge26" class="edge"><title>AS3356&#45;&gt;AS2497</title>
<path fill="none" stroke="black" stroke-width="2" d="M756.704,-802.115C774.314,-830.523 809.152,-885.422 825.249,-901.758 827.349,-903.89 829.638,-905.963 832.019,-907.952"/>
<polygon fill="black" stroke="black" stroke-width="2" points="830.266,-911.019 840.325,-914.346 834.536,-905.472 830.266,-911.019"/>
</g>
<!-- AS3356&#45;&gt;AS701 -->
<g id="edge29" class="edge"><title>AS3356&#45;&gt;AS701</title>
<path fill="none" stroke="black" stroke-width="2" d="M765.512,-769.236C785.105,-753.607 815.472,-729.385 837.285,-711.985"/>
<polygon fill="black" stroke="black" stroke-width="2" points="839.551,-714.654 845.186,-705.682 835.186,-709.182 839.551,-714.654"/>
</g>
<!-- AS3356&#45;&gt;AS7018 -->
<g id="edge30" class="edge"><title>AS3356&#45;&gt;AS7018</title>
<path fill="none" stroke="black" d="M747.824,-766.777C753.187,-718.465 772.269,-582.874 825.249,-484.758 828.921,-477.958 833.881,-471.358 839.021,-465.453"/>
<polygon fill="black" stroke="black" points="841.809,-467.593 846.038,-457.879 836.674,-462.836 841.809,-467.593"/>
</g>
<!-- AS3356&#45;&gt;AS3491 -->
<g id="edge34" class="edge"><title>AS3356&#45;&gt;AS3491</title>
<path fill="none" stroke="black" d="M775.623,-796.461C790.294,-801.653 808.434,-807.167 825.249,-809.758 860.079,-815.125 869.83,-815.843 904.542,-809.758 917.056,-807.565 930.237,-803.45 941.982,-799.081"/>
<polygon fill="black" stroke="black" points="943.415,-802.279 951.464,-795.389 940.875,-795.756 943.415,-802.279"/>
</g>
<!-- AS3356&#45;&gt;AS3257 -->
<g id="edge25" class="edge"><title>AS3356&#45;&gt;AS3257</title>
<path fill="none" stroke="black" stroke-width="2" d="M753.785,-766.846C773.976,-720.07 828.379,-594.038 852.32,-538.576"/>
<polygon fill="black" stroke="black" stroke-width="2" points="855.539,-539.95 856.288,-529.382 849.112,-537.176 855.539,-539.95"/>
</g>
<!-- AS3356&#45;&gt;AS209 -->
<g id="edge32" class="edge"><title>AS3356&#45;&gt;AS209</title>
<path fill="none" stroke="black" d="M766.779,-799.963C773.925,-805.245 781.963,-811.23 789.249,-816.758 805.206,-828.865 822.914,-842.611 837.077,-853.681"/>
<polygon fill="black" stroke="black" points="834.935,-856.449 844.966,-859.857 839.25,-850.937 834.935,-856.449"/>
</g>
<!-- AS3549 -->
<g id="node21" class="node"><title>AS3549</title>
<g id="a_node21"><a xlink:href="/asn/3549" xlink:title="AS3549 ~ Level 3 Parent, LLC [US]">
<ellipse fill="#ffffff" stroke="black" cx="864.896" cy="-782.758" rx="39.7935" ry="18"/>
<text text-anchor="middle" x="864.896" y="-779.058" font-family="Times,serif" font-size="14.00" fill="#2c94b3">AS3549</text>
</a>
</g>
</g>
<!-- AS3356&#45;&gt;AS3549 -->
<g id="edge27" class="edge"><title>AS3356&#45;&gt;AS3549</title>
<path fill="none" stroke="black" stroke-width="4" d="M784.966,-784.098C794.519,-783.936 804.869,-783.76 814.831,-783.591"/>
<polygon fill="black" stroke="black" stroke-width="4" points="815.085,-787.087 825.024,-783.418 814.966,-780.088 815.085,-787.087"/>
</g>
<!-- AS2914&#45;&gt;AS6762 -->
<g id="edge39" class="edge"><title>AS2914&#45;&gt;AS6762</title>
<path fill="none" stroke="black" d="M517.218,-843.001C524.875,-826.517 538.183,-802.432 549.564,-781.758 568.883,-746.664 590.95,-706.442 606.052,-680.661"/>
<polygon fill="black" stroke="black" points="609.186,-682.238 611.282,-671.853 603.167,-678.664 609.186,-682.238"/>
</g>
<!-- AS2914&#45;&gt;AS2497 -->
<g id="edge38" class="edge"><title>AS2914&#45;&gt;AS2497</title>
<path fill="none" stroke="black" stroke-width="2" d="M546.705,-867.653C611.188,-880.075 746.778,-906.196 817.99,-919.915"/>
<polygon fill="black" stroke="black" stroke-width="2" points="817.531,-923.391 828.013,-921.846 818.856,-916.517 817.531,-923.391"/>
</g>
<!-- AS2914&#45;&gt;AS1239 -->
<g id="edge36" class="edge"><title>AS2914&#45;&gt;AS1239</title>
<path fill="none" stroke="black" d="M535.919,-874.432C550.156,-881.804 568.506,-890.621 585.564,-896.758 653.394,-921.162 850.672,-1003.66 904.542,-955.758 927.583,-935.271 966.978,-471.253 976.879,-350.35"/>
<polygon fill="black" stroke="black" points="980.394,-350.305 977.718,-340.053 973.417,-349.736 980.394,-350.305"/>
</g>
<!-- AS2914&#45;&gt;AS3491 -->
<g id="edge37" class="edge"><title>AS2914&#45;&gt;AS3491</title>
<path fill="none" stroke="black" d="M532.855,-875.619C538.888,-880.522 545.015,-886.373 549.564,-892.758 576.003,-929.872 548.11,-962.803 585.564,-988.758 643.825,-1029.13 846.506,-1029.46 904.542,-988.758 962.641,-948.016 975.704,-857.266 978.516,-811.023"/>
<polygon fill="black" stroke="black" points="982.023,-810.967 979.012,-800.808 975.031,-810.627 982.023,-810.967"/>
</g>
<!-- AS174&#45;&gt;AS1239 -->
<g id="edge41" class="edge"><title>AS174&#45;&gt;AS1239</title>
<path fill="none" stroke="black" d="M900.195,-321.758C909.572,-321.758 919.922,-321.758 929.957,-321.758"/>
<polygon fill="black" stroke="black" points="930.245,-325.258 940.245,-321.758 930.245,-318.258 930.245,-325.258"/>
</g>
<!-- AS174&#45;&gt;AS3491 -->
<g id="edge40" class="edge"><title>AS174&#45;&gt;AS3491</title>
<path fill="none" stroke="black" d="M874.348,-339.211C882.979,-357.626 896.253,-387.673 904.542,-414.758 942.425,-538.544 966.452,-691.715 975.324,-754.202"/>
<polygon fill="black" stroke="black" points="971.906,-755.033 976.758,-764.451 978.839,-754.062 971.906,-755.033"/>
</g>
</g>
</svg>
