<?xml version="1.0" encoding="UTF-8" standalone="no"?>
<!DOCTYPE svg PUBLIC "-//W3C//DTD SVG 1.1//EN"
 "http://www.w3.org/Graphics/SVG/1.1/DTD/svg11.dtd">
<!-- Generated by graphviz version 2.38.0 (20140413.2041)
 -->
<!-- Title: AS12991 IPv4 Upstream Graph Pages: 1 -->
<svg width="576pt" height="476pt"
 viewBox="0.00 0.00 575.76 476.00" xmlns="http://www.w3.org/2000/svg" xmlns:xlink="http://www.w3.org/1999/xlink">
<g id="graph0" class="graph" transform="scale(1 1) rotate(0) translate(4 472)">
<title>AS12991 IPv4 Upstream Graph</title>
<polygon fill="white" stroke="none" points="-4,4 -4,-472 571.762,-472 571.762,4 -4,4"/>
<!-- AS12991 -->
<g id="node1" class="node"><title>AS12991</title>
<g id="a_node1"><a xlink:href="/asn/12991" xlink:title="AS12991 ~ Rechenzentrum [AT]">
<ellipse fill="#ffffff" stroke="black" cx="44.1961" cy="-260" rx="44.393" ry="18"/>
<text text-anchor="middle" x="44.1961" y="-256.3" font-family="Times,serif" font-size="14.00" fill="#880000">AS12991</text>
</a>
</g>
</g>
<!-- AS1853 -->
<g id="node2" class="node"><title>AS1853</title>
<g id="a_node2"><a xlink:href="/asn/1853" xlink:title="AS1853 ~ ACOnet Backbone [AT]">
<ellipse fill="#ffffff" stroke="black" cx="168.588" cy="-301" rx="39.7935" ry="18"/>
<text text-anchor="middle" x="168.588" y="-297.3" font-family="Times,serif" font-size="14.00" fill="#2c94b3">AS1853</text>
</a>
</g>
</g>
<!-- AS12991&#45;&gt;AS1853 -->
<g id="edge1" class="edge"><title>AS12991&#45;&gt;AS1853</title>
<path fill="none" stroke="black" stroke-width="3.27273" d="M78.9643,-271.312C93.591,-276.212 110.853,-281.994 126.239,-287.148"/>
<polygon fill="black" stroke="black" stroke-width="3.27273" points="125.438,-290.571 136.032,-290.429 127.662,-283.934 125.438,-290.571"/>
</g>
<!-- AS21013 -->
<g id="node3" class="node"><title>AS21013</title>
<g id="a_node3"><a xlink:href="/asn/21013" xlink:title="AS21013 ~ Wels, AT [AT]">
<ellipse fill="#ffffff" stroke="black" cx="168.588" cy="-220" rx="44.393" ry="18"/>
<text text-anchor="middle" x="168.588" y="-216.3" font-family="Times,serif" font-size="14.00" fill="#2c94b3">AS21013</text>
</a>
</g>
</g>
<!-- AS12991&#45;&gt;AS21013 -->
<g id="edge2" class="edge"><title>AS12991&#45;&gt;AS21013</title>
<path fill="none" stroke="black" stroke-width="4.5" d="M79.2891,-248.858C93.0819,-244.35 109.177,-239.09 123.819,-234.305"/>
<polygon fill="black" stroke="black" stroke-width="4.5" points="125.396,-237.932 133.678,-231.082 122.95,-230.446 125.396,-237.932"/>
</g>
<!-- AS21320 -->
<g id="node4" class="node"><title>AS21320</title>
<g id="a_node4"><a xlink:href="/asn/21320" xlink:title="AS21320 ~ GEANT Vereniging [EU]">
<ellipse fill="#ffffff" stroke="black" cx="292.98" cy="-436" rx="44.393" ry="18"/>
<text text-anchor="middle" x="292.98" y="-432.3" font-family="Times,serif" font-size="14.00" fill="#2c94b3">AS21320</text>
</a>
</g>
</g>
<!-- AS1853&#45;&gt;AS21320 -->
<g id="edge3" class="edge"><title>AS1853&#45;&gt;AS21320</title>
<path fill="none" stroke="black" stroke-width="0.9" d="M182.697,-318.033C197.917,-337.489 224.097,-369.992 248.784,-396 254.106,-401.606 260.053,-407.391 265.791,-412.759"/>
<polygon fill="black" stroke="black" stroke-width="0.9" points="263.68,-415.572 273.409,-419.766 268.418,-410.42 263.68,-415.572"/>
</g>
<!-- AS1764 -->
<g id="node5" class="node"><title>AS1764</title>
<g id="a_node5"><a xlink:href="/asn/1764" xlink:title="AS1764 ~ NEXTLAYER&#45;AS [AT]">
<ellipse fill="#ffffff" stroke="black" cx="292.98" cy="-369" rx="39.7935" ry="18"/>
<text text-anchor="middle" x="292.98" y="-365.3" font-family="Times,serif" font-size="14.00" fill="#2c94b3">AS1764</text>
</a>
</g>
</g>
<!-- AS1853&#45;&gt;AS1764 -->
<g id="edge4" class="edge"><title>AS1853&#45;&gt;AS1764</title>
<path fill="none" stroke="black" stroke-width="1.8" d="M194.356,-314.761C212.77,-324.992 238.104,-339.066 258.349,-350.315"/>
<polygon fill="black" stroke="black" stroke-width="1.8" points="256.808,-353.462 267.249,-355.26 260.208,-347.343 256.808,-353.462"/>
</g>
<!-- AS3356 -->
<g id="node6" class="node"><title>AS3356</title>
<g id="a_node6"><a xlink:href="/asn/3356" xlink:title="AS3356 ~ Level 3 Parent, LLC [US]">
<ellipse fill="#ffffff" stroke="black" cx="292.98" cy="-288" rx="39.7935" ry="18"/>
<text text-anchor="middle" x="292.98" y="-284.3" font-family="Times,serif" font-size="14.00" fill="#2c94b3">AS3356</text>
</a>
</g>
</g>
<!-- AS1853&#45;&gt;AS3356 -->
<g id="edge5" class="edge"><title>AS1853&#45;&gt;AS3356</title>
<path fill="none" stroke="black" stroke-width="4.5" d="M207.309,-296.993C218.942,-295.758 231.909,-294.381 244.13,-293.083"/>
<polygon fill="black" stroke="black" stroke-width="4.5" points="244.646,-296.987 254.174,-292.016 243.814,-289.156 244.646,-296.987"/>
</g>
<!-- AS174 -->
<g id="node14" class="node"><title>AS174</title>
<g id="a_node14"><a xlink:href="/asn/174" xlink:title="AS174 ~ Cogent Communications [US]">
<ellipse fill="#ffffff" stroke="black" cx="292.98" cy="-126" rx="35.194" ry="18"/>
<text text-anchor="middle" x="292.98" y="-122.3" font-family="Times,serif" font-size="14.00" fill="#2c94b3">AS174</text>
</a>
</g>
</g>
<!-- AS21013&#45;&gt;AS174 -->
<g id="edge13" class="edge"><title>AS21013&#45;&gt;AS174</title>
<path fill="none" stroke="black" stroke-width="4.5" d="M187.542,-203.522C203.211,-189.46 226.817,-169.03 248.784,-153 252.501,-150.288 256.492,-147.562 260.491,-144.942"/>
<polygon fill="black" stroke="black" stroke-width="4.5" points="262.842,-148.113 269.157,-139.417 258.608,-141.472 262.842,-148.113"/>
</g>
<!-- AS3257 -->
<g id="node15" class="node"><title>AS3257</title>
<g id="a_node15"><a xlink:href="/asn/3257" xlink:title="AS3257 ~ GTT [DE]">
<ellipse fill="#ffffff" stroke="black" cx="292.98" cy="-234" rx="39.7935" ry="18"/>
<text text-anchor="middle" x="292.98" y="-230.3" font-family="Times,serif" font-size="14.00" fill="#2c94b3">AS3257</text>
</a>
</g>
</g>
<!-- AS21013&#45;&gt;AS3257 -->
<g id="edge14" class="edge"><title>AS21013&#45;&gt;AS3257</title>
<path fill="none" stroke="black" stroke-width="1.8" d="M211.366,-224.779C221.862,-225.979 233.208,-227.277 243.981,-228.51"/>
<polygon fill="black" stroke="black" stroke-width="1.8" points="243.755,-232.006 254.088,-229.666 244.55,-225.052 243.755,-232.006"/>
</g>
<!-- AS2914 -->
<g id="node16" class="node"><title>AS2914</title>
<g id="a_node16"><a xlink:href="/asn/2914" xlink:title="AS2914 ~ NTT America, Inc. [US]">
<ellipse fill="#ffffff" stroke="black" cx="292.98" cy="-180" rx="39.7935" ry="18"/>
<text text-anchor="middle" x="292.98" y="-176.3" font-family="Times,serif" font-size="14.00" fill="#2c94b3">AS2914</text>
</a>
</g>
</g>
<!-- AS21013&#45;&gt;AS2914 -->
<g id="edge15" class="edge"><title>AS21013&#45;&gt;AS2914</title>
<path fill="none" stroke="black" stroke-width="3.6" d="M203.681,-208.858C218.187,-204.117 235.239,-198.544 250.469,-193.567"/>
<polygon fill="black" stroke="black" stroke-width="3.6" points="251.752,-196.83 260.17,-190.396 249.578,-190.176 251.752,-196.83"/>
</g>
<!-- AS6461 -->
<g id="node7" class="node"><title>AS6461</title>
<g id="a_node7"><a xlink:href="/asn/6461" xlink:title="AS6461 ~ Zayo Bandwidth [US]">
<ellipse fill="#ffffff" stroke="black" cx="412.823" cy="-450" rx="39.7935" ry="18"/>
<text text-anchor="middle" x="412.823" y="-446.3" font-family="Times,serif" font-size="14.00" fill="#2c94b3">AS6461</text>
</a>
</g>
</g>
<!-- AS21320&#45;&gt;AS6461 -->
<g id="edge6" class="edge"><title>AS21320&#45;&gt;AS6461</title>
<path fill="none" stroke="black" d="M335.527,-440.936C344.773,-442.034 354.646,-443.207 364.118,-444.332"/>
<polygon fill="black" stroke="black" points="363.846,-447.825 374.189,-445.529 364.672,-440.874 363.846,-447.825"/>
</g>
<!-- AS1299 -->
<g id="node8" class="node"><title>AS1299</title>
<g id="a_node8"><a xlink:href="/asn/1299" xlink:title="AS1299 ~ Telia Carrier [EU]">
<ellipse fill="#ffffff" stroke="black" cx="412.823" cy="-396" rx="39.7935" ry="18"/>
<text text-anchor="middle" x="412.823" y="-392.3" font-family="Times,serif" font-size="14.00" fill="#2c94b3">AS1299</text>
</a>
</g>
</g>
<!-- AS1764&#45;&gt;AS1299 -->
<g id="edge7" class="edge"><title>AS1764&#45;&gt;AS1299</title>
<path fill="none" stroke="black" stroke-width="2" d="M328.7,-376.955C340.7,-379.704 354.32,-382.825 367.013,-385.733"/>
<polygon fill="black" stroke="black" stroke-width="2" points="366.415,-389.187 376.945,-388.009 367.979,-382.364 366.415,-389.187"/>
</g>
<!-- AS6762 -->
<g id="node9" class="node"><title>AS6762</title>
<g id="a_node9"><a xlink:href="/asn/6762" xlink:title="AS6762 ~ TELECOM ITALIA SPARKLE S.p.A. [IT]">
<ellipse fill="#ffffff" stroke="black" cx="412.823" cy="-180" rx="39.7935" ry="18"/>
<text text-anchor="middle" x="412.823" y="-176.3" font-family="Times,serif" font-size="14.00" fill="#2c94b3">AS6762</text>
</a>
</g>
</g>
<!-- AS3356&#45;&gt;AS6762 -->
<g id="edge8" class="edge"><title>AS3356&#45;&gt;AS6762</title>
<path fill="none" stroke="black" d="M319.509,-274.538C325.672,-270.638 331.974,-266.052 337.176,-261 357.87,-240.906 353.004,-227.617 373.176,-207 375.269,-204.861 377.553,-202.782 379.929,-200.79"/>
<polygon fill="black" stroke="black" points="382.448,-203.268 388.229,-194.389 378.173,-197.725 382.448,-203.268"/>
</g>
<!-- AS6453 -->
<g id="node10" class="node"><title>AS6453</title>
<g id="a_node10"><a xlink:href="/asn/6453" xlink:title="AS6453 ~ TATA COMMUNICATIONS (AMERICA) INC [US]">
<ellipse fill="#ffffff" stroke="black" cx="412.823" cy="-288" rx="39.7935" ry="18"/>
<text text-anchor="middle" x="412.823" y="-284.3" font-family="Times,serif" font-size="14.00" fill="#2c94b3">AS6453</text>
</a>
</g>
</g>
<!-- AS3356&#45;&gt;AS6453 -->
<g id="edge9" class="edge"><title>AS3356&#45;&gt;AS6453</title>
<path fill="none" stroke="black" d="M332.893,-288C342.446,-288 352.796,-288 362.759,-288"/>
<polygon fill="black" stroke="black" points="362.951,-291.5 372.951,-288 362.951,-284.5 362.951,-291.5"/>
</g>
<!-- AS3549 -->
<g id="node11" class="node"><title>AS3549</title>
<g id="a_node11"><a xlink:href="/asn/3549" xlink:title="AS3549 ~ Level 3 Parent, LLC [US]">
<ellipse fill="#ffffff" stroke="black" cx="412.823" cy="-342" rx="39.7935" ry="18"/>
<text text-anchor="middle" x="412.823" y="-338.3" font-family="Times,serif" font-size="14.00" fill="#2c94b3">AS3549</text>
</a>
</g>
</g>
<!-- AS3356&#45;&gt;AS3549 -->
<g id="edge10" class="edge"><title>AS3356&#45;&gt;AS3549</title>
<path fill="none" stroke="black" d="M321.609,-300.661C337.566,-307.973 357.837,-317.261 375.119,-325.181"/>
<polygon fill="black" stroke="black" points="373.818,-328.435 384.367,-329.419 376.734,-322.071 373.818,-328.435"/>
</g>
<!-- AS2497 -->
<g id="node12" class="node"><title>AS2497</title>
<g id="a_node12"><a xlink:href="/asn/2497" xlink:title="AS2497 ~ Internet Initiative Japan Inc. [JP]">
<ellipse fill="#ffffff" stroke="black" cx="412.823" cy="-234" rx="39.7935" ry="18"/>
<text text-anchor="middle" x="412.823" y="-230.3" font-family="Times,serif" font-size="14.00" fill="#2c94b3">AS2497</text>
</a>
</g>
</g>
<!-- AS3356&#45;&gt;AS2497 -->
<g id="edge11" class="edge"><title>AS3356&#45;&gt;AS2497</title>
<path fill="none" stroke="black" d="M321.609,-275.339C337.566,-268.027 357.837,-258.739 375.119,-250.819"/>
<polygon fill="black" stroke="black" points="376.734,-253.929 384.367,-246.581 373.818,-247.565 376.734,-253.929"/>
</g>
<!-- AS7018 -->
<g id="node13" class="node"><title>AS7018</title>
<g id="a_node13"><a xlink:href="/asn/7018" xlink:title="AS7018 ~ AT&amp;T Services, Inc. [US]">
<ellipse fill="#ffffff" stroke="black" cx="528.116" cy="-396" rx="39.7935" ry="18"/>
<text text-anchor="middle" x="528.116" y="-392.3" font-family="Times,serif" font-size="14.00" fill="#2c94b3">AS7018</text>
</a>
</g>
</g>
<!-- AS1299&#45;&gt;AS7018 -->
<g id="edge12" class="edge"><title>AS1299&#45;&gt;AS7018</title>
<path fill="none" stroke="black" d="M452.495,-396C460.698,-396 469.462,-396 477.994,-396"/>
<polygon fill="black" stroke="black" points="478.233,-399.5 488.233,-396 478.233,-392.5 478.233,-399.5"/>
</g>
<!-- AS174&#45;&gt;AS6762 -->
<g id="edge19" class="edge"><title>AS174&#45;&gt;AS6762</title>
<path fill="none" stroke="black" d="M319.841,-137.851C335.962,-145.238 356.964,-154.862 374.83,-163.048"/>
<polygon fill="black" stroke="black" points="373.832,-166.441 384.381,-167.425 376.748,-160.077 373.832,-166.441"/>
</g>
<!-- AS701 -->
<g id="node17" class="node"><title>AS701</title>
<g id="a_node17"><a xlink:href="/asn/701" xlink:title="AS701 ~ UUNET [US]">
<ellipse fill="#ffffff" stroke="black" cx="412.823" cy="-72" rx="35.194" ry="18"/>
<text text-anchor="middle" x="412.823" y="-68.3" font-family="Times,serif" font-size="14.00" fill="#2c94b3">AS701</text>
</a>
</g>
</g>
<!-- AS174&#45;&gt;AS701 -->
<g id="edge16" class="edge"><title>AS174&#45;&gt;AS701</title>
<path fill="none" stroke="black" d="M319.841,-114.149C336.573,-106.482 358.563,-96.4057 376.847,-88.0276"/>
<polygon fill="black" stroke="black" points="378.389,-91.1706 386.022,-83.8229 375.473,-84.8069 378.389,-91.1706"/>
</g>
<!-- AS3491 -->
<g id="node18" class="node"><title>AS3491</title>
<g id="a_node18"><a xlink:href="/asn/3491" xlink:title="AS3491 ~ PCCW Global, Inc. [US]">
<ellipse fill="#ffffff" stroke="black" cx="412.823" cy="-18" rx="39.7935" ry="18"/>
<text text-anchor="middle" x="412.823" y="-14.3" font-family="Times,serif" font-size="14.00" fill="#2c94b3">AS3491</text>
</a>
</g>
</g>
<!-- AS174&#45;&gt;AS3491 -->
<g id="edge17" class="edge"><title>AS174&#45;&gt;AS3491</title>
<path fill="none" stroke="black" d="M308.342,-109.591C323.616,-92.5677 348.875,-65.604 373.176,-45 375.674,-42.8828 378.334,-40.7681 381.045,-38.7067"/>
<polygon fill="black" stroke="black" points="383.212,-41.4588 389.222,-32.7336 379.082,-35.8064 383.212,-41.4588"/>
</g>
<!-- AS1239 -->
<g id="node19" class="node"><title>AS1239</title>
<g id="a_node19"><a xlink:href="/asn/1239" xlink:title="AS1239 ~ Sprint [US]">
<ellipse fill="#ffffff" stroke="black" cx="412.823" cy="-126" rx="39.7935" ry="18"/>
<text text-anchor="middle" x="412.823" y="-122.3" font-family="Times,serif" font-size="14.00" fill="#2c94b3">AS1239</text>
</a>
</g>
</g>
<!-- AS174&#45;&gt;AS1239 -->
<g id="edge18" class="edge"><title>AS174&#45;&gt;AS1239</title>
<path fill="none" stroke="black" d="M328.382,-126C339.206,-126 351.374,-126 363.001,-126"/>
<polygon fill="black" stroke="black" points="363.032,-129.5 373.032,-126 363.032,-122.5 363.032,-129.5"/>
</g>
<!-- AS3257&#45;&gt;AS2497 -->
<g id="edge20" class="edge"><title>AS3257&#45;&gt;AS2497</title>
<path fill="none" stroke="black" d="M332.893,-234C342.446,-234 352.796,-234 362.759,-234"/>
<polygon fill="black" stroke="black" points="362.951,-237.5 372.951,-234 362.951,-230.5 362.951,-237.5"/>
</g>
<!-- AS2914&#45;&gt;AS6762 -->
<g id="edge23" class="edge"><title>AS2914&#45;&gt;AS6762</title>
<path fill="none" stroke="black" d="M332.893,-180C342.446,-180 352.796,-180 362.759,-180"/>
<polygon fill="black" stroke="black" points="362.951,-183.5 372.951,-180 362.951,-176.5 362.951,-183.5"/>
</g>
<!-- AS2914&#45;&gt;AS2497 -->
<g id="edge21" class="edge"><title>AS2914&#45;&gt;AS2497</title>
<path fill="none" stroke="black" d="M321.609,-192.661C337.566,-199.973 357.837,-209.261 375.119,-217.181"/>
<polygon fill="black" stroke="black" points="373.818,-220.435 384.367,-221.419 376.734,-214.071 373.818,-220.435"/>
</g>
<!-- AS2914&#45;&gt;AS1239 -->
<g id="edge22" class="edge"><title>AS2914&#45;&gt;AS1239</title>
<path fill="none" stroke="black" d="M321.609,-167.339C337.566,-160.027 357.837,-150.739 375.119,-142.819"/>
<polygon fill="black" stroke="black" points="376.734,-145.929 384.367,-138.581 373.818,-139.565 376.734,-145.929"/>
</g>
</g>
</svg>
