<?xml version="1.0" encoding="UTF-8" standalone="no"?>
<!DOCTYPE svg PUBLIC "-//W3C//DTD SVG 1.1//EN"
 "http://www.w3.org/Graphics/SVG/1.1/DTD/svg11.dtd">
<!-- Generated by graphviz version 2.38.0 (20140413.2041)
 -->
<!-- Title: AS203501 IPv4 Upstream Graph Pages: 1 -->
<svg width="707pt" height="786pt"
 viewBox="0.00 0.00 706.65 786.00" xmlns="http://www.w3.org/2000/svg" xmlns:xlink="http://www.w3.org/1999/xlink">
<g id="graph0" class="graph" transform="scale(1 1) rotate(0) translate(4 782)">
<title>AS203501 IPv4 Upstream Graph</title>
<polygon fill="white" stroke="none" points="-4,4 -4,-782 702.654,-782 702.654,4 -4,4"/>
<!-- AS203501 -->
<g id="node1" class="node"><title>AS203501</title>
<g id="a_node1"><a xlink:href="/asn/203501" xlink:title="AS203501 ~ Emarsys North America, Inc [AT]">
<ellipse fill="#ffffff" stroke="black" cx="48.0957" cy="-349" rx="48.1917" ry="18"/>
<text text-anchor="middle" x="48.0957" y="-345.3" font-family="Times,serif" font-size="14.00" fill="#880000">AS203501</text>
</a>
</g>
</g>
<!-- AS1299 -->
<g id="node2" class="node"><title>AS1299</title>
<g id="a_node2"><a xlink:href="/asn/1299" xlink:title="AS1299 ~ Telia Carrier [EU]">
<ellipse fill="#ffffff" stroke="black" cx="419.322" cy="-347" rx="39.7935" ry="18"/>
<text text-anchor="middle" x="419.322" y="-343.3" font-family="Times,serif" font-size="14.00" fill="#2c94b3">AS1299</text>
</a>
</g>
</g>
<!-- AS203501&#45;&gt;AS1299 -->
<g id="edge1" class="edge"><title>AS203501&#45;&gt;AS1299</title>
<path fill="none" stroke="black" stroke-width="2.17241" d="M96.2336,-348.745C166.555,-348.364 298.27,-347.65 369.536,-347.264"/>
<polygon fill="black" stroke="black" stroke-width="2.17241" points="369.617,-350.764 379.598,-347.21 369.579,-343.764 369.617,-350.764"/>
</g>
<!-- AS6461 -->
<g id="node3" class="node"><title>AS6461</title>
<g id="a_node3"><a xlink:href="/asn/6461" xlink:title="AS6461 ~ Zayo Bandwidth [US]">
<ellipse fill="#ffffff" stroke="black" cx="419.322" cy="-485" rx="39.7935" ry="18"/>
<text text-anchor="middle" x="419.322" y="-481.3" font-family="Times,serif" font-size="14.00" fill="#2c94b3">AS6461</text>
</a>
</g>
</g>
<!-- AS203501&#45;&gt;AS6461 -->
<g id="edge2" class="edge"><title>AS203501&#45;&gt;AS6461</title>
<path fill="none" stroke="black" stroke-width="2.01724" d="M83.1699,-361.551C151.543,-386.735 305.156,-443.317 378.23,-470.233"/>
<polygon fill="black" stroke="black" stroke-width="2.01724" points="377.396,-473.655 387.989,-473.827 379.815,-467.087 377.396,-473.655"/>
</g>
<!-- AS199236 -->
<g id="node4" class="node"><title>AS199236</title>
<g id="a_node4"><a xlink:href="/asn/199236" xlink:title="AS199236 ~ Emarsys eMarketing Systems AG [AT]">
<ellipse fill="#ffffff" stroke="black" cx="180.287" cy="-303" rx="48.1917" ry="18"/>
<text text-anchor="middle" x="180.287" y="-299.3" font-family="Times,serif" font-size="14.00" fill="#2c94b3">AS199236</text>
</a>
</g>
</g>
<!-- AS203501&#45;&gt;AS199236 -->
<g id="edge3" class="edge"><title>AS203501&#45;&gt;AS199236</title>
<path fill="none" stroke="black" stroke-width="4.5" d="M83.6428,-336.794C99.386,-331.231 118.212,-324.579 134.982,-318.654"/>
<polygon fill="black" stroke="black" stroke-width="4.5" points="136.462,-322.307 144.579,-315.263 133.838,-314.882 136.462,-322.307"/>
</g>
<!-- AS2497 -->
<g id="node5" class="node"><title>AS2497</title>
<g id="a_node5"><a xlink:href="/asn/2497" xlink:title="AS2497 ~ Internet Initiative Japan Inc. [JP]">
<ellipse fill="#ffffff" stroke="black" cx="659.007" cy="-210" rx="39.7935" ry="18"/>
<text text-anchor="middle" x="659.007" y="-206.3" font-family="Times,serif" font-size="14.00" fill="#2c94b3">AS2497</text>
</a>
</g>
</g>
<!-- AS1299&#45;&gt;AS2497 -->
<g id="edge4" class="edge"><title>AS1299&#45;&gt;AS2497</title>
<path fill="none" stroke="black" d="M433.539,-330.019C447.317,-313.296 470.311,-287.999 494.969,-272 532.079,-247.921 579.924,-231.134 614.17,-221.158"/>
<polygon fill="black" stroke="black" points="615.225,-224.497 623.891,-218.402 613.315,-217.762 615.225,-224.497"/>
</g>
<!-- AS3356 -->
<g id="node6" class="node"><title>AS3356</title>
<g id="a_node6"><a xlink:href="/asn/3356" xlink:title="AS3356 ~ Level 3 Parent, LLC [US]">
<ellipse fill="#ffffff" stroke="black" cx="539.165" cy="-332" rx="39.7935" ry="18"/>
<text text-anchor="middle" x="539.165" y="-328.3" font-family="Times,serif" font-size="14.00" fill="#2c94b3">AS3356</text>
</a>
</g>
</g>
<!-- AS1299&#45;&gt;AS3356 -->
<g id="edge5" class="edge"><title>AS1299&#45;&gt;AS3356</title>
<path fill="none" stroke="black" stroke-width="3" d="M457.608,-342.254C468.14,-340.913 479.743,-339.436 490.783,-338.031"/>
<polygon fill="black" stroke="black" stroke-width="3" points="491.239,-341.501 500.717,-336.767 490.355,-334.558 491.239,-341.501"/>
</g>
<!-- AS174 -->
<g id="node7" class="node"><title>AS174</title>
<g id="a_node7"><a xlink:href="/asn/174" xlink:title="AS174 ~ Cogent Communications [US]">
<ellipse fill="#ffffff" stroke="black" cx="539.165" cy="-18" rx="35.194" ry="18"/>
<text text-anchor="middle" x="539.165" y="-14.3" font-family="Times,serif" font-size="14.00" fill="#2c94b3">AS174</text>
</a>
</g>
</g>
<!-- AS1299&#45;&gt;AS174 -->
<g id="edge6" class="edge"><title>AS1299&#45;&gt;AS174</title>
<path fill="none" stroke="black" d="M420.739,-328.932C422.681,-279.865 433.617,-141.686 494.969,-50 498.083,-45.346 502.11,-41.1158 506.452,-37.3664"/>
<polygon fill="black" stroke="black" points="508.715,-40.0406 514.475,-31.1488 504.427,-34.5073 508.715,-40.0406"/>
</g>
<!-- AS2914 -->
<g id="node8" class="node"><title>AS2914</title>
<g id="a_node8"><a xlink:href="/asn/2914" xlink:title="AS2914 ~ NTT America, Inc. [US]">
<ellipse fill="#ffffff" stroke="black" cx="539.165" cy="-164" rx="39.7935" ry="18"/>
<text text-anchor="middle" x="539.165" y="-160.3" font-family="Times,serif" font-size="14.00" fill="#2c94b3">AS2914</text>
</a>
</g>
</g>
<!-- AS1299&#45;&gt;AS2914 -->
<g id="edge7" class="edge"><title>AS1299&#45;&gt;AS2914</title>
<path fill="none" stroke="black" d="M426.025,-329.149C436.235,-299.191 459.9,-237.961 494.969,-196 498.324,-191.985 502.282,-188.194 506.416,-184.721"/>
<polygon fill="black" stroke="black" points="508.725,-187.36 514.475,-178.46 504.431,-181.832 508.725,-187.36"/>
</g>
<!-- AS7018 -->
<g id="node9" class="node"><title>AS7018</title>
<g id="a_node9"><a xlink:href="/asn/7018" xlink:title="AS7018 ~ AT&amp;T Services, Inc. [US]">
<ellipse fill="#ffffff" stroke="black" cx="539.165" cy="-554" rx="39.7935" ry="18"/>
<text text-anchor="middle" x="539.165" y="-550.3" font-family="Times,serif" font-size="14.00" fill="#2c94b3">AS7018</text>
</a>
</g>
</g>
<!-- AS1299&#45;&gt;AS7018 -->
<g id="edge8" class="edge"><title>AS1299&#45;&gt;AS7018</title>
<path fill="none" stroke="black" stroke-width="2" d="M445.594,-360.639C450.652,-364.381 455.477,-368.852 458.969,-374 498.184,-431.811 454.287,-470.211 494.969,-527 496.977,-529.804 499.377,-532.38 502.001,-534.733"/>
<polygon fill="black" stroke="black" stroke-width="2" points="500.308,-537.844 510.382,-541.126 504.553,-532.278 500.308,-537.844"/>
</g>
<!-- AS1239 -->
<g id="node10" class="node"><title>AS1239</title>
<g id="a_node10"><a xlink:href="/asn/1239" xlink:title="AS1239 ~ Sprint [US]">
<ellipse fill="#ffffff" stroke="black" cx="659.007" cy="-676" rx="39.7935" ry="18"/>
<text text-anchor="middle" x="659.007" y="-672.3" font-family="Times,serif" font-size="14.00" fill="#2c94b3">AS1239</text>
</a>
</g>
</g>
<!-- AS1299&#45;&gt;AS1239 -->
<g id="edge9" class="edge"><title>AS1299&#45;&gt;AS1239</title>
<path fill="none" stroke="black" d="M442.89,-361.774C448.295,-365.58 453.951,-369.794 458.969,-374 476.31,-388.536 477.696,-395.383 494.969,-410 531.795,-441.164 554.09,-434.653 583.361,-473 624.651,-527.092 644.89,-606.33 653.19,-648.004"/>
<polygon fill="black" stroke="black" points="649.783,-648.824 655.093,-657.992 656.66,-647.514 649.783,-648.824"/>
</g>
<!-- AS6762 -->
<g id="node11" class="node"><title>AS6762</title>
<g id="a_node11"><a xlink:href="/asn/6762" xlink:title="AS6762 ~ TELECOM ITALIA SPARKLE S.p.A. [IT]">
<ellipse fill="#ffffff" stroke="black" cx="659.007" cy="-436" rx="39.7935" ry="18"/>
<text text-anchor="middle" x="659.007" y="-432.3" font-family="Times,serif" font-size="14.00" fill="#2c94b3">AS6762</text>
</a>
</g>
</g>
<!-- AS1299&#45;&gt;AS6762 -->
<g id="edge10" class="edge"><title>AS1299&#45;&gt;AS6762</title>
<path fill="none" stroke="black" d="M447.737,-359.791C461.747,-366.156 479.138,-373.795 494.969,-380 535.625,-395.935 582.899,-411.897 616.04,-422.679"/>
<polygon fill="black" stroke="black" points="615.257,-426.104 625.849,-425.853 617.412,-419.444 615.257,-426.104"/>
</g>
<!-- AS6453 -->
<g id="node12" class="node"><title>AS6453</title>
<g id="a_node12"><a xlink:href="/asn/6453" xlink:title="AS6453 ~ TATA COMMUNICATIONS (AMERICA) INC [US]">
<ellipse fill="#ffffff" stroke="black" cx="659.007" cy="-382" rx="39.7935" ry="18"/>
<text text-anchor="middle" x="659.007" y="-378.3" font-family="Times,serif" font-size="14.00" fill="#2c94b3">AS6453</text>
</a>
</g>
</g>
<!-- AS1299&#45;&gt;AS6453 -->
<g id="edge11" class="edge"><title>AS1299&#45;&gt;AS6453</title>
<path fill="none" stroke="black" d="M456.749,-353C468.897,-354.962 482.509,-357.12 494.969,-359 533.864,-364.869 578.053,-371.074 610.606,-375.558"/>
<polygon fill="black" stroke="black" points="610.361,-379.058 620.745,-376.951 611.314,-372.123 610.361,-379.058"/>
</g>
<!-- AS3257 -->
<g id="node13" class="node"><title>AS3257</title>
<g id="a_node13"><a xlink:href="/asn/3257" xlink:title="AS3257 ~ GTT [DE]">
<ellipse fill="#ffffff" stroke="black" cx="539.165" cy="-110" rx="39.7935" ry="18"/>
<text text-anchor="middle" x="539.165" y="-106.3" font-family="Times,serif" font-size="14.00" fill="#2c94b3">AS3257</text>
</a>
</g>
</g>
<!-- AS1299&#45;&gt;AS3257 -->
<g id="edge12" class="edge"><title>AS1299&#45;&gt;AS3257</title>
<path fill="none" stroke="black" d="M422.647,-329.038C428.479,-290.155 446.863,-196.874 494.969,-137 497.323,-134.07 500.086,-131.369 503.057,-128.901"/>
<polygon fill="black" stroke="black" points="505.249,-131.634 511.271,-122.917 501.127,-125.976 505.249,-131.634"/>
</g>
<!-- AS3491 -->
<g id="node14" class="node"><title>AS3491</title>
<g id="a_node14"><a xlink:href="/asn/3491" xlink:title="AS3491 ~ PCCW Global, Inc. [US]">
<ellipse fill="#ffffff" stroke="black" cx="659.007" cy="-133" rx="39.7935" ry="18"/>
<text text-anchor="middle" x="659.007" y="-129.3" font-family="Times,serif" font-size="14.00" fill="#2c94b3">AS3491</text>
</a>
</g>
</g>
<!-- AS1299&#45;&gt;AS3491 -->
<g id="edge13" class="edge"><title>AS1299&#45;&gt;AS3491</title>
<path fill="none" stroke="black" d="M422.611,-328.984C429.936,-274.519 454.703,-113.459 494.969,-83 536,-51.9619 596.451,-86.0999 631.051,-111.232"/>
<polygon fill="black" stroke="black" points="629.161,-114.189 639.263,-117.383 633.357,-108.586 629.161,-114.189"/>
</g>
<!-- AS12956 -->
<g id="node15" class="node"><title>AS12956</title>
<g id="a_node15"><a xlink:href="/asn/12956" xlink:title="AS12956 ~ TELXIUS [ES]">
<ellipse fill="#ffffff" stroke="black" cx="539.165" cy="-500" rx="44.393" ry="18"/>
<text text-anchor="middle" x="539.165" y="-496.3" font-family="Times,serif" font-size="14.00" fill="#2c94b3">AS12956</text>
</a>
</g>
</g>
<!-- AS1299&#45;&gt;AS12956 -->
<g id="edge14" class="edge"><title>AS1299&#45;&gt;AS12956</title>
<path fill="none" stroke="black" d="M445.092,-361.005C450.176,-364.728 455.139,-369.099 458.969,-374 486.517,-409.249 467.913,-432.372 494.969,-468 497.918,-471.884 501.463,-475.515 505.237,-478.835"/>
<polygon fill="black" stroke="black" points="503.194,-481.683 513.19,-485.195 507.566,-476.216 503.194,-481.683"/>
</g>
<!-- AS6461&#45;&gt;AS2497 -->
<g id="edge27" class="edge"><title>AS6461&#45;&gt;AS2497</title>
<path fill="none" stroke="black" stroke-width="2" d="M434.006,-467.884C442.178,-456.985 452.243,-442.277 458.969,-428 483.244,-376.472 458.214,-348.515 494.969,-305 523.159,-271.625 545.681,-284.108 583.361,-262 599.005,-252.821 615.636,-241.413 629.219,-231.622"/>
<polygon fill="black" stroke="black" stroke-width="2" points="631.648,-234.183 637.665,-225.462 627.523,-228.527 631.648,-234.183"/>
</g>
<!-- AS6461&#45;&gt;AS3356 -->
<g id="edge24" class="edge"><title>AS6461&#45;&gt;AS3356</title>
<path fill="none" stroke="black" stroke-width="2" d="M433.384,-468.042C454.089,-441.159 494.567,-388.606 518.701,-357.271"/>
<polygon fill="black" stroke="black" stroke-width="2" points="521.716,-359.092 525.045,-349.034 516.17,-354.821 521.716,-359.092"/>
</g>
<!-- AS6461&#45;&gt;AS2914 -->
<g id="edge21" class="edge"><title>AS6461&#45;&gt;AS2914</title>
<path fill="none" stroke="black" d="M434.521,-468.111C442.886,-457.297 452.974,-442.599 458.969,-428 492.281,-346.879 463.406,-315.817 494.969,-234 501.066,-218.195 510.788,-202.007 519.466,-189.185"/>
<polygon fill="black" stroke="black" points="522.4,-191.096 525.249,-180.891 516.658,-187.092 522.4,-191.096"/>
</g>
<!-- AS6461&#45;&gt;AS7018 -->
<g id="edge31" class="edge"><title>AS6461&#45;&gt;AS7018</title>
<path fill="none" stroke="black" d="M444.454,-499.13C462.009,-509.409 485.984,-523.447 505.289,-534.75"/>
<polygon fill="black" stroke="black" points="503.668,-537.857 514.066,-539.889 507.205,-531.816 503.668,-537.857"/>
</g>
<!-- AS6461&#45;&gt;AS1239 -->
<g id="edge29" class="edge"><title>AS6461&#45;&gt;AS1239</title>
<path fill="none" stroke="black" stroke-width="2" d="M424.124,-503.11C431.757,-534.852 452.028,-600.438 494.969,-635 527.355,-661.067 574.176,-670.819 609.342,-674.342"/>
<polygon fill="black" stroke="black" stroke-width="2" points="609.126,-677.836 619.391,-675.213 609.73,-670.862 609.126,-677.836"/>
</g>
<!-- AS6461&#45;&gt;AS6762 -->
<g id="edge20" class="edge"><title>AS6461&#45;&gt;AS6762</title>
<path fill="none" stroke="black" stroke-width="2" d="M424.662,-503.268C432.763,-532.753 453.277,-589.957 494.969,-614 529.001,-633.626 550.649,-635.754 583.361,-614 633.822,-580.443 650.24,-505.472 655.531,-464.343"/>
<polygon fill="black" stroke="black" stroke-width="2" points="659.034,-464.515 656.7,-454.181 652.08,-463.716 659.034,-464.515"/>
</g>
<!-- AS6461&#45;&gt;AS6453 -->
<g id="edge28" class="edge"><title>AS6461&#45;&gt;AS6453</title>
<path fill="none" stroke="black" stroke-width="2" d="M428.045,-502.875C439.084,-525.866 461.78,-564.765 494.969,-581 530.258,-598.262 552.869,-605.771 583.361,-581 643.98,-531.755 576.321,-474.172 619.361,-409 620.968,-406.567 622.876,-404.288 624.97,-402.168"/>
<polygon fill="black" stroke="black" stroke-width="2" points="627.338,-404.748 632.641,-395.575 622.776,-399.439 627.338,-404.748"/>
</g>
<!-- AS6461&#45;&gt;AS3257 -->
<g id="edge25" class="edge"><title>AS6461&#45;&gt;AS3257</title>
<path fill="none" stroke="black" d="M434.833,-468.234C443.316,-457.466 453.417,-442.773 458.969,-428 504.81,-306.009 424.906,-246.883 494.969,-137 496.823,-134.092 499.115,-131.443 501.668,-129.042"/>
<polygon fill="black" stroke="black" points="504.217,-131.492 509.934,-122.572 499.903,-125.98 504.217,-131.492"/>
</g>
<!-- AS6461&#45;&gt;AS3491 -->
<g id="edge22" class="edge"><title>AS6461&#45;&gt;AS3491</title>
<path fill="none" stroke="black" stroke-width="2" d="M434.367,-468.046C442.674,-457.208 452.755,-442.507 458.969,-428 488.693,-358.605 455.028,-326.062 494.969,-262 497.21,-258.405 583.914,-190.654 629.944,-154.817"/>
<polygon fill="black" stroke="black" stroke-width="2" points="632.294,-157.423 638.036,-148.519 627.995,-151.899 632.294,-157.423"/>
</g>
<!-- AS6461&#45;&gt;AS12956 -->
<g id="edge30" class="edge"><title>AS6461&#45;&gt;AS12956</title>
<path fill="none" stroke="black" stroke-width="2" d="M457.608,-489.746C466.817,-490.918 476.844,-492.195 486.598,-493.436"/>
<polygon fill="black" stroke="black" stroke-width="2" points="486.256,-496.921 496.618,-494.712 487.14,-489.977 486.256,-496.921"/>
</g>
<!-- AS701 -->
<g id="node18" class="node"><title>AS701</title>
<g id="a_node18"><a xlink:href="/asn/701" xlink:title="AS701 ~ UUNET [US]">
<ellipse fill="#ffffff" stroke="black" cx="659.007" cy="-745" rx="35.194" ry="18"/>
<text text-anchor="middle" x="659.007" y="-741.3" font-family="Times,serif" font-size="14.00" fill="#2c94b3">AS701</text>
</a>
</g>
</g>
<!-- AS6461&#45;&gt;AS701 -->
<g id="edge23" class="edge"><title>AS6461&#45;&gt;AS701</title>
<path fill="none" stroke="black" stroke-width="2" d="M423.329,-502.986C430.103,-538.393 449.645,-617.869 494.969,-666 528.279,-701.373 580.754,-722.821 617.137,-734.27"/>
<polygon fill="black" stroke="black" stroke-width="2" points="616.357,-737.691 626.942,-737.238 618.385,-730.991 616.357,-737.691"/>
</g>
<!-- AS3320 -->
<g id="node19" class="node"><title>AS3320</title>
<g id="a_node19"><a xlink:href="/asn/3320" xlink:title="AS3320 ~ DTAG [DE]">
<ellipse fill="#ffffff" stroke="black" cx="539.165" cy="-760" rx="39.7935" ry="18"/>
<text text-anchor="middle" x="539.165" y="-756.3" font-family="Times,serif" font-size="14.00" fill="#2c94b3">AS3320</text>
</a>
</g>
</g>
<!-- AS6461&#45;&gt;AS3320 -->
<g id="edge26" class="edge"><title>AS6461&#45;&gt;AS3320</title>
<path fill="none" stroke="black" stroke-width="2" d="M424.334,-503.114C435.594,-552.871 468.4,-690.438 494.969,-728 497.99,-732.272 501.76,-736.207 505.805,-739.749"/>
<polygon fill="black" stroke="black" stroke-width="2" points="503.782,-742.611 513.8,-746.059 508.119,-737.116 503.782,-742.611"/>
</g>
<!-- AS8218 -->
<g id="node20" class="node"><title>AS8218</title>
<g id="a_node20"><a xlink:href="/asn/8218" xlink:title="AS8218 ~ legacy Neotelecoms [FR]">
<ellipse fill="#ffffff" stroke="black" cx="304.029" cy="-399" rx="39.7935" ry="18"/>
<text text-anchor="middle" x="304.029" y="-395.3" font-family="Times,serif" font-size="14.00" fill="#2c94b3">AS8218</text>
</a>
</g>
</g>
<!-- AS199236&#45;&gt;AS8218 -->
<g id="edge32" class="edge"><title>AS199236&#45;&gt;AS8218</title>
<path fill="none" stroke="black" stroke-width="3.17647" d="M201.939,-319.285C222.151,-335.223 253.071,-359.605 275.393,-377.207"/>
<polygon fill="black" stroke="black" stroke-width="3.17647" points="273.467,-380.146 283.486,-383.589 277.801,-374.649 273.467,-380.146"/>
</g>
<!-- AS1764 -->
<g id="node21" class="node"><title>AS1764</title>
<g id="a_node21"><a xlink:href="/asn/1764" xlink:title="AS1764 ~ NEXTLAYER&#45;AS [AT]">
<ellipse fill="#ffffff" stroke="black" cx="304.029" cy="-301" rx="39.7935" ry="18"/>
<text text-anchor="middle" x="304.029" y="-297.3" font-family="Times,serif" font-size="14.00" fill="#2c94b3">AS1764</text>
</a>
</g>
</g>
<!-- AS199236&#45;&gt;AS1764 -->
<g id="edge33" class="edge"><title>AS199236&#45;&gt;AS1764</title>
<path fill="none" stroke="black" stroke-width="4.5" d="M228.356,-302.227C236.823,-302.088 245.667,-301.942 254.183,-301.802"/>
<polygon fill="black" stroke="black" stroke-width="4.5" points="254.428,-305.737 264.362,-301.635 254.298,-297.863 254.428,-305.737"/>
</g>
<!-- AS3356&#45;&gt;AS2497 -->
<g id="edge19" class="edge"><title>AS3356&#45;&gt;AS2497</title>
<path fill="none" stroke="black" d="M562.868,-317.378C569.848,-312.325 577.286,-306.329 583.361,-300 603.08,-279.457 600.975,-268.744 619.361,-247 623.357,-242.274 627.89,-237.502 632.411,-233.028"/>
<polygon fill="black" stroke="black" points="635.113,-235.287 639.91,-225.84 630.269,-230.233 635.113,-235.287"/>
</g>
<!-- AS3356&#45;&gt;AS6762 -->
<g id="edge17" class="edge"><title>AS3356&#45;&gt;AS6762</title>
<path fill="none" stroke="black" d="M555.535,-348.422C570.998,-364.578 595.856,-389.578 619.361,-409 621.885,-411.085 624.563,-413.178 627.287,-415.225"/>
<polygon fill="black" stroke="black" points="625.333,-418.132 635.482,-421.176 629.447,-412.468 625.333,-418.132"/>
</g>
<!-- AS3356&#45;&gt;AS6453 -->
<g id="edge18" class="edge"><title>AS3356&#45;&gt;AS6453</title>
<path fill="none" stroke="black" d="M568.691,-344.104C584.066,-350.627 603.242,-358.763 619.88,-365.823"/>
<polygon fill="black" stroke="black" points="618.763,-369.151 629.335,-369.835 621.497,-362.707 618.763,-369.151"/>
</g>
<!-- AS209 -->
<g id="node16" class="node"><title>AS209</title>
<g id="a_node16"><a xlink:href="/asn/209" xlink:title="AS209 ~ CenturyLink Communications, LLC [US]">
<ellipse fill="#ffffff" stroke="black" cx="659.007" cy="-328" rx="35.194" ry="18"/>
<text text-anchor="middle" x="659.007" y="-324.3" font-family="Times,serif" font-size="14.00" fill="#2c94b3">AS209</text>
</a>
</g>
</g>
<!-- AS3356&#45;&gt;AS209 -->
<g id="edge15" class="edge"><title>AS3356&#45;&gt;AS209</title>
<path fill="none" stroke="black" d="M578.751,-330.69C589.852,-330.313 602.05,-329.899 613.479,-329.511"/>
<polygon fill="black" stroke="black" points="613.829,-333.002 623.705,-329.164 613.592,-326.006 613.829,-333.002"/>
</g>
<!-- AS3549 -->
<g id="node17" class="node"><title>AS3549</title>
<g id="a_node17"><a xlink:href="/asn/3549" xlink:title="AS3549 ~ Level 3 Parent, LLC [US]">
<ellipse fill="#ffffff" stroke="black" cx="659.007" cy="-274" rx="39.7935" ry="18"/>
<text text-anchor="middle" x="659.007" y="-270.3" font-family="Times,serif" font-size="14.00" fill="#2c94b3">AS3549</text>
</a>
</g>
</g>
<!-- AS3356&#45;&gt;AS3549 -->
<g id="edge16" class="edge"><title>AS3356&#45;&gt;AS3549</title>
<path fill="none" stroke="black" stroke-width="3" d="M566.611,-318.984C583.022,-310.906 604.322,-300.423 622.23,-291.609"/>
<polygon fill="black" stroke="black" stroke-width="3" points="623.815,-294.73 631.242,-287.174 620.724,-288.449 623.815,-294.73"/>
</g>
<!-- AS2914&#45;&gt;AS2497 -->
<g id="edge48" class="edge"><title>AS2914&#45;&gt;AS2497</title>
<path fill="none" stroke="black" d="M569.902,-175.608C584.695,-181.382 602.773,-188.439 618.694,-194.654"/>
<polygon fill="black" stroke="black" points="617.692,-198.02 628.28,-198.396 620.238,-191.499 617.692,-198.02"/>
</g>
<!-- AS2914&#45;&gt;AS3491 -->
<g id="edge47" class="edge"><title>AS2914&#45;&gt;AS3491</title>
<path fill="none" stroke="black" d="M573.934,-155.117C586.508,-151.809 600.963,-148.006 614.301,-144.498"/>
<polygon fill="black" stroke="black" points="615.453,-147.814 624.234,-141.885 613.672,-141.044 615.453,-147.814"/>
</g>
<!-- AS3257&#45;&gt;AS2497 -->
<g id="edge43" class="edge"><title>AS3257&#45;&gt;AS2497</title>
<path fill="none" stroke="black" d="M564.553,-123.967C570.864,-127.922 577.522,-132.408 583.361,-137 602.288,-151.886 621.673,-170.98 635.943,-185.906"/>
<polygon fill="black" stroke="black" points="633.501,-188.418 642.91,-193.288 638.591,-183.613 633.501,-188.418"/>
</g>
<!-- AS3257&#45;&gt;AS3491 -->
<g id="edge44" class="edge"><title>AS3257&#45;&gt;AS3491</title>
<path fill="none" stroke="black" d="M575.841,-116.963C587.273,-119.194 600.095,-121.697 612.148,-124.049"/>
<polygon fill="black" stroke="black" points="611.56,-127.501 622.046,-125.981 612.901,-120.63 611.56,-127.501"/>
</g>
<!-- AS3320&#45;&gt;AS1239 -->
<g id="edge45" class="edge"><title>AS3320&#45;&gt;AS1239</title>
<path fill="none" stroke="black" d="M561.233,-744.982C579.969,-731.627 607.56,-711.96 628.492,-697.039"/>
<polygon fill="black" stroke="black" points="630.613,-699.825 636.725,-691.171 626.55,-694.125 630.613,-699.825"/>
</g>
<!-- AS3320&#45;&gt;AS701 -->
<g id="edge46" class="edge"><title>AS3320&#45;&gt;AS701</title>
<path fill="none" stroke="black" d="M577.451,-755.254C589.251,-753.752 602.396,-752.079 614.588,-750.527"/>
<polygon fill="black" stroke="black" points="615.076,-753.993 624.554,-749.258 614.192,-747.049 615.076,-753.993"/>
</g>
<!-- AS8218&#45;&gt;AS1299 -->
<g id="edge36" class="edge"><title>AS8218&#45;&gt;AS1299</title>
<path fill="none" stroke="black" stroke-width="0.45" d="M332.454,-386.412C347.235,-379.628 365.671,-371.166 381.667,-363.824"/>
<polygon fill="black" stroke="black" stroke-width="0.45" points="383.129,-367.005 390.757,-359.652 380.209,-360.643 383.129,-367.005"/>
</g>
<!-- AS8218&#45;&gt;AS6461 -->
<g id="edge34" class="edge"><title>AS8218&#45;&gt;AS6461</title>
<path fill="none" stroke="black" stroke-width="4.5" d="M325.284,-414.375C343.216,-427.987 369.587,-448.005 389.678,-463.256"/>
<polygon fill="black" stroke="black" stroke-width="4.5" points="387.515,-466.558 397.861,-469.468 392.277,-460.286 387.515,-466.558"/>
</g>
<!-- AS1273 -->
<g id="node22" class="node"><title>AS1273</title>
<g id="a_node22"><a xlink:href="/asn/1273" xlink:title="AS1273 ~ Vodafone Group PLC [EU]">
<ellipse fill="#ffffff" stroke="black" cx="419.322" cy="-401" rx="39.7935" ry="18"/>
<text text-anchor="middle" x="419.322" y="-397.3" font-family="Times,serif" font-size="14.00" fill="#2c94b3">AS1273</text>
</a>
</g>
</g>
<!-- AS8218&#45;&gt;AS1273 -->
<g id="edge35" class="edge"><title>AS8218&#45;&gt;AS1273</title>
<path fill="none" stroke="black" stroke-width="0.45" d="M343.702,-399.683C351.905,-399.828 360.669,-399.982 369.201,-400.133"/>
<polygon fill="black" stroke="black" stroke-width="0.45" points="369.38,-403.636 379.44,-400.314 369.503,-396.638 369.38,-403.636"/>
</g>
<!-- AS1764&#45;&gt;AS1299 -->
<g id="edge42" class="edge"><title>AS1764&#45;&gt;AS1299</title>
<path fill="none" stroke="black" stroke-width="1.8" d="M334.205,-312.846C348.081,-318.48 364.858,-325.292 379.767,-331.346"/>
<polygon fill="black" stroke="black" stroke-width="1.8" points="378.663,-334.675 389.245,-335.194 381.297,-328.189 378.663,-334.675"/>
</g>
<!-- AS1764&#45;&gt;AS3356 -->
<g id="edge37" class="edge"><title>AS1764&#45;&gt;AS3356</title>
<path fill="none" stroke="black" stroke-width="4.5" d="M342.709,-305.357C373.898,-309.034 419.353,-314.555 458.969,-320 469.513,-321.449 480.832,-323.105 491.519,-324.713"/>
<polygon fill="black" stroke="black" stroke-width="4.5" points="491.049,-328.624 501.527,-326.233 492.231,-320.839 491.049,-328.624"/>
</g>
<!-- AS1764&#45;&gt;AS174 -->
<g id="edge41" class="edge"><title>AS1764&#45;&gt;AS174</title>
<path fill="none" stroke="black" stroke-width="0.9" d="M310.95,-283.23C321.482,-253.366 345.61,-192.15 379.676,-149 416.632,-102.189 472.854,-60.683 507.455,-37.4952"/>
<polygon fill="black" stroke="black" stroke-width="0.9" points="509.771,-40.1602 516.184,-31.727 505.911,-34.3201 509.771,-40.1602"/>
</g>
<!-- AS1764&#45;&gt;AS2914 -->
<g id="edge39" class="edge"><title>AS1764&#45;&gt;AS2914</title>
<path fill="none" stroke="black" stroke-width="2.7" d="M329.101,-286.855C371.18,-262.127 458.138,-211.027 505.569,-183.155"/>
<polygon fill="black" stroke="black" stroke-width="2.7" points="507.376,-186.152 514.224,-178.068 503.83,-180.117 507.376,-186.152"/>
</g>
<!-- AS1764&#45;&gt;AS3257 -->
<g id="edge38" class="edge"><title>AS1764&#45;&gt;AS3257</title>
<path fill="none" stroke="black" stroke-width="2.7" d="M316.49,-283.62C330.013,-263.966 353.937,-231.746 379.676,-209 417.896,-175.224 468.947,-145.595 502.655,-127.758"/>
<polygon fill="black" stroke="black" stroke-width="2.7" points="504.433,-130.778 511.677,-123.047 501.193,-124.573 504.433,-130.778"/>
</g>
<!-- AS1764&#45;&gt;AS3320 -->
<g id="edge40" class="edge"><title>AS1764&#45;&gt;AS3320</title>
<path fill="none" stroke="black" stroke-width="2.7" d="M315.971,-318.214C324.497,-332.243 336.118,-352.804 343.676,-372 367.212,-431.78 355.082,-452.647 379.676,-512 418.217,-605.013 437.383,-624.413 494.969,-707 501.657,-716.592 509.595,-726.651 516.83,-735.396"/>
<polygon fill="black" stroke="black" stroke-width="2.7" points="514.375,-737.915 523.487,-743.32 519.735,-733.412 514.375,-737.915"/>
</g>
</g>
</svg>
