<?xml version="1.0" encoding="UTF-8" standalone="no"?>
<!DOCTYPE svg PUBLIC "-//W3C//DTD SVG 1.1//EN"
 "http://www.w3.org/Graphics/SVG/1.1/DTD/svg11.dtd">
<!-- Generated by graphviz version 2.38.0 (20140413.2041)
 -->
<!-- Title: AS203501 IPv4 Upstream Graph Pages: 1 -->
<svg width="707pt" height="793pt"
 viewBox="0.00 0.00 706.65 793.09" xmlns="http://www.w3.org/2000/svg" xmlns:xlink="http://www.w3.org/1999/xlink">
<g id="graph0" class="graph" transform="scale(1 1) rotate(0) translate(4 789.093)">
<title>AS203501 IPv4 Upstream Graph</title>
<polygon fill="white" stroke="none" points="-4,4 -4,-789.093 702.654,-789.093 702.654,4 -4,4"/>
<!-- AS203501 -->
<g id="node1" class="node"><title>AS203501</title>
<g id="a_node1"><a xlink:href="/asn/203501" xlink:title="AS203501 ~ Emarsys North America, Inc [AT]">
<ellipse fill="#ffffff" stroke="black" cx="48.0957" cy="-483.093" rx="48.1917" ry="18"/>
<text text-anchor="middle" x="48.0957" y="-479.393" font-family="Times,serif" font-size="14.00" fill="#880000">AS203501</text>
</a>
</g>
</g>
<!-- AS1299 -->
<g id="node2" class="node"><title>AS1299</title>
<g id="a_node2"><a xlink:href="/asn/1299" xlink:title="AS1299 ~ Telia Carrier [EU]">
<ellipse fill="#ffffff" stroke="black" cx="419.322" cy="-529.093" rx="39.7935" ry="18"/>
<text text-anchor="middle" x="419.322" y="-525.393" font-family="Times,serif" font-size="14.00" fill="#2c94b3">AS1299</text>
</a>
</g>
</g>
<!-- AS203501&#45;&gt;AS1299 -->
<g id="edge1" class="edge"><title>AS203501&#45;&gt;AS1299</title>
<path fill="none" stroke="black" stroke-width="1.77273" d="M82.1579,-495.921C97.1972,-501.211 115.36,-506.851 132.191,-510.093 214.341,-525.912 311.93,-529.15 369.292,-529.507"/>
<polygon fill="black" stroke="black" stroke-width="1.77273" points="369.51,-533.008 379.522,-529.543 369.534,-526.008 369.51,-533.008"/>
</g>
<!-- AS6461 -->
<g id="node3" class="node"><title>AS6461</title>
<g id="a_node3"><a xlink:href="/asn/6461" xlink:title="AS6461 ~ Zayo Bandwidth [US]">
<ellipse fill="#ffffff" stroke="black" cx="419.322" cy="-318.093" rx="39.7935" ry="18"/>
<text text-anchor="middle" x="419.322" y="-314.393" font-family="Times,serif" font-size="14.00" fill="#2c94b3">AS6461</text>
</a>
</g>
</g>
<!-- AS203501&#45;&gt;AS6461 -->
<g id="edge2" class="edge"><title>AS203501&#45;&gt;AS6461</title>
<path fill="none" stroke="black" stroke-width="1.77273" d="M79.6252,-469.45C147.007,-439.338 308.247,-367.283 381.267,-334.652"/>
<polygon fill="black" stroke="black" stroke-width="1.77273" points="382.851,-337.778 390.553,-330.502 379.995,-331.387 382.851,-337.778"/>
</g>
<!-- AS199236 -->
<g id="node4" class="node"><title>AS199236</title>
<g id="a_node4"><a xlink:href="/asn/199236" xlink:title="AS199236 ~ Emarsys eMarketing Systems AG [AT]">
<ellipse fill="#ffffff" stroke="black" cx="180.287" cy="-483.093" rx="48.1917" ry="18"/>
<text text-anchor="middle" x="180.287" y="-479.393" font-family="Times,serif" font-size="14.00" fill="#2c94b3">AS199236</text>
</a>
</g>
</g>
<!-- AS203501&#45;&gt;AS199236 -->
<g id="edge3" class="edge"><title>AS203501&#45;&gt;AS199236</title>
<path fill="none" stroke="black" stroke-width="4.5" d="M96.4661,-483.093C104.736,-483.093 113.42,-483.093 121.924,-483.093"/>
<polygon fill="black" stroke="black" stroke-width="4.5" points="122.17,-487.03 132.17,-483.093 122.17,-479.155 122.17,-487.03"/>
</g>
<!-- AS174 -->
<g id="node5" class="node"><title>AS174</title>
<g id="a_node5"><a xlink:href="/asn/174" xlink:title="AS174 ~ Cogent Communications [US]">
<ellipse fill="#ffffff" stroke="black" cx="539.165" cy="-767.093" rx="35.194" ry="18"/>
<text text-anchor="middle" x="539.165" y="-763.393" font-family="Times,serif" font-size="14.00" fill="#2c94b3">AS174</text>
</a>
</g>
</g>
<!-- AS1299&#45;&gt;AS174 -->
<g id="edge4" class="edge"><title>AS1299&#45;&gt;AS174</title>
<path fill="none" stroke="black" d="M423.202,-547.011C430.023,-584.952 450.077,-674.852 494.969,-735.093 498.315,-739.583 502.465,-743.726 506.859,-747.438"/>
<polygon fill="black" stroke="black" points="504.851,-750.309 514.91,-753.637 509.122,-744.763 504.851,-750.309"/>
</g>
<!-- AS2914 -->
<g id="node6" class="node"><title>AS2914</title>
<g id="a_node6"><a xlink:href="/asn/2914" xlink:title="AS2914 ~ NTT America, Inc. [US]">
<ellipse fill="#ffffff" stroke="black" cx="539.165" cy="-621.093" rx="39.7935" ry="18"/>
<text text-anchor="middle" x="539.165" y="-617.393" font-family="Times,serif" font-size="14.00" fill="#2c94b3">AS2914</text>
</a>
</g>
</g>
<!-- AS1299&#45;&gt;AS2914 -->
<g id="edge5" class="edge"><title>AS1299&#45;&gt;AS2914</title>
<path fill="none" stroke="black" d="M439.489,-544.843C454.47,-557.069 475.883,-574.362 494.969,-589.093 499.494,-592.585 504.327,-596.239 509.061,-599.776"/>
<polygon fill="black" stroke="black" points="507.271,-602.806 517.387,-605.957 511.444,-597.186 507.271,-602.806"/>
</g>
<!-- AS6762 -->
<g id="node7" class="node"><title>AS6762</title>
<g id="a_node7"><a xlink:href="/asn/6762" xlink:title="AS6762 ~ TELECOM ITALIA SPARKLE S.p.A. [IT]">
<ellipse fill="#ffffff" stroke="black" cx="659.007" cy="-571.093" rx="39.7935" ry="18"/>
<text text-anchor="middle" x="659.007" y="-567.393" font-family="Times,serif" font-size="14.00" fill="#2c94b3">AS6762</text>
</a>
</g>
</g>
<!-- AS1299&#45;&gt;AS6762 -->
<g id="edge6" class="edge"><title>AS1299&#45;&gt;AS6762</title>
<path fill="none" stroke="black" stroke-width="2" d="M448.88,-541.364C462.577,-546.743 479.366,-552.613 494.969,-556.093 532.77,-564.522 576.519,-568.228 609.175,-569.85"/>
<polygon fill="black" stroke="black" stroke-width="2" points="609.22,-573.356 619.366,-570.307 609.533,-566.363 609.22,-573.356"/>
</g>
<!-- AS3356 -->
<g id="node8" class="node"><title>AS3356</title>
<g id="a_node8"><a xlink:href="/asn/3356" xlink:title="AS3356 ~ Level 3 Parent, LLC [US]">
<ellipse fill="#ffffff" stroke="black" cx="539.165" cy="-529.093" rx="39.7935" ry="18"/>
<text text-anchor="middle" x="539.165" y="-525.393" font-family="Times,serif" font-size="14.00" fill="#2c94b3">AS3356</text>
</a>
</g>
</g>
<!-- AS1299&#45;&gt;AS3356 -->
<g id="edge7" class="edge"><title>AS1299&#45;&gt;AS3356</title>
<path fill="none" stroke="black" stroke-width="2" d="M456.641,-522.805C467.729,-522.329 480.077,-522.221 491.74,-522.479"/>
<polygon fill="black" stroke="black" stroke-width="2" points="491.657,-525.978 501.764,-522.801 491.881,-518.982 491.657,-525.978"/>
</g>
<!-- AS2497 -->
<g id="node9" class="node"><title>AS2497</title>
<g id="a_node9"><a xlink:href="/asn/2497" xlink:title="AS2497 ~ Internet Initiative Japan Inc. [JP]">
<ellipse fill="#ffffff" stroke="black" cx="659.007" cy="-625.093" rx="39.7935" ry="18"/>
<text text-anchor="middle" x="659.007" y="-621.393" font-family="Times,serif" font-size="14.00" fill="#2c94b3">AS2497</text>
</a>
</g>
</g>
<!-- AS1299&#45;&gt;AS2497 -->
<g id="edge8" class="edge"><title>AS1299&#45;&gt;AS2497</title>
<path fill="none" stroke="black" d="M421.842,-547.061C426.024,-583.748 441.264,-666.774 494.969,-702.093 527.792,-723.679 548.396,-720.003 583.361,-702.093 607.733,-689.609 599.861,-671.317 619.361,-652.093 621.492,-649.992 623.803,-647.94 626.198,-645.967"/>
<polygon fill="black" stroke="black" points="628.71,-648.452 634.532,-639.6 624.46,-642.89 628.71,-648.452"/>
</g>
<!-- AS6453 -->
<g id="node10" class="node"><title>AS6453</title>
<g id="a_node10"><a xlink:href="/asn/6453" xlink:title="AS6453 ~ TATA COMMUNICATIONS (AMERICA) INC [US]">
<ellipse fill="#ffffff" stroke="black" cx="659.007" cy="-463.093" rx="39.7935" ry="18"/>
<text text-anchor="middle" x="659.007" y="-459.393" font-family="Times,serif" font-size="14.00" fill="#2c94b3">AS6453</text>
</a>
</g>
</g>
<!-- AS1299&#45;&gt;AS6453 -->
<g id="edge9" class="edge"><title>AS1299&#45;&gt;AS6453</title>
<path fill="none" stroke="black" d="M449.853,-517.546C463.47,-512.446 479.919,-506.599 494.969,-502.093 534.259,-490.328 579.697,-479.698 612.609,-472.518"/>
<polygon fill="black" stroke="black" points="613.364,-475.936 622.4,-470.403 611.886,-469.093 613.364,-475.936"/>
</g>
<!-- AS209 -->
<g id="node11" class="node"><title>AS209</title>
<g id="a_node11"><a xlink:href="/asn/209" xlink:title="AS209 ~ CenturyLink Communications, LLC [US]">
<ellipse fill="#ffffff" stroke="black" cx="539.165" cy="-291.093" rx="35.194" ry="18"/>
<text text-anchor="middle" x="539.165" y="-287.393" font-family="Times,serif" font-size="14.00" fill="#2c94b3">AS209</text>
</a>
</g>
</g>
<!-- AS1299&#45;&gt;AS209 -->
<g id="edge10" class="edge"><title>AS1299&#45;&gt;AS209</title>
<path fill="none" stroke="black" d="M422.624,-511.046C428.408,-471.979 446.704,-378.256 494.969,-318.093 497.646,-314.756 500.854,-311.716 504.296,-308.979"/>
<polygon fill="black" stroke="black" points="506.434,-311.755 512.614,-303.15 502.416,-306.023 506.434,-311.755"/>
</g>
<!-- AS12956 -->
<g id="node12" class="node"><title>AS12956</title>
<g id="a_node12"><a xlink:href="/asn/12956" xlink:title="AS12956 ~ TELXIUS [ES]">
<ellipse fill="#ffffff" stroke="black" cx="539.165" cy="-399.093" rx="44.393" ry="18"/>
<text text-anchor="middle" x="539.165" y="-395.393" font-family="Times,serif" font-size="14.00" fill="#2c94b3">AS12956</text>
</a>
</g>
</g>
<!-- AS1299&#45;&gt;AS12956 -->
<g id="edge11" class="edge"><title>AS1299&#45;&gt;AS12956</title>
<path fill="none" stroke="black" d="M431.412,-511.627C444.95,-491.057 469.241,-456.48 494.969,-431.093 498.693,-427.418 502.858,-423.818 507.092,-420.436"/>
<polygon fill="black" stroke="black" points="509.389,-423.085 515.22,-414.24 505.146,-417.518 509.389,-423.085"/>
</g>
<!-- AS7018 -->
<g id="node13" class="node"><title>AS7018</title>
<g id="a_node13"><a xlink:href="/asn/7018" xlink:title="AS7018 ~ AT&amp;T Services, Inc. [US]">
<ellipse fill="#ffffff" stroke="black" cx="539.165" cy="-345.093" rx="39.7935" ry="18"/>
<text text-anchor="middle" x="539.165" y="-341.393" font-family="Times,serif" font-size="14.00" fill="#2c94b3">AS7018</text>
</a>
</g>
</g>
<!-- AS1299&#45;&gt;AS7018 -->
<g id="edge12" class="edge"><title>AS1299&#45;&gt;AS7018</title>
<path fill="none" stroke="black" stroke-width="2" d="M425.186,-511.21C434.416,-479.956 457.015,-414.675 494.969,-372.093 497.47,-369.287 500.331,-366.668 503.363,-364.253"/>
<polygon fill="black" stroke="black" stroke-width="2" points="505.548,-366.994 511.663,-358.341 501.487,-361.292 505.548,-366.994"/>
</g>
<!-- AS1239 -->
<g id="node14" class="node"><title>AS1239</title>
<g id="a_node14"><a xlink:href="/asn/1239" xlink:title="AS1239 ~ Sprint [US]">
<ellipse fill="#ffffff" stroke="black" cx="659.007" cy="-93.0926" rx="39.7935" ry="18"/>
<text text-anchor="middle" x="659.007" y="-89.3926" font-family="Times,serif" font-size="14.00" fill="#2c94b3">AS1239</text>
</a>
</g>
</g>
<!-- AS1299&#45;&gt;AS1239 -->
<g id="edge13" class="edge"><title>AS1299&#45;&gt;AS1239</title>
<path fill="none" stroke="black" d="M440.143,-513.753C454.93,-502.559 475.801,-487.277 494.969,-475.093 532.877,-450.997 556.444,-462.052 583.361,-426.093 619.833,-377.369 645.843,-192.37 654.692,-121.214"/>
<polygon fill="black" stroke="black" points="658.178,-121.541 655.918,-111.19 651.23,-120.691 658.178,-121.541"/>
</g>
<!-- AS3257 -->
<g id="node15" class="node"><title>AS3257</title>
<g id="a_node15"><a xlink:href="/asn/3257" xlink:title="AS3257 ~ GTT [DE]">
<ellipse fill="#ffffff" stroke="black" cx="539.165" cy="-675.093" rx="39.7935" ry="18"/>
<text text-anchor="middle" x="539.165" y="-671.393" font-family="Times,serif" font-size="14.00" fill="#2c94b3">AS3257</text>
</a>
</g>
</g>
<!-- AS1299&#45;&gt;AS3257 -->
<g id="edge14" class="edge"><title>AS1299&#45;&gt;AS3257</title>
<path fill="none" stroke="black" d="M428.333,-546.96C440.16,-571.871 464.248,-617.421 494.969,-648.093 497.775,-650.895 500.924,-653.544 504.209,-656.007"/>
<polygon fill="black" stroke="black" points="502.314,-658.951 512.538,-661.73 506.278,-653.182 502.314,-658.951"/>
</g>
<!-- AS6461&#45;&gt;AS174 -->
<g id="edge26" class="edge"><title>AS6461&#45;&gt;AS174</title>
<path fill="none" stroke="black" d="M424.281,-336.079C431.479,-368.972 447.069,-441.06 458.969,-502.093 476.253,-590.741 461.274,-618.296 494.969,-702.093 500.689,-716.318 509.792,-730.667 518.169,-742.251"/>
<polygon fill="black" stroke="black" points="515.569,-744.618 524.366,-750.523 521.172,-740.421 515.569,-744.618"/>
</g>
<!-- AS6461&#45;&gt;AS2914 -->
<g id="edge20" class="edge"><title>AS6461&#45;&gt;AS2914</title>
<path fill="none" stroke="black" d="M424.121,-336.055C433.09,-376.632 457.67,-477.928 494.969,-556.093 501.572,-569.93 510.777,-584.234 518.994,-595.889"/>
<polygon fill="black" stroke="black" points="516.331,-598.179 525.026,-604.234 522.004,-594.079 516.331,-598.179"/>
</g>
<!-- AS6461&#45;&gt;AS6762 -->
<g id="edge21" class="edge"><title>AS6461&#45;&gt;AS6762</title>
<path fill="none" stroke="black" stroke-width="2" d="M424.978,-299.907C433.428,-271.175 454.301,-216.174 494.969,-193.093 529.135,-173.701 554.199,-166.769 583.361,-193.093 641.564,-245.632 579.615,-476.504 619.361,-544.093 620.839,-546.606 622.654,-548.943 624.684,-551.103"/>
<polygon fill="black" stroke="black" stroke-width="2" points="622.421,-553.775 632.234,-557.771 627.055,-548.528 622.421,-553.775"/>
</g>
<!-- AS6461&#45;&gt;AS3356 -->
<g id="edge22" class="edge"><title>AS6461&#45;&gt;AS3356</title>
<path fill="none" stroke="black" stroke-width="2" d="M430.167,-335.719C450.884,-372.814 499.079,-459.108 523.468,-502.777"/>
<polygon fill="black" stroke="black" stroke-width="2" points="520.5,-504.64 528.431,-511.664 526.611,-501.227 520.5,-504.64"/>
</g>
<!-- AS6461&#45;&gt;AS2497 -->
<g id="edge28" class="edge"><title>AS6461&#45;&gt;AS2497</title>
<path fill="none" stroke="black" stroke-width="2" d="M429.319,-300.389C441.129,-279.349 464.047,-245.305 494.969,-231.093 530.664,-214.686 554.258,-204.704 583.361,-231.093 644.069,-286.137 577.978,-527.363 619.361,-598.093 620.833,-600.609 622.645,-602.948 624.671,-605.111"/>
<polygon fill="black" stroke="black" stroke-width="2" points="622.406,-607.78 632.216,-611.782 627.043,-602.535 622.406,-607.78"/>
</g>
<!-- AS6461&#45;&gt;AS6453 -->
<g id="edge25" class="edge"><title>AS6461&#45;&gt;AS6453</title>
<path fill="none" stroke="black" stroke-width="2" d="M422.356,-300.053C427.402,-264.896 444.024,-187.795 494.969,-155.093 528.029,-133.871 552.483,-130.805 583.361,-155.093 627.489,-189.803 648.699,-364.912 655.487,-434.51"/>
<polygon fill="black" stroke="black" stroke-width="2" points="652.028,-435.11 656.454,-444.736 658.997,-434.451 652.028,-435.11"/>
</g>
<!-- AS6461&#45;&gt;AS209 -->
<g id="edge30" class="edge"><title>AS6461&#45;&gt;AS209</title>
<path fill="none" stroke="black" d="M455.042,-310.138C468.134,-307.138 483.156,-303.696 496.797,-300.571"/>
<polygon fill="black" stroke="black" points="497.939,-303.9 506.904,-298.255 496.375,-297.077 497.939,-303.9"/>
</g>
<!-- AS6461&#45;&gt;AS12956 -->
<g id="edge31" class="edge"><title>AS6461&#45;&gt;AS12956</title>
<path fill="none" stroke="black" d="M440.653,-333.369C455.515,-344.397 476.26,-359.499 494.969,-372.093 498.259,-374.307 501.722,-376.574 505.196,-378.808"/>
<polygon fill="black" stroke="black" points="503.444,-381.841 513.763,-384.241 507.193,-375.929 503.444,-381.841"/>
</g>
<!-- AS6461&#45;&gt;AS7018 -->
<g id="edge32" class="edge"><title>AS6461&#45;&gt;AS7018</title>
<path fill="none" stroke="black" d="M455.042,-326.047C467.042,-328.797 480.662,-331.918 493.355,-334.826"/>
<polygon fill="black" stroke="black" points="492.757,-338.28 503.287,-337.101 494.321,-331.456 492.757,-338.28"/>
</g>
<!-- AS6461&#45;&gt;AS1239 -->
<g id="edge29" class="edge"><title>AS6461&#45;&gt;AS1239</title>
<path fill="none" stroke="black" stroke-width="2" d="M422.262,-300.099C427.23,-263.166 443.858,-178.549 494.969,-134.093 526.437,-106.722 573.572,-97.1324 609.081,-94.0019"/>
<polygon fill="black" stroke="black" stroke-width="2" points="609.515,-97.4795 619.23,-93.2527 608.999,-90.4984 609.515,-97.4795"/>
</g>
<!-- AS6461&#45;&gt;AS3257 -->
<g id="edge23" class="edge"><title>AS6461&#45;&gt;AS3257</title>
<path fill="none" stroke="black" d="M424.258,-336.37C438.995,-404.695 490.315,-641.537 494.969,-648.093 496.965,-650.905 499.356,-653.487 501.974,-655.844"/>
<polygon fill="black" stroke="black" points="500.276,-658.951 510.347,-662.243 504.527,-653.39 500.276,-658.951"/>
</g>
<!-- AS3491 -->
<g id="node17" class="node"><title>AS3491</title>
<g id="a_node17"><a xlink:href="/asn/3491" xlink:title="AS3491 ~ PCCW Global, Inc. [US]">
<ellipse fill="#ffffff" stroke="black" cx="659.007" cy="-679.093" rx="39.7935" ry="18"/>
<text text-anchor="middle" x="659.007" y="-675.393" font-family="Times,serif" font-size="14.00" fill="#2c94b3">AS3491</text>
</a>
</g>
</g>
<!-- AS6461&#45;&gt;AS3491 -->
<g id="edge24" class="edge"><title>AS6461&#45;&gt;AS3491</title>
<path fill="none" stroke="black" stroke-width="2" d="M438.12,-302.211C470.864,-274.926 541.161,-225.627 583.361,-264.093 647.357,-322.426 575.829,-577.238 619.361,-652.093 620.827,-654.613 622.633,-656.955 624.657,-659.119"/>
<polygon fill="black" stroke="black" stroke-width="2" points="622.388,-661.785 632.195,-665.794 627.028,-656.544 622.388,-661.785"/>
</g>
<!-- AS701 -->
<g id="node18" class="node"><title>AS701</title>
<g id="a_node18"><a xlink:href="/asn/701" xlink:title="AS701 ~ UUNET [US]">
<ellipse fill="#ffffff" stroke="black" cx="659.007" cy="-20.0926" rx="35.194" ry="18"/>
<text text-anchor="middle" x="659.007" y="-16.3926" font-family="Times,serif" font-size="14.00" fill="#2c94b3">AS701</text>
</a>
</g>
</g>
<!-- AS6461&#45;&gt;AS701 -->
<g id="edge27" class="edge"><title>AS6461&#45;&gt;AS701</title>
<path fill="none" stroke="black" stroke-width="2" d="M422.016,-299.912C427.942,-240.717 449.874,-55.2846 494.969,-20.0926 530.051,7.2859 583.535,1.03617 619.587,-7.86335"/>
<polygon fill="black" stroke="black" stroke-width="2" points="618.701,-11.2493 629.263,-10.418 620.488,-4.48123 618.701,-11.2493"/>
</g>
<!-- AS3320 -->
<g id="node19" class="node"><title>AS3320</title>
<g id="a_node19"><a xlink:href="/asn/3320" xlink:title="AS3320 ~ DTAG [DE]">
<ellipse fill="#ffffff" stroke="black" cx="539.165" cy="-47.0926" rx="39.7935" ry="18"/>
<text text-anchor="middle" x="539.165" y="-43.3926" font-family="Times,serif" font-size="14.00" fill="#2c94b3">AS3320</text>
</a>
</g>
</g>
<!-- AS6461&#45;&gt;AS3320 -->
<g id="edge33" class="edge"><title>AS6461&#45;&gt;AS3320</title>
<path fill="none" stroke="black" d="M425.199,-300.267C439.588,-248.025 481.684,-97.7821 494.969,-79.0926 498,-74.828 501.776,-70.8966 505.824,-67.3569"/>
<polygon fill="black" stroke="black" points="508.137,-69.9899 513.82,-61.0483 503.802,-64.4941 508.137,-69.9899"/>
</g>
<!-- AS8218 -->
<g id="node20" class="node"><title>AS8218</title>
<g id="a_node20"><a xlink:href="/asn/8218" xlink:title="AS8218 ~ legacy Neotelecoms [FR]">
<ellipse fill="#ffffff" stroke="black" cx="304.029" cy="-483.093" rx="39.7935" ry="18"/>
<text text-anchor="middle" x="304.029" y="-479.393" font-family="Times,serif" font-size="14.00" fill="#2c94b3">AS8218</text>
</a>
</g>
</g>
<!-- AS199236&#45;&gt;AS8218 -->
<g id="edge34" class="edge"><title>AS199236&#45;&gt;AS8218</title>
<path fill="none" stroke="black" stroke-width="2.25" d="M228.705,-483.093C237.058,-483.093 245.768,-483.093 254.161,-483.093"/>
<polygon fill="black" stroke="black" stroke-width="2.25" points="254.196,-486.593 264.196,-483.093 254.196,-479.593 254.196,-486.593"/>
</g>
<!-- AS1764 -->
<g id="node21" class="node"><title>AS1764</title>
<g id="a_node21"><a xlink:href="/asn/1764" xlink:title="AS1764 ~ NEXTLAYER&#45;AS [AT]">
<ellipse fill="#ffffff" stroke="black" cx="304.029" cy="-575.093" rx="39.7935" ry="18"/>
<text text-anchor="middle" x="304.029" y="-571.393" font-family="Times,serif" font-size="14.00" fill="#2c94b3">AS1764</text>
</a>
</g>
</g>
<!-- AS199236&#45;&gt;AS1764 -->
<g id="edge35" class="edge"><title>AS199236&#45;&gt;AS1764</title>
<path fill="none" stroke="black" stroke-width="4.5" d="M202.493,-499.118C222.548,-514.274 252.779,-537.118 274.852,-553.799"/>
<polygon fill="black" stroke="black" stroke-width="4.5" points="272.523,-556.974 282.875,-559.862 277.271,-550.692 272.523,-556.974"/>
</g>
<!-- AS174&#45;&gt;AS3491 -->
<g id="edge44" class="edge"><title>AS174&#45;&gt;AS3491</title>
<path fill="none" stroke="black" d="M559.967,-752.462C567.321,-747.018 575.729,-740.782 583.361,-735.093 598.635,-723.706 615.627,-710.964 629.537,-700.515"/>
<polygon fill="black" stroke="black" points="631.865,-703.143 637.756,-694.337 627.659,-697.548 631.865,-703.143"/>
</g>
<!-- AS2914&#45;&gt;AS6762 -->
<g id="edge51" class="edge"><title>AS2914&#45;&gt;AS6762</title>
<path fill="none" stroke="black" d="M568.691,-608.989C584.066,-602.466 603.242,-594.329 619.88,-587.27"/>
<polygon fill="black" stroke="black" points="621.497,-590.386 629.335,-583.258 618.763,-583.942 621.497,-590.386"/>
</g>
<!-- AS2914&#45;&gt;AS2497 -->
<g id="edge52" class="edge"><title>AS2914&#45;&gt;AS2497</title>
<path fill="none" stroke="black" d="M578.751,-622.402C588.518,-622.734 599.134,-623.094 609.328,-623.44"/>
<polygon fill="black" stroke="black" points="609.222,-626.939 619.335,-623.78 609.459,-619.943 609.222,-626.939"/>
</g>
<!-- AS3356&#45;&gt;AS1299 -->
<g id="edge19" class="edge"><title>AS3356&#45;&gt;AS1299</title>
<path fill="none" stroke="black" d="M501.764,-535.384C490.669,-535.858 478.32,-535.965 466.66,-535.704"/>
<polygon fill="black" stroke="black" points="466.748,-532.205 456.641,-535.38 466.522,-539.201 466.748,-532.205"/>
</g>
<!-- AS3356&#45;&gt;AS6762 -->
<g id="edge18" class="edge"><title>AS3356&#45;&gt;AS6762</title>
<path fill="none" stroke="black" d="M570.819,-540.018C585.028,-545.082 602.112,-551.171 617.377,-556.612"/>
<polygon fill="black" stroke="black" points="616.503,-560.016 627.097,-560.076 618.853,-553.422 616.503,-560.016"/>
</g>
<!-- AS3356&#45;&gt;AS2497 -->
<g id="edge16" class="edge"><title>AS3356&#45;&gt;AS2497</title>
<path fill="none" stroke="black" d="M557.632,-545.271C573.381,-559.623 597.375,-580.914 619.361,-598.093 622.088,-600.223 624.968,-602.387 627.877,-604.514"/>
<polygon fill="black" stroke="black" points="625.876,-607.385 636.046,-610.355 629.948,-601.692 625.876,-607.385"/>
</g>
<!-- AS3356&#45;&gt;AS6453 -->
<g id="edge17" class="edge"><title>AS3356&#45;&gt;AS6453</title>
<path fill="none" stroke="black" d="M564.869,-515.257C582.153,-505.577 605.448,-492.53 624.417,-481.906"/>
<polygon fill="black" stroke="black" points="626.322,-484.85 633.336,-476.91 622.901,-478.743 626.322,-484.85"/>
</g>
<!-- AS3549 -->
<g id="node16" class="node"><title>AS3549</title>
<g id="a_node16"><a xlink:href="/asn/3549" xlink:title="AS3549 ~ Level 3 Parent, LLC [US]">
<ellipse fill="#ffffff" stroke="black" cx="659.007" cy="-517.093" rx="39.7935" ry="18"/>
<text text-anchor="middle" x="659.007" y="-513.393" font-family="Times,serif" font-size="14.00" fill="#2c94b3">AS3549</text>
</a>
</g>
</g>
<!-- AS3356&#45;&gt;AS3549 -->
<g id="edge15" class="edge"><title>AS3356&#45;&gt;AS3549</title>
<path fill="none" stroke="black" stroke-width="3" d="M578.1,-525.23C588.297,-524.191 599.46,-523.055 610.122,-521.969"/>
<polygon fill="black" stroke="black" stroke-width="3" points="610.55,-525.443 620.144,-520.948 609.841,-518.479 610.55,-525.443"/>
</g>
<!-- AS3257&#45;&gt;AS6762 -->
<g id="edge46" class="edge"><title>AS3257&#45;&gt;AS6762</title>
<path fill="none" stroke="black" d="M565.569,-661.499C571.734,-657.602 578.068,-653.05 583.361,-648.093 603.346,-629.373 599.861,-617.317 619.361,-598.093 621.492,-595.992 623.803,-593.94 626.198,-591.967"/>
<polygon fill="black" stroke="black" points="628.71,-594.452 634.532,-585.6 624.46,-588.89 628.71,-594.452"/>
</g>
<!-- AS3257&#45;&gt;AS2497 -->
<g id="edge47" class="edge"><title>AS3257&#45;&gt;AS2497</title>
<path fill="none" stroke="black" d="M568.691,-662.989C584.066,-656.466 603.242,-648.329 619.88,-641.27"/>
<polygon fill="black" stroke="black" points="621.497,-644.386 629.335,-637.258 618.763,-637.942 621.497,-644.386"/>
</g>
<!-- AS3257&#45;&gt;AS3491 -->
<g id="edge45" class="edge"><title>AS3257&#45;&gt;AS3491</title>
<path fill="none" stroke="black" d="M578.751,-676.402C588.518,-676.734 599.134,-677.094 609.328,-677.44"/>
<polygon fill="black" stroke="black" points="609.222,-680.939 619.335,-677.78 609.459,-673.943 609.222,-680.939"/>
</g>
<!-- AS3320&#45;&gt;AS6762 -->
<g id="edge50" class="edge"><title>AS3320&#45;&gt;AS6762</title>
<path fill="none" stroke="black" d="M548.972,-64.5387C559.104,-85.4742 575.369,-121.914 583.361,-155.093 603.691,-239.492 575.726,-469.042 619.361,-544.093 620.827,-546.613 622.633,-548.955 624.656,-551.12"/>
<polygon fill="black" stroke="black" points="622.387,-553.785 632.194,-557.794 627.028,-548.545 622.387,-553.785"/>
</g>
<!-- AS3320&#45;&gt;AS1239 -->
<g id="edge48" class="edge"><title>AS3320&#45;&gt;AS1239</title>
<path fill="none" stroke="black" d="M569.902,-58.7004C584.695,-64.4751 602.773,-71.5316 618.694,-77.7466"/>
<polygon fill="black" stroke="black" points="617.692,-81.1126 628.28,-81.4886 620.238,-74.5918 617.692,-81.1126"/>
</g>
<!-- AS3320&#45;&gt;AS701 -->
<g id="edge49" class="edge"><title>AS3320&#45;&gt;AS701</title>
<path fill="none" stroke="black" d="M574.884,-39.1378C587.977,-36.138 602.999,-32.6961 616.64,-29.5708"/>
<polygon fill="black" stroke="black" points="617.781,-32.9 626.747,-27.255 616.218,-26.0768 617.781,-32.9"/>
</g>
<!-- AS8218&#45;&gt;AS1299 -->
<g id="edge36" class="edge"><title>AS8218&#45;&gt;AS1299</title>
<path fill="none" stroke="black" stroke-width="0.45" d="M334.205,-494.939C348.081,-500.573 364.858,-507.385 379.767,-513.438"/>
<polygon fill="black" stroke="black" stroke-width="0.45" points="378.663,-516.767 389.245,-517.287 381.297,-510.282 378.663,-516.767"/>
</g>
<!-- AS8218&#45;&gt;AS6461 -->
<g id="edge37" class="edge"><title>AS8218&#45;&gt;AS6461</title>
<path fill="none" stroke="black" stroke-width="4.5" d="M316.94,-465.747C336.966,-436.581 377.472,-377.587 400.766,-343.661"/>
<polygon fill="black" stroke="black" stroke-width="4.5" points="404.157,-345.679 406.572,-335.206 397.665,-341.221 404.157,-345.679"/>
</g>
<!-- AS1764&#45;&gt;AS1299 -->
<g id="edge42" class="edge"><title>AS1764&#45;&gt;AS1299</title>
<path fill="none" stroke="black" stroke-width="2.25" d="M334.205,-563.246C348.081,-557.613 364.858,-550.801 379.767,-544.747"/>
<polygon fill="black" stroke="black" stroke-width="2.25" points="381.297,-547.904 389.245,-540.899 378.663,-541.418 381.297,-547.904"/>
</g>
<!-- AS1764&#45;&gt;AS174 -->
<g id="edge41" class="edge"><title>AS1764&#45;&gt;AS174</title>
<path fill="none" stroke="black" stroke-width="1.5" d="M322.599,-591.093C337.583,-604.626 359.794,-624.419 379.676,-641.093 424.922,-679.036 479.033,-721.438 510.891,-746.109"/>
<polygon fill="black" stroke="black" stroke-width="1.5" points="508.824,-748.935 518.876,-752.282 513.105,-743.397 508.824,-748.935"/>
</g>
<!-- AS1764&#45;&gt;AS2914 -->
<g id="edge39" class="edge"><title>AS1764&#45;&gt;AS2914</title>
<path fill="none" stroke="black" stroke-width="2.25" d="M340.691,-582.129C381.399,-590.161 448.083,-603.319 492.544,-612.091"/>
<polygon fill="black" stroke="black" stroke-width="2.25" points="492.018,-615.555 502.507,-614.057 493.374,-608.687 492.018,-615.555"/>
</g>
<!-- AS1764&#45;&gt;AS3356 -->
<g id="edge38" class="edge"><title>AS1764&#45;&gt;AS3356</title>
<path fill="none" stroke="black" stroke-width="4.5" d="M343.366,-572.563C374.744,-569.968 420.126,-565.011 458.969,-556.093 472.151,-553.066 486.221,-548.669 498.789,-544.3"/>
<polygon fill="black" stroke="black" stroke-width="4.5" points="500.409,-547.902 508.5,-540.828 497.758,-540.486 500.409,-547.902"/>
</g>
<!-- AS1764&#45;&gt;AS3257 -->
<g id="edge40" class="edge"><title>AS1764&#45;&gt;AS3257</title>
<path fill="none" stroke="black" stroke-width="3" d="M331.434,-588.348C345.628,-595.341 363.492,-603.932 379.676,-611.093 419.761,-628.829 466.357,-647.406 498.602,-659.948"/>
<polygon fill="black" stroke="black" stroke-width="3" points="497.536,-663.289 508.125,-663.639 500.066,-656.762 497.536,-663.289"/>
</g>
<!-- AS1764&#45;&gt;AS3320 -->
<g id="edge43" class="edge"><title>AS1764&#45;&gt;AS3320</title>
<path fill="none" stroke="black" stroke-width="3" d="M317.58,-558.055C326.254,-545.436 337.334,-527.484 343.676,-510.093 377.469,-417.422 346.204,-383.879 379.676,-291.093 414.101,-195.664 434.68,-175.683 494.969,-94.0926 500.87,-86.107 507.931,-77.9542 514.618,-70.7294"/>
<polygon fill="black" stroke="black" stroke-width="3" points="517.315,-72.9714 521.654,-63.3057 512.234,-68.156 517.315,-72.9714"/>
</g>
</g>
</svg>
