<?xml version="1.0" encoding="UTF-8" standalone="no"?>
<!DOCTYPE svg PUBLIC "-//W3C//DTD SVG 1.1//EN"
 "http://www.w3.org/Graphics/SVG/1.1/DTD/svg11.dtd">
<!-- Generated by graphviz version 2.38.0 (20140413.2041)
 -->
<!-- Title: AS43771 IPv4 Upstream Graph Pages: 1 -->
<svg width="585pt" height="665pt"
 viewBox="0.00 0.00 584.86 665.00" xmlns="http://www.w3.org/2000/svg" xmlns:xlink="http://www.w3.org/1999/xlink">
<g id="graph0" class="graph" transform="scale(1 1) rotate(0) translate(4 661)">
<title>AS43771 IPv4 Upstream Graph</title>
<polygon fill="white" stroke="none" points="-4,4 -4,-661 580.862,-661 580.862,4 -4,4"/>
<!-- AS43771 -->
<g id="node1" class="node"><title>AS43771</title>
<g id="a_node1"><a xlink:href="/asn/43771" xlink:title="AS43771 ~ MUKI&#45;AS [AT]">
<ellipse fill="#ffffff" stroke="black" cx="44.1961" cy="-220" rx="44.393" ry="18"/>
<text text-anchor="middle" x="44.1961" y="-216.3" font-family="Times,serif" font-size="14.00" fill="#880000">AS43771</text>
</a>
</g>
</g>
<!-- AS39878 -->
<g id="node2" class="node"><title>AS39878</title>
<g id="a_node2"><a xlink:href="/asn/39878" xlink:title="AS39878 ~ Peter Rauter GmbH [AT]">
<ellipse fill="#ffffff" stroke="black" cx="168.588" cy="-220" rx="44.393" ry="18"/>
<text text-anchor="middle" x="168.588" y="-216.3" font-family="Times,serif" font-size="14.00" fill="#2c94b3">AS39878</text>
</a>
</g>
</g>
<!-- AS43771&#45;&gt;AS39878 -->
<g id="edge1" class="edge"><title>AS43771&#45;&gt;AS39878</title>
<path fill="none" stroke="black" stroke-width="4.5" d="M88.6916,-220C96.898,-220 105.569,-220 114.041,-220"/>
<polygon fill="black" stroke="black" stroke-width="4.5" points="114.233,-223.938 124.233,-220 114.233,-216.063 114.233,-223.938"/>
</g>
<!-- AS1299 -->
<g id="node3" class="node"><title>AS1299</title>
<g id="a_node3"><a xlink:href="/asn/1299" xlink:title="AS1299 ~ Telia Carrier [EU]">
<ellipse fill="#ffffff" stroke="black" cx="292.98" cy="-261" rx="39.7935" ry="18"/>
<text text-anchor="middle" x="292.98" y="-257.3" font-family="Times,serif" font-size="14.00" fill="#2c94b3">AS1299</text>
</a>
</g>
</g>
<!-- AS39878&#45;&gt;AS1299 -->
<g id="edge2" class="edge"><title>AS39878&#45;&gt;AS1299</title>
<path fill="none" stroke="black" stroke-width="2.8125" d="M203.356,-231.312C217.983,-236.212 235.246,-241.994 250.631,-247.148"/>
<polygon fill="black" stroke="black" stroke-width="2.8125" points="249.83,-250.571 260.424,-250.429 252.054,-243.934 249.83,-250.571"/>
</g>
<!-- AS174 -->
<g id="node4" class="node"><title>AS174</title>
<g id="a_node4"><a xlink:href="/asn/174" xlink:title="AS174 ~ Cogent Communications [US]">
<ellipse fill="#ffffff" stroke="black" cx="292.98" cy="-450" rx="35.194" ry="18"/>
<text text-anchor="middle" x="292.98" y="-446.3" font-family="Times,serif" font-size="14.00" fill="#2c94b3">AS174</text>
</a>
</g>
</g>
<!-- AS39878&#45;&gt;AS174 -->
<g id="edge3" class="edge"><title>AS39878&#45;&gt;AS174</title>
<path fill="none" stroke="black" stroke-width="4.5" d="M178.989,-237.666C200.355,-277.817 252.663,-376.115 277.903,-423.546"/>
<polygon fill="black" stroke="black" stroke-width="4.5" points="274.541,-425.611 282.715,-432.589 281.493,-421.911 274.541,-425.611"/>
</g>
<!-- AS8245 -->
<g id="node5" class="node"><title>AS8245</title>
<g id="a_node5"><a xlink:href="/asn/8245" xlink:title="AS8245 ~ Video&#45;Broadcast GmbH [AT]">
<ellipse fill="#ffffff" stroke="black" cx="292.98" cy="-180" rx="39.7935" ry="18"/>
<text text-anchor="middle" x="292.98" y="-176.3" font-family="Times,serif" font-size="14.00" fill="#2c94b3">AS8245</text>
</a>
</g>
</g>
<!-- AS39878&#45;&gt;AS8245 -->
<g id="edge4" class="edge"><title>AS39878&#45;&gt;AS8245</title>
<path fill="none" stroke="black" stroke-width="0.5625" d="M203.681,-208.858C218.187,-204.117 235.239,-198.544 250.469,-193.567"/>
<polygon fill="black" stroke="black" stroke-width="0.5625" points="251.752,-196.83 260.17,-190.396 249.578,-190.176 251.752,-196.83"/>
</g>
<!-- AS33891 -->
<g id="node6" class="node"><title>AS33891</title>
<g id="a_node6"><a xlink:href="/asn/33891" xlink:title="AS33891 ~ CORE&#45;BACKBONE GMBH GLOBAL NETWORK [DE]">
<ellipse fill="#ffffff" stroke="black" cx="292.98" cy="-99" rx="44.393" ry="18"/>
<text text-anchor="middle" x="292.98" y="-95.3" font-family="Times,serif" font-size="14.00" fill="#2c94b3">AS33891</text>
</a>
</g>
</g>
<!-- AS39878&#45;&gt;AS33891 -->
<g id="edge5" class="edge"><title>AS39878&#45;&gt;AS33891</title>
<path fill="none" stroke="black" stroke-width="2.25" d="M186.35,-203.429C207.381,-182.637 243.602,-146.828 267.675,-123.029"/>
<polygon fill="black" stroke="black" stroke-width="2.25" points="270.378,-125.279 275.029,-115.759 265.456,-120.301 270.378,-125.279"/>
</g>
<!-- AS2914 -->
<g id="node7" class="node"><title>AS2914</title>
<g id="a_node7"><a xlink:href="/asn/2914" xlink:title="AS2914 ~ NTT America, Inc. [US]">
<ellipse fill="#ffffff" stroke="black" cx="417.373" cy="-369" rx="39.7935" ry="18"/>
<text text-anchor="middle" x="417.373" y="-365.3" font-family="Times,serif" font-size="14.00" fill="#2c94b3">AS2914</text>
</a>
</g>
</g>
<!-- AS1299&#45;&gt;AS2914 -->
<g id="edge15" class="edge"><title>AS1299&#45;&gt;AS2914</title>
<path fill="none" stroke="black" d="M308.133,-277.663C323.234,-294.894 348.355,-322.024 373.176,-342 376.432,-344.62 379.957,-347.192 383.542,-349.646"/>
<polygon fill="black" stroke="black" points="381.629,-352.577 391.914,-355.121 385.46,-346.719 381.629,-352.577"/>
</g>
<!-- AS1239 -->
<g id="node10" class="node"><title>AS1239</title>
<g id="a_node10"><a xlink:href="/asn/1239" xlink:title="AS1239 ~ Sprint [US]">
<ellipse fill="#ffffff" stroke="black" cx="417.373" cy="-315" rx="39.7935" ry="18"/>
<text text-anchor="middle" x="417.373" y="-311.3" font-family="Times,serif" font-size="14.00" fill="#2c94b3">AS1239</text>
</a>
</g>
</g>
<!-- AS1299&#45;&gt;AS1239 -->
<g id="edge17" class="edge"><title>AS1299&#45;&gt;AS1239</title>
<path fill="none" stroke="black" d="M322.06,-273.389C339.008,-280.866 360.805,-290.483 379.174,-298.588"/>
<polygon fill="black" stroke="black" points="377.862,-301.834 388.424,-302.669 380.688,-295.43 377.862,-301.834"/>
</g>
<!-- AS2497 -->
<g id="node16" class="node"><title>AS2497</title>
<g id="a_node16"><a xlink:href="/asn/2497" xlink:title="AS2497 ~ Internet Initiative Japan Inc. [JP]">
<ellipse fill="#ffffff" stroke="black" cx="417.373" cy="-261" rx="39.7935" ry="18"/>
<text text-anchor="middle" x="417.373" y="-257.3" font-family="Times,serif" font-size="14.00" fill="#2c94b3">AS2497</text>
</a>
</g>
</g>
<!-- AS1299&#45;&gt;AS2497 -->
<g id="edge16" class="edge"><title>AS1299&#45;&gt;AS2497</title>
<path fill="none" stroke="black" d="M332.706,-261C343.644,-261 355.695,-261 367.161,-261"/>
<polygon fill="black" stroke="black" points="367.479,-264.5 377.479,-261 367.479,-257.5 367.479,-264.5"/>
</g>
<!-- AS7018 -->
<g id="node17" class="node"><title>AS7018</title>
<g id="a_node17"><a xlink:href="/asn/7018" xlink:title="AS7018 ~ AT&amp;T Services, Inc. [US]">
<ellipse fill="#ffffff" stroke="black" cx="417.373" cy="-207" rx="39.7935" ry="18"/>
<text text-anchor="middle" x="417.373" y="-203.3" font-family="Times,serif" font-size="14.00" fill="#2c94b3">AS7018</text>
</a>
</g>
</g>
<!-- AS1299&#45;&gt;AS7018 -->
<g id="edge18" class="edge"><title>AS1299&#45;&gt;AS7018</title>
<path fill="none" stroke="black" d="M322.06,-248.611C339.008,-241.134 360.805,-231.517 379.174,-223.412"/>
<polygon fill="black" stroke="black" points="380.688,-226.57 388.424,-219.331 377.862,-220.166 380.688,-226.57"/>
</g>
<!-- AS174&#45;&gt;AS2914 -->
<g id="edge6" class="edge"><title>AS174&#45;&gt;AS2914</title>
<path fill="none" stroke="black" d="M314.671,-435.56C330.563,-424.551 353.113,-409.103 373.176,-396 376.758,-393.661 380.529,-391.241 384.289,-388.856"/>
<polygon fill="black" stroke="black" points="386.352,-391.693 392.95,-383.404 382.623,-385.769 386.352,-391.693"/>
</g>
<!-- AS12956 -->
<g id="node8" class="node"><title>AS12956</title>
<g id="a_node8"><a xlink:href="/asn/12956" xlink:title="AS12956 ~ TELXIUS [ES]">
<ellipse fill="#ffffff" stroke="black" cx="417.373" cy="-585" rx="44.393" ry="18"/>
<text text-anchor="middle" x="417.373" y="-581.3" font-family="Times,serif" font-size="14.00" fill="#2c94b3">AS12956</text>
</a>
</g>
</g>
<!-- AS174&#45;&gt;AS12956 -->
<g id="edge7" class="edge"><title>AS174&#45;&gt;AS12956</title>
<path fill="none" stroke="black" d="M303.793,-467.279C317.299,-490.011 343.359,-530.314 373.176,-558 375.783,-560.42 378.637,-562.746 381.595,-564.948"/>
<polygon fill="black" stroke="black" points="379.873,-568.012 390.095,-570.8 383.843,-562.246 379.873,-568.012"/>
</g>
<!-- AS3491 -->
<g id="node9" class="node"><title>AS3491</title>
<g id="a_node9"><a xlink:href="/asn/3491" xlink:title="AS3491 ~ PCCW Global, Inc. [US]">
<ellipse fill="#ffffff" stroke="black" cx="417.373" cy="-531" rx="39.7935" ry="18"/>
<text text-anchor="middle" x="417.373" y="-527.3" font-family="Times,serif" font-size="14.00" fill="#2c94b3">AS3491</text>
</a>
</g>
</g>
<!-- AS174&#45;&gt;AS3491 -->
<g id="edge8" class="edge"><title>AS174&#45;&gt;AS3491</title>
<path fill="none" stroke="black" d="M314.671,-464.44C330.563,-475.449 353.113,-490.897 373.176,-504 376.758,-506.339 380.529,-508.759 384.289,-511.144"/>
<polygon fill="black" stroke="black" points="382.623,-514.231 392.95,-516.596 386.352,-508.307 382.623,-514.231"/>
</g>
<!-- AS174&#45;&gt;AS1239 -->
<g id="edge9" class="edge"><title>AS174&#45;&gt;AS1239</title>
<path fill="none" stroke="black" d="M303.793,-432.721C317.299,-409.989 343.359,-369.686 373.176,-342 376.083,-339.301 379.296,-336.72 382.62,-334.297"/>
<polygon fill="black" stroke="black" points="384.679,-337.13 390.998,-328.625 380.755,-331.333 384.679,-337.13"/>
</g>
<!-- AS701 -->
<g id="node11" class="node"><title>AS701</title>
<g id="a_node11"><a xlink:href="/asn/701" xlink:title="AS701 ~ UUNET [US]">
<ellipse fill="#ffffff" stroke="black" cx="417.373" cy="-477" rx="35.194" ry="18"/>
<text text-anchor="middle" x="417.373" y="-473.3" font-family="Times,serif" font-size="14.00" fill="#2c94b3">AS701</text>
</a>
</g>
</g>
<!-- AS174&#45;&gt;AS701 -->
<g id="edge10" class="edge"><title>AS174&#45;&gt;AS701</title>
<path fill="none" stroke="black" d="M325.499,-456.953C340.632,-460.292 358.96,-464.335 375.18,-467.913"/>
<polygon fill="black" stroke="black" points="374.441,-471.334 384.96,-470.07 375.949,-464.498 374.441,-471.334"/>
</g>
<!-- AS6453 -->
<g id="node12" class="node"><title>AS6453</title>
<g id="a_node12"><a xlink:href="/asn/6453" xlink:title="AS6453 ~ TATA COMMUNICATIONS (AMERICA) INC [US]">
<ellipse fill="#ffffff" stroke="black" cx="417.373" cy="-423" rx="39.7935" ry="18"/>
<text text-anchor="middle" x="417.373" y="-419.3" font-family="Times,serif" font-size="14.00" fill="#2c94b3">AS6453</text>
</a>
</g>
</g>
<!-- AS174&#45;&gt;AS6453 -->
<g id="edge11" class="edge"><title>AS174&#45;&gt;AS6453</title>
<path fill="none" stroke="black" d="M325.499,-443.047C339.56,-439.945 356.378,-436.235 371.702,-432.854"/>
<polygon fill="black" stroke="black" points="372.501,-436.262 381.512,-430.69 370.993,-429.427 372.501,-436.262"/>
</g>
<!-- AS6762 -->
<g id="node13" class="node"><title>AS6762</title>
<g id="a_node13"><a xlink:href="/asn/6762" xlink:title="AS6762 ~ TELECOM ITALIA SPARKLE S.p.A. [IT]">
<ellipse fill="#ffffff" stroke="black" cx="417.373" cy="-639" rx="39.7935" ry="18"/>
<text text-anchor="middle" x="417.373" y="-635.3" font-family="Times,serif" font-size="14.00" fill="#2c94b3">AS6762</text>
</a>
</g>
</g>
<!-- AS174&#45;&gt;AS6762 -->
<g id="edge12" class="edge"><title>AS174&#45;&gt;AS6762</title>
<path fill="none" stroke="black" d="M299.118,-467.94C309.021,-499.979 333.359,-567.812 373.176,-612 375.693,-614.792 378.564,-617.401 381.603,-619.812"/>
<polygon fill="black" stroke="black" points="379.732,-622.776 389.911,-625.715 383.786,-617.07 379.732,-622.776"/>
</g>
<!-- AS8218 -->
<g id="node14" class="node"><title>AS8218</title>
<g id="a_node14"><a xlink:href="/asn/8218" xlink:title="AS8218 ~ legacy Neotelecoms [FR]">
<ellipse fill="#ffffff" stroke="black" cx="417.373" cy="-153" rx="39.7935" ry="18"/>
<text text-anchor="middle" x="417.373" y="-149.3" font-family="Times,serif" font-size="14.00" fill="#2c94b3">AS8218</text>
</a>
</g>
</g>
<!-- AS8245&#45;&gt;AS8218 -->
<g id="edge13" class="edge"><title>AS8245&#45;&gt;AS8218</title>
<path fill="none" stroke="black" d="M329.053,-172.263C342.24,-169.354 357.42,-166.005 371.386,-162.924"/>
<polygon fill="black" stroke="black" points="372.284,-166.31 381.295,-160.738 370.776,-159.475 372.284,-166.31"/>
</g>
<!-- AS3257 -->
<g id="node18" class="node"><title>AS3257</title>
<g id="a_node18"><a xlink:href="/asn/3257" xlink:title="AS3257 ~ GTT [DE]">
<ellipse fill="#ffffff" stroke="black" cx="417.373" cy="-99" rx="39.7935" ry="18"/>
<text text-anchor="middle" x="417.373" y="-95.3" font-family="Times,serif" font-size="14.00" fill="#2c94b3">AS3257</text>
</a>
</g>
</g>
<!-- AS33891&#45;&gt;AS3257 -->
<g id="edge19" class="edge"><title>AS33891&#45;&gt;AS3257</title>
<path fill="none" stroke="black" d="M337.476,-99C347.165,-99 357.502,-99 367.394,-99"/>
<polygon fill="black" stroke="black" points="367.497,-102.5 377.497,-99 367.497,-95.5001 367.497,-102.5"/>
</g>
<!-- AS3356 -->
<g id="node19" class="node"><title>AS3356</title>
<g id="a_node19"><a xlink:href="/asn/3356" xlink:title="AS3356 ~ Level 3 Parent, LLC [US]">
<ellipse fill="#ffffff" stroke="black" cx="417.373" cy="-45" rx="39.7935" ry="18"/>
<text text-anchor="middle" x="417.373" y="-41.3" font-family="Times,serif" font-size="14.00" fill="#2c94b3">AS3356</text>
</a>
</g>
</g>
<!-- AS33891&#45;&gt;AS3356 -->
<g id="edge20" class="edge"><title>AS33891&#45;&gt;AS3356</title>
<path fill="none" stroke="black" stroke-width="3" d="M323.608,-85.9281C340.203,-78.6065 361.062,-69.4033 378.795,-61.5792"/>
<polygon fill="black" stroke="black" stroke-width="3" points="380.543,-64.6339 388.279,-57.395 377.717,-58.2295 380.543,-64.6339"/>
</g>
<!-- AS6461 -->
<g id="node15" class="node"><title>AS6461</title>
<g id="a_node15"><a xlink:href="/asn/6461" xlink:title="AS6461 ~ Zayo Bandwidth [US]">
<ellipse fill="#ffffff" stroke="black" cx="537.215" cy="-153" rx="39.7935" ry="18"/>
<text text-anchor="middle" x="537.215" y="-149.3" font-family="Times,serif" font-size="14.00" fill="#2c94b3">AS6461</text>
</a>
</g>
</g>
<!-- AS8218&#45;&gt;AS6461 -->
<g id="edge14" class="edge"><title>AS8218&#45;&gt;AS6461</title>
<path fill="none" stroke="black" d="M457.285,-153C466.839,-153 477.188,-153 487.151,-153"/>
<polygon fill="black" stroke="black" points="487.343,-156.5 497.343,-153 487.343,-149.5 487.343,-156.5"/>
</g>
<!-- AS209 -->
<g id="node20" class="node"><title>AS209</title>
<g id="a_node20"><a xlink:href="/asn/209" xlink:title="AS209 ~ CenturyLink Communications, LLC [US]">
<ellipse fill="#ffffff" stroke="black" cx="537.215" cy="-18" rx="35.194" ry="18"/>
<text text-anchor="middle" x="537.215" y="-14.3" font-family="Times,serif" font-size="14.00" fill="#2c94b3">AS209</text>
</a>
</g>
</g>
<!-- AS3356&#45;&gt;AS209 -->
<g id="edge21" class="edge"><title>AS3356&#45;&gt;AS209</title>
<path fill="none" stroke="black" d="M453.092,-37.0451C466.184,-34.0454 481.207,-30.6035 494.847,-27.4781"/>
<polygon fill="black" stroke="black" points="495.989,-30.8074 504.955,-25.1624 494.425,-23.9842 495.989,-30.8074"/>
</g>
<!-- AS3549 -->
<g id="node21" class="node"><title>AS3549</title>
<g id="a_node21"><a xlink:href="/asn/3549" xlink:title="AS3549 ~ Level 3 Parent, LLC [US]">
<ellipse fill="#ffffff" stroke="black" cx="537.215" cy="-72" rx="39.7935" ry="18"/>
<text text-anchor="middle" x="537.215" y="-68.3" font-family="Times,serif" font-size="14.00" fill="#2c94b3">AS3549</text>
</a>
</g>
</g>
<!-- AS3356&#45;&gt;AS3549 -->
<g id="edge22" class="edge"><title>AS3356&#45;&gt;AS3549</title>
<path fill="none" stroke="black" d="M453.092,-52.9549C465.092,-55.7043 478.713,-58.8251 491.405,-61.7332"/>
<polygon fill="black" stroke="black" points="490.808,-65.1869 501.337,-64.0087 492.371,-58.3637 490.808,-65.1869"/>
</g>
</g>
</svg>
