<?xml version="1.0" encoding="UTF-8" standalone="no"?>
<!DOCTYPE svg PUBLIC "-//W3C//DTD SVG 1.1//EN"
 "http://www.w3.org/Graphics/SVG/1.1/DTD/svg11.dtd">
<!-- Generated by graphviz version 2.38.0 (20140413.2041)
 -->
<!-- Title: AS34964 Combined Upstream Graph Pages: 1 -->
<svg width="691pt" height="854pt"
 viewBox="0.00 0.00 691.06 854.00" xmlns="http://www.w3.org/2000/svg" xmlns:xlink="http://www.w3.org/1999/xlink">
<g id="graph0" class="graph" transform="scale(1 1) rotate(0) translate(4 850)">
<title>AS34964 Combined Upstream Graph</title>
<polygon fill="white" stroke="none" points="-4,4 -4,-850 687.055,-850 687.055,4 -4,4"/>
<!-- AS34964 -->
<g id="node1" class="node"><title>AS34964</title>
<g id="a_node1"><a xlink:href="/asn/34964" xlink:title="AS34964 ~ Ripe&#45;NetWorks e.U. [AT]">
<ellipse fill="#ffffff" stroke="black" cx="44.1961" cy="-359" rx="44.393" ry="18"/>
<text text-anchor="middle" x="44.1961" y="-355.3" font-family="Times,serif" font-size="14.00" fill="#880000">AS34964</text>
</a>
</g>
</g>
<!-- AS6830 -->
<g id="node2" class="node"><title>AS6830</title>
<g id="a_node2"><a xlink:href="/asn/6830" xlink:title="AS6830 ~ LGI&#45;UPC [AT]">
<ellipse fill="#ffffff" stroke="black" cx="403.724" cy="-423" rx="39.7935" ry="18"/>
<text text-anchor="middle" x="403.724" y="-419.3" font-family="Times,serif" font-size="14.00" fill="#2c94b3">AS6830</text>
</a>
</g>
</g>
<!-- AS34964&#45;&gt;AS6830 -->
<g id="edge1" class="edge"><title>AS34964&#45;&gt;AS6830</title>
<path fill="none" stroke="black" stroke-width="4.5" d="M84.8238,-366.094C151.54,-378.036 285.919,-402.091 356.702,-414.762"/>
<polygon fill="black" stroke="black" stroke-width="4.5" points="356.131,-418.66 366.669,-416.546 357.519,-410.908 356.131,-418.66"/>
</g>
<!-- AS8437 -->
<g id="node3" class="node"><title>AS8437</title>
<g id="a_node3"><a xlink:href="/asn/8437" xlink:title="AS8437 ~ Hutchison Drei Austria GmbH [AT]">
<ellipse fill="#ffffff" stroke="black" cx="164.039" cy="-329" rx="39.7935" ry="18"/>
<text text-anchor="middle" x="164.039" y="-325.3" font-family="Times,serif" font-size="14.00" fill="#2c94b3">AS8437</text>
</a>
</g>
</g>
<!-- AS34964&#45;&gt;AS8437 -->
<g id="edge2" class="edge"><title>AS34964&#45;&gt;AS8437</title>
<path fill="none" stroke="black" stroke-width="1.56522" d="M82.1589,-349.59C93.8657,-346.61 106.922,-343.286 119.07,-340.193"/>
<polygon fill="black" stroke="black" stroke-width="1.56522" points="120.184,-343.521 129.012,-337.662 118.457,-336.738 120.184,-343.521"/>
</g>
<!-- AS12956 -->
<g id="node4" class="node"><title>AS12956</title>
<g id="a_node4"><a xlink:href="/asn/12956" xlink:title="AS12956 ~ TELXIUS [ES]">
<ellipse fill="#ffffff" stroke="black" cx="523.566" cy="-450" rx="44.393" ry="18"/>
<text text-anchor="middle" x="523.566" y="-446.3" font-family="Times,serif" font-size="14.00" fill="#2c94b3">AS12956</text>
</a>
</g>
</g>
<!-- AS6830&#45;&gt;AS12956 -->
<g id="edge3" class="edge"><title>AS6830&#45;&gt;AS12956</title>
<path fill="none" stroke="black" stroke-width="2" d="M439.443,-430.955C450.582,-433.507 463.117,-436.379 475.01,-439.104"/>
<polygon fill="black" stroke="black" stroke-width="2" points="474.275,-442.526 484.804,-441.348 475.838,-435.703 474.275,-442.526"/>
</g>
<!-- AS3320 -->
<g id="node5" class="node"><title>AS3320</title>
<g id="a_node5"><a xlink:href="/asn/3320" xlink:title="AS3320 ~ DTAG [DE]">
<ellipse fill="#ffffff" stroke="black" cx="523.566" cy="-396" rx="39.7935" ry="18"/>
<text text-anchor="middle" x="523.566" y="-392.3" font-family="Times,serif" font-size="14.00" fill="#2c94b3">AS3320</text>
</a>
</g>
</g>
<!-- AS6830&#45;&gt;AS3320 -->
<g id="edge4" class="edge"><title>AS6830&#45;&gt;AS3320</title>
<path fill="none" stroke="black" d="M439.443,-415.045C451.443,-412.296 465.064,-409.175 477.756,-406.267"/>
<polygon fill="black" stroke="black" points="478.722,-409.636 487.688,-403.991 477.159,-402.813 478.722,-409.636"/>
</g>
<!-- AS7018 -->
<g id="node6" class="node"><title>AS7018</title>
<g id="a_node6"><a xlink:href="/asn/7018" xlink:title="AS7018 ~ AT&amp;T Services, Inc. [US]">
<ellipse fill="#ffffff" stroke="black" cx="523.566" cy="-828" rx="39.7935" ry="18"/>
<text text-anchor="middle" x="523.566" y="-824.3" font-family="Times,serif" font-size="14.00" fill="#2c94b3">AS7018</text>
</a>
</g>
</g>
<!-- AS6830&#45;&gt;AS7018 -->
<g id="edge5" class="edge"><title>AS6830&#45;&gt;AS7018</title>
<path fill="none" stroke="black" stroke-width="2" d="M406.39,-441.084C412.839,-508.004 437.892,-740.832 479.37,-801 481.328,-803.84 483.692,-806.441 486.292,-808.81"/>
<polygon fill="black" stroke="black" stroke-width="2" points="484.576,-811.905 494.635,-815.229 488.844,-806.357 484.576,-811.905"/>
</g>
<!-- AS6453 -->
<g id="node7" class="node"><title>AS6453</title>
<g id="a_node7"><a xlink:href="/asn/6453" xlink:title="AS6453 ~ TATA COMMUNICATIONS (AMERICA) INC [US]">
<ellipse fill="#ffffff" stroke="black" cx="523.566" cy="-774" rx="39.7935" ry="18"/>
<text text-anchor="middle" x="523.566" y="-770.3" font-family="Times,serif" font-size="14.00" fill="#2c94b3">AS6453</text>
</a>
</g>
</g>
<!-- AS6830&#45;&gt;AS6453 -->
<g id="edge6" class="edge"><title>AS6830&#45;&gt;AS6453</title>
<path fill="none" stroke="black" stroke-width="2" d="M404.272,-441.063C403.853,-493.503 409.007,-648.293 479.37,-747 481.372,-749.809 483.767,-752.388 486.388,-754.743"/>
<polygon fill="black" stroke="black" stroke-width="2" points="484.692,-757.852 494.764,-761.139 488.941,-752.288 484.692,-757.852"/>
</g>
<!-- AS3491 -->
<g id="node8" class="node"><title>AS3491</title>
<g id="a_node8"><a xlink:href="/asn/3491" xlink:title="AS3491 ~ PCCW Global, Inc. [US]">
<ellipse fill="#ffffff" stroke="black" cx="523.566" cy="-720" rx="39.7935" ry="18"/>
<text text-anchor="middle" x="523.566" y="-716.3" font-family="Times,serif" font-size="14.00" fill="#2c94b3">AS3491</text>
</a>
</g>
</g>
<!-- AS6830&#45;&gt;AS3491 -->
<g id="edge7" class="edge"><title>AS6830&#45;&gt;AS3491</title>
<path fill="none" stroke="black" stroke-width="2" d="M405.316,-441.023C407.692,-487.412 419.61,-612.893 479.37,-693 481.618,-696.013 484.309,-698.769 487.236,-701.272"/>
<polygon fill="black" stroke="black" stroke-width="2" points="485.267,-704.169 495.388,-707.303 489.431,-698.542 485.267,-704.169"/>
</g>
<!-- AS1239 -->
<g id="node9" class="node"><title>AS1239</title>
<g id="a_node9"><a xlink:href="/asn/1239" xlink:title="AS1239 ~ Sprint [US]">
<ellipse fill="#ffffff" stroke="black" cx="523.566" cy="-666" rx="39.7935" ry="18"/>
<text text-anchor="middle" x="523.566" y="-662.3" font-family="Times,serif" font-size="14.00" fill="#2c94b3">AS1239</text>
</a>
</g>
</g>
<!-- AS6830&#45;&gt;AS1239 -->
<g id="edge8" class="edge"><title>AS6830&#45;&gt;AS1239</title>
<path fill="none" stroke="black" d="M406.863,-441.17C412.363,-480.974 430.189,-577.233 479.37,-639 481.711,-641.94 484.466,-644.649 487.432,-647.121"/>
<polygon fill="black" stroke="black" points="485.497,-650.042 495.638,-653.11 489.624,-644.388 485.497,-650.042"/>
</g>
<!-- AS701 -->
<g id="node10" class="node"><title>AS701</title>
<g id="a_node10"><a xlink:href="/asn/701" xlink:title="AS701 ~ UUNET [US]">
<ellipse fill="#ffffff" stroke="black" cx="523.566" cy="-612" rx="35.194" ry="18"/>
<text text-anchor="middle" x="523.566" y="-608.3" font-family="Times,serif" font-size="14.00" fill="#2c94b3">AS701</text>
</a>
</g>
</g>
<!-- AS6830&#45;&gt;AS701 -->
<g id="edge9" class="edge"><title>AS6830&#45;&gt;AS701</title>
<path fill="none" stroke="black" stroke-width="2" d="M409.297,-440.946C418.202,-472.995 440.487,-540.842 479.37,-585 482.198,-588.211 485.499,-591.172 488.994,-593.864"/>
<polygon fill="black" stroke="black" stroke-width="2" points="487.151,-596.845 497.369,-599.645 491.128,-591.084 487.151,-596.845"/>
</g>
<!-- AS2497 -->
<g id="node11" class="node"><title>AS2497</title>
<g id="a_node11"><a xlink:href="/asn/2497" xlink:title="AS2497 ~ Internet Initiative Japan Inc. [JP]">
<ellipse fill="#ffffff" stroke="black" cx="523.566" cy="-558" rx="39.7935" ry="18"/>
<text text-anchor="middle" x="523.566" y="-554.3" font-family="Times,serif" font-size="14.00" fill="#2c94b3">AS2497</text>
</a>
</g>
</g>
<!-- AS6830&#45;&gt;AS2497 -->
<g id="edge10" class="edge"><title>AS6830&#45;&gt;AS2497</title>
<path fill="none" stroke="black" stroke-width="2" d="M413.965,-440.713C426.51,-463.561 450.687,-503.611 479.37,-531 482.238,-533.739 485.427,-536.347 488.736,-538.785"/>
<polygon fill="black" stroke="black" stroke-width="2" points="486.86,-541.742 497.096,-544.477 490.8,-535.956 486.86,-541.742"/>
</g>
<!-- AS1299 -->
<g id="node12" class="node"><title>AS1299</title>
<g id="a_node12"><a xlink:href="/asn/1299" xlink:title="AS1299 ~ Telia Carrier [EU]">
<ellipse fill="#ffffff" stroke="black" cx="523.566" cy="-180" rx="39.7935" ry="18"/>
<text text-anchor="middle" x="523.566" y="-176.3" font-family="Times,serif" font-size="14.00" fill="#2c94b3">AS1299</text>
</a>
</g>
</g>
<!-- AS6830&#45;&gt;AS1299 -->
<g id="edge11" class="edge"><title>AS6830&#45;&gt;AS1299</title>
<path fill="none" stroke="black" d="M411.471,-405.06C419.332,-384.032 432.615,-348.1 443.37,-317 460.183,-268.384 447.66,-247.504 479.37,-207 481.687,-204.04 484.425,-201.319 487.381,-198.839"/>
<polygon fill="black" stroke="black" points="489.574,-201.571 495.573,-192.838 485.438,-195.924 489.574,-201.571"/>
</g>
<!-- AS174 -->
<g id="node13" class="node"><title>AS174</title>
<g id="a_node13"><a xlink:href="/asn/174" xlink:title="AS174 ~ Cogent Communications [US]">
<ellipse fill="#ffffff" stroke="black" cx="523.566" cy="-126" rx="35.194" ry="18"/>
<text text-anchor="middle" x="523.566" y="-122.3" font-family="Times,serif" font-size="14.00" fill="#2c94b3">AS174</text>
</a>
</g>
</g>
<!-- AS6830&#45;&gt;AS174 -->
<g id="edge12" class="edge"><title>AS6830&#45;&gt;AS174</title>
<path fill="none" stroke="black" d="M412.028,-405.237C420.412,-384.375 434.186,-348.6 443.37,-317 464.197,-245.341 436.369,-213.989 479.37,-153 481.836,-149.504 484.911,-146.364 488.279,-143.572"/>
<polygon fill="black" stroke="black" points="490.418,-146.346 496.518,-137.683 486.347,-140.651 490.418,-146.346"/>
</g>
<!-- AS3356 -->
<g id="node14" class="node"><title>AS3356</title>
<g id="a_node14"><a xlink:href="/asn/3356" xlink:title="AS3356 ~ Level 3 Parent, LLC [US]">
<ellipse fill="#ffffff" stroke="black" cx="523.566" cy="-288" rx="39.7935" ry="18"/>
<text text-anchor="middle" x="523.566" y="-284.3" font-family="Times,serif" font-size="14.00" fill="#2c94b3">AS3356</text>
</a>
</g>
</g>
<!-- AS6830&#45;&gt;AS3356 -->
<g id="edge13" class="edge"><title>AS6830&#45;&gt;AS3356</title>
<path fill="none" stroke="black" stroke-width="3" d="M413.965,-405.287C426.51,-382.439 450.687,-342.389 479.37,-315 482.238,-312.261 485.427,-309.653 488.736,-307.215"/>
<polygon fill="black" stroke="black" stroke-width="3" points="490.8,-310.044 497.096,-301.523 486.86,-304.258 490.8,-310.044"/>
</g>
<!-- AS2914 -->
<g id="node15" class="node"><title>AS2914</title>
<g id="a_node15"><a xlink:href="/asn/2914" xlink:title="AS2914 ~ NTT America, Inc. [US]">
<ellipse fill="#ffffff" stroke="black" cx="523.566" cy="-72" rx="39.7935" ry="18"/>
<text text-anchor="middle" x="523.566" y="-68.3" font-family="Times,serif" font-size="14.00" fill="#2c94b3">AS2914</text>
</a>
</g>
</g>
<!-- AS6830&#45;&gt;AS2914 -->
<g id="edge14" class="edge"><title>AS6830&#45;&gt;AS2914</title>
<path fill="none" stroke="black" d="M412.323,-405.318C420.984,-384.533 435.017,-348.83 443.37,-317 468.297,-222.015 424.906,-180.713 479.37,-99 481.283,-96.13 483.616,-93.5078 486.196,-91.1246"/>
<polygon fill="black" stroke="black" points="488.747,-93.5756 494.506,-84.6827 484.458,-88.0432 488.747,-93.5756"/>
</g>
<!-- AS3257 -->
<g id="node16" class="node"><title>AS3257</title>
<g id="a_node16"><a xlink:href="/asn/3257" xlink:title="AS3257 ~ GTT [DE]">
<ellipse fill="#ffffff" stroke="black" cx="523.566" cy="-234" rx="39.7935" ry="18"/>
<text text-anchor="middle" x="523.566" y="-230.3" font-family="Times,serif" font-size="14.00" fill="#2c94b3">AS3257</text>
</a>
</g>
</g>
<!-- AS6830&#45;&gt;AS3257 -->
<g id="edge15" class="edge"><title>AS6830&#45;&gt;AS3257</title>
<path fill="none" stroke="black" d="M411.47,-405.083C425.705,-367.91 459.161,-283.95 479.37,-261 481.854,-258.179 484.704,-255.551 487.729,-253.129"/>
<polygon fill="black" stroke="black" points="489.915,-255.869 496.019,-247.209 485.847,-250.172 489.915,-255.869"/>
</g>
<!-- AS6762 -->
<g id="node17" class="node"><title>AS6762</title>
<g id="a_node17"><a xlink:href="/asn/6762" xlink:title="AS6762 ~ TELECOM ITALIA SPARKLE S.p.A. [IT]">
<ellipse fill="#ffffff" stroke="black" cx="523.566" cy="-342" rx="39.7935" ry="18"/>
<text text-anchor="middle" x="523.566" y="-338.3" font-family="Times,serif" font-size="14.00" fill="#2c94b3">AS6762</text>
</a>
</g>
</g>
<!-- AS6830&#45;&gt;AS6762 -->
<g id="edge16" class="edge"><title>AS6830&#45;&gt;AS6762</title>
<path fill="none" stroke="black" d="M425.054,-407.723C439.916,-396.696 460.661,-381.593 479.37,-369 482.919,-366.611 486.67,-364.161 490.418,-361.758"/>
<polygon fill="black" stroke="black" points="492.486,-364.591 499.067,-356.288 488.744,-358.675 492.486,-364.591"/>
</g>
<!-- AS1273 -->
<g id="node18" class="node"><title>AS1273</title>
<g id="a_node18"><a xlink:href="/asn/1273" xlink:title="AS1273 ~ Vodafone Group PLC [EU]">
<ellipse fill="#ffffff" stroke="black" cx="523.566" cy="-504" rx="39.7935" ry="18"/>
<text text-anchor="middle" x="523.566" y="-500.3" font-family="Times,serif" font-size="14.00" fill="#2c94b3">AS1273</text>
</a>
</g>
</g>
<!-- AS6830&#45;&gt;AS1273 -->
<g id="edge17" class="edge"><title>AS6830&#45;&gt;AS1273</title>
<path fill="none" stroke="black" d="M425.054,-438.277C439.916,-449.304 460.661,-464.407 479.37,-477 482.919,-479.389 486.67,-481.839 490.418,-484.242"/>
<polygon fill="black" stroke="black" points="488.744,-487.325 499.067,-489.712 492.486,-481.409 488.744,-487.325"/>
</g>
<!-- AS25255 -->
<g id="node19" class="node"><title>AS25255</title>
<g id="a_node19"><a xlink:href="/asn/25255" xlink:title="AS25255 ~ ==&gt; TELE2 AUSTRIA &lt;== [AT]">
<ellipse fill="#ffffff" stroke="black" cx="283.881" cy="-298" rx="44.393" ry="18"/>
<text text-anchor="middle" x="283.881" y="-294.3" font-family="Times,serif" font-size="14.00" fill="#2c94b3">AS25255</text>
</a>
</g>
</g>
<!-- AS8437&#45;&gt;AS25255 -->
<g id="edge18" class="edge"><title>AS8437&#45;&gt;AS25255</title>
<path fill="none" stroke="black" stroke-width="4.5" d="M198.808,-320.117C210.507,-317.039 223.835,-313.533 236.376,-310.234"/>
<polygon fill="black" stroke="black" stroke-width="4.5" points="237.55,-313.996 246.22,-307.644 235.547,-306.38 237.55,-313.996"/>
</g>
<!-- AS3549 -->
<g id="node22" class="node"><title>AS3549</title>
<g id="a_node22"><a xlink:href="/asn/3549" xlink:title="AS3549 ~ Level 3 Parent, LLC [US]">
<ellipse fill="#ffffff" stroke="black" cx="643.409" cy="-261" rx="39.7935" ry="18"/>
<text text-anchor="middle" x="643.409" y="-257.3" font-family="Times,serif" font-size="14.00" fill="#2c94b3">AS3549</text>
</a>
</g>
</g>
<!-- AS3356&#45;&gt;AS3549 -->
<g id="edge23" class="edge"><title>AS3356&#45;&gt;AS3549</title>
<path fill="none" stroke="black" stroke-width="2" d="M559.286,-280.045C571.285,-277.296 584.906,-274.175 597.599,-271.267"/>
<polygon fill="black" stroke="black" stroke-width="2" points="598.565,-274.636 607.531,-268.991 597.001,-267.813 598.565,-274.636"/>
</g>
<!-- AS209 -->
<g id="node23" class="node"><title>AS209</title>
<g id="a_node23"><a xlink:href="/asn/209" xlink:title="AS209 ~ CenturyLink Communications, LLC [US]">
<ellipse fill="#ffffff" stroke="black" cx="643.409" cy="-315" rx="35.194" ry="18"/>
<text text-anchor="middle" x="643.409" y="-311.3" font-family="Times,serif" font-size="14.00" fill="#2c94b3">AS209</text>
</a>
</g>
</g>
<!-- AS3356&#45;&gt;AS209 -->
<g id="edge24" class="edge"><title>AS3356&#45;&gt;AS209</title>
<path fill="none" stroke="black" d="M559.286,-295.955C572.378,-298.955 587.4,-302.396 601.041,-305.522"/>
<polygon fill="black" stroke="black" points="600.619,-309.016 611.148,-307.838 602.183,-302.193 600.619,-309.016"/>
</g>
<!-- AS25255&#45;&gt;AS6762 -->
<g id="edge21" class="edge"><title>AS25255&#45;&gt;AS6762</title>
<path fill="none" stroke="black" stroke-width="0.9" d="M321.815,-307.501C335.09,-310.746 350.208,-314.247 364.077,-317 401.144,-324.358 443.434,-330.938 475.001,-335.499"/>
<polygon fill="black" stroke="black" stroke-width="0.9" points="474.878,-339.017 485.273,-336.966 475.868,-332.087 474.878,-339.017"/>
</g>
<!-- AS8447 -->
<g id="node20" class="node"><title>AS8447</title>
<g id="a_node20"><a xlink:href="/asn/8447" xlink:title="AS8447 ~ A1 Telekom Austria AG [AT]">
<ellipse fill="#ffffff" stroke="black" cx="403.724" cy="-290" rx="39.7935" ry="18"/>
<text text-anchor="middle" x="403.724" y="-286.3" font-family="Times,serif" font-size="14.00" fill="#2c94b3">AS8447</text>
</a>
</g>
</g>
<!-- AS25255&#45;&gt;AS8447 -->
<g id="edge19" class="edge"><title>AS25255&#45;&gt;AS8447</title>
<path fill="none" stroke="black" stroke-width="1.8" d="M327.758,-295.089C336.367,-294.505 345.47,-293.887 354.253,-293.291"/>
<polygon fill="black" stroke="black" stroke-width="1.8" points="354.628,-296.773 364.368,-292.604 354.154,-289.789 354.628,-296.773"/>
</g>
<!-- AS1764 -->
<g id="node21" class="node"><title>AS1764</title>
<g id="a_node21"><a xlink:href="/asn/1764" xlink:title="AS1764 ~ NEXTLAYER&#45;AS [AT]">
<ellipse fill="#ffffff" stroke="black" cx="403.724" cy="-153" rx="39.7935" ry="18"/>
<text text-anchor="middle" x="403.724" y="-149.3" font-family="Times,serif" font-size="14.00" fill="#2c94b3">AS1764</text>
</a>
</g>
</g>
<!-- AS25255&#45;&gt;AS1764 -->
<g id="edge20" class="edge"><title>AS25255&#45;&gt;AS1764</title>
<path fill="none" stroke="black" stroke-width="4.5" d="M298.862,-280.797C319.504,-255.398 358.264,-207.705 382.153,-178.311"/>
<polygon fill="black" stroke="black" stroke-width="4.5" points="385.51,-180.424 388.761,-170.18 379.399,-175.457 385.51,-180.424"/>
</g>
<!-- AS8447&#45;&gt;AS3356 -->
<g id="edge22" class="edge"><title>AS8447&#45;&gt;AS3356</title>
<path fill="none" stroke="black" stroke-width="2" d="M443.636,-289.34C453.19,-289.177 463.539,-289.002 473.502,-288.833"/>
<polygon fill="black" stroke="black" stroke-width="2" points="473.755,-292.329 483.695,-288.66 473.637,-285.33 473.755,-292.329"/>
</g>
<!-- AS1764&#45;&gt;AS1299 -->
<g id="edge26" class="edge"><title>AS1764&#45;&gt;AS1299</title>
<path fill="none" stroke="black" d="M439.443,-160.955C451.443,-163.704 465.064,-166.825 477.756,-169.733"/>
<polygon fill="black" stroke="black" points="477.159,-173.187 487.688,-172.009 478.722,-166.364 477.159,-173.187"/>
</g>
<!-- AS1764&#45;&gt;AS174 -->
<g id="edge29" class="edge"><title>AS1764&#45;&gt;AS174</title>
<path fill="none" stroke="black" d="M439.443,-145.045C452.536,-142.045 467.558,-138.604 481.199,-135.478"/>
<polygon fill="black" stroke="black" points="482.34,-138.807 491.306,-133.162 480.777,-131.984 482.34,-138.807"/>
</g>
<!-- AS1764&#45;&gt;AS2914 -->
<g id="edge28" class="edge"><title>AS1764&#45;&gt;AS2914</title>
<path fill="none" stroke="black" d="M425.054,-137.723C439.916,-126.696 460.661,-111.593 479.37,-99 482.919,-96.6111 486.67,-94.1609 490.418,-91.7579"/>
<polygon fill="black" stroke="black" points="492.486,-94.5912 499.067,-86.2876 488.744,-88.6753 492.486,-94.5912"/>
</g>
<!-- AS1764&#45;&gt;AS3257 -->
<g id="edge27" class="edge"><title>AS1764&#45;&gt;AS3257</title>
<path fill="none" stroke="black" d="M425.054,-168.277C439.916,-179.304 460.661,-194.407 479.37,-207 482.919,-209.389 486.67,-211.839 490.418,-214.242"/>
<polygon fill="black" stroke="black" points="488.744,-217.325 499.067,-219.712 492.486,-211.409 488.744,-217.325"/>
</g>
<!-- AS8218 -->
<g id="node24" class="node"><title>AS8218</title>
<g id="a_node24"><a xlink:href="/asn/8218" xlink:title="AS8218 ~ legacy Neotelecoms [FR]">
<ellipse fill="#ffffff" stroke="black" cx="523.566" cy="-18" rx="39.7935" ry="18"/>
<text text-anchor="middle" x="523.566" y="-14.3" font-family="Times,serif" font-size="14.00" fill="#2c94b3">AS8218</text>
</a>
</g>
</g>
<!-- AS1764&#45;&gt;AS8218 -->
<g id="edge25" class="edge"><title>AS1764&#45;&gt;AS8218</title>
<path fill="none" stroke="black" d="M413.965,-135.287C426.51,-112.439 450.687,-72.3891 479.37,-45 482.238,-42.2611 485.427,-39.6533 488.736,-37.2147"/>
<polygon fill="black" stroke="black" points="490.8,-40.0442 497.096,-31.523 486.86,-34.2581 490.8,-40.0442"/>
</g>
<!-- AS6461 -->
<g id="node25" class="node"><title>AS6461</title>
<g id="a_node25"><a xlink:href="/asn/6461" xlink:title="AS6461 ~ Zayo Bandwidth [US]">
<ellipse fill="#ffffff" stroke="black" cx="643.409" cy="-18" rx="39.7935" ry="18"/>
<text text-anchor="middle" x="643.409" y="-14.3" font-family="Times,serif" font-size="14.00" fill="#2c94b3">AS6461</text>
</a>
</g>
</g>
<!-- AS8218&#45;&gt;AS6461 -->
<g id="edge30" class="edge"><title>AS8218&#45;&gt;AS6461</title>
<path fill="none" stroke="black" d="M563.479,-18C573.032,-18 583.382,-18 593.345,-18"/>
<polygon fill="black" stroke="black" points="593.537,-21.5001 603.537,-18 593.537,-14.5001 593.537,-21.5001"/>
</g>
</g>
</svg>
