<?xml version="1.0" encoding="UTF-8" standalone="no"?>
<!DOCTYPE svg PUBLIC "-//W3C//DTD SVG 1.1//EN"
 "http://www.w3.org/Graphics/SVG/1.1/DTD/svg11.dtd">
<!-- Generated by graphviz version 2.38.0 (20140413.2041)
 -->
<!-- Title: AS62156 IPv6 Upstream Graph Pages: 1 -->
<svg width="709pt" height="514pt"
 viewBox="0.00 0.00 709.25 514.00" xmlns="http://www.w3.org/2000/svg" xmlns:xlink="http://www.w3.org/1999/xlink">
<g id="graph0" class="graph" transform="scale(1 1) rotate(0) translate(4 510)">
<title>AS62156 IPv6 Upstream Graph</title>
<polygon fill="white" stroke="none" points="-4,4 -4,-510 705.254,-510 705.254,4 -4,4"/>
<!-- AS62156 -->
<g id="node1" class="node"><title>AS62156</title>
<g id="a_node1"><a xlink:href="/asn/62156" xlink:title="AS62156 ~ HXS GmbH [AT]">
<ellipse fill="#ffffff" stroke="black" cx="44.1961" cy="-207" rx="44.393" ry="18"/>
<text text-anchor="middle" x="44.1961" y="-203.3" font-family="Times,serif" font-size="14.00" fill="#880000">AS62156</text>
</a>
</g>
</g>
<!-- AS48943 -->
<g id="node2" class="node"><title>AS48943</title>
<g id="a_node2"><a xlink:href="/asn/48943" xlink:title="AS48943 ~ KAPPER NETWORK&#45;COMMUNICATIONS GmbH [AT]">
<ellipse fill="#ffffff" stroke="black" cx="168.588" cy="-207" rx="44.393" ry="18"/>
<text text-anchor="middle" x="168.588" y="-203.3" font-family="Times,serif" font-size="14.00" fill="#2c94b3">AS48943</text>
</a>
</g>
</g>
<!-- AS62156&#45;&gt;AS48943 -->
<g id="edge1" class="edge"><title>AS62156&#45;&gt;AS48943</title>
<path fill="none" stroke="black" stroke-width="4.5" d="M88.6916,-207C96.898,-207 105.569,-207 114.041,-207"/>
<polygon fill="black" stroke="black" stroke-width="4.5" points="114.233,-210.938 124.233,-207 114.233,-203.063 114.233,-210.938"/>
</g>
<!-- AS8218 -->
<g id="node3" class="node"><title>AS8218</title>
<g id="a_node3"><a xlink:href="/asn/8218" xlink:title="AS8218 ~ legacy Neotelecoms [FR]">
<ellipse fill="#ffffff" stroke="black" cx="292.98" cy="-342" rx="39.7935" ry="18"/>
<text text-anchor="middle" x="292.98" y="-338.3" font-family="Times,serif" font-size="14.00" fill="#2c94b3">AS8218</text>
</a>
</g>
</g>
<!-- AS48943&#45;&gt;AS8218 -->
<g id="edge2" class="edge"><title>AS48943&#45;&gt;AS8218</title>
<path fill="none" stroke="black" stroke-width="3.6" d="M184.842,-223.825C206.305,-247.499 245.536,-290.771 270.104,-317.87"/>
<polygon fill="black" stroke="black" stroke-width="3.6" points="267.609,-320.329 276.919,-325.387 272.795,-315.628 267.609,-320.329"/>
</g>
<!-- AS47147 -->
<g id="node4" class="node"><title>AS47147</title>
<g id="a_node4"><a xlink:href="/asn/47147" xlink:title="AS47147 ~ ANEXIA Internetdienstleistungs GmbH [AT]">
<ellipse fill="#ffffff" stroke="black" cx="292.98" cy="-207" rx="44.393" ry="18"/>
<text text-anchor="middle" x="292.98" y="-203.3" font-family="Times,serif" font-size="14.00" fill="#2c94b3">AS47147</text>
</a>
</g>
</g>
<!-- AS48943&#45;&gt;AS47147 -->
<g id="edge3" class="edge"><title>AS48943&#45;&gt;AS47147</title>
<path fill="none" stroke="black" stroke-width="4.5" d="M213.084,-207C221.29,-207 229.961,-207 238.434,-207"/>
<polygon fill="black" stroke="black" stroke-width="4.5" points="238.625,-210.938 248.625,-207 238.625,-203.063 238.625,-210.938"/>
</g>
<!-- AS8437 -->
<g id="node5" class="node"><title>AS8437</title>
<g id="a_node5"><a xlink:href="/asn/8437" xlink:title="AS8437 ~ Hutchison Drei Austria GmbH [AT]">
<ellipse fill="#ffffff" stroke="black" cx="292.98" cy="-99" rx="39.7935" ry="18"/>
<text text-anchor="middle" x="292.98" y="-95.3" font-family="Times,serif" font-size="14.00" fill="#2c94b3">AS8437</text>
</a>
</g>
</g>
<!-- AS48943&#45;&gt;AS8437 -->
<g id="edge4" class="edge"><title>AS48943&#45;&gt;AS8437</title>
<path fill="none" stroke="black" stroke-width="0.9" d="M188.177,-190.597C208.994,-172.228 242.87,-142.335 266.23,-121.722"/>
<polygon fill="black" stroke="black" stroke-width="0.9" points="268.833,-124.093 274.016,-114.852 264.202,-118.844 268.833,-124.093"/>
</g>
<!-- AS6461 -->
<g id="node6" class="node"><title>AS6461</title>
<g id="a_node6"><a xlink:href="/asn/6461" xlink:title="AS6461 ~ ZAYO&#45;6461 [US]">
<ellipse fill="#ffffff" stroke="black" cx="417.373" cy="-342" rx="39.7935" ry="18"/>
<text text-anchor="middle" x="417.373" y="-338.3" font-family="Times,serif" font-size="14.00" fill="#2c94b3">AS6461</text>
</a>
</g>
</g>
<!-- AS8218&#45;&gt;AS6461 -->
<g id="edge5" class="edge"><title>AS8218&#45;&gt;AS6461</title>
<path fill="none" stroke="black" stroke-width="4.5" d="M332.706,-342C343.644,-342 355.695,-342 367.161,-342"/>
<polygon fill="black" stroke="black" stroke-width="4.5" points="367.479,-345.938 377.479,-342 367.479,-338.063 367.479,-345.938"/>
</g>
<!-- AS1273 -->
<g id="node7" class="node"><title>AS1273</title>
<g id="a_node7"><a xlink:href="/asn/1273" xlink:title="AS1273 ~ Vodafone Group PLC [EU]">
<ellipse fill="#ffffff" stroke="black" cx="417.373" cy="-396" rx="39.7935" ry="18"/>
<text text-anchor="middle" x="417.373" y="-392.3" font-family="Times,serif" font-size="14.00" fill="#2c94b3">AS1273</text>
</a>
</g>
</g>
<!-- AS8218&#45;&gt;AS1273 -->
<g id="edge6" class="edge"><title>AS8218&#45;&gt;AS1273</title>
<path fill="none" stroke="black" stroke-width="0.642857" d="M322.06,-354.389C339.008,-361.866 360.805,-371.483 379.174,-379.588"/>
<polygon fill="black" stroke="black" stroke-width="0.642857" points="377.862,-382.834 388.424,-383.669 380.688,-376.43 377.862,-382.834"/>
</g>
<!-- AS2914 -->
<g id="node8" class="node"><title>AS2914</title>
<g id="a_node8"><a xlink:href="/asn/2914" xlink:title="AS2914 ~ NTT America, Inc. [US]">
<ellipse fill="#ffffff" stroke="black" cx="417.373" cy="-180" rx="39.7935" ry="18"/>
<text text-anchor="middle" x="417.373" y="-176.3" font-family="Times,serif" font-size="14.00" fill="#2c94b3">AS2914</text>
</a>
</g>
</g>
<!-- AS47147&#45;&gt;AS2914 -->
<g id="edge7" class="edge"><title>AS47147&#45;&gt;AS2914</title>
<path fill="none" stroke="black" stroke-width="3" d="M332.37,-198.531C344.761,-195.798 358.608,-192.743 371.429,-189.915"/>
<polygon fill="black" stroke="black" stroke-width="3" points="372.432,-193.278 381.443,-187.705 370.924,-186.442 372.432,-193.278"/>
</g>
<!-- AS1299 -->
<g id="node9" class="node"><title>AS1299</title>
<g id="a_node9"><a xlink:href="/asn/1299" xlink:title="AS1299 ~ Telia Carrier [EU]">
<ellipse fill="#ffffff" stroke="black" cx="417.373" cy="-261" rx="39.7935" ry="18"/>
<text text-anchor="middle" x="417.373" y="-257.3" font-family="Times,serif" font-size="14.00" fill="#2c94b3">AS1299</text>
</a>
</g>
</g>
<!-- AS47147&#45;&gt;AS1299 -->
<g id="edge8" class="edge"><title>AS47147&#45;&gt;AS1299</title>
<path fill="none" stroke="black" stroke-width="4.5" d="M323.608,-220.072C340.203,-227.393 361.062,-236.597 378.795,-244.421"/>
<polygon fill="black" stroke="black" stroke-width="4.5" points="377.54,-248.171 388.279,-248.605 380.719,-240.966 377.54,-248.171"/>
</g>
<!-- AS25255 -->
<g id="node19" class="node"><title>AS25255</title>
<g id="a_node19"><a xlink:href="/asn/25255" xlink:title="AS25255 ~ ==&gt; TELE2 AUSTRIA &lt;== [AT]">
<ellipse fill="#ffffff" stroke="black" cx="417.373" cy="-58" rx="44.393" ry="18"/>
<text text-anchor="middle" x="417.373" y="-54.3" font-family="Times,serif" font-size="14.00" fill="#2c94b3">AS25255</text>
</a>
</g>
</g>
<!-- AS8437&#45;&gt;AS25255 -->
<g id="edge23" class="edge"><title>AS8437&#45;&gt;AS25255</title>
<path fill="none" stroke="black" stroke-width="2" d="M325.499,-88.4415C340.046,-83.5686 357.544,-77.707 373.285,-72.4338"/>
<polygon fill="black" stroke="black" stroke-width="2" points="374.447,-75.7359 382.817,-69.2407 372.223,-69.0984 374.447,-75.7359"/>
</g>
<!-- AS6453 -->
<g id="node10" class="node"><title>AS6453</title>
<g id="a_node10"><a xlink:href="/asn/6453" xlink:title="AS6453 ~ TATA COMMUNICATIONS (AMERICA) INC [US]">
<ellipse fill="#ffffff" stroke="black" cx="541.765" cy="-288" rx="39.7935" ry="18"/>
<text text-anchor="middle" x="541.765" y="-284.3" font-family="Times,serif" font-size="14.00" fill="#2c94b3">AS6453</text>
</a>
</g>
</g>
<!-- AS6461&#45;&gt;AS6453 -->
<g id="edge9" class="edge"><title>AS6461&#45;&gt;AS6453</title>
<path fill="none" stroke="black" d="M446.452,-329.611C463.4,-322.134 485.197,-312.517 503.566,-304.412"/>
<polygon fill="black" stroke="black" points="505.08,-307.57 512.816,-300.331 502.254,-301.166 505.08,-307.57"/>
</g>
<!-- AS6762 -->
<g id="node11" class="node"><title>AS6762</title>
<g id="a_node11"><a xlink:href="/asn/6762" xlink:title="AS6762 ~ TELECOM ITALIA SPARKLE S.p.A. [IT]">
<ellipse fill="#ffffff" stroke="black" cx="541.765" cy="-234" rx="39.7935" ry="18"/>
<text text-anchor="middle" x="541.765" y="-230.3" font-family="Times,serif" font-size="14.00" fill="#2c94b3">AS6762</text>
</a>
</g>
</g>
<!-- AS6461&#45;&gt;AS6762 -->
<g id="edge10" class="edge"><title>AS6461&#45;&gt;AS6762</title>
<path fill="none" stroke="black" d="M432.525,-325.337C447.626,-308.106 472.747,-280.976 497.569,-261 500.824,-258.38 504.349,-255.808 507.934,-253.354"/>
<polygon fill="black" stroke="black" points="509.852,-256.281 516.306,-247.879 506.021,-250.423 509.852,-256.281"/>
</g>
<!-- AS2497 -->
<g id="node12" class="node"><title>AS2497</title>
<g id="a_node12"><a xlink:href="/asn/2497" xlink:title="AS2497 ~ Internet Initiative Japan Inc. [JP]">
<ellipse fill="#ffffff" stroke="black" cx="541.765" cy="-396" rx="39.7935" ry="18"/>
<text text-anchor="middle" x="541.765" y="-392.3" font-family="Times,serif" font-size="14.00" fill="#2c94b3">AS2497</text>
</a>
</g>
</g>
<!-- AS6461&#45;&gt;AS2497 -->
<g id="edge11" class="edge"><title>AS6461&#45;&gt;AS2497</title>
<path fill="none" stroke="black" d="M446.452,-354.389C463.4,-361.866 485.197,-371.483 503.566,-379.588"/>
<polygon fill="black" stroke="black" points="502.254,-382.834 512.816,-383.669 505.08,-376.43 502.254,-382.834"/>
</g>
<!-- AS209 -->
<g id="node13" class="node"><title>AS209</title>
<g id="a_node13"><a xlink:href="/asn/209" xlink:title="AS209 ~ CenturyLink Communications, LLC [US]">
<ellipse fill="#ffffff" stroke="black" cx="541.765" cy="-342" rx="35.194" ry="18"/>
<text text-anchor="middle" x="541.765" y="-338.3" font-family="Times,serif" font-size="14.00" fill="#2c94b3">AS209</text>
</a>
</g>
</g>
<!-- AS6461&#45;&gt;AS209 -->
<g id="edge12" class="edge"><title>AS6461&#45;&gt;AS209</title>
<path fill="none" stroke="black" d="M457.098,-342C469.587,-342 483.526,-342 496.39,-342"/>
<polygon fill="black" stroke="black" points="496.428,-345.5 506.427,-342 496.427,-338.5 496.428,-345.5"/>
</g>
<!-- AS3491 -->
<g id="node14" class="node"><title>AS3491</title>
<g id="a_node14"><a xlink:href="/asn/3491" xlink:title="AS3491 ~ PCCW Global, Inc. [US]">
<ellipse fill="#ffffff" stroke="black" cx="541.765" cy="-488" rx="39.7935" ry="18"/>
<text text-anchor="middle" x="541.765" y="-484.3" font-family="Times,serif" font-size="14.00" fill="#2c94b3">AS3491</text>
</a>
</g>
</g>
<!-- AS6461&#45;&gt;AS3491 -->
<g id="edge13" class="edge"><title>AS6461&#45;&gt;AS3491</title>
<path fill="none" stroke="black" d="M445.07,-355.079C451.066,-358.937 456.999,-363.599 461.569,-369 488.599,-400.945 471.82,-423.013 497.569,-456 500.788,-460.125 504.669,-463.977 508.767,-467.479"/>
<polygon fill="black" stroke="black" points="506.767,-470.358 516.8,-473.761 511.079,-464.844 506.767,-470.358"/>
</g>
<!-- AS3356 -->
<g id="node15" class="node"><title>AS3356</title>
<g id="a_node15"><a xlink:href="/asn/3356" xlink:title="AS3356 ~ Level 3 Parent, LLC [US]">
<ellipse fill="#ffffff" stroke="black" cx="661.607" cy="-257" rx="39.7935" ry="18"/>
<text text-anchor="middle" x="661.607" y="-253.3" font-family="Times,serif" font-size="14.00" fill="#2c94b3">AS3356</text>
</a>
</g>
</g>
<!-- AS6461&#45;&gt;AS3356 -->
<g id="edge14" class="edge"><title>AS6461&#45;&gt;AS3356</title>
<path fill="none" stroke="black" d="M443.902,-355.462C450.064,-359.362 456.366,-363.948 461.569,-369 482.262,-389.094 472.137,-409.39 497.569,-423 532.206,-441.537 552.974,-444.335 585.961,-423 633.254,-392.412 650.877,-323.945 657.22,-285.175"/>
<polygon fill="black" stroke="black" points="660.712,-285.491 658.725,-275.084 653.788,-284.458 660.712,-285.491"/>
</g>
<!-- AS2914&#45;&gt;AS6762 -->
<g id="edge20" class="edge"><title>AS2914&#45;&gt;AS6762</title>
<path fill="none" stroke="black" d="M446.452,-192.389C463.4,-199.866 485.197,-209.483 503.566,-217.588"/>
<polygon fill="black" stroke="black" points="502.254,-220.834 512.816,-221.669 505.08,-214.43 502.254,-220.834"/>
</g>
<!-- AS12956 -->
<g id="node17" class="node"><title>AS12956</title>
<g id="a_node17"><a xlink:href="/asn/12956" xlink:title="AS12956 ~ TELXIUS [ES]">
<ellipse fill="#ffffff" stroke="black" cx="541.765" cy="-126" rx="44.393" ry="18"/>
<text text-anchor="middle" x="541.765" y="-122.3" font-family="Times,serif" font-size="14.00" fill="#2c94b3">AS12956</text>
</a>
</g>
</g>
<!-- AS2914&#45;&gt;AS12956 -->
<g id="edge21" class="edge"><title>AS2914&#45;&gt;AS12956</title>
<path fill="none" stroke="black" d="M446.452,-167.611C462.768,-160.413 483.578,-151.231 501.498,-143.325"/>
<polygon fill="black" stroke="black" points="503.373,-146.323 511.109,-139.084 500.547,-139.919 503.373,-146.323"/>
</g>
<!-- AS701 -->
<g id="node18" class="node"><title>AS701</title>
<g id="a_node18"><a xlink:href="/asn/701" xlink:title="AS701 ~ UUNET [US]">
<ellipse fill="#ffffff" stroke="black" cx="541.765" cy="-72" rx="35.194" ry="18"/>
<text text-anchor="middle" x="541.765" y="-68.3" font-family="Times,serif" font-size="14.00" fill="#2c94b3">AS701</text>
</a>
</g>
</g>
<!-- AS2914&#45;&gt;AS701 -->
<g id="edge22" class="edge"><title>AS2914&#45;&gt;AS701</title>
<path fill="none" stroke="black" d="M432.525,-163.337C447.626,-146.106 472.747,-118.976 497.569,-99 501.074,-96.1791 504.892,-93.4131 508.76,-90.7915"/>
<polygon fill="black" stroke="black" points="510.717,-93.6938 517.205,-85.318 506.91,-87.8195 510.717,-93.6938"/>
</g>
<!-- AS1299&#45;&gt;AS6453 -->
<g id="edge17" class="edge"><title>AS1299&#45;&gt;AS6453</title>
<path fill="none" stroke="black" d="M453.445,-268.737C466.632,-271.646 481.812,-274.995 495.778,-278.076"/>
<polygon fill="black" stroke="black" points="495.168,-281.525 505.687,-280.262 496.676,-274.69 495.168,-281.525"/>
</g>
<!-- AS1299&#45;&gt;AS6762 -->
<g id="edge16" class="edge"><title>AS1299&#45;&gt;AS6762</title>
<path fill="none" stroke="black" d="M453.445,-253.263C466.632,-250.354 481.812,-247.005 495.778,-243.924"/>
<polygon fill="black" stroke="black" points="496.676,-247.31 505.687,-241.738 495.168,-240.475 496.676,-247.31"/>
</g>
<!-- AS1299&#45;&gt;AS2497 -->
<g id="edge18" class="edge"><title>AS1299&#45;&gt;AS2497</title>
<path fill="none" stroke="black" d="M432.375,-277.731C441.023,-288.25 452.215,-302.208 461.569,-315 478.594,-338.284 476.875,-348.906 497.569,-369 500.414,-371.763 503.588,-374.386 506.888,-376.834"/>
<polygon fill="black" stroke="black" points="505.004,-379.786 515.236,-382.538 508.953,-374.006 505.004,-379.786"/>
</g>
<!-- AS1299&#45;&gt;AS209 -->
<g id="edge19" class="edge"><title>AS1299&#45;&gt;AS209</title>
<path fill="none" stroke="black" d="M439.73,-275.901C455.581,-286.877 477.784,-302.079 497.569,-315 501.613,-317.642 505.899,-320.385 510.138,-323.067"/>
<polygon fill="black" stroke="black" points="508.352,-326.079 518.682,-328.432 512.075,-320.15 508.352,-326.079"/>
</g>
<!-- AS7018 -->
<g id="node16" class="node"><title>AS7018</title>
<g id="a_node16"><a xlink:href="/asn/7018" xlink:title="AS7018 ~ AT&amp;T Services, Inc. [US]">
<ellipse fill="#ffffff" stroke="black" cx="541.765" cy="-180" rx="39.7935" ry="18"/>
<text text-anchor="middle" x="541.765" y="-176.3" font-family="Times,serif" font-size="14.00" fill="#2c94b3">AS7018</text>
</a>
</g>
</g>
<!-- AS1299&#45;&gt;AS7018 -->
<g id="edge15" class="edge"><title>AS1299&#45;&gt;AS7018</title>
<path fill="none" stroke="black" d="M439.73,-246.099C455.581,-235.123 477.784,-219.921 497.569,-207 501.151,-204.661 504.921,-202.241 508.681,-199.856"/>
<polygon fill="black" stroke="black" points="510.744,-202.693 517.342,-194.404 507.015,-196.769 510.744,-202.693"/>
</g>
<!-- AS1764 -->
<g id="node20" class="node"><title>AS1764</title>
<g id="a_node20"><a xlink:href="/asn/1764" xlink:title="AS1764 ~ NEXTLAYER&#45;AS [AT]">
<ellipse fill="#ffffff" stroke="black" cx="541.765" cy="-18" rx="39.7935" ry="18"/>
<text text-anchor="middle" x="541.765" y="-14.3" font-family="Times,serif" font-size="14.00" fill="#2c94b3">AS1764</text>
</a>
</g>
</g>
<!-- AS25255&#45;&gt;AS1764 -->
<g id="edge24" class="edge"><title>AS25255&#45;&gt;AS1764</title>
<path fill="none" stroke="black" stroke-width="2" d="M452.466,-46.8578C466.971,-42.1171 484.023,-36.5443 499.254,-31.5666"/>
<polygon fill="black" stroke="black" stroke-width="2" points="500.537,-34.8295 508.955,-28.3962 498.362,-28.1759 500.537,-34.8295"/>
</g>
<!-- AS1764&#45;&gt;AS3356 -->
<g id="edge26" class="edge"><title>AS1764&#45;&gt;AS3356</title>
<path fill="none" stroke="black" d="M569.67,-30.9078C575.661,-34.7706 581.538,-39.478 585.961,-45 630.695,-100.848 649.644,-185.468 656.794,-228.982"/>
<polygon fill="black" stroke="black" points="653.336,-229.524 658.33,-238.868 660.253,-228.449 653.336,-229.524"/>
</g>
<!-- AS174 -->
<g id="node21" class="node"><title>AS174</title>
<g id="a_node21"><a xlink:href="/asn/174" xlink:title="AS174 ~ Cogent Communications [US]">
<ellipse fill="#ffffff" stroke="black" cx="661.607" cy="-18" rx="35.194" ry="18"/>
<text text-anchor="middle" x="661.607" y="-14.3" font-family="Times,serif" font-size="14.00" fill="#2c94b3">AS174</text>
</a>
</g>
</g>
<!-- AS1764&#45;&gt;AS174 -->
<g id="edge25" class="edge"><title>AS1764&#45;&gt;AS174</title>
<path fill="none" stroke="black" d="M581.677,-18C592.764,-18 604.924,-18 616.306,-18"/>
<polygon fill="black" stroke="black" points="616.488,-21.5001 626.488,-18 616.488,-14.5001 616.488,-21.5001"/>
</g>
</g>
</svg>
