<?xml version="1.0" encoding="UTF-8" standalone="no"?>
<!DOCTYPE svg PUBLIC "-//W3C//DTD SVG 1.1//EN"
 "http://www.w3.org/Graphics/SVG/1.1/DTD/svg11.dtd">
<!-- Generated by graphviz version 2.38.0 (20140413.2041)
 -->
<!-- Title: AS60870 Combined Upstream Graph Pages: 1 -->
<svg width="576pt" height="676pt"
 viewBox="0.00 0.00 575.76 676.00" xmlns="http://www.w3.org/2000/svg" xmlns:xlink="http://www.w3.org/1999/xlink">
<g id="graph0" class="graph" transform="scale(1 1) rotate(0) translate(4 672)">
<title>AS60870 Combined Upstream Graph</title>
<polygon fill="white" stroke="none" points="-4,4 -4,-672 571.762,-672 571.762,4 -4,4"/>
<!-- AS60870 -->
<g id="node1" class="node"><title>AS60870</title>
<g id="a_node1"><a xlink:href="/asn/60870" xlink:title="AS60870 ~ TECSBY&#45;AS [AT]">
<ellipse fill="#ffffff" stroke="black" cx="44.1961" cy="-326" rx="44.393" ry="18"/>
<text text-anchor="middle" x="44.1961" y="-322.3" font-family="Times,serif" font-size="14.00" fill="#880000">AS60870</text>
</a>
</g>
</g>
<!-- AS6697 -->
<g id="node2" class="node"><title>AS6697</title>
<g id="a_node2"><a xlink:href="/asn/6697" xlink:title="AS6697 ~ BELPAK [BY]">
<ellipse fill="#ffffff" stroke="black" cx="164.039" cy="-326" rx="39.7935" ry="18"/>
<text text-anchor="middle" x="164.039" y="-322.3" font-family="Times,serif" font-size="14.00" fill="#2c94b3">AS6697</text>
</a>
</g>
</g>
<!-- AS60870&#45;&gt;AS6697 -->
<g id="edge1" class="edge"><title>AS60870&#45;&gt;AS6697</title>
<path fill="none" stroke="black" stroke-width="4.5" d="M88.4072,-326C96.7198,-326 105.482,-326 113.965,-326"/>
<polygon fill="black" stroke="black" stroke-width="4.5" points="114.123,-329.938 124.123,-326 114.123,-322.063 114.123,-329.938"/>
</g>
<!-- AS8359 -->
<g id="node3" class="node"><title>AS8359</title>
<g id="a_node3"><a xlink:href="/asn/8359" xlink:title="AS8359 ~ MTS PJSC [RU]">
<ellipse fill="#ffffff" stroke="black" cx="283.881" cy="-380" rx="39.7935" ry="18"/>
<text text-anchor="middle" x="283.881" y="-376.3" font-family="Times,serif" font-size="14.00" fill="#2c94b3">AS8359</text>
</a>
</g>
</g>
<!-- AS6697&#45;&gt;AS8359 -->
<g id="edge2" class="edge"><title>AS6697&#45;&gt;AS8359</title>
<path fill="none" stroke="black" stroke-width="0.45" d="M192.667,-338.661C208.624,-345.973 228.895,-355.261 246.178,-363.181"/>
<polygon fill="black" stroke="black" stroke-width="0.45" points="244.876,-366.435 255.425,-367.419 247.793,-360.071 244.876,-366.435"/>
</g>
<!-- AS12389 -->
<g id="node4" class="node"><title>AS12389</title>
<g id="a_node4"><a xlink:href="/asn/12389" xlink:title="AS12389 ~ PJSC Rostelecom [RU]">
<ellipse fill="#ffffff" stroke="black" cx="283.881" cy="-542" rx="44.393" ry="18"/>
<text text-anchor="middle" x="283.881" y="-538.3" font-family="Times,serif" font-size="14.00" fill="#2c94b3">AS12389</text>
</a>
</g>
</g>
<!-- AS6697&#45;&gt;AS12389 -->
<g id="edge3" class="edge"><title>AS6697&#45;&gt;AS12389</title>
<path fill="none" stroke="black" stroke-width="2.7" d="M174.682,-343.676C195.364,-381.584 244.076,-470.873 268.456,-515.559"/>
<polygon fill="black" stroke="black" stroke-width="2.7" points="265.408,-517.28 273.27,-524.383 271.553,-513.928 265.408,-517.28"/>
</g>
<!-- AS1299 -->
<g id="node5" class="node"><title>AS1299</title>
<g id="a_node5"><a xlink:href="/asn/1299" xlink:title="AS1299 ~ Telia Carrier [EU]">
<ellipse fill="#ffffff" stroke="black" cx="283.881" cy="-272" rx="39.7935" ry="18"/>
<text text-anchor="middle" x="283.881" y="-268.3" font-family="Times,serif" font-size="14.00" fill="#2c94b3">AS1299</text>
</a>
</g>
</g>
<!-- AS6697&#45;&gt;AS1299 -->
<g id="edge4" class="edge"><title>AS6697&#45;&gt;AS1299</title>
<path fill="none" stroke="black" stroke-width="4.5" d="M192.667,-313.339C208.624,-306.027 228.895,-296.739 246.178,-288.819"/>
<polygon fill="black" stroke="black" stroke-width="4.5" points="247.975,-292.327 255.425,-284.581 244.694,-285.168 247.975,-292.327"/>
</g>
<!-- AS6461 -->
<g id="node6" class="node"><title>AS6461</title>
<g id="a_node6"><a xlink:href="/asn/6461" xlink:title="AS6461 ~ Zayo Bandwidth [US]">
<ellipse fill="#ffffff" stroke="black" cx="283.881" cy="-218" rx="39.7935" ry="18"/>
<text text-anchor="middle" x="283.881" y="-214.3" font-family="Times,serif" font-size="14.00" fill="#2c94b3">AS6461</text>
</a>
</g>
</g>
<!-- AS6697&#45;&gt;AS6461 -->
<g id="edge5" class="edge"><title>AS6697&#45;&gt;AS6461</title>
<path fill="none" stroke="black" stroke-width="0.45" d="M178.458,-308.935C192.572,-291.625 215.987,-264.655 239.685,-245 242.901,-242.332 246.402,-239.73 249.972,-237.259"/>
<polygon fill="black" stroke="black" stroke-width="0.45" points="251.896,-240.183 258.329,-231.764 248.05,-234.334 251.896,-240.183"/>
</g>
<!-- AS2497 -->
<g id="node7" class="node"><title>AS2497</title>
<g id="a_node7"><a xlink:href="/asn/2497" xlink:title="AS2497 ~ Internet Initiative Japan Inc. [JP]">
<ellipse fill="#ffffff" stroke="black" cx="408.273" cy="-434" rx="39.7935" ry="18"/>
<text text-anchor="middle" x="408.273" y="-430.3" font-family="Times,serif" font-size="14.00" fill="#2c94b3">AS2497</text>
</a>
</g>
</g>
<!-- AS8359&#45;&gt;AS2497 -->
<g id="edge6" class="edge"><title>AS8359&#45;&gt;AS2497</title>
<path fill="none" stroke="black" d="M312.96,-392.389C329.908,-399.866 351.706,-409.483 370.075,-417.588"/>
<polygon fill="black" stroke="black" points="368.763,-420.834 379.325,-421.669 371.589,-414.43 368.763,-420.834"/>
</g>
<!-- AS6762 -->
<g id="node8" class="node"><title>AS6762</title>
<g id="a_node8"><a xlink:href="/asn/6762" xlink:title="AS6762 ~ TELECOM ITALIA SPARKLE S.p.A. [IT]">
<ellipse fill="#ffffff" stroke="black" cx="408.273" cy="-488" rx="39.7935" ry="18"/>
<text text-anchor="middle" x="408.273" y="-484.3" font-family="Times,serif" font-size="14.00" fill="#2c94b3">AS6762</text>
</a>
</g>
</g>
<!-- AS12389&#45;&gt;AS6762 -->
<g id="edge7" class="edge"><title>AS12389&#45;&gt;AS6762</title>
<path fill="none" stroke="black" stroke-width="2" d="M314.509,-528.928C331.103,-521.607 351.963,-512.403 369.696,-504.579"/>
<polygon fill="black" stroke="black" stroke-width="2" points="371.443,-507.634 379.18,-500.395 368.618,-501.23 371.443,-507.634"/>
</g>
<!-- AS3356 -->
<g id="node9" class="node"><title>AS3356</title>
<g id="a_node9"><a xlink:href="/asn/3356" xlink:title="AS3356 ~ Level 3 Parent, LLC [US]">
<ellipse fill="#ffffff" stroke="black" cx="408.273" cy="-650" rx="39.7935" ry="18"/>
<text text-anchor="middle" x="408.273" y="-646.3" font-family="Times,serif" font-size="14.00" fill="#2c94b3">AS3356</text>
</a>
</g>
</g>
<!-- AS12389&#45;&gt;AS3356 -->
<g id="edge8" class="edge"><title>AS12389&#45;&gt;AS3356</title>
<path fill="none" stroke="black" stroke-width="2" d="M299.314,-558.983C314.445,-576.229 339.409,-603.148 364.077,-623 367.333,-625.62 370.858,-628.192 374.442,-630.646"/>
<polygon fill="black" stroke="black" stroke-width="2" points="372.53,-633.577 382.815,-636.121 376.361,-627.719 372.53,-633.577"/>
</g>
<!-- AS3257 -->
<g id="node10" class="node"><title>AS3257</title>
<g id="a_node10"><a xlink:href="/asn/3257" xlink:title="AS3257 ~ GTT [DE]">
<ellipse fill="#ffffff" stroke="black" cx="408.273" cy="-596" rx="39.7935" ry="18"/>
<text text-anchor="middle" x="408.273" y="-592.3" font-family="Times,serif" font-size="14.00" fill="#2c94b3">AS3257</text>
</a>
</g>
</g>
<!-- AS12389&#45;&gt;AS3257 -->
<g id="edge9" class="edge"><title>AS12389&#45;&gt;AS3257</title>
<path fill="none" stroke="black" d="M314.509,-555.072C331.103,-562.393 351.963,-571.597 369.696,-579.421"/>
<polygon fill="black" stroke="black" points="368.618,-582.77 379.18,-583.605 371.443,-576.366 368.618,-582.77"/>
</g>
<!-- AS5511 -->
<g id="node11" class="node"><title>AS5511</title>
<g id="a_node11"><a xlink:href="/asn/5511" xlink:title="AS5511 ~ Orange S.A. [FR]">
<ellipse fill="#ffffff" stroke="black" cx="408.273" cy="-542" rx="39.7935" ry="18"/>
<text text-anchor="middle" x="408.273" y="-538.3" font-family="Times,serif" font-size="14.00" fill="#2c94b3">AS5511</text>
</a>
</g>
</g>
<!-- AS12389&#45;&gt;AS5511 -->
<g id="edge10" class="edge"><title>AS12389&#45;&gt;AS5511</title>
<path fill="none" stroke="black" d="M328.377,-542C338.066,-542 348.403,-542 358.295,-542"/>
<polygon fill="black" stroke="black" points="358.398,-545.5 368.398,-542 358.398,-538.5 358.398,-545.5"/>
</g>
<!-- AS1299&#45;&gt;AS2497 -->
<g id="edge12" class="edge"><title>AS1299&#45;&gt;AS2497</title>
<path fill="none" stroke="black" d="M293.846,-289.587C310.437,-321.711 345.893,-388.297 364.077,-407 366.697,-409.695 369.638,-412.239 372.721,-414.608"/>
<polygon fill="black" stroke="black" points="370.887,-417.597 381.089,-420.455 374.896,-411.859 370.887,-417.597"/>
</g>
<!-- AS2914 -->
<g id="node12" class="node"><title>AS2914</title>
<g id="a_node12"><a xlink:href="/asn/2914" xlink:title="AS2914 ~ NTT America, Inc. [US]">
<ellipse fill="#ffffff" stroke="black" cx="528.116" cy="-303" rx="39.7935" ry="18"/>
<text text-anchor="middle" x="528.116" y="-299.3" font-family="Times,serif" font-size="14.00" fill="#2c94b3">AS2914</text>
</a>
</g>
</g>
<!-- AS1299&#45;&gt;AS2914 -->
<g id="edge11" class="edge"><title>AS1299&#45;&gt;AS2914</title>
<path fill="none" stroke="black" d="M311.853,-259.145C317.841,-255.28 323.701,-250.559 328.077,-245 359.376,-205.246 323.031,-166.584 364.077,-137 395.947,-114.029 419.482,-115.665 452.469,-137 499.763,-167.588 517.386,-236.055 523.729,-274.825"/>
<polygon fill="black" stroke="black" points="520.297,-275.542 525.234,-284.916 527.22,-274.509 520.297,-275.542"/>
</g>
<!-- AS6453 -->
<g id="node13" class="node"><title>AS6453</title>
<g id="a_node13"><a xlink:href="/asn/6453" xlink:title="AS6453 ~ TATA COMMUNICATIONS (AMERICA) INC [US]">
<ellipse fill="#ffffff" stroke="black" cx="408.273" cy="-72" rx="39.7935" ry="18"/>
<text text-anchor="middle" x="408.273" y="-68.3" font-family="Times,serif" font-size="14.00" fill="#2c94b3">AS6453</text>
</a>
</g>
</g>
<!-- AS1299&#45;&gt;AS6453 -->
<g id="edge13" class="edge"><title>AS1299&#45;&gt;AS6453</title>
<path fill="none" stroke="black" d="M312.14,-259.362C318.119,-255.491 323.903,-250.712 328.077,-245 366.237,-192.78 328.008,-157.685 364.077,-104 366.995,-99.6569 370.707,-95.6814 374.724,-92.1207"/>
<polygon fill="black" stroke="black" points="377.038,-94.7527 382.699,-85.7971 372.689,-89.2677 377.038,-94.7527"/>
</g>
<!-- AS7018 -->
<g id="node14" class="node"><title>AS7018</title>
<g id="a_node14"><a xlink:href="/asn/7018" xlink:title="AS7018 ~ AT&amp;T Services, Inc. [US]">
<ellipse fill="#ffffff" stroke="black" cx="408.273" cy="-18" rx="39.7935" ry="18"/>
<text text-anchor="middle" x="408.273" y="-14.3" font-family="Times,serif" font-size="14.00" fill="#2c94b3">AS7018</text>
</a>
</g>
</g>
<!-- AS1299&#45;&gt;AS7018 -->
<g id="edge14" class="edge"><title>AS1299&#45;&gt;AS7018</title>
<path fill="none" stroke="black" d="M312.882,-259.277C318.689,-255.45 324.21,-250.712 328.077,-245 378.71,-170.21 313.444,-119.79 364.077,-45 366.011,-42.1439 368.358,-39.5314 370.947,-37.1545"/>
<polygon fill="black" stroke="black" points="373.499,-39.6062 379.273,-30.723 369.219,-34.0667 373.499,-39.6062"/>
</g>
<!-- AS174 -->
<g id="node15" class="node"><title>AS174</title>
<g id="a_node15"><a xlink:href="/asn/174" xlink:title="AS174 ~ Cogent Communications [US]">
<ellipse fill="#ffffff" stroke="black" cx="408.273" cy="-380" rx="35.194" ry="18"/>
<text text-anchor="middle" x="408.273" y="-376.3" font-family="Times,serif" font-size="14.00" fill="#2c94b3">AS174</text>
</a>
</g>
</g>
<!-- AS1299&#45;&gt;AS174 -->
<g id="edge15" class="edge"><title>AS1299&#45;&gt;AS174</title>
<path fill="none" stroke="black" d="M299.033,-288.663C314.135,-305.894 339.256,-333.024 364.077,-353 367.582,-355.821 371.4,-358.587 375.268,-361.208"/>
<polygon fill="black" stroke="black" points="373.419,-364.18 383.714,-366.682 377.226,-358.306 373.419,-364.18"/>
</g>
<!-- AS12956 -->
<g id="node16" class="node"><title>AS12956</title>
<g id="a_node16"><a xlink:href="/asn/12956" xlink:title="AS12956 ~ TELXIUS [ES]">
<ellipse fill="#ffffff" stroke="black" cx="408.273" cy="-326" rx="44.393" ry="18"/>
<text text-anchor="middle" x="408.273" y="-322.3" font-family="Times,serif" font-size="14.00" fill="#2c94b3">AS12956</text>
</a>
</g>
</g>
<!-- AS1299&#45;&gt;AS12956 -->
<g id="edge16" class="edge"><title>AS1299&#45;&gt;AS12956</title>
<path fill="none" stroke="black" d="M312.96,-284.389C329.276,-291.587 350.087,-300.769 368.007,-308.675"/>
<polygon fill="black" stroke="black" points="367.056,-312.081 377.618,-312.916 369.881,-305.677 367.056,-312.081"/>
</g>
<!-- AS3491 -->
<g id="node17" class="node"><title>AS3491</title>
<g id="a_node17"><a xlink:href="/asn/3491" xlink:title="AS3491 ~ PCCW Global, Inc. [US]">
<ellipse fill="#ffffff" stroke="black" cx="408.273" cy="-272" rx="39.7935" ry="18"/>
<text text-anchor="middle" x="408.273" y="-268.3" font-family="Times,serif" font-size="14.00" fill="#2c94b3">AS3491</text>
</a>
</g>
</g>
<!-- AS1299&#45;&gt;AS3491 -->
<g id="edge17" class="edge"><title>AS1299&#45;&gt;AS3491</title>
<path fill="none" stroke="black" d="M323.607,-272C334.545,-272 346.596,-272 358.062,-272"/>
<polygon fill="black" stroke="black" points="358.38,-275.5 368.38,-272 358.38,-268.5 358.38,-275.5"/>
</g>
<!-- AS1239 -->
<g id="node18" class="node"><title>AS1239</title>
<g id="a_node18"><a xlink:href="/asn/1239" xlink:title="AS1239 ~ Sprint [US]">
<ellipse fill="#ffffff" stroke="black" cx="408.273" cy="-218" rx="39.7935" ry="18"/>
<text text-anchor="middle" x="408.273" y="-214.3" font-family="Times,serif" font-size="14.00" fill="#2c94b3">AS1239</text>
</a>
</g>
</g>
<!-- AS1299&#45;&gt;AS1239 -->
<g id="edge18" class="edge"><title>AS1299&#45;&gt;AS1239</title>
<path fill="none" stroke="black" d="M312.96,-259.611C329.908,-252.134 351.706,-242.517 370.075,-234.412"/>
<polygon fill="black" stroke="black" points="371.589,-237.57 379.325,-230.331 368.763,-231.166 371.589,-237.57"/>
</g>
<!-- AS701 -->
<g id="node19" class="node"><title>AS701</title>
<g id="a_node19"><a xlink:href="/asn/701" xlink:title="AS701 ~ UUNET [US]">
<ellipse fill="#ffffff" stroke="black" cx="408.273" cy="-164" rx="35.194" ry="18"/>
<text text-anchor="middle" x="408.273" y="-160.3" font-family="Times,serif" font-size="14.00" fill="#2c94b3">AS701</text>
</a>
</g>
</g>
<!-- AS1299&#45;&gt;AS701 -->
<g id="edge19" class="edge"><title>AS1299&#45;&gt;AS701</title>
<path fill="none" stroke="black" d="M310.41,-258.538C316.573,-254.638 322.875,-250.052 328.077,-245 348.771,-224.906 343.384,-211.094 364.077,-191 367.305,-187.866 370.956,-184.911 374.734,-182.188"/>
<polygon fill="black" stroke="black" points="376.713,-185.075 383.094,-176.617 372.832,-179.25 376.713,-185.075"/>
</g>
<!-- AS6762&#45;&gt;AS2914 -->
<g id="edge21" class="edge"><title>AS6762&#45;&gt;AS2914</title>
<path fill="none" stroke="black" d="M435.785,-474.76C441.787,-470.907 447.768,-466.287 452.469,-461 486.996,-422.166 508.737,-364.569 519.345,-330.699"/>
<polygon fill="black" stroke="black" points="522.735,-331.582 522.282,-320.997 516.035,-329.554 522.735,-331.582"/>
</g>
<!-- AS3549 -->
<g id="node20" class="node"><title>AS3549</title>
<g id="a_node20"><a xlink:href="/asn/3549" xlink:title="AS3549 ~ Level 3 Parent, LLC [US]">
<ellipse fill="#ffffff" stroke="black" cx="528.116" cy="-650" rx="39.7935" ry="18"/>
<text text-anchor="middle" x="528.116" y="-646.3" font-family="Times,serif" font-size="14.00" fill="#2c94b3">AS3549</text>
</a>
</g>
</g>
<!-- AS3356&#45;&gt;AS3549 -->
<g id="edge20" class="edge"><title>AS3356&#45;&gt;AS3549</title>
<path fill="none" stroke="black" d="M448.186,-650C457.739,-650 468.089,-650 478.052,-650"/>
<polygon fill="black" stroke="black" points="478.244,-653.5 488.244,-650 478.244,-646.5 478.244,-653.5"/>
</g>
</g>
</svg>
