<?xml version="1.0" encoding="UTF-8" standalone="no"?>
<!DOCTYPE svg PUBLIC "-//W3C//DTD SVG 1.1//EN"
 "http://www.w3.org/Graphics/SVG/1.1/DTD/svg11.dtd">
<!-- Generated by graphviz version 2.38.0 (20140413.2041)
 -->
<!-- Title: AS60870 Combined Upstream Graph Pages: 1 -->
<svg width="567pt" height="530pt"
 viewBox="0.00 0.00 566.66 530.00" xmlns="http://www.w3.org/2000/svg" xmlns:xlink="http://www.w3.org/1999/xlink">
<g id="graph0" class="graph" transform="scale(1 1) rotate(0) translate(4 526)">
<title>AS60870 Combined Upstream Graph</title>
<polygon fill="white" stroke="none" points="-4,4 -4,-526 562.663,-526 562.663,4 -4,4"/>
<!-- AS60870 -->
<g id="node1" class="node"><title>AS60870</title>
<g id="a_node1"><a xlink:href="/asn/60870" xlink:title="AS60870 ~ TECSBY&#45;AS [AT]">
<ellipse fill="#ffffff" stroke="black" cx="44.1961" cy="-207" rx="44.393" ry="18"/>
<text text-anchor="middle" x="44.1961" y="-203.3" font-family="Times,serif" font-size="14.00" fill="#880000">AS60870</text>
</a>
</g>
</g>
<!-- AS6697 -->
<g id="node2" class="node"><title>AS6697</title>
<g id="a_node2"><a xlink:href="/asn/6697" xlink:title="AS6697 ~ BELPAK [BY]">
<ellipse fill="#ffffff" stroke="black" cx="164.039" cy="-207" rx="39.7935" ry="18"/>
<text text-anchor="middle" x="164.039" y="-203.3" font-family="Times,serif" font-size="14.00" fill="#2c94b3">AS6697</text>
</a>
</g>
</g>
<!-- AS60870&#45;&gt;AS6697 -->
<g id="edge1" class="edge"><title>AS60870&#45;&gt;AS6697</title>
<path fill="none" stroke="black" stroke-width="4.5" d="M88.4072,-207C96.7198,-207 105.482,-207 113.965,-207"/>
<polygon fill="black" stroke="black" stroke-width="4.5" points="114.123,-210.938 124.123,-207 114.123,-203.063 114.123,-210.938"/>
</g>
<!-- AS1299 -->
<g id="node3" class="node"><title>AS1299</title>
<g id="a_node3"><a xlink:href="/asn/1299" xlink:title="AS1299 ~ Telia Carrier [EU]">
<ellipse fill="#ffffff" stroke="black" cx="283.881" cy="-180" rx="39.7935" ry="18"/>
<text text-anchor="middle" x="283.881" y="-176.3" font-family="Times,serif" font-size="14.00" fill="#2c94b3">AS1299</text>
</a>
</g>
</g>
<!-- AS6697&#45;&gt;AS1299 -->
<g id="edge2" class="edge"><title>AS6697&#45;&gt;AS1299</title>
<path fill="none" stroke="black" stroke-width="3.375" d="M199.758,-199.045C211.758,-196.296 225.379,-193.175 238.071,-190.267"/>
<polygon fill="black" stroke="black" stroke-width="3.375" points="239.037,-193.636 248.003,-187.991 237.474,-186.813 239.037,-193.636"/>
</g>
<!-- AS8359 -->
<g id="node4" class="node"><title>AS8359</title>
<g id="a_node4"><a xlink:href="/asn/8359" xlink:title="AS8359 ~ MTS PJSC [RU]">
<ellipse fill="#ffffff" stroke="black" cx="283.881" cy="-234" rx="39.7935" ry="18"/>
<text text-anchor="middle" x="283.881" y="-230.3" font-family="Times,serif" font-size="14.00" fill="#2c94b3">AS8359</text>
</a>
</g>
</g>
<!-- AS6697&#45;&gt;AS8359 -->
<g id="edge3" class="edge"><title>AS6697&#45;&gt;AS8359</title>
<path fill="none" stroke="black" stroke-width="0.5625" d="M199.758,-214.955C211.758,-217.704 225.379,-220.825 238.071,-223.733"/>
<polygon fill="black" stroke="black" stroke-width="0.5625" points="237.474,-227.187 248.003,-226.009 239.037,-220.364 237.474,-227.187"/>
</g>
<!-- AS6461 -->
<g id="node5" class="node"><title>AS6461</title>
<g id="a_node5"><a xlink:href="/asn/6461" xlink:title="AS6461 ~ Zayo Bandwidth [US]">
<ellipse fill="#ffffff" stroke="black" cx="283.881" cy="-126" rx="39.7935" ry="18"/>
<text text-anchor="middle" x="283.881" y="-122.3" font-family="Times,serif" font-size="14.00" fill="#2c94b3">AS6461</text>
</a>
</g>
</g>
<!-- AS6697&#45;&gt;AS6461 -->
<g id="edge4" class="edge"><title>AS6697&#45;&gt;AS6461</title>
<path fill="none" stroke="black" stroke-width="0.5625" d="M185.369,-191.723C200.231,-180.696 220.976,-165.593 239.685,-153 243.234,-150.611 246.984,-148.161 250.733,-145.758"/>
<polygon fill="black" stroke="black" stroke-width="0.5625" points="252.801,-148.591 259.381,-140.288 249.059,-142.675 252.801,-148.591"/>
</g>
<!-- AS12389 -->
<g id="node6" class="node"><title>AS12389</title>
<g id="a_node6"><a xlink:href="/asn/12389" xlink:title="AS12389 ~ PJSC Rostelecom [RU]">
<ellipse fill="#ffffff" stroke="black" cx="283.881" cy="-342" rx="44.393" ry="18"/>
<text text-anchor="middle" x="283.881" y="-338.3" font-family="Times,serif" font-size="14.00" fill="#2c94b3">AS12389</text>
</a>
</g>
</g>
<!-- AS6697&#45;&gt;AS12389 -->
<g id="edge5" class="edge"><title>AS6697&#45;&gt;AS12389</title>
<path fill="none" stroke="black" stroke-width="4.5" d="M179.725,-223.825C200.278,-247.37 237.753,-290.302 261.431,-317.426"/>
<polygon fill="black" stroke="black" stroke-width="4.5" points="258.467,-320.019 268.01,-324.963 264.4,-314.84 258.467,-320.019"/>
</g>
<!-- AS2497 -->
<g id="node7" class="node"><title>AS2497</title>
<g id="a_node7"><a xlink:href="/asn/2497" xlink:title="AS2497 ~ Internet Initiative Japan Inc. [JP]">
<ellipse fill="#ffffff" stroke="black" cx="403.724" cy="-234" rx="39.7935" ry="18"/>
<text text-anchor="middle" x="403.724" y="-230.3" font-family="Times,serif" font-size="14.00" fill="#2c94b3">AS2497</text>
</a>
</g>
</g>
<!-- AS1299&#45;&gt;AS2497 -->
<g id="edge9" class="edge"><title>AS1299&#45;&gt;AS2497</title>
<path fill="none" stroke="black" d="M312.51,-192.661C328.467,-199.973 348.738,-209.261 366.02,-217.181"/>
<polygon fill="black" stroke="black" points="364.719,-220.435 375.268,-221.419 367.635,-214.071 364.719,-220.435"/>
</g>
<!-- AS1239 -->
<g id="node8" class="node"><title>AS1239</title>
<g id="a_node8"><a xlink:href="/asn/1239" xlink:title="AS1239 ~ Sprint [US]">
<ellipse fill="#ffffff" stroke="black" cx="403.724" cy="-72" rx="39.7935" ry="18"/>
<text text-anchor="middle" x="403.724" y="-68.3" font-family="Times,serif" font-size="14.00" fill="#2c94b3">AS1239</text>
</a>
</g>
</g>
<!-- AS1299&#45;&gt;AS1239 -->
<g id="edge7" class="edge"><title>AS1299&#45;&gt;AS1239</title>
<path fill="none" stroke="black" d="M310.41,-166.538C316.573,-162.638 322.875,-158.052 328.077,-153 348.771,-132.906 343.905,-119.617 364.077,-99 366.17,-96.861 368.453,-94.7823 370.83,-92.7902"/>
<polygon fill="black" stroke="black" points="373.349,-95.268 379.13,-86.3895 369.074,-89.725 373.349,-95.268"/>
</g>
<!-- AS7018 -->
<g id="node9" class="node"><title>AS7018</title>
<g id="a_node9"><a xlink:href="/asn/7018" xlink:title="AS7018 ~ AT&amp;T Services, Inc. [US]">
<ellipse fill="#ffffff" stroke="black" cx="403.724" cy="-18" rx="39.7935" ry="18"/>
<text text-anchor="middle" x="403.724" y="-14.3" font-family="Times,serif" font-size="14.00" fill="#2c94b3">AS7018</text>
</a>
</g>
</g>
<!-- AS1299&#45;&gt;AS7018 -->
<g id="edge8" class="edge"><title>AS1299&#45;&gt;AS7018</title>
<path fill="none" stroke="black" d="M311.853,-167.145C317.841,-163.28 323.701,-158.559 328.077,-153 359.376,-113.246 333.806,-85.5419 364.077,-45 365.822,-42.6636 367.829,-40.4546 369.992,-38.3828"/>
<polygon fill="black" stroke="black" points="372.352,-40.9726 377.793,-31.8816 367.87,-35.5954 372.352,-40.9726"/>
</g>
<!-- AS2914 -->
<g id="node10" class="node"><title>AS2914</title>
<g id="a_node10"><a xlink:href="/asn/2914" xlink:title="AS2914 ~ NTT America, Inc. [US]">
<ellipse fill="#ffffff" stroke="black" cx="403.724" cy="-180" rx="39.7935" ry="18"/>
<text text-anchor="middle" x="403.724" y="-176.3" font-family="Times,serif" font-size="14.00" fill="#2c94b3">AS2914</text>
</a>
</g>
</g>
<!-- AS1299&#45;&gt;AS2914 -->
<g id="edge10" class="edge"><title>AS1299&#45;&gt;AS2914</title>
<path fill="none" stroke="black" d="M323.794,-180C333.347,-180 343.697,-180 353.659,-180"/>
<polygon fill="black" stroke="black" points="353.852,-183.5 363.852,-180 353.852,-176.5 353.852,-183.5"/>
</g>
<!-- AS174 -->
<g id="node11" class="node"><title>AS174</title>
<g id="a_node11"><a xlink:href="/asn/174" xlink:title="AS174 ~ Cogent Communications [US]">
<ellipse fill="#ffffff" stroke="black" cx="403.724" cy="-126" rx="35.194" ry="18"/>
<text text-anchor="middle" x="403.724" y="-122.3" font-family="Times,serif" font-size="14.00" fill="#2c94b3">AS174</text>
</a>
</g>
</g>
<!-- AS1299&#45;&gt;AS174 -->
<g id="edge11" class="edge"><title>AS1299&#45;&gt;AS174</title>
<path fill="none" stroke="black" d="M312.51,-167.339C328.926,-159.817 349.908,-150.202 367.505,-142.139"/>
<polygon fill="black" stroke="black" points="369.249,-145.189 376.882,-137.842 366.333,-138.826 369.249,-145.189"/>
</g>
<!-- AS8359&#45;&gt;AS2497 -->
<g id="edge6" class="edge"><title>AS8359&#45;&gt;AS2497</title>
<path fill="none" stroke="black" d="M323.794,-234C333.347,-234 343.697,-234 353.659,-234"/>
<polygon fill="black" stroke="black" points="353.852,-237.5 363.852,-234 353.852,-230.5 353.852,-237.5"/>
</g>
<!-- AS12389&#45;&gt;AS2497 -->
<g id="edge17" class="edge"><title>AS12389&#45;&gt;AS2497</title>
<path fill="none" stroke="black" d="M299.814,-324.956C315.14,-307.903 340.075,-281.35 364.077,-261 366.574,-258.883 369.235,-256.768 371.946,-254.707"/>
<polygon fill="black" stroke="black" points="374.112,-257.459 380.123,-248.734 369.983,-251.806 374.112,-257.459"/>
</g>
<!-- AS1273 -->
<g id="node12" class="node"><title>AS1273</title>
<g id="a_node12"><a xlink:href="/asn/1273" xlink:title="AS1273 ~ Vodafone Group PLC [EU]">
<ellipse fill="#ffffff" stroke="black" cx="403.724" cy="-288" rx="39.7935" ry="18"/>
<text text-anchor="middle" x="403.724" y="-284.3" font-family="Times,serif" font-size="14.00" fill="#2c94b3">AS1273</text>
</a>
</g>
</g>
<!-- AS12389&#45;&gt;AS1273 -->
<g id="edge12" class="edge"><title>AS12389&#45;&gt;AS1273</title>
<path fill="none" stroke="black" stroke-width="2" d="M314.011,-328.652C329.622,-321.498 349.02,-312.609 365.692,-304.97"/>
<polygon fill="black" stroke="black" stroke-width="2" points="367.511,-307.986 375.144,-300.638 364.595,-301.622 367.511,-307.986"/>
</g>
<!-- AS5511 -->
<g id="node13" class="node"><title>AS5511</title>
<g id="a_node13"><a xlink:href="/asn/5511" xlink:title="AS5511 ~ Orange S.A. [FR]">
<ellipse fill="#ffffff" stroke="black" cx="403.724" cy="-504" rx="39.7935" ry="18"/>
<text text-anchor="middle" x="403.724" y="-500.3" font-family="Times,serif" font-size="14.00" fill="#2c94b3">AS5511</text>
</a>
</g>
</g>
<!-- AS12389&#45;&gt;AS5511 -->
<g id="edge13" class="edge"><title>AS12389&#45;&gt;AS5511</title>
<path fill="none" stroke="black" d="M292.297,-359.761C304.365,-387.183 330.337,-440.473 364.077,-477 366.108,-479.198 368.347,-481.319 370.693,-483.34"/>
<polygon fill="black" stroke="black" points="368.905,-486.386 378.937,-489.794 373.22,-480.874 368.905,-486.386"/>
</g>
<!-- AS3356 -->
<g id="node14" class="node"><title>AS3356</title>
<g id="a_node14"><a xlink:href="/asn/3356" xlink:title="AS3356 ~ Level 3 Parent, LLC [US]">
<ellipse fill="#ffffff" stroke="black" cx="403.724" cy="-450" rx="39.7935" ry="18"/>
<text text-anchor="middle" x="403.724" y="-446.3" font-family="Times,serif" font-size="14.00" fill="#2c94b3">AS3356</text>
</a>
</g>
</g>
<!-- AS12389&#45;&gt;AS3356 -->
<g id="edge14" class="edge"><title>AS12389&#45;&gt;AS3356</title>
<path fill="none" stroke="black" stroke-width="2" d="M299.814,-359.044C315.14,-376.097 340.075,-402.65 364.077,-423 366.574,-425.117 369.235,-427.232 371.946,-429.293"/>
<polygon fill="black" stroke="black" stroke-width="2" points="369.983,-432.194 380.123,-435.266 374.112,-426.541 369.983,-432.194"/>
</g>
<!-- AS6762 -->
<g id="node15" class="node"><title>AS6762</title>
<g id="a_node15"><a xlink:href="/asn/6762" xlink:title="AS6762 ~ TELECOM ITALIA SPARKLE S.p.A. [IT]">
<ellipse fill="#ffffff" stroke="black" cx="403.724" cy="-396" rx="39.7935" ry="18"/>
<text text-anchor="middle" x="403.724" y="-392.3" font-family="Times,serif" font-size="14.00" fill="#2c94b3">AS6762</text>
</a>
</g>
</g>
<!-- AS12389&#45;&gt;AS6762 -->
<g id="edge15" class="edge"><title>AS12389&#45;&gt;AS6762</title>
<path fill="none" stroke="black" d="M314.011,-355.348C329.622,-362.502 349.02,-371.391 365.692,-379.03"/>
<polygon fill="black" stroke="black" points="364.595,-382.378 375.144,-383.362 367.511,-376.014 364.595,-382.378"/>
</g>
<!-- AS3257 -->
<g id="node16" class="node"><title>AS3257</title>
<g id="a_node16"><a xlink:href="/asn/3257" xlink:title="AS3257 ~ GTT [DE]">
<ellipse fill="#ffffff" stroke="black" cx="403.724" cy="-342" rx="39.7935" ry="18"/>
<text text-anchor="middle" x="403.724" y="-338.3" font-family="Times,serif" font-size="14.00" fill="#2c94b3">AS3257</text>
</a>
</g>
</g>
<!-- AS12389&#45;&gt;AS3257 -->
<g id="edge16" class="edge"><title>AS12389&#45;&gt;AS3257</title>
<path fill="none" stroke="black" d="M328.092,-342C336.405,-342 345.168,-342 353.65,-342"/>
<polygon fill="black" stroke="black" points="353.809,-345.5 363.809,-342 353.809,-338.5 353.809,-345.5"/>
</g>
<!-- AS701 -->
<g id="node17" class="node"><title>AS701</title>
<g id="a_node17"><a xlink:href="/asn/701" xlink:title="AS701 ~ UUNET [US]">
<ellipse fill="#ffffff" stroke="black" cx="519.017" cy="-288" rx="35.194" ry="18"/>
<text text-anchor="middle" x="519.017" y="-284.3" font-family="Times,serif" font-size="14.00" fill="#2c94b3">AS701</text>
</a>
</g>
</g>
<!-- AS1273&#45;&gt;AS701 -->
<g id="edge18" class="edge"><title>AS1273&#45;&gt;AS701</title>
<path fill="none" stroke="black" d="M443.396,-288C453.101,-288 463.592,-288 473.555,-288"/>
<polygon fill="black" stroke="black" points="473.691,-291.5 483.691,-288 473.691,-284.5 473.691,-291.5"/>
</g>
<!-- AS3549 -->
<g id="node18" class="node"><title>AS3549</title>
<g id="a_node18"><a xlink:href="/asn/3549" xlink:title="AS3549 ~ Level 3 Parent, LLC [US]">
<ellipse fill="#ffffff" stroke="black" cx="519.017" cy="-450" rx="39.7935" ry="18"/>
<text text-anchor="middle" x="519.017" y="-446.3" font-family="Times,serif" font-size="14.00" fill="#2c94b3">AS3549</text>
</a>
</g>
</g>
<!-- AS3356&#45;&gt;AS3549 -->
<g id="edge19" class="edge"><title>AS3356&#45;&gt;AS3549</title>
<path fill="none" stroke="black" d="M443.396,-450C451.599,-450 460.363,-450 468.895,-450"/>
<polygon fill="black" stroke="black" points="469.134,-453.5 479.134,-450 469.134,-446.5 469.134,-453.5"/>
</g>
</g>
</svg>
