<?xml version="1.0" encoding="UTF-8" standalone="no"?>
<!DOCTYPE svg PUBLIC "-//W3C//DTD SVG 1.1//EN"
 "http://www.w3.org/Graphics/SVG/1.1/DTD/svg11.dtd">
<!-- Generated by graphviz version 2.38.0 (20140413.2041)
 -->
<!-- Title: AS60870 IPv4 Upstream Graph Pages: 1 -->
<svg width="567pt" height="584pt"
 viewBox="0.00 0.00 566.66 584.00" xmlns="http://www.w3.org/2000/svg" xmlns:xlink="http://www.w3.org/1999/xlink">
<g id="graph0" class="graph" transform="scale(1 1) rotate(0) translate(4 580)">
<title>AS60870 IPv4 Upstream Graph</title>
<polygon fill="white" stroke="none" points="-4,4 -4,-580 562.663,-580 562.663,4 -4,4"/>
<!-- AS60870 -->
<g id="node1" class="node"><title>AS60870</title>
<g id="a_node1"><a xlink:href="/asn/60870" xlink:title="AS60870 ~ TECSBY&#45;AS [AT]">
<ellipse fill="#ffffff" stroke="black" cx="44.1961" cy="-288" rx="44.393" ry="18"/>
<text text-anchor="middle" x="44.1961" y="-284.3" font-family="Times,serif" font-size="14.00" fill="#880000">AS60870</text>
</a>
</g>
</g>
<!-- AS6697 -->
<g id="node2" class="node"><title>AS6697</title>
<g id="a_node2"><a xlink:href="/asn/6697" xlink:title="AS6697 ~ BELPAK [BY]">
<ellipse fill="#ffffff" stroke="black" cx="164.039" cy="-288" rx="39.7935" ry="18"/>
<text text-anchor="middle" x="164.039" y="-284.3" font-family="Times,serif" font-size="14.00" fill="#2c94b3">AS6697</text>
</a>
</g>
</g>
<!-- AS60870&#45;&gt;AS6697 -->
<g id="edge1" class="edge"><title>AS60870&#45;&gt;AS6697</title>
<path fill="none" stroke="black" stroke-width="4.5" d="M88.4072,-288C96.7198,-288 105.482,-288 113.965,-288"/>
<polygon fill="black" stroke="black" stroke-width="4.5" points="114.123,-291.938 124.123,-288 114.123,-284.063 114.123,-291.938"/>
</g>
<!-- AS174 -->
<g id="node3" class="node"><title>AS174</title>
<g id="a_node3"><a xlink:href="/asn/174" xlink:title="AS174 ~ Cogent Communications [US]">
<ellipse fill="#ffffff" stroke="black" cx="283.881" cy="-477" rx="35.194" ry="18"/>
<text text-anchor="middle" x="283.881" y="-473.3" font-family="Times,serif" font-size="14.00" fill="#2c94b3">AS174</text>
</a>
</g>
</g>
<!-- AS6697&#45;&gt;AS174 -->
<g id="edge2" class="edge"><title>AS6697&#45;&gt;AS174</title>
<path fill="none" stroke="black" stroke-width="2.25" d="M175.914,-305.442C196.75,-338.859 242.389,-412.057 266.772,-451.163"/>
<polygon fill="black" stroke="black" stroke-width="2.25" points="263.942,-453.239 272.203,-459.873 269.882,-449.536 263.942,-453.239"/>
</g>
<!-- AS1299 -->
<g id="node4" class="node"><title>AS1299</title>
<g id="a_node4"><a xlink:href="/asn/1299" xlink:title="AS1299 ~ Telia Carrier [EU]">
<ellipse fill="#ffffff" stroke="black" cx="283.881" cy="-369" rx="39.7935" ry="18"/>
<text text-anchor="middle" x="283.881" y="-365.3" font-family="Times,serif" font-size="14.00" fill="#2c94b3">AS1299</text>
</a>
</g>
</g>
<!-- AS6697&#45;&gt;AS1299 -->
<g id="edge3" class="edge"><title>AS6697&#45;&gt;AS1299</title>
<path fill="none" stroke="black" stroke-width="3.375" d="M186.653,-302.857C205.141,-315.565 231.955,-333.995 252.585,-348.175"/>
<polygon fill="black" stroke="black" stroke-width="3.375" points="250.781,-351.183 261.005,-353.963 254.747,-345.414 250.781,-351.183"/>
</g>
<!-- AS12389 -->
<g id="node5" class="node"><title>AS12389</title>
<g id="a_node5"><a xlink:href="/asn/12389" xlink:title="AS12389 ~ PJSC Rostelecom [RU]">
<ellipse fill="#ffffff" stroke="black" cx="283.881" cy="-207" rx="44.393" ry="18"/>
<text text-anchor="middle" x="283.881" y="-203.3" font-family="Times,serif" font-size="14.00" fill="#2c94b3">AS12389</text>
</a>
</g>
</g>
<!-- AS6697&#45;&gt;AS12389 -->
<g id="edge4" class="edge"><title>AS6697&#45;&gt;AS12389</title>
<path fill="none" stroke="black" stroke-width="4.5" d="M186.653,-273.143C205.025,-260.515 231.618,-242.236 252.195,-228.093"/>
<polygon fill="black" stroke="black" stroke-width="4.5" points="254.593,-231.222 260.603,-222.313 250.132,-224.732 254.593,-231.222"/>
</g>
<!-- AS6461 -->
<g id="node6" class="node"><title>AS6461</title>
<g id="a_node6"><a xlink:href="/asn/6461" xlink:title="AS6461 ~ Zayo Bandwidth [US]">
<ellipse fill="#ffffff" stroke="black" cx="283.881" cy="-153" rx="39.7935" ry="18"/>
<text text-anchor="middle" x="283.881" y="-149.3" font-family="Times,serif" font-size="14.00" fill="#2c94b3">AS6461</text>
</a>
</g>
</g>
<!-- AS6697&#45;&gt;AS6461 -->
<g id="edge5" class="edge"><title>AS6697&#45;&gt;AS6461</title>
<path fill="none" stroke="black" stroke-width="0.5625" d="M174.28,-270.287C186.825,-247.439 211.002,-207.389 239.685,-180 242.553,-177.261 245.742,-174.653 249.051,-172.215"/>
<polygon fill="black" stroke="black" stroke-width="0.5625" points="251.114,-175.044 257.411,-166.523 247.175,-169.258 251.114,-175.044"/>
</g>
<!-- AS8359 -->
<g id="node7" class="node"><title>AS8359</title>
<g id="a_node7"><a xlink:href="/asn/8359" xlink:title="AS8359 ~ MTS PJSC [RU]">
<ellipse fill="#ffffff" stroke="black" cx="283.881" cy="-288" rx="39.7935" ry="18"/>
<text text-anchor="middle" x="283.881" y="-284.3" font-family="Times,serif" font-size="14.00" fill="#2c94b3">AS8359</text>
</a>
</g>
</g>
<!-- AS6697&#45;&gt;AS8359 -->
<g id="edge6" class="edge"><title>AS6697&#45;&gt;AS8359</title>
<path fill="none" stroke="black" stroke-width="0.5625" d="M203.951,-288C213.505,-288 223.854,-288 233.817,-288"/>
<polygon fill="black" stroke="black" stroke-width="0.5625" points="234.009,-291.5 244.009,-288 234.009,-284.5 234.009,-291.5"/>
</g>
<!-- AS2914 -->
<g id="node8" class="node"><title>AS2914</title>
<g id="a_node8"><a xlink:href="/asn/2914" xlink:title="AS2914 ~ NTT America, Inc. [US]">
<ellipse fill="#ffffff" stroke="black" cx="403.724" cy="-450" rx="39.7935" ry="18"/>
<text text-anchor="middle" x="403.724" y="-446.3" font-family="Times,serif" font-size="14.00" fill="#2c94b3">AS2914</text>
</a>
</g>
</g>
<!-- AS174&#45;&gt;AS2914 -->
<g id="edge7" class="edge"><title>AS174&#45;&gt;AS2914</title>
<path fill="none" stroke="black" d="M316.151,-469.835C328.991,-466.894 344.095,-463.433 358.063,-460.233"/>
<polygon fill="black" stroke="black" points="359.018,-463.605 367.983,-457.96 357.454,-456.781 359.018,-463.605"/>
</g>
<!-- AS3491 -->
<g id="node9" class="node"><title>AS3491</title>
<g id="a_node9"><a xlink:href="/asn/3491" xlink:title="AS3491 ~ PCCW Global, Inc. [US]">
<ellipse fill="#ffffff" stroke="black" cx="403.724" cy="-504" rx="39.7935" ry="18"/>
<text text-anchor="middle" x="403.724" y="-500.3" font-family="Times,serif" font-size="14.00" fill="#2c94b3">AS3491</text>
</a>
</g>
</g>
<!-- AS174&#45;&gt;AS3491 -->
<g id="edge8" class="edge"><title>AS174&#45;&gt;AS3491</title>
<path fill="none" stroke="black" d="M316.151,-484.165C328.991,-487.106 344.095,-490.567 358.063,-493.767"/>
<polygon fill="black" stroke="black" points="357.454,-497.219 367.983,-496.04 359.018,-490.395 357.454,-497.219"/>
</g>
<!-- AS6453 -->
<g id="node10" class="node"><title>AS6453</title>
<g id="a_node10"><a xlink:href="/asn/6453" xlink:title="AS6453 ~ TATA COMMUNICATIONS (AMERICA) INC [US]">
<ellipse fill="#ffffff" stroke="black" cx="403.724" cy="-558" rx="39.7935" ry="18"/>
<text text-anchor="middle" x="403.724" y="-554.3" font-family="Times,serif" font-size="14.00" fill="#2c94b3">AS6453</text>
</a>
</g>
</g>
<!-- AS174&#45;&gt;AS6453 -->
<g id="edge9" class="edge"><title>AS174&#45;&gt;AS6453</title>
<path fill="none" stroke="black" d="M305.678,-491.295C324.261,-504.068 351.712,-522.937 372.68,-537.349"/>
<polygon fill="black" stroke="black" points="370.714,-540.245 380.938,-543.025 374.68,-534.476 370.714,-540.245"/>
</g>
<!-- AS1299&#45;&gt;AS2914 -->
<g id="edge11" class="edge"><title>AS1299&#45;&gt;AS2914</title>
<path fill="none" stroke="black" d="M306.495,-383.857C324.984,-396.565 351.798,-414.995 372.427,-429.175"/>
<polygon fill="black" stroke="black" points="370.624,-432.183 380.848,-434.963 374.589,-426.414 370.624,-432.183"/>
</g>
<!-- AS1299&#45;&gt;AS3491 -->
<g id="edge13" class="edge"><title>AS1299&#45;&gt;AS3491</title>
<path fill="none" stroke="black" d="M295.147,-386.44C308.955,-408.991 335.144,-448.722 364.077,-477 366.217,-479.092 368.535,-481.137 370.934,-483.106"/>
<polygon fill="black" stroke="black" points="369.201,-486.185 379.276,-489.464 373.445,-480.618 369.201,-486.185"/>
</g>
<!-- AS2497 -->
<g id="node11" class="node"><title>AS2497</title>
<g id="a_node11"><a xlink:href="/asn/2497" xlink:title="AS2497 ~ Internet Initiative Japan Inc. [JP]">
<ellipse fill="#ffffff" stroke="black" cx="403.724" cy="-288" rx="39.7935" ry="18"/>
<text text-anchor="middle" x="403.724" y="-284.3" font-family="Times,serif" font-size="14.00" fill="#2c94b3">AS2497</text>
</a>
</g>
</g>
<!-- AS1299&#45;&gt;AS2497 -->
<g id="edge10" class="edge"><title>AS1299&#45;&gt;AS2497</title>
<path fill="none" stroke="black" d="M306.495,-354.143C324.984,-341.435 351.798,-323.005 372.427,-308.825"/>
<polygon fill="black" stroke="black" points="374.589,-311.586 380.848,-303.037 370.624,-305.817 374.589,-311.586"/>
</g>
<!-- AS1239 -->
<g id="node12" class="node"><title>AS1239</title>
<g id="a_node12"><a xlink:href="/asn/1239" xlink:title="AS1239 ~ Sprint [US]">
<ellipse fill="#ffffff" stroke="black" cx="403.724" cy="-342" rx="39.7935" ry="18"/>
<text text-anchor="middle" x="403.724" y="-338.3" font-family="Times,serif" font-size="14.00" fill="#2c94b3">AS1239</text>
</a>
</g>
</g>
<!-- AS1299&#45;&gt;AS1239 -->
<g id="edge12" class="edge"><title>AS1299&#45;&gt;AS1239</title>
<path fill="none" stroke="black" d="M319.6,-361.045C331.6,-358.296 345.221,-355.175 357.914,-352.267"/>
<polygon fill="black" stroke="black" points="358.88,-355.636 367.845,-349.991 357.316,-348.813 358.88,-355.636"/>
</g>
<!-- AS7018 -->
<g id="node13" class="node"><title>AS7018</title>
<g id="a_node13"><a xlink:href="/asn/7018" xlink:title="AS7018 ~ AT&amp;T Services, Inc. [US]">
<ellipse fill="#ffffff" stroke="black" cx="403.724" cy="-396" rx="39.7935" ry="18"/>
<text text-anchor="middle" x="403.724" y="-392.3" font-family="Times,serif" font-size="14.00" fill="#2c94b3">AS7018</text>
</a>
</g>
</g>
<!-- AS1299&#45;&gt;AS7018 -->
<g id="edge14" class="edge"><title>AS1299&#45;&gt;AS7018</title>
<path fill="none" stroke="black" d="M319.6,-376.955C331.6,-379.704 345.221,-382.825 357.914,-385.733"/>
<polygon fill="black" stroke="black" points="357.316,-389.187 367.845,-388.009 358.88,-382.364 357.316,-389.187"/>
</g>
<!-- AS12389&#45;&gt;AS2497 -->
<g id="edge15" class="edge"><title>AS12389&#45;&gt;AS2497</title>
<path fill="none" stroke="black" d="M307.324,-222.426C325.905,-235.198 352.466,-253.455 372.846,-267.463"/>
<polygon fill="black" stroke="black" points="370.936,-270.398 381.16,-273.178 374.902,-264.629 370.936,-270.398"/>
</g>
<!-- AS3356 -->
<g id="node14" class="node"><title>AS3356</title>
<g id="a_node14"><a xlink:href="/asn/3356" xlink:title="AS3356 ~ Level 3 Parent, LLC [US]">
<ellipse fill="#ffffff" stroke="black" cx="403.724" cy="-72" rx="39.7935" ry="18"/>
<text text-anchor="middle" x="403.724" y="-68.3" font-family="Times,serif" font-size="14.00" fill="#2c94b3">AS3356</text>
</a>
</g>
</g>
<!-- AS12389&#45;&gt;AS3356 -->
<g id="edge16" class="edge"><title>AS12389&#45;&gt;AS3356</title>
<path fill="none" stroke="black" stroke-width="2" d="M312.829,-192.956C318.366,-189.281 323.786,-184.941 328.077,-180 353.911,-150.258 339.013,-129.394 364.077,-99 365.932,-96.7505 368.02,-94.6041 370.238,-92.5759"/>
<polygon fill="black" stroke="black" stroke-width="2" points="372.587,-95.1775 378.143,-86.1563 368.174,-89.7437 372.587,-95.1775"/>
</g>
<!-- AS1273 -->
<g id="node15" class="node"><title>AS1273</title>
<g id="a_node15"><a xlink:href="/asn/1273" xlink:title="AS1273 ~ Vodafone Group PLC [EU]">
<ellipse fill="#ffffff" stroke="black" cx="403.724" cy="-18" rx="39.7935" ry="18"/>
<text text-anchor="middle" x="403.724" y="-14.3" font-family="Times,serif" font-size="14.00" fill="#2c94b3">AS1273</text>
</a>
</g>
</g>
<!-- AS12389&#45;&gt;AS1273 -->
<g id="edge17" class="edge"><title>AS12389&#45;&gt;AS1273</title>
<path fill="none" stroke="black" stroke-width="2" d="M313.439,-193.445C318.938,-189.74 324.188,-185.263 328.077,-180 364.981,-130.059 328.464,-95.8692 364.077,-45 365.75,-42.6114 367.705,-40.3647 369.832,-38.2667"/>
<polygon fill="black" stroke="black" stroke-width="2" points="372.196,-40.8507 377.564,-31.7163 367.672,-35.5095 372.196,-40.8507"/>
</g>
<!-- AS5511 -->
<g id="node16" class="node"><title>AS5511</title>
<g id="a_node16"><a xlink:href="/asn/5511" xlink:title="AS5511 ~ Orange S.A. [FR]">
<ellipse fill="#ffffff" stroke="black" cx="403.724" cy="-234" rx="39.7935" ry="18"/>
<text text-anchor="middle" x="403.724" y="-230.3" font-family="Times,serif" font-size="14.00" fill="#2c94b3">AS5511</text>
</a>
</g>
</g>
<!-- AS12389&#45;&gt;AS5511 -->
<g id="edge18" class="edge"><title>AS12389&#45;&gt;AS5511</title>
<path fill="none" stroke="black" d="M322.816,-215.692C334.057,-218.267 346.469,-221.111 358.092,-223.774"/>
<polygon fill="black" stroke="black" points="357.525,-227.235 368.054,-226.057 359.088,-220.412 357.525,-227.235"/>
</g>
<!-- AS3257 -->
<g id="node17" class="node"><title>AS3257</title>
<g id="a_node17"><a xlink:href="/asn/3257" xlink:title="AS3257 ~ GTT [DE]">
<ellipse fill="#ffffff" stroke="black" cx="403.724" cy="-180" rx="39.7935" ry="18"/>
<text text-anchor="middle" x="403.724" y="-176.3" font-family="Times,serif" font-size="14.00" fill="#2c94b3">AS3257</text>
</a>
</g>
</g>
<!-- AS12389&#45;&gt;AS3257 -->
<g id="edge19" class="edge"><title>AS12389&#45;&gt;AS3257</title>
<path fill="none" stroke="black" d="M322.816,-198.308C334.057,-195.733 346.469,-192.889 358.092,-190.226"/>
<polygon fill="black" stroke="black" points="359.088,-193.588 368.054,-187.943 357.525,-186.765 359.088,-193.588"/>
</g>
<!-- AS6762 -->
<g id="node18" class="node"><title>AS6762</title>
<g id="a_node18"><a xlink:href="/asn/6762" xlink:title="AS6762 ~ TELECOM ITALIA SPARKLE S.p.A. [IT]">
<ellipse fill="#ffffff" stroke="black" cx="403.724" cy="-126" rx="39.7935" ry="18"/>
<text text-anchor="middle" x="403.724" y="-122.3" font-family="Times,serif" font-size="14.00" fill="#2c94b3">AS6762</text>
</a>
</g>
</g>
<!-- AS12389&#45;&gt;AS6762 -->
<g id="edge20" class="edge"><title>AS12389&#45;&gt;AS6762</title>
<path fill="none" stroke="black" d="M309.332,-192.22C315.515,-188.345 322.096,-184.101 328.077,-180 344.572,-168.689 347.877,-164.729 364.077,-153 366.88,-150.971 369.812,-148.875 372.752,-146.79"/>
<polygon fill="black" stroke="black" points="374.803,-149.627 380.967,-141.009 370.775,-143.903 374.803,-149.627"/>
</g>
<!-- AS8359&#45;&gt;AS2497 -->
<g id="edge22" class="edge"><title>AS8359&#45;&gt;AS2497</title>
<path fill="none" stroke="black" d="M323.794,-288C333.347,-288 343.697,-288 353.659,-288"/>
<polygon fill="black" stroke="black" points="353.852,-291.5 363.852,-288 353.852,-284.5 353.852,-291.5"/>
</g>
<!-- AS3549 -->
<g id="node19" class="node"><title>AS3549</title>
<g id="a_node19"><a xlink:href="/asn/3549" xlink:title="AS3549 ~ Level 3 Parent, LLC [US]">
<ellipse fill="#ffffff" stroke="black" cx="519.017" cy="-72" rx="39.7935" ry="18"/>
<text text-anchor="middle" x="519.017" y="-68.3" font-family="Times,serif" font-size="14.00" fill="#2c94b3">AS3549</text>
</a>
</g>
</g>
<!-- AS3356&#45;&gt;AS3549 -->
<g id="edge21" class="edge"><title>AS3356&#45;&gt;AS3549</title>
<path fill="none" stroke="black" d="M443.396,-72C451.599,-72 460.363,-72 468.895,-72"/>
<polygon fill="black" stroke="black" points="469.134,-75.5001 479.134,-72 469.134,-68.5001 469.134,-75.5001"/>
</g>
<!-- AS701 -->
<g id="node20" class="node"><title>AS701</title>
<g id="a_node20"><a xlink:href="/asn/701" xlink:title="AS701 ~ UUNET [US]">
<ellipse fill="#ffffff" stroke="black" cx="519.017" cy="-18" rx="35.194" ry="18"/>
<text text-anchor="middle" x="519.017" y="-14.3" font-family="Times,serif" font-size="14.00" fill="#2c94b3">AS701</text>
</a>
</g>
</g>
<!-- AS1273&#45;&gt;AS701 -->
<g id="edge23" class="edge"><title>AS1273&#45;&gt;AS701</title>
<path fill="none" stroke="black" d="M443.396,-18C453.101,-18 463.592,-18 473.555,-18"/>
<polygon fill="black" stroke="black" points="473.691,-21.5001 483.691,-18 473.691,-14.5001 473.691,-21.5001"/>
</g>
</g>
</svg>
