<?xml version="1.0" encoding="UTF-8" standalone="no"?>
<!DOCTYPE svg PUBLIC "-//W3C//DTD SVG 1.1//EN"
 "http://www.w3.org/Graphics/SVG/1.1/DTD/svg11.dtd">
<!-- Generated by graphviz version 2.38.0 (20140413.2041)
 -->
<!-- Title: AS41915 IPv4 Upstream Graph Pages: 1 -->
<svg width="567pt" height="462pt"
 viewBox="0.00 0.00 566.66 462.00" xmlns="http://www.w3.org/2000/svg" xmlns:xlink="http://www.w3.org/1999/xlink">
<g id="graph0" class="graph" transform="scale(1 1) rotate(0) translate(4 458)">
<title>AS41915 IPv4 Upstream Graph</title>
<polygon fill="white" stroke="none" points="-4,4 -4,-458 562.663,-458 562.663,4 -4,4"/>
<!-- AS41915 -->
<g id="node1" class="node"><title>AS41915</title>
<g id="a_node1"><a xlink:href="/asn/41915" xlink:title="AS41915 ~ LFRZ [AT]">
<ellipse fill="#ffffff" stroke="black" cx="44.1961" cy="-153" rx="44.393" ry="18"/>
<text text-anchor="middle" x="44.1961" y="-149.3" font-family="Times,serif" font-size="14.00" fill="#880000">AS41915</text>
</a>
</g>
</g>
<!-- AS1853 -->
<g id="node2" class="node"><title>AS1853</title>
<g id="a_node2"><a xlink:href="/asn/1853" xlink:title="AS1853 ~ ACOnet Backbone [AT]">
<ellipse fill="#ffffff" stroke="black" cx="164.039" cy="-153" rx="39.7935" ry="18"/>
<text text-anchor="middle" x="164.039" y="-149.3" font-family="Times,serif" font-size="14.00" fill="#2c94b3">AS1853</text>
</a>
</g>
</g>
<!-- AS41915&#45;&gt;AS1853 -->
<g id="edge1" class="edge"><title>AS41915&#45;&gt;AS1853</title>
<path fill="none" stroke="black" stroke-width="4.5" d="M88.4072,-153C96.7198,-153 105.482,-153 113.965,-153"/>
<polygon fill="black" stroke="black" stroke-width="4.5" points="114.123,-156.938 124.123,-153 114.123,-149.063 114.123,-156.938"/>
</g>
<!-- AS1764 -->
<g id="node3" class="node"><title>AS1764</title>
<g id="a_node3"><a xlink:href="/asn/1764" xlink:title="AS1764 ~ NEXTLAYER&#45;AS [AT]">
<ellipse fill="#ffffff" stroke="black" cx="283.881" cy="-207" rx="39.7935" ry="18"/>
<text text-anchor="middle" x="283.881" y="-203.3" font-family="Times,serif" font-size="14.00" fill="#2c94b3">AS1764</text>
</a>
</g>
</g>
<!-- AS1853&#45;&gt;AS1764 -->
<g id="edge2" class="edge"><title>AS1853&#45;&gt;AS1764</title>
<path fill="none" stroke="black" stroke-width="4.5" d="M192.667,-165.661C208.624,-172.973 228.895,-182.261 246.178,-190.181"/>
<polygon fill="black" stroke="black" stroke-width="4.5" points="244.694,-193.832 255.425,-194.419 247.975,-186.673 244.694,-193.832"/>
</g>
<!-- AS21320 -->
<g id="node4" class="node"><title>AS21320</title>
<g id="a_node4"><a xlink:href="/asn/21320" xlink:title="AS21320 ~ GEANT Vereniging [EU]">
<ellipse fill="#ffffff" stroke="black" cx="283.881" cy="-72" rx="44.393" ry="18"/>
<text text-anchor="middle" x="283.881" y="-68.3" font-family="Times,serif" font-size="14.00" fill="#2c94b3">AS21320</text>
</a>
</g>
</g>
<!-- AS1853&#45;&gt;AS21320 -->
<g id="edge3" class="edge"><title>AS1853&#45;&gt;AS21320</title>
<path fill="none" stroke="black" stroke-width="0.75" d="M186.653,-138.143C205.025,-125.515 231.618,-107.236 252.195,-93.0926"/>
<polygon fill="black" stroke="black" stroke-width="0.75" points="254.345,-95.8617 260.603,-87.3128 250.38,-90.093 254.345,-95.8617"/>
</g>
<!-- AS3356 -->
<g id="node5" class="node"><title>AS3356</title>
<g id="a_node5"><a xlink:href="/asn/3356" xlink:title="AS3356 ~ Level 3 Parent, LLC [US]">
<ellipse fill="#ffffff" stroke="black" cx="283.881" cy="-153" rx="39.7935" ry="18"/>
<text text-anchor="middle" x="283.881" y="-149.3" font-family="Times,serif" font-size="14.00" fill="#2c94b3">AS3356</text>
</a>
</g>
</g>
<!-- AS1853&#45;&gt;AS3356 -->
<g id="edge4" class="edge"><title>AS1853&#45;&gt;AS3356</title>
<path fill="none" stroke="black" stroke-width="1.125" d="M203.951,-153C213.505,-153 223.854,-153 233.817,-153"/>
<polygon fill="black" stroke="black" stroke-width="1.125" points="234.009,-156.5 244.009,-153 234.009,-149.5 234.009,-156.5"/>
</g>
<!-- AS2914 -->
<g id="node6" class="node"><title>AS2914</title>
<g id="a_node6"><a xlink:href="/asn/2914" xlink:title="AS2914 ~ NTT America, Inc. [US]">
<ellipse fill="#ffffff" stroke="black" cx="403.724" cy="-207" rx="39.7935" ry="18"/>
<text text-anchor="middle" x="403.724" y="-203.3" font-family="Times,serif" font-size="14.00" fill="#2c94b3">AS2914</text>
</a>
</g>
</g>
<!-- AS1764&#45;&gt;AS2914 -->
<g id="edge5" class="edge"><title>AS1764&#45;&gt;AS2914</title>
<path fill="none" stroke="black" stroke-width="4.5" d="M323.794,-207C333.347,-207 343.697,-207 353.659,-207"/>
<polygon fill="black" stroke="black" stroke-width="4.5" points="353.852,-210.938 363.852,-207 353.852,-203.063 353.852,-210.938"/>
</g>
<!-- AS1299 -->
<g id="node7" class="node"><title>AS1299</title>
<g id="a_node7"><a xlink:href="/asn/1299" xlink:title="AS1299 ~ Telia Carrier [EU]">
<ellipse fill="#ffffff" stroke="black" cx="403.724" cy="-309" rx="39.7935" ry="18"/>
<text text-anchor="middle" x="403.724" y="-305.3" font-family="Times,serif" font-size="14.00" fill="#2c94b3">AS1299</text>
</a>
</g>
</g>
<!-- AS1764&#45;&gt;AS1299 -->
<g id="edge6" class="edge"><title>AS1764&#45;&gt;AS1299</title>
<path fill="none" stroke="black" stroke-width="4.5" d="M303.294,-222.938C323.011,-240.004 354.459,-267.223 376.701,-286.476"/>
<polygon fill="black" stroke="black" stroke-width="4.5" points="374.302,-289.607 384.44,-293.174 379.456,-283.653 374.302,-289.607"/>
</g>
<!-- AS6461 -->
<g id="node13" class="node"><title>AS6461</title>
<g id="a_node13"><a xlink:href="/asn/6461" xlink:title="AS6461 ~ Zayo Bandwidth [US]">
<ellipse fill="#ffffff" stroke="black" cx="403.724" cy="-18" rx="39.7935" ry="18"/>
<text text-anchor="middle" x="403.724" y="-14.3" font-family="Times,serif" font-size="14.00" fill="#2c94b3">AS6461</text>
</a>
</g>
</g>
<!-- AS21320&#45;&gt;AS6461 -->
<g id="edge12" class="edge"><title>AS21320&#45;&gt;AS6461</title>
<path fill="none" stroke="black" d="M314.011,-58.6517C329.622,-51.498 349.02,-42.6093 365.692,-34.9695"/>
<polygon fill="black" stroke="black" points="367.511,-37.986 375.144,-30.6382 364.595,-31.6223 367.511,-37.986"/>
</g>
<!-- AS2603 -->
<g id="node14" class="node"><title>AS2603</title>
<g id="a_node14"><a xlink:href="/asn/2603" xlink:title="AS2603 ~ NORDUnet [NO]">
<ellipse fill="#ffffff" stroke="black" cx="403.724" cy="-72" rx="39.7935" ry="18"/>
<text text-anchor="middle" x="403.724" y="-68.3" font-family="Times,serif" font-size="14.00" fill="#2c94b3">AS2603</text>
</a>
</g>
</g>
<!-- AS21320&#45;&gt;AS2603 -->
<g id="edge13" class="edge"><title>AS21320&#45;&gt;AS2603</title>
<path fill="none" stroke="black" d="M328.092,-72C336.405,-72 345.168,-72 353.65,-72"/>
<polygon fill="black" stroke="black" points="353.809,-75.5001 363.809,-72 353.809,-68.5001 353.809,-75.5001"/>
</g>
<!-- AS6762 -->
<g id="node12" class="node"><title>AS6762</title>
<g id="a_node12"><a xlink:href="/asn/6762" xlink:title="AS6762 ~ TELECOM ITALIA SPARKLE S.p.A. [IT]">
<ellipse fill="#ffffff" stroke="black" cx="519.017" cy="-274" rx="39.7935" ry="18"/>
<text text-anchor="middle" x="519.017" y="-270.3" font-family="Times,serif" font-size="14.00" fill="#2c94b3">AS6762</text>
</a>
</g>
</g>
<!-- AS3356&#45;&gt;AS6762 -->
<g id="edge20" class="edge"><title>AS3356&#45;&gt;AS6762</title>
<path fill="none" stroke="black" d="M310.41,-166.462C316.573,-170.362 322.875,-174.948 328.077,-180 348.771,-200.094 340.576,-217.275 364.077,-234 395.036,-256.032 437.191,-265.936 469.561,-270.384"/>
<polygon fill="black" stroke="black" points="469.344,-273.884 479.7,-271.645 470.208,-266.937 469.344,-273.884"/>
</g>
<!-- AS3549 -->
<g id="node18" class="node"><title>AS3549</title>
<g id="a_node18"><a xlink:href="/asn/3549" xlink:title="AS3549 ~ Level 3 Parent, LLC [US]">
<ellipse fill="#ffffff" stroke="black" cx="403.724" cy="-153" rx="39.7935" ry="18"/>
<text text-anchor="middle" x="403.724" y="-149.3" font-family="Times,serif" font-size="14.00" fill="#2c94b3">AS3549</text>
</a>
</g>
</g>
<!-- AS3356&#45;&gt;AS3549 -->
<g id="edge19" class="edge"><title>AS3356&#45;&gt;AS3549</title>
<path fill="none" stroke="black" d="M323.794,-153C333.347,-153 343.697,-153 353.659,-153"/>
<polygon fill="black" stroke="black" points="353.852,-156.5 363.852,-153 353.852,-149.5 353.852,-156.5"/>
</g>
<!-- AS174 -->
<g id="node8" class="node"><title>AS174</title>
<g id="a_node8"><a xlink:href="/asn/174" xlink:title="AS174 ~ Cogent Communications [US]">
<ellipse fill="#ffffff" stroke="black" cx="519.017" cy="-220" rx="35.194" ry="18"/>
<text text-anchor="middle" x="519.017" y="-216.3" font-family="Times,serif" font-size="14.00" fill="#2c94b3">AS174</text>
</a>
</g>
</g>
<!-- AS2914&#45;&gt;AS174 -->
<g id="edge7" class="edge"><title>AS2914&#45;&gt;AS174</title>
<path fill="none" stroke="black" d="M442.449,-211.329C452.683,-212.503 463.849,-213.784 474.381,-214.993"/>
<polygon fill="black" stroke="black" points="474.309,-218.508 484.643,-216.17 475.107,-211.553 474.309,-218.508"/>
</g>
<!-- AS3491 -->
<g id="node9" class="node"><title>AS3491</title>
<g id="a_node9"><a xlink:href="/asn/3491" xlink:title="AS3491 ~ PCCW Global, Inc. [US]">
<ellipse fill="#ffffff" stroke="black" cx="519.017" cy="-58" rx="39.7935" ry="18"/>
<text text-anchor="middle" x="519.017" y="-54.3" font-family="Times,serif" font-size="14.00" fill="#2c94b3">AS3491</text>
</a>
</g>
</g>
<!-- AS2914&#45;&gt;AS3491 -->
<g id="edge8" class="edge"><title>AS2914&#45;&gt;AS3491</title>
<path fill="none" stroke="black" d="M429.506,-193.005C434.59,-189.281 439.549,-184.908 443.37,-180 471.111,-144.375 451.629,-120.625 479.37,-85 481.162,-82.6994 483.203,-80.5163 485.39,-78.4624"/>
<polygon fill="black" stroke="black" points="487.745,-81.0567 493.234,-71.9948 483.292,-75.6557 487.745,-81.0567"/>
</g>
<!-- AS2497 -->
<g id="node10" class="node"><title>AS2497</title>
<g id="a_node10"><a xlink:href="/asn/2497" xlink:title="AS2497 ~ Internet Initiative Japan Inc. [JP]">
<ellipse fill="#ffffff" stroke="black" cx="519.017" cy="-112" rx="39.7935" ry="18"/>
<text text-anchor="middle" x="519.017" y="-108.3" font-family="Times,serif" font-size="14.00" fill="#2c94b3">AS2497</text>
</a>
</g>
</g>
<!-- AS2914&#45;&gt;AS2497 -->
<g id="edge9" class="edge"><title>AS2914&#45;&gt;AS2497</title>
<path fill="none" stroke="black" d="M427.488,-192.454C432.887,-188.641 438.491,-184.367 443.37,-180 461.44,-163.828 461.3,-155.172 479.37,-139 481.81,-136.817 484.431,-134.656 487.116,-132.565"/>
<polygon fill="black" stroke="black" points="489.295,-135.307 495.252,-126.546 485.131,-129.68 489.295,-135.307"/>
</g>
<!-- AS701 -->
<g id="node11" class="node"><title>AS701</title>
<g id="a_node11"><a xlink:href="/asn/701" xlink:title="AS701 ~ UUNET [US]">
<ellipse fill="#ffffff" stroke="black" cx="519.017" cy="-166" rx="35.194" ry="18"/>
<text text-anchor="middle" x="519.017" y="-162.3" font-family="Times,serif" font-size="14.00" fill="#2c94b3">AS701</text>
</a>
</g>
</g>
<!-- AS2914&#45;&gt;AS701 -->
<g id="edge10" class="edge"><title>AS2914&#45;&gt;AS701</title>
<path fill="none" stroke="black" d="M435.382,-195.905C449.12,-190.933 465.46,-185.02 479.969,-179.769"/>
<polygon fill="black" stroke="black" points="481.455,-182.954 489.667,-176.26 479.073,-176.372 481.455,-182.954"/>
</g>
<!-- AS2914&#45;&gt;AS6762 -->
<g id="edge11" class="edge"><title>AS2914&#45;&gt;AS6762</title>
<path fill="none" stroke="black" d="M428.75,-221.209C445.123,-230.891 467.01,-243.835 485.014,-254.482"/>
<polygon fill="black" stroke="black" points="483.636,-257.734 494.025,-259.812 487.199,-251.708 483.636,-257.734"/>
</g>
<!-- AS1299&#45;&gt;AS174 -->
<g id="edge14" class="edge"><title>AS1299&#45;&gt;AS174</title>
<path fill="none" stroke="black" d="M423.088,-293.018C437.988,-280.23 459.678,-262.016 479.37,-247 482.344,-244.733 485.487,-242.415 488.644,-240.136"/>
<polygon fill="black" stroke="black" points="490.797,-242.9 496.929,-234.26 486.748,-237.191 490.797,-242.9"/>
</g>
<!-- AS1299&#45;&gt;AS6762 -->
<g id="edge18" class="edge"><title>AS1299&#45;&gt;AS6762</title>
<path fill="none" stroke="black" d="M436.886,-299.064C449.084,-295.295 463.159,-290.947 476.125,-286.942"/>
<polygon fill="black" stroke="black" points="477.253,-290.257 485.774,-283.961 475.187,-283.569 477.253,-290.257"/>
</g>
<!-- AS7018 -->
<g id="node15" class="node"><title>AS7018</title>
<g id="a_node15"><a xlink:href="/asn/7018" xlink:title="AS7018 ~ AT&amp;T Services, Inc. [US]">
<ellipse fill="#ffffff" stroke="black" cx="519.017" cy="-382" rx="39.7935" ry="18"/>
<text text-anchor="middle" x="519.017" y="-378.3" font-family="Times,serif" font-size="14.00" fill="#2c94b3">AS7018</text>
</a>
</g>
</g>
<!-- AS1299&#45;&gt;AS7018 -->
<g id="edge15" class="edge"><title>AS1299&#45;&gt;AS7018</title>
<path fill="none" stroke="black" d="M427.378,-323.597C444.436,-334.589 468.02,-349.785 486.855,-361.921"/>
<polygon fill="black" stroke="black" points="485.1,-364.954 495.402,-367.428 488.891,-359.069 485.1,-364.954"/>
</g>
<!-- AS3257 -->
<g id="node16" class="node"><title>AS3257</title>
<g id="a_node16"><a xlink:href="/asn/3257" xlink:title="AS3257 ~ GTT [DE]">
<ellipse fill="#ffffff" stroke="black" cx="519.017" cy="-328" rx="39.7935" ry="18"/>
<text text-anchor="middle" x="519.017" y="-324.3" font-family="Times,serif" font-size="14.00" fill="#2c94b3">AS3257</text>
</a>
</g>
</g>
<!-- AS1299&#45;&gt;AS3257 -->
<g id="edge16" class="edge"><title>AS1299&#45;&gt;AS3257</title>
<path fill="none" stroke="black" d="M441.194,-315.116C450.897,-316.744 461.508,-318.523 471.663,-320.226"/>
<polygon fill="black" stroke="black" points="471.174,-323.693 481.615,-321.895 472.331,-316.789 471.174,-323.693"/>
</g>
<!-- AS1239 -->
<g id="node17" class="node"><title>AS1239</title>
<g id="a_node17"><a xlink:href="/asn/1239" xlink:title="AS1239 ~ Sprint [US]">
<ellipse fill="#ffffff" stroke="black" cx="519.017" cy="-436" rx="39.7935" ry="18"/>
<text text-anchor="middle" x="519.017" y="-432.3" font-family="Times,serif" font-size="14.00" fill="#2c94b3">AS1239</text>
</a>
</g>
</g>
<!-- AS1299&#45;&gt;AS1239 -->
<g id="edge17" class="edge"><title>AS1299&#45;&gt;AS1239</title>
<path fill="none" stroke="black" d="M415.382,-326.596C428.683,-347.682 452.922,-383.37 479.37,-409 481.519,-411.083 483.843,-413.121 486.247,-415.085"/>
<polygon fill="black" stroke="black" points="484.518,-418.168 494.597,-421.436 488.756,-412.596 484.518,-418.168"/>
</g>
<!-- AS2603&#45;&gt;AS3491 -->
<g id="edge21" class="edge"><title>AS2603&#45;&gt;AS3491</title>
<path fill="none" stroke="black" d="M442.134,-67.3771C451.222,-66.2541 461.059,-65.0384 470.544,-63.8664"/>
<polygon fill="black" stroke="black" points="471.15,-67.3181 480.646,-62.6181 470.292,-60.371 471.15,-67.3181"/>
</g>
</g>
</svg>
